<svg xmlns="http://www.w3.org/2000/svg" viewBox="0 0 256 256"><path d="M119.671 0h16.814l.122.02c2.365.377 4.814.436 7.197.719q6.586.817 13.057 2.291 1.383.32 2.76.67 1.376.349 2.745.729 1.368.38 2.728.79t2.71.852 2.69.912 2.668.97q1.33.501 2.648 1.03 1.317.53 2.623 1.09 1.305.559 2.598 1.147t2.572 1.204q1.28.617 2.545 1.262 1.266.644 2.516 1.317t2.486 1.374 2.455 1.428 2.423 1.483 2.389 1.536 2.354 1.589 2.318 1.641 2.281 1.692 2.243 1.742 2.204 1.793 2.163 1.84 2.122 1.889q1.05.955 2.079 1.934 1.028.98 2.035 1.981t1.992 2.026q.983 1.023 1.945 2.07.961 1.045 1.899 2.111t1.851 2.154 1.803 2.195 1.754 2.234 1.703 2.272q.872 1.194 1.716 2.408.845 1.213 1.661 2.446t1.605 2.483q.787 1.251 1.546 2.52.76 1.268 1.49 2.554t1.43 2.587q.7 1.302 1.37 2.62.671 1.317 1.311 2.65t1.25 2.679 1.189 2.707 1.126 2.734 1.063 2.758 1 2.782.936 2.805.871 2.825.808 2.844c.928 3.34 1.815 6.713 2.433 10.126.597 3.302 1.127 6.649 1.457 9.988.202 2.057.14 4.379.575 6.382v13.596l-.018.123c-.187 1.33-.204 2.708-.312 4.05q-.272 3.786-.822 7.542c-1.263 8.49-3.348 17.21-6.318 25.273-1.64 4.448-3.604 8.773-5.567 13.085 4.386 1.379 8.762 3.024 13.037 4.72v1.243q-10-1.083-20.028-1.871c5.708 3.57 11.788 6.404 17.628 9.73-3.278-.634-6.651-.89-9.97-1.25-3.866-.42-7.737-.909-11.612-1.242 5.863 3.39 11.864 6.514 17.748 9.86-5.201-.707-10.389-1.312-15.606-1.886-2.267-.249-4.562-.638-6.837-.762l-.072-.065.072.065c1.318.946 2.828 1.702 4.245 2.49q4.315 2.406 8.68 4.72c1.69.91 3.472 1.765 5.078 2.816-4.311-.849-8.75-1.21-13.116-1.701-3.162-.356-6.328-.866-9.505-1.06 4.526 2.81 9.47 5.162 14.166 7.682 1.546.83 3.125 1.617 4.613 2.549-4.435-.808-8.938-1.288-13.401-1.916-3.349-.47-6.836-1.174-10.211-1.357 4.05 2.583 8.465 4.858 12.71 7.119 1.98 1.055 5.482 2.492 7.031 3.952-8.015-2.035-16.285-3.36-24.4-4.976-2.504 2.248-4.959 4.544-7.607 6.626q-1.405 1.093-2.841 2.144t-2.902 2.06-2.96 1.977-3.017 1.89-3.07 1.8-3.121 1.712-3.17 1.62q-1.596.788-3.214 1.529-1.619.74-3.258 1.434t-3.297 1.34q-1.66.645-3.336 1.243-1.676.597-3.37 1.146-1.693.547-3.401 1.047-1.709.5-3.431.95t-3.456.848q-1.735.4-3.48.75-5.644 1.148-11.36 1.845c-1.979.227-4.267.145-6.186.625h-18.088c-2.164-.393-4.41-.512-6.595-.798q-6.159-.842-12.26-2.03-1.695-.355-3.378-.757-1.682-.405-3.353-.857-1.67-.45-3.327-.95-1.656-.503-3.298-1.05-1.642-.548-3.266-1.143-1.626-.595-3.233-1.237t-3.195-1.33-3.154-1.423q-1.568-.734-3.113-1.513-1.546-.779-3.067-1.602-1.523-.823-3.02-1.69-1.498-.868-2.97-1.778t-2.917-1.862-2.861-1.946-2.805-2.028-2.744-2.109c-2.614-2.06-5.091-4.338-7.573-6.555-4.306 1.125-8.768 1.822-13.149 2.6-3.66.651-7.296 1.393-10.943 2.106 1.236-1.112 3.13-1.876 4.605-2.66q7.946-4.213 16.116-7.972c-3.3.192-6.615.802-9.898 1.198-5.104.616-10.246 1.083-15.306 2.006 2.161-1.387 4.603-2.537 6.897-3.688q6.276-3.185 12.746-5.954c-3.634.084-7.278.46-10.897.782-4.279.38-8.596.737-12.833 1.462 5.92-3.436 12.263-6.108 18.29-9.333-3.581.014-7.192.472-10.762.766-3.99.328-8.078.5-12.021 1.202 2.929-1.367 5.74-3.029 8.613-4.512 3.079-1.59 6.293-3.028 9.266-4.806-4.147.133-8.297.471-12.44.715-2.817.167-5.723.18-8.517.559 1.237-.776 2.582-1.418 3.87-2.105q2.93-1.573 5.88-3.112c1.19-.608 5.093-2.302 5.788-3.046l-.013-.168c-.768-.212-15.959.555-17.811.695v-.435c4.22-2.007 8.628-3.82 12.671-6.163-5.887-11.947-9.532-24.825-11.604-37.954-.499-3.164-.526-6.409-1.047-9.548l-.02-.113v-15.696c.402-1.882.356-4.06.557-5.99.33-3.186.881-6.356 1.474-9.504q.339-1.787.728-3.565.389-1.776.827-3.542.439-1.766.927-3.518.488-1.753 1.025-3.491t1.123-3.46 1.22-3.428q.633-1.706 1.315-3.392.681-1.687 1.41-3.354t1.504-3.313 1.596-3.27q.82-1.623 1.687-3.222.867-1.6 1.777-3.175.911-1.575 1.866-3.123t1.953-3.07 2.038-3.014 2.122-2.955q.853-1.161 1.733-2.303t1.784-2.263 1.835-2.222q.93-1.1 1.885-2.18t1.934-2.137 1.981-2.093q1.002-1.035 2.028-2.047t2.074-2.001 2.118-1.954 2.163-1.905 2.204-1.857 2.246-1.805 2.286-1.755 2.325-1.703 2.363-1.65 2.4-1.596q1.208-.784 2.435-1.54 1.226-.758 2.469-1.487t2.502-1.43q1.259-.7 2.534-1.373 1.274-.672 2.564-1.315t2.593-1.257 2.621-1.199 2.647-1.138 2.672-1.08 2.697-1.017 2.718-.957 2.74-.896 2.758-.833 2.777-.77 2.793-.709 2.81-.644A114 114 0 0 1 112.941.67c2.234-.249 4.51-.333 6.73-.67m-5.866 30.396c-1.531-.064-3.054-.02-4.586.022 2.091.475 7.7 3.33 9.336 4.724-2.203-.553-4.321-1.26-6.555-1.73 2.669 1.44 5.333 2.866 7.956 4.39-1.697-.211-3.332-.478-4.986-.925 1.848 1.365 3.948 3.606 5.122 5.597-2.546-1.292-4.972-2.672-7.237-4.425-2.04-1.578-9.443-9.42-11.053-9.59-.324.246-.213.602-.416.901-.39.576-2.048 1.41-2.721 2.045 3.012.687 5.897 1.461 8.185 3.667 1.029.992 1.967 2.08 3.029 3.036 1.021.922 2.16 1.576 3.242 2.399-2.925-.801-4.377-1.783-6.657-3.769-.685-.596-1.362-1.254-2.128-1.743-1.835-1.174-4.663-1.733-6.83-1.898 2.686 3.951 4.09 8.246 3.154 13.053-.835 4.293-3.216 8.108-4.267 12.369-.86 3.49-.71 7.009-.826 10.565-.461 13.977-.08 18.156 7.789 29.988 1.282 1.929 2.71 3.775 4.088 5.636q7.022 9.44 14.916 18.164c1.715 1.887 3.603 3.609 5.33 5.493l.097.177.118.114.066.093-.066-.093-.118-.114-.098-.177c-.644-1.541-1.008-3.144-1.401-4.763-1.403-5.775-2.576-13.535-1.022-19.365 1.537 4.267 1.712 9.076 2.402 13.53.618 3.996 2.103 7.761 2.862 11.708.416 2.159.483 4.341.728 6.52.373 3.32 1.315 7.78 2.477 10.881-.085-.976-.175-1.976.076-2.934.326 1.954.345 3.967.444 5.943.162 3.24.61 6.292-.388 9.453-1.366 4.323-4.173 3.386-7.698 4.172-1.643.367-3.146 1.104-4.63 1.877-.639.333-1.847.839-2.072 1.551l.207.194c.917.216 1.911.082 2.844.022 1.953-.125 3.82-.341 5.733-.761 1.925-.423 3.885-1.248 5.88-1.185 1.744.055 2.554 1.992 4.499 2.373.762.149 1.62.045 2.392.01-.495-.508-1.367-1.226-1.42-1.979-.025-.347.13-.606.368-.842.685-.68 2.472-.912 3.412-.902 1.714.016 2.975.73 4.123 1.932-.373-1.276-1.008-2.459-2.073-3.292-1.783-1.394-3.469-.814-5.464-.635-.495.044-.937-.031-1.318-.376-.555-.503-.588-1.629-.61-2.318-.096-2.926.276-5.907.348-8.838.078-3.192-.137-6.403.099-9.59.028-.377.036-.767.298-1.049 1.292 1.586 1.612 8.849 1.714 11.063 1.616-2.779 1.656-5.413 1.136-8.51-.14-.826-.412-1.856-.267-2.689.164-.058.136-.09.27-.01 1.014.611 2.177 3.975 2.62 5.159.706-2.022.59-4.213.372-6.313 1.546 1.265 2.036 3.577 2.795 5.356 1.442-4.479.997-13.06.932-17.89-1.275-1.355-2.199-3.125-3.35-4.603-2.998-3.849-5.968-7.63-8.657-11.712-2.898-4.396-5.36-8.97-7.78-13.638.137.796.251 1.586.302 2.393.048.78.058 1.63-.48 2.247-.322.121-.477.162-.807.034-.855-.329-1.709-1.604-2.05-2.41-.343-.813-.26-1.376.073-2.17-.732-1.113-1.436-2.196-1.705-3.522-.163-.804-.32-2.07.162-2.792l.244-.032c.873.647 1.076 2.1 1.33 3.101.167-1.547.744-3.144.804-4.664-.266-.158-1.168.12-1.507.184-.756-1.133-1.316-2.817-1.548-4.164-.193-1.122-.212-2.302.47-3.257l-.68-2.775c-.248.882-.47 1.72-1.3 2.217-.217.008-.309.05-.503-.075-.782-.503-1.156-2.006-1.341-2.888-.215-1.019-.467-3.55.256-4.38.22-.253.306-.287.615-.286.1.099.23.174.3.296.273.475.36 3.384.515 4.217.825-3.273-.732-8.05-1.03-11.503-.072.727-.043 2.108-.536 2.67-.03-.022-.062-.04-.088-.066-.282-.28-.399-.962-.404-1.35-.01-.79.371-1.288.896-1.834.206-.215.47-3.208.593-3.785.806-3.782 2.813-7.135 6.11-9.253 3.786-2.43 8.114-2.709 12.423-1.79l.049.068-.05-.069c-1.146-1.21-2.406-1.922-3.364-3.379 1.153.98 2.309 2.107 3.631 2.84-1.144-1.501-2.453-2.873-3.589-4.38-1.383-1.832-2.535-3.89-3.712-5.858-.149 1.417-.346 2.758-.768 4.123-1.752-1.961-2.464-4.494-3.866-6.652-1.404-2.161-3.85-3.852-5.823-5.49 1.77.387 3.59.545 5.368.927-1.357-1.992-3.55-2.917-5.614-4.009q2.318.478 4.53 1.317c-1.587-1.67-3.274-3.562-5.248-4.77-1.915-1.171-3.882-1.008-5.977-.505.753.496 1.572.92 2.358 1.365-1.543-.413-2.789-.76-4.398-.51-1.56 1.182-2.085 2.341-4.042 3.265 1.542.454 3.26.997 4.636 1.835m-20.351 1.418-.063.052zc1.215-.648 2.259-1.429 3.56-1.97 1.466-.61 2.987-.646 4.35-1.559-.975-.111-1.783.004-2.717.279-1.786.525-4.26 1.534-5.193 3.25m46.077 41.822.069.049c.005.075.012.194.024.273.2 1.269 2.147 7.845 2.905 8.393.1-.471.137-.983.123-1.466-.066-2.295-1.38-5.62-3.052-7.2zm14.25 4.615.067.068c.006.51.16 1.042.31 1.528.575 1.867 1.7 4.903 3.522 5.867q.002-.15-.004-.301c-.097-2.464-2.06-5.473-3.828-7.094zm51.99 8.264.047.07c1.06 2.819 4.25 6.728 5.766 9.578 1.538 2.89 2.25 6.4 3.372 9.483a214 214 0 0 1-12.202-11.297c.212.813 2.057 7.229 1.924 7.634-1.044-.243-5.205-6.562-6.254-7.796a16 16 0 0 0-2.437-.671c1.31 2.317 3.023 4.554 3.916 7.068-2.936-2.659-5.664-6.152-9.398-7.683 2.129 3.124 4.201 6.291 6.346 9.402 1.286 1.865 2.897 3.781 3.905 5.804-4.879-2.997-8.772-8.013-13.95-10.525-.453.47-.899.955-1.371 1.406.425 2.57 1.213 4.974 1.859 7.487-2.446-2.34-4.643-5.834-7.293-7.81-1.377.805-2.679 1.753-4.062 2.537-1.36-4.816-2.61-9.666-3.93-14.493-.67-2.449-1.438-4.868-2.07-7.328 1.567.66 3.069 1.52 4.585 2.293l9.07 4.634c1.979 1.014 3.978 2.11 6.026 2.972 3.262-4.359 7.047-8.262 10.476-12.472 3.684 1.575 7.264 3.545 10.85 5.34q8.673 4.439 17.553 8.45c2.807-3.456 5.349-7.078 8.006-10.645-2.046-4.728-4.623-9.334-7.32-13.719q-.618-1.017-1.256-2.022-.639-1.005-1.298-1.996t-1.337-1.97-1.377-1.942-1.416-1.914-1.454-1.885-1.492-1.855-1.53-1.825q-.773-.905-1.565-1.794-.792-.888-1.602-1.761t-1.637-1.729-1.67-1.695q-.845-.84-1.706-1.661-.861-.823-1.739-1.627-.877-.804-1.77-1.591-.894-.787-1.804-1.555-.909-.768-1.833-1.518-.925-.75-1.864-1.481t-1.894-1.443-1.923-1.405-1.95-1.365-1.977-1.326q-.996-.652-2.004-1.285t-2.03-1.245q-1.02-.612-2.054-1.203t-2.078-1.162-2.101-1.12-2.123-1.076-2.145-1.034-2.165-.99-2.184-.947-2.204-.902q-1.353-.538-2.719-1.043t-2.744-.976-2.766-.909q-1.39-.437-2.789-.84-1.399-.404-2.808-.773t-2.826-.703-2.842-.634-2.857-.565-2.87-.494-2.882-.424-2.89-.354-2.899-.282-2.904-.212-2.91-.14q-1.454-.053-2.91-.07t-2.913.002-2.911.073-2.909.144-2.904.215-2.898.287q-1.448.16-2.89.357-1.444.196-2.881.427-1.438.232-2.87.498-1.431.267-2.856.569t-2.842.637-2.825.707-2.807.776-2.787.844-2.766.913q-1.377.473-2.742.98-1.365.506-2.718 1.046t-2.691 1.112q-1.068.474-2.127.968t-2.107 1.009-2.088 1.048-2.067 1.088-2.046 1.128-2.024 1.166-2.002 1.205-1.978 1.243q-.983.63-1.954 1.28t-1.93 1.317q-.958.668-1.904 1.354-.945.686-1.877 1.39T55.222 34.7t-1.823 1.46-1.795 1.496-1.767 1.529q-.875.773-1.736 1.563t-1.706 1.595-1.676 1.628-1.645 1.66-1.612 1.69-1.58 1.721-1.546 1.751q-.765.883-1.513 1.78-.748.898-1.479 1.809-.73.911-1.444 1.837-.713.925-1.408 1.863-.696.939-1.373 1.89-.677.952-1.337 1.917-.659.964-1.3 1.941-.64.977-1.261 1.966-.622.989-1.225 1.99c-2.418 3.966-4.797 8.16-6.69 12.41 1.774 2.213 3.439 4.516 5.138 6.787.954 1.273 1.89 2.635 2.992 3.783 5.068-2.125 9.974-4.816 14.914-7.227 4.578-2.234 9.813-4.497 14.19-6.985 1.753 2.222 3.6 4.368 5.387 6.563 1.62 1.991 3.19 4.06 4.912 5.965 3.188-1.467 6.297-3.162 9.44-4.729 1.104-.55 2.25-1.255 3.4-1.684.298-.112.368-.178.678-.084 1.074 1.53 1.565 4.76 2.1 6.615.707 2.453 1.533 5.111 2.721 7.37-2.334.885-3.773 2.397-5.456 4.167-.263-.889-.477-1.74-.602-2.66-.355.264-.697.54-1.095.737a39 39 0 0 1-3.144-.211c-2.401 2.48-4.858 4.895-7.3 7.333 1.214-2.62 2.701-5.181 4.206-7.647-1.209-.051-2.424-.13-3.634-.148-2.27 1.726-4.463 3.57-6.664 5.384-1.799 1.482-3.698 2.94-5.317 4.618 1.859-4.743 5.906-8.416 8.42-12.788l-1.118-1.4c-2.168 1.698-4.421 4.704-6.233 6.84.639-2.713 1.715-5.244 2.488-7.909-1.456 1.752-3.094 3.321-4.643 4.987-1.337 1.438-2.57 2.962-3.79 4.499.788-2.442 1.473-4.94 1.8-7.49-3.78 3.646-7.973 6.608-12.065 9.867 1.291-2.765 2.611-5.545 4.05-8.237 1.312-2.457 2.745-4.854 4.033-7.323-2.828 3.198-5.494 6.222-8.751 9.009-4.108 3.515-8.593 6.543-12.494 10.306 1.882-3.927 6.352-10.255 9.192-13.61-4.696 2.416-8.993 5.596-13.77 7.894 1.68-2.483 3.653-4.79 5.418-7.218-2.149 1.429-4.341 2.824-6.423 4.35-2.92 2.142-5.696 4.483-8.484 6.793 1.474-3.832 3.404-7.483 4.883-11.323-1.947 2.05-3.987 4.618-6.298 6.225-.39 2.425-.999 4.826-1.44 7.244-1.102 6.028-1.868 12.157-1.82 18.293 5.163-2.697 9.92-6 14.912-8.973 4.119 1.007 8.188 2.19 12.292 3.252 4.163-2.34 8.624-4.313 12.893-6.467 4.443-2.241 8.851-4.732 13.375-6.788 2.267 4.31 4.115 8.828 6.28 13.186 2.224-.509 4.484-.865 6.734-1.234 1.373-.225 2.835-.363 4.148-.837 1.33-.48 2.581-1.366 3.785-2.097 2.58-1.568 5.142-3.282 7.812-4.69 2.546 3.031 4.933 6.22 7.386 9.329 2.135 2.707 5.393 6.37 6.87 9.397-2.297-.609-4.565-1.6-6.908-1.975-1.338.778-2.792 1.526-4.044 2.43-2.062 1.49-3.92 3.481-5.748 5.253.87-2.42 1.971-4.757 3.045-7.092q-2.468-.158-4.94-.101c-2.12 2.952-4.737 5.647-7.089 8.426q1.624-4.273 3.193-8.567c.545-1.508 1.006-3.07 1.646-4.539-2.328 2.24-4.509 4.655-6.737 6.995-1.063 1.117-2.105 2.323-3.294 3.306 1.704-3.393 3.517-6.732 5.114-10.18-1.864 2.157-3.956 4.014-6.001 5.99-2.248 2.172-4.443 4.42-6.76 6.519 1.352-2.647 2.75-5.287 4.034-7.968.653-1.362 1.168-2.801 1.875-4.133-2.794 2.29-5.861 4.305-7.964 7.294q-.154-2.133-.201-4.27c-.6.046-1.192.091-1.787.189-1.11.84-2.079 1.956-3.071 2.933q-3.747 3.689-7.331 7.535c2.029-4.952 4.528-9.758 6.826-14.592.643-1.353 1.654-2.822 2.077-4.228l.051-.08-.051.08c-.973.982-1.839 2.088-2.758 3.122l-5.58 6.216c-1.269 1.405-2.551 2.866-4.003 4.087.963-3.01 2.005-6.028 3.144-8.975.764-1.977 1.659-3.932 2.331-5.94q-3.434 2.923-6.934 5.767c-2.367 1.906-4.807 3.761-7.084 5.772-3.387 2.991-6.444 6.496-10.104 9.154 1.776-3.25 3.85-6.372 5.793-9.526.909-1.476 2.133-3.174 2.71-4.793l.045-.064-.044.064c-2.205 1.309-4.293 3.072-6.293 4.68q-3.594 2.882-7.156 5.805 2.018-4.388 3.742-8.9c-1.384 1.088-2.838 2.405-4.645 2.658-.665.093-1.361.03-2.033.059-2.575 2.567-8.177 9.45-10.853 10.908.8-2.901 3.578-7.687 5.027-10.49-2.201 1.993-4.773 3.65-7.25 5.272-.005 1.98.258 3.99.465 5.957 1.422 13.505 5.873 27.724 11.946 39.846 5.244-.923 10.376-2.357 15.544-3.624q4.85-1.152 9.746-2.09c2.476-.47 4.968-.849 7.446-1.313 5.602-1.05 11.187-2.15 16.824-3.011 4.127-.63 8.344-.841 12.446-1.608.41-1.065.873-2.112 1.535-3.048.878-1.238 2.206-1.692 3.428-2.494 2.347-1.538 3.1-2.843 6.274-3.284 1.339-.186 2.087.113 3.133.88 1.546-.507 2.968-.517 4.54-.782 1.065-.18 2.109-.576 3.151-.86 2.039-.554 3.889-.256 5.939.031.347-.145.754-.313 1.01-.598 1.222-1.352 1.13-5.79 1.103-7.651-1.183-1.354-1.737-3.23-2.234-4.924-.738-2.51-1.097-5.119-1.58-7.687-.585-3.115-1.332-6.193-1.458-9.374-1.9-2.13-3.053-5.031-4.712-7.374-2.54-3.589-5.483-6.864-8.104-10.385-3.175-4.265-5.897-9.227-8.084-14.071-2.954-6.541-5.76-14.632-6.263-21.819-.194-2.778-.01-5.536.316-8.295.336-2.837.89-5.66 1.915-8.336 1.515-3.952 4.706-7.733 8.996-8.654 1.46-.314 3.036-.285 4.407-.914l.137-.064q.316-.613.566-1.255t.432-1.306.293-1.345.15-1.368c.244-4.07-.927-7.775-3.639-10.824-.675.319-1.453.753-1.993 1.274-1.093 1.055-1.12 2.465-1.155 3.88q-.355-.492-.666-1.011-.311-.52-.576-1.066-.266-.545-.482-1.111-.217-.566-.383-1.15c-.99-3.523.118-6.902 2.476-9.646.739-.86 1.667-1.566 2.356-2.47.566-.741.703-1.783 1.18-2.587 1.335-2.255 5.415-4.065 7.886-4.623 5.397-1.218 13.884 1.477 18.521 4.423 6 3.812 10.362 11.44 14.315 17.21 1.282 1.871 2.673 3.673 4.066 5.462 3.161 4.062 6.179 8.235 9.382 12.26 2.896 3.64 6.011 7.133 8.778 10.872 2.677 3.616 5.085 7.707 7.104 11.718 1.121 2.227 1.847 5.862 2.58 8.341 2.587 8.763 4.724 17.471 6.315 26.472.685 3.879.907 7.822 1.694 11.689.403 1.985.802 4 1.327 5.956 1.033 3.855 2.237 7.529 2.802 11.503a25.4 25.4 0 0 1 .252 4.541c-.065 1.622-.29 3.279-.118 4.898.242 2.264.895 4.608 1.31 6.856.831 4.514 1.571 9.09 2.566 13.568.462.105 1.178.354 1.642.227.353-.096.392-.22.56-.517 1.508-.195 3.604.501 5.104.78q11.7 2.259 23.262 5.137 9.244 2.192 18.337 4.944 1.096-2.18 2.105-4.402t1.929-4.483 1.748-4.556q.829-2.295 1.566-4.621.736-2.327 1.38-4.681t1.194-4.732 1.004-4.775.813-4.812c.423-2.968.843-5.968.799-8.972-.97-.854-2.156-1.543-3.224-2.282q-2.295-1.612-4.549-3.283c2.314 3.268 4.184 7.124 5.76 10.796q-2.594-2.19-4.838-4.736c-.997-1.117-1.934-2.39-3.05-3.387-2.154-1.924-5.599-3.797-8.046-5.656-.556.243-1.081.566-1.61.863 1.019 2.469 2.172 4.88 3.183 7.358-2.703-2.067-5.303-4.297-7.957-6.428-1.763-1.415-3.634-2.73-5.322-4.228 3.113 5.452 6.782 10.625 9.56 16.268-4.321-3.906-8.099-8.452-12.448-12.323-.946-.842-2.05-1.537-3.08-2.273-1.469-1.052-2.912-2.136-4.388-3.179-1.54-1.087-3.004-2.402-4.67-3.288l-.046-.058.046.058c.707 2 1.6 3.958 2.41 5.921q1.787 4.392 3.625 8.763c-3.079-2.976-6-6.175-8.928-9.3-1.06-1.132-2.527-3.05-3.736-3.887l-.05-.074.05.074c.348 1.164 1.007 2.37 1.504 3.489q2.121 4.743 4.51 9.357c.953 1.87 2.07 3.738 2.839 5.69-3.309-3.823-7.947-7.991-11.761-11.355-.823.637-1.622 1.278-2.385 1.986.841 2.227 1.9 4.345 2.703 6.599-2.955-2.446-5.469-7.555-8.769-9.342l-.18.062c-.08 1.271 5.024 8.869 5.958 10.795l.079.165c-1.033-.808-1.962-1.855-2.887-2.786-2.162-2.178-4.249-4.457-6.525-6.517-.798-3.378-1.269-6.802-1.662-10.245 2.74.85 5.419 2.03 8.11 3.033 1.615-3.784 3.504-7.525 5.3-11.229 1.435-.651 2.933-1.196 4.386-1.812 3.788 2.088 7.692 3.993 11.512 6.028 4.131 2.2 8.275 4.621 12.595 6.42 4.072-.978 8.122-2.18 12.228-2.996 3.223 2.117 6.589 4.066 9.933 5.987 1.469.843 2.97 1.625 4.405 2.527.128-3.864-.974-20.631-2.55-23.512-1.091-1.995-5.213-6.312-6.923-8.24 1.843 4.652 3.674 9.337 5.748 13.89-2.175-2.329-4.34-4.71-6.653-6.904-2.406-2.282-5.008-4.406-7.492-6.608.774 2.385 2.02 4.853 2.97 7.208-2.112-1.191-3.944-2.97-5.879-4.432-2.543-1.923-5.18-3.641-7.652-5.672 2.963 5.223 6.26 9.67 8.968 15.216-2.828-1.846-7.85-6.1-10.185-8.574-2.361-2.502-4.545-5.224-6.838-7.797-1.469-1.648-2.884-3.587-4.533-5.047zm-71.741.11.066.14c.172 1.954 2.1 6.028 3.061 7.7 1.78 3.097 4.315 5.968 7.857 6.938-.214-1.756-.231-3.547-.383-5.311q-.052-.622-.133-1.24-.081-.619-.191-1.233t-.249-1.222-.305-1.21-.361-1.194-.417-1.175-.472-1.155-.525-1.131c-.628-1.08-1.174-2.19-1.719-3.312.348 2.441 1.298 4.626 1.993 6.968.831 2.802 1.074 5.615 1.112 8.522-3.142-2.106-5.458-5.031-7.278-8.325-.618-1.119-1.143-2.379-1.859-3.431l-.13-.189zm11.751 6.5.063.07c.695 2.622 4.193 7.385 6.49 8.842a20 20 0 0 0-.225-1.945c-.186-1.014-.528-2.025-.806-3.019-.158.717-.262 1.438-.368 2.163-1.405-1.923-3.324-4.462-5.091-6.042zm-49.632 7.25.06.071c.627 1.37 2.528 4.036 3.62 5.096.308.059.371.037.672-.064.141-.18.224-.297.264-.528.328-1.877-1.24-4.353-2.199-5.823l-.98-1.367c.878 2.265 2.027 4.24 2.445 6.679-1.388-1.186-2.489-2.735-3.822-3.993zm70.007 3.75.078.056c.131 1.314.602 2.738.954 4.013 1 3.615 2.384 7.435 2.668 11.188-3.776-1.999-7.363-9.636-10.106-13.205q.64 2.13 1.532 4.168c1.472 3.316 5.294 9.85 8.446 11.57.478.26 1.348.71 1.9.554.225-.252.274-.572.304-.9.308-3.426-3.604-14.732-5.697-17.388zm-20.255 12.126.066.063c.817 1.81 2.276 3.491 3.391 5.131 4.417 6.496 8.576 12.817 16.333 15.792q.47.183.954.324t.978.241.996.156 1.005.07c-.154-5.438-3.45-12.62-7.189-16.536-.082-.087-.12-.112-.205-.179l-.074-.046.074.046c.402 1.251 1.205 2.524 1.802 3.704 1.653 3.27 3.359 6.784 3.985 10.414-3.725-2.207-7.82-7.997-10.512-11.486-.965-1.25-1.981-2.88-3.306-3.758l-.09-.092-.079-.087.08.087.089.092c.475 1.086 1.259 2.15 1.9 3.148 2.71 4.226 5.665 8.602 9.47 11.922-7.476-2.422-11.163-8.786-15.723-14.609-1.17-1.494-2.44-3.094-3.879-4.334zm6.25 12.5.06.067c.24 1.088.82 2.171 1.274 3.188.945 2.119 1.891 4.206 3.168 6.152 2.099 3.198 7.57 9.019 10.811 11.05.597.373 1.268.655 1.907.947-1.127-.791-2.127-1.791-2.68-3.084.793.604 1.514 1.385 2.169 2.135l.14.04-.14-.04-.053-.42c.232-.063.125-.076.353.054.644.368 1.16 1.02 1.745 1.479 1.568 1.232 3.412 2.373 5.257 3.121-.303-1.071-1.662-4.374-1.315-5.27.635.047 2.307 1.69 3.026 2.114l.072.174-.463.096c.089 1.413.637 2.962.923 4.363.821 4.025 1.777 8.57 1.617 12.703-1.321-2.1-2.488-4.648-3.359-6.972-.525-1.401-.934-2.87-1.592-4.215.099 1.374.36 2.685.597 4.038-1.18-1.687-1.07-3.905-1.92-5.754.067 1 .17 1.966.343 2.953-1.882-2.78-2.297-4.813-5.402-6.533 1.65 3.584 3.427 7.09 5.105 10.656 1.266 2.69 2.39 5.482 3.803 8.098q2.595.292 5.168.733c-.444-3.617-1.336-7.227-2.01-10.812-.775-4.136-1.299-8.438-2.503-12.472-.471-1.578-1.066-2.99-1.94-4.385.501 2.428 1.318 4.812 1.695 7.26-2.572-2.768-3.945-5.989-5.438-9.394-.5-1.14-.994-2.45-1.714-3.469.655 4.9 2.559 9.481 3.791 14.245-1.8-2.066-3.466-4.252-4.804-6.65-1.195-2.143-2.239-4.565-3.723-6.512.796 3.135 2.23 6.175 4.006 8.88.488.744 1.083 1.404 1.547 2.163l.067.111c-3.36-2.234-5.697-5.217-7.766-8.641-.782-1.294-1.545-2.82-2.637-3.87l-.056-.077.056.077c.875 3.4 3.45 6.164 4.744 9.292-2.939-2.098-4.916-5.419-6.57-8.572-.538-1.023-1.018-2.203-1.688-3.142-.709-.992-1.872-1.804-2.747-2.665-1.017-1-1.932-2.096-2.863-3.173zm25.005 4.5.09.067c-.006 1.21.028 2.4.103 3.607a116 116 0 0 1-4.862-7.231c-1.263-2.048-2.428-4.175-3.792-6.158 1.514 5.472 4.928 10.56 8.304 15.043.515.656.837 1.311 1.15 2.075-3.179-1.675-4.925-4.702-7.226-7.332 2.161 4.766 4.754 6.84 8.472 10.263-.301-2.856-1.187-7.621-2.15-10.267zm-16.53 11.778.06.116c1.362 3.105 3.48 5.867 4.674 9.049-1.296-1.669-2.47-3.44-3.67-5.178-.44-.639-.864-1.429-1.382-1.996l-.082-.204-.075-.065.075.065.082.204c.229.98.8 2.044 1.193 2.976q1.154 2.75 2.379 5.467c.88 1.925 1.852 3.813 2.423 5.86-1.745-2.092-3.054-4.529-4.448-6.859-1.573-2.63-3.233-5.286-4.565-8.044-.794-1.643-1.377-3.382-2.167-5.026-1.125-2.338-2.276-4.365-3.28-6.807.238 1.9.496 3.715 1.162 5.522-1.315-1.273-1.937-2.764-2.646-4.41-.625 3.942-2.01 5.698-.418 9.718.419 1.059 1.136 2.383 1.207 3.513l-.178.054c-.337-.18-.572-.404-.834-.683-.565-.6-1.529-1.688-1.738-2.496-.143-.552-.02-1.395-.006-1.975-.112.317-.239.864-.444 1.121-.232.293-.316.289-.659.298-.553-.285-.928-.795-1.334-1.256-.079.906-.259 1.558-.711 2.352 1.092 2.996 2.229 6.054 3.843 8.816.776 1.327 1.734 2.546 2.56 3.844 1.626 2.56 3.171 5.019 5.162 7.325-.908-2.358-2.484-6.763-3.894-8.63l-.13-.009c.027.284.095.544-.024.809-1.124-.903-2.36-2.243-3.159-3.444-1.23-1.852-3.197-6.632-3.773-8.779.529 1.026 1.194 1.972 1.76 2.976 1.168 2.079 2.377 5.348 4.132 6.866l.148-.025.018.131.133.06.35-.208c.184-.951-1.174-3.808-1.438-5.053 3.421 4.326 5.849 11.548 8.085 16.682l2.74.216c-1.283-3.248-2.748-6.435-4.05-9.679-.708-1.762-1.493-3.498-1.832-5.376.933 1.982 2.099 3.813 3.09 5.76 1.597 3.136 3.025 6.373 4.551 9.546q1.37.092 2.737.209c-.91-2.89-2.024-5.744-2.331-8.781 1.51 2.912 2.806 5.941 4.082 8.963 1.27.07 2.54.241 3.806.381-.664-2.162-1.67-4.223-2.367-6.379-1.325-4.093-2.112-9.76-4.529-13.29-1.093-1.599-2.828-2.804-4.228-4.131zm-10.36 12.972.052.068c.237.843.814 1.993 1.5 2.543l.056.109-.056-.109c-.314-.811-.86-1.948-1.5-2.543zm.51 3 .041.157c.529 1.922 1.795 4.334 2.595 6.222.9.123 1.817.106 2.724.117-2.062-1.889-3.392-4.359-5.319-6.339zm-35.457 1.273-.069.071zc1.788-.714 3.273-1.787 5.22-2.036-.614-5.213-.193-10.517-1.01-15.709-.484 2.103-1.183 3.996-1.989 5.99-.912-1.61-1.198-3.733-1.793-5.495-.018.787.006 1.578.015 2.364l.023.182c.362 2.978 1.647 5.52 1.38 8.605-.19-1.81-.447-3.651-1.052-5.373.006 1.712.233 3.418.187 5.132-.049 1.84-.496 3.605-.913 5.386q.76-.87 1.542-1.72c.084-.822.019-1.778.24-2.57.16 1.265.081 2.424-.09 3.686-.508.578-1.173 1.06-1.76 1.558m-14.382 5.37-.054.075zc1.552.03 3.136-.198 4.687-.306 1.41-.099 2.894-.06 4.283-.306q.326-.058.633-.18.306-.122.582-.304c.51-.341 1.263-.96 1.376-1.584-.19-.405-.412-.485-.748-.748l.34-.089c.366-.066.687-.117 1.02-.296l-.099-.075c-3.38.28-9.617 1.466-12.074 3.888M99.2 218.42l-.075.052zc5.629-1.99 9.602-1.959 15.42-1.658-2.34 1.069-4.479 2.513-6.784 3.654-3.092 1.53-6.344 2.585-9.591 3.726 3.433.627 6.837.576 10.31.642q3.425.068 6.841.334c4.408.33 8.759 1.053 13.16 1.441 4.12.364 8.261.334 12.39.528 4.581.214 9.122.619 13.715.642 7.016.034 14.025-1.233 21.032-.36 5.263.656 10.958 2.282 15.546 4.96-.103-.937.005-1.65.618-2.395 2.003-2.436 7.815-4.155 10.831-5.28.888-.332 1.824-.816 2.729-1.065-1.672 1.429-3.624 2.447-5.329 3.798-.412.326-.752.77-1.12 1.146-1.751 1.785-7.611 5.158-10.033 6.522-18.76 10.565-38.527 15.539-60.003 15.928-24.415.443-49.755-6.848-69.722-21.01-3.037-2.153-6.134-4.324-8.821-6.912 3.651 1.971 7.439 3.502 11.335 4.906 1.642-3.504 3.85-6.772 5.37-10.336q-10.615 1.78-21.053 4.408c3 2.968 6.589 5.66 10.005 8.133q.86.622 1.73 1.229t1.752 1.198q.88.591 1.772 1.167.892.575 1.793 1.135.902.56 1.813 1.103.912.543 1.832 1.07.921.528 1.852 1.038.93.511 1.869 1.005t1.886.972 1.904.938 1.92.903 1.936.87 1.951.835 1.966.8q.986.392 1.979.766t1.992.73 2.006.695q1.005.338 2.017.658 1.011.32 2.029.623 1.017.302 2.039.587 1.022.284 2.05.55t2.058.514q1.033.248 2.069.478 1.035.23 2.075.44t2.084.403 2.09.367 2.096.33q1.05.155 2.103.293 1.052.135 2.106.252 1.055.12 2.111.218 1.057.1 2.115.18t2.117.142c8.19.43 16.583.322 24.728-.655q1.142-.135 2.28-.292 1.14-.158 2.275-.335 1.136-.18 2.269-.38 1.132-.2 2.26-.423 1.129-.222 2.252-.465 1.124-.244 2.243-.509 1.12-.265 2.233-.551 1.114-.287 2.222-.594t2.21-.636 2.197-.678q1.096-.35 2.184-.72t2.17-.762q1.081-.391 2.155-.803 1.074-.411 2.14-.844 1.065-.432 2.122-.884t2.106-.925 2.087-.965 2.069-1.005 2.049-1.044 2.029-1.083 2.008-1.121 1.986-1.16q.987-.59 1.963-1.197t1.94-1.235q.964-.626 1.916-1.271t1.892-1.308 1.867-1.344q.926-.68 1.84-1.379.913-.698 1.814-1.414.9-.715 1.786-1.448t1.758-1.482q.872-.75 1.73-1.516c-5.228-1.49-10.661-2.663-15.991-3.743.044.972.137 1.944.197 2.916.094 1.535.198 3.422-.93 4.629-1.089 1.163-2.026.936-3.42 1.075-.579.058-.687.485-1.062.849-.28.27-.601.326-.976.336-2.689.073-5.863-2.578-7.716-4.289-.376.07-.742.126-1.126.11-2.414-.097-4.574-2.112-6.1-3.808q-.343.157-.697.285c-1.633.591-3.272.438-4.829-.306-2.98-1.423-4.892-4.447-5.938-7.471-.786-.139-1.564-.19-2.36-.238.709.955 1.39 1.916 1.94 2.973.69 1.324 1.202 2.797 2.16 3.957 1.066 1.288 2.605 2.267 3.922 3.277.505.388 1.68 1.151 1.9 1.751.124.341.066.435-.056.755-.177.172-.331.301-.57.374-1.388.427-6.897-.562-8.185-1.29-1.278-.72-.024-1.531-.378-2.464-.774-2.035-6.8-1.671-8.552-2.654-.265-.773 2.542-2.017 3.113-3.65.417-1.195-.02-2.266-.532-3.34-2.146-.09-4.286-.343-6.434-.445-4.165-.197-8.357-.19-12.526-.222-3.63-.028-7.257-.119-10.885.055-2.41.115-4.69.911-7.097 1.06-1.782.108-3.578-.358-5.333-.212-1.913.16-3.52 1.547-5.487 1.723-2.306.206-5.478-.704-7.583-.01-1.626.536-3.651 1.377-5.117 2.275-1.506.922-2.85 2.018-4.425 2.844-4.127 2.165-8.597 3.651-13.009 5.104 2.844-4.04 5.343-6.492 9.316-9.44-2.102.554-4.29.588-6.394 1.09-1.1.262-3.238 1.367-4.61 1.812-.527.171-1.161.422-1.712.474-.235.023-.374.006-.599.117-.036.018-.065.047-.098.071l-.069-.05c.624-.651 1.404-1.173 2.124-1.716-.572.075-1.204.122-1.742.34-.854.344-1.595.898-2.206 1.584-1.338 1.5-5.68 8.96-6.47 10.8.059.095.09.16.184.234q.06.048.126.09.065.04.134.075.07.034.141.06.073.027.148.046.075.02.151.03.076.011.153.014t.154-.001q.078-.005.153-.018c1.134-.189 2.325-.746 3.42-1.109 2.374-.786 4.767-1.58 7.17-2.278 2.106-.612 4.43-.667 6.442-1.565 2.354-1.05 4.308-2.814 6.492-4.148 2.06-1.258 4.377-1.89 6.621-2.725 1.559-.58 3.114-1.279 4.73-1.684.593-.148 1.186-.184 1.794-.214-.731.661-1.63 1.297-2.21 2.092M121.922 3.321c-33.745 1.593-63.853 16.12-86.544 41.076q-1.032 1.14-2.035 2.306-1.003 1.165-1.977 2.354t-1.919 2.403-1.86 2.449-1.798 2.494-1.737 2.537q-.854 1.279-1.675 2.579-.821 1.299-1.61 2.619-.79 1.319-1.547 2.657t-1.48 2.695-1.415 2.73-1.346 2.765T13.7 77.78t-1.21 2.827q-.587 1.42-1.14 2.855t-1.07 2.883-.998 2.908-.927 2.932-.855 2.953-.783 2.974-.709 2.992-.636 3.008q-.3 1.508-.562 3.023t-.487 3.036-.413 3.047-.339 3.056-.263 3.064-.188 3.069-.113 3.073-.037 3.074q0 1.538.038 3.075.037 1.537.113 3.072c.647 13.144 3.902 26.41 8.62 38.666 1.217 3.161 2.495 6.312 4.079 9.31l1.757-.452c-2.493-5.677-4.92-11.343-6.796-17.262q-.403-1.248-.779-2.505t-.725-2.522-.67-2.537-.614-2.55q-.294-1.28-.56-2.564-.265-1.285-.503-2.576-.238-1.29-.448-2.585t-.392-2.595-.335-2.602-.279-2.609-.222-2.614-.165-2.62-.109-2.62-.051-2.624.005-2.624.062-2.623.119-2.621.175-2.619.233-2.613.289-2.608.345-2.601.402-2.593.458-2.584q.243-1.29.514-2.573.27-1.284.569-2.561.299-1.278.625-2.549t.68-2.534.734-2.52q.381-1.255.79-2.502.408-1.247.843-2.484.435-1.238.896-2.466.462-1.228.95-2.446c3.624-9.279 8.714-18.175 14.559-26.224q.611-.858 1.237-1.705t1.266-1.684 1.295-1.662 1.323-1.64 1.352-1.616 1.378-1.593 1.405-1.57 1.432-1.545 1.459-1.52 1.483-1.496 1.51-1.47 1.534-1.444 1.559-1.418 1.583-1.39 1.606-1.363 1.63-1.336q.82-.66 1.651-1.307t1.674-1.28 1.696-1.25 1.717-1.221 1.737-1.192 1.758-1.162q.883-.573 1.777-1.131.893-.559 1.796-1.101.903-.543 1.815-1.07.912-.528 1.833-1.04.92-.511 1.85-1.007t1.867-.976 1.884-.944 1.9-.911 1.915-.879q.96-.431 1.929-.846c16.98-7.417 36.254-10.52 54.715-9.455 6.222.448 12.335 1.127 18.45 2.393q1.21.25 2.416.523t2.404.571q1.2.298 2.393.62t2.38.669 2.365.716q1.18.37 2.35.765 1.172.394 2.335.812t2.317.859 2.3.906 2.28.952 2.262.999 2.24 1.044 2.218 1.09q1.104.555 2.196 1.134t2.173 1.178 2.148 1.222q1.068.622 2.123 1.266t2.097 1.308 2.07 1.351 2.042 1.393 2.013 1.433 1.984 1.474 1.954 1.514 1.923 1.553 1.89 1.592 1.858 1.63 1.825 1.668 1.79 1.704q.886.861 1.755 1.74t1.72 1.775 1.683 1.81 1.647 1.843q.999 1.141 1.97 2.307.97 1.165 1.913 2.354.942 1.188 1.855 2.4.912 1.21 1.795 2.444t1.734 2.489q.853 1.254 1.673 2.53t1.61 2.57q.79 1.295 1.547 2.61.758 1.313 1.482 2.646.725 1.332 1.417 2.682t1.35 2.716 1.284 2.748 1.215 2.779 1.147 2.808 1.077 2.836 1.008 2.86.937 2.885.866 2.907.794 2.928.722 2.946.65 2.962q.306 1.486.576 2.978t.503 2.992.43 3.002q.196 1.504.356 3.013.157 1.508.28 3.02.123 1.511.208 3.026t.132 3.03q.048 1.516.06 3.032.01 1.517-.018 3.034-.024 1.516-.09 3.032-.065 1.515-.165 3.028-.152 2.184-.382 4.362-.23 2.176-.536 4.344-.308 2.168-.691 4.323-.385 2.156-.845 4.296t-.997 4.263q-.536 2.122-1.148 4.224t-1.297 4.182-1.445 4.132c-1.57 4.207-3.401 8.267-5.273 12.344l1.69.51c1.946-3.519 3.418-7.33 4.882-11.068q.45-1.168.876-2.344t.828-2.361.781-2.377.733-2.393.684-2.406q.33-1.207.635-2.42.306-1.213.587-2.432.281-1.22.536-2.444.257-1.225.488-2.454.232-1.23.44-2.464.204-1.233.387-2.471.18-1.238.338-2.48.157-1.24.287-2.484.132-1.245.238-2.491.107-1.247.187-2.495.082-1.249.137-2.499.058-1.25.088-2.5t.035-2.502q.005-1.25-.015-2.502-.017-1.25-.065-2.5-.045-1.251-.115-2.5t-.165-2.497q-.095-1.247-.218-2.492-.12-1.246-.264-2.488-.148-1.243-.318-2.482t-.368-2.475q-.195-1.235-.417-2.467-.22-1.231-.465-2.458t-.516-2.448q-.27-1.222-.566-2.437-.295-1.216-.614-2.426-.32-1.21-.663-2.412-.421-1.477-.878-2.943-.457-1.467-.95-2.921-.493-1.455-1.022-2.897t-1.092-2.87q-.564-1.43-1.163-2.843-.599-1.415-1.233-2.814-.633-1.399-1.3-2.782-.668-1.383-1.37-2.75-.701-1.365-1.436-2.714t-1.503-2.679-1.569-2.64q-.8-1.312-1.632-2.602-.833-1.29-1.696-2.56-.864-1.27-1.76-2.519-.894-1.248-1.82-2.474-.925-1.226-1.88-2.428-.955-1.203-1.94-2.381-.984-1.18-1.997-2.334t-2.055-2.283-2.11-2.232-2.164-2.18q-1.096-1.075-2.217-2.124-1.122-1.05-2.27-2.07-1.146-1.022-2.318-2.015-1.172-.992-2.368-1.956-1.196-.963-2.416-1.897t-2.46-1.837q-1.243-.904-2.506-1.777-1.264-.872-2.55-1.714-1.284-.841-2.59-1.65-1.305-.81-2.63-1.587t-2.668-1.521q-1.658-.92-3.344-1.789t-3.398-1.684-3.448-1.58-3.496-1.473-3.538-1.364-3.58-1.256-3.615-1.144-3.65-1.033-3.68-.921q-1.846-.432-3.705-.807-1.86-.375-3.729-.693-1.87-.317-3.748-.578-1.88-.26-3.765-.462t-3.777-.347q-1.891-.144-3.786-.23-1.894-.086-3.79-.114c-2.85-.038-5.758-.094-8.602.106m-17.096 13.6c-2.475.305-5.286 1.259-6.898 3.282-.301.378-.755 1.084-.65 1.594.008.038.027.074.04.11.88.363 1.906.278 2.827.566 2.517-2.076 5.599-2.931 8.85-2.604 1.43.145 2.849.53 4.225.937 1.941.602 5.859 2.127 7.846 1.596l.148-.207c-2.957-3.107-10.373-5.207-14.596-5.332-.587-.017-1.211-.027-1.792.057m3.358 4.51c.02.033.037.069.06.1.112.159.218.23.366.348.67.534.969 1.404 1.045 2.238.055.597-.022 1.214-.454 1.664-.46.479-1.344.783-2.002.752-.428-.021-1.023-.233-1.302-.574-.379-.464-.547-1.163-.88-1.682l-.099.072c-.05.723-.034 1.379.462 1.958.207.242.45.466.685.681 1.1.544 1.885.637 3.066.211 1.354-.488 2.65-1.522 3.252-2.85.226-.497.358-1.117.133-1.64-.219-.507-.781-.819-1.282-.984a7.3 7.3 0 0 0-3.05-.295m-1.561.547c-.326.237-.756.565-.849.986-.067.303-.007.275.155.488l.173.01.037-.113c.09-.267.16-.477.346-.697.34-.015.334-.003.606.205.183.43.18.796-.001 1.226-.13.304-.31.542-.635.648-.284.093-.587-.116-.831-.245l-.036.033.121.23c.386.422.739.9 1.361.917.376.009.74-.18.974-.47.392-.485.533-1.186.423-1.793-.085-.475-.33-.91-.738-1.18-.342-.227-.711-.227-1.106-.245m-6.59.61c-.369.983-.826 1.792-1.368 2.682-.136.222-.577.784-.62 1.011-.01.059.03.115.046.172l.096.025c.244-.017.494.033.666-.151.697-.744 1.213-2.555 1.319-3.553zm-2.729.792c-2.231.876-3.678 2.943-4.618 5.069a16.3 16.3 0 0 0-.981 3.036c.73-.949 1.474-1.764 2.421-2.501 1.638-.962 3.328-1.361 5.158-1.82-.88.012-1.915.392-2.753.188-.133-.137-.242-.175-.24-.382.008-1.25 1.753-2.347 1.771-3.5-.31-.132-.427-.104-.758-.09m3.558 2.428-.008.514c.267.24.418.177.77.181-.153-.363-.24-.51-.63-.653q-.065-.023-.132-.042m32.984 25.739q-.315.032-.629.08-.312.048-.623.111-.31.064-.618.142-.306.079-.61.172-.302.093-.6.202-.298.108-.59.23t-.578.26-.564.288q-.279.151-.55.316-.27.164-.533.341-.262.178-.516.368t-.498.392-.477.416q-.233.215-.456.44t-.435.461-.41.482c-2.45 3.051-3.114 7.43-2.67 11.219 1.515 12.92 12.414 38.289 22.715 46.332 2.88 2.249 6.312 3.885 9.916 4.524.447-1.744.701-3.482.9-5.267 3.073 3.31 6.013 6.766 10.214 8.706-.296-.806-.583-1.604-1.089-2.308-.8-1.115-2.1-2.042-3.133-2.927q-1.94-1.635-3.744-3.42c-3.12-3.127-5.265-7.13-8.412-10.202.665 1.501 1.453 2.912 2.286 4.325.89 1.509 2.744 3.899 3.075 5.568.116.586-.096 1.312-.207 1.893-1.229-1.37-2.207-3.036-3.227-4.563-1.3-1.948-2.66-3.808-4.193-5.58-.814-.92-1.55-1.815-2.625-2.448 1.833 3.315 4.088 6.396 6.276 9.483.986 1.39 2.096 2.783 2.921 4.276-1.314-.235-2.563-.832-3.767-1.394-5.137-2.398-8.159-5.777-11.33-10.34-2.302-3.311-4.365-6.91-6.143-10.528-3.548-7.22-9.823-22.878-8.391-30.911.56-3.14 1.763-5.448 4.403-7.284 2.732-1.9 5.392-2.303 8.628-1.69 7.504 1.423 14.75 7.978 20.144 13.147-5-6.827-11.877-13.781-20.603-15.165-1.06-.169-2.187-.255-3.257-.148m-38.055.755c-3.268.318-5.492 1.23-7.626 3.818-3.977 4.824-4.925 14.398-4.314 20.505 1.106 11.056 6.882 24.537 13.438 33.444 3.099 4.21 6.738 8.03 9.685 12.368l.197.19c.015-1.183-1.57-4.187-2.235-5.258-1.05-1.696-2.368-3.212-3.543-4.82a144 144 0 0 1-6.144-9.102c-2.205-3.562-4.01-7.284-5.6-11.152-3.285-7.99-5.145-15.645-3.954-24.343.532-3.885 1.641-8.505 4.565-11.33 1.58-1.526 3.306-2.117 5.374-2.701.275-.459.718-1.02.744-1.562-.244-.147-.312-.087-.587-.057m45.795 6.757c.105 1.67 1.09 4.844 2.385 5.967.187.162.307.209.55.19.282-1.64-.47-3.328-1.411-4.654-.388-.545-.905-1.232-1.525-1.503m-9.553 1.263c.593.901 3.624 5.968 4.23 6.121.012.003.024 0 .036 0 .075-1.746-.723-3.63-1.905-4.912-.71-.769-1.32-1.13-2.361-1.209M90.075 62.97c-.533 1.568-.958 4.17-.212 5.716q.13.268.303.509c.486-.537.39-1.212.352-1.897-.055-1.019-.053-3.53-.443-4.328m39.616.826c.25 1.228.644 5.373 1.223 6.134.256-.11.15-.027.318-.25.427-1.614.407-3.206-.46-4.697-.27-.466-.601-.925-1.08-1.187m9.035.132c.338 2.115.77 5.841 1.914 7.563.263.13.137.114.371.096.403-2.11.15-4.87-1.057-6.7-.335-.509-.65-.765-1.228-.959M91.55 66.836c-.133.664-.302 1.298-.209 1.978.122.154.215.261.368.388.296-.721.157-1.484-.02-2.221zm52.556 1.714c.173 1.582.508 5.264 1.726 6.343.167.148.244.125.449.083.36-1.846-.333-4.123-1.364-5.647-.239-.353-.428-.582-.811-.779m8.292.16c.357 1.268 2.666 6.596 3.7 7.186l.074.006c.152-2.27-1.286-4.137-2.62-5.829-.303-.383-.63-.924-.99-1.243-.051-.045-.11-.08-.164-.12m-64.432 2.847c-.214 1.163-.393 4.483.236 5.47.249-.074.277-.182.394-.404.395-.746.603-1.639.913-2.427.169.46.349 1.179.783 1.452.329.208.737.079 1.077-.042.178-.063.131-.04.249-.134.188-1.135.188-2.197.071-3.338-.272.717-.49 1.55-1.052 2.094l-.239-.014c-.521-.713-.696-1.748-1.033-2.573-.092.45-.137 1.121-.439 1.473-.564-.35-.432-1.228-.96-1.557m61.269 1.385c-.122 1.35.101 5.558 1.181 6.52.158.14.198.15.368.24.513-1.733-.27-4.662-1.126-6.213a2.1 2.1 0 0 0-.423-.547m-18.467.15c-.033 1.483.48 5.609 1.446 6.686.025-1.75-.18-5.256-1.39-6.635-.017-.02-.038-.034-.056-.052m5.769 2.087c-.281 1.66-.048 3.346-.342 5.006-.452-.867-.819-1.762-1.231-2.647.209 1.82.423 3.647.86 5.429.158.516.303 1.04.481 1.55 1.135-2.038 1.764-5.287 1.16-7.579-.143-.544-.467-1.433-.928-1.76m7.659 1.886c.5 1.712 1.163 3.367 1.712 5.063.452 1.395.764 2.874 1.293 4.239.144.37.299.652.548.96.068.025.204.092.274.09.454-3.212-.749-6.618-2.664-9.19-.316-.424-.68-.93-1.163-1.162m14.558.386c.398 1.374 2.514 7.277 3.583 7.907.09.053.203.075.302.1.183-2.257-1.197-5.166-2.634-6.854-.358-.42-.761-.892-1.25-1.153m-67.229 2.63c-.484.606-.66 1.078-.593 1.865.038.44.233.932.609 1.192.292.203.557.255.906.218.49-.504.655-.867.639-1.579-.012-.558-.213-1.076-.64-1.448-.29-.252-.55-.263-.921-.248m57.93 1.522c-.085 1.466 3.298 9.353 4.26 10.433.121.137.255.262.389.387.003-2.949-2.371-8.585-4.421-10.618-.091-.09-.122-.113-.228-.202m-59.735 4.725c.573 1.148 2.217 5.917 2.978 6.233.178.073.358-.092.517-.173.271-.817-.042-1.529-.409-2.271-.548-1.112-1.907-3.317-3.086-3.789m54.137.374c.975 3.552 4.059 7.827 7.293 9.658.38.216.809.361 1.219.508 1.289 2.114 3.581 5.818 6.16 6.43.472.111.946.08 1.356-.195.758-.506 1.055-1.557 1.188-2.405.545-3.475-.8-7.44-2.569-10.388-.414-.686-.816-1.362-1.322-1.987 1.304 3.793 3.636 9.689 2.346 13.599-2.42-.805-5.056-3.181-6.19-5.48-.371-.753-.49-1.756-.99-2.419-.181.015-.32.049-.497.088-.504.11-.965-.185-1.354-.474-2.017-1.493-5.28-6.187-6.64-6.934m18.923 1.99c.383 1.265 1.783 5.255 3.049 5.823.12.054.16.056.274.077.037-1.82-.885-3.54-2.116-4.838-.366-.386-.758-.776-1.207-1.062m-35.366 2.555c-.07 1.781-.275 3.538-1.566 4.884l1.166 1.352c.042-1.38.035-2.172 1.039-3.217.266-.861-.334-2.197-.64-3.019m-24.197 12.572c-.185 1.746-.406 3.48-.345 5.24-.475-.422-.914-.837-1.481-1.136l-.14.072c.352.764.927 1.352 1.489 1.965.577.67 1.14 1.365 1.744 2.01-.014-1.614-.652-6.788-1.267-8.151m3.777 4.491c.17 2.071.355 4.119.751 6.162.73 3.76 1.875 7.43 2.58 11.203.374 2.009.535 4.051.828 6.073.29 2.003.715 3.997 1.101 5.984.558 2.868 1.076 5.738 2.057 8.5.361-3.065.3-5.887-.102-8.942-.162-1.227-.42-2.457-.518-3.69 1.469 3.63 3.32 9.894 3.955 13.72.146-1.243.347-2.467.569-3.699.355-2.047.34-4.076.596-6.12 1.744 3.853 1.878 7.459 4.285 11.312-.924-3.162-.945-5.78-.705-9.029.094-1.27.241-2.547.134-3.82-.297-3.54-1.339-7.047-1.409-10.612-3.468-4.032-6.964-7.988-10.25-12.174-.683-.87-3.13-4.428-3.872-4.868m17.509 21.035c1.523 5.504.832 8.918.774 14.362-.032 3 .137 6.03.337 9.024-2.596-1.352-3.344-3.014-4.806-5.398.877 3.88.546 8 1.377 11.868 2.7-1.069 5.23-.982 7.961-.036 1.695-2.041 1.558-4.237 1.328-6.733-.378-4.103-1.56-7.992-2.259-12.03-.303-1.756-.244-4.15-.837-5.755-.236-.639-3.203-4.778-3.739-5.2q-.066-.052-.136-.102m35.433 16.968h.095zm.123.25h.091zm-17.375 1.535c-.34 1.005-.687 1.985-1.173 2.93-.49.953-1.183 1.933-1.516 2.945-.399 1.21-.427 2.691-.486 3.953-.029.623-.138 1.662.126 2.238q.034.072.072.14c.637.029 1.313-.257 1.946-.355 2.114-.327 4.256.546 5.68 2.106.953 1.042 1.74 2.457 2.036 3.842l-.313 1.174c.791.026 1.583.063 2.375.06-.782-1.749-1.537-3.526-2.404-5.234-1.496-2.947-3.227-5.784-4.552-8.815-.671-1.536-1.154-3.144-1.65-4.742-.05-.162-.025-.104-.142-.242m-18.115 11.93c-.641.193-1.279.319-1.664.923-.114.582-.085 1.285.17 1.826.734.005 1.65-.543 2.388-.73.76-.191 1.548-.319 2.318-.466 1-.157 1.956-.204 2.751-.887l.082-.246c-.224.026-.455.069-.678.091-.65.066-1.548-.243-2.215-.354a13.3 13.3 0 0 0-3.153-.158m26.086.338.12.071zm-43.095.792c-1.256.239-2.486.602-3.747.804-1.596.254-3.201.267-4.766.712.143.947.328 1.908.33 2.868 1.358-.547 2.715-1.111 4.091-1.613 3.053-1.073 6.376-1.815 9.63-1.833-1.831-.492-3.615-1.165-5.538-.937m12.935.459c-.72.321-1.41.647-2.084 1.055l.403 1.056c.099.264.18.396.4.574.279.023.435-.032.693-.136.603-.246 2.007-.653 2.318-1.215.087-.157.028-.262 0-.428-.389-.485-.828-.821-1.464-.896-.151-.018-.139-.014-.266-.01m-25.851.264c-1.054.313-1.921.7-2.83 1.323.707-.026 1.413-.065 2.12-.03.31.275.614.55.95.795l.224-.089.061-.11c.427-.713 1.411-.942 1.724-1.577-.261-.222-.424-.296-.757-.374-.167.04-.27.014-.365.169-.122.199-.185.41-.261.629-.175-.325-.231-.576-.567-.75zm22.063 1.318c-.761.723-1.843 1.69-2.089 2.73l.112.185c.382-.012.67-.287.97-.5.868-.41 1.758-.692 2.673-.978-.25-.502-.476-1.11-1.03-1.344-.212-.09-.412-.091-.636-.093m-18.813.528c-.986.29-1.539 1.195-2.015 2.072-.16.296-.284.53-.278.875l.165.088.553-.29.16-.083c.617-.313 2.102-.57 2.27-1.25.071-.285-.038-.795-.205-1.044-.195-.291-.333-.292-.65-.368m-5.803 1.055c-2.955.544-5.934 1.896-7.69 4.441l-.13.195c.774-.077 1.556-.137 2.325-.252l6.853-.833c.193-1.006.407-1.972.739-2.943-.57-.223-1.506-.721-2.097-.608m40.98 1.774-.007.152c.469.064.907.059 1.38.042l-.026-.212c-.452-.113-.89-.032-1.347.018m-9.001 10.61q-2.11 8.385-4.088 16.8c-.599 2.503-1.367 5.024-1.826 7.553l4.655-.015c.457-1.41.74-2.872 1.056-4.319.927-.017 5.272-.271 5.766.092.334 1.43.59 2.938 1.051 4.328 1.649.049 3.303.105 4.95-.004q-1.92-8.712-4.244-17.326c-.63-2.356-1.206-4.724-1.913-7.06-1.8-.083-3.605-.055-5.407-.049m-14.999.144c-.061.063-.145.111-.184.19-.217.445-.054 1.871-.051 2.427.018 2.814.359 13.666-.268 15.606-.33 1.022-1.061 1.973-2.226 1.986a2.2 2.2 0 0 1-1.672-.745c-.406-.452-.527-1.026-.605-1.612-.25-1.88-.104-3.936-.1-5.834.01-3.981.097-7.97.049-11.95q-2.63-.067-5.26-.018l-.023 9.375c-.019 3.772-.78 10.501 2.126 13.404 1.471 1.47 3.657 1.949 5.676 1.897 2-.05 3.952-.825 5.317-2.316q.157-.174.303-.357.146-.182.28-.374t.256-.392.23-.407.203-.42q.096-.214.177-.434.081-.219.148-.443.068-.224.12-.452c.563-2.451.313-5.282.313-7.794l-.028-11.419c-1.594.007-3.187.008-4.78.082m32.025.29q-.133 7.637-.155 15.275c-.025 2.996-.107 5.997-.045 8.994 3.717.378 7.486.505 11.216.73.054-1.58.175-3.19.06-4.768-1.206-.099-5.056.024-5.853-.446-.032-.16-.075-.315-.075-.479.017-1.638-.017-3.295.067-4.931 1.766.143 3.534.309 5.302.428.121-1.56.146-3.117.173-4.68-1.842-.095-3.693-.229-5.537-.242q-.018-2.576.052-5.153 2.907.09 5.81.273c.057-1.495.161-3.004.129-4.5-3.548-.357-7.568-.508-11.144-.501m21.719 35.357c1.393 2.167 3.047 4.793 5.733 5.423 1.171.275 2.266.131 3.408-.16.308-.926-.3-2.903-.505-3.914q-4.295-.823-8.636-1.35m10.069 1.531c.744 3.12.845 4.68 3.81 6.51.488.301.978.606 1.481.882l1.45-.04c-.368-2.102-.676-4.242-1.182-6.315-1.834-.387-3.702-.789-5.559-1.037m7.294 1.29c.595 3.228.672 6.565 3.606 8.6.79.547 2.58 1.782 3.548 1.69.573-2.128-.658-6.805-1.093-9.102-2.016-.486-4.004-.91-6.061-1.188m7.605 1.51c.331 1.251.623 2.492.839 3.77.148.875.214 1.811.434 2.668.058.227.061.375.272.507.431.268.976.205 1.441.058a3.4 3.4 0 0 0 .836-.406c.936-1.638.54-3.973.387-5.797-1.41-.242-2.803-.555-4.21-.8m-97.587 10.14c-6.258.367-12.58.998-18.615 2.797-1.555.463-3.023 1.142-4.556 1.653q1.102.479 2.235.882t2.29.728 2.335.57 2.368.409c7.466 1.017 26.642.101 33.617-2.606.974-.379 1.819-.814 2.59-1.534 2.322.193 4.65.553 6.959.87q8.43 1.107 16.756 2.827c9.141 1.807 15.819 3.546 25.299 3.21 3.284-.331 6.465-.895 9.688-1.612 4.314-.96 11.863-3.365 16.068-2.686-3.035-1.799-7.522-2.487-11.013-2.739-4.766-.344-9.54.069-14.288.457-6.084.498-12.316 1.064-18.416.805-6.203-.262-12.136-2.009-18.263-2.819-7.239-.956-14.492-.986-21.777-1.13-4.406-.088-8.877-.36-13.277-.082m23.611-197.03.061.07z"/><path d="M109.539 44.176c-.741-.233-1.415-.644-2.081-1.038-4.015-2.376-6.456-6.138-9.178-9.796 2.842 1.004 6.182 5.816 8.338 8.065.92.96 2.046 1.803 2.921 2.77m9.016-9.035.068.075zm3.198 5.006c-.692-.487-1.552-1.205-1.775-2.052.465-.017 2.175 1.035 2.806 1.266.89.328 1.862.552 2.811.61.408.025.722.04 1.039-.233-.811-1.548-2.157-3.011-3.228-4.394 1.99.942 4.653 3.615 5.681 5.57-.416.134-.846.255-1.276.34-2.118.415-4.248.084-6.058-1.107m-18.856.915-.119-.074zm1.784 3.112c-.05-.021-.102-.04-.15-.065-.982-.522-1.376-1.957-1.748-2.917.539.318 1.634 2.353 1.898 2.982m4.858.001.063.046zm19.458 4.138c.174.487.313.972.438 1.474-.59-1.303-1.736-2.053-2.423-3.239-.218-.376-.12-.572-.024-.964.886.383 1.904 1.075 2.642 1.693.696.583 1.293 1.278 1.374 2.213-.117.324-.105.341-.397.517-.337-.095-.328-.154-.527-.45-.312-.456-.705-.843-1.083-1.244m2.373.384c-.165-.689-.281-1.278-.142-1.984.335.308.68.614 1 .937.64.643.615 1.197.607 2.05-.542-.292-.989-.619-1.465-1.004m-7.965 6.747c-.427-.251-.963-.5-1.308-.86-1.177-1.23-1.494-3.877-1.982-5.517.88.404 2.288 3.462 3.051 4.451l1.06-2.623-.234-1.426c.764.566 1.598 1.121 2.088 1.956q-.064.056-.13.11c-.443.327-.84.198-1.34.107-.082 1.6-.296 2.467-1.205 3.802m-7.278 1.544q.397-1.088.628-2.222.232-1.134.293-2.29c.22.254.237.595.303.92.201.976.809 3.761.273 4.58l-.325-.098c-.41-.27-.788-.584-1.172-.89m-7.583 2.582-.234.08c-.192-.07-.261-.047-.365-.242-.2-.375-.184-.834-.074-1.236.101-.37.274-.566.603-.745.292.063.5.137.791.035.72-.927 1.07-3.529 1.144-4.719.97 1.466.76 3.375.76 5.057-.494-.137-.992-.367-1.507-.27-.282.4.107 1.032-.119 1.57-.352.13-.67.294-.999.47m12.784-2.122c-.654-.291-1.274-.557-1.573-1.253-.374-.873-.056-1.907.25-2.752.316.374.478.796.74 1.202.225.348.459.704.583 1.103.146.466.216 1.27 0 1.7m-7.44-.128c-.173.047-.35.081-.525.12-.222-.171-.185-.087-.259-.317-.278-.867.303-2.49.681-3.294.39.738.678 2.021.735 2.864.021.307.019.43-.2.661zm-15.547.175c-.094-.26-.16-.53-.128-.809.123-1.081.774-2.038 1.607-2.702l.105.123c.117.934-.157 1.9-.376 2.801zm3.868 3.277c-.332-.299-.627-.633-.806-1.046-.715-1.645-.128-3.93.509-5.526.453 1.217-.408 3.457.558 4.509.211.229.314.235.594.222.778-.71 1.063-2.343 1.367-3.337.413 1.096.728 1.985.683 3.175-.127.275-.192.416-.45.581-.45.013-.865-.362-1.226-.611zm4.737-3.194-.266-.346c-.067-.605.111-1.183.246-1.77.042.074.09.143.125.22.241.536.151 1.386-.105 1.896m12.006 5.802a1.86 1.86 0 0 1-.39-.83c-.194-1.017-.198-2.191.397-3.083.165-.072.318-.147.476-.233l.163-.092c.186 1.071.51 2.438.135 3.485-.158.44-.374.554-.781.752m-20.296.201c-.297-.226-.5-.467-.593-.832-.267-1.051.505-2.198 1.004-3.07.17.105.182.095.315.252.31.366.252.862.224 1.313-.051.834-.3 1.785-.95 2.337m15.733-.884c.241-.972.465-1.952.805-2.895l.25.162c.405.893.522 1.881.412 2.854-.062.54-.171.822-.594 1.168-.354-.4-.605-.83-.873-1.29m-3.981.145c.192-.929.533-1.76.914-2.623.197.228.261.419.352.704.357 1.123-.023 2.26-.553 3.258-.328-.405-.506-.866-.713-1.34m-5.958 1.336-.179.124-.145-.114c-.071-1.079.01-1.845.64-2.738.116.069.148.078.245.197.314.387.459 1 .345 1.482-.13.554-.45.772-.906 1.05m3.171 1.204c-.148-.03-.265-.08-.403-.138a.97.97 0 0 1-.13-.594c.047-.905.801-1.745 1.425-2.333l.272.152c.145.272.212.35.165.666-.115.784-.713 1.764-1.329 2.247m-8.371 2.012.13-.125.177-.175c.658-.63.974-1.573 1.324-2.401.25.467.462.943.497 1.478.128 1.964-1.362 5.552-1.883 7.656a16 16 0 0 1-1.801-2.518q-.235-.636-.34-1.306c-.138-.897-.175-2.455.37-3.207l.218.014c.682.684.758 2.063.938 2.982q.197-1.197.37-2.398m19.568 2.437c-.272.55-.47.98-1.049 1.25-.184-.012-.333.013-.49-.098-.421-.299-.626-.889-.74-1.371-.445-1.876.165-3.228 1.114-4.79.834.812-.15 2.719.44 3.686.456-.442.81-1.54 1.114-2.14.142.695.219 1.404.313 2.107zm-4.001-.564c-.224.54-.445 1.082-.688 1.613-.281.617-.604 1.216-1.266 1.462-.252-.012-.393-.037-.616-.168-.918-.538-1.765-2.408-1.915-3.428-.166-1.13.079-2.003.748-2.92.227.12.347.233.444.479.424 1.072.435 2.338.88 3.468.398-.972.515-2.778 1.076-3.498.128-.164.113-.107.356-.13.176.126.294.231.413.415.613.945.814 1.624.568 2.707m-11.076 5.071c-.918-1.158-1.221-2.635-1.314-4.076-.083-1.285-.166-3.149.725-4.166.03.044.064.086.092.132.462.772 1.085 6.898.86 7.722-.08.289-.123.246-.363.388m4.599-3.252c-.223.74-.468 2.188-1.145 2.594-.385.04-.66-.07-.957-.308-.881-.708-1.344-2.05-1.437-3.141-.142-1.662.628-2.701 1.655-3.886.18 1.731-.068 3.505.083 5.261.278-.89.754-3.148 1.593-3.654.31.07.333.101.5.395.445.785-.067 1.953-.293 2.739m9.026 6.465c-.087-1.523-.115-2.997.054-4.515.203.031.45.054.632.16.623.369.93 1.677 1.04 2.334.216 1.3.092 3.242-.75 4.318-.244.311-.475.386-.855.428-.84-.275-1.435-1.698-1.875-2.452-.388-.726-.75-1.61-.767-2.443-.008-.421.125-.898.432-1.198.153-.148.212-.09.404-.074.882.759 1.155 2.394 1.685 3.442m-5.948 1.611c-.039-1.537-.243-3.212.468-4.623.226.08.344.131.513.301.797.8.885 2.385.856 3.465-.025.914-.244 2.553-1.056 3.135a.81.81 0 0 1-.768.12c-.941-.333-1.734-2.102-2.102-2.975a9 9 0 0 1-.22-1c-.123-.816-.133-2.08.373-2.774l.24-.023c.983.751 1.382 3.197 1.696 4.373M98.68 80.545c.22-1.652.291-3.328 1.264-4.737.043.028.091.051.13.086.643.588.659 1.668.612 2.466-.074 1.264-.164 3.53-1.136 4.39-.2.05-.313.12-.516.042-.727-.283-1.127-1.429-1.387-2.099l-.014-.05c-.221-.911-.587-2.344-.075-3.185.483.263.92 2.485 1.121 3.087m6.018.164c-.102-.753-.276-1.524-.334-2.278-.064-.823.074-1.27.591-1.902.19.068.22.057.366.185.333.294.4.653.444 1.07.034.334.081.622.166.945l.115.014c.117-.532.332-.94.656-1.38.196-.266.398-.523.737-.582l.194.201c.234 1.219-.128 2.684-.5 3.851-.226.713-.499 1.676-1.188 2.038-.475-.045-.834-.266-1.25-.488q-.052-.042-.103-.086c-1.007-.891-2.281-2.709-2.304-4.092-.006-.405.118-.6.4-.872l.26.036c.835.743 1.31 2.311 1.75 3.34m15.657 5.822c.077-1.6-.46-3.964.683-5.227.048.029.097.055.143.087.509.352.611.824.706 1.402.221 1.338.177 5.77-.745 6.742-.246.26-.317.237-.647.224-1.099-.685-1.439-2.66-1.783-3.849-.163-.655-.312-1.338-.383-2.01-.056-.532-.201-1.438.133-1.857l.326.027c1.136.87 1.098 3.068 1.53 4.356zm-4.755-1.201c-.01-1.08-.064-2.118.25-3.163.318.052.504.124.778.294.479.676.558 1.553.6 2.36.066 1.267.333 4.387-.729 5.268-.28.233-.38.212-.72.195-.666-.41-.816-.993-1.055-1.697-.372-1.625-.958-3.719-.484-5.368.099-.345.096-.417.406-.587l-.289.214.156-.216.112-.01c.66.566.822 1.89.975 2.71m-4.008 2.854c-.285-1.182-.738-2.59-.583-3.815.076-.597.25-1.01.732-1.376.144.06.272.156.403.24.745 1.306.914 3.254 1.02 4.733.065.922.024 2.738-.73 3.398-.269.235-.347.209-.68.18-.994-.574-1.85-2.421-2.272-3.458q-.072-.184-.137-.37c-.328-.973-1.072-3.12-.39-4.07.176-.245.214-.253.509-.276.667.447 1.71 3.867 2.128 4.814m-3.605.436c-.044.685-.127 1.43-.335 2.087-.167.533-.388.896-.892 1.156-.412.05-.679-.015-1.005-.265-1.093-.84-1.562-2.572-1.743-3.89-.161-1.178-.194-2.43.553-3.416.076.036.158.064.229.11.496.319 1.051 3.496 1.28 4.22l.046.14c.036-1.039-.024-2.184.236-3.192.097-.378.206-.731.561-.932l.234.076c.754.973.774 2.725.836 3.906m-6.775.401c-.26-1.297-.81-3.057-.241-4.297.14.031.273.056.409.11.251.102.4.314.512.552.662 1.398 1.494 4.418 1 5.914-.243.253-.243.259-.589.305-.991-.333-1.698-.876-2.183-1.8-.383-.824-.683-1.699-.835-2.597-.07-.42-.192-1.005.061-1.358.72.377 1.483 2.432 1.866 3.171m20.461 6.229c-.046-2.021-.64-3.277.46-5.187.124.106.125.098.245.25 1.17 1.472 1.145 4.486.814 6.233-.136.714-.344 1.35-.965 1.769-.234.037-.344.084-.576.01-.926-.294-1.413-1.557-1.802-2.359-.426-1.12-.745-2.796-.25-3.93.269-.237.284-.223.646-.243.726.485 1.102 2.588 1.428 3.457m-4.864 1.986c-.016-1.315-.423-2.576-.405-3.87.01-.781.297-1.135.844-1.662.11.08.174.118.267.231.875 1.062 1.047 3.685.93 5.008-.091 1.028-.303 2.242-1.12 2.937-.33.09-.476.145-.805-.025-.992-.516-1.916-2.777-2.332-3.8q-.02-.075-.036-.153c-.208-1.028-.224-2.395.358-3.297.156-.073.218-.162.39-.078.896.438 1.448 3.54 1.837 4.528zm-4.088-1.731c.065.34.122.682.143 1.028.058.969.165 2.259-.516 3.029-.304.135-.471.207-.8.09-.942-.334-1.673-1.722-2.091-2.584-.78-1.605-1.256-3.29-.646-5.03 1.471.595 1.717 3.76 2.485 5.077-.251-1.156-.936-3.105-.535-4.249.108-.31.212-.389.504-.513l.355.146c.766.848.874 1.927 1.101 3.006m-6.56 1.871c-.327-.957-.791-1.916-.982-2.911-.153-.803-.096-1.241.365-1.913q.058.027.116.057c.841.456 1.138 1.559 1.429 2.415.403 1.187 1.738 5.412 1.075 6.51-.086.143-.203.132-.35.173-.937-.335-2.035-2.148-2.653-2.938-.724-1.104-1.956-2.972-1.934-4.324.005-.306-.036-.186.177-.409 1.141.332 2.14 2.366 2.756 3.34m16.05 5.767c.017-.587.03-1.2.129-1.78.132-.767.482-1.213 1.097-1.663.205.134.31.216.42.444.472.964.257 2.482-.053 3.457-.2.629-.649 1.778-1.355 2.007a.8.8 0 0 1-.569-.022c-.848-.32-1.227-1.497-1.538-2.265-.27-.993-.687-2.194-.184-3.172.196-.066.23-.133.431-.026.95.504 1.31 2.091 1.622 3.02m-4.592 2.187c-.203.324-.319.487-.653.694-.397.055-.637.014-.98-.183-.892-.513-1.98-1.926-2.236-2.94-.068-.268-.1-.315.041-.562l.383.11c-.166-.612-.157-1.172-.074-1.795.145.023.26.035.403.087.968.353.916 1.346 1.327 2.114.125.233.262.375.516.448l.127-.725c.418-.234 1.041-.479 1.512-.386.429.926-.04 2.229-.366 3.139m14.342.135c-.547-.426-1.142-1.125-1.409-1.774-.199-.484-.023-.992.186-1.431l.047.1.198-.125.098-.55c.725.482 1.355 1.852 1.612 2.678.122.392.203.732.002 1.11-.316.155-.388.08-.735-.008m-18.755.003c.043.452.099.813-.07 1.243-.233.208-.281.286-.619.236-.67-.1-1.484-1.15-1.88-1.676-.754-1-1.33-1.937-1.16-3.226 1.138.298 1.703 1.412 2.32 2.316-.056-.47-.147-.945-.179-1.417-.024-.363-.002-.472.247-.732l.276.01c.755.768.926 2.21 1.065 3.246m15.095-.285c-.526-.597-1.398-1.776-1.632-2.525.358-.208.296.13.702.152l.33-.538c.251-.023.539.215.83.246.027.002.053-.003.08-.004.293.336.385.657.397 1.098.013.484-.113 1.219-.435 1.584zm-6.091 4.571a2.3 2.3 0 0 1-.297-.337c-.294-.43-.734-1.189-.637-1.725l.22-.114.466.206c.393-.11.478-.273.748-.571.048.035.103.063.144.106.304.313.532 1.51.572 1.946.037.405-.038.639-.299.942-.401-.006-.592-.227-.917-.454m-3.711 1.042c-.45-.673-1.046-1.225-1.502-1.893.105-.344.894-1.02 1.169-1.486.376.216.547.489.693.886.265.724.589 2.026.238 2.749l-.272.025zm11.759-.128c-.51-.664-1.37-1.378-1.596-2.192l.14-.126.625.091c.337-.167.459-.418.647-.727l.083-.137c.947 1.166.823 2.356.708 3.756zm3.517-.594a3.7 3.7 0 0 1-.65-.888c-.135-.274-.186-.483-.086-.775.287.01.525.023.806-.05l.226-.484c.392.364.548.738.656 1.255.103.489.104.798-.173 1.22-.378.044-.464-.08-.78-.278m-18.152 1.616-.025.415-.231.033c-1.275-.85-2.308-2.326-2.742-3.783.35.335.63.8.92 1.191l.531-.634c.328-.12.302-.116.622.028.534.692.695 1.909.924 2.75m19.159 5.967c-.44-.487-.835-.947-1.084-1.562l.096-.195.282.08c.263-.102.16-.472.371-.738.373-.036.674.33.975.554.523-.331.44-1.616.583-2.217l.025-.103c.34.574.529 1.225.588 1.89.057.639-.018 1.378-.44 1.886l-.163-.063-.064-.37c-.095.481-.145 1.193-.56 1.484-.338-.145-.407-.344-.609-.646m-5.604-3.079c.34.301.675.633 1.064.87-.002-.032-.013-.235-.018-.264-.033-.192-.071.187.016-.256.196-.04.371-.056.537-.178.155-.115.146-.745.168-.956.203.095.177.046.288.222.727 1.144.33 2.707.009 3.92-.4-.39-.745-.809-1.099-1.238-.508-.635-.71-1.36-.965-2.12m-7.155 2.988c-.453-.674-1.1-1.563-1.177-2.388.392-.313 1.082.141 1.776-.288l.126-.553c.235.143.276.261.392.509.526 1.134.015 2.564-.374 3.671-.257-.307-.497-.635-.743-.951m17.391 3.18q-.272-.3-.528-.613c-.342-.421-1.005-1.18-.941-1.722a6 6 0 0 0 .738-.058c.08-.185.134-.287.263-.447.247.12.482.219.744.303.097-.488.089-1.006.11-1.502.316.202.427.587.536.929.31.98.623 2.813.076 3.713-.104.171-.169.143-.346.188-.377-.228-.438-.414-.652-.791m-26.647.853c-.11.238-.159.362-.39.497a2.3 2.3 0 0 1-.804-.636c-.65-.789-1.256-2.152-1.145-3.186.303-.076.408-.275.614-.5.384.114.515 1.554.758 1.968l.189.044c.244-.268.433-.51.784-.64l.194.141c.179.805.011 1.536-.2 2.311m18.876 2.214c-.394-.625-.805-1.225-1.055-1.924.116-.128 1.232-.003 1.54-.062.395-.53.341-1.585.389-2.242.427.326.665.824.813 1.335.39 1.343-.24 2.688-.9 3.826-.285-.29-.532-.617-.787-.933m12.367 1.627c-.069.24-.107.415-.264.615-.13.165-.2.12-.395.138a1.4 1.4 0 0 1-.475-.558c-.593-1.148-.743-2.466-.335-3.686.079.29.166.57.266.854l.14-.027c.128-.224.244-.451.358-.683l.183.1c.54.883.65 2.234.522 3.247m-6.56 1.6c-.572-.988-1.512-2.323-1.525-3.474.211.031.31.067.493.186.347.227.551.436.98.414.281-.199.516-.378.856-.464.237.167.194.07.248.309.116.513-.084 1.467-.35 1.914-.246.362-.47.743-.702 1.115m-19.255 2.407a7 7 0 0 1-.16-.212c-1.13-1.57-1.793-2.656-1.485-4.642.585.57.936 1.599 1.27 2.333.289-.53.514-1.101.755-1.656.42.988.62 1.506.36 2.576-.197.558-.472 1.074-.74 1.601m-5.124-.476c-.26.25-.267.292-.62.33-.363-.171-.525-.448-.692-.799-.516-1.083-.579-2.04-.198-3.156.368.448.325 1.174.819 1.54.177-.235.284-.401.555-.536l.188.14c.256.751.145 1.728-.052 2.48m29.238-.729c-.143.327-.179.512-.47.726-.042-.02-.088-.035-.127-.059-.747-.457-1-2.258-1.154-3.057.688.394 1.117.226 1.847.36.337.56.03 1.416-.096 2.03m-9.18 3.467c-.355-.744-.668-1.504-.983-2.266l.258-.254-.295.158.213-.201-.159-.095-.003.404-.121-.443c.404.142.555.268.975.13.508-.706.327-1.474.26-2.29.042.048.09.092.126.145.708 1.04 1.057 2.875.84 4.072-.086.476-.22.944-.632 1.232-.33-.117-.33-.292-.479-.592m14.009-.816c-.14.431-.274.84-.697 1.058-.23-.042-.26-.009-.43-.195-.797-.875-1.005-3.026-.976-4.18.512.29.807.891 1.117 1.374.136-.343.239-.644.502-.914l.195.091c.383.737.42 1.954.29 2.766m-10.26 3.749c-.27-.911-.828-1.684-1.116-2.574-.078-.241-.147-.369-.028-.593l.824.165c.16-.385-.032-1.044-.088-1.468.311.12.418.34.589.61l.111.179c.409.647.623 1.126.615 1.906-.007.75-.383 1.275-.907 1.776m-21.502-3.451c.217.378.439.907.794 1.166.305-.296.386-.764.511-1.166a.94.94 0 0 1 .305.415c.459 1.216-.181 2.401-.632 3.52-.319-.41-.59-.87-.875-1.305l-.66-1.366zm24.881 4.78c-.362-.576-1.026-1.69-1.035-2.368-.005-.41.262-.774.551-1.04.268-.247.292-.624.387-.974.203.227.292.55.412.828q.077.17.148.34c.308.766.482 1.95.099 2.713-.144.287-.261.407-.562.502m-21.082-1.262c-.3-.38-.626-.792-.763-1.265-.097-.336-.05-.481.102-.783.41.025.455.41.838.52.355-.437.484-.955.658-1.482.256.353.45.817.538 1.244.2.983-.268 1.689-.796 2.456zm22.742.771c.622.338 1.213.823 1.862 1.092.189-.2.162-.704.193-.985l.187.007c.32-.284.293-1.217.335-1.644.361.328.572.86.878 1.257l.147-.346c.166.076.107.02.198.225.272.612.04 1.48-.198 2.066-.348.857-.803 1.393-1.65 1.764-.374-.053-.434-.184-.697-.444q-.666-1.48-1.256-2.993m-5.058 19.1c-.132-.05-.224-.132-.337-.216-1.795-4.192-2.305-10.924-2.467-15.465-.04-1.117-.224-2.485.08-3.567.11.093.13.098.218.239.871 1.388 2.672 16.276 2.652 18.31a2 2 0 0 1-.146.699m-70.101-11.328c-.367-.97-.781-1.92-1.139-2.894 1.11.408 3.27 1.597 3.812 2.634.078.149.152.3.233.447.559-.592.827-1.922 1.636-2.196.192-.065.29.031.463.106.697.83.835 2.13 1.064 3.17 1.806.99 3.851 1.753 5.74 2.593-2.5.12-4.861-.006-7.267-.732-2.973.121-6.008-.81-8.893-1.465a94 94 0 0 0-6.179-1.206c3.474-.336 7.042-.509 10.53-.457m-54.975-2.647.05-.055zm141.741 7.221c-.756-.828-2.102-2.354-2.284-3.467l.147-.088c.229.165.457.327.695.48l.121-.199c-.021-.794-.257-1.567-.446-2.334 2.005 1.664 2.281 4.247 2.763 6.639zm51.126-2.843-.01-1.595c1.095.268 2.175.966 3.159 1.51.49-.546.938-.965 1.557-1.365.254.666.491 1.38.9 1.97 1.301 1.88 4.163 2.96 6.196 3.92q-2.811-.127-5.587-.588c-.868-.194-1.704-.535-2.578-.733-1.316-.298-2.66-.48-3.984-.745-2.422-.483-4.826-1.02-7.272-1.364 2.474-1.2 4.923-1.23 7.618-1.01m-161.748-1.183c1.126.535 2.448.85 3.399 1.683.136.12.038.073.276.09.426-.453.469-1.274.778-1.863l.083-.153c1.096.737 1.837 2.123 2.557 3.21 2.117.683 4.111 1.417 6.114 2.387-1.84.103-4.006.127-5.82-.172-.941-.154-1.857-.44-2.796-.597-1.307-.22-2.604-.274-3.918-.537a107 107 0 0 0-8.1-1.643c2.827-.263 5.637-.366 8.474-.43a19 19 0 0 1-1.047-1.975m53.744 1.807a25 25 0 0 1-.645-1.878c1.036.288 2.114.905 2.865 1.668.345-.633.644-1.158 1.128-1.703.423.712.722 1.487 1.201 2.17 1.361 1.943 4.554 2.297 6.736 3.387-2.612-.153-5.444.024-7.943-.814-.899-.192-1.823-.263-2.723-.472-1.804-.417-3.58-.987-5.375-1.446-1.762-.45-3.54-.78-5.324-1.122 3.377-.021 6.709-.031 10.08.21m70.051 1.465-.06-.056zm60.869 4.383c.44-.651.864-1.056 1.531-1.48.53.49.859 1.702 1.284 2.362 1.103 1.716 4.125 2.69 5.922 3.57-3.508-.117-7.26-.626-10.573-1.793a50 50 0 0 1-8.36-2.007c2.072-.32 3.984-.17 6.052-.218 1.149-.027.548-.875 1.1-1.484.899-.072 2.209.686 3.044 1.05m-36.426 1.563c-.058-.742-.057-1.484-.063-2.227 1.16.417 2.172.983 3.217 1.634.563-.662 1.096-1.207 1.837-1.67.462.782.758 1.645 1.277 2.4 1.473 2.142 4.782 3.109 7.045 4.256-1.803-.099-3.597-.194-5.385-.454-1.209-.166-2.368-.576-3.556-.847-3.904-.889-7.662-1.758-11.47-3.037 2.525-.588 4.558-.569 7.097-.055m-110.335.128c-.42-.71-.908-1.364-1.399-2.026 1.237.36 2.299.644 3.373 1.394.374-.5.784-.963 1.197-1.43.667.916 1.19 1.91 1.899 2.805 1.275.522 5.816 1.515 6.431 2.432-.637.31-6.462-.066-7.453-.303-1.227-.351-2.404-.26-3.636-.495-3.357-.641-6.844-1.415-10.13-2.349q4.858-.276 9.718-.028m-49.838 1.046c.308-.933.68-1.717 1.25-2.517 1.186.537 2.04 2.864 2.654 3.964 2.15.576 4.17 1.144 6.12 2.255l-.128.002c-2.148.018-4.548-.038-6.672-.374-1.768-.279-3.306-.677-5.128-.875-2.687-.753-5.499-1.237-8.23-1.813q3.615-.356 7.248-.44l-.575-1.757c1.289.423 2.337.776 3.461 1.555m130.105 2.891a4 4 0 0 1-.778-.362c-1.028-.661-1.892-1.82-2.125-3.03l.201-.207-.012-.155c-.094-.072-.19-.143-.278-.222-.25-.222-.224-.267-.254-.595.073.02.147.037.219.06 1.27.41 2.19 1.633 2.712 2.814.236.531.53 1.138.315 1.697m-104.551.647c.582-1.658 1.187-3.319 2.334-4.678.104.05.143.062.238.146 1.072.948 1.258 3.558 1.395 4.878 1.422.412 2.974.957 4.175 1.846.316.233.493.38.543.774l-.213.14c-.715.078-3.945-.157-4.693-.258-.805-.11-1.617-.323-2.43-.354-.98-.037-1.923.346-2.888.133-1.09-.24-2.157-.785-3.214-1.154-1.205-.423-2.45-.74-3.684-1.067q-2.883-.678-5.788-1.259c3.381-.098 6.82-.27 10.191.031a28 28 0 0 0-.81-3.32c2.092 1.144 3.601 2.052 4.844 4.142m162.506 3.316a8.2 8.2 0 0 1 1.906-1.7c.454.678.63 1.513 1.143 2.184 1.49 1.952 4.47 2.487 6.546 3.614l.127.07c-2.74-.012-5.556-.258-8.221-.929-1.173-.296-2.284-.77-3.481-.978l-.18-.03c-2.347-.403-6.493-.81-8.498-1.804 2.54-.254 5.026-.29 7.578-.272l.106-1.62c1.069.363 2.123.689 2.974 1.464"/><path d="M67.841 164.717c.43-1.705.704-3.492 1.557-5.047.236.036.402.105.582.269 1.218 1.112 1.442 3.98 1.545 5.525 1.362.545 4.164 1.441 5.143 2.437l-.056.18c-1.751.746-5.933-.47-7.917-.59-1.848-.112-3.679.102-5.516-.256-1.766-.344-3.552-1.093-5.276-1.631q-2.521-.661-5.06-1.256 2.757-.15 5.516-.068t5.502.393q-.74-1.971-1.365-3.982c2.235.94 3.807 2.16 5.345 4.025m107.827-4.245.061.149zm-134.117 7.463c.138-1.763.41-3.771 1.648-5.124.169.056.201.056.364.167.937.636 1.711 4.577 1.874 5.656 2.193.716 4.333 1.518 6.384 2.582-2.437.102-5.274-.001-7.66-.5-.807-.169-1.541-.6-2.36-.724-1.137-.172-2.343.12-3.49.083-1.617-.05-3.16-.954-4.676-1.458-1.854-.482-3.897-.614-5.687-1.281 3.292-.175 6.63-.002 9.927.044q-.866-1.918-1.626-3.882c2.411 1.216 3.862 2.107 5.302 4.437m162.208-1.764a12 12 0 0 1 1.486-1.726c.77.301 1.99 2.313 2.898 2.982 1.561 1.151 3.448 1.623 5.118 2.566l.152.087c-3.062.362-6.2-.389-9.192-.983-1.292-.262-2.523-.779-3.78-1.167-1.642-.508-3.253-.8-4.952-1.01 1.762-.494 3.251-.595 5.083-.504l.098-1.425c1.129.276 2.106.533 3.089 1.18m-79.093 26.746c.55-2.848 1.198-5.734 2.124-8.484.64.518 1.902 7.199 2.206 8.537l-1.863-.011zm6.443 22.244c-.504-1.117-.917-1.958-.531-3.192 2.385-.01 6.172 1.396 8.189 2.612-1.721.516-2.946 1.52-4.313 2.639-5.526 4.52-8.084 6.189-15.487 5.708q-2.7-.227-5.37-.687c1.156-1.34 2.653-2.123 4.044-3.175 1.008-.763 1.959-1.716 3.064-2.33 1.247-.694 2.726-.179 3.994.172.01-.095.023-.19.03-.286.015-.228.007-.458.054-.685.234-1.137 1.136-1.883 2.057-2.48 1.393.635 2.838 1.157 4.269 1.703m13.208 1.186a7 7 0 0 1-.35-.902c-.116-.406-.112-.704.106-1.08.457-.792 5.68-1.626 6.92-1.968.124-.017.238.01.36.027l.044.237c-.359 1.115-1.206 2.184-1.937 3.084-3.507 4.313-7.858 4.402-13.009 4.95-.035-.113-.019-.03.055-.247 2.255-1.712 4.907-3.91 7.811-4.101m25.985.817c-.243-.015-.497-.023-.736-.066-.375-.068-.504-.15-.729-.45.56.037 1.06.088 1.465.516m20.588 6.033c-.052-.037-.113-.064-.16-.11-.71-.713-.608-3.722-.438-4.682l.211.095c.107.228.103.154.111.37.056 1.401.402 2.96.277 4.327m-5.681-1.8a4 4 0 0 1-.512-.593c.313-.088.376-.038.564-.32l-.142-.689c.331.2.479.588.573.952.074.28.055.436-.08.694zm.401 1.094-.072.017q-.938-.733-1.921-1.405c.511.025.894.25 1.303.552.334.246.624.424.69.836m-.165 1.066c-.676-.337-1.663-.997-2.03-1.65.33.046.686.096.986.255.573.303.835.809 1.044 1.395m-55.809 1.097c1.718-.715 3.269-1.695 5.13-1.993 2.441-.21 4.947.125 7.402.082-1.653 1.112-3.383 1.768-5.31 2.236-2.519.416-4.746.284-7.222-.325m75.78-1.064.078-.058zm-133.262 8.766c5.405-2.795 14.75-3.029 20.79-3.299 5.132-.268 10.284.59 15.39.365-4.974 2.22-14.533 2.522-20.054 2.807-5.369.102-10.758.295-16.127.127m76.263 1.029c3.521.106 7.121-.544 10.633-.832 1.435-.166 2.949-.096 4.393-.087 3 .018 6.002.14 9 .117-3.207 1.438-7.145 1.817-10.618 1.932-4.24.237-9.377.258-13.408-1.13"/></svg>