<svg xmlns="http://www.w3.org/2000/svg" viewBox="0 0 256 256"><path d="M116.527 0h25.447l.124.02c1.41.2 2.907.15 4.331.194 2.964.092 5.927.146 8.889.291q8.301.415 16.578 1.176c4.563.418 9.156.836 13.654 1.727 12.248 2.426 24.02 8.262 31.736 18.347 4.489 5.865 7.21 12.774 8.557 20 1.667 8.949 1.659 18.26 2.081 27.332q.718 12.825 1.2 25.661c.234 7.135.226 14.284.382 21.421q.971 32.164.52 64.338l-.282 13.806c-.09 4.189-.124 8.365-.684 12.525-1.429 10.625-6.128 20.746-14.797 27.384-8.942 6.847-21.641 9.135-32.638 9.823-3.51.22-7.048.081-10.565.227-4.877.203-9.957.987-14.709 2.092-4.373 1.017-8.568 2.621-12.62 4.543-2.796 1.328-5.524 2.848-8.44 3.898-1.898.683-3.793.695-5.69 1.195h-3.18c-2.03-.55-4.06-.705-6.078-1.417-2.613-.923-5.075-2.31-7.605-3.446-4.848-2.175-9.8-3.935-14.988-5.113q-2.837-.621-5.716-1.003t-5.779-.52c-2.828-.132-5.663-.084-8.492-.216-12.71-.593-26.968-2.688-37.27-10.804-8.144-6.416-12.495-16.443-13.688-26.547-.467-3.964-.395-7.945-.443-11.928-.038-3.168-.178-6.34-.252-9.508q-.666-27.686-.034-55.373.301-29.068 1.675-58.105c.499-10.6.612-22.074 2.676-32.47q.121-.629.26-1.254.14-.626.296-1.247.158-.62.334-1.237.175-.616.369-1.227.193-.61.405-1.215.211-.605.44-1.204.23-.598.476-1.19.247-.59.51-1.174.264-.584.545-1.16t.579-1.143q.297-.568.611-1.126.314-.559.645-1.108.33-.549.677-1.088.346-.539.708-1.067.363-.529.74-1.047t.77-1.024C47.505 10.005 61.06 5.053 74.566 2.97c3.937-.607 7.929-.928 11.898-1.252q8.327-.68 16.672-1.089l8.847-.375c1.462-.064 2.968-.06 4.42-.238zm7.694 3.683q-14.971.29-29.908 1.338c-5.49.334-11.046.45-16.51 1.066-12.208 1.379-25.387 5.255-34.083 14.39-4.895 5.143-7.929 11.633-9.47 18.515-1.224 5.458-1.53 11.159-1.88 16.727q-.631 11.402-1.112 22.812-1.208 26.862-1.467 53.75c-.327 18.582-.63 37.234-.113 55.814.076 2.722.181 5.44.202 8.164.07 9.176.269 16.932 4.875 25.206 1.622 2.914 3.605 5.579 6.036 7.872 3.02 2.847 6.59 4.883 10.4 6.47 8.093 3.373 16.928 4.414 25.621 4.804 3.674.165 7.358.126 11.029.318 4.726.246 9.564.883 14.171 1.971 2.98.703 5.946 1.619 8.75 2.854 5.869 2.584 10.992 6.336 17.736 6.126 1.096-.035 2.15-.197 3.226-.398 4.844-1.095 8.787-3.575 13.238-5.593 3.403-1.542 6.942-2.572 10.594-3.328 5.04-1.043 10.377-1.656 15.52-1.823 4.08-.132 8.163.021 12.244-.248 13.916-.916 28.487-4.54 36.429-17.086 3.284-5.188 5.108-10.897 5.87-16.967.435-3.47.461-6.967.533-10.458q.144-5.649.224-11.299.365-23.855-.123-47.709-.25-32.474-1.812-64.911c-.484-10.588-.3-22.054-2.648-32.386-2.404-10.584-8.54-19.844-17.768-25.669-5.192-3.277-10.736-5.357-16.71-6.693-6.372-1.425-12.78-1.554-19.26-2.054-14.455-1.115-29.334-2.008-43.834-1.575"/><path d="M132.181 249.099c-1.198.32-2.408.547-3.65.589-6.382.216-11.92-3.941-17.594-6.284-3.219-1.33-6.695-2.32-10.097-3.05-14.143-3.034-28.777-.843-42.825-4.6-5.752-1.538-11.26-3.956-15.66-8.06-5.714-5.327-9.095-13.062-9.923-20.782-.34-3.158-.294-6.346-.305-9.517q.002-4.12-.165-8.238c-.456-14.073-.276-28.115-.127-42.188q.28-30.807 1.449-61.593.425-10.633.988-21.26c.37-8.574.53-17.062 2.47-25.463 1.428-6.19 4.332-11.973 8.71-16.61C53.548 13.47 66.08 9.805 77.503 8.518c5.477-.617 11.013-.714 16.513-1.05q14.551-.93 29.124-1.412c14.372-.492 28.968.401 43.304 1.416 6.19.439 12.453.553 18.56 1.737 5.666 1.099 11.077 2.811 16.12 5.655 9.056 5.106 15.245 13.665 18.022 23.585 2.771 9.901 2.522 20.895 2.938 31.116q.945 19.302 1.31 38.622 1.085 35.573.773 71.16l-.26 14.091c-.06 3.932-.006 7.947-.447 11.855-.607 5.388-2.148 10.792-4.827 15.528-7.812 13.806-23.522 16.812-38.054 17.482-3.249.149-6.508-.01-9.754.154-5.106.257-10.389.873-15.408 1.86q-1.647.313-3.27.73-1.624.418-3.218.939t-3.15 1.142-3.07 1.342c-3.546 1.675-6.702 3.56-10.527 4.629M36.118 108.906c1.383-.078 2.757-.17 4.127.098 4.07.795 6.548 4.667 10.882 5.349 2.527.397 4.272-1.662 6.562-2.284 1.103-.3 2.127-.25 3.255-.19l.055.09-.056-.09a6.4 6.4 0 0 0-.77-.538c-2.776-1.644-5.608-.904-8.515-.157 11.086-7.242 12.95 2.766 20.846 3.291 3.092.206 4.036-3.131 8.898-2.606-3.257-1.819-5.327-1.392-8.834-.608 3.732-2.935 7.895-3.521 12.081-1.036 2.745 1.629 5 3.835 8.353 4.134 3.259.291 4.226-2.64 8.526-2.527-2.997-1.927-5.126-1.317-8.395-.796 3.769-2.716 7.826-3.334 11.893-.796 2.689 1.678 4.92 3.829 8.228 4.15 3.372.327 4.255-1.99 7.045-2.495.669-.12 1.444-.035 2.123-.011-3.456-1.742-4.896-1.521-8.471-.627 3.662-2.882 7.576-3.44 11.67-.99 2.998 1.793 5.162 3.977 8.811 4.311 2.694.248 3.913-1.824 6.274-2.49.833-.234 1.655-.205 2.512-.192-3.355-1.937-5.273-1.148-8.856-.718 4.08-2.691 7.945-3.691 12.336-.888 2.927 1.867 5.144 3.869 8.761 4.148 3.999.308 3.554-3.189 9.047-2.163-3.229-2.461-5.69-1.315-9.282-1.108q.328-.2.66-.394c2.824-1.652 5.455-2.466 8.698-1.596 2.492.67 5.329 2.3 7.053 4.23.895 1.003 1.675 2.337 2.348 3.498-5.173.55-8.145-2.721-12.312-2.897-3.424-.144-5.802 3.255-10.006 3.23-4.272-.026-7.53-3.122-10.862-3.093-4.067.034-5.958 3.68-11.009 3.097-3.58-.415-6.717-3.155-9.76-3.178-3.318-.026-5.573 2.831-8.787 3.182-5.037.55-7.676-3.097-11.489-3.132-3.782-.034-6.285 3.164-10.06 3.158-4.415-.006-7.266-3.464-11.054-3.202-4.206.29-5.956 3.468-9.962 3.324-3.808-.138-6.114-2.965-9.325-3.29-4.892-.495-6.78 2.976-10.661 3.107-3.576.12-6.12-2.623-9.485-2.942-1.127-.107-2.212.087-3.32.273-.099 12.253-.444 24.567-.666 36.826 12.33-1.648 20.009-3.663 30.246-10.888q1.236 1.508 2.629 2.873 1.393 1.364 2.927 2.569.291.226.589.446.297.219.6.43.303.213.61.417.308.205.62.401.313.197.63.386.318.19.64.37.322.182.648.355.326.174.657.339.33.165.665.322.334.157.672.306t.68.29q.342.14.687.272t.694.256q.347.123.699.238.35.115.705.221.354.106.71.204t.715.186q.358.09.72.17.36.08.722.15.363.071.727.133t.73.116.732.097q.367.044.735.08.368.035.736.061.369.026.738.043.37.017.739.025t.739.007q.369-.001.738-.011.37-.01.739-.03.368-.018.737-.047.368-.028.736-.066.367-.037.734-.083c9.624-1.27 14.638-7.014 20.185-14.226 3.52 3.815 7.524 7.745 11.916 10.541 8.653 5.507 18.113 4.595 26.32-1.275 2.654-1.898 5.333-4.724 8.592-5.45.734.663 1.34 1.474 1.986 2.221 1.213 1.405 2.535 2.66 4.094 3.679 5.7 3.724 13.747 5.936 20.466 4.475 3.852-.838 10.072-3.442 12.818-6.39 1.365-1.466 2.364-3.267 3.45-4.942 4.622 4.293 11.569 5.488 17.592 6.487q-.173-16.574-.638-33.143c-2.232.723-4.178 2.353-6.44 2.848-4.234.924-8.16-3.115-11.578-3.017-2.489.073-4.565 1.907-7.023 2.299-1.525.243-3.145-.011-4.672-.155-.139-1.43-.483-2.85-.823-4.243 1.722.78 3.214 2.015 5.052 2.561 3.532 1.052 5.406-1.982 8.586-2.39.604-.077 1.244.042 1.843.124-.4-.28-.811-.53-1.25-.748-2.707-1.342-5.112-.384-7.734.517 9.091-8.099 12.632 1.945 20.003 2.366 1.355.078 2.684-.432 3.99-.729-.01-4.428-.238-8.865-.37-13.291-2.328.746-4.294 2.71-6.643 3.17-4.514.882-8.711-4.12-13.34-2.996-2.107.511-3.491 2.077-5.437 2.825-2.303.886-4.534-.166-6.628-1.075-.311-1.612-.7-3.214-1.063-4.815 4.21 2.451 7.57 4.315 12.377 2.214 1.99-.87 3.346-1.295 5.547-1.183q-.401-.236-.809-.458c-2.686-1.472-5.02-.941-7.782-.128 4.86-3.423 8.07-3.337 12.979-.118 1.908 1.251 3.74 2.417 6.06 2.708 1.596.2 3.012-.393 4.573-.552l.157-.014c-.15-3.685-.202-7.373-.387-11.058-1.682.582-3.392 1.437-5.156 1.71-4.017.625-7.312-3.158-11.359-2.91-3.857.237-7.013 3.326-11.032 2.91-3.314-.341-5.748-2.882-9.122-3.231l-.562-1.676c1.867-.075 3.607-.009 5.372.65 2.535.947 3.942 2.592 6.902 2.568 4.014-.032 8.124-3.346 11.527-3.005 2.467.246 4.152 2.143 6.377 3 2.627 1.011 4.644.093 7.02-.96-.034-3.904-.255-7.797-.45-11.694-2.253.64-3.929 2.685-6.321 2.884-3.341.278-6.342-2.277-9.674-2.57-4.336-.38-5.711 2.513-9.127 2.762-.948.07-1.947-.114-2.864-.337-1.084-.265-2.114-.707-3.15-1.114-3.77-1.483-5.712-1.615-9.508-.169-.369-.387-.663-.819-.971-1.253 1.72-.55 3.708-1.884 5.358-2.09.894-.113 1.873-.009 2.773.028-3.68-2.394-5.048-1.401-8.946-.95 1.245-.794 2.496-1.656 3.888-2.17 6.184-2.285 9.75 4.28 15.421 4.941 3.198.373 3.847-1.095 6.436-1.742 1.015-.253 2.029-.145 3.062-.085-3.534-2.264-4.922-1.525-8.728-.906 1.41-.752 2.669-1.853 4.21-2.334 5.177-1.615 8.325 3.105 12.765 4.398 1.76.512 3.55.38 5.356.3-.094-4.558-.118-9.28-.59-13.813-1.938 1.006-4.081 2.956-6.245 3.273-3.476.507-6.592-2.672-10.276-2.527-3.711.148-6.812 3.495-9.838 3.18-3.66-.382-6.566-3.418-10.38-3.211-3.316.18-5.606 2.469-8.645 3.076-.675.135-1.397.082-2.082.06-2.248-3.114-5.386-5.785-8.168-8.41 1.431.37 2.89.724 4.213 1.398 3.215 1.637 5.61 4.352 9.557 3.96 2.47-.245 3.752-1.951 5.975-2.427.702-.15 1.506-.075 2.221-.06-2.867-1.641-5.388-.977-8.445-.486 1.314-.821 2.686-1.822 4.173-2.297 4.358-1.393 7.481 2.091 11.003 3.852q.519.263 1.062.472.542.209 1.104.362.56.154 1.135.25.573.096 1.153.134c3.16.214 4.133-1.64 6.792-2.217.715-.155 1.47-.1 2.197-.077-3.203-1.847-5.643-.938-9-.328 1.528-.942 3.174-2.157 4.933-2.605 3.47-.881 6.52 1.405 9.34 3.038 2.458 1.423 5.437 2.171 8.23 1.412-.255-4.022-.155-8.096-.784-12.086-1.514.67-2.895 1.783-4.482 2.249-4.13 1.21-7.792-2.844-12.06-2.354-3.344.385-6.132 3.31-9.496 2.941-3.616-.395-6.578-3.118-10.347-2.965-3.617.147-6.699 3.166-9.79 2.965-1.58-.103-3.015-.712-4.458-1.315-4.305-1.802-6.829-2.49-11.543-2.008 3.053-1.415 5.61-.946 8.828-.656.78-1.207 1.1-2.504 1.426-3.887 1.491.723 2.813 1.895 4.193 2.813 2.231 1.483 5.3 2.49 7.931 1.538 2.432-.879 2.811-1.872 5.857-2.275-3.196-1.614-5.08-.899-8.345-.096 9.402-7.222 11.404 1.824 19.58 2.571 3.511.321 4.422-1.432 7.338-2.146.68-.166 1.4-.163 2.095-.182-3-1.64-5.598-1.13-8.725-.227 4.506-3.188 7.335-3.665 12.163-.784 1.464.874 2.907 1.817 4.522 2.392 1.69.601 3.482.71 5.258.8-.485-3.933-1.113-7.601-2.541-11.327-.559.346-1.144.718-1.753.97-2.737 1.131-5.526-.456-8.032-1.487-4.158-1.487-6.067-1.049-9.866 1.012-1.26.684-2.445 1.15-3.905 1.158-3.683.023-6.674-2.733-10.314-2.987-4.096-.286-6.477 2.91-10.201 3.036-3.055.103-6.057-2.21-9.062-2.89-1.774-.4-3.155.079-4.89.198-.923.063-1.91-.076-2.833-.155 3.292-.994 4.326-2.338 8.063-2.483-2.94-1.151-5.201-.937-8.254-.401 5.634-3.787 8.409-2.979 13.731.698 1.766 1.219 3.383 2.18 5.57 2.326 2.712.183 4.565-1.51 6.953-2.4.738-.274 1.544-.355 2.318-.465-3.006-1.14-5.175-.626-8.211.107 3.719-2.913 7.512-3.774 11.672-1.108 2.423 1.553 4.538 3.518 7.54 3.786 3.356.3 4.75-1.657 7.647-2.488.699-.201 1.477-.224 2.2-.286-2.986-1.133-5.16-.712-8.183-.047.661-.448 1.323-.91 2.014-1.312 2.805-1.637 5.83-1.817 8.733-.302 1.39.726 2.66 1.674 4.048 2.413 1.454.774 2.945 1.253 4.533 1.67-1.72-4.344-4.659-8.67-8.938-10.81-2.896-1.447-6.51-1.789-9.5-.413-1.944.895-3.605 2.137-5.863 2.039-3.861-.168-5.84-3.393-11.494-2.809-3.008.311-5.371 2.635-8.37 2.812-3.628.213-6.719-2.894-10.704-2.98-3.866-.084-6.294 2.656-9.778 2.975-3.791.347-6.805-2.867-11.32-2.889-4.294-.02-6.677 2.808-10.31 2.835-3.36.025-6.143-2.476-9.504-2.832-4.76-.506-7.118 2.762-11.239 2.832-3.992.069-6.787-2.986-11.06-2.902-3.914.077-6.342 2.897-10.034 2.926-3.497.027-6.226-2.597-9.68-2.862-4.823-.37-7.123 3.03-11.43 2.794-5.035-.276-7.558-4.384-13.684-2.3-3.95 1.345-6.383 5.445-8.128 8.984 1.115.802 2.391 1.5 3.623 2.108 4.336 2.14 4.314.515 7.93-.893 1.279-.497 2.537-.582 3.894-.633-3.384-1.557-5.878-1.037-9.403-.33 9.24-7.632 13.055 2.034 20.661 2.781 2.139.21 3.756-1.393 5.686-1.996 1.135-.355 2.241-.353 3.416-.349-3.725-1.81-5.642-1.125-9.528-.353 1.002-.723 1.933-1.478 3.054-2.017 7.12-3.423 11.67 4.003 18.273 4.701 2.006.212 3.487-1.3 5.301-1.872 1.191-.376 2.48-.422 3.718-.515-3.334-1.691-5.58-.996-9.074-.299q.324-.325.666-.63c.958-.844 2.242-1.516 3.456-1.896 6.434-2.015 10.28 4.79 16.197 5.16 2.32.144 4.075-1.495 6.212-2.064 1.208-.322 2.343-.287 3.58-.206-2.883-1.417-5.462-1.244-8.563-.772 9.06-6.716 11.79 2.387 19.182 2.998 2.446.202 4.338-1.607 6.637-2.113 1.078-.237 2.088-.175 3.178-.09-2.94-1.401-5.254-1.187-8.422-.871.538-.341 1.076-.687 1.628-1.006 3.102-1.79 6.356-1.701 9.455.08 1.778 1.021 3.404 2.33 5.263 3.21.78.37 1.737.542 2.571.769-2.756.023-5.33.826-7.976 1.507q-.916-.464-1.85-.894c-2.548-1.15-5.045-1.114-7.532.165-1.1.565-2.15 1.267-3.309 1.707-3.547 1.346-6.231-.321-9.378-1.764-5.456-2.502-6.37.057-10.962 1.72-3.55 1.287-6.287-.218-9.455-1.691-2.865-1.333-5.245-1.452-8.028.218-.976.585-1.937 1.22-3.017 1.6-3.546 1.252-6.28-.08-9.455-1.583-2.974-1.408-5.527-1.661-8.46.008-1.016.579-1.982 1.236-3.093 1.623-3.387 1.18-6.099-.343-9.099-1.778-3.08-1.472-5.463-1.486-8.397.387-.879.56-1.745 1.156-2.744 1.486-2.803.925-5.144-.294-7.6-1.479-.913 2.23-1.259 4.761-1.696 7.122 3.019 1.024 5.468 3.137 8.47 4.167 3.432 1.178 4.926-.581 7.959-1.45 1.326-.38 2.629-.39 4-.395-3.74-1.994-5.334-1.464-9.242-.502 9.178-7.351 11.81 2.099 20.047 2.91 2.282.224 4.095-1.415 6.169-2.063 1.022-.32 1.966-.366 3.027-.385-3.913-1.798-5.213-1.548-9.196-.285 8.49-7.525 12.938 2.142 20.557 2.699 2.231.163 3.913-1.271 5.92-1.958 1.026-.351 2.218-.44 3.29-.616-4.32-2.645-6.607.037-8.332-.466 1.14-1.026 2.527-1.836 4.016-2.218 3.29-.844 6.457 1.163 9.15 2.782-1.756.625-3.62 1.623-5.44 1.972-1.494.287-2.96-.07-4.457.436-1.667.563-2.966 1.849-4.59 2.5-3.903 1.567-6.748-.59-10.211-2.068-4.525-1.93-6.41.485-10.28 2.035-4.053 1.624-6.587-.449-10.167-1.963-4.529-1.915-6.245.237-10.118 1.778-4.64 1.845-6.975-.45-11-2.172l-.196-.083q-.359 3.807-.61 7.622c4.905.656 8.354 5.118 12.98 5.487 1.985.158 3.896-1.564 5.802-2.05 1.104-.282 2.13-.256 3.26-.232l-.148-.089c-3.489-2.067-5.606-1.47-9.328-.518 3.463-2.457 6.772-3.65 10.773-1.534 1.58.835 3.029 1.906 4.59 2.776 1.452.809 3.016 1.487 4.682 1.678 1.935.222 3.878-1.435 5.69-2.003 1.053-.329 2.017-.365 3.11-.374l-.131-.077c-3.442-1.992-5.724-1.245-9.308-.315 1.554-1.085 3.208-2.098 5.085-2.496 3.25-.69 6.008.606 8.684 2.336-1.277.991-2.386 2.248-3.484 3.43-7.423-2.257-7.61 2.431-13.119 2.44-3.556.005-6.145-2.91-9.6-3.315-3.896-.456-6.157 3.123-9.888 3.248-3.111.104-5.167-1.957-7.987-2.73-.67-.183-1.38-.213-2.07-.261l-.35 8.007c1.405.153 2.724.38 4.035.934 3.261 1.38 6.165 4.47 9.832 4.694 2.098.127 3.876-1.48 5.817-2.064 1.067-.32 2.088-.34 3.192-.344-3.715-1.928-5.121-1.633-8.935-.552.91-.843 1.894-1.547 3.043-2.03 5.556-2.337 9.407 2.327 14.145 4.262 2.064.843 3.217.51 5.185-.308-.242.547-.437 1.213-.807 1.684-.753.959-1.868 1.657-3.035 1.983-5.16 1.441-8.256-3.487-12.67-3.003-3.45.378-6.147 3.61-9.636 3.317-3.995-.334-5.583-3.273-10.546-2.85-.107 3.142-.295 6.282-.417 9.424 1.367-.066 2.658-.066 3.992.277 4.045 1.04 6.515 3.906 11.057 3.476-4.007 2.58-6.825.787-10.579-1.003-.928-.443-1.896-.92-2.916-1.105-.535-.096-1.118-.056-1.66-.043.002 2.644-.23 5.309-.305 7.955 6.858-.334 8.607 4.64 14.228 5.576 2.64.44 4.36-1.505 6.75-2.083 1.308-.317 2.526-.215 3.847-.055-3.859-2.14-5.565-1.894-9.711-.868 3.869-2.939 7.674-3.814 11.89-.945 2.664 1.814 4.74 3.712 8.095 4.063 2.64.276 4.2-1.651 6.624-2.11 1.01-.191 1.954-.098 2.964.008-1.687-.956-2.939-1.392-4.904-1.242-.586.044-1.203.124-1.79.069-.29-.027-.463-.026-.654-.26.073-.13.071-.146.198-.264.576-.538 1.978-.91 2.742-1.205.908-.35 1.869-.785 2.855-.82 4.204-.154 7.61 5.55 12.972 5.796 3.7.17 4.761-3.035 9.333-2.597-3.455-1.947-5.314-1.17-9.001-.817 5.118-3.671 8.09-3.422 13.095.174 1.592 1.144 3.224 2.29 5.138 2.823 1.14.317 2.387.453 3.563.276.408-.062.969-.266 1.368-.244.302.016.358.088.542.293-.05.288.008.197-.168.395-.503.564-1.759 1.07-2.448 1.452-6.51 3.615-8.608-1.512-13.962-1.869-4.746-.316-6.853 3.63-11.569 3.108-3.455-.381-6.115-3.152-9.639-3.186-3.663-.034-6.098 2.888-9.565 3.269-4.603.505-6.78-3.199-10.552-3.341-4.064-.153-6.98 3.394-10.94 3.297-3.075-.075-5.381-2.227-8.285-2.796-1.087-.213-2.136-.14-3.232-.069-.042 2.634-.197 5.266-.244 7.9m20.311 41.317-.114.027c-1.661.409-3.227 1.177-4.887 1.606q-8.023 2.061-16.223 3.242l-.083 8.632c8.02-1.401 18.464-4.424 25.444-8.702 5.106 5.299 16.527 7.977 23.81 8.104 8.636.15 17.41-2.049 25.545-4.83 4.42 4.125 19.362 4.85 25.32 4.647 5.99-.206 11.677-1.159 17.343-3.152 1.551-.545 3.181-1.13 4.589-1.983 4.678 4.023 12.174 5.166 18.134 4.711 5.837-.445 13.84-2.617 18.748-5.864 1.098.713 2.627 1.063 3.878 1.454 7.357 2.303 15.362 4.023 23.087 4.309l-.179-10.234c-1.888-.398-3.794-.694-5.671-1.146-3.57-.86-7.017-2.033-10.476-3.259 2.33 1.583 4.785 2.775 7.424 3.745 2.786.982 5.564 1.579 8.464 2.116-3.33-.186-6.656-.178-9.966-.619q-2.412-.32-4.789-.84c-1.205-.271-2.434-.678-3.666-.794-.923-.088-1.839-.03-2.763.012 3.564 1.23 6.969 2.274 10.647 3.104 1.494.337 3.19.338 4.618.797-.809.184-1.954.006-2.796-.051-5.15-.346-8.906-1.251-13.758-2.92-7.66 4.6-15.408 8.496-24.607 6.177-6.475-1.632-10.606-5.056-15.416-9.38-.596.816-1.414 1.516-2.14 2.214-3.83 3.678-8.563 6.627-13.888 7.444-4.97.763-10.537-.492-14.914-2.897-2.657-1.46-5.189-3.412-7.626-5.216-1.426-1.056-3.273-3.119-5.19-2.828-2.422.366-4.438 3.241-6.368 4.658-4.88 3.582-11.023 6.331-17.148 6.618-7.086.332-15.902-3.184-21.698-7.208-1.315-.913-2.476-1.98-3.738-2.952-5.938 2.968-15.159 6.275-21.831 6.701l.159-.065c3.167-1.293 10.493-3.087 12.725-5.378l.07-.068zm99.37 64.441c8.572 3.604 13.266 1.893 21.565-.97q-.042.037-.086.073c-.895.7-2.107 1.203-3.151 1.625-3.957 1.596-8.17 2.426-12.434 1.779-4.985-.757-9.299-3.82-12.233-7.831-1.516.537-2.99 1.445-4.448 2.143q-2.023.976-4.136 1.738t-4.293 1.302c-5.217 1.26-10.505.853-15.213-1.83-2.038-1.161-3.925-2.576-5.927-3.8-3.61 2.092-7.979 3.87-12.022 4.855-9.744 2.376-17.307.922-25.825-4.256-7.045 5.664-15.774 5.69-24.342 6.545.764.855 1.526 1.378 2.614 1.758 4.773 1.67 15.277-.57 19.865-2.772.45.426.9.861 1.376 1.256 4.216 3.492 10.754 3.546 15.921 3.05-.83-.275-2.531-.066-3.449-.11q-1.323-.059-2.628-.279t-2.574-.597c-2.776-.848-5.74-2.306-7.153-4.96.427.418.86.825 1.32 1.207 5.5 4.565 12.254 4.464 18.986 3.823 5.29-.45 12.852-1.511 17.296-4.457 1.56 1.582 3.697 2.645 5.776 3.36 8.574 2.943 18.953.805 26.926-3.055.475.578.958 1.145 1.477 1.685 4.287 4.457 11.904 5.891 17.879 5.967 4.876.062 8.899-.948 12.449-4.41-1.518.636-3.037 1.246-4.644 1.621-4.186.978-9.139.929-12.882-1.398 1.474.175 2.915.573 4.4.722 5.342.534 9.74-1.23 14.312-3.758.443.319.918.617 1.395.881 3.964 2.194 13.525 3.628 17.882 2.307 1.054-.32 2.257-.876 2.797-1.888l-.095-.138c-1.14-.208-2.403-.104-3.563-.142-5.824-.192-14.474-.927-18.614-5.35-8.63 4.474-14.86 5.626-24.524 4.304M38.361 59.308c-.052.514-.12 1.031-.131 1.547.832-.221 1.63-.382 2.485-.482l.19.067c-.08-.252-.29-.29-.519-.408a8.6 8.6 0 0 0-2.025-.724m-.706 13.258-.123 1.846c1.217-.373 2.267-.41 3.535-.376l.144-.021c-.631-.78-2.466-1.306-3.444-1.438zm-1.072 24.485a12 12 0 0 0-.139 1.472c1.643-.084 3.134.036 4.755.3-1.284-.934-3.031-1.631-4.616-1.772m-.463 13.31-.105 2.574c1.369-.584 2.668-.901 4.164-.91l.698.054.108-.107c-1.128-1.015-3.387-1.385-4.865-1.61m164.455 40.113c-.448.193-.82.386-1.204.687l-.024.156.046.02q.678-.336 1.352-.68c-.054-.064-.1-.138-.17-.183m-7.49 9.901c.182.319.376.707.678.927 2.104 1.533 9.464 3.776 12.242 4.53 1.92.523 3.953.923 5.824 1.584-6.354-.997-13.326-2.367-18.83-5.88-.074-.274-.052-.379-.006-.652-.602-.16-3.688 1.637-4.449 1.97-1.355.596-2.828 1.007-4.25 1.411-6.54 1.86-13.905 2.276-20.535.641-3.434-.846-4.748-1.812-7.804-3.14-14.061 5.181-31.808 9.789-46.183 3.192q-1.974-.894-3.798-2.064c-4.403 1.663-8.729 3.297-13.392 4.09-8.093 1.378-20.017-.412-27.506-3.798q-2.167-.998-4.232-2.195c-5.584 2.873-11.39 5.155-17.632 6.137 2.65-1.3 5.094-2.698 7.428-4.52-1.03.428-2.056.886-3.104 1.267-2.453.855-4.94 1.541-7.436 2.257-1.637.47-3.304 1.063-4.99 1.317l-.005 7.273 87.673.277 61.335.092 22.546-.008q7.228.051 14.454-.052l.011-6.345c-2.046-.312-4.077-.872-6.087-1.363q-9.248-2.306-18.227-5.499c-1.204-.437-2.614-.815-3.725-1.449m-78.821 21.542c-1.77.278-3.148 1.115-4.196 2.582-1.996 2.789-2.217 7.025-1.646 10.293.4 2.288 1.36 4.828 3.325 6.223q.106.076.215.146.11.07.223.134t.23.123.235.11.24.099q.123.046.246.086.124.04.25.073.126.034.253.06.127.028.256.048t.258.034q.13.013.26.02.129.008.26.008.13 0 .26-.006t.259-.02q.13-.012.258-.032.129-.02.256-.046c1.898-.375 3.472-1.845 4.629-3.327.33-2.4.149-4.974.127-7.4-1.83-.075-3.662-.043-5.493-.025l-.277.085c-.333.908-.124 2.445-.108 3.42 1.059.023 2.131.01 3.187.093l-.014 1.689c-.712.904-1.592 1.833-2.81 1.946-.749.07-1.444-.23-1.992-.728-1.412-1.285-1.848-3.565-1.887-5.4-.04-1.858.127-4.324 1.501-5.726a2.82 2.82 0 0 1 2.12-.857c.76.014 1.357.363 1.845.93.477.555.768 1.275 1.103 1.92.84-.36 1.617-.766 2.405-1.228-.447-1.839-1.142-3.64-2.85-4.678-.933-.566-1.865-.678-2.928-.65m-27.277.357c-1.01 3.411-1.774 6.895-2.647 10.343-.742 2.93-1.649 5.9-2.178 8.875l2.88.008q.546-2.048 1.018-4.113h4.33l.25.092c.537 1.259.793 2.785 1.13 4.114.987-.013 1.977-.01 2.962-.057-1.155-4.794-2.301-9.582-3.532-14.356-.422-1.635-.775-3.3-1.243-4.92-.987 0-1.983-.028-2.97.014m8.985-.022c-.105 6.414-.272 12.926-.01 19.332.87-.01 1.742-.007 2.61-.032.007-4.019-.082-8.033.027-12.05q2.396 6.069 5.05 12.03l2.468.007c.283-6.39.115-12.887.026-19.285-.843.013-1.689.012-2.53.045-.041 4.047-.096 8.127.005 12.174L98.5 182.257zm26.406.018q-.06 4.275-.046 8.55c.008 2.29-.106 4.711.418 6.953.248 1.06.684 2.103 1.459 2.889.982.996 2.288 1.298 3.648 1.27 1.268-.027 2.413-.405 3.307-1.334.654-.679 1.07-1.548 1.31-2.452.794-2.978.41-8.992.394-12.208-.006-1.223.008-2.45-.02-3.672-.932.004-1.869-.013-2.8.02-.093 2.963-.04 5.934-.036 8.899.002 1.66.145 3.465-.188 5.094-.115.562-.358 1.128-.796 1.514-.417.368-1.06.471-1.6.428a1.93 1.93 0 0 1-1.418-.79c-.41-.557-.584-1.261-.682-1.935-.254-1.75-.166-3.627-.17-5.394l-.023-7.779a58 58 0 0 0-2.757-.053m14.592.04-1.707.032c-.001 2.156-.206 18.518.195 19.098.338.07.619.077.96.07l1.469-.011c.219-3.424.12-6.901.116-10.332-.003-2.88.124-5.853-.153-8.717-.265-.215-.546-.138-.88-.14m3.262-.046q.019 9.612-.062 19.223l8.75-.026-.009-3.48-5.903.003-.13-15.726zm10.494.031a842 842 0 0 0-.014 19.142q4.214.048 8.429.052l.03-3.505c-1.873-.049-3.788-.025-5.654-.185-.023-5.177.025-10.362-.061-15.538-.91.01-1.822.002-2.73.034m13.853-.034q-1.437 6.45-3.012 12.87c-.498 2.12-1.056 4.23-1.445 6.374l2.715-.009c.356-1.428.664-2.905 1.113-4.304q1.978-.057 3.956-.085c.19.009.417-.049.544.112.575.728.915 3.386 1.113 4.325l2.769-.042c-.89-3.966-1.94-7.874-2.906-11.82-.593-2.421-1.036-4.941-1.82-7.309a36 36 0 0 0-3.027-.112m-17.074 32.476c-2.423 1.179-4.537 2.625-7.144 3.45q-1.398.441-2.836.73c-.94.181-3.775.35-4.453.725l.171.1c4.741.076 10.121-.252 13.716-3.749a4.3 4.3 0 0 0 .716-.866l.001-.262zm-36.176 3.04c-1.242.266-2.615.472-3.775.995 1.249-.011 2.49-.137 3.733-.245l3.628.085c-1.138-.412-2.353-.997-3.587-.835m6.87 2.128c-1.346.282-2.653.517-4.034.472-1.606-.053-3.195-.362-4.801-.143-3.415.467-7.172 2.076-10.61 2.906 1.314-.031 2.686-.268 3.989-.221 1.363.05 2.672.668 4.028.844 4.56.591 8.135.576 12.715.181 6.095 2.611 9.78 1.381 15.919 1.325a17.7 17.7 0 0 1-2.784 2.899c1.018.089 2.677.005 3.594.37-.021.07-.055.236-.096.294-1.464 1.475-3.236 2.89-4.447 4.576 3.103-.08 5.843-1.337 7.991-3.583 1.541-1.61 2.305-3.394 2.957-5.498 2.2-.161 4.468-.226 6.649-.538-4.165-2.626-9.07-.902-13.598-.51q-2.027.168-4.06.103-2.031-.065-4.043-.361c-2.141-.327-4.364-1.042-6.336-1.933-.748-.338-1.608-.922-2.377-1.148-.252-.074-.401-.062-.656-.035"/><path d="m112.692 76.153-.066.069zc1.235-.23 2.4-.714 3.663-.849 5.548-.592 7.146 3.334 10.846 6.276 2.248 1.787 7.36 4.558 10.304 4.338 1.32-.1 2.753-.856 4.256-1.024-.614.32-1.282.576-1.92.846-.98.415-1.968.803-3.017 1.005-3.873.744-10.709.425-14.473-.686-2.941-.868-5.698-2.275-8.448-3.611-.48-.233-.993-.447-1.443-.732-1-.632-1.903-1.508-3.017-1.931-3.964-1.507-17.106 4.075-20.942 5.78 2.939-.343 5.792-1.059 8.61-1.95 4.161-1.318 8.504-3.404 12.933-3.194.474.344.886.791 1.306 1.199-3.359-.148-14.194 3.322-17.84 4.271-3.089.803-6.43 1.266-9.382 2.471-4.097 1.673-7.28 6.391-12.066 6.24-.474-.014-.983-.141-1.292-.53-1.419-1.784 3.435-7.189 3.91-9.68.437-2.283.904-4.632 1.657-6.834 3.627-10.6 11.404-17.099 20.795-22.519 6.504-3.752 13.84-6.605 21.268-7.838q2.03-.34 4.082-.518 2.05-.178 4.11-.193c2.906-.031 6.299.823 9.079-.164 1.82-.647 3.292-1.974 4.79-3.146 4.437-3.476 9.038-4.728 14.663-4.022 2.703.34 5.745 1.304 7.47 3.54.025.587.102 1.25.042 1.83-.037.353-.126.478-.397.69-.736.045-1.66-.33-2.411-.476-1.39-.161-2.85-.133-4.215.192-1.714.409-3.38 1.402-4.282 2.953-.823 1.414-.863 3.287-.032 4.706.917 1.57 4.083 3.818 5.56 5.148q2.327 2.117 4.569 4.323a112 112 0 0 1 9.676 10.83c5.15 6.576 9.067 14.725 11.564 22.669 1.8 5.724 3.057 11.699 4.37 17.552.811 3.614 1.022 7.99 2.855 11.26 2.68 4.778 7.298 6.353 8.682 12.243.682 2.901.688 6.392-.913 8.999-1.655-2.909-2.138-6.07-4.807-8.383-3.998-3.465-10.259-5.146-15.478-4.72-4.208.345-4.248 1.81-6.679 4.447-.19.205-.34.395-.63.398-.514-.92-.517-2.23-.403-3.265.627-5.708 6.097-6.17 9.58-9.107.951-.803 1.567-1.848 1.643-3.107.06-.971-.13-1.793-.628-2.63-.831-1.395-2.087-2.558-3.105-3.82-1.067-1.322-2.025-2.764-2.996-4.158q-2.275-3.267-4.346-6.667c-1.487-2.405-2.908-4.855-4.771-6.998-6.106-7.028-16.27-11.759-25.334-13.323-2.497-.431-6.607-.484-8.724-1.392-4.756-2.041-5.526-8.007-12.605-8.437-1.951-.12-4.196.374-5.687 1.699m-20.63-9.974-.05.062zc.91-.424 1.796-1.081 2.661-1.603q2.38-1.426 4.8-2.787c8.016-4.554 16.234-9.042 25.612-9.796 1.157-.093 2.33-.133 3.49-.065.861.05 1.72.181 2.584.148l-.19-.08c-2.688-.681-5.114-1.005-7.852-.474-2.266.439-4.367 1.272-6.568 1.922-2.592.764-5.225 1.225-7.79 2.121q-.985.349-1.953.742t-1.918.83-1.877.917-1.834 1.001-1.786 1.085-1.735 1.165-1.68 1.242-1.62 1.319c-.802.683-1.753 1.445-2.344 2.313m74.216 4.447.061.176.221.101.034.072c.696 1.494 1.997 2.842 2.894 4.247 2.024 3.165 3.99 6.508 5.67 9.863q1.487 2.9 2.644 5.946c.469 1.237 1.552 4.898 2.124 5.744l.043.131-.043-.13-.011-.128c-.165-1.253-.713-2.628-1.112-3.834-2.044-6.182-7.137-17.69-12.209-21.839l-.034-.072-.221-.101zm10.178 40.488a5 5 0 0 0-.11-.244c-.668-1.373-1.512-2.677-2.288-3.992-1.153-1.955-2.282-3.897-3.54-5.789-2.125-3.195-4.34-6.374-6.963-9.187-6.097-6.541-14.472-11.048-23.211-12.861q-3.152-.649-6.36-.901c-1.303-.105-5.198-.014-6.134-.351l.256.009-.066-.06c11.167-1.746 22.977 1.834 32.287 7.99 2.858 1.89 5.521 4.116 8.085 6.382q2.957 2.625 5.778 5.397c1.109 1.082 2.36 2.587 3.656 3.43l.195.122.06.054-.06-.054c-1.317-2.52-3.644-5.521-5.46-7.738-8.131-9.922-18.2-16.87-30.441-20.706-7.855-2.462-11.116-2.36-19.11-.975-2.156.373-4.32.79-6.5.984l.115.02c1.426.231 2.856.084 4.272.466 3.96 1.069 5.82 4.332 8.689 6.902.604.541 1.222 1.113 1.967 1.454 1.52.696 5.984.813 7.97 1.206 10.806 2.141 21.711 7.291 28.352 16.367 2.238 3.059 4.164 6.337 6.406 9.402.648.885 1.334 1.958 2.155 2.673l.177.251.095.132-.095-.132zm7.576.261.076.142c.242 4.604 2.291 17.774 5.789 20.929l.072.053-.072-.053c-.314-.85-.766-1.669-1.108-2.513q-1.246-3.112-2.082-6.359c-.948-3.83-1.397-8.4-2.599-12.057zm-38.941-57.13c2.27 2.301 5.258 3.692 8.092 5.16.809.419 1.775 1.06 2.661 1.239-2.223-1.684-8.27-5.856-10.753-6.398M97.97 70.042q-.904.146-1.791.378-.887.233-1.747.55t-1.686.715-1.609.874q1.876-.59 3.768-1.126c2.877-.867 4.638-1.057 7.656-.736-1.545-.546-2.95-.796-4.59-.655m-11.59 4.867c-1.005.165-1.988.334-2.63 1.218-.711.979-.751 2.544-.908 3.72 1.798-.328 3.032-.487 4.244-2.02.374-.612.987-1.785.923-2.512-.13-.11-.175-.215-.36-.19-1.14.151-2.389 2.237-3.218 3 .65-1.091 1.445-2.051 2.126-3.114-.134-.108-.068-.091-.177-.102m16.825 1.383c-5.458.803-9.112 4.57-13.776 7.069-2.418 1.296-4.94 1.843-7.428 2.88-2.245.935-7.956 5.225-9.543 7.169 1.87-.461 3.022-1.468 4.456-2.671 1.43-1.187 2.855-2.423 4.516-3.282 2.542-1.316 5.437-1.903 8.091-2.983 4.35-1.77 12.371-6.846 16.938-6.433.892.08 1.724.357 2.54.713-1.147-1.286-2.287-2.406-4.115-2.528a9.3 9.3 0 0 0-1.679.066m-31.411-3.506-.096-.099.086-.186c1.23-.881 2.488-1.55 3.944-1.974l.074.149-.605 1.25q-1.695.456-3.403.86"/><path d="m104.25 86.38.073.053c2.358 3.136 5.481 5.51 8.859 7.461 1.25.722 2.597 1.345 3.785 2.163 1.028.708 1.927 1.591 2.907 2.36.996.782 2.124 1.369 3.24 1.956-1.344.137-3.095.54-4.214-.426-.706-.61-.943-1.486-1.205-2.342-5.789-1.718-8.217-3.226-12.51-7.577-1.306-1.323-2.571-2.71-4.022-3.878 3.012-.902 7.436-2.798 10.531-2.306.674.107 1.296.389 1.891.71 5.281 2.851 11.76 5.288 17.849 4.891 1.446-.094 2.755-.504 4.162-.748q-.074.053-.153.103c-4.846 3.041-8.728 1.493-13.74.045-1.697-.49-3.452-.818-5.176-1.2 5.127 3.629 6.344 7.147 8.715 12.641-2.392-.798-4.153-2.743-6.204-4.13-2.771-1.873-5.8-3.373-8.587-5.237-2.003-1.34-4.193-3.336-6.127-4.486zm9.684 2.953c.477.383 1.077.677 1.59 1.02a19.6 19.6 0 0 1 3.42 2.872c1.263 1.342 2.097 3.09 3.468 4.33l.063.07-.062-.07c-.537-1.298-1.449-2.68-2.256-3.819-1.47-2.074-3.644-3.95-6.223-4.403M53.135 88.29c1.898-1.676 4.552-2.66 7.088-2.488 2.737.186 5.274 1.723 7.682 2.926l-.746 1.583a33 33 0 0 1-3.28-1.237c-2.183-.973-3.938-1.993-6.43-1.674-1.457.187-2.862.666-4.314.89m97.619 2.645q-.489-.094-.976-.198c-1.659-.349-8.617-1.825-9.309-2.886l.29-.248q.067-.004.132-.004c1.766 0 8.818 2.058 10.026 3.222zm-63.955-.173-.075-.052c.188-.16.259-.176.492-.23 3.71-.85 6.256-2.136 10.255-2.557l.134.075-.106.18c-.924.398-1.91.617-2.867.92-2.768.877-4.881 1.628-7.834 1.664M53.029 88.36l.106-.07zm82.567.337.153-.053zm19.257 4.443c-.347.005-.887.07-1.188-.097-.177-.099-.203-.358-.265-.538.593.094.955.31 1.453.635"/><path d="M133.392 97.435c1.898-1.25 3.674-2.234 5.954-2.515 6.036-.382 8.541 4.901 14.587 5.8 3.608.537 5.656-2.82 7.273-2.504 1.07.21 2.932 3.109 3.71 4.01-.857-.355-1.725-.73-2.613-.997-1.94-.584-3.935-.708-5.736.392-.813.497-1.573 1.1-2.423 1.534-4.42 2.257-8.948-1.108-13.062-2.455-4.83-.698-5.358 1.81-9.198 2.897-2.873.814-5.653-.181-8.163-1.561.8.001 1.75.088 2.531-.079.387-.082.817-.239 1.005-.62.429-.87-.403-2.468-.73-3.31l.12.041.201.073c1.8.624 3.285 1.849 5.149 2.365 4.55 1.26 4.615-1.345 8.125-2.16.637-.148 1.348-.093 1.999-.078-3.014-2.058-5.41-1.297-8.73-.834"/><path d="M153.534 97.473q2.127-1.129 4.196-2.36c.943.589 1.783 1.306 2.639 2.011-1.364-.07-2.666-.159-4.024.035-.927.16-1.874.226-2.81.313M116.21 99.28l-.204-.154zm0 0 .032.344zm-2.959 50.813c-2.217 2.81-4.97 5.064-8.236 6.553-.616.281-5.181 1.985-5.599 1.83l.053-.091c.964-.173 2.032-.732 2.932-1.138 4.455-2.009 7.776-4.564 10.771-8.428 1.364.79 2.529 2.296 3.812 3.265 3.696 2.794 7.757 4.798 12.027 6.546-5.665-.986-10.556-4.309-14.917-7.857zm64.529 10.728c-5.12.333-10.126-.973-14.265-4.04-2.167-1.607-4.764-4.277-5.18-7.073.604.403 1.665 2.463 2.259 3.196 2.986 3.677 7.97 6.282 12.532 7.304 1.534.344 3.093.465 4.654.613m-25.159-5.854c.611-.65 4.863-4.548 5.442-4.764-.52 1.346-4.112 4.165-5.442 4.764m-69.741 4.541c-.597.002-1.184-.1-1.772-.195-6.072-.98-12.344-3.862-16.018-8.966.981.355 3.277 2.612 4.345 3.35 4.081 2.826 8.684 4.535 13.444 5.81m75.433-7.562.051-.055z"/><path d="M144.957 158.876c1.394-.564 3.054-.69 4.506-1.203 2.047-.725 4.357-1.879 6.02-3.282.92-.776 1.757-1.684 2.736-2.381l.093-.065c-.194.375-.446.67-.735.977-3.098 3.285-8.061 5.836-12.62 5.954m7.529-3.81.135-.099zm39.95 6.763.154-.203zm-.253.074.253-.074zm-.476.419c.135-.23.242-.297.476-.419-.151.22-.227.316-.476.419m-.121.065.121-.065zm-.329.245.33-.245c-.108.088-.207.179-.33.245m-119.51 4.243c-2.615-.16-8.204-2.493-10.163-4.272 1.317.29 4.335 1.967 5.8 2.59 1.435.61 2.94 1.05 4.363 1.682m119.327-4.083.182-.16zm-.32.24.044-.118.276-.122-.187.23zm-32.034 1.305-.15-.13c.37-.064 3.589 1.302 4.151 1.48 6.517 2.057 12.928 2.205 19.569.684 1.855-.425 3.746-.932 5.493-1.693 1.038-.452 1.967-1.124 2.971-1.646-1.561 1.959-6.424 3.228-8.88 3.854-7.902 2.014-16.004 1.697-23.154-2.549m-26.69 6.115-.172-.007.026-.088c4.319-.892 8.764-2.027 12.94-3.454 2.796-.956 5.532-2.105 8.295-3.154.069 0 .131.038.195.063-.02.034-.035.07-.058.1-.465.606-2.165 1.162-2.912 1.498-6.091 2.736-11.612 4.534-18.315 5.042m-89.389 1.255c1.378-.464 2.85-.732 4.266-1.066 4.594-1.082 9.568-1.96 13.883-3.886 3.995 2.605 9.98 3.286 14.578 4.322-4.932.433-9.897.655-14.537-1.342-.677.591-1.393 1.09-2.138 1.59-.428.265-.815.499-1.318.58-1.503.24-3.219.055-4.745.037-3.33-.04-6.662-.056-9.989-.235m134.257-.488c3.87-.305 8.586-.549 12.061-2.444 1.032-.563 1.892-1.287 2.773-2.059 5.75 2.362 11.558 4.094 17.689 5.164-3.045.677-7.767.829-10.84.447-1.367-.17-2.666-.509-3.987-.894-1.007-.319-1.976-.715-2.953-1.114-4.461 1.934-10.068 2.148-14.743.9m-91.23.701c4.663-.087 9.956-1.004 14.351-2.59 1.722-.62 3.365-1.456 5.046-2.18 5.06 3.357 13.949 3.993 19.998 3.974-5.308 2.627-13.715 1.946-19.217.175l-1.645-.593c-6.29 2.38-11.995 2.32-18.533 1.213m74.403-4.345-.19-.047zm-15.916 4.909c4.332-1.915 8.42-2.484 12.77-4.891.494.05 2.712 1.768 3.537 2.124 4.158 1.792 8.276 2.373 12.75 2.524q-.418.102-.839.191-.42.089-.845.163-.424.075-.85.136-.426.06-.854.108-.428.047-.857.08-.43.032-.86.05-.43.02-.86.024-.43.005-.86-.004-.431-.01-.86-.034-.43-.023-.86-.06-.428-.038-.856-.09-.427-.051-.852-.117-.426-.065-.849-.145t-.843-.172-.837-.2-.83-.227c-1.099-.321-2.131-.818-3.168-1.293-4.047 1.773-7.931 1.956-12.277 1.833m15.916-4.909.097.112z"/><path d="M160.168 167.686c2.991 1.181 6.172 2.122 9.393 2.384 1.052.085 5.157-.013 5.681.179-.202.125-.115.1-.24.126-3.954 1.379-9.03.448-12.724-1.325-.685-.328-1.636-.765-2.11-1.364m-72.26 1.89-.293-.118.005-.127c.956-.242 2.008-.185 2.991-.284 2.267-.226 4.575-.48 6.817-.881l.144.016c-.03.03-.057.063-.09.09-1.695 1.407-7.44 1.583-9.574 1.304m76.826 23.971c.382-2.115.843-4.233 1.314-6.33.024.022.053.04.071.065.382.525 1.267 5.242 1.293 6.104-.32.214-.713.169-1.085.178zm-77.851.44c.306-2.113.95-4.231 1.489-6.294.817 1.302 1.195 4.781 1.385 6.371l-1.435.002c-.479-.009-.961-.051-1.44-.079m42.468 22.463a5 5 0 0 1-.475.009c-3.43-.139-10.374-1.99-12.746-4.615.755.073 3.28 1.592 4.276 2.004 1.688.696 3.566 1.323 5.36 1.698.83.174 3.042.341 3.586.905m-34.864-.269c-4.398.448-10.19-.484-13.858-3.077.77.035 2.305.878 3.093 1.159q1.465.514 2.972.88c1.3.31 2.664.551 3.996.663 1.198.102 2.66.008 3.797.375m82.877-2.488.136-.066z"/></svg>