<svg xmlns="http://www.w3.org/2000/svg" viewBox="0 0 256 256"><path d="M131.406 255.21c-5.139.197-10.306-.085-15.422-.558q-1.278-.117-2.553-.257-1.276-.143-2.548-.312-1.272-.168-2.54-.36-1.269-.196-2.533-.416t-2.524-.464q-1.26-.245-2.514-.516-1.254-.272-2.502-.567-1.249-.297-2.49-.617-1.243-.323-2.478-.67t-2.464-.719-2.448-.768-2.433-.818q-1.212-.422-2.415-.867-1.203-.446-2.397-.916t-2.378-.965-2.358-1.013-2.337-1.06-2.315-1.108-2.291-1.155-2.268-1.2-2.243-1.247-2.218-1.292-2.19-1.337-2.163-1.38-2.135-1.425-2.105-1.468q-1.044-.744-2.074-1.51-1.03-.765-2.044-1.552-1.014-.786-2.012-1.593t-1.979-1.633-1.945-1.674-1.911-1.713q-.896-.824-1.775-1.666-.88-.841-1.744-1.7-.863-.857-1.71-1.732-.848-.874-1.679-1.764-.83-.89-1.644-1.795-.814-.906-1.61-1.826-.797-.921-1.576-1.857t-1.54-1.885-1.505-1.915-1.468-1.942-1.43-1.97q-.707-.991-1.395-1.996-.687-1.005-1.355-2.022-.669-1.018-1.318-2.048t-1.279-2.072-1.239-2.095-1.2-2.119-1.159-2.14q-.57-1.077-1.119-2.163-.549-1.087-1.077-2.183-.53-1.097-1.037-2.203-.508-1.107-.995-2.223t-.952-2.24-.91-2.258-.868-2.276q-.423-1.141-.824-2.29-.402-1.15-.781-2.306-.38-1.157-.738-2.32-.358-1.164-.693-2.334-.336-1.17-.65-2.347-.313-1.177-.605-2.358-.291-1.182-.56-2.37c-1.6-6.87-2.738-13.947-3.09-20.998q-.073-1.566-.108-3.133-.035-1.568-.031-3.136.003-1.568.045-3.135.043-1.567.123-3.133t.2-3.13q.118-1.562.276-3.123.157-1.56.352-3.115.196-1.556.43-3.106t.504-3.094.581-3.082q.31-1.537.657-3.066t.73-3.049.807-3.03.88-3.01q.458-1.499.953-2.986.496-1.488 1.027-2.963.532-1.475 1.099-2.936.568-1.462 1.17-2.909.604-1.447 1.242-2.879.639-1.432 1.312-2.848.674-1.416 1.382-2.815.708-1.398 1.45-2.78.742-1.38 1.518-2.743t1.585-2.706 1.65-2.665q.842-1.323 1.716-2.625t1.78-2.582 1.842-2.537 1.904-2.49 1.964-2.444 2.024-2.395 2.082-2.345q.861-.952 1.742-1.888t1.781-1.852 1.818-1.816 1.854-1.779 1.89-1.74 1.925-1.703 1.959-1.663 1.992-1.623 2.024-1.582 2.056-1.54 2.087-1.5q1.051-.739 2.117-1.456t2.146-1.413 2.174-1.37 2.201-1.325 2.228-1.28 2.254-1.235q1.132-.606 2.277-1.19 1.145-.582 2.301-1.142t2.325-1.096 2.345-1.048 2.367-1.001 2.386-.953q1.198-.464 2.405-.904t2.423-.855 2.44-.806 2.455-.757 2.47-.706 2.485-.657 2.497-.606 2.508-.555 2.52-.505c6.65-1.255 13.445-1.85 20.197-2.182l.175-.008c6.737-.29 13.557.202 20.23 1.107q1.218.161 2.434.346 1.215.185 2.427.393t2.42.44q1.207.23 2.41.485t2.4.533 2.39.578 2.379.624q1.185.323 2.365.67 1.18.345 2.353.714t2.339.76 2.323.804 2.308.85 2.29.893q1.141.457 2.273.937t2.255.98q1.123.502 2.236 1.024 1.113.523 2.216 1.067 1.102.544 2.194 1.109t2.173 1.15 2.15 1.193 2.127 1.233 2.103 1.274 2.078 1.315 2.053 1.353 2.026 1.393 2 1.432 1.97 1.47 1.943 1.508q.964.762 1.913 1.544.95.781 1.883 1.58.935.8 1.853 1.618.918.817 1.821 1.652 2.137 1.986 4.173 4.077 2.035 2.09 3.964 4.281t3.744 4.474q1.817 2.284 3.517 4.656.72.99 1.42 1.993.702 1.004 1.384 2.02t1.345 2.045 1.307 2.07 1.268 2.094 1.229 2.118 1.189 2.14 1.148 2.161q.565 1.087 1.108 2.183.544 1.097 1.067 2.204.524 1.106 1.026 2.222.503 1.117.984 2.242.482 1.125.942 2.26t.9 2.276.857 2.294.814 2.308.77 2.324q.375 1.165.728 2.337.352 1.172.682 2.351.332 1.178.64 2.363.31 1.185.595 2.375.288 1.19.553 2.385.262 1.195.505 2.395.242 1.2.46 2.404.22 1.205.417 2.413.198 1.208.37 2.42.175 1.212.328 2.426.15 1.215.28 2.432.127 1.217.234 2.437.105 1.22.188 2.44.085 1.222.145 2.445t.097 2.445c.226 5.764-.297 11.653-1.007 17.366q-.143 1.23-.31 2.46-.165 1.227-.355 2.452t-.405 2.446-.452 2.438q-.238 1.216-.498 2.428-.262 1.212-.548 2.418-.285 1.206-.592 2.407-.31 1.2-.64 2.394-.333 1.195-.687 2.382t-.733 2.369q-.378 1.18-.779 2.353t-.825 2.338-.87 2.321-.914 2.304q-.469 1.148-.96 2.286-.49 1.138-1.004 2.267-.513 1.128-1.047 2.246-.535 1.119-1.092 2.226-.556 1.108-1.134 2.204t-1.177 2.182-1.22 2.158q-.62 1.074-1.26 2.135-.641 1.06-1.303 2.109t-1.343 2.083q-.682 1.036-1.383 2.058-.702 1.021-1.424 2.03-.721 1.007-1.462 2-.741.995-1.502 1.974-.76.979-1.539 1.943t-1.577 1.912q-.797.95-1.613 1.882-.816.933-1.65 1.85c-24.015 25.879-55.382 39.979-90.626 41.329M122.418 5.822q-1.465.065-2.928.165-1.464.1-2.924.235-1.46.136-2.918.306-1.456.17-2.908.376-1.453.205-2.9.445t-2.887.515-2.875.585-2.86.653-2.843.722q-1.416.378-2.824.79-1.408.411-2.805.857t-2.784.925-2.76.99q-1.375.513-2.737 1.058-1.361.545-2.71 1.123-1.348.577-2.681 1.187-1.334.61-2.653 1.252-1.32.642-2.622 1.315-1.303.673-2.59 1.377-1.287.705-2.556 1.44t-2.52 1.5-2.484 1.56-2.445 1.62-2.406 1.679-2.365 1.735-2.322 1.792-2.279 1.847-2.233 1.901-2.188 1.954-2.14 2.007-2.09 2.057-2.041 2.107C15.927 68.828 4.387 99.71 5.637 133.812q.062 1.342.153 2.682t.212 2.677.27 2.673.329 2.665.387 2.658.445 2.649.504 2.638.562 2.626.619 2.614.676 2.6.733 2.583.79 2.567q.409 1.28.846 2.55t.902 2.53.957 2.509q.492 1.25 1.012 2.488t1.066 2.465 1.12 2.441q.574 1.215 1.174 2.416.6 1.202 1.227 2.39.626 1.188 1.279 2.362.652 1.173 1.33 2.333t1.38 2.304q.704 1.143 1.432 2.272t1.481 2.24q.753 1.113 1.53 2.208t1.578 2.174q.801 1.078 1.625 2.138.825 1.06 1.672 2.102.848 1.042 1.718 2.065t1.762 2.026 1.807 1.988c1.863 2.005 3.715 3.994 5.722 5.857q1.113 1.044 2.25 2.061 1.138 1.018 2.3 2.006 1.163.988 2.35 1.947t2.398 1.887q1.21.93 2.444 1.828t2.488 1.766q1.256.867 2.533 1.703t2.574 1.64 2.614 1.574q1.316.77 2.652 1.509 1.336.737 2.69 1.442 1.353.704 2.724 1.374t2.758 1.306 2.79 1.237 2.82 1.167 2.848 1.096q1.43.53 2.874 1.024 1.444.495 2.9.953t2.921.88q1.467.421 2.944.806t2.962.733 2.98.658 2.995.584q1.501.274 3.009.51 1.508.235 3.02.433t3.031.358 3.038.284q1.522.122 3.045.204 1.524.085 3.049.13 1.525.048 3.051.056 1.526.007 3.052-.023 1.525-.03 3.05-.097l.19-.008c33.661-1.82 63.452-15.548 86.04-40.752q.995-1.119 1.962-2.262t1.906-2.31 1.85-2.355 1.792-2.399q.88-1.21 1.733-2.442.851-1.232 1.673-2.484.821-1.252 1.612-2.524.79-1.271 1.55-2.562t1.488-2.599 1.423-2.634 1.36-2.668q.663-1.343 1.294-2.701.63-1.358 1.228-2.731t1.162-2.76 1.093-2.788 1.026-2.814.957-2.837.888-2.86.819-2.88.747-2.9.678-2.918.605-2.932.535-2.947.463-2.958.39-2.97.319-2.977.246-2.985.172-2.99q.068-1.495.1-2.992.033-1.497.028-2.995t-.045-2.994-.118-2.992q-.082-1.506-.204-3.01-.12-1.502-.277-3.002t-.35-2.996-.424-2.985q-.23-1.49-.497-2.975-.267-1.484-.57-2.962-.302-1.477-.641-2.946t-.714-2.93-.785-2.912-.855-2.892q-.446-1.44-.927-2.87-.48-1.43-.996-2.847-.516-1.416-1.066-2.82-.55-1.405-1.134-2.795t-1.202-2.766q-.619-1.375-1.27-2.735t-1.336-2.704-1.402-2.67-1.467-2.635-1.53-2.598q-.782-1.29-1.594-2.56t-1.656-2.521-1.718-2.48-1.777-2.436-1.836-2.392-1.894-2.346-1.951-2.3-2.007-2.251q-1.017-1.114-2.061-2.202T214 40.73q-1.07-1.062-2.167-2.098t-2.216-2.044q-.966-.858-1.949-1.695t-1.984-1.654q-1-.816-2.018-1.61t-2.053-1.568-2.084-1.524-2.117-1.48-2.147-1.434q-1.081-.707-2.177-1.39t-2.206-1.342-2.234-1.296-2.26-1.248q-1.137-.612-2.287-1.2t-2.311-1.152-2.336-1.102-2.358-1.053-2.38-1.003-2.4-.952-2.42-.901-2.439-.85-2.456-.798-2.472-.747-2.487-.693-2.502-.641-2.514-.588-2.527-.535-2.537-.481-2.547-.428-2.555-.373-2.563-.32-2.568-.265-2.574-.21-2.578-.157c-3.992-.2-8.044-.334-12.035-.085z"/><path d="M129.74 247.113q-1.452.022-2.904.008t-2.903-.062-2.901-.133-2.897-.204-2.891-.275-2.884-.345-2.874-.416-2.863-.485-2.85-.555-2.837-.624q-1.414-.33-2.82-.694t-2.802-.762-2.783-.83-2.762-.898-2.74-.965q-1.363-.5-2.714-1.032t-2.689-1.097-2.66-1.163q-1.324-.598-2.633-1.228t-2.601-1.291-2.569-1.355-2.535-1.416-2.5-1.478q-1.241-.755-2.463-1.539-1.222-.785-2.425-1.598t-2.385-1.657-2.343-1.715-2.302-1.772-2.257-1.827-2.213-1.881q-1.094-.954-2.165-1.935-1.071-.98-2.118-1.987-1.04-1.001-2.056-2.028-1.015-1.026-2.005-2.077t-1.955-2.125-1.902-2.173q-.938-1.097-1.85-2.218-.91-1.12-1.794-2.262-.883-1.143-1.738-2.306t-1.682-2.347-1.625-2.387q-.797-1.204-1.565-2.426t-1.506-2.464q-.738-1.24-1.446-2.5-.708-1.258-1.385-2.533-.676-1.276-1.322-2.567t-1.26-2.599q-.613-1.306-1.195-2.628-.582-1.321-1.132-2.656t-1.066-2.684-1.001-2.708-.934-2.733-.868-2.754-.8-2.774-.733-2.793-.665-2.81q-.315-1.41-.595-2.826-.281-1.416-.527-2.839t-.458-2.85q-.211-1.429-.388-2.862-.176-1.433-.318-2.87-.141-1.437-.248-2.877-.106-1.44-.178-2.882-.071-1.442-.108-2.886-.039-1.459-.042-2.918t.03-2.92.1-2.917.172-2.914.243-2.909.315-2.902.385-2.893.456-2.884.527-2.871.597-2.858.666-2.841.736-2.825.805-2.806.873-2.786.941-2.763 1.009-2.74q.52-1.363 1.075-2.713t1.142-2.687 1.206-2.658 1.272-2.628q.652-1.306 1.335-2.595.684-1.29 1.399-2.562.715-1.273 1.46-2.528.747-1.255 1.523-2.49.777-1.237 1.583-2.453.806-1.217 1.642-2.413.837-1.197 1.701-2.373.866-1.176 1.759-2.33.894-1.154 1.815-2.286t1.87-2.241 1.925-2.195 1.978-2.147C64.44 22.576 93.48 9.816 126.484 9.061q1.44-.016 2.88.003t2.878.072 2.876.141 2.872.21 2.866.279 2.858.348 2.85.416 2.838.484 2.826.552 2.812.62 2.797.687 2.779.754 2.76.82 2.74.886 2.717.952 2.694 1.016 2.669 1.081 2.642 1.145 2.614 1.208 2.585 1.27 2.553 1.331 2.52 1.393 2.486 1.452q1.235.741 2.451 1.512 1.216.77 2.414 1.57 1.197.8 2.375 1.627 1.178.828 2.336 1.684t2.295 1.74 2.252 1.794 2.209 1.848q1.093.936 2.164 1.9 1.07.962 2.117 1.95 1.056 1.012 2.087 2.049 1.03 1.037 2.035 2.099 1.004 1.062 1.983 2.148.978 1.087 1.93 2.197.95 1.11 1.874 2.243t1.82 2.289 1.762 2.332q.867 1.178 1.705 2.376t1.646 2.416 1.586 2.456 1.525 2.494 1.463 2.531 1.401 2.567 1.337 2.6 1.273 2.632 1.208 2.662 1.142 2.691 1.076 2.719 1.008 2.744q.488 1.379.941 2.768.453 1.39.873 2.79.419 1.401.803 2.812t.734 2.83.665 2.847.594 2.862.524 2.877q.245 1.441.453 2.888.21 1.447.382 2.899.174 1.451.311 2.907.138 1.455.239 2.913.102 1.459.167 2.92t.096 2.921q.03 1.477.025 2.954-.006 1.477-.048 2.953-.041 1.476-.12 2.951t-.192 2.947-.264 2.942-.337 2.934q-.187 1.466-.41 2.926-.221 1.46-.48 2.914-.258 1.454-.552 2.901-.293 1.448-.623 2.888-.329 1.44-.693 2.87-.364 1.432-.764 2.853t-.834 2.834-.903 2.812-.972 2.79q-.502 1.388-1.04 2.764-.537 1.375-1.107 2.738t-1.175 2.71-1.24 2.68-1.306 2.65q-.67 1.316-1.371 2.615-.702 1.3-1.434 2.582-.734 1.282-1.498 2.546t-1.56 2.508q-.795 1.245-1.62 2.47-.826 1.224-1.681 2.428t-1.74 2.387-1.798 2.343-1.855 2.298-1.91 2.253q-.97 1.114-1.966 2.204t-2.02 2.156q-1.015 1.05-2.056 2.073-1.041 1.025-2.108 2.023-1.066.998-2.156 1.97-1.091.97-2.205 1.915t-2.251 1.86q-1.137.917-2.297 1.805t-2.34 1.748-2.383 1.689-2.424 1.63-2.463 1.569-2.502 1.508-2.537 1.446-2.573 1.383-2.606 1.319-2.638 1.254-2.668 1.189-2.696 1.122-2.724 1.055-2.748.988-2.772.92-2.794.851-2.814.782-2.833.713q-1.42.338-2.85.642-1.428.303-2.863.571t-2.878.5-2.889.43-2.899.358-2.906.286-2.913.215q-1.458.09-2.917.142-1.46.054-2.92.071m72.666-205.22.064.045c.193 1.146 1.616 10.24 1.95 10.465.327.22.86.229 1.044.605.025.052.025.112.037.168l-.08.107c-.358-.133-.628-.306-.94-.525-.29.627.752 7.72.915 8.922-3.13-3.982-7.142-7.94-11.077-11.13l9.439 1.383-.219-1.395c-2.028-.45-10.304-1.47-11.51-2.08-1.028-.52-1.709-1.364-2.31-2.316-1.797-2.85-2.872-6.155-4.548-9.087l-1.272.114c-.098.793 2.895 6.615 3.397 7.91-1.887-1.1-3.646-2.403-5.508-3.543-2.288-1.401-4.667-2.642-6.967-4.018 2.76-.236 5.526-.43 8.282-.702.17-.27.13-.308.126-.613l.12-.013c.157.233.248.51.531.564.423.079.9.023 1.328.006l-.862-1.682c-.551.08-1.091.157-1.634.286-1.396.33-3 .31-4.437.423-2.02.16-4.037.392-6.059.522-1.99-1.135-4.99-2.065-6.686-3.325-1.351-1.006-2.6-3.104-3.68-4.479-1.993-2.54-3.99-5.067-6.06-7.547-1.21-1.45-2.409-2.943-3.789-4.239l-2.4-.507c1.345 1.397 5.048 6.1 6.279 6.816l.873-.028.113.118c-.275.309-.606.477-.96.677.559.319 1.019.572 1.668.674l.111.153c-.153.268-.296.321-.573.445-.56-.407-.88-.802-1.54-1.105-2.017.803-8.012 3.364-9.98 3.424-1.388.042-2.906-.363-4.276-.575-.704-.11-1.801-.003-2.423-.26-.851-.352-1.73-1.087-2.497-1.611-2.27-1.552-4.582-3.388-7.05-4.606-.412.274-.924.709-1.443.632-.38-.057-.79-.436-1.088-.664-1.69 1.216-8.113 5.819-9.63 6.24-2.095.581-4.694.616-6.925 1.1-2.927-1.624-7.303-2.198-10.56-3.953 2.304-2.535 4.682-5.01 6.87-7.646-.63.104-1.261.23-1.9.255-2.058 2.046-3.986 4.196-5.887 6.384-.498.572-1.123 1.112-1.487 1.78.042.26.075.39.33.541a.96.96 0 0 0 .848.08c.5-.181 1.004-.888 1.397-1.243-.261.383-.626.811-.747 1.262 1.556 1.027 6.455 2.6 8.387 3.052-5.106.946-10 2.13-14.883 3.927 1.572-2.328 3.618-4.425 5.472-6.535l-1.485-.57c-2.082 2.196-5.033 5.525-6.604 8.038-1.558.744-4.185 2.278-5.718 2.755-1.299.405-9.334-.462-11.238-.6 1.536-3.04 3.217-6.029 4.703-9.09-.587.05-1.178.086-1.762.159-1.459 2.905-2.896 5.949-4.546 8.744-2.72-.261-5.496-.646-8.226-.671-.641.357-1.27.71-1.87 1.134 3.142.34 6.276.703 9.43.917l-2.564 5.994c-.512 1.201-.966 2.552-1.684 3.642-.726 1.102-2.397 2.631-3.632 3.138-1.903.78-8.681 1.094-11.246 1.467.631-2.695.939-5.455 1.587-8.146-1.094.58-1.625.954-2.013 2.2-.603 1.937-.685 4.172-1.044 6.18-1.234.126-6.643.458-7.346 1.381-.136.178-.077.561-.08.783l.132.217c1.714.056 5.108-.69 6.975-.939l-1.094 6.78c-.287 1.853-.401 4.112-1.139 5.836q-.148.346-.34.669-.194.323-.427.617-.234.294-.505.555-.271.26-.574.483c-1.475 1.084-7.593 3.346-9.75 4.24-.065-2.767-.108-5.561-.376-8.318-.456.251-.922.49-1.367.76q.003 4.091.321 8.17c-1.31.483-7.833 2.732-8.328 3.584-.162.277-.14.602-.033.895.045.123.107.203.178.306.982-.038 6.924-2.75 8.255-3.314.14 1.995.971 9.88.585 11.368-.44 1.693-2.02 4.8-2.749 6.61l-1.379-.126c-2.074 1.641-4.21 3.236-6.075 5.116l.379 1.416c1.933-1.681 4.324-4.137 6.46-5.454-.582 2.216-1.358 4.367-2.023 6.557q-1.144 3.808-1.968 7.699c-1.034-2.566-1.712-5.27-2.764-7.813l-1.131.559.028.163c.612 3.291 2.229 6.416 3.07 9.658.255.98-.209 2.232-.377 3.225-.208 1.23-.17 2.586-.522 3.78-.752 2.553-4.706 7.746-6.205 10.457q-2.707-4.17-5.36-8.374l-1.04 1.165c1.814 2.792 3.775 5.555 5.465 8.42-1.75 2.958-3.834 5.729-5.535 8.712.34.448.666.873 1.071 1.265q2.642-4.397 5.434-8.7c1.42 2.322 5.514 8.283 6.202 10.361.64 1.937.643 4.198 1.136 6.209q-1.689 5.309-3.624 10.533c-2.51-2.172-4.885-4.491-7.345-6.719-.336.455-.683.904-1.009 1.366 2.669 2.128 5.057 4.6 7.696 6.766.185-.368.37-.884.707-1.122.25.14.165.056.285.213-.411.153-.491.326-.669.72-.213.471-.415.976-.258 1.496.06.198.167.22.328.328.337.002.602-.067.848-.307.43-.42.488-.937.49-1.511l-.228-.38.37.11c.98-1.006 2.168-6.1 2.9-7.76.992 4.748 2.486 9.424 4.07 14.003-2.407-1.66-4.455-3.844-6.79-5.616l-.551 1.276c1.1.964 8.263 7.109 8.646 7.698.819 1.26 1.237 2.865 1.953 4.213q-.271 5.59-.786 11.164c-2.707-1.036-5.389-2.237-8.02-3.454l-.686 1.373c2.822 1.268 5.761 2.406 8.53 3.773-.177 2.834-.397 5.677-.466 8.515.407.367.8.71 1.255 1.016q.304-4.511.68-9.017c1.545.508 8.623 3.24 9.553 4.006 1.093.902 1.958 2.362 2.803 3.507a136 136 0 0 0 1.73 11.807c-2.43-.353-4.896-.633-7.31-1.074l-.672 1.43q4.111.623 8.237 1.144l1.393 7.756c.528.48 1.062.863 1.662 1.246q-.787-4.37-1.465-8.76c2.343.433 4.716.732 7.075 1.065 1.347.189 2.856.258 4.135.733 1.508.56 3.42 2.007 4.343 3.322 1.26 1.793 3.08 6.948 3.94 9.189-2.795.282-5.604.4-8.4.685.323.395.637.804.985 1.178 2.655-.012 5.453-.102 8.081-.465 1.07 2.543 2.221 5.875 3.547 8.214a20 20 0 0 0 1.766.874c-1.186-3.096-2.551-6.126-3.81-9.193 3.557-.276 7.194-.772 10.756-.765.404.001 4.535 1.603 5.144 1.93.484.26.874.599 1.247.999 1.033 1.106 1.96 2.369 2.909 3.55 1.208 1.504 2.488 3.01 3.587 4.594q-4.595 1.551-9.229 2.983c.619.34 1.23.688 1.885.951 2.817-.774 5.584-2.014 8.42-2.644 1.841 2.317 3.71 4.695 5.655 6.923l2.064.195c-2.046-2.577-4.32-5.005-6.283-7.64 3.475-1.175 6.992-2.33 10.399-3.687 2.029.29 5.42.52 7.225.994 1.691.445 7.99 5.079 9.59 6.403l-8.316 5.825c.749.083 1.501.185 2.252.245 2.47-1.703 5.025-3.34 7.3-5.3q3.867 2.587 7.685 5.246c.8-.092 1.602-.175 2.4-.284-.823-.482-9.01-5.771-9.156-6.077-.185-.386-.297-.552-.661-.776l-.145.033-.01.334c-.681-.286-1.362-1.09-1.985-1.55-1.803-1.33-3.688-2.559-5.466-3.92 2.934.195 5.846.351 8.789.333 1.95-.013 3.896-.144 5.846-.19-2.168 1.575-4.3 3.279-6.521 4.77-.019.356.426.664.576 1.021 1.13-.175 6.879-4.699 8.668-5.63 1.996-1.04 5.45-.967 7.762-1.492 3.56 1.313 7.2 2.41 10.775 3.68-2.414 2.674-4.971 5.261-7.316 7.991l2.23-.363c2.194-2.32 4.397-4.614 6.388-7.112 2.78.875 5.536 1.828 8.32 2.69l1.844-.89c-1.319-.462-8.662-2.714-9.151-3.35l-.088-.59c.182.146.358.262.563.376.697-.433 1.274-1.385 1.762-2.042 1.035-1.395 3.526-5.247 4.83-6.038.787-.477 1.776-.779 2.621-1.161.933-.423 1.895-.95 2.87-1.251 2.197-.678 10.112.862 11.082.07.126-.436.26-.678.55-1.029l.09-.106c-2.693-.358-5.435-.413-8.144-.613 1.31-.918 2.784-1.655 4.17-2.458 2.72-1.573 5.584-3.363 7.931-5.453-.903 2.744-2.301 5.469-3.454 8.126.267.109.539.18.816.258 1.309.372 4.06-8.698 5.479-10.13.901-.909 2.133-1.857 3.34-2.306 1.818-.677 5.909-.896 7.99-1.103.87-.087 1.87-.079 2.71-.316.645-.183 1.319-.638 1.901-.963.069.24.073.54.103.79l-1.577.118c-.348 2.789-.637 5.608-1.194 8.365.716-.477 1.315-1.078 1.912-1.694.22-2.212.864-4.582.86-6.789 2.3-.246 4.708-.4 6.966-.924.489-.605 1.034-1.16 1.568-1.724-3.187.814-6.581.786-9.815 1.353-.208.209-.162.458-.189.745l-.03.012c-.001-.314-.005-.459-.186-.72-1.12-.274-7.601.64-9.248.788 3.838-2.838 7.922-7.341 10.835-11.156-.231 3.287-1.049 6.524-1.274 9.815.453.058.92.054 1.377.069.593-2.873.972-5.826 1.442-8.722.205-1.265.315-2.696.748-3.905.11-.31.278-.531.54-.728 1.12-.845 2.641-1.392 3.911-1.991q3.74-1.778 7.514-3.482c.144 2.862.22 5.73.425 8.588l1.464-1.698c.005-2.406-.043-4.983-.376-7.367-.272.077-.644.22-.922.23-.332.014-.393-.092-.577-.32-.005-.296.003-.535-.102-.815-.93-.154-7.712 3.108-9 3.712 3.394-4.366 6.077-9.138 8.638-14.021 0 3.337.352 6.676.414 10.016.451-.34.945-.61 1.433-.891.037-1.594-.112-3.228-.177-4.822q-.193-4.011-.166-8.027c2.8-3.517 7.01-7.046 10.297-10.206 1.116 2.926 2.072 5.918 3.219 8.829l1.4-.855c-1.18-2.922-2.023-6.126-3.438-8.93 1.132-1.171 2.392-2.234 3.574-3.356 1.318-1.252 2.58-2.555 3.942-3.76-.368-.445-.757-.875-1.137-1.31-2.245 2.396-4.677 4.598-6.918 6.99-.568-3.516-2.485-7.288-3.23-10.828-.192-.911.173-1.815.29-2.722.18-1.39.142-2.99.58-4.317.4-1.216 1.505-2.468 2.21-3.542l3.748-5.729c-.325-.37-.597-.791-.88-1.195-1.7 2.186-3.064 4.614-4.762 6.805.582-4.464.433-9.36.028-13.836 1.514 2.004 2.99 4.622 4.643 6.412.338.044.358-.068.622-.261l-.192.444c.073.478.635.907.965 1.24l.838-.921c-.297-.43-.553-.872-.994-1.167l-.308.07c.02-.043.047-.082.059-.127a3 3 0 0 0 .022-.275c-.089-.437-4.79-7.231-5.45-8.312-.871-1.427-.928-2.657-1.145-4.267-.158-1.179-.5-2.6-.423-3.773.072-1.101.606-2.268.989-3.291.848-2.267 2.472-5.882 2.954-8.113.088-.407.172-.822-.056-1.194-.32-.233-.553-.312-.938-.392.046-.442-.388-.64-.71-.92-1.776-1.538-7.495-6.025-8.471-7.627-.643-1.055-1.014-2.388-1.57-3.514.332-3.892.362-7.845.592-11.75q4.279 1.909 8.579 3.768c-.34-.589-.683-1.32-1.153-1.81-1.566-1.632-5.218-2.652-7.39-3.493.27-2.65.366-5.343.501-8.004-.39-.705-.877-1.322-1.37-1.958l-.417 9.407q-3.106-1.41-6.28-2.663c-1.12-.453-2.363-.855-3.421-1.437a7.8 7.8 0 0 1-1.569-1.169c-.477-.45-1.071-1.035-1.314-1.65-.706-1.793-1.222-7.702-1.528-9.897-.125-.89-.4-1.785-.428-2.68l.222-.093-.125-.067c.267.113.431.26.638.455.165.155 7.544 1.425 8.343 1.583-.564-.698-1.19-1.306-1.84-1.924-2.667-.666-5.61-.557-8.22-1.351-.251-.076-.415-.083-.538-.316.401-.1.724.042 1.1.162l.185.06c-.365-2.39-.692-4.793-1.157-7.165q-.9-.701-1.822-1.372zM23.75 98.891c.357.143.388.122.742-.028.18-.076.27-.166.389-.318.15-.632-2.969-9.486-3.458-10.673l-1.127 1.896c.855 2.45 1.79 4.868 2.612 7.33.1.258.296.572.225.84l-.116.077c-2.442 1.657-4.782 3.849-6.996 5.81.235.404.46.82.718 1.21 1.124-.834 6.513-4.954 7.1-5.722zm96.701-84.336-1.781.1c1.375.902 8.04 5.892 9.184 5.772.291-.03.658-.283.912-.426.484.113.616.23 1.067-.046 2.291-1.403 4.383-3.174 6.723-4.505l1.267-.836c-.754-.061-1.506-.136-2.263-.124-2.398 1.466-4.977 2.95-7.22 4.634.064.117.112.222.206.317l-.046.126c-1.591-.35-6.146-5.144-8.049-5.012m-30.134 5.826c-.77.384-1.528.717-2.339 1.007 2.836.529 5.656 1.706 8.35 2.72l.431.198c.46-.184.648-.729 1.019-1.055-1.396-.742-6.017-2.64-7.462-2.87m75.74.374c-1.56.457-6.687 1.688-7.72 2.419l.322.1c-.276.013-.145.043-.393-.095.011.347.175.762.436 1.006.24.225.426.196.733.138.198-.037.405-.124.596-.19 2.718-.807 5.418-1.682 8.16-2.4-.581-.324-1.464-.968-2.133-.978m12.55 5.689c1.3 2.797 2.67 5.563 3.942 8.372.568.03 1.138.07 1.706.08-1.14-2.499-2.247-5.026-3.549-7.446-.693-.336-1.387-.712-2.099-1.006m12.46 7.98c-2.135.188-4.36.285-6.453.749l.743 1.232 2.488-.25c2.087-.165 4.18-.366 6.272-.421l-1.591-1.402c-.472.026-.998.007-1.46.092m43.93 53.51c-.988 2.746-2.508 6.292-3.207 9.025.517.246.922.483 1.345.87.954-2.675 2.124-5.33 2.983-8.029-.315-.6-.63-1.394-1.12-1.866m-1.793 10.373-.508 1.397c2.582 2.448 5.312 4.731 7.963 7.103l.136-.196c-.18-.718-.377-1.41-.805-2.025-1.168-1.68-5.036-4.974-6.786-6.279m8.368 20.007-5.353 8.297c.318.389.628.84.99 1.187 1.775-2.696 3.86-5.442 5.328-8.306-.287-.407-.56-.88-.965-1.178m-4.509 9.997c-.298.453-.589.906-.931 1.328.908 1.449 4.21 7.156 5.129 8.001l.178-.004 1.072-.799c-.916-1.487-4.445-7.708-5.448-8.526M22.738 158.953c-.916 2.512-2.028 5.083-2.713 7.664l1.212 1.138c.877-2.625 1.86-5.22 2.714-7.851-.441-.287-.88-.536-1.213-.95m206.676 19.398c-1.485.804-8.766 4.108-9.225 5.122.1.326.144.308.441.489.319.02.501-.037.797-.154l.148-.129c.099.024.196.085.298.073.54-.066 7.28-3.397 8.062-3.898.143-.092.162-.117.27-.218.025-.38-.15-.728-.402-1.008-.122-.136-.213-.223-.389-.276m-46.017 41.06c-.311.465-.582.88-.774 1.412 1.806.295 3.645.398 5.465.591 1.301.138 2.705.416 4.009.391.202-.004.325-.061.487-.175.463-.361.938-.713 1.387-1.089q-5.284-.592-10.574-1.13m-.916 1.684c-1.007 3.022-2.53 5.83-3.707 8.783l1.372-.633c.23-.097.494-.204.668-.39.791-.841 2.755-5.781 3.308-7.117q.059-.145.115-.292a20 20 0 0 0-1.756-.351"/><path d="M120.717 26.244a98 98 0 0 0 7.146-4.907c1.658.591 6.007 3.746 7.696 4.911q-3.485-.199-6.975-.288c-2.616-.029-5.253.157-7.867.284m-21.391-2.78-.34-.021.05-.192.272.006zm49.298 4.687c2.755-1.211 5.694-1.863 8.52-2.872 1.091.648 4.792 5.701 5.844 7.024-2-.927-4.233-1.499-6.335-2.142-2.625-.837-5.298-1.607-8.03-2.01m-18.342 198.608q-.216.01-.433.018c-2.892.097-5.833-.063-8.717-.266q-1.053-.078-2.105-.178t-2.102-.223-2.096-.266-2.09-.31-2.084-.354-2.075-.397-2.067-.44q-1.03-.232-2.057-.484-1.026-.253-2.046-.527t-2.035-.569-2.023-.612-2.01-.653q-1-.337-1.995-.696-.994-.358-1.98-.737-.987-.379-1.965-.778-.978-.4-1.948-.82t-1.93-.86-1.912-.9-1.892-.939q-.942-.48-1.873-.979-.931-.5-1.852-1.018-.92-.519-1.83-1.056-.91-.538-1.808-1.095t-1.784-1.132-1.76-1.17-1.736-1.205-1.71-1.242-1.683-1.277-1.657-1.312q-.82-.664-1.628-1.346t-1.6-1.38q-.793-.699-1.571-1.413-.724-.68-1.435-1.374-.71-.694-1.407-1.401-.696-.708-1.378-1.43-.683-.721-1.35-1.456-.668-.735-1.321-1.483t-1.291-1.509q-.638-.76-1.261-1.534t-1.23-1.56-1.198-1.583-1.167-1.607-1.135-1.63-1.102-1.652-1.068-1.674-1.035-1.695-1.001-1.715-.967-1.734q-.475-.873-.932-1.754t-.897-1.772q-.44-.89-.862-1.789-.421-.899-.825-1.806t-.79-1.822-.753-1.838q-.367-.922-.717-1.852-.348-.93-.679-1.866-.33-.936-.642-1.88-.312-.942-.604-1.891-.293-.949-.567-1.903t-.529-1.915-.49-1.924-.452-1.934-.413-1.942-.375-1.95c-.866-4.939-1.201-10.005-1.374-15.01-.914-26.416 10.042-51.44 27.91-70.555q.643-.679 1.299-1.346t1.325-1.321 1.35-1.295 1.375-1.27q.693-.627 1.399-1.242.705-.615 1.422-1.215.717-.602 1.446-1.189.728-.587 1.468-1.16.74-.572 1.49-1.131t1.512-1.102q.76-.545 1.532-1.074.772-.53 1.553-1.044t1.573-1.014q.79-.499 1.591-.983t1.61-.953q.81-.468 1.63-.921.818-.453 1.645-.89t1.663-.858 1.678-.827 1.695-.793 1.709-.761 1.724-.728 1.737-.695 1.75-.661q.879-.323 1.763-.628t1.774-.594q.89-.288 1.786-.559.895-.271 1.796-.525.9-.254 1.805-.49.906-.237 1.815-.456.91-.219 1.823-.42.914-.202 1.831-.386c5.842-1.116 11.805-1.534 17.74-1.739 17.25-.449 33.597 3.925 48.738 12.065 7.66 4.117 14.662 8.986 21 14.956q.893.844 1.765 1.71t1.722 1.753 1.678 1.795 1.634 1.836 1.588 1.876 1.54 1.914 1.493 1.952 1.445 1.988 1.395 2.023 1.345 2.057 1.293 2.09q.634 1.052 1.242 2.12.607 1.068 1.189 2.15.58 1.084 1.135 2.18.554 1.097 1.081 2.207t1.026 2.233q.5 1.122.971 2.257.472 1.135.915 2.28.444 1.147.859 2.303.415 1.157.801 2.323.386 1.167.744 2.343.357 1.175.686 2.36.328 1.184.627 2.375t.568 2.391q.27 1.199.51 2.404t.45 2.416q.21 1.21.39 2.426t.33 2.435q.15 1.22.27 2.443.119 1.223.209 2.448.09 1.226.149 2.453t.088 2.456c.74 25.89-10.007 51.114-27.68 69.785q-.836.876-1.694 1.732-.858.855-1.737 1.689-.878.834-1.777 1.646-.899.813-1.818 1.602-.918.79-1.856 1.558-.937.767-1.893 1.51-.956.745-1.93 1.465-.975.72-1.966 1.417-.992.696-2 1.367-1.008.672-2.032 1.319t-2.065 1.268-2.095 1.216-2.124 1.166-2.152 1.113-2.179 1.06-2.204 1.005-2.228.952-2.25.896q-1.132.435-2.273.841-1.141.407-2.292.785t-2.31.729-2.328.672-2.344.614-2.358.556q-1.182.265-2.37.5-1.19.234-2.383.44-1.194.205-2.392.381-1.2.176-2.402.323t-2.408.264-2.414.205-2.419.146-2.42.085m69.78-160.422c-1.088.41-2.075.928-3.213 1.207l-.114-.051c-1.27-.605-2.362-2.188-3.898-1.831l-.652.523c-1.14.23-2.317.236-3.476.285-1.36 1.305-2.531 2.807-3.96 4.038-1.873.041-3.546-.11-4.946 1.371-.823.871-1.54 1.881-2.445 2.669-1.868 1.623-4.85 3.248-7.018 4.513l-.1-.07c-.926-.663-1.713-1.534-2.565-2.288-.763-.676-1.612-1.283-2.322-2.015-.808-.832-2.23-2.931-3.12-3.437-.068-.038-.338.001-.374.01-.644.167-1.597.825-1.87 1.448-.23.527.023 1.032.238 1.517.67 1.5 1.544 2.95 2.34 4.386-1.01-1.2-1.951-2.481-3.04-3.61-1.653-1.715-3.731-3.24-5.678-4.616 3.435-.088 6.876-.371 10.308-.574 4.04-.238 8.111-.38 12.14-.746 1.372-.125 2.718-.422 4.086-.565 1.224-.127 2.462-.152 3.683-.295l1.238-1.035c-2.908.414-5.817.86-8.742 1.139-4.107.391-8.246.566-12.364.816-3.485.212-7.734.254-11.11.713-.855-.694-1.697-1.43-2.584-2.082l29.2-3.186c3.79-.421 7.593-.998 11.392-1.302l-.992-.778q-12.31 1.597-24.651 2.92c-5.167.587-10.34 1.3-15.519 1.76q-1.323-1.004-2.584-2.084c5.48-.524 11.022-1.564 16.457-2.441 7.417-1.197 14.926-2.355 22.283-3.878l-.856-.719q-12.864 2.517-25.81 4.574c-4.173.675-8.536 1.079-12.649 2.024-.804-.613-1.652-1.175-2.447-1.798 8.298-1.808 16.624-3.451 24.904-5.346q4.05-.934 8.085-1.924c.867-.211 2.136-.7 2.995-.712l-.115-.135.425-.044.041-.06c-.277-.217-.558-.508-.933-.457-2.63.357-5.594 1.36-8.24 1.996q-9.146 2.132-18.334 4.077c-3.012.649-6.552 1.655-9.578 1.96-.558-.514-1.112-1.017-1.61-1.59q12.191-3.317 24.277-7.003c2.838-.861 5.65-1.855 8.502-2.659l.09-.159c-.26-.25-.442-.297-.78-.392-.992.145-1.938.612-2.903.892q-4.445 1.275-8.868 2.62l-13.642 4.082c-2.374.704-4.877 1.261-7.172 2.182-.471-.551-.937-1.109-1.418-1.65 7.394-2.366 14.855-5.516 22.12-8.282 1.052-.4 6.157-2.129 6.615-2.544-.209-.285-.565-.366-.885-.507-2.773 1.016-5.514 2.19-8.322 3.101-.305-.492-.755-1.33-1.384-1.433-.326-.053-.53.055-.792.226-.422.565-.07 2.258-.339 2.451-.624.45-2.55.914-3.352 1.208-4.695 1.724-9.51 3.336-14.132 5.23l-1.236-1.895c3.187-.653 6.222-2.323 9.189-3.631l15.928-7.11c-.056-.175-.025-.252-.214-.326-.425-.166-1.073-.06-1.494.09-1.238.44-2.458 1.127-3.657 1.677l-7.689 3.513c-4.095 1.866-8.393 3.478-12.405 5.497-.494-.383-1.01-.751-1.447-1.199 7.354-3.572 14.374-7.776 21.681-11.436l-1.165-.414q-7.836 4.18-15.625 8.449c-1.518.83-3.962 1.827-5.216 2.801.014.079.033.156.044.235.01.072.013.145.02.217-.777-.094-1.707-.586-2.363-1.007 1.612-.811 3.121-1.856 4.644-2.822q4.173-2.63 8.3-5.334c2.057-1.347 4.104-2.79 6.273-3.95-.44-.114-.89-.213-1.324-.35-4.034 2.754-8.194 5.333-12.311 7.962-2.14 1.366-4.358 2.682-6.385 4.212-.557-.235-1.145-.446-1.665-.755 5.23-4.323 10.835-8.19 16.069-12.512-.343-.093-.689-.178-1.023-.297l-16.004 12.531-1.754-.625c4.834-3.756 9.057-8.635 13.848-12.548-.432-.069-.866-.131-1.296-.216-2.394 2.384-4.977 4.57-7.454 6.866-2.04 1.89-3.976 3.893-6.029 5.767l-1.472.026c-1.666 1.822-9.004 10.009-10.76 10.337l-.19-.116c.141-.365.447-.655.721-.927 1.14-1.131 2.405-2.13 3.59-3.212 1.618-1.478 3.186-3.077 4.72-4.643 3.44-3.512 6.658-7.245 9.904-10.934.841-.956 2.67-2.693 3.186-3.731-.276-.171-.37-.144-.688-.156-1.307.695-4.312 4.566-5.5 5.906q-5.442 6.192-11.176 12.114c-1.487 1.549-3.019 3.389-4.684 4.732-.237.19-.355.208-.642.15-.069-.252-.085-.142.054-.387.71-1.247 3.433-3.665 4.56-4.958 1.682-1.93 13.563-16.709 13.792-17.84-.168-.27-.059-.177-.306-.304l-.365.086.01.152-.152-.058c-1.485 1.252-2.938 3.828-4.153 5.457-1.422 1.908-12.553 16.523-13.951 17.204l-.204-.07c-.071-.281-.099-.167.028-.386.482-.834 2.527-3.042 3.306-4.113 1.391-1.912 11.805-17.446 11.74-18.175a5.3 5.3 0 0 0-1.005-.062c-.698.628-2.04 3.302-2.648 4.279-1.602 2.573-10.664 17.287-11.922 17.973-.316-.14-.388-.131-.548-.43.87-1.023 1.651-1.966 2.378-3.106 1.296-2.032 9.893-17.259 9.746-18.323-.026-.185-.155-.202-.298-.293-.233.005-.3-.047-.476.124-.671.648-1.782 3.468-2.276 4.453-2.326 4.642-4.727 9.337-7.34 13.822-.52.89-1.04 2.034-1.706 2.813-.191.224-.316.258-.586.347l-.391-.132c.066-.367 1.716-2.647 2.061-3.327q3.467-6.878 6.281-14.049c.478-1.212 1.161-2.488 1.46-3.75-.264-.163-.377-.114-.681-.111-.292.183-.437.372-.588.675-.616 1.235-.936 2.649-1.477 3.925q-2.533 6.151-5.28 12.21c-.477 1.043-1.274 3.038-1.909 3.9-.185.253-.35.277-.634.381l-.14-.084c-.033-.848 1.284-2.68 1.658-3.601.787-1.94 6.102-16.39 5.94-16.951-.019-.065-.072-.114-.108-.172-.344.005-.578.008-.893.174-.834 1.537-1.467 4.382-2.03 6.148q-1.618 5.066-3.41 10.074c-.46 1.304-.804 2.897-1.654 4l.096-.098-.037.193-.406-.18c.04-1.042 1.005-3.036 1.341-4.163.409-1.367 4.163-15.538 4.143-15.62-.015-.058-.063-.1-.094-.15-.379-.006-.547-.002-.887.193-.529.702-2.842 11.404-3.27 12.983-.321 1.394-1.192 5.75-2.065 6.603l-.168.015c-.18-.69.831-3.84 1.03-4.828.292-1.458 2.6-14.343 2.383-14.604-.433.06-.62.015-.928.339-.325 1.625-.53 3.29-.79 4.928-.418 2.633-.912 5.26-1.32 7.896-.286 1.848-.439 4.367-.981 6.086l-.258.09-.143-.091c-.207-1.449.204-3.138.339-4.602.435-4.717.823-9.495 1.513-14.18-.365.07-.899.104-1.165.367-.288 1.574-.297 3.223-.436 4.817-.217 2.469-.52 4.947-.651 7.421-.086 1.627-.044 3.336-.26 4.946-.065.487-.125 1.003-.476 1.364l-.085-.041-.014-.169.04.063.01-.396-.233-.076.145-.068c-.032-3.886.008-7.784.044-11.67.017-1.93.182-3.95.03-5.871-.288.03-.498.039-.752.19-.897 1.551.249 17.777.182 17.882-.042.068-.114.111-.172.167l-.271.007c-.156-.221-.117-.1-.132-.338-.164-2.646-.603-5.308-.838-7.959-.233-2.639-.266-5.333-.574-7.958-.037-.318-.134-1.098-.368-1.335-.053-.054-.116-.096-.175-.144-.473.524-.48 1.4-.449 2.072.18 3.851.742 7.716 1.146 11.548.133 1.262-.016 2.551.208 3.799.03.173.03.324.016.498-.207.132-.203.185-.457.147-.436-1.284-.49-3.507-.711-4.93-.626-4.017-1.286-8.082-2.098-12.063-.275-.08-.503-.065-.754.103-.113.077-.14.123-.218.22.2 1.758.59 3.494.897 5.235.674 3.829 1.3 7.924 2.52 11.616l-.152.057c-.806.312-1.63.95-2.448 1.119-.925-1.146-1.613-2.72-2.323-4.018-2.076-3.793-4.133-7.656-5.939-11.586-.37.186-.749.363-1.104.573 2.312 4.224 4.56 8.507 7.102 12.598.406.654 2.038 2.395 1.898 3.013-.324.066-.448.04-.723-.155-1.506-1.069-8.212-12.126-9.964-14.775-.3.158-.612.309-.905.48 2.326 3.687 4.766 7.412 7.329 10.939.694.956 1.382 1.963 2.154 2.856.309.356.803.709 1.045 1.099.147.239.126.35.105.616l-.266.351c-.557-.186-11.068-13.484-12.372-15.048l-1.13.577c3.137 3.428 6.11 7.007 9.136 10.533 1.039 1.21 2.277 2.325 3.252 3.565.25.318.412.585.526.973l-.074.311-.206.087c-1.901-1.743-3.612-3.78-5.43-5.618-2.962-2.996-6.028-5.88-9.038-8.826l-.987.696c3.971 3.295 7.637 7.082 11.383 10.635.894.848 3.334 2.814 3.871 3.744l-.045.202c-.359.048-.632-.013-.931-.232-.628-.459-1.175-1.095-1.761-1.614-1.168-1.035-2.384-2.022-3.582-3.02q-5.34-4.374-10.787-8.614c-.359.184-.72.391-1.097.532 4.63 3.43 9.059 7.115 13.658 10.584.755.569 3.794 2.548 4.057 3.056l-.118.404c-.84-.131-16.707-10.995-19.68-12.633l-.937.574 9.568 6.005c2.433 1.555 4.829 3.167 7.343 4.592.772.438 3.256 1.54 3.562 2.105l-.101.215c-.388.044-.687-.084-1.033-.241-3.745-1.7-7.338-3.893-10.998-5.777l-6.424-3.281c-1.297-.663-2.731-1.309-3.922-2.148l-1.108.89c2.047.692 3.959 1.81 5.88 2.793 3.21 1.643 6.428 3.322 9.683 4.874 1.74.83 3.5 1.661 5.276 2.406.772.324 1.7.476 2.38.96l.112.276-.122.126c-2.218-.173-10.15-3.868-12.823-4.912-3.958-1.547-8.726-2.997-12.472-4.857l-1.193.714c4.379 1.703 8.798 3.283 13.186 4.958 4.14 1.58 8.064 3.27 12.406 4.26.37.084.706.055.894.401l-.117.183c-.679.132-1.386-.056-2.048-.212-3.875-.913-7.65-2.197-11.478-3.28-4.975-1.408-9.991-2.646-14.973-4.023-.428.223-.855.451-1.295.65 5.43 1.147 10.892 2.748 16.236 4.262 3.059.868 6.07 1.858 9.213 2.412 1.366.241 3.154.229 4.385.895l-.073.103c-1.806.157-3.695-.282-5.478-.561-4.123-.645-8.192-1.484-12.296-2.212-4.81-.853-9.665-1.455-14.448-2.453-.38.215-.758.434-1.147.634 4.018.71 8.034 1.474 12.062 2.123 2.149.346 4.356.537 6.483.994l-1.14 1.242c-6.576-.273-13.123-.978-19.69-1.375l-1.045.757q6.796.426 13.584.959c2.189.154 4.533.469 6.72.384l-1.392 1.637q-6.936.122-13.873.09c-2.469-.009-4.986.055-7.45-.1-.283.302-.562.613-.858.905 7.189.035 14.395.161 21.581.01l-1.52 1.739-.17.034c-1.675.321-3.471.358-5.173.486q-5.677.435-11.367.602c-1.238.037-3.833-.116-4.87.076-.536.1-.868.349-1.227.742l.072.144c1.138.206 2.557-.017 3.729-.04q5.77-.17 11.531-.502c2.12-.117 4.283-.155 6.389-.397-.587.706-1.255 1.333-1.87 2.013-7.314 1.533-14.999 1.991-22.441 2.532l-.703.802c7.27-.299 14.705-1.03 21.9-2.147-.966.852-1.835 1.537-2.363 2.748q-6.625 1.136-13.283 2.055c-2.03.281-6.849.502-8.405 1.151l-.18.32c2.532.653 17.604-1.913 20.896-2.632-.826 1.004-2.076 2.04-2.56 3.243a235 235 0 0 1-15.305 2.953c-1.886.302-3.796.461-5.676.78l-.415 1.829c1.325 2.663 3.589 3.896 6.21 5.02q-.099.972-.235 1.939c1.401.858 1.916 2.275 3.185 3.204 2.376-.771 4.685-2.259 6.72-3.704.712-.506 1.774-1.733 2.563-1.957.993-.282 2.23-2.971 2.99-3.84.467-.534 1.257-.896 1.612-1.507.173-.3.254-.678.343-1.01.22-.818 1.314-2.087 1.867-2.754.386-.466.926-.806 1.332-1.264 1.506-1.695 5.472-7.001 7.027-7.87l.171-.091c.185-.105.364-.22.549-.326-.062-.441-.43-.543-.155-.946 1.524-2.234 3.569-3.947 4.74-6.502.95 1.09 2.098 2.067 2.988 3.195 1.784 2.26 3.115 4.875 4.725 7.254.647.957 1.587 1.762 2.095 2.798.625 1.274.874 2.768 1.422 4.093 2.012-2.636 4.977-8.255 7.664-9.966 1.229-.782 2.79-1.146 4.219-1.336.782-.104 1.42-.137 2.192.07l9.95-11.736c2.363-2.833 4.559-5.905 7.358-8.328 2.415.798 5.69 1.799 7.74 3.315 1.245.92 2.162 2.42 3.072 3.657 1.98 2.692 4.554 4.527 7.162 6.56 1.956 1.523 3.835 3.131 5.76 4.692 1.838 1.492 3.746 2.898 5.375 4.627 2.506 2.66 3.762 5.936 6.595 8.415 4.74 4.148 10.278 6.865 15.628 10.084l15.2-21.346q1.838-2.52 3.728-5c.658-.855 1.57-1.774 2.045-2.734l.063-.058zm-59.014.566c0 .02-.005.041.003.06.2.407 1.546.808 1.998.963l.074.043-.075-.043c-.237-.326-.612-.65-.95-.875-.405-.27-.608-.225-1.05-.148m8.735 10.431c-.451-.06-.917-.111-1.36-.215-.406-.095-.698-.23-.922-.576l.118-.282c.22-.1.423-.185.616-.332.158-.12.313-.24.475-.355.134.064.267.097.411.136l.178-.175.008-.091-.105-.082-.492.212c.218-.372.322-.674.772-.804.282-.081.598-.102.888-.14l.458-.061c-.881-.816-1.66-1.526-2.948-1.507-.701.011-1.884.574-2.483.396l-.276-.291c.026-.276.034-.294.264-.475.253-.199.56-.342.843-.493-.053-.166-.002-.11-.15-.187-.978-.506-1.935-.713-2.998-.937-.576-.121-1.405-.63-1.727-1.131l-.005-.276c.427-.22.885.061 1.253-.166l-.111-.237c-.23-.059-.594-.108-.796-.222-.771-.434-1.479-1.718-2.183-2.328-.315-.272-.722-.48-1.081-.688 1.026.126 2.039.29 3.057.473-1.391-1.193-4.217-2.426-4.796-4.224l.134-.091.665.173c.058-.224-.023-.311-.14-.502-.315-.516-.775-.992-1.17-1.45-1.428-1.654-2.68-2.33-4.667-3.22-1.08-.484-2.143-.958-3.306-1.203-.485-.102-.784-.177-1.231.083-.148.303-.159.414-.033.734.252.645.88 1.317.564 2.056-.149.347-.49.62-.765.866-.096.322-.073.32.067.63.375.303.764.51 1.192.732-.217.144-.553.11-.808.06-.25-.05-.502-.16-.738-.252l-.17.048.034.207c.609.436 1.494.37 1.96.968l-.005.202c-.655.414-1.832.204-2.233.93.128.226.278.34.481.5l-1.557 1.916c.342.345.835.784.875 1.3.016.204-.096.25-.222.39-.728.257-1.588.2-2.362.271.56.327 1.135.637 1.654 1.025-.67.182-1.336.355-2.017.495.746.108 1.711.152 2.267.716l.068.307-.121.152c-1.15.019-2.155.176-3.278.377-.65.117-1.18.47-1.734.808l-.065.115.18-.028a4 4 0 0 1 .577-.04c.058.466-.238.892-.21 1.399-.279.162-.47.206-.796.144-.626-.119-1.225-.493-1.851-.663l.113.14c.497.615 1.821 1.623 2.06 2.291-.487.467-1.982.718-2.652 1.004 1.021.007 2.046-.005 3.066.026-.849.345-1.7.685-2.594.895-.702.166-1.798.191-2.43.477-.146.066-.176.115-.27.219-.098.406.036.69.248 1.027.527.839 1.524 1.41 1.99 2.199.255.432.408 1.025.575 1.502-3.167-1.86-5.388-4.821-8.523-6.62-1.351.201-3.64.465-4.588 1.543.446.409 1.646.186 1.96.668l-.235.487c.216.258.636.373.708.68-.584.223-1.29.184-1.91.215.942.506 2.272 1.094 2.65 2.184-.043.169-.016.267-.187.356-.947.495-2.099-.321-3.013-.007l.017.18c1.093.584 2.923.45 3.726 1.273l.159.159c.57.576 1.067 1.233 1.364 1.991l-.035.286c-.304.152-.401.232-.75.13-.258-.076-.595-.372-.803-.534-1.767.379-3.019-.126-4.772-.397.423.266.86.558 1.337.718 1.457.487 5.036.338 5.967 1.03l-.029.16-.371.113c-.012.32.058.322.24.57.371.162 1.218.21 1.369.498-1.147 1.328-3.923 1.268-5.558 1.502-.45-.203-.934-.483-1.43-.525-.21.15-.255.234-.382.452l-.325.14a5 5 0 0 1-.266-.46c-.275.034-.32.21-.477.234-.409.063-1.002-.272-1.513-.21.324.757 2.394 1.082 2.612 1.844.054.188.002.508-.019.706.226.212.304.192.327.515-1.17.638-3.432-.302-4.257.124.59.819 3.384.656 4.24 1.64-.178.218-.493.205-.767.231-.343.032-.697.027-1.04.033 0 .322-.045.54-.283.78-.221.224-.48.368-.8.35-1.026-.06-2.19-1.523-2.91-2.207-.453-1.912-1.961-2.388-2.901-3.921-.544-.888-1.328-2.119-1.67-3.087-.316-.894-.36-1.695-.88-2.543-.658-1.075-1.756-1.892-2.494-3.005-.441-.136-.838-.215-1.161-.561.006-.278-.038-.157.087-.342.234-.348.353-.543.372-.963-.137-.547-.609-.92-1.022-1.281-.877-.143-2.075-.172-2.627-.977-.15-.22-.227-.284-.198-.553.444-.088 1.11.23 1.464.069-.086-.29-.22-.495-.495-.636-.341-.175-.746-.291-1.112-.408-.153-.36-.24-.787-.633-.953-.51-.217-1.342-.19-1.645-.735-.058-.105-.07-.204-.092-.317.123-.187.085-.211.32-.267.627-.15 1.286.184 1.903-.008-.214-.608-1.338-1.277-1.864-1.655l-1.402 1.335c-.081.937-.232 1.343-.942 1.971-.469.415-.996.753-1.433 1.203.406.44.7.885 1.325.977q-.063.095-.13.188c-.504.696-1.308 1.102-1.818 1.821l.086.082.207-.05c.305-.068.726-.054.988.135.03.022.053.052.08.078-.287 1.022-3.971 1.864-3.53 4.017.465-.026 1.049-.165 1.482.008l.053.15c-.296.272-.541.048-.75.383.325.548 1.54.689 2.123.9-1.259.101-3.488.303-4.628.801-.564.246-.904 1.032-1.489 1.125l.033.075.153.004c1.04.052 2.41.285 3.157 1.099.033.035.058.078.087.117l-.043.224c-.24.097-.443.134-.7.164-.094.18-.16.334-.227.523-.663.338-1.478.089-2.228.36-.853.31-2.246.316-2.903.969l.069.142c.193-.023.34-.084.517.004 1.348.672 2.724.335 4.065 1.212-.51.142-1.008.287-1.506.465-1.389.494-2.915.76-4.359 1.066.63.199 1.408.348 1.883.818l.084.294c.954.461 1.805.75 2.674 1.381-1.23.111-2.35-.295-3.558-.467-.818-.117-1.657-.117-2.483-.108l-.132-.107.132.107.163.056c1.377.464 4.229.738 5.26 1.773l-.087.158c-.967.084-2.234.061-3.131.4-.744.28-1.416.721-2.17.99-1.55-.331-2.47.035-3.921.566.982.142 3.346.313 3.989 1.062.026.03.043.067.065.1-.133.302-.296.363-.597.469-2.737.957-5.882-.102-8.618 1.028l.162.027c1.574.247 4.92-.072 6.033.99l.063.224c-.232.271-.525.392-.838.547l-.04.162c.496.472 3.665.886 4.455.9l.096.131c-.687.825-4.808 1.549-6.058 1.691.657.957 3.319 1.556 4.454 1.767 1.223.227 2.473.255 3.695.484-1.952.426-3.818.63-5.816.625.448.157.914.338 1.381.429.68.132 1.968.032 2.503.382l-.296.355c.188.324.401.667.713.884-.343.332-1.097.39-1.575.487.8.152 1.679-.018 2.493 0 .98.02 3.035.27 3.778.91l.043.231c-.22.3-.363.389-.687.546-.513.03-.93-.312-1.42-.16.124.197.203.248.392.375-.17.196-.064.14-.356.165-.634.056-1.264-.093-1.903-.059.625.227 1.574.692 2.222.727.783.042 1.675-.31 2.431-.147-.153.74-1.904 1.774-2.575 2.218a6 6 0 0 1-1.45.712q-.324.11-.65.213c.91.249 5.17 1.004 5.498 1.412l-.09.163c-.29.012-.574.027-.863.058l-.066.1c-.58.806-1.834.873-2.754.992q-.172.022-.344.041c1.352 1.01 2.668 1.082 4.128 1.754.125.057.128.034.142.175.03.281-.11.564-.205.823.291.807 1.01 1.452 1.385 2.253-.508-.38-.94-.685-1.552-.888l-.059.055c.524.39 1.163.772 1.546 1.305l-.044.194c-.422.111-.696.032-1.111-.078l-.081.038c.375.977 3.609 3.342 2.953 4.514-.036.064-.097.11-.146.166.241.112.479.184.734.257l.091.196c-.234.2-.456.151-.758.131-.965-.064-2.505-.938-3.208-1.589-.055-.05-.093-.115-.14-.173q.321-.046.643-.085c-.586-.307-1.172-.604-1.686-1.025-.865-.71-1.503-1.784-2.566-2.17-.311-.114-.478-.18-.592-.508-.037-.106-.088-.332-.116-.447-.614-.492-1.595-.156-2.164-.571-.015-.5.139-.945.276-1.418-.497-.28-1.104-.698-1.665-.806-.895-.171-2.698.542-3.119-.52.66-.59 2.106.163 2.628-.494-.231-.453-3.167-2.979-3.66-3.231-1.106.26-3.31.629-4.29-.06-.175-.123-.141-.183-.177-.374.374-.552 1.33-.778 1.901-1.121-1.387-.167-2.451-.231-3.382-1.392a10 10 0 0 1-.474-.66c.563-.224 1.12-.44 1.656-.724-1.237-.42-1.871-1.02-2.873-1.784l-1.448.046-.14-.11c-.704-.545-1.758-.726-2.35-1.266l.077-.164c1.294-.332 3.002-.065 4.287.254.468.117.93.304 1.413.332l.054.084-.054-.084c-1.314-1.216-3.534-1.113-5.047-1.939l.144-.22c.786-.276 1.714-.105 2.534-.047-.509-.707-1.993-1.986-2.157-2.513.333-.267 1.185-.215 1.643-.3l-.03-.143c-.48-.514-1.112-.689-1.685-1.072-.325-.217-.364-.39-.431-.758-.203-1.114-.765-.43-1.26-1.202.191-.219.308-.356.38-.64-.11-.428-.475-.729-.776-1.037l-1.36-.36c.377-.34.714-.724 1.059-1.095-.5-.203-1.018-.363-1.528-.537-.53-.75-1.529-1.287-2.241-1.91l-.33.175c-1.083-.865-1.322-2.54-2.217-3.575-.311-.36-.623-.5-1.1-.539-.769 1.056-1.268 2.626-1.74 3.85-2.83 7.333-4.488 14.926-5.74 22.663.466.197 1.216.415 1.529.816-.382.329-1.053.304-1.546.34-.102.963-.537 2.56-.218 3.44.335.418.7.532 1.216.598.513.066.997.182 1.497.305-.953.184-1.917.295-2.88.415l-.024 5.632c17.85.214 35.717-.016 53.569.022 6.434.013 12.867-.085 19.3.087-.535 1-1.206 1.956-1.923 2.833-1.882.144-3.799.119-5.687.18-5.966.196-11.89.2-17.857.23l-47.219.076c.047 1.198.222 2.4.355 3.592 1.114.026 2.216-.035 3.328-.053.526-.009 1.789-.087 2.161.274-.02.028-.038.059-.062.084-.828.851-4.125.726-5.274.71.166 1.955.564 3.938.852 5.882 1.58-.213 2.94-.005 4.509.017l9.93.143c1.329.023 2.586-.231 3.928-.096 1.079.108 3.745.715 4.41 1.535l-.083.185c-1.196.269-2.681-.496-3.929-.554-1.373-.063-2.736.098-4.106.1-1.112.003-2.23-.133-3.346-.15-1.903-.03-3.803.054-5.705.056-1.834.002-3.64-.251-5.475-.199l.45 1.758c2.087-.233 4.373-.018 6.487-.045 3.507-.046 7.014-.147 10.521-.066.962.023 1.906.243 2.865.252 1.79.018 3.583-.077 5.375-.032.651.017 1.74-.017 2.214.476l-.037.244c-.52.359-1.382.32-1.997.33-3.089.052-6.163-.33-9.242-.375-5.301-.077-10.62.047-15.924.062.1.519.233 1.033.352 1.548l.174-.017c2.603-.344 5.439-.006 8.073-.017 3.856-.017 8.217-.42 12.018-.017.523.056 1.46.214 1.802.63-.517.383-9.333.042-10.572.049-1.047.005-2.096.137-3.141.102q-4.118-.1-8.226-.41c.19.765.402 1.525.604 2.286 2.167.07 6.697-.97 8.44.143l-.047.163c-.722.303-6.32.574-7.263.494-.313-.026-.646-.125-.948-.206q.76 2.451 1.709 4.836c2.01-.039 4.015.059 6.024-.005 1.398-.044 2.907-.302 4.286-.212.393.025.688.107 1.012.337l-.001.192c-1.529.96-8.555.491-10.73.87-.041.089-.076.143-.077.252 0 .326.124.578.313.832 2.534.225 5.212.036 7.76.02 1.489-.01 2.96.163 4.444.18 1.449.016 2.904-.119 4.353-.156.592-.016 1.273.031 1.724.458l-.022.24c-.325.25-.622.353-1.032.397-.493.053-.957-.067-1.444-.066-1.181 0-2.366.202-3.548.214-.992.01-1.955-.207-2.94-.231-2.918-.07-5.92-.054-8.835.078.61 1.44 1.444 4.055 2.491 5.137.088-.048.18-.09.264-.142.866-.537 13.262-.103 15.08.082.373.038.833.071 1.087.38-.193.311-.407.417-.768.484-1.318.248-2.922-.011-4.268-.056-1.513-.05-9.82-.297-10.471-.024-.305.128-.388.236-.511.533.167.26.252.358.588.387 2.645.228 5.376-.004 8.033.066 1.267.034 2.528.191 3.794.228 1.614.048 3.23-.044 4.846.02 1.141.045 2.28.213 3.422.232 1.813.03 3.99-.35 5.737.17l.076.155c-.544.39-1.57.57-2.25.588-2.614.071-5.282-.227-7.899-.3-3.178-.088-6.361-.02-9.54-.082-1.904-.036-3.864-.225-5.761-.082l-.198.016c.39.75.814 1.428 1.306 2.115a6 6 0 0 1 .914-.194c1.022-.13 2.11 0 3.142-.01l7.48-.096c2.757-.014 5.56-.302 8.306-.23.442.012 1.058.003 1.416.273-2.53 1.525-16.624.485-20.735.74l-.23.015q.441.67.895 1.33c1.792.092 3.57.329 5.368.358 1.595.026 9.582-.691 10.427-.037l-.123.19c-1.832.801-4.352.332-6.321.374-1.307.028-2.606.248-3.91.29-1.556.048-3.153-.086-4.706-.193.37.472.663.989.97 1.504l72.732-.035c.814-2.104.02-5.123-.268-7.33-.444-3.39-1.537-9.044-2.942-12.033-.648-1.377-1.652-2.811-2.604-3.996-.99-1.234-2.233-2.3-3.303-3.47-1.885-2.063-3.684-4.21-5.541-6.299-1.17-1.316-2.606-2.583-3.123-4.316-.234-.789-.205-1.29.206-2l.075-.126-.075-.113c-1.129.238-2.49.089-3.652.148-5.522.277-11.034.199-16.558.277-4.35.061-8.707.283-13.06.345-3.231.045-6.458-.044-9.687-.052-2.222-.005-4.445.139-6.668.048-.53-.022-1.209-.063-1.673-.335-.246-.144-.24-.188-.302-.449l.221-.189c2.36-.52 8.925-.154 11.751-.169l26.748-.288c1.772-.026 12.016-.531 12.956-.253.114.16.143.223.158.428q.005.083.005.167c.276-.071.347-.12.49-.368.45-.778 1.006-1.414 1.495-2.158 1.298-1.977 2.437-3.918 3.969-5.739 1.722-2.047 5.082-5.083 6.183-7.32.673-1.368.872-3.046 1.066-4.544.498-3.848-1.487-4.058-1.64-6.881-.059-1.084.257-2.165.5-3.213-4.215-.049-8.996 1.407-12.954-.415-2.248-1.035-4.343-2.598-6.68-3.413-2.184-.761-4.437-.476-6.5-1.755-.65-.402-1.605-1.09-1.703-1.917-.04-.341.07-.598.272-.864.69-.905 2.064-.66 3.045-.781.751-.094 1.478-.328 2.233-.419 2.857-.343 3.328.418 5.402 2.006 1.16.888 2.802 1.339 4.177 1.786 1.316.428 2.752.985 4.127 1.131 1.719.184 4.645-.788 6.35-1.23.925-.24 1.87-.567 2.818-.685 1.564-.195 2.93.611 4.48.424l.179-.241c-.104-.692-1.546-.833-2-1.448-.234-.317-.171-.609-.107-.967.05-.274.083-.483.049-.764-.166-.226-.466-.57-.496-.854-.084-.795 1.977-4.847 2.538-5.743.305-.487.782-1.323 1.358-1.457.672.138 1.091.214 1.705-.127l.387-.213.197-.11c.371-.02.57.079.89.24l.149.077.204.102.126.065c.274-.102.552-.21.834-.289.3-.082.61-.103.876.08.399.275.744.941.993 1.357 1.918 3.198.39 2.951.734 5.893l.023.178.293.087c.596.172 1.155.292 1.608.749.411.414.625.916.603 1.502-.045 1.195-.89 2.077-1.724 2.824 2.055 1.459 4.726 1.834 7.064 2.658 1.465.516 2.885 1.316 4.427 1.574 1.114.187 2.318.158 3.447.229 2.017.127 4.03.3 6.047.403 1.313-2.374 1.957-.827 3.78-1.494.548-.2.78-.24 1.327-.002.274.254.301.506.373.855l.029.147c.761.547 2.147.205 3.04.191.55-.008 1.271.014 1.656.474.224.267.274.479.26.815-.393.962-2.945 3.013-3.931 3.54-2.081 1.112-3.525-.091-5.584-.122-2.275-.034-4.603.537-6.89.626-1.914.074-3.75-.356-5.637-.582-3.06-.368-5.11-.327-8.185-1.26-.981 2.145-2.58 4.184-3.123 6.504a4.3 4.3 0 0 0-.004 2.056c.286 1.165.953 2.284 1.477 3.358.881 1.807 1.746 3.688 2.26 5.638.6 2.278.469 4.656.237 6.979-.055.546-.416 2.01-.154 2.427.266-.173.504-.285.823-.3 1.442-.066 2.899.006 4.344-.016q6.862-.105 13.726-.036c3.653.05 7.3.194 10.955.127l28.837-.328c8.216-.114 16.49-.5 24.681.256.243-.303.214-.74.243-1.113-11.084.14-22.181.037-33.268.076h-30.265c-6.629-.004-13.263.058-19.89-.032.18-1.034.309-2.078.456-3.117 3.328-.145 6.696-.048 10.029-.049l18.303.001 54.689-.019c.25-10.808-1.423-21.172-4.633-31.482-1.159-.021-8.005-.203-8.62-.8-.054-.22-.077-.132.001-.275.887-.662 3.615-.318 4.805-.4 1.046-.072 2.096-.21 3.145-.291-2.678-7.133-8.216-17.977-13.472-23.518-.368.17-.7.353-1.041.573v.16c.434.172.848.354 1.261.572.177.094.106.023.178.255-.541.573-1.423.711-2.163.891.54.124 1.14.187 1.663.347.313.097.493.178.636.471l-.12.221c-.789.381-1.915.294-2.782.341.84.341 1.706.658 2.492 1.111-.424.229-.898-.063-1.284.228.694.824 1.767.42 2.415 1.04.192.183.137.088.137.374-.731.783-4.346 1.803-5.586 2.318 1.673-.004 3.346.287 5 .508-1.532.55-3.415.925-5.039 1.008.697.108 2.903.736 3.468.622.036-.007.071-.024.106-.036l-.03.199c.159.038.09.014.21.065q-.278-.007-.556-.011c-.601-.012-1.06.141-1.62.33.807.19 3.31.56 3.809.955-.208.246-1.47.358-1.854.447-1.291.298-2.568.825-3.817 1.268 2.62.579 5.168 1.076 7.865 1.144-1.243.508-2.494.92-3.773 1.325 2.768.13 5.778.115 8.36 1.189-.685.066-1.548-.14-2.197.114.926.584 2.323.387 3.17 1.136l-.007.109c-.339.023-.537-.032-.844-.154l-.104-.043-.114.349c-1.708.243-3.785-.063-5.518-.159-5.474-.303-11.038-.817-16.442.383 2.215.29 4.433.472 6.658.649 1.593.127 4.096.062 5.547.623-.172.216-.586.276-.858.316-.804.115-1.654.106-2.467.172-2.012.162-4.052.453-5.984 1.05 4.87.023 8.185-.58 12.985.859q-1.31.14-2.622.262c.983.123 1.91.316 2.903.34l-.065.089.242-.075.04.14c-.226.068-.269.085-.448.255.142.18.212.266.281.489-.354.106-.688.22-1.026.37.364.161.9.016 1.3 0-2.13.677-4.689.344-6.918.368-2.75.03-5.477.046-8.215.334 2.597.761 5.58.88 8.266 1.141-.81.082-6.586 1.093-6.915 1.344.943.479 5.388.44 6.887.708-.79.3-1.6.544-2.389.858q3.047.238 6.073.668c-1.19.29-2.409.455-3.583.807-1.56.468-3.037 1.108-4.622 1.51q2.566.331 5.144.565c1.525.136 3.1.194 4.599.516-1.681.692-3.476 1.01-5.168 1.664 1.825.254 3.619.629 5.435.93.995.166 2.028.218 2.999.496l-.01.15c-.51.168-1 .34-1.482.579l-.014.15c1.282.36 2.7.257 4.021.57l.222.054c-.46.168-.891.337-1.322.573.125.289 1.949.528 2.404.808l.044.26c-.252.283-.494.342-.86.393-.922.129-1.887-.049-2.818-.006-1.596.074-4.419.701-5.943 1.207l-.155.053c1.3.23 2.568.632 3.867.874 1.45.27 2.895.303 4.364.34-.693.425-1.409.727-2.16 1.033.646.154 1.274.39 1.903.603-.236.174-.46.347-.666.556-.784.801-1.3.913-2.371 1.135.751.11 1.5.08 2.25.163.297.033.482-.015.673.22-.056.41-.655.83-.905 1.2.195.69 1.316.776 1.863 1.143.208.139.236.159.284.407-.474.477-1.166.616-1.585 1.102.134.489.624.54.916.92.24.314.165.81.4 1.119.308.402 1.006.465 1.381.913.134.503.26 1.077.024 1.56-.2-.177-.155-.098-.25-.304-.2-.43-.362-.677-.714-1.003q-.053-.05-.108-.098c-3.662-.582-2.207-1.11-4.466-2.926-.686-.551-1.65-.755-2.376-1.27-.3-.212-.541-.465-.591-.84.298-.125.698.031 1.017.092l.039-.121c-1.232-1.296-1.508-.589-2.744-2.587-1.459-.477-2.842-.856-4.093-1.785.755.105 1.466.253 2.206-.003l-.02-.165c-.52-.29-1.414-.66-2.017-.583-.322.041-.15.072-.443-.054.023-.26-.002-.253.164-.484.292.01.555.042.829-.081a3.4 3.4 0 0 1-.406-.398c.214-.252.265-.268.582-.373.341.137.667.312 1.019.175.04-.118.057-.136.053-.28-.007-.215-.347-1.073-.52-1.168-.321-.176-.652.245-1.017-.186-.386-.455-.791-1.36-.68-1.942.232-.253.39-.43.524-.752.025-.723-.523-1.5-.902-2.097-.696-.089-2.188-.63-2.808-.408l-.192.078c-.368-.266-.262-.543-.49-.877-.349-.508-4.124-2.718-4.97-3.608l.055-.139.683.026.04-.061c-.432-.386-2.273-.567-2.919-.742-.793-.215-1.542-.519-2.29-.854l2.55.486-.22-.14c-1.726-1.142-7.357-2.31-7.808-2.733.1-.276.059-.133.121-.431a.96.96 0 0 0-.413-.353c-.599-.294-.976-.58-1.458-1.035l1.692-.062c-1.035-.318-2.038-.727-3.106-.931-2.34-.448-5.09-.499-7.274-1.492l-.035-.158c.768-.449 1.96-.076 2.73-.55l-.216-.005-.068-.065c-.68.25-1.736.213-2.475.28l-1.125-.989c1.801-.09 3.685-.124 5.477.083l-1.018-.278c-1.292-.344-2.34-1.242-3.602-1.591-1.195-.33-2.593.035-3.85-.16l-.179-.03c-.38-.598-.622-1.216-.877-1.874l-1.32-.553c1.824-.367 3.506-1.014 5.377-1.281a9.6 9.6 0 0 1-2.574-1.618c-1.22.013-4.933.35-5.835-.621-.27-.292-.49-.678-.473-1.082l.197-.147.168.022c1.135.143 2.947.014 3.894-.718l-.006-.187c-.586-.328-1.403-.376-2.067-.377-.265 0-.468.01-.724-.072q-.082-.3-.178-.596l-.236-.046c-.377.254-.79.562-1.27.527-.483-.035-.84-.302-1.166-.633-.561-.567-.653-.552-1.378-.787-.28-.091-.32-.052-.463-.327.432-.361 1.952-.364 2.56-.474.866-.156 1.68-.405 2.506-.701-1.898.088-4.553-.26-6.205-1.28-.353-.217-.552-.427-.64-.845.038-.283.175-.671.418-.855.266-.2.858.118 1.189.185l.027-.138a1.3 1.3 0 0 1-.39-.325l.119-.178c.65-.389 1.296-.31 2.018-.256l.047-.064c-.21-.17-.391-.296-.524-.534.59-.098 1.451.37 2.016.586-1.435-.96-2.36-.981-4.056-.921-.277.17-.544.374-.811.56M108.026 83.5l.133.064.06.186-.06-.186zm68.598 16.92-.053.183c.744.732 2.817.922 3.821 1.06l.317.148.165.04-.165-.04-.317-.147c-.245-.15-.148-.11-.388-.194-.871-.303-1.575-.812-2.406-1.157-.423-.176-.571-.042-.975.107m-51.392-66.99c-3.988.153-7.958.414-11.908 1.002C91.49 37.68 72.978 48.337 58.072 64.418q-.58.63-1.148 1.269-.568.64-1.125 1.289t-1.102 1.308-1.078 1.328-1.055 1.347-1.03 1.366-1.006 1.383-.981 1.402-.956 1.418-.93 1.435q-.46.723-.905 1.452-.446.73-.88 1.468-.432.738-.852 1.483t-.826 1.498-.8 1.512q-.392.76-.772 1.526-.379.767-.745 1.54-.365.774-.717 1.554-.352.779-.69 1.565t-.661 1.577q-.324.792-.634 1.59-.31.797-.605 1.6-.295.802-.576 1.61-.282.808-.548 1.62t-.519 1.63-.49 1.64q-.237.821-.46 1.647t-.431 1.656-.402 1.662-.371 1.67q-.179.837-.343 1.676-.163.84-.312 1.682-.49 2.981-.847 5.981c-.089.712-.283 1.55-.275 2.261.002.156.042.288.087.436.252.201.34.24.686.175.107-.021.228-.085.328-.133.268-1.437.287-2.953.48-4.41q.627-4.99 1.845-9.871c5.052-20.513 17.239-39.794 33.99-52.77 4.304-3.364 8.814-6.511 13.616-9.127 16.713-9.107 36.472-12.41 55.296-10.085 22.71 2.805 42.544 13.843 58.355 30.144l.89-.641c-4.026-4.028-8.062-7.938-12.583-11.422q-.779-.6-1.57-1.185-.791-.584-1.594-1.153-.803-.568-1.618-1.12-.814-.55-1.64-1.086-.825-.534-1.662-1.052-.836-.517-1.683-1.018-.847-.5-1.704-.983t-1.723-.949-1.743-.912-1.761-.877-1.779-.84-1.795-.805-1.811-.767-1.827-.73-1.842-.691-1.855-.655q-.93-.318-1.868-.616-.937-.299-1.88-.578-.944-.279-1.892-.539-.95-.26-1.903-.5t-1.912-.461-1.922-.422-1.93-.382q-.966-.181-1.937-.343-.97-.161-1.944-.303-.973-.141-1.949-.263-.976-.121-1.955-.223-.978-.101-1.958-.183t-1.962-.142q-.982-.062-1.965-.103t-1.966-.062-1.967-.022q-1.121.002-2.242.037m-26.443 8.822c-.33.099-.753.156-.962.448.49 2.195 1.27 4.378 1.93 6.53.943 3.076 1.727 6.448 3.24 9.293l.24.148c.133-.257.08-.34.02-.62-.317-1.458-.835-2.916-1.247-4.354-1.079-3.76-2.225-7.54-3.032-11.369zm-2.765.996c-.35.135-.685.178-.9.494.43 1.719 1.312 3.437 2.004 5.072 1.49 3.521 2.913 7.191 4.804 10.516l.187.136c.155-.293.113-.456.028-.766-.4-1.47-1.222-2.888-1.77-4.315l-4.171-11.082zM201.065 67.95l-.715.776c6.517 8.026 12.022 16.904 15.62 26.626.25.672.57 2.184 1.347 2.306l.541-.175c-.226-1.244-.878-2.634-1.327-3.82-2.965-7.834-6.994-14.217-11.756-21.028-.925-1.324-2.351-3.666-3.586-4.604-.039-.03-.082-.054-.124-.081m-26.719 4.479c-1.336.071-8.045.039-8.693.528.642.559 1.803.43 2.595.392 2.608-.079 5.253-.145 7.858.044.224-.344.444-.692.674-1.032-.802.013-1.638-.02-2.434.068m-4.833 3.999c.36.382.642.432 1.158.448.562.018 1.128-.014 1.69-.035-.9-.645-1.792-.495-2.848-.413m-54.704.605.121.1zm-6.9 6.28h.112zm17.299 6.663c-.794 1.335-1.454 2.736-2.242 4.072.118.201.25.352.41.522-.048.707-.006 1.436-.117 2.131.597-.02 1.195-.031 1.79-.09 1-.222 1.92-.634 2.86-1.031-1.294-1.46-2-3.817-2.701-5.604m35.161 1.612c.23.194.444.238.75.233.126-.002.156-.016.264-.044a1.13 1.13 0 0 0-.83-.243c-.064.01-.123.036-.184.054M97.925 97l.565.333.017.121c-.874.005-1.724-.119-2.6-.059l-.035.132.247.271c-1.035.03-2.164-.407-3.247-.466l-.115-.008q1.98.722 4 1.332c-.947-.003-1.896-.022-2.842-.004 2.177.613 4.721.69 6.763 1.573 2.67 1.153 5.013 3.188 7.8 4.089 1.55-.39 3.004-.298 4.584-.35 1.097-.037 2.197-.171 3.284-.311 1.41-.19 3.147-.653 4.537-.256.607-.701 1.593-1.588 1.749-2.523-.095-.32-.105-.401-.428-.563-2.002-1.001-8.772 1.922-11.594 1.841-1.882-.053-4.22-1.05-6-1.645-1.367-.456-3.547-1.265-4.428-2.427-.471-.623-.74-.965-1.557-1.048a8 8 0 0 0-.7-.032m28.83.392c-.357.084-.867.138-1.069.48-.412.7-.039 1.781-.12 2.565-1.204.665-1.786 1.28-2.37 2.523.894.943 2.093 2.386 3.512 2.407q.319.004.636-.037c1.161-.134 2.15-.333 2.902-1.324.437-.576.63-1.244.86-1.917-1.103-.301-2.717-.602-3.31-1.71-.416-.778-.618-2.031-.743-2.913-.195-.12-.094-.103-.298-.073m86.49.193.196.14.182-.068-.154-.17zm4.283 1.903a124 124 0 0 1 3.44 15.35c.144.915.792 7.926.933 8.174.343.124.643.102 1 .09-.044-6.502-1.354-13.276-3.009-19.543-.332-1.259-.618-2.86-1.343-3.95-.324-.158-.67-.122-1.02-.121m-92.293.823h.163zm7.83 1.757c-.664.632-.853 1.133-.857 2.058-.004.812.235 1.693.75 2.333l-.077-.198.224.188c.476-.264.65-.111 1.166.016 1.658.408 3.3.811 5 1.02 1.223.15 2.46.158 3.683.308 1.558.192 3.113.56 4.686.593 2.238.048 6.75-1.1 8.483-.6 1.699.491 2.748.796 4.385-.143.162-.093.27-.2.382-.348l-.008-.19c-.311-.17-.636-.18-.98-.215l-.089-.184c.71-.166 1.432-.32 2.118-.567-.844-.078-2.501.022-3.048-.621-.012-.219-.022-.436-.044-.654l-.221-.124c-.435.163-1.154.663-1.583.595a4 4 0 0 1-.38-.415c-.546.286-.903.949-1.4 1.348-1.952.188-9.888-.174-11.621-.724-1.134-.359-2.224-.903-3.338-1.321-1.505-.566-3.076-1.014-4.611-1.488-.833-.258-1.749-.607-2.62-.667m48.8.291.191.049zm-59.264 1.898.055.208.21-.092-.13-.15zm-1.436 1.145v.1l.085-.007.028-.107zm2.733.25.044.139.084-.05-.046-.14zm-3.276.41h.165zm2.028.358-.078.191.221-.034.133-.189zm7.34.074.091.038zm-9.849.153.04.1h.058l.013-.112zm5.135-.007.045.099.045-.032-.009-.112zm2.585-.008.112.157.103-.059-.028-.179zm3.218.908-.132.202.24-.034.081-.185zm-9.53.136-.09.17.168-.002.069-.204zm2.543.002-.164.138.226.027.198-.143zm2.302.004-.06.15.152-.02.101-.174zm2.458-.01.026.218.111-.064.017-.228zm1.2 1.122-.106.168.153-.022.086-.165zm-7.268.105.034.125.08-.033-.023-.153zm2.605.003.06.114.048-.016-.021-.149zm2.29-.028.005.19.147-.114-.004-.154zm4.387-.003.07.037zm-11.592.17.092.092-.061-.098zm1.401 1.105.06.127.085-.03v-.171zm2.27.003.056.124.078-.028-.04-.154zm2.301.036-.112.193.203-.058.13-.195zm2.46-.036.038.126.083-.035-.036-.144zm2.225-.037.12.049zm-10.268.95h.137zm2.115.232-.01.215.118-.145.05-.152zm7.13-.029.071.115.048-.006zm-4.731.134.047.148.068-.048-.04-.126zm2.258 0 .043.112.06.01.079-.132zm2.995.72.077.038zm-1.697.295-.033.125.103-.014.003-.124zm-6.897.124-.006.109h.09l-.001-.125zm2.222.028-.07.16.135-.022.1-.174zm2.291-.022-.094.17.155-.025.078-.177zm1.255 1.123-.099.184.17-.045.064-.17zm2.097-.053.13.045zm-6.764.162.04.132.067-.04-.03-.13zm2.266.004.04.134.083-.047-.038-.147zm-3.392 1.127.067.114.045-.017-.023-.153zm2.262-.005.044.141.085-.052-.045-.14zm2.347.008-.008.232.119-.11.027-.186zm2.216.001.044.194.067.004-.038-.215zm-3.39 1.133-.115.234.271-.063.038-.192zm-2.306.12.007.12.089.016.056-.153zm4.649.006-.022.121.101-.012v-.13zm2.1.104.07.121.078-.022-.016-.175zm-8.764.22.076.038zm3.262.949-.083.17.178-.029.072-.179zm4.542-.019-.096.172.17-.007.07-.199zm-6.824.114.103.093-.076-.099zm4.53-.01.048.135.078-.042.015-.17zm-1.081 1.164-.09.151.166-.012.096-.19zm2.313.013-.043.137.085.02.046-.138zm2.435-.034-.1.186.177-.025.063-.19zm-9.308.126-.04.259.144-.115.047-.226zm2.15-.023.05.124.079-.028-.037-.156zm1.214 1.006-.02.271.159-.103-.014-.211zm-2.361.254-.052.26.14-.153.049-.168zm4.666.002.02.13.065-.05.004-.151zm2.322.002-.05.275.153-.13.037-.201zm2.189.269-.039.106.091-.043.004-.08zm-10.42.87-.002.207.114-.086.053-.23zm2.34 0 .096.086-.066-.094zm2.317.103.034.133.083-.047-.029-.151zm2.373.112.014.192.135-.099.01-.187zm2.37.137.035.144.078-.055-.031-.144zm1.988.123.063.124.084-.03-.061-.147zm-12.885.624.071.106.042-.024-.033-.123zm2.599.016-.023.252.138-.11.03-.204zm2.412.115.043.146.076-.058-.034-.143zm2.344.132v.237l.124-.076.017-.225zm2.409.144-.065.157.156-.028.063-.16zm2.276.114-.15.251.241.03.133-.266zm-10.595.635-.124.228.275-.083.06-.203zm-2.391.226-.035.116.102-.027-.025-.093zm4.807.005.085.095.014-.002zm2.274.136-.004.121.096.006.067-.15zm2.429.136.051.214.11-.055.015-.241zm2.316.003-.073.172.173-.043.056-.153zm2.314.255.07.17.042.004.019-.206zm-99.545-.048c-.25 15.502 2.26 29.497 9.283 43.425 1.13 2.24 2.981 5.888 4.447 7.834.436.175.847.12 1.308.094-1.108-1.456-1.947-3.188-2.846-4.78q-.535-.953-1.046-1.92-.511-.965-.998-1.944-.487-.978-.95-1.968t-.9-1.992-.85-2.014-.8-2.034-.749-2.053-.698-2.071-.645-2.088-.594-2.103q-.284-1.056-.541-2.118t-.488-2.13-.435-2.142-.382-2.153q-.177-1.078-.328-2.16-.15-1.083-.273-2.169c-.337-2.956-.385-5.987-.4-8.962-.007-1.31.153-2.857-.03-4.147-.046-.332-.081-.366-.425-.415-.206-.029-.45.001-.66.01m84.335.673.044.101zm2.24-.023.1.088-.071-.094zm2.4.004-.003.226.12-.06.041-.265zm2.41.127-.09.178.173-.028.06-.177zm2.361.132-.072.168.162-.016.06-.174zm2.486.251-.057.153.152-.023.068-.162zm2.107-.02-.044.256.143-.129.043-.192zm2.114.488.102.1zm88.536-.076c.006 14.61-2.317 26.862-8.365 40.213q-1.55 3.37-3.36 6.607c-.433.792-2.104 3.398-2.233 3.916a7 7 0 0 0 1.284-.035c.604-.422 1.647-2.695 2.056-3.437 4.875-8.842 8.414-18.004 10.201-27.964.484-2.697 2.43-17.571 1.427-19.239a5.4 5.4 0 0 0-1.01-.061m-103.64.32.044.118.067-.032-.017-.14zm2.49.021-.023.23.127-.12.047-.19zm-4.665.08.083.036zm7.026.062.013.201.111-.093.055-.218zm2.383.013-.11.231.184.034.159-.259zm2.41.33.054.128.09-.039-.058-.146zm2.351.164-.024.152.093-.009.119-.192zm2.13.089.044.123.066-.036-.022-.137zm-15.318.394.125.188.084-.006-.055-.218zm2.566.095.047.112.06-.044-.025-.106zm2.288.029-.073.193.217-.041.105-.2zm-7.097.138h.118zm9.459.079.027.184.13-.095v-.183zm2.457.144.059.133.067-.039-.037-.139zm2.406.236.043.13.077-.031-.047-.134zm2.159.123-.05.154.2-.055.047-.152zm2.104.162-.014.12.098.006.024-.152zm-17.513.09.048.105.063.003-.019-.11zm4.897.243.016.186.136-.097-.008-.174zm-2.154.142.068.115.045-.017-.023-.153zm4.516-.008.025.154.132-.061-.076-.141zm2.353.156.012.208.111-.037.04-.276zm2.35.227.064.129.067-.04-.042-.125zm-11.11.088.099.038zm13.424.065-.023.118.099.005.025-.15zm-15.621.103.006.092.053-.007-.01-.089zm17.837-.012.05.148.08-.053-.052-.135zm-12.583.522-.092.168.168-.012.06-.181zm2.183.004.003.228.124-.074.03-.236zm-4.475.099.072.11.042-.023-.037-.12zm6.875.152.001.21.14-.054.02-.264zm-10.981.104.005.109.097-.009-.049-.101zm13.355.038-.07.16.142-.029.098-.173zm-11.107.053.091.036zm13.316.055-.154.136.22.043.186-.154zm2.321.006-.081.17.167-.022.07-.19zm2.153.13-.04.106.099-.012.033-.123zm-14.684.632-.074.166.143-.034.097-.161zm2.092-.027.029.227.114-.045-.002-.232zm2.41.023-.081.178.18-.014.06-.186zm-10.97.232-.086.182.15-.034.075-.17zm2.138-.003-.027.125.103-.002v-.132zm2.088-.023.04.099.056.001.006-.112zm9.112.123.047.126.066-.054-.034-.103zm2.299.17-.094.147.162-.028.1-.167zm2.25.112-.091.186.173-.022.065-.2zm2.123-.008-.027.12.101-.013.004-.127zm-12.405.504-.004.119.096.001.012-.143zm-2.216.137-.029.12.1.011.025-.159zm4.462-.039.023.164.105-.067-.054-.13zm-6.744.13.014.108.094-.003-.021-.107zm9.035.018-.02.108.09.006.007-.13zm-11.058.201.107.038zm13.397.03.061.101.042-.026-.018-.127zm-15.753.261.023.095.057-.009.022-.103zm18.075.124.101.096h.014zm2.257.006.024.23.115-.065-.005-.194zm2.147-.006-.026.233.124-.157.043-.145zm-14.7.375-.009.103.095-.011-.037-.097zm-2.14.133-.007.108.101-.022-.01-.104zm4.464-.018.053.136.068-.038-.043-.126zm-6.742.169-.056.158.132-.02.091-.171zm8.898-.008-.067.148.156-.022.102-.172zm2.362.003-.095.17.163-.046.091-.15zm-13.644.212.077.108.03-.005zm15.886.044-.069.167.14-.033.096-.165zm2.239.225.078.092-.052-.099zm2.257.105.049.147.068-.047-.043-.125zm-12.474.291-.078.157.14-.022.11-.184zm-2.14.085.071.106.041-.022-.02-.14zm-7.647.095.078.038zm5.465.032.013.207.067-.023-.016-.195zm6.605.015-.075.15.143.024.06-.192zm2.235.13-.107.184.18-.054.068-.154zm-11.061.278.005.141.045.026.041-.147zm13.344-.035.075.088zm2.378-.016.076.113zm1.92.096.077.038zm73.632.32q-26.152.52-52.307.257c-5.719-.059-11.497.207-17.206-.055-.758 3.346-.977 7.657-.598 11.06.24 2.16.719 4.247.707 6.433-.02 3.887-.713 7.73-.997 11.597-.071.974-.022 1.947-.052 2.922-.03.987-.139 1.95-.06 2.94.13 1.627.489 3.19.868 4.773l40.697-.034q9.039.07 18.079.043c3.524-.001 7.063.054 10.585-.06-1.215-.507-2.454-1.096-3.774-1.251-2.678-.315-5.473.127-8.16.132-3.537.005-7.11-.357-10.646-.454-1.278-.036-6.385.11-7.13-.078-.3-.077-.4-.14-.533-.415.68-.648 5.088-.394 6.145-.368l8.251.185c1.171.027 2.347.138 3.518.127 2.814-.024 5.635-.263 8.454-.285 2.084-.017 4.169.114 6.26.091q.59-1.032 1.19-2.059c-1.16.07-2.33.374-3.476.398-.936.02-1.88-.067-2.818-.071l-10.406-.093c-2.612-.003-5.241.077-7.855.105-.823.008-1.839.2-2.626.004-.125-.311-.068-.327.058-.644.525-.513 2.117-.407 2.845-.399 2.493.029 4.971.085 7.463-.073q6.576.255 13.155.062c1.369-.043 2.733-.283 4.103-.285.651-1.072 1.255-2.151 1.752-3.304-2.119.177-4.26.475-6.381.578-2.585.124-5.22-.057-7.806-.139-.595-.018-1.22.108-1.805.049a.96.96 0 0 1-.523-.203c-.162-.125-.168-.292-.226-.478l.13-.207c.945-.214 2.084-.038 3.055-.029 2.237.022 4.5.102 6.734.054 2.437-.053 4.75-.53 7.208-.377.619-1.212 1.258-2.418 1.795-3.67-3.689.49-7.495.285-11.213.344-.958.015-1.945.28-2.873.245-.292-.01-.578-.072-.816-.248-.193-.142-.186-.21-.269-.423.125-.218.158-.297.415-.381 1.075-.35 4.062-.077 5.317-.091 3.252-.038 6.516-.07 9.767-.172.241-.594.697-1.431.704-2.06-.056-.066-.284-.305-.305-.381.23-.358.619-.335.788-.622.75-1.273 1.134-3.639 1.676-5.12l-.23-.034c-1.717-.241-3.495-.049-5.223-.04-2.327.013-4.655-.107-6.98-.068-2.122.036-4.212.027-6.333-.007-.678-.01-1.373.124-2.045.072-.345-.027-.426-.063-.677-.279l-.04-.294c.505-.488 1.287-.38 1.95-.366 1.88.036 3.74-.071 5.618-.061 2.259.012 4.527.135 6.784.116 2.145-.017 5.58-.442 7.522-.011l.024.004q.525-2.32 1.115-4.623c-1.433.033-7.264.479-8.128-.173.676-.488 7.02-.566 8.327-.545l.366-1.72c-1.645.02-14.116.281-14.594.1-.094-.035-.164-.115-.246-.173-.024-.337-.013-.344.174-.627 1.418-.368 3.382-.074 4.85-.051 1.446.022 9.462.029 9.955-.23l.037-.196c-1.157-1.067-10.13.2-12.266-.484.2-.266.713-.33 1.038-.379 1.002-.147 2.096-.044 3.113-.072 2.663-.075 5.6-.45 8.225-.062.302-1.8.606-3.633.736-5.454-1.585.01-16.02.155-16.716-.461 1.083-.394 15.022-.5 16.762-.296l.147-1.288c-3.037-.141-6.068-.123-9.107-.132-1.671-.005-3.346-.086-5.016-.037m-83.739.208.017.104.086-.005.025-.112zm-4.122.15-.022.098.085-.027.042-.094zm1.996-.01.035.148.066-.062-.014-.147zm-4.287.082.088.038zm-5.307.009c-.409.145-.697.233-.984.569-.172.462-.147.758.069 1.198.403.826.98 1.65 1.562 2.359.91 1.11 1.979 2.11 2.96 3.155q2.221 2.393 4.368 4.85 1.23 1.372 2.39 2.804c.708.885 1.374 1.893 2.207 2.66-.118-.828.082-1.364.409-2.12-.748-.85-1.415-1.655-1.918-2.674-1.007-2.04-1.389-4.29-2.877-6.093-.963-1.166-2.246-2.021-3.419-2.958-.443-.355-.971-.636-.954-1.258 0-.051.043-.33.048-.374.055-.404.069-.63-.204-.964-.636-.782-2.717-1.061-3.657-1.154m23.025.914c-1.072.17-2.959.764-3.912.444-.06-.02-.21-.042-.284-.054-.22.327-.044.858.027 1.244.717 3.886 1.639 7.97 1.865 11.917.148 2.572.024 5.197.037 7.775.01 2.091.145 4.202.312 6.286.041.236-.008.337.202.48.496.338 1.41.419 2.005.542.216-3.779.704-7.567.795-11.347.06-2.446-.366-4.813-.552-7.24-.16-2.1-.127-4.256-.107-6.362.007-.75.383-3.312.05-3.722zm-8.364.259c-2.278.123-3.297.785-5.28 1.108-1.117.182-2.306-.074-3.439-.032 1.819 1.452 3.812 2.975 4.823 5.138.997 2.133 1.2 3.72 2.761 5.656 1.722 2.135 4.502.954 4.767 3.202.181 1.534-.2 2.996.1 4.563.139.941.285 1.872.31 2.825-.705 1.11-1.193 1.923-1.43 3.227.734-.081 1.462-.171 2.202-.172-.22-2.576-.462-5.181-.489-7.767-.016-1.547.179-3.123.066-4.663-.196-2.68-1.575-10.977-2.706-13.123-.558.007-1.13-.012-1.685.038m-1.32 14.494c-.186.488-.485 1.113-.267 1.63l.278.133c.215-.409.503-.822.445-1.298-.143-.202-.244-.335-.456-.465m1.99.195.103.04zm1.162.519-.028.157.194-.022-.006-.17zm.618.177h.153zm-1.847.403c-.111.787-.284 1.178.19 1.893.015-.566.164-1.425-.19-1.893m.494 1.002c-.152 1.337.26 4.409 1.007 5.49.026.037.059.068.088.103l.281-.088c.386-1.265-.598-3.923-1.177-5.168-.08-.172-.105-.2-.199-.337m1.934 9.935.033.124c.141.548.09 1.468.397 1.899.473.21.82.091 1.306-.029.276-.412.136-1.541.125-2.037-.621.031-1.24.075-1.861.043m.391 3.125c.015.591-.046 1.285.177 1.838l.147.017c.106-.155.222-.308.318-.469.2-.345.633-.901.586-1.306-.385-.202-.798-.106-1.228-.08m3.669 1.526c.179.563.278.988.843 1.267q.103.05.207.097c-.145-.462-.237-.924-.605-1.26zm-.32.654c-1.234 1.143-2.253 2.328-3.26 3.671.474.188.935.385 1.436.487.644.004.956.05 1.427-.436.397-.41.686-1.9.699-1.907.183-.12.451.102.441-.209-.012-.385-.167-1.138-.46-1.4-.139-.124-.15-.124-.284-.206m72.93 4.975c.898.296 1.852.516 2.773.168-.524-.435-1.762-.273-2.436-.21q-.17.016-.337.042M101.01 184.64c-1.951.5-3.486 1.543-4.52 3.286-1.569 2.647-1.637 5.984-.86 8.892.543 2.027 1.549 3.816 3.417 4.901 1.407.817 3.008.999 4.572.562 1.544-.431 2.877-1.444 3.892-2.663l.012-7.17c-.634-.02-1.269-.049-1.902-.056l-3.728.074c.007 1.206-.024 2.426.062 3.629.468.054 1.278.054 1.625.406.267.272.254.42.264.772-.234.438-.498.646-.973.791q-.129.039-.26.064-.133.025-.267.036t-.268.008-.268-.02-.264-.047q-.131-.03-.258-.075-.127-.043-.249-.1-.121-.057-.237-.127c-.928-.548-1.382-1.585-1.608-2.596-.343-1.536-.239-3.477.622-4.819.418-.65 1.061-1.218 1.84-1.362.688-.127 1.344.129 1.89.538.408.307.693.701.978 1.118.825-1.183 1.749-2.262 2.752-3.296-1.296-1.465-2.67-2.626-4.727-2.762-.511-.034-1.026-.007-1.537.016m-16.38.17-3.66.024-.036 17.426 3.842-.004c-.01-1.339-.296-5.154.163-6.196.302-.105.506-.11.824-.09.904.534 1.328 2.596 1.667 3.6.334.885.64 1.8 1.031 2.66l4.287.004c-.896-2.435-2.026-4.769-2.97-7.183 1.377-1.267 2.207-2.61 2.28-4.538.058-1.547-.335-3.233-1.453-4.362-1.619-1.631-3.875-1.366-5.975-1.341m26.626-.042c-.028 5.779-.116 11.588.02 17.363l10.374.014v-4.26l-6.677-.003-.019-1.664c.008-.321-.064-.462.177-.696 1.864-.154 3.802-.033 5.674-.013l.052-3.9-5.821.002.01-2.546 6.473-.035-.012-4.216c-3.41-.114-6.838-.047-10.25-.046m13.88.018c-.05 5.768-.189 11.574-.086 17.338l3.764.002c-.028-3.053-.131-6.127-.066-9.178q2.071 4.568 4.034 9.184l3.619-.011.26-.088c.256-.742-.037-15.038-.036-17.264-1.17-.003-2.343-.02-3.513-.005.001 2.947-.104 5.896-.096 8.839-1.572-2.763-2.4-5.97-3.844-8.809q-2.018-.03-4.035-.007m14.765-.013c.006 1.615-.002 3.232.029 4.847l3.801.012.013 12.504c1.249-.001 2.499.01 3.747-.006l.012-3.486v-9.107c1.248 0 2.497.012 3.744-.005l.033-4.772zm14.514.045q-.07 8.639-.021 17.278c1.287 0 2.579.023 3.865-.01q.027-8.64-.1-17.277c-1.25-.018-2.495-.04-3.744.01m7.708-.018c-.162 5.764-.01 11.545-.08 17.313l3.822.003.005-8.973c.762 1.241 1.306 2.683 1.9 4.013.737 1.651 1.526 3.298 2.206 4.972l3.533.01.216-.14c.241-1.5.047-3.337.055-4.87.021-4.093.104-8.228-.044-12.317l-3.604.04-.071 8.815c-1.365-2.917-2.432-6.004-3.903-8.864q-2.018-.04-4.035-.002m19.072.009c-1.54 5.778-3.095 11.588-4.953 17.271q2.118-.002 4.237-.048l.589-2.294 4.028.007c.408.524.569 1.606.74 2.263 1.34.059 2.677.109 4.02.109q-2.31-8.684-4.876-17.294c-1.261-.013-2.525-.045-3.785-.014m-112.268.011a760 760 0 0 1-5.11 17.465c1.415-.025 2.834-.025 4.245-.113.251-.972.483-1.94.677-2.925l4.45.01q.423 1.497.827 3c1.391-.013 2.789.002 4.18-.053-1.651-5.787-3.213-11.62-5.004-17.364zm16.293 26.953c22.396 11.532 47.332 14.177 71.402 6.448 5.14-1.65 10.017-3.763 14.875-6.105l.278-.211c-.412-.265-1.212-.112-1.68-.011-1.21.261-2.07.817-3.174 1.326-1.05.486-2.121.933-3.187 1.383-2.77 1.171-5.599 2.143-8.456 3.074q-3.011.953-6.089 1.66-3.078.708-6.203 1.166-1.23.2-2.466.367t-2.476.297q-1.24.132-2.483.229-1.243.096-2.488.158t-2.492.089-2.494.018-2.493-.051-2.49-.121-2.486-.191-2.48-.26-2.471-.33-2.462-.4-2.449-.468-2.435-.537-2.419-.605-2.4-.672c-4.019-1.184-7.899-2.672-11.762-4.284-1.368-.571-2.702-1.534-4.123-1.922-.739-.202-1.636-.08-2.397-.047m6.744.03c1.618.677 4.295 2.11 5.944 2.284l.204-.297c3.096-.034 6.194.113 9.295.059l37.504-.53c2.387-.02 12.91-.589 14.478.063l.137.207c-.231.328-.666.4-1.041.464-1.75.295-3.824.052-5.608.054l-13.901-.011c-2.548.006-5.102.163-7.653.197-5.353.07-10.718.04-16.072.185-2.043.055-4.067.338-6.118.37-2.248.036-4.525.084-6.772.002-1.152-.04-2.299-.27-3.448-.256 2.077.958 4.353 1.538 6.539 2.198 17.559 4.558 33.788 4.182 51.09-1.304 3.256-1.032 6.307-2.59 9.531-3.679-4.061-.196-8.173-.076-12.241-.073l-21.082.008-25.867.01c-4.965 0-9.958-.11-14.92.05M68.933 44.535c1.003-2.758 2.331-5.417 3.583-8.069q3.88.41 7.766.754l.427.068.015.172c-1.024.918-2.98 1.58-4.239 2.33q-2.498 1.507-4.947 3.093c-.846.545-1.706 1.204-2.605 1.652m-.038.065.038-.065zM51.32 52.048q4.833-.466 9.644-1.115l.047.007c-.103.367-2.246 2.111-2.738 2.582-2.888 2.765-5.935 5.745-8.383 8.915l-.106-.077c.512-3.434 1.079-6.871 1.536-10.312"/><path d="m105.734 58.373-.355-.04c-.513-.603-.405-2.237-.437-3.036.526.826.653 2.116.792 3.076m10.464 4.46c-.126-.288-.09-.14-.11-.444.676-.818 1.469-1.531 2.236-2.26a.7.7 0 0 1-.09.376c-.338.686-1.312 2.088-2.036 2.328M100.5 60.625l-.108-.124zm0 0c.047.073.118.138.133.222-.149-.124-.11-.047-.133-.222m-13.62 8.207c-.45-.377-.884-.77-1.146-1.302 2.236-.16 5.705.655 8.104.848 1.044.085 2.948-.094 3.838.23l.195.524c-3.668.022-7.317-.331-10.99-.3m.739.786c3.28-.108 6.576.116 9.843-.18.13-.087.042-.045.288-.055l.093.183-.11.189c-1.199.51-7.3.452-9.335.787zM36.026 72.97c2.73-1.032 5.387-2.216 8.08-3.339l.124.175c-.333.668-.814 1.226-1.235 1.838-.618.895-1.183 1.837-1.746 2.768-1.512 2.505-2.838 5.211-4.446 7.642l-.133-.092c-.101-2.99-.426-6.006-.644-8.992M219.7 82.48l-.071.116c-.492-.454-.8-1.469-1.133-2.07q-3.141-5.706-7.004-10.949c2.885 1.066 5.736 2.282 8.555 3.512zM89.112 71.98c-.173-.273-.312-.451-.29-.79.925-.468 7.011-.576 9.019-1.162.2.208.162.203.2.468-.442.365-7.69 1.252-8.93 1.484m.981 1.254c-.218-.188-.309-.3-.411-.57.549-.423 6.697-1.33 8.239-1.929.175.009.206.077.338.186l-.046.191c-1.25.738-6.31 1.622-8.12 2.122m.863 1.215a3 3 0 0 1-.404-.577c.746-.638 6.141-1.85 7.505-2.401l.21.033.09.16c-.764.827-5.968 2.294-7.4 2.784m.162.464c2.47-.598 5.02-1.688 7.237-2.913.113-.004.254.038.366.06l-.004.187c-1.35 1.372-5.099 2.461-6.911 3.665-.204-.343-.46-.67-.688-.999m1.583 2.22c-.075-.038-.157-.066-.226-.116-.2-.147-.365-.486-.345-.718 2.401-.993 4.508-2.327 6.712-3.692.273.129.26.2.404.452l-.082.252c-1.465.638-5.258 2.816-6.463 3.822m7.394-3.382c-.677.394-1.345.796-1.98 1.257-.856.622-3.774 3.222-4.561 3.287-.335-.199-.486-.424-.697-.738l.057-.156c1.65-.012 3.959-2.867 5.657-3.385.316-.097.523-.234.787-.432l.109-.083c.403.307.743.724 1.088 1.093-1.492 1.706-2.525 3.81-3.997 5.5-.283.325-.575.64-1.016.677l-.075-.219c.397-1.671 3.54-4.574 4.785-5.952-2.17 1.629-3.627 3.073-5.245 5.22q-.044.058-.09.114l-.955-.938c1.673-1.08 4.876-3.708 6.132-5.246m-17.362 2.444.123-.067zm-.363.194.363-.194zM60.294 87.21c-.554.245-1.076.586-1.647.781-2.94 1.006-6.994 1.465-10.112 1.642-.536-.379-1.087-.748-1.611-1.144 4.383-.502 8.614-1.128 12.939-2.016 2.217-.49 4.438-1.025 6.676-1.403-.32.506-.628 1.024-.978 1.51l-.625-.838c-1.398.987-2.835 1.848-4.098 3.019-.739.685-1.398 1.68-2.182 2.275a1.09 1.09 0 0 1-.895.214c-.317-.064-.476-.231-.646-.487-.017-.373.033-.505.283-.791.874-1 2.021-1.728 2.896-2.762l.08-.056zm64.583 5.957a2.4 2.4 0 0 1-.509.07c-.225-.216-.19-.361-.236-.658.357 0 .501-.057.788.168zm98.693-.72c1.642 1.033 6.004 5.289 7.258 5.635l.157-.458.257-.069c-.025.4-.117.696.124 1.045.109.158.293.305.433.437-.235-.107-.403-.17-.661-.187-.528.727-.827 2.005-1.16 2.858q-1.03 2.649-2.146 5.264c-.674-2.447-.976-4.981-1.695-7.432-.711-2.428-1.817-4.692-2.567-7.094m7.672 5.11.391-.193zM23.75 98.892l-.099-.141zm208.049.145.062.063zM192.8 110.322q-.866.073-1.735.032c-.589-.028-1.327.017-1.734-.43.64-.065 1.301-.06 1.943-.025.553.03 1.143-.003 1.526.422m-130.374 9.521c-.27-.113-.45-.174-.628-.412.163-.183.067-.132.332-.172.788-.119 3.647-.084 4.24.368q.059.045.115.091l-.134-.625c.324.13.635.273.948.426.002.056.006.266.017.315.013.06.042.115.063.172-1.544.186-3.408.026-4.954-.163m-41.511 8.175q2.499-3.811 4.915-7.675c.28 1.405-.099 3.252-.115 4.72-.042 3.718-.023 7.52.484 11.207l-1.769-2.845c-1.128-1.826-2.253-3.67-3.515-5.407m214.529-.725.178-.186zm-.069.083.069-.083zm-.062.065.062-.065zm-86.775 12.77c-2.992-.02-5.996.072-8.986.155-1.29.036-2.66.207-3.94.11-.292-.022-.52-.046-.75-.242l.069-.19c.403-.29.883-.498 1.377-.565 1.837-.25 5.048-.13 7.025-.19q10.31-.27 20.625-.35c3.112-.084 6.236-.036 9.35-.047 1.316-.005 2.849-.21 4.128-.003.263.203.407.258.513.58l-.147.16c-.444.187-.919.227-1.396.246-3.145.124-6.327-.012-9.478.024zm-66.507.385c4.087-.984 10.258-.228 14.817-.668 1.21-.123 9.572-.22 10.225.121.174.223.387.377.364.666-.962.349-8.118.127-9.752.173-1.466.042-2.894.256-4.371.259-3.121.049-8.387.374-11.283-.551m3.734 2.629c3.783-1.86 9.442-1.108 13.582-1.294 2.391-.196 6.251-.245 8.635.004.385.04.812.109 1.069.421l-.088.16c-.389.178-.766.304-1.196.336-.944.069-1.939-.025-2.889-.022l-6.818.023c-.819 0-1.534.221-2.36.104-.418-.068-1.073.087-1.531.088-2.82.003-5.589-.028-8.404.18m36.792.138c-.444.029-.906.078-1.35.063-.309-.012-.578-.062-.796-.297l.127-.196c1.096-.499 2.215-.462 3.39-.488.523-.032 1.238-.155 1.742-.05.334.07.55.147.741.425-.054.09-.076.143-.173.209-.878.597-2.653.36-3.681.334m25.466.358c-1.715.149-3.427-.069-5.144-.082-2.308-.018-5.45.398-7.654-.142-.235-.312-.206-.502-.24-.886 4.23.429 8.552-.04 12.806.4.26.247.207.361.232.71m-25.942 1.466c-.14-.012-.212-.014-.358-.05-.178-.042-.437-.126-.521-.284.565-.46 3.909-.462 4.919-.547.089-.01.237-.033.323-.02.277.044.359.21.513.415l-.097.171c-1.336.548-3.36.422-4.78.315m17.64.176q-1.758-.002-3.516-.027c-.462-.01-.86.001-1.203-.356l.066-.21c.397-.178 3.908-.242 4.72-.347.893-.037 3.88-.063 4.493.496-.927.796-3.38.477-4.56.444m2.284 4.356c-1.894-.018-4.109.192-5.962-.138l-.121-.212.119-.28c.103-.071.19-.174.31-.213.619-.201 5.708-.151 6.746-.197.79-.005 5.266-.192 5.613-.05.083.033.129.124.194.186-.007.18.036.26-.108.395-.635.599-5.52.427-6.79.509m81.425 14.928c1.812-5.036 3.497-10.192 4.61-15.433.705.933 2.362 6.62 3.05 8.239.257-.175.54-.42.86-.443.201-.015.301.169.435.297.064.256.136.29 0 .529l-.31-.496c-.328-.057-.348.008-.637.185-.011.048-.051.21-.046.256.006.061.035.118.053.178-.075.032-.423-.199-.615-.207-1.378 1.102-2.645 2.425-3.933 3.636q-1.764 1.597-3.467 3.258m-115.87-14.6 2.162-.117c1.174-.107 4.902-.33 5.848.117l.09.261-.16.275c-.454.22-.724.122-1.218.07-2.422-.201-4.33.139-6.723-.607m105.17 1.669c-4.901-.432-10.466.102-15.413-.119-.291-.013-.549.002-.758-.214.075-.116.1-.166.21-.268.386-.355.889-.302 1.38-.309 1.079-.065 2.173.038 3.254.03 2.579-.017 10.982-.446 12.894.633l-.052.14c-.506.221-.98.145-1.515.107m-70.453 1.162c-1.885-.06-4.03.251-5.877-.048-.319-.051-.489-.08-.686-.348l.113-.197c.367-.18.68-.217 1.088-.24 1.052-.06 2.124.03 3.179.016 3.195-.043 6.444-.137 9.615-.515.968.04 1.948.087 2.916.057.793-.024 1.621-.163 2.413-.088.374.035.63.124.877.405l-.092.244c-1.267.813-11.093.242-13.546.714m-5.176 2.015c-.548.014-.95.005-1.464-.204l-.003-.3c.502-.436 1.61-.566 2.271-.612 1.813-.126 3.773.064 5.605.076q5.54.067 11.067-.297l.766-.08.252.318.099-.137-.089.23c-.494.413-1.27.645-1.904.732-.66.091-1.355.009-2.02.042-1.22.061-2.383.11-3.61.116-1.066.005-2.128.105-3.193.112-2.598.017-5.173-.099-7.777.004m2.506 2.113c-.516.057-3.849.138-4.146-.064-.032-.22-.058-.28.096-.447a1.05 1.05 0 0 1 .671-.35c.962-.098 1.992-.019 2.962-.042 1.808-.042 3.616-.136 5.425-.194 6.29-.198 12.573-.385 18.858-.727.987-.094 2.47-.155 3.409.158.29.097.453.159.596.442-.053.062-.095.137-.161.188-.292.225-.92.288-1.273.315-1.327.102-2.718.029-4.054.063l-10.414.238c-3.987.084-7.976.395-11.969.42m-31.697.129c2.97-.835 6.292-.726 9.358-.828 1.086-.044 2.834-.17 3.801.398l-.028.14c-1.356.706-6.924.567-8.703.574-1.532.052-2.933.138-4.428-.284m-83.805-.279.146.12zm.51.346-.112-.044zm114.767 3.427c-1.197-.013-2.388.17-3.577.159-.34-.004-.472-.069-.704-.303.004-.288-.04-.303.144-.544 1.279-.093 2.571-.098 3.852-.136 1.302-.021 2.86-.191 4.109.197l-.008.112c-1.349.527-2.395.535-3.816.515m-3.031 2.515c-.365.034-.661.05-1.025-.026-.243-.202-.302-.181-.375-.503.204-.202.338-.257.62-.293 1.217-.153 2.512-.056 3.743-.12 2.692-.138 5.366-.307 8.063-.343 2.799-.037 5.602.094 8.392-.18a3 3 0 0 1 .785-.033l.107.241c-.028.214-.008.505-.164.662-.267.267-.671.324-1.033.36-1.09.108-2.255-.014-3.352-.031-1.201-.019-2.423.034-3.627.047-1.084.012-2.162.128-3.245.15q-4.444.102-8.889.07m-13.321 3.948c-.456.019-1.196.15-1.591-.085-.05-.38.082-.526.25-.864.228-.017.461-.036.69-.026.341.014.595.07.84.322.022.338-.008.361-.189.653m34.17 1.07c-6.314-.197-12.627.149-18.945-.05-1.01-.033-2.362.125-3.307-.169-.238-.322-.187-.433-.182-.823 2.828-.106 5.682.117 8.513.132 1.539.007 13.163-.476 13.932.027.155.306.059.566-.011.883m-38.292 1.173c-.095.018-.251.052-.344.049-.294-.012-.361-.124-.54-.326l.043-.186c.872-.76 3.615-.48 4.78-.572.244-.028.356-.003.579.095.007.273-.012.3-.156.533-1.243.462-3.024.338-4.362.407m19.639 1.633c-1.156-.102-2.327.035-3.471-.163-.223-.26-.198-.36-.236-.707.368-.383 12.995-.13 14.687-.18 1.322-.038 2.627-.218 3.94-.367.919.033 2.471-.276 3.276.173l.045.189c-.062.097-.108.181-.197.263-.385.353-2.452.352-3.03.39-1.361.088-2.693.328-4.06.36-3.646.085-7.318-.165-10.954.042m-33.897.797c-.311.129-.536.251-.881.17l-.025-.21c.707-.599 1.841-.813 2.74-.936 1.814-.247 3.696-.1 5.525-.128 2.297-.035 4.577-.181 6.87-.254 1.442-.046 2.88-.006 4.322-.099.258-.035.282-.034.54.07.094.322.122.312-.03.607-1.212.59-3.314.21-4.664.261-1.377.054-2.737.305-4.12.325-3.445.05-6.833-.161-10.277.194m37.952 1.511c-1.805.436-5.55.406-7.431.178-.237-.267-.218-.456-.272-.802 1.48-.089 6.54-.27 7.738.072l.104.217zm-41.762.956c-2.796.21-13.595.944-15.59.036l.06-.16c2.205-.808 7.549-.404 10.178-.487 1.656-.052 3.303-.282 4.957-.35 2.62-.109 5.253-.09 7.87-.217 3.093-.188 6.26.05 9.361.093 1.606.022 3.268-.169 4.861-.052.497.036.829.087 1.16.471l-.033.356c-.223.162-.294.183-.564.199-.643.036-1.297-.15-1.945-.143l-9.559.03c-3.584-.018-7.173.25-10.756.224m-64.99 8.545c.478-2.866.44-5.803.758-8.687 1.008 1.01 3.589 6.345 4.578 7.951.771 1.25 2.34 2.97 2.818 4.242l-.25-.017c-2.585-1.216-5.412-2.112-7.904-3.489m137.22-7.675c-1.188.011-5.877.292-6.555-.348.18-.278.302-.308.602-.458 2 .088 4.17-.21 6.09.474l.07.15zm-88.34 17.259c-.017-1.173-.003-2.348-.003-3.522.73-.022 1.558-.108 2.251.15.424.158.812.427.957.876.208.651-.066 1.447-.348 2.034-.92.611-1.798.489-2.857.462m-13.322 3.152c-.505.011-.995.008-1.498-.04.008-.043.02-.085.025-.129.156-1.522.718-3.144 1.093-4.64.449.448 1.056 3.865 1.174 4.65-.28.194-.463.147-.794.16m112.125.374c-.5.012-1.013.053-1.507-.034.233-1.63.686-3.267 1.055-4.875.032.035.073.065.097.106.186.319 1.014 4.53.957 4.762zM51.36 204.047c-.486-3.167-1.182-6.381-1.296-9.587.961.557 3.647 3.881 4.642 4.906 1.136 1.172 2.317 2.356 3.558 3.414.795.677 2.029 1.427 2.667 2.24.097.123.104.172.148.303-3.248-.295-6.485-.852-9.719-1.276m21.404 15.746q-1.593-4.038-3.274-8.04c2.718 1.755 5.342 3.47 8.187 5.024.998.544 3.227 1.384 3.854 2.184l-.305.132c-2.818.137-5.653.426-8.462.7m58.592-3.407c-.844-.005-2.377.237-3.132-.188-.293-.165-.318-.226-.394-.526l.091-.144c1.315-.065 2.65-.183 3.966-.165.956.013 1.909.146 2.865.16.977.016 1.953-.104 2.931-.082 1.482.035 2.962.17 4.444.178 2.436.013 4.904-.206 7.34-.31 1.047-.004 2.331-.134 3.35.088.32.07.448.133.617.41l-.093.185c-1.734.246-3.644.113-5.404.184-1.775.07-3.548.241-5.324.282-1.454.034-2.91-.072-4.363-.085-2.295-.022-4.598.017-6.894.013m-10.453 2.477c-1.564.008-3.639.173-5.095-.426-.251-.104-.173-.03-.274-.258.288-.27.711-.433 1.105-.465 1.303-.103 2.766.162 4.097.162 2.291 0 4.572-.224 6.865-.215 3.605.014 7.245.315 10.836-.11 1.284-.002 2.572-.072 3.855-.042.493.011 1.341.008 1.682.375-.79.845-7.686.437-9.382.71-.398.064-.812.224-1.193.355-2.734-.76-9.38-.197-12.496-.086m-22.368 12.122c-1.834-2.437-4.036-4.69-5.692-7.241 4.528 1.859 9.635 3.223 14.45 4.088l-2.2.924c-2.155.832-4.36 1.52-6.558 2.228m64.145-6.903.048-.053zm-13.978 3.903c2.177-.634 4.438-1.054 6.633-1.64 2.483-.664 4.893-1.503 7.345-2.263-1.108 2.137-3.037 3.804-4.076 5.991l-.062.136-.148-.151c-.355.134-.649.637-.89.942-2.105-.803-4.275-1.476-6.407-2.205-.812-.233-1.601-.52-2.395-.81m9.998 2.602-.044-.085z"/></svg>