<svg xmlns="http://www.w3.org/2000/svg" viewBox="0 0 256 256"><path d="M121.047 0h13.144l.12.019c2.1.307 4.297.236 6.416.444 4.49.44 9.131 1.17 13.546 2.1q1.414.294 2.82.62 1.407.327 2.806.685 1.399.357 2.79.747 1.39.39 2.771.81t2.753.872 2.733.934 2.711.995 2.688 1.056 2.663 1.117 2.638 1.176 2.61 1.235 2.582 1.294 2.552 1.351q1.269.69 2.521 1.409 1.253.718 2.489 1.465 1.236.746 2.455 1.52t2.42 1.576 2.384 1.63 2.347 1.683 2.308 1.735 2.269 1.787q1.124.906 2.227 1.838 1.104.931 2.186 1.887t2.143 1.936 2.099 1.984 2.053 2.03 2.007 2.077 1.96 2.121q.968 1.072 1.911 2.164.944 1.094 1.863 2.208.918 1.114 1.812 2.248.893 1.135 1.761 2.289c10.955 14.502 19.488 33.03 23.03 50.912.657 3.317 1.25 6.682 1.635 10.042.227 1.97.292 4.988.73 6.785v17.282l-.018.12c-.382 2.663-.442 5.4-.77 8.08-.63 5.149-1.644 10.32-2.872 15.357q-1.295 5.121-3.054 10.102-.383 1.118-.787 2.229t-.828 2.214-.869 2.198q-.444 1.094-.909 2.181-.464 1.087-.949 2.164t-.989 2.147-1.028 2.128-1.067 2.108-1.107 2.089-1.144 2.067-1.182 2.047q-.6 1.017-1.22 2.024-.62 1.006-1.257 2.001-.638.995-1.294 1.978t-1.33 1.953-1.365 1.93q-.692.957-1.402 1.903-.709.945-1.435 1.876-.727.933-1.471 1.85-.744.919-1.504 1.823-.76.905-1.538 1.795-.777.89-1.57 1.766t-1.603 1.737-1.634 1.707-1.666 1.677-1.697 1.645-1.726 1.614-1.756 1.582-1.785 1.549-1.812 1.516q-.914.75-1.841 1.482-.927.733-1.868 1.448c-15.081 11.424-33.257 19.788-51.846 23.403-3.568.695-7.17 1.342-10.78 1.762-1.925.222-4.829.268-6.568.685h-15.29c-2.112-.437-4.47-.398-6.628-.618-3.53-.357-7.066-.9-10.564-1.495-16.728-2.84-36.048-10.9-49.646-20.94-5.332-3.936-10.448-8.05-15.239-12.638q-.837-.798-1.659-1.611t-1.629-1.641-1.599-1.671-1.567-1.7-1.536-1.729-1.505-1.756-1.471-1.784q-.728-.899-1.439-1.81-.71-.912-1.405-1.837-.694-.925-1.371-1.862t-1.337-1.887-1.302-1.911q-.642-.962-1.266-1.935-.625-.973-1.231-1.958-.607-.984-1.195-1.98-.588-.995-1.158-2.001t-1.121-2.023-1.084-2.043-1.046-2.062-1.008-2.081-.97-2.1-.93-2.116q-.457-1.063-.893-2.134t-.852-2.15q-.417-1.078-.814-2.164t-.773-2.18q-.376-1.093-.733-2.193-.356-1.1-.692-2.206t-.652-2.219-.611-2.23-.57-2.241-.529-2.251c-1.06-4.7-1.973-9.49-2.519-14.279-.274-2.398-.236-4.881-.605-7.257l-.02-.12V120.64c.39-1.724.435-5.137.614-7.065.31-3.339.845-6.682 1.444-9.979C5.435 85.01 13.825 66.674 25.112 51.572q.846-1.14 1.717-2.261.87-1.122 1.766-2.223.896-1.102 1.816-2.184.92-1.081 1.863-2.142.944-1.061 1.91-2.1.968-1.04 1.957-2.058t2.002-2.014q1.012-.996 2.046-1.969t2.09-1.923 2.13-1.876 2.173-1.829 2.213-1.78 2.251-1.73q1.136-.852 2.29-1.68 1.154-.827 2.325-1.628t2.362-1.577 2.396-1.524 2.429-1.47 2.461-1.416 2.492-1.361 2.522-1.306q1.268-.638 2.55-1.249 1.281-.61 2.576-1.192t2.603-1.135 2.628-1.077 2.65-1.019 2.673-.959 2.693-.9 2.712-.84 2.73-.779 2.748-.719 2.762-.657c4.731-1.06 9.614-1.823 14.436-2.353 2.267-.25 4.582-.29 6.836-.623zm4.896 4.308q-1.516.032-3.032.102-1.515.07-3.028.176-1.513.107-3.023.251t-3.016.325-3.007.398-2.996.472-2.984.545q-1.49.29-2.97.618-1.481.327-2.954.69t-2.936.763-2.916.834-2.896.905-2.872.976-2.847 1.046-2.821 1.116-2.793 1.184-2.763 1.252-2.731 1.32-2.698 1.385-2.664 1.452q-1.322.742-2.627 1.516-1.304.775-2.59 1.58-1.284.807-2.549 1.644t-2.509 1.705-2.466 1.766-2.422 1.826-2.377 1.884-2.33 1.943-2.282 1.999-2.232 2.053-2.181 2.109-2.13 2.16q-1.069 1.1-2.111 2.227t-2.056 2.278-1.998 2.329q-.985 1.176-1.94 2.377t-1.88 2.426q-.924 1.224-1.819 2.472-.893 1.247-1.756 2.516t-1.693 2.559-1.63 2.6q-.797 1.311-1.563 2.641t-1.497 2.678q-.732 1.35-1.43 2.716t-1.362 2.75q-.664 1.383-1.293 2.782T14.05 80.47t-1.152 2.844-1.082 2.872-1.009 2.898-.937 2.922-.863 2.945q-.414 1.477-.79 2.965t-.716 2.984-.641 3-.566 3.016-.49 3.03q-.227 1.517-.416 3.04t-.339 3.05-.263 3.057-.186 3.063q-.075 1.533-.11 3.067-.037 1.534-.034 3.069t.042 3.068q.04 1.517.117 3.032t.191 3.029.266 3.023.341 3.015.415 3.006.489 2.996q.263 1.494.563 2.982.3 1.487.636 2.967.337 1.48.71 2.95t.781 2.933.854 2.912.926 2.89.997 2.866q.516 1.427 1.067 2.841t1.137 2.814 1.206 2.784 1.275 2.755 1.342 2.721 1.409 2.688 1.475 2.652 1.54 2.615 1.604 2.576q.817 1.279 1.667 2.536.849 1.258 1.729 2.494t1.79 2.45 1.85 2.406 1.909 2.36q.969 1.167 1.967 2.31.997 1.144 2.023 2.263 1.025 1.118 2.078 2.21 1.053 1.094 2.132 2.16t2.185 2.106q1.09 1.037 2.205 2.048 1.115 1.01 2.255 1.992 1.139.983 2.302 1.938 1.163.954 2.349 1.88 1.185.927 2.393 1.824 1.209.897 2.438 1.764 1.23.868 2.48 1.705t2.52 1.644 2.56 1.581q1.289.776 2.597 1.52 1.308.743 2.633 1.455 1.326.712 2.669 1.391 1.342.68 2.7 1.326 1.36.647 2.734 1.26t2.762 1.192q1.388.58 2.79 1.125 1.403.546 2.818 1.058 1.415.51 2.842.988 1.427.476 2.866.918 1.438.442 2.887.849 1.448.406 2.906.778 1.458.371 2.925.707t2.941.636 2.956.564q1.481.263 2.968.491 1.487.23 2.98.42 1.492.192 2.989.347t2.996.275q1.5.118 3.002.2 1.503.083 3.007.128 1.504.047 3.008.055 1.505.01 3.01-.017 1.52-.038 3.038-.113 1.519-.075 3.035-.187 1.517-.113 3.03-.263t3.023-.335q1.509-.187 3.013-.412 1.504-.223 3.002-.483t2.99-.558 2.974-.63q1.484-.334 2.959-.704t2.94-.775 2.92-.848q1.456-.442 2.9-.919t2.875-.99q1.431-.512 2.85-1.06 1.419-.547 2.824-1.13 1.405-.581 2.794-1.198 1.39-.616 2.765-1.266t2.733-1.334 2.7-1.401q1.34-.717 2.663-1.466 1.323-.75 2.627-1.532 1.305-.782 2.59-1.595 1.284-.814 2.549-1.659 1.264-.844 2.507-1.72 1.244-.875 2.465-1.781t2.42-1.841q1.199-.936 2.375-1.9 1.175-.965 2.327-1.958t2.278-2.014 2.228-2.07 2.177-2.123 2.124-2.176q1.065-1.113 2.101-2.252t2.044-2.303 1.986-2.353q.979-1.19 1.928-2.402.948-1.213 1.866-2.45.918-1.236 1.806-2.494.887-1.259 1.742-2.54.855-1.28 1.679-2.581.823-1.302 1.614-2.623.79-1.321 1.548-2.662.757-1.34 1.481-2.7.724-1.359 1.414-2.736.69-1.376 1.345-2.77.655-1.393 1.276-2.802.62-1.41 1.205-2.834t1.135-2.863q.55-1.438 1.063-2.89.514-1.452.991-2.916t.918-2.94.844-2.96q.404-1.487.77-2.982.368-1.496.697-3t.62-3.016.547-3.031.47-3.043q.215-1.525.393-3.054.18-1.53.32-3.063t.24-3.07q.102-1.537.167-3.076.063-1.538.088-3.078t.012-3.08-.065-3.078q-.052-1.51-.142-3.019-.09-1.508-.215-3.014-.127-1.505-.293-3.007-.162-1.502-.362-3t-.437-2.99-.51-2.979q-.274-1.486-.583-2.965-.31-1.479-.656-2.95-.345-1.47-.727-2.933t-.8-2.914-.87-2.894q-.453-1.441-.94-2.871-.489-1.43-1.012-2.848t-1.08-2.822-1.15-2.795-1.216-2.766-1.285-2.735q-.66-1.36-1.351-2.703-.693-1.343-1.418-2.668t-1.482-2.634-1.546-2.596-1.61-2.558-1.671-2.517-1.733-2.476-1.793-2.432q-.91-1.206-1.851-2.389-.94-1.182-1.91-2.341t-1.966-2.294q-.998-1.136-2.023-2.246t-2.076-2.195-2.13-2.144q-1.078-1.059-2.182-2.091c-22.787-21.621-55.03-34.398-86.514-33.57z"/><path d="M132.343 248.614q-1.432.05-2.864.067-1.433.016-2.865-.001t-2.864-.07q-1.431-.052-2.861-.138t-2.857-.206-2.852-.274q-1.424-.155-2.844-.343t-2.835-.41-2.824-.478-2.812-.545-2.799-.613-2.783-.678-2.766-.746-2.748-.81-2.727-.877-2.705-.941-2.683-1.006-2.657-1.069-2.631-1.133-2.604-1.195-2.574-1.257-2.543-1.318-2.511-1.378-2.478-1.438-2.443-1.497-2.405-1.554-2.369-1.612-2.329-1.668-2.288-1.723-2.247-1.777-2.204-1.83-2.159-1.883q-1.122-.99-2.22-2.007-1.096-1.017-2.167-2.061-1.072-1.044-2.117-2.115-1.045-1.07-2.063-2.167t-2.009-2.218-1.953-2.267-1.896-2.314-1.837-2.362-1.779-2.406-1.718-2.45-1.656-2.492q-.812-1.256-1.594-2.532-.781-1.276-1.53-2.57-.75-1.296-1.466-2.61-.717-1.312-1.4-2.643-.684-1.331-1.335-2.678t-1.267-2.71-1.2-2.742-1.13-2.77-1.062-2.797-.991-2.823-.921-2.847q-.443-1.43-.85-2.869t-.778-2.89q-.371-1.448-.706-2.907-.335-1.458-.634-2.924-.298-1.466-.56-2.939t-.488-2.952-.413-2.964-.34-2.972-.265-2.98-.192-2.987q-.076-1.47-.116-2.942t-.043-2.944q-.004-1.473.029-2.945t.101-2.943q.069-1.47.174-2.94.105-1.468.246-2.934.14-1.466.318-2.927.177-1.462.39-2.92.212-1.456.46-2.908.25-1.451.533-2.896t.604-2.882.674-2.866.745-2.85.814-2.83.884-2.808q.46-1.4.952-2.787.494-1.387 1.021-2.762t1.088-2.736 1.155-2.709q.595-1.347 1.222-2.68.627-1.332 1.287-2.648t1.351-2.616 1.416-2.583 1.478-2.546 1.54-2.51q.787-1.245 1.602-2.47.817-1.226 1.662-2.431.846-1.206 1.722-2.39.875-1.184 1.78-2.346.903-1.162 1.836-2.302.932-1.14 1.893-2.256.96-1.116 1.947-2.209.794-.89 1.606-1.765t1.64-1.734 1.674-1.701 1.708-1.668 1.74-1.634q.877-.808 1.771-1.599t1.803-1.564 1.834-1.528 1.863-1.491 1.892-1.455 1.921-1.416q.968-.7 1.948-1.38.981-.679 1.976-1.34.994-.66 2.001-1.3t2.026-1.26 2.051-1.222q1.032-.6 2.075-1.18t2.097-1.138q1.055-.56 2.12-1.098t2.14-1.055 2.162-1.013 2.18-.97q1.096-.474 2.2-.926t2.218-.884q1.112-.43 2.234-.839 1.121-.408 2.25-.795 1.13-.386 2.266-.75t2.28-.706 2.293-.66 2.307-.615q1.156-.297 2.318-.57 1.161-.273 2.328-.523c6.822-1.428 13.655-2.165 20.606-2.523 29.442-1.341 60.998 9.917 83.024 29.536 24.114 21.479 39.568 51.222 41.446 83.636q.083 1.488.129 2.977.047 1.49.057 2.979t-.016 2.98-.088 2.978q-.062 1.489-.161 2.976t-.234 2.97-.306 2.964-.378 2.956-.45 2.945-.522 2.934-.594 2.92-.664 2.905-.735 2.887-.805 2.87-.875 2.848q-.455 1.418-.944 2.826-.49 1.407-1.013 2.802-.524 1.395-1.081 2.777-.558 1.382-1.149 2.75-.59 1.367-1.215 2.72-.624 1.353-1.28 2.69-.657 1.338-1.347 2.659t-1.41 2.625q-.722 1.303-1.475 2.589t-1.537 2.553-1.599 2.514-1.66 2.475-1.72 2.433-1.778 2.39-1.836 2.347-1.893 2.302-1.949 2.254q-.827.924-1.672 1.83-.845.907-1.71 1.796-.863.89-1.745 1.76-.881.872-1.781 1.725t-1.816 1.688q-.917.834-1.85 1.65-.934.815-1.884 1.612-.95.796-1.916 1.573t-1.947 1.534-1.98 1.493q-.996.737-2.008 1.453t-2.038 1.411q-1.027.696-2.067 1.37t-2.094 1.327q-1.054.652-2.121 1.284-1.067.63-2.147 1.24-1.08.609-2.171 1.196-1.092.587-2.195 1.151-1.104.565-2.22 1.107-1.114.541-2.24 1.06-1.126.52-2.262 1.015-1.136.496-2.282.969-1.146.472-2.302.921-1.155.449-2.32.874t-2.337.827-2.353.779-2.37.73-2.383.682-2.397.633-2.41.584-2.42.534q-1.214.255-2.431.485c-5.86 1.093-11.755 1.595-17.698 1.923M34.24 164.861a50 50 0 0 0-1.187 2.468c-.385.845-2.456 4.94-2.191 5.65l.248.032-.012-.085.156.018c.359-.257.584-.897.784-1.29-.081.576-.612 1.675-.558 2.154.038.343.264.774.532.977l.163-.155c.037-.251.065-.46.18-.69.104.117.209.175.214.342.014.41-.314.811-.598 1.075-.308.286-.526.313-.935.29-.368-.209-.535-.42-.778-.765l-.086-.125q.007.496-.004.992l.168.134c1.581.165 3.26.911 4.447 1.976l.133.12c-1.429-.752-3.313-1.531-4.866-1.964-.38-.106-.475.024-.799.204l-.129-.145.093-.373a17 17 0 0 1-.875-.513l-.03-.156c.292.034.491.093.76.217.25.115.264.133.554.115l.127-.236-.1-.283c-.2-.084-.338-.087-.55-.072l-.25.02c-.71-.424-1.51-.62-2.249-1.014 1.152-.12 2.281-.142 3.439-.121.122-.238.206-.314.436-.448.213.008.396.05.591-.044-1.475-.53-3.097-.248-4.64-.34q-3.043-.197-6.078-.5c2.821 1.685 5.512 3.56 8.352 5.224.242.336.191.95.212 1.356.273 1.724-.422 6.477-.581 8.505 1.336-2.154 3.586-5.356 5.226-7.262 3.125.022 6.246.112 9.372.09-1.548-.674-3.043-1.539-4.537-2.326-1.508-.794-3.066-1.539-4.506-2.451.565-3.566.67-7.005.352-10.6m94.307-151.14c-.467 1.534-.987 3.074-1.376 4.629-1.706.018-3.413.021-5.117.125 1.374.927 2.744 1.882 4.159 2.747-.604 1.6-1.28 3.176-1.876 4.778 1.477-.928 2.822-2.037 4.276-2.993 1.358.971 2.703 1.977 4.085 2.913a64 64 0 0 0-1.689-4.743 52 52 0 0 0 4.32-2.92c-1.724.038-3.455.108-5.18.1-.357-1.134-.963-3.742-1.602-4.636m11.258.063a252 252 0 0 0-.027 12.711c2.41-1.111 4.86-2.118 7.285-3.193l3.279-1.416-6.81-5.293c-1.213-.942-2.422-2.004-3.727-2.809m-23.953.217c-3.133 2.51-6.485 4.968-9.392 7.732 1.265.69 2.57 1.296 3.883 1.886l6.689 2.9c-.121-1.371-.81-11.975-1.18-12.518M96.525 19.2q-2.468 3.318-4.827 6.714c1.688.666 6.096 2.623 7.602 2.762 1.696-1.941 3.358-4.03 4.91-6.09-2.405-1.329-5.118-2.42-7.685-3.386m63.588.686q-3.856 1.386-7.784 2.55c1.49 2.244 3.067 4.577 4.828 6.618 1.153-.11 6.07-2.485 7.47-3.097-.66-1.068-3.688-5.536-4.514-6.071m-76.065.19c-1.867 2.759-3.729 5.52-5.786 8.142-3.193.501-6.519.287-9.7.831q3.8 2.213 7.323 4.843c.093 1.103.288 8.258.669 8.64 1.271-2.915 2.771-5.718 4.023-8.644 3.646.045 7.358.176 10.986.54-1.919-1.222-4.377-2.35-6.532-3.105-.147-1.707-.62-10.344-.984-11.248m87.914.365c.31 3.072.488 6.224.966 9.271-2.471 1.887-5.389 3.382-7.724 5.406 3.567-.69 7.3-1.372 10.925-1.591 1.181 2.934 2.21 5.925 3.244 8.914l.211-.061q.971-4.998 1.811-10.019c2.224-1.227 4.53-2.27 6.844-3.312-3.232-.39-6.612-.57-9.868-.571-1.36-1.822-4.875-6.723-6.41-8.037m-47.428 12.986c-3.493.22-6.983.468-10.444 1.005-23.12 3.59-42.665 14.928-58.06 32.418q-.752.86-1.483 1.737t-1.44 1.773q-.709.895-1.395 1.808-.687.913-1.35 1.842-.665.93-1.305 1.875-.64.946-1.258 1.907-.616.96-1.21 1.936-.592.977-1.161 1.967t-1.112 1.995q-.544 1.004-1.064 2.021-.519 1.017-1.012 2.047-.494 1.03-.962 2.072t-.91 2.095-.858 2.117-.805 2.136-.752 2.157-.699 2.174-.645 2.192-.59 2.206-.535 2.22-.48 2.233q-.227 1.12-.425 2.244-.199 1.125-.37 2.254t-.313 2.262-.258 2.27-.2 2.275-.146 2.279-.088 2.282-.032 2.284.025 2.284.081 2.282.138 2.28q.072.958.163 1.914t.202 1.91.242 1.905.28 1.9.318 1.895.357 1.887.396 1.88q.207.937.433 1.87.227.934.472 1.862.245.929.51 1.852.264.923.547 1.841.282.918.584 1.83.301.912.621 1.817.32.906.659 1.804.338.9.695 1.791.356.892.731 1.776t.768 1.76.803 1.745.838 1.728q.428.86.874 1.711.445.851.907 1.693.463.841.943 1.673t.976 1.654 1.01 1.634 1.042 1.613q.53.802 1.076 1.592.545.79 1.107 1.569t1.14 1.546 1.17 1.523 1.201 1.499 1.232 1.474q.623.73 1.261 1.448c2.92 3.285 6.13 6.244 9.431 9.139 4.385 3.845 9.126 7.106 14.15 10.041 16.037 9.37 32.878 13.3 51.378 12.98 26.79-1.52 49.823-12.5 67.686-32.554 4.621-5.188 8.841-11.696 12.064-17.836 8.307-15.823 12.224-31.904 11.183-49.811-1.459-25.079-13.939-48.464-32.569-65.045q-.66-.584-1.332-1.155t-1.355-1.13-1.375-1.105-1.395-1.077-1.416-1.052-1.436-1.025-1.454-.998q-.732-.491-1.473-.97-.741-.477-1.49-.941-.75-.464-1.51-.914-.758-.45-1.525-.885-.767-.436-1.541-.857-.775-.42-1.558-.827t-1.573-.797q-.79-.392-1.588-.768-.797-.377-1.602-.738-.804-.361-1.615-.707t-1.629-.677-1.64-.646-1.653-.615-1.665-.584-1.674-.553-1.685-.52q-.845-.253-1.695-.49-.85-.236-1.703-.456t-1.712-.425-1.72-.392-1.726-.36-1.733-.328-1.739-.294q-.87-.14-1.744-.262-.873-.123-1.748-.229c-4.894-.622-9.967-.95-14.897-.673zm-63.945 2.647c-.648 2.737-1.518 5.483-2.053 8.238 2.675.055 5.348.07 8.02.223.716-2.751 1.397-5.518 2.182-8.25q-4.077-.011-8.149-.211m130.212.119-3.218.065c.682 2.635 1.222 5.311 1.917 7.938q2.09-.019 4.173-.177 1.907-.107 3.817-.162c-.749-2.564-1.276-5.177-1.96-7.756q-2.365-.017-4.73.092M49.993 45.067l-.549 4.27c-1.604.179-3.215.257-4.817.429a50 50 0 0 0 4.106 2.529c-.559 1.592-1.032 3.207-1.51 4.825 1.435-.945 2.71-2.124 4.002-3.252.434.864.855 1.737 1.354 2.566l.817 1.295q.11-1.941.145-3.885c1.254.223 2.53.347 3.778.583a27 27 0 0 0-3.292-3.325 78 78 0 0 0 2.757-3.878q-2.222.71-4.413 1.51c-.681-1.149-1.448-2.726-2.378-3.667m156.04.624c-.704 1.175-1.383 2.378-1.943 3.629l-3.895-1.873c.627 1.35 1.37 2.629 2.106 3.92a84 84 0 0 0-3.426 2.304c1.284.334 2.778.322 4.102.331.055.784.05 3.373.581 3.867l.173-.175c.632-.975 1.303-1.938 1.806-2.987 1.36.56 2.65 1.292 4.01 1.836-.64-1.312-1.435-2.56-2.034-3.889 1.289-.831 2.355-1.851 3.434-2.931-1.433.075-2.867.172-4.302.207-.121-1.26-.087-3.119-.612-4.239M43.855 58.53q-3.921.922-7.875 1.688c.023.876.134 7.457.327 7.835.035.068.11.106.165.16l.088.007c2.655-.578 5.31-1.207 7.989-1.66-.081-1.612-.134-6.883-.528-7.968zm168.102.559c-.247 2.74-.591 5.465-.876 8.2 2.715.302 5.452.55 8.158.917.355-2.713.592-5.447.871-8.169-2.65-.459-5.47-.762-8.153-.948M28.519 67.962c-.014 3.365.019 6.745-.089 10.109-3.302 2.172-6.753 4.203-10.21 6.12 2.304-.155 4.599-.497 6.888-.79 1.425-.182 2.916-.288 4.324-.561 1.689 2.349 3.092 4.888 4.83 7.205l.947 1.37c-.638-3.41-.798-7.035-.951-10.497 2.941-1.671 5.68-3.69 8.634-5.324-3.37.249-6.831.747-10.209.628-.519-1.27-3.458-7.633-4.164-8.26m198.919.13c-.563 1.17-1.103 2.361-1.725 3.502-.698 1.282-1.504 2.54-2.077 3.883-3.402.292-6.805.648-10.21.891 2.759 1.634 5.76 2.682 8.732 3.844-.137 2.177-.295 4.386-.665 6.537-.134.778-.895 3.709-.802 4.205l.103-.123c1.635-2.753 3.205-5.643 5.067-8.248 3.208.36 6.438.745 9.661.914-2.156-1.784-6.03-4.663-8.412-6.046q.083-3.13.254-6.257c.045-.977.207-2.145.074-3.103m2.657 23.786c-1.013 2.394-2.058 4.868-2.849 7.344 2.108 1.497 4.318 2.922 6.524 4.272 1.05-1.833 2.166-5.118 2.745-7.186-1.254-1.32-4.732-3.474-6.42-4.43m-205.004.084c-2.197 1.457-4.3 3.06-6.413 4.635.508.997 3.42 6.222 4.269 6.544 2.166-1.532 4.364-3.06 6.443-4.708-.937-1.565-3.049-5.457-4.3-6.471m-4.308 14.65-4.288 5.978c-.941 1.309-1.992 2.632-2.768 4.045l6.686-.019q3.443-.084 6.887-.092c-2.144-2.86-4.25-7.536-6.517-9.912m214.084-.024c-2.32 3.135-3.891 6.766-6.127 9.946q3.91.122 7.822.038c1.956-.026 3.93-.096 5.882.013-1.306-1.981-5.927-8.861-7.577-9.997M17.519 122.704q-.025 2-.025 4c-1.42.597-2.933 1.134-4.28 1.87 1.437.253 2.88.502 4.293.877-.024 1.598-.135 3.194-.154 4.79 1.034-1.043 2.01-2.243 2.869-3.435l1.068.481c.967.516 1.95 1.013 2.876 1.6-.583-1.516-1.527-2.834-2.165-4.318.709-1.479 1.507-2.9 2.317-4.324-1.345.873-2.588 1.233-4.16 1.5-.756-.987-1.607-2.345-2.639-3.041m220.8.02q-1.543 2.22-2.962 4.52c-1.31-1.198-2.66-2.01-4.237-2.81.748 1.482 1.621 2.784 2.632 4.099-.927 1.518-1.763 3.004-2.425 4.663.785-.358 1.581-.702 2.344-1.103.764-.379 1.46-.782 2.148-1.288 1.026 1.17 2.081 2.339 2.962 3.624l-.273-4.78c1.502-.39 3.052-.735 4.525-1.221a39 39 0 0 0-4.347-1.111c-.035-.779-.025-4.145-.367-4.592m-9.723 16.603c2.011 3.329 3.95 6.542 6.274 9.666 1.398-.977 2.626-2.483 3.793-3.727 1.382-1.617 2.604-3.249 3.563-5.16q-6.811-.457-13.63-.779m-202.7.355-7.534.23c-1.478.051-2.998.036-4.464.237q.45.835.951 1.64.502.804 1.055 1.574t1.155 1.503 1.25 1.425c.91.96 1.836 1.965 2.9 2.757 2.05-2.466 4.248-6.536 5.967-9.363zm-3.48 13.315c-1.083 2.333-2.348 4.58-3.427 6.91 1.857 1.707 4.768 3.016 6.934 4.383q1.566-3.678 3.311-7.276-3.293-2.205-6.817-4.017m210.5-.024c-2.171 1.306-4.375 2.634-6.466 4.065.749 1.613 2.546 6.003 3.449 7.21.289.044.155.064.405-.04q3.368-1.898 6.637-3.96c-.772-1.535-2.884-6.31-3.899-7.235zm-12.594 12.108c.702 3.196 1.023 6.472 1.751 9.648-2.94 1.861-5.952 3.596-8.898 5.44 2.389-.28 6.881-.498 9.214-.163.931 1.23 1.684 2.589 2.516 3.888.833 1.302 1.731 2.568 2.608 3.841l.167-.087c-.08-3.037-.542-6.087-.698-9.128 1.451-1.103 2.962-2.106 4.433-3.179 1.223-.892 2.387-1.864 3.648-2.703-2.978.246-6.04.497-9.028.378-1.19-1.729-4.313-6.872-5.713-7.935m-184.17 22.702c-.244 2.62-.161 5.308-.174 7.939 2.628.567 5.25 1.308 7.883 1.816.026-2.61.268-5.23.264-7.831-2.645-.65-5.304-1.387-7.973-1.924m182.667.364c-2.367.545-4.711 1.18-7.075 1.735.093 1.53.106 6.277.657 7.433.209.044.343.05.553.011 2.323-.566 4.83-.994 7.048-1.891-.098-1.291-.257-6.6-.696-7.303-.167-.003-.321-.01-.487.015m-165.606 10.09c-.919.967-1.753 2.024-2.692 2.967q-1.584-.906-3.23-1.696.549 1.908 1.19 3.786c-1.057.774-2.124 1.573-3.086 2.465 1.27.164 2.573.28 3.832.51.239 1.396.428 2.831.828 4.191.717-1.067 1.368-2.183 2.098-3.24 1.351.377 2.706.77 4.024 1.25-.528-1.212-1.15-2.359-1.783-3.519 1.089-.825 2.137-1.664 3.136-2.599-1.29-.168-2.584-.342-3.886-.374-.063-.667-.128-3.325-.43-3.74m155.622.745c-1.184.86-2.41 1.887-3.687 2.59-1.523-.753-2.96-1.656-4.458-2.452.605 1.518 1.24 3.052 1.584 4.655l-3.538 3.594c1.452-.14 2.905-.298 4.358-.417l.39-.029c.894.794 1.543 3.135 2.184 4.257.406-1.422.761-2.906 1.27-4.293l5.086-.196c-1.29-1.15-2.75-2.097-4.155-3.1.264-1.038 1.162-3.72.966-4.609M58.582 211.479c.578 2.563.944 5.159 1.487 7.725q3.971.144 7.935.423c-.392-2.555-.94-5.083-1.293-7.643-2.704-.235-5.42-.314-8.129-.505m136.688.219c-1.929.123-3.864.162-5.79.291-.526 2.583-1.149 5.159-1.623 7.75l1.737-.102c2.058-.086 4.154-.144 6.198-.402.606-2.505 1.244-5.078 1.67-7.617-.728.017-1.467.007-2.192.08m-15.35 1.765c-.762 1.197-1.352 2.547-1.988 3.816l-2.616 5.187q-5.07-.68-10.093-1.643c2.516 2.088 5.533 3.796 8.145 5.843-.556 2.762-.538 5.628-1.014 8.404 1.783-2.664 3.751-5.34 5.718-7.871 2.735.089 5.511.263 8.234.531a34 34 0 0 1 2.629.19c-3.265-1.646-6.401-4.089-10.112-4.47.678.791 1.352 1.557 2.112 2.27-2.486-.102-4.76-.675-7.2-1.01q1.127.651 2.24 1.326c-.432.885-.895 1.756-1.322 2.643.12-.838.295-1.568.626-2.354-1.018-.662-2.106-1.236-3.108-1.913a41 41 0 0 1 3.963-.012c.343-.619.764-1.59 1.459-1.854-.347.678-.72 1.296-1.014 2.003.942.183 1.892.349 2.828.559-.393-.598-.965-1.347-.764-2.115.046-.175.07-.197.151-.334.266-.094.395-.073.668-.008.463-.774.673-8.15.458-9.188m-103.904.138c.222 2.744.45 5.477.57 8.228-2.952 1.896-5.804 3.93-8.71 5.895 3.41-.229 6.846-.058 10.256-.34 1.99 2.583 3.689 5.41 5.626 8.043l.161.108c.174-.85-.022-1.962-.068-2.832-.121-2.312-.32-4.649-.291-6.965 2.93-1.33 5.136-2.898 7.876-4.379q-5.567.476-11.154.522c-.791-1.648-3.221-7.275-4.266-8.28m106.802 6.638c-.897.626-1.984 1.242-2.656 2.108l-.048.289c.126.128.243.258.388.364.287.083.697.289.97.174.17-.33 1.482-2.683 1.403-2.869-.012-.027-.038-.044-.057-.066m-25.502 6.517c-1.768 2.139-3.3 4.573-4.857 6.872 2.462.903 4.884 1.903 7.373 2.733.442-.08.572-.423.822-.782 1.261-1.815 2.573-3.675 3.654-5.602-2.224-1.239-4.662-2.193-6.992-3.221m-58.482.495c-2.299.925-4.616 1.82-6.889 2.807.59.975 3.693 6.29 4.199 6.64l.244-.07 7.075-2.95c-.938-1.52-3.117-5.402-4.416-6.386zm40.635 2.006c.121 4.408.49 8.802.561 13.213q2.816-2.249 5.657-4.465c1.46-1.14 3.005-2.239 4.397-3.457-3.444-1.931-7.101-3.492-10.615-5.29m-22.725.506q-5.293 2.345-10.523 4.828c1.629 1.315 3.173 2.755 4.825 4.035 1.669 1.389 3.39 2.76 4.954 4.267.152-1.55 1.133-12.322.744-13.13m11.389.061q-.698 2.212-1.355 4.435l-5.371.003c1.544.882 3.031 1.856 4.526 2.818l-1.705 5.041c1.316-1.143 2.687-2.203 4.07-3.263 1.109.222 3.155 2.222 4.12 3.02-.544-1.597-1.289-3.22-1.652-4.864 1.47-.812 2.79-1.805 4.163-2.765-1.712.004-3.43-.018-5.141.018-.52-1.429-.938-3.116-1.655-4.443"/><path d="M83.027 30.912c-.197-.05-.385-.127-.576-.197-.341-1.11 1.063-6.396 1.408-7.77.287.672.437 6.903.533 8.17zm94.06-.441-.398-1.668c.48.892.818 1.793 1.87 2.13 1.059.338 2.591-.078 3.708-.127-.882.307-1.723.524-2.644.679.046 2.064-.128 4.084-.326 6.135a51 51 0 0 1-.803-6.095c-.43-.272-.821-.496-1.124-.917l-.05-.07zm-2.434.172-.556-1.45c1.277.803 2.59 2.638 3.075 4.053a24 24 0 0 1-1.629-1.43c-.836.198-1.656.332-2.51.436.744-.286 1.5-.499 2.267-.711l-.284-.297c-1.023.043-2.97 1.12-4.35 1.359 1.35-.596 2.667-1.3 3.987-1.96m-96.97 1.569c-.413-.335-.999-.723-1.093-1.269.038-.011.075-.028.114-.035.574-.1 1.647.33 2.101.661l.037.18-.037-.18.123-.244c.346.092.482.293.736.535.63-.728 1.243-1.504 1.956-2.151-.206.548-.534 1.103-.44 1.683a5 5 0 0 0 .694.628c-.574-.078-1.245-.14-1.764.179-.097.06-.132.109-.2.188.526-.07 1.554-.041 1.964-.367.532.083.978.262 1.47.476-.898.023-2.228-.073-3.061.218-1.019.356-1.372 1.715-1.807 2.603.162-.67.55-1.655.203-2.286l-.304-.033c-.253.194-.51.371-.705.627l.26.395c.013.58-.36 1.294-.563 1.84.018-.486.06-.982-.035-1.46q-.087-.434-.155-.871c-.097-.648.13-.818.506-1.318m-.415-.874c.378.434.741.755 1.29.954-.385-.466-.652-.879-1.29-.954"/><path d="M177.576 33.297c-.294-.591-.89-1.626-.811-2.299.037-.319.08-.357.322-.527l.232.068c-.151.917.098 1.856.257 2.758m-100.407-.624c-1.028.062-3.419-1.45-4.452-1.916.928-.04 3.46.46 4.135 1.08.27.249.287.498.317.836m55.763 186.94c-18.022.573-34.575-3.122-50.29-12.048q-2.017-1.13-3.975-2.358-1.958-1.23-3.852-2.554-1.894-1.326-3.719-2.744t-3.577-2.927q-.862-.74-1.705-1.502-.843-.761-1.667-1.543t-1.628-1.585-1.588-1.624-1.548-1.663-1.507-1.7-1.464-1.738-1.42-1.773-1.376-1.808-1.331-1.841T51 178.331q-.632-.944-1.239-1.904t-1.19-1.935q-.584-.975-1.143-1.964-.56-.989-1.094-1.991-.535-1.002-1.045-2.018t-.993-2.043-.944-2.067-.891-2.09-.84-2.11-.787-2.132-.735-2.15-.68-2.167q-.328-1.088-.628-2.184-.3-1.095-.573-2.198t-.519-2.212q-.245-1.11-.463-2.224t-.408-2.235q-.19-1.12-.354-2.244-.162-1.125-.297-2.253t-.242-2.259-.185-2.264c-1.684-22.993 6.55-47.237 21.604-64.663C71.44 52.72 89.998 41.378 111.265 37.368c3.964-.747 7.905-1.145 11.925-1.44q.026-.004.053-.006c3.49-.249 7.127-.118 10.618.097q.933.059 1.864.136.93.078 1.86.175t1.856.212q.927.116 1.852.251.924.134 1.846.288.921.154 1.84.326.918.172 1.832.363.915.191 1.826.4.91.21 1.816.438.906.229 1.807.475t1.797.511 1.786.548 1.775.585 1.762.62 1.75.657q.871.337 1.735.691.864.355 1.721.727.857.373 1.706.763.85.39 1.69.797.841.407 1.674.83.832.425 1.656.865.823.441 1.638.9.815.457 1.62.931.804.474 1.6.965.794.49 1.58.997.785.507 1.559 1.03.774.522 1.538 1.06.763.538 1.516 1.092.752.554 1.494 1.123.74.569 1.47 1.153.729.584 1.446 1.183t1.422 1.212c3.844 3.296 7.383 7.024 10.633 10.903 12.085 14.423 19.822 31.921 21.27 50.756q.09 1.144.151 2.29.062 1.146.095 2.293t.037 2.296-.02 2.295q-.023 1.147-.076 2.293t-.134 2.292q-.081 1.144-.19 2.287-.11 1.143-.248 2.282t-.304 2.275-.361 2.267q-.195 1.13-.417 2.256t-.473 2.246q-.25 1.12-.529 2.234-.278 1.114-.584 2.22t-.639 2.204-.694 2.188-.748 2.17-.801 2.15-.855 2.13-.908 2.109-.96 2.085-1.01 2.06q-.52 1.024-1.063 2.035-.544 1.01-1.112 2.007-.57.997-1.163 1.98-.593.982-1.21 1.95-.618.966-1.26 1.918-.641.952-1.306 1.887-.665.936-1.353 1.855t-1.399 1.82q-.71.9-1.443 1.784-.733.883-1.488 1.748c-17.109 19.917-38.705 29.76-64.7 31.726m-9.557-143.875c-.262.176-.448.3-.638.56-.048.035-.121.056-.14.113l.133-.079.007-.035c.127.113.236.25.38.338.728.45 7.836.313 9.081.322l-.162-.286c-1.214-2.113-2.724-2.688-4.965-3.29.772 1.827 1.448 1.217 2.962 1.898l.138.064c-1.01.029-5.143-.125-5.794.303-.122.08-.207.207-.31.31a19 19 0 0 0-.282-.484c-.253.077-.235.035-.41.266m26.202 7.535-.076.075zc1.534-.386 3.078-1.221 4.539-1.84q5.794-2.445 11.516-5.052c8.122-3.652 16.386-7.073 24.426-10.9l-.724-.738-.924-.887c-2.3.943-4.51 2.183-6.726 3.312q-5.197 2.655-10.424 5.25-5.575 2.829-11.181 5.594c-3.482 1.69-7.156 3.32-10.502 5.26M71.66 128.452l.116.018c2.463.413 4.748 1.394 7.275 1.547 3.253.198 6.302-.576 9.248-1.913 2.268-1.029 4.462-2.236 7.004-2.36 1.17-.058 2.352.078 3.5.29.753.138 4.659 1.33 5.077 1.17 1.091-.412 1.95-.066 2.956.403 1.214.566 3.684 2.783 4.966 2.377.256-.284.449-.585.415-.988-.05-.592-.537-1-1-1.3-1.208-.782-2.708-1.186-4.045-1.7 1.628.131 3.463.438 4.982 1.055l2.127-20.632c.33-3.322.398-7.356 1.092-10.572-.367-.401-1.068-1.031-1.253-1.531-.2-.538-.014-4.563.023-5.508q.005-.126.014-.252 1.417-.065 2.836-.044c.215-1.482.242-7.912-.112-9.303-.683-.362-1.43-.69-2.026-1.185-.066-.281-.002-.419.1-.683.412-.387.855-.334 1.382-.318l.144.005c1.52-2.37 3.043-4.019 5.896-4.643.725-.158 1.74-.21 2.374-.576-.026-.054-.056-.105-.078-.161-.15-.382-.126-1.048.088-1.41.09-.153.123-.172.236-.282.339.02.295.059.523.282.222.596.15 1.213.141 1.837 2.69.451 5.065.979 6.731 3.366.34.486.602 1.028.867 1.557.543-.01 1.069-.067 1.577.154.109.131.21.17.169.355-.123.563-.912 1.071-1.345 1.418-.163 3.183-.386 6.569-.115 9.747 1.084.002 2.15-.138 3.228-.16.053.97.264 5.806-.178 6.282-.404.436-.762.519-.822 1.184-.062.672.104 1.457.158 2.14.16 2.047.388 4.117.504 6.163.275 4.863.493 9.724.883 14.581.111 1.384-.008 2.752.241 4.129 3.14-1.46 6.696-2.913 10.162-1.661 2.006.725 3.486 2.18 4.962 3.66l-.196-.029c-2.344-.366-4.53-1.463-6.945-1.376-2.036.073-6.809 2.12-7.243 2.09l-.323-.484-.118.058c-.22.94.048 2.136.178 3.084 3.213-2.305 6.562-2.656 10.409-2.032 5.525.897 9.035 1.608 14.607-.443-5.886 3.882-13.018 4.014-19.775 3.186 9.274 4.957 14.243 1.362 23.452.194-1.678 1.015-3.022 2.373-4.54 3.591-3.22 2.584-6.792 3.964-10.89 2.98-1.342-.323-2.655-.837-4.007-1.102-3.052-.6-6.15 1-8.825 2.278.032.99.04 1.99.13 2.977 2.76-1.375 5.958-3.486 9.13-2.432 2.634.875 4.862 2.351 7.322 3.569 1.998.988 4.227 1.607 6.403 2.057-4.275.606-9.019.84-13.024-1.014-1.214-.562-2.525-1.632-3.877-1.747-1.94-.165-4.093.925-5.857 1.627.028.514.06 1.028.071 1.542l.163.052c.33-.405-.045-.788.228-1.215l.159.085c-.022.215-.04.427-.08.64l.08.127c1.66-.218 3.156-1.41 4.839-1.315 1.374.077 2.47 1.09 3.663 1.671 3.995 1.947 9.032 2.098 13.357 1.444q1.359-.21 2.703-.502 1.344-.291 2.668-.662 1.325-.37 2.625-.819t2.57-.973c3.677-1.53 7.124-4.55 11.301-4.46 4.298.091 8.18 2.536 12.218 3.762 3.594 1.091 7.07 1.251 10.791 1.264-3.016 1.172-6.473 1.706-9.541.385-1.174-.506-2.238-1.286-3.43-1.744-3.548-1.362-7.593.15-11.022 1.302 1.299.244 2.585.47 3.91.525 1.666.07 3.365-.073 5.002.307 2.126.494 3.966 1.798 6.097 2.292 6.855 1.591 12.659-3.386 18.504-6.036q.196-1.836.436-3.667l-.222.116c-.977.52-1.92 1.29-2.834 1.924-3.004 2.082-4.758 3.563-8.597 3.483q-1.152-.026-2.29-.206-1.137-.179-2.24-.508c-3.14-.916-6.02-2.52-9.016-3.797-5.193-2.215-10.105-2.5-15.129.218-5.058 2.737-9.89 5.939-15.885 4.168-2.064-.61-3.782-1.85-5.501-3.098 1.957-.175 3.802-.81 5.525-1.747 2.13-1.157 3.93-2.758 5.767-4.317 1.333-1.13 2.651-2.35 4.162-3.239 4.279-2.52 9.543-1.991 14.122-.693-9.867-.335-11.3 4.544-19.235 8.004q-1.45.635-2.961 1.107c-1.191.37-4.185.892-5.05 1.512l.083.149c1.39.28 2.798.152 4.187-.08 3.988-.67 7.497-2.708 10.882-4.817 2.81-1.751 5.793-3.91 9.172-4.318 3.383-.408 6.325 1.293 9.372 2.464 3.76 1.445 7.853 2.213 11.858 1.455 1.582-.3 3.05-.927 4.395-1.81 1.895-1.244 3.795-2.998 5.374-4.632 1.47.686 2.822 1.325 4.42 1.662-.047-.99-.113-1.986-.114-2.978l-.16-.03c-1.725-.34-3.35-1.328-4.928-2.086-5.392-2.59-9.314-.4-14.076 2.334l-1.347-.064c2.666-2.731 6.2-6.289 10.301-6.378 2.826-.061 6.933 2.565 10.131 3.271q-.077-1.963-.249-3.92-.173-1.958-.44-3.904-.268-1.947-.63-3.879-.362-1.93-.817-3.842-.456-1.912-1.004-3.799-.547-1.887-1.187-3.745-.639-1.858-1.368-3.683-.728-1.824-1.545-3.611c-1.258-2.813-2.604-5.64-4.307-8.216-7.91 1.695-15.715 3.854-23.598 5.676-8.967 2.072-18.007 3.799-27.006 5.723-1.302.278-8.158 2.055-8.867 1.793-.025-.186-.081-.258.04-.423.308-.417.948-.573 1.424-.701 1.787-.481 3.631-.803 5.433-1.23l18.578-4.226c6.763-1.528 13.445-3.36 20.183-4.98 4.277-1.029 8.651-1.87 12.875-3.092-.741-1.637-1.98-3.188-2.99-4.679-8.925 2.301-17.722 5.005-26.578 7.55q-7.773 2.164-15.569 4.24l-9.179 2.558c-1.341.382-2.766.963-4.135 1.187-.232-.201-.203-.197-.226-.507.371-.697 1.392-.92 2.104-1.137 3.11-.947 6.194-2.228 9.258-3.342 9.498-3.453 18.887-7.224 28.36-10.748 4.178-1.554 8.3-3.185 12.563-4.499-1.126-1.378-2.235-2.78-3.423-4.104-3.628 1.554-7.425 2.823-11.13 4.186l-22.195 8.062c-3.777 1.38-7.49 2.94-11.247 4.376-1.392.531-2.808 1.204-4.245 1.583l-.283-.118-.05-.247c.25-.368.68-.555 1.073-.74 1.366-.638 2.842-1.12 4.253-1.655 1.93-.731 3.852-1.508 5.767-2.275q13.878-5.571 27.887-10.801c3.047-1.165 6.128-2.241 9.16-3.444-.595-.633-1.177-1.301-1.809-1.896-4.752 1.832-9.447 4.034-14.125 6.063q-10.342 4.539-20.834 8.722c-3.439 1.39-7.607 3.484-11.08 4.409-.22-.18-.165-.212-.2-.48.2-.469.474-.697.908-.96 1.135-.691 2.429-1.184 3.62-1.78q3.79-1.917 7.558-3.88l30.432-15.8c-.423-.391-.834-.79-1.306-1.121-4.011 1.843-7.846 4.093-11.734 6.181l-19.849 10.598c-3.074 1.63-6.255 3.703-9.442 5.025l-.235-.101c-.1-.324-.105-.364-.016-.69 1.112-.881 2.733-1.53 4-2.216q4.688-2.579 9.417-5.08c7.596-4.067 15.065-8.382 22.648-12.474 1.41-.718 2.835-1.416 4.226-2.168-16.133-14.64-39.459-22.078-61.055-21.05q-.776.04-1.551.093-.776.052-1.55.118-.774.067-1.547.147t-1.545.173-1.541.201q-.77.107-1.538.228t-1.533.255-1.529.282-1.523.309-1.518.335-1.511.363-1.505.389q-.751.2-1.499.415-.746.214-1.49.441-.743.228-1.482.468-.74.24-1.474.494-.735.253-1.465.52-.73.266-1.456.545-.725.279-1.445.57-.72.293-1.435.597t-1.425.622-1.414.646q-.704.33-1.402.671-.698.342-1.39.696-.691.354-1.377.72-.686.367-1.364.745-.68.378-1.352.768t-1.337.792-1.323.816q-.659.413-1.31.838-.65.425-1.293.862-.643.436-1.278.884c-3.057 2.136-6.114 4.432-8.789 7.04 2.229.94 4.347 2.139 6.477 3.28l8.837 4.728 15.787 8.344c2.185 1.152 4.431 2.217 6.583 3.428.433.243.877.52 1.16.935l.022.224c-.17.17-.284.191-.533.192-1.052.003-34.845-18.133-39.454-20.146-.541.445-1.102.878-1.605 1.366 3.788 1.81 7.516 3.741 11.3 5.557q10.572 4.986 21.006 10.254c2.284 1.128 4.616 2.182 6.88 3.348.465.24 1.878.888 2.09 1.294l-.153.122c-.792-.146-6.672-3.041-7.862-3.579l-34.377-15.83q-.635.775-1.294 1.53c3.225 1.709 6.756 2.98 10.104 4.441q12.03 5.232 24.115 10.338l5.966 2.603c.943.4 1.923.73 2.832 1.204.358.187.73.396.905.778-.025.306.042.19-.166.368-1.435-.347-2.865-1.15-4.229-1.732q-3.821-1.632-7.668-3.202l-21.441-8.725c-3.888-1.594-7.733-3.296-11.644-4.83l-1.394 1.626L87.673 81.01c6.216 2.361 12.56 4.534 18.699 7.082.412.171.86.357 1.133.723l-.099.168c-3.332-.742-6.618-2.26-9.859-3.35q-13.63-4.664-27.109-9.754c-3.468-1.277-6.914-2.75-10.424-3.898-1 1.157-2.023 2.379-2.878 3.646 2.871.939 5.633 2.192 8.473 3.221l20.77 7.362q7.39 2.587 14.741 5.281c1.766.638 4.746 1.478 6.267 2.291.116.274.11.438.082.732-.799.103-35.05-11.662-38.872-13.01-4.18-1.475-8.303-3.158-12.504-4.557l-1.326 1.938 37.9 12.151c1.676.524 14.441 4.234 14.774 4.477.062.275.058.259-.085.504-1.021.12-6.364-1.572-7.564-1.909q-14.683-4.1-29.25-8.597l-11.563-3.718c-1.691-.54-3.375-1.145-5.09-1.605-.49.664-1.011 1.321-1.463 2.012 5.888 1.47 11.695 3.241 17.534 4.89l21.377 5.898c2.356.654 4.723 1.303 7.067 1.996 1.377.407 2.726.94 4.126 1.262-2.124-.324-4.147-.871-6.226-1.389q-4.362-1.065-8.712-2.181c-7.265-1.82-14.563-3.475-21.816-5.355-4.662-1.208-9.285-2.686-13.968-3.788-.42.747-.864 1.49-1.212 2.272 5.248.87 10.502 2.211 15.704 3.346l27.71 5.977q3.891.849 7.807 1.575c1.648.293 3.457.439 5.052.94.319.1.36.148.555.403l-.035.193c-.348.103-.686.036-1.036-.018-1.338-.207-2.654-.574-3.986-.822l-15.81-3.056-28.428-5.499c-2.793-.55-5.602-1.27-8.414-1.688-1.344 2.361-2.446 4.865-3.489 7.37q-.71 1.677-1.347 3.382t-1.2 3.436-1.051 3.485-.9 3.526q-.412 1.773-.747 3.563-.335 1.789-.592 3.59-.258 1.803-.438 3.614-.18 1.812-.28 3.629c4.713 2.41 8.932 5.667 13.575 8.202-5.607-.258-8.858-3.22-13.742-5.236l-.005 2.783c4.458 3.324 8.844 5.92 14.622 5.102 4.331-.614 9.592-3.757 13.208-3.964 4.725-.27 8.939 4.564 13.944 4.972 2.726.223 5.496-.214 8.099-1.024 3.394-1.055 9.815-4.623 12.994-3.968 2.565.529 5.973 2.802 8.175 4.27-3.023.517-5.952 1.65-8.791 2.777-5.186 2.057-10.346 4.3-15.964 4.82-8.062.748-11.555-2.833-18.266-5.8-1.635-.724-3.332-1.352-5.121-1.537-2.053-.212-3.707.338-5.574 1.125-6.81 2.87-9.65 3.838-16.89 1.22q.243 1.904.52 3.802l.203.013c2.724.191 5.419 1.028 8.167.662 4.444-.592 8.97-4.101 13.032-3.942 3.003.117 5.952 1.69 8.553 3.074 1.97 1.048 3.906 2.185 6.021 2.922 9.638 3.357 18.762-.996 27.71-4.27 1.07-.391 5.429-2.011 6.354-1.883.242.034.324.141.488.297.468-.405.54-1.59.574-2.189.017-.291-.058-.459-.185-.713.182-.805.62-2.029.292-2.824-.566-.54-1.812-.615-2.56-.942-2.829-1.235-4.908-3.214-8.196-3.15-2.37.046-4.716.878-6.89 1.757-7.032 2.844-10.958 5.349-18.343 1.6-1.326-.673-2.805-1.397-4.013-2.254m72.04 67.886c6.33 1.888 10.298 2.768 16.369-.523 3.394-1.84 7.934-5.287 12.02-4.09 4.11 1.203 4.553 5.73 9.55 5.798-.787-1.166-1.798-2.17-2.763-3.188-1.91-2.014-4.015-4.507-6.883-5.056-5.895-1.13-11.764 5.545-17.693 5.905-1.69.103-3.414-.232-5.042-.657q-1.84-.489-3.619-1.166-1.78-.678-3.478-1.536c-4.674-2.383-9.02-5.602-14.472-5.915-7.523-.433-13.43 7.044-22.42 6.192-7.302-.692-12.69-8.465-17.499-8.737-.861-.049-1.717.3-2.484.661-.928.438-1.803.987-2.641 1.576-4.346 3.052-8.601 6.266-13.817 7.688l.856.864c2.269-.448 4.327-1.273 6.369-2.352 2.99-1.58 7.375-5.102 10.677-5.238 1.129-.047 2.234.555 3.152 1.162 3.049 2.017 6.44 5.622 7.527 9.198-.585-.47-1.103-1.069-1.656-1.583-1.805-1.678-3.694-3.43-5.84-4.657-.85-.485-1.916-.978-2.917-.763-1.681.36-4.489 3.305-5.911 4.458-1.036.84-2.113 1.656-3.26 2.337-1.118.663-2.21 1.043-3.46 1.39l1.797 1.19q.502-.17.992-.372c1.353-.567 2.659-1.314 3.916-2.069 1.301-.781 4.787-3.493 6.035-3.618 2.291-.23 8.893 7.007 10.846 8.754 1.851 1.656 3.77 3.32 5.986 4.47 1.908.992 3.972 1.564 6.128 1.574 2.208.01 4.364-.463 6.408-1.283q1.925-.787 3.729-1.821c2.588-1.475 8.203-5.523 11.173-5.136 4.823.628 6.529 7.748 16.356 8.124-1.612-.645-3.115-.976-4.585-1.984-3.553-2.437-5.884-7.445-10.073-8.598-4.053-1.116-9.34 3.036-12.792 4.997-3.68 2.092-7.715 3.847-11.994 2.636-4.08-1.155-7.337-4.392-9.374-8.007 1.317 1.182 2.612 2.223 4.221 2.988 11.253 5.352 16.707-5.056 26.11-8.342 1.012-.353 2.59-.87 3.661-.621 2.69.624 8.054 6.717 10.402 8.776 1.7 1.492 3.563 2.916 5.618 3.886 5.985 2.828 10.365-.222 15.94-2.183 4.005-1.409 7.355-1.25 11.17.587.814-.418 1.601-.887 2.393-1.346-1.343-1.24-3.082-2.244-4.765-2.943-8.317-3.452-12.709 3.983-20.461 3.56-3.564-.194-7.152-2.38-9.502-4.987M126.405 73.81c.08.3.088.663.388.825.149.08.382.112.549.152-.271-.468-.41-.774-.937-.977m-.631.628-.038.1.091-.04.04-.089zm72.284.428q-16.96 5.87-33.785 12.112-2.974 1.098-5.96 2.163c-1.048.37-2.421.67-3.361 1.25.47-.036.875-.142 1.326-.276q9.761-2.856 19.473-5.877c7.982-2.511 15.998-5.155 24.152-7.055-.392-.583-1.22-2.125-1.845-2.317M119.2 78.928c-.457.043-.832.04-1.208.323l-.01.194c1.367.895 11.35.597 13.663.54a4.6 4.6 0 0 0 1.204-.454l.128-.225c-.364-.413-1.126-.439-1.658-.47-3.842-.221-8.223.05-12.12.092m.619 2.004c-.328.121-.531.251-.693.568-.404.793-.374 5.577-.042 6.423.047.12.064.14.13.264.59.189 6.474.128 7.435.038.168-.195.201-.285.28-.523l.191.018.357.553c.813.088 1.666.03 2.485.018l1.546-.015c.021-2.18.323-5.108-.19-7.182-3.784-.301-7.701-.138-11.5-.162m-3.758 8.699c-.062.699-.219 1.465.023 2.136.27.258.418.218.782.256.022-.702.156-1.52-.143-2.166-.228-.137-.4-.181-.662-.226m17.92-.077c-.422.69-.361 1.562-.216 2.334l.175.187c.258-.03.358-.066.556-.235-.005-.533-.246-1.045-.228-1.522l.098.219c.032-.363.102-.513-.094-.828zm-18.891.1c-.102.757-.17 1.451-.024 2.206a1 1 0 0 0 .376.236c.036-.508.262-1.984-.158-2.341-.055-.047-.13-.067-.194-.1m10.05.03c-.483.58-.49 1.025-.417 1.758.03.3.058.597.197.868.46-.495.434-.952.41-1.617-.013-.374-.026-.668-.19-1.008m1.099-.034c-.095.78-.184 1.499-.023 2.275.155.163.193.203.413.282.151-.759.201-1.528.042-2.288-.18-.19-.198-.2-.432-.27m1.372.044c-.244 1.088-.156 2.343-.086 3.455.146.12.211.164.394.23-.211-1.021.332-2.958-.308-3.684m1.004-.013a5.35 5.35 0 0 0-.052 2.175l.253.261c.141-.745.182-1.474.04-2.222zm1.376.016c-.015.729-.138 1.555.098 2.247.261.197.353.16.685.165.024-.725.154-1.545-.102-2.23-.22-.186-.401-.168-.68-.182m5.496-.014c-.318.66-.377 1.882-.106 2.569.016.04.04.077.059.116.3-.539.345-1.82.18-2.411-.038-.142-.063-.165-.133-.273m-16.135.101c-.111.726-.154 1.354.045 2.069l.293.247c.064-.559.284-1.633-.027-2.118-.07-.11-.198-.143-.31-.198m1.283.03c-.052.655-.103 1.263.006 1.917l.216.212c.056-.627.149-1.248.03-1.871zm.99-.051c-.03.73-.129 1.51.04 2.226l.177.102.237-.083c.082-.568.338-1.534-.002-2.037-.097-.144-.296-.158-.452-.208m3.26 3.12-.012.307c.236.028.13.058.315-.084l-.013-.222c-.26-.019-.168-.046-.29 0m1.402.118-.043.2.313-.065.06-.193zm2.22-.113.101.3c.184.036.251.047.44.006l.073-.248c-.222-.073-.381-.072-.613-.058m1.373.017c.05.139.047.274.195.335.233.095.504.05.75.035-.075-.146-.107-.324-.274-.373-.225-.067-.442-.022-.67.003m3.597.01c.26.25.288.28.641.346.17-.065.355-.123.518-.205-.403-.128-.738-.142-1.159-.141m1.945.124-.014.104h.089l.023-.123zm-16.013.054.157.142.192-.076-.192-.112zm1.009.012.105.103.064-.052-.078-.107zm1.25.013.131.07zm3.16 3.066c-.36.028-.714.055-1.077.055a1.05 1.05 0 0 0-.593.159c-.297.365-.333 1.118-.298 1.577a.83.83 0 0 0 .157.431 6 6 0 0 0 .575-.112l.041.157-.13.164-.526-.063c-.232.23-.272.38-.342.697.09.305.212.522.376.791-.058.956-.427 1.866-.361 2.822q.208.222.42.44l-.095.147c-.232.367-.409.658-.507 1.082l.075.219c.255.097.489.151.757.197l.044.156-.221.049a3 3 0 0 0-.597.204c-.055.299-.04.285.123.546.554.194 1.098.28 1.675.367-.473.442-1.743.35-1.898 1.051.495.43 6.885.302 7.979.309 1.082-.022 2.544-.229 3.575.074.448-.716.05-5.787-.023-7.005l-.311-.346c.09-.556.295-.87.176-1.439-.091-.437.02-1.635-.29-1.915-.054-.05-.12-.086-.18-.129l.228-.367-.09-.201c-1.729-.336-4.86-.017-6.832-.126-.312-.017-.441.314-.727.204-.408-.158-.666-.219-1.102-.196m-1.721 13.005c-.06.038-.117.083-.18.115-.049.024-.239.078-.298.096.005.321.025.263.227.481.383.002.599-.04.955-.18.49.145 1.036.347 1.544.402.883.095 1.853.018 2.748.017l5.677-.02c.467-.074.46-.07.77-.426l.023-.256c-.083-.067-.155-.151-.25-.2-.612-.317-9.82-.162-11.106-.042zm2.28 2.234-.234.068c-.2.055-.3.061-.511.06-.357 0-.663.12-.998.23l-.341-.217c-.281.168-.343.138-.466.457.248.294.695.319 1.055.355 2.61.265 5.436.04 8.069.03.913-.024 1.915.028 2.735-.421l.075-.192c-1.07-.748-7.811-.436-9.383-.37m7.73 2.27c-1.517.123-8.58-.07-9.07.168a9 9 0 0 0-.303.288c-.054.059-.101.123-.151.184-.398.126-.613-.079-1.005.046l-.123.243c.538.306 1.433.137 2.06.228l.115-.19c.04.027.075.059.118.08.53.263 9.285.222 10.052-.044.186-.064.167-.166.234-.335-.112-.312-.123-.319-.4-.502-.505-.025-1.044-.011-1.527-.167m-9.144 2.419c-.129.188-.473.576-.5.784 1.305.46 9.452.242 11.37.226.163-.257.189-.386.189-.69l-.165-.25c-1.237-.229-2.613-.11-3.87-.103-2.34.014-4.686.072-7.024.033m-1.034.033c-.075.365-.144.48.007.83l.311.2c.104-.33.165-.448.095-.792a1.4 1.4 0 0 0-.413-.238m-.293.352.092.037zm3.325 1.837c-.91.402-1.584-.136-2.34.094-.4.121-.66.63-1.139.536-.054-.011-.196-.084-.251-.11-.32.554-.439 3.053-.22 3.676.065.187.076.184.175.32l.198.028c.2-.204.247-.322.37-.575.25-.519.596-.913.978-1.338.818.464 1.917.707 2.202 1.648l-.093.093q-.052-.06-.108-.12c-.156-.162-.085-.11-.29-.19-.1 1.257.948 1.476-.197 2.765-.246.07-.434.091-.69.085.124.315.398.455.37.797-.24.135-.445.224-.73.163-.597-.127-1.187-.722-1.694-1.05 0-.604.045-1.208-.157-1.785l-.178-.127-.226.118c-.086.645.328 1.14.077 1.763-.316.785.282 2.758.306 3.685.767.157 1.545.099 2.322.14l.201-.013c1.788-.111 3.802.05 5.606.122.714.029 1.492.145 2.196.049 1.007-.137 1.66-.756 2.597-.102.196-.04.24.002.349-.19.164-.287.234-.62.136-.942-.88-2.87-.046-6.678-.78-9.24-1.43-.681-7.953.257-8.99-.3m-.851 4.968c-.095.346-.21.619-.06.968l.227.183c.059-.344.158-.671.018-1.005zm-14.001 3.68.138.11.129-.058c-.088-.021-.179-.072-.267-.052m20.35 3.327c-1.85.015-6.144-.279-7.762.336-.142.219-.144.16-.126.453a1.9 1.9 0 0 1-.617.307l.005.13c.24.14.36.224.641.193.24-.205.296-.38.408-.665l.183.012c.149.181.192.312.248.538.528.12.822-.448 1.247-.108.139.111.079.08.179.123 1.323.003 8.905.194 9.498.024.089-.025.151-.106.227-.159.118-.388.005-.72-.084-1.101-.522-.312-3.284-.088-4.047-.083m-8.498.138c-.333.345-.69.664-.881 1.111l.117.138.112-.017c.296-.274.768-.61.877-1-.154-.212-.066-.148-.225-.232m12.703 2.547.136.069zm-11.793-.026-.346.36-.184-.022c-.449-.046-1.187-.009-1.533.312-.129.119-.1.233-.118.396.827.461 10.65.197 12.466.189.768-.024 1.54-.032 2.305-.081-.377-.284-.977-.879-1.383-1.043-1.185-.478-8.29-.12-9.832.09-.293.04.002-.001-.328.078-.332.08-.772-.102-1.047-.28m9.182 2.47c-1.337.006-10.7-.071-11.413.419.031.383.065.379.338.658l.225-.002.372-.465c.363.09.567.83.97.599.222-.128.297-.292.428-.504l.065.084.154.364.215.005.167-.321.06.074.02-.23c.147.155.273.312.4.484 2.843.024 8.099.318 10.687-.193.192-.236.137-.28.138-.572-.141-.248-.177-.397-.492-.446-.696-.11-1.618.024-2.334.046m-11.154 2.493c.146.453.57.342.716.712-.249.08-.473.103-.728.138-.152.021-.096.006-.231.092.129.227.094.214.347.357.19-.14.202-.182.448-.205l.352.355.204-.161.053-.818c.229.054.377.06.553.224.098.323.08.537.383.713.146-.298.245-.703.547-.844l.138.112-.217.398c.64.484 6.561.178 7.681.161 1.343-.012 2.727.044 4.061-.105l-.151-.092.22.066c-.043-.142-.12-.275-.142-.422-.01-.057.03-.286.04-.349-.487-.477-1.208-.43-1.857-.427zm-11.586 1.459c-3.636.924-7.056 2.512-10.552 3.85-1.562.597-3.193 1.242-4.805 1.689-.732.202-1.487.317-2.22.514.34.131.675.1 1.032.092 1.546-.092 3.06-.268 4.575-.602 3.064-.677 5.969-1.927 9.002-2.707.713-.183 2.883-.28 3.274-.558.063-.478.385-1.944.117-2.3zm19.059.968c-.053.029-.102.062-.157.085-.244.105-.377.081-.63.064-1.367-.093-6.087-.184-7.02.572-.108.088-.072.103-.091.263.325.213.647.225 1.022.266l.096.078-.225.067.252-.113.124.174c-.204.545-1.121.634-.875 1.278.698-.028 1.282-.656 1.93-.235.057.241.095.468.118.715l.146.069c.303.145.574.229.739.54-.053.26-.174.413-.327.625.157 1.359.668 3.35-.247 4.513-.546.695-2.528.397-2.626 1.096l.296.372c-.3-.142-.6-.285-.905-.417.112.603.287.925.812 1.268.934.609 2.14.67 3.216.641 3.975.072 8.02.113 11.988-.127.143-.26.139-.374.138-.674-.004-.851-.214-1.74-.292-2.593-.144-1.564-.174-3.115-.172-4.685a2.7 2.7 0 0 0-.421-.45c.129-.152.228-.209.397-.309.008-.477-.272-.59-.333-.973-.088-.55.099-1.109-.03-1.693-1.401-.912-5.916.225-6.923-.417m-76.733 1.33c-4.01.258-7.991.19-12.006.114l.275 1.844c3.643-.082 7.672.575 11.237-.21 4.914-.667 7.48-.791 12.414-.204-3.64-1.617-7.983-1.886-11.92-1.544m162.285.933c-1.818.969-3.658 1.911-5.578 2.664-1.196.47-2.527.767-3.672 1.333l.095.129c1.887-.264 8.172-1.985 9.195-3.618.095-.151.089-.168.125-.317zm-40.862.151c-3.277 1.068-5.56 3.82-8.81 5.05-6.269 2.374-12.383 1.095-18.803.681-2.024-.13-4.037-.013-6.061-.034-.43-.386-.857-.779-1.304-1.146.149 2.006.286 4.02.617 6.007 2.72.706 5.446 1.067 8.25 1.158 4.543.147 9.903-.846 14.097 1.263 2.057 2.888 2.974 11.833 4.02 15.771 7.104.981 11.234 5.709 17.081 8.976 2.308 1.29 4.743 2.142 7.339 2.63 1.32.248 2.87.569 4.214.428-2.393-.418-4.396-1.52-6.59-2.493-4.266-1.89-7.83-3.461-11.845-5.958-2.766-1.72-5.33-3.814-8.355-5.079-.175-.969-.392-1.948-.501-2.925 2.472 1.193 4.378 3.141 6.63 4.66 4.568 3.08 10.035 5.603 15.604 5.747 3.372.087 6.855-.39 10.218-.662l1.596-1.942c-5.454-.29-11.645-2.654-15.902-6.083-1.843-1.484-3.444-3.293-5.399-4.63 3.886.444 7.792 1.052 11.71.7 3.684-.33 7.375-1.731 10.917-1.913 1.783-.091 3.55.182 5.304.465.341-.788.7-1.572 1.022-2.367-7.732-1.825-11.608.693-18.632 1.917-3.296.574-6.674.647-10.011.722-1.296.04-2.323-.885-3.37-1.56 3.753-.313 7.203-.927 10.787-2.087 3.016-.976 6.106-2.302 9.251-2.753 2.264-.325 4.403.304 6.63.606 2.338.317 4.401.077 6.67-.518l.566-1.355q-2.733-.191-5.446-.58c-2.457-.351-5.21-1.055-7.68-.783-2.232.245-4.444 1.135-6.562 1.854-4.629 1.57-12.093 4.11-16.91 3.57-.875-.098-1.764-.502-2.583-.816 2.372-.348 4.746-.48 7.043-1.226 5.078-1.648 9.554-4.822 14.75-6.186 6.37-1.674 14-.55 19.936-3.433.278-.922.494-1.84.688-2.782-1.181.444-2.368.921-3.594 1.224-5.525 1.364-11.427 1.284-16.962 2.613-3.04.73-5.827 1.98-8.689 3.2-4.746 2.023-9.659 3.905-14.85 4.337-1.6.132-3.22.075-4.823.057-.678-1.803-1.629-3.049-3.433-3.862-1.254-.565-2.642-.809-4.005-.916-1.777-.14-3.575-.102-5.356-.084-1.852.02-10.287.527-11.113-1.322l.04-.202c.655-.17 1.46-.095 2.137-.104 1.518-.021 3.033-.055 4.546.101 2.2.227 4.371.703 6.58.87 2.73.206 5.412.02 8.103-.464 2.09-.375 4.109-.987 5.971-2.016 1.858-1.026 4.134-3.844 6.32-3.884 2.055-.038 5.943 2.855 8.303 3.573 2.228.679 4.577.653 6.879.82a49 49 0 0 1-5.981-2.727c-3.277-1.787-6.264-4.517-10.249-4.108m-104.39.637c-3.636.641-7.733 2.718-10.598 5.072 2.976-1.15 9.27-3.817 12.325-3.203 1.922.386 3.89 1.48 5.71 2.226 4.479 1.65 7.577 2.08 12.18.526-2.842-.098-5.663-.317-8.407-1.127-3.567-1.052-7.584-3.906-11.21-3.494m53.801 2.2.078.16c.093.188.194.364.301.543.024.54-.074 1.293-.498 1.675-.295.264-.642.306-1.016.354-.391-.213-.366-.751-.723-.85-.026.254.044.403.141.636.297.437.584.77 1.162.827.403.04.757-.156 1.022-.442q.063-.066.118-.14.055-.072.102-.15.048-.078.088-.16.04-.083.07-.169.032-.086.055-.174.022-.089.036-.179t.019-.182 0-.182c-.023-.412-.183-1.04-.517-1.306a1.8 1.8 0 0 0-.438-.262M45.566 146.8c-1.297.115-2.588.24-3.874.455l.425 1.646c7.666-.743 13.975 3.629 20.821 6.177q1.2.453 2.432.809t2.488.613 2.528.413 2.554.212c6.172.221 10.179-1.632 15.53-4.274 1.666-.823 3.35-1.746 5.163-2.201 2.969-.746 9.979-.208 13.01.421-4.389 2.27-9.446 1.43-14.145 2.507-2.826.647-5.16 2.049-7.729 3.316-7.788 3.844-13.392 3.329-21.432.774q-3.425-1.118-6.69-2.642c-2.777-1.265-5.582-3.005-8.67-3.341-1.645-.18-3.382.09-4.993.411a63 63 0 0 0 1.07 3.422c2.636-1.054 4.616-1.195 7.257-.065 1.765.755 3.405 1.781 5.147 2.589 7.643 3.542 15.997 6.088 24.216 2.823.767-.305 1.492-.684 2.314-.812l.029.12c-.157.137-.311.29-.48.411-4.777 3.256-9.803 5.663-15.724 4.551-2.087-.392-4.054-1.118-5.944-2.076-2.394-1.215-5.84-3.72-8.428-3.99-1.762-.182-3.38.544-4.806 1.507-.483.326-.946.688-1.408 1.044.228.566.446 1.133.728 1.675 1.947-1.166 3.968-2.146 6.301-1.58 2.164.524 4.227 2.02 6.194 3.053 6.858 3.605 13.223 3.684 19.962-.293 1.754-1.035 3.415-2.251 5.006-3.522 1.989-1.587 3.95-3.601 6.349-4.534 5.033-1.956 10.818-.587 15.744-2.735 1.151-.502 2.07-1.226 3.121-1.888.184-.993.32-2.01.313-3.022-1.48.2-3.114-.092-4.592-.27-3.891-.471-8.498-1.35-12.388-.55-1.83.376-3.456 1.459-5.048 2.387-4.897 2.853-9.882 4.832-15.659 4.343-2.945-.25-5.825-1.042-8.575-2.101-5.46-2.102-12.125-6.275-18.117-5.782m125.48 2.667c-1.136.594-1.927 1.849-2.981 2.611.037.156-.003.107.076.175.9-.367 2.77-1.083 3.085-2.106.056-.183.047-.224.05-.397-.069-.087-.146-.212-.23-.282m5.68.79c-2.98 1.429-5.785 2.797-9.092 3.2-.234.028-.689-.015-.79.198l.072.064c3.592.152 7.087-.73 9.814-3.217l.069-.191zm-50 6.525c-.313.242-.408.234-.448.637-.16 1.623-.028 3.401-.032 5.039-.007 2.245-.149 4.583.04 6.817.216.155.377.214.637.275.07-.078.163-.14.211-.234.253-.495.17-10.267.104-11.768a6 6 0 0 0-.055-.525c-.151-.087-.296-.177-.458-.241m1.41.09-.031 7.75c-.004 1.529-.075 3.09.05 4.611.253.229.53.171.862.194.001-1.659.264-11.586-.013-12.408-.3-.147-.543-.144-.868-.148m1.864-.056-.03 8.341c-.004 1.327-.159 2.843.077 4.14.275.087.515.135.802.16l.042-8.32c.006-1.332.169-2.872-.075-4.172a3.5 3.5 0 0 0-.816-.15m1.837.02-.058 7.581c-.017 1.585-.12 3.221.023 4.8.277.21.52.172.859.202l.032-8.172c.008-1.385.125-2.834-.026-4.209-.295-.209-.475-.178-.83-.202m1.813-.024-.024 8.215c-.005 1.385-.14 2.901.06 4.269.264.088.496.138.773.17.01-1.794.275-11.561-.047-12.508a3.2 3.2 0 0 0-.762-.146m1.789-.01-.06 8.289c-.01 1.272-.213 2.955.072 4.183.287.16.515.173.835.207.004-1.947.244-11.4-.097-12.52a3.5 3.5 0 0 0-.75-.159m1.84.001c-.113 1.521-.247 11.605.009 12.502.291.091.55.14.855.171l-.004-8.151c-.001-1.386.127-2.901-.092-4.264-.279-.22-.422-.209-.768-.258m1.804.01q.056 4.173.045 8.346c.002 1.365-.107 2.844.06 4.192.271.036.535.069.808.078-.004-1.347.069-12.099-.265-12.387-.189-.162-.411-.179-.648-.228m-14.545.096q-.057 4.012-.041 8.024c-.005 1.448-.147 2.988.028 4.42.221.2.474.22.756.273l.023-8.049c.002-1.455.1-2.987-.052-4.43-.235-.183-.424-.197-.714-.238m-18.867.385c-.081 1.129-.27 11.449.018 11.81l.003-.2c.147-1.43.859-11.015.552-11.501zm-1.721.282c-.023 1.675-.347 11.305.055 11.877l.678.095c.043-1.835.31-10.862-.054-11.854a3.4 3.4 0 0 0-.679-.118m36.98.026c.151 3.99.615 8.038.567 12.02 1.257.028 3.374.313 4.53-.122.035-2.356-.651-5.955 1.116-7.779 1.099.088 2.229.126 3.316.307 1.177 1.004 1.708 1.95 1.842 3.522.118 1.386.044 2.804-.015 4.193 1.089.015 2.746.241 3.752-.1.294-.932-.364-2.338-.164-3.318.033-.16.281-.367.3-.518.04-.31-.078-.819-.099-1.143-.078-1.2-.033-2.41-.12-3.607-.032-.43-.189-.87-.133-1.301.051-.392.181-.795.473-1.073l.454.13c.396.917.15 2.407.254 3.421.174 1.696.672 3.411.963 5.096l.464 2.532 1.536.077c-.386-2.257-2.248-9.402-1.885-11.077l.167-.168c.299.11.4.198.539.492.223.47.203 1.132.253 1.647.299 3.096 1.059 6.145 1.61 9.204q.8.136 1.598.29c-.562-2.73-1.264-5.433-1.89-8.15-.29-1.262-.446-2.595-.808-3.832-1.31.001-2.659-.056-3.962.078-.31.032-1.386.297-1.598.23-.017-.005-.345-.272-.372-.285-.071-.036-3.958-.162-4.25-.144-.284.018-.562.124-.815.248a4.5 4.5 0 0 1-.612-.227c-.108-.048-6.41-.612-7.011-.643m-38.071.144c-.304.074-.593.077-.806.313-.081 1.369-.286 11.052.159 11.563.306-.072.532-.069.76-.297.064-1.305.228-11.137-.113-11.58m-2.709.244-.03 7.371c-.005 1.292-.157 2.758.09 4.019.335.168.6.16.964.16l.056-7.903c.003-1.135.151-2.501-.064-3.61-.35-.1-.66-.064-1.016-.036m-1.886.118.012 7.607c-.002 1.186-.161 2.622.051 3.77.335.056.638.069.977.07l.016-7.12c.009-1.38.13-2.852-.046-4.216-.311-.186-.661-.125-1.01-.111m-1.031.07c-.09.105-.2.196-.267.317-.247.447-.156 9.537-.073 10.606.018.231.058.406.163.616.09-.096.214-.169.267-.289.216-.496.13-9.452.092-10.585-.01-.277-.043-.425-.182-.665m-1.37.265c-.147.158-.452.405-.545.585-.112.218-.013 8.844.028 9.757.019.441.028.613.342.938.09-.12.205-.226.272-.361.203-.413.135-9.471.109-10.732-.16-.176-.08-.13-.206-.187m-8.284 2.035c-2.757 3.068-5.963 6.5-9.554 8.579-3.863 2.236-14.808 4.22-19.638 5.249-.835.177-4.044.637-4.583 1.006.087.299.243.523.488.72.032.025.073.035.109.052 8.391 1.415 17.132-1.234 24.916-4.223 1.863-.716 4.156-1.414 5.772-2.602 1.652-1.215 2.55-5.342 2.758-7.319.048-.453.029-1.09-.267-1.462m-32.233 5.689c-1.99.261-3.367.976-4.714 2.494 3.218-1.213 5.605-1.455 8.803-.007l2.496 1.138c1.753.492 3.122.507 4.93.332-3.192-1.233-8.332-3.985-11.515-3.957m129.294.855c4.486 2.549 7.689 3.982 12.996 3.99 2.072.005 4.088-.191 6.088-.745l.895-.254.46-.818.784-1.363c-5.131.978-9.316 1.713-14.556.553-2.17-.48-4.442-1.308-6.667-1.363m-67.66 4.801c-3.498.283-6.979.924-10.473 1.147-3.367.214-10.428-.458-13.736-1.173q-6.513 2.365-13.184 4.237c-2.033.561-4.068 1.163-6.153 1.499-2.09.338-4.272.428-6.39.439-4.074.02-8.036-.522-12.082-.762q.954 1.19 1.854 2.42c4.464-.906 9.189-.423 13.72-.424 3.123-.001 6.298-.301 9.385-.756 2.084-.307 4.08-.882 6.079-1.527 2.714-.874 5.76-2.33 8.646-2.179 3.26.172 6.392 1.524 9.477 2.49 4.266 1.335 7.337 1.548 11.767 1.388-3.316 1.087-12.586 3.032-15.857 2.457-4.552-.8-7.293-4.514-12.548-3.582-7.856 1.393-13.89 7.898-21.072 10.914-.569.239-1.213.31-1.801.512l.077.183c4.628 1.204 15.399-8.88 23.52-8.015 6.401.683 10.878 6.894 17.328 8.105 5.616 1.055 13.661-4.478 20.128-4.745 3.676-.151 6.754 1.614 9.984 3.085 5.87 2.672 12.319 4.502 18.81 3.548 3.818-.561 7.178-1.95 10.684-3.468 1.765-.764 3.492-1.568 5.365-2.038 7.621-1.142 10.808 6.105 17.409 6.759l1.115-.745q-1.293-.495-2.527-1.12t-2.398-1.375c-3.346-2.17-6.652-5.386-10.77-5.92-4.075-.53-8.49 2.229-12.151 3.698-2.843 1.141-5.805 2.117-8.886 2.265-6.46.31-11.883-1.724-17.532-4.567-2.684-1.35-5.25-2.666-8.294-2.969-3.671-.364-7.145 1.675-10.44 3.014-5.33 2.165-10.852 2.495-15.565-1.177 9.306 3.286 15.962-3.786 24.847-3.287 9.431.529 16.85 7.069 26.767 6.657 2.97-.123 5.786-.747 8.557-1.806 4.227-1.615 8.123-4.452 12.854-3.993 3.638.353 6.845 2.643 10.007 4.292 2.447 1.275 5.028 2.497 7.667 3.311l.877-.762c-6.746-2.829-12.384-7.965-19.107-10.86-4.223-1.819-12.37-3.838-16.998-4.37-4.877-.562-9.75.817-14.646.725-5.756-.109-11.468-1.053-17.21-1.44-2.344-.159-4.76-.313-7.103-.085m-58.363 10.112a23 23 0 0 0 2.276 3.287c1.722.038 3.375-.093 5.079-.34l.153-.175c-2.108-1.2-5.12-2.5-7.507-2.772m113.839 5.342c4.257 1.826 6.822 7.038 8.776 7.8-.963-2.783-3.184-5.845-5.913-7.124-.914-.428-1.858-.63-2.863-.676m-84.552 14.268c-2.07.249-4.113.794-6.133 1.296l1.8.973c5.45-.946 8.651.12 13.15 3.282 1.146.805 2.153 1.652 3.077 2.707-3.374-1.025-6.701-2.074-10.19-2.643 2.133.77 4.18 1.749 6.29 2.579q3.252 1.314 6.61 2.325 3.36 1.01 6.797 1.708c1.566.308 3.235.687 4.832.648.997-.025 1.986-.26 2.95-.499 3.545-.879 7.484-2.785 11.162-2.497 1.864.146 3.676.698 5.472 1.19 5.552 1.523 9.357 2.225 15.125 1.049 4.878-1.256 9.994-2.956 14.413-5.404-8.65 2.243-16.604 5.007-25.644 3.036-3.328-.726-7.108-2.43-10.498-2.3-1.809.07-3.588.642-5.282 1.241-6.468 2.288-11.212 4.914-17.839 1.054-5.324-3.102-9.157-10.31-16.093-9.745m40.898 12.382q-2.314.138-4.6.528t-4.516 1.026q1.893.113 3.783.25c.852.07 1.78.2 2.629.116 1.233-.121 2.368-.665 3.538-1.035.923-.292 1.892-.489 2.833-.714-1.213-.13-2.447-.307-3.667-.172"/><path d="M130.02 54.2c-.043 2.269.082 7.807-.418 9.77-.154.606-.43 1.169-.89 1.603-.76.719-2.108 1.027-3.13 1.008-.974-.02-1.882-.389-2.538-1.12-.506-.565-.805-1.28-.942-2.02-.356-1.93-.155-4.155-.216-6.129-.063-2.06-.316-4.123-.252-6.184.214-.31.407-.256.76-.321.645-.02 1.293.004 1.938.011.03 2.059-.278 11.503.438 12.626.157.246.379.461.682.496.394.045.783-.164 1.065-.423.425-.393.676-.96.768-1.524.18-1.1.053-2.448.068-3.573l.145-7.647c.895-.017 1.747.003 2.633.142.002 1.097-.056 2.19-.112 3.285m1.47 12.373q.858-7.776 1.392-15.582c1.815.139 4.687.063 6.066 1.36.857.805 1.218 2.012 1.211 3.164-.008 1.487-.604 2.527-1.611 3.55.741.597 1.151 1.365 1.316 2.305.274 1.564-.24 2.964-1.14 4.216q-.128.126-.259.25c-2.049 1.919-4.506.817-6.976.737m3.793-12.725c-.118.959-.635 2.796-.096 3.633.33.217.62.206.99.13.238-.05.469-.113.689-.217.474-.564.834-1.156.75-1.925-.054-.483-.366-.91-.75-1.191-.473-.346-1.017-.371-1.583-.43m-.588 6.415a62 62 0 0 0-.488 3.862c.885.118 1.624.165 2.495-.106.464-.477.79-1.063.786-1.746-.003-.512-.284-.939-.656-1.27-.63-.56-1.332-.642-2.137-.74m-23.808-8.37c1.427-.239 2.882-.34 4.322-.464.754-.058 1.477.127 2.135.503 1.023.584 1.612 1.773 1.882 2.877.5 2.046.091 3.898-1.016 5.653.698 2.037 1.75 4.041 2.67 5.989-.918.106-1.835.27-2.75.41-.864-1.56-1.477-3.301-2.143-4.952l-.123-.287c-.355-.176-.666-.046-1.052.014-.444.892.449 4.32.656 5.383-.887.18-1.786.307-2.68.446zm2.981 2.374c.1 1.258-.056 3.373.606 4.41.296.141.446.193.768.072.284-.107.581-.281.833-.451.598-.915.785-1.968.58-3.052-.076-.401-.204-.633-.527-.897-.71-.241-1.52-.12-2.26-.082m26.262 12.959c.854-1.377 1.452-2.983 2.173-4.442 1.623-3.285 3.32-6.553 4.8-9.905q1.137.218 2.27.456.228 7.926.294 15.857c-.943-.154-1.882-.364-2.82-.55.044-1.037.057-2.06.017-3.097-.834-.11-1.871-.396-2.691-.25a49 49 0 0 1-1.373 2.563c-.898-.172-1.784-.41-2.67-.633m6.798-8.143c-.4.794-1.73 2.897-1.627 3.71l.23.093 1.519.23c-.001-1.211.205-2.877-.123-4.033M102.7 53.693l1.7-.411c.2.115 6.312 12.535 7.247 14.25l-2.869.654a26 26 0 0 0-1.115-2.357c-1.011.314-2.067.508-3.102.734-.026.813.033 1.643.057 2.457l-2.755.852c-.022-5.357.435-10.832.837-16.179m2.03 6.142c-.028 1.28-.099 2.576-.049 3.855l1.665-.338.138-.222c-.351-1.07-1.121-2.358-1.754-3.296M31.113 76.577c-.365-.241-.69-.565-.807-.996a2 2 0 0 0 .035-.614c-.412-.461-.795-.86-.849-1.502l.7.017.093.144q-.197.202-.389.408.196.207.383.421c.528.614.886 1.298.834 2.122m92.262-.839c.055.079.132.153.15.247-.166-.147-.126-.059-.15-.247m104.982 5.054q-.802-.174-1.582-.432t-1.527-.597c-.493 1.164-.905 2.341-1.307 3.54.237-1.34.628-2.737.759-4.086-1.933-.801-3.928-1.474-5.848-2.298l-.189-.251c1.121-.354 4.834.994 5.985 1.584-.048-.695-.25-1.812.181-2.405.56.67.485 2.179.722 3.032.84.617 2.097 1.193 2.806 1.913m-201.096.245c.16-.138.322-.27.485-.404.8-.656 1.822-.922 2.59-1.56l-.178-.381.142-.194.488-.041.151-.18c-.212-.221-.378-.308-.42-.622.169.016.275.018.445-.01-.077-.194-.03-.13-.165-.274-.215-.227-.405-.417-.556-.695q-.059-.11-.115-.22c.354.106.974.328 1.257.561.294.242.235.628.268.978.521.69 2.56-.276 3.454.135l.032.175c-.931-.011-1.313.868-2.123.985-.522.075-1.073-.296-1.597-.151.113.443.605.575.681.986l-.384-.037c-1.526-.092-3.015.506-4.455.949m3.542-1.224h.143zm4.687-1.671-.029.018-.036-.058.127-.044z"/><path d="M31.371 81.906a7 7 0 0 1-.49-.315c.099-.232.37-.286.593-.392-.242-.324-.702-.138-.919-.535l.408-.378c.218.034.486.058.691.14.265.105.572.433.646.72.086.331.048.428-.096.712-.346.2-.45.119-.833.048m196.986-1.114.13.06zm-82.829 14.707c-.131.052-.288.06-.427.083l-.125-.189.09-.35c.274-.251.541-.425.894-.554.913-.334 2.002-.465 2.954-.714q3.63-.959 7.246-1.97 16.362-4.499 32.919-8.217c4.207-.905 8.492-1.54 12.73-2.298l.469-.003c-.576.5-3.323.998-4.15 1.218-4.19 1.111-8.361 2.227-12.585 3.21-6.772 1.577-13.591 2.966-20.342 4.631q-9.853 2.513-19.673 5.153m-23.452-9.993c-.105.587-.084 1.285-.404 1.799l-.222.04a12 12 0 0 0-.439-.716l-.16.058c-.064.24-.133.462-.228.692l-.159-.023c-.07-.454.053-.954-.172-1.365-.105-.032-.314-.09-.407-.14-.216-.115-.238-.19-.276-.418.196-.235.398-.471.573-.723a.98.98 0 0 0 .185-.802 4.3 4.3 0 0 1-.693-.549c-.017-.276-.01-.303.128-.544.176.023.314.06.486.118q.096.032.192.067l.206-.132c.109-.416.254-.782.431-1.174a9 9 0 0 1 1.117 1.645c-.103.588-.097 1.178-.108 1.773l.322.007c.312.008.652.04.964.005.365-.041.495-.2.712-.472.148-.569.035-1.134-.032-1.71l.847-1.229c.252.344.506.706.68 1.096.327.736.928 2.195.672 2.932l-.401.185c-.144.236-.144.37-.123.635.017.226.028.288-.04.512a3.4 3.4 0 0 1-.461-.463l-.161-.197.097.336c-.033.069-.061.14-.1.206-.149.253-.178.312-.462.38-.383-.32-.488-1.266-.607-1.742zm7.006 1.807c-.275.048-.53.108-.808.05-.202-.043-.187-.128-.278-.293.018-.188.038-.377.048-.566.061-1.133-.744-.564-1.193-1.077l.063-.265c.184-.118.358-.21.563-.289.553-.211.397-1.539.517-2.084.088-.4.303-.759.513-1.105l.846.72c.049.598-.14 1.71.136 2.229.14.263.406.381.67.483l.183.065c-.003.296.055.494-.129.737-.323-.053-.511-.11-.819.035-.31.353-.278.907-.312 1.36m-96.937-3.842c-.29-.248-.475-.349-.606-.712a1.5 1.5 0 0 1 .228-.509c.351.237.655.36.841.745-.122.28-.204.304-.463.476"/><path d="M123.725 83.962a1.46 1.46 0 0 1-.625-.209c-.097-.343.034-.528.147-.856.193.076.349.18.523.29.12.356.069.411-.045.775m3.627-.283c-.2-.023-.315-.032-.485-.152-.183-.13-.164-.343-.21-.552l.435.08c.263.224.22.275.26.624m2.911.638c-.142-.106-.16-.103-.264-.25-.264-.375-.26-.708-.158-1.133.171.049.295.112.451.195.195.397.056.777-.029 1.188m-98.118-.846.433.243c.052.236.072.148.032.268l-.205-.01a4 4 0 0 1-.26-.5m94.041 4.341-.108-.076zm8.118 3.594c-.054.013-.107-.03-.159-.048zm-9.691 5.718-.05.014-.074-.116.14-.065zm-.893.122-.17.116v-.222l.153-.083zm50.386 8.056a6 6 0 0 0-1.173-.95c-1.299-.832-3.333-1.89-4.916-1.822-.716.03-1.453.322-2.156.464-.61.123-1.096.1-1.703-.026-1.681-.35-9.327-3.098-10.554-3.92 3.723.126 6.908 1.41 10.44 2.383.983-.525 1.882-.856 3.017-.871 2.67-.035 5.642 1.634 7.505 3.445q.352-.211.716-.403c4.414-2.309 15.804-.69 20.5.77-3.55.051-7.069.022-10.619-.122-2.739-.069-4.323.256-6.706 1.627l.11.067.181.114c1.005.624 1.552 1.266 2.205 2.223-.68-.327-1.5-.85-2.26-.84-.399.179-.53.419-.779.78-.42.61-.878.936-1.478 1.358.256-.747.552-1.72.236-2.48-.2-.168-.286-.256-.558-.286-.76-.087-1.648.206-2.427.228-1.085.031-2.325-.36-3.388-.586 1.329-.375 2.583-.446 3.807-1.153m-48.309-.488c-.231.01-.504.047-.731.006-.414-.075-.63-.382-.814-.728-.456-.857-.49-1.899-.16-2.807.278-.764.746-1.091 1.457-1.42.212.005.407.036.616.069.29.195.55.385.726.696.438.776.224 1.924.003 2.746-.212.791-.395 1.038-1.097 1.438m.714-3.821.097.038zm-.068 2.014-.737.558.01.234c.349-.21.538-.276.74-.635zm-1.698.919.037.075zm-43.2 3.334c3.228-3.319 7.307-4.997 11.896-5.462 1.357-.189 2.868-.025 4.236.036-4.58 2.007-10.173 1.922-14.233 5.692a10.7 10.7 0 0 1 2.563-.902c1.865-.385 3.62-.145 5.224.912-3.404.07-3.802.948-6.558 1.473-.963.184-1.975-.314-2.973-.224-1.338.121-2.644.625-3.954.908-1.611.348-3.265.198-4.895.109.82-.458 1.623-.858 2.5-1.198l.313-.183.034-.19c-3.021-2.248-9.786-1.412-13.37-.9 1.13-.492 2.255-.992 3.43-1.374 3.093-1.008 6.662-1.278 9.663.193.912.448 1.678 1.144 2.595 1.598l.116.055c1.156-.103 2.277-.317 3.412-.543m41.406 12.369-.13-.094zm-43.502 8.002c4.463-2.71 8.758-6.355 14.138-6.832 4.657.002 9.028 2.438 12.948 4.74-1.12-.157-2.227-.567-3.321-.864-4.22-1.142-7.942-2.082-12.198-.561-5.084 2.1-5.62 3.489-11.567 3.517m85.706.065c3.436-2.77 6.75-5.517 11.238-6.286 3.699-.453 6.967 1.165 10.023 3.058-1.862-.076-3.638.392-5.343.349-.54-.014-.989-.289-1.52-.346-2.174-.235-4.036.053-6.133.616-2.786.86-5.372 2.096-8.265 2.61m-87.567-.953c-1.766 1.004-5.745-.484-7.791-.696-3.262-.339-8.824 1.839-12.41 2.466-1.029.18-2.122.381-3.165.205-2.1-.357-7.553-3.692-8.762-5.509-.24-.36-.147-.521-.046-.906 2.856.857 5.457 2.467 8.46 2.819 6.029.707 11.25-3.68 16.172-2.42 1.842.472 3.38 1.49 5.054 2.341.991.504 2.025.894 3.048 1.328-.124.21-.345.265-.56.372m112.651 2.999c-1.604-.423-6.961-3.042-8.117-4.194 1.832.143 3.722-.129 5.538.137 1.302.19 2.412 1.172 3.546 1.782.765.411 1.584.728 2.361 1.125l-.07.168-.436.17zm3.513 1.378c4.336-1.554 7.15-5.115 11.922-5.446 2.048-.148 3.858.54 5.717 1.3-3.815 2.461-6.835 4.876-11.572 5.038-2.033.035-4.085-.478-6.067-.892m-122.09-2.67-.151-.051zm53.737 10.236-.11-.067zm-2.888 12.096-.069-.037zm44.29 13.255q-.555-2.28-1.024-4.578c3.943 1.295 7.655 2.9 11.069 5.293 2.174 1.525 4.071 3.345 6.095 5.05q.722.618 1.481 1.188t1.552 1.093q.793.522 1.617.994t1.676.891q.852.42 1.728.786.876.365 1.774.676.897.31 1.812.564t1.844.45c-1.788.16-3.814-.086-5.596-.323-4.774-.633-9.309-2.66-13.21-5.445-3.544-2.532-6.657-5.12-10.818-6.64m-134.762 7.617.063-.154zm191.176.294-.058-.058zm0 0c2.126 1.685 2.784 2.478 5.668 2.167-1.355 1.136-2.957 2.306-3.87 3.85-.014.629.18 1.798-.026 2.33-.131-.077-.216-.121-.315-.24-.768-.922-1.41-1.769-2.694-1.898-.739-.075-1.548.078-2.284.171 1.747-.733 3.259-1.875 5.027-2.548l.054-.022c-.554-1.195-1.301-2.517-1.56-3.81m-108.947 3.978c1.806-.483 3.58-.942 5.447-1.126 2.655-.39 11.442.864 14.433 1.354-1.821.297-3.639.57-5.457.9-3.549.466-5.824-.652-9.177-1.117-1.725-.238-3.51-.072-5.246-.011m-83.304 2.357c-.227.134-.19.173-.464.112-.004-.046-.013-.091-.012-.137.009-.524.324-.876.698-1.198.292.073.439.1.633.337-.084.362-.57.656-.856.886m.633 1.528c.16-.601.284-1.457.72-1.906.733-.242 1.576.23 2.341.301.236.01.269-.04.442.136-.48.352-1.988.179-2.704.41-.252.348-.495.756-.8 1.059m132.95.868c-4.906 2.519-10.014 4.42-15.633 3.873-4.569-.446-8.394-2.464-12.394-4.518-.682-.35-2.042-.839-2.513-1.412.33-.166.822-.161 1.194-.2 1.587-.166 3.263-.021 4.853.104 4.766.375 9.472 1.366 14.274 1.252 5.085-.12 8.923-2.285 14.106-.817a35 35 0 0 0-3.887 1.718m-133.012-.806.063-.062zm64.616 11.625c1.57.856 3.114 1.826 4.784 2.476 5.599 2.18 10.924.302 16.045-2.159 2.614-1.256 4.96-2.289 7.878-2.643.68-.09 1.414-.065 2.102-.084-5.931 3.148-10.713 8.809-17.766 9.605-3.954.446-7.241-1.206-10.263-3.591-1.156-1.067-2.069-2.2-2.78-3.605m47.552 4.84-.074-.057zm-46.29.586.06.061zm-18.14 27.217a18 18 0 0 1-.503-3.68c.24.724.373 1.496.634 2.212.114.311.197.425.499.55 1.211-.243 2.783.412 4.015.629-.651.045-1.97-.121-2.45.28.58.49 2.232 0 3.03-.005l.158.001q-1.08.334-2.15.695c.441 2.038.627 4.106.701 6.188-.495-1.638-.78-4.451-1.353-5.798-.159-.373-.324-.64-.705-.805l-.285.302c-.079.858.503 2.093.753 2.94-.407-.599-.719-1.255-1.05-1.897-.101-.27-.196-.515-.225-.805-.016-.16-.028-.303-.058-.46-.846.013-.397.904-.899 1.34-.39-.273-.602-.859-.856-1.27-.245.223.064.872-.079 1.26-.279-.203-.128-.47-.42-.677l-.35.555c-.481.064-1.098.224-1.574.139.142-.259.339-.378.569-.555a3.4 3.4 0 0 0 .791-.175l-.052-.14c-.246-.136-.448-.19-.732-.154-.948.118-3.24.854-4.339 1.117 1.637-.931 3.328-2.059 5.156-2.565-.204-.613-.382-1.187-.465-1.832.59 1.276.956 1.935 2.239 2.61m.95-.65.083.04z"/></svg>