<svg xmlns="http://www.w3.org/2000/svg" viewBox="0 0 256 256"><path d="M126.807 0h2.485c1.471 2.918 3.08 5.763 4.626 8.642l11.264 20.753c1.774 3.27 3.726 6.525 5.343 9.873 4.381.887 8.737 2.311 12.95 3.798q1.11.39 2.214.802t2.198.847 2.18.891q1.085.457 2.161.935t2.143.979 2.122 1.021q1.056.522 2.101 1.065t2.08 1.106 2.055 1.149 2.033 1.19 2.008 1.23 1.983 1.272 1.957 1.31 1.93 1.351 1.902 1.389 1.873 1.427 1.845 1.465 1.814 1.502 1.783 1.538q.885.779 1.753 1.574.868.796 1.72 1.61.851.813 1.686 1.643.836.83 1.654 1.678.818.846 1.619 1.71t1.584 1.743 1.549 1.775 1.512 1.805q.747.91 1.476 1.836.728.925 1.438 1.865t1.4 1.894 1.361 1.922 1.322 1.95q.743 1.137 1.458 2.292.715 1.156 1.401 2.328.686 1.173 1.344 2.362.657 1.189 1.285 2.394t1.225 2.425 1.166 2.454 1.106 2.482 1.044 2.508.983 2.533.92 2.557.857 2.578.793 2.599.73 2.617q.349 1.313.665 2.635.317 1.32.6 2.65.284 1.328.535 2.663t.47 2.677.404 2.686.338 2.696.271 2.704q.12 1.353.206 2.709t.138 2.714.072 2.716.005 2.717q-.013 1.358-.061 2.716-.047 1.358-.128 2.714-.08 1.357-.194 2.71-.114 1.354-.261 2.705t-.327 2.697-.393 2.689-.46 2.677q-.245 1.337-.524 2.666-.823 4.1-1.96 8.124-1.136 4.024-2.58 7.948c2.05 3.737 3.828 7.642 5.74 11.452l10.744 21.344q1.964 3.934 3.975 7.845c.792 1.578 1.5 3.302 2.482 4.769v2.369c-.51.578-1.088 1.136-1.907 1.162-.64.02-1.268-.32-1.815-.617-1.783-.967-3.504-2.158-5.227-3.234l-9.447-5.86c-6.189-3.845-12.535-7.493-18.618-11.501l-2.226.016c-16.315 19.524-37.996 32.23-62.747 37.866-3.705.845-7.54 1.405-11.312 1.845-1.897.222-4.042.225-5.885.662h-17.057c-1.986-.465-4.29-.458-6.329-.673-3.714-.394-7.47-.95-11.117-1.762q-1.465-.32-2.922-.678-1.456-.357-2.903-.752-1.446-.395-2.882-.83-1.435-.433-2.86-.903-1.423-.471-2.834-.98-1.411-.508-2.808-1.053-1.397-.546-2.78-1.127-1.382-.582-2.748-1.2t-2.716-1.272-2.683-1.342-2.645-1.412-2.608-1.482-2.568-1.55q-1.273-.79-2.526-1.615-1.252-.826-2.483-1.683-1.23-.857-2.438-1.747c-2.158-1.585-4.322-3.171-6.349-4.925-2.875-2.487-5.709-5.129-8.335-7.878-1.76-1.843-3.42-3.778-5.148-5.652a22 22 0 0 0-2.344-.021c-3.07 2.05-6.224 3.974-9.344 5.946q-8.386 5.373-16.889 10.557c-2.182 1.34-5.555 3.92-7.826 4.736-.484-.118-1.034-.218-1.466-.472-.815-.478-.979-1.29-1.208-2.133v-.183c.419-1.586 1.41-3.177 2.14-4.651q2.087-4.275 4.262-8.506l8.828-17.454c2.642-5.152 5.44-10.32 7.783-15.612q-1.77-5.139-3.128-10.401-.348-1.3-.664-2.608t-.6-2.624-.536-2.637-.47-2.65-.405-2.66-.339-2.67q-.153-1.338-.273-2.678t-.207-2.683-.141-2.687-.075-2.69-.009-2.692.058-2.69.124-2.689q.078-1.344.19-2.685.111-1.34.256-2.679t.322-2.672q.177-1.334.388-2.663.21-1.329.453-2.653.243-1.323.518-2.64.276-1.318.583-2.628.308-1.31.648-2.612t.712-2.595.776-2.577.838-2.557.902-2.536q.466-1.263.963-2.513.498-1.25 1.026-2.488t1.086-2.463 1.146-2.434 1.207-2.406 1.265-2.376 1.323-2.343q.605-1.053 1.234-2.094.628-1.04 1.277-2.067.65-1.026 1.322-2.039.671-1.012 1.364-2.01.693-.999 1.407-1.982.713-.983 1.448-1.951.734-.968 1.489-1.92t1.53-1.888 1.569-1.856 1.608-1.821 1.647-1.787 1.684-1.752 1.72-1.715 1.757-1.68q.888-.83 1.792-1.64.905-.811 1.826-1.603.922-.792 1.86-1.564t1.893-1.524 1.924-1.484 1.956-1.442 1.986-1.4 2.014-1.359 2.043-1.315q1.03-.647 2.071-1.272t2.097-1.228q1.055-.602 2.123-1.182t2.147-1.138 2.171-1.092q1.091-.534 2.194-1.045t2.215-.999 2.236-.951 2.255-.904c5.458-2.124 11.085-3.706 16.746-5.178 2.163-3.566 4.03-7.383 6.03-11.049zm2.273 13.526c1.21 1.757 2.106 3.905 3.111 5.796q3.295 6.158 6.522 12.35l21.473 41.342q28.438 54.283 58.521 107.673c2.44 4.321 4.78 8.703 7.328 12.962 4.645 7.763 9.64 15.276 14.637 22.812 2.261 3.41 4.753 8.006 7.51 10.903l.11.178.061.08-.061-.08-.11-.178c-.892-2.42-2.361-4.806-3.533-7.111l-6.574-12.924c-3.26-6.269-6.138-12.78-9.68-18.894.483-1.61 1.129-3.183 1.688-4.768q1.281-3.578 2.22-7.259c5.252-20.674 4.713-43.334-2.655-63.435-2.356-6.425-5.423-12.472-8.921-18.341q-.702-1.153-1.431-2.288t-1.486-2.253-1.54-2.217-1.593-2.179-1.644-2.14-1.696-2.1-1.745-2.058q-.886-1.019-1.795-2.016-.91-.997-1.843-1.972t-1.89-1.927-1.934-1.881q-.98-.93-1.98-1.834-1.002-.905-2.024-1.786t-2.066-1.737q-1.043-.856-2.107-1.686-1.064-.831-2.147-1.636-1.084-.804-2.186-1.583t-2.224-1.53q-1.12-.752-2.259-1.476-1.138-.725-2.294-1.422t-2.328-1.366-2.36-1.309-2.39-1.252q-1.204-.612-2.421-1.195-1.218-.582-2.448-1.136-1.231-.553-2.475-1.076t-2.5-1.017-2.524-.956-2.546-.895q-1.279-.433-2.567-.834-1.289-.402-2.587-.772-1.297-.37-2.603-.71c.522.732.938 1.494 1.282 2.322 6.484 1.975 12.667 4.194 18.773 7.17q1.197.579 2.38 1.187t2.35 1.245 2.319 1.303q1.15.666 2.285 1.36 1.135.693 2.252 1.414 1.118.721 2.217 1.47 1.1.748 2.18 1.523t2.142 1.576q1.062.802 2.103 1.629 1.041.826 2.062 1.679 1.021.852 2.02 1.729t1.978 1.778 1.934 1.827 1.888 1.873 1.842 1.919 1.793 1.963 1.746 2.006 1.696 2.049 1.645 2.09 1.593 2.13 1.54 2.167 1.488 2.205 1.433 2.24q.702 1.13 1.377 2.275t1.321 2.309q.647 1.162 1.264 2.34.618 1.177 1.207 2.37.589 1.192 1.148 2.398.56 1.207 1.09 2.427.529 1.22 1.028 2.452.5 1.233.97 2.477.469 1.244.907 2.5.293.873.57 1.75.277.879.538 1.762t.507 1.77.475 1.78.444 1.787.411 1.795q.198.9.38 1.803.181.902.347 1.808t.314 1.814q.15.91.283 1.82.133.911.25 1.825t.218 1.829.184 1.832.153 1.835.12 1.838.086 1.84.054 1.84.02 1.842-.011 1.841q-.014.921-.045 1.842-.03.92-.077 1.84t-.11 1.838q-.064.919-.143 1.836-.08.917-.176 1.833t-.209 1.83-.24 1.826q-.129.912-.274 1.821-.144.91-.305 1.816-.161.907-.339 1.81-.177.904-.37 1.805T231 172.1t-.435 1.79c-.924 3.676-1.906 7.715-3.581 11.121-2.369-5.182-5.3-10.017-8.065-14.986L206.036 146.7q-22.405-41.562-46.175-82.36-10.553-18.43-20.614-37.134l-7.416-13.6c-1.278-2.326-2.48-4.737-3.882-6.989-3.177 6.392-6.767 12.624-10.17 18.902q-6.082 11.288-12.374 22.461L78.956 93.426q-24.646 43.653-47.964 88.029l-14.953 29.04c-2.094 4.015-4.236 7.993-6.238 12.056-.744 1.51-1.638 3.052-2.22 4.625l-.057.073.057-.073c2.03-2.003 5.078-7.122 6.777-9.645l7.057-10.606c2.065-3.084 4.186-6.147 6.149-9.298 2.067-3.317 3.949-6.731 5.911-10.109 1.082-1.86 2.245-3.673 3.306-5.546 5.26-9.288 10.187-18.78 15.369-28.113q23.378-41.555 45.289-83.902c7.173-13.731 14.132-27.564 21.454-41.22l4.782-9.13c.73-1.418 1.355-3.028 2.248-4.337-.242 1.576-1.145 3.295-1.702 4.79-.758 2.031-1.458 4.083-2.248 6.105-.75 1.922-1.594 3.807-2.347 5.729-4.234 10.82-8.958 21.425-13.63 32.063l-16.462 37.958q-2.737 6.308-5.378 12.657c-.87 2.052-1.826 4.076-2.6 6.166 2.88 1.481 5.809 2.869 8.68 4.365l-.61 1.04c-2.95-1.118-5.681-2.712-8.548-4.014-.89 1.855-1.678 3.742-2.439 5.652 2.035.668 6.273 2.032 7.904 3.307.028.32-.11.394-.295.641-.09.039-.17.104-.267.116-.478.062-7.08-2.467-7.963-2.778-.664 1.59-1.426 3.142-2.1 4.729 2.304.76 4.644 1.59 6.91 2.46.44.17.998.546 1.157 1.012.052.151.028.113-.067.264-1 .374-7.141-1.946-8.564-2.342-.657 1.394-1.183 2.844-1.73 4.282 1.68.55 9.808 2.706 10.514 3.611l-.089.089c-.901-.024-1.881-.397-2.77-.594-2.742-.606-5.529-1.139-8.225-1.927a86 86 0 0 0-2.314 5.402c2.427-.226 4.768-.868 7.01-1.819.995.482 1.934 1.1 2.931 1.593a26.3 26.3 0 0 0 8.246 2.459c4.653.57 9.218-.308 12.948-3.227 3.334 1.907 6.121 3.262 10.02 3.716 5.093.594 9.738-.766 13.75-3.927 2.145 1.491 4.352 2.78 6.92 3.381 3.975.93 8.906.296 12.53-1.59 1.095-.57 2.114-1.38 3.17-2.034 2.17 2.125 5.597 3.236 8.546 3.637 6.173.839 10.3-.504 15.16-4.174.483.381.967.773 1.48 1.114 3.61 2.399 7.846 3.086 12.037 2.2-.763-2.056-1.643-4.073-2.53-6.078-.744.301-1.523.667-2.294.88-.521.145-1.083.269-1.568-.001l.014-.26c.757-.942 2.103-1.412 3.173-1.921-.776-1.966-1.701-3.892-2.559-5.824-3.427 1.473-6.845 2.948-10.34 4.254l-.677-.843c3.43-1.67 7.011-3.047 10.498-4.599-.573-1.576-1.187-3.147-1.946-4.644-2.82 1.17-5.578 2.544-8.348 3.833-1.142.532-2.331 1.2-3.518 1.598-.295.099-.394.089-.687.023-.146-.276-.12-.274-.042-.58.947-1.118 10.133-5.306 12.02-6.221-.737-1.791-1.448-3.6-2.285-5.346q-.476.337-.966.65c-1.347.856-10.023 5.8-11.062 5.572-.208-.228-.246-.177-.237-.505 1.202-1 2.793-1.728 4.157-2.494 2.578-1.448 5.177-2.858 7.683-4.428q-1.12-3.138-2.507-6.167c-.976.866-10.39 7.357-11.153 7.462l-.097-.14-.039.117c-.244-.111-.205-.118-.323-.339.073-.4.305-.654.594-.926.77-.726 1.767-1.313 2.647-1.902 2.053-1.374 4.206-2.67 6.097-4.259-2.074-.746-4.005-1.736-5.969-2.728-1.6.925-5.374 4.814-6.768 4.965-.098-.127-.185-.184-.186-.355 0-1.117 4.614-4.474 5.588-5.363-1.17-.566-2.375-1.15-3.686-1.273-1.028-.097-2.033.195-2.977.575-3.886 1.564-12.013 7.089-15.45 9.88 2.675 3.696 7.156 7.95 11.025 10.285 2.707 1.634 5.59 2.973 8.276 4.645-7.602-.631-19.608-5.738-25.187-10.982-5.19 3.2-10.155 6.712-15.343 9.916 3.67 4.876 8.774 7.943 13.926 10.999-2.433-.358-4.896-.53-7.324-.929-5.352-.879-10.672-2.897-14.995-6.185-2.054.698-4.034 1.564-6.118 2.18-1.036.306-2.076.594-3.151.727-2.146.266-9.847.381-11.903-.006-1.712-.322-3.298-1.008-4.82-1.838.544-2.263 1.698-3.754 3.04-5.603 5.546-7.649 9.185-9.158 16.782-13.954l-.01-.14c-.145-2.335.298-4.492.873-6.74q.163-.651.347-1.297t.386-1.286.423-1.274.462-1.261.5-1.246q.258-.62.535-1.232.278-.611.573-1.214t.608-1.197.644-1.178q.331-.585.679-1.16.348-.574.713-1.137t.746-1.116.78-1.094.812-1.07.843-1.044.874-1.02c-.446 1.645-.846 3.328-1.121 5.01-.21 1.279-.313 2.596-.57 3.865-.207 1.022-.868 2.031-1.197 3.038-.887 2.714-1.918 7.98-1.324 10.8.06.287-.007.187.217.338.598-.33.38-1.678.422-2.296.215-3.126 1.206-6.065 2.689-8.811-.335 2.85-.079 6.317.605 9.088 5.346-1.439 10.82-2.39 16.288-3.24.646-5.53 2.416-12.77 5.085-17.652.949-1.736 2.264-3.42 3.572-4.902-2.297 5.186-3.567 11.398-3.76 17.054-.052 1.542.064 3.104.136 4.645 2.673-.363 5.345-.923 7.968-1.548 1.975-.47 3.912-1.05 5.849-1.658 4.277-1.341 6.379-2.228 8.498-6.42 1.335-2.642 2.512-5.294 4.066-7.825-2.012-5.046-4.318-9.983-6.477-14.966l-5.903-13.746c-5.65-12.921-11.34-25.846-16.25-39.072-1.445-3.894-3.227-7.758-4.454-11.72m48.822 77.742.057.05c.67 1.46 1.596 2.865 2.409 4.256 5.992 3.426 11.596 2.952 17.71.228 2.481-1.105 4.884-2.416 7.525-3.114 1.91-.504 3.766-.58 5.726-.573-.318-1.021-1.368-2.185-2.084-2.962-5.566-.192-9.374 2.551-14.3 4.495-4.403 1.738-8.53 1.532-12.85-.358-1.321-.579-2.577-1.315-3.904-1.875l-.232-.097zm-65.874 8.931c-3.376 4.437-6.183 12.697-5.894 18.239.34-.165.686-.314.989-.543-.095-4.666 2.096-9.46 3.644-13.786.433-1.21 1.103-2.64 1.261-3.91l.066-.073zm26.707 13.578-.111.478c.081.431.27.646.549.976l.052.139-.052-.139c-.082-.426-.121-1.15-.437-1.454m-16.58 4.1.064.077c.745 1.986 2.422 5.046 1.87 7.17l-.213.228c-.55-.047-.844-.395-1.187-.806-1.306-1.562-2.261-3.366-3.494-4.974.439 1.485 1.919 5.992 1.373 7.201-.222.073-.132.089-.337-.016-1.622-.831-3.868-5.142-5.021-6.773.837 2.95 1.876 5.922 2.076 8.998-1.45-1.293-2.761-2.682-3.868-4.284-.529-.765-1.05-1.855-1.695-2.501l-.067-.072.067.072c.316 1.213.826 2.378 1.22 3.569.499 1.509.835 3.083 1.132 4.643q-1.263-.93-2.401-2.007-1.139-1.078-2.136-2.288c-.619-.763-1.229-1.771-1.953-2.415l-.057-.073.056.073c.77 2.612 2.417 4.945 3.2 7.547l.073.236c-1.548-1.355-5.237-5.39-6.657-6.16l-.053-.064.053.064c1.13 2.01 3.988 2.907 4.739 5.998.448 1.842-.266 3.851-1.195 5.427 1.09-.238 2.196-.695 3.238-1.102 6.482-2.53 12.165-6.532 17.929-10.349 2.43-1.61 4.91-3.144 7.32-4.787 4.182-2.851 8.255-5.775 12.544-8.468 4.465-2.802 9.739-4.717 13.791-8.097a60.7 60.7 0 0 0-11.138 4.93c-2.293 1.31-4.494 2.809-6.744 4.195l-9.748 5.98c-.613-1.297-1.265-2.562-2.037-3.773.254 1.462.872 2.727 1.474 4.07-.731.671-1.469 1.056-2.368 1.444-.471-1.489-1.39-3.202-2.294-4.47.43 1.62 1.15 3.132 1.798 4.673-.64.448-1.279.879-1.951 1.279-1.323-1.619-2.19-3.525-3.345-5.254.589 1.913 1.461 3.84 1.819 5.808-.33.345-.698.617-1.08.903-1.865-1.759-3.094-3.713-4.663-5.69l-.07-.085zm13.744 4.917c-.109.244-.074.108-.083.413 1.636 2.248 10.017 7.011 12.855 7.572l.078.066-.078-.066c-2.58-1.9-5.57-3.24-8.163-5.151-.756-.557-3.161-2.885-3.772-3.084-.299-.096-.57.122-.837.25m-19.773 12.957.062.053c.578.697 1.686 1.594 2.545 1.897l.184.084.082.09-.082-.09-.184-.084c-.623-.701-1.677-1.541-2.545-1.897zm47.814 22.977c-.701.163-4.845.841-5.02.991 1.412.217 3.596.05 4.798-.79.125-.087.133-.104.222-.2l.06-.073zm22.245.986c-1.576.684-4.14 1.631-5.837 1.029-.222-.224-.243-.224-.277-.533.287-.293.752-.383 1.134-.516 2.055-.712 3.69-1.32 4.97-3.191-2.566.667-5.167 1.942-7.729.428q-.439-.266-.854-.566c3.96-.172 4.716-.442 8.273-2.118.65-.306 1.391-.503 1.987-.905l.049-.205c-1.68-.577-4.302 2.161-8.736-.577 3.156-.216 4.954-.602 7.906-1.779l-.927-2.028c-4.899 1.053-8.915.626-13.222-2.146q-.446-.287-.885-.584c-4.782 3.402-10.395 4.619-16.195 3.657-2.806-.465-5.253-1.673-7.684-3.098-5.56 2.958-10.869 4.707-17.156 2.803-1.937-.587-3.71-1.531-5.494-2.468-5.738 3.403-10.75 4.363-17.317 2.671-2.16-.556-4.122-1.462-6.054-2.562-5.696 3.19-11.575 3.687-17.857 1.891-2.345-.67-4.461-1.614-6.498-2.955-2.477.876-5.045 1.579-7.685 1.685-.504 1.13-1.078 2.264-1.485 3.431 2.894-.405 5.53-1.532 8.187-2.685 1.61.948 3.21 1.95 4.928 2.694 3.945 1.708 8.745 2.06 12.907.998 2.255-.576 4.43-1.532 6.494-2.594 2.823 2.657 7.535 3.904 11.327 3.805 4.295-.111 9.11-1.36 12.654-3.854 1.963 1.053 4.825 2.82 6.276 4.476-1.814.105-3.393-.418-5.165-.615.165.779.344 1.517.622 2.264-2.992 2.43-6.883 5.594-10.981 5.199-4.101-.396-6.876-4.044-10.331-5.881-4.892 3.276-9.332 5.808-15.469 4.595-3.63-.718-6.882-3.041-9.946-5.012-4.511 3.084-9.574 5.394-15.145 5.29-.893 2.585-2.126 5.036-3.032 7.617 1.344 1.925 3.476 4.015 5.69 4.887 3.24-1.453 6.885-3.721 8.558-6.967-2.768 2.163-6.622 4.323-10.278 3.857q-.48-.064-.958-.15c4.357-1.09 7.358-3.208 10.473-6.372-2.423 1.173-6.693 2.973-9.459 2.188-.19-.054-.209-.072-.358-.154.284-.207.518-.222.848-.289 1.497-.302 2.832-.823 4.203-1.493 3.126-1.526 5.898-3.776 9.01-5.325 3.505 2.344 7.023 4.57 10.684 6.666-1.174-.221-5.54-1.36-6.41-.854-.175.101-.234.254-.283.446-.35 1.379.682 3.764 1.48 4.775 1.553 1.968 4.968 4.373 7.544 4.634.51.052 1.026.055 1.538.056-1.113-.279-2.231-.531-3.306-.938 4.384-.592 6.84-2.757 9.688-5.958-3.466 2.66-6.468 4.006-10.913 3.665 3.095-1.001 7.628-2.694 9.313-5.723q.029-.058.056-.117l.048-.06-.048.06c-2.854 1.384-5.256 1.86-8.316.881 3.77-.754 6.956-1.846 10.213-3.96 1.42-.923 2.808-1.995 4.282-2.821 3.127 2.113 5.933 4.417 9.7 5.267l-.057.07-.059-.15.04.177-.23-.092c-.046.026-.089.059-.138.08-1.245.527-4.074-.538-4.74-.237-.117.053-.196.166-.294.25-.332.758-.03 1.575.252 2.31.866 2.252 2.81 4.936 5.097 5.885.576.239 1.15.293 1.764.335 2.163-.888 4.264-1.717 5.876-3.48.829-.905 1.577-1.878 2.463-2.73-4.289 1.963-3.907 4.333-9.767 3.149 3.622-.521 4.872-1.492 7.283-4.175l.059-.062-.059.062c-2.42.575-4.953 1.06-7.435 1.24 1.724-.878 3.579-1.453 5.326-2.277 2.644-1.247 5.186-2.75 7.75-4.152 1.995.988 3.871 2.195 5.871 3.174 1.569.768 3.344 1.322 4.843 2.191-2.383-.008-4.616-.394-6.944-.854.837 2.76 2.48 6.035 5.107 7.496q.109.063.221.119.113.057.228.108t.232.096.237.084.24.073.245.061q.122.028.246.05.125.02.25.036.124.015.25.024.125.01.251.012.126.003.251 0 .126-.004.252-.014.125-.01.25-.025t.249-.037.246-.05.244-.062c.528-.152 1.308-.427 1.728-.78l.06-.075-.06.075c-2.042.269-3.841.105-5.833-.389.93-.104 1.869-.192 2.775-.434 2.126-.567 5.457-2.805 6.55-4.701l.052-.058-.051.058c-.767.442-1.574 1.015-2.41 1.306-1.453.506-2.849.538-4.252 1.283 1.309-1.364 2.854-2.108 4.374-3.183.713-.504 1.352-1.112 1.991-1.705-2.29 1.148-3.457 1.382-6 1.167 3.162-1.68 6.471-3.025 9.615-4.76 2.938 1.353 5.2 3.709 8.187 4.964-2.323-.244-4.571-.719-6.852-1.21.726 3.187 2.96 7.033 5.797 8.788 1.824 1.127 3.463 1.092 5.477.604.719-.174 1.499-.375 2.075-.861l.064-.079-.064.079c-2.15.656-4.688 1.058-6.844.202.592-.043 1.19-.08 1.775-.18 2.504-.424 4.87-2.067 6.322-4.125-1.881 1.288-3.37 1.689-5.621 1.949 1.83-1.266 3.641-2.442 4.961-4.274-1.98 1.03-3.677 1.425-5.91 1.391 3.766-2.518 7.999-4.312 12.01-6.387 2.408 1.253 5.074 2.426 7.031 4.34-1.99-.207-3.971-.567-5.947-.882.643 2.243 2.026 4.728 3.619 6.434 1.198 1.283 2.678 1.794 4.401 1.847 2.029.064 4.593-.807 6.076-2.204l.066-.065-.066.065c-2.518.533-3.152 1.102-5.947.755 2.974-.889 5.283-2.554 7.694-4.486l.07-.075-.07.075c-4.552 1.465-4.976 1.168-9.554.39 5.103-.924 9.507-2.258 13.892-5.103a13 13 0 0 0-.773-1.738c-1.36.78-2.743 1.562-4.212 2.121-2.648 1.008-6.301 1.395-8.85-.102-1.138-.668-2.055-1.679-3.158-2.403-1.12-.734-2.383-1.281-3.6-1.832-1.719 1.469-3.413 2.533-5.623 3.115-6.388 1.68-11.6-.828-16.969-3.953-2.922 1.68-4.522 2.999-7.98 3.671-2.62.51-4.988.41-7.248-1.143-1.017-.699-4.221-3.281-4.433-4.4l.16-.207c1.26-.289 2.917.359 4.183.579 2.372.412 4.493-.516 6.669-1.294.629-.225 1.48-.424 2.022-.804-.557-.036-1.129.118-1.677.213-2.03.353-3.842.492-5.72-.56.666.022 1.349.053 2.01-.036 1.272-.171 2.417-.626 3.623-1.026 1.04-.344 2.11-.587 3.141-.959 1.69-.61 3.322-1.423 4.946-2.19 2.498 1.84 5.227 3.401 7.777 5.179-2.215-.357-4.428-.852-6.663-1.043.161.582.32 1.196.597 1.735.967 1.875 3.187 3.425 5.182 4.035 2.677.819 6.661-1.15 9.07-2.407-2.554.538-4.411.78-6.952.04 2.822.017 6.167-1.799 8.24-3.63-2.832 1.207-4.918 1.2-7.911.542 2.982-.436 8.607-2.154 11.38-3.36.964-.419 1.864-.96 2.767-1.493 1.953 1.746 4.038 3.321 6.043 5.006l-.132.008-.221.009c-1.475.071-2.884-.27-4.342-.284-.416-.004-.748.014-1.03.366-.234.292-.27.652-.22 1.008.246 1.764 2.165 3.789 3.501 4.86 1.797 1.44 4.182 2.294 6.494 1.989 1.338-.177 3.238-.83 4.076-1.915l.04-.07zm-61.67 9.607-.183.09-.081.081.081-.08zc.618-.288 1.247-.597 1.784-1.019-.25-.014-.496-.016-.746-.017-.487.2-.733.627-1.038 1.035m-26.448 2.15c-.591.249-1.175.605-1.613 1.08.71-.195 1.17-.488 1.614-1.08l.056-.066zm66.933.154-.172.172-.108.106-.094.071.094-.071.108-.106zl.124-.124zm-94.303 12.678c1.868-2.709 9.256-7.44 12.444-8.707q2.542 1.24 4.998 2.644c1.233.7 2.456 1.506 3.766 2.052-1.944-.15-5.577-1.228-7.17.089-.446.369-.67.872-.701 1.445-.163 2.974 3.898 7.626 5.93 9.756q.879.936 1.865 1.757.987.82 2.067 1.515c3.95.307 6.27-.043 9.36-2.694 1.09-.936 1.898-1.989 2.58-3.247-3.663 2.657-6.298 3.656-10.793 4.39 3.01-1.912 6.8-3.975 8.822-6.994-2.14 1.525-4.502 2.296-7.011 2.997-1.194.333-2.39.623-3.51 1.166 3.12-2.984 6.444-3.5 9.526-7.344-1.728.857-3.746 1.575-5.677 1.772l.202-.124c.625-.374 1.375-.537 1.966-.964 1.3-.938 2.375-2.215 3.634-3.221-1.61.53-3.974 1.309-5.672.756l.097-.157.133-.008c2.63-.221 8.89-4.181 11.574-5.432a88 88 0 0 1 8.753 5.301c-1.72-.424-4.567-1.588-6.232-.648-.363.205-.622.525-.707.937-.284 1.373 1.011 3.244 1.78 4.301 1.911 2.629 6.08 7.123 8.67 8.909a23 23 0 0 0 2.891-.234c.769-.847 1.718-1.736 2.284-2.73l.049-.064-.05.064c-1.965.652-3.961 1.162-5.966 1.672 2.555-1.516 4.708-3.106 6.733-5.3-1.957 1.195-4.18 1.593-6.387 2.072 3.091-2.924 4.14-3.311 6.307-7.242-2.4 1.79-5.254 2.924-7.736 4.624 2.348-3.085 3.923-4.154 6.773-6.582-2.359.564-4.574 1.108-6.805 2.1 3.18-3.297 8.13-4.127 11.997-6.44 3.11.892 6.152 2.632 8.472 4.88-1.82-.434-3.887-1.134-5.754-1.102-.447.008-.829.07-1.133.429-.304.36-.453.869-.397 1.336.358 2.997 5.619 9.902 8.003 11.672 1.157.858 2.587 1.554 4.063 1.295 2.116-.373 4.23-3.125 5.423-4.74-2.682 1.66-4.745 1.69-7.82 1.59.922-.704 1.972-1.244 2.919-1.919 1.278-.91 2.329-2.046 3.4-3.182-2.508 1.357-5.47 2.374-8.213 3.153.847-.921 1.983-1.699 2.917-2.546 1.852-1.68 3.481-3.506 4.996-5.491-1.767.931-3.637 1.637-5.423 2.525-1.227.61-2.386 1.354-3.547 2.078 3.809-3.959 8.535-6.832 13.135-9.754q.572.158 1.134.346.563.187 1.114.404.552.216 1.092.462.54.245 1.067.518.526.272 1.038.572.511.3 1.007.626t.973.677.936.727c-1.213-.287-4.992-1.493-6.068-.753-.268.184-.405.514-.444.826-.27 2.19 2.642 5.942 3.936 7.508 1.383 1.673 4.397 5.14 6.725 5.273 2.054.118 3.646-1.388 5.065-2.65-2.465 1.08-4.563 2.236-7.314 1.411 2.84-.792 4.677-2.923 6.455-5.153-2.35.998-4.854 1.593-7.38 1.914 2.865-1.558 4.925-3.794 6.84-6.405-2.082.939-4.367 1.53-6.496 2.403.823-1.094 2.338-2.027 3.405-2.891 2.513-2.034 4.91-4.116 7.595-5.938 2.9 1.04 5.875 2.98 7.824 5.38-1.368-.383-5.242-1.958-6.362-1.387-.231.302-.328.532-.316.912.074 2.165 3.83 7.815 5.241 9.606 1.054 1.338 2.23 2.541 3.446 3.73 1.519-.03 3.372.126 4.817-.382 1.779-.626 2.716-2.265 3.493-3.86-2.383 1.442-4.651 2.575-7.41 3.103.745-.864 1.663-1.595 2.465-2.409 1.376-1.395 2.405-2.967 3.404-4.638-1.903 1.538-4.385 2.603-6.711 3.309 2.074-2 3.795-4.556 5.53-6.849-2.504.543-4.695 1.106-6.987 2.299 2.567-2.75 8.63-7.187 11.971-8.833 1.75.466 3.4 1.155 5.183 1.516q-.046-.148-.095-.294c-.389-1.13-1.645-5.188-2.846-5.547-1.505-.45-6.702 2.56-8.42 3.171-5.279 1.88-8.933.689-13.784-1.59-2.05 1.012-4.098 1.86-6.365 2.244-6 1.014-9.058-.207-13.853-3.589-2.816 1.894-5.555 3.767-8.983 4.317-5.045.811-8.6-1.544-12.519-4.382-2.648 1.669-5.397 3.635-8.456 4.445-5.687 1.506-10.516-2.868-15.089-5.544-3.022 2.916-6.157 5.048-10.435 5.513-6.646.723-9.514-2.165-14.235-5.978-3.072 1.814-6.758 5.045-10.382 5.297-4.772.332-8.898-2.661-12.286-5.618-.653 1.432-1.328 2.886-1.792 4.392 3.435 1.041 6.207 2.694 9.244 4.55-1.656.062-4.752-.47-6.068.737-.447.41-.648.973-.665 1.569-.118 4.193 5.512 10.166 8.32 13.023 1.379.005 2.931.127 4.255-.294 2.002-.636 3.162-2.567 4.046-4.335-1.756 1.323-3.899 2.566-6.088 2.968-.47.087-.817.104-1.225-.183-.012-.226 1.472-.925 1.778-1.115 2.377-1.478 4.209-4.458 5.332-6.943-2.47 2.75-5.793 4.462-9.398 5.083 4.004-2.338 6.162-5.282 8.761-9.028zm126.93 4.213.07.061c1.746 2.08 5.268 4.381 7.728 5.615-.264-.775-.61-1.454-1.008-2.168-2.373-1-4.446-2.289-6.72-3.447zM7.457 228.784c1.53-.663 3.059-1.794 4.488-2.673q6.988-4.274 13.886-8.692c2.82-1.809 5.6-3.726 8.469-5.452.347-.209.764-.475 1.169-.532q.074-.01.149-.017c1.44-.17 2.95-.066 4.399-.053q3.443.04 6.886.032l26.689-.008 87.923.022 43.977.007 9.86.01c1.603.001 3.582-.221 5.13.142 1.776.416 3.612 2.163 5.154 3.126q7.483 4.724 15.022 9.358c2.222 1.356 4.546 2.996 6.905 4.066l.112.05.074.059-.075-.06c-2.951-2.78-6.287-5.246-9.496-7.718q-5.617-4.415-11.304-8.738l-13.978-10.802c-1.988-1.514-3.964-3.135-6.028-4.54-5.558.139-11.135.054-16.695.056l-30.804.011-110.76.034c-1.652.893-3.235 2.421-4.714 3.594-3.44 2.73-6.85 5.507-10.32 8.196-4.818 3.737-9.745 7.372-14.627 11.027-3.926 2.94-8.155 5.879-11.492 9.495l-.079.062zm95.745-184.492q-1.338.337-2.667.708-1.33.37-2.649.773-1.319.404-2.628.84-1.309.437-2.606.905-1.298.469-2.584.97-1.285.5-2.558 1.034-1.272.532-2.531 1.097-1.26.564-2.504 1.16-1.244.595-2.474 1.221-1.229.627-2.442 1.284t-2.41 1.343-2.376 1.404q-1.178.717-2.34 1.462-1.16.746-2.302 1.52-1.142.775-2.264 1.577-1.122.803-2.224 1.633t-2.183 1.688-2.14 1.742-2.096 1.794-2.05 1.846-2.004 1.897-1.956 1.946-1.906 1.994-1.857 2.041q-.915 1.033-1.805 2.087t-1.752 2.132q-.863 1.076-1.699 2.174t-1.644 2.216-1.588 2.255-1.532 2.296-1.474 2.332-1.415 2.368q-1.756 3.027-3.3 6.167-1.545 3.14-2.871 6.379c-9.036 21.695-10.229 44.952-4.42 67.643.925 3.612 2.323 7.069 3.315 10.65.61-1.06 1.206-2.119 1.923-3.112-1.198-2.41-2.297-6.256-3.076-8.894-5.616-19.042-4.645-39.899 1.65-58.664q.43-1.256.89-2.501t.952-2.479q.49-1.233 1.011-2.454t1.072-2.43q.551-1.207 1.131-2.401t1.19-2.374 1.247-2.343 1.305-2.312q.666-1.149 1.36-2.28.695-1.132 1.417-2.246.721-1.114 1.47-2.21.75-1.096 1.525-2.173.776-1.078 1.578-2.135.801-1.058 1.63-2.096.827-1.039 1.68-2.056.852-1.017 1.73-2.014.877-.996 1.779-1.97.901-.975 1.827-1.927t1.873-1.88 1.919-1.835q.97-.906 1.964-1.787.992-.882 2.006-1.739 1.014-.856 2.049-1.688t2.09-1.638 2.128-1.586 2.168-1.533q1.093-.754 2.204-1.48 1.111-.727 2.24-1.425 1.128-.7 2.274-1.37 1.145-.671 2.307-1.314t2.338-1.257 2.369-1.199c6.273-3.117 13.037-5.885 19.814-7.67.247-.525.892-1.556.901-2.106m54.676 8.253 1.006 1.677c.462-.194.94-.37 1.39-.587l.136-.203c-.555-.473-1.815-.678-2.532-.887M98.11 55.88c-6.764 2.814-10.422 6.172-18.361 5.026-.399.215-3.291 1.57-3.404 1.858l.162-.186-.37.234c.28.28.713.372 1.081.498 5.649 1.679 11.172.73 16.281-2.05.968-.526 1.911-1.099 2.855-1.665.336-.655 1.821-3.053 1.835-3.645zm70.587 1.253c-2.441.69-4.58 1.53-6.732 2.907q.593 1.199 1.267 2.353c4.339-1.86 7.724-2.994 12.356-1.123.897.363 1.757.827 2.595 1.311 2.066 1.225 3.983 2.151 6.31 2.8-2.507-1.533-13.467-8.388-15.796-8.248m-99.38 10.583q-1.354 1.05-2.728 2.074c6.061 2.253 9.537 5.476 16.557 5.325 1.678-.036 3.601-.267 5.194-.822l.191-.22c.718-1.316 1.527-2.624 2.151-3.985-4.751 2.237-9.694 2.503-14.672.721-2.345-.84-4.411-2.16-6.693-3.093m100.392.33c-1.254.136-2.479.416-3.685.784.372 1.019.962 1.95 1.502 2.886 10.762-2.803 12.98 7.353 24.775 4.077 1.23-.444 2.458-.928 3.593-1.582q-1.238-1.117-2.511-2.195c-4.267 1.535-7.862 1.59-12.013-.379-4.16-1.972-6.786-3.921-11.661-3.59M62.622 78.052c-7.265.51-9.07 3.005-13.587 8.126 2.235-.953 4.278-2.272 6.472-3.306 4.312-2.031 9.266-2.448 13.72-.663l.101.04c4.135 1.923 7.967 3.88 12.686 3.732a52 52 0 0 0 1.563-2.737c-2.078-.14-4.168-.225-6.177-.822-5.293-1.572-8.78-4.68-14.778-4.37m109.045 1.141 1.685 3.11c2.714.233 4.812 1.587 7.135 2.885 4.818 2.693 10.196 2.69 15.224.547 2.502-1.066 4.806-2.434 7.382-3.36l.329-.185c-.187-.775-1.509-1.835-2.072-2.388-3.433 1.066-6.488 3.141-9.986 3.997-5.837 1.427-9.121-1.441-14.15-3.402-1.799-.701-3.622-1.074-5.547-1.204m-110.476 9.98c-5.075.57-7.89 2.695-12.405 4.549-1.942.797-3.891 1.272-5.954 1.626-.767.866-1.35 1.949-1.901 2.962 3.916-.112 7.41-1.066 10.92-2.803 1.438-.712 2.833-1.523 4.316-2.136 5.52-2.063 9.704-1.66 14.98.746 1.52.694 3.037 1.474 4.641 1.957.549-.89 1.083-1.767 1.53-2.714-5.692-1.7-9.692-5.181-16.127-4.187M164.04 97.7c-.775 2.776-1.147 5.851.349 8.462 1.097 1.917 2.934 2.987 4.838 3.978l.258.015c.086-.825-4.463-11.166-5.252-12.267-.069-.096-.111-.122-.194-.188m44.805 1.974c-2.037.23-3.906.834-5.797 1.616-8.188 3.387-9.904 6.084-19.114 3.014.603 1.166 1.173 2.387 1.839 3.517 3.367 1.123 6.35 1.185 9.755.2 6.03-2.07 11.303-6.58 17.998-4.537 2.093.639 4.014 1.692 6.041 2.496-.541-1.362-1.16-2.653-1.937-3.897-2.897-1.31-5.509-2.678-8.785-2.41m-147.25.376c-5.057.521-7.281 2.161-11.707 4.12-4.093 1.81-8.478 2.34-12.897 1.665-.464.89-.9 1.77-1.27 2.705q.727.177 1.465.306.737.129 1.481.208t1.493.108 1.496.008 1.494-.093 1.484-.192q.739-.12 1.468-.29.728-.17 1.444-.39c7.104-2.15 11.399-7.1 19.698-4.493 1.271.4 2.39 1.027 3.602 1.553.493-.834 1.044-1.67 1.426-2.56-3.193-1.678-6.982-3.232-10.676-2.655m72.577 2.663c-.424 1.325-1.874 7.15-1.316 8.18.01.02.026.037.039.056.369-.034.767-.008 1.051-.274-.002-1.054-.136-2.082-.095-3.14.053-1.376.554-3.565.321-4.822m74.792 8.208c-5.203.653-8.912 3.424-13.716 4.846-1.568.465-3.121.662-4.749.758.554.996 1.115 1.99 1.763 2.928 5.284-.206 9.523-3.377 14.46-4.838 1.29-.322 2.505-.554 3.841-.5 3.315.133 6.36 1.847 9.366 3.09q2.36.99 4.84 1.618c-.366-1.158-.697-2.345-1.116-3.485-1.28-.389-2.54-.804-3.774-1.327-3.315-1.407-7.175-3.72-10.915-3.09m-146.112.136c-12.373.448-15.483 10.267-30.077 4.3l-.742 2.616a16.7 16.7 0 0 0 3.29 1.423c5.354 1.457 10.709.8 15.699-1.566 2.207-1.046 4.31-2.24 6.667-2.938 2.747-.814 5.309-.911 8.14-.743q.664-1.338 1.383-2.648a21 21 0 0 0-4.36-.444m82.048.505h.117zm-2.409 1.005.025.374.179.024.032-.403c-.079-.001-.16-.017-.236.005m-6.666 2.256c.254.875.69 1.721 1.179 2.487l.277.128c-.256-.763-.667-1.949-1.215-2.517zm-74.535 6.975c-2.975.274-5.628 1.385-8.27 2.72-6.796 3.433-11.431 5.281-18.989 2.37-1.436-.554-2.781-1.279-4.17-1.933-.225.85-.539 1.712-.551 2.595.114.194.194.3.38.429 5.736 3.2 10.908 4.305 17.365 2.452 3.06-.878 5.651-2.49 8.496-3.836 1.41-.667 2.91-1.159 4.393-1.637.365-.612 1.724-2.508 1.617-3.141zm147.796-.005c-4.595.644-8.783 3.242-13.144 4.734.572.872 1.066 1.788 1.571 2.7 4.226-1.323 9.484-4.585 13.815-4.173 1.379.132 2.657.561 3.95 1.035 4.206 1.706 8.072 3.718 12.525 4.768l-.73-3.389q-3.015-.795-5.865-2.06c-3.761-1.632-7.85-4.207-12.122-3.615m-107.858 5.878c-1.355.173-2.622.448-3.882.986-1.435.612-2.704 1.526-3.99 2.394-2.873 1.938-5.532 3.789-7.74 6.507 2.553-.272 8.082-.957 10.221.727l-.048.16c-1.344.384-3.007.063-4.384-.067-1.393-.064-2.561.025-3.917.345 2.276.578 4.391.49 6.715.491 3.321 0 6.929.26 9.903-1.51 1.487-.886 2.77-2.237 3.174-3.961q.03-.121.053-.244.023-.122.04-.246.016-.123.026-.247.01-.125.015-.25.003-.124.001-.249-.002-.124-.011-.249-.01-.124-.025-.248-.015-.123-.037-.246t-.05-.244-.062-.241-.075-.238-.087-.233-.098-.23-.11-.223-.122-.217-.133-.211c-.735-1.114-1.864-1.927-3.183-2.185-.72-.14-1.467-.123-2.195-.071m108.429 5.252c-3.022.33-5.972 1.329-8.678 2.707.522.829 1.086 1.652 1.558 2.51 5.518-2.155 9.193-2.848 14.793-.42 1.3.563 2.577 1.193 3.857 1.802 2.59 1.219 5.153 2.168 8.005 2.558-.112-1.039-.261-2.078-.358-3.118q-1.628-.386-3.215-.915-1.587-.53-3.12-1.2c-4.234-1.846-8.03-4.26-12.843-3.924M27.939 135.05l-.407 2.692c5.636 3.55 10.847 5.662 17.649 4.13 2.191-.493 6.194-1.696 7.466-3.706.179-.283.344-.576.509-.867.414-.725.89-1.457 1.23-2.218-2.264.828-4.335 1.977-6.559 2.856-5.373 2.123-10.747 1.565-15.911-.826q-2.028-.955-3.977-2.06m85.93 1.177-1.337.688c3.5 2.734 7.86 4.352 12.147 5.354.309.067.73.239 1.025.13l.07.083c-.123-.252-2.343-.963-2.823-1.145-2.27-.862-4.527-1.872-6.55-3.228-.872-.586-1.647-1.32-2.532-1.882m95.217 7.822c-1.03.111-2.032.249-3.043.485l1.559 2.882c9.084-.832 11.475 3.123 19.444 5.405.743.15 1.483.314 2.235.404.052-1.013.07-2.015.05-3.03-1.961-.366-3.78-.958-5.613-1.744-4.552-1.952-9.431-5.235-14.632-4.402M26.97 145.754l-.005 2.984c5.8 3.997 10.286 5.234 17.344 4.583.316-.49.58-1.002.851-1.518l1-2.001c-5.506 1.195-9.484.948-14.564-1.64-1.538-.784-3.038-1.742-4.626-2.408m140.497 6.796c-.223.217-.3.32-.363.626l.09.136.128-.036.494-.498-.042-.151zm-71.027.83c-.53.232-1.044.437-1.615.551-.576.115-4.553.464-4.635.54l.213.088c1.635.179 4.762.179 6.103-.916.034-.028.06-.064.088-.096-.049-.058-.088-.13-.154-.166m47.3.103.131.052-.094-.065zm-25.332.08h.153zm-.5-.01-.495.286.027.163.18.076.582-.34-.04-.13zm-4.21.999c.221.36.222.407.608.56.404-.053.753-.174 1.135-.311l-.028-.227c-.542-.154-1.156-.056-1.715-.023m-3.283.212c.445.308.802.61 1.375.537.186-.024.37-.08.548-.135l-.052-.241c-.599-.175-1.25-.166-1.87-.162m101.656.499q.857 1.782 1.775 3.535c1.19.286 2.322.637 3.455 1.106 2.537 1.05 8.33 4.242 10.982 3.901l.09-.087c.115-.94.246-1.882.282-2.83-1.613-.364-3.173-.78-4.72-1.38-4.282-1.66-7.096-3.459-11.864-4.245m-70.855.504c-.772.17-1.662.4-2.315.862l.008.162.316.078c.718-.255 1.865-.547 2.429-1.042-.146-.025-.29-.06-.438-.06m-46.54.287c.117.142.244.392.436.42.255.036.488-.088.719-.182l-.04-.25c-.394-.09-.72-.04-1.114.012m23.502-.069-.089.275.149.131.6-.062.126-.28c-.283-.146-.475-.084-.785-.064m-26.047.393c.25.31.285.44.711.495.093.012.203.007.297.005-.085-.175-.131-.412-.324-.484-.236-.088-.44-.042-.684-.016m23.841.182c-.482.02-.959.022-1.43.14.097.244.014.144.277.277.439.024 1.055.124 1.407-.21.025-.024.044-.053.066-.08-.234-.145-.121-.123-.32-.127m21.04.123-.243.105.335-.026.2-.157zm-109.796.328q.101 1.682.235 3.362c3.395 1.772 6.805 3.683 10.652 4.231l.52-.917 1.073-2.026c-5.281-.818-7.875-2.185-12.48-4.65m165.759 7.441c.01 1.042.136 2.293.97 3.035.142.126.322.226.491.308-.335-.93-.77-2.682-1.461-3.343m26.26 3.99c.78 1.368 1.672 2.764 2.282 4.213.888.444 3.714 1.806 4.607 1.633l.105-.181.403-2.405c-1.247-.467-2.476-.947-3.68-1.52-1.143-.546-2.501-1.45-3.717-1.74m-190.76.49q.442 2.014.98 4.003 1.869.695 3.708 1.466l.39-.809.992-2.044a136 136 0 0 1-6.07-2.615m166.01.167c.317.406.615.773 1.061 1.043-.086-.362-.122-.607-.42-.861zm-74.517 3.047c-.389.099-.78.147-1.097.403l.179.087c.427-.113.805-.209 1.184-.44-.211-.064-.121-.061-.266-.05m79.25 7.002c-1.422.522-2.755.65-4.259.745.352.993.658 1.953.808 2.998.173 1.206.165 2.489.552 3.648l.03.09c1.68 1.662 4.226 2.64 6.369 3.576l1.159.515c-.917-3.274-1.202-2.99-3.799-4.904l2.221.678c-.409-1.024-2.785-7.082-3.082-7.346m-59.058 36.38c4.42 2.264 8.527 3.65 13.432 2.046.862-.282 1.688-.638 2.514-1.013.701-.37 1.4-.77 2.129-1.082-4.446.197-8.916.085-13.365.069-1.557-.006-3.159-.095-4.71-.02m38.895-.004c4.815 2.297 9.612 3.986 14.905 2.133q1.084-.38 2.091-.935 1.072-.566 2.126-1.164c-6.36.024-12.77-.261-19.122-.034m29.56.001c-2.972 3.659-6.762 6.935-10.405 9.923q-.783.64-1.578 1.265-.795.626-1.601 1.236-.807.61-1.624 1.206-.818.595-1.646 1.175-.829.58-1.668 1.145t-1.688 1.114q-.85.55-1.709 1.083-.86.534-1.728 1.05-.87.518-1.748 1.02-.878.5-1.766.986-.888.485-1.784.953-.896.469-1.801.92t-1.818.887-1.834.853-1.85.82q-.928.4-1.864.784t-1.879.75-1.892.715q-.95.35-1.905.68-.956.332-1.917.645-.962.314-1.929.61-.967.295-1.94.573-.972.278-1.95.537-.977.26-1.96.502-.982.242-1.968.465-.987.223-1.977.429-.99.204-1.984.392-.994.186-1.992.355-.997.168-1.997.318t-2.003.281q-1.003.132-2.008.244-1.006.113-2.012.208-1.34.138-2.682.244t-2.686.18-2.69.112q-1.346.042-2.692.05-1.346.007-2.692-.018t-2.691-.082-2.689-.149q-1.343-.09-2.683-.213-1.341-.124-2.678-.28-1.338-.155-2.67-.344-1.334-.188-2.662-.408-1.328-.221-2.65-.474-1.323-.253-2.638-.538-1.316-.285-2.624-.602t-2.609-.665-2.592-.729-2.573-.792-2.553-.854q-1.272-.442-2.532-.916t-2.509-.977-2.484-1.038-2.458-1.099-2.43-1.157q-1.21-.594-2.403-1.217t-2.371-1.275-2.34-1.332-2.306-1.388q-1.145-.709-2.273-1.445-1.127-.736-2.236-1.499t-2.2-1.553-2.16-1.606q-1.07-.817-2.121-1.659c-3.959-3.222-7.623-6.63-11.166-10.3l-2.349-.02c.637.781 1.255 1.595 1.927 2.345q.95.987 1.922 1.95.974.964 1.97 1.903.997.939 2.017 1.853t2.061 1.803q1.042.89 2.105 1.753t2.148 1.7q1.084.836 2.188 1.646t2.228 1.593 2.267 1.537 2.304 1.48q1.16.727 2.34 1.424 1.178.698 2.373 1.366t2.407 1.308q1.211.638 2.438 1.247 1.226.609 2.468 1.188 1.241.578 2.496 1.126t2.523 1.065 2.549 1.002 2.573.94 2.594.875 2.616.812 2.635.748 2.652.682q1.33.325 2.668.617t2.683.551 2.696.485q1.35.228 2.706.42t2.716.352q1.36.158 2.724.285 1.364.125 2.73.218t2.734.15q1.369.06 2.738.085 1.377.035 2.754.035 1.377.002 2.754-.03t2.752-.097 2.749-.166 2.744-.232 2.738-.3q1.367-.165 2.73-.365t2.72-.433 2.708-.497 2.696-.564 2.681-.63 2.665-.694 2.647-.76q1.32-.395 2.629-.823t2.607-.888 2.584-.951 2.561-1.014 2.535-1.075q1.261-.554 2.508-1.138t2.48-1.198 2.45-1.258 2.419-1.317 2.385-1.376 2.352-1.434 2.316-1.491 2.278-1.547 2.24-1.602 2.201-1.655 2.16-1.71 2.117-1.76 2.074-1.813 2.029-1.862c1.998-1.913 3.797-3.963 5.709-5.952-.882.006-1.77.035-2.652.007m-108.024.133c4.243 2.18 8.234 3.474 12.968 1.968.892-.284 1.745-.669 2.597-1.052l2.076-.941-10.8-.008c-2.268-.006-4.578-.101-6.841.034m-41.46.082c3.208 2.442 6.908 3.475 10.93 2.945 2.092-.276 4.001-.974 5.866-1.938l1.992-1.015-12.25-.015c-2.164-.003-4.379-.096-6.539.023m69.311 3.31c-6.85.559-11.85 6.653-18.798 6.834-8.756.229-13.679-9.113-24.583-5.399-7.412 2.525-11.005 6.953-19.67 5.7 1.49 1.169 3.147 2.096 4.685 3.199 6.738-.021 11.856-5.754 18.393-6.499 8.103-.922 13.832 6.847 21.93 6.195 6.824-.55 11.206-5.562 17.123-6.669 1.12-.118 2.163-.176 3.28 0 5.713.895 10.657 5.94 17.08 6.66 8.235.924 14.745-7.376 21.866-6.33 5.592.82 10.33 4.773 15.786 6.206 1.668-.776 3.189-1.747 4.722-2.755-1.768-.049-3.41-.195-5.119-.683-5.616-1.603-11.11-6.12-17.035-5.99-2.42.054-4.465.883-6.61 1.934-5.738 2.813-10.27 5.956-16.868 3.602-5.225-1.864-10.396-6.428-16.182-6.005m.698 11.127c-1.191.086-2.314.208-3.464.542-5.178 1.501-9.457 5.653-14.989 6.052-2.318.167-4.548-.41-6.682-1.272-2.358-.954-4.548-2.25-6.872-3.27-6.706-2.942-12.185-1.154-18.258 2.325 1.069.538 2.144 1.151 3.27 1.559 4.5-2.11 8.194-3.122 13.04-1.351 1.848.675 3.614 1.624 5.375 2.494 6.4 3.162 10.243 3.792 16.908.738 3.502-1.606 6.746-3.87 10.61-4.528 7.528-.768 13.236 5.951 20.58 6.566 9.883.828 15.655-10.219 26.05-4.826 1.215-.514 2.431-1.034 3.599-1.65-3.734-2.09-8.415-3.818-12.683-2.592-4.754 1.365-8.75 4.848-13.661 5.752-8.74 1.608-14.828-7.083-22.823-6.538m-.693 10.87c-3.909.413-7.383 2.396-10.749 4.306 1.694.127 3.793.58 5.456.332.794-.119 1.547-.448 2.279-.764 1.78-.77 3.315-.907 5.221-.641 1.84.203 3.29.654 4.958 1.461 1.786-.155 3.59-.247 5.37-.456-3.526-1.987-8.347-4.821-12.535-4.238m.633-227.523-.07-.149zm-3.157 1.744.06-.14z"/><path d="M128.453 63.154c-.327-.106-.803-.208-1.051-.454-.145-.145-.117-.498-.129-.701-.126-2.035-.025-4.132-.022-6.175l.003-11.344q-.029-7.354.063-14.707c.046-3.096.055-6.22.366-9.303.388 2.804.531 5.66.633 8.488.137 3.799.523 33.328.137 34.196m5.131 7.967c.96-7.572 1.7-15.193 2.541-22.781.295-2.662.505-7.335 1.253-9.755.424.449.78 1.65.828 2.256.128 1.661-.482 4.972-.679 6.797L135.5 66.126c-.098.94-.398 6.29-.778 6.736zm-16.225-29.542c.359-.85.642-1.738.944-2.61.368.627 3.919 28.78 4.376 31.978l-1.088 1.561-.084-.01c-.307-.848-.68-5.531-.86-6.88l-2.11-15.367c-.394-2.887-.71-5.797-1.178-8.672m-7.269 15.738 1.005-1.956c.613.915 1.817 6.502 2.177 7.893q2.094 7.939 4.099 15.902l-.901 1.392c-.562-1.669-.934-3.474-1.393-5.178l-3.049-11.499c-.562-2.143-.979-4.559-1.939-6.554m29.936 22.08c-.278-.34-.653-.733-.798-1.154-.112-.328-.085-.589-.028-.925.638-3.794 1.95-7.88 2.908-11.633.745-2.917 1.495-7.162 2.68-9.844.168.684.477 1.32.758 1.962q-2.856 10.773-5.52 21.594m-35.365-9.213c.257-.558.45-1.144.659-1.721.799.892 5.67 14.076 6.597 16.567l-.797 1.259c-.068-.056-.152-.097-.204-.169-.381-.52-.951-2.595-1.243-3.352-1.61-4.183-3.122-8.524-5.011-12.584m39.341 15.373c.835-1.838 1.438-3.761 2.112-5.662.813-2.288 1.703-4.546 2.535-6.827.559-1.533 1.042-3.091 1.66-4.602.422.405.645 1.1.876 1.629-2.192 5.56-4.19 11.22-6.2 16.85-.423-.397-.687-.894-.984-1.388m3.997 11.601c-.237-.064-.32-.255-.467-.445-.072-.314-.044-.516.053-.816.826-2.54 2.198-5.055 3.367-7.464q2.198-4.537 4.332-9.104c.292.474.49 1.062.758 1.562l-5.154 10.613c-.901 1.863-1.715 3.957-2.89 5.654M99.766 81.137c.195-.448.421-.885.637-1.324 1.042.925 6.711 12.037 7.66 14.046-.245.372-.455.773-.677 1.16-.413-.445-7.034-12.628-7.62-13.882m-4.457 9.679.643-1.495c.931.752 8.371 11.588 8.954 12.907-.055.383-.338.651-.574.94-2.1-2.646-3.977-5.533-5.928-8.29-.976-1.38-1.944-2.822-3.095-4.062m57.816 8.923c2.677-2.96 4.102-6.968 6.639-10.035.36.234.533.882.712 1.281-.817 1.484-1.789 2.901-2.696 4.334-1.238 1.957-2.43 3.977-3.885 5.784-.302-.427-.529-.901-.77-1.364m-61.584-.18.572-1.252c.791.362 8.075 8.816 8.903 9.94-.019.374-.311.621-.545.891-1.07-.485-7.742-8.255-8.93-9.58m-3.416 7.734.588-1.25c.608.25 8.919 8.091 9.63 8.943-.008.412-.18.587-.396.933-2.165-1.108-7.779-6.717-9.822-8.626m-3.756 7.698.767-1.291c1.64 1.299 8.81 5.747 9.478 6.917-.079.378-.344.605-.597.877zm15.945 18.515c.066-.157.132-.315.187-.476.13-.385.117-.807-.111-1.158-.198-.304-.462-.39-.784-.492-.476.605-.166 1.509-.816 2.162-.378.17-.69.161-1.087.066-.584-.14-1.007-.359-1.322-.877-.023-.377.02-.459.183-.805.146.392.308.835.702 1.043.263.14.645.126.923.023.333-.124.452-.259.624-.56.031-.221.066-.404-.024-.62a1.06 1.06 0 0 0-.625-.577c-.437-.13-.892.015-1.295.18l-.115.048-.116-.128c.012-.044.02-.091.038-.133.225-.518.869-.828 1.349-1.06q.267-.016.534-.02c.802-.016 1.639.216 2.213.81.336.347.501.791.485 1.272-.028.858-.33 1.55-.965 2.112-.692.61-1.51.943-2.442.871-.66-.05-1.224-.232-1.663-.736-.092-.326-.106-.379-.016-.703 1.052.072 1.568 1.194 2.818.842.672-.19.986-.487 1.325-1.084m.46 1.738-.175-.162.025-.213c.918-1.114 2.24-2.993 3.386-3.777.196.105.257.206.315.43.113.435-.218 1.044-.441 1.403-.713 1.145-1.803 2.001-3.11 2.319m-6.744-1.149c-.492-.53-1.062-.963-1.055-1.73.188-.4.535-.536.903-.739.03.032.07.056.088.095.427.944 1.082 1.724 1.546 2.674l-.253.2c-.903-.075-1.512.531-2.347.72-.538.121-1.22.043-1.772.028a1.2 1.2 0 0 1-.529-.202l.009-.179c1.024-.666 2.219-.798 3.41-.867M70.638 184.36l.058-.057zm26.488.608.067-.068zm65.014.51.063-.058zm-21.76 4.491.064-.067zm-19.504.127.07-.066zm11.256 17.891c.044-1.245-.146-7.273.287-7.938 1.389-.054 2.722-.103 3.859.845.767.639 1.16 1.544 1.223 2.529.094 1.457-.396 2.786-1.33 3.888-1.231.821-2.626.681-4.039.675m1.319-6.51q-.022 2.661.003 5.321c.715-.204 1.34-.381 1.972-.788.512-.847.937-1.92.71-2.927q-.023-.101-.055-.2-.033-.099-.076-.194-.042-.094-.095-.184t-.114-.174q-.062-.084-.132-.161t-.148-.146-.162-.13-.175-.113c-.531-.301-1.136-.286-1.728-.304m7.922 6.664c-.333.004-.652.006-.974-.093-.84-.257-1.495-.941-1.864-1.72-.577-1.22-.7-2.851-.21-4.12.433-1.123 1.095-1.694 2.173-2.176.44-.056.872-.127 1.299.027.752.272 1.313.833 1.65 1.55.601 1.273.594 2.915.087 4.216-.433 1.11-1.084 1.822-2.161 2.315m-.88-6.662c-.733.647-.975 1.36-1.053 2.326-.068.844.048 1.806.65 2.452.283.304.566.382.974.373q.166-.005.332-.019c.808-.726 1.103-1.49 1.164-2.576.041-.73-.08-1.575-.607-2.126a1.44 1.44 0 0 0-1.097-.458c-.121.002-.243.016-.364.028m6.361 6.719c-.664-.005-1.58-.095-2.144-.46-.234-.505-.052-.976.103-1.494.695-.1 1.248.557 2.135.377.244-.182.403-.254.46-.576.188-1.037-1.936-2.095-2.503-2.829-.306-.396-.597-.946-.464-1.463.194-.753 1.035-1.392 1.678-1.732.942-.143 1.685.085 2.579.346-.116.285-.262.788-.507.98-.44.345-1.378.065-1.909.067-.283.218-.282.276-.394.622.682 1.049 2.025 1.427 2.657 2.655.28.544.43 1.199.198 1.787-.317.8-1.131 1.392-1.89 1.72m-43.052-.246c-.007-1.29-.231-6.88.101-7.699l.256-.07c.675-.006 1.449-.071 2.108.078.638.144 1.555.477 1.86 1.12.534 1.129-.427 1.694-.764 2.612.13.18.252.333.411.489.277.273.552.5.65.893.159.632-.17 1.293-.49 1.816-1.216.997-2.656.779-4.133.762m1.275-6.5c-.02.54-.137 1.243.112 1.731.456.25.83.1 1.308-.035.16-.298.35-.634.298-.988-.044-.306-.238-.45-.497-.587-.327-.172-.864-.13-1.221-.121m.033 3.078c-.03.623-.148 1.325.102 1.908.236.197.306.261.638.253.312-.008.727-.13 1.017-.248.141-.441.323-.91.06-1.349-.214-.358-.622-.463-1.005-.518a6 6 0 0 0-.812-.046m13.388 3.161c-.31-.816-.594-1.756-1.16-2.436-.186-.225-.289-.352-.59-.387-.618.697-.02 2.094-.23 2.917-.044.175-.182.194-.328.276-.368-.042-.435-.08-.738-.297-.352-.582-.17-6.526-.176-7.633l.593-.01c1.209-.012 2.524-.02 3.425.931.37.39.593.908.54 1.45-.088.905-.609 1.588-1.284 2.14q.793 1.631 1.62 3.245c-.523.018-1.02.025-1.541-.031zm-2.014-6.228-.004 2.239c.577-.028 1.097-.04 1.649-.234.209-.449.404-.863.239-1.364-.08-.24-.31-.425-.543-.52-.413-.166-.905-.126-1.341-.121m4.273 6.448.01-7.733 1.716-.034c.775-.008 1.611.038 2.18.637 1.445 1.522-.299 1.936-.356 2.967.36.3.737.601.954 1.026.314.615.124 1.293-.058 1.915-.323.523-.706.83-1.215 1.168-1.074.084-2.155.058-3.231.054m1.232-6.437c-.014.507-.094 1.049.138 1.514.269.177.425.21.75.155.263-.045.533-.142.786-.227.097-.423.158-.686.026-1.105-.511-.457-1.048-.364-1.7-.337m-.006 2.905.008 2.102c.685-.001 1.274.006 1.92-.262.14-.425.273-.823.01-1.242-.248-.394-.789-.555-1.228-.592-.235-.02-.474-.012-.71-.006m5.587 1.748c-.127.378-.173.775-.292 1.155-.093.299-.226.465-.526.582-.273.107-.63.055-.883-.064-.022-.079-.06-.155-.067-.236-.013-.165 2.191-6.556 2.424-7.454.352-.012.646-.01.993.077.686 2.655 1.56 5.214 2.54 7.774l-1.425.01c-.2-.607-.352-1.321-.736-1.838zm1.024-3.409c-.193.585-.589 1.38-.493 1.978.27.304.51.242.905.285l.212-.182c-.029-.582-.21-1.653-.624-2.08m-17.991 3.38c-.154.54-.31 1.541-.725 1.878-.382-.012-.728.059-1.04-.175.112-1.28.847-2.786 1.256-4.028.386-1.172.721-2.362 1.065-3.546.353-.006.692.013 1.043.046.181.187 2.158 6.594 2.573 7.677l-1.546.022c-.148-.575-.251-1.39-.629-1.851zm.996-3.791c-.216.759-.593 1.588-.478 2.377.247.306.514.247.895.295l.282-.162c.042-.742-.359-1.84-.699-2.51"/></svg>