<svg xmlns="http://www.w3.org/2000/svg" viewBox="0 0 256 256"><path d="M122.913 0h10.781l.12.022c2.706.476 5.567.468 8.307.8q8.314.993 16.443 2.996 1.12.277 2.235.574t2.223.615q1.11.317 2.213.654t2.2.695q1.096.357 2.186.734t2.174.774 2.159.813 2.144.852 2.128.89 2.111.93q1.052.474 2.095.967t2.076 1.005 2.058 1.042 2.039 1.08 2.019 1.117q1.004.567 1.998 1.152.994.586 1.977 1.19.983.603 1.955 1.224t1.933 1.26 1.91 1.294 1.885 1.33 1.861 1.362 1.837 1.397 1.81 1.43q.899.722 1.785 1.461t1.757 1.495 1.73 1.526 1.703 1.556 1.674 1.588 1.644 1.618q.816.816 1.616 1.647.8.83 1.585 1.676c3.448 3.685 6.708 7.447 9.632 11.568q1.1 1.54 2.157 3.11t2.068 3.169q1.012 1.6 1.977 3.227.965 1.628 1.884 3.283.918 1.654 1.79 3.334.87 1.68 1.693 3.385.822 1.704 1.596 3.432t1.498 3.475q.725 1.749 1.398 3.517.674 1.768 1.298 3.555.623 1.787 1.195 3.591t1.093 3.623.99 3.654q.467 1.833.882 3.68.417 1.846.78 3.703.362 1.858.672 3.724.935 5.678 1.47 11.406c.208 2.184.183 4.593.643 6.72v4.414l-.02.117c-.44 2.691-.37 5.562-.612 8.29-.47 5.322-1.225 10.77-2.333 16q-.387 1.822-.827 3.633-.443 1.81-.938 3.607-.493 1.796-1.04 3.577-.549 1.781-1.149 3.545t-1.252 3.51-1.356 3.47-1.459 3.429q-.754 1.703-1.559 3.384t-1.659 3.337-1.757 3.285-1.854 3.232-1.949 3.176-2.042 3.117q-1.044 1.543-2.134 3.055-1.09 1.511-2.224 2.99-1.133 1.478-2.31 2.922c-1.602 1.994-5.443 6.815-7.322 8.131-1.408.985-4.832 1.496-6.64 1.967-23.701 6.174-47.058 6.678-71.265 8.572q-4.493.357-8.97.871c-1.783.214-3.708.65-5.5.604-2.105-.054-4.26-.505-6.359-.734q-6.512-.73-13.048-1.214c-13.746-1.02-27.543-1.455-41.22-3.31-6.956-.943-13.908-2.523-20.76-4.036-1.861-.411-8.82-1.605-10.055-2.187-1.17-.552-2.252-1.967-3.121-2.913q-3.593-3.947-6.831-8.189t-6.1-8.748q-.909-1.423-1.78-2.87-.873-1.448-1.707-2.917-.834-1.47-1.629-2.96-.795-1.491-1.55-3.002-.757-1.512-1.473-3.042t-1.391-3.079q-.676-1.548-1.311-3.114t-1.229-3.148-1.145-3.179q-.553-1.596-1.063-3.207t-.977-3.234-.893-3.26-.807-3.28-.721-3.302q-.34-1.655-.635-3.318t-.547-3.335q-.66-4.133-.957-8.308c-.148-2.01-.137-4.205-.52-6.177v-7.706c.35-1.77.34-3.706.478-5.513.218-2.864.517-5.692.994-8.526.488-2.9.926-5.842 1.559-8.714q.35-1.592.74-3.175.391-1.582.82-3.155.43-1.573.899-3.134.468-1.562.975-3.111t1.053-3.086 1.129-3.058 1.205-3.03 1.28-2.998 1.353-2.966q.696-1.475 1.428-2.931.731-1.457 1.5-2.895.767-1.438 1.57-2.857.804-1.419 1.642-2.817t1.711-2.775 1.78-2.731 1.847-2.687q.85-1.212 1.727-2.404t1.782-2.364q.904-1.17 1.836-2.32.932-1.151 1.89-2.279.959-1.128 1.943-2.233t1.994-2.188 2.044-2.141 2.093-2.092 2.142-2.044 2.188-1.993 2.235-1.942 2.278-1.889q1.15-.931 2.322-1.835 1.172-.905 2.364-1.782 1.193-.877 2.405-1.725 1.213-.85 2.444-1.67 1.233-.82 2.483-1.612 1.25-.791 2.52-1.554 1.268-.762 2.554-1.495 1.286-.732 2.589-1.435 1.303-.702 2.621-1.374 1.32-.672 2.653-1.313 1.335-.642 2.683-1.251 1.349-.61 2.711-1.189 1.362-.578 2.738-1.125t2.763-1.061 2.787-.997 2.81-.931q1.41-.45 2.83-.866t2.85-.8q1.43-.383 2.868-.733t2.884-.667c4.432-.98 9.088-1.684 13.601-2.129 2.7-.266 5.52-.288 8.183-.77zM59.937 58.275l-.044.07zc1.844-.399 3.877-.684 5.652-1.32.937-.335 1.835-.812 2.742-1.222.754-.341 1.55-.649 2.23-1.125q-.367.04-.734.089c-2.951.397-8.008 1.091-9.89 3.578m88.287 2.314q-2.014.107-4.03.17c-.115.274.148.851.241 1.153.253.164.297.12.58.059 1.066-.232 2.25-.863 3.209-1.382l.15-.067zm-21.431 20.056c4.793-3.163 9.676-6.204 14.14-9.835 1.302-1.059 2.498-2.239 3.744-3.361-2.127 3.876-13.742 12.576-17.981 14.477l.04 13.774c3.877-2.837 7.711-5.627 11.145-9.006 1.671-1.645 3.248-3.895 4.926-5.379-2.857 5.842-10.75 12.306-16.101 15.754.128 4.974.047 10.04.535 14.992 3.468-3.14 7.186-5.978 10.867-8.86 1.524-1.192 2.985-2.516 4.548-3.646-2.357 3.176-12.063 11.596-15.416 13.764.246 1.359.169 2.842.23 4.227q.172 3.518.419 7.031c1.476-.91 4.475-3.074 6.03-3.501-1.26 1.533-4.337 3.748-6.027 4.936.425 4.12.633 8.308.887 12.444 4.453-3.469 8.736-9.516 12.246-13.963-.311-6.64-.093-12.82 2.257-19.136-.228 2.117-.669 4.225-.955 6.338a50 50 0 0 0-.171 12.067c1.182-1.183 2.322-2.414 3.498-3.605 3.395-3.438 3.864-4.483 4.845-9.252.33-1.603.749-3.473.79-5.094.002-.085-.003-.17-.005-.255l.162-.083c-.008-.035-.006-.077-.03-.104.284 3.495-.633 7.456-1.657 10.765l10.658-9.829c.254-1.433.296-2.931.498-4.38.535-3.852 1.698-9.368 3.465-12.79-.126 1.374-.572 2.803-.822 4.172-.713 3.898-1.43 7.755-1.682 11.715 1.266-1.101 2.463-2.349 3.687-3.5 3.76-3.538 4.51-4.565 5.908-9.641.005 1.673-.306 3.268-.795 4.86 3.409-3.004 6.627-6.207 9.995-9.252 2.468-2.232 5.077-4.275 7.525-6.54-1.574 2.759-5.417 6.45-7.764 8.71-2.795 2.692-5.572 5.393-8.427 8.022-2.063 1.9-4.248 3.724-6.203 5.733 1.628-.075 3.265-.324 4.892-.466 3.597-.314 7.01-.603 10.561-1.304-3.689 1.596-7.55 2.048-11.492 2.533-1.692.208-3.95.243-5.508.962-1.531.708-10.83 9.62-12.679 11.446 5.86.449 11.719-.423 17.327-2.15 1.509-.464 2.954-1.124 4.457-1.608-4.073 2.668-11.879 4.565-16.704 4.97-2.011.17-4.06.091-6.077.058-2.887 2.228-6.562 5.812-8.93 8.587 4.303-.162 8.463-.4 12.658-1.472 1.779-.454 3.484-1.168 5.256-1.617-.544.44-1.258.742-1.887 1.049-3.657 1.787-7.633 2.69-11.675 3.014-1.883.15-3.904.058-5.74.48-2.93 3.795-5.944 7.719-9.581 10.876 4.83-.934 9.773-1.464 14.639-2.229a44.4 44.4 0 0 1 7.065-6.994c-1.77 2.38-3.876 4.584-5.839 6.813 5.018-.69 10.016-1.505 15.045-2.109 1.34-1.579 3.449-4.372 5.205-5.437-1.044 1.906-2.59 3.508-3.625 5.444 2.613-.186 5.213-.505 7.829-.667.845-1.313 2.712-3.698 3.906-4.653-.669 1.532-1.796 3.042-2.695 4.462 5.72-.168 11.486-1.98 17.14-2.842-3.865 1.583-13.193 3.688-17.278 3.2 1.074.458 2.39.772 3.309 1.502-1.319-.239-2.526-.785-3.822-1.029-1.684-.316-6.871.528-8.726 1.006 2.151 1.794 4.91 2.759 7.48 3.779-3.775-.615-5.716-1.785-8.934-3.685-2.986.116-6.193.964-9.141 1.494 2.712 2.542 4.927 5.601 7.707 8.04 2.197 1.926 4.706 3.217 7.073 4.879-6.42-1.484-8.667-4.793-12.761-9.415-1.047-1.183-2.226-2.262-3.367-3.354-3.032.396-6.076 1.075-9.086 1.63 2.78 2.979 6.973 5.776 10.662 7.41 1.437.637 2.946 1.079 4.388 1.703-7.662-.451-11.343-4.05-16.761-8.786-3.486.552-7.087 1.142-10.529 1.907.355.445.746.894.88 1.457q.133.574.369 1.114.235.54.564 1.029c.509.77 1.024 1.257 1.895 1.556 2.387.817 5.636.95 8.197 1.323 6.572.957 13.161 1.672 19.74 2.57 3.161.433 6.363.773 9.48 1.465-1.308-1.236-2.62-2.519-3.795-3.884-.763-.888-1.77-2.138-1.582-3.39.446-2.969 17.132-8.71 20.453-10.248 3.42-1.583 6.699-3.33 9.809-5.461q-.881.088-1.767.086-7.565-.062-15.121-.465c-2.76-.143-5.703-.111-8.397-.775-1.231-.303-2.504-.851-3.386-1.785-.53-.56-.833-1.259-.784-2.036.06-.96.6-1.788 1.23-2.48 1.404-1.541 3.249-2.752 4.931-3.975l7.615-5.45c1.867-1.337 3.773-2.632 5.458-4.2-1.385-.77-2.661-1.508-3.165-3.122-1.762-5.649 5-19.53 7.836-24.746-1.415.7-2.764 1.55-4.16 2.29-2.974 1.574-6.424 3.084-9.65 3.988-2.617.732-7.195 1.839-9.718.333-1.167-.697-1.617-1.761-1.954-3.01-2.834 2.836-11.244 11.37-14.341 12.963-.963.495-1.874.535-2.896.17-.832-.297-1.523-.88-1.886-1.692-1.72-3.842 2.924-18.135 4.174-22.263 1.019-3.365 1.983-6.706 3.167-10.02a44 44 0 0 1-5.393 2.746c-1.301.548-2.87 1.022-4.234.425-3.349-1.463-2.14-7.261-3.164-8.736-.777-1.118-3.372-1.639-4.68-3.31-4.438-5.66-5.726-12.143-8.184-18.667-1.746 4.997-3.829 14.69-7.6 18.393-1.384 1.36-3.399 1.877-4.76 3.203q-.042.04-.08.082c-.169 2.37.296 5.212-.816 7.401-.443.872-1.153 1.525-2.104 1.794-2.786.786-6.568-1.813-8.954-3.092 1.129 3.244 1.96 6.595 2.927 9.89q1.985 6.583 3.529 13.284c.405 1.774.887 3.608 1.098 5.413.171 1.467.204 3.135-.798 4.333-.65.776-1.597 1.157-2.594 1.201-.972.043-1.924-.217-2.779-.669-1.554-.822-2.889-2.105-4.19-3.27-3.271-2.933-6.264-6.16-9.536-9.076a7 7 0 0 1-.382.825 4.72 4.72 0 0 1-2.989 2.328c-4.602 1.174-18.272-5.306-22.716-7.929q2.457 3.89 4.58 7.97 2.124 4.082 3.9 8.326c.648 1.56 1.352 3.137 1.794 4.77.338 1.25.617 2.882-.1 4.043-1.072 1.737-3.909 2.138-5.756 2.526 1.092.926 2.365 1.717 3.539 2.54 4.32 3.027 11.31 7.306 14.8 11.044.94 1.007 1.998 2.471 1.909 3.908-.05.803-.462 1.435-1.065 1.944-.764.645-1.792.877-2.755 1.06-1.559.295-3.194.368-4.774.498q-4.898.406-9.809.605c-5.256.24-10.62.684-15.876.315 5.613 2.505 11.483 4.463 17.186 6.753 3.73 1.498 7.431 3.291 11.052 5.038 1.923.928 4.578 1.883 6.01 3.512.53.604.692 1.26.617 2.058-.219 2.334-2.412 4.482-4.094 5.916 2.46-.753 4.868-1.41 7.415-1.815 5.273-.837 10.607-1.254 15.909-1.871 3.024-.352 6.02-.88 9.033-1.296 1.103-.152 3.969-.235 4.826-.772 1.197-.748 1.335-3.309 1.696-4.568l.04-.136c.29-.191.543-.333.72-.645.007-.314.065-.3-.15-.556-.506-.088-.994.132-1.449.344-1.343.624-2.483 1.644-3.77 2.373-2.17 1.227-4.606 2.105-6.917 3.04 2.97-2.086 6.285-3.616 9.152-5.864q-4.251-.472-8.45-1.287c-2.299 3.312-8.772 7.687-12.542 9.385 3.47-3.524 8.052-5.874 11.365-9.535-2.367-.666-4.834-.626-7.224-1.12-2.872 2.518-5.832 4.827-8.814 7.212-2.281 1.825-4.317 3.906-6.998 5.15 1.874-2.088 3.845-4.09 6.015-5.873 2.74-2.252 5.713-4.295 8.325-6.693-2.417-.553-5.07-.548-7.54-.813-2.122 2.594-4.711 4.534-8.108 4.91 2.397-.989 4.986-2.812 6.486-4.954-1.939-.335-3.907-.456-5.856-.715-1.814 1.307-3.626 1.716-5.754 2.26 1.592-.786 3.175-1.526 4.703-2.436-5.358-.943-10.729-1.569-16.024-2.841-1.521-.366-3.133-.685-4.574-1.303 3.97.469 7.95 1.095 11.942 1.306-.935-.998-2.257-2.267-2.79-3.513 5.07 4.297 5.638 4.137 12.117 4.88-1.478-1.597-3.045-3.133-4.465-4.78 2.125 1.537 4.147 3.109 6.075 4.89 3.118.556 6.291.593 9.411 1.057-2.838-2.561-6.361-4.339-9.062-7.035 3.859 2.048 7.787 4.149 11.03 7.124 1.845.419 3.789.58 5.67.778-1.306-1.16-5.797-4.937-6.534-6.144.728.418 1.402 1.027 2.082 1.526 1.203.884 2.434 1.73 3.602 2.66.748.595 1.488 1.287 2.297 1.795 1.443.906 12.457 2.278 14.602 2.328-4.866-4.59-9.105-9.826-14.009-14.367-3.546 1.365-7.438 2.343-11.214 2.776-1.364.157-6.113.52-7.156-.311.131-.177.41-.089.625-.085 5.873.097 11.461-1.969 17.066-3.378-1.773-1.995-3.567-4.023-5.442-5.92-4.44.58-8.311 1.067-12.565-.681-2.441-1.004-4.773-2.127-7.279-2.976 3.68.233 6.863 2.121 10.411 2.776 2.637.486 5.597 0 8.258-.196-2.641-3.117-5.272-6.302-8.102-9.248-5.239.417-7.145.191-12.059-1.641 1.618.17 3.208.544 4.828.709 2.15.219 4.315.142 6.472.113-1.917-1.879-3.553-4.025-5.497-5.875-.795.01-1.609-.024-2.4-.11-2.383-.263-5.45-1.205-7.015-3.151 2.688 1.446 5.344 2.337 8.423 2.312-6.355-6.36-13.676-11.693-19.781-18.31 3.285 2.212 6.356 4.748 9.39 7.292q6.569 5.453 12.639 11.457c1.49 1.482 2.868 3.07 4.345 4.563-.211-1.8-.377-3.618-.649-5.408-.146-.966-1.614-8.267-1.46-8.732 1.105 2.884 1.983 7.197 2.433 10.296.24 1.648.368 3.323.638 4.964l5.341 5.811c1.443 1.589 2.901 3.302 4.483 4.75.805-2.51 1.007-9.947 1.123-12.896.045-1.153-.056-2.42.144-3.548.782 5.71.7 11.88-.221 17.563 1.726 1.859 3.413 3.895 5.26 5.627.182-2.765.778-5.451 1.156-8.19.38-2.75.547-5.572 1.035-8.301l.076-.06c.397 3.69-.032 8.472-.543 12.164-.249 1.804-.716 3.636-.734 5.456 1.827 2.39 4.09 4.682 6.244 6.787.204-3.452.636-6.802 1.43-10.171.172 3.761-.428 7.918-.136 11.446.927 1.365 6.879 7.393 8.186 7.807.274-.099.269-.127.425-.379-.039-2.083-.37-4.206-.508-6.292l-.846-14.057c-3.9-4.058-8.33-7.547-11.266-12.437-.417-.694-.897-1.421-1.112-2.204.47.564.844 1.283 1.266 1.89q1.261 1.831 2.8 3.436c2.54 2.61 5.564 4.584 8.125 7.264-.034-4.47-.33-8.963-.414-13.438-1.46-1.394-3.03-2.715-4.39-4.205-2.826-3.094-4.961-7.332-6.071-11.362 1.566 3.369 3.493 6.936 6.012 9.679 1.334 1.452 2.892 2.76 4.347 4.093.028-4.044-.097-8.099-.11-12.145-1.719-.913-3.565-1.82-5.096-3.027-2.708-2.133-7.43-8.235-8.833-11.39 1.035.758 2.112 2.631 2.956 3.662 1.863 2.275 3.844 4.725 6.2 6.505 1.49 1.125 3.19 2.055 4.788 3.021.05-4.145.067-8.281.26-12.423-3.906-3.85-7.016-7.784-8.337-13.222 2.356 5.506 4.23 7.64 8.42 11.783.433-7.703.332-15.429.703-23.133.205-4.26.904-8.482 1.1-12.733l.1.04c.454 2.387.15 6.34.09 8.87q-.21 6.91-.237 13.824c2.693-2.279 4.194-4.614 5.492-7.857-.09.846-.23 1.654-.478 2.469-.781 2.57-2.631 5.518-5.059 6.815-.056 6.151-.348 12.298-.29 18.453m60.146-11.171c1.717-.49 3.717-.685 5.502-.734-2.718 1.365-5.032 2.114-7.754 3.774.891-.001 1.835.035 2.711-.14 3.777-.754 6.41-4.576 10.085-5.026.704-.086 1.504.046 2.211.108-2.284 1.504-4.712 2.792-7.044 4.224.461.122.907.291 1.357.452-3.386.506-5.166 2.633-8.096 3.978-2.483 1.14-5.117 1.75-7.514 3.12 1.428-.286 2.89-.455 4.288-.873 1.392-.416 2.727-1.094 4.054-1.68 2.155-.952 4.353-1.88 6.397-3.057 1.644-.946 3.026-2.306 4.626-3.329 3.533-2.259 8.744-3.062 12.877-3.382-3.332 1.675-6.98.75-10.07 3.3l-.011.175.663.14c-.577.606-1.993.489-2.974 1.494-.262.269-.485.507-.47.893.468.308 4.098-.34 5-.399-1.515.546-3.112.81-4.62 1.345-1.653.587-2.471 1.484-3.202 3.018 2.8-.552 5.158-1.93 8.155-1.653-1.002.312-2.104.432-3.073.798-.99.374-1.884 1.089-2.85 1.542-.834.39-1.746.607-2.558 1.047-.408.22-.496.379-.617.82l.1.133a21 21 0 0 1 4.126-1.195c.711-.126 2.685.011 3.27.436-1.066.417-2.28.58-3.394.848-1.763.426-3.431 1.064-5.054 1.87l-.735 1.766c1.714-.705 3.654-1.67 5.522-1.765.655-.033 1.67.05 2.172.514-1.45 1.325-6.426 2.49-8.221 3.43-.299.157-.374.344-.469.65.142.116 4.643-1.623 5.454-1.555.043.003.084.017.127.026l.058-.078-.004.028c-.325.329-.806.507-1.219.707 3.88.645 7.193-1.277 11.324-.286-1.956.356-4.075.728-6.052.883-2.009.158-4.083.114-6.066.482-1.287.239-2.42 1.082-3.71 1.375l-.492.116c-.262.064-.207.059-.348.262.127.443.656.344 1.052.324 1.092-.054 2.15-.338 3.225-.512 2.069-.334 5.568-.696 7.435.428l.121.075c-2.419.276-6.546.836-8.822 1.442-1.507.401-3.003.975-4.477 1.486-.225.36-.399.742-.58 1.126 1.689-.247 3.389-.138 5.08-.32.803-.087 1.507-.458 2.293-.603 1.387-.257 2.902-.14 4.308-.127-2.49 1.2-8.528 1.515-10.513 2.958l.013.212c.793.649 3.952.407 5.073.377.456-.012.725-.018 1.063.301-.368.239-1.053.093-1.502.183-1.267.251-2.48.865-3.762 1.139-1 .213-2.596.125-3.421.487l.023.247.122-.22.092-.005-.044.227.07-.163c1.516.063 3.062.11 4.578.055 2.344-.084 4.366-.719 6.561.444-2.274.55-4.517 1.006-6.801 1.484-1.335.28-2.62.615-3.984.73.983.295 1.948.534 2.974.616 1.36.108 4.579-.467 5.57.409l-.045.176c-1.283.514-2.77.815-4.107 1.186-1.506.427-2.95.984-4.479 1.345.952.399 1.635.813 2.354 1.562 1.707-.087 3.41-.18 5.112-.343 1.283-1.123 2.963-1.684 4.226-2.852 2.224-2.055 3.558-9.962 4.593-13.205.71 2.737 1.05 5.593 1.679 8.355.926 4.07 2.81 5.015 6.095 7.088-.91.714-4.13.205-5.277.121 1.401 1.562 2.972 3.278 4.742 4.418.673.433 1.436.757 2.138 1.151-1.832.659-3.738.504-5.649.44 2.02 2.844 5.202 4.048 7.551 6.356-2.575.328-4.916.051-7.439-.467.908.987 2.076 1.574 2.971 2.52.031.193.055.415.123.598.246.663 1.137.915 1.736 1.171 3.101-1.248 7.338-4.933 9.024-7.798-2.417.359-4.694.585-7.136.545.701-.522 1.517-.936 2.256-1.41 2.118-1.356 4.506-3.266 5.564-5.613-1.71-.217-3.284-.302-4.909-.92q.255-.127.505-.265t.493-.286.482-.305.47-.325q.23-.166.456-.342.224-.176.442-.36.217-.185.427-.379.21-.193.411-.394.202-.202.396-.41.194-.21.379-.427t.362-.441.344-.455.325-.468.307-.481.287-.493.267-.504q-1.85-.32-3.67-.78c.579-.29 1.093-.615 1.569-1.06 2.29-2.137 3.554-5.232 4.537-8.143.244-.725.573-1.53.594-2.295.014-.514-.008-1.037.242-1.498l.17-.05c.182.288 1.042 3.466 1.313 4.205 1.081 2.942 3.212 6.332 5.156 8.827-.758-.052-2.335-.336-2.941.108-.05.148-.064.16-.068.338-.021.862 1.355 2.464 1.88 3.106.938 1.144 3.195 3.875 4.814 3.94 2.082.085 5.263-3.212 6.659-4.586-1.057.329-3.707 1.248-4.728.863l.103-.174c1.314-.822 2.615-1.09 4.104-1.43-.334-1.819-.907-3.576-1.414-5.35-.572-2-1.113-4.011-1.716-6.002-.268-.881-.565-1.978-1.062-2.76-1.665-2.613-5.025-5.72-7.113-8.135-1.632-1.887-3.956-5.369-5.749-6.781-1.652-1.302-5.228-2.959-7.194-4.003-.607.075-1.264.192-1.876.14-.942-.08-3.427-.811-4.358-1.176 1.412-.334 3.56.206 4.956.515-2.094-.885-4.093-2.042-6.156-3.008-2.385.595-4.68 1.491-7.1 1.975-2.353.47-4.763.878-7.141 1.202-3.767.512-7.097.565-10.496 2.52M91.69 71.73c3.129-.493 6.494-.227 9.567-1.032l.192-.05c-.685-2.477-1.263-4.983-1.952-7.458-1.4.038-2.767.43-4.136.7q-1.986.38-3.992.63l-19.292 2.39c-1.436.174-2.896.122-4.323.326-1.23.176-2.44.47-3.662.685-4.303.755-8.588 1.616-12.899 2.33-3.102.512-7.131.275-9.813 1.937h.185c2.682-.022 5.401-.444 8.083-.612 4.774-.298 9.567-.433 14.332-.848 1.998-.174 3.992-.456 5.993-.58 1.39-.085 2.79-.008 4.183-.054 1.037-.033 2.126-.193 3.158-.1.343.032.611.121.874.353.162.144.115.093.124.322-.671.455-4.087.407-5.026.467-1.552.099-12.825.912-13.537 1.39-.016.245-.067.196.087.347.196.193.379.238.633.327l.139.052c2.897 1.131 5.372 3.339 8.397 4.267 1.272.39 6.255-.476 7.794-.612 2.211-.195 4.652-.37 6.851-.075-1.811.253-3.627.333-5.435.561-2.327.293-4.645.765-6.989.929 2.003.735 5.36 2.303 7.325 2.592.909.134 1.91.056 2.83.062 1.888.01 3.759.088 5.608.5.118-2.236.106-4.441.041-6.678 1.884 2.072 3.856 4.296 5.972 6.13 3.634-.319 7.355-.854 10.96-1.433l-.46-1.264c-2.079.093-4.128.23-6.2.397 1.933-.629 4.02-.944 6.037-1.157l-.438-1.492q-2.532.124-5.042.478c1.613-.573 3.23-.716 4.91-.95-.166-.718-.319-1.437-.568-2.133-2.126.378-4.52.508-6.68.535 1.995-.57 4.499-.923 6.575-.95-.168-.714-.351-1.4-.598-2.091-3.126.763-6.611.879-9.808.862m-64.381 8.784-.059.08zc2.414-.131 4.83-.593 7.233-.865q5.794-.645 11.624-.615c-5.74 2.262-12.165 2.259-18.113 3.747-1.46.365-2.861.715-4.212 1.394 2.916-.234 5.744-.76 8.642-1.101 2.044-.241 4.116-.335 6.168-.524 4.354-.401 8.798-.892 13.175-.65 1.899.106 3.826.455 5.71.716-3.136.549-6.28.418-9.447.53-5.335.19-10.788.41-16.085 1.082-1.728.22-2.956 1.437-4.608 1.884-3.706 1.003-7.538 1.376-11.21 2.484a52.3 52.3 0 0 0-2.741 8.46c.64 2.029 1.093 4.36 2.101 6.228.254.47 1.152 1.434 1.104 1.873-.604.456-1.683.466-2.42.512 1.321 3.75 3.084 5.641 6.537 7.446a44 44 0 0 1-6.288-.027c1.338 2.541 3.387 4.394 5.696 6.06 2.532-1.454 4.61-3.375 5.998-5.955-2.211.676-4.267 1.256-6.595 1.344 2.86-1.916 4.925-3.978 6.547-7.022-1.084-.165-2.166-.337-3.256-.456 1.561-1.072 3.653-2.703 4.132-4.635-.194-.265-.11-.13-.254-.402.25-.68 1.083-.775 1.37-1.455.645-1.528.52-3.196 1.364-4.702l.095-.168c1.105 1.501 1.724 3.519 2.532 5.208.315.183 1.254.651 1.349.986a6 6 0 0 1-.541.138l-.188.037c-.119.334-.066.618.061.945.663 1.707 2.438 3.552 4.106 4.257-1.05.242-2.138.346-3.206.486 1.22 1.635 2.134 3.654 3.77 4.937.978.768 1.586.823 2.763.682-2.194.89-3.913.832-6.24.63 2.163 2.436 4.12 4.692 7.255 5.838-2.322.888-4.297 1.162-6.763 1.238q.603.808 1.268 1.565c1.052 1.21 3.235 3.759 4.927 3.88.684-.21 1.286-.672 1.876-1.067 1.893-1.266 3.499-2.497 4.715-4.453-3.223.575-5.873 1.164-9.204 1.051q.064-.023.127-.05c.998-.406 1.877-1.082 2.81-1.617 2.768-1.586 6.029-3.111 7.38-6.205-2.776.207-4.136.668-7.005.042 3.462-1.023 5.909-3.744 7.692-6.734a14.2 14.2 0 0 1-3.607-.351c2.028-.541 2.922-1.544 4.017-3.255 1.285-1.917 1.907-4.359 2.59-6.544.734 2.35 1.179 4.869 2.488 6.99.432.7.824 1.234 1.477 1.752.285.225.94.584 1.04.893-.743.256-1.557.321-2.333.433 1.408 2.855 3.303 4.693 5.825 6.534-1.904.106-3.582-.08-5.432-.537 1.229 2.62 3.734 4.537 6.353 5.639-1.9.817-2.842 1.057-4.923 1.154 1.322 1.766 3.168 3.102 4.998 4.299 1.188-.755 2.194-1.91 3.193-2.895-1.968.58-4.4.484-6.4.129 3.563-1.384 6.304-4.239 8.904-6.941-2.558.772-5.824 1.022-8.479.64 2.373-.959 6.192-3.637 7.517-5.862-2.01-1.967-5.246-3.847-7.566-5.532 1.703.061 5.463.031 6.82-1.014q.067-.053.133-.108c.487-.394.957-.794 1.358-1.278.209-.251.402-.517.374-.85-.593-.349-7.361.373-8.618.422-1.651.063-3.299-.028-4.952.061 2.922-1.465 4.982-.64 8.008-.752 1.938-.072 4.016-.385 5.926-.72-.878-.265-1.796-.42-2.681-.674-1.823-.524-3.57-1.32-5.228-2.233 2.242.008 4.756-.307 6.699-1.513.496-.308 1.242-.782 1.38-1.389l-.146-.217c-4.423.627-8.866.821-13.283 1.511 2.544-1.297 5.278-2.33 8.016-3.14 1.12-.33 2.538-.478 3.578-.943.26-.115.284-.123.395-.392l-.153-.305c-.094-.038-.182-.101-.284-.112-.615-.069-2.678.325-3.447.395-3.222.297-6.454.426-9.67.792 1.764-.817 3.612-1.129 5.487-1.568 1.214-.283 2.41-.635 3.627-.903 1.184-.261 2.173-.305 3.293-.848q-.03-.054-.063-.106c-.144-.206-.278-.268-.528-.286-.975-.072-2.029.118-3.008.184-2.968.199-6.073.486-9.033.124 2.727-1.545 5.855-1.696 8.929-1.796.938-.031 1.843.004 2.772-.155-.768-1.36-1.51-2.74-2.388-4.035-.75-.315-1.53-.553-2.304-.807q.96-.138 1.917-.288c-1.498-2.78-2.899-5.606-4.435-8.37-5.322 1.075-18.926 1.105-22.91 3.47 3.173-.279 6.346-.42 9.524-.626 3.968-.256 7.751-.59 11.732-.245-1.758.599-3.428.766-5.238 1.071-2.223.375-4.4.77-6.647 1.005-3.024.317-6.051.44-9.068.831-1.223.158-2.587.101-3.773.422-1.124.305-2.577 1.173-3.524 1.862m101.297 61.062-.188-.152c-.334-.262-.65-.381-1.074-.319-.502.074-1.2.38-1.478.816-.031.049-.051.103-.077.155l.02-.112.349.198-.242.007.068.038c.359-.01.564-.05.884-.213l.803-.403c-.093.103-.184.21-.284.308-.72.716-1.463 1.849-1.529 2.892-.02.323.038.461.237.706l.322-.012c.792-.484 1.034-1.2 1.394-2.014.002.54-.065 1.514.266 1.96.244.04.488.066.702.2.418.262.559.591.637 1.06l.018.121c.319-.058.443-.163.698-.346.282-.135.482-.181.667-.442l-2.58-3.284zm31.258 21.681c-2.184-.166-5.367.407-7.656.544-6.212.372-12.553.712-18.77.356.102 1.004.269 1.938.584 2.9 3.36.254 6.704.503 10.077.457 3.095-.042 6.186-.317 9.28-.385 2.983-.066 5.96-.087 8.942-.208 2.722-.11 5.442-.318 8.164-.411 2.315-.08 4.635.023 6.95-.093l-.161.076c-1.138.519-2.43.708-3.647.973-3.852.84-7.558 1.145-11.478 1.406-1.888.126-3.815.163-5.674.443-.056.008-.114 0-.17 0 .888.366 1.833.123 2.765.202 1.256.107 2.51.355 3.764.505 1.864.223 3.732.35 5.603.498q7.072.509 14.107 1.397c3.051.379 6.135 1.022 9.212 1.099 2.401.06 4.761-.45 7.147-.648q7.636-.586 15.286-.954c2.175-.083 10.567.1 11.912-.428.258-.101.275-.096.38-.363-.338-.571-1.443-.923-2.078-1.093-2.306-.618-4.969-.327-7.34-.43-3.693-.159-7.382-.69-11.082-.595-4.984.128-9.974.587-14.947.935-3.881.271-13.52 1.264-16.772.215 2.28-.992 4.864-1.133 7.305-1.461 5.334-.718 10.644-.857 16.02-.909 2.127-.02 4.275-.122 6.399-.028 7.504.334 15.252 1.401 22.717.084-7.004-2.906-15.31-3.669-22.824-3.198l-.146 2.044c-.124-.446-.354-1.679-.805-1.874-.83-.357-6.223.232-7.696.135l.123-.031c1.674-.414 6.325-.823 7.547-1.636.165-.414.22-1.018.044-1.439-.194-.464-.517-.604-.967-.757-1.851-.627-4.04-.567-5.974-.753-3.86-.37-7.646-.799-11.528-.886-8.394-.48-16.542.335-24.886 1.06-3.309.287-6.66.445-9.976.659 1.124-.415 2.35-.63 3.52-.89q3.963-.858 7.989-1.33 4.026-.47 8.079-.55c2.252-.044 4.501.125 6.754.084 4.742-.088 9.445-.329 14.195-.18 3.869.122 9.43.786 13.047.329-1.319-1.78-2.367-2.825-4.639-3.196-1.647-.27-3.45-.138-5.125-.224q-5.114-.304-10.156-1.21c-1.155-.199-2.384-.34-3.497-.705 2.782.055 5.579.065 8.357.248q3.063.195 6.124.434c2.611.219 5.47.752 8.056.238l.074-.1c-.828-.855-9.775-3.034-11.333-3.292 3.862-.219 7.77-.275 11.617-.654-2.592-.901-7.13-2.028-9.018-3.949.128-.242.038-.135.281-.31-.95-.516-2.723-.558-3.792-.601-3.048-.124-16.34.149-18.707.925-.242.08-.388.17-.525.385.337 1.176 5.413 5.975 6.567 7.167.406.42 1.027.88 1.302 1.388.094.174.053.133-.009.362-1.807 1.079-20.902-2.023-24.491-2.474-3.316-.417-6.675-.625-9.976-1.12-3.563-.534-7.059-1.293-10.598-1.931-.349.176-.982.43-1.112.84-.292.923.341 7.173.44 8.597 3.28-.449 6.643-.907 9.95-1.066 2.764-.132 5.562-.04 8.313-.274-2.651.78-5.56 1.055-8.298 1.39-3.293.404-6.558.804-9.875.996l.273 3.413q3.667-.35 7.349-.51c3.863-.157 7.729-.111 11.594-.083 2.103.015 4.339-.104 6.424.115.406.043.733.137 1.095.33m-35.33 11.686c-.317.38-.598.766-.87 1.18.732 1.088 1.563 1.663 2.86 1.93 1.16.241 2.378.155 3.553.293l1.233-1.243a9 9 0 0 0-2.305.234c-1.112-.972-1.693-2.56-1.798-4.013-.187-2.587.322-8.07.61-10.714.374.854.053 3.518.064 4.583.013 1.251.263 3.51.737 4.635l-.045.196c-.186.883-.11 3.297.38 4.058.146.227.282.316.509.447.317.024.373.068.666-.083.166-.727-.23-1.887-.347-2.652-.262-1.697-1.062-7.393-.496-8.715.249.212.764 6.788.888 7.684.172.982.389 3.422 1.152 4.007l.593-1.146c-1.01-3.223-1.26-6.547-1.622-9.889l-1.227-12.116c-.145-1.429-.176-2.895-.422-4.309-.407-.199-.619-.37-1.076-.331-.538.458-.616 1.198-.662 1.868-.08 1.153.035 2.312.011 3.467a172 172 0 0 1-.304 7.25c-.222 3.553-.868 7.08-1.247 10.616-.141 1.318-.001 3.257-.55 4.448l-.284-.01c-.205-.238-.261-.415-.233-.737.026-.297.173-.639.232-.937l.06-.068zM124.193 5.07q-1.506.046-3.011.13-1.505.083-3.007.204t-3.001.278-2.993.353q-1.495.195-2.984.426-1.489.232-2.972.5-1.483.269-2.959.574t-2.943.646q-1.468.341-2.927.719t-2.908.79-2.888.864-2.865.934-2.842 1.004-2.815 1.075-2.789 1.143-2.76 1.213q-1.371.623-2.728 1.28-1.356.657-2.695 1.347-1.34.69-2.662 1.414-1.322.723-2.626 1.479-1.304.755-2.589 1.543t-2.55 1.607q-1.264.82-2.509 1.67t-2.467 1.73q-1.223.881-2.423 1.792-1.201.911-2.379 1.851t-2.332 1.91q-1.154.968-2.284 1.966-1.13.997-2.235 2.022t-2.184 2.076-2.132 2.13-2.078 2.183q-3.297 3.522-6.323 7.278-3.026 3.757-5.764 7.728C12.202 80.012 4.071 106.12 5.037 131.69c.674 17.853 5.051 33.98 12.614 50.09.476-.276.949-.569 1.441-.815-2.14-4.928-4.353-9.824-6.043-14.934-9.175-27.738-8.118-55.908 2.603-83.07 2.094-5.305 4.76-10.44 7.632-15.36q.599-1.041 1.219-2.072.62-1.03 1.26-2.047t1.3-2.022 1.339-1.996 1.379-1.969 1.418-1.941 1.455-1.913 1.494-1.883 1.53-1.854 1.567-1.823 1.603-1.792 1.638-1.76 1.672-1.726 1.706-1.694 1.74-1.659 1.771-1.624 1.804-1.59 1.835-1.552 1.865-1.517 1.895-1.479q.954-.73 1.923-1.441t1.953-1.403 1.979-1.364 2.006-1.325 2.032-1.285 2.057-1.244 2.08-1.203 2.105-1.162 2.127-1.12 2.149-1.077 2.17-1.035 2.19-.992q1.523-.664 3.065-1.287t3.1-1.204q1.559-.58 3.132-1.119 1.573-.538 3.161-1.033t3.188-.946 3.212-.86 3.235-.772 3.254-.683 3.273-.594 3.286-.506 3.3-.415 3.31-.326q1.656-.14 3.316-.235t3.323-.145 3.325-.054 3.325.036c5.174.277 10.342.616 15.465 1.423q1.281.2 2.557.427t2.547.482 2.536.537 2.524.592 2.51.646 2.496.7 2.48.754 2.464.808 2.445.86 2.426.913 2.405.966 2.384 1.017 2.362 1.069 2.339 1.12q1.162.572 2.313 1.169 1.15.597 2.287 1.22 1.137.621 2.26 1.268 1.124.647 2.233 1.317 1.11.67 2.204 1.365t2.174 1.413 2.142 1.459q1.064.741 2.11 1.505 1.047.764 2.078 1.55 1.03.787 2.043 1.595 1.014.809 2.009 1.64t1.972 1.681q.977.852 1.936 1.724.959.873 1.898 1.766.94.893 1.86 1.806t1.82 1.846 1.779 1.885 1.738 1.923q.986 1.114 1.944 2.252t1.889 2.297 1.833 2.343 1.775 2.387q.874 1.205 1.717 2.43.844 1.224 1.658 2.47.814 1.244 1.598 2.509.783 1.264 1.536 2.547.752 1.283 1.474 2.584.721 1.3 1.411 2.618t1.347 2.653 1.283 2.683 1.217 2.715q.593 1.364 1.151 2.742.56 1.379 1.085 2.77t1.017 2.796.95 2.82.88 2.84.811 2.862.742 2.881q.354 1.445.673 2.898.318 1.453.601 2.913.284 1.46.531 2.927t.46 2.939q.212 1.472.389 2.95.176 1.476.317 2.957.14 1.48.245 2.965.105 1.483.174 2.969t.101 2.973.03 2.975q-.003 1.487-.042 2.974-.04 1.487-.115 2.972c-.843 15.817-4.808 31.809-12.184 45.871.587.284 1.17.588 1.778.824.93-2.643 2.236-5.184 3.309-7.777q1.458-3.46 2.687-7.008 1.23-3.548 2.224-7.17c7.698-27.588 4.57-58.541-7.769-84.316q-.536-1.14-1.095-2.27t-1.141-2.247-1.187-2.223-1.233-2.199-1.278-2.172-1.321-2.146T230.252 60t-1.409-2.09-1.451-2.06-1.494-2.03-1.535-1.999-1.575-1.967-1.616-1.934-1.655-1.9q-.838-.943-1.694-1.867-.857-.924-1.732-1.83-.875-.907-1.769-1.796-.893-.888-1.805-1.758t-1.841-1.721q-.93-.851-1.876-1.683-.947-.832-1.911-1.644t-1.944-1.604-1.976-1.564-2.008-1.523-2.039-1.481-2.069-1.44-2.098-1.396-2.126-1.353-2.153-1.309-2.18-1.265q-1.097-.62-2.206-1.22-1.109-.598-2.23-1.173c-5.422-2.757-11.007-4.99-16.737-7.01-12.383-4.369-29.776-7.147-42.931-6.314m1.264 3.99q-1.443.032-2.884.098-1.442.067-2.882.169t-2.876.239-2.87.308-2.861.38q-1.428.206-2.851.448-1.423.241-2.84.517-1.416.277-2.825.587-1.41.311-2.811.656t-2.794.724-2.776.792-2.755.86-2.734.926-2.71.992-2.685 1.059-2.659 1.123q-1.322.579-2.63 1.189t-2.6 1.252-2.57 1.315q-1.276.673-2.536 1.377t-2.502 1.439q-1.243.734-2.467 1.499t-2.428 1.559-2.39 1.618-2.35 1.675q-1.166.853-2.31 1.733-1.143.88-2.265 1.788t-2.221 1.843q-1.1.935-2.176 1.897-1.076.961-2.129 1.949-1.052.987-2.08 2t-2.031 2.05q-1.592 1.653-3.12 3.363t-2.992 3.478q-1.463 1.766-2.858 3.587-1.396 1.82-2.723 3.691-1.326 1.872-2.582 3.792t-2.437 3.885-2.29 3.975-2.14 4.057c-1.058 2.1-2.236 4.252-3.044 6.457 1.403-.848 2.767-1.756 4.18-2.59 1.51-.893 3.111-1.734 4.546-2.745 1.69-1.192 3.096-2.762 4.868-3.851 3.994-2.456 8.08-4.777 12.11-7.175 2.129-1.268 4.296-2.49 6.31-3.938 1.5-1.078 2.753-2.48 4.24-3.583 1.986-1.47 4.212-2.624 6.116-4.2 1.935-1.6 3.464-3.601 5.595-4.985 1.401-.91 3.161-1.145 4.67-1.84 2.731-1.259 5.418-2.84 7.997-4.385 1.964-1.176 3.792-2.579 5.603-3.974 1.456-1.123 2.836-2.345 4.527-3.109 1.892-.855 4.752-1.22 6.77-.731 4.119.998 6.904 5.9 10.001 8.688 2.605 2.346 6.162 4.481 9.485 5.654 1.316-.44 2.501-1.068 3.705-1.75 2.25-5.703 3.997-11.524 5.694-17.408.661-2.293 1.389-4.56 1.997-6.868.757 2.95 1.75 5.849 2.626 8.766 1.112 3.741 2.191 7.48 3.52 11.152 2.378-1.852 4.514-3.723 6.565-5.928q1.899-2.025 3.676-4.158c2.495-3.004 7.882-10.44 12.118-9.86 1.138.156 2.191.713 3.175 1.279 2.579 1.482 4.975 3.381 7.379 5.128 2.124 1.545 4.371 3.028 6.328 4.775a15 15 0 0 1 2.16 2.4c.96 1.324 1.853 2.695 2.825 4.012 3.777 5.121 7.734 10.14 11.662 15.148 2.309 2.945 4.518 6.055 7.064 8.796 3.567-.314 7.156-.93 10.668-1.624 1.554-.307 3.075-.809 4.65-.988l.173-.021c.642-.065 1.415.285 1.999.547 2.796 1.258 5.459 2.968 8.163 4.42 1.676.9 3.845 1.675 5.299 2.878 1.761 1.458 3.58 4.341 5.031 6.182 1.57 1.992 3.241 3.79 5.048 5.566-4.098-8.595-8.371-16.355-14.007-24.086q-.644-.873-1.303-1.733-.66-.86-1.335-1.708-.676-.847-1.367-1.683-.69-.835-1.397-1.658-.706-.822-1.427-1.632-.72-.81-1.457-1.605-.735-.797-1.485-1.58-.75-.782-1.515-1.55-.764-.77-1.542-1.524-.779-.754-1.57-1.495-.793-.74-1.598-1.465-.806-.725-1.624-1.436t-1.65-1.407-1.676-1.375-1.7-1.345-1.725-1.313q-.869-.649-1.749-1.282-.88-.632-1.771-1.25-.892-.616-1.795-1.216t-1.816-1.183q-.914-.584-1.838-1.15-.924-.567-1.858-1.117-.935-.55-1.879-1.082-.945-.532-1.898-1.047-.954-.515-1.917-1.012-.964-.498-1.935-.978-.973-.48-1.953-.941-.981-.462-1.97-.906t-1.986-.87-2.002-.832-2.016-.796-2.031-.759q-2.02-.719-4.062-1.366t-4.108-1.225q-2.064-.576-4.147-1.08t-4.183-.935-4.213-.79-4.237-.642-4.258-.494-4.272-.345c-3.184-.184-6.397-.133-9.587-.133m29.733 15.554c-.268.18-.524.267-.636.577 1.076 2.301 2.927 5.292 4.3 7.485.738 1.177 1.552 2.345 2.176 3.587-.813-.072-1.851-.019-2.417-.702-.9-1.086-1.465-2.676-2.12-3.944-.635-1.232-1.323-2.435-1.977-3.657-.689.827-1.334 1.065-2.306 1.433.956.117 1.9.102 2.647.774l.007.191c-2.172 1.355-4.538.483-6.88.488l-.606.98c2.163.02 6.199-.203 8.091.553l.07.166c-.806.572-5.781.712-6.973.72-.607.005-1.694-.19-2.254-.014-.254.08-.5.5-.646.713 1.48.107 8.978.24 9.712.712-.675.333-1.633.677-2.376.787-2.045.304-7.222-.249-8.787.233-.296.09-.555.32-.677.596.719.214 1.764-.132 2.54-.127 1.057.007 2.114.163 3.17.209 2.292.1 4.507.03 6.764.576-2.008.497-4.093.625-6.135.92-1.295.187-2.547.542-3.828.78l.225.033c2.614.366 5.341-.066 7.928.47l.087.117c-.724.337-1.657.374-2.442.507-1.572.265-3.13.56-4.72.697-2.507.218-3.894.081-6.416.773 2.208-.007 4.41.125 6.614.129 2.248.003 4.564-.235 6.795.11.636.099 1.169.315 1.755.573l-.148.014c-1.774.157-3.573.094-5.353.192-1.216.067-2.409.298-3.624.366-1.266.07-2.918-.095-4.099.34 1.491.111 2.959.358 4.445.474 2.391.187 5.44.028 7.71.86l-.053.112c-1.217.166-2.408-.085-3.62-.032-1.267.055-2.505.428-3.772.498-1.888.106-10.968-.247-12.128.799.322.375 1.014.39 1.492.427 3.902.3 7.757.078 11.66-.058 1.424-.05 2.87-.236 4.296-.148.624.038 1.607.14 2.058.607-.37.374-5.872.45-6.863.461-1.268.014-10.837-.036-11.474.54-.029.026-.049.06-.073.089l.031.261c.834.633 7.445.205 8.86.225q2.314.05 4.619.251c-1.902.693-5.823 1.08-7.898 1.162-.835.034-3.305-.165-3.932.073.76.42 1.905.6 2.755.813 1.126.283 2.731-.013 3.903-.053 1.425-.05 6.628-.15 7.558.557-.26.181-.49.209-.797.236-.891.081-1.82-.052-2.72-.005l-8.913.459c.524.434 1.024.828 1.615 1.171 3.076-.31 6.294-.109 9.358.21l.158.14-.078.194c-1.787.218-3.627.422-5.425.476-1.04.032-2.057-.109-3.094-.008l.808 1.347c1.66.099 4.912.01 6.378.557l-.083-.02-.206.149c-1.942.175-3.873.017-5.814.114l.318 1.461c2.829.126 5.652-.276 8.467.09-2.748.535-5.433.871-8.222 1.097-.11.247-.099.273-.05.54.767.723 2.971.436 3.982.406.91-.026 1.771-.027 2.644-.332 2.655-.927 6.9-4.389 8.883-6.407-.826 2.456-1.54 4.952-2.34 7.417-.753 2.32-1.628 4.663-2.206 7.03 1.536-.098 3.146-.325 4.678-.24l-.002.072q-1.191.281-2.408.418t-2.44.127c-.33 1.18-.642 2.368-1.006 3.537 1.196.015 2.312.294 3.487.457 2.828.392 5.81.551 8.53 1.482-2.726-.131-5.473-.87-8.17-1.282-1.338-.204-2.696-.241-4.046-.29-.654 2.132-1.336 4.26-1.924 6.412 3.608-1.223 7.276-1.45 11.007-.737-1.787.27-3.593.293-5.386.5-1.934.224-3.859.619-5.799.76a44 44 0 0 0-.744 2.844c1.814-.445 4.313-1.083 6.148-1.248 1.662-.15 3.331-.065 4.997-.047 2.07-2.4 3.289-5.103 4.875-7.794-.008 2.393-.047 4.746.467 7.1 2.035-.989 3.926-2.373 5.801-3.636q4.638-3.124 9.19-6.373c2.292-1.642 4.876-3.784 7.546-4.736 1.176-.42 2.679-.394 3.913-.429-3.867-4.557-7.691-9.292-11.196-14.133-3.36-4.641-6.608-10.018-10.68-14.038-1.42-1.402-3.332-1.76-4.967-3.24-3.6-3.26-6.81-6.584-11.569-8.083m-2.007 1.328c-.281.236-.53.356-.64.715.286.27.723.26 1.098.309l.277-.193c-.107-.39-.409-.595-.735-.831m-58.117 10.6c-1.018.499-1.994 1.101-2.95 1.71.735.003 1.478-.036 2.196.138l.004.066c-3.06.535-5.64.563-8.027 2.858 2.329-.29 4.487-.33 6.83-.128l-.197.058c-3.662 1.064-6.598.115-9.803 2.946 3.326-.661 6.705-1.43 10.063-.58-2.45.1-8.25.787-10.495 1.598a8.7 8.7 0 0 0-2.621 1.5q2.934-.513 5.905-.718 2.972-.206 5.948-.101l-.224.055c-4.59 1.105-5.261-.03-9.268 3.526 1.344.082 2.692.206 4.037.267-2.254.728-4.688.95-6.875 1.852 2.128.092 4.262-.001 6.39.06 2.055.06 4.113.272 6.158.47-5.275.575-10.666.882-15.858 1.982-1.005.213-2.05.374-3.002.767-.135.056-.269.11-.403.17a80 80 0 0 1 6.532.11c-2.724.912-5.812.676-8.401 1.81-1.174.514-2.178 1.47-3.318 2.097 2.705-.274 6.7-.824 9.313-.424-1.682.353-3.322.855-4.996 1.218-1.605.347-3.245.38-4.776 1.033-.507.216-.792.438-1.092.899l-.137.211c1.141.065 2.315-.288 3.447-.418 2.95-.34 6.024-.428 8.956.06-1.269.183-2.526.22-3.799.328-3.345.286-6.907.66-10.127 1.612-1.075 1.681-3.341 2.751-5.211 3.294l31.797-2.927c2.773-.27 5.497-.889 8.274-1.097-.742-3.064-1.562-6.133-2.159-9.229 2.88 3.166 6.33 5.424 10.11 7.358.727.371 1.737 1.008 2.57.988.339-.008.61-.08.838-.348.823-.964.048-5.103.797-6.826.194-.447.556-.859.854-1.241-1.236-.892-2.258-2.04-3.151-3.271 1.558.7 3.094 1.495 4.67 2.147.563-.343 1.136-.676 1.687-1.038-3.44-2.416-6.84-3.45-10.324-6.388-2.443-2.06-4.986-6.093-7.234-7.653-.872-.605-1.879-.826-2.928-.801m46.592 1.758.1.233a9.4 9.4 0 0 0 1.316-.052l-.014-.193a3.6 3.6 0 0 0-1.402.012m-57.878 8.502c-4.903.288-10.673 1.687-14.95 4.157 1.496-.224 3.024-.532 4.528-.673 1.368-.134 2.688-.253 4.009-.665.974-.304 1.906-.738 2.887-1.011-.651.594-1.685 1.294-2.16 2.008.494.193 1.129-.157 1.584-.359.87-.385 4.644-2.623 5.071-3.333-.275-.192-.636-.139-.97-.123m-19.136 12.61c-.923.178-1.898.31-2.783.627l-.016.095.125.013c.947-.011 2.023.044 2.857-.465l-.042-.198zm-2.027 2.134c-1.881.28-5.462.679-7.035 1.677l.023.089.49-.025c1.476-.101 6.338-.551 7.312-1.629.026-.029.046-.064.07-.096-.289-.127-.551-.047-.86-.016m-.854 2.258c-2.79.483-9.212 1.858-11.55 3.028q-.458.231-.868.54t-.76.685c.02.061.024.138.074.18 1.242.06 8.499-1.046 9.83-1.464.682-.214 1.292-.636 1.817-1.114.504-.458 1.279-1.12 1.498-1.764zm122.856 9.332c-2.08.463-9.499 5.536-11.504 7.09q1.244-.438 2.48-.898c1.363-.436 2.655-1.061 3.963-1.636 1.213-.533 2.525-.959 3.693-1.58 1.376-.73 2.62-1.776 3.858-2.716-.827-.057-1.671-.23-2.49-.26m-3.251 5.92c-2.714.294-4.909 1.453-7.441 2.302-1.362.456-2.594.575-3.875 1.322l-.021.148.214.104c1.631-.29 10.583-2.908 11.3-3.867zm-78.163 1.123c-3.132.343-6.18 1.037-9.296 1.427.627.58 1.246 1.176 1.894 1.733.68.088 2.62-.425 3.468-.54 1.776-.239 3.534-.436 5.325-.503-.119-.657-.168-1.413-.553-1.972-.338-.203-.453-.161-.838-.145m56.915.253c-1.6.11-3.173.277-4.748.6-1.641.337-3.275.83-4.953.93a43 43 0 0 0-.542 2.326c.594-.008 1.187-.012 1.78-.045q.08-.013.163-.023c.895-.116 1.79-.09 2.69-.084 4.173.023 4.357-.9 7.014-3.79zm-79.937 1.33c1.514.69 4.14 1.706 5.788 1.054a3.7 3.7 0 0 0 .641-.337c.118-.145.364-.353.347-.536l-.103.046c-.029-.018-.055-.04-.086-.053-.602-.28-5.635-.219-6.587-.175m24.008 1.414c-1.346.188-6.931.231-7.668.72.092.52 1.209 1.394 1.617 1.767.494.077 5.876-.69 7.083-.768-.1-.569-.145-1.19-.46-1.684-.258-.096-.3-.088-.572-.035m53.182 1.255-.166.028c-1.332.224-5.8.825-6.86.445-.072-.026-.242-.051-.327-.065-.33.214-.38.395-.468.776-.137.597-.207 1.236-.3 1.843 1.753.043 3.557-.483 5.275-.131 1.023-.855 2.12-1.695 2.927-2.766zM99.895 85.8l-1.51.162c.63.636 1.26 1.229 1.965 1.782 1.348-.334 2.75-.44 4.131-.534.443-.021.882-.048 1.325-.032-.139-.49-.266-.986-.423-1.47-1.79.164-3.907-.14-5.488.093m53.95 2.007c-1.563.117-3.11.231-4.68.183-.125.767-.298 1.544-.267 2.323l.143.195c1.815-.229 3.632-.888 4.804-2.4.069-.09.08-.139.112-.236zm-51.651.37c-.31.02-.945-.01-1.192.148.682.83 1.633 1.666 2.516 2.275.586-.096 1.133-.197 1.73-.15l.244.02.166.016c.188-.044.504-.053.591-.234.278-.575-.144-1.582-.271-2.184-1.334.282-2.59-.118-3.784.11m3.883 2.594q-.92.216-1.847.401c.402.323.807.639 1.225.94l1.197.861c-.045-.695-.037-1.432-.235-2.103-.252-.132-.135-.122-.34-.099m44.097.143c-.5.083-.999.078-1.389.409-.12.367-.112.623-.077.997.199.19.099.151.26.191.489-.483 1.083-.966 1.438-1.557-.193-.055-.114-.06-.232-.04m48.903 13.747c-1.22.252-2.169.048-3.38.06-1.03.627-1.925.87-3.132.972.822.282 1.659.543 2.468.856.922.37 1.872.712 2.765 1.145.835-.653 2.102-1.694 2.367-2.753-.08-.168-.057-.236-.254-.293-.284-.082-.548-.027-.834.013m32.843 1.138-.251.162c-.042.429.164.716.423 1.038 1.402 1.742 3.606 3.169 5.46 4.395 1.563-1.015 3.239-1.987 4.572-3.302.684-.724 1.308-1.44 1.858-2.272-1.725.18-3.404.393-5.105.729a1 1 0 0 1 .116-.435l-.218-.096c-.256.162-.328.38-.457.642l-.162.044q.065-.31.116-.624c-.512-.295-5.416-.353-6.352-.281m-36.34 3.086c-2.175.587-4.252.953-6.514 1.014 1.8 1.513 3.794 3.439 5.96 4.38.798-.32 1.51-.738 2.248-1.179.948-.66 1.772-1.27 2.45-2.223l.032-.23c-.717-.2-5.668 1.831-7.267.824.02-.3.065-.314.286-.506.9-.779 2.475-1.141 3.207-2.007-.274-.102-.139-.083-.401-.073m36.532 3.666c.988 2.252 2.912 3.92 4.71 5.533 1.29-.746 2.485-1.507 3.614-2.482.841-.825 1.684-1.617 2.282-2.645-3.655.212-6.989.448-10.606-.405m-32.966 3.852c-2.606.784-5.266 1.51-7.927 2.08l1.26.921c.42.247.84.522 1.272.744 1.778-.61 4.37-1.944 5.383-3.589zm-9.369.3a12 12 0 0 0 1.219 1.573l1.157-.39.093-.17c-.595-.5-1.716-.795-2.469-1.013m-9.568.17c-2.562 1.012-4.348 2.252-6.598 3.769l-.05.174.088.09c2.785-.544 4.596-1.772 6.6-3.725l.069-.213zm-103.403 2.832q1.671 2.076 3.456 4.054c1.362-.102 2.894-.423 4.235-.377l.091-.13c-.097-.333-.157-.584-.413-.837-.7-.147-1.496-.09-2.16-.337-1.06-.394-1.849-1.26-2.847-1.758-.7-.35-1.596-.483-2.362-.614m165.647.222c-1.058.091-2.08.207-3.122.413l.868.957c-2.592.419-5.068-.671-7.669-.706a32 32 0 0 0 2.476 2.183l3.35 2.48c1.4-.926 4.498-3.422 4.905-5.092l-.112-.241a2.3 2.3 0 0 0-.696.006m-228.4.26c.94 2.282 3.671 4.028 5.646 5.352-1.524.16-3.005.103-4.532.052 1.307 2.23 3.695 4.199 5.678 5.845 1.56-.936 2.89-2.023 4.152-3.333q-1.622.243-3.262.275c-1.42.011-2.567-.094-3.93-.479.957-.988 2.145-1.757 3.234-2.594 1.841-1.417 3.53-3.014 4.958-4.848-1.544.148-3.296.166-4.772.662l1.277 1.333c-1.835-.176-3.603-.358-5.339-1.027-1.028-.396-2.048-.961-3.11-1.238m205.787.487c-2.192.259-4.441.359-6.615.702.764.418 1.911.868 2.304 1.698-.125.266-.038.207-.279.308-1.635.683-5.664-.58-7.3-1.092.444.626.88 1.22 1.407 1.78 1.165 1.323 2.528 2.33 3.82 3.506 1.326-.934 7.08-5.494 7.43-6.69.013-.043.015-.089.022-.133-.298-.202-.445-.115-.789-.079m-20.216 1.952-.145.108c-.695.511-1.839.867-2.36 1.491l.083.133.625.126c.368.157.522.27.922.109.39-.157.858-.51 1.01-.918.098-.257.074-.725-.067-.965-.019-.03-.045-.056-.068-.084m19.869 4.547c-1.075.153-4.78.378-5.412.986.036.262.033.271.234.427.254.194.596.313.888.44.34.192.681.379 1.014.581.831-.36 3.314-1.637 3.65-2.418-.144-.026-.229-.045-.374-.016m13.194-.099c.842 1.239 2.197 2.364 3.354 3.313.445-.322.902-.635 1.328-.981.421-.353.852-.697 1.256-1.07-1.925-.584-3.913-1.202-5.938-1.262m-193.063.454c-1.427.457-2.707.36-4.182.292 1.004 1.483 2.121 2.46 3.552 3.526.978.089 1.481.075 2.374-.376.454-.23.943-.407 1.416-.597.95-.444 2.614-1.432 3.028-2.419l-.023-.162c-.809-.355-5.692 1.585-6.967.34.241-.209.767-.308.851-.567zm170.728 1.724c1.133.702 3.082 1.103 4.403.795-.233-.182-3.927-.83-4.403-.794m-172.149 3.93c.08.078.142.177.237.234.345.208 6.183.463 6.858.45q.057-.001.115-.005c-.673-.645-5.007-.773-6.14-.754q-.537.006-1.07.076m202.054 4.75c-2.747.144-5.505.006-8.254.088l-35.546.778-9.204.159c-1.774.03-3.684-.051-5.434.252-1.737.302-4.005 1.423-5.358 2.554 2.221 0 4.438-.137 6.66-.159l63.4-.727q.23-1.457.393-2.923c-1.89.012-4.956-.298-6.657-.023m-176.81 2.002c-4.913.13-9.827.06-14.74.069q-19.797-.142-39.593.125c.024.976.126 1.91.324 2.867l16.397-.089 39.526-.272c4.75-.057 9.958-.743 14.634-.497-1.964-.629-3.978-1.643-5.967-2.08-1.468-.322-3.431-.027-4.945-.02-1.883.008-3.757-.09-5.637-.103m180.35 3.372q-10.53.606-21.075.649c-3.419.044-6.838-.103-10.26.001-1.197.036-2.394.205-3.59.283-2.494.162-4.993.276-7.489.403-1.012.052-3.905-.053-4.59.259l.11-.005-.115.05c2.287-.168 4.61.097 6.889.304 3.933.355 7.875.843 11.828.88-1.83.84-3.88 1.205-5.818 1.73q-2.98.823-5.906 1.822c4.38.584 9.036.717 13.44.269 3.404-.373 6.911-.034 10.291-.516q-2.398-.663-4.812-1.262c-1.818-.451-6.031-.961-7.221-2.328l.004-.232c.365-.307.804-.351 1.265-.393 1.55-.14 3.17-.074 4.73-.099l8.075-.15c3.908-.054 7.845-.35 11.747-.337-4.475 3.221-8.922 2.983-13.75 4.86 3.762.135 7.626.207 11.387.057 2.032-.081 4.094-.425 6.123-.406.35-1.92.828-3.897.858-5.853-.704-.008-1.42-.043-2.122.014m-222.234 1.493.001.207c.355.07.665.03 1.019-.01l.003-.196c-.347-.099-.671-.04-1.023 0m-.932.16c-3.57.184-7.098-.014-10.66.093.215 1 .424 1.993.727 2.971 2.9.165 6.077-.125 8.904.586-2.898.443-5.75.807-8.69.76.685 3.23 1.48 6.5 2.505 9.64 3.11-1.603 12.813.405 14.679-1.228-.003-.271-.004-.316-.215-.515-.833-.786-2.41-1.269-3.505-1.547l-.278-.074c-3.097-.732-6.412-.725-9.435-1.647 2.482-.205 4.984-.136 7.468-.312 2.173-.154 4.32-.528 6.499-.645-3.184-1.715-6.989-1.862-10.492-2.37 2.18-.594 4.357-1.043 6.585-1.416 1.228-.205 2.526-.315 3.734-.608.328-.08.637-.102.837-.391-.164-.274-.314-.416-.644-.483-1.207-.247-2.629-.076-3.95-.338-1.622-.323-3.127-1.096-4.765-1.31l-.192-.026c-.8-.09-1.674.108-2.466.224 1.1-.51 2.23-1.048 3.427-1.277zm.404-.021c.082.002.168.026.246 0zm52.876.006-5.282.117c-1.526.022-3.105-.054-4.616.186-2.241.355-4.845 1.301-7.226 1.77-1.167.229-2.606.106-3.681.543l-.135.19c.612.324 1.947.167 2.676.249 2 .221 3.943.696 5.957.813-3.029 1.207-6.33 1.614-9.368 2.75 2.369.153 4.704.323 7.058.648-2.33 1.16-4.43 1.716-6.742 3.194 2.449-.511 4.696-.485 7.175-.544-1.344.513-6.259 2.303-6.926 3.444-.02.034-.03.072-.047.108.284.05.526.017.81-.014l.129.129c-.127.77-1.07 1.383-.851 2.171 2 .233 4.347-.29 6.37-.421-1.102.372-5.715 1.622-6.31 2.347-.398 1.362-.235 3.298-.077 4.709 1.254.206 2.528.192 3.795.215-.494.203-.953.359-1.485.429-1.948.256-4.003.163-5.967.173-2.628.015-5.294.083-7.919-.05-1.538-.078-3.067-.335-4.605-.388-3.669-.125-7.346.07-11.013-.254-1.722-.153-3.382-.511-5.072-.851 2.855-.403 5.453-.382 8.32-.229-.035-.94-.07-1.88-.142-2.818-.664-.89-1.42-1.317-2.365-1.847l2.407.299c-1.172-1.596-3.287-2.493-5.21-2.79-1.871-.288-3.947.005-5.837.084-1.418.06-2.837.016-4.254-.058.244 1.094.503 2.16.857 3.226 1.89.11 7.44.23 8.755 1.2-.812.013-1.592-.207-2.413-.189-1.98.044-3.969.3-5.948.251q.504 1.966 1.186 3.879.681 1.911 1.533 3.754c3.772.04 7.533-.299 11.305-.285 4.019.016 8.14.447 12.144.122 6.604-.536 13.103-2.118 19.728-2.324 5.661-.176 11.244.573 16.881.724 4.016.108 8.012.177 12.028.014 4.827-.196 9.687-.689 14.496-1.156 3.75-.377 7.442-.994 11.165-1.567 1.965-.302 4.094-.477 6.013-.983.48-.127.935-.355 1.344-.635.176-1.028.26-2.043.326-3.082q-3.625-.397-7.269-.558-3.643-.162-7.289-.087c-2.76.061-5.471.506-8.241.333-5.032-.315-9.884-2.048-14.93-2.227-2.325-.083-4.558.524-6.836.884-1.727.273-3.51.55-5.26.584-4.278.084-9.293-1.025-13.168-2.82 4.437.484 9.055 1.503 13.5 1.433 5.21-.082 10.372-1.244 15.614-.861 5.195.379 10.213 2.487 15.436 2.696 1.764.07 3.52-.783 5.254-1.069 4.303-.708 9.038.09 13.243 1.081q.14-1.872.322-3.74a133 133 0 0 0-8.785-.473l-.071-.098-.016.038c1.422-.105 2.81-.401 4.225-.53 1.568-.143 3.191-.008 4.76.1.048-.651.212-1.431-.056-2.037-.55-.49-1.537-.431-2.242-.56.79-.132 1.526-.232 2.329-.22.01-1.088.303-3.5-.345-4.349-.605-.233-1.213-.216-1.853-.156-1.367.13-2.734.609-4.08.89-1.998.417-4.06.698-6.019 1.273 3.007-.023 6.336.1 9.26.823-2.58.635-6.12.741-8.775.605-1.173-.061-2.353-.248-3.527-.258-1.379-.013-2.764.23-4.144.272-1.947.057-3.898-.058-5.844 0-4.393.13-8.903 1.191-13.213 2.006-3.114.588-6.2 1.044-9.265 1.876l.113-.124c1.093-1.167 2.417-2.089 3.529-3.236 1.013-1.044 1.806-2.317 2.727-3.443.926-1.132 1.97-2.178 2.855-3.343.212-.28.445-.553.519-.904-.202-.447-.459-.628-.917-.794-1.758-.639-8.43-.4-10.508-.26m-34.084.068c-2.143 1.035-4.341 1.956-6.701 2.367-1.137.198-2.85-.058-3.812.532l-.022.42c.27.152.511.265.822.302 1.134.132 2.375.01 3.524.046 2.105.064 4.234.264 6.337.248-2.569 1.498-7.393 2.96-10.355 3.917q4.42.034 8.786.719c-1.514.731-3.19 1.04-4.698 1.763-1.527.73-2.86 1.78-4.408 2.497 1.413.172 3.204.23 4.49.848l.102.145c-1.007 1.017-3.447 1.783-4.444 3.129.518.513 1.694.75 2.398.974-.782.099-1.571.18-2.35.3a52 52 0 0 0-.187 3.246c7.706 1.204 15.483.383 23.238.913-.549-1.683-.291-3.403-.496-5.127-3.421.204-6.908.359-10.332.201-2.822-.12-5.644-.232-8.336-1.17 2.833-.05 17.396.606 18.654-.505.072-.327.05-.467-.123-.762-.16-.272-.564-.688-.566-.988l.528-.011a5.4 5.4 0 0 0 .496-.8c-.837-.31-1.68-.648-2.561-.81-3.514-.65-7.279.226-10.843-.237 4.262-.8 8.988-.582 13.038-1.685-1.295-.392-2.503-1.009-3.795-1.378-2.096-.599-4.475-.748-6.645-.977 3.388-.409 7.332-.484 10.59-1.398-2.318-.585-4.525-1.498-6.833-2.098-1.398-.363-2.747-.482-4.164-.688 1.21-.178 2.424-.368 3.642-.488 1.604-.158 5.747-.12 6.965-.716l.01-.15c-.464-.286-1.137-.306-1.669-.402-1.306-.236-2.651-.536-3.912-.952-1.122-.371-2.26-.894-3.425-1.101-.975-.174-1.957-.134-2.943-.124m199.133 5.657c-2.853.336-7.972 2.39-11.017 3.255 2.332.153 4.634.558 6.962.725 2.929.21 5.918.459 8.85.53q.529-2.275.957-4.572c-1.887.001-3.88-.137-5.752.062m-25.887.747c-3.12.465-6.342 1.088-9.306 2.192 2.724.015 5.486-.137 8.202.042-3.833 1.417-5.254 1.435-8.279 4.5 2.36.05 4.76.028 7.103.332-1.424.458-6.127 1.592-6.794 2.935-.19.383-.124.788-.073 1.193.25.243.354.216.705.251 1.615.163 3.31.032 4.943.13 2.7.16 5.326.556 8.043.519q4.426-.105 8.847-.328c-1.364-.617-2.738-1.158-4.184-1.551-2.068-.574-4.107-1.241-6.158-1.874-1.404-.433-2.845-.804-4.214-1.337 4.805.066 9.872.728 14.639.037-3.41-1.186-7.26-1.806-10.82-2.397-1.395-.232-2.835-.395-4.21-.72 4.955-.513 10.13-.506 15.01-1.502-3.724-1.01-9.691-2.856-13.453-2.422m28.732 4.759c-4.683.38-9.781.743-14.202 2.434 4.078.456 8.24.947 12.347.91-1.482.76-3.034 1.244-4.616 1.742-2.373.757-4.77 1.383-7.186 1.99 4.324.43 8.645.539 12.912 1.43.855-2.826 1.598-5.683 2.43-8.516-.552-.02-1.14-.086-1.685.01m-1.077 8.868c-2.789.52-5.598.95-8.394 1.435-1.505.261-3.1.456-4.55.93q2.462.263 4.861.878l-.14.072c-1.04.523-4.162 1.154-4.577 2.2.41.336 7.894-.518 9.08.31l-.006.135c-3.03.194-6.103 1.061-9.1 1.57-.193.76-.294 1.477-.352 2.258 1.708.066 3.428.16 5.137.118 1.461-.036 2.998-.276 4.448-.104.646-1.6 3.745-8.668 3.652-9.744zm-178.208 5.39c-3.269.077-6.542.076-9.8.393-5.266.513-10.513 1.505-15.794 1.826-2.485.15-4.882-.236-7.337-.184-1.855.039-3.7.45-5.561.483-2.077.037-4.1-.398-6.151-.638.515 1.418 1.042 2.839 1.752 4.173 2.518-.314 6.899-.744 9.361-.441-2.942.614-5.839 1.372-8.827 1.735a27 27 0 0 0 1.21 2.343q1.634-.335 3.28-.608c10.532-2.2 20.943-3.627 31.596-5.038 2.729-.362 5.444-.83 8.175-1.173 2.442-.306 4.849-.762 7.282-1.1 1.088-.15 6.815-.418 7.295-.877-.619-.105-2.638.014-3.58-.052-4.294-.3-8.594-.835-12.9-.843m57.957.389q-20.426.935-40.777 2.912t-40.576 4.992c-5.9.913-11.939 1.59-17.784 2.802-1.188.246-2.278.838-3.468 1.092.182.454.581 1.77 1.029 1.963.19.082.126.053.377.032q15.869-2.703 31.846-4.667 15.99-2.252 32.06-3.826t32.192-2.468c1.375-.077 5.33.152 6.12-1 .361-.525.482-1.3.633-1.914zm13.543-.124c.137.863.338 1.629.645 2.447.475.187.925.317 1.432.383 1.887.246 3.875.222 5.779.335q5.131.329 10.258.712 13.8.946 27.575 2.214c10.513.995 21.022 2.538 31.488 3.942 6.26.84 12.61 1.603 18.81 2.781 1.096.208 6.75 1.623 7.422 1.493l.311-.459c.282-.47.576-.937.836-1.42-2.093-.86-4.508-1.283-6.72-1.743-6.101-1.268-12.26-2.076-18.428-2.935q-16.775-2.508-33.648-4.244t-33.808-2.695c-3.97-.23-7.984-.686-11.952-.811m86.592 1.479c-5.87.436-11.669.964-17.517 1.627-1.66.189-3.554.139-5.143.63 2.824.205 5.59.681 8.393 1.036 3.167.423 6.461.664 9.572 1.382l.148-.065c2.12-.886 5.756-1.323 8.082-1.633.83-.11 1.766-.133 2.57-.344.082-.559.097-1.168-.246-1.647-.576-.801-1.997-.899-2.899-.97-.977-.078-1.983-.107-2.96-.016m-95.693.75c-.051.302-.25.972-.105 1.215l.042.006c.14-.392.3-.66.235-1.077zm100.234 2.999c-2.208.182-4.343.717-6.527 1.067 1.467.206 2.895.586 4.352.85l8.745 1.528 2.906.653c.638-1.33 1.313-2.655 1.898-4.01-1.611.186-3.262.538-4.886.442-2.167-.128-4.303-.745-6.488-.53m-91.735 6.106c-.298.351-.542.676-.696 1.115-.809 2.31-1.143 4.96-1.65 7.362l-3.562 17.554c-.29 1.369-.541 3.014-1.281 4.224-.546.892-2.303 1.572-2.22 2.752.014.186.07.313.16.47l.177-.065-.083.1c1.7.184 6.165.12 7.843-.066l-.016-1.688c-.89-.617-1.653-1.105-1.865-2.252-.268-1.44.502-3.355.741-4.789q2.39-.028 4.78-.027c.568.555.985 4.325 1.023 5.193a22 22 0 0 1-1.317 1.894c.001.566-.01 1.135.023 1.7 1.61.032 9.308-.044 10.216-.446.203-.427.143-.784-.011-1.213-.46-1.276-1.56-1.487-2.083-3.14-1.043-3.3-1.635-6.798-2.338-10.184q-1.14-5.418-2.426-10.803c-.48-2.1-.795-4.475-1.57-6.47-.176-.45-.363-.772-.814-.983-.864-.404-2.099-.26-3.031-.238m-16.782.145c-.028.722.003 1.4.076 2.117.807.555 1.605 1.034 1.783 2.082.254 1.5.056 3.285.041 4.818-.025 2.653.004 5.314-.062 7.965-1.216-3.607-2.75-7.062-4.213-10.572-.726-1.74-1.352-3.693-2.264-5.328a4.5 4.5 0 0 0-.735-.973c-1.372-.028-6.206-.192-7.252.334-.214.41-.32.878-.163 1.329.428 1.228 1.867 1.651 2.105 3.121.134.829.041 1.796.04 2.636l-.016 5.066c-.012 5.257.155 10.555-.023 15.805-.019.56-.014 1.159-.25 1.677-.318.693-.952 1.144-1.538 1.596.023.556.031 1.117.088 1.67 1.114-.002 6.37.192 7.026-.22.126-.545.063-1.05.016-1.6-.781-.442-1.443-.674-1.694-1.615-.429-1.607-.242-3.549-.24-5.204.002-3.95.244-8.156-.118-12.077.884 1.665 1.587 3.44 2.331 5.17 1.576 3.665 3.055 7.355 4.698 10.991.689 1.524 1.314 3.214 2.195 4.633a26 26 0 0 0 3.102-.002c-.079-5.726.06-11.466.075-17.194.009-3.588-.181-7.238-.026-10.817.129-2.962 2.74-3.164 2.045-5.227-.937-.469-5.691-.244-7.026-.18m31.024.34c-.151.62-.339 1.31.02 1.894.588.96 1.569 1.559 1.83 2.716.255 1.123.186 22.585-.072 23.716-.255 1.113-1.014 1.917-1.808 2.68-.022.524-.083 1.014.111 1.513.64.263 8.023-.26 9.113-.393.82-.1 1.627-.208 2.395-.523 1.013-.416 1.959-1.014 2.807-1.703 3.206-2.796 4.523-6.086 4.811-10.293.366-5.336-.133-11.627-3.847-15.804-3.424-3.85-8.823-3.535-13.533-3.776a23 23 0 0 0-1.827-.028m-56.697.166c-.352.05-.736.075-.987.36-.339.382-.497 1.144-.621 1.634-.728 2.873-1.267 5.811-1.922 8.703q-1.615 6.867-3.329 13.709c-.4 1.569-.679 3.448-1.629 4.79-.476.673-1.587.998-1.526 1.927.021.33.135.61.436.775.335.183 5.887.383 6.37.185.244-.1.287-.194.452-.387a2.3 2.3 0 0 0-.009-.952c-.788-.865-1.491-1.45-1.444-2.715.05-1.331.59-2.905.951-4.193q2.49-.038 4.977.102c.508 1.7.912 3.421 1.039 5.195l-.062.13c-.607 1.22-1.774 1.423-1.345 3.02.484.377 8.408.445 9.704.415.156-.608.298-1.2.38-1.823-1.503-.892-1.871-1.613-2.305-3.293-1.63-6.316-2.842-12.771-4.289-19.133-.542-2.388-.968-4.915-1.714-7.238-.136-.426-.272-.849-.632-1.137-.772-.263-1.69-.126-2.495-.074m-13.137.423c-.53.284-1.057.59-1.614.82-3.523-.443-5.708-.425-8.637 1.842-3.209 2.482-4.849 6.806-5.323 10.721-.541 4.468-.046 10.08 2.829 13.748 1.686 2.15 4.44 3.53 7.145 3.81.78.081 5.778.577 6.055.313.822-.783.89-6.77 1.14-8.173.122-.85.466-1.991-.022-2.745-.301-.191-.475-.239-.834-.18-.474.076-.867.493-1.103.884-1.129 1.867-1.144 5.607-3.657 6.288a2.15 2.15 0 0 1-1.728-.277c-1.561-.997-2.15-3.387-2.46-5.088-.781-4.277-.932-12.492 1.579-16.14.554-.806 1.316-1.367 2.299-1.5.64-.087 1.226.01 1.73.438 1.18 1.004 2.026 6.036 3.428 5.911.307-.028.546-.213.699-.47.188-.319.216-.772.22-1.131.006-.5-.661-8.293-.714-8.441-.114-.32-.247-.429-.56-.557-.128-.052-.341-.06-.472-.073m97.89.159c-.188.17-.36.324-.468.56-.66 1.436-1.026 3.829-1.415 5.432-1.213 5-2.268 10.05-3.362 15.078-.41 1.886-.74 3.815-1.211 5.686-.458 1.821-2.134 2.492-2.26 3.522-.027.217.022.364.1.561.67.467 5.342.128 6.242-.022.229-.037.401-.102.605-.207.181-.397.26-.693.09-1.126-.221-.563-.927-.922-1.183-1.474-.509-1.098.24-4.406.47-5.66q2.26-.088 4.52-.093c.437 1.581.912 3.232 1.107 4.863-.629 1.257-1.96 1.681-1.51 3.316 1.606.308 4.555-.279 6.308-.413.714-.055 1.437-.007 2.148-.086.286-.031.588-.11.829-.273.358-.241.44-.577.482-.98-.128-.45-.425-.627-.778-.899-.496-.381-.726-.798-.95-1.377-.647-1.675-.946-3.697-1.371-5.45l-3.014-12.486c-.625-2.692-1.083-5.672-2.066-8.246-1.063-.127-2.246-.365-3.312-.227m25.86 14.647c-2.12.348-4.137 1.065-6.174 1.727 3.042 1.133 5.869 1.886 9.128 1.587 2.014-.243 3.867-.902 5.753-1.625-2.485-.987-5.989-2.153-8.707-1.69m-157.016.134c-2.283.237-4.315 1.08-6.433 1.91 2.733 1.076 5.301 1.9 8.28 1.668 2.042-.253 4.054-.76 5.91-1.67-2.14-1.286-5.247-2.193-7.757-1.908"/><path d="M169.78 35.989c-.87.08-2.192.088-2.982-.371-.222-.13-.148-.057-.227-.323.3-.34.72-.419 1.137-.551.885-.02 2.067.04 2.78.636.197.164.136.082.164.36-.244.224-.557.214-.871.248m-7.303 3.544c-.903-.158-2.573-.249-3.265-.847-.235-.203-.393-.442-.379-.765.024-.538.377-.964.722-1.338.148.11.261.166.44.214.203.054.41.1.608.17.83.298 1.594 1.263 1.978 2.04.125.255.212.352.117.621zm9.962-.958c-.672.167-1.429-.165-2.059-.397a9 9 0 0 1 1.047-.055c.46.008.697.129 1.013.452m-72.15 5.839c-.638-1.417-1.452-2.761-2.242-4.097.155.032.29.078.433.145 2.182 1.023 4.177 5.724 4.648 7.98.227 1.09.063 2.237.516 3.28.445 1.022 1.104 1.987 1.637 2.969a35 35 0 0 1 2.281 5.156q-.66-.727-1.295-1.476c-.403-.582-.822-1.166-1.15-1.794-.384-.736-.707-1.64-1.203-2.303-.3-.401-.912-.49-1.192-.887-.468-.662-.52-1.627-.428-2.395l.02-.16c-.29-.233-.758-.218-1.13-.265.384-.23 1.03-.517 1.113-.992.141-.801-.605-2.998-1.122-3.611-.423-.502-1.278-.543-1.885-.62zm59.225-2.21c.334-.607.603-1.234.958-1.833a9.7 9.7 0 0 1 2.087.753c.508.257.96.516 1.146 1.08-.06.302-.053.337-.274.544l-.337-.07c-1.182-.296-2.365-.417-3.58-.474m5.138 3.739c-1.143-.156-3.696-.086-4.574-.818-.254-.211-.27-.326-.282-.625.173-.355.295-.499.607-.74.465-.034.885-.043 1.34.08.855.23 2.823 1.072 3.283 1.86-.05.142-.243.18-.374.243m11.056-.089q-.553-.129-1.1-.282c-.346-.096-.834-.197-1.018-.521l.329-.114c.515-.08.906-.16 1.38.123.308.184.529.399.612.746zm-10.373 3.528c-.832-.057-1.689-.086-2.512-.22-.537-.088-1.296-.306-1.6-.809-.288-.478-.25-.833-.155-1.356.412.088.816.243 1.213.383 1.081.381 2.532.906 3.054 2.002m13.13.821c-.428-.083-.844-.138-1.229-.355l.065-.184.709-.242c.35.08.69.137 1 .33l-.048.178zm-14.868 2.702c-.452-.836-1.019-1.724-1.119-2.682.184.011.367.024.55.05.69.097 1.227.707 1.598 1.261.424.633.806 1.461.64 2.223a10 10 0 0 0-1.67-.852m15.934 1.984c-1.654.11-3.467.266-5.062-.23l-.006-.092c1.47-.076 2.91-.42 4.362-.65.976-.158 1.966-.038 2.907.256.5.156 1.225.427 1.476.919l-.203.145c-1.163.131-2.337-.128-3.475-.348m-12.963 2.626c-.669-.199-1.331-.376-1.93-.745-.41-.251-.853-.593-.906-1.114-.042-.416.237-.566.5-.829.76.172 1.843 1.16 2.26 1.795.192.294.33.545.267.904zm-88.543-.524c3.459-1.028 6.772-.989 10.32-1.19 1.922-.104 3.884.038 5.808.1-1.254.516-8.65.749-10.748 1.037-1.74.28-3.625.194-5.38.053m25.985-1.107-.075-.033zm68.95 3.507c2.143-.536 4.471-.587 6.668-.842 1.073-.09 4.61-.024 5.42.601l-.109.183c-1.288.508-3.869.097-5.362.14-2.213.075-4.409-.187-6.618-.082m-5.565 1.391c-.519-.05-1.232-.044-1.632-.417-.354-.332-.323-.817-.308-1.258.57-.005 1.06.103 1.476.523.349.353.447.668.464 1.152m-86.855.454c2.447-.469 5.048-.606 7.532-.806.996-.154 2.215.066 3.227.134-2.456.54-5.19.8-7.704.834-1.024.046-2.04-.045-3.055-.162m100.085 1.635c-1.558.134-3.353.342-4.904.147l.05-.07c2.733-.232 5.424-.696 8.17-.896.935-.117 2.099-.19 3.026-.033l.21.04c.751.138 1.392.459 2.073.788-.796-.082-1.626.014-2.428.016-2.065.006-4.133.049-6.197.008m-11.977 1.116c-.804-.218-1.73-.797-2.452-1.227l.079.002c.207.004.415.008.618.056.621.145 1.444.6 1.755 1.169m5.523 2.492c2.373-.488 4.857-.375 7.266-.655 1.023-.189 2.167-.072 3.207-.053-2.415.596-4.659 1.306-7.166 1.09-1.083-.208-2.209-.266-3.306-.382m-29.494.971.056-.066zm-63.043 1.908c3.616-1.181 9.836-1.457 13.809-1.805 1.161-.112 2.384-.068 3.546-.002-2.792.769-5.701 1.07-8.565 1.444-1.665.216-3.345.503-5.019.623-1.399.114-2.419.239-3.772-.26m110.808-.617.058-.083zm31.205 1.864c-1.7.197-3.5-.62-4.985-1.349.926-.023 1.884.121 2.786.32.779.17 1.744.327 2.199 1.03m-58.62-.948q-.111.04-.222.076c-1.525.481-4.869.421-6.317-.31 1.396-.154 2.886.199 4.306.161.43-.011 1.632-.245 1.948-.14.112.038.19.142.285.213m40.241 1.372c2.706-1.365 5.917-1.674 8.87-1.214l.055.133c-1.341.408-3.104.37-4.512.514-1.478.151-2.939.394-4.413.567m-.141.064.141-.064zm-113.5.75.064-.113zm116.847 2.039c-.672-.002-3.275.145-3.77-.137 1.577-.544 4.733-.574 6.483-.77 1.644-.183 3.268-.507 4.891-.821.881-.209 2.351.28 3.246.481-2.166-.121-8.498.805-10.85 1.247m-140.116.478c5.294-1.653 10.51-1.79 15.989-2.059a12 12 0 0 1 1.926.055c-2.715.393-5.363.827-8.099 1.1-2.633.264-5.321.361-7.93.775-.626.063-1.258.09-1.886.13m86.549.747c-.66.042-1.328.154-1.982.04.398-.441 3.566-.657 4.297-.722.614-.059 1.186-.09 1.771.134-.769.55-3.096.47-4.086.547m-43.822-.537-.058-.07zm56.826.67c-.172.024-.352-.003-.525-.014.243-.218.521-.267.827-.348.169-.003.346.014.515.023-.131.195-.586.265-.817.339m38.37 1.552c.451-.232.905-.466 1.407-.562 2.588-.493 5.348-.362 7.97-.609 1.981-.185 3.765-.747 5.791-.717-.102.088-.055.07-.122.09-3.02 1.089-5.257 1.118-8.37 1.35-1.053.08-2.101.261-3.156.314-1.161.058-2.378-.084-3.52.134m-.154.06.154-.06zM205 80.065l-.822.029c.875-.528 2.386-.454 3.403-.588.81-.106 1.592-.338 2.41-.42 3.134-.314 6.269-.362 9.354-1.053.356-.046.61-.014.958.046l-.274-.005.255.098c-1.462.775-3.227.623-4.813.817-1.101.134-2.162.506-3.266.646-2.372.302-4.816.354-7.205.43m19.016-.996c1.02-.366 2.024-.66 3.077-.922a7.7 7.7 0 0 1 1.538.294c.405.123 1.264.35 1.467.737-.662.401-1.715.108-2.436-.014-1.225-.154-2.416-.144-3.646-.095m-17.236 3.98c-.138.028-.058.025-.24-.026 2.819-.822 5.704-.753 8.569-1.203 1.154-.18 2.168-.74 3.36-.78.151.004.261.039.405.081-2.617 1.704-8.963 1.84-12.093 1.928m-63.885-1.824.075-.1zm89.868 1.241c-.148.011-.297.018-.444.032-.862.084-2.61-.348-3.31-.901-.186-.148-.14-.226-.17-.45a6 6 0 0 1 2.998.526c.35.163.789.422.926.793m-89.957-1.151.09-.09zm72.943 4.098c-.415.065-.828.094-1.247.123.925-.582 7.328-1.439 8.844-1.612.624-.088 1.158.03 1.76.17-3.015.885-6.239 1.015-9.357 1.319m15.094.154c-.482-.008-.987.005-1.463-.08-.253-.045-.501-.03-.653-.245 1.197-.564 3.075-.537 4.394-.685.5-.103 1.143-.017 1.582.26.258.163.422.3.5.601-.54.506-3.497.17-4.36.15m-213.26 3.058c2.608-.811 5.498-.72 8.207-.847 4.042-.19 8.097-.291 12.136-.509 3.545-.19 7.086-.734 10.63-.825.584-.05 1.17-.03 1.755-.024-1.872.405-3.735.936-5.624 1.25-1.924.32-3.89.453-5.832.628-6.627.597-13.234.709-19.886.534-.41.036-.971-.137-1.386-.207m218.324-.81c-.4.144-.793.266-1.22.282-.806.03-3.166-.171-3.74-.725.199-.266.527-.25.844-.318.994-.007 3.945-.129 4.644.369l-.019.22zm-25.102.991c-1.227.189-2.524.052-3.746-.117.208-.196.455-.283.734-.323 1.015-.148 2.075-.132 3.1-.248 1.728-.194 3.445-.489 5.172-.696 1.377-.235 2.9.043 4.258.267-.982.061-1.965.023-2.947.11-2.167.19-4.432.601-6.57 1.007m20.024 1.342c1.599-.227 3.15-.416 4.765-.468l2.204-.079c.307.209.563.376.78.686l-.064.227c-.839.484-2.708.123-3.669.058q-2.014-.16-4.016-.424m-21.866 1.791c-.208-.087-.266-.113-.423-.284.992-.37 2.417-.344 3.485-.476 3.04-.375 6.178-.652 9.173-1.278l.239.003.075.177c-.482.462-1.457.668-2.111.792-.472.09-.953.04-1.43.087-1.579.157-3.15.336-4.733.472-1.431.124-2.845.375-4.275.506m-186.937.133c-2.054.23-4.4-.044-6.472-.12l-.131-.24-.233.112c1.338-.742 4.362-1.112 5.852-1.132 2.424-.17 4.948.19 7.384.233-2 .754-4.273 1.03-6.4 1.147m27.727.574c-2.67.207-5.387-.108-8.057-.223-2.617-.112-5.223-.204-7.836-.406-1.1-.085-2.267-.105-3.338-.37.59-.302 2.111-.185 2.822-.218 3.864-.293 7.89-.117 11.764.038 2.444.097 4.913.096 7.317.587-.869.27-1.78.417-2.672.592m-33.157 1.99c-.42-.085-.818-.111-1.14-.408l.114-.192c2.748-1.074 6.885-.843 9.877-.973l.335-.078.114.099c-.08.075-.107.109-.217.166-1.637.85-5.287 1.691-7.103 1.703-.673.004-1.328-.165-1.98-.317m193.121.124c-.34-.027-.574-.049-.89-.193l.367-.033-.203-.036c1.022-.193 2.092-.24 3.125-.392 2.491-.367 4.973-.798 7.479-1.055.319-.047.582-.045.9-.023l.014.092c-.59.398-8.097 1.59-9.109 1.692-.551.056-1.132-.006-1.683-.052m26.351.651c-.417-.032-.757-.123-1.154-.255l.29-.103.066.07.223-.022-.048-.085a53 53 0 0 0 4.597-.996c.338-.04.521-.074.842.069l.052.178c-.045.07-.08.147-.136.208-.794.868-3.617 1.004-4.732.936M32.435 97.39c1.017-.416 2-.715 3.084-.903 2.706-.471 5.495-.486 8.229-.713 2.384-.197 4.953-.982 7.33-.472-.475.582-11.961 1.62-13.648 1.79q-2.49.267-4.995.298m45.498-.924-.055-.067zm131.828 1.31c-.177-.1-.077-.029-.274-.245.63-.39 6.077-.54 7.234-.598.26-.029.151-.06.338.054-1.529.722-5.51.737-7.298.79m-194.167.707a3.6 3.6 0 0 1-.644-.047l.088-.11c4.078-.793 8.19-1.073 12.331-1.27.265-.034.475-.008.738.036l-.167.125.142-.027c-2.34 1.372-9.665 1.285-12.488 1.293m16.783-1.016.058-.078zm110.28 2.087.063-.055zm94.484 1.434c-.496.016-1.385.141-1.774-.174.413-.552 2.05-.749 2.744-.91.57-.068 1.15-.08 1.722-.112-.407.362-.843.688-1.274 1.021zm-25.57-.42c-.356.037-.689.03-1.044.013l.058-.102c1.13-.221 2.24-.334 3.386-.428.387-.015.755-.056 1.128.072-.747.495-2.613.395-3.528.445m-194.507.631c1.151-.373 2.265-.554 3.469-.648 1.658-.161 3.231.057 4.863.315q-1.553.218-3.115.36c-1.764.17-3.453.075-5.217-.026m18.058 2.07c3.88-1.466 8.155-1.718 12.256-2.088.587-.081 1.285.155 1.856.287-3.827 1.24-8.076 1.6-12.077 1.668-.668.1-1.36.101-2.035.133m180.714.138c-.787.162-1.553.268-2.333.022l-.013-.15c.36.043.728-.055 1.085-.113.662-.1 1.44-.102 2.095.03-.287.138-.524.165-.834.21m-102.388.368-.05-.147zm-96.846 3.392c1.633-.721 3.216-.96 4.985-1.129.657.037 1.28.174 1.922.311-1.56.619-3.182.73-4.837.877-.686.023-1.384-.032-2.07-.059m22.053-.534q1.139-.2 2.285-.356 2.102-.067 4.184.229c-.72.186-1.466.26-2.203.36a22 22 0 0 1-4.266-.233m177.149 1.75-.737-.096.014-.192c.028-.006.055-.017.084-.018.367-.02.385.058.64.306m-156.187 1.018c.713-.16 1.436-.172 2.164-.207.912-.052 2.149-.218 3.032.032.263.075.17.01.3.257-.388.258-1.014.216-1.468.21-1.39.09-2.66-.052-4.029-.292m-19.861.743c-.455-.004-1.065.028-1.436-.268.497-.479 1.76-.413 2.423-.45.62-.058 1.224-.02 1.844.01l-.239.086c-.853.313-1.7.464-2.593.621m133.605 2.683.14-.064zm-39.44 8.249.08-.05zm25.643 2.278.061-.073zm7.33 5.361.078-.078zm-.098.101.098-.101zm-90.609.136-.051-.063zm98.719-.012.066-.06zm-74.477.782-.05-.073zM127.75 141.5l.113-.114zm-.078.091.078-.091zm47.745 6.548c3.413-.134 6.871-.215 10.276-.46 1.24-.05 2.477-.11 3.717-.076-3.46.697-7.12.95-10.631 1.38-.72.089-1.454.279-2.167.418zm-102.104.362c-1.533-.003-6.87.245-7.953-.197l.01-.109c1.61-.444 3.677-.337 5.35-.39 2.782-.226 5.725-.03 8.508.116-1.986.505-3.879.585-5.915.58m-12.206 2.547c2.914-.119 5.843.248 8.757.304 3.144.06 6.301-.209 9.439-.413l.026.11c-1.22.553-2.692.867-4.012 1.095-4.516.78-8.627.432-13.064-.595zm67.286 10.596-.194-.102c-.4-1.66-.467-6.902-.46-8.849.081.063.147.163.212.243.182 1.282.701 7.737.442 8.708m6.3-7.455c1.888-.316 3.744-.438 5.653-.507 5.532-.224 11.184.816 16.712 1.196.881.06 2.324.417 3.126.316.032-.004.065-.014.097-.021l-.228.106.224.02q-2.59-.01-5.179-.073c-2.143-.285-4.529-.166-6.688-.156-4.561.021-9.23.032-13.717-.881m-71.725 1.706c.762-.264 1.457-.375 2.255-.465 2.773-.125 7.1-.346 9.748-.022l.059.084c-.314.147-.633.339-.99.303-.056-.006-.108-.027-.162-.04-1.885.191-3.829.134-5.723.157-1.725.02-3.466.124-5.187-.017m118.564 9.169c-5.09.138-10.194-.216-15.273-.493-1.055-.058-2.58.096-3.57-.19-.29-.085-.418-.204-.575-.451l.149-.196c1.883-.642 10.496-.912 12.923-1.057 4.01-.151 7.982.04 11.987.145 2.55.067 5.333-.097 7.834.41l-.015.08c-1.462.133-2.897.474-4.347.698-3.034.469-6.05.844-9.113 1.054m-21.668-1.807.135.088zm-103.56 2.383c2.504-.87 5.498-1.272 8.14-1.463 1.7-.088 3.42-.189 5.117-.012 2.938.305 5.78 1.039 8.754 1.01 1.857-.018 3.689-.217 5.538-.339 2.492-.163 4.993-.279 7.486-.402 2.957-.147 5.957-.125 8.92-.169 4.212-.061 8.36-.146 12.572.003q-1.955.563-3.95.953t-4.019.605c-3.014.436-5.805.006-8.787.098-4.24.131-8.451.524-12.697.501-1.68-.008-3.331-.22-5.004-.292-3.238-.14-6.497-.24-9.739-.306-4.107-.084-8.23.166-12.331-.187M30.74 176.184c-.75.064-1.746.232-2.422-.132.777-.135 1.675-.136 2.422.132m127.975 33.596c-.572.689-1.322 1.395-2.205 1.652-.31.09-.427.039-.69-.125-.275-1.579-.053-5.586-.053-7.365l.001-17.58c.562-.001 1.265-.003 1.764.288 1.011.59 1.49 2.218 1.772 3.292 1.268 4.826 1.898 15.602-.589 19.838m-26.936-6.887c.16-1.734.56-3.481.867-5.197.282-1.578.492-3.187.86-4.746.462 1.105 1.605 8.657 1.667 9.926l-1.587.028zm-43.315.004c.518-2.702 1.266-5.383 1.844-8.076.658.715 1.469 6.634 1.71 8.012l-1.924.063zm85.602-.756c.282-2.32.942-4.681 1.47-6.96.032.027.07.049.099.08.413.43 1.476 5.668 1.492 6.597-.297.221-.798.195-1.158.222zM124.913 256l-.176-.035c-2.71-.507-5.628-.453-8.381-.705q-6.474-.615-12.863-1.825c-19.34-3.517-37.823-12.298-53.328-24.298-3.459-2.678-6.701-5.603-9.943-8.535 11.546 2.464 23.179 4.81 34.921 6.112 11.25 1.248 22.572 1.577 33.856 2.374q6.553.45 13.084 1.143c1.838.189 3.746.637 5.584.667 2.311.038 4.746-.463 7.044-.735q5.218-.638 10.463-.972c6.256-.435 12.528-.64 18.779-1.09q10.09-.674 20.123-1.946 10.033-1.27 19.973-3.134c4.073-.778 8.18-1.523 12.195-2.568-1.612 1.24-3.072 2.648-4.594 3.992q-2.802 2.494-5.801 4.747-2.166 1.658-4.4 3.224-2.235 1.565-4.532 3.036-2.298 1.47-4.656 2.843t-4.77 2.645q-2.414 1.272-4.878 2.442t-4.975 2.236-5.065 2.025-5.146 1.811q-3.68 1.251-7.436 2.251-3.756 1.002-7.57 1.747-6.767 1.215-13.608 1.905c-2.45.238-5.092.163-7.497.643zm78.238-31.477c-.912.208-1.87.389-2.732.755-1.887.8-3.632 2.153-5.336 3.286-2.106 1.402-4.21 2.75-6.394 4.029q-5.89 3.43-12.138 6.157-1.446.649-2.91 1.259t-2.943 1.181-2.974 1.103-3.001 1.023q-1.508.491-3.029.942t-3.052.86-3.074.78q-1.542.369-3.094.697t-3.111.613-3.126.531-3.14.447-3.15.363-3.16.278-3.165.195-3.17.109-3.17.025-3.171-.06-3.168-.144-3.163-.23-3.156-.313q-1.576-.177-3.146-.397t-3.135-.482-3.12-.565-3.105-.648q-1.547-.345-3.085-.73-1.538-.387-3.066-.814t-3.042-.894-3.018-.976-2.99-1.055-2.962-1.136-2.93-1.213-2.896-1.292c-5.584-2.565-10.877-5.663-16.071-8.937-1.706-1.075-3.444-2.74-5.298-3.495-1.246-.508-2.656-.659-3.952-1.018l1.513 1.189q1.172.9 2.364 1.772 1.194.871 2.408 1.713t2.448 1.654 2.488 1.594 2.526 1.533 2.563 1.47 2.598 1.408q1.307.688 2.631 1.343 1.324.656 2.664 1.279t2.694 1.214 2.723 1.147 2.75 1.08 2.776 1.013 2.799.945 2.822.876 2.842.807 2.861.737 2.879.667 2.894.597 2.907.526q1.457.244 2.92.454t2.93.382q1.467.175 2.938.313 1.47.137 2.945.24 1.474.1 2.95.167 1.476.065 2.953.095t2.954.023q1.478-.005 2.955-.048 1.477-.042 2.952-.122 1.475-.077 2.948-.192t2.943-.266 2.935-.337q1.024-.135 2.044-.287t2.04-.321q1.017-.169 2.033-.355 1.015-.186 2.026-.39 1.012-.203 2.02-.423t2.014-.457q1.004-.238 2.004-.492t1.996-.525q.996-.27 1.988-.558.99-.287 1.977-.591.986-.304 1.967-.625.981-.32 1.957-.658.975-.337 1.945-.69t1.933-.723q.964-.37 1.92-.756.958-.386 1.909-.787.95-.402 1.894-.82t1.88-.851q.937-.434 1.866-.883.929-.45 1.85-.914.922-.465 1.835-.945.914-.48 1.82-.976.904-.495 1.801-1.006.897-.51 1.786-1.037.887-.525 1.767-1.066.879-.54 1.749-1.095t1.73-1.125 1.712-1.154q.85-.584 1.691-1.183.841-.598 1.672-1.21.83-.613 1.651-1.24.82-.625 1.63-1.266l.006-.128z"/></svg>