<svg xmlns="http://www.w3.org/2000/svg" viewBox="0 0 256 256"><path d="M93.534 0h66.953c4.153.65 7.977 1.41 11.682 3.534 2.876 1.65 5.515 3.89 8.164 5.882l13.84 10.406 25.475 19.19c2.889 2.22 5.95 4.301 8.73 6.65q1.028.87 1.948 1.854.918.983 1.717 2.068c1.217 1.664 2.339 3.549 3.05 5.49 1.538 4.197 2.622 8.654 3.894 12.942q3.718 12.11 7.242 24.276l5.938 20.042c1.04 3.476 2.418 6.955 3.113 10.514.62 3.18.595 6.396.072 9.587-.677 4.148-2.61 9.411-3.847 13.54l-6.637 22.678-5.302 17.875c-1.547 5.395-3.128 12.842-5.863 17.623-1.166 2.04-2.866 4.154-4.61 5.718-2.28 2.044-4.891 3.78-7.342 5.616l-13.956 10.42-20.285 15.12c-4.561 3.424-9.08 6.944-13.726 10.248-3.567 2.535-7.188 3.9-11.46 4.727H93.397c-4.089-.958-7.577-2.215-11.117-4.525-3.253-2.124-6.324-4.647-9.433-6.983q-9.052-6.744-18.005-13.62l-13.635-10.346-7.308-5.486c-3.332-2.468-7.1-4.835-9.61-8.202-1.405-1.886-2.721-4.204-3.53-6.403-.59-1.601-1.027-3.268-1.52-4.902q-1.595-5.264-3.079-10.56l-6.626-22.376-5.33-17.713c-1.188-3.852-2.608-7.787-3.424-11.733q-.13-.657-.23-1.319-.098-.662-.166-1.327-.068-.666-.104-1.335t-.04-1.337.022-1.338.086-1.336.15-1.33q.09-.662.21-1.32c.353-1.822.967-3.605 1.51-5.377l2.252-7.424 7.374-24.356c2.198-7.113 4.227-14.289 6.357-21.424.786-2.633 1.406-5.377 2.33-7.96.645-1.808 1.624-3.433 2.68-5.027a23.7 23.7 0 0 1 4.312-4.897c1.75-1.518 3.642-2.872 5.487-4.274l6.956-5.31 18.428-13.927q8.952-6.919 18.026-13.679c2.392-1.772 4.724-3.781 7.268-5.326C86.752 1.668 90.059.708 93.534 0m4.789 2.056c-4.486.183-8.36.864-12.372 3-4.403 2.344-8.303 5.84-12.262 8.863L52.894 29.823 37.278 41.586c-3.357 2.526-7.07 4.962-9.936 8.047-1.712 1.845-3.158 3.925-4.092 6.272-1.283 3.222-2.084 6.801-3.063 10.138l-5.6 18.828-7.628 25.185c-1.222 4.09-2.673 8.234-3.608 12.396-.508 2.261-.614 4.564-.51 6.874.15 3.35 1.214 6.42 2.188 9.597l2.375 7.775 7.424 24.93 5.044 17.114c1.1 3.795 2.035 7.85 3.567 11.488q.24.581.512 1.148t.575 1.117.638 1.083.697 1.045.755 1.004.811.96q.419.47.864.913.444.445.913.863c2.232 2.027 4.812 3.69 7.213 5.51l14.883 11.29 20.82 15.718c3.977 3.006 7.915 6.362 12.136 9.01q.903.559 1.846 1.049.944.488 1.922.903t1.986.752 2.037.595c4.059 1.005 8.451.69 12.605.685l12.493-.01c13.631-.008 27.289.17 40.918-.02 3.97-.232 7.732-.845 11.284-2.75 2.062-1.108 3.914-2.543 5.791-3.93q3.616-2.679 7.203-5.397l20.329-15.251 17.396-12.967c3.19-2.418 6.552-4.547 9.229-7.57 1.522-1.72 2.816-4.044 3.645-6.18 1.304-3.356 2.167-6.964 3.185-10.417l5.561-18.778 7.674-26.325c1.092-3.8 2.515-7.58 3.357-11.44.478-2.18.585-4.568.435-6.79-.207-3.111-1.2-6.013-2.094-8.974l-2.158-7.235-8.712-29.15-4.813-16.213c-.9-3.053-1.64-6.367-2.907-9.278q-.243-.555-.517-1.094-.273-.54-.577-1.063t-.636-1.029-.692-.992-.746-.951-.8-.908q-.411-.443-.848-.862-.436-.42-.895-.813c-2.288-1.972-4.84-3.71-7.249-5.535l-17.011-12.765-17.643-13.27-7.713-5.762c-1.724-1.29-3.422-2.675-5.235-3.837q-.802-.508-1.637-.959-.834-.45-1.699-.842-.864-.391-1.755-.721t-1.8-.597c-5.82-1.668-12.165-1.164-18.173-1.177l-16.529-.014-20.364-.001c-3.868 0-7.761-.084-11.626.048"/><path d="M158.969 252.415q-.148.015-.296.025c-3.6.22-7.3.055-10.912.055h-20.558l-19.928.007c-3.79 0-7.644.153-11.424-.115-1.871-.132-3.64-.517-5.429-1.084-2.194-.698-4.282-1.774-6.197-3.043-3.451-2.286-6.703-5.032-10.003-7.54L55.446 226.5 37.37 212.844c-2.358-1.804-4.907-3.456-7.129-5.42-2.333-2.061-4.338-4.825-5.54-7.7-1.388-3.315-2.22-7.04-3.223-10.498l-5.337-18.204-7.475-25.078-2.523-8.222c-.85-2.74-1.907-5.483-2.061-8.372-.1-1.873-.041-3.912.39-5.745.96-4.078 2.406-8.15 3.62-12.168l7.21-23.883 6.443-21.69c.947-3.153 1.686-6.535 2.893-9.586.849-2.145 2.23-4 3.772-5.695 2.638-2.9 5.997-5.037 9.115-7.384l14.721-11.083q12.007-9.267 24.127-18.387c3.33-2.479 6.644-5.404 10.275-7.41 3.308-1.828 6.95-2.577 10.682-2.765 3.484-.224 7.082-.056 10.576-.056l19.61.002 20.016.01c4.01.003 8.079-.125 12.08.159 2.009.142 4.037.565 5.955 1.174 1.978.628 3.817 1.555 5.551 2.688 4.113 2.685 8.001 5.821 11.936 8.762l20.504 15.395 16.285 12.302c2.11 1.605 4.4 3.057 6.407 4.784 2.1 1.807 3.86 4.133 4.93 6.693 1.191 2.849 1.896 6.017 2.77 8.984q2.508 8.226 4.902 16.487l8.43 28.352 2.652 8.815c.797 2.653 1.767 5.347 1.96 8.127.137 1.975.045 4.057-.393 5.992-.64 2.826-1.7 5.665-2.54 8.448q-2.545 8.364-4.944 16.773-4.193 14.77-8.65 29.462c-1.207 3.969-2.177 8.154-3.645 12.028-.9 2.375-2.108 4.475-3.779 6.392-2.676 3.07-6.465 5.47-9.723 7.896l-14.842 11.05q-11.255 8.525-22.618 16.905c-3.88 2.881-7.738 6.236-11.96 8.587-3.088 1.72-6.33 2.413-9.832 2.65M92.553 14.93a1.5 1.5 0 0 0-.644.242c-1.66 1.074-3.223 2.52-4.776 3.749q-4.218 3.317-8.48 6.578Q65.123 36.002 51.48 46.36q-6.314 4.671-12.555 9.44c-1.002.761-3.181 2.102-3.906 3.033-.807 1.036-3.172 10.279-3.774 12.283L19.5 110.266l-3.48 11.384c-.577 1.894-1.068 3.838-1.74 5.7.93 4.567 2.464 9.199 3.8 13.666l5.266 17.855 7.692 26.276c1.109 3.8 2.064 7.7 3.3 11.457 6.49 5.098 13.131 10.009 19.68 15.032l22.728 17.51c3.433 2.594 6.824 5.267 10.21 7.921 1.607 1.26 3.234 2.766 4.977 3.817l49.645-.058 14.039-.002c2.419 0 5.087.209 7.476-.12 2.884-1.164 6.567-4.509 9.127-6.425q12.393-9.32 24.63-18.843c5.905-4.522 11.927-8.897 17.795-13.468 1.748-1.362 3.572-2.659 5.263-4.091.73-.619 1.226-1.14 1.6-2.038.866-2.081 1.408-4.384 2.069-6.544q1.893-6.062 3.684-12.155l9.712-33.19 3.034-10.464c.564-1.987 1.04-4.012 1.685-5.973-2.564-9.117-5.533-18.103-8.264-27.168l-9.715-32.118c-.506-1.65-2.217-8.18-2.928-9.196-.692-.987-6.927-5.447-8.364-6.563l-34.346-26.421-8.03-6.313c-1.479-1.162-3-2.506-4.631-3.442-1.286-.738-2.797-1.164-4.268-1.298-2.334-.211-4.79-.044-7.137-.036l-13.427.023z"/><path d="M142.969 20.836c-1 .043-3.059.365-3.808-.364-.167-.163-.114-.118-.113-.375.325-.303.743-.357 1.167-.421 2.172-.327 4.612-.26 6.812-.294l9.267-.198c1.025-.012 2.084-.027 3.093.17.398.076.718.133.947.48l-.144.237c-1.583.882-14.547.709-17.221.765m-10.966 1.838q.694-1.665 1.353-3.344c.756.556 1.389 2.397 1.803 3.278 1.15-.002 2.282.021 3.423.175-.675 1.036-1.64 1.911-2.51 2.785.274 1.008.514 2.027.77 3.04a54 54 0 0 0-2.972-1.088 26 26 0 0 0-2.98 1.846c.044-1.244.198-2.528.376-3.76-.82-.787-1.646-1.567-2.42-2.4 1.06-.15 2.108-.314 3.156-.532m-8.763-1.659c-2.673.003-19.885.327-21.114-.12-.285-.104-.431-.235-.553-.503.02-.027.037-.058.061-.082.672-.667 5.043-.595 6.154-.63 1.946-.116 20.505-.257 21.26.09.249.116.236.122.324.395-.076.208-.14.317-.3.48-.626.631-4.73.376-5.832.37m-28.608 2.518c-1.384.06-3.163.298-4.49-.127-.272-.087-.328-.077-.458-.342.529-.503 1.643-.635 2.358-.723 2.457-.302 4.988-.208 7.459-.215l10.282-.063c1.04-.014 3.858-.203 4.725.21.248.118.26.111.351.38-.065.113-.065.13-.18.23-.44.387-1.329.487-1.884.537-1.966.177-4.043.041-6.023.047zm61.922 2.853c-1.564-.008-9.164.229-10.01-.162-.296-.137-.375-.239-.484-.537l.171-.292c1.423-.855 11.198-.58 13.391-.581 1.911-.036 8.805-.392 10.226.416.264.15.35.283.429.565l-.145.19c-1.548.758-11.29.413-13.578.401m-53.159 2.956c-2.014.134-18.946-.19-19.717-.615-.149-.082-.13-.243-.165-.396.149-.433.439-.657.77-.959 3.444.132 6.882.347 10.326.457 2.787.089 5.786.012 8.538.416.444.066.722.136 1.061.433l.015.255c-.255.257-.492.314-.828.409m66.982-.057q-3.046-.057-6.093-.052c-1.054-.006-2.21.08-3.25-.095-.338-.056-.594-.11-.8-.394l.134-.257c1.297-.773 3.025-.636 4.495-.682 2.019-.096 8.069-.538 9.472.699.235.206.345.31.356.635-.034.03-.065.066-.103.091-.755.512-3.253.115-4.211.055m-42.302 38.697c-2.178-.008-4.334.038-6.497.304-3.046.373-6.058 1.118-9.068 1.715q-5.476 1.082-11.034 1.598c-7.151.602-12.798-.486-19.093-3.942-2.013-1.105-4.021-2.381-5.767-3.873-2.325-1.988-3.73-4.525-3.965-7.599-.303-3.98 1.858-7.474 4.361-10.38 3.815-4.428 9.427-7.278 15.032-8.698 3.162-.8 6.45-1.249 9.64-1.974 3.286-.748 6.472-1.908 9.783-2.559 5.656-1.111 11.54-1.331 17.28-1.772q.756-.05 1.514-.05c3.986.023 7.902.925 11.833 1.472 2.958.412 5.935.63 8.883 1.132 9.33 1.587 19.998 4.998 26.784 11.885 2.953 2.998 5.294 6.34 5.24 10.7-.04 3.267-1.423 6.03-3.74 8.293-1.974 1.928-4.393 3.48-6.8 4.822-1.785.996-3.626 1.9-5.59 2.484-12.64 3.76-25.981-3.395-38.797-3.558m-.265-26.936c-2.12.225-3.878 1.081-5.238 2.743-2.13 2.602-2.781 6.276-2.44 9.55.239 2.296 1.224 4.639 3.072 6.097 1.676 1.322 4.047 1.739 6.134 1.426 1.699-.254 2.92-1.137 3.919-2.498-.023-.511-.038-1.024-.08-1.535-.457.361-.907.741-1.387 1.071-1.337.677-2.54.832-3.99.325-1.215-.425-2.194-1.63-2.698-2.778-1.185-2.702-1.063-6.949.053-9.656.468-1.136 1.279-2.333 2.464-2.804.526-.21 1.08-.282 1.603-.023 1.309.646 2.23 3.877 3.32 3.574.073-.02.138-.065.207-.097.2-1.465.01-3.103-.016-4.594-1.678-.562-3.15-.875-4.923-.8m-17.815.86c-2.379.47-4.189 1.604-5.544 3.64-1.86 2.792-2.342 6.668-1.678 9.916.396 1.932 1.319 3.979 3.003 5.108 1.386.93 2.983 1.059 4.593.859 2.395-.555 4.129-1.716 5.452-3.808 1.743-2.756 2.309-6.705 1.579-9.867-.453-1.96-1.462-3.938-3.211-5.036-1.272-.798-2.727-.98-4.194-.812m32.42.014c-1.954.22-3.605.798-4.893 2.381-1.878 2.307-2.304 5.698-1.954 8.565.348 2.852 1.578 5.498 3.885 7.28 1.386 1.07 2.852 1.515 4.588 1.585 1.952-.199 3.436-.878 4.706-2.41 1.861-2.246 2.241-5.42 1.964-8.233-.278-2.818-1.382-5.657-3.618-7.492-1.338-1.098-2.947-1.693-4.679-1.676m-45.825.997c-2.66.375-4.883 1.553-6.525 3.718-2.06 2.716-2.655 6.468-2.158 9.786.31 2.076 1.206 4.11 2.957 5.365 1.438 1.03 3.147 1.244 4.851.922 1.975-.373 3.375-1.24 4.616-2.825.041-.412.173-.93.01-1.306-.091.045-.19.083-.267.149-1.18.912-2.64 1.685-4.181 1.452-1.095-.166-1.963-.84-2.564-1.748-1.645-2.483-1.604-6.395-.99-9.191.324-1.47.93-3.13 2.266-3.962.68-.424 1.694-.733 2.492-.527.517.134.812.56 1.053 1.006.406.747.74 1.834 1.356 2.413.34.095.5.15.85.043.53-.658.273-3.76.286-4.798-1.4-.442-2.578-.645-4.052-.497m60.706.612c-1.317.21-2.585.674-3.416 1.782-.818 1.09-1.087 2.843-.862 4.157.834 4.858 9.592 7.42 7.056 10.858-.382.517-1.002.788-1.627.855-1.011.11-1.983-.23-2.756-.881-.968-.82-1.276-2.254-2.176-2.97-.202.174-.178.309-.203.572-.126 1.29.026 2.786.148 4.08 1.763.68 3.505 1.148 5.41 1.12 1.417-.18 2.766-.544 3.703-1.712.902-1.122 1.19-2.913 1.02-4.303-.17-1.383-.834-2.614-1.766-3.632-1.506-1.645-7.099-4.446-4.973-7.218.341-.445.908-.796 1.472-.845.794-.07 1.564.447 2.115.964.952.897 1.299 2.281 2.213 3.101l.195-.035c.418-1.175.106-3.558-.095-4.807-1.702-.79-3.575-1.204-5.458-1.086M83.16 34.045c-1.427.027-5.73.415-6.833.078-.31-.095-.478-.17-.627-.458.022-.035.04-.073.066-.104 1.172-1.35 12.033-.96 14.275-.994 2.046-.066 4.266-.246 6.29.04.467.066 1.195.13 1.483.516-1.136 1.105-12.56.9-14.654.922m101.37 3.623c-1.536-.24-3.084-.045-4.608-.237-.457-.057-1.221-.14-1.524-.52l.084-.27c.333-.279.605-.367 1.02-.479 1.105-.073 2.264-.155 3.369-.091.684.04 1.931.152 2.343.766.19.283.163.392.095.696-.308.216-.414.157-.78.134m-114.017 6.19c-1.772.035-5.517.323-7.055.095-.465-.07-.954-.182-1.236-.574l.086-.21c.568-.51 1.38-.615 2.103-.764 1.853-.122 5.948-.38 7.557.395.26.126.404.21.502.491-.399.447-1.387.488-1.957.567M193 44.368c-1.821.088-9.608.376-10.87-.652-.211-.172-.213-.23-.244-.483.202-.292.365-.337.684-.46 2.328-.044 8.405-.224 10.356.484.373.136.549.282.722.635-.187.302-.332.326-.648.475"/><path d="M144.054 59.842a2.2 2.2 0 0 1-.71-.04c-.867-.189-1.572-.882-2.041-1.601-1.887-2.893-2.062-7.797-1.325-11.073.306-1.361.789-2.485 2.005-3.256.427-.035.85-.057 1.267.06.924.26 1.64 1.056 2.071 1.881 1.465 2.806 1.667 8.603.697 11.572-.393 1.203-.827 1.89-1.964 2.457m-33.68-.376c-.308.003-.642.015-.941-.064-.752-.197-1.35-.895-1.706-1.551-1.413-2.61-1.332-7.846-.495-10.642.425-1.42 1.088-2.469 2.402-3.19.465-.04.913-.083 1.356.096.782.315 1.325 1.095 1.642 1.844 1.21 2.855 1.145 8.423-.077 11.277-.494 1.154-1.018 1.772-2.181 2.23m-54.95-8.106c-.992.056-2.265.25-3.203-.153l-.046-.206c.028-.033.053-.07.084-.1.486-.475 1.325-.66 1.978-.79 1.378-.273 2.849-.307 4.248-.429q3.823-.348 7.651-.629c1.092-.078 2.513-.285 3.416.491l-.047.189c-1.343.95-11.746 1.413-14.081 1.628m145.316-.531c-2.248.493-9.94.333-12.276-.315-.422-.117-.821-.254-1.04-.66.025-.314.076-.331.288-.571 2.985-.296 8.246-.026 11.338.191.7.05 1.691.063 2.17.617-.08.37-.224.466-.48.738m3.485 3.389c-1.763-.099-8.642.144-9.74-.916-.008-.206-.056-.242.092-.408.378-.42.847-.415 1.373-.469 1.664-.032 7.959-.012 9.248.8.242.153.24.2.291.462-.061.11-.096.186-.187.281-.273.288-.713.245-1.077.25M49.618 57.013c-.407.025-.814.053-1.22.062-.429.01-.64-.032-.952-.325l.032-.206c.557-.542 1.112-.75 1.876-.884 2.31-.404 4.904-.227 7.252-.271 4.185-.08 8.407-.178 12.582-.462.535-.042 1.119-.123 1.637.052.32.108.521.226.682.532-.056.221-.015.197-.162.342-.347.341-.86.458-1.326.526-1.984.29-4.206.178-6.219.243zm161.32 1.262c-1.545-.123-5.999-.063-6.97-1.06-.093-.361-.053-.445.051-.809a12 12 0 0 1 1.559-.07c1.228.03 4.454-.01 5.223 1.06.239.332.171.504.137.88M42.46 61.152l-.594.125c-.176.038-.353.082-.532.106-.399.054-.675-.041-.978-.29-.01-.289-.013-.345.175-.585.546-.692 1.379-.852 2.2-.97.413-.027.911-.078 1.317.022.314.077.439.193.599.46l-.101.331c-.654.683-1.197.69-2.087.801m9.417 57.118c.855-1.193 2.123-2.798 3.616-3.143.614-.141.995.07 1.599-.254l.11-.06c.036.022.07.05.109.069.204.099.337.087.556.1.707.043 2.003.433 2.463 1.02.186.236.221.44.19.728l-.187.06a5 5 0 0 1-.75-.502l-.145.099q.055.325.099.651c-.604.336-1.578.352-2.26.387l.151.308c-.603.738-.675.76-1.614.858l.047.078.4.01c-.041.297-.431.645-.615.896-.312.084-.577.07-.895.052-.191.194-.068.248-.178.406-.197.28-.509.162-.654.576l.168-.014c2.59-.192 5.196.103 7.79.051 4.081-.082 8.21-.573 12.262-1.05.774-.09 2.057-.39 2.698.143.174.144.142.22.179.426-.254.456-.615.6-1.103.73-1.253.336-2.717.34-4.013.471-3.448.348-6.89.733-10.361.773.787.98 1.808 1.978 1.67 3.34-.051.496-.2 1.016-.34 1.492-1.624-1.946-2.454-3.074-5.162-3.282-.617-.047-1.43-.072-1.926.358-.17.147-.124.197-.138.405.41.723 1.27 1.22 1.856 1.813 2.06 2.079 3.293 5.269 2.473 8.175-.253.9-.661 1.81-1.404 2.409l-.179.004c-.126-.897.329-1.8.176-2.692l-.169-.118-.165.296c-.253-.163-1.7-5.058-3.21-6.236l-.83-.972c.391 2.316.654 4.957-.76 7.01-.848 1.235-2.516 2.645-3.904 3.198l-.118-.058c.263-.908.85-1.711 1.25-2.569 1.196-2.576 2.128-5.683 2.095-8.546l-.691-1.132c-1.203 2.91-1.984 5.986-3.034 8.95-1.492 4.213-3.021 8.391-4.352 12.661-.555 1.78-1.205 3.632-1.518 5.473 3.664.02 5.992 3.426 9.79 2.916 4.004-.537 5.623-5.492 10.025-4.88 3.64.505 5.137 4.959 9.003 4.877 2.222-.047 3.815-1.908 6.012-2.16 2.64-.303 3.937 1.706 6.053 1.61 2.338-.107 4.816-1.193 7.145-1.636.924-.175 1.863-.342 2.8-.418 1.311-.106 2.635.044 3.948.012 1.938-.047 5.67-.836 7.401-.109-.875.164-3.107.052-3.712.627.128.304.38.63.702.748.17.063.235-.039.375-.124q.189-.415.364-.837c.476.172.859.63 1.365.63.188-.191.15-.187.186-.434.463.108.538.216.994.012l.356-.49c.468-.06 1.062.361 1.533.502.147-.19.147-.297.185-.528.555-.268 1.883-.119 2.536-.124l.121.109c.272.238.535.52.923.512.283-.005.491-.057.697-.249-.034-.261-.042-.306-.26-.482-.21-.17-.48-.276-.738-.351-.872-.256-1.802-.317-2.684-.544-1.307-.336-2.565-.827-3.863-1.186-3.147.875-5.276.64-8.364-.294-1.01-.306-2.021-.623-3.09-.578-2.297.095-5.413 1.911-7.576 1.95-.08-.402.386-.548.069-.852-1.487-.142-3.388.187-4.818.6 1.397-2.531 2.616-3.656 5.27-4.835.885-.393 1.793-.802 2.726-1.072 2.329-.675 8.497.174 11.318.216-1.547-1.7-3.109-3.415-4.723-5.052-3.353-3.4-5.838-5.346-5.592-10.553.238-5.047 5.281-14.856 9.093-18.274.913-.818 1.914-1.365 3.05-1.807.547-.213 1.203-.394 1.675-.749 1.222-.916 2.1-2.302 3.172-3.385 3.246-3.276 7.939-5.223 12.556-4.935 1.418.088 3.032.373 3.992 1.526.284.342.473.794.659 1.197-3.899-.236-6.71 1.001-9.631 3.586-1.954 1.729-3.827 4.288-4.513 6.831 1.12.604 2.07.794 3.348.812.605-.464 1.181-1.046 1.849-1.408 1.32-.717 2.657-.926 3.852-1.95.796-.681 3.405-3.907 3.745-4.05.45.598.204 1.887.104 2.603-.477 3.402-2.132 6.346-4.915 8.386-1.05.77-2.175 1.56-3.38 2.07-1.174.498-3.013.672-3.98 1.447-.789.633-1.39 2.448-1.962 3.352a19 19 0 0 1-2.289 2.943c-1.163 1.208-2.602 2.251-3.983 3.202-.73.502-2.116 1.09-2.648 1.756.575.732 2.795.954 3.697 1.117 1.862.337 3.667.958 5.391 1.734 1.044.47 3.47 2.125 4.404 2.221.661.068 1.29-.408 1.746-.835.65-.608 1.255-1.376 1.274-2.306.053-2.67-5.09-4.88-2.704-7.333 1.155-1.187 3.506-2.267 5.172-2.28.54-.004 1.117.12 1.508.519.357.362.501.9.458 1.4-.097 1.111-.938 2.002-1.74 2.69l-.158.139-.095.082c.146-.812.623-2.412.245-3.153-.912-.19-2.016.109-2.774.64-.436.305-.726.707-.807 1.238-.125.811.403 1.435.825 2.076.732.24 1.485.443 2.12.89q.09.061.177.123c1.388.998 2.932 3.466 4.803 3.263 1.072-.116 1.92-1.142 2.522-1.96.385-.521.956-1.546 1.643-1.657.46-.075 1.012.303 1.322.603 1.013.981 1.942 3.06 3.508 3.135 1.8.085 5.185-3.205 6.442-4.445.538-.529 1.165-1.277 1.127-2.081-.02-.437-.265-.803-.588-1.082-.453-.393-1.498-.963-2.105-.918-.188.014-.279.154-.412.273-.337.927.062 2.286.337 3.206-.93-.78-1.991-1.847-2.114-3.121a1.46 1.46 0 0 1 .344-1.131c.37-.428.94-.614 1.492-.63 1.8-.056 4.052 1.484 5.292 2.707.15.148.28.308.412.472l-.076.162c-.94 1.986-4.372 4.772-3.656 6.724.402 1.096 1.68 1.83 2.657 2.358 2.796-.933 5.553-1.961 8.361-2.865 1.34-.43 2.665-.938 4.067-1.118-.542-1.169-1.037-2.356-1.891-3.341-1.075-1.24-2.436-2.158-3.438-3.483-1.373-1.817-2.314-3.94-3.854-5.642l-.13-.04c-.81-.243-1.663-.305-2.462-.574-3.066-1.034-5.818-3.559-7.346-6.376-.852-1.57-2.145-5.165-1.598-6.934.058-.188.072-.194.16-.336.262-.048.177-.085.369.046.857.59 1.904 3.173 3.3 4.28 2.305 1.827 3.867.76 6.294 3.5.715.055 1.434.13 2.15.129l.215-.258c-.47-.82-1.201-1.473-1.686-2.303-2.326-3.978-3.482-7.725-8.504-9.086-.98-.266-2.421-.105-3.08-.306-.083-.025-.12-.126-.18-.19.087-.602.452-.85.924-1.201 2.389-1.782 5.978-1.675 8.775-1.224 4.325.699 7.701 2.709 10.334 6.202.885 1.175 1.708 2.555 2.741 3.596 1.11 1.117 2.437.924 3.57 2.496 3.726 5.174 7.909 13.44 6.814 19.893-.375 2.207-1.27 4.141-3.144 5.465-.883.623-1.91 1.109-2.71 1.835-3.344 3.036-3.327 4.82-8.203 6.036 2.56-.223 5.13-.073 7.69-.288 1.349-.113 2.814-.682 4.135-.638 2.227.073 9.422 1.83 11.168 3.244.165.134.255.274.358.457-.006.343.019.543-.225.82-.922 1.039-5.45.97-6.818.861-1.81-.144-3.574-.537-5.308-1.063-4.29.925-7.77 2.662-12.2.965-1.996.585-3.862 1.561-5.83 2.241l-.052.186c.335.418.852.953 1.43.978.27.012.385-.068.583-.231-.07-.256-.21-.384-.387-.573l.055-.159c.403.135.77.487 1.179.422.04-.18.066-.348.08-.532.269-.061.372-.047.641-.023.874.076 1.77-.058 2.644-.11 1.568-.094 3.154-.139 4.721-.01q4.524.386 9.007 1.108c1.587.259 3.157.69 4.759.837 1.601-1.23 4.06-1.66 6.041-1.41 2.496.317 4.378 2.163 6.94 2.305 4.43.244 6.779-4.558 11.02-4.54 4.53.017 6.616 6.023 10.645 5.572 2.119-.237 3.8-2.055 5.683-2.913.857-.39 1.718-.531 2.638-.687-.637-4.633-1.994-10.43-3.403-14.876-.84-2.652-1.889-5.235-2.675-7.905-.376-1.28-.738-4.293-1.529-5.233l-.146-.013c-.164.84-.575 4.634-.21 5.178.498.13.871.18 1.19.61.016.208.07.234-.085.4-.15.16-.237.191-.44.252a15 15 0 0 1-.605-.26c-.417.987 1.261 5.165.831 6.24-.732-.207-1.53-1.77-1.892-2.416-.279-.497-.515-.961-.687-1.506-.457-1.455-.959-2.955-.936-4.501.013-.912.718-1.505.306-2.411-.262.01-.901.498-1.076.733-.151.202-.11.188-.192.42-.089.25-.194.679-.425.804l-.262-.144c-.172.637-.37 1.27-.511 1.916l-.07.175c-1.117 1.15-1.186 5.426-2.089 6.935l-.202-.052c-.66-1.213-.913-3.488-.93-4.885-.035-2.773 1.25-6.641 3.9-8.01.641-.331 1.94-.481 2.406-.957-.131-.112-.131-.123-.308-.211-.88-.437-3.344-.257-4.272.024-.432.13-.914.351-1.118.778-.085.178-.16.326-.266.492l-.133-.06a4 4 0 0 0-.263-.674c-.82.38-1.254 1.832-1.844 2.52l-.201-.01c-.418-1.326-.189-2.813.065-4.149-4.059-.036-8.04-.939-12.088-1.062-.228-.144-.364-.227-.417-.522-.057-.318.051-.465.214-.71 1.494-.843 10.597 1.134 13.084 1.117 1.103-.007 1.873-.832 2.89-1.12.914-.26 2.045.001 3.018-.174l.131-.026.051.098-.051-.098q-.075-.066-.151-.129c-.5-.392-1.105-.293-1.686-.208-.268.04-.142.068-.37-.081.11-.15.054-.102.202-.202.234-.158.414-.233.517-.514l-.205-.211a3 3 0 0 1-.697-.083l.201-.312c-.128-.396-.662-.404-.988-.693l.102-.327c-.296-.25-.669-.316-1.04-.38-4.382-.752-8.903-1.062-13.324-1.514-4.045-.414-8.066-.971-12.106-1.421-1.338-.15-2.772-.124-4.082-.404-.363-.077-.682-.153-.931-.443.029-.18.058-.35.142-.514.182-.356.474-.598.863-.706.653-.182 1.499-.059 2.165.014 3.995.434 7.961 1.211 11.96 1.669l9.433 1.053c1.787.21 3.672.34 5.41.808.59.16 3.965 1.453 4.332 1.708.621.431 1.137 1.063 1.812 1.414.266.138.397.172.681.063-.025-.15-.053-.295-.062-.447-.022-.39 1.32-1.821 1.623-2.158.372-.414.791-.925 1.37-.954l.097.211c-.101.236-.17.395-.193.653-.093 1.065-.895 2.77-.444 3.753l.236.08c.646-.539 1.06-1.576 1.623-2.237.877-1.032 2.007-1.664 3.353-1.79-.693-2.78-1.69-5.496-2.517-8.241-2.441-8.112-3.742-16.003-1.445-24.334-3.284 3.267-4.91 7.532-5.441 12.085-.229 1.953-.308 3.872-1.111 5.696-1.47 3.338-4.043 5.421-7.37 6.719 1.072.017 1.994-.044 3.042-.245.628-.121 1.281-.235 1.922-.222 1.279.026 7.162.625 7.85 1.085.126.289.133.304.065.61-.183.178-.298.26-.548.334-1.376.405-5.408-.484-7.118-.611-1.392-.103-2.812.093-4.194-.033-.356-.032-.797-.09-1.102-.293-.262-.174-.432-.405-.47-.725-.045-.387 1.223-3.07 1.443-3.888.409-1.516.545-3.153.817-4.701.961-5.454 2.532-10.094 6.117-14.424-4.158 1.89-8.719 4.552-11.786 7.986-.828.928-2.064 3.105-2.84 3.708-.192-.195-.175-.293-.194-.556-.225-3.062 1.631-6.998 3.565-9.285 3.59-4.245 8.389-6.028 13.769-6.491q-1.267-.966-2.69-1.682c-3.79-1.879-8.857-1.892-12.524.311-.745.448-1.829 1.583-2.608 1.785-.122.032-.133.029-.23-.058-.4-.357-.432-1.121-.497-1.614-.655.017-1.456-.05-2.08.147.506.137 1.141.29 1.517.667-.163.23-.25.218-.516.275-1.367.295-11.336-.391-13.126-.699-.566-.097-1.12-.278-1.598-.597l-.03-.2c.414-.357 1.018-.442 1.544-.516 1.74-.245 3.635-.156 5.395-.206 3.05-.085 6.113-.243 9.164-.171.222-.558.473-1.11.784-1.624 1.514-2.5 4.309-4.299 7.126-4.958 3.666-.856 6.647.527 9.714 2.41-.614-1.296-1.333-2.61-2.133-3.8-3.079-4.572-7.52-4.994-12.48-6.045-.436-.092-.607-.19-.848-.56.131-.273.154-.277.446-.373 1.096-.36 2.657-.173 3.795-.135 3.627.118 9.77.242 12.92 1.933 3.269 1.757 4.539 5.876 5.56 9.185.342-1.745.652-3.614 1.393-5.238 1.198-2.626 4.013-3.66 6.536-4.618a75 75 0 0 1 1.834 6.466c-2.826 1.676-5.235 4.8-7.09 7.48 2.298-2.093 5.087-3.578 8.025-4.55q.597 2.235 1.327 4.43l-1.376.792c.549.182 1.118.296 1.68.425q1.689 5.924 3.513 11.808c-3.63-3.81-9.02-6.021-14.194-6.589 11.449 16.961 18.226 35.647 23.089 55.4-1.696 5.126-2.946 10.459-4.428 15.655q-4.311 15.155-8.807 30.256c-.492 1.67-2.145 8.507-2.902 9.614-.62.91-11.32 8.849-12.848 10.015-5.782 4.416-11.477 8.992-17.338 13.3-.322.237-.748.585-1.146.64-.048.008-.097.01-.145.017-2.727.368-5.707.215-8.407-.306-1.49-.287-2.958-.713-4.463-.916-3.4-.46-7.13-.575-10.57-.587-2.308-.008-4.668.037-6.96.321-2.858.354-5.615.967-8.51 1.079-2.295.089-4.62.19-6.913.037-1.893-.126-3.765-.47-5.65-.661-2.445-.248-5.02-.347-7.478-.353-5.591-.014-11.17 1.239-16.76 1.294-3.183.032-6.315-.566-9.454-1.005q-3.407-.455-6.84-.636c-3.63-.189-7.326-.37-10.956-.119-2.84.196-5.63.724-8.447 1.105-1.995.27-4.006.396-6.009.589-2.49-2.09-5.21-3.994-7.795-5.973l-13.395-10.262c-3.126-2.352-6.439-4.68-9.367-7.271-1.519-4.3-2.66-8.77-3.927-13.149l-6.873-23.536-4.006-13.477c-.504-1.716-1.636-4.666-1.686-6.327-.053-1.734 1.051-4.643 1.53-6.39q.896-3.148 1.876-6.27.979-3.123 2.041-6.218t2.205-6.161 2.368-6.101 2.53-6.036 2.687-5.967 2.846-5.893 3-5.816c-4.171.841-8.05 2.93-11.753 4.952 1.488-5.218 3.173-10.387 4.657-15.611 2.229 1.098 4.182 2.383 6.156 3.877-1.295-2.095-2.877-4.891-5.28-5.817.513-2.524 1.26-4.997 2.01-7.459 3.913 1.774 5.926 4.686 7.717 8.491a15.1 15.1 0 0 1 2.68-5.282c2.514-3.15 6.488-4.855 10.418-5.278 1.718-.185 7.84.018 8.994 1.23.241.254.241.333.245.66-.174.097-4.94.456-6.067.727-4.99 1.199-6.7 4.044-9.23 8.194 2.96-1.38 5.935-2.427 9.253-2.132 4.098.365 6.944 2.451 9.492 5.532 1.96-.199 6.257-.83 8.03-.504.406.074.886.217 1.125.575l-.14.216c-1.382.66-6.59.908-8.439 1.035.16.902.232 1.823.328 2.733-8.247-2.19-12.906-3.927-21.363-.57q1.476.06 2.941.243c4.637.581 10.317 2.6 13.247 6.453 2.399 3.153 3.22 7.261 2.694 11.123-2.363-4.233-7.126-8.81-11.454-11.04-1.258-.649-2.562-1.063-3.918-1.45 2.7 3.374 5.705 6.99 6.198 11.445.242 2.187.248 4.394.527 6.582.357 2.792 1.035 4.722.914 7.66-2.032-2.632-4.726-4.984-6.445-7.805-2.003-3.287-1.883-7.103-2.54-10.775-.287-1.6-.79-3.163-1.406-4.666-.58-1.416-1.104-2.484-2.574-3.097.306 2.089.641 4.178.696 6.292.23 8.888-2.518 17.897-5.035 26.317.583-.118 1.114-.257 1.718-.237 1.996.07 3.242 1.267 4.515 2.64m151.759-1.641.115.246.06.268.206.099c-.01-.208-.118-.232-.266-.367zm-104.004 2.008c.343-.153.47-.263.697-.546l.03-.17-.429.191-.077-.078c.184-.886.133-1.116-.232-1.924.38.37.807.897 1.274 1.141l.195-.093c.1-.425-.296-1.233-.109-1.504.555.292 1.087 1.038 1.619 1.202.023-.347-.09-.535-.224-.847.58.126.863.861 1.48.993.158-.54-.16-1.243-.418-1.725-.482-.902-1.294-1.929-2.313-2.241q-.084-.026-.17-.044-.085-.017-.172-.026-.087-.01-.175-.01t-.174.01q-.088.008-.174.026t-.169.043q-.083.027-.164.061-.08.034-.157.077c-1.49.83-4.161 5.82-5.031 7.482-.796 1.665-1.586 3.347-1.972 5.164.527.374.97.751 1.428 1.205.406-.516.871-1.339 1.575-1.422.448-.053.929.135 1.35.267l.289-.07c-.012-.281.043-.199-.153-.387-.197-.19-.31-.229-.566-.297-.433.109-.812.303-1.224.47-.348-.332-.777-.66-.966-1.111.283-.043.396-.006.671.054.292.064.465.123.75.003.189-.732-.867-2.294-1.205-3.017q1.041.724 2.09 1.436c.221-.23.32-.377.317-.711-.003-.508-.122-.984-.09-1.5.453-.404 1.337-.531 1.906-.791-.198-.337-.559-.7-.58-1.085.246-.131.19-.15.489-.09.206.041.398.063.609.068zm-7.347 9.064-.018.169zl.46-.062c.651.373.965 1.127 1.538 1.607.06-.333-.078-.549-.192-.861-.327-.845-.713-1.514-1.332-2.18zm11.472 40.682c-.062 1.672.278 2.696 1.165 4.099l.078.14-.078-.14c-.083-.74-.491-2.042-.347-2.731.148-.703.713-1.272.864-2.042l.023-.134c.343.487.662.982 1.1 1.39l.281-.27-.007-.31c-.194-.254-.437-.517-.528-.827-.054-.185.063-.29.148-.448.272-.05.177-.041.425-.056l.16-.007.168-.382c.269-.14.412-.214.571-.476l-.084-.195a1.1 1.1 0 0 0-.482-.049c-1.41.202-2.666 1.315-3.457 2.438m104.219-85.696c-.146 7.895 1.006 15.706 2.754 23.395 1.531 6.732 4.304 13.181 6.783 19.606q2.48 6.304 4.306 12.827c.825 2.982 1.724 5.976 2.417 8.99.323 1.402.878 6.708 1.503 7.492.222.016.369.014.581-.052.076-4.363.216-8.732.019-13.094q-.112-2.393-.319-4.78-.207-2.386-.507-4.762-.302-2.377-.697-4.74-.395-2.362-.884-4.708t-1.07-4.669-1.254-4.623-1.436-4.57-1.617-4.509c-1.263-3.27-2.8-6.428-4.238-9.623-1.524-3.389-3.085-6.672-4.93-9.902-.373-.653-.773-1.55-1.25-2.113-.049-.059-.107-.11-.161-.165m-161.771.163c-2.151 3.695-3.475 8.223-5.1 12.198-4.741 11.6-8.846 21.981-10.763 34.511-.823 5.371-1.145 10.846-1.372 16.272-.064 1.515-.397 7.585-.018 8.662.05.14.066.15.144.252.324-.058.258-.072.433-.323 1.222-5.225 2.148-10.448 3.81-15.568 1.634-5.028 3.65-9.868 5.494-14.815 3.045-8.166 5.701-16.425 7.271-25.012.68-3.723 1.278-7.558 1.07-11.353-.076-1.376-.08-3.403-.8-4.611-.07-.117-.088-.127-.17-.213m92.328 19.01c.32.346.628.717 1.145.706.45-.009 1.175-.377 1.564-.022.19.175.307.396.437.616 1.893.998 1.62.072 2.413 2.429l.85-1.417c.267.767.466 1.832 1.09 2.376.345.071.36.069.662-.147.124-.089.24-.19.356-.288.19.742.243 1.414.941 1.853.205.004.404.002.61-.007.121.247.208.448.276.714.085.337.29.566.507.828.376.224.753.516 1.21.429.141-.297.106-.462-.009-.772-1.046-2.83-5.502-5.492-8.164-6.558-1.151-.461-2.64-.88-3.887-.74m-23.247.425c.502.455.865.599 1.547.58l.134-.008c-.14-.337-.14-.46-.515-.58-.307-.097-.842-.013-1.166.008m-2.358.82c-.92.532-1.172 1.161-2.295 1.154-.293.199-.332.215-.463.54l.134.086.228-.117c.2.017.8.139.935.013.165-.154.206-.372.273-.58.477-.215 1.288-.456 1.604-.852l-.099-.229zm-3.774 2.22c-.466.323-1.174.773-1.312 1.365l.216.033.14-.145.21-.084a5 5 0 0 1 .59-.184c.297-.078.504-.19.766-.35.07-.156-.032-.317-.081-.477zm-1.981 1.748c-.36.38-.69.745-.978 1.184.665.412 1.106.67 1.91.684l.098-.134c-.307-.297-.64-.459-1.02-.649l-.154-.083c.376-.45 2.257-.678 2.927-.931-.927-.07-1.855-.067-2.783-.072m-1.214 1.498c-.254.248-.629.514-.716.854l.495.267-.05.182c-.52.085-.592-.225-1.048.15-.136.352-.147.361.016.718.062.138.136.27.207.403l-.035.19-.465-.207-.12.083c.09.482.162.767.587 1.06l.183.121.508.117c.248-.187.202-.374.244-.672.058-.406.07-.803.068-1.213.418-.291 1.02-.31 1.35-.687l-.003-.236-.382-.116a2.6 2.6 0 0 1-.08-.64c-.26-.275-.401-.278-.759-.374m14.877 2.157c-1.178 1.384-1.955 2.561-3.878 2.767-.016.075-.05.153-.035.229 1.118.14 1.747-.161 2.623-.868.462-.372 1.297-1.305 1.317-1.934.002-.066-.018-.13-.027-.194m13.887.213c.947 1.681 1.907 2.611 3.701 3.335.505.203.78.25 1.31.15l.206-.036.124-.029-.023-.204c-.843-.495-1.93-.434-2.751-.972-.922-.604-1.614-1.796-2.567-2.245m20.534 1.62c-.29.365-.441.478-.495.95.211.677.892 1.009 1.45 1.374.272-.263.522-.482.544-.888a1.2 1.2 0 0 0-.333-.908c-.328-.34-.704-.476-1.166-.529m-2.166 1.064c-2.106.733-3.755 2.094-4.728 4.128-.449.938-1.045 4.366-.696 5.32.06.164.066.158.155.276.36-.001.417-.124.686-.35.028-.205-.007-.225-.08-.412-.208-.532-.091-.947.145-1.45.08-.17.073-.153.152-.287.149-.203.12-.093.112-.304-.026-.752.046-1.23.58-1.798.409-.437 1.194-.996 1.334-1.562l-.222-.314c.507-.43.919.305 1.41-.589-.088-.321-.148-.332-.415-.541l.083-.117c.484.076 1.204.344 1.66.175.067-.376-.338-.544-.078-.787.468.099.967.265 1.439.138.25-.265.239-.359.305-.724-.1-.302-.127-.464-.448-.606-.377-.166-.986-.158-1.394-.195m3.921 1.481-.168.325c.188.57.547.985.91 1.452.233-.358.38-.833.254-1.26-.059-.201-.194-.329-.337-.47a2.6 2.6 0 0 0-.659-.047m53.212.992c-.48.29-.959.566-1.395.92.03.184.066.222.177.366-.517.599-1.319 1.161-1.619 1.892l.038.182c.245.029.372.019.603-.069 1.147-.332 2.214-.303 3.398-.267-.27-.822-.545-2.318-1.083-2.969zm-164.538.203c-.838 1.058-1.171 2.248-1.561 3.517 1.291-.311 2.405-.534 3.741-.344.706.09 1.411.187 2.12.248-.8-.44-1.776-.864-2.486-1.436-.69-.556-.958-1.658-1.814-1.985M153.93 117.6c-.917.491-1.33 1.008-1.886 1.852.5-.218 1.03-.522 1.582-.52.278.13.393.172.534.465.047.1.097.286.13.397l.018.177q.773-.644 1.526-1.31c-.42-.493-.82-1.02-1.518-1.074-.143-.011-.247.002-.386.013m-53.26.833c-.129.393-.16.552-.06.954.176.175.235.277.509.23.054-.01.105-.037.157-.056.195-.308.3-.407.302-.779-.25-.281-.558-.29-.909-.35m55.355.511c-.391.497-.862 1.19-.724 1.87.04.196.062.23.132.398.079.042.21.129.295.148.388-.256.604-.372.708-.858.094-.435-.008-.993-.262-1.36a2 2 0 0 0-.15-.197m-2.465.518c-.24.278-.499.545-.68.868l.046.118c.242-.053.497-.131.745-.14a7.3 7.3 0 0 1-1.276.558c-.06.02-.115.053-.173.08l.074.238c.455.083 1.018.11 1.396-.213.267-.229.258-.392.285-.714a5 5 0 0 0-.417-.795m-54.015.624c-.207.382-.532.835-.5 1.277.267.323.448.29.851.372l.183-.125c.046-.55-.166-1.074-.509-1.498zm55.31 1.711c-.5.312-.768.67-.99 1.218l.097.126.115.01.111-.178c.154-.233.306-.28.549-.39.161-.072.252-.17.365-.302l.028-.292c-.09-.075-.164-.15-.275-.192m1.163.314c-.324.575-.636 1.161-.98 1.724.173.22.38.62.654.67.03-.328-.002-.583-.055-.904.051.01.103.018.154.034.244.073.353.197.529.371.184-.152.106-.042.161-.307.1-.478.597-.971.516-1.428-.345-.177-.606-.166-.98-.16m-57.958.355c-.323.61-.765 1.207-.564 1.923.151.107.298.214.457.307.212-.12.4-.145.47-.393.147-.523.042-1.293-.273-1.737-.026-.037-.06-.067-.09-.1m113.129.117c-1.357.079-2.963.022-4.234.523l-.154.19c1.075.763 2.095 1.462 3.07 2.366.913.847 4.374 4.927 4.544 6.09.027.187.01.145-.097.311-1.064-.104-7.306-6.672-9.105-7.854.847 3.278 2.748 6.262 4.124 9.344 1.653 3.705 2.955 7.508 4.234 11.353.846 2.914 1.702 5.826 2.37 8.787.63 2.787 1.077 5.614 1.711 8.399q.156-2.2.214-4.405t.017-4.41q-.042-2.206-.181-4.407-.14-2.2-.379-4.394-.238-2.192-.575-4.372t-.77-4.342q-.434-2.163-.964-4.304-.53-2.14-1.156-4.256c-.276-.94-.878-3.639-1.447-4.228-.317-.329-.743-.358-1.183-.4-.013-.002-.026.006-.039.009m-53.83-.046c-.036.762-.312 1.725-.196 2.455l.181.055.165-.117c.304-.424.629-.856.59-1.409-.024-.34-.216-.614-.477-.816-.112-.087-.157-.108-.262-.168m-109.635.245-.154.047c-1.492.442-3.24.115-4.727.654-.572 1.129-.863 2.576-1.244 3.795q-1.047 3.425-1.873 6.91-.828 3.486-1.431 7.016-.604 3.531-.983 7.093-.378 3.562-.53 7.14c-.03.789-.28 2.813.086 3.475.036.065.087.121.13.182.271-.154.32-.42.395-.713.292-1.15.457-2.343.737-3.5q1.045-4.475 2.627-8.789c2.249-5.826 4.862-11.395 7.54-17.025.72-1.511 1.224-3.176 2.168-4.562q.036-.053.07-.108c-1.687.678-3.581 1.616-4.642 3.169-.363.53-.56 1.224-1.058 1.637-.034-.059-.063-.12-.1-.177-.026-.039-.058-.073-.087-.11-.382.425-.389 1.037-.722 1.485-.273.368-.746.625-1.083.936-.477.44-.68.924-.998 1.467l-.198-.114c-.209-1.689.698-3.772 1.727-5.077.965-1.223 4.436-3.176 4.369-4.724-.002-.036-.012-.071-.019-.107m-3.327.156h.118zm109.54.548c-.36.29-1.095.71-1.243 1.13l.201.252.099-.072c.358-.257.983-.451 1.214-.803-.053-.26-.095-.304-.272-.507m48.138.674.08.108zm-46.193.773c-.281.502-.642 1.016-.72 1.592.248.175.123.119.363.191.405-.332.554-.452.648-.997.027-.153.01-.319 0-.472zm45.607.25-.178.175.15.125.19-.172zm-42.83.133c-.536.406-.722 1.164-.813 1.809.195.11.11.1.236.102.379-.357.753-.653.941-1.153-.036-.303-.035-.449-.258-.68-.03-.031-.071-.052-.107-.078m-66.082 3.993c-.128.299-.23.43-.097.757.081.198.338.439.49.589.137-.333.229-.536.157-.905-.18-.221-.282-.336-.55-.441m-49.179 1.129h.103zm110.982 3.68q-3.264 1.41-6.639 2.528c-1.513.508-3.067.87-4.505 1.575a17 17 0 0 0 2.138 1.532c-.286-.458-.584-.859-.652-1.406l.128-.221c.584-.109 1.286.467 1.753.786.537.367 1.02.664 1.618.928-.51-.555-.988-1.076-1.384-1.72l-.108-.171-.062-.104c.356.156 1.16.635 1.507.53a2 2 0 0 0-.183-.62l-.225-.469c.527-.065 2.44 1.197 3.269 1.44-.394-.58-.805-1.154-1.181-1.745 1.153.254 2.18.749 3.232 1.271-.318-.494-.897-1.149-.938-1.718.472-.148.889.107 1.305.325.546.285 1.078.602 1.627.877l-.98-1.927c.948.415 1.851.97 2.806 1.35-.626-.633-1.981-2.716-2.526-3.041m-56.123.108c-.885.743-1.746 1.528-2.664 2.228.81-.293 1.523-.703 2.266-1.134-.566.536-1.159 1.066-1.677 1.649a43 43 0 0 0 3.057-1.395l-.742 1.388c.612-.358 1.196-.732 1.88-.935l.174.058c-.112.389-.397.8-.352 1.194l.226.077c.517-.31.812-1.006 1.348-1.212.366.231.104.498.521.542l.158-.09c.292-.163.551-.369.899-.33.185.206.207.221.24.494-.222.302-.764.795-.745 1.142.377-.009.865-.606 1.26-.76l.167-.064c.387-.145.668-.275 1.082-.21.236.369-.208.601.097.96.4-.009.568-.24.834-.518.228-.241.088-.168.403-.228.46.455.06.575.86.752l.104.411c.337.073.424-.237.805-.139.74.19 1.328 1.297 2.104.814-.114-.328-3.234-2.118-3.865-2.418-2.581-1.228-5.692-1.506-8.44-2.276m-45.584.337h.093zm76.265 1.987c-1.516.162-2.994-.044-4.486.083-2.583.219-10.182 1.459-11.766 3.339-.189.225-.179.336-.201.617.155.29.152.334.447.47.13-.026.503-.15.612-.126.069.014.293.189.328.183.08-.016.125-.106.188-.157.812-.656 1.856-1.021 2.809-1.424.179.04.572.185.737.166.392-.046 1.392-.548 1.728-.746.142-.084.258-.195.378-.306.157.163.211.25.307.446.162-.104.629-.568.762-.537.27.064.516.299.734.465.43-.108.297-.472.798-.512l.26.22c.43-.124.306-.565.729-.53.11.131.276.421.45.429.224.009.161-.007.38-.117.524-.263 1.796-.046 2.463-.138 1.29-.017 2.515.123 3.794.179.093.004.52.017.597-.018.192-.09.182-.41.431-.292.142.067.149.075.251.174q.136.135.265.277c.28.049.25.098.508-.066l.112-.457c.237-.063.142-.083.345.027.314.17.785.866 1.091.805.11-.142.264-.445.45-.45.855-.026 1.639.858 2.466.83.055-.301-.186-.53.018-.69.935.684 2.692 2.178 3.853 2.172.224-.255.077-.539.344-.669.088.32.126.593.347.849l.14-.019c.175-.231.332-.44.325-.746-.01-.454-.421-.83-.763-1.075-2.587-1.85-9.145-3.131-12.231-2.656m.884 4.144c-3.067.125-12.115-.606-14.08 1.485q-.068.073-.132.15l.035.18c.742.19 1.487.058 2.234-.043q3.311-.478 6.65-.675c2.522-.168 5.177-.196 7.634-.812l.048-.114c-.598-.371-1.699-.21-2.389-.17m7.325 1.099c.786.697 3.344 1.153 4.407 1.091-1.119-1.146-2.915-1.037-4.407-1.091m-23.281.224-.13.059c-.828.363-2.76.693-3.186 1.472.072.268.091.323.281.522.505-.22.608-.315 1.155-.112q.055.02.109.043.266-.335.54-.662c.358.005.642.173.957.324.428-.34 1.09-.743 1.354-1.22l-.114-.233a2 2 0 0 0-.49-.067c-.195 0-.302-.048-.476-.126m23.742 2.257c.326.587.957.743 1.573.919q.405.118.82.194t.834.11.843.022q.42-.01.839-.064c-.102-.263-.106-.36-.375-.49-.97-.468-3.434-.683-4.534-.69m-14.56.152c-1.867.14-4.333.092-6.03.97l.003.165c1.879.401 6.497-.25 8.694-.305.943 0 5.772.174 6.223-.152-.012-.173.032-.175-.096-.26-.817-.54-7.456-.559-8.794-.418m-10.952.87c-.479.029-1.087-.013-1.495.26l-.174.276.09.203c.757.249 1.73.042 2.513-.063.596-.076 1.17-.146 1.75-.311l-.027-.136c-.936-.272-1.697-.264-2.657-.23m-21.283.356c-.98.189-2.884.425-3.498 1.231.005.342.075.364.297.632.355.08.544-.122.846-.314.466-.297.88-.565 1.39-.785.3.008.511-.057.7.222.057.085.133.29.174.39l.209.055.05-.184c.05-.177.105-.337.176-.506.637-.005.88 1.047 1.555.444.089-.29.119-.323.022-.606-.34-.181-.61-.16-.981-.163-.255-.003-.145.003-.434-.044-.199-.221-.206-.298-.506-.372m2.705.17c-.087.352-.166.423.015.75.362.107.678.111 1.05.112.043-.376.07-.403-.125-.721-.348-.138-.573-.144-.94-.14m53.742.042a4.2 4.2 0 0 0-1.126.897c-.03.357.057.622.302.893.201.223.261.27.543.319l.168-.169c-.098-.387-.346-.657-.586-.965.28-.043.306-.006.561.09.379.14.604.136.994.12.111-.005.223-.004.335-.006.122-.284.068-.326.368-.453.448.161 1.283.753 1.709.685.112-.234.117-.26.082-.519-.806-.745-2.333-.559-3.35-.892m15.79.002c-.032.425-.126.762.059 1.152.229.02.45.034.68.038.193.005.29.025.465.1.102-.366.257-.708.098-1.076-.403-.27-.828-.238-1.303-.214m-65.764.112-.176.184a4 4 0 0 1-.61.508l-.038.178c.383.152.736.147 1.14.156.322-.227.55-.317.704-.686-.19-.247-.253-.249-.559-.313-.14-.03-.32-.023-.461-.027m1.67.126c.096.364.145.554.407.84.36.191.602.184.993.17-.058-.334-.122-.505-.324-.78-.378-.235-.636-.233-1.075-.23m1.474.005c.241.333.614 1.029 1.009 1.146.239-.133.401-.279.595-.472.35.093.595.458.942.316.154-.064.328-.23.462-.335.74-.125 1.13.58 1.775.573.332-.004.34-.477.727-.425.118.22.243.44.353.665.423-.06.838-.088 1.22-.292l-.026-.143c-1.66-.738-5.181-1.024-7.057-1.033m60.315.052-.324.4c.139.249.26.347.474.529.198-.316.278-.332.203-.69zm1.457-.005c-.208.258-.305.254-.274.6.127.069.266.161.401.21l.38-.508-.072-.176zm3.394.004c-.181.29-.326.371-.248.721.152.091.305.192.464.27.175-.3.305-.381.237-.738-.147-.085-.298-.184-.453-.253m-12.28.238c.416.374.653.723 1.23.759l.37.253.225-.226c-.033-.272-.035-.315-.273-.487-.457-.329-1.015-.333-1.552-.3m1.873-.053c.378.45.617.764 1.23.859-.312-.397-.55-.8-1.095-.855-.045-.005-.09-.003-.135-.004m1.694.093c.262.299.457.583.863.68l.465-.093c-.177-.352-.18-.418-.523-.599zm-5.365.103c.112.255.112.326.381.44.416.175.925.244 1.367.342-.128-.345-.19-.605-.523-.806-.419-.084-.804-.024-1.225.024m6.938-.051c.185.346.373.624.779.728.295.076.538.063.774-.135.065-.055.162-.163.223-.23l.005-.175c-.15.014-.299.062-.45.054-.055-.004-.38-.125-.417-.138-.356-.123-.548-.173-.915-.104m9.284.28.015.284.207-.12-.015-.205zm-77.854-.02-.634.405-.049.233.296.311c.316-.157.456-.193.655-.492-.08-.251-.056-.275-.268-.457m46.938.303-.187.192.055.213c1.032.498 3.125.192 4.284.166l.16-.217-.06-.211c-1.122-.49-3.046-.231-4.252-.143m-26.297.388c-.306.254-.532.435-.7.808.028.218-.018.237.163.382.31-.245.725-.475.819-.879a.8.8 0 0 0-.282-.311m11.29.223c-.484.125-.96.22-1.389.49.22.244.571.236.887.257 2.543.164 5.159-.18 7.717-.13.5.002.833-.013 1.292-.22l.06-.148c-1.855-.586-6.522-.379-8.567-.249m-7.514.157c-.73.023-1.365-.042-1.95.47.139.265.203.263.477.356.502.172 1.178.02 1.7-.034.696-.064 1.377-.082 2.018-.38l.147-.202c-.599-.49-1.664-.266-2.392-.21m20.805 1.85c-.375.049-.697.018-.993.264.556.52 3.196.42 3.948.444.302-.006.714.064.953-.12-.1-.268-.017-.193-.268-.31-.961-.452-2.587-.317-3.64-.278m-19.386.757c-.523.009-1.028-.054-1.464.273l-.061.217c.557.346 1.693.115 2.335.053.6-.045 1.16-.066 1.73-.279l.024-.061-.326-.117.145.242c-.131-.178-.113-.242-.342-.276-.694-.107-1.344-.085-2.041-.052m8 .129c-.815.022-1.645.005-2.445.176l-.102.128c1.57.694 4.145.4 5.86.365.687-.028 1.368-.007 2.012-.273l.115-.17c-.926-.554-4.21-.254-5.44-.226m9.473 1.839c-.249.084-.562.115-.696.344.69.239 1.642.146 2.374.125l.608-.15.038-.14c-.708-.241-1.587-.263-2.324-.179m18.21.254c.13.33.254.48.579.645.317.162.72.278 1.072.322l.088-.373c-.268-.392-.806-.498-1.248-.573a2 2 0 0 0-.491-.021m-51.653.028c-.27.243-.434.305-.441.691-.006.308.153.619.366.825l.263.023c.243-.208.26-.474.321-.771.354-.12.746-.2 1.01-.478l-.02-.17c-.64.085-.97.28-1.5-.12m48.265.225c.426.332.734.59 1.307.513.33-.045.66-.145.98-.236v-.159c-.675-.246-1.578-.163-2.287-.118m-50.232.026c.08.388.07.604.353.89.192.01.343.016.534-.014-.036-.369-.024-.466-.243-.758a2.4 2.4 0 0 0-.644-.118m55.984.18c.221.283.413.552.788.635.199.044.443.027.647.025-.205-.279-.393-.578-.756-.655-.206-.044-.469-.018-.679-.006m-57.27.066c-.235.333-.406.483-.43.895.15.173.252.234.466.317.265-.26.336-.294.41-.651-.128-.259-.212-.39-.447-.56m58.806.08c.2.279.338.535.686.637.25-.03.424-.067.65-.18-.076-.205-.045-.264-.255-.366-.314-.151-.741-.098-1.081-.092m-61.225.14c-.266.182-.318.174-.401.48.227.148.343.218.635.173.165-.024.382-.161.532-.24l.484-.235-.004-.14a7 7 0 0 0-1.246-.039m63.682.04c.16.33.275.659.642.805.05.02.101.033.151.05-.04-.33-.02-.431-.23-.68zm-14.367.342-.02.196.222.048.032-.206zm15.93-.031c.155.38.179.44.507.68.203.028.41.066.616.077.038-.344.064-.348-.13-.628-.348-.13-.63-.131-.994-.13m-67.843.144c.257.288.318.41.696.518l.508-.129c-.241-.28-.293-.398-.68-.44-.152-.017-.38.032-.524.052m-1.62.062c-.181.296-.227.33-.207.672.368.281.757.275 1.21.288l.17-.225c-.046-.312-.064-.386-.354-.569-.25-.156-.536-.158-.819-.166m71.469.08c.162.284.284.466.614.561.173.05.405.038.585.04-.047-.168-.039-.316-.2-.413-.284-.171-.674-.16-.999-.187m30.226.115-.188.09c-3.687 1.79-7.108 5.778-11.602 4.234-2.396-.822-6.15-4.752-8.689-3.629l-.023.188c.549.665 1.285 1.183 1.941 1.74 1.364 1.156 2.643 2.513 3.527 4.077 1.228.309 2.41.778 3.633 1.077 2.537.62 4.987-.743 7.093-2.005 1.641-.983 3.42-2.36 5.35-2.628 4.438 1.585 8.004 7.372 13.157 4.904 3.368-1.613 2.846-1.929 6.762-2.513-.083-.97-.009-3.254-.693-3.916-.567-.168-1.195.18-1.687.443-2.712 1.453-4.797 4.176-8.246 3.203-3.75-1.056-6.112-5.767-10.335-5.265m-130.393.136c-1.762.63-2.94 1.851-4.447 2.897-2.389 1.657-5.387 1.893-8.013.67-2.133-.993-3.77-2.31-6.145-2.754q-.475 1.98-.62 4.011c4.792.208 7.849 3.293 12.895 1.895 2.002-.554 3.485-2.098 5.45-2.65 6.147-1.093 6.502 3.196 11.573 3.028 2.378-.079 4.62-1.175 6.915-1.728.157-.6.272-1.192.628-1.709.264-.383.506-.682.581-1.15-.125-.236-.145-.308-.417-.397-.564-.184-1.394-.167-1.988-.164-2.273 1.497-4.36 2.944-7.26 2.33-3.458-.734-5.33-4.787-9.152-4.279m27.797.141c-.751.121-5.716 1.495-6.296 1.776-.747.363-1.621 1.038-2.111 1.723-.543.76-1 2.087-.876 3.023l.205.076c.82-.791.81-1.784 1.468-2.614.184-.274.262-.474.563-.627.046.259.077.512.1.774.51-.292.75-1 .901-1.535l.15.037c.105.28.094.444.371.586.32-.09.329-.069.504-.345l-.042-.671.07-.073.118.198c.12.2.251.374.402.553.291-.012.162.042.378-.183l-.008-.197a7 7 0 0 1 .002-.55l.146-.122c.218.148.42.301.621.47.234-.056.171.007.283-.186.19-.328.212-.709.52-.929.193.118.386.248.581.361.206.118.4.188.64.138.131-.027.26-.099.378-.157.122-.276.042-.472-.02-.754l.121-.163c.513.21.288.51.962.526l.234-.184c.034-.345.039-.469-.17-.772-.055-.079-.122-.123-.195-.179m74.258-.089c.215.193.476.542.764.54l.075-.341c-.253-.225-.51-.173-.84-.199m3.015.602h.169zm1.921.371-.141.387c.114.24.243.314.465.454l.117-.529c-.139-.181-.228-.232-.44-.312m-51.752.188c-2.105.941-5.993.544-8.356.57-.936.01-1.46.794-2.365.471-.242-.087-.391-.16-.643-.05-.353.152-.679.397-1.062.474-1.404.282-5.442-.3-7.494-.144-2.424.184-4.546.906-6.791 1.789-3.246 1.276-6.758 2.766-7.959 6.39-.095.288-.169.543-.053.838l.182.043c.23-.466-.215-.81.376-1.025 1.907-.696 6.875-.234 8.757.503l.948-1.763c.286-.474.566-.95.883-1.404-1.233-.233-2.577-.622-3.83-.497-.589.058-1.234.165-1.814.036l-.184-.165.038-.268c.407-.226.857-.298 1.308-.4 1.982-.445 3.271-.093 5.174.4l.1-.072c.855-.633 1.59-1.415 2.447-2.043 1.421-1.042 3.646-.792 5.34-1.082.32.308.663.73 1.094.865l.109-.095-.234-.624c.091-.172.081-.246.28-.316q.061-.022.124-.038.064-.017.129-.026.064-.01.13-.013.065-.003.13 0 .066.004.13.013.065.01.128.027.063.016.125.039.061.022.12.05c.321.157.294.48.658.632.334-.295.264-.666.538-.967l.84.236c.28.08.601.183.894.126.59-.115 2.986-1.649 3.27-.953.023.055.064.298.077.365.271.092.31.063.59-.017.338-.374.587-.824 1.087-.974l.302.148c.096.378-.237.742-.045 1.005.386-.312.745-.95 1.179-1.08.206.224.32.454.46.722l.22.08c.615-.36 1.161-.801 1.72-1.24.225.326.504.866.88 1.002.303-.206.588-.426.875-.655.148.07.294.135.447.196.118-.238.122-.386.114-.65-.293-.298-.959-.398-1.373-.459m52.908.066c-.284.328-.45.545-.56.968l.044.201c.09.03.196.084.29.069q.285-.494.597-.97l-.049-.186zm-30.155.162c-.09.394-.19.695-.036 1.088l.249.163.498-.43c.344.102.486.375.685.651.341.109.58.078.924.03.223-.178.443-.347.68-.507.108-.33.145-.33.003-.642-.818-.386-2.082-.21-3.003-.353m4.263.085c-.14.36-.237.496-.05.873.255.514.897.79 1.423.905.082-.38-.007-.68-.204-1.008-.218-.365-.572-.676-.996-.75q-.086-.013-.173-.02m1.48.09c.285.227.392.4.784.357.032-.004.258-.07.282-.076 1.256-.322 7.147 1.61 8.577 1.992 1.286.343 2.887.356 4.04 1.04 3.024 1.796 5.078 5.918 5.827 9.224.38 1.676.716 3.645-.215 5.223-.147.25-.236.315-.481.446-.588-.144-.823-.677-1.121-1.168-1.056-1.742-2.521-5.205-4.101-6.291-.515-.354-1.1-.493-1.697-.644q-.184-.047-.369-.091c-1.075-1.096-1.763-2.406-2.977-3.391-1.143.377-2.151.657-3.376.513-1.891-.221-3.447-1.326-5.252-1.795-2.167-.563-4.259-.177-6.371-1.216-.56-.275-1.127-.736-1.779-.558.271.492 2.842 1.362 3.73 2.277 2.015.404 6.954 2.692 8.596 3.891.471.345.827.766 1.186 1.223 1.277-.601 3.704-1.61 5.07-1.218l.163.172c-.13.355-.376.512-.714.673-1.223.58-2.86.763-4.196.996.468.964.819 1.92 1.077 2.96 1.678-.298 7.07-1.473 8.465-.67.031.019.058.045.087.067-.127.283-.285.421-.572.54-.706.296-6.615 1.065-7.956 1.29-.12 1.06-.227 2.119-.431 3.167 2.162-.418 4.516-.758 6.721-.754 2.616.005 5.356.338 8.004.417 2.894.086 5.858-.012 8.736.308 2.887.322 5.016 2.205 8.079 1.48 3.197-.758 7.32-4.284 9.937-4.053 1.161.102 2.242.712 3.193 1.352 2.349 1.582 4.983 4.157 8.07 3.58 3.34-.626 4.294-3.026 8.55-3.022.1-1.103.226-2.209.296-3.314-4.999-.814-5.968 3.36-10.687 2.736-3.547-.469-7.183-5.047-9.824-4.994-3.051.062-6.451 4.636-11.374 4.365-1.913-.106-3.846-.903-5.7-1.38-2.036-.362-4.04-.32-6.101-.315-.938.002-1.93.086-2.854-.1-.382-.078-.602-.163-.86-.47l-.121-.39.116-.187c1.755-.406 8.277-.035 10.152.363 2.143.455 4.142 1.42 6.387 1.198 3.869-.382 8.07-4.613 10.842-4.327 1.054.109 2.064.686 2.946 1.243 2.646 1.673 5.094 4.408 8.536 3.616 3.416-.787 3.714-3.144 8.49-2.865-.012-1.074-.007-2.151-.036-3.225-5.031-.698-6.134 3.183-10.175 2.73-3.989-.447-7.971-5.723-10.845-5.024-3.572.869-8.68 6.508-12.966 3.227l-.055-.198c.846-.52 3.133.09 4.371-.277 2.911-.862 7.65-4.709 10.456-4.02 4.516 1.109 6.738 7.485 12.762 4.01 2.656-1.534 3.248-1.92 6.46-1.913l-.058-3.496c-.834-.007-1.613-.007-2.423.231-2.996.88-4.331 3.14-7.994 2.679-3.787-.477-6.19-4.295-9.72-5.411l-.168.057c-3.659 1.281-7.3 5.13-11.41 4.653-1.34-.156-2.583-.826-3.889-1.141.33 1.55 1.157 4.221.276 5.638-.282.18-.331.254-.676.157-1.48-.418-5.071-5.418-6.317-6.751-1.142-1.221-2.421-2.091-3.428-3.477q-2.495-.2-4.998-.215c-2.112.003-4.214.108-6.322-.088-3.635-.338-6.926-2.078-10.656-1.566m25.669.372c-.082.531-.202 1.073-.159 1.61l.099.101.11-.174c.21-.416.471-.762.44-1.234a3 3 0 0 0-.49-.303m-24.85.153c-.15.329-.245.585-.283.952l.163.085c.298-.099.573-.195.885-.246l.286.185.161.162.075-.323c-.291-.43-.823-.59-1.287-.815m2.035.883c-.177.282-.324.48-.323.826l.12.15c.33.023.452.013.746-.125q.087-.038.175-.073l.105.1.656-.187-.01-.364.165.076c-.5-.27-1.08-.302-1.633-.403m24.276.12c-.195.348-.368.518-.326.922l.369.343c.209-.278.302-.394.322-.755-.1-.236-.153-.36-.365-.51m-21.294.567c-.263.214-.58.374-.679.702l.153.203c.313-.137.482-.171.685-.451-.034-.196-.04-.29-.16-.454m.984.058c-.24.304-.465.477-.493.869.344.218.729.234 1.124.287l.262-.006c.05-.275.029-.448-.126-.693-.197-.308-.383-.372-.726-.452zm1.64.493-.246.482.08.202c.543.213 1.097.338 1.654.508.222-.148.302-.134.38-.4-.399-.5-1.256-.634-1.869-.792m19.58.233c-.043.41-.062.703.057 1.1.13.14.145.193.334.25.14-.337.224-.506.168-.88-.176-.266-.257-.36-.559-.47m-72.344.14c-.254.222-.513.345-.571.687.172.124.255.175.464.24.224-.275.446-.405.41-.77zm-38.97.493c-2.818.463-4.806 2.622-7.615 3.16-4.68.898-7.74-1.977-12.261-2.083a35 35 0 0 0-.313 3.474c1.37.065 2.722.123 4.06.453 1.29.319 2.507.886 3.767 1.3 3.387 1.114 6.195.07 9.081-1.711 1.736-.921 3.468-1.511 5.443-.926 1.366.404 2.53 1.3 3.783 1.95 3.41 1.773 7.295.673 10.608-.809.055-1.01.09-2.012-.013-3.021l-.187.044c-4.129 1-6.638 2.788-10.909.218-1.906-1.147-3.053-2.212-5.444-2.05m36.442-.04c-.678.314-1.779.654-2.045 1.43-.049.143-.064.269-.087.415-.277.184-.548.169-.868.182-.228.23-.225.244-.269.566.133.227.178.39.46.446.06.011.122.005.183.007.375-.246 1.131-.631 1.273-1.063.062-.187.064-.43.076-.627.18-.234.054-.137.327-.234.51-.181 1.014-.655 1.444-.984l-.038-.139c-.162-.011-.296-.023-.456.001m21.55-.034c-.422.285-.853.588-1.332.769-1.039.394-2.194.537-3.273.793-1.632.387-3.206.99-4.897 1.097-1.127.072-2.297-.192-3.41-.055-1.276.157-2.433.802-3.686 1.031-1.007.185-1.898.032-2.9.004-1.53.89-2.137 1.717-2.75 3.387q2.195.124 4.394.198l1.052.775c-2.067.319-4.07.31-6.152.158-.376 1.006-.74 2.007-1.225 2.968 1.153.092 4.227.036 5.012.846q.037.042.073.087c-.823.657-2.454.519-3.467.407q-1.214-.126-2.395-.432c-.27.453-.548.902-.796 1.367l-.96 1.723c3.629.192 7.225.832 10.816 1.358-.794-2.263-2.495-5.145-1.404-7.578 1.31-2.923 9.64-4.967 12.69-6.328l.167.042c-.054.395-.156.603.045.957.329.046.32.043.6-.136l.094-.285-.09-.164a1.7 1.7 0 0 1-.175-.455c.199-.175.32-.228.577-.288.012.22.007.42-.007.64.262.23.302.186.658.183.18-.115.28-.114.33-.336.052-.235.013-.377-.042-.605l.045-.137c.683-.076.536.519 1.483.233.861-.26 1.592-.135 2.466-.022-.47-.514-1.334-1.208-1.319-1.923l.009-.163zm36.652.112c.08.364.07.503.344.767.247-.017.43-.034.67-.106-.252-.389-.355-.54-.834-.634q-.09-.015-.18-.027m1.27.393c.305.429.609.854 1.081 1.109-.083-.388-.113-.73-.423-1.009a1.34 1.34 0 0 0-.657-.1m-21.468.268c-.237.243-.469.429-.527.78.246.368.526.404.95.496.388-.166.395-.13.552-.514-.103-.341-.157-.387-.421-.631zm20.29.321c.017.345-.03.446.197.701l.482.127c.007-.194.077-.387-.066-.539-.177-.189-.372-.218-.613-.288m-58.202.506h.153zm39.313.217c.368.31.513.394 1.013.346q.08-.008.16-.02c-.44-.335-.589-.405-1.173-.326m20.708-.078c-.298.257-.478.32-.548.715l.289.526c.205-.342.431-.637.432-1.05zm1.183.739c-.093.174-.306.442-.246.637.113.372.556.668.812.955.175-.25.276-.398.242-.728-.031-.303-.266-.608-.518-.766-.1-.062-.182-.074-.29-.099m-19.647.296c-.147.307-.262.369-.144.709.31.094.54.114.858.116l.082-.372c-.233-.283-.457-.322-.796-.453m-45.125.355c-.49.182-1.225.593-1.474 1.072-.14.268-.181.548-.063.833a.84.84 0 0 0 .553.506c.272.081.366.073.626-.003.076-.142.143-.257.18-.416l-.31-.41c.212-.144.374-.183.618-.259.556-.174.908-.328 1.25-.814l-.105-.176q-.085.038-.17.073a4 4 0 0 1-.546.182 1.5 1.5 0 0 1-.3-.496zm19.098.067c-.245.328-.275.336-.267.74.18.244.317.391.576.553.183-.326.34-.56.319-.95-.22-.257-.295-.251-.628-.343m19.105.086c-2.524 1.43-6.039 1.57-8.806.8-.653-.181-1.293-.41-1.931-.638-1.056 1.682-1.923 2.817-3.779 3.681-.572.267-1.206.478-1.744.806-1.938 1.182-1.68 1.576-4.244 2.165-1.207.278-2.427.506-3.642.742.6 1.836.977 4.97 1.675 6.451q.073-.073.15-.144c.635-.572 2.803-.522 3.698-.663 1.516-.239 3.014-.627 4.519-.93 3.502-.704 7.142-1.079 10.709-.72l.132.022c5.044.502 9.862 1.999 14.981 1.794.095-2.055.802-3.935 1.027-5.971-.53.02-1.08.058-1.604-.046-1.702-.339-6.64-3.293-7.054-3.22l-.067.349c-1.21.506-8.008-.758-9.975-.738 3.103-1.036 5.828-.869 8.987-.013-.628-.72-2.342-3.475-3.032-3.727m8.22.095c.079.376.066.581.416.82.609.417 1.494-.126 1.888.661l-.022.516c.198.21.401.388.714.393.26.005.552-.096.804-.165l.035-.224c-.705-.699-2.878-1.99-3.835-2m-29.116.822c-.29.388-.358.474-.428.973.095.149.095.242.28.274.215.038.144.023.4-.049.287-.282.436-.375.541-.77-.215-.273-.454-.345-.793-.428m49.409.26c-.169 1.465.189 1.318.898 2.51.172-.555.255-.925-.027-1.456-.206-.388-.573-.733-.871-1.053m-99.322.374c-3.241.346-5.306 2.945-8.579 3.255-3.367.317-5.042-.915-8.108-1.69-1.32-.334-2.642-.387-3.996-.359q-.059 1.621-.05 3.243c1.402.021 2.766.072 4.128.431 2.617.69 4.732 1.95 7.557 1.81 3.691-.183 6.243-3.267 9.983-2.95 3.076.261 4.762 2.684 8.166 2.792q.43.017.862-.01.43-.027.856-.097t.843-.182.82-.265c.914-.35 2.583-1.804 3.412-1.66-.24.621-1.396 1.337-1.942 1.739l.184-.02c1.361-.148 2.687-.509 4.032-.75q.927-.172 1.863-.278t1.878-.144 1.883-.01 1.88.124c.9.088 2.254.046 2.941.67.135.32.137.373.088.717-1.025.351-2.683-.149-3.796-.19a38 38 0 0 0-2.86.014c-2.843.112-5.592.82-8.388 1.284-.378.767-.592 1.42-.329 2.278.088.285.23.455.449.649 1.757-.05 3.579-.544 5.34-.722 3.538-.356 7.194-.165 10.713.318-.68-2.741-1.254-5.029-1.01-7.873-2.058-.275-4.124-.524-6.206-.444-1.41.055-2.85.302-4.257.277q-1.242 1.137-2.392 2.368c-.045-.95.047-1.888.126-2.835-2.758 1.372-6.374 2.2-9.38 1.212-2.488-.818-3.922-2.53-6.711-2.702m48.566.054c-.306.183-.51.23-.643.567.154.25.3.411.522.603.342-.276.424-.331.59-.757-.108-.249-.116-.297-.385-.397-.026-.01-.056-.01-.084-.016m-1.702.714c-.312.2-.6.303-.757.646.156.242.294.335.54.48.302-.213.597-.365.71-.737-.171-.256-.207-.268-.493-.39m-16.202.12c-.416.64-.714 1.07-.71 1.866l.113.162c.51-.155.616-.275.887-.726l-.103-.309q.328.164.657.324c.26-.137.25-.17.369-.445-.095-.319-.262-.51-.551-.673-.205-.116-.433-.166-.663-.2m68.012.13h.152zm-15.044.014c-.292.423-.457.584-.413 1.113.517.212 1.545-.267 1.769.13.036.063.05.136.077.203.104.27.2.383.387.597.052.737.072 1.477.293 2.187l.166.088c.316-.267.616-.626 1.028-.681l.619.278.364-.062c.092-.314.08-.316-.046-.62-.353-.245-.541-.267-.964-.183-.157.032-.314.072-.47.111l-.203-.1c-.073-.367.057-.606.182-.942.082-.222.055-.124.086-.363-.662-.83-1.84-1.511-2.875-1.756m-84.485 4.07-.174.039c-2.225.523-3.904 2.21-6.185 2.667-4.016.802-5.785-.532-9.396-1.499-1.32-.354-2.746-.463-4.108-.45-.007 1.098-.021 2.186.094 3.28 1.393.04 2.703.11 4.056.482 4.158 1.145 6.013 2.814 10.49 1.245 3.095-1.245 5.462-3.318 8.996-1.809.989.423 1.915.999 2.891 1.455 2.427 1.135 4.71.727 7.17.006-.152-1.326-.212-2.134.4-3.35-3.357.876-5.783 1.161-8.894-.658-1.91-1.116-3.093-1.578-5.34-1.409m44.698.318c-.326.233-.633.407-.794.791.07.247.006.164.138.284.334-.232.648-.403.811-.794-.094-.244-.026-.161-.156-.28m44.078-.025c-.354.214-.83.43-1.055.78l.059.097c.178.302.245.453.212.817l-.56.327.026.105.396.049c.271-.216.451-.374.642-.67q.048.05.097.096c.161.147.1.097.338.177.238-.284.299-.522.273-.894-.02-.309-.05-.56-.238-.815zm-2.354 1.12-.12.38c.124.219.248.358.43.529l.121-.664c-.174-.221-.176-.18-.431-.245m-41.51.853c-.23.333-.386.562-.444.975l.156.203.377-.03c.236-.321.4-.46.434-.863-.183-.183-.269-.238-.524-.285m41.664.178c-.209.315-.413.477-.37.861l.12.105c.184-.32.356-.501.343-.874zm44.144 1.675c-3.484 1.139-6.105 3.907-9.921 4.358-2.334.275-4.492-1.225-6.751-1.612-3.591-.613-7.468-.298-11.113-.488-1.774-.092-3.602-.549-5.357-.515-2.186.042-5.889.518-7.96 1.198-1.628 2.985-3.163 4.542-6.393 5.74q-.066-.012-.133-.022c-.2-.026-.123-.023-.337.015l-.643 1.717c-.138-.788-.264-1.58-.444-2.36-2.015.04-3.956-.026-5.957-.305-3.446-.48-6.882-1.344-10.377-1.328-1.578.007-3.176.165-4.74.388-1.671.238-8.838 1.907-9.965.92-.034-.298-.053-.32.099-.575 1.395-.422 3.067-.39 4.53-.665 3.613-.679 7.239-1.513 10.943-1.329 3.415.17 6.757 1.014 10.14 1.453 1.834.237 3.743.1 5.537.561.184-1.337.446-2.333 1.035-3.545-3.651.808-7.6-.42-11.225-1.024-2.374-.395-4.814-.685-7.222-.647-2.047.033-4.12.297-6.136.656-2.92.521-6.184 1.714-9.145.921.461 1.253.94 2.475 1.128 3.802l.071.492c-.185.453-.368.906-.577 1.35-.393-.374-.612-.887-1.038-1.217-2.139-1.659-3.648-1.628-5.352-4.233-7.056-1.169-14.781-2.483-21.955-2.01-2.347.155-4.675.586-6.995.958.073 1.053.152 2.099.293 3.146 8.712-2.231 17.842-.445 26.578.673 1.799.23 4.454.058 6.034.969l.183.112.035.169c-1.584.988-8.175-.258-10.236-.577-5.486-.848-11.299-1.255-16.844-.881-1.275.086-2.577.205-3.826.48-2.867.633-5.84 1.949-8.811 1.246-2.214-.523-3.998-2.221-6.289-2.396-2.45-.187-3.939 1.135-6.032 1.994-1.204.494-2.515.709-3.81.754-3.6.125-4.805-1.148-7.969-1.944-1.095-.276-2.163-.31-3.287-.296.13 1.107.22 2.236.425 3.331 7.307.705 8.84 4.514 16.683.555 1.88-.832 3.883-1.322 5.892-.55 1.433.552 2.674 1.456 4.187 1.826 3.469.847 6.891-.869 10.235-1.532 2.082-.414 4.138-.531 6.254-.518q5.88.092 11.71.879c3.907.508 7.723 1.148 11.677 1.145 2.574-.002 5.205-.11 7.758-.45 3.35-.445 6.575-1.14 9.983-1.115 5.888.043 11.616 1.779 17.543 1.539 4.691-.19 9.238-1.679 13.932-1.565 2.845.07 5.685.344 8.53.442 2.582.089 5.345-.093 7.887.334 2.372.398 4.554 1.81 6.942 1.996 1.34.103 2.692-.257 3.913-.785 2.715-1.174 5.518-3.937 8.695-2.752 4.118 1.536 6.453 6.359 11.517 4.163 1.305-.566 2.529-1.27 3.887-1.71q.985-2.132 1.59-4.401c-4.018 1.226-6.748 4.575-11.231 2.193-2.556-1.358-5.411-4.918-8.559-3.906-2.895.93-5.39 3.294-8.463 3.736-2.637.38-6.363-1.786-9.653-1.981-2.579-.153-5.168-.076-7.75-.19-3.14-.138-6.306-.54-9.448-.319q-2.303.17-4.572.604c-1.155.219-2.327.527-3.5.61.37-.354.746-.734 1.192-.992 2.382-1.374 6.482-1.586 9.191-1.518 3.035.075 6.069.419 9.104.528 2.269.082 4.583-.118 6.838.157 2.621.32 5.413 1.98 7.962 1.857 3.596-.172 7.206-4.118 10.477-4.022 4.105.12 6.665 5.631 11.087 4.956 2.612-.4 4.948-2.594 8.015-3.31l.665-3.239c-4.013.207-6.067 3.224-9.908 2.95-4.013-.286-6.95-5.144-10.452-5.049m-130.723.755c-2.212.62-4.015 2.134-6.232 2.651-4.462 1.042-6.241-.803-10.166-1.764-1.134-.277-2.239-.325-3.403-.329q.104 1.701.19 3.404c1.057-.017 2.045-.019 3.082.197 1.365.284 2.646.867 3.949 1.35 2.366.875 5.035.89 7.45.202l.158-.062c3.092-1.245 5.135-3.167 8.743-1.698 1.029.418 1.954 1.052 2.97 1.494 2.452 1.064 5.123.541 7.554-.284-.096-1.031-.157-2.081-.312-3.105-1.644.322-3.276.663-4.961.497-3.748-.37-4.832-2.962-9.022-2.553m130.499 9.125-.168.037c-3.205.747-5.555 3.595-8.96 3.82-3.013.198-5.708-1.769-8.645-2.193-2.661-.384-5.478-.202-8.167-.288-2.688-.087-5.382-.366-8.07-.373-4.187-.012-8.14 1.418-12.302 1.592-3.368.141-6.683-.099-10.023-.537-2.98-.391-5.939-.942-8.954-.962-3.207-.02-6.278.627-9.437 1.054a61 61 0 0 1-8.558.538c-3.898-.029-7.745-.727-11.6-1.216-3.999-.508-8.106-.8-12.137-.756q-1.821.008-3.627.24-1.806.233-3.57.686c-1.878.468-3.709 1.117-5.653 1.25-4.657.32-5.669-2.117-8.798-2.335-2.402-.168-4.253 1.175-6.4 1.962-1.227.45-2.537.655-3.84.697-3.702.117-6.865-1.835-10.477-2.329.16 1.273.328 2.427.814 3.619 1.124.476 2.308.808 3.474 1.166 3.77 1.156 6.896 1.506 10.63-.023 2.562-1.048 4.586-1.886 7.398-1.224l.178.063c1.115.402 2.113 1.037 3.21 1.457 1.88.72 4.492.516 6.33-.292 2.285-1.005 3.936-2.499 6.585-2.591 1.989-.07 4.059.251 6.034.459q4.757.495 9.504 1.08c1.389.173 2.855.584 4.247.589 2.252.008 4.553-.237 6.817-.282 2.959-.059 5.933.074 8.884-.036 1.685-.064 3.382-.331 5.065-.328 1.743.004 3.512.247 5.256.335q5.369.268 10.744.223c4.045-.058 8.117-.12 12.157-.33 2.72-.14 5.447-.452 8.17-.505 2.96-.057 5.95.16 8.916.195 2.409.028 6.42-.193 8.584.598q1.045.379 2.055.843c-.764-.135-2.118-.548-2.821-.097.03.336.147.441.413.649 1.705 1.333 3.921 2.324 6.11 1.994.722-.109 1.411-.315 2.1-.552l.04-.136-.567-.326c1.23-.444 2.462-.888 3.65-1.439 1.662-.77 3.517-2.096 5.327-2.362 1.028-.151 2.124.166 3.048.602 4.844 2.287 4.786 5.016 11.085 3.889q1.606-2.456 2.798-5.137c-2.381 1.328-4.54 2.556-7.391 1.778-3.404-.93-5.823-4.972-9.458-4.766m-.36 4.714c-.742.356-3.074 1.285-3.39 1.963l.279.095c.413.064.846.184 1.224-.05.43-.265.718-.803 1.078-1.158.279-.275.666-.5.977-.745-.053-.038-.103-.092-.167-.106m-129.217.811c-1.063.114-2.015.312-3.017.694l3.804.028c.981.01 1.976.052 2.954-.016-1.241-.483-2.39-.821-3.741-.706m98.536-.029-.456.189.067.123c1.007.143 2.07.067 3.086.055l.237-.069c-.752-.43-2.099-.383-2.934-.298m44.011 3.916c-.73.034-1.642-.016-2.328.231.063.236.16.224.362.344.486.159 1.02.394 1.525.169.248-.112.375-.299.536-.506-.05-.218.007-.155-.095-.238m-112.81 2.774c-.084.343-.25.637-.017.956.118.162.365.317.525.44-.257 3.363-.262 7.665-.794 10.853-.01.054-.015.107-.024.16-.08.438-.502.732-.822 1.006l-.074.246c.194.273.24.27.586.322 1.203.183 2.508.153 3.729.21-.19-.904-.644-1.013-.708-1.582-.18-1.595.234-3.478.368-5.088.166-2 .19-4.07.503-6.048.347-.22.678-.37.828-.776-.121-.272-.033-.211-.273-.314-.976-.42-2.729-.238-3.826-.385m66.472.078c-1.056.451-1.895 1.043-2.32 2.16-.424 1.115-.394 2.507.107 3.592 1.186 2.572 6.442 3.289 5.566 5.594-.195.514-.719 1.125-1.23 1.34-.606.256-1.329.13-1.91-.138-1.037-.478-1.564-1.465-2.096-2.415.06.81-.039 3.255.654 3.769.581.43 1.706.285 2.397.286 1.424-.133 2.824-.335 3.8-1.51.695-.834.85-1.9.719-2.95-.152-1.222-.523-2.27-1.518-3.048-1.405-1.099-4.123-1.555-4.365-3.663-.031-.274.025-.564.21-.777.352-.405.945-.525 1.457-.49 1.138.077 1.89.751 2.706 1.47-.08-.833-.04-2.43-.713-2.99-.614-.511-2.705-.334-3.464-.23m-56.455.509c-1.13.145-2.17.421-2.888 1.385-.668.898-.868 2.24-.666 3.323.656 3.523 6.356 4.737 4.623 7.414q-.053.083-.115.16-.062.076-.132.145-.07.07-.146.131-.078.061-.16.114-.084.053-.173.096t-.18.076-.19.057-.193.036c-.543.072-1.09-.046-1.519-.395-1.003-.817-1.303-2.478-1.856-3.609-.185 1.632-.228 3.242-.232 4.883 1.035.123 2.077.278 3.119.334 1.063.019 1.938-.141 2.736-.897.91-.86 1.503-2.374 1.53-3.617.022-1.066-.407-2.052-1.142-2.815-1.117-1.159-3.946-1.933-4.023-3.745-.017-.38.093-.832.36-1.115.32-.34 1.021-.57 1.481-.566.733.005 1.278.326 1.78.849.338.351.517.761.715 1.199l.434.94q.11-2.115.189-4.231c-1.349.638-1.977-.103-3.352-.152m6.057.24c.003.37-.063.53.23.805.134.124.322.225.476.324.281.52-.142 10.803-.326 11.896-.237.262-.625.533-.633.882.612.477 6.88.377 8.17.428l-.047-2.077c-.075-.32-.104-.677-.361-.902-.27.048-.16-.017-.322.169-.63.725-1.415 1.288-2.405 1.374-.572.05-1.17.012-1.743-.002q.112-3.524.26-7.046c.063-1.534.059-3.143.319-4.657.385-.238.677-.329.867-.746-.185-.266-.332-.312-.651-.371-1.182-.22-2.63-.106-3.834-.078m39.58.149c-1.41.029-3.054-.123-4.416.145l-.148.258c.149.35.435.53.725.758.381 1.548.532 9.566.524 11.499-.334.255-.585.415-.723.833.054.17.028.247.209.328.966.437 3.871-.054 5.045-.146 1.475-.131 2.71-.518 3.695-1.691 1.362-1.624 1.517-4.004 1.285-6.027-.206-1.798-.901-3.818-2.344-4.994-1.13-.922-2.458-1.007-3.852-.963m-25.311.034c-.795 2.72-1.494 5.473-2.224 8.213-.356 1.34-.638 2.839-1.19 4.111-.22.508-.458.82-.891 1.163l-.072.3c.302.385.635.467 1.111.531.602.081 1.123.082 1.699-.114l.154-.207c-.169-.499-.582-.678-1.02-.927.132-.637.253-1.27.458-1.888l4.003.004c.287.064.338.078.508.342.323.5.247 1.012.106 1.55-.097.374-.297.843-.212 1.221 1.026.223 2.858.373 3.838-.065l.137-.242c-.128-.394-.33-.49-.643-.751-.821-2.393-1.483-4.833-2.183-7.263-.569-1.974-1.195-3.953-1.663-5.953zm15.098.055c.08.563.469.887.839 1.287.284 2.554.18 5.119.42 7.665-1.734-2.968-3.546-6.206-5.78-8.83-.684.036-1.798-.054-2.368.3-.044.279-.037.294.135.512.184.232.484.392.732.55.028 3.44.238 6.879.373 10.316.011.276.102.81.042 1.055-.142.58-.944.703-.498 1.36.546.124 2.159.195 2.611-.114.059-.04.108-.093.162-.139-.327-.395-.663-.569-1.115-.8-.132-2.828-.461-5.796-.337-8.619q2.96 4.748 5.829 9.552c.634-.04 1.27-.092 1.905-.119-.02-2.4-.862-11.458-.402-12.857.326-.293.583-.439.652-.89-.13-.186-.051-.156-.216-.184-.935-.16-2.03-.078-2.984-.044"/><path d="M126.282 76.98c.53-1.14.898-2.374 1.418-3.53.546.414 1.282 2.637 1.608 3.373 1.172.178 2.37.24 3.55.348-.776.903-1.726 1.67-2.638 2.431.198.815.944 2.781.71 3.519l-.236.06c-.964-.351-1.871-1.012-2.753-1.538-.644.08-2.426 1.407-3.147 1.769.181-1.283.543-2.561.84-3.822-1.018-.737-2.024-1.477-2.996-2.276 1.192-.205 2.438-.24 3.644-.333M76.281 82.44c-.148.009-.313.027-.461.008-.382-.051-.496-.16-.735-.448.007-.193-.025-.249.106-.412.418-.519 1.252-.67 1.875-.76 1.352-.196 2.751-.207 4.114-.296 3.127-.205 6.266-.323 9.388-.572 3.55-.282 7.036-1.029 10.583-1.282.248-.001.546.005.78.095.313.12.484.28.635.563l-.131.236c-2.212 1.41-15.189 1.98-18.523 2.224-2.546.186-5.083.474-7.631.644m85.057-.114c-1.894-.125-12.29-.524-13.151-1.504-.138-.157-.078-.21-.05-.396.329-.269.638-.314 1.042-.395 2.938-.135 9.669.152 12.251.927.405.122.682.242.89.615-.17.397-.605.583-.982.753m6.912 4.369q.84-2.264 1.942-4.414c.036.01.074.016.11.03.728.28 1.498 3.384 1.796 4.171 1.725.275 3.506.084 5.22.434l-3.955 3.368c.413 1.652.964 3.274 1.393 4.926-1.45-.683-2.797-1.617-4.144-2.478l-.294-.123c-1.076.085-3.123 1.723-4.196 2.268l-.156.078c.355-1.558.8-3.106 1.201-4.653-.571-.552-3.498-2.8-3.63-3.311l.17-.185c1.354-.406 3.133-.159 4.542-.11m-72.024.544c.765-1.52 1.243-3.163 2.058-4.664.573.485 1.57 3.774 1.973 4.67 1.7.282 3.453.34 5.166.577-1.133 1.197-2.636 2.155-3.974 3.116.357 1.728.85 3.426 1.213 5.155-1.429-.858-2.793-1.811-4.167-2.754-.924.144-3.476 2.043-4.63 2.571.357-1.728.929-3.455 1.38-5.165-1.214-1.148-2.67-2.017-3.888-3.183 1.616-.213 3.242-.264 4.869-.323M70.85 89.752c3.278-.001 6.58-.035 9.846-.325.96-.119 2.15-.148 3.102.037.546.106 1.044.232 1.367.7l-.129.234c-1.096.65-7.587.721-9.381.824-1.492.046-2.987.028-4.479.03zm-1.268 16.688c-.814-.053-2.162.038-2.791-.539-.047-.294-.047-.271.127-.514a3.1 3.1 0 0 1 1.166-.346c2.525-.25 5.139-.12 7.679-.267 5.684-.33 11.375-.847 17.047-1.348.348-.058.843-.079 1.19-.014.459.086.98.264 1.253.645-.068.29-.126.328-.34.543-1.934.526-5.38.558-7.498.73-5.905.483-11.904 1.15-17.833 1.11m119.418.205c-4.26-.036-8.558-.847-12.803-1.176-1.02-.08-2.276.242-3.234.076-.273-.047-.33-.177-.505-.362l.01-.303c.484-.611 1.146-.785 1.875-.978 1.468-.07 3.043.193 4.505.35l7.222.788c1.12.12 2.565.07 3.632.386.41.12.85.31 1.056.7l-.095.238c-.57.412-.998.365-1.663.281m-124.719 8.174-.045.005c-.939.06-3.461.422-4.149-.304-.128-.135-.06-.231-.038-.398.386-.374.833-.52 1.358-.613 1.389-.245 2.942-.153 4.36-.258q6.012-.502 12.037-.824c1.096-.106 3.387-.307 4.264.372.163.126.114.1.137.32-.243.268-.48.36-.83.422-1.983.355-4.151.347-6.163.486zm-6.98-.159c.254-.417.528-.662 1.02-.768.347-.075.718-.036 1.069-.012l-.188.28c-.668.112-1.281.21-1.901.5m178.912 13.783a7 7 0 0 1-.171.635c-.38-.437-2.958-13.285-3.181-14.867.534 1.204.855 2.556 1.256 3.812q1.419 4.412 2.76 8.849c-.246.51-.449 1.046-.664 1.571M19.498 130.33c-.184-.91-.545-2.069-.447-2.999.213-2.028 3.351-10.639 4.265-12.86.089 1.251-3.06 14.433-3.68 15.93zM57.2 114.812l.101-.151zm42.431 3.825c-.003-.063-.025-.22-.004-.275.021.245.044.156.004.275m94.587 11.422c-.284.058-.59.127-.88.088-.887-.119-1.765-.343-2.657-.458-3.903-.506-7.849-.843-11.763-1.266-1.964-.212-6.546-.448-8.212-1.04-.325-.115-.47-.18-.62-.49.324-.419.724-.481 1.212-.614 2.212-.093 4.56.28 6.767.507 4.889.504 9.776 1.093 14.617 1.93.717.125 1.521.065 2.215.29.276.089.284.089.425.355-.038.1-.052.157-.13.245-.27.298-.596.379-.974.453m-124.198-.214c-.325.058-.701.15-1.03.106-.367-.05-.846-.269-1.048-.583l.082-.184c1.921-1.266 16.626-2.53 19.447-2.757.34-.027.685-.065 1.016.041q.054.017.106.04.051.023.1.051t.094.061q.046.033.088.07t.08.08.07.087.062.094.051.1l-.106.195c-1.276.66-16.541 2.271-19.013 2.599m-14.993-1.374c-.055-.107-.015-.249-.006-.368l.088.196zm7.693 1.664c-.642.053-1.495.218-2.104-.017-.297-.115-.37-.114-.507-.41.026-.04.047-.084.078-.12.69-.826 2.074-.752 3.035-.784.76-.055 1.792-.087 2.492.256.264.13.28.15.362.415-.072.114-.072.13-.192.23-.708.598-2.284.435-3.164.43m136.097-.183c.228-.333.466-.678.904-.73.37-.043.445.027.742.22.15.325.168.36.115.71-.27.212-.327.25-.688.24-.253-.007-.546-.091-.798-.132-.218-.034-.133-.013-.344-.133zM62.668 133.53c-.58.077-1.559.326-2.065.005-.013-.333.012-.487.169-.782.742-.658 2.39-.493 3.36-.577.834-.123 1.536-.151 2.248.355l-.082.339c-.823.575-2.663.578-3.63.66m61.874 3.528.062-.18zm-.138.048.138-.048zm83.695 5.558c-1.632.295-5.302-.18-7.232-.269q-5.686-.256-11.378-.305c-1.185-.015-4.873.213-5.738-.347-.195-.362-.153-.6-.106-.99 2.983-.105 22.405-.338 24.192 1.17.294.249.26.391.262.74m-130.733.795c-1.498.327-26.094-.472-26.671-.686-.328-.122-.339-.233-.461-.531.048-.42.139-.54.402-.846 4.945-.037 9.921.256 14.864.411 3.513.11 7.09.03 10.59.3.493.038 1.11.062 1.544.316.25.146.25.203.32.465-.142.281-.338.393-.588.57m64.213 13.554c-.55-.02-.78-.137-1.166-.507q.07-.005.14-.005c.502.008.695.175 1.025.512m-34.877.646-.105-.038zm11.918 3.123-.091-.004.003-.11.084-.015zm51.511 1.337c-1.84.106-7.127.123-8.582-.864-.084-.324-.001-.487.085-.806 2.554.497 5.183.371 7.74.74.396.057.607.064.853.376zm-5.927 4.441-.378-1.42c1.975.352 4.066.467 6.071.505 1.25.024 2.656-.099 3.877.154.266.261.244.416.31.775-3.23.552-6.622-.052-9.88-.014m-34.446 4.476c-2.476-.396-4.98-.293-7.46.01q-2.025.245-4.025.644c-2.154.442-6.465 1.874-8.508.772-.284-.154-.31-.227-.381-.512.697-.637 3.09-.314 4.095-.466 1.585-.24 3.156-.687 4.727-1.01q3.147-.647 6.349-.922.687-.06 1.376-.078c5.014-.096 9.966 1.486 14.926 2.055.633.073 3.596.065 3.91.367-.02.284-.055.49-.29.681-1.307 1.058-12.428-1.175-14.719-1.54m20.222 36.701a3.1 3.1 0 0 1-1.075.717c-.538.218-1.146.452-1.708.2-.612-.826-.756-9.501-.723-11.03.739.026 1.46.049 2.11.447 1.054.644 1.572 1.735 1.862 2.895.543 2.177.709 4.782-.466 6.77m-29.455-1.122c.501-2.119 1.123-4.357 1.865-6.402.85 1.535 1.359 4.6 1.781 6.364l-1.635.036zm-47.972 13.974q3.104-.652 6.249-1.067 3.144-.416 6.312-.59c4.76-.215 9.83.197 14.55.818 3.241.426 6.57 1.076 9.838 1.144 4.382.09 8.88-.668 13.26-.977 1.304-.092 2.813-.338 4.1-.175.325.041.515.057.73.32l-.286-.066.01.202-.055-.055c-2.156.202-4.346.079-6.513.23-2.046.142-4.078.585-6.091.963-5.535 1.133-9.719.173-15.133-.559q-3.819-.489-7.667-.602c-2.886-.067-5.82-.015-8.698.226-3.248.271-6.468.729-9.723.951zm80.17.68c-6.983 1.156-12.565-.187-19.382-.766-.928-.078-4.396-.093-5-.441l.064-.169c1.677-.718 9.657.52 11.988.729q1.6.13 3.206.118c2.67-.017 5.411-.169 8.056-.55 2.387-.345 4.644-.868 7.067-1.01 3.835-.344 10.594-.024 14.496.495 3.143.419 6.241 1.012 9.4 1.37l-1.243 1.013c-1.452-.311-2.953-.427-4.422-.638-7.977-1.149-16.277-1.769-24.23-.15m-75.618 2.829c2.637-.29 5.215-.748 7.87-.92 4.156-.364 10.391.05 14.59.624 2.813.384 5.814 1.145 8.65 1.02 3.476-.151 6.863-.87 10.306-1.279 1.855-.22 3.737-.257 5.603-.28 1.066-.014 2.246-.12 3.272.2.191.302.25.577.324.92-.244.147-7.007.217-8.195.364-1.02.079-2.082.328-3.098.492-2.83.46-5.78.976-8.653.973-1.717-.001-3.425-.352-5.113-.63-2.096-.345-4.186-.67-6.302-.854q-2.973-.253-5.957-.287-2.983-.035-5.962.149c-2.017.141-4.016.455-6.034.584-.457-.323-.876-.712-1.3-1.076m68.051 1.952c-3.536-.096-6.943-.718-10.44-1.132-2.01-.238-4.044-.273-6.06-.448l-.133-.221c.005-.379-.026-.442.197-.74 1.344-.516 10.6.789 12.673.985q2.739.27 5.491.29c3.157.015 6.063-.651 9.162-1.055 1.656-.216 3.33-.245 4.997-.296 5.704-.004 11.198.362 16.828 1.29-.44.4-.926.728-1.412 1.069-6.518-.998-13.066-1.542-19.653-.89-1.71.17-3.388.59-5.086.845-2.178.327-4.368.375-6.564.302m-63.481 1.618c1.347-.05 2.699-.156 4.046-.238 4.29-.236 8.926.042 13.18.69 2.963.453 6.048 1.273 9.048 1.249 3.9-.032 7.711-1.128 11.549-1.651 1.514-.207 3.025-.222 4.55-.217 1.139.004 2.282-.007 3.403.207.069.072.155.151.191.247.115.303.059.486-.04.77-.593.355-3.154.078-3.95.059-5.322-.022-10.463 1.977-15.798 1.925-3.157-.03-6.292-1.135-9.404-1.605-4.982-.751-9.962-.5-14.96-.134-.647-.37-1.225-.849-1.815-1.302m90.533 1.468-.228.213c-.776.272-2.573-.157-3.479-.23q-3.85-.325-7.71-.165c-1.266.05-2.545.105-3.798.295-3.665.556-7.124 1.646-10.886 1.579-3.861-.069-7.447-1.139-11.233-1.605-1.978-.243-4.16.038-6.09-.42-.261-.323-.222-.732-.243-1.13 2.236.053 4.546.046 6.763.34 3.819.507 7.586 1.472 11.458 1.444 3.441-.026 6.638-.965 10.014-1.42 2.081-.28 14.642-.537 15.944.452-.034.344-.26.429-.512.647m-83.55 3.77c-.52-.355-1.364-.81-1.672-1.351 3.457-.245 8.67.07 12.03.73 2.831.556 5.621 1.518 8.526 1.59 3.217.08 6.328-.647 9.445-1.342 1.678-.374 3.35-.785 5.077-.826.948-.023 5.233-.128 5.753.366.072.358.108.603.028.969l-.208.085c-2.213.006-4.573-.234-6.76.082-4.435.64-8.33 2.292-12.96 2.233-2.883-.036-5.63-1.068-8.41-1.72-3.667-.86-7.103-.975-10.849-.816m40.145.306.03-1.34c2.325-.018 4.768.16 7.059.56 3.506.612 6.963 1.565 10.548 1.589 3.39.022 6.328-1.064 9.612-1.542 3.886-.565 7.94-.367 11.848-.23l-.631.536-1.076.703c-3.175.008-6.355-.046-9.505.419-3.376.499-6.477 1.548-9.954 1.522-4.18-.032-7.978-1.128-12.053-1.77-1.948-.308-3.909-.409-5.878-.447m-29.629 3.397q-.068.01-.136.016c-1.508.133-5.946.224-7.055-.69q.905-.052 1.811-.036.907.017 1.81.101.903.085 1.796.238.894.152 1.773.371m17.908.135q2.15-.576 4.363-.82c1.412-.225 5.524-.176 6.773.351l-.067.15c-1.178.58-2.874.357-4.181.373-2.281.075-4.606 0-6.888-.054m18.516-.038c-1.195.069-5.615.335-6.534-.042-.237-.097-.236-.286-.33-.512 1.637-.2 5.31.011 6.864.553m25.309.17c-1.069.007-2.179.062-3.236-.102.467-.19 1.05-.183 1.55-.228.945-.055 1.882-.11 2.823.036l.067.105a8 8 0 0 1-1.204.189"/></svg>