<svg xmlns="http://www.w3.org/2000/svg" viewBox="0 0 256 256"><path d="M123.057 0h10.55l.123.022c2.326.4 4.767.411 7.119.66q6.58.76 13.062 2.13 1.46.311 2.912.656 1.453.344 2.897.722t2.879.79q1.434.412 2.859.857t2.839.923 2.816.988 2.793 1.055 2.767 1.119 2.741 1.183 2.712 1.246q1.349.64 2.683 1.31t2.651 1.371 2.618 1.433q1.302.732 2.585 1.494 1.284.762 2.55 1.553 1.265.792 2.511 1.613 1.247.82 2.474 1.67t2.434 1.728 2.394 1.783 2.351 1.84 2.308 1.893q1.143.96 2.263 1.946 1.12.987 2.217 1.999t2.17 2.05 2.122 2.1 2.072 2.148 2.022 2.197 1.97 2.242 1.917 2.289 1.863 2.332 1.808 2.375 1.753 2.416q1.053 1.485 2.064 3 1.01 1.514 1.98 3.055.969 1.541 1.895 3.108t1.809 3.16 1.72 3.209 1.632 3.255 1.542 3.298 1.45 3.34 1.357 3.378 1.264 3.415 1.169 3.448 1.073 3.479.978 3.507.88 3.533q.417 1.773.782 3.556.368 1.783.686 3.576.88 5.5 1.372 11.05c.128 1.534.11 4.816.485 6.148v7.695l-.02.116c-.432 2.748-.415 5.664-.67 8.446a118 118 0 0 1-2.21 14.247q-.317 1.408-.667 2.808-.348 1.4-.73 2.791-.38 1.392-.79 2.775-.413 1.383-.853 2.757-.442 1.374-.915 2.737-.472 1.363-.975 2.716-.502 1.353-1.035 2.694t-1.095 2.67q-.562 1.328-1.154 2.644t-1.213 2.618q-.62 1.303-1.27 2.591t-1.328 2.562q-.679 1.273-1.385 2.531-.707 1.258-1.441 2.5t-1.496 2.468-1.551 2.433q-.79 1.208-1.605 2.398-.816 1.19-1.658 2.362t-1.71 2.325-1.76 2.285-1.812 2.246-1.862 2.206q-.943 1.091-1.91 2.162t-1.957 2.12q-.991 1.05-2.005 2.076t-2.05 2.031q-1.036 1.004-2.095 1.985-1.058.98-2.138 1.937-1.08.956-2.181 1.889t-2.223 1.84q-1.121.908-2.263 1.79-1.142.883-2.303 1.74-1.517 1.129-3.068 2.211-1.551 1.083-3.134 2.118-1.583 1.036-3.196 2.023t-3.255 1.926q-1.643.939-3.312 1.827-1.67.889-3.366 1.727t-3.416 1.625-3.463 1.522-3.507 1.416q-1.764.683-3.548 1.311-1.784.629-3.585 1.204-1.803.573-3.621 1.094t-3.652.987q-1.833.465-3.68.875-1.846.41-3.704.765t-3.726.653q-4.837.777-9.719 1.185c-2.421.177-6.316.142-8.51.692h-3.45c-2.649-.57-5.583-.488-8.288-.7q-5.529-.468-11.007-1.348-1.594-.242-3.181-.527t-3.165-.613q-1.58-.325-3.149-.692-1.57-.368-3.129-.778t-3.107-.86-3.084-.94-3.057-1.021q-1.523-.531-3.03-1.102-1.508-.57-3-1.181-1.492-.61-2.968-1.26t-2.933-1.338q-1.458-.687-2.897-1.414-1.44-.726-2.86-1.49t-2.818-1.565q-1.399-.8-2.776-1.638-1.378-.838-2.733-1.712c-2.97-1.911-5.81-4-8.642-6.108q-1.133-.857-2.247-1.74-1.114-.882-2.209-1.788-1.093-.906-2.168-1.837-1.074-.93-2.127-1.884t-2.085-1.93-2.042-1.976-1.997-2.021q-.988-1.022-1.953-2.065t-1.907-2.106-1.86-2.149-1.812-2.188-1.764-2.228-1.713-2.267-1.664-2.304-1.612-2.34-1.56-2.375q-.767-1.196-1.508-2.408-.74-1.213-1.453-2.442t-1.4-2.473-1.345-2.503-1.29-2.532q-.63-1.274-1.233-2.56-.602-1.287-1.176-2.587t-1.12-2.612-1.06-2.636-1.003-2.659-.944-2.68-.885-2.7-.825-2.72q-.397-1.363-.764-2.736-.368-1.373-.705-2.753t-.643-2.768q-1.526-6.93-2.264-13.99c-.242-2.45-.207-5.013-.577-7.436L0 133.202v-10.393c.438-2.06.395-4.353.579-6.456.26-2.986.72-5.995 1.265-8.942q.338-1.888.73-3.765t.838-3.742q.446-1.864.947-3.715.5-1.852 1.054-3.687.553-1.836 1.16-3.655.607-1.82 1.266-3.62.66-1.8 1.37-3.581.712-1.78 1.475-3.54.762-1.76 1.576-3.496.813-1.736 1.676-3.448.864-1.713 1.776-3.399.913-1.686 1.874-3.346.961-1.659 1.97-3.29 1.01-1.63 2.065-3.23 1.056-1.601 2.158-3.17 1.102-1.57 2.249-3.106.86-1.152 1.745-2.284t1.797-2.244 1.846-2.203 1.894-2.161 1.943-2.119 1.99-2.074q1.005-1.026 2.034-2.03 1.03-1.004 2.08-1.984t2.124-1.937q1.072-.957 2.166-1.889 1.094-.933 2.208-1.84 1.114-.908 2.249-1.79 1.133-.883 2.287-1.74 1.154-.858 2.326-1.69 1.173-.83 2.364-1.635t2.398-1.583q1.209-.778 2.435-1.53 1.225-.75 2.467-1.474 1.242-.723 2.5-1.419 1.257-.695 2.53-1.362t2.56-1.306q1.288-.64 2.59-1.249t2.616-1.19 2.642-1.132 2.666-1.073q1.34-.521 2.69-1.012 1.351-.492 2.712-.953t2.733-.892q1.371-.43 2.751-.83t2.77-.77 2.786-.706 2.801-.645c4.873-1.06 9.891-1.762 14.85-2.29 2.107-.223 4.267-.275 6.36-.567zm.132 5.18q-1.521.064-3.04.166-1.518.103-3.034.243t-3.027.319-3.018.393-3.007.469q-1.502.253-2.996.543t-2.98.617-2.965.692-2.945.765-2.927.838-2.904.91-2.881.983-2.856 1.054q-1.42.545-2.828 1.125t-2.8 1.194-2.769 1.264q-1.376.65-2.736 1.333t-2.703 1.4-2.667 1.467-2.63 1.533q-1.305.782-2.59 1.597-1.286.815-2.55 1.662-1.265.847-2.509 1.725-1.243.877-2.464 1.786t-2.42 1.848-2.372 1.906q-1.174.968-2.325 1.965-1.15.998-2.274 2.023t-2.224 2.078-2.171 2.134-2.118 2.186-2.062 2.239q-.866.957-1.712 1.932t-1.671 1.967q-.826.993-1.63 2.002-.806 1.009-1.59 2.034t-1.547 2.066-1.504 2.098q-.742 1.057-1.461 2.129-.72 1.071-1.417 2.157t-1.372 2.187-1.327 2.215q-.652 1.113-1.281 2.24-.63 1.127-1.235 2.267t-1.188 2.292-1.14 2.316q-.559 1.164-1.093 2.339-.535 1.175-1.045 2.36-.51 1.186-.996 2.382-.485 1.196-.946 2.402-.461 1.205-.897 2.42t-.847 2.439-.797 2.455-.746 2.471-.696 2.486-.644 2.5-.592 2.512-.541 2.525-.489 2.535-.436 2.544-.385 2.552-.331 2.56-.28 2.567-.226 2.571c-.293 4.046-.506 8.033-.31 12.09.265 5.49.711 10.97 1.644 16.389q.225 1.266.477 2.528.251 1.261.529 2.518.277 1.256.58 2.506.304 1.25.634 2.493.33 1.244.684 2.48t.736 2.465.787 2.449.838 2.433q.431 1.211.888 2.414.456 1.202.938 2.395t.987 2.376q.506 1.183 1.037 2.354t1.085 2.333q.555 1.16 1.134 2.31.578 1.148 1.18 2.284.603 1.137 1.23 2.261.625 1.124 1.274 2.234.65 1.11 1.321 2.208.672 1.096 1.367 2.18.695 1.082 1.412 2.15t1.456 2.12q.739 1.054 1.5 2.09.76 1.038 1.543 2.06.781 1.02 1.585 2.025t1.627 1.993 1.668 1.959q.844.97 1.708 1.923t1.748 1.888 1.786 1.85 1.825 1.814 1.862 1.775q.94.878 1.899 1.736.822.745 1.658 1.474.836.73 1.685 1.444t1.711 1.412 1.736 1.38 1.762 1.35q.886.666 1.785 1.317.9.65 1.81 1.283.91.634 1.832 1.251t1.855 1.217 1.877 1.183 1.898 1.149q.955.565 1.92 1.113.964.548 1.938 1.079t1.958 1.042q.984.513 1.977 1.008.993.494 1.995.97 1.002.477 2.012.935t2.03.897 2.044.86q1.027.421 2.06.823t2.076.785q1.04.383 2.089.747 1.047.364 2.102.71 1.055.344 2.115.67 1.06.325 2.127.631t2.137.593q1.072.286 2.149.554 1.077.267 2.158.514 1.082.248 2.167.475 1.086.227 2.176.435t2.183.396 2.19.356c3.787.593 7.531.907 11.355 1.133 1.698.1 3.441.27 5.14.19q.584-.03 1.165-.083c.48-.312.959-.618 1.457-.902.288.35.578.7.848 1.062l2.763-.065c31.061-.403 61.808-14.401 83.426-36.538 2.15-2.2 4.339-4.447 6.33-6.79q.884-1.03 1.745-2.08t1.698-2.12 1.65-2.156 1.602-2.193 1.552-2.228q.763-1.123 1.502-2.263.738-1.139 1.451-2.295t1.4-2.327 1.346-2.358 1.294-2.387 1.24-2.416 1.186-2.443q.58-1.228 1.131-2.468.552-1.241 1.076-2.494t1.02-2.517q.495-1.263.963-2.538t.906-2.56.848-2.58q.41-1.294.791-2.597.38-1.304.732-2.615t.674-2.63.615-2.646.556-2.658q.263-1.332.496-2.67t.436-2.68.376-2.689q.174-1.347.316-2.697t.256-2.703.195-2.709.135-2.712.075-2.714.012-2.716q-.03-1.53-.095-3.06-.065-1.529-.168-3.056-.105-1.528-.244-3.052-.14-1.524-.315-3.044-.179-1.521-.393-3.037-.213-1.516-.464-3.026-.25-1.51-.537-3.013-.287-1.504-.61-3-.324-1.496-.684-2.984-.359-1.488-.755-2.967-.395-1.478-.826-2.947-.432-1.469-.899-2.927-.466-1.457-.969-2.903-.501-1.447-1.038-2.88t-1.109-2.853-1.177-2.826-1.246-2.797-1.313-2.765-1.38-2.733q-.706-1.358-1.445-2.698t-1.51-2.663-1.576-2.625-1.637-2.586-1.7-2.546-1.762-2.504-1.821-2.46-1.881-2.415-1.939-2.37-1.996-2.32q-1.012-1.15-2.051-2.273t-2.106-2.222q-1.066-1.098-2.159-2.17-1.076-1.042-2.176-2.058t-2.226-2.004-2.273-1.95q-1.149-.96-2.32-1.893-1.173-.933-2.367-1.836-1.194-.904-2.41-1.779t-2.453-1.718-2.494-1.659q-1.256-.814-2.533-1.597t-2.572-1.535-2.608-1.472-2.644-1.408-2.677-1.343-2.709-1.277-2.739-1.211q-1.377-.59-2.768-1.144-1.391-.555-2.795-1.076t-2.82-1.008-2.845-.939-2.866-.869-2.886-.798-2.906-.729-2.922-.657-2.937-.586-2.95-.514-2.963-.442-2.972-.37-2.98-.297-2.986-.224-2.992-.151-2.994-.079-2.995-.006c-1.06.016-2.135.023-3.193.087"/><path d="M11.064 160.763q-.92-3.23-1.657-6.506-.736-3.276-1.287-6.588-.552-3.313-.916-6.65-.364-3.339-.54-6.692c-.316-6.064.076-12.145.78-18.168q.14-1.211.304-2.419t.351-2.412q.188-1.204.398-2.405t.445-2.397.491-2.387q.257-1.191.538-2.378.28-1.186.583-2.366.304-1.18.63-2.355t.675-2.342q.35-1.168.72-2.329.372-1.16.767-2.314.394-1.153.81-2.299t.856-2.282q.438-1.138.899-2.266.46-1.128.943-2.248.483-1.119.987-2.228.505-1.11 1.03-2.21.526-1.099 1.073-2.188t1.115-2.168 1.158-2.145 1.198-2.123 1.24-2.098 1.28-2.075 1.32-2.049 1.36-2.022 1.4-1.996 1.438-1.969 1.475-1.94 1.513-1.911 1.55-1.881 1.587-1.851q.802-.918 1.621-1.82.771-.843 1.558-1.672.786-.829 1.588-1.643t1.619-1.613 1.649-1.582 1.678-1.55T49 36.705q.86-.75 1.735-1.486.875-.735 1.764-1.453.888-.719 1.79-1.42.902-.702 1.817-1.387.914-.684 1.842-1.352.927-.667 1.867-1.317t1.892-1.281 1.916-1.246 1.939-1.21 1.961-1.172 1.983-1.136 2.004-1.098 2.025-1.06q1.016-.522 2.043-1.023t2.063-.983q1.036-.483 2.08-.945 1.046-.462 2.099-.905t2.115-.866 2.13-.825q1.07-.403 2.147-.786t2.16-.745 2.174-.704 2.187-.663 2.199-.622 2.21-.58 2.22-.54c7.671-1.742 15.388-2.563 23.228-2.97 1.687-.117 3.433-.065 5.124-.045q2.716.037 5.427.2 2.71.164 5.411.454t5.384.705 5.346.956q1.447.289 2.887.613 1.44.325 2.871.684t2.854.753 2.834.823q1.413.43 2.814.892 1.401.463 2.791.96t2.767 1.028 2.74 1.095 2.714 1.162 2.684 1.228 2.654 1.292 2.621 1.357 2.587 1.42q1.285.727 2.552 1.484t2.515 1.545 2.477 1.606q1.228.818 2.436 1.665t2.395 1.725 2.353 1.783 2.308 1.84 2.263 1.895 2.215 1.95 2.168 2.003q1.071 1.015 2.118 2.056 1.047 1.04 2.067 2.106t2.016 2.157q.994 1.09 1.962 2.205.967 1.114 1.907 2.252t1.852 2.298 1.796 2.343 1.738 2.386 1.68 2.427c15.621 23.101 23.993 51.849 21.186 79.745q-.724 6.862-2.245 13.593c-.593 2.654-1.337 5.272-1.854 7.942q-13.207-.274-26.407-.788c-6.004-.268-12.01-.655-18.014-.867l-32.083-1.344c-11.94-.473-23.928-.87-35.844-1.742-3.04-.185-6.125-.367-9.17-.381-2.062-.01-4.14.185-6.202.257q-7.955.28-15.905.695l-21.546.952zm60.159-96.472c-.252-.422-.522-.805-.579-1.304.156-.275.186-.29.469-.433 1.195.046 2.2 1.193 3.281 1.65l.444-.527c.416-.113.704-.021 1.106.084l.026.088-.026-.088c-.136-.26-.246-.444-.286-.74l.484-.336c-.115-.717-1.197-1.151-1.375-1.942l.259.063-.01-.081.135-.016c.357-.044.59-.076.895-.286l-.049-.186c-.1-.387-.218-.716-.11-1.118.274-.201.411-.18.745-.136.229.03.457.08.683.127.418-.368.143-1.184.994-1.06.63.092 1.394.753 1.916 1.107l.121-.088.014.074-.227-.306c.812.018 1.673.562 2.278 1.073-.034-.662-.229-1.794.126-2.361.327-.09.476-.1.783.067.353.19.663.537 1.025.696.593.263 1.201-.304 1.611.433-.188 1.423-.03 1.493.811 2.648.176.242.376.367.675.396a.65.65 0 0 0 .468-.158c.413-.344.546-1.14.495-1.645a1.4 1.4 0 0 0-.192-.578c-.462-.04-1.298-.004-1.655-.33.048-.312-.02-.186.164-.378.265-.275.509-.479.597-.865-.127-.343-.246-.51-.072-.879.137-.29.248-.305.53-.371.332.112.658.217 1 .297l.1-.136-.117-.358c.1-.158.24-.27.194-.462-.089-.36-.392-.636-.331-1.018.411-.214.7.01 1.058-.108.435-.145.334-.77 1.099-.44.042.019.19.151.22.176.418.35.978.364 1.373.723.486.442.7 1.191 1.178 1.692a13 13 0 0 0 1.032-2.147l.157-.071c.778-.368 1.583-1.495 2.41-1.423.368.201.46.406.61.785.457.265 1.513.74 1.68 1.265.059.182-.004.406-.038.587.634-.65.056-1.855 1.466-1.94.434.223.572.412.725.871.101.304.132.58.154.897.552.08.562-.654 1.144-.029.115.461-.212.878-.023 1.325l.215.11c.299-.114.466-.256.775-.096.13.068.306.259.407.353.829.067 1.106-.942 2.104-.565.112.132.24.21.232.397-.023.519-.735.967-.563 1.438.24-.048.458-.123.687-.205.408.117 1.04.859 1.342.769.18-.75-.278-1.331.425-1.877.306-.03.596-.063.896-.129.704-.905-.347-1.983 1.452-2.166.34-.035.528.044.776.263.231.203.435.442.636.673.305-.044.334-.097.571-.28.236-.182.377-.298.681-.338.258.127.347.128.436.42.17.56.085 1.4.088 2 .373-.195.795-.541 1.215-.408.364.115.419.316.803.171.869-1.219-.261-2.454 2.028-2.864.2-.035.299.051.446.189.5.465.874 1.813 1.126 2.458.403-.623.91-1.726 1.475-2.17.63.042 1.602.493 2.048.934.084.084.095.127.137.224-.091.347-.253.728-.136 1.082.265.162.293.145.608.119.653-.593.63-1.848 1.57-2.016.88.255 1.736 1.573 2.753 2.134.262.475-.039.964.26 1.425.988.265 1.956-1.047 2.908-.206.026.421-.225.746-.427 1.097l.035.123.699.014.153.175-.037.358c2.076.275 1.7-2 4.387.393.058.164.136.233.044.4-.322.59-1.067.694-1.308 1.375l.11.056.111-.056c.321-.16.523-.24.893-.235.161.083.286.084.334.275.057.228-.005.381-.067.599.404.347 1.005.435 1.31.864-.024.306-.064.422-.314.619-.914.721-2.596.778-3.725.609l-.105-.018c.139.651 1.309 1.573 1.155 2.166-.613.162-.875-.401-1.83-.053-1.215-.34-2.038-1.997-3.187-2.057.256.42.669.817.99 1.195l.168.03a5 5 0 0 1 .489.114c.25.45.406.82.231 1.346a1.25 1.25 0 0 1-.74.779.95.95 0 0 1-.826-.065c-.642-.387-1.02-1.578-1.656-2.156.246-.587.445-1.142.604-1.759-.353.508-.725 1.252-1.383 1.372-.367.067-.692-.24-.958-.456-.312.118-.406.324-.548.616-.838 1.73-2.443 6.377-1.726 8.208.284.725 1.479 1.11 2.153 1.366 3.581 1.355 7.395 2.058 10.955 3.483 1.995.799 3.586 2.263 5.527 3.108.477-5.407.537-10.755.31-16.176-.084-1.997-.066-4.197-.667-6.117-.299-.956-.888-1.802-1.522-2.565-1.676-2.017-4.757-4.959-7.2-5.947-2.012-.812-4.093-1.366-5.882-2.641-.457.742-1.117 1.945-2.044 2.143-.297.064-.557-.011-.8-.183-.465-.33-.506-1.007-1.045-1.296-.573.38-1.167 1.196-1.886 1.092-.3-.485-.27-1.503-.383-2.101-.316.181-.63.366-.948.544-.492.275-.8.566-1.159.999-.428-.36-.84-.83-1.437-.793-.053.003-.257.036-.302.042q-.41.054-.819.116c-.319-.262-.4-1.112-.681-1.2-.237.174-.65.402-.694.715-.066.466.044.812-.182 1.253-.791.526-1.202-.184-2.195.502-.37.255-.597.348-1.046.26-.988-.191-1.405-1.7-2.193-2.176-.468-.283-1.744.536-2.727-.223.014-.459.04-.563-.303-.91a8.5 8.5 0 0 0-1.893-1.425c-.146.625-.252 1.71-.794 2.11-.194.144-.481.17-.714.123-1.046-.21-2.042-1.378-2.582-2.258-.213-.345-.408-.706-.305-1.119.19-.758 1.104-1.185.915-2.038-.267-.13-.27-.128-.538-.029-1.218.449-2.052 1.72-3.214 2.177-.329-.18-.642-.455-1.023-.335-.818.256-1.374 1.1-2.32.938-.414-.488-.039-1.43-.443-1.765-.494.03-1.023.163-1.448-.1-.13-.389-.106-.697-.076-1.097l-.113-.165c-.773-.034-1.295.065-1.907.591a5 5 0 0 0-.323.315l-.225.043c-.323-.443-.158-1.076-.527-1.464-.327-.033-.452.011-.739.169-.16.276-.287.538-.407.834-.298.154-.488.17-.817.063-.224-.073-.44-.19-.654-.288-.233-.108-.128-.07-.378-.128l-.167.083c-.563.278-1.34.672-1.982.482-.34-.101-.494-.256-.713-.524-.068-.323-.09-.392.119-.681.263-.364 1.066-.71 1.466-.934-.463-.168-1.037-.307-1.41-.634l.006-.168c.744-.439 2.938-.262 3.278-.676-.085-.396-.302-.95-.121-1.304.39-.214.893-.208 1.319-.096.524.136.867.441 1.217.837l.128-.069c-.004-.362-.103-.74.135-1.021.363-.017.727-.025 1.09-.05.766-.053 1.266.741 2.018.279-.2-.637-.685-1.628-.371-2.258.118-.238.141-.212.357-.329.636.049 2.736 1.32 3.053 1.078.248-.189.358-.51.486-.787.231.043.11.008.358.113-.16-.404-.345-.304-.307-.789.143-.13.163-.219.375-.198.643.063 1.313.657 1.823 1.032l.157-.11c1.839-1.278 6.24-2.889 8.51-2.492.579.102 1.16.252 1.733.385.28-.251.487-.519.71-.822.008-.196.055-.275-.077-.439-.374-.463-1.207-.644-1.77-.687-.633-.048-1.493 1.522-3.756-.176l-.115-.271c.099-.193.196-.339.339-.501-.753-.576-1.887.35-2.741-.398l-.033-.247c.548-.685 5.227-1.813 6.254-1.918.88-.09 1.692.614 2.538.198.322-.47.28-.928.295-1.474.853.162 1.959.544 2.769.106.15-.262.189-.463.23-.761.475-.273 1.048-.144 1.567-.017 1.71.421 2.766 2.282 4.46 2.462.416-.413.708-.906 1.112-1.332-.376-.639-.822-1.447-.582-2.22a.87.87 0 0 1 .455-.56c.35-.184 1.13-.186 1.476-.011.186.094.397.288.559.417l.115-.045c.163-.39.19-.552.538-.805.975.022 1.36.855 1.714.9.046.005.298-.172.362-.176.711-.046 1.567.775 2.378.835.213.017.425.043.638.061.377-.242.79-.457 1.028-.849l-.026-.212c-1.033-.748-3.241.046-3.85-1.302.092-.405.218-.583.577-.804 1.057-.65 2.2-.751 3.33-1.17q-.06-.078-.116-.16a1.9 1.9 0 0 1-.256-.566c.142-.292.257-.356.569-.453 1.18-.367 3.675-.293 4.79.3.868-.466 1.362-.829 2.375-.69.65-.414 1.285-.798 1.833-1.345l.16-.157.093-.097c.718.335 4.821 2.273 5.326 2.33.204-.2.31-.389.447-.635.19-.342.355-.625.753-.75.212-.066.384-.036.595 0 .411.293.497.676.988.822.526-.178.939-.417 1.506-.359.704.53.235 1.513 1.242 1.669.508-.234.846-.758 1.18-1.193.667-.267 2.399-1.278 3.02-1.028.215.405.38 1.432.827 1.547.223.057.365.033.588.013.284-.025.516-.056.77.11.283.186.347.421.425.728-.113.284-.175.47-.486.577-.58.198-1.14.104-1.704.42l-.123.247c.38.273 1.071.137 1.529.1.95-.683 2.56-1.624 3.773-1.397.284.054.544.183.718.418.303.408.348 1.132.247 1.615-.185.881-1.33 1.279-1.222 2.326.208.288.337.345.672.454.266-.039.467-.12.655-.323.824-.884-.325-2.946 1.668-3.374.169-.036.339.105.46.208.5.418.346 1.503.854 1.644 1.028-.28 2.248-1.325 3.323-.731.206.113.36.36.391.59.035.247.021.517.015.766.48.048.96.094 1.439.158.2.027.091.016.29-.03.712-.167 2.779.338 3.387.762.17.118.168.13.284.261-.032.24.024.18-.173.313-1.154.782-6.564.55-6.905 1.88.273.34.599.437 1.016.485.878.101 3.978.443 4.537 1.004.026.026.045.06.067.089-.045.263-.05.31-.281.476-1.048.757-3.132.175-3.844 1.002.075.392.548.703.843.96.494-.084.99-.183 1.489-.239.39-.328.971-.928 1.505-.916.181.005.283.133.393.267.305.37.269.55.729.771.89-.022 2.184-.912 2.807-1.528l.106-.318c-.166-.33-.438-.51-.722-.732-.095-.308-.058-.35.096-.637a1.1 1.1 0 0 1 .629-.55c.784-.248 1.667.34 2.287.755.362.241.737.592 1.174.655.555-.146 1.65-.621 2.165-.249.397.287.637.834.811 1.275l-.092.243a12 12 0 0 0-.752.328c.051.271.044.303.287.439.685.383 2.318.1 3.133.146 1.22.07 4.272.543 4.962 1.66l.042.352c-.699.771-2.256.318-3.143.774.214.435 2.816 1.374 3.382 1.556.683.22 1.417.252 1.765.983.098.205.058.297.037.512-.213.202-.341.293-.65.273-1.482-.099-8.979-1.501-9.613-1.196l-.023.154c.763.86 1.696 1.526 2.457 2.402-.406.36-.722.707-1.303.69-1.447-.041-2.282-1.51-3.837-1.329-.66-.309-.964-.763-1.279-1.398-.791-.114-1.595-.261-2.393-.313-.516.243-1.037.473-1.52.78 1.105.451 3.196 1.169 3.866 2.167.01.16.062.262-.058.39-.234.248-.675.342-.992.451l-.153.219c.177.332.705.493.74.77.027.224.015.144.118.39.59.373 1.225.576 1.88.808.267.55.576 1.105.786 1.679-.655.876-1.483 2.05-1.224 3.223.01.047.037.089.055.133.401-.072.563-.13.802-.477.221-.32.384-.736.55-1.087.594.056 1.259-.024 1.8.237.069.258.095.16-.021.363-.409.72-1.658 1.072-1.35 2.198.008.033.027.063.04.094.213-.09.303-.192.458-.353.805-.835 2.315-.358 2.35-1.85.005-.212-.072-.263-.184-.431l-.192-.059a6 6 0 0 1-.536-.2c-.032-.952.479-2.208 1.146-2.898.24-.248.533-.442.887-.462.43-.024 1.957.648 2.504.804-.45.31-.995.746-1.116 1.31-.01.045-.007.09-.011.136.208.234.252.236.559.318.4-.19.502-.374.654-.787.072-.196.136-.395.201-.593.31-.114.71-.034 1.006.097 1.068.473 1.244 1.76 2.48 1.93.171-.057.3-.048.391-.221.151-.289.147-.676.007-.968-.1-.21-.266-.412-.407-.594.474-.298.971-.694 1.531-.783.773.181 1.453.76 2.24 1.02.2.066.28.149.394.321.196.905.232 1.64 1.04 2.195l.169-.123a5 5 0 0 1 .54-.333c.402.075.68.343.994.587.373.008.515-.101.793-.349.684-.609 1.05-1.344 2.102-1.326.301.005.537.064.759.277.565.543.792 1.764 1.73 1.78.72.01 1.755-.38 2.483-.554.396.346.837.652 1.036 1.151-.04.188-.007.276-.183.388-.502.321-2.312.446-3.123.717.854.23 1.245.4 1.8 1.103l-.062-.135c.524.09 1.606.447 2.07.27l.008-.123c.024-.32.037-.63.279-.874.49-.496 1.527-.389 2.157-.323.524.054 1.073.078 1.53.358.15.296.187.354.062.691-.209.566-.892 1.001-.97 1.589.479.131.513-.2.851-.182.447.023.36.525.634.701 1.101.706 4.612-.11 5.991 1.863l-.045.233c-.718.342-1.564.145-2.279.503l-.077.225c.22.366.553.539.904.76l.053.156c.313.864.775 1.13 1.584 1.501.642.295 1.668.559 2.014 1.217-.029.162-.002.294-.154.391-1.169.745-6.387-1.09-6.953-.447.73.917 2.58 1.145 2.74 2.527-.133.253-.252.421-.552.492-1.382.328-4.006-1.839-5.633-2.098-.09.246-.078.312-.071.565.013.495-.054 1.172-.43 1.545-.209.209-.468.262-.75.194-.539-.129-.805-.782-1.034-1.225-.376.383-.727.832-1.243 1.017l-.222-.075c-.181-.52.04-1.19.161-1.715-.213-.051-.286-.03-.498.002-.265.04-.415.052-.667-.058-.201-.234-.219-.246-.243-.551.243-.513.683-.859 1.105-1.226-.383-.151-.765-.317-1.153-.452l-.151.082c-.77.43-1.308 1.184-2.045 1.57a5 5 0 0 1-.533-.374c-.504.032-1.126.482-1.538.086-.336-.323-.355-1.287-.744-1.275-1.617.05-1.328 1.802-3.895.474-.207-.381-.354-.773-.765-.967-.308.014-.452.01-.671.269-.23.27-.245.612-.267.945.078.235.188.337.353.512.4.425.561.826.503 1.421-.034.351-.137.498-.373.748-.578.16-1.09-.11-1.584-.398-.148-.086-.289-.181-.43-.276-.583-.089-1.072.16-1.525.513-1.073.838-1.784 2.224-2.997 2.858-1.575.825-8.519 1.932-8.74 4.072-.041.4.182.76.456 1.028.325.32 6.156 3.36 6.893 3.602.913.3 1.954.407 2.909.486-.601-.738-.483-1.375-.87-1.904-.356-.487-.904-.697-1.229-1.256.08-.24.013-.21.215-.298.413-.18.863-.047 1.197-.38a7 7 0 0 0 .207-.871c.046-.269.081-.407.278-.61.508-.266 1.054-.218 1.584-.054.24.228.363.352.39.697.044.572-.33 1.174-.1 1.694.678.037 1.302-.2 1.802-.657.96-.878.87-1.277 2.243-1.552l1.532.68c.597-.465 1.456-1.233 2.26-1.204.297.01.468.148.617.397.283.473.114 1.131.516 1.548l.19.002.069-.118c.3-.514.69-1.111 1.299-1.3.35-.108.564.008.864.163.207.275.235.26.199.597-.604.641-1.86.284-1.994 1.166l.151.218c1.145.105 1.087-1.14 2.533-.178.525-.588.786-1.587 1.583-1.834.408.147 1.503 1.286 1.717 1.196.224-.093.397-.252.585-.402.355-.022.416.029.733.2.145.295.167.43.049.748-.16.428-.419.724-.391 1.205.247.346.45.44.869.518.195.036.528.153.688.016.397-.34.348-1.004.373-1.478.33-.28.695-.384 1.127-.323.266.037.47.145.613.374.076.12.135.25.199.376.138.27.192.517.513.607.367.104 2.977-.323 3.818-.299.446.29.868.576 1.266.93-1.072.975-1.29.523-2.157 1.026-.405.236-.432.684-.953.94l-.178.091-.124.06c.097.284.181.342.448.458 1.413.613 4.815.14 5.52 1.863.119.29.09.4.037.698-.245.343-.482.55-.907.635-.33.066-.596.026-.919-.047a.84.84 0 0 0-.22.422c-.273.039-.137.055-.388-.047-.489-.198-1.126-.177-1.648-.26-.275-.044-.433-.004-.693.087-.235.278-.231.259-.215.622.21.317.352.46.673.664.254-.081.332-.144.53-.312 1.79-.096 4.272-.779 5.926.067.198.262.183.253.154.584-.394.583-1.208.707-1.685 1.334-.62.222-1.547-.62-2.008-.059.025.346.085.48.291.758.89.342 2.291.767 2.733 1.691.113.236.091.13.018.404-.327.19-.606.234-.972.289l-.096.367c-.258.125-.49.1-.757.012-1.12-.37-1.9-2-3.108-2.006.007.827.139 1.683-.398 2.371-.4.171-.627.169-1.032-.004-1.241-.529-2.137-1.944-3.35-2.558-.42.723.145 2.084-.847 2.527-.936-.26-1.576-1.097-2.555-1.309-.658-.142-1.602.503-2.047-.208-.324-.517-.12-1.247.004-1.788l-1.141-1.055c.042.473.127.943-.03 1.4-.54.222-1.77-.336-2.295-.547-.282-.114-.44-.255-.665-.446-.177-.15-.366-.291-.548-.438a21 21 0 0 1-1.565-.187c.401.569 1.065 1.294.98 2.023-.227.26-.299.34-.658.407-.32.06-.611-.07-.867-.243a6 6 0 0 1-.429-.832c-.07-.156-.052-.105-.219-.236-.358.123-.5.181-.856.023-.314-.14-.625-.361-.918-.543-.304.296-.739.849-1.157.932l-.15-.033c-.682-.144-.992-.137-1.617.164-.347-.049-.468-.058-.723-.33-.579-.615-.203-1.652-.477-2.298-.057-.136-.54-.4-.677-.484-.116-.22-.234-.436-.333-.664l-.269-.187c.089.509.181.929.425 1.387-.53.351-1.056.733-1.615 1.037-.598-.452-1.05-.883-1.454-1.517.12-.814.274-1.632.366-2.45-.291.38-.917 1.527-1.282 1.645l-.62-.237c-.74.513-.303 2.026-1.633 1.797a3 3 0 0 1-.632-.728c-.576-.275-1.356-.55-1.73-1.09-.002-.25-.054-.219.097-.377.531-.556 1.57-.654 2.287-.868-.357-.128-1.124-.307-1.297-.667-.036-.075-.056-.156-.086-.234-.377-.98-3.971-2.902-5.08-3.363-2.073-.864-4.156-1.124-6.281-.226-3.562 1.505-6.522 3.883-9.608 6.137-1.203.879-2.566 1.699-3.638 2.734-1.09 1.052-2.288 2.602-2.869 4.004-.192.462-.163 1.015-.17 1.507-.017 1.182.233 2.409.371 3.582q.269 2.366.403 4.743.662 13.483 1.659 26.944c2.268-.075 4.541-.214 6.81-.236 2.185-.022 5.756.296 7.777-.216 2.881-.728 5.71-2.601 8.178-4.225 1.978-1.3 4.143-2.623 5.774-4.353 1.23-1.305 2.163-2.933 3.578-4.05 3.514-2.777 8.909-2.808 13.183-3.25 1.3-.134 2.608-.474 3.91-.526.704-.027 1.436.07 2.138.138 3.251-3.8 5.935-6.49 11.24-6.922 4.562-.372 6.198.268 10.162-2.73.991-.75 1.951-1.75 3.122-2.207.51-.2 1.124-.304 1.665-.18 1.38.319 2.506 1.561 3.75 2.2 1.386.713 3.047 1.155 4.534 1.63-.74-3.902-2.994-9.52-4.523-13.305q-.41-1.038-.839-2.069-.43-1.03-.877-2.053-.449-1.023-.916-2.037t-.953-2.019q-.485-1.005-.989-2.001t-1.026-1.983-1.063-1.963-1.1-1.944-1.134-1.923-1.17-1.902-1.204-1.88q-.611-.934-1.239-1.857t-1.273-1.834-1.307-1.81-1.34-1.786-1.373-1.761-1.404-1.736-1.437-1.709-1.468-1.682q-.741-.835-1.498-1.655t-1.53-1.627-1.558-1.599-1.588-1.57-1.616-1.54q-.815-.762-1.645-1.51-.829-.747-1.672-1.479t-1.7-1.449-1.725-1.416-1.751-1.385-1.777-1.352-1.801-1.32q-.907-.65-1.826-1.285-1.209-.836-2.439-1.642t-2.48-1.58-2.517-1.519-2.554-1.456-2.59-1.393-2.623-1.328-2.655-1.263q-1.335-.615-2.685-1.197t-2.715-1.13-2.741-1.063-2.767-.995-2.79-.926-2.813-.856-2.833-.787q-1.422-.376-2.852-.717t-2.868-.646-2.883-.575-2.897-.504-2.909-.431-2.918-.36-2.926-.288-2.932-.215-2.937-.142-2.94-.07-2.94.002-2.939.076-2.936.148-2.932.22-2.926.293-2.917.366q-1.457.2-2.908.437-1.451.236-2.896.509C75.102 16.04 46.557 34.5 29.221 60.75c-.215.324-.35.556-.41.941.096.223.109.298.35.397 1.005.41 3.136-.094 3.786.95.156.25.21.665.11.946-.013.037-.035.07-.053.105a4 4 0 0 1-.56-.088c-.298-.068-.534.013-.816.104a6.5 6.5 0 0 1-.9-.339c-1.007-.456-2.216.46-2.836.166-.076-.036-.262-.32-.328-.4-.284.247-.436.486-.62.806 1.86.93 5.217.38 5.972.763.55.28.915.862 1.233 1.367-.498.374-.952.618-1.152 1.24-.011-.09-.02-.204-.054-.287-.127-.317-.257-.342-.55-.47-.37.023-.566.05-.901.234.2.255.38.444.69.565.297.116.532.063.815-.043.008.248.033.45.111.683l.077.223c-.233.168-.471.308-.608.57.377.536.837.989 1.293 1.456.292.015.202.041.472-.066.69-.274 1.276-1.055 1.581-1.703.012-.026.126-.278.15-.313.237-.342.786-.31 1.172-.389.14-.249.13-.239.068-.52-.456-.467-1.184-.544-1.743-.883-.078-.222-.128-.186-.032-.346.292-.487.915-.612 1.419-.77.15-.23.313-.465.437-.71.141-.276.193-.43.1-.733a3.2 3.2 0 0 1-.683-.28c-.322-.722.33-1.672.535-2.376.135-.464.209-.957.286-1.434.555.961.834 2.03 1.373 2.984.372.659.876 1.179 1.336 1.772l-.078.167c-.679.204-1.423-.059-2.128.08l.114.313c.912.774 1.873-.302 2.753.158.25.13.375.311.406.589.038.323-.111.66-.328.885-.205.078-.456.15-.643.264-.3.182-.27.285-.322.608.282.49 1.003.54 1.346.993.133.175.02.329-.03.522.337.38.792.302 1.183.702.013.194.066.237-.087.364-.497.415-1.361.424-1.98.45.3.293.511.573.72.938.192.335.327.546.23.928a10 10 0 0 1-.9.426l-.035.228c.643.68 2.082 1.142 2.994 1.35.464.107.792.103 1.194-.152l-.049-.127c-.403-.294-.819-.54-.956-1.046.102-.757 1.871-2.054 2.464-2.593l-.018-.12c-.36-.036-.91-.042-1.235-.189-.293-.132-.303-.22-.389-.5.07-.35.155-.536.345-.827 1.235-.28.88-.532 1.715-.962.357-.185.898-.203 1.295-.29.337-.075.582-.205.76-.514.274-.478.1-.959-.016-1.459l-1.512.207c-.836-.45-1.952-.927-2.455-1.77l.061-.178c.501-.182.953.032 1.454-.029.68-.082 1.08-.553 1.892-.578.414-.518 1.134-1.201 1.108-1.892-.518-.127-1.407.445-1.953.574-.312.075-.648.064-.902-.151-.404-.341-1.073-1.196-1.077-1.742.55-.32 1.203.278 1.808.205.51-.061.695-.366.979-.746.478-.641 1.298-.555 1.752-1.112-.204-.37-1.766.136-2.247-.054.128-.271.18-.437.187-.74a2 2 0 0 1 .058-.53c.112-.442 1.687-.473 2.137-.717-.473-.183-.68-.247-.952-.697-.08-.796.343-1.267.798-1.855.599.67.816 1.123 1.108 1.97.36 1.05.896.602 1.693 1.009.148.193.237.328.292.57.093.414.044 1.095-.19 1.441-.479.172-1.06-.035-1.558-.1.184 1.017 2.714.922 3.428 1.623.14.138.098.206.1.387-.354.54-1.223.85-1.726 1.33l-.111.109c-.623-.288-1.171-.559-1.711-.989-.173-.137-.068-.106-.293-.089-.108.236-.178.368-.08.637.256.702 1.241 1.127 1.859 1.462.876.474 1.572-.01 2.426.282.25.084.451.28.532.53.095.295.075.328-.057.586-.519.27-1.642.373-2.214.285-.281-.043-.398-.084-.676-.007-.6.165-.73.066-1.255-.212l-.041-.062-.24-.098-.06-.168.06.168.24.097.041.064c.213.396.477.798.288 1.261-.092.226-.261.372-.428.54a1.4 1.4 0 0 0-.248.338c.492.513 2.866 1.29 3.584 1.352.207.017.447-.02.652-.04.21.27.167.356.194.686-.17.296-.246.42-.586.52-1.024.3-2.163-.343-3.112-.06-.109.275-.071.288-.017.564.523.694 1.477.654 1.921 1.247q-.128.226-.264.449c.718.753 2.246-.097 2.788.82-.076.29-.1.423-.38.589-.335.197-.653.14-1.01.106l-.383-.034c-.262.246-.421.487-.81.501-.281.01-.615-.072-.895-.115l-.23.12c-.016.359.06.686.299.962.608.706 2.543.748 2.611 1.593-.176.288-.211.374-.574.436-.564.096-1.522-.193-2.143-.197 1.047.523 1.907.825 2.475 1.899.648 1.223 2.624 2.232 3.701 3.168.283-.386.469-.668.917-.86.252.009.412.05.642.14.396.157.682.148 1.072-.026.674-.3 1.012-.677 1.803-.41.628.213.595 1.03 1.18 1.185.605.16 1.691-.647 2.034-.053-.141.261-.227.414-.294.707.834.544 2.121.056 3.061.68.574.381 1.117 1.088 1.62 1.578.3.291.873.684.97 1.1.108.46-.357.904.078 1.193.527.35 1.152.605 1.7.938 1.404.855 2.779 1.746 4.208 2.56 1.313.75 2.713 1.398 3.84 2.425.658.6 1.115 1.212 1.36 2.076.31 1.091.244 2.258.515 3.353.539 2.175 4.522 4.154 6.38 5.247 1.057.623 2.159 1.177 3.104 1.967 2.09 1.747 4.01 3.82 6.041 5.654.854.772 1.507 1.574 2.567 2.085 1.111.538 2.254.76 3.164 1.649.719.7 1.29 1.542 1.88 2.349 1.542 2.104 2.952 3.902 5.175 5.32 3.334-.507 6.692-.42 10.058-.46 5.794-.069 11.59-.008 17.382-.155.681-4.801 2.309-22.682 1.287-26.511-1.153-1.216-2.507-2.213-3.723-3.363-4.352-4.115-6.647-6.921-12.426-9.547-1.458-.663-3.027-1.293-4.65-1.333-1.842-.046-4.006.61-5.353 1.885-.33.008-.535-.093-.833-.217-.224.381.07.584-.261.931-.65.112-1.111-.487-1.651.004.257.6.916 1.116.601 1.808-.098.217-.093.173-.294.3-.647-.019-1.132-.5-1.552-.95-.43-.46-.77-.981-1.222-1.426l-.002.134c-.024 1.344-.484 1.369.461 2.553-.38.588-.891 1.567-1.549 1.859l-.203-.045c-.446-.939-.596-2.157-1.341-2.916l-.238-.02-.111.172c-.213.324-.296.489-.655.624-.251-.058-.495-.129-.754-.138l.01.177c.364.12.71.237 1.053.411l.096.193c-.35.929-1.466 1.654-2.28 2.177q-.052-.05-.1-.102c-.437-.464-.594-.897-.79-1.485l.01.011c-.235.22-.23.27-.547.274-.767-.516-.836-1.455-1.21-1.404-.118.248-.186.48-.253.746-.295.11-.28.057-.558-.046l-.126-.163c-.17-.217-.095-.136-.28-.302l-.267 1.083c-.477-.18-1.242-.352-1.46-.845-.142-.32-.278-.926-.55-1.108-.294.437-.284 1.021-.648 1.386-.363.045-.878-.5-1.023-.273-.383.599-.167 1.443-1.025 1.657-.344.086-.605.008-.898-.179-.168-.254-.505-1.066-.754-1.13-.052-.013-.418-.006-.451-.006-.37 0-.774.026-1.056-.26-.118-.119-.091-.284-.108-.442.225-.582.544-1.102.883-1.623-4.109.143-2.525.238-5.57 1.996-.129.074-.4.224-.55.17-.085-.03-.143-.111-.214-.167-.229-.823.216-1.917-.448-2.524l-.169.05-.03.593c-.702.5-2.013.89-2.867.817-.248-.207-.23-.22-.288-.543.102-.266.2-.52.333-.772-.347-.217-.963-.41-1.119-.764.197-.169.404-.256.639-.36l-.058-.123a6 6 0 0 0-.86.142c-.397.09-.787.139-1.147-.105-.248-.17-.456-.447-.65-.675-.757-.061-2.04-.064-2.65-.541.025-.291.048-.528.289-.733.836-.71 2.887-.41 3.314-.805.175-.161.224-.432.291-.652.223-.186.472-.44.778-.449.35-.01.54.09.797.306.067.356.05.618.011.973l.166.179.211-.028a4 4 0 0 1 .788-.008c.13-.195.103-.085.087-.298-.075-1.04.336-2.753 1.055-3.561.206-.231.32-.26.606-.345.571.12.855.442 1.15.919a6 6 0 0 1 .412.853c.426.045.855-.184 1.189.072.032.339.111.697-.023 1.02l-.38.364c.096.326.19.38.425.618.454.137.628.085 1.047-.133.488-.254.88-.558 1.463-.423.4.093.81.483 1.198.33l.073-.244c.12-.395.208-.888.588-1.12.094-.056.164-.066.264-.089.346.241.653.545 1.078.576.344-.57-.325-1.493.657-1.691a.82.82 0 0 1 .739.187c.621.51.641 2.03 1.132 2.316.027-.056.051-.115.083-.17.171-.302.349-.349.624-.517.232-.142.377-.428.52-.652.34-.104.562-.098.91-.073l.131-.088c-.579-.694-1.461-1.409-1.626-2.327.09-.298.08-.338.327-.518.522-.005.76.358 1.2.517.518.188.984-.765 1.686-.171.38.322.48.647.999.777.731-.14.831-.835 1.7-.258q.543.368 1.056.777l-.404 1.62c.85-.288 1.672-.507 2.554-.675-.443-.214-.9-.378-1.19-.795-.007-.267-.023-.326.177-.53.59-.607 1.141-.715 1.79-1.546q.075.038.147.077c.763.412 1.161 1.074 1.855 1.517.727.463 1.411.072 2.023.932-.062.203-.13.39-.22.582.469.147 1.078.164 1.57.248 2.645.45 3.905.185 6.485-.436.56-.135 1.38-.245 1.858-.548.137-.087.136-.096.231-.198-.086-.408-.504-.746-.783-1.04-.709-.744-1.428-1.541-2.26-2.152-1.02-.749-2.177-1.357-3.105-2.221-1.353-1.26-2.52-3.044-4.032-4.075-.328-.224-.87-.503-1.276-.466-.038.004-.075.017-.112.026.174.226.336.363.55.548-.09.423-.155.819-.486 1.103-.459.062-1.2-.428-1.499-.212-.025.474.044.953-.367 1.272-.167.129-.368.23-.553.332a9.3 9.3 0 0 1-1.333-2.104c-.05-.103-.103-.168-.168-.256-.233.264-.199.588-.371.826-.152.21-.389.13-.485.439-.193.62.31 1.662-.758 1.633-.59-.017-1.065-.463-1.411-.899-.306-.385-.524-.796-.729-1.24-.321.212-.161.93-.608.806-.219-.06-.361-.13-.484-.33-.126-.206-.194-.518-.265-.75-.248-.092-.258-.1-.51-.025-.185.499.181.97-.05 1.462-.315.089-.465.081-.766-.065-.441-.214-.934-.72-1.43-.725l-.416.213c-.565-.226-.545-.808-1.115-.995-.86.424-.629 1.952-1.504 2.126-.435-.184-.696-.507-1.013-.848-.173.047-.32.108-.484.178-.69-.154-1.106-.812-1.525-1.335q-.198.926-.383 1.855c-.662-.158-1.284-.314-1.911-.583-.127.15-.2.262-.293.431-.285-.036-.413-.193-.586-.414-.239-.307-.436-.677-.638-1.01-.408.38-.822.86-1.347 1.064l-.219-.11c-.262-.863.251-1.796.012-2.63-1.06-.147-2.159 1.642-2.966 1.179-.12-.24-.231-.44-.29-.704l.131-.221-.132.22a2.7 2.7 0 0 1-.603.572l-.245-.059c-.147-.24-.246-.433-.48-.599-.505.373-.691 1.03-1.184 1.375-.155.109-.24.048-.414.02-.386-.306-.605-.727-.858-1.141l-.197-.043c-.155.246-.137.385-.162.673.146.273.182.397.154.706-.143.247-.285.477-.576.567-.366.114-.721-.162-1.038-.318-.1.57-.126 1.095-.439 1.595-.32.165-.3.157-.648.059-.339-.311-.504-.638-.685-1.058a10 10 0 0 0-.123-.274c-.047.017-.097.028-.14.053-.357.203-.397.77-.552 1.114a.8.8 0 0 1-.602.475c-.328.07-.535-.078-.778-.262-.213-.43-.233-.804-.266-1.278-.56.08-1.297.26-1.838.056-.533-.2-.78-.717-1.045-1.18-.728.571-1.54 1.135-2.51 1.042-.16-.17-.224-.16-.21-.419.05-.876 1.365-1.909 1.97-2.511-.181-.108-.386-.217-.547-.352-.282-.236-.344-.41-.402-.763.056-.228.104-.361.26-.545.51-.602 1.893-.965 2.65-.967l.12.07zm-43.781 66.063c-.774.018-1.564.048-2.336-.006-1.415-.097-2.813-.38-4.224-.508-.735-.067-1.476.038-2.195-.029-.406-.038-1.476-.382-1.787-.162-.055.039-.235.268-.283.326-.332.097-.592.087-.785.388.77.768 2.146.672 3.183.67.765-.003 1.532-.052 2.296-.02 2.08.085 4.225.438 6.13-.659l.059-.073zM130.577 22.697l-.022.118c-.091.467-.253.847-.461 1.272.2.338.383.518.357.916-.238.218-.488.424-.678.686l.107.09c.247-.184.389-.396.716-.33.046.01.217.098.255.115.628.287 1.242.038 1.898.191.59.082 1.25-.008 1.753-.372.209-.151.178-.21.233-.436-.46-1.045-3.118-1.827-4.158-2.25m6.776 4.033c-.062.526.007.888.144 1.398-.118.229-.276.384-.453.569.062.332.07.262.325.442.512.04.981-.272 1.423-.505.511-.149.707-.2.968-.711.155-.303.133-.357.024-.654-.619-.466-1.674-.45-2.43-.54m-14.428.393c-.315.407-.633.762-.77 1.269.061.169.061.308.233.4.31.165.71.107 1.053.097.4-.338.805-.614.998-1.116-.036-.204.004-.29-.186-.412-.37-.238-.898-.24-1.328-.238m20.594-.046c-.267.395-.47.721-.608 1.18l.067.178c.121-.036.231-.06.34-.126.348-.258.717-.472.904-.877l-.113-.22a4 4 0 0 0-.59-.135m-9.811 2.348a9 9 0 0 1-.908.2c-.389.064-.914.516-1.087.87-.136.28-.155.511-.017.797.18.371.58.502.936.643.624-.446 1.317-1.127 1.646-1.826-.023-.378-.068-.414-.299-.72-.241.015-.156-.019-.271.037m-21.686.124c-.275.622-.505 1.045-.252 1.721.642.539 1.298.059 1.83.417-.044.479-.19 1.163.1 1.58.33.171.43.151.806.134.18-.133.226-.165.33-.372.373-.391.831-.79.832-1.372 0-.227-.117-.317-.241-.494-.398-.153-.567-.118-.954.062-.314.145-.477.312-.827.265-.61-.74-.249-1.812-1.47-1.932q-.077-.006-.154-.009m18.585 1.279a75 75 0 0 0-2.96 2.206c.158.367.23.705.553.948l.204-.023c1.04-.073 1.77-.559 2.442-1.35.312-.366.464-.678.468-1.171-.165-.34-.356-.455-.707-.61m-10.177.674c-.355.152-.606.204-.844.515.019.336.153.538.321.816l-.067.19c-.903.34-2.607.872-2.925 1.905-.037.12-.024.198-.017.315.568.42 1.335.14 2.007.173.69-.18 1.07-.96 1.426-1.525.482-.2.944-.372 1.45-.497l.46-.549c-.576-.672-1.017-.974-1.81-1.343m26.915.66c-.17.425-.339.788-.174 1.249.368 1.021 2.1 2 3.084 2.347.085-.018.226-.031.3-.074.228-.362.369-.476.345-.912-.784-1.274-1.736-1.511-2.95-2.183-.218-.12-.386-.311-.605-.426m-7.474.434c-.643.414-1.487.963-1.759 1.717-.049.137-.047.252-.055.392.185.216.26.287.573.284.111-.002.289-.05.4-.076.527.024.843-.03 1.245-.413.247-.235.457-.601.485-.946.018-.228-.071-.394-.167-.59-.26-.223-.368-.33-.722-.368m3.446.834c-.073 1.146-.085 2.177.697 3.114.31.37.666.715 1.005 1.06.295-.298.583-.614.891-.896.219-.266.463-.789.424-1.14-.073-.658-.752-1.465-1.297-1.8-.718-.441-.85.081-1.72-.339m-31.987.447c-.703.253-1.878.99-2.246 1.684-.086.161-.028.243.008.408.25.158.545.293.846.294.584-.215 1.154-.433 1.762-.567q.02-.056.044-.11c.084-.181.03-.09.159-.203.24-.21.41-.685.397-.998-.01-.212-.126-.285-.252-.44-.255-.054-.458-.093-.718-.068m47.218.198c-.27.245-.623.45-.664.843-.032.305.086.532.248.775.203.103.522.28.752.217.343-.393.788-.774.815-1.308-.281-.326-.739-.445-1.15-.527m-24.917 1.016c-.517.416-1.053.82-1.537 1.275.354.735.423.86 1.171 1.194.44.197.7.412 1.018.767.768.094 1.57.056 2.323.173l.064-.115c.336-.596 1.109-1.065 1.016-1.792-.322-.201-.84-.152-1.228-.214-.373-.06-.702-.04-1.075.002l-.219-.173.028-.186c.023-.176.031-.324.024-.5-.385-.281-.678.019-1.039-.19-.172-.1-.345-.224-.546-.241m-29.038.43c-.809.157-1.849.61-2.354 1.292-.174.236-.15.294-.11.566.27.249.587.296.944.283.297-.01.594-.038.891-.065.641-.095 1.772-.676 2.139-1.232.087-.131.102-.216.143-.357-.088-.185-.06-.233-.268-.308-.314-.112-.63-.095-.95-.178-.172-.046-.262-.035-.435 0m37.87.458c-.588.404-1.52.402-2.22.486-.088.72-.284 1.547-.11 2.257l.19.198c.298-.013.435-.117.678-.282l.155-.198c.274.128.474.286.71.472.254-.005.176.046.332-.126.432-.475.66-1.581.591-2.207-.024-.22-.146-.47-.326-.6m-13.112.508-.095.096c-.719.703-1.794.879-2.213 1.853l.033.33c.364.279.94.197 1.365.138.349-.049.69-.118 1.033-.197.318.32.664.773 1.106.905.408.285.885.686 1.418.604.179-.028.229-.13.349-.25.085-.342.104-.532.043-.889-.756-.834-1.366-.641-1.396-1.943-.542-.422-1.087-.083-1.643-.647m29.154.976c-.334.303-.738.597-.9 1.027.042.382.021.365.313.61.694.146 1.104.041 1.646.52.137.393.17.758.61.917.154.056.345.033.503.06.093.017.188.06.275.098.276-.002.394-.007.619-.172.03-.279.03-.292-.155-.52-.522-.64-1.34-1.533-2.01-2.014-.166-.119-.34-.105-.509-.198-.151-.084-.212-.196-.337-.303-.015-.013-.036-.017-.055-.025m-60.574.521c-.994.753-2 1.312-2.824 2.273-.102-.477-.191-.956-.355-1.417-.99.345-1.536.78-2.26 1.526-.072.391-.096.614-.007 1.002.215.2.283.286.603.222.043-.009.08-.038.12-.057.498-.398 1.208-1.103 1.805-1.297l.223.105c.14.41.173.718.51.999.379-.01.433-.021.75-.225a8 8 0 0 0 .387-.94c.663-.435 1.963.344 2.093-.657.05-.379-.097-.994-.364-1.27-.217-.09-.453-.218-.681-.264m10.419.8c-.656 1.141-1.082 2.388-1.853 3.471.177.283.338.313.635.453.303-.034.45-.053.637-.315.255-.356.412-.799.636-1.177l.246-.01c.48-.014.818.11 1.251.293.334-.13.367-.146.573-.437.076-.564-.087-1.011-.423-1.468a1.8 1.8 0 0 0-.43-.402l-.308.135a5 5 0 0 1-.748-.427c-.127-.086-.071-.054-.216-.116m-3.133.815c-.817.452-1.404.967-2.008 1.685l1.345.729c.435-.044.924-.216 1.201-.577a1.14 1.14 0 0 0 .186-.898c-.094-.408-.4-.703-.724-.94m20.861.027c-.304.147-.954.364-1.105.653-.02.04-.047.219-.054.254-.159.828-1.001 2.145-.606 2.82.545-.05.942-.098 1.3-.562.623-.806.782-1.951.593-2.933-.033-.172-.012-.12-.128-.232m4.049.064c-.464.369-.834.504-1.414.596-.448.546-1.213 1.267-1.124 2.032.026.226.056.4.206.57 1.05-.33 1.66-.96 2.15-1.938.223-.444.316-.736.211-1.232zm-17.267.646c-1.08.355-.362.784-1.611.716.293.687.527 1.402 1.07 1.935.278-.386.323-.548.329-1.011.002-.227-.037-.462.13-.623l.204.093c.17.078.325.134.51.171l.162-.141c.023-.368-.124-.562-.282-.891-.198-.148-.263-.191-.512-.249m6.036.078c-.453.707-1.437 1.811-1.32 2.66.161.24.188.26.493.3.2.027.347.015.539-.039.563-.639 1.347-1.34 1.422-2.232-.118-.319-.132-.414-.393-.625zm2.786.094-1.187 1.243c-.041.465-.142.834.058 1.267.214.103.418.2.645.271.445-.203.633-.478.81-.93.137-.348.23-.889.117-1.252-.07-.227-.288-.43-.443-.6m-7.078 1.088c-.224.375-.252.54-.134.975.1.368.303.606.542.889.195.038.388.08.586.106.143-.424.263-.778.025-1.204-.212-.38-.624-.623-1.019-.766m-4.496 2.866c-.241.334-.432.48-.402.916.036.54.287 1.254.563 1.712.491.105.5-.239 1.428-.014.356-.136.408-.167.644-.464.004-.444-.178-.752-.49-1.058-.344-.337-.6-.505-1.04-.67a1.9 1.9 0 0 1-.703-.422m34.293.001c-2.261 1.496.043 2.414-3.454 2.017-.237.697 1.063 5.244 1.502 6.147.979 2.015 2.99 3.626 5.061 4.403.245-.242.51-.494.615-.833.533-1.712.584-4.634.954-6.58.166-.878.745-1.814.774-2.684.007-.22-.059-.427-.121-.634-.195-.184-.13-.164-.425-.208-.256-.038-.47-.116-.63-.336-.103-.14-.165-.323-.23-.483l-.268-.648c-.206.414-.358.8-.732 1.087-.282.046-.3.078-.535-.103-.308-.238-.697-.819-1.079-.895-.408-.083-.815.164-1.19-.108-.174-.127-.098-.091-.243-.142m18.191.218c-.032.064-.067.127-.097.192-.297.641.203 1.597-.655 1.91-.272.1-.571.158-.853.225.14.861 1.629 1.615 1.208 2.642-.411.24-.893-.13-1.172.006-.4.195-.37.755-1.006.607-.303-.071-.496-.202-.646-.48-.174-.322-.27-.68-.394-1.023-.08-.22-.05-.144-.224-.355l-.147-.03c-1.03-.222-1.372-.999-1.89-1.843-.25-.408-.298-.791-.334-1.266-.842 1.01-2.032 1.966-2.665 3.107-1.65 2.972-2.08 10.913-1.774 14.334.125 1.393.308 2.781.42 4.175.153 1.91.025 6.82 1.556 8.167a.87.87 0 0 0 .696.224c1.34-.16 4.18-2.422 5.686-3.113 2.085-.956 4.234-1.457 6.415-2.109 1.35-.404 2.608-.977 3.892-1.547 3.288-1.458 4.737-2.264 6.838-5.297.743-1.072 3.246-4.803 3.093-5.98l-.129-.081c-.298.248-.295.324-.676.284-.638-.066-.944-.283-1.418-.702-.316.248-.413.403-.823.413a21 21 0 0 0-.751-.526c-.26.12-.181.03-.282.217l-.464-.165-.144.159.357.355c-.154.734-.594 1.608-.913 2.292-.539-.319-1.068-.634-1.57-1.011-.162-.553-.213-.99-.765-1.272-.644-.328-1.569-.513-2.255-.216a1.07 1.07 0 0 0-.63.695c-.138.456-.198 1.501-.671 1.728-.44.212-1.136.184-1.603.06-.128-.118-.255-.169-.264-.356-.044-.914 1.366-1.77.92-2.673-.319-.027-.474.078-.722.27-.87.675-1.6 1.548-2.452 2.255-.75.076-1.412.193-2.162.053l-.19-.197c.185-.693 1.268-1.139 1.022-1.855-.286-.13-.283-.135-.584-.053-.331.383-.58.785-1.095.881-1.008-.346-1.468-1.54-1.947-2.412.536-.196 1.7-.805 2.209-.684l.33.25c.2-.224.14-.249.127-.544-.018-.379-.072-.485.18-.799.296-.367.969-.751 1.361-1.029.486.029.995.015 1.345.406.186.208.22.514.181.781-.05.345-.125.681-.17 1.029l.13.146c.347-.083.488-.078.713-.375.126-.165.22-.388.315-.573.45-.344 1.144-.068 1.502-.358.452-.368 1.946-3.326 2.04-4.015.064-.478.014-.96.437-1.277.385-.289.865-.492 1.296-.703l.106.102c.795.765 1.737 1.238 2.222 2.272 1.137-.84 1.747-2.367 2.554-3.513-.687-.487-2.243-1.665-3.105-1.558l-.116.17c.147.517.475 1.022.43 1.565-.144.173-.09.184-.29.199-1.179.086-2.408-.846-3.215-1.593-.296-.014-.157-.014-.415-.004l-.055-.156-.203.038c-.302.627-.127 1.625-.851 1.89-.714-.137-1.304-.908-1.787-1.413.112.466.283.905.086 1.367-.275.267-.417.398-.83.393-.64-.009-1.367-.266-1.975-.46-.267-.492-.494-1.059-.962-1.386a2.2 2.2 0 0 0-.72-.051c-.356-.244-.315-.544-.606-.806m-26.945 1.086c-.296.487-.635 1.235-1.217 1.406a.66.66 0 0 1-.515-.07c-.294-.164-.512-.566-.689-.845l-1.426.92q1.175.825 2.376 1.611c.758.42 1.953 1.27 2.858 1.014.214-.06.27-.184.41-.343.29-.971-.26-2.385-.69-3.28a2.6 2.6 0 0 0-.256-.404c-.316-.062-.536-.048-.851-.01m55.077 3.83c-.672.49-1.018.811-1.32 1.587l.086.24c.425.08.83-.182 1.183-.392.449.108.56.18.967-.083a.8.8 0 0 0 .284-.312c-.016-.303-.057-.484-.281-.709-.293-.295-.536-.294-.92-.331m-18.898 1.23c-.436.45-.893.83-.933 1.477l.218.348q.12.017.238.038c.156.029.31.067.465.1l.318.12.234-.109c.141-.56.052-1.06-.127-1.6-.134-.13-.258-.27-.413-.374m2.675.081a29 29 0 0 0-.48 2.248c.179.41.225.682.6.936l.484-.06c.268-.7.503-1.38.684-2.106-.411-.38-.789-.753-1.287-1.018m4.182.022c-.426.471-.947.968-.92 1.656.013.349.092.414.331.629.277-.024.413-.015.596-.26.063-.084.137-.265.181-.364l.08-.21c.4-.134.816-.23 1.137-.517l.026-.23c-.36-.343-.926-.686-1.43-.704m18.072.641c-.273.314-.645.655-.747 1.063l.113.21c.168.03.34.069.512.077.295-.281.774-.633.86-1.034-.198-.268-.258-.233-.578-.293q-.08-.014-.16-.023m-100.118 4.3-.054.122c-.488 1.087-2.13 1.242-1.861 2.617.243.203.383.267.708.257.523-.016 1.026-.189 1.556-.184-.042.291-.128.412.027.672.309-.138.42-.357.594-.63-.175-.436-.7-.358-.465-.906.155-.362.546-.826.343-1.217-.173-.33-.54-.547-.848-.732m-5.574.47c-.41.238-.824.471-1.224.727q.016.086.028.172c.097.664.022 1.055-.2 1.688.255.441.517.836.843 1.228l.297.071c.072-.052.195-.123.25-.192q.102-.07.205-.138c.43-.279.923-.264 1.252-.681-.166-1.15-.367-1.89-1.099-2.803zm96.644.31c-.067.445-.064.595-.346.96-.797.389-1.665-.467-2.36.227-.102.31-.205.605-.338.903-1.521.524-1.301-1.37-2.501 1.108-.476.982-1.014 2.08-1.28 3.139.644-.102 1.289-.198 1.927-.335 2.129-.274 4.903-.506 6.302-2.394.194-.262.287-.544.374-.855l-.042-.164-.512-.101c-.654-1.2.926-1.437-1.224-2.488m-137.334 2.47.1.039zm43.824.002.065.038zm49.412-.063c-.014 1.992.826 3.464 1.278 5.343.332 1.38.313 2.986.321 4.403.012 1.932-.148 3.88-.24 5.81-.098 2.073-.126 4.15-.286 6.22-.042.543-.527 3.361-.511 3.49.004.036.016.069.024.103.284.123.449.18.756.078 1.061-.35 2.276-1.902 2.675-2.898q.065-.163.125-.327c-.566.408-1.411 1.414-2 1.608l-.214-.13-.005-.228c.93-.919 2.533-1.372 2.535-2.875 0-.19.01-.093-.109-.327-.642.278-1.416 1.141-2.143 1.06.299-1.33 3.39-2.417 2.829-3.805-.76-.08-2.246 1.24-2.902 1.682.904-1.396 1.472-1.677 2.784-2.64.085-.361.135-.577.016-.945l-.22-.142c-.972.212-1.843.96-2.812 1.314l-.12.044c.627-.737 1.74-1.515 1.967-2.457-.056-.272-.022-.31-.234-.508-.648.203-1.212.743-1.81 1.074.589-.725 2.91-2.722 3.017-3.314-.425-.089-.79.126-1.139.355-.528.349-.957.623-1.56.838q.035-.056.072-.11c.375-.553 2.334-2.405 2.413-2.697.036-.131-.016-.272-.023-.409l-.178-.073c-.527.276-.956.885-1.511 1.023-.14-.243-.08-.312-.005-.57.148-.498.401-.996.77-1.363l-.641.26-.177-.08c.05-.249.111-.478.195-.718l-.104-.255c.281-.34.681-.634.923-.986l-.046-.189c-.466.081-.92.187-1.38.3v.002l-.115-.38c.676-.532 1.263-1.005 1.803-1.683l.143-.175q.041-.054.084-.107c-.68.376-1.642 1.243-2.403 1.028-.133-.176-.225-.243-.253-.467.844-.835 1.818-1.665 2.524-2.618-.712.416-1.464.938-2.275 1.112l-.12-.15c.18-.6.652-1.087 1.014-1.592-.431.114-.884.299-1.316.123-.661-.577-.435-1.424-1.416-2.052M78.53 60.371c-.247.136-.223.161-.524.135-.414.31-.655.41-.737.949-.06.392-.104.788-.15 1.183.637.202 1.243.382 1.814.74.152.056.217.134.37.043.46-.273.715-.995.809-1.491.056-.297.05-.502-.06-.79a3.3 3.3 0 0 0-.514-.263c-.29-.127-.452-.304-.662-.53-.286-.02-.175-.052-.347.024m3.892-.108c-.358.337-.83.773-.819 1.311.006.293.036.443.261.637.113.098.232.186.352.275.384-.236.67-.398.81-.849.115-.368.023-.589-.111-.925-.164-.15-.324-.307-.493-.45m-5.889 2.55h.153zm5.121.298.133.047zm.334.48c-.652.316-1.451.447-2.143.71.297.386.605.762.853 1.181.529-.251 1.615-.62 1.857-1.182.067-.155-.017-.265-.067-.414-.184-.152-.257-.273-.5-.295m-6.009.39c.024.265.06.518.098.782.08.544-.119 1.113-.065 1.688.262-.036.377-.09.614-.197a4.6 4.6 0 0 1 1.027-.328c.195.084.321.156.476.302.23-.262.288-.63.388-.961l-.195-.345a8 8 0 0 1 .364-.574c-.484-.103-.972-.088-1.464-.093l-.12.133.617.248-.056.154c-.64-.09-1.082-.609-1.684-.81m-26.864.12-.55.492.036.193.282.128c.237-.22.427-.288.45-.624zm-.795.212h.116zm68.845.528a16 16 0 0 0-.52 1.528c-.531-.132-1.026-.26-1.529-.485l-.376.066c-.021.233-.006.335.047.556-.232.176-.434.186-.719.123-.544-.119-1.015-.517-1.497-.78 2.75 2.718 3.305 3.672 7.01 5.222.385.161.827.524 1.226.568.13.014.174-.007.292-.037.29-.764.566-1.546.896-2.294.504-1.145 1.683-2.75 1.338-4.063l-.211-.165c-.678.502-.82 1.966-1.92 1.94-.165-.004-.31-.139-.407-.258-.183-.224-.29-.706-.358-.977-.725.323-1.453.912-2.219 1.083-.301-.155-.5-.275-.646-.595-.148-.324-.16-.776-.239-1.127-.04-.178-.033-.124-.168-.305m-90.435.92c-.236.308-.473.548-.478.957.178.24.306.355.624.369.202.01.427-.041.626-.076l.244.105c.095-.261.074-.465-.045-.719-.224-.479-.512-.497-.971-.637m46.275.002c-.43.356-.87.617-.954 1.21-.045.312.06.606.27.836.228.248.326.334.667.38.031.005.063.001.095.002.444-.372 1.089-1.114 1.114-1.726.013-.33-.072-.433-.276-.657-.326-.093-.585-.073-.916-.045m-23.176 1.405-.394.46c.084.256.007.164.208.295l.413-.521c-.095-.215-.018-.139-.227-.234m59.016.27h.216zm-5.044.953-.054.131.157-.046.098-.145zm-15.857.244.071.045.01-.009zm-39.94.704c-.286.18-.42.216-.557.531.237.18.442.146.726.146l.613-.323.015-.127zm-13.25 1.145c-.317.552-.795 1.254-.787 1.905.194.262.247.266.584.33.131.026.376.05.498.034.391-.232.823-.43 1.053-.839-.003-.26.005-.315-.191-.512-.365-.367-.82-.483-1.158-.918m161.556.368c-.758.48-1.901 1.336-2.008 2.317-.028.257.068.265.227.404l.063.013c.558-.216.75-.325 1.074-.811.311-.469.965-1.183.956-1.769-.221-.159-.111-.122-.312-.154m-4.185.819c-.47.56-1.367 1.698-1.28 2.456.006.053.023.105.034.157.242.145.313.143.598.153.591-.535 1.447-1.308 1.438-2.17-.003-.205-.1-.296-.202-.462a2.2 2.2 0 0 0-.588-.134m-29.056.811c-.412.623-.855 1.947-.718 2.722.007.04.022.077.033.116l.143-.016.3-.73c.294-.344.329-.496.371-.947l.694-.06.125-.192c-.334-.223-.633.012-.888-.31.015-.23.097-.403-.06-.583m-1.088.715-.124.108c-.697.63-.891 1.356-1.183 2.21.034-.498.163-1.161-.015-1.63-.844.503-.857 1.834-1.493 2.508-.248-.673.309-1.487.367-2.177-.494.766-.95 1.478-1.154 2.38.01.413-.049 1.002.13 1.376l.178-.02c.161-.473.069-.909.385-1.295l.131.032c.156.035.268.035.425.022.544-.584.515-1.38.69-2.115.041.58-.037 1.789.234 2.249.475-.466 1.722-2.298 1.75-2.955.014-.298-.05-.383-.198-.628zm36.145.6c-.27.286-.397.366-.481.759.15.333.315.408.616.588.278-.282.423-.37.513-.763-.197-.342-.316-.387-.648-.584m-40.613 3.158c-.114.445-.19.775-.129 1.233.153.18.128.189.372.266-.031-.354.008-1.273-.243-1.5m-35.562 1.896-.115.234c.028.035.052.073.084.105.678.672 3.245 1.321 4.203 1.674q2.335.872 4.58 1.958c1.97.95 4.428 2.552 6.605 2.83.194.025.218.014.385-.004l.25-.24c-.915-.467-3.335-2-4.028-2.223-.176-.056-.533.013-.72.035-.487-.46-1.117-1.201-1.705-1.504-.516-.267-1.932-.312-2.229-.695-.836-1.079-2.967-.8-4.118-1.421-.349-.188-.153-.454-.698-.532-.831-.119-1.64-.046-2.494-.217m-103.42 1.222a20 20 0 0 0-.831 1.92l.16.022c1.289.174 2.632.115 3.902.392 2.462.537 12.533 3.826 13.862 5.534.126.16.24.329.357.497l.03.041c.19 2.903.437 5.823 1.475 8.564 1.009 2.66 2.409 4.974 2.936 7.822.51 2.756.962 5.751.884 8.558-.116 4.204-.913 7.793-.408 12.18.35 3.039 2.65 5 3.389 7.833.765 2.935.3 6.248.727 9.263.298 2.106 1.468 3.853 1.464 6.055-.002 1.701-.629 3.382-.835 5.065-.199 1.618-.03 3.216-.101 4.831l21.815-.897c2.482-.121 5.009-.132 7.48-.346-.059-.75-.088-1.517-.209-2.258-1.518-10.114-2.692-19.512-5.405-29.44-.746-2.73-1.537-5.524-2.512-8.181-.826-2.25-1.941-4.43-2.466-6.777-.5-2.234-.355-4.612-.563-6.889-.267-2.928-1.604-12.44-3.949-14.246-.768-.591-1.713-.99-2.586-1.402-4.142-1.958-6.837-2.454-11.31-3.142-1.023-.157-2.343-.5-3.37-.367a2 2 0 0 0-.445.123c-.172.767.638 1.689.813 2.479.181.82.106 1.633.052 2.463l-.101-.1c-.681-.72-1.079-1.66-1.579-2.506-.623-1.056-1.587-2.014-2.535-2.783-.805-.653-1.836-1.093-2.822-1.394-3.236-.991-6.774-1.382-10.109-1.922-2.273-.368-4.739-.917-7.035-.988zm84.18-.03-.07.137c-.444.852-1.522 1.035-1.55 1.825.209.252.406.434.66.636.113.27.164.481.19.773l.121-.012c.53-.512 1.825-1.518 1.872-2.321a.77.77 0 0 0-.302-.69c-.208-.173-.67-.278-.922-.349m-4.723.281c-.065.155-.16.504-.26.619-.188.214-.807.306-.631.642.026.048.192.246.231.294-.143.507-.337.822-.053 1.317q.148.259.324.5c.214-.047.33-.022.474-.192.175-.207.1-.12.327-.317.291-.255.37-.53.384-.91.023-.611-.23-1.374-.66-1.818q-.066-.068-.136-.135m7.474.022c.045.488.15.933.534 1.273.423.373.868.421 1.41.427-.021-.448-.059-.671-.388-.989-.411-.397-1-.627-1.556-.712m-13.537.563-.096.83c-.558.264-1.233-.065-1.642.479-.036.522.12.825.376 1.273.762-.257 1.388-.698 1.754-1.446.109-.222.19-.493.067-.729-.132-.254-.192-.323-.459-.407m-5.383.569c-.382.272-.753.479-.957.913.11.241.17.35.458.418.105.025.291.013.402.008l.278.158c.422-.236.856-.461 1.261-.724-.404-.247-.98-.746-1.442-.773m-20.683.335H66zm17.828.305c-.355.19-.819.372-1.047.709.135.199.04.132.293.184.357-.167.829-.325 1.072-.637l-.101-.197zm-65.724.776c-.383.094-.628.073-.862.419-.554.817-.923 2.1-1.271 3.036-1.675 4.503-2.86 9.1-4.316 13.666l.168.052c.52.156 1.275.12 1.69.432-.14.269-.29.36-.524.539.076.654 4.453 4.368 5.127 5.427 1.201 1.888.349 3.266.516 5.22.045.53.257 1.103.41 1.613.7.175 1.232.346 1.8.81 2.933.034 8.36.962 10.966.316l-.04-.103c-.872-.224-1.773-.233-2.661-.364-1.448-.214-4.418-.863-5.711-1.484-.53-.255-1.066-.72-1.569-1.048 1.488-.114 2.96.07 4.442.16 3.634.223 7.149.456 10.738-.286-.67-.07-1.413-.206-2.084-.164-.494.031-.97.142-1.469.128-1.518-.044-3.084-.27-4.59-.463a60 60 0 0 1-4.583-.784c-.977-.203-1.84-.5-2.846-.581 1.321-.924 5.865-.157 7.51-.139 1.483.017 3.755-.122 5.164-.612-.701-.544-10.112-.47-12.723-1.68.212-.27 1.454-.435 1.809-.481 2.566-.336 8.04.085 10.094-.697.968-.369 3.323-.588 3.734-.904l-.023-.133c-1.798.19-3.672.442-5.484.352-1.47-.074-2.893-.376-4.346-.571l-.175-.031c-1.037-.18-2.309-.123-3.253-.613l.03-.192c1.022-.589 2.138-.411 3.244-.682.727-.179 2.608-.008 3.018-.488-.1-.23-.138-.248-.364-.348-1.375-.601-5.032-.476-6.013-1.086 1.633-.866 11.311.168 12.698-.942l.019-.258c-.172-.193-.189-.31-.457-.33-.214-.017-.37.023-.578.065-.544.11-.881-.14-1.39-.164-.595-.028-.587.26-1.55.06-.942-.198-1.965-.03-2.941-.167-1.625-.226-3.325-.434-4.922-.8-1.19-.274-2.36-.66-3.541-.97-1.009-.265-2.066-.466-3.049-.812l.177-.032c1.533-.272 3.342-.262 4.897-.188 1.765.085 6.951.989 8.204.341.452-.233.935.058 1.395-.232l-.022-.17c-1.044-.35-2.52.001-3.627-.038-2.962-.103-6.504-.67-9.225-1.843q3.142-.13 6.286-.19c1.93-.026 4.233.195 6.104-.234.582-.133 1.517.39 1.873.22.012-.351.045-.456-.128-.755-.214.005-.32.038-.527.103-.529.167-1.259-.011-1.815-.023-2.245-.047-7.36-.09-9.255-1.172a6 6 0 0 1-.69-.473l.173-.176-.22.064c.045-.011.09-.027.136-.033.34-.042.703.094 1.03.181a1.1 1.1 0 0 0 .434-.302c1.085-.066 8.656-.31 9.103-.721-1.948-1.055-7.915-.4-9.309-1.654.066-.283-.01-.194.233-.345 1.331-.833 4.64.254 5.912-1.028-.043-.303-.108-.484-.367-.674-.669-.49-1.483-.825-2.18-1.286-.886-.587-1.683-1.308-2.577-1.886-1.594-1.032-3.987-1.305-5.857-1.372m128.868 1.583c-.374.293-.736.514-.911.97.014.265.067.355.231.562.312-.19.66-.393.797-.755.104-.274.037-.475-.08-.726q-.015-.027-.037-.051m-61.999.273.085.036zm-20.264 4.589c.17 1.46.268 2.958.544 4.401.436 2.28 1.072 4.517 1.431 6.814.487 3.117.54 6.416 1.348 9.464.253.957.671 1.653 1.234 2.448-.044-.475-.126-.94.016-1.405l.114.018c.274.555.44 1.293.892 1.715l.13-.01c.218-.013.141-.009.402.015 1.44 2.691.117 5.45.47 8.3.608 4.908 2.097 9.662 2.86 14.56.78 5.002.997 9.924 1.308 14.963.139 2.25.424 4.493.578 6.744 1.64-.077 11.639-.346 12.245-.69.085-.048.132-.144.199-.216.349-1.253.018-2.784-.128-4.064l-2.791-22.58c-.333-2.706-.463-5.466-.87-8.154-.377-2.506-1.056-4.958-1.491-7.452-.376-2.157-.509-4.367-.928-6.515-.26-1.334-.735-2.63-.953-3.97-.373-2.293-.3-8.125-1.822-9.68l-.176.028c-.225 1.085.494 5.275.58 6.66l-.075-.155c-1.926-4.005-1.761-8.867-6.715-10.635-1.714-.612-3.674-.626-5.47-.56-1.012.037-1.93.167-2.932-.044m77.985 1.849-.048.071.053.02.082-.073zm2.263.635c-.73.703-2.26 1.703-2.611 2.553.002.573.281.895.605 1.333-.184 1.813-.486 3.617-.62 5.435-.257 3.457-.24 7.064-.405 10.545-.15 3.164-.499 6.319-.633 9.481-.03.697-.228 1.915.03 2.532l.391-.109.108.073c-.33.478-.747.735-.895 1.334-.217.877.253 1.909.215 2.81-.043 1.018-.439 1.968-.333 3.008l.143.178c.373-.323-.06-.871.501-.925.234.157.32.158.425.43q-.114.106-.23.21c-.748.68-1.126 1.344-1.162 2.373-.059 1.718.156 3.46.052 5.174-.053.88-.36 1.745-.37 2.625-.003.298.04.666.257.886.2.202.401.295.65.425.084.194.132.185.044.393-.397.935-1.573 1.382-1.155 2.589.12.346.413.45.73.58q.295.12.593.234c-.03.226-.085.29-.272.439a8 8 0 0 1-.361.22c-.616.374-.73.896-.894 1.564-.337 1.376.392 3.473-.23 4.513l-.241.403c-.02.5.31.849.633 1.197.606.655 1.359 1.123 2.271 1.153.786.027 1.957-.251 2.518-.837.177-.184.136-.092.127-.34-1.326-.63-3.079 1.234-4.278.132.101-.383.311-.559.65-.76 1.527-.909 3.223-.84 4.88-1.294.901-.248 4.61-1.917 4.895-2.745-.214-.253-.198-.196-.502-.243-.561.207-1.04.524-1.583.754-2.02.853-4.017 1.264-6.18 1.533-.496.061-1.046.27-1.533.138-.022-.261.092-.344.258-.543 1.06-1.277 3.052-1.389 4.507-1.934.942-.352 4.557-2.278 4.849-3.094l-.124-.174c-1.05.01-1.981 1.17-3.02 1.482-1.264.38-5.526 1.84-6.565 1.382l.056-.096c.157-.27.26-.49.33-.799 1.54-1.372 8.24-3.52 8.766-5.328l-.13-.221c-.881.062-2.676 1.278-3.575 1.693-1.337.617-2.59 1.138-4.047 1.402-.445-.235-.882-.415-1.165-.85-.016-.177-.076-.28.05-.425.507-.584 1.97-.673 2.705-.952 1.809-.685 4.636-2.032 5.75-3.718l-.078-.144c-2.428.257-5.842 3.603-8.276 2.445l-.101-.208c.483-.683 2.195-1.052 2.959-1.427 1.12-.55 4.952-2.771 5.296-3.85-.26-.125-.442-.069-.71.016-1.545.489-6.873 4.06-7.914 3.852-.043-.196-.082-.179.01-.334.212-.356.709-.573 1.022-.848.536-.471.916-1.029 1.499-1.473 1.178-.897 5.647-3.328 6-4.486-.89-.13-2.79 1.275-3.692 1.645-1.43 1.121-3.051 1.84-4.765 2.422.238-1.059.413-2.117 1.384-2.77.847-.568 1.949-.386 2.686-1.036 1.335-1.176 3.043-1.925 4.302-3.154l-.035-.164c-.9-.23-3.038 1.23-3.879 1.73-.775.461-1.376.932-2.266 1.161-.493.127-.871.232-1.28.542-.157.32-.207.624-.294.964-.062.239-.032.154-.21.361l-.213-.078c.188-.945.568-1.823.57-2.79 2.414-1.691 5.261-3.072 7.412-5.086-.57.127-1.159.248-1.696.48-1.073.462-3.797 2.343-4.816 2.123-.088-.333-.023-.519.046-.846-.13-.306-.206-.377-.519-.502-.178-.071-.37-.119-.554-.17l-.067-.171c.504-.42 1.574-.593 2.208-.81 1.238-.424 3.326-1.424 4.087-2.484l.02-.279-.213-.131c-1.152.295-4.164 1.825-5.123 1.51l.08-.421c-.371-.196-.76.122-.997-.17.575-.445 1.618-.557 2.316-.805 1.623-.577 2.921-1.651 4.135-2.838-.942.237-1.956.675-2.903.796-.399.052-1.255-.073-1.577.055-.328.131-.312.476-.713.325-.011-.263-.051-.158.144-.373 1.266-1.403 3.294-1.314 4.776-3.546-.687.288-4.399 1.746-4.91 1.663-.057-.389.168-.736.396-1.035 1.114-1.454 2.964-2.065 4.154-3.435l.133-.15.079-.091c-.959.394-3.053 1.485-4.045 1.205-.165-.047-.156-.15-.218-.292.04-.101.043-.225.117-.303.339-.352 1.072-.542 1.508-.804.668-.4 2.688-1.794 3.025-2.394l-.071-.1c-1.03.252-2.912 2.056-3.832 1.52-.021-.41.168-.607.44-.902.683-.74 2.653-1.924 2.882-2.812l-.131-.078c-1.294.55-2.577 1.948-4.085 1.782-.255-.157-.307-.172-.432-.44.42-.479 1.075-.79 1.594-1.158 1.394-.989 2.979-2.252 3.999-3.637-.95.467-4.466 2.309-5.332 2.239l-.071-.136c.439-.65 1.212-1.023 1.817-1.5.508-.402 2.463-2.15 2.722-2.645l-.067-.225c-1.435-.058-2.94 2.181-4.406 2.025l-.138-.161c.143-.25.173-.25.395-.405.452-.314.532-.843.955-1.232 1.178-1.082 2.532-1.96 3.592-3.174l-.162.054c-1.088.37-3.281 1.85-4.365 1.573-.028-.248-.06-.147.098-.356.953-1.269 3.532-2.216 4.13-3.612l-.084-.19c-1.086.002-3.506 2.205-4.307 1.62-.032-.465.18-.816.476-1.159 1.119-1.294 2.878-2.054 4.2-3.154l-.145.058c-.985.407-3.5 2.386-4.421 2.07-.062-.596.867-1.603 1.229-2.052.377-.468.792-.89 1.238-1.29.442-.396.66-.814.796-1.384l-.05-.218c-.307-.027-.45.026-.694.209-.766.573-1.641 2.253-2.576 2.352-.128-.115-.238-.153-.256-.337-.137-1.442 2.243-3.323 2.235-4.203-.255-.15-.135-.107-.347-.157m-2.737.524.063.027zm78.695 8.683c-3.442.732-5.828 1.56-7.837 4.617-2.451 3.728-1.843 7.747-4.061 10.958-.983 1.422-2.504 2.121-3.593 3.394-.402.472-.554.625-.537 1.247a1.7 1.7 0 0 0 .543.088c.483.018.913.29 1.39.205-.404-.32-.92-.104-1.159-.538.106-.311.127-.389.427-.566 1.238-.733 5.478.485 6.372-1.582.324-.75.279-1.753.368-2.562.42.221.811.443 1.206.709 1.64 1.105 3.078 1.311 5.004.925a6 6 0 0 0 1.254-.381l.08-.165c-.336-.299-.85-.28-1.277-.278-.556-.138-1.2-.195-1.655-.553l-.049-.101c.133-.183.488-.22.707-.257.959-.162 1.891-.102 2.849.015l-.075-.137c-.672-1.196-1.951-1.528-2.966-2.362.646-.633 2.78-.103 3.09-.754-.36-.471-1.071-.424-1.441-.91.05-.3.065-.305.298-.483.416-.317.909-.05 1.352-.218.737-.281 1.365-.907 2.103-1.235-.758-.107-1.832-.114-2.39-.69l-.017-.193c.238-.117.748-.3.867-.548.018-.039.023-.084.035-.125-.124-.196-.075-.21-.262-.261-.963-.266-2.091.291-3.115-.03l-.131-.213c.785-1.014 3.578-.908 4.719-1.481-.803-.688-2.461.337-3.073-.74.38-.556 1.182-.726 1.82-.851.43-.085 1.596-.13 1.844-.437-.733-.459-2.144.213-2.83-.568.593-.764 2.073-.64 2.723-1.293a1.06 1.06 0 0 0-.773-.334c-.762-.031-1.89.294-2.494-.289q-.216-.207-.422-.425c.557-.09 1.506-.404 2.026-.368l.085-.157c-.348-.066-.65-.137-1.005-.073m11.45.382c-3.059.755-4.92 3.591-6.46 6.104-.361.589-.897 1.556-.691 2.27.16.554.873.846 1.357 1.044 1.64-.156 3.149-.588 4.685-1.165l-.116.113c-.837.806-1.911 1.439-2.627 2.35-.808 1.026-1.257 2.403-1.769 3.596-.825 1.92-1.827 3.894-3.186 5.496 1.038.13 3.188-.055 4.024.357.583.287 1.384.166 1.984-.037.268-.091.549-.244.692-.5.379-.675-.412-1.76.39-2.103.575-.246 2.137.196 2.405-.303-.403-.733-.969-1.365-1.495-2.012.072-.43.105-.807.466-1.096.36-.287.873-.457 1.293-.635 1.975.421 3.71.498 5.712.293l-.14-.026c-1.505-.264-4.584.003-5.695-1.03-.04-.181-.094-.23.01-.404.592-.994 2.82-1.398 3.872-1.584.796-.14 1.602-.117 2.399-.225l-.472-.006.089-.052c-1.201-.207-2.112-.582-3.226-1.05l-.125-.207c.045-.15.01-.126.165-.209.478-.256 1.803-.187 2.032-.612-.374-.396-1.416-.611-1.953-.788 1.263-.575 2.369-.905 3.778-.909-.76-.631-1.249-1.234-2.295-1.207l-.114-.124c.238-.563 1.069-.911 1.608-1.13.452-.183 1.05.104 1.401-.118-.208-1.178-1.517-2.462-2.475-3.139-1.644-1.16-3.608-1.13-5.523-.952m-201.6.853-.42.197-.06.236c.8.459 2.873.165 3.85.188l.206-.143c-.118-.215-.143-.224-.379-.28-.45-.106-2.62-.193-3.198-.198m3.977.075-.194.353c.184.206.196.154.455.168q.375.016.751.017l.136-.186c-.3-.284-.74-.316-1.148-.352m186.364 3.222h.193zm-22.926 3.015c-3.168.306-6.074.916-8.208 3.533-.98 1.203-1.17 2.694-2.315 3.881-2.705 2.807-7.46 4.308-10.206 7.127 1.365.086 2.543-.172 3.89-.275.848-.065 1.692-.047 2.54-.132l.054-.083c-.247-.206-.637-.458-.775-.742 1.01-.408 2.55.807 3.588.277q-.073-.065-.144-.131a2 2 0 0 1-.355-.433c.028-.203-.012-.251.164-.39.27-.213.594-.32.94-.28.754.09 1.369.924 2.174.548-.218-.363-.585-.424-.694-.825.788-.6 1.824.15 2.463-.255l-.233-.409c.229-.176.531-.112.808-.074 1.023.138 2.938.924 3.895.614l-.192.007.212-.05c-.475-.143-1.125-.213-1.426-.621-.017-.023-.027-.052-.04-.077l.118-.034c1.33-.365 6.01-.416 6.727-1.101-.931-.717-3.482-.957-4.807-1.528 2.096-.771 4.837-.378 7.048-.417-1.852-.64-3.75-1.173-5.594-1.818l.203-.038c1.834-.331 3.919-.082 5.678-.635l.078-.143c-1.024-.544-2.218-.29-3.3-.947-.686-.417-2.079-.208-2.892-.311 1.88-.614 4.263-1.099 6.235-.712l.032-.174c-1.424-1.397-3.71-1.428-5.538-1.695 1.145-.205 2.29-.422 3.442-.588.742-.107 1.557-.137 2.279-.332-1.828-.464-3.955-1.004-5.85-.737m-112.37 2.064c1.432 5.536 2.193 11.206 2.6 16.908l.23.004c2.728.067 5.374.832 8.133.868 2.103.028 4.386-.72 6.075-.597 1.688.124 5.65 1.752 7.081.701.13-.308.159-.392.049-.729-.127-.388-.404-.518-.765-.642-2.35-.807-3.385.018-5.39-.193-1.977-.208-3.765-.86-5.69-1.25-1.013-.205-2.235-.209-3.204-.521-.234-.076-.4-.222-.57-.394l.02-.196c.398-.181 1.187.028 1.622.12 1.057.222 2.237-.29 3.387-.148l.145-.136c-.767-.649-7.425.068-7.509-.914 1.18-.512 2.55-.47 3.79-.739 1.328-.287 2.638-.605 3.989-.826.784-.128 2.95-.167 3.461-.53l-.057-.129c-1.36-.481-4.465-.281-5.936-.104a2.5 2.5 0 0 1-.552-.009 226 226 0 0 1-5.86-.53c3.789-1.023 7.019-1.034 10.885-1.172 1.14-.04 2.296.045 3.426-.11-1.883-.388-3.686-.79-5.617-.627a1.4 1.4 0 0 1-.534-.07l-.23-.36-.194.015-.003.33c-.991.361-2.355.253-3.397.261l-.208-.122.074-.13c1.168-.209 2.43-.15 3.616-.178-1.629-.349-5.323-1.692-6.575-1.686-.209-.218-.218-.197-.217-.496.215-.057.274-.038.494.02.986.263 2.761-.09 3.812-.105 1.873-.027 3.75.314 5.607.244-.59-.755-9.893-1.295-10.068-2.15.628-.486 4.906-.052 5.546-.312-.106-.445-1.082-.999-1.474-1.28a8 8 0 0 0-.763-.006c-1.03.05-2.23-.49-3.296-.57-.392-.029-.762-.332-1.075-.548 1.478-.02 2.91.3 4.371.465-3.006-1.564-6.054-.824-9.23-1.427m-48.324 3.405c-.873.057-4.591-.072-5.078.293.258.17.394.183.702.183 1.683.028 3.469.079 5.107-.365l.006-.125c-.255-.01-.483-.025-.737.014m-24.057.738-.131.08c-1.075.637-3.493.554-3.84 1.962-.156.63-.062 6.277.168 6.846l.153.112c.39.29.696.54.982.941q-.726.615-1.46 1.22c1.073.08 1.875.458 2.886.653 1.054.203 2.111.459 3.166.644l.16.151c-.105.225-.027.168-.261.246-.942.314-3.237-.258-3.847.114-.046.448-.01.778.287 1.126.427.498 1.42.584 2.023.758 1.228-.413 2.186-.425 3.454-.477q.053-.321.084-.645c.291-.242.564-.208.94-.212 1.323-.015 2.68.226 4.007.28.88.036 5.83-.037 6.386-.476l-.085-.186c-1.654-.524-4.57-.29-6.761-.812-.705-.121-2.774-.299-3.171-.809.46-.313 7.133-.652 8.48-.927-1.558-1.011-3.155-1.194-4.796-1.918-.526-.233-.882-.817-1.41-1.002-1.098-.387-4.571-.72-4.976-1.963.218-.176.27-.152.54-.12 1.645.198 6.436 2.885 7.71 1.978-.31-1.272-1.927-2.825-3.03-3.47-1.736-1.017-5.266-1.722-7.284-2.099l-.147-.151c.158-.236.223-.215.492-.264.41-.076.865-.023 1.281-.019-.303-.49-.646-1.237-1.258-1.37-.12-.026-.247-.024-.367-.051-.1-.023-.273-.098-.376-.14m11.187 2.108c1.197 1.987 3.616.912 5.008 5.375.84.326 2.13.772 2.51 1.68.165.397.117.684-.051 1.06-.101.226-.227.44-.352.651.04.897.946 2.033 1.424 2.798.297.127.573.26.853.422.409.237.647.234 1.102.189l.333-.081c-.07-.246-.142-.371-.262-.592-.666-1.225-.911-2.621-1.262-3.957-.794-3.022-2.02-6.065-5.238-7.053-1.297-.398-2.713-.531-4.065-.492m97.714 6.409c-1.556.068-3.047.673-4.564.99-1.85.385-3.772.583-5.655.737q1.069 5.141 1.745 10.349c.24 1.781.372 3.604.696 5.37.65 3.541 2.098 6.953 3.323 10.32.499 1.371.89 2.846 1.486 4.17 2.85-.067 5.694-.153 8.545-.023 1.789.082 5.352.496 6.892.341.17-.395.205-.771.252-1.196.82-7.544 2.318-15.041 2.942-22.594-2.458-.523-4.499-.207-6.964.082 2.835-1.358 3.964-1.697 7.156-1.667.33-2.153.92-4.532.823-6.707-2.6.013-5.22.092-7.818.008-2.923-.094-5.936-.396-8.86-.18m45.263.521c-2.955.37-6.103-.04-9.084.02.001 2.079.28 4.19.545 6.25 2.008.007 3.85.345 5.81.72l.131.136c-.17.283-.315.332-.64.395-1.622.317-3.276-.283-4.895-.083l-.219.025-.13.02c.546 5.167 1.336 10.25 2.13 15.382.47 3.042.803 7.91 2.18 10.55 2.518.143 5.038.17 7.556.325 2.464.151 4.927.438 7.392.548 3.152.142 6.25-.153 9.398.296 1.117.16 2.15.477 3.243.73.91-.503 1.863-.53 2.826-.84 1.707-.55 3.625-1.516 5.151-2.478 2.332-1.47 4.465-3.378 6.618-5.084 1.207-.956 2.49-1.814 3.695-2.772 1.438-1.142 2.89-2.706 4.624-3.385 3.295-1.287 6.834-1.387 10.211-2.24 2.422-3.37 5.536-7.344 9.004-9.694 1.645-1.115 3.504-1.944 5.347-2.67l3.284-1.086q-3.973-.542-7.973-.8-4.001-.26-8.01-.234c-1.572.012-2.946.533-4.479.73-2.57.329-7.216-.722-9.776-1.445 2.447-.354 4.864-.131 7.324-.16 2.19-.024 4.337-.279 6.517-.346 1.771-.053 3.538.103 5.306.067 2.194-.045 4.39-.255 6.584-.337 1.457-.054 2.938.022 4.389-.106 1.625-.143 3.224-.52 4.854-.636l.09-.093c-.648-.271-1.526-.13-2.226-.194-2.642-.242-5.345-.437-8.004-.49-2.162-.043-4.326.042-6.49-.015-1.874-.05-3.754-.257-5.628-.22-2.404.048-5.067.491-7.356.474-2.762-.02-5.54-.213-8.302-.29-3.903-.108-7.82-.023-11.724-.038-1.49-.006-2.975-.142-4.463-.138-2.8.008-5.584.323-8.377.41-1.326.041-2.641-.117-3.965-.122-2.894-.011-5.767.079-8.667.013-.153.11-.384.344-.545.413-.638.27-2.31.284-3.089.334.946-.69 2.456-.85 3.27-1.591l-.084-.166c-1.026-.282-2.298-.178-3.353-.085M17.509 132.59l-.223.058c-1.839.454-4.219.542-5.757 1.798l-.124.262c1.597.554 4.7-.454 6.51-.524 1.416-.056 6.673.403 7.454.222 2.071-.024 4.555.542 6.548-.01-.598-.476-6.596-.704-7.757-.871-1.183-.17-2.334-.528-3.523-.661-.878-.099-2.394.11-3.128-.274m219.886 1.573-.148.032c-.74.157-1.643.072-2.322.374-1.897.844-6.043 5.18-7.176 6.921a1.15 1.15 0 0 0-.18.492c.47.702 1.638.823 2.408 1.02-1.24.428-2.434.87-3.588 1.499.595-.084 1.198-.151 1.788-.265.793.476 1.88.812 2.579 1.354l-.048.177c-.737.308-1.464-.015-2.206.095-.665.099-1.267.513-1.948.626-1.487.246-3.045.189-4.548.302-1.15.087-2.296.377-3.444.436-.656.033-1.326-.04-1.983-.062-.771-.026-1.495-.002-2.233.26-2.598.922-3.912 3.438-5.873 4.922-.406.307-.958.533-1.418.76.52-.105 1.704-.488 2.154-.255.239.258.405.433.498.785-.2.22-.353.235-.627.319-1.393.428-3.145 2.66-3.986 3.819l-.157.054c-1.994.668-5.822-.022-7.248 1.237l.08.167c1.907.375 7.112.204 9.028-.29 1.118-.289 2.143-.848 3.275-1.11.192-.044.365-.145.527-.015.273.22.45.418.827.388.813-.066 1.456-1.054 2.308-1.207.739-.131 2.377.217 2.912-.269-.702-.648-2.536.073-3.111-.763.126-.428.5-.63.86-.85 2.41-1.04 4.279-.32 6.328-.94l.044-.134c-1.473-.691-3.24-.576-4.69-1.218l.006-.147c1.268-.452 3.305-.668 4.607-.344.36.089.711.165 1.054-.029.104-.059.142-.105.22-.184-.154-.286-.381-.314-.682-.4-.578-.166-1.274-.2-1.781-.532 1.928-1.617 9.57 1.39 13.102-1.958l.145-.136-.229-.015c-2.031-.127-4.221.345-6.208-.072l-.091-.175c.177-.26.183-.238.476-.298 1.346-.277 2.782-.226 4.145-.56 1.165-.284 1.774-1.003 2.8-1.47 1.024-.465 3.139-.627 3.867-1.41-.793-.523-1.912.006-2.54-.889l.07-.23c.958-.495 3.289-.789 3.666-1.84.07-.196.038-.26.007-.452-.842-.512-3.072-.341-4.046-.174-.225.039-.454.068-.68.102 1.36-.758 2.947-1.345 4.523-1.372.539-.008 1.107.091 1.632-.044l-.019-.182c-.34-.233-.676-.432-1.109-.363-.318.05-.163.34-.483.17-1.306-.699-4.61.16-5.57-.725.258-.57 1.691-.97 2.274-1.188.672-.251 1.311-.39 2.017-.507a.9.9 0 0 0 .37-.157c-.704-.214-1.903.13-2.43-.392.088-.439.514-.722.875-.968.717-.49 2.038-.9 2.563-1.546l-.113-.162a4.2 4.2 0 0 0-1.12-.012M95.3 135.302c-2.2.15-4.227.552-6.365 1.064.07.613.132 1.227.23 1.837 2.674-.456 5.165-.33 7.836-.431.947-.036 1.886-.215 2.83-.291 1.1-.09 2.224-.022 3.324.023 2.022.046 4.037.415 6.047.174l-1.117-1.727c-1.773.29-3.665.58-5.463.358-2.822-.35-4.203-1.168-7.323-1.007m-75.051.224-.13.065c-1.974.973-8.448.356-9.515 1.54.085.376.273.52.594.727 1.361.878 2.816 1.29 4.422 1.387 2.408.147 4.846-.507 7.25-.675 1.054-.075 1.954.142 2.98.174.945.03 2.837.025 3.333.992l-.037.23c-.863.442-3.185.142-4.213.163-.68.422-1.355.895-2.108 1.175-.436.639-.894 1.265-1.214 1.973 1.067.4 1.663 1.247 2.62 1.77 1.456.796 4.031.298 4.863 2.211.189.434.089.865-.116 1.267s-.509.757-.791 1.105c-.145.482.11 1.051.29 1.5l.937.747c.48 1.3.963 2.59 1.3 3.935.109.434.146 1.495.349 1.815.13.206.576.43.8.516.163.063.18.06.329.086l.162-.1c.14-.916-.395-1.553-.561-2.399-.113-.572.304-.94-.102-1.488-.383-.518-1.131-.988-1.052-1.716.258-.139.505-.23.78-.325.207-.26.175-.296.172-.633-.33-.681-1.381-1.288-1.916-1.898q.97-.181 1.947-.328c.563-.123 1.13-.24 1.69-.38-.653-.05-1.13-.058-1.692-.423-.489-.319-.948-.526-1.309-1.006-.07-.319-.122-.409.082-.696.392-.55 1.61-.701 2.232-.836-1.508-.344-3.05-.92-4.37-1.742l-.039-.186c.72-.536 2.43-.523 3.317-.374.121.021.24.053.361.078.312.065 6.419-.994 7.396-1.112.807-.099 2.357.14 3-.265.252-.159.258-.174.32-.465l-.225-.155c-3.154.857-7.714.535-11.01.505-1.236-.011-2.452.094-3.682.132l.105-.091c1.632-1.371 4.073-1.84 6.047-2.529.786-.274 1.55-.65 2.357-.852a12 12 0 0 1 2.979-.338c.475.006 1.491.136 1.823-.333.05-.07.041-.169.062-.254-.282-.363-.87-.429-1.301-.484-1.81-.229-3.674.234-5.47.01-1.837-.228-3.587-.69-5.396-1.053-2.491-.5-6.139-1.005-8.65-.968m16.096 10.158c-.677.007-1.37-.03-2.03.143.517.288 2.78.398 3.338.244a26 26 0 0 0 2.842-.444c-1.39-.068-2.766.086-4.15.057m63.35-.007c-.42.033-1.17-.017-1.497.224-.031.498.02 1.02-.38 1.377-1.024.913-3.266.929-4.572.802a14 14 0 0 1-1.766-.301c.98 2.034 1.352 3.852 1.687 6.066 1.139.117 3.484.257 4.346 1.088.103.099.134.17.2.285l-.093.186-.924.155.01.137c.467.38 1.51.135 2.07.078.737-.076 2.588-.016 3.085-.32 1.111-.681 2.38-.002 3.56-.37l.042-.189c-.878-.682-4.669.382-5.944-.677.06-.26-.008-.183.216-.319 1.138-.69 3.263-.71 4.593-.97l-.076-.084-.716.1c-1.207-.06-3.178.185-4.227-.383l-.016-.14c.657-.517 5.101-.689 6.521-1.141l-.156-.036c-1.12-.237-4.82-.07-5.31-.302l-.04-.21c.715-.762 5.879-1.077 7.27-1.433l-.211-.034c-1.678-.27-5.524.087-6.78-.4l-.022-.158c.188-.184.382-.357.639-.436 1.614-.5 4.01-.27 5.806-.718-2.007-.922-5.078-2.387-7.314-1.877m-67.336.135c.264.251.381.347.76.317.231-.017.47-.084.695-.136-.245-.243-.404-.267-.751-.26-.233.005-.473.046-.704.078m61.275 10.166.023.24c.325.035.173.06.459-.067-.237-.23-.184-.173-.482-.173"/><path d="m167.575 52.026-.194.214c-.468-.07-.717-.756-1.183-.973l-.198.093c-.39.179-.573.267-.98.116-.2-.281-.304-.424-.265-.78.073-.677.516-1.313 1.016-1.742l.299.014c.726.606 1.62.681 2.367 1.23.331.242.51.48.576.894-.072.278-.12.379-.34.565a3 3 0 0 0-.733-.064zM118.62 50.25l-.059-.004-.05-.102.114-.01zm-43.9 13.054-.085.068.017-.11.19-.079zm71.063 3.416-.068.018-.009-.201.072-.015zm.137 1.439-.076-.039zm-41.939 8.508-.148.051-.137-.083-.019-.576c.202.115.297.18.412.384zM52.6 93.177c-.03-.016-.06-.03-.089-.05-.635-.441-1.454-1.83-2.041-2.47-.779-.85-1.766-1.494-2.532-2.337-.238-.262-.26-.381-.327-.718a4.4 4.4 0 0 1 2.31.912c1.5 1.136 2.416 2.81 2.679 4.663m15.473 1.654c-.047-.01-.094-.017-.139-.032-.978-.327-2.206-2.053-2.605-2.969.155.034.307.065.453.129.94.409 1.941 1.939 2.29 2.872m5.078.176c-.391-.057-.804-.224-1.159-.396-.622-.303-.967-.732-1.188-1.374.422.055.868.235 1.24.44.587.324.92.683 1.107 1.33m-23.954 7.534a3 3 0 0 1-.603-.528c-1.577-1.79-1.847-5.065-1.685-7.34.035.024.072.044.105.07 2.014 1.609 2.028 5.464 2.183 7.798m9.397 17.366c-1.922-3.175-2.3-7.25-3.265-10.778-.788-2.885-1.922-5.907-2.379-8.855-.279-1.802-.252-3.439-.051-5.24.116.06.203.099.308.186.384.323.63 1.15.776 1.634.544 1.79.765 3.688 1.22 5.505 1.107 4.421 2.336 8.642 3.137 13.17.178 1.003.823 3.565.254 4.377m12.379-8.458c-2.094-4.503-2.36-9.294-1.775-14.147q.04.03.076.061c.908.827 1.824 5.99 1.86 7.265.024.846.164 6.477-.161 6.821m5.018 5.887c-.145.01-.213-.033-.344-.09-1.756-2.745-1.522-12.808-1.356-16.314.119.061.209.097.304.203 2.081 2.332 1.652 12.858 1.395 16.201M49.72 108.32l-.006-.127c-.084-1.197.133-2.313.218-3.503.411.277.624.92.83 1.358 1.622 3.45 2.252 6.75 2.398 10.539.029.746.163 1.651-.095 2.357l-.156-.045-.318-.75-.144-.038c-.736 2.3 2.004 11.692 2.416 14.641q.475 3.458.792 6.934c.208 2.33.247 4.761.878 7.02-.344-.544-.666-1.104-.996-1.657-.637-1.485-.876-3.349-1.225-4.934-.606-2.755-1.267-5.513-1.785-8.286-.332-1.777-.523-3.578-.846-5.358-.467-2.573-1.335-5.031-1.855-7.588-.89-4.381-1.371-8.855-1.953-13.286.621.916 1.157 1.852 1.847 2.724m32.655 28.215c-.142-.096-.197-.112-.291-.25-.684-1.003-1.993-8.354-2.215-9.953-.518-3.733-.706-7.56-.98-11.32-.143-1.956-.5-4.158-.332-6.109.25.103.385.207.541.433.787 1.14 1.124 3.317 1.353 4.666.85 4.997 1.073 10.06 1.495 15.1.165 1.971.8 5.674.43 7.433m6.819-25.003c-.087.021-.025.014-.18-.046zm1.554.166c-.588.077-1.053.056-1.612-.144.62-.122 1.026-.123 1.612.144m52.411 4.057c-.166-.165-.184-.192-.26-.43l.315-.397c.205.184.123.068.227.36zm-.238 1.596-.036.022.022-.086.05-.014zm-.368 1.98-.293-.003c-.179-.277-.102-.462-.079-.78.276.084.346.093.548.313zm-75.959 24.844c-.129.023-.035.014-.277-.052-.687-1.552-.82-3.673-1.053-5.353-.275-1.988-.698-3.988-.884-5.982-.239-2.567-.195-5.152-.329-7.725-.09-1.72-.315-3.443-.492-5.157.112.072.148.086.237.173.537.526.872 1.967 1.123 2.699.706 2.062 1.397 4.22 1.682 6.386.264 2.005.082 4.038.045 6.051q-.085 4.48-.053 8.96m-3.698 10.517c-2.336-5.45-5.5-24.23-4.05-29.66.056.042.117.077.165.126.637.658 2.509 13.459 2.728 15.233.314 2.549.476 5.121.731 7.678.194 1.93.495 3.88.65 5.807.03.395.034.511-.224.816m102.979-27.943.254-.146c-.213.148-.118.125-.254.146m-.927.173c-.183.07-.312.093-.504.117l-.186-.244a3 3 0 0 1 .68-.08zm.802-.079.125-.094zm-43.318 2.444c1.082-.84 2.34-1.515 3.701-1.744.328.006.664.006.99.042.31.035.792.062.99.299-.584.354-2.73.9-3.519 1.133q-1.08.142-2.162.27m-4.776-.744c-1.31-.125-3.133.231-4.327-.31l-.007-.201c.373-.275.828-.302 1.273-.374a9.4 9.4 0 0 1 4.152.63l.066.176c-.36.199-.763.11-1.157.079m82.749 1.92c-3.104.452-5.502-.875-8.447-.96-1.286-.036-3.588.553-4.696.199.665-.729 3.08-.905 4.007-1.03 3.037-.251 5.183.916 7.947.924 1.16.004 4.664-.66 5.434-.324l-.07.144c-1.384.372-2.755.843-4.175 1.047m-31.928 2.396c2.16-1.235 4.107-2.223 6.619-2.435.303-.029.583-.017.885.011.955.091 4.602.701 5.171 1.396-.833.392-4.603-.183-5.835-.17l-.228.003q-3.297.647-6.612 1.195m39.369-2.302c1.78-.101 3.577.046 5.355-.108.545-.08 1.733-.037 2.234.145.257.092.363.148.636.124.253-.022.35-.007.576.13l-.021.148c-1.079.364-2.514.022-3.683.204l-.193.031c-1.896.323-3.155.136-4.905-.674m14.925 2.327a12 12 0 0 1 1.941-.739c.865-.005 3.388-.24 4.057.293-.304.308-1.004.378-1.422.478-1.45.34-3.086-.037-4.577-.032m-99.866.753c-1.592-.195-6.593.307-7.258-.028l.037-.122c1.32-.742 3.562-.839 5.05-.935 1.868-.101 3.889-.144 5.68.499.42.15 1.105.507 1.299.914-.635.33-3.995-.201-4.808-.329m91.691 2.436c-2.082-.333-4.054.048-6.11-.154-1.577-.155-3.047-.826-4.643-.898-2.907-.13-5.352.913-8.21-.238l.016-.131c.787-.106 1.727.127 2.551.069 1.718-.12 3.424-.517 5.148-.672 2.349-.143 3.066.6 5.062.782 1.38.127 2.771-.037 4.153.01.998.034 1.993.178 2.992.224 2.35.107 4.9.038 7.242-.184-2.525 1.075-5.468 1.546-8.201 1.192M79.67 148.55c-1.577-3.42-1.377-7.42-1.814-11.076-.133-1.111-.509-2.279-.516-3.384.26.13.31.147.443.415 1.597 3.198 1.884 8.04 1.967 11.589.017.747.15 1.749-.08 2.456m105.675-12.52c-1.88.229-4.335.591-6.045-.311l-.032-.138c1.962-.048 3.862-.43 5.803-.657 2.22-.24 4.397.298 6.529.853-.684.109-1.393.035-2.084.046-1.396.022-2.782.066-4.171.207m-52.125 1.18c-1.366.134-2.691-.153-4.023-.018-.245.025-.114.051-.357-.094.807-.505 2.51-.624 3.476-.823 1.565-.05 2.736.572 4 1.398-.983-.181-2.173-.153-3.096-.463m-12.53 1.615c-.664-.065-1.337-.143-2.005-.115-.915.038-3.07.6-3.825.226l-.063-.274c.042-.115.037-.126.128-.237.475-.573 1.758-.787 2.459-.876 1.997-.435 4.707.59 6.598 1.253q-1.645.167-3.292.023m44.097.844a35 35 0 0 1 5.392-1.78c1.772-.237 5.108.206 6.611 1.162-.777.47-3.257.085-4.191.05-2.643.017-5.196.455-7.812.567m56.258-.219q-.27.026-.541.044c-.64.04-2.296.087-2.767-.332.502-.26 1.048-.366 1.595-.5.829-.055 2.77-.263 3.436.242l-.094.19c-.54.294-1.03.31-1.629.356m-14.265 1.441c-1.044-.115-4.545.229-5.02-.118l.13-.212c1.086-.66 2.239-.968 3.504-.991.813-.166 4.276.938 5.345 1.16-1.43.433-2.495.321-3.958.161m-15.501 1.479c-3.672.535-3.958-.505-6.944-.733-1.192-.091-2.469.361-3.638.139l-.075-.15c.717-.746 1.873-.95 2.837-1.235 1.784-.147 3.327.795 5.038 1.04 1.878.27 3.849-.59 5.753.49.227.13.165.052.229.273-1.054-.129-2.153.036-3.2.176m19.479-1.234c.757-.349 1.446-.582 2.267-.717.793-.03 2.07-.044 2.73.463l-.119.128.118-.11-.23-.126-.142.314c-.373.074-.806.072-1.188.101-1.147.055-2.293.071-3.436-.053M84.588 151.298c-.747-.595-1.723-9.112-1.93-10.743.19.122.305.216.428.411 1.018 1.607 2.039 8.522 1.502 10.332m43.4-8.426c-2.328.301-5.135.746-7.467.346l-.1-.141c.183-.154.375-.226.608-.278.885-.195 1.846-.216 2.746-.357 1.21-.19 2.397-.502 3.587-.787 2.721-.091 5.284-.187 7.74 1.16-1.148.184-2.401.273-3.562.211-1.21-.064-2.336-.278-3.552-.154m50.732 1.918c-1.655.152-3.247.576-4.884.837-1.033.165-2.193.325-3.239.266-1.17-.067-5.637-1.002-6.497-1.62.324-.257.782-.207 1.178-.225 1.666-.431 3.665.697 5.364.752 1.074.035 2.126-.19 3.179-.372 2.358-.409 4.514-.528 6.841.126-.638.137-1.292.177-1.942.236m23.08.155c.91-.225 1.795-.42 2.728-.523 1.298-.144 2.268.204 3.43.714-.804.114-1.61.188-2.418.26-1.35.024-2.441-.071-3.74-.45m-82.519.565c-.843-.03-2.739.302-3.416-.183.145-.284.217-.277.51-.414 1.1-.073 2.143-.09 3.183.33l.064.212zm69.159 2.8c1.977-1.051 3.925-1.407 6.127-1.638 2.177-.412 5.104.41 7.141 1.136l-.007.256.145-.192.149.104-.089.094c-1.604.09-3.45-.315-5.07-.46-3.053-.004-5.414.249-8.396.7m-70.373 1.636c2.37-1.59 5.105-1.897 7.904-2.018 2.68.006 5.016.149 7.526 1.185-2.362.463-5.642-.008-8.127 0-2.36.03-4.985.398-7.303.833m108.021-.957c-.553.027-1.08.073-1.624-.044l-.109-.26c.415-.046.978-.17 1.382-.051.244.072.227.149.35.356m-53.484 1.847c1.392-1.261 2.906-1.75 4.721-2.054 1.088-.11 2.54.107 3.611.35.167.038.09-.001.208.188-1.086.756-3.32.61-4.614.635-1.386-.137-2.659.399-3.926.881m-32.493.347c-.204-.15-.12-.051-.234-.31.088-.497.257-.863.489-1.31.216.265.26.417.306.753-.104.417-.25.577-.56.867m30.029.321c-1.281.007-2.576.054-3.856-.01l-.065-.138c.654-.533 1.188-.671 2.007-.811.607.063 1.207.132 1.803.263.383.085 1.517.28 1.71.584-.536.11-1.055.107-1.598.112m23.039.876c-1.782.096-3.9.055-5.64-.401l.076-.138c1.172-.369 2.348-.459 3.57-.529q.413-.04.83-.053.415-.013.831.002t.83.057.824.112q.41.069.815.165.405.097.803.22.397.123.786.272.388.149.766.323c-1.49.041-2.999-.026-4.49-.03m-25.011 3.384c3.12-1.287 6.081-2.413 9.48-2.583 1.922-.255 5.782.69 7.566 1.416-3.389-.136-6.936-.461-10.316-.056-2.253.276-4.456 1.141-6.73 1.222m22.176-.57c-.281.055-.479.02-.758-.016l-.088-.162.06-.085c.788-.344 1.505-.357 2.347-.344.017-.004.034-.011.051-.01.301.012.417-.017.63.202-.205.208-.341.284-.615.38-.525.188-1.118.292-1.627.035m-159.188.512-.039-.062zm-19.639 7.341c1.97-.242 3.997-.207 5.98-.249l9.603-.169q11.628-.158 23.248-.603 35.37-1.347 70.724-3.099c3.993-.2 8.036.196 12.027.398l23.335 1.305q34.105 1.901 68.25 2.761c5.442.16 10.875.398 16.32.481.585.009 1.711.23 2.22.101.054-.014.103-.046.155-.069l.057.159c.296-.053.16-.07.408.026.017.144.028.27.011.415-.155 1.352-1.438 4.174-1.992 5.645-5.077 13.485-13.742 27.547-23.28 38.252-1.771 1.99-3.626 4.145-5.676 5.85-1.98-.264-4.064-.055-6.06-.036l-14.684.257q-20.365.18-40.724.696l-14.339.4c-3.82.135-7.656.353-11.478.38-6.413.043-12.89-.356-19.306-.57l-37.164-1.236c-8.474-.306-17-.786-25.478-.756.884.74 1.712 1.547 2.551 2.338 4.607.513 9.402.489 14.036.618q7.922.239 15.838.603l29.524 1.025c6.07.216 12.124.556 18.2.585 3.143.015 6.304-.174 9.447-.266q7.629-.21 15.26-.338 19.792-.573 39.593-.817l12.744-.243c3.145-.063 6.296-.173 9.44-.039q-1.191 1.096-2.41 2.16t-2.466 2.096-2.52 2.032-2.572 1.964q-1.298.966-2.622 1.897t-2.67 1.827q-1.348.897-2.718 1.758-1.37.86-2.763 1.686-1.393.824-2.806 1.612t-2.847 1.54q-1.433.75-2.886 1.463t-2.923 1.388-2.96 1.312q-1.487.636-2.991 1.233t-3.024 1.155-3.052 1.076c-10.349 3.57-21.29 5.396-32.204 5.993-1.821.099-3.674.25-5.497.24-3.398-.016-6.884-.3-10.266-.612-14.652-1.35-28.874-4.853-42.132-11.317q-1.023-.495-2.037-1.01-1.014-.513-2.018-1.045t-1.999-1.083-1.979-1.119-1.958-1.154-1.937-1.191q-.962-.604-1.914-1.226-.952-.621-1.892-1.26t-1.868-1.295-1.845-1.329-1.82-1.362q-.904-.69-1.794-1.395-.891-.706-1.77-1.428-.877-.722-1.742-1.46-.865-.737-1.716-1.491-.85-.754-1.688-1.523-.837-.769-1.66-1.553t-1.631-1.583-1.602-1.612-1.573-1.642-1.542-1.67-1.511-1.698-1.48-1.726-1.449-1.752q-.716-.882-1.416-1.778-.7-.895-1.384-1.804-.683-.908-1.35-1.828-.667-.921-1.316-1.854-.65-.932-1.283-1.877-.633-.944-1.248-1.9t-1.213-1.922-1.178-1.945q-1.775-3.067-3.394-6.22-1.619-3.154-3.077-6.384-1.46-3.23-2.754-6.53t-2.423-6.66m69.8 75.078c1.777.604 3.883 1.274 5.77 1.323 1.755.047 5.947-1.102 7.426-.373.16.08.266.148.438.207.434.15 4.82.51 5.464.434.184-.022.314-.095.47-.184.035-.02.067-.047.106-.063.844-.334 11.16-.76 12.586-.666.347.023.67.154.988.283 1.114.453 4.47.306 6.149.736l.427.665c2.098.67 4.372 1.276 6.584 1.316.987.017 1.972-.117 2.96-.096 1.416.031 2.797.145 4.218.113 1.886-.043 3.807-.153 5.688-.004 3.633.29 7.175 1.368 10.772 1.87.994.138 2.163.14 3.166.054 1.14-.097 5.698-.89 6.432-1.453-1.23-.484-3.583-.226-4.985-.389-2.779-.322-5.518-1.116-8.303-1.48-.687-.09-1.255-.73-1.857-.694-1.96.12-4.033-.9-6.047-.967-1.121-.038-3.095 1.192-4.257 1.087-.318-.028-.619-.193-.943-.223-1.489-.138-12.358-.291-13.177-.016-.226.075-.452.144-.678.216-.178-.195-.29-.314-.355-.574.063-.12.064-.14.181-.244.739-.655 1.927-.365 2.8-.51 1.166-.195 2.298-.586 3.478-.744 2.06-.276 4.226-.15 6.302-.194 1.478-.031 3.13-.237 4.595-.08.806.086 1.579.46 2.351.69.7.208 1.455.304 2.176.42 1.71.273 3.11.106 4.815.01 1.163-.065 2.337.072 3.498-.029 1.624-.14 4.784-1.303 6.12-2.27l-.99.122c-1.483.196-3.002.06-4.497.046-1.574-.015-3.155.131-4.727.047-2.177-.118-4.12-.6-6.238-1.007-.769-.147-1.573-.143-2.331-.327-1.175-.285-2.215-.907-3.423-1.125-2.137-.387-6.844-.686-8.508-1.896l-.115-.086c-1.081-.018-2.146-.211-3.217-.34-1.445-.176-2.942-.27-4.371-.544-.93-.179-1.838-.482-2.755-.72-.735-.191-1.362-.253-2.079-.55-.797.166-1.606.194-2.402.372-1.692.378-4.053 1.303-5.728 1.285-.607-.007-1.231-.536-1.863-.655-1.447-.275-2.94-.346-4.398-.57-1.909-.294-3.823-.734-5.742-.938-.842-.09-1.692-.039-2.533-.117-.802-.075-1.59-.279-2.39-.342-1.406-.109-2.833.409-4.195-.095-.112-.041-.222-.087-.335-.124-.46-.152-5.042-.185-5.696-.14-.731.05-1.472.225-2.202.234-.767.011-1.515-.427-2.274-.486-.607-.048-1.31.142-1.92.198-2.301.208-4.355.25-6.495 1.277 1.03.642 2.28.836 3.355 1.436.307-.157.612-.297.958-.345 3.435-.472 9.446.06 13.112.21 1.906.077 3.92-.02 5.807.227.846.11 1.683.292 2.53.394 1.06.128 2.129.152 3.182.338.719.126 3.222.797 3.665.798.303.001.582-.21.895-.207.31.003 2.871.343 3.196.435.362.103.496.37.707.65.257.34.292.383.723.372 1.145-.03 2.195-.561 3.312-.621.819-.045 1.67.078 2.492.098 2.014.047 3.895.038 5.904.316.908-.045 1.816.14 2.716.244 2.462.286 5.058.813 7.513.938 1.436.073 2.907.082 4.343-.006 1.573-.096 3.262-.425 4.82-.129-.899.432-1.8.784-2.799.903-.145-.067-.293-.129-.439-.195-.159-.073-.189-.107-.374-.123-1.052-.085-2.786.266-3.924.332-2.284.132-4.639-.04-6.903.294-.145.132-.36.361-.548.438-.056.022-.117.03-.176.04-.848.145-1.785-.503-2.656-.514a58 58 0 0 0-4.922.177c-.96.073-2.01.34-2.966.27-.416-.032-.847-.212-1.227-.374-2.02-.861-4.498-1.028-6.668-1.358-1.218-.186-2.513-.299-3.712-.556-.487-.104-.711-.453-1.237-.518-3.924-.482-7.935-.425-11.862-.929-.873-.112-1.81-.717-2.643-.693-3.23.093-6.381 1.398-9.61 1.467l-.196.002c1.124.465 2.367 1.153 3.573 1.32 2.925.405 5.98.225 8.92.25 3.766.034 7.567.243 11.333.402q2.403.098 4.794.349c1.052.12 2.195.42 3.248.378.94-.037 2.9-.317 3.68.17l-.001.201c-.97.561-7.293.75-8.623.622-1.593-.153-3.197-.594-4.794-.652-.843-.031-1.734.22-2.589.255-3.756.151-6.176-.082-9.843 1.204m-51.89-73.944.1.216c.43.043.737-.035 1.15-.154a2 2 0 0 0-1.25-.062m-8.583.123c-2.264.145-4.614-.144-6.855.188l.481 1.07c2.483-.289 4.956-.346 7.433-.59 2.263-.242 4.519-.303 6.78-.583-.728-.32-6.604-.155-7.839-.085m180.536.127c-.876.362-4.77.153-6.404.525 2.507.439 4.964.3 7.492.288q4.084 0 8.168.082c6.541.174 13.09.525 19.63.589 1.794.017 3.76.273 5.534.048l.117.035c.696.194 1.335-.001 2.027.144.746.158 2.568.278 3.216-.141.069-.374.101-.377-.095-.697a2 2 0 0 0-.797-.22c-.815-.061-1.637.039-2.455.013l-9.096-.258c-4.176-.103-8.332-.245-12.508-.273-.544-.003-1.078-.12-1.629-.116-3.703.027-7.326.215-11.033.056-.702-.03-1.481.05-2.167-.075m-.437 2.747c.604.585 2.557.346 3.454.332.542-.008 1.091-.003 1.631-.041-.755-.516-4.12-.392-5.085-.29m7.012.263c-.753.052-1.299.117-2.002.402l-.06.135c1.443.344 3.155.22 4.634.23 2.988.022 5.981-.038 8.966-.008 1.742.018 3.488.274 5.233.333q7.025.227 14.052.06c.463-.01 1.305.087 1.69-.16.084-.29.156-.339.042-.63-1.519-.22-3.246.01-4.785.055-2.654.076-5.351.127-8.005.048l-14.036-.362c-1.432-.037-4.471-.419-5.73-.103m-119.875 1.61c-5.38.383-9.885 2.386-13.446 6.52-3.359 3.898-4.865 9.018-4.465 14.111.396 5.063 2.608 9.541 6.5 12.823 3.616 3.049 8.627 4.742 13.36 4.295 2.755-.26 5.648-1.124 8.26-2.035.148-2.24.087-4.508.084-6.754 0-1.13.192-6.974-.28-7.476-2.061 2.526-4.27 5.006-7.746 5.335q-.195.018-.39.026-.196.008-.391.007t-.39-.012q-.195-.01-.39-.031-.194-.02-.388-.05-.193-.03-.384-.07-.192-.039-.38-.087-.19-.049-.377-.107-.186-.058-.37-.124-.183-.067-.364-.143-.18-.076-.356-.16t-.348-.177-.34-.195q-.166-.1-.328-.21t-.319-.227-.307-.241c-1.645-1.368-2.596-3.425-2.761-5.539-.175-2.236.411-4.496 1.9-6.208 1.336-1.535 3.37-2.617 5.406-2.754 2.427-.163 4.754.788 6.55 2.39.97.867 1.698 1.955 2.648 2.82l.012-13.584c-3.155-1.516-6.693-2.35-10.2-2.143m35.058.759-5.894.045-9.318 25.98c-1.189 3.285-2.2 6.68-3.495 9.92H116.3c.549-1.768 1.097-3.55 1.806-5.261l6.613-.014 4.46.01c.673 1.734 1.397 3.48 1.922 5.265l12.024-.013c-2.593-7.708-5.655-15.273-8.453-22.909l-2.842-7.948c-.595-1.666-1.13-3.423-1.946-4.993q-3.371-.079-6.743-.082m27.235.094c-.203 4.424-.026 8.916-.026 13.346l-.06 22.472c3.823.024 7.668.094 11.489-.002a165 165 0 0 0-.058-12.662c2.846 4.004 4.81 8.534 7.412 12.671l8.18.009c1.734 0 3.476.035 5.206-.088-2.407-3.862-7.147-11.325-10.282-14.315 2.845-1.097 5.286-2.535 6.565-5.443 1.182-2.688 1.227-6.174.134-8.897-1.11-2.762-3.561-4.714-6.254-5.83-4.225-1.75-9.233-1.329-13.716-1.316q-4.295-.004-8.59.055m88.507.687c-3.377.228-6.76.088-10.141.102-1.63.007-3.245.153-4.862.185-1.634.032-3.66-.201-5.225.056-.261.043-.425.145-.605.333.031.286.024.275.238.467q3.263-.019 6.526.003c1.263.018 2.565.157 3.822.109.941-.036 1.877-.19 2.818-.235.89-.041 1.786.017 2.678-.008 1.286-.037 2.584-.146 3.869-.146.372 0 .621-.189.852-.456.162-.187.162-.157.188-.422zm-28.49.22c.262.268.593.195.956.2.561.008 1.123-.037 1.683-.075-.796-.126-1.857-.333-2.64-.126m6.414.145c.264.092.4.137.675.074-.221-.241-.173-.183-.469-.202zm-14.941.066c-.247.094-.607.152-.738.382.724.16 1.55.06 2.29.054.323-.04.559-.054.855-.206-.766-.252-1.666.039-2.407-.23m2.794.162c.091.002.253.024.34.001-.28-.064-.173-.097-.34-.001m17.684 3.602.081.273c.273.024.512.004.784-.03l-.005-.225c-.319-.097-.537-.059-.86-.018m1.234.034c.513.225.817.248 1.358.049-.441-.229-.886-.126-1.358-.049m1.698-.011c.217.238.151.184.439.198.327.017.644.003.97-.02-.262-.237-.386-.28-.745-.266-.22.01-.446.053-.663.088m2.161.041-.004.205.373-.036-.045-.217zm-23.09.077c-.641.047-2.4-.064-2.88.239.407.071.775.106 1.19.101l.668.054c.433.032 1.25-.048 1.62-.25-.228-.168-.321-.129-.597-.144m27.759-.042-.447.145.06.129c.279.05.546.099.829.12.28-.099.387-.095.588-.325-.357-.097-.666-.085-1.03-.07m1.026.01c.79.493 2.943.574 3.87.342.138-.034.267-.096.397-.153-1.272-.38-2.924-.143-4.267-.189m-26.846.165.246.001c-.082-.007-.175-.042-.246 0m.752.022c.528.174 1.147.185 1.697.124-.476-.17-1.142-.355-1.637-.16zm21.181-.01c.41.074.856.213 1.243 0-.397-.17-.828-.055-1.243 0m5.686 2.482.145.43c.514.232 1.019-.085 1.537-.215l.186-.14c-.396-.25-1.39-.115-1.868-.075m-24.273.144c-.83.24-1.823.253-2.687.37.376.154.815.365 1.223.393 1.069.075 2.246-.07 3.328-.072 2.262-.005 7.703.316 9.605-.14.995-.053 2.003-.075 2.994-.178-2.92-.537-5.578-.35-8.512-.33-1.981.013-3.974-.077-5.951-.042m20.96-.022q-.104.044-.212.085c-.528.197-1.088.08-1.645.274l.024.118c1.051.382 2.354.233 3.464.213.468-.044 1.084-.027 1.501-.249l.073-.201-.132-.181c-1.023-.062-2.058.054-3.072-.059m-2.738.44.118.04zm.43-.054h.154zm2.332 3.492c-1.675.059-3.442.058-5.074.464l.008.09q1.694.075 3.387.13c1.743.012 3.47-.11 5.209-.137-.333-.21-.675-.412-1-.632-.84.033-1.69.098-2.53.085m-14.72.4c-1.009.284-2.15.097-3.195.241 1.709.285 3.324.32 5.048.277a7.3 7.3 0 0 0 2.054-.474l-.037-.055c-1.251.107-2.628.239-3.87.011m4.294-.042c1.064.44 2.35.427 3.48.273-.793-.404-2.587-.342-3.48-.273m4.525-.024-.78.151-.034.155.252.19c.339-.101.629-.156.91-.379-.24-.132-.121-.103-.348-.117m-.523 2.756c-.322.047-.592.03-.851.236.895.28 2.12.216 3.065.256.27-.07.32-.02.475-.267-.214-.228-.669-.226-.97-.235-.55-.017-1.188.112-1.719.01m3.163.206.141.04zm-1.099 2.951c-.533.043-1.087.058-1.614.142l-.165.21-.022-.175-.103.163-.078-.01.008-.108-.117.065c1.292.253 2.795.18 4.117.171.555-.037 1.09-.061 1.633-.198l-.033-.101c-1.046-.208-2.577-.37-3.626-.159M72.532 218.901c-3.596.97-7.537.736-11.218.506-1.033-.064-2.118-.22-3.148-.218-.804 0-1.592.38-2.398.37-1.742-.02-3.31-.444-5.098-.288.797.706 1.619 1.407 2.33 2.201 3.892.151 7.744.032 11.632.016 1.775-.006 3.535.122 5.306.146 1.261.017 2.525-.05 3.786-.021 2.23.05 4.475.218 6.706.312 2.12.09 4.275.101 6.387.274 2.31.188 4.565.586 6.895.713 2.326.126 4.63-.141 6.932-.03 3.303.158 6.419.756 9.667 1.278.93.149 1.864.147 2.788.275.636.088 1.023.424 1.707.4.449-.017.975.198 1.43.266 2.086.312 5.064.328 6.834 1.52l.15.248-.092.163c-1.445.075-2.987-.228-4.422-.413-1.66-.213-3.35-.395-5.015-.56-.684-.067-1.411.07-2.082-.037-.639-.102-1.148-.472-1.84-.536-1.28-.12-3.327.166-4.398-.036-.212-.04-.405-.238-.562-.371-.268-.006-.417.056-.656.156-.34.142-.503.154-.864.062-1.353-.343-8.404.315-10.3.369-.922.026-1.875-.3-2.738-.06-.186.05-.315.094-.505.069-.89-.118-1.879-.545-2.754-.787-1.754-.483-3.836-.96-5.651-1.081-1.468-.098-3.244-.283-4.698-.141-.75.073-1.472.362-2.23.383-2.437.069-4.828-.412-7.24-.409-1.304.002-5.638.44-7.037.703-.544.102-.922.494-1.518.595-.143.025-.284.061-.425.092.026.21.06.186.225.315.803.623 1.816 1.095 2.712 1.58 2.028-.285 3.957-.325 5.991-.433 1.09-.057 2.176-.211 3.266-.252 3.856-.147 7.82.04 11.65.492 2.123.25 4.238 1.079 6.344 1.253 2.612.215 5.287-.332 7.87.088.627-.412.74-.505 1.489-.365.711.133 1.401-.053 2.118-.078 1.442-.049 2.906-.073 4.347.012 1.294.077 2.574.302 3.86.45 1.051.12 2.111.147 3.162.265 3.548.401 7.094.942 10.679.686 2.508-.18 5.006-.87 7.487-1.264a31 31 0 0 1 6.62-.295c1.92.14 3.875-.013 5.776.179 1.449.146 2.834.632 4.274.82 1.263.166 2.575.162 3.802.52.956-.647 2.007-.438 3.12-.494 1.782-.089 3.564-.254 5.35-.165 3.574.179 11.227 1.411 14.313.592l.02-.125c-1.621-.634-3.845-.133-5.322-.983l.042-.178c1.746-.884 7.22-.29 9.233.12 1.958.398 3.873 1.087 5.87 1.275 3.196.3 8.434-.146 11.434-1.226-4.663-.271-9.38-.052-14.023-.61-1.121-.135-2.176-.646-3.286-.802-.975-.137-2.097.137-2.915-.488-2.868-.11-5.446.966-8.246 1.136-1.047.063-2.152-.22-3.212-.251-2.525-.075-5.064-.023-7.584-.126-1.668-.067-3.314-.323-4.985-.372-1.522-.044-3.044-.121-4.566-.153-.912-.019-1.897.087-2.785-.117l-.182-.2c.23-.333 3.925-.917 4.778-1.469.835.03 1.647-.037 2.474-.03 1.097.011 2.17.103 3.272.07 1.108-.034 2.373-.242 3.464-.136 2.119.205 4.24 1.17 6.386 1.266.299.013.464.007.703-.184-.069-.234-.12-.25-.327-.366-.73-.408-1.686-.555-2.624-1.071-.26-.143-.398-.323-.69-.202-.052.022-.221.124-.275.156-2.417-.404-4.737-1.199-7.171-1.575-1.26-.195-2.572.21-3.835.044-.891-.117-1.772-.39-2.649-.586-.775-.174-1.57-.223-2.349-.382-1.393-.284-2.768-.699-4.181-.876-4.525-.566-9.315-.236-13.866-.14-1.455.031-2.918-.14-4.367-.082-1.091.044-2.212.311-3.29.49-2.29.38-4.687.8-7.003.917-.868.044-1.676.03-2.537-.1-1.016-.155-2.638-.97-3.575-.719-.06.017-.123.027-.184.041l-.128.03-.112-.099c-.222-.191-.416-.37-.708-.441-.987-.242-8.638.09-10.254.117-.339.006-.567.136-.853.297-1.197-.246-3.26-.718-4.42-.287-.167.062-.463.22-.631.236-1.19.116-2.706-.908-4.218-.454-.94.282-8.397-1.531-10.44-1.4m105.295.151q-4.369.37-8.688 1.126c-.39.071-.71.316-1.087.429-.434.13-3.152.334-3.782.377-.923.062-1.855-.306-2.773-.314-.992-.008-1.964.436-2.994.419-1.15-.02-4.422-.18-5.36-.024-.22.036-.39.173-.566.296-.044.22-.088.192.02.353.494.732 2.467.826 3.281.921.57.067 1.136.108 1.709.142.193.012.119.002.317.071.64-.124 1.007.007 1.589.257 1.247-.158 2.496-.293 3.755-.308.932-.01 1.942.097 2.864-.018 1.237-.154 2.494-.606 3.714-.88 1.63-.367 3.326-.63 4.978-.882 2.105-.322 6.703-.118 8.376-1.014l-.046-.168c-1.515-.692-3.653-.905-5.307-.783m9.28 2.392c-1.129.376-2.98-.037-4.19.04-1.83.117-3.696.533-5.523.751-1.55.185-3.163.2-4.695.432-.622.094-1.158.475-1.779.578-.925.153-1.938.092-2.817.44l-.064.163c1.203.762 2.775-.15 4.595 1.37 2.419-.633 4.78-.71 7.247-.98 1.138-.125 2.296-.215 3.425-.404 1.243-.208 2.43-.51 3.693-.593 4.153-.27 8.783.248 12.819-.849-1.875-.22-11.36-1.205-12.71-.948m-51.349 9.106c-1.83.154-8.605.035-9.735.743.142.222.183.238.436.298.643.154 1.389-.07 2.013.103 2.22.612 4.557 1.544 6.89 1.642 3.695.155 7.47-.566 11.179-.351 2.255.13 6.789 1 8.81.694.641-.098 1.276.167 1.917.21.536.035 1.08-.06 1.617-.056.773.006 3.865.276 4.406.586.1.058.174.153.27.219q.064.046.138.07c.449.144 1.281-.054 1.752-.12 2.32-.326 4.724.114 7.08.026 3.285-.211 6.929-.603 9.96-2.01-2.76-.156-5.556.167-8.336.032-1.933-.094-3.804-.593-5.721-.747-.56-.045-1.065.268-1.636.207-.774-.084-1.575-.378-2.347-.42-.3-.016-.568.212-.802.375-1.268-.008-2.54-.32-3.81-.397-.557-.034-2.803.085-3.133-.114-.928-.559-2.495.05-3.536.111-3.044.18-6.176-.562-9.212-.753-2.66-.167-5.534.386-8.109-.336-.03-.008-.06-.008-.091-.012m26.785 6.991c-1.07.143-1.837.305-2.799.828 1.375.427 2.85.977 4.266 1.22 2.11.36 5.219-.18 7.356-.508a17.6 17.6 0 0 0 3.646-.975c-2.724-.053-5.48.13-8.198-.096-1.339-.11-2.964-.735-4.27-.469m-48.627 3.235c-1.26.294-2.355.097-3.606.208-2.482.222-4.964.722-7.449.87-.848.05-1.675-.21-2.525-.207-1.747.008-3.491.258-5.237.245 2.06.874 5.887 2.453 8.078 2.46 1.458.004 2.373-.535 3.896-.14.363-.08.14.01.35-.146.319-.236 5.775-.737 6.397-.732 1.547.013 3.084.273 4.63.332 1.646.063 3.291-.134 4.928-.291.546-.052 1.35-.019 1.832-.276l-.058-.166c-1.02-.349-2.665-.895-3.729-.888-.943.006-2.02-.614-2.936-.847-1.422-.362-3.103-.508-4.57-.422m19.348 2.894-.132.03c-1.374.307-2.852.317-4.252.467-1.624.173-3.243.43-4.87.562-1.169.095-2.342.081-3.512.15s-2.332.231-3.504.237c-.82.004-2.407-.21-3.095.211.135.221.04.15.308.22.7.18 1.47.182 2.188.302 1.63.272 3.25.606 4.883.858 2.225.323 6.114.33 8.35.137.981-.085 1.802-.507 2.81-.456 2.862.145 5.645.28 8.509.056-1.385-.333-2.666-.731-3.957-1.335-.164-.36-.303-.817-.685-.988-.75-.335-1.843-.13-2.68-.354l-.226-.059z"/><path d="m161.872 185.898-.003-8.189c1.761.516 3.56.177 5.061 1.517.804.717 1.377 1.755 1.415 2.846.037 1.099-.415 1.813-1.131 2.598-1.458 1.166-3.568 1.115-5.342 1.228m-41.814 6.653c1.377-4.127 2.348-8.247 3.315-12.48.058.054.128.098.174.163.182.256.605 2.532.754 3.068q1.33 4.664 2.86 9.265l-3.15.044zm-7.282 30.083c1.884-.378 3.773-.288 5.652-.701h.02c1.585.47 6.022.488 7.928.54 1.112.03 2.486-.176 3.523.267.196.084.352.02.552-.053 1.535-.562 9.836-.125 11.428.523.829.337 1.719-.058 2.575.231.258.088.273.144.387.374-.546.555-2.96.337-3.817.872-.234.145-.414.194-.678.268-.163.094-.29.163-.48.196-.223.04-.45.06-.674.102-1.592.303-3.226.193-4.841.475l-.798-.593c-1.639-.062-3.302-.136-4.94-.08-1.988.066-3.947.27-5.941.134-.698-.048-1.32-.537-1.997-.692-2.815-.64-5.095-.858-7.9-1.863"/></svg>