<svg xmlns="http://www.w3.org/2000/svg" viewBox="0 0 257 257"><path d="m122.243.332 12.793.035.117.023c2.501.463 5.194.45 7.733.718 4.782.504 9.623 1.284 14.31 2.355q1.437.325 2.866.684t2.849.751 2.83.818 2.812.883 2.789.948 2.767 1.013 2.742 1.078q1.365.554 2.716 1.14 1.352.587 2.69 1.205t2.66 1.266q1.322.65 2.63 1.329 1.306.68 2.598 1.389 1.29.71 2.565 1.45t2.53 1.508q1.257.77 2.495 1.568t2.457 1.625 2.42 1.682 2.378 1.738 2.338 1.793 2.295 1.848q1.137.936 2.252 1.9t2.207 1.952q1.092.99 2.16 2.003t2.113 2.053 2.065 2.102q1.02 1.063 2.016 2.15.995 1.086 1.964 2.195.97 1.11 1.913 2.24.943 1.133 1.86 2.286t1.806 2.328q.89 1.174 1.751 2.369.862 1.195 1.696 2.41c20.46 29.352 26.696 64.1 20.44 99.103-1.302 7.3-3.607 14.563-6.36 21.434q-.434 1.09-.888 2.172-.453 1.082-.926 2.155-.474 1.074-.967 2.138t-1.005 2.12-1.045 2.1q-.532 1.046-1.083 2.081-.551 1.036-1.121 2.06-.57 1.026-1.16 2.04-.588 1.015-1.196 2.018-.608 1.004-1.234 1.996t-1.27 1.972-1.306 1.949q-.663.968-1.343 1.924t-1.377 1.899-1.412 1.873-1.447 1.847-1.48 1.82-1.514 1.792-1.546 1.765q-.782.874-1.58 1.735-.796.86-1.61 1.706-.813.845-1.641 1.675t-1.673 1.646-1.702 1.614-1.732 1.582-1.76 1.55-1.79 1.518-1.817 1.484-1.844 1.45q-.928.717-1.87 1.416-.942.7-1.896 1.382-.955.682-1.922 1.346-1.415.978-2.857 1.92-1.44.94-2.905 1.844-1.466.903-2.953 1.767-1.489.865-2.999 1.69-1.51.826-3.041 1.612t-3.082 1.532q-1.551.745-3.121 1.45-1.57.706-3.158 1.37-1.588.663-3.192 1.285-1.605.623-3.225 1.203t-3.255 1.118-3.283 1.033q-1.649.495-3.31.946-1.66.453-3.332.86-1.672.408-3.354.774-1.682.365-3.373.686-4.034.779-8.124 1.185c-1.68.183-3.434.25-5.092.571l-19.153-.052c-1.466-.327-3.045-.396-4.539-.558-2.918-.313-5.863-.63-8.746-1.194q-1.804-.335-3.598-.722-1.794-.385-3.575-.822-1.782-.438-3.551-.925t-3.523-1.025-3.493-1.125-3.459-1.223-3.423-1.321-3.384-1.418-3.343-1.513-3.298-1.608-3.251-1.7-3.202-1.792q-1.588-.92-3.15-1.883t-3.095-1.97-3.037-2.059-2.978-2.143C25.599 211.514 9.176 184.468 2.673 152.33q-1.13-5.51-1.676-11.108c-.241-2.42-.326-4.88-.664-7.286l.037-13.531c.452-1.708.423-5.107.62-7.043.334-3.293.938-6.62 1.547-9.874C6.044 84.738 14.379 67.16 25.62 51.839q.827-1.112 1.677-2.206t1.724-2.169 1.77-2.13q.898-1.057 1.817-2.093.92-1.036 1.862-2.052t1.906-2.012 1.949-1.97 1.991-1.926 2.033-1.883 2.073-1.838 2.112-1.794 2.15-1.746 2.19-1.7q1.103-.838 2.224-1.652t2.26-1.603 2.294-1.553 2.328-1.504 2.36-1.452 2.39-1.401 2.42-1.349 2.45-1.296q1.23-.634 2.476-1.242t2.503-1.188 2.528-1.134 2.553-1.079 2.575-1.023 2.596-.966 2.617-.91 2.637-.853 2.654-.796 2.67-.738q1.34-.354 2.687-.68 7.644-1.813 15.447-2.724C116.383.85 119.3.8 122.116.353zm-5.088 32.956c-.518 1.324-.964 2.689-1.558 3.98-1.79 3.888-4.036 7.475-6.132 11.193-2.485 4.407-4.934 8.813-7.494 13.178-.466.795-4.827 7.868-4.704 8.268.96.087 1.922.16 2.88.268 1.239-3.566 3.23-7.034 4.962-10.394 3.358-6.52 6.906-13.01 9.773-19.764.816-1.924 2.076-4.653 2.273-6.73l.045-.127zm58.041 23.202.055.131c.009.088.017.206.036.297.282 1.342 1.784 4.568 2.938 5.314-.665-1.472-2.083-4.306-2.974-5.61zm-45.498 1.363.083.058c-.03 1.368.276 2.836.376 4.213.244 3.381-.16 6.666-1.022 9.933l1.4.132c.234.042.41.03.645-.003.112-.228.102-.161.138-.386.442-2.792.046-11.613-1.537-13.89zm43.208-1.842c-.046.922.312 1.852.641 2.702.414 1.067.946 2.094 2.041 2.567l.055.05-.055-.05c-1.16-1.652-1.628-3.882-2.682-5.269m-86.19 28.082c.2.888.346 2.192.854 2.951 1.084.365 3.238.824 4.354.752.086-.114.172-.23.266-.337.176-.204.313-.26.575-.229.53.062.96.522 1.455.701.49.178 4.662.552 5.211.52.234-.015.442-.025.676-.003l.237.024c-1.497.414-2.898 1.086-4.445 1.346-.998.168-4.984.037-5.577.552l.034.214c.353.248.684.343 1.097.457l.007.169c-1.149.856-4.148 1.482-5.624 1.998-.07-1.637-.492-3.294-.78-4.906-.371-2.07-.681-4.15-1.046-6.221-1.096.05-2.18.135-3.265-.08l-.08-.143c-.528-.979-.676-2.115-1.244-3.053l-.155-.044c-.444 1.01.122 2.802.12 3.911-1.558.3-3.138.325-4.716.455-.629.052-1.244.192-1.874.22l-.947-.961-1.53-.165c.17 1.399.247 2.808.343 4.214l-.006-.06c.467.436.927.885 1.408 1.305.286-.294.526-.561.905-.737.302.177.16.368.346.574.348.382 2.042.3 2.611.357.423-.296.888-.674 1.39-.814.644-.18 3.766.256 4.584.41.356.067.576.226.856.447l-.078-.086.155.32c-.224.357-.674.436-1.06.522a12.5 12.5 0 0 1-3.558.256c-.56-.044-1.167-.169-1.728-.123-.246.02-.46.144-.677.251-1.383.684-3.22.716-4.738.858 1.757 1.239.866 1.454 3.333 1.572.162-.146.243-.27.343-.463.58.086.805.619 1.34.75 1.637.402 6.179-.695 7.186.88.13.203.128.39.134.622-.161.297-.249.428-.59.521-1.053.287-2.58-.214-3.224.78-.064.099-.12.202-.18.303-.147.247-.26.375-.51.53l-.315.031-.15-.182c.293-.443.827-.434 1.075-.859-.39-.29-1.352-.28-1.83-.2-.32.054-.638.124-.955.193.176.454.41.896.337 1.391-.292.498-.916.619-1.434.788.067-.44.132-.868.25-1.298.074-.264.086-.393-.015-.66-.313-.148-.373-.135-.721-.097-.216.227-.277.27-.238.61.056.487.402 1.106.598 1.556l-1.501.59q-.13-1.343-.302-2.68c-.971-.114-1.955-.188-2.92-.336.074 1.324.182 2.653.142 3.979-4.056 1.609-8.23 3.116-12.356 4.534-2.694-1.13-7.116-2.01-10.064-2.784L36.017 96.79c-3.207-.853-6.382-1.83-9.614-2.587-2.735-.642-5.562-.813-8.275-1.498 1.78.853 3.805 1.257 5.664 1.927 3.075 1.109 6.094 2.393 9.206 3.4 4.092 1.322 8.396 2.273 12.552 3.41 3.292.901 6.587 1.949 9.949 2.56q-11.166 4.39-22.45 8.472c-2.144.772-4.32 1.455-6.467 2.22A495 495 0 0 1 13 119.293c-2.348.761-4.697 1.628-7.087 2.243l-.165 1.523c7.553-1.986 14.984-4.693 22.357-7.261q11.802-4.148 23.551-8.444 12.853-4.882 25.78-9.56c2.285-.81 4.618-1.505 6.92-2.267l9.771-3.286c2.08-.677 5.246-1.2 7.029-2.399l-.379 3.041c-5.075 1.823-10.222 3.457-15.318 5.222q-8.706 3.062-17.33 6.351c-20.676 7.872-41.204 16.372-62.492 22.488q.018 2.054.084 4.107c3.909-.829 7.94-1.517 11.755-2.7 2.465-.765 4.842-1.794 7.23-2.766q6.022-2.455 11.988-5.04c11.613-4.952 23.215-10.02 34.951-14.67q9.088-3.564 18.222-7.006c3.434-1.264 7.383-2.223 10.559-4.056.03.961.094 1.915.171 2.873-2.386.195-10.13 3.528-12.785 4.56-5.307 2.064-10.64 4.004-15.907 6.178-10.757 4.44-21.35 9.235-32.038 13.833q-8.781 3.69-17.611 7.263c-3.575 1.46-7.382 2.35-11.118 3.295-1.586.4-3.486.668-4.96 1.348-.197.263-.146.474-.159.793.111.151.113.245.32.26.592.042 3.842-.913 4.644-1.127 3-.799 6.101-1.545 9.031-2.561 3.524-1.223 6.962-2.748 10.437-4.105 14.87-5.806 29.211-12.775 43.915-18.974 4.505-1.9 9.076-3.62 13.637-5.377 4.218-1.624 8.39-3.294 12.694-4.685.394.955.73 1.978 1.197 2.897l-1.429 1.782c-.05-.673-.006-1.775-.555-2.251-.3.124-.372.273-.492.563-.353.852-.75 4.535-.452 5.392-.555 1.144-1.452 2.16-2.22 3.166-.09-2.57.225-5.121.139-7.69-.634.157-1.233.305-1.827.584-.224 3.567-.277 7.269-.205 10.845.64-.134 1.3-.24 1.927-.422-.399 1.999-.9 3.96-1.197 5.978-.666-.465-.82-.818-1.75-.682-2.003.293-8.512 5.21-10.19 6.724.155.621.336 1.245.432 1.879 3.102-.82 6.957-1.356 10.147-.747-.327.398-.627.796-1.048 1.1-1.048-.006-8.488-.213-8.826-.084-.115.043-.197.145-.296.218l-.27.587c-.826.127-1.892-.958-3.257-.77-3.153.435-7.315 3.579-10.336 4.985-.415 1.027-.563 1.928-.61 3.03l18.646-.53c-.44.657-.863 1.309-1.398 1.894-5.843-.263-11.783-.83-17.625-.766.183.669.3 1.243.313 1.942l-.143.031.158-.133-.072.304-.184.096c-.398-.282-.498-.845-.732-1.273-.957-1.76-3.541-1.789-5.276-1.488a9.5 9.5 0 0 0-2.296.69c-2.014.914-3.758 2.192-5.67 3.275-1.064.602-2.22 1.051-3.263 1.686-.327.2-.7.414-.912.737-1.349 2.053-1.256 4.522-1.947 6.77a45 45 0 0 1-.995-2.233c-.914-.66-1.816-1.212-2.996-1.054-2.583.347-14.497 7.391-15.937 9.468-.64.926-.817 2.264-1.06 3.342 2.31-.206 4.642-.124 6.96-.116q5.974-.009 11.945.2c1.934.062 4.048-.112 5.937.285-.595.694-1.006 1.331-2.002 1.386-1.406.077-2.901-.236-4.327-.257-6.137-.09-12.27-.408-18.41-.384l.285 1.94c-.71-1.256-1.312-2.662-2.83-3.061-1.877-.493-4.04.674-5.594 1.64-1.5.93-2.96 2.352-4 3.767 1.43-.3 2.957-.244 4.411-.288 3.691-.112 7.393-.05 11.08-.198 6.165-.25 12.353-1.178 18.532-.956-.72 1.068-1.417 2.185-2.202 3.204-10.92-.568-21.863-.433-32.783-.995-1.325 1.293-1.14 2.897-1.678 4.556l.923 2.88c1.274-.114 2.555-.245 3.835-.237 2.699.017 5.375.312 8.085.29 4.908-.043 9.807-.337 14.716-.367 1.41-.008 3.227-.192 4.585.138.225.555-.108 1.24-.332 1.756-.091.21-.186.41-.296.61-5.731.038-11.406-.422-17.124-.57-2.6-.067-5.185.046-7.784.092-1.63.028-3.278-.033-4.905.086.413 1.215.827 2.456 1.385 3.614 9.03-1.216 18.766-1.771 27.88-1.458-.178.922-.312 1.89-.616 2.778-1.801.154-3.76-.069-5.581-.081q-5.915-.036-11.826-.271c-3.154-.13-6.332-.352-9.487-.346.353.855.68 1.743 1.123 2.555 3.088.014 6.174-.073 9.262-.057 5.51.028 11.037.138 16.545-.026l-.038.174a9.7 9.7 0 0 0-.195 1.742l-.106.131c-5.782.063-11.569-.306-17.351-.345-2.384-.016-4.89-.115-7.258.173.329.806.652 1.607 1.052 2.38 7.826-.025 15.623-.482 23.449-.502l-.004 1.981c.351.142.659.19.886.502-.053.854.25 2.876-.447 3.449-.239.196-.603.256-.903.269-1.486.063-3.045-.11-4.546-.104q-7.645.04-15.29-.032c.398.767.842 1.47 1.333 2.18 6.556-.214 13.1-.2 19.657-.24q.157 1.551.246 3.109c-4.05-.502-8.263-.292-12.344-.44-2.065-.075-4.118-.458-6.183-.464.692.926 1.059 1.69 1.355 2.807l10.857-.378c2.084-.063 4.477-.352 6.515.05.126.731.274 1.465.376 2.2-5.712.08-11.378-.575-17.075-.683.686.845 1.376 1.714 2.197 2.434q8.01-.015 16.02.09c.508 3.054 1.004 6.179 2.182 9.057-3.14.025-6.778-.42-9.564 1.291.292.281.574.655.996.7 1.626-.542 3.319-1.164 5.027-1.365 1.598-.188 3.263-.1 4.875-.208.073-.957-1.019-4.154-1.257-5.368-.36-1.822-.7-3.706-.888-5.554-.146-1.434-.17-2.902-.376-4.327-.227.801-.435 1.585-.57 2.408-.745-3.748-.922-7.535-.37-11.33l.14-.107a4 4 0 0 0 .375-.338c.017-2.125-.037-4.24.037-6.364-.413.9-.854 1.782-1.408 2.606.162-3.706 1.345-7.313 3.025-10.605-.356.16-.651.379-1.043.326.209-.85.632-1.689.98-2.491 2.139-4.944 5.656-9.91 10.322-12.739q.3-.184.606-.357c-1.757 3.42-4.26 11.756-3.714 15.466.253 1.72-.276 3.553-.273 5.3.004 2.148.897 11.834 2.4 13.088.125.104.167.107.32.2l.019.02c.46 2.079.819 4.182 1.374 6.238 1.206 4.47 3.224 9.12 5.72 13.014l.16.08c.197-.25.432-.408.397-.737-.13-1.229-1.034-2.646-1.561-3.775-1.285-2.75-3.36-7.12-3.615-10.082.378.6.74 1.219 1.171 1.783l.067.141-.067-.141c-.288-.962-.83-1.799-1.086-2.801q1.052 1.55 2.06 3.13c-.35-1.16-1.231-4.331-2.056-5.08-.172.219-.155.264-.435.347-.86-1.2-1.18-5.769-1.398-7.398.823 1.568 1.936 2.967 3.023 4.358-2.227-5.219-2.636-8.401-2.764-13.93-.905 2.837-1.119 5.285-1.527 8.19-.945-3.753-.874-7.28-.186-11.063.19-1.043.628-2.057.708-3.11l-.08-.074a6 6 0 0 1-.75.496c-.16-.15-.154-.087-.168-.277-.157-2.179 1.74-8.644 2.65-10.725.483-1.106 1.096-2.174 1.892-3.085 1.063-1.216 2.319-1.99 3.963-2.077 1.33-.07 3.732.233 4.746 1.149l-.025.184c-.348.153-.727.21-1.098.286l-.075.143c.272.249.532.278.886.294.973.044 2.52.158 3.427-.078.656-.17 2.51-1.5 3.042-1.997l-.244-.111-.017-.127c.905-.674 2.255-.941 3.035-1.715.231-.228.213-.425.213-.737.001-.654 3.383-2.186 3.865-3.294l-.4-.322c-.019-.076-.066-.149-.057-.226.035-.318 3.1-3.081 3.516-4.217a4 4 0 0 1-.542.228c-.007-.047-.029-.093-.021-.14.107-.652 1.855-2.173 2.299-2.914.283-.474-.006-1.019.209-1.432.375-.723 1.379-1.1 1.764-1.882-.038-.186-.103-.418-.054-.607.32-1.236 3.545-3.278 3.881-4.733a13 13 0 0 0-.642.049c.178-.585 2.838-3.927 3.467-4.398.3-1.451.765-2.902 1.155-4.334q-.825.747-1.635 1.51c.433-2.297 1.17-4.43 1.752-6.678.583-2.255.633-4.55 1.815-6.624l.1-.076.098-.082-.098.082-.1.076c-.688.354-1.322.793-1.965 1.221.981-2.258 2.765-4.54 4.336-6.435-.479-.02-.954-.095-1.428-.159 1.288-1.222 2.435-2.59 3.569-3.954-.987-1.759-2.001-3.651-1.997-5.73.132-.163.422-.47.452-.684.165-1.172-.39-2.618-.049-3.784.142-.484.53-.807.661-1.31q.247-.923.562-1.827.314-.904.694-1.783t.822-1.726.947-1.662c.452-.724 1.013-1.563 1.893-1.75.912-.192 1.438-.749 2.202-1.242.776-.501 1.8-.985 2.745-.743 2.173.556 3.992 2.633 4.964 4.557.34.674.551 1.398.94 2.047.307-.02.268-.052.476-.252.133-1.087 1.517-.378 2.159-1.485.159-.274.03-.182.308-.273.397.247.734.532 1.209.436.402-.388.52-.908.696-1.424.204.37.393.793.697 1.09l.22-.029c.219-.209.41-.433.708-.522l.299.346c.408.082.594-.29.983-.413.22-.07.38.199.669.197.116-.215.224-.416.371-.613.326-.437 1.16.318 1.647.259.765-.906 1.432-.181 2.316-.642.22-.269.204-.49.213-.82l.002-.136c.108-.002.485.746.763.895.402-.104.584-.387.873-.678l.179.003c.191.407.356.804.653 1.146.442-.13 1.204-1.077 1.566-1.419l.205.049c.072.267.137.525.26.776.102.208.045.13.312.216.405-.1.605-.361.883-.65l.129-.137.26.085a4.4 4.4 0 0 0 .614.655c.457-.035 1.059-.604 1.433-.875.05.317.079.664.254.94.13.205.054.138.31.193.312-.2.597-.417.886-.648l.175.043c.019.146.03.314.068.458.093.362.114.377.417.572.491.006.937-.29 1.365-.506.296.307.533.63.956.719l.41-.352c.303-.038.351-.038.629.084.02.252.026.391.183.595.489.072.744-.11 1.175-.317l.186.083c.032.281.043.418.182.671.417.049.918-.225 1.305-.374.394.087.637.62.878.949.271-.158.426-.254.748-.274.382.272.767 1.46 1.036 1.948.825-2.277 1.566-4.87 3.894-6.054.457-.233 1.527-.38 1.856-.683.13-.12.254-.259.387-.381.78.028 2.895.476 3.576.815 3.213 1.597 6.573 8.033 7.497 11.382.43 1.56.756 4.62-.073 6.058-.336.586-.075.42-.047.93l-.289.128c-.13.71 1.067.621 1.417 1.138-.1.342-.314.464-.586.663.649.47 1.388.718 2.025 1.16.233.162.233.185.268.45-.215.235-.35.362-.455.673.412.529 1.207.608 1.626 1.149.31.4-.33.676-.37 1.178.236.273.472.488.508.865-.05.066-.124.165-.163.234-.356.636 1.112 1.388 1.294 2.118-.17.248-.318.49-.457.756.098.484 1.631 1.884 2.008 2.684-.194.277-.531.315-.846.425l-.088.217c.575 1.08 1.534 1.754 2.067 2.94l-1.562.51c.73.9 1.329 1.812 1.823 2.86l-1.408.605c.376.887 1.155 1.58 1.448 2.475-.238.155-.365.181-.633.239l-.11.023c-.244.743 1.902 3.183 1.819 4.147l-.424.181c.317.889 1.428 1.693 1.516 2.598a2 2 0 0 0-.346.443c.337.696 1.137 1.006 1.515 1.683l-.451.043-.067.194c.256.598.713 1.04 1.144 1.516-.146.274-.088.128-.17.439.268.54.931.986 1.355 1.431.14.346.027.692-.038 1.046l-.562.084-.053.149c.573 1.193 1.603 2.099 2.232 3.261-.055.04-.237.17-.276.216-.053.06-.121.119-.132.197-.01.077 1.012 1.697 1.118 1.9.496.95.844 1.97 1.337 2.921.39.755 2.193 3.414 2.263 4.006-.292.119-.416.142-.63.38.428.963.936 2.041 1.62 2.846.317.373-.523.755.084 1.865.364.664 1.622 1.647 1.678 2.305l-.488.226c-.305.65 1.218 2.537 1.414 3.34l-.227.241c.103.812.787 1.64 1.05 2.43.237.708.071 1.5.274 2.232.537 1.933 1.355 3.825 1.933 5.763-.752-.972-1.496-1.92-2.353-2.804.428 1.388 1.016 2.722 1.418 4.123 1.397 4.855 1.82 9.767 1.955 14.789l-.069-.102-.113-.171c-.884-1.32-1.448-2.853-2.236-4.237.987 4.421 1.057 8.496 1.088 12.998-.97-1.562-1.441-3.367-2.442-4.916 1.06 4.293.834 7.579.16 11.853-.179 1.14-.302 2.338-.6 3.452-.334-1.843-.478-3.482-1.063-5.294-.717 3.623-2.736 6.92-3.781 10.452 2.036-1.9 2.806-4.864 3.77-7.404.286 1.746.132 3.532.415 5.26.046.279.074.549.31.719.037-.034.077-.065.11-.102.43-.478.687-1.285.917-1.881 1.413-3.665 2.037-7.859 1.885-11.771.556.405 1.02.838 1.502 1.328.155-3.29.526-6.449 0-9.742.49.428.912.825 1.294 1.359-.054-2.334.153-4.664.024-6.998-.157-2.849-.88-5.834-1.561-8.605 1.109 1.578 1.939 3.307 2.755 5.048-.468-4.598-2.359-8.797-3.724-13.162-.277-.886-.373-1.829-.584-2.732-.254-1.091-.717-2.135-1.147-3.167q2.5.101 5.001.08c.177-.001.071-.024.28.121l-.32.21c1.216.15 2.3.293 3.434.78l-.202-.013c2.116 1.171 4.481 1.96 6.45 3.404 1.02.748 1.76 1.967 2.597 2.91.77.867 1.6 1.69 2.392 2.536-.145 1.831 1.65 2.51 2.543 3.878.18.276.084.398.026.693.42.875 1.138 1.636 1.744 2.391l-.173-.05.1.155c-.192.09-.245.144-.383.296-.153.72 1.086 2.112 1.47 2.755-.006.25.014.176-.046.38-.086.288.676 1.734.822 2.111.518 1.336 1.828 5.957 1.796 7.254l-.35-.068c.015.813.841 2.808.52 3.453-.267.54-.74.372-.65 1.25.1.977.836 2.754.507 3.642a8 8 0 0 0-.594-.068c-.298 1.654.896 3.25.948 4.814-.258.25-.671.258-1.013.316a9.7 9.7 0 0 1-.258 3.352c-.403 1.634-1.78 4.025-1.378 5.685.073.043.141.094.217.13.242.11.48.087.7-.038-.091-.151-.277-.334-.221-.511.195-.614.695-1.294 1.012-1.866.948-1.712 1.427-3.458 1.61-5.404q.06-.033.117-.067c.797-.474.818-.995 1.031-1.833a29 29 0 0 1-1.005-3.298c2.809.073 5.469-.223 8.255.336.511-1.08 1.425-2.228 1.567-3.424.28-2.363-.771-10.316-1.565-12.647-.304-.896-.725-1.569-1.303-2.307q-4.488.131-8.97-.166l-.017-.088c-.141-.904-.55-1.7-.92-2.53 2.576.183 5.124.246 7.705.27q-.438-2.077-1.098-4.096c-1.04-3.172-3.317-8.409-6.48-10.006-.931-.47-1.94-.552-2.964-.599-1.863-.084-4.076.2-5.876-.226-.777-.184-1.054-1.05-1.725-1.405-1.436-.756-3.103-1.124-4.565-1.87l-.124-.065c4.876.013 9.753.233 14.629.3-1.094-3.418-2.836-7.171-5.333-9.805-1.03-1.086-2.263-1.937-3.716-2.334-1.953-.534-4.234-.31-6.26-.382q-6.98-.3-13.966-.459l-.849-1.642c7.813-.09 15.616.441 23.422-.052-3.37-5.217-8.714-13.262-14.947-14.876-3.458-.895-8.148-.9-11.794-1.146-.891-.06-3.456.02-4.142-.38.01-.29.001-.29.193-.505 2.738-.138 5.583.098 8.328.13 3.392.038 6.781-.105 10.167.152-1.302-1.728-3.072-3.03-4.656-4.49-3.72-3.426-7.357-6.86-11.386-9.935-2.04-1.557-4.543-3.04-6.428-4.722-.712-.635-1.331-1.412-1.954-2.134.121-.34.181-.6.207-.96a3.5 3.5 0 0 1-.519-.83c.893-1.945-.909-2.018-1.249-4.263-.34-.197-.7-.379-1.033-.587-.314-.197-.506-.43-.584-.79l.198-.224c.567-.246 1.208-.173 1.816-.167q-1.373-.932-2.784-1.804c.042-.598.121-1.197.184-1.793 1.647 1.278 5.885 3.08 7.96 4.153q6.994 3.575 13.654 7.74c18.087 11.503 33.055 27.125 45.82 44.211 2.683 3.59 5.408 7.231 7.839 10.994q.436-1.443.82-2.902c-2.494-3.826-5.37-7.386-8.205-10.96-10.24-12.905-21.478-24.7-34.588-34.736-2.372-1.816-4.747-3.69-7.245-5.329-4.105-2.692-8.443-5.284-12.783-7.58-4.297-2.272-8.7-4.333-13.002-6.593-.126-1.167-.34-2.277-.597-3.42 7.962 4.15 16.057 7.93 23.72 12.646 2.831 1.742 5.575 3.687 8.28 5.62q1.648 1.201 3.272 2.437t3.223 2.503q1.598 1.269 3.17 2.57t3.116 2.633 3.062 2.698 3.006 2.76 2.949 2.82 2.89 2.882q1.43 1.455 2.83 2.94t2.768 2.997q1.37 1.513 2.707 3.053 1.338 1.541 2.644 3.109 1.305 1.568 2.579 3.162 1.273 1.595 2.513 3.215t2.447 3.265 2.38 3.316c.639-2.53 1.131-5.072 1.6-7.637-2.661-3.291-5.63-6.376-8.59-9.397q-6.271-6.523-13.016-12.555c-7.959-7.2-16.092-14.32-25.21-20.037-5.634-3.531-11.549-6.697-17.461-9.73-3.348-1.72-6.698-3.489-10.149-4.992-1.205-.525-4.375-1.625-5.246-2.465-.754-.727-1.915-3.602-2.522-4.673 4.02-2.007 7.906-4.279 12.026-6.085 8.42-3.692 18.617-5.496 27.541-2.783-11.574-.38-18.588 2.199-28.77 7.246-2.658 1.317-5.35 2.602-7.983 3.967-.346.18-.705.344-.827.73.934.598 7.466-2.32 8.772-2.906 2.531-1.134 5.049-2.335 7.644-3.317 7.898-2.988 17.595-5.07 25.885-2.823 3.752 1.017 7.2 2.856 10.61 4.677 3.356 1.79 6.683 3.684 10.179 5.19 3.38 1.456 7.017 2.537 10.59 3.416.509.125 1.21.353 1.676.073-.265-.72-1.712-.912-2.409-1.142-7.977-2.635-14.845-6.897-22.123-10.968-2.41-1.348-4.935-2.496-7.381-3.778 5.24 1.169 10.279 3.227 15.265 5.186q4.813 1.864 9.71 3.492c1.837.624 3.677 1.308 5.551 1.813-.29-.799-.656-1.562-1.015-2.331-4.827-.933-9.57-3.249-14.122-5.048-3.467-1.37-6.95-2.825-10.51-3.94-14.556-4.555-26.811-3.541-40.73 2.617-2.205.975-4.252 2.138-6.308 3.391-1.293.788-2.614 1.745-4.01 2.334l-.143.058c-.522-.974-1.103-2.23-2.098-2.789-.303-.17-.18-.029-.33-.343 2.093-1.52 4.544-2.675 6.848-3.833 11.105-5.584 23.25-8.39 35.665-6.531-1.797-.794-3.474-1.85-5.25-2.69-3.431-1.622-7.274-2.836-10.315-5.183-1.24-.957-2.328-2.147-3.463-3.226-2.177-2.069-4.482-4.1-7-5.749-1.443-.943-3.295-.485-4.802-1.222-.633-.31-1.169-.801-1.8-1.112-.76-.374-1.563-.66-2.321-1.047-3.487-1.78-6.517-4.142-8.986-7.19-.937-1.157-1.75-2.41-2.679-3.578a14.6 14.6 0 0 0-2.64.277c.744 2.882.737 5.95 2.562 8.486.559.775 1.442.623 1.923 1.286.637.877.643 2.088 1.268 2.917q.223-.019.447-.034c.485.443 1.972 2.111 2.211 2.66.056.129.028.522.038.684.226.246.588.522.923.603.878.212.621-.896 1.168-1.214.952.245 1.185 1.654 1.78 2.347.326.38.822.697 1.224.995-.363-.666-.749-1.334-1.04-2.036-.156-.376-.258-.687-.096-1.083.399-.216.582-.056 1.006 0 .57.074.996.404 1.53.468.09.011.487-.033.544-.065.236-.136.868-1.44 1.264-1.761.202-.165.31-.18.563-.118 2.013.496 4.285 4.937 5.399 6.646.264-.137.12-.098.436-.106.604.692 1.118 1.458 1.71 2.162 2.076 2.467 4.202 4.802 6.523 7.043-.607.055-1.206.184-1.805.297-.145-.216-.296-.428-.437-.646a20.4 20.4 0 0 0-3.003-3.6c.438.987 2.311 3.357 3.05 4.328l-1.15.312c-2.304-2.858-3.825-6.196-6.067-9.055l.05.114c1.227 2.94 3.376 6.602 5.368 9.08l-2.019.645c-1.81-.997-3.049-2.61-4.69-3.813-.613-.45-1.365-.79-2.034-1.151-.108-.243-.085-.148-.124-.396l-.022-.168c-.597-.47-1.212-.944-1.763-1.468-.627-.598-1.226-1.442-1.936-1.921-.647-.436-1.428-.759-2.126-1.105-.871-.43-1.71-.927-2.594-1.332-1.362-.626-2.776-1.157-4.086-1.89-1.116-.624-2.036-1.697-3.095-2.435-.638.103-1.243.263-1.863.439.02.68.081 1.38.176 2.053.184 1.304 1.202 3.313 2.388 4.051.391.244.61.047.942.491.973 1.307 1.29 2.686 2.675 3.71.08 3.404 1.486 7.072 2.17 10.456-.264.35-.62.74-.8 1.14-.134.296-.061.371.046.66l-.133.16-.24.007c-.753-.846-.744-3.54-1.031-4.728-.252-1.042-1.804-7.433-2.315-7.74-.306.822.299 3.03.461 3.948.35 1.973.805 3.94.923 5.944.088 1.497-.171 3.114.132 4.577-.432-.29-.853-.597-1.315-.84-1.593-.836-3.78-1.806-5.552-1.018-.755.335-1.358.812-2.166 1.056l-.15.043c-5.146-1.445-11.776-1.874-17.162-2.516-4-.477-8-1.018-12.007-1.424q-19.775-1.953-39.646-2.197c.116.184.234.368.367.54q.102.128.217.245c.975.989 3.19.975 4.51 1.08 5.906.472 11.832.665 17.744 1.023 6.054.367 12.158.901 18.192 1.514 3.767.382 7.56.963 11.289 1.619.915.16 1.763.648 2.663.726l.216.018.013.202c-.028.03-.053.062-.084.088-.508.427-1.699.495-2.336.43-.36-.038-.516-.18-.72-.456-.021-.029-.146-.207-.173-.237-.112-.12-.238-.282-.416-.272-.492.026-.89.432-1.192.78l-.091.107q-5.715-1.033-11.48-1.73-5.765-.696-11.56-1.054c-5.019-.318-10.06-.418-15.083-.652q-3.19-.15-6.385-.198c-1.299-.016-2.633.041-3.926-.06-.552-.044-1.075-.217-1.63-.269-.054.13-.173.368-.187.518-.026.274.024.5.24.683.22.185 2.444.849 2.823.913.935.158 1.941.137 2.89.239 1.646.177 3.34.485 4.995.526 1.74.044 3.518-.125 5.262-.168 2.376-.058 4.76-.007 7.137.024-1.046.429-1.99 1.012-2.93 1.633-5.03-.067-10.042-.06-15.07-.243-.968-.035-1.981.194-2.936.102-.32-.03-.589-.133-.882-.258a1.7 1.7 0 0 0-.645-.138c-.114.249-.081.255-.045.51.232.364.49.552.84.8l.14.099c.028.51.072.75.457 1.11l.419-.083c2.565 1.194 5.659.875 8.407 1.418-2.837 1.068-5.953 1.093-8.942.925zm31.243 4.103.073.15.039.134c.3 1.005.995 1.81.756 2.893-.266.037-.394-.004-.64-.106-.114.98.985 1.159-.172 2.116-.28.8-.509 1.614-.74 2.43-.056-.913-.088-1.785-.328-2.672-.064-.24-.049-.43-.033-.671.01-.167.012-.099-.07-.282l-.07-.025c-.426.6.778 3.099-.525 3.755-.752-.256-1.16-1.453-1.616-2.075l.035.187c.132.676.767 1.815.7 2.401-.285-.02-.147.021-.409-.132l-.113.088.196.262-.026.046-.394-.035c-.12.39.199.789-.009 1.061l-.639-.227-.05.117.371.435-.075.2c-.601.216-1.229.382-1.818.626.435.391.863.791 1.306 1.173-.396-.001-.84-.03-1.216.11-1.532.575-2.234 2.418-4.542 1.154-1.247.564-2.652 1.16-3.693 2.064l-.055.23c.514.215 1.103-.148 1.56.121-.074.348-.219.535-.505.735-.495.346-1.127.565-1.515 1.038l.062.11.94-.178.063.089c-.72.903-1.708 1.663-2.555 2.454l1.603-.455c-.979 1.067-2.358 2.438-2.895 3.802l-.048.063.048-.063c.816-.608 1.555-.848 2.529-1.055-1.006 1.254-2.19 2.307-2.75 3.841l-.04.101c.752-.31 1.491-.622 2.275-.84-.67 1.404-1.672 2.565-2.485 3.88-.656 1.061-1.088 2.221-1.573 3.365.624-.555 1.348-1.214 2.165-1.457l.239.06c.016.567-1.318 2.557-1.626 3.289-.523 1.243-.76 2.49-.903 3.824.56-1.031 1.393-2.757 2.548-3.22l.302.058c.148.558-.813 2.413-.95 3.173-.202 1.126-.145 2.213.082 3.329.426-1.33.876-2.249 1.895-3.242-.554 1.955-.741 3.436-.608 5.456.29-1.133.895-2.098 1.484-3.098.089 1.72.313 3.401.787 5.062.284-1.295.697-2.382 1.301-3.56-.471 2.375-.013 4.314 1.122 6.413a21 21 0 0 1 .91-4.155c.088 3.09 1.106 4.303 2.807 6.724a20.2 20.2 0 0 1 .1-4.156c.705 2.332 1.8 4.117 3.303 6.018-.38-1.678-.373-2.798-.019-4.48.38 2.89 1.372 3.796 3.361 5.72l.063.056-.063-.055c-.186-1.822-.453-2.55-.06-4.481.177 1.087.13 2.594.69 3.55.179.305.414.632.769.726.27-.439.071-1.366.02-1.896.847 1.598 2.054 3.044 3.6 3.984-.439-1.012-.7-2.044-.967-3.111 1.092 1.736 1.49 2.556 3.412 3.53-.666-.957-1.113-1.87-1.494-2.97.613.682 1.148 1.432 1.772 2.108.834.904 2.86 2.87 4.153 2.922.09-.274.077-.175.098-.436l.01-.17c.89.226 1.74 1.495 2.629 1.943.33-.246.533-.425.966-.429.831.3 1.078 1.089 1.459 1.825.2-.565.379-1.569.808-1.951.637.049.848.912 1.261 1.342.188-.313.426-.81.695-1.05.256-.23.353-.23.669-.218.487.244.734.687 1.04 1.12.436-.47.69-.996 1.051-1.516.155-.221.051-.148.337-.201.002.166.03.293.068.454l.204.02c.556-.265.86-.824 1.247-1.287l.008.007c.264.021.67.093.921.01.686-.225 1.542-1.458 1.945-2.053.144-.212.246-.37.453-.527q-.01.374.005.747l.144-.055c.542-.732.85-1.683 1.197-2.524-.205 1.953-.636 3.603-1.632 5.3 2.294-1.337 3.752-3.239 5.066-5.5q-.344 2.071-.986 4.07c.84-.854 1.393-1.758 1.98-2.792-.249.967-.602 1.803-1.053 2.688 1.244-.523 3.098-1.573 3.72-2.833.222-.45.344-.942.57-1.4l.137-.004.093.199c-.006 1.123-.493 2.277-.876 3.316 2.215-1.64 3.641-2.81 4.174-5.623.064 1.387.02 2.426-.368 3.77 1.627-1.417 2.62-3.223 3.61-5.106.21 1.115.134 2.034-.015 3.145 1.684-2.64 2.745-4.703 3.162-7.834.4 1.79.454 3.492.293 5.315 1.774-3.14 2.42-5.53 2.161-9.093.483 1.465.89 2.912 1.18 4.43l.135-.243c1.22-2.211 1.843-3.809 1.117-6.315 1.048 1.843 1.188 2.612 1.189 4.734 1.098-2.611 1.47-3.863.867-6.744q.747 1.149 1.467 2.315c.183-2.16-.157-3.184-1.092-5.102.89.669 1.68 1.46 2.485 2.227-.582-1.775-1.402-3.418-2.086-5.15a39 39 0 0 0 2.145 1.783c-.468-1.53-1.518-3.335-1.801-4.629l.128-.133c.679.362 1.33.705 2.068.928l.158.045-.13-.143c-.512-.569-1.936-2.083-1.896-2.832.253-.114.46-.102.732-.112-.162-.674-1.238-1.596-1.626-2.245-.281-.47-.468-1.019-.661-1.53.56.255 1.07.67 1.574 1.023-.509-.892-1.807-3.237-1.87-4.166.21-.198.458-.137.74-.147.163-.545-1.671-1.824-1.866-2.54.272-.21.72-.102 1.068-.189-.219-.667-1.757-.976-2.158-1.638.22-.258.47-.21.797-.252l.091-.123c-.62-.688-1.663-1.024-2.411-1.577-.27-.2-.394-.33-.433-.661.474-.354 1.053-.065 1.605-.249-1.473-.9-3.336 1.92-5.862 1.15-.493-.15-2.061-.704-2.264-1.107l.392-.339-.03-.169c-.35-.16-.814-.289-1.006-.642l.267-.416c-.192-.274-.687-.01-1.045-.243l-.014-.216c.205-.227.377-.426.531-.692-.17-.25-.173-.226-.473-.29-.229.118-.408.22-.667.247-.314-.42-.213-1.074-.416-1.574l-.347.038c-.236-.573.17-1.067.01-1.619l-.453.32-.171-.05-.1-.698c-.237-.02-.223.013-.413.133l-.076-.232c.147-.287.342-.56.29-.894-.298.217-.51.392-.89.435-.85-.435-.15-.764-.4-1.442-.557.032-.772.663-1.315.69-.442-.809.806-2.919.9-3.914l-.117-.044c-.471 1.09-.36 2.135-1.322 3l-.082.073c.089-.475.282-.899.094-1.352-.148.188-.242.385-.346.6.015.366.058.436.252.752-1.789-.667-1.807-4.461-3.264-5.184-.276.243-.504.513-.89.538-.5-.266-.878-.847-1.237-1.28-.094.145-.194.322-.32.444a1.06 1.06 0 0 1-.752.334c-.24-.253-.247-.469-.333-.8-.43-.396-1.103.411-1.64.343a2.3 2.3 0 0 1-.279-.457l-.08-.178c-.365-.156-.664-.073-1.042-.01l-.175.03-.215-.411c-.457-.105-1.004.194-1.43.356-.402-.066-.451-.252-.7-.563-.241-.009-.704.506-.928.677l-.214-.047a11 11 0 0 0-.285-.836c-.41.104-.352.621-.717.89-.349-.107-.515-.377-.734-.65-.188.386-.642 1.474-1.023 1.618a6 6 0 0 0-.173-.571c-.334.35-.548 1.389-.82 1.89l-.082.146c-.176-1.023-.379-1.977-1.055-2.806-.277-.34-.52-.472-.964-.522-.04.05-.087.095-.122.148-.039.06-.065.127-.098.19l-.278-.273c-.317.03-.501.342-.719.568l-.058-.251-.056.33c-.233-.065-.372-.443-.711-.547-.05.173-.092.272-.183.432-.364-.019-.622-.159-.942-.316l-.142-.07c-.311.173-.38.582-.515.91-.33-.1-.642-.19-.933-.38-.051-.033-.169-.114-.223-.143-.224-.12-.365-.193-.614-.115-.076.345-.16.68-.26 1.018l-.222.067c-.286-.149-.584-.32-.886-.435a.77.77 0 0 0-.683.047c-.194.109.033.366-.05.624-.132.033-.228.063-.367.068-.352.012-.586-.216-.836-.427-.149-.126-.2-.1-.39-.12-.355.224-.556.45-.812.783-.127.164-.042.11-.244.158l-.296-.498-.164-.033a6 6 0 0 0-.63.846c-.365.15-.404.041-.77-.102-.2.419-.282.735-.663 1.009-.355-.085-.503-.299-.765-.547l-.098.05c-.315.748-.491 1.538-.69 2.322-.312-.547-.614-1.09-1.001-1.589zm-84.315.899c-.537-.082-.774-.08-1.143-.495-.495-.556-2.265-1.64-2.418-2.05a6 6 0 0 1 .5-.844c-.02-.389-.122-.645.127-.955 1.081-.268 2.257-.254 3.366-.313 1.483-.08 2.976-.183 4.46-.2 2.101-.022 4.18.068 6.275-.157l.563-1.34c-4.98-.406-10.094-.019-15.058-.703-.271-.245-.538-.498-.82-.73l.186-.056c2.867-.87 9.21-.956 12.435-1.013 1.211-.021 2.485.093 3.686-.066.514-.067.879-.169 1.277-.503l.115-.33c-1.159-.771-9.643-.567-11.733-.826l.193-.09c2.811-1.29 11.729-.318 13.346-1.762l-.004-.22c-.359-.245-.792-.296-1.218-.332-1.627-.138-3.327-.029-4.96-.016-3.423.027-6.863.109-10.285.03-4.837-.047-9.7-.162-14.534.036-.336.768-.69 1.531-.97 2.322 1.627.063 3.28.111 4.905 0-.613.713-1.061 1.382-1.42 2.262q-2.228.095-4.458.13a18 18 0 0 0-.663 1.666c1.556-.093 3.148-.233 4.705-.11-.623.916-1.264 1.815-1.655 2.858-1.171.146-3.463.069-4.436.74l-.098.243c.174.218.288.189.554.213 1.185.11 2.656-.35 3.763-.067.178.266.15.4.084.702-.154.71-.603 1.415-.27 2.136.297.226.294.24.664.227.539-.353.817-1.04.939-1.655.035-.18.031-.355.03-.537-.171-.21-.307-.3-.532-.445-.154-.297-.194-.366-.1-.71.311-1.134 1.76-1.144 1.303-2.59.237-1.128 1.57-3.255 2.532-3.874.654-.421 1.406-.579 2.049-1.045.311.121 1.183.34 1.282.645.013.04.025.278.028.31.022.293.072.446.241.692.24.144.454.23.72.313.392.503 1.351 2.24 1.28 2.874-.006.054-.022.107-.033.161-.271.054-.377.017-.638-.05-.066.198-.096.15-.006.318.381.706 1.014.742.984 1.674l-.104.154c-.232.354-.39.566-.305 1.003.046.236.108.5.323.619.497.276.965.262 1.151.896.107.364.157.915-.055 1.238l-.162.036c-.394.095-.571.124-.797.456.01.638.499 1.13.93 1.552.494.482 1.22 1.179 1.894 1.34q-.019-.063-.033-.126c-.159-.725-.013-1.447.323-2.1.557-.474 1.771-.015 1.914-1.023zc.304.202.577.448.885.651.33-.178.378-.454.536-.784.013-.128-.042-.215-.088-.333l-.285-.071c-.443.098-.69.264-1.048.537m162.366 5.209-.06.074zc1.87-.343 4.462-1.456 6.428-2.019q3.71-1.084 7.482-1.93 3.772-.847 7.59-1.453l-.042-.124a11 11 0 0 0-1.336-.246c-5.373-.553-11.581 1.516-16.437 3.74-1.23.564-2.632 1.189-3.685 2.032m-180.407.377c1.89.985 3.964 1.881 5.937 2.692.308-.172.425-.488.607-.786-.092.599-.011.822.302 1.335.53.23.748-.158 1.268-.07.33.382.637.76 1.123.946 1.237.47 2.599.784 3.868 1.163 3.47 1.036 6.936 1.967 10.444 2.861 3.29.84 8.433 2.424 11.747 2.5.826.018 1.59-.395 2.327-.726-.867-.358-1.737-.584-2.647-.804-5.319-1.063-10.442-2.643-15.691-3.956-2.486-.621-6.406-.797-8.522-2.024 1.525.142 2.965.439 4.457.77-.426-.224-.873-.485-1.329-.637-.898-.3-2.067-.33-3.01-.464a33 33 0 0 1-4.337-.894c-1.247-.518-5.69-2.427-6.788-2.114zm12.113 2.275.046.17.171.053-.17-.053zM14.68 98.945l.054.082a48 48 0 0 0 5.119 1.974c4.156 1.312 8.492 2.19 12.727 3.215 4.066.984 9.161 2.654 13.254 2.753.828.02 1.785-.346 2.587-.57l.263-.102-.043-.144c-1.434-.495-4.828-.78-6.638-1.172q-7.185-1.532-14.334-3.221c-1.556-.353-3.107-.74-4.665-1.083-.443-.098-.945-.085-1.374-.211-.291-.086-.537-.294-.834-.383-1.59-.48-4.402-1.022-6.062-1.056zm188.12 2.139.138.071c4.527 1.815 8.636 4.59 12.55 7.467 8.96 6.587 15.51 12.987 23.146 20.943-.915-2.314-9.995-12.483-11.982-14.59-5.758-6.11-15.049-13.567-23.714-13.82zm-187.01 3.364.061.068c1.269 1.022 15.703 5.397 17.805 5.824 1.237.252 2.351.333 3.608.218-.35-.323-.704-.464-1.152-.612-2.923-.972-6.068-1.593-9.048-2.421l-7.158-1.996c-1.312-.365-2.702-.856-4.055-1.013zm77.189.778c-.535.154-1.01.312-1.447.668.533-.107 1.089-.22 1.447-.668l.045-.07zm89.083 2.415.051.051c.479.982 1.51 1.992 2.469 2.51l.092.07.099.08-.099-.08-.092-.07c-.599-.837-1.554-2.017-2.469-2.51zm-89.364 2.178c-.207.06-.437.06-.554.248.297-.041.328-.053.554-.248l.076-.042zm-12.502 3.6-.137.124c-.624.191-1.338.49-1.773.99.636-.171 1.346-.465 1.773-.99zl.193-.047zm-12.018 4.843c-1.244.293-3.938 1.733-4.639 2.808 1.292-.543 3.83-1.684 4.639-2.808l.052-.05zM209.923 97.9c.555.42 3.018.999 3.824 1.273 2.198.75 4.358 1.804 6.424 2.86 7.373 3.768 14.175 9.074 19.965 14.983 1.797 1.833 3.395 3.846 5.17 5.693l.049.064-.048-.064c-.356-1.023-1.284-2.175-1.917-3.067q-1.31-1.867-2.728-3.653-1.419-1.785-2.942-3.483-1.523-1.697-3.145-3.3t-3.337-3.106c-5.68-4.91-13.664-8.77-21.315-8.2m-156.2 28.44c-1.408.373-3.256 1.005-4.377 1.952 1.392-.258 3.306-.996 4.377-1.953l.117-.068zm154.641 4.497.106.108.08.077c1.325 2.26 5.92 6.575 8.314 7.504l.077.05-.077-.05c-2.094-2.216-5.804-5.951-8.314-7.504l-.08-.077zm-.105-5.349c.992 2.21 5.669 6.027 7.893 6.888l.06.061-.06-.061c-.766-1.055-2.15-1.98-3.146-2.826-1.589-1.35-3.14-2.732-4.747-4.062m24.653 36.788.052.065c.689 2.238 1.5 4.473 3.433 5.931-.676-1.97-1.924-4.461-3.433-5.931zm-57.041 49.703-.125.144zl.096-.124zm-118.394 8.55.034-.307c-1.228-1.481-4.3-2.222-6.135-2.402-1.917-.188-3.799.01-5.668.446.297.384.57.835 1.113.843.464.007.94-.199 1.415-.225q.74-.043 1.48-.018.741.025 1.476.117.736.093 1.46.254.723.16 1.429.386c.92.298 2.205 1.197 3.098 1.284-1.005.92-3.43 2.756-3.755 3.97l.082.358c.158.078.202.154.384.079.004-.001 3.698-3.436 4.298-3.89 7.627-5.774 17.164-7.325 26.255-4.42 6.072 1.942 11.088 6.192 14.846 11.25-.29.158-.122.127-.403.077-1.048-.19-3.29.572-4.366.858.04-.63-.37-1.077-.772-1.534q-.204-.237-.415-.469-.21-.231-.427-.458-.217-.226-.439-.447-.222-.22-.45-.435-.227-.215-.46-.425-.233-.209-.47-.412-.239-.203-.482-.4t-.492-.388q-.248-.191-.5-.376-.254-.184-.51-.363-.258-.178-.52-.35-.262-.17-.528-.336-.266-.164-.537-.322-.27-.159-.544-.31-.274-.15-.552-.295-.278-.144-.56-.281-.281-.137-.566-.267t-.573-.253-.579-.238-.585-.223q-.294-.109-.59-.209-.297-.1-.596-.193t-.6-.179-.604-.163-.609-.147-.612-.133q-.306-.062-.615-.116-.308-.055-.618-.101t-.62-.086-.622-.07-.624-.054-.625-.038c-5.699-.305-11.993 1.937-16.208 5.782-.899.82-1.73 1.725-2.56 2.612l1.14.646q.168-.204.343-.403.174-.2.353-.394.18-.195.363-.386.184-.19.372-.377.188-.186.381-.367.193-.182.39-.359t.399-.348.406-.34.416-.328.423-.319.43-.308.438-.298.445-.287q.224-.14.452-.276.227-.135.458-.265t.465-.254.47-.242.477-.23q.24-.113.482-.22.243-.107.488-.207.244-.101.492-.196.247-.095.496-.183.25-.09.501-.172.252-.082.506-.159.253-.076.508-.147.256-.07.512-.134.257-.064.516-.122.258-.058.518-.11.26-.05.52-.096.261-.045.523-.084t.525-.071.526-.059c5.73-.574 11.952 1.181 16.417 4.858 1.466 1.208 2.886 3.056 4.337 4.096-2.631.873-5.49 1.834-7.775 3.438-2.905-2.9-6.716-4.704-10.864-4.693-3.737.01-7.559 1.558-10.16 4.265l-.144.153c.305.25.608.52.931.745 2.557-2.588 5.598-4.057 9.265-4.059 2.556 0 5.188.71 7.33 2.121.668.44 1.352 1.075 2.054 1.432.254.13.588.093.864.083l.071.088c-.79.909-1.999 1.478-2.63 2.482l-.222.052c-.586-.437-1.101-.96-1.708-1.37-2-1.352-4.644-1.988-7.035-1.636q-.348.053-.692.13t-.681.177-.668.223-.652.269q-.32.145-.631.312-.31.166-.609.354-.298.187-.583.395-.285.207-.555.433c.372.252.75.57 1.204.628.53-.335.983-.823 1.521-1.124 1.514-.843 4.097-.898 5.752-.522 1.684.383 3.154 1.235 4.53 2.254-.815.772-1.62 1.633-2.536 2.284-1.392-1.206-2.72-1.73-4.584-1.607-.726.048-1.433.189-2.143.34.418.25.87.486 1.25.792 1.475-.109 3.565.01 4.76.963-.017.385-.079.635.095.985.31.173.47.182.822.161.577-.487 1-1.095 1.529-1.63a44 44 0 0 1 3.315-3.05c3.752-3.089 9.371-5.405 14.214-5.956 1.59-.18 3.189-.118 4.78.015 5.626.469 9.94 2.277 14.527 5.476 1.713 1.195 3.52 2.629 4.887 4.227.494.578 1.14 1.74 1.812 2.013-.102.212-.227.224-.443.293-1.406.454-3.007.425-4.438.85-1.505.448-2.918 1.443-4.456 1.733-1.148-.691-1.966-1.907-3.068-2.688-4.436-3.147-10.271-4.184-15.547-2.884-2.452.604-4.57 1.77-6.546 3.316-.461.36-1.064.77-1.389 1.267-.186.285-.178.426-.131.752.6.686 7.78 2.624 9.175 2.932 1.53.338 3.097.494 4.63.82 2.572.546 4.3 1.223 7.07 1.493.661-.451 1.597-.805 1.814-1.649.03-.117.025-.182.025-.295l.16.168c.471.002 1.202-.621 1.619-.889 1.36-.872 2.723-1.515 4.215-2.13q.354-.145.712-.28t.72-.262q.36-.126.725-.243t.732-.224.738-.204q.37-.098.743-.185.373-.088.747-.166.375-.078.752-.146.376-.068.755-.126.378-.059.758-.107t.76-.087.763-.066.764-.047.765-.027.766-.007.765.013.765.033.764.054.762.073q.38.041.76.093.379.051.757.113.378.061.754.132t.75.153.746.172.741.191.736.21.73.23.724.25.717.267.71.287.703.304.694.324c2.248 1.106 4.253 2.88 6.544 3.811l.15.06c2.03-.251 3.965-.768 5.97-1.124 2.518-.447 5.423-.66 7.805-1.63.284-.115.534-.28.596-.61.062-.332-.032-.592-.239-.849-1.072-1.327-4.93-2.129-6.59-2.22-3.959-.216-7.254 1.235-10.187 3.84-3.052-2.123-6.931-3.764-10.607-4.413-.73-.13-2.453-.212-2.967-.607.759-.467 1.102-1.089 1.66-1.743 4.408-5.16 12.051-9.173 18.847-9.66 7.358-.529 14.975 1.736 20.74 6.386 1.46 1.177 2.624 2.599 4.025 3.815.322.03.445.074.732-.066l.067-.256c-.139-.484-.346-.717-.692-1.077.915-.525 1.82-1.004 2.87-1.197.59-.109 1.45-.183 1.955.18-.478.394-1.084.628-1.517 1.069 1.378-.586 8.8-4.19 9.296-5.029l-.102-.367-.198-.066c-.696.36-1.336.776-1.986 1.212-2.958-1.593-5.746-2.453-9.128-1.776-1.659.332-3.857 1.127-4.836 2.583-.704-.58-1.5-1.15-2.378-1.434-.518-.168-.556-.274-.84-.711.156.05.516.254.652.253.19 0 2.502-1.826 2.88-2.06 1.748-1.078 4.032-1.747 6.08-1.863 4.198-.24 7.202 1.154 10.259 3.887.636-.356 1.363-.574 2.015-.93 2.218-1.216 4.43-2.688 6.474-4.178-1.236-1.741-3.008-3.212-4.755-4.417-5.247-3.624-11.998-4.594-18.195-3.44-4.657.866-10.862 4.55-13.53 8.544l-.06.092-.253-.025.22.092-.085.385c.131.124.172.236.369.218.861-.075 2.045-1.673 2.641-2.256q.198-.195.402-.386.202-.19.41-.375.208-.186.42-.366t.428-.355.437-.344.446-.334q.225-.163.454-.322.23-.158.462-.31.233-.152.47-.299t.476-.287.484-.276.49-.263.497-.25.503-.24q.253-.115.508-.225.256-.11.514-.214.259-.103.52-.2.26-.097.524-.187.263-.09.529-.174.265-.084.532-.162.267-.077.537-.147.269-.07.54-.135.27-.063.543-.12.272-.057.546-.108t.549-.093.55-.08.553-.067.554-.052.555-.04q.278-.015.556-.024.279-.009.557-.011t.556.003c6.682.053 12.016 2.893 16.64 7.561l-.12.042c-.983.319-2.107 1.11-2.922 1.75-.69-.773-1.373-1.472-2.2-2.097q-.194-.145-.391-.285t-.397-.275-.404-.265-.41-.255q-.208-.125-.417-.245-.21-.12-.423-.234-.212-.115-.428-.224-.215-.11-.433-.213-.218-.104-.44-.203-.22-.098-.443-.191t-.448-.18-.452-.17-.457-.158-.46-.147-.464-.135-.467-.124-.47-.113q-.235-.053-.472-.1t-.475-.09q-.238-.04-.477-.076t-.478-.066q-.24-.03-.48-.053-.241-.024-.482-.042-.24-.017-.482-.03-.242-.011-.483-.017-.242-.006-.483-.006-.242 0-.483.006-.242.006-.483.018-.241.013-.482.03-.241.019-.481.042t-.48.054q-.24.03-.48.066c-3.146.45-8.82 2.858-10.677 5.482-.218.308-.375.6-.3.986.13.032.257.096.39.095.602-.006 2.2-1.737 2.772-2.15 2.997-2.16 6.362-3.37 10.05-3.556 5.281-.265 9.822 1.947 13.645 5.428-1.046.35-1.963 1.152-2.98 1.627-1.327-1.284-2.836-2.288-4.555-2.964q-.341-.136-.688-.255-.348-.12-.7-.221-.353-.102-.71-.186-.358-.084-.72-.15-.36-.066-.725-.114-.364-.048-.73-.078t-.733-.042-.734-.005-.733.03q-.367.026-.732.069-.364.043-.726.104-.362.06-.721.14-.359.078-.713.175t-.703.211-.692.245-.679.28c-1.316.578-4.028 1.987-4.572 3.388-3.891-1.854-9.023-4.137-13.384-4.17-.935-.007-4.15.26-4.858-.163l.023-.106c.28-.047.523-.112.79-.209l.021-.221c-.748-1.045-1.477-2.105-2.357-3.046l-.161-.17c.902-.435 1.744-.831 2.731-1.033 1.955-.399 4.163-.127 5.839.983-.55.759-1.217 1.435-1.776 2.19-.34.456-.67.877-.587 1.464.248.142.664.254.925.062.569-.418 1.158-1.707 1.635-2.315.505-.644 1.075-1.233 1.665-1.8 3.766-3.621 7.97-6.371 13.093-7.635 5.93-1.461 12.497-1.019 18.128 1.41 1.472.635 2.919 1.525 4.292 2.354.106.68.191.404.713.55.163.045.471.351.603.46 1.671 1.376 3.199 2.902 4.85 4.299.464-.467.905-.948 1.345-1.438l.073-.05-.073.05a10 10 0 0 1-1.17.384l-.027-.11c.397-.596 1.724-.665 2.37-.89.658-.227 1.456-.996 2.02-1.429-1.735.146-3.527.555-4.876 1.723-.844-.865-1.835-1.556-2.696-2.401l.052-.118c.575-.018.855-.296 1.308-.593 2.767-1.817 5.946-1.909 9.067-1.267l.854-.806c-3.059-1.232-6.839-.685-9.717.769-.79.399-1.483 1.104-2.28 1.422-.23-.196-.42-.35-.693-.484-.283.117-.377.175-.69.14.214-.152.287-.16.392-.41-.423-.541-1.464-.888-2.093-1.197 1.46-.844 2.671-1.898 4.252-2.59 4.393-1.922 8.85-1.716 13.242-.024.26-.22.777-.568.85-.89-1.632-1.077-4.775-1.482-6.704-1.515-4.649-.079-9.01 1.28-12.388 4.558-3.37-1.752-5.989-2.502-9.69-3.217 1.973-2.51 4.108-4.095 6.84-5.688-1.646.154-2.801.207-4.153 1.227l-.664-.761c-.816.022-1.78-.04-2.536.31-.275.129-.308.151-.41.421.162.278.324.355.594.51.748-.091 1.302.044 2 .323l.16.066c-.47.517-1.055.937-1.6 1.375-1.067-1.069-2.188-1.602-3.605-2.05l-.041-.156c.494-.277 1.178-.116 1.736-.116l.09-.215c-1.246-.287-3.143-.175-4.365.12.232.326.729.037 1.088.244-.22.225-.38.239-.685.25-1.316.045-2.662.992-3.891 1.476l-.048-.1c-.252-.073-.47-.263-.687-.41-.314-.212-.477-.304-.616-.68.154-.53.759-.93 1.162-1.311-.537-.007-1.31-.098-1.807.117-.193.082-.185.2-.258.379-.364.1-.667-.36-1.06-.43-.624-.112-1.391-.062-2.036-.096 2.56 1.161 4.524 3.085 6.488 5.043-1.636.208-3.26.515-4.825 1.044-1.54-1.76-3.596-3.174-5.678-4.217-1.389-.695-2.931-1.35-4.47-1.62-2.484-.436-5.507-.124-8.047-.118-1.672.005-3.404-.151-5.064-.025q-.529.039-1.048.147t-1.02.282c-2.49.846-7.782 3.735-8.932 6.102l-.083.175c-1.416-.88-3.474-1.168-5.1-1.447 2.16-2.196 4.348-3.905 7.101-5.296l-2.684-.07q-1.577 1.214-3.07 2.53c-1.62-1.16-3.068-1.946-5.088-2.052-2.439-.128-4.293.544-6.11 2.166-1.07-1.148-2.109-1.887-3.457-2.69l-2.52.001c1.233.637 2.55 1.252 3.66 2.086 1.445 1.085 2.57 2.547 4.28 3.238l-.11.01c-3.397.252-7.087 1.642-10.108 3.193-1.323-1.402-3.068-2.41-4.799-3.224q-.413-.192-.836-.363-.423-.172-.853-.322t-.868-.28-.88-.237-.892-.194-.9-.15-.905-.105-.91-.06q-.456-.02-.912-.016-.456.003-.912.028-.455.026-.909.074-.453.048-.904.118-.45.07-.897.162t-.889.206-.877.25q-.435.135-.864.291c-1.326.481-4.455 1.719-5.073 3.039.081.346.112.326.41.532.483.006 1.823-1.096 2.35-1.375q.995-.526 2.038-.947 1.042-.422 2.122-.736c4.323-1.262 8.876-.484 12.834 1.514.845.427 1.506 1.045 2.304 1.49.322.18.68.248 1.01.43l.066.236c-1.27 1.07-2.853 1.9-4.2 2.894-.906.667-1.689 1.524-2.472 2.327-.803-.59-1.59-1.173-2.54-1.507-2.439-.857-4.74.01-6.958 1.032l.853.874c.793-.416 1.713-.844 2.598-1.004 1.418-.256 3.158-.12 4.362.714.346.24.643.508.718.931-1.001.685-1.782 1.727-2.26 2.845l-.044.107c-.486-.026-2.71-.005-3.005-.182-.319-.192-1.722-2.245-2.099-2.684-1.458-1.697-3.1-3.618-4.92-4.918-1.834-1.31-4.094-2.522-6.13-3.49-.489-.231-1.093-.19-1.509-.512l.006-.17c1.006-.641 1.93-1.402 2.932-2.052 3.03-1.965 6.529-3.31 10.145-3.578 1.4-.104 2.826-.073 4.23-.041 6.357.142 9.34 1.936 14.101 5.856.44.363.753.438 1.325.385l.117-.188c-.014-.049-.023-.1-.042-.148-.584-1.491-4.485-3.93-5.888-4.671-1.247-.658-2.699-1.329-4.091-1.59-1.526-.288-3.35-.056-4.92-.052-2.54.006-5.13-.115-7.664.047-.991.063-1.986.166-2.938.465-2.378.747-6.92 3.212-8.072 5.467-.769-.264-5.007-1.281-5.27-1.526l.07-.182c2.178-1.45 3.352-3.003 5.85-4.308l-2.315.001c-.875.597-1.64 1.343-2.415 2.06-.776-.52-1.523-.954-2.42-1.235-2.134-.667-5.01-.57-7.003.475-.144.222-.282.496-.514.635-.236.142-1.984-1.293-2.284-1.52-.682-.513-1.906-.445-2.771-.68 1.294.84 2.605 1.737 3.79 2.728.492.413.916 1.025 1.432 1.38.32.219.684.228.94.527l-.037.34-.184.068c-.856-.412-3.667.543-4.766.772-2.379-2.546-6.374-5.245-9.907-5.689-.93-.117-6.687-.296-7.121.043.124.207.387.25.626.259.514.02 1.048-.068 1.568-.063 1.453.014 3.047.172 4.465.505 2.515.59 5.005 2.015 7.094 3.499.553.392 1.258 1.19 1.878 1.402.184.063.386.108.574.167l.042.098c-.927.65-2.359.972-3.41 1.498-1.836.92-3.558 2.02-5.344 3.03M127.988 6.032q-1.259.007-2.517.04-1.26.034-2.517.093-1.258.06-2.514.145-1.257.085-2.511.196-1.254.11-2.506.247t-2.5.299q-1.25.162-2.495.35t-2.486.401q-1.24.213-2.477.452t-2.468.503-2.457.553q-1.225.29-2.445.604-1.219.315-2.432.654-1.212.34-2.417.703-1.206.365-2.404.753-1.197.39-2.387.803t-2.37.85-2.352.9q-1.172.462-2.333.948t-2.314.995q-1.151.51-2.292 1.042-1.14.533-2.27 1.09-1.13.556-2.248 1.135-1.118.58-2.224 1.182t-2.2 1.227-2.173 1.272-2.147 1.316-2.12 1.36-2.09 1.403q-1.039.713-2.063 1.446-1.023.734-2.031 1.488-1.009.755-2.001 1.53c3.909.218 7.83-.001 11.744-.04 4.956-.05 10.089.25 14.983-.646 3.35-.613 6.396-1.9 9.662-2.761.893-.236 2.59-.707 3.31.089.225.25.253.535.199.852-.153.9-1.281 1.63-2.016 2.055-4.232 2.446-9.558 2.296-14.295 2.582-9.88.598-20.287 1.187-29.627 4.712-1.301.491-2.79.998-3.92 1.821-.95.693-1.779 1.78-2.586 2.64-2.177 2.317-4.31 4.641-6.356 7.077-4.889 5.82-9.443 12.319-12.94 19.075.984.01 1.982-.015 2.962.075v3.539l3.016.031.119-3.628q1.924-.015 3.848.03c-.009 1.195-.04 2.395.016 3.59l2.772.008c.06-1.189.146-2.382.141-3.572l3.835-.053c.203 1.197.165 2.415.164 3.625l2.871.054c.018-1.208-.008-2.435.082-3.64q1.908-.02 3.816-.01c.009 1.187-.017 2.386.04 3.571l3.052-.046q.05-1.767.08-3.535c1.304.011 2.62-.014 3.92.09-.014 1.06-.19 2.403.132 3.413l.217.177c.56-.108.886-.672 1.187-1.111l.09-.134c-.134-2.363.84-5.32 1.117-7.774.265-2.344.088-4.868.105-7.232l3.192.007-.003 2.951 1.908-.036.025-2.936h3.105l.073 2.99c.535.019 1.06.101 1.547-.156.507-.526.402-1.035.39-1.716-.007-.37-.02-.738-.016-1.107 1.099.004 2.204-.017 3.302.019q-.055 1.478-.078 2.957c.7-.004 1.411.014 2.11-.03.005-.97.043-1.957-.05-2.925l3.076.004.006 2.991 2.026-.016q.071-1.472.053-2.946c1.018.018 2.037.025 3.053.058l-.014 2.928 2.145.009c-.065-.982-.164-1.977-.122-2.961.946-.01 1.896-.035 2.842-.006-.005 1.024-.187 2.581.225 3.51l.093.033c5.092-6.083 10.556-11.868 15.493-18.086.699-.88.933-1.881 1.497-2.816.973-1.615 3.809-5.558 5.144-6.785 3.534-.973 7.057-2.618 10.265-4.41 1.852-1.037 3.676-2.44 5.726-3.044 2.516 2.287 4.177 5.459 6.517 7.476 1.728 1.49 4.064 2.502 6.001 3.727 2.482 1.57 4.744 3.368 7.01 5.226 1.946-.373 3.947.113 5.877-.502 1.942-.618 4.085-1.687 5.85-2.73.989-.584 1.589-1.507 2.506-2.123 1.132-.76 3.887-1.207 5.075-.42 1.533 1.016 2.544 2.95 3.677 4.382 1.246 1.576 2.71 3.068 4.341 4.25 2.26 1.635 5.68 3.56 8.378 4.339 1.459.42 2.99.393 4.329 1.183 2.281 1.347 4.697 3.363 6.525 5.269 1.104 1.152 2.095 2.53 3.377 3.483 3.863 2.875 8.758 4.207 12.949 6.493 1.57.848 3.153 1.681 4.682 2.6 1.027.618 2.058 1.417 3.158 1.885 2.876 1.224 6.091 1.871 9.05 2.924q9.741 3.564 19.357 7.452c-.666-2.448-2.003-4.787-3.153-7.037q-1.073-2.103-2.225-4.164t-2.381-4.076-2.536-3.982-2.684-3.883-2.83-3.779q-1.452-1.861-2.973-3.667t-3.11-3.552-3.243-3.43c-3.765.752-7.835.581-11.666.706-2.28.074-4.644.357-6.915.107-3.438-.38-6.59-1.42-10.113-1.37-2.47.036-4.925.424-7.325 1-1.192.287-2.598.89-3.81.909l-.195-.189c.055-.318.15-.426.422-.61 3.591-2.435 11.554-3.28 15.937-3.156 2.17.06 4.591.46 6.728.07.955-.175 1.72-.86 2.482-1.418 2.61-1.912 5.752-1.68 8.824-1.555-2.579-2.397-5.362-4.924-8.317-6.84-3.117-.026-6.186-1.065-9.312-.947-1.462.055-3.25.172-4.593.803-.767.361-1.174 1.005-2.07 1.111-1.085.129-2.235.08-3.326.084-3.344.013-6.676-.185-10.016-.288-2.174-.067-4.488.103-6.633-.254-.66-.11-1.314-.328-1.839-.75-.07-.176-.163-.27-.085-.458.36-.868 2.001-1.185 2.803-1.548-1.529-.222-3.059-.47-4.608-.339-2.035.174-10.282 2.584-11.593 1.26.098-.325.167-.32.46-.478 1.5-.812 3.436-1.22 5.067-1.763 2.134-.71 4.212-1.658 6.434-2.064 3.223-.589 6.51-.153 9.76-.223 2.116-.045 4.228-.403 6.34-.407.595 0 1.194.043 1.766.213.561.167 1.236.515 1.48 1.085.135.316.08.612-.06.913-.446.954-1.85 1.485-2.795 1.733-1.376.36-9.368 1.042-9.78 1.383.057.258-.008.22.191.342 1.203.736 10.234-.746 11.712-1.188 1.664-.497 3.225-1.27 4.938-1.617 2.504-.508 4.849.113 7.333.353 1.502.145 3.035.148 4.543.187-5.401-4.1-15.54-9.668-21.924-11.89-1.69-.588-3.492-.828-5.207-1.354-1.72.397-3.49.702-5.161 1.272l.707 1.136c-.354.933-.815 1.694-1.765 2.11-2.259.988-9.826.52-12.559.614-3.3.113-6.62.538-9.924.397-1.655-.07-3.515-.208-5.062-.856-.922-.387-1.93-1.123-2.29-2.096a1.57 1.57 0 0 1 .103-1.327c.542-1.014 1.826-1.646 2.777-2.21q-3.982-.118-7.953-.428c-3.899-.297-7.71-.659-11.622-.358-2.644.202-5.755.309-8.348.746-.603.102-2.035.552-2.519.3.565-.55 1.59-.832 2.325-1.103 7.158-2.635 14.851-1.593 22.29-2.116 4.326-.304 8.5-1.203 12.877-1.15 1.47.017 3.637.049 4.733 1.165.318.323.5.709.462 1.171-.042.52-.506 1.032-.913 1.313-.352.244-.751.436-1.13.634 6.345-.159 12.954-.036 19.173-1.426q-2.339-.772-4.707-1.448t-4.763-1.255-4.81-1.058-4.848-.862-4.88-.662q-2.448-.282-4.904-.463t-4.918-.262q-2.462-.08-4.925-.06m-7.807 23.257c-.398 1.276-.663 2.593-1.02 3.881q-1.03 3.858-2.63 7.517c-1.675 3.787-14.066 28.126-14.023 29.575l.052.042 2.532.084c.963-1.86 1.657-3.86 2.425-5.805l3.763-9.575c2.976-7.594 6.468-14.838 8.407-22.815.208-.853.66-2.058.494-2.904m1.961.255c-.015 1.403.351 2.67.49 4.049.142 1.424.09 2.972.066 4.406-.034 1.989-1.398 3.464-.55 5.558.73 1.807 2.726 3.66 3.575 5.627q.046.105.095.21c.505.227 1.042.44 1.272.992.213.512.207 1.096.464 1.597 1.114 2.172 3.46 3.58 4.586 5.744 1.054 2.028 1.775 4.33 2.646 6.452q1.933 4.652 4.343 9.076c1.696.19 3.407.56 5.102.681.509-.9.987-1.787 1.345-2.759 1.223-3.403 1.834-6.946 2.835-10.411-.739-1.988-.373-3.399.185-5.377-1.948-2.926-4.334-5.323-6.574-8.004-1.21-1.447-2.232-3.035-3.414-4.504-.557-.693-1.517-1.218-2.255-1.73-1.595-1.108-3.18-2.227-4.838-3.239-1.592-.972-3.334-1.835-4.792-3.002-1.783-1.428-2.956-4.082-4.581-5.366m-5.447 1.615c-.204.262-.41.532-.533.843-.285.72-1.521 4.41-1.525 4.941l.076.011c.556-1.189 2.056-4.485 2.087-5.683zm-2.426.983c-.285.27-.475.5-.614.873-.372.996-.544 2.081-.877 3.095-.756 2.3-1.948 4.726-3.206 6.794-1.919 3.156-18.5 26.595-18.509 26.75l.1.08c1.256.03 2.508.06 3.762.154q4.279-7.65 8.793-15.164c2.378-3.888 5.343-8.189 7.369-12.225 1.394-2.78 2.389-5.586 3.019-8.632.102-.494.313-1.15.19-1.641q-.012-.043-.027-.084m-2.589 1.634q-.676 1.5-1.446 2.953-.77 1.455-1.629 2.857-.86 1.403-1.805 2.75-.946 1.345-1.974 2.629c-1.115 1.4-2.357 2.7-3.486 4.09-1.66 2.04-3.273 4.122-4.955 6.142-1.82 2.185-3.726 4.299-5.552 6.48-1.807 2.16-3.863 4.315-5.4 6.674-.267.41-.495.763-.403 1.27l3.12.046c7.093-11.105 17.295-20.868 22.58-33.021.331-.763.994-2.043.95-2.87m9.303.01c-1.75 6.493-4.33 12.668-6.777 18.917-.998 2.547-1.813 5.166-2.84 7.696-1.342 3.307-2.855 6.598-4.046 9.958l.1.167c.814.03 1.643.031 2.45.133 1.246-3.314 2.603-6.564 3.733-9.923 1.129-3.353 7.807-25.446 7.38-26.948m-11.67.105c-1.827 3.482-3.673 6.64-6.545 9.39 1.32-2.914 3.246-5.489 4.439-8.494-1.142 1.648-2.49 3.22-3.54 4.92-.756 1.221-1.251 2.643-2.107 3.795-4.045 5.444-8.85 10.393-13.178 15.622L84 64.224c.125.564.172 1.094.192 1.672 3.537-3.897 6.923-7.925 10.383-11.892 3.911-4.487 7.987-9.005 11.482-13.825.961-1.326 3.323-4.54 3.277-6.135-.002-.052-.014-.102-.02-.153m45.684 6.857c-.306 1.314-.42 2.687-.624 4.022-.216 1.42-.53 2.823-.857 4.22-.165.708-.717 2.129-.538 2.767l.256.315c.279-.15.279-.2.37-.518.414-1.43 1.84-9.8 1.393-10.806m-1.418.61c-.12.158-.228.289-.293.48-.346 1.014-.478 2.158-.751 3.201-.45 1.71-1.135 3.471-1.4 5.211.115.179.223.345.358.51l.247-.122c.31-.953.442-1.973.677-2.949.46-1.912 1.371-4.187 1.326-6.143zm-2.45 1.32c-.39.808-.583 1.707-.846 2.563-.559 1.816-1.153 3.789-2.067 5.46.064.28.103.461.364.628 1.131-1.939 3.095-6.21 2.895-8.46-.242-.17-.123-.114-.345-.19m5.22.33c-.27 1.98-.251 3.897-.365 5.88-.062 1.078-.308 2.334-.186 3.4.296.178.646.093.975.063.3-.292.374-.298.377-.728.01-1.486-.486-3.084-.605-4.583-.098-1.236.136-2.87-.196-4.032m-7.152.383c-.456.224-1.003.4-1.182.913-.129.37-1.444 4.123-1.433 4.24.007.088.121.33.17.413.101.178.236.346.359.51l.226.117c.561-.589 1.845-5.3 1.865-6.118q-.001-.037-.005-.075m-6.009.829-.151.327c.21.536.505.976.978 1.313l.108-.032c.203-.466.396-.94.628-1.393-.52-.08-1.038-.17-1.563-.215m2.397.026c-.315.764-.61 1.55-.97 2.294l.877.96c.319-.803 1.155-2.256.884-3.114-.289-.164-.47-.138-.79-.14m-25.505.637c-.914 1.766-1.188 4.816-1.656 6.816-.778 3.317-1.69 6.653-2.888 9.846-.593 1.582-3.573 8.137-3.488 9.249.235.124.129.1.302.12.807.038 1.619.057 2.424.116 2.47-7.483 4.28-14.097 5.298-21.925.154-1.19.527-2.702.301-3.874-.093-.121-.176-.249-.293-.348m37.49 2.254c.118 1 .186 3.64.867 4.293.285-.421.15-.891.512-1.305l.261-.042c.324.293.434.77.577 1.173.105.188.18.308.33.468.195-.24.247-.381.212-.71-.064-.598-.136-1.509-.503-1.982-.253.03-.374.128-.576.278-.685-.474-.948-1.634-1.68-2.173m-35.259 1.51c-.695 1.653-.84 4.529-1.16 6.36-.34 1.951-.807 3.895-1.275 5.819-.484 1.99-.999 4.005-1.64 5.949-.38 1.15-1.23 2.815-1.381 3.97-.02.152-.005.192.018.324.116.035.231.082.352.087.68.055 1.36.103 2.036.199.503-1.81 1.085-3.595 1.515-5.425.666-2.836 3.034-14.759 1.76-17.026-.083-.149-.112-.16-.225-.257m2.368 2.893c.036 4.638-.402 9.309-1.684 13.787-.57 1.99-1.39 3.968-1.837 5.985.271.219.668.177 1.002.194.367.031.853.135 1.19-.036 1.408-2.087 2.12-9.196 2.18-11.782.04-1.723-.108-3.461-.217-5.18-.044-.697.025-1.537-.14-2.207-.074-.294-.302-.538-.494-.761m36.537.336h.15zm-10.491 2.245-.06 1.517c-.052 1.505-.42 3.072-.673 4.557-.436 2.564-.832 5.15-1.48 7.671-.24.937-2.152 6.16-2.102 6.452l.234.077 1.546.209c1.586-5.453 2.938-13.03 2.67-18.674-.027-.58.012-1.248-.135-1.809m1.82.758c.498 4.82-.765 10.712-1.844 15.427-.246 1.073-1.337 3.702-1.23 4.5.245.135.47.226.737.309l.46-.006c.73-.82 2.252-11.816 2.437-13.65.158-1.57.297-3.21.206-4.788-.03-.52-.056-1.097-.343-1.544zm-25.476.313c.155 2.436.77 4.835.469 7.28-.236 1.905-.683 3.856-1.23 5.697-.263.885-.659 1.753-.862 2.653-.072.317-.121.582-.04.904.235.115.343.121.598.137l1.493.12c.904-4.845 1.46-9.886.29-14.751-.126-.527-.279-1.472-.586-1.918-.035-.049-.088-.082-.132-.122m27.45.045c-.3 1.6-.147 3.352-.212 4.98-.173 4.33-.68 10.889-2.367 14.837l.038.24c.144.063.27.124.425.156l1.255.367c.314-2.648 1.895-19.246 1.024-20.412-.046-.063-.108-.112-.162-.168m1.668.635c.054 2.286-.177 4.5-.276 6.775-.118 2.728-.129 5.477-.364 8.197-.144 1.668-.618 3.4-.659 5.052.242.211.542.209.848.247l.492.072c.411-.382.315-1.763.338-2.375.108-2.974-.024-5.962-.02-8.938.002-2.89.246-5.976-.174-8.838zm1.187 4.001c.055 3.017.42 5.963.608 8.968.159 2.543.123 5.129.135 7.677.36.209.895.625 1.316.612-.082-3.131-.87-14.658-2.06-17.257M57.75 63.22c-.578 3.146-.731 6.372-1.158 9.541-.78 5.802-1.75 11.575-2.63 17.361-.482 3.173-.79 6.418-1.388 9.567 2.442.615 4.885 1.18 7.418 1.083-1.953-.873-4.04-1.435-5.975-2.305.04-.866.128-1.7.26-2.556 3.55 1.184 6.74 1.387 10.44.91-3.546-.384-6.811-1.199-10.233-2.148.115-.995.196-2.008.386-2.991 4.285 1 7.56 1.153 11.912.616-4.044-.386-7.845-.977-11.771-2.024.162-.89.303-1.79.496-2.675 3.136.757 6.243.873 9.439.416-1.3-.377-2.667-.518-4.007-.684-1.752-.199-3.489-.431-5.196-.883q.197-1.507.41-3.012c3.377.765 6.483 1.044 9.913.385-3.144-.327-6.7-.469-9.634-1.692l.385-2.713c3.002.54 5.715.598 8.741.103-2.866-.318-5.717-.648-8.485-1.5.07-.865.169-1.71.317-2.564 2.778.67 5.37.524 8.185.247-2.687-.439-5.34-.88-7.992-1.506q.096-1.42.279-2.83c2.37.945 5.751.886 8.18.161-2.7-.175-5.47-.455-8.056-1.302.091-.833.152-1.685.289-2.512 2.753.758 5.536.554 8.246-.278-2.779.172-5.443-.165-8.121-.92.006-.754.007-1.493.114-2.24 2.133.413 4.12.133 6.257-.102-2.631-.876-4.335-.732-7.02-.953m14.908.162-3.347.042a30 30 0 0 0 .12 3.143c.283-.51.694-1.638 1.093-1.976.74.264 1.468 1.525 1.812 2.22.31.623.324.911.132 1.584.539.055.903-.365 1.371-.394.346-.02.464.371.965.26.158-.403.018-.715.264-1.074.318-.1.518-.107.849-.07.162.149.208.257.288.453.12.293.242.432.552.541 1.203.424 2.37-.119 3.581.647l.1.257c-.183.376-.603.536-.98.665-2.008.692-6.626.685-8.73.195a25 25 0 0 1-1.332-1.755c.277 1.55.513 3.089.636 4.66q.164 2.233.199 4.47c.011.742-.066 1.582.047 2.308.04.253.098.349.26.546.18-.097.203-.053.241-.228.068-.318-.076-.69-.157-1 .48-.325.64-.227 1.2-.107q.17.037.337.088c.058.28.074.499.068.785-.008.374.032.649.337.906.802.677 3.322.258 4.446.517q.273.061.546.127c.053-1.42-.313-4.82.63-5.779.307-.096.39-.114.704.023 1.187.52 2.634 3.81 3.098 4.994.576.154 1.152.32 1.737.435-.608-5.861-1.74-11.631-2.479-17.474zm59.904.157c.721 2.824 1.032 5.948.568 8.845.934.13 1.884.23 2.81.401l.182-.038c-.05-.796-2.821-8.525-3.434-9.108-.04-.037-.084-.067-.126-.1m27.966.97c-.085 1-.43 2.809-.026 3.713l.269.105c.296-.599.062-3.027-.19-3.705q-.024-.057-.053-.113m-.109 3.965c-.107 3.01.387 6.14.095 9.12.517.237 1.049.458 1.553.718.344-.626-.743-8.541-1.015-9.628-.225-.223-.328-.174-.633-.21M19.959 71.77c-.267.438-.578.848-.631 1.37l.204.29c.301-.158.365-.135.468-.455.113-.355.11-.665.093-1.033zm29.79 4.49-.217.4.073.184c.266-.042.52-.09.78-.161l.437-.256-.041-.144q-.516-.02-1.032-.024m-.472 2.751c-.471.107-.808.203-1.211.473l-.08.203c.334.274.81.246 1.23.265l1.527-.338zm157.9.98c-8.432.667-15.698 4.602-22.795 8.901-1.57.951-3.367 1.845-4.826 2.935 2.722-.9 5.314-2.432 7.86-3.745 2.333-1.169 4.663-2.304 7.147-3.123 5.545-1.83 17.858-3.804 23.405-2.83-2.79-1.56-4.573-2.168-7.83-2.237-.945-.02-2.029-.049-2.96.098m-160.74 2.744c-.145.413-.281.83-.461 1.228l3.478-.508.564-.142-.015-.126c-1.058-.386-2.444-.364-3.566-.452m155.702 1.842c-1.161.3-2.305.96-3.389 1.475-3.947 1.873-8.336 3.958-11.48 7.076 2.883-1.21 5.599-2.707 8.527-3.84 4.398-1.555 8.928-2.658 13.593-2.987 1.638-.115 3.274-.076 4.912-.135-3.893-1.048-8.122-1.83-12.163-1.589m-67.133.977.16.362.163.02-.1-.382zm-101.862.65c.68.776 1.286 2.014 2.386 2.065 2.418.11 4.91-.6 7.337-.523.184-.302.468-.606.444-.962-1.818-.252-3.672-.175-5.503-.225-1.55-.042-3.123-.184-4.664-.354m11.869.822-.485.192-.049.166c.955.166 2.048.022 3.018-.015l.55-.109-.073-.106c-.97-.156-1.98-.18-2.961-.128m-23.293.325c.468.206.89.497 1.407.333l-.102-.31c-.409-.202-.87-.082-1.305-.023m13.885 1.273a16 16 0 0 0-.66 1.05l.044.212c.198.041.293.037.495.007.982-.146 2.834.712 3.588 1.33.145.119.111.11.227.307l-.052.149c-.111.328-.227.577-.142.927.198.232.308.283.601.36.154-.235.14-.42.146-.694l.351-.318.15-.164.142-.17c.357-.017.549-.092.795-.369.214-.239.38-.61.535-.892-1.762-.229-3.632-.355-5.333-.863-.2-.23-.614-.828-.887-.872m52.327 1.186c.063.462.092.765.396 1.13.234.094.436.175.691.099.046-.014.086-.04.129-.06.108-.338.225-.473.074-.803a4 4 0 0 0-.662-.155 1.9 1.9 0 0 1-.628-.211m-45.106 1.04-.044.434c.72.57 3.824.127 4.833.026.151-.015.298-.043.447-.071l.224-.086c-1.405-.29-3.952-.287-5.46-.302m171.916 1.792c-1.525.05-3.03.121-4.547.308 2.512.266 5.03.497 7.515.965 11.155 2.1 20.214 7.49 28.948 14.54.73.592 1.453 1.193 2.193 1.77-1.761-3.482-9.315-10.17-12.7-12.287q-1.639-1.012-3.388-1.819t-3.582-1.397q-.872-.283-1.754-.529-.883-.246-1.776-.454-.892-.207-1.793-.377t-1.807-.3-1.82-.222q-.91-.092-1.826-.145-.915-.052-1.83-.066-.917-.013-1.833.013m-180.156.74c1.004.32 2.231.506 3.285.45-1.11-.343-2.107-.656-3.285-.45m7.706.918c.392.418 1.945.453 2.53.472.905.029 1.769-.04 2.665-.166l-.04-.18-.124-.057-.104.07.193.081c-.481-.33-4.337-.324-5.12-.22m-20.396.703-.685.342-.01.168.35.302c.249-.212.571-.38.637-.705zm1.193.34c-.277.135-.56.206-.727.47.38.11.488-.157.854.099.269.188.703.233 1.022.306l-.036-.035c.739.142 1.397.328 2.093.619.069.037.133.082.205.11.05.019.281.037.32.04.232.026.402.101.62-.013-.893-.787-3.195-1.324-4.35-1.596m-8.886.942c3.936 2.123 8.727 3.361 13.047 4.383.87.206 1.893.557 2.784.528-2.931-.999-5.953-1.75-8.906-2.683-1.8-.568-5.286-2.14-6.925-2.228m14.087.776-.118.194c.265.135.543.134.833.155-.223-.23-.287-.372-.626-.37-.03 0-.06.014-.09.021m2.138 1.408c.825.245 1.632.545 2.505.476-.805-.236-1.655-.533-2.505-.476m-9.682.774h.119zm155.205 1.163-.196 2.604c1.104.73 2.215 1.447 3.218 2.316.1-.973-.005-1.982-.055-2.958a66 66 0 0 0-2.967-1.962m-162.205.78c4.956 2.399 21.793 7.406 27.345 7.531.579.013 1.101-.097 1.653-.256l.002-.263c-.567-.563-5.665-1.476-6.789-1.709q-5.254-1.046-10.434-2.41c-3.845-1.051-7.793-2.533-11.777-2.893m16.272.082h.216zm150.786 1.66c.445 1.456 1.436 3.17 2.808 3.922.205.113.418.153.647.187-.539-.492-1.063-.98-1.524-1.547-.448-.551-1.473-2.24-1.931-2.562m-91.606 2.437c-.814.273-1.648.518-2.419.9q-.041 4.204-.022 8.408c0 1.658.072 3.355-.096 5.005-.683.363-1.773 1.104-2.071 1.847-.015.036-.022.076-.032.114l.139-.025c1.58-1.133 3.249-2.233 4.689-3.54.03-1.439.36-11.976.144-12.531-.028-.071-.098-.118-.147-.177zm96.264.2c.118 2.248.19 4.5.324 6.747.84.746 1.755 1.67 2.773 2.153-.683-2.385-.45-4.822-.698-7.266-.765-.54-1.564-1.219-2.399-1.635m-102.226 1.717c-.315.204-.524.246-.606.636-.202.96-.102 2.172-.112 3.159q-.04 3.586-.035 7.173c.006 1.571.217 3.454-.104 4.985l.133.063.17-.126 1.075-.887c-.04-2.192.117-13.897-.358-14.903zm9.179.397q-.06.079-.121.155c-.131.157-1.078.711-1.08.789.24-.05.483-.094.722-.155.41-.148.877-.237 1.167-.571-.224-.107-.448-.159-.688-.218m98.321 1.409c.939 1.197 1.91 2.5 3.494 2.83-.747-.783-2.534-2.423-3.494-2.83m-113.6.9-2.824 1.216c-.188 5.213-.105 10.445-.168 15.662-.738.456-1.861.972-2.296 1.746l.052.197c.782-.112 3.679-2.134 4.79-2.64.195-.084.373-.083.443-.3.357-1.106.133-4.837.133-6.22 1.227-.425 3.787-1.382 4.457-2.561-1.404.16-3.274 1.709-4.452 2.495.015-1.329.232-8.806-.134-9.595m-68.202.857c-.66.046-1.325.076-1.981.154 5.51.693 11.07 1.002 16.556 1.867-3.25.133-6.534.258-9.786.294-1.219.013-5.832-.088-6.605.096-.083.02-.14.098-.211.147-.073.38-.13.399.079.715.997.404 4.423.065 5.644.045 2.53-.008 5.061-.189 7.587-.323 4.031-.215 6.968-.252 10.952-1.25-3.17-.378-6.35-.587-9.523-.923-4.145-.44-8.54-1.215-12.712-.822m84.036.401c-.69.453-1.779 1.03-2.172 1.773.02.072.018.16.07.215.735-.443 1.71-.935 2.183-1.668-.005-.28.053-.187-.08-.32m98.14.627c.865 1.022 1.81 1.878 2.82 2.75.047.625.078 1.236.066 1.863-1.076-.778-2.197-1.527-3.215-2.38.852 1.106 1.775 1.863 2.895 2.691l.137.171c.773 1.01.192 2.4.719 3.062l.041-.041-.098-.017.152-.128c.015-.912.091-1.883.024-2.79-.049-.653-.442-1.535-.37-2.155.042-.362.393-.252.257-.738-.995-.792-2.15-1.336-3.144-2.125-.154-.123-.082-.075-.284-.163M70.768 113.1c-.504.286-1.009.607-1.536.847-.005 2.378-.302 15.796.245 16.73.392-.35.776-.688 1.205-.993.16-1.418.215-16.35.086-16.584m125.955.269c.07.297.137.632.291.898.57.98 2.75 2.825 3.728 3.423.145.09.163.091.3.145-.73-1.53-2.806-3.662-4.319-4.466m-103.726.89c-.847.787-1.657 1.546-2.214 2.572l.023.207.05.031c.74-.399 1.487-.848 2.275-1.143-.007-.467.09-1.262-.134-1.668m-25.042.075c-1.243.434-2.485.967-3.626 1.63-.03.069-.088.136-.082.212.83-.272 3.273-1.06 3.731-1.725zm128.686 1.51q.028 2.942.09 5.884c1.235 1.288 2.554 2.462 3.862 3.672.025-1.048.036-2.09.185-3.13-.227-1.026-1.295-2.33-1.993-3.114.775.612 1.524 1.11 2.432 1.51-.713-1.016-3.594-4.183-4.576-4.822m-133.295.485a30 30 0 0 0-2.912 1.012c-.129 3.075-.057 6.177-.054 9.255.002 2.445-.095 4.918.097 7.354.893-.446 1.793-.952 2.757-1.222l.02-10.384c-.001-1.97-.147-4.06.092-6.015m-53.621.75c-.933.015-2.295-.131-3.173.192l-.108.161c.187.236.212.249.537.265.773.039 1.729-.03 2.492-.141.935-.086 1.826-.19 2.738-.415q-1.244-.011-2.486-.062m193.26.925c-.097 1.713-.058 3.428-.161 5.139-.118 1.95-.553 3.962-.323 5.903.695.978 1.461 1.886 2.234 2.802l.154.114c.299-.721.147-8.206.03-9.413-.09-.925-.261-1.846-.628-2.705a5.55 5.55 0 0 0-1.306-1.84m-146.607 1.048c-.179.306-.212.526-.239.881-.192 2.515-.012 5.124-.026 7.651-.016 2.74-.31 6.276.08 8.944l.054.041c.227-.113.436-.247.651-.38.186-.119.262-.105.318-.33.142-.563.054-1.318.07-1.901.095-3.342.016-6.689-.002-10.032-.008-1.602.101-3.232.051-4.826-.339-.076-.615-.071-.957-.048m24.974 1.022c-.687.4-3.215 1.792-3.497 2.47-.014.033-.017.07-.026.106l.1.098c1.149-.649 2.693-1.32 3.55-2.33l.007-.234zm-13.168 2.482c-1.382.648-3.223 1.43-4.274 2.56.025.063.035.14.087.185.906-.437 3.876-1.68 4.275-2.495.016-.034.023-.071.035-.107zm13.519.655c-.667.403-3.036 1.62-3.246 2.344l.082.067c.976-.38 2.742-.991 3.32-1.905-.014-.27.033-.296-.156-.506m-32.89.043-3.009 1.493q.01 5.486-.04 10.972c-.015 1.796-.163 3.673-.038 5.46.03.415.093.755.341 1.098.882.102 4.655-2.722 5.663-3.281 1.09-.527 2.537-1.448 3.198-2.482-.198-.11-.093-.09-.368-.013-1.826.518-3.84 2.082-5.419 3.145-.094-4.07-.019-8.15-.03-12.221-.004-1.222.213-2.95-.069-4.116zm19.48 3.671c-1.568.838-3.207 1.841-4.398 3.18l.015.164.12.012c.936-.498 4.118-1.904 4.523-2.631.007-.305.025-.386-.123-.648zm-26.598.371c-.095.152-.173.268-.21.447-.298 1.497-.375 13.956-.045 15.043.058.19.077.203.17.348l.254.03c.53-.53.366-1.471.441-2.186l.028-3.711c.684-.243 1.402-.448 2.014-.846q-1.014.185-2.02.402c-.005-2.195.176-7.422-.413-9.354zm-3.905.694-1.22.34c-.065 2.612-.33 16.73.307 18.334l.941-.773c.18-1.74.576-16.88.181-17.844zm17.218 2.508c-1.863.77-3.738 1.63-4.853 3.394l.07.112.075.012c.726-.585 1.452-1.182 2.22-1.71.536-.37 2.408-1.268 2.667-1.746zm12.534.43c-.652.53-1.385 1.055-1.917 1.708l-.009.218.082.071 1.72-.75c.079-.364.299-.931.124-1.248m-8.296 2.04c-.62.35-.75.862-.938 1.521a5 5 0 0 0-.14.691l.118.163.113-.055c.584-.322 1.18-.685 1.306-1.404.064-.365-.041-.507-.21-.81zm-24.44.779c-1.364.338-8.614 2.736-9.26 3.647l.179.061c1.307-.415 8.493-2.92 9.299-3.683zm185.584 1.326c-.495 1.143-1.441 16.859-1.446 18.88 0 .373.042.716.178 1.065.413 1.058 1.025 2.096 1.533 3.117l.201.285c.524-.858.292-8.672.322-10.297.043-2.378.261-4.712.17-7.097-.038-.979-.427-4.715-.743-5.614a.8.8 0 0 0-.215-.339m-196.344.58c-.415.764-.902 1.438-1.456 2.108q-.077 9.064.073 18.127c4.04-3.462 8.349-6.468 13.163-8.75-.01-.466.006-.931-.135-1.38-1.902.608-5.453 2.805-7.322 3.875-1.265.71-2.534 1.496-3.842 2.122l.01-6.699c1.532-.648 10.803-4.935 11.184-5.726.015-.032.021-.067.032-.1-.987-.303-3.664 1.31-4.623 1.818q-3.325 1.803-6.587 3.717c-.03-2.831.201-6.378-.497-9.113m-7.356.118c-.33.134-.624.182-.793.531-.232.481.006 1.675-.038 2.253-1.397.322-8.158 2.218-8.829 2.997l.072.102c2.968-.25 5.858-1.819 8.804-2.327.125 5.468-.497 11.026.004 16.48a21 21 0 0 0-2.065 1.08c-1.172.69-2.374 1.352-3.477 2.149q.332.847.675 1.691c2.737-2.234 5.686-3.788 8.798-5.42.033-.624.069-1.246.068-1.87-.841.313-1.53.613-2.24 1.177-.037-4.797.14-9.98-.153-14.731-.085-1.36-.598-2.634-.678-3.948zm193.594 1.147c1.344 1.684 5.178 6.471 7.167 6.976-1.15-1.444-5.753-6.29-7.167-6.976m-165.19 3.474c-.319.349-.448.572-.432 1.056.012.369.104.829.364 1.1.035.035.075.064.113.096.384-.467.399-1.07.344-1.664-.027-.29.004-.291-.192-.52zm178.966 1.306c.366 1.665 1.79 3.83 3.314 4.715.106.062.225.104.339.146-.48-1.356-2.46-3.984-3.653-4.861m-183.588.634c-.544.738-1.49 1.779-1.476 2.758.001.05.018.099.027.148.505-.291 1.018-.575 1.516-.878.014-.674.073-1.367-.067-2.028m174.43 3.086c.411.842 1.263 2.533 2.199 2.838.136.044.218.046.353.06-.486-.754-1.813-2.462-2.553-2.898m15.306.925c.246 3.501-.306 6.955-.618 10.432-.258 2.88-.378 5.772-.686 8.649-.207 1.936-.85 5.024-.57 6.854.22 1.44 1.143 2.898 1.806 4.183l.2.158c.525-.631 1.588-25.257 1.394-27.238-.1-1.01-.667-2.27-1.433-2.965q-.045-.039-.093-.073m-6.095.474c.282 1.298 2.21 3.744 3.352 4.38.067.037.138.065.207.097-.441-2.01-1.934-3.335-3.56-4.477m-210.094-.382c-.776.21-3.983 1.053-4.428 1.518l.244.034c1.483-.381 3.042-.782 4.424-1.448l.028-.123zm209.622 5.539c.375 1.055 2.835 4.192 3.764 4.938-.014-1.292-.4-1.979-1.33-2.878-.76-.735-1.627-1.375-2.434-2.06M14.7 151.575c-1.847.308-3.852.826-5.558 1.607l-.1.157c.075.33.106.574.37.81l.144.035c1.45-.387 4.303-1.383 5.426-2.326l.04-.17zm219.301.776c.347 1.085 1.444 4.16 2.481 4.722.044.023.093.032.14.048.07-1.163-1.65-3.616-2.432-4.585-.074-.092-.108-.116-.189-.185m-148.423.634c.339.155.715.269.962.553-.555.127-1.133.03-1.699.06-.92.047-1.891.39-2.759.69 1.644-.024 3.504-.227 4.928.752l.068.175-.224.125c.448.277 1.586.29 2.142.36-.028-.276-.186-.376-.364-.578l.111-.1c.996.2 2.188.396 3.09.853q1.714.839 3.458 1.614c-.636-1.135-1.893-2.7-3.215-3.066-.202-.056-.389-.036-.594-.016l-.008.156a6 6 0 0 1-.07.567c-.214.11-.23.098-.451.022-1.863-.644-3.232-2.3-5.375-2.167m138.656 3.953c.172 1.972 1.035 3.383 2.52 4.68.124.11.257.22.395.31l-.136-1.287c-.966-1.208-1.907-2.424-2.779-3.703m9.459 1.283c.552 1.41 1.277 3.786 2.615 4.611.132.081.186.079.32.1.134-1.055-.786-2.293-1.411-3.101-.437-.565-.93-1.206-1.524-1.61m5.995.402c-.033 1.478-.24 2.934-.373 4.404-.123 1.349-.08 2.71-.214 4.056-.191 1.915-.525 3.81-.657 5.734-.205 2.998-.076 6.47.022 9.497q.721-1.633 1.49-3.244c1.485-3.253 2.592-6.096 3.091-9.661.942-1.023 1.181-2.016 1.483-3.343-1.105-1.176-2.048-2.54-2.845-3.942-.555-.973-1.207-2.736-1.997-3.501m-227.076 3.689c-.432.102-.885.182-1.308.311.106.467.17 1.096.443 1.49l.139-.035.078-.127c.334-.53.976-1.056 1.158-1.628-.24-.06-.282-.059-.51-.011m211.729 1.015c.56 1.612 1.651 5.288 3.093 6.22-.002-.715.017-1.436-.024-2.15-1.08-1.262-1.904-2.938-3.069-4.07m-103.1.781c-.298 1.42-.15 3.12-.178 4.582l-.217 8.27c-.131 4.218-.328 8.44-.525 12.655-.1 2.14-.28 4.3-.293 6.443 2.112.86 4.998.951 7.23.582.307-.309.301-.488.329-.916.246-3.883.163-7.834.317-11.73.248-6.28.68-12.567.764-18.852q-1.831-.418-3.692-.677-1.86-.259-3.736-.357m-35.3.166c-2.622.39-4.996 2.216-6.537 4.313-3.55 4.834-4.28 11.687-3.345 17.479.52 3.212 1.852 5.953 4.54 7.871 1.645 1.174 4.162 2.37 6.22 2.051.935-.145 1.66-.58 2.396-1.148a33 33 0 0 0 1.814-1.777c-.099-1.642-.154-3.31-.383-4.94-2.269.004-4.668.415-6.492-1.313-1.396-1.322-1.386-3.664-1.364-5.443.038-3.212.44-6.868 2.821-9.266.888-.894 1.97-1.49 3.25-1.494.908-.003 1.751.285 2.59.595.106-1.723.302-4.21-.88-5.633-.983-1.182-2.686-1.2-4.094-1.283a8 8 0 0 0-.536-.012m24.904.078c-1.01.068-2.015.122-3.013.298-.247 3.821-.191 7.668-.394 11.497-1.21-.21-2.428-.418-3.594-.815.01-2.06.691-8.682.162-10.134-.285-.165-.535-.177-.857-.19-.978-.04-1.969.134-2.95.104-.985-.03-2.467-.44-3.383-.15-.133.042-.14.057-.238.127-.493 1.873-.16 4.37-.127 6.309q.06 3.286.044 6.573c-.019 6.118-.19 12.215-.33 18.33 2.264.274 4.423.375 6.686.046.16-.063.539-.154.613-.305.204-.414.257-11.723.448-13.477 1.06.12 2.151.234 3.178.536.047 4.554-.333 9.096-.312 13.643 2.315.502 4.793.346 7.15.311l.816-30.61c.012-.348.151-1.686-.078-1.886-.679-.595-2.904-.26-3.821-.207m36.887.235-.475.106c-.052.083-.131.154-.155.25-.185.757.093 2.448.099 3.308.012 1.845-.086 3.693-.037 5.536.117 4.399.433 8.776.389 13.182-.766-2.565-1.308-5.192-1.914-7.798q-1.091-4.693-2.31-9.355c-.453-1.746-.854-3.534-1.459-5.235a81 81 0 0 0-7.468.69l-.077 21.4c-.008 2.007-.289 8.533.14 9.931 1.113.66 3.638.248 4.949.182l2.24-.028c.037-3.293.149-6.609-.044-9.898-.206-3.531-.725-7.054-1.07-10.575 1.157 2.657 1.843 5.69 2.588 8.49q1.006 3.907 2.26 7.74c.48 1.502.937 3.153 1.654 4.558 1.268-.016 5.5-.22 6.36-.985.234-1.652.172-3.382.206-5.05l.177-8.608.285-12.553c.03-1.744.156-3.526.084-5.265a44 44 0 0 0-6.422-.023m25.268.04c-2.146.553-3.717.735-5.927.44-.823-.11-1.644-.263-2.474-.292q-3.806 12.943-6.349 26.193c-.228 1.145-.956 3.592-.732 4.69 1.202 1.227 4.99 1.262 6.611 1.276q.455.003.911-.002c-.037-1.5-.03-2.913.25-4.394l.362-1.25c1.92.22 3.489.273 5.369-.195.214 2.087.257 4.182.406 6.273 2.52-.471 5.29-.628 7.677-1.577-.058-1.679-.27-3.3-.534-4.956-.476-2.991-4.665-25.142-5.57-26.205m60.213 3.835c.613 1.961 1.426 3.47 2.433 5.243.321.566.587 1.199.969 1.72-.305-2.694-.892-3.477-2.354-5.618-.267-.39-.571-.997-.945-1.282-.032-.024-.069-.042-.103-.063m-.848 4.526c.408 2.786 1.628 3.822 2.973 6.108.014.026.041.042.062.062l.105-2.016c-.606-.735-1.266-1.417-1.825-2.19-.44-.61-.807-1.433-1.315-1.964m-.29 5.606c.32 1.235.616 3.597 1.763 4.34.2.13.455.186.684.244-.187-1.312-1.41-3.79-2.447-4.584M20.716 185.79c.465.685.932 1.367 1.368 2.07 6.911-.65 13.89-.234 20.82-.333.072-.488.143-.964.268-1.441-7.487-.005-14.97-.261-22.456-.296m40.995 11.19h.086zm-24.297 12.884c.34.354.686.835 1.19.923.33-.082.558-.201.85-.368l.13-.31c-.337-.324-.712-.288-1.162-.278q-.504.012-1.008.033m162.807.854c-2.949.332-5.139 1.404-7.527 3.149-.72.526-1.572 1.13-2.116 1.843a1.7 1.7 0 0 0-.2.366l.064.234c.294.093.47.124.778.084.788-.464 1.387-1.145 2.125-1.677 3.688-2.392 7.183-3.643 11.603-3.769-1.506-.343-3.195-.4-4.727-.23m-118.177-.135.132.048-.102-.062zm132.675.287a28 28 0 0 1-3.198.414 11.5 11.5 0 0 1 4.26 1.435l.41.186c.676-.256 1.168-.984 1.703-1.459-.95.152-1.715-.101-2.624-.32-.168-.04-.237-.114-.354-.232zm-36.633-.005c-.272.074-.778.126-.938.349l.374.035c.332-.087.723-.14.993-.36-.155-.022-.273-.043-.429-.024m-129.25 2.447a38 38 0 0 0-6.819 1.445l1.104.866c4.447-1.534 8.985-1.575 13.4.07 1.505.623 3.024 1.713 4.372 2.23.269.103.596.127.865.02.045-.018.087-.044.13-.066.032-.323-.06-.43-.266-.665-.503-.574-1.38-.987-2.047-1.343-2.755-1.472-5.682-2.494-8.83-2.592a18 18 0 0 0-1.91.035m51.573 4.878c-1.74.212-4.987 1.079-6.114 2.439-.019.335.061.379.253.66.093.02.185.068.28.058.213-.022.714-.388.929-.506 1.274-.698 2.584-1.253 4.02-1.517 1.375-.253 2.694-.158 4.058.112 1.873.352 3.524 1.176 5.152 2.138l.744-.635c-2.785-1.9-5.884-3.167-9.322-2.75m-50.583 3.832c.703.841 2.48 1.85 3.578 1.997.184.024.35-.023.524-.074.014-.243.097-.475-.077-.661-.785-.843-2.89-1.221-4.025-1.262m24.109 1.73c-3.77.358-7.238 1.685-10.207 4.073-.886.713-1.645 1.589-2.541 2.278l1.099.899c1.165-2.337 5.223-4.474 7.603-5.276 2.234-.753 4.39-.936 6.73-.885 4.245.571 7.72 1.908 10.928 4.826.594.54 1.15 1.371 1.97.755-1.136-2.531-5.377-4.661-7.83-5.59-2.42-.917-5.17-1.33-7.752-1.08m26.342 9.456-.197.063a2 2 0 0 1-.619.064c-5.822-.078-11.06 3.3-15.057 7.226-.336.33-.642.634-.894 1.038l.054.246c.316.184.673.293 1.038.16.717-.26 2.07-2.006 2.733-2.603 4.086-3.678 10.09-5.328 15.486-5.098 4.404.412 8.106 1.548 11.758 4.12.812.572 3.647 3.29 4.232 3.52.193.075.468-.1.621-.195-.09-1.015-2.215-2.677-2.978-3.31-4.073-3.38-10.763-5.87-16.085-5.255-.032.003-.062.016-.092.024m53.63.264c-5.803.318-10.292 2.096-14.81 5.73-.797.641-1.76 1.294-2.453 2.039-.066.07-.155.19-.21.26l.043.244c.292.204.447.232.8.247 1.548-.688 3.1-2.59 4.589-3.575q.281-.19.568-.37.287-.181.58-.354.292-.172.59-.336.297-.164.599-.318.302-.155.608-.3.307-.147.617-.283.311-.137.626-.264.314-.127.633-.245.318-.118.64-.226.321-.108.646-.207t.652-.187q.328-.09.658-.168.33-.08.662-.15.332-.068.666-.128t.67-.108q.336-.05.673-.09t.675-.068.677-.049.678-.028q.34-.01.679-.009t.678.012.678.032.677.052.675.073q.336.04.672.092.335.051.67.112.333.061.665.133.332.07.662.151.329.081.656.172t.651.191.646.21q.32.11.638.23c2.015.757 7.512 3.872 8.327 5.66-.007.142.037.27-.088.362-.359.264-2.367.837-3.059 1.165-4.792-3.752-9.523-5.82-15.746-5.03q-.462.06-.92.14c-2.866.59-5.42 1.799-7.768 3.531-.452.334-1.046.694-1.367 1.154-.155.224-.259.506-.232.778l.151.201c.971.101 2.657-1.755 3.49-2.276.822-.515 1.758-.962 2.65-1.34 5.94-2.51 13.667-1.2 18.33 3.3-1.157.42-2.526 1.514-3.74 1.185-.265.093-.234.038-.398.304l.055.35c.307.148.454.114.78.01 1.052-.342 2.948-.845 3.854-1.404l-.036-.129.102.081.128-.168-.076-.383c.196-.14.285-.2.524-.261l-.36.601c.624.178 4.982-1.836 5.717-2.254.139-.078.247-.166.37-.267l-.028-.138c-.36-.011-.56.047-.889.168q-.201-.218-.408-.431t-.418-.422-.429-.41-.439-.401-.448-.39-.457-.379-.467-.367-.475-.356-.484-.345-.492-.332-.5-.32-.508-.308-.515-.296q-.26-.144-.522-.283-.263-.138-.53-.27-.266-.132-.535-.257-.27-.125-.541-.244-.273-.119-.548-.23-.275-.113-.552-.218-.278-.105-.558-.204t-.563-.19q-.282-.092-.567-.176-.285-.085-.571-.163-.287-.078-.575-.149-.289-.07-.579-.134t-.581-.12-.585-.107q-.292-.049-.587-.091-.293-.043-.588-.078t-.59-.063q-.297-.028-.593-.049-.296-.02-.593-.034-.848-.033-1.696-.04m21.64 6.378c-.23.119-.497.186-.602.426.39.003.74-.038 1.125-.104l.39-.026.042-.136c-.356-.195-.568-.188-.956-.16m-90.2 1.93-.133.45c.554.734 2.285 1.123 3.154 1.38.017-.193.105-.454-.019-.62-.435-.58-2.267-.961-3.001-1.21m41.635 4.136c-4.464.276-8.225 1.637-12.069 3.856.593.065 1.437.285 1.944-.085.053-.039.098-.088.148-.13.471-.39 1.66-.62 2.26-.822 3.64-1.234 7.153-2.291 11.04-1.77 1.866.25 3.685.722 5.479 1.283 1.348.453 2.719.873 4.024 1.438-2.346-.431-4.276-.256-6.562.411l-.098.12c1.438.146 2.985-.186 4.433-.272 1.279-.076 2.567-.026 3.842-.156-4.131-2.638-9.498-4.299-14.441-3.873m-9.608 3.698-.014.258c.974.289 2.489.227 3.516.187-.387-.389-2.103-.479-2.683-.479-.275 0-.545.011-.819.034m9.332.048c-1.202.052-2.343.292-3.504.597 2.237.373 4.466.366 6.726.322 1.054-.07 2.105-.114 3.138-.35-2.14-.285-4.188-.756-6.36-.569m-3.572.53.2.051c-.177-.066-.11-.079-.2-.052"/><path d="M92.454 17.39a24 24 0 0 0-3.052.08c-1.492.137-3.392.63-4.855.39-.352-.057-.424-.219-.594-.505.028-.328.036-.414.258-.677 1.44-1.705 7.387-2.656 9.656-2.872.625-.082 1.315-.068 1.946-.065 1.412.008 4.93.118 5.882 1.322.203.257.303.527.231.856-.137.631-.807 1.01-1.291 1.368 4.35 1.657 14.5-.88 15.809-.16.323.178.343.248.44.577-.067.252-.143.431-.315.626-1.285 1.455-6.331 1.45-8.35 1.64-2.836.243-14.42.354-16.396-1.008-.228-.157-.224-.209-.27-.464.18-.463.553-.768.9-1.108m76.316 58.183-.575.44-.144-.079c-.955-1.999-2.304-5.84-2.622-7.994-.075-.507.021-.662.329-1.063 1.881.838 2.28 3.81 2.823 5.545.277.888.63 1.758.967 2.626-.266.118-.537.357-.778.525m1.423-.959c-.463-1.537-1.481-2.896-1.74-4.492q.067.009.133.022c1.326.318 2.288 2.659 2.943 3.719l-.2.193zm-3.655 2.402h-.17zm-18.432 4.751-.108-.074c-1.14-.815-2.727-.13-3.729-.81-.259-.175-.384-.232-.698-.29-.246-.044-.455-.082-.685-.184-.262-.117-.175-.03-.274-.293l.292-.208c.102.086.224.195.341.259.343.184 3.757-.276 4.282-.495q.087-.036.172-.075c1.673.207 3.04.265 4.662.84-.598.631-.908 1.636-1.565 2.12-.958.245-1.433-.554-2.31-.7a3 3 0 0 1-.38-.09m-6.029-1.757-.142.07-.093-.178.216-.085zm-21.734 3.062-.303.153c-.722-.38-1.585-2.512-2.412-3.226q-.116-.103-.23-.21c3.05.09 6.072.493 9.107.765 1.203.142 2.427.242 3.607.524-1.024 0-2.06-.02-3.08.08-.747.074-1.605.313-2.344.28-.326-.015-.628-.159-.932-.257-.345-.111-.706-.226-1.064-.13-.528.403-1.05.84-1.626 1.174-.322.186-.627.481-.723.847m43.514-2.706-.084-.04zm-21.623.084-.136-.001zm-39.396 3.122c-.888.107-2.302.173-3.144-.117l.043-.153c.49-.162.91-.198 1.423-.218.893-.016 1.865-.088 2.75.048.114.018.352.028.416.118-.47.246-.97.265-1.488.322m17.505-.5.2.065zM73.1 85.58a5 5 0 0 1-.575.262c-.302-.065-.511-.18-.702-.425-.459-.593-.476-1.479-.42-2.187.626.425 1.564.757 1.895 1.464.013.386.003.539-.198.887m26.058-1.999h-.154zm1.186 4.89c.21-.137.44-.37.69-.33l.063.207c-.258.101-.479.107-.753.123m-28.017 9.463c-.16-.014-.32-.044-.477-.068-.495-.786-.31-2.221-.3-3.135.1.047.174.075.26.152.516.46.475 2.363.517 3.05m84.704 20.244.029.117c.25.485.744 1.256.619 1.79-.2-.064-.31-.094-.524-.094.166.674.51 1.56.424 2.249l-.161.105-.426-.274-.167.036c-.153.517.218 1.058.14 1.624-.365.27-.39-.094-.66.006-.431.16-.927 2.265-1.994 2.513-2.014.47-3.368 1.435-5.58.836-3.547-.961-3.331-4.401-4.7-7.073-.86-1.677-2.012-3.227-2.982-4.847-.314-.553-.613-1.116-.823-1.718-.41-1.177-.437-2.858.124-4 .681-1.383 2.323-2.752 3.802-3.183 1.583-.462 3.592-.346 5.03.475a5.8 5.8 0 0 1 1.807 1.652c1.122 1.541 1.497 3.47 2.545 5.058 1.159 1.755 3.485 2.936 4.024 5.053l-.122.064-.376-.272zm-12.24-7.392c-.783.448-1.442.895-1.679 1.818q-.027.102-.043.207t-.022.21 0 .212.023.21.044.207q.028.102.066.201.037.099.085.193.048.095.106.184c.412.644 1.123.976 1.855 1.1.42.07.808.036 1.226-.022.735-.263 1.36-.642 1.698-1.38.236-.515.223-1.094.012-1.615-.279-.686-.896-1.222-1.591-1.461-.561-.193-1.201-.134-1.78-.064m-31.968 7.879c1.154-3.066 2.771-3.012 4.413-5.215 1.229-1.649 1.546-3.807 2.86-5.4q.203-.247.433-.468t.484-.415.528-.358.565-.297c1.38-.616 3.038-.596 4.426-.016q.125.052.248.11.122.057.242.12.12.064.235.134.116.07.229.145.112.076.22.157.109.081.213.168.104.086.204.178.1.091.195.188.095.096.185.197t.174.207.164.216.153.223.142.23q.067.118.13.239.06.12.117.244.055.123.104.25c.746 1.911.397 4.108-.444 5.925-.084.18-.172.353-.263.529-.772 1.197-1.798 2.36-2.452 3.613-1.475 2.833-1.528 5.736-5.345 6.574-2.802.616-3.265-.586-5.459-.697-.353-.326-.169-1.021-.493-1.156l-.516.178c-.261-.312-.027-.558-.14-.885-.141-.404-.607-.206-.842-.59.08-.325.154-.623.154-.961a1.7 1.7 0 0 0-.575.065c-.2-.196-.204-.201-.201-.472.005-.551.242-1.217.362-1.758l-.118-.109-.24.15c.023-.656.262-1.05.64-1.567.152-.206.097-.115.189-.38-.386.078-.652.436-.921.704m10.94-7.805c-.697.319-1.233.725-1.489 1.477a2.1 2.1 0 0 0 .16 1.677 2.53 2.53 0 0 0 1.5 1.206c.496.138.968.101 1.473.044.696-.288 1.208-.58 1.52-1.297a2.1 2.1 0 0 0-.022-1.67c-.274-.63-.836-1.128-1.477-1.365-.563-.21-1.08-.142-1.665-.072m-27.09-.848.072-.077zm.012.188h-.11z"/><path d="M125.047 115.023c-.484-.003-1.01.008-1.448-.226-.489-.263-.895-.745-1.038-1.286a1.77 1.77 0 0 1 .195-1.365c.358-.603.883-.865 1.538-1.032.335.015.655.032.971.154.532.205 1.004.704 1.214 1.229q.038.09.066.185.027.095.045.191.017.097.025.195.007.098.004.197-.003.098-.017.195-.014.098-.037.193-.024.096-.058.188t-.077.18c-.296.591-.795.783-1.383 1.002m-1.034-3.218c.016.362.005.623.228.929.218.1.309.115.545.074.12-.355.238-.52.131-.885-.313-.132-.573-.122-.904-.118m22.854 1.888-.056.12zc.116-.274.255-.564.243-.869-.012-.335-.178-.605-.413-.831-.288-.28-.762-.378-1.15-.348q-.1.008-.201.026-.1.018-.198.047t-.193.068-.184.087-.173.105-.162.124-.148.14-.133.154c-.48.626-.261 1.374-.167 2.1l-.139-.07c-.344-.547-.652-1.098-.494-1.768.13-.55.565-.943 1.049-1.199.792-.42 1.376-.35 2.212-.109.455.28.9.623 1.072 1.146.174.525.036 1.477-.273 1.934-.23.34-.54.55-.941.635-.586.124-1.284-.065-1.76-.417-.401-.298-.763-.807-.786-1.32-.016-.34.132-.651.372-.886.328-.322.932-.649 1.404-.622.353.02.598.129.833.39.42.467.367.894.33 1.483m-1.446.89h.152zm34.811 2.629c-.775.031-2.228.229-2.848-.252.124-.29.185-.28.44-.446q.188-.008.376-.011c.669-.01 1.792.012 2.309.506-.093.081-.162.156-.277.203m-67.469 1.584.06-.13zm70.766.91c-.15.032-.204.047-.374.059-.59.04-4.719.07-5.017-.086-.123-.064-.214-.176-.321-.264 1.752-.338 3.937.07 5.712.29m9.696 4.022c-.88.207-13.375-.161-14.667-.4-.33-.06-.383-.31-.54-.578 1.29-.016 2.619.13 3.913.179 3.798.141 7.517.338 11.294.799m-70.052 5.98c.133 1.341.017 2.48.371 3.813l.02-.109c.11.184.175.327.233.535.084.296.178.584.278.875l.116.266-.116-.266c-.003-.253-.045-.3.105-.515.428.495.61 1.215.954 1.784a2.4 2.4 0 0 1-.005-.595l.152-.016.313.35c.124.141.244.283.372.42.246.265 1.028 1.09 1.35 1.102l-.076-.746.214.073c.19.302.35.657.682.818.174-.17.127-.102.24-.29l.071-.122c.64.104.624.726 1.184.882l.134-.314c.568-.139 1.214.172 1.8.212.588.04 1.75-.327 2.145-.754.39-.419.262-1.29.254-1.824-1.476-1.026-3.196-1.631-4.65-2.658-.977-.69-1.628-1.667-1.798-2.864-.105-.739.014-1.501.5-2.088 1.01-1.216 3.242-1.416 4.718-1.553 2.218-.206 6.365-.109 8.073 1.42.605.542.86 1.487.858 2.276-.002 3.25-4.687 3.352-6.413 5.21-.317.341-.426.701-.377 1.17.049.471.258.936.642 1.227.627.474 1.81.641 2.576.512a9 9 0 0 1 .433-.058l.155.329.066.06q.056-.062.115-.119c.276-.25.622-.457.994-.436.038.246.032.137.024.409l-.008.2c.568.035.911-.832 1.445-.794l-.273.436.078.12c.351-.243.897-.709 1.29-.82l-.203.078.21.153.062.156c.384-.098.673-.632.967-.927.113.212.087.144.156.334l.04.116c1.042-.935 1.642-2.324 2.167-3.59l-.028.287c.446-.831.465-1.669.529-2.59.082.398.17.8.214 1.204.18 1.659-.554 3.487-1.626 4.74-1.284 1.499-3.054 2.048-4.952 2.187-.7 1.388-1.162 2.404-2.687 3.044-1.493.627-3.136.575-4.62-.043-1.583-.659-2.32-1.532-2.98-3.065-.648-.069-1.338-.112-1.962-.305-1.773-.548-3.594-1.701-4.469-3.371-1.04-1.984-.706-3.946-.057-5.966m8.159-.646-.105.11.063.148 1.544.357c.082.062.17.141.261.186l.106.094-.106-.094c-.107-.113-.03-.04-.261-.186-.295-.264-.595-.458-.988-.527zm.241 10.867c.183.36.865.616 1.224.757l.143.048-.143-.048q-.056-.062-.114-.123c-.274-.283-.706-.63-1.11-.634m6.744-11.147c-.817.11-1.69.31-2.376.787l.083.114.229-.032c.797-.23 1.603-.444 2.38-.739l.056-.126zm-7.677.387h.149zm-2.093 8.39-.016.145.07.034.035-.161zm-2.067.473h.151zm.248.126h.146zm.252.126h.153zm.348.167.275.056-.167-.104zm13.59-.004h.215zm-8.808.81c.12.415.243.596.624.811.941.532 2.435.479 3.437.159.335-.107.639-.276.941-.451l.034-.237c-.347-.215-4.384-.303-5.036-.281m5.914.186c-.43.397-.889.882-1.428 1.124-.604.27-2.99.263-3.129.396l.353.043c1.486.17 2.941.047 4.178-.898a1.6 1.6 0 0 0 .346-.373l-.078-.211zm-4.864 1.358h.216zm62.74-8.011c-1.895.004-12.763.36-13.982-.453-.146-.316-.245-.671-.406-.975 4.51-.002 10.216-.465 14.388 1.428m-117.595.134a4 4 0 0 1-.64-.074c1.032-.623 10.816-.969 12.734-1.048l.265-.014.105.156c-.275.531-.772.933-1.197 1.347-3.757-.077-7.508-.343-11.267-.367m117.595-.134.061.087zm2.722 5.147c-1.865.207-3.9-.01-5.785-.016-2.511-.008-5.455.26-7.895-.072-.59-.08-.781-.397-1.125-.838 2.752.08 12.633.234 14.805.926m-135.265 2.73c5.134-1.03 10.392-1.181 15.61-1.399q3.418-.16 6.838-.025c-.446.768-.962 1.494-1.464 2.226-4.206-.34-8.466-.559-12.682-.693q-4.148-.297-8.302-.109m142.16.985c-1.915.304-5.042.022-7.069-.013-4.09-.071-8.231-.007-12.31-.264-.33-.23-.385-.497-.549-.86 3.585.019 17.143.19 19.928 1.137m-155.239 2.954c2.922-1.1 6.511-.98 9.607-1.123 6.08-.28 12.158-.28 18.243-.33 1.759-.055 3.535-.085 5.292.02-.677.934-1.531 1.763-2.281 2.644-2.893-.382-6.022-.218-8.952-.304-5.163-.152-10.324-.393-15.488-.505-2.14-.073-4.3-.09-6.42-.402m1.734 3.866a3.3 3.3 0 0 1-.869-.127c1.137-.82 25.196-.614 28.805-.924l.013.006.004.14c-.73.584-1.418 1.227-2.113 1.852-.905-.131-1.893-.083-2.81-.112l-5.361-.193-10.634-.313c-2.348-.089-4.683-.274-7.035-.33m136.809.437c4.512.102 9.055.046 13.567-.05 1.859-.076 3.746-.033 5.605.039.542.549 1.058 1.039 1.695 1.478-4.207-.02-8.42-.28-12.617-.548-2.801-.24-5.48-.386-8.25-.92M34.1 151.502c4.764-.728 9.815-.562 14.628-.688 5.414-.13 10.9.076 16.313.231 3.6.103 7.216.106 10.811.307-1.491.895-2.952.975-4.243 1.689q-.191-.107-.385-.203c-2.631-1.285-5.737-1.816-8.551-.821-.413.189-.77.337-1.229.367-2.68.174-5.927-.174-8.66-.24-6.223-.154-12.471-.237-18.684-.642m168.898 2.509c-1.848-.155-11.712-.2-12.521-.954 1.368-.592 7.87-.424 9.758-.453 3.501-.057 7.027.068 10.53.097.541.568.995 1.127 1.429 1.781-3.063.01-6.14-.274-9.196-.47m-163.361 2.472q-1.537.001-3.075.022c2.541-1.069 15.432-1.704 18.904-1.8l2.971-.079c-1.163.917-2.446 1.664-3.741 2.377-1.26-.19-2.598-.212-3.87-.284-3.733-.212-7.451-.227-11.189-.236m173.593 10.214c-.685-.76-1.544-1.295-2.395-1.847 1.72-.02 3.966-.26 5.586.325.979.353 1.32.908 1.743 1.81-1.645-.07-3.289-.213-4.935-.288M17.96 169.044c2.729-1.17 22.354-1.745 26.958-1.996.746-.077 1.484-.009 2.229.042l-1.03 2.553c-8.253-.06-16.522-.724-24.77-.604-1.126-.039-2.262 0-3.388.005m198.486 2.679c-.528-.691-1.974-1.586-2.226-2.335 1.706-.228 3.612-.068 5.325.064.345.536 1.125 1.536 1.042 2.176-1.325-.016-2.849-.185-4.141.095m4.838 3.033c-1.041-.185-3.043-.313-3.872-.937-.039-.029-.07-.066-.105-.099l.067.094.146-.246c.495-.146 1.03-.139 1.544-.166.995-.022 1.957.004 2.948.094.307.5.57 1.033.848 1.55-.526-.078-1.052-.193-1.576-.29m-55.212 11.119c.684-3.853 1.758-7.63 2.43-11.482.833.703 1.951 9.506 2.192 11.116-.769.384-1.49.568-2.33.7a7.2 7.2 0 0 1-2.292-.334m54.51-1.422c-.11-.383-.212-.706-.136-1.11.11-.583.09-.861-.136-1.41 1.434.07 2.87.122 4.295.288.128.437.28.885.37 1.331.077.389.112.554-.114.883-1.425.086-2.852.042-4.279.018m1.046 5.804c-.17-.864-.438-1.707-.686-2.552 1.364.026 3.632-.199 4.815.517.475.287.616.649.764 1.163-.093.359-.28.401-.579.607l-.048.038c-.589-.197-3.4.207-4.266.227m-.61 2.923c1.543-.626 3.248-.853 4.907-.877.24-.003.271-.069.464-.202.652.34 1.199.84 1.758 1.31-.159.371-.321.782-.614 1.07-1.007.988-3.561.516-4.87.502-.428-.068-.775-.11-1.145-.347-.349-.415-.395-.938-.5-1.456m-78.915 25.64c-.956-.481-2.57-1.437-3.613-1.484-.076-.003-.151 0-.226-.001-.227-.215-.227-.208-.261-.518.295-.169.489-.1.819-.08 4.822-4.128 8.596-5.5 14.816-6.018q.29-.027.582-.04.285-.01.57-.014t.57-.001q.284.003.57.012.284.01.568.027.285.016.569.04.283.024.567.054.283.03.565.068.283.037.564.081.282.044.562.095t.56.109q.278.058.556.122.277.065.553.136t.55.149.546.162.542.175.538.19.533.2.528.215.522.227.517.24.511.252.505.264q.25.135.498.277.247.141.491.288.244.148.484.3.24.154.477.313t.47.323.46.335.453.346q.224.175.444.356.22.182.436.368.215.186.426.378l-.097.137c-1.014-.619-2.711 1.585-3.844 1.326-.065-.015-.129-.035-.193-.052-.812.617-3.487 2.627-4.34 2.81l.041-.453c-.928-1.068-4.282-1.929-5.71-2.121-3.696-.499-7.53.37-10.495 2.654l.773.794c1.055-.784 2.135-1.414 3.384-1.838 4.121-1.401 7.965-.52 11.774 1.332-.934.834-1.853 1.67-2.732 2.565-1.12-.693-2.472-1.112-3.773-1.294-2.344-.328-4.385.208-6.277 1.623a30 30 0 0 0-2.02-1.782c-1.615-1.313-2.946-2.543-4.852-3.435 1.366-.394 2.254-1.11 3.458-1.801 1.66-.952 3.572-1.585 5.45-1.919 3.038-.54 6.244-.226 9.174.706 1.113.355 2.355.868 3.361 1.463.431.255.83.604 1.276.824.265.13.47.151.757.11.217-.195.213-.19.251-.48-.091-.234-.162-.368-.352-.539-.522-.467-1.398-.835-2.025-1.146q-.33-.165-.666-.32-.335-.154-.676-.297-.34-.142-.686-.272t-.696-.249-.704-.223-.71-.2q-.358-.093-.719-.173-.36-.08-.723-.149-.363-.067-.728-.122-.366-.055-.733-.098-.366-.042-.735-.07-.368-.03-.737-.046t-.738-.02-.738.007-.738.032-.736.059c-3.452.313-8.067 1.984-10.348 4.71m38.93-7.679q-.01.01-.023.014c-.343.089-.46-.079-.745-.259.287-.037.524-.086.808-.012zm-102.2 3.552c-1.933.089-3.81-.22-5.754.033q-.832-.988-1.691-1.953l1.376-.583c2.108-.786 3.942-.716 5.97.232.434.202.842.465 1.251.712-.43.46-.983.936-1.152 1.56m44.262-1.093c1.303-1.002 2.469-1.59 4.112-1.842 2.105-.294 3.989.721 5.718 1.78-.393.431-.852 1.06-1.337 1.377-.73.477-1.899.203-2.704.033-.898.23-2.78.125-4.024.367-.542-.616-1.164-1.158-1.765-1.715m53.365.055c1.016-.577 1.931-1.001 3.074-1.275.54-.003 1.099-.02 1.631.079.847.157 2.917.58 3.414 1.287-.337.421-.659 1.077-1.109 1.368s-1.616-.1-2.13-.211c-.9.032-1.878.225-2.761.183-1.002-.047-1.497-.745-2.12-1.43m-97.626 1.036.263.147z"/><path d="M127.124 219.864c-.028.015-.053.038-.085.044-.773.14-1.702.074-2.504.164-1.762.197-3.663.848-5.302 1.492q-.62.245-1.224.523-.605.278-1.193.59t-1.158.655-1.12.72-1.078.78q-.528.406-1.032.84-.505.434-.985.895-.48.462-.932.95c-.43.46-1.017 1.023-1.27 1.602l.302.378-.196-.02c-.78-.095-1.507-.558-2.305-.682-.418-.065-2.501-.203-2.665-.407 5.03-6.536 12.15-11.031 20.4-12.09 1.132-.146 3.641.05 4.486-.627l.088-.074.113.195-.277.11-.011.139c.832.13 1.672.212 2.501.358 8.527 1.494 15.014 5.256 20.01 12.384-1.39.187-3.885.932-5.097.816q.211-.179.418-.361c-1.016-1.595-2.488-2.898-3.959-4.066-4.135-3.283-10.551-5.947-15.925-5.308m-37.304-.998-.075.045-.142-.086.11-.054zm-32.522 1.837.18-.174z"/><path d="M109.976 229.661c.956-.866 1.78-1.874 2.75-2.736 3.165-2.812 7.208-4.874 11.375-5.692 1.106-.218 2.243-.18 3.339-.388l.207-.04c5.958.02 11.014 2.224 15.569 5.965 1.11.911 2.092 2.221 3.302 2.958l.092.053c-1.271.525-2.92 1.377-4.26 1.532l.249-.095-.444-.007-.025-.135-.04-.183c-.173-.85-1.75-1.986-2.424-2.511-2.468-1.921-5.204-3.164-8.268-3.775-.575-.114-1.389-.312-1.973-.215-.241.04-.097.06-.358-.069q-1.38-.016-2.753.138-1.372.155-2.714.478c-2.155.535-4.776 1.492-6.512 2.925-.46.38-.809 1.027-1.28 1.347-.29.198-.637.244-.934.422-.787.473-.929 1.159-1.366 1.88q-.014-.075-.032-.15c-.158-.612-2.829-1.334-3.5-1.702m-52.754-8.884.076-.074zm-.042.13.042-.13z"/><path d="M121.262 235.976c-.538-.405-1.095-.905-1.704-1.191l-.3.126c-.325-.422-.601-.963-1-1.316-.318-.28-3.522-1.859-4.243-2.303l-.028-.126c.278-.18.3-.166.635-.144l.12.176c3.786-3.185 7.323-5.316 12.352-5.804a13.7 13.7 0 0 1 3.805.174c3.623.662 7.96 2.697 10.09 5.788.21.067.364.076.58.062l.247-.019.023.169c-.9.813-2.299 1.392-3.352 2.02-1.186.706-2.29 1.521-3.378 2.37-2.023-1.866-3.692-2.802-6.424-3.251-1.437-.04-2.687.131-4.045.62-1.433.517-2.704 1.22-3.378 2.65m5.914-7.324c-2.828.212-6.837 1.547-8.759 3.8-.186.22-.211.282-.21.555.216.177.305.372.61.296.577-.144 1.531-1.078 2.027-1.438 1.7-1.237 3.445-1.789 5.51-2.1.726-.109 1.732-.33 2.447-.14l.08-.067c2.991.516 4.571.992 6.996 2.837.547.416 1.365 1.118 2.08.89.014-.436-.25-.766-.546-1.074-2.106-2.205-5.996-3.613-9.01-3.611-.402 0-.826-.004-1.225.052m-32.852.57.196-.034zm75.66 3.696.06.027zm-29.674.151h-.1zm33.517 2.416c2.061-1.316 4.061-1.86 6.416-2.348 1.444.26 2.493.3 3.901.86.53.212 1.452.507 1.687 1.063-.219.746-1.693.724-2.372 1.132l-.108.069c-1.64-.2-3.067-.327-4.685.071-.93.36-1.808.816-2.696 1.269-.618-.771-1.423-1.438-2.143-2.116"/><path d="M121.756 236.431c1.862-1.493 3.24-2.375 5.646-2.663.154-.018.302-.025.458-.025 2.626-.012 4.565 1.078 6.37 2.892-.575.654-1.194 1.271-1.8 1.896-.845-1.109-2.199-1.512-3.503-1.793-2.205-.093-3.461.417-5.296 1.58z"/><path d="M124.397 239.07c.988-.542 1.886-.968 2.997-1.19a7.7 7.7 0 0 1 1.408.006c1.391.113 2.143.483 3.029 1.509l-.136.1-.194.152c-.512.39-.608.91-1.014 1.281-.249.227-1.119.221-1.457.279l-.15.028-.308-.306c-.356.09-.704.185-1.074.181-.72-.008-1.434.058-2.157.034a1.2 1.2 0 0 0 .268-.405 41 41 0 0 1-1.212-1.669m-14.145 7.828c.203-.367.394-.532.257-.966-.355-1.117-3.297-2.566-4.436-2.975-3.235-1.162-7.175-1.27-10.317.241-1.025.493-1.896 1.064-2.642 1.934-.176-.176-.19-.282-.259-.515-.873-.448-2.207-.573-2.875-1.274.045-.356.498-.652.772-.863q1.241-.958 2.605-1.73c4.31-2.169 9.092-2.512 13.691-1.012q.986.315 1.914.771.928.457 1.778 1.045c.875.593 2.22 2.05 3.146 2.289.179.046.356.097.535.142l.142.179c-.496.432-3.642 2.373-4.311 2.734m61.218-4.915-.108-.083.035-.15.618-.299.104.084-.022.153zm-25.297 4.532c2.386-1.8 4.443-2.995 7.49-3.293 1.656-.128 3.632.195 5.169.834.543.227 1.027.613 1.567.822.267.104.552.097.828.181.218.067.14.011.25.215-.378.25-.944.327-1.38.436-1.036.259-2.107.547-3.178.586-1.271.046-2.583-.123-3.834.14l-.145.032c-1.47.352-2.818 1.115-4.28 1.53-.92-.348-1.701-.906-2.487-1.483"/><path d="M94.854 245.441c.08-.189.15-.363.296-.511 1.249-1.269 3.944-1.818 5.662-1.809 3.52.02 6.94 1.25 9.44 3.777-.437.413-1.01.676-1.467 1.088l.15.498-.104.13c-.488-.278-.986-.601-1.52-.776-1.703-.559-3.451-1.346-5.217-1.66-2.202-.391-5.24.24-7.24-.737m16.427 1.513-.13-.276z"/></svg>