<svg xmlns="http://www.w3.org/2000/svg" viewBox="0 0 256 256"><path d="M127.39 0h1.115c2.283 3.323 4.18 6.949 6.57 10.192 2.852-2.212 5.239-4.436 9.13-3.978 2.327.274 4.078 1.555 5.479 3.36 1.406 1.813 2.785 4.771 5.328 5.039 3.977.418 7.183-4.893 12.615-3.034 1.36.465 2.545 1.327 3.466 2.423 2.057 2.448 2.868 7.754 6.564 8.158 2.15.235 4.215-.77 6.265-1.236 3.024-.686 6.22.197 8.228 2.628 2.915 3.526 1.394 10.196 6.727 10.768 1.315.141 2.67-.145 3.97-.313 3.143-.409 6.086.028 8.25 2.574 3.939 4.633-1.18 12.473 6.275 13.153 3.567.326 6.853.131 9.443 3.07 1.498 1.7 1.785 4.052 1.613 6.23-.194 2.444-1.424 5.7.396 7.78 2.287 2.615 8.02 1.362 11.205 5.037 1.02 1.177 1.45 2.745 1.41 4.282-.1 3.769-3.987 8.235-.954 11.61 2.616 2.91 7.4 2.611 9.164 6.624.393.894.611 1.91.571 2.888-.19 4.472-6.8 8.422-3.143 12.72.852 1.002 2.056 1.662 3.158 2.346 2.755 1.712 5.042 3.789 4.835 7.353-.278 4.773-6.178 7.852-6.568 10.63-.133.941.397 1.808.986 2.49 2.687 3.112 6.204 4.211 5.892 9.141-.14 2.221-1.222 3.931-2.862 5.347-1.703 1.472-5.243 3.037-5.436 5.535-.244 3.163 6.136 6.52 5.256 12.055-.23 1.453-.968 2.745-2.038 3.747-.828.776-1.842 1.4-2.869 1.875-2.31 1.071-5.451 1.768-5.56 4.91-.048 1.363.503 2.618 1.447 3.584 1.223 1.25 2.831 1.93 4.011 3.265 1.308 1.478 2.274 3.321 3.288 5.008 1.618 2.693 3.208 5.424 4.946 8.042-4.368.184-8.759.005-13.131.078-2.512 2.552-4.231 4.677-8.101 4.72-2.738.03-5.548-1.158-7.77 1.156-1.15 1.199-1.536 2.74-1.454 4.365.167 3.274.964 6.363-1.496 9.075-1.766 1.946-4.176 2.8-6.768 2.87-2.416.066-5.187-.734-7.105 1.236-2.893 2.97-.136 8.523-5.03 12.038-1.323.95-2.852 1.43-4.476 1.487-3.288.118-7.295-2.615-9.975.103-2.895 2.938-1.68 7.667-6.31 10.43-1.183.707-2.457 1.127-3.84 1.175-4.013.139-8.557-4.22-11.896-.636-.797.855-1.323 1.904-1.879 2.92-1.746 3.196-3.599 5.363-7.492 5.575-5.27.29-8.65-4.974-12.385-3.736-.704.233-1.28.697-1.866 1.135 1.051 2.083 1.777 4.506 2.577 6.706h-1.243l-.337-.567c-.74-.375-1.965.335-2.755.567h-5.054c-1.145-.61-2.228-1.023-3.28-1.82-1.69-1.285-3.158-3.053-5.093-3.988-3.252-1.57-6.121 2.675-8.468 4.305-1.025.713-2.22 1.093-3.388 1.503h-3.285q-1.394-.593-2.797-1.162c-.796.565-1.588 1.095-2.611 1.01-.138-.096-.245-.13-.312-.293-.411-.995 2.008-5.235 2.544-6.464-.495-.487-1.047-.859-1.716-1.064-2.716-.832-4.98 1.538-7.199 2.69-1.779.925-3.663 1.4-5.668 1.118-6.828-.968-6.364-8.312-10.645-9.568-3.591-1.053-7.105 3.19-11.984 1.625-2.848-.914-4.757-3.062-5.664-5.866-.483-1.494-.792-3.118-1.534-4.511-2.675-5.021-8.569-.23-13.295-1.706-2.951-.922-5.034-3.603-5.519-6.614-.33-2.052-.149-4.263-1.192-6.142-1.86-3.353-7.755-.938-11.138-1.919-1.38-.4-2.517-1.217-3.422-2.317-3.948-4.805.343-9.367-1.545-12.6-1.573-2.694-6.823-1.387-9.47-2.156-2.6-.755-3.915-2.59-5.13-4.837l-15.933.185c2.768-3.998 5.297-8.265 8.317-12.073 1.394-1.76 3.367-3.009 4.63-4.861.813-1.192 1.438-2.752 1.128-4.207-.653-3.07-5.078-3.35-7.311-4.853-1.544-1.038-2.846-2.777-3.151-4.629-.59-3.576 2.044-6.546 3.93-9.248.628-.9 1.242-2.095 1.007-3.223-.452-2.172-3.096-3.394-4.76-4.566-1.745-1.23-3.281-2.577-3.644-4.81-.742-4.571 1.675-6.33 4.698-9.045.672-.604 1.394-1.2 1.909-1.95 2.418-3.532-5.397-6.628-6.125-11.565-.514-3.488 1.668-6.069 4.429-7.805 1.284-.808 2.855-1.516 3.747-2.793 2.216-3.169-2.445-7.326-3.054-10.836q-.044-.248-.071-.498-.028-.251-.038-.503t-.004-.504q.006-.251.03-.502.023-.251.063-.5t.097-.494.13-.487q.073-.24.162-.476c2.027-5.433 8.206-4.658 10.065-7.506 1.612-2.468-1.018-6.599-1.49-9.187-.178-.976-.211-1.99-.047-2.97 1.263-7.521 9.916-5.016 12.72-8.997 2.321-3.295-1.707-8.89 1.43-13.331 2.6-3.68 6.404-2.795 10.184-3.499 5.913-1.1 2.68-8.03 5.858-12.582 3.648-5.224 8.48-1.98 12.807-2.82 4.68-.907 3.94-6.924 6.204-10.1q.148-.208.31-.407t.337-.386.361-.362.384-.338.406-.312.427-.284.443-.255.46-.226c4.448-1.968 7.592 1.704 11.464.957 3.513-.678 3.954-5.05 5.695-7.563q.17-.247.357-.481t.39-.454.424-.425.453-.393.48-.358.504-.323.527-.285.547-.246c6.226-2.595 8.674 3.603 12.968 2.605 4.61-1.073 4.849-7.381 10.35-8.33 4.22-.73 6.644 1.536 9.816 3.81 2.15-3.297 4.421-6.532 6.404-9.933M92.22 36.215l-.142.084-.225-.103c-.243-.116-.38-.243-.556-.451-.262-.011-.333-.047-.535.146-.376.36-.761 1.032-1 1.5l-.07.258c.572.078 1.519-.629 1.978-.979.135-.103.306-.235.408-.37zc1.326-.8 2.252-2.233 3.41-3.261 1.113-.99 2.39-1.698 3.362-2.834-.04.475-.021 1.04-.12 1.5-.115.53-1.959 2.285-2.455 2.923l2.283-.457c.475-.468.763-.865 1.473-.873.139.069.53.316.677.315 1.092-.015 3.041-.859 4.151-1.173q1.456-.4 2.937-.692c1.707-2.54 3.432-5.195 4.894-7.884-4.663.891-9.329 1.757-13.88 3.126q-1.165.353-2.32.73-1.157.378-2.305.78t-2.287.828-2.27.876-2.25.924-2.23.971-2.209 1.019-2.187 1.065-2.164 1.111-2.14 1.157-2.115 1.202q-1.05.611-2.089 1.245-1.037.635-2.062 1.29-1.024.657-2.034 1.334-1.01.678-2.006 1.377-.996.698-1.976 1.418t-1.946 1.46-1.914 1.5q-.95.761-1.883 1.541-.932.78-1.849 1.58t-1.815 1.62-1.78 1.657-1.745 1.695q-.864.857-1.71 1.731-.845.875-1.671 1.767t-1.634 1.802-1.596 1.836-1.556 1.87-1.517 1.902-1.475 1.933-1.435 1.965q-.706.99-1.392 1.995c-6.34 9.35-10.68 18.55-14.201 29.247-1.253 3.804-2.4 7.573-3.152 11.515-1.504 7.89-1.93 15.867-1.684 23.878.153 4.957.385 9.871 1.33 14.748.857 4.429 2.091 9.623 3.662 13.844 1.476-2.322 3.133-4.54 4.398-6.989-.174-1.957-.683-3.828-1.725-5.511-1.058-1.711-2.663-3.413-4.064-4.868-.445-.462-1.054-.885-1.422-1.4-.415-.58-1.349-2.81-.911-3.461.835.259 1.236 1.86 1.93 1.958 1.021.145 1.505 1.059 1.973 1.053.164-1.654-3.094-4.346-2.866-5.66.592-.056 1.296.49 1.727.85 1.127.94 1.942 2.213 2.746 3.424-.132-1.489-.428-2.937-.605-4.417-.136-1.14-.07-2.4-.392-3.503-.409-1.407-1.236-2.761-1.949-4.036-.823-1.472-1.961-2.975-2.56-4.539q-.032-.077-.062-.156c-.2-.562-.11-1.332-.099-1.925l.121.126c.615.65 1.508 2.331 2.337 2.522l.251-.193c-.01-.278.042-.164-.111-.335-.656-.733-2.01-3.732-2.008-4.72 0-.177.013-.19.056-.336.344.025.494.21.718.457a38 38 0 0 1 3.634 4.764c.099-3.219-1.393-3.578-2.03-6.269.328-.1.801.069 1.093.233.376.212.65.722.887 1.079 1.945-5.678-.37-8.485-1.909-13.777-.125-.431-.309-1.075.088-1.388.561.543 1.046 1.158 1.622 1.686-.532-1.76-.955-3.749-.94-5.593 1.55 1.785 2.513 4.477 3.55 6.606.054-.567.108-1.085.291-1.63-.454-1.488-1.547-4.127-1.439-5.614l.15-.13c.834.566 1.255 1.51 1.57 2.435 2.192-4.286.968-6.075.88-10.482-.26-.31-.704-.714-.741-1.127.175-.27.382-.429.632-.623.258-1.554-.486-1.215.528-2.986l.096.166c.655 1.143.671 3.273 1.27 3.925l.13-.043c.04-.934-.245-1.834-.338-2.758-.152-1.516.071-3.122.33-4.614.366 1.078.725 2.15.97 3.264.305 1.394.498 2.821.917 4.187.371-2.15-.063-5.95.754-7.573l.217-.08c.457.392.898 1.447.959 2.043.014.144.01.228.011.38l-.09.253c-.302.475-.44.93-.55 1.481.407-.462.45-.892.55-1.481l.09-.253c.647-1.548 1.706-3.07 2.033-4.722.194-.977.182-2.009.301-3 .075-.616.321-1.59.181-2.18-.38-1.606.696-3.186.816-4.754.013-.176.015-.341.053-.514.053-.243.03-.267.25-.405.097.07.146.093.218.206.314.486.703 2.315.538 2.872-.535 1.813-.637 3.89-.854 5.778.58-.8 1.238-1.572 1.142-2.606-.03-.314-.05-.497.07-.8.242-.17.442-.295.612-.542q-.08-.168-.163-.332c-.092-.175-.235-.37-.283-.562-.09-.362.543-5.941.687-6.233l.516.001c.436-.452.47-1.48.753-2.082l.102.008c.657 1.338.36 6.038.209 7.647.99-1.593 1.443-4.247 1.567-4.329.899-.596 1.602-.474 2.479-1.474 1.386-1.58 1.915-5.463 2.05-7.536.023-.356.35-.534.595-.748q.654-2.264 1.24-4.547c.322.892.719 1.724 1.144 2.572.154-1.987.688-3.67 1.377-5.527.29 1.36.49 3.02.366 4.414-.09.995-.533 2.386-.345 3.342 1.218-.61 2.581-5.943 3.571-7.231l.206-.019c1 1.734-1.312 4.571-.773 5.84l.089-.132c.007-.38.006-.628.249-.93.547-.677.942-1.465 1.501-2.133.963-1.15 2.059-1.832 2.8-3.221.712-1.335 1.85-4.319 2.41-5.81.258-.685.47-1.648.843-2.264.17-.282.333-.294.623-.366.513.541-.154 1.749-.117 2.444.014.242.03.298.213.457.41-.476.475-1.879.697-2.553.289-.878.719-1.624 1.196-2.409.459 2.755-.1 5.046-.837 7.684.573-.557 1.052-1.084 1.701-1.562l-.135-1.36.107-.111.169-.186c1.245-1.348 1.605-3.217 2.694-4.604l.205.048c.453 1.214-.715 3.812-1.211 4.94 1.404-.919 2.86-1.801 3.92-3.13.929-1.165 2.541-5.438 2.682-5.49.052-.018.415-.017.441-.035.001-.001.602-2.257 1.164-2.899l.148.04c.049.325.075.635.24.926 1.009-.864 1.76-2.25 2.691-3.241-.24 1.646-.348 3.31-.46 4.969 1.055-1.19 3.238-4.825 4.25-5.466l.117.098c.073.93-.529 2.054-.918 2.877.096.232.049.18.186.333q.041.044.084.087c-.187.172-.434.315-.645.46-.555.382-.837 1.005-1.173 1.577l-.068.038.068-.038c1.546-.512 5.695-2.403 6.862-3.437.594-.526 1.036-1.218 1.52-1.84.745-.96 4.803-5.933 5.738-6.051l.158.19c.204.984-.227 2.758-.642 3.661-.354.234-.473-.114-.911-.032-.672.657-.871 1.53-1.097 2.409m80.883 3.442c-.339-.893-1.341-2.378-1.041-3.3l.238-.05c1.61.703 3.146 4.212 4.208 4.809.06.033.12.06.18.09-.188.286-.31.456-.356.804.264.409.678.552 1.1.781l.112-.06c.092-.298.017-.47-.128-.738-.165-.305-.385-.677-.727-.787q.009-.126.015-.251c.041-1.061-1.44-2.588-.571-3.5.152-.16.42-.228.625-.224 1.148 1.565 1.44 3.115 3.052 4.434l.045.084-.045-.084c-.326-.949-.755-1.819-.496-2.828l.186-.136c1.025.42 3.179 5.217 4.012 6.372.635.88 1.502 1.58 2.318 2.288.428.372.922.878 1.485 1.002l.104-.187c-.257-.82-.727-2.102-.38-2.93l.126-.044c.9.677 1.394 2.098 1.934 3.075.384.229.824.568 1.25.69.094-.213.068-.323.038-.545-.07-.526.06-1.037.424-1.44.12-.132.134-.135.26-.226l.216.047c.565 1.406.671 3.107 1.614 4.326l.132.002c-.063-.826-.42-1.527-.575-2.325.231-.15.427-.205.707-.118.043.013.338.132.39.179.374.336.662 1.303.912 1.756.513.93 1.135 1.798 1.645 2.732.668 1.225 1.24 2.572 2.022 3.726.702 1.039 1.595 1.865 2.42 2.797-.16-1.153-.463-2.73.014-3.833l.157-.032c.333.478 1.692 3.765 1.954 4.497.32.164.658.318.968.499.024-1.734.025-3.147.884-4.715.292 1.066.62 2.146.767 3.242.101.752.036 3.334.304 3.837.182-.081.12-.017.2-.227.29-.769-.047-2.348.474-2.933.571.259.914 1.377 1.127 1.945 1.064 2.848 1.73 6.539 3.078 9.091.895 1.696 2.266 3.046 3.256 4.69l.118-.023c.09-.533-.164-1.074-.221-1.608-.087-.81-.046-3.28.454-3.896.42.267.648 1.276.755 1.75q.363 1.619.393 3.278c.016.886-.086 1.86.102 2.723l.305.076-.288-.033.063.162.202-.053c.438-1.196.211-2.546-.005-3.768.325-.269.645-.55.994-.787.635 1.295 2.09 3.124 2.442 4.313 1.321 4.461-.207 8.449 3.183 12.418.293-.897.742-3.009 1.545-3.56.206.065.156.002.23.149.683 1.358 1.707 6.65 1.71 8.288l-.213.141c-.543-.18-.74-.582-1.067-1.03-.127-.174-.08-.115-.3-.232-.303.572-.027 1.777.15 2.392.118.413.342 1.106.718 1.357.032.022.07.034.106.051.179-.162.148-.074.16-.306.024-.492-.263-1.052-.477-1.482.139-.224.045-.152.224-.23.503-.221.82-.47 1.02-.996.534-1.401.004-3.787.727-4.993.443.183.654.795.829 1.224.29.712.534 1.556.489 2.327-.048.807-.503 1.818-.744 2.602-.456 1.49-.888 3.07-1.04 4.622 1.16 2.956 2.07 6.091 2.486 9.242.173-2.623.192-4.731 1.612-7.035.215 2.687.174 5.56-.037 8.245l-.856.482c.236.594.463 1.194.711 1.782.215-1.62.92-3.034 1.471-4.554.347-.957.618-1.944.927-2.913.27.827.65 1.754.706 2.622.175 2.704-2.357 6.387-2.485 9.633-.043 1.081.448 2.24.544 3.332.177 2.019.1 4.051.149 6.073.569-2.285 1.11-4.532 3.214-5.861l-.026.197c-.267 1.936-.826 4.252-1.588 6.053.153.24.23.22.485.323.436-.049.638-.196.897-.533.617-.8.978-1.754 1.608-2.571.04.84.196 1.927.012 2.74-.194.857-.708 1.651-1.158 2.396-1.639 2.712-3.333 5.012-3.396 8.293-.01.578-.106 1.23.056 1.788.251.1.113.072.417.061.152.584-.338 1.926.165 2.272.99-.847 1.975-1.885 3.125-2.505l.204-.112c-.508 2.003-1.897 3.176-2.736 4.964-.296.31-.653.646-.784 1.067-.112.362-.128.66.062.979l.27-.022c.59-.357 3.7-3.496 4.13-4.058l-.213.874c-1.18 4.965-7.09 7.862-8.73 13.137.54 1.142 1.236 2.226 1.875 3.315.713-.579 1.33-1.141 2.136-1.593l.254.11-.146-.147.152.127c-.148.857-1.005 2.005-1.453 2.777.784 1.288 1.556 2.58 2.42 3.817 1.852-6.941 3.618-13.873 4.26-21.049q.159-1.625.268-3.255t.171-3.262.075-3.266-.023-3.266-.119-3.264-.216-3.26q-.132-1.627-.312-3.25-.18-1.624-.408-3.241t-.504-3.227-.6-3.211-.694-3.192-.788-3.17-.883-3.145-.975-3.117-1.066-3.087-1.158-3.055c-.838-2.115-1.661-4.276-2.643-6.327-4.23-8.836-9.84-17.041-16.109-24.543q-.659-.786-1.332-1.56t-1.36-1.535q-.688-.762-1.389-1.51-.701-.75-1.416-1.485t-1.443-1.458-1.469-1.431q-.741-.71-1.495-1.405t-1.521-1.376-1.546-1.349-1.57-1.32-1.594-1.29q-.803-.639-1.618-1.262t-1.64-1.232q-.826-.608-1.663-1.201t-1.685-1.171-1.705-1.14-1.726-1.108-1.746-1.076-1.766-1.044-1.785-1.012-1.802-.979-1.821-.945-1.838-.912-1.853-.879-1.87-.843-1.885-.81-1.899-.775-1.913-.74-1.927-.705-1.939-.67q-.972-.325-1.95-.633-.979-.308-1.963-.598c-4.298-1.245-9.307-2.515-13.752-2.913 1.465 2.497 3.048 4.913 4.475 7.435 1.816.551 3.649 1.055 5.475 1.573q-.324-.934-.593-1.885l.145-.066c.852.34 1.675 1.426 2.505 1.956.93.593 2.066.979 3.083 1.403-.42-.377-.971-.798-1.174-1.344-.095-.255-.056-.222.041-.45 1.525-.529 2.262 1.477 3.531 1.484-.051-.327-.243-.493-.441-.751-.244-.088-.43-.16-.635-.32.013-.369.037-.658-.118-1.003a5 5 0 0 0-.474-.145l-.168-.04c-.47-.558-.559-1.867-.69-2.582 1.254.753 2.31 1.589 3.364 2.602.192-.358.442-.682.678-1.012 1.957 1.852 3.786 4.342 5.88 5.931 1.523 1.155 3.339 1.962 5.042 2.813m-69.79 15.427c1.353 1.14 2.269 3.12 3.403 4.51-1.345-3.023-3.451-7.077-6.73-8.308-.345-.129-.606-.189-.971-.15-.133.158-.181.143-.16.366.19 1.981 5.836 8.308 7.445 10.024 2.035 2.292 5.773 6.662 8.41 7.924-2.695-2.79-10.174-11.201-11.397-14.366m-1.83 6.65c1.054 1.015 4.252 3.754 5.65 4.112-1.097-.813-3.295-2.336-4.183-3.28 1.379.506 5.04 2.998 6.224 3.976l.087.133c.15.323.256.43.556.62l.042.056-.042-.056c-.153-.31-.272-.426-.556-.62l-.087-.133c-.646-2-5.41-5.811-7.226-7.22-1.149-.893-4.36-3.442-5.818-3.162-.22.042-.218.12-.34.287-.01.3.028.53.125.817.414 1.228 1.052 2.266 1.912 3.227 1.73 1.935 11.919 9.974 14.177 11.058-2.109-2.223-4.589-4.207-6.926-6.19-1.025-.869-2.14-1.715-3.056-2.7-.269-.29-.46-.53-.539-.925m-3.3 4.474c1.103.421 2.154 1.004 3.227 1.498 1.827.841 3.693 1.594 5.525 2.424 1.308.593 2.58 1.304 3.91 1.84-2.962-2.05-6.049-3.811-9.115-5.684-2.051-1.252-4.03-2.688-6.206-3.716-.793-.374-2.618-1.113-3.482-.894-.189.048-.198.064-.346.15-.103.329-.08.48.082.791.337.645.96 1.266 1.47 1.782 2.467 2.249 5.433 4.024 8.496 5.344 1.705.735 3.465 1.367 5.134 2.18 1.918.936 3.804 2.269 5.868 2.831-1.677-1.194-3.58-2.126-5.371-3.143-1.56-.886-3.071-1.86-4.633-2.738-1.393-.782-3.514-1.481-4.559-2.665m-53.265 8.206-.059.118-.097.077.097-.076zc.468-.12.81-.198 1.29-.124l.246.182c.045.31.078.42-.118.698-.328.462-1.835 1.946-2.28 1.975-.118-.164-.235-.328-.363-.486-.62.338-1.637 1.44-2.01 2.046l.04.158c.84-.108 1.842-1.109 2.567-1.057l.075.124c.108.173.06.108.197.25.061-.409.025-.734.32-1.032.19-.014.377-.029.567-.031 1.397-.018 2.504-1.29 3.894-1.214l.12.158c-.605 1.555-6.009 4.184-7.584 5.047.334.358.66.728 1.014 1.064.368-.2.919-.413 1.105-.796-.145-.23-.19-.2-.434-.293.302-.145.389-.11.703-.005.415.139.72.282 1.162.062.279-.14.447-.424.617-.673.919.07 1.818.147 2.724.321-3.279 2.721-9.218 3.021-11.69 6.574-.688.987-1.035 2.136-1.425 3.261.58-.78.967-1.478 1.93-1.788l.276.07c.178.415.149.786-.013 1.215-.204.541-.584 1.104-.91 1.58-.398.112-.807.302-1.21.203a1.16 1.16 0 0 1-.056-.575l-.146-.077c-.842.597-1.5 2.237-1.825 3.197.97-.524 1.313-.774 1.851-1.758.49-.298.423.01.855-.051.785-.113 3.192-2.294 4.43-1.96.033.008.064.026.097.04-.106 1.059-3.742 3.092-4.074 3.989-.066.177.566 1.102.67 1.333.71-.37 1.431-.727 2.129-1.12l1.576.454c-2.818 2.24-9.332 4.978-10.924 7.903-.6 1.102-.784 2.626-1.098 3.849-.345 1.346-.855 2.746-1.04 4.121-.034.257-.082.47.088.678.428-.393 1.835-2.326 1.853-2.876.001-.047-.008-.094-.012-.14l-.223-.161c-.277.093-.41.207-.691.09-.051-.834.923-2.985 1.463-3.625q.07-.082.143-.162c.354.057.43.218.675.47.354 1.124-.361 2.55-.452 3.717 1.29-2.078 2.422-3.055 4.564-4.144-.985 2.103-2.679 4.103-3.89 6.142-.514.23-1.02.385-1.255.946-.132.316-.12.53-.06.859.223.312.233.338.592.46.32-.129.334-.16.527-.45-.01-.28-.05-.535-.105-.809l.114-.16.417.156c.604-.283 1.448-.587 1.782-1.189-.35.054-.65.184-.964.007l-.003-.305.218-.137q.499.121.995.25c.589-.178 1.132-.353 1.75-.388l.15.093c-.21.46-.746.878-1.088 1.25-2.212 2.409-5.157 4.431-6.95 7.188-1.447 2.227-1.274 5.678-2.003 6.626-.504.657-.134 2.575-.035 3.382.332-.81.66-1.587 1.109-2.339-.079-1.253-.378-2.95.305-4.052l.262-.12c.362.227.511.576.613.991.159.645.041 1.421 0 2.081.865-1.621 1.784-2.856 3.318-3.903-.508 2.068-1.701 4.701-3.125 6.296-.378.496-.922 1.005-.953 1.631.198.231.427.402.667.586l.114.195c.357-.21.555-.613.777-.952-.176-.509-.344-.986-.605-1.46.39-.034.515-.07.879.1.175.248.165.424.164.715l-.001.111c.984-.431 1.61-1.728 2.788-1.798.26-.015.3-.03.5.146-1.535 3.219-5.895 6.103-6.628 9.554-.285 1.34-.015 2.346.709 3.458.366-.343.76-.656 1.145-.977-.009 1.139-.006 2.224.126 3.359.473-1.285 1.364-3.37 2.5-4.186l.165.054c.198 1.129-1.143 4.46-1.531 5.724.096.204.175.38.222.604.047.22-.002.21-.115.387l-.572-.022c-.453.191-.721.87-.959 1.286.402.17.76.398 1.13.626.17-.313 1.894-2.968 1.914-3.078.029-.154-.026-.312-.04-.468l.219-.137c.555.394 1.042-.254 1.722-.285l.129.136c-.114 1.185-1.571 2.693-2.2 3.718-.53.867-1.009 1.82-1.454 2.733-1.307 2.681-.836 4.177.073 6.828 3.637-6.106 7.797-11.941 11.66-17.913l20.46-32.115L81.55 74.715c2.556-3.952 4.87-8.143 7.662-11.932-.13-.904-.286-1.777.166-2.625.561-1.054 1.943-.678 2.593-1.668.449-.684.802-1.453 1.233-2.154.748-1.222 1.594-2.428 2.25-3.7.547-1.061.955-2.184 1.566-3.214 3.174-5.349 6.597-10.573 9.917-15.831-1.977.476-5.879 1.124-7.557 1.928-.346.166-.64.44-.924.692.885.26 2.826.618 3.513 1.108.187.133.121.055.162.323l-.215.188c-1.551.448-4.587-.058-6.243-.252.553.543.964 1.182 1.462 1.772 1.603.174 2.915 1.396 4.25 2.26-2.582-.369-10.825-2.299-12.656-1.864-.757.18-5.763 2.31-6.081 2.816.472.716 3.447.425 4.412 1.07l.028.192c-1.057.25-2.123.25-3.194.398-.871.12-1.724.364-2.594.47-2.093.258-3.48.177-5.317 1.42.62-.118 1.2-.224 1.835-.212.274.005.874.087 1.116.007.362-.119.541-.52.982-.523.084.159.164.29.267.44.272-.1.538-.191.818-.269.365.168.343.317.486.68.675.15 1.36-.43 1.916-.777l.865.87c.876.073 2.81.107 3.417.75-.449.523-2.22.55-2.909.573-2.34.078-8.475-.623-10.138-.121-1.343.405-2.75 1.786-3.913 2.564a24.4 24.4 0 0 1-5.11 2.608l2.43-.28q.294-.254.607-.484c.233-.168.49-.318.784-.341.454-.035.56.485 1.063.533 1.288.124 2.538.02 3.843.215-2.423 1.361-5.32 1.439-7.93 2.267.261.26.597.655.928.803 1.862.834 3.414-.633 5.839 1.04q-1.813.438-3.667.643c-2.616.289-7.009.285-9.285 1.378-1.174.564-2.069 1.459-3 2.346.495-.044.995-.148 1.459.075l.07.214c-.841 1.337-3.33 1.855-4.634 2.687-.16.313-.19.353-.154.7.887.416 1.301-.716 2.128-.846.078.197.117.265.264.431 1.447-.098 2.76-.374 4.236-.36-1.045.734-3.853 2.156-5.053 2.693-.236-.056-.497-.143-.741-.096-1.316.253-3.721 1.224-4.8 2.048-.363.278-.653.697-.93 1.058.689-.267 1.312-.666 1.947-1.04.721.043 1.482.135 2.152-.179l-.039-.094c-.22-.103-.333-.219-.494-.399l.085-.21c.812-.404 1.396.674 2.213.582.545-.061.787-.445 1.073-.853.863.157 2.886.252 3.443.975-.096.252-.926.312-1.228.373-2.899.592-7.801 1.334-10.202 2.832-1.221.762-2.222 1.88-3.105 3.001M98.33 75.98l.198.054c1.904.503 3.87.544 5.779 1.085 2.54.72 4.778 1.959 7.244 2.834-3.656-2.556-7.743-3.7-11.738-5.513-1.624-.737-3.216-1.802-4.92-2.312-.385.117-.586.224-.772.595-.22.44-.255.876-.293 1.357.27.924.623 1.948 1.506 2.461 2.38 1.382 4.996 1.092 7.57 1.642 3.197.683 6.195 2.14 9.373 2.865-1.967-1.16-6.085-2.923-8.28-3.573-1.847-.547-3.997-.472-5.667-1.495m120.55 13.035.021-.218c.085-1-.268-1.88-.963-2.595-1.717-1.768-6.59-3.24-8.982-4.136-.678-.254-1.776-.53-2.247-1.088l.05-.111c.499-.11.995.026 1.495.092.648.086 1.991.335 2.511-.116.352-.305.575-.367 1.037-.485l.175-.043.072-.17-.393-.451c-.066.007-.131.022-.197.02-.13-.001-5.105-2.737-5.32-2.916l.02-.199.25-.19c1.464-.302 3.152.646 4.505 1.109 1.053.602 2.189 1.34 3.347 1.708l.118-.143c-.406-.724-1.033-1.328-1.588-1.939-.63.11-1.256.215-1.877.374-.174-.903-.814-1.761-1.19-2.606l1.696.83c-2.225-3.304-2.916-4.538-6.94-5.568-1.295-.332-2.593-.674-3.905-.927-1.31-.254-3.297-.329-4.448-1.004l.036-.186c1.434-.558 3.47-.364 4.653-1.503l.078-.289c-.886-1.124-4.224-1.062-4.975-2.41l.078-.224c.674-.323 1.865-.337 2.57-.118.957.296 3.652 2.058 4.393 1.766-.008-.313.051-.2-.156-.407-1.906-1.908-3.002-.331-4.327-3.355.679.552 1.345 1.081 2.089 1.545-1.412-2.272-2.818-4.357-5.575-5.009-2.015-.476-10.894-.842-11.737-1.247.522-.594 2.61-.976 3.425-1.162.31-.48.605-.91 1.001-1.327l1.7-.19c-1.1-.157-2.162-.444-3.25-.611-1.07-.165-2.203-.163-3.252-.412-.25-.06-.419-.13-.614-.305.051-.245-.01-.165.202-.31.786-.538 2.868-.794 3.81-.59.829.178 1.749.812 2.398 1.326.352-.039.698-.08 1.047-.15l-.069.032.075-.268c-1.018-.648-2.414-.628-3.106-1.02-.382-.216-1.269-1.31-1.401-1.71-.013-.039-.018-.08-.027-.121.496.129.824.489 1.35.572l.088-.124c-1.196-1.491-3.775-2.767-5.681-2.984-3.435-.392-7.003.402-10.432.537 1.792-.888 3.026-2.169 4.63-3.31l-.033-.14c-2.565-.471-4.809-.01-7.25-.276q-.1-.012-.199-.02c.5-.498.997-.933 1.565-1.352.42-.022.996.027 1.346-.224q-.217-.234-.425-.475c.501-.241 1.909.136 2.131-.304-.607-.519-1.43-.758-2.126-1.142-2.371-1.307-2.346-1.792-5.28-1.559-3.362.268-6.542 1.44-9.884 1.714 1.392-1.268 2.944-2.443 4.677-3.201l.513-.227-1.39-.064a1.15 1.15 0 0 0-.55.103c-.989.4-2.959.084-3.953-.294a2 2 0 0 1-.428-.235l-.025-.201c.712-.577 3.202-.773 4.126-.688 1.019.093 2.54.661 3.477.052.177-.115.12-.097.18-.337-.24-.284-.447-.366-.82-.401-.798-.076-1.616.361-2.464.38-.712-.413-1.645-1.153-2.51-.893-.247.075-.483.208-.71.33-2.002-.66-4.17-1.276-6.271-1.473l51.333 81.569 17.351 27.045c2.82 4.343 5.794 8.565 8.472 13 .293-.728.595-1.451.824-2.203-1.148-3.661-3.326-6.82-5.38-10.02 1.187.695 1.996 1.52 2.93 2.523.6.042 1.715-.025 2.154.43.036.036.065.08.096.12l-.047.174c-.325.094-.538.082-.743.366.031.382.11.533.31.843.318.042.291-.01.542-.178.185.372.264.958.543 1.222-.232.11-.251.125-.393.32.02.726.471 1.402.79 2.042l.496-.88c.087-.493.233-1.053.085-1.54l-.317.001c-.21-.205.135-.452.087-.78l-.134-.004c-.137.273-.251.547-.488.75-.039.035-.084.061-.126.091a10 10 0 0 1-.075-.71c.171-.287.154-.322.466-.42.26-.407-3.481-6.921-3.433-8.142.01-.244-.01-.149.209-.336.28.006.48.109.714.255.873.548 1.538 1.542 1.764 2.537.058.26.084.435.243.655.337-.082.675-.1 1.019-.125.241-.371-.067-1.144.047-1.655.357-.298.422.173.839.072.47-1.444.278-3.251.603-4.79-1.136-1.989-2.666-3.778-4.33-5.344-1.076-1.014-2.247-1.957-3.11-3.168 1.473.546 2.861 1.352 4.196 2.172.452-.009 1.057.045 1.397-.312.124-.13.122-.307.095-.478-.066-.419-.512-.731-.807-.993-.961-1.54-1.945-3.154-3.14-4.523.534-.14 1.082-.24 1.622-.355.778 1.187 1.789 2.194 2.532 3.419.29-1.617-.021-2.709-.201-4.29.563.906 1.027 1.877 1.457 2.852-.472-1.92-.506-4.086-1.125-5.928-.958-2.847-6.457-5.43-8.688-7.579l-.13-.127c2.759.516 5.54 1.573 7.501 3.631.367.385.84 1.186 1.324 1.374.075-.114.093-.125.13-.278.301-1.226-1.457-2.774-2.1-3.72-.244.337-.45.624-.867.753-.349.107-.424.08-.716-.09-.15-.3-.184-.492-.196-.827.211-.269.515-.222.844-.268-.017-.16 0-.304-.099-.437-.263-.357-.741-.623-1.07-.93a266 266 0 0 1-3.837-3.662c.285-.218.717-.186 1.062-.172 1.661.066 3.23 2.02 4.271 3.144-.297-1.249-1.133-2.325-1.325-3.57l.133-.028c.518.473.907 1.038 1.321 1.601-.573-1.557-1.1-4.647-1.82-5.832-1.55-2.55-9.446-5.21-9.926-6.207l.154-.154c1.36.251 2.675.372 4.052.476.193.153.338.264.573.341.45-.22.906-.392 1.377-.561-2.27-1.19-4.056-3.028-5.969-4.714.768-.066 1.536-.052 2.306-.048 1.982 1.224 3.753 2.773 5.747 3.988-.355-.636-.756-1.217-1.179-1.809l-1.994-.674a33 33 0 0 1-.816-2.64c.699.731 1.37 1.451 2.199 2.038-.472-1.06-1.008-2.04-1.594-3.04m-139.156.1c5.484 2.378 10.916 4.943 16.357 7.424 1.858.847 3.658 1.97 5.577 2.66l.075.035-.075-.034c-.705-1.438-.884-2.394-.69-3.969-.62-.344-1.204-.748-1.69-1.27-.883-.95-1.116-2.052-1.043-3.31-2.112-1.269-4.124-2.824-6.174-4.206-2.269-1.53-5.46-3.372-7.404-5.157 1.83-3.577 5.111-7.052 6.562-10.628l-.57-1.584c-1.087 1.508-2.024 3.141-3.014 4.714l-6.231 9.984-19.722 31.228L33.36 158.62c-6.778 10.244-13.733 20.379-20.31 30.757l36.433.114c6.845.03 13.778-.248 20.608.145q-1.134-.748-2.258-1.51c-5.653-.13-11.326-.011-16.98-.041l-34.989-.238c.72-1.538 1.747-2.98 2.666-4.406q2.825-4.362 5.77-8.644c4.483-6.662 8.82-13.416 13.351-20.047 1.471 1.245 3.25 2.329 5.218 2.473 2.789.204 5.178-1.27 7.228-2.994 2.25 1.375 4.705 2.985 7.434 3.01 2.546.023 4.495-1.01 6.285-2.752 1.881 1.389 4.222 2.541 6.589 2.686 2.722.166 5.028-.971 7.017-2.747 1.742 1.565 4.425 2.676 6.769 2.742 2.743.076 4.735-1.026 6.683-2.857 2.129 1.259 4.376 2.588 6.888 2.83 2.904.279 5.233-1.133 7.377-2.92 2.07 1.423 4.84 2.804 7.388 2.943 2.693.146 4.872-1.136 6.801-2.88 2.41 1.32 5.053 2.973 7.89 2.942 2.48-.027 4.655-1.115 6.365-2.863 2.202 1.22 4.542 2.535 7.073 2.867 2.713.166 4.963-1.221 7.026-2.818 3.36 1.761 6.824 3.607 10.716 2.45.29-.268.01-.424.14-.85-.21-.375-.868-.162-1.256-.119-3.389.38-6.783-.19-9.617-2.19l-.15-.106c-1.353 1.016-2.825 1.725-4.484 2.088-3.453.757-6.75-.21-9.687-2.065-1.149.823-2.37 1.49-3.736 1.88-3.78 1.08-7.155.046-10.464-1.823-1.282.873-2.603 1.584-4.129 1.926-3.564.798-7.226-.085-10.274-2.01-1.972 1.468-4.127 2.263-6.596 2.282-2.357.019-5.54-.602-7.28-2.297-1.714 1.183-3.397 2.078-5.498 2.303-2.931.315-5.84-.394-8.137-2.26-1.525 1.116-3.042 1.937-4.936 2.21-3.122.452-6.15-.231-8.678-2.121-1.186.95-2.446 1.65-3.938 1.992-3.434.785-6.963-.345-9.875-2.147-1.178.82-2.356 1.529-3.745 1.933-2.61.76-5.846.397-8.22-.924 1.958-3.205 4.039-6.296 6.095-9.435l8.939-13.749c1.933 1.526 4.916 3.195 7.455 3.171 2.622-.024 4.844-1.249 6.634-3.098 2.042 1.566 5.023 3.291 7.681 3.193 2.486-.093 4.472-1.611 6.111-3.337 1.93 1.38 3.704 2.36 6.035 2.87 1.125-.399 2.196-.98 3.308-1.427-3.556.144-6.316-.118-9.498-1.81-.71.357-1.419.692-2.155.994 2.372-1.509 4.815-2.85 7.245-4.257l12.185-7.202c2.993-1.792 5.994-3.509 8.88-5.477-.688-.724-1.172-1.398-1.565-2.31-9.584 2.88-19.215 5.596-28.782 8.54l-13.565 4.127c-2.496.745-5.013 1.597-7.56 2.143 3.833-5.734 7.522-11.579 11.258-17.375 3.383-.092 6.789-.004 10.174.003l18.464-.022c3.303-.018 6.62.002 9.919-.165l-.096-.11c-1.07-1.24-1.3-2.165-1.181-3.757-1.994-.136-3.986-.536-5.955-.872q-3.484-.597-6.98-1.13l-11.41-1.734c-2.462-.361-4.942-.657-7.387-1.117 2.437-4.096 5.124-8.054 7.637-12.106m60.813 26.259c-.336.349-.674.58-1.085.834.256.006.588.138.85.195.108.023.214.054.32.083-.576.443-1.017.855-1.798.73-.36-.056-.747-.133-1.038-.361.082-.26.005-.172.251-.3.524-.271 1.205-.38 1.778-.524-.304-.025-.607-.054-.911-.076-.35-.025-.573-.16-.863-.338l-.153-.241c.125-.456.567-.772.976-.995.581-.316 1.397-.187 1.922-.558-.28-.215-.467-.16-.801-.113-1.29.181-2.452.81-3.623 1.345-.813.371-1.666.663-2.461 1.069-.825.421-1.582.963-2.384 1.427-2.005 1.162-4.147 2.33-6.236 3.335-3.534 1.7-7.22 2.806-11.007 3.771l-.072.136.115.284c-.216.099-.113.101-.285.044-.373-.124-.637-.21-1.014-.023-2.005 1.001-7.86 6.406-8.384 8.429a.9.9 0 0 0-.015.39l.127.04q.24.076.478.162l.04.254-.416.394c.033.313.115.428.375.616.642.467 1.676.616 2.443.767 4.285.848 8.298.612 12.543-.326 1.224-.27 2.664-.504 3.733-1.169l.075-.139-.065-.205.168.008c.24.008.145.012.38-.024-.178-.257-.542-.655-.556-.954.563.227 1.01.545 1.53.843 1.989-.183 6.957-1.339 8.266-2.87l.069-.084-.04.277.259-.197.21.051q2.113-.903 4.136-1.991c1.585-.869 8.78-5.249 9.325-6.5.248-.57-.516-.492.361-1.148.346-.023.533.1.822.263.327-.176.494-.288.726-.592l-.013-.188c-.412-.067-1.11.28-1.374-.092-.154-.217-.21-.437-.29-.687a1.8 1.8 0 0 0-.25.526c-.117.352-.254.54-.606.695-.322.142-.872.179-1.197.05l-.017-.223c.241-.271 1.037-.834 1.099-1.093a5.3 5.3 0 0 0-1.006.325c-.129-.167-.2-.31-.276-.507q-1.232.335-2.45.72c-.124.278-.187.543-.257.839-.224.242-.284.326-.638.353-.365.027-.752-.125-1.06-.305l-.04-.227c.592-.778 1.865-.778 2.394-1.515l-.055-.169c-.73-.268-1.09-.182-1.794.085-.106.04-.214.071-.323.103-.291-.238-.528-.434-.73-.76l.073-.2c1.367-.58 1.804 1.015 3.24-.554.188-.083.095-.024.268-.195a13 13 0 0 0-.906-1.025c-.548.366-1.122.77-1.76.96-.33.097-.552.169-.852-.005l-.056-.412.192-.2c.114.02.283.052.395.053.416.004.519-.147.814-.395a7.5 7.5 0 0 0-1.209.343l-.192.2c-.349.06-.7.054-1.019-.106l-.012-.218c.147-.217.27-.406.488-.56.44-.31.823-.184 1.304-.068.25.06.111.071.386-.085.157-.349.183-.577.2-.951l-.126-.073c-.365.198-.659.379-1.085.403-.303-.275-.266-.466-.332-.861.325-.217.48-.31.883-.343l.215.106-.025-.314c.041-.216.05-.105-.051-.33-.08.022-.161.035-.238.066-.356.14-.62.486-.784.815m6.274 4.092c-.31.07-.47.037-.667.312q-.006.012-.007.025c.385-.041.39-.068.674-.337l.052-.061zm-4.623 1.978-.063.18zl.185-.055zm-47.169 9.002-.118.046zc.933-.252 1.878-.754 2.776-1.134 2.776-1.177 5.492-2.553 8.331-3.572.747-1.013 2.97-3.609 3.015-4.69.016-.377-.223-.557-.447-.818l-.9-.725c-2.957 2.448-5.743 5.126-8.65 7.636-1.328 1.145-2.87 2.091-4.125 3.303m38.919 4.732c-.681.411-1.563 1.21-1.77 2.006.658-.536 1.405-1.229 1.77-2.006l.058-.053zm10.628 1.457c-.849.913-1.944 2.525-2.282 3.738.96-.813 1.905-2.542 2.282-3.738l.057-.134zm24.43 2.299c.551.87 1.257 2.457 2.343 2.674.38.076.81.084 1.135-.152.2-.145.283-.411.288-.651.05-2.032-2.832-6.429-4.308-7.829q-.301-.285-.617-.553c.31 1.187 1.043 4.257.823 5.446l-.042-.117c-1.106-2.568-2.29-4.771-4.155-6.88.007 2.86-.377 6.815 1.827 9.049.58.587 1.313.977 2.142 1.033.272-.157.396-.257.476-.576.112-.446.089-.984.088-1.444m10.407 9.316.096.249.073.252c.234 1.133.859 2.471 1.739 3.242-.278-.857-1.198-2.47-1.739-3.242l-.073-.252zm-31.591.605c-3.772.87-8.906-.452-12.233-2.317-2.805 1.825-6.23 2.284-9.487 1.59-1.65-.351-3.1-1.044-4.589-1.813-2.837 1.883-6.113 2.613-9.478 1.942-1.987-.396-3.585-1.393-5.448-2.058.623.49 1.24.954 1.91 1.379 2.613 1.5 5.489 2.861 8.558 2.037 1.783-.478 3.24-1.584 4.661-2.716 2.825 1.792 6.43 3.38 9.838 2.595q.298-.066.59-.151.293-.087.579-.193.285-.106.563-.231.278-.126.546-.27t.526-.308.503-.343.479-.377.451-.41c3.36 1.6 7.057 3.627 10.86 2.267.418-.15.834-.333 1.171-.624l.049-.08zm26.968.395.063.14c.013.898.389 1.929.96 2.617-.21-.876-.491-1.846-.96-2.617zm-3.374 28.287c-1.456-2.119-3.37-3.812-4.852-5.885q-1.074.488-2.16.95l3.325 8.5c.508 1.326.912 2.746 1.516 4.029.74-.311 1.502-.602 2.216-.97-.874-1.98-1.886-4.172-2.42-6.267l.088-.053c.515.554.916 1.19 1.402 1.77a52 52 0 0 0 3.416 3.724l2.05-.733q-2.258-6.338-4.817-12.56l-2.216.843c.75 1.962 2.126 4.655 2.452 6.653m-70.644 4.662c.246-.676.477-1.355.811-1.994l-.357 1.477c.64.29 1.314.518 1.972.764a133 133 0 0 1-2.407 10.592l2.38.656.61-2.44q1.036-4.151 1.95-8.33c.669.1 1.343.177 2.015.264l.59-1.951c-1.22-.314-4.993-1.502-6.078-1.463-.401.015-.43.14-.675.431-.227-.565-1.26-1.048-1.805-1.273-.916-.377-1.88-.278-2.774.115-4.935 2.168.662 7.6-.472 9.802-.139.27-.414.518-.71.6-.895.245-1.94-.686-2.608-1.165-.198.747-.356 1.427-.34 2.206a6 6 0 0 0 .46.435c.733.605 1.69 1.072 2.664.944.937-.124 1.952-.629 2.502-1.415.36-.515.534-1.134.62-1.75.368-2.635-1.293-4-1.553-6.305-.049-.431-.008-.934.331-1.247.205-.189.5-.27.773-.276.851-.02 1.543.774 2.101 1.323m10.708 11.208c1.098-1.41 1.84-2.974 2.8-4.466-.053 2.041-.655 5.087-1.08 7.123.882.061 1.733.184 2.604.337.486-4.43 1.506-8.79 1.994-13.219-.805-.187-1.62-.342-2.428-.51-1.033 1.833-2.025 3.715-3.187 5.47q-.332-2.662-.823-5.3c-.049-.184-.063-.435-.21-.565-.528-.47-1.748-.354-2.42-.372-.461 1.502-.63 3.139-.88 4.688-.422 2.625-.832 5.24-1.445 7.83.831.231 1.67.397 2.516.562.166-1.032.85-5.94 1.303-6.468.626.553 1.057 3.894 1.256 4.89m85.736 9.412-.065.05zc1.446-.717 7.748-7.227 9.268-8.785-3.546.176-7.129.025-10.678-.001q-6.2-.032-12.4.047c-2.09.006-5.163-.333-7.113-.021-1.501.24-4.617 2.003-6.204 2.666q-3.622 1.502-7.352 2.712-2.783.878-5.606 1.622-2.822.743-5.677 1.35t-5.736 1.077q-2.88.47-5.78.8c-3.199.35-6.409.457-9.611.744.78 2.871 1.247 5.796 1.831 8.709.546 2.723 1.236 5.49 1.542 8.249 4.582-.795 9.178-1.512 13.754-2.34q3.498-.636 7.013-1.17c.992-.156 2.04-.446 3.042-.443l.106.14c-.9 1.044-2.721 1.724-3.909 2.451-3.25 1.99-6.435 4.05-9.745 5.946-1.21.694-2.471 1.538-3.793 1.983-2.162.728-6.195.985-8.583 1.295 1.7.602 3.371 1.05 4.96 1.934l.437.256c.56.015 4.176-2.691 5.182-3.145 1.577-.711 3.548-.878 5.236-1.272.254-.059.508-.088.71-.268.136-.12.083-.207.075-.369l-.246-.133c-.261.019-.425.04-.68-.035 1.476-1.194 3.293-1.96 4.777-3.192.916-.76 2.394-2.92 3.508-3.099.189-.03.151.014.322.165.157.57.03 1.138-.044 1.715 1.108-1.316 2.21-2.522 3.773-3.312.376-.19.819-.424 1.231-.288.227 1.815-3.468 3.143-4.217 4.599l.145.152c1.505.081 6.27-1.387 7.764-2.057 1.366-2.215 2.506-3.207 3.587-5.784a20 20 0 0 1 2.724-1.471c-.37 1.11-1.033 2.054-1.493 3.122-.17.394-.33.757-.164 1.179.944.336 3.598-4.547 4.836-4.82.293-.065.344-.051.58.099.163 1.398-2.355 3.346-2.166 4.499l.207.079c1.196-.226 3.438-1.346 4.559-1.964 3.147-1.734 4.497-4.942 5.472-8.228.768-.604 1.542-.919 2.449-1.252-.518 1.169-1.75 3.422-1.663 4.666l.189-.013c1.531-1.382 2.65-3.9 3.87-5.62.305-.09.248-.063.513.052.482.939-1.202 4.222-1.551 5.317 1.639-1.318 3.49-2.387 5.098-3.72 1.672-1.386 1.96-3.249 2.163-5.285l.234-.116c.259-.578.09-1.865.138-2.544.05-.72.055-1.067.61-1.544l-.134-.08-.174.126.364.019c.661 1.017 1.04 3.56.915 4.792-.26.24-.379.216-.722.264a12 12 0 0 1-.2 1.62l-.03.142c.347-.081.733-.563 1-.819.365-1.493 1.038-5 1.685-6.152.227-.405.51-.956.99-1.089.257.176.301.2.364.527.018.096-.483 3.794-.526 3.907-.072.187-.227.357-.355.508-.245.292-.46.583-.671.9m2.85.073c-.672.29-1.518 1.107-1.992 1.667l-.033.052c-1.238.5-2.593 1.377-3.435 2.422 1.357-.024 2.165-.681 3.17-1.53.102-.299.201-.583.265-.892l.033-.052.131-.036c.927-.264 1.406-.803 1.86-1.631.147.033.29.109.439.099.498-.034 1.933-.96 2.513-1.193.461-.185.967-.283 1.454-.376-1.705 2.623-4.95 3.48-5.724 4.65.909.448 3.796-1.422 4.625.238-.078.29 0 .213-.229.357-.962.602-2.688.685-3.803.925-1.123.241-2.223.588-3.34.855-.959.23-1.985.34-2.916.661-1.327.457-2.579 1.366-3.757 2.117-.727.463-1.804 1.083-2.033 1.966-.047.18-.07.371-.097.554l-.383-.734-.186-.025c-.176.189-.356.374-.523.57l.067.439c.203.094.195.144.424.064s.4-.184.6-.314l.123-.07c1.307-.738 3.659-1.956 5.168-1.871l.139.143c-.426 1.269-4.272 2.991-5.552 3.65-.357-.077-.73-.202-1.095-.125l-.189.181-.002.169.636.381q.094-.036.19-.07c1.138-.402 2.895-.6 4.005-.008.273.146.314.25.453.513-.071.256 0 .192-.213.304-.288.151-.642.192-.96.217-.898.07-1.811-.033-2.712 0-1.603.06-3.208.275-4.806.411-.939.08-1.897.055-2.83.179-1.693.225-6.465 2.568-7.154 2.545-.11-.004-.209-.069-.313-.102l-.044-.192.044.191c-.07.286-.006.264-.285.44-1.52.959-4.55 1.635-6.374 2.38q1.223.09 2.448.15l.132-.125c.27-.25.548-.516.887-.67 1.335-.601 7.121-2.445 8.437-2.368.29.017.382.047.605.215-.179.672-1.059 1.129-1.641 1.472-1.266.746-2.776.688-4.052 1.3-.033.36-.012.517.148.84l.153.109c.357-.34.014-.625.504-.853.923.072 2.608.62 3.38 1.143l.081.172c-.428.47-1.034.51-1.649.537-2.67.114-5.414-.176-8.091-.206-1.66-.019-3.312.207-4.97.17 1.377-.598 2.75-1.184 4.081-1.881-1.938.35-3.73 1.223-5.634 1.714-1.53.395-3.336.458-4.796 1.008.015.288.224.47.393.7 1.065.449 5.321-1.712 5.696-.817-.231.674-1.124 1.223-1.746 1.534-.716.358-1.94.62-2.524 1.103.15.128.059.089.236.107 1.004.101 3.188.727 3.794 1.56.11.153.086.24.096.418-.255.293-.483.305-.871.346-1.278.131-1.867-.446-2.883-.511-.836-.054-1.676.199-2.513.1-3.54-.42-5.025-1.413-8.888-1.142-.991.069-1.947.176-2.875.558-1.842.757-3.56 1.978-5.357 2.871 1.28 4.388 2.915 8.708 3.913 13.17-2.944-3.107-6.221-7.95-8.747-11.5-1.054-1.48-2.067-3.072-3.277-4.428-1.128 2.373-1.338 5.457-1.21 8.05-2.072 2.03-4.462 3.763-6.721 5.58-3.138 2.526-6.184 5.19-8.955 8.115-1.083 1.142-2.221 2.277-3.078 3.602q7.877-6.915 16.111-13.4c1.667.297 3.49.133 5.18.09l10.153 9.363c.946.86 1.963 2.105 3.054 2.727l.094.105.08.085-.08-.085-.094-.105c-1.331-3.032-12.214-13.164-15.293-16.258.034-2.352.326-4.69.473-7.037.274.873.524 1.737.628 2.649.129 1.134.029 2.476.433 3.543.503 1.327 2.227 2.81 3.173 3.886q3.099 3.526 6.255 7.001c1.508 1.668 3.055 3.296 4.437 5.071-.525-1.588-1.079-3.18-1.51-4.796-.689-2.583-1.18-5.092-2.073-7.632q4.147-.447 8.254-1.17c2.018 1.44 4.245 3.32 6.415 4.448 3.456 1.798 4.746-1.59 6.18-4.03.834-1.418 1.874-2.997 3.167-4.042 1.335-1.079 3.548-1.5 5.165-2.007.852.23 1.686.48 2.499.827 1.845.79 4.51 2.62 6.57 2.055 2.062-.565 2.672-4.07 3.328-5.827.367-.984.813-1.972 1.366-2.866.786-1.27 2.002-1.637 3.254-2.299.939-.496 1.812-1.272 2.834-1.595 3.022-.957 6.064 1.811 8.984 1.053 3.624-.94 2.261-7.69 4.036-10.369.547-.826 1.49-1.503 2.251-2.127 3.126-2.564 4.514-2.032 8.233-1.755.822.062 1.66.107 2.47-.089 4.247-1.027 1.212-7.584 2.282-10.758.426-1.263 3.14-4.262 4.03-5.674l-1.923-.009c-.36.55-.769 1.067-1.176 1.582-4.696 5.948-10.172 11.394-15.958 16.276q-1.335 1.138-2.703 2.234-1.369 1.096-2.77 2.15t-2.835 2.063-2.898 1.975-2.957 1.885-3.013 1.793-3.067 1.699-3.118 1.604q-1.572.778-3.166 1.507-1.595.73-3.211 1.41t-3.253 1.31q-1.636.629-3.291 1.208t-3.327 1.107-3.36 1.004q-1.687.476-3.389.9t-3.415.795c-4.244.908-8.536 1.488-12.842 1.993-.225-.6-.39-1.23-.577-1.843 1.917-.396 3.948-.533 5.89-.809q1.108-.162 2.211-.347 1.104-.185 2.204-.392t2.195-.436 2.186-.48 2.177-.524 2.165-.567 2.153-.61 2.141-.654 2.127-.696 2.113-.739 2.097-.781 2.082-.823 2.065-.864 2.046-.906 2.029-.946 2.008-.987 1.989-1.028q.99-.523 1.968-1.066.978-.544 1.946-1.107.967-.562 1.923-1.144t1.9-1.183q.944-.602 1.876-1.221t1.85-1.259q.92-.638 1.826-1.295t1.8-1.332q.892-.674 1.771-1.367.88-.692 1.744-1.403.865-.71 1.716-1.437t1.687-1.471 1.657-1.505q.82-.76 1.626-1.538.805-.777 1.595-1.57c3.204-3.194 6.372-6.54 9.093-10.162l-8.864-.007c-2.558 3.212-5.868 6.06-8.947 8.769m-96.285 21.483.058.181.234.094.05.115c.174.37.453.769.68 1.113.28.424.56.484 1.026.577-.413-.754-1.027-1.196-1.706-1.69l-.05-.115-.234-.094zm8.283 27.177-.051.065zc1.235-1.17 2.47-2.363 3.588-3.647 1.972-2.263 12.608-15.625 12.952-17.444-1.17.215-6.26 2.748-7.394 3.418-1.622 2.832-3.076 5.792-4.619 8.671-1.564 2.92-3.398 5.883-4.527 9.002M127.895 9.84q-7.966 12.612-16.108 25.112c-1.368 2.122-3.806 6.832-5.437 8.327l-.334.308c.025.381.252.566.477.865.38-.484 1.051-1.644 1.607-1.798.403.108.635.286.84.645.313.547.44 1.297.259 1.908a1.45 1.45 0 0 1-.715.875c-.79.422-2.043.273-2.856-.013-1.006-.355-1.451-1.125-1.863-2.048l-.07-.152c-.384 1.937-1.532 3.548-2.346 5.313l1.624.733q.716-1.447 1.499-2.859c1.214 3.891 2.158 8.157 4.286 11.667 1.217 2.009 2.783 3.812 4.274 5.62 1.49 1.806 2.901 3.606 4.686 5.138-1.802-7.479-3.218-15.062-4.715-22.608-.56-2.83-1.031-5.705-1.691-8.512 3.555-5.53 6.988-11.184 10.647-16.64.25 2.79.316 5.6.444 8.397q.341 6.319.57 12.642l.95 21c.164 3.941.162 7.914.485 11.843 1.358 1.84 2.711 3.656 3.986 5.556q.939-7.856 1.594-15.741l2.696-30.113q.355-3.486.615-6.981c.155-2.124.247-4.291.58-6.395 1.917 2.85 3.732 5.777 5.569 8.68 1.677 2.65 3.392 5.281 4.957 7.999-.784 2.813-1.344 5.7-2.1 8.527q-3.68 13.505-7.612 26.939c-1.153 3.881-2.2 7.865-3.59 11.667.649 1.447 1.351 2.887 2.175 4.245l17.327-41.45c2.531 4.018 5.084 8.041 7.516 12.12-5.137 7.983-10.69 15.712-16.19 23.449-2.356 3.314-4.865 6.594-7.087 9.995.489.945.95 1.872 1.329 2.866q13.994-13.55 27.702-27.39c2.456 3.825 4.802 7.734 7.324 11.513-2.97 2.03-6.164 3.801-9.261 5.631-3.532 2.087-7.019 4.24-10.567 6.3-4.466 2.591-9.052 5.132-13.379 7.946.364.741.768 1.486 1.058 2.258 8.464-3.346 16.864-6.876 25.299-10.3 3.784-1.535 7.6-3.32 11.475-4.595 2.934 4.653 5.722 9.516 8.883 14.012-3.613.264-7.26.92-10.857 1.365l-8.301 1.107c-1.525.199-3.114.293-4.62.586-2.197-1.32-4.6-1.887-7.131-1.274-2.246.545-3.86 2.04-5.936 2.871-2.416.968-4.783.827-6.976 2.412-2.553-4.015-4.433-8.422-6.355-12.761-1.98-4.47-3.974-8.867-6.467-13.078-1.364-2.304-2.902-4.666-4.754-6.61-1.4-1.47-3.078-2.698-4.69-3.924-1.213-.922-2.937-2.545-4.436-2.852-.344-.07-.703-.04-1.013.138a.93.93 0 0 0-.465.71c-.181 1.5 2.013 2.802 2.106 3.32.018.099-.125.155-.187.232-.434.143-1.35.056-1.61.347.004.478-.162 1.041-.115 1.473.106.97 1.271 2.215 1.95 2.876q.176.17.359.334c-.511.075-1.041.109-1.365.572-.267.383-.258.87-.126 1.298.345 1.122 1.293 2.087 2.12 2.873-.446.293-.913.565-1.03 1.132q-.12.575.208 1.066c.484.72 1.269 1.194 1.576 2.033-.242.245-.04.075-.297.218-.359.199-.519.638-.591 1.023a1.92 1.92 0 0 0 .271 1.413c.377.561 1.74 1.039 1.52 1.819-.168.597-.696 1.097-.512 1.77.188.69 1.028 1.181 1.632 1.442q.063.028.127.054c-.53.793-1.014 1.557-.841 2.562.098.568.464 1.092.939 1.413.267.181.541.294.846.393-.48.804-1.097 1.736-.876 2.722.105.468.448.875.865 1.102.302.165.657.256.989.333-.371.945-.974 2.282-.539 3.283q.034.077.075.15.041.074.09.142t.105.131.118.119.13.106q.069.049.142.09.073.042.15.076t.157.059c.308.098.639.126.959.16-.551.683-1.153 1.368-1.057 2.316.043.425.269.737.596.987.278.212.592.337.912.47l.392.164.074.128c-.375.773-.739 1.475-.876 2.332-.025.157-.051.31-.072.468.588 1.184 1.133 2.425 1.877 3.52 2.685-1.34 5.15-3.336 7.557-5.113-2.22.854-4.476 1.79-6.569 2.926-.397.215-.8.524-1.254.58l-.197-.094c-.079-.414.045-.62.276-.964 1.962-2.921 5.267-4.43 7.31-7.118-1.092.205-6.045 1.758-6.718 1.639l-.042-.233c.971-1.197 3.403-2.64 4.684-3.574q1.638-1.196 3.132-2.567c-1.871.183-3.935.407-5.751.888-1.234.327-2.59 1.052-3.85 1.14l-.157-.139c.381-1.146 4.947-3.103 6.19-3.818q1.301-.734 2.442-1.7c-3.572-.063-6.864.529-10.383.98 1.79-1.205 3.837-1.643 5.812-2.45 1.258-.515 2.43-1.23 3.606-1.908-3.844-.788-6.333-.569-10.133-.225 3.542-2.026 5.877-1.391 9.2-2.615-3.47-1.283-6.213-1.721-9.878-2.026.891-.353 1.685-.6 2.643-.7 1.571-.163 4.319.308 5.619-.395l.038-.169c-1.449-1.113-5.088-2.093-6.921-2.468-.825-.169-1.686-.2-2.503-.387-.211-.048-.274-.048-.42-.216 1.781-1.049 8.006.995 9.325.08-2.176-1.504-4.555-2.688-7.118-3.362-1.207-.318-2.445-.52-3.646-.844 1.543-.177 3.077-.212 4.61.08 1.69.328 3.392.655 4.97 1.368-2.58-3.398-6.33-4.192-9.757-6.383 2.82.224 5.6 1.471 8.118 2.703-1.543-2.651-4.13-4.584-6.563-6.376-.947-.698-1.954-1.358-2.757-2.226 2.737.555 4.73 2.07 6.963 3.657-.6-.612-1.232-1.213-1.787-1.866 1.002.453 1.819.947 2.62 1.706 4.388 4.157 9.098 15.076 11.595 20.802 1.95 4.469 3.574 9.216 6.759 12.993 5.142-1.042 10.994-6.7 15.961-5.987 1.421.205 2.734.88 4.073 1.362 1.74.625 3.569.796 5.167 1.818 1.499.958 1.943 2.28 2.411 3.892-.852-.786-1.684-1.625-2.588-2.35 1.25 2.618 1.805 5.016 2.085 7.887.576-2.11 1.02-4.025.678-6.228 5.165.243 10.34.254 15.506.412 2.174.066 4.385.062 6.549.279 2.089 2.91 3.881 6.052 5.762 9.099 1.946 3.152 3.988 6.247 5.883 9.431-5.281-1.251-10.488-2.88-15.686-4.443-4.427-1.332-8.875-2.587-13.274-4.008q-5.508-1.802-11.054-3.484c-2.04-.617-4.11-1.333-6.212-1.708-1.074.775-1.78 1.885-2.542 2.947q3.97 2.215 7.834 4.607l7.99 5.034c1.698 1.072 4.359 3.12 6.22 3.627 1.142.311 3.024-.01 4.163-.317 1.537-.413 2.944-1.342 4.508-1.603 1.986-.333 3.35.903 5.102 1.509 1.052.364 2.176.487 3.285.448 1.586-.055 2.983-.449 4.429-1.083.945-.415 1.864-.913 2.901-1.044.944-.118 1.94.268 2.899.305l-.04-.036c.326.462.661.92.977 1.39-.876-.373-2.454-1.258-3.384-1.077-.06.012-.112.051-.168.077.159.138.175.207.389.219.933.05 3.564 1.739 4.206 2.467 1.313 1.487 2.615 4.09 3.73 5.826-3.841.569-5.837-.227-9.309-1.73-3.984 1.963-7.788 2.749-12.135 1.271-.986-.335-1.906-.795-2.818-1.292-.974.464-1.97.903-2.924 1.404-2.46-1.857-4.889-3.792-7.413-5.556-4.813-3.365-9.806-6.386-14.828-9.418-2.114-1.276-4.51-3.014-6.768-3.96l-.26.1-.084.266c.785.924 3.623 2.243 4.776 2.942l9.775 5.989q5.864 3.565 11.284 7.776c2.379 1.845 4.632 3.876 7.075 5.634l.15-.003c-.693-1.385-2.235-2.397-3.345-3.455a22 22 0 0 0 2.744-1.166c2.78 1.812 5.852 3.207 9.244 2.514 2.075-.423 3.92-1.535 5.708-2.622 2.739 1.774 5.416 3.14 8.78 2.45.267-.055.48-.18.713-.316 1.336 1.121 3.119 4.477 4.168 6.073-4.464 1.258-8.546 1.451-12.712-.917q-.13-.075-.254-.155c-3.194 1.705-5.549 2.042-9.146 1.742.45.683.744 1.159 1.6 1.346 2.349.513 5.444-1.173 7.33-2.434l.139-.093c3.13 1.76 6.153 3.421 9.832 2.37 1.22-.35 2.337-.949 3.381-1.661 1.421 2.27 2.871 4.528 4.259 6.82-3.694 1.77-6.143 2.023-10.145 1.035-.748-.185-3.095-1.077-3.61-1.096-.25-.01-.596.123-.792.272l-.02.178c.231.054.34.025.573 0 .897-.097 1.728.504 2.498.914 4.389 2.34 7.7 1.793 11.73-1.037l10.886 16.66c3.571 5.425 7.254 10.843 10.572 16.425-3.106-.15-6.255-.038-9.364-.034l-14.18-.036-19.619-.016c-3.316-.003-6.65-.096-9.963-.01-.83.57-1.657 1.132-2.525 1.644l58.532.137-39.04-60.06zm14.56 4.172c-1.503.48-2.598 1.39-3.804 2.367l.76 1.069c.749-.603 2.312-2.117 3.273-2.048 1.206.087 4.072 4.674 4.834 5.801-2.22-.352-4.474-.63-6.683-1.05.466.63.88 1.26 1.267 1.94 5.826.59 11.526 2.047 17.111 3.761q1.674.52 3.332 1.09t3.298 1.192 3.258 1.293q1.62.672 3.218 1.393 1.598.72 3.174 1.49t3.126 1.588 3.076 1.683 3.022 1.777q1.498.911 2.966 1.868 1.47.958 2.908 1.96 1.439 1.002 2.846 2.047t2.782 2.134 2.715 2.219 2.646 2.3 2.573 2.382 2.5 2.459c3.038 3.085 5.85 6.439 8.588 9.792 2.281 2.795 4.283 5.736 6.233 8.767q.847 1.305 1.657 2.633t1.583 2.678 1.506 2.721 1.43 2.763 1.351 2.801q.657 1.41 1.273 2.839.617 1.428 1.192 2.873.576 1.444 1.112 2.905.535 1.46 1.03 2.935.493 1.475.946 2.963t.863 2.989.779 3.011q.368 1.511.694 3.032t.609 3.05.523 3.067.436 3.08q.385 3.441.58 6.899.195 3.457.2 6.92.004 3.463-.181 6.921t-.56 6.901c-.418 4.08-1.297 8.24-2.372 12.196-.751 2.766-1.69 5.543-2.212 8.362l.997 1.59c3.355-1.898 6.772-3.917 9.946-6.102-.628-1.012-1.233-2.05-1.917-3.024-1.243-1.895-2.602-3.796-4.16-5.446l1.106-6.91c1.688-.9 6.822-4.423 7.299-6.103.18-.635-.191-1.374-.525-1.892-1.028-1.595-4.462-4.999-6.012-6.146q.028-3.082-.09-6.161c1.308-1.408 6.553-6.299 6.498-8.053-.023-.75-.58-1.338-1.116-1.8-2.19-1.889-4.858-3.115-6.976-5.155-.671-2.346-1.966-5.069-.67-7.385 1.03-1.844 4.308-5.72 3.798-7.826-.189-.78-.864-1.256-1.53-1.623-2.112-1.163-6.596-2.399-7.88-4.346-.832-1.263-1.306-3.158-1.79-4.592l.038-.176c.61-2.812 2.297-5.395 2.8-8.192.103-.57.1-1.261-.204-1.775-.823-1.396-8.173-2.916-10.22-3.812q-1.445-1.992-2.92-3.963l-.019-.198c-.184-1.99.04-4.057.23-6.04.112-1.156.303-2.373.153-3.533-.073-.564-.232-1.04-.683-1.412-1.752-1.45-7.027-.568-9.447-1.655-.84-.377-1.494-.98-2.127-1.629-1.35-1.386-1.859-2.613-2.115-4.512-.268-1.989-.063-6.954-1.593-8.153-1.974-1.547-8.048.768-10.86-.302-1.02-.389-2.343-1.54-3.169-2.274-2.416-2.144-2.273-9.442-5.109-10.634-.53-.223-1.363-.12-1.918-.03-1.353.216-2.667.719-3.993 1.058-1.391.355-2.818.547-4.234.78-1.755-.797-3.62-1.509-5.31-2.426-.889-1.343-1.61-2.75-2.285-4.208-.544-1.174-1.014-2.528-1.798-3.555-.323-.423-.75-.778-1.282-.888-.472-.097-.968-.015-1.422.13-1.317.419-2.584 1.145-3.847 1.71-1.36.608-2.79 1.096-4.11 1.783q-3.01-.816-6.062-1.46c-1.543-1.862-3.589-5.588-5.26-6.879-.458-.354-.929-.526-1.502-.584zm-30.202.132c-1.937 1.164-4.423 5.188-5.553 7.25a95 95 0 0 1-6.377 1.58c-1.933-1.035-7.197-4.35-9.187-3.674-1.656.563-2.594 3.15-3.255 4.627-.587 1.31-1.09 2.683-1.745 3.959-2.08.941-4.137 1.994-6.237 2.884-2.085-.742-7.547-2.604-9.502-1.598-2.611 1.345-2.42 7.002-4.172 9.237-1.124 1.433-3.262 2.617-4.776 3.633-2.278-.306-8.484-1.462-10.306.025-1.895 1.547-2.072 8.426-2.457 10.922-1.014 1.284-2.259 2.452-3.441 3.582-2.37-.046-7.749-.183-9.514 1.455-.728.676-.899 1.64-.91 2.592-.03 2.681.572 5.427.793 8.103-.943 1.518-2.069 2.909-2.984 4.443-2.066.792-9.01 2.174-9.92 4.206-.839 1.87 1.755 7.639 2.373 9.766-.47 1.354-.97 3.36-1.91 4.459-1.903 2.228-8.94 4.035-9.302 6.924-.1.796.322 1.687.66 2.39 1.065 2.21 2.383 4.286 3.409 6.519-.264 1.406-.401 3.746-1.184 4.901-1.738 2.565-6.056 3.99-7.564 6.298-.5.766-.529 1.496-.005 2.25 1.726 2.483 4.41 4.216 6.13 6.655-.147 2.075-.287 4.16-.284 6.242-1.197.726-6.419 5.991-6.729 7.127-.147.538.054 1.054.342 1.504.968 1.51 5.569 4.572 7.222 5.584.028 2.254.518 4.467.995 6.66-1.574 2.105-3.079 4.213-4.476 6.439-.447.686-.952 1.378-1.324 2.108 3.291 2.032 6.79 3.713 10.07 5.74.388-.588.767-1.184 1.18-1.753-5.283-13.76-6.537-28.549-5.405-43.16.252-3.248.505-6.514 1.09-9.724 1.547-8.489 4.375-17.111 7.881-24.992q.587-1.32 1.206-2.624.62-1.304 1.27-2.592.652-1.288 1.335-2.56t1.398-2.527q.714-1.254 1.46-2.49.745-1.237 1.521-2.454t1.582-2.416 1.641-2.375 1.7-2.334 1.757-2.291 1.813-2.247 1.869-2.2q.948-1.09 1.922-2.155.975-1.065 1.976-2.105t2.027-2.056 2.078-2.005 2.126-1.953 2.174-1.9 2.221-1.844 2.266-1.79q1.145-.88 2.31-1.732t2.352-1.675 2.393-1.615 2.432-1.556 2.47-1.495 2.506-1.433 2.541-1.37 2.575-1.308 2.606-1.243 2.636-1.178 2.664-1.111 2.691-1.046c7.168-2.75 14.92-4.626 22.518-5.732l1.078-1.831q-3.353.48-6.676 1.141c.787-1.363 3.146-5.405 4.575-5.742.819-.194 1.774.542 2.412.995q.644.462 1.276.94l.799-1.019c-1.514-1.187-2.936-2.508-5.007-2.254q-.06.008-.12.019M97.775 31.688h.113zm64.487 1.261c-.098.367-.263.665-.122 1.026.23.11.398.121.651.13.015-.441-.077-.718-.394-1.036-.043-.043-.09-.08-.135-.12m.99 1.357c.073.434.064.86.37 1.186.31.02.525-.023.823-.109a3.44 3.44 0 0 0-1.194-1.077m-67.561 1.12c-.272.2-.499.287-.613.614.374.218.99.161 1.42.214l.315-.084c-.12-.308-.835-.523-1.122-.745m2.005.11-.28.433.05.201c.233.096.45.176.696.233.144-.307.214-.344.122-.666a2 2 0 0 0-.588-.202m65.892 1.086c-.958.425-1.772.82-2.546 1.549l2.148-.335a34 34 0 0 1 2.963-.433c-.9-.541-1.476-.88-2.565-.781m-69.946.751c-.632.22-1.286.416-1.897.687.328.13.68.365 1.035.225.101-.04.288-.162.385-.223.383.142.5.386.732.705.362.141.884.293 1.263.163.194-.066.224-.195.326-.356-.003-.297-.033-.493-.251-.715-.325-.331-1.135-.519-1.593-.486m-15.443 2.6c-1.03 1.463-1.43 3.114-3.016 4.062-.151.35-.472.894-.39 1.266.27-.025.295-.073.51-.218.547-.398 1.191-.775 1.57-1.343a2.1 2.1 0 0 0-.053-.585l.223-.36c.276-.034.47.014.736.084.634-.62.374-1.913.523-2.745zm101.775 2c-.214.166-.481.276-.515.556-.07.591.148 1.066.517 1.515.412.502.886.804 1.459 1.087l.188-.1c-.24-.81-1.239-1.756-1.65-3.058m-98.381-.038c-.224.274-.447.542-.639.84.223.164.44.096.711.087.314-.179.43-.184.561-.531-.216-.276-.296-.28-.633-.396m93.19.775c-.192.08-.702.216-.776.392l.07.199c.877.199 1.785.13 2.676.229l.478.059.024-.097c-.817-.268-1.645-.449-2.436-.783-.011-.004-.024 0-.035.001m-66.74 1.13c-.217.243-.46.387-.448.722l.176.204c.313-.18.361-.176.496-.504-.067-.184-.075-.291-.224-.422m69.657.78q-1.422.76-2.831 1.546l3.1-.239c.635-.021 1.285.008 1.884-.225l-.003.007-.031-.299.103.18c-.03-.042-.053-.089-.089-.126-.217-.229-1.76-.811-2.133-.844m11.641 4.865c.087 1.008.861 1.945 1.642 2.547.1.077.123.087.22.14-.26-.795-.5-2.018-1.291-2.463a3 3 0 0 0-.571-.224m-126.75 2.07-.218.458.13.1.174-.026.2-.151c-.14-.296-.043-.17-.285-.38m130.798.013c-.313.492-.394.827-.232 1.43.214.796 1.013 1.326 1.644 1.778l.15-.16c-.254-.786-.917-2.532-1.562-3.048M62.18 52.939c-.346.576-1.146 1.645-1.078 2.325.268-.009.148.025.363-.085.465-.393 1.316-.965 1.417-1.595.031-.192-.075-.283-.167-.44a2 2 0 0 0-.535-.205m35.838 1.557.082.037zm93.83.151c-.735.242-1.233.205-1.982.1-.367.21-.881.428-1.091.8.461.152 1.823.054 2.8.31 1.032.136 2.054.271 3.069.51-.674-.525-1.946-1.758-2.796-1.72m-126.087.122c-.457.105-.658.091-.986.438-.03.2-.098.286.033.46.196.261.435.349.748.387.446-.206.678-.342.963-.745l.02-.292c-.203-.205-.43-.223-.709-.251-.023-.002-.046.002-.069.003m-1.884.486c-.627.256-1.271.491-1.863.823l-.025.141.06.04c.702-.1 1.471-.093 1.955-.662-.03-.144-.02-.236-.127-.342m138.744 6.295c.025 1.191.561 2.166 1.417 2.978q.043.04.087.076c-.05-.946.046-2.079-.637-2.815a3.1 3.1 0 0 0-.867-.24m-152.684.534c-.355.658-.779 1.172-.55 1.939.102.345.152.717-.056 1.045-.108.17-.327.26-.498.35-.384.934-.471 2.027-.66 3.018.228-.017.198-.035.341-.206 1.131-1.353 1.74-4.214 1.48-5.934-.011-.072-.038-.142-.057-.212m156.253 1.731c-.073.363-.105.522.03.881.174.18.322.333.538.46-.023-.386-.02-.819-.29-1.13-.086-.1-.171-.144-.278-.21m-153.128.133q-.648.928-1.249 1.889l.077.083.072-.043c.476-.294 1.143-.56 1.482-1.007.025-.287-.019-.539-.218-.769-.048-.057-.11-.102-.164-.153m153.476 1.497c-.307.2-.606.339-.724.708.04.933.913 1.53 1.539 2.14l.222.002c.152-.578-.283-1.965-.583-2.489-.146-.255-.178-.297-.454-.361m-5.14.733-.009.124.101-.001.007-.139zm-110.421.541c-.265.282-.572.543-.556.96.012.348.167.771.235 1.12l.446-1.912zm112.064.172-1.9.747c1.367.308 2.708.667 4.014 1.18.491.165.985.356 1.493.464-.93-1.08-2.124-2.194-3.607-2.39m-110.496.696c.13 1.251.237 2.463 1.272 3.32a4.8 4.8 0 0 0 1.534.838c1.302.443 2.734.683 4.08.994 1.835.426 3.69.924 5.544 1.25-1.747-1.105-7.133-2.559-9.361-3.108 2.41.133 4.637.808 6.922 1.543 3.117 1.092 6.043 2.501 9.065 3.816-3.289-2.301-12.038-6.935-15.845-8.153a10.3 10.3 0 0 0-3.211-.5m18.74 8.475h.151zm.248.126h.153zm-14.184 2.18c-.414.577-.583.973-.478 1.69.13.888.5 1.607 1.23 2.144 1.734 1.275 3.89.915 5.892.88 1.087-.018 2.18.019 3.267.044-2.16-.935-4.797-.719-7.054-1.498 2.04-.062 3.863.316 5.832.82 2.347.742 4.71 1.422 7.046 2.195-3.428-2.54-7.766-3.082-11.687-4.457-1.396-.49-2.681-1.261-4.049-1.818m120.164.084c-.017.205.006.632-.067.807-.066.16-.366.424-.488.56-.76.846-.014 1.874.547 2.626l.286.112c.26-.27.265-.532.26-.895-.015-.904-.02-2.303-.412-3.112zm-1.43.318.1.109zM213 80.88c-.37.135-.737.19-.99.498.182.214.332.335.623.377.085.013.304.012.385.014 1.04.033 2.185 1.138 3.186 1.566l.312.13c.073-.23.04-.205-.07-.413-.275-.52-.67-1-1.076-1.428-.814-.184-1.556-.813-2.37-.745m-172.262.465c-.685.639-1.336 1.29-1.734 2.152l.039.242c.369.035.592-.156.916-.322l1.904-.942c-.362-.382-.713-.801-1.125-1.13m58.71 1.728c-.537.881-.861 1.61-.578 2.658.355 1.316 1.614 2.286 2.767 2.904q.337.18.68.349c-.653.485-1.24.932-1.353 1.797-.065.485.123.943.425 1.313.714.875 1.948 1.291 2.953 1.725-.56.809-.94 1.498-1.15 2.476.299 1.154.734 2.01 1.808 2.634.323.188.68.34 1.02.494-.564.906-1.162 1.811-.853 2.936.156.572.552.984 1.066 1.26.284.153.585.276.884.396-.367 1.205-1.44 2.258-.733 3.611.263.504 1 .968 1.544 1.084.158.034.32.055.479.08-.502.891-1.074 1.858-.803 2.922q.029.117.07.231.04.114.092.223.052.11.115.213t.136.2q.073.096.155.184.083.089.174.168t.19.15.203.13c.345.192.891.363 1.279.252 1.546-.443 3.109-1.693 4.544-2.464 1.319-.709 2.733-1.2 4.147-1.68-.945.022-1.871.075-2.808.206-1.764.246-5.188 1.324-6.662.04-.264-.231-.501-.517-.735-.778 4.092-3.38 3.94-2.862 8.873-4.034-2.401-.107-6.677 1.01-8.648.275-.529-.196-.922-.6-1.326-.978.683-.757 1.36-1.447 2.204-2.027 2.161-1.167 4.326-1.356 6.72-1.677-.924-.113-1.82-.178-2.752-.138-1.76.078-5.676.97-6.917-.497-.203-.239-.243-.459-.277-.76.132-.522.384-.76.84-1.025 2.497-1.458 5.325-1.5 8.122-1.544-1.056-.281-2.106-.341-3.194-.36-1.382-.025-6.653.492-7.279-.905-.184-.411-.11-1.069-.1-1.514 3.75-2.06 6.226-1.607 10.31-1.47-4.038-1.458-9.73-.018-12.748-3.255 4.053-2.062 7.901-.454 12.127-.466-3.72-1.424-10.162-1.934-13.105-3.628-.755-.434-1.23-1.189-1.906-1.71m123.61 6.885c-.374.481-.665.76-.572 1.41.022.154.065.305.103.455.02.081.036.164.06.244.07.228.169.337.33.502l.293.038c.184-.534-.046-2.092-.214-2.649M35.947 95.351l-1.39.85.03.123c.077.322.125.536.042.868q-.08.091-.16.186c-.07.09-.134.186-.2.279q.423-.064.842-.152a21 21 0 0 0 2.035-1.29c-.333-.296-.752-.782-1.199-.864m-6.197.207c.055.793.055 3.567.434 4.11l.148-.325c.265-.87.806-2.079.373-2.968-.187-.384-.562-.666-.955-.817m190.657.92-.432.338c.404.336 3.22 2.56 3.51 2.689l.57-.442c-.46-.856-1.857-2.2-2.805-2.462-.274-.075-.561-.099-.843-.123m-186.681.265c-.95.789-1.581 1.473-2.072 2.616l.048.239.132.034 2.06-1.258c-.055-.518-.103-1.014-.086-1.536zm121.634 9.802c-2.843.34-5.627 2.343-8.118 3.668a56 56 0 0 1-4.466 2.115c.746 2.672 2.105 4.14 4.497 5.49 1.209.681 3.07 1.544 4.476 1.218.39-.091.718-.395 1.022-.64 4.337-4.158 6.945-5.085 13.005-5.018-.594-1.91-1.281-3.676-3.145-4.663-1.808-.957-5.227-2.206-7.271-2.17m71.52 3.151c-.219.337-.438.594-.402 1.017.194.336.423.563.7.827l.178.011c.112-.571-.246-1.333-.475-1.855m-202.473.537c-.258.346-.431.482-.457.919.215.278.396.393.692.567.267-.293.292-.272.288-.663a12 12 0 0 0-.523-.823m1.006 1.838c-.223.254-.505.505-.468.868.09.869.662 1.822.877 2.707.395-.505.355-1.354.286-1.963-.059-.522-.172-.984-.431-1.441zm203.944.007c.016 1.154-.078 2.33.509 3.367l.241.123c.077-1.028-.03-2.59-.691-3.423l-.06-.067m-199.755.92c-1.296 1.076-2.236 2.057-2.441 3.82a.86.86 0 0 0 .07.511c.29.008.237.004.452-.145.388-.65.718-1.215 1.301-1.712.168-.143.89-.7.922-.86l-.49-.02c-.012-.245.023-.305.105-.53.125-.338.156-.594.168-.953zm80.503.835c-.602 1.144-1.102 2.073-.705 3.396.142.474.394.939.854 1.165.497.245 1.106.163 1.607-.026 1.306-.493 3.2-2.28 4.557-3.093.98-.55 1.99-.978 3.036-1.39-3.815.315-5.642 2.49-9.35-.052m30.372.299c-.628.449-1.252.93-1.91 1.332l.097.172c.766-.292 1.382-.57 1.882-1.239-.025-.233.022-.154-.069-.265m-27.949 4.329c-.529.424-.742.713-.796 1.401-.076.96.297 2.013.92 2.74.322.376.806.752 1.318.791.484.037.866-.138 1.216-.46.37-.339.608-.795.894-1.202.578-.82 1.42-1.408 2.293-1.882 1.178-.558 2.406-.92 3.596-1.434-.722.053-1.431.109-2.134.29-1.507.388-4.939 2.066-6.332.95-.404-.323-.62-.83-.975-1.194m32.33.586c.002.343-.058.459.18.718l.784.068c-.159-.318-.262-.558-.618-.701-.122-.05-.22-.062-.347-.085m3.79 1.356.032.103.06-.002-.005-.103zm3.55 5.025c.072 3.397-1.706 7.271 1.131 10.093.763.758 1.501.986 2.516 1.184.334-.32.448-.57.46-1.038.034-1.454-3.198-8.973-4.107-10.239m-2.624.674c-.979 2.15-2.28 4.44-1.359 6.85.325.85 1.065 1.719 1.917 2.07q.12.048.243.091c.41.027.838.1 1.168-.201.29-.264.385-.602.363-.984-.082-1.512-1.27-2.847-1.654-4.282-.248-.928-.203-2.84-.678-3.544m79.83.21q-.328.767-.648 1.537c.452.321.742.637 1.064 1.086l.119.135c.088-.594-.06-2.213-.44-2.67-.027-.034-.063-.059-.095-.088m-83.334.428c-.793.728-1.624 1.415-2.204 2.334-.052 1.351-.031 2.49.946 3.547.343.37.715.665 1.132.945.454.135.806.26 1.28.174.277-.2.357-.236.428-.593.22-1.115-.922-3.112-1.204-4.268-.141-.575-.065-1.526-.283-2.021-.02-.046-.063-.079-.095-.118m9.568.973c.366 3.709.052 7.609 2.919 10.427.496.099.99.26 1.487.108.446-.519.357-1.18.367-1.833.705 1.17 1.558 2.787 3.028 3.101.304.065.638.05.892-.151.368-.293.436-.853.421-1.29-.038-1.2-.567-2.124-1.088-3.159-1.078-2.121-2.285-3.924-3.756-5.8.363 2.422.178 4.844.489 7.25-.943-1.908-3.229-7.451-4.759-8.653m77.326.74c-.323.493-.923 1.175-.8 1.794.041.212.14.287.32.404.122.08.326.138.457.187.305-.479.7-1.11.525-1.707-.087-.297-.268-.494-.502-.679m-89.612.164c-1.26.669-2.548 1.311-3.779 2.032.377.466.728.883 1.205 1.256.701.25 1.768.711 2.484.39.29-.131.475-.307.565-.624.243-.86-.223-2.065-.36-2.937zm-120.504.255q-.034.12-.07.237c-.102.324-.284.513-.52.745.048.372.262.49.513.754.274-.317.494-.53.543-.966-.099-.342-.24-.505-.466-.77m78.68.238c-2.278.902-13.065 4.962-13.973 6.671-.02.037-.03.079-.046.118l.102.174c.188.025.354.049.544.039 2.127-.54 12.922-5.346 13.87-6.826.018-.03.029-.063.044-.094-.24-.132-.278-.097-.54-.082m126.863.362-.026.113c-.11.457-.49.837-.482 1.276.698.963 1.477 1.836 2.141 2.827.204-.28.23-.337.268-.68-.82-1.71-.723-1.943-1.901-3.536m-201.672.757c-.335.544-.7 1.084-.992 1.652.038.516.014 1.137.242 1.605.215-.138.152-.065.232-.171.398-.608.81-1.209 1.168-1.84-.183-.374-.373-.947-.65-1.245m-2.925.227c-.278.494-.56.895-.431 1.484.11.51.773 1.18 1.103 1.606l.143.011c.008-.872-.222-2.355-.765-3.05q-.023-.027-.05-.05m207.906.319c-.063.5-.336 1.885-.073 2.276l.164-.214c.248-.478.683-1.075.562-1.623a1.5 1.5 0 0 0-.653-.44m-31.745 1.134-.143.031c-1.16.268-2.268.736-3.401 1.099-2.547.815-5.36.886-7.906.025-1.375-.465-2.638-1.14-4.133-1.03-1.21.089-2.47.7-3.62 1.069-1.663.533-3.443.697-5.183.66l1.482.865c3.61.019 5.008-1.851 7.82-2.577l.131.049c1.007.385 1.893 1.002 2.867 1.458 2.64 1.236 5.888 1.563 8.609.377 1.228-.536 2.35-1.206 3.511-1.866l.028-.14zm-99.62.603c-2.111.504-4.048 1.474-6.057 2.274-2.132.849-4.546 1.644-6.524 2.798-.546.32-1.095.692-1.43 1.243-.201.332-.326 1.016-.199 1.38.014.04.038.074.058.111.2.063.257.076.474.051 2.309-.73 12.355-6.058 13.883-7.621l.06-.22zm38.105.858c-1.306 1.318-4.568 4.96-6.534 4.844-.186-.011-.198-.022-.356-.065-.484-.623-.984-1.522-.874-2.332.133-.99 1-1.82 1.659-2.519-.962.476-5.177 1.726-5.531 2.265l-.001.702c.446.947 1.173 2.392 2.212 2.776.67.247 1.417.167 2.066.479 1.946.936 1.689 1.88 4.249 1.754.402-.02.925-.024 1.28-.221q.07-.04.138-.085c.193-.813-1.18-2.098-.947-3.377.244-1.339 2.714-2.924 2.64-4.221m4.553.625c-1.483 1.304-2.12 3.212-3.441 4.66-.434.476-2.39 1.37-2.411 1.875-.033.775.68 1.575 1.186 2.088.203.206.423.373.662.532.687.282 1.713.678 2.447.337.184-.085.165-.106.292-.275-.103-1.305-1.117-2.548-1.107-3.837.015-1.89 2.102-3.512 2.372-5.38m28.385.97c.545 2.191 1.11 5.504 3.228 6.803.402.246.797.393 1.269.265.153-.041.311-.12.456-.183.16-.993-1.309-2.819-1.883-3.616-.877-1.216-1.863-2.368-3.07-3.269m-24.896.238c-.902 2.565-1.949 4.997-4.033 6.82l-.346.306c.34 1.277.732 1.96 1.83 2.744.7.296 1.758.637 2.503.304.208-.093.2-.125.317-.301-.327-1.458-1.22-2.925-1.196-4.444.016-1.063 1.13-4.954.925-5.429m-45.245.463c-2.267.378-12.705 4.37-13.831 5.856-.84 1.11-.671 1.746-2.109 2.294l-.123.158c.389.147.788.283 1.168.451.404.07.651-.024 1.011-.195 2.338-1.112 4.544-2.6 6.827-3.831 2.295-1.238 4.974-2.21 7.072-3.745.316-.232.664-.474.761-.863-.286-.22-.425-.147-.776-.125m38.723-.05c-.863.955-1.992 1.967-2.41 3.205l.057.407c.44-.623 2.34-3.03 2.353-3.612m-15.012.236-.669.214c.066.232.132.214.328.34.282-.064.41-.025.592-.262-.081-.118-.133-.207-.25-.292m25.987 1.113c-1.19 2.74-2.29 5.224-4.008 7.699.564 1.056 1.217 1.884 2.296 2.459l1.837.769c.131-.45.277-.9.378-1.358-1.123-1.795-1.855-3.501-1.383-5.672.261-1.207 1.033-2.654.88-3.897m24.305.867c.796 1.796 1.666 3.113 3.257 4.305l1.953-.036c-.968-.8-4.416-3.858-5.21-4.269M52 138.237c-1.256 1.094-2.383 1.63-3.978 2.057-.413.643-.825 1.264-1.304 1.861 2.196-.647 3.8-1.647 5.379-3.3 2.938 1.803 6.197 3.71 9.764 2.847q.331-.083.655-.19t.639-.237.62-.282.597-.327.573-.37.544-.41.513-.448.48-.485c2.53 1.79 5.666 3.524 8.89 2.985 1.183-.198 2.12-.66 3.178-1.195.698-.425 1.218-.89 1.766-1.498.788.398 3.231 1.867 3.962 1.877-.115-.235-.189-.32-.418-.468-1.254-.81-2.612-1.188-3.856-2.168-1.933 1.799-4.668 2.343-7.238 2.26-2.56-.081-4.527-.731-6.435-2.453-2.5 1.954-5.398 2.725-8.552 2.322-2.028-.259-4.234-1-5.78-2.378m49.997.129c-3.792 1.475-7.292 3.6-10.997 5.264-.587.263-3.792 1.362-4.047 1.657-.093.107-.14.248-.21.371-.003.329.012.325.22.582.368.168.67.236 1.07.286 1.097.145 1.985-.009 3.035-.341 2.913-.923 8.464-4.289 10.903-6.127.427-.322.99-.713 1.126-1.254-.06-.228-.001-.204-.178-.301-.284-.157-.606-.16-.922-.137m53.115.086c-.478 1.799-.859 3.789-1.741 5.44-.448.84-1.056 1.576-1.506 2.408.248 1.33.66 2.432 1.831 3.23.25.17.512.336.785.468.702.159 1.313.182 1.99-.086l.216-.241c-.221-1.401-1.913-2.785-2.17-4.316-.338-2.022 1.084-5.282.595-6.903m-6.67.516c-.393.837-1.42 2.555-1.267 3.44.463-.798 1.424-2.521 1.267-3.44m-40.732.57c-1.326.221-2.53.8-3.742 1.358-1.299.598-2.631 1.162-3.881 1.857-1.747.972-3.409 2.122-5.188 3.032-1.261.646-2.64 1.065-3.98 1.519-.143.238-.228.534-.12.819.029.073.078.138.116.207 1.075.206 2.065.227 3.137-.055 2.689-.707 8.201-4.323 10.561-5.922 1.02-.69 2.443-1.555 3.126-2.603zm7.467.242c.694 1.031 4.123 1.988 5.343 2.22 1.77.337 2.878.046 4.346-.975q.468-.325.924-.665l.254-.255-.068-.17c-.992-.091-2.119.435-3.065.726-2.582.794-5.249-.187-7.734-.881m-2.602.531c-5.188.345-12.022 6.584-17.298 8.585-.041.467-.22 1.169-.007 1.577l.109.053c1.352-.106 2.518-.314 3.772-.845 2.876-1.217 11.242-6.798 13.407-9.128.082-.088.1-.13.151-.225zm46.888.158c-.922 2.595-2.303 6.86-2.53 9.523.818 1.679 2.26 2.663 3.934 3.383.568.161 1.111.297 1.698.38-1.141-2.713-3.298-5.288-3.318-8.313-.01-1.558.435-3.499.216-4.973m-6.929.485c-.476 1.078-1.033 2.07-.635 3.26.248-.72.91-2.577.635-3.26m76.513.345.067.079zm-65.357.917c-1.042 2.421-1.98 8.182-.965 10.63.729 1.76 1.977 2.735 3.698 3.415l.11.04c.354.098.575.253.911.077.038-.645-2.911-6.138-3.37-7.623-.505-1.632-.488-3.146-.416-4.833.023-.552.11-1.161.031-1.706m-137.28.247c-.04 1.047-.237 2.23.539 3.07.177-.055.13-.004.188-.085a6.4 6.4 0 0 1 .057-1.077c.092-.584-.053-.98-.393-1.456a2.4 2.4 0 0 0-.39-.452m205.029-.008c-.31.84-1.243 2.679-1.123 3.516l.169-.009c.462-.678.856-1.373 1.241-2.098zm-74.519.127c-.33.907-.934 3.327-.565 4.222q.032.068.066.133c.162-.96.793-3.532.5-4.355m71.72.004c-.082 1.285-.537 2.857.278 3.987.197-1.133.406-2.808-.188-3.861-.025-.045-.06-.084-.09-.126m-48.292 1.548q.681 2.566 1.309 5.145c.938 3.817 1.932 7.29 5.54 9.377 1.357.785 3.968 1.971 5.508 1.962-.211-1.16-3.352-3.935-4.26-5.16-2.47-3.334-3.381-8.41-6.999-10.78-.339-.223-.708-.428-1.098-.544m5.492.073c.194 1.197.28 2.423.538 3.608.701 3.228 2.385 6.609 5.12 8.567 1.369.98 5.621 3.25 7.227 3.394-1.903-1.84-3.868-3.59-5.481-5.705-2.457-3.221-4.195-7.259-7.404-9.864m42.323.216.077.08zm-59.476.042c-.344 1.202-1.313 7.126-1.256 8.369a6.3 6.3 0 0 0 .764 2.764c.888 1.593 2.52 2.502 4.213 3.016.302.073.61.2.911.075l-.112-.183c-.621-1.028-.988-2.135-1.511-3.205-1.031-2.106-2.409-4.052-2.755-6.425-.213-1.455-.005-2.974-.254-4.41m3.938.111c-.456 2.24-.372 8.087.095 10.319.16.765.437 1.495.879 2.143 1.163 1.707 3.895 3.246 5.9 3.662.05.01.102.015.152.023l.159-.279c-.506-.905-1.29-1.684-1.874-2.553-.624-.929-.875-1.95-1.416-2.903-.924-1.63-2.216-2.765-2.884-4.588-.674-1.841-.43-4.429-1.011-5.824m-11.63.62c-.19.82-.345 2.606.092 3.346.05-.672.39-2.8.001-3.255-.028-.033-.062-.061-.093-.092m15.549.151c-.621 2.956.768 8.928 2.441 11.452 1.264 1.909 4.216 3.575 6.451 3.993.27.051.535.066.808.076-.023-.148-.007-.308-.068-.446-.075-.17-2.294-2.504-2.782-3.256-.473-.73-.871-1.507-1.35-2.233-1.414-2.14-2.895-4.201-4.16-6.444-.538-.954-.729-2.286-1.34-3.142m-152.549.214.01.132c.027.495-.062.81-.209 1.276-.059.188-.082.226-.012.436.164.495 2.23 3.22 2.6 3.438-.09-.959-.875-1.683-.7-2.657l-.165-.055c-.464-.16-.829-.245-1.059-.718-.29-.594-.075-1.212-.465-1.852m28.162.34c-2.318 1.72-4.829 2.513-7.707 2.07-.614-.095-1.076-.122-1.619.25l-.058.223c.68.763 1.492.948 2.483.996 2.236.11 4.804-.923 6.433-2.44q.261-.246.5-.513c2.592 1.663 5.543 3.68 8.803 3.014 1.879-.385 3.49-1.642 4.883-2.898 2.465 1.775 5.38 3.46 8.543 2.933 1.483-.247 2.941-.965 4.069-1.956l.85-.807c2.955 1.811 6.206 3.748 9.81 2.892l.787-.195c-.995-.109-1.995-.052-2.984-.17-2.733-.326-5.7-1.689-8.007-3.152-2.343 1.89-5.002 2.367-7.959 2.043-2.005-.22-3.624-.923-5.2-2.163-3.076 1.998-5.902 2.662-9.556 1.886q-.281-.057-.558-.132t-.55-.169q-.27-.093-.536-.203-.265-.11-.523-.237-.257-.128-.506-.272-.248-.143-.487-.303-.239-.159-.467-.333t-.444-.363m54.656.865c-1.102.69-2.715 1.529-3.585 2.489l.012.147c1.048-.539 2.947-1.505 3.581-2.506zm59.783.054c-.118.43-.13.81-.5 1.084l-.444-.004c-.08.465.287 1.211.439 1.672l.57 1.092c-.026-.67.171-3.391-.065-3.844m64.757.642c-.944.932-1.858 2.22-2.216 3.51l.081.272c.3-.12.161-.037.413-.254.243-.472.381-1.418.704-1.74.124.165.149.244.343.327.44-.285.948-.775 1.013-1.33.035-.294-.069-.501-.26-.72-.023-.025-.052-.043-.078-.065m-204.233.46-.308.371c.073.752.278 1.661.794 2.234.328-.55.261-1.35.105-1.957-.059-.229-.117-.387-.284-.56zm143.831.768c-.121.982-.38 2.287.247 3.138-.038-.862.099-2.387-.247-3.138m-8.411 7.93.116.067zm13.838 11.65a18 18 0 0 0-3.486 1.286c.958 2.6 1.967 5.176 2.951 7.766.589 1.55 1.075 3.166 1.792 4.66.566-.187 1.148-.356 1.696-.59 1.268-.55 2.828-1.153 3.346-2.567.798-2.173-.793-5.96-1.753-7.877-.572-1.142-1.259-2.195-2.536-2.605-.63-.202-1.361-.15-2.01-.073m-103.658.368c-2.597.848-4.491 2.73-5.712 5.153-.776 1.539-1.238 3.405-.676 5.09.352 1.056 1.118 1.862 2.126 2.326.476.22 1.011.279 1.525.349l.876-1.976c-.743-.196-1.385-.334-1.812-1.045-.482-.803-.42-1.73-.164-2.598.478-1.617 1.74-3.561 3.264-4.335.561-.285 1.313-.471 1.926-.251.346.125.546.356.763.636.549-.157 1.198-.245 1.487-.8.15-.288.147-.549.046-.852-.24-.717-1.222-1.269-1.877-1.524-.57-.222-1.17-.221-1.772-.173m5.023 2.244c-1.157 2.013-2.137 4.132-3.166 6.212-1.016 2.052-2.078 4.082-3.076 6.142.8.417 1.594.815 2.431 1.153.727-1.72 1.502-3.436 2.388-5.081.638.219 1.243.434 1.838.757q-1.182 2.564-2.474 5.073c.698.243 1.573.67 2.295.755 2.076-4.017 4.217-8.014 6.176-12.089-.765-.395-1.522-.789-2.32-1.111q-1.368 2.568-2.618 5.195c-.632-.244-1.264-.483-1.881-.763l2.633-5.353c-.74-.298-1.478-.614-2.226-.89m7.384 3.326c-1.808 4.118-3.162 8.457-5.194 12.471l2.373.876c.556-1.12 1.553-4.384 2.394-5.025l.175.09c.139.65.016 1.253-.035 1.91-.132 1.226-.213 2.482-.445 3.693.887.319 1.771.624 2.677.885.006-2.18 0-4.352-.099-6.53 1.245-.465 2.178-.978 2.76-2.255.441-.968.546-2.135.14-3.133-.469-1.15-1.496-1.849-2.612-2.286-.697-.274-1.416-.485-2.134-.696m75.118.165c-.864.327-1.75.631-2.597 1 .809 4.434 1.49 8.895 2.527 13.282.63-.282 1.282-.542 1.879-.892a18.5 18.5 0 0 0-.453-2.88l1.305-.632c.345-.155.64-.397 1.02-.236.704.299 1.358 1.727 1.863 2.33l2.134-.907c-.406-.701-7.495-10.999-7.498-11.001-.052-.037-.12-.043-.18-.064M92.61 176.87c-1.45 4.29-2.823 8.627-4.457 12.85q1.196.376 2.402.719 1.413-3.754 2.708-7.55c.58-1.749 1.06-3.54 1.694-5.268zm58.346.905c-.734.311-1.48.607-2.202.945 2.202 4.033 3.473 8.532 5.58 12.6.94-.411 1.893-.805 2.823-1.238.853-.382 1.712-.753 2.54-1.184-.236-.67-.46-1.347-.716-2.01-1.091.407-2.18.835-3.285 1.206-1.007-1.97-3.73-9.252-4.74-10.319m-4.578 2.257c-1.138.184-2.246.594-2.926 1.588-.519.757-.663 1.913-.45 2.796.303 1.263 1.223 2.107 2.312 2.737 1.188.686 3.469 1.41 3.984 2.758-.046.394-.145.638-.46.898-.949.779-2.337.437-3.45.355.196.749.376 1.507.604 2.246.466.036.934.083 1.401.091 1.2-.079 2.387-.3 3.235-1.24.634-.704.954-1.797.884-2.734-.088-1.19-.795-2.271-1.719-2.993-1.146-.896-4.355-1.626-4.736-3.055-.081-.305.025-.573.216-.808q.057-.07.121-.135.064-.064.134-.12.07-.057.147-.106t.157-.089.166-.072q.084-.031.172-.054.088-.022.177-.035.09-.012.18-.015c.483-.017 1.014.136 1.485.239-.225-.79-.343-1.757-1.077-2.233zm-6.368 2.25-2.052.43c.355 1.336 3.283 12.207 3.668 12.522l.29-.017c.721-.237 1.448-.506 2.182-.702-.938-2.862-1.733-5.768-2.608-8.65-.347-1.146-.633-2.462-1.132-3.54-.279-.062-.162-.065-.348-.043m-18.935 1.136a1.1 1.1 0 0 0-.307.505c-.503 1.548-.826 3.184-1.258 4.758-.714 2.6-1.519 5.178-2.209 7.784.878.124 1.746.187 2.632.232.293-1.07.583-2.141.92-3.199h1.678l.375.058c.512.747.528 2.361.633 3.244l2.515-.072c-.78-4.403-1.497-8.858-2.503-13.213-.832-.071-1.642-.123-2.476-.097m7.732.36c-.882.276-1.833.681-2.288 1.55-.389.743-.224 1.66.056 2.409.734 1.96 4.497 4.566 4.002 6.404-.308.443-.733.628-1.256.709-.753.116-1.46-.227-2.09-.602l-.117 2.057c.915.49 1.6.711 2.665.664.984-.171 1.853-.468 2.454-1.315.632-.89.892-2.11.672-3.178-.546-2.638-4.77-4.886-3.982-6.293.48-.318 1.203-.481 1.773-.349.19.044.37.12.552.188l.21.077c.225-.558.476-1.116.66-1.688-1.121-.543-2.052-.756-3.311-.633m-90.864 10.53c2.96 4.01 6.569 7.672 10.166 11.109 3.462 3.308 7.1 6.287 10.923 9.166 2.749 2.07 5.574 4.142 8.48 5.984q1.161.734 2.34 1.438 1.18.705 2.377 1.379 1.198.674 2.411 1.317t2.444 1.256q1.23.612 2.475 1.192t2.505 1.13 2.532 1.065 2.559 1 2.583.935q1.298.45 2.607.868 1.308.418 2.627.802 1.32.385 2.648.735t2.665.667 2.681.599q1.345.282 2.696.53t2.708.462c2.98.447 6.081.937 9.1.958.687-1.497 1.386-2.99 2.011-4.515-1.346-.868-3.381-2.55-4.81-3.013-1.477-.479-3.836-.687-5.392-.596-1.004.059-2.011.3-3.007.447-.854.125-1.719.175-2.57.322-1.374.236-9.409 1.998-10.19 1.412-.035-.027-.037-.083-.055-.124 1.101-1.132 5.19-2.022 5.222-2.437-.645-.126-1.311-.147-1.945-.31-1.127-.29-2.198-.752-3.325-1.048.766-.383 1.485-.705 2.323-.91.514.195 1.064.462 1.604.556.404.04.853.15 1.226-.04.127-.191.34-.39.3-.619-1.349-.588-3.408-1.429-4.846-1.623-1.199-.162-2.559.03-3.768.086-2.863.13-5.785.087-8.604.649-.657.13-1.45.38-1.779-.422q-.023-.064-.044-.13c-.815.003-2.318.175-3.01-.263l-.033-.209c1.323-.768 4.517-.394 5.106-.79.107-.072.17-.194.255-.291l.011-.254c-1.126-.744-3.509-1.089-4.87-1.496-.771-.23-1.488-.55-2.213-.894 1.817-.031 3.654-.119 5.466.048.3-.215.61-.425.903-.65-1.073-.488-4.68-2.772-5.545-2.53-.508.143-.985.058-1.499.004-2.762-.292-5.751.049-8.424-.351a2.4 2.4 0 0 1-.508-.476c-.782-.038-1.745.244-2.455-.106l-.242-.405c1.073-.725 3.313-.145 4.096-.801-.057-.315-.214-.405-.472-.572-1.494-.969-3.382-.965-4.91-2.006 2.127-.04 4.209.046 6.325-.237-1.382-1.18-2.898-2.167-4.356-3.247-1.575-.204-3.12-.516-4.678-.82-.948-.186-1.928-.282-2.865-.506-2.08-.495-4.447-1.646-6.202-2.869 1.61-.02 2.717.204 4.223.757l.087-.093c.475-.5.728-.654 1.43-.667h.137l.05-.066c-2.114-1.056-3.877-2.171-5.806-3.53 1.012.149 1.961.362 2.887.812.453.22 1.077.787 1.547.811.105-.194.153-.227.145-.454-.01-.313-.08-.692.131-.95.107-.131.253-.253.377-.366-.419-.875-2.16-2.348-2.916-3.14-2.583-.595-3.747-.954-6.024-2.366-.399-.247-.936-.494-1.206-.882l.06-.1c.4.264.425.271.875.287 1.132.04 2.311.801 3.457.457l.172-.234c-.084-.34-.358-.537-.602-.769-3.612.056-7.168.04-10.782-.063m14.016-.081c.865 2.444 2.814 4.521 4.664 6.307-.039-1.36-.224-2.905.236-4.208l.154-.022c.587 1.291 1.355 2.766 1.693 4.133q-.058.017-.114.037a2 2 0 0 0-.405.209c-.096.3-.12.594.03.885.09.175.194.273.338.399.307.269.424.69.84.806.774-.714.66-4.305 1.054-5.543.052-.163.1-.325.157-.487l.078.196c1.164 2.946 1.44 7.704 3.426 10.066 1.05 1.248 2.856 2.487 4.188 3.441.096-.619.216-1.258.2-1.886-.023-.9-.606-3.06-.36-3.709.3.01.292.019.484.233 1.432 1.603 1.436 4.277 2.921 5.776.158-.722.273-1.31.204-2.052-.088-.946-.254-2.007.042-2.925.257.042.15-.018.327.235.487.7.791 1.666 1.15 2.448 1.054 2.299 2.042 5.159 4.006 6.826.882.749 1.98 1.307 2.975 1.894.68.403 1.941 1.45 2.653 1.558.277.041.2.031.477-.035-.19-.679-1.271-1.333-1.687-1.941-.531-.775-1.36-2.695-1.724-3.628 2.346 1.32 2.383 2.3 4.06 3.841.43.394.907.331 1.081 1.038.112.457-.232 1.046-.443 1.442.709.422 1.424.717 2.192 1.01-.53-.894-1.606-2.103-1.698-3.131l.142-.017c.193-.025.118-.006.282-.074-.16-.59-.498-1.133-.733-1.697-.282-.678-.341-1.529-.393-2.26.963.899 1.705 2.013 2.513 3.048 1.513 1.939 3.047 3.944 4.823 5.65 2.238.387 4.598 1.083 6.597 2.163.494.266 1.012.642 1.59.556.094-.173.077-.078.006-.321-.08-.278-.032-.174-.186-.39-.25.085-.345.203-.594.028-.924-.647-3.502-4.048-4.079-5.125.626.325 1.293.642 1.866 1.054 1.498 1.076 2.578 2.256 4.284 3.074l-.056-.159c-.297-.839-1.737-3.374-1.49-4.097.288-.07.429-.028.669.141.672.474 1.246 1.39 1.796 2.021 1.189 1.366 2.5 2.879 3.875 4.062.602.504 1.252 1.126 1.941 1.503 1.672.915 4.253.864 6.15 1.044 2.287 1.87 5.077 3.107 7.334 4.985q2.969-1.21 5.852-2.61c-2.53-.069-7.228.063-9.531-.713-1.788-.601-6.989-4.296-9.012-5.508-1.96-1.175-4.05-2.14-5.995-3.334-.609-.374-1.34-.829-1.817-1.363-.184-.206-.207-.23-.217-.514 1.487-.205 9.288 1.076 11.355 1.36q5.651.742 11.321 1.324 1.11-4.927 2.132-9.874c.432-2.06.966-4.184 1.234-6.27-11.993-.254-23.544-1.736-34.959-5.534q-3.548-1.211-7.023-2.618c-1.623-.675-3.425-1.753-5.154-2.067-3.119-.565-7.782-.344-11.048-.4-5.548-.096-11.129-.343-16.674-.281m-18.427.157c1.655 2.172 3.4 4.439 5.38 6.325-.416 2.012-1.851 7.594-.895 9.342 1.943 1.496 8.201-.109 11.05 1.209 1.671.772 3.157 2.53 4.62 3.671.222 2.035.536 8.158 2.063 9.318 1.065.809 3.094.379 4.322.164 1.836-.322 3.66-.709 5.516-.91q3.188 1.912 6.417 3.754c.59 1.71 2.521 8.543 4.02 9.286 1.146.567 3.132-.308 4.242-.73 1.759-.67 3.434-1.605 5.237-2.138l.173-.053c2.05.624 4.135 1.275 6.145 2.02 1.233 2.042 3.613 7.844 5.859 8.409 1.517.382 3.62-1.043 4.845-1.838 1.481-.962 2.926-2.028 4.467-2.893l1.163.22c1.79.286 3.58.506 5.382.708.264.456.466.881.916 1.181.309.042.425.076.686-.148.563-.487 1.014-1.862 1.338-2.563-4.353-.496-8.715-.875-13.009-1.784q-1.223-.265-2.44-.555-1.218-.291-2.43-.608-1.21-.317-2.414-.66-1.204-.342-2.4-.71-1.196-.369-2.385-.762-1.187-.394-2.367-.813-1.18-.42-2.35-.864t-2.33-.913-2.31-.963q-1.151-.494-2.29-1.012t-2.267-1.061-2.245-1.11-2.22-1.156q-1.103-.59-2.194-1.204t-2.168-1.251q-1.078-.637-2.142-1.297t-2.112-1.342-2.084-1.387q-1.035-.705-2.054-1.432t-2.022-1.475-1.99-1.518-1.958-1.56-1.924-1.602q-.953-.81-1.889-1.642t-1.854-1.683-1.817-1.721-1.78-1.76-1.741-1.798-1.703-1.835q-.842-.927-1.663-1.87-.822-.945-1.623-1.907-.802-.961-1.582-1.94-.435-.549-.848-1.114-1.17 0-2.341-.025m16.227 1.886c.466.277.907.61 1.461.647l.453-.23-.004-.276c-.474-.314-1.341-.17-1.91-.141m5.55 5.556c.623 1.17 3.085 2.674 4.202 3.545l.277.03c-.785-1.871-1.201-1.104-2.363-2.243-.38-.373-.293-.935-.74-1.209l-.366.277a3.5 3.5 0 0 1-.52-.249 1 1 0 0 0-.49-.151m5.335 1.37c.111.732.255 1.444.9 1.899.029.02.06.035.089.053-.048-.645-.297-1.327-.772-1.787-.103-.1-.113-.1-.217-.166m67.787 1.973c-.381.442-.388 2.073-.476 2.724-.645 4.755-1.459 9.598-2.516 14.274.98 1.311 1.963 2.617 2.802 4.024.377.642.776 1.28 1.125 1.938.03-4.528.225-9.044.356-13.568.084-2.867.307-6.46-.169-9.25-.298-.226-.763-.146-1.122-.142m-72.05.372.02.09.048-.012.026-.098zm-1.216-.107-.296.278c.088.25.115.252.351.357.887.394 2.317.454 3.264.287l.171-.235c-.208-.308-.512-.391-.875-.474-.831-.189-1.164.409-2.034-.099-.187-.109-.37-.103-.58-.114m3.53.552c.053.154.07.363.22.445.202.11.419.1.642.114-.162-.316-.17-.389-.528-.498-.095-.029-.233-.046-.334-.06m2.95.326h.106zm136.466.336.05.153.122-.055-.085-.136zm-136.128.222c-.036.035-.067.075-.108.103-.294.209-.735.202-1.085.239l-.146.12c.319.256.719.302 1.109.388l1.052.115.039-.111c-.282-.274-.559-.543-.814-.842zm7.726 2.066h.164zm-.18 1.738-.376.53c.102.335.594.55.894.73.838.5 1.438 1.607 2.312 1.953l.306-.265c-.072-.629-.602-1.016-1.073-1.39-.614-.488-1.284-.89-1.863-1.42-.11-.101-.057-.061-.2-.137m116.653.168c-.239.31-.597.675-.661 1.063l.085.086c.311-.21.634-.37.776-.737-.055-.17-.072-.282-.2-.412m-3.495.751c-.326.571-1.405 2.091-1.439 2.549l.187.058c.532-.383 1.519-.968 1.581-1.688a1.3 1.3 0 0 0-.33-.919m-108.876.47c.11.435.138.972.544 1.227-.043-.365-.069-.795-.345-1.073-.06-.06-.133-.103-.2-.154m-5.508 1.258c-.388.006-.765-.03-1.114.165.248.314.882.403 1.265.493l.505-.114.1-.203c-.188-.252-.36-.28-.653-.366zm5.77.275c.125.334.165.677.52.84.153.07.41.076.58.095a8 8 0 0 0-1.1-.935m111.47.113c-.926.638-3.459 1.218-3.886 2.18.197.148.106.11.252.156 1.031-.297 3.36-1.23 3.935-2.126-.163-.204-.061-.137-.301-.21m-116.235.4-.105.423c-.357.208-.81.33-1.067.652a8.8 8.8 0 0 0 1.963-.3l.226.004c.29.006.568.044.855.086l.188-.105c-.06-.262-.22-.44-.447-.58-.415-.258-1.136-.262-1.613-.18m5.394 1.098c.255.388.471.79.962.897.142.031.218.036.374.056-.381-.465-.804-.689-1.335-.953m-2.3.311c.602.404 1.124.458 1.837.474-.633-.332-1.114-.571-1.838-.474m112.612.964.114.052-.081-.067zm-98.136 2.01.102.038zm84.967-.142c-.617.39-1.658.944-2.043 1.547l.172.125.21-.085.143-.107c.353-.261.554-.448 1.01-.438.192.004.383 0 .575.006a3.3 3.3 0 0 0-.067-1.048m-3.129.223c-.777.88-1.554 1.672-2.497 2.375l-.032.22.25.129c.785-.481 2.344-1.474 2.615-2.379-.118-.251-.052-.24-.336-.345m-80.604 1.249c-.066.421-.161.641.084 1.034.233.371.767.7 1.145.903-.2-.682-.674-1.481-1.23-1.937m-5.837.12c-.244.292-.386.364-.39.754.453.52 1.337.828 1.99 1.036.204-.319.24-.328.201-.698-.265-.393-.884-.508-1.325-.62zm23.92.227c1.506 1.2 13.124 5.245 15.639 6.187 2.303.864 4.655 1.957 7.02 2.61-.9-1.666-2.928-5.724-4.753-6.228-1.932-.534-4.105-.647-6.097-.942-3.925-.582-7.854-1.287-11.808-1.626m45.174.02c-1.943.167-3.892.586-5.811.935q-6.044 1.112-12.033 2.487c-.505.956-3.148 4.613-3.177 5.321 2.502-.856 4.902-1.972 7.32-3.035q4.102-1.828 8.276-3.485c.909-.363 4.904-1.647 5.423-2.16zm-65.361 1.292c-.721.357-1.542.57-2.215 1.001l-.03.168c.437.156.905.113 1.362.106.75-.141 1.522-.258 2.26-.45-.425-.345-.816-.742-1.377-.825m2.225 1.279c.214.264.41.445.761.473.288.022.587 0 .874-.016-.566-.243-1.004-.46-1.635-.457m2.797.352c.423.526.804.675 1.455.804-.38-.378-.7-.804-1.276-.812-.06 0-.12.006-.179.008m79.708.03c-.294.077-.655.1-.864.322.368.06.724.11 1.096.131.302.02.388.102.629-.1-.175-.242-.263-.262-.54-.383zm-16.1.065c-.354.421-.95.968-1.104 1.495.306-.025.514-.217.755-.39.489-.135.99-.224 1.391-.549l-.02-.184a4.4 4.4 0 0 0-1.022-.372m-54.192.382c.654 1.259 1.23 2.086 2.639 2.534.074.024.152.037.229.056-.795-1.158-1.523-2.043-2.868-2.59m54.512 2.22c-1.338.157-3.133.37-4.221 1.216l-.058.23.234.361c.852-.265 3.642-.84 4.187-1.306l.036-.315zm-54.702.937-.655.46c.207.311.82.28 1.157.538q-.184.286-.354.581c.638-.03 1.233-.346 1.853-.472.447-.098 1.017-.23 1.275-.654.018-.03.028-.065.042-.097l-.11-.15c-1.075-.141-2.179.2-3.208-.206m4.457.913c.313.346.57.431 1.047.458a4.6 4.6 0 0 0 1.191-.098l-.036-.212c-.682-.103-1.516-.227-2.202-.148m48.257.362-.122.175.172.074.123-.052.172-.213c-.226-.082-.111-.083-.345.016m1.175.109c.102.384.081.396.404.62.351.035.7.066 1.052.082-.431-.543-.797-.595-1.456-.702m2.124.057c-.119.325-.2.347-.074.684.343.154.63.155.998.163-.02-.286-.015-.425-.267-.619-.18-.138-.436-.2-.657-.228"/><path d="M87.818 27.208c.752-1.816 2.15-5.713 3.783-6.725 2.413.126 5.134 1.88 7.24 3.003-1.898.509-3.757 1.099-5.622 1.717q-2.712.97-5.401 2.005m69.768-3.781c2.255-.94 4.456-2 6.705-2.954.044.015.09.026.133.046 1.201.567 3.112 5.218 3.804 6.638-1.66-.533-3.3-1.157-4.943-1.742-1.904-.645-3.826-1.26-5.7-1.988m19.895 8.013c2.239-.449 4.49-1.371 6.733-1.653.331-.019.708.039.988.228 1.358.918 2.435 5.817 2.857 7.503q-1.98-1.168-3.94-2.37c-2.183-1.285-4.49-2.373-6.639-3.708M68.258 37.379c.79-2.274 1.077-5.509 2.872-7.234 2.344-.29 5.113.81 7.343 1.48-1.797.926-3.579 1.853-5.333 2.86q-2.42 1.482-4.882 2.894M49.941 52.156c.233-2.109.653-7.175 1.798-8.835.338-.488.714-.552 1.263-.652 2.252-.11 4.715.088 6.938.455-2.05 1.974-4.291 3.794-6.44 5.665-1.21 1.105-2.401 2.206-3.559 3.367m145.836-9.108c1.709-.057 3.394-.2 5.095-.373.915-.139 2.043-.245 2.904.144 1.008 1.033 1.204 6.761 1.545 8.523l-2.595-2.543q-3.427-2.933-6.949-5.751m-92.464 12.036-.043-.058zM36.35 59.093c1.913-.939 4.195-1.126 6.29-1.291l1.834-.045q-3.809 4.297-7.175 8.948-.236.327-.477.648c-.519-1.83-.849-6.334-.473-8.26m182.705 7.252-.064.252-.139.013c-.837-.774-1.467-1.808-2.184-2.697-1.679-2.078-3.349-4.198-5.255-6.073 1.47.162 6.883.209 7.699 1.153.8.925.026 5.874-.057 7.351M100.3 60.457l-.043-.062zm0 0c.36.261.551.455.773.842a2.4 2.4 0 0 1-.772-.842m.772.842.083.093zm.083.093.139.137zm.139.138.11.13zm.111.13.077.074zm1.544.905-.063-.054zm-5.077 3.443-.123-.1zm0 0 .197.143zm.197.143.113.057zM25.496 84.374c-.554-1.542-2.146-5.038-1.41-6.504.586-1.169 5.936-2.589 7.428-3.122l.131.01.074.147c-.494 1.114-1.295 2.144-1.89 3.215q-2 3.663-3.9 7.38zm204.434.749c-1.516-3.533-3.618-7.058-5.672-10.303 2.115.53 4.418.951 6.468 1.68.566.2 1.358.562 1.586 1.174.373 1.003-1.167 4.19-1.603 5.364zm-131.6-9.142-.08-.073zm7.577 11.586c-1.198.142-2.148.103-3.248-.43 1.024-.065 2.238.259 3.248.43M17.51 103.78c-.662-1.23-2.57-3.995-2.164-5.412.108-.375.37-.682.666-.927 1.11-.918 4.515-2.589 6.007-3.47l.164.081c.028.611-3.238 10.054-3.704 11.564zm219.515.997c-.924-3.61-2.19-7.142-3.382-10.67 1.745.804 6.096 2.27 7.115 3.687.218 1.22-1.68 3.602-2.33 4.61-.495.776-.952 1.57-1.403 2.373m-81.721 7.878q-.209.06-.422.098-.214.038-.43.055-.216.016-.433.01-.216-.005-.431-.032-.215-.028-.427-.077-.211-.05-.416-.12t-.402-.16-.383-.202c-.594-.355-1.089-.898-1.25-1.585a2.13 2.13 0 0 1 .287-1.623c.797-1.278 2.71-1.809 4.098-2.116 1.785-.136 3.462.504 4.923 1.483-.064.591-.073 1.345-.33 1.885-.673 1.414-3 1.858-4.384 2.384m-.583-4.29c-.518.425-.827.733-.88 1.427-.032.417.096.799.379 1.109.32.351.721.477 1.187.474q.113-.001.224-.005c.518-.426.833-.72.903-1.413a1.42 1.42 0 0 0-.362-1.127c-.331-.361-.696-.475-1.179-.472q-.136.001-.272.008"/><path d="M155.248 110.948a2 2 0 0 1-.489-.24c-.241-.174-.401-.424-.411-.728-.016-.512.31-.854.656-1.178.129.059.183.079.309.166.273.188.491.472.523.813.048.529-.249.825-.588 1.167M9.933 119.545c1.742-2.008 4.391-3.437 6.498-5.072.078.28-1.078 9.584-1.226 11.144l-2.614-2.664c-1.026-1.036-2.107-2.028-2.658-3.408m230.625 6.102c-.439-3.745-.83-7.456-1.427-11.184.626.358 1.216.894 1.815 1.31 1.225.852 2.596 1.656 3.71 2.647.497.443.93.921.977 1.611-.368 1.13-1.634 2.162-2.452 3.006a63 63 0 0 1-2.623 2.61m-104.479-9.698c-.377.224-.657.402-1.1.442l-.086-.14c.53-.675 1.117-.783 1.904-.998.223.047.494.267.631.453.195.263.189.34.123.632-.24.194-.344.276-.656.29a.96.96 0 0 1-.521-.506c-.034-.07-.055-.145-.082-.218zm-2.167 1.197c-.305-.012-.378-.003-.63-.167.188-.339.432-.434.755-.64.3.056.458.031.679.258-.167.306-.504.407-.805.55m-.423 1.116 2.381-1.33c.337.198.309.183.41.563.226.064.121.05.374.049.367-.003.681-.063 1.005.141l.026.195c-.357.332-1.077.293-1.542.317-.915-.332-1.722-.096-2.654.065m-1.278.345c-.406.022-.63.02-.962-.208.128-.26.23-.242.483-.36.386.004.725-.002 1.094.13-.093.263-.373.317-.616.438m6.729 1.242c-.283.189-.414.349-.764.347l-.004-.275.588-.459-.088-.111c-.243.002-.472 0-.713-.034-.011-.062-.017-.125-.033-.187-.112-.424-1.088-.148-1.497-.412l.054-.213c.473-.348 1.254-.369 1.825-.468.075-.01.149.036.222.059.06.18.115.344.245.49.41.462.798.563 1.401.597l.15.007.04.119c-.353.22-.713.407-.965.745.163.145.25.24.339.44l-.178.12-.208-.055-.137-.592zm5.102-1.28c-.462.135-.995.361-1.477.287l-.167-.174.025-.368c.398-.2.812-.426 1.266-.265.177.063.225.192.331.336zm-10.618 1.017c-.15-.014-.285-.068-.428-.113l-.038-.167c.234-.32.524-.43.871-.59l.398.081.096.177c-.243.317-.55.441-.899.612m-2.204.506a4 4 0 0 1-.643-.326l.026-.205.659-.457c.126-.002.3.045.426.067l.12.214c-.093.347-.322.492-.588.707m-2.335-.338c-.182.034-.235-.04-.394-.125l.309-.104zm6.623 1.391-.215.031c-.047-.707-.591-.48-.87-1.023.368-.223.793-.282 1.208-.374.234-.06.208-.081.457.007-.084.244-.157.296-.068.547.282.02.474.005.693.2l-.02.222c-.358.33-.718.313-1.185.39m-6.376.068a1.7 1.7 0 0 1-.38-.427c.146-.29.416-.32.709-.443.184.123.2.161.298.35-.147.289-.356.355-.626.52m11.178.192c-.08-.102-.118-.23-.168-.349.222-.36.51-.402.892-.567.114.102.057.03.114.252-.211.341-.5.474-.838.664m-8.62.418c-.216-.186-.224-.15-.31-.447.174-.398.627-.576.99-.78.219.064.202.098.333.271-.006.038-.006.078-.017.115-.129.456-.605.663-.996.841m-6.157-.189c-.13-.173-.078-.062-.088-.355.337-.322.749-.134 1.145-.486l.205.016.138.172c-.088.14-.13.219-.252.344-.367.374-.668.32-1.148.31m18.86.478c-.204.005-.4-.015-.603-.032l-.031-.175c.283-.376.592-.728.9-1.084.35.005.624.03.88.286l-.022.258c-.329.431-.626.55-1.124.746m-7.558-.412c-.09-.017-.158-.092-.233-.143.236-.325.699-.423 1.062-.559l.347.086c-.382.438-.633.474-1.176.616m-7.748.371c-.382-.025-.69.021-1.007-.201l.022-.35c.356-.02.748-.129 1.024.106zm6.371-.166h-.178l-.005-.15.172-.024zm-12.274.652-.099-.106c.237-.31.654-.415 1.011-.568l.088.125c-.265.323-.617.393-1 .549m15.975.196c-.153-.181-.162-.157-.201-.413.315-.32.886-.353 1.314-.438l.121.155-.1.242c-.375.27-.686.354-1.134.454m-13.018-.601-.064-.036zm19.845 1.239c-.021-.014-.047-.023-.064-.042-.238-.267-.657-.467-.808-.766.235-.338.645-.422 1.022-.575a1.26 1.26 0 0 1 .865.229l.018.271c-.247.468-.583.627-1.033.882m-12.896-.641q-.094.036-.184.074c-.468.196-.769.36-1.286.329l-.112-.168c.135-.391.426-.6.727-.863.45.333.877.07 1.426.147-.136.298-.297.325-.571.482m3.241.167c-.072.016-.141.04-.214.048a.69.69 0 0 1-.617-.235c.027-.35.115-.364.369-.614.373.008.739-.052 1.064.138-.138.338-.326.443-.602.663m-10.54.318c-.323-.086-.552-.149-.833-.339-.013-.363.143-.45.364-.729.052.023.109.037.156.068.277.18.4.382.487.69zm3.786-.461c-.195.02-.365.016-.534.129-.275.184-.411.306-.751.274-.17-.334-.068-.626.003-.974.564.03 1.161.04 1.675.294l-.01.15zm14.093.604-.187.007c-.373.005-.545.008-.807-.249.088-.38.244-.493.504-.777.445.048.776.087 1.083.427-.136.35-.286.389-.594.592m-6.255.917c-.424.142-.924.35-1.365.172-.191-.078-.17-.166-.237-.343.081-.421.25-.632.52-.959.507.069 1.045.338 1.442.655l.014.234zm-.494-.67c-.293.115-.457.11-.613.398l.027.15c.269-.132.51-.166.623-.453zm4.201.796-.224.075c-.352.114-.759.228-1.105.05l-.014-.223.412-.263c.016-.272 0-.218-.162-.41l.206-.283c.666.007.967.141 1.462.606l-.048.19zm-8.765.604c-.19.07-.304.053-.502.042.166-.337.457-.54.737-.779-.185-.287-.404-.06-.436-.401.224-.13.446-.257.678-.373.406-.008.831-.087 1.158.19-.186.525-1.197.95-1.636 1.32m-11.781.963c-.207-.185-.193-.12-.248-.427a8 8 0 0 1 .633-.892l-.078-.123c-.302.04-.533.072-.837.02.321-.392 1.466-.727 1.979-.971.144.078.228.165.344.28-.108.59-.757.563-.873 1.225.112.366.379.504.675.717l.141.1.012.205-.243.15c-.523.036-1.007-.143-1.505-.284m8.416-1.512c-.34.039-.691.088-.998-.092-.19-.112-.133-.079-.188-.311.305-.312.475-.32.89-.431.23-.02.458-.053.686-.003.262.057.282.05.44.278-.226.347-.458.39-.83.559m15.167-.788h-.246c.071-.04.164-.007.246 0m-19.1 1.352a2.35 2.35 0 0 1-.724-.654l.038-.252c.321-.285.695-.284 1.103-.334.145-.01.288.014.432.03.028.374-.134.67-.278 1.006zm-.115-.69-.189.114zl.183-.062zm19.598.371c-.338-.012-.517-.048-.814-.212l-.02-.223.308-.274c.386-.046.713-.083 1.04.141-.125.312-.251.368-.514.568m-26.219-.134h-.046c-.376-.044-.427-.034-.684-.298q.361.046.72.102zm-1.445.045-.101.02.01-.109.05-.005zm15.188 4.61c-.312.214-.575.394-.942.505l-.285-.166c-.052-.342.127-.54.28-.842-.609-.544-1.664-.275-2.222-.99.08-.41.508-.657.825-.924-.291-.383-1.051-.597-1.49-.82l-.055-.198a5 5 0 0 1 .435-.231l.163-.074-.099-.473.233-.307c.408.028.738.116 1.012.427-.264.307-.607.242-.828.537.326.073.648.116.923.317l-.036.495c.32.299.809.012 1.228.239l.006.212c-.425.354-1.035.502-1.552.684a7.2 7.2 0 0 1 2.805 1.046l.01.224z"/><path d="M132.355 125.026c.827-.222 1.222-.27 2.004.065.105.127.206.171.18.35-.066.451-.564.77-.896 1.03.658.161 1.522.059 1.933.68l.008.1c-.692-.038-1.804.032-2.436-.196-.138-.287-.182-.42-.141-.739.221-.36.534-.505.89-.707l-.075-.099c-.63.148-.906-.213-1.468-.485m9.871.481c-.2.217-.33.361-.607.471-.434-.245-.566-.473-.818-.903l.204-.377c.059.002.117 0 .174.004.505.036 1.46.275 1.78.65-.23.188-.45.15-.733.155m-4.157-.136c-.367.07-.654.187-.991.007l-.108-.359c.374-.032.706-.098 1.053.082zm-21.033.085-.15.05-.036-.218.13-.026zm.549-.175-.162.16.004-.207.151-.098zm19.41 1.289c-.123-.222-.142-.209-.136-.483.44-.33 1.071-.342 1.603-.421l.165.21c-.329.492-1.082.571-1.632.694m-21.517-.092-.437-.344.018-.182.736-.251c.257.054.127.001.377.186-.159.32-.399.403-.695.59m11.701-.046c-.472.157-.985.32-1.47.158-.27-.27-.285-.365-.388-.74.613-.01 1.31-.1 1.83.28zm-4.647.59c-.105-.098-.126-.204-.175-.335.211-.343.392-.401.738-.595l.154.224c-.102.337-.445.51-.718.705m-9.039-.13-.477-.063c-.293-.218-.28-.243-.376-.599.114.015.347.04.45.079.293.112.314.319.403.583m5.646 2.054-.585.045c-.267-.455-.688-.852-1.04-1.243l.018-.166c.487-.232.768-.38 1.098-.813l.145-.192c.14.148.128.194.175.386-.225.442-.612.573-1.004.848.105.017.209.038.314.052.146.019.326.02.467.072.305.11.444.344.58.616zm20.793-1.468-.188-.071c-.28.124-.543.263-.81.412l-.162-.122c-.043-.429-.009-.612.159-1.01.357.031.75.083 1.097.173.317.083.568.228.742.51l-.268.158.147.014c-.237.064-.479-.019-.717-.064M112 127.272l-.114.015.055-.101.094-.028zm3.77.202c-.142.059-.302.129-.459.126-.35-.005-.582-.218-.828-.43.32-.045.633-.11.953-.038.217.048.225.167.334.342m7.888 1.361c-.733-.154-1.998-.221-2.608-.647-.186-.13-.122-.067-.175-.323.246-.341.605-.432.982-.576.213.003.418.027.63.05.24.253.387.355.723.462.451.143.864.324 1.295.518l.068.192c-.258.263-.57.27-.915.324m3.921-.911c-.38.067-.825.188-1.205.13-.198-.03-.144-.036-.284-.218l.13-.33c.302-.016.611-.041.912-.028.275.012.528.02.71.234zm7.29.786c-.207-.218-.232-.214-.253-.51.273-.36.71-.447 1.122-.589l.267.269-.017.246c-.303.33-.71.434-1.119.584m-23.164.202a6 6 0 0 1-.424-.492l.085-.148c.317.023.716.096 1.001-.074q.074-.046.146-.096l.132.093c-.004.11-.005.277-.035.38-.092.317-.215.371-.483.513zm114.982.007a2.7 2.7 0 0 1-.203-.556c.15-.321.278-.337.584-.501.1.264.16.488.193.77-.206.279-.25.219-.574.286m-110.728-.192c-.254-.005-.55-.006-.783-.111-.272-.125-.275-.174-.369-.438.153-.027.35-.076.507-.075.372.004.414.023.655.276zm20.816.968c-.313-.126-.377-.087-.554-.39.21-.288.401-.323.725-.461l.432.07.113.157c-.143.295-.452.447-.716.624m-9.662.529c-.316-.15-.667-.29-.945-.502-.29-.222-.266-.298-.321-.644.731.303 1.453-.106 2.139.29.222.129.204.089.28.356zm-11.896.231c-.385-.16-.84-.298-1.146-.584.226-.3.525-.362.865-.51.242.007.264-.038.455.13l.024.773zm4.403 2.165c-.626-.023-1.833-.017-2.294-.42.02-.047.044-.092.061-.14.171-.467.025-.738-.183-1.154l-.068-.133c.225.108.428.17.67.227.4-.105.514-.237.78-.53l-.09-.165c-.344-.078-.727-.106-.967-.387.084-.336.216-.39.473-.613.642.507 1.315.736 2.078 1.001-.572.218-1.183.366-1.562.874l.06.261c.725.53 2.16.664 3.037.859-.66.147-1.326.23-1.996.32m.911-2.32c.705-.274 1.39-.242 1.892-.863.314-.072 1.221.163 1.498.313.23.124.25.185.33.416-.261.336-.489.363-.882.509q-1.424-.145-2.837-.375m-11.469-.441c-.165.14-.06.093-.333.087l-.243-.45c.275-.014.416-.026.682.063zm1.981 1.632c-.202.043-.083.042-.35-.073l-.013-.256c.659-.517.786-.694.991-1.514.277.089.319.133.518.349-.015.697-.633.935-1.07 1.41zm-57.745-.438c.31-.445.66-.84 1.02-1.244.337.156.617.329.837.638.255.358.409.877.34 1.314-.043.276.01.166-.24.345l-.323-.088c-.553-.303-1.092-.643-1.635-.965m80.029.048c-.169.062-.32.115-.499.144-.247.041-.858-.582-1.107-.756-.253-.176-.23-.195-.348-.46.352-.054.581-.03.926.069.474.133.906.271 1.15.709zm-24.335-.612-.059.014.009-.083.103-.02zm-.812.548a11 11 0 0 1-.739-.082c-.22-.274-.158-.293-.152-.627q.061.011.121.026c.432.117.573.314.77.683m21.634 1.253c-.14.04-.28.082-.421.116-.333.079-.575.11-.876-.069-.037-.101-.107-.301-.157-.39-.186-.328-.47-.284-.805-.36-.379-.087-.555-.158-.763-.489.026-.336.1-.398.302-.675.288.01.433.042.66.214.406.306.778-.035 1.244.17l-.005.19-.442.392c-.046.278.94.44 1.263.9m-15.702.013a1.6 1.6 0 0 1-.475-.376c.184-.239.527-.27.812-.357-.181-.217-.357-.422-.494-.671q-.04-.073-.074-.148c.056.002.113 0 .169.007.313.035.709.17.905.429.105.138.053.269.041.43-.205.374-.522.498-.884.686m10.168 1.052-.112-.143c.104-.16.147-.226.18-.42-.525-.353-1.17-.222-1.66-.56-.011-.287.04-.338.2-.568.195-.279.396-.375.717-.436.29-.054.512-.145.777-.275l.108-.053.159.16c-.15.343-.594.439-.874.709.457.574 1.475.702 1.852 1.341-.37.248-.908.209-1.347.245m-16.831-1.104c-.247-.17-.312-.151-.408-.45l.337-.396c.136.061.244.147.364.234.005.329-.099.36-.293.612m-51.836.066 1.047-.68c1.278-.115 1.761.274 2.752 1.003 1.464-.021 3.305-.697 4.686-.42-.215.212-.32.192-.605.258-2.664.66-5.251.579-7.88-.161m13.024-.481-.135-.068zm0 0c2.957.657 5.98 1.178 8.989.51-.42.296-.888.441-1.388.547-2.025.426-5.873.074-7.602-1.058m42.802.396c-.1.037-.209.08-.312.103-.323.076-.373.12-.653-.06l-.073-.355c.386-.053.683-.169 1.04.001zm-33.63-.015.192-.08zm-.182.129.182-.129zm29.933.69c-.361-.125-.606-.12-.79-.464l.119-.35.618.195c.195.291.118.293.053.619m7.691.962a10 10 0 0 1-.593-.021c-.24-.017-.332.037-.5-.157l.183-.385c-.187-.276-.534-.111-.833-.307.189-.28.585-.394.888-.544l.37.09c.027.213.082.355.178.547q.476.129.954.246l.116.218c-.243.225-.45.239-.763.313m-7.293.032c-.29-.061-.288-.024-.512-.252.086-.406.271-.55.54-.859.332.091.413.075.622.342-.136.377-.353.506-.65.77m15.832.435c-.458.207-1.298.431-1.804.365-.358-.046-.629-.179-.857-.457-.464-.567-.867-.306-1.518-.42-.36-.062-.603-.308-.807-.596l.082-.166.917-.152c.52-.14 2.273.305 2.806.531l.066.21c-.293.264-.791.251-1.17.293.742.324 1.59-.121 2.284.392m-12.737-.097c-.297-.3-.544-.436-.605-.86l.338-.43.116.1q.07.26.156.514c.174-.123.124-.066.242-.225q.038-.052.074-.106c.308.23.443.44.625.767-.13.261-.531.32-.803.422l-.138.433a2.7 2.7 0 0 1-.61.678c.09-.444.394-.895.605-1.293m6.413.606c-.506.034-1.337.183-1.795-.055-.347-.18-.355-.34-.46-.686.578.075 1.249.145 1.8.33.303.1.316.142.455.411m-8.615.682c-.263.105-.45.162-.73.068-.55-.186-.85-.442-1.1-.96l.206-.315.32.204c.09.261.163.47.334.69l-.075-.152.117.023c.07-.153.013-.073.216-.198.342.115.499.368.712.64m6.12-.253-.191.089-.184-.154c.11-.016.265.04.375.065M9.33 141.36c1.295-2.272 3.703-4.13 5.52-6.006.27.337.755 10.082.794 11.17-1.101-.742-2.15-1.567-3.209-2.366-1.16-.824-2.318-1.585-3.105-2.798m230.636 5.018q.189-5.532.558-11.054c1.343 1.017 2.648 2.5 3.832 3.715.695.715 1.546 1.584 1.535 2.641-.406.94-1.67 1.685-2.476 2.303a63 63 0 0 1-3.449 2.395m-70.969-7.443-.09-.06zm-145.066 3.216c-.213-.024-.136-.001-.327-.077-.202-.08-.186-.186-.268-.376.06-.494.265-.839.505-1.268.26.175.399.377.452.702.072.439-.136.685-.362 1.019m208.878 3.078c.308.14.433.126.584.449a4 4 0 0 1-.26.705l-.37-.082c-.184-.356-.03-.686.046-1.072M12.623 162.832c1.403-2.322 2.977-4.641 4.686-6.75 1.19 3.545 1.888 7.26 3.096 10.809-1.147-.388-2.214-.956-3.277-1.528-1.484-.871-3.004-1.69-4.505-2.531m222.283 5.253c1.42-3.872 2.224-7.961 3.436-11.9 1.696 1.563 3.677 4.781 4.953 6.776l-5.11 3.136zm-55.231 10.985c-.21.004-.229-.04-.402-.146-.541-.912-3.122-7.396-3.088-8.109.01-.22.192-.312.339-.457.374.003.916-.017 1.227.222.97.746 2.6 5.696 2.624 7.002.012.681-.232 1.022-.7 1.487m-93.235 1.339c-.35 0-.565.036-.877-.146-.212-.697.773-2.471 1.018-3.224.248.114.593.286.758.506.216.286.257.767.204 1.114-.11.716-.535 1.325-1.103 1.75m84.968-2.869.061.072zm-10.335 4.953c-.209-1.167-.325-2.35-.46-3.527.749.593 1.495 1.938 1.958 2.791l-.097.237zm-39.114 8.925c-.258-.067-.431-.099-.623-.293-.168-1.083.374-2.266.715-3.282.063.06.068.057.117.158.288.588.581 2.625.444 3.216zm-7.689-2.475.074-.066zm95.324 20.172-.376-.066c.022-.278.103-.34.291-.543.694-.748 1.585-1.368 2.318-2.099q2.653-2.694 5.122-5.557c.126.681-.202 1.855-.228 2.609-.039 1.13.224 2.24.223 3.37 0 .74-.104 1.591-.671 2.13-.988.938-5.19.154-6.68.156m-170.713.085c-.038-2.457.479-4.888.946-7.288 1.182.872 2.184 2.17 3.198 3.238q2.016 2.09 4.062 4.15l-.09.147-.59.023c-2.344.035-5.258.379-7.527-.27m153.267 13.166c3.058-1.853 6.058-4.102 8.82-6.37.107.112.11.2.099.362-.06.823-.965 4.98-1.231 5.767-.179.528-.387.95-.776 1.35-1.526.513-3.83-.406-5.338-.809zm-135.613 1.049c-.957-2.275-1.155-4.775-1.266-7.214 1.5.797 2.92 2.029 4.298 3.025 1.373.992 2.902 1.929 4.156 3.059-.142.313-.215.258-.522.374-2.166.569-4.428.921-6.666.756m114.913 9.491c3.704-1.574 7.347-3.155 10.919-5.017l.082.125c-.613 1.144-1.225 2.29-1.69 3.505-.356.93-.593 2.065-1.085 2.922a1.28 1.28 0 0 1-.65.573c-1.414.622-4.177-1.025-5.489-1.58-.676-.238-1.388-.371-2.087-.528m-89.515.838c-1.049.494-4.318 2.144-5.427 1.487-.943-.558-2.487-5.758-2.716-6.933 1.317.482 2.594 1.146 3.873 1.726 2.085.944 4.19 1.857 6.248 2.86zm69.016 5.107c4.005-.87 7.922-1.812 11.86-2.953l.057.018c.037.207-.326.528-.461.699-.974 1.231-1.777 2.45-2.59 3.793-.472.78-1.189 2.181-2.19 2.337-1.321.207-3.025-1.395-4.038-2.133-.87-.599-1.76-1.174-2.639-1.76m-52.935 4.178c-1.701-1.37-3.602-4.653-4.248-6.764 1.802.434 3.57.997 5.38 1.414 1.969.454 4.013.776 5.948 1.355-.746.474-1.469.993-2.198 1.492a20.5 20.5 0 0 1-4.882 2.502m29.489-2.679 1.131-1.143c.19.042.326.104.487.213.31.21.535.447.596.811-.303.213-.457.114-.809.07-.457.064-.943.04-1.405.048"/></svg>