<svg xmlns="http://www.w3.org/2000/svg" viewBox="0 0 256 256"><path d="m0 143.18.017-.128c.319-2.519.372-5.132.54-7.67.339-5.164.666-10.34 1.2-15.488q1.1-9.795 2.768-19.51 2.343-15.118 5.9-29.997c.865-3.498 1.563-7.317 3.036-10.618.943-2.116 2.484-4.033 4.311-5.453 4.941-3.84 15.78-4.317 22.077-4.988.382-2.58.64-5.172 1.004-7.753.678-4.804 1.431-9.614 1.835-14.452-.336-.411-.67-.753-.784-1.287.099-.774.788-1.08 1.321-1.554l.844.658c.268.209.387.335.509.666-.009.563-.357 1.003-.66 1.455.39 2.572.559 5.2.856 7.788.375 3.259.863 6.503 1.267 9.758.174 1.408.232 2.877.463 4.267q4.87-.256 9.734-.602.904-6.346 1.594-12.718c.335-2.893.71-5.74.87-8.647-.342-.384-.66-.761-.943-1.192l1.555-1.557c.54.424 1.303.874 1.425 1.593-.057.313-.167.46-.345.711-.174.244-.318.438-.339.744-.101 1.451.276 3.195.44 4.65q.525 4.683 1.207 9.346c.318 2.271.702 4.565.817 6.857q25.7-2.225 51.48-3.075 25.548-.706 51.089.221 23.4.61 46.68 3.063 7.427.774 14.797 1.967c2.318.394 4.696.74 6.934 1.476 1.801.591 3.42 1.422 4.87 2.653 1.814 1.54 3.253 3.304 4.225 5.482 1.626 3.639 2.339 7.95 3.274 11.825q1.805 7.748 3.304 15.56t2.688 15.678q1.19 7.865 2.067 15.772.878 7.906 1.443 15.84.248 2.972.385 5.95c.06 1.287.015 2.69.245 3.952v22.904c-.21.879-.18 1.95-.235 2.857q-.15 2.637-.355 5.271-.692 10.178-2.148 20.274c-.54 3.905-.855 9.092-2.76 12.567-1.49 2.716-4.489 4.949-7.496 5.656-2.703.635-5.737.366-8.508.36l-10.942-.026-34.75-.012-14.605-.01c-9.514-.006-19.017.111-28.226 2.837-7.873 2.33-14.022 6.14-18.04 13.519-3.133-5.481-6.896-8.898-12.703-11.402-8.236-3.552-18.375-4.676-27.256-4.925-3.087-.086-6.162 0-9.248.005H63.45l-34.53.023-8.228.022c-2.324.007-4.759.173-7.042-.32q-.627-.137-1.236-.338-.61-.2-1.195-.463-.586-.262-1.141-.583-.556-.32-1.076-.697c-2.57-1.895-4.043-4.756-5.029-7.726-1.364-4.11-1.591-8.444-2.034-12.722q-.946-8.99-1.523-18.012c-.13-2.064-.069-4.254-.396-6.287l-.02-.118zM56.031 79.5l.074.14c-.012 1.11.47 2.537.945 3.534-.065-1.075-.468-2.575-.945-3.535zm138.479 8.51c-.75-.264-2.123-.237-2.855.054.618.383 1.98.181 2.711.115zc.28.2.413.243.741.23l.136-.23c-.257-.151-.394-.157-.684-.19zm-24.35 10.737c-.084.231-.153.312-.106.558.123-.236.118-.289.105-.558l.09-.1zM35.966 103.57c-.123.045-.358.106-.474.181-.284.181-.38.726-.44 1.047-.097.517.036.846.328 1.263.373.19.725.078 1.118.011-.368.138-.762.33-1.014.643-.4.498-.82 1.465-.633 2.123.106.368.193.413.497.606.565-.292 1.096-.698 1.625-1.053.044-.608.264-1.785-.112-2.284l-.363-.034c.009-.013.014-.03.026-.039.135-.11.308-.194.414-.337.453-.613.275-1.907.25-2.624zm92.434 9.001.261.058c-.048-.439-.161-.754.088-1.129-.025.211-.04.415-.05.626l.212.05c.076-.349-.008-.37-.162-.676l-.209-.21-.191.044c-.064.142-.087.174-.116.345-.049.287-.005.658.167.892m34.308 30.558c.909-1.29 1.435-2.9 2.238-4.266 1.441-2.451 3.737-4.114 6.471-4.811 4.212-1.074 6.875.067 10.453 2.173.165.286.254.308.55.466l.055.048-.055-.048c-.205-.276-.234-.343-.55-.466q-.03-.04-.063-.08c-1.611-1.877-4.114-2.723-6.51-2.895-4.388-.315-8.69 1.76-10.81 5.684-.623 1.152-1.077 2.834-2.065 3.692-1.127.419-2.937.257-4.113.08-.126-.115-.41-.41-.577-.445-.85-.177-2.189-.013-3.084.008-1.244.03-1.977.105-2.853 1.015a3.4 3.4 0 0 0-.454.64c.55-.202 1.104-.59 1.68-.694.983-.177 2.165-.073 3.167-.076zm-44.823-6.532-.003.176 1.186.871.02.079c.174.402.365.701.647 1.036l.23-.015.041-.259-.918-.762-.02-.079c-.038-.142-.067-.287-.144-.415-.21-.35-.682-.494-1.039-.632m7.427 2.208-.052.061zc1.095-.755 1.92-1.602 3.172-2.168 2.18-.986 4.682.3 5.353.048-.105-.084-.127-.11-.264-.18-1.58-.804-3.565-.715-5.197-.12-1.192.435-2.517 1.24-3.064 2.42m-5.282.446.053.143c.015.21.03.383.097.585.069.207.02.131.241.235-.034-.43-.091-.485-.337-.82zm-105.788 9.667c1.148-.077 2.296.019 3.442.104l.064.072-.064-.072a6 6 0 0 0-.424-.235c-1.154-.59-5.675-1.4-6.8-.93-.042.017-.078.043-.117.066-.332-.127-.472-.592-.777-.831l-.167.14c.019.145.012.17.091.32.203.38.866.857 1.277.968.418.113 1.107.123 1.429.425-.474.336-1.28.294-1.844.429-.298.07-.558.115-.718.39.72.6 2.043.437 2.927.776.246.095.495.183.742.275l-.286-.001.097.053c-1.055.085-2.778-.101-3.67.476l.015.199c.82.667 2.32.684 3.35.8-.933.186-2.432.37-3.22.917-.199.138-.138.062-.19.306.649.715 2.278.038 3.1.58l-.106.158c-1.003.345-2.126.445-3.176.592 1.135.846 2.384.911 3.694 1.346-1.084.232-2.356.278-3.343.807l-.028.214c1.092.582 2.891.712 4.12.96-1.214.214-3.02.263-4.065.927-.215.136-.156.059-.205.29.945.788 3.098.22 4.223.745-1.215.481-2.92.468-4.236.594-.01.31-.028.627-.018.937.007.236.08.48.278.623.685.494 2.256.037 3.102.047 17.37.2 34.778.008 52.154-.04l48.793.048 13.473-.014c2.775-.024 5.554-.133 8.329-.113l60.883.147 22.205.027c4.68.02 9.44.225 14.11-.063-1.399-.42-5.45-1.01-6.444-1.554-.53-.291-.627-.359-1.262-.338-.242.007-.114.042-.347-.13.285-.269.507-.173.87-.131 2.462.284 4.78.145 7.236-.116-2.738-.3-5.514-.64-8.203-1.25 2.13-.157 4.279-.265 6.38-.658-3.696-.595-7.546-.33-11.214.323.754.062 4.154.156 4.557.354-.2.206-1.337.234-1.688.28-1.052.136-2.052.471-3.092.645-.48.081-.98.052-1.458.138-.311.057-.42.171-.589.421l.112.18c1.217.276 2.609.135 3.867.3-1.864.713-4.33 1.333-6.295.773-.668-.19-1.296-.663-1.98-.755-1.37-.185-2.67-.092-4.05-.373 1.707-.306 3.592.206 5.242-.318-.211-.452-.43-.978-.34-1.482.276-.253.484-.184.85-.195l.02-.119c-2.141-.92-.745-1.926-1.706-3.215-.372-.217-4.94.332-5.729.42 1.626.278 3.248.37 4.884.548-3.844.86-8.046.366-11.766 1.775 2.305-.085 6.502-.344 8.575.31l.003.128c-1.063.388-2.41.348-3.539.501-2.226.302-4.792.951-7.027.792-1.778-.126-3.601-.718-5.326-1.147 1.808-.088 3.94-.336 5.67-.868-3.08-.742-7.829-.424-11.05-.153-.82.069-1.728.326-2.533.331-.064 0-.129-.011-.193-.017l-.017.162-.106-.012c2.376.047 4.894-.026 7.248.267l.151.02c-2.099.47-6.1 1.367-8.12 1.264-2.09-.107-4.37-.803-6.437-1.231 2.125-.235 4.168-.673 6.26-1.098-1.79-.508-3.059-.497-4.813-1.392l-.223-1.616c-.82.103-1.684.03-2.51.016-2.394-.038-4.572.012-6.857.811 1.903.026 3.745.596 5.604.609.339.002 3.446.506 3.634.595-.345.158-1.043.124-1.436.162-.959.093-1.92.208-2.882.26-1.437.077-5.436-.21-6.4.667.832.619 5.197.617 6.612.969.228.056.235.015.36.22-.091.05-.144.086-.238.124-1.867.758-9.627.784-11.793.6-1.668-.143-3.544-.375-5.095-1.03 1.303-.086 7.288-.793 8.234-1.091-.041-.046-.07-.106-.123-.138-.014-.01-6.77-.539-7.608-.67.923-.18 5.541-.814 5.589-.86-.861-.252-12.48-.284-13.1.045.815.59 3.171.356 4.195.369l.12.232.082-.061-.297-.153.309.118c-.287.115-.157.095-.433.1-1.801.025-3.747.799-5.44 1.387 2.55-.045 5.188.227 7.716.557-2.425.276-4.818 1.153-7.252 1.332-1.777.131-3.657-.427-5.413-.678-1.068-.152-2.127-.175-3.197-.286a45 45 0 0 1 6.656-1.287c-2.238-.508-4.688-1.137-6.978-1.265-1.161-.065-2.367.075-3.533.108-1.405.039-2.79.055-4.172.335-1.72.349-3.721 1.321-5.472 1.207-1.683-.11-4.655-1.341-6.336-1.882.725-.218 1.456-.431 2.204-.555.692-.114 1.54-.049 2.183-.316l-.336-.004.207-.041c-.928-.292-1.98-.249-2.945-.314-3.22-.215-4.74-.439-7.952.212.664.125 1.299.45 1.946.658 1.208.388 2.38.613 3.635.786-1.831.476-4.205 1.278-6.083 1.196-1.696-.072-3.5-.599-5.2-.839 1.737-.247 3.37-.58 5.044-1.103-3.218-.328-6.41-1.201-9.659-1.294-1.112-.032-2.25.116-3.356.219.629.078 1.578-.032 2.092.36-.477.383-2.672.75-3.43.955 1.776.352 3.442.29 5.221.471-1.2.068-2.434.62-3.6.918-1.504.385-3.034.627-4.573.818 2.403.2 4.8.18 7.207.255-4.565 1.397-7.144 1.066-11.743.227 1.311-.238 2.633-.3 3.944-.578-.984-.161-1.976-.196-2.963-.316-1.337-.164-2.674-.402-4.007-.6 2.861-.304 5.755-.66 8.592-1.131-1.961-.277-3.914-.232-5.823-.825-.637-.243-1.57-.28-2.257-.397 2.478-.431 4.99-.681 7.484-.982q-2.6-.529-5.092-1.444c2.088-.052 4.135.041 6.215-.248-2.833-.159-5.583-.52-8.39-.93 2.752-.42 5.513-.662 8.273-1.011-1.454-.157-2.932-.16-4.382-.353-1.616-.215-3.027-.84-4.702-.758-1.514.075-2.93.653-4.423.796-1.017.097-2.116-.079-3.104.179-.062.254.04.338.146.57.726.143 1.52.018 2.257-.006 1.412-.047 2.856-.059 4.242.241l.204.046c-1.316.302-3.687 1.063-4.96 1.02a1.8 1.8 0 0 0-.523.053c.056.056 4.8.512 5.359.599-2.054.508-4.213.769-6.23 1.358 1.215.058 3.453-.034 4.55.337-.29-.007-.5-.006-.773.096-1.609.609-3.27.874-4.866 1.577 2.297-.12 4.61.404 6.916.477-1.104.205-2.233.388-3.307.72-1.306.403-2.538.977-3.876 1.286 2.223.12 4.453 0 6.667.147l.045.084c-.911.248-1.87.228-2.8.377-1.117.18-2.192.584-3.31.745-1.611.23-6.024-.514-7.69-.995 2.126-.022 4.234-.42 6.36-.539-1.606-.565-4.278-1.088-5.953-1.116l-.182-.002.118-.09-.129.03c1.372-.274 5.255-1.042 6.462-1.024.041 0 .082.013.122.02l-.008-.088c-1.19.017-2.322-.218-3.493-.383-1.932-.272-3.85-.521-5.773-.863 1.004-.135 2.045-.112 3.058-.174q2.925-.181 5.846-.411c-1.628-.318-3.031-.927-4.723-1.058q2.291-.421 4.598-.752c-2.025-.868-4.363-.978-6.527-1.236 1.603-.249 4.048-.05 5.466-.647l-.028-.151c-1.415-.595-3.081-.516-4.546-.96-.245-.075-.432-.079-.557-.307 1.849-.567 4.125-.201 6.05-.392-1.89-.735-9.206-.253-11.45.081l-.124.13-.108-.01.003.123c.582.287 1.901.215 2.6.314-1.677.515-3.66.522-5.408.86 1.914.135 3.918.28 5.724.976-1.395.137-8.267.734-9.007 1.154 2.485-.01 4.882.137 7.355.301-2.275.4-4.462 1.155-6.74 1.57 2.223.38 4.588.352 6.845.578-2.494.567-4.454.634-7.035 1.435 2.39.332 4.971.363 7.385.365-1.133.291-2.326.368-3.479.57-1.664.291-3.287.714-4.967.93 2.091.254 4.301.112 6.348.545-2.523.291-4.992.964-7.513 1.292q4.042.403 8.101.551c-1.903.292-3.656 1.027-5.531 1.349-2.32.398-7.31-.941-9.766-1.442 1.501-.192 2.963-.162 4.466-.246.961-.054 1.916-.2 2.877-.267-1.83-.5-3.678-.754-5.568-.893 1.92-.328 3.851-.585 5.772-.904-3.01-.49-6.05-.302-9.048-.878 1.711-.23 3.445-.178 5.153-.412 1.282-.175 2.513-.571 3.761-.903-1.427-.213-2.863-.424-4.298-.578-1.007-.109-2.151-.097-3.122-.38l-.004-.134c.689-.41 2.49-.09 3.355-.153 1.701-.125 3.357-.392 5.073-.462-1.812-.303-3.517-.852-5.302-1.251a18 18 0 0 0 3.287-.631c-1.9-.337-3.733-1.048-5.648-1.247l-.161-.016-.115-.148.125-.097c.132.09.058.065.224.071l.073-.221.186.09c2.004-.208 4.057-.202 6.069-.256-2.154-.603-4.5-.883-6.71-1.24 2.059-.084 4.117-.287 6.179-.377-3.124-.805-10.134-.858-13.231-.198 1.675.24 3.403.325 5.09.501-1.253.358-2.557.49-3.836.727-1.223.226-2.405.551-3.597.9 1.795-.012 3.607.085 5.398.209l-.005-.002.19.105c-1.11.514-4.278.921-5.616 1.196 1.637.178 3.305.216 4.95.363-.61.062-8.363 1.75-8.652 2.02.564.233 1.89-.044 2.536-.059 1.959-.045 3.947.047 5.904.14-2.954 1.109-6.373 1.295-9.504 1.546.359.07.721.131 1.08.206 2.026.421 4.104-.4 6.17.149-1.827.53-3.673.474-5.523.819-1.03.192-2.006.626-3.053.834 1.538.168 3.05.444 4.6.512 2.263.101 4.561-.02 6.815.187-2.278.467-4.48.431-6.788.482-1.898.042-3.795.296-5.693.28-2.774-.024-5.603-.34-8.374-.203l-.21.012-.063-.1-.384.031c.322-.265 5.637-.52 6.497-.626 1.43-.178 2.806-.556 4.247-.68-2.56-.433-5.163-.67-7.738-.997l.08-.025c.99-.34 2.143-.265 3.182-.376q1.7-.197 3.39-.45c-1.13-.24-2.244-.577-3.373-.836-.978-.224-1.993-.298-2.93-.672 2.25.044 4.468-.294 6.694-.589-2.042-.938-4.394-.998-6.57-1.419 1.966-.032 3.823-.27 5.755-.603-2.45-.798-4.925-.738-7.395-1.282 2.466-.584 4.92-.291 7.416-.562-1.552-.275-3.127-.45-4.687-.673-1.033-.147-2.037-.39-3.082-.43l-.113-.144c.244-.084.146-.077.394-.062 1.94.117 3.86-.09 5.77-.433-2.373-.251-5.006-.513-7.38-.439-1.48.046-3.012.314-4.492.463 1.497.248 3.05.301 4.56.497-2.44.182-4.935.65-7.3 1.27 2.217.07 4.45-.08 6.651.261-2.021.755-4.303.799-6.27 1.725 1.228.034 2.458.136 3.687.135.594 0 1.248-.167 1.83-.089.048.007.095.02.143.03l-.225-.075.1.144c-2.682.549-5.074 1.212-7.62 2.222 2.846-.197 5.685-.012 8.53-.177-1.12.46-2.296.681-3.465.975-1.99.499-3.95 1.017-5.858 1.78 1.408.035 2.813.14 4.22.205.823.038 1.648-.005 2.467.098-.091.146-1.988.444-2.354.545-.643.176-1.647.45-1.962 1.076-.132.262.005.087-.178.285l-.128-.235c-.417-.031-1.02.237-1.356.478l.086.148c1.261.37 5.671.448 7.332.607-2.356.685-5.444 1.687-7.874 1.308-1.658-.26-3.326-.888-4.98-1.243 1.038-.078 4.002-.085 4.798-.529-.773-.466-3.088-.763-4.264-1.255q1.767-.356 3.52-.778c-1.263-.396-2.496-.949-3.758-1.368q1.87-.1 3.739-.218c-1.287-.434-2.52-1.052-3.754-1.616l3.54-.722c-1.258-.388-2.503-.77-3.793-1.046 1.311-.326 2.664-.52 3.996-.745-1.328-.438-2.608-.897-4.006-1.045 1.492-.562 2.892-.596 4.469-.58-1.36-.354-2.715-.847-4.056-1.274m22.228 34.27-.064.04zc.929-.368 1.837-1.128 2.637-1.718.776.807 1.722 1.341 2.675 1.909-.267-.83-.996-2.039-.884-2.9.1-.778 1.989-1.762 2.645-2.193a35 35 0 0 0-3.33.098c-.54-.447-1.003-2.443-1.348-3.169-.37 1.03-.58 2.133-.834 3.196-1.08-.122-2.149-.148-3.234-.164.875.768 1.758 1.38 2.803 1.897-.496.98-.842 1.988-1.13 3.044m6.56-145.357c-.097.294-.31.673-.21.965l.14.063c.064-.354.172-.677.07-1.028m15.996.866c-.29 1.028-.137 2.243-.069 3.299.16.187.069.146.238.182.019-.99.22-2.566-.169-3.481m-16.203.595c-.22.605-.189 1.826.07 2.43q.022.05.049.1c.067-.721.334-1.927-.119-2.53m16.346 9.375c-.213.871-.555 2.377-.088 3.197.018.03.042.057.063.086l.404-.016c.332-.508.23-1.884.105-2.485-.074-.358-.174-.587-.483-.782m-15.957.444-.55.575c-.042 1.002-.087 1.99-.002 2.992l.14.097.032-.008c.191-.121.725-.37.78-.575.209-.763-.06-2.253-.3-2.981zm85.175.82c-2.905.105-5.815.094-8.722.175q-12.327.3-24.639.962-8.342.43-16.674 1.037c-5.062.367-10.144.814-15.215 1.016l.133 1.423c3.979-.187 7.954-.574 11.93-.837q15.171-1.085 30.367-1.76 16.072-.727 32.16-.728 16.09-.002 32.161.722 21.225.83 42.317 3.344c4.833.59 18.652 2.065 22.027 5.064 2.092 1.86 3.726 9.784 4.404 12.654q1.97 8.453 3.568 16.985 1.597 8.532 2.817 17.127t2.062 17.233 1.3 17.308c.225 3.117.21 6.223.28 9.344.128 5.608.247 11.252-.04 16.857-.486 9.478-1.76 18.947-2.965 28.356-.094.735-1.047 6.885-1.008 7.048.016.067.19.216.22.235.224.143.563.23.815.321 1.43-6.669 2.163-13.014 2.878-19.767.69-6.518 1.423-12.977 1.64-19.538.178-5.404-.017-10.86-.18-16.262q-.275-8.4-.913-16.78-.637-8.38-1.635-16.725-.997-8.345-2.353-16.64-1.356-8.293-3.067-16.522c-.954-4.587-3.499-17.56-5.839-21.129-1.98-3.02-6.536-3.76-9.841-4.42-10.244-2.045-20.722-2.983-31.121-3.835q-19.828-1.706-39.724-2.163-8.988-.236-17.979-.165c-3.03 0-6.143-.14-9.164.06m3.17 3.14c-2.357.103-4.718.05-7.076.081-3.084.04-6.174.157-9.257.254q-17.963.63-35.9 1.791l-9.778.7c-2.014.146-4.076.218-6.071.532.325 2.265.414 4.557.502 6.84 1.293 1.226 2.216 3.993 2.256 5.759.067 2.93-.718 8.136-.047 10.738.124.482.43.928.694 1.345.08-2.369.011-11.15 1.12-12.634l.18.064c.612 1.358 1.245 8.38 1.517 10.3.255 1.792.744 3.7.83 5.5.072 1.525-.022 3.428-.342 4.928 5.493.059 10.977.393 16.465.581 4.71.163 9.418.18 14.127.298 4.874.123 9.752.31 14.629.19q4.616 4.867 9.02 9.927c-.42 2.527-.182 5.36-.165 7.927l5.43.833q.027-.082.051-.164c.32-1.092-.187-2.565.571-3.43.17-.054.271-.145.44-.041.264.162.389.464.532.728-.051 1.083-.125 2.115.198 3.166 2.96.525 6.714 1.493 9.593 1.625.02-.942.168-2.072.024-2.995-.036-.228-.415-.525-.416-.637-.003-.413 5.059-5.365 5.706-5.99.32-.309.652-.641 1.047-.845q.071.035.145.066c1.275.519 5.734.26 7.235.165.406-3.4 1.027-6.779 1.57-10.16.316-1.978.504-4.146 1.035-6.07.114-.412.22-.815.56-1.096.298.166.328.372.415.688.481 1.747.646 3.676.969 5.467.661 3.663 1.392 7.317 1.943 10.998l6.73.01c.721-2.078 1-4.23 1.395-6.385l1.282-6.754c.192-1.037.244-2.89.772-3.751.256-.1.245-.107.5-.01.632 1.329 1.086 5.574 1.386 7.235.57 3.158 1.292 6.296 1.759 9.47 1.987.088 3.98.076 5.968.084 1.167.005 2.502.117 3.651-.092.319-.058.585-.25.845-.433l.231.048c.727 1.159-.117 2.813 1.013 3.736.313-.582.655-1.17.794-1.822.55-2.575.319-9.579.233-12.51-.5-.374-1.19-.843-1.442-1.422-.077-1.16.876-.91.356-2.925l.072-.14c.311-.59.677-1.12 1.064-1.664l-.083-.167-.106-.224c-.036-.073-.078-.142-.11-.217-.092-.22-.091-.231-.085-.463.025-1.021.37-2.175.493-3.206.268-2.279.368-4.656.785-6.91l.043.168c.792 3.191.424 7.733 1.42 10.85.245.044.238.025.459-.043.883-.269 2.026-.092 2.957-.206.509-3.369 3.591-24.916 4.311-25.976l.17-.05c.665.786 4.16 23.218 4.524 25.941q2.124.054 4.247.007c.307-2.248.427-4.536.61-6.798.086-1.062.09-2.197.346-3.228l.096-.04c.3 1.033.303 2.234.41 3.307.271 2.727.43 5.571.916 8.264.352.404.638.782.892 1.254-.366.573-.964 1.28-.765 2.005.124.451.583.65.963.85-.288.643-1.506.941-2.105 1.256-.092 4.268-.164 8.935-.02 13.192h10.138c1.836-.002 3.888.15 5.697-.136.255-.04.484-.144.672-.327.724-.708.176-2.71 1.11-2.856.169.57.22 1.06.224 1.655.488.637.958 1.194 1.602 1.685 1.638-.01 12.85.05 13.337-.38.374-.33.603-.554 1.118-.608.067-.007.135-.019.202-.027l.14-.013c-1.018-3.84-1.388-7.875-2.094-11.785q-1.899-10.4-4.531-20.639c-.573-2.147-1.099-4.905-2.232-6.824-.347-.585-.908-.99-1.485-1.329-3.036-1.786-7.315-2.205-10.749-2.796-10.355-1.78-20.896-2.698-31.37-3.457q-22.479-1.687-45.02-1.853c-4.448-.059-9.052-.29-13.488.02m-75.974.613c-2.442.182-6.02.224-8.314.669-.196.364-.241.675-.101 1.073.059.168.03.144.177.203.193.078.126.051.375.043 2.758-.126 5.505-.417 8.264-.553.047-.419.183-.972.016-1.367-.295-.102-.155-.089-.417-.068m-17.397 1.49c-4.629.5-12.153.883-16.125 3.222-.73.43-1.386 1.05-1.916 1.71-2.22 2.766-4.245 12.816-5.13 16.697q-1.565 6.916-2.86 13.888-1.293 6.972-2.314 13.989t-1.768 14.069-1.217 14.126q-.789 10.266-.933 20.56.028 10.373.689 20.725c.295 5.315.564 10.65 1.184 15.94.213 1.817 1.12 11.573 2.254 12.523.301.252.61.31.99.321-.457-1.554-.587-3.252-.823-4.857q-1.05-7.328-1.602-14.71-.267-3.332-.47-6.668-.204-3.337-.343-6.676t-.215-6.681q-.075-3.341-.086-6.684t.042-6.684.17-6.683.3-6.677q.18-3.338.426-6.671.245-3.333.554-6.661t.683-6.65.81-6.635q.436-3.314.936-6.618t1.064-6.6q.564-3.294 1.19-6.577.627-3.283 1.317-6.554.69-3.27 1.441-6.527c.8-3.431 2.82-12.568 4.265-15.276.908-1.702 2.811-2.703 4.602-3.213 2.85-.81 5.991-1.211 8.93-1.572 1.41-.173 2.95-.24 4.323-.593.381-.098.67-.18.908-.5.024-.32-.032-.389-.18-.68-.42-.247-.619-.163-1.096-.123m20.904.977c-.066.461-.16.843.024 1.283.183.158.246.197.486.28-.014-.421-.013-1.087-.313-1.416-.044-.047-.143-.11-.197-.147m-16.062.564c-.193 1.108-.43 3.804.057 4.79.264.088.147.082.347.064.414-.706-.026-3.788-.248-4.674zm11.249.214c-2.275.13-4.556.23-6.824.454.47 2.136.208 4.4.563 6.55 1.125 1.29 1.591 2.755 2.519 4.151-.345 1.727-.34 10.291-.014 11.951.124.632.411 1.173.764 1.702.224.335.476.643.741.946.68-.872.453-10.82.574-12.622.067-.993.551-.804.377-2.25-.149-1.23-.498-2.628-.285-3.855l.157-.162c.518.252.76 1.194.94 1.72q.178.511.344 1.026c.033-.939-.051-1.664.593-2.41l.151-.18.11-.129c.233-.957.198-1.948.255-2.926.077-1.34.21-2.688.496-4zM38.572 58.18c-3.413.403-13.586 1.052-15.777 3.827-2.807 3.552-9.572 38.237-9.712 43.512 1.669.092 3.366.164 5.03.005l.062-.005c.725.115 1.784.276 2.41-.204.28-.216.523-.509.79-.745l.224.03.067.131c.299.566.533.849 1.151 1.047.788.252 1.696.084 2.502-.01 1.718.986 3.294 1.98 5.213 2.531.72-3.77.971-7.688 1.371-11.505.138-1.314.207-2.676.449-3.973.237-1.27.814-2.447 1.112-3.702-.53-1.666-.779-3.357.041-4.994.432-.86 1.055-1.701 1.336-2.628.44-1.448.334-3.282.416-4.79.163-3.005.408-4.662.99-7.578.138-.692.218-1.428.438-2.099.958-2.913 2.158-3.751 2.285-7.148.017-.442.098-1.021.023-1.454-.019-.107-.063-.154-.12-.233zm20.81 1.638c-.535.79-.484 1.859-.315 2.766l.253.266c.419-.43.337-1.024.33-1.608-.006-.5.033-1.015-.268-1.424M44.203 65.04c.03.777-.111 2.747.351 3.296.014-.978.216-2.472-.351-3.296m11.26.41-.049.21.113.098.086-.255zm-16.968-.124c-.62 3.257.002 6.753.068 10.033.427-1.411.626-8.606.077-9.91zm22.767.485c-.033.498-.114 1.002.05 1.482l.136.114c.022-.539.081-1.108-.187-1.596m-5.778.251c.003.433-.112 1.882.149 2.17.03.032.071.051.106.077.043-.721.092-1.587-.255-2.246m-12.88 2.566c-.852.725-1.14 1.555-1.22 2.659-.1 1.361-.164 8.55.423 9.464l.185.014c.149-1.28.152-2.54.462-3.799.142-.58.57-1.656.451-2.203-.026-.122-.197-.326-.269-.438-.622-.965-.67-2.213-.45-3.316.127-.63.328-1.159.823-1.581.315-.07.444-.128.727.088.35.266.492.915.629 1.323.203.806.177 2.053-.253 2.779-.374.63-.966 1.047-.828 1.851.034.194.018.136.134.266.898 1.01.615 2.702 1.077 3.947.255.688.702 1.266 1.136 1.847-.172-1.019-.474-2.067-.546-3.094-.11-1.574.252-8.507-.36-9.5a5.9 5.9 0 0 0-2.122-.307m17.206.25c-.411.135-1.039.322-1.268.734-.488.875-.358 8.274.107 9.212.115.233.276.264.495.388l.138-.125q-.037-.103-.07-.207c-.208-.659-.29-2.12.12-2.722.215-.317.306-.308.659-.374.17.092.306.172.46.292.219.857.276 1.723.464 2.58.468.447.937.765 1.487 1.095-.885-2.392-.53-5.279-.515-7.807.004-.706.078-1.546-.11-2.229-.076-.276-.215-.418-.462-.554-.42-.231-1.036-.238-1.505-.282m-4.156 3.08c-.2.919-.302 1.848-.124 2.779l.133.169c.52-.899.31-1.796.156-2.765zm-1.229 1.975-.026.28.12-.118.063-.204zm-17.656.154c-.019.507-.105 1.102.057 1.587l.158.131c.038-.535.081-1.01-.04-1.538zm17.685 1.33.074.093-.048-.1zm-15.958.74.037.056zm17.007.039-.124.743.178.15c.097-.35.094-.543-.054-.893m-18.479.355-.017.392.197.002.031-.384zm160.197-.114c-.469-.006-.912-.026-1.37.082.512.268 1.294.18 1.868.165.457.005.975.066 1.405-.108-.507-.17-1.386-.287-1.903-.138m-142.624.626h.152zm-17.537.874c.133 1.59-.31 5.049.273 6.367.135-1.411.37-5.19-.273-6.367m17.571.246c-.02 1.448-.49 5.597.187 6.64.114-1.175.316-5.76-.187-6.64m142.616 3.47c-.123.33-.239.464-.127.807l.535.379c.093-.374.145-.535.002-.91-.142-.119-.238-.204-.41-.276m-.498 1.171c-.18.603-.57 1.563-.421 2.171l.128-.011c.05-.354.02-.53.272-.79.382.05.453.144.745.381l.204.044c.266-.262.403-.484.577-.816-.032-.302-.023-.382-.299-.568-.148-.1-.375-.16-.544-.222-.058.025-.113.062-.175.075-.077.017-.158.01-.237.015zm-139.723.417.117.072zm-1.307.283-.004.362.146.01.11-.101-.036-.228zm150.538.576.082.411.139.009.108-.109.279-.191a1.6 1.6 0 0 0-.608-.12m-1.592.287.02.18.13-.088-.008-.173zm-14.09-.036c-.283.3-.516.455-.601.863l.125.157c.285-.307.504-.455.587-.871zm15.217.14.136.072zm-143.883.459c-.91.072-1.797.155-2.693.33 1.733 2.35.264 3.467 3.413 6.506 1.26.114 2.514.102 3.777.097a13 13 0 0 0 1.65.036q.41-3.544.735-7.096c-2.275.013-4.618-.088-6.882.127m144.387-.154c-.05.425-.162.793.014 1.191.21.11.41.224.635.303l-.022-.192a6 6 0 0 1-.027-.578c-.158-.308-.352-.493-.6-.724m-1.643.154c-.269.287-.483.501-.605.887.065.381.076.395.354.664.27-.228.53-.444.602-.813a.67.67 0 0 0-.208-.645c-.042-.039-.095-.062-.143-.093m1.161.47.017.206.072-.016-.009-.21zm-9.498.047c-.27.263-.516.457-.604.84.083.284.102.347.31.552.263-.233.432-.426.471-.794.03-.286.003-.388-.177-.598m-6.942.11-.228.378.092.13.19.005.187-.157c-.108-.285-.025-.168-.242-.357m8.184.208.008.23.088-.025-.025-.221zm.58.014c-.156.306-.165.342-.129.684l.17.176.131-.812-.066-.079zm-1.303.109.082.108.025-.005zm1.691.035.077.154.03.01zm-8.632 1.514a18 18 0 0 0-1.581.11l-.012.1c.309.09.612.178.928.239.515-.038 1.003-.034 1.47-.278-.155-.173-.57-.155-.805-.171M39.84 87.421c.05.383.049 1.238.283 1.513.189-.249.295-.505.414-.79.274.34.218.768.533 1.064.202-.18.184-.25.47-.23.823.061 1.277.522 2.084.063.43.13.959.368 1.406.273l.368-.395.186.12c.136.086.281.18.42.258.655.367 2.067-.199 2.805-.107.433.054.661.371 1.116.352.161-.206.236-.359.476-.465l1.479.535a5 5 0 0 0 .503-.321c.814.026 1.892.236 2.669.07.295-.062.434 0 .717.089l.2.02c.274.033.477.131.723.248.224-.074.362-.18.546-.327.286.203.025.439.375.41.197-.436.21-.802.03-1.246-.12-.293-.332-.61-.624-.753-.103-.05-11.914-.213-13.089-.232-1.327-.022-2.81.232-4.09-.15m-3.321.187c-.715.286-2.078.64-2.394 1.374.254.202.258.157.564.17.239-.18.254-.25.365-.517.246.313.28.44.703.507.439.07.852-.05 1.175-.35.176-.163.262-.297.337-.528-.044-.341-.038-.368-.271-.617-.16-.02-.317-.046-.48-.04m171.316.245-.115.222c.257-.002.151.044.326-.118l.283-.195c-.165.025-.335.037-.494.09m-11.972.177.077.116.048-.016-.045-.134zm.813-.069-.014.259c.31.019.166.045.433-.064l-.01-.249c-.3-.022-.165-.048-.41.055m.67-.033c.208.198.32.361.641.315.08-.011.153-.049.23-.073l-.012-.248c-.32-.084-.538-.042-.86.006m1.438.043.006.21c.78.079 2.34.34 3.026.05l.125-.157c-.44-.286-2.496-.29-3.067-.151-.033.008-.06.032-.09.048m7.9.019.072.034zm-17.89 1.046-.163.28c.145.22.153.213.405.253.452.07 1.006-.038 1.461-.095l.257-.105-.002-.142c-.628-.25-1.292-.23-1.958-.19m3.287.474c-.21 2.082-.24 5.603-.034 7.67l.944.02c.05-1.62-.345-4.659.924-5.828a1.8 1.8 0 0 1 1.341-.467c.44.025.79.188 1.076.525.204.243.368.513.524.788.012 1.088-.236 4.574.228 5.378l.185-.032c.618-1.089.13-4.163.233-5.537.3-.488.598-1.093 1.174-1.291.37-.127.752-.007 1.061.206.547.377 1.038 1.032 1.492 1.528-.004 1.52-.195 3.225-.019 4.721.334.267.587.347.617.816.022.364-.028.734-.26 1.008-.337-.007-.315-.01-.557-.247-.017-.067-.028-.135-.051-.2-.03-.08-.07-.154-.106-.231l-.203.586-.16.011c-.188-.502-.122-.894-.058-1.41l-.198.029c-.046.192-.083.202.003.39-.019.34-.009.645-.139.963-.25-.395-.297-.855-.325-1.315-.499 0-.992.004-1.488-.052l-.192.157c-.01.401.05.96-.19 1.29-.288.075-.369.055-.629-.107a2 2 0 0 1-.323-.28l-.123.365c-.275.048-.454.06-.728 0-.085-.484.317-.74.245-1.227-.683-.35-1.942-.183-2.707-.171-.004.36.113 1.341-.18 1.569-.067.052-.149.08-.223.119-.621-.453-.038-1.559-1.067-1.754-.319.119-.498.182-.734.439-.164.55-.105 1.104-.084 1.671 3.575.032 7.188-.183 10.753-.06.005-3.291.156-6.677-.071-9.958-3.263-.14-6.687-.21-9.951-.082m-156.325.645c-.005.36.025.517.163.847.046.109.108.262.12.38.07.668-.146 1.617-.16 2.321-.052 2.542-.002 5.073-.124 7.615-.01.22-.104.796.145.878.223.074.443.001.666-.04.076-.085.168-.163.213-.268-.013-1.762-.05-3.526.016-5.287.053-1.43.297-3.13.118-4.544-.028-.222-.098-.384-.185-.584-.067-.156-.128-.313-.197-.468.202-.133.328-.16.56-.213l.099-.203-.156-.396c-.43-.109-.84-.064-1.279-.038m-.935.165.07.633c.17.13.086.114.228.115.01-.256.086-.369-.096-.564-.14-.148-.078-.097-.203-.184m22.36.342-.1.039c-2.592.919-15.458-.376-16.495.394.137.2.17.212.381.31.401 1.205.194 7.265.11 8.808.271.341.535.507.458.974-.034.207-.146.439-.222.635l.148.067.367-.406c.201.055.291.1.468.216.663.432 3.563.092 4.404.068-.15-.401-.278-.943-.589-1.245l-.291-.037c-.294.306-.014.456-.43.675-.33-.073-.379-.076-.568-.383-.622-1.013-.279-3.45-.264-4.65.017-1.055-.075-2.88.718-3.687.283-.059.313-.076.563.103.514.368.681 1.28.755 1.862.222 1.778.047 3.648.039 5.437-.003.609.09 1.223.105 1.837.688.434 1.224-.062 1.89.033.023.004.218.145.245.151.346.08 1.099.07 1.444-.017.362-.091.203-.48.602-.345.273.306.3.413.732.413.363 0 .75-.258 1.04-.449.182.227.224.355.525.404.285.046 2.236.07 2.406-.094.192-.186.264-.459.355-.703l.176-.04c.06.263.03.48.005.745.15.2.108.199.368.281.192-.207.207-.31.28-.576.4-.017.444.483.876.404.404-1.942.356-7.696-.088-9.642-.12-.526-.04-1.03-.253-1.537zm-22.888.277.096.276.166.003-.048-.31zm.448.857.038.07zm136.568-.057.042.69c.062.946-.26 2.13-.353 3.096.244.018.356-.015.585-.084l.256.053c.398-.638.12-2.669.046-3.456-.21-.234-.265-.226-.576-.3m-136.82.433c-.319 1.442-.701 8.367-.417 9.76.263.213.3.214.653.164.092-.013.171-.04.258-.067-.167-.208-.381-.45-.464-.707-.527-1.636.682-7.917.297-8.87-.04-.1-.237-.23-.327-.28m123.12 0c.005.967-.505 2.745-.03 3.496.161.087.301.179.483.215.2-1.04.438-2.585.068-3.602zM62.74 93.746c.125 1.102.428 5.74 1.012 6.265 1.423.27 2.998.257 4.448.316.06-.33-.044-.515-.154-.822l.146-.087c.332.234.424.633.806.735.277-.242.253-.445.277-.81l.005-.112c-.09-.438-.089-.679-.385-1.021-.509-.118-1.46.157-1.812-.085.417-.416 1.378-.402 1.958-.46-.108-1.25-.267-2.478-.542-3.702-1.141-.002-2.39.166-3.508.092-.762-.051-1.46-.29-2.25-.31m11.103 3.084c-.34.32-.677.645-.694 1.142-.01.272.05.48.237.689.301.338.754.343 1.169.383.364-.296.652-.565.661-1.077.006-.323-.16-.615-.401-.823-.28-.24-.618-.286-.972-.314m13.875.147c-.378.321-.704.594-.737 1.128a.95.95 0 0 0 .335.786c.26.235.603.305.94.349.385-.311.7-.572.713-1.115a1.01 1.01 0 0 0-.358-.792c-.248-.224-.576-.288-.893-.356m7.897-.001c-.42.272-.77.52-.856 1.055-.06.37.09.701.345.96.216.218.521.317.812.39.42-.268.732-.484.846-1.01.07-.323.014-.633-.188-.899-.235-.31-.594-.426-.959-.496m7.756.139c-.275.4-.514.797-.421 1.305a1 1 0 0 0 .555.71c.311.154.65.112.983.085.334-.346.567-.626.512-1.147-.035-.326-.22-.589-.487-.772-.355-.242-.735-.229-1.142-.181m8.881.214c-.305.399-.568.751-.483 1.287.047.299.244.55.507.694.282.154.614.136.925.135.309-.362.567-.69.533-1.2a.91.91 0 0 0-.452-.737c-.294-.184-.692-.2-1.03-.179m88.527.363.066.175.069-.003-.006-.204zm.629-.004h.145zm-42.869.68.14.07zm.605.07h.136zm11.653.055.129.07zm.938.124.166.045-.133-.06zm.834.07h.165zm-13.202.375-.085.204.106.053.103-.208zm-2.989.04c.174.069.107.081.196.055l-.051-.136zm1.029.034.094.07zm.88.019.097.084zm1.758.032h.133zm11.785.22.093.104.013-.001zm-.607.082.09.042zm-107.637 1.32q.145 1.772.35 3.538c1.052.017 4.779.21 5.492.005a1.5 1.5 0 0 0 .082-.636c-.3-.52-.633-1.035-.657-1.653l.21-.237-.075.082.337.112.006-.138c-.92-.963-4.405-.983-5.745-1.074m127.718.027c.095.846.287 1.635.523 2.452.709.04 1.387.046 2.096 0 .061-.767.075-1.461.687-2.01.3-.065.57-.12.85.064.27.179.424.405.463.728.047.395-.075.812.154 1.16.424.093.742.066 1.17.006.109-.238.094-.372.103-.632.02-.543.055-.994.445-1.403.454-.177.868-.114 1.303.117.125.067.222.148.332.233.233.51.29.892.317 1.447l.013.232.005.14 2.222-.013v-2.541c-3.554.046-7.13.146-10.683.02M73.431 102.34c.172 3.281.221 6.631.182 9.917-.037 3.097-.389 6.31.343 9.36l40.143.125c2.637.017 5.274.123 7.911.124-.002-3.324.05-6.66-.023-9.983l-27.388-.017-8.1.033c-.92.007-1.848.093-2.764.074l-.16-.03c-2.254-.37-7.906.536-9.748-.178l.051-.133c1.47-.451 3.64-.153 5.18-.155l6.935-.041 35.983.034q.028-4.482.003-8.965l-35.067-.126c-4.491-.004-8.99-.091-13.48-.039m151.719.026c-1.475.936-6.931 4.02-7.324 5.444.982.37 2.065.265 3.1.25l7.57-.07c-.546-1.397-1.7-4.514-2.767-5.45zm-183.793 1.171c-.124.952-.437 2.792-.137 3.681l.235.13c.313-.125.381-.131.57-.404-.007-.224-.083-.741-.024-.929.095-.306 1.625-1.921 1.936-2.325.293.376.683.804.875 1.239.24.547.988 2.841.931 3.32-.09.755-.299 1.484-.357 2.245-.132 1.717-.033 3.483.006 5.202.458.37.756.707 1.065 1.209.242-.017.437-.08.666-.157l.114.125-.453.236c.069.301.213.566.293.864.54 2.024.685 3.953.677 6.04-.001.294.085 1.08-.061 1.317-.097.156-.217.234-.363.34q.058 2.659.04 5.318l10.994-.012-.122-2.293c-1.218-.002-2.499-.039-3.682-.347.87-.434 2.685-.127 3.705-.219l-.002-1.736c-.998-.041-4.765.122-5.391-.297l.005-.14c1.391-.256 3.998-.206 5.462-.212.036-.878.257-2.064-.294-2.808-.928-.592-3.577.337-4.106-.165l.15.098.004-.158c.46-.113.9-.207 1.37-.26.963-.16 1.916-.124 2.886-.176.018-.646.203-1.733-.24-2.252-.157-.184-.312-.174-.536-.231-.86.193-1.763.906-2.663.465.731-.572 2.46-.513 3.397-.747.016-.694.018-1.368-.04-2.061q-.07-.019-.142-.036c-2.855-.655-6.024.07-8.889-.558 1.22-.365 6.996.15 9.03-.157-.015-1.1 0-2.211-.085-3.309-2.012-.016-4.27.18-6.196-.46 1.991-.4 4.24-.324 6.273-.306l-.054-1.684c-.77-.093-1.54-.194-2.314-.249l-.002-.103.084.177.01.005-.1-.082c.61-.339 1.647-.098 2.342-.009-.003-1.16.096-6.312-.55-6.96-1.455-.268-3.05-.14-4.529-.109.007.655.037 1.262-.15 1.898l-.142.02c-.29-.627-.273-1.235-.378-1.901-3.704-.064-7.413-.044-11.118-.077m-7.389.13c-.13.341-.28.617-.166.985l.236.243c.069-.38.187-.733.081-1.11zm29.99 1.543c.847 1.489.587 3.867 1.08 5.533 1.566-.723 3.381-.377 5.054-.242l-.077-1.639-.107-.187c-.55-.101-1.684-.165-2.046-.557.164-.168.408-.106.638-.11.518-.007 1.035.022 1.554.05-.104-.96-.286-1.876-.503-2.816-1.884.142-3.707.076-5.593-.032m-30.248.336c-.105.633-.258 1.256-.14 1.895.133.135.177.181.358.25-.073-.62.44-1.608-.053-2.031-.05-.044-.11-.076-.165-.114m145.716.073c-.732.349-1.477.681-2.2 1.049.21.825.448 1.61.752 2.406l.115.136c.558-.474 1.306-2.538 1.379-3.288.015-.16.001-.154-.046-.303m-158.502 1.724c-.356.387-.407.565-.457 1.08-.076.779-.242 2.128.213 2.8l.58.145c.278-1.342.32-2.678-.277-3.944-.014-.03-.039-.054-.059-.08m153.588.044c-2.561.752-10.212.46-13.228.461q-9.597-.037-19.194.027c.07 1.276-.153 4.67.727 5.483.251.231.603.248.925.215 1.02-.106 1.958-.436 2.997-.446l.191-.003c.78.004 1.584.269 2.334.46.37-.343.924-.731 1.457-.7.334.02.69.186 1.001.3.234.084.46.154.71.165.996.042 2.02-.192 3.02-.222.866-.026 1.736.094 2.6.031.713-.052 1.438-.201 2.149-.227.71-.027 1.388.353 2.15.333.756-.02 1.484-.218 2.211-.41.415.21.805.365 1.27.417.523.058 5.418.034 5.661-.032.07-.02.134-.05.202-.075.09-.741.018-4.011.04-4.098.046-.176.227-.34.374-.435.097-.063.263-.116.375-.155.242.122.28.146.365.422.398 1.306-.02 2.896.257 4.248l.12-.004c.512-1.495.251-3.26.62-4.831.306-.226.865-.527.985-.874zm-140.967.426c-.162.629-.54 1.833-.161 2.425.1.155.287.184.45.25.268-.754.115-1.68-.032-2.45zm166.65.129c-1.685.025-12.651-.187-13.194.216l-.047.202c.336.205.697.218 1.082.228 3.002.078 6.05-.067 9.058-.077 2.055-.007 4.196.188 6.237.01.51-.045.999.122 1.507.05l.183-.01c1.915-.09 10.725.303 11.769-.098l.102-.198c-.242-.277-.465-.395-.84-.424-1.028-.08-2.451.165-3.58.154-4.088-.04-8.19-.183-12.276-.053m-158.865.073c-.122.513-.386 1.206-.104 1.69.123.21.422.244.652.302.133-.614.232-1.204-.01-1.802-.196-.147-.294-.174-.538-.19m194.825.176c-1.064.015-5.762-.213-6.466.313.12.257.07.289.357.402 1.11.436 5.906-.018 7.542.169 1.215.006 3.782-.14 4.817.035.311.053.562-.05.815-.232.192-.139.137-.094.234-.317-.156-.217-.202-.202-.459-.243-.573-.092-6.322-.203-6.84-.127m-199.335.81c-.66.385-1.45.594-2.062 1.034-.084.699-.182 1.397-.184 2.101.36-.037.782-.147 1.114-.005-.816.794-1.19 1.178-1.4 2.344l.157.463c.427.17.695.108 1.108-.073q.526-.234 1.042-.49c.104-1.005-.198-2.007-.143-2.468.099-.827.908-2.104.368-2.905m4.844 1.04c-.48.44-.646.865-.655 1.535-.004.353-.008.595.25.857.04.042.09.075.136.113.373-.2.45-.185.566-.607.146-.527.066-1.095-.005-1.626-.1-.125-.148-.195-.292-.272m198.307.144-9.59.035c.024 1.902-.241 12.514.36 13.314.34.165.6.152.967.141.17-.324.167-.633.063-.992l-.04-.129c-.29-.97-.241-3.426.246-4.26.119-.203.24-.373.438-.504l.272-.023c.496.516.425 1.427.416 2.098-.018 1.258-.105 2.513-.04 3.77 1.77.075 3.606.138 5.335-.322.14-.788.281-1.475.065-2.267-.033-.924-.176-2.371.426-3.114.349-.1.375-.045.714.103.962 1.247-.686 4.657.772 5.532.315-.203.42-.43.496-.797.228-1.083.022-2.534-.28-3.598.135-.402.238-.867.542-1.172.348-.09.41-.123.746-.013.987 1.136-.39 5.408.675 5.5.814.07 1.67.007 2.487-.008-.154-2.656-.512-5.32-.842-7.959-.218-1.744-.369-3.546-.74-5.264q-1.743-.09-3.488-.071m-25.571.128q-13.71.099-27.42.016l.024 13.663c1.101.014 3.73.397 4.443-.466 1.157-1.4-.768-4.618.832-5.575.34-.009.35.006.63.204.574 1.022-.082 2.864.188 4.085.119.537-.018.851-.24 1.332-.089.192-.063.114-.043.352.32.075.544.111.877.083.319-.293.392-.547.42-.979.09-1.347-.579-4.24.415-5.232.176-.176.12-.131.361-.153.747.828.39 5.083.362 6.345 1.655.015 3.426.151 5.065-.042.204-.239.205-.395.182-.699-.019-.24-.072-.485-.117-.722.014-1.255-.264-3.17.27-4.312.262-.211.299-.198.64-.217.337.24.439.432.495.846.16 1.186-.505 4.028.013 4.913.442.078.722-.095 1.139-.246-.16-1.614-.593-4.087.134-5.583l.254-.172c.298.131.44.353.556.647.436 1.104-.15 5.148.298 5.321.984.38 3.857.127 4.985.033.015-.578-.049-1.317.114-1.863.387-1.3-.711-2.971.55-4.025.18-.007.26-.055.409.074.355.309.424.863.419 1.308-.012 1.071-.501 3.631.04 4.509.377.039.45.04.796-.11.882-1.242-.984-5.373.9-5.745.325.275.607.528.633.981.096 1.644-.215 3.276-.067 4.946 1.377.014 2.756.015 4.133.044l.023-9.065c-.002-1.301.155-2.83-.09-4.103-.426-.394-.752-.447-1.321-.431zm4.316.037q-.122 6.578-.09 13.156c.901-.008 1.804-.005 2.705-.024.055-.485.056-1.064.283-1.5.268.527-.016.976.675 1.208.312-.073.487-.136.687-.4.026-.035.044-.075.066-.112l.161.025c.725.104 1.24.117 1.911-.19.202-.264.188-.249.154-.582-.185-.265-.28-.413-.613-.478-.26-.051-.542-.055-.805-.072-.678-.465-.448-1.262-.895-1.825-.423-.534-1.128.096-1.344-1.041l.28-.321-.26.117c.295-.151.448-.106.76 0 .177.062.352.154.52.235a1.27 1.27 0 0 1 .675-.12c.922.049 1.709-.033 2.624.213.502-.637 1.662-1.8 1.688-2.594-.26-.32-.552-.343-.947-.386-2.094-.231-4.459-.364-6.248.883.255-.541.526-1.366 1.098-1.639.516-.246 1.263-.085 1.815-.018.357-.397.819-.859.79-1.437-.01-.187-.12-.28-.269-.384-.186-.13-.444-.222-.652-.317l-.157-.26c.211-.727.901-.684.472-1.55-.077-.157-.183-.307-.277-.452a94 94 0 0 0-4.807-.135m-151.946.473c-.48.02-1.008-.028-1.41.267-.237.34-.278.595-.21.994.107.635.255 1.251.326 1.893 1.173-.16 2.367-.119 3.548-.118.383.032.743.065 1.116.163l-.022-3.02c-.947.027-2.725-.24-3.349-.18m-33.4-.043c-.198.92-.655 4.717-.319 5.439.228.14.176.142.477.13.442-1.384-.184-1.953-.032-2.91.145-.912.626-1.448.286-2.43a1.8 1.8 0 0 0-.411-.229m97.778.584c-.196.4-.324.876-.212 1.324.073.29.32.599.588.729.231.111.505.122.755.145.254-.435.445-.86.304-1.375a1.12 1.12 0 0 0-.612-.696c-.252-.109-.553-.113-.823-.127m-4.496.249.133.073zm7.974.828c-.174.394-.32.663-.24 1.107l.213.252c.166-.353.346-.643.286-1.046-.08-.1-.163-.227-.259-.313m-92.889.39c-.346.218-.54.243-.635.668-.127.567-.01 1.17.122 1.722.5-.365.704-.574.786-1.213.05-.392.043-.784-.155-1.127zm-29.461 1.038c-.105.541-.356 1.359-.196 1.884q.063-.034.125-.064c.344-.169.511-.249.897-.17.251.213.349.41.386.734.065.579.089 1.306-.28 1.77-.478.185-1.027.099-1.531.073-.353 2.313-.692 4.562-.72 6.906 5.357-.073 10.71.017 16.067-.03.492.032.979.052 1.47.054.6-1.678.637-4.569.84-6.453.166-1.54.393-3.047.605-4.578q-8.831-.126-17.663-.126m53.305.456c.07.978.178 1.959.416 2.911q2.046-.094 4.094-.142c.086-.879.078-1.731.049-2.613-1.593.147-2.993-.12-4.559-.156m-29.216.407c-.769.252-1.365.6-2.051 1.017-.168.469-.327.794-.18 1.292.095.318.206.573.108.904l-.35.066c-.15-.383-.28-.879-.52-1.21l-.195-.005c-.45.845-.281 2.014-.308 2.95-.007.239 0 .328.113.532.217-.103.442-.138.53-.371.069-.18.087-.305.097-.493 1.133-.357 2.34-.258 3.481-.614a24 24 0 0 0-1.878-1.415l1.415-.31c.01-.71.075-1.459-.075-2.156zm131.765.71c-5.387.206-10.809.057-16.2.099-2.894.022-5.79.181-8.681.212-.002.4-.078.985.126 1.329 1.34.552 3.191.054 4.567-.176 1.727-.061 3.411.072 5.128.066 1.048-.004 2.095-.16 3.142-.135.969.024 1.935.133 2.905.14 1.695.011 3.394-.163 5.092-.164 2.311 0 4.793.196 7.082-.08.266-.032.508-.113.703-.306a.88.88 0 0 0 .286-.613c-.221-.254-.367-.315-.707-.352-1.124-.124-2.3.062-3.443-.02m5.352-.154c-.22 1.115-.287 10.004-.019 11.118l.32.191c.222-1.303.267-9.574.069-11.025-.136-.172-.156-.193-.37-.284m-131.746.302c-.387.297-.808.535-.949 1.016.077.266.102.408.288.622.335-.047.567 0 .763-.32.17-.28.202-.73.084-1.041a.7.7 0 0 0-.186-.276m84.038.445c-.035.588-.11 1.16.05 1.734l.246.259c.043-.624.121-1.234-.027-1.848zm1.957.01c-.175.59-.393 1.1-.118 1.693.355.279.528.272.966.339.104-.49.183-1.006-.086-1.462-.168-.285-.46-.457-.762-.57m2.618.403c-.09.429.09.962-.047 1.105l-.464.015-.12.254c.346.092.459.186.79.027.236-.482.19-.73.034-1.237zm2.374.033c-.22.405-.247.95-.12 1.392.074.261.208.454.398.641l.577.13c.225-.416.49-.977.36-1.464-.056-.206-.207-.34-.353-.482a4 4 0 0 0-.863-.217m2.778.54c-.075.598-.28 1.415.009 1.96.166.051.324.1.495.134-.03-.55-.01-1.58-.316-2.01zm32.774.403c-.263.115-.251.114-.361.39-.36.898-.347 1.94-.594 2.877-.68-.068-2.36.002-2.798-.53-.397-.482-.124-1.388-.032-1.948-1.199-.227-2.428-.452-3.49.322-.397.288-.668.745-.937 1.147l-.15-.066c-1.3-.58-2.33-2.416-3.933-1.886-1.052.348-2.517 2.765-2.811 2.794-.163.017-.325-.04-.486-.06-.245-.206-.28-.246-.332-.584-.096-.633.19-1.344-.288-1.886-.295-.333-.728-.399-1.148-.368-.413.03-.829.1-1.238.157-.478.756-1.262.712-1.792 1.362-.312.668-.609 1.303-.515 2.057l.189.252c.793.06 1.572-.25 2.367-.296 1.012-.058 2.244.328 3.165-.056.241-.1.381-.034.623.013 1.713.333 5.306.03 7.266.066 1.344.023 2.662.338 4 .43 1.226.084 2.478-.148 3.704-.195.972-.037 2.021.115 2.97-.09.216-.895.427-2.5.215-3.398-.465-.507-1.36-.498-2.008-.522-.527-.02-1.06-.023-1.586.017m-100.908.269c-.472.037-.794-.01-1.184.272-.092.448.066.933.162 1.375.758-.023 1.519-.067 2.276-.019.438.027.959.126 1.35-.1.197-.29.175-.45.167-.787-.217-.336-.367-.493-.773-.571-.656-.127-1.338-.085-1.998-.17m77.972-.014c-.686.056-1.388.083-2.066.205-.015 1.35.047 2.69.116 4.038l1.073-.19c.659-.028 1.354-.002 1.982-.218.269-.32.27-.595.238-1.007-.068-.86-.311-1.85-.701-2.621-.218-.176-.368-.182-.642-.207m-104.176-.048c-.047.386-.197.834.034 1.15a11 11 0 0 0 .628.082c.033-.437.112-.667-.1-1.058a5 5 0 0 0-.562-.174m125.324.307c-.391.007-.949-.06-1.235.253-.198.216-.277.444-.23.734.069.427.398.795.765.992.176.094.358.176.54.258.37-.02.425-.028.73-.237.198-.354.243-.669.134-1.062-.102-.362-.34-.623-.586-.895zm-27.876 1.073c-.138.425-.079.744.134 1.132.186.34.517.658.904.731.086.016.193.019.283.022.178-.358.401-.754.325-1.17-.054-.293-.24-.487-.503-.613-.345-.165-.774-.125-1.143-.102m-72.184.588c.082.687.169 1.367.296 2.047.936-.264 2.322-.546 3.261-.233.224-.278.136-.714.14-1.067-.186-.287-.287-.379-.63-.453-1.025-.221-2.026.014-3.067-.294m-24.916.668c-.246.147-.447.182-.524.473-.207.782.311 1.307.08 2.503-.097.509-.296 1.392-.053 1.854.016.03.04.055.06.083l.543.051c.325-.416.384-1.044.313-1.56-.057-.41-.366-1.029-.302-1.415.108-.658.901-1.35.017-1.922-.042-.027-.09-.044-.134-.067m-5.2.416c-1.151.085-2.338.106-3.471.33-.039.753-.214 7.081-.28 7.193l-.277.135c-.155.88-.05 1.776-.19 2.665 1.409.073 2.786.003 4.192-.01-.004-.863.265-2.467-.35-3.107-.624-.249-1.708-.157-2.359-.006l.144-.095c1.174-.76 2.44-.312 2.703-1.154.176-.566.059-1.482.052-2.084-.749.373-1.33.691-2.184.742l-.127-.094c.656-.541 1.526-.686 2.332-.892l.047-2.101c-.783.338-2.23 1.22-3.053 1.051l.064-.182-.08.159.301-.008-.027-.325c.621-.418 1.146-.738 1.91-.752.418-.008.68-.04 1.006-.295.164-.406.081-.663-.016-1.068l-.207-.131zm89.89.231c-.19.48-.414 1.26-.117 1.748.193.316.328.323.661.42.156-.048.314-.09.463-.156.045-.466.088-.93.158-1.394-.216-.32-.799-.467-1.165-.618m2.906.543-.098.34c.23.082.315.092.55.09l.208-.281c-.201-.166-.405-.13-.66-.149m2.395-.01c-.075.493-.2.966-.016 1.445.313.38.706.477 1.156.623.032-.513.196-1.36-.195-1.766-.236-.244-.63-.268-.945-.301m-64.685.32c.3 2.806.87 5.58 1.234 8.377.68-.174 1.317-.216 2.016-.248l.014-2.488c-.006-.462.05-.812-.185-1.223-.547-.31-.84-.236-1.428-.142-.233.037-.144.028-.413-.008.618-.272 1.34-.068 1.987-.323.213-.732.319-2.68-.019-3.372-1.151-.145-2.12-.034-3.207-.573m62.323.161c.005.369-.044.4.213.654l.406.113c-.02-.216.034-.455-.15-.592-.16-.12-.278-.14-.47-.175m-54.856.377c-.86.963.018 7.764-.787 8.008-.32.096-.57.142-.784.418l.103.245c1.537.553 7.006.254 8.99.26 6.027.018 12.031.198 18.061.07 1.594-.035 3.164-.24 4.752-.298 3.556-.13 7.128-.11 10.686-.196 1.366-.032 2.727-.145 4.094-.16.867-.02 1.671-.181 2.512-.387.217-2.572.13-5.184.108-7.764q-15.826.121-31.651-.059c-5.35-.037-10.737-.235-16.084-.137m59.899.126-.027.292.193-.046.005-.282zm33.841.248c-1.318.137-2.641.275-3.967.281-1.25.007-2.501-.111-3.75-.088-1.19.022-2.375.178-3.565.172-1.082-.006-2.167-.135-3.249-.115-1.11.021-2.212.193-3.325.203-1.56.014-5.485-.184-6.742.168-.591 1.037-.141 3.353-.216 4.589.83-.03 2.756.196 3.363-.338.277-.79-.73-1.802.311-2.33.566-.287 1.455-.188 2.082-.155.262.178.246.195.335.505-.093.321-.082.384-.342.586-.454-.107-.943-.286-1.404-.156-.354.337-.426 1.146-.505 1.627.226.144.28.12.537.135 1.618-.048 3.233-.142 4.85-.193.033-.85.359-1.636.637-2.431.61-.025 1.322-.138 1.9.077l.067.175c-.641.638-1.316.473-1.704 1.447.037.192.004.295.18.414.626.423 5.447.058 6.386-.101l.167-.139-.043-.251a3.2 3.2 0 0 0-.692-.32c-.265-.093-.402-.14-.568-.38-.09-.302-.143-.445-.032-.747.328-.191.883-.162 1.237-.033.285.104.556.375.785.57.09.422.125.831.446 1.145.906.355 9.01-.376 10.662-.376-.02-1.256-.024-2.515-.063-3.77-1.451.214-2.428-.205-3.778-.17m-31.298.02c.097.606.165 1.232.354 1.818l.145.007.037-.093c.148-.429.309-.77.201-1.223-.247-.303-.383-.378-.737-.51m2.601 1.055c-.046.353-.069.593.042.942.276.342.564.376.976.458.093-.391.183-.732.146-1.138-.195-.23-.227-.288-.548-.311-.195-.014-.421.028-.616.049m-13.809 1.247.006.147.19-.025-.004-.151zm3.627-.014c.047.018.097.063.144.045zm-3.014.073c.727.262 1.687.342 2.422.057-.617-.287-1.745-.105-2.422-.057m4.327.213.266.424c.22.026.228.052.442-.046l.119-.224c-.273-.118-.535-.13-.827-.154m-89.524.26c-.016.394-.092.693.097 1.043.287.099.482.096.782.073.013-.406.091-.64-.141-.981a5 5 0 0 0-.738-.135m91.466.417.155.177.248-.148-.121-.165zm1.197.036.116.041zm.158.068c.58.31.846.273 1.48.12-.498-.189-.96-.144-1.48-.12m25.85.039.182.11.12-.05-.071-.181zm-24.369.132c.216.11.115.11.298.057l-.185-.095zm.86.135.14.05-.103-.062zm.786-.025c.253.24.445.172.784.158q.214-.01.427-.028c-.4-.073-.806-.186-1.211-.13m105.706-.033-29.065.733-8.532.21c-2.595.049-5.164.027-7.749.337q1.298.013 2.595.045 17.324.064 34.644-.315c3.282-.068 6.66.26 9.923.033.38-.027.684-.11 1.016-.292l.095-.24c-.184-.286-.49-.401-.813-.471-.661-.143-1.435-.034-2.114-.04m-201.677.357c-.021.467-.132 1.053.13 1.46.26.19.473.147.78.14.056-.447.142-.822-.044-1.244-.286-.26-.501-.295-.866-.356m86.566.11c-.156.518-.379 1.032-.272 1.575.188.337.34.39.675.544.273-.38.377-.846.314-1.314a1.08 1.08 0 0 0-.325-.661zm-1.77.396.097.092-.066-.098zm5.03-.243c-.215.413-.483.891-.349 1.375a.87.87 0 0 0 .54.58c.132.052.27.09.407.127.222-.446.399-.931.229-1.432-.077-.228-.234-.362-.404-.519zm2.807.398c-.089.353-.142.559-.016.918.107-.32.279-.57.144-.888zm2.208-.245c-.139.422-.31.846-.079 1.269.096.176.244.264.43.335.126.047.36.044.487.051.16-.4.276-.695.259-1.13-.162-.275-.207-.386-.536-.486-.161-.05-.39-.035-.56-.04m7.024.736h.153zm-18.794.124h.139zm-83.042.843c-.017.682-.148 1.538.178 2.148.27.163.438.177.75.188.025-.663.16-1.448-.12-2.058-.236-.235-.494-.237-.808-.278m164.104.666c-2.571.05-5.122.518-7.7.599-2.874.09-5.73-.005-8.6.03-2.892.035-5.796.196-8.69.271-2.834.075-5.674.065-8.507.165-3.147.11-6.285.401-9.428.547q-14.176.531-28.342 1.288c-4.257.194-20.101.26-23.031 1.638-.76.968-.651 3.853-.547 5.097 1.3-1.774 3.055-3.387 5.321-3.744 1.339-.211 2.772.017 3.881.827 1.97 1.438 1.894 3.914 2.343 4.263.186.144.828.147 1.07.134.468-.53.654-1.373 1.003-1.996 1.313-2.35 3.82-3.6 6.444-3.779 1.768-.12 3.45.362 4.786 1.556 1.407 1.259 2.122 2.866 2.54 4.676.607-.005 1.657.102 2.156-.287.617-.483 1-1.871 1.432-2.57 1.645-2.664 5.404-4.812 8.541-4.874q.22-.004.438.003.22.007.438.024.219.018.436.046.217.029.433.068.215.039.429.089.213.05.424.11.21.06.418.131.207.071.411.152t.403.172q.2.091.394.192.195.1.384.211.19.11.373.23t.361.248.349.266.334.283.32.299a8.75 8.75 0 0 1 1.94 2.866c.359.944.611 1.909.867 2.884.687.022 2.408.24 2.954-.114.592-.384.955-2.184 1.321-2.866 2.107-3.916 6.633-6.44 11.021-6.451 3.398-.01 6.237.918 8.655 3.366q.287.293.548.61t.494.655.435.694.373.73c.448.972.706 2.916 1.449 3.589.186.168.633.15.881.155 1.33.024 2.625-.07 3.956.06l.089-.131c.715-1.078 1.224-2.27 1.939-3.356 2.561-3.89 6.322-6.71 10.954-7.643 3.962-.798 8.389.19 11.732 2.412 3.213 2.136 4.938 5.482 6.044 9.069 2.032-.074 4.244-.008 6.231-.413 3.032-5.117 6.74-9.151 12.717-10.672 1.237-.315 4.315-.315 4.963-.864.083-.282.106-.339.036-.62-1.444-.444-3.545-.143-5.073-.173-8.72-.17-17.43.085-26.148.052-3.111-.012-6.296-.498-9.395-.204m-141.08.968-.216.038c-.895.151-3.564 0-4.082.294l.045.163c1.348.296 4.624-.08 6.25-.024 1.435.084 2.945.227 4.366-.029l.012-.136a5.7 5.7 0 0 0-1.291-.21c-.822-.03-1.639.136-2.458.11-.86-.028-1.78-.305-2.626-.206m141.876 1.39c-3.628.244-7.355 2.013-9.753 4.767-.957 1.099-1.852 2.35-2.648 3.57-.373.571-1.159 2.405-1.66 2.707-.327.197-.83.252-1.202.278a28 28 0 0 1-3.616-.005c-.814-.058-1.79-.322-2.587-.173l-.055.102c2.261.871 5.435.69 7.805.322 2.248-4.665 5.349-8.726 10.376-10.458 3.523-1.212 7.645-.767 10.943.892 3.693 1.857 5.579 4.993 6.818 8.836q.236.734.42 1.482a43 43 0 0 0 4.282-.181c1.293-.123 2.584-.159 3.869-.364 1.157-1.07 1.89-2.952 2.81-4.271 2.904-4.16 8.193-6.904 13.28-6.911.316 0 .632.091.934.171l.143-.203c-.05-.188-.005-.188-.155-.27-1.092-.597-4.804.22-5.94.652-4.004 1.523-7.296 3.943-9.548 7.636-.489.802-.843 2.035-1.571 2.613-.817.647-6.697.849-7.658.42-.385-.173-.504-.43-.636-.815-.385-1.119-.69-2.289-1.182-3.367-1.275-2.796-3.577-4.736-6.264-6.09q-.416-.207-.845-.383-.43-.177-.87-.323t-.89-.263-.905-.2q-.457-.085-.917-.139-.462-.053-.925-.075-.463-.02-.927-.01t-.927.053m-195.672 1.613c-.079 1.416-.763 5.853.049 6.83.425.511 1.273.19 1.754.584l-.054.245c-.545.291-1.932-.266-2.084.215-.36 1.138-.174 2.757-.238 3.967l63.218-.021c4.768-.002 9.54-.103 14.307-.036q5.051.108 10.103.013c1.564-.018 3.174.049 4.73-.11 1.11-.112 3.012-.488 3.717-1.456.05-.067.072-.15.108-.226l-.09-.043q-.06.049-.122.094c-2.236 1.682-7.991.638-10.765.374-.84-.08-1.683-.013-2.517-.114.258-.238.7-.738 1.043-.82.682-.163 1.737-.024 2.457-.042 1.73-.043 8.793-.365 10.127-.809.44-.146.716-.294.87-.745-.88-.083-1.778.082-2.662.09-.86.009-1.717-.056-2.581-.04-3.079.057-6.555.449-9.492-.592-1.669.534-2.988.511-4.71.342-1.302.023-2.763.022-4.047-.213l.01-.005-.193-.113c1.416-.918 3.915-.297 5.49-.288 4.215.024 8.49-.101 12.695-.291 1.2-.054 2.446.03 3.635-.148.597-.09 1.443-.267 1.86-.746l.015-.183c-.931-.767-6.187.023-7.764-.473l.013-.119c1.59-.547 6.758.15 7.673-.833l-.003-.627c-.383-.379-2.934-.273-3.599-.265-1.118.014-2.22.165-3.341.092-1.277-.084-2.568-.412-3.845-.385l-.066-.12c1.217-1.002 8.673-.431 10.818-.632-.002-.752.016-1.51-.025-2.26-7.796-.12-15.614.058-23.412.055q-23.113-.149-46.225-.065c-8.935 0-17.929.206-26.857-.081m138.342 1.127c-2.301.175-4.33 1.975-5.761 3.644-.615.716-1.875 2.768-1.936 3.754.65-.823 1.076-1.827 1.613-2.728 1.242-2.084 3.353-3.74 5.727-4.28 2.738-.267 4.659-.035 6.792 1.82 1.122.976 1.453 2.596 2.4 3.545-.186-.607-.532-1.106-.73-1.703-.49-1.476-1.887-2.638-3.254-3.307-1.616-.79-3.095-.858-4.851-.745m-32.171 1.743c-1.836.264-3.403 1.376-4.5 2.864-.243.33-.592.792-.606 1.208l.136.099c.894-1.559 2.576-3.282 4.348-3.756q.34-.092.69-.146l.066-.166zm.569.188.082.24c.273-.054.172-.002.324-.103l-.067-.206c-.116.016-.232.019-.339.07m17.074.47c.392.493 2.172 3.313 2.243 3.371-.308-.955-.987-2.72-1.896-3.232-.165-.092-.187-.09-.347-.139m81.176 1.088c-2.928.844-5.893 3.348-7.353 6.01-.685 1.247-1.26 2.663-1.548 4.06a26.6 26.6 0 0 1 4.641.044c.834.074 1.684.119 2.51.25.023-.716.054-1.428 0-2.143.767-1.252 1.427-2.035 2.926-2.404.97-.239 1.954-.214 2.93-.393-.637-1.249-1.864-4.883-3.202-5.412-.241-.096-.647-.03-.904-.012m-33.223.868c-2.088.377-3.865 1.332-5.435 2.74l1.299 1.12c.124.369.268.677.171 1.07-.186.144-.148.183-.346.149-.74-.129-1.424-.957-1.928-1.475-.715 1.065-1.247 2.151-1.704 3.348.673.358 3.718.252 4.778.381.286-1.012.706-1.67 1.656-2.179 1.175-.628 2.569-.64 3.856-.834l-.08-.154c-.508-.985-1.126-3.636-1.897-4.181zm-56.855.073q-.437.681-.796 1.407-.358.725-.634 1.486l.117.164a21.6 21.6 0 0 0 1.422-2.855zm11.092 1.464h.072zm21.225.502c.1.368.111.46.38.723-.047-.308-.01-.555-.253-.763zm-40.36.607c-.79.656-1.048 1.846-1.494 2.775.04.371.279.525.392.863.168.498.382 1.883.4 2.438.022.64-.439 1.213-.175 1.861 2.84.275 5.82-.137 8.682-.141-2.79-.415-5.337-1.54-8.193-1.798.147-.213.208-.205.457-.246 1.7-.28 6.645.183 7.78-.634-.089-.046-.175-.11-.275-.122-2.072-.337-4.098-.566-6.093-1.248 1.793-.298 5.364-.29 6.796-1.02l.02-.17c-1.243-.703-8.2-.035-8.534-1.126.463-.487 1.774-.495 2.433-.514 1.314-.038 2.607.056 3.9-.219l.558-.119c-2.245-.205-4.389-.532-6.655-.58m15.511.336c-.85.354-1.394.855-2.042 1.493q-.028 3.31-.002 6.62 4.336-.166 8.675-.106c.942.007 1.885.127 2.825.104a1.1 1.1 0 0 0 .508-.123l-.11-.129c-2.991-.17-5.966-1.016-8.91-1.563 2.336-.215 5.866-.048 7.96-.822-1.875-.134-4.424-.464-6.195-1.07-.656-.036-1.316-.224-1.967-.325 3.329-.594 6.755-.14 10.08-.93-1.931-.247-3.872-.41-5.804-.65-1.232-.153-2.46-.436-3.698-.523-.962-.067-2.162.28-3.065.063l-.074-.185c.522-.608 2.599-.681 3.369-.743 1.836-.147 3.71.125 5.507-.318.236-.058.473-.058.715-.066l.1-.114c-.42-.396-1.142-.315-1.697-.297-.51.017-1.28.291-1.707.048l-.134-.075c-.095-.053-.178-.125-.274-.176-.332-.175-3.535-.19-4.06-.113m21.241 2.415c-.9.113-1.778.213-2.686.208-.005 2.683-.069 5.38.028 8.06 1.55.037 3.019-.423 4.555-.495 3.611-.17 7.267-.009 10.867-.302-2.63-.444-5.246-1-7.89-1.362-.556-.076-2.126-.034-2.507-.344.4-.322 7.528-.277 8.969-.495l.208-.03.125-.02c-1.532-.26-3.197-.668-4.747-.692-1.435-.26-3.022-.358-4.412-.772l.105-.136c2.784-.24 5.541.046 8.298-.619-1.096-.03-11.96-.838-12.084-.908.267-.354.716-.394 1.138-.454 3.911-.549 7.952.08 11.778-1.06-1.094-.206-10.906-.731-11.745-.58m31.925.63c-1.079.043-3.667-.068-4.429.824-.9 1.056-.327 7.319-.294 8.943 1.374-.419 2.905-.41 4.332-.493q3.306-.197 6.614-.358c1.623-.078 3.328-.074 4.925-.388-2.356-.398-4.714-.93-7.085-1.213-.38-.046-2.231-.113-2.469-.274-.069-.046-.107-.126-.16-.19l-.034.15-.146-.083c.195-.216.33-.255.618-.25 3.223.05 6.168.003 9.349-.721-1.92-.173-3.856.029-5.765-.231-.828-.12-6.58-.924-6.936-1.09l.01-.147c3.954-.54 7.933-.067 11.846-1.097l-.132-.032c-2.118-.478-12.878-.972-13.708-1.462.26-.319.887-.4 1.28-.441 3.81-.404 7.615.228 11.362-.831q-2.905-.036-5.8-.282c-1.011-.083-2.446-.454-3.378-.333m33.735.251c-1.13.09-3.087.045-3.811 1.065-.088.124-.084.131-.127.253.136.16.057.129.239.144 1.38.116 2.833-.125 4.217-.202 1.065-.059 2.135-.022 3.199-.102.931-.071 1.878-.224 2.814-.182 1.178-.041 2.953.11 4.024-.345-.631-.518-8.631-.405-10.079-.641a1.1 1.1 0 0 0-.476.01m-129.843 1.947c-.907.408-1.762.544-2.74.695 1.652.353 3.292.29 4.967.42l1.6.014.089-.101.066-.009c-.86-.255-1.867-.146-2.676-.435-.452-.16-.825-.54-1.306-.584m125.724-.07c-.08 2.212-.254 7.138.098 9.086.346.271.795.228 1.219.179 1.462-.173 2.87-.578 4.351-.654a145 145 0 0 1 6.287-.192c2.307-.018 4.506.072 6.784-.395-2.585-.084-5.296-1.008-7.847-1.468-1.393-.251-2.955-.257-4.305-.584a1.4 1.4 0 0 1-.609-.327l.086.03.071-.158c3.433.002 6.721.084 10.123-.494.856-.182 1.724-.343 2.568-.571-1.829-.156-3.673.018-5.494-.16-3.975-.391-7.892-1.142-11.856-1.6 2.006-.282 3.93-.203 5.94-.27 3.434-.114 6.817-.336 10.215-.885-3.468-.275-6.942-.51-10.406-.828-2.404-.22-4.824-.53-7.225-.709m-109.74 1.113-.126.239c.744.475 4.352.14 5.367.032l.187-.133c-.567-.418-4.51-.179-5.427-.138m-38.188.393h.247c-.082-.007-.175-.041-.247 0m-4.972.431.155.407c.394.136.683-.006 1.083-.1l.006-.143c-.42-.175-.794-.162-1.244-.163m43.97.699c-.888.024-1.748.053-2.626.203l.024.084c1.492.245 3.092.294 4.604.32-1.785.527-3.642.991-5.487 1.25-.674.094-1.754-.166-2.325.048l-.057.201c.296.302.654.289 1.074.29 1.976.004 3.881-.038 5.86.084-1.511.38-3.043.69-4.547 1.097l.014.187c.677.047 1.35.025 2.027.089 1.365.13 2.775.422 4.145.271 1.765-.194 3.537-.875 5.276-1.264-1.974-.349-3.59-.829-5.436-1.587 1.474-.121 2.8-.296 4.208-.756-2.307-.18-4.412-.662-6.754-.517m-86.35.1-.019.202c.325.132.695.034 1.034-.01l-.013-.206c-.352-.071-.65-.03-1.001.014m80.12-.009-.299.312.121.095.267-.06.346-.051c-.176-.203-.198-.214-.435-.296m2.842.212.115.089-.073-.088zm22.022.441c.264.035.166.064.309.001l-.218-.056zm-8.304.107c-.3.084-.469.11-.677.358.03.166-.003.254.153.352.817.516 3.96-.09 5.067-.149.222-.033.687-.033.83-.191-1.6-.42-3.734-.503-5.373-.37m-77.261.247c-.718.133-1.408.293-2.108.5 1.48.163 3.042.132 4.53.079l1.965-.194c-1.31-.196-3.087-.608-4.387-.385m138.064-.011-.347.29c.141.2.543.203.785.252l.254-.224-.05-.179zm1.124.216-.03.186.302-.069.112-.237zm34.492-.058h.131zm-80.017.736c-1.528.164-3.086.224-4.596.512 1.957.375 3.948.391 5.927.578 1.453.138 2.918.45 4.375.501 1.472-.086 2.695-.216 4.08-.727-3.05-.604-6.7-1.356-9.786-.864m80.044.016c-.748.09-1.526.137-2.243.374.07.124.018.084.153.121q1.083-.043 2.167-.097l.141-.211-.057-.217zm-34.424.226c-.503.336-3.155.65-3.22.925l.377.072c.655.012 2.626.35 3.077-.011a3 3 0 0 0-.069-.868zm-59.912.258c-.948.287-1.931.478-2.866.8 1.621.25 3.173.452 4.82.33 1.006-.182 2.012-.398 3.022-.55-1.628-.227-3.278-.576-4.919-.572q-.03-.002-.057-.008m94.309 1.099c-1.128.24-2.534.31-3.576.751.252.111.123.087.389.078h.193c.849.002 2.277.462 2.994.214.215-.31.209-.383.23-.766l-.118-.248zm-75.038.503c-3.95.92-6.475.57-10.179.975 3.568.515 8.661.934 12.217.642 1.193-.059 2.362-.343 3.557-.424 1.716-.116 3.512.183 5.186-.267-.537-.266-1.07-.54-1.624-.772-.616.073-1.244.074-1.854.156-1.076.144-2.113.428-3.208.363-1.357-.081-2.737-.846-4.095-.673m-37.273.412h.216zm145.799 2.746c-2.636.207-6.644-.044-8.993.99l.074.091.944.041c1.487.582 6.458-.001 7.947-.627q.205-.09.4-.199l.033-.146c-.147-.076-.238-.137-.405-.15m-165.986 1.005h.153zm159.733.76c-1.725.006-3.309.074-4.975.548 2.246.37 4.382 1.003 6.666 1.097-1.502.205-3.011.465-4.474.865-1.45.396-2.796.938-4.305 1.088-.162.016-.095 0-.23.05l.441.002.06.094.126-.069 4.074.043c1.403.025 8.216.314 8.944-.168.07-.303.048-.33-.07-.623-.858-.786-2.182-.813-3.256-1.164.146-.2.695-.218.952-.257.604-.092 2.034-.092 2.416-.572-.313-.434-1.155-.505-1.671-.589-.937-.151-1.93-.317-2.879-.343-.6-.016-1.225.07-1.82-.001m-6.821 1.296.068.039zm-.912.067.154.001zm-223.255 4.73c.03.171.006.39.165.49.657.415 43.592.202 47.388.194l137.465-.053 36.17.068h10.274c1.752 0 3.533.067 5.281-.013.257-.012.165-.059.305.066.04-.03.073-.073.119-.091.07-.029.15-.03.224-.046.019-.316.072-.334-.114-.61l-.392-.027c-5.891.131-11.794.023-17.687.029l-38.89-.016-122.756.085-40.385-.017q-5.438.022-10.875-.022c-2.08-.018-4.217-.138-6.292-.037m76.02 5.242q-.676 1.063-1.284 2.166c.632.015 1.276.059 1.907.006.495-.676 1.012-1.343 1.427-2.072zm113.176 2.266c-2.142.146-3.986.803-5.421 2.457-1.334 1.537-1.855 3.603-1.668 5.604.174 1.865 1 3.593 2.476 4.78 1.508 1.212 3.422 1.6 5.31 1.343 1.059-.145 1.998-.511 2.93-1.028q.022-1.348.023-2.696l-.022-.614-.165-.114c-1.9.683-2.815 2.486-5.257 1.339-.901-.423-1.5-1.227-1.81-2.157-.441-1.32-.356-2.905.327-4.13.482-.863 1.26-1.524 2.219-1.792 1.373-.385 2.714.025 3.902.732.235.14.47.28.694.436-.018-1.002-.01-2.012-.06-3.013-1.176-.785-2.04-1.116-3.478-1.147m-137.097.102c-1.99.538-3.67 1.448-4.717 3.33-.977 1.757-1.199 4.103-.625 6.025q.048.163.103.323.056.16.12.317.063.157.134.31.071.154.15.304t.165.295.18.287q.093.141.194.277.1.136.207.268.108.13.221.256t.233.245q.12.12.245.234.126.114.257.22.13.108.267.208.136.1.278.194.14.094.286.18.146.087.296.165c1.49.768 3.351.938 4.941.388 1.356-.47 2.457-1.394 3.42-2.432a50 50 0 0 0-2.224-1.558c-1.123.971-2.001 1.65-3.594 1.497a3.05 3.05 0 0 1-2.183-1.2c-.847-1.101-1.119-2.674-.919-4.026.176-1.184.729-2.297 1.73-2.99.635-.44 1.382-.657 2.15-.52 1.039.186 1.86.828 2.535 1.605.702-.5 1.379-.959 2.156-1.335-.847-1.412-1.992-2.366-3.622-2.755-.781-.187-1.587-.175-2.384-.112m36.662.022c-2.111.167-3.997.744-5.426 2.43q-.115.138-.224.282-.108.144-.21.294-.1.149-.194.303-.093.155-.18.314-.085.158-.163.321-.077.163-.147.33-.069.166-.13.336t-.113.343-.097.347q-.043.175-.078.353-.035.177-.06.355-.027.179-.044.358-.017.18-.025.36t-.007.36.011.362.03.359c.204 1.91 1.206 3.59 2.71 4.761 1.57 1.224 3.555 1.628 5.503 1.381 1.15-.145 2.282-.528 3.312-1.054.01-.735.278-2.65-.192-3.192-.215.12-.378.239-.559.406-1.322.925-2.722 1.6-4.387 1.285q-.204-.039-.403-.098-.199-.058-.39-.137-.192-.078-.375-.176t-.355-.214-.331-.249-.304-.28-.274-.31-.242-.338c-.704-1.09-.897-2.548-.597-3.802.25-1.044.874-2.018 1.81-2.569 1.032-.607 2.375-.67 3.508-.335 1.189.35 2.203 1.077 3.2 1.786l.009-3.467c-1.517-.821-2.842-1.261-4.586-1.205m-13.99.248a13 13 0 0 1-2.428.063q-.01 6.759-.103 13.517c2.543-.007 5.106.054 7.646-.045l.008-2.466c-1.525-.006-3.056.014-4.58-.023-.465-.82-.219-2.5-.186-3.459 1.53-.025 3.06-.012 4.578-.228.015-.758.048-1.52.036-2.278l-4.561-.003c-.007-.83-.029-1.662.037-2.491l4.602-.009c0-.877.009-1.743-.107-2.614-1.643.08-3.299.165-4.942.036m28.783.01q-.032 2.536-.036 5.07l-4.545.015c-.007-1.67.02-3.348-.027-5.017l-2.817-.02.054 13.555c.558 0 1.115-.003 1.673.023.413.02.757-.037 1.073-.31l.033-.592c.002-1.713-.027-3.432.014-5.144l4.597-.008.012 6.055c.94.012 1.884.037 2.824.02-.01-4.533.13-9.113-.013-13.639-.95-.025-1.892-.047-2.842-.007m40.88-.03c-.046 2.792-.367 7.885.182 10.356.184.824.526 1.621 1.113 2.241.874.925 2.092 1.243 3.331 1.252 1.323.01 2.726-.242 3.676-1.243 1.773-1.867 1.125-7.251 1.137-9.82v-2.695l-2.781.008.015 5.656c.009 1.132.12 2.369-.043 3.482-.082.56-.266 1.158-.672 1.57-.353.357-.782.504-1.28.49a1.52 1.52 0 0 1-1.077-.485c-.392-.41-.588-1.015-.671-1.565-.343-2.259-.082-6.697-.09-9.182a49 49 0 0 0-2.84-.065m32.226.031q-.094 6.79-.029 13.579l2.928.01q-.059-6.797-.007-13.593zm-116.194.07c-.003.838-.023 1.682.023 2.52 1.721.013 3.445.005 5.164.09-.968 1.363-1.654 2.91-2.485 4.357-.885 1.54-1.974 3.038-2.684 4.666-.268.615-.399 1.227-.479 1.89 1.361-.001 9.333.203 9.942-.165l.037-.108-.003-2.165q-3.014-.072-6.03-.049c1.12-1.803 2.14-3.666 3.247-5.477.825-1.352 1.843-2.742 2.51-4.175.197-.422.249-.94.319-1.397q-4.78-.03-9.561.013m52.839-.001-.071 13.474 2.88.013c.001-1.799-.03-3.605.02-5.402.454.907 2.468 5.176 3.073 5.448l3.008-.019a41.4 41.4 0 0 1-3.203-5.457c1.243-1.027 2.287-2.088 2.467-3.784.104-.978-.135-1.966-.794-2.714-1.028-1.167-2.649-1.519-4.136-1.566-1.08-.035-2.164-.008-3.244.007m11.176-.006q-.076 6.766-.01 13.533l7.107.005-.014-2.44-4.287-.011-.003-1.677.02-1.826q2.161-.076 4.323-.034c-.006-.818.003-1.638-.022-2.455-1.442-.077-2.88-.063-4.323-.053l.031-2.537 4.102-.007c.007-.839.027-1.679.018-2.517zm9.831.01-.083 13.531 2.747-.016c-.004-1.12-.225-3.671.224-4.633.08-.025.201-.077.283-.077 1.666-.267 3.292-.589 4.327-2.078.737-1.058.933-2.54.65-3.784-.22-.972-.789-1.778-1.656-2.279-1.742-1.006-4.528-.685-6.492-.663m22.664-.036.013 13.537c2.189-.003 6.093.432 7.814-1.245.193-.187.336-.387.478-.614.43-1.124.739-2.422.225-3.575-.458-1.025-1.285-1.466-2.247-1.913.735-.533 1.264-1.1 1.417-2.03.147-.9-.052-1.965-.623-2.69-.761-.965-2.004-1.328-3.18-1.442-1.272-.124-2.618-.036-3.898-.028m11.255.007.013 13.53c2.056.004 4.414.219 6.43-.073l-.233-2.496c-1.115.008-2.246.056-3.36.006q-.075-5.488-.058-10.975zm39.673 2.708-.84 2.032-2.353.819c.606.568 1.244 1.067 1.909 1.565.067.764.11 1.517.116 2.284.71-.477 1.42-1 2.177-1.396.776.27 1.55.532 2.338.763l-.793-2.234c.448-.654.935-1.305 1.323-1.995l-2.69-.191c-.322-.582-.644-1.242-1.187-1.647M11.084 192.877c.09.373.1.71.375.986 2.438.191 4.967.024 7.415.023q7.108.043 14.215-.006h46.173l164.538.012c.116-.33.23-.49.136-.833-1.692-.125-3.424-.056-5.121-.056l-8.481.001-25.876-.008-72.221-.08-81.411-.05-25.678.024c-4.657-.01-9.42-.251-14.064-.013m135.947 2.948c-2.87.218-5.832.058-8.716.066l-18.62.003-69.771.031q-13.997-.121-27.992.123c-3.492.05-7.072-.149-10.55.102.137.57.228 1.457.56 1.932 1.144-.104 2.475-.193 3.618-.161 1.302.036 7.286.606 8.308.996-.632.442-6.943.452-8.293.438-.964-.011-2.29-.226-3.216.028-.279.077-.326.089-.44.342.118.215.104.324.381.38.584.117 1.57-.097 2.198-.101.95-.006 1.908.08 2.855.145 1.662.114 3.297.393 4.952.548 2.153.202 4.473.204 6.639.181 1.446-.014 2.89-.262 4.328-.402a76 76 0 0 1 5.043-.294c3-.09 6.28.4 9.259.81-3.753.891-7.945 1.135-11.8.854-3.234-.236-6.393-.738-9.653-.743-2.468-.002-4.858.652-7.308.745-.788.03-6.185-.127-6.428.131.104.327.145.334.426.54.503.07 1.024-.04 1.534-.044a170 170 0 0 1 4.036.014c1.974.03 3.96.363 5.916.622-3.391.551-6.64 1.393-10.1 1.41l-.075.242c.204.338.432.445.814.54 3.388.833 7.587-.624 10.967-.727 2.219-.068 4.528.472 6.726.758 1.705.221 3.464.275 5.182.307q2.83.062 5.628-.362c1.633-.241 3.25-.604 4.905-.653.967-.028 2.009.372 2.966.524 2.19.347 4.335.57 6.553.575 1.805.002 3.562-.114 5.345-.413 1.527-.256 3.108-.698 4.66-.7 2.197-.001 4.716.958 7.067 1.084 2.208.118 4.374.006 6.563-.284 1.573-.208 3.172-.559 4.762-.53 1.518.026 3.099.469 4.599.726 2.006.344 4.216.591 6.246.649 3.613.103 7.144-.636 10.77.064-.354.08-.697.144-1.057.185-1.534.176-3.035.733-4.561.982 2.878.59 5.731 1.377 8.647 1.748 2.636.182 9.307-.125 11.28.627l.074.173c-.608.713-4.64 1.106-5.751 1.262 1.155.536 2.485 1.313 3.756 1.452.983.107 3.412-.051 4.151.43-.1.248-.13.287-.386.405-.549.251-1.36.317-1.965.441 1.53.852 2.98 1.897 4.525 2.7l2.385-.43-2.377-.642c3.546-.075 4.524.02 7.577-2.073-2.666.271-5.92.172-8.553-.467q-.207-.049-.413-.102c2.315-.59 5.637-1.013 8.042-1.046 1.569-.02 3.22.293 4.764-.056 1.595-.361 3.096-1.175 4.619-1.761 2.801-1.078 6.307-2.245 9.229-2.883l-.01-.084.203-.014c-1.661-.034-6.741.041-8.007-.414 1.334-.267 2.934-.142 4.296-.15 1.991-.014 3.975-.06 5.96-.234 3.81-.332 7.606-1.454 11.434-1.554 1.838-.048 3.868.435 5.706.651 2.116.25 4.308.323 6.44.342 2.069.018 4.195-.19 6.249-.434.95-.112 1.932-.326 2.882-.359.904-.031 1.868.24 2.775.314 2.369.191 4.804.308 7.18.299 1.555-.006 3.113-.028 4.659-.215 1.677-.204 3.377-.599 5.064-.647 3.974-.113 7.998.782 11.987.824 3.557.038 7.016-.775 10.543-.933 2.908-.13 10.888 1.476 12.939.034.082-.159.178-.25.148-.431-.7-.161-2.15.377-3.035.339-2.395-.105-4.952-1.064-7.247-1.725 3.7-.359 7.533.112 11.183-.526-1.882-.313-3.81-.363-5.709-.536-2.129-.193-4.216-.513-6.356-.618 2.497-.475 7.242-.878 9.828-.803.546.016 1.417.165 1.907-.025.143-.233.27-.364.283-.643-.083-.055-.128-.093-.236-.115-1.218-.243-3.007-.107-4.287-.153-1.677-.06-3.323-.24-4.99-.412-.483-.05-1.156 0-1.579-.23.745-.21 1.598-.108 2.374-.161 1.115-.077 8.478-.639 8.787-.804l-.001-.138c-.952-.299-1.953-.342-2.921-.57.957-.154 2.536-.083 3.279-.713l.03-.205c-.227-.181-.45-.222-.734-.239-1.075-.067-2.23.103-3.315.132q-2.975.053-5.95.035l-61.74-.226-17.535-.049c-2.413-.003-4.913-.272-7.314-.051"/><path d="M60.28 74.875c-.12.166-.22.395-.475.356-.235-.037-.325-.094-.434-.299-.685-1.285-.364-3.753.066-5.07.22-.017.487-.06.705-.031.313.04.527.158.692.428.603.988.54 2.881.185 3.964-.13.397-.374.473-.74.652m.561 13.895c0-1.17.125-2.242.8-3.23.236.038.437.106.636.244.368.255.56.713.644 1.138.196.988-.034 2.433-.604 3.277-.206-.04-.41-.096-.613-.146-.43-.318-.623-.82-.863-1.284m3.304-1.109c.23-.781.367-1.517.961-2.108.414.145.637.192.906.565q.089.121.165.25.076.13.138.267t.11.28.081.29.05.296q.018.149.02.3.002.15-.012.3t-.043.297c-.13.666-.28.998-.857 1.374-.275.01-.548.049-.798-.085-.294-.157-.388-.539-.44-.836a12 12 0 0 0-.28-1.19m-19.589.622-.087-.041zm-7.783.109-.053-.032zm6.563 12.749c-.187-.203-.297-.354-.57-.435-.072-.022-.148-.032-.221-.051-.296-.078-.583-.118-.716-.419-.406-.914-.047-5.195.156-6.307.109-.599.3-1.152.517-1.72.156.043.36.086.508.16.36.182.506.712.596 1.075.349 1.426.407 5.426.12 6.86-.062.312-.224.572-.39.837m5.264.022c-.646-.599-1.038-.81-1.182-1.748-.291-1.89-.13-5.508.99-7.071.178.101.358.229.494.383.807.911.846 5.9.788 7.259a1.35 1.35 0 0 1-.462.584 4 4 0 0 0-.481.43zm3.518-.292c-.415.012-.902.035-1.262-.212a1.12 1.12 0 0 1-.456-.683c-.3-1.302-.106-6.444.594-7.522.367.047.605.082.835.396.977 1.335.75 6.317.479 7.89zm2.216.88-.171-.053c-.286-.339-.009-.54-.15-.952a7 7 0 0 1-.43-.28c-.292-.209-.316-.405-.356-.743-.202-1.69-.177-5.916.867-7.277.17.053.375.104.53.193.348.2.5.493.566.874.191 1.084.34 6.258-.15 6.965-.239.08-.4.13-.605.28.048.413.053.606-.101.992m138.081-2.642c-.242-.068-.352-.14-.536-.311-.148-.375-.017-.662.095-1.027.241.037.352.088.547.235.119.413-.008.688-.106 1.102m-125.741-.809c-.306.008-.472.078-.722-.118.202-.034.41-.046.614-.065zm7.949 11.533c.067-1.44-.22-3.181.16-4.564.154-.56.502-.763.98-1.02.582.019 1.031.08 1.451.527.813.865.432 3.826.428 5.037-.484.078-.995.092-1.485.134-.504.038-1.033-.058-1.534-.113m6.008.169c-.185-1.33-.421-3.45.017-4.708.223-.64.738-.808 1.307-1.067.085.008.17.013.254.025.47.066.883.252 1.148.658.666 1.018.317 3.796.12 4.96-.254.21-.619.134-.946.14zm6.002-.007c-.027-1.43-.368-3.55.15-4.887.19-.487.49-.63.934-.826.887-.019 1.3.204 2.016.717.007 1.069.374 4.08-.263 4.858-.137.167-.363.121-.564.14zm6.059-.158c.024-1.37-.277-3.017.09-4.335.177-.638.598-.825 1.139-1.129.408-.006.77-.018 1.118.231.6.43.736 1.408.776 2.086.049.791.184 2.5-.352 3.102l-.617.018zm5.965-4.772 1.14-.717c.392.005.755.015 1.101.222.438.262.596.743.703 1.213.208.904.255 3.376-.257 4.16l-.563.038-2.084.004zm6.115.352c.392-.439.772-.75 1.267-1.069.222.003.508-.008.719.06.325.106.579.32.736.622.576 1.107.461 3.65.128 4.837-.314.22-.898.139-1.278.136l-1.481.018c-.148-1.528-.097-3.071-.091-4.604m6.106 4.764c.006-1.393-.227-2.946.031-4.311.144-.76.447-1.09 1.078-1.51q.257.002.513.019c.45.035.793.15 1.075.526.518.693.306 4.274.134 5.15-.31.188-.57.114-.925.103zm6.139-.025c-.024-1.347-.236-2.902.014-4.225.149-.796.448-1.125 1.11-1.566.632.011 1.128.095 1.615.518.425.75.244 4.041.15 5.011-.282.223-.4.194-.75.22-.713.035-1.426.036-2.14.042m-63.057-2.882a10.5 10.5 0 0 1 2.852-.442 35 35 0 0 0-1.851-.763c-.07-.392-.014-.716.048-1.102l.143-.154c.217.26.287.523.383.84.154.495.555.629.994.86.586.309 1.163.518 1.759.783-1.45-.079-2.879-.141-4.328-.022m3.919-.614-.093.043-.145-.097c.079-.019.16.032.238.053m-4.238.679c.081-.052.223-.051.319-.064-.058.04-.246.052-.318.064m-2.038.295c-.848.217-3.703.542-4.38.17l.072-.26c.699-.038 4.233-.215 4.613.025zm-5.553 6.616c-.211-1.066-.31-2.218-.154-3.298.16-1.108.544-1.822 1.425-2.491.795.224 1.325 1.103 1.757 1.756.063 1.322.011 2.67.008 3.994l-1.18.022zm100.165-3.747c-.524-.144-1.117-.27-1.456-.727l.067-.24c.412-.29.88-.31 1.366-.375.318-.013.608-.046.907.086.195.086.177.15.254.329-.034.12-.053.214-.125.324-.223.346-.648.47-1.013.603m14.027-.32c-.642-.04-1.357-.148-1.947-.411l-.005-.154c.496-.232.972-.267 1.507-.326a8 8 0 0 1 1.099-.011c.289.024.47.173.639.398l-.12.237c-.411.21-.715.243-1.173.267m4.568.009c-.601-.037-.995-.106-1.511-.43l-.016-.205c.344-.216.607-.234.999-.263.274.006.511.043.782.085.269.21.343.227.433.55-.243.243-.365.209-.688.263m-14.021.22c-.403-.103-.811-.191-1.174-.4-.269-.156-.192-.055-.265-.327.374-.267.808-.232 1.25-.254l.108-.01c.474-.04.922-.093 1.306.231l-.041.252c-.334.337-.736.393-1.184.508m4.887-.202c-.558-.063-1.65-.072-2.034-.455.19-.247.477-.278.763-.353.52-.054 1.08-.09 1.594.017.267.056.327.037.483.274-.203.306-.481.385-.806.517m14.073-.189c-.762-.04-1.581.101-2.317-.104l-.088-.182.328-.348c.739-.022 1.619-.083 2.285.27l.023.146zm-19.372 2.431c-.397-.046-.624-.083-.937-.347v-.252c.234-.386.564-.51.952-.701.358.007.468-.006.773.17.114.26.226.4.065.677-.209.361-.489.361-.854.453m14.532-.289c-.449.055-1.102.175-1.54.056-.244-.066-.15-.012-.294-.257.135-.407.452-.608.773-.868.469.134 1.411.246 1.72.604-.152.313-.354.326-.659.466m-18.932.404c-.21-.035-.43-.065-.634-.123-.291-.084-.407-.146-.544-.412.167-.4.506-.57.852-.799.1.016.22.029.31.072.317.147.363.272.486.572-.106.388-.165.42-.47.69m14.192-.211c-.305-.01-.62-.013-.922-.053-.319-.042-.489-.094-.687-.345.127-.381.317-.472.621-.726.24-.025.523-.033.754.049.32.113.528.303.668.609-.1.305-.155.295-.434.466m8.998-.239c-.552.038-1.48.207-1.913-.15.08-.363.283-.472.55-.722l.2-.006c.531-.015 1.2-.101 1.605.281-.086.32-.21.378-.442.597m-13.703.335c-.275.033-.398.032-.65-.087l-.05-.208c.194-.456.317-.507.71-.787.289.012.412.076.652.234.06.264.028.328-.05.578zm37.248 3.152c-.373-.015-.491.016-.803-.206-.163-.464-.266-.95-.248-1.445.031-.837.115-1.684.746-2.275a1.8 1.8 0 0 1 .74 1.206c.145.856.066 1.987-.435 2.72m48.957.092c-.19.077-.239.044-.435.015-.479-.486-.493-1.362-.492-2.013.002-.798-.015-1.401.584-1.989.243.096.441.216.632.395.387.362.438.901.423 1.405-.02.713-.192 1.677-.712 2.187m-47.194.198c-.13-.079-.231-.179-.343-.279-.117-.567-.227-1.157-.244-1.737-.023-.84.023-1.44.612-2.08.154.07.305.17.452.255.464.793.528 2.254.266 3.117-.12.393-.41.534-.743.723m6.611-.12-.38-.16c-.169-.24-.18-.425-.204-.706-.099-1.184-.08-2.166.723-3.102a.9.9 0 0 1 .46.488c.338.776.387 2.214.05 3.002-.144.335-.337.346-.649.478m8.918.121c-.21-.16-.386-.298-.545-.512-.339-.453-.372-1.389-.288-1.924.12-.767.241-1.198.874-1.666.185.079.297.161.455.283.33.796.28 2.346.072 3.166-.104.411-.226.43-.569.653m2.259.005c-.545-.422-.749-1.18-.82-1.85-.095-.876.142-1.554.686-2.227.345.056.412.048.667.279.393.913.294 1.974.14 2.931-.079.494-.291.593-.673.867m20.276-.037c-.453-.3-.626-.552-.839-1.05-.436-1.026.042-2.068.426-3.031.201.032.452.015.604.162.354.34.382.986.392 1.452.016.774-.022 1.9-.583 2.467m6.784-.064q-.056-.021-.111-.044c-.343-.151-.454-.267-.587-.616-.427-1.12-.259-2.268.234-3.33.338.035.493.055.753.28.453.836.282 1.778.16 2.675-.066.481-.121.667-.45 1.035m-35.755-.096c-.226-.034-.365-.05-.558-.186-.304-.215-.404-.802-.442-1.15-.098-.888.054-1.728.597-2.44.2.027.287.047.456.169.284.204.354.594.4.92.12.858.09 1.99-.453 2.686m-129.17 4.506c.018-1.407-.165-2.89.014-4.284.105-.824.315-1.166.974-1.665.234-.013.468-.023.701.004.395.047.738.233.97.563.846 1.202.668 3.983.373 5.391-.287.237-.656.216-1.02.267-.69.022-1.342-.134-2.012-.276m12.14.125c-.037-1.54-.228-3.266.034-4.785.101-.582.347-.949.82-1.288.992-.014 1.5.145 2.227.838.011 1.698.12 3.469-.035 5.157l-.204.124-.48-.177c-.785.213-1.556.154-2.362.13m6.112.175c.018-1.541-.4-3.831.184-5.26.239-.584.684-.747 1.223-1 .773.105 1.06.414 1.584.97.051 1.696.17 3.5.009 5.186-.307.206-.627.121-.99.114-.673-.042-1.338-.027-2.01-.01m5.979-.074c-.008-1.561-.29-3.499.09-4.99.157-.615.472-.891 1.003-1.203.73.113 1.294.275 1.843.785.335 1.313.281 4.052.073 5.423l-1.233.067-.086.058c-.554-.096-1.129-.105-1.69-.14m-18.067-.072c-.048-1.502-.379-3.579.117-4.99.216-.613.603-.762 1.159-1.011q.133-.001.267.006c.669.039.981.375 1.415.849-.037 1.666.045 3.334-.044 5-.236.235-.493.156-.816.163zm24.232-5.117c.368-.336.806-.612 1.213-.9.528.047 1.041.237 1.377.662.799 1.008.444 4.284.347 5.553-.218.2-.46.112-.746.1l-2.225-.044c-.01-1.786-.06-3.587.033-5.371m12.006 5.228c.005-1.037-.05-2.073-.06-3.11-.013-1.219-.003-2.067.882-2.975.191-.016.386-.034.577-.032.8.009 1.133.405 1.659.93.003 1.212.273 3.965-.169 4.948-.09.2-.229.184-.421.249zm-5.885.087c-.014-1.513-.223-3.167.01-4.66.112-.707.377-.98.94-1.388.236-.017.478-.038.716-.028.344.015.656.178.879.438.889 1.035.532 4.153.392 5.503-.233.184-.405.106-.69.089-.749-.013-1.5.024-2.247.046m-95.09-2.442c-.01-.872.01-1.733.058-2.604l2.006-.011.036 2.601zm4.345-.024c-.035-.785-.162-1.817.138-2.547l1.95-.038c.005.559.056 1.136.03 1.693-.019.386-.089.506-.36.772-.585.061-1.17.09-1.758.12m6.434-.068c-.727.05-1.37.218-1.957-.288-.249-.565-.03-1.562-.009-2.189.324-.036.655-.078.98-.033.43.06.817.283 1.047.662.26.43.085 1.397-.061 1.848m196.922-.643c-.341.026-.567-.129-.87-.27a3 3 0 0 1 .77.054zm-173.196 7.925c-.514.051-1.457.254-1.87-.121-.325-.295-.406-.701-.428-1.122-.103-1.894.169-3.518 1.432-4.971.66.037 1.053.127 1.528.611 1.178 1.203.782 3.772.735 5.324-.46.116-.93.194-1.397.278m-24.189-1.863c-.417-.035-.83-.085-1.245-.14l.08-.016-.087-.138-.091.114-.205-.044c-.104-.687-.127-2.293.065-2.919.487-.034 1.278-.157 1.714.123.136.088.151.245.175.394.082.508.078 1.69-.063 2.176-.032.11-.264.347-.343.45m-3.93-.318q-.193.081-.397.137c-.488.135-.844.222-1.31-.041-.63-.759-.348-1.912-.272-2.83.537.017 1.436-.074 1.823.365.284.323.233 1.92.156 2.369m-8.875.23c-.281.043-.564.074-.846.108-.218-.075-.378-.131-.535-.313-.575-.668-.398-1.834-.3-2.646l1.8-.028c-.007.93.096 1.975-.119 2.879m2.466-.16c-.018-.768-.237-2.09.29-2.68.5-.022.944-.044 1.435.07.255.236.319.366.35.718.068.781.086 1.701-.44 2.311a10.5 10.5 0 0 0-1.635-.42m207.283-2.283-.077-.038zm-.508 1.427-.192-.02.02-.377.118.06zm-56.343 3.335c-.328.028-.552.046-.84.22l-.13.08c-.415.25-.621.51-1.102.394-.106-.194-.148-.163-.103-.323.136-.491.48-.768.904-1.01.475-.06 1.101-.137 1.565 0q.558.162.833.652l-.121.204c-.438.067-.603-.052-1.006-.218m-49.631 1.213c.427-.57.91-1.054 1.415-1.554.31.038.655.15.912.33.745.519 1.018 1.646 1.14 2.488.113.785.142 1.43-.336 2.09-.41.212-.933.13-1.385.112-.523 0-1.07.079-1.516-.232-.583-.759-.203-2.281-.23-3.234m-40.722 3.303c-.275.07-.617.202-.896.127-.18-.048-.332-.421-.428-.58l-.116.333c-.14-.24-.109-.332-.025-.606.275-.9-.028-1.75.201-2.613.172-.645.755-1.014 1.288-1.34.568.027 1.196.106 1.597.56.806.91.474 3.039.445 4.214-.711-.096-1.346-.145-2.066-.095m4.401.202c-.023-1.096-.216-2.566.218-3.578.318-.743.843-1.016 1.557-1.32.387.007.712.106 1.011.357.622.523.843 1.413.911 2.19.054.625.009 1.721-.51 2.17-.304.264-.757.162-1.127.153zm5.856-3.275c.426-.76.783-1.178 1.537-1.633.552.017 1.105.07 1.498.505.822.912.516 2.994.489 4.142l-1.376.082a24 24 0 0 0-2.143.14c-.038-1.075-.007-2.16-.005-3.236m6.179 3.147c-.017-1.068-.185-2.43.198-3.442.258-.686.754-1.007 1.389-1.315.53.029 1.084.119 1.48.498.823.786.515 3.056.494 4.135-.484.058-.98.064-1.467.087zm6.324-3.987c.382-.267.776-.519 1.163-.777.514.001 1.083.055 1.473.44.939.925.577 3.015.54 4.247l-1.468.068-1.928.051c.012-1.356.062-2.681.22-4.03m6.016.605c.397-.586.85-.972 1.401-1.401.57.04 1.2.12 1.588.592.759.924.375 3.067.314 4.224l-1.463.048-1.766.037c-.056-1.163-.052-2.335-.074-3.5m5.901-.264c.425-.438.873-.77 1.37-1.116.246-.02.525-.033.765.037.487.141.841.56 1.057.999.51 1.039.613 2.655.22 3.744-.326.188-.653.12-1.025.118l-2.32-.001zm78.187 7.538c-.301-.25-.46-.436-.564-.815.157-.416.312-.484.656-.751.096.06.247.148.325.226.235.233.24.389.27.696-.21.399-.308.425-.687.643m4.686.058c-.232.145-.198.16-.498.157-.03-.112-.055-.184-.056-.308-.005-.693.295-1.048.78-1.49.099.002.202 0 .299.02.338.065.403.111.607.366l-.04.302c-.297.478-.613.669-1.092.953m35.234-.378-.122.022c-.495.081-1.204.094-1.598-.283-.247-.236-.242-.37-.237-.681.736.102 1.378.232 1.958.72zm-4.518-.549.117.11c-.07.295.003.196-.22.376-.544.442-1.396.179-2.036.094l-.073-.153c.732-.364 1.599-.637 2.421-.661l.1.114-.192.23zm-60.442 1.88a4.3 4.3 0 0 1-.825-.442c-.282-.207-.386-.431-.438-.772.096-.44.273-.599.601-.895.29.212.469.39.661.698.278.444.411.775.297 1.293zm-4.348-.278a3 3 0 0 1-.521-.275c-.132-.294-.147-.288-.054-.594.362-.413.706-.558 1.208-.766a1 1 0 0 1 .323.288c.201.272.197.347.155.661-.314.429-.618.517-1.11.686m-20.196 2.023-.214-.12c.017-1.011-.73-1.424-.326-2.496.138.029.306.058.432.119.313.151.506.529.558.86.093.594-.129 1.152-.45 1.637m-47.251-.468c-.684.106-1.683.424-2.341.16-.314-.128-.43-.198-.566-.508.217-.307.361-.317.705-.45.372.135.634.18 1.032.138 1.103-.116 1 .429 1.565.39.574-.04 1.111-.338 1.704-.286.306.026.43.17.58.409l-.1.287-.38.142c-.996.226-1.293.159-2.2-.282m-63.691-.121a41 41 0 0 0 2.222-.41c1.366-.131 3.182.285 4.551.477-.663.23-1.32.366-2.007.5-1.68.101-3.16-.06-4.766-.567m11.446.67c-.252.196-2.309.014-2.73-.014-.506-.035-1.467-.037-1.812-.429.376-.406 1.181-.418 1.708-.49.9.03 3.338-.033 4.018.514l-.077.17c-.365.106-.735.175-1.107.249m48.18-.532c-.264.118-.562.265-.85.302-.506.064-.965-.284-1.475-.277-1.476.021-5.58.702-6.687-.146l.054-.347c.79-.049 1.626.097 2.424.108 1.473.018 5.781-.29 6.904.12l-.05.142zm-71.326.525-.264-.078q-.101.036-.204.067c-.87.264-2.988.217-3.794-.23l.09-.173c.718-.333 1.518-.325 2.295-.377q.014-.002.027-.001c.98.264 1.947-.094 2.963.028.44.053 1.07.138 1.362.503-.058.06-.11.127-.175.179-.46.365-1.745.14-2.3.082m42.427.101c-.815-.017-2.73.167-3.317-.35.086-.376.33-.428.645-.634.928.121 2.335.191 3.19.555.237.101.164.03.257.246-.334.244-.356.21-.775.183m-37.435-.175c-.25-.118-.475-.205-.668-.406l.653-.178c.019 0 .037-.006.056-.002.286.054.304.08.452.314l-.124.224zm43.837-.052c-.543.197-1.212.44-1.774.228-.276-.343-.202-.438-.174-.864.522.033 1.615.104 2.023.445zm-38.754.379c-.425.011-.732.028-1.12-.16-.189-.311-.154-.347-.109-.714.255.013.597.024.837.114.306.114.364.188.51.455zm45.813-.114c-.179-.175-.173-.145-.255-.415l.333-.395c.246.187.164.066.246.364zm-23.804-.153c-.197.023-.177.026-.355.03-.594.015-1.05-.022-1.481-.445.315-.053.673-.084.991-.053.379.037.6.18.845.467m4.482-.229-.155.027-.025-.137.23-.061zm15.522-.035-.16.032-.02-.117.179-.046zm92.904 1.392c-.272-.009-.313-.042-.544-.192-.141-.378-.012-.739.07-1.118.286.046.441.073.668.258.119.37-.067.705-.194 1.052m63.967 1.858c-.39-.202-.81-.563-.97-.985-.228-.602-.025-1.115.215-1.675l.475.087c.311.203.441.552.534.901.175.657.095 1.115-.254 1.673m-130.019-1.229c-.7.058-1.064-.034-1.626-.46a4.8 4.8 0 0 1 1.626.46m-5.496-.186-.27.097-.18-.169.306-.095zm99.684 1.824c-.377.004-.484.035-.812-.169-.221-.586.001-1.294.082-1.903.228.141.478.287.644.503.358.47.185 1.042.086 1.57m-107.027-1.065c-.249-.104-.14-.022-.312-.265.254-.328.697-.409 1.075-.537.156.088.273.223.402.345l-.022.188c-.348.235-.737.23-1.143.27m5.95-.654-.141.073-.182-.135.191-.067zm-23.095 2.144-.103.013c-.317.034-.894.163-1.136-.03.273-.25.532-.506.789-.773.367.174.711.325 1.023.592l-.092.145zm-41.75-.121c-.309-.043-.571-.067-.879-.001-.428.09-.88.222-1.293.06.028-.348.159-.372.403-.596.612.167 1.663-.022 2.133.4l-.114.177zm-5.96.073c-.875-.234-2.324.222-2.725-.075.757-.359 1.632-.453 2.46-.37.22.174.213.17.265.445m37.21-.249-.052.013.002-.084.05-.012zm20.003.632c-.446-.044-.865-.062-1.278-.246l.039-.121c1.864-.318 4.955.24 6.565-.497.367.07.88.473 1.214.67-1.818.365-4.654.286-6.54.194m-29.323.143c-.773-.265-1.77-.216-2.455-.534l.168-.39c.833.134 1.757.162 2.537.487l.055.198zm16.13-.213c-.59.048-1.068.052-1.638-.133l-.037-.157c.373-.243.756-.281 1.188-.353.538-.08 1.553.043 2.008.343l-.038.11c-.397.25-1.023.18-1.483.19m-33.584-.27c-.342.071-.668.177-1.013.076l-.077-.316c.36-.041.652-.058 1.015.003zm19.651.248c-.373.015-.715.124-1.038-.07l.09-.168.578-.129c.51-.057.865-.04 1.357.113l-.072.008-.1.21c-.237.065-.566.031-.816.037m10.574.497-.584-.382-.042-.226.287-.372c.302.05.334.028.533.255.026.312-.05.453-.195.725m-40.659-.789.423.15c-.116.211-.049.14-.165.242l-.332.02c0-.294-.029-.158.074-.412m162.134 2.699-.115-.219c.553-.322 1.34-.415 1.964-.56l.09.118-.1.193c-.593.264-1.205.354-1.84.468m-165.187.42q-.146.01-.291.014c-.914.014-3.5.017-4.17-.638.297-.27.653-.263 1.043-.338 1.16-.098 3.744-.3 4.716.306l-.03.209c-.405.28-.791.348-1.268.447m14.861.216c-.08-.02-.17-.048-.253-.045-.756.029-1.544.016-2.296.15-2.08.368-5.071.149-7.07-.518a22 22 0 0 0-1.585-.446c.403-.219.94-.233 1.393-.302.836-.016 1.78.192 2.645.222 3.093.11 6.328-.111 9.35.565-.634.11-1.276.204-1.887.416-.171.06-.06.053-.297-.042m56.739-.59c.627-.132 1.26-.229 1.892-.33 1.265-.04 2.415-.002 3.666.218-.544.171-1.083.264-1.644.36-1.293-.141-2.614-.256-3.914-.249m-48.235.243c-1.376.269-2.446.217-3.692-.42.838.03 3.16-.117 3.692.42m-4.756-.011-.276.135c-.369-.023-.425-.21-.663-.472.317-.051.608-.142.906.017zm6.141.054c-.329.082-.6-.096-.892-.23.319-.045.574-.086.893-.003zm35.476.109-.132.09c-.379.002-.528-.13-.855-.312l.87.067zm138.038.964c-.898.057-1.779.192-2.673.275-.647.06-1.327.089-1.851-.343-.21-.377-.178-.632-.143-1.043 1.202.105 3.977-.31 4.855.524.045.33.014.314-.188.587m-105.283 7.367-.184.104.046-.196.376-.09zm-53.658.148-.139.01c-.314.021-.914.122-1.145-.083l.303-.163c.413.036.79.082 1.19.192zm.784.049-.187-.125zm1.545.309c-.371-.118-.755-.187-1.136-.267l-.01-.094.523-.104c.386-.017.668-.026 1.038.115l-.045.163zm-1.545-.309.186.062zm20.888.307c-.708.018-1.525-.191-2.23-.304a6 6 0 0 1 1.349-.074c.442.033.586.056.881.378m-22.481 1.79c-.34-.015-.68-.028-1.02-.056-.41-.036-.69-.074-.956-.395.525-.04 1.184-.16 1.685.046.224.092.204.196.292.405m-5.586 1.531-.07-.037zm61.73 2.646q2.314-.666 4.697-1.013c2.062-.2 4.477.122 6.521.454-1.496.397-3.04.6-4.567.841-2.226.283-4.428-.09-6.651-.281m12.512-.091c2.523-.47 5.046-.657 7.605-.786 2.674-.311 5.794.095 8.54.086-2.541.685-5.194.92-7.792 1.321-2.887.419-5.546.305-8.353-.622m90.416-.348c-.482.016-.957-.006-1.438-.03l-.037-.097c.35-.1.625-.156.988-.167.304-.035.617-.08.924-.082.258-.002.644-.01.826.178-.419.158-.82.171-1.263.198m-185.119.982-.366-.227.034-.115.739-.136.313.102.055.119zm-1.202-.103a25 25 0 0 1-2.072-.049l-.043-.093.675-.039c.656-.041 1.338-.132 1.99-.028l-.039.119zm-4.239.036-.102-.04zm.513.003-.093.03-.162-.089.115-.05zm1.09-.097-.156.093-.226-.091.126-.083zm66.955 1.252c2.484-.392 5.05-.32 7.507-.74.751-.178 5.696.175 6.48.451l-.03.15c-1.865.007-4.654 1.633-6.37 1.292-1.996.138-5.552-.752-7.587-1.153m-58.968-.018c2.16-.259 4.328-.38 6.488-.625 2.654-.363 5.751.181 8.432.353-2.09.476-4.23.855-6.294 1.436-2.913-.129-5.738-.793-8.626-1.165m46.271.75c-1.237-.122-3.391-.068-4.457-.674.205-.215.474-.242.763-.279 1.06-.137 2.19-.022 3.257-.018 1.66.005 3.378-.112 5.008-.412 1.131-.078 3.304.14 4.294.677l-.094.091c-1.49.075-2.903.435-4.374.63-1.45.194-2.947.129-4.397-.016m81.238-.654c1.2-.13 2.403-.167 3.602-.288 1.393-.14 2.757-.382 4.161-.427 1.563-.447 6.648.437 8.42.719-2.373.627-5.003 1.103-7.448 1.28-2.967-.102-5.866-.486-8.736-1.284m-49.991-.24c1.182-.16 2.378-.245 3.566-.349 2.25-.227 5.581-.173 7.75.45l-3.203.408c-3.04.56-5.157.58-8.112-.508m20.877 1.291c-1.842.665-6.194-.438-8.132-1.015l.06-.157c2.117-.539 4.725-.317 6.918-.464.885-.102 1.918.094 2.819.137 1.628.077 3.249.034 4.868.253-2.16.557-4.353.794-6.533 1.245m10.857-1.319c1.788-.276 3.621-.069 5.426-.176 3.297-.232 6.71-.087 9.984.359-1.719.595-3.74 1.185-5.55 1.385-2.728.275-7.157-.871-9.86-1.568m52.093.324c2.408-.152 4.81-.383 7.22-.517 3.029.043 6.207.002 9.201.485-2.013.243-5.688.401-7.453 1.136-2.968.81-6.073-.376-8.968-1.104m-14.368.12.922-.05c1.266-.061 2.517-.281 3.769-.47 2.357-.343 5.075.222 7.459.37-1.635.5-3.366.589-5.036.959a14 14 0 0 0-1.876.641c-1.78-.54-3.361-1.22-5.238-1.45m-7.218 17.187c-.341.152-.823.335-1.194.347-.369.012-.432-.085-.674-.323-.296-.816-.11-1.925-.087-2.79.504.043 1.035.068 1.495.298.365.182.7.462.815.868.168.591-.075 1.093-.355 1.6m-22.604.707a4.2 4.2 0 0 1-.986.58c-.31.12-.468.067-.766-.049-.592-.872-.263-2.844-.244-3.92.591.026 1.16.043 1.688.338.436.244.8.615.908 1.116.161.744-.193 1.347-.6 1.934m-22.952.417q-.01-1.842.025-3.684c.77.015 1.34.012 1.962.52.38.311.639.7.67 1.2.037.608-.209 1.069-.595 1.514-.673.301-1.338.365-2.062.45m43.638 5.053q.004-1.84-.019-3.681c.907-.01 1.675-.074 2.487.4.373.218.654.509.726.953.102.624-.264 1.333-.64 1.8-.846.476-1.61.493-2.554.528M50.528 199.077q1.864-.43 3.76-.686t3.808-.337c1.504-.102 6.045.43 7.433.956-2.453.092-4.901.412-7.356.355-2.55-.1-5.098-.124-7.645-.288m18.657-.106c3.142-.159 6.294-.675 9.441-.914 1.845.049 4.13.283 5.923.709l.003.115c-1.708.683-6.74 1.127-8.464.567-2.015-.496-4.544.131-6.903-.477m-38.446-.018c1.846-.579 3.935-.602 5.858-.777 3.053-.467 7.1.234 10.148.813-1.159.217-2.3.367-3.48.377-.754.006-1.486-.091-2.238-.009-1.068-.144-2.223-.029-3.306-.059q-3.495-.077-6.982-.345m59.01.287c1.672-.53 3.444-.777 5.168-1.077 3.327-.137 6.408.291 9.667.896-1.758.298-3.574.43-5.349.608-2.333.326-6.934-.294-9.486-.427m18.728.19c2.233-.791 4.246-1.076 6.59-1.254 1.196-.199 4.606.495 6.024.692-2.148.557-4.082.992-6.31 1.004-2.117.027-4.19-.487-6.304-.443m24.749.396c-1.498-.135-3.014-.105-4.516-.234-.62-.053-1.707-.39-2.252-.153l-.011-.258-.385-.032-.058.052-.198-.057c.335-.257.813-.245 1.217-.36 1.508-.424 3.065-.476 4.621-.606 2.485-.196 5.24.255 7.7.63-2.07.603-3.98.895-6.118 1.018m10.906-.663c2.345-.627 4.819-.452 7.168-.983.974.306 3.68.196 4.916.293 1.818.143 3.636.416 5.444.653-2.296.303-4.69.678-7.004.748-3.488.051-7.06-.316-10.524-.71m33.357.515c-.832-.107-1.708-.04-2.548-.063-2.068-.056-4.233-.114-6.285-.38-.259-.034-.334.017-.504-.202l.126.024.09-.2c.147.036.26.066.412.044q3.158-.447 6.344-.6c2.584-.225 5.305.022 7.847.5.224.042.411.078.642.08.191.003.302.015.481.073l-.094.171c-1.85.721-4.54.733-6.511.553m33.496-.622c1.823-.323 3.65-.389 5.493-.504 2.7-.333 5.25.402 7.903.368.387-.005.615.106.953.276l-.121.133c-1.527-.073-3.095.12-4.62.226-3.295.156-6.36.268-9.608-.499m-20.291.084c1.407-.271 2.803-.226 4.2-.48 2.025-.137 7.44-.088 9.259.317.957.214 1.904-.041 2.832.174l.055.094-.155.108-.054-.276-.07.293c-1.241.172-2.598.136-3.85.125-1.608.1-3.253.285-4.863.264-2.47-.032-4.9-.376-7.354-.62m-23.083-.028-.067.041-.054-.13.078-.03zm-117.579 1.845c2.667-.193 5.328-.557 7.996-.78 2.89-.11 7.12.234 9.914 1.024-2.312.805-5.404.82-7.848.775-3.465-.047-6.663-.326-10.062-1.02m19.737.34c1.94-.209 3.87-.596 5.804-.87 2.952-.352 7.908-.063 10.855.463-1.89.668-3.834 1-5.834 1.053-1.228-.137-2.568.09-3.814.066-2.329-.046-4.715-.336-7.011-.713m18.917.093c1.765-.357 3.523-.432 5.293-.721 1.955-.23 8.758-.065 10.417.65q-2.41.577-4.868.886c-3.541.384-7.341-.326-10.842-.815m19.542-.199c2.08-.091 4.125-.43 6.218-.495 2.816-.211 5.632.067 8.408.54-2.074.341-4.12.817-6.198 1.143-2.961.106-5.566-.517-8.428-1.188m16.736.177c1.71-.442 3.429-.597 5.19-.683.65-.117 1.391-.046 2.058-.051 3.034-.023 5.873.27 8.881.64-.816.063-5.11.93-5.382.869-3.874.76-6.958-.357-10.748-.775m47.881.75c-1.77-.122-3.666-.02-5.41-.27-.554-.08-1.219-.016-1.746-.147-.049-.012-.096-.032-.144-.048l-.012.009.17-.249c1.058-.243 2.293-.129 3.391-.197q4.549-.326 9.104-.525c1.343-.075 6.056.139 7.142.644l-.112.137c-3.738 1.073-8.494.937-12.383.646m-28.627-.632-.29-.053.146-.107c6.364-.853 13.115-.989 19.446.191-.228.035-.14.03-.338.032-2.117.022-4.297.552-6.412.763-4.247.423-8.379-.058-12.553-.827m77.064.83c-1.287.227-10.278-.48-11.403-.973.267-.22 7.064-.473 8.023-.516.811.115 1.769-.013 2.602-.017 1.897-.008 7.148.027 8.732.597-1.776-.08-3.315.352-5.047.62-.959.147-1.94.208-2.907.289m-31.407-.995c1.789-.151 3.704-.05 5.462-.379 1.16-.35 9.625-.015 10.918.325l.049.137c-1.371.589-3.114.697-4.587.913-3.866.37-8.032-.34-11.842-.996m-26.354.197.135-.03.025.021zm2.003.756-.055-.034zm-96.164 1.07c2.187-.162 4.374-.42 6.56-.56 3.118-.198 6.246-.28 9.366-.459.216-.022.435-.048.651-.052.333-.005.51-.023.751.214-.079.225-.097.263-.306.388-1.073.641-8.302 1.754-9.664 1.714-1.654-.049-3.298-.426-4.903-.8a49 49 0 0 1-2.455-.445m-39.303-.116c2.16-.603 4.473-.425 6.694-.533 2.034.106 8.585-.541 10.02.34-.632.386-5.003.972-6.051 1.126-3.358.763-7.42.112-10.664-.933m20.293-.176c1.957.248 3.665-.171 5.607-.332.51.158 4.155-.103 5.03-.093 1.968.025 3.93.102 5.886.335-1.716.699-3.582.923-5.396 1.251-3.677.478-7.653.245-11.127-1.161m138.16.252c3.739-.19 7.547-.076 11.263-.486 2.174.146 4.282 0 6.465.307-4.164 1.417-6.33 1.824-10.705 1.196-.705.154-5.946-.841-7.023-1.017m20.951.079c1.785-.258 3.709-.203 5.516-.24q3.905-.07 7.802-.335c1.785-.086 3.614.08 5.397.202-1.423.326-2.792.831-4.195 1.23-2.794.793-5.692.593-8.506-.03zm-23.788-.126c-.048.048-.09.104-.146.144-.814.59-6.307 1.228-7.558 1.286q-1.428.066-2.846-.114c-1.072-.129-8.078-1.162-8.445-1.63.05.004.099.012.148.01 1.997-.1 4.083.086 6.094.106 2.232.022 4.461-.175 6.683-.14 2.024.032 4.046.262 6.07.338m-96.747.094c2.328.07 4.703-.15 7.03-.27 1.405-.247 7.568.493 9.261.715-2.367.88-4.552 1.13-7.058 1.163-2.432-.02-7.028-.54-9.234-1.609m37.42 1.084c2.015-.478 3.619-1.071 5.725-1.122 3.134-.233 4.849.91 7.653 1.226-1.935.188-3.798.557-5.75.638-2.649.216-5.033-.573-7.628-.742m-18.258.02c1.874-.402 3.782-.674 5.665-1.04 1.542-.076 3.08.082 4.61.009.664-.032 3.33.106 3.822.419-.533.683-3.593 1.1-4.551 1.268-1.56.123-3.09.179-4.648-.017-1.641-.207-3.236-.616-4.898-.638m34.596-.067c2.653-.589 6.045-.787 8.778-.956 2.326-.157 4.712-.14 7.042-.046 1.868.076 3.725.24 5.595.144-2.697.827-5.509 1.62-8.314 1.955-4.417.287-8.743-.557-13.102-1.097m-35.115 2.256q3.96.037 7.91-.212c2.616.033 5.329.047 7.887.629-2.392.786-4.955 1.013-7.455 1.075-3.091-.036-5.42-.585-8.342-1.493m18.024.506c1.557-.397 3.132-.542 4.726-.714 3.031-.099 5.885.153 8.9.457-1.36.457-2.778.693-4.185.95-2.72.406-6.7-.237-9.441-.693m-.555 2.655c2.516-.543 5.111-.622 7.673-.74 2.996-.082 6.163-.05 9.143.25-2.247 1.027-5.022 1.133-7.447 1.554-3.046.36-6.442-.152-9.369-1.065"/></svg>