<svg xmlns="http://www.w3.org/2000/svg" viewBox="0 0 256 256"><path d="M125.542 0h6.53c1.122.226 2.265.41 3.367.72 1.723.486 3.406 1.2 5.076 1.842l9.358 3.662 23.964 9.172 25.046 9.633c4.321 1.674 9.806 3.526 13.81 5.639 4.056 2.14 8.587 5.321 11.128 9.168 1.655 2.505 2.608 5.429 3.69 8.213q1.85 4.86 3.83 9.67 7.176 17.547 14.076 35.205l5.926 15.023c1.057 2.738 2.18 5.465 3.09 8.256.794 2.444.98 4.903 1.567 7.36v10.264c-1.338 6.044-3.588 11.601-5.73 17.385-4.208 11.357-8.882 22.543-13.318 33.813q-4.147 10.702-8.444 21.346c-1.393 3.422-2.653 7.17-4.525 10.347-2.05 3.48-5.154 6.361-8.54 8.515-3.817 2.429-8.112 3.788-12.32 5.365l-14.96 5.603-32.306 12.129c-5.75 2.145-11.499 4.547-17.348 6.392-1.974.623-4.002.91-6.033 1.278h-7.559c-3.231-.597-6.196-1.757-9.27-2.868q-4.547-1.622-9.068-3.312l-23.395-8.648-28.675-10.645c-3.613-1.356-7.33-2.543-10.881-4.054-1.789-.76-3.533-1.756-5.133-2.858q-.645-.444-1.262-.926-.617-.481-1.205-.998t-1.145-1.067-1.08-1.133-1.011-1.195-.94-1.25q-.451-.64-.864-1.305-.414-.665-.787-1.353c-1.33-2.431-2.234-5.112-3.217-7.697-1.838-4.831-3.548-9.705-5.365-14.543l-10.934-29.576q-3.454-9.147-6.493-18.44c-1.235-3.69-2.594-7.455-3.455-11.249-.33-1.457-.471-2.973-.737-4.445v-1.763c.23-1.233.272-2.564.4-3.815.274-2.7.734-5.248 1.584-7.837 1.31-3.991 3.184-7.858 4.829-11.723l8.482-20.145 11.363-27.236q1.935-4.736 3.94-9.443c1.159-2.713 2.251-5.47 3.904-7.932 1.724-2.567 4.433-4.693 7.175-6.082 1.497-.758 3.099-1.335 4.66-1.947l8.305-3.213q13.581-5.512 27.281-10.723l26.662-10.424q4.29-1.712 8.597-3.379C119.96 1.69 122.599.57 125.542 0m1.53 4.05c-1.386.109-2.666.337-3.988.77-2.065.675-4.084 1.549-6.103 2.348l-8.98 3.499Q92.357 16.59 76.843 22.843l-20.59 8.136c-3.79 1.491-7.788 2.835-11.44 4.636q-.433.214-.855.45-.423.235-.832.492-.41.256-.807.533-.396.277-.778.573-.382.297-.748.613-.367.315-.717.649t-.682.684q-.333.352-.647.719c-2.736 3.167-4.008 7.196-5.653 10.973l-4.516 10.376-14.115 33.074c-1.93 4.523-3.822 9.065-5.801 13.567-1.288 2.927-2.785 5.86-3.857 8.868-.904 2.536-1.764 5.551-1.54 8.264.137 1.647.545 3.275 1.038 4.848 1.747 5.58 3.86 11.06 5.926 16.529q2.979 7.902 5.854 15.843 5.608 15.743 11.724 31.297c2.38 6.146 4.682 12.491 7.495 18.447.55 1.163 1.295 2.748 2.271 3.617.622.553 1.505 1.011 2.256 1.364 2.222 1.042 4.628 1.819 6.911 2.734q8.874 3.598 17.822 7.007l42.568 16.716c5.097 1.984 10.116 4.32 15.273 6.125 1.525.533 3.078.868 4.691.956 1.905.11 3.671-.095 5.492-.675 3.233-1.032 6.42-2.378 9.59-3.595q9.784-3.761 19.528-7.626 17.114-6.624 34.152-13.443c2.721-1.075 18.97-7.214 20.094-8.27.754-.708 1.319-2.134 1.719-3.074.763-1.792 1.417-3.635 2.137-5.445l6.067-15.454 11.693-29.319c2.063-5.271 4.08-10.573 6.219-15.812 1.758-4.305 3.671-8.548 5.172-12.953.86-2.526 1.546-5.213 1.466-7.9-.066-2.1-.517-4.14-1.144-6.139-1.574-5.015-3.57-9.932-5.466-14.835q-5.77-14.797-11.783-29.498l-7.82-19.474c-1.819-4.556-3.78-9.858-6.022-14.18-.917-1.77-2.233-3.318-3.692-4.664-1.54-1.423-3.487-2.563-5.373-3.458-4.019-1.908-8.272-3.372-12.395-5.04q-11.591-4.814-23.233-9.505-12.79-5.322-25.686-10.381l-7.811-3.121c-1.776-.715-3.553-1.492-5.377-2.075-2.302-.735-4.67-1.095-7.089-.98-.154.008-.308.011-.46.033"/><path d="M126.594 249.874c-1.29-.038-2.715-.507-3.923-.941-5.865-2.11-11.646-4.612-17.442-6.913l-32.371-12.771-26.202-10.25c-2.321-.934-6.472-2.112-8.315-3.59-1.1-.883-1.966-2.958-2.53-4.219-2.487-5.565-4.56-11.335-6.788-17.008q-8.554-21.944-16.515-44.11l-4.909-13.096c-1.27-3.446-2.925-7.285-3.285-10.961-.286-2.915.576-6.048 1.538-8.767 1.209-3.417 2.875-6.727 4.334-10.046L17.07 91.25q7.44-17.606 15.064-35.132 1.507-3.45 2.977-6.917c1.195-2.814 2.219-5.744 4.182-8.135 1.567-1.908 3.72-3.456 5.933-4.528 2.508-1.216 5.208-2.148 7.799-3.173l14.452-5.703q19.535-7.896 39.227-15.393l9.575-3.715c3.53-1.376 7.13-3.118 10.929-3.502.203-.027.137-.023.328-.03 2.27-.092 4.381.156 6.551.842 3.885 1.227 7.738 3.028 11.524 4.547q12.116 4.825 24.168 9.807l27.236 11.115c4.184 1.71 8.504 3.175 12.596 5.1 1.422.67 2.894 1.557 4.045 2.63 1.347 1.257 2.593 2.646 3.435 4.297 2.004 3.932 3.589 8.18 5.25 12.267l8.76 21.941q5.929 14.595 11.692 29.255c1.717 4.43 3.522 8.805 5.018 13.318.778 2.347 1.505 4.793 1.591 7.278.096 2.747-.644 5.599-1.519 8.18-1.269 3.75-2.937 7.338-4.442 10.993q-3.14 7.711-6.17 15.466l-13.21 33.43c-2.382 6.022-4.689 12.097-7.177 18.075-.348.838-.895 2.449-1.6 3.03-1.018.84-6.373 2.703-7.948 3.335q-10.744 4.365-21.55 8.574-18.027 7.167-36.13 14.14c-4.425 1.715-8.827 3.477-13.277 5.131-1.472.548-2.936 1.165-4.435 1.636-1.803.566-3.474.615-5.35.466m-6.867-226.272c-.835.716-1.674 1.659-2.386 2.498l.184.133c1.018.102 1.398-.931 2.224-1.435.469-.287 1.14-.431 1.666-.595-.161.17-.292.24-.336.477l.326.197c.584-.486 1.995-1.787 2.088-2.54l-.222-.118c-1.35.125-2.456.602-3.544 1.383m4.098 5.225.085.068c1.54 1.278 4.271 5.165 5.781 5.898.3.145.741.224 1.071.203.046-.003.091-.014.137-.02-.191-1.042-1.719-1.433-1.71-2.556.273.026.603.302.799.207.022-.614-.882-1.637-1.248-2.138-.618-.267-1.22-.523-1.867-.715-.31-.46-.61-.915-.973-1.335-2.227-1.816-4.645-.58-7.004-1.14-.222.228-.223.217-.24.534.516.548 1.3.11 1.876.502-.349.248-.822.201-1.232.134a2 2 0 0 1-.748-.253c-.129-.273-.013-.719-.172-.857-.264.184-.398.362-.483.683a.93.93 0 0 0 .089.749c2.261.88 3.35-.401 6.47 1.42-.219-.45-.486-.907-.63-1.384m12.778 21.66c-.533-1.86-.776-3.906-1.561-5.674-.237-.532-.517-1.151-1.08-1.37-.276.197-.366.362-.462.69-.514 1.758.414 6.305 1.257 7.938.281.544.633 1.094 1.144 1.449 1.004.696 4.943 1.972 6.279 2.391l.07.065-.07-.065c-1.175-.982-2.513-1.73-3.583-2.842.788.355 1.54.99 2.308 1.424-1.29-2.68-.362-4.012-2.196-6.859-.066 1.376-.128 2.748-.132 4.126-1.21-2.654-.572-7.434-2.75-9.361l-.092.123c.029.783.291 1.535.503 2.286.28 1.809.286 3.843.365 5.678M113.937 111.8c.665-.146 1.586-.27 2.11-.717.236-.427.245-.69.14-1.15-.16-.705-.32-1.22-.955-1.614-.354-.22-.776-.395-1.194-.237-.577.218-.91.91-1.21 1.41-.307.023-.712-.362-.972-.547l-.371.076c-.138-.152-.126-.105-.185-.275-.38-1.087-.585-2.96-.044-3.99.263-.172.25-.17.562-.123.026.297.02.607.2.859.029.04.068.07.102.107l.13.135-.13-.135c.197-.193.135-.21.444-.203 1.455.033 2.139 2.2 4.632 1.982-.284.773-.659 1.671-.389 2.498.25.769.879 1.06 1.534 1.42.525-.416.993-.912 1.472-1.38.204 1.016.345 1.965 1.16 2.694.418.374.998.602 1.563.547.411-.039.866-.243 1.087-.609.17-.281.095-.437.014-.724-.614-.636-1.602-.903-2.325-1.444-1.081-.81-2.602-2.885-3.744-3.215-.468-.135-.785-1.102-1.203-1.469a3 3 0 0 1-.558-.61l.116-.14c1.778-.303 4.168 2.617 5.567 3.572 1.052.717 2.244 1.145 3.503 1.315 5.595.753 7.014-4.625 11.377-5.359 1.37-.23 2.542.22 3.656.993l.539 1.681c.619-.91.978-1.686 1.1-2.795.551-5.052-1.677-8.957-4.752-12.718a57 57 0 0 0 3.197-11.687 19 19 0 0 1-2.268 1.54c.115 1.83.065 2.924-.812 4.561-.087-1.102-.248-2.16-.86-3.109-.72-1.12-1.82-1.645-2.915-2.322-2.027-1.252-3.662-3.02-4.27-5.382-.072-.275-.147-.488-.001-.744.597.311.938 1.153 1.42 1.632 1.102 1.095 3.195 1.742 4.689 1.716 1.548-.027 3.229-.661 4.305-1.792 1.81-1.9 1.254-3.634 1.246-5.92 0-.416.046-.714.353-1.019.406-.153.728-.087 1.108.095.912.437 1.309 1.339 1.505 2.275.219 1.042.246 2.176.333 3.236q.279 3.044.434 6.097c.096 1.928.07 3.995.454 5.89.593 2.923 2.38 4.342 3.145 6.736.324 1.013.438 2.14.607 3.19.33 2.05.625 4.123 1.183 6.125.919 3.29 2.39 6.513 3.648 9.69.984 2.487 1.83 5.034 2.771 7.54q-.173.496-.324 1c-.525 1.713-.998 4.401-.05 6.043.155.268.23.42.54.511.73-.682.492-2.138 1.433-2.774.541-.365 1.178-.121 1.662.206.945.636 1.663 1.644 2.429 2.48 1.839 2.008 4.48 4.74 7.132 5.515 3.874 1.13 7.837-.9 11.598-1.525q.689-.112 1.384-.163.696-.051 1.393-.04t1.392.081q.693.072 1.378.204c2.198.418 5.392 1.875 7.528.597.49-.293.751-.606.882-1.159-.045-.19-.04-.313-.182-.46-.86-.89-2.296.068-3.324-.017l-.18-.019c-2.357-.23-4.603-1.077-6.982-1.222-4.895-.298-9.392 2.096-14.102 2.984-1.39-.832-2.36-2.02-3.475-3.167-1.033-1.063-2.234-2.073-3.068-3.305-.717-1.06-1.181-2.289-1.673-3.464-.699-1.672-1.431-3.356-1.906-5.108-.482-1.777-.692-3.681-1.006-5.497-.922-5.327-1.69-10.62-3.631-15.695-.366-.956-.753-2.417-1.552-3.086-.78-.653-1.743-.432-2.664-.32.789-.734 1.535-1.395 2.074-2.341-.79-4.837-2.154-9.652-3.24-14.434-.9-3.957-1.572-9.215-3.188-12.77-.713-1.57-1.875-2.869-3.23-3.914-1.195-.92-2.511-1.668-3.848-2.36-1.718-.891-4.155-1.63-5.35-3.219-1.834-2.441-1.535-8.405-2.395-9.587-.19-.037-.232-.052-.441-.06-.443-.016-.884.235-1.218.5-1.023.809-1.852 2.114-2.764 3.073-1.025 1.077-2.175 1.963-3.269 2.959-.893.813-1.401 1.725-1.44 2.948-.051 1.683.69 2.84 1.777 4.03-.653-.019-5.945-.376-6.172-.498.135-.197.096-.189.259-.295 1.28-.834 2.254-.656 3.654-.39-.453-1.082-.704-2.173-.953-3.315-3.723 1.165-9.882 4.206-12.715 6.807-.764.701-1.348 1.362-1.806 2.308-.84 1.733-1.303 3.684-1.817 5.533-1.593 5.725-2.704 11.351-3.57 17.228-.228 1.545-.591 3.178-.625 4.739-.034 1.566.875 2.323 1.891 3.378-.81-.264-1.597-.628-2.382-.959-1.743 3.915-3.122 8.173-3.73 12.42-.494 3.458-.657 7.009-1.54 10.4-.606 2.332-3.31 6.944-2.81 9.096.219.942 1.072 1.37 1.826 1.845-1.701.093-4.41.244-5.63 1.51-.722.75-2.48 3.251-2.476 4.264l.135.133c1.436.148 2.765-2.37 3.847-3.142.936-.668 2.433-.804 3.527-1.14.717-.221 1.422-.544 2.136-.791 1.357.639 1.58 1.466 2.631 2.374.337-.28.611-.698.76-1.111.636-1.776-1.08-3.076-1.72-4.546-.331-.759-.38-1.551-.223-2.359.212-1.094.856-2.233 1.314-3.254 1.552-3.462 3.457-6.83 4.831-10.36.811-2.084 3.615-12.166 2.967-13.884-.165-.44-.782-.278-.949-.655.522-.332 1.009-.684 1.407-1.163 2.735-3.292 4.372-14.235 4.304-18.558-.02-1.25-.797-2.6-.762-3.23.018-.307.137-.444.351-.645.187.001.198-.031.343.085.454.367.767 1.152.888 1.704.227 1.037.104 2.321.122 3.39q.019 1.99.268 3.964c.496 4.243 1.716 8.361 2.737 12.498-.901 2.59-2.106 5.078-3.006 7.671-.636 1.834-.966 3.786-1.701 5.581-.593 1.45-1.656 2.773-2.403 4.158-2.082 3.854-3.317 8.8-3.091 13.172.085 1.638.379 3.372.837 4.947.317 1.088.787 2.13.946 3.259l.02.158a7.8 7.8 0 0 0 1.363-1.827c-.075-.338-.194-.727-.194-1.074 0-.365.086-.619.36-.867.049-.044.103-.08.154-.12a2.8 2.8 0 0 1-.736-.382l.003-.205c.519-.377 2.133-.231 2.959-.614.432-.2.78-.482.92-.959.303-1.035-.342-2.273-.836-3.155-.394.075-.77.154-1.174.146-.278-.906-.504-1.907-1.229-2.564-.349-.106-.465-.153-.819.001-.291.127-.373.37-.487.64-.09.211-.139.365-.296.54-.03.035-.067.062-.1.093.462-2.561 1.983-3.561 2.883-5.931.61.155 1.227.202 1.852.26a8 8 0 0 0 1.548-.932l.844-1.811zm80.248 40.06c1.154.042 2.32.279 3.461.455q1.26.196 2.511.44t2.493.536q1.241.291 2.47.63t2.445.725 2.415.817 2.382.91 2.345 1 2.305 1.089c2.05 1.026 3.943 2.34 5.972 3.403.746.391 2.942 1.512 3.642.896.655-.576 1.181-2.595 1.39-3.441-1.417-.014-2.826.054-4.225-.223-1.984-.393-3.791-1.357-5.693-2.011-1.567-.54-3.243-.844-4.784-1.442-.402-.157-.89-.36-1.196-.677-.434-.449-.736-.998-.746-1.628.134-.266.161-.248.44-.364.7.023 1.26.81 1.932 1.006.61.179 1.271.02 1.889.166 1.271.3 2.474.888 3.755 1.185 2.842.658 7.354.5 9.644-1.518.293-.257.256-.37.285-.736-.34-.229-.695-.185-1.08-.102-.904.196-1.706.694-2.603.914-2.528.62-6.89.302-9.142-.987-1.602-.917-2.693-2.49-4.363-3.327 1.965.24 3.609.602 5.519-.147l.174-.067.105-.042c-4.826-2.048-8.274-2.156-12.998-3.539-2.092-.613-4.01-1.796-6.123-2.285-1.191-.276-2.473-.111-3.685-.143-2.383-.062-4.843-1.093-6.96-2.106 5.82.401 11.14-.01 16.602-2.282 1.346-.56 2.733-1.162 3.907-2.039-2.902.343-4.673 1.294-7.347 2.115-1.522.467-3.133.72-4.717.845-3.351.262-7.15-.226-10.28-1.477-1.34-.536-2.697-1.347-4.116-1.624-1.597-.31-3.248.155-4.863.045 1.473-.523 2.96-1.177 4.498-1.477 4.733-.925 8.904 2.247 13.714 2.312 4.858.065 9.833-2.608 15.183-2.679 5.005-.065 9.58 1.65 14.469 2.251 2.266.278 4.498-.09 6.762-.14l.023-1.612c-1.98-.114-3.976-.095-5.94-.398-5.024-.774-10.202-2.345-15.314-2.181-2.317.074-4.687.457-6.937 1.01-2.841.7-5.708 1.807-8.674 1.692-4.129-.159-7.751-2.688-12.011-2.479-2.085.102-3.94.98-5.934 1.48-2.459.618-5.115.947-7.645 1.119 2.155 1.061 4.247 1.579 6.638 1.826 2.323.24 8.155-.898 9.067 1.988.745 2.355.712 3.1 3.065 4.434 2.546 1.443 6.17 1.722 9.027 2.05.794.09 1.672.104 2.445.29.882.212 1.581.827 2.416 1.14.91.34 1.887.477 2.794.842 1.834.738 3.221 2.002 4.849 3.06-.818.05-1.65.152-2.457-.024l-.22-.046c-1.18-.265-2.3-.85-3.412-1.311-1.003-.416-2.037-.753-3.043-1.16-1.123-.456-2.213-1.005-3.355-1.409-2.078-.733-3.512-.098-5.16-.555-1.442-.399-2.534-1.573-3.935-2.094-1.962-.73-6.618-1.568-8.724-1.785-1.18-.122-2.372-.122-3.554-.221-.512-.043-1.262-.082-1.55-.575-.252-.432-.167-1.722-.717-1.855-.897-.216-2.467.226-3.437.335-2.056.23-4.18.239-6.247.204.98-.497 1.991-.968 2.935-1.53-2.966-2.624-5.87-5.735-9.192-7.913-1.798-1.18-4.369-2.272-6.425-2.876-1.142-.335-2.597-.721-3.794-.684a.9.9 0 0 0-.585.206c-.062.398.05.613.289.935 1.774 2.389 4.501 3.088 6.11 4.797.95 1.009 1.867 2.386 2.574 3.58.713 1.205 1.21 2.643 2.354 3.52 1.22.934 2.849 1.151 4.33 1.33 1.193.145 9.157.605 9.44.815-.21.459-.841.681-1.299.846-3.621 1.305-8.921 1.368-12.412-.376-3.262-1.631-3.579-5.847-5.81-8.465-.898-1.054-2.103-1.807-3.284-2.503-1.196-.706-2.466-1.37-3.81-1.747-1.185 3.075-1.138 6.462-2.109 9.595-.217.7-.988 2.5-.731 3.174.19.145.318.212.558.26.779.16 1.891-.062 2.704-.083a17.6 17.6 0 0 1 2.633.15c3.6.451 7.277 1.052 10.817 1.845 1.593.356 3.215 1.105 4.833 1.255 1.203.112 2.556-.086 3.765-.17.494-.034 2.452-.289 2.553.263-1.27 1.121-6.037 1.903-7.77 1.781-3.518-.248-6.7-2.351-10.229-2.37-4.028-.02-8.007 1.859-11.877 2.774-2.747.649-5.624.774-8.435.942q-2.567.16-5.139.146t-5.137-.204-5.11-.553q-2.547-.364-5.062-.9c-2.8-.608-6.362-2.037-9.084-2.141-3.561-.136-5.226 1.64-8.38 2.266-1.673.333-10.949-.531-13.16-.811-.286-.036-.382.001-.588-.208.696-.743 3.018-.73 4.003-.762 3.066-.1 6.227.273 9.226-.494 2.584-.661 5.39-3.376 7.709-3.362 3.475.023 6.527 1.916 9.91 2.423l.064-.16.15.13c.207-.29.266-.452.227-.814-.099-.941-1.505-2.538-1.858-3.951-.616-2.46-.936-5.093-1.262-7.606-.143-1.1-.224-2.242-.46-3.322-.937.66-1.846 1.383-2.811 2-1.323.848-2.968 1.507-4.052 2.665-2.46 2.627-3.211 6.385-6.446 8.508-4.57 3-9.501-.036-13.721.866-1.885.403-4.881 2.613-6.921 3.466-1.916.783-3.882 1.51-5.922 1.898-.937.178-2.02-.012-2.899.336-1.26.5-2.338 1.388-3.586 1.918-1.737.736-3.701.994-5.36 1.876-2.034 1.08-3.62 2.668-5.807 3.558-2.268.923-4.998.708-6.838 1.473-1.078.449-1.872 1.508-2.873 2.108-1.92 1.15-5.982 2.839-8.143 3.427-1.226.333-2.497.51-3.754.679.405 1.047 1.612 4.662 2.526 5.008 1.207.457 23.07-5.022 26.347-5.748 12.17-2.697 24.53-5.19 36.892-6.796 8.856-1.15 17.83-1.586 26.662-2.892-6.96-1.334-13.012-2.115-20.104-1.399-2.484.25-4.933.78-7.413 1.05-2.259.245-4.505.043-6.762.414-5.158.85-10.338 2.023-15.392 3.358-5.135 1.356-10.182 3.052-15.306 4.453q-7.188 1.997-14.572 3.062c-2.537.385-5.26 1.05-7.764.246 2.995-.318 5.81-1.197 8.734-1.849 2.884-.642 5.797-1.138 8.672-1.824 3.433-.818 6.797-1.877 10.142-2.997 2.076-.695 4.184-1.358 6.15-2.333-1.717-.414-3.673-1.087-4.635-2.697-.15-.25-.225-.451-.219-.747.162-.23.184-.286.474-.348.7-.15 1.696.243 2.269.625.566.377 1.033.872 1.638 1.2 1.476.802 4.56.599 6.182.329.464-.077 1.018-.304 1.26-.734.164-.293.107-.487-.038-.771-.411-.801-2.87-1.544-3.729-1.953 1.245-.028 2.472-.07 3.713.061.724.623 1.258 1.434 1.817 2.202 1.05.183 2.382.33 3.342-.216l.165-.273c-.756-.77-1.715-1.278-2.38-2.14 6.128-1.29 14.275 2.617 19.675-.085.966-.483 1.596-1.446 2.482-2.043 6.05 1.136 12.03 2.627 18.094 3.683 1.878.328 3.802.746 5.7.902 2.635.216 5.285-.19 7.897-.504 5.206-.627 9.624-1.195 14.687-2.666 1.732-.503 3.376-1.25 5.089-1.764 1.23 1.167 2.684 1.366 4.244 1.875 2.634.858 5.121 1.724 7.94 1.639q1.24-.046 2.467-.223t2.43-.483c1.274-.324 2.5-.754 3.822-.839 1.912-.123 3.55.737 5.394 1.01 1.823.27 3.673.209 5.502.392-2.605.826-5.296 1.327-7.98.642-1.106-.282-2.816-1.11-3.799-.298l-.046.231c.677.987 4.415 2.144 5.651 2.373 2.371.44 4.437.327 6.72-.447.88-.298 1.762-.656 2.675-.835 1.458-.286 2.926-.215 4.4-.123l-.11.098c-.934.81-2.306 1.779-3.446 2.255-.506.211-1.166.206-1.624.472-.238.139-.269.287-.374.528.044.345.028.403.331.618.86.609 3.17.981 4.264 1.208 4.778.99 9.5 2.042 14.232 3.24 3.694.936 7.364 1.998 11.08 2.84 2.689.61 5.374 1.146 8.104 1.532-4.672.307-11.078-1.086-15.722-2.036q-10.337-2.02-20.525-4.69-6.192-1.607-12.405-3.128c-2.364-.588-4.725-1.257-7.119-1.708-3.325-.626-6.76-.656-10.123-1.002-3.807-.392-7.59-.922-11.411-1.184-1.486-.102-3.057-.25-4.542-.139-1.376.104-2.687.681-4.048.887-2.78.419-5.65.597-8.45.918 5.51.468 10.978 1.29 16.475 1.869 8.33.877 16.695 1.575 24.967 2.924 7.394 1.206 14.714 2.87 22.054 4.367 7.1 1.448 14.111 3.303 21.17 4.942 3.423.795 7.056 1.854 10.564 2.092.772-1.881 1.694-3.816 2.185-5.79-1.494-.01-3.198.13-4.64-.302-2.268-.677-4.437-2.015-6.616-2.954-6.05-2.606-12.295-4.902-18.155-7.914-.873-.448-1.97-.875-2.726-1.48M127.965 7.798c-2.647.22-7.543 2.493-10.336 3.444q-23.642 8.028-46.537 17.99-5.36 2.387-10.65 4.923c-2.605 1.265-5.178 2.615-7.813 3.816-2.083.948-4.218 1.786-6.34 2.642-1.353.546-2.79 1.04-4.044 1.79-1.083 1.69-1.881 3.617-2.701 5.444-2.855 6.361-5.263 12.948-6.715 19.778 2.777-3.31 5.634-6.497 8.515-9.715 2.663-2.974 5.297-5.958 8.184-8.722 1.735-1.661 3.608-3.19 5.452-4.729 8.005-6.68 16.75-12.608 26.338-16.789 5.775-2.518 11.762-4.401 17.81-6.133 7.959-2.278 16.12-4.372 24.388-5.088 7.027-.608 13.966.346 20.847 1.709 20.285 4.017 40.555 12.52 56.447 25.931 7.018 5.923 13.553 12.852 18.66 20.502 10.472 15.686 16.665 37.935 18.225 56.612q.456 5.627.267 11.27c-1.004 26.944-13.866 57.645-33.764 76.136q-4.647 4.31-9.726 8.1c-2.148 1.597-4.682 3.057-6.59 4.924q6.403-1.898 12.83-3.71c3.583-1.047 9.34-2.336 12.278-4.48.699-.51 1.238-1.508 1.636-2.265.933-1.77 1.671-3.69 2.464-5.529 1.855-4.301 3.595-8.651 5.423-12.965l9.66-23.41c2.358-5.667 4.966-11.248 6.905-17.078 1.353-4.067 2.19-8.249 3.288-12.384 1.077-4.056 2.442-8 2.708-12.225.302-4.806-1.729-11.28-3.185-15.881q-1.14-3.642-2.483-7.214-7.494-19.195-15.46-38.198-3.368-8.239-6.883-16.415c-.875-2.029-1.637-4.14-2.62-6.117-.291-.586-.658-1.47-1.25-1.773-2.74-1.402-6.298-2.497-9.22-3.815-7.082-3.196-14.064-6.63-21.135-9.852-5.439-2.479-10.98-4.798-16.51-7.066-8.37-3.433-17.033-6.294-25.542-9.375-3.01-1.09-10.056-4.14-12.821-4.083m-1.584 14.225c-.833.2-1.584.445-2.365.8 3.258 2.66 3.831 3.766 8.061 5.41-.472-.704-1.026-1.289-1.613-1.897.614.307 1.637.998 2.303 1.001.088-.241.095-.132-.017-.382-.337-.758-1.26-.983-1.97-1.26l-1.091-.356c-.671-.22-1.298-.665-1.589-1.33-.02-.045-.032-.093-.048-.14l.1-.134c1.198.249 2.72 1.42 3.896 1.334l-.166-.317c.614-.115 1.755.28 2.414.394-1.81-1.888-3.965-3.116-6.629-3.167q-.644-.014-1.286.044m-2.97 1.413c-.434.474-.796.967-.793 1.64.002.447.19.615.497.891.704.636 4.897 3.114 5.797 3.43.98.343 2.027.468 3.06.51l.273.046c-.025-.35-.197-.416-.457-.642-.99-.861-2.301-1.255-3.367-1.998-1.31-.913-3.545-3.744-5.01-3.877m-14.577.375-.434.079c-.332.603-.226 1.415-.57 2.1l-.034.071c.656.035 1.348.125 1.997.006.492-.763.985-1.52 1.42-2.317-.791.013-1.59.007-2.38.061m31.668.058c.968.669 1.789 1.45 2.606 2.292 2.706.051 5.556.279 8.25.072-3.11-1.486-7.408-2.466-10.856-2.364m-20.014 1.368c-.572.327-1.001.718-1.472 1.17.694-.069 1.388-.132 2.078-.245.473-.01 1.011.028 1.464-.117l.083-.21.028.14c-.391-.463-1.28-.665-1.879-.718-.1-.01-.201-.014-.302-.02m13.446.913c.153.914 1.145 4.036 1.561 4.852.211.414.523.745.842 1.077.066-.544.038-1.849.305-2.24.132.228.195.421.257.677-.034.399-.165.994.05 1.337l.17-.072c.348-.887.285-1.8-.078-2.676-.445-1.073-1.418-2.298-2.52-2.77a4 4 0 0 0-.587-.185m-12.986.08c-.622.178-1.743.462-2.2.916.462.161 1.116-.014 1.597-.08.65-.07 1.38-.009 1.99-.243l.011-.166c-.407-.282-.895-.462-1.398-.427m-4.328.13c-1.23.457-2.034 1.073-2.61 2.302-.457.971-.665 2.206-.275 3.233.168.442.406.886.8 1.157l.078-.179c.716-1.642 3.316-4.454 2.71-6.336-.288-.197-.348-.176-.703-.177m-13.588 1.707c-2.379.065-4.792.046-7.134.508 2.163 1.011 3.677 1.418 6.062 1.462q2.906.107 5.813.043l.944-2.053c-1.897-.021-3.79-.039-5.685.04m41.697.212c.166.67.313 1.336.586 1.973q6.595.209 13.192.061c2.398-.036 5.116.089 7.466-.437l.288-.113c-.469-.34-1.55-.422-2.151-.537-1.527-.293-3.06-.596-4.609-.746-2.065-.2-4.173-.161-6.246-.173zm-26.09 1.622c-1.226.56-2.267 1.404-2.773 2.693-.447 1.141-.271 2.027.038 3.154.602-.551 1.227-1.032 2.087-.998.575.022 1.073.354 1.43.785.614.74.92 1.751 1.181 2.663-.443 1.155-.587 2.101-.64 3.334.477.102.97.129 1.255.55-.097.18-.074.224-.287.296-.41.137-.9.066-1.256-.184-.275-.193-.417-.473-.452-.802-.156-1.45 1.565-3.5-.065-5.187-.377-.39-.943-.579-1.479-.563-.564.016-1.156.249-1.677.45.358 3.576 1.092 5.997 2.72 9.2.427.841.839 1.775 1.451 2.497.595.538 1.064.73 1.871.697 2.014-.083 3.635-.672 4.993-2.217 2.048-2.33 2.782-5.386 3.477-8.326-1.054-.703-2.083-1.39-2.948-2.325-1.076-.17-2.371-.477-3.448-.2-.487.125-1.753.979-2.072.55.12-.518.484-1 .94-1.271 1.262-.751 3.041-.323 4.39-.026-1.357-2.081-2.978-4.212-5.575-4.717-1.043-.202-2.108-.109-3.161-.053m13.925.514c-.555.035-1.21-.004-1.704.269-.14.248-.17.285-.1.579.182.753 1.01 1.332 1.644 1.683 1.049.58 3.778.666 4.16 1.886-.046.357-.179.483-.405.745-.368-.41.224-1.152-.528-1.577-.246.121-.287.148-.379.427-.212.646-.14 1.35-.367 2.011.228.368.347.682.729.896.37-.086.574-.323.837-.577.367-.658.742-1.548.549-2.318-.12-.476-.502-.835-.929-1.05-2.3-1.159-3.444.003-5.365-2.786 1.248 1.177 1.963 1.597 3.695 1.805.162-.454.365-.875.278-1.365-.195-.273-.303-.415-.645-.489-.464-.101-.993-.1-1.47-.14m-43.093 1.27c-1.924.027-4.479-.225-6.27.446-.656.246-1.237.67-1.81 1.065 2.645.352 5.307.733 7.971.897 3.166.194 6.332.124 9.501.089 2.469-.033 4.941-.097 7.41-.092.13-.683.358-1.248.68-1.861-2.145-.38-4.433-.3-6.608-.357q-5.436-.167-10.874-.187m78.627.262c-3.915.255-7.859.285-11.78.377-3.551.084-7.107.235-10.658.28l-.188 1.844q4.61.026 9.22-.002c7.255.058 15.863.532 22.97-.522-3.116-1.674-6.089-2.257-9.565-1.977m-90.162 3.17c-.557.29-1.565.673-1.819 1.28-.078.187.001.251.072.422.908.58 2.682.54 3.777.657 9.31.99 18.708.885 28.058.567.627-.01 1.566.11 2.085-.216.152-.316.157-.289.044-.62-.701-.613-1.787-.835-2.695-.962-2.756-.387-5.772-.259-8.568-.365-3.867-.147-7.727-.454-11.594-.58-3.119-.103-6.244-.016-9.36-.183m53.83.604c-.088.333-.212.635-.098.975.233.179.422.189.704.24.605.11 1.036.287 1.39.814.19.282.284.633.204.97-.093.395-.315.57-.623.805l-.189.017c.063-.702.666-.897.33-1.67-.156-.097-.186-.168-.382-.121-.501.117-.987.548-1.343.908-.108.39-.165.646-.093 1.047.217.343.4.54.828.623q.095.018.191.026.097.007.194.004t.192-.017.19-.037.185-.056.178-.077.168-.095.158-.113c.448-.356.679-.912.714-1.474.044-.697-.181-1.437-.447-2.074-.888-.466-1.418-.767-2.45-.695m35.524.348c-7.33.227-14.66.64-21.993.717-.275.628-.57 1.252-.787 1.903q6.66-.09 13.322-.064c5.308.006 10.631.081 15.938-.003 2.13-.034 4.257-.244 6.386-.27.281-.614.54-1.215.752-1.858-4.399-.59-9.196-.755-13.618-.425m-90.83 3.075c.227.851.504 1.643.861 2.449 6.316.99 12.89.737 19.264.654q6.91-.06 13.82.046c.147-.668.285-1.339.458-2q-10.303-.21-20.596-.706c-4.613-.208-9.185-.478-13.807-.443m96.687.913q-10.639.302-21.27.808c-2.655.11-6.49-.056-9.035.447.275.54.537 1.072.886 1.569q3.09.027 6.178-.017 10.05-.153 20.1-.087c2.957-.003 5.92.06 8.874-.057.284-.862.551-1.735.86-2.588q-3.296-.092-6.593-.075m16.645 2.6-.031.237c.454.09.874.065 1.334.041l.08-.167c-.339-.255-.983-.165-1.383-.111m-111.835.652c.076.987.787 2.058 1.254 2.909 5.743.31 11.523.146 17.273.149 4.687.002 9.429.186 14.108.043-.087-.587-.187-1.174-.227-1.767-3.768-.227-7.55-.26-11.321-.43-7.025-.314-14.06-.706-21.087-.904m97.97.87q-15.546.72-31.102 1.127c.157.574.3 1.155.479 1.723l2.602.005q9.5-.086 19 .036c3.504.021 7.069.167 10.566-.024l.975-2.91c-.835.01-1.687-.014-2.52.043m-111.63.39c-1.414.038-2.562-.043-3.609 1.05a11 11 0 0 0-.498.569c3.152.298 6.31.485 9.466.734 1.355.106 2.71.22 4.07.266-2.45-2.3-4.866-2.779-8.153-2.67q-.638.02-1.276.05m122.384.303c-1.217.654-2.404 1.422-3.396 2.39 3.097.048 6.15-.249 9.237-.405 1.298-.11 2.597-.232 3.9-.28-.406-.38-.782-.728-1.303-.938-1.955-.786-6.213-.752-8.438-.767m-71.292.749c-1.646 1.445-1.014 2.98-1.861 4.7-.606 1.232-1.75 2.221-2.643 3.252-.532.613-.988 1.3-1.444 1.97 2.735-.9 6.611-1.715 8.45-4.104-.043-.314-.111-.408.034-.698l.219-.433c.452-.88.522-2.135.206-3.073-.084-.25-.22-.486-.451-.626a.76.76 0 0 0-.618-.087c-.313.559-.449 1.18-.63 1.79-.584 1.972-1.569 3.063-3.24 4.201 1.758-2.028 1.813-4.448 2.902-6.779l-.089-.117c-.278 0-.558-.009-.835.004m-35.662 1.852a54 54 0 0 0 1.47 3.067l17.332.114c2.814.019 5.673.174 8.483.068.496-.329.968-.652 1.415-1.048l.906-.773c-4.528-.291-9.082-.357-13.615-.556q-7.998-.393-15.992-.872m-21.026.83c-.246.419-.5.834-.71 1.272 6.707.765 13.448 1.525 20.182 1.99l.23-.032c-.228-.748-2.088-2.024-2.738-2.575q-8.473-.568-16.964-.655m111.719.515c-8.045.189-16.104.79-24.148.808.11.578.207 1.163.335 1.737l5.79-.055 14.748-.057c2.915.016 5.834.14 8.748.102q.556-1.306 1.053-2.637-3.264.004-6.526.102m11.408-.053c-1.052.607-1.79 1.599-2.563 2.514 6.045.342 12.215-.042 18.234-.605 1.04-.108 2.09-.19 3.125-.345-.256-.375-.5-.785-.81-1.118-3.009-.31-6.071-.288-9.094-.359-2.948-.068-5.947-.232-8.892-.087M61.47 51.93c-1.175.047-3.918-.228-4.766.555-.303.28-.377.85-.452 1.238 6.926.609 13.777 1.072 20.728 1.246 1.77.028 3.541.072 5.31.031-.824-.666-1.678-1.313-2.425-2.067-5.638-.962-12.678-1.31-18.395-1.003m20.62.282c.466.927.976 1.816 1.507 2.707q9.598.093 19.197.074l.951-.829 1.173-1.02q-6.668-.218-13.331-.534c-3.16-.15-6.334-.38-9.496-.398m98.005.593-2.023.08c-.627.923-1.37 1.834-1.917 2.801 7.025-.07 14.07.09 21.064-.653 1.269-.125 2.606-.172 3.85-.448.315-.517.623-1.021.866-1.577q-7.377-.316-14.76-.27c-2.351 0-4.732-.057-7.08.067m-11.826.373-20.735.823c.452.536.89 1.089 1.398 1.573q2.798-.056 5.597-.033 9.789-.076 19.577.042l1.092-2.506c-2.3-.014-4.63-.02-6.929.101M56.882 55.93c-.136.654.526 1.515.87 2.068 5.864.995 11.869 1.12 17.8 1.181l15.616.083c1.897.014 7.99.308 9.486-.002l.095-.085.682-1.61q-14.593-.922-29.208-1.385c-5.055-.18-10.3-.65-15.341-.25m85.525.133h.15zm46.204.87-23.46.741c-4.621.165-9.242.404-13.867.436.362.557.712 1.127 1.098 1.666q5.215.097 10.43.086 17.827.22 35.648-.282c.508-.883 1.055-1.761 1.484-2.685-3.773-.002-7.56-.068-11.332.038M58.989 60.147q.75 1.368 1.554 2.705c8.186.736 16.445.606 24.658.697l9.085.095c1.576.01 3.2.102 4.77-.014l.228-.3.71-1.408c-9.138-.215-18.29-.873-27.42-1.34-4.49-.23-9.093-.66-13.585-.435m132.613 1.041-24.607.76c-4.406.131-8.789.326-13.199.342.205.563.388 1.148.654 1.685q2.686.143 5.377.152 9.422.083 18.844.05c5.694.018 11.41.101 17.098-.168.609-.95 1.271-1.893 1.796-2.892q-2.983-.047-5.963.072m-142.308.215c-1.236.248-2.258.626-3.295 1.373a49 49 0 0 1 5.723.865q1.235.168 2.47.322c-.999-1.026-2.13-2.528-3.678-2.594-.403-.017-.817.015-1.22.035m160.441.1c-2.028.761-4.32 1.322-6.2 2.382.647-.023 1.291-.043 1.936-.112q3.023-.19 6.043-.415c-.522-.576-1.137-1.44-1.779-1.855M61.568 64.546c.556 1.1 1.215 2.054 2.006 2.999 7.975.643 16.033.427 24.03.432h6.59c1.144-.004 2.371.086 3.498-.099l.178-.158.551-1.476c-8.656-.188-17.293-.778-25.94-1.217-3.631-.185-7.276-.472-10.913-.481m131.285 1.027-18.87.64c-6.263.261-12.574.64-18.841.637.19.586.369 1.178.583 1.756l1.466.016q11.99-.123 23.981-.114c3.858-.012 7.829-.228 11.677-.005.824-.903 1.528-2.01 2.189-3.038-.727.033-1.46.048-2.185.108m-140.414.24c-2.823.032-5.65.1-8.473.077l-.922 1.77q2.805-.007 5.608.1c3.088.107 6.207.25 9.297.24-1.99-1.695-2.819-2.292-5.51-2.187m148.569.044c-1.116.81-2.335 1.593-3.344 2.53q3.709-.048 7.411-.26c1.656-.08 3.383-.106 5.02-.36q1.887-.209 3.766-.486c-1.336-.494-2.672-1.055-4.094-1.24-2.505-.325-6.587.45-8.759-.184M64.372 69.168l1.931 3.12q10.025-.038 20.05.06 3.463.028 6.928.021c1.04 0 2.163.121 3.186-.05l.168-.243c.153-.444.317-.888.458-1.336-7.972-.086-15.952-.62-23.91-1.064-2.929-.164-5.881-.463-8.811-.508m-22.14.244c-.303.467-.613.93-.89 1.413 3.423.336 6.83.823 10.25 1.174q5.49.555 11.002.797l.423-.007c-.15-.756-1.906-2.1-2.51-2.66-1.941-.402-4.01-.389-5.987-.48-4.107-.189-8.179-.242-12.289-.237m154.012.501c-.18.036-.44.053-.604.121-.659.278-2.09 2.18-2.638 2.815 6.627-.07 13.258-.1 19.849-.89q1.889-.248 3.788-.4c-.309-.524-.601-1.063-.977-1.543l-9.637-.098c-3.245-.048-6.541-.165-9.781-.005m-6 .141-18.527.714c-5.069.194-10.15.46-15.221.507.195.584.368 1.19.613 1.756l1.31.049c5.976.041 11.949-.1 17.924-.153 4.63-.04 9.284.038 13.909-.14.59-.962 1.19-1.893 1.866-2.798zM40.286 73.43c.066.669.107 1.351.217 2.013 2.37.149 4.725.436 7.09.635 6.554.549 13.157 1.097 19.732 1.314-.913-1.249-2.094-2.559-3.333-3.487-5.051-.318-10.126-.276-15.185-.344-2.825-.038-5.703-.287-8.521-.13m26.906.43c.497.872 1.044 1.743 1.407 2.68 4.218.152 8.448.079 12.669.137 1.992.027 12.846.38 13.717.117l.118-.196.392-1.407zm140.129.2c-5.29.092-10.602.129-15.886.425-.868.927-1.697 1.863-2.47 2.873 3.447-.088 6.9-.224 10.347-.231 5.804-.053 11.643-.245 17.403-1.004.315-.581.669-1.165.949-1.763-3.18-.593-7.08-.317-10.343-.3m-22.902.617c-5.433.311-10.858.491-16.294.709-3.52.14-7.05.383-10.574.345.182.573.386 1.145.546 1.724q2.166.039 4.333.004c8.256-.188 16.548-.096 24.807-.09.627-.932 1.24-1.875 1.899-2.784-1.572.013-3.147.006-4.717.093m-141.93 3.13c-.423.019-.727-.044-1.072.213-.087.824.578 1.564 1.008 2.237 5.44.289 10.893.687 16.337.849 3.575.106 7.171.026 10.747.024q9.691-.063 19.38.14c.742.015 4.25.243 4.738.084l.249-.167q.008-.008.014-.018l.476-1.662c-5.38-.21-10.76-.535-16.14-.798-2.865-.14-5.794-.357-8.66-.315-.323.335-.003.729-.396.925l-.227-.11c-.38-.184-.795-.395-1.21-.481-1.754-.365-4.806-.326-6.721-.426q-6.048-.349-12.104-.487c-2.13-.047-4.29-.136-6.419-.008m161.823.637-45.709 1.686c.248.57.493 1.127.807 1.665 3.3.082 6.602-.024 9.903-.04l29-.193c5.094-.084 10.247-.058 15.325-.464.563-.906 1.147-1.804 1.686-2.724-3.66-.009-7.355-.096-11.012.07m-177.49 2.403c-2.748 4.673-5.2 9.621-7.521 14.519-1.301 2.744-2.662 5.502-3.724 8.348-1.33 3.562-2.324 7.267-3.331 10.93-.923 3.355-1.905 6.866-2.001 10.362-.09 3.272.76 6.667 1.58 9.819 2.096 8.057 4.585 16.4 8.095 23.957.867 1.874 1.776 3.597 3.315 5.012-1.307-4.542-2.016-9.339-2.81-13.996-3.475-20.407-2.818-33.612 2.183-53.698.456-1.832 4.255-14.758 4.215-15.253m17.103 1.069-.124.2c.503.995 1.564 1.875 2.355 2.646q6.319.484 12.652.697c6.149.156 12.32.052 18.473.09 5.467.032 10.954.23 16.419.205.072-.6.132-1.195.17-1.797l-33.404-1.413c-5.496-.243-11.04-.634-16.541-.629m158.546 1.016-25.807 1.015c-5.665.246-11.418.668-17.087.554.159.6.304 1.206.486 1.798l9.593-.138q14.314.094 28.624-.235c4.039-.07 8.113.093 12.142-.212.635-.948 1.262-1.901 1.935-2.824a163 163 0 0 0-9.886.042m20.75 1.22c-1.146.263-2.208.588-3.259 1.122l.02.092.42-.073c.732-.067 2.91.117 3.366-.369.005-.337-.095-.46-.289-.728zM47.6 86.39c.746 1.177 1.831 2.124 2.835 3.077 2.535.15 5.077.336 7.615.395 6.053.141 12.124-.002 18.18.063q5.447.047 10.893.163c2.185.046 4.406.178 6.588.11.088-.623.182-1.24.19-1.871-10.752-.21-21.527-.808-32.271-1.3l-9.062-.433c-1.639-.081-3.33-.242-4.968-.204m-11.083.771c-1.263.222-2.543.583-3.56 1.4l-.016.19c.939.248 2.145.16 3.121.233 1.763.132 3.523.32 5.283.482 1.102.075 2.21.173 3.315.2-2.515-1.311-5.27-2.432-8.143-2.505m165.878.154c-10.106.243-20.199.865-30.302 1.236-3.826.14-7.736.48-11.559.38l.407 1.714q3.26-.002 6.518-.044l30.347-.258c3.178-.042 6.369-.021 9.545-.14.606-1.024 1.238-2.019 1.998-2.937-2.318-.088-4.637-.03-6.954.049m12.233.209c-1.405.681-2.623 1.65-3.86 2.593 3.474-.13 6.927-.267 10.37-.773 1.194-.14 3.195-.171 4.106-.974l.02-.212c-1.385-.941-8.704-.758-10.636-.634M32.114 90.752c-.587.479-1.329 1.108-1.552 1.856.027.14-.002.246.137.319.951.497 17.383 1.223 19.958 1.371.549.021 1.098.051 1.647.06-1.48-1.077-3.203-2.314-4.962-2.883-2.188-.708-12.724-.965-15.228-.723m19.608.352q1.43 1.645 2.996 3.161l27.067.115 7.087.066c1.154.015 2.559.2 3.679-.031l.171-.19.486-1.471c-5.691-.346-11.407-.394-17.103-.678q-7.524-.408-15.053-.684c-3.111-.127-6.215-.302-9.33-.288m157.755.454c-1.115.23-2.619 2.154-3.374 2.958 5.47.006 10.983 0 16.429-.556 1.026-.175 3.424-.454 4.142-1.253.09-.099.117-.191.164-.308l-.12.266.107-.327c-.39-.485-1.257-.57-1.848-.637-2.975-.342-6.099-.234-9.09-.222-2.117.01-4.298-.08-6.41.079m-6.663.137c-7.606.181-15.213.66-22.813 1.013l-18.497.728.33 1.693c.779-.049 1.557-.105 2.338-.102q19.855.055 39.702-.514 1.054-1.456 2.138-2.89c-1.065.016-2.136.01-3.198.072M33.43 95.054c-.92.039-2.424-.082-3.105.618-.302.31-.42.733-.561 1.131 3.737.627 7.579.842 11.359 1.095 7.425.497 14.795.71 22.236.761l26.362.222h1.648l.445-1.823c-3.495-.122-35.89-1.47-35.981-1.437l.083.666c-.217.184-.104.154-.387.138-1.065-.06-2.04-.803-3.115-.909-2.376-.232-4.84-.194-7.229-.278-3.896-.137-7.862-.373-11.756-.184m178.239.76c-10.32.176-20.611.781-30.916 1.332-6.079.325-12.167.692-18.254.775l.603 1.678q7.23-.188 14.46-.225l28.786-.47c5.854-.106 12.94.09 18.69-.814.588-.092 1.602-.255 1.996-.754.163-.206.177-.466.092-.708-.133-.378-.544-.582-.899-.695-1.692-.537-12.095-.154-14.558-.119M29.48 98.997c.353.927.805 1.775 1.315 2.626 2.327-.079 4.726.254 7.046.431q5.986.437 11.979.766c3.341.151 6.698.102 10.042.141l15.42.194 10.414.135c1.55.015 3.136.095 4.683.024.185-.008.26-.028.405-.139l.33-1.639c-4.968-.287-9.965-.36-14.94-.59-8.116-.375-16.22-.875-24.34-1.189-7.433-.287-14.916-.81-22.354-.76m185.563 1.066c-12.042.369-24.08 1.177-36.118 1.693l-8.435.345c-2.315.102-4.626.258-6.944.173l.518 1.745c3.853-.02 7.704-.148 11.558-.156l33.936-.7c4-.09 7.98-.132 11.979-.293 1.42-.057 2.991.025 4.383-.186.308-.047.644-.16.866-.388.268-.276.481-.798.445-1.184-.032-.326-.206-.528-.471-.7-1.066-.69-9.952-.405-11.718-.35m-183.211 3.26c.502 1.147 1.162 2.133 1.9 3.138 6.145.345 12.316.741 18.467.9 8.149.209 16.317.16 24.47.303l9.28.144c1.337.03 3.014.3 4.302.055l.14-1.727q-29.268-1.642-58.559-2.812m189.743.984q-19.005.58-37.99 1.648c-6.311.298-12.63.706-18.951.749l.594 1.757c1.392-.035 2.785-.087 4.177-.1l34.997-.77c6.352-.166 12.725-.134 19.063-.634 1.052-.769 1.873-1.536 2.49-2.704q-2.19.002-4.38.054m-84.078 1.308c-.573.234-1.165.46-1.7.775-1.129.666-2.112 1.548-3.211 2.256-.851.549-1.798.946-2.694 1.416-.44.231-.999.496-1.224.963-.17.353-.163.564-.07.938.411.502.929.74 1.574.815.446.051.837-.09 1.251-.239.481-.287.87-.493 1.003-1.081.165-.73-.052-1.64-.027-2.404.51.668 1.233 1.924 2.159 1.97.482.025.88-.156 1.215-.5.555-.569.785-1.347.764-2.125a1.9 1.9 0 0 0-.425-.558c.237-.144.42-.225.686-.306.502-.153.75-.41.992-.872.165-.316.337-.624.226-.969a1.2 1.2 0 0 0-.519-.079m4.65.082c-.1 1.653 1.031 2.512 1.71 3.892-.666-.486-1.291-.93-2.034-1.29l-.111-.056c-.2 1.16-.698 2.976.078 4.004.367.486 1.002.557 1.559.669l.624.85.115.002c.061-.36.043-.894.238-1.178.634.63.34 2.182 1.067 3.016l.178-.048.104-.376c.679.3 1.639 2.247 1.931 2.956-.638.539-1.301 1.03-1.353 1.937-.026.462.043.936.099 1.395.046.416.064.783.426 1.059.342.26.744.44 1.102.677.23.525.405 1.029.544 1.585.294-.054.54-.233.715-.489.627-.918-.331-6.524-.704-7.784-1.04-3.51-2.701-6.932-5.157-9.662-.34-.377-.72-.86-1.131-1.16m-107.21 2.4q1.454 1.85 3.11 3.523c4.703.004 9.39.173 14.09.235l22.003.233 9.584.108c1.828.03 3.722.177 5.546.087a.64.64 0 0 0 .395-.13l.266-1.508c-14.834-.426-29.632-1.594-44.459-2.142-3.502-.13-7.033-.393-10.536-.406m180.831.474c-3.523.122-7.047.49-10.567.707l-26.09 1.388c-4.327.21-8.688.569-13.017.62l.502 1.52c1.939.136 3.905.112 5.848.08q18.326-.261 36.634-1.115c3.733-.198 7.559-.113 11.27-.523q.949-1.336 1.942-2.639c-2.178-.103-4.343-.174-6.522-.038m-77.65.124c-.615.777-1.233 1.453-1.11 2.524.037.318.188.626.46.81.418.282 1.266.35 1.733.203.526-.36 1.107-.753 1.205-1.44a1.45 1.45 0 0 0-.322-1.18c-.475-.584-1.249-.811-1.966-.917m-10.481 2.98-.17.043c-.921.227-2.306.065-3.094.478l-.012.195c.402.362.832.538 1.338.717.54.298.921.555 1.551.371.332-.096.639-.252.81-.566a.58.58 0 0 0 .055-.473c-.062-.212-.302-.632-.478-.765m-79.208.724c-1.17.257-2.377.903-3.557.94-1.3.039-2.624-.427-3.93-.494-1.141-.059-2.304.162-3.443.237-2.065.136-7.93.225-9.15 2.174-.156.25-.2.415-.144.7.309.209.497.242.872.234 1.177-.023 2.418-.36 3.58-.55 1.512-.246 3.056-.375 4.586-.439 2.38-.099 4.288.283 6.566.883 4.555-1.605 7.094-1.716 11.843-.757 1.388.28 2.78.638 4.193.748 3.745.215 7.234-.542 10.932-.796 4.05-.279 8.117-.165 12.171-.338-2.664-.418-5.443-.448-8.135-.59-5.121-.271-10.264-.462-15.378-.828-3.736-.267-7.2-1.477-11.006-1.124m162.264.528c-5.753.386-11.447 1.07-17.215 1.33-3.999.181-8.002.25-12 .44-1.701.08-3.459.1-5.147.316 5.738 1.822 16.963 1.39 23.199 1.077 1.375-.106 2.855-.134 4.185-.515l.03-1.58c2.004.14 3.635.346 5.146 1.82.909.025 1.836.079 2.739-.049.923-.13 1.795-.436 2.698-.652 1.988-.477 4.057.017 5.923.712 2.169-.537 7.07.276 9.529.423-2.58-1.949-5.638-3.227-8.918-2.784-.702.095-1.397.273-2.085.438l-.603-.864c-2.4-.172-5.092-.411-7.48-.112m-91.755.214c-.49.117-.971.21-1.233.696-.209.388-.175.874-.002 1.266.265.6.854 1.256 1.484 1.477.366.129.787.11 1.17.102.528-.263.908-.612 1.102-1.185.135-.4.087-.82-.127-1.184q-.063-.106-.136-.206t-.158-.19-.178-.172q-.094-.081-.195-.151t-.21-.13-.224-.105-.234-.08-.24-.055c-.27-.047-.546-.064-.819-.083m13.682-.005c-.512.287-.922.46-1.132 1.04-.2.554-.083 1.305.222 1.797.226.363.715.861 1.165.914.227.026.472-.003.698-.025.713-.403 1.108-.668 1.332-1.484.145-.531.129-1.112-.176-1.587-.216-.337-.574-.605-.971-.681-.378-.072-.761-.031-1.138.026m4.36-.014c-.559.343-1.016.672-1.19 1.337-.103.393-.034.774.185 1.11.264.406.694.707 1.172.796.303.056.621.047.929.041.484-.208.74-.609.946-1.085.192-.441.208-.891.005-1.334a1.47 1.47 0 0 0-.89-.812c-.376-.12-.771-.09-1.158-.053m-23.545.279c-.473.414-.7.8-.734 1.439a2.14 2.14 0 0 0 .567 1.583c.371.403.878.672 1.431.689.424.013.796-.13 1.179-.298.487-.431 1.045-1.16 1.069-1.844a1.27 1.27 0 0 0-.42-1.022c-.779-.731-1.989-.645-2.975-.56zm11.113.456c.369 1.761.782 3.532.961 5.323.193 1.913.123 3.84.17 5.76.137 5.546.594 13.18-1.325 18.348-.046-1.586-.08-3.175-.23-4.756-.319-3.353-1.601-12.561-3.922-14.755-.897-.847-2.286-1.02-3.47-.954-2.3.126-4.467 1.655-5.943 3.34-.875.999-1.262 1.908-1.159 3.237.15 1.921.582 3.883.901 5.786.769 4.146 1.577 9.43 5.337 12.014 1.053.725 2.415 1.473 3.73 1.2 1.84-.379 5.263-2.417 6.227-3.985.538-.873.74-2.278.826-3.301.249-2.972.024-6.034-.079-9.01-.107-3.11-.143-6.224-.273-9.333.76.08 1.047.434 1.735-.12q.078-.063.15-.133.07-.07.135-.147t.121-.16.105-.17.088-.18.07-.188.05-.194.032-.198c.052-.484-.08-1.018-.396-1.398-.16-.192-.395-.316-.611-.436.322-.032.721.003.976-.2-.213-.136-.615-.146-.864-.099-.782.148-1.387 1.26-1.732 1.893q-.086.157-.168.317c-.076-1.144-.259-2.398-.124-3.538.11-.924.991-2.586.681-3.402-.526-.413-1.356-.448-1.999-.561m3.833.368c-.73.546-1.247 1.204-1.386 2.128-.07.462-.003.875.31 1.241.33.385.83.475 1.31.484.723-.437 1.126-.912 1.349-1.742.138-.517.167-1.102-.148-1.565-.179-.264-.496-.493-.817-.54-.2-.028-.416-.015-.618-.006m12.814.142c-.565.41-.855.875-.962 1.573-.067.43.01.948.312 1.28.28.307.496.406.905.408q.192-.002.384-.013c.563-.439.9-.749.993-1.489.064-.503-.036-.942-.364-1.336-.215-.258-.408-.414-.757-.43-.17-.007-.341 0-.511.007m-18.5.158c-.114.746-.256 1.415.197 2.085.354.525 1.031.784 1.611.961-.042-.97-.483-2.068-1.227-2.725-.196-.173-.34-.233-.581-.321m-12.293.61c-.75.302-1.447.629-1.797 1.404-.22.488-.331 1.019-.116 1.528.174.41.52.616.925.755.304.105.491.089.802.026.69-.124 1.489-.167 2.062-.591.32-.565.31-1.156.117-1.77-.125-.401-.436-1.043-.813-1.264-.29-.171-.854-.108-1.18-.088m34.102 2.11c-.386.35-.809.668-.827 1.23-.007.212.063.34.196.503.192.235.578.362.856.447.436-.355.778-.605.889-1.188.047-.252-.004-.395-.092-.624-.36-.336-.526-.38-1.022-.367m-27.725.388c-.576.4-1.067.755-1.175 1.492-.06.404.023.814.274 1.14.319.413.856.674 1.37.725.163.017.326.008.49.002.604-.43 1.123-.934 1.224-1.708.05-.386-.023-.768-.275-1.076-.336-.41-.922-.589-1.437-.593a6 6 0 0 0-.471.018m19.256.016c-.596.233-1.19.41-1.482 1.034-.201.43-.23.935-.053 1.377.161.403.584.833.99.99.356.137.847.077 1.222.046.698-.255 1.212-.45 1.52-1.169.187-.434.21-.924.002-1.356a1.7 1.7 0 0 0-1.059-.879c-.366-.098-.767-.07-1.14-.043m-4.596.107c-.908.306-1.67.694-2.428 1.29.399.828.663 1.832 1.533 2.261.69-.067 1.193-.179 1.664-.721.368-.424.644-1.01.573-1.583-.048-.38-.273-.783-.596-.995-.214-.14-.5-.194-.746-.252m-11.157.254c-.387.369-.54.575-.549 1.135-.01.602.204 1.103.628 1.528.373.373.753.59 1.295.553.245-.017.483-.09.717-.16.385-.422.743-.864.729-1.468-.008-.359-.183-.674-.444-.91-.672-.61-1.512-.683-2.376-.678m-7.091.502c-.802.289-1.433.451-1.843 1.275-.209.418-.302.925-.134 1.374.147.396.485.676.865.838.412.176.799.093 1.217.01.767-.205 1.35-.267 1.776-1.015.23-.405.34-.867.192-1.324a1.77 1.77 0 0 0-.934-1.038c-.347-.151-.771-.14-1.14-.12m95.564.408c-3.905.474-7.494 2.23-11.47 2.544-5.365.423-10.342-1.357-15.634-1.387-3.18-.018-6.164.715-9.284 1.186-2.268.342-4.56.495-6.848.615.593.8 1.202 1.574 1.845 2.334 2.006-.306 4-.795 5.949-1.36 3.226-.935 5.944-1.925 9.371-1.481 1.961.253 3.833.934 5.748 1.395 5.175.89 10.465.502 15.53-.842 2.335-.62 4.253-1.465 6.722-1.306 2.714.175 5.456 1.201 8.082 1.878 3.264.84 6.534 1.17 9.897 1.142 1.096-.01 2.492.063 3.51-.39.162-.244.151-.302.158-.6-.181-.289-.281-.432-.621-.534-.775-.231-1.967-.013-2.802-.056-1.535-.08-3.084-.213-4.601-.464-4.64-.766-11.037-3.28-15.552-2.674m-162.659.257c-1.192.11-2.417.176-3.597.37-1.9.314-3.792.849-5.677 1.251q-2.8.574-5.643.873c-1.11.118-6.153.147-6.483.295-.18.282-.238.4-.217.737.29.421.659.522 1.14.606 4.45.777 10.834-.623 15.371-1.005-5.984 2.81-10.495 3.5-17.042 3.087l-.228 1.883c4.59.303 9.449.06 13.775-1.611 1.991-.769 3.88-1.785 5.843-2.615 2.468.366 4.521 1.631 6.729 2.702 2.523 1.224 5.116 2.085 7.916 2.375q.534.053 1.07.077.535.025 1.072.021.536-.004 1.071-.038.535-.033 1.068-.095.533-.061 1.061-.152.529-.09 1.052-.209t1.039-.266 1.023-.32c2.495-.85 4.998-2.246 7.714-2.073 3.153.2 6.356 2.306 9.627 2.945.425-.575.827-1.043 1.377-1.508q-2.88-.985-5.73-2.056l-.158-.054c-1.233-.424-2.453-.847-3.755-1.004-3.499-.423-6.255 1.168-9.474 2.139-1.844.557-3.847.797-5.771.757-6.653-.138-10.978-4.089-17.204-4.71l-.793-.081c1.744-.333 3.538-.664 5.32-.575 3.83.192 7.57 2.278 11.841 2.436 2.742.101 5.274-.56 7.878-1.314 7.136-2.066 10.784-.66 17.547 1.45.884.276 2.748 1.053 3.404.042.124-.19.09-.231.08-.44-.626-.675-8.283-3.164-9.661-3.484q-1.867-.431-3.783-.492-1.564-.055-3.122.091-1.558.147-3.084.492c-2.923.676-5.447 1.673-8.503 1.65-2.191-.018-4.336-.433-6.433-1.043-1.304-.38-2.604-.839-3.947-1.059-1.243-.204-2.462-.168-3.713-.075m94.94.598c-.503.109-.964.196-1.26.664a.78.78 0 0 0-.092.556c.124.643.863 1.163 1.405 1.431q.159.076.322.142c.5-.42 1.063-.951 1.135-1.647.03-.294-.03-.546-.238-.766-.312-.33-.846-.35-1.273-.38m-17.046.268c-.095.439-.245.869-.064 1.301.18.18.317.225.56.295.025-.491.052-.85-.146-1.308-.114-.103-.218-.208-.35-.288m10.127 1.953c-2.151.901-4.826 1.465-5.804 3.867q-.226.564-.38 1.153-.153.587-.23 1.19c-.305 2.46-.505 14.457.282 16.144.335.716.83 1.41 1.282 2.06.489.181 1.013.354 1.468.612 1.608.912 2.942 2.307 4.91 1.398 1.105-.51 2.062-1.447 2.962-2.246 2.504-2.39 3.247-3.98 3.914-7.39-.976 1.496-1.902 3.413-3.091 4.72-.286-.192-.343-.368-.417-.706-.378-1.738.084-3.839.28-5.59.274-2.43.974-9.17.166-11.243-.31-.796-.968-1.421-1.657-1.9-.707-.49-2.977-1.987-3.685-2.069m75.334.283c-1.79.332-3.464 1.007-5.166 1.63-3.968 1.449-7.882 2.46-12.148 2.097-3.944-.336-7.247-2.812-11.305-2.494-2.218.174-4.173 1.097-6.261 1.774-2.229.723-4.474.907-6.803.813.791.403 1.639.91 2.49 1.158 1.895.55 4.4.04 6.233-.553 1.154-.375 2.32-.884 3.512-1.116 3.889-.758 7.277 1.792 11.09 2.11 5.322.5 9.63-.377 14.6-2.141 1.512-.538 3.101-1.392 4.733-1.397 3.025-.009 6.316 2.383 9.28 3.205 4.018 1.113 8.64.593 12.749.222l.034-1.716c-3.628.03-7.424.581-11.012-.05-4.11-.722-7.756-4.092-12.026-3.542m-65.338.013c-.293.562-.596.95-1.037 1.399.446.36.875.724 1.375 1.008l.11-.022c.341-.463.673-.875 1.085-1.277-.492-.409-.957-.822-1.533-1.108m2.325 1.391c-.444.707-.803 1.607-.55 2.461.07.24.159.369.318.553.314.123.357.141.685.08.492-.577.87-1.104.849-1.896a1.2 1.2 0 0 0-.423-.89c-.243-.222-.564-.28-.88-.308m-102.2 2.83c-2.711 2.388-6.85 2.469-10.301 2.487-.872.004-1.907-.126-2.758.048-.71.146-1.312.441-1.555 1.158.098.394.23.582.589.784 1.35.761 11.087-.472 12.85-1.045l.11-.039c.804-.4 1.724-1.045 2.65-.744.888.288 1.595 1.001 2.47 1.345 1.61.634 7.043.999 8.4.253.188-.103.178-.107.312-.233.07-.331.144-.612-.045-.927-.25-.419-.75-.585-1.207-.649-1.865-.261-3.819.24-5.7-.176-1.903-.42-3.871-2.423-5.656-2.28zm164.96 1.037c-2.977.202-5.88 1.3-8.72 2.163-.87.264-1.845.425-2.646.853-.12.387-.15.975.059 1.337.132.228.47.324.712.35.65.073 1.644-.296 2.267-.484 4.751-1.429 7.393-2.744 12.492-1.741 2.626.62 9.41 2.9 11.759 1.369.169-.11.28-.255.396-.416.035-.352.01-.337-.204-.624-1.358-.28-2.79-.183-4.181-.464-3.948-.798-7.856-2.548-11.934-2.343m-104.85.081c-3.537 1.273-8.202 3.25-11.131 5.526-1.698 1.319-2.807 3.038-4.19 4.642-2.338 2.711-5.852 3.858-9.357 3.452-1.348.676-2.662 1.632-4.104 2.073-2.973.907-6.367.212-9.384 1.137-1.488.456-2.487 1.783-3.91 2.27-1.545.528-3.284.559-4.873.959-1.296.326-2.56.776-3.849 1.13-.974.269-1.97.462-2.941.744-2.423.703-5.082 1.933-7.628 1.865l-.106-.233c.161-.39.549-.554.916-.706 2.385-.99 5.127-2.464 7.594-3.056 2.842-.682 5.882-.732 8.696-1.538 2.15-.617 3.786-2.219 5.887-2.959 2.42-.853 5.026-.865 7.425-1.674-1.275-.298-2.591-.426-3.892-.56-4.224-.436-6.666.032-10.436 1.923-1.852.929-3.698 1.928-5.703 2.492-1.2.338-2.494.402-3.727.573-2.639.368-5.47 1.203-7.756 2.602-1.148.702-1.958 1.645-2.872 2.615-2.257 2.395-4.722 2.929-7.915 2.699-1.486-.333-2.969-.726-4.479-.938 1.851 1.806 4.119 2.46 6.672 2.422 3.33-.05 4.676-1.239 7.614-2.306.851.366 1.691.707 2.449 1.249-1.17.778-2.457 1.38-3.71 2.01-4.652 2.341-7.646 3.191-12.829 3.753.441.924 1.196 2.601 2.187 2.993 1.1.435 3.649-1.088 4.623-1.62 2.636-1.438 5.25-3.377 8.089-4.36 2.915-1.01 6.095-1.271 9.028-2.219a58 58 0 0 1-7.254-1.576c1.44-.047 2.921-.085 4.358.042 1.462.129 3.153.7 4.605.436 1.197-.217 2.029-1.388 3.075-1.927 1.387-.714 2.963-.121 4.384-.75 2.124-.938 3.643-2.943 5.79-3.81 1.185-.479 2.624-.445 3.886-.621a32 32 0 0 0 4.4-.919q1.67-.47 3.217-1.257c1.129-.578 2.204-1.332 3.452-1.627 3.618-.855 10.624.973 13.498-.849q.363-.234.677-.531.176-.166.338-.345c1.399-1.53 2.155-3.577 3.39-5.239 1.704-2.292 4.336-4.142 6.458-6.051-.043-.61-.037-1.242-.274-1.811-.242-.17-.111-.135-.387-.125m-29.277.251c-3.483 1.959-7.783 2.788-11.745 2.172-.532-.083-1.156-.232-1.337.446-.082.311-.048.63.163.888.772.94 2.993.78 4.087.76 1.44-.026 2.937-.083 4.358-.314 1.267-.299 2.425-.761 3.6-1.316.739.243 1.5.522 2.262.68 1.328.276 4.534.482 5.747-.09.319-.151.498-.333.714-.604l.057-.314c-.226-.265-.366-.328-.717-.372-1.901-.24-3.841-.162-5.743-.497-.436-.482-.9-1.09-1.446-1.439m15.309 1.88-.147.101c-1.5 1.061-2.556 2.681-4.374 3.232-1.09.33-2.264.398-3.392.496-1.777.154-3.527.264-5.312.242-1.903-.023-3.917-.185-5.808-.012-1.323.12-2.547.726-3.805 1.114-3.132.966-6.66.897-9.863.364-3.984-.662-7.78-1.855-11.84-2.134-1.663-.114-3.363-.157-5.024-.052-1.146.072-2.31.256-3.457.264-1.133.008-2.039-.667-3.206-.418-2.05.438-3.85 1.966-6.075 2.475-1.286.294-4.028-.014-4.91.55-.195.287-.266.56-.352.89 3.859 1.06 7.483.846 11.315-.284 3.993-1.176 6.893-2.654 11.202-1.667-.954.433-1.935.744-2.93 1.061-4.815 1.891-9.608 3.079-14.73 3.751-1.414.186-3.407-.117-4.676.27-.112.316-.066.298.032.598 1.173 1.027 4.84.648 6.33.546 5.843-.396 12.68-2.558 17.656-5.662 5.462 1.503 11.658 2.792 17.334 2.227 2.154-.214 4.088-.983 6.169-1.485 2.749-.663 6.14.136 8.895.627 1.728-1.485 3.443-2.137 5.662-2.599.908-.19 1.807-.317 2.612-.813.855-.527 1.423-1.33 1.933-2.172.202-.333.674-.954.752-1.309.015-.065.006-.134.009-.202m122.185 7.262c-.398.116-.764.177-1.043.507-.084.33-.129.52.034.837.218.425.548.837.859 1.2.877-.107 1.695-.228 2.575-.086l.229.035c1.455.232 2.877.766 4.315 1.099 3.024.701 7.433.995 10.495.334.473-.037 1.044-.005 1.431-.305.181-.324.15-.58.132-.935l-.12-.19c-3.165-.104-6.243.388-9.405-.249q-1.635-.327-3.233-.805c-2-.618-4.133-1.677-6.27-1.442m-167.289 5.903c-3.148.255-6.326.61-9.483.692-2.577.066-10.73-.467-12.37.016l-.1.152c.78.857 6.095 1.163 7.52 1.304 3.871.286 7.87.315 11.728-.148 1.465-.177 2.897-.52 4.355-.722 1.736-.242 3.584-.323 5.241-.93l.024-.13c-1.534-.463-5.24-.406-6.915-.234m165.17.252c-1.682.082-3.274.177-4.84.866 1.623.38 3.285.79 4.943.977 2.731.308 5.561.217 8.305.175 2.694-.041 5.388-.062 8.078-.216 1.42-.123 3.175-.048 4.434-.733l.117-.215c-.306-.236-.559-.256-.941-.288-2.47-.208-5.026-.07-7.513-.16-4.189-.155-8.388-.544-12.583-.406m-185.015 7.1c-.245.135-.38.175-.536.41l.166-.167c-.195.273-.223.267-.19.597.466.636 1.099.847 1.86.976 1.513.255 3.185-.109 4.63-.547l1.258-.476c-2.398-.887-4.65-.955-7.188-.794m201.722.019c-1.923.229-3.77.605-5.642 1.094 1.161.366 2.325.67 3.536.818 1.295.158 3.281.577 4.389-.314.201-.162.303-.338.413-.571-.006-.336.009-.445-.228-.71-.496-.555-1.717-.402-2.373-.332q-.048.006-.095.015m-96.216 15.857c-.897.18-1.15.454-1.653 1.2-1.195 1.769-2.158 3.73-3.262 5.562-1.435-2.174-2.702-4.642-4.34-6.656-.696-.024-2.015-.241-2.536.227-.378 2.183-.189 4.637-.2 6.857-.017 3.196-.105 6.398-.058 9.593q1.61.087 3.22.039.065-3.496.044-6.993l-.033-2.909c1.262 1.78 2.416 3.698 3.84 5.349 1.66-1.508 2.57-3.524 3.844-5.329.05 3.189-.18 6.539.129 9.702 1.018.054 2.048.095 3.065-.016.22-3.208.105-6.472.093-9.687-.009-2.231.117-4.565-.088-6.786-.687-.078-1.373-.174-2.065-.153m11.843.001c-.285.14-.455.249-.607.546-.704 1.38-1.14 3.077-1.66 4.548l-3.279 9.329c-.254.743-.49 1.49-.637 2.262 1.054.02 2.106.044 3.16-.003.347-.865.664-1.767 1.108-2.587 1.302.016 2.615-.005 3.915.065l2.198.087c.276.848.514 1.749.902 2.55 1.065.132 2.107.156 3.178.164-1.143-3.72-2.45-7.37-3.76-11.035-.656-1.838-1.237-3.909-2.152-5.624-.796-.191-1.54-.332-2.367-.302m-30.871.414-1.513.077q-.046 5.093-.023 10.186c-2.254-3.104-3.719-6.782-5.856-9.958-1.043-.007-2.07-.017-3.109.092-.213 5.476-.145 11.002-.138 16.484l1.579-.029 1.539-.038q.176-5.163.093-10.328c1.92 3.328 3.793 6.753 5.889 9.973 1.084-.005 2.17.008 3.25-.087.167-2.992.14-5.999.144-8.995.004-2.474.055-4.964-.028-7.436-.609.012-1.22.01-1.827.06m43.32.066c-.422 1.137-.325 14.833-.094 16.73a41 41 0 0 0 3.117-.011l-.011-6.862c.832.023 1.669.024 2.496.129q1.279 3.257 2.637 6.482c.15.306.145.429.483.541.89.296 2.19.126 3.135.099l-2.856-7.093c1.182-.555 1.987-1.25 2.44-2.521.506-1.42.588-3.325-.078-4.69-.512-1.05-1.433-1.742-2.526-2.11-2.023-.679-6.485-.724-8.743-.694m-61.76.543c-2.135.095-4.344.047-6.457.358-.052 5.502-.201 11.028-.125 16.528 3.069-.081 6.613.017 9.63-.457.043-.869.096-1.727.027-2.595-.866-.085-1.707-.1-2.576-.082l-3.956.115c0-1.444-.041-2.902.013-4.344 1.211-.075 4.442.237 5.305-.596.397-.383.384-.93.337-1.437-.031-.334-.056-.569-.283-.833-1.418-.378-3.726-.121-5.231-.113l-.125-3.422c2.175-.073 4.351-.148 6.505-.477.067-.894.122-1.77-.002-2.663a38 38 0 0 0-3.061.018m-23.454.316q-.138 8.392-.01 16.784c3.433.2 7.256.2 9.972-2.194l.117-.104c1.79-1.87 2.573-4.273 2.515-6.847-.046-2.063-.671-4.28-2.193-5.748-2.495-2.407-7.201-1.93-10.401-1.891m101.693.006c-.076 5.535.014 11.07-.06 16.606l3.088.064c.154-1.68.129-3.37.135-5.056.742-.99 1.56-1.922 2.36-2.864 1.287 2.773 2.108 5.928 3.64 8.559 1.108.055 2.224.088 3.328.193l-.572-1.483c-1.338-3.459-2.494-7.11-3.929-10.5 1.232-1.602 2.53-3.156 3.71-4.797-1.224-.131-2.506-.258-3.735-.174-1.689 1.988-3.109 4.185-4.816 6.16.01-2.167.101-4.377-.037-6.54a12.2 12.2 0 0 0-3.112-.168M29.824 179.77c-.952 3.216 8.717 26.744 10.729 30.455.966 1.782 2.485 3.484 4.227 4.557 1.261.778 2.88 1.247 4.259 1.809 2.856 1.162 5.732 2.326 8.551 3.575 2.14.948 4.12 2.228 6.261 3.153 2.05.887 4.156 1.65 6.221 2.502q8.246 3.467 16.572 6.739c4.71 1.833 9.468 3.541 14.188 5.351q7.606 2.938 15.286 5.676c2.883 1.042 5.792 2.181 8.73 3.043 1.499.44 2.843.58 4.374.197 1.723-.43 3.392-1.263 5.027-1.952q3.992-1.709 8.026-3.313 4.226-1.7 8.497-3.283c4.448-1.623 8.931-3.153 13.26-5.08 2.102-.937 4.129-1.933 6.078-3.165-4.818.816-9.476 2.646-14.175 3.977-6.605 1.871-13.554 3.272-20.358 4.194-4.693.637-9.318.673-14.032.214-4.386-.428-8.657-1.291-12.95-2.259-8.197-1.847-16.064-4.217-23.943-7.13-4.034-1.49-8.093-3.025-11.953-4.926q-2.577-1.276-5.046-2.751t-4.814-3.138c-9.572-6.808-18.381-16.547-25.451-25.893-1.403-1.854-2.895-3.737-4.08-5.743-.993-1.682-1.942-6.062-3.484-6.809m108.887 11.904c-1.094.108-2.092.277-3.123.67-2.302.88-7.225 4.18-8.754 6.164-.217.28-.431.585-.435.95.34.022 1.377-.86 1.673-1.082 1.976-1.477 3.748-2.082 5.854-3.218-.933 1.49-1.805 3.046-2.781 4.504 4.237 1.886 4.1 3.84 9.44 4.893 1.42.28 2.634.34 4.02-.18 1.235-.464 2.405-1.291 3.521-1.984l1.69-1.009c-3.735-3.514-5.653-6.202-10.748-7.778 3.781.043 6.638 1.512 9.387 4.07.855.795 1.655 1.716 2.598 2.404.222.162.628.5.897.4-.84-2.315-6.276-6.757-8.49-7.802-1.453-.687-3.13-1.133-4.749-1.002m-27.528.23c-.944.167-1.871.399-2.746.804-2.437 1.129-6.742 4.416-8.204 6.621-.158.238-.18.265-.147.557l.255.095c1.264-.85 2.275-1.993 3.574-2.826 1.262-.81 2.76-1.262 4.093-1.953-1.157 1.573-2.236 3.156-3.209 4.852.951.396 1.88.797 2.754 1.347 2.12 1.331 3.75 2.89 6.312 3.277 1.127.17 2.324.132 3.463.155 1.282-.702 2.475-1.546 3.745-2.26.592-.328 1.197-.644 1.778-.99-3.034-3.352-5.8-6.363-10.201-7.847 4.416.219 6.995 2.253 10.164 5.149.661.604 1.404 1.424 2.255 1.744l.112-.144c-.264-.76-1.106-1.49-1.656-2.067-2.036-2.139-4.134-4.222-6.82-5.538-1.698-.833-3.636-1.222-5.522-.976m53.366.129c-3.839.61-9.085 3.959-11.32 7.129a1.15 1.15 0 0 0-.23.569l.154.037c.855-.6 1.554-1.376 2.353-2.043 1.62-1.355 3.903-2.187 5.9-2.786-1.559 1.555-2.765 3.337-4.094 5.079 1.189.44 2.277.89 3.334 1.596 1.1.736 2.09 1.61 3.283 2.197 1.59.784 3.46.956 5.133 1.56 1.339-.397 2.407-.824 3.476-1.766 1.025-.874 2.024-1.582 3.224-2.195q-.437-.603-.911-1.179-.474-.575-.983-1.119t-1.05-1.055q-.543-.512-1.116-.988-.572-.477-1.174-.916-.601-.44-1.23-.841-.627-.402-1.279-.763t-1.325-.681c2.51.374 4.562 1.083 6.628 2.579.811.587 4.442 4.265 4.928 4.258.078-.23.092-.132-.015-.341-.4-.782-1.144-1.504-1.723-2.157-2.246-2.532-4.523-4.837-7.867-5.81a10.7 10.7 0 0 0-4.096-.364m-105.109.133c-3.635.431-7.06 2.8-9.616 5.334-.107.32-.127.328-.01.642.317.125.445.113.765-.015 1.315-.527 2.467-1.398 3.81-1.91q.029-.01.055-.022c-.498 1.144-1.021 2.282-1.46 3.45 2.03 1.197 6.599 4.16 8.66 4.815.706.224 1.54.327 2.267.15 1.263-.31 2.153-1.342 3.254-1.953 1.064-.591 2.327-.971 3.482-1.35-2.335-2.607-5.03-5.067-7.99-6.936 3.242.805 5.494 2.046 8.029 4.234.952.823 1.865 1.686 2.926 2.37-1.431-3.303-5.984-6.714-9.288-8.021a11.2 11.2 0 0 0-4.884-.788m26.098.12c-3.307.488-6.008 2.514-8.533 4.58-.623.51-1.46 1.083-1.931 1.735a1.7 1.7 0 0 0-.209.407l.077.204c.248.061.23.113.462-.029 1.962-1.191 3.68-2.303 5.845-3.138-.728 1.299-1.415 2.588-2.44 3.682 3.306 2.365 6.959 5.88 11.355 5.137 1.86-.314 3.29-2.102 5.053-2.81l1.091-.451c-2.449-2.822-5.418-5.752-8.774-7.438 3.33.328 5.741 1.79 8.171 4.018.692.633 1.34 1.397 2.118 1.917.283.19.685.465 1.024.35-.46-1.738-5.633-5.862-7.198-6.769-1.824-1.057-3.991-1.678-6.111-1.395m106.396.125c-3.784.504-9.461 4.119-11.779 7.18-.205.271-.377.517-.462.85l.121.194c1.156-.457 2.095-2.05 3.148-2.787 1.687-1.182 3.776-1.911 5.629-2.816-1.622 1.697-3.411 3.413-4.398 5.584 2.408.633 3.723 1.721 5.827 2.861 2.024 1.097 4.72 1.441 6.988 1.266 2.39-.463 4.428-1.592 6.588-2.666-2.619-2.063-4.633-4.78-7.322-6.724l.058-.154c1.215-.283 2.656.487 3.674 1.117 1.07.662 4.458 3.967 5.531 3.733l.111-.217c-.24-.553-.812-.989-1.22-1.428-2.07-2.225-3.901-3.775-6.765-4.917a14.8 14.8 0 0 0-5.729-1.076m-39.723 9.76c-4.252.437-8.638 3.791-11.261 7.027-.24.295-.435.561-.522.937l.121.216c.098.007.2.052.294.022.514-.161 2.786-2.372 3.806-2.903.952-.495 1.934-.696 2.991-.799-.829 1.376-1.575 2.844-2.461 4.177 1.627.934 4.42 2.979 6.031 3.475.834.256 1.753.333 2.619.4.818.062 1.653.113 2.457-.09 1.76-.444 3.339-1.979 5.057-2.696l1.455-.604c-2.554-3.221-6.155-5.713-9.828-7.467 4.128.583 6.078 1.737 9.157 4.51 1.151 1.037 2.263 2.003 3.643 2.725-.951-1.972-4.538-5.323-6.4-6.612q-.755-.527-1.573-.948t-1.685-.729c-1.273-.448-2.552-.68-3.901-.64m-80.934.114c-1.054.218-2.018.5-2.978.997-1.537.795-6.538 4.48-7.483 5.873a1.1 1.1 0 0 0-.221.594l.161.185c1.264-.045 2.94-1.841 4.113-2.446.873-.451 1.74-.666 2.699-.855-.655 1.282-1.421 2.587-1.869 3.957 1.02.489 2.06.967 3.02 1.565 1.372.854 2.65 2.066 4.204 2.564 1.342.43 3.013.46 4.42.486 2.167-1.126 3.748-2.504 6.133-3.312l.064-.149c-2.537-3.02-5.963-5.615-9.327-7.628 4.682.886 6.235 1.925 9.701 5.143.697.647 1.447 1.449 2.335 1.822l.14-.117c-.101-1.11-3.729-4.279-4.686-5.072-2.986-2.478-6.352-3.993-10.296-3.622zm54.206.008c-3.52.412-8.973 4.188-11.154 6.921-.184.232-.355.465-.52.71 2.408-1.316 4.529-2.89 7.273-3.49-.716 1.509-1.603 2.972-2.497 4.382 3.194.349 4.237 3.385 7.525 4.021 1.302.252 2.656.14 3.972.076 1.365-.958 2.545-2.006 4.088-2.684q1.264-.486 2.535-.956c-2.74-2.902-5.954-5.564-9.604-7.212 3.813.373 6.564 2.008 9.36 4.55.567.514 1.276 1.06 1.747 1.658.036.044.063.094.095.141l.145.022c.13-.27.128-.374.015-.644-.274-.656-.98-1.328-1.473-1.834-1.995-2.047-4.338-4.048-7.089-4.97-1.43-.48-2.905-.759-4.419-.691m52.832-.007c-1.072.145-2.22.433-3.199.9-2.68 1.276-6.3 4.648-8.134 7.047-.155.203-.104.112-.172.365.332.056.469-.042.734-.231 3.04-2.173 3.343-2.83 7.228-3.82-1.15 1.477-2.188 3.183-3.025 4.863 2.106.622 2.485 1.36 4.2 2.318 1.674.935 4.368 1.354 6.263 1.477 1.498-.667 2.826-1.55 4.172-2.474l2.319-1.527c-2.87-3.28-5.438-5.537-9.52-7.128 1.472.067 2.89.238 4.256.821.938.4 1.783.968 2.571 1.61 1.078.88 3.719 3.8 4.985 3.864.059-.276-.002-.314-.157-.54-.519-.753-1.301-1.434-1.944-2.089-2.32-2.358-4.993-4.884-8.402-5.405-.7-.107-1.471-.147-2.175-.051m-80.494.113c-3.058.614-5.025 2.268-7.394 4.188-.82.665-1.8 1.363-2.418 2.232-.217.305-.418.635-.423 1.012.498-.097 1.849-1.363 2.47-1.723 1.303-.753 2.587-1.198 4.06-1.476-1.089 1.368-1.683 3.215-3.03 4.323 3.017.567 3.546 1.85 5.987 3.112 1.582.817 3.461 1.103 5.206 1.363 2.138-1.13 4.3-2.552 6.564-3.387l.488-.226.066-.185c-1.505-1.8-4.492-4.796-6.547-5.974-.938-.537-1.981-.953-2.983-1.356 1.662.124 3.153.382 4.67 1.105 1.183.563 2.315 1.308 3.34 2.123.888.707 3.049 3.41 4.112 3.341-.28-1.282-5.08-5.614-6.39-6.461-2.407-1.557-4.906-2.27-7.778-2.011m102.407 2.602c-3.743 1.375-5.116 2.02-7.958 4.916l-.052.189.189.04c.727-.184 1.224-.656 1.853-1.028.907-.536 1.89-.94 2.796-1.482 1.198-.717 2.302-1.657 3.375-2.548-.066-.032-.13-.078-.203-.087m-10.152 7.132c-3.412 1.038-9.797 5.656-11.796 8.576.46-.27.95-.523 1.379-.838 1.306-1.018 2.729-2.347 4.299-2.923.961-.353 2.02-.412 2.928-.906 1.008-.549 1.637-1.501 2.516-2.202.742-.592 1.646-.48 2.248-1.347l-.019-.153c-.52-.11-1.026-.166-1.555-.207m-78.316.542c-3.802.282-7.813 2.916-10.25 5.773a7.2 7.2 0 0 0-1.222 1.988l.127-.088c.686-.48 1.283-1.051 1.947-1.557 1.529-1.165 3.17-1.764 4.978-2.35-.999 1.542-1.82 3.341-2.95 4.77 1.196.552 2.398 1.109 3.514 1.813.809.51 1.574 1.184 2.421 1.615 2.344 1.193 5.894 1.25 8.343.355 1.13-.413 2.076-1.088 3.06-1.764.501-.268.998-.55 1.517-.782-3.962-3.512-5.465-5.676-10.494-8.04 4.623.231 8.32 3.024 11.321 6.372q.147.165.288.334c-.071-.397-.13-.872-.323-1.23-1.02-1.892-3.482-3.8-5.215-5-2.091-1.45-4.492-2.334-7.062-2.209m25.625-.01c-4.763.685-8.248 3.896-11.365 7.339 1.964-1.598 4.84-2.627 7.257-3.294-1.087 1.512-2.213 3.051-3.118 4.682.85.356 1.734.699 2.517 1.19.866.543 1.66 1.22 2.551 1.72 2.208 1.24 5.82 2.477 8.303 1.413 1.665-.712 3.194-1.977 4.8-2.85l.236-.2c-.172-1.005-5.556-5.659-6.483-6.318-1.13-.805-2.36-1.382-3.617-1.955 4.35.404 7.184 2.278 10.28 5.222.673.64 1.439 1.544 2.31 1.897l.13-.125c-.546-1.903-6.114-6.41-7.928-7.42-1.764-.98-3.85-1.514-5.873-1.301m26.732.007c-4.18.457-6.293 2.181-9.203 5.006-.786.763-1.751 1.58-2.399 2.463-.136.185-.124.173-.217.342l.07.151c.7.002 2.916-2.123 3.786-2.617 1.328-.757 2.792-1.209 4.282-1.516a196 196 0 0 1-4.04 4.918c.906.324 1.875.596 2.734 1.03.775.392 1.473.919 2.217 1.365 1.724 1.032 3.58 1.094 5.527 1.132 1.234.025 2.308 0 3.452-.55.596-.287 1.17-.661 1.738-1.001q1.292-.7 2.574-1.42c-3.751-3.16-5.146-5.412-9.959-7.524 4.59.153 7.792 3.025 11.023 5.988.386.355.756.68 1.25.37-.28-.595-.808-1.108-1.242-1.603-2.289-2.611-5.28-4.914-8.556-6.13-.903-.336-2.079-.466-3.037-.404m-79.817.232c-.844.152-1.627.35-2.405.722-1.217.583-6.07 3.75-6.754 4.743-.094.137-.091.155-.137.29.297.15.524.06.84-.038 1.523-.47 2.958-1.368 4.486-1.905-.819 1.428-1.544 2.859-2.074 4.42 4.364 1.895 6.111 4.347 11.284 4.04 1.108-.065 2.291-.15 3.327-.582 1.117-.468 2.075-1.268 3.199-1.768-.695-.602-1.417-1.192-2.062-1.85-2.413-2.334-4.815-4.502-7.648-6.334 2.006.472 3.918.947 5.708 2.02 2.506 1.5 3.755 3.507 5.794 5.047.233.176.444.267.736.3l.074-.115c-.342-.846-1.046-1.583-1.639-2.266-2.173-2.505-4.522-4.746-7.62-6.058-1.718-.727-3.27-.801-5.11-.666m14.546 10.633c-2.654.4-5.006 2.233-6.901 4.042.55.088 1.264.283 1.814.246.58-.039 1.117-.578 1.698-.554.21.008.138-.026.253.127-.02.383-.067.556.112.902 1.82 1.037 10.053 3.047 12.362 3.433-1.482-1.871-3.341-3.775-5.354-5.08l-2.239-1.382c3.078.801 5.29 1.879 7.67 4.04.755.687 1.462 1.46 2.255 2.1.364.296.77.637 1.258.576-.355-1.526-5.062-5.895-6.465-6.769-1.963-1.222-4.141-1.878-6.463-1.68m52.445.266c-3.782.144-6.158 2.26-8.627 4.94-.97 1.054-2.02 2.255-2.68 3.536q.073-.041.144-.084c2.905-1.762 3.744-3.302 7.44-3.968-.528.962-1.13 1.928-1.548 2.942 1.53-.2 3.03-.492 4.542-.798q3.588-.798 7.142-1.735c-1.64-1.167-3.206-2.01-5.01-2.87 1.44.197 2.821.452 4.173 1.006.782.32 1.614.82 2.426 1.03.398.103.771.077 1.1-.16-.237-.84-2.075-1.81-2.821-2.232-2.046-1.155-3.938-1.673-6.281-1.607m-26.85.105c-3.283.553-5.452 2.344-7.801 4.56-.941.887-1.914 1.8-2.662 2.86-.17.242-.297.467-.417.735l.096.114c1.163-.467 2.24-1.717 3.266-2.46 1.253-.91 2.908-1.52 4.37-1.993a73 73 0 0 0-2.638 4.508c1.873.46 3.559 1.255 5.38 1.826 2.955.926 7.25-.511 10.118-1.319.398-.105.803-.197 1.19-.34-2.691-2.663-5.408-5.233-9.027-6.552 3.872.15 6.603 1.82 9.414 4.365.532.481 1.228 1.418 1.812 1.756.348.2.535.065.885-.041-.089-.725-4.615-4.659-5.498-5.351-2.579-2.025-5.223-2.833-8.488-2.668m-3.023-199.707.084-.046zm2.409 4.624-.051-.076z"/><path d="M124.536 38.898a2.6 2.6 0 0 1-1.106-.55l.146-.248c-.359-.162-.813-.32-1.091-.599-.145-.146-.098-.127-.107-.355.293-.5.999-.804 1.515-1.017.86.066 1.854.289 2.484.898.108.303.199.455.02.766-.34.593-1.25.925-1.862 1.105m.916-1.834c-.296.235-.482.392-.645.748l.085.26.43.141c.31-.193.614-.34.792-.672l-.07-.245a2.7 2.7 0 0 0-.591-.232m-6.632 1.769a2.3 2.3 0 0 1-.397.035c-.494.001-.897-.148-1.239-.513-.244-.26-.328-.562-.314-.91.02-.487.295-.696.637-.988.537-.013.993-.017 1.433.325.292.228.506.528.513.913.01.535-.268.805-.633 1.138m-.365-1.294-.627.538c.08.314.258.357.513.537.28-.301.383-.421.448-.844l-.11-.209zm1.617 6.363c.56.168 1.087.316 1.599.608l.025.14c-.906-.043-1.6-.616-2.475-.743-.016-.003-.315-.04-.347-.052-.337-.114-.325-.302-.43-.61.668.102 1.342.203 2.018.22.998.025 3.36-.485 4.147.024-.574.261-1.566.251-2.203.315zm2.65 1.983c-.3.178-.648.327-1.002.335-.489.012-1.1-.124-1.442-.5-.214-.234-.342-.466-.336-.789.803.117 1.684-.133 2.464.073.283.075.396.172.54.417zm5.543 11.509c1.314-1.053 2.316-1.808 2.88-3.442.323.65.363 1.386.453 2.097q.428.04.853.108c.566.085 1.147.128 1.512.622l-.07.191c-.702.287-1.758.205-2.53.265q-1.548.098-3.098.159M111.913 76.41c.891.378 1.788.784 2.724 1.042 1.835.507 3.857.478 5.536-.516 1.826-1.08 2.543-2.788 3.05-4.74q.052.03.102.063c.564.422.927 1.237 1.05 1.914.83 4.591-3.76 5.572-6.222 7.95-.86.832-.942 1.762-1.586 2.659-.335-.517-.227-1.7-.236-2.312l-.738-1.016c-1.256-1.625-2.657-3.262-3.68-5.044m14.593 22.899c-.162.02-.202.032-.382.023-.373-.017-.941-.24-1.166-.545-.933-1.267.92-3.368 1.193-4.62.277-1.277.215-2.671.35-3.977.212.171.31.377.415.623.645 1.516.451 2.698-.146 4.18.469.819 1.126 1.887.935 2.874-.14.722-.61 1.07-1.199 1.441m-9.31 8.072.026-.13zm73.664 44.154c-2.398-1.168-5.554-2.828-8.169-3.27-1.74-.296-3.532-.267-5.267-.599-1.198-.23-2.31-.704-2.997-1.763-.637-.983-.661-2.231-.427-3.343 1.506.783 2.493 2.516 4.091 3.097 1.044.38 2.324.234 3.432.365 4.885.577 8.019 1.764 11.986 4.706-.653-.182-1.316-.316-1.978-.459-.34-.062-.693-.157-1.038-.089-.199.04-.15.05-.282.232.068.447.38.774.649 1.123m3.325.326-.06-.079zm-35.922 21.593-.006-3.711c1.405.023 3.313-.14 4.618.405.428.179.778.464.92.924.201.656-.13 1.518-.423 2.102-1.228.786-3.668.356-5.109.28m-85.309 7.733c-.143-3.543-.094-7.154-.002-10.7 1.57-.034 3.6-.268 4.885.804.925.772 1.305 2.024 1.426 3.182.197 1.881-.078 3.922-1.296 5.42-1.43 1.305-3.205 1.243-5.013 1.294m68.802-4.076c.543-1.918 1.285-3.809 2-5.669.916 1.519 1.532 4.014 2.133 5.739l-1.759.006z"/></svg>