<svg xmlns="http://www.w3.org/2000/svg" viewBox="0 0 256 256"><path d="M128.19 0h.958l-.004 13.286c-.001 2.75.106 5.545-.138 8.285.749.015 1.688-.074 2.254.516.392.408.568 1.005.769 1.525 1.4.67 2.371 1.642 3.524 2.644-.106-.554-.193-1.06-.12-1.626.332-2.542 5.094-23.205 5.633-24.001.16-.236.08-.16.345-.268.177.15.224.123.244.37.11 1.353-2.46 11.145-2.966 13.331-.707 3.057-1.282 6.154-2.083 9.187-.26.982-.499 1.915-.967 2.82l-.073.145c.705.797 2.624 3.436 3.498 3.544.224.027.475 0 .7-.012.063.273.01.269-.11.507-.628.463-2.141.447-2.376 1.253-.034.12-.03.236-.032.357.311.28.99.117 1.032.604.04.45-.286.81-.293 1.264-.02 1.263.194 3.391.284 4.737 1.616.006 3.381-.12 4.961.225-.006 1.289.222 6.95.066 7.618-.07.301-.198.548-.427.755-.804.726-2.429.494-2.93 1.478-.101 2.065.503 4.414.75 6.472.236 1.981.3 3.991.56 5.964l16.775-.05q-4.498-2.483-9.129-4.709c-2.097-.997-4.375-1.886-6.392-3.022-.316-.178-.48-.23-.59-.574.097-.149.115-.27.305-.305.942-.172 11.571 5.21 13.103 6.015 1.27.666 3.632 2.171 4.867 2.467 1.41.337 5.468.105 7.08.107 4.382.006 8.866.221 13.232-.056q-3.019-.727-6.008-1.566c-2.354-.664-31.492-9.142-31.743-9.403-.025-.292-.011-.348.11-.617a.98.98 0 0 1 .705-.111c2.159.36 5.54 1.579 7.712 2.233l22.723 6.741c2.845.826 7.548 2.463 10.275 2.81 1.536.195 3.166.097 4.714.096l8.22-.012 22.767-.038c3.477-.008 6.993-.141 10.466-.052q.055 4.091.009 8.183c-.008 1.311-.122 2.703-.017 4.004.033.416.102.738.276 1.116l.216.16c.372-.111.53-.358.715-.687 1.434-2.54 1.288-5.605.769-8.368 2.426 3.862 4.169 7.787 3.117 12.444-.562 2.488-1.833 4.28-2.438 6.416-.076.268-.132.537-.024.801.25.103.29.075.534-.028 1.575-.671 3.16-2.649 3.732-4.212.45-1.23.549-2.55.535-3.849l.068.125c1.48 2.779 1.653 6.335.706 9.309-.415 1.303-1.055 2.505-1.848 3.615-.763 1.069-4.174 4.08-3.395 5.416.195.333.694.643 1.081.653 1.16.03 2.969-1.982 3.661-2.834 3.06-3.759 4.055-8.385 3.57-13.131 2.379 4.947 3.754 11.076 1.894 16.393-.67 1.914-1.663 3.774-2.816 5.44-.523.755-1.196 1.502-1.631 2.307-.148.273-.173.488-.143.791.132.138.166.239.372.251 1.15.073 3.17-1.358 3.938-2.15 1.644-1.695 2.539-3.669 3.061-5.94.8 3.173.968 6.278-.752 9.183-1.277 2.158-3.448 4.118-5.52 5.494-.978.648-2.096 1.21-2.916 2.056-.311.32-.45.652-.35 1.099.088.399.325.706.681.908.644.364 1.678.067 2.314-.168.839-.311 1.62-.781 2.403-1.209 3.183-1.736 6.126-4.092 7.621-7.492.486-1.108.781-2.274 1.026-3.456 1.163 3.66.675 8.252-1.07 11.653-.987 1.924-2.379 3.479-4.034 4.856-1.347 1.123-4.905 2.525-5.26 4.223.076.144.081.25.251.298 1.086.31 4.477-1.245 5.457-1.883 2.214-1.439 3.492-3.15 4.233-5.668.508 3.28.218 6.505-1.78 9.266-1.898 2.622-4.715 4.135-7.653 5.319-.931.375-2.055.723-2.84 1.368-.459.379-.68.82-.568 1.43.074.401.222.676.585.89.727.426 1.975 0 2.694-.273 6.125-2.327 10.2-2.929 13.115-9.606.492-1.128.845-2.313 1.21-3.486.787 3.937.545 9.318-1.752 12.757-2.436 3.647-4.424 5.04-8.097 7.165-.608.351-2.024 1.08-2.217 1.782.379.292.83.23 1.288.17 2.891-.38 6.308-2.584 8.348-4.603 1.015-1.007 2-2.234 3.172-3.055-2.54 4.24-5.132 8.605-9.61 11.034-1.513.82-3.138 1.402-4.752 1.99-.72.263-1.6.487-2.26.87-.437.254-.886.58-1.055 1.072.078.243.017.217.209.326 1.09.614 5.486-.873 6.736-1.293 2.908-.979 6.315-2.917 7.7-5.801.205-.428.39-.867.575-1.304-.56 4.295-2.952 6.784-6.291 9.351q-1.726 1.313-3.568 2.455t-3.786 2.104c-1.03.51-2.146.87-3.138 1.455-.364.214-.641.427-.855.792-.012.304 0 .431.254.653.77.67 2.692.12 3.573-.083 4.633-1.065 9.192-2.542 11.858-6.78.403-.64.745-1.318 1.148-1.96-.4 4.645-2.093 9.388-5.74 12.458-1.03.869-5.245 2.943-5.421 3.85-.024.123-.015.24-.012.364.532.357 1.156.321 1.764.212 2.124-.38 4.592-1.762 6.107-3.284-1.89 4.59-2.157 6.042-7.025 8.068-1.154.48-4.848 1.43-5.31 2.296-.082.151-.058.336-.052.5.253.404.566.566 1.017.669 1.875.426 5.95-.988 7.523-2.065a6 6 0 0 0 .521-.413c-1.083 3.571-1.517 5.489-5.052 7.405-1.687.913-3.55 1.046-5.137 1.834-.343.17-.675.407-.777.798-.09.346-.042.565.114.874.397.316.772.338 1.258.29 2.35-.232 4.313-1.141 6.293-2.346-1.304 2.974-2.754 5.439-5.528 7.288q-.865.58-1.806 1.028c-.794.37-2.677.797-2.265 2.054.058.177.178.2.326.292 1.89.096 4.677-2.25 6.034-3.456-1.567 6.755-5.44 7.447-9.19 12.033.74-.043 1.483-.07 2.22-.152-.726 1.496-1.529 3.512-2.94 4.488-.587.405-1.42.662-1.841 1.256-.914 1.293-1.295 2.962-2.19 4.3-2.263 3.382-8.435 7.902-12.282 9.239-4.378 1.521-9.324.91-13.754-.045 2.744 2.639 5.102 3.575 8.906 3.504 1.91-.035 3.833-.238 5.63-.927-2.689 2.781-6.26 4.733-10.197 4.788-3.627.05-7.14-1.528-10.15-3.42-1.278-.803-2.564-1.731-3.924-2.385 1.42 3.05 4.647 5.974 7.812 7.126 1.276.465 2.576.679 3.918.84q-.376.138-.76.258-.383.119-.772.22-.388.1-.781.18-.393.082-.79.144-.396.062-.795.105t-.8.065-.802.026-.802-.012-.8-.052-.798-.091-.792-.13q-.394-.075-.784-.168t-.775-.207q-.386-.112-.765-.244-.38-.131-.752-.28t-.737-.318a17 17 0 0 1-2.78-1.595c-.788-.569-4.205-3.811-4.789-3.797-.187.378-.185.615-.054 1.005.91 2.702 4.803 6.873 7.432 8.057 2.082.938 4.463 1.064 6.707.998-3.268 2.46-7.489 2.938-11.45 2.369-2.984-.429-6.555-1.653-8.817-3.714-.652-.594-1.22-1.492-2.036-1.852a2.34 2.34 0 0 0-2.17.19c-.169.286-.219.368-.168.716.253 1.698 4.47 4.975 5.927 5.794 2.081 1.171 3.88 1.181 6.014 1.883-5.087.997-11.219-.427-15.543-3.24-1.222-.796-4.73-4.46-6.026-4.206-.307.06-.388.188-.547.423-.056 1.413 2.386 5.576 3.429 6.72 2.914 3.197 6.907 4.019 11.067 4.19q.5.02 1 .007c-5.158 2.082-11.65 1.782-16.739-.372-3.328-1.409-5.404-3.864-6.834-7.123-.315-.719-.652-1.846-1.184-2.422-.463-.502-1.748-.775-2.375-.447-.252.132-.415.272-.452.566-.233 1.809 3.805 7.611 5.094 8.887 1.556 1.539 3.445 2.428 5.422 3.3-4.912-.393-9.35-2.46-12.576-6.273-.744-.88-2.881-4.62-3.804-4.727-.485-.055-.841.082-1.23.355-.203.45-.184.752-.005 1.21 1.372 3.516 4.505 6.991 7.569 9.126-5.262-1.583-8.131-4.206-11.369-8.651-3.476 1.196-6.19 3.83-8.478 6.61l.065.1c2.344 3.55 5.891 7.57 10.245 8.463.486.1 1.08.083 1.39.48-.13.66-1.262 1.412-1.815 1.78-1.132.755-2.306 1.213-3.683.935-3.207-.648-6.453-5.957-8.146-8.624q-.146-.229-.288-.46a17.2 17.2 0 0 0-2.216 3.35c-.991 1.934-1.562 4.767-4.182 4.969-1.276.1-2.647-.437-3.584-1.293-.497-.452-.879-.972-1.255-1.525 4.657-1.567 6.794-4.262 9.546-8.152-1.432-2.285-2.964-5.88-5.786-6.567-.466-.113-.945-.183-1.419-.254-3.297 3.66-6.216 6.984-11.09 8.484 2.985-2.568 4.695-4.137 6.398-7.758.275-.585.698-1.304.775-1.946.038-.31-.006-.457-.176-.71-.366-.196-.712-.141-1.097-.03-.367.104-.59.147-.844.444-.67.785-1.096 1.918-1.624 2.806-1.306 2.195-3.373 4.175-5.562 5.474-2.781 1.652-5.845 2.34-8.987 2.924l.097-.07c1.268-.87 2.785-1.342 4.07-2.218 2.504-1.709 6.184-7.026 6.829-9.99.081-.372.076-.64-.104-.987-.412-.341-.765-.357-1.281-.3-.349.04-.807.124-1.059.394-.739.795-1.006 2.535-1.513 3.543-2.155 4.284-7.033 7.36-11.67 8.141-3.885.654-8.06.151-11.633-1.526 4.372-.202 8.77-.853 11.859-4.28 1.19-1.32 3.47-4.837 3.407-6.646-.008-.226-.081-.4-.169-.605-.27-.225-.352-.307-.724-.317-.72-.02-1.295.52-1.72 1.032q-.161.197-.327.39-.166.192-.337.38-.17.189-.346.373t-.354.364-.364.355-.372.346q-.189.171-.38.337-.193.166-.39.328-.196.161-.396.318-.2.156-.404.308t-.412.298-.419.288-.425.278-.433.267-.439.257-.445.245-.45.235q-.228.115-.457.224-.23.109-.462.212-.232.104-.467.201t-.472.19-.476.178q-.239.086-.48.166-.242.08-.484.154-.243.075-.488.143t-.492.13-.494.119q-.248.056-.497.107-.25.05-.5.094t-.501.082-.504.07q-.252.031-.505.056c-1.287.14-2.556.092-3.844.015 3.955-1.588 8.583-3.891 10.372-8.065.17-.398.202-.643.069-1.052-.298-.165-.347-.185-.686-.174-1.349.823-2.553 1.888-3.884 2.751-3.989 2.583-6.986 3.686-11.772 3.504-1.681-.063-3.42-.248-5.055-.652-1.504-.372-2.893-.985-4.14-1.91 4.084.024 7.665-.46 10.709-3.436.912-.893 3.054-3.529 3.138-4.78.01-.16.002-.162-.03-.294-.127-.113-.168-.207-.352-.203-.96.019-2.431 1.813-3.184 2.38-3.118 2.353-7.809 4.404-11.78 3.36-.992-.261-1.806-.72-2.67-1.25 2.717-.268 6.738-2.516 8.476-4.624.298-.36.606-.762.575-1.251-.225-.226-.355-.239-.662-.233-1.4.026-3.012 1.52-4.23 2.165-5.782 3.067-11.81 2.457-16.786-1.826-.406-.349-.786-.73-1.165-1.11 2.46.711 8.628 1.59 10.909.408.423-.22.625-.451.81-.884-.026-.363-.018-.477-.29-.75-.898-.906-4.364-.372-5.664-.493a18 18 0 0 1-3.304-.642c-4.768-1.381-9.1-4.377-12.442-8.014-1.192-1.298-1.988-2.694-2.776-4.257-.35-.695-.69-1.489-1.155-2.112-.49-.658-1.415-.837-1.994-1.406-.95-.933-1.485-2.256-2.195-3.367.355-.133.777-.22.987-.556.077-.478-.072-.839-.35-1.225-.616-.855-1.569-1.517-2.38-2.177-2.702-2.198-4.62-4.316-5.402-7.818.95.704 3.638 2.933 4.824 2.643.135-.032.258-.101.381-.162l.07-.221.042.132c.168-.3.171-.294.106-.631-.614-.846-1.668-1.144-2.57-1.595-2.873-1.438-4.795-4.246-5.851-7.207 1.318.755 4.514 2.034 5.989 1.572.2-.063.334-.171.493-.302.116-.284.156-.394.013-.698-.14-.3-.407-.496-.726-.56-.357-.073-.733-.093-1.096-.125-2.015-.18-3.982-1.909-5.221-3.419q-.56-.689-1.056-1.425t-.924-1.516-.783-1.592-.637-1.657c1.513 1.143 6.007 2.855 7.762 2.602.253-.036.413-.11.632-.233.212-.333.306-.616.228-1.016a1.07 1.07 0 0 0-.513-.747c-.924-.585-2.332-.84-3.37-1.217-5.173-1.884-6.257-3.368-8.142-8.37 1.335 1.269 4.17 3.028 6.033 3.062.385.008.606-.093.882-.349.09-.297.093-.433.013-.733-1.147-1.074-2.547-1.833-3.768-2.819-4.32-3.485-5.129-7.348-6.04-12.562.776 1.084 1.412 2.238 2.306 3.237 2.856 3.186 7.569 4.59 11.685 5.317.625.11 1.256.147 1.818-.18.2-.25.245-.372.275-.69-.195-.621-.604-.903-1.172-1.194-1.235-.631-2.531-1.134-3.763-1.779-4.415-2.31-9.824-5.923-11.467-10.868-.21-.63-.358-1.28-.512-1.925 2.34 4.214 5.109 6.052 9.715 7.37 1.07.305 3.992 1.413 4.926.897.195-.109.266-.167.37-.355-.055-.389-.222-.573-.543-.798-1.493-1.049-3.621-1.558-5.306-2.266-5.28-2.222-8.55-6.629-11.328-11.47v-.285c2.983 2.785 4.535 4.956 8.441 6.606.932.393 1.954.787 2.977.816.303.008.426-.004.641-.23-.143-1.138-4.626-3.179-5.707-4.068-1.559-1.283-3.113-3.018-4.207-4.716-2.21-3.429-2.435-8.716-1.615-12.622.747 1.876 1.045 3.74 2.103 5.52 2.153 3.624 5.381 5.103 9.22 6.401 1.149.39 2.317.853 3.496 1.134.71.169 1.589.223 2.22-.213.327-.226.668-.653.677-1.065.009-.432-.342-.756-.667-.982-1.444-1.007-4.878-1.982-6.783-3.083-1.394-.805-2.671-1.821-3.662-3.097-2.206-2.843-2.496-6.007-2.04-9.466.446 1.087.879 2.128 1.59 3.072 1.485 1.973 4.596 3.764 7.024 4.047.48.056.927.095 1.323-.22.099-.958-4.467-3.546-5.324-4.22-1.044-.821-2.017-1.727-2.803-2.802-3.142-4.299-3.15-9.726-2.39-14.76.909 4.706 2.058 7.52 6.024 10.465 1.402 1.041 5.302 3.67 7.098 3.322.476-.092.737-.346.989-.742.288-1.576-2.298-2.67-3.374-3.367q-1.071-.699-2.04-1.534c-.684-.594-1.225-1.362-1.705-2.126-2.062-3.277-2.46-7.386-1.605-11.102.072.56.14 1.137.278 1.685.628 2.48 2.764 4.921 4.968 6.151.346.193.54.293.926.182.557-1.338-3.781-7.684-4.458-9.501-1.918-5.155-.371-11.144 1.847-15.931-.388 2.15-.438 4.334.025 6.476.764 3.526 2.75 6.907 5.868 8.835.573.355 1.4.766 2.092.528.294-.1.561-.347.676-.638.548-1.39-2.09-3.328-2.892-4.206-.709-.778-1.335-1.546-1.765-2.514-1.63-3.671-1.357-7.235.089-10.93.021 1.743.228 3.365 1.019 4.939.68 1.351 2.074 3.294 3.606 3.69.33.085.466.023.755-.136a1.17 1.17 0 0 0 .118-.934c-.2-.81-.766-1.614-1.122-2.371-.826-1.76-1.473-3.63-1.766-5.557-.66-4.334.833-8.255 3.376-11.707q-.266.903-.41 1.833t-.164 1.871c-.045 3.053 1.026 4.907 3.1 7.046.133-5.062.049-10.146.055-15.21 16.289.268 32.582-.076 48.87.078a3.2 3.2 0 0 1 .62-.425c1.466-.729 3.238-1.13 4.807-1.596l8.167-2.411c7.852-2.312 15.719-4.938 23.663-6.88.352-.086.75-.21 1.102-.09.14.285.142.285.073.593-.807.617-9.044 2.725-10.55 3.166l-15.638 4.668c-3.325.983-6.701 1.86-9.986 2.968 2.39-.186 4.835-.1 7.233-.1l11.792-.008q.665-.477 1.387-.863c3.256-1.753 6.746-3.198 10.095-4.773 2.525-1.188 5.048-2.61 7.645-3.617.265-.103.547-.213.825-.13l.03.12c-.206.54-.705.931-1.182 1.23-1.674 1.052-3.761 1.818-5.559 2.665q-5.714 2.749-11.494 5.357c6.16.083 12.343-.077 18.507-.048.46-2.876.996-10.933 2.225-12.977-.452-.034-.902-.08-1.346-.173-.66-.137-1.693-.53-2.008-1.193-.476-.998-.284-6.55-.009-7.718 1.093-.514 3.186-.24 4.426-.23l.18-4.838c-.4-.46-.797-.774-.755-1.43.002-.038.023-.281.022-.323-.011-.493-.35-.709-.668-1.048 1.12-2.593 4.636-5.638 6.9-7.337.867-.65 1.807-1.187 2.659-1.861l.129-.104Q128.16 10.793 128.19 0m3.694 25.15.071.044c.199.254.414.47.645.694l.232-.059.057-.213c-.26-.276-.582-.327-.934-.422zm-2.133 1.35.16.035c.26.366.582.686.63 1.137l-.302.147c-1.053-.031-1.152-1.037-1.945-1.424l-.183.08c.042.198.072.355.055.56l-.017.148c.205.345.37.367.727.534-.22.013-.444.033-.662-.017-.489-.11-.755-.412-1.013-.821-.119-.189-.222-.367-.377-.53-.165-.172-.193-.12-.418-.125-.21.24-.342.394-.636.532-.408-.054-.747-.29-1.1-.49-.797.76-1.417 1.491-1.942 2.464 2.769-.76 5.882-.761 8.743-.697-.457-.692-.768-1.178-1.56-1.498zM57.934 88.159l-.295-.184c-.671-.426-2.317-.887-2.668-1.499.09-.087.1-.109.234-.166 2.093-.898 6.244 1.769 8.157 2.57l.122.05.106.07-.106-.07c-1.628-1.728-3.84-2.674-5.765-4.005q.334.025.666.066.333.041.663.1.33.057.656.13.327.074.65.164.322.09.64.195t.63.227q.313.12.619.257.306.135.605.287.299.15.59.316.291.165.574.345t.556.373.538.399.517.425q.253.22.496.45.242.232.472.475.231.243.45.496c.377.447.625.988.988 1.43l.065.065-.065-.064-.046-.242c-.352-1.588-3.794-6.332-3.797-6.749.148-.123.19-.216.398-.21.973.034 2.68 1.99 3.275 2.722 1.086 1.335 1.949 2.813 2.685 4.364-.215-1.003-2.494-7.319-2.342-7.58l-.05-.112c.477.038.936.686 1.245 1.051 1.703 2.013 2.81 4.157 3.8 6.575-.12-1.289-.981-4.689-.643-5.664.595.283 1.597 2.784 1.845 3.473.418 1.159.645 2.366.828 3.58.336-1.74.538-3.544.926-5.267l-.095-.087.189-.038.038-.356c.626.526 1.175 3.276 1.422 4.173 1.2-2.94 2.474-6.512 5.24-8.345-.831 1.909-1.543 3.672-1.962 5.721 2.253-3.386 3.373-5.716 7.455-7.154-1.686 1.828-3.245 3.733-4.176 6.073 2.054-2.614 4.218-3.922 7.279-5.168 1.26-.512 2.592-1.004 3.955-1.151.218-.023.385-.006.596.041l.035.15c-1.208 1.165-3.253 1.853-4.734 2.64q-1.51.813-2.868 1.859c2.156-.587 7.982-2.347 10.036-1.723l.035.184c-1.04.86-3.729 1.536-5.1 2.088q-2.472.982-4.866 2.144c2.818-.27 5.76-.305 8.549.236l.136.17c-.532.388-4.177.718-5.169.898-2.734.495-5.294 1.235-7.79 2.474 3.607-.444 7.121-.902 10.73-.169.556.113 1.316.207 1.777.554.217.163.235.233.297.481l-.247.028-.047.123-.133-.116c-4.884.014-12.86.422-16.948 3.34 1.786-.34 3.562-.692 5.387-.733 6.052-.135 12.423 2.301 17.38 5.697 1.74 1.191 3.543 2.643 4.671 4.45-2.494-1.449-9.322-5.447-11.82-5.653.861.567 1.83.949 2.722 1.465 2.67 1.542 5.275 3.891 6.52 6.755-3.969-2.935-8.053-5.735-12.826-7.199l.118.08c3.621 2.423 7.203 3.87 8.669 8.41-3.883-2.648-7.635-6.243-12.157-7.75l-.075-.065.075.065c2.317 2.273 4.223 2.958 4.936 6.47-2.512-2.532-5.62-5.33-9.055-6.482l-.081-.05.08.05c1.523 1.468 3.781 3.14 3.812 5.444q.004.572-.016 1.143c-1.726-3.334-5.416-5.668-8.745-7.217 2.922 2.457 4.12 4.103 5.023 7.812-1.935-2.194-3.213-4.444-5.95-5.813l-.06-.053.06.053c1.508 2.133 1.834 3.626 1.762 6.25-1.133-3.218-2.54-5.186-5.516-6.92q.499.531.977 1.082c1.455 1.702 1.707 3.36 1.546 5.53-.866-1.681-1.5-3.007-2.792-4.424.023 1.489-.014 3.018.164 4.498.646 5.379 2.599 9.194 6.816 12.733.66.553 1.498.874 2.148 1.432 1.264 1.087 2.338 2.3 3.666 3.338 1.612-.195 3.212-.524 4.822-.747 5.781-.802 11.747-1.602 17.573-1.887 1.415-10.842 2.31-21.763 3.517-32.63l1.73-15.643c.412-3.703.916-7.386 1.082-11.111l-85.874.066c-.132 4.894-.059 9.815-.044 14.71l-.01 17.656.038 19.31c.013 3.308-.08 6.657.055 9.96.02.514.015 1.166.23 1.636 1.277.699 3.485.51 4.952.64 3.12.277 6.593 1.023 9.714.598 2.07-.282 5.028-1.005 7.111-1.529 1.184-.298 2.392-.857 3.628-.855 1.331.003 2.7.63 4.009.876 2.493.466 5.024.741 7.537 1.081 1.873.253 3.86.667 5.75.608 1.029-.032 5.53-.82 6.08-1.56.318-.428.228-.97.042-1.429-.45-1.108-1.397-2.114-2.089-3.091a54 54 0 0 1-2.399-3.66c-2.166-3.648-2.92-7.413-3.026-11.624-.023-.947.159-1.927.089-2.864a1.01 1.01 0 0 0-.422-.753c-.517-.384-1.577-.86-2.238-.73a1.1 1.1 0 0 0-.689.45c-1.152 1.563-.228 5.858.074 7.668-2.105-2.868-2.454-4.468-2.782-7.951-.917 2.947-.653 5.992-.554 9.026-1.49-2.665-2.029-5.744-2.145-8.759-1.318 2.749-1.041 5.593-.477 8.507-1.599-2.442-2.139-4.461-2.163-7.372-.966 2.754-1.184 5.185-.62 8.063-1.234-1.752-1.697-3.67-2.235-5.712-.42 1.108-.824 2.247-1.013 3.42-.088.55-.127 2.74-.413 3.028q-.046-.07-.088-.14c-.218-.363-.31-.878-.414-1.288-.593-2.343-.274-4.39.3-6.696-1.653 2.113-2.695 4.586-3.735 7.037-.05-4.044.973-6.337 3.542-9.35-2.016 1.201-3.242 2.766-4.529 4.686 1.043-3.996 2.943-6.946 6.842-8.55 1.437-.59 3.005-.938 4.562-.934 1.019.002 5.619.767 6.1.43-.04-.04-.076-.083-.118-.119-.503-.42-1.45-.533-2.075-.424-.229.04-.41.067-.645.048.184-.627 1.15-.926 1.362-1.589-.032-.014-.062-.033-.096-.044-1.269-.42-4.212.517-5.423.998.92-1.247 1.82-1.867 3.21-2.515-2.277-.396-4.225-.12-6.472.286l.334-.296c1.502-1.33 3.264-1.735 5.135-2.303-2.622-.572-5.44-.413-8.027.252 1.286-1.045 2.564-1.67 4.142-2.165-2.942-.302-5.174.272-8.036.653 1.297-.814 2.746-1.435 4.18-1.956q-2.983.01-5.957.248c1.566-1.01 3.025-1.41 4.833-1.777-.96-.207-1.877-.142-2.833-.295l-.087-.144c.13-.193.136-.257.358-.36.864-.399 2.791-.241 3.697.076.591.208 1.2.36 1.806.524m119.06 9.015c-2.855-2.47-9.288-4.119-13.018-4.205-1.322-.03-3.022.338-4.27-.008l-.045-.179c.16-.207.32-.309.55-.426 2.888-1.473 6.914-1.374 9.956-.496 1.365.395 2.655.98 4.002 1.423l.08.062-.08-.062-.098-.074c-3.585-2.634-8.693-3.57-12.982-4.46-.363-.075-.816-.126-.905-.526.827-.715 3.304-.686 4.374-.613 2.273.155 4.417.908 6.571 1.594-4.266-2.47-9.473-2.943-13.232-6.287 1.152.307 2.25.838 3.398 1.108 1.93.454 3.915.513 5.863 1.018-1.271-.851-2.501-1.767-3.782-2.602-1.416-.922-2.885-1.763-4.202-2.825 3.519.698 8.469 2.55 11.153 4.976l.185.165c-.25-.962-1.159-3.462-.599-4.313.029-.043.066-.08.099-.12.644.497 1.423 2.705 2.004 3.578.841 1.262 1.883 2.418 2.864 3.575-.357-1.07-1.268-3.442-.897-4.544.044-.128.1-.185.18-.282l.244-.032c.492.612.779 1.618 1.158 2.33 1.078 2.028 2.482 4.445 4.032 6.143.108-2.72.163-5.44 1.793-7.732-.251 3.5-.065 6.208.455 9.654.884-3.812 1.82-8.407 5.368-10.702.252-.163.531-.293.8-.423-1.645 3.719-2.732 6.176-3.495 10.23 1.974-4.006 3.493-6.955 7.237-9.614.34-.038.69-.011.983.188.253.173.279.203.322.5-.647.506-1.454.693-2.052 1.276-1.107 1.08-2.592 5.468-3.065 7.007 1.563-2.119 4.585-5.832 6.928-7.04.365.084.457.259.71.528-.069.456-1.321 1.273-1.69 1.699-.776.896-1.375 2.08-1.926 3.124 2.63-2.435 5.987-4.114 9.664-3.925q.352.016.7.069c.08.183.066.08-.007.314.205-.1.125-.038.253-.165-.03.021-.057.046-.09.063-.396.208-1.16.131-1.63.266-.647.186-1.264.506-1.873.79 2.408.068 4.163.278 6.258 1.546-1.181-.224-2.34-.424-3.545-.442l.134.093c1.133.778 2.417 1.32 3.605 2.01 3.133 1.818 6.202 3.748 9.332 5.573a221 221 0 0 1 4.986 2.975c.556.346 1.196.638 1.713 1.039.208.161.327.324.418.568-.064.294-.044.299-.285.472-1.314-.498-2.57-1.372-3.78-2.087-2.714-1.607-5.455-3.181-8.153-4.816-2.085-1.264-4.169-2.776-6.433-3.683-1.686-.675-3.978-1.235-5.786-.82l-.042.087c1.066.05 4.248.364 5.014 1.114.033.032.057.073.086.109l-.031.223c-.276.174-.509.185-.825.194-.878.027-1.775-.108-2.658-.118-1.766-.02-3.457.136-5.198.406 2.6.246 4.366.293 6.956.941-3.554.072-6.106.121-9.444 1.456 2.347-.164 4.493-.317 6.778.392-2.411.922-5.019 1.142-7.481 1.888.658.318 1.3.625 1.996.851-1.517.194-3.146.308-4.59.83-.364.412-.695.811-.987 1.277 4.447-1.032 9.028-.978 13.016 1.498 2.125 1.32 3.86 3.146 4.42 5.646.105.465.173.942.245 1.414-1.199-1.928-2.136-3.679-4.068-4.989 1.446 1.6 3.454 4.472 3.998 6.59.153.593.16 1.225.181 1.835-.425-.93-.693-1.97-1.22-2.84l-.074.07.025.716-.105.005c-1.121-1.747-2.19-3.374-3.584-4.92.876 1.84 3.147 6.694 2.313 8.673-.091.214-.196.308-.375.447l-.228.05c-.338-.638-.344-1.476-.495-2.18-.386-1.789-1.408-3.43-2.577-4.81.259 2.528.354 4.406-.64 6.817-.569-4.096-.4-4.895-2.557-8.566.423 1.796.48 3.257.222 5.082-1.015-1.924-1.679-3.9-3.147-5.557.918 2.008 1.867 4.914 1.13 7.137-.06.178-.083.2-.172.338-.5-.348-.779-2.682-1.01-3.376-.22-.658-.577-1.33-.94-1.92-.893-1.45-2.17-2.592-3.57-3.54 1.447 1.754 2.379 3.557 2.185 5.906-.074.897-.323 1.75-.646 2.586-.286-2.793-.438-5.605-2.76-7.555a7.2 7.2 0 0 0-1.834-1.097c-.444.433-.86.867-1.255 1.347 1.626 3.751 1.375 7.681-.116 11.44-1.773 4.471-4.9 8.014-7.616 11.9 1.588.361 3.18.713 4.762 1.097 1.256.305 2.555.746 3.849.814.941.05 1.906-.114 2.817-.34 1.628-.404 3.458-1.27 5.124-1.322 1.642-.052 3.359 1.096 4.987 1.391 4.79.866 9.003-1.713 13.44-3.037 5.996 2.067 9.59 3.81 16.14 2.189q-.119-19.306-.024-38.611c.01-8.321.102-16.656-.008-24.976l-84.898.008c.91 3.045.917 7.169 1.321 10.389 1.254 9.981 2.221 20.213 3.67 30.13 6.2-5.42 15.393-10.146 23.814-9.594 2.557.168 3.892.925 6.234 1.612l.13.074zM139.7 96.25c-.364-.072-.677-.181-1.024.001-.278.969-.04 4.334-.043 5.605.41.006.787.055 1.151-.166.226-.703.263-4.676-.009-5.308-.02-.047-.05-.088-.075-.132m28.23 5.193c-3.126.984-6.429 3.9-8.567 6.33-.875.995-1.726 2.274-2.776 3.073.979-2.977 2.825-5.606 5.09-7.745-2.238 1.308-4.305 2.846-6.323 4.47-1.235.995-2.446 2.127-3.807 2.941q-.178.108-.358.213c2.094-3.943 6.562-7.449 10.383-9.584q-1.658.547-3.253 1.259t-3.11 1.58c-1.949 1.1-3.839 2.356-5.953 3.12 2.748-3.05 4.959-4.504 8.467-6.448-3.847 1.182-7.113 3.416-10.664 5.234.086 2.48.515 4.978.755 7.452.345 3.568.467 7.401 1.236 10.892 6.845.483 13.755 1.053 20.527 2.188 5.277-3.764 11.215-9.749 12.311-16.357.319-1.923.342-4.004-.844-5.646-1.348 1.147-1.836 2.251-2.456 3.877-.317-1.978.01-3.213 1.014-4.919a12 12 0 0 0-2.838 3.17c-.454.742-.852 1.596-1.488 2.197l-.151-.025c-.195-1.645 1.227-4.289 2.229-5.533q.327-.401.681-.779c-1.921.88-3.632 1.95-5.186 3.391-.65.604-1.299 1.656-2.07 2.04-.137-.22-.17-.254-.102-.523.438-1.72 2.773-4.143 4.11-5.312-2.624.902-4.965 2.867-6.637 5.058-.43.562-.798 1.422-1.38 1.82-.18-.125-.2-.083-.243-.268-.238-1.016 1.34-3.171 1.925-3.959q.925-1.225 1.98-2.34l.094-.079.1-.076-.1.076-.094.08c-3.095 1.057-5.96 3.717-8.336 5.863 1.088-3.09 3.307-4.805 5.833-6.731l.072-.065zm-27.04 37.607-.14.055zc6.176-1.856 5.93-.742 11.533 1.37.895.337 1.923.754 2.874.863l.076.06-.076-.06c-1.378-.991-6.484-4.041-8.036-4.46-1.947-.525-4.726 1.242-6.37 2.226m-38.265 1.356.06.081c2.319 1.689 8.713.883 11.485.586l.08-.078c-.37-.26-2.172-.003-2.701.017-2.995.115-5.89-.347-8.864-.525zm-18.065 2.827c-2.119.048-4.408-.064-6.485.363-.859.177-1.619.51-2.448.767-.729.225-1.507.363-2.253.524l.022.099c3.403.759 8.159.01 11.164-1.753l.063-.077zm70.042 9.013c-.24.014-.474.046-.712.076.829.438 3.952.369 4.988.321 3.184-.147 6.407-1.192 9.363-2.333 2.256-.87 4.88-2.355 7.312-2.369 3.319-.019 7.966 2.145 11.501 2.438l.132.01.062.08-.062-.08c-1.095-.451-2.28-.747-3.399-1.145-2.067-.733-6.004-2.566-8.115-2.624-1.262-.035-2.674.796-3.804 1.301-5.986 2.674-10.719 3.756-17.266 4.325m-60.01 6.484q-1.089-.034-2.178-.037c.04.012.08.027.12.035.061.012.123.017.184.025l.002.037c3.978.633 7.868 1.91 11.937 1.824 3.23-.069 5.779-1.679 8.845-2.267 1.075-.207 2.24-.166 3.333-.216q2.217-.084 4.407-.434 3.77-.654 7.494-1.526c2.088-.5 4.177-1.132 6.321-1.326 4.688-.423 9.303.649 13.919 1.175l.147.074-.147-.073c-4.436-1.697-9.745-4.058-14.24-5.267-1.42.477-2.767 1.258-4.133 1.877q-1.065.476-2.164.866t-2.225.692-2.273.516-2.306.335c-2.837.31-6.175-.247-8.797.257-1.906.366-3.588 1.46-5.428 2.048-4.138 1.322-8.514 1.403-12.817 1.385m33.599-134.295-.002.155c.588.042 1.191-.066 1.772.019l.112-.183c-.532-.229-1.32-.09-1.882.01m-1.37-.033-.32.258.02.16.306.12.406-.327c-.233-.196-.097-.121-.413-.21m2.774.402c-1.029.05-2.088.08-3.035.527l-.085.197c.313.25.773.509 1.181.478.127-.218.145-.319.181-.562l.226-.062.233.145c.288.138.397.234.726.21.197-.286.284-.515.665-.582.445-.079.811.295 1.118.56.207-.22.233-.491.293-.776-.323-.203-.995-.304-1.376-.19-.044.013-.085.037-.127.055m-3.773.795c-.386.144-.649.26-.951.543.155.091.085.079.194.085.349-.071.766-.096 1.034-.349-.126-.249-.032-.157-.277-.279m6.079.943-.01.12.103-.003.006-.127zm1.783.14-.049.099.115-.031.032-.095zm-.844.52c.252.38.41.618.886.722q.052.01.104.017c-.153-.26-.28-.625-.598-.71-.093-.024-.292-.026-.392-.03m-.417.113-.376.494.058.17.552.212.179-.326c-.11-.249-.21-.37-.413-.55m2.445.325c.155.126.08.116.2.109l-.128-.131zm-.405.297h.187zm-7.302 2.13c-1.11.017-2.428.005-3.484.404-.585.22-.835.791-1.497.828l-.379-.375c-.298.016-.282.027-.494.242l-.015.194c.308.228.7.21 1.069.24.249.368.349 1.698.24 2.152-.041.176-.083.213-.175.343-.254-.078-.247-.169-.362-.394-.105-.207-.164-.42-.242-.638-.063-.18-.035-.115-.182-.274-.313.342-.289.79-.625 1.144l.023.235c.116 1.394-.03 2.935-.198 4.321q3.072-.025 6.144-.112c-.216-1.546-.8-6.02.115-7.209.272-.352.706-.566 1.084-.785.792-.016 1.588-.119 2.282.332.416.719-.22 1.96-.335 2.754-.169 1.168.213 2.401-.05 3.576a.9.9 0 0 1-.213.418c-.195.047-.387.096-.585.128l-.005-.158c-.028-1.23.218-2.475.046-3.693l-.021-.15c-.061-.373-.299-.591-.556-.843l-.282-.088c-.396.349-.425.91-.46 1.414-.099 1.397-.013 2.85-.006 4.252 2.978-.025 5.965-.079 8.943.02-.031-1.434-.036-2.873-.102-4.304-.275 1.166-.402 2.716-1.161 3.665l-.234.065c-.71-.818-.49-2.824-.476-3.898.003-.2.055-.152-.119-.178l-.226.159c-.254-.124-.3-.136-.395-.422-.29-.877.028-2.2.237-3.084a43.4 43.4 0 0 0-7.304-.281m7.832.718c-.015.357-.091.625.089.944.108 0 .23.012.336-.01l.046-.666c-.185-.195-.209-.207-.471-.268m-14.463 1.024-.115.24c.137.184.26.312.441.451l-.128-.685zm14.451 1.242.052.089zm-4.607 6.488c-.03.788-.213 1.712.108 2.444.418.316.728.262 1.244.268l.017-2.688zm2.627-.022c-.026.826-.19 1.769.101 2.548.346.303.567.256 1.017.3.01-.575.014-1.148.06-1.722.025-.331-.027-.547-.13-.86-.264-.28-.29-.258-.689-.27-.12-.004-.24.001-.359.004m-9.745.118c-.025.81-.197 1.74.071 2.508.264.257.302.233.686.233.119 0 .238-.008.357-.015.025-.806.197-1.736-.077-2.496-.296-.282-.479-.242-.888-.235zm2.372-.015c-.024.541-.042 1.077-.115 1.615a1.3 1.3 0 0 0 .09.764c.412.367.825.277 1.353.25-.02-.516-.04-1.022-.01-1.537.02-.358 0-.723-.271-.994-.198-.197-.773-.116-1.047-.099m2.443-.028c-.006.537-.005 1.07-.048 1.606-.026.315.034.51.143.804.353.295.62.227 1.07.22.01-.538.013-1.073.055-1.61.024-.299-.024-.482-.125-.763-.25-.253-.289-.254-.662-.267-.122-.004-.306.005-.433.01m7.177-.032c-.013.588-.019 1.173-.065 1.76-.027.337.01.783.233 1.055.139.17.631.146.848.15.007-.584.01-1.165.05-1.748.025-.349.001-.804-.232-1.085-.142-.17-.619-.136-.834-.132m3.57-.034c-.064.54-.31 2.858.11 3.18.064.05.143.078.214.116.137-.685.335-2.478.002-3.094-.068-.126-.204-.147-.327-.202m2.2.011c-.018.957.086 2.102-.2 3.015-.271.08-.307.034-.57-.038l.014.163c.326.14.615.237.961.315.18-.015.489.022.594-.136.428-.645.253-2.065.029-2.79-.044-.142-.115-.25-.194-.374a3.6 3.6 0 0 0-.633-.155m-24.605.124c-.052 1.102-.334 2.89.09 3.9.2.05.314.063.525.062.248-.883.375-2.97-.058-3.822-.19-.06-.36-.108-.557-.14m1.857.072c-.017.683-.023 1.366-.091 2.046-.049.485-.005.835.314 1.22.358.145.708.008 1.067-.076.055-.98.383-2.237-.187-3.09-.334-.201-.729-.121-1.103-.1m2.484-.013c-.007.593-.008 1.183-.057 1.775-.026.319.013.507.121.807.241.242.257.283.618.271.2-.007.417-.062.615-.098.007-.796.183-1.796-.126-2.527-.384-.3-.691-.25-1.17-.228m16.574.193.107.099zm-13.252 4.014c-1.704.156-6.346.246-7.566 1.158-.161.332-.17.341-.096.701.317.258.493.28.898.312 2.448.194 4.99-.11 7.438-.205q4.804-.172 9.61-.03c1.238.021 6.993.419 7.65-.212l-.05-.197c-2.694-1.176-14.7-1.951-17.884-1.527m.326 4.006c-1.374.028-3.02-.09-4.05 1.003-1.011 1.072-1.25 6.35-1.413 8.102 5.665-1.077 11.728-.456 17.472-.686.282-.011.645-.053.837-.277l-.089-.102.129.096c.57.437 1.084.35 1.784.315-.052-.459-.031-1.333-.369-1.632l-.396.145-.185-.157-.015-.323c.34-.278.648.1.665-.41.026-.739-.064-1.75-.246-2.46l-.106-.051-.24.24-.237-.04c-.06-.274-.066-.323.02-.59q.276-.051.551-.108c.053-.377.08-.459-.07-.803l-.394-.296c-.019-.297-.055-.168.052-.365.206-.378.363-.678.262-1.123q-.015-.058-.035-.114c-.713-.123-1.989-.272-2.646.039l-.279.325c-.308-.019-.157.039-.383-.169-.305-.279-.627-.353-1.028-.32q-.127.011-.255.026l-.06.13.166.354c-.233.067-.33.066-.562-.008.036-.075.078-.148.107-.226.021-.054.03-.112.044-.167-.874-.179-1.928-.24-2.814-.121-.07.219-.07.108.004.331l-.17.04-.083-.083c-.162-.157-.333-.335-.56-.394-1.34-.35-3.936-.123-5.408-.121m-3.94 9.986c-.518.049-1 .04-1.434.357l-.184.292c.156.27.183.265.473.348 1.252.358 3.232.01 4.544-.011 2.168-.036 14.407-.157 15.208.297l.086.208c.083-.458.028-.826-.227-1.205-.558-.105-.936.187-1.387.486l-.28-.029c-.123-.302-.069-.307.013-.605-3.01-.365-6.268-.22-9.305-.23-2.46-.008-5.064-.159-7.507.092m-1.621 2.383c-.393 1.029-.461 1.96-.472 3.043l14.383-.08c.876-.006 4.125.13 4.792-.086.027-.009.2-.168.207-.175.068-.073.204-.251.269-.334l.278-.038-.288.366.056.114.565.038c.403-.038.933-.021 1.255-.276-.084-.393 0-.069-.104-.363-.224-.635-.105-1.339-.42-1.952-.4-.095-.467.199-.808.24-.438.053-1.488-.418-2.116-.422-5.864-.031-11.73-.258-17.597-.075m4.006 5.467a8.4 8.4 0 0 0-1.478.834c1.034.029 2.064.06 3.099.024.45 0 .995.072 1.393-.16-.127-.253-.519-.362-.784-.447-.783-.251-1.409-.335-2.23-.25m12.783.066-.098.42c.205.246.325.257.633.276.378.024.767-.029 1.147-.028l-.025-.224c-.5-.361-1.051-.438-1.657-.444m.045 1.31-.031.268c.435.252 1.201.109 1.691.07l-.003-.214c-.54-.132-1.103-.112-1.657-.124m-13.206.383c-.535.12-1.03.246-1.534.467 1.389.006 2.79.049 4.179.01.304-.057.557-.034.768-.27-.7-.449-2.601-.312-3.413-.207m13.297.654c.588.327 1.145.25 1.787.138-.604-.284-1.143-.238-1.787-.138m-12.762.487c-.782.105-1.536.189-2.283.451 1.21.144 2.405.164 3.622.139.54 0 1.234.082 1.733-.135-.326-.392-1.278-.44-1.786-.479-.426-.033-.86-.003-1.286.024m12.761.356.089.48c.512.345 1.024.194 1.615.127l-.03-.336c-.421-.308-1.166-.244-1.674-.27m-13.581.884c-.326.111-.497.108-.709.395.607.442 2.866.212 3.68.204l.451-.092.034-.209c-.998-.445-2.385-.35-3.457-.297m14.155.448-.115.403.135.124.721-.108.175-.286-.114-.13q-.401-.004-.802-.003m-13.87.796c-.364.08-.68.08-.954.341.475.457 1.796.412 2.452.398q.43-.01.86-.027c.349-.095.754-.14.981-.44-.623-.509-2.527-.307-3.34-.272m14.843.2c-.407.004-.938-.057-1.288.16l-.14.325c.119.276.263.41.475.614-.125.23-.237.324-.431.494-.051.448.456.885.261 1.138-.106.138-.17.247-.239.404.128.372.618.39.4.723-.037.056-.262.296-.313.353.07.187.029.205.184.281.238.117.495.072.751.053.154-.154.292-.3.428-.47-.042-.205-.043-.528-.216-.648-.155-.107-.304-.16-.478-.224l-.039-.218c.314-.23.456-.034.712-.359.007-.34-.014-.638-.216-.93-.087-.127-.178-.164-.287-.263-.043-.038-.161-.168-.208-.218l.227-.198q.27.129.529.28l.104-.289c-.15-.212-.311-.309-.529-.445.13-.28.257-.352.492-.549l-.098-.053zm-15.864 1.189-.167.21.079.174c1.28.359 2.926.294 4.236.127l.253-.198-.063-.209c-1.124-.415-3.116-.18-4.338-.104m.013 1.26-.02.253c.869.633 3.387.349 4.485.275l.033-.27c-.453-.434-1.894-.349-2.502-.337-.664.012-1.334.03-1.996.08m.255 1.253-.438.103-.036.209c.999.486 2.573.349 3.65.236.338-.085.523-.08.761-.343-.193-.239-.486-.222-.784-.252-1.034-.105-2.118-.007-3.153.047m.528 1.48c-.391.067-.807.084-1.123.344.299.312 1.255.264 1.697.274q1.169.015 2.337-.015c.317-.048.503 0 .713-.26-.566-.512-2.63-.444-3.405-.37q-.11.013-.219.028m-5.876 1.849a171 171 0 0 0-1.486 14.215c2.566.047 26.29.174 26.707-.023l-.148-.416.131-.14.256.048.124.59c.337.165.495.062.853-.02.25-.254.262-.427.32-.764l-.07-.21-.149.02c-.227.03-.453.047-.68.065.069-.229.136-.345.344-.476.089-.055.19-.087.28-.14q.022-.017.04-.038c-.01-.297.049-.895-.142-1.1l-.422.123-.148-.124c.073-.374.307-.273.517-.518.364-.426-.036-2.03-.049-2.61-.185-.132-.247-.145-.463-.185l-.053-.244c.153-.208.439-.467.404-.731-.04-.301-.189-.505-.35-.753.059-.24.137-.452.235-.68-.047-.28.01-.325-.228-.504q-.309.271-.602.557l-.161-.055-.095-.333c.184-.292.54-.368.847-.485l.112-.214a5.6 5.6 0 0 0-.528-.772l.056-.153.313-.103c.265-.931-.377-2.236-.403-3.22-.263-.195-.245-.214-.567-.176l-.558.44-.222-.031c-.003-.073-.003-.146-.01-.219-.007-.07-.02-.14-.031-.21-.412-.045-2.028-.226-2.322-.003-.152.115-.191.24-.264.41l-.232.02c-.073-.202-.042-.31-.015-.519-.286-.188-3.463-.272-3.941-.187-.35.063-.109.342-.508.203l-.126-.044c-.124-.043-.242-.102-.363-.153-.669-.28-14.106-.14-16.203-.138m6.614 15.891c-1.228.26-2.038.737-2.974 1.56 1.106.137 2.219.297 3.336.267 1.004-.047 2-.089 2.996-.231-.96-.877-2.02-1.536-3.358-1.596m-1.916 3.14c-.444.057-.933.07-1.318.312l.037.164c1.512.518 3.486.393 5.058.27.464-.024.962-.003 1.383-.216l.022-.192c-1.297-.69-3.783-.485-5.182-.337m.403 2.004c-.649.072-1.355.09-1.971.316l-.05.182c.722.535 3.901.314 4.957.3.628-.03 1.208-.029 1.8-.265l.067-.16c-1.27-.63-3.403-.404-4.803-.373m-26.437.269h.153zm27.437 1.858c-.957.054-1.918.078-2.849.325-.139.22-.121.125-.135.256l-.047-.174.036.12c.446.11 1.1.292 1.545.161.077.02.152.047.23.06.633.104 1.475.031 2.124.007.955-.048 1.92-.07 2.869-.18l.12-.278.185.096c-.683-.632-3.06-.432-3.943-.399zm-1.563 2.275c-.433.016-.977-.03-1.346.21l.063.187c1.551.46 3.374.31 4.97.195.673-.028 1.244-.06 1.885-.3l.08-.125c-1.47-.63-4.054-.306-5.652-.167m-7.375 3.487-.277.08c-.332.693-1.63 14.17-1.87 16.38q7.402-.364 14.812-.473c1.849-.023 5.71.22 7.278-.042.335-.056.687.039 1.019.098.175-.065.286-.05.366-.237.291-.677-.256-2.03-.49-2.702l.165-.04-.131-.084.06-.172c.14-.407.26-.726.233-1.158a2.6 2.6 0 0 0-.477-.431l.084-.066-.024-.066.184-.115c.035-1.448-.04-3.415-.353-4.837l.168.031-.042-.153-.113.049c.029-.985 2.56-2.43 2.574-3.321l-.393-.24c.107-.099.167-.215.325-.204.87.056 2.697 1.715 3.224 2.402.41.535.66 1.18.884 1.81l-.145.526c.265 2.189-.274 7.453.428 9.039l.277.116c.197-.121.347-.243.512-.406l.233.07.15.303c.825.11 3.583.243 4.396.074.094-.469-.268-.542-.153-1.007.121-.492-.423-7.818-.574-8.333l-.438-.239c.043-.617.562-.49.266-1.302l-.367-.296c.02-.21.07-.361.144-.556.088-.229.159-.495.087-.74-.021-.073-.067-.137-.1-.205-.255.128-.427.29-.712.225l-.014-.248c.337-.223.512-.297.702-.66-.02-.522.043-1.752-.255-2.11l-.454.077c-.077-.26-.026-.248.084-.482-.95-.382-4.421-.081-5.606-.098-8.561-.12-17.101-.361-25.667-.257m8.576 17.88c-5.64.165-11.324.309-16.945.78-2.271.19-4.538.511-6.802.778-2.113.248-4.252.437-6.349.799.031.3.166.905.047 1.162l-.139-.015c-.049-.262-.038-.498-.03-.763-.236-.237-.368-.27-.707-.277-1.414-.027-3.124.5-4.535.77-2.479.477-4.998.864-7.455 1.437-2.72.634-5.396 1.478-8.116 2.13-4.35 1.043-8.78 1.826-13.173 2.678 9.586.635 19.212.116 28.814.24l14.853.157c3.89.078 7.774.338 11.66.412 7.115.137 14.333.024 21.448-.143 3.642-.16 7.335-.464 10.978-.466 2.145 0 4.291.289 6.436.278.267-.001.446.065.649-.155.101-.11.18-.355.243-.496.273-.137.307-.12.614-.077.177.23.264.416.357.69.74.234 7.92.288 8.707.047.099-.031.2-.054.3-.081l.224-.062q.073.045.147.088c1.03.587 4.724.257 6.04.24.525-.462-.198-1.212.806-1.317l.221.123c.087.434-.152.805.102 1.162.507.087 1.002.084 1.436-.235.125-.092.243-.225.35-.336q.188.121.373.249c.28.194.489.325.844.345 1.007.057 1.987-.205 2.977-.256 1.514-.079 3.11-.059 4.632-.067 2.278-.011 4.554.3 6.83.363 2.732.077 5.493-.087 8.225-.179l-8.42-2.918c-1.519-.536-3.024-1.19-4.584-1.595-12.21-3.17-25.309-4.273-37.881-4.947-2.31-.124-4.615-.327-6.928-.418-3.334-.132-6.681-.089-10.018-.092-2.074-.002-4.16-.076-6.23-.033m88.01 3.436c-1.621.586-3.163 1.364-4.74 2.058-2.926 1.288-5.996 2.166-9.189 2.428 3.799.605 7.067.656 10.689-.886 1.043-.444 2.022-1.034 3.06-1.48.963.212 1.933.407 2.885.66 4.967 1.27 8.84 2.123 14.06 1.554l.01-1.615c-3.091.213-6.381.51-9.425-.243q-1.982-.477-3.863-1.265c-.888-.379-1.814-.885-2.734-1.162a1.7 1.7 0 0 0-.754-.05m-154.178.532c-4.69.916-9.157 2.485-13.977 2.495 3.238 1.12 7.1.677 10.441.319 1.8-.277 3.728-.81 5.539-.836 3.367-.048 4.334 1.55 8.041.22-2.413-.797-7.619-2.506-10.044-2.198m-25.21 1.78c-.35.478-.706 1.214-.55 1.828.069.275.14.372.368.522 1.018-.022 2.148-.144 3.155-.015 1.834.236 3.728 1.048 5.53 1.506 4.492 1.143 9.348.606 13.74-.665.526-.168 1.065-.319 1.583-.507-1.784.04-3.548.28-5.328.365q-1.927.08-3.851-.055t-3.822-.481c-2.443-.434-4.862-1.107-7.268-1.711-1.1-.277-2.434-.773-3.556-.787m179.372 1.811c-3.494 1.407-6.843 3.096-10.58 3.775-1.902.346-4.494.175-6.145.604.442.129.892.125 1.35.142 5.402.71 7.552.662 12.297-2.106 1.303-.76 2.224-1.469 3.742-1.801l.052-.158c-.232-.21-.399-.387-.716-.456m4.09 1.587c4.176 2.114 8.196 2.37 12.754 1.703.025-.362.116-.78-.057-1.112-1.426-.267-3.594.249-5.194.222-2.564-.042-4.978-.472-7.504-.812m-4.717 1.003c-6.27 4.42-10.683 5.97-18.296 6.804 7.711.683 11.494.192 18.408-3.47.606-.01 1.938 1.024 2.564 1.316 4.368 2.041 10.178 3.12 14.852 1.54l-.013-1.676c-4.733.117-9.27-.424-13.58-2.531-1.213-.594-2.62-1.737-3.935-1.983m-177.134.443c-.745.126-1.291.202-1.76.849a1.76 1.76 0 0 0-.361.935c.097.282.115.26.382.404 1.116-.032 2.292-.618 3.405-.817a46 46 0 0 1 3.294-.372c-1.683-.747-3.108-1.12-4.96-1m23.926.15c-3.241.141-6.462.498-9.7.684-2.172.126-4.37.056-6.534.222 3.169.405 6.261 1.152 9.472 1.184 2.637-.018 5.163-.406 7.779-.65 1.308-.122 2.627-.086 3.937-.184 1.389-.103 2.773-.36 4.145-.588-2.928-.299-6.164-.838-9.1-.668m37.702.484c-.44.04-1.027.015-1.422.204.226.193 2.726.117 3.259.213.325.124.538.274.886.198-.234-.344-.894-.578-1.3-.636-.463-.067-.96-.024-1.423.022m-16.498.271c-1.189.03-6.855.011-7.549.315.348.125.683.165 1.047.208 1.65.179 5.403.331 6.857-.493-.121-.017-.233-.039-.355-.03m8.499.222c-2.494.426-5.116 1.448-7.483 2.33l2.474-.34c2.47-.55 4.916-1.108 7.281-2.032-.754 0-1.522-.033-2.272.042m92.125.396c-4.273.207-8.447 1.193-12.715 1.42-2.871.152-5.776-.007-8.629-.34-1.382-.16-2.774-.428-4.156-.545 5.402 1.964 10.837 1.888 16.494 1.952-4.03 1.666-7.216 1.352-11.356 1.77 1.262.856 5.083.428 6.531.148 5.572-1.078 11.151-4.606 16.945-3.8 3.78.526 7.347 2.014 11.194 2.271-3.527-1.15-10.76-3.036-14.308-2.876m-77.543.294c4.987 1.605 10.683 2.297 15.905 2.01 3.564-.196 7.114-.683 10.688-.47 3.026.18 6.09 1.017 9.023 1.763l.976-.435.36-.223-.05-.148c-1.017-.265-2.106-.32-3.147-.475-3.382-.505-6.869-1.065-10.296-1.012-3.347.051-6.689.41-10.038.296-4.516-.154-8.932-.957-13.421-1.306m-9.956.577c-2.485.255-4.823 1.212-7.221 1.865-2.3.627-4.621.98-6.988 1.234 1.993.16 4.019.329 6.017.173 5.002-.24 9.097-1.418 13.939-2.373-1.819-.388-3.89-.999-5.747-.899m-23.675.852c-2.617.53-5.17 1.628-7.744 2.366-4.889 1.403-9.709 2.352-14.75 2.983 2.264.14 4.499.243 6.767.11q3.851-.482 7.584-1.549c1.577-.451 3.122-1.025 4.71-1.43 3.327-.848 6.801-1.43 10.2-1.902-2.213-.197-4.554-.742-6.767-.578m111.292.021-.172.176c.906.988 7.58 1.624 9.153 1.692l1.64.064.083-.135c-.81-.306-1.738-.355-2.589-.52-2.666-.52-5.382-1.332-8.115-1.277m-145.354.589c5.446 2.626 11.663 3.731 17.615 2.502l.389-.093.045-.096c-6.083-.288-11.904-2.67-18.05-2.314m111.03.399c-3.03.47-6.943 2.636-10.043 3.605q-2.529.814-5.12 1.397-2.592.582-5.226.928c-1.426.194-2.881.232-4.298.447 6.782.681 11.993-.878 18.437-2.517 2.08-.645 4.506-1.822 6.674-1.904 3.782-.142 8.524 4.085 12.291 4.013 1.363-.025 2.906-.52 4.203-.928-2.562-.238-4.909-.915-7.315-1.797-2.508-.917-7.156-3.333-9.603-3.244m-18.293.892c-6.68.526-13.172 2.017-19.902 2.123 3.312.878 5.346 1.616 8.855 1.637 6.518-.104 13.23-.786 19.439-2.85-2.71-.467-5.637-1.149-8.392-.91m-31.111.366c-2.898.362-5.4 1.856-8.037 3-2.574 1.117-5.695 2.122-8.487 2.487-3.269.428-7.019-.532-10.173-1.389-1.57-.426-3.153-.943-4.79-.998-2.428-.08-4.877.835-7.206 1.414q-2.383.599-4.831.822c2.268.208 4.59.69 6.867.449 1.96-.207 3.79-1.289 5.796-1.071 1.805.196 3.459 1.001 5.094 1.734 3.46 1.55 7.127 2.248 10.909 1.622l.17-.017c2.94-.303 5.69-1.228 8.431-2.28 2.056-.79 4.214-1.756 6.419-1.989 4.913-.518 13.047 2.734 18.103 3.887 2.904.662 5.751.893 8.698 1.209-5.223-2.356-10.648-4.145-16.043-6.044-2.189-.771-4.306-1.754-6.558-2.333-1.422-.365-2.89-.612-4.362-.503m81.103.012c-4.808.267-8.277 3.426-12.849 4.764-5.988 1.753-12.119 2.637-18.232 3.786 1.576.3 3.204.837 4.795.978 6.24.555 13.827-1.8 19.557-4.133 1.936-.788 4.12-2.096 6.236-2.186 2.711-.117 5.734 1.321 8.296 2.164 3.627 1.193 8.26 2.7 12.078 2.813 1.178.09 2.322.125 3.5.027 1.541-.127 3.216-.535 4.75-.272 2.484.425 5.014 1.659 7.354 2.588 3.997 1.587 8.18 2.601 12.487 2.822.956.05 2.564.23 3.44-.207l.094-.194c-.102-.281-.136-.423-.434-.561-.546-.254-3.13.059-3.868.042-1.49-.034-2.938-.275-4.395-.574-3.394-.696-6.585-2.12-9.753-3.476-1.447-.619-2.931-1.335-4.456-1.728-1.54-.396-3.303-.214-4.89-.314q-2.03-.126-4.04-.426t-3.989-.77c-1.856-.447-3.722-.987-5.498-1.69-3.131-1.238-6.777-3.448-10.183-3.453m8.661.81c4.346 3.137 11.758 3.153 16.818 2.328 1.89-.308 3.715-.816 5.528-1.427l.334-.165c-.045-.019-.086-.056-.135-.059-.916-.042-2.194.477-3.108.666a27 27 0 0 1-4.505.525c-3.366.119-7.115-.339-10.43-.957-1.49-.278-3.006-.709-4.502-.911m-118.14.296-1.655.348c3.114.443 5.2.616 8.325.109l1.883-.43c-2.8-.019-5.777-.346-8.553-.027m160.64 2.011c-4.275.762-8.23 1.1-12.561.81-2.208-.149-4.406-.475-6.62-.495.425.133.849.276 1.277.396 5.097 1.23 9.964 1.738 15.15.564.821-.186 1.962-.354 2.711-.746.12-.062.149-.105.232-.192-.061-.299.019-.198-.188-.337m-83.52.745c-2.129.304-4.24 1.009-6.305 1.598 4.137-.11 6-1.34 10.548-.651 1.36.261 4.252 1.196 5.453.443.224-.14.42-.329.612-.508-2.303-.298-8.27-1.115-10.308-.882M41.53 146.448c-3.676.107-7.561-.256-11.194.277.886.27 1.715.401 2.632.512 3.54.158 7.665.064 11.076-.901zm55.174.85c-9.458 1.263-15.007 6.237-25.567 4.154 2.763 1.516 4.794 2.468 8.017 1.825 3.514-.894 6.976-2.013 10.44-3.078 2.573-.791 5.17-1.73 7.868-1.956 2.363-.197 4.897.105 7.24.463-2.281-1.02-5.514-1.723-7.998-1.408m-50.126.63c-2.886.311-5.749.832-8.637 1.107-2.481.238-4.947.247-7.436.181 2.812 1.167 5.354 1.76 8.4 1.662 5.223-.564 10.328-2.072 15.56-2.516-2.532-.228-5.368-.832-7.887-.433m7.52.471c1.17.073 2.34.51 3.476.79 2.513.62 6.022 1.105 8.57.513-.555-.347-10.865-1.38-12.047-1.303m82.997.028c-1.507.159-2.983.478-4.466.776 1.97.056 3.933.074 5.9-.086 1.303-.102 2.58-.282 3.87-.481-1.675-.437-3.587-.379-5.305-.209m89.362-.024c-4.432 1.007-9.862 1.016-14.354.115.91.484 1.844.867 2.8 1.25 3.89 1.251 7.982 2.3 12.088 2.373.023-1.048.254-2.77-.114-3.715-.303-.061-.163-.062-.42-.023m-174.728 2.037c-1.72.167-7.675.457-8.812 1.101.163.046.255.071.427.064 1.74.228 7.334-.174 8.702-1.144zm6.5.475c-1.017.162-1.951.32-2.616 1.196-.387.51-.675 1.163-.966 1.735 1.564-.508 3.124-1.035 4.696-1.516a29 29 0 0 1 4.637-.975c-1.908-.453-3.799-.514-5.752-.44m116.559.125c-2.428.421-4.713 1.287-7.024 2.114 2.042-.047 3.993-.516 6.006-.642 2.429-.373 4.879-.377 7.316-.632-1.942-.53-4.288-1.097-6.298-.84m-73.66.258c-3.55.473-12.945 4.061-16.245 5.812 4.662-1.212 13.739-3.972 18.27-3.447 2.785.466 4.85 1.687 7.7.637-2.028-.681-4.132-1.14-6.142-1.852 3.488-.023 6.902.705 10.366 1.01-3.626-1.517-10.061-2.561-13.948-2.16m100.527.018h.148zm-.312.125h.216zm-.412.093c-3.43.863-7.101.844-10.622 1.059-.905.054-1.932-.059-2.807.11.369.124.704.21 1.09.263 3.607.443 6.948.606 10.459-.567.67-.224 1.451-.442 2.038-.842zm-170.08.137c.602.88 7.017 2.348 8.14 2.557 4.254.789 9.657 1.065 13.574-1.117.475-.29.958-.57 1.407-.899-5.44.9-9.484 1.129-14.997.409-2.49-.325-5.678-1.172-8.124-.95m32.464 1.38c-2.248.216-4.304.952-6.403 1.737-5.072 1.897-8.096 3.065-13.677 2.847-1.33-.052-2.702-.179-4.005-.458-1.647-.354-7.053-2.466-8.328-1.93l-.144.196c.088.399.249.57.589.797.913.609 2.164.972 3.197 1.327 5.688 1.96 11.444 2.295 17.36 1.402a33 33 0 0 0 5.03-1.302c1.645-.57 3.293-1.345 5.03-1.575 4.055-.535 8.226 1.978 12.089 2.917 2.991.728 6.081 1.158 9.116 1.673-2.224-1.43-5.894-2.57-8.41-3.656-2.605-1.125-5.294-2.65-7.992-3.502-1.115-.351-2.28-.558-3.452-.474m140.7.23-.166.036c-1.841.418-3.63 1.344-5.369 2.08-4.259 1.807-9.05 3.867-13.685 4.32-4.034.395-9.038-1.51-12.858-2.743-1.528-.493-3.077-1.068-4.684-1.23-3.39-.342-8.853 3.263-13.671 3.251-3.814-.01-9.213-1.757-13.088-2.625-1.575-.352-3.216-.734-4.838-.71-3.331.046-6.66 2.101-9.79 3.129-2.112.693-4.274 1.146-6.449 1.59-7.856 1.602-15.9 2.224-23.83.78-1.182 1.077-2.31 1.757-3.739 2.451 4.672-.874 9.619-.323 14.354-.506 2.753-.107 5.463-.652 8.2-.863 2.96-.416 5.94-.787 8.854-1.463 1.665-.385 3.334-.812 4.963-1.328 2.593-.821 4.793-1.862 7.578-1.693 1.78.109 3.519.692 5.219 1.194 3.964 1.172 8.463 2.787 12.629 2.65 2.274-.074 4.59-.727 6.752-1.408 1.635-.515 3.866-1.677 5.582-1.568 5.629.359 12.817 3.805 18.015 3.626 3.775-.13 8.016-1.288 11.582-2.545 2.243-.79 6.026-2.76 8.278-2.746 3.073.02 9.556 2.822 12.725 3.942 1.473.521 2.989 1.135 4.569 1.189.776.026 1.407-.139 2.118-.44l.124-.056c-2.824-1.61-5.893-2.818-8.835-4.199-2.69-1.264-5.39-2.801-8.202-3.767-.79-.27-1.495-.413-2.339-.347m22.826 3.645c-2.46.452-4.835.629-7.34.616l1.757.552c1.895.517 3.786.821 5.74 1.02.007-.625.127-1.564-.087-2.137zM62.933 158.68c-3.93.304-7.755 1.626-11.67 2.158-2.05.28-4.133.487-6.203.52-1.12.017-2.353-.168-3.453-.05l.072.082-.041-.156.087-.063c.145.24.142.281.426.352.805.203 1.732.238 2.559.336 3.68.435 7.078.45 10.755-.038 2.258-.436 4.208-1.641 6.416-2.07 3.328-.645 9.483 1.704 13.125 2.243-3.187-1.25-8.678-3.311-12.073-3.314m140.431-.04c-1.963.583-3.744 1.68-5.567 2.59-2.365 1.179-4.831 1.756-7.441 2.066 3.532.221 6.182-.16 9.463-1.492 1.206-.49 2.425-1.08 3.715-1.297 3.451.137 9.54 2.951 12.263 2.463l.082-.123.03.143.03-.106c-.94-.477-1.991-.712-2.967-1.114-3.01-1.238-6.263-3.266-9.608-3.13m-71.168 1.29c-1.293.131-2.5.254-3.732.688 2.13-.128 4.391-.328 6.5.055 1.597.289 3.116.902 4.662 1.38 1.424.441 2.923.74 4.402.927 1.078.102 2.133.157 3.215.153-1.209-.449-2.479-.733-3.709-1.12-3.641-1.15-7.433-2.719-11.338-2.084m33.76.478c-1.213.28-2.352.907-3.492 1.398a31 31 0 0 1-3.641 1.287c4.254-.273 7.853-1.687 12.149-.883 2.379.545 4.713 1.148 7.165.741-4.137-.585-7.997-2.236-12.182-2.543m-79.269 1.274c-3.06.214-6.045.616-9.088.945 1.586.205 3.204.267 4.802.276 2.846.026 5.631-.473 8.36-1.273-1.357-.002-2.719-.029-4.074.052m43.778.499c-1.411.08-2.82.161-4.227.306l-.078.194-.128-.012-.037-.13-.094.112c.843.243 1.94-.016 2.827.003 1.371.03 2.743.127 4.111.209q2.429.17 4.85.424c-2.368-1.11-4.633-1.304-7.224-1.106m-98.662 4.997c-.365.082-.966.205-1.165.565-.17.309-.16.69-.167 1.033-.086 3.974.047 7.971.052 11.948.003 2.983-.141 6.01-.057 8.988.012.425.053.9.203 1.303.067.18.175.312.303.453 1.574.479 7.96.162 10.061.16l29.467-.115 155.276-.47 1.473-.004c-.003-7.962.079-15.935-.03-23.895l-136.93.102-37.831-.01c-6.88-.006-13.778.06-20.655-.058m149.038 27.88q-4.902.269-9.768.916c-1.925.24-3.849.575-5.785.715-4.523.328-9.066-.049-13.558.755a35 35 0 0 0 2.734.276c4.734.397 9.351.808 14.092.251 4.906-.577 9.758-1.987 14.617-2.893-.78-.035-1.552-.075-2.332-.02m-63.32.135c-4.267.404-8.522.834-12.806.99-3.044.11-6.115-.044-9.151.157 4.53.63 9.027 1.002 13.603.824q2.956-.12 5.89-.49c2.195-.263 4.446-.678 6.66-.48 1.892.169 3.73.739 5.552 1.249 6.27 1.896 12.865 4.252 19.464 2.583-1.982-.664-4.031-.601-6.093-.772q-2.078-.187-4.123-.602a76 76 0 0 1-6.6-1.67c-2.176-.648-4.387-1.418-6.634-1.757-1.825-.274-3.924-.246-5.763-.032m31.07.119c-4.411.138-8.95.091-13.315.774q3.087.354 6.188.538 1.708.043 3.416-.018 1.708-.06 3.409-.225 1.7-.163 3.388-.43 1.689-.266 3.357-.634c-2.131-.161-4.307-.065-6.443-.005m-65.191.114c-4.248.534-8.477 1.715-12.784 1.628-4.813-.097-9.334-1.814-14.204-1.07 3.909.496 7.66 1.763 11.555 2.262 3.647.385 7.165.112 10.747-.614 1.974-.4 3.926-.895 5.944-1.021 3.404-.212 6.835.628 10.24.798-3.447-1.302-7.78-2.598-11.498-1.983m132.126.506c-2.645.208-5.333.37-7.947.842-2.579.466-5.087 1.333-7.727 1.421-2.053.069-4.072-.329-6.097-.612-2.759-.385-5.522-.494-8.286-.106 2.744.434 5.406 1.155 8.176 1.51 2.709.265 5.581.49 8.276.05 2.525-.414 4.93-1.15 7.496-1.382 4.963-.45 9.588-.267 14.54-1.24-2.707-.28-5.721-.753-8.431-.483m-172.627.368c-1.24.156-2.485.379-3.687.718 2.573.256 5.153.492 7.722.787 2.614.301 5.066.754 7.717.561q1.675-.227 3.343-.493c-2.32-.526-13.046-1.835-15.096-1.573m43.259 2.622c-.97.13-1.919.301-2.876.508 2.785.137 5.417.217 8.183.653l2.247.389c-2.541-1.02-4.747-1.893-7.554-1.55m-22.138.111c4.34 1.702 9.573 2.841 14.2 1.773l.116-.108c-.72-.526-12.69-1.618-14.316-1.665m-31.204.145c-.54.043-1.381.002-1.756.453-.028.035-.05.075-.074.112.086.255.102.289.362.411.85.4 12.582.242 14.053.086a18 18 0 0 0 2.08-.402c-4.212-.198-10.74-1.166-14.665-.66m78.705.014c-2.865.27-5.755.62-8.633.672-2.886.052-5.768-.162-8.654-.104 2.52.778 4.99 1.329 7.634 1.428 3.078.115 6.08-.398 9.13-.704 2.564-.259 5.209-.311 7.778-.097 1.496.1 2.968.308 4.418.698 3.576.962 7.18 2.773 10.926 1.78-3.92-.482-7.381-1.845-11.159-2.824-3.518-.912-7.803-1.238-11.44-.849m62.695-.012c-2.85.261-5.166 1.177-7.815 2.167-.786.293-14.153-1.823-16.46-2.049 3.64 1.658 13.131 2.704 17.126 2.346 2.29-.206 4.475-.933 6.798-.915 4.25.033 8.642.817 12.983 1.008 5.045.103 10.09-.142 15.129-.042 2.002.04 3.804.698 5.75.861 1.823.154 3.75-.31 5.592-.33-5.425-1.754-14.093-.73-20.11-1.194-5.531-.425-13.747-2.45-18.993-1.851m50.74 0c-4.264.481-8.504.433-12.765.802.841.108 1.688.2 2.524.349 2.446.444 8.773.86 10.897-.526.196-.128.275-.203.37-.409-.066-.171-.025-.19-.176-.243-.263-.093-.58-.011-.85.026m-171.85.634c2.635.852 10.932 2.141 13.449 1.892-2.81-1.4-10.315-2.254-13.449-1.892m92.85 1.476-.18.028c-1.675.273-3.334.89-4.948 1.4-2.585.818-5.22 1.656-7.865 2.25-6.876 1.545-14.371.99-21.382.905 1.659.614 3.43.936 5.157 1.31 5.766 1.245 11.668 2.186 17.492.734 4.989-1.243 9.794-3.146 15.015-3.044 4.433.397 8.344 2.026 12.558 3.269 6.053 1.785 14.412 2.74 20.234.075-4.524-.33-8.894-.151-13.37-1.088q-3.907-.85-7.706-2.096c-4.818-1.62-9.805-4.145-15.005-3.743m-63.115.143c-3.503.239-6.844 1.02-10.312 1.435-2.572.309-5.157.268-7.74.409 3.856.9 7.712 1.189 11.658.936 3.174-.202 6.323-.588 9.511-.39 4.58.283 8.997 1.835 13.318 3.264 3.525 1.24 7.41 2.734 11.174 2.935 1.466.078 2.953-.065 4.413-.187-2.758-.914-5.554-1.708-8.302-2.65-4.332-1.483-8.595-2.989-13.007-4.24-1.816-.514-3.641-1.09-5.512-1.367-1.707-.253-3.482-.269-5.201-.145m-45.936.129c2.772 1.103 5.308 1.101 8.189.589l.228-.104c-.768-.45-7.297-.559-8.417-.485m187.746.467c-1.126.281-2.251.561-3.4.74-1.435.223-6.789.472-7.659 1.071.294.173.478.165.808.189 3.005.447 6.717.968 9.512-.547.255-.38.808-.993.839-1.433zm-173.453.397c-3.578.45-6.812 1.834-10.289 2.618q-1.672.38-3.374.599c-.96.119-2.001.13-2.926.405.364.482 1.195.624 1.758.704q.636.088 1.275.14t1.28.07 1.283 0 1.28-.073 1.275-.142 1.264-.213 1.252-.283 1.233-.351c1.97-.61 3.83-1.451 5.933-1.403 1.776.04 3.54.523 5.244.989 7.204 1.967 12.213 4.916 19.982 3.024 7.1-1.92 10.607-1.679 17.706-1.011-3.769-1.234-7.858-2.294-11.848-2.077-2.06.112-4.136.518-6.168.862-2.386.404-4.84.883-7.267.61-1.685-.19-3.319-.785-4.907-1.354-4.656-1.67-8.914-3.505-13.986-3.114m61.393.382c-3.427.225-6.841.44-10.276.487 2.975.871 5.778 1.372 8.9.989 2.58-.254 7.229-.395 9.568-.949l-.103-.028.126.02-.211.03.021-.12c-2.623-.323-5.381-.644-8.025-.429m61.578.123c-2.213.162-4.219.634-6.252 1.534 2.29.151 4.432-.364 6.688-.338 4.356.05 8.744.582 13.109.738 2.681.095 5.355-.221 8.03-.005 5.666.457 10.966 2.436 16.554 3.13 1.775.221 3.569.193 5.353.14 1.946-.173 3.559-.359 5.098-1.686l.127-.107c-3.71.014-7.453-.044-11.09-.851-2.754-.611-5.395-1.648-8.214-1.958-1.543-.17-3.17-.232-4.715-.056-2.588.295-4.966.983-7.608.926-5.719-.122-11.317-1.621-17.08-1.467m-142.208.604c.343.484.697.881 1.13 1.285a47 47 0 0 0 3.625-.717l.315-.16c-.888-.457-3.968-.43-5.07-.408m145.26 2.356c2.773.528 5.734 1.336 8.555.81-.615-.46-7.522-.913-8.555-.81m-126.774.269c-1.743.297-3.414.884-5.121 1.333-1.687.445-3.466.702-5.206.811a17 17 0 0 1-2.383.003c-1.123-.09-2.88-.651-3.918-.26-.111.33-.01.715.143 1.028.26.535.74.881 1.3 1.055 3.308 1.028 11.806-3.4 15.557-3.123 2.162.16 4.374 1.2 6.375 1.98 3.871 1.51 11.334 4.57 15.176 4.765 3.083.366 6.272.259 9.374.265 3.663.007 7.598.183 11.215-.378-3.385-.413-6.781-.851-10.18-1.142-3.009-.259-6.066-.357-9.059-.755-3.312-.44-6.702-1.17-9.958-1.922-3.585-.83-9.892-4.175-13.315-3.66M192.22 207.3c-4.968.45-9.209 2.197-13.726 4.156 2.943.484 5.215.118 8.078-.663 4.917-1.35 9.717-2.27 14.796-2.757-3.02-.497-6.075-1.087-9.148-.736m-50.375.377c-3.541.29-6.309 1.138-9.687 2.089 3.868-.206 7.614-1.289 11.48-1.25 8.546.086 16.545 2.933 24.956 3.923 3.109.462 6.684.79 9.78.216l-18.71-3.015c-4.917-.788-13.047-2.45-17.819-1.963m-54.999 1.126c-3.391.222-6.7.656-9.992 1.52 1.755.034 3.515.076 5.27.017 3.876-.129 7.608-.445 11.469.205 3.22.646 6.139 1.084 9.44.913-5.513-1.547-10.362-3.006-16.187-2.655m121.717.622c-3.1.246-5.962 1.317-9.004 1.852 4.232 1.243 6.599.876 10.841.104q2.311-.364 4.644-.538c1.33-.102 3.643.018 4.814-.402l.093-.161c-.543-.48-2.212-.138-2.943-.175-1.824-.093-3.611-.587-5.435-.71-.874-.059-1.78-.05-2.655 0-.119.007-.237.02-.355.03m-159.593.129c-2.797.087-5.28.527-7.931 1.444 2.033-.07 4.117-.081 6.136-.356 2.699-.172 5.4-.18 8.095-.344-2.104-.347-4.163-.696-6.3-.744m68.936.845c8.38 3.627 16.266 3.164 24.937 1.255l1.864-.337c-4.609-.189-9.185.167-13.79.06-4.351-.102-8.673-.665-13.011-.978m-3.829 1.512-2.583.464c1.652.468 2.955 1.424 4.49 2.141 4.1 1.915 9.083 3.272 13.609 3.244.836-.022 1.677-.027 2.51-.089-3.74-1.309-7.646-2.056-11.397-3.323-1.564-.528-5.333-2.718-6.629-2.437m-62.832.14c-4.032.254-7.961 1.468-11.993 1.662.907.489 1.688.76 2.716.895 3.814.079 8.338-.603 11.697-2.51-.809-.043-1.61-.09-2.42-.048m137.826 0c-1.911.168-3.828.418-5.653 1.036-2.502.847-4.887 2.566-7.606 2.57-4.21.006-8.335-1.39-12.385-2.38-3.4-.831-6.968-1.3-10.474-1.095-4.799.28-9.329 1.828-14.003 2.788-3.005.617-6.096.828-9.16.887 8.57 2.763 16.205-1.39 24.798-1.332 2.512.082 4.957.265 7.437.685 4.274.725 8.71 1.945 13.059 1.806 3.024-.096 5.046-1.395 7.768-2.454 3.283-1.277 7.389-1.475 10.861-1.04 2.836.356 5.51 1.249 8.209 2.14 3.918 1.294 7.127 2.56 11.09.637-6.84-.398-12.895-3.644-19.929-4.256-1.294-.112-2.726-.198-4.012.007m26.399.249c-2.934.233-5.753.968-8.66 1.321l1.595.244c2.356.106 6.19-.438 8.234-1.558l-.11.087-.101-.15zm-112.03.25c-4.614.353-8.764 2.455-13.026 4.064-2.55.963-5.148 1.778-7.707 2.712 2.424-.227 4.75-.566 7.105-1.213 7.808-2.144 12.675-5.023 20.99-2.285 2.523.831 4.829 2.309 7.29 3.324 8.436 3.165 13.837 3.015 22.142-.266-4.774.713-9.844 1.306-14.634.409-3.392-.636-6.914-2.101-10.102-3.415-3.865-1.594-7.732-3.696-12.058-3.33m-47.915 1.072c-2.279.87-4.58 1.906-6.974 2.405-1.343.28-2.7.334-4.05.538l1.677.59c2.928.736 5.309.7 7.947-.886.79-.474 1.867-1.247 2.092-2.193.046-.195-.022-.246-.104-.413a1.4 1.4 0 0 0-.587-.04m30.57 1.557c-3.507.191-6.987.405-10.478.81.668.069 1.335.145 2.007.16 3.454.239 6.894-.313 10.276-.99-.595-.006-1.214-.047-1.805.02m22.869 2.407c2.022 4.089 6.888 7.097 11.072 8.503 3.684 1.239 7.244 1.81 11.11 1.357a.9.9 0 0 0-.404-.21c-2.733-.686-5.445-1.21-8.089-2.23q-1.901-.731-3.73-1.629-1.829-.897-3.57-1.954c-1.502-.895-5.038-3.447-6.39-3.837m62.465 1.925c.416.748 1.067 1.292 1.905 1.507.903.232 1.736.07 2.57-.304l.192-.339c-.38-.24-1.445-.078-1.956-.151-.919-.13-1.83-.427-2.71-.713m-94.964 10.353q-2.044 1.89-4.012 3.86l-.116-.025.086.147a8 8 0 0 0 .954-.338c1.37-.627 3.44-1.798 4.157-3.162l-.025-.308c-.372-.239-.609-.175-1.044-.174m104.141.923c-1.278.151-2.546.534-3.54 1.388l-.071.235c.356.236.783.141 1.187.06q.168-.034.334-.07c1.372-.245 2.741-.331 4.116-.522-.664-.576-1.112-1.002-2.026-1.091m-80.124 2.557c-1.03.664-1.825 1.489-2.322 2.626l.053.247c.106-.032.253-.064.353-.109.698-.545 2.357-1.74 2.486-2.624-.229-.192-.282-.137-.57-.14m54.547.725c.785 1.076 1.875 2.946 3.143 3.445-.314-1.377-.896-2.199-2.1-2.957-.34-.214-.649-.39-1.043-.488m-29.691.354c-.564.075-1.132.136-1.689.253.788 2.611 2.133 4.556 3.81 6.668l1.651-1.673c.766-.726 2.959-2.434 3.023-3.452.019-.311-.121-.541-.331-.756-1.23-1.26-4.789-1.185-6.418-1.048z"/><path d="M122.456 25.123a3.5 3.5 0 0 1-.6.028c-.03-.04-.065-.076-.092-.118-.666-1.037-1.536-6.177-1.923-7.704l-2.77-10.88c-.445-1.73-.967-3.46-1.351-5.204a2.9 2.9 0 0 1-.048-1.181c.065.016.132.029.195.05.31.1.455.22.583.525.398.95.593 2.103.854 3.104l1.59 6.194 2.381 9.413c.403 1.597.881 3.212 1.2 4.826.071.357.127.597-.019.947m18.102 4.319-.242.017c-.171-.123-.208-.087-.233-.26-.072-.497.294-1.129.51-1.564 2.329-4.72 5.147-9.269 7.709-13.87 1.843-3.308 3.733-7.274 5.766-10.35.286.118.353.146.546.385-.052.836-12.699 23.435-14.056 25.642m-22.833.318a1.6 1.6 0 0 1-.644-.6c-1.093-1.667-2.028-3.498-3.021-5.23l-5.592-9.746-3.54-6.173c-.608-1.061-1.336-2.153-1.818-3.279-.174-.405-.167-.523-.005-.928.069.019.14.031.207.057.316.122.587.652.765.936 2.747 4.383 5.205 9.001 7.808 13.475 1.775 3.052 4.372 7.038 5.807 10.166.238.518.238.79.033 1.322m-.896 6.13q-.086-.032-.171-.068c-1.596-.697-20.522-21.193-23.326-24.22-.717-.775-1.533-1.491-2.218-2.287-.214-.249-.428-.513-.514-.836-.056-.215.112-.373.216-.554.487.23.822.633 1.192 1.015 6.162 6.349 12.007 12.98 18.28 19.227.943.938 6.516 6.355 6.75 7.032.064.185-.135.51-.209.69m24.121-.177c-.181-.097-.256-.186-.391-.338.059-.394.309-.628.569-.924 3.606-4.096 7.602-7.877 11.37-11.825 4.555-4.772 8.961-9.743 13.628-14.398.078.043.197.103.261.16.102.093.214.226.198.37-.03.268-.193.49-.362.689-1.234 1.455-2.715 2.782-4.029 4.179l-8.897 9.472c-2.515 2.641-5.095 5.206-7.632 7.823-1.55 1.599-3.013 3.356-4.714 4.792m25.378-12.049c-.173-.117-.327-.263-.485-.399l-.005-.233c1.273-1.127 2.959-2.008 4.385-2.952 2.437-1.614 4.839-3.347 7.353-4.833.298.17.447.164.544.512-.668.851-10.338 7.05-11.792 7.905m-73.035 1.252c-.148-.003-.277-.004-.416-.062-1.068-.444-2.648-1.674-3.695-2.342-3.24-2.069-6.645-4.054-9.722-6.355-.12-.309-.005-.406.112-.7.952.225 13.507 8.346 13.829 8.922.101.18-.04.358-.108.537m19.72 16.113-.073-.003c-2.407-.076-12.223-4.179-15.096-5.203q-10.508-3.696-21.062-7.255c-2.092-.716-4.243-1.334-6.315-2.092-.4-.146-.884-.326-1.196-.616-.17-.158-.11-.438-.115-.659 1.912.23 42.701 14.325 43.52 14.974.329.26.297.48.337.854m32.083-3.903c-.311-.18-.37-.156-.466-.496.215-.448.802-.79 1.206-1.07 1.83-1.27 3.808-2.335 5.695-3.518l10.732-6.827c.32.026.318.034.552.258l-.026.224c-1.052 1.265-4.139 2.85-5.6 3.791-4.006 2.582-7.97 5.245-12.093 7.638m1.458 3.239c-.25.05-.415.039-.665-.007l-.21-.305.041-.2c.272-.237.538-.351.877-.472 1.05-.377 2.164-.57 3.222-.925l8.279-2.804q9.929-3.336 19.8-6.843c3.163-1.11 6.351-2.149 9.499-3.307.402 0 .45-.014.777.211.033.189.077.186-.025.322-.173.232-.442.332-.702.436-3.514 1.406-7.23 2.503-10.805 3.768q-12.377 4.352-24.805 8.559-2.618.862-5.283 1.567m-33.101-2.741c-.594-.114-15.276-9.171-15.951-9.852-.266-.268-.21-.472-.223-.822.388.035.643.109.987.293 2.57 1.374 5.048 3.124 7.535 4.656 2.526 1.555 5.268 2.972 7.633 4.752.17.376.081.571.019.973m18.942.063a4.4 4.4 0 0 1-1.005-.112c-.084-.131-.097-.137-.154-.31-.333-1.006-.196-4.149.272-5.165.246-.534.587-.698 1.103-.904.377.178.543.415.676.801.413 1.201.618 4.275-.107 5.351-.223.33-.426.286-.785.338m-7.611-.19c-.114.05-.295.134-.414.155-.198.034-.417.019-.585-.094-.356-.24-.466-.65-.53-1.053-.25-1.55-.156-3.827.758-5.132.27-.028.596-.088.845.053.45.256.695.88.797 1.362.347 1.651.075 3.314-.871 4.709M79.26 39.874c-1.479-.033-17.101-2.158-17.66-2.453-.335-.176-.299-.346-.37-.69 1.16-.088 16.612 1.976 17.859 2.33.233.32.18.428.17.813m99.395.079c-.567.09-.884.057-1.406-.189l-.034-.2c.294-.272.394-.297.786-.388 1.674-.386 3.529-.492 5.238-.722l11.565-1.534c.303-.042.666-.125.969-.069.25.046.265.084.426.29l-.06.334-.164-.072.02.157c-1.742.545-3.794.639-5.613.884q-5.859.794-11.727 1.51m-78.161 2.613c-.04.014-.077.033-.117.044-.743.208-16.947-1.876-17.503-2.234l-.089-.77c1.84.02 3.794.442 5.629.675l11.83 1.524c.268.26.217.398.25.76m46.038 1.867c-.15.008-.22-.031-.357-.086-.072-.314-.15-.347.011-.641.393-.22.803-.307 1.244-.38 3.819-.633 7.707-1 11.546-1.513l14.03-2.015c.107-.007.236.024.343.038.173.308.188.292.107.632-.298.192-.599.262-.943.333-.844.173-1.733.17-2.588.302l-6.623 1.03c-5.557.821-11.182 1.767-16.77 2.3m-35.178-.213c-2.135-.196-6.332-.477-8.222-1.032-.215-.334-.152-.542-.144-.932 2.395.2 6.074.512 8.33 1.08.197.324.092.517.036.884m89.299 6.672c-3.701-.048-7.434-.376-11.131-.595l-19.37-1.109q-8.78-.456-17.548-1.086c-2.423-.177-5.137-.168-7.51-.676-.245-.289-.218-.43-.26-.8 2.793-.05 5.69.32 8.48.515l16.788 1.15q12.323.633 24.64 1.394c1.712.121 3.82-.124 5.46.363a.7.7 0 0 1 .319.17c.157.131.118.476.132.673m-141.637-.248c-.47.047-1.065.169-1.52.018-.286-.095-.445-.205-.579-.476.586-.659 3.351-.52 4.31-.566q25.023-1.15 50.017-2.816c.337-.034.68-.062 1.019-.069.42-.008.658.149.96.433l-.026.245c-1.218.845-48.714 2.96-54.181 3.23m77.696-1.984-.08-.038zm.989.646c-.238-.013-.428-.078-.653-.156-.166-.3-.142-.36-.114-.707.22.015.41.063.624.116.212.306.167.368.143.746m-5.593-.474-.06.06-.035-.12.09-.052zm3.826 5.321c-.28.237-.457.512-.852.45-.635-.098-1.258-.704-1.652-1.167.189-.163.119-.114.306-.236q.06-.04.121-.077c.144-1.015-.023-2.104-.104-3.123.115-.117.038-.058.285-.136q.107-.034.215-.066c-.086-.34-.123-.512-.04-.863.145.051.267.128.4.204.055.24.1.409.237.614.193.04.311.066.508.014.226-.059.35-.454.458-.66l.21-.035.257.212c-.038.317-.189.402-.396.631.426 1.107.104 1.978.322 3.03a1.1 1.1 0 0 1 .458.133c-.27.25-.583.493-.683.861-.02.071-.034.143-.05.215m-2.983-4.531-.223.069.098-.161.168-.053zm3.856.321-.227.167.065-.318.232-.098zm-5.36.055-.178.028.031-.14.18-.03zm6.177 1.031-.354-.107c-.196-.294-.134-.415-.107-.76l.466.168c.163.318.077.365-.005.7m-4.753-.001-.109.015.019-.117.085-.016zm-1.69.383-.073-.037zm5.588.082-.08.056-.043-.152.073-.038zm-4.767.408-.1.014.039-.116.081-.022zm5.674.778-.495-.035c-.222-.257-.175-.379-.189-.71.327.05.462.021.699.262zm-4.828.077-.227.057.046-.166.18-.037zm5.535.764c-.294-.047-.259-.046-.465-.214l-.025-.506c.294.053.429-.005.608.249zm-6.38.363-.043.013-.072-.114.092-.057zm5.562.041-.19.141.031-.282.207-.098zm-1.002.788-.24.032.132-.202.189-.007zm-3.477.085-.193.14-.013-.284.197-.066zm1.354.591-.099-.089.03-.007zm3.904.497c-.432-.196-.786-.378-1.069-.764.18.018.449.018.613.088.317.135.342.38.456.675m-24.957 2.558c-.066-.03-.139-.048-.198-.09-.252-.174-.256-.321-.276-.594.439-.929 2.18-1.834 3.037-2.413.254.011.174-.022.376.088.182.1.147.142.201.328-.269.853-2.426 2.136-3.14 2.681m18.682-2.684h-.013l-.087-.114zm1.602.003-.127-.105zm2.93-.103-.108-.039zm1.407 5.685-.105-.083.035-.001zm.536-.025-.167-.063zm0 0 .053.182zm.587.965c-.278.062-.267.112-.533-.028l-.072-.678c.067.032.137.06.202.097.332.191.32.252.403.609m73.558 14.375a1.9 1.9 0 0 1-.68-.117c-2.008-.743-20.504-9.117-21.166-9.7-.298-.263-.239-.404-.251-.78.282.001.558.04.823.14 1.636.617 20.641 9.29 21.075 9.698.286.271.218.388.199.759m-166.694-.675c-.224.069-.325.083-.551.02l-.128-.264.114-.255c1.364-1.064 4.85-2.143 6.557-2.808q6.836-2.701 13.756-5.175l.321-.034c.265.134.286.132.414.396-.014.032-.025.067-.044.097-.137.212-.394.316-.618.413-2.506 1.089-5.16 1.97-7.717 2.943zm46.358 2.395c-.292-.17-.431-.202-.582-.51.169-.829 9.18-8.802 10.529-9.922.22.082.367.183.552.327l.01.249c-.942 1.24-2.408 2.367-3.554 3.434-2.302 2.144-4.597 4.344-6.956 6.422m-26.293 2.965-.026.002c-.34-.008-.55.034-.81-.195.143-.531.572-.784 1.002-1.079 2.352-1.613 5-2.927 7.46-4.376l12.198-7.336q.034-.004.069-.006c.4 0 .434-.017.72.247l-.064.248c-1.071 1.2-4.936 3.148-6.536 4.112-4.659 2.807-9.302 5.665-14.013 8.382m123.522-.148c-1.198-.478-18.063-11.686-18.512-12.278l.065-.43c.372-.004.633.022.971.192 1.378.698 2.665 1.671 3.952 2.528l5.67 3.752c2.513 1.684 5.683 3.464 7.922 5.42.135.378.06.447-.067.816m-22.005.325c-.265-.055-.538-.113-.77-.258-.998-.623-10.69-11.417-10.798-12.076-.026-.164.22-.39.322-.519.146.04.28.065.398.169.91.799 1.69 1.936 2.514 2.843q3.13 3.395 6.186 6.858c.65.729 1.55 1.505 2.07 2.327.189.297.163.336.078.656m-65.515 5.162c-.307-.136-.47-.153-.663-.444.644-1.738 1.86-3.499 2.772-5.133 2.291-4.109 4.575-8.365 7.171-12.29.273.174.337.214.492.493-.037.334-.138.558-.291.853-1.508 2.903-3.302 5.706-4.927 8.55-1.512 2.65-2.876 5.423-4.554 7.971m51.748.641c-.046-.013-.093-.023-.136-.041-.226-.09-.312-.199-.442-.404-.877-1.386-1.461-3.171-2.136-4.682l-4.121-9.113c-.333-.747-1.095-1.999-.801-2.764l.426.11c.864.858 6.241 13.11 7.042 15.168.24.618.446 1.09.168 1.726m-17.191-13.989-.116.067-.012-.237.137-.06zm.295 2.006-.033-.058zm-1.043 3.777-.046.02-.064-.11.078-.04zm3.359.094-.192.03.108-.17.17-.038zm-5.015.024-.057.035.026-.09.054-.015zm-1.712.285-.088.003.025-.102.078-.02zm1.108.389-.097-.04zm3.044.193c-.088.009-.174-.022-.26-.039l.196-.122.265.009zm1.902-.059-.2.151.054-.276.23-.12zm1.477.028-.206.074.074-.21.278-.07zm-4.37 5.881c-.06.059-.153.07-.23.099-.252-.125-.415-.198-.699-.208a1.8 1.8 0 0 1-.505-.067c-.116-1.063-.23-2.33-.15-3.395.021-.287.07-.453.025-.744a2.3 2.3 0 0 1-.023-.666c.487-.243.701-.39.882-.923l.034-.105.07.048-.052.145c.438.332 1.055.421 1.544.748.402.886.251 4.274-.066 5.23zm5.653-5.772-.265.115.146-.22.282-.112zm-1.957 1.125c-.204-.13-.32-.213-.445-.422l.124-.443.357.179c.146.315.077.35-.036.685m-6.238-.44-.043.02-.069-.11.101-.064zm4.714.01-.202.043.029-.153.2-.045zm2.731.685-.269-.092c-.064-.312.092-.524.212-.812l.324.188c.046.36-.068.422-.267.716m-7.283-.056-.038-.076zm7.771 1.023-.124-.165c.056-.461.31-.78.561-1.161.168.129.166.176.249.362-.092.428-.39.666-.686.964m-2.49-.71-.249.083.14-.21.23-.072zm-5.737.195-.256.038-.04-.18.321-.045zm6.936.75-.395-.062c-.195-.27-.11-.338-.07-.656.24.03.356.049.544.203zm-2.138-.149c-.16.022-.053.015-.319-.029l.092-.38c.162.071.292.153.44.248zm-4.138.392-.084.01.007-.102.051-.003zm7.073.631c-.174-.23-.208-.227-.244-.53l.324-.403.234.307c-.027.337-.09.364-.314.626m-1.875-.203-.248.084.094-.207c.2-.097.085-.061.349-.085zm-1.522.232-.147-.044zm2.677.846-.384-.218c-.105-.308-.02-.325.108-.608l.37.137c.119.332.026.373-.094.69m-6.839-.486-.111-.042zm4.898.345-.084.044-.043-.134.135-.085zm-4.232.254-.025-.078zm7.117.644c-.237-.22-.296-.24-.358-.552l.31-.414c.252.162.274.159.372.438zm-1.977.302c-.237-.189-.29-.173-.38-.477l.305-.418.294.2c.078.328-.058.416-.22.695m-1.69-.278-.102.004.029-.112.092-.027zm-4.035-.009-.167-.05.03-.014zm6.527.932-.147-.156c-.018-.341.207-.486.417-.743.103.096.177.21.26.323-.096.338-.257.376-.53.576m2.15-.174c-.17-.044-.265-.064-.396-.191-.148-.144-.075-.352-.07-.546l.514.114.096.191zm-3.856.059c-.095.009-.19-.02-.284-.036l.222-.116.258.006zm3.002.932-.404-.078c-.218-.272-.149-.32-.138-.654.298.066.38.04.6.263zm-2.249-.005c-.179-.09-.099-.024-.226-.214l.522-.336c.047.195.024.244-.031.43zm-4.96-.245-.083-.042zm3.383.095-.22.19.063-.276.218-.127zm-1.775.034-.094-.038zm4.586.998c-.231-.026-.308-.069-.48-.224l.05-.504c.262.076.297.056.494.264zm1.925.041c-.249-.047-.347-.092-.533-.264l-.01-.51.456.125c.192.274.119.328.087.648m-3.972-.107-.274.055.136-.212.229-.065zm-3.369-.058-.112-.038zm1.826.078-.164.037.02-.138.216-.056zm4.331.592c-.182.115-.08.09-.31.062l.163-.219c.192-.113.086-.09.321-.056zm-1.82.059-.19.17.062-.275.234-.13zm3.511.051-.191.13.04-.277c.072-.065.166-.101.252-.147zm-5.257.133-.243.054.13-.192.23-.052zm-1.566.194-.087-.005.007-.102.096-.016zm6.082.335-.299.072.125-.228.275-.071zm-1.892.088-.231.079.126-.203.217-.08zm-1.765.131-.23.058.144-.193.212-.08zm-1.595.19-.095-.093.026-.006zm-1.409.151-.088-.037zm5.751.29-.225.047.13-.186.242-.09zm-1.805.048-.067.037-.045-.128.09-.053zm-1.775.119-.034.007-.012-.081.048-.008zm-1.279.322-.137-.07zm2.186.217-.1.01.03-.119.08-.021zm3.656.033c-.195.124-.086.099-.33.06l-.034-.414c.244.019.354.008.563.145zm-1.809.042-.15.086-.034-.185.167-.124zM35.03 101.05l-.3.007c-.205-.172-.191-.096-.222-.395.81-1.02 14.018-8.298 16.41-9.666l.519.19.058.24c-.214.344-.482.552-.816.775-2.32 1.55-5.206 3-7.659 4.406-2.58 1.48-5.25 3.29-7.99 4.442m99.98-9.711-.089-.076zm1.98.159h-.057l-.04-.1.11-.011zm2.103-.004-.167.098-.038-.209.124-.045zm1.62.207c-.118.09-.036.04-.27.1l.16-.243.138-.088.177.044zm-2.743.512-.156.016-.027-.116.19-.042zm1.602.208-.168-.008-.007-.151.188-.036zm-.35 5.056-.001-.21c.003-.517.118-.663.478-1.016-.055.495-.148.848-.478 1.226m-5.891 10.581-.223.133.024-.295.194-.054zm-1.727.057-.175.103-.015-.21.163-.1zm3.48-.002-.16.1-.014-.206.167-.107zm1.732.132c-.206.078-.083.05-.375.04l-.084-.458c.239.034.349.057.57.169zm3.794.416c-.315-.159-.396-.111-.523-.456l.22-.405c.221.108.311.166.438.379zm2.348-.553-.161.11.009-.209.152-.112zm-12.524.051-.142-.05.03-.012zm8.587.35-.405.095c-.355-.167-.356-.293-.524-.637l.543-.006c.31.177.278.202.387.548m2.862.198c-.17.096-.069.07-.31.032l.178-.2c.195-.105.088-.08.326-.061zm2.338.371-.43-.131c-.217-.27-.144-.315-.127-.646.34.073.422.037.627.312zm-11.89-.229c-.235.093-.107.076-.385.028l.15-.211c.185-.091.078-.069.326-.027zm1.869.035-.337.052.057-.186.336-.06zm1.812.074c-.185.11-.082.087-.317.047l.142-.214c.205-.108.092-.085.342-.049zm1.898.413c-.195-.01-.305-.008-.472-.123-.176-.122-.13-.336-.152-.536.336.041.405-.007.662.233zm2.045-.033-.465.025c-.282-.183-.274-.342-.382-.647.215.003.409-.02.604.085.161.086.189.371.243.537m1.385.037c-.076.059-.181.094-.269.134l-.014-.26.243-.113zm1.908.48a1.4 1.4 0 0 1-.462-.415l.107-.37c.29.114.342.08.513.357zm1.684.086a1 1 0 0 1-.477-.236l-.052-.526.426.129c.206.268.131.311.103.633m-13.472-.296-.239.075.117-.175.15-.06zm1.773-.029-.18.11-.003-.213.135-.08zm1.856.09-.274.068.13-.21.245-.078zm3.838.462-.436-.063c-.26-.228-.214-.31-.255-.659l.579.084c.204.268.152.297.112.638m1.834.153-.413-.102c-.252-.264-.202-.296-.2-.667.19.038.304.059.46.18.181.141.131.374.153.59m1.763.217c-.222-.039-.318-.094-.493-.234l-.046-.493c.26.077.392.12.574.324zm1.669-.23-.222.216-.129-.08.101-.306c.155-.12.06-.081.297-.076zm-11.859.142-.257.034.1-.188.264-.064zm1.855.091-.185.145.023-.277.217-.1zm1.752.085c-.232.075-.108.064-.373.01l.14-.219c.207-.108.093-.085.345-.048zm3.987.363c-.085 0-.214.005-.294-.019-.331-.096-.368-.352-.494-.634l.495.017c.278.222.224.301.293.636m1.828.332c-.072-.015-.352-.07-.41-.102-.284-.159-.208-.386-.233-.666.301.067.377.05.615.262zm1.604.172c-.264-.144-.327-.158-.468-.417l.145-.385.348.207c.144.302.075.294-.025.595m-11.77-.375-.154.077-.058-.19.12-.038zm1.716.112-.126.084-.036-.183.178-.107zm1.828.423c-.192-.058-.28-.12-.439-.234l-.012-.472c.23.058.323.117.491.282zm5.63.507c-.173-.041-.269-.058-.4-.187-.145-.142-.065-.357-.054-.548.3.089.367.051.56.314zm2.36 1.24c-.098-.047-.162-.137-.236-.215.089-.436.699-.767.952-1.165a8 8 0 0 1 .427-.602c.112.061.185.141.276.23-.318.61-.919.963-1.288 1.538q-.067.105-.131.214m-10.548-1.471-.171.127-.002-.278.206-.08zm10.057.391c-.303-.059-.385-.033-.618-.248l-.005-.522.395.106c.264.26.217.287.227.664m-8.515-.3c-.053-.017-.074-.082-.107-.126l.165-.007zm-.559.598-.143.13-.012-.229.15-.086zm-1.746.114-.127.087-.029-.182.168-.09zm9.923.467-.469-.122c-.199-.273-.132-.332-.114-.657.069.016.333.072.388.105.275.167.185.396.195.673m3.095.016-.293.076.15-.218.252-.094zm-12.14.273-.148.117.002-.213.16-.109zm-1.502.172-.075-.038zm11.138.186-.285.072.13-.22.305-.113zm1.877.457a1 1 0 0 1-.4-.196c-.18-.142-.13-.321-.152-.538.287.063.343.042.57.248zm-10.517.011c-.178.167-.073.126-.314.126l.069-.3c.155-.13.06-.09.302-.079zm-1.83.117-.18.053.097-.163.17-.046zm9.589.27-.282.09.169-.254.217-.02zm1.916.344-.472-.127-.104-.214.155-.388c.232.083.337.144.5.33zm1.666-.021-.387-.077c-.214-.268-.138-.322-.117-.65l.439.131c.192.271.117.285.065.596m-12.201.076c-.13.052-.248.055-.385.069l.165-.241c.175-.101.073-.074.316-.042zm-1.57.307-.107-.045zm11.092.192-.314.069.143-.226.222-.038zm1.931.355c-.186-.05-.316-.081-.47-.203-.173-.136-.116-.353-.13-.56.296.05.373.049.598.239zm1.256-.333-.242-.06.175-.13c.216-.045.111-.056.314.038zm-11.659.742c-.292-.107-.405-.086-.58-.353l.115-.445c.277.12.356.143.536.379zm-1.802-.286-.155.138-.008-.211.163-.092zm11.126.271-.287.12-.141-.06.183-.222c.207-.122.092-.096.35-.06zm-1.844.129-.195.017.109-.171.176-.053zm3.565-.016c-.187.116-.155.148-.385.098l-.072-.49c.255.03.357.047.589.175zm-12.002.499c-.224.143-.1.11-.372.096l-.014-.494c.239.042.306.061.517.2zm-1.659.067-.072-.035zm10.995.181c-.162.099-.063.061-.312.07l.168-.226c.183-.116.08-.093.313-.046zm2 .192c-.312-.017-.414-.004-.673-.168l-.069-.38c.26-.002.398.013.63.13zm1.368-.173-.166.008.077-.159.191-.056zm-11.923.62-.313.074.156-.221.265-.097zm-1.627.124-.27.067.102-.221.24-.038zm11.009.002c-.246.108-.117.087-.388.059l-.037-.463c.232.037.312.056.522.18zm2.038.171-.382.067c-.28-.16-.256-.32-.347-.615.208.008.383-.009.566.109.145.094.13.28.163.439m-3.819-.16-.172.042.077-.13.167-.045zm2.775 1.069a1.05 1.05 0 0 1-.506-.257l-.012-.461c.277.07.332.077.544.285zm-11.161-.226c-.207.115-.093.09-.349.053l.093-.215c.155-.067.239-.075.405-.086zm9.395-.005-.622-.021-.127-.206.201-.116c.322.058.326.096.548.343m3.41.011-.275.044.121-.208.234-.034zm-14.56.207-.045-.122zm2.718.983-.29-.095c-.257-.3-.193-.339-.162-.74.284.115.353.135.539.373zm7.353-.454-.155.04.085-.182.14-.018zm1.942.286c-.083 0-.201.006-.279-.017-.327-.095-.385-.35-.528-.624.329.009.451-.038.731.16zm1.824.095-.408-.102c-.25-.249-.17-.334-.177-.673.251.051.363.102.557.27zm-12.929-.205-.185.041.042-.146.184-.038zm10.169.941-.495-.053c-.266-.257-.208-.318-.223-.694.216.034.387.043.567.18.162.124.127.376.151.567m2.012-.06c-.31.06-.366.082-.657-.03l-.212-.49c.343-.007.464-.03.763.127zm1.552-.165c-.195.1-.077.06-.365.076l.114-.237c.154-.076.222-.075.389-.08zm-12.784.253c-.195.113-.087.092-.326.042l.091-.214c.245-.106.113-.088.397-.036zm-1.63.002-.084-.077zm9.868.619-.245-.023.107-.233.14-.047.14.074zm1.993.23c-.328-.04-.421-.042-.685-.232l-.068-.514.515.073c.268.237.21.312.238.673m1.865.121c-.262.048-.36.038-.6-.077-.186-.297-.147-.479-.124-.814.253.008.431.074.665.165.158.324.125.365.059.725m-12.903-.216-.114.072.077-.128.153-.058zm1.598.072-.22.171.09-.296c.124-.132.045-.074.25-.151zm8.288.894-.475-.084-.11-.206.17-.463c.327.11.387.046.549.37zm2.134.146-.468-.153c-.267-.294-.226-.331-.237-.734.194.024.387.072.578.11.203.31.15.415.127.776m1.598-.367c-.21.101-.178.129-.422.069l.172-.223c.189-.106.073-.063.358-.086zm-12.738.278-.159.088-.012-.192.15-.084zm1.319.079-.206.07.115-.198.227-.076zm9.208.547c-.331-.022-.633-.014-.924-.191l.088-.289.127-.064c.361.142.476.252.709.544m1.469.201a2.5 2.5 0 0 1-.518-.215c-.085-.322-.044-.354.083-.668.163.052.322.133.479.202.115.315.043.369-.044.68m-3.797-.404-.036-.102zm-14.741 5.628c-.294-.31-.33-.567-.378-.987-.085-.742-.09-1.384.383-1.987.181.108.252.151.308.367.186.72.054 1.978-.314 2.607m2.863-.009c-.186-.1-.37-.2-.524-.349a.96.96 0 0 1-.3-.832c.065-.472.394-.748.746-1.019.116.058.202.098.314.174.267.182.437.427.446.76.014.531-.33.919-.682 1.266m2.778.027c-.222-.099-.3-.19-.463-.364-.208-.677.023-1.157.276-1.794l.403.194c.153.199.23.318.27.573.076.499-.217 1.001-.486 1.391m2.982-1.096c-.138.021-.052.019-.257-.04l-.259-1.053c.175.064.346.15.515.228.166.35.077.493 0 .865m-21.928 1.662c-.198-.143-.447-.31-.551-.54-.273-.605.03-1.39.2-1.984l.13.212c.447.757.423 1.484.221 2.312m10.693-.297-.192.032c-.257-.158-.3-.19-.374-.505-.153-.647.096-1.298.445-1.824.03.007.06.01.09.02.278.103.434.193.538.49.201.572-.234 1.316-.507 1.787m-18.962-.396c-.186-.074-.23-.118-.364-.258-.133-.529.027-1.002.148-1.518l.281.166c.285.57.114 1.033-.065 1.61m33.551.546c-.358-.227-.754-.497-.852-.943-.113-.52.204-.928.484-1.323.303.233.638.625.74 1.002.141.526-.08.858-.372 1.264m-17.474.506c-.295-.193-.65-.372-.72-.746-.108-.58.444-1.339.722-1.812.19.088.376.189.562.285.225.334.37.613.297 1.038-.097.562-.411.916-.861 1.235m-10.961-.096-.34.08-.233-.146c-.052-.146-.109-.293-.126-.449-.074-.66.182-1.294.55-1.82.057.034.123.057.172.102.326.299.69.965.63 1.408-.055.413-.362.573-.653.825m8.351.003c-.381-.222-.77-.491-.94-.919-.199-.5-.05-.975.11-1.46.407.123.635.273.828.668.269.55.207 1.155.002 1.71m-19.249-.08c-.218-.151-.462-.356-.543-.618-.151-.491.181-.995.395-1.412.08.025.166.038.241.076a.7.7 0 0 1 .338.407c.15.556-.18 1.072-.431 1.547m3.6.623a6 6 0 0 1-.284-.226c-.325-.28-.547-.545-.52-1 .032-.572.469-1.001.84-1.39.054.032.114.054.162.094.247.203.343.597.365.903.047.624-.176 1.147-.563 1.62m38.657-.272c-.047-.01-.094-.014-.139-.028-.291-.09-.435-.207-.561-.498-.257-.588.032-1.304.307-1.825.17.061.357.123.505.23.233.17.396.5.42.785.043.524-.217.95-.533 1.336m4.139.238c-.349-.05-.587-.13-.79-.432-.361-.536-.122-1.384.032-1.944.295.109.728.276.901.557.298.483-.02 1.312-.144 1.819m16.636-.049c-.2-.038-.393-.095-.589-.148-.196-.184-.316-.3-.422-.554-.212-.517.007-1.147.207-1.626.402.13.632.233.815.635.25.554.178 1.138-.01 1.694m-7.143.594c-.179.001-.427.027-.597-.018a.42.42 0 0 1-.305-.263c-.276-.607.23-1.59.437-2.18.416.337.752.667.816 1.23.052.462-.08.868-.352 1.231m-40.762.125c-.127.058-.245.053-.382.063l-.167-.204c-.034-.8.135-1.673.487-2.393.099.016.233.033.324.072.267.115.423.28.486.568.142.656-.388 1.402-.748 1.895m52.062-.287c-.166-.252-.38-.537-.453-.832-.136-.55.23-.949.536-1.355.261.278.392.9.398 1.281.008.486-.17.597-.482.906m-30.264.594c-.281-.109-.458-.224-.582-.518-.306-.726.102-1.538.4-2.198.063.034.134.056.191.1.354.275.561.879.564 1.31.003.596-.168.881-.573 1.306m13.373-.575c-.106-.002-.25-.002-.35-.022-.308-.06-.504-.172-.669-.448-.283-.472-.056-1.162.132-1.624.45.172.734.422.919.87.184.445.137.79-.032 1.224m-52.491-.007c-.118-.028-.325-.07-.429-.124-.284-.147-.33-.325-.43-.6.049-.465.188-.74.421-1.141.097.043.154.064.245.132.26.195.406.422.461.743.064.376-.078.681-.268.99m11.025-.002c-.19-.01-.366-.04-.553-.072-.217-.237-.334-.386-.36-.715-.036-.455.153-.754.43-1.09.1.031.168.045.26.11.261.182.455.464.522.775.093.425-.09.659-.3.992m19.576.383c-.107-.05-.258-.118-.351-.185-.305-.22-.324-.328-.4-.673.113-.528.471-.928.783-1.356.026.015.054.026.076.046.278.248.436.735.433 1.099-.005.516-.183.736-.541 1.07m6.148.655c-.126-.058-.264-.115-.377-.197-.212-.153-.268-.472-.3-.715-.096-.708.214-1.41.632-1.961.29.268.367.6.427.977.106.673.031 1.346-.382 1.896m18.543-.588c-.218-.031-.352-.019-.535-.157-.292-.22-.394-.473-.419-.833-.038-.549.209-.934.556-1.326.411.089.515.077.773.429.231.315.287.772.213 1.147-.08.413-.274.506-.588.74m5.515-.21c-.176-.05-.343-.135-.51-.207-.137-.179-.264-.28-.293-.513-.071-.568.225-.962.556-1.39.218.03.223.004.395.123a.98.98 0 0 1 .425.778c.026.574-.191.827-.573 1.209m11.804-.068c-.272-.04-.3-.04-.5-.225-.173-.616.04-1.138.265-1.71.258.128.468.269.566.557.169.493-.11.956-.331 1.378m-44.442.463-.117.021c-.18-.065-.25-.036-.327-.236-.23-.597.153-1.443.341-2.022.322.23.638.692.676 1.096.05.536-.227.796-.573 1.141m5.876.051c-.234-.146-.422-.277-.519-.549-.21-.588.103-1.218.38-1.724.034.019.07.035.101.058.25.185.367.49.425.785.103.524-.12 1-.388 1.43m-39.073.07-.317-.194c-.116-.181-.217-.334-.23-.557-.03-.558.316-1.041.634-1.462.201.252.509.714.56 1.033.084.51-.328.857-.647 1.18m24.454.029a.81.81 0 0 1-.475-.5c-.222-.58.17-1.28.44-1.77.108.044.153.053.244.128.22.18.354.482.37.764.032.567-.25.949-.58 1.377m27.18-.021c-.357-.26-.6-.488-.68-.936.073-.474.378-.786.667-1.152.261.243.505.715.541 1.07.052.503-.212.711-.528 1.018m29.623-.541a5.4 5.4 0 0 1-.501-.563c-.043-.437.098-.633.275-1.029.264.154.302.231.462.496.043.436-.067.697-.235 1.096m-50.534 1.814c-.267-.252-.528-.51-.629-.878-.143-.522.062-.94.337-1.37.186-.29.323-.565.453-.885l.047-.12q.009.02.015.042c.151.785.697 1.621.52 2.431-.089.404-.433.566-.743.78m48.43-.861c-.213-.077-.313-.154-.487-.29-.316-.691.054-1.457.272-2.132.248.128.305.197.434.451.305.6.02 1.406-.22 1.97m-70.517.211c-.203-.08-.276-.143-.418-.318a1.15 1.15 0 0 1-.222-.96c.11-.585.408-.878.873-1.22l.236.094c.125.39.24.806.214 1.218-.036.58-.274.818-.683 1.186m60.027-.155-.108.002h-.179c-.375.003-.603.035-.921-.205-.358-.697-.055-1.335.143-2.048.364.138.775.481.989.81.313.482.198.928.076 1.441m-65.794-.017c-.363-.11-.481-.126-.751-.406-.214-.62.026-1.107.27-1.681.38.18.71.42.828.846.137.502-.076.848-.347 1.241m68.893.586c-.107-.029-.204-.05-.303-.104-.263-.141-.38-.391-.456-.667-.172-.63.143-1.37.481-1.887l.034.019c.353.274.49.641.57 1.082.113.633.063 1.04-.326 1.557m-79.798-.558-.359-.019c-.192-.144-.326-.286-.406-.52-.18-.526-.006-.98.238-1.445.448.26.807.564.95 1.071-.017.418-.177.6-.423.913m35.301.319c-.261-.055-.255-.137-.411-.342-.156-.76.058-1.291.438-1.948.294.279.637.595.665 1.029.033.533-.358.907-.692 1.261m-13.27.191q-.05-.022-.098-.047c-.21-.121-.391-.32-.445-.558-.14-.613.268-1.215.546-1.738.259.233.467.62.515.968.08.572-.178.954-.518 1.375m5.575.01c-.098.02-.258.01-.36.012l-.254-.254c-.204-.79.041-1.418.373-2.136.295.23.665.593.746.974.112.534-.237.982-.505 1.404m29.031-1.149c-.017-.015-.039-.026-.053-.044-.219-.294-.128-.82-.125-1.18l.176.14c.144.349.048.721.002 1.084m6.662.96-.394-.008a.84.84 0 0 1-.202-.5c-.067-.562.152-1.176.523-1.585.256.1.407.188.572.418.18.252.261.57.185.874-.114.458-.33.543-.684.8m30.251 1.502a1.3 1.3 0 0 1-.44-.087c-.087-.12-.174-.234-.213-.38-.175-.672-.224-2.435.105-3.01l.365.144c.572.67.244 1.972.376 2.818.045.284-.035.287-.194.515m-87.766-1.184c-.083.025-.183.06-.27.062-.332.005-.387-.08-.593-.306-.132-.68.096-1.185.425-1.772.168.064.211.072.38.175.261.159.578.476.585.797.009.47-.26.694-.526 1.044m39.597.268c-.274-.127-.538-.364-.62-.67-.143-.532.181-1.044.434-1.483.266.162.629.453.717.767.139.494-.28.998-.53 1.386m37.535.229a1 1 0 0 1-.551-.54c-.166-.409-.028-.732.122-1.12.188-.147.304-.276.426-.478l.124-.21c.32.332.746.718.732 1.22-.016.557-.452.833-.853 1.128m-80.31.229c-.054-.008-.11-.01-.163-.024-.296-.087-.489-.222-.622-.508-.267-.571.064-1.43.285-1.964.072.03.146.055.215.091.39.203.697.666.752 1.092.074.567-.117.886-.467 1.313m16.801-.06c-.224-.248-.465-.542-.517-.883-.085-.558.31-.99.614-1.407q.048.035.094.075c.273.26.437.748.402 1.125-.05.543-.197.757-.593 1.09m76.886-.04a.9.9 0 0 1-.4-.346c-.356-.532-.196-1.36-.071-1.937.266.088.404.18.548.43.303.524.094 1.32-.077 1.853m-42.168.097a2.6 2.6 0 0 1-.333-.6c-.202-.541-.279-.886-.023-1.427l.518-.17.171.053c.136.192.22.351.25.584.084.646-.185 1.082-.583 1.56m-56.488-.176c-.402-.13-.625-.224-.856-.59-.114-.476.023-.88.135-1.348.415.129.565.138.859.47.134.482-.036.99-.138 1.468m16.388.602c-.377-.152-.507-.236-.747-.563-.209-.758.127-1.306.44-1.974.067.036.141.072.198.121.287.253.525.815.566 1.193.058.542-.143.815-.457 1.223m10.334-.381c-.04-.018-.08-.032-.117-.054a.88.88 0 0 1-.415-.709c-.034-.544.274-.981.598-1.382.133.08.318.175.427.292a.93.93 0 0 1 .237.59c0 .578-.347.886-.73 1.263m18.446-.365c-.062-.024-.128-.038-.186-.07-.291-.164-.341-.286-.444-.58.048-.45.264-.744.503-1.119a.97.97 0 0 1 .443.533c.152.473-.074.851-.317 1.236m14.56.367-.252.069c-.254-.063-.407-.077-.545-.334-.264-.494-.107-1.262.067-1.76.198.018.355.06.545.114.182.153.332.272.412.507.172.498-.009.958-.227 1.404m14.704.526c-.28-.19-.607-.415-.712-.754-.182-.58.179-1.264.39-1.798.184.157.264.276.362.496.311.69.238 1.374-.04 2.056m-10.918-1.851c-.324-.142-.309-.194-.47-.516.243.062.375.108.563.274zm27.385.646c-.18.2-.297.33-.55.43-.2-.076-.203-.023-.264-.205-.156-.464-.018-1.003.156-1.44.376.067.67.114.904.456.183.269.168.35.093.638zm9.349.605c-.208-.04-.437-.136-.559-.315-.302-.445-.134-.937-.015-1.414.333.117.45.19.655.477.116.444.011.81-.081 1.252m-67.872.371c-.094-.005-.236-.007-.321-.042a.58.58 0 0 1-.353-.356c-.158-.528.172-1.091.391-1.555.295.216.604.607.653.977.056.417-.139.665-.37.976m37.156.301c-.263-.274-.518-.588-.551-.982-.046-.537.3-.882.631-1.25.259.233.47.659.481 1.012.016.513-.25.852-.562 1.22m23.813-.232c-.257-.206-.507-.443-.548-.788-.061-.505.315-.873.619-1.222l.158.08c.158.244.262.442.277.739.025.513-.18.819-.506 1.19m-99.799.271c-.178-.369-.408-.795-.366-1.219.042-.438.22-.633.514-.923.261.261.29.556.285.915-.006.46-.093.9-.433 1.227m42.601-.002a1.3 1.3 0 0 1-.509-.228c-.115-.187-.209-.333-.21-.562-.003-.516.279-.899.63-1.24.123.067.14.07.26.174.235.204.444.529.43.846-.02.44-.317.71-.602 1.01m40.159.419-.133.047c-.178-.29-.226-.627-.247-.965-.04-.677.09-1.01.539-1.517.04.026.082.049.119.078.235.186.44.51.464.815.045.594-.409 1.098-.742 1.542m4.338-1.053c-.206-.074-.219-.05-.367-.2-.34-.343-.314-.774-.28-1.215.38.061.478.11.731.382.103.39.016.657-.084 1.033m-18.12-.829-.034.002-.108-.107zm41.19 1.452c-.297-.067-.394-.133-.599-.357-.14-.442.002-.847.102-1.285.17.094.235.169.348.335.284.415.233.843.149 1.307m-113.011.362-.238.135c-.248-.5.046-1.249.206-1.758.32.032.457-.011.705.213.046.464-.43 1.024-.673 1.41m22.806.134-.193-.016c-.122-.578-.03-1.169.02-1.753l.27.192c.159.518-.003 1.054-.097 1.576m-16.73-.165c-.02.063-.13.177-.172.231-.226-.535-.05-1.072.063-1.615.196.045.39.1.584.152l.09.224a12 12 0 0 0-.565 1.007m-8.392.543c-.171-.13-.32-.23-.403-.439-.172-.432.055-.845.236-1.23l.282.15c.199.548.047.987-.115 1.518m117.599.681c-.114-.116-.249-.242-.313-.395-.223-.53.23-1.304.446-1.787.294.248.343.52.37.892.04.56-.132.888-.503 1.29m-19.478-.192c-.353.031-.464.07-.789-.092-.239-.375-.187-.877-.195-1.31.384.067.575.105.89.354.196.36.134.66.094 1.048m23.004.157c-.27-.058-.404-.132-.62-.301-.148-.353-.07-.606.004-.963.197.08.37.189.554.295.17.377.106.564.062.969m-55.399-.937-.089-.04zm79.057 42.233a81 81 0 0 1 2.03-6.168c1.023 1.458 1.716 4.492 2.391 6.265 2.145.039 4.292-.144 6.435.018q-2.437 2.155-4.954 4.215c.558 2.225 1.321 4.412 2.026 6.595-2.004-1.147-3.682-2.947-5.724-3.981-1.948 1.322-3.803 2.761-5.782 4.04.72-2.201 1.522-4.358 2.175-6.584-1.752-1.45-3.687-2.7-5.47-4.123 2.266-.237 4.597-.21 6.873-.277m-170.087.614c.534-1.861 1.171-3.701 1.764-5.544.642.996 1.328 4.159 1.933 5.565q3.585.002 7.17-.102-2.844 1.941-5.729 3.82c.59 2.253 1.347 4.478 2.021 6.709-1.755-1.289-3.416-2.72-5.089-4.113-1.068.247-4.711 3.381-5.696 4.277.497-2.269 1.507-4.522 2.185-6.76-1.687-1.437-3.717-2.606-5.57-3.825q3.505.005 7.011-.028m74.304 6.907q-.402.154-.812.282c-1.49.456-3.148.386-4.517-.398q-.107-.06-.21-.126-.104-.066-.204-.138-.1-.07-.196-.147-.097-.077-.189-.158t-.18-.167-.17-.176q-.084-.09-.163-.185-.078-.094-.152-.192-.073-.099-.141-.201-.069-.102-.132-.208-.062-.105-.12-.214-.058-.108-.11-.22-.051-.11-.097-.225-.046-.114-.086-.23t-.074-.234-.062-.238c-.346-1.462-.094-3.178.746-4.433.861-1.287 2.118-1.844 3.576-2.157 1.219-.09 2.17.075 3.319.467-.103.582-.18 1.17-.267 1.756-.965-.294-1.989-.524-2.99-.266-.766.198-1.436.674-1.827 1.368-.488.865-.528 1.927-.268 2.869.218.793.584 1.51 1.337 1.903 1.14.593 2.435.39 3.611.053l.163.106zm23.554-9.483c.562-.135 1.143-.183 1.716-.251 1.148-.133 2.607-.096 3.61.52.873.539 1.109 1.203 1.347 2.15l-.082.335c-.293 1.156-.644 1.726-1.69 2.352 1.22 1.282 1.696 3.087 2.4 4.677-.548.025-1.42.16-1.936-.008-.407-.133-.435-.267-.642-.621-.302-.91-.655-2.624-1.638-3.029-.3-.123-.51-.062-.788.057-.6.782-.297 2.66-.283 3.614l-2.04-.006zm2.027 1.425c-.023.815-.24 2.016.31 2.681.374.19.646.165 1.032.044.259-.081.503-.177.75-.289.242-.406.45-.792.35-1.286-.087-.43-.405-.683-.775-.872-.536-.273-1.077-.269-1.667-.278m13.221-1.412c.605-.122 1.217-.19 1.829-.267.802-.032 1.61.005 2.394.195.783.19 1.499.712 1.878 1.427.434.818.457 1.879.146 2.742-.811 2.244-2.458 1.626-4.06 2.365l-.054.442-.006 2.937-2.129.006q-.028-4.924.002-9.848m2.165 1.476c-.01 1.078-.028 2.158.007 3.237.535-.143 1.016-.279 1.513-.534.374-.452.707-.988.624-1.606-.05-.373-.298-.677-.608-.873-.452-.285-1.024-.248-1.536-.224m14.748-1.576 2.314-.16c.362.008.73.011 1.09.044.994.091 2.058.501 2.68 1.317.337.44.552 1.001.452 1.56-.151.85-.697 1.376-1.356 1.876.444.258.867.518 1.167.947.381.544.556 1.225.432 1.882-.178.941-.754 1.466-1.517 1.978-1.717.676-3.438.56-5.242.504q-.036-4.975-.02-9.948m2.124 1.662c-.03.618-.134 1.29.083 1.879.246.227.302.299.662.287.32-.01.742-.151 1.032-.28.148-.36.352-.786.251-1.185-.073-.29-.308-.494-.58-.597-.456-.172-.972-.12-1.448-.104m.055 3.867c-.028.724-.212 1.74.129 2.389.277.151.45.194.768.118.337-.08.68-.227 1.002-.358.255-.354.498-.71.375-1.175-.1-.382-.444-.602-.782-.754-.479-.214-.977-.221-1.492-.22m22.79 2.783.066.238c.113.411.199.657-.018 1.04a6.6 6.6 0 0 1-1.332.457c-1.17.274-2.468.126-3.488-.532-1.218-.786-1.923-2.083-2.17-3.49-.257-1.466-.064-2.993.815-4.226.853-1.197 1.985-1.73 3.387-1.984 1.174-.1 2.082.114 3.175.518-.15.597-.348 1.177-.544 1.761-.357-.155-.714-.306-1.093-.4a2.9 2.9 0 0 0-2.263.36c-.67.431-1.081 1.123-1.25 1.891-.213.966-.063 2.23.485 3.067 1.159 1.77 2.59.655 4.08.928zm-121.581 1.768c-1.135.15-2.139.075-3.165-.48q-.11-.06-.216-.125t-.21-.136q-.102-.07-.202-.146t-.195-.157q-.096-.08-.187-.165t-.178-.175-.17-.184-.16-.192-.15-.2-.14-.207-.13-.213-.118-.22q-.057-.111-.108-.226-.05-.114-.096-.23-.045-.117-.084-.236t-.073-.239c-.393-1.41-.23-3.002.51-4.273.787-1.352 1.913-1.973 3.379-2.345.994-.122 1.977-.048 2.893.382 1.201.563 2.024 1.647 2.43 2.891q.043.13.08.26.035.132.065.264.03.133.052.267.023.134.04.27.016.134.025.27t.011.272q.003.136-.001.272-.005.136-.016.272-.011.135-.029.27t-.043.269-.056.266-.069.263q-.038.13-.082.26-.045.128-.096.254-.05.126-.108.25-.057.123-.12.244c-.727 1.403-1.826 2.162-3.283 2.653m-.881-8.395c-.876.211-1.487.591-1.96 1.377-.553.922-.64 2.088-.332 3.109.218.724.714 1.5 1.405 1.855.264.136.576.19.866.247.83-.202 1.37-.465 1.837-1.208.588-.932.702-2.097.45-3.158-.176-.746-.593-1.5-1.255-1.92-.297-.188-.668-.254-1.011-.302m42.119 8.269c1.191-3.318 2.475-6.622 3.54-9.983l1.823-.049c1.311 3.247 2.363 6.653 3.405 9.997-.74.028-1.483.028-2.223.041-.237-.736-.431-1.524-.825-2.193l-.27-.062-2.5.07c-.203.727-.464 1.426-.728 2.132zm4.286-7.087c-.237.8-.964 2.51-.78 3.286.441.008.876-.002 1.316-.02l.356-.106c.212-.63-.363-2.338-.677-2.888-.086-.151-.11-.165-.215-.272m5.557 7.099c-.001-1.476-.248-9.266.172-10.007.599-.005 1.199.013 1.797.021 1.383 2.256 3.012 4.341 4.321 6.644-.327-2.156-.2-4.417-.191-6.596l1.925-.01.052 6.142c.007 1.188.127 2.578-.103 3.74-.651.016-1.303.053-1.954.082-1.387-2.18-2.822-4.38-4.054-6.65l.035 6.65zm43.706-7.883c.007 2.137.4 5.334-1.16 7.004-.678.727-1.59.979-2.56.98-1.004.002-2.01-.24-2.726-.984-1.619-1.68-.992-6.872-.945-9.161l2.119-.007c.012 1.533-.284 6.32.463 7.532.205.333.511.583.91.64q.07.01.142.013t.143-.004q.071-.005.141-.019t.139-.035q.068-.022.133-.052t.126-.066.119-.08.108-.094c1.105-1.084.692-6.156.708-7.836l2.143-.003zm9.896 7.838q-.034-4.977-.01-9.955l2.123.022.02 7.964 3.385.074.003 1.89zm6.348-.016c.047-3.313.012-6.626.067-9.939l2.191.007c.053 3.302-.067 6.605-.014 9.911zm-106.241.043c.232-3.301.702-6.62 1.11-9.906l1.877-.026c.57 2.282 1.359 4.544 2.041 6.797.525-2.296 1.416-4.552 2.186-6.778l1.657-.01c.335 3.3.657 6.685 1.366 9.927l-2.073.044q-.218-1.366-.383-2.74-.198-1.364-.423-2.724c-.612 1.758-1.088 3.544-1.57 5.34l-1.617.01q-.835-2.944-1.628-5.9c-.282 1.975-.449 3.968-.641 5.953zm11.325.012.133-9.929 2.047.001c.02 3.131.258 6.891.074 9.947zm4.081.033.005-9.957 1.722-.008c1.162 2.104 2.637 4.08 3.99 6.067.033-2.02.024-4.041.033-6.06l1.902.002c.122 3.291.031 6.616.034 9.91-.612.068-1.248.042-1.864.05-1.223-2.07-2.581-4.066-3.857-6.106q.003 3.042-.06 6.082zm9.421.022q-.006-4.98.05-9.96l2.134-.007q.036 4.982-.021 9.964zm43.071-.109-.009-9.888q2.769-.023 5.537-.017l.003 1.72c-1.153.102-2.325.073-3.482.083v2.048c1.133.046 2.276.02 3.41.023l-.009 1.757c-.78.036-2.59-.25-3.214.153-.145.094-.108.312-.125.47l.015 1.666 3.548.025-.006 1.95zm-87.223.141-.014-9.886c2.191-.053 5.034-.32 6.808 1.23.853.746 1.249 1.785 1.31 2.9.09 1.668-.429 3.043-1.536 4.267-1.824 1.713-4.261 1.494-6.568 1.489m2.235-8.267.005 6.5c1.052-.14 1.733-.282 2.608-.934.7-.923 1.064-1.884.904-3.058-.092-.675-.346-1.249-.707-1.819-.956-.561-1.709-.708-2.81-.689"/></svg>