<svg xmlns="http://www.w3.org/2000/svg" viewBox="0 0 256 256"><path d="M97.887 0h64.974l.122.017c1.67.21 3.409.158 5.092.257 5.269.31 10.362 1.414 14.982 4.067 2.098 1.205 3.962 2.696 5.739 4.328 4.37 4.013 8.448 8.415 12.66 12.598l28.198 28.173 14.097 14.134c2.213 2.198 4.844 4.272 6.756 6.715 2.833 3.617 4.255 8.471 4.85 12.96.645 4.876.358 9.964.345 14.88l-.027 23.517.012 32.675c-.01 5.893.33 12.881-.432 18.683-.597 4.547-2.105 8.853-4.812 12.575-3.155 4.334-8.443 9.102-12.354 12.904-4.832 4.696-9.61 9.478-14.367 14.252l-23.089 23.062-7.573 7.571c-2.25 2.249-4.469 4.582-7.012 6.505-4.818 3.642-10.9 5.462-16.872 5.832-2.042.125-4.195-.013-6.207.295H95.685c-1.884-.352-4.011-.308-5.933-.442-7.254-.51-14.247-1.425-20.252-5.928-1.968-1.476-3.652-3.315-5.378-5.059l-5.777-5.761-23.732-23.93-17.966-17.899c-3.257-3.234-8.04-7.574-10.631-11.17-2.94-4.079-4.482-8.794-5.186-13.735-.735-5.162-.416-11.482-.418-16.761l.049-29.622Q.381 110.92.5 96.148l.042-7.634c.007-2.101-.059-4.244.237-6.33C1.388 77.9 2.903 73.85 5.538 70.4c1.855-2.43 4.352-4.468 6.497-6.652l16.799-16.852 26.042-26.09c4.238-4.235 8.358-8.69 12.777-12.729 1.568-1.432 3.257-2.711 5.142-3.697C78.442 1.425 85.567.808 91.85.4 93.8.275 95.834.294 97.765.018zm60.27 7.438-47.312.024-12.836.011c-5.535.006-12.124-.103-17.491 1.198-4.28 1.038-7.053 2.91-10.114 5.98L33.42 51.836 19.603 65.558c-2.692 2.67-5.584 5.29-8.037 8.183-1.226 1.445-2.13 3.047-2.778 4.826-.64 1.758-1.092 3.64-1.239 5.508-.248 3.151-.11 6.402-.116 9.564L7.4 110.266l.02 49.815c.023 10.154-1.046 17.415 6.835 25.252l40.983 40.86 11.25 11.237c2.855 2.833 5.725 6.465 9.362 8.298 5.808 2.928 15.727 3.033 22.284 3.016l49.064.009 13.454-.001c4.667-.001 9.539.357 14.084-.836 5.382-1.412 8.652-4.285 12.465-8.093l27.788-27.89q10.293-10.118 20.468-20.355c3.682-3.719 8.328-7.188 10.85-11.847 2.698-4.985 2.333-10.545 2.334-16.014l.057-54.972q-.042-7.013-.005-14.025c.016-3.251.168-6.569-.114-9.808-.235-2.692-.814-5.462-2.02-7.896-1.784-3.6-7.154-8.37-10.108-11.382q-5.758-5.941-11.614-11.787l-29.912-29.88q-3.055-3-6.072-6.037c-2.55-2.556-5-5.233-8.087-7.162-3.798-2.373-8.09-3.364-12.534-3.365z"/><path d="m166.094 245.801-56.865-.02c-6.134-.017-12.278.181-18.41.014-2.976-.08-5.945-.138-8.883-.668-3.442-.621-5.937-1.806-8.49-4.196-5.883-5.507-11.605-11.443-17.28-17.182l-22.331-22.377-12.01-11.874c-2.792-2.707-6.037-5.379-8.342-8.509-1.98-2.689-3.206-6.093-3.294-9.44-.14-5.322.113-10.7.11-16.028l.059-44.216-.04-18.839c-.023-2.836-.348-7.522.052-10.082.507-3.243 2.094-6.032 4.34-8.388 5.642-5.921 11.666-11.534 17.491-17.278L57.004 31.91c3.885-3.883 7.686-7.852 11.538-11.768 2.335-2.374 4.705-5.327 7.545-7.072 4.206-2.586 9.144-2.64 13.921-2.763 3.1-.064 6.208.05 9.309.055h20.12l47.472-.13c4.67.012 8.524.29 12.6 2.792 3.127 1.92 5.55 4.763 8.115 7.343l9.357 9.424 39.53 39.42c3.242 3.26 7.238 6.522 8.6 11.064 1.393 4.654.897 11.559.87 16.531q-.101 7.99-.092 15.98l-.01 57.289c-.01 3.422-.55 6.595-2.496 9.486-1.567 2.328-3.796 4.304-5.773 6.28-3.675 3.672-7.45 7.242-11.117 10.925l-39.109 39.403c-4.453 4.423-8.561 8.707-15.155 9.469-2.026.234-4.1.168-6.135.162M83.013 16.156l.056.059c.035.035.067.074.104.107 3.153 2.808 7.713 5.377 12.043 4.894l-.034-.131c-1.625-.672-3.361-1.11-5.001-1.798-2.331-.978-4.697-2.356-7.112-3.072zm91.144 1.282c-1.601 1.704-3.482 4.995-3.886 7.268 1.149-1.114 3.55-5.632 3.886-7.268l.062-.062zm10.347 5.322.062.127c.787 3.67 5.516 13.68 7.978 16.47-.396-3.177-5.979-14.122-7.978-16.47zM62.838 39.426l-.057.073zc.541-.517.967-1.315 1.395-1.94 2.764-4.033 4.971-8.219 6.983-12.67.579-1.28 1.247-2.578 1.69-3.91-2.311 2.558-9.03 15.289-10.068 18.52M19.639 74.81l-.181.101-.076.06.076-.06zc.92-.431 1.825-.974 2.738-1.433 4.574-2.3 11.654-5.818 15.219-9.43-3.373.805-15.411 8.319-17.957 10.862m-2.365 101.817.123.061c2.842 1.942 10.23 5.547 13.584 6.253q-.036-.064-.074-.127c-1.796-2.749-6.394-3.863-9.343-4.844-1.363-.453-2.757-1.001-4.167-1.282zm2.352 4.77.187.056.1.116c1.695 1.698 15.042 9.8 17.256 10.353l.065.046-.065-.046c-2.38-2.858-13.674-8.83-17.256-10.353l-.1-.116zm214.429 1.444c-4.054.86-13.019 5.984-15.904 8.911 2.786-.982 14.395-7.093 15.904-8.91l.058-.062zM172.273 14.066c-2.605.19-5.212.347-7.799.706-6.006.832-11.97 2.214-17.925 3.352l.011.074.218-.067c7.647-.162 15.156-1.393 22.562-3.215.959-.236 2.474-.393 3.321-.854zm-87.247.23c4.217 2.303 19.102 3.958 23.806 3.646-1.657-.536-3.542-.666-5.26-.983-3.996-.738-7.967-1.498-12-2.02-2.178-.281-4.374-.364-6.546-.643m-6.224 1.935c-.083 1.284.018 11.767.333 12.266.056-.135.118-.27.162-.409.987-3.2.728-7.184-.035-10.405-.09-.38-.163-.97-.34-1.31-.03-.055-.08-.095-.12-.142m2.184.836c1.1 2.114 3.47 6.755 5.675 7.716-.459-1.551-4.307-6.826-5.675-7.716m92.615.093q-2.998.6-5.919 1.507t-5.733 2.11c-.559.235-1.616.56-2.008 1.027l.18.07c4.67-.468 9.512-2.442 13.689-4.553l.079-.127zm2.73.02c-.252 3.185-.635 8.551.873 11.377.274-1.912.207-9.93-.873-11.376m3.298 1.164c.299 2.473 2.53 13.409 4.265 14.957-.037-2.371-3.03-13.63-4.236-14.931q-.015-.015-.03-.026m-103.172.26c-.536 1.373-3.958 12.295-3.815 13.08 2.274-3.017 3.11-6.652 3.597-10.334.112-.854.31-1.898.218-2.746m50.377 3.063-.104.033c-1.42.413-3.298.28-4.788.36q-2.054.115-4.1.344a117 117 0 0 0-16.103 2.82c-4.041 1.008-7.99 2.45-11.836 4.039-23.443 9.686-42.851 28.47-55.324 50.349-1.543 2.706-3.049 5.51-4.283 8.371-3.822 8.861-5.878 18.634-7.223 28.151-.634 4.492-1.215 9.126-1.164 13.667.085 7.493 1.588 16.996 3.577 24.2 6.125 22.19 15.998 39.391 33.616 54.453 5.08 4.344 10.574 8.417 16.399 11.71 16.859 9.531 35.043 14.55 54.436 14.433 27.569-.197 55.386-13.544 74.6-32.984 11.84-11.98 20.382-27.937 25.177-44.015 1.008-3.383 1.768-6.885 2.528-10.331 1.149-5.218 2.38-11.718 2.34-17.068-.013-1.812-.242-3.662-.427-5.463q-.596-5.752-1.57-11.452c-1.665-9.877-4.213-21.166-8.681-30.15-2.26-4.54-5.151-8.879-8.002-13.064-4.04-5.93-8.625-11.67-13.781-16.671-4.865-4.718-10.23-8.882-15.748-12.801-11.084-7.872-20.153-12.93-33.575-15.86-3.054-.666-6.162-1.13-9.25-1.616-4.388-.693-8.623-1-13.047-1.266-.975-.058-1.945-.313-2.92-.288a3 3 0 0 0-.747.1m90.937 42.184c4.348 3.57 9.275 6.041 14.324 8.447 1.128.537 2.484 1.364 3.707 1.61-3.186-2.336-14.638-9.673-18.031-10.057M33.276 72.642c-4.118 1.134-12.747 4.008-16.25 6.008l-.008.118.12.027c4.75-1.054 12.37-3.244 16.282-6.041l-.019-.097zm190.755.356c1.07.754 2.153 1.426 3.339 1.985 1.464.691 10.533 4.151 11.719 4.133-4.046-2.34-10.47-5.623-15.058-6.118m4.124 7.042c2.543 1.318 7.47 1.928 10.333 1.542-2.369-.954-7.952-1.983-10.333-1.542m-206.56.637c-1.574.098-3.128.202-4.668.572 2.56.24 5.037.291 7.604.103 1.381-.179 2.815-.29 4.174-.594-2.292-.287-4.807-.264-7.11-.08m216.624 1.72c-1.44.647-5.984 2.63-6.481 3.986-.018.047-.025.098-.037.147l.107.14c1.084-.527 6.094-3.43 6.46-4.25zm-219.823.341c1.734 1.246 5.37 4.205 7.56 4.156-1.746-1.659-5.207-3.526-7.56-4.156m-3.985.358c.148 2.96 2.557 24.17 3.548 25.682.041-7.407-1.343-14.852-2.739-22.103-.174-.904-.352-2.876-.809-3.579m225.382.521c-1.923 2.792-5.693 10.272-5.238 13.614.017.128.034.157.073.264.564-1.335 5.207-13.198 5.165-13.878m-222.175.102c1.03 4.099 2.33 9.448 4.093 13.239l.189.075c.092-.46.125-.864.067-1.332-.265-2.123-2.936-10.198-4.119-11.76-.098-.13-.119-.136-.23-.222m225.013 2.486c-2.463 5.92-3.694 11.252-4.622 17.598-.178 1.214-.557 2.758-.458 3.976.918-3.092 5.726-19.44 5.08-21.574m-5.654 61.495q.596 4.926 1.621 9.782t2.472 9.601c.239.759.567 2.313 1.163 2.824-.614-6.6-1.954-12.675-4.064-18.942-.341-1.016-.619-2.377-1.192-3.265m-217.914.511c-2.012 6.31-3.596 11.442-4.748 18.023-.205 1.17-.66 2.9-.377 4.054.678-1.575 1.155-3.256 1.651-4.894 1.396-4.612 2.272-8.777 3.066-13.518.182-1.083.644-2.604.408-3.665m214.902 8.48c.127 1.337.35 2.667.547 3.994.574 3.863 1.091 5.62 3.13 9.026.462.77.964 1.76 1.651 2.33-.645-2.461-1.68-4.83-2.505-7.237-.543-1.584-2.092-7.013-2.823-8.112m-211.906 1.523c-.874 2.049-5.823 13.363-5.45 14.971 2.588-3.507 3.974-7.798 4.988-11.998.21-.867.591-2.012.477-2.891q-.006-.042-.015-.082m1.165 11.302c-.494.152-.993.295-1.476.48.817.353 1.623.607 2.482.838.348.047.66.131.988-.036l.023-.204c-.506-.603-1.25-.944-2.017-1.078m209.663-.013c-1.032.301-2.013.706-3.006 1.113.669.005 1.34.023 2.008.003.669-.051 1.401-.04 2.029-.288l.11-.202q-.054-.064-.113-.123-.059-.06-.123-.112-.064-.054-.133-.1-.07-.047-.142-.087-.073-.04-.15-.073-.076-.033-.156-.059-.079-.025-.16-.043-.082-.019-.164-.029m2.724 3.901c-3.21.738-6.778 1.816-9.674 3.421.67-.109 1.37-.184 2.029-.354 1.793-.353 8.38-1.543 9.384-2.845-.162-.228-.264-.206-.537-.245-.385-.054-.816-.026-1.202.023m-215.728.235c-.35.094-.743.15-1.041.36.578.897 4.955 1.9 6.13 2.152q.79.167 1.586.297l.463-.035.05-.147c-1.656-1.703-4.885-2.557-7.188-2.627m218.03 3.245c-1.87.51-12.81 5.005-13.568 6.072l.317.031c4.242-1.13 8.099-2.507 11.872-4.805.511-.312 1.414-.741 1.733-1.258-.271-.065-.153-.065-.354-.04M19.158 181.19h.153zm.25.125h.153zm174.194 34.916c-3.322 4.706-6.257 9.4-8.365 14.789-.285.729-.83 1.863-.82 2.628 3.292-4.734 6.088-9.587 8.282-14.932.305-.742.832-1.689.903-2.485m-131.16.603c2.17 5.603 5.143 11.064 8.358 16.126.432.681.997 1.805 1.6 2.325-1.852-5.325-4.766-10.738-7.759-15.503-.567-.903-1.324-2.345-2.2-2.947m121.512 6.659q-.979 2.103-1.774 4.282-.795 2.18-1.401 4.418c-.45 1.657-.751 3.353-1.237 4.998l.103.106c2.253-4.222 3.477-8.948 4.407-13.614zm-111.235.832c.226 2.92 2.232 10.67 3.69 13.24-.072-2.246-2.22-11.613-3.575-13.134-.034-.04-.076-.07-.115-.106m6.119 3.608c-.256 2.893-.115 8.515.342 11.36l.138.137.087-.142c.72-3.104.512-6.295-.058-9.406-.115-.627-.179-1.396-.51-1.948m97.607.297c-.881 3.354-.812 7.573-.036 10.962.349-1.948.975-9.45.036-10.962m-89.7 3.645c-1.309 1.014-5.434 4.89-5.662 6.433l.073.057c1.303-.993 5.258-4.93 5.668-6.398zm82.685.73c.605 1.471 3.724 5.441 5.07 6.058-1.061-2.284-2.85-4.77-5.07-6.058m-73.657 1.547c-3.831.852-10.907 3.207-13.925 5.759l-.047.188.112.012c1.707-.518 13.667-5.315 14.004-5.938zm64.196 1.005c2.868 1.18 9.418 3.475 12.356 3.871-2.768-1.85-8.999-4.138-12.356-3.87m-54.708 3.023c-7.095.483-13.945 1.154-20.752 3.35l2.68-.029c6.881-.664 13.58-1.875 20.317-3.393-.74.015-1.51-.008-2.246.072m43.507.103c3.628.327 8.061 1.707 11.746 2.445 3.922.786 7.995.994 11.985 1.16-1.648-.524-3.402-.819-5.094-1.188-6.116-1.338-12.357-2.411-18.637-2.417"/><path d="M140.688 25.717c-2.001.02-9.73.294-10.983-.208-.441-.177-.897-.39-1.381-.388-2.275.01-4.524.57-6.799.655-2.884.108-5.793-.015-8.68-.039-2.495-.02-4.988.06-7.483.046 1.523-.719 7.88-.913 9.859-.978 4.297-.11 8.579.087 12.872.062 6.336-.037 16.909-.675 22.872.916-1.004.116-2.315-.103-3.352-.12-2.306-.038-4.619.026-6.925.054M87.14 53.54a14.8 14.8 0 0 0 4.26-1.78c3.535-2.145 6.703-5.089 9.9-7.706 2.73-2.235 5.59-4.353 8.203-6.72 2.688-2.434 4.891-5.141 8.038-7.06 2.653-1.616 5.74-2.587 8.81-2.977a9 9 0 0 1 1.074-.015c.809.052 1.602.228 2.265.718 1.018.75 4.236 5.594 5.554 7.075 2.467 2.773 4.803 3.93 8.399 4.727 1.281.284 2.57.545 3.883.614 2.741.144 4.691-.588 6.729-2.403 4.283 3 8.387 6.28 12.599 9.38 2.736 2.014 5.635 3.76 8.412 5.707 2.418 1.695 4.714 3.563 7.147 5.237 1.514 1.041 3.147 1.827 4.76 2.695 2.173 1.168 4.264 2.403 6.23 3.903 2.14 1.634 4.06 3.474 5.686 5.627 1.103 1.462 2.095 3.009 3.305 4.387 2.63 2.994 5.719 5.477 8.823 7.945 1.298 1.03 2.568 2.154 3.955 3.064 1.326.87 2.78 1.572 4.159 2.356 1.973 1.122 3.752 2.166 5.96 2.77.602 1.242 1.003 2.58 1.435 3.888-.984-.462-1.926-1-2.947-1.384-2.293-.865-4.651-1.41-6.857-2.52-3.12-1.569-6.628-4.848-9.517-6.998-1.908-1.42-4.254-2.638-5.868-4.39a335 335 0 0 1-5.89-6.587c-1.71-1.956-3.317-4.15-5.455-5.663-3.27-2.312-6.936-3.93-10.408-5.889-2.724-1.536-5.27-3.34-8.04-4.812-2.516-1.337-5.543-2.35-7.78-4.108-1.446-1.136-2.428-2.693-3.643-4.046-.9-1-1.975-1.9-3.064-2.688-4.903-3.549-5.884 1.295-10.143 1.474-2.167.09-3.31-1.841-5.16-1.887-1.144-.028-1.955.838-2.707 1.574-3.267-4.424-6.505-11.62-10.97-14.635a7 7 0 0 0-.59-.28c-2.03-.845-3.88-.408-5.827.385-1.45.59-2.928 1.33-4.22 2.22-2.288 1.575-4.335 3.542-6.5 5.283-2.52 2.026-5.106 3.964-7.58 6.05-.984.83-2.065 1.668-2.915 2.64-1.058 1.209-1.744 2.733-2.366 4.197-4.36 1.087-8.376 3.9-13.011 3.578-1.773-.123-3.452-.816-5.222-1.008l-.226-.023c-2.596 1.771-7.2 8.437-9.462 11.189-3.163 3.848-7.861 8.644-13.02 9.152-.007-.962.121-1.859.297-2.802a11.07 11.07 0 0 0-5.311 2.178c-2.85 2.142-4.826 5.445-7.315 7.984-2.29 2.336-4.955 4.373-7.501 6.422-2.678 2.155-5.368 4.384-8.208 6.321.447-.876.904-1.808 1.514-2.582 3.505-4.442 8.555-8.907 12.535-13.085 2.155-2.26 3.928-4.855 6.148-7.035 1.247-1.225 2.587-2.58 4.194-3.316 1.25-.573 4.583-1.382 5.854-.794.18.082.169.423.233.604.096.27.086.33.346.44.948-.281 1.848-.918 2.66-1.467 3.02-2.043 5.581-5.014 7.82-7.865 2.013-2.564 4.32-6.205 7.079-7.908.48-.297 1.076-.459 1.622-.595 2.891-.725 4.944.559 7.647 1.2zm6.113-23.82c2.292-.755 4.403-1.464 6.841-1.541 5.996-.122 12.01-.012 18.008.043-2.836 1.26-3.214 1.514-6.371 1.497-6.156-.002-12.325-.111-18.478.001"/><path d="M133.46 29.748c-.468-.496-.874-1.024-1.286-1.565l18.666-.034c2.593.006 5.959-.211 8.462.148 1.333.191 2.612.773 3.862 1.256-.727.157-1.595.097-2.345.118q-3.446.092-6.893.064zm-48.797 3.84c1.239-.344 2.282-.852 3.412-1.467 8.062-.016 16.16.308 24.217.057-.51.482-.975 1.013-1.45 1.53l-1.186.026q-12.497.071-24.993-.147m50.379-1.317c8.657-.157 17.33-.062 25.99-.082 1.99-.014 7.433-.337 9.074.18.847.266 1.726.836 2.529 1.23q-13.079.196-26.159.127c-3.354.008-6.718.063-10.07-.017-.507-.432-.928-.938-1.364-1.438m-57.699 5.492c.954-.516 1.882-1.088 2.816-1.637 9.251.325 18.566.127 27.823.116-.66.54-1.302 1.488-2.2 1.515-9.474.023-18.97-.195-28.439.006m77.206-1.452c5.723-.093 11.45.01 17.171-.128 3.482-.052 4.257-.5 7.427 1.409q-8.541.174-17.084.145c-1.788-.01-4.425.413-6.038-.424-.517-.268-1.004-.66-1.476-1.002m-15.157.078c4.634-.123 9.294-.036 13.931-.073l.102.106c-.46.48-1.046.854-1.662 1.101-.96.384-7.765.4-8.96.256-.786-.095-1.398-.31-2.11-.63zM116.905 37.5c.608-.464 1.138-.807 1.849-1.095 2.48-.209 5.06.21 7.527.482-.546.2-1.11.278-1.68.375-2.511.343-5.17.25-7.696.239m-45.95 4.351c.666-.493 1.306-1.031 1.955-1.548 3.839-.111 7.702-.025 11.543-.025q9.613-.06 19.226.09l-2.204 1.52c-3.841-.153-7.704-.085-11.548-.083zm113.957-.173c-.69.168-21.527.224-22.605.04-.695-.118-1.695-.843-2.113-1.407 2.308.185 4.767-.01 7.098-.021q7.774-.063 15.548-.019c.719.437 1.396.906 2.072 1.407M111 42.381l1.629-1.359c4.064-.36 8.742.032 12.813.357l-2.471.294c-3.98.504-7.966.608-11.972.708m54.734 2.162c2.386-.316 4.892-.208 7.299-.23q7.875-.062 15.75.043c.678.442 1.322.935 1.973 1.417-2.476.11-4.965.063-7.442.063l-15.578.01c-.694-.393-1.345-.852-2.003-1.303m-98.211-.007c2.573-.118 5.184-.07 7.76-.098q11.597-.045 23.193.067l-1.426 1.39c-2.739.113-5.494.056-8.236.056q-11.495-.091-22.991.05c.581-.468 1.136-.977 1.7-1.465m59.793 5.6q-.05-1.902.029-3.803c.686-.008 1.374.014 2.06.023.062 1.256.059 2.519.079 3.777 1.215.059 2.439.039 3.656.043l-.013 2.18c-1.24-.058-2.482-.045-3.723-.046.033 2.48.044 4.944-.008 7.424l3.608.023c2.992 2.929 6.056 5.685 8.927 8.75 1.005 1.072 2.112 2.154 2.931 3.378.64.957.966 2.195 1.481 3.234.691 1.395 1.566 2.688 2.218 4.105 1.215-.069 3.417-.401 4.404.397.267.216.396.433.437.776.04.325-.081.703-.317.928-.65.618-2.517.32-3.358.296l-.045 23.613c2.355-1.18 4.574-2.906 6.743-4.41q4.332-3.008 8.726-5.923c1.816.957 3.505 2.23 5.187 3.403 3.651 2.546 7.261 5.284 11.04 7.632.3 1.506.316 3.505 1.118 4.825 1.272 2.097 5.66 1.956 7.744 2.764 1.879.728 3.435 1.974 4.926 3.295-4.384-1.671-7.767-2.11-12.39-2.364.638 5.917 1.809 11.843 2.805 17.712q1.768 10.796 3.412 21.612c.981 6.05 2.153 12.119 2.829 18.21 9.803.736 19.722.86 29.477 2.07q-.67 1.458-1.46 2.853c-2.185-.51-4.694-.43-6.93-.552-5.567-.302-11.137-.457-16.702-.806q-21.37-1.339-42.776-1.803t-42.815-.05q-18.633.15-37.244 1.036t-37.175 2.506c-.523-1.083-1.108-2.143-1.666-3.21 3.492-.426 7.05-.585 10.56-.846q9.605-.754 19.23-1.17c.707-3.328 1.13-6.708 1.858-10.04-.955-.386-1.874-.912-2.79-1.382-2.582.966-3.138.204-5.288.667-.928.2-1.846.93-2.766.955-.901.024-1.892-.342-2.76-.576-1.664.396-3.324 1.376-5.07 1.23-1.054-.088-2.118-.396-3.167-.568-.019.813-.134 1.938.17 2.697.65 1.631 4.849.949 6.69 1.796l.047.168c-.143.075-.174.1-.353.142-1.752.418-17.466.635-18.345-.005l.046-.173a1.4 1.4 0 0 1 .602-.294c1.336-.335 2.795-.333 4.16-.543 1.082-.168 2.131-.529 3.231-.566l.147-.002c.017-.832.217-2.35-.136-3.078-.146-.303-3.343.418-3.977.44-2.427.08-4.791-1.275-7.13-1.817-.466-1.454-1.046-2.868-1.498-4.33 1.364.03 2.624.103 3.948-.261.78-.257 1.597-.436 2.384-.689 1.796-.575 3.643-1.31 5.52-1.548-.547-.3-1.052-.549-1.677-.651-1.153-.19-2.427.013-3.599.014-1.762.001-3.616-.149-5.369.004-.614.053-1.266.272-1.863.432-.316-1.094-.519-2.25-.65-3.381.552-.006 1.891.198 2.301-.108-.431-.32-1.607-.206-2.187-.345-.232-.219-.258-.215-.298-.527.226-.314.605-.423.966-.512 1.114-.275 2.333-.254 3.473-.388.98-.115 1.953-.356 2.941-.394.813-.032 1.756.164 2.544.006.963-.193 1.854-.752 2.711-1.215-.612-.223-1.379-.6-2.025-.658-.82-.072-1.674.053-2.5.047-.829-.006-1.654-.165-2.481-.22-1.934-.127-4.959.062-6.493-1.356-.386-.357-.475-.708-.5-1.217.766-2.308 10.958-1.731 13.747-3.378l.164-.098c-2.18-.797-6.756-1.249-9.203-1.505-.638-.066-1.346.053-1.959-.062-.33-.062-.449-.172-.631-.438.238-1.447 4.664-2.016 5.944-2.5 1.413-.534 2.72-1.493 4.088-2.15.973-.467 2.48-.597 3.198-1.427l-.283-.351.05.018c-.411-.119-.725.037-1.123.117-.686.138-7.201-.568-7.703-.903-.002-.043-.01-.086-.006-.129.031-.333.284-.65.494-.897 1.079-1.272 2.665-.955 4.138-1.224 1.305-.238 4.275-1.134 5.145-2.145.184-.215.158-.295.15-.562-.257-.15-4.825-.142-6.093-.547-.266-.084-.426-.149-.56-.4.423-.966 4.672-1.837 5.744-2.394.61-.316 1.516-.76 1.729-1.448-.393-.962-4.057-.39-5.612-1.303l-.142-.085c1.491-1.297 2.695-1.278 4.519-1.762.596-.158 1.122-.302 1.448-.843-.104-1.617-1.851-1.05-2.488-2.075.329-.639 1.546-.869 2.203-1.08.231-.413.496-.805.756-1.2.312.353.589.737.875 1.111.622.279 1.861.464 2.172 1.087-.43.692-1.71.648-2.18 1.444-.175.294-.103.535-.022.844.716.911 3.547 1.084 4.721 1.759.375.215.509.4.62.812-.565 1.002-4.476.054-5.436 1.063l.036.32c.418.57 1.028 1.117 1.715 1.33 1.502.466 4.133.892 5.283 2.022.199.196.188.25.189.511-1.11 1.254-4.932.14-6.513.872l-.022.185c.871.804 2.328 1.734 3.444 2.097 1.544.501 5.815.692 6.752 1.979.205.28.186.344.12.66-.617.522-4.323.744-5.257.715-.847-.027-1.781-.335-2.614-.154l-.16.04c-.733.169-1.38.481-2.058.8 2.202.531 11.345 3.58 12.46 5.3.153.235.141.281.094.542-1.03.483-5.831 1.336-7.064 1.391-1.443.065-3.441-.65-4.773.156l-.03.159c.85.314 1.478.946 2.276 1.363 2.508 1.313 5.352.714 7.895-.063.74.334 1.248 1.008 1.96 1.31 1.033.438 2.496.548 3.327 1.333.298.281.382.559.4.965-.676.899-2.05.227-2.986.291-.407.029-.883.272-1.26.426-.037-.07-.103-.205-.157-.26-.38-.396-2.411.68-2.935.8-.809.186-1.728-.301-2.58-.182-1.748.244-3.42 1.159-5.188 1.446 1.786.513 3.46 1.521 5.251 1.925.108-.244.086-.17.148-.382l.034-.127c1.355-.234 3.282-.123 4.494.498.733-.379 1.508-.759 2.311-.961 1.186-.3 2.048-.103 3.07.54.973.612 2.484 1.825 2.74 2.972-.08.286-.09.432-.39.566-.65.29-1.64.02-2.288-.152-.846.337-1.683.684-2.573.888-1.25.287-2.513.397-3.74.792h.01l-1.142-.442c-1.314.388-2.161-.166-3.33-.723-.319.218-.657.48-1.01.636-.615.27-1.191-.003-1.766-.226-.883.28-1.726.57-2.561.974 2.047.88 5.77 2.175 8.002 2.15.68-.008 1.282-.472 1.942-.53.851-.075 2.674.343 3.64.449.14-.137.282-.274.438-.394.572-.436 1.441-.59 2.142-.48 2.428.385 3.761 2.508 5.038 4.36l5.956-33.933 1.955-11.686c.412-2.486.738-5.062 1.38-7.498 1.5-1.508 3.562-2.715 5.284-3.976l6.968-5.016c.921-.657 1.815-1.374 2.767-1.985.367-.236.76-.4 1.167-.553.969.36 3.152 2.111 4.136 2.764q5.33 3.573 10.77 6.974c-.039-7.856.105-15.705-.037-23.561-.913-.056-2.31.187-3.076-.41a.92.92 0 0 1-.335-.752c.01-.327.136-.528.378-.737.742-.641 3.516-.32 4.547-.307.97-1.969 1.689-4.18 2.82-6.043.646-1.064 1.53-2.04 2.309-3.008 1.364-1.695 2.684-3.378 4.227-4.92 1.843-1.842 3.848-3.478 5.639-5.38 1.311-.057 2.643-.022 3.956-.028.019-2.46-.016-4.922-.028-7.381q-1.942-.075-3.884-.102l.03-2.134zm10.215 17.49.06.067c.294 1.135 1.546 3.16 2.203 4.215.373.14.738.022 1.116-.05-.247-.865-2.588-3.484-3.319-4.165zm-9.973-5.788c-1.53 1.419-5.903 8.203-6.012 10.207-.008.148-.004.108.101.22.965.009 2.902.25 3.611-.49 1.359-1.417 2.618-7.396 2.509-9.369-.013-.238-.053-.38-.209-.567m-2.705.163c-3.231 2.012-5.382 4.426-7.651 7.432-.623.826-1.328 1.617-1.852 2.51l.01.166.173.069q1.95.05 3.899.017c1.09-2.591 2.26-5.195 3.741-7.592.385-.624 1.668-1.9 1.748-2.53zM113.48 74.03c-.544 1.717-1.19 3.398-1.738 5.112l5.26-.099c.44-1.723 1.088-3.368 1.751-5.014q-2.636-.031-5.273.001m7.37.058a45 45 0 0 0-1.573 5.002c2.838.014 18.546.312 19.538-.17l.106-.185c-.128-.224-.161-.353-.431-.427-1.006-.277-2.606-.06-3.674-.083-3.197-.07-9.002-.212-11.96-.958a20 20 0 0 1 2.549-.298c2.923-.181 5.849-.246 8.773-.385 1.504-.072 3.119-.07 4.594-.374-4.468-.71-9.06-.36-13.547-.803 2.136-.244 4.276-.467 6.399-.813-3.557-.455-7.191-.53-10.774-.506m19.719.063c.452 1.67.726 3.344.943 5.06l4.438-.039c-.023-.1-.022-.207-.068-.298-.285-.568-1.187-1.142-1.628-1.645-.853-.974-1.553-2.193-2.498-3.065-.415-.094-.766-.056-1.187-.013m-31.227 7.375c-.083.338-.129.43-.026.757.637.29 4.509.03 5.565.022l32.59.088c.126-.222.192-.327.164-.585-.308-.24-.683-.202-1.066-.217-2.505-.098-5.042-.026-7.551-.034l-13.258-.045h-10.4c-2-.002-4.022-.074-6.019.014m18.294 2.786-18.271.056-.002 13.29c-.01 2.216-.142 4.46-.07 6.67.011.347.004.736.196 1.037.323.185.583.164.94.158.21-.303.225-.531.235-.897.039-1.441-.108-2.912-.126-4.358q-.011-4.004.063-8.006c.017-1.558-.203-3.556.337-5.025a2.59 2.59 0 0 1 1.87-1.609c.628-.127 1.337-.023 1.857.367.627.47.84 1.174.922 1.922.181 1.665.062 3.44.058 5.114-.01 4.088-.164 8.227-.022 12.31l8.153-.05.055-8.103c0-1.835-.305-4.028.166-5.797.481-1.808 2.003-3.942 3.298-5.25.237-.241.521-.447.877-.443.373.004.788.256 1.108.432 1.941 1.641 3.496 3.796 3.735 6.395.105 1.14.041 2.319.038 3.465-.01 3.071-.146 6.227.092 9.287l7.806-.002-.025-11.344c-.011-2.084-.191-4.254.101-6.318.083-.584.219-1.176.662-1.599.562-.537 1.434-.668 2.181-.63a2.6 2.6 0 0 1 1.912.965c.487.598.625 1.326.722 2.072.26 2.01.093 4.207.097 6.24.006 3.637.064 7.282-.044 10.918.32.027.469-.06.748-.194.451-.83.401-18.755.253-21.072-3.558-.13-7.135-.021-10.695.008zm-1.908 7.827c-.003.378-.064.86.1 1.204 1.65.282 3.593.101 5.274.077l-.45-1.289q-2.462.02-4.924.008m-.018 2.997c0 .356-.058.758.136 1.07 1.732.263 3.697.06 5.46.05-.007-.36.041-.77-.153-1.085-1.768-.197-3.66-.035-5.443-.035m-.108 2.949c.006.341-.049.851.107 1.147 1.768.142 3.736.119 5.508.008l-.002-1.077c-1.786-.256-3.8-.088-5.613-.078m39.447.003c-.332.232-.538.298-.674.686.171.76.71 1.393 1.35 1.835.045.03.099.044.148.066.33-.49.678-.975.983-1.48-.593-.609-.962-.93-1.807-1.107m-73.456.127c-.498.386-1.022.758-1.482 1.189.36.234.734.461 1.076.723.373-.162.76-.72.919-1.106.112-.27.095-.366.026-.633-.24-.139-.245-.171-.538-.172m1.882 1.022c-.5.721-1.102 1.362-.972 2.279.25.107.323.094.597.068.462-.556.953-1.107 1.383-1.688-.33-.227-.655-.471-1.008-.66m69.329.473c-.158.11-.532.286-.541.483-.026.548.566 1.15.969 1.476.132.107.167.118.3.187l.17-.073.477-.31c.016-.358-.155-.664-.39-.922-.274-.301-.6-.703-.985-.84m5.321.225c-.323.438-.856.984-.883 1.54.216.401.466.481.853.71.341-.522.695-1.041 1.009-1.58-.316-.242-.616-.503-.978-.67m-79.266.535c-.3.235-.486.305-.594.676.164.434.313.638.748.825.31.134.37.186.687.077l.962-.741c-.494-.28-1.233-.83-1.803-.837m6.6.204c-.405.595-.792 1.215-1.264 1.76l1.037.657c.368-.54.87-1.116.975-1.771-.135-.323-.257-.443-.588-.59-.052-.023-.107-.037-.16-.056m30.072.226c.02.361-.03.632.19.93 1.74.266 3.745.067 5.514.052-.002-.361.05-.61-.135-.925-1.798-.222-3.751-.046-5.57-.057m34.967.173c-.315.244-.475.275-.55.677.195.745.622 1.148 1.134 1.7.237.002.158.05.27-.058.32-.212.496-.238.59-.618-.233-.737-.713-1.156-1.267-1.664zm9.756.283-1.043 1.67c.298.246.587.5.918.7l1.067-1.638c-.307-.25-.609-.519-.942-.732m-83.279.526-1.066.816c.522.351 1.044.737 1.582 1.061l.978-.791c-.478-.364-.966-.801-1.494-1.086m10.536.325c-.362.462-.87.965-1.01 1.543.127.35.297.477.642.64.05.023.104.037.156.056.406-.542.805-1.09 1.22-1.625-.331-.206-.663-.434-1.008-.614m61.084.16-.975.582c.424.742.865 1.456 1.35 2.16l.986-.735c-.429-.657-.841-1.425-1.361-2.008m-67.314.484c-2.657 1.592-5.06 3.801-7.491 5.723-1.825 1.443-3.882 2.688-5.403 4.477-.43.506-.607.911-.767 1.55-.757 3.024-1.191 6.205-1.736 9.274-.42 2.363-1.01 4.77-1.22 7.157 5.428-.155 10.841-.157 16.272-.143l16.245-.014c.127-5.576-.025-11.162.129-16.735-1.64-1.098-3.13-2.453-4.707-3.642-2.065-1.558-4.225-2.991-6.338-4.484-1.379-.974-2.767-2.121-4.229-2.952a1.44 1.44 0 0 0-.755-.211m81.167.11c-.356.492-.955 1.12-.959 1.743.179.277.346.347.631.492.375-.49.981-1.075.957-1.718-.176-.257-.368-.358-.629-.516m-87.553.406c-.323.263-.537.34-.628.756.25.486 1.028.761 1.501 1.019l.484-.39c.026-.302.023-.368-.201-.613-.259-.282-.813-.589-1.156-.772m14.835.251c-.413.535-1.068 1.136-1.207 1.797.153.383.361.465.692.702.253-.402.499-.796.797-1.168.204-.254.27-.428.344-.744-.162-.345-.308-.388-.626-.587m26.05.06-.246.149c-.04.295-.018.487.053.776.911.855 4.247.388 5.519.388.09-.462.104-.887.104-1.357q-2.715.083-5.43.044m30.614.197-1.027.652c.36.54.94 1.667 1.52 1.97.328-.156.695-.272.93-.556a42 42 0 0 1-1.273-1.894c-.082-.134-.04-.086-.15-.172m7.182.148c-.63.33-1.187.7-1.761 1.12l5.84.01 1.424.003-1.492-1.21c-1.334.02-2.677.01-4.01.077m10.937.297c-.387.614-.764 1.235-1.19 1.822l.988.645 1.234-1.797zm-91.718.504-.85.73c.689.401 1.353.81 2.004 1.27l.88-.77c-.656-.448-1.296-.928-2.034-1.23m18.923.128c-.474.639-.934 1.3-1.439 1.914.261.184.66.544.957.627.462-.61.926-1.209 1.424-1.788-.305-.257-.608-.536-.942-.753m52.315.409c-.361.247-.596.339-.78.743.107.857.75 1.453 1.266 2.108l.974-.603c-.42-.832-.904-1.506-1.46-2.249m22.697.626c-.373.585-.766 1.165-1.105 1.77.262.244.493.48.805.66.542-.565.881-1.158 1.223-1.855zm-95.739.374-1.051.87c.63.423 1.267.924 1.972 1.208.297-.303.588-.623.914-.895-.607-.396-1.21-.816-1.835-1.183m22.686-.055q-.622 1-1.278 1.98c.316.232.629.494.983.663.277-.41.55-.817.85-1.211a1.3 1.3 0 0 0 .29-.668c-.165-.45-.427-.558-.845-.764m56.084.564-1.968 1.147 13.518.001 1.876-.013c-.647-.367-1.308-.72-1.931-1.128-3.809-.01-7.694-.184-11.495-.007m-8.024.127-1.09.615a58 58 0 0 0 1.779 2.33l.939-.704c-.51-.77-.999-1.56-1.628-2.241m-42.224.37c.014.435-.023.645.206 1.022.687.266 5.885.109 7.079.115l30.02-.017c.098-.383.201-.601.099-.988a.83.83 0 0 0-.567-.21c-1.255-.041-2.556.055-3.815.059l-9.715.006c-7.754-.02-15.558-.192-23.307.014m-3.665.451a28 28 0 0 0-1.511 1.885l.921.57a29 29 0 0 0 1.573-1.687c-.282-.256-.623-.648-.983-.767m72.884.009c-.295.563-.602 1.122-.856 1.705.34.291.677.586 1.037.852l.251.076c.288-.484.115-1.315-.024-1.84-.086-.32-.145-.589-.407-.793m-99.604.17-.999.575c-.087.802-.353 1.854-.114 2.623.19.14.147.175.345.144.347-.054.667-.386.925-.61.464-.36.957-.676 1.245-1.201.022-.332.044-.437-.186-.712-.266-.318-.859-.6-1.216-.818m70.577 1.177c-.091.566-.238 1.219.15 1.711.154.195.307.23.526.332.23-.016.413-.05.632-.122.065-.393.029-.412-.205-.737-.29-.404-.708-.888-1.103-1.184m5.678.638-1.678 1.322 21.335-.102 1.853-.07c-.512-.371-1.018-.77-1.553-1.108-6.645-.04-13.313-.117-19.957-.042m-47.813.168c-.381.388-.877.773-1 1.319.086.284.237.388.459.575l.215.078c.343-.448.302-1.416.326-1.972m2.16.41c.002.523.015 1.024.082 1.544.105.815-.488 2.012-.298 2.533.759.406 2.23-.011 3.076-.144.231-.175.267-.184.317-.484.045-.275.02-.569.01-.847l-.168-.198c-.504-.038-1.372.095-1.786-.15-.101-.29-.138-.225 0-.532.584-.265 1.754-.165 1.963-.881a.87.87 0 0 0-.146-.807c-1.012-.08-2.035-.043-3.05-.035m5.017-.028q-.072 10.284-.02 20.57 8.862.085 17.724.052c3.263-.008 6.545.043 9.805-.09.263-2.584.143-5.25.14-7.847l.002-12.583h-19.991c-2.552-.005-5.11-.152-7.66-.102m29.534.054c-.147.105-.22.1-.251.287-.059.352-.082.55.056.894.523.358 1.532.184 2.181.184.197-.105.241-.068.274-.296.006-.047-.032-.218-.042-.27l.073.162c.064-.377.087-.407-.084-.743-.666-.352-1.476-.239-2.207-.218m7.786 2.32c-.657.37-1.312.746-1.975 1.108q14.075.212 28.15.162c.44.02.858.056 1.291-.034.257-.256.247-.258.281-.621-.142-.268-.154-.369-.462-.463-1.157-.355-7.688-.084-9.363-.09l-11.692-.043c-2.069-.011-4.163-.095-6.23-.019m-7.957.474c.002.487-.06.773.189 1.199.618.362 1.582.168 2.286.127.008-.483.079-.765-.17-1.187-.627-.34-1.596-.155-2.304-.139m19.659.995a10 10 0 0 0-.357 1.511c-1.663.06-12.97-.18-13.49.108-.148.209-.261.338-.22.616.016.104.099.282.142.382l.28.104c4.116.07 8.312-.171 12.41.11.49-.561.942-1.164 1.446-1.71.005-.425.046-.756-.212-1.12m2.042 1.077.075.23.133-.046-.087-.205zm-55.568.232c-.333.173-.544.213-.675.603-.1.299-.024.848-.014 1.168.884-.019 1.79-.001 2.666-.13.222-.049.447-.023.574-.229.147-.241.156-.46.193-.735l-.126-.365c-.773-.287-1.766-.078-2.617-.312m56.877-.01-.49.344-.035.195c.578.558 1.164 1.093 1.72 1.674l-.012-.137a6 6 0 0 1-.016-.443c.278-.099.127-.09.432.005.207.064.362.093.58.078a2.6 2.6 0 0 1-.092.479h.272c.178-.19.266-.35.369-.588 1.82-.395 6.054-.099 8.12-.1.484.007.966.01 1.45.043.254.017.404-.02.639-.133.2-.377.093-.674-.003-1.087l-8.29.008c-1.181 0-2.524.118-3.688.001-.33-.033-.71-.103-.956-.339m-22.996.474c0 .488-.06.823.184 1.262.594.339 1.545.144 2.223.147.004-.486.064-.813-.175-1.254-.575-.345-1.564-.156-2.232-.155m17.447 2.201c-.097.09-.299.333-.408.379-.582.242-7.36.04-8.617.031-.65-.004-1.549-.127-2.165.048-.379.108-.52.2-.651.552.128.32.181.362.455.578.307.03.599.048.908.044 3.604-.002 7.233-.09 10.834.038.183-.441.355-.891.553-1.326-.308-.159-.558-.357-.909-.344m-52.04.342c-.012.401-.104 1.082.144 1.404.184.24.42.336.714.346.712.026 1.505-.359 2.219-.46l.222-.079c.065-.343.072-.653.066-1-.628-.47-2.527-.213-3.364-.21m59.063.15c-.019.555-.055 1.117-.035 1.673 3.087-.714 8.62-.361 11.904-.356.14-.257.17-.641.094-.927-.034-.13-.058-.15-.125-.247-1.825-.376-7.214-.08-9.394-.079-.78.001-1.686.088-2.444-.065m-24.445.056.005 1.414 2.398.008.001-1.42zm-34.607 1.959c-.035.621-.152 1.309.084 1.896.25.207.393.316.733.3.818-.04 1.51-.254 2.367-.227.247-.362.149-.998.142-1.425-1.18-.077-2.194-.175-3.326-.544m52.209.428c-.114.178-.169.387-.386.438-.622.144-1.468.05-2.119.049-1.659-.001-8.306-.318-9.395.118a2.7 2.7 0 0 0-.071.957c.28.16.374.123.688.124l8-.01c.896.002 1.912.163 2.787.069.35-.038.596-.167.879-.366.132-.241.198-.38.2-.656-.105-.239-.328-.618-.583-.723m-17.619.55c-.003.47-.065.758.165 1.175.645.37 1.576.152 2.304.162 0-.472.068-.787-.175-1.197-.606-.357-1.6-.14-2.294-.14m24.44-.09-.002 1.494c4.198-.108 8.406-.048 12.606-.038-.032-.389-.019-.798-.228-1.138-.91-.242-2.14-.094-3.085-.093-3.037.002-6.288.231-9.291-.225m-7.047 2.334c-.286.358-.343.504-.823.562-2.05.243-9.662-.367-10.762.159-.214.265-.232.293-.263.63.117.255.137.47.443.533.085.017.257.01.348.008 1.588-.002 11.174.223 11.838-.272.138-.285.155-.428.055-.737-.18-.56-.343-.613-.836-.884m-51.963.149a11 11 0 0 0-.052 1.619q1.605-.065 3.205-.2c.213-.316.159-.56.167-.937-.223-.33-.428-.436-.826-.497-.787-.119-1.696-.014-2.493.015m34.575.448c-.005.46-.061.734.158 1.143.63.414 1.578.184 2.304.195 0-.484.057-.769-.178-1.198-.612-.363-1.585-.136-2.284-.14m24.466.239c-.007.384-.083.927.093 1.268 1.393.148 2.87.002 4.274-.004l8.508-.01c.048-.372.04-.63-.025-.999-.242-.278-.34-.215-.698-.242-1.324-.098-2.717-.016-4.05-.013zm-59.096 2.11c.011.638.008 1.28.041 1.917a39 39 0 0 0 3.23-.19c.056-.495.186-.994-.06-1.448-.734-.625-2.29-.31-3.21-.279m52.023.222-.25.46c-2.007.523-10.247-.412-11.477.258-.117.32-.083.363.009.697.323.334.454.264.906.29l11.14-.02c.173-.479.493-1.101.442-1.61-.325-.18-.48.061-.77-.075m-17.38.304c-.004.497-.067.791.175 1.232.364.215.57.188.971.177.411-.012.826-.024 1.237-.021.018-.423.11-.876-.152-1.236-.365-.217-.589-.2-.992-.185q-.62.023-1.24.033m25.46.256c-.28.052-.522.096-.784.214-.113.332-.147.937.035 1.25.08.139.19.11.337.127 1.301.158 2.74.05 4.055.054q4.106-.004 8.211.04l.39-.08c.185-.332.22-.394.214-.77-.318-.417-.59-.51-1.106-.572-1.915-.233-10.44.37-11.316-.18zm-59.763 1.411c-.263.227-.318.344-.34.697-.024.407.026.844.049 1.252h3.062c.258-.206.319-.353.34-.69.023-.376-.061-.742-.334-1.012-.65-.644-1.954-.306-2.777-.247m34.519 1.24c-.016.425-.086.641.139 1.01.554.278 1.292.108 1.903.143.111-.34.163-.535.125-.901-.549-.492-1.472-.256-2.167-.251m5.413.214c-.01.35-.097.815.121 1.107 1.084.186 2.305.08 3.407.076l5.716-.025q11.594-.048 23.185-.326c.17-.236.191-.18.16-.493-1.041-.637-29.416-.341-32.589-.339m-75.329 2.282c-.102.442-.217.692-.088 1.133.213.143.374.2.624.259.105-.361.237-.663.101-1.034-.209-.204-.36-.269-.637-.358m1.7.137c-.03.377-.103.707.124 1.036.273.133.465.173.769.195.043-.347.14-.693-.037-1.015-.304-.206-.502-.198-.857-.216m1.873.017c.008.4-.055.672.177 1.005a3 3 0 0 0 .795.135c-.002-.431.072-.686-.185-1.041a5 5 0 0 0-.787-.099m2.133-.002c-.086.316-.188.56-.05.878.255.228.463.25.788.318.09-.343.16-.577.062-.931-.31-.245-.418-.226-.8-.266m2.008-.028c-.062.404-.133.579.023.964.244.147.433.218.71.28.108-.352.205-.585.074-.95-.272-.246-.457-.248-.807-.293m2.076.002c-.112.308-.253.573-.142.901.262.216.443.23.767.28.08-.324.18-.582.03-.901-.233-.167-.371-.236-.655-.28m1.924.053c-.095.364-.169.481-.044.845.3.198.582.216.928.257.054-.373.106-.518-.035-.874-.302-.187-.504-.198-.849-.228m13.805.005c-.202.313-.288.397-.303.778.25.291.477.323.833.4.144-.347.234-.46.162-.836-.233-.197-.398-.262-.692-.342m2.035-.038c-.192.246-.38.431-.376.762.234.31.384.338.736.486.14-.358.207-.463.148-.852-.173-.168-.293-.28-.508-.397m3.596.066c-.165.299-.213.368-.21.704.32.297.552.334.99.343.095-.382.123-.384-.053-.73a4.4 4.4 0 0 0-.727-.317m2.075-.054c-.19.3-.279.4-.302.76.254.3.404.304.773.419.193-.29.248-.351.266-.694-.218-.32-.388-.36-.737-.485m1.848.017c-.107.363-.18.494-.088.868.293.205.483.21.828.24.07-.378.146-.503-.025-.857a3.7 3.7 0 0 0-.715-.25m1.919-.032c-.132.37-.2.464-.107.856.268.218.43.238.76.288.074-.39.139-.512-.017-.885a1.9 1.9 0 0 0-.636-.259m1.894-.014c-.118.38-.175.492-.087.89.257.207.404.258.73.307.059-.392.118-.553-.026-.93-.216-.143-.36-.22-.617-.267m1.884.01c-.148.324-.252.513-.166.878.302.24.426.225.801.27.085-.358.139-.462.02-.82a1.5 1.5 0 0 0-.655-.328m1.868.01c-.165.362-.241.467-.201.872.23.257.424.261.748.323.145-.345.228-.446.158-.822-.238-.207-.402-.285-.705-.373m1.964-.004c-.186.273-.332.423-.31.767.227.302.324.325.677.473.205-.32.281-.399.299-.788-.198-.285-.355-.331-.666-.452m1.904-.007c-.195.255-.369.431-.363.77.145.322.34.389.637.55.212-.3.313-.423.31-.806-.182-.305-.268-.338-.584-.514m1.899-.004c-.209.287-.35.457-.347.83.204.29.314.313.642.461.165-.323.271-.454.252-.821-.175-.215-.302-.338-.547-.47m1.73 0c-.143.321-.246.524-.185.888.198.254.334.305.637.405.166-.365.248-.479.212-.887-.223-.238-.35-.315-.663-.407m1.845.015c-.128.332-.215.504-.139.866.214.243.357.3.665.394.148-.335.232-.515.204-.892-.183-.244-.223-.292-.539-.35-.063-.01-.127-.012-.191-.018m1.784-.023c-.082.36-.187.65-.03 1.005.267.18.413.204.733.218.058-.362.102-.582-.056-.93-.229-.19-.354-.245-.647-.293m2.034.008c-.168.34-.305.504-.268.887.199.215.352.305.62.422.195-.33.248-.411.26-.79-.212-.31-.273-.351-.612-.52m1.663.03c-.014.416-.08.612.148.969.264.077.48.112.754.119.01-.378.054-.537-.137-.87a2.2 2.2 0 0 0-.765-.218m2.039-.027c-.155.327-.261.517-.184.89.29.264.49.307.873.342.119-.374.185-.478.084-.865a1.8 1.8 0 0 0-.773-.367m3.988.004c-.163.344-.262.478-.237.864.252.278.415.317.763.412.207-.323.258-.38.264-.758-.216-.325-.442-.39-.79-.518m-49.796.133c-.142.313-.258.438-.183.781.277.175.54.194.856.234.168-.274.236-.345.242-.661-.312-.282-.505-.293-.915-.354m1.858.029c-.071.36-.118.434.025.764.3.157.489.184.818.21.095-.326.169-.442.07-.773-.285-.197-.58-.183-.913-.201m2.081.012c-.092.363-.14.423-.007.766.335.162.6.163.962.167.1-.368.15-.425.018-.776-.339-.154-.61-.154-.973-.156m1.951-.023c-.106.364-.148.384.002.724.296.151.525.232.856.297.082-.355.144-.487.036-.841-.294-.202-.553-.178-.894-.18m1.85 0c-.004.37-.063.55.153.86.291.062.555.09.853.098-.018-.381.018-.54-.208-.856a3.8 3.8 0 0 0-.797-.102m2.011-.003c-.09.354-.152.442-.02.793.273.146.48.19.781.241.086-.369.147-.498.032-.866-.294-.173-.463-.166-.793-.168m5.618.007c-.037.38-.085.5.094.846.355.112.649.101 1.014.086-.047-.396-.027-.504-.29-.82a3.2 3.2 0 0 0-.818-.112m32.279-.02c-.1.356-.168.452-.046.809.273.164.489.228.793.303.073-.35.16-.608-.002-.948-.264-.167-.438-.162-.745-.164m4.077-.032c-.133.342-.229.477-.164.845.317.242.737.18 1.118.183.013-.238.084-.378-.078-.574-.22-.267-.544-.386-.876-.454m2.512.32c-.287.124-.582.179-.751.448.154.257.303.316.57.44.275-.192.416-.209.51-.548-.107-.135-.178-.253-.329-.34m.764.474.168.188c.132-.024.3-.04.426-.084l-.174-.166zm1.076-.011c.388.316.961.21 1.447.178-.31-.269-.572-.266-.975-.232-.157.013-.315.034-.472.054m1.993-.112-.287.209c.292.198.616.172.961.201l.219-.19c-.256-.222-.562-.184-.893-.22m1.851.098c.16.18.136.232.393.25a3.7 3.7 0 0 0 .736-.036c-.42-.244-.656-.24-1.129-.214m1.756-.004c.113.159.135.286.34.32.269.043.503-.026.761-.088l-.11-.195a5 5 0 0 0-.991-.037m1.996-.004v.214c.346.096.654.083 1.008.073l-.046-.25c-.334-.12-.619-.073-.962-.037m3.813.008.189.248c.155-.007.325-.004.478-.027l.033-.223c-.25-.055-.448-.029-.7.002m1.837.006c.226.22.284.262.621.249.075-.003.149-.02.223-.031l.023-.212c-.32-.087-.544-.048-.868-.006m-3.425.133.272.12.272-.116-.273-.118zm5.62.001c.315.092.355.095.67.006-.341-.135-.325-.133-.67-.006m2.251.001c.216.06.212.102.425.002l-.268-.091zm1.737.028.17.103.097-.043-.068-.178zm1.846-.002.19.145.172-.073-.14-.157zm2.151.016.14.079.048-.025-.087-.114zm2.004.012.106.047zm1.954.005.11.038zm1.752.067h.157zm3.764.06.076.037zm2.065-.019.073.03zm-27.106 1.226c-.232.273-.315.327-.362.676.203.297.434.341.759.441.184-.29.25-.361.26-.7-.202-.263-.344-.315-.656-.417m1.87-.026c-.141.313-.212.413-.182.75.235.215.405.283.71.373.114-.353.175-.447.082-.816-.208-.143-.365-.243-.61-.308m1.994-.015c-.183.313-.286.403-.258.772.232.196.419.296.702.405.17-.268.27-.403.255-.727-.244-.299-.331-.316-.699-.45m1.716.038c-.094.355-.154.438-.022.79.27.155.47.194.772.244.086-.356.13-.459.031-.805-.284-.182-.455-.2-.781-.229m2.013-.012c-.108.356-.185.436-.046.792.263.112.46.172.746.195.104-.344.177-.431.051-.778a1.8 1.8 0 0 0-.751-.21m1.853.026c-.092.363-.149.419 0 .755.306.151.505.173.839.194.1-.344.158-.433.058-.772-.33-.17-.536-.17-.897-.177m1.88 0c-.012.363-.076.536.133.84.301.056.574.08.879.09-.029-.384.007-.53-.237-.836a4 4 0 0 0-.775-.094m1.881.024c-.021.331-.063.466.093.765.311.111.544.132.869.145-.001-.36.046-.531-.155-.836a3.7 3.7 0 0 0-.807-.074m1.984-.04c-.091.353-.154.438-.019.788.268.117.501.194.788.249.063-.39.147-.545-.036-.903a2.6 2.6 0 0 0-.733-.135m2.031-.029c-.166.317-.261.4-.208.762.219.16.39.247.649.328.197-.29.264-.366.295-.71-.248-.291-.374-.282-.736-.38m1.857.046c-.136.337-.183.37-.088.714.288.143.518.212.83.274.058-.321.117-.471.011-.785-.265-.162-.451-.173-.753-.203m1.99-.039c-.156.317-.213.353-.144.693.234.198.43.313.714.433.138-.368.272-.537.163-.921a2 2 0 0 0-.732-.205m1.893.028c-.098.33-.132.4-.046.728.258.208.41.266.737.323.1-.36.191-.503.07-.862-.266-.152-.458-.168-.761-.189m1.988 0c-.12.345-.194.426-.082.783.305.15.528.2.858.246.053-.373.102-.508-.042-.864-.262-.12-.447-.15-.734-.165m1.874-.006c-.04.38-.088.504.082.855.306.118.489.095.807.063.013-.363.067-.486-.143-.792a3.4 3.4 0 0 0-.746-.126m1.873.019c-.024.358-.04.453.111.773.335.144.505.128.868.042.035-.371.071-.408-.13-.714-.32-.111-.519-.117-.849-.101m1.953-.058c-.143.33-.23.407-.138.763.19.105.378.215.572.312.103-.32.135-.457.033-.78-.172-.153-.246-.214-.467-.295m-38.614.171c.016.353-.029.489.2.768.205.03.397.06.605.062.016-.358.088-.475-.152-.756zm1.768.025c-.075.379-.12.409.064.74.285.12.514.168.82.2.108-.335.18-.428.072-.772-.325-.18-.597-.166-.956-.168m1.985-.017c-.039.356-.088.448.084.755.28.121.497.166.801.192.11-.363.163-.432.05-.787-.332-.159-.578-.16-.935-.16m2.01-.018c-.055.375-.097.442.072.774.261.107.459.154.74.174.118-.325.182-.412.108-.744-.292-.223-.57-.197-.92-.204m-29.16.615-46.891.164q-3.558 17.782-6.615 35.656c4.365-.123 8.74-.412 13.104-.598 13.07-.558 26.211-1.14 39.293-1.116.04-.618.065-1.24.126-1.855l.725-10.112c.159-1.984.165-4.202.763-6.105.414-1.316 1.15-2.548 2.21-3.444 1.667-1.409 3.733-1.882 5.87-1.693 2.074.184 3.998.98 5.358 2.615.65.781 1.07 1.677 1.337 2.651.582 2.123.645 4.543.838 6.737q.482 5.579.898 11.163c4.384-.019 8.77.264 13.149.219-.448-1.482-.924-2.967-1.3-4.47-.249-.993-.388-2.013-.65-3.004-.3-1.133-.699-2.24-1-3.375-.57-2.153-.907-4.305-1.907-6.316.146-.82.37-1.64-.164-2.379-.234-.324-.544-.597-.838-.865.228-.708.571-1.435.212-2.16-.159-.32-.5-.575-.77-.792.262-.624.697-1.367.347-2.037-.235-.452-.794-.757-1.206-1.032.223-.632.418-1.243.565-1.897a11.7 11.7 0 0 0-1.515-1.402c.28-.56.726-1.196.466-1.839-.212-.525-.828-.842-1.067-1.33-.228-.463.142-.982-.123-1.427-3.14-.094-6.29-.006-9.432.012zm53.939 2.002-29.911.074c.066.428.08.91.382 1.242 1.639.337 6.936.062 8.903.048l29.901.065c-.093-.482-.172-.971-.284-1.45q-4.496-.021-8.991.02m-29.169 3.155c.14.432.236.86.553 1.199 1.524.174 3.108.079 4.64.066l7.227-.037 26.312-.036-.136-1.215h-26.747c-3.941 0-7.911-.096-11.849.023m20.375 2.411c-.188.263-.247.468-.584.529-1.573.282-3.832.064-5.457.064l-13.317-.002.337 1.27 10.487-.042c2.684-.01 5.45.192 8.089-.376.206.269.14.536.093.86l-.018.105 1.134-1.108.191.15c.26.204.592.489.93.531 1.158.146 2.97-.097 4.203-.104l8.368-.022c1.212 0 2.623.143 3.817-.013.234-.03.339-.026.504-.204-.021-.345.003-.663-.232-.94-1.38-.335-3.228-.106-4.671-.103l-9.993.019c-1.085 0-2.503.16-3.544-.118l-.098-.171c-.137-.23-.073-.143-.24-.325m-.766 2.628c-.325.31-.649.613-.943.953-.164.19-.288.27-.528.357a1.5 1.5 0 0 1-.476-.157c-.799-.411-14.234-.18-15.66-.082l-.157.196c.042.281.055.534.238.766 1.44.518 10.871.165 12.938.155.701-.004 1.525-.104 2.21-.023.328.039.59.576.75.826l.11-.06c.171-.087.105-.057.314-.106.396.526.126 2.619.102 3.324-.072.36-.052.431-.319.673-1.171.38-10.104.14-11.941.135-.752-.002-1.938-.153-2.62.09.039.397.125.631.298.99.487.305 12.787.148 14.35.119.715-1.974.366-3.68.649-5.678.117-.826.445-1.623.68-2.419.006-.018.003-.039.005-.059m2.722.927c-.03 1.698-.089 3.566.052 5.252.036.435.436 1.178.245 1.553-.038-.06-.073-.123-.116-.18-.02-.027-.048-.047-.071-.07l-.23.134.078.177.022-.227-.106.057c-.905.475-1.68.165-2.508.47.244.155.487.14.767.145 1.126.02 2.264-.127 3.397-.13l13.339.002c.89.014 2.565.291 3.242-.343.01-.333-.014-.37-.186-.657a1.64 1.64 0 0 0-.872-.254c-1.253-.044-2.563.094-3.83.092l-12.811.012c.066-1.167.587-5.1-.318-5.967-.028-.026-.062-.044-.094-.066m.593.066c.027.394.013.748.184 1.108 1.816.2 3.776.056 5.607.053l10.86-.01c-.067-.382-.088-.762-.295-1.096-1.932-.264-4.08-.071-6.041-.07-3.435.004-6.882-.058-10.316.015m-40.133 2.65c-1.657.332-3.188 1.017-4.13 2.499-.493.776-.808 1.67-1.01 2.563-.454 2.012-.55 4.19-.7 6.246l-.567 8.89 1.604-.019c.25-3.048.347-6.115.506-9.17.117-2.268.081-4.818.77-6.995.262-.827.678-1.508 1.338-2.08.833-.723 1.825-1.159 2.937-1.097q.065.004.129.013l.143.038c1.359.382 2.431 1.21 3.126 2.447 1.316 2.339 1.365 10.39 1.481 13.492.032.845-.105 2.036.067 2.835.061.285.154.346.363.53.344.057.626.07.974.053l.174-.14c.184-2.206-.753-13.198-1.322-15.322-.283-1.06-.74-2.041-1.464-2.874q-.091-.108-.188-.21-.097-.103-.2-.2-.102-.098-.209-.19t-.219-.179q-.111-.086-.227-.167-.116-.08-.236-.155-.12-.074-.244-.142-.124-.069-.25-.13-.127-.062-.258-.118-.13-.055-.262-.103-.133-.048-.268-.09t-.272-.076q-.137-.035-.275-.062-.139-.028-.279-.048t-.28-.034-.281-.019a4 4 0 0 0-.471.014m34.427.285c-1.993.023-13.242-.203-14.17.145-.192.233-.19.251-.207.555.114.258.161.419.417.558l.348.013 9.747-.06c1.164-.008 2.385.104 3.537.036a1.9 1.9 0 0 0 .895-.253c.168-.29.1-.571.068-.888-.271-.174-.325-.121-.635-.106m18.253.002c-1.558.006-11.772-.156-12.194.227.056.318.06.524.34.736.798.605 3.3.21 4.327.227 1.575 0 11.386.195 12.037-.126.085-.183.143-.202.072-.412-.112-.327-.327-.495-.64-.625-.748-.31-3.007-.029-3.942-.026m-151.902.101c.28.142.454.304.77.25l.106-.12.006-.166a5 5 0 0 0-.882.036m.986.524h.103zm24.103.376.163.2.248-.146-.117-.173zm96.04 5.122-.247.102c-.003.434.168.796.323 1.194l36.204.02c.163-.395.062-.88-.047-1.291-12.07-.034-24.163-.168-36.233-.025m.474 3.168c.12.393.212.93.527 1.202 1.626.161 3.285.082 4.918.073q3.661-.028 7.323-.016c7.814.019 15.662.151 23.474-.052-.022-.463.01-.693-.233-1.095a1.03 1.03 0 0 0-.527-.154c-3.21-.039-6.438.042-9.651.041zm.865 3.025.43 1.327c11.857.016 23.738.12 35.593-.068-.026-.404.002-.839-.228-1.186-1.266-.191-2.659-.075-3.942-.07l-7.412.027zm.765 3.117.337 1.3c11.833-.025 23.687.138 35.517-.031-.032-.394-.013-.901-.243-1.229-1.357-.167-2.792-.077-4.162-.076l-7.081.006zm.727 3.046.47 1.427c11.657-.06 23.332.171 34.985-.054.008-.421.063-.796-.182-1.162a.9.9 0 0 0-.474-.151c-1.631-.064-3.295.007-4.929.01l-9.682-.02c-6.715-.02-13.476-.195-20.188-.05M104.892 47.49l.775-.86c2.971-.083 5.948.034 8.92.042 1.776.004 3.727-.205 5.475.03-.364.201-.931.171-1.342.2-4.567.624-9.227.642-13.828.588m89.764 2.449q-7.424-.015-14.847.067c-1.614.012-4.589.269-6.068-.034-.638-.13-1.465-.672-1.825-1.203.27-.23.807-.188 1.168-.216 3.245-.266 6.663-.086 9.922-.093 3.631-.008 7.351-.18 10.972.044.493.345 1.375.797 1.588 1.34-.274.181-.597.113-.91.094m-134.14.185c.632-.456 1.224-.992 1.821-1.492 7.354.218 14.769.018 22.13.006 3.005-.005 6.077-.138 9.075.068-.682.483-1.383.899-2.112 1.307-.956.376-27.678.131-30.914.11m77.312.365c3.072-.703 6.007-.849 9.142-.93 3.276-.098 7.663-.209 10.573 1.426-3.031.11-6.009.27-9.049.257-3.585.005-7.132-.125-10.667-.753m-35.611.906c1.073-.365 2.132-.415 3.254-.468 2.73-.097 5.415.204 8.118.541q-1.524.191-3.057.279c-2.762.162-5.608.3-8.315-.352m77.407 2.829-2.01-1.54c7.123.255 14.294-.06 21.424.05.538.474 1.053.98 1.577 1.469zm-124.353.243c.726-.487 1.412-1.051 2.106-1.583l11.348-.026c2.29-.008 4.6-.096 6.888.037-.235.333-.478.668-.763.96-.37.38-.675.443-1.193.457-6.125.02-12.263-.023-18.386.154m83.745.374c1.867-.236 3.726-.438 5.606-.534 1.541-.131 3.138-.078 4.687-.079 4.245-.002 8.342.184 12.548.778-1.88.25-3.744.353-5.637.424-4.665.305-12.794.631-17.204-.59m-44.424 1.912c1.916-.266 3.824-.372 5.755-.445 4.31-.076 8.714-.078 12.983.577-1.917.139-3.843.213-5.763.317-3.672.11-9.538.41-12.975-.45m109.961 1.656-12.066.036c-1.763.011-5.024.305-6.63-.066-.858-.198-1.84-.996-2.577-1.474 6.686.003 13.384-.085 20.069.024.378.525.765 1.003 1.204 1.48m-152.776.179c.513-.473.973-.956 1.425-1.487 6.335.122 12.687-.024 19.024 0-.288.498-.567 1.14-1.094 1.395-6.428.005-12.937-.193-19.355.092m91.124.685c3.215-.164 6.442-.163 9.661-.206 6.035-.146 14.405-.428 20.088 1.32-1.381-.031-2.773.117-4.152.188q-2.887.151-5.778.18l-10.251.105c-1.941.01-4.086.19-5.989-.177-1.307-.252-2.416-.781-3.58-1.41m49.693 3.352q-.852-.776-1.731-1.521c5.388.19 10.813-.046 16.206-.007l1.221 1.556c-5.203.04-10.502.215-15.696-.028M49.476 61.359c2.14-.056 4.29-.032 6.431-.046q6.34-.049 12.68-.013c-.375.514-.79 1-1.193 1.493-2.222-.077-4.453-.018-6.675.002q-6.182.076-12.363-.006c.343-.5.737-.961 1.12-1.43"/><path d="M77.217 62.015c2.051-.401 4.048-.504 6.129-.584 3.585-.184 7.239-.06 10.832-.056 6.327.008 12.58-.013 18.882.636-2 .263-4.01.542-6.029.61-5.36.21-10.742.144-16.107.109-4.236-.028-9.585.182-13.707-.715m72.452 2.803 3.095-.138c7.932-.347 17.216-.069 25.124.645 2.142.194 4.259.566 6.398.785-.992.165-2.022.178-3.025.236-4.836.188-9.668.149-14.507.137-4.192-.01-8.476.118-12.632-.483a19.5 19.5 0 0 1-4.453-1.182m48.391 1.922-1.428-1.44c1.48.146 3.06.04 4.55.044q4.531-.013 9.06.064c.444.536.964.999 1.472 1.472-4.541-.007-9.118.076-13.653-.14m-153.094.229c.345-.466.715-.916 1.074-1.372 6.113.224 12.301.033 18.421.01-.38.451-.799.855-1.22 1.267-.891.362-15.895.101-18.275.095m32.646.409c-1.98.226-4.77.664-6.672.065l-.013-.113.237-.154c2.187-.14 4.625-.21 6.798.025l.034.118zm7.583-.128-.07-.093zm0 0c2.878.074 21.741-.134 22.863.425l-.775.203c-5.024.896-11.828 1.543-16.81.722-1.769-.292-3.543-.891-5.278-1.35m116.442 3.71c-.456-.45-.816-.945-1.19-1.462h12.87c.425.474.743.914 1.068 1.462-4.143.245-8.59.1-12.748 0m-159.483.199c.3-.503.669-.962 1.021-1.428 2.651-.042 5.308-.01 7.96-.012-.524.393-.958.838-1.408 1.31-.758.486-6.29.166-7.573.13m113.205.135c3.47-.446 6.864-.654 10.36-.736 4.705-.065 16.059-.555 20.14.862-3.41.407-6.736.573-10.173.59l-9.855.025c-3.446-.006-7.143.239-10.473-.742M67.56 72.73c.915-.559 1.552-.746 2.619-.81 2.571-.036 5.158-.135 7.729-.07-1.066.254-2.165.337-3.253.45-2.323.334-4.75.38-7.094.43m-42.498 46.942q.183-.558.412-1.099c.723-1.731 1.798-3.287 2.992-4.727 3.1-3.74 6.933-7.009 10.552-10.235 2.134-1.902 4.263-3.966 6.616-5.597 1.967-1.364 4.327-2.036 6.252-3.51 1.752-1.341 3.237-2.989 4.853-4.484q2.133-1.983 4.403-3.805t4.668-3.475c4.198-2.84 8.892-4.419 13.303-6.818 2.154-1.172 3.75-3.094 6.05-4.028.144-.017.29-.036.435-.045.992-.062 2.007.093 2.974.3 2.17.466 4.247 1.33 6.406 1.833 1.094.255 4.148.416 4.878 1.06-.008.056-.012.114-.024.17-.22.986-1.795 1.337-2.64 1.398-.96.07-1.98-.134-2.933-.25-2.08-.25-4.384-.596-6.48-.451-3.18.217-6.98 4.824-9.727 6.572 5.563-.716 11.46-.183 17.028.257-3.892.537-7.66.835-11.594.755-2-.041-5.063-.578-6.864-.3-1.187.183-2.404.75-3.55 1.122-1.386.449-2.737.888-4.037 1.559-5.289 2.729-8.503 8.103-13.327 11.486-2.404 1.685-4.979 2.852-7.59 4.168q-2.658 1.373-5.253 2.863c-5.888 3.269-14.293 9.54-17.803 15.28m180.041-44.548-1.543-1.5 12.501.031c.38.516.794.996 1.214 1.479-4.053.104-8.118.035-12.172-.01m-165.885.367c.239-.52.563-1.016.851-1.511 2.288-.017 4.58-.064 6.867.026l-1.026 1.44c-.799.27-5.483.052-6.692.044m125.806 1.137c2.852-.639 5.908-.718 8.82-.82 5.127-.333 10.392.006 15.506.416q-4.588.54-9.199.806c-3.946.444-11.231.342-15.127-.402m44.313 2.612c-.493-.358-1.566-1.01-1.78-1.555 3.78.165 7.611.051 11.4.079.278.477.508.974.744 1.473-3.447.078-6.916.043-10.364.003M51.47 79.121c.326-.387.644-.745 1.023-1.082 4.744-.138 9.51.102 14.257.119l-2.091.439c-4.236.711-8.904.683-13.19.524m-14.882.659c.246-.523.541-1.02.827-1.521 1.936-.051 3.882-.005 5.819.003-.379.434-.787.847-1.182 1.266-.851.605-4.319.278-5.464.252"/><path d="M91.335 78.958c-1.506.073-3.529.444-4.987.106-.278-.065-.177-.004-.338-.245l.446-.159c1.848-.094 3.733-.113 5.567.16zm137.985 33.828c-1.754-1.657-6.647-4.633-8.907-5.75-2.407-1.19-4.81-2.172-7.077-3.64-1.953-1.264-4.029-2.555-5.82-4.032-1.217-1.002-2.331-2.146-3.503-3.201-3.147-2.837-6.52-5.67-10.207-7.789-1.109-.637-2.433-.753-3.611-1.226-1.605-.644-3.096-1.586-4.684-2.283-2.974 1.026-4.405-1.546-7.01-1.16-1.819.27-3.165 1.987-4.735 2.82-2.922 1.55-8.751 2.373-12.046 2.52-1.395.063-2.789-.019-4.18-.117q3.164-1.002 6.34-1.969c1.135-.334 2.32-.587 3.437-.967 3.261-.982 5.647-2.443 8.31-4.528 1.124-.88 2.304-1.828 3.71-2.21 1.936-.525 4.007.09 5.956.196 3.093.168 6.14.208 9.224.56-3.03.304-6.013.522-9.056.226l.197.146c3.175 2.297 7.279 3.255 10.544 5.415 1.314.87 2.2 2.325 3.43 3.323 2.115 1.719 4.715 3.023 6.643 4.924 1.685 1.663 3.397 4.204 5.162 5.59 1.383 1.085 3.057 1.853 4.597 2.694 2.838 1.547 5.825 3.132 8.446 5.023 1.799 1.298 4.102 3.258 4.84 5.435m-7.34-29.428-.097.008c-2.055.154-5.663.534-7.529-.262-.678-.29-1.279-.828-1.834-1.305 2.899-.045 5.809.067 8.709.076.263.488.505.986.75 1.483m-174.723.234c.568-.643.896-1.016 1.758-1.17 2.97.041 6.968-.13 9.824.526-.71.136-1.447.2-2.166.287-3.132.214-6.278.263-9.416.357m-13.097.888.83-1.843 4.07.005-1.474 1.425c-.035.039-.067.081-.105.118-.487.465-2.618.285-3.321.294m189.991 3.39c-.709-.24-1.47-.073-2.203-.171-1.293-.172-2.752-1.185-3.89-1.806 1.75.104 3.504.089 5.256.094zm-181.106.27c.556-.398 1.095-.801 1.713-1.1 3.069-.066 6.17-.106 9.236.053a28 28 0 0 1-2.713.478c-2.581.559-5.596.497-8.236.569m-10.374.726a1.9 1.9 0 0 1-.656.264l-.111-.17c.179-.673.625-1.28.983-1.873.343.032.598.064.921.195l.084.216c-.187.524-.819.986-1.22 1.368m36.445-.045c4.159-1.72 10.455-1.423 14.98-1.641 2.549-.108 5.172-.084 7.721.02-2.361.352-4.706.829-7.071 1.143-2.589.345-5.19.498-7.796.645-2.64.058-5.209.266-7.834-.167"/><path d="M180.929 88.68c.828-.118 1.665-.18 2.498-.255q.851-.048 1.703-.025t1.7.118q.846.095 1.682.26.837.166 1.656.401c-.75.14-1.506.227-2.262.322-2.475.223-4.621-.057-6.977-.821M38.595 92.473a64 64 0 0 1 6.126-.545c1.615-.104 3.263-.07 4.881-.032-1.799.475-3.74.7-5.588.857-1.863.22-3.583.057-5.419-.28m155.06.88c-1.294.116-2.607.195-3.907.162-.884-.022-3.338-.26-3.935-.886l.108-.134.77-.07c2.294-.16 5.505-.3 7.593.751l-.078.104zm-127.699.902c2.442-.795 5.01-.85 7.553-.942 4.288-.207 8.734-.237 13.008.149-2.635.406-5.233.858-7.892 1.08-3.594.372-9.165.532-12.669-.288m121.846 2.134a47 47 0 0 0 4.918-.216c3.306-.145 6.721.237 9.975.798q-2.421.263-4.85.438c-3.732.291-6.483.226-10.043-1.02M63.68 99.638c2.848-.621 5.628-.948 8.541-1.084 3.134-.272 6.31.034 9.429.322-2.822.685-5.913.92-8.812 1.024-3.086.335-6.092.136-9.159-.262m131.897 1.035q2.381-.23 4.77-.37c2.213-.045 3.527.507 5.438 1.51-1.358-.163-2.703-.12-4.066-.09l-5.222.026c-.324-.343-.618-.715-.92-1.076M57.357 105.15c2.729-1.035 5.73-1.239 8.614-1.474 2.277-.219 4.619.064 6.888.254-2.775.61-5.795.934-8.636 1.085-2.277.277-4.581.266-6.867.135m154.048.716c-4.105.351-7.983.882-11.9-.814 3.605-.003 8.622-.328 12.043.758zm-122.584-.069q.958-.177 1.91-.386c1.291.102 2.58.201 3.864.375-.627.157-1.261.275-1.896.397-1.345.17-2.586-.012-3.878-.387m-2.076 2.329c.581-.135 1.17-.23 1.758-.333 1.127-.217 2.372.144 3.489.334q-.76.15-1.522.289a12.7 12.7 0 0 1-3.725-.29m9.39.233c-1.035.173-2.276.256-3.266-.151l-.009-.176c.397-.17.757-.2 1.183-.237 1.216-.093 2.16.026 3.33.352a19 19 0 0 1-1.239.212m-41.887 1.7c2.482-1.153 5.309-1.195 7.995-1.38 1.14-.098 2.3-.067 3.444-.074-2.459 1.008-4.894 1.337-7.529 1.524a56 56 0 0 1-3.91-.07m34.788.266c-.995.08-2.036.162-3.03.063-.345-.034-.737-.05-.966-.325l.14-.283q.322-.017.643-.024c.698-.015 2.898-.045 3.389.422zm10.074.019c-1.017.188-2.182.18-3.178-.122l-.073-.159.464-.15c1.055-.06 2.394-.239 3.414.082l-.063.165zm41.945 1.659a1.8 1.8 0 0 0-.565-.01c-1.036.123-6.559.193-7.165-.233l.18-.205c2.623-.155 5.417-.122 8.016.26l.044.097zm-23.75-.022-.242.02-.085-.24c.169.017.207.107.327.22m12.331-.204c-1.506.384-10.505.876-11.652.273l.008-.37c1.697-.092 6.85-.302 8.208-.023l.069.326.169-.024-.045-.272c.787-.262 2.33-.069 3.176-.035zm-47.448.672c.611-.163 1.215-.37 1.819-.56 1.023-.05 2.057.183 3.062.355l-1.675.208c-1.041.19-2.155.061-3.206-.003m19.039.037c-.727.07-1.456.134-2.121-.233.299-.161.775-.161 1.118-.201.587-.049 1.478-.211 1.984.132-.204.246-.666.242-.98.302m128.094.301.037.078zm-95.99 1.163c1.466-.369 2.888-.456 4.39-.522.786-.008 1.648-.099 2.376.239l.042.171c-.797.56-2.223.371-3.169.35-1.231.021-2.423-.031-3.638-.238m-10.663-.112c-1.249.07-4.462.498-5.418-.075l.264-.219c1.063-.114 4.803-.326 5.62.128zm88.518 26.288c-1.177-.463-1.722-.967-2.933-.475-.95-.645-3.328-.196-4.574-.392-.993-.155-1.946-.493-2.897-.81-.448-.149-1.14-.305-1.494-.615-.272-.238-.259-.34-.306-.68.494-1.376 5.502-2.695 6.928-3.047 1.48-.367 4.142-.553 5.27-1.573.109-.272.184-.292.081-.58-1.171-.334-2.722-.212-3.957-.328-1.47-.138-5.011-.185-5.963-1.332-.004-.176-.047-.278.071-.425.326-.408.819-.617 1.318-.713l.227-.04c2.325-.433 4.658-.124 6.917-.976.764-.288 1.71-.626 2.06-1.415.012-.353-.01-.484-.21-.778-.126-.07-.19-.12-.351-.132-.437-.032-1.004.147-1.451.183-1.07.087-2.323-.031-3.388-.183-.523-.074-1.024-.141-1.35-.584.532-1.514 6.544-1.741 7.506-3.59.078-.15.042-.139-.01-.315-1.17-1.05-3.503-.418-4.885-1.13-.264-.136-.25-.22-.331-.488.568-1.359 3.903-1.176 5.112-2.081.28-.21.327-.34.37-.677-.333-.831-1.368-1.026-2.029-1.537.401-.347.958-.587 1.43-.828.483-.246.75-.449 1.108-.868l.105-.125c.8 1.114 2.246 1.382 3.394 2.074-.857.234-1.802.175-2.493.834-.234.224-.257.36-.259.67.734 1.265 4.169 1.454 5.572 2.141.291.143.388.228.484.534-.847 1.225-4.68.207-5.887 1.45-.163 1.83 6.765 2.464 7.732 3.865l-.062.225c-1.558 1.094-5.805.688-7.702.43 1.321 1.251 4.525 2.798 6.323 3.256 1.382.352 4.045-.062 5.07.973.203.204.337.387.34.68-1.329.986-9.145 1.253-11.416 1.646 1.71.963 3.773 1.492 5.595 2.224 1.103.442 2.195 1.062 3.321 1.422 1.591.508 3.481.317 4.905 1.357.332.242.471.485.532.895l-.159.214c-2.027.956-9.666 1.242-12.109 1.278 1.808 1.33 3.463 1.949 5.687 1.687.933-.11 1.489.321 2.366.44 1.288.173 2.585.117 3.875.368.785.152 1.819.35 2.287 1.048.051.44.062.793-.14 1.2-1.152 2.31-5.472 1.645-7.505 1.847-.555.056-1.126.329-1.657.496-.357.112-.762.204-1.093-.012-.046-.03-.08-.075-.125-.105-.895-.585-3.08-.11-4.058.085 1.081.684 2.199 1.38 3.461 1.666 1.068.243 2.3.04 3.395.079.93.033 5.863.438 6.438.963.093.317.154.382.037.685-.407.268-.935.144-1.401.257l.12.143c.345-.012.673-.072.97.138.362.743-.256 2.244-.477 3.036-.513.068-.981.133-1.497.038-1.468-.272-2.234-.073-3.608.418q-.098-.035-.196-.075c-1.026-.44-3.309-.488-4.54-.719-.15.065-.3.123-.45.186-.79.33-1.667.085-2.397.4.102.2.065.182.203.303 1.62 1.421 4.94 1.305 6.99 1.284 1.49.925 2.874 1.022 4.56 1.278-.362 1.914-1.012 3.93-1.754 5.73-.83-.411-1.677-.61-2.58-.786-.7.215-1.353.572-2.04.83-2.401.898-4.034.12-6.197-.869-.045 1.054-.29 2.628.188 3.588.2.402.555.635.99.72.52.101 1.133-.009 1.659-.06 1.897-.189 3.761-.433 5.62.17.311.1.552.15.715.447-.108.186-.218.397-.355.562-.165.199-.362.227-.605.259-1.218.161-2.58.007-3.812.008-1.558 0-3.134.098-4.69.026-2.433-.113-4.769-.458-7.219-.373-1.18.069-2.33.004-3.508-.085 2.494-.661 3.356-1.054 6.057-1.153.487-1.102.761-2.263 1.02-3.434q-.569.168-1.143.32c-2.445.646-3.832-.01-5.92-1.228-.941.376-1.849.67-2.878.667-1.387-.003-2.33-.528-3.287-1.464-.876.3-1.783.656-2.724.563-1.076-.107-2.064-.711-2.706-1.57-.39-.522-.7-1.215-.593-1.879.08-.506.411-.909.817-1.204 1.297-.941 3.686-1.336 5.257-1.145.828.1 1.63.455 2.458.558.512.064 3.742.092 4.151.028.302-.047 3.686-.901 3.813-.969.61-.325 1.073-.932 1.66-1.242.06-.032.131-.04.197-.06l.007-.159c-.245-.093-.172-.101-.392-.079-.18.018-.365.046-.545.072-.651.093-1.856-.634-2.525-.906-.16.104-.32.202-.483.302-.675.417-1.282.096-1.993.251-.372.082-.803.423-1.122.63-3.396-1.588-6.204-.235-8.816-1.405-.503-.226-1.013-.74-1.179-1.275q-.182-.58.126-1.1c.531-.902 1.835-1.447 2.812-1.649 1.385-.286 2.545.023 3.692.811.931.02 1.857.195 2.787.183 1.552-.022 2.754-.498 3.827-1.603.96-.027 2.167.048 3.08-.259.306-.103.396-.179.523-.47-.808-.764-2.803-.982-3.86-1.445l-.115-.053-1.707.705-.096-.06-.164-.09c-.981-.547-5.416-.177-7.168-.661-.502-.14-1.177-.4-1.395-.923-.18-.432.02-1.122.244-1.509 1.297-2.239 4.438-.913 6.363-1.019.558-.03 1.082-.45 1.647-.53.922-.131 1.872.141 2.802-.038 1.413-.272 2.827-1.076 4.258-1.444m-12.419 9.646.02.107h.088l-.008-.112zm1.668-.083h.126zm-5.33.297.138.05-.1-.066zm31.053.116c.346.273.608.522 1.077.492.228-.015.464-.072.688-.12-.493-.336-1.192-.264-1.765-.372m-.688.212h.216zM52.684 114.85c1.177-.432 2.33-.757 3.573-.934 1.923-.227 3.94-.103 5.856.126-1.151.451-2.366.626-3.583.798-1.935.23-3.904.08-5.846.01m50.436-.386c-.662.067-1.67.004-2.267-.311.178-.22.396-.198.665-.252.666-.03 1.781-.177 2.342.193-.207.254-.435.27-.74.37m-20.23.238c-1.003.071-2.303.131-3.248-.245l-.036-.153.486-.169c.994-.038 2.308-.207 3.241.201l-.022.213zm9.86 13.948c-.55.02-1.9-.074-2.37.198-.459.266-.595.64-1.166.747-.144-.055-.334-.083-.422-.218-.653-.988.171-8.657.484-9.918.492-1.984 1.397-3.18 3.154-4.238.721.184 1.28.552 1.806 1.078 2.837 2.832 2.22 9.376 2.192 13.13-1.623.123-1.207-.454-2.316-.77-.388-.11-.959-.028-1.361-.009m27.346-12.595c-.65.102-2.058.488-2.633.096-.071-.322-.018-.342.14-.64.606.038 2.588.005 2.952.409zm9.309 12.379c-.393-.001-3.68-.127-3.878.086-.289.31-.104.798-.502 1.147-.289.007-.419-.055-.668-.196-.322-1.525-.121-4.668.03-6.273.3-3.177 1.301-5.703 3.797-7.762 1.218.365 2.361 1.69 2.992 2.748 1.575 2.638 1.63 5.915 1.662 8.89.008.767.099 1.599-.09 2.342-.293.138-.457.113-.774.07-.252-.334.003-.557-.158-.936-.716-.227-1.655-.121-2.41-.116m8.249-11.94c-1.168.093-2.57.15-3.693-.207l-.052-.155c.371-.22.762-.273 1.179-.352 1.076-.018 2.325.165 3.33.553l-.059.095zm-32.587.482c-.459-.005-1.578-.02-1.913-.351.295-.158.5-.185.826-.22.66-.031 1.213-.016 1.866.12l.034.233c-.22.123-.564.159-.814.218m-23.848.133c-.887.192-2.07.42-2.953.145l.104-.134c.315-.098.715-.177.945-.43q.058-.066.112-.135c.862-.229 2.427.169 3.317.322zm37.077.961c-.53.119-1.031.23-1.578.251l.047-.266.008.003.561-.286c.64-.028 1.283-.096 1.912.044-.17.203-.68.208-.95.255m-12.067 1.242c-.578.189-1.017-.007-1.572-.181.487-.038 1.168-.14 1.572.18m-25.981.779q-.566.107-1.133.204c-.403.067-.811.163-1.159-.085l.066-.302c.25-.318.397-.373.764-.496.77-.022 1.88-.112 2.552.307-.38.228-.652.31-1.09.372m38.027.328c-.218.066-.436.135-.66.184-.515.113-.83-.051-1.263-.319.557-.042 1.457-.186 1.923.134m-37.284 2.916c-1.029.184-2.433.366-3.443.077l-.08-.177c.293-.327.675-.436 1.073-.591 1.43-.082 2.701.113 4.103.367-.544.14-1.1.227-1.653.324m37.588-.092c-.419.032-1.025.15-1.426.025-.218-.067-.131-.018-.263-.254l.19-.469c.495.092 1.074.239 1.503.504zm1.14 2.211c-.574.094-1.13.166-1.713.16-.446-.004-1.169.019-1.485-.304l.149-.264c.931-.062 2.405-.13 3.252.285zm-39.296.458c-.656.117-1.309.227-1.972.29-.463.043-1.077.152-1.445-.154.17-.343.537-.477.86-.652 1.285-.081 2.574.11 3.85.252zm38.317 1.961c-.417.053-.828.144-1.24.031.133-.255.273-.264.524-.39a6.5 6.5 0 0 1 1.174.036l-.02.132zm-39.271 1.031c-.67.091-1.367.226-2.04.256-.368.016-.66-.035-.934-.28v-.514c.972-.008 2.182.026 3.084.42zm13.162 4.677-.093-.074zm-14.661 5.333c-.868.15-2.242.795-3.083.55-.184-.055-.182-.145-.264-.299.028-.422.22-.622.475-.935 1.151.103 2.488.16 3.591.493l-.008.09zm47.975 5.896c-.049-1.412-.28-3.15.13-4.505.302-.999.898-1.58 1.805-2.053.246.001.5 0 .744.035.633.09 1.246.577 1.612 1.08.79 1.085.972 3.211.58 4.51-.12.401-.384.702-.445 1.126.215.273.395.448.468.797-.674.145-1.582.012-2.283-.016l-2.347.11.762-1.469zm-30.626-5.696c.8-.17 1.586-.249 2.4-.314 2.417-.096 4.816-.095 7.218.237-.686.151-1.344.26-2.045.319-2.563.388-5.036.173-7.573-.242m-18.602 2.958c-.44.108-.895.231-1.349.25-.393.015-.946.005-1.247-.272l.049-.236c.324-.29.665-.413 1.067-.57.913.053 1.8.248 2.68.483zm13.022 10.755c-.05-1.506-.03-3.052.047-4.556.11-2.153.726-3.612 2.332-5.07.343.187.68.495.96.77 2.224 2.19 1.661 5.998 1.657 8.871l-2.108.015zm-16.666-7.592c.6-.262 1.177-.584 1.758-.885.88.108 1.779.337 2.652.505l-1.935.583c-1.036.246-1.512.177-2.475-.203m2.211 3.462-.105.033c-.693.191-1.698.415-2.351.049l-.031-.246c.297-.418.713-.567 1.165-.779.955-.142 2.235.196 3.194.337zm-.729 3.216c-.743.196-1.625.347-2.333-.037l-.007-.213c.39-.295.8-.392 1.266-.524.914-.09 1.851.073 2.759.182zm-16.601 1.996-.082-.038zm15.388 1.496c-.916.21-1.726-.266-2.553-.608.296-.22.862-.153 1.237-.254a23 23 0 0 1 1.121-.267c.965.008 1.945.191 2.9.323-.889.3-1.802.545-2.705.806m-2.582 3.03c.779-.44 1.469-.754 2.353-.911.708.089 1.348.259 2.03.464-.886.18-1.75.513-2.606.802-.669.067-1.164-.133-1.777-.355m2.043 3.386c-.7.155-1.292.364-1.955-.04l-.015-.251c.33-.418.838-.574 1.315-.782.793.004 1.662.271 2.434.448zm-.034 3.204q-.311.088-.625.164c-.57.142-1.297.25-1.825-.07l-.006-.219c.314-.315.61-.46 1.014-.64.923-.031 1.845.25 2.73.48zm-.91 3.376q-.515.065-1.03.136c-.493.066-.748-.036-1.137-.34.135-.309.877-.532 1.2-.682 1.065.07 1.94.263 2.925.666-.654.054-1.306.142-1.957.22M37.28 179.389c3.58-.11 7.18-.54 10.755-.802 6.1-.446 12.224-.802 18.33-1.135q25.13-1.384 50.298-1.518c5.271-.126 10.572-.07 15.846-.059q31.27.165 62.492 1.91c7.946.386 15.9.559 23.843.983-.658 1.381-1.495 2.706-2.27 4.025-6.823 11.63-16.54 21.59-27.461 29.44-2.402 1.727-4.874 3.447-7.46 4.886l-41.372-1.095q-22.707-.262-45.413.146c-7.101.094-14.211.422-21.313.336-.2-.003-.356-.003-.548-.074-1.841-.683-3.792-2.282-5.413-3.394-11.173-7.662-24.426-21.354-30.315-33.65m93.934 7.244c-1.365.398-2.274 1.025-2.974 2.306-1.627 2.978-1.6 9.172-.588 12.33.406 1.264 1.132 2.471 2.335 3.113.878.469 1.733.495 2.698.358 1.355-.425 2.262-1.06 2.954-2.344 1.527-2.832 1.59-9.34.613-12.356-.402-1.24-1.194-2.35-2.367-2.962-.863-.45-1.72-.484-2.671-.445m-9.57.406.088 17.23 2.52.063c.086-5.747-.051-11.496-.018-17.243-.864-.033-1.726-.07-2.59-.05m-12.548.133c.075 5.735.275 11.478.252 17.212l2.536-.038-.022-7.6 3.918-.035c.094 2.527.028 5.074.164 7.594l1.962-.003.339-.047c.047-.08.114-.152.141-.24.142-.448-.034-15.201-.06-16.905-.854-.009-1.711-.034-2.564-.007q-.002 3.502.056 7.004l-4.007.018c-.029-2.316-.08-4.633-.078-6.95zm30.528-.003-.319 17.329 2.566.01c.158-2.124.188-4.236.16-6.365.178-.224.156-.207.444-.238 1.75-.19 3.596.07 4.883-1.437 1.048-1.226 1.242-3.629 1.072-5.187-.13-1.212-.575-2.394-1.569-3.158-1.71-1.314-5.12-.925-7.237-.954m-36.81.151-5.506.177.044 2.73c1.093-.037 2.187-.089 3.28-.099q.347 7.222.384 14.451c.841.058 1.676.031 2.518.008-.062-4.848-.303-9.716-.266-14.56l3.115-.044q.002-1.37-.012-2.74c-1.184.017-2.374.01-3.557.077m-8.682.237-6.81.227c.17 5.72.67 11.465.693 17.182q3.997-.055 7.989-.26c.007-.789.105-1.72-.078-2.486l-.177-.101-5.231.221c-.128-1.566-.17-3.13-.208-4.7 1.406-.091 2.814-.202 4.22-.27-.028-.83-.072-1.664-.077-2.494-1.444.008-2.876.02-4.315.137l-.143-4.62c1.771-.114 3.561-.099 5.326-.247l-.043-2.564zm56.896-.06-.592 17.205 2.57.03q.234-8.614.627-17.222zm8.958.237c-1.502 5.65-3.25 11.327-4.502 17.034l2.584.108q.362-1.682.77-3.353 1.313.091 2.628.14c.378.042.735-.023.971.322.468.684.4 2.24.55 3.085.886.073 1.784.177 2.672.174-1.007-5.788-1.728-11.627-2.727-17.423zm-86.867 2.822c-.475 1.196-.926 2.407-1.518 3.551q-2.085.186-4.174.304c1.138.968 2.42 1.754 3.546 2.724-.367 1.321-.756 2.64-1.097 3.967.726-.505 2.678-2.195 3.55-2.108q1.737 1.101 3.444 2.249c-.382-1.413-.836-2.798-1.235-4.204 1.14-.813 2.316-1.616 3.36-2.55-1.393-.204-2.792-.3-4.196-.403-.401-.942-.95-2.859-1.68-3.53m109.088.547a38 38 0 0 0-1.506 3.266l-3.667.151c.91.878 1.868 1.736 2.718 2.673q-.56 1.718-1.148 3.425c1.07-.468 2.431-1.582 3.47-1.834l3.07 2.191q-.348-1.935-.79-3.851c1.003-.756 2.004-1.509 2.963-2.32q-1.852-.127-3.702-.284c-.3-.772-.906-2.885-1.408-3.417"/><path d="M132.394 202.157c-.279.004-.57.01-.846-.028-.424-.058-.765-.392-.99-.735-1.185-1.81-1.006-7.079-.604-9.183.22-1.156.532-2.277 1.553-2.963.275-.007.587 0 .854.069.426.108.755.424.984.784 1.221 1.923.96 7.465.475 9.655-.232 1.051-.492 1.798-1.427 2.401m9.723-6.937q.129-2.715.166-5.433c.641-.002 1.354-.047 1.983.078.793.16 1.129.575 1.549 1.227.102 1.327.248 2.521-.594 3.649-1.022.541-1.98.48-3.104.479m19.04 3.796c-.464-.012-1.089.059-1.5-.149.198-2.096.862-4.345 1.43-6.379.438.757.908 5.331 1.098 6.588zm-26.662 20.893c1.556-.383 3.132-.592 4.727-.733 3.651-.468 8.313.013 11.964.592-1.694.159-3.388.345-5.091.372q-5.808.253-11.6-.231m-15.144 7.962c.237-1.135.507-1.871 1.264-2.782 1.603-1.93 4.055-3.553 6.588-3.793a7 7 0 0 1 1.552.176c2.579.611 5.331 2.91 6.681 5.154.2.332.363.648.273 1.044-.076.068-.135.164-.229.203-.63.258-5.965-.01-7.134-.02zm5.775-3.95c-1.337.258-2.097 1.096-2.937 2.089l2.456-.022c.683-.029 1.424.003 2.085-.174-.135-.403-.358-.543-.414-1.002.178-.274.348-.501.574-.74-.535-.175-1.2-.154-1.764-.15m-30.656-.557q-2.147-.111-4.29-.278c1.889-.324 4.856-.23 6.871-.32q8.954-.474 17.92-.581c.956.009 2.89-.27 3.677.304.277.202.304.261.346.577-.066.114-.11.208-.218.297-1.369 1.15-20.955.131-24.306 0m56.787 1.186c2.116-.342 4.2-.519 6.34-.625 2.913-.054 5.835.141 8.744.293-1.961.49-3.953.609-5.965.691-3.033.18-6.098-.1-9.12-.358"/></svg>