<svg xmlns="http://www.w3.org/2000/svg" viewBox="0 0 256 256"><path d="M127.89 0h.353c3.518 1.468 7.11 2.785 10.672 4.144l17.72 6.705 30.669 11.638 23.574 8.89c3.213 1.194 6.431 2.603 9.705 3.607q4.385 11.65 8.92 23.24l15.845 41.157q3.964 10.217 7.802 20.483.955 2.58 1.813 5.193c.337 1.03.614 2.13 1.037 3.127v.656c-1.088 2.592-1.993 5.281-2.99 7.91l-6.465 16.839-17.516 45.445q-4.295 10.964-8.418 21.994c-9.823 3.963-19.844 7.523-29.763 11.241L127.997 256h-.341c-2.322-1.162-4.98-1.985-7.412-2.917l-15.4-5.826-49.534-18.725-12.603-4.789c-2.406-.905-4.884-1.72-7.223-2.78L0 128.857v-.44c1.611-6.07 3.985-11.828 6.242-17.678q4.634-12.194 9.457-24.315l11.207-29.046q2.732-7.402 5.6-14.753c.97-2.552 1.856-5.147 2.916-7.663 4.819-1.473 9.572-3.51 14.297-5.279l29.637-11.17q16.289-6.026 32.502-12.25C117.192 4.218 122.711 2.402 127.89 0m.159 7.87L66.328 31.356c-8.455 3.162-16.868 6.589-25.418 9.482-1.795 5.118-3.815 10.17-5.771 15.229l-6.311 16.474-21.318 55.2c2.282 6.568 4.952 13.043 7.44 19.537l15.94 41.3 5.828 14.994c.85 2.216 1.888 4.444 2.529 6.725-.74.619-2.002 1.418-2.1 2.446-.05.516.229 1.074.469 1.517 2.688 1.207 5.634 2.023 8.406 3.04l20.006 7.405 33.079 12.487c9.604 3.66 19.189 7.467 28.868 10.924 1.598-.319 3.271-1.119 4.796-1.706q4.518-1.782 9.068-3.48c14.499-5.38 28.879-11.088 43.4-16.4 3.897-1.425 7.75-2.958 11.638-4.401 5.493-2.04 11.013-3.982 16.466-6.13 1.31-.517 2.714-.82 4.01-1.356.476-.197.977-.456 1.277-.892a1.24 1.24 0 0 0 .188-.985c-.214-.98-1.121-1.661-1.823-2.308q15.341-41.488 31.494-82.665c-.758-1.727-1.366-3.519-2.03-5.283-1.334-3.542-2.647-7.1-4.032-10.621l-18.781-49.06-5.648-14.562c-.859-2.241-1.788-5.264-2.813-7.36-7.657-2.763-15.204-5.821-22.815-8.709l-38.947-14.722-14.334-5.446c-3.668-1.404-7.33-2.875-11.04-4.162"/><path d="M41.465 41.807c3.02-1.454 6.391-2.493 9.53-3.68l19.119-7.186 40.03-15.251c5.956-2.287 11.942-4.476 17.878-6.817 7.686 2.807 15.305 5.823 22.963 8.708l63.434 24.139 22.711 59.12c3.428 8.973 6.728 18.034 10.353 26.93-.638 2.065-1.521 4.107-2.294 6.129l-5.13 13.241c-4.925 12.865-9.796 25.778-14.898 38.573q-3.288 8.033-6.261 16.188c-.93 2.498-2.029 5.018-2.718 7.592-.791-.817-1.468-1.704-2.155-2.607.49-1.687 1.188-3.357 1.8-5.005L220 190.867q8.162-21.647 16.703-43.146 2.714-6.74 5.27-13.54c.786-2.103 1.777-4.249 2.286-6.438-.57-1.906-1.357-3.8-2.056-5.665q-2.18-5.793-4.463-11.545l-9.921-25.8-10.202-26.814-3.33-8.644c-.675-1.725-1.3-3.512-2.123-5.172-2.262-1.202-4.839-2.01-7.23-2.93l-10.305-4.015-34.707-13.218-22.249-8.462-6.206-2.428c-1.118-.44-2.39-1.101-3.56-1.295-4.57 1.944-9.235 3.623-13.866 5.415L81.28 29.605l-25.827 9.797c-3.882 1.456-7.756 3.07-11.695 4.356-1.126 3.302-2.432 6.559-3.675 9.82l-6.98 18.263q-10.526 27.963-21.516 55.745c2.611 7.465 5.577 14.827 8.437 22.199q6.14 16.278 12.528 32.462l6.18 15.907c.862 2.24 2.328 6.839 3.505 8.608l-2.219 2.673c-.372-1.193-.919-2.35-1.382-3.511l-2.267-5.814-8.498-21.888-15.658-40.592c-1.274-3.27-2.382-6.603-3.7-9.854l22.273-57.703 6.903-18.088c1.192-3.108 3.004-7.007 3.777-10.178"/><path d="M102.36 58.334c-.188.691-.251 2.053.029 2.718q-.913.737-1.861 1.428c-.096-1.81.018-6.435-.566-7.82-.465-.357-1.008-.324-1.565-.256-.448.055-.893.161-1.333.26q.223 5.238 1.062 10.413c-.294.713-.659 2.047-1.329 2.474l-.152-.038c-.377-2.053.381-11.4-.446-12.47l-.212.082c-.509 1.236-.627 11.135-.672 13.131a27.6 27.6 0 0 0-4.603 2.213c.234-4.798.57-9.553.698-14.36-.233.1-.353.479-.45.706-.698 1.65-1.708 12.46-1.837 14.781-1.36 1.307-2.687 2.572-3.667 4.205.444-3.423.439-6.926.68-10.368.168-2.38.594-4.745.76-7.117.027-.395-.003-.674-.211-1.02l-.225-.083c-.071.07-.167.12-.214.207-.364.676-1.084 12.201-1.108 13.623-.053 3.2.055 5.865-1.528 8.773l.005-.161c.065-1.605.979-2.895 1.123-4.457.089-.967-.03-1.979-.038-2.952q-.03-4.326-.194-8.65c-.045-1.298-.105-2.597-.131-3.895-.013-.658.064-1.334.007-1.987-.03-.345-.072-.614-.248-.92l-.28-.2c-.177.047-.246.021-.352.19-1.08 1.733-1.322 18.121-1.365 21.335-.13 9.405-1.07 18.703-1.698 28.074-.252 3.775-.339 7.549-.486 11.328-.031.796-.335 4.56-.22 4.988.02.077.063.146.094.219.194-.004.284.042.432-.107.257-.26.337-.608.403-.958.294-1.558.286-3.255.397-4.837q.466-6.618.615-13.252c.141-5.278.535-10.535.307-15.82.309.572.612 1.14.972 1.682q-.478 13.882.346 27.748c.067 1.185-.053 3.847.518 4.813l.17.058c.299-.293.278-.503.28-.912.034-5.101.442-10.21.582-15.311.145-5.312.067-10.64.133-15.954q1.344-.195 2.685-.41-.364 11.462-.998 22.91c-.14 2.96-.416 5.967-.433 8.927q1.2-.79 2.379-1.611l.312-18.148c.04-3.95-.058-7.946.129-11.892l1.958.287c-.042 3.805-1.112 26.938-.66 28.213 1.255.013 1.468.414 2.34 1.223.432-2.267.238-4.858.239-7.168 0-7.234-.485-14.453-.574-21.686l2.754.913c-.136 6.865-.184 13.744-.38 20.607-.066 2.302-.376 4.582-.39 6.891-.002.45.044.832.229 1.244l.225.169.145-.06c.29-1.177.134-2.45.306-3.657 1.1 2.312 2.17 4.589 3.463 6.803-1.658-.556-3.452-1.165-4.978-2.023-.743-.417-1.376-1.107-2.142-1.454-.375-.17-.87-.28-1.257-.106-.81.362-1.452 1.325-2.181 1.843-1.265.899-2.83 1.592-4.213 2.31-.118.51-.384 1.237-.189 1.743.81.192 2.076-1.23 3.04-1.107l-.011.113c-.056.603-.05 1.462.361 1.954.371.445 1.221.445 1.77.465.706.025 1.483-.015 2.044-.487.226-.397.119-1.037.105-1.485 1.147.448 2.04.785 3.278.817-.112-.48-.295-.997-.186-1.487l.162-.04c.477.379.819.814 1.194 1.286 1.475-.968 2.251.132 3.707-1.192l.096.157c2.668 4.4 4.14 9.654 6.9 13.98 1.823 2.857 11.166 8.601 14.466 10.251q3.392 1.681 6.83 3.267c1.54.711 3.144 1.37 4.607 2.228.855 3.151 1.347 7.344 3.634 9.804-.1.982-.24 1.925-.454 2.89-2.082-.763-4.216-1.597-6.418-1.924-2.395-.355-10.844.516-13.05 1.53-1.2.551-2.358 1.275-3.608 1.7-1.427.486-3 .72-4.469 1.071-3.554.852-9.23 2.273-12.397 3.862.141 1.424.166 2.833.18 4.262 2.14 1.463 4.533 2.552 6.808 3.786-.706.016-1.419.01-2.122.065 1.258.525 2.568 1.229 3.881 1.573 1.242.326 2.567.302 3.842.391 1.895.133 3.742.319 5.647.35-1.9.409-3.88.727-5.748 1.251 1.084.57 1.978 1.187 2.861 2.035 2.698.196 5.403.144 8.105.14 1.688-.003 3.392-.066 5.065.194-.781.179-1.567.386-2.356.52-.089 1.353-.136 2.724-.317 4.069 1.458.372 2.857.893 4.302 1.297.773-.348 1.549-.74 2.347-1.022 2.038 1.203 6.072 3.019 8.407 3.188 1.384.1 2.781-.208 4.179-.135a44 44 0 0 0-3.649.908c.23.305.458.583.593.945l-.063.12c-1.358.117-2.84.253-4.201.134l-.094-.155q.198-.34.407-.673l-.115-.09c-.346.287-.56.623-.807.995l-2.892-.035q.557-1.5 1.204-2.964c-1.038.851-1.751 1.828-2.533 2.911-.837-.001-1.682.018-2.518-.03.563-1.41 1.126-2.766 1.394-4.268-.878 1.316-1.528 2.796-2.209 4.222q-2.212.019-4.424-.02l-.32-1.022-.139-.058c-.044.233-.075.464-.103.699-.303.258-.516.282-.91.256-.253-.016-.368.01-.558-.164.28-2.54.711-5.01.855-7.571-1.58 2.303-2.343 4.902-3.145 7.544-.458-.016-.97.02-1.381-.2-.32-1.718.494-6.266.748-8.14-1.377 2.456-2.398 5.258-2.605 8.082l-1.741-.194c-.425-1.718-1.032-3.381-1.674-5.028-.345 1.59-.585 3.231-.988 4.803l-1.6-.31c.016-3.205.297-6.424.235-9.623a38 38 0 0 0-1.43 5.744c-.177 1.09 0 2.581-.425 3.58-.398.117-.708.078-1.116.03-.191-.227-.218-.28-.238-.588-.064-.961.038-1.981.063-2.946.072-2.864.26-6.034-.3-8.852-1.653 3.657-1.931 7.947-2.02 11.92-.62-.069-1.303-.065-1.832-.417-.165-.293-.158-.38-.159-.72l.101-.062-.1.061-.339.472c-.762.43-1.924-.04-2.716-.233a12.4 12.4 0 0 0-.491-2.66l.017 2.63c-1.198-.235-2.415-.387-3.622-.561.044-1.617.325-3.237.531-4.839q.382-2.996.675-6.002c.335-3.365.287-6.901.303-10.285 3.966-1.769 8.245-2.9 12.445-3.964 1.709-.432 3.523-.743 5.193-1.301 1.39-.464 2.628-1.36 4.006-1.875q1.215-.457 2.494-.685c1.738-.307 10.202-1.215 11.379-.641.466.227.71.373 1.237.267.322-.244.506-.39.662-.781-.03-.203-.017-.312-.146-.483-.46-.607-1.415-.923-2.15-.962-.999-.054-2.146.182-3.153.264-2.939.236-5.987.308-8.87.945-2.215.49-4.05 1.795-6.175 2.467-4.38 1.385-15.18 3.252-18.276 5.904-.598 3.024-.286 6.382-.413 9.466-.169 4.086-.634 8.092-1.19 12.138-15.25-3.093-29.927-7.995-44.554-13.196 1.146 5.481 2.615 12.135 3.081 17.667q-2.457 3.09-5.041 6.077c-1.621-3.725-3.055-7.567-4.524-11.356l-4.578-11.7-12.86-33.293c-2.536-6.574-4.851-13.3-7.73-19.73 1.006-3.008 2.307-5.95 3.446-8.91q4.577-11.867 9.337-23.66c3.89-9.814 7.314-19.82 11.097-29.677 2.446-6.374 5.212-12.72 7.288-19.218 3-1.07 5.962-2.32 8.94-3.456l21.665-8.287 51.246-19.55c4.884 1.565 9.683 3.602 14.482 5.416l32.962 12.629c8.726 3.309 17.51 6.528 26.161 10.02 2.676 1.08 5.653 1.91 8.19 3.273.79 1.527 1.355 3.254 1.981 4.86q1.828 4.68 3.584 9.385l9.143 24.162c3.444 9.246 7.094 18.426 10.633 27.637 1.983 5.162 4.06 10.313 5.74 15.582-1.14 3.219-2.538 6.342-3.75 9.534l-15.048 38.702-7.13 18.638-1.997 5.293c-.435 1.168-.792 2.4-1.412 3.485-1.868-1.716-3.68-4.313-5.102-6.413.274-1.827.717-3.659 1.08-5.473q1.121-5.712 2.362-11.4c-10.244 3.166-20.374 6.734-30.818 9.215-.814-1.32-2.516-4.898-3.467-5.732-1.404-1.232-3.746-.86-5.472-.738a37 37 0 0 0-4.91-2.215c-.576-.929-1.137-1.965-1.863-2.783-.387-.436-.799-.772-1.351-.972-2.132-.772-6.868-.785-9.288-.945.319-.347.665-.744.804-1.204a1.23 1.23 0 0 0-.103-.98c-1.338-1.089-5.133-2.061-6.93-2.591l.647-7.988c.978-.668 1.39-1.553 2.157-2.394.905-.43 2.719.366 3.632.666.265-.204.68-.573 1.018-.59.89-.048 3.074.674 4.148.805 1.572.193 3.13.165 4.707.228.987.04 1.961.21 2.944.257.771.037 1.545-.028 2.317.006 1.197.054 2.387.377 3.59.345.476-.012.913-.19 1.349-.363 2.37.58 8.561 3.153 10.504 2.819.975-.168 1.51-1.107 2.023-1.857 2.172.617 4.21 2.08 6.46 2.37.282.037.712.062.939-.142.243-.22.373-.545.4-.868.136-1.653-1.709-3.224-2.697-4.378-.676-.79-2.625-2.811-2.544-3.814.756-.776 3.115.582 4.258-.045.313-.171.511-.406.606-.75.26-.954-.162-2.184-.678-2.981-1.152-1.78-3.734-3.95-5.305-5.5q-5.001-4.915-9.949-9.884c-.83-.834-2.214-1.893-2.742-2.907-1.085-2.082-1.051-4.679-1.795-6.893-.416-1.24-1.67-2.784-1.854-3.97-.123-.789.424-.574.591-1.123l-.24-.132c-.32.037-.583.086-.894-.035-.518-.802-3.769-7.526-3.877-8.321-.194-1.416.525-2.883.671-4.283.202-1.935.212-3.987.153-5.931-.085-2.793-.532-5.616-.726-8.412q-.83-11.278-1.51-22.567-.359-5.289-.87-10.564c-.16-1.801-.187-3.779-.572-5.543-.076-.346-.13-.58-.399-.816-.323.065-.52.078-.763.319-.083 3.943.258 7.903.47 11.839l.72 15.462c.42 9.39.348 18.794.89 28.18-.738-.864-1.44-1.315-2.424-1.846-.213-1.548-.199-3.138-.264-4.699l-.33-7.337q-.63-13.583-.908-27.177c-.06-3.426-.152-6.884-.137-10.309.005-1.123.165-2.276.117-3.394a3.2 3.2 0 0 0-.228-1.134c-.267-.245-.48-.346-.865-.283-.579.094-.353 1.197-.331 1.645.082 1.72.865 14.923.23 15.869-.232-3.778-.562-7.503-.945-11.269-.17-1.677-.23-3.48-.583-5.126-.084-.395-.226-.916-.537-1.2-.123-.112-.299-.212-.469-.182a1.1 1.1 0 0 0-.667.459c-.423.699.308 9.508.4 11.006q.814 13.421 1.345 26.857c.184 4.225.024 8.525.548 12.723-.865-.817-1.729-1.622-2.505-2.527-.173-8.888-.027-17.815-.036-26.705-.004-4.067.275-17.152-.97-20.468-.136-.366-.307-.535-.673-.686l-.218.097c-.463.934-.032 2.994-.012 4.078-.457-1.637-.424-3.377-.914-5.017-.245 1.977.14 4.205.282 6.195q.331 4.83.573 9.665c.469 10.501.607 21.078.658 31.59a13.4 13.4 0 0 1-1.546-1.538c-.36-4.199-.4-8.618-.665-12.857q-.735-11.225-1.716-22.43c-.131-1.643-.323-7.231-.838-8.458l-.23-.08c-.034.028-.073.05-.103.083-.268.288-.307.785-.342 1.158-.292 3.118-.06 6.739-.036 9.898.074 10.176.769 20.35.754 30.522l-2.59-1.9c-.513-3.416-.639-6.944-.976-10.387-.399-4.081-.693-8.176-1.129-12.253-.429-4.015-.992-8.045-1.53-12.048-.163-1.213-.419-5.522-1.243-6.217-.168.036-.277.023-.4.157-.26.282-.322.7-.343 1.072-.047.85.107 1.718.144 2.57.09 2.035.133 4.075.2 6.111q.204 8.46.598 16.914c.23 4.066.695 8.137.81 12.206l-2.179-1.083c.12-8.13-.103-16.274-.199-24.404l-.052-7.538c-.01-1.453.055-2.99-.137-4.43l-.178-.002.108-.517-.04.05.082.038.036.161-.25.08.073.069c-.243 3.59-.067 7.286-.07 10.888l-.094 12.139c.008 4.33.118 8.655.016 12.986l-1.771-1.027-1.375-23.475-.495-9.356c-.084-1.458.026-3.487-.44-4.855-.101-.297-.22-.484-.53-.591-.431-.149-1.308-.046-1.67.21-.538.911 2.567 32.542 2.896 35.829-1.554-3.812-1.287-8.23-2.06-12.265-.598-3.117-1.624-6.03-2.42-9.085-.248-.957-.331-1.948-.573-2.912-.179-.17-.425-.374-.522-.605-.217-.525-.231-1.3-.312-1.87-.224-1.58-.776-7.645-1.583-8.647l-.155.11c-.553 1.858-.156 6.018-.002 8.06-.467-.59-.96-1.162-1.441-1.74-.273-1.743-.24-4.64-1.068-6.13-.298-.177-.35-.152-.7-.126-.977.66.08 3.819-.264 4.917-.199-.013-.193.022-.328-.087-.573-.465-.69-2.606-.803-3.32-.022.708-.01 1.419-.184 2.109-.523-.05-.67-3.31-1.313-3.822-.357-.08-.44-.116-.782-.003-.661.745-.324 2.31-.442 3.27-.31-.018-.386-.093-.65-.266-.072-.278-.072-.558-.083-.843-.043.305-.073.462-.265.707-.488.166-1.085-.07-1.572-.19a6.6 6.6 0 0 0-.405-1.033l-.166.045-.243.676c-.566.333-2.016-.097-2.68-.222-.01-.636.074-1.275-.292-1.814-.369-.177-.62-.166-1.014-.145-.64.486-.418 1.903-.706 2.684q-.022.06-.047.12c-.219-.808-.129-1.602-.33-2.382-.097-.379-.237-.544-.575-.725-.198.036-.368.024-.522.168-.489.459-.394 1.53-.424 2.156a34 34 0 0 0-3.362.674c-.043-.542-.097-1.022-.276-1.537l-.139-.022c-.206.596-.202 1.197-.23 1.821-.708.345-1.466.613-2.2.903-.015-1.093.242-2.509-.326-3.472-.185-.121-.269-.222-.5-.225-.448-.008-.93.254-1.223.588-.455.517-.205 3.711-.218 4.514l-1.116.689c.242-.863.088-1.843-.028-2.718m82.58 67.387c.196-.649.48-1.232.779-1.837-2.101-.938-4.208-1.943-6.327-2.83l-.724 1.23c-.547.934-3.627 3.87-4.667 4.145q-.245.064-.493.114c.177.117.762.019.998.006.343.297.784.806 1.25.84l.105-.042c.383-.149.719-.21 1.127-.247l.269-.218c.365.197.21.514.624.627.254-.141.307-.323.424-.579l.203-.057.318.231c.286-.1.497-.247.747-.414.868-.026 1.688 1.008 2.54 1.034q.183-.322.344-.655c.8-.27 1.265.547 1.98-.219.06.284.049.136.026.446l.192.044c1.29-1.039 1.691-.863 3.313-.693l.37-.491.289-.021q.243.218.477.45c.29-.168.416-.425.584-.703.44.268.42.749.866.938q.054-.063.112-.125c.128-.135.24-.223.395-.324.186.117.301.248.448.409.19.206.298.31.579.383.326-.172.395-.433.496-.779q.024-.084.046-.17c.261-.075.403-.004.629.139.364.23.65.599 1.106.592.24-.29.47-.583.747-.839.35.294.718.688 1.17.793.273-.068.457-.177.695-.319.638-.38 1.1-.368 1.803-.168q.066.021.13.045c.86-.408 2.357-.733 2.987-1.395-.885-.72-4.564-1.506-5.9-2.03-2.406-.945-4.712-2.05-6.87-3.481-1.275 2.074-2.484 4.409-4.187 6.17M128 17.754c-3.71 1.245-7.344 2.783-10.994 4.192L97.84 29.282 69.957 39.915c-7.279 2.758-14.631 5.446-21.84 8.378-2.307 5.587-4.358 11.315-6.497 16.97-1.125 2.972-2.56 5.914-3.415 8.976 1.474-.183 2.948-.354 4.433-.418 1.54-.065 3.262.097 4.763-.27.395-.097.702-.284.945-.615.912-1.246.49-3.41.962-4.885 1.177-3.678 6.069-12.077 9.01-14.417.973-.773 2.096-1.102 3.293-1.341 2.81-.563 5.851-.444 8.707-.349q5.097.142 10.183.506c2.95.21 5.95.541 8.908.504 2.858-.036 5.831-.751 8.65-1.24 4.4-.665 8.771-.979 13.21-1.254 2.864-.177 5.732-.394 8.604-.35 3.434.052 6.855.53 10.29.54 5.033.015 10.054-.514 15.085-.29 3.936.174 7.822 1.323 11.751 1.305 4.811-.022 9.609-2.015 14.569-2.234q5.498-.19 10.986.184c4.363.274 8.747 1.031 13.112 1.113 2.75.052 5.59-.272 8.316-.614 1.328-.167 3.066-.257 4.232-.913.107-.297.079-.299-.036-.598-.302-.293-.594-.407-.984-.56L153.492 27.41l-16.742-6.385c-2.433-.937-6.4-2.725-8.75-3.271M74.222 55.145c-.313 1.395-.366 2.836-.51 4.256-.397-.261-.598-.459-1.078-.495-.333.226-.475.4-.567.8-.209.911-.138 1.918-.232 2.853l-.9 9.466c-1.265 13.209-2.112 26.435-3.178 39.658-.134 1.658-1.203 9.094-.931 10.228 2.283-7.094 2.923-14.74 3.862-22.108 1.615-12.684 2.965-25.306 3.752-38.072.084-1.356.698-5.31.296-6.361a1.24 1.24 0 0 0-.514-.225m2.45.155c-.329 2.313-.205 4.82-.333 7.162-.257 4.704-.645 9.407-.989 14.105q-.564 8.76-1.355 17.503-1.136 11.202-2.398 22.39c-.085.804-.487 2.803.039 3.442q.067.08.139.158c.163-.017.304.011.427-.105q1.831-17.65 3.483-35.317c.47-5.396.72-10.81 1.13-16.211.33-4.34.884-8.681 1.117-13.023-.419-.035-.841-.087-1.26-.104m2.942.077c-.64 1.414-.962 7.375-1.154 9.348Q77.142 77.9 76.236 91.11c-.388 6.063-.593 12.147-.905 18.216-.215 4.17-.64 8.349-.787 12.517.41.215.775.505 1.241.461.119-.2.15-.358.185-.587.602-8.706 1.87-17.355 2.761-26.032 1.064-10.34 1.773-20.686 2.505-31.051l.413-5.788c.06-.81.22-1.677.194-2.484-.01-.307-.088-.497-.272-.736-.6-.365-1.28-.266-1.957-.25m-17.759.164c-.403.05-.862.039-1.182.312-.19.383-.234.833-.273 1.255-.214 2.298-.242 4.628-.386 6.933-.235 3.753-.543 7.508-.842 11.257l-.816 9.454c-.282 3.264-.539 6.545-1.15 9.768l-.018-.179c-.251-2.769-.048-5.683-.021-8.466.01-1.018.163-2.297-.075-3.283l-.139-.07c-.248.245-.292.44-.358.78-.476 2.434-.55 6.08-.751 8.653-.264 3.368-.415 6.738-.638 10.108-.2 3.027-.49 6.063-.596 9.093-.213 3.34-.51 6.725-.496 10.07.434.24.866.49 1.305.72q.421-6.252 1.135-12.479c.834-7.153 6.815-51.065 5.621-53.875zm116.572.044c-.457 6.103-.214 12.289-.077 18.404q.26 12.79.74 25.575c.136 4.147.169 8.3.254 12.448.053 2.554.023 5.276.388 7.804.974.436 1.963.808 2.964 1.174-1.052-12.93-2.495-25.817-3.23-38.777q-.44-7.961-.624-15.932c-.055-2.338.095-8.891-.416-10.696M92.04 55.7c-.077.124-.175.238-.231.373-.179.433.166 10.352.26 11.75l.15.204c.064-2.085.668-10.9.046-12.185zm96.837.036c-.045 5.632.412 11.37.904 16.98.83 9.461 2.179 18.895 3.219 28.336q.65 5.674 1.167 11.361c.192 2.212.261 4.478.526 6.677.065.535.163 1.155.542 1.565.137.147.208.146.387.203.835-1.09.414-6.7.369-8.265l-.701-16.565c-.204-5.26-1.024-36.585-3.132-38.8l-.257-.032c-.331.274-.456.528-.505.948-.172 1.5-.18 3.062-.195 4.572-.005.569.116 1.43-.012 1.957-.02.086-.107.14-.161.21l.145.047-.051.23c-.44-1.758-.459-8.282-1.319-9.3-.327-.135-.581-.13-.926-.124m8.148.036c-.786 2.043 1.967 42.893 2.312 48.672.292 4.883.39 9.79.835 14.662.123 1.34.183 2.962.727 4.192.494.124.987.254 1.488.347l1.157-.484c.172-.126.36-.179.391-.404.145-1.072-.66-7.255-.825-8.832q-.785-7.69-1.438-15.392l-2.396-28.557c-.18-2.307-.662-12.618-1.213-14.088-.333-.198-.668-.137-1.038-.116m-16.762.031c-.148 6.834 3.326 62.83 5.74 66.26l.238.074c.336-.247.483-.602.673-.96l1.01-1.892q-1.894-25.394-5.133-50.65c-.28-2.362-.978-11.04-1.8-12.659-.27-.17-.405-.153-.728-.173m29.394-.016c.115 2.707.499 5.44.772 8.138.516 5.095 1.041 10.204 1.438 15.31q.438 6.16.679 12.33c.12 2.784.182 5.575.484 8.348q.757 7.244 1.668 14.47l.801 5.903c.1.756.319 1.659.287 2.414l.183.052.005.323-.1-.076.088.24c.254-.207.334-.44.454-.733.492-1.466.758-2.86.702-4.41-.088-2.434-.43-4.888-.686-7.31l-1.322-12.53-2.267-21.05c-.551-5.303-.98-10.632-1.644-15.92-.171-1.364-.296-4.048-.905-5.228-.094-.182-.165-.194-.365-.24-.078-.019-.19-.025-.272-.03m-3.508.149c-.12 2.353.162 4.748.362 7.092q.433 5.02.924 10.035c.493 5.064.878 10.14 1.421 15.198q1.118 9.522 2.36 19.028c.278 2.171.796 8.373 1.488 10.12-.434-9.483-.587-18.978-1.308-28.447-.671-8.825-1.906-17.735-3.311-26.474-.2-1.243-.663-5.709-1.377-6.425zm-61.498.167c-.059 1.517.1 3.06.196 4.574.2 3.184.495 6.358.746 9.538.168 2.138.215 5.897.723 7.793.12-5.01-.155-10.107-.412-15.114-.11-2.151-.068-4.485-.455-6.601-.266-.204-.477-.178-.798-.19M57.32 57.47c-.803 1.188-1.736 2.561-2 3.997-.24 1.315-.116 2.816-.103 4.15l.111 7.647c.031 2.724-.288 7.499.202 9.992l.038.191c.867-6.674.994-13.54 1.396-20.261.07-1.16.488-4.843.356-5.716m8.21-.063c-.275.27-.435.377-.534.769-.314 1.241-.346 2.703-.496 3.98q-.474 4.133-1.03 8.255c-.79 5.89-1.662 11.768-2.296 17.678-.588 5.479-.946 10.98-1.465 16.465-.427 4.508-.876 9.027-1.127 13.547-.082 1.486-.282 2.974-.244 4.468.003.129.007.147.02.257l-.009-.17.057.105c.443-1.81.476-3.74.664-5.59l1.02-9.899c.695-6.818 1.172-13.663 1.992-20.467q1.019-8.054 2.555-16.026c.134-.953.238-1.926.456-2.864l.006.188c.062 2.217-.187 4.487-.251 6.709l-.696 19.606c-.083 2.731.041 5.471.101 8.202l.254 12.63c.028 1.506-.204 6.389.221 7.444l.144.05c.483-.544.472-2.813.556-3.65.437-4.32.65-8.636.889-12.97q.484-8.276.756-16.561c.273-10.024.288-20.054.707-30.076-1.416-.563-1.208-1.547-2.25-2.08m108.282.863c-.219.91-.02 1.957.072 2.884.301 3.018.767 6.02 1.15 9.029q.746 6.093 1.428 12.194.419 3.537.736 7.084c.148 1.676.202 3.415.506 5.068.047-3.626-2.45-34.965-3.462-36.14zm-2.005.167c-.403.882-.07 4.729-.03 5.953q.321 11.701 1.436 23.354t3.018 23.203q.564 3.677 1.277 7.33c.133.715.154 1.59.405 2.26.015.04.036.08.054.12l.105-.178.004-.211c.044-1.675.467-3.31.66-4.968.11-.937.066-1.916.043-2.859-.094-3.924-.222-7.873-.62-11.78-.186-1.825-.546-3.628-.74-5.453q-1.54-14.974-4.058-29.815c-.255-1.541-.636-5.62-1.103-6.78a1.5 1.5 0 0 0-.451-.176m30.135.478c-.29 1.672.118 3.788.256 5.497l.82 9.947q1.131 15.794 2.511 31.569c.322 3.735.489 7.515.915 11.238.139 1.215.332 2.397.762 3.546.89-.102 1.776-.203 2.658-.365l.203-.124c.136-1.064-.245-2.55-.37-3.64l-.8-7.267q-1.55-15.55-3.393-31.068c-.64-5.14-1.273-10.262-2.211-15.36-.215-1.164-.247-2.856-.88-3.848zm-32.59 1.037c-.86.703-.984 1.064-1.097 2.153-.217 2.102-.177 4.26-.197 6.372q-.052 6.65.229 13.293.49 14.12 1.626 28.203c.207 2.667.316 8.26 1.195 10.422.433.377.833.67 1.346.931.188-.017.249.026.375-.139.435-.57.453-1.505.47-2.202.087-3.719-.333-7.584-.508-11.309q-.504-12.287-1.363-24.553l-.815-13.09c-.202-3.184-.342-6.437-.885-9.587a.94.94 0 0 0-.2-.456zm18.825 1.38c-.324 7.307-.739 14.576-.554 21.896.24 9.498 1.349 18.867 2.51 28.283.182 1.466.46 6.617 1.319 7.602.15.172.35.276.545.385.185-.25.341-.48.368-.799.224-2.632-.359-5.77-.608-8.432l-1.19-13.666-1.332-13.873c-.212-2.236-.492-4.486-.605-6.727-.178-3.553-.047-7.118-.164-10.674-.039-1.18-.006-2.444-.185-3.609a1.7 1.7 0 0 0-.104-.386m-21.36 2.36c-.138 2.64-.323 5.289-.348 7.93-.052 5.627.219 11.254.307 16.88l.104 7.69c.017 1.734-.037 3.496.152 5.22.404-2.904.178-37.027-.215-37.72M52.666 66.087c-.458.771-.806 1.488-.912 2.395-.578 4.936-.342 10.985-.417 16.053-.058 3.921-.35 7.835-.625 11.746-.291 4.15-.564 8.27-1.222 12.382-.253 1.584-1.965 13.582-1.572 14.407.032.066.084.12.127.18.561-.232 1.206-.463 1.468-1.067.631-1.456.666-8.324.836-10.394.33-4.04 1.12-8.027 1.473-12.068.602-6.894.734-13.9.977-20.818q.127-3.948.113-7.898c.005-1.54.095-3.157-.087-4.687zm162.003.861c.593 4.724.891 9.487 1.404 14.221l2.534 21.53q.643 6.028 1.466 12.033c.319 2.427.594 4.933 1.09 7.33l1.387-.939.646-.499c-1.898-11.705-2.605-23.597-4.338-35.324-.612-4.136-1.431-8.293-2.347-12.37-.398-1.773-.741-4.266-1.642-5.843zm-165.533 8.34c-1.158 1.373-3.955 19.218-3.75 21.57.015.179.064.318.148.475h.192q.918-3.14 1.567-6.346c.366-1.798 2.581-14.797 2.193-15.541zm-9.601 5.762c-.628 1.137-.881 2.691-1.187 3.95-2.26 9.314-2.277 18.672-2.767 28.186-.088 1.7-.617 6.792-.246 8.151.013.049.034.094.051.141l.132.046c1.267-4.376 1.249-9.132 1.556-13.658q.52-7.26 1.207-14.506.422-4.021.98-8.025c.186-1.314.555-2.685.569-4.008-.1-.118-.161-.196-.295-.277m5.067-.003c-.236.239-.306.399-.356.733-.253 1.672-.235 3.476-.344 5.167l-.684 9.477c-.415 5.472-.88 10.93-1.215 16.409-.149 2.428-.38 4.906-.376 7.338.001.393.015.758.11 1.142l.35.263c.262-.1.645-.154.738-.455.368-1.197.365-3.627.491-4.99.521-5.632 1.113-11.258 1.45-16.906.276-4.611.339-9.266.36-13.885.004-1.081.327-3.209-.152-4.169zm-2.945.146-3.593 38.982c-.06.69-.48 3.28-.157 3.825.577-.271 1.182-.521 1.731-.844.427-2.919.443-5.969.532-8.916.16-5.222.198-10.449.482-15.666q.293-5.609.743-11.207c.134-1.607.61-4.513.485-5.972zm179.864 3.897c.528 3.191 1.212 6.434 1.51 9.651.232 2.51.254 5.041.452 7.556q.504 5.848 1.304 11.664c.249 1.95.382 4 .81 5.914l1.544.43-.236-2.245q-.442-5.666-.807-11.339c-.18-2.94-.225-6.089-.8-8.977-.467-2.337-1.309-4.62-2.16-6.841.139 1.004.241 1.94.193 2.956l-.03-.145c-.244-1.246-.99-8.022-1.78-8.624M33.629 90.666c-.56.564-.66 1.44-.807 2.195-.452 2.313-.651 4.672-.902 7.013q-.585 5.276-1.061 10.563l-.618 7.142c-.119 1.298-.338 2.625-.362 3.928a1 1 0 0 0 .1.48l.327.063c.38-.146.535-.133.699-.55.766-1.95 3.577-29.15 2.954-30.585-.072-.165-.18-.174-.33-.249m-3.444 4.038c-2.194 4.783-2.308 11.673-2.91 16.964a299 299 0 0 1-1.58 11.913l.06.144c.693-.23 1.408-.44 2.084-.716l.989-12.815c.299-4.203.523-8.33 1.211-12.494.114-.69.622-2.422.172-2.972q-.012-.014-.026-.024m22.886 1.765c-.472 2.353-1.844 22.628-1.224 24.11.18-.091.53-.196.596-.387.383-1.113.831-21.25.628-23.723m10.236.11c-.829 3.368-1.022 6.956-1.544 10.386-.775 5.088-1.877 10.483-2.286 15.585-.03.367-.066.569.107.892l.206.075 1.755.42c.704-3.224.804-6.571 1.108-9.85.474-5.112.946-9.346.862-14.53-.015-.924.075-2.107-.208-2.978m-14.525 8.877c-.451 1.963-2.572 16.097-2.241 17.216.544-1.303 2.542-16.269 2.241-17.216m179.465 1.375c.051 1.606 1.87 14.47 2.38 14.989.266.085.529.169.798.24-.29-4.547-1.06-9.352-2.554-13.658-.172-.495-.323-1.142-.624-1.571m-203.993 4.367c-1.277 3.716-2.072 9.546-2.005 13.504l.16.16.245-.002 1.28-.167c.34-2.05.375-4.189.517-6.266.152-2.24.46-4.61.317-6.847-.16-.216-.267-.28-.514-.382m49.398-.01c-.042 1.667-1.022 9.005-.408 9.887.313-.522.725-8.883.532-9.622-.037-.142-.056-.157-.124-.264m5.564 1.754c-.12 1.483-.885 8.794-.352 9.752.121-1.053.672-9.06.352-9.752m153.905 3.594c.052 2.329.122 4.758.585 7.044l.297-.644.85-2.197c-.238-1.14-.385-3.338-1.423-4.023a3 3 0 0 0-.31-.18m-162.946 4.085c-2.084 2.306-3.028 3.402-6.128 4.23-.755.203-1.551.431-2.337.465-3.402.144-6.67-2.141-9.58-3.603-1.15 1.13-2.485 2.833-4.175 2.96-.233.017-.362.08-.55.215-.199.307-.223.314-.191.674.514.843 1.586 1.242 2.512 1.463.474.113 1.262.226 1.707-.026.157-.09.108-.07.175-.25.195-.519.31-.739.752-1.058q.081-.061.161-.124c.382.417 1.163 1.474 1.765 1.477.28.002.447-.123.685-.256.511-.161 1.058-.393 1.574-.221.13.321.124.49.438.667 1.93-.107 3.748-.77 5.64-1.056.778-.117 1.534.036 2.348-.108.203-.281.302-.527.632-.656q.183.321.349.653l.216.027c.326-.27.658-.718 1.085-.77l.17.088c.561.284 1.065.097 1.645-.114.207-.076.361-.174.555-.276.076-.04.157-.072.237-.105.191.245.297.305.23.633-.037.186-.153.397-.23.571.087.427.285.58.567.905 1.076.082 2.39.25 3.458.118.075-.279.16-.439-.008-.708-.247-.394-.795-.689-1.178-.937l.034-.182c1.249-.363 2.937.97 3.923-.184.026-.187.085-.248-.047-.408-.485-.585-1.698-.957-2.378-1.386-1.367-.863-2.656-1.927-4.056-2.718m154.851.521c-2.01.836-4.089 2.297-5.769 3.67.356.177.782.453 1.181.453.175-.111.453-.364.653-.33-.19.42-.37.836-.525 1.27l.243.07c.287-.189.479-.397.7-.653l.128.022-.199.418.169.14c.805-.135 1.623-.701 2.301-1.14.209.249.383.503.69.633l.108-.537c.223-.106.166-.136.368-.067.385.13.748.433 1.081.668.12-.28.166-.456.434-.622.202.12.36.254.534.414.143-.02.25-.049.386-.091.567-.175 3.663.111 4.23.435.181.104.197.084.219.328.006.066-.039.356-.05.43l.032.035c.532-.727.953-1.645 1.305-2.474-2.096-1.062-5.918-2.735-8.219-3.072m-16.135.636c-2.006.421-4.291 2.14-5.466 3.796.098.24.147.222.36.35.322-.04.512-.135.793-.283.37.068.598.368.855.622l.965-.771c.328.048.391.21.581.472q.086.12.165.246c.103-.326.021-.796.297-.981.47.556.51 1.146 1.193 1.486l.262-.03a4.6 4.6 0 0 0 .223-.754c.219-.097.162-.13.342-.05.245.11.42.297.61.48l.179-.003.171-.452.227-.047c.269.22.276.689.56.714l.67-.627q.068.033.134.07c.513.303.845.716 1.418.942.325-.156.459-.365.682-.638l.713-.266c1.305.283 3.333 1.002 4.64.712l.161-.157c-.172-.322-.474-.46-.799-.618-1.771-.866-3.667-1.447-5.444-2.327-.873-.433-2.698-1.737-3.518-1.893-.322-.061-.65-.024-.974.007m-35.01.954c-.508.468-1.545.707-2.2.923.18.936.313 1.92.581 2.834l.159-.047c.298-.086.491-.15.8-.086l.16-.19c.918-.873 1.75-1.651 2.883-2.238-.78-.436-1.57-.823-2.382-1.195m-131.51.114c-1.803 1.518-4.061 3.343-6.582 3.082-1.694-.174-3.174-1.33-4.382-2.456-2.62.885-6.38 2.207-9.104 2.519-.892.102-1.82.05-2.717.034l-.012.14.424.09c.04.372-.265.235.064.559 1.052.146 2.172.335 3.223.153.288-.05.582.018.866.073.696.134 2.818-.726 3.184-.15.051.081.117.29.148.385.864.433 2.372-.205 3.312-.24.608-.024 1.152.37 1.76.39 1.467.05 5.09-.463 6.283-.035.51.183.889.57 1.18 1.014l-.016-.189.067.26c.431-.035.796-.207 1.213-.245.479-.043 1.007.03 1.49.044 1.16.033 2.093-.367 3.135-.812.39-.654.889-1.319.977-2.088a1.8 1.8 0 0 0-.552-.337c-1.363-.571-2.604-1.778-3.961-2.191m40.569 1.305c-.766.153-1.688.252-2.276.81-1.345-.051-3.108-.351-4.394.041.801.428 1.71.659 2.384 1.29.115-.151.086-.079.12-.203l.354-.233c.47.204.716.67 1.012 1.08.3-.27.582-.625.977-.71.154.157.262.304.375.493.299-.017.425-.11.603-.348.454-.605.591-1.246 1.197-1.754a1.6 1.6 0 0 0 .314-.37l-.102-.152zm119.73 1.67-.096.166.144-.032.136-.187zm-133.742-.166c-.055.394-.124.59.023.966.135.034.23.066.371.052.138-.33.299-.483.158-.828-.184-.07-.362-.142-.552-.19m-33.84 3.766c-1.448.214-2.882.412-4.347.45-4.275.114-8.45-.443-12.715.228 1.251.309 2.744.269 3.922.716l.166.061.098.041c.241.015.477.026.72.032a9.1 9.1 0 0 1 2.692.512c.097.265.143.513.192.79.488.387 1.2.248 1.796.181.669-.075 1.858-.208 2.33-.71a7 7 0 0 0-.13-.79c.255-.248.57-.185.919-.185 1.824-.003 4.088-.113 5.663-1.153l-.04-.04-.04.013-.183-.262.08.302-.218-.309zm182.792 3.131c-1.631.1-2.994.263-4.524.843 1.893-.112 5.393.278 7.229.755.096.36.1.67.462.87.689.382 2.933.207 3.673-.073.123-.129.25-.18.227-.372-.057-.481-.444-.764-.444-1.284l.174-.085a2.7 2.7 0 0 1 .543.382c1.74.223 4.938-.416 6.568-1.008-2.254-.146-4.52-.047-6.777-.065-2.358-.018-4.781-.176-7.13.037m-31.148.629c-2.023.083-4.083.098-6.084.44 1.965.3 4.665.464 6.507.945.09.239.105.41.126.662.325.386.63.472 1.125.521.844.084 2.097.16 2.799-.362.171-.321.324-.937.693-1.008.224-.043.52-.005.751.003 2.27-.642 5.148-.637 7.547-1.046-4.285-.384-9.166-.364-13.464-.155m-145.908 2.992c-1.584.18-3.208.298-4.775.58 2.506.266 5.022.593 7.54.695.063.377.046.813.376 1.067.807.621 3.023.163 3.984.083-.019-.388-.117-.927.1-1.258l.295-.044c2.144-.029 4.347-.453 6.406-1.062-2.717-.256-5.54-.149-8.271-.158-1.83-.006-3.858-.162-5.655.097m33.385.128c-1.697.152-3.322.359-4.98.763.924.045 5.758.322 6.32.573.009.38-.042.545.19.854.704.3 3.347.314 4.076-.06.539-.275.041-.917.904-.918a23.4 23.4 0 0 0 6.244-1.083c-2.265-.145-4.538-.073-6.806-.114-1.952-.035-4.005-.222-5.948-.015m129.137 2.256c-1.924.056-3.827.108-5.722.478 2.076.442 4.23.892 6.357.934.026.341.032.678.033 1.02.609.357 3.331.278 4.042.057.132-.041.147-.058.248-.123.047-.297.018-.727.099-1 2.298-.313 4.776-.545 7.018-1.118-3.909-.499-8.147-.382-12.076-.248m-144.794 3.254q-1.623.027-3.233.225-1.61.199-3.19.566c2.198.005 4.69.241 6.842.694l.116.152-.104.403c.171.268.3.325.614.39.971.204 2.361.111 3.335-.059a4.3 4.3 0 0 0 .024-.888c.752-.203 1.566-.212 2.34-.282 1.707-.153 3.329-.428 4.929-1.071-1.655-.164-3.338-.11-5-.118-2.226-.009-4.447-.042-6.673-.013m-26.11.106-3.229.403c.84.185 1.699.352 2.522.6 1.417.425 2.898 1.255 4.42.885.182-.244.353-.645.655-.69a4.5 4.5 0 0 1 .688-.041c1.37-.098 2.61-.425 3.913-.844-2.222-.426-6.749-.623-8.97-.313m59.055.509c-.905.089-1.83.145-2.721.32 2.123.488 4.23.84 6.39 1.112.072.16.101.29.15.458.105.36.278.522.617.672.693.307 2.791.219 3.528-.04.178-.063.267-.15.318-.323.076-.257.068-.502.068-.766l.139-.163q1.147-.043 2.293-.106c1.426-.191 2.664-.424 3.991-.987-3.13-.308-6.278-.24-9.42-.24-1.76 0-3.608-.114-5.353.063m-11.84 7.262c-2.485.011-4.983.003-7.459.246.949.287 1.89.55 2.874.683 1.142.156 2.353.17 3.462.493.032.203.037.353.03.555.246.324.607.406.992.47.756.123 1.57.095 2.334.115.382-.076.466-.07.742-.336a7 7 0 0 1 .187-.794c2.249-.475 4.055-.557 6.381-1.244-3.12-.374-6.405-.239-9.543-.188m127.938-.005c-1.41.04-2.852.02-4.256.17q2.249.507 4.537.786c.474.053 2.225.108 2.558.29.061.033.082.114.123.172-.008.361-.057.44.158.723.938.318 2.899.421 3.833.153.231-.26.209-.575.233-.906.437-.338 1.787-.304 2.374-.351 1.83-.192 3.658-.555 5.46-.921-4.984-.166-10.035-.276-15.02-.116m-92.874 5.373c-4.698.204-8.925-.113-13.656.515 1.661.376 3.427.623 5.126.724.44.042.703.015 1.07.269q.19.43.362.87c.918.435 2.878.333 3.875.156.397-.315.315-1.03.538-1.162.68-.402 2.33-.368 3.139-.516 1.097-.2 2.183-.44 3.23-.83-1.23-.041-2.453-.08-3.684-.026m-57.156.242-2.655.284c2.246.69 4.6.414 6.796 1.031.127.297.113.574.114.89l.142.193c.93.114 3.28.292 4.061-.221l.08-.237c.084-.244.209-.615.442-.749.373-.213 1-.183 1.425-.213.802-.077 3.303-.344 3.878-.838-.476-.415-12.599-.306-14.151-.158q-.066.007-.132.018m-23.108 1.754a30 30 0 0 0-3.009.392c1.405.232 5.183.508 6.219 1.137l.046.11c.168.389.298.613.726.758.889.301 2.41.18 3.32-.054.135-.265.123-.399.13-.69.2-.246.316-.398.642-.457.351-.062.767-.035 1.125-.04 1.538-.17 2.973-.553 4.422-1.092-2.388-.202-4.815-.137-7.21-.143-2.126-.005-4.292-.083-6.412.078m45.303 5.626c-1.76.112-3.503.231-5.24.55 2.134.465 4.179.653 6.355.771.03.238.07 1.107.225 1.236.606.506 2.616.284 3.383.146.325-.058.555-.123.812-.344.007-.253.03-.155-.017-.3.086-.351.068-.545.357-.773 2.038-.17 3.781-.445 5.707-1.16-2.293-.23-4.545-.12-6.843-.12-1.576 0-3.165-.084-4.739-.006m119.786.624c-1.073.065-2.16.097-3.225.245 2.069.638 4.202.59 6.253 1.16.132.346-.061.625.18.888.925.159 2.513.4 3.366-.038.115-.366.134-.626.481-.853.52-.339 1.445-.304 2.053-.351 1.6-.27 3.198-.565 4.813-.726-2.844-.687-10.86-.584-13.922-.325m-152.392 2.373c-1.076.124-2.176.21-3.238.42 2.021.367 4.672.348 6.428.756l.026.128c.076.338.131.638.431.855.875.632 2.715.317 3.73.21.273-.294.386-.498.383-.906q-.002-.076-.008-.153c.481-.289 1.752-.217 2.34-.252 1.415-.232 2.823-.5 4.18-.98-2.727-.285-5.526-.134-8.263-.151-1.904-.013-4.14-.233-6.009.072m136.817 1.76c-2.607.05-5.314.017-7.894.411 1.954.484 3.988.704 5.983.965.209.484-.328.661.41.955 1.045.415 2.518.263 3.631.225.465-.373.27-.869.488-1.042.17-.135 6.378-1.082 7.305-1.291-3.306-.06-6.618-.242-9.924-.223m-18.376 4.62c-2.664.112-5.565.073-8.185.546l.233.051c1.535.333 4.462.327 5.665.935-.127.206-.041.119-.269.25q.47.383.95.753c1.5.121 2.979.219 4.481.066.346-.099.413-.079.579-.416.047-.095.107-.268.145-.372 2.55-.685 5.13-.99 7.695-1.58-3.72-.148-7.579-.362-11.294-.234m-92.94 3.875c-1.71.176-3.469.273-5.128.748 2.043.149 4.082.407 6.128.505.028.386.001.9.237 1.214.936.28 2.946.36 3.852-.06.264-.123.319-.274.462-.514l-.014-.523.12-.153c2.153-.02 3.954-.512 5.999-1.126-3.88-.2-7.774 0-11.657-.09"/><path d="M98.407 68.674c.39-1.03.807-2.005 1.442-2.912 2.666-3.81 7.743-6.323 12.226-7.104 4.262-.515 9.426.56 12.95 3.057 1.88 1.333 3.642 3.271 4.76 5.288 2.281 4.12 3.536 11.095 4.08 15.758.233 1.992.23 4.047.583 6.02.314 1.753 1.045 3.158 2.367 4.364 3.37 3.076 8.1 4.337 11.751 7.043 2.84 2.104 5.405 4.566 7.89 7.069 1.168 1.176 2.314 2.518 3.583 3.578.725.606 1.63.893 2.374 1.459 1.791 1.364 7.41 13.147 8.336 15.73.299.835.403 1.734.61 2.596.363 1.52.845 3.007 1.078 4.556 3.171 2.978 6.11 6.292 9.176 9.389 2.801 2.83 5.82 5.524 8.51 8.452.432.47 1.029 1.091 1.2 1.713.074.269.075.267-.077.513-.723.117-2.147-.42-2.904-.562-2.06-.388-4.162-.665-6.26-.689 1.828.689 3.08 1.347 4.43 2.789-.707-.23-1.43-.387-2.155-.552 2.464 2.58 4.76 5.339 7.277 7.856-2.514-.988-5.214-1.855-7.454-3.392-.776-.532-3.771-3.271-4.119-3.417.866 1.373 2.385 2.323 3.17 3.77.358.66.502 1.463.257 2.19-.05.147-.143.377-.296.43-.983.344-7.054-1.978-8.545-2.337-1.416-.341-2.59-.053-3.994-.076-.788-.012-1.558-.32-2.343-.364-.79-.045-1.582.286-2.375.262-1.259-.04-2.554-.331-3.816-.44-.55-.047-1.05.165-1.58.129-2.107-.144-4.566-.65-6.545-1.336a18 18 0 0 1-1.507.62c-1.749-.632-3.062-.595-4.88-.491-.042.442-.087.902-.269 1.313-.341.768-1.094.96-1.82 1.219-.035 3.581-.611 7.149-.545 10.736 1.08.259 2.14.533 3.198.88 1.033.4 2.699.695 3.51 1.432l-.072.179c-1.016.624-3.947-.868-5.271-1.095-2.298-.394-1.317.978-2.51 1.708-1.807 1.105-17.434.965-20.706 1.22-1.017.08-6.886.944-7.343.827-.23-.194-.353-.351-.387-.663-.125-1.122 1.35-2.702 2.013-3.58-.211-.122-.417-.23-.595-.398-.396-.374-.579-.497-1.136-.602-.298-.055-.55-.103-.83-.225-.085-.3-.1-.386.025-.692.608-1.498 5.611-3.483 7.055-4.008 6.3-2.29 8.686-1.004 14.351 1.629l.21-.15c.781-1.425.805-4.264.614-5.858-2.221-2.86-2.781-6.563-3.367-10.052-2.387-1.126-4.736-2.33-7.13-3.441-2.017-.936-4.137-1.78-6.083-2.853-2.86-1.576-5.571-3.436-8.254-5.293-1.51-1.045-3.341-2.18-4.491-3.613-1.105-1.378-1.808-3.282-2.555-4.877-1.135-2.425-2.25-4.862-3.418-7.272-1.445-2.981-3.148-5.844-4.5-8.868-.916-2.05-1.052-4.422-.644-6.625.257-1.392.853-2.722 1.362-4.038.788-2.035 1.578-4.063 2.537-6.025 1.33-2.723 2.897-5.446 3.963-8.28.23-.611.753-1.814.38-2.412-.544-.87-2.62.186-3.416.43-.688.212-1.46.181-2.173.168-2.518-.046-4.646-.89-6.996-1.698-.763-.262-1.621-.618-2.422-.702-1.53-.162-4.302.481-5.582-.06-.316-.133-.537-.393-.662-.706-.682-1.706.59-5.7 1.275-7.347 2.849-6.851 7.055-8.624 13.484-11.267M130.907 81l.078.057c.022.983.264 2.225.668 3.121-.018-.964-.21-2.266-.667-3.12zm-27.54 1.483c.029.112.17.191.258.267l.169.3.053.075-.053-.075-.169-.3c-.083-.214-.012-.113-.258-.267m22.54 2.017.08.058c.02 1.047.258 2.086.352 3.129.067.742.026 1.456.171 2.193l.118-.017c.388-1.81.227-3.648-.642-5.305zm-30.556 2.358c.01-.062.025-.124.032-.187.053-.5-1.588-3.352-1.984-3.875-.034-.396-.004-.405.216-.743.132-.07.22-.176.372-.11.77.33 2.083 2.796 2.308 3.593.099.351.099.715.097 1.076.8-.162 1.6-.319 2.39-.515-.624-3.044-2.259-3.821-3.23-6.252-.17-.427.06-.363.195-.728.079-.213-.288-1.575-.337-1.837a40 40 0 0 1-.57-4.496c.302-.263.596-.47.94-.675.758 7.426 1.155 7.697 6.628 12.622a.9.9 0 0 0 .413-.232c.24.148.214.185.32.431-.192.127-.26.157-.472.208.196.644 1.788 1.962 2.306 2.57.41.48.763 1.027 1.131 1.54 9.132-1.04 16.435-3.022 22.416-10.55.889-1.119 1.807-2.328 2.31-3.677-.7-4.73-2.317-9.01-6.244-11.938-2.544-1.897-5.535-2.768-8.654-3.112q-.438-.035-.879-.048-.44-.013-.88-.004t-.879.04-.876.082-.87.127-.864.17-.854.212-.842.255-.829.296-.813.337-.795.377-.775.416-.754.454-.73.491-.705.527-.678.561c-2.94 2.514-3.808 6.078-4.09 9.826-.13 1.736-.052 3.432 1.139 4.817 1.147 1.335 2.695 2.086 4.035 3.169l.468 1.255c-.22.547-.401 1.243-.968 1.52l-.094-.039.294-.77c-.16.052-.29.105-.44.177-.26-.334-.238-1.398-.266-1.857-2.993-2.282-4.561-4.001-5.09-7.855-.208-1.523-.161-2.918.311-4.389-6.235 2.654-9.685 4.331-12.33 10.94-.492 1.23-1.61 4.101-1.131 5.362.088.233.18.34.36.504.742.18 3.435-.246 4.849-.055 1.302.176 2.52.636 3.75 1.076 3.86 1.38 6.156 1.59 10.191.55-.39-.407-.77-.838-1.193-1.211-2.33 1.006-4.828.658-7.126-.253-.177-.07-.101-.017-.23-.174M128.27 92l.07.136c.081.756.23 1.491.706 2.104l.066.135-.066-.135c-.112-.707-.382-1.467-.706-2.103zm-2.991 2.981.04.148c.129.54.261.933.62 1.361l.085.191.143.275.108.06.14.331.126.212.104.099.145.295.105.076c.075.109.15.24.239.337l.158.183.108.108.08.093-.08-.093-.108-.108-.158-.183c-.06-.117-.16-.23-.239-.337l-.105-.076-.145-.295-.104-.099-.126-.212-.14-.33-.108-.061-.143-.275-.085-.191c-.13-.531-.293-.92-.62-1.361zm10.346.649.201.048.179.214c.31.425.629.517 1.116.658-.35-.322-.654-.541-1.117-.658l-.178-.214zm-7.725.62.058.181.137.05c.462.956 1.91 2.135 2.933 2.452a2 2 0 0 0 .531.099l.064.063-.064-.063c-.434-.383-1.072-.681-1.555-1.026-.607-.433-1.136-.939-1.726-1.388l-.183-.137-.137-.05zm-6.025.265.047.066c.922 1.44 3.004 3.825 4.554 4.504-.63-.953-3.578-3.756-4.553-4.504zM139.5 98.28l.185.056.157.139c.385.463 1.196.714 1.782.79.077.01.155.014.233.022l.141.06-.14-.06c-.496-.394-1.406-.663-2.016-.812l-.157-.14zm-21.5.54c1.284.273 2.798.606 3.824 1.464l.078.12.06.06c.095.203.069.173.181.335.402.582.766.891 1.464 1.029-.478-.505-1.081-.957-1.645-1.364l-.06-.06-.078-.12c-2.58-4.039-5.357-6.612-10.14-7.676-.723-.161-1.478-.258-2.154-.57-.004-.455.135-.932.038-1.377-.122.525-.213 1.058-.355 1.578l-2.387.141c.064-.63.197-1.3.051-1.922l-.186-.157c-.263.206-1.039 2.718-1.29 3.265-.625 1.356-1.41 2.616-2.086 3.943-1.66 3.255-5.142 10.553-5.573 14.032-.18 1.458-.186 3.072.28 4.475.406 1.227 1.117 2.445 1.714 3.592 1.026 1.975 2.088 3.936 3.075 5.93 1.236 2.499 2.391 5.043 3.579 7.565.653 1.389 1.253 3.067 2.209 4.261.957 1.197 2.34 2.127 3.56 3.04 2.668 1.994 5.486 3.884 8.413 5.476 4.667 2.54 9.634 4.576 14.373 7-.239 1.847 1.043 7.048 2.201 8.588.579.77 1.046 1.123 1.105 2.128l.206.206c-.034-.507-.166-.952.077-1.407.442-.201.863-.077 1.296.098.49.198.687.636.937 1.069q.045-.057.093-.113c.413-.482.816-.697 1.372-.965.129-.197.175-.244.135-.491-.069-.428-.313-.899-.476-1.303.649.167 1.297.342 1.95.496l.144-.086c.83-.486 1.612-.209 2.048-.516-.01-.303-.131-.424-.346-.625-1.039-.976-2.49-1.526-3.602-2.446 2.081.641 4.029 1.331 6.229 1.386-.806-.843-1.709-1.65-2.426-2.566l.17.069c1.193.492 2.2 1.359 3.375 1.835q.423-.29.858-.564c.924.341 1.276 1.76 2.557 1.272.266-.284.368-.541.5-.897.065-.014.129-.046.196-.042.104.006.426.192.527.238 1.154.519 2.136.99 3.383 1.237l-.504-1.567.133.073c1.008.569 2.17 1.98 3.415 1.835.125-.117.256-.169.259-.354.005-.305-.16-.596-.281-.87.789.439 1.826 1.166 2.737 1.22.158-.074.296-.084.363-.26.107-.28.054-.588.032-.88l.14-.044c.699.706 1.267 1.53 2.363 1.461.167-.01.19-.025.328-.069.197-.323.056-.567-.015-.926l.17.031-.137-.173c.457.345.916.768 1.469.934l.32-.058.065-.132c.09-.176.047-.11.158-.248q.444.23.88.473c.34.188 1.262.172 1.615.056-.24-.133-.452-.183-.564-.44 1.032-.351 1.515.712 3.23.227 1.573.496 3.155.973 4.709 1.525-1.079-1.072-2.246-2.129-3.189-3.324-.683-.867-1.229-1.898-1.945-2.718l-.115-.18-.061-.071.061.071.115.18c.325.979 1.01 1.796 1.335 2.784-.194.15-.273.126-.51.104-2.062-.192-3.119-2.399-4.3-3.771l-.165-.188-.088-.08c-.04-.103-.125-.208-.186-.301l-.203-.115-.062-.184.062.184.203.115.186.3.088.081c.472 1.132 1.326 2.21 2.01 3.227-2.866-1.4-2.914-2.293-5.05-4.145l-.09-.077-.061-.061-.064-.173-.185-.054.185.054.064.173.06.06c.881 1.506 2.124 2.76 2.946 4.32-1.453-.77-3.154-1.377-4.46-2.374-1.268-.968-2.336-2.378-3.714-3.18l-.081-.05.081.05c1.405 1.566 2.959 3.348 4.565 4.696-2.05-.075-3.742-1.078-5.297-2.366-.432-.357-.825-.777-1.288-1.09l-.08-.087-.077-.08.077.08.08.087c.627 1.325 1.858 2.198 2.476 3.574-3.374-.83-3.71-2.306-6.275-4.061l-.206-.138-.078-.09-.103-.1.102.1.08.09c.743 1.28 2.234 2.554 3.267 3.632-3.81-.554-4.68-2.274-7.397-4.531l-.116-.095-.082-.1-.08-.096.08.097.082.1c.746 1.302 2.112 2.456 3.154 3.548-.538.381-1.04.718-1.72.74-3.815.12-6.329-4.552-8.922-6.597-.936-.737-2.227-1.187-3.264-1.794q-.967-.573-1.89-1.217-.923-.643-1.796-1.353-.874-.71-1.692-1.482-.819-.772-1.578-1.602c-1.17-1.281-2.227-2.707-3.188-4.152-.821-1.237-1.602-2.972-2.708-3.945-1.156-1.018-2.985-1.693-4.34-2.477-2.151-1.244-3.921-2.76-5.691-4.481 2.258.834 4.055 2.576 6.245 3.41l.075.057-.075-.056c-1.052-1.03-2.06-2.025-2.966-3.195-2.254-2.91-3.52-6.053-4.7-9.502-.235-.691-.755-1.805-.66-2.539.193.049.348.347.47.507.346-.758-.152-3.377-.256-4.29.636-.041 1.152-.002 1.642-.442.08-.819-.83-1.674-1.27-2.374 1.34.106 2.687.314 4.021.478l.051-1.7c-1.193-.986-2.357-1.924-3.307-3.158 1.459.981 2.998 1.761 4.736 2.119.478.098.881.159 1.307-.13.138-.253.186-.43.139-.72-.259-1.58-1.109-2.333-2.323-3.242.38-.083.745-.177 1.117-.288l-.002-.176c-1.077-1.015-2.373-1.798-3.545-2.701m17.375 1.957.177.06.099.225.066.037c.718.867 1.856 1.696 2.963 1.938l.068.057-.068-.057c-.872-.68-1.956-1.488-2.963-1.937l-.066-.038-.099-.225zm5.885.475.066.181.241.041c.772.991 2.352 1.727 3.553 1.947-.575-.41-2.915-1.722-3.553-1.947l-.24-.041zm3.996 1.395.192.043.212.194c.26.404.792.535 1.22.68q-.12-.131-.26-.241t-.296-.197q-.155-.086-.322-.147t-.342-.095l-.212-.194zm-12.381.5.07.052q.04.065.084.128c.945 1.296 3.142 2.906 4.73 3.192-.948-.828-3.681-2.729-4.814-3.32zm-2.847.105.062.054c.915 1.304 2.48 2.968 4.122 3.206q.106.014.213.026l.073.056-.073-.056c-.466-.363-1.015-.646-1.493-1.008-.958-.723-1.856-1.54-2.842-2.224zm13.097 2.524.18.056.094.232.065.035c.422.576 1.398 1.401 2.1 1.584l.083.085.217.108-.217-.108-.082-.085c-.462-.597-1.414-1.268-2.101-1.584l-.065-.035-.093-.231zm2.012.227.058.053c.947 1.046 2.91 2.564 4.235 2.974l.068.065-.068-.065c-.907-1.057-2.97-2.402-4.235-2.974zm-6.589-1.083c.766.85 2.012 1.82 3.125 2.13l.075.047-.075-.047c-.422-.595-2.412-1.806-3.125-2.13m11.077 2.237.053.066q.03.058.063.113c1.199 1.89 3.627 3.248 5.753 3.692-.632-.601-1.719-.695-2.455-1.184-1.154-.767-2.118-2.023-3.361-2.62zm-28.714-.434c.08.133.103.187.212.307.357.394.808.445 1.31.493l.065.071-.065-.071c-.439-.37-1-.578-1.522-.8m33.607 2.029.058.173.252.092.034.062c.261.416.543.655.964.9-.288-.388-.544-.657-.964-.9l-.034-.062-.252-.092zm-19.393.276.182.055.048.133c.615.873 1.533 1.555 2.57 1.833l.073.045-.074-.045c-.784-.656-1.682-1.326-2.57-1.834l-.047-.132zm8.252 1.108.124.115.083.077c.777 1.106 2.753 2.96 4.028 3.366l.131.056-.131-.056c-1.033-1.129-2.707-2.613-4.028-3.366l-.083-.077zm-23.104 1.365.097.129.16.186.093.162-.094-.162-.159-.186zm-1.495.5.096.125.168.25c.134.37.225.59.528.862l.082.192c.093.121.177.243.29.347l.029.091-.03-.091-.289-.347-.082-.192c-.137-.385-.245-.567-.528-.861l-.168-.251zm29.351.25.06.055c.799.989 2.442 2.476 3.728 2.738l.069.052-.069-.052c-.879-.875-2.61-2.198-3.728-2.738zm11.996 1.515.132.102.181.165.259.14.031.05c.907 1.098 1.87 2.532 2.98 3.41-.455-.998-1.98-2.924-2.98-3.41l-.031-.05-.258-.14-.181-.165zM126.53 114l.056.061c.181.392.43.722.716 1.043.841.941 2.29 2.339 3.601 2.407-1.449-1.108-2.814-2.433-4.316-3.45zm10.234.03.051.06c.586.8 1.879 1.72 2.792 2.086-.548-.824-1.864-1.75-2.792-2.086zm-18.608.97.072.058c.073.95.49 2.234 1.198 2.893q.061.054.125.104l.087.105.079.088-.08-.088-.086-.105c-.282-.992-.87-2.066-1.324-2.997zm37.862-.69c.39.62.83.968 1.484 1.29l.135.174.106.005c.32.37.633.691 1.128.758-.128-.341-.825-.608-1.128-.758l-.031-.1-.21-.078c-.43-.51-.957-.892-1.484-1.291m-34.869 2.205.037.136c.058.22.122.44.214.648.632 1.442 1.702 2.583 3.169 3.166-.628-.806-1.467-1.524-2.161-2.288-.444-.489-.785-1.037-1.222-1.526zm11.987.129.05.056c.12.209.24.399.395.584 1.019 1.219 2.143 1.972 3.758 2.124-.959-.761-2.259-1.123-3.352-2.108a4.4 4.4 0 0 0-.8-.6zm14.637.606.06.053c.685 1.062 2.542 2.466 3.744 2.876-.918-.958-2.6-2.181-3.744-2.876zm-8.185-2.736c.096.173.194.343.31.504.648.888 2.297 2.583 3.398 2.782l.066.042-.066-.042c-.766-.891-2.73-2.566-3.708-3.285m11.93 3.736.061.053c.588.834 1.771 2.018 2.737 2.38l.082.084.198.106-.198-.106-.082-.084c-.618-.885-1.833-1.81-2.737-2.38zm3.232.528.177.062.053.118c.627.986 4.28 3.841 5.399 4.233-.867-.998-4.14-3.53-5.399-4.233l-.053-.118zm-26.5 1.374.204.16.046.219c.463.987 1.848 2.252 2.857 2.669l.187.083.079.063-.08-.063-.186-.083c-.776-.895-1.892-1.998-2.857-2.669l-.046-.218zm-4.47 1.983.063.054c.114.436.32.838.543 1.227.66 1.15 1.602 2.273 2.925 2.636-1.315-1.202-2.275-2.572-3.468-3.863zm11.22.638.17.059.07.197c.035.067.065.137.106.201.754 1.168 2.525 2.559 3.886 2.797-.505-.366-1.066-.642-1.567-1.026-.828-.632-1.576-1.375-2.426-1.972l-.069-.197zm16.629.125.18.055.042.14c.737 1.167 2.75 2.572 4.077 2.97l.07.054-.07-.054c-.929-.961-2.884-2.305-4.077-2.97l-.042-.14zm-18.565-.122c.562.839 1.61 1.787 2.544 2.173l.188.081.077.076-.077-.076-.188-.081c-.609-.773-1.725-1.624-2.544-2.173m28.939 3.724.06.052c.63.849 1.814 1.694 2.822 1.984-.784-.763-1.849-1.488-2.821-1.984zm-4.33-1.578c.891 1.12 2.836 2.123 4.187 2.514l.138.056-.138-.056c-.748-.832-3.101-2.045-4.187-2.513m-21.03 2.727.047.06c.091.124.13.184.227.294 1.05 1.191 2.916 2.387 4.51 2.49-.629-.473-4.047-2.508-4.737-2.784zm14.107.373.124.102.243.163c.911.928 2.292 1.93 3.57 2.24l.061.065-.06-.064c-.858-.865-2.447-1.77-3.571-2.24l-.243-.164zm2.625.115.2.046.093.12c.975 1.14 3.254 2.754 4.752 3.103-.889-.86-3.596-2.619-4.752-3.102l-.093-.12zm-12.366.39.044.063q.029.05.06.099c.992 1.512 3.253 3.15 5.002 3.591-1.696-1.226-3.397-2.418-5.062-3.69zm16.616.99.195.047.133.16c.917 1.004 2.59 2.462 3.847 2.946l.064.054-.064-.054c-.764-1.03-2.71-2.441-3.846-2.946l-.134-.16zm3.401.858.119.043c.892 1.14 3.484 3.337 4.848 3.86-.875-1.031-3.614-3.244-4.848-3.86zm-14.651.648.184.056.04.129c.605.827 1.599 1.577 2.642 1.712q.06.006.12.008l.137.06-.136-.06c-.805-.626-1.86-1.23-2.762-1.72l-.041-.13zm-20.192-3.6c.064.212.142.424.244.621.636 1.232 2.313 2.937 3.633 3.396l.088.077.1.076-.1-.076-.088-.077c-.418-.531-1.056-.992-1.537-1.479-.812-.82-1.55-1.699-2.34-2.537m39.459 4.462.053.175.183.054c.773 1.436 3.845 4.004 5.428 4.517.06.02.122.035.183.053l.113.061-.113-.061c-.706-.704-1.673-1.269-2.454-1.904-.99-.805-2.068-2.059-3.157-2.666l-.183-.054zm-13.392.387.18.06.048.14c.722 1.033 3.066 2.866 4.35 3.138.195.042.19.036.36.043l.06.064-.06-.064c-.658-.69-3.794-2.726-4.71-3.18l-.048-.14zm-9 2.258.173.064.05.13c1.156 1.589 4.167 3.547 6.11 3.916.035.007.07.009.104.014l.061.063-.061-.063c-.639-.673-5.157-3.361-6.214-3.93l-.05-.13zm-5.625.22.125.124.082.075c.298.391.547.642.984.871l.08.074.152.134.122.114.078.077-.078-.077-.122-.114-.152-.134-.08-.074c-.289-.405-.543-.638-.984-.871l-.082-.075zm-5.542-3.936.019.054c.626 1.599 2.514 3.614 4.088 4.309l.09.09.093.077-.093-.078-.09-.089c-.595-.767-1.42-1.47-2.097-2.176-.686-.715-1.31-1.488-2.01-2.187m30.07 4.686.054.183.109.038a3.6 3.6 0 0 0 .415.653c.691.85 1.68 1.421 2.767 1.545-.163-.121-.092-.078-.258-.166-1.064-.564-1.982-1.29-2.924-2.032l-.11-.038zm-26.632 1.375.052.074.096.21c.5 1.045 2.011 2.895 3.145 3.267-.914-1.166-2.129-2.501-3.24-3.477zm15.121.836.231.167.18.16c.106.077.201.157.321.211l.096.104c.03.037.057.079.093.112.255.237.354.288.684.318q-.003-.011-.008-.021c-.18-.27-.478-.32-.769-.409l-.096-.104-.321-.21-.18-.161zm5.258.414.061.054c1.265 1.78 4.956 4.16 7.193 4.446.136.017.169.011.29.005l.054.087-.055-.087c-.18-.169-.12-.161-.304-.211-2.775-.748-4.629-2.602-6.963-4.103l-.215-.137zm-16.117 1.125.123.038c.984 1.137 2.981 2.893 4.522 3.121l.06.061-.06-.061c-.413-.432-3.977-2.895-4.522-3.12zm32.115 1.255.051.063c1.096 1.826 4.443 3.567 6.433 4.087q.274.07.553.117l.063.07-.063-.07c-1.104-.938-2.77-1.544-4.031-2.308-.999-.603-1.915-1.373-2.955-1.896zm-28.125.12.117.11.138.085c.947 1.18 2.897 2.401 4.329 2.871l.2.085.066.068-.066-.068-.2-.085c-.886-.952-3.138-2.316-4.33-2.871l-.137-.085zm-7.497.5.059.18.225.096.03.084c.55 1.108 2.261 2.435 3.356 2.951-.903-1.075-2.234-2.102-3.357-2.95l-.029-.085-.225-.097zm12.474.772.193.047.235.25.05.031c.814.973 2.688 1.892 3.892 2.186-.865-.81-2.772-1.775-3.892-2.186l-.05-.031-.235-.25zm4 .249.07.053c1.131 1.27 3.332 2.685 4.994 3.083-1.145-1.021-3.554-2.528-4.994-3.083zm11.75.124.176.058.092.244.136.08.078.09-.078-.09-.136-.08-.092-.245zm-4.625 1.253.19.049.243.236.107.078c.028.039.05.082.084.118 1.334 1.449 7.797 3.428 9.94 3.771.97.156 1.87.163 2.849.106-2.442-.813-5.458-1.212-8.085-2.043-1.543-.489-3.349-1.615-4.788-1.952l-.107-.078-.242-.236zm-11.125.365.131.075c.431.358.882.447 1.425.505-.393-.414-.886-.438-1.425-.505zm22.125.886.077.047c.044.054.085.111.133.162 1.243 1.319 5.331 2.292 7.094 2.496 1.109.128 2.207.114 3.321.072-.01-.035-.008-.075-.029-.104-.239-.346-2.108-.299-2.587-.356-2.86-.338-5.278-1.26-7.932-2.27zm-30.95-2.228c.97 1.281 2.755 2.704 4.308 3.154l.136.048-.137-.048c-.547-.575-3.578-2.782-4.308-3.154m13.325 3.456.128.073c2.983 2.29 8.456 2.196 12.002 2.001-.581-.375-6.12-.597-7.393-.791-1.558-.238-2.97-.82-4.488-1.183l-.121-.028zm29.25 3.528.184.056.038.105c.837 1.221 2.83 2.3 4.22 2.7-.93-.846-3.075-2.178-4.22-2.7l-.038-.105zm-2.353.22.118.05c.708.663 2.253 1.472 3.211 1.628l.142.045-.142-.045c-.679-.691-2.276-1.353-3.21-1.628zm-11.498.25.162.202.264.048c.208.5.532.625 1.006.825-.269-.395-.518-.727-1.006-.825l-.264-.048zm6.629.136.12.041c.483.507 1.206.917 1.807 1.272.967.572 3.135 1.824 4.26 1.533l-.088-.224c-2-.775-3.958-1.934-5.98-2.58zm-5.403.129.074.044c.473.64.964 1.15 1.74 1.383-.453-.59-1.047-1.109-1.74-1.383zm1.78-.361c.39.524.792.809 1.407 1.027l.061.055-.061-.055c-.385-.456-.894-.737-1.407-1.027m7.721 4.353.067.054c.62.711 6.614 5.539 7.256 5.838l.05.07-.05-.07c-1.275-1.837-5.212-4.888-7.256-5.838zm-3.11 1.368.061.065c.053.147.052.155.134.318 1.008 2.001 3.94 5.888 6.168 6.528-1.143-1.117-2.3-2.229-3.35-3.436-.971-1.119-1.865-2.407-2.952-3.41zm-57.834 17.02-.058.072zc.735-.164 1.484-.49 2.2-.732 2.218-.749 4.604-1.475 6.97-1.401 1.325.041 2.607.504 3.924.59l.01-.117c-1.32-.455-2.653-.82-4.056-.874-2.237-.086-7.412 1.025-9.048 2.534m-1.53 4.263c5.31-3.035 14.748-1.442 20.943-1.957 1.096-.091 2.355-.07 3.392-.424l.136.096-.136-.096c-.357-.328-.768-.569-1.175-.825l-.055.128.101-.045.564.593c-.098.205-2.03.22-2.355.238-1.675.088-3.333.153-5.012.116-4.462-.1-11.299-.88-15.321 1.137-.436.304-.745.63-1.082 1.039m25.658-2.252-.185.061zl.188-.13zm-13.854-92.328c.496 1.79 1.075 3.573 1.477 5.385.041.188.034.129.176.326.07-1.311-.706-4.579-1.522-5.573-.04-.049-.087-.092-.13-.138m-26.756 2.92c-.723.297-1.561.444-2.235.793.013.31.105.314.31.532.516-.3 1.862-.825 2.14-1.26zm21.208 1.305c.357 1.581.974 3.206 1.159 4.808l.162.172c.052-1.333-.282-3.782-1.16-4.833-.046-.056-.107-.098-.161-.147m4.386 1.883-.013.291.163-.031-.067-.225zm-7.116.248c.094 1.666.142 3.433-.222 5.073.127.163.053.113.204.175.487-1.43.712-3.585.146-5.022-.046-.116-.066-.136-.128-.226m-3.388 1.134c-.14.725-.642 2.36-.382 3.051.325-.72.667-2.15.439-2.915-.014-.047-.038-.09-.057-.136m6.005.37c-.11.7-.604 2.534-.308 3.119.28-.697.662-2.299.364-3.02-.015-.035-.038-.066-.056-.098m-9.63.38c-.118.537-.276 1.055-.195 1.606l.16.138c.107-.523.256-1.047.2-1.582zm18.441.392c.208.91.528 1.711 1.35 2.228.174.109.331.183.533.225-.718-.69-1.235-1.326-1.666-2.23-.073-.153-.048-.099-.217-.223m-13 1.561c.063.04.12.11.193.11l-.112-.136zm10.316 2.04h.099zm.126.25h.087zm2.533.022c.871 1.116 2.727 2.495 4.143 2.69-1.41-.791-2.783-1.996-4.143-2.69m-5.668 8.508c1.064 1.122 2.543 2.404 4.174 2.412q.067-.001.136-.005c-.528-.218-1.063-.434-1.559-.718-.789-.453-1.915-1.47-2.751-1.689m20.745.22h.151zm-21.852 1.77c.682.914 1.989 2.656 3.178 2.81q.087.009.176.016c-1.082-.731-2.33-2.374-3.355-2.827m13.991.606h.138zm-9.266 1.687c.228.722 1.197 1.323 1.845 1.657.491.254.98.431 1.533.487-.584-.647-2.555-1.72-3.377-2.144m-12.538 1.73.193.053c-.168-.068-.102-.079-.193-.053m8.65.464c.542.879 1.647 2.468 2.709 2.682.128.025.187.026.327.038-.91-.64-2.306-2.416-3.037-2.72m14.784.27c.834.98 2.08 2.279 3.417 2.448-.992-.635-2.411-2.091-3.417-2.449m-18.973.873c.523 1.275 1.436 2.896 2.756 3.463.176.075.355.093.543.108-1.057-1.041-2.238-2.728-3.299-3.572m10.205 1.005c1.264 1.255 3.156 3.203 4.924 3.664-.946-.944-3.697-3.259-4.924-3.664m18.47.127.148.116c1.516 1.21 3.257 3.66 5.188 4.046-.888-.92-4.203-4.021-5.335-4.162m9.498 3.74c.258.382.489.808.963.937q.06.013.122.023c-.335-.359-.64-.735-1.085-.96m-16.692.261c1.041 1.094 2.385 2.778 3.936 3.046-1.036-.695-3.021-2.736-3.936-3.046m-4.901 2.357c.962 1.31 2.017 2.576 3.717 2.876.204.036.413.045.62.05-.571-.286-1.174-.562-1.701-.924-.793-.545-1.774-1.724-2.636-2.002m24.87.878c.409.922 1.505 3.212 2.506 3.537.032.01.066.013.1.02-.38-1.12-1.644-2.861-2.606-3.557m-3.2.772c2.06 2.227 6.06 6.907 8.933 7.8-1.486-1.281-8.126-7.45-8.933-7.8m-39.568.703c.302 1.125 1.03 2.729 2.11 3.273.043.022.091.035.137.053-.288-.541-1.87-3.102-2.247-3.326m26.032.547c1.4 1.263 3.207 3.132 5.093 3.535-1.1-.824-3.926-3.219-5.093-3.534m-7.078 2.225c.934 1.16 2.594 3.134 4.19 3.301q.054.005.11.006c-.648-.373-1.275-.749-1.852-1.225-.725-.6-1.62-1.704-2.447-2.082m-10.158.893c.966 1.797 3.022 3.896 5 4.553.15.05.295.08.45.108-1.086-.845-2.18-1.664-3.202-2.589-.723-.655-1.445-1.538-2.248-2.072m15.004.754c1.393 1.447 3.781 3.624 5.852 3.913-1.332-.767-4.9-3.552-5.852-3.913m6.347 2.713h.152zm-19.714 6.41c.634 1.472 2.374 3.752 3.897 4.399.214.09.198.081.386.14-1.313-1.219-3.094-3.701-4.284-4.538m27.208-.022c.762 1.012 1.821 2.109 3.137 2.293l.246.03c-.856-.617-2.494-2.059-3.383-2.323m-5.249 4.488h.141zm15.376 1.654c.859.844 2.77 2.54 4.02 2.615.037.002.076-.004.114-.006-.439-.685-3.327-2.424-4.133-2.61m-15.61 1.595h.141zm13.303 1.282c.993.799 2.206 1.567 3.507 1.656-.85-.394-2.686-1.546-3.507-1.655m-21.802.746c3.257 2.368 6.31 4.234 10.482 4.017-2.076-.395-4.031-.894-5.964-1.78-1.315-.603-3.17-2.015-4.518-2.237m9.112.347h.153zm5.514.267c.59.681.93.725 1.808.798-.57-.351-1.124-.73-1.808-.798m-5.637 1.233h.151zm-2.003 3.344c.806.464 1.97.761 2.884.974-.806-.846-1.778-.92-2.884-.974m4.34.357c.154.33.271.399.62.519.947.325 2.335.406 3.343.43-.169-.291-.201-.293-.545-.376-.984-.238-2.417-.46-3.418-.573m8.345.142c-.394.03-.669.024-.982.298l.029.133c.177.02.336.047.513.024.374-.079.715-.125 1.03-.358l-.044-.083zm2.636.127q.298.345.588.696l.072-.016c.016-.163.088-.304-.04-.43-.175-.169-.392-.193-.62-.25m6.583.062c.436.472.885.912 1.466 1.2-.43-.527-.77-1.016-1.465-1.2m-7.153.156c.137.338.164.39.512.554.142.067.34.103.489.14-.324-.348-.532-.57-1.001-.694m-7.937 2.313h.215zm-15.304 11.648q-.365 1.177-.55 2.396c-.261 1.724-.214 3.477-.462 5.207-.075.526-.459 1.697-.281 2.162l.135.095c.315-.413.484-.813.586-1.324.328-1.644.125-3.43.247-5.105.065-.886.507-2.55.358-3.321-.006-.038-.021-.073-.032-.11m-2.894.232c-.036 1.486.02 2.977-.041 4.461-.045 1.09-.278 2.278-.212 3.358.016.26.1.485.212.717l.141.032c-.228-2.055.857-6.923-.1-8.568m-1.631 1.363c-.095.847-.591 2.753-.299 3.495.196-.813.717-2.608.373-3.377-.02-.042-.05-.078-.074-.118m-11.144 2.368c-3.436.372-7.31 1.673-9.99 3.912 4.182-2.003 9.107-4.43 13.78-2.806 1.753.609 3.22 1.571 4.835 2.453.724.395 1.512.685 2.166 1.196l.046.136c-3.51.374-6.985-.887-10.49-.825-3.013.047-6.268.744-9.091 1.792l.146-.008c2.679-.185 5.253-1.05 7.978-1.162 2.322-.096 4.568.25 6.872.438 1.756.142 3.506.163 5.266.186.3.31.598.614.87.949l.223.064c-.096-.606-.813-1.186-1.298-1.54-2.695-1.965-7.867-5.326-11.313-4.785m15.671.511.062.175zm-.01.626-.146.877.173.12c.103-.393.156-.61-.028-.996m-5.43 1.245c-.09.338-.27.625-.057.935.014.021.036.036.054.054.168-.36.286-.45.172-.841zm2.668 2.756h.102zm3.122 1.25h.108z"/><path d="M100.728 69.54c.445-.936.889-1.82 1.524-2.647 2.478-3.223 6.68-5.206 10.641-5.723 2.487-.319 5.344.237 7.653 1.162 3.398 1.36 6.09 3.797 7.538 7.181.609 1.424 1.577 4.342 1.432 5.859-.05.513-.331 1.08-.523 1.559-.907-.694-1.672-1.639-2.467-2.457-1.638-1.686-3.285-3.401-5.116-4.879-3.013-2.213-6.017-3.648-9.786-3.936-4.409-.336-7.617 1.053-10.896 3.881"/><path d="M107.326 76.935c.668-.749 1.425-1.41 2.092-2.158-.599-.829-1.042-1.582-1.375-2.56.445.564 1.212 2.052 1.855 2.258-.099-.761-.883-1.598-1.203-2.337.523-.987 1.73-2.38 1.698-3.485-.201-.29-.24-.336-.617-.384-.854-.109-1.886.878-2.488 1.375.476-.908.89-1.844 1.933-2.205.533-.184 1.091-.11 1.578.167.929.529 1.467 1.668 1.72 2.664q.018.075.033.15c.201.833.208 1.893.565 2.65.27-.254.266-.603.279-.962q.015-.576.015-1.15c.183.79.314 1.582.436 2.384 2.686.529 5.273 1.127 8.02 1.254-3.006 1.162-6.147-.328-9.294.168-2.274.358-3.473 1.663-5.247 2.17m5.121-7.747L112.4 69zm0 0 .246.224zm.246.224.034.077zm-10.462 14.617c-1.481-1.236-3.207-2.497-4.225-4.163-1.094-1.79-1.266-3.825-1.538-5.85-.07-.523-.323-1.449-.118-1.948.169-.41.53-.497.898-.68.326.491.306 3.204.435 4 .535 3.297 2.286 5.155 4.918 7.064.069.538.16 1.073.029 1.607l-.188.099zm-9.251-6.894c-.063-.88-.38-2.508.037-3.29h.156c.611 1.293.196 4.87.88 5.672.475-1.632-.683-5.41.219-6.576l.147.131c.07 1.92.504 3.916.818 5.81-.644.926-1.3 2.017-2.122 2.788l-.233-.08c-.114-.752.123-1.713.164-2.486.035-.653-.017-1.317-.067-1.969m-.371 3.414c-.039-.033-.084-.06-.117-.098-.974-1.173-.467-4.507-.348-5.996.025.03.055.056.075.089.323.518.554 5.268.39 6.005m14.661-3.56.056-.053zM100.5 79l-.132-.135zm0 0 .1.117z"/><path d="M110.144 82.936a12 12 0 0 1-1.548.08c-2.804-.052-5.687-1.506-7.606-3.535 1.877.236 3.555 1.654 5.3 2.334 1.18.46 2.435.618 3.615 1.035zm-26.612-3.061.079-.058zm9.305 2.688-.11.014c-.216.02-.489.057-.65-.106-.566-.572-.354-1.775-.31-2.514.561.477.938 1.89 1.07 2.606m1.473-1.423c.288-.287.558-.603.834-.903.7.475 3.017 4.529 3.214 5.393-.175.286-.35.302-.647.432-.319.076-.532.133-.861.08-.538-2.164-1.771-3.083-2.54-5.003m-2.897 1.414-.251.116.012-.358.199-.029zm3.937 4.305a17 17 0 0 1-2.139-.777l.308.206c-.341-.72-1.264-2.1-1.36-2.778l.857-.496c.74 1.196 1.43 2.8 2.334 3.844m-3.888-1.297c-.256-.855-.471-1.598-.33-2.503.757.514 1.343 2.042 1.761 2.87zm-1.433-.217c-.262-.097-.494-.158-.694-.361.095-.335.735-.581 1.052-.76a.7.7 0 0 1 .276.264c.16.262.117.52.04.792-.3.17-.329.129-.674.065m7.136 19.499-.152.344-.084-.01c-.195-1.63.104-3.523.154-5.183.08-2.657.021-5.312.092-7.968.328.039.566.075.872.212.176 1.276-.005 2.695-.013 3.988-.012 2.052.175 4.211-.065 6.243-.09.755-.531 1.66-.804 2.374m2.135-5.111-.382.724-.12.02c-.315-2.74-.172-5.569-.097-8.32a5.3 5.3 0 0 1 1.071.051c.111.434.346 5.047.264 5.534-.115.681-.46 1.36-.736 1.991m1.081-2.581c-.01-1.648-.035-3.384-.275-5.014l2.624.025-1.398 3.122c-.293.631-.631 1.248-.951 1.867m84.516 28.72.043-.15zM102.2 173.614l-.198.048.06-.147.18-.051zm8.709.326c-.546.056-1.048.12-1.595.032l.017-.16c.522-.074 1.03-.152 1.552-.042zm-11.869 1.42a2.4 2.4 0 0 1-.684.148c-.287-.273-.242-.55-.295-.935.269.095.52.18.764.334.21.132.166.224.214.453m6.395 2.036c-.11-.118-.082-.048-.083-.21l.573-.027c.041.131.035.054-.037.23zm53.291 2.364c-4.858.174-9.697.663-14.548.973-5.298.338-10.657.505-15.93 1.094-.13.014-.588.114-.68.03 1.862-.613 6.504-.883 8.674-1.101 5.865-.59 11.793-1.094 17.617-2.01-.62-.18-1.248-.323-1.8-.669l.003-.118c.613-.093 7.207.363 8.046.486.47.07.984.184 1.374.469 1.1.804 1.537 2.285 2.64 3.12 1.476 1.12 3.474 1.397 4.935 2.613-2.724-.38-5.597-2.07-8.383-2.466.56-.197 1.101-.375 1.614-.679l-.013-.183c-1.046-.87-7.104-.584-8.814-.792 1.763-.198 3.53-.39 5.265-.766l.15-.102zm-52.171-.619-.534.068-.133-.163.553-.092zm1.922 1.529c-.12.042-.287.056-.414.077l-.186-.167.375-.08zm60.58 3.977.058.072zm-14.365 3.976c1.702-.502 3.475-.824 5.212-1.177 4.466-.91 8.918-1.555 13.433-2.148.428-.076.908-.064 1.345-.091.537.875 2.468 3.844 2.44 4.713-.008.229-.126.272-.275.425-1.404.484-3.905-.004-5.425-.12 1.495-.147 2.994-.275 4.48-.496-.57-1.144-1.37-2.204-2.082-3.263-2.561.427-5.1.811-7.684 1.074-3.731.458-7.681 1.079-11.444 1.083"/><path d="M53.552 198.832c-.855-4.412-1.554-8.857-2.49-13.253 17.24 5.971 34.716 11.165 52.826 13.708q1.989.26 3.983.475 1.994.216 3.992.389 1.998.172 4 .301 2 .13 4.005.215 2.003.085 4.008.127t4.011.04q2.006 0 4.01-.046 2.006-.045 4.009-.134t4.005-.221 3.999-.308 3.991-.395 3.982-.481 3.97-.568 3.958-.654 3.942-.74 3.925-.825c9.221-1.996 18.224-4.615 27.192-7.521 3.43-1.111 6.876-2.197 10.27-3.412-.778 4.275-1.691 8.524-2.469 12.796.887 1.326 1.934 2.57 2.906 3.834 2.602 3.379 5.31 6.65 7.96 9.987l-8.88 3.294q-9.128 3.407-18.453 6.227-8.327 2.6-16.825 4.567-3.068.68-6.156 1.258-3.089.578-6.195 1.053t-6.226.847-6.25.64q-3.13.27-6.268.434-3.138.165-6.28.225-3.141.06-6.283.017-3.142-.044-6.28-.191-5.663-.199-11.3-.762t-11.227-1.487c-12.403-2.126-24.593-5.601-36.505-9.608-6.03-2.03-12.112-4.124-18.012-6.51 3.799-4.362 7.355-8.949 11.155-13.318m123.363 5.09c-1.401.145-2.695.38-3.629 1.547-.543.678-1.005 1.612-.87 2.505.133.88.798 1.585 1.5 2.078 1.403.987 3.991.858 4.898 2.333.036.298.014.363-.164.614-.447.63-1.59 1.088-2.343 1.11-.533.017-1.084-.09-1.61-.172.042.666.02 1.371.309 1.982.27.216.355.202.704.239 1.43-.145 3.15-.44 4.132-1.596.569-.67.929-1.774.848-2.65-.079-.859-.585-1.58-1.25-2.1-1.301-1.017-4.362-1.033-5.025-2.365.03-.437.166-.731.5-1.027.741-.658 2.014-.557 2.942-.552-.06-.608-.056-1.285-.338-1.834-.231-.133-.34-.136-.604-.112m-95.13.507c-.967 3.573-2.165 7.081-3.12 10.666.682.185 1.387.344 2.053.58.47-1.53.872-3.066 1.251-4.62 1.062.27 2.092.588 3.128.942l.519.168c.206-.143.244-.156.292-.418.073-.4.043-.855.046-1.263q-1.697-.616-3.418-1.156c.275-.852.577-1.703.775-2.577 1.264.332 2.489.745 3.723 1.171l.581-1.876q-2.905-.844-5.83-1.617m8.749 2.325c-1.65 3.519-3.918 6.707-5.733 10.14.671.213 1.336.437 2.025.587.428-.856.89-1.677 1.38-2.497l1.415.363 1.845.546q.118 1.4.212 2.802c.715.152 1.444.281 2.144.492-.24-3.926-.855-7.943-.822-11.869a40 40 0 0 1-2.466-.564m76.935.173c-1.658.13-3.198.615-4.781 1.094q1.49 5.434 2.848 10.902l2.025-.488c1.793-.56 3.527-1.197 4.492-2.947.81-1.473.632-3.406.15-4.964-.425-1.373-1.223-2.537-2.538-3.18-.697-.34-1.43-.41-2.196-.417m-6.722 1.345c-.598.16-1.198.31-1.78.523.486 2.478 1.173 4.921 1.798 7.368-1.73-2.284-3.663-4.445-5.542-6.607-.595.126-1.194.243-1.786.381.272 1.641 1.668 10.096 2.172 10.95l.108.062c.616-.104 1.225-.204 1.827-.375q-.776-3.704-1.648-7.386c1.94 2.134 3.691 4.452 5.646 6.562.579-.152 1.166-.29 1.739-.467-.97-3.58-1.223-7.4-2.37-10.93zm-63.435.1c-.816 3.622-1.63 7.37-2.114 11.049l2.019.442c.282-1.494.541-2.997.86-4.483.78.184 1.509.334 1.959 1.067.369.602.378 1.458.425 2.148.054.637.102 1.272.207 1.903l2.144.303c-.374-1.988-.22-3.997-1.422-5.723.954-.42 1.834-.839 2.212-1.894.271-.76.257-1.783-.117-2.506-.441-.852-1.332-1.283-2.216-1.537-1.29-.37-2.647-.49-3.957-.77m11.14 2.141c-1.485.447-2.581 1.183-3.352 2.575-.863 1.56-1.173 3.677-.668 5.392.345 1.176 1.094 2.23 2.197 2.801.986.51 1.962.503 3.032.403 1.507-.515 2.539-1.29 3.266-2.754.815-1.638 1.04-3.749.411-5.478-.415-1.142-1.203-2.1-2.324-2.598-.816-.362-1.683-.44-2.562-.341m40.383.046-1.896.209-1.858 11.647 2.107-.208c.156-.897.283-1.812.485-2.7.752-.114 1.503-.236 2.26-.322.182-.044.526-.189.692-.096.606.34.951 1.782 1.276 2.409l2.22-.364c-.676-1.464-4.406-10.112-4.865-10.611-.113.008-.314.007-.421.036m-33.31.923c-.348 3.651-.89 7.347-1.044 11.007q3.128.262 6.251.571c.076-.592.16-1.178.173-1.776q-2.136-.269-4.284-.423l.17-1.39.176-1.706c1.171.092 2.344.2 3.519.245l.35-1.73q-1.853-.112-3.699-.31l.154-2.599c1.398.192 2.792.268 4.2.328.072-.577.15-1.152.191-1.732q-3.082-.203-6.158-.485m23.144.188c-.33.04-.634.013-.898.222-.066 1.368.09 2.777.167 4.144q.21 3.488.323 6.98c1.804-.077 3.597-.261 5.395-.424.422-.055.645-.013.957-.314.165-.54-.013-1.14-.106-1.687l-4.13.443c-.073-1.535-.126-8.347-.649-9.316-.36-.138-.685-.083-1.059-.048m-5.762.23c-1.018.228-2.023.463-2.636 1.393-.437.665-.692 1.617-.518 2.405.19.855.861 1.561 1.601 1.99.879.51 2.737 1.048 3.002 2.123.1.409.047.897-.21 1.244-.349.473-.936.478-1.467.486-.99.014-1.834-.256-2.702-.708l-.019 2.183a9 9 0 0 0 2.823.459c1.183-.163 2.416-.494 3.202-1.468.574-.713.815-1.839.67-2.733-.153-.938-.785-1.669-1.558-2.178-.87-.573-3.045-1.225-3.361-2.249-.053-.171.056-.288.128-.44.749-.595 1.516-.809 2.468-.69.457.056.912.152 1.363.242.101-.584.206-1.158.24-1.75-1.046-.323-1.942-.375-3.026-.31m-6.902.178c-.003 3.725-.044 7.454-.004 11.179.593.018 1.342.129 1.91-.042l.092-.103c.178-3.65.169-7.314.217-10.968z"/><path d="M147.529 187.595c-.158.018-.319 0-.476-.008.464-.546 2.29-.95 3.04-1.202.278.084.385.105.6.31l-.055.208c-.811.546-2.146.57-3.11.692m-11.635.987c-.448.05-.84.108-1.283.006.299-.227.61-.247.971-.32.47-.022.883-.044 1.344.069-.282.205-.694.202-1.032.245m-7.375 1.57q-.306-.103-.61-.215l-.039-.18c.65-.478 2.066-.574 2.867-.727.206.026.347.104.534.191l.017.2c-.677.53-1.937.602-2.769.731m22.424-.101c-.682.087-1.345.183-1.986-.113.625-.073 1.416-.204 1.986.113m16.276 26.815c-.53-2.586-1.462-5.091-2-7.656.262-.317.43-.315.818-.43.342-.025.69-.057 1.034-.036q.162.01.323.037.16.027.318.07.157.042.31.1.152.058.298.13t.284.158.267.185.249.211q.118.112.226.234c.786.89 1.095 2.226 1.015 3.39-.082 1.2-.57 1.982-1.45 2.764-.533.354-1.108.589-1.692.843m-77.684-3.352c-.26-.1-.26-.049-.402-.312.474-1.413 1.493-2.903 2.198-4.242.28 1.594.139 3.453.172 5.083zm8.91.349q.296-1.772.62-3.539c.727.137 1.495.226 2.09.707.341.277.556.581.59 1.033.046.63-.41 1.254-.821 1.678-.815.209-1.645.142-2.48.121m10.704 5.897c-.418.073-.845.146-1.258.012-.537-.175-.957-.582-1.206-1.082-.575-1.15-.455-2.822-.052-4.005.382-1.123.933-1.801 2-2.303.395-.013.86-.058 1.242.056.598.18 1.087.665 1.35 1.222.518 1.097.389 2.724-.018 3.844-.4 1.103-.995 1.773-2.058 2.257m38.552-2.101c.242-1.524.48-3.05.595-4.589.122.101.147.111.251.261.439.632 1.488 3.222 1.378 3.984l-.362.14c-.62.053-1.243.135-1.862.204m-76.887 7.903h-.155zm1.313.437-.216-.072zm0 0 .532.18zm.533.18.217.07zm.217.07.22.072zm.22.072c1.64.355 3.264.893 4.88 1.349q3.239.907 6.51 1.684c3.353.806 7.073 1.214 10.285 2.337 2.825.987 5.601 2.205 8.4 3.274l16.501 6.173c2.713 1.014 5.471 2.24 8.236 3.083 4.234-1.343 8.38-3.031 12.537-4.599l14.258-5.297c2.678-1.02 5.357-2.2 8.07-3.106 2.194-.733 4.682-.983 6.948-1.492q5.738-1.312 11.407-2.893c-1.407.88-3.306 1.348-4.87 1.95l-8.93 3.489c-13.056 5.036-26.144 10.044-39.283 14.857-12.46-4.549-24.845-9.329-37.238-14.057l-11.699-4.425c-1.985-.751-4.098-1.418-6.012-2.327m108.032.513.144-.049z"/><path d="M127.898 240.973c-4.909-1.989-9.992-3.747-14.976-5.548-2.12-.766-4.301-1.439-6.379-2.314 1.945.098 3.908.398 5.853.568 4.95.432 10.03.845 14.993.94 2.127.042 4.29-.235 6.415-.357q7.948-.393 15.866-1.192-2.508.855-4.982 1.804-8.359 3.15-16.79 6.099m-5.14-4.585c2.703 1.439 5.182 1.915 8.15 1.026.316-.094.619-.219.925-.338.15-.06.303-.114.454-.172l.558-.23v-.115c-.509-.097-1.007-.06-1.52-.013-1.146.106-2.283.35-3.439.33-1.72-.031-3.41-.409-5.128-.488"/></svg>