<svg xmlns="http://www.w3.org/2000/svg" viewBox="0 0 256 256"><path d="M123.521 0h9.84l.123.021c2.26.369 4.62.379 6.903.617 4.698.49 9.427 1.166 14.044 2.174q1.153.246 2.301.513t2.291.555q1.144.288 2.281.597 1.138.31 2.27.639 1.131.33 2.257.68t2.245.722 2.23.763 2.216.804 2.202.844q1.097.433 2.185.885t2.169.925 2.151.964q1.072.492 2.134 1.004 1.062.511 2.114 1.043 1.053.53 2.095 1.08 1.043.551 2.075 1.12t2.054 1.158 2.032 1.195 2.01 1.233q1 .625 1.988 1.269.987.643 1.963 1.305t1.939 1.341 1.914 1.377q.95.697 1.888 1.411t1.863 1.446 1.835 1.48 1.808 1.513 1.78 1.546 1.75 1.58q.869.797 1.722 1.61.854.813 1.692 1.642.839.829 1.662 1.673c3.94 4.042 7.577 8.145 10.902 12.714q.92 1.259 1.81 2.538.889 1.28 1.748 2.58.858 1.3 1.686 2.62t1.624 2.66 1.56 2.699q.765 1.357 1.497 2.733t1.43 2.769q.7 1.393 1.365 2.802.666 1.409 1.298 2.833t1.23 2.864 1.163 2.892q.563 1.452 1.093 2.918t1.023 2.944q.495 1.477.954 2.967.46 1.489.882 2.989.425 1.5.813 3.008c.92 3.494 1.81 7.03 2.387 10.597.585 3.606 1.125 7.233 1.423 10.873.205 2.528.16 5.21.565 7.704v4.673l-.018.142c-.28 2.472-.282 5-.46 7.484q-.445 5.721-1.457 11.37-1.45 8.364-3.907 16.491-.35 1.132-.72 2.257-.369 1.125-.76 2.242-.39 1.118-.8 2.228t-.843 2.214-.883 2.197-.923 2.18-.964 2.163q-.491 1.078-1.003 2.145-.511 1.069-1.042 2.127t-1.082 2.106-1.12 2.087-1.159 2.065q-.588 1.027-1.196 2.043t-1.234 2.022-1.27 1.998-1.308 1.974-1.344 1.95q-.681.968-1.38 1.924t-1.414 1.9-1.45 1.872-1.483 1.845-1.518 1.818-1.551 1.79-1.584 1.76-1.615 1.731-1.648 1.701-1.678 1.67q-.847.828-1.71 1.64-.861.812-1.738 1.607-.877.796-1.768 1.575-.892.78-1.797 1.542-.906.763-1.826 1.509c-16.862 13.532-37.659 23.125-59.045 26.553q-6.18.984-12.42 1.477c-2.498.185-5.058.185-7.541.495h-2.815c-2.3-.37-4.73-.315-7.058-.48q-5.626-.423-11.208-1.24c-21.916-3.257-40.655-11.684-58.258-24.97-18.643-14.072-33.346-34.273-41.555-56.084q-2.058-5.63-3.656-11.405-1.599-5.777-2.728-11.663-1.018-5.033-1.476-10.147c-.21-2.42-.222-4.911-.568-7.31L0 132.572v-8.677c.345-1.744.311-3.709.447-5.494q.343-4.936 1.125-9.821.3-1.915.659-3.819.358-1.904.774-3.797.415-1.892.887-3.772t1-3.743 1.112-3.712 1.223-3.677q.64-1.829 1.333-3.638.694-1.81 1.441-3.597.748-1.788 1.55-3.552.8-1.764 1.654-3.504t1.76-3.452 1.861-3.398 1.964-3.34 2.062-3.281q1.056-1.625 2.16-3.217t2.256-3.15q.857-1.155 1.738-2.291.883-1.136 1.79-2.252t1.838-2.21 1.889-2.17 1.935-2.126 1.984-2.083 2.029-2.038 2.075-1.991 2.118-1.945 2.161-1.897q1.092-.936 2.204-1.848 1.112-.911 2.244-1.797 1.133-.887 2.284-1.748 1.152-.86 2.323-1.696 1.17-.835 2.36-1.643 1.189-.809 2.396-1.59 1.207-.782 2.431-1.536 1.224-.755 2.465-1.482t2.497-1.425 2.529-1.37 2.559-1.312 2.587-1.255 2.615-1.197 2.641-1.138 2.666-1.078 2.69-1.018 2.711-.958 2.733-.897q1.37-.433 2.751-.836t2.77-.773q1.389-.372 2.786-.712t2.802-.649A129 129 0 0 1 115.797.64c2.516-.246 5.106-.234 7.601-.62zm-1.116 4.928c-5.383.319-10.753.803-16.068 1.738C78.379 11.586 54.073 25.861 35.293 47q-.976 1.114-1.926 2.251t-1.87 2.297-1.816 2.341-1.758 2.385-1.7 2.426-1.641 2.466-1.581 2.506-1.52 2.543-1.459 2.578-1.396 2.613-1.332 2.646-1.269 2.677-1.203 2.707-1.138 2.736-1.071 2.762-1.005 2.787-.937 2.81q-.451 1.411-.869 2.832-.417 1.422-.8 2.853-.383 1.43-.732 2.87-.348 1.44-.662 2.888-.313 1.448-.592 2.903t-.522 2.916-.452 2.928-.38 2.938-.31 2.946-.239 2.953-.167 2.957-.096 2.962q-.03 1.48-.025 2.962.005 1.481.047 2.962.04 1.481.118 2.96.082 1.544.203 3.085t.28 3.078q.16 1.537.358 3.07.198 1.534.434 3.061.236 1.528.51 3.049t.586 3.035.662 3.02.737 3.001.811 2.983.886 2.962.96 2.938 1.033 2.913 1.105 2.887 1.176 2.859 1.248 2.828 1.318 2.796 1.388 2.762 1.456 2.727 1.524 2.69 1.59 2.65 1.656 2.61 1.72 2.568 1.785 2.524 1.847 2.479 1.908 2.432q.97 1.204 1.968 2.383 1 1.18 2.027 2.334 1.029 1.154 2.085 2.282t2.142 2.23q1.084 1.1 2.196 2.175 1.111 1.074 2.25 2.12 1.137 1.046 2.301 2.063 1.103.961 2.229 1.897 1.125.935 2.273 1.844 1.147.908 2.315 1.789 1.169.881 2.358 1.734t2.398 1.678 2.437 1.62 2.475 1.561 2.512 1.503 2.546 1.442 2.58 1.382 2.612 1.32 2.643 1.257 2.671 1.195 2.7 1.13 2.725 1.067 2.75 1.001 2.773.936 2.794.87 2.814.803q1.413.385 2.833.736t2.85.668q1.428.317 2.864.601 1.435.283 2.877.532t2.89.465 2.9.394q1.452.183 2.908.328 1.456.144 2.915.257 1.46.11 2.92.188 1.462.077 2.925.117 1.463.042 2.926.05 1.464.007 2.927-.02 1.463-.028 2.925-.09 1.552-.08 3.101-.198 1.55-.12 3.096-.274 1.546-.158 3.087-.353t3.079-.43q1.536-.233 3.066-.504t3.053-.58 3.038-.657 3.02-.731 3.002-.806 2.98-.88 2.958-.955 2.933-1.027 2.907-1.1 2.879-1.171 2.848-1.243 2.817-1.312 2.784-1.383 2.748-1.45 2.712-1.52 2.672-1.585 2.633-1.651 2.591-1.716 2.548-1.78q1.262-.906 2.502-1.843t2.457-1.904 2.408-1.964 2.359-2.024 2.307-2.081 2.256-2.138 2.201-2.194 2.147-2.247 2.09-2.3q.99-1.139 1.953-2.302.962-1.162 1.896-2.347t1.838-2.394 1.78-2.438 1.719-2.48 1.658-2.522 1.596-2.562q.783-1.29 1.534-2.6.75-1.308 1.469-2.635.719-1.328 1.405-2.672t1.339-2.705q.653-1.36 1.272-2.737.62-1.375 1.206-2.767.585-1.39 1.137-2.795.552-1.404 1.07-2.822.517-1.418 1-2.848.482-1.43.93-2.871.447-1.441.859-2.893t.789-2.913.717-2.932.646-2.948.574-2.964.501-2.976.43-2.987q.195-1.496.355-2.997.157-1.501.282-3.005.123-1.504.208-3.011t.134-3.015.063-3.017-.012-3.019-.085-3.016q-.063-1.509-.16-3.015-.098-1.5-.236-2.999-.135-1.498-.304-2.992-.173-1.495-.38-2.985t-.452-2.974q-.244-1.484-.524-2.962t-.595-2.948q-.316-1.471-.667-2.934-.352-1.462-.738-2.916-.387-1.454-.809-2.898t-.879-2.877-.948-2.855-1.018-2.83-1.086-2.806-1.154-2.778-1.22-2.75q-.628-1.367-1.288-2.718-.66-1.352-1.353-2.687t-1.418-2.653-1.482-2.618-1.545-2.581-1.608-2.543-1.668-2.503-1.73-2.462-1.788-2.419q-.909-1.198-1.846-2.375-.938-1.176-1.904-2.329t-1.96-2.282-2.014-2.234-2.068-2.185-2.12-2.133q-1.074-1.054-2.173-2.082t-2.221-2.028q-.917-.81-1.848-1.601-.932-.791-1.88-1.564t-1.91-1.526-1.94-1.488-1.969-1.449-1.997-1.41q-1.006-.694-2.026-1.37-1.02-.674-2.052-1.328-1.032-.655-2.078-1.288-1.046-.634-2.103-1.247t-2.128-1.204-2.151-1.162-2.174-1.119-2.196-1.075-2.216-1.032q-1.114-.504-2.237-.987-1.124-.482-2.256-.942-1.133-.46-2.274-.898-1.142-.437-2.292-.852t-2.308-.806-2.324-.76-2.338-.715-2.352-.667-2.365-.62-2.377-.574-2.387-.526q-1.197-.25-2.398-.478t-2.407-.43q-1.205-.204-2.415-.383t-2.421-.335-2.428-.286-2.434-.238c-5.382-.48-10.92-.72-16.317-.395z"/><path d="M131.353 248.314q-1.426.042-2.853.05-1.426.008-2.852-.018t-2.851-.085-2.848-.154-2.844-.22-2.838-.29-2.83-.356q-1.413-.196-2.82-.424-1.408-.229-2.81-.492-1.402-.262-2.798-.557-1.395-.296-2.783-.625-1.388-.328-2.767-.69t-2.75-.757-2.732-.821-2.711-.887q-1.35-.46-2.69-.95-1.338-.492-2.665-1.016-1.327-.523-2.641-1.077-1.314-.555-2.615-1.141-1.3-.586-2.586-1.203t-2.557-1.264-2.526-1.324-2.495-1.385-2.46-1.443q-1.221-.737-2.425-1.502t-2.389-1.559q-1.184-.793-2.35-1.615t-2.312-1.671q-1.146-.85-2.271-1.726t-2.23-1.78q-1.104-.902-2.186-1.832-1.082-.929-2.142-1.883-1.103-.993-2.181-2.014t-2.132-2.067-2.08-2.119q-1.026-1.072-2.026-2.17t-1.973-2.218q-.973-1.122-1.917-2.267t-1.86-2.314-1.804-2.359-1.744-2.402-1.684-2.445-1.624-2.486-1.561-2.525-1.5-2.563q-.733-1.29-1.434-2.599-.702-1.308-1.371-2.634t-1.305-2.667-1.24-2.697-1.171-2.728-1.104-2.756-1.036-2.783q-.5-1.398-.967-2.807t-.897-2.83q-.432-1.42-.828-2.852-.396-1.43-.756-2.87t-.686-2.89-.613-2.904-.543-2.92-.47-2.93-.397-2.943q-.18-1.474-.324-2.951t-.252-2.959-.179-2.963q-.073-1.481-.11-2.963t-.038-2.965.036-2.965.108-2.963q.073-1.48.182-2.96.109-1.478.254-2.953.145-1.476.327-2.947.181-1.472.4-2.939.217-1.466.47-2.927.255-1.46.544-2.915.29-1.454.616-2.9.325-1.447.686-2.884.361-1.438.757-2.867.397-1.429.828-2.847.431-1.419.897-2.826.467-1.408.967-2.803t1.036-2.779q.535-1.382 1.103-2.752.57-1.369 1.171-2.724.603-1.355 1.238-2.694.636-1.34 1.304-2.663t1.369-2.63q.7-1.307 1.433-2.596.733-1.288 1.497-2.56.764-1.27 1.56-2.521.795-1.251 1.62-2.483.826-1.231 1.682-2.442.856-1.21 1.741-2.4t1.8-2.356 1.858-2.311 1.913-2.265 1.97-2.217q.781-.86 1.58-1.704.797-.845 1.612-1.673.814-.83 1.645-1.642.83-.813 1.676-1.61t1.707-1.577 1.737-1.543 1.767-1.51 1.796-1.475q.905-.73 1.824-1.44.918-.712 1.851-1.405t1.878-1.369q.946-.675 1.904-1.332.96-.656 1.93-1.294.971-.639 1.955-1.258.983-.619 1.978-1.22.995-.6 2.002-1.18t2.024-1.142q1.018-.56 2.046-1.102 1.028-.541 2.067-1.063 1.038-.521 2.087-1.022 1.048-.501 2.106-.982 1.058-.48 2.125-.941t2.143-.9q1.076-.44 2.16-.858t2.175-.816q1.092-.397 2.192-.774 1.1-.376 2.206-.73 1.106-.356 2.22-.69 1.112-.333 2.232-.645t2.245-.602 2.255-.558 2.266-.515c7.321-1.519 14.505-2.142 21.953-2.466l.105-.006q1.443-.044 2.887-.053t2.886.017 2.886.087 2.883.156 2.878.226 2.871.295q1.434.166 2.864.365 1.43.2 2.854.434t2.843.503 2.83.57 2.815.64 2.799.707 2.78.775 2.762.842 2.74.908 2.718.974 2.694 1.04q1.34.535 2.667 1.103t2.64 1.169 2.61 1.231 2.581 1.295q1.282.663 2.548 1.356t2.515 1.418 2.48 1.478q1.23.754 2.443 1.537 1.213.784 2.406 1.596t2.366 1.654 2.326 1.71q1.152.87 2.283 1.767t2.24 1.82q1.11.925 2.196 1.875t2.15 1.927q1.08.995 2.136 2.015t2.087 2.067 2.035 2.117 1.983 2.166 1.93 2.215 1.876 2.26 1.82 2.305 1.762 2.349 1.706 2.391 1.646 2.432 1.587 2.472 1.526 2.509 1.464 2.546 1.403 2.58 1.338 2.615q.654 1.315 1.275 2.646t1.21 2.676 1.143 2.705 1.078 2.732 1.011 2.758.944 2.781q.454 1.396.875 2.803.42 1.408.806 2.825.387 1.416.738 2.842.352 1.426.668 2.86.317 1.435.599 2.876t.528 2.889.457 2.901.387 2.912.315 2.92.245 2.926.173 2.932q.071 1.475.107 2.951.035 1.477.034 2.954-.001 1.476-.038 2.953t-.11 2.951-.183 2.947-.255 2.943-.327 2.935q-.181 1.466-.399 2.926-.217 1.46-.47 2.916-.254 1.454-.542 2.903-.29 1.448-.613 2.889-.325 1.44-.684 2.873-.36 1.432-.754 2.855t-.824 2.836-.893 2.815-.961 2.793-1.03 2.768-1.098 2.741-1.164 2.714-1.23 2.685-1.297 2.654-1.36 2.62-1.425 2.588q-.729 1.284-1.488 2.55-.76 1.267-1.55 2.515-.79 1.247-1.611 2.475-.82 1.228-1.671 2.435-.85 1.207-1.73 2.393t-1.79 2.35-1.845 2.305-1.902 2.26q-.965 1.118-1.956 2.212-.85.925-1.72 1.832-.869.907-1.756 1.796-.888.889-1.794 1.76-.906.87-1.829 1.722-.924.852-1.864 1.684-.941.833-1.899 1.645t-1.932 1.606-1.965 1.566-1.996 1.525-2.028 1.484q-1.02.732-2.057 1.442t-2.087 1.399-2.115 1.356q-1.064.667-2.142 1.311-1.078.645-2.17 1.268-1.09.623-2.194 1.223t-2.22 1.177-2.243 1.131-2.266 1.085-2.288 1.038-2.309.991-2.328.943-2.348.895-2.366.846-2.382.798q-1.195.386-2.398.748t-2.413.699-2.427.648q-1.218.313-2.44.6-1.224.286-2.452.548-1.229.261-2.463.498-1.233.236-2.472.447c-5.374.903-10.716 1.286-16.153 1.529M155.5 50.03l.065.071c.298.268.719.562.725 1.002.002.158-.025.26-.055.409l-.193.127c-.819-.202-1.53-1.385-2.19-1.937-1.495-1.248-3.252-2.534-5.022-3.332-3.014-1.36-6.344.393-9.561-.257-1.986-.401-4.14-2.126-5.797-2.267-.266-.023-.51.096-.725.24-.13.088-.212.16-.33.258a11 11 0 0 1-.871-.856c-4.09.289-5.625 2.358-10.571 1.788.01 1.254.28 8.347-.155 8.881l-.21.035c-.423-.323-.467-.974-.534-1.468-.169-1.254-.329-7.239-.823-7.852l-.345-.048c-.47.763.753 8.351.172 10.01-.31.033-.373.004-.663-.121-.845-1.123-.46-9.405-1.35-10.42l-.22.018c-.552 1.065 1.11 9.743.027 10.942-.29-.203-.326-.694-.38-1.041-.523-3.315-.618-6.708-1.162-10.027-3.09.8-5.055 2.953-7.953 3.739-2.742.744-6.008-.288-8.623.743-1.091.43-1.88 1.238-2.654 2.082-2.694 2.94-4.725 4.069-8.77 4.427 1.755 2.83 7.63 13.257 8.043 15.97l-.08.258-.129.01c-.773-1.402-8.75-15.398-9.408-15.782l-.303.06c-.027.313.178.572.325.846 2.412 4.484 4.982 8.856 7.266 13.417.87 1.735 1.687 3.477 2.31 5.319-2.475-3.471-4.706-7.182-6.933-10.818-1.043-1.701-3.595-6.49-4.903-7.65l-.226-.022c-.283.286-.303.281-.342.677.615 1.443 2.02 3.243 2.89 4.635q3.108 4.95 5.943 10.062c.846 1.51 1.842 3.054 2.476 4.663-1.419-1.325-2.47-3.374-3.547-4.99l-4.409-6.573c-1.413-2.141-2.837-4.426-4.453-6.421-1.612 1.5-2.685 3.518-4.505 4.792-1.838 1.287-4.739 1.683-6.279 3.175-2.425 2.35-2.873 6.038-4.942 8.651-1.904 2.407-5.243 3.693-6.781 6.353-1.13 1.954-1.24 4.38-1.747 6.535 5.363 3.308 10.832 6.424 16.273 9.599l13.245 7.83q4.276 2.511 8.506 5.1c1.383.843 3.114 1.716 4.303 2.808-2.795-.806-6.877-3.464-9.531-4.941l-20.48-11.551c-3.895-2.23-7.748-4.642-11.737-6.693-.316-.163-.759-.47-1.102-.389l-.123.337c.651.858 4.883 2.99 6.046 3.663l22.286 12.966 7.263 4.137c1.255.714 2.745 1.418 3.869 2.324q.094.076.187.154c-1.792-.46-4.024-2.059-5.766-2.885-8.357-3.965-16.474-8.49-24.628-12.852q-3.504-1.915-7.036-3.778c-1.04-.548-2.1-1.192-3.19-1.63l-.213.123c.528 1.162 21.716 12.452 24.71 14.505-1.755-.572-3.514-1.645-5.175-2.465-2.738-1.35-5.551-2.632-8.233-4.086-.59-.32-1.042-.844-1.651-1.144-3.39-1.67-7.747-3.156-10.759-5.357-.557.693-1.16 1.359-1.687 2.073-1.612 2.188-1.777 4.988-1.38 7.599.274.275.772.23 1.137.308.329.072.462.129.64.41l-.081.28-.31.059c-.53-.178-.901-.417-1.344-.755-.123 1.153.077 2.325-.078 3.469-.165 1.23-.636 2.116-.657 3.446l-.918.487c-1.564 2.743-2.74 4.682-2.135 7.946l33.37 5.514q5.607.875 11.192 1.882c.73.135 1.803.168 2.463.458-2 .2-8.29-.874-10.657-1.182L60.83 123.02l-7.832-1.097c-1.274-.186-2.593-.477-3.87-.574-.304-.023-.411-.023-.645.19l.019.323c.074.091.119.216.221.274.58.33 2.961.492 3.718.61q15.979 2.45 32.039 4.284c2.006.246 7.518.541 9.074 1.226-1.143-.185-2.359-.15-3.517-.25-2.31-.199-4.616-.472-6.927-.674l-20.863-1.836q-3.955-.34-7.902-.765c-1.603-.176-3.46-.583-5.053-.459-.266.02-.22-.018-.404.206l.086.232c.587.495 3.025.513 3.884.615 7.681.912 15.374 1.508 23.085 2.1 3.308.254 7.795.296 10.965.881l.157.031c-1.33.055-2.701-.061-4.034-.113q-4.862-.228-9.721-.52-12.241-.654-24.488-1.174l-.01.058c-.332 2.167-1.291 4.29-1.409 6.472-.072 1.35.258 3.506 1.189 4.561.428-.15.792-.29 1.249-.288.283.14.442.208.575.523.124.296.087.403-.05.657-.418.2-.898.137-1.35.123.324.645.751 1.271 1.003 1.947.538 1.444.38 3.26.473 4.784l42.828.014c2.46-10.54 5.007-20.644 11.2-29.705 4.624-6.763 11.407-12.595 19.636-14.142-1.79-7.065-6.501-7.626-11.655-11.41-.273.246-.541.477-.888.614-.888.35-2.161-.646-2.995-.994.482.74.956 1.471.816 2.384-.302.29-.568.227-.943.367.299.352.725.8.88 1.234.097.27.064.309-.06.544-.354.181-.685.098-1.063.05l-.013-.128c-.182.145-.144.06-.179.214.266.35.68.762.866 1.148.17.354.109.964-.066 1.311-.097.193-.077.135-.305.218l-.29-.14c-.308 1.325.553 3.05-.271 4.355-.276.151-.302.14-.618.104-.616-.547-.648-1.63-.774-2.4-.169-.112-.361-.06-.56-.056-1.158-1.012-1.205-3.627-2.132-4.557-.631-.633-.727-1.376-1.02-2.204-.62.634-1.162 1.395-2.089 1.475-.413.036-2 1.951-2.386 2.372-.423.462-.844.68-1.396.959l.005.002c-.179.465-.321.934-.718 1.26-.233.19-.405.23-.692.195-.816-1.273.533-4.54.83-5.942.536-.527.706-.709.778-1.469.084-.881.277-1.623.546-2.466-.272.231-.546.465-.828.686-.77.604-2.81 1.55-3.798 1.299-.352-.09-.393-.164-.589-.445-.12-.927.48-1.633.952-2.379-.284-.249-.746-.618-.87-.983-.116-.336-.099-.57.068-.883.562-1.056 3.235-1.638 4.329-1.912-.568.552-1.605 1.365-1.883 2.107.681.26 1.474-1.084 2.16-1.258.324-.082.514-.034.802.113l.006.177c-.272.21-.465.256-.793.31q-.057.01-.115.018l-.025.136c.402.165.753-.008 1.182.023.194.014.191.08.309.217.032.291.028.564.222.8.564.006.882-.533 1.44-.545.027.212.034.29.151.475l.285-.1.18-.459c.298.16.556.31.823.521l-.043.24c.194.347 2.206-.099 3.144.781l-.022.142c-.359.124-.677.23-.99.454l.023.254.244.172c.462.022.884-.16 1.313-.307l.214.311c.632-.12 1.623.503 2.255.719l.12-.065c-.467-.578-1.089-.905-1.719-1.278.65.096 1.349.258 2 .144.01-.655-4.47-1.196-5.105-2.045.053-.312.115-.329.349-.55-.366.025-.64.147-1.016.07-1.103-.229-1.958-.634-2.94-1.178-.22-.37-.233-.828-.286-1.248l-.05.157.03-.378-.103.04c-.067.107-.142.214-.174.34-.184.72.574 1.496.879 2.077-.2.21-.32.34-.599.432-.474-.93-1.803-1.034-2.134-1.755.324-.897 1.703-1.917 2.408-2.615-.671.253-1.334.39-2.041.499-.92.14-2.373.484-3.175-.116-.514-.385-1.175-.037-1.608-.405-.086-.243-.183-.569-.055-.82.239-.47.909-1.054 1.26-1.479.81-.979 1.311-1.933 1.842-3.088.656-.221 1.245-.62 1.839-.97.748.23 1.506.427 2.262.631-.401-.45-.812-.86-1.332-1.174-.566-.343-1.892-.542-2.219-1.058a1.18 1.18 0 0 1-.142-.815c.097-.556.489-1.078.952-1.388.974-.65 1.847.02 2.836.191.256.045.327.085.546-.07-.014-.072-.014-.147-.042-.213-.357-.841-1.948-.785-2.703-1.127-.261-.118-.262-.153-.343-.41.073-.14.071-.154.195-.293.335-.377.717-.528 1.203-.582.871-1.125 1.401-1.535 2.775-1.897.461-.966 1.01-1.248 1.268-1.732.273-.512.107-1.298.397-1.744.266-.407 1.118-.59 1.565-.727.537.219 1.105.47 1.694.473 2.568.013 2.5-3.669 3.99-4.979 1.858-1.632 2.654 1.072 4.304 1.131.176-.29.313-.494.577-.712.022-.019.22-.177.244-.202.49-.479.159-.812.306-1.359.08-.299.18-.377.415-.541.286.05.513.098.805.055.084-.273.151-.45.334-.672.283.038.156-.024.363.217.008.169.01.348.036.517.17 1.082.626.434 1.246.606.142.04.466.358.6.461.267-.712.349-1.547.468-2.297.63.102 1.262.249 1.888.374.183.63.476 1.242.728 1.849l.166-.045.24-.073c1.139-.334 1.912-1.312 3.102-1.573 2.307-.506 2.545 1.98 3.942 1.973 1.154-.005 1.79-1.026 2.547-1.716.935-.852 2.167-.846 3.355-.83 1.025.896 1.613 1.861 2.143 3.094.266.098.615.227.828.414.2.175.19.186.192.46-.188.203-.279.303-.553.365l-.354-.255c-.174.248-.031.688-.308 1.139-.128.208-.093.265-.089.504l.196.14c.434-.026.92-.572 1.26-.839.228-.016.352.022.553.119l.217.108.253-.15q.034-.165.064-.329c.09-.508.15-.888.513-1.282.418-.455 1.012-.623 1.612-.647 1.79-.07 3.44.965 4.715 2.136.51.468 1.28 1.26 1.23 2.015-.03.454-.186.645-.51.933-.436.388-.537.791-.872 1.222-.218.28-.557.278-.883.314-.216.025-.196.073-.33.233-.12.568-.062.86.24 1.377.326-.04.372-.54.65-.774.31.42.15.953.528 1.296.252-.169.251-.111.349-.426-.092-.143-.246-.338-.291-.5-.105-.37.379-.983.568-1.31 1.026-.065 1.927-.228 2.828.387 1.372.937 1.756 3.067 1.993 4.578 1.052-1.478 6.33-11.219 6.844-12.9l.061-.073-.061.073c-2.15 2.482-3.976 7.483-6.068 9.606.266-2.264 6.259-12.418 7.642-15.671-1.933-.148-3.875-.264-5.794-.532zm-13.765 13.355-.32-.409-.195-.006c-.136.31-.214.59-.292.92-.298 1.263-2.444 3.295-2.186 4.1.335.016.65-.288.895-.51q.057-.052.112-.107c.31.284.383.687.758.869.262-.401.017-.775.364-1.113.52.065 1.366 1.002 1.796 1.378-.528-.83-.915-1.523-1.148-2.492-.043.005-.086.006-.129.013-.26.043-.487.162-.724.271l-.09-.134c.346-.863 1.005-1.24 1.725-1.772q-.034.263-.074.526c.565.2.469-.194.841.549l.149-.11c-.051-.267-.147-.48-.261-.726l.104-.201c.464.004 1.02.074 1.451-.11l.085-.16c-.41-.205-.888.125-1.148-.234.204-.095.789-.3.886-.474l-.136-.153.13.204-.262-.227c-.416.03-2.223.598-2.39.486zc.189-.133.319-.23.452-.422.129-.186.082-.204.05-.41l-.103-.033c-.256.243-.296.535-.399.865m-36.346 5.761c.242.276.505.639.886.696l.195-.16c-.284-.408-.758-.937-.735-1.45l.152-.11c.58.284 1.11.876 1.495 1.389.148.197.281.368.468.531l.173.148.07.038-.07-.038c-.223-.894-.615-1.479-1.178-2.184.514.085 1.115.246 1.606.016-.2-.602-1.662-.447-2.116-.92.061-.269.014-.202.154-.39.198-.265.378-.455.493-.775l-.124-.106c-.213.141-.296.216-.556.242.006-.23.095-.75-.051-.91-.311.285-.269.966-.466 1.38l-.204.04q-.188-.328-.371-.657l-.198.063c-.233.285-.244.283-.245.648.232.388.443.532.832.755l.08.085c-.582.346-1.481.483-1.92.958l.035.315c.214-.111.419-.233.625-.358.135.094.224.124.292.284.254.589-.291 1.603-.505 2.17.406-.558.79-1.134 1.183-1.7m28.986 1.118.124.11.133.143-.133-.143zm4.883 8.154q.541.632 1.046 1.293c.24-.138.203-.175.297-.422-.08-.482-.373-.844-.64-1.24l.102-.133c.2.002.367.021.565.05.302.044.549-.014.844-.067l.142-.024.21-.207.166.102-.002.308h.108l.141-.322c.61-.18 3.704 1.434 4.204 1.394.046-.154.118-.25.041-.407-.167-.34-.65-.57-.942-.812l.1-.301c-.724-.703-2.236-.187-2.815-1.007.032-.192.079-.327.168-.5l-.297.095c-.096.21-.091.366-.35.424-.052.012-.264-.01-.323-.014l-.032-.44c-.734.026-1.927.898-2.565 1.3-.19-.284-.358-.634-.687-.767-.145.352-.057.703-.01 1.069-.546.089-1.227.121-1.704.41l-.02.189c.228.062.377.079.609.085.141.267-.014.496.195.633.167-.161.424-.504.647-.531q-.393 1.106-.73 2.23l.088.106c.578-.676 1.346-1.586 1.444-2.494m-39.195 2.922-.051.128zl.186-.06zm32.8 2.817c-.226-.296-.5-.755-.784-.984-.301-.241-.403-.173-.757-.11-.202-.217-.14-.104-.231-.389a4 4 0 0 0-.221-.57c-.826-.322-1.319.652-2.117.721-.806-.641-.382-1.956-.98-2.777-.109-.148-.166-.225-.249-.398.339-.056.698-.099 1.02-.221.257-.098.316-.09.428-.351-.319-.236-.662-.245-1.045-.311-.247.157-.408.292-.71.302l-.117-.138q.167-.122.329-.251c.288-.236.449-.401.483-.777l-.159-.171c-.35.01-.658.284-.942.47l-.27-.537h-.187c-.038.062-.199.338-.24.386-.285.331-1.264-.304-1.725-.189-.13.033-.091.408-.174.582-.322.06-.68.074-.916.32.3.28.784.281 1.163.432l.215.087.106-.098-.018-.459.122-.106c.31.085.427.082.658.312-.242.13-.166.096-.38.188l-.13.055c.261.213.768-.097.998.117.16.146-.065.29.25.5l.313-.26c.769.583.454 3.274.983 4.239.136.248.198.246.453.31l.427-.285c-.104.93.338 2.254.528 3.198.392 1.955.766 3.868.647 5.875-.063 1.05-1.344 3.35-1.151 4.079l.21-.059c.458-.872.935-1.76 1.22-2.707a6.6 6.6 0 0 0 .272-2.117c-.042-1.81-.901-6.718-1.726-8.269.215-.216.784-.348 1.086-.456l.705-1.032.148-.026c.146.204.151.38.139.626-.026.54-.277 1.042-.287 1.576-.028 1.59.819 3.424 1.402 4.874.14.348.206.681.549.88 1.039-.362 4.041-3.69 4.952-4.705.288-.32.81-1.139 1.124-1.308.323-.174.36.032.58-.344-.045-.134-.045-.156-.133-.292-.29-.444-1.181-1.19-1.707-1.299-.036.293.319.76.473 1.03-.568.72-1.129 1.436-1.762 2.1-.289-.185-.584-.413-.938-.43-.253-.013-.515.02-.772.008-.541-.026-.822-.465-1.154-.841M139.75 84l-.159.33c-1.121.824-5.705 6.12-5.956 7.21.878-.7 1.827-2.266 2.598-3.177 1.006-1.19 2.169-2.286 3.117-3.519.123-.16.216-.31.241-.513zl.124-.25zm27.185 18.69-.084.08-.351.23-.323.181-.071.095-.105.072.105-.072.071-.095.323-.181c.121-.058.24-.154.35-.23zc1.596-.6 28.161-18.46 29.133-19.61-.276.042-.491.085-.736.224-3.284 1.855-6.438 4.153-9.562 6.28q-6.406 4.267-12.697 8.702c-1.832 1.294-4.657 2.87-6.138 4.404m-10.732 9.1.078-.067c1.007-.85 2.218-1.552 3.324-2.27 2.32-1.505 4.669-2.957 7.012-4.425l22.02-13.67q2.778-1.742 5.516-3.546c1.323-.866 2.732-1.69 3.888-2.777l-.051-.221c-.317-.124-.467-.116-.79.008-1.375.528-3.764 2.549-5.247 3.398-3.169 1.813-6.263 3.772-9.379 5.675q-9.098 5.535-18.063 11.281-3.344 2.173-6.636 4.42c-1.46.982-3.181 2.27-4.8 2.941.992-1.019 2.336-1.876 3.478-2.736l7.963-5.897 29.847-22.188c-.9-.931-1.612-1.949-2.134-3.135-.31-.705-.518-1.632-1.028-2.212-1.317-1.498-2.83-3.615-3.441-5.52 1.002.984 1.959 2.248 2.757 3.403-.528-5.033-6.174-5.226-8.887-8.627-1.55-1.942-2.293-4.806-4.45-6.205-1.024-.664-2.16-1.019-3.32-1.36-3.437-1.012-5.162-1.686-7.763-4.235-1.534 2.121-9.804 15.49-10.84 16.063-.115-.295-.05-.465.059-.752.543-1.438 1.547-2.85 2.31-4.187q2.629-4.539 5.177-9.122c.65-1.185 1.515-2.471 1.871-3.771l-.181-.232c-.554-.026-1.216 1.606-1.492 2.1-1.636 2.928-7.889 14.238-9.897 15.801.22.508.492 1.385 1.007 1.609.139-.12.272-.227.426-.328.2-.13.246-.06.468-.011.452.328.334.858.583 1.287.184.315.278.315.607.404.206-.517.442-1.268.924-1.594.262-.176.525-.257.841-.192 1.62.332 2.641 2.94 3.537 4.17q-.045.247-.083.495c-.033.213-.054.4-.033.618.058.63.24 1.748.753 2.153 1.53.203 1.15 1.03 2.52 1.986-1.001.317-3.05.822-4.015.341-.58-.29-.984-.926-1.195-1.518a13 13 0 0 0-.612-1.386c.585.1 1.043.164 1.636.064l-.01-.09c-.692-.247-1.411-.385-2.129-.54.482-.234 1.141-.45 1.453-.897l-.162-.107c-.659.043-1.14.344-1.702.657a7 7 0 0 0-.618-1.063l-.108.038c.051.304.059.508-.001.81-.623.145-1.003-.738-1.468-1.014-.365-.217-1.348-.279-1.795-.365l-.18.195c.446.372.882.415 1.438.469l.206.019c.173.178.563.683.763.786.25.128.399 0 .663.211-.21.188-.474.276-.689.461-.218.187-.24.162-.257.462l.133.132c.38-.236.728-.495 1.176-.575l.152.171c-.041.372-.092.737-.154 1.106l.124.047c.384-.16.637-.66.867-1 .33.436.93 1.046 1.074 1.567.101.366.103.663-.09 1a2.4 2.4 0 0 0-.256.627c.16 1.114 1.201 1.952 1.942 2.741-.24 1.141-.557 3.382-.965 4.364-.184.446-.57.895-.853 1.286l-.074-.145c-.401-.776-.564-2.026-1.071-2.64l-.083.193.004-.046a24 24 0 0 0-.077 1.585c-.784-2.337-1.096-3.825-3.331-5.218.954 2.368 1.97 5.872 1.162 8.401-.193.602-.536 1.628-1.106 1.92l-.254-.124c-.212-.461-.08-.94-.09-1.448l-.174-.141.061.209c-.174.197-.304.335-.538.46l-.199-.09c-.621-1.121-.061-2.9-.463-4.124a6 6 0 0 0-.293.35l-.095.127c-.673-1.063.217-3.034-1.293-5.245.11 2.9-.582 4.086-.935 6.697-.29 2.138-.356 4.71-.811 6.745-.11.491-.332.96-.593 1.389-.155.254-.27.487-.569.567-.276-.755-.124-1.861-.208-2.687-.07-.684-.314-1.339-.419-2.019a35 35 0 0 1-.377-4.753c-.011-.895.307-1.745.243-2.641q-.086.172-.177.343c-.172.313-.285.526-.637.624l-.265-.186c-.314-.683-.163-2.111-.207-2.898-.13.806-.16 1.864-.436 2.621-.208.572-.48.071-.882.646-1.85 2.645-4.556 4.089-7.552 5.163-1.438.516-2.874.971-4.088 1.933-2.205 1.748-2.535 3.928-2.846 6.565 3.252.51 6.256 1.604 9.094 3.274 9.103 5.355 15.337 17.37 18.767 27.08 1.51 4.275 2.654 8.694 3.784 13.084 2.091-.347 4.322.732 6.35 1.22 1.217-.356 5.97-2.099 6.699-2.156.96-.076 5.393 2.515 7.714 2.089 1.941-.357 3.785-1.558 5.662-2.196l.194-.066c1.688.483 3.25 1.442 4.964 1.813.888.192 13.049.294 14.084.068 1.153-1.158-.106-4.588-.37-5.985a13 13 0 0 1-.203-2.511c.016-1.865.471-3.635.91-5.434l-.642-.76q.83-.864 1.602-1.78c-.319-.17-.676-.343-.91-.626-.21-.256-.196-.465-.145-.768.415-.488 1.102-.695 1.678-.949l.023-.24c-.274-.514-.817-.616-1.228-.981-.202-.18-.195-.166-.204-.452.328-.512.933-.725 1.477-.923-.625-2.491-1.996-4.7-2.902-7.093-2.205.487-4.483.738-6.718 1.045l-9.737 1.344q-15.704 2.196-31.441 4.15c2.046-.883 4.442-1.286 6.59-1.88l11.113-3.184 20.539-5.909c2.964-.824 6.005-1.859 9.022-2.431.297-1.763.971-5.09.088-6.725-.15-.279-.264-.343-.56-.415-.384.159-.709.297-1.126.324-.29-.098-.49-.25-.636-.53-.429-.823.906-.98 1.135-1.614-.504-.844-1.417-.46-2.19-.761-.245-.094-.202-.12-.306-.34.115-.483.435-.826.736-1.208.012-.726-1.47-.74-1.753-1.348a1.6 1.6 0 0 1 .223-.512l.108-.16c-.36-.925-.77-1.874-.98-2.849-.574-2.685-.339-5.073-1.363-7.749-3.116 1.917-6.144 3.984-9.275 5.888q-10.92 6.535-21.978 12.834-3.819 2.2-7.663 4.356c-1.406.789-2.867 1.733-4.372 2.302m7.07 10.979-.147.075zc3.239-.256 6.537-.993 9.75-1.513l17.534-2.83q5.694-.902 11.371-1.909c1.368-.253 2.994-.417 4.279-.944.157-.281.095-.28.029-.578-.07-.035-.134-.092-.211-.105-.564-.093-3.66.696-4.4.827-4.408.78-8.838 1.435-13.246 2.225-3.273.587-6.543 1.376-9.847 1.735.127-.189 1.151-.39 1.425-.47l16.027-3.544c1.998-.438 3.983-.923 5.978-1.375.952-.216 1.945-.355 2.88-.635.33-.098.868-.251 1.11-.516.237-.261.216-.347.204-.677-.068-.031-.131-.077-.204-.094-.081-.019-10.762 2.627-12.4 3.047-7.074 1.81-14.206 3.45-21.299 5.186-2.975.727-6.062 1.248-8.98 2.17m19.056 36.01-.078.066zc3.024-.517 4.45.741 6.943.555 1.896-.141 3.075-1.148 4.267-2.507q-.323-.08-.647-.15l-.147-.03a5 5 0 0 0-.266-.046c-.785-.072-1.753 1.155-2.807 1.365-2.818.561-4.38-1.125-7.343.813m-76.513 61.32c-1.924-2.05-4.469-5.704-6.918-6.875 1.694 2.544 3.724 4.916 5.466 7.456.526.767 1.2 1.626 1.552 2.484-2.18-2.316-7.734-7.796-10.447-8.994l-.344.163c.75 1.827 18.932 18.47 21.89 21.228l1.067-.651c-1.374-2.341-2.959-4.55-4.436-6.825-1.302-2.006-2.515-4.146-3.97-6.043-1.401-1.829-3.007-3.499-4.492-5.26-.81-.96-1.751-2.487-2.864-3.08l-.145.054c1.021 2.118 2.85 3.98 3.597 6.205zm-19.122.217c-3.153-2.23-7.112-5.836-10.545-7.393-.28.142-.6.329-.912.382-.834.141-1.928-.031-2.789-.032-1.372-.001-2.744.096-4.116.115 4.164 2.677 8.442 5.188 12.695 7.72q9.341 5.617 18.848 10.948l7.275 4.061c1.584.898 3.19 1.921 4.851 2.66l1.472-1.394q-1.986-1.588-3.994-3.15c-6.943-5.664-13.995-11.196-20.88-16.931-.796-.663-5.188-4.792-5.683-4.901l-.13.156c.252.614 5.89 5.582 6.892 6.58 1.125 1.121 2.187 2.276 3.168 3.525-2.527-2.03-5.096-4-7.647-6-1.44-1.131-2.939-2.529-4.538-3.418a1.07 1.07 0 0 0-.712-.15c-.295.032-.197-.017-.369.167.403.668 1.154 1.193 1.734 1.711 1.534 1.37 4.335 3.602 5.38 5.344m64.143 9.378-.062.055zc.133-.075.152-.082.298-.182 1.05-.725 2.033-1.605 3.046-2.389l6.74-5.204c3.313-2.561 6.99-5.01 10.002-7.913.263-.254.401-.363.453-.73-.292-.091-.719-.228-1.024-.176-1.233.212-5.511 3.58-6.647 4.518-2.214 1.826-4.224 3.97-6.337 5.918-1.835 1.691-5.132 4.325-6.53 6.158m-68.478 2.76c2.098.374 4.172 1.272 6.2 1.918l13.618 4.293c2.731.867 5.515 1.976 8.34 2.493-2.845-1.432-6.005-2.429-8.972-3.597q-9.658-3.841-19.377-7.524c-7.192-2.765-14.368-5.504-21.626-8.091-1.936-.69-3.98-1.779-6.008-2.057 1.86 1.931 11.863 8.712 14.347 9.893 2.782 1.322 5.935 2.196 8.847 3.2q12.667 4.387 25.643 7.756c1.662.432 3.848 1.237 5.506 1.348l.04-.081c-.825-.642-3.263-1.245-4.371-1.632l-15.503-5.377c-1.544-.541-5.522-1.753-6.684-2.542m70.331 9.059-.064.08zc1.524-.042 5.309-1.256 6.934-1.679 10.048-2.618 20.428-5.116 29.179-10.978-1.631.24-3.485 1.237-5.02 1.866q-2.81 1.158-5.672 2.178c-4.547 1.6-9.092 3.278-13.68 4.751-3.772 1.212-8.122 2.336-11.74 3.862M130.944 39.425c-2.767.25-5.33 1.859-8.002 1.841-3.152-.021-5.848-1.812-9.133-1.102-3.024.654-5.17 3.295-8.174 3.828-2.934.52-5.993-.443-8.824.867-2.79 1.29-4.124 4.36-6.929 5.555-4.115 1.754-7.222.606-10.498 4.525-1.385 1.656-2.356 3.615-4.08 4.975-2.251 1.776-5.352 2.108-7.428 4.2-2.46 2.478-2.82 5.744-4.71 8.391-1.831 2.561-5.052 3.97-6.995 6.606-2.25 3.054-1.827 7.014-3.365 10.338-1.337 2.887-4.146 4.547-4.964 7.814-.807 3.224 0 6.615-.668 9.865-.834 4.068-3.946 6.136-3.531 10.81.236 2.655 1.262 5.216 1.114 7.915-.169 3.067-1.732 5.807-1.398 8.969.336 3.185 2.65 5.79 2.827 8.991.174 3.151-1.2 6.324-.33 9.451.945 3.398 4.104 5.591 5.094 8.899.396 1.323.338 2.774.382 4.14.102 3.17.81 4.978 2.974 7.308a29 29 0 0 0 2.798 2.669c.552.452 1.123.883 1.764 1.202l.17-.051c2.476-.765 4.608-2.35 7.268-2.534 3.022-.208 5.725 1.479 8.724 1.596 2.352.091 4.662-.569 7.013-.572 2.551-.003 5.124.801 7.67.53 2.678-.286 5.21-1.594 7.913-1.604 3.988-.016 7.843 1.805 12.036 1.845 2.423.023 4.763-.477 7.093-1.098 1.11-.296 2.228-.677 3.376-.783 2.596-.239 5.144 1.276 7.805 1.282 2.944.008 5.868-1.35 8.503-1.231 1.811.081 3.43.92 5.168 1.322 2.601.601 5.486.703 8.153.696 2.349-.007 4.783-.215 7.078-.698 2.465-.519 4.743-1.363 7.301-1.325 2.437.036 4.432 1.44 6.804 1.627 2.366.187 4.575-.145 6.874-.66 1.39-.311 2.783-.694 4.218-.7 1.535-.008 2.946.574 4.413.947 1.558.395 3.347.497 4.943.325 1.38-.15 1.873-1.142 3.128-1.613.75-.282.916-.693 1.29-1.366l.02-.036-1.89-.057c-1.578 1.335-3.605 1.872-5.666 1.674-1.13-.108-1.855-.438-2.584-1.29-4.683-1.508-9.432 1.454-14.145 1.345-1.463-.035-2.447-.915-3.733-1.437-1.715-.697-3.742-.74-5.563-.62-1.752.114-3.281.834-4.955 1.29-2.473.674-5.044.895-7.6.919-2.394.022-4.878-.033-7.21-.603-2.147-.524-3.942-1.6-6.225-1.594-2.897.01-5.567 1.381-8.49 1.26-1.88-.077-3.623-.803-5.459-1.117-.763-.131-1.56-.19-2.331-.118-1.393.13-2.713.597-4.047.987-2.065.605-4.086 1.026-6.248 1.02-4.58-.011-8.44-2.343-12.616-2.144-2.7.129-5.032 1.584-7.653 1.968-2.442.357-5.005-.438-7.475-.425-2.084.01-4.134.556-6.212.556-3.306 0-6.178-2.043-9.516-1.92-2.624.096-4.587 1.613-6.95 2.473-2.244-1.213-4.774-4.094-5.52-6.565-.806-2.673.036-5.492-1.015-8.166-1.231-3.133-4.318-5.263-4.971-8.64-.61-3.155 1.081-6.315.402-9.558-.598-2.854-2.507-5.404-2.846-8.307-.187-1.6.209-3.04.658-4.558 1.107-3.738.989-5.952-.016-9.723-.334-1.41-.581-2.686-.3-4.138.553-2.857 2.697-5.016 3.408-7.805 1.023-4.014-.715-8.567 1.552-12.284 1.26-2.065 3.206-3.612 4.171-5.873 1.303-3.05 1.103-6.745 2.947-9.554 1.863-2.837 5.414-4.052 7.215-6.898 1.61-2.546 2.167-5.838 4.394-7.984 2.23-2.15 5.715-2.42 7.982-4.595 3.166-3.036 3.417-6.307 8.41-7.44 1.805-.41 3.694-.532 5.404-1.29 2.666-1.182 3.903-4.257 6.6-5.387 2.903-1.216 6.289-.127 9.275-.965 2.745-.769 4.633-3.26 7.552-3.693 3.01-.447 5.725 1.3 8.686 1.197 3.124-.11 5.785-2.219 9-1.922 2.829.262 5.05 2.317 7.813 2.71 4.166.594 7.023-1.603 11.082.987 1.492.952 2.845 2.086 4.531 2.695 2.66.96 5.602.185 8.221 1.345 2.59 1.146 3.907 3.92 6.267 5.375 2.632 1.623 5.965 1.524 8.452 3.472 2.345 1.837 2.995 4.841 5.04 6.866 2.168 2.147 5.484 2.717 7.324 5.29 1.878 2.625 1.93 6.142 3.732 8.827 2.462 3.668 6.257 4.165 7.324 9.206.485 2.291.257 4.748 1.156 6.948 1.309 3.2 4.197 5.37 5.049 8.85.9 3.678-.776 7.7.283 11.995.8 3.249 3.111 5.681 3.122 9.183.013 4.038-2.437 7.465-2.557 11.48-.04 1.34.195 2.576.468 3.883.897 4.284.662 6.059-1.773 9.757-.842 1.28-1.835 2.47-2.464 3.877-1.734 3.88-.605 8.352-2.168 12.23-.913 2.266-2.788 3.704-4.219 5.6-1.095 1.45-1.955 3.073-2.855 4.649.71-.012 1.431-.004 2.14-.051.637-1.322 1.3-2.535 2.231-3.675 1.42-1.742 3.244-3.195 4.165-5.292 1.802-4.101.702-7.902 1.94-11.546.493-1.451 1.428-2.643 2.294-3.886 1.338-1.917 2.488-4.003 2.952-6.318.638-3.19-.944-6.209-.837-9.388.187-5.506 3.971-9.038 1.922-14.942-.78-2.245-2.201-4.177-2.658-6.548-.756-3.924.634-7.937-.259-11.788-.77-3.319-3.5-5.377-4.794-8.385-1.26-2.926-.543-6.28-1.78-9.223-1.536-3.66-5.167-4.918-7.166-7.992-1.893-2.913-1.662-6.51-4.081-9.198-2.037-2.266-5.088-3.025-7.215-5.095-2.839-2.762-2.163-5.695-6.81-7.905-2.22-1.055-4.851-1.212-6.922-2.534-2.417-1.542-3.59-4.413-6.378-5.541-2.948-1.193-6.249-.37-8.788-1.456-2.537-1.084-4.264-3.28-7.087-3.874-2.958-.623-5.806.735-8.525.182-3.492-.71-5.402-3.117-9.477-2.745m31.376 12.013h.116zm-36.797 6.135-.693 1.343c-.36-.049-.802-.169-1.141-.042.133.213.283.404.44.6l-.049.229c-.495.257-1.022.433-1.528.67-.235-.273-.61-.853-.948-.9l-.347.29-.235-.043q-.242-.399-.496-.79l-.2.029c-.186.293-.228.297-.177.634.257.202.491.306.793.437.803.346 1.135 1.248 1.556 1.355.92-.362 1.84-.767 2.816-.952.464.261.746.9 1.238 1.045.164-.385-.256-.64.001-.974.726.18 1.65.665 2.067 1.303q.047.075.091.152c-.062.224-.004.22-.191.302-.332.145-.739.116-1.096.125l-.108.09c.155.238.321.296.575.41l-.044.172c-.209.24-.444.435-.51.751l.15.058c.345-.198.677-.405 1.007-.625.155.19.135.297.17.535.329-.027.524-.308.766-.525.409.108 1.565.583 1.898.531l.052-.45.156-.116c.158-.12.295-.242.436-.381l-.083-.123c-.447.043-1.169.234-1.576.052l-.017-.13c.3-.204 1.066-.594 1.18-.908-.44.143-.856.283-1.317.34l-.113-.109c.224-.589.635-1.14.705-1.77-.236-.05-.132-.07-.365.092-.457.317-.819.919-1.132 1.374-.854-1.192-1.678-1.429-3.042-1.76l1.414-1.16c-.742.21-1.497.4-2.223.664.144-.55.382-1.278.12-1.825m-12.429 3.404c-.37.461-.502.652-.629 1.207-.019.081-.077.178-.119.253-.37-.265-.623-.946-1.047-1.015-.043.746.98 1.361.89 1.847-.366.156-.714.211-.868.6-.178.449-.301.92-.433 1.385l1.355-1.664c.014.481-.014.986.154 1.442.176-.377.356-.723.585-1.071l.254-.023c.231.196.385.362.55.617.302.522.542.882 1.043 1.229l.108-.062c-.258-.692-.67-1.376-1.124-1.958.563-.026 1.526.286 1.985.135-.082-.271-.188-.35-.41-.52-.467-.057-.987-.069-1.404-.301.366-.094.733-.16 1.104-.226-.462-.284-1.491-.194-2.019-.154-.171-.248-.18-.365-.12-.654.062-.304.166-.61.257-.906zm7.459 1.821c-.028.203-.05.398-.061.603-.01.161-.077.249-.162.38-.423-.089-.421-.478-.795-.654-.186.185-.183.125-.213.414.33.504 1.58.887 1.372 1.548-.107.342-1.242 1.089-1.589 1.226-.569-.092-1.006-.663-1.385-1.061l-.013.126a4 4 0 0 1-.109.5c-.257.102-.132.098-.35.049-.31-.07-.546-.16-.849-.02.037.263-.012.14.156.364-.332.067-.527.056-.778.305l.101.143c.489.072.875-.053 1.343-.184l-.403.675.123.081c.376-.11.749-.216 1.132-.3l.203.123c.084.364.12.835.404 1.097.341-.298.118-.632.43-.921.325.15.576.323.856.54.143-.208.16-.147.115-.417a4 4 0 0 1-.054-.56c.34-.314.749-.334 1.203-.392l.086-.18-.174-.386.13-.231c.426-.084.674.064 1.031.296.799.518 1.488 1.148 2.366 1.538.758-.26 1.889-.675 2.68-.394.544.195.367 1.016.915.882.067-.017.126-.06.19-.086.3-.125.538-.114.856-.108l.063-.15c-.266-.227-.441-.31-.778-.4l-.21-.047c.62-.388 3.057-.543 3.742-.352.237.066.461.2.673.322.22-.011.42-.022.637-.066.08.275.109.69.36.83l.166-.12c.009-.228-.088-.963.062-1.11.39-.387 1.031-.331 1.34-.816l-.073-.126-.488.177c-.115-.254.06-.551.153-.808.132-.366.292-.721.424-1.087-.596.668-1.188 1.373-1.852 1.972-.354-.314-.71-.701-1.16-.86l-.156.053c.043.307.175.502.33.766-1.241.365-2.488.529-3.774.642l-.118-.098.126-.22a2.3 2.3 0 0 0 .235-.539c-.712-.248-3.016 1.286-4.13 1.104-.502-.083-1.03-.433-1.469-.682-.403-.228-.837-.419-1.115-.801.15-.322.363-.325.678-.458a19 19 0 0 0-1.574-.338c-.202-.573-.376-1.384-.85-1.784m25.517 4.798-.724 1.274c-.763-.232-1.521-.36-2.308-.483.34.21 1.25.628 1.386.965-.216.139-.496.25-.602.486.255.033.486.042.743.032.215.192.173.22.222.49.327-.074.654-.449.93-.37.122.319.203.6.257.938.062.38.176.537.421.828l.235.056c.05-.498-.37-1.062-.254-1.492l.316.163c-.19-.32-.436-.578-.413-.956.36-.16 1.163-.351 1.33-.657-.592-.076-1.181.044-1.768.126-.057-.206-.066-.106.011-.28.175-.393.28-.685.218-1.12m-11.112.29c-.441.146-.884.31-1.339.408q-.038.059-.08.116c-.404.559-1.341.97-1.606 1.462l.103.005-.029-.145-.035.042c.409.082.616-.062.974-.22q.124-.054.249-.106c-.591 1.217-.897 2.101-2.231 2.602-1.452-.29-2.815-.931-4.262-1.186-.373-.423-.628-.754-1.235-.767-1.147-.024-2.037 1.275-3.155 1.104-.068-.335.003-.509.09-.828l-.041-.062c-.434.046-1.104.507-1.54.68-.087-.3-.193-.935-.412-1.127l-.04.158c-.08.316-.114.604-.364.833-.942.044-2.754.046-3.51.646l.115.146c1.062.08 2.005-.354 3.046.043.037.351-.306.338-.1.648l.145-.123a5 5 0 0 1 .48-.356c.255.36-.111.855.073 1.223.364-.306.547-.657.777-1.068.439.037.974.123 1.41.05 1.496-.25.976-1.313 3.359-.563-.076.344-.24.706-.106 1.036q.301-.356.59-.723l.242.018c.155.246.294.491.427.749l.225.069.168-.105c.041-.27-.001-.422-.087-.68.262-.172.475-.128.775-.072 1.013.19 2.007.582 3.004.845.467-.173.928-.355 1.412-.476.308-.642.546-1.317.87-1.948.294.166.395.454.566.74l.133-.04c.147-.487.202-1.44.535-1.775l.13.012c.324.027.603.03.926-.016.44-.062.842-.035 1.212.246.493.375 1.264 2.468 1.653 2.405.058-.009.298-.13.356-.16.939.123 1.926 1.103 2.862 1.005-.254-.496-1.002-.975-1.518-1.164-.343-.126-.626-.107-.98-.082-.255-.158-.379-.288-.448-.595a1.12 1.12 0 0 1 .087-.798l.76-.249.033-.172c-.242-.18-.362-.254-.688-.212-.308.04-.486.209-.669.439l-.012.17a3 3 0 0 1-.116.575c-.17-.122-.118-.039-.156-.226-.095-.48-.195-.846-.621-1.137-.629-.43-1.496-.351-2.222-.348l-.116-.144.302-.618-.102-.156zm-23.143 2.41-.623.301-.062.19c.123.195.24.383.344.59-.6.498-1.565.074-2.105.373-.378.208-.877.966-1.277 1.275.051.224.112.206.294.329.789-.039 1.031-.866 1.853-.947-.197.23-.443.428-.502.727.272.152.283.099.575.052.5-.407.976-.837 1.565-1.108l.118.059.535.597.183-.014c.034-.368-.011-.662.225-.955.751-.189 1.387.395 2.027.216-.203-.273-.322-.235-.635-.343.69-.155 1.313-.13 2.013-.1-.398-.15-.793-.296-1.2-.417-.278-.372-.042-.625-.519-.713-.627.195-1.273.652-1.915.706l-.075-.1.3-.287-.099-.164-.182-.037a5 5 0 0 1-.631-.182c-.154-.054-.088-.045-.207-.048m32.797.724.028.28.275-.086-.135-.221zm2.879.395c-.516.83-1.476 1.24-2.083 2.024.8-.389 1.635-.905 2.506-1.087.321.333.175.674.803.713l.34-.24c.844.352 1.824 1.678 2.626 2.275-.778.031-1.965.143-2.572.684-.031.028-.056.061-.084.092.547.222 1.516-.005 2.128-.07l-.117.053c-1.076.475-2.432.592-3.36 1.346l.031.174c.602.139 1.476-.462 1.867.069q.006.007.016.012c.286.204.558.312.628.69.101.548-.49 1.1-.283 1.551.248-.036.178.022.316-.157.299-.388.165-.928.525-1.278.48.142.8.636 1.162.976-.249-.9-1.23-2.346-.974-3.13.64-.632 2.311-1.072 3.202-1.075l.144-.142c-.567-.417-1.848-.157-2.663-.71l-.174-.114c-.623-.422-2.29-2.338-2.898-2.354-.467-.013-.708-.021-1.087-.302M132.826 73.3c-.178.437.011.884-.235 1.194l-.702-.052c-.284-.023-.466-.06-.715.109-.064.123-.156.257-.18.394.58.13 1.167.183 1.735.36-.636.705-2.141 2.852-2.365 3.653l.108.058c.256-.148.462-.295.757-.344.203.291.181.357.525.419.278-.164.279-.156.384-.46-.117-.414-.428-.715-.627-1.095.398-.626.817-1.073 1.358-1.578l.23-.063.127.137c.277.292.594.606.991.71.081-.39-.16-.9-.28-1.287 1.028-.151 3.44.026 4.157-.459-.128-.251-.153-.228-.408-.315-.757-.259-1.65-.383-2.441-.522l.044-.095c.319-.047.983-.063 1.205-.266-.366-.18-.604-.191-.994-.056-.56.192-1.33.71-1.916.687-.226-.234-.248-.489-.307-.795-.162-.166-.233-.237-.45-.334m-13.54.894-.035.11c-.095.298-.145.469-.407.665-.395-.034-.501-.28-.911-.274l-.148.163c.172.29.35.504.578.75-.222.12-.43.2-.667.28-.256.087-.39.143-.563.363l-.015.296c.363.25 1.077.026 1.542.062.355-.184.762-.507 1.15-.522l.254.249-.064.179q-.279.072-.562.13l-.067.382.377.095c.368-.275.7-.57 1.036-.883.948.313 1.81.792 2.721 1.189-1.114-1.379-1.901-1.806-3.58-2.32-.167-.366-.27-.707-.64-.914m-19.461.48c.2.369.526.659.944.762.406.1.901-.048 1.24.22.048.21.021.28.193.42.09-.17.147-.3.207-.48.64-.02 1.565.188 2.14.47l-.504.197c-.034.24-.016.412.012.652-.146.282-.226.418-.555.493-.265.06-.557.07-.828.091.114.275.333.369.57.54l-.076.14-.129.033c-.878.234-1.386 1.278-1.961 1.246-.202-.011-.124-.013-.337.044a24 24 0 0 0-1.194 1.578c.28-.085.532-.24.808-.125l.08.266.337-.087c.093-.346-.113-.304-.103-.555l.211-.16c.58-.439 1.067-.823 1.57-1.352.236.682.429 1.445.816 2.056l.151-.055c.155-.612-.022-1.28-.155-1.885.053-.14.057-.286.209-.35.49-.204 1.203.133 1.63.36.57.301 1.396.769 1.71 1.334q-.452-.06-.902-.135l-.039.122c.203.218.347.29.613.4.286.118.598.328.706.64.025.071.034.147.051.22-.377.114-.764.197-1.083.438.156.185.283.162.513.187.597.064 1.228.034 1.785-.193.24-.098.481-.192.721-.291-.09.356-.389 1.16-.217 1.494.066.126.153.231.239.343l.18-.04c.18-.405.34-.942.719-1.193.257-.004.455.026.703.092.276-.188.232-.425.559-.587.778-.388 2.798.047 3.269-.392-.097-.245-.118-.283-.375-.394-1.146-.495-2.56-.04-3.72-.517q-.088-.035-.177-.066l-.112-.043c-.295.14-.54.285-.806.475-1.129-.067-4.435-2.713-5.34-3.546-.06-.22-.113-.207-.008-.372.384-.602 1.411-.634 1.747-1.212l-.093-.164c-1.088-.257-1.823-.35-2.657-1.128a38 38 0 0 0-3.262.008m52.622 1.12-.074.097.069.043.045-.123zm-40.685.479c-.969.325-2.168.876-3.186.849-.198-.15-.174-.16-.255-.376-.75.219-1.485.47-2.245.653 1.039.066 2.031.062 2.989.516.555-.302 1.147-.753 1.802-.549.413.129.331.545.816.473l.398-.43.093-.195c.453.088.83.15 1.293.154 1.119.009 2.345.568 3.44.813-1.05-.603-1.926-1.539-2.991-2.05-.458.169-1.029.44-1.52.28-.149-.048-.22-.112-.337-.2zm49.656 1.29h.143zm-41.735 1.544-.075.09c-.17.201-.278.317-.502.456-.352.218-.815.856-.93 1.242-.014.048-.018.098-.027.147l.148.187c.241 0 .332.061.514-.113.236-.225.398-.525.568-.801.227.383.443.781.69 1.15l.35.237.178-.06a2.8 2.8 0 0 0-.243-.822l.109-.115.527.056.1-.128-.138-.498c.278-.38.629-.208.959-.497-.532-.477-1.548-.486-2.228-.53m21.598 3.858c.067.386.236.78.016 1.136-.316.51-.879 1.01-1.293 1.444-1.556 1.627-3.566 3.296-4.44 5.39.534-.067 1.07-.12 1.595-.25 2.28-.629 4.384-1.517 5.98-3.325-.619-.547-.797-.913-.858-1.739-.047-.62.098-1.825-.326-2.315-.157-.183-.453-.264-.674-.34m-42.63 1.299.103.091zm25.8-.066c-.3 1.093-.699 1.693-1.515 2.478-.574-.233-1.136-.46-1.737-.618.47 3.91 1.451 6.186 4.364 8.926l.962.91c1.728-2.263 1.62-5.221 1.268-7.915-.128-.984-.294-2.51-1.074-3.203q-.043-.036-.091-.067c-.412.161-.677.337-1.12.152-.367-.154-.734-.429-1.056-.663m-10.008.165c-.329.156-.536.165-.67.512.267.365.606.734.681 1.19-.293.365-.686.416-1.111.6.744 1.369 3.78 3.402 5.281 4.08.31.152.473.295.825.26.041-.508-.945-5.456-1.226-5.789l-.222.315c-.094.004-.19.033-.281.012-.302-.067-.807-.469-1.105-.623-.4-.206-.843-.267-1.266-.415a2.4 2.4 0 0 0-.906-.142m4.958 1.836c.123 1.31.513 4.903 1.553 5.851.06.055.137.09.205.134-.381-1.205-.75-2.407-1.05-3.635-.156-.643-.227-1.447-.462-2.055a.7.7 0 0 0-.246-.295m23.923 2.299c-1.386 1.165-2.88 2.092-4.598 2.682-.732.251-3.857.763-4.166 1.196-.048.069-.062.156-.085.237-.005.016.002.033.004.05 2.27-.528 7.546-1.71 8.797-3.867.085-.147.059-.12.047-.298m-29.809.863c2.205 1.796 4.971 2.648 7.248 4.297 1.14.826 3.281 3.393 4.14 3.757-1.455-3.175-5.546-4.979-8.438-6.553-.819-.446-1.766-1.132-2.639-1.428-.085-.029-.23-.056-.31-.073m12.72 11.33c.057 3.706.248 7.403.265 11.112.013 2.898-.678 20.882.016 22.033.096-.395.162-.777.206-1.181.642-4.727 1.475-10.85 1.309-15.549-.129-3.639-.83-7.238-1.135-10.865-.109-1.296-.014-4.52-.661-5.55m-2.214 2.2c-3.56.949-7.45 2.653-10.265 5.083 2.054-.603 4.149-.736 6.275-.868l4.419-.298-.049-1.855c-1 .073-4.71.543-5.378.179 1.669-.437 3.62-.515 5.346-.632-.02-.508.02-1.088-.182-1.561zm6.023-.033c-.058.587-.106 1.176-.18 1.76 2.315.023 4.608.193 6.911.404-.173-.4-.8-.588-1.206-.75-1.77-.711-3.638-1.15-5.525-1.414m-.163 2.222c-.048.612-.11 1.226-.107 1.84q5.644.218 11.27.727a11 11 0 0 0-2.781-1.98l-.153-.078c-.573-.261-7.18-.489-8.229-.508m-5.964 2.6q-5.46.34-10.904.863c-.923.684-1.893 1.418-2.627 2.307l-.012.194.279-.055c2.593-.427 5.152-.764 7.774-.957 1.988-.146 4.023-.167 5.998-.414.022-.61.107-1.263-.076-1.85-.279-.139-.134-.113-.432-.087m5.843.079.017 2.039c4.851.181 9.809.256 14.615.955a32 32 0 0 0-2.254-2.412c-4.122.018-8.254-.462-12.378-.582m-6.83 2.815q-3.913.202-7.81.602c-1.773.186-3.824.617-5.584.503a40 40 0 0 0-2.163 2.475c1.108-.24 2.737-.724 3.831-.331l.047.167c-.702.671-2.431.68-3.375.666q-.408-.01-.812-.059c-.556.825-1.135 1.643-1.662 2.486 1.578-.22 10.919-1.364 11.912-.924l.029.207c-.26.284-.488.438-.867.532-1.28.321-3.024.214-4.372.312-1.88.137-3.762.403-5.644.496q-.754.043-1.51.004a33 33 0 0 0-1.286 2.09c1.276-.069 4.337-.576 5.4-.123l.059.214c-.724.758-3.18.66-4.252.69q-.822.021-1.642-.04l-1.174 2.21c1.047-.246 4.9-.72 5.725-.25.178.101.133.063.19.242-.791.717-5.007.67-6.286.73-.685 1.555-1.353 3.114-1.927 4.715 1.396-.02 4.324-.363 5.496.164l.073.092c-.211.316-.534.39-.898.462-1.092.214-2.324.143-3.43.07-.329-.022-.815-.152-1.121-.105-.189.03-.358.1-.478.251-.333.42-.49 1.31-.66 1.83 1.017-.009 5.487-.325 5.996.14.129.117.172.218.219.38l-.073.218c-1.055.465-5.055.135-6.443.14l-.543 1.934c.993-.021 3.572-.312 4.311.402.026.025.044.056.066.085-.875.659-3.467.298-4.558.238q-.287.928-.558 1.861c1.213.027 6.853-.036 7.543.388.03.344-.01.298-.204.556-1 .415-6.13-.096-7.557-.22-.13.568-.447 1.462-.378 2.021.115-.067.218-.164.345-.203.057-.017 10.768.54 10.8.552.191.07.184.076.326.175l.051.25c-.155.227-.131.309-.417.366-1.126.226-2.63-.056-3.798-.114q-3.788-.186-7.578-.333-.576 2.036-1.05 4.1c3.608.389 7.293.768 10.914.974.978.055 1.934-.107 2.917.008.573.068 1.114.192 1.623.468l-.114.278c-1.646.471-12.993-.669-15.496-.894l-.347 1.623c6.823.707 13.64 1.375 20.499 1.53 2.239.05 4.553.176 6.783-.026.62-.61 1.151-1.26 1.686-1.945-1.986-.024-11.282.4-12.53-.385l-.071-.182c.687-.565 2.768-.272 3.641-.242 2.99.042 6.012.097 9-.034l.031-2.128c-2.284.096-14.57.718-15.639-.216.154-.254.339-.305.618-.373 1.76-.43 3.818.158 5.623.124 3.137-.06 6.27-.339 9.416-.356l.016-2.058c-1.135.024-6.052.34-6.846 0l-.113-.246c.19-.284.33-.348.67-.42 1.435-.304 4.705-.117 6.344-.191l.037-2.023c-1.174 0-8.399.367-8.845.233a3 3 0 0 1-.247-.182c-.065-.059-.158-.168-.218-.237-.582.268-1.142.56-1.777.675q-.194-.145-.384-.295c-1.446.121-5.802.63-6.873-.232l.174-.344c1.55-.457 5.904-.136 7.74-.167 3.5-.06 6.98-.304 10.486-.301l.027-2.026c-2.764-.096-5.606.365-8.339.16-.172-.22-.162-.22-.152-.5.492-.497 5.972-.513 6.983-.518q.784-.005 1.569.007l.004-2.199c-2.183-.066-4.357.151-6.537.21-.869.023-1.852-.17-2.7-.06-.26.034-.347.225-.654.225-.253 0-.421-.092-.637-.206l-.146-.23c.122-.245.129-.256.383-.334 1.378-.427 8.554-.455 10.378-.456l.007-2.219c-1.878-.03-3.734.114-5.603.265-.792.064-1.608.204-2.4.195-.292-.003-.513-.041-.764-.198-.104-.285-.142-.22-.005-.522.906-.421 7.4-.513 8.836-.514l.028-2.202c-1.283.014-5.242.416-6.127.04l-.109.067c-.465.276-.88.437-1.426.305-.353-.085-.53-.268-.703-.571.103-.251.118-.28.385-.389.459-.187.886-.036 1.335.088.244.067.389.163.627.042l-.019-.225.03.217.115-.045c1.714-.635 4.103-.365 5.931-.356l.007-2.115c-1.175.056-8.257.555-8.794.24l-.043-.13c.245-.38.469-.527.916-.623.755-.162 1.73-.07 2.516-.1 1.828-.07 3.651-.183 5.482-.204-.013-.692-.01-1.39-.047-2.081-1.893.003-3.909.342-5.771.175-.205-.225-.173-.244-.175-.554.134-.22.145-.26.413-.319 1.333-.29 4.108-.184 5.541-.17l.056-2.094c-1.183.022-5.634.502-6.293.021l-.075-.26c.592-.58 5.319-.6 6.39-.643l.012-2.151q-2.896.147-5.786.388c-1.125.09-2.296.278-3.423.226-.046-.066-.088-.134-.137-.197-.034-.045-.075-.084-.113-.126l-.103.27c-.744.285-2.323.548-3.107.388-.198-.207-.194-.197-.204-.483.256-.329.599-.392.995-.442 3.91-.496 7.994-.716 11.934-.903l.019-2.01zm6.92.089c.006.658.001 1.317.03 1.974q5.66.138 11.308.541c1.164.084 4.829.625 5.704.477-.614-.81-1.225-1.61-1.907-2.365l.105.1c-5.071-.044-10.16-.61-15.24-.727m-101.439.92q-1.647 4.468-3.168 8.981l-8.07-.27c2.201 1.793 4.554 3.47 6.655 5.376-.974 2.871-2.031 5.712-2.987 8.59 1.864-1.38 5.562-4.505 7.453-5.268 2.61 1.645 5.026 3.704 7.57 5.465-1.06-2.835-2.31-5.701-2.883-8.682 2.197-1.631 4.365-3.528 6.714-4.924-1.58 0-7.244.194-8.437-.344-.655-1.008-1.804-5.573-2.226-7.023-.171-.59-.302-1.389-.62-1.901m198.98 0c-.552 2.04-1.171 6.168-1.902 7.842-.13.3-.322.567-.604.738-1.048.636-6.687-.063-8.274-.104 2.344 2.012 4.906 3.686 7.377 5.53-1.028 2.822-2.53 5.589-3.725 8.36 2.356-1.67 4.64-3.63 7.209-4.957 1.296.199 5.764 4.163 7.23 5.157-1.023-2.778-2.181-5.48-3.14-8.286 2.245-1.973 4.867-3.557 7.016-5.633-2.822.148-5.706.415-8.529.25-.671-1.516-2.082-8.334-2.657-8.897m-97.494 1.985.057 2.11c3.607-.062 7.245.218 10.85.395 2.51.123 5.131.11 7.614.472.198.03.123.018.384.016l.072-.076c-.313-.494-1.192-2.156-1.696-2.3-.266-.077-.593.032-.852.11a1.8 1.8 0 0 1-.504.096c-1.424.031-3.005-.259-4.447-.343q-5.732-.387-11.478-.48m.031 2.932.08 2.07 15.137.568c1.84.07 3.706.248 5.542.269l.053-.06c-.473-.802-.92-1.69-1.534-2.39l-.15-.023-.076.236a1.2 1.2 0 0 1-.528.142c-1.458.04-3.003-.158-4.465-.227-4.664-.217-9.397-.625-14.059-.585m.094 2.963.13 2.153c7.355.136 14.722.634 22.078.662-.345-.751-.674-1.518-1.068-2.244-1.881.36-4.285.019-6.207-.048-4.973-.175-9.959-.48-14.933-.523m.221 2.997c.025.706.029 1.42.09 2.124q6.75.21 13.502.308c2.687.026 5.44-.1 8.117.038.477.024.903.096 1.344.285l.067.172c-1.198.93-20.026.123-23.006.086.003.667-.088 1.432.223 2.036.297.245.478.2.856.225q11.6.433 23.195-.113c-.43-1.289-1.285-3.53-2.06-4.628-7.454.088-14.881-.372-22.328-.533m24.484 5.658c-1.505 1.156-20.994.547-24.155.423l.105 2.155c5.795.137 11.559.243 17.353-.026 1.333-.062 6.6-.629 7.562-.274l.103.173c-.36.447-.712.489-1.245.546-7.84.841-15.85.649-23.719.456l.153 2.088q2.272.085 4.546.083c1.466-.008 3.129-.175 4.57.124.487.1.919.317 1.346.564-3.51.238-6.967.105-10.478.061.04.672.075 1.345.147 2.014q2.75.047 5.501.025c.934-.009 1.952-.123 2.876-.042.27.023.478.068.702.23l.076.217-.174.364c-1.164.37-7.327.083-8.985.052.044.673.1 1.348.13 2.022 1.228.016 8.111-.17 8.69.096.175.263.216.27.18.578-.781.437-7.406.179-8.842.129l.09 1.943c2.038.073 4.076.153 6.116.104 1.19-.028 2.491-.232 3.664-.163.302.018.583.094.823.283l.117.236c-.887.72-9.12.413-10.684.358l.13 1.924c1.808.146 3.659.2 5.473.115 1.311-.06 2.732-.268 4.036-.15.39.035.639.106.893.405l-.048.204c-1.425.565-9.922.191-10.087.304-.064.044-.092.124-.138.186l-.017.232c.128.58.237 1.162.445 1.72 3.221.005 6.404-.138 9.617-.327 1.183-.07 2.417-.29 3.59-.295.57-.002 1.293.02 1.787.32l.059.155c-.748.69-10.851.985-12.448.916a21 21 0 0 1-1.911-.194c1.307.689 2.887 1.875 4.329 2.172 1.292.267 2.963-.04 4.274-.165q9.9-.982 19.63-3.047l-.45-1.789c-1.742.626-10.826 2.318-12.439 2.055-.13-.287-.094-.255-.03-.54.24-.228.442-.312.761-.369 1.034-.182 2.137-.187 3.19-.346 2.782-.422 5.56-.95 8.347-1.326-.156-.616-.287-1.256-.508-1.852-2.786.75-5.656.983-8.5 1.385-1.112.157-2.317.49-3.42.564-.581.04-1.166-.04-1.746-.003-.407.025-1.16.242-1.513.061-.37-.189-.504-.274-.907-.115-.373.146-.661.405-1.08.333l-.189-.208c.03-.242-.025-.179.153-.314.277-.211.67-.304 1.008-.353 2.885-.42 5.835-.555 8.734-.924 2.24-.285 4.695-.971 6.942-.941l.268.172.14-.22-.053.144-.029-.177c-.242-1.454-.679-2.992-1.166-4.385-2.195.593-11.965 1.858-13.914 1.52l-.184-.147c.222-.344.706-.497 1.09-.585 1.435-.329 3.157-.304 4.643-.466 2.707-.296 5.452-.752 8.163-.936-.448-1.368-2.885-9.066-3.493-9.532m-26.298 2.23c-1.228 3.806-.894 12.556.284 16.326.175-.128.136-.048.166-.233.178-1.088.198-2.237.188-3.337-.028-2.831-.38-5.658-.425-8.491-.013-.858.152-3.506-.115-4.133-.021-.05-.065-.088-.097-.132m-99.187 16.49c-.685 3.099-.737 6.383-1.611 9.436-3.021.598-6.138.51-9.162 1.182q2.514 1.252 5.057 2.445c1.162.55 2.414 1.053 3.485 1.764-.119 2.926-.863 5.96-1.457 8.826 1.075-1.206 4.955-5.958 6.214-6.128.41-.055.901.21 1.255.39 2.181 1.086 4.375 2.164 6.497 3.362-1.516-2.506-2.828-5.35-3.966-8.054 1.93-2.32 4.433-4.478 6.68-6.504-3.009.647-6.069 1.405-9.13 1.723-.923-1.911-2.853-7.136-3.862-8.442m65.314.385-.299 1.607c3.068.412 6.164.676 9.243.99 4.544.464 9.153.94 13.72 1.066l2.155-1.114c.587-.344 1.175-.684 1.74-1.063-8.868.223-17.742-.608-26.559-1.487m131.818-.03c-1.208 2.644-2.05 5.614-3.731 8.009-2.744-.217-5.614-.842-8.303-1.439 1.244 1.264 5.684 5.267 5.733 6.758.04 1.189-3.8 6.393-4.557 8.066 2.348-1.079 4.624-2.345 6.912-3.545.5-.266.997-.544 1.505-.794q3.173 3.144 6.246 6.385c-.269-2.886-1.16-5.858-1.062-8.75 2.408-1.728 5.162-3.008 7.62-4.68l-5.849-.62c-1.143-.117-2.344-.168-3.468-.405-.554-2.67-.164-6.596-1.046-8.985m-65.403.838c-3.952 1.342-8.369 1.81-12.489 2.422-3.258.484-6.523.785-9.8 1.11-4.057.404-8.086.795-12.17.775-10.83-.053-21.647-1.663-32.416-2.64-.079.475-.239.945-.073 1.401.223.116.382.154.631.179 10.776 1.437 21.625 2.86 32.518 2.819 11.47-.043 23.135-1.868 34.32-4.268-.134-.578-.22-1.287-.521-1.798m-36.97 2.126-.117.274c.836.748 4.488.847 5.608.788q.147-.008.293-.023l-.025-.166c-1.617-.721-4-1.108-5.758-.873m-63.892.517c.825.345 1.608.705 2.368 1.179 2.279 1.42 4.364 3.344 7.243 2.206.813-.321 1.519-.814 2.204-1.347a16 16 0 0 0 1.109-1.131c-3.183 1.388-5.973 1.101-9.164-.087-1.265-.47-2.379-.91-3.76-.82m16.455-.036c-.346.171-.849.348-1.072.664.197.023.349.002.542-.025 3.784-.523 5.52 5.29 12.313 1.089l1.938-1.45c-3.869 1.158-6.216 1.454-10.14.322-1.152-.333-2.37-.696-3.58-.6m84.75.008c-10.35 2.339-21.126 4.02-31.752 4.23-11.988.239-24.003-1.222-35.867-2.808-.09.564-.17 1.133-.29 1.691 2.684-.106 5.681.604 8.343.973q5.827.805 11.685 1.341c15.718 1.437 30.76-.085 46.15-3.28.608-.127 1.741-.577 2.3-.342l.082.296c-.479.7-6.655 1.779-7.741 1.983-15.722 2.955-29.304 3.425-45.104 1.774q-5.462-.614-10.904-1.38c-1.628-.217-3.341-.565-4.973-.645.183.543.348 1.091.61 1.602q9.218 1.43 18.49 2.436c1.763.189 3.534.281 5.295.466 14.058.808 25.79-.587 39.542-3.094l.12.142c-.334.564-.869.798-1.486.952-2.244.558-4.66.856-6.946 1.211-8.348 1.299-16.856 2.147-25.312 1.903-4.366-.126-8.694-.689-13.045-.884-1.465-.066-3.026-1.02-4.62-1.253-1.416-.206-2.718.23-4.097.102-2.567-.236-5.109-.88-7.682-1.18 1.247 1.898 2.923 3.309 5.204 3.77 3.362.681 4.445-1.249 6.729-.736 3.464.778 5.466 3.792 8.582 5.188 4.063 1.82 4.376-1.62 7.34-1.472 2.221.11 4.41 2.779 6.31 2.598 1.339-.128 3.75-2.093 5.59-2.61l.163.038c3.392.839 4.534 2.979 8.364.709 1.046-.62 1.971-1.297 3.108-1.754l.168.036c2.553.564 5.037 2.309 7.607.734 1.769-1.084 2.805-2.6 5.156-2.074 3.414.763 3.595 1.486 7.015-.535-.55-1.052-.986-2.095-1.427-3.193-1.11.286-6.173 1.901-7.04 1.437-.037-.02-.069-.05-.103-.074l-.033-.212c1.019-.669 5.568-1.681 6.947-1.934-.198-.515-.382-1.039-.599-1.546-1.26.33-3.342 1.183-4.587.921l-.007-.177c1.083-.97 2.98-1.161 4.38-1.336-.294-.895-.886-3.453-1.377-4.022zm28.133.882c-2.59.455-4.662 2.247-7.32 2.407-3.487.21-6.536-2.965-9.352-2.121-1.453.435-2.507 1.599-3.869 2.16-1.072.44-2.522.215-3.495.735.625.462 1.49.41 2.226.304 2.769-.399 4.11-3.088 7.11-2.237 1.444.41 2.683 1.344 4.107 1.819 6.064 1.744 6.395-1.926 10.735-2.113 3.196-.138 5.711 2.757 9.229 2.4 1.466-.149 2.795-.821 4.22-1.148l.81-1.432c-3.984 1.312-6.225 1.512-10.168-.04-1.427-.561-2.685-.896-4.233-.734m-132.846.863c-1.781 1.161-3.453 1.695-5.496 2.201.268.36.528.733.812 1.08.297.224.363.325.752.277 1.329-.162 3.134-2.323 3.936-3.337l.036-.199zM60 156.267c-.529.13-1.35.284-1.668.77.497.146 1.546-.552 2.701-.155 2.742.942 4.066 3.49 7.325 3.451 1.206-.014 2.411-.386 3.463-.97l.152-.086a11.2 11.2 0 0 0 2.05-1.91c-2.974 1.206-5.657 1.884-8.728.572-1.603-.685-3.495-1.817-5.295-1.673m17.66.12-.49.285.074.115c.692.148 1.414.279 2.05.603.73.372 1.352.994 2.068 1.413 2.245 1.312 5.186 1.663 7.487.252.272-.167.53-.374.78-.57a24 24 0 0 0 1.505-1.557c-3.639 1.537-6.444 1.284-10.15.116-1.115-.351-2.135-.711-3.323-.656m101.396.617c-3.433 1.399-3.74 1.685-7.423.434.32.737.59 1.375 1.201 1.923 1.251.647 2.496.899 3.886.473 1.316-.403 2.37-1.56 3.103-2.684l.002-.123c-.256-.01-.512-.023-.77-.023m18.022 1.04c.123.65.83 1.335 1.37 1.686 1.088.707 2.277.844 3.522.592.114-.37.302-.757.17-1.14a210 210 0 0 0-5.061-1.138m-28.1 1.517c-.6.027-1.23-.048-1.758.261l-.078.326c.095.082.183.19.308.22.434-.165 1.61-.483 1.866-.809zm23.789 1.618c.185.62.348 1.423.943 1.787.511.313 1.297.474 1.873.667 1.787.602 3.367 1.372 5.312 1.21-1.547-.716-2.312-1.412-3.313-2.775-1.477-.631-3.226-.75-4.815-.89m-13.687.178c-.048.368-.164.78.006 1.126.792.603 1.964.899 2.891 1.259 1.98.768 4.103 1.932 6.307 1.629 1.388-.192 2.671-.839 3.915-1.446l.37-.236.004-.169c-.636-.142-1.15.01-1.768.16-3.955.965-4.936.776-7.99-1.893-1.24-.213-2.492-.263-3.735-.43m-118.588.409c-1.267.303-2.254.942-3.293 1.7 2.003-.659 3.408-1.592 5.515-.53 2.717 1.367 4.906 3.818 8.255 2.855 1.445-.596 2.406-1.377 3.449-2.52-3.405 1.306-6.3.748-9.615-.535-1.419-.549-2.761-1.047-4.311-.97m18.806.526c-1.252.16-2.143.555-3.215 1.228 1.835-.504 3.039-.572 4.75.399 2.222 1.26 3.841 2.212 6.508 1.548l.1-.026c1.223-.575 2.176-1.246 3.191-2.138-2.817.978-5.478.786-8.286-.16-1.001-.338-1.987-.765-3.048-.851m90.034.203c.079.569.267.78.724 1.114 1.438 1.049 3.835 2.111 5.627 1.834 1.065-.166 1.984-.615 2.82-1.286.358-.278.488-.328.641-.766l-.107-.233c-2.117-.577-3.538 2.452-6.797-.5a23 23 0 0 0-2.909-.163m-75.793.392c1.844 1.984 4.923 3.574 7.658 3.678 1.703.065 3.554-.406 4.821-1.59q.45-.425.87-.879c.304-.37.622-.737.904-1.125-2.9 1.624-6.145 2.45-9.427 1.53-1.627-.456-3.167-1.28-4.826-1.614m74.82 1.374c-2.201.76-4.043 1.06-6.373.954l-.968.662 1.517.436c2.046.425 4.057.471 5.877-.724.395-.259.722-.524.907-.968-.087-.224-.113-.325-.363-.383-.19-.044-.41-.02-.596.023m-9.123.65c-2.466.564-4.86 1.318-7.41.928-.565.28-1.908.806-2.217 1.345l.284.052a28 28 0 0 1 3.175-.117c2.481.066 4.415.38 6.228-1.718.098-.113.163-.23.236-.36l-.048-.138zm-14.372 1.103c-1.707 1.111-3.145 1.858-5.152 2.248l.035.069-.22-.02c.203.27.438.399.724.565.7.309 1.413.392 2.142.125.899-.33 2.194-1.203 2.503-2.168.073-.228.05-.503.04-.738zm-50.434 1.767.199.082c3.605 1.513 4.88 4.77 9.683 2.836 1.172-.471 2.248-1.215 3.208-2.026.351-.38.714-.754 1.042-1.153-2.888 1.467-6.178 2.7-9.422 1.652-1.528-.494-3.037-1.597-4.71-1.391m-32.533.117c-1.344.3-3.641 1.065-4.449 2.218.004.285.019.411.242.628.221.215.573.216.855.157 1.626-.34 2.727-2.057 4.363-2.399 1.119-.234 3.313 1.566 4.482 1.988 1.114.403 2.302.581 3.48.65 2.023-.014 3.404-.935 4.779-2.332q.388-.396.766-.8c-2.838 1.399-5.387 2.468-8.553 1.385-2.16-.738-3.588-1.659-5.965-1.495m133.577.261c-2.23.351-3.979 1.798-6.127 2.275-1.209.269-3.923-.261-4.565-.006.125.32.292.504.61.652.756.352 1.884.365 2.708.352 2.313-.135 3.727-1.041 5.884-1.61 1.557-.411 3.171-.332 4.765-.278.216-.354.442-.705.638-1.07-1.316-.305-2.566-.347-3.913-.315m-60.009.116c-2.194.501-4.411 1.115-6.681 1.032-2.166-.08-4.088-.75-6.283-.339l1.85.715c3.013 1.054 6.143 1.794 9.182.344.813-.388 1.678-.815 2.302-1.477v-.221c-.124-.025-.244-.06-.37-.054m43.51-.007c-.421.123-.973.215-1.31.501.052.228-.004.14.14.278-2.046.639-4.464 1.015-6.452-.004-.347-.178-.685-.375-1.023-.57l-2.88.336c.249.37.486.745.789 1.073q1.3.412 2.615.772c3.34.81 5.186.3 8.297-.874l1.701.391c.536-.205 1.396-.43 1.702-.949.098-.168.028-.223-.027-.39-.897-.676-2.472-.663-3.553-.564m-57.73.157c-3.988.675-7.136 1.07-11.24.635.416.396.816.79 1.29 1.119 2.046.986 4.088 1.327 6.283.556.9-.316 3.373-1.517 3.773-2.238zm-42.717.249-.36.181c.167.148.063.095.296.132 4.62.732 5.008 4.721 10.98 1.627.525-.326 1.04-.652 1.534-1.024-2.267.49-4.466.815-6.758.245-1.973-.49-3.6-1.34-5.692-1.161m69.297.943c.758.995 1.426 1.727 2.746 1.884 1.506.179 3.207-.313 4.544-.982.255-.175.641-.33.705-.635-1.821-.637-5.585.21-7.995-.267m13.152.058c-.507.054-1.029.069-1.499.276l-.028.146.281.13c.577-.05 1.002-.14 1.526-.391l.089-.146c-.262-.06-.139-.062-.369-.015m-135.25 10.014c-.683.002-2.805-.144-3.287.251 1.834.318 3.784.244 5.641.294 3.874.102 17.195.12 19.803 1.431l.057.162c-1.049.516-3.73.39-4.982.456-3.71.195-7.423.431-11.135.575-1.92.073-3.91-.018-5.816.139-.325.027-.5.059-.728.301l.113.244c1.49.424 3.416.276 4.972.323 4.526.138 14.178-.035 18.117 1.304l-.195.073c-3.481 1.281-19.959.959-20.79 1.518l.004.232c1.146.838 19.586.147 21.577 1.822l-.074.185c-2.984 1.28-18.01.328-19.027 1.33.244.257.479.262.827.313 1.478.214 3.085.135 4.58.195 3.65.147 7.37.25 11.003.64a24.3 24.3 0 0 1 4.95 1.045 19 19 0 0 1-3.191.54c-1.786.138-14.964.289-15.608.77.15.24.236.223.503.28 1.297.28 2.794.196 4.126.241 2.58.088 13.503.181 15.087 1.3-.093.235-.017.16-.27.266-1.801.751-9.357.982-11.552 1.045-1.185.034-2.498-.12-3.648.195l-.059.157c1.047.556 2.82.4 4.003.444 2.82.102 11.774.08 13.802 1.426v.179c-2.218 1.378-13.562.506-14.871 1.346 1.298.695 3.523.575 4.993.65 2.39.12 11.318.224 12.895 1.442l-.03.19c-2.357 1.2-11.184.156-13.536 1.305l.036.105c2.325.564 15.863.407 16.792 1.785-.39.48-1.31.521-1.904.582-2.047.21-4.13.34-6.186.405-1.18.038-2.776-.238-3.885.07.134.263.419.322.69.412 1.026.34 2.22.637 3.297.69 2.026.1 4.073.03 6.102.053l13.262.087 30.16.013 42.965.011c6.128-.003 12.269.083 18.396-.005 4.132-.059 8.263-.292 12.392-.405 3.918-.106 7.846-.047 11.766-.076l11.23-.179c3.889-.036 8.045.213 11.895-.355-4.308-.884-17.855-.436-20.437-1.702l-.128-.212c.139-.25.15-.262.413-.349.797-.263 1.892-.292 2.737-.373 3.713-.357 7.44-.366 11.16-.566 3.053-.049 6.29.112 9.302-.408-2.773-.247-16.45-.868-17.977-1.724l-.123-.225c1.217-1.237 18.038-.58 21.353-1.445-2.464-.234-18.273-.777-19.222-1.468.077-.241.006-.155.26-.292 2.304-1.25 17.856-1.148 22.006-1.745l-.177-.033c-1.793-.326-3.69-.33-5.509-.415l-8.395-.394c-1.35-.07-2.881-.044-4.2-.326-.267-.058-.458-.129-.645-.337.01-.297-.01-.454.241-.666.252-.213.656-.276.971-.315 1.716-.206 3.616-.094 5.353-.128l7.998-.2c2.439-.049 4.889-.029 7.318-.272-3.444-.994-18.92-.851-20.211-1.62-.093-.055-.149-.156-.223-.234l-.015-.391c1.316-1.158 20.715-.367 22.294-1.39-.62-.5-14.065-.927-15.788-1.027-.807-.047-1.83.044-2.599-.145-.389-.095-.776-.392-.922-.764.058-.224 0-.223.179-.309.783-.377 2.604-.276 3.518-.32q5.647-.262 11.3-.346c1.959-.015 3.991.153 5.938.004.386-.029.696-.096 1.023-.312l.083-.218-.69-.07v-.018c-4.337-.423-8.68-.604-13.032-.787-1.887-.08-3.975.035-5.824-.237-.31-.046-.537-.101-.726-.379-.162-.236-.107-.375-.025-.612.494-.354 3.21-.28 4.003-.308 3.312-.117 6.615-.286 9.929-.353 2.554-.052 5.218.057 7.751-.236.584-.067 1.59-.166 1.994-.596-.689-.412-5.576-.252-6.722-.274-3.27-.061-6.529-.246-9.794-.417-1.327-.069-2.794.01-4.093-.192-.27-.042-.407-.09-.566-.321.042-.155.03-.314.182-.397.782-.426 2.756-.308 3.667-.353q5.648-.29 11.303-.375c2.236-.032 4.555.086 6.78-.116.522-.047 1.167-.088 1.587-.418-.191-.287-.591-.353-.924-.412-1.469-.258-3.239-.083-4.736-.083q-4.913.015-9.826-.036-8.945-.066-17.89.018l-34.317.107-105.259.109c-4.725-.001-9.425-.261-14.145-.353q-10.382-.168-20.765-.026m148.975 33.33c-.84.197-1.461.611-2.143 1.114-2.373 1.75-28.505 22.801-28.88 23.544-.082.162-.073.165-.099.317.212.193.209.19.483.17 1.063-.08 12.86-7.184 14.875-8.238 5.668-3.306 11.112-6.852 16.604-10.434 2.488-1.622 6.643-4.075 8.66-6.126-.65-.05-1.413-.175-2.056-.072-2.138.34-4.101 2.492-5.937 3.6.418-.583 2.338-2.978 2.424-3.474-.36-.151-.763-.04-1.115.112-1.866.803-4.445 3.707-6.053 5.149 1.282-1.836 2.682-3.583 4.086-5.326-.212-.268-.52-.293-.849-.336m-23.012.203a4 4 0 0 0-.985 1.012c-2.693 3.93-4.941 8.415-7.299 12.573-1.63 2.876-3.501 5.686-4.995 8.627.467.249.931.51 1.405.745 2.885-3.443 6.004-6.643 8.98-10 2.068-2.333 4.003-4.789 5.93-7.238.784-1.025 1.495-2.078 2.2-3.158-.912.743-1.815 1.508-2.752 2.219.644-.987 1.299-1.923 2.058-2.827.47-.559 1.018-1.08 1.45-1.666-2.921 1.781-4.91 4.994-7.108 7.553 1.405-2.578 2.82-5.116 4.34-7.629-3.312 2.359-5.066 6.264-7.701 9.264a80 80 0 0 1 2.635-5.46c.577-1.1 1.245-2.21 1.739-3.346.123-.284.154-.374.103-.67m-2.337.153c-1.608 1.481-3.291 3.331-4.516 5.144-.872 1.29-1.564 2.728-2.286 4.107a259 259 0 0 0-4.16 8.348c-.58 1.21-1.393 2.481-1.8 3.754l.174.294c.154-.075.262-.121.38-.25.706-.77 1.317-2.08 1.88-2.98 2.911-4.66 5.844-9.353 8.443-14.198.625-1.165 1.464-2.505 1.879-3.74.064-.19.06-.197.087-.365zm-44.517.209c3.044 6.204 7.457 11.73 11.654 17.17.56.727 2.187 3.177 2.96 3.477.147.057.275.061.427.076-.901-2.05-14.136-20.267-15.041-20.723m16.618.008c.416 2.481 2.82 18.142 3.776 19.11l.25.058c-.144-2.866-1.367-16.938-2.627-19.062-.469-.141-.915-.115-1.399-.106m3.682.096-.439.131c-.082.242.652 3.954.75 4.724.591 4.664.988 9.397 1.438 14.08l1.737.132.215-.196q.13-9.46.08-18.921c-1.258-.01-2.526-.055-3.781.05m4.643 0c.189 6.421.133 12.854.291 19.278l1.296.131c.271-1.946.63-3.919.799-5.875.588-4.512 1.438-9.098 1.767-13.631l-1.78.184c-.47 1.483-.655 3.017-1.092 4.501-.037-1.533.013-3.062.06-4.595zm74.636 3.983c-4.563.988-8.96 3.01-13.34 4.642-1.867.695-3.72 1.436-5.596 2.1-1.672.592-3.38 1.105-5.029 1.759-2.275.904-4.502 1.958-6.753 2.922A643 643 0 0 0 152 238.888c-1.202.569-5.51 2.23-6.088 3.068l.103.139c2.103-.55 4.158-1.3 6.22-1.981l7.81-2.552 19.24-6.367c2.707-.903 5.396-1.84 8.129-2.66.964-.29 2.294-.394 3.165-.808 3.072-1.456 11.247-7.535 13.86-9.935zm-77.963 18.752c-4.831.556-9.578 2.39-12.689 6.286a12.6 12.6 0 0 0-1.158 1.726c5.62.643 11.162 1.252 16.828 1.196q6.86-.137 13.648-1.137c-2.87-4.118-6.631-7.035-11.679-7.92-1.534-.268-3.409-.409-4.95-.151"/><path d="M132.464 46.986c-.176-.037-.416-.073-.572-.162q-.053-.03-.102-.064-.05-.035-.094-.075-.046-.04-.086-.084t-.077-.093q-.035-.048-.066-.1-.03-.052-.055-.107t-.044-.112-.031-.116c-.086-.394.046-.633.226-.962.257-.013.495.006.75.033.157.119.307.184.38.374.19.486-.058 1.012-.229 1.468m3.263.134c-.183-.014-.242-.012-.433-.058-.327-.08-.527-.276-.689-.561-.083-.451-.016-.67.158-1.089q.076.016.148.037c.339.106.875.369.992.73.132.405-.014.591-.177.94m2.924.387c-.494.033-1.167-.002-1.559-.345-.274-.24-.26-.422-.287-.755.433.095 1 .172 1.381.41.311.195.37.349.465.69m2.401.762-.496.1c-.36-.2-.393-.428-.564-.795l.643.06c.32.229.307.253.417.635m6.837 2.311c-.297.03-.34.026-.608-.104-.422-.6-.194-1.357-.088-2.031.166.03.34.06.495.127a.91.91 0 0 1 .515.622c.132.503-.076.956-.314 1.386m-15.598-.526c-.108-.001-.323 0-.424-.02-.296-.063-.327-.208-.453-.45.036-.4.143-.677.312-1.04.395.111.591.224.8.582.043.427-.035.568-.234.928m2.63.032c-.319-.056-.465-.1-.709-.316-.078-.37-.017-.489.092-.843.329.038.488.07.752.273.068.4 0 .514-.135.886m-30.814.263c-.196-.161-.216-.194-.311-.414.143-.366.38-.497.678-.748.144.06.05.012.253.191-.037.406-.362.678-.62.97m33.529.511c-.272.014-.32-.006-.565-.129-.264-.322-.32-.623-.409-1.017.333.014.508.036.794.211.212.32.187.57.18.935m-37.332.903c-.177-.002-.297-.004-.463-.074-.17-.071-.146-.141-.206-.303.143-.417.368-.634.678-.941.273.02.173-.012.418.101.229.106.18.118.255.337-.138.412-.37.601-.682.88m6.687.162-.293-.01-.094-.27c.096-.464.311-.822.543-1.23.183.03.297.053.457.156.167.108.137.182.18.363-.168.437-.456.677-.793.991m43.481-.537c-.11.005-.154.01-.272-.002-.604-.065-.942-.452-1.292-.903.292-.004.63.053.903.16.37.145.511.406.66.745m-10.596.514c-.27-.2-.407-.25-.522-.572l.21-.409c.144.063.265.148.396.234.077.325.018.424-.084.748m12.155.706c-.12-.015-.173-.017-.299-.06-.616-.21-.98-.665-1.279-1.218.405.053.744.126 1.075.383.328.255.436.496.503.895m-47.692.793c-.295-.03-.311-.01-.515-.22.067-.333.331-.523.567-.747.318.06.389.055.62.274-.136.344-.385.467-.672.694m30.028.321c-.092-.076-.266-.213-.336-.305-.217-.29-.13-.564-.096-.89l.335.129c.2.316.117.709.097 1.066m-36.491.491c-.15.008-.25-.035-.39-.081l-.111-.255c.076-.48.262-.79.515-1.201.163.02.318.066.478.107l.111.265c-.077.445-.358.797-.603 1.165m56.638 1.244-.209-.015c-.392-.652-1.313-1.723-1.399-2.458.102.027.14.034.246.084.585.274 1.364.723 1.57 1.38.12.388-.044.667-.208 1.008m-7.017-.96c-.32-.117-.49-.205-.746-.445-.13-.364-.059-.523.051-.876.414.038.532.098.816.39.088.412.033.557-.121.93m-15.946-.891-.175.053.034-.144.225-.071zm5.134.575c-.175.173-.07.131-.31.134l.052-.297.145-.119.187.032zm-35.579 1.741-.283-.11c-.09-.18-.181-.259-.132-.469.134-.572.687-.921 1.131-1.248l.156.03.11.176c-.11.677-.498 1.156-.982 1.621m6.668-.59-.292-.334c.064-.405.326-.61.586-.922.262.223.25.213.297.556-.154.36-.29.47-.592.7m31.484.318-.583-.331c-.177-.34-.155-.347-.075-.725.266.07.47.162.71.296.11.342.055.41-.052.76m11.171-.074c-.465-.201-.857-.31-1.065-.81.527.16.764.332 1.065.81m-55.209 1.129c-.23.077-.32.082-.55.01-.014-.65.767-1.305 1.189-1.772l.446.107.093.222c-.216.564-.761 1.005-1.178 1.433m55.209-1.129.048.037zm.048.036c.37.065.599.12.86.424.165.191.242.469.285.708-.471-.144-.757-.317-.99-.768-.117-.228-.09-.167-.155-.363m-30.765.579-.27.037.36-.408c.141.127.068.044.194.271zm-14.292.999c-.271.044-.133.056-.413-.06-.072-.335.062-.544.202-.836.233.001.382.035.599.118.021.353-.184.5-.388.777m-6.621 1.006-.257-.12-.063-.253c.147-.433.392-.684.701-1.015.218.169.224.174.294.44-.118.422-.376.646-.675.947m48.831.259c-.38-.087-.667-.185-.969-.439-.361-.304-.464-.59-.49-1.048.165.034.197.034.37.103.568.229.875.855 1.089 1.384m5.391-.174c-.45-.352-.763-.722-.893-1.287.368.096.621.16.913.424.141.333.069.533-.02.863m-59.967.291c-.248-.088-.251-.097-.395-.318.057-.361.31-.579.547-.84.291.091.296.09.467.341-.084.39-.335.565-.62.817m15.571-.51-.21.113.152-.214.26-.126zm-2.574 2.141c-.147-.105-.255-.22-.38-.349.021-.337.146-.416.356-.673.14.077.236.169.353.276-.008.363-.124.454-.329.746m-9.485.353-.217-.02c-.055-.39.269-.899.436-1.255.247.067.268.047.459.239-.02.4-.42.744-.678 1.036m6.056.365a2.5 2.5 0 0 1-.312-.43c-.02-.43.261-.725.496-1.06.264.215.26.239.345.572-.088.388-.288.616-.529.917m48.529.266c-.195-.017-.382-.03-.562-.117-.46-.221-.612-.68-.779-1.122.206.027.373.081.557.176.483.25.62.564.784 1.063m27.275 3.545c-.651-.224-1.333-.896-1.847-1.348-.936-.823-2.741-2.196-2.821-3.446.047.003.095.001.142.006.008.001.395.061.403.065.428.197 3.794 3.293 4.054 3.696.23.358.13.637.069 1.027m-83.35-3.114-.374-.039-.072-.181.205-.477c.248.061.383.025.527.247zm4.485 1.306-.139-.151c.108-.42.478-.733.769-1.042l.103.093c-.07.385-.486.792-.733 1.1m72.727 1.223c-.24-.042-.49-.08-.72-.158-.339-.113-.542-.295-.716-.604-.04-.39-.004-.444.17-.8.22.006.454.007.67.052.332.07.526.259.701.537.082.411.038.579-.105.973m-43.455-1.155-.037.024.013-.08.056-.015zm45.294 2.976c-.428-.137-1.024-.445-1.27-.835-.191-.305-.12-.456-.038-.775.446.1 1.044.291 1.286.715.202.352.116.533.022.895m-4.496 1.048c-.335-.085-.57-.126-.81-.398-.11-.371.008-.606.137-.95.394.088.461.093.742.374.093.379.03.611-.069.974m-49.228-.82c-.171.035-.086.041-.257-.025l.267-.118.276-.033zm33.255.168.064-.055zm22.632 1.293-.454.02c-.707-.323-.871-.789-1.172-1.481.483.016 1.237.093 1.54.524.243.346.15.564.086.937m-56.514-1-.102.03-.137-.088.13-.07zM73.411 68.26c.335-.411.856-1.534 1.39-1.62.347-.055.648.093.967.21.031.368.052.574-.21.868-.451.506-1.284.567-1.92.55zm98.352.373a1.3 1.3 0 0 1-.474-.182c-.414-.266-.452-.671-.516-1.115q.075-.002.149 0c.408.016.576.108.856.4.128.375.083.53-.015.897m-98.384-.267.032-.106zm93.937 1.528a2.4 2.4 0 0 1-.485-.507c.002-.395.114-.493.327-.818.245.108.316.21.46.434.02.38-.116.579-.302.89m-95.779.917c-.114-.017-.297-.036-.398-.085-.277-.132-.336-.3-.427-.561.016-.183.038-.336.128-.5.324-.592.7-.735 1.32-.9.22 0 .41.026.626.071.013.031.03.061.04.094.08.266.023.544-.088.792-.293.653-.55.832-1.201 1.088m5.031.519c-.201.079-.406.138-.613.201l-.094-.124c.224-.797.906-1.606 1.451-2.22.312.048.576.104.809.33.156.151.112.237.123.44-.354.704-1.011 1.02-1.676 1.373m57.145-1.628-.21-.008.162-.277.162.008zm40.126.659c-.31.028-.337 0-.612-.154-.236-.332-.309-.589-.39-.985.39.03.724.025 1.055.26.114.382.047.501-.053.879m-4.079.648c-.286.113-.46.113-.764.087-.328-.18-.442-.392-.624-.702.361-.06.638-.084 1.007-.026.283.225.277.288.381.64m-43.814.214c-.335-.064-.524-.057-.782-.287l.104-.348c.341.057.48.029.722.287zm-13.76-.157-.131-.076zm53.137 1.725c-.279-.087-.323-.138-.52-.338-.084-.383-.01-.541.128-.892.281.05.41.082.621.278.044.41-.07.577-.23.951m-90.74.663c-.247.014-.537.03-.78-.041-.33-.098-.454-.253-.63-.53.003-.438.059-.522.267-.89.313-.028.78-.087 1.08.004.338.102.378.175.513.469-.035.409-.228.658-.45.987m4.744.601c-.015.002-.03.01-.045.009-.227-.03-.282-.096-.433-.252l.165.082c-.161-.135-.199-.098-.201-.28-.007-.572.711-1.241 1.072-1.652.086.01.18.016.261.05.303.13.329.199.413.49-.223.538-.794.959-1.147 1.436zm91.982-.802c-.342-.13-.486-.196-.725-.49-.028-.397.038-.485.209-.832.38.102.594.18.831.506.011.383-.105.514-.315.816m15.067 2.25c-.53-.694-1.252-1.301-1.446-2.176.15-.428.319-.483.677-.745.638.44 1.093 1.496 1.253 2.232-.103.386-.196.43-.484.69m-19.141-1.045-.466-.16c-.282-.314-.295-.439-.39-.84.264.006.42.032.66.144.198.321.176.485.195.856m-30.894.353a7 7 0 0 1-1.871.004c.664-.104 1.208-.14 1.87-.004m-59.326 1.41c-.213.019-.408-.01-.619-.032-.28-.19-.29-.17-.367-.495.092-.436.297-.585.62-.857.156.01.253.01.412.043.31.063.445.163.605.423-.062.427-.355.637-.651.918m4.7.341c-.203.067-.27.098-.487.063.003-.067-.006-.136.01-.202.013-.06.05-.113.075-.17l-.033-.068c.252-.484.541-.765.958-1.113.126.04.265.13.383.191l.072.236c-.19.46-.61.747-.978 1.063m81.714-.654c-.268-.141-.457-.22-.633-.477l.072-.344.448.177c.189.278.15.304.113.644m5.429.431c-.234-.032-.395-.113-.604-.22-.192-.305-.118-.599-.082-.938.254.025.459.081.7.166.157.362.05.608-.014.992m15.203 1.12a4 4 0 0 1-.267-.039q-.09-.017-.177-.043t-.17-.06-.164-.077q-.08-.042-.156-.093t-.146-.108-.134-.121-.121-.135-.107-.146c-.282-.431-.297-.718-.193-1.214.32.054.56.14.81.35.534.448.746 1.012.825 1.686m4.251-.15c-.33.067-.67.116-.968-.083-.451-.3-.514-.956-.609-1.44.358.035.78.074 1.078.297.402.299.45.768.499 1.226m-23.445-.207-.102.054-.214-.064-.266-.507c.255.043.397.074.602.234zm-14.197.251a4.3 4.3 0 0 1-.835-.352l.027-.247a3.6 3.6 0 0 1 .608.045c.196.224.18.251.2.553m-8.906.142c-.279-.066-.468-.036-.625-.288l.152-.392c.282.063.338.031.544.25zM79.52 78.928c-.052-.028-.106-.053-.156-.085-.277-.184-.328-.22-.388-.529.195-.35.592-.514.927-.71.126.035.066.006.192.12.156.142.106.215.116.415-.19.41-.317.535-.691.789m101.294.382c-.385-.151-.797-.263-1.024-.632.025-.433.13-.514.378-.857.236.118.576.389.699.63.195.382.097.492-.053.858m4.556.281c-.33-.06-.548-.144-.785-.395-.347-.368-.337-.906-.305-1.375.267.109.61.247.797.474.34.414.34.784.293 1.296m-101.264-.378c-.24-.14-.24-.128-.325-.39.11-.397.375-.61.66-.887.148.106.174.16.26.316-.057.414-.33.659-.595.961m82.258-.549c-.133-.037-.07-.011-.22-.097-.197-.114-.199-.383-.255-.598.294.032.368-.023.58.2zm23.875 1.903c-.543-.092-.824-.371-1.157-.796-.403-.515-.632-1.083-.545-1.734.468.138.586.224.898.596.437.521.86 1.239.804 1.934m-50.979-2.147-.105-.032zm-73.667 1.552c-.296-.048-.631-.116-.908-.231-.307-.127-.404-.244-.535-.539.13-.383.304-.46.615-.709.257-.005.57 0 .811.098.32.128.398.28.517.584-.064.395-.225.535-.5.797m55.214.034c-.234-.073-.464-.158-.695-.24l-.074-.182.181-.257c.302.098.489.108.7.355zm-39.223 1.358c-.13-.308-.196-.45-.118-.782.273-.304.643-.344 1.023-.437l.066.1c-.154.442-.636.793-.971 1.119m100.814.039c-.407-.105-.605-.213-.84-.568-.022-.399.01-.434.216-.78.424.123.697.289.914.68-.014.368-.052.38-.29.668m-95.393-.24-.456-.047-.115-.152.15-.565.495.077.126.19zm90.76.444a1.7 1.7 0 0 1-.59-.288c-.076-.384.03-.543.164-.904.214.041.339.085.531.174.142.389.001.626-.105 1.018m9.361.289c-.356.043-.394.066-.704-.104-.282-.373-.334-.757-.425-1.208.345.126.82.345 1.047.648.203.272.141.352.082.664m-79.28-.906-.15.079-.06-.177.15-.077zm20.367 1.848c-.138-.028-.206-.087-.32-.165-.261-.628-.291-1.316-.367-1.987.062.046.13.083.184.137.396.392.448 1.476.503 2.015M61.836 83c-.505-.35-1.263-.844-1.378-1.459.327-.311.643-.306 1.079-.4.165.031.373.057.532.122.324.131.575.335.681.683.077.252.053.54-.122.749-.234.278-.461.269-.792.305m5.862-.084c-.18-.098-.382-.196-.542-.325-.264-.212-.315-.38-.356-.702.159-.428.428-.576.788-.82.273-.01.436.058.684.165.119.172.218.236.205.457-.033.556-.38.882-.78 1.225m17.729-.241c-.292-.034-.446.017-.642-.218l.162-.54c.207.035.39.091.59.153.094.316.022.319-.11.605m94.369.546c-.31.011-.488-.008-.775-.13-.19-.34-.143-.524-.134-.907.33.035.54.069.843.222.175.34.118.445.066.815m4.472.229c-.356-.09-.436-.109-.7-.357-.085-.351.024-.544.164-.856.267.119.412.234.64.412.117.4.068.413-.104.8m-99.995.173c-.093-.038-.241-.094-.322-.146-.297-.187-.276-.327-.342-.65.264.009.398.011.616.17zm91.158.709c-.304-.04-.43-.088-.67-.281-.128-.358-.07-.517.026-.869.32.059.488.087.749.297.083.379.014.493-.104.853m-110.314.572c-.261.002-.54.01-.797-.037-.39-.073-.6-.275-.803-.596-.026-.414.024-.543.242-.897.367-.022.757-.055 1.114.059.307.097.41.265.536.539-.004.389-.113.602-.292.932m5.296.032c-.227.172-.097.117-.392.157a.84.84 0 0 1-.291-.474c-.146-.512-.077-.876.204-1.314.204.022.498.027.684.11.312.138.35.216.447.514-.075.44-.363.69-.652 1.007m110.987.229c-.36-.067-.423-.093-.703-.327-.072-.354-.036-.425.084-.771.37.067.49.069.786.314.04.381.003.436-.168.784m-94.509.396c-.285-.05-.291-.005-.5-.233l.029-.538c.3.061.346.019.557.258zm90.972 1.069c-.514.008-.85.008-1.252-.363-.157-.362-.145-.555-.114-.935.398.058.777.1 1.084.388.275.257.264.565.282.91m-104.832.465c-.275.14-.129.115-.438.069-.292-.563-.204-1.159-.034-1.746.116.013.336.032.441.069.29.1.333.254.446.507-.03.44-.2.722-.416 1.1m-5.307-.17c-.21-.037-.415-.09-.621-.141-.28-.261-.352-.3-.443-.664.176-.353.234-.34.599-.508.205 0 .405.019.609.036.256.202.285.213.376.523-.1.392-.23.497-.52.754m105.471 1.243c-.505-.221-1.018-.398-1.282-.913-.001-.386.055-.475.24-.819.176.026.364.047.534.106.334.117.512.334.675.638.05.434.019.594-.168.988m-102.285.68c-.302.017-.454-.03-.728-.155-.192-.352-.168-.479-.163-.87.354.029.54.064.86.242.144.346.106.41.03.783m4.84.554c-.29-.274-.366-.336-.485-.71.095-.382.234-.486.518-.736l.285.224c.045.132.114.3.11.445-.007.38-.159.545-.428.776m97.971-.8c-.074.046-.167.05-.251.069l-.072-.263c.077-.046.173-.051.261-.072zm-3.985 2.233c-.255.035-.304.017-.545-.08-.295-.334-.343-.65-.433-1.078.284-.007.438.024.697.139.259.303.247.64.281 1.019m-95.935-.157-.308.055c-.355-.126-.398-.32-.594-.634.332-.01.5-.053.796.107zm4.919.728c-.169.01-.26-.019-.42-.066-.146-.437-.032-.704.057-1.152.16.09.279.2.416.32.13.362.059.551-.053.898m-1.646 1.505c-.271-.189-.337-.143-.4-.485l.377-.49c.133.092.213.198.317.321-.02.337-.086.381-.294.654m3.789.727-.241.023-.065-.192.364-.671.353.156.04.187zm84.634.252c-.386-.345-.49-.546-.59-1.044l.46.09c.22.33.143.564.13.954m-85.399.356-.087.036.031-.11.05-.012zm2.993 2.286-.27-.147.034-.21c.323-.183.652-.348.88-.65q.068-.091.133-.185l.239.123c-.022.308-.685.727-.932.981zm-27.245.22c-.262-.123-.518-.255-.776-.385-.213-.323-.197-.394-.201-.788.313.015.553.058.85.155.205.357.138.611.127 1.018m105.611-.442c-.138.124-.054.089-.259.088l.024-.363c.16-.06.067-.05.281.03zM59.434 98.18c-.096.036-.235.091-.331.114-.319.077-.373.045-.648-.102-.149-.358-.123-.605-.085-.978.407.046.775.049 1.111.309.11.321.075.335-.047.657m27.332-.177c-.209-.01-.395.001-.586-.097-.153-.08-.163-.273-.215-.426.097.006.282.015.371.039.292.076.31.234.43.483m76.146.158-.155-.046zm36.686 1.27c-.36.058-.607.081-.973.021-.29-.208-.298-.2-.386-.543.119-.424.276-.615.582-.926.371-.005.697-.028 1.013.204.275.201.325.356.362.68-.18.323-.278.367-.599.564m-136.467.292c-.166.05-.403.147-.575.145-.328-.004-.384-.116-.572-.346-.058-.39.04-.61.185-.958.303.08.654.144.928.297.24.135.242.211.323.458zm132.46 1.163a3.3 3.3 0 0 1-.668-.105c-.26-.245-.26-.22-.278-.575.17-.385.385-.5.729-.706.261-.003.481.034.736.09.251.251.246.223.247.578-.2.383-.394.506-.766.718m4.734 1.395c-.39-.067-.631-.13-.957-.36-.187-.33-.187-.344-.14-.72.245-.397.49-.508.904-.702.445-.016.697-.023 1.085.207.1.185.19.25.147.469-.117.585-.572.813-1.04 1.106m-39.573-1.025h-.087l-.022-.108.091.001zm31.21 1.137c-.184-.032-.423-.052-.594-.125-.274-.117-.286-.154-.366-.433.107-.358.357-.526.63-.757.139.018.405.031.54.093.3.137.333.218.414.507-.167.392-.293.46-.623.715m4.427 1.217c-.383-.055-.608-.094-.923-.345-.159-.322-.163-.325-.087-.675.264-.328.467-.431.857-.582.351.05.573.122.89.28.224.307.228.28.177.654-.244.374-.517.484-.914.668m-8.069.321c-.127-.045-.329-.098-.445-.174-.272-.177-.29-.258-.366-.552.118-.336.33-.451.61-.642.09.017.19.032.275.063.304.112.339.154.469.43-.082.392-.284.589-.543.874m12.667.945c-.241-.123-.416-.273-.618-.453-.09-.294-.171-.422.02-.705.227-.338.68-.46 1.043-.587.394.17.479.204.75.56.036.323.047.44-.15.728-.245.358-.654.39-1.045.457m-7.952.031c-.188-.005-.475.02-.653-.05-.33-.127-.387-.231-.526-.527.097-.398.18-.456.458-.74.21.006.547-.017.746.067.313.13.345.219.459.51-.061.364-.23.5-.484.74m-8.071.046-.335-.155c-.129-.376-.026-.52.087-.894.242.065.358.136.546.3-.004.353-.113.457-.298.749m-129.238.722c-.49.138-.947.235-1.428.02-.327-.296-.364-.556-.451-.967.483-.015 1.25-.01 1.65.304.258.204.228.348.229.643m142.254.312c-.115.01-.229.025-.343.03-.388.014-.583-.063-.867-.321-.088-.383.016-.6.155-.948.468-.036.838-.068 1.222.232.1.401-.021.641-.167 1.007m-8.514.139c-.337-.106-.507-.17-.768-.422-.04-.37.027-.428.206-.762.382.089.544.085.829.365.046.337-.107.54-.268.82m-7.687.279c-.357.065-.432.1-.762-.035-.187-.3-.164-.461-.149-.8.25.038.47.1.713.168.24.282.208.292.198.667m12 1.029c-.111-.023-.239-.047-.344-.085-.34-.123-.407-.167-.576-.465.05-.397.318-.588.591-.849.375.122.561.251.75.6-.05.454-.12.477-.422.799m-7.626-.254-.483-.116c-.268-.31-.256-.464-.321-.86.299.016.523.043.804.15.135.328.063.482 0 .826m-126.914.533q-.087-.006-.174-.017c-.436-.061-.79-.15-1.075-.504-.06-.425.02-.498.208-.87q.09.01.182.023c.417.07.768.165 1.015.53.05.388-.011.485-.156.838m118.466-.32-.095.113-.16.013.057-.358c.159-.088.065-.063.29-.032zm-97.222-.222.144.075zm-26.755 2.016-.343.086c-.16-.1-.251-.096-.286-.3-.1-.573.216-1.088.528-1.538.282.276.501.486.656.859-.093.447-.254.56-.555.893m9.335-.434c-.452.033-.735.073-1.114-.211-.008-.387.075-.475.263-.803.152.034.332.064.478.127.313.138.392.272.51.579zm127.299-.439c-.252-.032-.368-.006-.57-.168l.189-.209.2-.146.162.027zm-3.08.552-.084.044-.034-.133.082-.053zm-129.122 1.617-.407.107c-.325-.108-.31-.093-.473-.394-.008-.412.089-.625.273-.977.46.075.862.138 1.15.53-.086.394-.25.468-.543.734m8.625-.479-.54-.014c-.29-.178-.272-.163-.357-.493.11-.003.326-.013.429.006.321.062.344.237.468.501m112.58.316-.159-.028-.147-.332c.133-.077.045-.036.276-.089zm4.062-.354-.161.054.044-.136.235-.078zM53.427 111.89l-.515-.193c-.14-.174-.27-.274-.305-.503-.085-.56.222-.976.538-1.404.053.026.108.048.16.076.266.143.47.343.537.648.107.495-.172.97-.416 1.376m8.877-.644c-.25.188-.383.33-.71.324-.158-.336-.076-.637-.051-1.002.364.05.658.11.996.256l.024.195zm117.239-.427-.166-.194zm0 0 .052.167zm-114.22 1.614c-.166-.15-.209-.243-.303-.44.111-.394.305-.525.59-.812.189.063.084.01.29.198-.028.433-.323.724-.577 1.054m-8.168.42c-.378-.139-.638-.19-.873-.525.041-.35.22-.519.442-.772.087.002.209-.001.29.023.296.089.338.23.473.48-.047.402-.09.466-.332.794m118.586-.978-.069.037-.053-.139.075-.024zm-19.607-.027.07-.058zm-86.88 1.192c-.231-.114-.188-.126-.281-.349.095-.397.282-.594.547-.886.206.141.224.174.333.385-.043.381-.34.594-.599.85m-8.43.646a1.1 1.1 0 0 1-.38-.236c.072-.453.323-.655.609-1.007l.208.062c.242.283.259.272.258.64-.234.386-.295.378-.695.541M153 112.6l.076-.062zm-80.13 1.435-.128.036-.116-.127c.103-.39.36-.705.584-1.034.203.093.257.142.404.299-.1.38-.452.572-.744.826m-8.29.617c-.325-.09-.385-.097-.61-.342.038-.358.15-.468.353-.758.254.105.371.177.543.394-.013.341-.093.416-.285.706m32.022-.965.125.051zm3.323-.005.064.059zm-31.533 1.87c-.189-.157-.268-.283-.376-.503.136-.383.339-.478.65-.73.19.164.23.249.288.49-.079.342-.316.515-.562.743m8.904-.646-.101.036-.185-.114.18-.086zm-5.236 1.324-.373-.383c-.057-.331.02-.383.18-.685l.248.086c.168.358.031.603-.055.981m9.423.178-.097-.039zm-5.159.427c-.268.034-.456.076-.71-.031l-.09-.27c.287-.032.478-.074.753.04zm8.952 1.766c-.221.009-.265.014-.472-.09l.012-.394c.2.062.324.12.502.223zm31.136 1.239c-.124.009-.224.02-.345.018a.88.88 0 0 1-.687-.308c-.158-.17-.099-.214-.08-.426.324-.298.518-.273.944-.34.193-.016.45-.059.638-.023.336.063.386.164.56.425l-.103.316c-.273.276-.563.284-.927.337m-3.509.195c-.418.037-.837.034-1.197-.202l.004-.176c.561-.58 1.17-.562 1.922-.606.319-.015.618.013.933.048.252.18.27.193.373.485l-.155.188c-.6.237-1.243.227-1.88.263m-2.647.174c-.254.014-.499.05-.735-.063-.166-.08-.118-.094-.193-.3.038-.082.078-.184.142-.249.302-.31.724-.258 1.125-.295.08-.004.16-.014.24-.011.285.011.49.099.666.317l-.1.251c-.403.3-.653.284-1.145.35m-.788 2.841c-.343-.117-.335-.111-.518-.423l.086-.202c1.058-.636 3.43-.444 4.684-.495.175-.007.286.02.454.062.077.294.109.322-.008.597-1.096.612-3.43.411-4.698.461m96.881 3.039c-.418.054-.994.047-1.35-.213-.288-.212-.27-.342-.27-.66.188-.356.406-.489.734-.695.446-.028.942-.112 1.332.165.27.193.25.306.267.606-.178.38-.383.545-.713.796m-92.266-.123c-.284-.166-.466-.203-.796-.227a11 11 0 0 1-1.11-.138l-.139-.357.086-.194c.358-.24.783-.218 1.199-.248.304-.035.605-.062.905.023.31.088.438.252.566.526-.193.363-.362.411-.711.615m-3.71-.103c-.627.044-1.082.108-1.621-.266l.013-.124c.616-.59 1.241-.521 2.034-.542.288-.026.603-.085.88.018.167.062.128.089.224.277-.065.122-.097.196-.194.304-.296.329-.917.303-1.336.333m-8.193.377c-.254.02-.557.07-.81.042-.311-.035-.375-.116-.567-.332l.087-.248c.281-.19.538-.281.877-.328.535-.074 1.082.01 1.62-.019.421-.022.809-.174 1.225-.209.739-.062 1.49-.067 2.233-.09.313.013.361.022.623.192.067.328.079.332-.074.627-.456.296-1.07.22-1.596.239-.757.027-1.317-.21-2.04-.382l-.167.247.091-.225c-.505.319-.914.409-1.502.486m100.007.115c-.33.037-.648.078-.943-.128-.249-.173-.257-.311-.286-.581.18-.375.312-.43.648-.66.257 0 .562-.005.796.12.302.161.353.264.43.567-.17.387-.307.443-.645.682m-4.251.292c-.107.011-.272.034-.375.019-.326-.048-.386-.16-.551-.41-.009-.421.112-.61.33-.948q.075.002.148.008c.382.041.61.136.847.437-.036.443-.146.54-.4.894m-4.15.064c-.339-.053-.483-.082-.694-.338.014-.377.16-.547.377-.833.28.114.442.184.638.418-.012.351-.132.464-.321.753m-3.956.231a2.6 2.6 0 0 1-.554.001c-.215-.325-.127-.518-.094-.9.235.024.407.066.63.133.16.319.086.424.018.766m-4.434.011-.108.058-.143-.066.153-.233.23-.106.07.12zm20.009 2.204c-.369-.008-.788.005-1.094-.24-.282-.224-.266-.374-.29-.702.157-.413.372-.587.71-.863.418.015.873.006 1.185.34a.73.73 0 0 1 .192.728c-.087.342-.433.547-.703.737m-97.775-.272c-.33.012-.67.036-.999.017-.302-.016-.44-.068-.639-.289l.075-.211c.22-.181.43-.323.718-.373.663-.115 1.414-.004 2.094-.025 1.556-.047 3.148-.083 4.7-.191l.36-.045c.3.151.415.239.586.53l-.06.216c-.377.264-5.987.35-6.836.371m93.791.394c-.237-.01-.5-.007-.731-.061-.322-.076-.456-.226-.62-.493.003-.412.132-.579.368-.892.312.002.603.012.895.136.306.13.424.297.544.59-.085.39-.182.444-.456.72m-4.363.25-.162-.047c-.395-.129-.563-.23-.746-.589.159-.388.28-.454.602-.708.104.02.226.038.322.084.31.148.378.259.513.55-.118.409-.213.445-.53.71m-3.896.058c-.335-.04-.607-.039-.862-.286-.094-.362-.016-.514.113-.849.332.048.544.073.833.257.107.36.015.52-.085.878m-3.991-.042c-.246.07-.422.072-.676.052-.247-.273-.21-.397-.242-.756.266-.003.494.023.755.073.221.264.16.302.163.631m-4.634-.082c-.094.013-.19-.012-.284-.023l.207-.118c.196-.045.091-.043.315.02zm-4.35.228-.115-.07zm24.354 2.344c-.293-.076-.603-.166-.83-.379-.25-.233-.25-.361-.255-.673.215-.373.439-.461.813-.628.227.046.618.134.803.285.276.225.26.318.269.645-.178.39-.452.53-.8.75m-3.874.019c-.113-.013-.226-.023-.338-.044-.37-.07-.588-.202-.802-.505.044-.404.175-.48.436-.781.171 0 .372-.012.543.02.32.06.439.172.616.428-.071.436-.188.542-.456.882m-88.691-.267c-.667-.004-1.297-.197-1.953-.207-1.251-.02-2.3.69-3.555.14-.266-.33-.226-.431-.243-.845 1.051.024 5.385-.286 5.958.224.02.35-.023.384-.207.688m84.67.371c-.378-.018-.649-.012-.97-.242-.142-.361-.122-.43-.055-.818.44-.034.837-.077 1.21.179.05.397-.033.518-.185.881m-4.136.03c-.329-.02-.533-.031-.832-.185-.129-.352-.067-.48.008-.84.314.041.514.089.79.244.144.33.096.42.034.78m-4.68.256c-.207-.25-.284-.271-.321-.605l.352-.404c.133.116.193.232.282.383-.045.323-.103.37-.314.626m-4.219-.24-.122.08-.14-.072.136-.18c.197-.098.091-.082.32-.035zm-4.429.081-.083-.04zm-36.333 2.212-.409-.032c-.233-.146-.315-.256-.448-.495.21-.233.338-.245.636-.28 1.436-.171 2.953-.125 4.402-.209q4.291-.263 8.571-.673c.425-.056.554-.007.893.234-.009.147.021.15-.075.244-.729.72-12.176 1.165-13.57 1.211m-31.375.061c-.792.052-1.579.14-2.32-.206l-.072-.203c.26-.283.585-.367.936-.493.664-.039 1.526-.186 2.082.26.156.125.115.19.13.371l-.295.217.213-.102c-.21.144-.425.131-.674.156m-3.563.053c-1.546.024-3.178.139-4.707-.12-.261-.044-.552-.035-.71-.256l.188-.16c.307-.001.522.012.791-.155q.091-.059.181-.12c1.65-.077 3.418-.205 5.057.02.224.267.16.233.132.556-.332.243-.527.206-.932.234m5.068-.078-.13-.035-.078-.141c.5-.273 1.174-.332 1.733-.441.071.02.18.113.243.157l-.136.246c-.565.201-1.044.207-1.632.214m-63.395 1.452c-.31.003-.633.003-.896-.179-.169-.117-.135-.212-.169-.398.157-.365.405-.481.73-.674.314.022.607.028.878.207.176.117.15.172.199.358-.216.398-.365.453-.742.686m3.969.21c-.314-.036-.601-.032-.861-.236-.175-.138-.137-.221-.165-.424.157-.365.426-.5.746-.703.153.027.255.04.407.09.305.102.407.226.521.51-.118.39-.337.529-.648.763m4.562-.137c-.405.005-.709.018-1.042-.245-.11-.412-.058-.474.079-.862.389.011.624.009.953.249.14.356.097.502.01.858m3.842.024c-.406-.07-.698-.112-.984-.436-.034-.352.023-.401.197-.716.366.092.621.161.925.405.096.39.054.386-.138.747m79.392 1.286c-.27.01-.42.025-.652-.121-.107-.306-.137-.298-.004-.59 1.03-.556 3.192-.286 4.39-.36q5.834-.351 11.628-1.115c.213-.046.246-.032.445.031.138.27.187.242.11.554-1.473.851-13.797 1.554-15.917 1.6m-75.517-1.201c-.304-.114-.517-.278-.677-.55l.105-.214.476-.14c.31-.008.515-.028.803.106-.062.346-.446.566-.707.798m5.078-.246c-.383.122-.678.219-1.088.18-.337-.19-.412-.392-.558-.73.388.043.807.065 1.182.178.302.09.333.104.463.372m3.532.057-.227.135.135-.221.321-.102zm4.14.295c-.245.167-.107.133-.42.075l-.265-.44c.224.03.439.08.659.132zm7.707.546h-.137zm-32.843 2.103c-.186-.026-.427-.04-.602-.11-.312-.123-.346-.187-.453-.476.113-.443.364-.67.676-.99.292.012.458.09.715.224.174.246.287.357.237.68-.052.332-.325.494-.572.672m27.946-.883-.329-.286.014-.196.628-.216.284.252-.055.201zm-23.567.815-.17-.025c-.39-.072-.584-.167-.804-.498-.056-.398.033-.533.217-.87.162.008.276.008.44.04.309.057.443.186.617.429.031.395-.108.598-.3.924m4.097-.153c-.381.03-.562.01-.916-.131-.248-.336-.246-.433-.291-.834.396-.001.732-.023 1.1.151.214.36.164.414.107.814m3.709.197-.41-.399.007-.236.517-.468c.136.06.23.137.348.227-.017.41-.216.556-.462.876m4.391-.075a2.3 2.3 0 0 1-.562-.16c-.117-.332-.056-.377.063-.715.249.021.415.058.642.162.081.33-.002.399-.143.713m7.468-.182-.284.062-.145-.211c.202-.144.084-.107.365-.079zm-3.526.364c-.294.018-.475.046-.736-.106l-.064-.395c.328-.006.48-.05.763.125zm67.751 1.326c-.327-.22-.544-.369-.675-.744l.142-.198c.542-.205 1.096-.187 1.668-.205l.373.057.055.135c-.367.53-.987.716-1.562.954m-31.867.016c-.25.01-.411-.006-.648-.088-.081-.274-.068-.286.032-.557.915-.645 2.353.045 3.426-.355.317.101.564.193.843.385.011.008.011.328.011.358-.943.471-2.605.268-3.664.257m6.52-.16c-.705.13-1.463.33-2.162.12-.304-.27-.276-.37-.352-.759.648-.04 1.373-.112 2.014.005.313.057.45.13.617.394zm-46.919-.104-.147.035.099-.184.16-.038zm-3.509.773a4.2 4.2 0 0 1-.93-.148c-.219-.326-.166-.372-.12-.77.362.027.59.048.923.212.186.315.168.339.127.706m-4.254.413c-.369-.071-.57-.07-.861-.314-.02-.393.115-.555.293-.9.154.055.265.09.413.17.3.163.36.33.426.644zm83.998 1.272-.153.02-.154-.172c0-.317-.016-.367.16-.626 1.424-.35 3.086-.32 4.558-.48 2.82-.309 5.635-.71 8.446-1.093l.13.007c.15.267.204.24.133.555-1.523.916-10.842 1.647-13.12 1.79m-92.023-.839c-.403.014-.823.052-1.175-.186-.286-.194-.3-.284-.337-.598.166-.347.363-.47.673-.67.361.016.671.039.989.228.313.186.453.355.529.708-.18.342-.337.355-.679.518m4.029-.044c-.178 0-.393.015-.565-.024-.311-.069-.376-.13-.56-.366-.035-.411.128-.68.304-1.036.396.151.77.254 1.056.585.03.409-.047.49-.235.841m49.897 1.391a2.2 2.2 0 0 1-.686-.113c-.344-.12-.602-.235-.97-.216-1.175.063-9.236.005-9.943-.532l-.033-.603c1.467.01 11.017.357 11.768.736.041.337-.002.41-.136.728m35.917-.302c-.185.022-.383.054-.57.05-.31-.006-.43-.106-.653-.31l.009-.23c.34-.287.502-.276.933-.347.4-.022.593-.08.952.111l.055.25c-.219.318-.377.356-.726.476m-31.994 18.017c14.132 2.221 29.618.487 43.609-1.966.253-.053.41-.088.662-.017l.106.197-.136.248c-1.003.737-6.132 1.473-7.551 1.58-1.024.077-2.066-.009-3.084.137-1.002.143-1.983.443-2.979.627-1.554.287-3.211.452-4.789.53-1.345.067-2.638-.451-3.98-.335-.84.073-1.627.481-2.443.68-1.308.319-2.877.275-4.225.265-2.004-.015-3.432-1.064-5.138-1.02-.69.017-1.363.374-2.058.452-1.895.213-3.953.015-5.836-.238-.775-.316-1.45-.695-2.158-1.14m49.863-.47c-.279-.044-.483-.09-.735-.218l.081-.166c.855-.395 1.89-.546 2.809-.757.224-.032.365-.029.586-.006l.097.202c-.602.707-1.954.868-2.838.945m-11.554 1.665c-.069-.05-.105-.133-.154-.203.738-.425 2.881-.659 3.856-.968l.067.174c-.115.123-.227.244-.358.35-1.017.821-2.188.729-3.41.646m-10.215 1.558c-.644.016-1.178-.026-1.757-.325l.028-.12c.707-.234 1.519-.215 2.259-.263.663-.086 1.346-.066 2.014-.077-.845.421-1.622.624-2.544.786m-21.761-.145c-.242.148-.492.29-.766.37-.771.225-1.52-.228-2.174-.577.927-.043 2.22-.187 3.114.037zm11.118.71a5 5 0 0 1-.626.104c-.413.036-1.28.04-1.597-.243l.17-.14c.473-.023.95-.053 1.423-.055.291-.001.674-.046.883.162zm-30.065 36.456c-.867.968-1.847 1.891-3.168 2.154-.96.19-1.92-.04-2.727-.586-1.586-1.074-2.284-2.966-2.657-4.767-.639-3.085-.575-7.466 1.27-10.167.847-1.24 1.924-1.875 3.385-2.13 1.631-.009 2.792.839 4.01 1.804-.641.827-1.091 1.827-1.576 2.751-.436-.418-.91-.859-1.5-1.037-.548-.167-1.09-.148-1.592.143-.85.494-1.231 1.556-1.438 2.464-.458 2.005-.638 5.314.534 7.102.312.474.766.847 1.338.942.432.072 1.003-.005 1.345-.297.674-.576.464-2.222.488-3.047l-2.075.152c-.005-1.123.004-2.23.083-3.35l2.856-.027c.438-.02 1.053-.106 1.44.109.256 2.52.014 5.245-.016 7.787m2.572 2.073-.004-17.282c1.773.026 3.97-.29 5.667.207.962.283 1.683.952 2.133 1.837.755 1.479.9 3.807.33 5.371-.373 1.023-.888 1.673-1.868 2.15 1.19 2.491 1.811 5.082 2.763 7.654-.947.042-1.9.033-2.849.044l-.464-1.706c-.402-1.232-.809-4.615-1.968-5.265-.315-.176-.647-.073-.972.008-.59.74-.334 5.681-.306 6.982zm2.54-14.068-.001 3.997c1.036-.007 1.965.052 2.92-.407.357-.647.692-1.606.448-2.345-.178-.542-.643-.855-1.147-1.067-.646-.27-1.529-.193-2.22-.178m8.362 14.029-.023-17.205 7.531-.013-.007 3.528q-2.49-.014-4.981.001l-.011 3.002q1.799.152 3.6.28l-.003 3.222c-1.202-.066-2.404-.072-3.608-.082l.005 3.772 5.213.011.036 3.477q-3.876-.02-7.752.006m9.998.04c.016-5.726-.213-11.518 0-17.237l2.057.003c1.337 3.452 2.828 6.828 4.333 10.21q-.059-5.11-.031-10.218l2.429.003c.177 5.735-.003 11.516-.004 17.257l-2.295.005c-1.32-3.477-2.595-6.993-4.076-10.404-.07 3.46-.003 6.93.017 10.39zm10.492-.015c.41-2.704 1.161-5.423 1.778-8.093.699-3.03 1.311-6.112 2.156-9.104l2.26.041c.914 5.675 2.486 11.52 3.692 17.17l-2.555.017c-.218-.88-.273-2.419-.745-3.156-.128-.2-.192-.155-.412-.2l-2.976.001c-.267 1.106-.474 2.21-.781 3.308-.805.018-1.612.011-2.417.016m4.828-11.745c-.327 1.875-.74 3.748-1.026 5.627l1.66-.02.559-.068c.214-.34-.114-1.364-.207-1.778-.153-.677-.658-3.45-.986-3.761m6.649 11.753.071-17.221c2.02-.025 4.822-.409 6.518.906 1.508 1.17 2.118 3.28 2.366 5.1.436 3.195.098 7.004-1.89 9.644a6 6 0 0 1-.273.287c-1.813 1.775-4.468 1.32-6.792 1.284m2.467-13.751c.067 3.395-.04 6.819.098 10.207 1.267-.01 2.11-.02 3.071-.94 1.074-1.918 1.26-4.992.629-7.093-.225-.747-.621-1.502-1.33-1.893-.693-.382-1.699-.303-2.468-.281m7.131 13.765c.534-2.79 1.299-5.564 1.952-8.331.694-2.944 1.294-5.909 1.985-8.853l2.295-.016q2.02 8.59 3.878 17.215l-2.587.004c-.228-.946-.338-2.371-.834-3.178l-.276-.001c-1.08.048-2.171.017-3.252.019-.184 1.05-.414 2.094-.625 3.139zm4.968-11.775c-.176.828-1.128 5.16-.956 5.618.452.05.883.051 1.337.04.275-.016.53.044.722-.165.017-.952-.56-4.744-1.103-5.493m-53.084 29.262.044.125zm-19.122.217.077.081zm.077.081.143.142zm.143.142.114.114zm.114.114.088.09zm18.888 2.511.054.068zm-23.556 9.29-.137-.045z"/></svg>