<svg xmlns="http://www.w3.org/2000/svg" viewBox="0 0 256 256"><path d="M125.35 0h1.785c.573.256 1.058.479 1.43 1.004 1.038 1.468 1.813 3.302 2.723 4.869 2.287 3.938 4.602 7.846 6.825 11.822 1.92 3.434 4.098 6.715 6.03 10.144 3.86 6.852 7.436 13.848 11.08 20.816q20.638 39.385 40.76 79.035l35.47 68.569q5.934 11.223 11.68 22.543c3.413 6.636 6.83 13.248 9.77 20.112 1.625 3.793 3.51 8.635 2.762 12.799-.195 1.09-.66 2.255-1.623 2.885-.32.21-.682.347-1.062.384-.625.058-1.205-.137-1.755-.42-1.662-.855-3.213-2.16-4.784-3.195q-3.946-2.582-8.115-4.787c-8.434-4.51-17.296-7.42-26.639-9.327-24.93-5.088-52.788.038-74.749 12.694-1.661.958-3.361 1.883-4.961 2.94-.295.83-.617 1.446-1.37 1.95-1.31.878-3.097.603-4.194-.504-.397-.403-.675-.92-1.031-1.356-.83-1.02-4.833-3.008-6.1-3.72q-1.275-.73-2.569-1.424-1.294-.695-2.608-1.352t-2.645-1.278-2.68-1.202-2.713-1.126q-1.365-.543-2.744-1.048t-2.773-.97q-1.393-.466-2.799-.892t-2.823-.812-2.845-.732-2.864-.651-2.882-.57-2.897-.488-2.909-.405-2.92-.324-2.927-.24c-15.537-1.11-31.608.83-46.255 6.242q-4.22 1.537-8.278 3.46-4.059 1.922-7.921 4.212c-2.38 1.418-4.66 3.206-7.105 4.468-.648.335-1.348.377-2.057.232-.868-.177-1.844-.725-2.304-1.507-1.014-1.722-.243-5.19.195-7.021 1.184-4.951 3.832-9.407 6.08-13.936l8.028-16.06 21.185-42.266 32.205-63.752q23.331-47.054 47.519-93.675l5.648-10.634c.67-1.26 1.685-3.601 2.513-4.643.28-.352.83-.63 1.213-.863m.627 8.147c-.462.148-.65.29-.942.678-1.454 1.927-2.641 4.284-3.79 6.413q-2.584 4.716-5.04 9.5-7.099 13.39-14.056 26.854l-75.744 150.65-15.596 30.984c-2.515 5.1-5.896 10.572-7.122 16.113 4.25-2.721 8.532-5.458 13.08-7.662q1.08-.511 2.169-1 1.09-.487 2.189-.953 1.1-.465 2.208-.909 1.109-.442 2.226-.862 1.118-.42 2.244-.817t2.26-.77 2.275-.724q1.142-.35 2.29-.677t2.303-.63 2.316-.582 2.327-.534 2.338-.486q1.171-.23 2.347-.438 1.176-.206 2.355-.39 1.18-.182 2.364-.34t2.37-.292 2.375-.243 2.38-.195 2.383-.145 2.386-.096 2.387-.047 2.388.002 2.387.051 2.385.1q1.193.063 2.383.15 1.191.087 2.38.198t2.374.248 2.37.296 2.362.345 2.356.394 2.346.442q1.17.233 2.337.49c11.063 2.432 21.25 6.69 31.156 12.109 2.04 1.116 4.341 2.17 6.162 3.626l.864-.607c25.02-15.7 57.301-22.25 86.239-15.618 13.172 3.019 25.236 8.885 36.325 16.51-.713-3.912-3.376-9.82-5.097-13.512-7.532-16.146-16.27-31.736-24.393-47.587l-9.117-18.228-14.3-27.352-42.46-82.098q-11.709-22.626-24.377-44.728c-.937-1.604-3.425-6.565-4.77-7.385-.45-.275-1.072-.242-1.582-.246"/><path d="M128.71 73.357c-.137 1.101-.24 2.23-.454 3.318-.116.594-.24 1.139-.763 1.485l-.275-.057c-.022-.03-.049-.058-.067-.091-.47-.86-.033-15.114-.005-17.314q.192-16.755.013-33.51c-.015-3.056.015-6.116-.034-9.171-.025-1.56-.251-3.271-.055-4.811.267-.257.655-.245 1.006-.287l.396-.014c1.055.933 5.334 9.467 6.281 11.23-.377 4.241-.932 8.46-1.425 12.689l-3.115 25.214c-.493 3.776-1.07 7.534-1.503 11.319m-3.93-60.152 1.582-.092c.358 1.484.135 3.475.14 5.012l.054 8.693q.176 18.687-.044 37.374-.085 4.076-.13 8.153c-.009 1.83.095 3.722-.067 5.543-.226.267-.246.2-.576.238-.838-.826-.883-4.1-1.006-5.282q-1.69-15.441-3.6-30.857-.902-6.698-1.687-13.41c-.17-1.435-.674-3.292-.46-4.705.272-1.794 4.58-9.01 5.795-10.667m-11.864 21.49c1.489-1.634 3.801-7.463 5.257-9.865.036.075.08.147.108.225.357.976.386 2.415.522 3.461l.958 7.47 2.469 20.297c.858 7.045 1.769 14.117 2.449 21.18.034.359.122.715-.024 1.049-.271.144-.409.186-.717.173-.561-.815-.764-2.398-1.03-3.39-.544-2.827-1.372-5.66-2.055-8.458q-1.825-7.808-3.787-15.583c-1.426-5.484-3.051-11-4.15-16.56m17.68 40.076q-.165.758-.341 1.513c-.16.68-.33 1.653-.954 2.04l-.325-.102c-.153-.243-.21-.348-.214-.647-.01-.747.251-1.632.342-2.388q.434-3.703.915-7.4l3.727-29.128 1.082-9.076c.173-1.52.22-3.113.54-4.606 1.88 2.791 3.688 6.746 5.28 9.778-1.018 4.771-2.308 9.512-3.478 14.249q-3.094 12.933-6.574 25.767m1.715 1.386c-.235.601-.794 2.37-1.343 2.649-.166-.08-.262-.085-.353-.259-.236-.447-.112-1.068-.006-1.537.476-2.1 1.143-4.19 1.702-6.272q1.5-5.623 2.914-11.27l3.257-13.094c.864-3.561 1.658-7.112 2.65-10.643 1.677 2.284 2.988 5.095 4.3 7.605-1.676 3.572-2.968 7.361-4.439 11.022q-4.44 10.86-8.682 21.799m-23.85-32.48c1.023-2.553 2.639-5.29 4-7.692.011.014.026.026.035.043.432.82 1.91 7.221 2.306 8.766 2.255 8.795 4.526 17.622 6.502 26.484.477 2.138 1.132 4.242 1.566 6.388.105.522.194 1.018.01 1.531l-.224.063c-.86-.487-1.065-1.604-1.356-2.475q-3.917-10.073-7.693-20.199-1.558-4.212-3.227-8.381c-.601-1.512-1.145-3.094-1.92-4.528m25.08 34.403c-.291.532-.55 1.108-.991 1.531-.25-.025-.394-.234-.578-.402-.091-.327.063-.685.17-.995 1.224-3.527 2.823-6.937 4.182-10.412l9.448-23.834c.991 1.233 2.47 4.368 3.32 5.93-2.185 4.328-4.687 8.573-7.045 12.81q-4.2 7.715-8.506 15.372m-28.792-27.61c1.094-2.104 2.042-4.234 3.308-6.25.142.179.219.383.311.59 1.121 2.512 2.048 5.143 3.026 7.714l4.77 12.682c1.588 4.272 3.488 8.495 4.94 12.807.163.486.453 1.226.266 1.722l-.224-.038c-.44-.363-.705-.86-1.005-1.338-3.728-6.18-7.116-12.577-10.53-18.934-1.603-2.986-3.06-6.083-4.862-8.955m30.223 28.845c-.186.266-.371.554-.599.787-.288.295-.665.49-1.075.487l-.035-.128c.397-1.93 2.65-5.416 3.67-7.264q3.483-6.35 7.073-12.641c1.846-3.305 3.53-6.684 5.438-9.96 1.041 1.284 1.977 3.456 2.788 4.952-2.779 3.107-5.097 6.84-7.512 10.242-3.217 4.532-6.546 8.982-9.749 13.525m-33.466-22.649c.922-1.842 1.847-3.694 2.917-5.456.962.914 7.633 14.143 8.884 16.404 2.204 3.982 4.674 7.86 6.775 11.893.206.395.328.826.442 1.254-.681-.54-1.219-1.138-1.765-1.808-6.072-7.171-11.596-14.791-17.253-22.287m34.645 23.894c-.323.4-.689.956-1.21 1.084-.136-.113-.161-.084-.179-.243-.051-.465.294-1.034.53-1.416 2.034-3.305 4.599-6.45 6.877-9.601 3.438-4.754 6.77-9.586 10.284-14.285 1.062 1.241 1.825 3.204 2.553 4.665-2.835 2.585-5.376 5.651-8.016 8.444-3.594 3.802-7.324 7.473-10.839 11.352M98.662 62.238c.752-1.627 1.607-3.203 2.442-4.787.88.557 4.375 5.608 5.26 6.78q4.318 5.794 8.868 11.407c1.413 1.745 2.985 3.394 4.343 5.172-.074.266-.154.274-.36.444-.432-.077-.672-.402-.99-.694-2.644-2.16-5.103-4.637-7.585-6.983zm36.653 20.552.063-.118.109-.194c1.074-1.957 3.023-3.623 4.566-5.239l7.965-8.23c2.45-2.53 4.774-5.214 7.307-7.656.804.803 1.874 3.22 2.431 4.292-2.567 1.466-4.963 3.609-7.29 5.436-4.43 3.48-8.84 7.036-13.417 10.32-.606.421-1.165.92-1.734 1.388M95.976 67.433c.743-1.561 1.583-3.08 2.393-4.608q6.908 6.612 13.904 13.13c1.873 1.755 3.882 3.432 5.668 5.27.307.316.56.603.748 1.005l-.094.135.017.229c-.542.037-1.022-.39-1.435-.69-2.018-1.452-4.2-2.7-6.238-4.134-4.936-3.472-9.825-7.17-14.963-10.337m42.071 14.965c-.558.273-1.296.636-1.927.47l-.08-.161c.92-.654 1.894-1.232 2.813-1.895 3-2.165 5.917-4.474 8.84-6.744 3.405-2.646 6.755-5.4 10.254-7.92.778.776 1.815 3.213 2.358 4.265-7.522 3.793-14.798 8.075-22.258 11.984m-44.721-9.774c.792-1.574 1.56-3.169 2.444-4.692 2.026 1.262 3.937 2.774 5.887 4.153l9.422 6.566c1.75 1.241 3.68 2.232 5.408 3.491.485.354 1.084.788 1.308 1.359l-.119.175c-.474.09-.91-.176-1.332-.367-7.732-3.408-15.38-7.07-23.018-10.685m44.847 11.437c-.339.13-.617.204-.977.254-.343-.12-.512-.212-.784-.47l.031-.21c3.27-1.061 7.118-3.484 10.176-5.153l13.844-7.494c.597.267 1.81 3.278 2.14 3.988q-12.252 4.441-24.43 9.086m-47.726-5.8a114 114 0 0 1 2.544-4.95c1.56.543 23.803 10.822 24.186 11.188.178.17.127.191.131.42l-.23.222c-.645.15-1.335-.012-1.983-.1-2.308-.444-4.588-1.303-6.845-1.96-3.215-.937-6.459-1.782-9.686-2.678-2.688-.747-5.382-1.589-8.117-2.142m49.576 7.151c-.632.104-1.405.25-2.044.168-.247-.031-.293-.027-.452-.227l.102-.24c1.057-.969 21.928-8.332 25.141-9.489l.142.024c.939.864 1.662 2.755 2.249 3.916-3.964 1.158-8.183 1.796-12.224 2.657-4.339.924-8.622 2.073-12.914 3.191m-53.566.235c1.06-2.32 2.47-4.58 3.682-6.838 4.727 1.12 9.417 2.537 14.106 3.813 3.194.869 6.771 1.533 9.802 2.856a52 52 0 0 1-3.567.163c-2.988.093-5.99-.014-8.98-.022zm55.963-.125c1.928-.806 4.105-1.214 6.13-1.697 5.504-1.315 11.092-2.23 16.588-3.544.144-.028.236.006.376.038 1.163 1.543 1.906 3.615 2.915 5.29l-21.923.016c-1.365.017-2.726.03-4.085-.103m-56.803 1.923c.155-.39.338-.77.51-1.152 11.795-.138 23.61.066 35.408.075q23.621-.155 47.244-.07c.191.3.366.591.517.913l-.103.188-.413.031q-17.384.066-34.769-.043zM174.649 117l.069.062c.593 1.318 1.08 2.55 1.139 4.014.107 2.73-.931 5.478-1.518 8.11-.709 3.184-1.569 7.817-1.71 11.058-.104 2.356.028 5.387.722 7.651.411 1.346 1.304 2.624 1.362 4.057.064 1.623-.665 3.224-.937 4.808-.299 1.742-.184 3.526-.122 5.282.35-.293.695-.608 1.084-.849.278.36.55.778.887 1.085.044-.028.086-.06.132-.084.208-.113.335-.103.564-.097.237-.212.282-.419.38-.712l.262-.099q.326.232.661.45c.362-.129.698-.288 1.084-.293l.43.548c.244-.104.201-.123.31-.349.371.182.213.55.604.51.183-.282.484-.922.785-.997l.102.13c.229.287.379.531.747.638.451-.081.59-.531.964-.428l.261.37.215-.023.249-.386c.655-.026 1.41.987 2.002.636.378-.225.65-.387 1.088-.435.547.15 1.678.974 2.147.737.328-.165.573-.309.953-.298.294.157.582.317.867.49.346-.166.657-.553 1.022-.549l.324.405c.204-.144.31-.263.466-.453l.258-.051c.247.223.262.35.367.672.453-.095.923-.555 1.383-.511.792.076.986.996 1.818.442.204.156.329.33.478.538.352-.05.589-.368.832-.607.395-.034.553.075.85.33.276.236.297.328.664.363.148-.143.282-.369.5-.369.522 0 1.042.433 1.445.721.35.037.637-.165.938-.321 1.033.214 2.138.659 3.173.736l.321-.511c1.395-.091 1.68.953 3.179.528.547.306 3.77 6.961 4.166 7.944-3.036 1.25-6.09 2.47-9.056 3.88-2.236 1.06-4.406 2.27-6.582 3.448-10.403 5.628-20.293 12.29-28.811 20.537-2.208 2.138-4.527 4.361-6.4 6.805l1.784 1.073q1.097-1.202 2.224-2.378 1.126-1.175 2.28-2.323 1.155-1.147 2.338-2.266t2.392-2.209 2.446-2.149 2.496-2.089 2.548-2.027 2.596-1.964 2.644-1.9q1.334-.935 2.69-1.836 1.355-.9 2.732-1.769 1.378-.867 2.776-1.7 1.399-.835 2.817-1.634t2.856-1.563 2.893-1.494 2.928-1.422c2.661-1.276 5.4-2.394 8.117-3.544 1.393 2.595 2.973 5.284 3.981 8.054-3.361-.097-7.401-.5-10.693.138 3.234.285 7.055.406 9.304 3.07-5.18 1.41-11.455-.069-16.907 1.368 4.56.347 8.627-.16 12.481 2.953-4.383.538-8.768.498-13.147.95-2.085.217-4.177.55-6.239.929-.873.16-1.72.432-2.602.539l.04.17-.155-.076.195-.011c.189-.013.35-.047.532-.092.701-.17 1.499-.094 2.219-.141 3.879-.251 7.86-.389 11.672.54.552.134 1.288.272 1.768.578.168.107.162.11.281.23l.023.258c-.383.449-1.101.619-1.662.725-3.225.61-6.716.76-9.99 1.173-3.425.431-6.81 1.225-10.154 2.067-.32.08-1.558.222-1.626.414 1.85-.191 3.686-.657 5.532-.908 4.26-.578 11.097-.806 15.007 1.062-.588.404-1.14.747-1.84.933-2.681.716-5.655.667-8.405 1.069-1.751.256-14.15 2.7-15.047 3.414-.089.07-.103.202-.154.303l-.083-.104.187-.102.037.08c5.543-1.398 11.272-2.256 17-1.793 1.163.095 2.769.21 3.786.817.142.085.247.191.363.308.03.179.096.247-.04.397-.422.467-1.351.629-1.954.755-1.808.378-3.698.475-5.533.698-2.504.305-5.025.76-7.49 1.293-2.475.535-4.965 1.212-7.4 1.912-.627.18-1.224.442-1.855.612.262.05.2.052.448-.032.605-.206 1.287-.249 1.911-.448 3.202-1.02 16.463-2.251 19.261-.86.21.105.238.182.371.363-.132.369-.404.498-.75.655-2.876 1.3-9.412 1.737-12.863 2.399-3.31.635-6.401 1.718-9.567 2.85l-.066.091.066-.091.132-.008c1.618-.114 3.261-.556 4.868-.813 4.003-.642 8.376-1.156 12.418-.776.681.064 1.86.118 2.438.492.115.075.158.143.237.244-.082.323-.214.42-.506.584-1.91 1.062-7.382 1.523-9.798 1.945-4.048.707-10.379 2.244-13.994 4.176 1.632-.437 3.262-.872 4.924-1.182 3.287-.612 13.746-2.168 16.518-.714.096.05.157.098.248.162l-.022.18c-2.453 1.72-9.816 2.362-12.94 3.026-3.574.76-7.536 1.777-10.841 3.346 1.957-.358 3.875-.896 5.835-1.241 2.91-.513 11.132-1.558 13.531-.437l.19.245c-.131.387-.326.538-.69.721-1.859.939-5.725 1.328-7.93 1.758-4.355.85-8.857 1.963-12.983 3.596-.482.191-1.005.278-1.472.498l.247.024-.245-.013.097-.149.145.138c1.4-.162 2.857-.72 4.257-1.001 3.616-.725 10.365-1.531 13.884-.942.64.108 1.237.364 1.826.63-4.209 2.327-7.884 2.062-12.426 2.963q-5.931 1.23-11.784 2.789c-6.951 1.857-13.657 4.784-20.208 7.729 3.237-5.952 6.471-11.598 11.129-16.576-.648-.218-1.293-.45-1.953-.63-3.369 3.922-6.75 7.791-9.395 12.258-.691 1.167-4.058 7.525-4.702 7.816-.354-.03-.572-.23-.846-.434l-.206.03c-.16.398-.3.946-.67 1.182-.372-.169-.434-.81-.714-.854l-.612 1.217c-.155-.478-.267-.949-.613-1.329l-.19.042c-.256.608-.289 1.272-.365 1.922-.324-1.004-.619-1.596-1.372-2.367.167.96.357 1.922.451 2.891-.32-.583-.542-1.014-1.097-1.405-.505-.355-1.291-1.175-1.86-1.257-.178.274-.128.45-.056.758.149.635.538 1.355.518 2.004-.808-.87-1.474-1.915-2.147-2.893.204.726.42 1.45.581 2.187a14 14 0 0 1-1.366-1.607l-.172-.03c-.01.284-.034.141.082.424-1.278-.337-2.748-1.17-3.916-1.8-3.997-6.66-8.095-12.795-13.427-18.48l-1.48.529c1.175 1.538 2.458 2.993 3.609 4.551 1.842 2.495 4.99 7.687 6.079 10.56-2.105-.96-4.19-1.974-6.338-2.834-6.294-2.524-12.72-4.254-19.34-5.66-5.964-1.265-11.933-2.09-17.788-3.891 4.728-1.39 9.874-.668 14.655.08 1.34.21 2.78.603 4.133.6l.064-.086c-1.861-1.699-15.243-3.896-18.65-4.56-1.073-.21-2.87-.269-3.747-.878l.027-.194c.84-.527 2.159-.586 3.127-.678 3.807-.362 7.762-.006 11.5.778 1.497.314 2.977.767 4.484 1.017l.121.02.063.072-.063-.073c-1.145-.983-2.633-1.508-4.05-1.964-4.642-1.49-9.611-2.145-14.39-3.083-1.17-.23-3.074-.855-4.167-.782-1.467.097-2.957.604-4.428.78-3.535.422-7.088.658-10.619 1.136q-3.275.432-6.52 1.056t-6.448 1.437-6.352 1.812-6.235 2.182c-1.998.764-4.401 1.443-6.211 2.591l-.14.063.14-.063c3.872-1.147 7.628-2.624 11.526-3.73 10.043-2.849 27.903-6.278 37.806-2.48-5.003 1.103-10.038 1.167-15.092 1.838q-3.288.44-6.547 1.056t-6.48 1.408-6.396 1.754-6.292 2.096c-1.791.631-5.566 1.703-7.023 2.672l-.142.07.142-.07c1.126-.232 2.239-.67 3.33-1.031 2.186-.723 4.37-1.487 6.592-2.094 8.078-2.205 16.119-3.787 24.486-4.339 3.346-.22 6.69-.34 10.034-.011 2.827.278 5.562.871 8.3 1.611-3.756.903-7.429 1.213-11.259 1.593q-3.665.396-7.321.874c-16.659 2.144-32.327 6.544-46.52 15.737 1.441-3.264 3.244-6.434 4.832-9.634 2.13-4.29 4.104-8.665 6.444-12.847 4.182-.981 8.227-2.61 12.39-3.71 9.087-2.396 21.007-4.47 30.361-2.901 1.269.213 2.746.435 3.913.992 5.184-1.367 10.563-1.089 15.783-.013 1.395.287 2.759.699 4.148 1.011a15 15 0 0 0-.986-.626c-3.404-1.926-8.364-2.709-12.223-3.338-2.025-.33-4.058-.646-6.072-1.038-1.332-.26-2.78-.735-4.135-.77-1.277-.033-4.854.856-6.456 1.058-8.4 1.06-16.591 2.436-24.699 4.93-4.003 1.233-7.865 3.003-11.883 4.126.878-1.959 1.853-3.866 2.826-5.779 9.757-3.314 24.136-6.608 34.447-5.723 1.961.168 3.839.627 5.743 1.102 6.306-2.17 14.027-.23 20.367.92-5.728-3.705-16.443-3.704-23.153-5.65-2.387.787-4.99 1.116-7.467 1.49-3.25.493-6.514.946-9.74 1.58-6.757 1.328-13.23 3.526-19.8 5.532q1.297-2.715 2.741-5.355c1.976-.67 4.067-1.129 6.096-1.608 6.615-1.562 13.722-2.977 20.552-2.838 2.482.05 4.861.38 7.258 1.02 6.302-1.861 13.302-.806 19.611.576q-.474-.335-.994-.593c-3.61-1.829-11.626-2.841-15.834-3.578-1.81-.317-3.842-.901-5.673-.852-1.261.034-2.661.655-3.936.856-5.39.85-10.858 1.722-16.153 3.059-3.546.895-7.013 2.067-10.488 3.2.661-1.76 1.697-3.491 2.543-5.174 1.644-.504 3.441-.764 5.132-1.1 5.22-1.038 10.753-2.134 16.1-2.06 2.183.03 4.351.741 6.499.718 1.449-.017 2.95-.627 4.425-.753q1.8-.139 3.605-.144 1.806-.006 3.607.122 1.8.127 3.587.388 1.787.26 3.549.651c-4.055-2.258-12.099-3.023-16.796-3.732-1.568-.237-3.45-.783-5.014-.652-1.627.136-3.274.84-4.89 1.161-2.974.59-5.972 1.043-8.93 1.718-3.502.798-6.936 1.833-10.423 2.691.807-1.463 1.553-2.964 2.317-4.45 5.201-1.094 10.44-2.302 15.786-2.224 1.89.028 3.766.615 5.626.579 1.539-.03 3.324-.738 4.932-.9 4.07-.41 8.435.038 12.471.578l.139.067-.139-.067c-.11-.085-.126-.103-.265-.182-2.657-1.519-17.753-3.714-20.606-3.463-1.394.122-2.79.765-4.16 1.077-4.39 1.002-8.795 1.79-13.107 3.118.674-1.444 1.473-2.85 2.211-4.264 3.3-.817 6.898-1.226 10.286-.93 1.406.123 2.88.578 4.284.517 1.292-.056 2.579-.785 3.873-1 3.84-.64 7.813-.406 11.657.036-1.225-.585-2.461-.958-3.788-1.244-2.555-.55-13.723-1.984-15.92-1.718-1.252.151-2.492.65-3.7.997-1.942.558-3.904 1.055-5.854 1.587.528-1.207 1.158-2.379 1.747-3.556q1.834-.035 3.661.135c1.354.133 2.838.44 4.194.314 1.15-.107 2.297-.766 3.43-1.033 2.957-.697 6.104-.721 9.124-.583-3.61-1.567-8.303-1.585-12.196-1.896-1.216-.097-2.55-.33-3.76-.235-1.151.091-2.338.66-3.414 1.064.243-.573.552-1.089.872-1.62 2.118.042 3.794-.658 5.802-1.175 1.439-.371 2.863-.563 4.343-.667-2.776-.932-5.7-.927-8.596-1.053l.056-.137c1.081-2.746 2.717-5.258 3.87-7.98 2.5.744 5.014 2.114 7.36 3.244 16.093 7.749 30.285 19.36 43.152 31.632.723-.29 1.43-.653 2.135-.983-1.732-2.264-5.57-5.614-7.748-7.564-9.864-8.837-21.552-17.327-33.316-23.462-3.436-1.792-7.035-3.374-10.611-4.868 2.31-4.215 15.449-31.454 16.94-32.646 2.543-2.031 8.948 4.095 10.927 5.32 1.112.686 3.045.882 4.326 1.245 2.487.703 4.642 1.832 6.754 3.308 3.23 2.258 6.043 4.86 8.843 7.623 1.314 1.297 3.758 4.001 5.14 4.87 1.194.75 1.97-.07 3.11.084.667.09 1.257.56 1.94.644.119-.134.245-.297.385-.407.25-.197.291-.208.584-.16.25.25.385.433.734.536q.119-.093.24-.182c.36-.267.612-.432 1.075-.365l.23.392.24.057c.369-.134.688-.284 1.087-.224.207.189.414.358.641.522l.233-.047q.073-.31.132-.625c.321-.035.272.257.564.41.082-.137.15-.243.257-.362l.399.294.364-.106c.695.457.65-.288 1.315-.266.19.223.383.434.59.642l.192-.115c1.251-2.769-.646-4.551-1.19-7.016-.334-1.512-.3-3.096-.634-4.625-.928.37-1.849.68-2.857.712-3.982.126-6.572-3.432-8.423-6.466-.617-1.012-1.261-2.048-1.74-3.133-1.053-2.392-1.745-4.928-2.861-7.308-1.294-2.758-3.106-5.875-5.356-7.936-2.203.81-3.41.187-5.537.236-.753.017-1.485.339-2.24.32-1.004-.027-3.337-.866-3.995-1.591-.93-1.024-.516-2.985-.427-4.25.527-.832 1.281-1.511 1.819-2.359 1.117-1.761 1.587-4.052 2.225-6.03-.638-.035-1.29-.073-1.912-.224-1.698-.41-2.792-1.599-3.686-3.012.862-.775 1.528-1.701 2.627-2.187 1.76-.778 3.565.368 5.182 1.007.365-.783.642-1.423 1.36-1.953 1.249-.921 3.214-1.27 4.73-.974 1.651.322 2.576 1.377 3.483 2.682 1.278-.486 2.475-1.369 3.885-1.41 1.616-.045 2.986 1.01 4.09 2.078-.653 1.061-1.599 1.914-2.474 2.79 1.339.665 2.622 1.446 4.044 1.933 3.254 1.114 8.589.398 12.331.658 3.862.268 7.655 1.172 11.523 1.366 5.084.256 10.31-.425 15.388-.725 3.675-.217 7.416-.124 11.078-.498 2.783-.285 5.556-.669 8.342-.944 2.361-.234 4.768-.353 7.117-.66 1.442-.188 2.797-1 4.258-1.016 1.954-.02 4.253 1.536 5.567 2.886 1.096 1.126 1.765 2.343 1.979 3.911.382 2.805-.077 6.46-.23 9.323q-.362 6.311-.418 12.634c-.004.909-.04 1.846.13 2.744.428 2.277 1.496 4.172 1.703 6.67.286 3.456-.873 6.703-.94 10.133-1.092-1.54-1.625-3.517-2.218-5.293.086.767.335 1.964-.012 2.67l-.185-.017c-.284-.605-1.498-4.817-1.532-5.5-.087-1.766.12-3.665.518-5.386.243-1.05.598-2.129.702-3.203.116-1.2-.047-2.464-.089-3.67q-.065-2.534-.05-5.067c.029-3.841.47-7.642.277-11.49-.093-1.851-.15-4.37-1.623-5.703zm-98.27-6.49.34.031.156.203-.157-.203zm98.014 3.331c.342.84 1.415 1.443 2.197 1.815l.021.065c.126.998.475 1.873.651 2.844.274 1.505.19 3.249.204 4.782.038 4.072-1.106 14.983-.137 18.073.15-4.439.024-8.892.174-13.333.103-3.016.6-6.06.375-9.084-.087-1.168-.34-2.486-1.267-3.282l-.021-.065c-.44-.767-1.397-1.463-2.197-1.815m-64.162 11.395c-.195.21-.303.404-.262.708.02.155.059.238.111.377l.213.127.278-.377c-.054-.284-.179-.44-.296-.695-.021-.044-.03-.093-.044-.14l.296.1.132-.075-.26-.498-.29-.009-.1.168zM76.626 147.28l.066.064c1.905 1.789 3.906 3.43 5.764 5.286 2.724 2.72 5.275 5.64 8.019 8.332.06.059.554.558.592.56.029.003.32-.192.379-.208.266-.073.853.877 1.608.87.092-.075.26-.213.355-.273.365-.228.562-.082.947.025.163.134.063.088.312.105-.02-.156-.011-.161-.085-.331-.374-.863-1.792-1.843-2.484-2.536-3.935-3.945-10.002-10.241-15.407-11.83zm87.302 5.627.072.217.124.25-.124-.25zm.16.462c.149.62.444 1.303.826 1.813l.055.066-.055-.066c-.067-.706-.377-1.274-.826-1.813m-78.181 12.006.028.111c-.087.334-.133.51-.406.734-.388-.146-.528-.728-.859-1.024-.067.24-.05.424-.263.568-.123-.2-.16-.26-.364-.393q-.18.176-.366.345c-.549-.22-.67-.95-1.21-1.259-.25.158-.053.727-.13 1.053l-.43-.207c-.196.162-.08.113-.352.13a4.5 4.5 0 0 0-.574-.754c-.262.108-.322.41-.44.662-.233-.032-.161-.015-.356-.065l-.12-.033c.05.346.154.631.017.958-.23-.148-.161-.096-.346-.241l-.112-.09c-.147.111-.295.21-.453.306a5 5 0 0 0-.212-.912l-.219-.042c-.089.054-.252.145-.323.217-.245.247-.153.413-.097.718l-.136.137-.269-.059c-.285.392-.29 1.031-.364 1.51-.198-.556-.344-1.17-.771-1.592-.37.024-.434-.129-.707-.346-.376.227-.524 1.263-.644 1.72q-.118-.232-.248-.458c-.194-.338-.343-.55-.723-.659-.18.149-.357.284-.553.41-.46-.097-.853-.624-1.175-.95l-.12.09c-.023.32-.057.59-.145.9-.303-.236-.553-.62-.794-.924l.008-.14-.098.05c-.128.267-.061.544-.04.834l-.072.064c-.213-.309-.401-.65-.72-.86l-.206.137q-.068.412-.122.825c-.306-.34-.3-.753-.715-.963-.332.203-.395.648-.54 1.01l-.144.058-1.296-2.232c.122 1.2.34 2.382.433 3.587-.27-.43-.546-.877-.778-1.33l-.081-.161-.078.03-.205.58-.138-.052-.156-.582-.264.69c-.21-.077-.422-.912-.615-1.194l-.199-.011c-.222.337-.13.595-.108.991l-.104.1a7 7 0 0 0-.852-.714l-.15.083c-.037.277.007.554.03.832-.24-.315-.343-.538-.717-.684-.335.335-.12.846-.377 1.266l-.194-.048a7 7 0 0 0-.192-.767 3.1 3.1 0 0 0-1.035-.151c-.182.102-.29.181-.501.197l-.462-1.211c-.071.457-.143.922-.27 1.368-.109.387-.237.598-.587.794l-.266-.08c-.377-.407-.516-.894-.703-1.406l-.11-.032c-.112.335-.141.56-.404.803a8 8 0 0 0-.73-.64c-.291.32-.331.902-.43 1.327-.187-.497-.342-.98-.667-1.407l-.198-.022c-.138.227-.162.37-.168.628-.005.213.012.253-.098.443-.236-.237-.362-.431-.69-.527-.233.44-.044.998.04 1.48l-.048-.041-.084.004c-.218-.189-.334-.287-.622-.334l-.142.205c-.002.231.02.338.116.558q.043.095.091.191l-.599.154c-.569-.566-.541-1.664-1.075-2.316l-.166.064c-.034.248-.07.492-.122.737-.3-.212-.558-.428-.931-.484-.356.233-.174.548-.481.84l-.647-.186c-.26.244-.35 1.202-.629 1.303-.258.093-.318-.042-.578.154l-.038.634-.116.099-.51-.165-.138.118c-.01.257-.006.315.118.532.243.423.864.82 1.346.893.444.068.618-.065.947-.337.203-.168.284-.239.534-.343.22.222.379.394.661.54.044-.321.082-.612.206-.916l.159.095c.069.307.098.496.285.759.17-.056.33-.1.505-.143.185.214.371.448.582.636.669.594.692-.09 1.224-.134.05.215.116.384.215.58l.206.005c.157-.227.235-.337.466-.497.139.08.277.155.423.222.286.13.259.184.57.065.074-.338.094-.526.348-.78.112.282.249.483.425.727l.137-.032-.038-.746c.267.178.227.434.51.617q.062-.19.113-.383l.032-.133.23-.005c.21.22.335.362.617.497-.108-.426-.303-.914-.104-1.331.207-.008.283-.015.477-.104l.007-.501.178-.131c.252.18.12.119.391.197l.063-.085.106-.141c.25-.337.408-.603.806-.784.961.238.844 2.048 1.444 2.775l.228-.018c.245-.375.413-.636.85-.8.4-.149.34-.502.734-.616l.399.346c.32-.207.337-.414.538-.723.129-.198.173-.33.416-.359.633-.076 1.082.39 1.532.762l.162-.042.186-.657c.34-.069.365.286.707.42l.184-.37.161-.035.33.466.179-.01.23-.478.166-.024.324.4.167-.005c.272-.45.335-.942.436-1.45.174.086.356.155.536.23.513-.228.681-.811.921-1.301l.749 1.058.132-.067c.035-.256.054-.467.178-.696l.194.033c.14.244.214.382.436.561.221-.205.098-.11.374-.28.655.22.94.92 1.628 1.113.461-.093.48-.463.877-.704l.607.408c.328-.382.217-1.052.57-1.293q.201.243.393.494l.13-.056-.036-.4.15-.108c.447.16.633.59.955.939l.101-.104q-.123-.388-.261-.771c.18.195.367.416.563.596.317.29.96.525 1.395.467.349-.046.394-.111.591-.37.038-.357-.032-.553-.165-.89-.112-.281-.166-.354-.14-.661l.478.216c.06-.303-.005-.184.159-.376.324.21.534.505.773.803l.184.012.128-.733.188-.102.216.409.17.036.2-.36c.758-.042 2.053 1.018 2.708 1.43.294-.284-.105-.623.132-.991.504.33 1.303 1.053 1.928 1.007.194-.014.382-.389.495-.536.551-.714 1.192-1.33 2.126-1.436.874-.1 1.426.592 2.066 1.116.191-.237.214-.328.507-.44l.742.608.112-.075c.097-.318.168-.548.367-.82l.204.048.297.603.174.017.09-.393.133-.044.366.533.179.014c.16-.263.258-.53.362-.819l.159.029.869 1.287.33-1.94c.236.388.413.713.834.913.538.256 1.149.705 1.733.788q.22-.257.445-.51c.183.147.287.232.511.313.057-.296.127-.58.207-.871.102.283.201.528.354.789l.155-.119c.072-.427.122-.85.165-1.28l.15-.066c.33.21.439.506.608.844.114.231.024.126.271.285l.283-.195c.434.274.245.753.677 1q.15-.3.311-.595c.303.13.502.637.672.932l.133-.002.097-1.053c.398-.582.984-.988 1.53-1.425 1.277 1.368.658.432 1.873.596.326.312.446.784.598 1.199.389-.386.88-.82 1.183-1.276.179-.27.185-.463.102-.76-.265.157-.416.265-.734.268-.438-.227-.514-.407-.781-.81l-.251-.015c-.26.181-.425.334-.746.377-.055-.098-.108-.197-.168-.293-.171-.276-.327-.534-.651-.608l-.18.347c-.17-.111-.206-.626-.25-.839l.044.169-.147-.15.121.03-.038-.062c-.138.15-.24.27-.331.454a5 5 0 0 1-.422.676c-.463.156-.593-.28-1.08-.269a5 5 0 0 1-.428.57c-.595-.218-.674-.832-1.31-.939-.31.126-.605.294-.946.231a4 4 0 0 1-.243-.406l-.07-.142c-.346.02-.402.08-.692.283-.349-.165-.475-.42-.694-.726-.4.472-.752.962-1.102 1.47-.117-.405-.2-.939-.543-1.188-.3.277-.356.762-.453 1.145-.259-.47-.49-.971-.866-1.36-.295.216-.21.548-.397.853-.113.186-.453-.289-.726-.24l-.127.59-.13.06c-.161-.224-.27-.468-.526-.576-.113.276-.17.406-.158.713.013.325.043.123-.04.43-.289-.256-.497-.561-.721-.872l-.128.038c.024.202.066.425.06.627-.011.36-.056.37-.317.589-.44.019-.585-.378-.996-.544l.012.455-.158-.028c-.113-.189-.14-.23-.335-.354l-.11.434c-.777.099-1.408-.881-2.207-.912q-.273.198-.559.38l-.551-.575-.128.05.05.306.248.137-.127.228c-.328-.422-.685-.974-1.088-1.32-.245-.21-.422-.316-.743-.296-.136.376.011.935.044 1.342-.403-.061-.938-.73-1.32-.966-.22-.135-.263-.18-.523-.126-.075.225-.122.402-.267.593-.314.41-.293.554-.301 1.048-.18-.066-.4-.322-.549-.454zm29.144 14.703c.087-.43.066-1.08.358-1.396.221.177.239.263.532.263l.078-.374.149-.06.578.486.104.116-.103-.117c.04-.268.003-.127.13-.416l.316.311.147-.033.197-.59c.332-.046.298.319.666.349.01-.288-.004-.541.152-.796.336.02.483.396.73.63l.14-.39c.303-.06.488.762.88.912.22-.324.02-.765.266-1.004l.441.36c.114-.263.016-.562-.02-.844l.131-.164c.103.005.155-.001.258.05.831.406 1.277 1.196 1.641 1.992.126-.672.17-1.346.224-2.027.263.249.536.486.809.723l.186-.067c.105-.416.163-.877.489-1.18.31.122.114.473.347.699l.275-.495.15-.022c.169.27.319.454.56.662.684-.176 1.658-1.702 2.329-2.196.123.103.23.202.338.322l.1.113.212-.041.214-.428c.362.041.75.125 1.109.044a4 4 0 0 0 .27-.543c.053-.138.108-.35.195-.47.183-.252.315-.256.596-.305.234.159.481.338.767.387.422.07.886-.356 1.213-.595l.599.991.143-.085q.041-.462.105-.92c.33.166.321.478.633.552q.37-.332.755-.646c.45.017.53.404.966.505.258-.188.517-.364.785-.536.39.008.423.047.745.276.166-.038.335-.087.505-.097.65-.037 1.666.201 2.156.645l-.026.174c-.284-.026-.444-.027-.71.08-.201.295-.334.522-.673.674a8 8 0 0 0-.74-.245c-.157.125-.31.25-.461.384l-.128.116-.478-.099c-.264.161-.122.091-.43.207l-.355-.324c-.334-.058-.99 1.052-1.61 1.161a4 4 0 0 0-.537-.324c-.237.303-.468.646-.826.809-.274.124-.578.025-.841-.09l-.204-.091c-.266.454-.504.911-.877 1.289l-.133-.077c-.052-.272-.08-.505-.223-.746-.27.398-.375 1.097-.512 1.569-.529-.377-1.024-.814-1.526-1.227.102.473.2 1.338.648 1.615.658.407 1.001 1.364 1.646 1.598.26-.252.256-.716.308-1.06.256-.01.483.367.686.548.097-.375.101-.681.395-.942.438.021.9.486 1.284.711.345-.332.379-1.075.504-1.54.729-.148 1.383.654 2.051.613q.003-.43 0-.861l.172-.051.802.678c.117-.48.236-1.435.63-1.695l.253.135c.045.256.085.462.206.694.09-.025.18-.051.272-.069.58-.111.948.289 1.417.605q-.067-.364-.13-.73c-.07-.394-.088-.645-.01-1.043l.156-.096c.582.29 1.1 1.116 1.522 1.629l.062-.348c.072-.392.09-.821.429-1.056.21.112.317.163.557.148.33-.31.385-.979.48-1.41.058.35.113.704.187 1.051.082.382.2.518.523.725.568-.127.66-.697 1.201-.82.145.486.265.938.555 1.362.4.115.369-.238.756-.44.677.071 1.075.46 1.605.858-.366-.92-.961-1.79-1.194-2.747.083-.324.154-.55.052-.883l-.177-.013-.508.49-.193-.035c-.064-.129-.139-.262-.168-.404-.154-.751.57-1.437 1.008-1.957.348.364.741.69 1.117 1.024l1.152-.966.981 1.04c.221-.408.387-.862.635-1.252.186-.292.304-.342.633-.418.49.163.76.568 1.082.948.148-.351.263-.792.587-1.016.427.007.822.333 1.175.559.404-.174.378-.61.768-.788l.21.567c.587-.097.921-.848 1.568-.998.466.05.703.353 1.02.663q1.31-.541 2.59-1.149c-.639.049-1.744.38-2.325.096-.378-.184-.42-.603-.545-.968l-.186-.087c-.262.156-2.02 1.153-2.181 1.15l-.212-.536-.185-.069a4.6 4.6 0 0 1-.674.284c-.264-.356.039-.697-.2-1.07-.464.132-.532.567-.98.766-.179-.22-.272-.4-.402-.65-.424.023-.565.49-.985.636a1.6 1.6 0 0 0-.437-.291c-.15.12-.257.189-.433.278l-.353-.316c-.312.157-.499.513-.703.792-.223-.14-.49-.362-.728-.46-.734-.304-1.435.976-1.923.915-.33-.042-.497-.584-1.021-.608-.607.46-.738 1.33-.9 2.033-.296-.445-.572-.857-.952-1.238l-.185.035c-.047.324-.055.511-.243.792a6 6 0 0 1-1.371-.352c-.193-.076-.078-.062-.325-.008l-.373.668c-.284-.254-.787-.813-1.15-.833q-.18.35-.344.71c-1.423.492-1.718.29-2.982-.293l-.462.393c-.306-.113-.547-.798-.707-1.102-.204.296-.4.593-.646.858-.198-.313-.304-.599-.637-.774-.26.127-.335.286-.479.527-.138.232-.189.333-.402.507l-.169-.754-.158-.09c-.22.202-.344.362-.643.43l-.223-.46-.226.024c-.252.267-.396.48-.758.589l-.221-.278c-.454-.16-.326.265-.63.292-.343.03-.645-.276-1.04-.218-.3.044-.338.329-.674.391l-.285-.537-.266-.058c-.406.194-.663.644-.925 1.002-.187-.132-.124-.077-.28-.225l-.102-.099c-.587.33-.663 1.167-1.355 1.491-.615.288-.564-.175-1.056-.347-.204.278-.41.543-.636.804a3 3 0 0 1-.479-.314l-.183-.145c-.538.272-.55 1.09-1.05 1.355-.079-.064-.219-.18-.3-.231-.373-.239-1.092.072-1.536.142-.143-.057-.285-.12-.436-.154-.258-.059-.435.008-.653.135l-.211.128-.095-.124c.001-.306.006-.617.056-.92.083-.502.422-2.042.809-2.332-.07.263-.081.42-.037.688l.14.031c.508-.247.965-.624 1.421-.954.272-.603.456-1.242.657-1.872-.406.294-.728.643-1.161.907l-.194-.057c-.047-.335-.115-.66-.19-.99l-.146-.012-.348.502-.228.024a9 9 0 0 1-.719-.818c-.976.455-.197 1.749-.593 2.518-.268-.324-.22-1.138-.255-1.574l-.095-.051c-.23.651-.365 1.375-.649 2-.13.286-.129.354-.43.475-.293-.16-.458-.278-.801-.29l-.114.269c.058.438.341.706.566 1.067.16.257.254.387.187.695-.344.024-.805-.33-1.115-.505-.527.257-.16.979-.42 1.418l-.249.038c-.212-.167-.394-.325-.646-.43l-.233.544-.242-.038c-.237-.376-.534-.69-.831-1.019-.174.607-.166 1.215-.337 1.817l-.156.07-.379-.338c-.17.232-.182.447-.233.724l-.16-.004c-.18-.208-.356-.453-.608-.579-.157-.078-.254.014-.405.073-.175.406-.063.619.022 1.045l-.088.124c-.467-.247-.665-.941-1.061-1.309-.118.193-.086.096-.108.357-.025.28.038.14-.155.364a3 3 0 0 0-.528-.113c-.255.304-.229.4-.264.786-.273.024-.576-.179-.827-.291l-.174.153c-.018.317.001.614-.194.88q-.607-.263-1.204-.549l-.22.097c-.057.245-.1.467-.212.694-.1.207-.403.246-.615.323l-.017.138c.541.583 1.567.478 2.171 1.012q.074.068.146.138l.143-.013c.07-.297.096-.602.344-.805.144.056.259.115.384.204.88.632 1.203-.053 1.677.215.243.137.198.401.534.464.104-.297.2-.546.365-.817.5.033.558.714 1.054.857.188-.39.072-.9.044-1.333l.106-.082c.28.202.537.44.892.472l.143-.757.139-.068c.355.329.725.633 1.1.938m.606 3.684.066.049c.088.675.377 1.329.607 1.968a13.7 13.7 0 0 0-2.406-1.7c-.137-.642-.383-1.26-.6-1.879-.135.53-.257 1.173-.506 1.658-.14.272-.264.374-.543.473-.118-.18-.122-.238-.322-.334l-.361.283-.154-.047c-.127-.254-.228-.452-.43-.654-.554.087-.96.75-1.434 1.07-.294-.007-.373-.174-.58-.369-.415.119-.914.892-1.211 1.238.485-.246 1.177-.71 1.717-.643.207.205.345.355.623.46.37-.144.692-.325 1.094-.21.129.124.256.253.389.371.171.151.3.203.53.173.35-.046.678-.123 1.018.032a.75.75 0 0 1 .395.375c.157.38.07.71-.086 1.07-.453.125-.566-.296-1.027-.268a2.3 2.3 0 0 1-.33.68c-.219-.154-.132-.08-.335-.277l-.145-.143c-.434.025-.507.224-.814.511l-1.176-.945-.052.112-.085.186c-.36.764-.374 1.389-.584 2.172a1.7 1.7 0 0 1-.428-.31l-.176-.166-.166.065c-.081.3-.129.594-.347.827-.486-.09-1.033-.666-1.419-.976.185.6.373 1.276.069 1.855l-.233-.005-.426-.447c-.203.346-.423.691-.576 1.063-.1.243-.065.2.028.422.496.263.815.472 1.141.938q.04.057.078.116c.219-.525.416-1.061.621-1.592.453.476.838 1.017 1.533 1.088.17-.139.31-.199.516-.27.144.073.275.148.411.236l.14.093c.155-.258.031-.644-.003-.944l.114-.12c.435.36.879.68 1.35.991a18 18 0 0 1-.215-1.352c.297-.047.568.06.856.134.412-.184.156-.435.47-.726l.19.125c.145.317.215.537.49.766.148-.153.226-.22.42-.322q.306.281.607.567c.213-.072.217-.016.286-.187.118-.29.069-.628-.043-.911-.022-.054-.05-.105-.074-.157.29.18.487.401.832.343l.236-.641.188-.001c.136.32.14.64.161.982.07-.3.153-.558.278-.84.353-.017.865.44 1.172.64-.205-.696-.34-1.406-.483-2.118.499.377 1.378 1.355 1.956 1.486.026-.24.06-.469.112-.704.21.131.38.237.614.322q.043-.177.092-.352c.116-.405.179-.514.53-.715.41.209.718.807.989 1.183.295-.28.037-.832.264-1.226.47.17.77.695 1.242.927q.1-.314.19-.63l.206.029c.161.237.322.54.567.696.14.09.23.013.377-.03.19-.367.026-.802.025-1.199-.002-.294.043-.41.266-.607q.175.167.356.327l.152-.413.239-.063c.136.08.293.186.44.25.492.213.362-.32.819-.475.316.257.573.559.843.862.14-.437.244-.89.361-1.333.355.3.71.585 1.09.854l.133-.089.073-.705c.265-.146.842.662 1.237.757l.146-.116c-.017-.297-.048-.556.064-.84.301.053.528.439.73.668l.142.001c.075-.242.09-.338.274-.521.468.326.786.814 1.346.983.425-.247.16-.74.545-1.004.379.322.738.652 1.186.877l.2-.084.094-.687c.258-.06.786.431 1.105.534-.021-.243.003-.15-.076-.367-.112-.309-.244-.532-.161-.867l.21-.093c.553.196 1.05.655 1.516 1.008q-.222-.32-.44-.643c-.094-.136-.254-.319-.302-.478-.105-.347-.048-.442.093-.752.391-.145.408.154.802.169.064-.326.055-.558.281-.812.386.072.553.435.793.735.331.062.323.015.608-.176.36-.097.393.353.789.414q.13-.38.28-.752l.202-.01q.375.367.759.725l.141-.084.24-1.007 1.4 1.396c.152-.582.222-1.184.312-1.778.346.577.77 1.51 1.356 1.836.32-.172.251-.512.462-.821.61.386.954 1.016 1.52 1.437.218.161.452.235.72.19.443-.073.764-.615 1.028-.956.046.251.087.506.18.745.09.23.078.3.315.405l.254-.42c.317-.107.803.686 1.25.746.145-.14.281-.251.452-.359l.21.141c.093.273.185.636.329.886.172.302.288.307.597.38.543-.177 1.076-1.043 1.465-1.507-.387-.376-1.292-1.089-1.465-1.582.118-.31.243-.574.211-.913l-.213-.117c-.45.235-.778.692-1.11 1.07l-.04-1.864c-.368.243-.746.548-1.182.637-.33-.299-.4-.802-.533-1.226l-1.254 1.405c.035-.741.042-1.48.047-2.221-.45.691-.925 1.348-1.43 2.001a30 30 0 0 0-.069-2.73c-.103.115-.206.24-.317.35-.489.478-.79.237-1.412.27-.847.046-1.401.792-1.908 1.384.022-.378.027-.694-.052-1.066-.28.1-.603.849-.768 1.13-.302-.748-.47-1.529-.656-2.31l-.494 1.693c-.298-.316-.676-.802-1.123-.819-.28.36-.29.918-.356 1.36-.28-.453-.516-.914-.815-1.36-.391-.17-.392.281-.83.362l-.612-.459-.707 1.282c-.363-.31-.755-.593-1.135-.883-.05.282-.088.602-.182.872-.115.33-.482.363-.734.546-.255.184-.282.453-.334.742-.035.195.014.084-.184.275a12 12 0 0 0-.634-.626q-.186.141-.365.29l-.1-.427-.238.03c-.228.34-.109.715-.193 1.12-.07.01-.317.042-.376.063-.074.025-.14.069-.21.103-.424-.435-.805-.899-1.192-1.366q-.217.703-.45 1.402c-.285-.672-.683-1.33-1.027-1.976-.215.379-.417.833-.81 1.047-.392-.051-.643-.089-1.021.075.054.361.13.63.02.987-.463-.584-.64-1.434-1.408-1.688l-.146.15c-.124.732.246 1.596.474 2.287-.438-.652-.776-1.38-1.329-1.945-.257.122-.08.52-.285.796-.76-.3-1.519-1.473-1.944-2.162-.41.866-.718 1.746-1.019 2.656-.234-.589-.54-1.156-.82-1.724l-1.205 1.381c-.042-1.484-.158-2.294-.918-3.603-.241.593-.434 1.21-.644 1.815-.202-.322-.342-.62-.712-.773l-.204.142c-.204.879.075 1.974.221 2.854-.377-.539-.739-1.078-1.188-1.56zm-26.848 29.334c1.339-.584 2.491-1.517 3.8-2.16-1.39 1.237-2.979 2.307-4.137 3.777 1.372-.82 2.785-1.774 4.318-2.262-1.114.889-2.236 1.771-3.183 2.843l-.161-.11.176.196-.25.2.114.04c1.477-.936 3.204-1.972 4.858-2.56l-.201.156c-1.654 1.275-3.403 2.173-4.773 3.813 1.385-.725 2.768-1.728 4.31-2.065l-.17.149c-.816.713-3.199 2.074-3.394 3.12l.16.042c1.7-1.192 3.324-1.929 5.255-2.667-1.178.826-3.595 2.161-4.137 3.522l.105.083c1.49-.936 3.097-1.649 4.763-2.207-1.496 1.108-3.205 2.026-4.258 3.602 2.332-1.12 4.864-2.317 7.342-3.059-1.962 1.398-4.056 2.37-5.885 3.982 2.047-1.025 3.692-1.877 5.907-2.592-1.986 1.24-3.85 2.347-5.454 4.099l.127-.066c1.666-.883 3.133-2.227 5.07-2.586-.154.153-.254.184-.448.281-1.543.774-3.045 2.059-4.218 3.308 1.922-1.186 3.959-2.242 6.157-2.817l.014-.056.126.088c-2.048.841-3.716 1.68-5.158 3.435 1.213-.744 2.63-1.747 4.024-2.069-1.384 1.108-2.763 1.973-3.906 3.362 1.631-.964 3.633-2.365 5.51-2.72-1.543.854-3.014 1.8-4.312 3 3.191-1.412 6.17-3.236 9.515-4.323 2.089-.679 4.256-1.152 6.404-1.601 9.171-1.918 17.234-1.635 26.444-.24 5.366.814 10.464 1.905 15.54 3.878 1.588.617 3.09 1.414 4.642 2.112l.054.07-.054-.07c-1.108-1.249-2.682-1.909-4.044-2.83 1.756.59 3.283 1.86 5.028 2.334l.055.065-.055-.065c-1.12-1.234-2.64-2.055-3.852-3.19 1.374.364 2.612 1.311 3.798 2.073-1.327-1.485-2.903-2.559-4.576-3.619 1.234.435 3.638 1.799 4.506 1.99l.053.06-.053-.06c-1.103-1.232-4.128-2.931-5.665-3.651 3.017.53 5.446 1.716 8.14 3.108-1.068-1.21-2.454-2.15-3.709-3.16 1.618.472 3.06 1.507 4.553 2.259q-.134-.174-.27-.344c-1.026-1.299-2.661-2.251-4.088-3.047 1.676.42 3.209 1.349 4.81 1.986-1.12-1.264-2.383-2.12-3.742-3.1 1.779.552 3.256 1.687 4.916 2.48-1.452-1.826-3.367-2.983-5.368-4.139.8.25 1.585.506 2.33.896 1.19.621 2.362 1.472 3.65 1.86l.108.066-.108-.065c-1.245-1.415-2.93-2.304-4.289-3.577 1.726.55 3.198 1.685 4.97 2.25-1.543-1.244-3.208-2.217-4.778-3.394 1.986.621 3.79 1.649 5.64 2.575-1.177-1.292-2.96-2.438-4.379-3.465 1.358.371 2.726 1.136 3.961 1.804-1.053-1.272-2.4-2.167-3.721-3.138q1.346.645 2.702 1.27c-.618-.614-1.232-1.237-1.876-1.822-2.71-2.459-6.376-3.843-9.777-5.072-10.026-3.626-20.327-5.625-31.032-5.062-5.331.28-12.177 1.805-17.244 3.6-2.117.75-4.163 1.704-6.244 2.548-2.318.941-4.74 1.763-6.865 3.104-1.53.965-2.913 2.203-4.121 3.544m32.222 18.654.063.065c.134.367.305.714.25 1.112-.357-.021-1.094-.981-1.378-1.288q-.117 1.045-.246 2.088c-.412-.924-.82-1.558-1.548-2.246.464 2.08.89 3.132 2.645 4.442.372-.166.202-.677.554-.957.825.35 1.35 1.532 2.203 1.79.182.055.148.008.336-.12.184-.66.046-1.18-.085-1.84.331.313.926 1.013 1.37 1.033.038-.24.092-.44.18-.667.427.117.659 1.068 1.293 1.221.184.045.137.025.307-.087.018-.281.013-.43.146-.684.375.087.438.402.786.57l.079-.284.172-.631.138-.044c.198.398.346.751.7 1.032.346-.156.339-.612.573-.88.457-.525 1.191-.41 1.478-1.246.181-.528.12-1.09-.117-1.585l-.173-.045c-.187.247-.362.5-.536.756-.019-.046-.091-.218-.099-.262-.031-.187-.048-.337-.104-.526l-.246-.118c-.266.182-.401.288-.734.309-.58-.148-1.216-.984-1.652-1.42l-.011 2.028c-.292-.427-.576-.986-1.05-1.199-.388.345-.21.84-.62 1.129-.249-.265-.546-.66-.843-.856-.344-.227-.512.085-.904.11-.34-.244-.648-.51-.96-.788-.495-.066-.155.214-.55.429l-.39-.25-.152.107-.062.609-.174-.016-.576-.726zM84.952 106.01c-1.627.559-2.545 2.546-3.253 4.01-.218.451-.531 1.022-.594 1.524-.037.296.056.58-.017.876-.156.636-.816 1.245-1.081 1.867-.32.749-.51 1.569-.794 2.335-.627 1.696-1.653 3.184-2.86 4.515.243.583.904 1.46.931 2.01-.264.216-.958.172-.998.496l.22.296.385-.422c.27.093.432.146.624.361-.198.321-.537.365-.591.722.787.865 2.359.188 3.391.845.146-.082.291-.159.428-.255.325.025.635.06.959.002.364-.98.96-2.203.51-3.241a1.55 1.55 0 0 0-.97-.885c-.233-.077-.484-.09-.726-.106l-.061-.18.2-.387c-.344-.236-1.228-.096-1.647-.017-.52.098-1.128.464-1.643.383.026-.8 1.528-1.972 1.876-2.817.876-2.13 3.445-9.683 4.83-11.022.382-.37.83-.63 1.293-.887zm10.644 1.774c-.61.127-1.252.211-1.625.761.059.3.096.367.385.532.46.263 1.206.162 1.72.15l-1.418 1.053c-.366-.064-.729-.224-1.055-.034.034.246.08.481.138.722-.23.17-.448.134-.723.091-.197-.03-.394-.094-.585-.15-.053.42-.1.48.12.86.311.185.591.203.934.101 1.063-.314 2.601-1.645 3.12-2.623.182-.341.223-.6.099-.975-.313-.352-.659-.425-1.11-.488m-7.117 2.813-.1.097c-.326.309-.849.832-1.327.817l-.242-.143-.166.132c.245.303.508.428.598.823-.13.277-.08.276-.373.427l-.165-.097a5 5 0 0 0-.435-.224c-1.135.907-1.796 3.268-2.048 4.654l.204.14c.8-.495 1.32-2.985 2.07-3.802.664-.721 2.115-1.097 2.556-1.869-.005-.34-.014-.45-.264-.714-.079-.084-.212-.173-.308-.241m82.57 2.061-.149.022c-1.297.207-2.503.793-3.794.99-3.042.463-6.363.584-9.444.892-4.081.408-8.057 1.051-12.177 1.055 2.529.796 5.704 1.766 7.042 4.293q.092.176.166.36.073.186.128.376.055.192.09.387.036.196.052.394t.012.398q-.005.198-.029.396-.024.197-.068.391-.043.194-.106.383a2.6 2.6 0 0 1-1.306 1.55c-.377.192-.806.285-1.214.386-.441.845-.72 1.58-1.71 1.87-.495.145-1.103.098-1.504.44-.2.367-.285.614-.167 1.043.441 1.61 3.101 3.273 2.071 5.172-.144.266-.216.295-.477.423-.925-.108-1.794-1.113-2.708-.446-.487.356-.704 1.145-.888 1.682l-.063.181c-.666 1.996.805 4.567.699 5.288-.035.239-.073.218-.256.31-.563.282-1.35.308-1.974.474-.674.18-1.326.469-1.968.74-2.036.86-5.423 2.941-7.558 2.938-.902-.001-1.902-.333-2.774-.554-.98-.249-2.005-.467-2.956-.81-.462-.165-.986-.323-1.222-.786.108-.3.24-.37.524-.496.705-.311 1.822-.425 2.245-1.134.028-.296.01-.449-.182-.691-1.076-1.36-4.276-1.339-5.91-2.228-1.377-.75-2.47-1.963-3.462-3.153-.007-.978-.117-1.93.363-2.815.535-.38 1.367.291 1.456-.594.122-1.214-1.064-2.016-1.49-3.028-.437-1.038-.162-2.273-.367-3.359-.115-.608-.935-1.986-.55-2.476.392-.018.662.133.943.393.686.635 1.23 2.267 2.17 2.413.275-.17.383-.3.549-.578-.01-.423-1.767-6.659-2.003-7.257-.178-.453-.438-.916-.8-1.25-1.358-1.254-5.802-1.43-7.698-1.537.706 1.095 2.897 3.664 2.607 4.984-.39 1.776-1.472 2.894-.356 4.716.583.953 1.432 1.728 1.955 2.727 1.321 2.52.606 4.026 1.055 6.503.212 1.17.7 2.32.977 3.482.188-.855.345-1.722.697-2.528.001 1.103-.09 2.211-.069 3.312.044 2.195.387 3.832-.383 5.959q.978.103 1.954.229l.102.137-.166.243c.126.11.06.094.21.085.684-.045 1.337-.431 1.989-.429l-.286.306.036.15c.814.193 1.666-.316 2.433-.181.151.026.45.448.542.564.985.417 2.272.412 3.33.643.32-.138.6-.312.955-.218l.126.132c.778 0 1.598-.053 2.37.022.723.07 1.414.245 2.147.287.714.042 2.434-.016 3.072.192.17.054.344.29.511.332.726.184 9.757-2.466 10.96-3.161 1.438-.83 2.52-2.177 4.069-3.024-.968 1.79-2.142 3.204-3.596 4.623-.613.598-1.305 1.174-1.857 1.826 1.625.338 2.996.733 4.469 1.5.311-.181.617-.43.99-.383.25.289.1.68.469.78.325.09.92-.004 1.273-.011l.077.135c.077.13.156.247.248.368.145-.164.176-.255.247-.457l.258-.08q.334.191.678.369l.377-.24c.578.133.82.963 1.377.963l.39-.442c.403.18.44.647.861.87.184-.188.357-.379.528-.577l.155-.008.199.436.2-.014c.682-.144 1.305.535 1.903.325a5 5 0 0 1-.26-.95l.16-.147c.192.049.117-.006.218.156.164.26.22.4.498.551.275-.114.266-.065.433-.343-.24-.729-.75-1.299-1.034-2.01-.797-1.997-.988-4.744-3.127-5.826-2.062-1.044-3.05-.681-4.35-3.007-2.653 1.294-5.126 2.767-8.134 2.998.93-.538 1.783-1.252 2.714-1.755.639-.345 1.712-.665 2.185-1.187-.281-.03-.544-.047-.814-.137l.234-.293c-.248-.151-.114-.107-.401-.134l.212.022c-.461-.016-.933-.012-1.39-.08 1.848-.652 3.767-1.02 5.536-1.885.132-1.419.228-2.627-.723-3.816-1.088-1.36-2.161-1.922-2.522-3.762l.074-.162c.408-.894.893-3.449 1.772-3.798.485 1.273-.101 3.059.203 4.416.296 1.317 1.612 2.684 2.184 3.969l.083.185.048.113c-.167 1.623-.473 3.55.661 4.911.325.389.753.65 1.195.882l-.062.356.225-.026c.401-.045.988-.17 1.356.01.243.316.355.542.725.702.237-.063.357-.152.544-.309.422.234.485.713.927.908l.315-.141.212.125-.03.17c-.05.319-.09.576.103.85.354.5 1 .9 1.438 1.346-.1.44-.433.403-.436.906.55.787 1.185.291 1.294 1.453l-.129.189q-.344-.041-.689-.073c.069.477.299.734.67 1.012.422.316.749.45.94.975-.063.49-.536.595-.192 1.026.252.316.88.837.813 1.255-.026.162-.133.357-.199.51.345-.044.454-.084.769.052l.064.194c.152.452.29.954.646 1.287l.124.006c.18.011.358.032.537.054.047.715-.298 1.427-.28 2.158l.114.051.36-.397.125.021c.469 1.514.096 6.343-.136 8.043-.17 1.241-.454 2.469-.668 3.703l.091-.17c.353-.667.516-1.587 1.022-2.14.332 1.004-.962 3.174-1.435 4.112-.446.883-1.018 1.614-1.656 2.364 1.19.74 1.981.74 3.355.705-.184-.39-.456-.833-.457-1.267.251-.172.243-.172.544-.138q.281.254.556.514l.136-.068c-.213-.298-.493-.547-.497-.918.395-.211.683.053 1.043-.178-.024-.46-.416-1.14-.297-1.54.438.03.67.332 1.09.178.089-.456-.292-1.07-.116-1.436l.414.224c.188-.237.09-.688.053-.986-.094-.76-.246-1.512-.34-2.272.305.682.597 1.543 1.089 2.103l.088-.06-.096-.17c-.49-.882-.557-1.61-.646-2.595-.113-1.236-.146-2.364.002-3.6.196-1.643.6-3.252.491-4.918-.843-1.193-1.455-1.667-1.263-3.218.023-.186.056-.111-.093-.224l-.418.225c-.458-.319-1.673-4.115-1.852-4.874.307-.575.611-1.15.94-1.712q-.203-1.119-.388-2.242c-.822.216-1.65.521-2.46.081-.456-.247-.682-.708-.793-1.196-.213-.928-.077-1.908-.007-2.847-1.228-1.776-2.898-3.622-2.482-5.952.09-.508.249-1.014.39-1.51-.353-.89-.7-1.718-1.3-2.478-.813-.108-1.594-.18-2.341-.537l-.221-.103c-1.463-.688-4.141-2.455-4.665-4.03-.102-.305-.084-.543.086-.82.266-.433.7-.775.931-1.226.734-1.425.336-3.673 2.198-4.555 1.075.105 2.034.832 3.005 1.257.9.394 2.251.717 3.245.745 4.683.131 3.551-2.644 8.953-.624-.4-.676-.788-1.264-1.325-1.844-.755-.22-2.604-.545-3.01-1.197.212-.204.31-.27.631-.263.17.004.402.128.562.187.144.052.291.097.436.146.413-.285 1.21-1.047 1.713-.979.59.08.873.282 1.5.152l.168-.126c-.367-.494-1.936-1.053-2.565-1.15a5 5 0 0 0-.764-.052m-35.182 9.629c.004 1.044-.063 2.719.846 3.444.245.195.53.193.827.213-.196-.976-.569-2.929-1.457-3.537-.067-.047-.144-.08-.216-.12m-1.45.326.143.073zm-1.162.358c.215 1.006.535 2.62 1.496 3.182.315.184.54.113.873.042-.567-1.24-1.029-2.63-2.37-3.224m5.591.237c.04.711.166 2.12.748 2.617.101.086.242.114.361.154-.162-1.047-.343-1.982-1.109-2.771m-1.272.241c.124.497.359 2.075.875 2.269.058.021.121.024.182.035-.096-.67-.533-1.87-1.056-2.304m-5.366.473c-.258.493-.233.997-.058 1.522.238.715.846 1.401 1.48 1.792.24-.696-.005-1.228-.318-1.863-.248-.503-.613-1.17-1.104-1.45m-1.677.39c.08 1.28.351 2.412 1.312 3.346.118.115.245.184.389.262.195-.583.182-.897-.083-1.453-.336-.705-1.014-1.644-1.618-2.155m9.683.248c.071.405.071.851.433 1.109-.017-.322.038-.73-.222-.972-.062-.057-.141-.091-.212-.137m-31.567.115c-.06.769.428 2.053.965 2.627.073.078.142.123.23.19.056-.966-.242-1.965-.966-2.653-.1-.096-.124-.103-.229-.163m20.413.659c.237.934.693 2.36 1.572 2.874.165.096.385.151.567.206-.401-1.17-1.106-2.35-2.139-3.08m-1.629.237c.076.915.634 1.836 1.014 2.666l1.328.651c-.622-1.06-1.422-2.511-2.341-3.318m-19.487.492c.213.76.435 1.368 1 1.935.17.059.26.093.443.087-.318-.538-.862-1.792-1.443-2.022m-1.1.487c.252.835.539 1.596 1.075 2.292l.33.136c-.042-.8-.522-1.606-.986-2.236-.14-.074-.266-.148-.419-.192m19.852.156c.397.81 1.276 2.663 2.017 3.11-.092-1.15-.872-2.251-1.775-2.957-.118-.092-.129-.093-.242-.153m-20.489.874q.062.61.23 1.201.166.591.434 1.144c.244.043.145.05.297.025.113-.744-.3-1.596-.756-2.181-.077-.1-.116-.122-.205-.189m-.816 1.723c-.127.543-.218.988-.171 1.55l.133.207c.332-.114.391-.288.593-.57l.401.203.107-.125c-.209-.509-.563-1.013-1.063-1.265m-1.042 7.978c-.162 1.022-.353 1.81.286 2.715.252.356.752.8 1.207.853.306.036.36-.011.584-.19q.008-.087.02-.173a3.3 3.3 0 0 1 .115-.529c.28-.124.282-.143.574-.06.471.857.637 1.955.993 2.878.718 1.855 1.794 3.677 2.181 5.635.405 2.047.202 4.315.859 6.287.226.68.632 1.294.94 1.94.287-.008.308-.029.543-.199.107-.287.203-.57.289-.864l.107-.02c.45-.087.738-.226 1.011-.612 1.123-1.584.478-6.157 1.621-8.641a11 11 0 0 0-.143-.977l.24-.078-.147.17.452.36c-.034-.632-.242-1.34-.162-1.958l.149-.15c.236.208.262.379.359.667l.102-.01c.142-.439-.168-.732-.28-1.168l.251.062c.154-.296.132-.49.135-.815l.096-.16c.276.433.417 1.082.456 1.593.053-.434.118-2.009.387-2.22.213.248.238.462.305.774l.072.028c.489-1.235-.031-2.831-.187-4.11-.348-.298-.69-.6-1.065-.864-.173 1.621-.627 2.89-1.914 3.979-.331.28-.709.496-1.081.715-.722-.135-1.516-.217-1.953-.888-.712-1.09.425-2.984-1.377-3.39-2.14-.482-3.478.86-6.025-.58m-5.234 1.82c-.656.303-1.496.562-1.78 1.284.069 1.67 3.549 6.48 4.77 7.624.225.212.47.386.729.555.674-.95 1.084-1.847 1.461-2.945l.14.095c.465.32.957 1.042 1.453 1.186.246-.133.383-.294.438-.584.068-.363.018-.533-.181-.836-.083-.127-.232-.258-.336-.364.532-.282.722-.462 1.044-.971-.247-.366-1.401-1.402-1.425-1.661q.093.026.188.05c.19.047.302.06.491.044a.9.9 0 0 0-.195-.737c-.348-.441-1.086-.608-1.601-.793.001.554.129 1.62-.269 2.047-.114.122-.246.084-.4.092-.67-.588-.565-2.795-1.748-2.74-.321.764.25 1.972-.33 2.578-1.295-.89-.814-3.407-2.45-3.924m-35.988 1.614c2.877 3.456 6.611 6.666 8.181 10.992-1.407-.816-2.421-2.135-3.61-3.227-1.97-1.808-4.191-3.605-6.498-4.958 1.808 4.359 6.712 6.565 7.938 10.075-2.87-.968-5.44-2.937-7.914-4.656.756 1.362 1.515 2.695 2.464 3.935 1.126 1.471 6.41 6.748 6.546 7.915l-.15.224c-.71.14-1.532-.281-2.113-.66-1.206-.786-2.342-2.048-3.388-3.039-1.624-1.537-3.25-3.059-4.928-4.537.367.907.758 1.785 1.198 2.658.724 1.267 4.07 6.382 5.026 7.05.567.111 1.325-.435 1.65.039.099.144.189.298.281.447l.363-.248c.549.225 1.266.637 1.85.513.129-.158.23-.408.452-.404.496.008 1.097.527 1.485.805l.093-.126c.253-.339.423-.552.801-.744.225-.006.287-.04.487.076.399.235.661.37 1.123.412l.187-.532c.282-.098.401-.066.665.05.171.076.336.181.498.277.214-.047.352-.087.553-.184l.16.113c.227.158.133.1.377.226.001-.633-3.515-5.744-4.141-6.562-.614-.8-1.305-1.54-1.988-2.28 3.032 1.37 5.58 4.218 7.834 6.622.179.191.823 1.019 1.04.901.041-.022.197-.172.234-.208.573.147.76 1.055 1.261 1.135l.429-.625c.565-.028 1.093.37 1.64.252-.076-.388-3.462-3.866-4.054-4.597-3.245-4.008-7.36-11.915-11.288-14.569-1.353-.914-3.173-2.112-4.744-2.561m114.036 4.623c-.272 1.1-.805 2.348-.816 3.477-.003.25 1.51 7.47 1.63 7.842.096-.66-.121-4.85-.366-5.333a1.5 1.5 0 0 0-.117.415l-.096.073c-.454-2.106.228-4.38-.235-6.474m-61.381 1.224c-.122.357-.264.659-.17 1.04l.185.118c.13-.34.29-.624.17-.99zm2.652.725c-1.076 2.2-.597 4.53-.774 6.854-.168 2.198-.569 3.312-.366 5.67.035.403.034.909.145 1.296.06.209.065.202.148.364 1.01.296 1.774-.12 2.73-.042.465.037 1.062.309 1.517.211.483-.103.956-.46 1.43-.619.251-.084.607-.244.788.007.03.041.099.224.12.277.53.015.883-.503 1.418-.487l.112.495c.822.169 1.054-.93 1.802.11.679-.053 1.976-.972 2.487-.553l.188.466c.57.038.829-.487 1.256-.522.495-.041 1.05.48 1.516.537.787.096 1.606-.63 2.65-.325 1.966.575 1.989-.355 3.31-.291.643.03 1.202.489 1.772.545.588.059 1.11-.646 1.737-.63.087.25.113.476.138.738l.198.043c.285-.26.482-.55.871-.602.192.155.362.31.53.49 1.083-.26 1.594-.608 2.704-.217.293.103.728.33 1.032.349.436.028 1.062-.482 1.58-.53l.074.142c.12.224.074.14.238.378.589.012.921-.558 1.474-.513l.139.502c.726-.04 1.659-.642 2.298-.489l.265.505c.387.074.784.059 1.177.085l.145-.1c.306-.21.533-.418.921-.404.3.263.394.41.795.468.335-.144.56-.325.833-.558l.186.064.05.126c.119.295.188.521.458.712.604.048.896-.273 1.328-.642q.132-.113.263-.228l.565.995c.46-.424.913-.863 1.385-1.274l.936 1.248c.32-.261.625-.618 1.036-.663.231.21.385.414.561.668l1.023-1.136c.136.369.268.923.556 1.186.195-.256.373-.517.55-.784.305-.038.314.032.565.187.486-.66.233-2.248.196-3.053-.14-2.042-.464-3.811-1.762-5.46l-.212-.096c-.752 1.028.756 4.764-.088 6.699-.374-.297-1.593-4.808-3.112-6.406-.606.149-.39.855-1.253.277-.373-.25-.557-.53-1.011-.595-.549.523-.508 1.338-.525 2.055-.017.693.13 2.212-.299 2.766-.948-.873-.707-4.026-1.591-4.66l-.236.25c-.393-.238-.34-.74-.79-.81l-.252.138-.174-.422c-.386.182-.547.71-.685 1.095-.563 1.573-.892 3.21-1.765 4.654l-.095.16-.058.095c.006-2.1.682-4.03.278-6.143l-.896-.786c-1.852-1.64-4.253-1.992-6.639-1.835-2.474.161-5.144 1.208-7.422 1.054-2.44-.166-4.874-.75-7.266-1.235q-3.555-.704-7.13-1.306c-1.95-.328-4.102-.74-6.073-.545m59.64 2.65c-.158 1.86.049 3.609.899 5.302-.007-.544-.719-4.943-.9-5.302M77.61 151.486q2.257 2.704 4.371 5.522c1.097 1.479 2.151 3.157 3.416 4.49.32.338.583.572 1.026.722.187-.022.327.012.461-.14.227-.254.306-.608.409-.926l.192-.145c.325.177.409.506.545.829.172.237.203.279.469.393l.243-.124c.147-.505-.103-1.103-.346-1.545a5.2 5.2 0 0 0-.93-1.207c-.978-.946-8.82-7.385-9.856-7.869m77.175.216a32 32 0 0 1-.354 1.66l.134.179c.228-.471.59-1.03.417-1.566-.057-.178-.056-.142-.197-.273m12.346.198.048.094h.032l.02-.106zm-8.584 2.136.054.19.114-.007c-.137-.187-.057-.162-.168-.183m-46.393 2.938c.216 1.069.483 2.228.352 3.324-.162 1.362-1.472 3.258-.902 4.558l.198.045.276-.337c.412.587.751 1.168.82 1.894-.533 1.299-2.93 3.031-2.96 4.385l.162.101.135-.171c.124-.153.21-.247.365-.358.099.234.14.454.184.704l.186-.019.391-.616.145.034.291.598c.415-.154.713-.474 1.08-.716l.052-.18c.052-.177.01-.125.078-.194l.248.082c.287-.646 1.198-2.962 1.23-3.547.01-.197-.053-.374-.112-.558.21-.02.129-.052.27.064.3.244 1.027 1.33 1.269 1.332.553-1.174-.107-4.462-.192-5.846-.058-.933-.057-1.874-.082-2.808-.332-.023-.524.349-.729.196.1-.586.484-1.121.776-1.633-.679.36-1.615.898-2.397.578-.418-.172-.855-.557-1.134-.912m-54.531 1.498c.64 1.415 1.66 3.683 2.968 4.588l.177-.151q.087-.072.177-.142c.26.212.476.447.7.695.285-.265.104-.606.499-.747.883.32-.055.792 1.34.484l.259-.074.595.372.152-.062c-.185-.352-6.181-4.62-6.867-4.963m14.856 5.11.006.15.045.032.035-.165zm15.585.663.091.067zm32.887-.14c-.416.56-.431.513-1 .802-.028.013-.228.133-.236.163-.106.4.233.465-.277.56-.613-.195-1.048-.706-1.536-1.106.262.757.492 1.856 1.122 2.382.05-.31-.115-.81.091-1.007.475.321.737.905 1.266 1.11l.189-.086.11-.674.18-.078c.214.315.335.73.701.835.36-.304.062-.735.438-.987.478.202.553.924.949 1.074l.3-.61.206-.032c.217.246.382.486.555.763.298-.074.37-.314.538-.561.377.62.55 1.334.932 1.97.151-.566.313-1.78.804-2.093.077-.049.185-.07.273-.092.289.142.379.343.542.608l.209.077c.212-.179.352-.364.512-.59.164.127.25.213.376.37.35-.162.402-.53.737-.693.984-.478 3.9-.969 4.93-.585.364.136.682.411.98.653-.322.374-.601.8-1.09.95a4.4 4.4 0 0 1-.597-.11c-.249.227-.335.491-.458.796-.304.2-.408.186-.778.205a7 7 0 0 1-.737-.493c-.618.39-1.622 1.118-1.82 1.847-.051.19.044.3.116.471l.153.04.334-.803c.31.073.37.173.602.385.064-.16.107-.313.16-.477.08-.247.143-.314.337-.473.473.232.57.787 1.037.982.272-.37.134-.77.468-1.092.346.004.484.161.739.363.167.133.333.231.518.335.531-.129.87-.777 1.297-.892.28-.076 1.11.574 1.269.28.161-.3.204-.663.27-.994l.167-.023.615.508.15-.025c.08-.475-.029-.804.196-1.239.235.088.336.21.513.382.142-.186.113-.254.131-.48l.427.564.204.023c.224-.287.346-.59.712-.66.23.326.305.68.407 1.058l.158-.082.084-.676c.283-.168.278-.1.58-.027.288.263.6.702.968.775.353-.21.601-.487 1.025-.361.388.114.482.328.896.205l.784-.788.947.893c.327-.414.644-.846 1.007-1.23.28.322.391.577.817.662.358-.168.579-.362.972-.275.219.297.357.556.502.895.268-.538.518-1.097.827-1.613.297.575.576 1.171.93 1.714l1.189-1.264c.138.416.25.95.53 1.292.42-.143 1.689-.703 2.048-.588.136.291.157.529.466.651.455-.227.734-.74 1.204-.842.342.305.496.509.948.611.503-.206.924-.83 1.32-1.207l.484 1.05c.433-.101.547-.3.894-.552.286.265.539.529.786.83.233-.392.43-.86.807-1.122.176.42.123.838.435 1.17.289-.113.176-.012.31-.303.154-.34.338-.798.702-.946.598.386.468 1.048 1.295 1.223.513-.316.713-1.047 1.2-1.267.305.337.348.89.442 1.325.297-.838 1.13-2.047.931-2.898-.268-.188-.324-.197-.668-.13-.558.11-1.094.794-1.464 1.19-.164-.394-.28-.768-.617-1.05-.299.054-.319.108-.493.362-.104.15-.18.342-.26.508l-.712-1.437-.133.063c-.475.236-.75.474-1.085.88l-.264.074c-.267-.219-.417-.454-.598-.741-.201.351-.392.812-.726 1.038a5 5 0 0 1-.336-.657c-.342-.122-.62-.006-.952.088-.397-.145-.546-.495-.97-.488-.177.33-.225.571-.573.725l-.24-.093c-.093-.3-.034-.898-.267-1.046-1.298.151-1.069.845-1.9 1.226-.025-.235-.019-.995-.136-1.125-.426.52-.082 1.17-.905 1.324-.197-.118-.203-.066-.255-.26-.1-.37-.014-.835.021-1.217-.362.498-.696.985-1.163 1.393l-.18.021q-.044-.394-.066-.79l-.19-.141c-.281.164-.76.544-1.063.47l-.288-.674-.18-.031-.456.42-.222-.022c-.139-.19-.312-.55-.54-.59l-.37.887c-.267.094-.267-.038-.506-.04-.284 0-.832.731-1.057.929-.126-.399-.215-.843-.484-1.166-.264.121-.388.288-.573.505l-.185.027-.187-.393c-.45.018-.55.401-.998.305-.191-.222-.492-.665-.75-.77.036.143.153.4.083.532l-.363-.367c-.328.068-.52.362-.733.6-.794.222-2.327-1.118-3.354-1.193-.894-.065-.584.949-1.636.923a14 14 0 0 1-.724-.498l-.24.046-.172.375c-.293.107-.332.093-.625-.032-.372-.158-.493-.431-.908-.312a16 16 0 0 0-.236.702c-.63.01-1.132-.716-1.72-.754-.614-.04-1.208.493-1.868.37l-.129-.413c-.934-.038-.277.664-1.67-.367l-.556.422q-.078-.013-.157-.023c-.575-.067-1.374-.103-1.819.335-.105.104-.172.213-.255.332-.335-.146-.587-.385-.862-.62-.287.271-.222.597-.594.738-.233-.3-.493-.926-.812-1.05q-.203.334-.411.665l-.224-.004a17 17 0 0 1-.571-.69l-.089.14c-.1.155-.205.301-.316.449l-.23.003-.327-.418c-.35.137-.497.384-.732.667-.327-.2-.274-.675-.48-.988m55.355.227-.683.925c-.172-.194-.178-.328-.235-.576l-.14-.025c-.166.26-.309.513-.443.792a3.4 3.4 0 0 1-.455-.288c-.22.204-.245.346-.306.636l-.305.034c-.17.343-.1.784.036 1.143.063.167.041.12.191.213l.49-.41c.359.05.343.423.696.262.061-.027.287-.234.343-.282l.197.052c.1.355.2.67.374.998.47-.266.91-.504 1.429-.663l.16.09c.064.426.036.784.323 1.114.664-.13.62-1.203 1.459-.849.264.388.431.905.833 1.133.437-.466.638-1.17.972-1.72.424.324.925.853 1.481.791.264-.33.285-.35.689-.469.11.11.585.639.699.657.05-.225.085-.44.106-.67l.167-.002c.466.56.679 1.476.905 2.166l.912-1.225.534 1.293c.368-.576.72-1.149 1.047-1.749.358.642.82 1.243 1.418 1.68.19.03.302.104.468-.022.555-.42.561-1.226 1.392-1.228.272.304.525 1.261.84 1.286.238-.3.478-.578.748-.85.17-.017.174-.06.282.036.26.231.407.84.537 1.175.527-.459.924-.922 1.664-.92.42.183.599.609.82.987.22-.316.446-.769.786-.937.122.187.214.36.31.56q.052-.337.12-.671c.408.226.636 1.091.788 1.522.384-.539.74-.9 1.251-1.312l.353 1.963c.221-.811.317-1.596.995-2.155l.267-.036c.327.291.58.813.991.954.161-.163.236-.31.336-.512.112-.225.165-.337.399-.454.314.025.337.023.576.224.144.428.187.89.57 1.14.357-.007.493.039.766-.207.077-.07.202-.215.275-.297.36-.043.69.125.97.34.27.209.516.45.786.658.372-.323.75-.71 1.184-.946.175.068.25.072.373.22.106.129.058.085.15.156.499-.636.85-1.67 1.234-2.401-.482.31-1.175.876-1.776.812-.229-.024-.413-.149-.604-.264-.395.153-.355.522-.787.637a5 5 0 0 1-.601-.672l-.096.135c-.145.202-.087.125-.26.33-.57-.311.079-.58-1.11-.796-.382-.441-.326-1.371-.37-1.947-.255.35-.488.708-.83.98-.4-.09-.542-.541-.874-.48a7.6 7.6 0 0 0-.703.95l.014-.189.052.1-.106.068q-.185-.45-.388-.891c-.475.114-.598.792-1.119.952-.278-.297-.204-.601-.304-.981-.198.185-.385.374-.57.574-.28-.605-.039-1.313-.332-1.952-.46.311-.677 1.565-1.148 1.573l-.103-.145a2 2 0 0 0-.323-.352c-.298.085-.39.248-.573.477-.119.149-.065.09-.235.222-.085-.271-.162-.54-.286-.797-.436.326-.441.938-.916 1.213-.338-.185-.483-.713-.623-1.07-.33.244-.91.812-1.301.83a7 7 0 0 0-.082-.822c-.472-.138-.88.457-1.226.09-.012-.448.043-1.036-.134-1.448-.641.22-.861 1.058-1.53 1.324l-.158-.122-.027-.676c-.367-.087-.437.22-.7-.087l.165-.527c-.393-.023-.6.171-.885.422-.265.234-.442.478-.796.573-.218-.323-.209-.886-.25-1.275-.286.441-.574 1.024-1.02 1.313l-.169-.033c-.16-.355-.156-.835-.467-1.047-.603.198-1.022.951-1.369 1.456-.13-.358-.21-.754-.542-.975-.431.108-.78.728-1.072 1.048-.254-.337-.507-.667-.727-1.027-.25.057-.127.001-.356.195-.284-.296-.06-.769-.428-.845-.35.252-.5.424-.72.795l-.117.044-.125-.627-.133.056-.149.614-.194.112c-.245-.214-.363-.417-.524-.695-.933-.051-1.169 1.755-2.247.594-.309-.333-.572-.725-.871-1.071m33.955 3.733c-.152.29-.322.55-.235.894.019.075.053.144.08.217.123-.321.321-.63.217-.978-.014-.047-.041-.089-.062-.133m-113.04.566c-.467.496-.714.75-1.415.777-.545.02-1.175-.028-1.585.403-.101.106-.185.222-.279.334q-.094.11-.191.219c-.404-.274-.28-.781-.719-.977-.3.321-.151.876-.452 1.098-.51-.377-.477-1.242-1.169-1.31-.696.338-1.398 1.512-1.844 2.156-.228-.322-.464-.754-.817-.94-.421.28-.339.777-.609 1.121-.328.42-.606-.286-1.133.654l-.183.043c-.822-.658-1.13-2.006-1.819-2.855l-.136-.171c-.418 1.205-.552 2.389-.664 3.654-.27-.405-.515-.728-.88-1.052-.289.31-.153.798-.496.995a20 20 0 0 1-1.034-.766c-.123.24-.127.397-.151.66l-.142.086c-.454-.353-.446-.767-.516-1.315l-.022-.172c-.296-.258-.58-.594-.99-.623-.288.326-.242.986-.263 1.41-.57-.39-1.135-.781-1.74-1.116a21 21 0 0 0-.105 2.129 24 24 0 0 0-1.545-1.69c.093 1.097.129 2.122.055 3.222-.633-.746-1.075-1.669-1.546-2.523q.001 1.53.03 3.059l-1.297-1.522c-.027.418.002.929-.237 1.282-.295-.131-.41-.479-.519-.776q-.078-.22-.149-.443c-.017.538.069 1.356-.16 1.833-.279-.035-.444-.151-.678-.3l-.255.022c-.3.388.015.868-.244 1.204l-.928-.748a28 28 0 0 0-.205-3.153c-.941.85-1.209 1.615-1.55 2.811-.325-.439-.656-.87-.932-1.343-.03.53-.038 1.071-.138 1.593-.515-.359-.589-1.8-.726-2.42-.176 1.027-.275 1.922-.617 2.918l-.094-.103c-.421-.486-.616-.982-.843-1.571l-.136.037c-.02.266-.033.503-.108.761-.296.027-.296.03-.533-.168-.295-.245-.357-.51-.76-.513-.312.233-.621.459-.95.667-.272-.108-.416-.174-.711-.193-.152.312-.141.296-.466.421-.298-.034-.484-.219-.71-.398-.26.431-.474.832-.636 1.308l.059.164c1.053.315 3.05-.299 3.836.462.171.598-.001 1.242-.077 1.85l.166.064c.77.304 1.905 1.21 2.664 1.17.556-.343.633-.827.85-1.426.363.591.724 1.176 1.029 1.801l.191.106c.175-.227.102-.097.205-.396.227.11.279.152.438.332l.098-.281-.202.18c.456-.59-.007-1.566.58-2.092.262.22.307.446.424.757.252.162.326.222.633.245-.004-.425-.26-.719-.172-1.13.148.122.165.192.253.362.282.54.744 1.2 1.22 1.582.288-.442.047-1.177-.055-1.66l-.13-.604c.232.34.416.676.794.87-.002-.38-.522-.945-.367-1.24 1.176.378 1.97 1.482 2.915 2.207-.11-.673-.437-1.75-.062-2.346.345.041.47.171.693.446q.144.181.283.367c.112-.64.227-1.274.28-1.924l.594 2.148c.134-.717.206-1.643.648-2.233.295-.014.195-.064.392.105.416.359.655 1.075.938 1.55.273-.996.487-1.95.594-2.978.466 1.178 1.234 2.022 1.78 3.125.68 1.378.98 3.036 1.355 4.522-.389-.49-.773-.985-1.183-1.458-.056.372.113.753-.044 1.075a1.5 1.5 0 0 1-.47-.368c-.264.184-.296.633-.35.943q-.046.279-.087.558c-.402-.845-.636-1.634-.841-2.55-.114.546-.176 1.262-.472 1.735l-.191-.008c-.249-.347-.335-.671-.443-1.081-.181.094-.115.022-.19.191-.186.425-.378.664-.728.964-.325-.119-.142-.364-.482-.429l-.122.224c-.348.111-.594.133-.953.133a1.3 1.3 0 0 1-.313-.418c-.221.151-.245.276-.364.514-.133.263-.192.45-.465.587-.424-.124-.846-.428-1.27-.346-.306.363-.319 1.01-.303 1.472l.094.122.102-.11c.165-.174.103-.11.31-.292.569.555.688 1.773 1.443 2.108.096-.248.113-.464.132-.728l.155-.036c.524.56.867 1.335 1.233 2.008.03-.405-.03-1.083.235-1.376.305.168.445.397.636.676.229-.703.42-1.346.5-2.084l.148-.182c.213.26.46.966.706 1.027.123-.459.062-1.043.362-1.388.436.079.81.508 1.21.474.046-.294.055-.573.22-.826.243.087.29.244.404.474.609 1.228.245 2.798 1.323 3.872l.22.037c.141-.218.215-.417.293-.664a1 1 0 0 1 .474.104c.17-.416-.09-1.067-.211-1.496.572.446 1.314 1.107 2.052 1.202l-.048-.202c-.287-1.197-1.057-4.103-.62-5.236l.031.277.078-.1c.49 1.223 1.117 2.298 2.373 2.9.186.089.212.088.384.13l.128-.108-.42-1.663c.382.428.719.845 1.222 1.135l.169-.077c.017-.661-.206-1.271-.334-1.912.712.766 1.252 1.681 1.817 2.557.008-.505-.052-1.003.253-1.431.444-.153.51.319.789-.135-.03-.533-.489-.933-.383-1.448l.24-.248c.344.133.533.476.747.762v-.188l.073.013c.156-.26.118-.339.427-.416.457.349.501.866 1.026 1.111l.152-.123c-.033-.41-.15-.725-.303-1.106.545.171 1.024 1.098 1.501 1.129.003-.336.012-.656.061-.99l.123-.027q.404.379.791.773c.248-.024.13.022.342-.164l.16.166c.155.159.312.29.492.42.074-.412-.104-.912-.198-1.32.463.362.885.718 1.292 1.145l.276.08c.262-.21.326-.53.43-.837.24.14.412.85.517 1.135.147-.653-.117-1.433-.285-2.075.468.416 1.873 2.09 2.246 2.169l.433-.277c.26.295.176.83.242 1.226.247.001.317-.106.515-.243l.118.189c.169.26.09.164.316.361.187-.366.187-.801.502-1.054l.178.089c.082.338.171.668.27 1.001l.127.039.365-.713.136.027.26.479c.169-.135.322-.273.475-.425l.189.066c.153.334.267.651.373 1.003l.154.075.41-.565c.135.209.25.423.365.643.33-.025.321-.095.554-.31.212-.544-.147-.813-.085-1.297.05-.388.773-1.171 1.004-1.505-.385.18-1.814 1.058-2.11 1.006l.009-.118a2.6 2.6 0 0 0-.075-.911c-.281-.144-.146-.14-.427-.051-.274.086-.765.441-.998.351-.012-.425.233-.929-.037-1.237-.474-.06-1.51.156-1.805-.158-.284-.303-.22-.766-.607-1.031-.281.11-.145.014-.292.193-.126.154-.25.234-.416.339-.422-.262-.116-.715-.765-.563l-.195.05a3 3 0 0 1-.895.095c-.209-.246-.188-.425-.16-.736.047-.512.163-1.035.252-1.543-.535.67-1.103 1.33-1.61 2.02-.048-.528-.049-1.014-.34-1.475l-.195-.09c-.325.558-.374 1.304-.803 1.785-.486-.24-.842-1.084-1.202-1.527l-.585 1.698c-.176-.566-.361-1.13-.508-1.705-.327.547-.659 1.088-.948 1.656l-.816-1.42-.306 1.075-.11.037c-.12-.287-.136-.529-.43-.659a5.6 5.6 0 0 0-.55.701l-.154.001-.198-.645-.154-.009c-.114.289-.175.679-.454.82-.316-.392-.548-.8-.79-1.24-.291.737-.61 1.369-1.03 2.038l-.24-1.803q-.526.953-1.037 1.913l-.19-.058-.205-.763c-.392-.037-.236.246-.63-.066l-.36-.918c-.538.555-.977 1.014-1.182 1.784-.66-1.15-1.423-2.332-2.517-3.11-.445-.318-.681-.631-.755-1.186-.05-.366-.026-.76-.016-1.129l.112-.124.452.255c.16-.464-.229-.933-.008-1.376.457.115.727.33 1.115.58.08-.276.01-.507-.041-.782l.069-.09c.658 1.165.817 2.847 1.256 4.143.449-.943.649-1.654.703-2.701l.1-.115c.158.144.305.292.45.448l.439-.069c.358.278.457.946.582 1.371.238-.376.357-.698.758-.903.372.225.296.564.58.886.254-.33.347-.659.468-1.054l.164.006.478.674c.233-.327.438-.663.641-1.009l.182-.03c.288.234.433.469.815.444.152-.323.179-.874.479-1.025.283.174.478.4.812.32l.268-.704.127-.013.258.512.118-.244-.009.071.281-.417.188-.018c.425.423.924 1.036 1.55 1.062.133-.134.36-.458.55-.434.273.033.508.217.736.361.276-.368.265-.905.645-1.138l.885.868c.047-.46.037-.998.237-1.415.356.16.37.575.732.63q.254-.359.491-.731c.25.072.322.131.515.293.289-.182.408-.478.565-.769l.282-.158c.33.103.548.234.891.103.134-.051.305-.188.419-.265.332.055.285.226.494.282.293.079 2.062-.929 2.41-1.119l-.062-.159c-.782-.112-1.883.625-2.43-.085-.094-.123-.18-.252-.267-.38-.275.214-.408.558-.748.58-.168-.375-.077-.71-.046-1.116l-.129-.024c-.3.323-.593.647-.871.989l-.398-.879c-.547.093-.742 1.36-1.399 1.012a5 5 0 0 1-.207-.152c-.222-.164-.377-.199-.654-.23-.416.139-.864.499-1.262.355-.205-.332-.28-.483-.293-.887.385-1.08 1.444-.95 1.239-2.427m82.879 1.073c-.59.975-1.173 1.78-2.193 2.358l-.214-.048c-.126-.36-.24-.719-.346-1.086-.37-.031-.62.47-1.058.54-.254-.316-.21-.483-.227-.886-.011-.27.01-.163-.136-.41-.479.246-.672 1.164-1.165 1.174-.269-.234-.386-.448-.756-.442l-.444.493c-.232-.091-.257-.129-.408-.315-.507.269-1 1.121-1.802 1.591l.984.7c-.214.498-.607 1.164-.625 1.703.283.222.273.27.624.236.184-.235.355-.449.574-.653.377.449.705.934 1.042 1.413.448-.327.216-.67.916-.576q.261-.24.529-.475c.152.155.246.304.352.492.158-.237.17-.431.202-.71.274-.185.31-.156.645-.133.296.385.036.728.215 1.135l.26-.294c.216.06.38.357.53.28.34-.176.674-.523.968-.774.625.254.794.002 1.258.184l.152.46c.516-.063 1.033-.664 1.412-1.004.085.371.076.768.384 1.004l.109-.015c.331-.042.589-.064.881.14.306.212.572.728.767 1.04l1.253-1.46c.067.4.09.95.364 1.254.431.006.881-.394 1.255-.596q.22 1.01.41 2.027c.439-.198.98-.54 1.468-.454.099.173.137.277.186.465l.324.014.165-.18c.097-.105.204-.244.306-.339.288-.266 1.016-.392 1.401-.506q.261.298.53.588c.368-.174.42-.473.842-.425.2.264.167.506.163.821.205-.15.346-.3.505-.496.335-.003.395.052.673-.156l.15.046.161.5c.951.004 6.32-2.57 6.986-3.3.147-.16.146-.176.237-.337l-.076-.162-.456.238-.186-.09c-.125-.502-.075-.999-.052-1.51-.645.729-1.44 1.588-2.466 1.742-.184.027-.207.014-.365-.01-.28-.343-.084-.98-.363-1.14-.485.457-1.267 1.784-1.927 1.823a1.4 1.4 0 0 1-.181-.54c-.289.024-.403.085-.655.215l-.166-.094c.003-.658.208-1.284.375-1.916-.586.564-1.164 1.172-1.792 1.688.027-.601.038-1.207.118-1.804-.443.574-1.118 1.503-1.849 1.683-.118.029-.173.012-.281-.004l-.213-.281c-.43.12-.398.405-.896.377-.186-.248-.233-.383-.186-.7.085-.583.381-1.186.555-1.752-.286.49-.558 1.13-1.043 1.44-.754.021-.966-.013-1.668.342.153-.65.566-1.827.144-2.43-.071-.103-.163-.166-.259-.24-.637.904-.954 1.886-2.148 2.192-.28-.114-.36-.21-.476-.494-.073-.18-.12-.377-.17-.564l-.16-.082c-.116.13-.537.743-.66.782-.418-.697.352-1.934-.412-2.333-.495.265-.633 1.157-1.025 1.263-.291-.246-.37-.405-.786-.337-.353.057-.821.335-1.154.474.268-.664.652-1.323.327-2.035a.9.9 0 0 0-.257-.33m-15.413 2.638c-.332.524-.601 1.067-1.22 1.256-.184-.058-.51-.229-.682-.131-.27.152-.439.475-.608.726-.342.016-.501-.079-.804-.214-.447.079-.69.38-1.075.497-.8.244-1.37-.334-2.21.317-.145.371-.15.62-.562.77-.046.017-.312.059-.353.066-.345.061-.436.123-.702.353-.36.312-1.505.723-1.599 1.076l.133.16c.324-.066.681-.307.971-.348.284-.04.39.22.634-.032 1.065-1.103 3.584-.8 4.836-1.901.232.123.172.035.24.213l.388.372c.468-.033.756-.477 1.072-.809.342.335.586.594 1.05.734.255-.053.265-.026.464-.217.15-.144.3-.26.474-.373.5.173.805.68 1.312.808.208-.231.227-.347.307-.64.38.005.845.606 1.124.884.154-.356.302-.855.709-.988a.86.86 0 0 1 .808.14c.256.194.411.466.57.738l.684-1.988c-2.908.89-3.078-.232-3.991-.137-.493.052-1.23.538-1.7.75a21 21 0 0 1-.27-2.082m-57.076.138-.3.605a10 10 0 0 1-.513.092c-.25.278-.296.619-.381.972l-.165.098-.378-.239c-.37.172-.528.594-.719.936-.398-.012-.433-.396-.723-.086-.083.089-.18.344-.228.442-.388.034-.516-.334-.81-.067-.123.112-.23.3-.328.439-.527.215-1.184.372-1.41.947-.142.365-.155.876-.2 1.27.303-.341.572-.65.957-.9.206.043.257.106.411.242l.28-.068c.376-.636.47-.638 1.208-.835l.148-.034c.152-.035.08-.01.243-.11l.095-.227.367.121-.13-.159.167.156.084-.08c.71-.67 1.31-.82 2.268-.82.221.18.44.35.675.512.443-.166.425-.714.867-.65.18.173.29.318.525.406.291-.29.855-.712.924-1.125l-.094-.148c-.373.039-.687.137-1.04.26-.299-.256-.333-.537-.459-.904-.365.18-.607.582-.858.902-.087-.493-.148-1.588-.483-1.948m107.411 5.257.153.047zm-46.883.331c-.295.621-.58 1.252-.891 1.865l-.787-1.022a25 25 0 0 1-1.522 1.735c-.066-.572-.115-1.153-.215-1.72-.404.492-.798.992-1.238 1.453l-.31-1.953c-.481.43-1.275 1.328-1.909 1.434l-.233-.329-.208.028-.276.457-.094.012c-.193-.32-.228-.689-.295-1.05-.314.49-.66 1.22-1.257 1.387-.21.06-.334-.034-.53-.105l-.406-.473c-.419.159-.289.866-.72.945-.179-.27-.305-.484-.564-.688-.237.292-.523.75-.876.882-.388-.2-.243-.554-.667-.492-.304.241-.355.405-.47.754-.06.18-.14.334-.235.498-.412.186-.58.2-1.006.046-.168-.06-.333-.129-.497-.196-.203.046-.207.003-.315.157-.302.43-.319 1.174-.34 1.688l.131.241.147.011c.346.03.62.046.936.21.311-.443.31-1.06.73-1.404l.211.035.479.888.029-.328.027.07.023-.122c.069-.346.121-.546.36-.823.281-.011.189-.061.375.108.294.267.48.727.663 1.08.2-.562.356-1.138.743-1.602l.296-.122c.465.23.64.667.885 1.113.488-.391.449-1.01 1.127-1.183.197.27.372.642.688.757.42-.204.647-.866 1.005-.94l.064.133c.379.762.852 1.446 1.331 2.148.296-.687.564-1.391.977-2.017.377.567.744 1.145 1.137 1.701.212-.334.455-.75.819-.94l.183.069.114.362c1.177-.213 1.072-2.042 2.566-1.175.19-.1.335-.207.498-.346l.165.13.053.612.12-.01a3 3 0 0 1 .419.007q.178.362.368.718c.352-.21.044-.487.493-.389.282.063.168.063.409.015l.203-.014c.376.481.513 1.117.696 1.692l.733-1.37c.317.474.626.907 1.017 1.326l.951-.943c.174.375.333.775.553 1.125.327-.418.66-1.066 1.166-1.207l.507.771c.232.357.396.564.756.794l.145.001c.26-.374.51-.85.928-1.059.286.119.32.172.44.483.07.181.096.406.132.599.434-.195.792-.661 1.233-.753.133.278.099.55.089.85l.096.182c.304.02.272.013.49-.171.305-.257.428-.554.816-.682.14.261.067.383.03.67.28-.05.302-.087.522-.247.22-.159.346-.234.61-.279.223-.037 3.3-1.775 3.647-2.041l-.07-.183c-.481-.055-1.13.064-1.546-.159-.152-.267-.29-.525-.5-.752l-.177.078c-.163.424-.168 1.104-.454 1.42-.116-.176-.113-.227-.159-.425-.104-.46-.618-1.43-1.01-1.7-.071-.049-.153-.077-.23-.115l-.11.066c-.275.16-.447.285-.779.246l-.399-.36c-.484.04-1.103.918-1.442.655l-.08-.566-.154-.083c-.35.162-.707.618-1.072.471-.139-.055-.3-.173-.423-.25-.883.107-1.658 1.083-2.57.884-.226-.24-.36-.45-.516-.735l-.124.082-.137.707-.142.056c-.149-.325-.098-.566-.078-.913l-.095-.045q-.672.585-1.356 1.155c.003-.69.03-1.39.007-2.08a40 40 0 0 0-1.383 1.792c.163-.653.603-1.755.256-2.363-.372.1-.516.286-.707.616-.087.15-.166.303-.246.457-.084-.57-.16-1.059-.4-1.59l-.231-.167c-.233.096-.284.197-.417.399-.202.307-.363.4-.687.566l-.12.52-.165.002c-.386-.528-.278-1.296-.755-1.733m.263 4.556.09.064zm-6.156 1.816c-.375.695-.722 1.469-1.175 2.112l-.127-.079-.075-.642-.119-.055a7 7 0 0 0-.533.825c-.422-.04-.255-.396-.701-.226l-.338.486-.178-.005c-.153-.446-.05-.954-.007-1.416-.441.534-1.273 2.066-1.878 2.176-.212-.3-.159-.594-.177-.954l-.122.007-.09.164c-.282.507-.594 1.09-1.187 1.256l-.467-.378c-.233.131-.166.04-.24.312-.138.513-.184 1.714.14 2.168.021.03.05.053.075.079.56-.357.611-1.206 1.381-1.185.369.326.726.713 1.203.864.5-.065.675-.543 1.13-.7.684-.238.31 1.179 1.868-.737.248.608.476 1.238.766 1.827a14 14 0 0 0 1.175-1.654c.852 1.075 1.012 1.928 1.127 3.26.234-.673.475-1.345.68-2.028.236.597.539 1.113.875 1.656.252-.62.6-1.68 1.233-1.969.705.557.53 2.035 1.742 2.019.356-.357.523-.948.968-1.165.357.063.529.191.74.489.164.23.31.469.415.731.17.346.308.689.602.95l.23.027c.448-.487.502-1.163 1.008-1.603.298-.006.5.157.743.309.293-.057.42-.086.584-.374.063-.112.124-.355.162-.474q.068-.2.14-.399c.343.176.684.34.993.575l.193.01.073-.132c.373-.656.584-.804 1.297-1.018.103-.137.203-.27.292-.416.41-.67 1.892-.92 1.786-1.596a2.6 2.6 0 0 0-.574.047c-.255.042-.33.037-.56-.059-.512.146-.963.94-1.37.957-.308-.241-.323-.698-.369-1.067-.031-.256-.015-.653-.17-.847-.143.229-.235.44-.33.69a1.6 1.6 0 0 1-.446.68l-.27.04a4 4 0 0 1-.593-.62c-.182.393-.277.975-.644 1.225-.386-.206-.488-.597-.61-1.002q-.08-.268-.155-.537c-.517.73-1.124 1.32-1.794 1.91l-.276-1.964c-.38.412-.707.762-1.195 1.049l-.16-.07c.001-.36.079-.581-.154-.87-.562-.003-1.162.658-1.577 1.016l-.295-1.536c-.412.524-.949 1.355-1.61 1.537-.205-.168-.16-.07-.192-.325-.065-.492.11-1.097.197-1.585l-.183-.108a6 6 0 0 0-.684.275l-.066-.15c-.131-.291-.214-.573-.491-.755-.342.157-.47.381-.695.67l-.234.031c-.355-.399-.451-1.074-.487-1.596zm-69.47 2.21c-1.28.677-1.597 1.946-2.121 3.216-.125-.444-.181-1.06-.534-1.356a7 7 0 0 0-.523.373 1.3 1.3 0 0 1-.532-.311c-.386.254-.617 1.327-.84 1.8l-.212-.046.138.044c-.018-.4.033-.856-.178-1.197l-.185.09c-.077.306-.149 1.017-.379 1.185a10 10 0 0 1-1.052-.555c-.269.255-.315.523-.43.865l-.166.075q-.246-.328-.483-.662l-.246.01c-.158.29-.118.575-.106.893l-.502.156.015.143c1.036.555.975.897 1.302 1.975.068.221.136.439.215.656.064-.53.075-1.107.322-1.587l.159.004c.228.36.391.715.554 1.108l.293-.022-.122.224q.039-.082.075-.167c.198-.475.153-1.15.195-1.665.38.488.772.972 1.121 1.483.125-.395.205-.809.51-1.106l.202.08c.234.595.326 1.214.438 1.84q.5-1.325.944-2.67c.196.548.36 1.08.701 1.56l.22.086c.382-.469.471-1.911.63-2.553.237.59.426 1.231.87 1.697l.283.091.14-.098a5 5 0 0 1 .462-.284c.414.178.521.428.685.835q.159.397.308.798c.205-.772.385-1.554.69-2.295l.695 1.716.176.118c.167-.754-.004-1.637.014-2.416a50 50 0 0 0 1.675 2.892c.127-.415.23-1.07.582-1.342.214.145.341.32.498.524l.164-.059c.034-.489-.179-1.171.02-1.59.363.109.431.485.771.513.127-.236.234-.469.334-.717.377.284.58 1.191.74 1.647.184-.554.354-1.117.558-1.663l.565 1.622c.292-.346.656-.913 1.078-1.082.265.088.518.168.793.225l.074-.176c-.341-.45-.997-.217-1.12-.773.143-.44.633-1.255.56-1.65-.447.037-1.109 1.016-1.397.834-.018-.324.044-.753-.164-1.002-.213.15-.388.312-.572.496-.322-.268-.208-.784-.528-1.098l-.124.18a2.4 2.4 0 0 1-.374.425c-.175-.149-.286-.315-.422-.5l-.266-.055c-.564.397-.728 1.194-.854 1.833l-.682-1.551c-.273.217-.815.785-1.142.774-.122-.498.082-.969-.154-1.414-.655.231-1.329.788-1.848 1.248-.218-.323-.153-.668-.427-.945-.339.107-.376.28-.532.588-.181.358-.261.685-.624.905-.324-.016-.544-.086-.781-.333-.302-.314-.197-.848-.148-1.24.065-.52.166-1.011.099-1.535zm39.865 4.066-.987 1.002c-.22-.13-.275-.251-.41-.463l-.18-.033-.316.278c-.389-.156-.223-.475-.615-.572-.165.357-.232.949-.522 1.203l-.18-.04c-.256-.49-.357-1.018-.485-1.552-.208.435-.401.88-.665 1.284-.742.255-.942.257-1.297.975l-.068.139-.205.031c-.349-.405-.446-.966-.59-1.471l-.634.64-.216-.012a9 9 0 0 1-.52-.754c-.196.123-.209.073-.255.274-.113.478.349 1.463.068 1.762-.432-.162-.406-.604-.864-.575l-.219.274c-.451-.05-.846-.503-1.183-.79.213.447.445.82.375 1.328-.344-.238-.514-1.36-.862-1.31.03.266.082.51.15.768l-.19.099c-.267-.163-.705-.617-.992-.627.002.345.031.659.082 1-.634-.038-1.672-1.115-2.166-1.527.13.513.58 1.54.452 1.99-.44.023-.853-.322-1.173-.614-.308-.281-.524-.66-.804-.97-.76.54-.562 2.14-1.361 2.294-.03-.433.125-1.18-.106-1.52-.365.102-.567.503-.779.796-.302-.727-.523-1.414-1.182-1.898l-.233.04c-.485.818-.264 1.699-.257 2.6l-1.144-2.025.09 1.196-.146.085-.513-.343c-.233.487-.047 1.143-.365 1.535-.258-.082-.449-.22-.673-.368l-.216.057c-.101.293-.19.55-.368.808l-.167-.054c-.16-.471-.279-1.053-.669-1.385l-.215.037c-.225.325-.298.508-.661.678-.845-.202-1.134-1.053-1.89-1.385-.279.311-.24.766-.216 1.16.026.42.066.839.14 1.254-.44-.521-.87-1.06-1.331-1.56l.16 1.99-1.477-1.335c.121.69.26 1.381.339 2.078-.868-.865-1.596-1.338-2.742-1.772.2.466.643 1.235.455 1.74-.014.04-.038.075-.057.112-.798.093-2.534-1.437-3.227-1.905q.064 1.1.084 2.203c-.248.083-.144.098-.37-.007-.352-.166-1.037-1.031-1.302-1.035q.034.353.058.706c-.358-.007-.382-.404-.665-.159l.042.407c-.562-.007-1.357-.94-1.754-1.334.17.715.33 1.435.522 2.145-.69-.66-1.354-1.35-2.05-2.002.325.832.857 1.724 1.026 2.59-.18.055-.095.06-.3-.053-.46-.255-.866-.813-1.22-1.195.218.476.797 1.343.767 1.813-.46.097-1.103-.187-1.552-.32.208.827.544 2.213 1.345 2.661.177.1.13.066.346.007.11-.242.203-.892.412-.978.775.657 1.351 1.691 1.918 2.532a51 51 0 0 0-1.02-2.491c.69.505 1.424.993 2.033 1.595-.07-.499-.134-.999-.232-1.493.492.391.927.76 1.327 1.25l.378.112c.166-.301.261-1.18.488-1.344.109.199.18.37.255.583l.199.052c.249-.269.349-.518.476-.853.242.088.332.218.505.401l.104-.123c-.04-.237-.111-.483-.065-.72.227.226.395.51.721.535.383-.582.058-1.674.783-1.827.358.174.677.363 1.007.586l.083-.074c-.01-.376-.09-.892.12-1.213.522.12 1.381.945 1.892 1.276-.098-.435-.298-.995-.213-1.436.26.163.474.355.7.56l.124-.056-.094-.678.129-.138c.303.116.459.26.693.475.182-.232.234-.427.323-.702.744.255 1.409 1.264 2.047 1.764-.29-.623-.606-1.243-.827-1.895.418.345.793.777 1.354.766l.176-.278c.389.21.632.552.91.885q.202-.61.424-1.213c.252.134.455.29.68.462.195-.291.147-.713.17-1.062.212.17.395.35.582.548l.17-.015c.058-.4.051-.753.306-1.078.444.092 1.094 1.152 1.4 1.539-.047-.615-.152-1.16.028-1.758l.205-.121c.804.332 1.528 1.564 2.275 2.123-.284-.572-.777-1.26-.838-1.896.134-.301.418-.484.667-.688.838.636 1.535 1.457 2.333 2.15l-.031-1.647h.195c.13.16.223.37.43.406.189.032.122.02.316.078.2.059.104.044.317.043q.03-.483.087-.964l.19-.004c.362.355.704.997 1.137 1.194.261-.59-.032-1.34-.195-1.937 1.225 1.605 1.814 1.413 3 2.638.073-.458.101-1.21.411-1.564.22.291.448.708.798.843.184-.438-.113-1.266.142-1.55.422.376.699.873 1.004 1.344.01-.718-.065-1.996.383-2.583.267.087.276.184.436.404.498-.382.44-1.233 1.176-1.283l.113.174c.107.16.211.3.336.446l.18-.002.193-.253.598.163c.228-.281.365-.621.52-.946l.125.14c.636.717.911 1.199.835 2.18a.86.86 0 0 1-.154.433l-.297.128c-.54-.27-.468-1.015-1.076-.849-.287.377-.352.763-.286 1.227.032.232.09.39.226.584l.175.024.121-.386c.256.111.129.036.371.24q.263-.08.524-.166c.56-.177.845.218 1.307.202.468-.017.287-.488.734-.383.145.152.439.571.645.564.31-.011.614-.233.878-.382.62.046 1.457.666 1.806.597.233-.378.308-.782.41-1.21-.174-.607-.388-1.154-.236-1.787.076-.32.116-.522.019-.848l-.431-.082c.595.01 1.006.241 1.435.647.28.265.354.616.341.987-.033.931-.79 1.988-.674 2.859.871.42 2.697.422 3.689.54.476-.361.356-1.19 1-1.241.304.445.162.99.51 1.39.371-.061.51-.4.77-.452.228-.045.912.522 1.369.485.191-.422.086-.784.005-1.234-.04-.22-.05-.344.036-.558.503.116.831.547 1.096.973q.105.168.204.34c.372.11.744.268 1.134.19.258-.369-.12-.563.279-.858.25.066.29.066.425.305.204.36.204.875.536 1.114.885-.278 1.13-1.523 1.788-1.778.308.393.102 1.247.422 1.479.776-.285 1.193-1.133 1.627-1.79.295.633.577 1.282.9 1.901.047-.593.012-1.752.374-2.202.448.245.894 1.375 1.11 1.841.56-.377.882-.666 1.21-1.254.233.612.465 1.219.74 1.814.101-.286.105-.53.383-.67l.071.175a7 7 0 0 0 .27.565l.234-.04c.25-.376.251-.944.605-1.174.354.255.222 1.407.74 1.343.295-.037.554-.238.8-.392l.188.055c.175.419.18.55.574.798.649.062.908-.503 1.447-.612.846-.17 2.58 1.243 3.288.672.343-.276.453-.668.87-.822.3.109.52.213.825.043.255-.143.49-.371.716-.557l.164-.134.097-.081c-.047-1.054-.146-2.035-.401-3.06-.128.546-.29 1.92-.648 2.286l-.404-.365c-.44.058-.44.526-.812.292-.11-.07-.27-.28-.352-.369-.39.142-.665.765-.975.767.015-.334.044-.656-.03-.985-.419.168-.67.487-1.124.516-.145-.267-.127-.523-.13-.817l-.153-.121c-.427.34-.706 1.022-1.204 1.21l-.082-.037c.005-.357.089-.745-.103-1.05-.574.182-.817.789-1.378.995-.228-.203-.225-.216-.245-.51-.052-.77.335-1.77.536-2.511-.482.635-.947 1.291-1.484 1.881l-.038-2.476c-.208.194-.724.783-.975.797l-.167-.511-.138-.013c-.174.344-.377.923-.73 1.087-.297-.224-.131-.583-.42-.69l-.441.38-.148-.076c.091-.357.272-.74.125-1.082-.33.055-.552.35-.781.575l-.144-.046-.034-.113c-.087-.279-.137-.475-.364-.676l-.181.04-.261.417-.15.02c-.507-.556-.436-1.521-.91-1.928-.485.112-.765.529-1.068.895-.114-.357-.21-.901-.52-1.121-.345.067-.555.376-.785.623q-.592-.155-1.187-.301c.13.588.375 1.28.254 1.877l-.168.055c-.618-.866-1.023-1.548-1.834-2.287.189.693.789 2.119.514 2.762-.013.031-.035.059-.053.088-.712-.353-1.24-1.895-1.625-2.593-.037.725-.046 1.462-.145 2.18-.398-.655-.941-1.63-1.649-1.97-.293.093-.402.206-.542.487-.297.594-.48 1.141-.85 1.711q-.364-1.24-.78-2.464l-1.074 1.827c-.05-.921-.113-1.633-.501-2.484-.256.351-.554.906-.966 1.072-.204-.25-.207-.42-.26-.728l-.152-.007-.317.51-.182-.004c-.282-.355-.545-.71-.79-1.093-.175.413-.315.862-.675 1.15-.388-.036-.517-.193-.758-.487q-.132-.163-.258-.33c-.324.43-.71 1.005-1.308 1.047-.205.014-.497-.107-.618-.274-.2-.279-.285-.636-.39-.96l-.756 1.714c-.123-.465-.275-1.502-.644-1.753m-48.838.634c.112.837.207 1.558.738 2.25.123.058.186.114.324.099.073-.587.25-1.23-.115-1.748-.192-.272-.654-.453-.947-.601m44.277 3.943c.04.416.035.798.29 1.148.195.106.253.15.481.148.002-.416.04-.72-.232-1.066a2.8 2.8 0 0 0-.539-.23m-30.14 1.894h.12zm84.404.125h.216zm-50.572 24.89c.08.68.184 1.37.235 2.053-.772-.383-1.54-.79-2.323-1.147.157.344.484.858.446 1.221-.357.066-.46.105-.785-.106-.517-.336-.609-1.146-1.334-1.052-.103.014-.206.08-.295.13a1.8 1.8 0 0 0-.064.48l-.19.053c-.29-.215-.57-.435-.85-.664l-.182.047c-.233.544.032 1.345-.242 1.773-.373-.395-.758-.952-1.29-1.11l-.2.103c.021.512.297 1 .5 1.463-.486-.347-.934-.613-1.209-1.159a9 9 0 0 0-.787-1.328l-.166.066c-.111.431-.107.562.003 1.001.044.173.065.365.094.54-.528-.547-1.361-1.657-2.112-1.782-.087.324.748 2.682.866 3.259a12 12 0 0 1-.782-1.408l-.24-.165c-.173.137-.222.183-.331.385l-.116-.597c-.181.313-.153.74-.08 1.086q.017.068.036.135c-.264.114-.306.1-.594.052-.543-.507-1.052-.952-1.706-1.315.266.742.516 1.474.9 2.164l-.01.204c-.72-.32-1.037-1.606-2.08-2.026l-.106.085.079.55-.12.001c-.24-.288-.463-.657-.81-.795-.193.461-.01.941-.076 1.435-.57-.168-1.331-1.198-1.894-1.593l.088.173c.403.8.949 2.489.574 3.35-.187.43-.45.007-.397.501l.116.084-.136-.182.077.163c.632-.1.952-.546 1.308-1.03q.155-.213.305-.428c.296.452.91 1.659 1.428 1.745.982.165 2.49-1.175 3.247-.35.252.239.328.343.672.429q.038-.064.08-.127c.132-.194.077-.125.291-.276.337.094.477.35.673.616l.279.092.186-.112.065-.629.169-.093c.686.242 1.064.966 1.728 1.16.009-.213.007-.428.016-.64.01-.267.072-.387.202-.61.289-.126.453-.153.76-.044.405.143.823.507 1.169.758.297-.353.644-.894 1.081-1.061l.365.344c.187-.43.128-1 .44-1.346.547.167 1.273 1.479 1.738 1.931.012-.559-.03-1.142.185-1.665l.212-.136c.4.27.727.629 1.067.968.24-.214.246-.528.3-.829l.183-.105c.347.207.539.486.777.802.123-.45.023-.788.303-1.176l.316-.076c.323.422.466.925.918 1.232l.295.013c.085-.39-.108-.75.052-1.113.414.027.864.603 1.161.897.255-.428.12-.77.497-1.119.34.09.444.454.728.461l.302-.42.167-.002q.245.852.454 1.713c.092-.591.157-1.156.41-1.705.28.1.387.523.512.792l.075.169c.25.55.58.848 1.056 1.202-.074-.633-.18-1.279-.193-1.916l.077-.147c.571-1.059 1.47-1.945 1.985-3.011l-.064-.11c-.288.085-.46.248-.689.434-.362-.253-.645-.548-.949-.868-.238.366-.464.753-.724 1.103q-.691-.572-1.394-1.131c-.232.392.048.839-.217 1.171-.466-.194-.909-.704-1.378-.705a5 5 0 0 1-.445.71c-.962-.08-1.425-1.295-2.43-.846a2.7 2.7 0 0 0-.35.688c-.701-.181-1.311-1.258-1.908-1.733m-14.159 1.802.099.136.096-.025zM17.22 228.563h.216zm114.598 3.37c-.115.794-.342 2.392.115 3.115.093.148.103.142.22.235l.224-.033c.039-.213.031-.511.2-.648.129.431.264.842.444 1.255l.369.047c.086-.167.1-.281.136-.465.065-.336.148-.678.32-.977.44-.564 1-1.115 1.06-1.859l-.106-.131c-.26.143-.503.278-.785.377-.181-.232-.186-.37-.251-.656l-.142-.014c-.25.33-.488.673-.779.97-.312-.478-.567-.858-1.025-1.216"/><path d="m78.218 121.861-.213-.116c.166-.235.055-.166.323-.222l.227.078zm0 0 .282.807.108.043c.162-.366.275-.871.59-1.111.33.05.521.284.754.503.308.042.564-.12.836-.245l.233.084c.082.268.113.448.09.727-.359.588-.602 1.097-1.326 1.278a.93.93 0 0 1-.763-.129c-.585-.364-.67-.928-.76-1.56-.02-.132-.031-.264-.044-.397m2.324 2.063c.32-.534.599-.192 1.136-.539l.019.243-.198.215c-.365.114-.576.119-.957.08m96.227 25.237-.114.064-.009-.282.187-.043zm-123.51 20.002-.119.093-.125-.064.07-.395.225.02zm41.888 4.028c-.07-.043-.146-.076-.209-.129-.307-.254-.629-.698-.687-1.077.395-.685.574-.347 1.126-.613.088.05.199.103.265.182.191.23.21.389.19.663l-.217.154a3 3 0 0 0-.572-.184zm-.462.478a1.6 1.6 0 0 1-.532-.326c-.286-.286-.297-.748-.334-1.127q.131.095.252.2c.44.377.561.686.614 1.253m50.815.457.101-.124zm-.136.143.136-.143zm-26.779 1.424-.206-.002-.034-.481.209.09zm.649-.139-.137-.054.002-.308.126.059zm-54.179 2.403a2 2 0 0 1-.195-.154c-.376-.352-.436-.758-.468-1.25.238.088.38.196.573.36.177.383.138.642.09 1.043m5.695-.117c-.09-.296-.122-.314-.006-.596l.586-.237c.003.031.012.063.008.094-.036.332-.352.543-.588.74m146.355 6.842 1.491-.701c.055.05.117.095.166.151.395.449.795 1.142.732 1.73-.332.157-.565.023-.912-.057a7.8 7.8 0 0 1-1.477-1.123m-132.397-.401-.102-.041zm127.42 4.749c2.167-.632 4.2-.948 6.444-1.101.678-.069 1.401-.04 2.085-.053q.975 2.02 1.889 4.067-2.55-.658-5.128-1.19c-1.856-.399-3.618-.798-5.29-1.723m-4.872 4.047c1.76-.573 3.632-.653 5.466-.772 3.44-.155 6.751.109 10.166.498.928 1.355 1.623 2.888 2.362 4.35q-2.171-.449-4.326-.968c-1.733-.315-3.45-.707-5.184-1.022-2.76-.5-6.037-.626-8.484-2.086m-74.86.788c.2-.464.445-.862.721-1.284.207.222.466.557.713.725.38.26 1.097-.243 1.545-.275.313.33.351.707.338 1.152-.014.441-.071.795-.401 1.1l-.152-.065c-.161-.355-.3-.712-.434-1.077l-.139-.025a3 3 0 0 1-.375.605l-.249-.013c-.348-.356-.54-.802-.763-1.242-.054.51-.164 1-.413 1.45-.363-.016-.373-.602-.69-.851-.148.38-.208.879-.506 1.151-.082-.078-.118-.102-.172-.218-.204-.443-.275-1.262-.11-1.726.075-.212.063-.148.292-.27.424.203.534.478.795.863m71.744 3.906c1.677-.694 3.493-.835 5.285-.968 4.804-.252 11.97.233 16.508 1.795.9 1.41 1.63 3.001 2.409 4.484q-1.807-.607-3.649-1.097-4.844-1.276-9.797-2.03c-3.618-.576-7.4-.594-10.756-2.183m21.892 9.619c-4.936-1.428-10.187-2.397-15.286-3.014-2.494-.302-5.07-.363-7.54-.79-.718-.124-1.848-.296-2.431-.725l.085-.205c1.658-1.022 5.209-1.02 7.191-1.101 7.003-.313 14.347 1.065 21.048 2.988q1.205 2.395 2.475 4.757c-1.804-.754-3.67-1.352-5.543-1.91m-96.137-.29c-.05 1.41-.044 4.216-.343 5.454-.05.208-.154.286-.359.373-.319.133-.584.096-.9-.001-.131-.158-.105-.082-.107-.343-.014-1.415.255-2.913.373-4.327.1-1.22.08-2.45.143-3.674.305.002.746-.034 1.026.095 1.095.505 2.646 4.403 3.221 5.608.104-1.205.087-4.391.37-5.305l.236-.12c.373.004.673-.02 1.003.184.189.861-.23 7.205-.552 8.121l-.29.073c-.2-.027-.476-.039-.66-.115-.059-.024-.208-.113-.252-.182-.398-.614-.668-1.49-.986-2.163q-.89-1.877-1.923-3.678m-7.201 6.098c-.015-1.037-.472-7.96-.423-8.089.38-.267.84-.268 1.288-.316.235-.03.479-.03.715-.035.853-.018 1.665.189 2.28.82.392.403.637.947.603 1.516-.054.888-.538 1.336-1.186 1.876a74 74 0 0 0 2.064 3.92l-1.682.02q-.342-.844-.71-1.676l-.265-.497c-.09-.17-.176-.343-.275-.507-.195-.325-.402-.543-.773-.626l-.2.209c-.256 1.057-.096 2.224-.04 3.3zm1.042-7.22c.007.62-.146 1.842.306 2.315.135.141.303.172.496.159.265-.017.606-.163.861-.25.25-.368.466-.703.36-1.176-.087-.39-.408-.638-.744-.811-.404-.21-.834-.225-1.279-.237m-7.197-.421a63 63 0 0 1 3.894-.5l.136-.015c.3.155.287.137.395.456-.044.198-.04.408-.196.552-.286.265-.705.358-1.085.364-.55.01-1.092.09-1.637.158.037.712.16 1.408.275 2.11.71-.078 1.569-.318 2.273-.168.331.07.588.137.773.431-.038.064-.066.137-.116.192-.607.662-1.991.698-2.814.809.1.742.226 1.483.34 2.223 1.035-.048 2.071-.213 3.099-.34.103.052.17.146.25.229.025.4.042.722-.067 1.11-1.25.477-3.126.462-4.488.623-.275-2.756-.765-5.482-1.032-8.234m18.634 5.893c.708.376 1.923 1.205 2.752.89.237-.09.529-.339.601-.584.333-1.115-2.197-2.79-2.685-3.853-.193-.42-.301-.874-.097-1.313.308-.663 1.125-1.09 1.78-1.322.684-.048 1.415-.006 2.067.223.405.142.54.312.712.694-.078.379-.097.403-.377.672-.582.104-.856-.202-1.407-.3-.395-.07-.733.038-1.054.265-.813 1.473 2.382 2.373 2.618 4.384.06.51-.144.95-.47 1.332-.758.89-1.347 1.151-2.48 1.238-.853-.181-1.696-.428-2.537-.652zm-24.356-4.562c.355 1.52.805 4.783 1.694 5.95.225.295.537.546.924.558a1.34 1.34 0 0 0 .897-.362c1.414-1.463-.735-5.028-.54-6.798.025-.222.181-.254.35-.375l.73.023c.144.117.189.195.25.373.651 1.9 1.554 5.46.571 7.285-.308.572-.78 1.04-1.422 1.21-.695.183-1.562.022-2.163-.365-1.489-.957-1.856-3.995-2.255-5.608l-.36-1.52z"/><path d="M236.368 226.903c-1.016-.77-4.736-1.959-6.071-2.434-8.371-2.977-16.882-4.721-25.715-5.581q-3.169-.304-6.348-.454c-1.3-.073-2.655-.078-3.938-.3-.605-.104-1.46-.276-1.834-.8.126-.113.128-.125.3-.222 1.48-.837 5.168-1.116 6.881-1.21 12.315-.678 23.654 1.478 35.344 5.148l.137.066-.137-.066-.116-.065c-1.57-.85-3.41-1.428-5.095-2.01q-2.661-.927-5.374-1.695-2.712-.767-5.465-1.372-2.753-.604-5.537-1.044-2.785-.44-5.59-.714c-3.26-.35-6.596-.387-9.83-.89-.732-.114-2.176-.32-2.574-.972.591-.744 3.301-.97 4.255-1.081 8.296-.968 17.999.35 26.111 2.133q2.386.517 4.743 1.151c1.103.307 2.144.714 3.285.869l.042-.059c-10.11-4.266-19.79-5.658-30.597-6.704-1.122-.108-3.683-.175-4.403-1.112.123-.312.269-.382.582-.502 1.193-.457 2.652-.577 3.912-.702 8.006-.793 21.013.98 28.542 3.728 2.923 5.117 5.62 10.555 8.24 15.836 1.595 3.215 3.268 6.402 4.773 9.66 1.483 3.209 2.75 6.512 4.238 9.718-3.479-2.083-6.886-4.208-10.514-6.038q-2.165-1.068-4.377-2.036-2.211-.967-4.464-1.833-2.254-.865-4.545-1.626t-4.614-1.417-4.674-1.204q-2.351-.55-4.725-.99t-4.764-.772q-2.391-.331-4.795-.553-3.936-.383-7.89-.444c-3-.07-6.095.092-9.014-.71 9.962-4.38 30.579-1.518 40.866 1.311q3.827 1.071 7.562 2.427c1.525.54 3.103 1.215 4.674 1.587l.144.073-.143-.073c-1.479-.847-3.31-1.408-4.9-2.036-9.025-3.566-18.437-6.064-28.118-6.955-2.223-.205-15.37-.592-16.326-1.239-.176-.119-.122-.088-.147-.316.104-.09.12-.111.26-.184 1.107-.575 2.73-.738 3.965-.937 9.436-1.523 20.841-.472 30.117 1.682 2.437.566 4.881 1.169 7.267 1.927 2.071.659 4.156 1.5 6.266 2.006zl.355.158.151.05-.151-.05zm-1.085-5.715h.153zm1.75 6h.153zm-96.874-13.124c.547-2.67 1.145-5.292 1.842-7.927q2.131.425 4.198 1.098l-.262 1.289c-.971-.267-1.954-.499-2.93-.746q-.213.977-.453 1.947c.77.138 1.746.203 2.366.713.228.187.298.284.328.585-.077.093-.086.116-.206.187-.775.459-1.92.044-2.713-.151l-.234 1.129c-.039.115-.114.33-.135.445-.21 1.14 2.162.743 2.758 1.487.072.378-.023.617-.147.967-.886.29-3.493-.676-4.412-1.023m7.289-1.084c-.478-1.858-.647-3.816-.857-5.72.438.203.877.324 1.342.45l.495 3.834c.9-.898 1.755-1.806 2.583-2.77.559.079 1.1.234 1.647.375l-2.75 2.785c-.417.432-.85.843-1.288 1.254l-.933 3.05-1.366-.508c.298-.986.615-1.852 1.127-2.75m-36.998 1.81c-.735.566-1.541 1.026-2.431 1.304-1.058.33-2.143.343-3.124-.22-1.03-.593-1.744-1.661-1.998-2.812-.233-1.062-.059-2.183.565-3.083.992-1.43 2.689-1.868 4.292-2.198.127.027.037 0 .23.16.105.37.19.616.07 1-.502.322-1.16.4-1.732.546-.816.207-1.419.602-1.837 1.349-.36.64-.403 1.38-.165 2.071.254.737.813 1.395 1.517 1.737 1.058.513 1.885.202 2.912-.171-.191-.655-.463-1.291-.707-1.928-.272.127-.64.337-.935.367-.331.033-.417-.041-.62-.26-.004-.122-.017-.217.026-.34.141-.404.601-.79.953-1.006.5-.305.949-.34 1.505-.204.331.273.316.46.42.869.202.961.677 1.917 1.06 2.82m-17.843-3.854.115-.055zm70.419 1.384-.151-.053zm-70.237.131.08-.052zm2.335.173c.218-.15.22-.189.498-.2-.184.208-.234.161-.498.2m-.355.177.355-.177zm-.195.11.196-.11zm-.231.148.231-.148zm67.421.15-.121-.067zm-.192 1.145-.072-.073zm-67.893.611.07-.062zm66.654 1.869-.078-.058zm-1.067 1.113-.141-.063zm-.454.881-.187-.05zm0 0 .18.18zm.18.181.078.07zm-2.416 3.329-.076-.056zm-56.969.218.131-.056zm1.604.643.157-.051zm54.188-.005-.15-.052zm-31.451 21.002.175.024z"/></svg>