<svg xmlns="http://www.w3.org/2000/svg" viewBox="0 0 256 256"><path d="M126.075 0h3.382c3.151 1.004 6.464 1.725 9.663 2.579l20.402 5.408 22.264 5.952c3.52.928 7.04 1.933 10.594 2.726 2.382 2.42 4.904 4.697 7.309 7.094l40.72 40.437c1.054 5.207 2.512 10.366 3.808 15.52l6.24 24.857 3.745 15.035c.588 2.398 1.036 4.97 1.798 7.312v3.146c-1.643 5.086-2.662 10.458-3.995 15.642l-8.36 32.572c-.47 1.86-2.839 11.982-3.408 12.875-.628.984-1.823 1.91-2.672 2.738l-5.114 5.001c-7.395 7.268-14.745 14.601-22.229 21.777l-14.49 14.024c-1.057 1.017-3.74 4.007-4.836 4.521-.087.04-.167.063-.259.095l-.236.084c-2.283.799-4.717 1.327-7.059 1.942l-12.105 3.156-34.59 8.984c-3 .796-6.034 1.473-9.021 2.305l-64-16.537a2.1 2.1 0 0 1-.859-.434c-1.402-1.113-2.664-2.531-3.934-3.798l-6.866-6.855-26.937-26.765c-1.283-1.266-9.246-8.829-9.815-9.794-.61-1.036-2.609-9.812-3.126-11.821L0 131.235v-7.065c1.231-5.965 2.86-11.88 4.371-17.783l6.361-25.021 2.796-10.802c.347-1.353 1.071-5.272 1.73-6.287.805-1.244 4.107-4.177 5.427-5.474l14.826-14.531 19.763-19.606 5.065-4.988c.847-.849 1.882-2.205 2.901-2.817.893-.536 11.82-3.206 13.843-3.747l30.073-8.09C113.458 3.345 119.81 1.806 126.075 0m1.124 6.388L84.567 17.862c-2.568.689-16.796 4.098-18.075 4.945-1.038.688-2.004 1.874-2.889 2.76l-5.577 5.59-18.235 18.087L26.715 62.2c-1.35 1.335-4.767 4.36-5.643 5.796-.624 1.024-1.326 4.993-1.702 6.475q-2.08 8.293-4.255 16.56l-5.96 22.898-2.305 8.817c-.396 1.492-1.105 3.312-1.182 4.836-.067 1.318 3.374 13.868 3.939 16.065l7.198 28.397q2.075 7.917 4.027 15.865c.1.424.558.819.859 1.124q15.753 15.77 31.714 31.33l8.24 8.1c1.08 1.072 3.694 4.033 4.861 4.684.172.097.354.137.54.192 4.364 1.295 8.81 2.279 13.223 3.39l18.797 4.835 17.928 4.6c3.18.801 6.384 1.69 9.6 2.321.61.12 1.203.21 1.823.12 5.11-1.216 10.18-2.644 15.266-3.968l24.182-6.276 12.5-3.26c2.4-.626 4.937-1.167 7.255-2.047l.158-.057c.424-.168.814-.546 1.149-.85 1.969-1.793 3.822-3.718 5.734-5.57l12.123-11.714 14.655-14.18q4.902-4.66 9.7-9.425c.9-.911 2.363-2.125 2.868-3.315 1.031-2.43 1.65-5.722 2.342-8.305q2.436-9.041 4.753-18.114l5.302-19.79c1.213-4.396 2.565-8.813 3.538-13.265.22-1.01-3.245-13.425-3.72-15.23l-8.892-34.066c-.476-1.835-2.5-10.553-3.041-11.444-.665-1.093-2.066-2.218-2.983-3.142l-7.18-7.198q-13.129-13.216-26.42-26.27c-2.604-2.558-5.09-5.271-7.733-7.782-.38-.361-.7-.62-1.21-.77-7.359-2.159-14.877-3.906-22.291-5.887l-25.693-6.873c-2.279-.61-12.029-3.539-13.58-3.42"/><path d="M128.528 247.029c-.578.124-1.028.095-1.602-.019-4.536-.893-9.04-2.147-13.524-3.28l-21.962-5.624-14.25-3.705c-2.848-.712-5.776-1.274-8.579-2.137-.85-.262-1.424-.499-2.095-1.095-4.14-3.675-7.886-7.87-11.828-11.759L30.6 195.675c-1.821-1.804-7.634-6.794-8.48-8.58-.413-.873-.577-2.095-.808-3.037l-1.66-6.72q-5.248-20.055-10.204-40.185c-.404-1.648-2.305-8.147-2.31-9.298-.004-.757.27-1.633.453-2.362l11.226-43.039q1.199-4.584 2.323-9.187c.337-1.34.601-3.053 1.174-4.295.5-1.089 5.515-5.705 6.784-6.973l22.766-22.568c4.645-4.61 9.174-9.358 13.934-13.853.617-.583 1.465-1.585 2.278-1.822 9.19-2.668 18.528-4.955 27.774-7.43l21.29-5.676c3.354-.903 6.689-1.902 10.054-2.758.453-.057.829-.008 1.271.098 6.169 1.486 12.3 3.306 18.425 4.974l25.704 6.868 10.863 2.87c1.397.37 3.897.808 5.084 1.484.867.494 2.472 2.372 3.261 3.158q5.228 5.182 10.374 10.447c1.68 1.689 3.437 3.3 5.13 4.976 8.457 8.378 16.963 16.747 25.295 25.247.232.237.462.482.595.79.527 1.22.918 3.817 1.29 5.233 1.332 5.088 2.712 10.157 3.991 15.258q4.877 19.439 10.143 38.775c-.377 1.192-.642 2.437-.983 3.643q-1.854 6.578-3.556 13.198l-7.05 26.483-2.737 10.555c-.415 1.58-.915 4.04-1.602 5.47-.501 1.043-2.036 2.311-2.875 3.145-5.284 5.254-10.763 10.34-16.133 15.508-5.19 4.997-10.285 10.092-15.515 15.047q-3.388 3.205-6.717 6.471c-1.28 1.27-2.585 2.83-4.026 3.91-.172.13-.314.226-.523.28zM111.674 13.962c-3.146.707-6.268 1.64-9.386 2.47q-8.061 2.06-16.068 4.323 1.59.46 3.19.894c4.064.907 8.249 1.647 12.241 2.825 2.054-2.384 4.229-4.614 6.446-6.844 1.179-1.187 2.528-2.376 3.577-3.668l.06-.057zM38.6 201.366q4.905 4.707 9.711 9.515c2.032 2.022 4.051 4.178 6.224 6.045l.059.052-.059-.052c-.351-1.727-.928-3.454-1.414-5.149q-1.318-4.483-2.517-9-3.047-.213-6.062-.701c-1.943-.296-3.976-.722-5.942-.71m88.244-190.73c-4.008 1.773-7.457 5.115-9.085 9.237-.122.31-.258.567-.135.89.009.022.029.037.043.056 3.709-1.32 7.021-4.853 8.698-8.359.224-.47.58-1.242.544-1.758zm1.665.02c.135.656.277 1.26.587 1.863 1.344 2.621 5.002 5.698 7.47 7.34.501.334 1.019.662 1.598.84-.915-3.617-4.305-7.12-7.428-9.005-.692-.418-1.456-.795-2.227-1.039m15.94 3.407c3.691 3.487 7.078 7.229 10.697 10.782q5.294-1.441 10.628-2.725l2.734-.55-.46-1.388c-4.697-1.427-9.505-2.541-14.253-3.785-3.064-.803-6.218-1.876-9.346-2.334m-17.217 5.717c-3.412.799-6.79 1.807-10.173 2.726l-19.365 5.237-17.603 4.664c-1.725.452-6.193 1.199-7.522 2.025-1.503.934-2.893 2.662-4.186 3.907l-9.862 9.572c-3.823 3.784-7.76 7.453-11.614 11.207q-7.163 7.088-14.443 14.057c-.878 4.798-2.435 9.669-3.662 14.401l-7.258 27.783c-.703 2.61-3.314 10.775-3.287 12.769.025 1.825.922 3.983 1.395 5.753q.866 3.35 1.695 6.71 4.924 20.017 10.111 39.966l25.3 24.956q5.942 6.044 12.008 11.966c1.028 1.009 2.707 3.028 3.915 3.71.932.525 5.494 1.39 6.865 1.721l20.476 4.95q9.508 2.428 19.054 4.7c2.766.68 6.145 1.763 8.903 2.142 4.132-.71 8.995-2.305 13.105-3.403l23.769-6.285c3.87-1.024 7.768-1.939 11.644-2.938 1.903-.491 4.239-.85 5.978-1.79 1.699-.92 5.618-5.134 7.229-6.703l14.51-14.136c2.03-1.965 4.142-3.842 6.175-5.801 2.637-2.542 5.207-5.167 7.808-7.747 1.667-1.652 3.7-3.284 5.09-5.158.772-1.043 6.536-24.883 7.231-27.549l3.57-13.577c.935-3.478 1.949-6.971 2.72-10.489.134-.607.228-1.132.117-1.749-.629-3.516-1.758-7.038-2.662-10.498-1.324-5.07-2.529-10.18-3.784-15.27q-2.387-9.876-4.892-19.724c-.513-2.067-.953-5.471-1.86-7.23-.299-.578-9.974-9.93-11.32-11.242Q202.156 53.35 192.038 43.15l-5.864-5.873c-.99-.98-2.03-2.173-3.18-2.959-1.262-.861-8.431-2.333-10.421-2.869l-21.192-5.599c-7.434-2.001-14.867-4.11-22.366-5.851-.584-.136-1.182-.293-1.783-.218m-58.096 5.578c.32.478.638.993 1.087 1.36 1.915 1.568 6.023 3.047 8.467 3.552 1.296.268 2.32-.158 3.537-.555l.457-.19.008-.184c-1.254-1.306-7.49-3.012-9.467-3.423-1.35-.28-2.717-.442-4.09-.56m117.313.196c-5.81.288-8.613 1.521-13.9 3.426.422.228.841.47 1.273.68 2.735 1.034 7.03-.501 9.558-1.639 1.095-.492 2.451-1.378 3.276-2.265l-.001-.191zm-119.022.519a10.7 10.7 0 0 0-1.358 2.545c-.815 2.179-2.263 8.916-2.44 11.326l.12.135.1-.051c1.08-1.015 2.187-2.013 3.243-3.053.376-1.999 1.461-9.39.444-10.801-.029-.04-.073-.067-.109-.101m120.836.263c-.63 3.585-.007 9.46 2.114 12.47.366.519.846.991 1.281 1.456.092-2.557.18-5.728-.487-8.201-.285-1.058-.792-2.087-1.28-3.064-.448-.894-.962-1.858-1.6-2.633q-.013-.015-.028-.028M55.082 38.852c-1.274 1.274-16.248 16.105-16.348 16.327l.013.043q6.374-1.11 12.682-2.545c.526-1.763 3.817-12.745 3.653-13.825m145.517.255c1.426 4.914 3.263 9.729 4.56 14.685 4.113.389 8.157.904 12.227 1.604q-5.556-5.606-11.26-11.062c-1.753-1.705-3.548-3.805-5.527-5.228m17.091 25.777q1.774 1.61 3.432 3.34c2.926.49 6.078.806 9.046.655-.947-.74-1.893-1.531-2.979-2.06-2.31-1.127-6.877-1.552-9.499-1.935m-182.178.69c-4.337.467-6.837.148-10.331 3.238.65.026 1.305.064 1.956.06 2.262-.057 4.52-.218 6.782-.264 1.32-.944 2.574-2.064 3.758-3.172-.719.044-1.448.066-2.165.138m-11.269 4.423c-.21.854-.638 1.968-.609 2.838.063 1.932 3.302 8.48 4.184 10.548.17-.777.536-1.742.552-2.517.044-2.048-1.768-7.835-2.849-9.563-.328-.524-.805-.917-1.278-1.306m207.137.025c-.623.41-1.263.806-1.854 1.263-1.49 3.365-2.75 7.952-1.516 11.584l.103.022c1.056-2.6 3.549-7.872 3.763-10.419.059-.701-.11-1.712-.422-2.358-.017-.036-.05-.062-.074-.092m4.667 17.192c-1.394 4.66-2.947 9.377-4.021 14.119 2.255 2.34 5.253 4.674 7.782 6.76l2.08 1.69q-1.912-7.785-3.968-15.533c-.352-1.38-1.269-6.063-1.874-7.036m-216.72.504c-1.021 3.685-1.908 7.404-2.863 11.106-.966 3.742-2.001 7.48-2.845 11.25.791-.713 1.603-1.412 2.377-2.144l7.507-7.23c-.545-1.656-3.695-12.514-4.176-12.982M18.32 118.24c-1.907 1.34-6.547 4.071-7.72 5.824-.6.895-.84 1.945-1.029 2.992-.037.206-.054.305-.007.503 2.607-1.794 5.324-3.524 7.712-5.61.348-1.01 1.105-2.694 1.044-3.71m219.13.251c.245 1.323.66 2.638 1.017 3.937 1.943 1.554 5.485 4.282 7.668 5.273-.275-1.143-.477-2.537-1.1-3.544-1.141-1.84-5.619-4.382-7.585-5.666M9.412 128.678c.401 1.252.728 2.6 1.21 3.818q2.618 2.001 5.293 3.927c.815.591 1.657 1.31 2.549 1.768-.28-1.173-.474-2.64-1.064-3.694-.788-1.406-5.864-4.64-7.426-5.55a5 5 0 0 0-.562-.27m236.432.439c-1.749 1.119-6.717 3.94-7.568 5.462-.506.905-.728 2.379-.956 3.393l.092.147c2.531-1.768 5.237-3.467 7.621-5.419.278-.878 1.009-2.655.87-3.527zM13.404 146.56c1.015 2.838 1.668 5.818 2.386 8.742l2.214 8.833c.327 1.34.582 2.714.973 4.034q.594-1.658 1.155-3.327c1.042-3.01 1.99-6.118 3.22-9.052-1.685-1.728-8.264-8.387-9.947-9.23m228.038.542c-1.634 1.333-3.148 2.806-4.74 4.188-1.588 1.377-3.274 2.662-4.828 4.075 1.201 3.439 2.064 7.109 2.982 10.64l.803 2.98c.617-1.852 5.943-21.197 5.783-21.883M27.052 173.09c-.93 2.467-3.047 7.369-3.25 9.73-.115 1.341.14 2.763.305 4.096q1.575 1.622 3.311 3.07c3.13.502 6.323.906 9.417 1.595l.18-.054c-.758-1.376-2.953-2.92-4.482-3.354-2.4-.681-5.05-.758-7.529-.969.794-2.351 2.4-5.783 2.59-8.147.084-1.056-.064-2.156-.178-3.207-.099-.91-.17-1.87-.364-2.76m201.102.616c-.346 1.03-.731 2.063-1.029 3.108.5 1.829 2.438 8.343 3.588 9.204l.065.012a46 46 0 0 0 1.086-3.648c-.501-1.667-2.619-7.644-3.71-8.676m.262 13.475c-1.971.226-6.481.321-8.037.974-1.006.423-1.924 1.115-2.825 1.726l1.593.384c3.085.65 5.563.297 8.603-.421.483-.52.973-1.034 1.42-1.586q-.124-.508-.278-1.008c-.255-.14-.214-.109-.476-.069m-10.975 12.841c-4.769 1.215-9.483 2.626-14.265 3.792-.8 2.923-1.457 5.882-2.237 8.81-.407 1.527-1.032 3.045-1.31 4.596l.098.086.059-.025c1.573-1.437 17.692-17.02 17.77-17.24zm-154.423 14.92c.517 4.202 1.574 8.673 2.915 12.692.392.324.768.695 1.254.866l.155-.03c.353-2.426-.262-6.85-1.11-9.185-.288-.793-.716-1.488-1.219-2.161-.468-.626-1.333-1.85-1.996-2.183m127.215 1.279c-2.189 2.379-3.664 4.993-3.521 8.326.056 1.297.398 2.547.714 3.799l.14.31c.261-.054.279 0 .441-.237 1.592-2.3 2.041-7.112 2.206-9.857.04-.67.18-1.518.06-2.181-.01-.055-.027-.107-.04-.16m-14.993 8.917a44 44 0 0 1-3.19.848c1.038.376 1.994.963 2.984 1.447 2.64 1.29 5.454 2.513 8.403 2.77a31 31 0 0 0 2.692-.031c-.753-.781-1.508-1.405-2.442-1.96-1.314-.782-6.772-3.068-8.155-3.09-.175-.003-.148-.002-.292.016m-95.999.39c-2.302.5-8.45 2.32-9.768 4.116l1.34 1.356 1.115-.297c3.483-1.299 7.066-2.637 10.274-4.54-.921-.276-1.985-.697-2.96-.635m75.435 4.674c-1.33 1.18-2.513 2.567-3.724 3.87q-3.388 3.698-6.865 7.312c3.66-1.13 7.47-2.066 11.193-2.967q6.745-1.722 13.437-3.642c-2.724-1.167-5.689-1.911-8.515-2.807-1.803-.571-3.692-1.344-5.526-1.766m-54.598.442c-1.932.426-3.825 1.078-5.715 1.658l-8.55 2.591q6.663 1.676 13.309 3.423 5.592 1.361 11.162 2.807c-2.04-2.23-4.132-4.408-6.193-6.618-1.085-1.162-2.168-2.546-3.378-3.564-.19-.159-.386-.267-.635-.297m17.557 3.942c1.465 3.798 4.294 8.478 8.194 10.166.224.097.374.162.618.166-.065-.624-.102-1.298-.313-1.892-.849-2.396-3.496-5.338-5.443-6.914-.955-.773-1.872-1.211-3.056-1.526m19.725.17c-4.034 1.811-7.032 4.838-8.649 8.986-.142.363-.363.842-.253 1.217l.071.061c3.319-1.978 5.9-5.056 7.92-8.305.276-.444.821-1.157.952-1.654.021-.077.024-.157.036-.236z"/><path d="M44.99 191.613q-.254-.206-.497-.424c-1.486-1.32-11.138-10.515-11.68-11.524-.705-1.308-2.37-8.699-2.83-10.497l-8.18-32.727c-.417-1.668-2.162-7.322-2.14-8.563.02-1.039 2.006-7.58 2.434-9.165q3.161-11.74 6.203-23.512c.76-2.9 5.177-20.996 5.86-21.637 5.08-4.773 9.992-9.762 14.98-14.636 3.926-3.835 7.95-7.562 11.862-11.415q4.547-4.566 9.219-9.003c.943-.89 1.998-2.123 3.089-2.806.992-.621 12.272-3.328 14.057-3.803q20.055-5.277 40.055-10.757c.847-.108 2.124.361 2.971.571 11.719 2.904 23.344 6.193 35.03 9.223q6.026 1.533 12.026 3.165c1.33.353 3.49.654 4.662 1.304 1.2.667 4.218 4.064 5.448 5.294l7.847 7.794c8.73 8.75 17.651 17.313 26.255 26.187.399.41.856.813.994 1.387q5.198 21.68 10.822 43.254c.685 2.594 1.234 5.234 1.946 7.817.058.206.138.405.153.621.09 1.305-5.048 19.599-5.78 22.424-2.458 9.48-4.594 19.089-7.263 28.51-.148.522-.295 1.052-.651 1.476-1.394 1.655-3.108 3.115-4.668 4.616q-3.269 3.163-6.441 6.422l-83.343-.202c-16.222.142-32.436-.022-48.658.26l-21.284.304c-4.126.064-8.387.375-12.499.042M196.587 76.522l-.038.185.209.156.098.136-.098-.136c-.038-.243.01-.126-.171-.341m-80.703 2.469-.135.123zl.369.165c.072.261.042.337-.019.593l.1.189c.354.08.676.103 1.038.11l-.08.11c-.508.063-1.046.069-1.485.351l-.125.296c.26.165.505.11.797.044.999-.226 1.54-.546 2.633-.436l.15.133c-.552.538-1.684.978-2.416 1.569 1.091-.161 3.385-.984 4.342-.419l-.05.122c-.346.074-1.236.156-1.477.38.804.707 3.13.033 3.756 1-1.11.126-1.88.22-2.929.668 1.663.239 3.334.484 5.008.632-1.219.158-5.503.836-6.396.227-.034-.024-.061-.057-.092-.085a2.2 2.2 0 0 1 .438-.298c-1.206-.549-2.172-.268-3.049-1.412-.52-.2-1.071.18-1.53-.046l.062-.143c.094-.228.06-.14.131-.408-.662-.08-1.22.416-1.856.368.136-.233.626-.498.586-.706-.773.078-1.486.365-2.239.542-1.012.238-3.569.76-4.528.704-.283-.365-.32-.84-.4-1.284-.265.549-.485 1.16-.968 1.55-.31.063-.472.09-.748-.097-.333-.225-.632-.585-.898-.885-.035.428-.001 1.085-.26 1.437-.54.099-1.765-.849-1.912-.724-.162.138-.1.091-.335.15-.66-.693-1.127-1.53-1.76-2.251-.348 1.269-.71 2.536-1.245 3.742-.526 1.185-1.245 2.299-1.859 3.441-1.183 2.202-3.486 7.284-5.593 8.471-.645.364-1.38.629-1.98 1.063-1.166.844-5.027 4.335-5.817 5.433-1.348 1.871-3.383 7.22-4.039 9.482-.51 1.761-1.084 4.638-.152 6.326.35.634.882.953 1.571 1.118 1.375.33 4.194.419 5.425-.331.104-.275.137-.54.383-.708.4.303.373.685.894.985 1.005.58 2.434.788 3.56 1.045q2.512.587 5.055 1.013 2.544.427 5.11.694 2.565.266 5.142.37t5.155.046c-.275-.939-.732-1.908-.895-2.861.653.656.834 1.988 1.039 2.858 1.796-.055 3.73-.268 5.512-.09-.23-.234-.609-.493-.644-.819.336.007.606.043.934.114.525.114 1.02.053 1.547 0-.709-.874-2.329-1.664-2.666-2.65.24-.102.468-.148.723-.197l.063-.198c-.794-1.39-2.376-1.611-3.447-2.652q-.2-.194-.396-.39c1.14.249 2.091.862 3.183 1.214l.069.063-.07-.063c-.974-1.424-2.978-1.977-3.849-3.445l.127-.139c.501.014.925.233 1.362.456 2.708 1.385 2.273 4.707 4.406 5.69.142.066.073.059.228 0a4.6 4.6 0 0 1-.341-.897l.141-.155c.458-.039.903.206 1.32.379-.479-.599-2.2-2.402-2.347-2.959.326.034.619.02.945-.002-.743-.663-1.46-1.266-2.073-2.058l-.132-.17c.874.18 1.63.436 2.442.795-1.5-1.704-2.68-2.916-4.724-3.966 1.343.225 2.5.576 3.763 1.095l.082.118.094.075-.094-.075-.082-.118c-1.06-1.306-2.881-2.182-4.168-3.29.7.279 1.394.5 2.12.7-.482-.823-1.29-1.467-1.893-2.213-.592-.734-1.073-1.552-1.631-2.312-.983-1.338-2.085-2.643-2.93-4.072 2.255 1.799 4.43 5.819 7.098 6.834l.055.048-.055-.047c-.857-1.332-2.105-2.727-2.496-4.278 1.632 1.761 3.25 3.382 5.213 4.783-.334-.72-.662-1.45-1.092-2.118-.353-.548-.965-1.165-1.199-1.75 1.17.776 2.068 1.915 3.21 2.737l.053.056-.054-.056c-.587-2.113-2.974-4.262-4.44-5.795 1.42.894 2.799 1.644 4.36 2.268-1.372-1.805-2.801-3.589-4.329-5.265 2.646 1.69 4.096 3.516 7.409 3.793-1.487-.94-2.75-2.018-4.047-3.195 1.867 1.055 3.8 1.435 5.78 2.19-1.074-1.202-2.183-2.294-3.452-3.29 1.87.46 3.802.485 5.718.482q-2.802-1.012-5.592-2.06c1.808.278 3.559.332 5.361-.015-1.544-.4-3.1-1.227-4.583-1.834q2.262-.214 4.496-.63c-1.162-.32-2.3-.828-3.425-1.261 1.293-.21 2.527-.53 3.768-.952a24 24 0 0 0-3.031-.873c1.341-.382 2.68-.553 3.932-1.2a31 31 0 0 1-2.166-1.223c.77-.195 2.526-.31 3.065-.873l-.082-.222c-.463-.317-.958-.418-1.493-.556 1.212-.344 2.422-.62 3.677-.746-.755-.552-1.533-.84-2.408-1.135.554-.072 1.35-.086 1.734-.52 1.238.595 2.267 1.42 3.566 1.954-1.045.145-2.049.295-3.053.63 1.406.664 2.961 1.16 4.444 1.629q-2.554.055-5.105.201c1.033.636 2.142 1.092 3.254 1.57-.909.103-2.885.074-3.609.443.05.271-.016.171.229.347 1.065.763 2.602.998 3.814 1.476-1.435.006-2.883-.028-4.315.075 2.024 1.044 4.052 1.576 6.208 2.23-1.075.253-2.141.496-3.232.671 1.345.554 2.71 1.061 4.051 1.624-.836.037-3.623-.227-4.166.248.494.933 3.859 1.917 4.927 2.45a63 63 0 0 0-5.285-.36c1.195.898 2.698 1.244 3.973 2.007-1.944-.155-3.718-.53-5.592-1.044 2.102 1.81 4.178 3.611 6.435 5.228-2.909-.596-5.783-1.3-8.677-1.963.948.604 1.794 1.218 2.583 2.023-1.295-.516-2.549-.956-3.912-1.249 1.478 1.081 3.153 1.69 4.636 2.722-2.208-.278-4.479-.901-6.634-1.461 1.545 1.378 3.115 2.127 5.005 2.92-2.33-.175-4.606-.389-6.863-1.035 1.111 1.412 2.574 2.227 4.208 2.899-1.855.051-3.67-.007-5.523-.107 1.767 1.054 3.776 1.596 5.535 2.67l-3.824-.36c1.112.88 2.404 1.45 3.574 2.237q-1.752-.294-3.513-.526c1.253 1.17 3.997 2.837 4.853 4.003q-2.36-.841-4.642-1.878c1.674 1.854 3.144 3.284 5.28 4.613-1.741-.413-3.499-.808-5.212-1.326q2.213 1.866 4.612 3.485c-2.221-.11-4.366-.63-6.533-1.096.774.748 2.417 1.745 2.922 2.44l-.057.177c-1.169.564-3.599.185-4.902.133 1.217.634 2.477 1.174 3.732 1.728-2.416.222-4.395.128-6.785-.337 1.625.933 3.194 1.976 4.767 2.995-2.269-.511-4.435-1.108-6.767-1.28 1.374.995 2.686 2 4.177 2.822-1.801-.26-3.576-.49-5.4-.524.364.311.72.648 1.107.93q-1.746-.174-3.49-.373c.725.552 1.53.972 2.294 1.463-1.661-.376-2.98-.27-4.647-.048.763.77 1.533 1.456 2.431 2.063-.9-.22-1.805-.429-2.694-.688.755 1.296 1.672 2.494 2.403 3.798-1.713-1.072-2.788-2.732-4.638-3.595.39.916.92 1.475 1.632 2.14-1.406-.745-2.806-1.535-4.364-1.916.19.613.377 1.202.661 1.78-1.035-.508-2.178-.825-3.241-1.296l1.119 1.834c-.79-.345-1.578-.702-2.377-1.027.257.367.486.706.663 1.12l-.045.206c-.732.036-2.138-1.183-2.855-1.544.241.78.521 1.505.865 2.246q-.073-.037-.144-.077c-.793-.444-2.233-2.101-3.044-2.063-.088.322.065.638.218.918.242.44.59.853.879 1.264-1.223-.874-2.372-1.779-3.818-2.248.21.8.389 1.617.717 2.377-.728-.634-1.437-1.468-2.25-1.973-.204.198-.143.476-.156.753l-.161-.027-.064-.143c-.316-.678-.672-1.113-1.262-1.566l-.227-.044c-.2.354-.235.586-.123.984.404 1.445 3.567 5.259 4.768 6.314l.076.067-.076-.067c-.049-.72-.232-1.418-.39-2.121.886 1.055 2.008 1.82 3.1 2.647-.34-1.014-.787-1.82-1.39-2.691 1.244.745 2.488 1.499 3.817 2.084-.44-.706-.933-1.376-1.413-2.054 1.894.859 3.714 1.633 5.723 2.188a23 23 0 0 0-2.273-2.004c1.595.256 2.989.776 4.41 1.537-.44-.614-.93-1.199-1.4-1.79 1.002.567 2.02 1.01 3.082 1.446-.595-.82-1.264-1.5-1.987-2.209 1.182.542 2.325.721 3.564 1.058-.547-.663-1.082-1.318-1.56-2.033 2.007 1.598 4.453 2.9 6.682 4.175-.108-.527-.29-1.044-.449-1.559 3.875 2.83 5.954 4.25 10.683 5.658-.097-.451-.169-.91-.252-1.365 1.56 1.218 3.668 1.854 5.493 2.575-.702-.863-1.183-1.745-1.62-2.764a47 47 0 0 0 6.642 2.172c-.358-.37-.779-.707-.839-1.234l.206-.15c.64-.044 1.254.13 1.877.266-.607-.59-1.286-1.195-1.662-1.962l.089-.187c.565-.006 1.041.325 1.528.583-.632-1.371-.897-2.833-1.216-4.299 1.247 1.242 2.58 2.334 3.981 3.392-.3-.57-.614-1.124-.691-1.772l.155-.167c.446.071.791.422 1.133.7-.282-.555-.696-1.154-.5-1.793l.266-.09c.505.125.83.393 1.24.704-.19-.445-.582-1.13-.575-1.606.004-.278.01-.287.207-.496l.365.001c.419.203.662.44.982.778.157.167.06.122.271.148-.076-.495-.38-.955-.613-1.393.545.321 1.077.666 1.613 1.001l.092.098.079.08-.079-.08-.091-.097c-.321-.754-.764-1.475-1.106-2.227 1.52-.249.834-.776 1.756-1.171.9.107 1.89.808 2.659 1.268l-.767-2.346c.963.507 1.902 1.02 2.816 1.613-.44-1.303-1.053-2.564-1.603-3.825 1.849 1.524 3.806 2.738 5.908 3.87-.338-.5-.63-1.026-.93-1.549 1.356.611 2.62 1.365 3.901 2.115q-.9-.964-1.772-1.953c1.221.643 2.501 1.053 3.81 1.472l-1.307-1.419c1.729.143 2.751.46 4.095 1.56-.866-1.24-1.862-2.43-2.885-3.542 1.781-.362 3.445-.283 5.235-.057-.27-.261-.539-.52-.78-.81-.187-.226-.384-.36-.36-.659.048-.032.094-.07.144-.097.667-.362 1.936.179 2.64.393l.076-.087-.528-.576.04-.172c.6-.179 1.39.338 1.919.594q-.244-.534-.467-1.076c-.208-.515-.516-1.212-.282-1.761.738-.286 3.014 1.008 3.845 1.354-.559-1.384-.955-2.835-1.486-4.231-.425-1.116-.975-2.192-1.501-3.263.482.215.99.383 1.486.565-.667-.99-2.417-3.326-2.52-4.446.213-.014.114.012.299-.073-.175-.312-.325-.568-.381-.928l.113-.017c.813.568 1.575 1.21 2.345 1.834-.451-.615-3.432-5.21-3.417-5.53.224-.016.37-.015.577-.111a1.8 1.8 0 0 1-.127-.618c.481-.15 1.274.289 1.746.481-1.007-1.284-2.005-2.598-3.186-3.727 1.198-.163 2.355-.29 3.565-.185l-2.391-1.354 2.15.042c-2.832-1.688-5.775-3.16-8.58-4.905l3.021.168c-.803-.503-3.745-1.672-4.015-2.388.742-.447 3.242.006 4.151.072l-1.789-.848c1.366.035 2.71-.211 4.067.015.667-.746 1.36-1.472 2.04-2.207l.463 1.214c.453-1.287 1.077-2.453 1.344-3.803.224.593.473 1.578.958 1.97.543-.805.207-2.435.99-3.024l.266.246.1-.038.08-.198c.25-.65.28-1.446.41-2.13.706-3.731 1.054-8.07-.644-11.599-1.172-2.433-4.354-7.289-7-8.13-3.004-.953-7.324 1.609-9.958 3.002 1.02 1.53 2.05 3.027 3.29 4.39.383-.723.737-1.32 1.39-1.836 1.063-.837 2.68-1.225 4.009-1.01 1.282.209 2.265 1.013 2.987 2.06 1.68 2.433 3.354 6.659 2.827 9.638-1.349-1.337-2.02-3.103-3.324-4.475.144.66.681 2.335.391 2.89a3 3 0 0 0-.45-.194c-.072.355-.031.542.08.874l.038.11c-.175.382-.543.117-.728.322-.151.168.266 2.052.226 2.47-.178 1.82-1.32 2.937-2.236 4.408l-.063.102c.97-.424 2.135-.738 2.983-1.378.63-.476.757-1.637 1.522-1.888l.274.213c.148.373.194.562.018.936-.527 1.12-1.766 2.093-2.91 2.506-1.457.525-2.783 1.438-4.291 1.81-1.86-.495-2.72-1.835-3.93-3.21 1.014.322 2.016.69 3.021 1.037-1.152-3.014-3.83-5.103-6.373-6.897 1.689.359 3.347.763 5.014 1.214l.055.053-.055-.053c-1.629-2.614-4.247-4.925-6.485-6.991 1.674.308 3.257.69 4.859 1.27-1.917-2.162-3.303-4.917-5.687-6.609 1.862.302 3.838.818 5.547 1.612-1.656-1.965-1.853-3.076-4.69-3.534.726-.317 1.393-.69 2.073-1.095-.411-.076-.911-.111-1.249-.366.252-.135.15-.12.42-.119 2.27.015 3.877-1.061 5.924-1.84 1.779-.677 3.387-1.003 5.283-1.087-1.015-.582-2.157-.84-3.184-1.394l4.07.036c-.954-.658-1.81-1.312-2.64-2.127l.047-.006c-.7-.78-1.598-1.433-2.397-2.116l-.002-.139.594-.265-.008-.11c-3.542-2.26-6.096-2.234-9.945-3.344l.169-.2.691-.04-.064-.141c-2.755-1.138-7.377-1.584-10.411-2.163a39 39 0 0 0 2.095-.904c-2.517-.2-5.025.264-7.53-.024l1.38-.76c-1.498.007-3.046.308-4.539.453q.838-.477 1.68-.943-3.31.11-6.618.28l1.921-.95c-1.768.183-4.118.589-5.769 1.236-.68.266-1.253.718-1.959.925-.08-.099-.251-.32-.371-.34-.738-.12-2.457 1.555-3.416 1.447l-.064-.32-.186-.09c-2.559.419-4.397 2.312-6.525 3.58l-.013-.357c-1.278-.157-4.658 2.718-5.822 3.46l-.147-.077-.009-.573-.177-.02c-1.036.599-1.914 1.576-2.846 2.335-.333.03-.805.039-1.101.195-.992.521-1.993 1.704-2.885 2.435-1.474 1.21-3.048 2.293-4.479 3.557-1.15 1.016-2.952 2.667-3.333 4.218-.423 1.727 1.003 3.334 1.015 5.034.014 1.838-.328 3.774-.493 5.61q-.451 5.308-.82 10.621c2.523-2.422 4.498-2.805 6.673-5.722-.838.241-1.675.39-2.534.533l2.35-1.453c-.489-.095-.992-.175-1.426-.434-.576-.344-.987-.921-1.17-1.56l.117-.112q.248.223.498.445c.359.322.745.415 1.217.474.302.038.576.09.817-.102-.378-.466-1.165-.722-1.692-1.031l.075-.074c.738.107 1.502.243 2.246.268.322.011.627-.003.877-.224l-.051-.142a7 7 0 0 0-.815-.101c-.82-.064-1.432-.353-1.965-.983l-.075-.091c.739.4 1.479.555 2.313.419-.233-.264-.762-.415-1.103-.525-.943-.306-1.484-.701-2.247-1.336l.978 1.413c-.088-.062-.16-.11-.242-.178-.805-.677-1.76-1.862-1.801-2.965-.008-.222-.043-.371.112-.535.473.52.748 1.493 1.108 2.133 1.023.388 2.707 1.116 3.811.883-.826-.667-2.078-.094-3.386-1.778l-.093-.121q-.194-1.472-.373-2.946c-.312-.026-.689-.028-.99-.115-.338-.096-.486-.22-.667-.511l.167-.238c2.207-1.136 4.044-.373 5.947.89.478.317 1.035.752 1.59.901.366.098.745.115 1.068-.113.552-.39.752-1.418.89-2.038l-1.334-.277c-.099.304.194.69.333.978-.21-.15-.16-.096-.3-.243-.414-.436-.73-.66-1.294-.874.234.485.593.861.72 1.394l-.146-.008c-.278-.188-.368-.302-.507-.612a7 7 0 0 0-.143-.317c-.207-.334-.597-.374-.95-.494l-.069.076c.166.23.278.353.349.629-1.005-.349-1.975-1.116-2.933-1.617-1.05.145-2.17.014-3.166.425q-.19.078-.383.152c-.218.084-.216.05-.43-.008l.17-.238c-.255-.291-.599-.364-.682-.75.283-.056.862.352 1.143.5.128-.15.18-.387.248-.572-.135-.497-.591-.79-.952-1.159.557.275 1.076.556 1.693.671l.197-.114c.009-.447-.431-.967-.644-1.355 1.096.496 1.81 1.016 2.625 1.898-.203-1.082-.458-1.915-1.002-2.875 1.217.788 2.47 1.418 3.374 2.586l.407.521c-.3-1.203-.584-2.397-.793-3.621.827.898 1.744 1.764 2.307 2.86.175-1.392.187-2.33-.164-3.693l1.026 1.65c.11-.312.155-.729.45-.885.474.577.51 2.151.698 2.927.091-.804.2-1.802.576-2.522.618.403.934 2.474 1.35 3.225a33 33 0 0 0 .76-3c.442 1.253 1.013 2.603 1.241 3.908.404-1.142.798-2.301 1.43-3.341a7.9 7.9 0 0 0 1.693 2.757c.646-.853 1.082-1.775 1.618-2.69.255.769.334 1.743.68 2.437.188-.16.26-.314.366-.535l.187-.037.064-.114-.064.114-.187.037-.074-.186c.098-.379.31-.64.591-.905.415-.39 1.065-.878 1.657-.87.275.526-.428 1.329-.236 1.998.88.137 2.37-1.337 3.213-1.75l.157-.075a14.5 14.5 0 0 0-.916 2.346c1.197-.477 1.843-1.49 2.937-2.024zm64.584 19.88c-.496-1.026-2.572-3.647-2.67-4.277l.129-.069c.292.276.578.564.916.785l.19.121.06.052-.06-.052c-.697-1.52-1.824-2.742-2.302-4.385l.059-.096c.308.028.45.002.715.182-.213-.427-.533-.784-.792-1.183-.402-.621-.747-1.283-1.201-1.87-1.007-1.3-2.231-2.44-3.282-3.708q1.043.591 2.11 1.14c-.762-1.177-1.826-2.069-2.66-3.18.428-.008.91.028 1.313-.123-.685-1.013-2.641-2.513-3.652-3.337.362-.012.83-.08 1.174.012l.043-.096c-2.214-1.358-4.1-3.085-6.015-4.82 1.604 2.248 3.389 4.401 4.633 6.882.73 1.454.828 3.022 1.412 4.493.51 1.288 1.533 2.438 2.179 3.686l-1.75-1.181c.51 1.106 1.495 2.146 1.867 3.26l-.354.166c-.208.785 1.27 3.56 1.667 4.44-.475-.453-1.21-1.34-1.883-1.393-.209.216-.21.249-.193.565.044.862.274 1.84.51 2.674-.505-.467-1-.961-1.549-1.376.085.69.655 3.12.577 3.578-.498.084-1.206-.495-1.631-.775a22.4 22.4 0 0 0 1.092 3.745l-1.423-.094a114 114 0 0 1 3.872 4.445c-3.047-1.416-5.805-3.393-9.055-4.341 1.453 2.32 2.415 3.238 4.145 5.264-1.198-.444-2.4-.944-3.634-1.28 1.422 1.297 4.394 3.5 4.913 5.31l-.079.172-.757.056-.052.124c.183.353.356.712.567 1.048-.835-.175-1.678-.335-2.507-.535.62 1.714 1.21 3.423 1.967 5.084a8.3 8.3 0 0 0-2.286-.997c1.645 2.493 2.518 5.354 4.15 7.849l-2.573-1.852c.937 1.448 1.927 2.748 3.12 3.994-.48-.065-.96-.142-1.442-.184.8 1.888 1.83 5.782 3.204 7.046.576.53 1.37.851 2.07 1.193-.297-1.698-.482-3.396-.724-5.101 1.369 1.741 3.239 3.214 4.377 5.083-.152-.936-.339-1.883-.413-2.828 1.798 2.257 4.63 4.146 7.059 5.681-.858-1.899-1.793-3.76-2.554-5.702 4.504 3.936 8.841 8.179 13.698 11.68q-.796-1.791-1.435-3.644-.638-1.852-1.115-3.753c1.815 1.759 3.723 3.416 5.573 5.137 3.348 3.114 6.635 6.505 10.696 8.706-1.043-1.349-2.524-2.92-3.24-4.462l.12.071c.051-.017.1-.044.155-.05.175-.019.452.063.631.093l.042-.095c-.598-.513-1.233-1.003-1.706-1.638.864.367 1.725.753 2.602 1.09-2.085-2.027-4.336-3.815-6.274-6-1.857-2.095-3.33-4.46-5.118-6.594.478.103.951.223 1.438.141l-.004-.104c-2.071-1.73-3.978-3.832-6.204-5.339.754.244 1.498.418 2.276.57-1.784-2.005-3.423-4.148-5.258-6.105l1.74.15.05.074-.05-.073c-3.276-3.373-6.02-7.257-8.838-11.009l2.572 1.34c-1.207-1.874-2.309-3.7-3.76-5.407l1.474.381-1.292-2.03c.756.445 1.65.708 2.473 1.007-.871-1.114-1.842-2.167-2.833-3.173l2.037.04c-2.594-1.603-4.215-3.788-6.059-6.154 1.091.503 2.055 1.132 3.012 1.855m4.806.065q-.634-.68-1.302-1.328c.677 2.04 1.832 4.26 3.845 5.246 1.857.91 3.501 1.342 5.117 2.742a34.5 34.5 0 0 1-4.48 1.406c1.025.9 1.974 1.849 2.833 2.912-1.24-.061-2.494-.19-3.699-.498 1.002 1.747 2.17 4.785 3.868 5.807.758.456 1.653.685 2.475 1.004-.927.025-1.827.044-2.75-.059.495.823 1.223 2.227 2.204 2.478.306-.106.407-.173.545-.478.166-.367 3.283-35.732 3.397-39.125.016-.467-.035-.89-.23-1.32-.167-.37-.46-.675-.72-.982-1.051-1.237-.926-2.049-.798-3.594.258-.044.487-.016.746.012-.038.008-.078-.01-.117-.017.255-.355.064-.579.383-.836l.335.184c.309-.148.459-.238.597-.566.363-.86.08-2.41.021-3.327l.132-.118c2.345-2.148.218-3.814 4.799-3.663.833.028 1.65.12 2.25.763.772.828 1.107 2.16 1.818 3.112q-.041 1.849-.195 3.692l1.765-.015c-.014.782.203 1.556.198 2.294-.007.93-1.096 2.035-1.099 3.343-.003 1.381.191 2.805.307 4.183l.654 7.595 1.044 11.53c.205 2.361.33 4.743.594 7.097 5.598-.004 11.308.217 16.894-.144-.763-4.03-1.982-7.996-2.944-11.987-1.533-6.353-2.909-12.749-4.609-19.06-5.156-4.771-10.059-9.859-15.002-14.849q-7.016-7.074-14.15-14.029-3.128-3.11-6.217-6.258c-1.057-1.057-2.114-2.273-3.33-3.14-.998-.712-3.892-1.566-5.101-1.518-1.334.053-2.82.573-4.115.89l-5.507 1.314c-7.86 1.933-15.72 3.788-23.548 5.855q-3.132.844-6.222 1.83c-.964.3-1.956.703-2.943.905-2.23.455-5.411.283-7.78.344q-9.11.176-18.216.502c-2.095.086-4.29-.02-6.361.24a5.7 5.7 0 0 0-1.5.376c-1.276.526-2.496 1.31-3.717 1.96l-6.83 3.638c-1.14.621-2.363 1.43-3.61 1.788-1.663.476-4.836.014-6.624-.061q-6.08-.221-12.157-.538-4.497-.192-8.998-.247c-1.952 1.846-3.846 3.758-5.812 5.587q-4.207 4.19-8.467 8.327c-1.519 1.466-4.593 4.056-5.62 5.675-.596.942-1.641 5.896-2.042 7.395l-6.676 25.213q16.246-.129 32.491.001c5.366.03 10.8.347 16.158.122.794-1.834 1.441-3.902 2.372-5.656.749-1.409 1.819-2.67 2.675-4.017 1.87-2.94 2.118-7.542 2.036-10.966-.028-1.156-.273-2.328-.447-3.47-.296-1.942-.485-3.799-.391-5.766a41 41 0 0 0-2.59-1.919c.755-.159 1.51-.331 2.27-.473-.24-.297-.484-.591-.71-.9-2.112-.133-10.473-.232-11.922.35-2.506 1.007-4.731 2.748-7.227 3.828-1.987-1.314-3.897-3-6.001-4.099-1.345-.702-10.732-2.383-12.917-2.748 2.023-.188 12.764.032 14.184.626 1.776.744 3.36 2.258 5.013 3.26 1.792-1.104 3.593-2.461 5.464-3.409q4.23.46 8.447 1.03c2.296.291 4.719.703 7.034.525 1.31-1.214 2.54-2.517 3.887-3.689 1.72-1.496 3.554-2.856 5.264-4.367 1.505-1.33 2.91-2.778 4.426-4.095 1.12-.973 2.54-1.353 3.705-2.207 1.178-.863 1.947-2.285 2.994-3.306.19 1.13.256 2.26.406 3.392 1.746-1.337 3.76-2.08 5.749-2.98 1.485-.673 2.948-1.44 4.471-2.02 6.265-2.39 12.274-2.692 18.856-2.987l-.874 1.648c3.918.04 8.136.206 11.823 1.639-.392.326-.778.675-1.195.97 1.484.212 2.948.431 4.389.858 3.091.916 5.995 2.401 9.072 3.389 2.627.843 5.413 1.251 8.007 2.177-1.334.715-2.659 1.47-4.052 2.063 2.701 1.376 5.233 2.562 8.214 3.22-1.237.986-2.374 1.5-3.905 1.88 1.894 1.37 3.388 3.025 5.046 4.654 2.319 2.28 4.769 4.05 7.637 5.571-.64.199-1.273.399-1.93.538 1.167.69 2.18 1.251 2.98 2.38-.734.196-1.479.374-2.206.596 1.472 2.441 3.354 4.952 4.427 7.586l-.033.077-.518-.4-.098.07c.377 2.58 3.536 5.348 4.186 7.542m8.529 46.651c-2.223.586-4.399 1.58-6.57 2.346q-10.007 3.587-19.93 7.4-19.614 7.264-38.965 15.203-10.814 4.547-21.418 9.569-2.683 1.246-5.393 2.432c-1.012.44-2.38.846-3.27 1.491l-.132.083.132-.083c1.773-.319 3.967-1.278 5.735-1.869q7.88-2.556 15.6-5.558c7.155-2.745 14.297-5.476 21.394-8.374q16.2-6.638 32.256-13.621l13.529-5.828c2.068-.891 5.195-1.962 7.032-3.191l.07-.07zm6.18 3.476c-2.793.689-5.618 1.919-8.316 2.934q-7.225 2.775-14.486 5.453l-14.715 5.557c-11.817 4.4-23.673 8.822-35.284 13.746-5.717 2.425-11.262 5.217-16.916 7.775-1.483.67-7.094 2.893-8.037 3.75 2.248-.335 4.504-.352 6.676-1.101 2.488-.858 4.9-1.96 7.349-2.923a852 852 0 0 0 19.64-8.031q18.853-7.812 37.614-15.845l19.367-8.305c1.903-.812 5.601-1.986 7.108-3.01l.135-.062zm21.13 2.633c-1.785.44-3.555 1.12-5.298 1.712q-6.545 2.29-12.99 4.851c-1.504.603-3.477 1.174-4.813 2.043l-.137.066.137-.066c1.476-.213 3.188-1.02 4.607-1.506 4.625-1.586 9.248-3.154 13.786-4.98 1.524-.612 3.341-1.209 4.708-2.12l.135-.068zm-19.259 1.621c-3.135.975-6.202 2.266-9.278 3.417l-17.954 6.742q-16.218 5.954-32.345 12.155c-8.102 3.125-16.186 6.269-24.04 9.982-1.854.876-5.463 2.307-6.964 3.487 4.608-.606 8.952-2.412 13.293-4.009q10.297-3.799 20.42-8.042l38.299-15.861 12.675-5.247c1.828-.762 4.28-1.544 5.894-2.624l.144-.066zm19.392 1.65c-1.903.454-3.803 1.317-5.629 2.017q-4.826 1.845-9.624 3.762-16.478 6.551-32.819 13.436-4.46 1.879-8.897 3.807c-1.24.539-2.812 1.032-3.9 1.802l-.351.137-.151.071.151-.071.35-.137c1.045-.203 2.16-.79 3.163-1.181l6.874-2.67q18.5-7.034 36.727-14.75 4.823-2.018 9.601-4.14c1.465-.647 3.165-1.224 4.505-2.083l.127-.082zm-108.42 5.203-.052.05zc1.769-.269 6.065-2.273 8.045-2.969 2.616-.92 5.264-1.743 7.861-2.72 7.704-2.896 15.333-6.179 22.902-9.413 5.167-2.208 10.256-4.673 15.494-6.703-.606-.209-1.294-.482-1.932-.53-.898-.066-1.828.449-2.725.31a1.6 1.6 0 0 0-.69.026c-.138.15-.23.274-.329.456l-.088.17-.34.107c-.926.25-1.878.175-2.811.387-.146.263-.177.431-.242.721-.815.75-1.576-.216-2.482.307.034.125.067.249.11.37l.04.118c-.357.21-.788-.006-1.21.114-.09.206-.17.371-.311.546-.945.215-1.309-.514-2.06-.48-.148.007-.055.367-.216.564-.25.073-.377.063-.619-.01-.141-.043-.275-.088-.42-.114-.291-.052-.251-.086-.509.098-.02.316-.042.586-.129.893-.664.345-1.502-.123-2.234.17-.134.404-.235.799-.571 1.085-.837.714-2.113.532-3.105.394.185.28.701.96.67 1.249l-.483.1c-.135.334.399.505.391.902-1.128.182-3.96-.804-5.202-1.085.69.635 1.417 1.201 2.165 1.766-1.028.117-2.044-.257-3.027-.112-.086.215-.171.468-.298.662-.615.939-4.57 1.095-5.808 1.474l.593 1.206c-.813.114-2.273-.118-2.95.232l.121.356c-.766.695-3.738 1.28-4.873 1.665-1.422.481-2.78 1.157-4.181 1.694-1.665.637-4.679 1.19-5.983 2.32-1.009.875-1.89 2.514-2.564 3.674m98.423 1.705-.156.072c-2.017.455-4.181 1.572-6.12 2.324-7.213 2.798-14.234 5.888-21.282 9.07-1.303.589-4.46 1.769-5.43 2.571l-.136.07.136-.07c2.088-.52 5.442-2.125 7.572-2.986q9.388-3.704 18.59-7.853c2.069-.928 4.794-1.91 6.67-3.126zl.25-.124zm-27.632 3.696c-2.106.61-4.206 1.579-6.252 2.382l-13.402 5.338-29.002 11.28c-2.018.792-12.116 4.57-13.03 5.418 1.317.07 2.722.242 4.009-.11 2.035-.558 4.052-1.503 6.02-2.282 4.64-1.838 9.216-3.797 13.83-5.698q14.576-5.851 28.928-12.233 3.087-1.351 6.156-2.743c.883-.406 1.952-.794 2.743-1.352l.131-.068zm-79.1 6.334-.142.065zc1.257-.159 2.661-.793 3.872-1.204q4.916-1.65 9.768-3.48c18.02-6.753 35.754-14.37 53.426-21.981l8.557-3.703c1.499-.652 3.308-1.256 4.651-2.187-1.27.03-4.99 1.499-6.388 1.962-8.856 2.934-17.581 6.321-26.277 9.697-11.08 4.302-22.022 8.711-32.854 13.617q-5.206 2.344-10.296 4.927c-1.452.722-3.153 1.405-4.459 2.352m-21.713 2.57c-1.82.343-3.669 1.22-5.356 1.969-3.107 1.379-6.23 2.976-9.444 4.082-3.379 1.163-8.936 1.5-12.6 1.829l2.378.407c3.611.533 7.106 1.517 10.765 1.674 1.45-1.34 3.277-2.402 4.922-3.491q3.287-2.158 6.507-4.417c.893-.629 2.06-1.293 2.828-2.053l.07-.069zm9.027 1.89-.07.134zc1.276-2.477 8.458-25.572 8.529-27.94l-.36.154c-.605.818-1.825 6.392-2.203 7.788q-1.862 6.612-3.875 13.179c-.678 2.157-1.778 4.615-2.09 6.819m-16.227 6.957c-2.17.535-4.334 1.62-6.436 2.413-1.697.64-3.624 1.146-5.23 1.968 1.289.017 2.77.178 4.027-.12 1.168-.276 6.566-3.454 7.64-4.261l.137-.071zM128.04 24.797c-4.21 1.013-8.41 2.287-12.588 3.434L96 33.413l-13.75 3.595c-1.907.494-5.324 1.08-6.965 1.979-1.57.861-6.687 6.169-8.154 7.739l40.379-.386 16.893-.66c2.358-.104 4.853-.028 7.188-.326 1.883-.24 3.781-1.023 5.607-1.559 2.653-.779 5.342-1.456 8.018-2.152q6.963-1.824 13.956-3.531c2.89-.698 6.823-1.48 9.544-2.46-4.727-1.418-9.491-2.608-14.26-3.867l-12.959-3.483-8.987-2.363c-1.469-.386-2.976-.873-4.47-1.142M66.498 47.35c-2.146 2.053-4.332 4.081-6.4 6.211l15.574.498c2.046.074 6.109.442 7.94.11 1.148-.208 2.271-1.121 3.316-1.631l8.11-4.306q-10.247-.135-20.487-.546-2.294-.063-4.586-.2c-1.123-.069-2.347-.244-3.468-.136m138.71 22.184c-.406.587-.306 1.145-.178 1.84.059.32.087.821.365 1.025.075.054.237.108.326.141.253-.644.495-1.773.214-2.424-.147-.339-.39-.46-.727-.582m-7.029.15c-.281.797-.206 1.746-.273 2.593a5.4 5.4 0 0 0 .947.117c.31-.33.33-1.132.325-1.574-.005-.43-.087-.71-.361-1.031zm1.803.046c.025.385.009.485.237.81.243.054.394.09.637.025.069-.35.15-.437-.045-.748a6 6 0 0 0-.83-.087m1.483.168c.128.336.173.475.487.681.254.025.424.015.67-.05l.13-.409c-.119-.209-.058-.211-.257-.255-.335-.074-.692-.004-1.03.033m1.953-.02c.06.299.038.46.263.68.222-.084.38-.19.57-.332l.175-.01c-.129-.25-.183-.303-.47-.367-.14-.032-.405.016-.537.028m-2.987 1.593c-.14.281-.356.527-.196.846.04.08.151.19.214.257.135-.339.217-.51.154-.883zm1.552.086-.12.649.136.09.245-.103.099-.249c-.121-.203-.156-.243-.36-.387m1.912.596.048.136.088-.047-.048-.144zm-5.512 6.16c-.474 2.209-.514 4.653-.7 6.905q4.33.014 8.66-.029l.408-.047c.32-.715-.326-5.689-.384-6.871-2.66.013-5.325-.025-7.984.043M92.448 85.058c-.18.321-.261.373-.138.738.026.079.064.153.096.23l.199-.898zm2.166.38h.135zm2.165 1.626h.133zm99.748 11.565c-.196 2.308-.478 4.649-.55 6.963l12.18-.062.356-.07c.4-.9-.217-5.624-.364-6.786zm-121.655 11.82c-11.638.974-23.73 1.155-35.413 1.268-1.635.015-11.079-.078-11.628.248-.174.305-.194.505-.224.848 1.059.35 4.491.05 5.89.059 3.13.021 6.263.122 9.394.166 2.853.04 5.753-.016 8.59.313-8.066.833-16.28.755-24.385.888q-1.883 6.93-3.672 13.886c2.015 8.719 4.273 17.409 6.456 26.09 1.063 4.228 1.891 8.599 3.146 12.77 2.622-1.406 4.711-3.528 6.889-5.521 3.323-.719 6.646-1.183 9.937-2.076 2.784-.734 5.64-1.39 8.38-2.272 2.444-.787 7.46-3.363 9.686-3.445 1.453-.053 2.714.843 4.123 1.014 1.962.237 3.994-.435 5.94-.006 1.763.388 3.6 2.02 5.437 1.61 2.337-.522 3.927-2.423 5.978-3.474 2.368-1.213 6.864-3.07 9.39-3.87l.397-1.117q-1.58-1.18-3.209-2.29c-.568.3-1.29.775-1.948.587a1.4 1.4 0 0 1-.2-.606l-.208-.021c-.296.307-.345.713-.443 1.115l-.15.06c-1.97-1.399-2.765-3.922-4.317-5.69-.091.222-.118.399-.153.635l-.168.047c-1.09-.865-1.324-2.353-2.182-3.398-.329-.4-.502-.223-.853-.423-.288-.164-1.168-1.448-1.446-1.78-.776-.926-1.666-1.768-2.483-2.662l-.137.042-.113.474c-.367-.175-.585-.683-.717-1.059-.334-.96-.179-2.191-.59-3.07l-.11.111c-.177.176-.109.113-.342.278-.348-.198-.187-.328-.393-.591-.027-.034-.954.143-1.204.044-.054-.35-.077-.465.104-.792.19-.343.7-.654 1.011-.88-1.103.021-2.198.051-3.3-.05q1-1.495 1.931-3.035l-.042-.151-.209-.108.227-.146.159.092-.053-.148c-.33-.025-.593.134-.884.27l-.347-.086-.014-.185c.514-.569 1.615-.904 1.923-1.532-.322-.3-.826-.267-1.252-.252-.122-.393.257-.563-.012-.862-.387-.036-.692 0-1.01-.231l.012-.146c.01-.154.01-.298.003-.452q-.323-.089-.647-.172l.022-.195.304-.146c-.01-.246-.024-.288-.153-.498a3 3 0 0 0-.615.029c-.248.028-.405.031-.646-.055.14-.865.488-1.731.711-2.582.353-1.344.598-2.727.854-4.092-4.625.5-11.995 1.373-16.409.262 3.759-.525 8.432-1.29 12.17-1.087 1.431.078 2.858.356 4.265.614.22-.893.418-1.801.68-2.683zm135.18.676c.12 2.62.314 5.261.345 7.882q-8.38.06-16.76.036c1.823 1.925 3.88 3.954 6.139 5.348 5.16-.139 10.06-.551 15.19.374-2.34.424-4.657.7-7.04.739-1.995.033-3.994-.092-5.988-.044-1.39.034-2.64.349-4.049.157 1.492 1.919 2.43 2.73 4.552 3.909-.776-.09-1.566-.154-2.332-.303 1.458 1.808 3.054 3.694 5.5 3.953 5.093.541 10.263.447 15.274 1.645q-6.737.293-13.48.265 1.702 1.615 3.385 3.25l-.084-.113c.113.21.125.235.34.361-.311.1-.623-.006-.934-.07-.105.22-.1.113-.017.362.232.691.864 1.47 1.292 2.07l.978 1.547c3.127-.005 6.139.061 9.235.547-2.839.784-6.34.562-9.28.533.401.518.783.987 1.36 1.32 2.017 1.16 7.315 1.725 9.75 2.03 1.114.14 2.237.291 3.359.367q1.941-6.996 3.741-14.029c.398-1.554 1.262-3.873 1.23-5.452-.029-1.509-3.017-12.626-3.665-14.483q-5.344-.083-10.688-.223c-1.31-.042-2.923.058-4.187-.238l.217.185.065-.274c3.107-.372 6.287-.418 9.414-.523 1.542-.051 3.134.095 4.64-.266l.08-.118c-2.254-.37-4.703-.304-6.99-.39-3.529-.133-7.06-.321-10.593-.354M86.512 121.9c-1.616.377-3.066.621-4.727.589-.76 1.057-1.55 2.095-2.295 3.163q.873-.124 1.744-.26l-.364 2.038c.368-.218.75-.51 1.191-.498.148.165.181.135.175.375-.015.574-.326 1.267-.502 1.817.552-.304 1.101-.62 1.659-.912a7.3 7.3 0 0 0-.084 1.85l.15.147c.358-.229.538-.746.735-1.118l.058.157c.323.887.481 2.708 1.122 3.32.262-.411.172-.864.45-1.263.444 1.002.51 2.392 1.23 3.241l.143-.048c.294-.955.147-2.086.1-3.073.367.927.99 1.56 1.523 2.378a7.5 7.5 0 0 1 .88-2.236c.208 1.089.64 1.992 1.153 2.965.08-.846.185-1.672.338-2.508.581 1.262 1.438 2.188 2.45 3.123-.219-.731-.516-1.49-.45-2.26l.161-.173c.848.23 1.864 1.531 2.561 2.109-.197-1.073-.384-1.993-.903-2.966 1.179.785 2.433 1.786 3.8 2.196l.145-.076c-.417-.803-1.299-1.472-1.974-2.06.762.281 3.574 1.276 4.228 1.109l.033-.029c-.816-.816-1.623-1.562-2.568-2.228 1.748.75 3.429.843 5.224 1.354-.968-.653-1.97-1.271-2.922-1.945 1.588.546 3.136 1.038 4.79 1.354a14.6 14.6 0 0 0-1.696-1.316c1.634.2 3.281.545 4.929.524-.926-.745-1.788-1.105-2.911-1.459 1.545.069 3.814.587 5.282.146l.151-.201c-.198-.46-.844-.703-1.271-.916.994-.222 1.987-.461 2.987-.658-.784-.288-1.465-.664-2.183-1.086 1.131-.06 2.038-.301 3.088-.713-.48-.052-1.255-.032-1.652-.304.51-.383 1.659-.355 1.873-.99-.259-.209-.472-.182-.793-.157-2.024.155-4.012.436-6.054.501-4.328.139-10.609-.507-14.822-1.311q-1.853-.364-3.655-.93c-.817-.255-1.684-.638-2.528-.762m84.138 14.217c.228.28.424.534.805.608.074.015.15.014.226.021-.142-.303-.165-.446-.501-.568-.14-.051-.39-.05-.53-.061m-4.237.725c.542.41 1.125.803 1.61 1.281.517-.203 1.044-.393 1.55-.624l.332-.216c-.738-.468-2.569-.275-3.492-.441m11.447.68c-9.207 2.413-18.59 6.136-27.45 9.66q-7.171 2.808-14.304 5.713-8.905 3.763-17.662 7.856c-1.895.871-9.809 4.474-10.888 5.856-.05.065-.077.144-.115.215l.12.022c2.736-.967 5.5-1.791 8.226-2.808 15.694-5.853 31.093-12.662 46.481-19.272 3.694-1.586 7.399-3.111 11.063-4.766 1.535-.693 3.347-1.337 4.685-2.352l-.018-.112zm13.437 4.738c-2.85 1.043-5.737 1.968-8.599 2.971l-19.422 6.905c-8.138 2.938-16.216 6.177-24.24 9.41-8.639 3.482-17.234 6.964-25.666 10.932-3.275 1.541-6.534 3.065-9.699 4.823-.815.453-1.742.87-2.474 1.446l.036.113.082.014c2.084-.724 4.201-1.343 6.278-2.089q21.305-7.772 42.153-16.697l29.192-12.276c1.998-.853 11.445-4.559 12.458-5.463zm30.112 9.302h.152zm-19.25 1.625h.152zm-132.6 4.197c-3.692 1.016-7.314 2.238-11.037 3.144-3.89.947-7.834 1.676-11.728 2.617-1.692.409-3.48.785-5.1 1.429-1.785.71-3.535 1.768-5.133 2.832 2.44-.9 4.81-1.687 7.368-2.183l23.645-4.984c3.864-.826 7.547-1.941 11.499-2.364-1.846-.285-3.73-.25-5.593-.338-1.288-.06-2.637-.262-3.922-.154m10.7.786c-4.906.616-9.817 2.005-14.593 3.268-10.633 2.811-21.045 5.924-31.141 10.323 1.748-.395 3.498-.83 5.258-1.167l20.643-4.232c4.165-.866 8.472-1.59 12.537-2.841 4.66-1.435 9.067-3.652 13.613-5.418-2.099.207-4.245-.244-6.318.067m131.65 3.392h.152zm-.25.125h.152zm-123.19.855c-6.546 1.367-12.688 4.041-19.127 5.746-2.058.544-4.226.703-6.32 1.079q-5.614 1.048-11.173 2.356c-3.181.76-6.31 1.773-9.441 2.717-.958.289-2.496.944-3.458 1.04-.029.002-.055-.018-.082-.027l-.072.151-.24.045-.031.08 20.814-2.582c3.153-.397 6.475-.54 9.574-1.21 4.357-.94 16.618-5.85 19.407-9.065.085-.099.15-.2.149-.33m95.44 2.894h.152zm-98.52 3.842c-5.684 1.32-11.221 3.153-16.891 4.498-2.184.518-21.786 4.724-22.038 5.068l.134.031 10.761-.453c1.98-.087 4.06-.058 6.02-.34 1.802-.259 3.553-.87 5.288-1.404 5.7-1.755 11.876-3.808 16.807-7.249l.064-.142zm6.285 7.534h.084zm-.12.375h.086z"/><path d="M176.496 57.228c1.739-1.177 3.623-2.153 5.424-3.236q6.047 1.02 12.071 2.162c-1.288.106-2.627.016-3.92-.002q-3.125-.046-6.25-.024c-2.46 1.509-5.312 2.794-7.984 3.871l-1.396-.809c-1.548-1.004-3.098-1.995-4.689-2.931-1.66.154-3.315.47-4.974.663 1.708-.822 3.457-1.559 5.193-2.316 2.202.803 4.338 1.779 6.525 2.622m-42.619 5.195c.516-.144 1-.339 1.497-.539 1.282-.06 3.187.733 4.484 1.018l-1.348.191c-1.807.216-2.977.222-4.633-.67m-23.536 8.945c2.696-1.777 5.193-3.878 7.97-5.547-1.001 1.792-3.916 4.986-5.362 6.725l-.073.06.073-.06c.85-.387 1.675-.947 2.5-1.398 1.677-.916 3.389-1.756 5.09-2.623.843-.429 1.647-.93 2.516-1.303-1.537 1.68-3.356 3.365-5.107 4.82l-.072.062.072-.062c1.413-.596 2.798-1.255 4.231-1.8 1.705-.65 3.47-1.189 5.147-1.905-2.305 1.582-4.64 3.157-6.846 4.875 3.065-1.111 6.29-1.416 9.493-1.942-2.315 1-4.385 1.862-6.487 3.28 2.466-.275 4.903-.11 7.367-.262-1.688.522-3.361 1.09-5.115 1.342q3.48.608 6.95 1.264c-1.148.196-2.331.363-3.451.691q2.119.678 4.195 1.477c-2.962.397-7.23.534-10.117.004 1.197-.416 2.41-.807 3.589-1.269-1.778.05-3.477.073-5.246-.153q1.428-.69 2.836-1.42c-1.96.014-3.951.162-5.906.106.983-.462 1.71-.897 2.479-1.688-2.163.424-4.225 1.244-6.381 1.643.471-.492.952-.974 1.358-1.523-1.328.497-2.654 1.014-4.009 1.436l.925-1.722c-1.517.608-2.862 1.27-4.233 2.166.527-1.117 1.197-2.193 1.686-3.32l.063-.052-.063.052c-1.602 1.052-3.165 2.29-4.87 3.16.331-1.054.824-1.907 1.406-2.835-1.46 1.042-2.926 2.024-4.52 2.854.53-.916 1.025-1.855 1.534-2.783-.998.7-1.947 1.32-2.67 2.324a15.7 15.7 0 0 1-.58-2.573c-.5.547-1.126 1.408-1.822 1.684-.212.084-.154.05-.395-.049-.132-.329-.069-.594-.02-.933l.024-.153-.115-.096c-.635.31-1.245.665-1.859 1.013.019-.5.13-1.172-.108-1.612-.505.172-.751.85-1.226.91-.117-.341-.05-.62.033-.962.222-.912 1.669-2.391 2.465-2.89l.147.05-.137.716.115.03c.652-.558 1.136-1.415 1.623-2.123-.044.7-.11 1.398-.165 2.096 1.052-1.032 2.038-2.134 3.087-3.172-.38.95-.81 1.884-1.217 2.823 1.427-1.401 2.713-2.936 4.17-4.316-.745 1.985-1.936 3.526-2.928 5.368 1.06-1.289 2.12-2.64 3.327-3.793 1.282-1.226 2.719-2.25 3.965-3.525-.663 2.069-2.046 3.9-3.19 5.727l.052-.043c2.225-1.793 3.843-4.322 6.081-6.142a37 37 0 0 0-3.25 5.827c1.752-1.91 3.968-3.487 5.934-5.179-1.707 2.185-3.143 4.54-4.963 6.643m7.969-5.548.055-.052zm26.73.446c.406-.067 1.124-.008 1.435-.24l-.425-.234c1.687-.168 3.25.506 4.92.665-.672.215-1.351.367-2.038.521-1.55.24-2.542.08-3.892-.712m-5.686 1.52c-.4.047-.823.105-1.226.052-.557-.075-1.083-.136-1.446-.588l.049-.128.743-.172-.726-.553c.538-.046.945.01 1.463.167.587.178 1.846.466 2.153 1.033-.276.234-.654.169-1.01.189m-16.299-.564.07-.066zm26.875 3.895c-.984.337-2.106.501-3.105.112l-.062-.193c.193-.187.353-.204.61-.255.268-.053.355-.066.595-.215-.342-.234-.609-.501-.896-.798 1.625.028 3.274.429 4.868.731zm55.826-.035-.076-.026-.062-.243.063.027zm-69.978 1.366c.456-.051.918-.068 1.376-.096l.099-.132a4 4 0 0 0-.63-.578c1.371-.112 3.054.885 4.286 1.435l-1.504.135c-1.545.125-2.271-.038-3.627-.764m-42.182 1.195-.016-.253c.283-.734 1.187-1.217 1.816-1.636.054.183.007.272-.082.448-.335.662-1.034 1.197-1.718 1.44m52.751 3.181-.203.024c-1.009.108-1.745-.49-2.487-1.096.387-.007.797.09 1.172.177.662.156 1.148.302 1.517.895m-5.111 3.057c-.432-.215-1.006-.418-1.252-.851 1.883.173 3.37 1.362 4.899 2.374l-1.662-.168c-1.094-.132-2.66-.16-3.535-.877-.212-.174-.281-.189-.304-.472.528-.204 1.292-.048 1.854-.006m-52.932-.666-.177-.062zm0 0 .1.22zm.1.221.073.033zm9.398 3.749.058.06zm6.693 3.626c2.237-1.534 4.286-2.463 6.984-2.893.593-.073 1.193-.115 1.79-.07 1.997.152 3.573 1.611 5.498 2.013 1.614.338 3.388-.108 5.045.1l.134.019c-3.424.515-5.182.531-8.198 2.488-.624.557-1.147.926-1.969 1.127-2.343.576-7.206-1.483-9.284-2.783m9.616-.848c-.076.387-.052 1.024.148 1.367l.383.046c.14-.403-.065-.928-.237-1.311-.024-.054-.056-.103-.084-.154zm1.535.118.166.163.244-.075-.116-.176zm-7.762.079c-.187.358-.28.482-.274.894.205.24.332.303.632.398.192-.305.374-.525.332-.904-.246-.269-.335-.281-.69-.388m22.062-2.126-.085-.037zm.11.356-.024-.14zm10.165.58c.416.046 1.24.254 1.57.013l-.263-.43c1.608.366 2.993 1.618 4.443 2.393l-1.815-.261q-.14-.026-.283-.05c-1.504-.238-2.451-.778-3.651-1.666m-20.027 2.396.055-.083z"/><path d="M117.807 88.035c.605-.567 1.601-.628 2.386-.67-.755.302-1.588.513-2.386.67m-.088.113.088-.113zm-.285.144.285-.144zm-.098.101.098-.101zm-.299.152.298-.153zm-9.324-.058c.72.372 1.372.856 2.087 1.235 2.553 1.354 4.055.186 6.55-.358l.138-.029c-.502.447-1.249.844-1.864 1.125-2.623 1.199-5.206.158-7.71-.755.337.647.684 1.264 1.172 1.813 1.68 1.892 3.043 1.529 5.237 1.679l-.01.06a6.5 6.5 0 0 1-2.718.233c-.55-.12-1.081-.259-1.58-.532-1.233-.676-2.992-2.266-3.394-3.618l.116-.127c.2.107.36.187.584.227l-.468-.956c.62.008 1.24.002 1.86.003m9.093.166.231-.108zm-.423.153.423-.153zm-.133.066.132-.066zm-15.305 5.967-.02.086c-.016-.034-.035-.065-.047-.1-.102-.306-.046-.724-.036-1.044.057-1.897.783-3.204 1.718-4.803.241.317.257.845.326 1.237-1.096 1.534-1.767 2.715-1.94 4.623m-9.285-5.623.06.028zm24.827.12.135-.065zm23.781.735c.534.006 1.494.22 1.948-.03-.109-.335-.406-.48-.678-.696 1.568.193 3.037 1.262 4.385 2.027l-2.014.027c-1.382-.203-2.436-.633-3.642-1.328m-49.643-.32-.108-.25zm0 0 .127.144z"/><path d="M115.802 91.056c-1.078.892-2.294 1.22-3.68 1.228-1.462.008-3.24-.38-4.298-1.441.622.092 1.24.403 1.855.56 2.504.646 3.765.348 6.122-.505zm-6.702 3.087c-.42-.033-.802-.193-1.183-.365-1.228-.552-1.648-1.403-2.087-2.594.665.286 1.372 1.639 1.966 2.17.365.327.873.559 1.304.79m-6.971 2.389-.083.124c-.101-1.546-.124-2.839.375-4.331.153.136.103.07.215.286.63 1.217-.102 2.736-.507 3.921m38.264-2.335c.555.077 1.375.407 1.901.167l-.028-.329c1.145.363 1.966 1.023 2.896 1.753l-1.825-.192c-1.154-.275-1.986-.716-2.944-1.399m-36.713 2.031.068.142c.073.398.225.881.074 1.264l-.292.233c.23.473.553.91.642 1.433-.054-.045-.114-.085-.164-.136-.667-.682-.93-2.427-.838-3.338.028-.278.01-.34.23-.525.304.176.389.566.512.877l-.164.192zm1.671 3.681c-.03-.023-.062-.041-.088-.068-.645-.66-.568-2.257-.628-3.145.033.025.07.047.1.076.668.635.56 2.258.616 3.137m43.843-2.08c.55-.101 1.225-.066 1.735-.251-.183-.13-.336-.24-.481-.415q-.05-.062-.096-.126c1.243-.06 2.548 1.163 3.54 1.85l-1.922-.153c-1.076-.103-1.837-.395-2.776-.905m36.081 1.106.069.063zm-79.026.314-.084-.081zm-2.077.051.047.062zm40.358 1.799c-.33.02-.663.039-.994 0-.457-.054-1.165-.17-1.457-.557.288-.266.87-.323 1.263-.434-.05-.131-.73-.293-.92-.444l.048-.307c1.248-.106 2.922 1.002 4.013 1.57zm-38.156-1.412-.104-.07zm2.62 1.322-.106-.123zm0 0 .076.083zm-6.068 5.152c-.832-.615-1.181-1.822-1.907-2.558-.842-.853-2.046-1.175-2.994-1.889l-.107-.084c.54.075 1.095.17 1.592.4 1.745.81 2.752 2.4 3.416 4.131m-2.04-.123c-.157-.133-.107-.067-.206-.242-.531-.941-1.596-1.83-1.968-2.723.391.045.717.162 1.034.394.845.62.973 1.61 1.14 2.57m6.324-2.851-.056-.061zm0 0c.7.46 1.586.97 1.983 1.727-.734-.365-1.66-.933-1.984-1.727m6.464.463-.047-.126zm62.867 2.537c-.453-.642-.902-1.262-1.24-1.975.895.495 2.281 1.768 2.686 2.724l-.075.138-.575-.135-.065.177c.259.97.94 1.851 1.538 2.643l-1.103-.789c-1.303-.986-2.498-2.176-3.432-3.514.75.26 1.51.49 2.267.73m-59.946-1.622-.064-.05zm33.535 1.252c-.63-.338-1.427-.662-1.823-1.274 1.791.17 3.16 1.203 4.594 2.194a42 42 0 0 1-3.279.048c-1.07-.027-1.876-.229-2.802-.767 1.11-.141 2.194-.18 3.31-.201m-60.236 2.626c-.359.381-.7.783-1.13 1.087l-.228-.115c-.193-.687.356-1.798.69-2.412.738-1.353 1.805-1.956 3.249-2.355.442-.032.896-.076 1.338-.031.318.032.689.123.88.397.203.29.251.597.164.941-.378 1.493-3.614 1.527-4.844 2.4zm-4.909.789c-.412-.628-1.259-1.371-1.5-2.065-.192-.554.419-.976.632-1.439.14-.306.29-.606.441-.907.31.09.618.155.866.374.196.173.235.511.26.76.082.843.403 3.255-.147 3.914-.337-.124-.376-.337-.552-.637m26.325-1.568c-.886-.182-3.025-2.035-3.632-2.797 1.611.36 2.705 1.51 3.631 2.796m-3.659.03c-1.19-.475-2.504-1.84-3.585-2.59l.138.027c1.642.361 2.556 1.176 3.448 2.563m-9.846-1.989.046-.075zm-1.237 1.986c.222-.655.766-1.481 1.237-1.986-.21.737-.634 1.498-1.237 1.986m15.832 2.182c-.133-.027-.276-.042-.403-.093-1.067-.425-2.989-2.298-3.463-3.352.177.031.345.07.51.147 1.191.553 2.86 2.082 3.357 3.298m-7.204-2.794-.072-.055zm0 0c.677.346 1.395.688 1.966 1.198 1.597 1.427 3.415 4.98 4.076 6.994.063.191.102.373.133.572-.37-.271-.62-.968-.82-1.377l-.037-.1a6 6 0 0 1-.093-.282c-.631-2.116-2.39-3.218-3.941-4.588.666.316 1.33.629 1.975.987-.88-.976-1.457-1.88-2.788-2.217l-.179-.194.322-.316c-.096-.299-.261-.317-.475-.513-.052-.049-.093-.109-.139-.164m37.247 1.123c-.577-.28-1.076-.57-1.501-1.056 1.761.486 3.33 1.508 4.914 2.393l-3.21-.055c-1.319-.164-2.292-.442-3.474-1.05 1.101-.032 2.179-.066 3.27-.232m-45.959-.421.084-.09zm-.154.277.154-.277zm-.056.069.056-.069zm59.554.484c.436.055.87.13 1.305.2l.075-.067q-.308-.296-.619-.588c1.357-.161 2.336.84 3.382 1.568-.601-.016-1.204.015-1.805.032-1.089-.07-1.551-.454-2.338-1.145m-42.098 3.601c-1.448-.47-2.621-1.673-3.799-2.597.543.1 1.124.198 1.647.369 1.114.364 1.657 1.237 2.151 2.228"/><path d="M110.347 114.292c-1.853-.622-3.653-2.757-4.888-4.206 1.432.468 3.94 3.104 4.888 4.206m-5.749-.552c-1.089-.924-2.284-1.616-3.202-2.74 3.416.989 4.134 4.261 5.985 6.915-1.414-.854-2.784-1.79-4.194-2.654l-.091-.109.066-.108c.924.129 1.713.584 2.505 1.046-1.255-1.76-2.12-1.867-3.703-3.062l-.098-.076q1.369.384 2.732.787m27.837-1.707c-.444-.283-.915-.531-1.373-.79 1.39.007 2.84 1.034 4.032 1.692l-1.556.273c-1.227-.121-2.016-.47-3.076-1.065.662.005 1.315-.054 1.973-.11m6.137.395c.452.064.94.178 1.391.086-.044-.388-.406-.729-.647-1.04 1.461.34 3.037 1.649 4.248 2.512l-1.158-.093c-1.653-.022-2.507-.54-3.834-1.465m-23.657 1.461c-1.245-.502-2.695-1.163-3.615-2.163.817.153 1.635.458 2.43.702.441.47.827.921 1.185 1.461m35.533-.288c-1.034-.471-1.746-1.01-2.491-1.865 1.986.454 3.666 1.886 5.397 2.88q-1.711.047-3.422.111c-1.131-.086-2.048-.336-3.094-.76 1.228-.319 2.34-.373 3.61-.366m24.465 1.972c-.505-.466-1.07-.936-1.487-1.485-.248-.328-.314-.55-.27-.954l.153-.09q.335.152.665.315c-.143-.476-.346-.92-.548-1.372.257.124.493.27.72.443.489.37 1.339 1.05 1.417 1.676-.252.07-.141.062-.421.038q-.103-.01-.205-.023c-.167.358.073 1.006.127 1.422zm-64.191.628c-1.109-.466-3.034-1.33-3.526-2.483-.048-.112-.06-.214-.083-.332 1.42.462 2.732 1.63 3.609 2.815m100.928-1.076c1.496-.236 3.028-.318 4.535-.449 3.615-.385 7.386.15 11.01.251-1.423.337-2.83.586-4.29.686-3.701.352-7.616.287-11.254-.488m-52.933 1.975c-.076.007-.153.018-.23.022-.462.02-1.062-.317-1.388-.625-.189-.178-.176-.182-.169-.452.195-.022.361-.028.559-.014l.19.016c.043-.365-.096-.572-.234-.908l.056.022c.295.114.592.23.851.413.475.335 1.183.836 1.274 1.434l-.132.139zm-47.806 1.003c-1.356-.674-2.296-1.205-3.118-2.516.577.306 1.218.485 1.773.829 1.77 1.097 3.296 3.727 4.626 5.377-1.554-.638-2.599-2.208-3.281-3.69m-81.031-1.578c1.354-.247 2.69-.495 4.065-.597 2.195-.176 4.443-.091 6.645-.083l10.679.072c6.311.075 12.69-.115 18.984.397-1.442.253-2.948.276-4.41.322-5.13.244-10.284.296-15.418.431-5.837.153-15.159.837-20.545-.542m80.841-.324.218.073zm71.824 2.298c-.58-.784-.912-1.502-1.163-2.435q.054.026.107.054c.67.374 2.177 1.468 2.415 2.206l-.123.114c-.224.007-.457.006-.679.037-.342.047-.434.103-.63.381.396.931 1.027 1.797 1.569 2.652-.441-.267-.864-.568-1.292-.856-1.194-.919-2.419-1.823-3.448-2.93zm-71.606-2.225c.604.123 1.407 1.422 1.74 1.934.22.34.41.66.524 1.052-.641-.494-1.906-2.247-2.264-2.986m-9.748.302-.184-.046zm0 0 .24.243zm.24.243.1.072zm.099.072.344.235c-.127-.063-.231-.15-.344-.236m35.691 1.385-1.089-1.322c.044.005.09.005.133.012 1.698.292 3.535 2.301 4.547 3.588-1.052-.566-2.169-.869-3.317-1.172-1.559-.462-3.135-1-4.624-1.652 1.442.346 2.87.48 4.35.546m-35.347-1.149.172.168zm.173.168c.43.163.603.43.843.801-.35-.247-.593-.45-.844-.801m2.783.174-.08-.061zm0 0c1.636.555 2.822 1.265 3.606 2.872q.048.1.088.203c-1.41-.653-2.58-2.015-3.694-3.075"/><path d="M102.891 118.095c1.191.75 2.134 2.549 2.762 3.796-.543-.521-1.048-1.075-1.556-1.63l-1.1-.513c.145-.184.623-.173.862-.206-.043-.216.01-.117-.234-.283-.749-.512-1.732-.89-2.579-1.218.613.02 1.231.057 1.845.053m44.965 1.883c-1.056-.443-1.918-1.073-2.836-1.744 2.284.622 3.879 1.62 5.81 2.94-1.309-.216-2.633-.153-3.955-.136-1.274-.089-2.273-.358-3.447-.858 1.482-.127 2.94-.19 4.428-.202m-37.034.217q-.084-.013-.167-.03c-.862-.19-1.645-1.006-2.12-1.707.387.01.754.118 1.106.278.666.304.947.794 1.181 1.459m17.225-1.651.077.053zm-11.899 2.617c-.629-.336-1.126-1.587-1.463-2.201.794.412 1.16 1.416 1.462 2.2m-6.828 1.263c-.788-.463-1.606-1.221-2.174-1.936 1.031.316 1.636 1.064 2.174 1.936m25.487-.436c-.494-.513-1.02-.945-1.576-1.386 1.549.087 3.442 1.97 4.638 2.914l-1.965-.262c-1.308-.181-2.256-.593-3.28-1.411a19 19 0 0 1 2.183.145m40.469.519c-.585-.575-1.086-1.126-1.406-1.89.562.275 1.077.663 1.555 1.063.525.44 1.306 1.041 1.37 1.749-.364.146-.637-.012-1.007-.11l.824 2.197-.846-.779c-1.003-1.012-2.032-2-3.05-2.998zM160.146 124c-.74-.382-2.162-.553-2.71-1.138-.184-.195-.282-.355-.278-.626.311.035.431.084.723-.04l.07-.198-.387-.653c.149.037.296.076.441.125.93.317 2.38 1.84 2.811 2.731l-.114.07zm-127.27 20.86c1.187-3.328 2.888-6.492 4.133-9.804 1.01-2.685 1.919-5.417 2.876-8.121.495-1.397.934-2.874 1.606-4.195 1.637-.033 4.697 1.447 6.324 2.073 1.915.736 6.854 2.355 8.333 3.457 1.188.885 3.596 6.811 4.706 8.534 1.069 1.659 5.82 6.291 7.459 7.452 1.177.834 2.553 1.48 3.822 2.173-3.556-.941-6.927.102-10.472-.349q-6.448-1.3-12.922-2.465c-1.727-.323-4.651-1.168-6.316-1.04-1.106.085-2.252.476-3.33.743zm113.731-18.578c-.497-.356-1.292-.816-1.53-1.386 1.794.285 3.494 1.877 4.913 2.94-1.211-.266-2.494-.335-3.727-.498-1.326-.24-2.491-.671-3.727-1.203a53 53 0 0 1 4.071.147m39.026.735c-.513-.58-1.035-1.146-1.466-1.791 1.575.574 3.223 2.265 3.983 3.72a16 16 0 0 0-2.544-.846c.857 1.202 1.334 2.656 2.15 3.9-1.227-.588-2.38-1.42-3.53-2.149-1.33-.976-2.65-1.966-3.836-3.118 1.786.62 3.545 1.554 5.173 2.51-.426-.97-.97-1.845-1.527-2.741zm-55.233.076c-.448-.596-1.132-1.063-1.68-1.573 1.744-.105 2.94.741 4.384 1.579q-1.352.01-2.704-.006m25.513.899c-.7-.068-1.764-.256-2.328-.687.308-.21.58-.298.696-.661l-.327-.566q.162.046.319.107c.706.266 2.188.9 2.501 1.601l-.104.157zm46.549-1.29c1.542-.22 3.046-.434 4.601-.526 2.306-.06 4.675.244 6.928.711-1.424.162-2.859.246-4.287.353-2.515.079-4.781.117-7.242-.538m-93.762.749c-1.105-.002-2.078-.222-3.13-.535 1.123-.11 2.176-.175 3.13.535m-1.54.387c-1.903.262-3.188.128-4.998-.56 1.38-.175 3.774-.136 4.998.56m-2.747.626c-2.398.422-3.625.066-5.767-.925 1.419-.089 4.534.197 5.767.925m-6.25.387a29 29 0 0 1-2.018-.988c1.391.082 2.944.636 4.296.99-1.364.111-2.73.262-4.096.112a6.6 6.6 0 0 1-2.496-.9c1.435.337 2.838.683 4.314.786m38.104 1.386 2.291.031.066.073-.066-.073c-.492-.335-.948-.69-1.406-1.069 1.568.353 2.644 1.06 3.912 2.01v.056l-.155.129c-1.8.136-3.09-.247-4.642-1.157m-5.111 1.633c-.914.038-2.532.245-3.255-.417l.516-.222c-.306-.457-1.06-.852-1.506-1.216.3.01.601.023.899.064.875.121 3.047 1 3.575 1.718zm75.8-1.269q1.942-.242 3.89-.425c2.182-.211 4.442.238 6.593.57-1.357.162-2.697.37-4.064.433q-1.617.06-3.228-.085t-3.19-.493m-84.135 1.494.39.345-.011.174c-.86-.03-1.936-.895-2.642-1.354.813.049 2.282.082 2.932.604l-.095.172zm74.873.612-.048-.061zm-60.773 2.793c-.727.032-1.768.018-2.378-.423-.147-.106-.105-.095-.143-.289a5 5 0 0 0 .804-.203q-.564-.412-1.12-.832c1.069-.047 1.687.223 2.58.817.325.216.7.465.783.858zm-14.102 1.616c-.2-.04-.377-.081-.581-.053-.316.044-.576.09-.895.004-1.235-.333-1.744-1.346-2.356-2.376 1.12.142 2.653 1.09 3.484 1.848.242.22.329.242.347.577m6.401.352c-.97-.169-1.475-.33-2.227-.971l.032-.11.745.006.114-.131.06.104c-.376-.551-1.144-.87-1.624-1.371 1.309.17 2.356.621 3.324 1.541.247.235.499.485.517.84-.322.185-.58.108-.942.091m-25.285-1.418.054.054zm14.699 6.364c-1.412-1.33-2.859-2.673-3.813-4.384 1.971.374 4.515 1.645 5.982 3.03-.879-.286-1.766-.548-2.65-.82l-.351-.073-.08.18c.169.728.577 1.403.911 2.066m9.678.997c-.17.03-.386.028-.56-.001-.607-.102-1.119-.506-1.475-.986l.094-.095.486.02c-.091-.338-.743-.652-1.044-.858l.16.012c.78.061 2.374.537 2.86 1.176.156.206.113.11.07.395zm-97.157 3.221c1.298.024 2.512-.148 3.79-.336 2.251-.195 4.94.387 7.16.734-1.2.21-2.42.3-3.634.379-2.348.242-5.091.048-7.316-.777m2.517 4.823c1.386-.462 2.872-.744 4.301-1.043 1.99-.284 5.304.52 7.204 1.237q-2.265-.114-4.533-.149c-2.325-.184-4.65.123-6.973-.045m7.097 2.233c-.645-.174-1.262-.331-1.856-.645 3.122-.029 10.433 1.14 13.494 2.028-2.393-.103-4.792-.043-7.185-.001-4.07.074-8.026.127-12.096-.138 2.536-.633 5.054-.934 7.643-1.244m5.704 3.724c-1.965.181-5.497.315-7.225-.815.18-.155.873-.145 1.137-.167 2.624.004 5.21.505 7.808.828-.557.12-1.152.121-1.72.155m-11.65 2.52c1.422-.636 2.908-1.097 4.456-1.261 1.653-.133 3.33.343 4.964.553q-2.329.324-4.678.448c-1.594.031-3.155.097-4.741.26m13.368 34.936 17.702-.321c11.68-.117 23.372-.094 35.05-.363 4.653-.147 9.345-.055 14.002-.057l25.5.005h66.967q-10.608 10.642-21.462 21.032c-1.168 1.103-3.146 3.409-4.48 4.061-1.71.837-5.675 1.526-7.72 2.075q-12.083 3.225-24.205 6.296l-14.194 3.724c-2.228.59-4.596 1.424-6.867 1.78-.403.063-.795.006-1.19-.075-7.035-1.445-14.014-3.423-20.997-5.116-10.45-2.534-20.975-4.913-31.368-7.665-.548-.145-1.387-.286-1.828-.66-1.453-1.228-2.786-2.64-4.139-3.977l-6.873-6.82c-4.632-4.602-9.495-9.1-13.898-13.919m38.952 4.41c-1.704.407-2.94 1.123-3.898 2.647-1.385 2.208-1.48 5.224-.875 7.696.496 2.026 1.593 3.84 3.412 4.934 1.506.905 3.216 1.134 4.907.672.719-.196 1.39-.532 2.051-.87l.036-8.005q-2.15-.21-4.303-.376l-.307.082c-.357.642-.14 2.007-.097 2.739.73.093 1.473.164 2.196.293.028.85.28 2.375-.35 3.025-.413.425-1.155.472-1.707.406-.95-.114-1.76-.675-2.32-1.434-1.078-1.46-1.272-3.723-.962-5.474.196-1.103.67-2.284 1.621-2.945.691-.48 1.5-.566 2.311-.411.99.19 1.56.707 2.217 1.434.616-.767 1.191-1.423 1.991-2.01-1.092-1.352-2.35-2.22-4.12-2.433-.605-.073-1.2-.035-1.803.03m55.866.534-1.822.047q-.067 1.577-.054 3.155l3.615-.004-.012 13.489 2.418-.133-.004-1.209-.009-12.153c1.085-.025 2.177-.029 3.26-.101l.096-3.006q-3.744-.075-7.488-.085m11.4-.002c-.258.092-.298.04-.422.304-.71 1.509-1.484 5.641-1.97 7.525-.735 2.851-1.653 5.659-2.362 8.515.866-.064 1.736-.148 2.603-.181.297-1.142.544-2.332.918-3.449a27 27 0 0 1 2.607-.169l1.806-.02c.224 1.109.47 2.219.636 3.338a37 37 0 0 0 2.65-.345c-.729-3.254-1.674-6.411-2.62-9.606-.58-1.959-1.093-3.95-1.787-5.873zm-19.91.052c-.008 5.686-.167 11.387-.119 17.07 2.615-.064 5.22-.234 7.832-.315.058-1.036.013-2.08-.007-3.118q-2.577.09-5.155.058l-.046-13.705c-.832-.004-1.674-.033-2.505.01m27.919.027-.03 15.323 2.507-.225c.01-1.356-.311-5.744.511-6.722.293-.04.285-.105.538.092 1.168.909 1.925 3.39 2.436 4.784l.608 1.538q1.307-.189 2.617-.35c-.67-2.085-1.355-4.86-2.961-6.39 1.004-.392 1.593-.914 2.027-1.916.516-1.188.583-2.724.08-3.927a3.33 3.33 0 0 0-1.845-1.839c-1.815-.724-4.529-.386-6.488-.368m-67.165.118c0 5.238-.077 10.49.006 15.727l2.49.156c-.008-5.294.147-10.59.124-15.883zm4.88-.007-.007 16.095c2.155.082 6.358.96 8.01-.525.394-.354.659-.791.917-1.246.492-1.534.71-3.378-.084-4.85-.293-.542-1.655-1.593-1.71-1.903l.14-.088c.842-.54 1.14-1.109 1.343-2.094.275-1.322.109-2.96-.67-4.094-.482-.702-1.133-1.048-1.958-1.193-1.88-.33-4.063-.12-5.981-.102m11.225.007.05 16.817 2.638.034c.004-1.329-.272-5.681.146-6.667.28-.084.513-.047.773.079 1.588.77 2.356 4.335 3.025 5.935l.371.813 2.97.018c-.902-2.605-1.629-5.249-3.684-7.195 1.385-1.1 2.215-1.723 2.442-3.587.196-1.606.078-3.828-1-5.115-.718-.856-1.828-1.072-2.894-1.132-1.597-.09-3.236-.008-4.837 0m14.407-.004q-.99 4.85-2.119 9.67c-.59 2.444-1.289 4.888-1.785 7.35l2.685.065c.256-1.177.523-2.337.865-3.492 1.312-.009 2.628.006 3.94-.045l.21.12.865 3.352 2.653.063q-2.087-8.576-4.415-17.089z"/><path d="m164.906 205.879.005-3.62c.952-.001 1.987.014 2.863.424.417.195.787.489.911.954.165.619-.137 1.249-.459 1.757-1.028.666-2.148.504-3.32.484m-62.036.648-.008-3.545c.949-.006 1.88-.097 2.747.358.367.194.644.48.741.895.148.635-.121 1.334-.419 1.884q-.05.045-.103.089c-.853.667-1.956.404-2.959.319m11.154.687-.004-4.22c.85-.005 1.73-.064 2.504.348.491.261.91.646 1.044 1.204.173.726-.082 1.614-.452 2.238-1.025.566-1.961.47-3.093.43m39.778 2.318 1.493-5.828c.735 1.731 1.07 3.84 1.534 5.672-.37.22-1.043.13-1.483.14zm-27.86 1.043c.542-2.228.945-4.508 1.428-6.751.528 1.222 1.181 5.053 1.567 6.64l-1.591.045zm-23.21 2.77.064-4.253c1.059-.001 2.015-.046 2.978.473.484.26.916.697 1.043 1.245.178.767-.122 1.529-.51 2.175-1.082.82-2.32.492-3.576.36"/></svg>