<svg xmlns="http://www.w3.org/2000/svg" viewBox="0 0 256 256"><path d="M123.068 0h6.74l.13.025c1.985.375 4.015.447 5.998.862 3.813.8 7.516 1.978 11.393 2.491 2.986.395 5.956.327 8.955.433 3.929.137 7.927.745 11.622 2.102 6.317 2.32 11.522 6.568 17.588 9.326 6.789 3.086 11.518 3.778 17.669 8.811 2.582 2.113 4.823 4.532 6.974 7.073 1.613 1.907 3.178 3.891 4.974 5.632 5.151 4.996 11.047 7.873 15.289 14.036 3.754 5.455 6.093 11.725 9.162 17.558 3.517 6.683 7.82 11.35 9.852 18.914.896 3.331 1.381 6.776 1.994 10.167q1.425 7.624 3.23 15.168c.452 1.922.78 3.912 1.362 5.795v16.94c-.595 3.15-1.187 6.322-1.988 9.428-.642 2.504-1.492 4.992-1.954 7.537-.518 2.846-.505 5.81-.753 8.69-.365 4.258-1.586 8.795-3.373 12.68q-.974 2.074-2.102 4.068t-2.402 3.897c-1.593 2.371-3.314 4.62-4.707 7.123-2.23 4.01-3.52 8.407-5.602 12.474-3.024 5.91-7.617 10.744-12.851 14.759-2.182 1.673-4.465 3.152-6.501 5.013-2.5 2.286-4.583 4.92-6.93 7.347q-1.558 1.583-3.262 3.006-1.705 1.423-3.54 2.674c-6.775 4.625-13.508 5.877-20.856 8.998-3.246 1.38-6.195 3.278-9.282 4.96-4.737 2.58-9.732 4.115-15.04 4.983-5.531.903-11.142 1.125-16.715 1.653-2.96.28-6.201.527-9.06 1.377h-18.615c1.9-.428 6.044-.285 7.522-.882l-.427-.163.335.147q-4.237-.312-8.43-.995c-2.457-.42-4.891-.992-7.343-1.447-5.465-1.01-10.803-1.545-15.945-3.856q-3.3-1.514-6.42-3.368c-2.262-1.347-4.483-2.822-6.92-3.838-2.662-1.11-5.427-1.912-8.136-2.886-3.808-1.368-7.45-3.174-10.73-5.555-2.309-1.677-4.474-3.69-6.402-5.793-1.362-1.485-2.649-3.047-4.107-4.44-2.044-1.953-4.45-3.47-6.706-5.158-5.527-4.136-9.174-8.247-12.106-14.54-1.004-2.157-1.787-4.386-2.977-6.456-1.666-2.896-3.888-5.17-5.936-7.762-1.544-1.954-2.928-4.131-4.093-6.332-2.277-4.303-3.637-8.955-4.304-13.766-.264-1.904-.326-3.849-.783-5.72-1.192-4.888-3.403-9.471-4.68-14.345-.643-2.458-1.15-4.928-1.397-7.46-.18-1.841-.19-3.733-.463-5.558L0 135.71v-6.179c.41-1.17.638-2.439.916-3.647.982-4.263 1.723-8.49 1.818-12.876.087-4.036-.108-8.012.453-12.031.87-6.233 3.323-11.984 6.3-17.475 1.43-2.637 2.964-5.196 4.142-7.963 2.792-6.558 4.118-13.475 8.233-19.45 2.294-3.331 5.178-6.375 8.162-9.094 2.085-1.9 4.273-3.694 6.225-5.736 2.696-2.822 5.02-5.966 7.595-8.894 3.933-4.475 8.923-8.157 14.206-10.886 3.454-1.785 7.239-2.863 10.658-4.706 1.839-.991 3.564-2.3 5.303-3.459 2.798-1.864 5.656-3.554 8.736-4.91 4.732-2.085 9.569-3.166 14.712-3.582 2.373-.192 4.8-.224 7.145-.65 4.161-.756 8.227-2.144 12.338-3.136 2.014-.485 4.09-.666 6.126-1.036m41.56 7.357c.798.499 1.82.83 2.683 1.223q1.987.925 3.939 1.924 2.992 1.512 5.938 3.111c1.16.623 2.322 1.323 3.536 1.833l.12.051-.12-.05c-2.613-2.643-12.463-7.651-16.096-8.092m-97.197 12.37c-2.977.518-14.213 6.502-16.111 8.936l-.07.06.07-.06c.787-.353 1.549-.918 2.3-1.356q2.22-1.265 4.462-2.491l6.226-3.405c1.032-.556 2.145-1.042 3.123-1.683l.069-.072zm130.573 3.677.069.062c1.365 1.48 3.353 2.882 4.867 4.332 2.034 1.948 4.026 3.942 6.037 5.913 1.07 1.05 2.129 2.235 3.326 3.135-2.38-3.436-10.478-11.83-14.23-13.38zm29.378 28.239.053.058c.994 2.035 2.432 3.883 3.523 5.876 1.439 2.627 2.69 5.359 4.1 8.002q2.263 4.322 5.114 8.28c.597.842 1.255 1.952 2.02 2.629l.057.11-.056-.11c-.406-1.005-1.125-1.932-1.71-2.841q-1.286-1.995-2.47-4.052c-2.885-5.1-4.724-10.262-8.24-15.073-.704-.964-1.46-2.012-2.338-2.821zm-205.66 9.54-.066.066zc.703-.6 1.327-1.757 1.886-2.526q1.489-2.086 3.115-4.068c2.814-3.4 5.932-6.513 9.06-9.618q-.098.044-.197.092c-1.08.55-2.118 1.621-3.02 2.438-3.569 3.231-6.722 6.537-9.261 10.661-.585.95-1.238 1.96-1.583 3.02m-9.935 22.392C9.108 86.88 5.832 95.53 5.87 99.598c.936-2.293 1.38-4.812 2.247-7.144q.98-2.647 2.082-5.244c.492-1.132 1.33-2.449 1.588-3.635l.057-.055zm-2.394 81.882c-.228 3.843 1.938 13.027 4.38 15.86l.07.057-.07-.058c-.165-1.056-.672-2.16-1.02-3.175q-.855-2.474-1.593-4.985c-.733-2.507-1.075-5.075-1.736-7.582zm227.68 21.589-.05.064zc2.49-2.158 9.13-14.067 9.93-17.642-1.11 1.464-1.861 3.39-2.794 4.998-1.863 3.21-3.931 6.271-5.684 9.553-.519.973-1.15 2.03-1.452 3.09m-26.487 33.653-.105.082-.091.09.092-.09zc1.287-.865 2.496-2.016 3.733-2.974 4.252-3.296 8.267-6.238 11.832-10.333.711-.817 1.558-1.736 2.034-2.705-.7.522-1.334 1.248-1.972 1.85q-1.8 1.695-3.645 3.34c-2.75 2.442-5.61 4.754-8.332 7.226-1.247 1.132-2.581 2.291-3.65 3.596m-165.438.679.066.047c2.222 3.004 10.192 11.117 13.715 11.98l.07.064-.07-.064c-1.247-1.252-2.894-2.245-4.227-3.429-2.137-1.896-4.224-3.855-6.33-5.784-1.007-.921-2.024-2.011-3.157-2.767zm156.652 8.471c-1.557.678-3.047 1.577-4.536 2.393q-2.71 1.48-5.484 2.839-3.195 1.539-6.421 3.013c-.997.458-2.166.859-3.084 1.447l-.15.062.15-.062c1.388-.185 2.863-.845 4.177-1.331 5.594-2.07 10.742-4.497 15.348-8.36l.074-.071zM125.607 2.425l-3.888.396c.597.301 2.088.094 2.794.094 2.308-.002 4.645.155 6.945.351 3.432.293 6.724.863 10.096 1.548.951.24 1.908.516 2.888.601-4.796-1.96-13.625-3.648-18.835-2.99m19.238 3.138h.216zm-44.239.865c-5.891.473-11.434 1.724-16.833 4.176l2.075-.546c3.716-1.135 7.63-1.948 11.438-2.71 1.539-.309 3.403-.415 4.868-.914-.448-.146-1.073-.03-1.548-.006m63.864.885h.216zm-41.56 1.509q-1.48.071-2.96.18-1.479.107-2.955.252-1.476.144-2.948.325-1.472.18-2.939.397t-2.928.47-2.917.541-2.901.613-2.886.684-2.868.755-2.85.826q-1.418.43-2.827.895-1.408.465-2.805.964-1.396.5-2.78 1.033-1.383.534-2.754 1.102-1.37.567-2.725 1.168-1.356.601-2.697 1.235t-2.665 1.302-2.632 1.366-2.599 1.43-2.561 1.495-2.525 1.557-2.485 1.618-2.445 1.68-2.403 1.738-2.36 1.797q-1.168.913-2.314 1.855-1.145.941-2.268 1.911t-2.22 1.966-2.171 2.02-2.121 2.074-2.07 2.125-2.016 2.175-1.962 2.227-1.907 2.276q-.939 1.15-1.85 2.323-.91 1.173-1.79 2.368-.882 1.195-1.733 2.411-.85 1.217-1.671 2.454-.82 1.237-1.61 2.494t-1.548 2.534q-.759 1.276-1.485 2.571t-1.42 2.607q-.694 1.313-1.356 2.642-.66 1.329-1.289 2.674t-1.223 2.706-1.155 2.734q-.56 1.375-1.087 2.764-.526 1.387-1.018 2.788t-.948 2.814-.879 2.836-.808 2.857q-.386 1.433-.737 2.876-.35 1.442-.665 2.893t-.594 2.91-.52 2.922-.449 2.935-.375 2.945-.303 2.953q-.133 1.48-.229 2.96-.096 1.482-.155 2.966-.06 1.483-.082 2.967-.023 1.485-.008 2.97.014 1.484.065 2.968t.14 2.965q.067 1.148.157 2.294t.202 2.29.247 2.285.292 2.28q.157 1.14.335 2.275.18 1.135.38 2.267.202 1.132.425 2.26t.468 2.25.512 2.241.555 2.231q.289 1.112.599 2.22.31 1.106.642 2.207.331 1.1.684 2.195.354 1.093.728 2.18t.77 2.166q.395 1.08.811 2.151t.854 2.135q.437 1.063.895 2.117t.936 2.1.977 2.08 1.017 2.063 1.057 2.04 1.097 2.021 1.135 1.999 1.175 1.976 1.213 1.953 1.25 1.929 1.288 1.904 1.325 1.879 1.361 1.852 1.398 1.826 1.432 1.798q3.31 3.991 6.922 7.71 3.612 3.72 7.504 7.145c2.907 2.601 6.043 4.957 9.228 7.206q5.38 3.85 11.149 7.09c18.46 10.175 41.291 16.089 62.414 14.885q.255-.014.51-.033c29.89-.932 61.687-15.732 82.115-37.457 3.904-4.151 7.813-8.514 11.131-13.156q.677-.955 1.334-1.924t1.294-1.95q.637-.982 1.255-1.976.618-.995 1.215-2.001.598-1.007 1.175-2.025t1.134-2.048 1.093-2.07 1.051-2.092q.516-1.05 1.01-2.112.494-1.061.966-2.132t.924-2.151q.45-1.08.88-2.169t.837-2.186.793-2.203q.385-1.105.748-2.218.364-1.113.704-2.232.341-1.12.66-2.247.317-1.126.613-2.259.296-1.132.569-2.27t.523-2.282.477-2.292.431-2.3.386-2.31q.18-1.156.338-2.316t.292-2.323q.135-1.162.246-2.328t.199-2.332q.088-1.168.152-2.336.065-1.169.106-2.339t.058-2.34.012-2.34q-.006-1.171-.035-2.341-.048-1.49-.132-2.978t-.204-2.974-.275-2.968-.348-2.96-.42-2.951-.49-2.94-.562-2.927q-.3-1.46-.633-2.913-.334-1.453-.703-2.897-.37-1.444-.774-2.878t-.842-2.86-.912-2.837q-.474-1.413-.981-2.815t-1.048-2.79-1.116-2.764-1.183-2.736-1.248-2.707-1.314-2.675q-.673-1.33-1.378-2.643t-1.442-2.609-1.504-2.573-1.567-2.535-1.628-2.498-1.688-2.456-1.746-2.416-1.805-2.372-1.862-2.327-1.918-2.282-1.972-2.235-2.027-2.186-2.078-2.136-2.13-2.086q-1.053-1.005-2.131-1.983t-2.18-1.93-2.226-1.876-2.272-1.82q-1.148-.895-2.317-1.762t-2.36-1.706-2.401-1.645-2.441-1.587-2.48-1.524-2.517-1.464-2.552-1.4q-1.285-.684-2.587-1.336-1.301-.653-2.618-1.273t-2.65-1.207-2.678-1.14-2.706-1.075q-1.36-.52-2.731-1.006-1.372-.487-2.756-.94t-2.778-.87-2.799-.8q-1.404-.384-2.818-.732-1.413-.348-2.835-.662-1.422-.313-2.85-.59-1.43-.279-2.865-.521t-2.876-.45q-1.441-.206-2.887-.377-1.446-.17-2.895-.306t-2.902-.234q-1.452-.1-2.906-.162-1.455-.064-2.91-.09-1.456-.028-2.912-.019t-2.91.054q-.855.026-1.707.088m126.608 89.504c.108 5.153 1.45 11.939 3.25 16.79.217.587.457 1.437.855 1.915-.353-2.176-1.093-4.344-1.623-6.487-.803-3.232-1.428-6.435-1.958-9.72-.129-.797-.192-1.764-.524-2.498M4.428 122.491l.074.072zm-.122.224q-.21.656-.4 1.317-.189.662-.358 1.33-.17.666-.318 1.339-.149.672-.277 1.348t-.236 1.356-.195 1.363q-.087.682-.153 1.368-.066.685-.11 1.371-.046.687-.07 1.375t-.028 1.376.015 1.377.056 1.375.099 1.373.14 1.37.181 1.364.223 1.358l.083.18c.178-1.446-.054-2.953-.076-4.408q-.098-4.213.218-8.415c.092-1.087 1.274-8.824 1.206-9.117m249.684 4.738c-.183 2.503-.442 4.964-.847 7.442-.356 2.166-2.978 13.297-2.688 14.393 1.865-6.126 3.542-12.535 3.695-18.973.023-.871.12-2.033-.16-2.862M24.565 197.708c2.038 4.88 4.566 10.013 8.266 13.864.468.487 1.035 1.145 1.631 1.462-2.286-3.104-4.47-6.145-6.35-9.516-.724-1.297-2.507-5.065-3.547-5.81m51.673 43.149c5.008 3.323 13.77 8.085 19.734 8.256-3.271-1.115-6.547-2.213-9.734-3.56-1.732-.731-9.106-4.562-10-4.696m86.288 7.568c-6.26 1.109-12.502 2.218-18.744 3.43-2.906.563-5.808 1.035-8.682 1.763l.08.082.225-.045c3.375-.32 6.755-.87 10.1-1.415 5.73-.935 11.579-2.018 17.147-3.683l-.038-.109.144.067.095-.093zm-59.012 2.325c4.521 1.327 16.551 3.202 20.962 2.208-.786-.236-1.907-.168-2.74-.236q-3.352-.275-6.699-.602c-3.813-.398-7.706-1.205-11.523-1.37"/><path d="M130.406 245.207q-.168.01-.336.017c-4.956.177-9.886-.195-14.807-.74q-1.189-.129-2.374-.282-1.185-.154-2.368-.331t-2.36-.379-2.352-.427-2.343-.474q-1.17-.249-2.334-.521-1.163-.273-2.322-.569-1.157-.296-2.31-.615-1.151-.32-2.296-.662-1.146-.343-2.284-.709t-2.268-.754q-1.13-.39-2.253-.8-1.122-.413-2.236-.847t-2.218-.89q-1.105-.457-2.2-.936t-2.18-.98-2.16-1.024q-1.076-.523-2.14-1.068t-2.117-1.11q-1.052-.567-2.093-1.154-1.042-.588-2.07-1.196-1.03-.608-2.046-1.237-1.017-.629-2.02-1.278-1.004-.65-1.994-1.32-.99-.669-1.967-1.358t-1.939-1.399-1.91-1.437-1.88-1.477-1.85-1.513-1.82-1.552-1.787-1.587-1.755-1.623q-1.04-.98-2.055-1.987-1.015-1.006-2.005-2.036t-1.954-2.085-1.902-2.133q-.938-1.079-1.85-2.18-.91-1.1-1.794-2.224-.884-1.123-1.74-2.267-.855-1.145-1.682-2.31t-1.625-2.35q-.799-1.186-1.567-2.391-.77-1.204-1.508-2.428-.739-1.223-1.447-2.464-.709-1.242-1.386-2.5t-1.324-2.532-1.26-2.565-1.198-2.595-1.133-2.624-1.068-2.65q-.517-1.333-1.002-2.677t-.936-2.7-.869-2.723-.801-2.743q-.384-1.377-.734-2.763t-.665-2.779-.597-2.795-.527-2.809q-.247-1.407-.458-2.82-.212-1.414-.389-2.832-.176-1.418-.318-2.84t-.248-2.847-.178-2.853q-.071-1.427-.107-2.856-.035-1.442-.033-2.885 0-1.443.037-2.886t.109-2.884.179-2.88q.107-1.44.25-2.875.142-1.436.32-2.868.177-1.433.39-2.86.212-1.427.46-2.849.247-1.422.53-2.837.282-1.415.599-2.823t.668-2.808.737-2.79.805-2.771.873-2.751.94-2.729 1.006-2.704 1.073-2.68 1.138-2.652 1.202-2.623 1.267-2.594 1.33-2.561 1.391-2.528 1.454-2.493 1.514-2.457 1.574-2.419 1.633-2.38 1.69-2.338 1.748-2.297 1.803-2.253 1.858-2.209 1.912-2.162 1.964-2.114q.99-1.045 2.006-2.065t2.056-2.016 2.104-1.964q1.064-.97 2.152-1.912 1.088-.943 2.198-1.859 1.111-.916 2.244-1.804t2.287-1.748 2.329-1.693 2.37-1.634 2.409-1.575 2.447-1.517 2.484-1.456q1.25-.712 2.518-1.394t2.552-1.332 2.584-1.269 2.615-1.205 2.643-1.141 2.67-1.076 2.696-1.01 2.72-.943 2.742-.877 2.763-.809 2.781-.74q1.396-.354 2.8-.673t2.814-.603 2.83-.535 2.84-.465q1.424-.214 2.852-.394t2.86-.325 2.868-.255 2.873-.184 2.876-.114l.19-.01c4.977-.273 10.102.095 15.05.617q1.132.12 2.262.262 1.13.141 2.256.306 1.127.164 2.25.35 1.123.187 2.243.395t2.233.44q1.115.23 2.226.483t2.214.528 2.204.571 2.193.615 2.18.658 2.166.7q1.08.362 2.152.745 1.072.382 2.137.786t2.12.828 2.105.87 2.086.912 2.068.953 2.049.993 2.028 1.034 2.008 1.074 1.986 1.114q.988.566 1.964 1.152t1.94 1.191 1.917 1.23 1.892 1.267 1.866 1.304 1.84 1.34 1.813 1.378 1.786 1.413 1.757 1.447q.872.733 1.729 1.483t1.698 1.516q1.089.995 2.153 2.016t2.103 2.068q1.038 1.047 2.052 2.118 1.013 1.072 2 2.168t1.947 2.215 1.892 2.262q.933 1.143 1.837 2.307.905 1.165 1.78 2.352.877 1.186 1.724 2.393.846 1.207 1.664 2.435.817 1.227 1.605 2.474.787 1.248 1.544 2.513.757 1.266 1.483 2.55t1.42 2.584 1.358 2.618 1.293 2.651 1.229 2.681 1.163 2.71 1.097 2.738 1.031 2.763.963 2.788.895 2.81.827 2.831.758 2.85q.361 1.43.688 2.868t.619 2.883.548 2.898.478 2.91.407 2.922.337 2.93.264 2.937.194 2.943q.065 1.39.095 2.78.031 1.391.027 2.782t-.041 2.782q-.038 1.39-.11 2.78t-.18 2.776-.247 2.771-.315 2.764-.384 2.756q-.209 1.375-.452 2.745-.242 1.37-.518 2.733-.277 1.364-.587 2.72t-.653 2.704-.72 2.688q-.375 1.339-.785 2.668t-.851 2.649q-.442 1.32-.916 2.627-.475 1.308-.981 2.604-.507 1.295-1.045 2.578t-1.108 2.552-1.17 2.524q-.601 1.254-1.233 2.494-.631 1.24-1.293 2.463t-1.354 2.43-1.413 2.397-1.472 2.36-1.53 2.324-1.587 2.285-1.643 2.246q-.834 1.112-1.697 2.204-.862 1.091-1.751 2.162t-1.804 2.118-1.856 2.072q-.834.918-1.688 1.819-.853.9-1.725 1.783t-1.761 1.747-1.797 1.711-1.831 1.674-1.866 1.636q-.94.808-1.898 1.597-.957.789-1.931 1.558-.974.77-1.963 1.518-.988.75-1.992 1.478t-2.023 1.436q-1.02.708-2.053 1.395-1.033.686-2.08 1.352-1.047.665-2.107 1.31-1.06.643-2.134 1.265t-2.16 1.222q-1.085.6-2.184 1.177-1.098.577-2.207 1.132-1.11.555-2.23 1.087-1.121.531-2.253 1.04-1.132.51-2.273.995t-2.293.947q-1.151.462-2.312.9-1.16.439-2.33.853t-2.347.805q-1.178.39-2.363.756t-2.378.708q-1.192.342-2.392.659t-2.405.61-2.417.56-2.428.51-2.438.46q-4.173.7-8.38 1.143-4.209.442-8.436.625M63.8 127.786c-1.251-.401-2.48-.839-3.746-1.198-1.949-.552-3.931-.844-5.693-1.901-1.983-1.19-3.18-3.759-5.328-4.519-1.538-.544-3.522-.815-5.135-.51-4.069.77-9.367 3.24-13.223 4.93q-3.923 1.681-7.89 3.256-2.518.987-5.075 1.865c-1.512.507-3.073.915-4.508 1.624-.128.549-.258 1.096-.354 1.651 2.085-.523 3.795-1.756 5.808-2.433-.614.606-1.28 1.202-1.818 1.876 3.566-1.556 4.84-4.01 9.121-4.901-1.255.879-2.455 1.584-3.473 2.757 2.732-1.102 5.485-2.135 8.183-3.32 1.289-.566 2.63-1.459 3.952-1.86l.12.07c-.102.611-.934 1.166-1.419 1.517-1.204.87-2.575 1.464-3.773 2.347 2.119-.523 5.092-1.578 7.013-2.593 1.586-.839 3.047-1.916 4.553-2.888 1.249-.806 2.557-1.533 3.83-2.3-1.796 2.211-4.348 3.65-6.204 5.758 4.6-.452 8.773-3.031 13.438-3.05l1.275.643c1.271.635 2.317 1.665 3.575 2.322 2.277 1.19 4.712 1.934 7.039 2.996 2.625 1.198 11.13 6.22 13.676 5.81-.062-.078-.145-.219-.233-.257-4.726-2.055-8.817-5.032-13.249-7.596 2.293.509 5.823 1.506 7.812 2.715 4.09 2.194 8.462 3.887 12.568 6.076 3.323 1.77 7.034 4.61 10.27 6.064 4.412 1.98 18.821 2.186 24.284 1.984-2.493-.641-4.935-1.423-7.408-2.132-1.023-.293-2.247-.45-3.214-.87-.68-.296-1.28-.909-1.928-1.29-1.951-1.15-4.219-2.183-6.403-2.763 2.417 1.56 4.805 3.347 7.545 4.283-.925-.07-1.906-.096-2.806-.327-3.183-.82-5.855-3.24-9.047-4.323-2.56-.87-5.258-1.025-7.879-1.607-1.75-.388-3.555-1.151-5.144-1.972 2.363.243 4.78.355 7.068 1.023-3.18-1.77-6.918-1.792-9.65-3.323-2.563-1.436-4.094-4.29-6.853-5.472-1.887-.808-3.901-.733-5.898-.95-2.42-.261-6.485-1.16-8.448-2.596-.436-.319-.74-.783-1.049-1.22l.122.033c.348.095.671.207 1.005.344 2.743 1.117 6.154 1.46 9.087 1.872-1.749-.897-3.705-1.275-5.434-2.165-1.075-.554-1.926-1.45-2.984-2.029-4.19-2.291-8.666-2.4-13.275-1.706 3.035.732 5.678.884 7.447 3.786.41.673.773 1.374 1.382 1.894 2.109 1.804 6.33 2.052 8.369 4.575m155.141 66.673-.27.235-.17.053.17-.053zl.184-.056zm-84.064 9.822.056.079c.58.42 1.24.51 1.937.504-.49-.395-1.322-.474-1.937-.504zm14.51 4.703.027.118c.241.309.591.442.934.613l.142.034-.142-.034c-.1-.126-.201-.26-.315-.374-.216-.216-.325-.355-.646-.357m-67.944 1.474c-.445.15-.851.28-1.245.54l-.037.142a6 6 0 0 0 .973-.14c.129-.18.227-.335.309-.542.336.26.476.301.889.235.514-.083.763-.302 1.037-.716-.058-.04-.111-.09-.175-.121-.45-.225-1.351.373-1.751.602m27.333 5.174.181-.029c.871-.162 3.403-1.727 4.319-2.262l.09-.172-.22-.342c.374-.162.769-.154 1.17-.174 1.422-.069 3.17-.23 4.56.065 1.895.4 3.513 1.684 5.575 1.34 1.475-.245 2.292-1.527 3.295-1.723 1.607-.314 3.406.017 4.945-.568 1.439-.548 2.814-1.97 4.049-2.894q1.506-1.133 3.148-2.058c.252-.144.844-.53 1.124-.563.173-.02.41.102.587.089.145-.012.644-.368.794-.452 1.604-.89 3.285-1.083 5.024-.422 1.32.502 2.36 1.463 3.602 2.099 2.375 1.215 6.119.99 8.522-.072 3.299-1.458 6.172-3.963 10.012-2.487 1.482.57 2.705 1.543 4.069 2.325 3.63 2.08 7.392 1.491 11.061-.1q1.204-.528 2.393-1.09c-.88.037-1.796.046-2.665.192-2.37.4-4.454 1.208-6.917.834-3.76-.571-6.336-3.939-10.267-3.834-1.143.031-2.409.215-3.476.638-.923.365-1.575 1.219-2.463 1.653-3.056 1.494-8.51 2.505-11.287-.097a5 5 0 0 1-.595-.683c-3.408-1.207-3.131-1.553-6.755-.377-.74.24-1.585.34-2.288.66-2.81 1.277-6.415 5.127-8.954 5.692-.967.216-2.181.075-3.161-.032-.463.291-.934.574-1.388.878-1.097.75-2.97 1.102-4.262.858-.872-.163-1.46-.594-2.164-1.097-1.191.01-2.328-.169-3.508-.197-2.017-.049-4.039.03-6.058-.024-.79-.021-1.866-.264-2.616-.142-.276.045-.573.256-.767.448-.535.527-.837 1.244-1.329 1.807-1.189 1.362-3.505 1.55-5.204 1.608-4.845.163-5.962-4.082-10.246-3.686-4.372.404-5.028 1.994-8.582 3.602-4.371 1.978-10.586 2.034-14.619-.78-1.017.002-2.003.02-3.01.19-1.237.208-4.064 1.127-5.123.96-.156-.025-.398-.07-.521.047-.158.151-.239.334-.34.524l-.202.028c-.136-.322-.135-.516-.461-.676-.319.106-.468.17-.689.427.45.539 1.454.66 2.138.728 1.806.18 3.407-.623 5.152-.907 1.148-.188 2.2-.095 3.345.063 2.659 2.175 5.51 2.508 8.868 2.157 1.988-.208 4.2-.72 6.013-1.579 2.719-1.286 4.632-3.198 7.784-3.345 4.49-.208 5.866 4.316 12.395 3.385 1.287-1.083 2.782-1.48 4.127-2.425.25-.176.535-.251.828-.325-.357-.297-.716-.534-.89-.977l.003-.128c.852-.326 2.21.543 3.135.611.993.073 2.097-.225 3.107-.253-.98.744-2.02 1.104-3.179 1.479-.175.34-.31.743-.67.917l-.437-.276c-.907.356-1.696.922-2.605 1.268-.196.33-.427.572-.41.963.559.18 1.281-.276 1.771-.525.407-.207.836-.415 1.142-.762m19.06.05-.072.037zc.326-.082.554-.177.843-.339.27-.327.258-.592.277-.994-.057.004-.114 0-.17.012-.439.085-.75.939-.95 1.32m21.711.813-.066.139.066.141.525.113.03.084-.03-.084a2.7 2.7 0 0 0-.221-.44zm-12.858 5.276-.062.073zc.79-.164 1.723-.299 2.412-.725.418-.259.496-.442.604-.915-.625.234-2.561 1.204-3.016 1.64m-28.73 1.067-.114.051-.065.064c-.585.293-1.062.649-1.346 1.253.52-.288 1.01-.76 1.346-1.253l.065-.064zc.52-.22.694-.468 1.002-.931-.474.238-.692.51-1.002.93m42.418 10.038.19.162.183.056-.183-.056zm-43.776 3.248c-.576.465-1.376.801-1.887 1.275l.048.123c.593-.16 1.529-.284 1.891-.823.03-.044.052-.094.078-.14zc.116.039.333.089.451.074.772-.098 4.18-2.592 5.266-3.081 1.3-.586 2.888-.98 4.318-.948 5.114.116 7.277 4.92 13.216 4.832 3.655-.054 4.88-1.086 7.705-3.024.864-.593 1.694-.844 2.452-1.623 1.61-.356 4.323-1.204 5.894-.979.856.123 1.64.524 2.515.6l.173-.169-.1-.6c-.057-.016-.113-.043-.173-.048-.831-.06-1.51-.386-2.33-.564-2.782-.603-6.035.171-8.431 1.662-.97.604-1.847 1.356-2.812 1.969-3.208 2.036-7.33 1.555-10.514-.263-1.856-1.06-3.231-2.352-5.4-2.818-4.341-.933-6.69 1.042-10.027 3.393-.694.489-1.448.907-2.162 1.367zm.726 2.307-.055.052zc1.003-.419 2.383-1.451 3.195-2.204-1.153.277-2.496 1.258-3.195 2.204m24.77 4.508-.268-.006.075.089c.936.092 1.744.029 2.674-.105 3.02-.436 3.754-2.035 6.317-3.066 2.591-1.042 5.427-.849 7.948.23l.157.034-.157-.034a7.6 7.6 0 0 0-1.6-1.136c-.956-.503-2.005-.72-3.075-.788-4.874-.315-7.655 3.423-12.071 4.782m-8.97-.003q1.533-.06 3.068-.053l.055.085-.055-.085c-.779-.511-1.802-.71-2.634-1.148-1.836-.966-2.522-2.036-4.784-2.723-3.032-.922-5.142.287-7.728 1.667-.22.167-.36.297-.51.53l.078.185c1.105.046 2.356-.649 3.392-.985q.204-.066.41-.121.208-.056.417-.099.21-.043.422-.075.212-.031.425-.052.214-.02.428-.027.214-.008.428-.004t.428.02q.214.017.426.044.213.028.423.068t.419.091.412.115.406.137.397.16q.197.084.389.18.19.097.377.203.185.107.365.224c.816.528 1.549 1.165 2.421 1.603zm2.888-218.792c-3.564.897-5.337 4.02-8.197 6.006-1.708 1.185-3.743 1.827-5.327 3.192-.982.845-1.755 1.881-2.42 2.986-2.548 4.232-2.75 9.301-1.566 14.013q.087.363.184.724t.203.72q.106.358.22.714.115.355.239.708t.256.702q.132.35.273.696.14.346.29.689t.308.68q.158.34.324.674t.341.665q.175.33.358.656.182.326.373.648.191.32.39.637t.405.628.421.617.436.607.451.596.466.584.48.573q.245.283.495.56t.508.549q.258.27.522.535.264.264.535.522.27.257.547.508t.56.495q.284.244.573.481t.584.466.595.452.607.436.617.422.627.406.638.39c.88.526 1.767.952 2.727 1.311-.246-1.584-.445-3.209-.855-4.76-.782-2.965-2.746-6.523-.606-9.38.716-.956 1.837-1.799 3.045-1.95.847-.106 1.53.067 2.291.428 1.065.733 2.078 1.736 2.293 3.07.206 1.28-.31 2.531-1.084 3.524-1.412 1.808-2.652 2.835-2.358 5.35.147 1.261.398 2.513.595 3.767 6.018-2.21 12.41-10.693 15.062-16.371 2.228-4.771 3.66-10.532 1.764-15.64-1.33-3.586-2.446-3.983-4.907-6.482-.811-.824-1.235-1.674-2.335-2.177-1.414-.648-3.022-.672-4.432-1.361-2.916-1.425-3.742-4.484-7.516-4.266M160.528 49.8c-6.766.485-12.67 3.829-17.078 8.929-2.113 2.444-3.641 5.195-4.882 8.169-1.301 3.116-1.946 6.063-4.398 8.554 1.578-.514 3.278-.949 4.757-1.71 2.864-1.475 6.555-5.46 10.04-3.624 1.065.56 1.811 1.761 2.142 2.89q.056.194.092.393.035.2.05.401.014.202.008.404-.006.203-.033.403t-.075.397-.115.388q-.067.19-.154.373t-.192.356c-.569.933-1.512 1.565-2.569 1.815-1.891.449-3.641-.517-5.479-.753-2.37-.305-4.92.132-7.205.767 1.325 1.138 2.843 2.083 4.332 2.991 4.485 2.734 8.696 4.536 13.861 5.526 6.634 1.088 14.89.957 20.557-3.096 2.542-1.819 4.407-4.576 4.884-7.69.278-1.81-.048-3.653.251-5.442.483-2.876 3.51-5.569 1.18-8.532-1.152-1.465-3.144-1.837-4.696-2.711-1-.564-1.865-1.358-2.819-1.995-1.718-1.146-4.19-1.87-6.237-2.066-2.658-.254-5.32.001-7.907.625-1.21.292-2.444.705-3.684.825 1.191-.66 2.365-1.308 3.661-1.746 3.133-1.058 7.3-1.141 10.48-.229 1.295.372 2.488.93 3.699 1.51-1.426-2.378-4.956-5.085-7.666-5.755-1.563-.386-3.204-.447-4.805-.367m-69.496.118c-3.176.422-7.578 1.656-9.647 4.309-.799 1.024-1.246 2.274-2.31 3.082-2.132 1.618-4.945 1.331-6.084 4.238q-.127.318-.212.65-.085.33-.127.67t-.04.683.047.681c.277 2.18 1.671 4.067 2.043 6.242.281 1.645-.05 3.261-.162 4.904-.262 3.806 1.89 7.137 4.866 9.332 5.38 3.969 14.14 4.563 20.557 3.539 6.148-.981 12.576-4.399 17.36-8.341l1.288-.886c-1.84-.293-3.926-.802-5.788-.71-2.71.135-4.824 1.927-7.59.47a6.9 6.9 0 0 1-2.253-1.913c-.627-.836-.888-1.768-.727-2.807q.037-.222.095-.44.059-.219.139-.43t.18-.413.221-.394.26-.369.294-.341.328-.31.356-.276c.794-.549 1.81-.827 2.765-.612 1.74.39 3.411 2.073 4.9 3.065 1.161.774 2.395 1.51 3.68 2.062 1.777.763 3.756.998 5.655 1.292-.47-.677-.923-1.3-1.568-1.828-1.367-1.117-3.33-1.614-4.287-3.177-1.349-2.205-1.477-4.92-2.286-7.325q-.117-.341-.245-.678t-.268-.67-.29-.66-.31-.65q-.162-.324-.334-.64-.171-.318-.353-.63-.182-.31-.375-.616-.192-.305-.394-.603-.203-.299-.415-.59-.212-.293-.433-.577-.222-.285-.453-.562-.23-.277-.47-.546-.24-.27-.49-.53-.248-.261-.505-.514-.258-.253-.523-.497-.265-.245-.539-.48-.273-.235-.554-.461t-.57-.443-.584-.423-.597-.404-.61-.384q-.31-.187-.624-.364-.314-.176-.634-.342t-.646-.322-.656-.3-.665-.278q-.335-.133-.675-.255-.339-.123-.682-.234t-.69-.21-.696-.189-.703-.164-.707-.141c-1.706-.314-3.532-.49-5.263-.29m36.285 8.17c-1.622 1.67-1.82 4.272-1.794 6.485.028 2.473 1.51 12.28-.019 13.735-.344.327-.987.307-1.425.244-1.051-.151-2.038-.656-3.078-.874-2.937-.617-6.517-1.059-9.285-2.114-1.238-.472-2.444-1.634-3.673-1.953-.23.325-.234.739-.162 1.133.129.691.973 1.42 1.539 1.78 2.62 1.664 9.271.596 13.243 2.781.454.25 1.145.708 1.32 1.23.235.702-3.331 6.644-3.975 7.669-1.176 1.874-2.455 3.777-3.82 5.516-.52.661-1.354 1.145-1.78 1.848.121.245.322.385.586.47.39.125.683.02 1.012-.2 2.397-1.614 5.695-7.997 7.172-10.712.59-1.084 1.207-2.608 2.125-3.436.336-.303.907-.343 1.338-.272 1.032.17 1.93 1.032 2.692 1.702 2.125 1.842 4.31 3.78 6.11 5.95.918 1.106 4.806 6.994 5.761 7.2.348-.093.375-.07.578-.36.045-1.775-5.462-7.943-6.823-9.38-.726-.768-1.469-1.544-2.263-2.24-.946-.83-3.553-2.417-3.957-3.477.404-.638 4.381-2.908 5.234-3.232 1.275-.484 2.686-.857 4.015-1.163 1.893-.436 3.913-.74 5.839-.994.786-.103 1.617-.037 2.386-.23.376-.095.95-.266 1.17-.607.095-.146.016-.24-.027-.393-.552-.517-1.338-.682-2.08-.657-3.419.115-9.181 1.993-12.465 3.327-1.216.495-2.39 1.281-3.677 1.564-.542.12-1.025 0-1.434-.389-.322-.305-.357-.646-.335-1.072.053-1.029.267-2.062.232-3.092-.103-3.023-.842-5.992-.837-9.03.001-1.122.603-6.574.557-6.757m87.461 11.994c-.566 1.769-3.727 12.847-3.568 14.1.197.06.296.077.509.078l3.845-.019c-.093-2.897-.29-5.788-.412-8.683-.069-1.594-.037-3.216-.16-4.805-.02-.264-.05-.456-.214-.671m1.25 2.262c.398 5.799 1.015 11.614 1.684 17.388.412 3.552.995 7.174 1.139 10.743.167 4.16-.084 8.374-.1 12.54-.024 6.113-.139 12.243-.016 18.355.074 3.648.283 7.3.475 10.943.052.99-.074 3.528.321 4.336.327.17.62.142.976.136l-.062-30.6c-.033-5.963.056-11.99-.4-17.936-.476-6.195-1.704-12.456-2.673-18.595-.194-1.228-.792-6.535-1.344-7.31m-78.07 14.078c-.438.051-1.084.025-1.434.282.637 1.187 1.762 2.446 2.672 3.436 2.132.586 4.602 1.257 5.761 3.353.535.967.617 2.095.279 3.144-.367 1.135-1.226 2.065-2.288 2.59-.992.49-2.075.58-3.12.2-1.096-.399-2.1-1.275-2.579-2.346-.407-.91-.56-1.933-.768-2.903-.606-2.821-1.65-4.457-3.59-6.583-3.88 7.92-5.044 18.429-2.12 26.871 1.615 4.664 5.53 9.778 10.034 11.963.325.157.656.326.992.46 5.414 2.184 6.873-.574 11.784-.783 2.968-.127 4.998 1.72 8.144.411 1.336-.556 2.496-1.44 3.035-2.824.75-1.928.132-4.084.844-6.075.57-1.596 1.716-2.755 2.662-4.125 2.535-3.674 1.495-8.44-.28-12.209-3.002-6.376-9.133-10.48-15.607-12.762-3.954-1.394-10.157-2.64-14.421-2.1m72.534.453c-.881 3.353-1.793 6.735-2.457 10.138l6.528-.011h2.305c-.291-3.376-.541-6.81-1.033-10.16-1.78.01-3.564-.004-5.343.033m-87.377.2c-.876 1.561-1.848 3.14-2.43 4.84-1.084 3.161-.466 6.838-4.494 7.993a10 10 0 0 1-1.767.317c-1.492-.605-2.718-1.349-3.398-2.895-.377-.858-.508-1.908-.166-2.8.336-.877 1.123-1.565 1.982-1.91.95-.382 2.09-.481 3.097-.678 1.027-1.072 1.968-2.066 2.712-3.362q-.228-.082-.457-.157-.23-.076-.461-.146t-.464-.134-.468-.123-.47-.11-.473-.1-.475-.086q-.238-.04-.477-.075-.24-.035-.48-.064t-.48-.051-.481-.04q-.241-.016-.483-.026-.241-.011-.483-.015-.241-.005-.483-.004-.241.002-.483.01-.241.007-.483.02-.24.014-.481.033t-.481.045-.48.057-.479.07q-.238.037-.476.08t-.474.093-.472.105-.469.116-.466.128-.462.14-.459.15q-.228.08-.455.163-.227.085-.45.174-.225.09-.447.185-.222.096-.442.197-.22.1-.436.207c-5.837 2.81-12.601 9.106-14.737 15.299q-.181.515-.326 1.041t-.253 1.061-.179 1.077-.103 1.086-.028 1.091.047 1.09.123 1.084.198 1.073c.734 2.27 2.539 2.978 3.576 4.918.702 1.313.597 2.734.823 4.153.307 1.938 1.74 3.724 3.463 4.611 3.982 2.053 5.788-.382 8.99-.29 3.554.101 4.237 2.557 8.911.976 4.677-1.582 8.389-5.786 10.504-10.126 3.496-7.17 4.374-16.724 1.71-24.263-.421-1.19-2.263-5.612-3.225-6.227m84.583 12.569q-.098 5.356.006 10.713 4.678-.105 9.357-.095.097-5.3-.024-10.6-4.67-.037-9.339-.018m26.61 9.173q-4.477.052-8.955.024l-.1 38.264 4.8.053c2.966.075 5.952.118 8.918.057q.115-19.23-.103-38.46c-1.519.01-3.043-.005-4.56.062m-11.856-.012c-.208 1.636-.087 3.393-.083 5.043l.018 8.924c.01 7.475-.22 14.956-.154 22.428.003.362-.058 1.245.173 1.53.049.06.107.11.161.166.128-.275.167-.469.177-.772.087-2.682.013-5.386.011-8.07l-.007-15.634c.002-2.246.25-12.272-.092-13.405zm18.588.17c.439 9.355.208 18.764.202 28.13-.002 2.999-.076 6.015.028 9.01.114-.483.245-.97.32-1.46.392-2.495.753-4.995.944-7.515.58-7.666.423-20.618-1.346-28.002zm-57.054 3.376.004 3.33 6.231.087c.056 3.75.144 7.502.155 11.252 2.219-.036 4.511-.13 6.719-.36.353-.478.153-12.796.154-14.295-4.408 0-8.862-.148-13.263-.014m23.52.438q-.048 5.97-.023 11.939c3.185-.037 6.437.044 9.612-.167.278-.557.065-10.243.066-11.76-3.212-.007-6.446-.094-9.656-.012m-35.503 4.946c-.112 9.894.153 19.778.104 29.668 5.391-.212 10.833-.027 16.23-.025.047-3.667-.024-7.333-.013-11q.085-9.318.066-18.636c-5.46.02-10.928.108-16.387-.007m35.792 9.575-.25.1c-.212.651-.187 11.291-.185 12.845 3.16-.005 6.334.047 9.494-.035l.295-.154c.273-1.223.164-10.988.048-12.708-3.11-.177-6.287-.105-9.403-.048m-2.948 1.118c-4.727.507-9.485.334-14.233.413.006 1.87-.197 17.947-.115 18.1.038.072.102.127.153.19l.085.032 14.492-.204-.085-11.92c-.003-1.163.195-5.687-.078-6.573zm-157.829 2.25c-10.75.573-18.269 2.285-27.117 8.698-1.892 1.371-3.956 2.873-5.564 4.57a2.3 2.3 0 0 0-.403.599l.019.308c.274.195.392.229.73.17 2.157-.37 6.111-3.492 8.284-4.479-.903 1.454-2.232 2.486-3.196 3.868 2.06-1.24 4.181-2.425 6.18-3.757 4.09-2.722 7.971-5.96 12.794-7.32-1.883 1.14-3.84 2.216-5.584 3.566-2.099 1.626-4.018 3.528-6.148 5.09-2.237 1.64-4.722 2.933-6.954 4.592 4.029-1.268 8.062-2.854 11.968-4.46 2.012-.828 4.06-1.99 6.164-2.513-1.815 1.413-3.657 2.709-5.722 3.735-2.186 1.087-4.78 2.018-6.743 3.455 2.876-.567 7.307-1.881 9.584-3.733-.947 1.246-2.152 2.134-3.213 3.258 2.315-.693 4.466-1.7 6.593-2.843 1.285-.587 2.871-1.542 4.278-1.7l.1.13c-.827 1.079-2.032 2.068-3.03 2.997.173.209.071.158.354.193 1.76.215 6.592-2.893 8.665-3.652-1.437 1.22-2.92 2.409-4.31 3.68l.072.168c.92.326 12.825-3.934 14.786-4.441l-8.242 4.236c-1.299.656-2.574 1.37-3.907 1.958 9.14.044 18.286.256 27.424.414 4.602.08 9.388.427 13.976.094-1.67-.24-3.315-.505-4.895-1.126-1.185-.465-2.33-1.102-3.55-1.465 3.694-.186 7.733 1.58 11.633 1.987-5.234-3.76-9.541-3.631-15.6-3.988-1.792-.105-3.46-.18-5.173-.763-10.23-3.487-11.92-11.423-24.253-11.526m119.964 2.043c-.01 1.685.029 3.387-.047 5.07-1.234.016-2.792.204-3.959-.191-.144-.239-.127-.335-.132-.607-.281-.33-.695-.384-1.108-.421-.748-.068-1.527-.023-2.278-.013l.028 10.72 1.885.017q4.402.066 8.805.055c-.06-1.595.122-10.679-.256-11.36q-.098-.017-.196-.038c-.272-.06-.17-.02-.392-.179-.198-.963-.083-2.06-.063-3.043zm-16.243.664c0 4.534.041 9.072-.02 13.605 2.315.226 4.71.275 7.037.264l.004-13.838q-3.51-.045-7.02-.031m-6.719 2.56c-1.329 1.42-2.664 2.817-4.073 4.158-.116.525-.266 2.379-.685 2.614-.395.222-1.246.153-1.715.175-.017-.744-.044-1.49-.052-2.236q-2.839.06-5.679.088-.007 2.073.05 4.146l3.656.715c4.382.77 8.784.792 13.191 1.267q.042-3.226.015-6.451c-1-.875-3.943-4.163-4.708-4.476m-20.377.262c-.665.596-1.337 1.185-1.993 1.79-2.14-.013-4.274-.177-6.414-.182 3.371 2.412 7.563 3.317 11.295 4.993l3.959 1.702.004-5.585q-1.274-.438-2.517-.96c.018.85.172 1.883-.378 2.596-.217.074-.175.11-.36.014-1.285-.67-1.952-3.541-3.596-4.368m84.265 6.605-.381.076c-.462.808-.168 3.131-.15 4.11 3.01-.029 6.02-.213 9.03-.228.173-.013.497.025.6-.124.471-.677.142-3.02.146-3.89zm30.715 8.001q-69.775.737-139.553.649l-52.893.055-18.005.023c-4.206-.004-8.447-.123-12.646.132q.757 2.901 1.416 5.827l54.207-.077 102.411-.45c14.761-.029 29.54-.312 44.3-.064 4.849.082 9.67.647 14.508.759-4.841.838-9.744 1.286-14.64 1.653-2.382.178-4.803.19-7.164.537 5.334.057 10.608.253 15.933.553.772.043 2.211-.103 2.886.203-.47.425-17.617 2.006-19.703 2.23-1.119.12-4.345.267-5.139.704 5.081.048 10.17.288 15.25.415l17.236.28q2.198-6.658 3.76-13.493zM17.39 159.962c1.029 3.305 2.008 6.736 3.357 9.923 2.58.028 5.126-.317 7.688-.573l8.813-.855c4.543-.477 9.275-.574 13.703-1.763-6.349-.267-12.698-.138-19.05-.095-2.176.015-5.74.316-7.766.048 3.234-.566 6.573-.704 9.837-1.079 3.974-.456 7.922-1.13 11.893-1.583 1.563-.419 3.165-.626 4.761-.88-2.494-.29-6.13.005-8.72.068-3.016.073-6.026.026-9.04.091-3.98.086-8.14.296-12.108.007l.008-.058c1.874-.186 3.74-.53 5.613-.76 3.103-.381 6.233-.667 9.344-.984 1.126-.115 2.267-.099 3.38-.208 1.141-.112 2.271-.324 3.416-.433 1.543-.147 3.115-.197 4.65-.39l.072-.189.147.076-.15-.016c-3.49-.343-7.098-.238-10.602-.265zm80.221 3.568c-1.543.362-2.704 1.029-3.542 2.43-1.373 2.294-1.554 5.635-.875 8.174.412 1.54 1.232 3.08 2.669 3.879.863.48 1.804.59 2.779.536 1.509-.384 2.545-1.01 3.372-2.386 1.433-2.386 1.574-5.705.849-8.34-.407-1.479-1.134-2.983-2.517-3.77-.85-.483-1.774-.594-2.734-.523m48.257-.005c-1.46.345-2.445 1.02-3.227 2.323-1.467 2.444-1.58 5.764-.835 8.458.41 1.482 1.205 2.937 2.58 3.722.943.539 1.945.653 3.004.482 1.61-.499 2.64-1.324 3.42-2.856 1.244-2.441 1.304-5.791.417-8.354-.498-1.437-1.374-2.782-2.79-3.442-.852-.398-1.658-.398-2.57-.333m23.11.01c-1.76.42-3.132 1.317-4.107 2.867-1.344 2.135-1.462 5.215-.86 7.612.383 1.524 1.218 2.936 2.601 3.745 1.728 1.01 4.026.813 5.887.294-.005-1.871.011-3.744-.016-5.615l-.039-2.37-2.972.033c.001 1.06.195 4.415-.059 5.197l-.203.174c-.525-.042-.946-.369-1.28-.76-1.026-1.202-1.189-3.144-1.014-4.665.13-1.124.524-2.345 1.466-3.05a2.76 2.76 0 0 1 1.986-.533c.45.061.889.247 1.304.424.145-.956.319-1.89.544-2.831-1.097-.468-2.035-.645-3.239-.522m-86.758.119.007 14.642 3.085-.01q.053-2.891.05-5.782l2.527-.002q.1 2.888.084 5.777c.959.005 2.11.137 3.045-.041l.043-14.553-3.197-.008-.008 5.8-2.517.028.01-5.843zm40.03-.004c-1.907.423-3.423 1.257-4.479 2.97-1.264 2.052-1.53 4.788-.949 7.103.415 1.653 1.413 3.222 2.918 4.079 1.667.95 3.819.888 5.621.369.365-.105.715-.259 1.063-.409l.06-.025c-.114-2.41-.101-4.821-.106-7.233-.207-.254-.078-.186-.406-.223-1.136-.128-2.408-.022-3.552.022l.06 2.22 1.132.46c.027.694.248 2.013-.213 2.55-.157.182-.389.24-.623.227-.746-.044-1.425-.44-1.898-1.006-.977-1.17-1.18-3.13-1.01-4.608.135-1.186.567-2.384 1.555-3.123.761-.569 1.712-.74 2.638-.57.525.097 1.035.302 1.535.487.184-.948.322-1.945.582-2.874-1.33-.356-2.547-.582-3.928-.416m10.033-.003q-.012 7.309.079 14.617c1.05.016 2.103.014 3.151.064-.02-1.364-.368-4.227.16-5.362l.168.011c.858 1.631 1.447 3.583 1.97 5.35l3.569-.002c-.329-.794-.635-1.611-1.006-2.387-.878-1.893-1.777-3.783-2.597-5.703 1.091-2.158 2.344-4.32 3.218-6.574-1.085-.012-2.173-.037-3.258-.031-.808 2-1.555 4.022-2.354 6.024l.05-6.007zm-27.038.078.028 14.541h2.814c.038-3.154.059-6.281-.122-9.432 1.018 3.179 2.098 6.412 3.393 9.488.917-.004 2.29.174 3.148-.082l.007-14.52-2.823.026c.032 3.262.026 6.494.376 9.742-.66-1.643-1.137-3.344-1.742-5.006-.58-1.59-1.268-3.149-1.803-4.755-1.09-.003-2.186-.029-3.276-.002m48.037.027-.027 14.552 2.975-.012c-.056-3.108-.029-6.231-.433-9.317 1.458 2.967 2.292 6.275 3.446 9.37l2.843.001c.427-.615.183-12.85.17-14.655l-2.811.035c.02 3.065.156 6.126.185 9.188-1.035-3.093-2.082-6.165-3.247-9.212zm81.313 2.3c-5.312.469-10.668.763-15.994 1.044-2.653.14-5.453.094-8.077.455l13.717 1.886c2.336.309 4.956.412 7.224 1.006-2.018.278-13.36.698-13.951.988 3.857.114 11.137.23 14.608 1.414-2.178.506-4.304.601-6.529.744l-7.506.524c-1.314.083-2.666.066-3.971.221l.005.14-.255-.068c.475.05.937.083 1.414.097 2.523.13 14.69.61 16.075 1.29-.252.431-.777.542-1.23.66-3.238.841-6.729.91-10.059 1.056-1.35.059-2.736.054-4.071.269 2.345.416 4.906.469 7.287.538 2.106.063 4.266-.071 6.282.642-4.355.186-8.72.117-13.035.81 3.728 1.366 9.117.814 13.15 1.542 2.655-4.806 5.158-10.094 6.826-15.326-.631.017-1.282.003-1.91.067m-45.304.382c-1.438.007-2.674.33-3.711 1.398-.986 1.015-1.49 2.48-1.426 3.886q.005.122.016.244t.028.243q.016.121.04.242.023.12.051.24.03.118.064.236.035.117.075.233.041.115.087.229.047.113.099.224t.109.22q.057.107.12.213.063.105.13.207.068.102.141.2t.15.194q.079.094.16.185.083.09.17.177t.178.169c.889.792 1.931 1.105 3.1 1.153 1.517-.101 2.8-.423 3.837-1.635.914-1.068 1.33-2.532 1.182-3.924q-.012-.124-.03-.246-.02-.122-.044-.243-.025-.121-.056-.241-.03-.12-.067-.238-.037-.119-.08-.235-.042-.116-.09-.23-.049-.113-.103-.225-.054-.111-.113-.22-.06-.108-.124-.213-.066-.106-.136-.207-.07-.102-.144-.2-.076-.099-.155-.194-.08-.094-.165-.184t-.174-.177-.181-.167q-.094-.081-.19-.158c-.735-.57-1.808-1.004-2.748-.956m-122.66.594c-1.458.269-2.719.827-3.604 2.076-.815 1.15-1.082 2.588-.801 3.962.273 1.333 1.063 2.56 2.21 3.303 1.05.68 2.066.79 3.286.753 1.524-.32 2.716-.9 3.59-2.26q.072-.113.138-.23.067-.115.127-.235t.115-.242.103-.247.089-.253.077-.256.063-.26.05-.264.037-.265.023-.267.01-.267-.004-.268-.018-.267-.032-.266-.045-.264-.058-.261q-.03-.12-.065-.238t-.076-.234-.089-.23-.1-.225-.112-.22-.122-.213q-.064-.105-.134-.207-.069-.102-.143-.2-.075-.098-.154-.192-.08-.095-.163-.184-.084-.09-.173-.176t-.181-.167q-.093-.08-.19-.157-.097-.076-.197-.147t-.205-.137-.211-.127c-.913-.514-1.998-.733-3.04-.668m-45.768 3.08c.856 2.162 1.73 4.311 2.793 6.383 6.558-.61 13.113-1.442 19.656-2.21 2.46-.289 5.01-.242 7.444-.726-2.274-.125-4.51.058-6.78.077-5.339.046-10.67.15-16.008-.015-.999-.058-1.997-.108-2.991-.226 6.616-.945 13.303-1.392 19.94-2.167 2.076-.242 4.121-.677 6.191-.958-3.987-.207-7.94-.069-11.927-.026-3.24.035-6.474-.095-9.713-.111-2.859-.015-5.75.094-8.605-.021m17.668 6.459q-5.1.038-10.198.177c-1.475.036-3.023-.086-4.48.15.97 2.526 2.387 4.97 3.606 7.388 4.157-.195 8.363-.749 12.47-1.417-2.596-.119-5.236-.17-7.82-.453 5.166-.953 10.45-1.38 15.645-2.183 1.34-.16 2.701-.367 4.026-.626-3.447-.18-6.874-.151-10.319-.242-4.4-.115-8.813-.356-13.216-.241 1.856-.679 6.925-.86 9.146-1.052 1.248-.108 12.345-1.175 12.688-1.501-3.778-.273-7.76-.14-11.548 0m132.314 6.867c-9.897.16-19.8.017-29.698.102q-27.484.197-54.951 1.157-17.043.523-34.069 1.425c-7.608.405-15.272 1.062-22.89 1.154 1.071 1.897 2.247 3.821 3.57 5.553q26.245-1.978 52.536-3.189 53.789-2.113 107.608-1.022l22.104.356c3.035.077 7.065-.118 9.945.506 1.344-1.526 2.275-3.348 3.285-5.103-5.752-.03-11.476-.302-17.224-.476q-12.929-.494-25.866-.458c-4.773-.034-9.58-.136-14.35-.005m13.104 8.01q-2.888.041-5.776.029c.343 4.314.328 8.685.486 13.012q4.937-.384 9.868-.838c1.97-.078 3.854-.526 5.802-.693.99-3.818 1.127-7.592.754-11.502-3.66-.203-7.468-.169-11.134-.009m13.15.042c.262 3.679.121 7.298-.677 10.91.553-.212 1.117-.408 1.655-.651.522-.394.7-1.795.792-2.43.38-2.604.38-5.207.25-7.828zm-73.507.209q-7.506.232-15.014.316c-.238 2.522-.216 5.058-.319 7.588-.122 2.997-.349 5.987-.303 8.988l1.512.143c5.172.419 10.751.291 15.8-.957.008-5.371.115-10.766-.02-16.135zm3.465-.06c-.017 5.106-.237 10.682.014 15.752.746-.183 1.504-.346 2.242-.56.173-.085.367-.11.425-.308.25-.843.072-12.93.045-14.908zm16.515.374c-.212 3.262-.07 6.614-.073 9.887.78-.086 1.569-.154 2.346-.265.44-.51.163-8.262.168-9.644zm72.877.152c-.987.166-1.987.32-2.931.662-.99.36-1.964.864-2.981 1.134-1.65.436-3.526.453-5.22.45-.827-.002-3.375-.371-3.946.113-.111.382-.128.578-.066.97l.19.214 1.522.072c4.564.325 7.79-.674 11.936-2.28.817-.316 1.938-.611 2.613-1.164l-.056-.14a2.5 2.5 0 0 0-1.06-.03m-116.854.266-1.887.163c1.215.27 2.08.508 3.321.206.397-.04.817-.059 1.201-.165l-.082-.227.452.093-.118.063.073-.11c-.98-.16-1.974-.097-2.96-.023m41.122.124c-2.868.31-5.722.709-8.595.982.002 2.68-.024 5.363.016 8.042l2.093.316c2.518.333 5.104.718 7.643.392l-.039-9.79c-.36.016-.764 0-1.119.058m-56.08.09c-.387.11-.806.181-1.124.432l.037.373-.222.03c-.302-.277-.39-.469-.825-.459-.306.007-.582.1-.801.32-.162.163-.129.268-.154.482.154.264.2.406.516.502.178.054.434.037.622.042q.054-.03.109-.057c1.082-.548 2.256-.705 3.265-1.448l.058-.184c-.426-.187-1.022-.079-1.48-.032m8.404.005c.404.297.76.597 1.261.709l.333-.07c-.055-.378-.026-.38-.32-.618-.432-.091-.836-.051-1.274-.021m-15.55.165-.222.137c-.224 1.221-.091 2.627-.092 3.87l.027 7.578 1.642-.01c.597-.888.417-9.851.353-11.594zm17.808.006c-.31.214-.459.254-.588.616.363.594.975.71 1.616.859.481.112.888.091 1.374.025l.438-.202.025-.158c-.534-.29-2-.302-2.266-.516-.356-.288.054-.434-.599-.624m65.016.177.07.039zm7.859-.168c-.265.332-.551.61-.585 1.05l.097.179c2.277.379 4.535.699 6.829.954l.44-.076c-.922-.616-5.655-2.062-6.781-2.107m-94.433.247c-3.688.224-7.436.651-11.125.704.05 1.573.152 3.18.09 4.753-.079 1.959-.344 3.903-.324 5.867.527.02 1.058.055 1.586.052 3.825-.062 7.678.135 11.494.016l-.097-11.471c-.54.025-1.085.037-1.624.079m85.189.112-.043.097.047.037.082-.107zm6.367-.203c-.852.303-3.603 1.33-4.029 2.047.719 0 1.297-.191 1.959-.46l.132-.039c1.19-.333 3.204-.098 4.162-.803l.043-.259c-.207-.232-.377-.341-.695-.385-.55-.077-1.008.067-1.572-.1m-117.202.695-2.46.168c2.465.587 5.235.955 7.772 1.067 1.148.05 1.153-.382 2.463-.085.096.021.189-.016.277-.041.8-.18 1.579-.374 2.357-.633-1.803-.295-3.557-.136-5.366-.222-1.693-.082-3.339-.444-5.043-.254m-8.431.617a14 14 0 0 0-2.053.364c1.045.215 1.878.39 2.939.123.912.431 1.855.682 2.778 1.075 3 1.275 4.277 1.794 7.565 1.262 3.464 2.162 3.845 2.29 8.001 2.006.47-.112 1.064-.182 1.455-.473.062-.317.113-.473-.025-.78-.714-.35-1.85.173-2.672.132-1.316-.065-2.813-.019-4.087-.371-.506-.14-.996-.723-1.479-.776-.651-.071-.975.148-1.68-.083-1.261-.414-2.555-.626-3.816-1.01-2.81-.853-3.675-1.826-6.926-1.47m-2.82.254c-.666.04-1.45-.004-2.06.282l-.127.224c.108.296.204.442.43.662l.216.036c.077-.069.212-.17.275-.25.575.192 1.301.126 1.85-.138.164-.079.286-.187.412-.316l-.029-.243c-.325-.222-.587-.23-.966-.257m181.439.264h.152zm-.32.087c-.464.134-1.365.27-1.684.623l.115.153c.575-.115 1.26-.258 1.682-.7zm-128.585.508c-2.806.544-3.838 1.321-6.203 2.685-.539.31-1.258.509-1.632 1.02-.001.21-.055.28.11.44.266.26.6.314.956.281 1.354-.12 3.222-1.832 4.505-2.472.92-.46 1.852-.698 2.857-.894 2.11-.412 4.781 2.099 6.46 3.066 2.287 1.081 4.608 1.488 7.039.629.567-.2 1.642-.597 1.868-1.177.064-.163.01-.153-.081-.342-1.721-.208-3.188 1.419-6.384.535-3.877-1.073-4.754-4.125-9.495-3.77m76.88.519c-4.882.433-5.961 3.652-11.034 4.013-4.01.284-6.266-2.549-7.546-2.505-.112.369-.094.918.092 1.265.082.154.083.103.285.145l.263-.396c.396.058 2.974 2.138 3.366 2.516 2.197.147 4.124.178 6.296-.25 2.983-.607 5.053-3.088 8.133-3.556 3.307-.504 5.556 1.741 8.382 3.016.444.201.978.497 1.47.49.2-.338.154-.602.163-.99-.383-.626-2.125-1.072-2.807-1.457-.963-.544-1.853-1.248-2.838-1.746q-.567-.285-1.18-.446c-.968-.247-2.056-.212-3.044-.1m37.804 2.119c-.828.085-2.258.184-2.821.851a1 1 0 0 0-.241.536c.13.189.09.214.335.266 1.039.22 2.353-.299 3.434-.257 1.796.07 3.592.463 5.373.686 1.965.245 3.872.158 5.828-.109.543-.088 1.077-.163 1.602-.332.354-.44.712-.874 1.032-1.339-2.605.411-5.303.784-7.94.497-2.198-.239-4.369-1.056-6.602-.8m-161.775.496c-1.566.196-3 .875-4.55 1.085l1.022 1.132c1.314-.416 2.834-1.054 4.22-1.07 1.595-.017 3.01 1.104 4.557.852.34-.055.581.048.896.154l.239.076.152.053a5 5 0 0 0 1.076-.32c.943.34 2.019.828 3.032.821.264-.147.281-.131.382-.412-.35-.483-1.241-.649-1.826-.745-1.093-.18-2.209-.012-3.303-.2-2.131-.364-3.562-1.819-5.897-1.426m47.692.16q-.08.032-.163.063c-.305.107-.102.047-.374.073-.591.057-4.182 1.782-4.528 2.244l.085.204c.6.161 3.787-1.789 6.262-1.481.783.097 1.501.427 2.236.697.927.765 2.512 1.834 3.762 1.726.148-.012.281-.059.421-.105l.09-.198c-.432-.552-1.213-.541-1.859-.626-.239-.239-.37-.477-.735-.48-.208-.003-.452.063-.657.1-.32-.351.075-.552-.32-.782-.16.021-.424.096-.575.078-1.072-.132-2.102-1.923-3.645-1.513m77.83.885c-.297.136-.286.186-.62.117-.336-.07-.74-.074-1.032.127-.141.097-.12.203-.153.357.291.121.291.072.59.031 1.774-.244 5.346 1.297 6.839 2.3.516.219.957.38 1.524.35-.141-.456-.658-.65-1.07-.867-1.72-.91-4.068-2.464-6.078-2.415m-2.451.282-1.044.536-.024.103.363-.009c.415-.058.781-.082 1.138-.323l.05-.139c-.163-.069-.307-.146-.483-.168m-110.51.71c-.486-.004-.95-.062-1.378.208l-.073.167c.53.71 3.21.919 4.128 1.164a14 14 0 0 1 2.023.719c.402.079.61.172 1 .031.125-.318.132-.523.128-.857-.212-.26-.384-.33-.721-.372-.52-.066-1.05.008-1.575-.089-.435-.08-3.084-.741-3.376-.984zm92.993.087c-.118.331-.186.406-.09.738.256.108.486.154.755.213.172.038.343.09.512.136l.191-.068c-.448-.307-.85-.632-1.277-.965-.028-.022-.06-.036-.09-.054m15.316.148h.153zm-78.925.302c-.599.234-2.32.654-2.692 1.105l-.055.285.166.187.383-.016c.304-.12.6-.238.885-.399.594-.336 1.321-.396 1.8-.905l-.035-.19c-.2-.085-.225-.096-.452-.067m77.665.244.15.048zm-12.365.453h.153zm57.812.33c-1.473.47-2.498 1.198-3.686 2.147 1.035-.009 1.91-.033 2.896-.391.687-.22 3.056-.714 3.425-.986l.064-.476c-.228-.257-.375-.316-.72-.352-.627-.065-1.353.005-1.98.059m-57.11.243.204.14.09-.019-.143-.174zm-109.886.286c.199.434.662 1.16 1.13 1.298.212.062.805.146 1.007.047.044-.021.078-.058.117-.087l.261.063.183.559.037.31c.136-.256.126-.61.034-.887-.154-.464-.533-.807-.968-1.005-.596-.27-1.155-.3-1.8-.298m135.103.16-.222.107c.085-.003.174.007.256-.02l.21-.134zm-85.816.457c-2.79.442-4.843 2.06-7.27 3.334q-.989.507-2.032.89t-2.126.636c-3.976.956-6.537-.154-10.218.119 2.48 1.86 5.841 1.956 8.814 1.538 2.835-.398 5.603-1.588 8.043-3.047 2.284-1.31 4.253-2.732 7.038-1.957 1.304.364 2.482 1.156 3.664 1.796 2.54 1.375 5.537 2.246 8.247.788.468-.251 1.482-.671 1.756-1.072l-.044-.306c-.085-.033-.164-.1-.256-.099-.487.005-1.082.404-1.553.562-1.148.385-2.602.493-3.804.367-4.369-.456-5.343-4.037-10.26-3.55m-35.739.351c-2.143.774-3.77 1.092-5.72 2.373-1.428-.171-2.38-.073-3.765.268 1.891.32 3.642.08 5.53.139 1.565-1.049 3.82-1.673 5.71-1.333 1.273.23 2.453.94 3.581 1.541 1.208.502 2.412.888 3.719 1.021.986.1 2.01.055 2.997-.01.385-.025 1.07-.195 1.427-.136.14.023.25.132.375.199.395-.213.579-.8.758-1.194-2.174-.174-4.565.166-6.676-.306-2.35-.525-5.52-3.209-7.936-2.562m146.723.006c-1.537 1.026-3.435 1.551-5.245 1.836-1.344.211-7.047.1-7.68.716.215.116.412.207.644.281 2.046.38 8.46.764 10.06-.272.568-.368 2.097-1.96 2.221-2.561m-68.904.307c.022.355-.008.559.191.858.356-.004.614-.168.92-.33l.291-.199c-.151-.226-.252-.195-.505-.244-.296-.058-.597-.069-.897-.085m5.451.834c.56.457.893.487 1.594.421-.44-.45-.838-.414-1.443-.42zm73.154.636c-3.483.372-4.934 1.24-7.29 3.756a37 37 0 0 0 2.17-.86c1.008-.384 2.01-.762 3.053-1.043 1.149-.31 2.465-.448 3.526-1.003.392-.204.634-.522.9-.862l.091-.115c-.802.034-1.658.011-2.45.127m-120.273 1.03c-1.09.71-6.346 2.822-6.713 3.23l-.058.36c.204.2.099.176.349.17.73-.016 2.15-.758 2.808-1.098.758-.29 1.224-.4 1.702-1.093.569.115.796-.016 1.326-.175 1.924-.577 3.093.031 4.794.774-.864-.947-1.732-1.784-3.104-1.84-.125-.005-.249.029-.374.032-.34.008-.477-.165-.73-.36m53.547.338c-.437.142-.86.288-1.315.363-.571.094-1.551.665-1.863 1.174-.018.03-.03.066-.045.098l.113.223c.734.178 1.165-.439 1.825-.633.452-.133 2.184-.328 2.629-.287.447.041.548.229 1.049.132 1.036.38 2.496.913 3.583 1.01-1.685-.953-3.487-1.95-5.466-2.016a3 3 0 0 1-.51-.064m-91.952.286-.474.367c-.006.158-.06.25.07.367.256.232.753.341 1.084.451l.256-.284c-.02-.29-.018-.403-.252-.615-.167-.152-.466-.256-.684-.286m115.1-.052c-1.05.34-2.052.732-2.996 1.307 3.498-.908 6.014-.216 9.169 1.422.917.476 1.834 1.021 2.799 1.393.394-.003 1.138-.122 1.447.119.045.035.137.168.174.219l.184-.054c-.09-.375-.393-.644-.72-.849-.83-.52-1.95-.735-2.86-1.115-1.97-.823-3.536-1.944-5.692-2.332-.508-.091-1.002-.041-1.505-.11m-112.217.589-.175.024c-.34.045-.145.024-.496.038-.313.012-.548.14-.82.285l-.02.096c.323.3.77.362 1.195.423l.17-.133c.04.015.079.035.12.046.252.063.468-.018.714-.077l.164-.183c-.062-.22-.567-.413-.777-.531zm2.715.035c-.564.081-1.325.132-1.764.53.183.218.178.186.428.264.638.045 1.187.128 1.71-.312.061-.232.025-.204-.083-.401zm.64.282c.222.26.213.305.547.353l.549-.242-.125-.19c-.36-.041-.625.002-.971.079m36.064.157c.074.389.079.452.345.738.24.059.393.088.644.081.025-.38.076-.409-.165-.696a5 5 0 0 0-.824-.123m69.964.1h.152zm-.582.133c.206.066.12.074.258.037l-.08-.114zm-68.098.132c-.177.345-.23.385-.171.762.379.468.824.57 1.398.637.486.056 1.06.078 1.542.004-.054-.379-.047-.409-.31-.681-.314-.094-.52-.094-.849-.074-.579.035-.774-.143-1.226-.456a1.4 1.4 0 0 0-.384-.192m44.514.607-.225.105c.196-.053.124-.009.235-.099l.038-.028zm47.114-.058c-.919.371-4.087 1.288-4.541 1.78-.007.2-.05.212.09.37 1.435-.314 3.229-1.018 4.457-1.816q.136-.086.273-.17l-.084-.16zm-121.475.689c-.983.27-1.98.422-2.96.72-1.797.546-3.639 1.58-5.549 1.565-2.439-.018-4.106-2.417-7.034-1.577-.29.083-.57.194-.776.42.086.27.035.325.304.465.459.24 1.18.217 1.694.255l.17.023c1.517.23 2.756 1.093 4.206 1.501 3.111.876 5.917-1.098 8.825-1.898.802-.221 1.98.136 2.664-.245.105-.292.141-.402-.026-.7-.149-.263-.423-.415-.711-.472-.256-.05-.546-.046-.807-.057m129.07.092c-4.849.854-7.356 4.63-12.99 5.438-3.582.513-6.422-.686-9.432-2.563-1.156-.721-2.138-1.498-3.525-1.732-4.039-.68-6.955 2.195-10.52 3.085-1.199.3-2.456.286-3.68.195-1.522-.114-2.832-.442-4.102-1.334-2.501-1.756-4.233-2.914-7.427-2.371-3.328.565-5.462 3.11-8.441 4.322l-.026.137c1.564.394 4.864-1.782 6.381-2.469.6-.27 1.281-.42 1.917-.587 5.099-.7 6.222 2.9 10.573 3.549 5.567.829 9.091-3.274 13.887-3.248 2.344.013 3.88 1.42 5.82 2.498 1.832 1.016 4.058 1.868 6.172 1.942 3.347.118 6.542-1.09 9.397-2.744 2.568-1.488 4.505-2.973 7.64-2.893 1.716.043 3.642.842 5.146 1.657.53.287 1.171.912 1.763.971l.05-.137q-.08-.094-.158-.189c-.263-.322-.308-.697-.593-1.015-1.375-1.53-3.562-2.288-5.554-2.519-.77-.09-1.527-.045-2.298.007m-16.485 1.073-.219.406c.138.3.164.347.493.474.688.263 1.998.121 2.642-.214.131-.305.245-.41.157-.743-.547-.093-1.4.612-1.765.407-.47-.264-.772-.342-1.308-.33m-129.34.25.194.052c-.172-.067-.106-.08-.194-.052m19.76-.183c-.26.335-.33.346-.307.786.184.233.376.407.701.401.064-.001.126-.02.19-.032l.447-.4-.038-.243c-.317-.216-.64-.36-.992-.512m11.209.01c-.18.297-.328.42-.301.78.186.157.297.19.536.232.11-.253.211-.515.134-.796-.014-.05-.048-.092-.072-.137zm-9.309.865c-.336.084-.841.122-1.039.4.096.281.01.206.256.319.449.205.857.01 1.334.262a.9.9 0 0 0 .476-.088c.155-.231.12-.214.11-.472-.325-.276-.697-.404-1.137-.421m7.403-.042.102.365c.36.104.576-.002.935-.091l.114-.195c-.34-.177-.776-.096-1.15-.079m-1.123.2c-.842.016-1.396.058-2.141.492l-.061.19c.272.184.707.225 1.036.225.697-.188 1.314-.265 1.942-.64l.016-.148-.148-.165.136.08c-.058-.021-.115-.046-.175-.063-.254-.075-.361-.042-.605.03m-3.658.198c-.18.103-.344.258-.553.237-.33-.033-.498-.044-.798.13-.113.248-.149.237-.094.522.311.034.546-.026.848-.095.428.153.918.205 1.332-.025.182-.1.214-.231.309-.404-.055-.143-.052-.24-.201-.314-.233-.116-.59-.103-.843-.05m122.982 1.407c-1.137.117-4.595.806-5.2 1.721-.172.262-.173.35-.095.626.219-.012.213.02.392-.127 1.061-.874 2.635-1.191 3.978-1.423 2.05-.022 3.855.736 5.734 1.482-.97-.914-2.714-2.246-4.15-2.16-.181.011-.192.023-.34.073l-.117-.09c-.141-.105-.078-.083-.202-.102m-53.262 1.02c-6.557.507-8.008 6.66-15.501 4.828-1.597-.39-3.329-1.186-4.582-2.258-.413-.354-.837-.818-1.3-1.099-1.487-.898-4-.733-5.642-.606-3.086.24-7.522 5.874-11.208 6.814-.949.242-1.943.312-2.919.31-5.016-.003-6.273-3.493-9.597-3.564-3.892-.083-5.42 1.423-8.576 3.107-3.928 2.095-8.244 2.255-12.43.987q-.353-.107-.706-.218c-.438-.138-1.743-.725-2.066-.42-.045.332-.065.488.144.77.925 1.245 4.29 1.839 5.774 2.141 2.962-.087 5.7-.263 8.484-1.386 3.004-1.212 5.118-3.346 8.519-3.485 3.883-.16 6.758 4.462 11.589 3.154 1.637-.443 3.478-1.403 4.884-2.34 1.949-1.3 5.092-4.343 7.291-4.658 1.378-.198 2.958-.293 4.301.114 1.024.31 1.849.921 2.717 1.518 2.268 1.56 4.5 2.623 7.302 2.722 2.044.072 4.335-.358 6.136-1.356 1.06-.589 1.943-1.533 2.94-2.229 3.094-2.158 6.911-2.498 10.38-1.146.347.135.672.273 1.034.361-1.823-1.44-4.177-2.44-6.547-2.133-.142.019-.282.046-.422.072m-52.64.111-.182.193-.434-.117c-.204.139-.398.277-.597.425-.483.361-1.215.516-1.771.758-.79.345-5.09 2.243-5.36 2.71.205.148.443.23.7.148.134-.043.235-.109.355-.171.682-.354 1.449-.461 2.142-.833 2.206-1.03 5.091-2.859 7.568-1.969.697.251 1.34.55 2.083.637-1.3-1.022-2.623-2.013-4.358-1.8zm77.677-.009c-1.337.046-2.324.626-3.533 1.127.594-.121 2.475-.095 2.55-.124.174-.065.316-.29.428-.429.21.011.253.044.436.158.416.261 2.157.413 2.94.754.905.396 1.749.96 2.605 1.45 2.863 1.643 5.553 2.799 8.86 1.95a9 9 0 0 0 .83-.254c.807-.288 2.12-.653 2.593-1.427l-.137-.24c-.58.082-1.186.569-1.732.804-2.17.933-4.506.776-6.732.261-.493-.514-.586-.66-1.273-.781-1.973-.346-5.459-3.67-7.835-3.249m-3.729 1.085c-.336.094-.74.14-.956.436l-.023.142c.397-.093.714-.101 1.017-.38zm25.878.02-.422.478c.123.18.04.12.248.18l.412-.426-.038-.165zm-96.13.157c.186.272.322.63.687.668.089.009.238-.024.328-.041-.114-.295-.123-.443-.446-.563-.157-.059-.4-.053-.568-.064m1.23.478c-.03.238-.128.39.042.583.562.642 1.611.928 2.438.937q.28 0 .56-.023l.016-.397c-.626-.501-1.808-.619-2.579-.995a1 1 0 0 0-.477-.105m66.645.339-.05.147.186-.057.076-.163zm-11.422.234c.354.192.462.326.867.254-.322-.255-.465-.222-.867-.254m-83.255.766c-.881.267-1.775.522-2.634.854-1.14.44-2.241 1.022-3.447 1.26l-.168.035c-.692.125-1.548-.06-2.241-.173.82.758 1.717 1.534 2.915 1.46.252-.016.504-.065.751-.112 1.873-1.089 3.81-1.58 5.875-2.187l.1.12c.242.29.406.51.773.64.391-.027.509-.111.805-.343.051-.183.116-.226.004-.402-.273-.426-1.788-1.132-2.308-1.195-.14-.017-.288.018-.425.043m127.27.147c-4.677.794-7.046 4.966-12.774 5.711-6.631.863-10.078-5.173-14.782-5.342-2.846-.102-4.335 1.71-6.71 2.79-2.684 1.22-7.059 1.405-9.535-.354-2.092-1.487-4.386-2.863-7.087-2.461-1.044.155-2.89.939-3.554 1.771l-.002.004.367.408c1.144.001 2.085-.944 3.33-.9.736.04 1.523.038 2.241.214 2.943.72 3.962 2.989 7.521 3.436 1.89.238 3.935-.263 5.843-.364 1.341-1.364 5.172-3.118 7.092-3.145 3.964-.057 8.312 5.542 14.25 5.33 2.835-.101 5.94-1.378 8.29-2.91 3.467-2.262 4.37-3.305 8.765-2.883.421-.31.826-.61 1.197-.982-1.466-.465-2.932-.438-4.452-.323m-113.316.688q-.096.077-.194.15c-.263.194-.458.194-.769.23-.198.022-.317.092-.478.204l-.02.251c.253.147.445.11.728.09q.054-.03.109-.058c.351-.184.597-.262.99-.304l.162-.167c-.083-.181-.066-.272-.262-.343-.172-.061-.1-.047-.266-.053m34.626.03-.098.05c-1.004.494-2.176.48-2.98 1.312l-.048.238c.42.172.675-.008 1.099-.145 1.542-.496 4.496-.462 5.915.345.524.298.886.759 1.265 1.215.932.194 1.77.816 2.707.817.054.036.106.075.162.107.277.159.348.089.644.125.44.052.767.219 1.235.21l.211-.145c-.06-.242-.116-.422-.348-.551-1.099-.611-2.627-.776-3.798-1.257-.44-.18-.895-.65-1.267-.953-.31-.252-.653-.568-1.01-.745-.86-.428-2.713-.65-3.69-.623m-44.99.496c-.424.63-.98.727-1.672.966 2.138.282 4.587.884 6.725.295l.23-.044a3.3 3.3 0 0 1 .623-.047c.28 0 .444-.047.698-.174l.101-.209-.102-.166c-1.598-.143-3.408.384-4.955.105-.615-.112-.935-.625-1.648-.726m7.14.095c-.168.275-.22.294-.174.606.382.186.725.075 1.122-.01l.252-.228c-.168-.262-.385-.305-.692-.356-.164-.027-.344-.015-.508-.012m34.212.706-.26.376c.124.166.186.224.363.351l.306-.42-.057-.19zm-1.077.83-.137.191.207-.106.246-.21c-.271.085-.173.029-.316.125m-44.186-.055c-.347.204-.524.266-.73.62.139.316.194.324.526.464.054.023.11.04.166.06.291-.216.406-.255.532-.605-.14-.252-.26-.37-.494-.54m43.403.287-.51.36-.037.214.17.17.482-.317.044-.215zm-45.945.215c.023.348-.021.421.219.665.275.025.532.046.81.029-.246-.398-.378-.562-.861-.666q-.083-.016-.168-.028m72.25.533c.15.063.09.072.175.048zm-.794.131.085.042zm57.96.142c-2.374.772-4.331 2.204-6.542 3.308-.382.19-.824.108-1.159.298-.547.31-.984.85-1.521 1.193-.894.571-2.973.826-4.022.75l-.271.163c-.01.15-.032.297-.01.445 3.454-.272 6.635-1.726 9.545-3.563 1.512-.954 2.4-1.71 4.079-2.478l.008-.113zm-26.937.065c-.209.276-.434.502-.431.867 1.2.218 2.519-.068 3.623.554.071-.024.227-.063.286-.106l.474-.31c-.03-.212.017-.133-.188-.276-.722-.506-2.202-.575-3.072-.607a3.3 3.3 0 0 1-.692-.123m-75.428.305c-2.296.655-4.83 1.615-6.811 2.968-.142-.067-.337-.221-.494-.162-.244.092-.436.353-.61.541-.713.185-1.96.394-2.493.909l-.066.192c.303.063.162.076.392.001.992-.324 2.017-.488 3.019-.773 1.174-.334 2.295-.837 3.398-1.352 2.271-.99 4.07-1.642 6.493-.615.204.086.279.206.408.374.031.04.155.174.188.211l.151.17.233.066.31-.233c.194.184.272.324.399.554.43.303 1.412.594 1.937.514.121-.018.16-.051.255-.107l.112-.251c-.365-.529-1.342-.634-1.93-.823-1.511-.485-2.805-1.79-4.345-2.153a1.8 1.8 0 0 0-.547-.031m36.875-.015c-.414.229-.957.45-1.246.832l.205.197c.423-.05 1.06-.029 1.352-.347-.053-.285-.149-.444-.31-.682m15.544.068c-5.5.344-7.69 4.738-12.29 5.201-2.627.264-5.238-.253-7.433-1.758-.834-.572-1.634-1.285-2.525-1.759-2.765-1.47-6.327-1.395-8.942.336-.758.502-2.018 1.218-2.601 1.896-.142.165-.174.298-.235.502-2.803 1.553-4.614 3.043-7.91 3.251-1.071.067-2.144.01-3.177-.302-1.323-.4-2.38-1.25-3.543-1.957-2.574-1.565-5.875-.706-8.385.56-4.142 2.088-3.632 2.817-8.55 3.132q1.152.612 2.341 1.145c1.879-.154 3.274-.819 4.865-1.792 2.144-1.393 4.764-2.884 7.438-2.328 1.307.271 2.506 1.094 3.708 1.656 4.46 2.087 7.403.884 11.378-1.573 2.785-1.722 4.228-3.749 7.682-4.189 1.077-.137 2.13-.153 3.195.086 1.847.416 3.215 1.698 4.797 2.64 3.678 2.187 8.313 2.74 12.104.447 3.498-2.115 4.1-3.716 8.687-4.058.837-.063 1.782-.179 2.605.035a3 3 0 0 1 .674.284c.556.297 1.2.309 1.758.605l.228-.252c.274.337.302.399.727.53l.252-.094c-.095-.198-2.993-1.697-3.443-1.869-1.027-.394-2.318-.405-3.405-.375m21.207.303c-.529.233-1.049.454-1.6.632l-.004.207c.182.155.222.275.47.259.21-.177.37-.382.645-.418.346-.046.655-.051.94-.271l.045-.192c-.18-.144-.266-.195-.496-.217m-1.92 1.08h.128zm-1.302.429.05.04zm-93.91.867-.818.397c.056.279.199.317.432.473.754.504 1.926 1.208 2.831 1.106.283-.088.414-.066.593-.312-.472-.693-1.785-.476-2.127-1.007-.309-.48-.39-.49-.912-.657m83.415.167.09.12.046-.014-.057-.132zm17.237.151c-.776.022-1.462.358-2.171.646l-.14.184c.842.524 2.07-.35 2.978-.263.611.059 1.31.319 1.917.47 1.964.493 3.838.94 5.747 1.619l.404-.293.16-.015c.223-.014.413.037.629.084.518.115 1.02.11 1.548.11l.068-.107c-.749-.531-1.608-.373-2.457-.616-1.644-.47-3.168-1.242-4.867-1.55-.958-.173-1.952.052-2.845-.29-.27-.102-.55-.077-.833-.06zm-25.084.723c-.978.206-2.992.919-3.516 1.822-.018.033-.03.07-.045.105l.091.219c.621.147 3.113-1.08 4.94-.9 2.237.221 3.48 1.313 5.304 2.427 2.574 1.572 6.512.615 9.148-.306 1.359-.702 2.45-1.706 3.363-2.926l-.153.052c-1.382.484-2.585 1.3-3.868 1.989-2.553 1.371-5.638.736-8.212-.161-.883-1.248-2.892-1.96-4.352-2.201a11.2 11.2 0 0 0-2.7-.12m22.13.264-.195.119.281-.01.196-.157zm-50.45.224c-1.087.292-2.223.505-3.148 1.176l-.069.172c.36.266 1.16.009 1.623-.052 2.22-.295 4.045-.382 6.205.308 1.061 1.219 1.962 1.69 3.481 2.194.777.185 1.807.573 2.588.585l.07-.274a3 3 0 0 0-.752-.675q-.408-.255-.863-.41c-.926-.32-1.933-.482-2.77-1.035-.791-.522-1.481-1.232-2.347-1.635-.458-.212-.906-.278-1.404-.32-.833-.071-1.674-.014-2.508-.044-.035-.002-.071.006-.106.01m-35.308.072c-.3.256-.414.266-.456.671.212.214.231.153.517.16l.184-.168c.269-.155.54-.225.65-.522a2.4 2.4 0 0 0-.895-.141m-8.052.351c-.335.025-.62.058-.941.168l-.044.169c.41.256.82.429 1.27.606.356-.084.364-.09.597-.374.026-.313.018-.322-.15-.59-.268-.1-.409-.096-.683-.004q-.024.011-.049.025m6.018.055-.093.31c.207.257.279.267.628.299.107.01.222-.001.329-.008l.136-.345c-.213-.262-.077-.19-.41-.225a5 5 0 0 0-.59-.031m-2.88.24-.408.405c-.53-.037-1.109-.216-1.625-.076l-.102.183.102.18c.746.2 1.631.002 2.296.28.664-.18 1.953-.172 2.33-.766-.782-.368-1.784.086-2.592-.205m36.38.502c-.392.264-1.246.688-1.405 1.127.275.053.154.06.361.02.462-.197 1.151-.373 1.422-.797a1 1 0 0 0-.379-.35m28.35.373c-.601.421-1.938.903-2.302 1.414l.135.101c.752-.231 1.829-.426 2.337-1.066l.012-.286zm28.166.799c-.825.191-1.653.378-2.448.67-.847.312-3.7 1.76-4.159 2.49-.024.037-.039.08-.059.12l.06.154c1.613.423 4.905-2.648 8.38-1.934 1.323.387 2.507 1.017 3.78 1.528.616.247 2.188-.047 2.809-.315.16-.07.184-.099.304-.194-.49-.43-1.87-.497-2.561-.726-1.469-.486-2.761-1.304-4.273-1.721-.538-.149-1.13-.143-1.683-.091q-.075.007-.15.019m-59.056.784h.13zm27.605-.003.148.172.246-.11-.114-.171zm-.876.127h.151zm-43.41.393-.234.082a6 6 0 0 1-.641.174c-1.441.319-3.21.855-4.293 1.874-.235.01-.461.006-.696-.01-.231.208-.329.321-.422.62l.148.115c.504-.066.951-.21 1.433-.37.29-.152.513-.252.695-.538l.081.096.049-.267c1.116-.238 2.95-.821 4.071-.696.545.06 1.263.436 1.695-.022-.195-.38-1.403-.916-1.841-1.054-.014-.004-.03-.002-.044-.004m36.039.022c-.52.208-1.023.384-1.285.907.227.15.11.116.341.133.44-.048.85-.019 1.158-.396.09-.109.106-.167.157-.286l-.127-.347zm-1.776.56.01.117.09.009-.008-.138zm-32.316.453c.093.337.162.47.423.705.278.077.541.123.827.158l.14.121c.71.613 1.169.874 2.131.815.317-.02.57-.095.867-.203-.108-.317-.095-.384-.411-.54-.41-.202-.977-.072-1.408-.011-.833-.431-1.586-1.076-2.569-1.045m55.054.392c.07.24.08.358.308.501.275.173.69.22 1.008.289-.296-.5-.793-.622-1.316-.79m-5.776 2.393c-2.238.53-3.425 1.804-5.323 2.888-.334.19-2.846 1.23-3.244 1.353l-.006.163.116-.008c.318-.018.48.012.785.082.61.138 1.703-.456 2.285-.681 3.44-1.333 4.88-3.806 9.234-1.899 2.164.948 3.364 2.445 5.928 2.506 3.564.001 7.079-1.821 9.636-4.226-1.505.555-2.718 1.493-4.161 2.1-2.207.929-5.442 1.297-7.632.25-3.037-1.453-3.773-2.863-7.618-2.528m-27.971.344c-1.278.405-2.351.784-3.468 1.527 2.364-.384 5.6-1.342 7.748.198.624.447 1.14 1.045 1.774 1.477 1.048.715 3.014 1.382 4.271 1.338.051-.002.102.009.153.013.8.295 1.716.56 2.566.346l.209-.213c-.01-.274.035-.41-.124-.641-.923.043-1.502.614-2.481.293-.136-.168-.332-.498-.497-.616-.7-.505-1.956-.751-2.764-1.124-1.28-.589-2.403-1.48-3.519-2.326-.801-.086-3.058-.432-3.725-.052l-.14-.064zm-23.385.285c-1.086.3-2.177.62-3.285.83 2.028 1.15 2.713.22 4.514.757.794.238 1.511.873 2.22 1.303 2.076 1.258 4.326 1.464 6.696 1.583.906-.163 1.792-1.273 2.631-1.755-.82.132-1.537.402-2.333.584-1.956.448-4.166-.087-5.772-1.235-1.582-1.132-2.574-2.228-4.67-2.067m19.325 1.328.022.095.098-.043v-.095zm38.299 4.134c.06.017.12.058.181.044zm-33.771 1.174c-.731.121-1.535.2-2.24.424 1.53.359 3.094.403 4.634.682.386.055.801.177 1.167.004-.05-.287.02-.197-.204-.356-.846-.603-2.357-.93-3.357-.754m28.874.123c-1.056.178-2.375.188-3.356.565l.047.126.24-.042c1.033-.097 2.558-.085 3.468-.573l-.098-.097z"/><path d="m139.376 36.238-.378.023c-.458-.34-1.698-3.216-2.371-4.091-.345-.447-.6-.663-.67-1.229.141.004.251.001.393.037.688.173 1.366 1.186 1.736 1.764.56.877 1.516 2.446 1.29 3.496m-24.063.577c-.162.02-.053.019-.316-.076-.148-.167-.187-.161-.212-.398-.124-1.158.915-2.92 1.637-3.784.288.065.34.076.553.277.07.804-1.304 3.119-1.662 3.98m-3.71 11.284c-.827-1.128-.924-3.243-.978-4.605-.127-3.23.516-7.09 2.782-9.546l.355.232c.034.093.106.179.102.277-.017.383-1.26 2.757-1.48 3.373-1.088 3.048-.876 5.967-.686 9.135.026.424.085.739-.095 1.133m29.729-12.074c-.457-.219-.749-.402-.935-.89.009-.403.077-.517.307-.826.075.035.151.067.223.106.266.147.458.458.523.752.077.35.048.554-.118.858m-.421 14.281-.244.01c-.318-.747.49-2.48.647-3.355.295-1.649.665-3.437.642-5.11-.021-1.6-.72-3.545-.406-5.075.415.28.463.405.649.868 1.514 3.76.28 9.099-1.288 12.662m-1.054-9.286c-.26-.143-.377-.227-.486-.514-.285-.753-.767-2.365-.41-3.091.146.04.289.105.43.16.38.492.55 1.231.638 1.838.089.623.207 1.094-.172 1.607m-25.944 2.719-.164-.033c-.253-.258-.32-.568-.332-.918-.055-1.498.125-3.618 1.171-4.758.177.058.289.127.444.227.008.696-.788 4.937-1.12 5.482m39.951 9.747c2.139-1.166 4.548-1.77 6.954-2.058 1.158-.276 2.868.084 4.031.33.161.288.101.269.027.57-.075.072-.128.177-.224.218-.154.066-1.293-.18-1.538-.206-1.21-.127-2.854-.181-4.049.035q-.11.02-.221.043c-1.677.282-3.303.797-4.98 1.068m-71.997 2.03q.07-.09.143-.18c1.915-2.316 5.636-3.134 8.462-3.406 3.143-.076 6.404 1.267 8.787 3.258-.873-.23-1.706-.605-2.548-.926-2.08-.794-3.707-1.134-5.929-1.163-3.619.116-5.634 1.34-8.915 2.417"/><path d="M86.782 56.016c-.674.188-1.353.445-2.033.596-.307.069-.44.103-.722-.063.001-.233-.055-.228.091-.358 1.1-.982 4.615-1.097 6.085-1.122.793-.088 2.148.06 2.796.518l-.15.156c-.763.203-1.657-.131-2.456-.118l-.21.004c-1.014.002-2.55.55-3.401.387m81.818 2.373c-1.753-.534-3.621-.221-5.333-.717l-.079-.158c.28-.304.73-.3 1.119-.359 1.255-.13 3.824-.309 4.813.594.232.212.243.27.239.56-.303.189-.413.122-.76.08M82.926 75.963c-.39.142-.703.213-1.105.055-2.056-.81-4.045-2.73-4.955-4.72.127.03.189.04.302.088.599.254 1.377 1.227 1.883 1.68.645.575 1.353 1.207 2.109 1.633.466.263.994.428 1.419.76.225.175.233.255.347.504m4.162 4.29c-1.278-.052-2.64-.089-3.88-.437-2.132-.6-6.215-2.827-7.233-4.823-.217-.425-.365-.819-.21-1.288.843.327 1.444 1.37 2.12 1.974q1.14 1.007 2.44 1.794c1.234.74 2.519 1.33 3.904 1.721.893.251 2.15.4 2.943.845zm59.956-5.499c-.203 0-.404-.023-.606-.04-.224-.27-.178-.439-.197-.784.24.01.459.051.694.101.187.286.126.398.108.723m26.239 2.89-.145-.198c.384-.925 2.907-2.842 3.8-3.48.087.118.131.27.187.405-.012.192-.03.36-.127.53-.668 1.187-2.45 2.368-3.715 2.743m-7.626 6.296-.33-.01-.024-.099c1.037-.493 2.285-.735 3.37-1.136q.328-.12.65-.253.323-.132.641-.277.318-.144.63-.3t.618-.323.606-.346.593-.368q.292-.19.578-.39t.564-.411.548-.432.532-.451q.262-.231.515-.471t.496-.49.479-.508.46-.525.439-.542.419-.558c.322.21.405.202.512.564-.115.472-.318.787-.619 1.168-1.82 2.302-5.05 4.525-7.829 5.434-1.25.408-2.549.564-3.848.724m-74.443 1.85c-3.514.042-6.709-.673-9.794-2.388-2.03-1.128-4.346-2.899-5.008-5.221.975.397 1.916 1.826 2.749 2.537q.739.623 1.544 1.158t1.666.975c1.313.665 2.751 1.317 4.187 1.65 1.445.335 3.283.43 4.611 1.036zm72.383-3.97-.26-.105c.164-.32 4.95-1.689 5.677-1.98.778-.311 1.488-.695 2.203-1.13l.33.045.082.221c-.038.25-.066.413-.226.62-1.143 1.472-5.99 2.236-7.806 2.328m-73.777 31.023-.14.177-.185-.02c-.266-.684-.002-2.935.13-3.718.91-5.358 4.55-10.083 8.888-13.196l.27.13c-.074.715-3.464 4.07-4.128 4.916-.783.997-1.562 2.076-2.18 3.181-1.394 2.494-2.276 5.714-2.655 8.53m78.435-3.512-.548-.118c-.37-.591-.471-1.54-.709-2.214q-.695-1.94-1.67-3.757c-1.175-2.185-2.96-3.91-4.145-6.042.66.172 1.192.716 1.682 1.171 3.048 2.828 5.237 6.771 5.39 10.96m-2.244 3.145c-.089.166-.024.08-.223.233-.503-2.507-1.343-4.974-2.714-7.15-.928-1.473-2.044-2.94-2.678-4.572.11.02.158.023.268.076 1.29.63 3.792 4.621 4.477 6.033.547 1.129.947 2.347 1.376 3.526zm-74.12 1.764c-.286-.331-.305-.593-.324-1.034-.097-2.287 1.81-6.055 3.254-7.724l.077.083c.043.61-.835 2.096-1.094 2.727-.805 1.954-1.22 3.968-1.914 5.948m72.808 1.358c-.315.011-.367.023-.634-.134a38 38 0 0 0-1.928-5.001c-.687-1.455-1.829-3.085-2.137-4.66.513.17.835.701 1.155 1.12 1.627 2.133 3.907 5.899 3.544 8.675m62.963-3.887-.14-.22c-.33.108-.499.348-.857.322l-.15-.318c.044-.319.052-.305.298-.516.33-.043.342-.032.635.13.16-.112.294-.183.479-.249.172.083.349.166.532.223.547.168 1.388-.12 1.994-.138.978-.032 4.121.232 4.75.106.128-.026.352-.19.476-.257.363.07.502.103.777.373-.083.167-.148.25-.27.385-.216.083-.4.161-.636.153-.688-.025-1.294.147-1.967.166-1.561.045-3.89-.058-5.473-.167-.165.15-.232.213-.448.288zm9.702.124c-.108.023-.324.075-.428.076-.26.002-.312-.074-.465-.266-.009-.4.103-.529.323-.842.38.038.68.098.943.383-.042.34-.141.39-.374.648m-94.4 13.307c-.776-.22-1.784-.784-2.459-1.231-3.65-2.421-6.312-7.377-7.138-11.59.731.408 1.187 2.1 1.512 2.876.906 2.16 4.937 7.253 6.825 8.688.502.383.918.72 1.26 1.257m94.984-11.757c-.207.3-.261.508-.62.602a4.6 4.6 0 0 0-.625-.433c-.226.068-.455.13-.68.199-.827.255-1.553.053-2.39-.06-.191.165-.315.274-.562.337l-.454-.31c-.882.077-5.499.313-6.065.024-.02-.397.135-.51.354-.831.375.127.354.117.542.466.264.17.533-.319.937-.366l.373.305c.4.054.527-.258.945-.313.152.12.344.31.552.31.142 0 .404-.276.559-.3.63-.101 1.614.162 2.258.253.17-.146.275-.218.482-.319l.261.302c1.119-.094 2.326-.258 3.446-.215.396.016.412.079.687.349m-126.026 13.888-.1-.254c.303-.973 2.463-2.053 3.299-2.717.572-.453 1.092-.99 1.607-1.507 2.367-2.378 3.852-5.155 5.581-7.985.12.101.153.18.223.317-.104 1.042-.765 2.317-1.246 3.254-1.815 3.534-5.486 7.645-9.365 8.892m116.515-10.706c-.818-.565-.999-.034-1.841-.25-.108-.31-.103-.34-.02-.659.078-.05.143-.14.236-.153.137-.02.46.238.591.215.016-.002.27-.19.298-.202.3-.125 1.38.09 1.779.096 1.863.026 3.804.064 5.651-.195.182.114.36.214.554.304l.678-.496.325.327c.276.01.185.018.396-.006.313-.034.47-.064.762.097.137.272.154.302.12.603-.388.147-.364-.157-.711-.056-.977.285-7.1.27-8.195.09l-.218-.039zm-120.17 9.439c-.02-.133-.053-.377-.024-.504.056-.243 1.501-.93 1.798-1.093 3.106-1.697 5.671-3.983 7.635-6.94.142.624-.45 1.696-.771 2.217-1.91 3.102-5.088 5.489-8.638 6.32m122.557-7.436c-.63.333-1.173.156-1.86.08-.593-.066-.829.136-1.375.219-.338.051-.524-.046-.785-.241-.151-.288-.185-.316-.143-.633l.204-.127q.087.026.172.048c.35.087 6.333.166 6.589.087.152-.047.27-.168.405-.252 1.046.635 2.576-.157 3.692.319.216.091.174.124.251.327l-.139.226c-.781.341-1.856.006-2.667-.13-.248.186-.428.36-.755.36-.17-.19-.232-.249-.47-.361-.13.124-.238.23-.4.314-.066.035-2.304-.092-2.387-.129-.047-.022-.085-.064-.135-.08-.063-.02-.132-.018-.198-.027m-81.849 7.092c-.328.05-.64.091-.96-.034-2.983-1.162-6.284-4.103-7.527-7.082.047.018.094.032.138.053.638.313 1.707 1.523 2.303 2.064 1.601 1.453 3.228 2.656 5.012 3.874.258.176.695.425.867.677.089.132.111.299.167.448m78.39-4.298c-.07.019-.137.044-.207.055-.295.047-.374-.037-.602-.198-.06-.292-.067-.343.029-.623.45-.168.893.17 1.355.093 2.102-.348 4.447-.106 6.592-.07.594.01 1.346.11 1.914.006.225-.041.343-.141.523-.272.329.115.69.21.961.437.161.135.105.112.112.354l-.204.203c-.37.1-10.108.099-10.474.015m-123.077 4.187c-.02-.085-.053-.219-.054-.302 0-.008.028-.268.046-.293.252-.341 1.949-1.265 2.427-1.585 1.337-.892 2.543-1.879 3.8-2.873.015.248.007.246-.09.458-.987 2.146-4.017 3.814-6.13 4.595m73.682-3.982c-.8-.01-1.759.125-2.532-.004-.76-.126-1.567.259-2.249-.117l-.056-.269c.206-.274.236-.287.561-.401.875.385 6.406-.014 7.917.112.202.017.361-.115.54-.205 1.264.776 3.92-.529 5.145.403l-.045.218c-.824.518-7.667.222-9.281.263m54.062 2.168-.13-.064c-.176.088-.25.09-.45.078-1.189-.07-2.4.043-3.591.038-.522-.002-1.003.028-1.391-.359.026-.326.008-.325.242-.55.378-.025.715.198 1.046.359.123-.105.344-.318.506-.348.58-.105 2.603.055 3.278.1.39.025.636.017 1.007-.123l.102-.04c.099.01.263.12.354.168 1.025-.172 4.031-.186 4.972.181l.07.171-.147.2c-.757.35-4.818.28-5.869.189m-55.797.666c-.906-.266-1.809.105-2.966-.333.207-.235.994-.433 1.333-.456.584-.04 1.256.075 1.857.076l6.066-.002c.607 0 1.453.157 2.001-.087.851.3 1.87-.284 2.65.362l-.034.21c-.794.544-9.9-.208-10.907.23m61.823 1.966c-1.462-.062-10.99.056-11.451-.186-.154-.307-.088-.358.002-.696l.404.188c.78-.092 7.026-.252 7.36-.077.692.363 1.736-.305 2.496-.046l.069.256.153.042c.135-.131.246-.239.414-.328.17-.091.226-.022.4.032.195.33.163.44.154.815m-52.495.766-.056.03c-.55-.165-1.502-.01-2.1-.011-1.227-.004-9.82.083-10.198-.15l.005-.295c.45-.65 1.295-.09 1.939-.298.044-.015.084-.04.126-.059 1.072.385 9.273-.027 10.995.033.367.013.63.085.88.356l-.127.226c-.472.275-.942.198-1.465.168m-121.755.653.075.057zm173.746 1.249-.06-.01c-1.296-.394-8.782-.168-10.711-.221-.233-.14-.238-.135-.328-.39.135-.294.412-.394.683-.54.07.07.123.166.212.21.264.13 7.181.084 8.065.075.651-.007 1.897-.205 2.465.015.18.07.16.178.217.345-.148.357-.192.338-.543.516m-50.542.649c-1.165.261-2.51.114-3.704.091q-2.897-.047-5.794-.04c-.657-.004-1.332-.094-1.985-.066-.601.026-1.608.373-2.153.146-.155-.064-.117-.062-.172-.221.048-.085.118-.213.181-.283.285-.317.615-.22 1.007-.222l.229.161c.798-.248 11.999-.326 12.659-.083l.102.22-.123.283zm45.924 1.465-.082-.065c-.287.085-.153.072-.451.055-1.184-.068-5.19.19-5.934-.462l.016-.218c1.11-.674 3.826.24 5.1-.177.065-.02.129-.046.193-.069.257-.017.396.165.728.117.343-.05.498-.03.824.074.27.085.707-.292 1.111-.255.122.176.21.287.373.431.2-.198.337-.38.62-.444.229.143.444.269.691.375l.491-.312.237.056.025.293.112.089c.298-.236.369-.31.738-.368.278.205.245.21.304.556-.899.62-3.758.213-4.943.31zm-30.011.194-.175.06c-.2-.077-.32-.113-.538-.103-1.948.094-3.95.057-5.9.031-.714-.01-1.608-.167-2.293-.04-.648.12-1.57.246-2.189-.04-.19-.089-.132-.084-.202-.315l.129-.18c.327-.084.53-.056.85.012.21.045.374-.116.557-.215.225.082.371.125.615.115 1.645-.066 3.301.012 4.949.006 1.505-.006 3.064-.123 4.565.006.353.031.465.039.704.307l-.104.201c-.376.164-.56.185-.968.155m-15.736 1.382c-1.111-.175-2.354-.069-3.482-.065l-6.843.003c-1.258-.002-2.596.084-3.841-.078-.035-.324.207-.53.389-.793.9.431 9.094.17 10.645.149.928-.012 2.188-.193 3.07.05.173.315.123.372.062.734m12.009.882c-1.721-.063-3.466-.027-5.19-.019-.757.004-1.596.108-2.338-.02l-.1-.252.15-.226c1.298-.469 2.774.233 4.03-.109.546-.149 1.08.137 1.565-.071q.098-.046.195-.094l.294.191c.764-.175 4.904-.242 5.73-.135.251.033.391.098.602.228l.01.219c-.516.49-3.93.183-4.832.273zm38.906-.304c-.213.242-.4.371-.672.537-.478-.019-.178-.204-.513-.446l-.33.373c-.518.025-2.397.175-2.773.04-.152-.055-.256-.197-.383-.296-.633.316-2.91.449-3.667.326-.163-.026-.348-.263-.503-.296-.548-.114-1.447.462-2.641.126-.212-.307-.151-.459-.137-.824.334-.005.713-.08 1.01.077l-.034.511.207-.011.378-.523c.377-.018.466.096.777.296.913-.804 1.656.13 2.621-.034.11-.019.392-.251.501-.32.399.031.431.115.721.373a1.8 1.8 0 0 0 .515-.19l.204-.11c1.27.082 3.714-.187 4.719.39m-50.867 1.445c.233.17.179.157.23.42l-.163.153c-3.215.285-6.582.069-9.814.066-1.289-.001-2.841.236-4.091-.019-.257-.052-.302-.049-.451-.273.122-.212.147-.233.363-.35.317.05.623.115.943.05.053-.01.104-.03.156-.045l.107-.05c.607.32 11.063-.255 12.72.048m15.681.965-.076-.099c-.055.015-.113.025-.167.045-.406.148-10.531.058-11.115-.116.07-.162.15-.169.3-.256h-.085c.45-.322.835-.316 1.376-.347l.131-.037c.139.077.228.122.391.124 1.143.017 2.3-.047 3.444-.074.16.11.319.212.488.305 1.271-.834 3.534.041 5.008-.205.429-.071.976-.23 1.377-.026.096.282.057.234-.064.483-.373.247-.567.197-1.007.203m35.232-.339c-.05.262-.07.36-.225.585-.709.214-1.646.173-2.38.139l-.327-.374c-.162.151-.288.265-.513.32-.31.075-7.429.115-7.752.032-.096-.024-.167-.107-.251-.16-.082-.346-.018-.406.119-.74.02.004.042.005.062.013.305.119.467.193.802.18 1.058-.042 7.674-.143 8.159.021.46.155.525.085.963.033.16-.018.323 0 .481-.027.382-.065.47-.15.862-.023m-34.236 2.22c-.133.056-.187.086-.319.122-1.028.279-4.275-.095-5.573-.06-.575.016-1.553.341-2.075.216-.15-.036-.351-.26-.495-.275-1.025-.103-2.734.595-3.666.032-.026-.34.044-.358.213-.64.909.192 1.859.123 2.785.125 1.642.002 3.288.027 4.93-.002 1.4-.026 2.932-.204 4.32.076l.046.254zm-26.303.694c-1.158-.319-2.462.194-3.63-.023a7 7 0 0 0-.741-.093l-.115-.2c.037-.297-.023-.256.228-.468 1.122.171 9.086.207 9.88-.09.14.078.246.148.412.148.882 0 2.822-.352 3.543.087l.019.286c-.43.469-1.622.164-2.22.172-.361.005-.712.115-1.074.123-1.55.032-5.032-.323-6.302.058m60.446.193-.323.223c-1.4-.137-8.805.167-9.503-.196-.11-.057-.742.226-1.027.214-.271-.262-.338-.698-.442-1.05.022.006.045.007.066.017.926.418 7.725.346 9.188.308.636-.017 1.192-.23 1.829-.04zm-35.117 1.562-.07-.063c-.303.059-.167.056-.44.031-.272-.025-3.198-.157-3.33-.14-.153.019-.438.198-.588.264a2.3 2.3 0 0 1-.518-.258l-.168-.115-.398.285c-1.343-.046-4.582.297-5.653-.238l-.061-.185c.334-.306.491-.31.924-.407.162.092.273.16.465.162 1.185.009 8.883.113 9.46-.087q.093-.033.184-.071l.17.083.004.288c.106-.044.239-.103.349-.128.323-.072.415-.063.68.098l-.033.253c-.293.253-.611.217-.977.228m35.027.682c-1.272.921-2.903-.308-4.171.396-1.151-.092-6.171.045-6.617-.071-.114-.03-.205-.118-.308-.177-.092-.396-.057-.44.091-.825.29.085.386.242.676.343.82-.258 5.398-.237 6.487-.192.613.026 1.305.351 1.905.206.467-.113.926-.168 1.403-.228.35.14.345.215.535.548m-51.224.433c-1.05-.204-2.233-.126-3.303-.13l-6.68.003c-1.162.003-2.4.096-3.552-.051-.259-.246-.227-.406-.288-.744 2.371.542 13.181-.428 14.216.34-.055.339-.132.35-.393.582m17.321 1.22c-.038.018-.074.041-.114.056-.439.164-11.483.24-12.096-.015-.13-.332-.043-.39.057-.719.208.074.389.139.613.147 1.779.06 10.307-.257 11.213.085.253.096.226.21.327.445m33.401 1.033-6.509-.023c-1.416.004-2.88.082-4.289-.056-.15-.357-.049-.518.04-.887.061.006.123.006.182.018 2.154.423 9.828-.242 10.941.3l.054.212c-.147.259-.156.306-.42.435m-50.583-.296c.02.018.042.033.06.053.189.21.244.219.216.507-.218.153-.383.178-.643.198-1.526.117-3.166-.014-4.708-.013-2.86.002-5.724.063-8.584.007-.264-.237-.259-.407-.346-.745 2.187.248 4.557.075 6.767.08 2.334.005 4.937.227 7.238-.087m17.423 1.58-.054.035c-.322.224-.56.238-.948.256-2.18.1-4.415-.005-6.601-.002-1.416.001-2.974.145-4.369-.007-.283-.032-.341-.062-.543-.246l.035-.106c.26-.245.556-.3.89-.391.07-.005.14-.022.208-.013 1.585.206 10.401-.144 11.01.176.14.073.248.198.372.298m33.506.919-.291.294c-2.113.111-4.259.024-6.375.021-1.435-.002-2.912.108-4.34.002-.19-.013-.2-.1-.318-.24.002-.332.127-.485.299-.756 1.359.589 7.46.024 9.43.146l.093.27c.311-.113.797-.344 1.133-.267.183.042.284.368.369.53m-50.961 1.164q-4.43-.034-8.86.026c-1.614.008-3.59.175-5.164-.177l.092-.138c.5-.314.909-.302 1.487-.296 3.875.195 7.971-.271 11.82.047.316.026.515.025.732.272zm-88.469 28.983c-.137.01-.171.014-.322.011-.426-.008-.674-.086-.967-.406-1.004-1.096-1.001-3.55-.935-4.964.07-1.487.392-3.124 1.535-4.159.163.006.28.006.446.029.422.059.707.287.955.62 1.081 1.447 1.044 4.19.802 5.916-.172 1.223-.5 2.2-1.514 2.953m48.523-.117-.057-.003c-.5-.027-.823-.062-1.185-.432-1.033-1.054-1.084-3.345-1.035-4.748.053-1.517.365-3.056 1.509-4.13.162-.003.334.004.493.034.446.085.74.386.973.756 1.039 1.653.99 4.816.512 6.659-.223.86-.442 1.395-1.21 1.864m48.789 30.173-.111-.07zm-86.911 9.82-.439-.147-.056-.166.343-.062c.062.127.12.236.152.374"/></svg>