<svg xmlns="http://www.w3.org/2000/svg" viewBox="0 0 256 256"><path d="M120.539 0h16.184c2.238.349 4.55.436 6.805.696q6.66.738 13.188 2.256 1.371.325 2.735.681t2.72.74q1.356.386 2.703.8t2.685.859 2.666.917 2.645.974 2.624 1.032 2.6 1.089q1.294.558 2.576 1.145 1.281.586 2.55 1.2 1.268.615 2.524 1.257 1.255.641 2.495 1.31 1.241.67 2.467 1.365 1.226.696 2.436 1.418t2.405 1.47q1.195.75 2.372 1.523 1.178.775 2.339 1.574 1.16.8 2.303 1.625t2.268 1.674 2.231 1.723 2.193 1.772 2.154 1.819 2.113 1.864 2.073 1.911 2.03 1.956 1.988 1.999 1.944 2.041 1.898 2.084 1.853 2.125 1.806 2.164 1.758 2.203 1.71 2.241q1.122 1.527 2.199 3.085t2.108 3.147 2.016 3.206 1.923 3.263 1.828 3.317 1.732 3.368 1.634 3.418 1.534 3.462q.743 1.743 1.434 3.506.692 1.763 1.333 3.545.64 1.783 1.229 3.583t1.125 3.616q.537 1.817 1.022 3.648.483 1.83.916 3.675.43 1.844.807 3.7t.703 3.722q.91 5.507 1.37 11.07c.144 1.864.125 5.177.507 6.845v6.305l-.02.122c-.43 2.905-.405 5.947-.692 8.881q-.86 8.168-2.588 16.196-.307 1.375-.645 2.743t-.708 2.728q-.367 1.36-.764 2.712-.398 1.351-.826 2.694t-.885 2.675-.943 2.655-1.002 2.633q-.516 1.312-1.06 2.611t-1.117 2.587q-.572 1.287-1.173 2.562t-1.23 2.535-1.285 2.507-1.34 2.478q-.685 1.233-1.395 2.449-.711 1.216-1.449 2.417-.737 1.2-1.5 2.384-.764 1.184-1.554 2.351t-1.605 2.316-1.656 2.28-1.705 2.243-1.755 2.205-1.802 2.166q-.913 1.072-1.85 2.125-.936 1.052-1.896 2.084-.96 1.031-1.942 2.042t-1.986 1.998q-1.004.989-2.03 1.954-1.026.966-2.073 1.91-1.046.942-2.113 1.862-1.068.92-2.155 1.816-1.088.896-2.194 1.768-1.107.871-2.233 1.719-1.503 1.122-3.038 2.2-1.535 1.08-3.1 2.114t-3.16 2.023-3.217 1.931-3.271 1.839-3.322 1.744-3.371 1.647-3.417 1.55-3.46 1.452q-1.74.7-3.5 1.351-1.76.65-3.537 1.25-1.778.6-3.572 1.148-1.794.55-3.604 1.045-1.809.498-3.632.942-1.822.445-3.657.835-1.835.393-3.68.733-5.158.898-10.376 1.315c-1.897.158-3.977.11-5.829.485h-10.952c-2.247-.452-4.759-.435-7.049-.64q-5.37-.483-10.676-1.435-1.85-.33-3.69-.715-1.84-.383-3.667-.823-1.828-.437-3.642-.93-1.814-.49-3.612-1.034-1.799-.546-3.581-1.143t-3.546-1.247q-1.763-.649-3.507-1.35-1.743-.701-3.466-1.453-1.722-.752-3.422-1.554t-3.374-1.653q-1.676-.852-3.325-1.753t-3.272-1.849-3.216-1.945q-1.594-.995-3.158-2.038t-3.096-2.13q-1.533-1.088-3.033-2.22-1.515-1.154-2.995-2.352-1.48-1.199-2.924-2.441t-2.85-2.526-2.775-2.61-2.695-2.69-2.615-2.769-2.532-2.845-2.446-2.92-2.359-2.99q-1.157-1.512-2.269-3.058-1.112-1.547-2.177-3.125-1.066-1.579-2.084-3.188t-1.989-3.249q-.97-1.638-1.891-3.305-.922-1.667-1.793-3.36-.871-1.694-1.692-3.413-1.745-3.736-3.261-7.57t-2.797-7.753-2.323-7.909-1.84-8.034q-1.24-6.292-1.878-12.673c-.224-2.431-.245-4.946-.597-7.357l-.02-.128v-8.93c.398-1.717.336-3.784.498-5.557q.424-4.952 1.307-9.843c3.568-19.978 10.943-38.286 22.922-54.741q.854-1.177 1.735-2.333t1.788-2.292 1.839-2.251 1.89-2.21q.956-1.093 1.938-2.165t1.987-2.121 2.035-2.076 2.081-2.03q1.052-1.002 2.127-1.981t2.171-1.933 2.214-1.884 2.256-1.833q1.139-.904 2.297-1.782 1.159-.877 2.337-1.728 1.178-.852 2.375-1.676 1.197-.825 2.413-1.622t2.448-1.566 2.483-1.511 2.517-1.454 2.55-1.397 2.58-1.34 2.61-1.28q1.312-.625 2.638-1.22 1.325-.596 2.664-1.161t2.691-1.1 2.715-1.04 2.737-.977 2.76-.916q1.384-.442 2.778-.852 1.394-.411 2.798-.79 1.403-.38 2.814-.726 1.412-.347 2.83-.663A117 117 0 0 1 113.244.74c2.42-.278 4.894-.358 7.296-.74m2.565 4.679c-5.103.28-10.192.656-15.242 1.472-27.973 4.518-52.952 18.82-71.789 39.837q-1.001 1.12-1.975 2.264t-1.92 2.311-1.863 2.357-1.804 2.403q-.888 1.212-1.746 2.446-.858 1.233-1.685 2.487t-1.624 2.528-1.561 2.567-1.499 2.605-1.434 2.64-1.37 2.674q-.668 1.346-1.303 2.707-.635 1.362-1.237 2.738-.602 1.377-1.17 2.768t-1.102 2.795-1.033 2.821-.965 2.846-.894 2.869-.824 2.889-.753 2.909-.682 2.926-.61 2.942-.538 2.956-.466 2.968-.393 2.979-.32 2.988q-.143 1.495-.248 2.994t-.174 3-.1 3.003q-.033 1.502-.028 3.004t.046 3.004.12 3.002c1.762 31.506 16.444 63.616 40.06 84.728 4.856 4.34 10.006 8.506 15.442 12.104q.808.53 1.625 1.047t1.642 1.022 1.657.995 1.673.97q.84.477 1.688.942t1.703.916 1.717.889 1.73.862q.87.424 1.745.834t1.757.807q.882.396 1.77.779.888.382 1.781.75.894.369 1.794.723t1.804.694 1.816.666 1.825.637q.915.31 1.835.608.92.296 1.845.578t1.854.55 1.862.52q.933.254 1.87.492t1.877.461q.941.223 1.885.432.944.208 1.892.402.947.193 1.897.371.95.179 1.903.343.953.163 1.908.311.955.149 1.913.281.957.135 1.917.253t1.92.22q.962.105 1.924.192.963.088 1.927.16c4.632.34 9.307.613 13.95.353l.455-.028c33.183-1.933 64.362-16.012 86.559-40.922q.766-.863 1.517-1.74.75-.876 1.484-1.766t1.451-1.793 1.419-1.82 1.385-1.845 1.35-1.87 1.316-1.895q.65-.954 1.281-1.92.632-.964 1.246-1.941t1.21-1.965q.595-.988 1.173-1.987.577-.998 1.136-2.008.56-1.009 1.1-2.028t1.062-2.048q.521-1.03 1.024-2.068.502-1.038.986-2.086.483-1.047.947-2.103t.909-2.121q.444-1.065.869-2.137t.83-2.153.79-2.168.75-2.181.71-2.196.67-2.208q.325-1.107.629-2.22t.588-2.23.547-2.242.505-2.251.464-2.26.423-2.268.38-2.276q.18-1.14.339-2.282.39-3.142.63-6.299.242-3.157.335-6.321.095-3.165.04-6.33t-.258-6.325c-1.43-24.104-10.83-48.01-25.64-67.026-4.689-6.02-10.19-11.76-15.9-16.817q-.916-.8-1.848-1.58-.931-.782-1.879-1.544-.946-.763-1.908-1.507t-1.938-1.468-1.966-1.43-1.994-1.392-2.02-1.352-2.048-1.312-2.072-1.271-2.097-1.23-2.121-1.19-2.144-1.147-2.166-1.105q-1.088-.541-2.187-1.062-1.099-.52-2.208-1.018-1.108-.5-2.227-.976t-2.245-.931q-1.128-.455-2.264-.887-1.137-.433-2.281-.843t-2.297-.797q-1.152-.388-2.312-.752-1.16-.365-2.327-.707-1.166-.342-2.34-.66-1.172-.32-2.352-.615-1.179-.296-2.364-.569t-2.374-.521-2.385-.475-2.393-.428q-1.2-.203-2.402-.381-1.202-.18-2.408-.334t-2.415-.287q-1.208-.13-2.42-.238c-5.076-.463-10.313-.756-15.407-.446z"/><path d="M131.49 249.412q-.925.104-1.855.16c-4.594.274-9.293-.441-13.852-.959-20.682-2.346-39.539-9.082-56.628-20.994q-5.672-3.875-10.836-8.405-1.119-.987-2.213-2.001t-2.163-2.055-2.113-2.107-2.06-2.157q-1.018-1.092-2.008-2.208t-1.953-2.256-1.898-2.302-1.84-2.348-1.783-2.393-1.724-2.435-1.665-2.477-1.603-2.516-1.541-2.555q-.755-1.286-1.479-2.591-.723-1.305-1.415-2.627-.691-1.322-1.35-2.66t-1.286-2.693-1.22-2.723q-.592-1.37-1.152-2.753-.56-1.382-1.085-2.779-.525-1.396-1.017-2.805t-.948-2.829-.88-2.851q-.421-1.431-.808-2.872t-.74-2.89-.668-2.909q-.316-1.458-.597-2.923t-.525-2.937-.454-2.949-.382-2.96-.31-2.967-.237-2.974q-.098-1.498-.158-2.997-.06-1.5-.083-3t-.009-3 .067-3.001.14-2.998.216-2.993.29-2.987.364-2.979.438-2.969.512-2.957q.275-1.475.586-2.943.31-1.469.658-2.928.348-1.46.732-2.91.383-1.451.803-2.892t.875-2.871.947-2.848 1.017-2.823 1.087-2.798q.56-1.391 1.156-2.769t1.225-2.74 1.292-2.708q.664-1.346 1.36-2.675.697-1.33 1.426-2.641.73-1.311 1.491-2.605.762-1.292 1.556-2.566.793-1.274 1.618-2.527t1.682-2.486 1.743-2.443 1.803-2.399q.916-1.188 1.862-2.353.945-1.166 1.92-2.307.974-1.141 1.977-2.257c3.29-3.703 6.833-7.112 10.52-10.414 21.608-19.342 46.192-28.546 74.989-30.25 4.305-.41 8.956-.018 13.25.347q1.828.155 3.65.364 1.821.21 3.636.473 1.815.265 3.621.584t3.601.692 3.58.801q1.783.428 3.553.909 1.769.481 3.523 1.016 1.755.534 3.492 1.122 1.737.587 3.456 1.227t3.417 1.33q1.699.692 3.376 1.434t3.33 1.535 3.284 1.635 3.231 1.733 3.178 1.83q1.576.94 3.122 1.926c3.369 2.149 6.647 4.384 9.753 6.903 17.163 13.92 29.779 30.349 37.987 50.89q.791 1.949 1.513 3.925.721 1.977 1.372 3.978.651 2 1.23 4.023.58 2.023 1.087 4.065t.94 4.1q.434 2.06.795 4.133.36 2.072.647 4.157.286 2.084.498 4.178c3.197 30.66-6.23 63.24-25.649 87.218q-.762.954-1.542 1.892-.781.938-1.58 1.86-.8.922-1.617 1.828-.818.907-1.653 1.797t-1.689 1.762-1.723 1.728-1.758 1.694-1.79 1.659-1.824 1.622-1.856 1.585q-.936.784-1.887 1.548-.951.765-1.917 1.51-.967.746-1.947 1.472-.982.726-1.977 1.433-.995.706-2.004 1.392-1.01.687-2.032 1.353t-2.058 1.311-2.085 1.27q-1.048.626-2.109 1.23-1.06.603-2.133 1.185t-2.156 1.144q-1.084.56-2.18 1.1-1.094.539-2.2 1.056-1.105.517-2.221 1.012-1.115.495-2.24.968-1.126.472-2.26.922-1.135.45-2.278.878-1.143.427-2.295.832t-2.31.786q-1.16.38-2.327.739-1.166.358-2.34.693t-2.354.646c-8.559 2.218-17.168 3.375-25.945 4.299m28.772-226.654.058.048c.435.69 1.517 1.369 2.274 1.646-.569-.613-1.498-1.333-2.274-1.646zm22.131 6.773.055.06c.683.716 1.258 1.523 1.957 2.228.962.97 2.097 1.854 2.95 2.918.285.354.306.544.249.985-.14.191-.246.348-.472.447-.749.327-6.499-1.752-7.752-2.154.542 1.224 1.061 2.468 1.734 3.627 2.885 4.97 7.977 7.389 13.319 8.825.23.053.425.155.644.052-.641-1.273-3.07-4.651-2.872-5.897l.215-.13c1.373.242 2.787 2.033 3.981 2.783.453.284 1.028.434 1.535.595q-.58-2.594-.974-5.223c-2.898-3.234-10.204-8.675-14.514-9.055zm31.888 26.238.06.048c.26 1.578 1.439 3.284 1.258 4.886-.109.173-.123.297-.336.35-.54.137-1.065-.29-1.508-.554.584.932 1.146 1.932 1.284 3.042l-.134.155c-1.308-.293-2.806-2.844-3.706-3.847-.532-.592-1.138-1.13-1.724-1.668.187.82.37 1.646.67 2.433.586 1.538 1.448 2.946 1.672 4.599-1.525-.468-2.864-1.11-4.222-1.945 2.014 4.51 4.414 8.352 7.95 11.828q1.076.99 2.254 1.856t2.443 1.597c-.213-1.197-1.55-5.129-1.147-5.99.863.16 3.202 2.826 4.028 3.552.61.538 1.268 1.018 1.928 1.494q-.042-.232-.089-.464c-.274-1.356-.668-2.698-.978-4.049-.6-2.623-.977-5.657-2.248-8.046-1.051-1.976-2.584-3.77-3.977-5.513-.995-1.244-2.085-2.844-3.418-3.716zM118.78 13.052c-.787.05-1.642-.004-2.278.525-.25.458-.404.906-.245 1.428.192.634.717.965 1.282 1.238.71.343 2.088.72 2.47 1.424-.058.304-.15.417-.425.579-.864.51-1.796.775-2.65 1.35-.184 1.086-.137 1.876.143 2.94 2.598.428 5.173.83 7.802 1.002 4.288.283 8.661.1 12.957.006-.225-.79-.418-1.62-.729-2.379-.463-.129-.926-.274-1.393-.385-.85-.173-2.325-.287-2.892-.967.004-.257-.012-.307.19-.494.75-.691 2.528-.994 3.521-1.095q.434.431.862.87c1.27-.194 2.426-.489 3.615-.976-.921-.365-2.222-.628-2.666-1.593-.292-.633-.38-1.328-.385-2.019-.953-.106-2.647.907-3.436.135.093-.3.223-.537.377-.809l-.07-.25c-1.64-.91-13.707-.717-16.05-.53m21.438.695c-.385.697-.378 1.277-.344 2.056 1.176.336 4.35.863 4.934 1.91.11.197.157.536.043.741-.521.944-4.754 1.611-6.005 2.133l.68 2.963c3.517 2.55 13.511 4.128 17.794 4.637-.12-.645-.214-1.306-.429-1.928l-2.421-1.142c-.437-.235-1.42-.619-1.577-1.097.829-.279 2.904.562 3.876.706 1.09.162 2.162.17 3.261.143-1.008-.984-3.117-2.612-3.364-4.045.109-.186.058-.2.246-.23.898-.138 2.363 1.03 3.092-.032.17-.247.138-.519.063-.793-.219-.805-.95-1.21-1.656-1.536-1.732-.8-3.888-1.201-5.724-1.738-2.882-.842-5.796-1.9-8.74-2.478-1.198-.236-2.509-.394-3.729-.27m-30.263.176c-3.488.424-12.853 1.784-14.959 4.465-.36.46-.68 1.067-.595 1.664.783.572 3.747-.097 5.022.555l.025.198c-1.17 1.03-3.43 1.404-4.881 1.947-.717.268-1.404.628-2.08.985.807.016 1.678.074 2.476-.053 2.167-.344 3.453-1.143 5.779-.791-1.402.93-2.847 1.682-4.309 2.508l-.258.309c.076.2.036.223.246.32.52.242 1.39.23 1.962.267 5.67.358 11.681-1.5 17.058-3.138-.296-1.157-.552-2.121-1.65-2.782-1.555-.935-3.92-.782-5.684-1.189 2.059-1.272 4.345-2.585 6.69-3.214l.163-.173c-.107-.393-.24-.578-.607-.775-1.235-.664-2.988-1.362-4.398-1.103m5.226 3.61c-.99.163-1.925.406-2.837.839l2.153.475 1.044.182c.363-.352.795-.683.971-1.169-.074-.202-.021-.198-.208-.267-.347-.128-.758-.073-1.123-.06m-25.392 3.142c-4.087.415-14.073 2.996-16.643 6.177a2.04 2.04 0 0 0-.432.882c.068.245.07.385.338.486 1.523.574 4.132-1.744 5.76-1.037.016.288-.03.297-.222.5-1.42 1.5-3.572 2.419-5.476 3.11l-.581 1.509.225-.054c2.058-.51 4.377-2.035 6.51-1.78l.153.171c-.226.76-1.11 1.158-1.742 1.55-1.157 1.08-1.688 2.154-2.203 3.617 6.95-1.997 15.152-4.626 19.208-11.06-1.61-.27-2.993-.237-4.6.069-.508.097-1.644.509-2.103.316l-.051-.174c.987-1.226 4.114-2.354 4.496-3.62-.087-.299-.118-.347-.413-.505-.542-.292-1.63-.215-2.224-.157m73.891.098c-.49.134-.917.237-1.336.538-.171.318-.155.297-.057.647 1.643 1.942 4.26 1.504 5.47 2.253.368.228.5.464.554.883-.171.335-.365.464-.712.588-.88.315-2.008.216-2.935.233-1.662.031-3.81.166-5.338.848 2.313 4.183 10.357 7.24 14.881 8.558 1.516.441 3.06.731 4.615.99q-1.085-1-2.157-2.014c-1-.882-1.948-1.763-2.862-2.736.724.285 1.438.595 2.209.727-.283-.464-.632-.925-.72-1.47.086-.338.106-.332.389-.543.347-.094.578.007.9.132 1.19.46 2.322 1.178 3.455 1.767q1.957 1.001 4.038 1.708c-1.48-1.437-3.061-2.885-4.278-4.556-.638-.876-.886-2.12-1.651-2.88-1.644-1.63-11.745-5.74-14.18-5.686q-.143.004-.285.013m-47.786 5.39c-2.817.375-5.737 1.634-8.716 2.096-2.748.427-5.561.604-8.338.694-1.349.045-2.734-.021-4.076.11-7.063 6.58-11.546 6.708-20.08 9.676-2.765 3.767-5.697 7.422-10.218 9.098-1.438.533-2.958.853-4.444 1.227-2.268 4.223-4.724 8.442-8.466 11.547-1.496 1.242-3.44 2.04-4.66 3.585-1.771 2.242-2.726 4.921-3.987 7.45-1.367 2.743-3.691 5.407-6.081 7.33-1.046 3.819-1.996 7.954-3.841 11.481-.681 1.303-1.643 2.398-2.457 3.612-.713 1.063-1.212 2.306-1.683 3.49-1.022 2.565-.421 4.343-.842 6.895-.517 3.137-1.858 5.985-2.488 9.068-.757 3.705-.07 7.96.082 11.728l34.527.006c5.98-.002 11.974.081 17.952-.022l.008-29.9c.005-4.437-.19-8.944-.012-13.373l59.062-.057 22.517.052c4.302.012 8.624.087 12.924-.028.182 14.422-.2 28.854-.025 43.274l54.306.035c.066-2.959.76-6.018.62-8.956-.145-3.068-1.634-6.143-2.25-9.157-.563-2.756-.702-7.227-1.659-9.585-.425-1.048-1.067-2.007-1.646-2.975-1.09-1.821-2.21-3.654-3.026-5.62-1.184-2.853-1.484-6.232-3.055-8.876-1.466-2.468-4.027-4.594-5.667-7.222-1.863-2.984-2.823-6.745-5.27-9.306-2.33-2.437-5.29-4.266-7.672-6.701-2.482-2.538-4.29-5.926-7.021-8.167-2.119-1.738-4.909-2.674-7.294-4.626-1.511-1.237-4.585-4.427-5.941-5.18-1.129-.628-2.468-.979-3.691-1.383-2.352-.777-4.755-1.497-7.022-2.5-1.863-.825-4.49-2.882-5.992-3.366-1.438-.464-3.182-.436-4.687-.63q-3.193-.402-6.317-1.171-2.867-.679-5.68-1.552c-2.192-.684-4.255-1.664-6.576-1.712-2.794-.057-5.59.133-8.385.026l-8.324-.358c-1.446-.055-2.968-.185-4.41-.057m-45.93 3.759c-5.012.588-9.534 3.681-12.617 7.556-.792.996-1.423 1.967-1.77 3.202 2.472-.956 4.772-2.123 7.363-2.768-1.753 3.058-5.684 3.159-7.283 6.415l.02.307c.517.228 6.754.556 7.6.517.501-.023 1.012-.096 1.483-.274 3.343-1.263 8.136-8.002 9.61-11.174-1.218.071-2.203.281-3.349.678-.448.155-.915.394-1.379.482-.264.05-.281.064-.507-.095.113-1.384 2.966-3.143 2.79-4.625-.406-.347-.793-.317-1.29-.28q-.336.025-.671.059m130.318 12.274c.65 1.721 1.762 3.23 2.267 5.006-2.085-.617-4.059-1.455-6.024-2.378.65 1.827 1.299 3.628 1.55 5.562-1.55-.51-3.016-1.228-4.533-1.824 2.653 4.06 7.341 8.757 11.645 11.079 1.016.463 2.058.902 3.048 1.418-.412-1.65-1.782-5.158-1.652-6.607l.152-.168c.651.053 4.667 3.105 5.488 3.663-1.454-6.563-2.494-7.284-7.05-11.873-1.169-1.178-2.273-2.589-3.693-3.474a2.64 2.64 0 0 0-1.198-.404m-145.882.459-.15.058c-1.482.553-3.08.72-4.58 1.225-3.58 1.205-5.55 5.439-7.045 8.63q-.9 1.899-1.576 3.889c1.156-.996 5.5-4.83 6.887-4.825.046 0 .09.01.136.017.15.253.153.15.096.399-.326 1.422-3.906 4.392-5.078 5.643-.788.843-1.236 1.625-1.68 2.682 2.581-.82 4.532-1.04 7.22-1.131 4.221-3.005 7.687-7.893 9.739-12.56-2.602-.163-3.758.455-6.124 1.27.49-1.867 1.516-3.45 2.233-5.214zM40.164 57.41c-2.021.32-5.258 1.392-6.524 3.084-1.815 2.427-3.829 10.788-4.434 14.003.762-.683 4.447-4.432 5.058-4.593.181.227.148.28.117.56-.184 1.664-1.364 3.317-1.953 4.879q-.239.733-.467 1.471c.7-.331 1.397-.663 2.137-.897 1.007-.318 2.207-.465 3.121-.998 2.46-1.434 4.535-6.828 5.675-9.492.328-.765.723-1.52 1.002-2.304.135-.378.225-.696.22-1.098-.179-.213-.079-.18-.327-.195-1.325-.084-4.532 1.718-5.503.77-.215-1.455 2.58-3.508 2.2-5.026-.104-.064-.2-.144-.322-.163M26.483 73.62c-2.662 3.763-5.614 8.454-6.19 13.114-.245 1.987-.084 4.072-.03 6.071.498-.71 4.077-4.914 4.625-5.232.294-.015.459-.026.69.207.225.227.255.439.195.737-.205 1.017-1.11 2.193-1.593 3.122-.524 1.006-.849 2.04-1.064 3.15 1.82-.418 3.56-.918 5.082-2.047 3.942-3.891 5.388-9.993 6.551-15.239-1.368.987-2.513 2.209-3.507 3.567-.386-.181-.801-.319-.976-.74-.552-1.33.499-4.203.846-5.585-.801.848-3.86 5.038-4.559 5.215-.317-.274-.405-.476-.428-.9-.042-.76.565-5.156.358-5.44m199.59.064c.31 1.313 1.629 4.772 1.37 5.807-.199.218-.274.318-.593.338-.616.039-1.409-.514-1.924-.816.644 1.888.758 3.435.737 5.43-1.41-2.646-2.147-5.51-4.338-7.659.088 1.614.71 3.932-.035 5.421l-.266.165c-.66-.202-1.526-1.906-2.01-2.502.496 5.302 1.69 9.904 5.941 13.423q.575.472 1.167.923c.518.436 1.157.897 1.525 1.47.848 1.318.779 4.058 2.27 4.798l.19-.091c.407-1.71-2.412-7.201-1.61-9.47l.214-.099c1.137.541 3.11 4.336 3.881 5.599-.103-7.45.322-11.107-3.258-18.031-.774-1.496-1.57-3.123-2.772-4.323-.155-.155-.292-.286-.49-.383M80.003 83.79l.008 31.877c.007 17.293-1.325 32.605 7.51 48.346 1.899 3.382 4.011 6.655 6.747 9.43 7.74 7.848 20.611 12.284 31.499 12.305 11.394.022 23.072-4.535 31.173-12.642q.32-.322.633-.653c1.63-1.766 3.272-3.686 4.59-5.697 5.963-9.102 8.108-20.63 8.526-31.34.236-6.045-.017-12.163.001-18.218l.029-33.308q-16.897-.204-33.795-.118zM21.008 93.862c-1.524 1.247-2.911 2.62-4.77 3.349-1.58 5.734-2.267 10.576-.285 16.349.947-1.74 2.311-5.486 3.417-6.738.196.056.202.007.278.169.39.821-.269 2.66-.491 3.494.66 1.39 1.22 2.85 2.007 4.173.781-1.071 1.58-2.122 2.174-3.312 2.016-4.03 2.729-9.861 2.772-14.277-1.57.922-3.137 1.72-4.62 2.788a19 19 0 0 1-.326-2.583c-.033-.636.124-2.766-.031-3.22-.025-.073-.084-.128-.125-.192m214.036.365c-.053 1.309.325 7.727.264 7.834-.033.059-.099.093-.148.14l.11.1c-.364-.009-.744-.415-.993-.673-1.34-1.39-1.907-3.278-3.317-4.657.089.965.583 4.255.251 4.941-.77.052-2.095-1.035-2.661-1.533-.619-.544-1.505-1.48-1.769-2.272l-.21.08c-.4.984 1.25 10.183 1.786 11.41.522 1.196 1.394 2.221 2.204 3.233.798 1.035 1.606 2.05 2.27 3.18.243-1.716.47-5.203 1.24-6.644l.17-.066c.235.204 2.771 6.083 3.21 6.898.391-1.834 1.522-5.87 1.51-7.47-.013-1.695-2.945-13.073-3.805-14.376-.03-.047-.075-.084-.112-.125m-2.77 3.596c.725.701 1.25 2.116 2.23 2.351.036-.587.158-1.191-.284-1.662-.419-.445-1.359-.609-1.946-.689M18.382 112.32q-.644 1.395-1.267 2.8.398 1.305 1.012 2.524c.408-.164.81-.882 1.043-1.245-.11-1.12-.09-3.19-.788-4.08m-3.098 3.018c-2.97 3.623-3.456 4.984-2.985 9.734.335 3.379.694 6.673 3.134 9.249.226-1.14 1.062-7.123 1.612-7.686l.188.048c.728 1.431-.127 6.412-.311 8.118.549.817 1.138 1.624 1.647 2.466l.7-2.807c.335-1.578-.408-3.945-.703-5.54 1.063 1.32 1.88 2.802 2.716 4.272 1.256-5.108 2.55-12.381.896-17.398-1.876 1.963-2.703 4.042-4.263 5.939-.514-.75-.959-1.48-1.281-2.335-.43-1.138-.606-3.16-1.35-4.06m220.022-.005c-.577 2.106-.655 4.397-1.345 6.447-.727-1.21-1.366-2.478-2.175-3.638-.635-.91-1.422-1.733-2.023-2.66-.095 5.98-1.401 14.83 2.386 19.844.265-1.29.713-3.596 1.901-4.362.045-.029.091-.053.137-.08.2.172.155.072.17.352.063 1.235-.564 2.652-.814 3.862.635 1.266 1.264 2.506 1.733 3.846.107-.55.258-1.12.318-1.677.51-3.731-.74-6.909.142-11.093.95 3.157.878 6.351 2.018 9.839.875-1.314 1.604-2.627 2.004-4.164.879-3.376.721-12.224.313-15.768-.752 1.683-1.722 3.09-3.051 4.373-.28-1.069-1.041-4.405-1.714-5.121m-5.032 19.894c-.381 1.572-.308 3.21-.589 4.798-.268 1.516-.78 2.98-1.08 4.488-.66 3.311-.392 7.446 1.168 10.47.254.125.448.172.729.207.026 1.446-.015 2.709.23 4.148.46-.76 1.044-1.577 1.254-2.451.343-1.43.106-5.914 1.605-6.558l.29.026c.038.063.091.119.115.189.042.119-.708 5.645-.788 6.58l1.155-1.152c5-5.14 3.628-6.647 4.552-13.177.245-1.732 1.011-3.419 1.221-5.117.003-.024-.001-.048-.002-.073-.275-.111-.333-.12-.63.005-.374.156-.764.536-1.069.804-.903.797-1.696 1.648-2.36 2.657-.396.602-.724 1.27-1.193 1.819-.65-1.63-.793-3.399-1.454-5.023l-.054-.136c-.251.671-.49 1.353-.763 2.016-.646-1.098-1.691-3.779-2.337-4.52m-50.71.197c-2.492.252-4.951.742-7.286 1.671l-.036 1.608c7.522-1.652 12.592-1.533 19.967.306 2.442.609 5.177 1.434 7.698 1.556 1.059.05 2.144-.047 3.204-.083 3.11-.106 6.135-.272 9.19-.902 2.691-.556 5.332-1.323 8.043-1.797 2.375-.39 4.63-.417 7.024-.281l.259-2.012c-2.204-.047-4.395-.078-6.581.265-2.516.396-4.907 1.283-7.367 1.915-3.683.946-7.567 1.288-11.366 1.166q-2.096-.08-4.178-.345-2.08-.264-4.13-.71c-4.616-1.01-9.646-3.125-14.44-2.357m-151.641.377c-1.193.08-2.378.137-3.541.435.185.57.364 1.135.61 1.682 4.073-.209 7.987-.293 12.016.517 2.776.559 5.517 1.506 8.329 1.857 2.951.369 6.132.213 9.1.125 3.561-.105 6.84-1.24 10.288-1.961q1.867-.371 3.763-.541t3.799-.136c1.024.016 2.246-.036 3.243.17l3.016.354-.079-1.853c-4.69-1.12-9.613-.949-14.295.151-2.165.508-4.292 1.199-6.484 1.591-2.809.503-5.746.571-8.596.513-7.178-.146-13.881-3.905-21.17-2.904m-7.265.31c-.468 1.414-1.018 5.28-1.578 6.015-.21.025-.18.068-.326-.066-.727-.667-.849-2.138-1.329-3.013-.633-1.154-1.574-1.946-2.598-2.736-.694 1.941-1.416 3.745-2.445 5.542.368 1.113.705 2.221.962 3.367.57 2.548.798 5.732 2.293 7.912.787 1.149 1.906 2.024 2.96 2.916q-.188-3.488-.105-6.98l.202.023c.364.595.51 1.31.68 1.98.479 1.893.648 4.668 2.243 5.939.525.418 1.26.674 1.875.94-.025-.644-.004-1.37-.156-1.996-.327-1.35-1.001-2.926-1.78-4.075-.32-.473-.832-.992-1.05-1.512-.092-.216-.096-.355-.08-.584l.16-.084c.88.48 1.326 1.57 1.998 2.28.345.366.866.62 1.302.864.62-4.595.749-11.755-2.213-15.647q-.453-.592-1.015-1.084m204.861 2.448c-5.997.109-9.732 1.241-15.411 2.446q1.422.36 2.864.63c4.498.779 9.306.966 13.855.512q.384-1.77.497-3.576zm-195.923.123c-1.402.05-2.798.105-4.196.229.319 1.193.667 2.386.925 3.593 4.388.18 8.601.07 12.954-.529 1.696-.285 3.406-.546 5.072-.976-4.903-1.036-9.694-2.409-14.755-2.317m149.71-.006c-2.448.188-4.785.585-7.173 1.14l-.133 2.396c4.126.14 8.237.26 12.367.188 1.83-.032 3.742-.03 5.56-.255 2.473-.153 4.884-.613 7.323-1.024-4.222-1.355-13.466-2.96-17.945-2.445m-109.71.127c-4.276.268-8.217 1.565-12.412 2.197 1.757.232 3.474.688 5.215 1.01 1.597.294 3.225.452 4.841.601 3.925.175 7.752.02 11.674-.172-.102-1.047-.188-2.097-.307-3.142-2.974-.405-6.007-.732-9.011-.494m132.718 2.624c-1.694.101-3.4.186-5.073.484-1.711.304-3.382.792-5.104 1.041-4.458.644-9.013.705-13.509.639-2.212-.033-4.517-.029-6.703-.392l-.35 1.952c8.944 2.56 15.925 1.175 24.706-.808 4.898-.992 11.21-.897 16.131.034 1.68.317 3.32.818 4.988 1.183 2.733.597 5.868.932 8.663.785.212-1.032.36-2.055.48-3.102-3.68.384-7.293.462-10.956-.165-2.183-.374-4.244-1.149-6.399-1.566-1.722-.334-5.112-.298-6.874-.085m-155.725.11c-2.428.455-4.852 1.023-7.293 1.392-4.252.64-8.527.745-12.817.567.086.94.152 1.886.265 2.823 2.91.201 5.864.203 8.757-.208 2.534-.36 4.942-1.157 7.44-1.662 4.564-.922 11.605-1.166 16.09-.053 7.247 1.573 12.873 2.951 20.388 1.32l-.35-2.466c-4.714.534-9.538.718-14.255.103-2.629-.342-5.13-1.087-7.724-1.577-2.298-.434-8.232-.58-10.501-.239m2.632 3.14c-2.093.118-4.162.275-6.218.711-2.306.49-4.55 1.208-6.882 1.578-3.117.496-6.235.417-9.377.365.03.64.04 1.287.12 1.923 3.392.237 6.833.143 10.175-.515 2.575-.507 5.075-1.27 7.674-1.682 4.104-.651 8.708-.668 12.816-.033 2.28.39 4.496 1.037 6.764 1.478 4.748.923 11.04 1.343 15.664-.081l-.397-1.73c-4.125.615-8.044.894-12.211.368-3.17-.4-6.182-1.376-9.314-1.93-2.914-.516-5.866-.516-8.814-.451m152.101 0c-2.981.201-5.84.93-8.752 1.562-7.156 1.553-13.995 2.014-21.124-.187l-.257 1.721c9.457 2.924 15.597 1.77 24.784-.428 6.927-1.235 13.581-.96 20.409.723 3.191.786 6.555 1.923 9.869 1.847l-.066-2.55c-1.42.043-2.816.07-4.234-.076-2.825-.292-5.562-1.03-8.332-1.618-3.857-.818-8.361-1.4-12.297-.994M25.141 155.94c.143 1.425.919 5.801.643 6.9-.282.102-.393.158-.68-.011-.809-.475-1.265-1.945-1.918-2.648-.677-.728-2.539-1.473-3.498-1.731l-.105.044c-.31.125-.56.222-.894.093-.224-.087-.448-.265-.65-.396l-.163-.105-.098-.064c.22 2.022.333 4.105.694 6.105.588 3.263 2.023 7.795 4.68 9.99.495.408 1.05.733 1.6 1.06-.181-.974-1.091-4.243-.609-4.99.31.034.443.133.633.387.184.245.338.531.492.796 1.036 2.335 1.784 4.278 4.014 5.72-.22-1.424-.395-2.883-.806-4.267-.212-.714-1.301-2.904-1.207-3.458l.123-.08c1.132.5 3.178 3.693 5.049 4.873-1.256-4.07-3.99-16.207-7.3-18.218m202.917.016c-4.838 5.79-4.553 11.023-6.438 17.769 1.552-1.133 3.04-2.514 4.742-3.403-1.831 2.598-3.304 5.025-3.566 8.292.703-.119 1.315-.242 1.947-.594 1.713-2.419 1.792-5.69 3.135-8.343.41-.652.8-1.375 1.5-1.752l.18.094c.207 1.238-2.053 6.277-2.404 8.106 1.604-.4 2.636-1.286 3.48-2.687 1.574-2.614 1.908-5.723 2.723-8.612.588-2.086 1.372-4.124 2.161-6.141-2.166.571-3.315 1.493-4.822 3.102-.738-.75-1.383-1.565-1.766-2.558-.38-.988-.166-2.63-.872-3.273M28.74 157.605c.446.59.897 1.17 1.28 1.806 2.312.216 4.654.411 6.928.905 4.14.9 7.896 2.306 12.2 2.4 2.451.052 5.07.094 7.499-.26 2.841-.413 5.572-1.385 8.365-2.021 6.145-1.401 13.087-1.124 19.114.81-.3-.738-.584-1.487-.975-2.184-5.458-1.49-11.424-1.93-16.987-.773-2.231.464-4.403 1.18-6.628 1.666-2.523.552-5.06.744-7.637.777-2.754.035-5.43-.082-8.147-.584-2.62-.484-5.145-1.314-7.746-1.866-2.414-.512-4.807-.673-7.266-.676m195.425.066c-6.718 1.084-13.111 3.552-20.001 3.499-3.414-.026-7.042-.591-10.364-1.379-1.746-.414-3.47-.95-5.224-1.323-7.32-1.559-14.032-.016-21.004 2.07-.212.532-.662 1.333-.634 1.899l.217.045c1.679-.49 3.327-1.106 5.023-1.531 5.876-1.473 12.264-1.705 18.168-.306 4.281 1.015 8.287 2.22 12.742 2.287 3.591.054 7.043-.264 10.53-1.151 1.625-.414 3.215-.974 4.845-1.363 1.526-.364 3.101-.591 4.648-.858.316-.398 1.313-1.446 1.31-1.907zM30.58 160.306c.204 1.384 1.182 2.975 1.646 4.324q2.733-.028 5.45-.326t5.39-.864l1.506-.308c-2.059-.352-4.066-.97-6.095-1.458q-3.901-.958-7.898-1.369m41.517.25a42.7 42.7 0 0 0-8.48 1.173c-2.05.499-4.088 1.139-6.163 1.524 4.453.643 8.765 1.21 13.274 1.264 2.724.036 12.046-.073 14.094-1.306l.142-.236c-.187-.44-.533-.612-.966-.787-2.965-1.201-8.67-1.692-11.901-1.631m150.463-.03q-6.335 1.699-12.789 2.873c.75.083 1.507.15 2.253.261 2.998.352 6.01.67 8.996 1.113.307-.98.594-1.972 1.046-2.897.115-.235.596-.968.603-1.186.002-.054-.03-.104-.047-.156zm-41.883.278q-2.073.088-4.132.346t-4.089.684c-1.846.398-3.666.95-5.52 1.297 3.94 1.488 12.817 1.341 17.283 1.355 4.499-.063 9.14-.17 13.546-1.18-6.076-1.159-10.696-2.784-17.089-2.502m-133.003 2.874c-2.754.156-5.319.918-8.026 1.334-2.37.364-4.744.404-7.128.587.279.996.548 1.996.876 2.978 3.467-.721 6.948-1.681 10.433-2.269 4.323-.729 9.069-.812 13.409-.215 2.359.324 4.65.97 6.985 1.42 1.933.373 3.847.538 5.809.663 5.495.327 11.306-.413 16.463-2.42l-.896-1.582c-7.17 1.585-14.931 1.757-22.208.854-2.386-.296-4.724-.89-7.103-1.191-2.77-.35-5.826-.326-8.614-.16m118.471.165-.849 1.593c2.219.39 4.349 1.111 6.518 1.702 3.136.856 6.306 1.338 9.56 1.369 4.982.046 9.617-1.037 14.498-1.822 7.86-1.263 16.32-.678 23.891 1.793l.48.094c.262-.195.323-.482.373-.79.103-.644.103-1.33.174-1.982-3.778-.266-7.364-1.143-11.098-1.632-2.724-.357-5.691-.33-8.443-.321-2.862.01-5.706.936-8.546 1.287-7.24.894-19.647.979-26.558-1.291m-1.216 2.165-.73 1.268c7.284 3.364 15.22 4.979 23.227 4.17 2.74-.277 5.35-1.123 8.048-1.626 6.264-1.168 13.184-1.277 19.332.593 1.695.516 3.31 1.242 4.907 2.001.508-.516.524-1.985.59-2.688-7.956-2.902-17.313-3.348-25.618-1.868-1.915.34-3.797.84-5.71 1.186-2.574.467-5.301.649-7.916.572-6.317-.185-10.332-2.129-16.13-3.608m-117.002.793c-4.909.352-9.438 1.983-14.277 2.62.195.65.375 1.31.587 1.953 3.418-.62 6.776-1.564 10.195-2.143 4.287-.727 9.001-.687 13.311-.07 2.522.36 4.977 1.06 7.477 1.532 2.844.536 5.823.717 8.716.651 5.251-.289 9.125-1.409 14.15-2.812-.314-.63-.619-1.266-.989-1.866-7.129 2.204-13.96 3.354-21.414 2.103-2.306-.387-4.557-1.04-6.856-1.458-3.54-.642-7.312-.774-10.9-.51m-17.167 7.748.022.19c.265 2.129 1.291 4.23 1.328 6.367l-.102.111c-1.487-.431-4.317-2.974-5.717-4.018.965 5.76 2.709 12.278 7.776 15.844 1.215.854 2.557 1.336 3.951 1.811l.41.06c.313-1.085-1.314-2.681-1.032-3.877.956.087 3.997 2.501 5.483 3.033-.748-6.92-2.172-11.937-7.796-16.486-1.151-.931-2.99-2.446-4.323-3.035m189.83 1.165c-4.512 3.423-10.118 10.572-10.95 16.348-.08.566-.049 1.145.002 1.713 1.06-.678 3.367-2.512 4.53-2.423.255.207.327.341.379.672.186 1.195-.286 2.806-.537 3.97 1.454-.95 2.943-1.876 4.353-2.89 3.575-2.627 4.398-4.25 7.102-7.466-1.537.685-2.872 1.285-4.56 1.47 1.607-1.553 2.938-3.295 4.426-4.953.885-.987 1.91-1.896 2.725-2.936-1.61.018-2.85.232-4.313.905-.514.236-1.079.567-1.632.68-.282.057-.593.028-.797-.193-1.01-1.094.378-4.27-.728-4.898m-179.335 4.85c.403.612.78 1.223 1.132 1.867 2.572.603 5.237.944 7.845 1.377l13.505 2.23c2.49.407 5.149.663 7.578 1.328-2.39.813-6.101 1.282-8.686 1.766-5.268.984-10.637 2.207-15.98 2.68l2.56 1.892c2.407-.52 4.82-1.115 7.242-1.55q8.35-1.705 16.726-3.276c2.955-.57 5.909-1.28 8.897-1.645-2.908-.434-5.794-.973-8.698-1.433q-9.471-1.44-18.92-3.021c-4.383-.736-8.795-1.668-13.201-2.215m165.62.366c-2.03.1-4.059.207-6.071.504-3.613.533-7.177 1.438-10.773 2.087q-9.594 1.657-19.204 3.214c2.792.48 5.555 1.252 8.308 1.928 5.188 1.276 10.37 2.617 15.573 3.826 3.032.704 6.216 1.538 9.323 1.785q1.715.198 3.44.25c.066-.759.153-1.524.181-2.284-2.31-.113-4.606-.212-6.893-.582-3.962-.641-7.832-1.85-11.75-2.722-1.645-.365-3.288-.767-4.94-1.096-1.186-.237-2.424-.38-3.586-.716 3.127-.738 6.352-1.075 9.506-1.692 2.749-.538 5.42-1.375 8.158-1.93 3.578-.726 9.32-1.176 12.933-.332l1.338-1.892c-1.826-.32-3.691-.389-5.543-.348m-164.028 2.496.787 1.809q5.347.751 10.683 1.574c2.64.417 5.376 1.025 8.046 1.102 1.26.036 2.468-.12 3.698-.376l.152-.106c-.866-.438-12.867-2.156-14.687-2.464-2.88-.488-5.786-1.164-8.679-1.539m162.124.379c-2.231.078-4.42.249-6.616.686-4.36.867-8.387 2.291-12.889 2.607 1.81.52 3.689.757 5.517 1.2 4.855 1.18 9.417 2.557 14.442 2.823.772.04 1.647.155 2.412.086a73 73 0 0 1 1.095-3.92c-2.105-.152-4.193-.292-6.306-.2q-2.478.114-4.927.511c-.933.156-1.962.473-2.894.52-.392.02-.68-.061-1.013-.27l-.14-.277c.66-.839 4.52-1.24 5.686-1.38q1.252-.155 2.51-.23 1.26-.075 2.521-.07 1.261.006 2.52.091 1.258.085 2.508.25l1.125-2.142q-2.766-.329-5.55-.285m-160.918 2.304c.148.851.482 4.133 1.159 4.59 1.242.84 11.048-1.225 13.067-1.567.808-.167 1.624-.314 2.415-.544-2.074-.234-4.126-.643-6.187-.968q-5.222-.795-10.454-1.511m113.249 1.189c-.808.12-1.624.224-2.425.38-.695 4.944-1.098 9.938-1.757 14.892q1.475-.145 2.942-.361l.492-3.151c.68-.109 1.414-.282 2.1-.302.486-.067.972-.145 1.464-.168l1.104 2.423c1.014-.164 2.04-.303 3.047-.503-.704-1.652-6.042-12.629-6.875-13.245l-.115.057.165.031zm-64.58.346c-1.604.412-2.736 1.223-3.588 2.673-1.266 2.155-1.703 5.142-1.06 7.563.37 1.4 1.16 2.662 2.451 3.374 1.252.692 2.852.799 4.202.342 1.31-.444 2.356-1.466 2.92-2.718.077-.172.144-.346.21-.522q-1.124-.525-2.243-1.063l-.478.798c-.585.627-1.269 1.275-2.178 1.333-.558.035-1.086-.233-1.467-.625-.823-.843-1.021-2.052-.966-3.185.08-1.691.592-3.847 1.895-5.015a5 5 0 0 1 .597-.443c.835-.09 1.683-.243 2.393.327.566.454.822 1.236 1.076 1.892.816-.272 1.663-.38 2.51-.514-.418-1.481-.967-2.82-2.376-3.625-1.215-.693-2.549-.71-3.898-.592m8.576 1.335c-.734 4.566-1.412 9.105-1.898 13.705.894.093 1.813.15 2.698.307.249-1.865.416-3.782.771-5.627l1.418.154c.436 1.803.972 3.63 1.302 5.454.064.197.07.433.264.538.776.422 2.01.317 2.885.467-.5-2.129-1.074-4.243-1.563-6.372 1.143-.263 1.989-.677 2.652-1.689q.11-.168.204-.348.092-.179.166-.367.075-.187.13-.382.055-.194.09-.393t.05-.4.009-.403-.032-.402-.072-.397-.114-.387-.152-.372-.19-.356-.224-.334q-.121-.161-.258-.31-.137-.148-.288-.282t-.314-.251-.34-.218c-1.486-.864-5.305-1.042-7.194-1.335m47.94.083c-.854.105-1.732.175-2.577.333.221 1.962 1.583 12.97 2.002 13.912.868-.12 1.736-.26 2.606-.358-.218-1.674-1.56-13.372-2.03-13.887m-5.617.616q-4.147.313-8.278.784c.095.852.161 1.723.317 2.565a52 52 0 0 0 3.2-.303c.503 2.985.78 6.021 1.1 9.03l.244 2.52c.857-.09 1.729-.152 2.578-.289-.224-3.82-.75-7.608-1.058-11.418q1.636-.273 3.288-.435c-.072-.84-.16-1.68-.166-2.523-.403.022-.826.017-1.225.069m-26.232.989c-1.55.21-2.718.774-3.692 2.046-1.473 1.926-1.836 4.687-1.472 7.031.265 1.706 1 3.476 2.427 4.526 1.104.813 2.215.923 3.542.885 1.546-.328 2.657-.962 3.55-2.315 1.424-2.154 1.673-5.264 1.107-7.734-.34-1.479-1.035-2.814-2.345-3.65-.956-.61-2-.795-3.117-.79m13.506.523-2.384.082q-1.926 6.905-3.78 13.829l2.587.026q.515-1.422.983-2.86l1.503-.016 2.216-.045c.306.927.594 1.867.955 2.775q1.548-.007 3.093-.12c-.704-1.938-4.26-12.58-5.076-13.645zm-86.876 1.38c.212.779 1.557 3.554 1.25 4.106-1.343-.015-3.037-1.713-4.148-2.394-.572-.35-1.22-.595-1.838-.851.152.52.29 1.103.583 1.564.89 1.399 4.095 4.368 3.932 6.015l-.169.154c-1.226-.188-3.113-2.584-3.989-3.498a23 23 0 0 1-2.853-.844c1.792 3.689 4.117 7.445 7.096 10.304 2.51 2.283 4.933 3.276 8.267 3.8-.63-1.344-1.482-2.739-1.89-4.158l-.067-.231c2.167.61 4.005 1.63 6.31 2.226-.233-1.239-.891-2.443-1.457-3.564-.84-1.665-1.742-3.35-2.839-4.86-1.992-2.746-5.304-5.757-8.095-7.707zm167.926 1.543c-1.232.54-2.168 1.542-3.382 2.084-1.171.523-2.521.436-3.696.957-3.222 1.425-5.448 6.491-6.673 9.647q-.51 1.334-.93 2.7c2.022-1.058 4.063-2.336 6.19-3.148-.197.617-.384 1.248-.71 1.812-1.078 1.857-2.543 2.718-2.943 4.97l.156.328c.563-.025 1.186-.444 1.67-.723 2.347-1.35 4.125-2.81 5.944-4.796 1.373-1.498 2.439-3.198 3.762-4.713 1.714-1.965 4.922-2.97 4.934-6.115l-.136-.15c-1.627.674-2.618 2.381-4.917 3.09-.001-.613.004-1.22.095-1.827.126-.851.931-3.39.728-4.052zm-33.123 9.688c-3.2.274-6.154 1.072-9.278 1.73-2.103.442-4.226.788-6.327 1.24-5.375 1.154-10.848 2.436-16.321 3.008 2.877.298 5.777 1.03 8.617 1.596q6.641 1.348 13.302 2.595c3.37.656 6.694 1.334 10.14 1.422q1.577-1.096 3.02-2.363l-2.888.032c-2.247-.031-4.509-.085-6.738-.388-5.015-.681-9.94-2.088-14.957-2.794 1.964-.601 4.098-.833 6.113-1.243 6.25-1.271 11.823-2.494 18.26-2.51 1.703-.004 3.416.112 5.111.268 1.152.105 2.423.36 3.573.24 1.017-.107 2.193-.838 3.11-1.276-4.102-1.133-10.558-2.148-14.737-1.557m-119.794.616c1.18.618 2.663 1.611 3.97 1.853 2.713.502 7.33-.105 10.426.145 2.734.22 5.462.673 8.182 1.03q7.619.948 15.222 2.017c-2.304.52-4.656.88-6.983 1.291-5.668 1.002-11.397 1.9-17.029 3.077.563.521 1.106 1.01 1.748 1.435 2.504-.322 4.97-.937 7.466-1.253l16.559-3.048c2.468-.439 6.323-.867 8.587-1.57-3.364-.424-6.7-1.08-10.05-1.599q-8.344-1.264-16.712-2.353c-2.676-.35-5.398-.808-8.087-.995-2.57-.178-5.196-.063-7.771-.053-1.808.007-3.736-.135-5.528.023m-2.6 1.036c.584 1.064 3.396 5.4 3.37 6.131-.253.21-.422.198-.745.158-1.53-.19-4.233-2.448-5.649-2.079-.1.276-.2.435-.063.725 1.006 2.143 7.837 2.22 8.203 4.643-.092.174-.074.236-.279.302-.403.132-.852.067-1.256-.032-1.286-.32-2.59-1.012-3.83-1.504-1.256-.5-2.563-.877-3.862-1.253 1.944 3.4 3.604 5.327 6.778 7.668 2.783 1.749 5.774 3.29 8.976 4.097-.268-1.29-.597-2.598-.763-3.906 2.12.725 4.082 1.332 6.333 1.499-.496-3.453-2.218-6.53-5.017-8.649-1.287-.973-2.706-1.802-4.044-2.707-2.099-1.421-5.881-4.218-8.152-5.093m139.541 1.18c-4.854 1.968-8.845 4.953-12.735 8.41-1.335 1.186-2.703 2.359-3.754 3.816 1.919.237 3.851.573 5.46 1.724-1.575 1.42-2.32 2.654-2.81 4.709 1.624-.127 3.245-.259 4.837-.62.764-.221 1.54-.43 2.26-.777 2.615-1.258 7.086-4.629 8.494-7.179.184-.334.339-.677.487-1.028-.237-.224-.463-.458-.744-.626-.092-.242-.088-.283.032-.52.01-.02.149-.196.156-.207.536-.743.481-2.346.709-3.261-.827.556-1.966 1.167-2.132 2.26-.085.56.238 1.05.498 1.517-.056.24-.063.305-.283.449-.643.421-1.65.614-2.395.792.318-.949.768-1.94.979-2.914.241-1.114-.141-2.293.074-3.391.19-.968.947-2.189.868-3.154m-17.168.688c-5.615.206-10.906 1.494-16.395 2.567 3.542.405 6.995 1.353 10.557 1.724 3.574.183 7.09.36 10.66-.02 1.804-1.298 3.54-2.67 5.368-3.945-3.39-.306-6.786-.502-10.19-.326m-114.385.063c2.944 1.87 4.86 3.688 7.543 5.722 5.34-1.305 10.852-2.02 16.263-2.988 1.076-.17 2.153-.353 3.232-.505l-10.59-1.31c-2.332-.302-4.687-.697-7.03-.867-3.11-.226-6.304-.115-9.42-.05M74.74 218.09c.53 2.76.853 3.843 3.292 5.496q.698.475 1.407.932c-2.362-.097-4.592-.375-6.892-.935-.733-.178-1.445-.448-2.173-.621-.342-.082-.51-.057-.805.117-.121.315.036.763.19 1.048.49.903 4.476 1.688 5.63 2.191.769.335 1.46.807 2.092 1.356.307.267.727.582.7 1.014-.712.334-4.848-1.14-5.768-1.478q-.235-.087-.467-.182c2.28 3.245 6.482 5.282 10.249 6.182 2.981.698 6.1 1.278 9.173 1.275l-1.896-2.32c-1.94-.102-4.035-.603-5.71-1.607 2.922-.437 6.376-.385 9.347-.449-2.737-4.826-5.54-5.645-10.364-7.818-2.713-1.223-5.496-2.602-8.005-4.201m101.178 3.199c-1.05.165-2.045.409-3.059.73-2.006.636-12.666 4.636-13.352 5.704-.18.28-.258.531-.157.86.16.517.6.901 1.094 1.09 1.56.598 6.117-.338 6.934.284.022.337-.145.585-.353.837-1.723 2.088-5.364 2.668-7.63 4.061.768.143 1.5.257 2.282.286 3.114.026 6.858-.074 9.806-1.084 1.374-.471 2.681-1.182 3.963-1.859 1.359-.718 2.702-1.438 3.804-2.529.545-.54.937-1.15 1.319-1.81-2.16.488-4.213 1.131-6.451 1.103.91-1.584 4.614-5.541 4.255-7.235-.251-.316-.436-.477-.854-.513-.524-.044-1.078.028-1.6.075m5.041.69c-1.002.834-3.254 3.298-3.324 4.585-.011.199.004.399.02.597.703-.07 1.403-.135 2.099-.26.251-.992 1.295-4.13 1.205-4.922m-87.506 4.955c.6.817 1.217 1.787 2.026 2.417.713.555 2.594.871 2.922 1.719-.698.759-3.112.72-4.107.76-1.129.046-2.272.036-3.39.212.563.454 1.13.883 1.751 1.256 1.041.626 3.738 1.714 4.324 2.644l-.056.181c-1.008.429-3.056-.1-4.124-.261.798.872 1.603 1.527 2.65 2.084 3.464 1.844 10.65 3.221 14.647 3.644 1.39.049 2.704-.048 4.077-.27l.002-1.981c-1.681-.467-3.408-.825-5.078-1.314l-.069.079.097-.256c-.154-.013-.329-.07-.466.005.085-.25.128-.252.364-.357 1.56-.694 5.377-.7 7.214-.78-.44-1.745-1.063-2.774-2.633-3.724q-1.13-.683-2.373-1.132c-1.867-.675-3.825-1.139-5.726-1.712-3.42-1.031-8.69-2.976-12.052-3.214m60.887 2.116c-3.71.369-7.362 1.416-10.954 2.375-1.914.51-3.893.96-5.761 1.616l.103.131c1.708 2.114 4.363 1.02 5.754 1.785-.063.345-.216.471-.495.68-1.278.957-3.978 1.68-4.844 2.415a1.74 1.74 0 0 0-.557.959c-.134.648.067 1.321.458 1.843.481.643 1.128.912 1.911 1.005.994.119 2.075.022 3.075.001 4.561-.44 14.313-1.418 17.658-4.574-1.77-.292-3.583-.406-5.368-.572 1.476-2.944 2.264-2.875 4.862-4.4l-.119-.106c-1.555-1.437-1.953-3.334-4.43-3.25-.414.015-.886.022-1.293.092m-37.205 3.466c-.181.337-.287.448-.204.84.167.79 1.371 1.425 2.033 1.727.723.33 1.556.56 2.17 1.07l.083.258c-.8 1.118-5.944.91-5.393 3.892q.027.154.07.304t.102.296.132.283.161.268.189.25q.1.12.213.228t.236.205.256.178c3.153 1.996 14.146 1.353 17.763.663l1.743-.433c-.242-.785-.335-1.311-1.133-1.707-.89-.44-2.012-.482-2.962-.835 1.822-1.197 3.306-2.935 5.24-3.94l-.18-.104c-1.26-.739-2.331-2.17-3.713-2.6-.695-.216-1.457-.307-2.18-.35-1.82-.107-3.624.32-5.433.237-3.063-.142-6.126-.876-9.193-.73"/><path d="M93.668 48.681c-.24-1.17-.661-2.29-.685-3.499-.04-2.076.99-4.071 2.43-5.513q.189-.192.387-.374.198-.183.405-.355t.422-.333.439-.312.454-.29.468-.266q.237-.127.48-.242t.492-.218.503-.193.511-.167.52-.142.525-.115q.265-.051.531-.088.267-.038.535-.062t.537-.035.538-.008c3.375.015 7.59 1.797 8.865 5.172.484 1.282.282 3.425 1.326 4.386.677.622 1.728.495 2.57.431.996-.551.914-3.766 1.214-4.913q.11-.423.258-.833.15-.41.338-.805.188-.394.413-.769.225-.374.485-.725c1.512-2.042 3.517-2.987 5.978-3.37 1.64-.216 3.385.037 4.928.617 3.222 1.21 5.787 4.035 5.892 7.593.026.898-.22 2.383.143 3.188.44.413.944.453 1.528.45.474-.003 1.282-.081 1.61-.48.482-.588.242-2.316.395-3.104.315-1.614 1.322-3.214 2.49-4.347 1.961-1.904 4.576-2.79 7.287-2.73 2.577.056 5.063 1.032 6.857 2.912 2.98 3.122 2.502 5.554 2.391 9.466.363.547 2.393.933 3.072 1.129 1.288-1.515 1.996-3.288 3.562-4.61 1.934-1.633 4.978-2.838 7.534-2.569 2.284.24 8.727 4.938 10.189 6.804-2 3.46-3.976 6.962-5.693 10.573.714.566 1.583 1.127 1.699 2.114.04.347-.06.623-.264.899-.485.661-1.651.916-2.412.978.615.397 1.471.823 1.938 1.393.265.323.292.53.254.938-.576.913-1.702 1.215-2.588 1.757l1.298 1.047c.36.295.66.557.709 1.046-.365.767-1.794 1.044-2.56 1.356.275.658 1.195 1.589 1.077 2.277-2.508.17-5.03.001-7.54-.067l-9.68-.194q-15.267-.23-30.536-.228l-18.411-.06c-4.114-.02-8.242-.1-12.355.022-3.789.113-18.392 2.162-20.602 1.182-.248-.11-.198-.108-.294-.331.154-.643.694-1.266 1.037-1.84-.667-.258-1.493-.459-1.89-1.096.008-.86.975-1.526 1.527-2.149-.637-.18-1.352-.33-1.951-.607-.365-.17-.535-.368-.683-.732.128-.916 1.035-1.499 1.685-2.078a46 46 0 0 1-2.825-.69c.61-.849 1.198-1.743 1.955-2.468l-1.804-.562c.48-.627.974-1.194 1.53-1.754-.462-2.074-1.891-6.148-3.132-7.873-.374-.521-1.15-1.356-1.131-2.023.046-1.645 2.913-4.11 4.117-5.017 2.155-1.624 5.015-2.693 7.736-2.304 2.409.344 4.716 1.699 5.984 3.814.475.794.802 1.746 1.378 2.468.33.415.776.749 1.323.773.874.038 1.686-.689 2.287-1.245m31.76-11.756c-1.942.17-3.7.658-5.004 2.224-2.88 3.46-.337 8.797-4.592 9.203-1.237.119-2.97-.013-3.956-.813-1.261-1.025-.984-3.422-1.539-4.85-1.19-3.068-4.654-4.394-7.724-4.2-2.348.149-4.679 1.151-6.258 2.93q-.092.1-.178.206t-.168.216q-.08.11-.156.224-.075.114-.145.231t-.133.238-.121.245-.108.25q-.052.127-.096.256-.045.13-.083.26-.038.131-.07.264-.031.134-.056.268t-.042.27q-.018.135-.03.27-.01.137-.015.274-.004.136-.001.273.002.136.012.272c.085 1.233.504 2.379.481 3.633-.663 1.29-1.431 1.987-2.811 2.436-.95.31-1.91.378-2.815-.112-2.594-1.404-2.017-4.861-6.071-6.314-1.325-.475-2.745-.466-4.093-.098-2.707.74-5.345 2.687-6.795 5.092 1.337 2.323 2.415 4.64 3.4 7.126 3.392-1.229 7.12-1.749 10.662-2.4 14.628-2.687 27.403-3.609 42.265-3.536q2.935-.015 5.87.079t5.863.296q2.929.202 5.848.511 2.92.31 5.826.727t5.795.94 5.756 1.154 5.71 1.366 5.655 1.574c1.518-2.736 2.98-5.5 4.519-8.225l-.166-.096c-3.508-2.04-6.457-5.93-11.016-4.72-4.101 1.087-5.084 6.33-7.506 6.622-.76.091-1.592-.191-2.305-.434-.607-.207-1.272-.411-1.838-.713a2.42 2.42 0 0 1-1.167-1.492c-.306-1.151.296-2.32.44-3.456.291-2.279-1.75-4.889-3.584-6.026-1.92-1.192-4.163-1.488-6.345-.953-1.94.475-3.72 1.486-4.755 3.257q-.318.553-.533 1.153t-.322 1.228c-.289 1.737.035 4.02-2.14 4.606-1.242.334-3.194.083-4.281-.587-.575-.354-.95-.863-1.067-1.532-.126-.72.04-1.55.095-2.276.168-2.253-.72-4.229-2.506-5.605-1.63-1.255-3.57-1.767-5.605-1.736m-2.707 15.884c-6.323.124-12.82.2-19.092 1.046.075 1.782.188 3.566.244 5.349.026.808-.075 1.652 0 2.452.035.362.11.63.273.953.28.2.29.181.636.157.323-.341.29-.92.278-1.361-.025-.88-.24-1.748-.31-2.624-.108-1.34-.065-2.725-.09-4.072 7.149-.549 14.272-.98 21.446-.97-.028 3.741-.12 7.48-.101 11.22-6.85-.087-14.06.077-20.827 1.153-.027-.926.084-2.139-.202-3.013-.265-.156-.294-.108-.587-.082-.256.221-.323.457-.356.784-.109 1.076.098 2.218.097 3.305q7.918-1.028 15.901-1.121c6.99-.2 14.079-.178 21.055.32 1.845.132 3.87.176 5.663.64.076-1.372.446-4.42-.092-5.59l-.179-.09c-.316.138-.41.165-.572.492-.452.908-.108 2.936-.14 3.998-6.269-.509-12.482-.863-18.772-.86-.001-3.706-.08-7.488.171-11.184 2.187.008 17.59.36 18.923 1.044.095.322.048.607.013.933.165.258.338.32.644.363.137.018.184.01.31.003.238-.696.201-1.519.235-2.251q-6.118-.673-12.267-.922-6.15-.248-12.302-.072m-20.976 1.238c-6.367.86-12.693 1.746-18.983 3.082-1.938.412-4.11.75-5.962 1.434-.145.285-.016.526.05.831.26.178.65.055.955-.005 2.52-.501 5.008-1.219 7.531-1.744q7.747-1.55 15.599-2.427c.182 3.56.224 7.126.336 10.688.014.341.07.524-.105.823-3.48.552-19.767 3.088-21.56 4.981l-.074.276c.26-.002.145.007.345-.018l.075-.108.258-.07.056.307-.046-.307.101.11 22.158-4.415c-.03-1.622-.201-12.788-.687-13.455zm47.018.016q-.141 6.576-.166 13.154c5.236.483 10.52 1.219 15.647 2.406 2.663.617 5.663 1.775 8.323 2.128l.122-.133c-.047-.37-.06-.6-.334-.881-7.256-2.264-15.113-3.788-22.703-4.294l.023-1.85c.075-3.114.062-6.283.352-9.384 4.005.478 8.011 1.202 11.96 2.012 2.46.505 4.932 1.027 7.37 1.632 1.476.366 2.961.864 4.45 1.155.366.072.697.144 1.063.034l.086-.233c-.214-.438-.502-.678-.962-.833-1.4-.474-2.929-.767-4.365-1.136q-7.404-1.946-14.977-3.057c-1.944-.29-3.925-.635-5.89-.72m-25.717 2.744c-2.265.058-16.146.278-17.177 1.15.108.262.25.39.519.492.418.158.947.065 1.381.033q5.051-.398 10.115-.561c1.912-.063 5.087.163 6.798-.295.177-.263.108-.369.089-.676-.181-.197-.144-.15-.394-.16-.444-.017-.888.002-1.331.017m5.451.082c.007.365-.058.635.157.94 1.418.103 2.845.068 4.266.117 4.147.146 8.403.308 12.523.809-.067-.347-.088-.651-.291-.947-1.626-.349-3.413-.354-5.07-.464-3.843-.253-7.734-.47-11.585-.455m18.352.493c-.36.132-.632.147-.812.519-.23.474-.14 1.433.1 1.896.087.168.23.319.351.46l.292-.009c.387-.676.24-1.919.206-2.682zm-46.722.797c-3.09.351-21.59 2.705-22.65 3.95.056.287.096.397.308.602 2.886-.524 5.748-1.166 8.638-1.679 2.263-.401 12.883-1.85 13.954-2.41l.095-.155c-.13-.232-.067-.229-.346-.308m50.432.255c-.007.375-.084.55.164.844 2.441.459 4.956.651 7.413 1.065 3.456.582 6.856 1.404 10.258 2.233 1.836.447 3.718.836 5.528 1.374-.02-.357.04-.604-.198-.882-1.82-.712-3.819-1.12-5.713-1.583q-4.302-1.081-8.67-1.846-4.37-.764-8.782-1.206m-27.768 2.383c-2.537.048-15.494.172-16.793 1.353-.115.103-.067.097-.069.294.244.219.4.321.737.342.333.02.757-.084 1.088-.132q5.042-.531 10.109-.684c1.919-.068 3.867-.032 5.78-.174.402-.03.833-.087 1.184-.297l.103-.273c-.39-.369-.682-.486-1.22-.474q-.46.012-.919.045m5.502-.052c.008.397-.051.643.18.974 1.737.248 3.594.135 5.355.21q5.647.21 11.277.701c.005-.398.062-.675-.126-1.03-1.773-.378-3.787-.358-5.598-.459-3.685-.203-7.397-.426-11.088-.396m-29.196.405c-2.727.373-19.444 3.073-20.776 3.848-.05.299-.064.466.032.755.384.139.651-.004 1.041-.102q7.058-1.586 14.163-2.945c2.122-.413 4.426-.63 6.493-1.21l.099-.16c-.326-.247-.488-.27-.906-.212zm51.488 1.255c-.06.347-.139.63.007.968 1.071.307 2.29.341 3.397.47q2.476.28 4.933.694c4.91.823 9.728 2.001 14.578 3.108-.003-.187.05-.681-.075-.807-.864-.87-13.35-3.16-15.352-3.474q-3.732-.575-7.489-.96m-50.444.493c-2.829.47-20.216 3.962-21.218 5.45-.123.183-.069.366-.063.577.192.065.25.132.446.058 1.668-.826 3.588-1.247 5.378-1.744q4.997-1.412 10.057-2.575c1.652-.37 3.335-.61 4.982-.999.322-.076.715-.13.956-.362-.051-.313-.032-.242-.24-.428zm18.688 4.902c-6.858.289-13.654.687-20.44 1.79-2.106.342-4.337.662-6.36 1.356 2.338.318 4.695.306 7.05.335q5.502.055 11.003-.02l27.23-.014c7.06.032 14.132.198 21.19.031 1.92-.045 3.877.012 5.79-.135-3.352-.48-6.666-1.165-10.025-1.61q-4.4-.603-8.823-1.013-4.422-.411-8.858-.628t-8.878-.24-8.879.148m-36.6 35.175q.03-8.538-.041-17.076l17.663-.017.02 16.096 15.799.015-.006-16.14 19.279.01c.127 5.353-.084 10.734-.04 16.092 5.064.103 10.155.01 15.22-.031l.01-15.997c6.062.032 12.162-.18 18.217.005l.02 16.788-16.363.003.017 14.98 16.365.013.007 17.253q-8.151.014-16.302-.067-.043 7.413-.012 14.826 7.16-.038 14.32.047c-.727 3.707-1.909 7.13-3.348 10.613-.945 2.173-2.23 4.089-3.28 6.196-2.64.068-5.298-.034-7.94-.021q-.057 3.935.036 7.869-1.03.764-2.1 1.469-1.072.704-2.181 1.347-1.11.643-2.253 1.222-1.144.578-2.32 1.091-1.174.513-2.376.958-1.203.446-2.428.822-1.226.377-2.47.683-1.246.306-2.506.542c-.152-5.279-.084-10.575-.118-15.857l-15.552.007c-.194 5.22-.109 10.511-.026 15.735-5.227-.673-14.927-4.975-18.722-8.514-.237-2.365-.117-4.857-.153-7.237-2.236-.13-4.51-.075-6.75-.018-3.313-5.346-5.7-10.882-7.357-16.938l14.168-.005c.108-4.901.066-9.865-.068-14.766-5.457-.186-10.976-.038-16.439-.016.082-5.69-.022-11.393-.041-17.084l16.345.037-.026-14.917c-5.414-.108-10.851-.014-16.268-.018m35.56-.313-.235.108c-.342 1.178-.044 13.122-.008 15.082q7.78.168 15.56.086l.214-.154q.073-7.529.011-15.058-7.772.021-15.543-.064m-17.727 16.31c-.076 4.91-.14 9.864-.032 14.772l15.606-.012-.02-14.741c-5.184-.004-10.37.04-15.554-.02m34.957.055-.016 14.78 14.985-.042c.237-4.87.05-9.826.025-14.706-4.95-.257-10.036-.12-14.994-.032m-17.591 15.948c-.04 4.905-.217 9.876.035 14.775h15.814c.002-4.923.051-9.855-.026-14.776zm17.477 15.631-.032 14.648 15.234.002-.045-14.54c-5.05-.053-10.106-.127-15.157-.11m-34.646.113-.016 14.538 10.453.01c1.617-.002 3.376.126 4.98-.041q-.028-7.256.033-14.512zm2.933 43.978c.082-.923.237-1.83.39-2.743 1.128.097 2.447.111 3.45.704.317.187.625.474.681.856.075.507-.19.933-.504 1.293-1.249.337-2.745.028-4.017-.11m15.037 7.72c-.424.05-.88.13-1.299.018-.644-.173-1.155-.683-1.466-1.258-.831-1.54-.823-3.95-.33-5.605.328-1.099.74-1.759 1.741-2.32.432-.054.946-.098 1.37.012.647.168 1.171.685 1.491 1.255.821 1.462.902 3.896.417 5.476-.35 1.14-.874 1.86-1.925 2.422m38.67-6.167c.066-.947.167-1.887.277-2.83.534.407 1.203 1.825 1.325 2.5l-.149.14zm-26.615 3.228a9 9 0 0 1-.822.055l-.19-.208c-.033-.308-.027-.484.086-.774.207-.53.374-1.07.546-1.612.331.43.638 1.215.793 1.738.085.289.16.522-.001.788z"/></svg>