<svg xmlns="http://www.w3.org/2000/svg" viewBox="0 0 256 256"><path d="M114.45 0h26.017c1.646.62 3.47 1.136 5.015 1.967 6.136-.995 11.097-.798 16.868 1.815 1.232.557 2.541 1.126 3.64 1.917q.146.105.288.216c4.823-.302 11.28 1.717 15.34 4.286 1.527.967 2.846 2.392 4.476 3.16 1.394.657 3.053.935 4.52 1.4 3.013.952 6.471 2.908 8.84 4.99 1.286 1.13 2.446 2.276 3.888 3.216 2.954 1.924 5.998 3.223 8.8 5.47 3.387 2.716 4.38 5.858 7.067 8.723 1.11 1.183 2.83 1.986 4.12 2.992 1.297 1.012 2.61 2.166 3.696 3.398 2.09 2.368 4.721 6.655 5.738 9.643 1.347.997 2.267 2.038 3.336 3.312 2.638 3.144 3.924 5.693 5.534 9.425.598 1.388 1.298 2.885 1.594 4.367 2.53 2.026 5.34 8.698 6.238 11.849.373 1.306.588 2.662.74 4.01.135 1.206.12 2.248-.103 3.44 1.03 1.255 1.66 2.657 2.305 4.132 2.238 5.11 2.88 9.876 2.295 15.426-.107 1.024-.497 2.039-.535 3.064-.037.947 1.42 6.23 1.833 7.326v21.406c-.4 1.504-1.458 4.73-1.607 6.077-.106.92.182 1.881.202 2.805.05 2.364-.088 5.177-.62 7.482-.427 1.865-1.132 3.983-1.963 5.704-.75 1.548-1.755 3.124-2.242 4.772-.35 1.185-.256 2.604-.4 3.835-.218 1.871-.722 3.732-1.332 5.511-.755 2.207-1.693 4.189-3.023 6.112-.816 1.18-1.77 2.345-2.437 3.615-1.379 2.627-1.98 5.562-3.386 8.217-.954 1.8-2.127 3.687-3.47 5.222-1.063 1.214-2.284 2.293-3.213 3.62-.76 1.086-1.304 2.367-1.955 3.523q-.512.918-1.085 1.8-.572.883-1.201 1.725t-1.314 1.642q-.685.798-1.42 1.55c-1.79 1.856-4.127 3.109-5.995 4.885-.892.848-1.615 1.969-2.373 2.938-2.096 2.682-4.418 5.302-7.4 7.02-1.97 1.136-4.739 2.267-6.46 3.622-2.302 1.813-4.12 4.206-6.686 5.714-1.523.895-3.1 1.754-4.761 2.362-1.854.678-4.077 1.196-5.788 2.159-1.288.726-2.294 1.998-3.535 2.827q-.445.3-.901.58-.457.281-.925.542-.469.262-.948.504-.479.241-.967.462-.489.221-.986.422-.498.2-1.003.38-.506.179-1.018.337-.513.158-1.031.294-.519.137-1.043.251t-1.052.207-1.06.162-1.066.118-1.07.072q-.536.025-1.072.028-.537.005-1.073-.016-.535-.02-1.07-.063c-1.075.883-2.304 1.561-3.54 2.191-4.06 2.063-8.029 2.84-12.556 2.407-1.238-.12-2.487-.482-3.725-.527-1.925-.067-4.55 1.252-6.346 1.96H114.66c-1.854-.653-4.405-1.702-6.324-1.85-.973-.075-2.01.082-2.983.153-1.836.135-4.004.242-5.824-.073-2.627-.455-4.987-1.482-7.331-2.71-1.023-.538-2.145-1.273-3.269-1.564-.884-.23-1.961-.037-2.875-.07-1.578-.058-3.618-.373-5.143-.81-2.863-.82-5.703-2.142-8.097-3.925-1.091-.813-2.143-1.926-3.382-2.498-.956-.441-2.078-.585-3.093-.836-4.571-1.129-7.59-3.46-10.885-6.698-.921-.906-1.769-1.994-2.803-2.768-.68-.511-1.659-.65-2.44-.983-1.88-.802-4.055-1.938-5.669-3.199-2.374-1.856-4.257-4.386-5.924-6.87-.559-.832-1.036-1.83-1.69-2.579-.858-.984-2.351-1.381-3.437-2.097-1.548-1.02-3.323-2.626-4.541-4.022a26.6 26.6 0 0 1-3.582-5.336c-.636-1.252-1.154-2.594-1.91-3.779-.686-1.073-1.642-1.74-2.527-2.623a21 21 0 0 1-2.853-3.601c-1.407-2.29-2.583-5.098-3.392-7.667-.273-.87-.347-1.835-.725-2.666-.171-.378-.494-.681-.788-.965-1.472-1.422-2.417-2.971-3.469-4.717-1.98-3.287-3.308-6.882-3.77-10.709-.135-1.128.072-2.307-.245-3.407-.395-1.368-1.413-2.552-1.987-3.85-.446-1.008-.719-2.113-1.079-3.155-.3-.867-.729-1.745-.92-2.641-.498-2.323-.84-7.854-.27-10.052.158-.613.448-1.389.42-2.022-.068-1.53-.789-3.175-1.123-4.68-.257-1.156-.3-2.418-.69-3.534l-.04-.105v-21.156c.27-1.388.487-2.79.785-4.173.277-1.288.695-2.592.797-3.908.081-1.046-.077-2.11-.1-3.157-.043-1.981.17-4.2.576-6.128.506-2.395 1.304-4.694 2.251-6.946.521-1.237 1.269-2.624 1.587-3.922.203-.832.117-1.761.214-2.614.113-.981.43-1.978.684-2.932.875-3.288 1.884-6.214 3.74-9.096.832-1.293 1.972-2.449 2.64-3.831.597-1.234.93-2.629 1.414-3.914.835-2.213 1.965-4.168 3.28-6.124 1.601-2.386 3.756-4.129 5.283-6.427.967-1.455 1.765-3.048 2.657-4.553a35.3 35.3 0 0 1 3.871-5.326c1.266-1.427 2.771-2.608 4.322-3.708 1.096-.778 2.296-1.489 3.205-2.492.838-.925 1.486-2.078 2.238-3.078 1.74-2.317 3.9-4.564 6.237-6.281 1.217-.894 2.593-2.039 3.95-2.676 1.121-.525 2.49-.64 3.504-1.371.812-.585 1.435-1.543 2.108-2.285 1.39-1.53 3.138-2.876 4.942-3.887 2.069-1.16 4.323-2.338 6.567-3.11 1.074-.37 2.266-.382 3.296-.883 1.081-.527 2.023-1.513 2.97-2.255 4.585-3.592 11.02-5.243 16.78-4.528.844-.371 1.626-.918 2.416-1.394 1.832-1.102 3.745-2.135 5.838-2.637 2.566-.616 5.139-.775 7.767-.64 1.203.062 2.489.268 3.685.113 1.565-.202 3.563-1.017 4.946-1.773m1.373 201.656c.066.112.015.043.195.164.179-.263.19-.338.485-.442.054.176.1.277.213.427.144.19.227.147.45.183l.128-.113-.206-.421c.622-.185 1.292.681 2.014.607l.53-.059a5 5 0 0 1 .332-.037c.036.005.068.027.102.04.112-.229.075-.11.113-.407l.027-.232c.578.238 1.177.543 1.795.648q.159-.148.306-.306c.147-.159 5.085-.282 5.638-.212.75.096 1.542.436 2.294.357l.133-.117c.297-.256.441-.45.846-.42-.042.261-.011.182-.102.393l-.06.13c.816-.057 1.634-.12 2.45-.017.689.087 1.604.358 2.277.328.445-.02.852-.495 1.38-.483.212.219.361.394.65.512.158-.155.219-.21.431-.294.256.102.555.246.833.252 1.056.022 2.158-.377 3.22-.392.6-.008 1.194.187 1.795.202 1.06.025 2.192-.178 3.27-.205.211-.242.306-.343.624-.415.337.05.497.237.735.46l.104.1c.135-.157.253-.277.413-.413l1.262.184.129.186.22-.13-.097-.208-.252.152c-.105-.693-.624-1.11-1.082-1.598-.537.043-1.11.135-1.627-.047-2.637-.927-4.619-1.108-7.327-.34-1.022-.44-2.167-.897-3.276-1.025l-.391.345c-1.127.21-2.187.017-3.283-.257-.553.209-1.176.588-1.75.7-.911.18-2.008-.175-2.953-.107-1.82.131-3.608.488-5.415.708-1.225.15-2.502.211-3.735.306-1.06.081-4.076-.036-4.933.355l.334.437-.264.305.112.197c.299.09.607.04.913.019M134.432 3.8c-1.349.076-4.344-.071-5.374.832-.3.802-.05 1.536.298 2.288.957 2.07 2.55 4.512 2.553 6.85.002 1.312-1.827 6.903-2.317 8.431-1.006 3.145-2.865 8.187 1.529 9.829.826.308 1.726.424 2.602.466 2.12.102 4.285-.164 6.4-.316 1.81-.13 3.589-.143 5.377-.495 4.374-.863 8.661-2.256 12.944-3.476-.505-.77-.989-1.577-1.537-2.315-5.258 1.784-10.639 3.378-16.212 3.66-1.12.056-2.232-.097-3.349-.075-1.516.03-3.477.422-4.897-.228-.38-.174-.593-.444-.713-.844-.56-1.87.928-8.38 1.582-10.454.416-1.322 1.259-2.947 1.37-4.31.226-2.767-2.033-5.266-1.98-7.093.163-.232.191-.259.487-.31.725-.127 1.607.095 2.315.258q.647.151 1.284.335.638.184 1.265.401t1.243.465 1.217.528 1.189.59 1.157.65 1.122.708 1.084.765c1.835 1.379 3.17 2.994 4.767 4.603l.143.145c1.107 1.138 1.947 2.496 2.963 3.71 1.973 2.355 4.126 4.46 5.878 7.004.802 1.165 1.38 2.48 2.116 3.686.85 1.39 1.861 2.714 2.81 4.038 3.137 4.38 5.438 6.898 10.684 8.708 1.788.616 3.617 1.193 5.523 1.246 2.974.083 5.904-.509 8.866-.564a23 23 0 0 0-.88-2.568c-5.13.43-9.693.905-14.58-1.147-1.21-.508-2.28-1.03-3.288-1.883-1.433-1.213-5.904-6.918-6.94-8.622-.847-1.391-1.4-2.958-2.314-4.311-3.454-5.114-10.28-13.208-15.319-16.75-1.874-1.316-4.122-2.394-6.247-3.218-1.568-.607-3.124-1.176-4.821-1.217m-13.365.234c-8.832 1.461-16.708 8.632-21.759 15.694-2.8 3.915-5.862 7.72-8.141 11.971.935.186 1.867.378 2.813.504 2.03-2.62 3.506-5.667 5.356-8.425 1.787-2.662 3.835-5.444 6.03-7.775 3.623-3.847 9.873-8.668 15.24-9.362.834-.108 1.728-.049 2.567.012.544-.575 1.105-1.395 1.948-1.42.145.248.143.28.061.574-.204.733-.963 1.376-1.541 1.828l-.756 3.513c-.296 1.884-.628 3.949-.506 5.856.168 2.626 2.078 8.799 1.823 10.789-.044.345-.214.58-.495.778-1.86 1.307-8.946 1.943-11.32 1.907-1.018-.016-2.049-.162-3.044-.377-2.076-.447-3.77-1.417-5.675-2.294-1.45-.668-2.96-1.262-4.45-1.837-.401.747-.773 1.542-1.309 2.201 2.361.84 3.696 2.178 5.63 2.948 4.805 1.913 8.426 2.131 13.461 2.032 2.599-.052 5.362-.252 7.744-1.41.907-.441 1.666-1.094 2.005-2.07 1.196-3.453-1.966-9.992-2.014-13.9-.027-2.176 2.227-9.98 1.523-11.272-.164-.3-.768-.412-1.075-.453-1.251-.166-2.86-.15-4.116-.012m-18.887 2.64c-5.382.959-7.63 3.913-10.776 8.012-.954 1.243-2.02 2.398-2.924 3.68-.889 1.262-1.64 2.68-2.623 3.866-2.285 2.758-3.927 3.765-5.977 7.123.781.167 1.558.331 2.347.456.802-1.117 1.71-2.145 2.534-3.243 1.004-.964 2.19-1.879 3.068-2.951.991-1.21 1.723-2.639 2.656-3.896 1.075-1.45 2.354-2.75 3.465-4.177 2.919-3.749 5.159-6.61 10.336-6.466 1.005.028 1.905.213 2.859.537q1.323-1.008 2.63-2.036c-2.333-.843-5.133-1.018-7.595-.905m49.012.248c-1.516.17-2.892.377-4.334.882.96.803 1.975 1.574 2.8 2.52 3.613-1.224 5.702-.925 9.123.784.425.213.818.446 1.205.724l.96.767 2.988-1.02c-3.232-2.808-7.755-5.034-12.145-4.713q-.3.02-.597.056m-36.982 3.332c-.785.385-1.544.776-2.282 1.246 1.166.719 2.294 1.5 3.276 2.462.369 1.653.55 3.33-.401 4.841-.361.574-.95 1.025-1.455 1.472.547.349 1.11.686 1.645 1.052.305.154.503.323.862.243 1.074-.238 2.038-1.717 2.446-2.64.648-1.464.649-3.22.069-4.706-.79-2.026-2.29-3.065-4.16-3.97m27.655.09c-1.355.619-2.611 1.483-3.874 2.27.44.38 2.087 2.075 2.529 2.054.02-.001.038-.016.057-.024 1.424-.905 2.326-2.142 3.918-2.828-.718-.503-1.744-1.422-2.63-1.473m-56.143 1.074c-4.635.7-8.542 2.304-11.4 6.144-3.166 4.252-5.198 9.533-7.325 14.355-.95 2.15-2.017 4.208-2.735 6.458-.729 2.282-1.406 4.714-1.913 7.056-.807 3.728-.846 8.354-3.33 11.441-3.365 4.18-9.001 5.355-14.021 6.134q-.888.14-1.785.196l.01 2.86c1.907-.66 3.864-.998 5.834-1.406 3.572-.377 6.414-1.675 9.28-3.773.925-.678 1.856-1.374 2.578-2.273 2.522-3.138 3.318-9.744 4.17-13.748.37-1.739.853-3.474 1.335-5.185.851-3.02 2.515-5.609 3.795-8.439.662-1.465 1.225-2.976 1.902-4.435.548-1.183 1.223-2.306 1.835-3.457 2.69-5.05 5.552-8.616 11.577-9.32 1.776-.206 3.227-.031 4.95.4q.932-1.37 1.81-2.775c-2.122-.07-4.475-.512-6.567-.233m81.598.365c-4.135.702-7.913 2.893-11.791 4.373q.907 1.13 1.8 2.271c4.634-2.161 10.386-5.398 15.604-3.545 4.015 1.425 5.623 3.169 7.796 6.667 1.683 2.675 2.577 5.638 3.962 8.44.972-.233 1.963-.438 2.922-.717-1.118-2.157-2.296-4.279-3.41-6.442-2.668-5.184-4.353-8.526-10.282-10.412-2.047-.651-4.466-.954-6.601-.635m-30.492 1.506c-.35.941-.242 2.01-.197 2.995 1.221 1.354 2.539 2.799 3.905 4.007l2.813-.816c.293-.07.518-.043.683-.309-.63-.596-1.37-1.035-2.035-1.589-1.493-1.246-3.512-3.446-5.169-4.288m-40.534 1.335c-.747.77-1.383 1.647-2.038 2.494.847.279 3.615 1.877 4.287 1.679a51 51 0 0 0 2.17-2.487c-1.486-.541-2.912-1.195-4.42-1.686m69.764 1.357c-.98.377-1.968.74-2.934 1.154 3.28 2.355 5.565 5.941 7.82 9.2 1.569 2.267 3.127 4.529 4.573 6.878.534.869 3.768 7.068 3.983 7.177.937-.012 1.886.005 2.814-.134q-1.516-2.92-3.167-5.766t-3.432-5.613-3.689-5.447q-1.907-2.681-3.938-5.27c-.477-.6-1.213-1.856-1.862-2.177zm-60.984 2.089q-.89 1.155-1.796 2.297c2.458.967 5.07 1.88 7.436 3.044 3.612 1.776 6.37 5.125 10.756 4.296.575-.188 1.145-.37 1.7-.611-.079-.583-.173-1.169-.219-1.755-.6.054-1.296.171-1.894.109-3.01-.315-6.824-3.59-9.632-4.82-2.056-.9-4.526-1.205-6.352-2.56m45.314.311c-5.363 2.212-9.744 2.045-14.45 6.112-.898.777-1.874 1.608-2.594 2.554.92.107 1.785.274 2.673.544.371.046.64.162.964-.08.814-.605 1.485-1.654 2.617-2.42 2.497-1.689 9.786-3.97 12.879-4.267-.618-.738-1.35-1.874-2.09-2.443m-79.292.792c-1.605.143-3.449.335-4.974.877-2.792.992-6.844 4.22-8.703 6.442-.295.352-.535.678-.603 1.142l.104.185q.524.071 1.05.135a41 41 0 0 0 1.879-.107c1.847-2.822 5.83-5.113 9.106-5.785a13 13 0 0 1 1.555-.225l.078-.165c.283-.59 1.374-1.86 1.217-2.429-.255-.087-.442-.084-.71-.07m112.752.186a49 49 0 0 0 1.4 2.85q.301.005.602.026.3.02.599.056.298.035.595.085t.59.114q.295.064.585.142.29.079.577.171.286.093.568.199t.557.226.546.253q.27.134.533.28t.518.305.504.33.486.354.468.377q.23.195.45.4t.43.421c.71.723 1.247 1.526 1.772 2.389 1.043-.277 2.135-.254 3.207-.24-.037-1.038-2.343-3.392-3.127-4.125-3.446-3.222-7.218-4.565-11.86-4.613m-5.985.377c-1.873.971-3.67 1.513-5.719 1.984.412.401 1.548 1.963 1.947 2.007.023.003.046-.01.069-.014 1.932-.53 3.815-.942 5.819-1.055-.54-.836-1.312-2.387-2.116-2.922m-100.43.623c-.823.697-1.41 1.438-1.985 2.345.789.083 1.512.295 2.287.412.94.142 1.904.2 2.835.39.6.124 1.219.626 1.8.6l.372-.318c.828-.84 1.67-1.631 2.664-2.273-2.555-.55-5.353-1.21-7.974-1.156m12.61 2.211c-.66.9-1.332 1.792-1.978 2.701 1.114.244 3.935 1.535 4.851 1.295l2.151-2.707c-1.631-.195-3.492-.694-5.023-1.289m76.895.344c-1.617.743-3.414 1.25-5.169 1.532.352.567 1.062 2.011 1.665 2.234l.219-.066c1.737-.466 3.54-.677 5.26-1.178-.603-.898-1.225-1.741-1.975-2.522m-20.856.583c-.878.269-1.76.573-2.665.732.638.593 3.163 3.466 3.828 3.476.075 0 .149-.008.224-.011q1.289-.416 2.59-.794c-.482-.545-3.275-3.367-3.798-3.398-.06-.004-.12-.016-.18-.005m-37.145.353c-1.535 1.035-3.048 2.034-4.644 2.97 1.012.517 2.093.854 3.142 1.281.956-1.298 2.962-2.227 4.325-3.046-.876-.467-1.823-1.12-2.823-1.205m-52.75 5.068c-4.793.475-8.646 3.508-11.608 7.14-.983 1.205-1.775 2.479-2.369 3.918 1.1-.203 2.263-.43 3.302-.853.984-1.488 2.029-2.544 3.354-3.713 3.448-2.93 5.364-3.901 9.942-3.528 2.182.178 4.367.44 6.56.34.583-.854 1.114-1.735 1.534-2.682-1.6-.113-3.204.045-4.797-.07-1.975-.143-3.93-.574-5.918-.552m144.69.019c-4.107.09-8.18.67-12.238 1.297-3.347.518-6.524 1.724-9.954 1.033.477.938 1.04 1.882 1.438 2.855 2.65-.002 4.994-.732 7.552-1.286 1.8-.39 3.706-.515 5.535-.768 1.87-.257 3.842-.728 5.727-.708 3.64.506 7.75 2.35 10.014 5.35.893 1.184 1.447 2.528 2.025 3.88 1.127.063 2.145.289 3.215.642-1.524-4.806-5.182-8.741-9.62-11.057-1.105-.577-2.424-1.217-3.693-1.238M72.4 29.763c-.445.71-.775 1.442-1.107 2.211 2.334.768 4.661.317 7.025.729 3.018.525 6.058 1.293 9.053 1.956 4.762 1.053 9.652 2.2 14.256-.117q.546-.27 1.065-.588c.51-.437 1.03-.86 1.483-1.356l-1.923-.777c-2.093.858-4.227 1.49-6.509 1.531-2.36.043-4.75-.638-7.044-1.137-2.824-.615-5.646-1.135-8.484-1.677-1.342-.256-2.698-.641-4.058-.768-1.249-.116-2.506-.052-3.757-.007m80.112 1.26q-1.95.494-3.917.918c3.649 2.104 7.81 3.859 12.001 4.413 1.174.079 2.346.168 3.523.185a33 33 0 0 1-1.97-2.74c-2.656-.108-5.04-.349-7.474-1.552-.623-.308-1.532-1.115-2.163-1.224m20.472 1.025a35 35 0 0 1-6.026.333l2.084 2.597c1.96-.183 3.94-.345 5.887-.628-.37-.607-1.074-2.053-1.753-2.33zm24.758.379c-.363.027-.744.011-1.079.16l.214.423-.042.069c.049.07.101.137.147.209 2.18 3.457 2.771 7.344 3.428 11.28.553 3.313 1.173 6.62 1.693 9.937.971 6.195 1.319 11.3 4.853 16.738 1.335 2.055 2.854 3.744 4.849 5.176l.327.157c.201-.2.17-.288.177-.561.022-.891-.164-1.774-.13-2.67-2.04-1.653-3.628-3.529-4.714-5.95-2.012-4.488-2.759-12.856-3.628-17.983-.477-2.815-1.227-5.624-1.53-8.46-.373-3.485-.84-5.586-2.919-8.561-.547.005-1.101-.01-1.646.036m-140.48.477c-1.011.204-2.122.394-2.736 1.316-.834 1.254-1.243 3.036-1.567 4.489-1.12 5.016-1.441 10.174-2.486 15.2-.196.941-1.746 6.7-1.59 7.201.012.035.032.065.048.098l.128.034c.858-.301 1.706-.562 2.612-.679q1.409-5.3 2.242-10.72c.26-1.779.359-3.578.584-5.36.494-3.91 1.423-7.814 2.946-11.454zm19.935.797c-.999 1.66-1.949 3.37-2.703 5.157-2.183 5.174-3.282 9.576-9.262 11.225-.41.958-.77 1.892-.952 2.922.543-.23 1.084-.475 1.633-.692 4.793-1.619 6.685-3.355 8.933-7.9a117 117 0 0 0 3.136-6.95c.476-1.146.846-2.33 1.374-3.454a10 10 0 0 0-2.159-.308m111.25.088c-.723.121-1.432.248-2.143.432.553 1.4 1.554 2.597 2.058 4.002 1.714 4.786 2.728 13.34 7.893 15.723.858.396 1.905.56 2.84.672l1.914.033-.496-2.476c-1.66.022-3.779-.326-4.987-1.567-2.41-2.475-4.58-16.12-6.516-16.85zM87.32 35.912c-1.981 1.648-3.998 3.482-6.489 4.307-1.08.358-2.227.553-3.327.854-.38.896-.752 1.782-1.227 2.632.863-.055 1.697-.096 2.538-.31q.213-.053.424-.11c2.777-.957 5.932-1.773 8.237-3.657 1.157-.945 2.197-2.126 3.253-3.19zm38.804 2.397q-1.074.014-2.146.053-1.073.04-2.144.107-1.072.066-2.141.159-1.07.092-2.136.211t-2.131.264q-1.063.145-2.123.316t-2.115.369-2.105.42-2.095.473-2.082.523q-1.037.274-2.068.574t-2.054.625-2.038.676-2.02.725-2.002.775-1.983.824-1.961.872-1.94.92-1.916.968-1.892 1.015-1.866 1.06-1.84 1.107q-.913.564-1.812 1.151t-1.783 1.195q-.884.61-1.753 1.24-.87.63-1.723 1.281-.853.652-1.69 1.324-.836.672-1.657 1.365-.82.692-1.623 1.405t-1.588 1.445-1.552 1.483q-.766.751-1.515 1.521C54.2 75.335 45.619 88.934 41.6 103.298c-2.146 7.672-3.177 16.735-3.107 24.699.051 5.923.474 11.817 1.571 17.645.381 2.025.917 4.034 1.393 6.04.528 2.227.847 4.51 2.103 6.476 2.407.793 5.309.195 7.821.173-1.4-3.912-2.544-7.876-3.218-11.986-.16-.979-.155-1.98-.318-2.96-1.497-8.98-1.779-16.34-.738-25.425.19-1.646.323-3.316.624-4.945.31-1.671.775-3.307 1.177-4.956.559-2.293 1.086-4.614 1.89-6.84.814-2.259 1.873-4.488 2.899-6.659 1.06-2.242 2.608-5.362 3.878-7.465.715-1.183 1.544-2.3 2.296-3.461.771-1.191 1.489-2.437 2.35-3.566.785-1.027 1.722-1.921 2.53-2.927 10.73-13.362 22.88-21.343 38.923-27.115 8.29-2.982 18.588-4.364 27.375-3.893 3.882.51 7.841.475 11.695 1.25q.924.186 1.842.394.919.208 1.833.436t1.822.477 1.811.517 1.8.558q.896.29 1.786.598.889.31 1.772.639.882.329 1.757.677.875.35 1.742.718t1.725.756 1.708.795 1.69.833q.84.425 1.67.87t1.65.908 1.63.945 1.608.981 1.585 1.017 1.563 1.052 1.538 1.088 1.513 1.121 1.488 1.155q.737.586 1.462 1.188.724.603 1.434 1.222.71.618 1.407 1.252.696.635 1.378 1.284.682.65 1.349 1.315t1.319 1.344 1.289 1.374q.636.694 1.257 1.403.621.708 1.226 1.43t1.193 1.458 1.16 1.484c5.342 6.965 9.391 14.946 12.295 23.206.362 1.03.606 2.094.947 3.13.415 1.26 1.111 2.45 1.417 3.743.532 2.25 1.172 5.16 1.439 7.44.225 1.92.241 3.848.434 5.76.104 1.025.451 2.018.545 3.045.155 1.684.063 3.45.061 5.142-.001 1.727.11 3.56-.11 5.275-.131 1.016-.837 3.165-.491 4.063.542 1.408-2.107 12.539-2.66 14.56-.445 1.63-1 3.204-1.532 4.806 2.795.075 5.595.035 8.39.03 1.423-3.714 2.195-7.835 2.846-11.754 2.962-17.86 1.227-37.832-6.213-54.462-8.457-18.903-22.1-34.355-40.439-44.147-3.031-1.618-6.093-3.19-9.311-4.405-11.532-4.352-21.907-6.17-34.245-5.795m-63.578.875c-1.336.172-5.348.063-6.101 1.085-.309.42-.458 1.637-.388 2.145.026.183.025.127.198.248q2.938-.338 5.895-.423c.157-.72.727-2.362.526-3.023zm131.709.735c-.526.084-1.054.158-1.577.257.299.74.63 1.48.833 2.255 1.477-.08 2.802-.111 4.263.176.375.11.597.27.956.093.298-.779-.08-1.862-.223-2.67-1.373-.102-2.888-.326-4.252-.11m-144.028.133c-1.917.135-3.891.194-5.777.582-4.283.883-8.581 3.473-11.429 6.763-1.598 1.846-3.832 5.542-4.253 7.944-.35 2-.23 4.426-.082 6.455.19 2.617.86 5.229 1.14 7.85.27 2.543.342 5.097.558 7.642.093 1.097.334 2.184.465 3.278.212 1.757.328 3.514.574 5.27q.287 2.183.711 4.342c.32 1.629.883 3.452.83 5.116-.08 2.467-1.13 6.11-2.112 8.347.328.981.66 2.01 1.162 2.917l.151.068.2-.315c1.748-3.215 3.052-7.56 2.888-11.261-.083-1.864-.503-3.799-.776-5.647-.27-1.822-.456-3.662-.752-5.478-.192-1.178-.464-2.359-.59-3.546-.21-1.956-.117-3.958-.228-5.923-.132-2.338-.485-4.653-.816-6.97-.417-2.923-1.558-7.007-1.254-9.822.143-1.33.825-2.664 1.356-3.877 2.22-5.066 4.936-7.951 10.386-9.564 1.6-.473 3.182-.986 4.84-1.197.803-.101 2.798-.124 3.383-.285.113-.031.273-.27.329-.372.35-.649.414-1.628.556-2.351zm17.229.037c-.246.934-.512 1.868-.723 2.81 1.277.009 3.77.224 4.933-.084.43-.884.822-1.745 1.077-2.699-1.762.008-3.526-.04-5.287-.027m135.777.384c.297 1.33.648 2.663.819 4.016 1.972.007 5.285.5 6.953.299.34-.041.637-.195.946-.33l.192-.079c3.119.59 7.011 2.323 8.867 5.023 1.065 1.55 1.622 3.368 2.23 5.127 1.24.21 2.23.594 3.347 1.165.23-.405.095-.767-.028-1.206-1.041-3.739-4.413-8.765-7.874-10.698-1.949-1.088-4.429-1.825-6.655-1.989-3.55-.26-5.411.17-8.797-1.328m-19.435 4.447q-1.394.09-2.785.224c2.675 3.425 4.452 5.336 8.298 7.5.606.237 1.206.483 1.835.648-.163-1.022-.309-2.052-.529-3.063-.924-.267-1.846-.556-2.654-1.094-.862-.575-3.888-4.149-4.165-4.215m-140.373.189q-1.28.53-2.569 1.042c-2.375 4.635-1.251 13.237-1.098 18.419.065 2.228-.1 4.465-.008 6.692.194 4.737 1.024 7.137-.692 11.816-.8 2.185-1.655 3.497-3.532 4.906.2 1.196.285 2.472.558 3.645 3.472-3.707 6.868-8.249 6.712-13.598-.045-1.574-.253-3.145-.326-4.719-.197-4.209-.312-8.413-.432-12.623-.04-1.387-.233-2.767-.247-4.157-.038-3.624.525-7.939 1.854-11.294-.16-.135-.08-.109-.22-.129m168.492.406c.948 4.817 1.94 9.485 2.068 14.419.16 6.16-1.008 12.31-.43 18.456.089.933.14 1.916.368 2.826.591 2.366 1.635 4.423 2.911 6.475.886 1.423 1.714 2.98 3.097 3.99l.123-.128c.093-.683.186-1.35.357-2.019-4.67-6.712-4.46-10.277-4.177-18.088.044-1.2-.007-2.401.025-3.6.067-2.53.188-5.024.163-7.558-.041-4.232-.755-9.448-1.444-13.655-.968-.575-1.953-.918-3.06-1.118m-86.644 3.789q-.848.037-1.695.093-.847.055-1.692.127-.846.073-1.69.164-.844.09-1.685.199-.842.108-1.681.234t-1.676.27-1.67.305q-.833.16-1.663.34-.83.178-1.655.374t-1.647.409-1.638.444q-.817.23-1.629.478t-1.618.512q-.806.265-1.607.546t-1.595.58-1.582.613-1.57.647q-.781.33-1.555.678-.775.348-1.541.712-.767.364-1.526.744-.758.38-1.51.776-.75.395-1.492.807-.743.411-1.476.838t-1.457.87-1.44.9-1.42.929-1.4.96q-.695.486-1.38.988t-1.358 1.017q-.674.516-1.337 1.046t-1.314 1.074-1.292 1.1c-2.356 2.045-4.587 4.43-6.7 6.726-1.512 1.644-2.835 3.427-4.176 5.21q-.703.923-1.378 1.868-.675.944-1.322 1.907-.646.965-1.264 1.947-.617.983-1.205 1.984-.587 1-1.145 2.019-.557 1.018-1.084 2.052t-1.023 2.084-.96 2.113q-.463 1.064-.895 2.141t-.832 2.167-.766 2.19q-.367 1.102-.701 2.213-.334 1.112-.634 2.233t-.567 2.251-.5 2.267-.43 2.28c-.5 2.951-.686 6.046-.862 9.034-.142 2.399-.328 4.813-.225 7.216.155 3.638.624 7.111 1.174 10.701.705 4.593 1.367 8.329 2.755 12.8.392 1.26.749 2.586 1.326 3.775 6.116.08 12.233-.09 18.349-.104l30.05.068 20.613.018c2.27-.001 4.54-.108 6.808-.08l49.905.048 14.033-.048c2.483-.016 4.997-.151 7.477-.027 1.712-4.731 2.865-9.726 3.651-14.688q.13-.788.244-1.578t.213-1.582q.099-.791.183-1.585t.153-1.589q.07-.795.123-1.591.054-.797.093-1.594.04-.797.063-1.595.024-.797.033-1.595t.002-1.597-.027-1.595-.058-1.596q-.037-.797-.088-1.593-.052-.796-.118-1.592-.067-.795-.148-1.589-.082-.794-.178-1.586-.097-.793-.209-1.583t-.238-1.578-.267-1.573q-.142-.786-.298-1.569t-.327-1.562-.357-1.556-.386-1.548-.415-1.541-.445-1.533q-.229-.765-.472-1.525-.244-.76-.502-1.515t-.531-1.505-.559-1.496-.587-1.484-.615-1.473-.642-1.46-.67-1.45q-.312-.647-.635-1.29-.322-.641-.657-1.278-.335-.636-.681-1.265-.346-.63-.704-1.254-.358-.623-.728-1.24-.37-.616-.75-1.226-.381-.609-.773-1.211t-.795-1.198-.817-1.183-.84-1.167q-.424-.58-.86-1.151-.435-.572-.881-1.135t-.903-1.12-.923-1.102-.943-1.084-.963-1.067q-.487-.53-.983-1.05t-1.002-1.03q-.505-.51-1.02-1.012-.516-.501-1.04-.993-.524-.491-1.058-.973-.533-.482-1.075-.954t-1.093-.933-1.11-.914-1.127-.893-1.143-.871-1.159-.85-1.174-.829q-.592-.409-1.19-.807-.599-.398-1.205-.784-.606-.387-1.218-.763-.613-.375-1.233-.739c-4.889-2.835-10.25-5.114-15.554-7.04-7.534-2.735-18.734-4.43-26.714-3.925m-65.032.476c-1.8.509-3.64.822-5.44 1.325-.186.7-.569 1.68-.372 2.396l.183.078.172-.092q.114-.013.23-.023c1.424-.12 3.308.5 4.443-.745.451-.495.972-2.102.87-2.774-.018-.112-.019-.095-.086-.165M191.65 50.85c.126.877.224 1.797.486 2.644 1.048 3.389 3.798 6.215 6.571 8.288 1.223.913 2.5 1.608 4.002 1.942-.317-1.061-.605-2.143-.987-3.182-3.168-1.051-4.88-3.53-6.9-5.996-.725-.884-1.522-1.706-2.275-2.563-.308-.349-.57-.816-.897-1.133m-141.776.462c-2.127.274-5.151.684-6.84 2.026-.068.53-.368 1.807-.148 2.267 2.062-.776 4.313-.928 6.434-1.578.16-.65.712-2.127.554-2.715m155.46.316c.046 1.184.286 2.324.498 3.487 1.52.55 3.156.634 4.726.99.61.139 1.642.615 2.217.577-.119-1.15-.178-2.35-.431-3.478-1.86-.015-3.543.014-5.288-.73-.588-.25-1.135-.605-1.721-.846m-166.98 2.131c-2.106.877-4.382 1.7-6.292 2.969-.06.757-.356 2.15-.106 2.84l.056.047c1.86-1.102 4.29-2.071 6.376-2.64-.015-.446.142-2.988-.033-3.215m178.81.514c.106.843.168 1.729.352 2.557 4.307.911 11.84 3.587 14.311 7.368q.221.341.413.698.193.358.357.73.163.371.296.755t.236.777.172.793q.07.4.108.804.038.405.044.811t-.021.811c1.251.54 2.372 1.332 3.502 2.085.145-4.018-1.981-8.764-4.672-11.664-3.787-4.083-9.77-5.697-15.099-6.525M27.182 57.599c-3.67 2.913-6.091 6.025-7.593 10.488-.394 1.17-.796 2.41-.912 3.645-.256 2.725 1.052 6.45 1.742 9.155.553 2.165 1.264 4.302 1.775 6.472.453 1.927.677 3.898 1.303 5.782.72 2.164 1.621 4.259 2.374 6.41.596 1.703 1.026 3.47 1.61 5.181.567 1.659 1.34 3.275 1.79 4.968 1.358 5.1.344 10.8-1.424 15.67.287.406.562.839.887 1.216l.908 1.13c1.745-5.333 3.05-9.568 2.483-15.3-.344-3.487-1.652-6.655-2.817-9.923-.62-1.74-1.189-3.502-1.852-5.226-.52-1.349-1.125-2.684-1.565-4.06-.982-3.076-1.259-6.413-2.103-9.542-1.889-6.997-4.332-11.184-.316-18.153 1.028-1.784 2.341-3.689 3.925-5.026-.021-.635.124-2.421-.215-2.887m197.028 2.404q-.243 5.079-.61 10.15c-.166 2.104-.524 4.28-.482 6.392.634.677 1.33 1.263 2.175 1.659l.179-.068v-.231c.249-3.329.57-6.646.866-9.97.183-2.062.158-4.29.787-6.267q-1.462-.825-2.915-1.665m-17.394 1.406c.259 1.196.505 2.411.994 3.539 1.13.128 4.563 1.33 5.029 1.264.097-.838.164-1.656.178-2.499q-2.218-.602-4.35-1.459c-.615-.251-1.226-.654-1.851-.845M38.283 63.844c-1.18.468-2.187 1.206-3.295 1.81-.6.326-1.227.571-1.823.914.067.695.062 2.502.535 2.954.49-.345.985-.709 1.54-.942 1.312-.552 3.026-.493 3.342-2.21.103-.558.15-2.044-.159-2.477zm179.278 1.043a24 24 0 0 0-.34 2.818c2.04.435 3.529.819 5.289 2.017.082-.777.369-2.033.114-2.77-1.022-1.085-3.627-1.607-5.063-2.065m-164.904.268q-1.538.455-3.1.823c-1.537 2.58-3.297 5.163-5.849 6.841-.012.701-.223 2.72.17 3.197.93-.87 1.972-1.59 2.886-2.478 1.688-1.636 5.384-6.013 5.994-8.168zm-24.152 3.373c-2.004 1.24-4.588 2.489-6.122 4.285.048.764.08 1.532.173 2.291l.145.061.046-.033c.473-.44 5.355-3.238 6.187-3.565-.191-.88-.02-2.251-.429-3.039m198.784.642-.158 2.333c2.836 1.332 5.092 2.64 7.671 4.42 2.776 1.915 4.74 3.075 5.96 6.41.748 2.048 1.088 3.808.747 5.978.844.672 1.677 1.34 2.454 2.09.531-4.31-.002-9.496-2.784-13.017-2.851-3.608-9.49-7.152-13.89-8.213M17.615 74.359c-3.88 3.728-5.894 7.424-6.026 12.866-.115 4.724 3.737 12.642 5.636 17.13.799 1.886 1.443 3.826 2.38 5.652a158 158 0 0 0 4.175 7.655c1.037 1.77 2.165 3.507 3.171 5.292l.217.248c.416-.273.5-1.053.597-1.527q.165-.813.285-1.634c-1.804-3.192-4.188-6.09-5.804-9.387-1.035-2.112-1.634-4.363-2.388-6.58-.464-1.364-1.022-2.714-1.572-4.045-.74-1.795-1.822-3.383-2.653-5.127-1.72-3.614-1.85-8.295-.804-12.114.464-1.694 1.634-4.37 3.23-5.277l.157-.083c-.104-.83-.121-2.42-.601-3.069m199.638.236c-.057 1.222.053 2.393.217 3.602 1.423.69 2.67 1.712 4.023 2.53 2.33 1.408 4.707 2.593 7.178 3.726.531.243 1.154.757 1.701.868.14-.177.106-.094.144-.225q.202-1.434.426-2.864c-2.456-.848-4.54-2.07-6.83-3.238-1.208-.617-2.509-1.122-3.651-1.855-1.155-.742-2.196-1.622-3.209-2.544m-178.663.503c-1.467.92-2.919 2.092-4.473 2.832 0 .843-.084 1.799.098 2.62l.203.02c1.498-.84 3.123-1.42 4.596-2.3.008-.818.186-2.278-.169-3.009zm194.374.716c-.037 2.348-.487 4.525-.851 6.826-.517 3.263-.975 6.513-1.936 9.686l2.089 1.8.136-.055.033-.095c1.355-5.364 1.67-11 3.186-16.323-1.01-.483-1.712-1.296-2.657-1.839m-203.26 4.034c-1.61 1.159-3.384 2.097-4.966 3.28l.624 2.596.167.13c1.421-1.01 2.906-1.896 4.37-2.838-.012-.915.146-2.329-.195-3.168m192.69 2.72c-.232 1.629-.354 3.27-.634 4.892-1.038 6.023-2.55 12.374.218 18.19.267.562.603 1.436 1.022 1.895.136.149.147.147.29.242.198-.24.262-.544.353-.835q.394-.937.797-1.869c-2.151-2.769-1.874-6.252-1.45-9.546.27-2.095.726-4.165.99-6.26.226-1.785.273-3.59.471-5.376-.68-.445-1.355-.924-2.056-1.332m12.768 2.647c-.11 1.246-.352 2.471-.623 3.692 1.412.784 2.692 1.667 4.006 2.6 3.487 2.475 6.26 5.159 7.493 9.399.52 1.787.499 3.339.308 5.179l2.211 2.238c.248-1.322.507-2.639.516-3.99.022-3.16-1.132-7.083-2.925-9.698-2.085-3.04-5.013-5.025-7.975-7.106-1.022-.718-2.133-1.422-3.01-2.315m-214.745.628a39 39 0 0 1-5.083 3.98c.201.975.368 1.977.671 2.927.065.034.126.094.2.092 1.569-1.605 3.54-2.79 5.168-4.345-.148-.731-.33-2.193-.956-2.654m10.54 4.76c-1.11 1.129-2.106 2.151-3.474 2.971.287 1.028.566 2.05 1.007 3.025.706.028 1.893-1.195 2.399-1.664q.39-.361.772-.73c-.177-.602-.452-3.352-.704-3.602m194.054.053c-.152.901-.334 1.809-.39 2.722 1.124 1 2.503 1.692 3.707 2.592a80 80 0 0 1 7 5.902l.18-.083c.232-.69.456-1.385.713-2.066-2.302-2.986-5.222-5.16-8.32-7.241-.923-.62-1.897-1.327-2.89-1.826M11.163 92.088c-2.419 3.65-3.848 6.355-4.127 10.797-.094 1.483-.095 2.84.198 4.306.525 2.622 1.744 5.123 3.023 7.456 2.11 3.852 4.932 7.361 7.453 10.95 1.51 2.153 2.816 4.435 4.451 6.5.717.904 1.464 1.76 2.41 2.43.338.18.428.304.81.218.348-.415.375-1.092.464-1.615-1.875-2.571-3.928-5.013-5.716-7.65-1.422-2.096-2.603-4.36-3.959-6.5-.941-1.484-2.081-2.838-3.023-4.32-2.574-4.05-4.213-8.959-3.434-13.774.329-2.035 1.08-4.276 2.484-5.827-.26-.966-.595-2.073-1.034-2.97m228.674 2.084c-1.508 2.546-2.28 5.519-3.406 8.24-.8 1.934-1.835 3.815-2.494 5.797.553.629 1.107 1.36 1.775 1.865 2.07-4.81 4.237-9.528 5.87-14.51-.49-.526-1.007-1.241-1.745-1.392M23.324 96.58c-1.292 1.034-2.446 2.279-3.816 3.203.272.878.672 2.853 1.205 3.505 1.207-1.294 2.446-2.844 3.842-3.929-.265-.744-.63-2.314-1.23-2.779m204.853.857c-.862 3.301-2.185 6.54-3.355 9.742-.728 1.993-1.506 3.941-1.797 6.06-.194 1.412-.132 2.868-.076 4.288.054 1.383.107 2.734.412 4.089.208.921.572 2.79 1.119 3.532.12.163.135.162.272.266.203-.247.224-.389.314-.692.409-.936.793-1.895 1.27-2.798-.74-1.931-1.046-4.241-.946-6.305.063-1.29.387-2.546.662-3.804.225-1.025.356-2.078.62-3.092.48-1.847 1.256-3.931 2.043-5.672.606-1.338 1.35-2.52 1.656-3.98-.69-.616-1.424-1.123-2.194-1.634m12.355 5.051c-.558.745-.96 1.444-1.263 2.335 2.683 2.443 7.245 6.345 8.605 9.65.672 1.632.886 3.59.97 5.338.058 1.2-.064 2.38-.189 3.571.352.832.928 1.578 1.463 2.301l.2.131c1.162-3.115 1.09-9.755-.303-12.806-1.45-3.177-3.735-5.146-6.216-7.435-1.101-1.016-2.167-2.068-3.267-3.085m-225.318.466-3.94 4.596c.182.631.42 2.043.948 2.383l.236-.173c1.348-1.245 2.722-2.532 4.215-3.6-.3-.928-.695-2.558-1.46-3.206m213.92 2.152c-.293.899-.64 1.809-.864 2.726 1.46 1.287 2.796 2.718 4.159 4.106a299 299 0 0 1 7.306 7.684c2.684 2.933 5.438 5.518 7.489 8.979.915 1.543 1.523 3.114 1.646 4.918.184 2.71-.346 4.92-1.472 7.356.204.72.867 3.109 1.38 3.574l.079-.009c2.203-3.955 3.155-10.595 1.898-14.928-.343-1.183-.913-2.196-1.634-3.19-1.54-2.122-3.429-3.975-5.188-5.909-2.522-2.772-5.146-5.377-7.767-8.052zm-202.436 1.352c-1.099 1.276-2.172 2.493-3.682 3.288.567.933 1.106 1.906 1.735 2.798.26-.129.273-.164.456-.37.813-.914 1.903-1.663 2.932-2.315-.3-.976-.709-2.67-1.441-3.401m217.25 4.615c-.575 1.781-1.678 3.26-2.375 4.974.518.617 1.02 1.285 1.636 1.804l.212-.017.063-.078c.769-1.487 1.806-2.844 2.53-4.336-.569-.766-1.321-1.75-2.065-2.347m-236.62.254c-2.072 2.397-2.642 7.176-2.42 10.257.297 4.132.935 4.761 2.826 8.21.45.822.476 1.623 1.244 2.261.384.32.861.582 1.195.952.62.689 1.12 1.65 1.64 2.424 1.07 1.588 2.28 3.228 3.613 4.6 1.949 2.005 4.124 3.774 6.236 5.6 1.25 1.079 2.396 2.242 3.602 3.364 1.517 1.412 3.102 2.745 4.512 4.268l.216.061c.25-.398.175-.915.065-1.351-.313-1.248-.991-2.654-1.806-3.651-.827-1.011-1.998-1.807-2.992-2.653-2.1-1.79-4.272-3.6-6.27-5.503-2.226-2.118-3.942-4.444-5.81-6.858-1.027-1.328-2.284-2.55-3.194-3.954-2.817-4.345-4.065-10.194-1.385-14.875q.075-.13.152-.257c-.358-.82-.797-2.292-1.423-2.895m224.318 1.26c-1.202 2.797-2.311 5.63-3.5 8.43-.577 1.358-1.326 2.659-1.845 4.038-.146.386-.234.704-.218 1.12l.008.237c.07 1.766 1.642 6.056 2.68 7.401l.104-.017.317-.476.683-1.233c-1.632-4.027-2.385-4.284-.591-8.51.727-1.714 1.615-3.356 2.4-5.043.613-1.316 1.106-2.716 1.862-3.958-.56-.506-1.076-.996-1.558-1.58zm-211.905.249a29.7 29.7 0 0 1-3.61 4.116 35 35 0 0 0 1.666 2.612c1.404-1.134 2.666-2.399 3.445-4.05-.339-.784-.81-2.15-1.5-2.678m207.018 1.09c-.188 1.473.124 2.486 1.01 3.692.086.118.177.216.279.32l.148-.056.056-.27c.201-.53.394-1.06.636-1.573-.684-.64-1.38-1.611-2.129-2.113m12.112 6.543c-.623 1.66-1.442 3.204-2.278 4.764.383.447 1.308 1.828 1.824 1.979l.102-.033c.95-1.482 1.894-3.026 2.565-4.655q-1.124-1.009-2.214-2.055m-225.987.496c-1.133 1.53-2.31 2.962-3.639 4.331.307.68.848 2.31 1.497 2.636l.231-.118c1.302-1.441 2.479-2.993 3.79-4.421-.552-.838-1.157-1.726-1.879-2.428m218.78-.006c-.309.81-.618 1.616-.868 2.447l.078.13c1.275 2.064 3.065 4.097 4.639 5.948.515.606 1.103 1.183 1.576 1.82.503.68.854 1.478 1.325 2.182.556.831 1.2 1.603 1.748 2.44.893 1.368 1.625 2.906 2.395 4.347 2.52 4.721 4.843 9.56 3.585 15.063-.338 1.48-.922 3.02-1.907 4.195.171 1.108.246 2.368.588 3.43.342-.147.445-.351.66-.64 3.34-4.213 3.697-9.626 3.106-14.77-.397-3.453-2.899-6.768-4.577-9.711-1.368-2.398-2.364-4.298-4.017-6.565-1.578-2.163-3.374-4.195-5.049-6.285-1.063-1.328-2.09-2.82-3.282-4.031m-207.116.524c-1.05 1.301-2.081 2.6-3.007 3.994.734.718 1.204 1.646 1.913 2.351 1.124-1.017 2.072-2.17 2.965-3.39-.574-.915-1.146-2.182-1.87-2.955m2.385 4.91c-.42.51-.833 1.033-1.268 1.53 1.22 2.19 1.847 3.747 2.668 6.096 1.433 4.108 2.21 7.707.985 12q-.108.38-.226.758c1.76 3.516 3.375 8.109 3.764 12.053.127 1.29.06 2.586 0 3.876.611.525 1.213 1.071 1.843 1.571l.256.176c.263-.18.29-.39.35-.69.986-4.995-.527-11.484-3.483-15.597.252-1.638.682-3.369.756-5.02.203-4.502-1.48-11.249-4.16-14.932-.451-.62-.921-1.299-1.485-1.82m-21.91 1.288c-.104 2.257-.364 4.625-.264 6.877.065 1.461.397 2.946.761 4.357 1.079 4.182 2.538 6.835 5.477 10.038.748.816 1.664 1.46 2.427 2.253.618.64 1.005 1.45 1.689 2.039 1.462 1.256 3.184 2.276 4.589 3.568 1.264 1.163 1.767 2.572 3.301 3.701 10.85 7.988 17.855 8.676 17.196 24.5-.055 1.324-.191 2.648-.312 3.967.92.203 1.817.442 2.719.713.595-7.19.983-14.632-3.958-20.528-3.35-3.997-10.336-7.75-14.707-10.919-1.223-.887-1.907-2.29-2.959-3.34-.952-.95-2.246-1.627-3.296-2.48-2.152-1.752-5.644-5.444-7.15-7.77-.905-1.399-1.901-2.928-2.365-4.534a23.3 23.3 0 0 1-.792-3.964c-.322-3.121.308-4.376-1.49-7.3-.226-.367-.502-.954-.866-1.178m240.293.136c-1.148 1.443-2.426 2.862-3.113 4.597.254.505.819 1.807 1.304 2.011l.035-.014a44 44 0 0 1 3.28-4.49c-.415-.676-.862-1.63-1.506-2.104m-227.463.142q-1.587 2.544-3.47 4.878c.472.774.921 1.594 1.52 2.277l.212.05c1.175-1.412 2.292-2.952 3.554-4.28-.526-.836-1.111-2.312-1.816-2.925m215.629 1.012c-.609 1.305-1.565 2.46-2.356 3.66-.717 1.088-1.367 2.227-2.123 3.288-.837 1.173-2.38 2.707-2.743 4.087-.325 1.237 0 2.508.235 3.73l.438-.868c.983-2.049 2.51-3.907 3.832-5.745 1.472-2.044 2.896-4.123 4.482-6.081-.523-.754-1.139-1.404-1.766-2.071m-8.287.359c-.508 1.65-1.215 3.242-1.652 4.912-.615 2.351-1.165 5.201-.992 7.632.315 4.43 4.047 11 5.66 15.361l.82-.686 1.192-.774-.038-.158c-.374-1.47-1.121-2.89-1.735-4.278-3.142-7.105-5.263-10.941-1.439-18.518-.469-.882-1.195-2.815-1.816-3.491m-198.408 4.354c-.974 2.806-2.285 5.846-4.14 8.194q.948.816 1.876 1.654l.271.153c.705-.467 2.907-5.205 3.393-6.22-.275-.953-.663-3.159-1.4-3.781m212.63 2.165c-1.752 1.009-3.216 3.009-4.638 4.442-.886.893-1.856 1.709-2.697 2.647-1.188 1.326-2.386 3.556-4.05 4.25l1.21 2.883c1.392-1.35 2.508-2.89 3.82-4.302 1.37-1.476 7.26-6.807 7.287-8.502.007-.39-.166-.886-.469-1.145-.133-.116-.308-.194-.463-.273m-6.974 1.246c-.652.7-1.224 1.435-1.702 2.266.353.614.714 1.489 1.161 2.025.523-.722.985-1.091 1.765-1.505-.264-1.029-.684-1.877-1.224-2.786m-220.2.736c-.487 1.331-1.348 2.298-2.011 3.522.228.727 1.068 2.796 1.663 3.202l.105-.046c.82-1.255 1.697-2.5 2.327-3.864-.817-.858-1.381-1.872-2.084-2.815m223.84 6.765c-.666.543-1.359 1.071-1.96 1.686.369 1.206 1.276 3.928 2.046 4.843a24 24 0 0 1 1.935-1.63c-.286-.746-1.547-4.587-2.021-4.9m7.904 1.247c-3.282 3.229-7.085 6.418-10.74 9.222-1.552 1.19-3.191 2.273-4.722 3.49-1.539 1.222-3.01 2.547-4.498 3.832.213.953.417 1.982.925 2.828 3.96-3.756 8.396-6.972 12.655-10.371l5.151-4.093c.74-.594 1.456-1.299 2.251-1.813-.158-.776-.385-2.558-1.022-3.095m-223.917.09c-.888 1.75-1.878 3.47-2.544 5.322.8.411 1.658.789 2.336 1.388l.034.029c.253-1.336 1.64-3.748 2.425-4.862-.7-.587-1.486-1.406-2.25-1.877m-12.591.371c-.309 1.287-.78 2.55-1.001 3.852-.635 3.725.53 7.815 2.454 10.99.416.686 1.322 2.305 1.985 2.721l.105-.046.933-2.717c-3.031-5.082-3.446-6.224-2.474-12.084-.61-.922-1.26-1.898-2.002-2.716m216.361 3.163c-1.232 1.816-1.869 3.493-2.548 5.569-.899 2.745-1.461 4.687-.893 7.588.505 2.58 1.256 5.129 1.867 7.687.3 1.262.442 2.717.905 3.917.313-.013.53-.245.784-.422.433-.23.864-.478 1.312-.68-.522-2.22-.847-4.45-1.326-6.67-.991-4.599-2.496-7.962.193-12.382.273-.45.61-.83.981-1.2-.276-.82-.747-2.832-1.275-3.407m-196.472 3c-.848 1.668-1.406 3.445-2.21 5.128.883.478 1.621.98 2.343 1.685l.182.018c.665-1.33 1.142-3.283 1.662-4.733-.646-.706-1.278-1.445-1.977-2.098m213.239 1.398c-.768.691-1.59 1.364-2.266 2.146.876 1.267 1.188 2.543 1.635 3.998 1.158 3.77 2.06 7.352 1.34 11.31-.64 3.516-1.572 5.32-4.03 7.806.202.94.42 1.879.578 2.827 2.915-1.744 4.914-6.16 5.696-9.328 1.403-5.682-.005-10.718-1.955-16.017-.293-.797-.475-1.873-.877-2.596-.03-.055-.08-.097-.121-.145m-224.64 1.67c-1.636 2.71-4.637 9.135-4.881 12.153-.138 1.709.285 3.52.694 5.173 1.114 4.507 2.906 7.062 6.824 9.4 1.223.729 2.445 1.512 3.706 2.168 1.929 1.005 3.937 1.78 5.657 3.138.354-1.03.558-1.773.41-2.877l-.023-.194-.017-.115c-1.873-1.254-4.028-1.885-6.042-2.865-.907-.442-1.734-1.069-2.538-1.673-3.109-2.336-5.05-4.992-5.8-8.902-.886-4.623 2.313-9.592 4.236-13.609-.65-.575-1.44-1.458-2.226-1.797m215.384 5.684a18 18 0 0 0-1.752 1.71c.948 2.426 1.37 5.007 2.37 7.435-1.542 1.134-3.276 2.065-4.922 3.042-2.312 1.372-4.623 2.849-7.086 3.934-1.012.445-1.989.78-3.076.983-.163.969-.656 2.846-.233 3.762.291.072.308-.004.565-.134 1.314-.904 2.649-1.948 4.068-2.669 1.173-.595 2.486-.938 3.623-1.599 1.956-1.136 3.654-2.682 5.645-3.821.692-.397 3.714-1.743 3.98-2.023.242-1.38-2.21-9.374-3.053-10.486a1 1 0 0 0-.129-.135m-207.589 1.213c-.336 1.285-.802 2.526-1.142 3.806-.695 2.617-1.277 5.352-1.805 8.01-.287 1.44-.624 2.823-.64 4.3.784.694 1.582 1.333 2.465 1.899.578-2.392.719-4.906 1.198-7.326.597-3.008 1.49-5.949 2.179-8.934-.741-.579-1.435-1.299-2.255-1.755m215.705.768c-.758.838-1.51 1.653-2.393 2.362-.694.557-1.506 1.046-2.143 1.661.173.843.294 1.771.61 2.57l.161.029c1.406-1.254 2.906-2.424 4.567-3.328-.093-.836-.102-2.637-.67-3.236zm-222.993.127q-.597 1.433-1.092 2.904c1.561 1.497 3.194 2.842 4.9 4.171l.219.101c.343-.38.422-1.672.403-2.221-.013-.38-.105-.67-.257-1.015-.873-.72-1.796-1.422-2.602-2.217-.536-.529-.978-1.294-1.571-1.724m32.39.936c-.107 3.667 4.02 9.864 5.912 13.057 3.122 5.268 6.216 10.83 10.435 15.319 2.258 2.402 3.796 2.18 6.895 2.258 2.623.067 5.239.014 7.86.043q7.804.123 15.607.057c1.784-.023 3.562-.165 5.345-.2 3.586-.07 7.204-.04 10.79-.022 1.008.005 2.015.212 3.032.22l37.323.164 24.062.125c3.757.013 7.66.298 11.399-.038 3.318-3.147 6.316-6.542 8.824-10.379q1.462-1.978 2.812-4.034t2.584-4.185 2.346-4.321 2.104-4.446c.503-1.173 1.081-2.363 1.415-3.598q-12.203-.113-24.406-.056l-34.91.021zm170.683 1.053c-1.608 2.109-4.636 6.45-5.494 8.876-1 2.827-1.202 11.823-.77 14.858.028.195-.006.106.157.275a2.7 2.7 0 0 0 .742-.23c.506-.148 1.012-.313 1.525-.435.052-2.466-.267-4.907-.246-7.362.017-1.99.661-6.402 1.476-8.18.542-1.183 1.401-2.315 2.34-3.211.452-.433.942-.834 1.425-1.234-.148-.585-.51-3.054-.992-3.299-.052-.026-.109-.039-.163-.058m-187.7 2.98c-.652 1.279-.857 3.15-1.176 4.572.929.362 1.856.721 2.8 1.038l.259.018c.523-.755.474-2.849.58-3.812-.643-.781-1.465-1.538-2.463-1.816m-6.254 2.314c-.27.903-.458 1.795-.62 2.723 1.16 1.058 2.744 1.653 3.709 2.888l.053.064c4.302.947 6.54 2.56 10.196 4.74l.231.013c.255-.822-.361-2.578-.511-3.46-1.382-.606-2.733-1.279-4.117-1.877-1.628-.705-3.377-1.337-4.92-2.218-1.398-.799-2.617-2.01-4.021-2.873m209.035 2.511c-.718.332-1.438.656-2.138 1.023.995 6.319 2.915 12.94-1.212 18.637-.838 1.157-1.896 1.969-3.15 2.636-.03.632-.3 2.536.011 3.019l.278-.08c3.553-1.75 5.882-4.97 7.15-8.679 1.775-5.188.97-7.76.013-12.767-.203-1.064-.275-2.602-.756-3.537-.074-.143-.097-.154-.196-.252m-204.37 4.69c-.068 1.707-.256 3.404-.414 5.104-.101 1.096-.127 2.24-.336 3.32-.427 2.206-1.41 4.472-1.496 6.72-.026.687.045 1.444.547 1.958.564.577 1.44.83 2.177 1.114l2.19-17.155c-.881-.364-1.762-.763-2.667-1.062m194.987 1.202c-.66.276-1.296.524-1.989.71.208 2.137.49 4.26.524 6.41-1.015 1.036-2.506 1.559-3.813 2.129-2.255.984-4.547 1.893-6.954 2.437-5.544 1.255-11.408 1.348-16.305 4.571-.933.614-1.874 1.342-2.511 2.275-1.069 1.562-1.084 3.821-1.555 5.615-.46 1.757-1.56 5.129-1.507 6.825.005.162.018.188.055.324.224.04.366.044.588-.004l1.89-.077.05-.204c.98-4.035.546-10.503 4.421-12.929 3.704-2.318 10.078-2.824 14.46-3.681 1.368-.268 2.719-.651 4.059-1.04 3.518-1.02 6.424-3.304 9.89-4.436-.065-1.445-.738-8.203-1.303-8.925m-181.122 1.188.02 3.694c2.236 2.018 3.857 4.04 4.918 6.903.912 2.46.808 5.213 1.225 7.779.397 2.433.876 4.853 1.276 7.286.382 2.32.678 4.685 1.18 6.981.422 1.936.986 3.882 1.515 5.793.761 2.748 1.44 6.024 2.598 8.606.556 1.24 1.387 2.4 2.226 3.461 3.376 4.27 7.65 6.094 12.983 6.575-.613-1.075-1.266-2.143-1.785-3.267-4.035-.284-7.188-2.272-9.79-5.312-1.449-1.692-1.812-4.45-2.473-6.536-1.219-3.843-2.537-7.602-3.197-11.601-.556-3.375-.867-6.773-1.34-10.156-.239-1.71-.578-3.408-.86-5.112-.326-1.962-.478-3.973-1.203-5.844-.325-.837-.828-1.639-1.278-2.415-1.639-2.826-3.362-4.916-6.015-6.835m167.808.032c-3.315 2.087-6.826 4.787-7.75 8.815-.155.673-.339 1.538-.27 2.224.839-.184 1.706-.334 2.527-.582.375-2.56 1.019-3.938 3.117-5.508.782-.585 1.644-1.077 2.484-1.573-.026-.969.185-2.503-.108-3.376m20.32 1.501c-1.66.81-3.242 1.607-4.736 2.704.066.48.126 1.856.446 2.133 1.593-.778 3.16-1.76 4.817-2.383-.042-.633.03-2-.433-2.431zM18.24 183.344c2.004 5.261 2.13 9.406 6.649 13.422 1.03.916 2.153 1.796 3.42 2.358 3.155 1.398 6.782 1.777 10.01 3.06.034-.68.244-1.77-.22-2.313-.589-.688-1.602-.881-2.43-1.123-2.112-.615-4.56-1.162-6.53-2.113-2.932-1.415-5.385-4.712-6.512-7.701-.4-1.064-.608-2.173-.932-3.258-.951-.955-2.301-1.651-3.455-2.332m15.216 2.307c-.207 1.019-.381 2.059-.64 3.065 1.569 1.28 3.43 2.77 5.285 3.59 2.616 1.154 7.215 1.48 10.251 2.458l.202.07c.227-.724-.015-1.857-.126-2.612-3.293-.813-8.425-1.695-11.195-3.515-1.354-.889-2.396-2.212-3.777-3.056m192.904 3.624c-.673.174-1.783.34-2.158 1.007-.494.877-.151 2.794-.114 3.801.041 1.115-.337 2.174-.356 3.285-.034 2.024.08 4.05-.458 6.028-.935 3.43-4.848 5.8-8.01 6.864-1.51.508-3.09.75-4.63 1.142-2.149.546-4.271 1.481-6.521 1.402-.24 1.04-.508 2.08-.688 3.131l.108.136.04.003.161-.052c.771-.243 1.56-.322 2.33-.548 1.221-.36 2.396-.905 3.64-1.173 1.358-.292 2.746-.431 4.1-.746 4.837-1.124 8.918-3.496 11.299-8.014 2.15-4.079 1.793-8.242 1.558-12.679-.06-1.126.044-2.377-.182-3.478zm-172.856 3.711c.043.996.114 1.98.296 2.961 2.058.551 4.038 2.171 5.124 4.006 1.418 2.395 1.814 5.52 2.688 8.16.791 2.394 1.748 4.72 2.586 7.096.694 1.968 1.27 3.993 2.02 5.938.586 1.515 1.304 2.977 1.896 4.489 1.523 3.894 3.505 10.088 6.12 13.202 2.363 2.814 5.315 4.39 8.827 5.32 2.39.632 4.684.502 7.1.101 1.9.734 3.484 1.88 5.226 2.91 4.228 2.498 8.6 2.406 13.206.974l.323-.133c-.07-.428-.664-.788-1.013-1.037-.669-.48-1.334-.886-2.106-1.178-2.8.966-5.28 1.162-8.02-.154-1.12-.537-2.122-1.244-3.047-2.067-2.547.263-3.65-.25-5.628-1.76-4.253-.179-7.04-.012-10.621-2.638-.753-.552-1.55-1.132-2.19-1.817-2.196-2.352-4.798-9.98-6.061-13.191-1.013-2.578-2.115-5.107-3.037-7.722-.602-1.707-1.06-3.46-1.658-5.168-.639-1.827-1.374-3.618-2.01-5.446-1.106-3.177-1.218-5.785-3.36-8.618-1.53-2.022-4.281-3.498-6.661-4.228m162.117.787-2.175.676c.028 1.574-.251 3.293-.097 4.834h.188c.78-.234 1.551-.466 2.352-.623.012-1.038.388-4.122-.268-4.887m-175.941.315c-.654 4.793-.314 11.71 1.44 16.269.95.075 1.898.146 2.843.282.023-1.546-1.392-4.757-1.726-6.717-.535-3.143-.251-6.315-.215-9.48-.776-.15-1.55-.328-2.342-.354m166.06 1.827c-.808.18-1.646.42-2.466.514-.188 1.306-.502 2.778-.403 4.093l.132.149c.816-.103 1.636-.192 2.445-.34.125-.75.605-3.899.292-4.416m16.428 1.434c-2.43 1.21-4.879 1.958-7.442 2.784-.923.297-1.836.723-2.792.89a48 48 0 0 1-5.06.6c-3.58.245-7.809.02-10.987 1.9-.194.712-.433 1.421-.45 2.162l.136.168.209.014c1.407-.408 2.8-.82 4.253-1.037 2.279-.342 4.58-.332 6.867-.565 2.888-.293 5.26-.942 8.047-1.618 1.05-.255 2.161-.38 3.182-.736 1.468-.513 2.91-1.284 4.262-2.05.038-.802.114-1.61.013-2.409zm-129.82 1.554c-.34.073-.678.053-.886.341.369.585 1.788 1.017 2.423 1.31 4.604 2.124 9.18 3.963 14.145 5.094 2.496.568 5.331 1.387 7.81 1.76 1.743.262 3.563.313 5.322.438 14.204 1.016 28.306-1.563 41.04-8.007.444-.236.895-.463 1.329-.72-.81-.075-1.508-.155-2.306.048-2.195.558-4.67 1.956-6.82 2.81-2.728 1.084-5.61 1.835-8.45 2.57-6.12 1.584-12.696 2.6-19.031 2.552-6.473-.048-13.426-1.155-19.66-2.905q-4.647-1.32-9.108-3.172c-1.618-.669-3.219-1.473-4.857-2.077-.32-.118-.623-.086-.952-.042m77.856.415-1.194.085c-2.39 1.805-5.042 3.189-7.745 4.463-13.585 6.401-30.606 8.764-45.457 6.677-7.989-1.123-15.77-3.757-23.092-7.086q-2.22-.993-4.377-2.117c-1.111-.568-2.244-1.357-3.455-1.664-1.19-.302-8.357-.328-9.887-.289a56 56 0 0 0 10.686 8.059c8.84 5.479 19.511 8.548 29.841 9.332 4.038.306 8.094.224 12.14.227 9.36.005 16.354-.312 25.579-2.476 10.765-2.526 21.698-7.663 29.815-15.29-2.154-.047-4.283.117-6.434.134-2.144.017-4.271-.136-6.42-.055m-127.355.61c.047.982.239 1.9.5 2.847 2.196 1.238 4.636 2.885 7.057 3.56-.078-1.015-.216-2.016-.363-3.024-2.336-1.187-4.666-2.664-7.194-3.383m-14.286.405c.809 4.242 4.166 8.897 7.716 11.308 5.749 3.906 10.332 1.533 16.153 4.267-.34-1.21-.638-2.455-1.043-3.645-1.69.112-3.415-.389-5.088-.601-1.155-.147-2.333-.035-3.493-.099-2.552-.141-4.709-1.756-6.567-3.378-2.018-1.76-3.53-4.46-4.645-6.87a27 27 0 0 1-3.033-.982m122.308.537-.085.309c.284.051.512-.138.766-.265l.141.109c-.172-.142-.226-.2-.45-.2-.091 0-.278.032-.373.047m-37.287.08.374.384q-.063.378-.139.754c.051-.027.116-.042.147-.091.249-.237.513-.38.562-.728-.271-.232-.605-.255-.944-.32m-1.615.108-.29.588.083.154c.228.032.464.049.684.114.179-.175.218-.231.313-.448-.087-.213-.115-.336-.371-.393-.098-.022-.315-.016-.42-.015M58.21 202.07c-1.145.018-2.294.027-3.437.083.098.77.063 1.739.77 2.226.385.264.89.324 1.306.585.908.285 1.857.28 2.778.511-.241-.914-.465-2.692-1.053-3.409-.091 0-.279-.019-.364.004m5.503.475a21 21 0 0 0 1.346 3.7c3.38.821 6.317 4.427 8.052 7.257 1.182 1.929 2.174 4.01 3.075 6.084.451 1.037.832 2.154 1.367 3.149 1.063 1.975 2.803 3.4 3.976 5.25.652 1.028 1.16 2.187 1.73 3.264.793 1.5 1.647 2.968 2.474 4.448 1.768 3.166 3.358 5.586 6.814 7.036 2.276-.371 5.415-1.477 7.407-2.67l.413-.236c.028-.343-.05-.496-.272-.764-.352-.425-.847-.83-1.276-1.179-2.105.877-4.218 1.622-6.489 1.934-3.13-2.278-4.53-5.949-6.383-9.204-1.875-3.295-4.454-6.073-6.34-9.328-.995-1.719-1.513-3.628-2.363-5.41-2.001-4.199-5.24-8.625-9.192-11.206-1.354-.884-2.846-1.516-4.339-2.125m127.617.46c-3.77 1.086-5.312 1.67-8.093 4.513-.797.815-1.612 1.654-2.159 2.666-.574 1.063-.958 2.287-1.416 3.407-.771 1.888-1.572 3.746-2.305 5.651-.285.74-1.04 1.603-1.1 2.357l.14.231.757.074c.447.066.865.148 1.3.272.67-1.224 1.379-2.448 1.913-3.737 2.185-5.278 3.467-10.543 9.633-12.337q.361-.105.725-.203c.19-.579.972-2.42.773-2.891zm24.636.382c-.951.327-1.906.699-2.877.961-.016.71-.032 1.419-.157 2.12-.133.743-.835 2.739-.766 3.305 1.04-.275 2.076-.544 3.134-.75.345-1.097.95-4.594.666-5.636m-13.521 2.298c-.173.03-.46.012-.558.172-.633 1.032-.718 3.806-.967 5.088-.756 3.883-1.753 7.763-2.85 11.562.617-.072 1.214-.138 1.836-.124.35-.01.523.036.81-.174 1.156-2.716 1.432-5.867 2.026-8.75.544-2.64 1.27-5.124 1.537-7.825zm-135.35 6.785c.299.958.571 1.938.978 2.857 1.851.476 3.396.859 5.323.89-.734-1.137-1.47-2.247-2.3-3.316-1.288.198-2.757-.092-4.001-.431m-10.745.091c.085.886.407 2.65 1.085 3.26.749.029 1.47.004 2.166.304 1.416.608 3.008 1.01 4.354 1.745-.126-1.236-.95-2.659-1.468-3.798-2.12-.31-4.058-1.053-6.137-1.511m131.002.121q-1.758.061-3.518.08c-.31.824-.59 1.684-1.013 2.457 1.793.016 3.635-.202 5.417-.082 2.413.162 4.724.774 7.105 1.11 1.092.003 2.184-.042 3.252-.287.196-1.014.363-2.043.613-3.045-.769.248-1.597.565-2.399.672-2.915.387-6.335-1.045-9.458-.905m-110.422.169c.698 1.03 1.263 2.133 1.844 3.231 5.122.844 9.396 3.88 12.393 8.07 1.516 2.12 2.41 4.575 3.857 6.72.905 1.34 1.986 2.527 2.968 3.807 2.381 3.102 5.203 6.643 8.018 9.352 1.34 1.29 2.84 2.374 4.357 3.442 3.226 2.273 6.347 4.277 10.312 4.932 1.633.27 4.334.523 5.734-.507.154-.113.245-.25.34-.413.195-2.091-1.458-6.96-1.607-9.618-.088-1.552-.193-3.265.043-4.802.341-2.218.942-3.497 1.107-5.992.1-1.533.66-4.514-.327-5.777-1.297-1.66-5.66-1.946-7.675-2.097-1.834-.137-3.673.128-5.491.346-1.428.287-2.796.795-4.153 1.315a48 48 0 0 1 2.198 2.371c2.802-1.862 6.273-1.867 9.478-1.208 1.19.245 2.998.828 3.696 1.897.68 1.043.18 2.782-.092 3.901-.53 2.175-1.275 4.155-1.314 6.423q-.05 3.311.4 6.592c.187 1.315.519 2.658.62 3.977.028.366.028.688-.14 1.023-.91.511-2.01.196-2.958-.071-1.842-.52-3.974-1.164-5.563-2.23-.851-.572-1.59-1.302-2.456-1.85-1.31-.827-2.686-1.458-3.866-2.486-1.717-1.494-3.14-3.412-4.602-5.15-3.632-4.315-5.915-6.854-8.668-11.865-.732-1.332-1.35-2.73-2.266-3.95-2.543-3.384-7.713-7.263-11.806-8.46-1.438-.422-2.91-.657-4.38-.923m100.495.305c-3.937.754-6.318 1.819-9.566 4.109-.949.669-1.95 1.359-2.76 2.19l2.121.517 1.299.387c2.327-3.037 5.406-3.862 8.986-4.653a21 21 0 0 1 1.23-2.641zm36.58 1.374-3.21.65c-.555 2.83-2.192 4.862-4.564 6.445-3.555 2.374-6.568 1.706-10.52 1.9-2.065.101-4.054.454-6.144.469-.165.561-.833 2.084-.719 2.574l.12.004c2.048-.154 4.139-.398 6.193-.409 1.759-.009 3.503.174 5.265.065 4.199-.258 7.934-2.595 10.653-5.73 1.47-1.694 2.402-3.732 3.173-5.82l-.09-.144zm-171.656.85c1.343 4.52 3.367 7.713 7.57 10.018 1.722.945 3.873 1.664 5.841 1.78-.29-.93-.598-1.858-.86-2.796-3.17-.35-6.11-2.367-8.057-4.81-1.015-1.273-1.829-2.667-2.584-4.107-.636-.029-1.273-.066-1.91-.085m145.75.859c-.137 1.071-.31 2.094-.625 3.13-.694 2.288-1.736 4.51-2.676 6.706-1.494 3.493-2.897 7.093-4.995 10.278-.64.972-1.386 1.86-2.311 2.574-3.486 2.689-7.176 2.964-11.391 2.405a43 43 0 0 0-1.555 2.341c.971.25 1.934.418 2.925.565 4.1.413 8.599-.618 11.834-3.289 3.984-3.287 5.99-9.333 7.862-14.006 1.359-3.39 2.684-6.767 3.774-10.256a39 39 0 0 0-2.842-.448m-28.279 3.582c-7.21.328-12.12 5.038-16.742 10.081l-.2.22c.848.658 1.779 1.107 2.767 1.513 2.04-3.977 6.537-7.321 10.736-8.698 1.86-.61 3.868-.785 5.816-.66 1.524.232 2.906.993 4.388 1.396 2.33.635 4.712.983 7.088 1.395 3.544.613 5 1.203 8.767.971l.928.597c.373-1.044.721-2.109 1.138-3.136-1.51.024-3.057.11-4.564.005-3.442-.24-7.051-1.013-10.412-1.773-3.652-.825-5.813-2.215-9.71-1.91m-66.595.487c.684.993 1.596 1.797 2.243 2.822 2.752-.29 6.841 1.15 8.944 2.865 2.172 1.772 3.886 4.12 5.838 6.128 1.418 1.459 3.128 2.685 4.332 4.338.662.91 1.293 2.08 1.388 3.211.108 1.297-.269 2.351-1.133 3.314-.463.514-.991.984-1.496 1.457.66.716 1.354 1.599 2.28 1.967l.21-.049c1.624-1.564 3.064-3.164 3.12-5.56.061-2.626-1.354-4.67-3.119-6.459-1.223-1.24-2.552-2.392-3.719-3.684-3.927-4.347-5.777-7.5-11.652-9.426-1.83-.6-3.7-1.007-5.632-1.014a18 18 0 0 0-1.604.09m-6.713.952c-1.555.611-3.196.717-4.842.912a11 11 0 0 0 1.707 2.482l1.277-.14c1.643-.347 3.299-.368 4.951-.606-.633-.648-2.115-2.468-2.957-2.649-.044-.01-.09 0-.136 0m48.933 1.781c-2.093.33-5.255.458-6.66 2.282-.796 1.033-.879 2.368-.678 3.612.421 2.61 1.86 4.709 2.526 7.189.253.94.282 2.017.394 2.987.095.82.256 1.706.203 2.53-.221 3.441-1.848 6.683-1.906 10.151 2.014.198 4.134.378 6.147.115 3.877-.505 7.75-3.024 10.715-5.462 2.594-2.131 5.192-4.517 7.424-7.023 1.982-2.227 3.79-4.608 5.758-6.843-.849-.38-1.68-.72-2.587-.938-1.206 1.667-2.52 3.254-3.812 4.852-1.404 1.796-3.053 3.278-4.716 4.822-3.526 3.273-6.453 5.786-11.053 7.48-1.448.533-2.817.952-4.354 1.143q-.539.067-1.079.125l-.073.167c-.17.38-.29.685-.607.96-.29.058-.478.055-.729-.132-.13-.098-.202-.18-.311-.296.199-.45.813-.836 1.201-1.15 1.502-1.214 2.686-3.975 2.881-5.867a9 9 0 0 0-.001-1.781c-.105-1.11-.407-2.209-.577-3.311-.293-1.905-.368-4.064-.945-5.9-.388-1.233-1.24-2.339-1.337-3.652-.066-.895.231-1.788.917-2.386 1.637-1.426 6.42-1.293 8.564-1.076 1.373.139 2.673.516 4.011.833.901-.662 1.712-1.437 2.537-2.19-3.226-1.034-8.542-1.754-11.853-1.24m26.57.133c-.945 1.43-2.07 2.705-3.096 4.072.962.438 1.91.753 2.917 1.064.882-1.562 1.65-2.917 2.952-4.18-.953-.247-1.846-.721-2.772-.956m-90.768.173c.218.955.55 1.864.879 2.784 2.27-.056 4.447.123 6.691.446-.72-1.168-1.583-2.199-2.502-3.215q-2.534-.035-5.068-.015m-11.544.682c.136.733.31 1.425.538 2.136 1.598.582 3.18.592 4.841.821.904.125 1.777.38 2.65.635-.45-1.055-.983-2.127-1.343-3.214-2.22-.055-4.474-.442-6.686-.378m93.148 1.561a50 50 0 0 0-2.648 2.099c1.559.51 3.015 1.204 4.525 1.834 2.148.897 4.348 1.781 6.52 2.617 2.014.773 4.142 1.012 6.208 1.577 3.618.991 7.017 2.404 10.786 2.825.703-1.107 1.457-2.184 2.155-3.293-3.916 1.22-7.686-.613-11.417-1.625-1.786-.485-3.627-.761-5.407-1.26-1.875-.524-3.634-1.402-5.426-2.148-1.183-.493-2.425-.904-3.556-1.51a14 14 0 0 1-1.74-1.116m20.393.644c-1.374 1.288-2.57 2.835-3.697 4.341 1.032.097 1.974.444 2.942.796.1-.026.21-.028.301-.077.422-.23 2.571-3.91 3.197-4.663-.91-.173-1.816-.35-2.743-.397m-70.16.528c-1.375.96-3.39 1.2-5.01 1.418.43.884 1.028 2.21 1.985 2.594.188-.085.347-.167.523-.277 1.422-.893 3.421-1.325 5.024-1.843-.492-.463-1.823-1.876-2.522-1.892m31.679.322c-.662.393-1.591.805-1.884 1.559.134.52.465.709.915.972 2.534 1.483 5.237 2.653 7.852 3.97 2.652 1.337 5.638 2.977 8.077 4.647.196.135.117.093.376.125.675-.803 1.398-1.594 1.995-2.455-3.665-1.23-5.65-2.548-8.984-4.22-1.232-.618-2.54-1.082-3.764-1.706-1.268-.647-3.281-2.659-4.583-2.892m-15.241.104c-1.45 1.868-3.428 2.798-5.11 4.388.625.289 2.122 1.733 2.396 1.774l.153-.1c1.66-1.745 3.429-3.316 5.226-4.917-.843-.42-1.75-.91-2.665-1.145m75.996.05c-1.126 2.79-3.177 4.603-5.942 5.77-1.342.565-2.781.897-4.192 1.24-.423.838-.83 1.69-1.336 2.483 1.148-.08 2.291-.142 3.424-.356 4.503-.975 7.876-3.448 10.367-7.282.377-.58.782-1.18 1.09-1.8-1.153.086-2.262.024-3.41-.055m-102.803 2.42c-1.682.476-3.5.961-5.23 1.218.282.718.713 2.046 1.454 2.364.17.073.412-.01.59-.036 1.709-.277 3.606-.073 5.339-.058-.525-.715-1.828-3.181-2.153-3.489M82 231.621c-2.243.89-4.264 1.46-6.658 1.719.353 1.009.654 2.013 1.335 2.857l.227.106c2.207-.877 4.463-1.601 6.68-2.443-.39-.615-.982-1.89-1.584-2.24m28.362 2.377c-1.934.779-4.065 1.428-5.91 2.378.517.687 1.175 1.828 1.88 2.309.173-.023.287-.034.446-.11 2.433-.984 3.49-1.833 6.196-2.163-.81-.81-1.643-1.8-2.612-2.414m29.536-.008c-1.702 2.427-3.32 5.028-2.72 8.13.244 1.257 1.014 2.164 2.072 2.849.575.372 1.214.656 1.846.917.291-.196.599-.38.856-.62l1.082-.812c-1.244-.724-2.196-1.345-2.595-2.828-.394-1.462-.267-3.233.522-4.536.493-.813 1.114-1.322 1.863-1.874-.975-.389-1.938-.886-2.925-1.226m26.832.666c-.181.39-.377.761-.634 1.107-.922 1.246-2.043 2.342-2.999 3.564-1.271 1.625-2.309 3.615-3.823 5.01-.926.852-2.058 1.465-3.235 1.893-2.745.999-5.055.793-7.824.029l-2.738 2.121 2.37.607c3.871.933 8.525.543 11.982-1.559q.676-.409 1.272-.926.597-.517 1.097-1.127c1.046-1.268 1.622-2.803 2.56-4.132 1.418-2.012 3.107-3.719 4.372-5.86zm-10.198 2.836c-.699.862-1.326 1.77-1.96 2.68 1.786.444 3.422 1.444 5.2 1.785a25 25 0 0 1 1.797-2.22c-1.992-.339-3.443-1.008-5.037-2.245"/><path d="M55.416 123.22c.275.145.552.288.84.41.706.297 1.018.131 1.697-.166.241-.106.447-.204.71-.252.62-.11 3.987-.409 4.572-.349.417.043.855.222 1.205.452l-.075.116a2 2 0 0 1-.536-.012l-.21-.033c-.09.094-.178.196-.288.27a.6.6 0 0 1-.156.074c-.471.141-.985-.23-1.424-.18-.594.069-1.24.74-1.881.558a1.7 1.7 0 0 1-.161-.425l-.034-.156c-.166.165-.357.488-.534.61-.697.48-1.511.019-2.283.69-.211.184-.226.216-.51.295a5 5 0 0 1-.335-.423l-.088-.13a3 3 0 0 1-.299.591c-.368.179-.682.136-1.078.114l-.178-.011-.05.107q.51.467 1.026.929c.177-.125.109-.07.275-.214.294-.252 3.45.205 4.107.213a1.6 1.6 0 0 1 .045-.537c.471-.04.822.366 1.291.494.145-.139.27-.243.436-.361 1.199.57 1.789.235 3.034.206.963-.023 3.764-.129 4.39.476-.105.274-.142.244-.378.392l-.351-.118c-.477.13-.944.153-1.435.194-.957.08-1.909-.01-2.867-.031-.217.147-.437.33-.702.37-.19.028-.477-.232-.638-.336-.836.256-.382.51-.808 1.005-.261-.13-.357-.412-.505-.66a1 1 0 0 0-.413-.152c-.671-.09-3.148-.013-3.62.372-.004.417.252.645.484.984-.177.145-.087.124-.248.127-.165-.228-.4-.64-.639-.786-.495-.301-2.247-.034-2.767.152-.326.117-.475.307-.625.613-.029.824 1.071 1.622 1.005 2.07-.068.459-.503.835-.339 1.292.477.25.93.027 1.428.053.716.036 1.185 1.147 1.585 1.641.613.76 1.663.159 2.489.314.642.12 1.289.6 1.934.63.409.018.624-.083.906-.36.021-.02.174-.178.206-.197.215-.13.354-.068.579-.02.65.9 1.375.351 2.313.573.28.066.555.123.839.173-.216.303-.374.532-.704.724-.203-.027-.426-.067-.63-.054-.263.016-.417.084-.572.295.162.223.238.305.284.584-.065.028-.126.067-.194.085-.414.106-.306-.636-.58-.877-.245-.216-1.028.082-1.352.04-.327-.043-.778-.359-1.073-.527-.144.092-.303.206-.458.28-.439.211-.614.127-1.067-.023-.253-.083-.248-.044-.49.037-.142.266-.233.43-.151.75.083.325.235.397.502.54.483-.098.984-.103 1.475-.13l.883.524c.397-.303.903-.861 1.444-.729.293.072.393.188.535.423-.361 1.05-1.813 1.05-2.323 1.957-.13.231-.152.254-.072.512.36.128.71.237.995.502q.088.084.175.17l.157-.006c.117-.282.166-.45.4-.66l.198.082.188.546.203.07.235-.131c.017-.262.045-.5.107-.755l.222-.074c.52.197 1.08.95 1.595 1.305l.113.076c.037.129.084.269.084.405.01 1.376-2.494 1.464-3.059 2.165-.299.371-.24.964-.695 1.283-.337.236-.779-.115-1.122.207.007.053.008.107.02.159.116.547.402.882.866 1.165.803.095.445-.474.928-.786.311.055.79.18 1.087.038.723-.345 1.504-1.656 2.316-1.697.16.13.302.249.491.337.297.137.773-.673 1.091-.796.46-.179 1.07.104 1.534-.097.204-.089.273-.413.321-.604l.048-.204c.158-.149.262-.217.48-.25.859-.134 1.984-.936 2.753-.806l.06.215c-.47.588-1.481.856-2.087 1.354l-.129.109c-.438.363-1.116 1.325-1.564 1.534-.295-.073-.506-.105-.809-.075-.811.518-3.47 1.834-3.688 2.68.087.106.172.221.287.301.937.655 3.612-.554 4.658-.782.839-.184 1.287-.055 2.008.393l.145.093c.114-.085.236-.172.364-.235.427-.209.965-.291 1.429-.384 3.088-.617 2.614 2.168 4.217 2.767.409-.166.46-.237.72-.57l.333-.002c.125.125.247.249.363.383.161.185.713.256.963.326l-.028.157c-.33.125-.442.03-.777-.026-.68-.116-.282.238-.62.486-.2-.209-.292-.261-.582-.315-.4-.073-.631-.051-.96.166-.026.237.322.43.428.71l-.2.19c-.541.166-.994.291-1.535.058q-.11-.048-.22-.1l-.03.126-.093-.196c-.014.006-.03.008-.04.018-.164.173-.291.359-.469.525-.624-.32-1.204-1.163-1.87-1.254-.388.18-.667.376-.971.68-.297.297-.493.56-.498.993.839 1.502 4.974.912 5.676 1.387.874.59 2.013-.279 3.031-.184.487.046.887.468 1.334.57.88.2 2.123-.624 3.191-.011.264.151.388.231.706.24.327-.402.452-.566.959-.676.54.207.899.8 1.34 1.177.7-.28-.124-.834.096-1.273q.117.081.239.156c1.326.799 2.843.963 4.337.585.897.398 1.678.537 2.638.68.311.377.226.574.245 1.05.32.24.523.227.914.28.13-.087.312-.225.465-.28.752-.266 2.285.6 3.053.766.431.093.787-.08 1.216.09l.015.176c-.143.007-.285.02-.427.028-1.322.083-2.571.66-3.87.719-1.72.078-3.527-.09-5.264-.065-3.537.05-7.095.254-10.629.212-4.264-.05-8.536-.07-12.799-.182a164 164 0 0 0-9.043-.01c-1.323.037-2.682.013-3.99.223-.52-1.75-1.254-3.425-1.749-5.201-1.351-4.848-2.502-10.066-2.87-15.1-.088-1.21.127-2.425.04-3.603-.027-.375-.261-.667-.29-1.043-.066-.888.076-1.869.083-2.768.009-1.162-.077-2.325-.068-3.487.148-19.228 9.11-38.642 22.644-52.106 1.51-1.501 3.052-3.028 4.703-4.375 2.964-2.418 6.338-4.606 9.626-6.563 1.028-.611 2.064-1.23 3.126-1.78.463-.24 1.101-.427 1.51-.724.309-.226.534-.57.826-.816.324-.274.69-.2 1.088-.178.364.02.276-.224.527-.398.127-.087.478-.158.63-.21 2.462-.824 4.717-2.302 7.198-3.169 2.829-.988 5.77-2.006 8.693-2.66 2.304-.514 4.562-.726 6.896-.991 4.48-.508 8.757-.968 13.278-.616.662.052 1.486.03 2.12.223l.174.057-.03-.102-.14.192c-1.858.031-3.719-.29-5.591-.25-1.927.041-3.716.476-5.676.397-1.141-.005-2.21.387-3.326.57-2.047.337-4.156.495-6.178.952-1.547.35-3.132.946-4.616 1.505-1.172.443-2.203 1.222-3.368 1.659-.516.193-1.049.198-1.569.346-1.111.317-2.825.993-3.72 1.738-.463.384-.679.73-.731 1.33-.04.452-.028.664-.361.987-.144-.023-.223-.028-.365-.092-.26-.117-.409-.323-.49-.582l.204-.172.42.122.172-.133c.096-.282.174-.337.075-.628-1.05.124-.772.88-1.466 1.183-.787.343-1.224.576-2.047.261-1.049.063-7.284 3.666-8.375 4.456-.698.504-1.128 1.288-1.854 1.77-1.324.03-3.538 2.076-4.455 3.032-.438.457-1.015 1.297-1.541 1.585-.137.075-.268.14-.401.225.146.212.724.33.987.418.846-.263 6.156-.894 7.197-.915 1.482-.03 3.04.174 4.524.265.692.042 1.278.323 1.885.642.486.254 1.106.555 1.279 1.101-.209.238-.235.196-.528.26-.123-.09-.423-.358-.558-.385-.134-.027-.502.063-.647.079-.94.102-1.39-.191-2.192-.67-.353.106-.718.223-1.08.29-1.048.196-2.334-.272-3.452-.196-2.098.142-5.198.993-7.124.953-.357-.008-1.063-.565-1.375-.763a17.6 17.6 0 0 0-4.255 4.096c.409-.257.86-.572 1.316-.737 2.394-.864 6.808-.417 9.483-.47.609-.011 1.421.1 2-.016.33-.066.478-.43.652-.686.803-.45 3.476-.427 4.414-.27 1.004.168 2.281.672 3.275.624.494-.023.977-.562 1.445-.546.309.012.654.27.805.516-.877.516-2.739.063-3.78.17-.6.061-1.111.449-1.717.391-.709-.067-1.359-.739-2.079-.554l.12.49-.194.172c-.389.12-.652.009-1.024-.107l-.159-.051c-1.13.414-3.571 1.178-4.707.81a6 6 0 0 0-.737-.188c-.401.213-.55.628-.773 1.016-.288-.206-.634-.472-.979-.567-1.552-.428-5.903 1.172-7.543.936-.056-.008-.287-.046-.316-.04-.575.108-2.533 2.273-2.917 2.836-.368.541-.673 1.142-.983 1.72.26.447.587.835.794 1.312-.037.295-.11.429-.29.656-.174.22-.297.406-.42.658.053.177.108.348.174.52l.064.16c-.164.228-.174.188-.427.264a8 8 0 0 1-.883-.476c-.328-.01-.373-.001-.658.161-.089.463-.169 1.076-.567 1.372l-.266-.076.133-.197-.115.108c.126-.374.276-.715.23-1.116l-.343.096.097-.067c-.347.42-.162.865-.463 1.302-.428.233-.727.428-.998.84-1.597 2.425-3.08 5.16-4.274 7.806 1.071.409 2.197.64 3.273 1.054l.124-.04c1.46-.501 2.028.86 3.407.693.13-.319-.091-.633-.11-.982 1.634.643 1.598 1.346 3.66 1.58-.825.263-1.632.573-2.442.88-.288-.109-.501-.181-.815-.166-1.063.049-2.13.07-3.106-.419-1.85.514-3.622 1.046-5.562.806-1.455 3.546-2.5 7.187-3.54 10.871-.185.655-.136 1.806-.55 2.328-.046.06-.097.114-.146.172l.027.234c1.506.586 8.352-.025 10.526-.041.665-.005 1.311.178 1.977.18.986.002 1.876-.4 2.9-.148.303.074.523.149.674.431-.463.433-1.076.026-1.49.388l.155.233-.08.15c-.706.301-1.327.177-2.031.36-.72.185-1.188.145-1.914.026-.114.126-.233.267-.364.376-.666.556-2.317.151-3.182.208-1.754.114-4.61 1.238-6.287.968-.185-.03-.373-.067-.558-.1-.32-.06-.3-.024-.58.1-.429.507-.403 1.736-.474 2.404l.662.815c.161-.008.31-.025.47-.052l.168-.03c.14.2.093.206.065.437-.252.23-.286.235-.626.287a2 2 0 0 0-.51-.19c-.349.56-.341 1.447-.41 2.1-.067.64-.193 1.055.235 1.584.438.203.817.097 1.28.024m4.72 21.558.114.097.144.13-.144-.13zm8.681-61.499.085.322.211.007-.073-.27zm-.955.409h.163zm-11.17 40.806.12.069zm-2.982 6.375.059.038zm.134 2.487c.022.744-.098 2.387.5 2.91.517.452 1.928.381 2.59.366l.224-.335c.284.099.324.114.456.405.038.083.069.2.095.29l.131-.125c.34-.134.675-.22.895-.53-.035-.273.03-.203-.159-.346-1.081-.821-3.3-.23-3.483-1.468-.067-.455-.002-.588-.265-.993-.348-.219-.593-.193-.984-.174m6.755 12.575-.05.146c-.194.531-.405.809-.824 1.182-.047.32-.05.314.151.582.153.204.33.389.504.575.211-.06.562-.218.77-.222 1.037-.019 1.053.801 2.033-.165q.074-.07.15-.137c.386-.336.986-.371 1.274-.772-.07-.291-.146-.382-.369-.58-1.313-.13-1.638.583-2.916-.26a3.3 3.3 0 0 0-.723-.35m-1.44 3.256h.152zm30.628 4.434.104.046zm60.433-99.09c-.118-.011-.181-.011-.302-.057-.446-.17-1.022-.601-1.19-1.053l.161-.06c.464.373.898.762 1.33 1.17m1.539 101.544c1.477-.459 3.082-.581 4.591-.987.09-.099.221-.27.336-.35.392-.273.733.084 1.131.129.52.06 1.039-.824 1.511-.826.453-.001.809.327 1.257.359.405.029.747-.382 1.161-.375 1.142.02 2.349.648 3.48.832.524.086 1.008-.298 1.531-.3.674-.002 1.381.264 2.055.33a2.2 2.2 0 0 0 1.643-.492c-.132-.706-4.536-.874-5.078-1.673.844-.062 1.879-.342 2.706-.215.254.04.504.105.763.113 1.204.035 6.203-.564 6.968-1.29-.246-.246-1.001-.152-1.376-.241-.271-.064-.277-.054-.424-.303l.175-.346c-.066-.067-.169-.167-.22-.242-.085-.123-.18-.263-.114-.41.872-1.933 3.826.1 4.872-.408-.014-.439-.54-.653-.822-1.01l.088-.154c.904.282 2.29-.407 3.293-.332.346.026.44.215.615.477.172.257.23.39.516.534.174.089.287.14.44.259q.015.379.016.758c.4.603 1.007-.039 1.748.316.062.354.017.436-.108.779l.071.119c.371-.06.72-.085 1.04-.302.027-.256.036-.189.012-.394q-.007-.059-.017-.116c.957-.374 1.618-.04 2.571.092.513.071.646.148 1.057-.17.227.113.444.235.663.363l.184-.095-.073-.48.191-.056.394.257c.035.141.106.23.184.35l.006-.144-.19-.206c.085-.314.293-.498.516-.72l.093-.091-.017-.186c-.428-.27-.852.019-1.273-.193-.427-.215-.362-.449-.914-.506l-.107.104c.136.232.233.36.202.635-.474.363-1.403.23-1.968.171l-.068-.18c.234-.21.487-.186.792-.23l.143-.205c-.417-1.656-2.646-1.507-3.04-2.301.874-.03 2.412-.18 3.118.404.26.215.644.4.978.458.322.056.374.026.601-.165-.102-.305-.107-.249-.363-.404-.21.043-.396.088-.613.07-.186-.015-.216-.124-.332-.258l.056-.245c.52-.397 1.482-.463 2.123-.611-.383-.265-.74-.668-1.225-.684-.281.12-.487.207-.796.235l-.176-.202c.004-.341 0-.391.184-.674.96.208 3.665.948 4.492.695.042-.183.084-.363.138-.543.189-.637.76-.828 1.303-1.116-.33-.18-.797-.378-1.026-.673-.116-.15-.061-.249-.044-.423.116-.018.331-.046.436-.087.265-.102.317-.22.417-.457-.924-.68-1.608.224-2.555.082-.05-.067-.103-.132-.149-.203-.671-1.028-2.005-.493-2.669-1.272a6 6 0 0 0-.018-.443c-.076-.378-1.308.2-1.913-.137-.062-.035-.114-.088-.18-.11-.321-.102-.72.239-.998.394-.351-.072-.52-.319-.752-.57l-.114-.125c-.484-.06-1.132-.07-1.495-.401l.105-.139c1.008-.35 1.586.141 2.554.152 1.975.022 3.978-.22 5.949-.022.608.06 1.467.546 1.984.487-.269-.267-.538-.477-.619-.864l.174-.2c.6-.1 1 .057 1.5.37.114.216.225.417.369.614 1.205-.761 2.478.418 3.484-.216-.012-.28-.024-.395.083-.66.416-.073.656.274 1.123.225.202-.242.154-.11.18-.38q-.22.018-.442.029c.095-1.252-.864-.816-1.353-1.64l.145-.277c.444-.22.9.036 1.376-.063-.25-.727-2.222-.488-2.73-1.142.67-.523 2.559-.726 3.398-.627l.206.026c.406-.174.662-.36.874-.76a2.06 2.06 0 0 0 .128-1.507c-1.137-1.105-3.939-3.092-5.51-3.322-.344-.05-.816.349-1.095.534-1.35-1.064-1.035-.096-2.093-.476-.73-.262-1.47-.856-2.226-.996-.484-.09-.53.363-.934.369-.618.008-1.208-.315-1.873-.322-.397-.004-.728-.187-.994-.471l.106-.236c.539-.238 3.263-.015 4.043.053.145-.138.283-.255.448-.367 1.488.654.94.026 1.61.038.276.005.707.324 1.018.371.536.082 1.085-.296 1.625-.262.201.013.312.237.438.38l.282-.037c.107-.172.178-.312.355-.422.168-.105.518.068.707.123.478-.218.937-.332 1.45-.438.445.257.864.522 1.361.666.609-.413 1.138-.943 1.68-1.438l-.023-.231.108-.056.075.1.041-.117a6 6 0 0 0-.346.2c-.175.111-.256.08-.46.081-.494-.261-.775-.897-1.068-1.36l.188-.08c.387.073.751.187 1.136.053.178-.177.323-.272.309-.55s-.209-.423-.43-.556c-.663-.4-1.705.008-2.366.236-.469-.257-.916-.725-1.418-.883-.138-.043-.102-.042-.203.011-.005.174-.002.286-.066.451a1.2 1.2 0 0 1-.44-.246c-.174-.143-.267-.166-.49-.194-.519-.064-1.054.076-1.577.032-.526-.044-.994-.281-1.531-.304-.203.289-.38.583-.553.89l-.211.025-.308-.379c-.441-.037-.732.368-1.199.413-.08-.072-.245-.225-.336-.275-.413-.229-.971.191-1.396.237-.493.053-.654-.156-.987-.455l-.203.013c.032.289.049.154-.033.405-.348.11-.694.21-1.007.405l-.193.125c-.677 0-1.183-.378-1.83-.523-.85-.19-3.17-.494-3.903-.043a.74.74 0 0 1-.404.115c-.14-.121-.314-.304-.486-.375-.499-.207-2.689.177-3.43.146-.615-.026-1.093-.055-1.531-.534l.061-.168c3.047-.874 6.2-.474 9.287-.813.694-.076 1.259-.532 1.928-.623.33-.044.784.152 1.133.193.359-.267.741-.588 1.166-.736.93-.322 4.106.31 4.95-.337.435-.333 2.65.01 3.332.035.577.022 1.332-.027 1.77-.443.03-.216.041-.412.028-.63l-.015-.228c.344-.258.776-.077 1.207-.175.026-.275.031-.159-.011-.446q-.015-.104-.034-.207c.222-.3.357-.534.44-.902.06-.268.117-.462.255-.705l.383-.033.094-.129c-.172-.51-.196-.867-.252-1.383-.119-1.099-1.485-1.176-2.2-1.794-.686-.593-1.574-1.279-2.468-1.485a1.3 1.3 0 0 1-.485-.183l.04-.23c.614-.444 1.64-.395 2.372-.693.241-.098.478.047.724.125.292-.158.31-.265.467-.564-.173-.613-.535-1.23-.808-1.808l.06-.132c.266.024.351.044.603-.067-.107-.406-.395-.204-.657-.541.15-.171.247-.29.32-.508-.231-.37-.582-.717-1.004-.857l-.21-.065c-.122-.294-.136-.466-.112-.783q.099-.14.194-.283c.19-.293.25-.395.178-.727a2.3 2.3 0 0 0-.606-.027l-.231.021c-.154-.284.03-.847.09-1.178-2.167.53-2.465-.55-3.922-.152-.246.068-.097.066-.401-.031l-.022-.342c-.424.032-.844.098-1.265.16-.74-.303-2.492-1.118-3.23-.864-.235.08-.302.09-.543.053-.133-.119-.276-.26-.428-.35-.425-.252-1.24.204-1.716.239-.287.02-.444-.045-.654-.237l.3-.382c-.971-.428-2.935-.254-3.617-.803-.113-.359-.17-.38-.012-.714 1.352-.616 3.339.825 4.823.491q.114-.027.227-.059c1.699.925 5.314 1.394 7.272 1.453.378.011.65-.022.94-.29.05-.28.073-.451.26-.67.362-.128.636-.231.935-.484.046-.27.057-.273-.078-.51l-.577-.12-.096-.173.3-.467c-.004-.45-.374-.323-.623-.723.019-.21.07-.514.014-.718-.022-.08-1.206-1.782-1.3-1.867-.402-.358-.947-.613-1.389-.937a1.6 1.6 0 0 0-.133-.589c-.288.051-.371.105-.653-.001l-.053-.23.437-.245c-.081-.317-.128-.288-.373-.48-.24-.05-.398-.074-.642-.027-.342.067-.582.138-.931.067-.353-.072-.707-.159-1.044.016-.293.152.013.05-.372.148a8 8 0 0 0-.416-.574c-.723-.27-1.49-.228-2.252-.287l-.103-.245c-.261-.157-.327.216-.689.27a2.5 2.5 0 0 1-.427-.393q-.06-.072-.118-.145c-.263-.032-.399-.037-.655.057-.19.07-.379.155-.567.23-1.344-.76-1.682.069-2.582-.383-.744-.374-1.571-.213-2.323-.513l-.045-.16c.448-.146.875.22 1.296.093.66-.2 1.153.063 1.815.075 1.123.02 2.243-.094 3.368-.036 1.375.07 2.868.358 4.236.252.436-.034.639-.115.928-.439.101-.748.25-1.18.68-1.808-.406-4.148-4.557-9.28-7.405-12.165-1.96.236-3.36-.081-5.04-1.203-.551-.003-1.115.015-1.664-.022-.288-.02-.537-.01-.73-.239l.325-.27c-.089-.564-1.423-.666-1.844-1.032-.183-.16-.069-.097-.297-.173l-.531.405c-.515-.294-.75-.71-1.129-1.151-1.61-.691-2.742.362-4.255.469-.307.021-.193.062-.395-.115l.179-.2c.355-.067.699-.151 1.048-.245l-.02-.069c-.984.035-2.025-.436-2.951-.112a6 6 0 0 0-.213.446l-.057.142c-.148.08-.192.112-.371.157-.266.065-.658.048-.89-.1.176-.192.357-.288.347-.556-.918-.2-2.043.294-3 .163-.362-.05-.802-.142-1.015-.441.02-.036.034-.075.058-.108.47-.64 2.374-.973 3.138-1.184.496.236.963.542 1.434.826 3.889.111 7.803.022 11.69-.096l-.097-.103.245.068.035-.138c-.35-.595-1.103-.782-1.484-1.367-1.676-2.58-6.51-5.5-9.108-7.273-1.07-.732-2.078-1.574-3.181-2.255-.902-.557-1.91-.924-2.822-1.48-1.112-.677-2.207-1.51-3.382-2.067-.741-.351-1.557-.525-2.301-.867-.615-.283-1.134-.717-1.77-.974-.809-.328-1.593-.4-2.374-.852l.147-.08c1.732.252 3.043 1.247 4.605 1.92.702.301 1.553.002 2.248.288 2.241.923 4.177 2.287 6.547 3.196 1.173.45 2.213 1.767 3.315 2.44 2.885 1.763 5.864 3.59 8.517 5.7 2.049 1.63 3.936 3.648 5.748 5.54 1.926 2.014 3.964 4.075 5.73 6.223 3.661 4.454 6.857 9.934 9.21 15.198 2.652 5.93 5.252 14.432 6.258 20.835.338 2.149.465 4.33.603 6.499.712 11.189-.23 22.995-4.233 33.537-2.934.332-5.922.251-8.868.241l-11.353-.04q-8.956.026-17.912-.067c-2.243-.022-5.527.154-7.649-.113-.587-.073-1.125-.347-1.702-.455-.264-.049-.328.08-.542.225-1.433-.198-3.087-.338-4.535-.291-.574.018-1.132.181-1.7.25-.811.1-4.014.415-4.608-.049.246-.072.136-.058.38-.063 1.621-.04 3.146-.733 4.75-.778.52-.014.816-.093 1.296-.317l.154-.073.1.05q.085.039.168.081c1.067.57 2.446.361 3.635.724m26.768-81.585-.095.059c.362.209 1.044.044 1.48.135l-.018.25c.423.352 1.2.43 1.73.644-.063.093-.11.173-.195.25-.426.388-2.138.028-2.773.012.857.462 1.765.624 2.677.945.498.174 1.103.326 1.633.275.207-.02.256-.02.388-.185-.257-.863-1.223-.643-1.73-1.296a4 4 0 0 0-.046-.618c-.219-.274-.39-.462-.72-.601-.76-.32-1.596-.156-2.331.13m-15.502-1.052h.118zm2.728-.13-.11.317c.213.273.422.449.693.659.038-.315.07-.48-.084-.767a1 1 0 0 0-.5-.209m13.61-.006-.237.465.117.052.244-.138.232-.122a1.5 1.5 0 0 0-.356-.257m-3.567.726.023.096.06-.001-.035-.1zm17.914 21.19c.238.201.393.437.723.416.017 0 .032-.014.047-.022-.27-.29-.396-.292-.77-.394m6.05 18.136.119.037zm1.298.46h.13zm.378 4.078-.053.144.18-.042.044-.138zm.896 7.296h.17zm-1.982 11.177.087.041zm-8.485 3.741c-.531-.002-.997-.027-1.46.277.176.155.225.158.464.148.108-.005.329-.038.442-.055l.122.065c.3.161.533.293.764.55.107-.297.06-.463.016-.765-.136-.135-.15-.217-.348-.22m.617.079.012.566c.649.463 2.2.097 2.54.47.078.086.176.367.237.479l.155-.082c.486-.25.876-.389 1.417-.459l.17-.092c-.628-.414-2.36-.51-3.23-.815-.395-.138-.888-.081-1.302-.067m2.181 1.507c.081.002.167.025.244-.002zm-11.36 9.09-.1.205c.14.033.229.06.373.042l.066-.225c-.248-.08-.136-.088-.34-.022m-28.482 5.156h.116z"/><path d="M124.487 102.402c-3.228-2.346-6.228-4.894-9.214-7.536-6.433-5.692-12.866-11.838-14.792-20.568-.706-3.199-.218-6.565 1.566-9.305 2.521-3.874 4.465-4.655 8.883-5.373q2.545-.426 5.072-.956c.621.019 1.232.056 1.846.16 4.075.682 7.24 4.877 9.475 8.025q1.04-1.468 2.165-2.872c2.055-2.563 3.34-3.633 6.518-4.47.862-.226 1.746-.476 2.636-.557 3.455-.313 7.59 1.931 10.127 4.102 3.098 2.65 5.038 6.26 5.346 10.338.225 2.984-.545 5.775-2.077 8.331-2.276 3.795-8.66 9.322-12.229 12.252-.903.742-1.88 1.394-2.775 2.144-.861.722-1.617 1.567-2.461 2.31-1.444 1.27-2.822 2.397-4.087 3.866l.127.082.194.134c1.06.727 1.744 2.008 2.444 3.07 3.733-2.54 7.032-3.903 10.958-5.918 5.252-2.696 11.942-7.174 17.856-7.664q.429-.033.858-.046.43-.012.86-.003.43.008.858.038.429.03.856.08t.85.121.844.164q.42.091.835.204t.824.244q.409.133.811.285t.796.323.78.363.76.4.74.436q.365.228.718.472.353.245.694.507t.669.54c2.947 2.548 5.427 6.68 5.675 10.633.211 3.36-.04 7.62-2.424 10.253-1.795 1.983-5.49 3.92-8.087 4.438-1.446.288-2.942.313-4.41.386 1.668 1.2 3.682 2.38 5.023 3.946 1.583 1.848 2.184 4.722 1.976 7.1-.327 3.737-2.497 7.041-5.34 9.379-3.023 2.485-6.913 3.988-10.857 3.575-6.862-.72-11.803-6.584-14.956-12.26-.846-1.522-1.546-3.133-2.312-4.698-1.038-2.12-2.155-4.205-3.042-6.396-1.283-3.166-3.263-8.849-5.29-11.303l-.113-.136c-.746.364-1.512.65-2.29.938.583 5.96 1.053 12.002 1.104 17.99.036 4.277-.191 8.57-.352 12.843-.061 3.106.08 5.375.678 8.437-2.54 1.877-4.935 2.308-7.395 4.76-.418-.371-.86-.646-1.336-.931.116-1.942.575-3.803.93-5.707.47-2.53.886-5.076 1.335-7.61.801-4.52 1.772-9.026 2.38-13.576.733-5.492.968-11.005 1.011-16.54-.935-.329-1.759-.789-2.591-1.32-.714 1.047-1.775 1.876-2.337 3.01-.767 1.545-1.176 4.061-1.78 5.822-2.049 5.962-6.603 17.185-11.232 21.205q-.268.228-.546.443-.278.214-.566.415-.289.201-.587.387-.298.187-.604.358-.307.172-.622.329-.314.156-.636.297t-.65.266q-.33.125-.663.234-.335.108-.674.201-.339.092-.682.168-.343.075-.69.134t-.695.1q-.349.043-.7.067-.35.025-.702.032-.35.007-.702-.002-.351-.01-.702-.037c-4.39-.352-10.12-2.486-13.032-5.957-1.77-2.11-3.446-5.289-3.164-8.113.426-4.256 5.188-8.116 8.294-10.63-3.034-.335-6.333-.716-9.056-2.212-2.575-1.414-4.795-3.972-5.62-6.815-.89-3.068-.278-6.138 1.253-8.892 2.299-4.138 6.335-6.742 10.805-7.977 2.656-.734 6.199-.888 8.897-.324 7.088 1.483 19.23 9.556 25.843 13.322.376-1.42 1.118-2.536 1.902-3.755m-4.515-27.61c-3.074.493-5.867 1.577-7.761 4.166-1.082 1.478-1.686 3.273-1.4 5.116.253 1.645 1.166 3.175 2.547 4.116 1.686 1.15 4.028 1.507 6.012 1.081.532-.114 1.055-.33 1.554-.542-.07-.646-.164-1.298-.195-1.947-1.799.682-3.565.864-5.376.06-1.082-.481-2.037-1.28-2.426-2.429-.384-1.13-.128-2.423.436-3.448 1.097-1.993 3.539-3.33 5.672-3.914q.22-.06.444-.11.223-.049.449-.087.225-.038.452-.064t.456-.042.456-.018.457.004q.229.009.457.028.227.02.454.05.226.032.451.074.224.043.447.097.222.053.441.118.22.065.435.141.216.076.427.162.212.087.419.184.207.098.409.205.201.108.397.225c.383.227.744.487 1.103.75 2.228 2.075 2.828 5.112 2.933 8.042.122 3.44-.32 6.76-1.068 10.108-.204.913-1.225 4.088-.945 4.842.27.109.456.141.746.145 1.476-1.055 2.556-6.147 2.859-7.98.794-4.8 1.008-11.315-1.956-15.486-1.448-2.038-3.838-3.23-6.268-3.61a12.5 12.5 0 0 0-3.518-.037m12.945.008c-1.146.106-2.306.22-3.428.49.55.612 1.058 1.2 1.491 1.902 2.792-.64 5.723-.512 8.219 1.046 1.305.814 2.448 2.058 2.806 3.587.252 1.08.13 2.182-.465 3.13-.819 1.304-2.368 2.203-3.86 2.493-1.063.207-2.797-.186-3.059-.131-.077.016-.13.087-.195.13l-.053.274.14 1.68c2.628.32 5.139.039 7.274-1.661 1.313-1.046 2.352-2.538 2.508-4.244.181-1.987-.739-4.016-2.02-5.494-1.828-2.11-4.538-3.062-7.27-3.225a13.5 13.5 0 0 0-2.088.023m-7.423 4.67c-2.238 2.578-3.15 6.287-2.91 9.646.316 4.4 1.293 9.17 3.07 13.204.376-.13.818-.22 1.092-.523.096-1.418-.431-2.975-.725-4.36-.883-4.166-1.946-8.719-1.058-12.958.298-1.426.822-2.791 1.316-4.158-.243-.275-.5-.628-.785-.851m-26.852 21.172c-2.46.623-4.44 1.633-5.768 3.894-1.097 1.868-1.353 4.248-.785 6.333.593 2.178 2.285 4.178 4.25 5.26.357.196.733.361 1.105.526.398-.428.817-.845.775-1.474-.022-.322-.279-.547-.522-.725-1.751-1.278-2.76-1.583-3.418-3.875-.306-1.925-.307-3.94.886-5.6.858-1.195 2.254-1.935 3.696-2.137 1.634-.229 3.166.384 4.435 1.38.91.715 1.587 1.58 2.295 2.489l1.457-.945c-1.242-2.33-3.055-4.038-5.617-4.84q-.336-.108-.682-.181t-.697-.109q-.352-.035-.705-.035-.354.001-.705.04m55.382 1.378c-2.363.53-4.252 2.089-5.538 4.115-.287.453-.535.918-.766 1.402.616.349 1.227.709 1.866 1.016.902-1.846 2.062-3.602 4.125-4.287 1.357-.45 2.975-.31 4.226.388 1.476.823 2.409 2.372 2.813 3.978.419 1.658.205 3.203-.22 4.834-.571 1.622-1.29 2.872-2.343 4.225.282.76.614 1.536.825 2.32 2.694-3.125 4.192-6.421 3.863-10.621-.173-2.19-.923-4.358-2.644-5.816-1.793-1.52-3.96-1.774-6.207-1.554m-36.47 4.41c-5.01.273-12.659 1.288-16.18 5.25-1.15 1.292-1.567 2.551-1.79 4.24.787-.755 1.557-1.567 2.388-2.27 5.171-4.525 12.564-4.812 19.038-5.477.387-.04.965-.053 1.188-.397-.087-.36-.087-.468-.396-.701-.967-.731-3.095-.641-4.248-.645m16.942.75c-.392.083-.975.134-1.244.47-.203.251-.16.351-.103.64.29.286.57.422.958.53 1.444.403 3.02.519 4.496.794a48 48 0 0 1 6.937 1.866c2.108.738 4.19 1.72 5.977 3.073 1.243.94 2.394 1.995 3.726 2.809l1.287-.406c-.798-1.131-1.575-2.237-2.6-3.181-3.428-3.16-9.208-5.235-13.742-6.027q-2.824-.502-5.691-.568m-12.598 1.917-.193.09c-1.433.68-2.765 1.616-4.114 2.452-2.707 1.677-5.777 3.279-8.903 3.953-.934.201-1.927.415-2.884.454-1.379.055-4.536-.857-5.154.886-.11.312-.136.473-.004.775.227.097.452.2.686.281 6.616 1.394 12.458-1.475 17.843-4.989 1.035-.674 3.037-1.887 3.235-3.201.036-.239-.017-.41-.09-.631a1 1 0 0 0-.422-.07m10.776.424-.578.887c2.43 3.043 9.78 7.668 13.499 9.121 1.749.683 3.656 1.106 5.521 1.308 1.754.19 3.52.156 5.22-.347.329-.138.46-.155.667-.455-.145-.434-.495-.605-.882-.83-.305-.178-.463-.385-.656-.675-5.493 1.192-10.224-1.059-14.748-3.978-1.79-1.155-6.368-4.747-8.043-5.032m-34.666 7.999c-.894 3.33-1.239 6.473.58 9.602 1.175 2.021 3.049 3.264 5.284 3.844 1.726.448 3.504.411 5.069-.54 1.577-.96 2.731-2.644 3.121-4.442.204-.937.212-1.855.093-2.803a12 12 0 0 0-.983-2.312l-1.638.769c.558 1.779.824 3.324-.08 5.072-.558 1.079-1.442 2.009-2.631 2.363-1.382.411-2.945-.002-4.16-.718-1.699-1.003-2.557-2.743-2.995-4.596-.295-1.248-.373-5.181-.871-5.861a7 7 0 0 0-.789-.378m45.479 2.796c-1.04 1.694-1.388 4.138-.923 6.065.511 2.118 1.82 4.16 3.71 5.288 1.627.971 3.554 1.105 5.36.63 2.12-.558 3.798-2.141 4.862-4.013a12.4 12.4 0 0 0 1.36-3.677c.058-.812.136-1.626.108-2.44l-1.518.11c-.637 2.794-1.537 5.69-4.126 7.285-1.12.69-2.483 1.005-3.777.688-1.327-.325-2.327-1.253-2.984-2.423-1.021-1.817-1.085-3.775-.496-5.739q.151-.504.32-1.002c-.627-.2-1.276-.646-1.896-.772m28.558-42.398c.673-.375 1.322-.65 2.09-.752.072.055.026.014.117.154.373.573 2.336.53 3.03.96l-.296.117.275-.12-.17-.089-.084.23c-.345.081-.688.018-1.035-.018-.84.16-1.194-.195-1.89-.597-.681.003-1.359.064-2.037.115m5.56 1.828a2.2 2.2 0 0 1-.502-.282c-.279-.208-.615-.276-.937-.389-.262-.091-.166-.044-.38-.247.434-.182.89-.15 1.353-.155q.078-.027.155-.056a1.6 1.6 0 0 0 .436-.258c.267.172.393.404.558.665l-.009.191c-.315.08-.533.051-.707.341zm6.098 2.188c-.639-.273-1.319-.255-1.95-.53.162-.093.268-.143.386-.29-.079-.077-.217-.22-.307-.276-.344-.213-.728-.028-1.089.055-.422-.149-.283-.476-.549-.567-.675-.233-1.143.197-1.867-.267-.098-.294.088-.507.214-.783.205.129.32.196.566.224.818.09 1.788.579 2.535.924.533.247 2.116.93 2.318 1.48zm-6.098-2.188.25.129zm7.297 3.91c-.063.043-.202.065-.278.085-.303-.13-.449-.153-.643-.427.251-.091.346-.107.522-.318-.263-.222-.434-.212-.759-.282-.294-.064-.5-.044-.676-.312l.195-.343c.279.067.549.187.818.288.212-.087.153-.051.318-.153q.049-.03.098-.064l.27.246c.241.893.423.465 1.044.836l-.207.216c-.231-.007-.31.011-.523.124-.061.032-.12.069-.18.103m-6.467 7.987a9 9 0 0 1-.761.047l-.012-.234.154-.093c.36-.002.347.034.619.28m10.099 1.856c-.226.158-.103.128-.368.1l.007-.269a1 1 0 0 1 .408-.086zM62.048 118.119l-.207.215.082-.296.241-.134zm-1.056.507-.178-.099.2-.094.216.093zm-1.535.158-.084-.038zm.526-.001-.099-.037zm-3.829.929c-.183-.054-.219-.099-.35-.23l.03-.297.245-.184c.787.128 1.823-.086 2.625-.16l.098.1c-.21.132-.353.213-.603.252-.133.021-.268.034-.401.058a1.38 1.38 0 0 0-.935.61c-.164.252-.037.176-.29.244zm133.691 7.209c-.759.108-1.96.406-2.661.026l-.042-.2c.235-.348.577-.516.929-.726.793.177 1.786-.016 2.528.352.194.096.129.037.199.259-.324.202-.585.24-.953.289m-123.488 7.95.107-.45.131.01.09.192.129.312c-.304.031-.151.048-.457-.064m.961 5.014c-.212.133-.4.194-.641.26-.484-.153-.76-.635-1.059-1.02.537.285 1.122.175 1.652.494zm6.911 1.033-.144-.127c-.165-.326-.041-.647.032-.986l.188.142c.127.392.024.578-.076.97m108.911 3.592c-.368-.163-.793-.326-1.124-.557-.26-.182-.373-.32-.447-.624.203-.317.369-.324.713-.459 1.5.204 3.052.316 4.523.668l.052.14-.104.179c-.458.23-.84.274-1.346.322-.544.066-.814-.148-1.308-.186-.41-.032-.662.281-.959.517"/><path d="m182.419 145.564-.345.04q-.052-.042-.103-.086c-.27-.249-.631-.611-.663-.99.421-.22 1.047.267 1.505.337.811.126 1.935-.403 2.78-.477.499-.044.64.121 1.006.41.162-.147.114-.07.193-.287.02-.053.035-.107.053-.16.387-.11.555-.258.828-.532.256.046.498.121.747.196l-.013.101c-.274.148-.521.256-.7.522.095.129.22.278.296.422.152.286.162.32.064.608-.598.306-1.404.131-2.036-.007-.918-.202-1.863.214-2.798.218l-.302-.457zm-13.574 5.526c-.084.018-.186.045-.271.037-.286-.026-.405-.099-.696-.021-.421.112-.975.271-1.408.174-.056-.012-.112-.03-.167-.044l-.345.272c-.184-.234-.143-.102-.127-.397.595-.684 1.642-.272 2.334-.688q.086-.053.168-.11c.492-.06.982-.17 1.465-.023.104.197.138.264.32.403q.101-.062.202-.127c.047-.03.089-.068.138-.095.395-.22.823-.102 1.219.042v.32c-.371.229-1.632.499-2.067.434-.36-.054-.33-.263-.766-.177m-3.546.224-.216.075.068-.21c.236-.131.117-.113.351-.085zm-.676.276-.069.035.037-.092.128-.056zm-.709 1.485a.83.83 0 0 1-.647-.047c-.19-.094-.123-.067-.196-.314l.268-.301c.414-.032.797-.077 1.206.019-.071.338-.359.443-.63.643m-56.012 1.879c-.298-.167-.487-.27-.697-.548.119-.37.313-.47.603-.721.3.143.356.183.551.45-.07.423-.182.502-.457.819m-3.499.765c-.546-.204-.646.249-1.035.156l.035-.227c.305-.29.55-.411.942-.557.344.08.639.164.962.303l-.004.133c-.153.017-.433.015-.566.079-.308.148-.003.116-.334.113m-4.827 1.109c-.202-.042-.306-.063-.483-.177 1.412-.773 6.227.397 7.62-.12.312-.116.627-.219.94-.329.02 0 .041-.005.061 0 .29.08.634.24.779.508-.65.482-7.66.177-8.917.118m9.096.084.043-.311.241-.164c.369.032.703.067 1.063-.046q.12-.039.24-.081c.1.051.029.007.156.196l-.154.171c-.538.18-1.029.206-1.589.235m32.156-.38-.18-.052.032-.012zm-29.292.251c-.18.046-.08.047-.296-.058l.115-.048zm33.554 14.051 1.179-2.031c.475.175.792.354 1.147.719 1.434 1.476 2.619 3.304 3.889 4.927 2.532 3.234 5.124 6.47 7.853 9.54l-.091-7.256c-.02-1.332.075-2.784-.194-4.093-.125-.607-.501-1.016-.673-1.571a.73.73 0 0 1 .039-.579c.188-.389.516-.585.919-.697.785-.22 2.93-.244 3.588.26.228.175.355.4.331.692-.06.737-.877 1.305-1.408 1.717-.033 3.63-.228 7.25-.272 10.876-.027 2.241.186 4.577.004 6.803-.032.387-.063.536-.325.823-.34.003-.38-.035-.67-.22-2.487-2.419-4.526-5.341-6.782-7.981-1.688-1.975-3.646-3.776-5.126-5.916q.194 2.973.145 5.953c-.03 1.377-.148 2.788-.085 4.164.019.42.042.895.242 1.275.23.435 1 .781 1.332 1.196.266.332.263.616.229 1.01-.309.367-.688.488-1.15.573-.938.173-3.429.315-4.16-.338a.83.83 0 0 1-.3-.531c-.09-.719.795-1.66 1.2-2.252.111-1.443.025-2.915-.014-4.36-.113-4.27-.558-8.448-.848-12.704m-16.12 20.329c-.762.29-1.544.564-2.376.474-.404-.044-.75-.195-.975-.551-.257-.408-.03-1.14.084-1.581.45-1.724 1.239-3.4 1.854-5.073 1.185-3.226 2.215-6.508 3.36-9.748.674-1.912 1.541-3.75 2.05-5.719.537-.016.88.029 1.268.413.85.842 6.34 14.449 7.125 16.478.248.64.466 1.33.773 1.943.432.862 1.623 1.867 1.61 2.847-.213.337-.38.465-.773.56-.881.214-3.257.335-4.016-.154-.2-.377-.106-.721-.048-1.124.03-.213.067-.422.045-.637-.166-1.606-2.138-5.936-3.324-6.933l-.108-.089c-1.523-.078-3.087.196-4.589.428-1.443 1.828-2.113 4.575-2.915 6.754q.496.845.955 1.712m4.33-16.173c-1.187 1.454-1.594 3.673-2.04 5.464l1.874-.177c.702-.002 1.409-.02 2.11.001-.304-1.124-1.15-4.601-1.944-5.288m41.9 15.454c-1.882.73-6.442.944-8.416.545-.917-.185-.86-.492-.808-1.3.13-2.001.387-3.989.467-5.995.096-2.382-.01-4.75-.061-7.131-.018-.793.139-2.255-.193-2.958-.215-.455-1.678-.772-2.173-1.492-.075-.297-.045-.416.067-.699 1.041-1.041 4.671-1.988 6.122-2.26 1.724-.084 3.293-.104 4.92.55 2.7 1.084 5.311 3.43 6.459 6.126 1.171 2.751.926 6.044-.204 8.773-1.192 2.877-3.355 4.684-6.18 5.84m-4.029-19.05c-.624.201-1.132.43-1.42 1.056-.179.389-.146.872-.144 1.291.009 2.605.285 5.215.346 7.822.058 2.465-.1 4.987.093 7.441 2.03-.139 3.873-.47 5.599-1.6 1.84-1.407 2.79-3.182 3.101-5.468.362-2.667-.406-5.257-2.037-7.376-1.132-1.472-2.788-2.962-4.707-3.175a4 4 0 0 0-.83.009M70.388 191.245c-.278-.212-.627-.458-.809-.761-.174-.291-.1-.6-.043-.908.266-.48.915-.469 1.325-.784.372-.286.412-.729.465-1.163.226-1.866.04-3.862.076-5.748.041-2.253.75-7.49.005-9.405-.254-.654-1.053-.743-1.377-1.288a1.23 1.23 0 0 1-.12-1.03c.372-.325.847-.388 1.316-.5 1.333-.057 2.895-.268 4.203-.002.513.104 1.066.332 1.325.82.519.974-1.118 1.438-1.27 2.374-.294 1.812-.643 14.313-.181 15.437.257.626 1.252 1.184 1.696 1.762.05.27.095.238-.057.493-.632.422-1.302.469-2.036.52-1.504.1-3.01.236-4.518.183m15.747-3.188c.321.343.719.551 1.085.838.438.343.782.81.853 1.368-.089.217-.08.276-.28.422-1.157.846-4.568.748-5.935.475-.409-.082-.715-.184-.956-.547-.114-.875 1.069-1.845 1.382-2.67.259-.681-.105-2.582-.094-3.444.03-2.347.12-4.703.227-7.048.053-1.147.173-2.31.157-3.457-.007-.5-.016-1.468-.278-1.88-.405-.644-1.974-.485-2.676-.59-.427-.063-.7-.177-.962-.538-.082-.346-.073-.507.033-.846.288-.325.558-.38.959-.488 4.54.97 9.545-.914 13.5 2.364.607.503 1.03 1.145 1.08 1.948.145 2.278-1.625 3.318-2.905 4.808l-.094.112c1.173 3.514 5.272 8.404 8.165 10.686-.163.194-.326.392-.505.572-.368.37-.877.53-1.391.5-2.306-.136-4.935-3.275-6.417-4.895-1.675-1.98-3.08-4.32-4.887-6.156-.297 2.71-.207 5.742-.06 8.465m.249-16.415c-.318.25-.438.35-.503.76-.13.823-.158 5.402.248 5.953.681.262 1.645-.036 2.296-.332q.273-.123.538-.262c.726-.585 1.05-1.133 1.156-2.075.111-.996-.187-2.197-.843-2.97-.706-.831-1.587-1.004-2.623-1.067q-.135-.007-.27-.007m26.383.039c-.584-.09-1.243-.119-1.56-.709a.6.6 0 0 1-.051-.495c.186-.499.661-.669 1.118-.84.858.062 1.739.369 2.594.341.949-.03 1.993-.408 2.934-.269.34.051.45.135.653.4.117.863-.529 1.446-.996 2.09-.21 1.772-.316 14.688.117 16.008.293.25.527.406.902.51 1.242.347 2.636.274 3.759-.352.387-.71.587-1.418.753-2.199-.163-.435-.404-.965-.405-1.435 0-.387.177-.779.465-1.037.228-.205.524-.31.83-.273.323.04.625.23.835.473.468.542.317 1.23.27 1.888-.113 1.197-.135 3.801-.728 4.734-.226.355-.77.465-1.159.538-1.086.204-7.897.073-9.162-.097-.435-.058-.855-.123-1.22-.38.106-1.383.49-2.738.592-4.129.11-1.505.06-3.038.061-4.547.004-3.495-.113-6.756-.603-10.22m-12.544 17.467c.112-2.087-.155-4.193-.195-6.281-.064-3.371.029-6.742-.157-10.11-.047-.856-.97-1.759-.764-2.56.262-.266.564-.32.912-.416 1.572-.003 6.692-.097 7.785.489.396.212.816.55.889 1.023.072.471-.212.983-.49 1.342-1.35 1.745-2.546-1.405-4.178-.932-.286.082-.505.371-.627.63-.32.682-.496 4.555-.172 5.14.947 1.713 3.724-.77 4.967-.625.34.227.485.403.58.808.192.811.252 2.33-.323 3.004-.145.17-.346.352-.594.28-.445-.13-.865-.538-1.288-.737-.8-.378-2.49-.162-3.363-.13.044 2.257.098 4.517-.044 6.772-.032.553.01 1.106.037 1.659a27.3 27.3 0 0 0 4.933.369c.376-.278.675-.64 1.04-.928.294-.23.384-.26.753-.21.137.118.252.227.333.392.28.573.311 1.343.112 1.945-.12.364-.338.67-.7.825-.334.144-9.535.243-9.748.13-.328-.172-.32-.26-.404-.595.08-.528.392-.874.706-1.285m24.28 11.848-.09.016.023-.096.095-.018zm-2.805.29-.079-.039z"/></svg>