<svg xmlns="http://www.w3.org/2000/svg" viewBox="0 0 256 256"><path d="M125.604 0h2.846c5.948 2.214 12.356 5.802 18.078 8.702q15.896 7.938 31.366 16.678c6.427 3.635 12.702 7.569 19.159 11.142 2.786 1.542 5.743 2.778 8.628 4.12q4.629 2.128 9.073 4.619 5.885 3.2 11.494 6.861c3.805 2.492 7.501 5.16 11.337 7.605 1.575 1.004 7.197 4.007 7.898 5.397 1.069 2.115 1.478 12.482 1.672 15.639 1.946 31.855 2.578 64.05.344 95.909-.213 3.04-.506 10.69-1.438 13.162-.647 1.719-4.017 3.823-5.505 4.905-4.805 3.492-9.895 6.608-14.978 9.672-4.934 2.974-9.86 5.89-14.974 8.547-7.529 3.913-15.225 7.447-22.673 11.528-8.206 4.496-16.234 9.322-24.414 13.863q-9.254 5.075-18.703 9.778c-4.428 2.23-8.858 4.64-13.434 6.55q-1.67.698-3.368 1.323h-2.483c-5.123-2.495-10.1-5.373-15.13-8.054-7.225-3.853-14.58-7.448-21.741-11.426-8.46-4.7-16.7-9.785-25.166-14.468-7.18-3.971-14.856-7.007-22.004-11.031-5.527-3.11-10.869-6.659-16.248-10.023l-9.17-5.805c-1.6-.993-3.268-1.903-4.825-2.962-.41-.278-1.152-.706-1.33-1.178q-.024-.07-.045-.139c-.693-2.059-.852-10.774-.983-13.441q-.694-11.968-1.049-23.95-.354-11.982-.37-23.969t.308-23.97.986-23.952c.19-3.525.325-13.287 1.253-16.109.197-.6.681-1.026 1.177-1.39 1.11-.815 2.382-1.483 3.56-2.2q3.094-1.87 6.128-3.835c6.245-4.02 12.344-8.273 18.804-11.948 5.744-3.269 11.711-6.214 17.618-9.177 2.454-1.232 4.951-2.39 7.361-3.707 7.596-4.153 15.046-8.576 22.61-12.785Q106.362 10.096 125.604 0m1.255 6.019c-3.394 1.092-6.458 2.648-9.632 4.234l-11.222 5.684Q85.451 26.273 65.343 37.452c-4.224 2.36-8.512 4.594-12.68 7.055-7.371 4.352-14.443 9.206-21.76 13.642-4.184 2.538-8.465 4.91-12.59 7.548-1.286.823-2.884 1.671-3.937 2.783-1.03 3.24-.97 10.468-1.047 14.072q-.174 6.285-.224 12.572-.724 37.599.646 75.18l.295 10.599c.06 1.695.06 3.446.246 5.131.085.768.248 1.718.627 2.395.684 1.221 6.51 4.16 8.062 5.117q16.536 10.398 33.5 20.08c5.152 2.889 10.47 5.502 15.694 8.259q13.07 7.05 26.269 13.854c5.5 2.844 10.956 5.76 16.481 8.555 3.889 1.968 7.678 3.986 11.836 5.338l2.32-.463c5.907-1.724 11.44-4.864 16.904-7.645q9.436-4.72 18.756-9.664c9.194-4.889 18.547-9.518 27.69-14.499q20.702-11.392 40.548-24.218c2.313-1.504 7.391-4.56 9.135-6.44.345-3.184.265-6.498.36-9.702l.528-16.73q1.023-38.794-.62-77.568c-.1-2.263-.315-12.885-1.36-14.132-1.312-1.563-11.176-7.227-13.568-8.708-9.195-5.688-18.117-11.783-27.453-17.25-4.656-2.727-9.528-5.099-14.304-7.607l-19.685-10.447-17.473-8.996c-5.08-2.647-10.226-5.511-15.499-7.75-1.992-.845-4.03-1.518-6.181-1.794"/><path d="M73.255 36.193c1.49-.645 3.004-1.268 4.458-1.993 3.075-1.532 6.024-3.322 9.049-4.948 3.424-1.84 6.959-3.524 10.415-5.31l17.37-8.86c2.967-1.495 5.978-2.89 8.895-4.487l.13.017c.3.275.348.483.436.885.333 1.52.404 3.204.639 4.753.771 5.078 1.494 10.317 2.843 15.276 1.196-4 2.152-8.122 3-12.21.218-1.048 1.4-8.163 1.605-8.426.389.01.68.115 1.036.27 1.892.824 3.749 1.946 5.598 2.882q6.926 3.49 13.81 7.064c10.11 5.215 20.335 10.24 30.294 15.738-3.742.349-7.418.971-11.131 1.524-3.003.447-6.025.804-9.037 1.189 3.207 2.537 6.83 4.726 10.228 7.006q12.12 8.154 24.566 15.801c-.84-2.418-1.513-4.9-2.305-7.336q-2.36-7.076-4.593-14.191c11.973 6.144 22.947 14.063 34.34 21.176 3.473 2.169 7.022 4.22 10.496 6.396 1.095.686 2.515 1.336 3.422 2.247.015 1.142.16 2.282.224 3.422l.417 8.307c.087 2.016.022 4.035.047 6.052q.093 4.434.263 8.865l.732 17.427c.155 3.831.372 7.634.336 11.472-1.135-1.763-2.47-3.401-3.672-5.119q-5.733-8.324-11.903-16.329c-.046 12.196-.46 24.413-.64 36.61-.05 3.44-.273 6.89-.226 10.328 1.877-3.155 4.291-6.067 6.53-8.975q5.002-6.398 9.867-12.901c.263 3.798.015 7.544-.122 11.341q-.199 7.489-.543 14.972c-.401 9.87-.406 19.777-1.238 29.625-2.242 1.444-4.59 2.735-6.84 4.173-2.967 1.894-5.844 3.922-8.81 5.814-4.574 2.92-9.292 5.718-13.97 8.475-3.337 1.968-6.675 3.982-10.059 5.869-2.907 1.62-5.908 3.131-8.71 4.93 1.86-6.984 4.265-13.933 6.85-20.679-3.41 1.74-6.687 3.893-10.035 5.766-8.43 4.716-16.94 9.418-25.12 14.551 2.031.252 4.07.754 6.076 1.16 4.897.992 9.769 2.128 14.685 3.023l-28.54 14.904c-7.055 3.615-14.296 6.964-21.234 10.789-.23.126-.454.206-.703.287-.433-.182-.396-.452-.464-.889-.254-1.634-.45-3.292-.767-4.914-.576-2.954-1.319-5.883-1.951-8.826-.516-2.4-.762-4.996-1.8-7.236-.959 3.163-1.275 6.562-1.784 9.823-.644 4.132-1.385 8.278-1.888 12.428-11.31-5.335-22.356-11.311-33.417-17.142q-5.457-2.819-10.881-5.702c-1.973-1.034-4.054-1.997-5.932-3.194 3.345-1.126 6.804-1.884 10.24-2.67q4.974-1.165 9.968-2.242-6.856-3.695-13.636-7.529-10.706-6.226-21.477-12.341c.498 1.999 1.213 3.964 1.863 5.918 1.665 5.003 3.538 9.932 5.243 14.92-2.965-1.983-6.368-3.487-9.538-5.131-2.624-1.362-5.195-2.914-7.734-4.432-10.617-6.346-20.847-13.332-31.575-19.483.157-3.966-.037-8.026-.108-11.994-.027-1.489.064-2.976.044-4.465-.015-1.122-.155-2.238-.19-3.358-.044-1.355-.007-2.71-.063-4.066-.11-2.691-.202-5.416-.386-8.102-.174-2.523-.47-5.038-.593-7.564-.16-3.272-.351-6.601-.404-9.874-.034-2.119.039-4.242.023-6.362 1.841 2.689 4.035 5.088 6.007 7.67 2.229 2.918 4.435 5.838 6.712 8.72 1.154 1.462 2.27 2.967 3.532 4.337.201-3.118-.047-6.362-.118-9.486l-.466-17.052c-.227-6.14-.048-12.978-.799-19.032-4.82 6.821-9.61 13.689-14.767 20.261l.262-11.369c.023-1.369-.057-2.742-.005-4.11.116-3.081.415-6.165.47-9.253.029-1.603-.096-3.206-.068-4.81q.23-12.683.859-25.351c1.653-1.932 6.658-4.484 9.04-5.995l20.91-13.052c6.058-3.76 12.095-7.593 18.42-10.902-1.068 3.725-2.414 7.41-3.573 11.113-.621 1.986-1.087 4.013-1.674 6.008-.373 1.267-.87 2.484-1.189 3.769 1.82-.72 3.438-2.082 5.08-3.146 2.422-1.569 4.9-3.055 7.327-4.617q6.79-4.338 13.66-8.546c3.055-1.907 6.07-3.88 9.14-5.762-2.302-.597-4.74-.856-7.082-1.293-4.513-.843-9.126-1.89-13.698-2.297M31.204 62.37c1.15 1.19 2.626 2.146 3.963 3.119 3.664 2.663 7.322 5.078 11.26 7.324l.07.059-.07-.059c-.892-1.04-1.657-2.216-2.521-3.287-1.801-2.23-6.84-8.052-9.081-9.437-.753.376-1.464.842-2.18 1.283-.496.31-.966.657-1.44.998m-6.57 4.432c1.219 1.067 2.832 1.86 4.226 2.682q4.943 2.95 10.07 5.567l.063.064-.063-.064c-2.439-2.707-4.875-5.358-7.51-7.88-1.023-.978-2.034-1.999-3.183-2.83-.795.39-1.497.86-2.226 1.36-.486.334-.927.72-1.377 1.1m-5.504 3.014c-.461.363-.968.753-1.311 1.232-.25.349-.242.561-.168.97.954.871 3.269 1.568 4.49 2.1 5.102 2.22 10.27 4.74 15.67 6.162l.063.063-.063-.064c-.697-.722-1.654-1.352-2.45-1.975q-2.979-2.33-6.02-4.58c-2.464-1.846-4.844-3.913-7.395-5.629a48 48 0 0 0-2.816 1.721m-1.848 10.788c3.5 1.062 6.96 2.124 10.417 3.327 3.203 1.114 6.44 2.427 9.735 3.216l.064.071-.064-.07c-1.114-1.074-18.46-11.052-20.053-11.44q-.194 2.445-.1 4.896m177.164 38.145c2.84-.954 6.817-1.304 9.843-1.77 5.948-.918 11.917-1.799 17.828-2.935.135-3.363-.04-8.053.59-11.24a10 10 0 0 0-.756-1.31q-17.457 4.912-34.991 9.538c-4.297 1.089-8.632 2.05-12.943 3.083-2.353.563-4.836 1.009-7.086 1.911l-.674-2.65q27.294-6.854 54.344-14.613-3.747-6.249-7.88-12.249c-10.061 4.414-20.285 8.457-30.358 12.853q-6.168 2.69-12.3 5.463c-1.917.852-3.862 1.884-5.841 2.556q-.544-1.264-1.174-2.488c3.115-1.782 6.68-3.102 9.971-4.543l24.511-10.466c4.475-1.909 9.238-3.656 13.468-6.057-2.754-4.546-5.813-9.004-8.897-13.336Q187.56 80.216 172.9 89.76c-4.484 2.901-8.939 5.83-13.5 8.61-.549-.681-1.077-1.385-1.723-1.978 3.817-2.823 7.854-5.355 11.843-7.925 4.558-2.936 9.095-5.918 13.692-8.793 6.042-3.779 12.127-7.458 17.964-11.553q-5.395-3.515-10.858-6.921c-1.743-1.075-3.492-2.231-5.315-3.159q-10.91 10.474-22.019 20.735c-5.678-.157-11.342-.057-17.018-.105-1.512-.012-4.753-.51-6.038-.115-.283.297-.381.568-.513.944l.04.253c1.65 1.135 11.05.453 11.992 1.894.038.63-.133 1.207-.28 1.814-1.597-.026-3.184-.058-4.768-.294-1.598-.238-3.178-.638-4.742-1.041-.603-.156-1.28-.442-1.893-.504-.271-.027-.345.01-.57.14l-.032.284c.834.978 8.075 5.191 9.536 5.991.2.11.131.07.307.275.01.489.13 1.234-.155 1.643-.393.19-.727.097-1.124-.038-2.372-.807-4.775-2.347-6.916-3.651-.872-.531-1.77-1.228-2.725-1.584-.339.168-.38.19-.575.51.02.666.498 1.11.957 1.54 4.241 3.974 8.835 7.622 12.864 11.825-.565.623-1.126 1.332-1.784 1.855-2.958-2.272-5.857-5.146-8.592-7.705-1.384-1.295-3.169-3.102-4.737-4.068-.38-.234-.85-.461-1.306-.417-.215.021-.204.093-.32.252.104.902 2.977 4.369 3.65 5.477.858 1.411 1.562 2.95 2.292 4.43-.44.486-.87.987-1.33 1.453l-.11-.086c-1.894-1.525-4.7-7.631-5.698-8.077-.201.189-.18.255-.187.522-.047 1.815 2.115 8.323 1.895 9.234-.017.072-.213.36-.28.427-.343.342-.749.406-1.207.363-.413-.039-.824-.13-1.23-.214-.238-1.332-1.857-11.198-2.206-11.608-.374.015-.566.031-.903.217-.304.915-.262 18.334-.222 20.449l-2.432.04c.009-5.702-.18-11.369-.444-17.064-.053-1.14.128-2.665-.141-3.743-.376-.052-.509-.097-.868.047-1.428 2.629-.884 8.999-1.904 12.237-.794.004-1.586.01-2.38-.035.209-1.558.43-3.131.529-4.7.071-1.135-.034-2.262.145-3.392.215-1.367 1-3.424.722-4.752l-.134-.11c-.543.317-1.878 4.1-2.287 4.893-.434.842-1.109 1.596-1.66 2.368-.703.984-1.353 2.013-2.067 2.986-.652-.611-1.326-1.21-1.955-1.844 2.023-3.303 4.978-6.006 6.12-9.842-.86-.018-1.657-.015-2.507.15-.237.529-.466 1.105-.823 1.563-1.699 2.177-4.04 4.1-6.016 6.04-1.731 1.698-3.438 3.68-5.331 5.181-.593-.651-1.178-1.311-1.781-1.953 2.7-2.535 5.24-5.237 7.855-7.861 1.623-1.629 3.65-3.308 4.967-5.173l-.05-.212c-.446-.201-.97.012-1.4.172-.829.309-1.634.713-2.434 1.09-1.847.909-3.712 1.94-5.618 2.713-.528-.441-1.125-.796-1.21-1.532.703-1.794 9.99-5.273 10.018-6.023.003-.084-.04-.163-.06-.244-.57-.12-2.982.61-3.751.727-3.025.458-6.121.371-9.134.838.004-.894.047-1.744.18-2.629 4.102-.423 8.18-.826 12.302-1.004.01-.589.076-1.208-.107-1.773-.585-.495-4.77-.096-5.774-.014-5.726.472-11.513.46-17.26.427-3.852-4.319-8.457-8.046-12.728-11.944q-3.149-2.907-6.331-5.778c-1.017-.924-2.029-1.963-3.118-2.794-2.94 1.965-6.038 3.726-9.053 5.575-1.465.897-3.105 1.749-4.39 2.894-.556.495-.99 1.13-1.401 1.746l29.86 19.187c4.273 2.762 8.603 5.43 12.853 8.232a23 23 0 0 1-1.856 1.945c-4.138-2.35-8.162-4.95-12.175-7.508L65.068 77.96c-2.337-1.507-4.635-3.077-6.961-4.602-1.434-.94-2.867-1.969-4.428-2.686-2.857 4.356-5.977 8.632-8.529 13.177q11.612 5.102 23.169 10.327 12.044 5.17 23.992 10.562c-.727.7-1.382 1.395-2.011 2.183-3.87-1.531-7.653-3.315-11.465-4.989q-9.832-4.258-19.617-8.627c-5.25-2.329-10.479-4.73-15.809-6.874-1.25 1.706-2.352 3.491-3.515 5.254-1.523 2.311-3.11 4.61-4.404 7.06 9.525 2.573 18.974 5.43 28.51 7.953l18.97 4.956c2.282.62 4.594 1.19 6.85 1.894a19 19 0 0 0-1.577 2.394q-16.744-3.924-33.306-8.553l-14.489-4.198c-2.18-.619-4.399-1.367-6.614-1.827-.327.565-.677 1.126-.956 1.716l.034.246c.19 1.427.24 10.648.757 11.025.905.66 25.435 3.016 28.894 3.975-3.152.402-6.63.004-9.81-.073q-5.478-.094-10.957-.121c-2.784-.028-5.584-.122-8.366-.023.224 3.507.27 7.031.362 10.544 4.762-.015 9.554-.361 14.313-.546l.144-1.378c3.907-1.09 8.007-1.423 11.998-2.106 8.98-1.537 17.92-3.041 26.977-4.063.889.676 1.75 1.354 2.531 2.156 4.84-.807 12.05-2.83 16.487-4.747.362-.488.709-.992 1.138-1.424 2.725.246 6.117 1.38 8.747 1.112 3.618-.368 9.22-3.954 12.13-4.002 2.442-.04 8.393 3.964 11.269 4.224 2.2.199 8.26-1.912 9.743-.234.351.398.392.904.474 1.407 4.331.958 8.43 2.632 12.657 3.93 1.98-.496 4.023-1.116 5.846-2.038 4.395.641 37.875 5.135 39.03 5.912.46.642.398 1.493.432 2.253 4.676.044 9.397-.497 14.075-.63.13-3.738.26-7.492.242-11.233-7.194.535-14.358 1.011-21.569 1.248-1.989.066-4.027.285-6.009.255M79.25 127.25l-.112.124zl.36-.15-.011-.194-.192-.002zm54.133.415 1.128.951c-.24.818-.29 9.86-.033 10.63.134.05.367.116.49.201.294.203.252.343.29.674-.23.313-.468-.011-.838.13-.23 2.044.864 4.12.244 6.109l-.146.025-.199-.363-.137.006-.028.123c-.124.56-.25 1.028.065 1.527.526.052 1.122.089 1.59-.189.173-.549-.347-1.454-.323-2.115.129-3.554.346-7.05-.194-10.573-.162-1.055-.304-3.903.322-4.703.154-.198.24-.308.317-.558-.471-.25-.895-.5-1.311-.835l-.109-.089c.04-.339.072-.578-.047-.909-.309-.195-.733-.08-1.08-.042m-67.947 1.695c-1.426.033-3.052-.096-4.377.503l-.139.173c.356.087.926.078 1.192.295-.395.389-1.127.571-1.65.738-.711.227-1.087.587-1.612 1.104-.754-.772-1.971-2.499-3.115-2.555-.615-.03-.931.291-1.339.697q-.207.204-.42.403c.38.002 1.133.115 1.376-.173.038-.045.13-.21.162-.267.29-.012.526.014.745.234.096.097.178.251.248.37-.042.25.02.234-.169.347-1.358.804-5.94-.004-6.477 1.64-.254.781-.311 1.702-.427 2.514-.458 3.212-.596 6.399-.868 9.625-.205 2.438-.629 4.883-.64 7.332-.005.785.015 1.864.41 2.55.142.249.218.296.465.413.447-.134.655-.357.87-.768 1.42-2.712.437-16.968.717-21.189 2.277-.499 4.595-.755 6.872-1.229l1.399 2.366c-.26.531-.673 1.195-.758 1.78-.276 1.9-.528 17.279.018 18.94l.206.05-.064.122c.623-.149 1.247-1.047 1.57-1.565q.035-.058.068-.118c.177-3.284-.008-6.614.003-9.905.008-2.455.207-4.917.189-7.368-.007-.848-.596-1.612-.54-2.406.034-.484.174-.942.558-1.262 1.434-1.192 4.875-1.235 6.654-.998q.599.084 1.194.189c.144.5.32 1.035.366 1.555.316 3.653-1.626 19.005-.263 20.872.411.018.942-.331 1.305-.536.387-.326.417-.754.454-1.231.224-2.944.261-6.054.19-9.006-.034-1.397-.174-2.791-.192-4.188-.02-1.392.106-2.802.19-4.191.05-.83.032-1.685.247-2.492.27-1.013.67-1.558 1.439-2.257 1.505-.157 3.02-.41 4.526-.52.877.471 1.255.897 1.737 1.76l-.016.167c-.106 1.042-.41 2.056-.487 3.097-.17 2.302-.393 16.75.036 18.192.285.174.425.259.766.178.479-.114.9-.479 1.275-.778-.17-2.205-.07-4.3-.03-6.501.033-1.79-.006-3.587-.009-5.379l-.01-5.843c-.004-.975-.093-2 .018-2.968.06-.53.154-1.016.515-1.429.741-.85 2.659-1.92 3.794-1.944.964-.02 1.941.405 2.618 1.087.351.353.615.783.675 1.283.195 1.638-.049 4.237-.058 6.003-.026 5.245-.142 10.517.074 15.758.513-.312 1.02-.603 1.467-1.009-.031-2.042.19-4.03.218-6.06.045-3.254-.089-6.5-.11-9.751-.011-1.874.18-3.793-.148-5.649-.366-.236-.749-.463-1.1-.72l-.288-1.47c-2.385-.526-4.685-.538-6.84.769-.508.307-.916.813-1.314 1.248-3.105-1.593-5.535-1.576-8.854-.541q-.07.023-.142.049c-.204.863-.37 1.773-.707 2.595-.425-.413-.899-.961-1.415-1.25-.773-.434-2.572-.41-2.911-.706.117-.353.391-.541.663-.775l.063-.08zm-7.263-.267c.127.185.27.442.433.591.276.252.778.096 1.125.066l.155.125-.155-.125c-.028-.119.005-.26.016-.381.724-.502 1.574-.801 2.376-1.163l-.168-.271c-.767.246-2.108.593-2.53 1.312l.008.137c-.226.101-.384-.108-.581-.233-.647-.41-1.041-.53-1.813-.54l-.089.103c.231-.078.13-.075.3-.055l.034.26c.322 0 .585.081.889.174m156.328 53.188.067.069c1.746 1.703 3.474 3.485 5.372 5.019 1.162.939 2.434 1.752 3.665 2.596 1.078.74 2.143 1.511 3.302 2.12 1.16-.366 2.142-1.031 3.15-1.695.684-.438 1.335-.87 1.95-1.404-4.922-2.264-12.123-6.012-17.439-6.636zm-159.466 8.915c-1.862 1.196-9.837 8.7-11.168 10.566.756.762 1.7 1.227 2.643 1.72l1.729.938a305 305 0 0 0 6.182-9.128c-.196-.328-.504-.227-.672-.618.198-.396.6-.79.674-1.221l-.113-.148-.367-.003c-.105-.68.838-1.468 1.092-2.106l.06-.053zm67.479-179.089c-1.05.456-2.823.985-3.553 1.867-.672 2.133 2.899 12.471 3.782 15.203.264.763.506 1.552.82 2.295.153-1.49.286-2.973.322-4.472.048-2.033-.065-13.277-.976-14.566-.107-.15-.223-.264-.395-.327m10.701.299c-1.113 4.055-1.356 14.225-.979 18.576.473-1.038.938-2.153 1.286-3.24 1.401-4.359 2.58-8.88 4.231-13.146-1.459-.825-2.947-1.646-4.538-2.19M117.028 15.1c-1.715.7-3.625 1.483-5.135 2.567 1.613 5.084 3.121 10.133 5.362 14.993.499 1.03 1.044 2.058 1.478 3.117.336-5.45.03-10.834-.47-16.261-.108-1.181-.098-3.089-.672-4.118-.213-.165-.295-.233-.563-.298m22.654.651c-.888 2.012-2.02 13.058-2.152 15.723-.068 1.373-.06 2.78.103 4.147q.814-1.281 1.44-2.664c1.959-3.869 4.423-10.828 5.112-15.096-1.405-.827-2.886-1.786-4.503-2.11m-29.67 2.602c-1.198.584-2.5 1.135-3.579 1.924.623 4.523 2.53 9.404 4.549 13.485.39.726.776 1.438 1.237 2.121.2-3.339-.008-15.135-1.598-17.42-.23-.138-.346-.131-.61-.11m35.937.404c-.447 1.587-.713 3.227-1.015 4.846-.74 3.964-1.394 7.833-1.074 11.887.496-1.025 1.082-1.972 1.686-2.934 1.363-2.737 2.457-5.579 3.551-8.429.407-1.058.928-2.117 1.247-3.203-1.4-.83-2.9-1.522-4.395-2.167m-41.688 2.605c-1.539.687-3.107 1.376-4.377 2.514 1.541 3.553 2.765 7.21 4.426 10.718.383.864.787 1.684 1.267 2.498.32-2.398.063-13.805-.825-15.603-.23-.125-.204-.138-.49-.127m47.796.669c-.372 1.56-.646 3.14-.972 4.711-.684 3.293-1.516 6.458-1.168 9.854.595-.966 1.172-1.95 1.82-2.881 1.31-2.413 4.02-7.177 4.74-9.668-1.398-.738-2.888-1.596-4.42-2.016m-54.25 2.692c-1.484.631-3.048 1.274-4.324 2.28.803 2.419 2.584 5.905 3.906 8.134.354.614.698 1.46 1.317 1.83l.344-.005c.365-.404.187-1.291.159-1.84-.069-1.354-.699-9.754-1.157-10.297zm60.631.467c-.44 1.939-2.427 9.949-2.075 11.234.367.112.833.128 1.186-.048.596-.298.957-1.27 1.288-1.826 1.383-2.399 2.771-4.801 3.976-7.296-1.425-.808-2.854-1.463-4.375-2.064m-66.994 2.8c-1.198.607-2.47 1.197-3.563 1.979.419 1.657 2 4.984 2.872 6.509 1.037.063 2.068.136 3.108.087-.314-1.245-2.011-8.08-2.417-8.575m72.966.082c-.82 2.88-1.708 5.745-2.492 8.633.882-.17 2.631-.138 3.12-.913l.065-.115c1.193-1.72 2.55-3.538 3.468-5.416-1.386-.732-2.766-1.477-4.161-2.189m-78.975 3.143c-.99.477-1.957.954-2.89 1.537.136.716.297 1.398.516 2.095l1.658.216 2.253.296c-.316-1.273-.585-2.97-1.247-4.083zm85.26.38c-.512 1.317-.793 2.72-1.253 4.059 1.057-.058 2.118-.14 3.175-.167.498-.778 1.041-1.552 1.486-2.361q-1.65-.884-3.407-1.53m-90.3 2.038c-.431.185-1.213.404-1.468.8.206.26.487.234.803.296.479.012.692.073 1.111-.175.055-.224.098-.203-.03-.424a2 2 0 0 0-.416-.497m96.154.43h.137zm-.513.25h.15zM98.26 40.382c-2.756 1.43-5.476 3.478-8.12 5.154L72.946 56.355c3.476 3.446 7.14 6.707 10.758 10.004 3.461 3.155 6.899 6.372 10.421 9.457 5.043.096 10.088-.069 15.132.04 1.739.038 3.463.229 5.199.307-3.173-1.803-6.622-3.25-9.957-4.728.319-.696.642-1.344 1.061-1.986a61 61 0 0 1 6.011 2.788c1.105.586 2.181 1.263 3.307 1.802.309.147.562.304.901.244.063-.169.22-.44.158-.614-.082-.224-.245-.36-.425-.508-.843-.692-1.821-1.283-2.706-1.932q-2.852-2.06-5.617-4.238c-.545-.42-1.309-.81-1.722-1.363-.244-.325-.291-.578-.219-.981.25-.386.54-.663.875-.974l.125.059c.928.453 1.787 1.08 2.649 1.645 1.575 1.033 3.186 2.042 4.708 3.151.953.695 1.835 1.5 2.801 2.172.283.197.49.325.831.378.15-.29.173-.334.062-.665-.364-1.089-3.476-3.73-4.49-4.406-.686-1.784-6.738-7.425-8.389-9.334.633-.588 1.256-1.2 1.915-1.757 1.985 2.203 4.236 4.192 6.325 6.3 2.013 2.032 3.977 4.394 6.208 6.168.238.19.463.298.771.328.226.021.28-.052.464-.157-.134-1.148-4.522-6.493-5.301-7.765a6.9 6.9 0 0 1 1.845-1.794c1.199 1.89 3.887 6.759 5.523 7.948l.263.014c.297-.496.058-1.337-.083-1.867-.358-1.346-.833-2.662-1.204-4.004-.454-1.641-.793-3.316-1.27-4.95.838.012 1.657.042 2.49.145.08 2.385.982 4.322 1.665 6.554.336 1.1.55 2.258 1.003 3.317l.152.106c.36-.11.537-.146.776-.456.148-.883-.09-4.05-.084-5.23q.07-4.773.218-9.544c.046-1.997.001-4.02.122-6.013.792.002 1.588-.01 2.38.016l.13 9.407c.036 2.166.141 4.332.114 6.5.01 1.55.114 3.136-.214 4.66l.96.946a9.3 9.3 0 0 0 1.294-2.183c-.092-.331-.225-.708-.205-1.055.054-.93.43-1.945.596-2.873.285-1.596.46-3.23.633-4.84l1.73.252c.039 3.277.148 6.543.095 9.82 1.525-1.996 3.234-5.569 5.024-7.06.553.609 1.095 1.236 1.683 1.81-1.911 2.734-4.395 4.917-6.442 7.512.543.455 1.08.92 1.652 1.34.934-1.265 2.148-2.318 3.239-3.447 1.184-1.225 2.333-2.495 3.559-3.679 2.131-2.06 4.364-4.017 6.474-6.098.51.642 1.013 1.289 1.562 1.897-2.153 2.227-4.267 4.477-6.477 6.648-1.782 1.75-3.71 3.442-5.379 5.297-.321.357-.9.93-.949 1.418-.017.167.171.41.252.557.591-.002 1.092-.564 1.491-.97.966-.982 1.831-2.09 2.886-2.977.706.511 1.159 1.07 1.605 1.814-.553.489-4.705 3.835-4.827 4.17.49.154 1.448-.407 1.938-.616 2.289-.976 4.508-1.69 6.898-2.374.352.638.662 1.237.894 1.931-2.732 1.434-6.18 2.175-9.159 3.008-.155.043-.138 0-.183.166-.122.456.069.914.27 1.314.706.374 6.867-.354 8.158-.39 1.205-.034 2.413.086 3.62.065 3.444-.06 6.868-.238 10.308-.387 2.217-1.857 4.264-3.967 6.388-5.933 4.712-4.363 9.422-8.75 14.21-13.028-4.654-3.36-9.482-6.47-14.232-9.69-3.083-2.091-6.136-4.439-9.363-6.286-.56-.32-1.523-.264-2.158-.28-4.113-.103-8.241-.026-12.356-.028l-22.497-.01-15.737.004c-2.586.002-5.248-.131-7.824.017m-37.357 3.957c-1.698.914-3.633 1.766-5.192 2.894.024.603.553 1.024.968 1.407.361.334.745.643 1.129.951.548.443 1.085.905 1.677 1.288.398-1.051 2.166-5.415 1.779-6.259-.088-.192-.184-.193-.361-.281m134.2-.04c-.433.594-.853 1.213-1.324 1.776.615 1.967 1.501 3.97 2.51 5.77.407-.548.799-1.118 1.245-1.634q1.27-1.607 2.669-3.105c-1.4-.888-3.523-2.447-5.1-2.807M53.26 48.468c-1.097.74-2.188 1.478-3.24 2.283 1.86 2.176 4.072 3.89 6.152 5.83l.417.304c.744-.295 1.511-2.381 1.813-3.121q.06-.151.113-.305c-.775-.774-4.509-4.861-5.255-4.991m149.174-.018c-1.139 1.255-3.917 5.578-4.66 7.128.236.776.495 1.518.816 2.264l1.344-1.232c2.01-1.954 3.911-4.068 5.97-5.96-1.054-.902-2.251-1.55-3.47-2.2M47.327 52.222c-.817.456-3.24 1.595-3.563 2.462.653 1.533 6.883 6.662 8.507 8.037l1.057.996c.48-.74.94-1.492 1.516-2.161-1.264-1.92-5.73-8.07-7.301-9.329zm161.134.016c-1.784 1.87-6.159 8.96-5.97 11.54.003.052.016.103.024.154.266.039.4-.133.613-.29.556-.409 1.068-.906 1.584-1.366 2.673-2.43 5.188-4.971 7.675-7.589-1.287-.856-2.636-1.605-3.927-2.449M40.755 56.229c-1.132.783-2.302 1.554-3.336 2.466.896 1.039 2.113 1.862 3.196 2.696 2.613 2.014 5.413 3.906 7.929 6.028l1.213.949c.276-.515.536-1.054.867-1.536-1.47-1.828-8.304-10.131-9.869-10.603m173.999.217c-2.555 2.642-6.492 7.813-8.084 11.14 1.009-.543 1.945-1.168 2.893-1.808 2.903-1.993 6.73-4.413 9.124-6.934-1.169-.794-2.587-1.976-3.933-2.398m5.906 3.754c-3.576 3.336-7.147 7.082-10.006 11.054 1.052-.392 2.039-.899 3.04-1.404 2.642-1.343 5.115-2.883 7.548-4.576 1.19-.828 2.266-1.894 3.555-2.552-1.158-.84-2.778-2.119-4.137-2.522m6.197 4.026q-6.483 5.258-12.72 10.805c1.34-.415 2.694-.807 4.02-1.27 4.71-1.834 9.305-4.183 13.682-6.702-.842-.68-3.993-2.805-4.982-2.833m-99.151 2.938c-3.34.52-6.229 1.973-8.248 4.749-1.588 2.184-2.02 4.95-1.578 7.586.453 2.7 2.116 5.194 4.352 6.751 1.724 1.202 3.522 1.665 5.59 1.849 2.914-.246 5.41-1.32 7.339-3.571 1.8-2.1 2.514-4.846 2.3-7.574-.225-2.862-1.547-5.261-3.724-7.113-2.249-1.913-3.266-1.548-5.664-2.584-.233-.1-.133-.073-.367-.093m106.103 1.317c-3.108 1.92-6.07 4.036-9.095 6.08-3.043 2.057-6.233 4.05-9 6.479 1.225-.316 2.433-.644 3.634-1.042q6.265-1.972 12.295-4.575c2.153-.947 4.228-2.139 6.422-2.98l-.024-1.659c-1.163-.65-3.064-1.973-4.232-2.303m4.334 6.262c-3.025 1.645-5.963 3.446-8.987 5.096-2.285 1.247-10.892 5.322-12.205 6.707.254.067.143.072.33.035 7.26-1.24 14.657-2.876 21.319-6.117.022-.967.05-5.073-.436-5.704q-.01-.01-.02-.017m.448 8.403c-.61.17-1.178.383-1.75.654-1.497.707-13.731 7.047-14.243 7.703-.05.064-.08.141-.12.212l.22.139q2.179-.088 4.328-.452c1.899-.33 10.723-2.281 11.636-3.426.525-.659.146-3.709.085-4.603zm-221.321.739c-.187 1.404-.32 2.781-.25 4.198 3.183 1.67 12.206 3.449 16.005 3.831-.366-1.004-7.458-4.498-8.87-5.159-2.183-1.02-4.58-2.182-6.885-2.87m115.29 6.03c.124.431.19.85.577 1.127-.022-.433.023-.654-.23-1.014zM17.077 91.352c-.475 1.468-.382 3.172-.429 4.704 3.268.797 10.553 1.953 13.822 1.63l.313-.139c-.322-.828-2.914-1.784-3.79-2.169-3.235-1.423-6.545-2.968-9.916-4.026m221.586.045c-.942.247-1.909.481-2.818.83-2.016.773-10.464 4.63-11.818 5.895.106.262.299.38.51.558 4.776-.808 9.744-1.585 14.398-2.917.034-1.284.178-3.028-.138-4.274zM16.704 98.563c-.25 1.66-.213 3.352-.124 5.025 1.902.137 9.936 1.728 11.163.628q.082-.075.16-.152l.77-.882c-2.538-1.353-9.226-4.411-11.969-4.62m221.758.328c-3.834.954-7.776 2.238-11.206 4.234a32 32 0 0 0 1.66 1.988c.247.2.266.245.598.212 1.248-.126 8.309-1.868 9.566-2.428l.15-.066c.036-1.099.275-2.904-.23-3.901a1 1 0 0 0-.538-.039m-221.838 6.982q-.353 2.14-.354 4.309 3.283.546 6.54 1.238l.699-.983 1.365-1.868c-2.664-1.08-5.453-2.025-8.25-2.696M239.26 106q-3.863 1.388-7.76 2.673c.51.832 1.083 1.601 1.676 2.377l.645.81c1.15-.346 4.973-1.2 5.676-1.853.216-.563.19-3.19-.017-3.79-.023-.07-.073-.127-.11-.19zm-222.777 7.7c-.107 1.073-.643 3.67.041 4.544.133.17.239.154.435.204.88-.224 1.321-.945 1.852-1.625.553-.721 1.151-1.437 1.61-2.222q-1.966-.462-3.938-.9m222.898.456c-1.094.226-2.172.448-3.29.516.553 1.053 1.23 2.05 1.94 3.003.306.466.543.913 1.048 1.187l.34.022c.43-.379.477-.774.51-1.332.065-1.076-.06-2.215-.118-3.294l-.125-.135zm-132.29 4.93c-.534.722-1.187 1.315-1.73 2.017.167.128.623.566.813.537.534-.08.858-.653 1.454-.692 1.08-.07 2.365.368 3.442.531 1.175.178 2.354.276 3.529.472 2.475.412 4.922.929 7.416 1.222.456-.225.92-.44 1.37-.676 1.045.787 2.961 1.31 4.268 1.328.905-.062 1.987-.146 2.801-.565l.026-.113c-.936-.369-2.338-.202-3.348-.305-.955-.097-1.895-.333-2.846-.466-.314-.044-.825-.018-1.11-.117-.151-.053-.328-.283-.427-.397-.9-1.025-9.95-1.98-11.878-2.246-1.227-.17-2.547-.518-3.78-.53m39.992.334q-3.488.529-6.982 1.022c-2.228.304-4.604.5-6.755 1.168-.556.173-1.018.349-1.424.774l-.094.299c.277.318.578.366.993.395a8 8 0 0 0 1.524-.054c1.43-.09 2.749-.424 4.15-.672 1.186-.21 2.387-.325 3.572-.541 2.41-.438 4.605-1.133 7.031-.396-.306-.691-.593-1.74-1.339-2.052-.214.016-.469.008-.676.056m-39.723 2.778c-.001.493-.056 1 .159 1.456 1.163.793 7.205 1.06 8.711.858-.158-.44-.252-.64-.681-.847-1.372-.663-3.127-.507-4.61-.726-1.202-.177-2.396-.465-3.58-.741m-21.648.337c-2.934.538-5.882.903-8.824 1.377-4.696.756-9.384 1.564-14.092 2.25-2.917.426-5.816.907-8.724 1.395-1.344.225-2.77.335-4.077.718 1.37.342 2.335.345 3.726.148 3.151-.406 6.309-.663 9.424-1.307.341.757.672 1.107 1.458 1.414.568.221 1.189.363 1.775.539.238-.778.43-1.598.882-2.283l-.043-.124-.216-.08c1.209-1.147 6.44-.452 7.04-.714.135-.058.338-.357.434-.477 2.177-.951 10.78-.72 12.052-2.07.06-.326-.043-.467-.187-.749-.276-.101-.335-.088-.628-.037m60.832.137c-1.917.146-5.295.745-6.911 1.71l.102-.021-.027.232c.59.11 1.076.034 1.657-.06 1.471-.182 2.83-.096 4.28.234l2.547-1.163c-.222-.338-.447-.782-.867-.885-.237-.058-.535-.048-.78-.047m-59.403.42c.16.586.837.976.853 1.531.014.444-.45 1.115-.243 1.478l.328.127c.19-.74.576-1.73.148-2.444-.22-.369-.697-.578-1.086-.692m82.473.18-.184.052c-.808.223-2.35.124-2.92.662l.043.173c1.547.442 3.351.25 4.95.29 1.01.026 2.023.15 3.026.28 3.45.447 6.836 1.2 10.269 1.684 5.857.825 11.753 1.427 17.6 2.326.762.062 2.192.358 2.808-.121l.045-.273c-.349-.239-.767-.306-1.177-.376-2.267-.387-4.596-.587-6.878-.9l-11.79-1.711c-4.405-.62-8.792-1.471-13.205-2.001-.85-.102-1.734-.225-2.587-.085m-51.245.374c-.378.176-.709.303-.975.64-.084.33-.137.507.022.825.25.5.85.937 1.294 1.257 1.257-.278 1.943-.296 3.172.084.441-.468 1.356-1.219 1.345-1.894-.455-.597-2.081-.802-2.817-.903-.671-.093-1.367-.079-2.041-.01m18.414.143c-1.062.183-4.621.539-5.19 1.39-.14.211-.18.41-.224.654l.107.261.29.046c.14-.37.111-.397.459-.573.423.017.802.115 1.211.22 1.123.172 2.279.258 3.389.485.645-.316 1.593-.69 1.783-1.475.068-.285-.018-.527-.226-.726-.379-.36-1.117-.342-1.599-.282m-11.768.272c.056.444.107.685.438 1.014-.04-.377-.012-.681-.235-.993zm-20.668.105c-2.302.404-4.565.92-6.831 1.489-2.38.596-4.925 1.405-7.384 1.48-.432-.3-.86-.616-1.303-.9-.112.559-.322 1.175-.135 1.728.237.181.308.191.606.237 3.081-.649 6.145-1.374 9.232-1.996 1.738-.35 3.614-.546 5.312-1.028.602-.17 1.246-.384 1.74-.773l-.064-.24.115.067q-.097-.034-.195-.065c-.353-.106-.733-.038-1.093.001m44.737-.132c.15.313.275.813.613.96 1.428.619 4.254.966 5.881 1.324 2.584.569 5.12 1.27 7.667 1.977-.125-.437-.144-.678-.47-1.004-1.244-.384-2.541-.605-3.811-.888-3.148-.701-6.832-1.415-9.88-2.369m-63.956.847.084.174.139-.069-.005-.252zm86.816-.02c-.306.164-.833.35-.963.662.277.165.533.174.846.201l.402.095c.146-.27.113-.33.036-.63-.046-.183-.032-.123-.171-.299zm-87.822.189c-.657.071-2.07.068-2.572.443.094.287.181.318.437.474.027.016.058.025.087.037a8.2 8.2 0 0 0 2.335-.62l.173-.242-.06-.107zm-5.84.032c-.219.372-.358.498-.328.937.112.099.221.206.342.294.23-.305.297-.373.344-.747-.115-.21-.18-.319-.358-.484m90.194.076c-.482.083-.806.137-1.2.438l-.096.24c.197.291.407.347.746.441.52-.026.703.01 1.141-.287.073-.2.129-.193.044-.348-.117-.211-.411-.396-.635-.484m-60.341.153c-.416.236-.89.439-1.162.845.172 2.995.145 6.09-.013 9.086-.138 2.616-.575 5.23-.803 7.842-.135 1.548-.475 7.8.071 8.944.294.13.146.114.442.066.465-3.57.618-7.164.98-10.743.314-3.103 2.141-12.689 1.118-14.981-.17-.38-.257-.863-.633-1.059m2.709.226-.052.32c.972.266 1.685.391 2.68.134l.306-.088c-.354-.373-1.314-.418-1.84-.437-.364-.014-.734.03-1.094.071m35.179-.036c-.187 2.157.76 5.638.987 7.97.227 2.318.294 4.646.476 6.966.185 2.361.488 4.708.71 7.065.1 1.074.075 2.178.214 3.244.045.347.2.79.434 1.059.235.271.458.343.805.338q.087-.002.175-.008c.245-1.44-.523-5.154-.657-6.9-.434-5.65-.708-11.312-1.038-16.966-.034-.584.088-1.84-.294-2.297-.348-.416-1.074-.5-1.582-.482q-.114.004-.23.011m-70.524.142c-.283.315-.76.782-.74 1.243.013.342.296.65.568.83.388.257.736.294 1.19.29l.266-.155c.061-.24.11-.457.145-.703.026-.186.053-.293.133-.46-.31.135-.73.38-1.065.216-.126-.062-.207-.136-.314-.223l.007-.192c.221-.143.393-.256.668-.213.23.036.485.154.704.236l.21-.099a3 3 0 0 0-.046-.786c-.23-.042-.306-.032-.528-.003-.404.053-.793.038-1.198.019m98.391-.002q-.077.08-.157.16c-.35.344-1.036.361-1.118.89l.151.06.174-.077c.844-.367 1.47-.337 2.382-.297.424.094.576.174.992.023l.12-.157c-.123-.295-.267-.368-.557-.498-.593-.265-1.352-.137-1.987-.104m-33.537.101c1.224.295 2.774.97 4.022.761l.206-.033q.064-.011.127-.025c-.182-.303-.285-.376-.632-.47-1.14-.307-2.552-.328-3.723-.233m-60.89.078-.042.433c.415.426 1.165 1.164 1.744 1.312-.066-.251-.028-.334-.249-.486-.535-.368-.888-.733-1.333-1.183-.034-.034-.08-.05-.12-.076m4.53.31c-.376.093-.689.143-.98.418l.026.18c.377.206.588.17.992.144q.112-.007.226-.012l.149-.01c.32-.052.354-.005.592-.249-.115-.322-.162-.29-.433-.469zm26.575-.042c-.454.98-.785 1.985-.898 3.065-.161 1.537-.296 3.204-.245 4.749.045 1.319.263 2.64.248 3.96-.024 2.164-.274 4.33-.328 6.494-.038 1.506.092 3.011.069 4.518-.014.905-.28 2.495.026 3.33.044.116.076.148.144.237.403-.035.7.03.992-.262.196-1.183.028-2.538.021-3.74-.03-5.508-.518-10.992-.569-16.505-.012-1.272.046-2.616.254-3.874.09-.54.475-1.365.382-1.88zm59.926-.035c-.114.211-.23.416-.324.638-.174-.123-.192-.23-.283-.419-.256.12-.215.134-.334.371l.153.221.342.009c.384.164.549.306.964.214.085-.253.108-.165.003-.388a1.76 1.76 0 0 0-.521-.646m-100.524.226c-.52.087-.848.155-1.275.474l-.059.173c.283.132.649.063.956.006.443-.152 1.112-.29 1.446-.62l-.12-.053-.067.205-.025.006-.037-.237zm11.657-.079c.117.414.118.585.444.875l.55.07c-.323-.312-.641-.666-.993-.945m95.148.017c.288.184.498.391.849.397q.013-.002.025-.008c-.112-.249-.031-.206-.244-.285-.217-.081-.401-.091-.63-.104m-48.495.203c-1.381.16-4.065.505-5.033 1.597-.815.92-.986 11.388-.941 13.29.029 1.216.235 2.422.276 3.636.03.933-.15 2.1.053 3 .103.456.85 1.016 1.198 1.334.182 1.24.316 2.468.42 3.716l3.48.081c1.338-.021 2.65-.032 3.957-.361-.07-1.595-.23-3.205-.269-4.797.405-.14.959-.25 1.264-.551-.072-3.365.219-6.704.294-10.063.03-1.331-.058-2.662-.068-3.992-.013-1.64.212-3.537-.365-5.096-1.275-.998-2.619-1.692-4.266-1.794m53.9-.13-.049 1.006.174.06c.994.348 1.857.927 2.776 1.431.948-.182 1.893-.36 2.828-.602-.127-.323-.095-.36-.405-.503-.417.126-.989.448-1.406.46-.877.026-2.379-.932-3.158-1.346a5 5 0 0 1-.76-.505m-2.5.147c.02.44.151 1.281-.196 1.616-.24.232-.615.332-.923.449l-.061.154.09.091c.737-.27 1.114-.538 1.442-1.267.143-.318.14-.551.033-.882-.13-.065-.243-.124-.385-.161m-107.342.357-.342.391c.067.43.138.633-.109 1.031l.054.225.564-.093c.242-.392.246-.676.144-1.115q-.037-.159-.08-.316zm43.422.091c-.535.243-1.326.56-1.515 1.177-.207.678.144 1.493.121 2.202-.052 1.599-.316 3.2-.376 4.804q-.3 8.948.157 17.889l1.68.649c.527-.107 1.055-.23 1.585-.318.407-.437.083-3.184.106-3.912.562-.449 1.199-.81 1.299-1.585.178-1.37-.284-2.84-.22-4.235.063-1.393.266-2.776.362-4.166.067-.986.045-1.98.126-2.964.108-1.323.352-2.604.348-3.938-.003-1.078-.703-3.618-.347-4.34-.565-.716-1.279-1.175-2.205-1.273-.367-.04-.754-.009-1.121.01m22.392.014c-.472.108-.941.182-1.353.451-.95 1.734-.08 17.914.42 20.457l.915.527c.04.453.091.916.083 1.371-.014.708-.425 2.278.2 2.777.632.505 1.71.333 2.464.31.29-.084.518-.083.654-.388 1.017-2.275-.21-14.613-.119-17.972.029-1.056.393-6.008.08-6.643-.294-.596-1.3-.819-1.88-.898-.479-.066-.985-.041-1.464.008m27.661.136c-.41.043-.904.04-1.192.381-.101.12-.143.215-.213.349.047.228-.008.228.16.33.825.504 1.825-.165 2.21 1.162.457 1.575-.117 4.82-.155 6.56-.035 1.64.26 3.292.284 4.937.027 1.906-.05 3.811-.024 5.715.01.66.168 1.31.163 1.967-.006.794-.227 1.629-.091 2.417.096.564.507 1.335 1.022 1.62.264.145.318.115.594.046.197-.26.263-.461.279-.78.05-1.042-.196-2.134-.194-3.19q.07-6.378-.072-12.754c-.031-.967-.415-4.744-.162-5.437.19-.526.752-.663 1.243-.728.37-.05.75-.042 1.123-.039.617-.512 1.266-1.122 2.138-1.01 1.175.151 1.788 1.84 2.726 2.507.196.138.389.28.586.416.035 3.488.339 6.964.376 10.45.028 2.606.094 5.218.1 7.825.002.847-.142 1.738-.087 2.575.028.427.095.815.431 1.117.332.299.699.334 1.124.276.316-.252.32-.41.353-.81.324-3.88-.191-7.761-.313-11.63-.072-2.288.165-7.436-.462-9.467.989-.307 2.407-.55 3.29-1.076.435-.26.808-.924 1.248-1.104.27-.112.575.039.81.168.84.462 1.901 1.525 2.523 2.261-.16 2.367-.017 4.705.02 7.073.038 2.397-.029 4.8.02 7.194.023 1.112.167 2.223.216 3.334.056 1.279-.176 2.72.15 3.956.415.472.934.562 1.532.615.258-.164.237-.216.292-.506.245-1.285.07-2.8.041-4.113-.036-1.668-.027-3.338-.09-5.005-.071-1.876-.796-11.255-.349-12.326.036-.085.227-.264.278-.306.344-.282 1.014-.361 1.435-.445 1.086-.023 2.135-.754 3.2-1.018.948.396 1.674.808 2.408 1.552l.035.16c.276 1.392.282 2.858.388 4.27.31 4.164.389 8.32.446 12.498.022 1.625-.233 3.389.055 4.985.093.516.36.786.78 1.078.38.266.788.482 1.262.443.399-.932.092-2.74.06-3.779-.047-1.484-.021-2.973-.096-4.456-.08-1.595-1.055-13.518-.64-14.261.271-.488 3.251-1.704 3.903-1.99.925.318 2.335.613 2.955 1.398.289 1.485.25 3.069.38 4.577q.553 6.041.936 12.095c.083 1.337-.022 2.744.102 4.056.033.36.131.616.32.92.327.204.376.21.762.21.325-.152.495-.302.625-.637.258-.67.259-1.526.233-2.24-.044-1.214-.305-2.419-.425-3.627l-.764-7.85c-.229-2.297-.133-5.939-.81-8.038l-.051-.163c-1.375-.678-2.94-1.262-4.454-1.529l-.13.06c-1.106.496-2.137.697-3.135 1.444-.588.05-1.18.117-1.771.126-.178-.689-.3-1.065-.936-1.438-1.554-.912-1.673-.793-3.107-2.094-.018.558.088 1.17-.167 1.674-.589.322-1.356.104-2.005.012-.634.49-1.314 1.195-2.173 1.11-.792-.08-1.146-.895-1.757-1.282-1.275-.809-2.788-.727-4.057-1.699-.23.463-.48 1.19-1.029 1.335-.287.076-.605 0-.892-.043l-.568-.084c-.715.337-1.383.774-2.195.5-1.024-.346-1.766-1.859-3.425-2.532l-.053-.023c-.394.283-.686.558-1.191.561-.598.004-.924.161-1.386.534-.621.501-1.365.363-2.122.354-.882-.728-1.616-1.778-2.874-1.693m-97.497.264c-.138.249-.179.306-.178.6.268.122.47.094.756.081.093.21.124.162.048.356-.245.626-1.116.662-1.332 1.264l.343.238c.484-.279.98-.781 1.116-1.337.06-.246.076-.51-.082-.723a1.34 1.34 0 0 0-.671-.478m10.4.366q-.48.162-.965.305l-.087.19.23.309a3.4 3.4 0 0 0 .906-.698zm42.89.279.049.135zm68.72-.174c-.307.182-.968.454-1.087.77.536.167 1.211.098 1.772.088.34.024.615.058.941-.07-.28-.387-1.15-.684-1.625-.788m-116.234.143-.733.102-.09.132.143.208c.31-.071.596-.073.823-.302zm37.629.321c-.281.153-.422.158-.514.479-.631 2.184.157 11.502.251 14.499l.162 6.33c.032.928-.022 1.892.166 2.803.174.177.326.313.538.442.257-.3.256-.413.277-.81.09-1.719-.018-3.482-.01-5.207q.069-6.036-.001-12.073c-.017-1.375-.068-2.762-.022-4.136.018-.532.165-1.112.132-1.635-.016-.264-.119-.427-.286-.621a3 3 0 0 0-.694-.07m83.275.157-.73.32-.068.203c.357.379 1.332.351 1.847.365q.165.005.329.007c.274-.238.481-.526.702-.812-.691-.055-1.387-.14-2.08-.082m-2.837.17h.152zm-138.594.085c-.478.103-.963.191-1.432.325-.553.586-.97 1.217-1.167 2.005l.138.081.114-.137c.774-1.126 1.942-1.3 2.652-2.226-.1-.023-.202-.062-.305-.047m89.257.2c.144 1.837.047 3.667.096 5.506.088 3.224.26 6.396.2 9.626-.048 2.498-.29 5.1-.161 7.587.021.409.081.88.38 1.183.206.055.159.09.323-.025.276-.194.417-.491.47-.817.06-.364.011-.796.002-1.165l.112-5.995c.017-.82.11-1.684.06-2.5-.035-.56-.47-.92-.477-1.472-.017-1.268.672-2.464.76-3.723.168-2.42-.213-4.825-.24-7.242.267-.243.599-.445.704-.795-.83-.039-1.388.071-2.229-.169m-22.285.388c.505 1.964.518 3.572.362 5.581l.154.08.225-.17c.25-1.288.692-4.19.293-5.405-.358-.109-.667-.097-1.034-.085m77.905.078c-.209.252-.434.473-.51.8.231-.097.158-.035.256-.135l.736-.467.015-.13c-.165-.025-.33-.056-.497-.068m-11.525.26.014.182.272-.103.117-.184zm14.327-.04c1.249.347 2.522.441 3.76.854-.893-.931-2.038-.852-3.252-.874a5 5 0 0 0-.508.02m6.401.372c-.106 7.051 1.364 13.97 2.603 20.875.297 1.655.327 3.48.745 5.092 1.097.743 5.881.737 7.299.464.888-.172 1.562-.462 2.214-1.096a5.5 5.5 0 0 0 .715-2.052c.329-2.16.212-4.501.262-6.69l.212-14.559q-4.389-.747-8.786-1.44c-1.713-.261-3.527-.633-5.263-.594m-159.705.142c-4.574.716-9.226 1.446-13.837 1.858.024 4.717.163 9.426.244 14.14.043 2.498-.175 5.203.232 7.663.113.688.335 1.129.743 1.689.374.253.711.438 1.155.54 1.197.274 5.667.371 6.878.173.509-.084.83-.243 1.13-.673.384-.55.54-1.243.64-1.896.355-2.302.172-4.688.504-7.016.396-2.782 1.008-5.519 1.44-8.292.209-1.334.29-2.686.478-4.024.187-1.333.465-2.674.572-4.016l-.101-.144zm97.782.268c-.359 1.867-.062 4.256-.095 6.207-.029 1.698-.324 3.376-.367 5.069-.058 2.3.197 4.638.27 6.941.034 1.064-.088 2.373.193 3.397.294.244.655.234 1.02.272.239-.22.243-.233.256-.573.03-.782-.075-1.592-.096-2.377-.037-1.456.035-2.921-.047-4.375-.085-1.508-.323-3.005-.398-4.514-.12-2.417-.16-4.832-.295-7.25-.048-.86.016-1.762-.227-2.594zm-40.465 1.667c-2.916 1.236-5.7 2.11-6.99 5.299-.242.597-.425 1.22-.61 1.836l.467 1.25c-.17.493-.376 1.015-.43 1.536-.184 1.774-.007 9.652.406 11.329 1.195.664 2.866.548 4.137.167q.336-.099.66-.23.324-.133.633-.297.308-.165.599-.36.29-.196.558-.42c-.22-3.693.194-7.459.415-11.15.12-2.02.063-4.048.16-6.067.04-.797.416-2.094.178-2.815zm45.247.596c-.23.666-.5 1.35-.538 2.059-.11 2.028.917 15.815 1.49 17.12.357.813 1.35 1.478 2.17 1.735 1.103.346 2.584.247 3.717.058.222-1.352.222-2.758.288-4.127.066-1.366.216-2.736.252-4.102.05-1.91-.043-3.822.017-5.737l-.087-.13c-.513-.793-.501-1.499-.74-2.367-.672-2.44-3.144-3.832-5.462-4.354q-.546-.128-1.107-.155m13.176 2.485c-.133 1.47-.01 2.978.051 4.45.107 2.578.267 5.156.361 7.733.05 1.372-.242 3.02.078 4.335.237.25.34.366.704.419.119.017.299 0 .422-.007.204-.97-.263-16.127-.443-16.447-.381-.266-.727-.365-1.174-.483m-71.423.184c-.09.998-.278 1.984-.345 2.983-.133 1.991-.064 4.018-.053 6.014.015 2.705-.077 5.505.358 8.179.426-.26.86-.507 1.25-.82.077-.867-.243-1.718-.221-2.584.025-1.016.334-2.063.435-3.08.161-1.623.724-8.987-.132-10.162-.406-.28-.822-.392-1.292-.53m69.576.673c-.874 1.843-.387 7.727-.395 9.958-.007 1.878-.36 4.07.09 5.904.268.295.498.345.878.422.153-.322.314-.648.356-1.005.108-.916.03-1.915.04-2.84.018-1.83.07-3.654.069-5.486 0-2.116.179-4.357-.047-6.456-.288-.32-.575-.398-.992-.497m-40.793.4c-.928 1.304-.679 6.846-.39 8.576.113.677.39 1.495.257 2.173-.235.241-.51.24-.826.282-.252.272-.167.419-.159.772.487.008 1.054.087 1.512-.078.229-.647-.5-2.846-.599-3.68-.305-2.56-.044-5.327.396-7.856zm-25.348.3c-.26.255-.492.387-.538.77-.084.702.038 1.529.02 2.25-.04 1.55-.624 12.22-.036 12.868.268.295.73.438 1.093.59.546-.55.522-1.309.523-2.044.002-1.185-.083-2.37-.097-3.554-.013-1.092.056-2.187.009-3.278-.078-1.786-.456-3.672-.355-5.45.03-.546.204-1.083.286-1.623.046-.301.112-.252-.104-.491a9 9 0 0 0-.801-.038m13.115.104c-.253 1.82-1.487 14.214-1.149 15.21.004.01.209.315.21.316.02.028.047.051.07.077.171-.069.43-.104.511-.283.006-.012.553-14.567.483-15.165zm50.593.795c-.209 2.578-.138 5.154-.23 7.733-.082 2.312-.437 4.684-.203 6.999.038.371.079.545.316.834l.2-.066c.245-.456.47-.918.797-1.322.013-1.543.41-13.636.07-14.125a5.5 5.5 0 0 0-.95-.053m78.624.242-2.452 3.309 2.473.816 1.878.544c.086-1.086.617-3.157-.165-3.991-.42-.45-1.165-.54-1.734-.678m-221.944.114c-.143 1.531.033 3.155.14 4.686 1.156-.323 2.377-.5 3.51-.873.251-.123.512-.23.733-.402l-.225-.262.068-.097q-.04-.03-.076-.063c-.792-.74-1.54-2.007-2.155-2.914-.662-.03-1.332-.083-1.995-.075m216.352 7.136q-.783.908-1.554 1.826c2.35 1.42 5.336 2.41 7.943 3.263.297.058.472.151.755.023.294-1.394.281-3.03.29-4.457-2.5-.083-4.947-.506-7.435-.655m-209.271.177q-3.454.293-6.92.32c.053 1.086-.11 2.958.521 3.837.3.132.556.025.856-.053 2.407-.679 4.801-1.343 7.131-2.262-.299-.473-.907-1.627-1.432-1.825-.079-.03-.091-.024-.157-.017m109.727 3.12c-.357.135-.432.135-.647.443-.11.982-.19 2.939.441 3.743.317.403.906.54 1.392.544.814.006 1.7-.069 2.494-.252.326-.179.584-.249.72-.631.263-.733.307-2.67-.09-3.337-.219-.37-.567-.457-.968-.499-1.09-.114-2.246-.03-3.342-.012m-13.081.679c-.69.637-1.69 1.06-1.71 2.088-.01.59.168 1.202.604 1.619.716.684 2.096.656 3.023.595q.28-.016.557-.052c.444-.05.889-.11 1.334-.146-.043-1.032.091-2.809-.727-3.558-.779-.712-2.111-.542-3.081-.546m-92.848 3.063c-3.33.348-6.732.836-10.03 1.409.073.839-.067 3.121.332 3.714.634.27 1.157-.002 1.772-.215 3.789-1.242 6.938-2.334 10.542-4.106-.229-.314-.451-.665-.73-.935-.602.039-1.298.023-1.886.133m200.268.054c-.358.304-.707.531-.844.997.067.319.066.369.346.565 1.537 1.07 10.024 3.447 12.368 4.246.388-.496.51-3.598.547-4.35-4.14-.474-8.27-1.037-12.417-1.458m-90.276 1.294c-1.51.4-2.952.177-4.487.219l-10.389.244c-2.228.072-4.506-.111-6.67.552 1.537.267 3.134.17 4.689.142 6.098.101 15.144.898 20.854-.91-1.222-.057-2.52.01-3.716-.239-.177-.037-.095-.031-.281-.008m-104.993 5.293c-4.95.097-9.866.926-14.66 2.167-.048 1.059-.293 3.113.276 4.027.275.033.333.003.581-.096 3.91-1.493 7.627-3.296 11.475-4.904.742-.31 3.162-.748 3.588-1.2-.427-.04-.834-.02-1.26.006m190.501.416c1.943.728 3.798 1.612 5.713 2.4 2.415.994 4.889 1.876 7.33 2.808 1.02.389 2.385 1.133 3.452 1.24l.195-.176c.071-1.522.17-3.048.211-4.57-2.153-.4-4.335-.669-6.502-.983-1.392-.202-2.8-.488-4.202-.6-2.043-.161-4.143-.053-6.197-.119m-181.039.21c1.327.587 2.703 1.058 4.044 1.61l13.668 5.478c9.683 3.864 19.33 7.77 29.139 11.308q14.544 5.083 28.807 10.91c3.727 1.496 7.609 2.86 11.24 4.563.863-.595 1.941-.9 2.891-1.338 4.215-1.94 8.565-3.628 12.863-5.378l43.2-17.222q7.701-3.006 15.314-6.23c2.748-1.15 5.63-2.226 8.274-3.595-7.884-.24-15.713.207-23.587.192l-71.942-.01-48.572-.071-16.772-.157c-2.824-.035-5.756-.282-8.567-.06m176.104.338c-.814.184-1.665.354-2.454.629-.831.289-6.483 2.675-6.748 3.01l.09.063c2.314.028 4.647.121 6.958.052.382-.601 2.28-3.186 2.189-3.726zm-178.761.661q.899 1.705 1.943 3.325c1.847-.018 3.728.18 5.562.101-1.532-.615-3.067-1.23-4.556-1.944-.987-.475-1.944-1.056-2.95-1.482m-5.41 4.61c-2.039.23-4.163.447-6.165.88-1.947.422-3.882 1.056-5.8 1.605-1.117.32-2.394.573-3.426 1.101-.526.828-.525 3.182-.302 4.133.01.047.028.093.042.14.426-.005.828-.208 1.219-.363l8.616-4.176c2.511-1.221 4.918-2.463 7.567-3.375-.577.01-1.18-.018-1.75.054m187.683.368c3.659 1.816 7.455 3.449 11.176 5.141 1.911.87 3.836 1.924 5.782 2.686.27.105.502.15.784.061.062-.019.121-.047.182-.07.044-1.693.137-3.389.164-5.08l-7.749-1.526c-1.48-.3-2.97-.689-4.469-.88-1.935-.249-3.921-.263-5.87-.333m-178.947.426q.833 1.37 1.735 2.696l8.687-.045c1.517-.008 3.078.055 4.59-.044-2.06-.827-4.365-2.042-6.531-2.48-2.013-.407-6.213-.09-8.481-.127m160.728.043c-2.114.864-4.238 1.708-6.34 2.6l11.522.034c1.406-.002 2.82.026 4.225-.022.563-.869 1.154-1.73 1.68-2.622-3.668-.013-7.427-.188-11.087.01m-165.634 4.293c-3.889.186-16.305 4.082-19.578 6.056-.06 1.136-.477 3.845.188 4.776 1.716-.57 3.353-1.61 4.936-2.483q3.608-1.975 7.15-4.066c2.463-1.468 4.809-2.979 7.43-4.157l.006-.122zm7.94.367c.493.94 1.078 1.832 1.639 2.73q6.398.063 12.796-.002c3.21-.014 6.444.051 9.65-.128l.056-.109c-1.827-.725-3.844-1.967-5.756-2.345-1.836-.363-4.355-.117-6.258-.117zm174-.069c.521.636.993 1.214 1.665 1.696l.206.15c1.248.895 16.365 8.858 17.189 8.977.108-.061.209-.103.287-.201q.204-2.547.362-5.097c-2.79-1.113-17.335-5.578-19.71-5.524m-28.98.433c-2.174.798-4.287 1.702-6.484 2.446 6.851.26 13.75.099 20.605.08 1.522-.006 3.067.039 4.587-.04a13.8 13.8 0 0 0 1.754-2.513q-6.463-.054-12.925-.02c-2.495.003-5.048-.102-7.537.047M39.916 174.79c-4.32 1.374-8.431 3.136-12.632 4.811-3.288 1.31-6.819 2.48-9.895 4.246l-.007 1.885c.437.256.871.523 1.316.766l2.619 1.391q2.118-1.021 4.057-2.352c3.915-2.642 7.587-5.668 11.402-8.453.621-.453 2.928-1.773 3.148-2.249zm175.073.221c1.67 1.19 3.224 2.547 4.917 3.699 2.904 1.977 5.991 3.723 8.96 5.607 1.686 1.072 3.441 2.451 5.269 3.25 1.04-.425 2.035-.935 3.038-1.44l1.358-.68.052-1.576c-2.803-1.494-5.898-2.554-8.848-3.734-4.758-1.902-9.66-4.318-14.746-5.126m-166.827.485c.677 1.005 1.337 2.027 2.06 2.999l21.37.022q6.204-.062 12.408.065c-1.103-.668-5.761-2.657-7.042-2.897-2.272-.425-6.831-.16-9.293-.162zm129.555.137c-2.311.915-4.703 1.74-6.973 2.742q15.157-.175 30.315-.128c1.606-.005 3.23.037 4.833-.043l1.653-2.526c-9.937.053-19.894-.197-29.828-.045m-11.875 4.93c-1.996.048-5.172 1.857-7.125 2.671l38.769-.038 5.23-.036c.599-.845 1.218-1.682 1.755-2.568-5.08-.264-10.256-.064-15.343-.056-7.76.012-15.526-.06-23.286.027m-114.253.126c.068.739 1.262 2.137 1.7 2.798l29.663.014 9.261.018c1.845.004 3.724.08 5.563-.047-.917-.681-5.75-2.397-6.948-2.559-1.403-.19-2.913-.107-4.33-.114l-7.627-.029zm-11.418.933-10.622 4.824c-1.923.864-4.053 1.605-5.806 2.773a27 27 0 0 0 2.18 1.536c.901.56 1.783 1.096 2.782 1.466 1.691-.848 3.153-2.501 4.506-3.815 2.305-2.24 4.548-4.656 7.067-6.654-.07-.13-.02-.103-.107-.13m6.683 1.269c-3.65 2.34-7.127 4.948-10.708 7.391-1.721 1.174-3.704 2.173-5.308 3.477.574.455 1.16.85 1.78 1.24.924.535 1.842 1.07 2.807 1.53 2.794-2.716 5.13-5.914 7.59-8.929 1.262-1.548 2.673-2.99 3.887-4.574zm163.268 2.052c.083.395.156.828.365 1.179.612 1.027 1.58 1.956 2.371 2.858.752.857 1.416 1.792 2.177 2.64 1.261 1.404 3.91 3.894 5.451 4.914.772-.361 1.537-.764 2.201-1.304l1.542-1.064c-3.08-2.854-10.17-8.051-14.107-9.223m-59.181.582c-2.191.813-4.297 1.837-6.463 2.711 6.688.181 13.407.08 20.099.07l30.343-.07c1.55-.008 3.132.044 4.677-.064.56-.866 1.16-1.725 1.653-2.631-10.663-.21-21.36-.004-32.027-.014l-11.95-.02c-2.084-.005-4.262-.143-6.332.018m-96.401.11c.61.921 1.21 1.85 1.834 2.762l54.882.055c-1.852-.728-4.83-2.387-6.602-2.686-1.607-.271-3.409-.12-5.044-.123l-9.414-.013zm-4.302 1.629-7.896 6.315c-1.644 1.32-3.44 2.613-4.893 4.142.516.522 1.125.907 1.732 1.315.78.555 1.496 1.091 2.434 1.35 1.797-1.456 6.085-7.436 7.29-9.693-.041-.06-.089-.115-.125-.179-.146-.259-.04-.516.07-.77.342-.795 1.249-1.68 1.388-2.48m155.044 1.644c.466 1.04.883 2.128 1.49 3.096 1.996 3.177 5.13 5.495 7.29 8.528l2.416-1.41c.52-.343 1.06-.672 1.541-1.068-2.664-3.175-6.058-5.443-9.59-7.538-.964-.573-2.066-1.3-3.147-1.608m-66.492 1.525c-1.887.389-5.19 2.298-7.199 3.09l59.219-.24c1.645-.005 3.303.031 4.946-.026.95-.878 1.691-1.793 2.407-2.868l-37.364-.012c-7.33 0-14.682-.112-22.009.056m-81.257.095c.673.885 1.203 1.854 1.752 2.817 3.136.417 6.511.18 9.681.181h17.673l26.403.003q3.815.001 7.63.042c1.461.017 2.96.11 4.42.045-2.114-.838-6.056-2.692-8.151-2.999-2.048-.299-4.33-.116-6.403-.119l-12.45.002zm144.237 3.276c.243.942.438 2.022.85 2.902.651 1.396 4.272 6.388 5.512 7.058.209.113.292.101.526.033.71-.209 1.527-.877 2.148-1.283l1.135-.724c-1.484-1.993-5.194-5.548-7.301-6.802-.902-.536-1.871-.88-2.87-1.184m-129.806 1.76c-1.815.007-3.63.03-5.445.015 1.506.932 3.686 2.69 5.475 2.867 2.383.235 4.949.04 7.349.028l13.421-.028 45.914-.048 33.668.02 8.845.045c1.094.011 2.43.222 3.488.068.039-.006.074-.025.111-.038 1.806-.93 3.66-1.907 5.392-2.97-3.54.342-7.836.059-11.456.048l-22.161-.006-59.612-.007c-8.325.006-16.666-.11-24.99.006m-14.512 1.924c-1.448 1.369-2.733 2.928-4.07 4.406-1.051 1.164-2.325 2.357-3.178 3.667.734.639 1.581 1.143 2.422 1.629.523.286 1.041.586 1.579.841.759-1.18 3.572-5.321 3.678-6.423l-.238-.433c.127-.41.41-.74.659-1.083l-.188-.116a10 10 0 0 1-.664.218c-.33-.748.584-2.005 0-2.706m140.818.22q-.435 1.587-.838 3.183c1.449 2.239 2.898 4.808 4.636 6.82a26 26 0 0 0 1.863-1.068c.632-.407 1.279-.803 1.892-1.237-1.04-1.499-3.46-4.087-4.834-5.316-.9-.806-1.888-1.5-2.72-2.382m-22.055 2.731-101.552.071c1.617.889 3.607 2.331 5.337 2.862 8.001.179 16.032.048 24.037.045l42.418-.031 20.768-.033q2.644 0 5.287.033c1.103.015 2.297.117 3.392-.034 1.338-.184 4.37-2.061 5.49-2.868q-2.588-.054-5.177-.045m19.948 3.27c-.574 1.6-1.407 3.364-1.683 5.033.332.878.688 1.706 1.229 2.48.653-.317 1.311-.626 1.946-.978.755-.435 1.547-.85 2.254-1.357-1.04-1.786-2.204-3.771-3.746-5.178m-136.47.619c-1.14 1.605-2.61 3.16-3.572 4.854 1.13.667 2.286 1.268 3.454 1.865l1.815.902c.209-.605.405-1.2.55-1.824-.332-1.085-1.558-5.169-2.247-5.797m23.42.968c1.465.937 4.441 2.837 6.096 3.054 2.093.274 4.337.127 6.446.096q4.242-.064 8.486-.067l32.044.001 21.42.085c2.286.012 7.837.28 9.838-.126 1.127-.23 2.326-1.178 3.347-1.719.596-.338 1.222-.66 1.794-1.035-8.165-.22-16.359-.083-24.527-.076l-39.978.01c-8.318 0-16.653.126-24.965-.223m8.93 4.99c1.5 1.04 4.057 2.91 5.836 3.158 1.182.165 2.432.095 3.624.093l6.034-.01 20.92.006 22.226-.01c1.983-.005 6.23.272 7.928-.029 1.294-.229 2.695-1.279 3.822-1.952.64-.397 1.304-.777 1.922-1.205zm101.188 1.4c-.151.376-.377.75-.327 1.155.121.027.236.061.361.062.263-.26.359-.272.381-.635zm-93.527 4.67c-.465.46-.931.913-1.299 1.459-1.657 2.457-4.148 8.253-4.371 11.178.544.311 1.081.621 1.653.88.77.395 1.544.844 2.34 1.18.71-3.402.831-7.076 1.194-10.54.141-1.353.483-2.806.483-4.158m-5.998.412c-.73.272-1.466.532-2.187.824-.929 1.328-3.586 6.285-3.397 7.87.04.333.085.419.354.612.25.18.553.299.834.425.781.379 1.562.794 2.361 1.133.453-1.313 2.181-10.014 2.034-10.864m12.36.058a9 9 0 0 0-.883 1.383c-.984 1.971-5.216 12.143-4.996 13.883.305.45.856.634 1.341.839.738.356 1.77 1.037 2.598 1.017.298-.165.42-.263.536-.594.182-.515 1.62-15.62 1.548-16.379zm56.004.114c.345 3.707 1.171 7.24 2.802 10.59.74-.326 1.48-.643 2.19-1.034.41-.248.83-.487 1.229-.755-1.37-2.983-3.063-5.698-4.903-8.403zm-5.4.595c-.219 1.869 1.223 11.264 1.786 13.425a56 56 0 0 0 2.897-1.468l1.303-.713c-.717-1.771-4.744-10.443-5.986-11.244m-69.919.767c-.963.067-1.86.19-2.8.417-.917 1.223-1.089 2.692-1.334 4.16.466.297.926.606 1.412.87.603.29 1.203.594 1.811.87.288-1.047 1.392-5.462 1.162-6.272zm63.167-.11c.12 3.884.524 7.495 1.21 11.321.271 1.505.515 3.093 1.099 4.512.909-.494 1.807-.965 2.763-1.364.462-.227.942-.42 1.309-.788-.042-1.278-5.099-12.42-6.062-13.442-.133-.141-.173-.154-.32-.239m19.227.363c.492 2.04.85 4.102 1.31 6.148l2.36-1.306.95-.504c-.497-1.233-1.143-2.548-1.865-3.664a50 50 0 0 0-2.755-.674m-50.597.52c-2.487 4.57-4.464 10.767-5.688 15.85-.257 1.066-.695 2.297-.537 3.394.396.519 1.166.786 1.747 1.056.933.452 2.298 1.376 3.244 1.606 1.012-1.73 2.047-19.161 1.368-21.778zm18.85-.001c-.065 2.891 1.127 18.814 2.264 20.8.828.228 2.835-1 3.649-1.368.404-.23.76-.398 1.015-.799.039-1.337-5.773-17.45-6.818-18.54-.033-.034-.073-.062-.11-.093m-57.822.479c-.99.094-1.981.169-2.953.392.686.46 1.376.824 2.122 1.177.489.234.987.546 1.539.546.233-.137.33-.167.416-.442.155-.491.098-1.195.117-1.713-.404.008-.843-.017-1.241.04m32.586.033c-2.442 2.802-4.899 11.888-5.866 15.702.564.337 1.124.686 1.71.987.805.426 1.636.94 2.51 1.199.229-.081.152-.01.268-.26.822-1.76 1.808-14.943 1.54-17.397zm31.473-.001c-.125 2.472 1.18 15.693 2.417 17.313.084.11.08.123.207.114.716-.049 2.089-1.022 2.772-1.394l1.071-.586c-.858-2.693-4.789-14.063-6.466-15.447m31.751.175c.278.599.534 1.224.862 1.797.571-.282 1.144-.56 1.704-.863l.48-.369-.025-.189c-.837-.393-2.094-.232-3.02-.376m-43.115 4.343c-.376 4.856-.037 9.778.464 14.613.152 1.473.247 3.034.548 4.484 1.036-.27 1.959-.755 2.928-1.194.494-.21 1.024-.371 1.382-.787.335-1.462-4.167-15.292-5.255-17.024q-.031-.047-.067-.093m-9.516.233c-.836 1.975-4.022 15.533-3.852 17.307.443.58 1.483.93 2.144 1.234.514.281 1.01.604 1.594.703.292-.12.278-.127.387-.41.397-1.02.353-2.508.44-3.613.288-3.663.95-11.573-.502-14.814a5 5 0 0 0-.211-.407"/><path d="M73.201 49.106c-.949.12-1.766.082-2.646-.33a4.43 4.43 0 0 1-2.309-2.589c-.363-1.111-.209-2.369.364-3.383.65-1.151 1.634-1.691 2.859-2.035.948-.057 1.776-.081 2.657.323q.203.095.396.21.192.114.373.246.18.133.346.284t.317.316.283.346.248.372.21.395.169.415c.363 1.024.313 2.131-.19 3.099-.647 1.246-1.79 1.905-3.077 2.331m110.761.511c-.931.104-1.77.019-2.625-.394q-.1-.047-.196-.1-.097-.052-.191-.11-.094-.057-.185-.119t-.179-.129-.172-.138q-.083-.071-.164-.147-.08-.075-.156-.155-.077-.08-.149-.163t-.14-.17-.13-.177-.121-.184-.112-.19-.102-.195-.091-.2-.082-.205-.07-.209c-.336-1.124-.164-2.375.424-3.385.635-1.09 1.595-1.663 2.79-1.962.85-.064 1.644.001 2.434.341 1.093.471 1.993 1.372 2.4 2.498q.07.193.118.392.048.2.076.403t.036.408-.007.41-.048.406-.09.4-.13.388-.169.373c-.624 1.227-1.7 1.892-2.969 2.313m10.42 69.227.065-.095zm38.252 13.001c-.819-.013-1.643-.19-2.359-.598q-.085-.048-.168-.1t-.163-.11-.157-.117-.15-.125-.144-.133-.136-.141-.129-.148-.121-.154-.112-.16q-.055-.082-.104-.166-.05-.085-.095-.172t-.086-.176q-.04-.09-.076-.18-.036-.092-.067-.185-.03-.093-.057-.187-.026-.095-.047-.19c-.237-1.06-.082-2.256.522-3.171.682-1.035 1.7-1.473 2.869-1.733.913.006 1.782.162 2.558.668.913.596 1.494 1.55 1.674 2.617.178 1.053-.06 2.2-.689 3.07-.704.976-1.613 1.374-2.763 1.591m-208.096-.122c-.866.144-1.618.157-2.449-.167q-.17-.067-.334-.15t-.319-.182-.299-.212q-.144-.114-.276-.242-.132-.127-.251-.267-.12-.14-.224-.29-.104-.151-.194-.312-.089-.16-.162-.329-.078-.181-.137-.37-.06-.188-.098-.382-.04-.194-.058-.39-.019-.197-.017-.395.002-.197.025-.394.023-.196.066-.389.043-.192.106-.38.063-.187.145-.367c.527-1.146 1.466-1.703 2.61-2.1.916-.07 1.727-.081 2.58.308q.18.082.35.181.17.1.328.215.159.117.305.249t.277.278.248.306.214.329.18.35.143.366q.058.173.099.352.04.179.063.36.022.183.026.366t-.01.366q-.014.182-.047.363-.033.18-.083.356t-.119.346-.152.333c-.541 1.013-1.479 1.552-2.536 1.893m146.132-4.962-.095-.11zm-105.269 1.382c-.306-.085-.681-.228-.918-.455-.254-.243-.276-.298-.266-.624.326-.311.581-.312 1.014-.413.12-.015.283-.038.4-.042.37-.014.407-.017.665.225.083.321.108.42-.053.735-.193.376-.48.446-.842.574m62.208 61.829c-1.872-1.063-3.981-1.83-5.962-2.665q-5.045-2.134-10.112-4.215Q93.34 175.535 75 168.343c-3.125-1.192-6.297-2.436-9.47-3.488-2.074-.688-4.351-1.19-6.35-2.056 1.85-.174 3.782-.053 5.645-.044l9.188.038 27.243.194q45.66.175 91.316-.302c-2.187 1.21-4.707 2.014-7.03 2.937q-6.006 2.385-11.951 4.914-23.053 9.572-45.982 19.435m-56.72-25.785c-1.21.03-2.44.017-3.645.119 6.843 2.034 13.556 4.9 20.175 7.574l27.8 11.29 8.637 3.654c1.254.54 2.496 1.163 3.764 1.661 3.076-1.46 6.301-2.643 9.43-3.988l28.611-12.154c6.517-2.71 13.027-5.496 19.602-8.061-10.142.148-20.293.054-30.437.058z"/><path d="M124.509 178.097c1.118-2.014 2.186-4.35 2.867-6.549.26.055.451.14.686.266.575 1.28 1.128 2.583 1.755 3.839.31.619 1.743 2.761 1.751 3.297-.332.173-1.083.238-1.448.14-.583-.157-.816-.755-1.09-1.238l-2.801.032-.55 1.264c-.844.043-1.699.001-2.544-.016-.375-.768-.93-1.665-1.685-2.094l-.197.084c-.127.6.103 1.358.198 1.966-.592.224-1.423.112-2.055.104.05-2.49.02-4.96-.05-7.45 1.154-.02 2.649-.19 3.749.21.614.224 1.115.647 1.369 1.257.263.632.23 1.391-.043 2.015-.28.64-.652.878-1.28 1.138.439.592.903 1.162 1.368 1.734m-3.348-4.426c-.028.495-.142 1.097.092 1.549.49.278.949.102 1.471-.027.124-.365.182-.514.072-.9-.292-.377-.558-.496-1.016-.559q-.308-.04-.619-.063m6.69 1.822.117.039zm-11.343 3.71.01-7.45 1.591-.004c.321 2.403.123 5.015.102 7.443zm17.235-3.688c-.008.953.127 2.006-.001 2.944-.046.337-.176.536-.484.695-.34.175-.415.15-.754.04-.983-1.037-.424-5.858-.398-7.443.225-.01.492-.04.714-.002.542.09 2.77 3.253 3.293 3.854q.021-1.923.119-3.844l1.676-.011c.003 2.497.179 5.096-.053 7.578-1.765-.335-3.064-2.468-4.112-3.81m-60.572 38.696c-1.08-.011-2.02-.121-2.945-.745a4.2 4.2 0 0 1-1.765-2.716c-.223-1.168.008-2.414.717-3.379.766-1.042 1.825-1.507 3.067-1.716.992.026 1.942.167 2.8.698q.174.108.335.232t.31.266q.148.14.28.295t.25.322.215.346.178.366.14.383.1.395q.023.11.04.221.017.112.028.225.011.112.017.225.005.112.005.225t-.006.225q-.006.113-.017.225-.012.113-.03.224-.017.112-.04.222t-.051.22-.063.216-.074.214-.084.209q-.044.104-.094.205t-.106.2-.115.194q-.06.095-.125.188c-.727 1.042-1.748 1.569-2.967 1.815m111.074.502c-.918.157-1.79.115-2.658-.25q-.103-.043-.204-.093-.1-.048-.198-.102-.099-.054-.194-.113t-.186-.123-.18-.132-.174-.141-.166-.15-.157-.159-.15-.166q-.072-.085-.14-.174t-.132-.181-.122-.187q-.058-.096-.112-.194t-.102-.199q-.048-.1-.091-.204t-.081-.208q-.039-.106-.073-.214t-.06-.217q-.029-.11-.05-.22-.023-.111-.039-.223-.017-.111-.027-.224-.011-.112-.016-.225t-.004-.226.007-.225.02-.225.03-.224.042-.221.053-.22.065-.216.075-.212.086-.209.097-.204c.562-1.108 1.479-1.79 2.642-2.162.915-.104 1.805-.054 2.673.279 1.108.424 2.026 1.273 2.477 2.378q.077.19.134.387.058.196.096.398.038.201.056.405t.016.41-.024.409-.065.404q-.042.2-.104.396-.062.195-.143.384c-.567 1.323-1.637 2.058-2.918 2.593"/></svg>