<svg xmlns="http://www.w3.org/2000/svg" viewBox="0 0 256 256"><path d="m40.254 256-.13-.015c-2.99-.31-6.216-.098-9.234-.118l-18.272-.127c-2.41-.013-6.12.275-8.398-.155q-.176-.032-.349-.08-.172-.05-.34-.112-.168-.063-.33-.14-.16-.078-.315-.17-.154-.09-.3-.196-.145-.105-.28-.222t-.26-.248q-.125-.127-.238-.267c-.884-1.115-1.322-2.575-1.105-3.988.315-2.046 3.646-8.061 4.748-10.278q3.466-7.048 7.008-14.059 14.665-29.604 29.735-59.004l82.49-163.813c.415-.816.782-1.807 1.569-2.335.644-.433 1.698-.574 2.447-.384.942.239 1.547.972 2.002 1.787.574 1.028 1.031 2.123 1.574 3.17q2.573 4.936 5.088 9.901l14.957 29.686 45.99 91.525q21.481 41.955 42.514 84.137l9.563 19.138 3.314 6.562c.518 1.024 1.113 2.034 1.578 3.082.523 1.175.627 2.34.245 3.58-.317 1.033-.988 1.913-1.953 2.418-.61.317-1.26.425-1.94.463-1.658.092-3.347.014-5.008.002l-8.299-.023q-13.943-.032-27.885.14l-5.505.046c-.945.01-2.03-.073-2.958.097zM127.97 6.956c-2.92 5.064-5.467 10.73-8.103 15.983l-13.033 25.776-38.559 76.504-43.19 85.748-13.878 27.618c-1.942 3.92-4.083 7.835-5.832 11.84l123.018.002 122.278.083c-4.23-9.026-8.904-17.853-13.323-26.787q-23.186-46.587-46.925-92.894L141.97 34.144c-1.762-3.495-12.73-26.015-14-27.188"/><path d="M8.155 248.735c2.293-5.168 4.976-10.221 7.51-15.275q6.05-12.222 12.255-24.366l31.193-62.023 39.549-78.315 20.371-40.435c2.997-5.906 5.848-11.91 8.976-17.746 1.088 1.704 1.93 3.644 2.855 5.447l5.266 10.242 19.57 38.893q31.615 63.569 63.996 126.753l18.301 36.778q3.173 6.576 6.478 13.087c1.202 2.372 2.353 4.791 3.74 7.061l-119.777-.19zm70.497-117.168c-2.21 2.492-11.45 18.319-11.276 20.99.021.325.12.643.211.953.543.16 1.017.228 1.534-.06.695-.386 1.17-1.107 1.568-1.772 2.38-3.97 3.902-8.704 5.529-13.017.822-2.18 1.879-4.508 2.381-6.775.023-.105.037-.212.053-.319l.067-.066zm-56.056 93.281c10.349-2.946 17.47-.863 27.257 2.336 3.971 1.298 7.815 2.463 12.03 2.678 6.176.316 12.664-.89 18.521-2.843 4.81-1.604 9.263-3.451 14.362-3.984 6.726-.702 13.298.117 19.883 1.48 2.256.468 4.508 1.212 6.799 1.484l.122.014.055.08-.055-.08c-1.001-.718-2.445-1.144-3.584-1.634-1.91-.82-3.748-1.762-5.688-2.515-1.645-.638-3.361-1.09-4.998-1.735-.274-.108-.504-.169-.67-.427l.049-.197c.852-.48 2.171-.148 3.083.034 5.177 1.038 9.467 3.574 14.218 5.675q2.493 1.11 5.109 1.888c3.723 1.084 7.74 1.34 11.606 1.385-6.001-1.601-11.727-4.16-17.492-6.437-3.258-1.288-6.755-2.314-9.803-4.06 3.248.236 6.364 1.404 9.636 1.598 8.121.483 15.509-3.018 23.291-4.648.381-.08.755-.158 1.129-.011l-.036.23c-.714.686-2.28 1.113-3.203 1.5-3.25 1.36-6.54 2.805-9.949 3.724-1.768.476-3.552.71-5.33 1.11 8.496 1.55 17.454.18 26.035.018q3.525-.048 7.039.238 3.513.287 6.984.906c1.083.186 2.784.283 3.691.89l-.051.133a3.5 3.5 0 0 1-1.255.325c-.916.068-1.907-.074-2.829-.106q-2.693-.079-5.387-.086-6.426-.007-12.849.193c-4.548.158-9.027.418-13.583.251 8.902 1.888 18.908 2.089 28.012 2.15 4.99.034 10.057.173 14.988-.737 2.712-.501 5.366-1.187 8.013-1.959 1.887-.55 5.609-1.873 7.492-1.932l.133.176c.006.213.044.292-.073.48-.615.985-2.919 1.67-3.941 2.098-6.756 2.828-14.242 4.135-21.537 4.234-2.654.036-5.514-.341-8.133-.013-1.116.14-2.24.562-3.326.853-1.454.39-2.922.736-4.385 1.094 2.995-.119 6.112.076 9.087.43 1.934.229 3.87.56 5.814.693 4.048.279 8.347-.151 12.326-.91 5.16-.984 10.079-2.785 15.023-4.513 2.88-1.007 5.9-2.288 8.935-2.657-1.112.807-2.43 1.385-3.658 2-4.454 2.23-8.972 4.071-13.676 5.717 4.984-.638 9.847-2.24 14.678-3.556 4.901-1.334 10.874-2.511 15.932-2.656 5.322-.151 10.401 1.09 15.654 1.552-4.722-2.172-10.423-3.221-15.59-3.052-2.426.08-4.811.43-7.22.694 5.218-2.579 13.487-3.111 19.273-2.548-7.282-2.74-14.486-2.547-22.004-1.141 6.873-3.37 14.89-3.26 22.263-1.832-9.246-4.08-18.213-3.59-27.547-.287-2.082.737-4.07 1.698-6.132 2.485 1.116-1.385 2.752-2.226 4.335-2.978 6.018-2.86 12.04-4.213 18.687-4.366 2.868-.066 5.809.068 8.531 1.033a71 71 0 0 0-1.496-3.025c-7.811-1.693-15.961-.674-23.333 2.296-1.6.645-3.151 1.412-4.731 2.104-5.993 2.624-11.929 4.83-18.552 4.968-4.783.1-9.559-1.264-14.135-2.534-1.867-.518-3.734-1.1-5.644-1.437-.241-.042-.243-.042-.45-.207.47-.22 3.493.178 4.155.234 4.949.42 9.773 1.164 14.762.882 4.434-.251 9.22-.813 13.486-2.08 1.827-.543 3.6-1.304 5.391-1.957q2.984-1.069 6.016-1.992c7.977-2.581 13.262-3.75 21.769-2.751-.489-1.103-1.1-2.14-1.723-3.17-6.54-.31-13.12-.112-19.667-.08l-24.795-.097q-9.084-.122-18.163-.448c-4.642-.146-9.255-.344-13.9-.11-8.149.41-15.427 3.379-23.59 3.487-4.643.061-9.374-.043-13.993-.573-5.477-.63-10.775-1.64-16.303-1.841-6.517-.237-13.096.11-19.619.103q-21.253-.098-42.505.074l-.847 1.521c4.867-.232 10.053-.314 14.766 1.083-5.304.53-10.7.177-15.964 1.065-.357.897-.76 1.778-1.146 2.662 3.041-.737 6.163-1.321 9.305-1.323 1.709-.001 3.44.263 5.142.403q4.477.404 8.97.343c3.457-.076 6.826-.709 10.231-1.239 2.05-.319 4.114-.537 6.165-.853-3.417 2.594-12.888 3.712-17.217 4.023 9.228 1.986 11.431 2.222 20.486-.593 2.252-.7 4.528-1.526 6.842-1.992 6.745-1.356 18.41 1.157 25.056 2.822 1.14.286 3.301.641 4.242 1.264l-.005.174c-.687.214-1.724-.04-2.459-.078-3.692-.186-7.23-.64-10.874-1.27-4.238-.732-8.77-1.886-13.085-1.62-7.37.453-11.394 5.599-19.742 5.458-3.001-.05-5.976-.702-8.845-1.554-2.83-.841-5.598-1.96-8.455-2.698-5.61-1.45-11.66-.614-17.084 1.218-.277.577-.484 1.184-.704 1.785 5.926-2.528 12.797-1.31 18.255 1.852 1.508.874 2.758 2.17 4.297 2.99 3.119 1.661 7.315 2.96 10.813 3.344 3.222.355 6.12-.165 9.247-.872 1.27-.287 2.562-.62 3.86-.745 3.73-.356 6.212.263 10.24-.633 5.776-1.285 11.936-4.667 17.894-4.091.812.078 2.678.23 3.207.867l-.075.194c-.564.327-5.503.815-6.72 1.113-2.386.583-4.719 1.446-7.057 2.198-4.063 1.307-8.264 2.508-12.495 3.107-1.771.25-3.621.371-5.409.32-1.437-.042-2.96-.268-4.385-.03-.929.155-1.76.554-2.64.863-4.918 1.732-10.806-.205-15.198-2.526-1.284-.678-2.442-1.609-3.757-2.223-5.612-2.621-15.398-3.506-21.119-1.28-1.648.642-2.13 1.616-2.807 3.146M128.072 15.34c-1.585 2.62-2.874 5.45-4.269 8.176q-4.171 8.076-8.216 16.215-3.454 6.738-6.837 13.513c-1.23 2.458-2.644 4.938-3.587 7.516 1.271.356 2.038 1.028 3 1.879 2.284.159 4.114.46 5.712 2.276.532.604 1.004 1.282 1.484 1.93 2.213.044 3.718.645 5.29 2.23.208.21.355.397.483.663l-.023.278c-.286.167-.446.196-.778.125-.793-.168-1.496-.672-2.28-.831-1.005-.204-2.354.257-3.296-.112-.32-.126-.608-.476-.84-.725-.618-.665-1.019-1.456-1.565-2.169-1.053-1.378-3.719-1.381-5.29-1.464-.966-.965-1.676-1.675-2.967-2.178l-3.732 7.211c2.087-.706 4.053-1.577 6.276-.774.957.346 1.895.82 2.878 1.084 1.2.322 2.31.31 3.466.86 1.594.757 6.004 4.1 6.558 5.811.093.288.01.642-.155.89-.15.226-.365.377-.64.388-1.411.056-3.08-2.364-4.292-3.058-.96-.549-2.034-.775-3.12-.907-.81-.1-1.641-.174-2.447-.005-1.948.41-4.916 2.269-6.985 3.085 1.117-3.032 2.767-3.533 5.257-5.056-4.107-.402-4.535.056-8.385 1.007-2.394 4.382-4.573 8.903-6.827 13.36-.897 1.775-2.766 4.857-3.204 6.651.676-.046 1.758-.248 2.332.185.036.027.063.062.094.093-.002.278-.01.313-.22.518-.62.603-1.66.925-2.473 1.186 2.717 2.147 4.004 2.43 7.465 2.038 1.715-.195 5.079-2.322 6.19-1.765.053.285.087.179-.06.404-.775 1.18-2.826 2.232-4.093 2.827 2.451 1.484 5.7 1.857 8.472 1.133 1.394-.364 4.244-2.885 5.551-2.239.157.078.133.186.17.341-.535 1.703-2.629 2.564-3.895 3.65.984 1.961 2.64 3.84 4.782 4.538q.45.143.908.263c1.392-.766 4.947-2.602 6.563-2.15.243.068.372.152.56.311.085.306.116.357-.073.642-.347.523-1.358.728-1.921.887-1.672.596-3.037 1.384-4.364 2.57l.076.175c.928 2.152 2.912 4.003 3.651 5.729.352.819.368 1.82.03 2.644-.693 1.686-1.246 2.853-.527 4.689.422 1.077 1.142 1.905 1.723 2.885a9.6 9.6 0 0 1-.835 2.038c.393.316.884.796 1.356.972 1.192.445 3.155.096 4.421-.038a48 48 0 0 1 6.393-.27c1.094.027 2.285.277 3.365.147.42-.051.864-.182 1.158-.506.264-.293.35-.732.303-1.116-.185-1.513-2.12-2.173-2.908-3.33-.121-.715-.44-1.666-.278-2.366.223-.278.34-.381.703-.433.817-.118 1.695.165 2.302-.573.213-.258.347-.527.305-.872-.096-.784-1.065-1.417-.617-2.243.776-1.43 4.596-2.088 6.125-4.458-.893-.268-2.117-.563-2.634-1.428-.15-.25-.109-.3-.031-.561.431-.325 1.005-.31 1.52-.244.612.079 1.229.25 1.82.42 2.535-.693 4.778-1.995 6.104-4.33.436-.768 1.198-1.94 1.359-2.792-.461-.606-1.398-.28-1.193-1.491.04-.238.158-.374.306-.553 1.064-.57 3.235.228 4.445.296 3.832.217 8.295-1.05 9.525-5.13.233-.773.368-1.6.521-2.392-.927-.01-1.85-.044-2.77.088-1.151 1.314-2.324 2.221-4.141 2.36-.985.075-2.672-.071-3.51-.628l-.061-.213c.657-.725 2.79-.89 3.764-1.194q.977-.315 1.858-.84c1.57-.931 3.157-3.453 4.469-3.494.228-.007.253.032.444.135.093.495-.212 1.068-.37 1.537.867.281 2.643.76 3.477.352-.02-.312.015-.16-.109-.458l-.067.065c.002-.034.008-.068.006-.102-.033-.543-13.038-26.657-14.577-29.397-.788.097-3.176.607-3.779.069-.031-.029-.177-.225-.206-.263.143-.703 1.066-1.288 1.653-1.66.32-.203.579-.239.95-.26l.215-.014.147-.007c-2.285-4.2-4.44-8.557-6.511-12.866q-1.452-3.078-3.028-6.094c-.406-.786-.772-1.649-1.272-2.378-1.48-.44-2.585-.582-4.12-.309-1.665-1.444-2.886-2.376-5.229-2.178-1.227.104-2.575 1.033-3.743.743-.065-.255-.09-.157.034-.374.634-1.115 2.243-1.906 3.429-2.18 3.387-.781 4.579.761 7.524 1.176q.298.044.6.078c-1.882-4.087-4.035-8.025-6.07-12.034-.753-1.485-3.301-6.917-4.152-7.83M92.248 99.896c2.021 2.237 5.451 4.291 8.53 4.427 1.846.082 3.787-.407 5.6-.742l.19-.045-.024-.201c-1.502-1.136-3.298-.346-5.005-.52-1.457-.148-3.38-.662-4.625-1.424-.69-.422-1.38-1.001-2.156-1.248-.799-.254-1.68-.22-2.51-.247m72.58 2.19q.647 2.282 1.52 4.487c1.49 3.823 3.185 7.592 4.821 11.355.964 2.218 1.837 4.558 2.94 6.705.206.404.481 1.029.913 1.233.405.19.935.213 1.35.035.152-.064.288-.167.422-.26.443-1.26.12-1.742-.432-2.899-1.471-3.083-9.502-19.074-11.535-20.656m-76.11 3.769c-1.868 1.694-9.444 15.402-9.519 17.81-.011.357.122.68.283.993.425.08.755.108 1.138-.133.465-.293.776-.765 1.038-1.235 1.648-2.955 3.414-7.873 4.71-11.08.651-1.612 2.093-4.563 2.346-6.201.008-.051.002-.103.003-.154m67.67 2.242c.306 2 3.068 14.459 4.389 15.236.266.157.494.206.794.117.208-.062.392-.153.584-.252.492-1.096.14-1.89-.26-2.95-.75-1.99-4.412-11.207-5.507-12.151m-58.33 1.995c-1.782 2.415-7.998 13.9-7.602 16.386.05.314.177.617.327.895.366.097.6.174.964-.002.29-.14.525-.457.673-.733 1.383-2.577 2.196-5.714 3.153-8.488.846-2.45 1.888-4.977 2.475-7.495a1.06 1.06 0 0 0 .01-.564m51.415 1.771c-.306.322-.595.621-.583 1.097.007.282.064.499.271.707.345.347.846.326 1.29.263.295-.214.608-.428.687-.813a.94.94 0 0 0-.215-.849c-.308-.363-.734-.44-1.181-.422q-.135.006-.269.017m-42.28 1.14c-.406.215-.761.426-.862.92-.065.318.045.614.25.857.308.366.685.412 1.127.463.389-.273.695-.523.763-1.033a1 1 0 0 0-.311-.845c-.258-.254-.624-.308-.967-.362m37.391 8.707c-.363.354-.667.67-.633 1.22.02.326.203.575.463.758.363.257.744.228 1.163.213.332-.334.601-.631.587-1.14-.01-.32-.176-.581-.425-.774-.352-.271-.735-.28-1.155-.276m-33.989.631c-.347.317-.721.619-.718 1.137.002.373.258.712.551.922.252.18.573.28.862.385.392-.337.618-.646.67-1.176a1.15 1.15 0 0 0-.293-.902c-.293-.323-.668-.348-1.072-.366m-9.748 3.51c-.806.873-1.542 1.782-2.174 2.792-1.473 2.355-4.084 7.68-3.93 10.399.022.394.151.664.35 1.001.382.06.603.1.97-.073.543-.584.876-1.39 1.177-2.123.658-1.604 3.598-10.514 3.626-11.763.002-.078-.012-.156-.019-.234m52.284 1.877c.523 3.222 1.622 6.47 2.545 9.604.553 1.877 1.017 3.922 1.828 5.704.2.439.42.864.829 1.14.453.308.898.274 1.413.184a5 5 0 0 0-.092-2.036c-.607-2.53-4.77-12.649-6.282-14.386-.101-.116-.132-.131-.241-.21m11.796.326c1.356 5.146 2.947 10.168 4.685 15.196.566 1.638 1.03 3.544 1.868 5.047.156.281.361.524.654.67.429.213.93.189 1.36-.004a2 2 0 0 0 .479-.295c.316-.536.564-.999.423-1.636-.481-2.175-8.114-18.134-9.47-18.978m-51.395 1.141-1.137.056c-.527 7.499-.742 15.052-1.147 22.561-.166 3.063-.098 6.589-.654 9.587-1.228-.178-2.439-.347-3.505.45-1.445 1.08-2.003 3.739-2.603 5.406-1.073-.98-2.517-2.184-4.055-2.116-.809.036-1.499.482-2.014 1.084-1.294 1.513-1.33 3.645-1.784 5.487-2.898.715-2.03 1.358-3.939 2.979-1.551 1.316-2.949-.238-4.615.288-1.662.525-2.473 2.361-4.245 2.701-1.698.326-4.145-.219-5.932-.356q-2.525-.18-5.055-.241c-8.906-.208-18.25-.037-27.07 1.335-.568 1.142-1.153 2.283-1.667 3.45l98.863.011q34.946.138 69.89-.183a23 23 0 0 0-1.387-2.215q-3.564-.743-7.178-1.186-3.614-.444-7.252-.586c-4.064-.177-8.208-.124-12.246-.645-1.445-.187-2.948-.493-4.324-.982-1.145-.407-2.498-1.296-3.696-1.384-1.32-.097-2.814.501-4.098.785-1.391.306-2.898.405-4.314.241-4.522-.523-6.787-4.589-9.845-4.525-.795.017-1.56.344-2.297.614-3.065-1.162-3.5-4.829-6.054-6.405-1.988-1.227-4.478 1.701-5.745-.987-.436-.924-.61-1.932-.794-2.93-.713-3.85-1.122-5.072-3.999-7.787q-.434-12.288-.519-24.584c-2.004.015-3.943.373-5.933.444-1.243.043-2.48-.329-3.721-.326-1.123.003-2.275.234-3.397.321-1.72.135-3.522.138-5.251.145-1.267.006-2.53-.379-3.782-.543-1.14-.15-2.357-.064-3.5.036m-7.797 4.16c-.412.293-.784.55-.837 1.1-.031.325.094.599.324.825.254.249.588.358.928.424.415-.238.755-.484.857-.983.066-.325-.03-.619-.239-.87-.278-.335-.632-.415-1.033-.496m73.134.756c.446 2.162 1.415 4.385 2.107 6.5q1.76 5.486 3.73 10.898c.49 1.361.903 2.812 1.516 4.118.22.467.45.79.877 1.085a2.36 2.36 0 0 0 1.819.365c.278-.062.489-.196.726-.347.421-.876.483-1.38.156-2.303-1.036-2.92-8.96-18.444-10.93-20.316m-32.937 3.966c-.258.414-.485.847-.391 1.353a1.1 1.1 0 0 0 .497.708c.233.143.508.174.773.213.339-.313.51-.568.544-1.043.026-.345-.047-.643-.284-.907-.309-.346-.708-.331-1.139-.324m-58.443 1.034c-.359.346-.676.676-.638 1.219.026.368.133.555.409.798.323.284.746.278 1.148.263.35-.347.647-.666.66-1.192a.98.98 0 0 0-.371-.787c-.362-.301-.767-.304-1.208-.302m17.865 4.242c-2.225 2.092-4.21 6.752-4.338 9.78-.02.46.081.755.28 1.163 1.02-.344 1.51-1.342 1.958-2.255.704-1.436 2.676-7.118 2.18-8.605zm45.036 3.612c.104 2.545 1.407 13.378 3.12 14.865.193.168.468.3.731.28.219-.015.428-.113.62-.212.23-.615.38-1.131.27-1.792-.293-1.783-1.181-3.71-1.78-5.435-.796-2.298-1.492-4.771-2.494-6.98-.127-.28-.23-.526-.467-.726m-67.437 5.379c-.37.313-.648.588-.687 1.108-.031.399.129.736.42.998.327.294.67.319 1.083.33.38-.294.727-.584.759-1.106.021-.363-.063-.618-.31-.88-.362-.385-.77-.428-1.265-.45m12.64.505c-.373.345-.679.65-.644 1.204.02.323.203.576.463.756.344.237.713.213 1.107.196.327-.355.616-.726.548-1.242-.04-.306-.241-.554-.498-.713-.3-.186-.635-.181-.977-.201m68.49 4.754c-.23.285-.488.578-.454.974.024.297.192.504.434.665.297.198.665.188 1.007.187.288-.331.408-.508.47-.947-.094-.322-.163-.547-.477-.722-.317-.177-.632-.162-.98-.157m12.784 5.641c-.478.248-.842.472-1.033 1-.141.39-.123.838.064 1.21.186.37.546.717.948.84.246.075.52.082.774.094.527-.3.943-.6 1.118-1.208q.021-.07.034-.143t.018-.146.003-.147q-.003-.073-.013-.146-.011-.073-.03-.144-.018-.072-.043-.14-.026-.07-.06-.135-.032-.066-.072-.127c-.286-.45-.722-.674-1.235-.755a6 6 0 0 0-.474-.053m-101.74.897c-.604.293-1.132.65-1.353 1.319-.156.472-.104.95.136 1.383.296.537.873.98 1.472 1.117.365.084.767.043 1.14.024.566-.27 1.026-.555 1.258-1.17a1.77 1.77 0 0 0-.084-1.415c-.264-.544-.799-1.03-1.383-1.202-.383-.112-.794-.077-1.187-.056m117.984.36c-.61.355-1.119.724-1.294 1.447-.104.426-.048.855.182 1.23.283.463.778.813 1.32.893.309.045.634.034.946.024.57-.232 1.049-.435 1.299-1.036.169-.407.148-.86-.024-1.262a2.3 2.3 0 0 0-1.365-1.233c-.345-.107-.71-.086-1.064-.064m-133.265.478c-.432.285-.746.541-.835 1.078q-.011.063-.016.127t-.003.129.01.128.023.126.035.124q.02.06.047.119t.06.114q.032.056.07.108c.261.358.642.534 1.074.564.144.01.247-.004.386-.017.411-.273.797-.569.873-1.093.059-.402-.032-.695-.297-.995-.332-.376-.768-.486-1.254-.509q-.087-.003-.173-.003m46.908 22.43c-1.582.305-2.94.98-3.867 2.352-1.002 1.482-1.182 3.403-.815 5.124.345 1.615 1.253 3.117 2.683 3.99 1.085.661 2.627.91 3.87.583.446-.117.934-.384 1.132-.824.192-.43.031-1.163-.016-1.618l-.128-.145c-.941.582-1.972.989-3.1.739-.874-.194-1.579-.776-2.04-1.532-.721-1.183-.85-2.773-.49-4.096.263-.96.858-1.86 1.745-2.345.84-.46 1.81-.443 2.703-.147.463.154.888.44 1.285.718.042-.761.125-1.55.099-2.312-1.05-.36-1.946-.516-3.06-.487m25.497-.115c-.72 1.192-1.179 2.658-1.698 3.96-1.08 2.7-2.252 5.426-3.048 8.224l1.76.01c.298-.85.597-1.695.939-2.529l2.2.025 1.791-.018c.328.826.666 1.649.942 2.494l1.894-.02q-1.14-3.11-2.217-6.244c-.543-1.58-1.222-4.156-2.083-5.503-.139-.216-.26-.282-.48-.399m-34.146.214-.044 11.89c.557-.001 1.205.065 1.747-.053.202-3.933-.009-7.893.113-11.832zm14.238.011q-.039 5.946-.013 11.892 2.901.064 5.802.051l-.005-1.939-4.012-.007v-1.493l.006-2.008c1.133.02 2.27.02 3.4.112l-.004-2.007a51 51 0 0 0-3.382-.055l.016-2.55 3.864-.014-.003-1.99c-1.888 0-3.781-.029-5.669.008m8.082.035c.014 3.98.022 7.947-.05 11.926l5.847.006c.002-.637.013-1.276-.001-1.913q-1.996-.041-3.991-.032l.01-9.969c-.603-.011-1.212-.04-1.815-.018m18.353-.1-.025 12.017 1.844-.005c-.042-2.506-.12-5.017-.09-7.523.922 1.24 4.41 7.257 5.244 7.58.197-.044.347-.035.494-.18l.046-11.834-1.758-.003.001 7.856c-.906-1.584-3.671-6.97-5.1-7.869zm10.11.05-.007 11.883c1.713.254 3.758.36 5.23-.719.227-.165.438-.345.644-.535 1.332-1.63 1.72-3.672 1.496-5.738-.16-1.48-.667-3.12-1.897-4.053-1.474-1.117-3.712-.844-5.467-.838m-50.096 37.434c-3.533.281-6.936.687-10.35 1.688-7.638 2.24-12.112 5.338-20.633 5.602-4.802.149-9.632-.577-14.26-1.827-3.675-.992-7.195-2.463-10.852-3.498-6.893-1.95-15.422-2.137-21.896 1.306-.322.691-.632 1.38-.911 2.09 1.475-.612 2.93-1.216 4.487-1.597 7.412-1.812 15.059.09 21.935 2.931 1.345.556 2.684 1.126 3.965 1.818-2.822-.301-5.474-1.129-8.218-1.798-5.557-1.355-11.563-1.843-17.188-.65-2.014.427-4.303 1.023-5.947 2.33-.287.227-.554.486-.82.737 8.878-2.962 16.244-2.219 24.95.522 2.329.732 4.615 1.712 6.982 2.296-2.632-.028-5.199-.508-7.776-.99-6.264-1.17-12.58-2.5-18.905-.889-2.502.638-4.706 1.594-6.564 3.421-.49.483-.96.99-1.431 1.492 1.427-.747 2.854-1.488 4.38-2.017 5.145-1.783 11.52-1.972 16.866-1.075 2.378.4 4.677 1.073 6.98 1.771-7.06-.309-12.582-1.312-19.65.472-1.76.444-3.516.98-5.139 1.803-1.401.71-2.708 1.627-3.999 2.52 11.045-3.866 14.685-4.171 26.002-1.526 3.337.78 6.683 1.568 10.12 1.722 6.325.283 12.133-1.258 18.609-.286a32 32 0 0 1 5.877 1.474c2.49.889 4.625 2.057 7.344 2.09 4.77.06 9.243-2.908 13.557-4.623 2.856-1.135 5.743-1.972 8.78-2.476 3.098-.514 6.143-.712 9.283-.668 3.322.046 6.583.6 9.89.77 4.004.207 7.996-.08 11.979-.45.732-.068 2.278-.018 2.893-.34-2.368-.196-8.917-1.117-10.885-2.026l-.032-.123c1.588-.477 4.917.06 6.673.148q2.04.086 4.082.075c2.585-.028 5.199-.274 7.778-.454 5.764-.4 11.499-.852 17.283-.663q4.696.139 9.349.797c4.054.532 8.086 1.214 12.184 1.29 3.196.06 6.438-.151 9.615-.497 1.874-.204 3.827-.593 5.71-.595-1.846 1.082-3.817 1.536-5.886 2.005-10.219 2.316-16.618.101-26.441-.835a77.4 77.4 0 0 0-13.208-.149c-3.327.244-6.643.658-9.895 1.417-2.848.665-5.596 1.641-8.386 2.51q-3.592 1.082-7.216 2.057c3.054.075 6.384-.42 9.367-1.065 5.792-1.068 11.55-2.856 17.487-2.831 3.974.017 7.924.77 11.82 1.483q4.827.86 9.63 1.84c4.287.887 8.58 1.836 12.98 1.73q2.738-.06 5.452-.417 2.714-.359 5.373-1.012c3.576-.862 7.089-2.004 10.699-2.72 3.746-.743 7.633-.93 11.442-.962-1.941-.44-3.881-.815-5.875-.92-3.966-.208-9.37.633-13.315 1.445-1.81.372-3.618.991-5.446 1.226 2.893-1.617 9.245-3.554 12.607-4.231 1.857-.374 3.673-.39 5.54-.601 5.553-.629 12.33-1.71 17.79-.166 1.603.453 3.16 1.078 4.796 1.406l-.095-.09c-1.186-1.09-2.86-1.762-4.323-2.401-1.342-.587-2.705-1.286-4.091-1.744-3.703-1.225-8.096-1.322-11.969-1.11-3.586.198-7.283.668-10.707 1.773-.55.178-2.337 1.009-2.745.762 6.283-4.23 15.997-5.463 23.248-4.037 3.255.64 6.127 1.775 9.045 3.321-.992-2.29-2.05-5.23-4.58-6.181-1.362-.513-4.694-.605-6.28-.804-5.78-.725-11.874-.737-17.567.63-2.993.72-5.89 1.89-8.802 2.879-5.6 1.903-11.788 3.657-17.714 4.003-9.743.57-19.124-2.446-28.83-2.573-5.827-.077-11.464 1.407-17.23 1.941-3.266.303-6.624.066-9.885-.23q-5.701-.566-11.326-1.652c-5.492-1.064-11.154-2.453-16.781-2.344-3.462.067-7.018.639-10.284 1.788-1.642.578-3.225 1.319-4.855 1.93-10.543 3.959-19.272 5.656-30.092 1.274-.6-.243-2.155-.716-2.468-1.243.49-.206 1.333-.084 1.858-.01 5.063.727 9.304 1.748 14.515 1.541q1.292-.048 2.579-.171t2.564-.321 2.54-.47q1.264-.273 2.51-.618c8.316-2.268 14.44-5.568 23.447-5.648 7.459-.066 14.512 2.557 21.8 3.71q2.05.325 4.117.494 2.069.169 4.144.18 2.075.012 4.145-.135 2.07-.146 4.123-.449c2.822-.408 5.617-1.009 8.446-1.361-6.181-.34-12.57-.218-18.685-1.182-10.305-1.623-20.607-5.77-31.184-4.76m44.818 2.477c4.197 1.775 7.317 1.943 11.729.87l.307-.127c-.643-.357-10.517-.67-12.036-.743m85.942 11.059c2.124.952 4.049 2.285 6.155 3.212 2.16.951 4.364 1.332 6.606 1.98-.84-1.212-5.3-3.43-6.823-4-1.103-.412-2.256-.697-3.413-.909a17 17 0 0 0-2.525-.283m-74.292 3.599c-5.65.318-11.134 1.908-16.605 3.245l.125.002c1.827-.004 3.728-.402 5.533-.672 3.299-.495 6.6-1.012 9.934-1.198 1.156-.064 2.453-.182 3.589.07l-.017.134c-1.371.626-3.15.73-4.635 1.056l-9.869 2.247q3.09-.195 6.186-.185l20.872-.023c4.206.012 8.465.188 12.663-.074-2.924-.349-5.764-.805-8.627-1.502-6.674-1.626-12.06-3.78-19.15-3.1m-49.559.105c-5.081.392-10.59 1.385-14.754 4.543l25.357-.198q7.388.026 14.776-.065c-6.868-2.344-18.144-5.061-25.379-4.28m-76.808.126c-5.667.279-11.484 1.768-16.508 4.447q12.464.088 24.928.024 4.9.02 9.8-.102c1.672-.043 3.455.016 5.105-.276.455-.081.856-.278 1.273-.464l.321-.14c-1.87.08-3.703.111-5.563-.151-2.846-.402-5.601-1.306-8.373-2.043-3.544-.943-7.312-1.482-10.983-1.295m190.058.123c-5.698.493-11.068 2.07-16.63 3.275-2.194.475-4.403.767-6.622 1.093 3.454.335 7.054.096 10.528.068q7.934-.063 15.867.04c2.877.048 5.75-.001 8.626.028-2.161-.623-4.435-1.13-6.682-1.228 2.293-.607 4.657-.584 6.961-.031.993.238 2.002.56 3.014.688 1.201.151 2.443.009 3.651.024-4.576-2.822-9.615-3.846-14.929-4.008-1.219-.037-2.579-.112-3.784.05m-156 2.5c-2.722.247-5.151.83-7.602 2.062 3.831-.274 7.746-.169 11.589-.179 2.566-.02 5.171.05 7.732-.114-3.736-.902-7.857-2.118-11.719-1.77"/><path d="M130.97 51.288c2.501-1.199 4.673-2.154 7.478-2.365 1.224.084 2.546.186 3.656.757.465.239 1.003.498 1.167 1.02-.24.23-.37.22-.69.208-3.216-.113-5.148-.625-8.2.902-.97.485-1.844 1.181-2.852 1.573-3.297-.961-5.366-1.46-8.788-.972-1.52.239-2.961.798-4.492 1.02 1.09-1.35 2.454-2.212 4.072-2.801 3.152-1.15 5.679-.706 8.649.658m4.665 18.439c.21-.745.493-1.49.851-2.176 1.036-1.985 2.816-3.45 5.036-3.904 1.545-.316 2.964-.275 4.499-.766.154 0 .233-.004.377.008.749.061 1.378.441 1.856 1.003.044.178.115.288.033.464-.57 1.24-5.88 1.488-7.329 2.06-.985.39-1.556 1.676-1.928 2.6.777-.028 1.702-.095 2.465.058 1.03.207 2.832 1.55 3.332 2.47.156.289.149.433.07.742-.25.174-.406.216-.715.147-1.292-.289-2.225-.987-3.638-1.018-1.215-.027-2.274.379-3.372.835 2.264.633 4.55 1.54 6.371 3.06.463.386 1.31 1.046 1.37 1.667-.045.043-.074.115-.134.13-.039.01-.537-.164-.605-.183-3.75-1.061-7.275-2.623-11.147-1.112-1.881.734-6.538 2.99-7.34 4.941-.392.953-.983 2.926-.397 3.853.149.237.296.332.573.366.374.044.788-.214 1.073-.422.165-.12.318-.245.49-.355 1.216-.774 3.834-1.324 5.243-1 .764.177 1.422.646 2.191.838.452-.025.861.014 1.306.106.967.201 2.383.83 2.924 1.688.03.31.084.306-.102.577-1.717.394-3.938-.875-5.607-.993-1.833-.13-6.566 2.132-7.91 3.406-2.496 2.366.263 3.203.062 5.047-.047.431-.19.745-.538 1.01a1.6 1.6 0 0 1-.796-.254c-.892-.557-1.3-1.91-1.48-2.892-.33-1.806.264-3.463 1.284-4.926-.27-.303-.558-.612-.765-.963-.646-1.096-.73-2.579-.38-3.783.436-1.504 1.557-2.483 2.355-3.767.456-.734.666-1.57 1.284-2.2 1.131-1.153 2.67-1.848 3.979-2.766.856-.6 1.571-1.39 2.412-2.011.84-.62 1.835-1.077 2.747-1.585m21.475 16.721c-1.482-.124-2.986 1.252-4.443 1.617-1.232.309-2.394-.12-3.621-.105-.872.01-1.666.457-2.522.521-.283.021-.413.061-.629-.125.081-.528.144-1.107.389-1.588.26-.513.674-.939 1.142-1.269 1.427-1.009 5.243-2.796 6.904-3.352.467-.032 1.052-.126 1.486.072.213.097.177.138.248.336-.524 1.16-3.153 2.094-4.174 3.055l-.081.08c2.312-.556 3.108-1.515 5.008-2.17.902-.311 3.406-.344 4.248.061.113.156.218.217.195.422-.046.415-.362.733-.653 1.007-1.029.97-2.091 1.462-3.496 1.438m-54.461-1.581c-.42-.014-.764-.12-1.14-.301-.083-.157-.169-.21-.1-.394.269-.725 1.679-1.386 2.341-1.786.475-.069.906-.151 1.324.126.048.222.09.245-.009.468-.395.89-1.557 1.523-2.416 1.887m4.288 3.843c-1.25.797-3.887 2.803-5.282 2.911-.155-.093-.278-.1-.307-.298-.082-.566.477-1.307.79-1.762q.411-.61.9-1.159t1.047-1.028c.554-.468 4.335-2.64 5.063-2.887 1.447-.494 3.12-.663 4.625-.948.899-.103 1.781-.013 2.656.203 1.053.26 3.812 1.42 4.235 2.453.13.317.09.4-.025.696-1.048-.01-2.414-.6-3.452-.872-1.037-.27-2.61-.322-3.654-.063-.803.198-1.471.924-2.243 1.233-1.48.593-2.917.687-4.353 1.52m30.239 9.135c-.2.899-.167 1.862-.396 2.75-.086.337-.169.422-.469.576-.257-.101-.342-.137-.507-.373-.609-.873-.957-2.512-.76-3.54.163-.857.484-1.225 1.216-1.68 2.535-1.578 2.948-3.464 6.309-4.549l.118-.01c.92-.067 2.797.305 3.488.968.184.177.18.239.19.477-.93.975-3.086.309-4.283.919-.303.154-.468.278-.58.591.555.578 2.278.858 3.096 1.412.528.357 1.413 1.15 1.47 1.827.015.188-.111.242-.23.365-1.052.185-2.028-.55-3.012-.843-.81-.24-1.535-.32-2.37-.316-1.268.166-2.246.719-3.28 1.425m-7.131 3.135c-.59-1.646-3.51-4.334-3.585-4.916-.026-.198.188-.33.312-.466.705.052 1.245.18 1.88.504 1.882.96 3.171 2.54 3.787 4.545-.145.402-.31.797-.47 1.194.786 1.098 1.708 2.094 2.344 3.296 2.355 4.456-.982 4.993-2.165 8.83-.066.184-.012.081-.213.276-.294-.169-.4-.38-.498-.698-.523-1.712.495-2.719 1.179-4.104.779-1.578-.195-3.757-1.355-4.894-.542-.531-1.72-1.129-1.979-1.813.096-.638.46-1.193.763-1.754m-11.854 1.897a7 7 0 0 1-.565.292c-1.115.495-3.127.454-4.262-.03-.361-.154-.658-.371-.777-.763-.104-.344-.02-.656.128-.97 1.247-.093 2.101.34 3.284.418.641.043 1.284-.145 1.933-.049.306.046.42.136.606.37-.023.052-.104.223-.114.273-.053.286-.037.236-.233.459m6.745 9.092c-.572.073-1.104.088-1.656-.113-.533-.194-1.04-.522-1.273-1.06-.239-.55-.156-1.04.057-1.577.177.005.387.001.563.038.733.154 2.026 1.532 2.386 2.18.108.195-.01.334-.077.532m-1.742 13.587q-.078-.029-.155-.061c-.945-.408-1.633-1.205-1.969-2.175-.42-1.212-.241-2.392.299-3.528.227.049.428.084.612.24.143.121.266.297.334.471.115.296 1.135 4.216 1.15 4.47.016.295-.095.366-.271.583m-8.287 30.819-.167.135c-.085-.067-.115-.081-.179-.187-.706-1.182-.83-5.32-.883-6.892-.074-2.223.121-4.471.16-6.696q.037-3.42.122-6.838c.03-1.18-.04-2.472.22-3.624.418.052.719.08 1.038.384.611 1.297.57 16.45.439 18.637-.104 1.724-.382 3.397-.75 5.08m21.63-14.605-.045-.04c-1.032-1.227-1.162-6.306-.991-7.875.078-.714.185-1.061.754-1.522.101.01.227.016.323.047.274.088.414.195.56.438.913 1.508-.192 7.34-.602 8.952m-17.981-3.222-.108.025c-.02-.041-.043-.081-.06-.124-.53-1.326-.521-4.222.07-5.52.038.017.079.03.116.05.37.186.563.496.66.89.364 1.464.055 3.386-.678 4.68m14.214 4.178-.154.107c-.548-.702-.657-3.454-.712-4.454-.074-1.334-.437-3.804.488-4.832.29.089.55.188.751.428.948 1.132-.084 7.226-.374 8.751m-7.865 9.062c-.238.181-.104.143-.402.116-.08-.141-.094-.153-.144-.334-.425-1.56-.265-14.592-.062-16.33.066-.56.216-.95.5-1.435.318.12.541.285.708.588.77 1.4.358 10.752.168 12.765-.145 1.55-.346 3.13-.768 4.63m-3.237-.64-.246-.024c-.18-.251-.196-.41-.25-.712-.491-2.74-.859-13.393.462-15.24.185.035.36.1.54.157.086.116.123.15.172.306.664 2.088.275 13.526-.678 15.513m6.22 11.984c-.161-.015-.073.012-.243-.13-.3-1.277-.32-2.673-.418-3.983-.381-5.127-.267-10.256-.116-15.39.057-1.929-.033-3.902.127-5.823.08-.963.185-1.67.95-2.31a2.1 2.1 0 0 1 .484.761c.734 2.084.36 19.488.106 22.412-.13 1.48-.282 3.091-.89 4.463m-9.717-3.431-.15.048-.156-.113q-.105-.4-.162-.81c-.48-3.503-.241-7.198-.162-10.722.04-1.785-.053-3.736.277-5.49.116-.612.247-1.047.619-1.55.26.132.449.305.55.586.684 1.907.185 13.997-.303 16.585-.1.528-.283.982-.513 1.465m16.774-2.895c-.392-.541-.561-1.083-.72-1.72-.686-2.758-1.129-9.037.356-11.52l.427.058c.294.193.384.479.473.806.698 2.581.752 10.232-.536 12.376m5.798 13.642-.18.005c-.225-.127-.463-.252-.564-.508-.342-.865-1.26-9.22-1.25-10.336.004-.5.076-.837.297-1.285.1.005.234.008.33.022.338.049.43.092.623.386 1.015 1.547 1.242 7.19 1.158 8.974a13.6 13.6 0 0 1-.414 2.742m-3.381-.61-.184.18-.202-.03c-.924-1.707-.725-8.13-.244-10.025.096.01.19.017.284.041.37.096.58.212.756.567.915 1.842.182 7.279-.41 9.266m-2.498 8.62c-.115.004-.251-.024-.366-.037-.103-.124-.119-.13-.193-.302-.446-1.043-.745-13.291-.605-14.97.068-.815.212-1.495.584-2.234q.09.055.178.112c.577.383.686 1.187.79 1.821.518 3.17.282 6.426.249 9.62-.018 1.652.135 3.558-.217 5.166-.069.315-.233.567-.42.824m-25.113-11.24q-.823 2.103-1.616 4.217c-.363.99-.66 2.159-1.2 3.062-.173.29-.275.442-.6.536l-.182-.236c-.133-.704-.047-1.344.07-2.043.463-2.75 1.516-7.253 3.856-8.931.515.117 1.01.468 1.466.729l1.466-.274c-.116 1.439-.37 2.867-.549 4.299-.184 1.481-.219 5.154-1.193 6.296l-.183-.038c-1.065-1.579-.79-4.796-.806-6.648-.006-.59.062-1.274-.105-1.842-.258.219-.322.562-.425.873m9.74 12.53c-.656-1.759-.66-3.347-.92-5.17-.134-.947-.654-1.825-.88-2.755-.54-2.21.558-4.891 1.417-6.89.208.082.41.18.614.274.078.124.182.235.233.373.183.494.147 4.758.212 5.595.107 1.36.497 2.775.449 4.136-.04 1.115-.282 3.056-.555 4.126-.07.273-.055.275-.306.433zm11.684-.333c-.277.041-.26-.017-.476-.172-.976-1.923-.99-10.517-.329-12.685.244.07.41.133.566.345 1.157 1.582.784 10.538.239 12.512m-3.574.044c-.183.23-.067.143-.358.251-.056-.082-.092-.122-.121-.229-.717-2.555.025-5.419.242-7.972.08-.936-.038-1.887.16-2.812.12-.566.346-1.035.635-1.532.345.089.484.155.668.466 1.295 2.182-.578 9.304-1.226 11.828M144.382 170c-.253.421-.385.811-.826 1.045-.241-.113-.319-.13-.424-.395-.265-.668-.382-1.932-.093-2.579.49.033.986.207 1.466.312 1.49.325 2.642.175 4.114-.193 1.986 1.828 3.634 6.504 3.936 9.118.045.384.043.648-.192.959-.1.013-.173.031-.278.006-.528-.125-.93-.602-1.146-1.065-.767-2.528-1.577-4.93-2.903-7.235-.61.755-1.118 1.553-1.78 2.272-.548-.87-1.08-1.585-1.874-2.245m-50.258 7.927c1.448-1.298 3.351-2.181 4.498-3.785 1.214-1.696.726-4.028 2.452-5.416.463.026 1.374.234 1.756.488.356.238.701.64.76 1.08.05.376-.018.556-.217.868-.28.157-.402.257-.738.165-.413-.113-.723-.643-.964-.963-.476 1.758-1.087 4.672-2.39 6.008-.414.425-.918.618-1.455.84-1.316.547-2.325 1.085-3.403 2.038-.794-.189-1.483-.29-2.294-.144-.864.383-1.77.9-2.737.626-.135-.194-.174-.149-.117-.345.226-.772 1.552-1.5 2.241-1.814.873.031 1.746.211 2.608.353m64.512-2.065c-.297.186-.65.41-.995.483-.788.168-2.503-.263-3.125-.714-.278-.201-.321-.357-.381-.68.085-.235.123-.385.325-.548.408-.33 1.498.139 1.988.226 1.138.2 1.636-.172 2.52-.795l.323.082c.651.585 3.138 2.92 3.293 3.633-.996.317-2.802-1.298-3.739-1.619zm18.976 3.799c-1.692-.14-4.364.079-5.817-.767l-.04-.207c.856-.728 2.956-1.007 4.074-1.142 1.832-.256 4.133 1.292 5.584 2.269-1.285.106-2.526.017-3.802-.153m-26.835 17.972-.03-8.262c.694-.02 1.438-.07 2.069.27.885.476 1.395 1.288 1.632 2.247q.037.15.066.302t.05.306.035.307.02.31.004.309-.012.31-.026.308-.042.306q-.025.154-.057.305t-.072.301-.087.297-.102.293q-.054.144-.116.286-.062.143-.13.281-.069.14-.145.274-.075.136-.157.267c-.804.812-1.829.863-2.9.983m-19.9-2.519c.399-1.282.914-2.534 1.394-3.787a48 48 0 0 1 1.32 3.887c-.417.149-.93.054-1.371.031-.446-.02-.899-.087-1.343-.131M47.63 209.147c2.16-1.101 4.775-1.168 7.15-1.345 2.573-.211 5.169.092 7.747.14-2.177 1.192-4.57 1.469-7.01 1.65-2.593-.012-5.343.096-7.887-.445m30.284.022c2.353-.829 4.834-1.079 7.307-1.241 5.164-.379 10.334.423 15.342 1.621 8.605 2.06 17.474 5.589 26.448 3.642 3.087-.67 5.751-2.06 8.637-3.26.407-.17.785-.321 1.216-.205-.01.117-.005.15-.058.271-.642 1.456-3.391 2.913-4.759 3.6-2.136 1.121-4.58 1.703-6.96 2.006-10.624 1.352-19.375-3.709-29.557-5.264-5.821-.89-11.763-.528-17.616-1.17m108.859.036c2.998-.997 6.5-1.056 9.64-1.279 1.71-.213 9.845-.33 11.004.409l-.009.181c-1.742.994-6.785 1.199-8.813 1.052-2.309-.27-4.811-.373-7.137-.375-1.567-.001-3.119.141-4.685.012m-12.553-.354c-2.012-.279-3.943.121-5.936.1l.019-.121c1.523-.484 7.662-.645 9.649-.776l.025-.004c1.33-.09 4.004-.322 5.073.599-.053.293-.09.321-.317.505-1.146.93-6.938-.138-8.513-.303m8.687 6.082c-7.615.856-13.34-1.116-20.686-2.176q-2.871-.401-5.77-.49t-5.788.138c-2.044.15-4.066.418-6.094.702-1.156.162-2.428.424-3.595.428-.275.001-.36-.016-.578-.164l.052-.25c2.17-2.086 8.832-2.89 11.816-3.067 9.157-.68 17.088 2.799 26.075 2.967 3.288.061 6.634-.054 9.894-.502 1.58-.217 5.132-1.196 6.452-.82l.125.23-.151.237c-1.177.459-2.426.681-3.645.997-2.709.7-5.32 1.416-8.107 1.77m-100.096 4.394c-1.323.159-6.354.542-7.36-.168l.141-.193c1.923-.897 7.016-1.78 9.26-2.042 2.56-.362 5.57-.036 8.137.26-2.855 1.286-7.05 1.817-10.178 2.143m10.827 15.638q-2.343.237-4.665.633c-1.683.29-3.674.884-5.382.726l-.087-.13c1.597-1.428 10.123-2.9 12.621-3.214 1.465-.184 2.928-.248 4.401-.299q1.866.03 3.724.202c1.314.133 6.68.884 7.432 1.81-.298.191-.499.193-.85.191-5.75-.034-11.448-.491-17.194.08M73.72 241.22c-.993-.083-2.481-.2-3.328-.756l-.014-.185c1.326-.454 3.3-.312 4.73-.431q2.106-.194 4.202-.481 4.472-.554 8.926-1.243c2.643-.43 5.283-.977 7.955-1.198.82-.107 2.255-.204 3.03.097l-.053.148c-1.273.827-3.315 1.11-4.775 1.502-7.053 1.9-13.317 3.226-20.673 2.547m-25.552-1.46c1.27-.215 2.572-.254 3.857-.333q.206-.022.412-.031c2.064-.086 13.596-.077 14.809 1.027l-.067.177c-.845.513-2.183.522-3.15.599-3.765.29-12.346-.167-15.861-1.439"/></svg>