<svg xmlns="http://www.w3.org/2000/svg" viewBox="0 0 256 256"><path d="M121.057 0h14.138l.129.021c2.144.344 4.349.43 6.508.687q7.471.847 14.814 2.463 1.385.314 2.762.66 1.377.345 2.747.72 1.369.377 2.73.783t2.711.843 2.692.904 2.671.964 2.65 1.023q1.318.526 2.625 1.081 1.307.556 2.6 1.14 1.295.585 2.575 1.199 1.28.613 2.548 1.255 1.266.642 2.518 1.312t2.489 1.368 2.457 1.423q1.22.726 2.425 1.478 1.204.753 2.391 1.532t2.357 1.585q1.169.805 2.32 1.636 1.151.832 2.283 1.689t2.245 1.739 2.206 1.789 2.165 1.837 2.123 1.886 2.081 1.932 2.037 1.979 1.993 2.023 1.946 2.068 1.9 2.11 1.852 2.153q.915 1.086 1.804 2.193.89 1.106 1.754 2.233.865 1.126 1.704 2.272.884 1.2 1.74 2.42.855 1.22 1.683 2.46.827 1.239 1.625 2.498.798 1.258 1.566 2.535.769 1.277 1.507 2.571.74 1.294 1.448 2.606.708 1.31 1.386 2.638t1.324 2.67q.646 1.343 1.262 2.7.615 1.358 1.198 2.729t1.135 2.756q.551 1.384 1.07 2.781.52 1.397 1.006 2.806.486 1.408.94 2.828t.873 2.85q.42 1.43.807 2.868c.913 3.349 1.77 6.733 2.373 10.153.603 3.424 1.113 6.924 1.445 10.385.207 2.178.185 4.572.605 6.703v11.276l-.02.116c-.375 2.383-.312 4.924-.547 7.336q-.748 7.179-2.24 14.24-.306 1.418-.64 2.828-.338 1.41-.706 2.812-.37 1.402-.77 2.795t-.83 2.777q-.432 1.384-.894 2.758-.463 1.374-.956 2.737t-1.018 2.714-1.078 2.69-1.14 2.667q-.584 1.326-1.2 2.639-.614 1.313-1.258 2.611t-1.317 2.582-1.376 2.552-1.433 2.52-1.489 2.487-1.545 2.453-1.6 2.417-1.655 2.38-1.708 2.343-1.76 2.303q-.894 1.142-1.813 2.263t-1.863 2.22q-.944 1.1-1.912 2.18-.969 1.078-1.962 2.134t-2.009 2.09-2.056 2.043-2.101 1.997-2.147 1.949q-1.083.962-2.189 1.9t-2.232 1.85q-1.127.912-2.274 1.798-1.147.887-2.313 1.747-1.486 1.101-3.002 2.158-1.517 1.057-3.065 2.069-1.547 1.012-3.123 1.978-1.576.967-3.18 1.887-1.603.92-3.233 1.793t-3.284 1.698q-1.655.825-3.333 1.601t-3.378 1.504-3.42 1.403-3.46 1.304q-1.739.626-3.496 1.202-1.757.575-3.53 1.1-1.773.522-3.56.995-1.788.472-3.589.89-1.8.42-3.613.787t-3.634.68c-3.032.525-6.08 1.025-9.147 1.298-1.97.174-4.76.13-6.566.512h-12.793c-1.9-.398-4.149-.365-6.097-.56q-4.938-.515-9.821-1.412-1.768-.305-3.526-.658-1.759-.355-3.506-.76-1.748-.403-3.483-.858-1.735-.452-3.457-.954-1.722-.503-3.428-1.054-1.707-.552-3.398-1.151-1.69-.6-3.363-1.247t-3.326-1.341-3.288-1.436-3.244-1.528q-1.612-.788-3.2-1.62-1.59-.833-3.154-1.71-1.564-.878-3.102-1.8-1.54-.92-3.051-1.886t-2.996-1.972q-1.484-1.007-2.939-2.056-1.157-.828-2.294-1.681t-2.256-1.732-2.217-1.78q-1.099-.904-2.177-1.831t-2.136-1.878-2.093-1.926-2.05-1.972q-1.013-.997-2.004-2.017-.992-1.019-1.96-2.06t-1.913-2.105-1.866-2.146-1.817-2.187q-.897-1.105-1.769-2.228t-1.718-2.266-1.667-2.304-1.616-2.341-1.563-2.376-1.51-2.41q-.74-1.214-1.454-2.444-.715-1.23-1.401-2.475-.687-1.245-1.345-2.506-.659-1.26-1.289-2.535t-1.232-2.563-1.174-2.59-1.117-2.616-1.058-2.64-.999-2.663q-.484-1.337-.939-2.684t-.879-2.705-.819-2.724-.757-2.74q-.364-1.376-.697-2.758C2.26 153.348 1.274 148.46.701 143.6c-.312-2.646-.247-5.392-.68-8.008L0 135.477v-14.324c.417-1.87.422-4.671.628-6.663.346-3.337.91-6.676 1.515-9.977q.337-1.773.724-3.537.386-1.763.822-3.515t.918-3.492 1.016-3.464q.531-1.726 1.11-3.435t1.206-3.404q.626-1.693 1.3-3.368.672-1.675 1.391-3.331.72-1.656 1.484-3.291.765-1.636 1.575-3.25.81-1.613 1.664-3.204.854-1.59 1.752-3.156t1.839-3.107 1.924-3.055 2.008-3q1.025-1.487 2.09-2.944.865-1.177 1.757-2.333t1.809-2.293q.918-1.135 1.86-2.25.944-1.114 1.913-2.207.968-1.093 1.962-2.163.993-1.07 2.01-2.117 1.018-1.047 2.06-2.071 1.041-1.024 2.105-2.023t2.152-1.975 2.196-1.924 2.24-1.874 2.281-1.823 2.323-1.77q1.172-.87 2.363-1.715t2.401-1.662 2.44-1.606q1.228-.789 2.474-1.55 1.247-.76 2.51-1.492t2.543-1.435 2.576-1.377 2.606-1.317 2.636-1.257 2.663-1.197 2.691-1.135 2.715-1.074q1.365-.52 2.74-1.01t2.762-.949q1.386-.458 2.783-.884 1.396-.427 2.802-.821t2.821-.757 2.837-.691q1.422-.33 2.852-.627c4.102-.887 8.424-1.478 12.6-1.92 2.194-.233 4.426-.337 6.608-.661m3.335 4.929c-4.823.235-9.638.496-14.421 1.202q-1.304.19-2.603.408-1.298.219-2.592.465t-2.582.52-2.57.576-2.557.631-2.543.687q-1.267.357-2.527.74-1.26.385-2.511.796t-2.493.85-2.474.903-2.454.957-2.433 1.009-2.41 1.061-2.387 1.114-2.362 1.164-2.337 1.216-2.31 1.265-2.282 1.315-2.253 1.364q-1.12.695-2.223 1.413-1.104.718-2.192 1.46t-2.16 1.507-2.127 1.553-2.093 1.6-2.058 1.643-2.022 1.688-1.985 1.73-1.947 1.774-1.909 1.816-1.869 1.855-1.828 1.896-1.787 1.935q-1.03 1.134-2.03 2.293-1.002 1.16-1.974 2.343t-1.915 2.39-1.856 2.437-1.795 2.482-1.733 2.525-1.67 2.567-1.607 2.608-1.542 2.647-1.476 2.683-1.41 2.72-1.342 2.753-1.274 2.785-1.204 2.816-1.135 2.846-1.065 2.871-.993 2.898-.921 2.921-.85 2.943-.776 2.963-.703 2.98-.63 2.998-.555 3.013-.48 3.025-.407 3.035-.33 3.045q-.148 1.525-.257 3.053-.109 1.527-.18 3.057-.072 1.53-.106 3.061-.033 1.532-.03 3.063.005 1.532.047 3.063.041 1.53.12 3.06.082 1.505.201 3.007.119 1.501.274 3 .155 1.498.348 2.993t.42 2.983q.23 1.489.495 2.972.266 1.482.568 2.958t.64 2.945.712 2.927.784 2.909.855 2.889q.446 1.439.926 2.867t.997 2.843 1.066 2.818 1.135 2.79q.585 1.39 1.203 2.763.62 1.374 1.271 2.731.653 1.358 1.338 2.7.686 1.342 1.404 2.666t1.469 2.63q.75 1.306 1.533 2.594t1.597 2.555 1.659 2.515 1.72 2.473 1.78 2.43 1.84 2.387q.935 1.181 1.898 2.34.963 1.157 1.955 2.292t2.011 2.243q1.02 1.11 2.065 2.194 1.046 1.084 2.119 2.142 1.072 1.058 2.17 2.089 1.099 1.031 2.222 2.035.821.736 1.656 1.457.833.72 1.68 1.426t1.707 1.397 1.73 1.365 1.755 1.335q.884.66 1.78 1.303.894.643 1.8 1.271.907.627 1.825 1.238.917.612 1.846 1.207.928.594 1.867 1.172.938.578 1.887 1.14.949.56 1.908 1.105t1.927 1.07q.968.528 1.946 1.037.978.51 1.964 1.001.987.493 1.982.967t1.999.93 2.015.895 2.03.86q1.02.42 2.046.821 1.027.402 2.06.786t2.074.749 2.087.712 2.099.673q1.052.328 2.11.637 1.059.309 2.123.599 1.063.29 2.132.56 1.069.272 2.142.523 1.073.252 2.15.485 1.079.232 2.16.445 1.082.214 2.167.407 1.085.194 2.174.369 5.838.852 11.728 1.2 5.89.347 11.788.187c5.058-.187 10.06-.523 15.07-1.282 28.067-4.262 52.459-18.114 71.69-38.792q.998-1.09 1.97-2.203.97-1.113 1.915-2.25.944-1.136 1.86-2.294t1.806-2.34 1.749-2.381 1.69-2.423q.832-1.222 1.633-2.463t1.572-2.502 1.512-2.538q.741-1.278 1.45-2.574.71-1.296 1.39-2.608.678-1.313 1.325-2.642t1.26-2.671 1.198-2.702 1.131-2.729q.55-1.372 1.066-2.756t1-2.78q.482-1.397.932-2.804.449-1.408.864-2.826.416-1.417.797-2.845.38-1.428.727-2.864t.66-2.88.589-2.895.52-2.909q.242-1.457.45-2.92t.378-2.93q.172-1.468.31-2.939t.238-2.945q.102-1.474.167-2.95.068-1.476.098-2.953t.024-2.955-.044-2.954c-.153-4.135-.348-8.279-.883-12.384q-.183-1.347-.396-2.69t-.454-2.68-.512-2.67-.57-2.658-.629-2.645-.685-2.63-.743-2.615-.799-2.599q-.413-1.294-.855-2.58-.442-1.285-.912-2.561t-.966-2.54q-.498-1.266-1.022-2.52-.525-1.254-1.077-2.496t-1.13-2.472-1.184-2.448-1.237-2.42-1.289-2.394-1.341-2.364-1.392-2.335-1.442-2.304q-.734-1.145-1.493-2.273-.758-1.128-1.541-2.239t-1.59-2.205-1.637-2.17-1.684-2.134-1.73-2.097-1.775-2.059-1.82-2.02-1.863-1.979-1.906-1.938-1.947-1.897-1.988-1.854q-4.66-4.27-9.786-7.967-1.023-.751-2.061-1.481t-2.091-1.438q-1.054-.708-2.121-1.394t-2.149-1.35q-1.081-.664-2.176-1.305-1.095-.642-2.203-1.26-1.108-.619-2.228-1.215-1.12-.595-2.254-1.167-1.132-.573-2.276-1.121-1.144-.549-2.3-1.074t-2.32-1.026q-1.166-.5-2.343-.977-1.175-.477-2.361-.93-1.186-.452-2.38-.88-1.195-.427-2.398-.83t-2.415-.78-2.43-.73q-1.22-.354-2.445-.68-1.226-.328-2.459-.63-1.232-.302-2.47-.579-1.24-.276-2.483-.527-1.244-.25-2.493-.476t-2.502-.424-2.51-.372-2.518-.32-2.523-.268-2.529-.216-2.532-.163-2.536-.111q-1.268-.043-2.536-.059-1.27-.016-2.538-.006-1.269.01-2.538.047z"/><path d="M131.154 248.71q-1.452.04-2.905.044-1.453.005-2.905-.026-1.453-.03-2.904-.096-1.451-.065-2.9-.166-1.45-.1-2.896-.235-1.446-.136-2.889-.305-1.442-.17-2.88-.375-1.439-.204-2.872-.444-1.433-.239-2.86-.512-1.426-.274-2.846-.582t-2.831-.65-2.815-.717-2.797-.785-2.778-.852q-1.383-.442-2.755-.918-1.373-.476-2.734-.985t-2.709-1.05q-1.347-.542-2.682-1.115-1.335-.574-2.655-1.18-1.32-.605-2.626-1.242t-2.595-1.305q-1.29-.669-2.563-1.368t-2.53-1.429-2.494-1.489q-1.239-.76-2.458-1.549t-2.42-1.607q-1.2-.819-2.38-1.665t-2.34-1.722-2.298-1.778-2.254-1.833-2.21-1.886-2.163-1.939q-1.092-.99-2.158-2.008-1.066-1.017-2.107-2.06t-2.056-2.113-2.002-2.162-1.949-2.212-1.893-2.259-1.837-2.305-1.779-2.35-1.72-2.393-1.661-2.435-1.6-2.476-1.538-2.514-1.475-2.552-1.412-2.587-1.348-2.621q-.657-1.32-1.282-2.654-.625-1.335-1.216-2.685t-1.15-2.714q-.557-1.364-1.08-2.742-.525-1.377-1.014-2.768-.49-1.39-.945-2.791t-.876-2.815-.805-2.835-.735-2.855-.664-2.871q-.315-1.44-.593-2.887-.279-1.447-.521-2.901-.243-1.454-.45-2.913-.206-1.46-.377-2.923-.17-1.465-.305-2.932-.134-1.468-.232-2.939-.097-1.47-.159-2.942-.062-1.487-.088-2.975t-.016-2.976.057-2.975.13-2.973.202-2.97.274-2.963.346-2.955.419-2.947.49-2.935.561-2.922.633-2.908.703-2.892.774-2.873.843-2.854.913-2.833q.473-1.41.981-2.809t1.05-2.785 1.117-2.758 1.184-2.73 1.25-2.7 1.316-2.67 1.38-2.636q.707-1.31 1.445-2.602t1.508-2.566q.769-1.274 1.569-2.528t1.63-2.49 1.692-2.448 1.75-2.407 1.808-2.364 1.865-2.318 1.921-2.273q.975-1.125 1.977-2.225.835-.916 1.689-1.815.853-.898 1.726-1.779.872-.881 1.762-1.744.89-.862 1.797-1.706.908-.845 1.833-1.67t1.867-1.632q.941-.805 1.9-1.592.957-.786 1.931-1.553t1.964-1.513 1.995-1.473q1.005-.725 2.024-1.43t2.053-1.39q1.035-.683 2.082-1.346 1.048-.662 2.109-1.303t2.135-1.259 2.161-1.215 2.185-1.17q1.099-.575 2.21-1.126t2.231-1.08q1.121-.528 2.253-1.033t2.275-.986 2.294-.94q1.151-.458 2.313-.892 1.16-.434 2.33-.844t2.348-.796 2.364-.748 2.378-.699 2.392-.65 2.406-.6 2.417-.55 2.428-.5q1.216-.239 2.438-.451c5.888-1.002 11.938-1.452 17.902-1.685l.203-.008c3.734-.146 7.536.061 11.263.316q1.26.087 2.518.201t2.513.255 2.507.308 2.5.36q1.249.194 2.493.413 1.243.22 2.482.466t2.473.518 2.461.57 2.448.621 2.435.674 2.42.724 2.404.775 2.387.826 2.37.876 2.35.926 2.33.975 2.31 1.024 2.286 1.073 2.264 1.12q1.126.573 2.24 1.168 1.114.596 2.215 1.216 1.1.619 2.188 1.261t2.162 1.307q1.073.666 2.133 1.353 1.06.688 2.105 1.397t2.074 1.442 2.043 1.485 2.012 1.527 1.98 1.57q.98.796 1.945 1.612.964.816 1.911 1.651.947.837 1.876 1.692 1.093 1.008 2.16 2.043 1.069 1.035 2.111 2.095t2.059 2.145q1.016 1.086 2.006 2.195.99 1.11 1.952 2.244.962 1.133 1.897 2.29.934 1.156 1.84 2.335t1.783 2.38 1.724 2.422 1.665 2.464 1.605 2.504q.786 1.261 1.542 2.542t1.48 2.579q.726 1.298 1.418 2.614.693 1.316 1.353 2.648t1.288 2.68 1.223 2.71 1.156 2.74 1.09 2.767 1.02 2.793.954 2.816.884 2.84.815 2.86.744 2.878.675 2.896q.32 1.452.603 2.912.285 1.46.533 2.925.249 1.466.461 2.938.213 1.471.39 2.948t.317 2.956.246 2.964q.105 1.483.173 2.968.058 1.487.08 2.975.023 1.488.008 2.977t-.066 2.975-.14 2.973-.212 2.968-.286 2.963-.358 2.954q-.197 1.475-.431 2.945t-.504 2.933-.575 2.92-.648 2.905-.718 2.888-.79 2.87-.86 2.849-.93 2.827-.999 2.803q-.516 1.396-1.067 2.778-.552 1.383-1.137 2.751-.584 1.369-1.203 2.722-.618 1.353-1.27 2.691-.651 1.338-1.336 2.66-.684 1.321-1.4 2.626-.718 1.304-1.466 2.59-.749 1.286-1.529 2.554t-1.59 2.515-1.653 2.475-1.713 2.434-1.773 2.39-1.83 2.347-1.888 2.3q-.958 1.14-1.944 2.254t-1.999 2.205q-.85.923-1.72 1.828-.869.904-1.757 1.791t-1.795 1.754q-.906.868-1.83 1.716-.925.849-1.867 1.678t-1.9 1.638-1.935 1.598-1.968 1.557q-.992.769-2 1.517-1.007.747-2.03 1.474-1.024.726-2.062 1.43-1.038.706-2.09 1.388-1.053.684-2.12 1.345-1.066.66-2.147 1.299t-2.173 1.254q-1.093.616-2.2 1.209-1.105.593-2.223 1.162-1.118.57-2.248 1.116t-2.27 1.068-2.293 1.021-2.313.973-2.333.924-2.352.875-2.37.826-2.386.776-2.401.727q-1.206.35-2.417.676-1.212.325-2.43.625t-2.443.575-2.454.523-2.465.472-2.474.42c-5.192.81-10.522 1.174-15.768 1.369M91.572 37.175l-.065.049zc1.067-.742 1.915-2.766 2.168-3.995-1.27.778-1.788 2.664-2.168 3.995m-3.389 1.023-.26.252-.172.05.172-.05zl.191-.049zM62.631 48.837c.087.389.15.723.374 1.062.257-.16.538-1.497.694-1.885.369-.919.846-1.828 1.374-2.666.422-.67 1.417-1.636 1.593-2.364-.074-.296-.194-.58-.058-.872l.384-.116.127.099-.127-.099c-.21-.184-.677-.537-.798-.784-.109-.223-.001-.362-.183-.59a6 6 0 0 0-.512.457c-2.402 2.44-2.894 4.413-2.868 7.758m18.84-1.532-.138.144c-.311.01-.308.013-.553-.179-.269-1.15.754-2.934 1.346-3.895.186-.3.36-.6.527-.913-2.413 1.944-4.125 5.898-4.43 8.949-.142 1.423.166 2.793 1.067 3.927.22.276.48.531.729.78a9.5 9.5 0 0 0 1.64-.686c.856 1.01 1.717 2.002 2.725 2.864.344-.3.862-.677 1.06-1.092.326-.69.233-2.008 1.16-2.11.318.15.632.303.943.468.329-.163.504-.451.628-.786.815-2.2.168-5.539-.809-7.59-.854-1.855-1.868-3.693-3.108-5.32-.575.334-1.235.638-1.672 1.147l.088.397.317.1c.264-.31.559-.75.934-.912.282.082.31.093.46.364.68 1.223.927 2.674 1.406 3.977.164.447.608.991.648 1.45.043.506-.195 1.313-.342 1.796-.09.3-.114.37-.352.559-.496-.419-.544-2.06-.599-2.681q-.04-.481-.042-.964l-.093-.115c-.618-.788-1.068-2.852-2.07-3.118l-.06.302.06-.139c.053.2.21.572.202.764-.033.88-.62 2.102-1.055 2.85-.604 1.042-1.54 2.464-2.491 3.216l-.177-.042c-.1-.65.531-1.383.905-1.888.35-.473.808-.922 1.008-1.48zl.03-.034c.632-.777.767-1.58.688-2.57-.675.824-.642 1.576-.718 2.605m-9.354 6.954-.16.171c-.122.429.154.809.26 1.219l-.41-.314c-.56.22-.804.88-1.201 1.316-.213.359-.411.553-.385.977.33.264.81.295 1.218.369l.269-.259-.007-.2q-.064-.017-.127-.036c-.418-.13-.65-.205-.874-.61-.046-.081-.067-.155-.094-.241.326-.133.49-.262.846-.196l.055.48.185-.02.11-.583.2-.053c.385.189.586.537.83.875.345.475.696.542 1.253.697l.016-.138c-.873-.519-1.381-1.102-1.992-1.897l.108-.167c.308-.112.463-.154.667-.426-.054-.321-.16-.389-.38-.636-.272-.031-.187 0-.409-.094l-.138-.063za2 2 0 0 0 .413-.275c.047-.34 0-.648-.044-.985l-.193.093zm-5.86 1.676-.171.108-.109.124-.135.125-.122.135c-.27-.294-.37-.523-.364-.92.02-1.034.458-2.712 1.047-3.562l.271-.156c.277.137.353.259.458.542.248.672.263 1.469.438 2.167.767-1.194 1.552-2.824 2.678-3.705l.266-.047c.174.31.229.735.095 1.08-.345.883-3.551 5.124-4.292 5.912-.709.753-1.61 1.367-2.227 2.197-.2.27-.304.436-.236.775l.266.109c1.12-.577 1.995-1.492 3.163-1.995l.126-.055c.625-1.055 1.471-1.917 2.142-2.933 1.093-1.966 4.757-9.28 4.024-11.47-.084-.252-.162-.347-.357-.515-.688-.218-1.772.438-2.403.722-.324-.43-.602-.884-1.175-.983-.656-.114-1.274.416-1.732.812-3.085 2.665-3.312 6.703-3.535 10.476-.064 1.075-.014 2.17.002 3.246.44-.471 1.152-1.073 1.345-1.697l.122-.135.135-.125.109-.124zc.278-.046.5-.076.752-.21l-.04-.237c-.26.128-.476.282-.712.447m-1.507 7.441-.144.123zc.177.073.316.103.502.137l.073-.227c-.115-.058-.245-.09-.368-.13zm1.382.58c.156.247.374.31.629.427.804 1.06 2 2.29 2.989 3.204 1.177 1.087 2.93 1.764 4.547 1.655.934-.062 2.15-.532 2.734-1.3.263-.347.282-.606.24-1.022-.02-.212-.046-.404-.023-.618.055-.507.83-.965 1.212-1.277.598-.49 1.205-1.022 1.261-1.846.14-2.06-2.236-.844-3.037-1.721-.046-.768.609-1.084.782-1.75.061-.236.017-.41-.113-.614-.185-.293-.726-.593-1.058-.579-.542.023-1.064.532-1.55.734-.98.408-3.364-.463-4.436-.697-2.168.658-4.02 2.199-5.786 3.56.713.099 1.424.13 2.142.162l.803-.726c1.624-.037 3.186-.524 4.808-.57.436-.011.894-.055 1.223.257l-.058.176c-1.799 1.187-4.58.634-6.573 1.368l-.15.06c1.613.121 2.394-.175 3.812.883.392.292 1.007.752 1.072 1.27l-.194.141c-.486.036-.84-.157-1.277-.35-1.406.382-2.081.188-3.37-.4a1.2 1.2 0 0 0-.33-.492zm-7.318 4.356-.053.06zc.186-.134.31-.255.464-.421l-.015-.245c-.02.004-.04.004-.057.012-.299.143-.296.361-.392.654m54.256.872-.07.057zc.184-.07.37-.137.553-.21 2.181-.867 4.837-.954 7.165-1.209l-1.086-1.41-.638-.867c-1.702 1.06-4.641 2.397-5.994 3.696m-54.744 2.28c-2.88 1.774-4.603 2.526-7.947 3.094.252.816.738 1.596.926 2.412.074.376.109.868.361 1.162 1.374.073 3.558-.868 4.837-1.41.194-.433.169-.949.328-1.412.444-1.296.98-2.576 1.495-3.846l.036-.07zm56.395 11.59c-.436.314-.774.572-.886 1.129l-.053.067.053-.067c.407-.303.648-.688.886-1.13l.01-.177zm-72.571.727-.024.22zc.645-.535.909-1.367 1.467-1.99l.226.147c1.804-1.734 3.472-2.58 5.859-3.335.217-1.183.318-2.435.412-3.633-1.51-.85-3.876-1.042-5.024-2.343-.513-.724-1.01-1.19-.867-2.113l-.095-.014c-.45.904-.495 1.897-.823 2.835-.338.967-.843 1.882-1.225 2.834-.421 1.049-1.936 5.877-1.688 6.842.137.536.737 1.18.969 1.735l.052.13c.174-.445.316-.931.629-1.298zm35.893 6.05c-1.154.378-2.311 1.221-3.351 1.85-2.592 1.567-5.137 3.273-7.779 4.748-2.83 1.58-6.78 2.883-9.192 4.898 1.464 2.06 3.419 5.042 3.037 7.709-.087.608-.408 1.243-.915 1.609-.338.244-.869.33-1.27.431-.063 1.243-.21 4.017-1.19 4.884-.817.722-2.53.799-3.584 1.195l-.193-.069c-1.289-.447-2.635-.567-3.955-.876q-.283-.066-.563-.148t-.554-.178-.544-.207-.531-.238-.518-.266-.503-.294-.485-.32-.468-.348q-.228-.18-.447-.372-.22-.192-.427-.395-.208-.204-.405-.42-.196-.214-.38-.44-.185-.224-.357-.46-.172-.235-.331-.479t-.304-.496q-.146-.252-.277-.512c-.324 2.186-1.207 3.647-1.85 5.686-.422 1.342-.48 2.643-.718 4.007.39.844.85 1.704 1.157 2.579.264 1.008.301 2.751 1.01 3.49 1.294.291 4.63-1.739 5.766-2.45 2.135-1.337 4.197-2.798 6.331-4.141 2.042-1.286 10.641-6.107 11.566-7.25-.128-.695-.318-1.26.056-1.914.18-.317.563-.583.841-.813.094-.321.114-.501-.045-.811-.086-.167-.233-.318-.353-.46l-.334-.397c.577-2.032 1.602-3.419 3.45-4.453 3.145-1.759 7.437-1.892 10.838-.89q.38.11.753.236c-2.11-1.758-5.136-5.763-5.34-8.57-.122-1.684 1.375-3.383 2.358-4.654l.07-.05zm-41.464-.186-.01.16c.167.368.318.584.594.88l.062.066-.062-.067c-.087-.394-.247-.816-.584-1.04m1.3 2.106.169.064.055.186-.055-.186zm5.304 1.181-.047.069zc1.428-1.084.705-1.329 1.474-2.36.2-.269.468-.525.694-.775-1.28.414-1.456 1.996-2.09 3.012zm.582 1.403-.337-.247-.118.1.004.16.184.153zc.265-.033.551-.087.781-.233.62-.394 1.15-.895 1.796-1.271.843-.492 2.028-.846 2.752-1.456.694-.582 1.19-1.407 1.883-2.015.333-.049.316-.061.59.132.037.254.086.413-.03.656-.36.745-3.418 3.79-4.25 4.386-.487.35-1.73.745-1.986 1.164.112.068.154.102.295.142 2.76.795 6.743.114 9.104-1.5 1.966-1.343 3.771-3.632 4.143-6.035.087-.562.09-1.211-.26-1.686q-.134-.022-.268-.047c-.277-.053-.641-.119-.788-.383-.285-.511.017-1.258.154-1.787a8.2 8.2 0 0 0-.96-2.166c-.355-.21-.731-.351-1.114-.503-1.138-.262-1.748.626-2.619.418-.444-.441-.501-1.234-.794-1.788-.295-.556-.719-.625-1.285-.785-2.598 1.602-5.023 1.89-6.909 4.59-2.01 2.878-2.368 6.081-1.784 9.487.304-1.467 1.011-2.776 1.522-4.179l.957-.409c.705-1.105 1.086-2.377 1.79-3.47.201-.314.383-.544.754-.613l.204.249c.192 1.249-.985 2.245-1.28 3.382-.136.523.054 1.102-.187 1.614-.588 1.248-1.805 2.551-2.157 3.88q-.029.112-.054.225m-25.507 6.708c.238.379.46.72.774 1.04.308-.387.361-1.019.542-1.483.509-1.305 1.974-2.803 3.095-3.625 1.366-1.002 3.218-1.585 4.9-1.334l.056.081-.056-.08c-.234-.356-.558-.592-.884-.857-1.148.12-2.322.376-3.38.85a6.1 6.1 0 0 0-1.642 1.06c-.653.6-3.364 3.624-3.623 4.307zm87.444-4.844-.076.05zc.107-.085.144-.108.245-.225 1.642-1.915 2.722-4.201 4.078-6.296.597-.924 1.79-2.228 2.158-3.199.108-.285.087-.493.067-.791-1.062.686-2.927 4.68-3.748 5.943-.66 1.014-1.478 1.967-2.073 3.014-.281.494-.506 1.031-.727 1.554m-77.673-.072.096.124.113.172h.233c-.094-.098-.221-.124-.346-.172zm11.644 3.706c-2.922 1.05-6.134 1.748-8.265 4.208-.526-.109-1.27-.164-1.685-.514-.08-.438.036-.62.288-.98 2.284-3.266 5.786-3.193 9.19-4.299l-.88-.715c-3.933-.414-7.743-.29-10.955 2.3-1.893 1.528-3.095 3.578-3.347 6.006q-.148 1.442 0 2.884c.24.259.368.318.725.349.355.031.868-.102 1.179.049-.142.384-.533.555-.873.745-.318.23-.594.343-.703.747-.125.46.226 1.65.527 2.012.088.105.165.14.275.205l.139-.05c.16-.554.274-1.103.626-1.572l.207-.103c.257.19.277.379.316.684.054.412.037.862.041 1.278 3.51.603 7.21.638 10.232-1.48 2.4-1.682 3.834-4.165 4.298-7.041.246-1.526-.283-2.998-.312-4.523-.583.645-.982 1.157-1.345 1.952-.816 1.79-2.03 2.996-2.52 4.96-.42-.608-.745-1.164-1.027-1.851.532-.496 1.039-.955 1.435-1.571.027-.634.021-1.259.217-1.868l.164-.151.172.078.127.357c.309-.056 1.42-1.529 1.644-1.893.04-.066.073-.136.11-.203l.05-.055zm6.279.509c.035.069.105.114.163.166.207-.257.334-.383.639-.516l.117.118-.117-.117-.125-.288c-.354.075-.462.357-.677.637m2.924 1.797.165.064.098.254.11.135-.11-.135-.098-.254zm39.405 3.487.045.074c.058.19.124.342.21.52l.226.016c-.053-.34-.174-.333-.436-.536zm-50.53 15.75-.237.096-.16.03c-.404.077-.685.129-1.017.376-.4.604-.083 1.523-.879 1.724-.22-.586-.469-1.675-.21-2.26.217-.485.479-.854.834-1.247a17 17 0 0 0 2.164-.9c.212-.65.405-1.127.259-1.813-.13-.606-.31-1.443.052-2.007.588-.917 1.741-1.88 1.962-2.951-.085-.34-.191-.53-.384-.813.065-.266.175-.379.343-.585.333-.41.51-.882.546-1.411l-.095-.199c-.266.282-.384 1.062-.647 1.166-.452.18-.762.326-.977.793-.131.284-.048.086-.027.41.008.117-.07.263-.103.372-.065.212-.037.437-.03.654-.134.25-.038.187-.238.252q-.051-.23-.11-.456c-.643 1.066-.75 2.406-1.41 3.396l-.199.021c-.204-.938.546-2.578 1.044-3.348.095-.147.196-.29.288-.437-.704.467-1.99 1.597-2.685 1.88-.752.307-1.736.127-2.326.79l.447.266c.134 1.303-1.629 3.352-1.753 4.357-.11.89 1.484 3.276.999 3.884q-.04.048-.081.094c.152.964.75 4.788 1.327 5.23.329.253.547.285.951.345.567.083.876.292 1.334.628 1.03 2.498 1.408 5.015 1.263 7.698-.026.478.004 1.197-.184 1.64-.555 1.304-1.932 2.515-2.249 3.848-.582 2.446.389 5.548.235 8.09-.057.96-.604 1.78-.829 2.694-.156.633.042 1.329-.188 1.948-.429 1.15-1.213 2.202-1.852 3.248-1.778 2.912-3.398 5.772-6.844 7-.47 1.576-.524 3.37-1.119 4.87-.593 1.499-1.716 2.218-2.595 3.47-.896 1.277-1.56 2.727-2.434 4.03.695 1.4 1.357 2.834 2.125 4.196.17-.099.325-.203.482-.32.143.218.117.099.09.334-.083.713-.005 1.118.489 1.662.2.221.333.276.622.284.189-.22.217-.364.185-.649-.065-.587-.447-1.187-.622-1.758-.61-1.982-.624-4.823.586-6.587.17-.248.48-.64.783-.708.282-.062.477.025.746.106.391-.163.52-.256.795-.593.314-.384.68-.46 1.152-.504.75-.07 1.53-.015 2.282.003.234-.601.48-1.526 1.055-1.874l.172-.008c.239.547-.363 1.277 0 1.915.33.583 2.492 1.655 3.263 2.432-.003-7.533 4.156-7.34 7.111-13.03.461-.887.885-1.739 1.067-2.728q.023-.125.049-.249c-.59-.479-1.104-.868-1.182-1.676-.113-1.18.605-2.446.982-3.537-.566.19-1.46.637-2.029.573l-.066-.186c.505-.926 1.602-1.505 2.237-2.373.106-1.051.643-2.933.231-3.9-.244-.167-.34-.253-.654-.142-.352.126-.725.527-1 .772.405-.63.922-1.285 1.034-2.04.007-.05.018-.1.024-.151.11-.843-.136-1.905-.246-2.756.564-1.208 1.131-2.44 1.774-3.607.383-.697.84-1.355 1.203-2.062.433-.841.666-1.785 1.093-2.63 1.606-3.174 4.337-5.172 7.592-6.352 3.113-1.128 6.341-1.974 9.497-2.986 1.272-.408 2.463-1.073 3.759-1.4.46-.116 1.041-.232 1.496-.034.242.106.386.22.498.468.16.353-.009.784-.212 1.081-.507.74-1.346 1.37-2.01 1.978-1.207 1.102-4.643 3.672-5.325 4.813-.714 1.195-1.102 2.606-1.576 3.91q.393.453.838.855t.936.747c1.002-.231 2.182-.398 3.114-.826.826-.379 1.469-1.044 2.259-1.475 1.339-.73 2.935-1.141 4.34-1.739 1.353-.575 2.673-1.415 4.086-1.82.513-.147 1.44-.383 1.944-.1.337.19.523.534.567.907.144 1.251-2.188 4.085-3.057 4.997-.822.862-1.757 1.422-2.657 2.17 1.057.25 2.312.369 2.954 1.365.317.492.344.987.827 1.345.566.026.97-.287 1.447-.577 2.315-1.408 4.435-3.199 6.722-4.677 2.89-1.867 5.814-3.611 8.654-5.565 1.149-.791 2.282-1.493 3.32-2.438 2.425-2.21 7.245-6.617 10.36-7.29.983-.213 4.68-.11 5.854-.073.463.014 1.036.126 1.348.505.901 1.095.05 4.911-.25 6.27-.238 1.076-.632 2.117-.833 3.201-.515 2.787-.643 5.666-1.075 8.472-.62 4.034-1.462 7.676-1.462 11.802 1.799-1.159 3.756-2.007 5.612-3.061 1.596-3.365 4.001-8.31 6.513-10.99 1.086-1.159 2.44-2.038 3.543-3.198 1.222-1.286 3.87-3.98 5.571-4.564.344-.118.642-.097.962.063 1.154.573 2.16 2.136 2.925 3.145 2.212 2.918 4.245 5.843 6.052 9.037 1.71 3.026 3.327 6.983 5.594 9.569 1.058 1.206 2.886 2.27 4.248 3.17l-1.287-5.454c-.863-3.668-1.973-7.887.144-11.358 1.38-2.263 3.125-3.852 4.733-5.868 1.82-2.281 2.736-5.337 3.686-8.061.311-.892 1.024-3.371 2.09-3.58.643-.127 2.087.699 2.648 1.041 2.319 1.418 4.335 3.3 6.515 4.915 1.991 1.474 4.354 2.72 6.125 4.45 1.754 1.713 3.323 3.58 5.218 5.154 4.778 3.968 12.734 8.422 18.824 9.62 1.166.23 2.384.235 3.568.234.576 0 1.007 0 1.502-.315.131-.305.147-.37.03-.705-.303-.866-1.708-1.989-2.33-2.712-.994-1.16-3.51-4.532-3.167-6.02.252-.312.446-.459.855-.51 1.05-.13 2.414.103 3.472.233 1.44.178 3.038.409 4.386.971 1.551.647 2.941 1.96 4.293 2.945.945.688 1.965 1.266 3.012 1.785 3.282 1.626 6.736 2.476 10.336 3.076l1.132-.666c.39-.932.893-1.54 1.852-1.911 3.708-1.435 12.412 2.842 16.337 3.905.132-.865.233-1.77.45-2.617-4.956-2.418-9.793-4.857-14.487-7.761-5.675-3.512-11.007-7.553-16.303-11.6q-9.445-7.222-18.448-14.988-9.003-7.767-17.532-16.05c-2.742-2.63-5.294-5.486-7.815-8.326-3.03-3.413-10.052-12.104-13.816-13.865q-.49-.225-.998-.412-.506-.187-1.026-.333t-1.049-.253q-.53-.106-1.066-.17c-3.342-.42-6.864-.18-10.237-.352-4.57-.232-9.139-.855-13.722-.733-2.839.077-5.798.574-8.617.93.765.22 1.559.392 2.293.702.717.303 1.525.843 2.262 1.039.251.066.438.04.687-.008.061-.012.122-.02.183-.033.875-.174 1.686-.64 2.558-.788 1.172-.198 2.465-.086 3.66-.17 1.603-.113 3.233-.428 4.837-.432 2.068-.004 3.703 1.177 5.685 1.368 2.526.244 5.516-.728 7.953.31.06.026.194.088.248.132.155.123.159.143.264.283.01.334.022.326-.192.579-.812.246-2.255-.207-3.139-.244-1.913-.08-4.05.463-5.913.151-1.418-.238-2.667-1.128-4.119-1.317-1.804-.235-3.898.337-5.716.448-1.054.064-2.226-.064-3.256.138-1.136.222-2.171.961-3.35.99-1.663.041-6.163-3.038-8.49-2.723-1.795.244-3.472 2.052-4.74 3.243-2.3 2.16-3.927 4.995-6.118 7.286-2.53 2.646-5.133 5.317-7.813 7.81-1.61 1.497-3.374 2.88-4.909 4.446.633 1.244 1.02 2.501 1.378 3.846.878-1.294 1.705-2.598 2.874-3.654.779-.703 1.677-1.278 2.38-2.062.965-1.076 1.733-2.315 2.663-3.42 1.155-1.371 2.508-2.633 3.764-3.914.677-.69 1.35-1.5 2.146-2.05.35-.037.482.014.787.183l.173.27c-.649 1.852-3.9 4.619-5.273 6.153-.987 1.103-1.723 2.423-2.698 3.542-.829.95-1.846 1.713-2.708 2.63-.84.892-2.961 3.79-3.657 4.88.695 1.748.951 3.55 1.47 5.342 2.563-3.311 5.5-6.374 8.356-9.425-.034-.259-.142-.43-.27-.654.011-.677 1.927-3.137 2.424-3.91 1.075-1.67 1.888-3.436 2.857-5.16.731-1.302 1.598-2.517 2.349-3.803.684-1.17 1.257-2.708 2.261-3.634.481-.444 1.597-1.502 2.26-1.523.176-.005.271.118.404.217.524 1.025.368 2.936.04 4.037-.41 1.385-2.434 3.639-3.34 4.942-2.218 3.191-3.932 6.73-6.387 9.739-1.701 2.085-3.622 3.99-5.456 5.952-.784.84-1.476 1.77-2.247 2.625-.784.87-1.7 1.646-2.41 2.577-.046 1.159-.078 2.305.086 3.456.16 1.124.573 2.283.51 3.423-.073 1.313-1.15 2.626-1.626 3.835-.626 1.586-.562 3.404-1.403 4.928-.75 1.362-2.025 2.681-3.158 3.735-2.211 2.056-7.88 5.031-10.943 4.958-.509-.012-.977-.143-1.46-.287l-.091-.17c-.24-.443-.398-.712-.833-.978-.386-.235-.881-.517-1.106-.91-.056-.854.953-1.846 1.466-2.495-1.44.003-2.828.062-3.93-1.037-.605-.603-.876-1.418-.836-2.262.12-2.53 2.655-4.476 4.247-6.225-.6 0-1.405-.088-1.98.067-1.57.425-3.862 2.034-5.495 2.772-2.267 1.026-4.58 1.56-6.938 2.285-1.038.319-2.227.916-3.315.903l-.232-.002c-1.228-.026-5.745-1.318-6.357-.77l.09.556c-.191.131-.137.15-.355.11-.339-.062-.559-.266-.829-.463-.257-.186-.444-.335-.774-.354-.388.136-.828.575-1.012.94-.02.04-.033.084-.049.126l.118.108.1-.057c.24-.135.357-.205.636-.248.117.174.178.323.24.523 1.94.754 5.266-1.651 6.16.208l-.134.118c-1.086-.115-1.77-.177-2.785.295-.907.422-1.879.536-2.8.89-1.6.616-2.82 2.493-4.064 3.629.524-1.274 1.066-2.357 2.167-3.242.538-.433 1.016-.767 1.477-1.296l-.122.099c-.231.183-.538.484-.852.474-.246-.008-.502-.113-.727-.205-.75.845-1.305 1.945-2.173 2.662-.673.555-1.939.725-2.405 1.348.03.257.114.247.307.404.462.037.985-.5 1.283-.254l-.083.078.08-.086c-.015.194.026.281-.147.42-.297.239-1.044.305-1.395.22-.143-.036-.113-.045-.22-.165-.221-.245-.38-.493-.722-.553-.323.094-.518.248-.676.546-.597 1.128-.485 3.525-1.602 4.267l-.303-.23c-.419.189-.575.836-.732 1.25-.191.505-.339 1.005-.666 1.44l-.165.036c-.128-.959.621-2.047 1.18-2.775.816-1.066 1.248-1.947 1.679-3.219-.798.765-2.109 2.48-2.686 3.419.254-1.147.961-1.956 1.331-3.037.113-.33.188-.479.026-.795l-.648-.034c-.272-.226-.428-.515-.611-.811l-.171.203.054.425-.13.146-.269-.186c-.19-.366-.213-.619-.22-1.029l.164-.121c.661.107 1.359.696 2.033.942l.178.064-.51-.353c-.208-.144-.425-.281-.612-.454-1.683-1.552-1.397-5.108-1.514-7.269-.427.431-1.368 1.677-1.94 1.74-.178-.385-.043-.916.008-1.331l-.093-.024c-1.016 1.688-.089 4.698-.43 5.358l-.236-.022c-.163-.152-.325-.285-.424-.49-.302-.626.2-1.585.413-2.211-.324-.555-.355-1.164-.34-1.793.021-.889.09-1.798.742-2.429zc.296-.044.186.027.35-.176-.141.027-.23.1-.35.176m164.016 19.01.064.054c.61 1.124 3.626 4.917 4.662 5.441.951.481 1.954.85 2.906 1.325 2.076 1.034 4.923 3.139 7.205 3.358-.344-.617-6.418-3.82-7.347-4.228-.894-.393-1.862-.673-2.791-.974-1.012-1.493-3.206-3.886-4.635-4.922zm-99.845 8.818-.231.098c-1.842.752-3.296.563-4.258 2.748-1.238 2.812.487 5.586 1.156 8.26.62-.627 1.19-1.376 1.546-2.189.338-.772.495-2.309 1.108-2.853l.169.113c.086.46.112.774.016 1.234-.067.414.247 2.904.439 3.198.145.223.452.425.663.587 1.611-2.658 3.3-5.543 2.519-8.786-.158-.655-.519-1.692-1.09-2.105-.26-.188-.391-.123-.674-.056-.448.364-.834 1.207-1.308 1.388a.98.98 0 0 1-.305-.664c-.025-.28.156-.708.25-.973l.047-.067zm-38.41 4.433-.188.157-.073.06.073-.06zl.175-.064.082-.198zm-.866 5.599.048.15c1.141-.138.833-.009 1.783.365q.086.034.173.066l.1.029-.1-.03a6 6 0 0 0-.79-.775c-.544-.107-.706.005-1.214.195m28.297 3.9c1.397-.407 2.675-.512 4.125-.461.793.028 1.587.127 2.372-.03l.103-.184c-.432-.561-2.057-.927-2.794-1.179-.883-.3-3.067-1.625-3.45-2.459-.086-.186-.018-.228.052-.4.737-.274 1.237 1.116 1.838 1.475.514.307 1.341.472 1.92.665.109.158.194.145.372.204l-.043-.173-.329-.031c-.914-.753-2.07-.609-2.637-1.888l.125-.141c1.786.113 3.746 2.504 5.022 2.63.01-.033.024-.066.03-.1.138-.783-.873-3.138-1.346-3.808-.892-1.266-2.087-1.907-3.606-2.153-2.29-.37-4.652.44-6.502 1.763.44.189.978.412 1.284.796.156.194.114.096.077.373-.281.235-.546.219-.894.236-.064.006-.13 0-.192.018-.291.084-.521.257-.649.534-.172.374-.083.758.109 1.099.929 1.646 3.256 2.773 5.013 3.214m9.93-2.635c-.632-.21-.946-.212-1.548.089-.402.2-.863.485-.987.951-.076.287-.062.687.114.94.124.176.286.328.43.487.163.18.108.1.187.345l-.321.235-.181-.11-.03-.204a2.5 2.5 0 0 0-.113-.48l-.193.04c-.041.275-.026.49.012.764-.25.104-.484.147-.751.192-.278.25-.32.585-.408.933l-.054.067.054-.067c.335-.236.617-.543.909-.83.478-.08 2.222-.226 2.463-.537l-.05-.19c-.414-.008-.796.002-1.108-.308-.21-.208-.351-.719-.32-1.007.037-.336.181-.54.445-.745.51-.397 1.1-.336 1.691-.215.152.308.268.632.556.835l.301-.202c.135-.204.157-.245.197-.47-.326-.228-.664-.155-1.054-.163zl.187-.114-.102-.118-.162.01zm-11.728 13.51.051.077c.499.406 1.106.649 1.684.922.44.904 1.038 1.298 1.617 2.077.649.874.397 1.79.274 2.793 1.56.145 2.9-.231 4.429-.404.905-.103 1.824-.08 2.733-.163 1.424-.13 5.906-.731 6.938-1.243.326-.162.55-.254.911-.314 2.733-.45 5.494-1.144 8.246-1.405-1.122-.602-2.257-1.145-3.362-1.785-1.782.552-3.645.755-5.403 1.379-1.987.575-4.278.973-6.326 1.298-1.823.289-2.977-.067-4.736.831-.411-.08-1.085-.134-1.404-.405-.243-.205-.227-.308-.217-.594.892-1.207 5.8-2.5 7.332-2.932.796-.224 1.714-.273 2.382-.786l-.065-.133c-1.084-.169-2.097.26-3.15.42-1.878.285-3.79.33-5.666.614-.864.13-3.263.816-3.99.646-.672-.157-1.499-.609-2.227-.816zM40 174.25c-.117.05-.248.074-.327.175.29-.076.196.004.327-.175l.124-.096zm94.414 1.297-.056.106-.115.128.115-.128zc.28-.176.43-.248.568-.564h-.024c-.327.106-.369.285-.544.564m1.603 1.041.23.166.087.076c.187.455.375.832.341 1.332-.683 1.201-3.337-1.564-5.342-.984-.266.22-.39.364-.532.68.022.04.04.083.065.12.982 1.433 9.301 4.481 11.268 4.684 2.056.213 4.28-.627 5.878-1.876a14 14 0 0 1-.59-.836c-.071-.95 1.276-1.345 1.894-1.95.398-.389.678-.875.955-1.352-.825-.376-1.696-.775-2.606-.87-.567-.06-1.382.088-1.899-.118-.207-.083-.405-.295-.562-.446.752-.557 2.054-.053 2.916-1.178.069-.243.1-.385.036-.638-.302-1.186-2.398-2.278-3.413-2.796-.896-.366-1.75-.626-2.724-.68-3.631-.204-8.53 2.374-11.176 4.744-.113.283-.119.416-.066.715l.26.168c2.009.07 3.51-1.677 5.072-2.63.353-.215.736-.489 1.152-.39-.018.08-.03.163-.055.242-.159.498-.736.725-1.149.984-.311.196-.589.366-.673.733 1.335.869 2.139-1.365 4.016-1.449l.055.129c-.595.905-1.54 1.429-2.44 1.983 1.156-.14 2.357-.29 3.42.298l-.02.154c-.902.45-2.427.297-3.448.456.544.593 1.534 1.441 1.725 2.248.048.2.019.15-.118.335-.912-.166-1.269-1.34-2.059-1.73l-.181-.083-.088-.076zm-6.361 5.038.077.056.15.819.167.096c.016-.055.043-.107.048-.164.03-.318-.177-.532-.365-.751zm-47.341 2.316-.09.08c-.282.127-.323.077-.456.375.271-.107.288-.135.457-.376zc.352-.192.692-.409.939-.73.67-.873 1.736-1.513 2.797-1.831l.108.101c-.39.852-1.936 2.071-2.74 2.614-.418.284-.953.448-1.325.79-.205.189-.198.235-.198.494l.243.165c1.567.239 4.495-.48 6.066-.909 1.332-.363 2.026-1.11 2.671-2.298.483-.888 1.221-3.195.78-4.196-.138-.312-.275-.36-.562-.49-.68.04-1.287.332-1.913.583-.388-.298.214-1.705-.041-2.415a1.37 1.37 0 0 0-.789-.835c-.963-.393-2.317.028-3.233.429-3.577 1.564-3.041 5.072-4.259 8.142q.23-.089.458-.18c1.309-.523 2.532-2.627 3.885-2.731.297-.023.37-.034.582.167-.298.493-1.066.774-1.53 1.118-.726.538-1.342 1.333-1.939 2.011m-18.794 5.787c.197.18.413.333.632.485 1.55 1.067 3.347 1.48 5.2 1.105 3.21-.651 4.603-2.387 6.306-5.001l-.065-.186c-1.055-.559-3.53 1.406-4.919 1.213-.041-.006-.364-.056-.417-.056-.681-.008-.874.565-1.382.86-.229.132-.403.132-.648.063-.031-.325.002-.17-.096-.465-.32.014-.565.013-.88-.06-.013-.347.178-.46.39-.72l.212.102c.645-.04 1.62-.721 2.207-1.036-.047-.024-.091-.056-.142-.071-.412-.124-.966.215-1.289.426-.324.212-.644.4-.988.578.06-.137.089-.213.168-.35.938-1.617 3.296-1.292 4.88-1.385.885-.052 1.901-.212 2.745-.47l-.02-.118a7 7 0 0 0-1.318-.24c-1.363-.115-2.772.036-4.145-.02-1.659-.066-3.445-.604-5.085-.317-1.657.29-2.699 1.416-3.626 2.721.565 1.215 1.302 2.046 2.28 2.942M82.161 188l.214.124.321.176.076.097.323.144.214.117.066.06-.066-.06-.214-.117-.323-.144-.076-.097-.321-.176zm-41.215 1.428-.107.093-.232.061.013.19c.209-.148.147-.056.219-.25zc.708-.347 1.503-.534 2.23-.86 2.627-1.181 5.28-3.081 6.566-5.741.963-1.99.69-3.831.015-5.83-.152.328-.31.655-.523.949-.321.446-.85 1.224-1.4 1.316-.507-.753 1.042-2.436.78-3.566-.819-.621-2.213.353-3.183.05-.194-.06-.184-.153-.264-.32.053-.494.276-.803.542-1.214-.678.11-1.355.237-2.031.356q-.48.167-.946.374c-1.733.776-3.146 1.74-3.813 3.615-.561 1.579-.97 7.061-.274 8.543.21.106.34.176.582.18.497.009 1.576-2.86 2.147-3.37.35.05.357.39.597.65.365-.555.713-1.19 1.32-1.5.293.024.286.02.492.228.04.954-.904 1.48-1.156 2.294-.073.233.233.531.183.898-.155.219-.276.36-.497.52-1.358.98-.483 1.382-1.367 2.428m.431 2.572.061.05c.163.223.13.28.414.333-.069-.217-.22-.228-.414-.333zm1.499.903.177.061.1.218.08.039-.08-.04-.1-.217zm148.698 34.394-.073.052zc.84-.257 1.801-1.071 2.542-1.56 4.476-2.96 8.633-6.268 12.634-9.835 1.758-1.568 3.54-3.133 5.048-4.952-1.296.501-5.769 4.137-6.651 5.159-.285.33-.473.776-.658 1.168-.439.188-.912.374-1.314.633-.921.593-1.659 1.49-2.532 2.157-1.522 1.163-3.034 2.355-4.567 3.499-.832.62-1.728 1.15-2.525 1.816-.701.587-1.314 1.283-1.977 1.915M131.9 10.124l-1.962 22.41q-.556 5.903-.941 11.82c-.153 2.149-.374 4.318-.414 6.471 1.008.087 1.977.405 2.945.683 2.166-3.738 4.19-7.546 6.267-11.332 4.87-9.14 9.467-18.443 14.475-27.51-6.349-1.484-13.876-2.471-20.37-2.542m-10.415.18c-5.945.31-15.22 1.128-20.87 2.896q8.063 13.728 15.627 27.736 3.17 5.666 6.187 11.416c1.132-.67 2.078-1.136 3.368-1.421-.15-2.945-3.99-40.243-4.312-40.628m42.43 5.163c-2.723 3.234-5.25 6.634-7.922 9.91q-11.225 13.735-22.262 27.621l2.023 2.037c3.818-2.268 7.476-4.796 11.307-7.052 7.243-4.21 14.249-8.918 21.358-13.355l10.178-6.37c1.967-1.24 4.037-2.441 5.89-3.847-6.108-3.427-13.823-6.95-20.572-8.944m-74.974.893c-1.937.806-3.95 1.419-5.895 2.211-3.65 1.486-13.436 6.071-16.155 8.528 2.544 1.668 5.658 2.406 8.196 4.132.794-.87 1.687-1.09 2.706-1.576.238-.828.611-2.22 1.36-2.709.195-.127.332-.085.554-.084.735.351 1.398 1.383 1.668 2.147q.063.178.117.36c.18-.528.342-1.143.627-1.621.698-1.175 2.561-2.407 3.782-3 .671-.325 1.413-.446 2.13-.192.651.232 1.052.687 1.426 1.246l2.129-.437c.95.414 1.545.756 1.957 1.77.643 1.586.425 2.735 1.37 4.601-.287 1.774-.846 3.077-1.716 4.639 2.842.112 5.818.968 7.784 3.166.737.825 1.065 1.679 1.138 2.772-.314 1.088-.739 1.61-1.653 2.265 1.795 1.55 4.132 2.6 6.185 3.786a721 721 0 0 0 12.603 7.131c.422-.646.873-1.22 1.38-1.801-3.285-3.981-30.553-37.123-31.693-37.334m-1.878 9.477c-2.252 1.643-4.026 1.99-4.594 5.07-.209 1.136.457 2.486.683 3.6.222 1.09.37 2.182.392 3.295l.086.01c.172-.82-.215-2.366.508-2.897.231-.17.52-.301.773-.434-.002-.565-.06-1.132.175-1.657.234-.18.234-.181.529-.174.446.323.443.991.719 1.443.522.854 1.186.54 1.41 1.827-.698.938-1.53 1.771-2.174 2.748 2.66-1.333 5.674-4.127 7.277-6.63-.202-.967-.486-4.172-1.061-4.603-.77-.578-2.108-.15-2.98-.002-.53-.67-.962-1.206-1.743-1.596m-7.475 2.053c.125.234.139.243.343.384.237.165.46.382.701.53-.212-.386-.361-.766-.773-.974zm-.278.422c.283.447.374.69.408 1.209.007.099.019.198.028.296l.02.224c.202.276.392.462.737.532s.708.064 1.058.12c-.121.403-.308.848-.237 1.268l.466.574c.145-.733.44-1.778.007-2.432-.38-.1-.35.174-.62.168-.375-.008-1.023-1.763-1.867-1.959m-.558.975-.047.31c.092-.046.199-.086.279-.15l-.068-.238zm-.9 1.815a21 21 0 0 0-4.407 3.176c-.146.49.14 1.142-.365 1.435-.525.304-1.37.148-1.954.1-1.352.977-2.368 2.191-3.202 3.629.058.877.163 1.597.836 2.236.76.721 2.163.808 3.167.735 3.083-.223 4.754-2.976 9.354-2.932l.287-.058c-.328-.545-1.577-1.096-2.2-1.265-1.287-.348-3.588-.343-4.583-1.288l-.02-.253c.564-.617 3.22-1.437 4.063-1.455a.73.73 0 0 1 .391.107l.284.334.216-.006a2 2 0 0 0-.334-.416c.176-.369.488-.593.878-.732.055-.02.112-.032.168-.048l.128.14c-.069.448-.257 1.045.02 1.43.403.558.955.815 1.301 1.456.05.092.107.18.16.27.242-.201.373-.294.43-.63.124-.741-1.406-3.877-1.939-4.45-.727-.783-1.707-1.146-2.68-1.515m118.654 1.016q-23.724 10.295-47.68 20.04-3.45 1.415-6.942 2.72c-1.752.64-3.531 1.187-5.25 1.916.318 1.027.613 2.045.844 3.095 5.668-1.055 11.517-1.538 17.248-2.182 15.787-2.166 31.655-3.816 47.46-5.861 4.745-.615 9.543-1.103 14.264-1.857q-1.937-2.237-3.991-4.368t-4.218-4.151-4.431-3.92q-2.268-1.902-4.635-3.68c-.592-.447-1.841-1.63-2.538-1.748-.043-.008-.088-.003-.131-.004M85.578 34.195l-.157.526.122.212.179.041c.249.059.15.03.383.113.046.877-1.647 2.414-1.267 3.128.877-.602 1.35-1.542 1.827-2.464-.326-.57-.631-1.074-1.088-1.556m-.973.985c-.165.33-.322.623-.234 1.009a.92.92 0 0 0 .406.599c.096-.49.049-.97.034-1.464zm-6.367.739c-.185.347-.3.434-.223.83.593.331 1.412.157 1.93.463.446.264.542.694 1.117.929l.184-.199c-.078-.337-1.279-1.553-1.574-1.734q-.053-.028-.108-.052l-.303.29c-.222-.058-.282-.095-.457-.25-.2-.178-.313-.212-.566-.277m-24.467.308c-7.699 5.814-14.455 13.403-20.266 21.07 2.193.107 17.879.681 18.427 1.26.171.18.194.305.247.54-.467.294-.913.518-1.393.766-.027.014-.044.044-.066.065 1.41-.009 2.559.343 3.91.686-.507-.605-1.361-1.916-2.068-2.236l-.232.211c-.391-.394-.416-1.256-.773-1.794-1.074-1.614-2.317-3.86-1.837-5.867.263-1.097 1.035-1.913 2.002-2.45.352-.194.725-.353 1.093-.511.522-1.047.972-2.192 2.189-2.58 1.54-.492 3.36.459 4.678 1.193l.235.133c1.71-2.837 3.438-3.925 5.34-6.295-3.746-1.55-7.646-2.888-11.486-4.191m23.153.064-.212.355c.183.327.416.387.742.562.175-.265.18-.283.169-.6-.28-.28-.303-.266-.699-.317m14.181.07c-.326.347-.374.314-.8.482-.57.225-1.186.693-1.67 1.063-.018.087-.053.174-.044.263.878-.385 1.937-.73 2.57-1.48l.024-.248zm-.567 1.081-.551.451.06.12.255-.026.612-.347.034-.127c-.134-.025-.274-.061-.41-.071m-8.66.966.076.246.173-.057-.05-.263zm11.816-.11c-2.132.204-4.178.849-6.276 1.265-.172.034-.122.031-.298.157q.328.056.658.098c.888.11 1.771.529 2.66.7.715.138 1.903.051 2.478.443l.18.284c-.217.329-.519.409-.898.48-.83.158-1.659.267-2.472.51-.531.159-1.903.836-2.305.836-.21 0-.541-.135-.755-.194.22.72 2.79 2.795 3.518 3.31 1.31.912 2.563 1.78 4.16 2.085l.114-.128c.222-.245.454-.522.754-.675.96-.487 3.739-.367 3.697-1.948-.013-.508-.9-1.645-.538-2.04.629-.686 1.947-.21 1.957-1.638.004-.575-.35-1.075-.752-1.455-1.305-1.234-3.659-2.19-5.452-2.12q-.215.008-.43.03m-10.532.274c-.444.575-1 1.47-.903 2.23.035.275.157.51.376.682.437.342 1.167.236 1.68.168-.403-.511-.796-1.036-1.227-1.523.31-.358.877-.834.896-1.308-.3-.203-.473-.218-.822-.249m1.61 1.139c-.214.304-.351.52-.281.918.062.355.207.443.466.657.438.07.512.023.907-.139.276-.386.46-.523.46-1.006-.212-.255-.355-.371-.698-.415-.278-.035-.575-.019-.855-.015m3.408 1.136-.203.305c-.534.032-1.117.02-1.625.197l-.143.209c.492.134 1.121.263 1.586.024.673.158 1.315.072 1.995.012l.03-.116c-.501-.286-1.03-.473-1.577-.653zm-7.585.18c-1.534.356-3.04.987-3.903 2.392a2.82 2.82 0 0 0-.36 2.152c.169.712.627 1.322 1.105 1.858 1.175-1.3.885-1.748 1.604-2.84.71-1.076 2.166-1.816 2.487-3.12l-.092-.312c-.347-.176-.462-.149-.84-.13m5.906 1.3c.266.246.288.172.633.168.216-.131.157-.055.231-.172-.298-.027-.574-.084-.864.004m-19.104.193-.346.523.1.09.559-.039.254-.233c-.168-.282-.267-.242-.567-.341m7.388 1.038-.1.201.243-.075.197-.217c-.225-.026-.11-.043-.34.091m-12.728 1.308c-.522.627-1.151 1.492-1.062 2.353.032.311.301.59.496.834l.166.13c.348-.89.311-2.352.4-3.317m26.026 1.595c.373.862.94 1.346 1.63 1.944l.041.163c.505 2.127.659 5.89-.566 7.855-.477.764-2.156.782-2.218 1.506.868.19 1.886.071 2.781.093q2.777.077 5.552.194 10.03.41 20.041 1.139l2.174.167c.209-.819.47-1.593.771-2.382-3.258-1.232-6.581-2.266-9.877-3.39q-6.264-2.177-12.503-4.423c-.429.186-.853.375-1.297.52-1.904-.422-3.43-1.008-4.99-2.197-.492-.376-1.004-.893-1.54-1.189m-32.494.297c-.714.307-.882.73-1.156 1.42-.127.32-.237.653-.383.966q-.527.218-1.06.427c-.673.263-1.319.753-1.613 1.436-.33.765-.114 1.62.203 2.352.55 1.266 1.365 2.41 1.777 3.734 1.1.808 1.97 1.872 2.983 2.781.921.828 1.974 1.541 2.975 2.27.3-.31.689-.624.86-1.023-.18-.21-.238-.345-.538-.352-.09-.002-.254.031-.346.048-.823-1.075-.86-2.69-1.411-3.925-.275-.615-.877-1.25-.909-1.93l.14-.225c.393.018.616.128.879.43.76.876 1.039 2.385 1.36 3.484l.175.06c.517-.843.865-1.397 1.663-2.024.595 1.639.581 3.224.986 4.879-1.107.471-1.73.694-2.207 1.881a1.8 1.8 0 0 0-.157.811c.19.272.256.442.563.591.771-.923-.239-2.288 1.654-2.429q.08-.005.16-.007c.276-.468.29-1.146.36-1.678.384-2.944.558-6.207-.178-9.116-.29-1.141-.834-2.114-1.413-3.128-.308.31-.413.525-.855.583-1.791-.904-1.339-2.243-4.512-2.316m19.445.438q-.652 2.135-1.674 4.12l-.129.25.03-.04c.151 1.252.232 2.249-.05 3.488.37.675.753 1.255 1.258 1.84.909.076 1.99.052 2.854.333 1.095.357 1.765 1.027 2.974 1.168l1.922.076-.114-.125c-.247-.267-.485-.591-.871-.623-1.372-.114-1.807-.002-2.915-1.085-1.23-1.202-1.672-2.947-1.653-4.621.012-1.022.19-1.966.496-2.94-.8-.554-1.481-1.111-2.128-1.841m-8.49 6.745c-.123.415-.317.889-.292 1.322l.173.133c.27-.408.298-.655.219-1.136-.032-.197-.026-.158-.1-.32m5.601 3.722.04.229.17-.036.01-.284zm-11.851.487c-.301.608-.47 1.602-.231 2.26.104.29.319.589.56.78.148-.748.497-1.917.128-2.634-.122-.237-.222-.304-.457-.406m13.96.109c.097.15.189.414.377.44.192.025.322-.038.498-.102l-.053-.276c-.31-.121-.5-.094-.822-.062m-1.011.289.039.077zm-21.886.322c-.335.258-1.076.641-1.137 1.059-.004.027.002.056.002.084.387-.254.755-.506 1.11-.803.018-.119.047-.222.024-.34m65.478 2.555q-10.101 1.289-20.22 2.43l-8.945 1.051c-2.69.322-6.007.405-8.485 1.513-.231 1.397-.655 2.538-1.874 3.39-1.181.825-3.143 1.21-4.57.883-.48-.111-.963-.365-1.41-.57 1.133 2.555 2.346 5.272 1.23 8.074-.312.782-.793 1.4-1.315 2.048l-1.478-.037c-1.013 1.457-1.79 2.172-3.602 2.498-1.8.323-4.274.407-5.859-.66-.539-.364-1.133-1.408-1.76-1.364-.188.296-.166.464-.099.806.096.486.37.909.628 1.322.115.645.07 1.275.043 1.926L60.717 86c1.495-.326 2.93-.994 4.363-1.525l7.536-2.78q14.787-5.548 29.439-11.443l10.139-4.082c1.98-.802 3.94-1.732 5.979-2.37-.167-.767-.245-1.623-.642-2.303-.297-.138-.366-.113-.697-.071m-54.084.131c.113.444.184.88.47 1.248l.32.118c.182-.088.344-.173.515-.282l.145-.39c-.197-.339-.361-.494-.749-.596q-.344-.093-.7-.098m-16.212.202c-1.069.559-2.133 1.055-2.555 2.287a1.93 1.93 0 0 0-.044 1.199c.217.264.297.352.656.42.482.091.97-.376 1.332-.644.714-.701 2.633-2.224 3.034-2.861-.156-.255-.18-.248-.466-.306-.613-.124-1.329-.08-1.957-.095m3.766.023c-1.47 1.26-3.657 2.828-4.423 4.625-.262.617-.34 1.395-.461 2.055.25.328.775.884.856 1.281.11.534-.064 1.114.059 1.631.214.9 1.78 1.324 2.545 1.434 2.876.415 6.426-1.076 8.664-2.796.376-.29.74-.627.85-1.103l-.287-.42c.084-.445.249-.891.049-1.308-.262-.027-.312-.016-.552.041-.437.105-1.002.138-1.402-.095-.268-.157-.554-.501-.776-.722-1.885-.171-2.184.224-3.713.327l-.08-.35c.708-.881 2.343-1.413 2.638-2.534.35-.105.402-.12.753-.026.734.826 1.262 1.164 2.43 1.225.082.004.163-.011.244-.016.016-.389-.046-.479.242-.757l1.004-.242c.173-.289.119-.253.053-.559-1.318-.92-7.06-1.79-8.693-1.69m87.05.046-.492 2.212c2.615 1.16 5.645 2.75 8.447 3.279 1.803.34 3.747.166 5.58.316 5.79.476 11.316 2.656 14.81 7.528 3.368.984 6.662 2.235 9.965 3.418l14.458 5.183q18.72 6.853 37.659 13.078c5.016 1.662 10.003 3.392 15.065 4.911l.223-.064c-.15-1.467-.735-3.064-1.114-4.496q-.87-3.278-1.943-6.495t-2.347-6.362q-1.273-3.143-2.743-6.2t-3.127-6.016c-1.071-1.942-2.147-3.953-3.416-5.774-4.137-.383-8.312-.505-12.461-.719l-22.583-1.117-42.726-1.825c-2.65-.114-5.308-.213-7.953-.414-1.762-.133-3.538-.389-5.303-.443m-75.346 1.37c-.365.377-.701.75-1.011 1.172.385.616.968 1.044 1.522 1.5l.127.068c.005-.144-.006-.288-.007-.433-.006-.81.67-1.352.088-2.105-.25-.104-.444-.203-.72-.201m6.111.497-1.061.074c.084.193.015.114.275.215.313.123.573.106.9.094l.169-.004.1-.005.069.129c.434.056.723.077 1.145-.055l-.039-.135c-.527-.29-.974-.289-1.558-.313m-3.61.328c.106.345.212.56.14.924-.388.113-.758-.1-1.117-.238l-.168.091c.04.322.069.483.271.74.404.121.742-.13 1.114-.005.536.18 1.677 2.369 1.987 2.944.328.608.57 1.246.985 1.804.47.631 1.44 1.293 1.546 2.046-.137.277-.121.306-.4.425-1.001-.373-3.564-3.704-4.665-4.101-.237.115-.29.14-.384.406-.299.846.043 1.39-.73 2.078l.047.222.33-.104c.117.359-.007 1.02-.199 1.349-.112.193-.222.278-.405.397l-.255-.01c-.483-.591-.207-4.162-1.176-5.962l.05-.247c.231-.03.4-.032.628.013l-.098-.053a3 3 0 0 1-.808-.645c-.36 1.292-.814 2.585-1.052 3.902-.688 2.975-2.568 6.296-.677 9.204.722 1.109 1.92 1.853 3.218 2.072 1.397.234 3.276-.055 4.609-.493.394-.448 1.603-2.099 2.115-2.125.48-.023.77.118 1.234-.097.587-.532.715-1.488.756-2.244.226-4.144-3.483-8.96-6.157-11.824-.242-.26-.406-.35-.74-.469m-6.088.941.108.194.22-.127-.177-.151zm.823.119.192.167.42-.075-.169-.182c-.187.007-.27.007-.443.09m-5.006.32-.058.201c.708.255 1.461.137 2.162.422l-.023-.3c-.628-.213-1.427-.478-2.08-.322m2.373.228c.055.163.106.486.264.56.168.08.271.07.45.084.372.027.58.17.873.383l.146-.539c-.348-.4-1.215-.348-1.733-.488m3.038.184-.533.69.055.09c.273-.18.486-.415.818-.379.074.301-.023.483-.125.764l-.096.263.136.034c.243-.286.457-.503.531-.885-.063-.24-.074-.404-.342-.504-.1-.038-.333-.06-.444-.073m76.127.308c-.282.41-.57.816-.837 1.236.989.007 1.978.026 2.966.019l.35-.046c-.052-.233-.091-.207-.29-.335-.655-.419-1.42-.752-2.189-.874m-71.947.334c.212.538.639 1.48 1.163 1.742-.033-.54-.002-1.062-.478-1.418-.207-.154-.447-.237-.685-.324m-4.472.609.049.12zm3.293-.1c-.02.692-.083 1.406.014 2.093l.178.018c.103-.694.196-1.325-.059-1.995zm1.044.077c.03.428-.024.898.248 1.235.055-.384.14-.704-.05-1.064zm1.856.886c.072.431.093.928.401 1.258l.511.207c-.165-.641-.374-1.065-.912-1.465m-2.888 1.51-.028.397.142-.114-.007-.236zm-20.047.36c-6.39 1.223-12.815 2.275-19.195 3.526-.877 1.616-1.712 3.288-2.713 4.83 1.356.462 2.598 1.014 3.904 1.598a2.7 2.7 0 0 0 .451-.524c1.006-.856 2.062-1.278 3.206-1.898.233-.598.434-1.21 1.059-1.497 1.085-.5 2.685.536 3.872.554 1.903.028 3.208 1.174 4.467 2.5q.683.73 1.339 1.484c.503-1.334.735-2.736 1.226-4.068.392-1.062 2.449-5.697 2.383-6.505m67.994.6c-6.784 4.008-13.708 7.772-20.483 11.799-3.239 1.925-6.41 3.986-9.586 6.014 1.66.01 2.902.573 4.362 1.296 1.86.963 3.492 1.942 4.79 3.632 1.64-1.702 3.472-3.218 5.142-4.897 4.71-4.736 9.121-9.565 13.334-14.749.492-.605 2.236-2.481 2.487-3.071zm-80.475 6.953-.078.1c-.993 1.306-.79 3.6-1.584 4.241-.317.038-.519.053-.793-.143-.267-.192-.516-.447-.756-.672l-1.312-.001c-1.05.551-1.76.954-2.46 1.944q-.167.231-.338.459l.02.177c.207 1.79 1.082 3.165.531 4.996.167.577.31 1.224.57 1.766.664 1.391 2.629 2.709 3.938 3.424 2.814 1.537 7.114 2.516 10.306 2.062l-.322-.051.06-.03c-.8-.164-1.524-.354-2.25-.743-1-.535-6.11-4.061-6.532-4.981-.055-.12-.047-.151-.052-.267.272-.103.516-.081.792.034.628.261.975.893 1.711 1.162.715-.141 1.434-.303 2.154-.411.82.343 1.54.733 2.205 1.332.316.285.873 1.021 1.228 1.123.138-.26.09-.539.008-.813-.224-.751-.931-1.35-1.287-2.053-.545-1.074-.68-2.308-1.162-3.407-.268-.612-1.135-1.512-1.068-2.134.231-.203.285-.236.584-.303.938.44 1.554 2.697 1.981 3.598.325.206.807.453 1.045.755.677.86 1.59 3.894 2.541 5.334.565-4.965.788-8.927-2.517-13.096-.79-.996-1.733-1.632-2.643-2.48-1.539-.121-2.974-.826-4.52-.922m26.863.696.036.077zm-.998.455a20 20 0 0 1-2.984.764c.303.338.742.973 1.221 1.023.172.019.336-.012.504-.032l.717-.079c.732.126 1.347.437 1.992.791-.032-.676.078-1.851-.45-2.345-.206-.193-.542-.174-.807-.148q-.096.011-.194.026m-28.068.73c-.374.227-.877.42-1.056.82.158.185.288.235.513.32l.437.26c.294-.097.264-.117.407-.398-.01-.336.052-.687-.145-.963zm30.234.185.05.261.144.018-.088-.262zm-38.406-.041c.47.595 2.407 2.167 3.083 2.445l-.034-.075.169.039.055-.044c-.06-.115-.116-.246-.196-.348.31-.038.327-.007.524-.242-.445-.687-2.2-1.596-2.99-1.781-.206-.048-.404-.02-.61.006m-.027 1.71c-.7 1.168-1.151 2.527-1.655 3.79-1.834 4.598-3.259 9.24-4.472 14.034-.167.659-.689 2.034-.529 2.645.01.038.03.073.045.11.451.178.756.08 1.191-.114.943-.419 1.722-1.022 2.52-1.664 2.437-2.564 4.774-5.59 8.526-6.043-1.704-1.316-3.13-2.362-3.415-4.667-.113-.912-.051-1.836-.131-2.75-.136-1.549-.722-2.434-.409-4.078-.549-.431-1.09-.873-1.67-1.263m95.35.83.1.093-.068-.099zm-2.45 3 .067.126.073-.037-.049-.151zm-76.4 3.633.104.276.24-.002-.106-.325c-.08.014-.166.012-.237.05m43.438 1.195c-.943 1.339-2.064 3.126-2.553 4.687 1.78 6.006 8.075 9.632 11.781 14.368l1.26-.666-.118-.121c-.9-.911-2.83-1.46-3.08-2.785.401-.979 1.84-.506 1.077-2.185-.525-1.155-1.983-3.175-1.781-4.404l.198-.157c.264.033.318.022.496.24.433.53.625 1.245 1.092 1.76.766.843 1.868 1.346 2.606 2.223 1.494 2.075 4.13 6.508 3.633 9.15-.054.288-.133.475-.34.688l-.164-.082a5 5 0 0 1-.112-.781 3 3 0 0 0-.23.443c-.199.46-.631.893-.95 1.28.772.005 1.627.084 2.376-.102.651-.79.55-1.799.458-2.76-.173-1.797-.711-3.381-1.237-5.091-.395-1.284-.623-2.644-1.092-3.901-.918-2.46-3.825-7.084-5.837-8.757-1.789-1.489-5.134-3.048-7.483-3.047m-47.147 1.605c.465.41.89.802 1.273 1.295l-.085.03 1.11.282c.567.653.965 1.141 1.86 1.317l-.093-.075c-1.411-1.17-1.962-2.746-4.065-2.849m148.187.5c4.465 3.956 8.641 8.242 13.112 12.207q9.8 8.636 20.107 16.661c7.772 6.08 15.68 11.98 24.252 16.892 2.233 1.28 4.696 2.822 7.202 3.45l.22-.12.07-.344c.457-5.088.577-10.114.435-15.22-6.267-3.533-12.773-6.71-19.197-9.949l-20.108-10.323q-10.562-5.569-21.232-10.927c-1.15-.573-3.734-2.106-4.862-2.326m-143.16.996c.025.431.314.74.587 1.053-.023-.42.023-.581-.241-.92zm10.067.133c-.283.213-.649.412-.77.759l.147.18c.272-.24.626-.47.73-.83zm-10.745.72c.194.314.395.74.772.858.146.046.26.053.408.07-.18-.43-.293-.607-.736-.778-.145-.056-.295-.103-.444-.15m9.105.405c-.29.213-.588.333-.696.684l.09.1c.284-.155.597-.272.74-.579zm-5.452.138c-.655.405-1.21.939-1.362 1.729-.078.408.034.825.268 1.162.326.468.814.766 1.377.847q.434.059.87.093c.423-.16.78-.264.992-.701.259-.537.26-1.158.045-1.71-.203-.523-.607-1.069-1.132-1.3-.33-.146-.705-.142-1.058-.12m3.917 1.075-.485.403c.01.27.038.273.17.49.281-.226.441-.283.535-.639zm46.074.44c1.04.422.992 1.132 1.712 1.553-.088-.468-.202-.982-.6-1.29-.316-.245-.732-.259-1.112-.264m-66.024 1.579c-.508.308-2.038 1.301-2.201 1.78.059.237.112.46.216.681.646-.352 1.81-1.016 2.053-1.735.067-.197.074-.377.07-.58zm19.458.206-.337.273c.767 1.093 2.309 1.128 3.343 1.71 1.075.606 4.605 3.611 4.869 4.783-.157.262-.178.251-.468.36-.77-.202-.941-.913-1.538-1.237-.282-.152-.716-.037-1.014-.148-.483-.18-.765-.682-1.222-.887-.41-.184-.873.205-1.19.032l.46-.439c-.849-.945-1.925-1.746-2.662-2.77.67 1.106 1.272 2.255 2.007 3.32q-.045.044-.088.09c-.139.148-.326.331-.313.546.03.505.495.958.81 1.317.022.763.108 1.569-.066 2.316l-.16.104c-.497-.375-1.895-3.657-2.344-4.436-.594-1.028-1.252-2.08-2.035-2.975.158 1.429.524 2.817.77 4.232.289 1.661.383 3.407.925 5.011 1.03 2.557 2.334 4.235 4.927 5.333 1.015.43 4.56 1.453 5.481 1.086.184-.074.156-.16.21-.33-.32-.94-1.127-1.635-1.404-2.605l.224-.104-.056-.302c.273.026.208-.035.353.133 1.032 1.195 1.05 1.753 2.607 2.735.877-1.931.867-2.788.755-4.826.576-.156 1.95-.36 2.235-.906.463-.894-.245-2.826-.655-3.699-1.578-3.36-4.536-5.742-8.009-6.947-2.165-.752-4.142-.917-6.415-.77m-3.967 1.588-.049.362c.226-.105.14-.037.276-.18l-.024-.198zm2.032.144-.045.31.18.064.233-.17-.186-.263zm.796-.191c.238.401.38.606.797.825-.201-.441-.323-.64-.797-.825m-4.781.314c-.992.222-2.28.376-3.13.931l.178.284c.084-.028.227-.062.3-.108.954-.506 2.25-.459 3.108-1.013l-.076-.106zm2.659.291h.121zm3.161.733.05.195.129-.025-.04-.202zm-9.31-.077c-.903.466-2.478 1.104-2.953 2.03l.44.083-.058.016c.663-.792 2.342-1.167 2.76-1.996-.06-.048-.114-.114-.189-.133m12.555.35c.266.394.527.93 1.029 1.042.131.03.183.03.33.047-.421-.414-.835-.806-1.359-1.09m-2.52.55.106.039zm43.352.119c.076.579.425 1.037.725 1.525 1.137 1.857 2.439 3.644 3.532 5.517.542.93.873 2 1.423 2.9-.047-1.907-2.651-7.538-4.102-8.882-.469-.434-.96-.865-1.578-1.06m-67.938.133c-.193.317-.214.292-.13.648.64.537 1.44.618 2.43 1.504.149-.485.355-.946.228-1.453-.58-.689-1.686-.539-2.528-.699m25.02.166-.059.339.114-.274.239-.2zM31.05 102.99l.134.075zm44.911.688c-2.507.187-5.758.74-7.472 2.79-.338.404-.545.867-.723 1.358.352.592.723 1.167.959 1.817-.449.703-.943 1.365-1.445 2.03.787.994.96 1.95 1.337 3.115 2.204 1.852 7.33 2.509 10.168 2.271 3.388-.283 7.048-1.839 10.09-3.302l.604-.253.053-.182c-.224-.335-.63-.543-1.03-.626-.75-.154-1.653.629-2.47.54-1.249-.136-4.585-2.211-5.945-2.822-.36-.162-.512-.426-.717-.745q-.073-.035-.145-.072c-.506-.244-.891-.332-1.44-.405-.422-.055-.797-.083-1.153-.337-.1-.346-.068-.346.087-.678.282-.2.353-.3.712-.27.707.057 1.503.595 2.173.841 2.184-.735 4.696-.42 6.956-.127-.883-.903-1.758-1.953-2.748-2.73-2.036-1.599-5.331-2.163-7.85-2.213m12.725 1.006c.096.55.263 1.208.772 1.529.05.031.108.046.162.07-.102-.452-.284-1.195-.681-1.483-.084-.06-.16-.082-.254-.116m1.145 1.752c.224.53.493 1.301.989 1.617-.197-.512-.358-1.056-.697-1.494zm.917 2.538c-.395.206-.787.425-1.193.607-.187.935-.36 1.547.21 2.408.194.293.392.481.68.675l.168-.004c-.01-.355-.151-.434-.374-.701-.272-.416-.453-.743-.344-1.264.068-.322.24-.587.518-.765.432-.277.827-.225 1.302-.147l.255.036c-.147-.333-.519-.69-.871-.797-.099-.03-.25-.039-.351-.048m-9.458.3-.25.368c.04.184.007.27.181.376 1.055.643 1.71.185 2.744 1.197.307.029.182.074.365-.054.3-.21.466-.334.849-.326.454.158.645.627 1.093.42.154-.072.294-.16.44-.247.208-.124.312-.201.563-.171.19.227.339.437.48.699l.316.243.149-.044c-.003-.045-.017-.09-.01-.136.01-.076.042-.148.061-.223.097-.372.017-.667-.192-.984-.405-.615-1.064-.791-1.753-.916-1.39-.252-3.661-.415-5.037-.202m9.634.883c-.148.644-.174 1.325.159 1.916.226.165.301.276.597.21.14-.032.349-.163.47-.226.136-.117.366-.223.358-.417-.02-.507-.473-.914-.853-1.193-.22-.161-.466-.237-.731-.29m-5.087 1.67c.025.346-.016.38.233.613l.611.118c-.236-.382-.432-.534-.844-.73m-.486.294.116.038zm5.942 1.534c-1.577.59-2.993 1.636-4.492 2.407-3.662 1.885-9.067 3.701-10.941 7.724-.243.52-.398 1.122-.177 1.678q.037.093.084.182t.103.172q.056.084.12.16.065.077.137.147t.152.131.165.114.176.097.185.077c1.421.52 3.69-.031 5.004-.686 2.206-1.1 4.177-2.473 6.279-3.733.86-.672 1.795-1.366 2.556-2.147 1.236-1.269 2.769-3.604 3.282-5.286l-.054-.268c-.605-.051-1.255.422-1.71.81-.978.834-1.067 2.315-2.276 2.974-.74.403-1.752 1.768-2.582 1.609-.301-.226-.409-.333-.555-.696l.027-.402-.096.157c-.204.329-.335.622-.707.78-.166-.032-.286-.003-.38-.162-.135-.226-.117-.474-.123-.729l-.472-.549c.075-.364.352-.623.672-.82.4-.247.915-.307 1.375-.345 2.603-.211 2.519-.408 4.127-2.345.308-.37.707-.62 1.017-.99l-.102-.108c-.267.009-.528.019-.794.047m4.097.691q-.037.053-.072.107c-1.185 1.775-1.713 3.92-2.92 5.647-2.028 2.9-5.13 5.004-8.193 6.65-1.026.551-2.175 1.044-3.144 1.681-.745.49-1.335 1.162-2.032 1.714l.06.149c.5.162 2.064-.145 2.27.087-.088.143-.171.292-.27.427l-.163.025c-.357.058-.64.066-.901.341l-.02.197c.454.325 1.021.243 1.545.155 3.726-.622 9.045-4.303 11.15-7.431 1.115-1.66 1.22-3.281 1.813-5.119.39-1.211 1.581-2.539 1.363-3.867-.056-.34-.231-.546-.486-.763m-63.78.894q-11.053 5.227-21.796 11.068c-.068 4.866-.136 9.82.463 14.657.79-.223 1.595-.425 2.376-.677 7.121-2.57 14.022-5.893 20.786-9.284-1.811-2.482-1.608-6.079-2.358-8.955-.168-.647-.517-1.261-.775-1.878.285-1.645.791-2.515 1.827-3.801-.133-.4-.204-.85-.522-1.13m59.052.95h.145zm-22.993.424c-1.147.363-10.097 5.322-10.526 6.027.2.134.372.216.6.294.822-.03 1.71-.28 2.47-.588 1.28-.52 6.525-3.809 7.535-4.789.256-.248.297-.353.294-.703-.153-.152-.153-.188-.373-.241m19.247.85-.583.363-.025.222.4.276.588-.556-.01-.19zm2.057.207-.151.12.132.04.132-.097zm-.662.184c-.25.473-.557.605-1.023.843l-.069.182.236.341c.424-.087.596-.178.836-.56.099-.156.154-.361.211-.533-.059-.097-.106-.198-.192-.273m-15.836.562c-2.966.546-4.108.831-6.71 2.444-.564.349-1.257.697-1.708 1.183.231.091.24.048.468-.016 1.68-.562 7.84-2.478 8.596-3.525-.27-.193-.329-.118-.646-.086m13.59.397h.12zm-50.7 3.094.04.077zm2.112.461.117.04zm123.345 2.595c2.233 2.686 5.496 4.822 8.398 6.711 1.21.788 2.482 1.524 3.605 2.436 1.758 1.428 2.582 3.568 4.17 5.107 1.907 1.846 4.157 3.165 6.298 4.7 2.329 1.669 4.68 3.58 7.175 4.977.677.379 1.656.857 2.437.902.083.005.166.002.249.003-.605-.715-5.118-3.166-6.258-3.94-1.265-.857-2.338-1.977-3.564-2.885-.865-.64-1.857-1.097-2.714-1.749-1.128-.858-2.352-1.863-3.317-2.9-1.381-1.485-2.618-3.185-4.095-4.568-1.059-.992-2.435-1.706-3.633-2.52-1.311-.892-2.566-1.887-3.813-2.865-1.082-.85-3.423-3.03-4.626-3.367-.114-.032-.19-.032-.312-.042m-.39.884c-.909 1.496-1.695 4.644-2.224 6.375-.188.614-.305 1.346-.613 1.91-.767 1.406-2.454 2.686-3.622 3.782-.5.47-1.068.927-1.494 1.467-2.097 2.656-1.695 6.513-1.261 9.607.17 1.21.245 2.53.528 3.711.025.104.06.206.091.309.12-4.822-1.92-10.185 2.135-14.099 1.365-1.316 3.242-2.568 4.245-4.183.936-1.507.573-3.733 1.646-5.148.566-.748.823-2.638.704-3.564zm-52.735.33c-1.097.126-1.987.451-2.944.997-1.406.8-3.002 1.75-4.237 2.797-.896.76-1.706 1.695-2.679 2.35-2.011 1.357-4.21 2.459-6.252 3.775-1.043.671-1.91 1.605-2.958 2.25-1.025.631-2.15 1.11-3.19 1.72-2.301 1.348-6.625 4.464-8.235 6.46a5 5 0 0 0-.168.222c2.168-1.213 3.992-3.12 6.038-4.543 1.865-1.296 3.87-2.22 5.793-3.395.972-.595 1.849-1.357 2.78-2.014 1.017-.716 2.085-1.371 3.124-2.053 1.409-.806 2.894-1.517 4.19-2.502.969-.737 1.8-1.653 2.798-2.348 1.561-1.088 3.29-1.94 4.837-3.048 1.457.045 2.95.132 4.396-.093-.385 3.425-1.159 6.766-1.686 10.167-.295 1.906-.31 3.892-.644 5.77-.362 2.024-1.21 3.965-1.378 6.03.941-1.465 1.535-3.382 1.923-5.073.423-1.845.412-3.78.667-5.655.39-2.873 1.33-6.382 1.464-9.106.047-.934-.065-1.833-.132-2.76-1.159-.004-2.353-.045-3.507.052m-44.728 3.08c-1.734.63-3.427 1.536-5.121 2.279-2.417 1.058-5.046 2.018-7.34 3.305-.244.137-.459.245-.584.508a1.2 1.2 0 0 0-.122.687l.104.095.142-.075c2.111-1.086 12.531-4.943 13.017-6.483.054-.171.014-.14-.096-.316m43.977-.036c-.5.662-1.229 1.445-1.088 2.342.054.342.227.588.42.868.293-.83.906-2.1.812-2.986zm-1.747 1.13c-.556.68-1.673 2.162-1.577 3.07.013.122.045.174.093.276.364-.103.66-.114.883-.456.325-.497.637-2.301.601-2.89m59.101.975c.71 1 4.698 4.37 5.79 5.115.865.59 1.897.987 2.69 1.675 1.392 1.21 2.044 3.022 3.281 4.357 1.955 2.11 11.979 9.546 14.433 10.128-.399-1.333-1.725-1.941-2.831-2.643q-3.999-2.522-7.752-5.395c-.938-.706-1.996-1.382-2.834-2.204-1.24-1.219-1.989-2.784-3.077-4.114-1.602-1.959-6.207-5.212-8.495-6.417-.385-.202-.781-.401-1.205-.502m-60.693.31c-.702.483-1.173 1.015-1.681 1.69-.057.71-.116 1.328.135 2.014.547-.655 1.536-2.855 1.546-3.704m3.859.312c-1.03 1.166-1.942 2.54-3.243 3.411l.023.157c.069.511.052.862-.058 1.36-.102.459-.207.851-.133 1.321l.173.124c.348-.138.595-.323.885-.55l.243-.006c.184.302.261.917.13 1.252-.325.824-1.516 1.053-1.246 2.155.169.685.636 1.136 1.131 1.598.164-.416.323-.835.5-1.245-.366-.103-.559-.085-.781-.403.045-.979.948-1.089 1.241-1.848.21-.543-.02-1.083.08-1.634.184-1.022.836-2.017 1.248-2.964-1.361.849-1.41 1.6-2.257 2.225l-.215-.056c-.122-.31-.189-.525-.09-.857.372-1.253 2.722-2.606 2.61-3.793-.073-.078-.155-.188-.241-.247m55.042.527c-.552 2.267 1.929 3.16-.215 5.462.128.6.193 1.49.765 1.835q.086.05.174.097c.076.279.072.472.05.754-.032.378-.017.692.25.993q.043.043.09.082c.43-.773.73-1.582 1.041-2.409-.248-1.05-.324-1.671-.037-2.738-.53-1.28-.957-3.227-2.118-4.076m-61.576.486c-.308.493-.826 1.151-.708 1.764.061.317.281.56.553.71.224-.395.575-.81.496-1.28-.066-.397-.274-.771-.341-1.194m-2.427 1.55c-2.072 1.448-3.928 3.296-5.87 4.917-1.348 1.123-2.851 2.092-4.13 3.287-.384.36-1.104 1.008-1.208 1.523l.127.218c.95-.33 1.776-1.162 2.57-1.77 3.364-2.578 5.6-4.53 8.599-7.502.065-.291.075-.36-.059-.64-.006-.014-.02-.023-.03-.034m-62.64.24c-2.326.783-4.517 2.035-6.74 3.07-5.965 2.775-12.033 5.797-18.432 7.424q.339 1.869.594 3.75c8.246-3.857 16.879-6.898 24.875-11.274.07-.936.088-1.903-.093-2.827zm21.948-.073c-.468.74-1.806 2.376-1.63 3.259.027.133.078.216.137.331.261-.12.326-.208.506-.424.63-.839 1.284-1.598 1.623-2.606-.132-.314-.355-.404-.636-.56m71.242.546c-2.07 1.696-4.825 4.263-6.346 6.435-.737 1.053-1.255 2.263-1.96 3.34-1.544 2.36-2.411 3.43-3.524 6.132l.067.135.063.01c1.477-2.485 3.085-4.799 4.654-7.217.712-1.096 1.318-2.284 2.153-3.294 1.489-1.802 3.355-3.283 4.811-5.077.194-.239.147-.116.175-.38zm-53.93.14c-1.22.619-4.01 1.909-4.803 2.956.064.278-.006.153.234.36.799-.453 4.429-2.493 4.737-3.144zm56.9-.046c-.263.488-.518 1.06-.852 1.5-.951 1.254-3.995 3.744-5.347 4.74-1.16.855-2.374 1.589-3.295 2.718 1.287-.626 2.82-1.183 3.951-2.046 1.423-1.085 3.169-3.167 4.555-3.91q.202-.111.406-.219c.333-.673.678-1.34.939-2.046.736 1.497 1.777 2.804 2.775 4.133.862 1.067 1.659 2.108 2.3 3.328 1.428 2.714 2.111 5.525 4.872 7.283-.699-1.055-1.423-2.11-1.996-3.24-.819-1.615-1.474-3.34-2.367-4.914-1.081-1.908-4.336-5.715-5.941-7.327m-30.095.736c-.405.791-.245 1.644-.64 2.415-.573 1.123-2.715 2.436-2.471 3.747l.255.249.291-.072c.54-.726 1.106-1.964 1.772-2.512q.324.097.645.2c.412-.687.95-2.606.678-3.39-.126-.363-.23-.421-.53-.637m64.2.057c.848 1.234 1.927 2.3 2.815 3.508.934 1.269 1.67 2.867 2.8 3.961.29.052.423 0 .691-.111-.141-1.855-3.827-5.95-5.178-7.283-.377-.013-.753-.018-1.127-.075m-111.815.493c-2.374 1.52-8.826 5.396-9.417 8.27a1.7 1.7 0 0 0 0 .66l.288.184c1.122-.556 1.135-2.001 2.023-2.835 2.236-2.098 5.521-3.367 7.407-5.839l-.038-.26zm4.897 1.26.123.042zm9.666.134c-1.474.611-2.629 1.659-4.041 2.361-.444.22-2.015.779-2.196 1.135.088.122.168.24.273.35 2.262-.712 3.998-2.366 6.148-3.268l.097-.206c-.094-.182-.104-.26-.281-.372m89.223.28c-.094.89-.122 1.842.486 2.57.7.837 1.623 1.384 2.236 2.326.97 1.492 1.845 3.281 2.5 4.936.433 1.09.778 2.333 1.365 3.346.23.397.44.632.874.801l.446-.056c-.05-.8-.433-.981-.7-1.646-.288-.718-.441-1.502-.716-2.23-.708-1.87-1.85-3.954-2.965-5.613-.959-1.427-2.129-2.514-2.992-4.038-.14-.247-.279-.302-.534-.395m-1.618.634c-.514 1.381-.064 2.76.363 4.106.789.345 2.052.659 2.412 1.5.42.983.108 3.075 1.23 3.507.195.075.403-.076.588-.148-.028-.302.02-.287-.201-.52-1.058-1.114-.3-2.555-.863-3.488-.65-1.077-2.106-.264-2.597-2.115-.267-1.001.006-2.158-.932-2.842m-101.449.17c-.679.784-1.433 2.338-2.026 2.892-.203.19-.405.167-.66.186-.561.501-.726 1.399-.767 2.119-.133 2.274.8 4.593 2.33 6.254 1.242 1.348 2.94 2.546 4.491 3.517-.677-1.505-2.175-5.123-2.496-6.664l.113-.22c.334-.004.465.005.699.263.703.776.616 2.264 1.158 2.92.177.384.347.759.576 1.115.078-.29.085-.327-.06-.61-.011-.024-.152-.239-.16-.252-.355-.565-.797-1.636-.68-2.298.008-.052.029-.1.044-.149.221.044.126-.01.288.223.295.425.488.942.695 1.415.172.017.38-.015.508.116.152.155.166.262.224.46.262.883.535 1.501 1.055 2.258l.033.052q.553-1.61 1.14-3.21c.864-2.318 1.623-4.09.465-6.524-.59-1.242-1.934-3.272-3.276-3.743-.277-.098-.645-.13-.915.007-.439.222-.75.967-.968 1.374-.58-.663-.981-1.148-1.811-1.501m77.216.26c.012 1.906-.295 5.871 1.038 7.286.225.238.572.47.907.504.41.04.82-.32 1.131-.55.786.237 1.2 1.094 1.96 1.455.58 1.113 1.064 1.837 2.168 2.501.514.98 1.08 2.394 1.94 3.124.022-.467 0-.713-.232-1.126-.358-.635-.622-1.615-1.084-2.148-.344-.397-.951-.21-1.262-.742-.124-.214-.071-.592-.044-.824-.719-.87-2.377-3.286-3.439-3.419a5 5 0 0 0-.96.396c-.292-.063-.312-.073-.476-.343-1.104-1.816.108-4.485-1.647-6.115m-61.743.68c-1.561.302-5.77 2.768-6.834 4.005l-.016.215c.228.056.146.079.253.039.277-.254.566-.532.888-.73 1.073-.66 5.913-2.469 6.057-3.485zm133.914.487-.144.166c1.185.79 2.549 1.36 3.685 2.217 2.001 1.51 3.59 3.513 5.854 4.716 2.731 1.453 6.092 1.644 9.053 2.45 1.356.37 2.658.923 3.986 1.378 3.076 1.053 6.713 2.032 9.942 2.19l-.011-.178a2.6 2.6 0 0 0-.92-.295l.004-.22-.179.132c-3.527-.82-6.974-2.09-10.403-3.258-.67-.228-1.285-.613-1.956-.824-.787-.248-1.781-.247-2.603-.343-2.062-.24-4.397-.645-6.269-1.577-1.83-.91-3.63-2.522-5.147-3.882-.852-.763-1.642-1.594-2.67-2.125-.716-.37-1.431-.483-2.222-.548m-74.122.685c-.533.83-2.083 3.967-2.84 4.15-1.198.29-1.588.35-2.315 1.452q-.127.193-.25.388c-.582.222-1.261.427-1.792.752-1.346.823-3.756 2.95-4.752 4.196l-.01.208.215.112a48 48 0 0 0 3.267-2.281c.59-.45 1.138-.997 1.747-1.415.476-.326 1.133-.3 1.604-.636.956-.683 1.01-1.74 2.416-1.736.424.001.696-.136.993-.429.89-.876 1.953-2.966 1.93-4.196-.005-.299-.022-.355-.213-.565m23.715.392c-.344 1.008-.356 2.079-.672 3.095.888 1.879 2.281 7.047 3.288 8.132.227-.19.453-.284.458-.61.007-.412-.222-1.014-.317-1.424-.159-.68-.257-1.37-.493-2.03-.544-1.514-1.447-2.982-1.83-4.546-.197-.8.293-2.012-.434-2.617m-52.926.717c-.583.931-2.138 2.7-2.064 3.759l.16.225c.17.028.318.077.487.034.556-.813 2.075-2.536 2.03-3.522-.2-.234-.332-.367-.613-.496m-30.487.483c-2.894.504-4.606 1.884-6.267 4.25-.69.98-2.734 4.358-2.491 5.526.038.183.187.331.305.467l.037.37c1.406-.157 2.1-2.879 3.52-3.076q.235.228.46.467c.504-.31.88-.662 1.458-.837l.209.085c-.179.706-.885 1.185-1.208 1.816-.24.469-.373 1.024-.496 1.534-.476.207-.93.435-1.387.683l-1.5 1.17c.114.118.047.091.212.094 3.307.049 7.826-.527 10.284-2.962 1.479-1.465 2.325-3.626 2.291-5.707-.007-.4-.118-.875-.392-1.18a.74.74 0 0 0-.725-.251c-.63.103-1.042.788-1.663.902-.19-.24-.201-.374-.174-.67.077-.816.653-1.624.924-2.395-1.158-.218-2.218-.378-3.397-.286m34.588.056c-.92.795-1.353 1.874-1.804 2.98.034.282.025.271.24.456.819-.611 1.3-1.446 1.844-2.29-.032-.369.004-.871-.28-1.146m-71.59.66c-.96.443-1.991.994-3.006 1.283-1.4.4-4.815.432-5.524 1.845l.1.31c.415.016.664-.005 1.027-.214.974-.56 2.477-.906 3.606-.99.434-.033 1.075.025 1.476-.131.878-.343 1.868-1.143 2.43-1.896-.072-.19-.019-.133-.108-.208m52.365.583c-1.773 1.262-5.735 4.092-6.863 5.872.016.244-.035.256.155.43l.333-.022c1.214-.769 2.735-2.28 3.487-3.516 1.188-.43 2.58-1.083 3.377-2.094l.067-.317c-.165-.226-.295-.265-.556-.353m2.84.666c-.87.434-5.071 3.919-5.353 4.681-.012.031-.016.065-.023.098.138.158.268.297.425.438 1.35-.963 4.476-3.54 5.135-4.972l-.055-.218zm142.041 1.895c-.684.18-2.405.494-2.823 1.056-.02.028-.033.061-.05.091l.14.245c1.36.326 2.173-1.48 3.487.374.688.318 1.465.482 2.211.596l.038-.14c-.772-.882-1.93-1.37-2.78-2.215zm2.86.367-.54.458-.008.174c.967.47 2.116.631 3.133 1.02 2.606.994 4.914 2.264 7.664 2.903l.32-.443-.054-.211c-1.516-.566-3.113-1.042-4.602-1.663-2.065-.862-3.545-2.239-5.912-2.238m-200.74.345c-.953.437-1.827 1.118-2.828 1.42-.954.287-2.013.131-2.986.327-.636.127-1.259.429-1.879.622l-5.044 1.526c-1.579.468-3.32.598-4.819 1.3-.536.252-1.003.61-1.21 1.19-.055.157-.049.173-.06.316.237.128.105.1.402.054 1.732-.702 3.505-1.184 5.278-1.763 1.505-.49 3.02-1.163 4.586-1.424.47-.078.967-.037 1.44-.012l.752-.86c.66-.12 1.33-.248 2.002-.269.555-.017 1.16.096 1.707.01.305-.048.485-.192.736-.354.612-.397 2.214-1.148 2.467-1.798-.215-.26-.208-.24-.544-.285M203.8 150.04c-.619.096-2.245.17-2.653.667.18.267.365.312.666.385.789.193 1.647-.27 2.443-.224.87.051 1.957.51 2.803.747l1.1.512 1.131-.581c-1.732-.827-3.544-1.468-5.49-1.506m-138.279 1.165c-.427.487-1.064 1.13-1.168 1.782l.149.18c.598-.454.943-1.087 1.216-1.775zm-7.07.572c.014.194-.032.258.124.394.151.133.284.189.468.262l-.474-.665zm95.318.05c-.195 1.737.11 4.211 1.226 5.616 1.942 2.443 7.805 6.775 10.58 8.084-.916-2.172-4.925-4.105-6.773-5.622-1.33-1.092-2.495-2.372-3.798-3.495-.257-.915-.885-4.048-1.234-4.583m-105.251.475c-1.734.194-3.232.883-4.337 2.275-.662.834-1.613 2.568-1.663 3.618.449 1.065 2.79 1.243 2.523 2.436-.34.244-.423.214-.84.148l-.15-.025c.506.94 1.757 1.59 2.745 1.88 1.609.475 3.224.343 4.708-.459 1.425-.77 2.662-1.96 4.018-2.859.603-.371 1.289-.708 1.733-1.268l.026-.235c-.696-.481-2.978.042-3.874.044-.463 0-.937-.12-1.387-.219l-1.314.642c-.226-.447-.556-.947-.575-1.456.246-.582.629-.797 1.21-1.019 2.18-.833 5.575-.192 6.61-.705-.057-.201.002-.147-.138-.227-.775-.445-1.68-.689-2.509-1.027-2.838-1.16-3.638-1.61-6.786-1.544m147.791.384c1.009 1.905 5.633 4.132 7.77 4.8.666.21 1.058.285 1.737.097-.06-.11-.094-.238-.18-.33-.37-.391-4.255-2.043-5.006-2.425-1.171-.594-2.72-1.683-3.93-2.048-.212-.064-.182-.053-.39-.094m-34.201.298c0 1.782.542 3.3 1.822 4.578.601.6 2.656 2.579 3.499 2.508.038-.003.076-.017.114-.026.046-.407.116-.582-.166-.919-.626-.747-1.704-1.69-2.597-2.077-.647-1.058-1.616-3.496-2.672-4.064m61.265.069c2.805 1.401 4.47 1.688 7.448 2.4 2.256.54 4.88 1.407 7.18.651q.071-.024.141-.053l.11-.297c-.16-.096-2.949-.33-3.627-.48a274 274 0 0 0-6.744-1.387c-1.528-.299-2.924-.945-4.508-.834m-161.776.03-.105.175c-.756 1.265-1.937 1.413-2.232 1.947l.13.167c.465.052.813-.09 1.175-.377.219-.173.409-.37.599-.575.346-.065.324-.072.62.12l.088.325c-.174.295-.215.4-.56.52-.05.017-.32.06-.365.069-.395.071-.593.14-.814.497-.164.266-.183.686-.224.99.013.397.147.649.441.906.654.572 1.7.195 1.999.42.119.09.083.286.125.429.179-.068.159-.024.248-.202.274-.546.063-1.487.191-2.13-.48-.776-.852-2.907-1.316-3.282m-1.744.419-.29.151-.361-.13-.205.232.074.218c.19.021.411.023.594.074l.148.173.298-.038.18-.243-.067-.247c-.082-.047-.28-.19-.371-.19m144.752.163c.472.723 2.216 1.229 3.08 1.418.49.107 1.02.114 1.519.09-.272-.624-.684-.852-1.306-1.102-1.084-.436-2.171-.295-3.293-.406m-141.551.273h.132zm32.81.026-.494.374-.026.251c.366.399.616.66.775 1.19l.138-.097c-.07-.432-.07-1.446-.394-1.718m35.565 1.19c-.034.457-.013.798.115 1.238l.134.137c.085-.441.217-.791.074-1.226zm2.006.126c-.448 1.198-.998 2.412-1.397 3.62-.212.64-.093 1.367-.298 2.001-.084.261-.151.315-.365.46l-.135-.125c-.032-1.709-.214-4.046-1.485-5.317a6 6 0 0 0-.469-.41c-2.132 1.138-3.474 2.89-4.17 5.199-1.29 4.27 1.211 8.718 2.912 12.518.647-2.325 1.299-4.542 1.523-6.959l.37-.395.22-.002c.493.73-.173 3.006-.203 3.928.289-.753.747-2.568 1.446-2.924.193.225.174.25.147.537-.177 1.888-1.738 4.222-2.135 6.286q-.025.128-.054.254c.918-.797 1.806-1.63 2.755-2.39 2.691-2.154 5.244-4.1 5.534-7.812.078-1.013-.077-3.402-.846-4.145-.156-.15-.326-.245-.506-.36-1.4-.897-1.03-3.213-2.844-3.964m-115.56.316c-.693.366-1.576.79-1.944 1.516l.105.14c.185-.018.367-.03.55-.069.623-.355 1.306-.622 1.886-1.04.009-.039.014-.08.027-.118s.104-.224.124-.264c-.245-.203-.44-.15-.748-.165m40.953.18c-.311.491-.48.814-.355 1.414.095.454.412.974.849 1.178.206.095.397.116.618.139-.342-.456-.765-.826-.924-1.383.052-.36.163-.611.324-.93-.119-.297-.163-.283-.47-.407q-.02-.008-.042-.011m-5.944.245c-.59.138-1.095.266-1.632.56l-.12.064c-.198.107-.277.17-.426.346.46.059.9-.23 1.325-.062.355.023.933.14 1.265.059l-.136-.008.241-.255-.153-.322.502-.43c-.288.013-.578.02-.866.048m1.456-.007-.26.205.062.237c.252.124.381.184.663.155l.133-.138c.224-.117.593-.227.693-.457a10 10 0 0 0-1.29-.002m1.776.085c.218.108.116.106.301.06-.223-.109-.12-.11-.301-.06m7.887-.077c-.215.532-.256 1.136-.03 1.672.075.179.164.348.253.519.903.534 2.14 1.247 2.72 2.128.04.211.047.303.008.513-.057.315.085.63.182.927l-.072.191c-1.29-.27-2.357-1.535-3.589-1.882-.555-.157-1.113.518-1.693.055-.049-.37.116-.642.235-.982.093-.263.069-.16.042-.459-.537-.014-1.296-.138-1.787.064q.074.038.148.08c.387.223.753.473 1.038.821.597 2.816 1.327 5.715 3.882 7.4q.763.493 1.583.886c2.003.782 4.002.685 6.05.101-.563-.789-1.35-1.63-1.428-2.625.123-.308.11-.361.392-.525.949.05 1.508 1.046 2.385 1.157.212-.226.23-.377.231-.678.002-.617-1.21-2.486-.909-2.79.15-.151.333-.195.528-.265.204-.426.101-.732-.055-1.167-.609-1.699-1.923-2.998-3.553-3.734-1.702-.768-4.702-1.502-6.561-1.407m66.935.168c.126.296.321.974.583 1.117.017-.455-.177-.743-.392-1.132zm-74.272-.014c-.13.347-.278.363-.614.51q-.197.085-.397.162l.189.042 1.072.002c.093-.294.04-.361-.026-.652zm51.858 1.096c-2.04.445-4.056 1.549-5.16 3.397-.185.308-.247.476-.192.829.329.103.335.04.636-.12.154-.083.306-.189.454-.283l.201.054c.484.13.851.259 1.332.053l.173-.073q.235-.102.465-.214c.752.27.173.819 1.37.7l.083.143c-.14.302-.282.557-.603.7-.294.131-.4.041-.647-.1-.126-.232-.221-.576-.477-.652-.21-.061-.124-.041-.332-.073l-.093.06c.236.178.392.213.45.517-.825.67-2.431.608-3.438 1.165-.17.094-.344.18-.514.272-.328-.53-.874-1.013-1.486-1.173.08.212.149.33.275.513l-.08.195-.4.165.002.169c.16.106.177.156.375.15.36-.012.651-.044.941.209.336.293.608.657.951.945.774.649 2.626 1.468 2.641 2.592.003.186-.093.278-.186.43-.315.159-.544.206-.886.105-.694-.206-1.352-.84-1.658-1.484q-.256-.553-.487-1.118l-1.603-1.11c-.25 2.19-.275 4.014 1.194 5.84.455.566.977 1.011 1.554 1.446 1.68 1.014 3.298 1.441 5.215 1.819-.125-.698-.345-1.466-.245-2.174.123-.109.158-.208.34-.176.306.053.525.292.756.483.254.21.416.451.752.431.264-.408.209-.825.105-1.277-.322-1.411-.834-2.856-2.123-3.63-1.203-.724-5.142-2.003-5.673-3.102l.096-.255c1.026-.228 3.388 1.521 4.677 1.768.874.167 1.702.037 2.568-.094l.698-1.238c.584-.098 1.228-.1 1.59-.634.64-.943-.062-1.364 1.642-1.839.7-.195 1.694-.206 2.317-.542-.027-.333-.075-.456-.35-.666-.533-.409-1.654-.621-2.009-1.106.22-.198.442-.337.693-.49l.019-.218c-1.467-1.299-3.806-1.442-5.67-1.325zm-87.14.127c-.836.176-1.926.358-2.506 1.054-.198.237-.188.338-.14.613.275.293.456.339.83.443.737-.6 1.723-1.173 2.31-1.904l-.056-.168c-.152-.025-.284-.056-.438-.038m79.923.972.098.066zm-.824.15c-.231.294-.307.319-.302.687.161.21.302.393.51.558.156-.402.306-.61.214-1.037-.14-.077-.271-.155-.422-.209m-42.471.32c-3.01 2.575-6.47 4.518-6.8 8.91-.12 1.615.171 4.073 1.275 5.307.3.335.619.624 1.079.678.883-.2 1.375-1.682 2.194-1.436.194.81.028 1.737.044 2.572 1.87-1.237 4.065-2.726 4.873-4.888.964-3.568-.072-6.45-.76-9.939-.247.865-.459 1.797-.815 2.621-.14.327-2.23 3.651-2.38 3.745l-.197-.097c-.23-.703-.096-1.398.237-2.048q.126-.24.264-.474l-.012-.157c-.608.414-1.295 2.07-1.95 1.979-.172-.442-.008-.913.184-1.324.344-.738.866-1.088 1.362-1.686.334-.403.373-1.05.65-1.5.287-.465.848-.722 1.09-1.21.091-.186.039-.392.028-.593-.117-.188-.17-.349-.366-.46m1.655.704-.145.263.248.037.092-.275zm5.702.57.163.045zm-43.231.074c-.25.379-.507.72-.617 1.166l.1.277c.262.076.374.07.638.048.323-.245.41-.295.573-.68-.047-.284-.122-.49-.376-.662-.119-.081-.191-.101-.318-.15m79.364.306.154.042zm-43.6 1.07-.382 1.622.137.15c.188-.517.41-1.015.428-1.57zm46.194.323c-.306.02-.597.02-.882.147.008.309-.028.164.106.437.348-.16.678-.27.95-.546zm.682.036-.019.106.1-.025.006-.099zm-3.299.12c.168.374.225.637.56.884.303-.004.498-.043.78-.155-.074-.246-.043-.394-.282-.518-.312-.164-.713-.173-1.058-.212m13.98.363c-.668.113-1.38.171-1.982.495l-.164.237c.28.92 1.38 1.79 1.431 2.718-.219.067-.114.078-.282.003-1.03-.455-2.083-.022-3.15.075-.564 2.103-.304 3.673.779 5.555 1.238 2.153 3.317 3.468 5.681 4.093 1.864.493 4.598.96 6.513.775.297-.178.331-.196.48-.506-.215-.542-.651-.728-1.165-.957-.774-.344-2.856-.66-3.145-1.466-.037-.103-.089-.31-.118-.422-.471-.581-1.27-.319-1.477-1.191l.098-.22c.716-.132 1.63.588 2.198.394-.166-.219-.33-.439-.504-.652-.589-.662-2.428-2.183-2.681-2.89l-.145-.387c.934.09 2.121 1.312 2.71 2.026.148.179.28.368.424.55.14.178.082.117.31.222.107-.25.075-.432.082-.693.004-.196.008-.134.123-.347.241.044.252.056.379.261.482.775.577 1.7 1.136 2.497-.083-.589-.307-1.374.048-1.9.132-.195.288-.218.495-.31.144.05.27.046.339.198.47 1.02-.678 2.792.49 3.598.71.08 1.233-.279 1.794-.67-.912-3.256-4.05-8.836-7.077-10.465-1.18-.635-2.308-.755-3.62-.62m-91.335.038c-.258.473-.568.913-.398 1.47.018.059.045.114.067.17.295-.236.454-.363.485-.763a2 2 0 0 0-.154-.877m69.356 1.088c-1.499.236-2.638.868-3.552 2.102-.761 1.027-1.273 2.503-1.056 3.79.058.344.165.536.391.796.33.135.393.15.746.103.556-.486 1.113-1.066 1.823-1.31l.178.036c.07.772-1.095 1.593-.706 2.24 1.174.354 4.255-.483 5.327-1.066l.148-.082c1.436-1.065 2.567-2.768 2.826-4.57.045-.31.014-.55-.057-.852-.312-.314-.606-.266-1.03-.342-.588.624-1.923 2.356-2.758 2.427-.443-.103-.825-.289-1.052-.71-.124-.23-.141-.371-.147-.626.149-.286.245-.456.562-.577.362-.14.837-.17 1.222-.22q.364-.443.714-.898c-1.147-.115-2.433-.368-3.579-.242m1.872 1.819c.094.327.116.49.41.698.072.051.156.073.238.099.09-.32.16-.323.008-.637-.218-.057-.434-.119-.656-.16m-22.736.69.04.08zm30.505-.045.083.037zm.484.33c.12.317.137.593.5.712.198.064.493.05.704.059-.29-.408-.488-.652-1.013-.746q-.095-.015-.192-.025m-30.24.736h.14zm-52.869 2.186c-1.006.318-2.41.811-3.02 1.713-.02.35-.001.326.23.596l.667.248c1.079-.588 2.315-1.02 2.954-2.124l-.01-.253c-.307-.156-.478-.187-.821-.18m30.022 1.094c-.895.49-3.049 1.284-3.688 1.928l.147.107c.789-.286 3.37-1.133 3.744-1.886zm23.531 1.275q-.058.094-.112.192c-.322.612.066 1.572-.49 2.031-.679-.297-1.306-.973-1.829-1.49-.891 1.502-1.51 3.108-1.083 4.884.576 2.394 3.199 5.47 5.254 6.764l.69-.913c-.506-.991-1.96-4.292-1.68-5.328.011-.038.031-.073.046-.11.301-.067.337.043.589.2.45.778.672 1.822.947 2.684.254.726.515 1.381.9 2.05l.131.043-.024.111c.004-.034.011-.068.012-.102.02-1.181-1.604-3.884-.934-4.98l.164-.076c.855 1.009 1.04 3.538 1.87 4.896.618.226 1.108.393 1.562.903.49-2.828.749-6.446-.954-8.943q-.095-.135-.195-.266-.101-.13-.208-.256-.107-.125-.22-.245-.114-.12-.233-.233t-.244-.222q-.124-.108-.254-.21t-.265-.196-.275-.183-.282-.169-.291-.154-.299-.14-.305-.125-.311-.11-.316-.093-.32-.078q-.162-.035-.324-.061a6 6 0 0 0-.717-.076m-27.802.83-.231.138.238-.024.24-.155zm74.26.323c.889.409 1.901.938 2.858 1.128-.978-.802-1.555-1.143-2.858-1.128m-50.517.17a9.2 9.2 0 0 0-2.396 4.608 41 41 0 0 1-3.905 3.32c-1.66-.066-2.585 1-4.085 1.334-1.126.25-2.317-.052-3.428.234-.735.19-1.269.91-1.983 1.163-1.24.439-3.402.358-4.34 1.254-.469.446-.852.963-1.345 1.385 1.665-.186 3.386-.41 5.03-.722 1.78-.338 4.928-1.59 6.56-1.334l.313.254c-.181.414-.59.765-1.01.939-.342.142-.751.176-1.116.228l-.244 1.432c-.82.81-2.202 1.632-2.591 2.718.029.193-.003.278.159.415.427.36 1.048.282 1.565.242q.084-.004.166-.01c1.002-.103 2.21-1.161 2.967-1.785a8 8 0 0 1-.508-2.054c.723-1.66 2.192-3.213 3.889-3.893 2.065-.829 5.872-.092 8.277-.357-.328-.37-.916-1.207-1.413-1.232-.79-.042-.951.284-1.758-.142a4 4 0 0 0-.961.154c-.233-.145-.222-.21-.275-.471-.041-.2.01-.346.071-.533.58-.654 1.516-.38 1.98-.87-.066-.336-.264-.458-.33-.83-.294-1.663-.11-2.858.553-4.375.146-.335.336-.626.33-.998zm-29.707.621h.153zm87.73.102c-.814.152-1.46.46-1.952 1.153q-.074.101-.137.21t-.115.223-.091.233-.068.241-.043.247-.017.25q-.002.126.008.25.01.126.033.25c.125.654.548 1.201 1.102 1.558.371.24.758.323 1.186.406.71-.04 1.136-.107 1.64-.638.473-.499.667-1.159.643-1.837q-.005-.14-.024-.28-.02-.14-.052-.276-.033-.137-.08-.27-.046-.132-.105-.26-.06-.127-.131-.248t-.156-.234-.178-.218q-.095-.104-.2-.198c-.377-.34-.779-.452-1.262-.562m-76.484.214.106.07zm-13.043.096-.376.453c-.083-.008-.166-.024-.25-.024-.069 0-.36.039-.438.049-.078.361.053.584.168.93l.191-.16c.385-.309 1.034-.356 1.288-.758-.141-.292-.306-.347-.583-.49m-11.141.985c.036.615.197 1.517-.208 2.03-.125.158-.275.152-.459.2a7.5 7.5 0 0 1-.963-.294c-.317-.118-.491-.172-.823-.12-.3.174-.423.386-.515.714-.56 1.988.063 4.628 1.117 6.356 1.369 2.24 3.93 4.381 6.506 4.965 1.016.23 2.313.52 3.347.327.192-.197.197-.251.259-.523-1.205-.738-2.262-.458-3.032-1.952-.009-.284-.067-.286.132-.51.438-.012.633.138.966.402.428.338.952.56 1.44.798l.154-.054c-.089-.314-.233-.906-.515-1.082-.645-.402-1.664-.195-2.409-.412-.412-.155-.752-.24-1.008-.624l-.076-.349c.151-.197.092-.211.307-.231.494-.047 2.105.54 2.78.66-1.002-.55-3.13-1.465-3.518-2.55l.1-.266c.648-.123 1.3.351 1.822.71.34.233 1.073.68 1.244 1.043.104.222.055.738.273.857.47.256 1.19.313 1.715.49.154.583.233 1.322.702 1.711.285-.03.514-.1.783-.198-.254-3.54-.586-6.922-3.437-9.432-1.805-1.588-4.359-2.316-6.684-2.666m108.722.791-.118.203c.285.096.55.147.845.195-.21-.244-.308-.337-.622-.417zm-2.75.484c.995.5 2.091 1.492 3.168 1.64-.477-.655-1.476-1.42-2.277-1.567-.289-.054-.597-.06-.89-.072m-10.846 1.44c-3.64.465-7.878.442-10.381 3.591-1.417 1.782-1.593 4.407-1.34 6.591 1.12.132 2.117-.448 3.13-.34.055 1.152-2.578 2.78-1.305 4.09.819.845 2.498.87 3.596.803 2.673-.163 4.963-1.491 6.711-3.474 1.461-1.658 2.333-3.884 3.167-5.915.261-1.136.96-3.127.568-4.24-.141-.106-.187-.195-.377-.173-.912.103-2.16 1.495-2.789 2.155.243.493.64 1.171.45 1.737-.266.133-.206.105-.465.044-.209-.334-.321-.762-.592-1.04-.4.569.802 3.242-.497 3.707-.245-.269-.182-.59-.175-.948.015-.724.092-1.375.03-2.107-.773.775-1.505 1.546-2.504 2.028l-.182-.205c.404-1.117 1.212-1.814 1.876-2.754-.767.091-1.612.288-2.333-.07-.171-.246-.194-.193-.165-.517.61-.304 1.326.028 1.984.056.464.02.972-.125 1.418-.243l.123-.421c-.742-.337-2.334-.537-2.831-1.067l.235-.188c.934.117 3.063.82 3.799.26.538-.41 1.028-.974 1.51-1.452-.875.022-1.794-.011-2.66.093m7.54 1.528c-.162.65-.038 1.044.323 1.607.31.483.719.943 1.106 1.368.658.189 1.489.229 2.067.578.131.262.116.3.078.595l-.21.12c-.495-.137-1.249-.468-1.749-.324-.15.289-.153.485-.035.799.12.315.3.532.625.644.747.257 1.795-.296 2.394.285-.203.307-.472.423-.833.49-.534.1-1.143.137-1.68.042.548.768 1.053 1.408 1.244 2.352l-.103.145c-.793-.341-1.218-1.27-1.517-2.024q-.183-.462-.358-.928c-.176 1.305-.37 2.416-1.255 3.454l-.139-.029c-.113-1.115.497-2.416.668-3.539-.128-.388-.233-.897-.519-1.192-.56 1.025-.44 2.281-1.75 2.724l-.213-.05c-.031-.623 1.046-2.471 1.272-3.408-.464.485-.881.975-1.487 1.284l-.144-.079c.113-.58.541-1.095.862-1.583-.005-.808.163-1.967-.431-2.59l-.26-.022c-.68.672-.772 2.948-.932 3.905-.623 3.495-.317 7.344 1.776 10.31 1.242 1.76 3.15 3.4 5.322 3.831.309.062.577.06.834-.151.948-.783.58-4.003 1.079-4.211.924.449.838 2.264 1.894 2.506.983-.677 1.54-2.685 1.758-3.817q.047-.24.082-.484.035-.243.057-.488.023-.244.033-.49.01-.245.009-.49-.002-.246-.016-.492-.014-.245-.04-.489t-.065-.487-.089-.483-.112-.478-.137-.472q-.074-.233-.16-.464-.085-.23-.182-.456-.097-.225-.205-.446-.108-.22-.227-.435t-.249-.424-.27-.41c-1.841-2.63-2.808-2.37-5.227-3.81-.919-.547-1.906-1.396-2.89-1.794m18.114.796.076.036zm-70.256 3.497c-.63.422-.939.85-1.292 1.509.284.87.6 1.768 1.454 2.24.573.316 1.107.311 1.735.238.593-.362 1.07-.612 1.234-1.343.113-.498-.004-.983-.287-1.403-.473-.702-1.287-1.101-2.107-1.225a3.7 3.7 0 0 0-.737-.016m-36.037 1.471c-.344.588-1.191 1.577-1.392 2.12-.017.047.022.323.036.382l.075-.1c.565-.745 1.449-1.166 1.313-2.228q-.014-.087-.032-.174m30.014 1.088c-.412 0-.724-.026-1.087.202.23.15.482.05.746.022.38-.012.784.032 1.105-.198-.296-.094-.465-.06-.764-.026m9.826.353c.086.447.495.727.868.978 1.807 1.22 4.1 2.005 5.52 3.736l.027.234c-.622.246-1.207-.178-1.815-.322-.462-.725-.738-1.225-1.573-1.547l-.207.043c.037.365.181.646.316.982.092.229.068.135.071.383-.41.098-.46.064-.861-.084-.323-.377-.569-.828-.903-1.185-.727-.776-1.978-1.43-2.821-2.205.736 2.943 2.4 5.462 4.675 7.483 2.219 1.654 3.986 2.374 6.768 1.982.708-.1 1.419-.279 2.045-.632.12-.35.088-.55-.077-.886-.233-.474-.501-.904-.663-1.41.72-.36 1.335.453 2.074-.187.209-1.275-.465-2.832-1.202-3.864-1.278-1.789-3.493-2.518-5.585-2.816-2.207-.314-4.447-.358-6.656-.683m-11.452.53h.216zm6.22.03c-.543.868-1.076 1.75-1.69 2.57-1.52 2.028-3.376 3.848-2.775 6.628.35 1.62 1.432 2.988 2.61 4.105.856-.61 1.659-1.619 2.723-1.78.401.213.48.77.61 1.194.058.19.132.216.278.346.607-.043.984-.436 1.366-.876a7 7 0 0 0 1.178-1.87c.67-2.394.22-4.156-.422-6.502-.174-.637-.337-1.52-.678-2.084a1.1 1.1 0 0 0-.424-.42l-.254.059c-.761 1.267-.018 3.638-1.01 4.638l-.212-.025c-.455-.817-.16-1.9-.155-2.798-.268.804-.451 1.553-1.023 2.2l-.22.071c-.21-.453-.046-.986.116-1.441.296-.831.918-1.85 1.45-2.558-.62-.424-1.056-.83-1.468-1.457m-36.084.47c-.149.311-.237.345-.16.694l.248.268c.143-.318.23-.396.148-.744zm-4.5.403-.065.14.106-.03.172-.179zm2.163.423c-.61.15-1.173.372-1.468.975a1.18 1.18 0 0 0-.023.96c.177.446.826.822 1.247.994.574-.039.999-.037 1.406-.498.28-.316.439-.752.383-1.176a1.5 1.5 0 0 0-.656-1.01c-.263-.168-.587-.2-.889-.245m-11.67.898-.26.182c.161 1.124 1.814 3.1 2.552 3.994.2.242.677.647.799.9.058.123-.039.406.016.534.449 1.037 1.81 2.497 2.53 3.434.68-.548 1.414-1.087 1.957-1.775.705-.892 1.23-2.093 2.047-2.872.428-.407 1.127-.29 1.46-.743a1.3 1.3 0 0 0-.403-.553c-1.303.113-2.488 1.877-3.614 2.478-.702-.352-1.1-.612-1.898-.358q-.184.062-.366.128l-.132.046c-.375.035-.554.004-.896-.123l-.16-.231c.067-.292.099-.434.358-.63.192-.146.595-.233.825-.308 1.021.205 2.042.5 3-.115.171-.11.115-.094.174-.327l-.259-.27c-.237.084-.316.156-.511.307-.369.285-.658.476-1.152.396-.417-.068-.817-.262-1.232-.324-.873-.129-1.395.36-2.301-.087l-.03-.186c.68-.533 1.645-.633 2.475-.778l1.232.5c.918-.339 2.439-.736 3.191-1.319-.02-.22.027-.19-.133-.328-.653-.563-5.622-1.409-6.677-1.508-.862-.082-1.729.002-2.591-.064m21.711.012c-1.296.106-6.411 1.525-6.843 1.371-.168-.06-.412-.288-.567-.396l.198.068-.342-.009c.06.343.253.597.439.883 1.716 1.035 2.934 1.564 4.973 1.237.7.334 2.551.997 2.87 1.69-.225.22-.426.222-.73.22-.794-.006-2.044-1.32-2.64-1.005.13.234.093.233.35.364.399.206.891.476 1.09.902.053.111.051.195.06.31l-.135.14c-.687-.006-.873-.211-1.355-.658-.256.281-.357.455-.724.573-1.018-.201-2.643-1.162-3.42-1.858-.47-.42-.874-.91-1.352-1.321.353 1.04.688 2.123 1.306 3.043 2.078 3.044 4.806 5.198 8.522 5.9 1.67.315 3.884.035 5.286-.96.258-.182.425-.352.604-.61.012-.337-.047-.476-.292-.72-.439-.437-1.058-.787-1.58-1.126.735-.095 2.903-.071 3.335-.62.24-.305.268-.656.18-1.022-.522-2.174-3.242-4.252-5.077-5.278-1.327-.742-2.616-1.151-4.156-1.118m35.676.392-.02.255.171.165.119-.307-.109-.13zm-47.917 1.79c.108.33.087.424.417.572.132.059.321.09.458.122-.141-.305-.178-.427-.5-.578-.1-.046-.266-.087-.375-.117m3.096 1.111c-.422.443-.556.713-.534 1.329.031.846.317 1.68.447 2.515.129.83-.016 1.68.065 2.518.094.985.472 2.033.395 3.01l-.106.055c-.534-.457-.474-1.28-.997-1.733-.223.353-.149.871-.408 1.14-.468-.283-.515-.828-.638-1.329-.195-.793-.563-3.154-.103-3.844.019-.028.046-.05.069-.076.462.359.477.895.545 1.446.068.555.029 1.382.265 1.871.055-.41.295-1.094.276-1.469-.02-.378-.338-.928-.425-1.332-.11-.51-.306-.677-.704-.997-.002-.717-.02-1.436.012-2.152-.718 1.965-1.535 3.418-2.802 5.07l-1.061 1.319c2.205 3.022 4.635 6.183 7.32 8.79 1.573-1.261 3.06-2.497 3.315-4.646.368-3.095-2.238-5.623-3.507-8.174-.525-1.055-.743-2.35-1.424-3.311m3.765.346h.131zm.818.472c.543.48 1.377.57 2.036.867-.384-.493-.646-.785-1.287-.868a3 3 0 0 0-.749.002m42.315 3.893c.34.475.546.87 1.165.951.288.038.618-.012.906-.039-.677-.368-1.31-.746-2.072-.912m-29.406.76h.155zm5.674.153-.36.406.035.184c.361.075.711.103 1.079.126.212-.19.26-.175.323-.467-.333-.258-.674-.24-1.077-.249m1.586.194c.142.317.199.631.508.805.234-.067.377-.159.571-.304l.056-.232c-.324-.255-.74-.234-1.135-.27m12.97 1.872.06.121.076-.027-.048-.15zm-29.965 5.898-1.523.08c-.523.773-1.038 1.472-1.687 2.145 6.039.174 12.109.028 18.151.034l38.005-.02 113.87-.129 1.212-.031c.67-.718 1.325-1.46 2.03-2.14q-9.327.069-18.654.023l-29.546-.004zm54.583 5.235q-.035 2.886-.008 5.772c.005 1.207.095 2.49-.11 3.68-.1.585-.317 1.194-.735 1.628-.353.366-.816.54-1.321.512-.932-.051-1.609-.641-2.311-1.19-.289 1.148-.621 2.302-.785 3.476a7.6 7.6 0 0 0 2.487.821c1.633.095 3.17-.088 4.462-1.2 1.127-.97 1.582-2.287 1.651-3.74.156-3.205-.173-6.467-.102-9.686zm11.152.025-1.136.022c-1.49 4.824-3.556 9.52-4.822 14.408l3.35.004c.302-.982.603-1.956.982-2.911 1.083.008 2.167.029 3.25.022l1.523.014c.28.945.522 1.931.898 2.841q1.72.032 3.442.025c-1.641-4.81-3.13-9.75-5.008-14.468zm9.332-.042-.11 7.627c-.013 2.283.047 4.573-.054 6.854l3.391-.013.003-5.107 2.187-.002c1.585-.137 2.975-.547 4.041-1.811q.075-.087.144-.177.07-.09.135-.184t.125-.19.115-.198.105-.202.093-.208.083-.213q.038-.107.071-.216.033-.11.06-.22.028-.11.05-.223.02-.112.036-.225.016-.112.026-.226t.013-.228q.004-.114.002-.228t-.01-.227q-.009-.114-.023-.227c-.141-1.225-.71-2.322-1.706-3.063-2.197-1.636-6.141-1.117-8.777-1.094m25.001.023-.003 14.336 3.115.011c-.027-3.033.036-6.092-.083-9.121 1.171 2.509 3.885 7.095 5.614 9.199.82 0 1.643.014 2.462-.017l.276-.097c.314-.715.035-12.58.046-14.232-.985.001-1.971-.01-2.956.005-.087 2.854-.192 5.742-.132 8.598-1.742-2.857-3.417-6.05-5.488-8.663a41 41 0 0 0-2.85-.02m-10.21.135c-1.581 4.76-3.657 9.405-5.065 14.215q1.73.009 3.458-.023l.898-2.578q2.168-.045 4.335-.026c.206.027.389-.01.528.162.484.602.669 1.707.94 2.44 1.149-.01 2.302.001 3.45-.032l-5.028-14.22c-1.169.008-2.35-.02-3.517.062m33.616 4.097c-.911.177-1.6.46-2.15 1.244q-.09.126-.164.26-.075.135-.135.276t-.106.289-.075.298-.044.305-.012.307.02.307.053.303q.031.141.077.279.045.137.104.27.06.131.132.257.072.125.158.242.085.117.181.225.097.108.204.205t.224.183.24.16a3.25 3.25 0 0 0 1.564.424c.918-.197 1.684-.528 2.233-1.326a2.78 2.78 0 0 0 .433-2.117q-.029-.15-.074-.296-.044-.146-.104-.286t-.135-.274-.162-.258-.188-.24-.212-.219-.234-.195-.254-.17c-.478-.286-1.026-.391-1.574-.452m-84.928.244c-.935.182-1.656.436-2.21 1.257a2.94 2.94 0 0 0-.394 2.345q.032.134.078.264.047.13.106.254.059.125.13.243t.154.228.177.212.197.192.216.171.232.149c.522.3 1.06.37 1.652.38.907-.168 1.635-.47 2.176-1.254q.081-.117.15-.242t.124-.255.097-.267q.043-.136.071-.275.029-.14.043-.281t.014-.285q0-.142-.014-.284-.014-.141-.043-.28-.026-.138-.067-.272-.04-.133-.094-.262-.055-.13-.122-.252-.067-.123-.146-.238t-.17-.222-.192-.203q-.1-.096-.211-.182t-.229-.16c-.507-.32-1.13-.467-1.725-.481m106.077 11.667h.141zm-125.389 1.7q1.848 1.022 3.567 2.249l76.711.053 24.873-.025 8 .013c1.679.002 3.403.063 5.077-.078 1.192-.1 2.286-.857 3.314-1.431l1.397-.777q-24.519.138-49.038.005z"/><path d="M152.156 96.97c-.338-1.551-1.064-2.985-1.359-4.533-.275-1.444-.255-2.976-.385-4.44-.163-1.858-.842-4.032-1.623-5.729-.105-.23-.195-.434-.438-.528-.592.629.435 1.53.101 2.213l-.315.01c-.286-.128-.58-.307-.72-.605-.153-.33-.134-.419-.042-.747.274-.207.613-.389.708-.735l-.124-.192c-.256.144-.327.378-.58.546a3.4 3.4 0 0 0-.498-.296c-.298.57.643 2.686.864 3.395.558 1.786 1.383 3.767 1.634 5.605.276 2.024.103 4.062.564 6.076.194.848.41 1.704.713 2.521.314.849.948 1.67 1.018 2.576-.141.315-.13.311-.442.455-.241-.04-.328-.02-.522-.188-.79-.68-1.752-3.651-2.058-4.689-.83-2.816-.799-5.857-1.53-8.722-.241-.945-.47-1.903-.788-2.826-.667-1.942-1.81-4.16-1.877-6.228-.029-.859.06-1.632.662-2.275.516-.044 1.097-.096 1.603.045 1.443.403 2.57 1.938 3.296 3.178 1.37 2.343 2.172 5.21 2.371 7.913.081 1.106-.007 2.317.272 3.392.22.852.555 1.675.792 2.524 1.196 4.284 2.546 8.515 3.807 12.778.277.937.854 1.81 1.023 2.769.286 1.627.668 8.548.206 10.043-.098.318-.173.405-.465.552-.085-.021-.201-.044-.275-.091-.404-.259-.398-.826-.416-1.254-.024-.588.032-1.312-.128-1.879-.187-.662-.64-1.218-.732-1.915-.114-.864-.093-1.748-.194-2.615-.104-.891-.342-1.765-.488-2.65-.187-1.131-.298-2.273-.57-3.39-.37-1.528-1.004-2.988-1.484-4.484-.59-1.835-1.068-3.721-1.581-5.58m-6.01-17.282h.102zm.113 1.234-.054.466c.192.091.105.096.256.048-.045-.146-.08-.422-.202-.514m1.392.012-.13.244.21.017.154-.25zm8.999 29.616.041.328.183.063-.062-.355zm.373 1.885c.043.534.081 2.842.406 3.124-.027-1.026-.047-2.044-.185-3.063l-.123-.087zm27.201-7.025c-3.42-2.893-5.993-5.64-9.086-8.778-1.27-1.288-2.668-2.445-3.937-3.73-1.152-1.168-2.185-2.466-3.284-3.684-1.008-1.118-6.112-6.84-6.672-7.091-.187-.084-.24-.019-.417.043-.22.373-.027.684.072 1.096a2.1 2.1 0 0 1-.715-.16c-.37-.566-.391-1.46-.667-2.114l-.166-.025c-.08.4-.067 1.134-.344 1.418l-.361-.076c-.555-.502-.311-1.055-.448-1.743-.32.164-.581.286-.81.574.055.637 7.17 10.26 8.321 12.2 1.397 2.353 2.289 5.072 3.818 7.34.549.813 1.494 1.39 2.136 2.14.767.897 1.297 2.058 2.004 3.018.66.896 2.718 2.373 2.779 3.416.012.207-.007.15-.18.308-.396.003-.651-.112-.981-.316-2.1-1.301-3.098-3.619-4.702-5.353-.875-.947-2.07-1.392-2.874-2.454-1.52-2.007-2.453-5.636-3.945-7.9-.79-1.2-1.748-2.27-2.581-3.437-.775-1.087-1.446-2.26-2.2-3.365-1.112-1.633-4.215-5.46-4.615-7.254-.084-.377-.047-.74.178-1.062.402-.579.911-.657 1.572-.762q.512.071 1.013.203.5.133.98.324.482.191.936.438.454.248.876.547c1.409.985 2.529 2.415 3.706 3.657 2.758 2.911 5.389 5.904 8.092 8.859 1.218 1.332 2.635 2.468 3.915 3.74 1.911 1.9 3.71 3.912 5.672 5.764 2.543 2.402 5.282 4.587 7.841 6.97l10.064 9.311c1.335 1.223 2.604 2.53 3.986 3.7 3.325 2.82 6.959 5.209 10.342 7.943 1.16.938 2.205 1.98 3.305 2.984.77.703 2.93 1.905 3.102 2.9-.208.247-.278.325-.628.35-.867.06-5.828-4.782-6.774-5.573-3.094-2.587-6.573-4.656-9.686-7.244-1.51-1.255-2.852-2.709-4.3-4.035l-9.945-9.162c-.727-.67-1.44-1.381-2.269-1.925-.463-.304-1.165-.72-1.742-.558-.549.153-.637.935-.896 1.36-.134.22-.359.402-.629.409-.326.008-.465-.088-.68-.293a.96.96 0 0 1-.014-.522c.209-1.058 1.012-1.8 1.838-2.395m-27.598-25.805.127.142.133.126-.133-.126zm1.354.513.116.039zm-1.335.124.105.07zm.52.125.107.07zm3.222.876.098.039zM120.645 86.4c-.358.917-1.109 3.437-1.956 3.836-.303-.087-.244-.082-.407-.32-.03-.38-.038-.743.078-1.111.19-.6.529-1.154.745-1.748.64-1.755 1.18-3.808 2.098-5.428.882-1.558 2.673-2.663 4.38-3.109.435-.035.872-.077 1.303.01.838.17 1.661.582 2.124 1.325.742 1.191.403 3.602.108 4.94-.313 1.413-1.29 4.112-1.841 5.453-.433 1.053-3.685 8.012-4.321 8.42-.237-.013-.211.04-.345-.115-.221-.258-.296-.722-.222-1.052.185-.83.81-1.755 1.151-2.55.835-1.942 1.753-3.967 2.404-5.972.283-.873.441-1.782.69-2.664.154-.553.413-1.1.444-1.675l-.135-.126-.7.159c-.041-.382.634-1.288.849-1.65l-.058-.181-.408.376c-.172-.163-.241-.382-.338-.596l-.146.036c-.144.305-.274.668-.527.897-.162.146-.348.047-.546.018l-.166.163c.152 1.397-.365 2.398-.701 3.723-.228.903-.334 1.83-.619 2.72-.841 2.627-2.062 5.1-3.007 7.688-.625 1.712-1.063 3.527-1.77 5.202-1.203 2.843-2.693 5.555-3.908 8.388-.74 1.634-1.917 3.957-2.923 5.41-.597.862-1.336 1.619-1.947 2.469-.46.64-1.109 1.915-1.823 2.255-.32.152-.429.102-.75.018-.064-.079-.16-.14-.192-.237-.167-.491 1.532-2.687 1.879-3.193 1.484-2.169 2.076-3.676 3.213-5.964 1.191-2.4 2.477-4.768 3.51-7.242 1.284-3.071 2.284-6.26 3.507-9.358.957-2.425 2.957-5.922 2.918-8.49-.191-.166-.132-.124-.302-.246-.281-.202-.121-.758-.426-1.069-.391.064-.632.337-.917.59m4.884-6.077-.454.418.039.194.568.29.166-.042c.034-.29-.039-.506-.209-.748-.03-.043-.073-.075-.11-.112m1.442.837c-.07.163-.223.36-.144.534.112.246.353.406.558.573.064-.41.16-.621-.017-1.004zm-1.395.547c-.189.257-.465.552-.41.894.018.11.049.167.091.264.163-.281.43-.648.37-.99-.01-.057-.034-.112-.051-.168m-1.785.457-.021.103.06-.033.007-.081zm-.906.049c-.209.312-.535.717-.51 1.117.004.07.032.136.047.203.19-.31.56-.774.507-1.156-.008-.056-.029-.109-.044-.164m.677 1.215.026.205.066-.015.02-.213zm-1.933 1.029-.153.301.101.095.108-.035.23-.33-.124-.082zm.816-.204c-.093.446-.347 1.165-.171 1.589.321-.01.418-.178.656-.38.218-.043.286-.03.461-.18-.009-.309-.121-.486-.264-.752-.219-.15-.429-.206-.682-.277m11.854 10.06c.396-1.66 1.81-5.458 1.051-6.912-.384.314-.313.87-.627 1.282-.386.095-.622-.07-.988-.207-1.343 1.687-1.018 6.148-2.216 7.454-.143.156-.078.111-.302.12-.085-.08-.142-.124-.204-.23-.589-1.008.647-6.06.957-7.302.57-2.29 1.944-6.404 4.04-7.665.327.087.638.153.883.404 1.094 1.122 1.084 3.028 1.092 4.493.018 3.275-1.638 8.52-2.8 11.644-.411 1.107-.925 2.176-1.325 3.287-.327.91-.39 2.19-1.139 2.86-.188.169-.284.097-.518.079-.01-.014-.022-.026-.027-.042-.751-1.947 1.647-7.13 2.123-9.265m1.448-10.739c-.098.364-.25.736-.163 1.112l.092.083c.161-.356.265-.597.25-1zm.284 1.758c-.264.727-.38 1.264-.11 2.011.29-.664.355-1.317.11-2.011m-1.189.262c-.37.588-.89 1.432-.776 2.17.023.142.037.154.094.266l.142.08c.035-.85.682-1.665.629-2.426z"/><path d="M163.87 96.989c-1.034-.584-3.904-5.46-4.536-6.65.023-.43.178-.554.426-.897l.31.06c.888.668 4.001 5.515 4.12 6.565.046.406-.088.612-.32.922M41.782 97.1c-.323-.04-.776-.091-1.04-.307-.275-.227-.267-.317-.296-.648.16-.394.382-.57.699-.83.113.049.174.071.277.127.395.219.729.496.858.939-.089.395-.209.449-.498.72m97.456 28.734c-.107-.025-.268-.057-.364-.103-.167-.082-.32-.185-.358-.371-.18-.882.108-2.18.137-3.102.085-2.71-.095-5.591.363-8.273a2.4 2.4 0 0 1 .426-1.047c.288.034.479.066.733.21a1 1 0 0 1 .189.456c.268 1.805-.231 9.653-.684 11.387-.083.322-.248.578-.442.843M37.03 113.806l-.049-.117zm-.765 3.163c-.285-.012-.443-.034-.694-.173-.178-.315-.258-.577-.18-.937.16-.735.479-1.12 1.11-1.493l.062.057c.131.504-.495.796-.522 1.38l.378.271c.075.362-.038.55-.154.895m-2.079 2.109c.776-.25 1.666-.462 2.35-.913.46-.305.48-.488.576-1.002.391.078.815.156 1.097.453.03.307.037.368-.184.62-.45.51-4.19 1.928-4.878 1.944.233-.62.396-1.86.986-2.2l.181.05c.054.363-.053.692-.128 1.048m160.217 10.051-.234-.047c-.986-.22-8.565-8.01-8.965-9.05-.136-.353.048-.53.212-.83.111.019.223.036.334.061.807.182 1.678 1.532 2.197 2.163.642.781 1.267 1.635 1.984 2.349 1.157 1.152 4.01 3.197 4.61 4.572.147.336.005.476-.138.781M34.715 124.22l-.319-.137c-.19-.33-.123-.436-.07-.805.275.051.324.017.528.224zm.313.045-.05-.088zm1.008 4.197-.33.002c-.03-.03-.065-.056-.091-.09-.5-.616-.633-1.936-.605-2.708a5 5 0 0 0-.085-1.075l-.027-.146c.297.218.401.483.535.811.385.945 1.023 2.219.603 3.206m3.385-.753c-.715-.33-.498-.923-.87-1.512a2.6 2.6 0 0 1-.59.049l-.232-.24c-.13-.407.008-.706.135-1.094q.134.118.272.232c.557.445.984 1.032 1.295 1.676.177.365.108.511-.01.889m-.31.916c-.35.043-.517-.13-.815-.299.359.061.555.035.815.299m1.539 6.495.063-.138zm-1.014 4.278-.094.043-.145-.057c-.103-.725.216-1.471.245-2.212l.003-.129c.291.129.335.168.43.499.2.689-.075 1.286-.439 1.856m123.895-.801-.121.012.013-.297.18-.037zm-126.55 2.489c.514-.727.798-.989 1.667-1.225l.383.044.103.138c-.331.474-1.004.622-1.455.976l.26.185c.101.441 0 .626-.128 1.054l-.136.044c-.364-.224-.53-.833-.694-1.216m2.346 10.329c-.18-.148-.103-.046-.174-.341.3-.766.815-1.329 1.454-1.832.103.156.11.232.085.426-.09.7-.858 1.338-1.365 1.747m-5.957 10.517c.561-1.15 1.09-2.31 1.861-3.337l.087.089a.8.8 0 0 1 .056.445c-.42 2.809-3.782 4.569-5.8 6.195-.211-.164-.135-.054-.2-.35.592-1.256 2.81-2.363 3.996-3.042m1.513 8.044-.014-.05c-.12-.514-.194-1.023.005-1.528.214-.546 2.39-2.3 2.945-2.953.91-1.07 1.628-2.413 2.377-3.604.038.159.044.151.046.342.024 1.899-4.01 6.45-5.36 7.793m-1.404 2.241-.172-.761c-.018.566.071 1.51-.278 1.942l-.187-.081c-.228-1.32-.148-2.804.017-4.13.203-1.629.55-3.04 1.903-4.092.024.017.054.026.072.048.28.362-.917 2.577-1.076 3.155-.148.537-.134 1.145-.146 1.7l.845-1.086c-.068.896-.104 3.221-.782 3.87l-.166-.11zm-1.531-.277-.224-.26c-.145-1.197-.175-2.206.535-3.247l.286.207c.323.909-.227 2.436-.597 3.3m-5.727 1.375-.214-.172-.018-.324c.317-.712.927-1.408 1.453-1.978.097.108.19.258.213.404.117.765-.945 1.577-1.435 2.07m-2.559 2.11c-.244-.203-.198-.193-.265-.479.255-.91 1.502-1.733 2.212-2.333l.019.02c.19.29.238.31.175.64-.314.322-.73.437-1.141.595-.389.51-.707.985-1 1.557m104.62 2.025-.058-.007c-.426-.045-.769-.073-1.086-.395a1.2 1.2 0 0 1-.355-.915c.027-.687.387-1.097.87-1.539.477-.009.888.023 1.223.41.258.296.332.686.281 1.065-.084.632-.394.992-.875 1.38m-49.25 9.748q-.104-.032-.206-.066c-.48-.163-.748-.401-.977-.845-.02-.19-.038-.358.035-.54.26-.66.863-.88 1.458-1.154.38.185.73.404.905.811.134.313.093.597-.04.9-.223.508-.689.708-1.175.894m45.978 30.61a84 84 0 0 1-.004-3.793c1.074-.02 2.147-.05 3.076.586.35.24.618.56.692.987.11.63-.18 1.282-.537 1.78-1.102.54-2.033.486-3.227.44m-13.529 2.33a55 55 0 0 0 1.505-5.185c.884 1.127 1.364 3.841 1.752 5.25l-1.267-.01zm25.161.143c.42-1.764.86-3.6 1.444-5.315.751.714 1.453 4.201 1.757 5.296l-1.133.056z"/></svg>