<svg xmlns="http://www.w3.org/2000/svg" viewBox="0 0 256 256"><path d="M122.405 0h11.31l.126.022c2.303.384 4.708.448 7.034.68 3.957.394 7.98.959 11.87 1.802 32.352 7.017 59.953 24.241 79.422 51.225 18.413 25.516 27.043 62.287 22.033 93.3-1.012 6.253-2.27 12.504-4.1 18.573q-.373 1.236-.772 2.464-.398 1.228-.821 2.448t-.871 2.43-.92 2.413-.97 2.393-1.018 2.373q-.52 1.181-1.066 2.351-.544 1.17-1.113 2.33-.569 1.159-1.16 2.306-.593 1.147-1.208 2.282t-1.253 2.258-1.3 2.231q-.66 1.109-1.344 2.204-.683 1.095-1.388 2.177-.706 1.081-1.433 2.148-.728 1.066-1.477 2.118-.748 1.052-1.519 2.088t-1.56 2.056q-.792 1.02-1.603 2.024-.812 1.004-1.644 1.992-.832.987-1.684 1.957t-1.723 1.923-1.762 1.887q-.89.934-1.8 1.851t-1.838 1.814q-.927.898-1.873 1.776-.946.879-1.91 1.738-.963.859-1.944 1.699-.981.839-1.979 1.658-.998.82-2.012 1.618t-2.044 1.577-2.077 1.535q-1.486 1.077-3.003 2.112-1.517 1.034-3.064 2.024-1.546.99-3.12 1.935-1.575.944-3.176 1.843-1.602.898-3.228 1.75t-3.277 1.656-3.324 1.56q-1.673.757-3.368 1.464t-3.408 1.365-3.447 1.266-3.482 1.165q-1.75.556-3.514 1.064-1.765.507-3.544.962-1.779.456-3.57.858-1.791.403-3.593.755-1.802.35-3.614.65-5.1.875-10.255 1.325c-1.95.178-4.029.14-5.942.525h-8.92c-2.125-.437-4.482-.365-6.65-.545q-5.096-.435-10.139-1.288c-20.91-3.457-40.368-11.518-57.219-24.439q-1.154-.894-2.288-1.814t-2.247-1.864-2.205-1.915-2.16-1.964-2.116-2.013-2.07-2.06q-1.024-1.04-2.023-2.105t-1.976-2.15q-.975-1.087-1.926-2.195-.95-1.108-1.876-2.238t-1.825-2.28q-.9-1.149-1.774-2.319t-1.721-2.36-1.667-2.397-1.613-2.434-1.557-2.47-1.502-2.505-1.444-2.537-1.388-2.57q-.679-1.293-1.328-2.6-.65-1.308-1.27-2.63t-1.21-2.657-1.15-2.684-1.09-2.71-1.028-2.733-.966-2.755-.904-2.777-.84-2.796-.778-2.815-.714-2.832-.65-2.846-.586-2.861c-.7-3.506-1.279-7.096-1.587-10.66-.253-2.927-.293-5.922-.678-8.83v-1.561c.32-1.985.233-4.152.315-6.17.159-3.859.354-7.71.812-11.546q.112-.993.24-1.984.127-.99.27-1.98.144-.989.304-1.975.159-.986.334-1.97t.366-1.965.398-1.958.429-1.952.46-1.945q.237-.97.49-1.937.254-.966.523-1.929.269-.962.553-1.92t.583-1.912.614-1.901.645-1.892.675-1.88.704-1.87.735-1.86.764-1.846.794-1.834.823-1.82.852-1.808.881-1.794.91-1.78.938-1.764.966-1.75.994-1.733 1.021-1.718 1.05-1.7q.53-.846 1.075-1.684t1.103-1.667 1.13-1.648 1.156-1.63q.692-.975 1.402-1.936.71-.96 1.438-1.909.727-.947 1.473-1.881.745-.934 1.507-1.854.763-.92 1.543-1.826.779-.905 1.575-1.796.797-.892 1.609-1.767.813-.876 1.642-1.737.829-.86 1.673-1.706.845-.845 1.705-1.674.86-.83 1.736-1.643t1.766-1.61 1.796-1.576 1.825-1.544q.92-.762 1.853-1.508t1.88-1.474 1.909-1.439q.96-.71 1.934-1.403.974-.692 1.96-1.367.987-.674 1.986-1.33t2.01-1.293q1.01-.637 2.033-1.255t2.057-1.217q1.034-.6 2.079-1.179 1.044-.58 2.1-1.14 1.055-.56 2.121-1.1t2.141-1.061 2.161-1.021 2.18-.98 2.197-.94 2.214-.9 2.23-.856c6.164-2.274 12.464-3.964 18.875-5.37q5.953-1.25 11.998-1.937c2.566-.281 5.197-.378 7.738-.813zm.602 5.179c-10.21.512-20.157 2.046-29.974 4.966-20.49 6.095-40.165 18.226-54.524 34.09-2.258 2.494-4.687 4.94-6.767 7.578q-.863 1.095-1.7 2.208-.838 1.114-1.65 2.246-.813 1.132-1.6 2.282t-1.548 2.318-1.495 2.352-1.441 2.384q-.708 1.201-1.388 2.417t-1.333 2.447-1.278 2.477-1.222 2.504-1.165 2.532q-.569 1.272-1.109 2.557t-1.05 2.581-.992 2.605q-.481 1.307-.933 2.625t-.874 2.647-.815 2.665-.754 2.683-.693 2.698-.633 2.715-.572 2.727-.51 2.74-.449 2.75-.386 2.76-.325 2.768-.262 2.774q-.116 1.389-.2 2.78t-.137 2.783-.075 2.786-.012 2.787.051 2.786.113 2.785q.088 1.514.214 3.025.125 1.512.287 3.02.163 1.508.362 3.011.2 1.504.436 3.002t.509 2.99q.272 1.492.582 2.977t.655 2.962.728 2.944.8 2.926.871 2.905.943 2.883 1.012 2.86 1.083 2.833 1.152 2.805q.594 1.396 1.22 2.777.628 1.38 1.29 2.746.66 1.365 1.355 2.714.694 1.348 1.421 2.679t1.487 2.644 1.552 2.606 1.615 2.567 1.677 2.528q.854 1.252 1.739 2.484t1.8 2.442 1.858 2.397 1.918 2.35 1.974 2.303q1.001 1.14 2.03 2.254t2.085 2.202 2.138 2.152 2.19 2.098q1.109 1.035 2.242 2.043 1.094.972 2.212 1.917 1.117.945 2.256 1.863 1.14.918 2.3 1.808 1.161.89 2.343 1.753t2.384 1.697 2.424 1.64q1.222.804 2.462 1.58t2.5 1.522 2.535 1.46 2.57 1.401q1.292.685 2.602 1.339t2.633 1.276 2.663 1.213q1.339.59 2.691 1.148t2.718 1.084 2.743 1.02 2.767.953 2.788.886 2.81.82 2.827.752q1.418.36 2.845.685t2.86.617q1.434.29 2.875.548 1.44.257 2.887.479 1.446.222 2.897.41t2.906.34 2.913.27q1.459.12 2.92.203t2.923.133q1.462.047 2.925.06 1.464.014 2.927-.008 1.463-.02 2.925-.077 4.587-.15 9.146-.668 4.56-.517 9.064-1.4c26.166-4.909 48.898-17.803 67.183-37.045 14.549-15.31 25.75-37.242 30.007-57.926q.75-3.69 1.282-7.419.531-3.728.842-7.482t.4-7.518q.087-3.765-.045-7.53-.04-1.49-.118-2.98t-.192-2.977q-.112-1.487-.263-2.97-.151-1.485-.338-2.965t-.41-2.954-.483-2.944q-.26-1.469-.555-2.93t-.627-2.917q-.331-1.454-.698-2.9t-.77-2.882-.84-2.862-.91-2.84-.98-2.818q-.508-1.402-1.05-2.792-.541-1.39-1.117-2.766t-1.185-2.737q-.61-1.361-1.252-2.707-.643-1.347-1.319-2.676t-1.383-2.643q-.708-1.312-1.449-2.608-.74-1.294-1.512-2.57-.772-1.277-1.575-2.534t-1.636-2.494q-.834-1.236-1.698-2.453-.864-1.215-1.758-2.41-.893-1.194-1.816-2.366-.922-1.172-1.873-2.32-.952-1.15-1.93-2.275-.98-1.125-1.987-2.226-1.006-1.1-2.04-2.176-1.032-1.076-2.092-2.126t-2.144-2.073q-1.1-1.05-2.226-2.074-1.125-1.022-2.276-2.017t-2.325-1.96-2.373-1.902-2.42-1.843-2.464-1.782q-1.244-.875-2.508-1.72-1.265-.844-2.55-1.657-1.286-.813-2.59-1.594-1.306-.78-2.63-1.529t-2.666-1.463-2.702-1.397-2.735-1.33-2.767-1.26-2.798-1.192-2.827-1.122-2.854-1.052-2.879-.98-2.902-.91-2.924-.836-2.944-.764-2.962-.69-2.978-.618-2.992-.542-3.005-.469q-1.506-.215-3.016-.394-1.51-.178-3.025-.318t-3.031-.244-3.037-.168-3.04-.094-3.041-.017-3.041.058c-.302.008-.604.014-.905.035"/><path d="M131.7 248.727c-7.055.103-14.101-.116-21.098-1.084q-1.102-.157-2.2-.335-1.1-.177-2.195-.375t-2.186-.416-2.179-.457q-1.087-.238-2.17-.496-1.082-.259-2.16-.537-1.077-.279-2.149-.578t-2.139-.617-2.127-.656-2.114-.697-2.1-.735q-1.047-.377-2.087-.774t-2.073-.813-2.056-.852-2.04-.889-2.024-.927-2.006-.965-1.987-1.001-1.97-1.039q-.979-.529-1.948-1.075-.97-.546-1.929-1.111t-1.908-1.147-1.886-1.181-1.864-1.217-1.84-1.251-1.818-1.286-1.793-1.319q-.89-.667-1.768-1.351t-1.743-1.385-1.717-1.417-1.69-1.448-1.663-1.48q-1.11-1.004-2.195-2.036-1.086-1.031-2.145-2.09-1.06-1.057-2.092-2.141t-2.04-2.193-1.984-2.242-1.929-2.29-1.872-2.337-1.814-2.382q-.892-1.203-1.754-2.427-.863-1.224-1.695-2.469t-1.633-2.51-1.57-2.549-1.508-2.587-1.443-2.623q-.706-1.32-1.379-2.658t-1.312-2.692-1.246-2.722q-.607-1.37-1.179-2.753t-1.11-2.78-1.042-2.808-.972-2.832q-.47-1.422-.903-2.855t-.831-2.876-.761-2.896-.69-2.914-.617-2.93-.545-2.944q-.254-1.476-.472-2.957-.218-1.482-.4-2.968-.18-1.486-.326-2.976-.145-1.49-.253-2.983t-.18-2.99c-.24-5.575.161-11.125.73-16.668 2.33-22.688 9.995-43.092 23.868-61.233 2.24-2.929 4.531-5.811 7.03-8.526 17.827-19.368 40.956-32.92 66.954-37.728q4.58-.8 9.204-1.288 4.624-.487 9.27-.658l.226-.014c3.736-.165 7.517-.033 11.248.195q1.277.084 2.552.195 1.275.11 2.547.248t2.541.303 2.535.356 2.525.41q1.262.22 2.518.464 1.255.246 2.506.517 1.25.272 2.495.57 1.244.3 2.482.624 1.237.325 2.468.675t2.453.728q1.224.377 2.438.78t2.42.832q1.206.428 2.403.882 1.196.454 2.382.934t2.363.984 2.341 1.034 2.319 1.083 2.294 1.132 2.271 1.181 2.245 1.229 2.218 1.276q1.103.65 2.191 1.323t2.162 1.369 2.132 1.415q1.06.718 2.102 1.46 1.044.74 2.071 1.504 1.027.763 2.038 1.547 1.011.785 2.005 1.591t1.97 1.633 1.936 1.674 1.9 1.715q1.087.995 2.15 2.016 1.061 1.02 2.099 2.067 1.037 1.047 2.048 2.12 1.01 1.071 1.995 2.168.984 1.096 1.941 2.217t1.887 2.264 1.83 2.309 1.772 2.354 1.714 2.397 1.655 2.438 1.595 2.478 1.533 2.517 1.47 2.553 1.408 2.589 1.344 2.622 1.278 2.655 1.213 2.686 1.147 2.715 1.08 2.741q.522 1.378 1.011 2.768t.944 2.791.874 2.814.805 2.835.736 2.854.664 2.87q.315 1.44.594 2.887.28 1.447.523 2.9.244 1.453.452 2.912t.38 2.922q.171 1.463.307 2.93t.236 2.938.163 2.942q.076 1.494.114 2.989t.04 2.99q0 1.496-.035 2.991t-.11 2.99q-.073 1.493-.183 2.984-.11 1.492-.258 2.98-.147 1.489-.331 2.973t-.406 2.963-.48 2.953q-.257 1.473-.552 2.94-.294 1.466-.625 2.924-.33 1.459-.698 2.909t-.77 2.89-.841 2.87-.913 2.848-.983 2.825-1.053 2.8q-.544 1.392-1.123 2.772-.578 1.379-1.19 2.743-.614 1.364-1.26 2.713t-1.326 2.681-1.392 2.647q-.713 1.315-1.458 2.612t-1.522 2.575-1.585 2.536-1.649 2.496-1.71 2.454-1.77 2.41-1.83 2.367-1.887 2.32-1.945 2.272-2.001 2.223q-.863.939-1.745 1.86-.882.92-1.784 1.821-.901.902-1.822 1.784-.92.882-1.86 1.745-.939.862-1.896 1.704-.957.843-1.932 1.664-.975.822-1.967 1.623-.992.8-2.001 1.58t-2.034 1.538q-1.026.758-2.067 1.494-1.04.736-2.097 1.45t-2.128 1.405q-1.072.69-2.158 1.359-1.085.668-2.185 1.313t-2.213 1.267q-1.114.621-2.24 1.219-1.126.597-2.265 1.17-1.139.575-2.29 1.124-1.15.549-2.312 1.074-1.162.524-2.335 1.024t-2.356.975-2.377.924-2.395.874-2.414.823-2.43.771-2.447.72q-1.227.346-2.46.667-1.235.32-2.475.614-1.241.295-2.488.563t-2.498.508-2.509.457-2.518.402c-4.706.693-9.501.948-14.252 1.147m14.6-209.158c-.667-.788-1.037-1.959-1.356-2.929-1.83-5.581-1.51-10.562-2.683-16.067-.686.582-1.443 1.149-2.06 1.803 1.23 4.486 2.212 8.895 2.239 13.576.01 1.812-.154 3.63-.204 5.443-.034 1.213.18 3.194-.369 4.233l-.186-.035c-1.323-2.403-1.353-8.173-1.676-11.114a57 57 0 0 0-.88-5.592q-.023.073-.043.146c-.457 1.63-.777 7.847-1.747 8.79-.172-.001-.266.04-.403-.085-.52-.474-.49-1.759-.475-2.435.024-1.14.19-2.274.208-3.416.032-2.243-.116-4.497.094-6.732-.6.987-1.057 1.998-1.502 3.062a46 46 0 0 0-1.319-1.89c.124 5.051-.273 9.519-1.36 14.441.437.082.855.013 1.283.154 1.714.565 3.23 2.569 4.213 4.002 3.593 5.238 4.26 14.2 3.043 20.378-.188.958-.478 1.886-.775 2.816 2.123-1.493 3.776-3.425 6.005-4.839-.43-2.03-2.257-10.696-1.354-12.035.02-.029.047-.051.07-.077.537 1.174.7 2.645 1.008 3.905.582 2.383 1.224 4.852 2.069 7.151.963-.39 1.924-.812 2.922-1.106-.607-2.209-1.954-5.217-2.05-7.383.74 1.666 2.474 5.849 3.49 7.112l.344.024c.146-.232.156-.28.099-.565-.273-1.37-1.36-3.336-1.866-4.8-1.327-3.84-2.254-7.711-3.317-11.62-.383-1.409-1.047-2.818-1.312-4.245-.077-.415-.146-.793.035-1.176.284-.006.283-.005.475.192 1.14 1.169 4.537 11.58 5.53 14.11 1.085 2.763 2.39 5.473 3.375 8.27 1.293.257 2.593.541 3.894.749 1.02.163 2.122.206 3.105.519.477.151.894.331 1.186.755.595.864.202 1.916.569 2.821 1.168 2.89 2.782 5.842 4.477 8.46 2.16 3.338 5.087 6.052 7.31 9.331 2.862 4.221 4.66 9.08 7.506 13.302 2.205 3.273 4.82 6.227 7.292 9.293 2.946 3.653 5.781 7.405 8.645 11.123 4.379 5.684 8.602 11.49 12.916 17.224 6.885 9.152 13.772 18.196 23.065 25.087 1.482 1.1 2.928 2.209 4.535 3.124.773-2.294 1.468-4.689 1.822-7.085-1.837-.078-3.421-.159-5.224-.595 1.781-.087 3.574-.247 5.356-.157l.281-1.338c-3.406-.135-7.02-.674-10.154-2.065 1.825.248 9.56.957 10.767.142.082-.385.233-.793.082-1.172-1.343-.286-2.803-.278-4.172-.447-3.237-.402-6.555-1.004-9.65-2.05 4.8.063 9.515.557 14.329.178l.245-1.609q-2.26.02-4.517-.099-2.256-.118-4.501-.376-2.245-.257-4.47-.651-2.226-.394-4.422-.924c2.16-.224 4.505.177 6.675.289 3.791.196 7.771.145 11.536-.373.095-.673.174-1.353.31-2.02-6.739.477-14.58.518-20.952-2.033-.619-.248-1.392-.48-1.944-.85 1.185.263 2.304.771 3.516.976 2.178.368 4.439.339 6.642.344 4.323.01 8.512-.173 12.803-.712.086-.746.133-1.493.179-2.243-8.624.813-19.435.79-27.506-2.601 8.21 1.55 19.438 1.393 27.712.284l.065-2.345c-10.344 1.431-21.232.877-31.143-2.525 7.556 1.262 13.252 1.547 20.921 1.208 3.442-.152 6.817-.358 10.177-1.17.01-.724.056-1.45.087-2.173-8.15 1.257-16.848 1.813-25.014.399-2.668-.462-5.308-1.215-7.923-1.912 2.433.049 4.86.606 7.296.735q4.937.265 9.879.086 4.941-.178 9.847-.799c1.948-.231 3.928-.419 5.833-.901l-.022-2.186c-2.78.218-5.548.634-8.33.87-8.514.72-19.843.925-27.928-2.223 3.135.207 6.27.48 9.41.587q4.75.153 9.5-.02 4.75-.171 9.476-.668c2.575-.267 5.194-.526 7.73-1.049-.107-.788-.107-1.615-.146-2.41-11.013 1.861-22.813 2.203-33.854.475-1.54-.24-3.825-.466-5.193-1.182 1.264-.339 4.449.088 5.99.15 2.897.115 5.815.248 8.716.203 8.03-.122 16.14-.69 24.064-2.018l-.405-2.574c-7.427 1.456-16.075 1.733-23.654 1.709-3.761-.012-7.565-.03-11.302-.504q-2.082-.252-4.124-.732t-4.018-1.181c3.055.134 6.09.537 9.153.626 7.366.216 14.595-.267 21.924-.936 3.94-.36 7.965-.664 11.837-1.493l-.519-2.61c-2.706.7-6.146.901-8.964 1.207-11.889 1.287-24.449 2.22-36.118-.945 14.428 1.129 30.32-.398 44.589-2.705q-.237-1.283-.496-2.561c-5.022.959-10.008 1.505-15.092 2.005-3.669.36-7.382.764-11.072.759-3.282-.005-6.588-.313-9.844-.698 2.505-.431 5.805-.35 8.486-.629q8.296-.838 16.53-2.159c3.505-.529 7.03-1 10.484-1.807l-.433-1.608c-1.838.445-3.733.7-5.6.988-.372.602-.783 1.023-1.309 1.487-.2-.392-.372-.798-.552-1.2-2.124.382-4.336.403-6.483.638-3.48.381-6.903.966-10.412 1.044 2.049-.606 4.29-.78 6.386-1.309 3.066-.773 6.056-1.935 9.15-2.573-1.236-2.15-2.545-5.014-2.536-7.547.006-1.802.636-3.572 1.914-4.86-.996-1.063-2-1.983-3.194-2.823.14.399.24.82.263 1.243.134 2.404-1.395 4.471-3.162 5.926-.597.49-1.31.878-1.824 1.457-.143.16-.213.253-.403.373-.178.11-.123.068-.363-.005-.904-1.204-1.649-3.847-1.879-5.378-.385-2.564.236-5.065 1.788-7.146a20 20 0 0 0-2.108-.986c-1.925 4.39-3.43 3.284-6.304 5.942-.92.85-1.528 2.087-2.243 3.108-.219.312-.387.505-.766.569l-.243-.237c-.55-1.543.327-5.065.844-6.591 1.051-3.106 1.445-3.681 4.34-5.125-1.771-.736-3.52-1.459-5.383-1.935-.434.806-.73 1.702-1.098 2.541-.966 2.205-2.415 3.904-4.408 5.262-.81.551-4.881 3.19-5.626 3.047-.29-.491-.204-1.167-.156-1.716.351-4.05 3.252-7.334 6.213-9.83-2.826.976-6.269 2.475-9.302 1.794-1.024-.23-4.803-1.71-5.291-2.559-.122-.211-.071-.203-.007-.417.74-.555 6.253.281 7.595.269 2.703-.025 5.611-.657 8.189-1.465l.154-.05c-1.464-.488-3.015-.675-4.521-.998q-1.39-.308-2.747-.744-1.356-.435-2.666-.995c-1.57-.668-7.471-3.928-8.034-5.33l.107-.193c.83-.347 3.35-.496 4.455-.714 5.965-1.178 9.14.01 12.899 4.886.877 1.138 1.726 2.569 2.863 3.452 1.268.986 2.962 1.44 4.459 1.97a18 18 0 0 1 .782-1.881c1.719-.458 4.236-1.177 5.465-2.525-.226-.076-.123-.027-.312-.142.47-.682.601-1.774.838-2.575l.064-.08-.064.08c-.474.854-1.322 2.865-2.172 3.287-.19-.136-.174-.192-.203-.417-.046-.358.053-.784.118-1.138l.086-.061-.086.061c-.31.536-.52.965-1.038 1.326l-.26-.011c-.26-.285-.274-.404-.672-.422-.501.276-.856.717-1.242 1.131.142-1.566.226-3.081 1.536-4.165 2.15-1.78 2.72-1.873 4.405-4.378-1.059-.632-2.117-1.034-3.296-1.384-1.108 1.803-2.474 2.757-4.528 3.23-1.029.237-4.224.562-5.14.009-.132-.08-.132-.094-.217-.195.002-1.209 2.917-4.497 3.815-5.584l-1.543-.6c-1.704 1.666-3.353 2.488-5.773 2.45-1.578-.026-3.181-.235-4.753-.38.558-1.764 2.085-3.3 3.696-4.168-1.157-.557-2.368-.978-3.573-1.416-1.196 1.708-3.082 2.514-5.075 2.874-.62.113-1.372.32-1.995.184-.15-.131-.257-.155-.27-.371-.109-1.627 3.256-4.395 3.224-5.055-.475-.316-1.013-.436-1.555-.592-1.069.522-2.12 1.067-3.104 1.739-2.556 1.745-3.685 2.906-6.966 3.038-.484.02-1.291.094-1.736-.092-.191-.08-.197-.095-.345-.202-.06-.385.102-.538.325-.845 1.392-1.922 2.6-3.71 4.319-5.37-3.12-.511-5.692-1.507-8.352-3.225-.549-.354-1.338-.791-1.716-1.334-.14-.2-.181-.328-.21-.565.103-.268.098-.35.374-.476.646-.293 1.532-.39 2.231-.563 3.844-.951 8.024-1.477 11.784.115 1.96.83 3.672 2.322 4.437 4.348.167.444.281.927.372 1.392.754.301 1.488.566 2.275.766.22-.729.403-1.58.766-2.251.763-1.413 2.821-3.187 4.202-3.959.254-.142.46-.23.756-.211.24.214.294.325.325.648.28 2.882-.156 5.339-1.826 7.72.996.657 2.008.984 3.143 1.328.415-1.766 1.157-3.155 2.741-4.153.629-.396 1.367-.651 2.075-.868 1.19 1.484 2.477 3.544 2.256 5.52-.08.724-.382 1.283-.762 1.89l2.203.768c1.286-1.117 2.231-1.436 3.905-1.625-3.828-5.27-9.409-10.415-14.4-14.578-17.584-14.664-35.995-23.561-58.698-27.172q-1.382-.214-2.768-.394-1.387-.18-2.778-.326-1.39-.146-2.784-.258t-2.79-.19-2.794-.123q-1.397-.044-2.796-.054t-2.796.015-2.795.082-2.792.15-2.788.22-2.781.286q-1.39.16-2.774.354t-2.764.422-2.754.49-2.74.556-2.726.623-2.71.689q-1.351.361-2.693.755-1.341.394-2.673.82-1.332.427-2.653.886-1.32.46-2.63.95-1.309.491-2.606 1.014t-2.58 1.077-2.553 1.14-2.525 1.202-2.495 1.263-2.465 1.324q-1.223.677-2.43 1.383-1.207.707-2.396 1.442-1.189.736-2.36 1.5-1.17.765-2.322 1.558t-2.285 1.613c-6.047 4.402-11.475 9.31-16.674 14.67-1.79 1.846-3.614 3.666-5.225 5.672.754.772 1.521 1.532 2.212 2.362 1.13-.49 2.255-1.006 3.402-1.453-.462-1.784-1.759-3.546-.72-5.38.301-.532.778-1.074 1.398-1.214.705-.159 1.391.172 1.965.552 1.487.984 2.592 2.55 3.379 4.126.958-.38 1.928-.743 2.861-1.183-.35-2.15-1.57-3.895-2.055-5.981.227-.542.381-1.068.955-1.331.72-.331 1.586-.193 2.294.093 1.21.489 2.365 1.46 2.883 2.678.388.912.402 1.925.24 2.889.799-.34 1.62-.633 2.295-1.191l.166-.134c.973-.813 1.729-1.949 2.565-2.901 2.225-2.539 5.331-3.538 8.658-3.269 1.824.148 3.548.77 5.326 1.148.987.21 2.005.266 3.009.336-2.746 2.701-5.866 5.489-9.966 5.484l-.198-.002c2.226 2.454 3.046 3.657 3.418 7.005-3.707-.415-7.145-1.635-9.965-4.162-.534-.479-.911-1.139-1.439-1.6-.404-.354-.972-.168-1.371.14-.133.103-.14.124-.232.238-.014.681 1.294 1.918 1.67 2.555.735 1.241 1.16 2.629 1.553 4.008-2.094-.372-4.401-.708-6.285-1.737-.94-.514-1.795-1.234-2.755-1.688l-1.965.69c1.66 1.344 4.061 4.372 4.313 6.548.03.258-.002.411-.086.651l-.285.23c-.253-.078-.329-.155-.537-.313-1.047-.799-4.705-1.722-6.297-2.399-1.496-.636-2.865-1.477-4.33-2.16-.592.067-1.189.123-1.776.23 3.381 2.884 4.024 3.922 4.828 8.288-4.425-.581-7.957-1.917-10.992-5.302-.761.434-1.459.851-2.13 1.419 1.815 1.407 5.444 5.264 5.825 7.52l-.09.314c-.408.213-.545.087-.966.014-1.407-.242-3.364.341-4.702.795-2.134-.591-3.44-2.425-4.808-4.04-.337 1.52-.73 5.282-2.057 6.082-.76.458-1.613.206-2.43.07-1.63 2.658-2.857 5.52-4.04 8.397 2.574-1.54 4.968-2.202 7.924-2.575-.733-.854-1.895-2.06-1.8-3.266a1.38 1.38 0 0 1 .565-1.006c.94-.705 2.497-.59 3.602-.39.45.083.893.213 1.334.34.846.904 1.005 2.074 1.843 2.981 1.527-.497 3.005-1.123 4.506-1.69 1.086-.41 2.227-.748 3.284-1.22-1.302-.007-6.181-.245-7.12-1.134-.363-.343-.529-.957-.503-1.443.013-.23.104-.482.301-.614.52-.35 1.369-.109 1.935.036 1.114.285 2.123.89 3.129 1.43.42.226.897.554 1.364.646 1.85.363 4.368-1.538 6.052-2.178 1.043-2.856 3.078-5.344 5.863-6.66 3.69-1.746 8.658-.963 12.536-.48.598.075 1.439-.14 1.979.009.055.015.102.052.154.078.029.398-.04.574-.306.875-2.907 3.291-8.803 5.634-13.02 6.431-2.551.483-5.082.582-7.408 1.873 2.529.084 5.153.184 7.679.06 1.575-.078 3.198-.517 4.773-.366 1.067.102 3.42.72 4.208 1.445.215.2.298.355.31.648-.278.234-.497.31-.866.291-1.655-.087-3.158-1.265-4.755-1.63.504.505 1.055.99 1.425 1.605-.583-.037-1.708-1.7-2.198-1.522l.276.55-.062.156a34 34 0 0 1-1.569-.322l.116.11c.59.551 1.241 1.113 1.959 1.49.92.485 2.718.674 3.152 1.64-.043.324-.076.558-.336.787-.253.221-.55.279-.872.227-.805-.13-1.677-.573-2.436-.871-2.45-.962-4.84-1.996-7.504-2.063 3.906 2.938 5.03 6.126 5.657 10.914l.021.176c-4.5-1.743-8.73-3.639-10.779-8.327q-.369-.855-.635-1.748c-1.764.755-3.808 1.113-5.707 1.334 2.877 2.485 5.098 5.023 5.392 8.95.037.495.055.9-.163 1.356l-.246.148c-.72-.303-1.368-.73-2.072-1.065-3.36-1.595-5.965-3.017-8.07-6.213-.36-.546-.424-.478-1.011-.287-.14.648.202 1.58.364 2.223.195.771.449 1.567.56 2.355.405 2.873-.747 6.081-2.038 8.595-2.72-2.716-4.477-4.878-5.735-8.561-.678.772-1.34 1.533-2.159 2.162 1.416 2.32 2.014 4.59 1.37 7.286-.422 1.769-1.484 3.302-1.828 5.085 4.396.727 8.785 2.001 13.084 3.167-2.524.242-13.271-1.053-13.953-.82-.177.231-.248.429-.334.706-.205.082-.186.123-.369.056-.44-.16-.866-.695-1.188-1.04-2.194-.431-4.445-.532-6.658-.84-.167.796-.343 1.584-.421 2.394 2.718.286 5.423.675 8.145.93 4.575.43 9.168.66 13.747 1.041 4.753.395 9.483.945 14.223 1.462-3.123.538-6.54.344-9.709.352-9.006.022-17.926-.293-26.888-1.229q-.235 1.096-.425 2.2 9.207 1.137 18.464 1.734 9.258.597 18.535.65c2.776-.006 5.541-.143 8.315-.235-1.484.696-3.381.91-5 1.139-6.703.947-13.498.838-20.25.604-6.864-.238-13.664-.67-20.48-1.557-.164.706-.295 1.42-.431 2.131 2.429.658 5.216.75 7.725 1.02 11.7 1.26 23.695 1.808 35.456 1.215-1.543.578-3.36.738-4.989.972-7.057 1.013-14.072 1.029-21.181.769-5.807-.212-11.548-.591-17.297-1.466-.093.848-.193 1.653-.43 2.475 9.034 1.451 18.377 1.768 27.515 1.839 4.258.033 8.636.098 12.879-.253-2.123.606-4.334.956-6.517 1.272-11.325 1.64-22.68.622-34.01-.347-.05.767-.133 1.53-.21 2.295 2.997.537 6.09.755 9.123 1.006q8.849.814 17.735.718c2.85-.038 5.694-.307 8.545-.32-11.712 3.01-23.592 2.383-35.49.957l-.127 2.266c9.464 1.856 21.693 1.919 31.365 1.088-2.506 1.002-5.441 1.39-8.118 1.696-8.06.917-15.227.678-23.25-.445l-.002 2.246c7.946 1.848 20.827 1.638 28.992.741-1.15.511-2.451.767-3.677 1.043-6.197 1.393-12.577 1.611-18.904 1.269-1.545-.084-5.037-.64-6.337-.507-.168.703-.092 1.494-.089 2.215 2.057.372 4.192.485 6.276.62 6.103.398 12.161.277 18.268.095-6.187 2.445-17.863 2.217-24.448 1.562l.067 2.258c1.203.27 2.496.344 3.723.456q4.337.357 8.688.305t8.679-.511c-6.179 2.15-14.359 2.683-20.843 1.973.102.754.17 1.516.249 2.273 3.088.273 6.16.458 9.261.437 2.5-.018 5.039-.217 7.533-.112l-.111.036c-3.943 1.311-12.383 2.087-16.52 1.462l.3 1.813c4.639.142 9.24.15 13.88.056-4.184 1.247-9.187 2.027-13.54 2.074.12.519.27 1.03.413 1.543 3.124.189 6.203.174 9.331.077-2.987.788-5.768 1.407-8.865 1.515.06.484.156.967.236 1.448 1.82-.18 3.65.126 5.476.087-1.742.486-3.467.58-5.261.692.354 1.675.723 3.332 1.342 4.933 2.174-1.106 5.373-4.412 7.39-6.16q3.934-3.4 7.691-6.992 3.758-3.593 7.33-7.37t6.95-7.73q3.377-3.952 6.55-8.07c4.438-5.699 8.421-11.732 12.932-17.37 6.895-8.618 14.171-16.61 20.397-25.784 1.918-2.826 3.859-5.663 5.24-8.799-1.529-4-3.365-11.897-2.155-15.92.383-1.275 1.211-2.51 2.413-3.138a3.6 3.6 0 0 1 1.853-.421c2.078.087 6.29 1.507 8.385 2.201 1.1-1.85 1.882-4.018 2.694-6.007 1.25-3.062 2.517-6.161 3.562-9.3 1.083-3.251 4.462-16.172 6.337-18.23.975-1.071 3.753-.575 5.132-.967 1.466-.418 3.683-1.733 4.799-2.783l.149-.146c.578-.56.99-1.257 1.425-1.928a67 67 0 0 0 7.271 2.343c.88-1.79 1.757-2.957 3.572-3.836.957.7 1.75 1.552 2.755 2.214 1.17-.25 2.251-1.1 3.328-1.63 1.566.394 2.625.335 4.189-.02.62.78 1.165 1.664 1.51 2.6 3.063 8.287 5.302 16.895 8.11 25.27q1.672 4.87 3.555 9.664c1.21 3.147 2.806 6.423 3.059 9.818-.386-.718-.731-1.464-1.093-2.195l-.948.957c-1.15-1.475-1.794-3.667-2.478-5.405q-2.573-6.366-4.578-12.934c-1.354-4.409-2.51-8.891-3.847-13.311q.08.742.116 1.487c.042.947.25 4.08-.355 4.74-1.265-.861-1.275-13.403-2.77-15.106-.147-.168-.183-.124-.39-.141-.121.293.537 13.538.672 14.958.134 1.403.425 2.743.645 4.128zm55.678 6.07c-.13.426-.128.592-.03 1.037.067.308.085.407-.024.688-.294.2-.528.364-.62.734-.113.452.041.924.037 1.378l-.067-.158c-.22-.533-.168-1.148-.608-1.563l-.126.171c.057.371.383 1.36.224 1.61l-.318-.226c-.062-.381-.075-.986-.274-1.306-.127.51-.146.971.131 1.442.114.193.284.315.457.45l.276.036c.123-.154.222-.276.305-.456.553-.528.799-1.408 1.031-2.117q-.19-.862-.394-1.72l.118-.123zM55 47.874l-.105.124zc.214-.084.11-.014.275-.253-.141.03-.186.144-.275.253m.87.005a5 5 0 0 0-.5.255c-.2.119-.115.078-.342.111-.29.041-.567.17-.751.408-.108.139-.056.118-.016.335l.187.123.118-.373c.2.005.133-.033.23.047l-.016.196a4 4 0 0 1-.12.633l.08.136c.243-.564.396-.929.86-1.356.178-.164.207-.29.27-.515l.18-.003zm153.564 2.285-.184.056zl.19-.164zM46.5 50.5c-.131.285-.242.353-.152.664.305-.022.446-.098.7-.264l.003-.428c-.18.083-.25.151-.39.289l-.13-.068zl.072-.21zm163.639 1.126.054.188.248.092.109.243.146-.052-.008-.105-.247-.086-.248-.092zm-163.55.237c-.48.316-.723.611-1.02 1.096.519-.25.74-.61 1.02-1.096l.167-.037.016-.203-.099.036zm10.662.667.056.075c.25.292.476.293.693.52l-.126.138.126-.138.092-.309c-.236-.265-.444-.191-.785-.21zm-10.71-.152c-.064.288-.155.42-.017.693l.302-.066c.202-.003.356-.054.549-.109.391-.316.522-.668.718-1.122-.498.076-.876.882-1.267 1.231.07-.28.114-.548.153-.833l-.13-.05zm163.609.498.098.133a6 6 0 0 0-.137.643l.218.029.127-.165-.208-.508zm-151.744.739-.025.142c.213.268.606.321.923.414l.07.05-.07-.05c-.046-.054-.087-.113-.138-.163-.207-.204-.475-.394-.76-.393m157.217 2.14c.095.283.08.465.356.61l.536-.248c.044.104.116.2.176.295.284-.05.422-.077.69.069q.09.05.178.104l.327-.117-.103-.464c-.253-.276-.301-.351-.654-.457-.375.156-.397.242-.614.57.042-.246.04-.344-.067-.572-.35-.057-.51.073-.826.21m-165.997.65.084.041c.262.346.44.468.874.529-.13-.177-.242-.331-.411-.473-.169-.14-.257-.075-.464-.056zm1.95-.02c-.073.549-.09.98.16 1.489l.312.24c-.07-.596-.328-1.148-.472-1.728l.171-.1zm153.549.115c-.276.028-.243-.011-.471.188-.237.207-.543.34-.82.485l.05.184.274-.013c.526.02 1.131.106 1.637-.055l.05-.183c-.309-.249-.45.038-.704-.34zl.093-.124zm-154.54.005.04.478c.216.376.418.494.797.693l.078.043-.078-.043c-.224-.46-.493-.794-.836-1.171m-6.959 3.851.126.144c.08.312-.007.188.273.367l-.004-.13-.269-.237zm-3.414-.346c-.004.043-.015.084-.012.127.023.34.238.456.468.675l.06.063-.06-.063c-.097-.341-.168-.593-.456-.802m2.538.87.12.127.166.172.06.07-.06-.07-.166-.172zm169.892.457-.174.212c.457-.013.645-.117 1.025-.346l.128.176c.66-.211 1.263-.35 1.75-.87.034-.306.011-.298-.169-.555l-.164.146-.235.079-.027-.05c-.214.096-.117.016-.243.284l.213.136-.258.153a3 3 0 0 1-.406-.409l-.124-.157c-.039.215-.058.423-.177.611-.097.152-.196.3-.288.456-.03-.201-.07-.401-.107-.601l-.133-.09c-.242.248-.42.537-.61.825m-168.114-.064.068.043q.26.67.53 1.334l.175.047c.02-.08.032-.112.023-.204-.042-.452-.429-.866-.728-1.177zm-.625.245.049.06c.04.256.11.49.183.738.277.334.53.381.929.483-.349-.445-.69-.845-1.112-1.221zm152.455 2.499c.028.322.216.475.426.696l.123.052.068.11-.069-.11-.122-.052c-.057-.199-.129-.395-.194-.592zm-3.221.574q.002.011.007.021c.164.259.506.335.778.436l.077.05-.077-.05a3 3 0 0 0-.458-.495zm2.026-.442.013.084c.334.484.972.842 1.503 1.083l.07.044-.07-.044c-.332-.428-.802-.723-1.157-1.132l-.101-.119zm-162.788.977.067.131c.066.183.13.365.222.538.77 1.448 2.592 2.039 4.063 2.474-1.4-1.257-2.885-1.41-4.285-3.012zm191.59.314-.064.184zl.142-.066zm-23.502.197.162.238c.118.283.195.39.447.565l.073.082.13.156.07.072-.07-.072-.13-.156-.073-.082c-.103-.268-.232-.38-.447-.565zm22.458.377c-.476.744-1.228 1.668-1.594 2.419l-.054.045.054-.045c.216-.079.194-.059.389-.174.743-.44 1.042-1.459 1.204-2.245l.061-.138zm-29.097-1.63c.856 1.072 2.066 1.822 3.353 2.292l.052.052-.052-.052c-.094-.136-.192-.29-.318-.402-.353-.313-2.18-1.736-2.503-1.874-.097-.043-.412-.012-.532-.016m9.206 2.742.065.18.133.069-.133-.068zm-1.132.267.045.055c.069.125.052.1.138.231.4.609.698.887 1.419 1.038-.45-.515-.935-.973-1.557-1.27zM53.75 68l-.234.161zl.124-.116zm176.126 2.257.124.243.174.316.096.086.149.316.118.22c.066.101.132.224.213.312l.169.309.059.066-.059-.066-.169-.309c-.052-.108-.143-.213-.213-.311l-.118-.221-.15-.316-.095-.086L230 70.5zm-5.968 6.008c-.144.304-.263.48-.242.826l.194-.09q.029-.368.048-.736l.065-.14zM50.145 78.133l.058.16.252.097.04.088-.04-.088-.252-.097zm157.05.139c-.546.617-1.644 1.628-1.766 2.408.926-.732 1.432-1.243 1.766-2.409l.044-.145zm-170.306.382.11.101.087.074c.434.563 1.051 1.035 1.547 1.55a20.6 20.6 0 0 1 2.874 3.736c-1.846-1.471-3.657-3.683-5.491-5.361.435.718.877 1.393 1.403 2.048 1.752 1.995 3.299 3.293 5.66 4.537-1.714-2.088-3.407-5.376-5.993-6.51L37 78.755zm14.262.722.052.186.239.244.072.102.151.29.105.082.155.3.052.021.065.153c.15.36.28.617.212 1.016l-.18.121c-.95-.315-1.305-1.56-2.105-1.856.36 1.03 2.075 1.942 2.242 2.487.043.143-.025.297-.037.446l.172.053c.257-.237.299-.282.4-.615q-.043-.05-.085-.104a1.3 1.3 0 0 1-.2-.382l.117-.102.76.344.054.117.148.132.117.123.059.056q.015.05.035.097c.146.328.397.67.741.793l-.002-.096c-.194-.356-.462-.55-.774-.794l-.06-.056-.115-.123-.15-.132-.053-.117c-.342-.576-.826-1.156-1.36-1.56l-.053-.022-.154-.3-.105-.082-.152-.29-.072-.102-.239-.244zm154.359.386-.17.171-.055.056-.09.065c-.505.373-1.024 1.279-1.575 1.458-.088-.277-.024-.371.041-.647l.16-.127.123-.41.175-.062-.175.063-.123.409-.16.127-1.476 1.89c.696-.5 1.498-.839 2.183-1.344.568-.42.81-.72.917-1.421l.055-.056zl.12-.13zM86.196 81.794l-.05.052zc2.02-.548 4.201-2.212 5.722-3.627l-.905-1.674c-.133-.262-.239-.446-.453-.648-.818.966-1.378 2.165-2.137 3.183-.704.943-1.618 1.758-2.227 2.766m-55.79 2.582.064.184.13.064-.13-.064zm.221.374.159.124c-.706 1.778.132 1.438.06 2.699-.034.585-.276 1.159-.286 1.744-.01.57.24 1.046.616 1.45l.137-.33c-.093-.296-.21-.622-.253-.931-.032-.224-.243-3.675-.228-3.825a2.4 2.4 0 0 0-.046-.807zM30 87.25l-.178.496-.072.129.072-.13zc.153-.115.126-.155.17-.334-.099.087-.123.214-.17.334m194.93.43-.07.268-.148.239-.058.062.058-.062.147-.239zl.193-.17zm-.387.754c-.358.36-.484.697-.589 1.189.337-.385.475-.695.59-1.189l.06-.058zm11.257 6.237c-.594-1.047-1.046-1.98-.95-3.218l.137-.116.465.338c-.33-.791-.622-1.295-.407-2.168.272-.197.257-.187.592-.148l.112.117-.112-.117c-.188-.313-.224-.465-.561-.62-.621.55-.64 2.263-.692 3.06-.075 1.148.569 1.715.426 2.605-.296 1.845 1.1 3.251.667 5.525.446-.391.57-1.162.7-1.715l.032.03c-.33-.903-1.38-3.108-1.024-3.971q.085.07.172.134c.136.097.302.18.444.264l.064.048zm-101.91-2.049-.123.127zc.42-.063 1.156-.243 1.522 0-.222.505-1.427 1.523-1.862 2.037 1.54.46 3.136.772 4.69 1.192 4.648 1.254 14.17 3.918 17.867 6.853-1.806-.454-3.577-1.332-5.336-1.964-1.931-.694-3.92-1.257-5.883-1.854-3.898-1.186-8.031-2.635-12.14-2.625.477.564.849 1.154 1.23 1.782-.27-.202-.537-.394-.823-.575.052.34 2.149 2.6 2.562 3.097-1.498-.692-3.165-.909-4.696-1.55.237 1.302 1.169 4.19.748 5.371l-.158.04c-.323-.323-.437-.701-.61-1.117-.737-1.775-1.456-2.668-3.06-3.708.047 1.36.093 2.715.069 4.077-.279-.718-.536-1.49-.937-2.15-.229-.377-.426-.62-.87-.722-.765.993-1.334 8.086-1.352 9.526-.033 2.53.212 5.046.105 7.577-1.148-2.33-.99-5.599-1.27-8.177-.337-3.116-.673-6.295-1.546-9.312-.275.157-.54.331-.805.503-.325.21-.522.337-.918.396l-.198-.214c.095-.963.553-1.926.662-2.925-.267-.133-.569.146-.879.206-.197-.493-.047-1.171.001-1.695l-.108.037-.178.066c-1.62.586-2.965 1.834-4.375 2.796.71-1.596 1.563-3.049 2.484-4.528q-3.112.527-6.215 1.11c1.114-.92 2.45-1.604 3.72-2.284-1.196-.416-2.49-.697-3.618-1.275l-.02-.136c.594-.252 1.518-.26 2.158-.24a18 18 0 0 1 1.972-1.221c-5.245-2.533-10.467-3.58-16.275-2.996-1.35.135-2.681.524-4.011.783-3.325.647-5.818.57-8.134 3.424-2.205 2.716-3.5 7.011-3.136 10.495.365 3.484 2.148 7.093 4.886 9.311 6.426 5.207 11.736 2.096 17.25-2.665q2.82-2.418 5.533-4.954c.588-.548 1.626-1.838 2.448-1.92l.122.201c-.091.773-.557 1.594-.876 2.301-.246.547-.426 1.118-.704 1.65-1.725 3.303-4.105 6.493-5.39 10-.367 1-.502 2.186-.01 3.171.26.516.731.894 1.202 1.209 1.284.859 2.829 1.42 4.232 2.065 1.807.83 3.549 1.743 5.426 2.41 3.503 1.273 7.756 2.46 11.455 1.467q.227-.063.45-.137.225-.073.444-.158.22-.084.436-.18.215-.094.426-.2.21-.105.416-.22.205-.116.404-.241.2-.126.393-.26.193-.135.38-.28.186-.143.365-.296t.35-.315q.172-.161.335-.33.164-.17.319-.348t.301-.362.283-.376.265-.39.246-.401c2.823-4.95.626-12.762-.797-17.918 1.33 1.05 2.306 2.406 3.426 3.663 2.187 2.456 6.472 7.255 9.649 8.004 2.157.508 4.162.188 6.053-.981 3.228-1.996 8.56-8.618 9.349-12.332.39-1.837-.273-3.63-1.279-5.149-3.89-5.873-11.424-5.508-17.61-6.11-1.168-.114-2.32-.349-3.47-.579 2.823-.755 6.039-.866 8.626-2.298 1.743-.965 3.439-2.362 4.947-3.669 2.039-1.766 9.469-8.811 10.01-11.003.701-2.834-1.795-4.011-2.17-6.216-.155-.904.174-2.998-.185-3.634-.726-.45-6.093-1.313-7.164-1.445-3.587-.44-6.81.754-9.622 2.964-2.488 1.956-3.653 3.51-5.657 5.847-1.116 1.302-2.287 2.544-3.236 3.978-1.077 1.629-1.921 3.404-3.016 5.023-2.034 3.007-3.942 4.292-5.264 7.9-.385 1.052-.714 2.076-.852 3.19l.073-.075c1.032-1.018 1.805-2.279 2.662-3.443 1.89-2.567 4.244-5.459 6.942-7.174-.963 1.455-2.218 2.718-3.349 4.044-1.04 1.22-2.01 2.505-2.99 3.775 2.077-1.657 3.852-3.695 5.91-5.389-.55.838-.96 2.429-1.949 2.767q-.116.037-.231.07l-.008.12c.343.234.7.349 1.11.42 1.115.195 5.031-3.233 6.184-4.005-2.69 3.429-6.898 5.28-9.434 8.949 1.307-.238 2.626-.137 3.953-.385-.823.373-1.598.78-2.375 1.239m42.533 9.364c-1.464-2.188-2.72-4.59-4.037-6.87-2.392-4.14-4.802-8.198-7.547-12.115.476 2.157.931 4.345 1.582 6.457 1.814 5.892 5.33 13.618 8.166 19.147 3.179.272 6.248.838 9.368 1.487 1.373.286 5.905 1.652 6.75 1.595l.032-.175c-.855-1.267-1.874-2.439-2.831-3.63q-2.51-3.083-4.917-6.246c-2.439-3.225-4.48-6.565-6.572-10.02-.887-1.466-1.838-2.894-2.697-4.377.485 1.404 1.059 2.794 1.485 4.216-2.23-2.435-4.154-5.72-6.791-7.644 2.174 5.01 4.992 9.623 6.91 14.757.407 1.092.904 2.267 1.099 3.418m28.789 49.78c1.555 2.158 2.52 4.9 2.73 7.547.11 1.398.12 2.823.366 4.205 1.069-2.65.962-5.43.839-8.237 1.127 3.391 1.728 6.75 1.888 10.317 1.145-2.684 2.238-9.235 1.114-11.951-.862-2.084-3.811-6.391-3.163-8.665.231-.255.349-.381.707-.412 2.038-.18 7.583 5.09 9.19 6.67 1.791 1.761 3.52 3.786 5.593 5.21-1.493-2.62-3.47-4.94-5.354-7.283-2.79-3.469-5.654-6.882-8.323-10.445q-5.596-7.566-11.036-15.246c-2.23-3.131-4.452-6.543-7.01-9.412-3.391 2.556-6.617 5.308-10.01 7.858-2.588 1.946-5.268 3.667-7.925 5.508.517 1.913.979 3.852 1.569 5.743 1.089 3.49 2.418 6.895 3.717 10.31 2.712 7.132 6.525 17.067 12.944 21.564l.055.056-.055-.056c-.392-.959-.997-1.898-1.49-2.812-.891-1.652-1.685-3.301-2.315-5.073 2.213 2.501 4.676 4.378 7.263 6.439-3.54-5.309-6.19-11.072-9.536-16.49-1.208-1.954-2.985-3.481-4.176-5.431 4.765 3.124 6.624 6.32 9.879 10.666l.074.146-.074-.146c-1.168-3.71-4.262-8.709-6.78-11.621 5.658 3.008 9.15 11.152 12.16 16.486-.606-3.637-1.98-7.248-3.131-10.742-1.98-6.004-3.928-12.088-6.384-17.916-.975-2.313-2.143-4.513-3.217-6.778 2.073 1.874 3.638 4.272 5.142 6.608 1.867 2.901 3.684 5.865 5.256 8.938 1.957 3.827 3.632 7.849 5.49 11.733 1.066 2.226 2.435 4.305 3.389 6.589.888 2.125 1.456 4.351 2.253 6.508.023-2.103-.065-4.318-.554-6.371-.31-1.302-.767-2.565-1.055-3.873zm-128.142 8.47-.06.136zc1.523-1.423 4.04-5.424 4.959-7.297 1.263-2.576 1.98-5.417 2.998-8.095.845-2.22 1.923-4.354 2.75-6.577.424-1.142.656-2.352 1.037-3.51.396-1.205.893-2.378 1.165-3.62-1.182-.214-2.43-.138-3.628-.129-1.729 6.285-3.11 12.595-5.186 18.79q-.976 2.94-2.19 5.79c-.647 1.51-1.475 3.064-1.904 4.648m115.806 11.417.191.048.242.237.051.037c.699.842 1.61 1.344 2.258 2.288-1.908-.094-3.84-.031-5.751-.028l-10.08.003c-2.502-.003-5.2.088-7.673-.301-1.715-.27-.83-1.297-1.58-2.108-.593-.639-1.648-.46-2.436-.444q1.838 1.699 3.73 3.339c-4.222.438-8.524.439-12.764.422-2.284-.01-4.684.072-6.946-.24-.79-.108-1.546-.377-2.299-.631.315-.575.932-1.08 1.077-1.719.053-.234-.011-.235-.133-.417-.94-.357-2.779-.3-3.758-.14-.48.078-.746.213-1.032.606-.031.299-.005.485.159.746.475.755 1.76 1.682 2.627 1.879.336.077.167.002.456.19-.028.022-.054.048-.085.066-.696.401-12.766 1.063-13.64.91-.564-.099-.966-.284-1.3-.753-.181-.988 1.241-2.545 1.625-3.565l.054-.146c-2.998.713-5.589 2.474-8.524 3.272-1.396.38-11.282-.453-13.161-.7a9.4 9.4 0 0 1-1.748-.416c1.636-.372 3.214-1.04 4.775-1.647-1.687.022-3.373.344-5.049.527-3.992.437-8.137.908-12.148.713.744-.628 1.737-1.308 2.318-2.077.181-.24.193-.281.156-.564-.702-.446-4.49-.481-5.453-.388l-.126.154c.412 1.45 3.181 3.128 3.633 4.528.107.332.071.392-.08.677-.296.221-.511.3-.88.34-3.132.343-14.49.811-17.158.102-1.31-.349-2.908-1.537-3.953-2.386.823-.499 5.09-2.724 5.348-3.18-.184-.244-.253-.256-.539-.339-.737-.215-1.55-.276-2.308-.423-1.162-.226-2.295-.544-3.433-.867-.491.226-.973.477-1.458.716 1.974.225 3.94.844 5.877 1.293-2.293 1.483-3.258 1.686-5.928 1.564.19.57.302 1.154.424 1.741-.866.385-1.766.605-2.698.76-1.599-.895-2.401-2.436-3.88-3.399-.912-.593-1.977-.933-3.058-.66-.764.194-1.763.687-2.138 1.424-.44.866-.076 1.821.175 2.683-3.241.05-6.49-.123-9.728-.237-1.714-.06-3.472-.195-5.183-.054 3.415-1.164 4.648-1.833 7.01-4.535-2.474.747-4.775 2.724-6.843 3.256-1.587.409-8.433.024-10.386-.009-2.62-.044-5.284.072-7.893-.129l-.07-.149q.114-.14.223-.285c.218-.304.188-.445.123-.79a1.2 1.2 0 0 0-.363-.347c-.468-.27-1.191-.395-1.727-.344-1.02.097-1.779.953-2.778 1.175-1.153.257-2.423.177-3.601.277-1.201.102-2.33.433-3.48.77 1.07-1.627 2.592-2.657 4.098-3.848-1.404.167-4.373.381-5.437 1.157l.322.881a122 122 0 0 0 5.745 12.076c1.04 1.906 2.256 3.708 3.265 5.633 3.886.004 7.803-.381 11.68-.652q8.578-.577 17.164-1.036 35.103-1.87 70.254-2.21 32.539-.022 65.049 1.321 11.468.621 22.93 1.37c4.283.27 8.603.628 12.893.722 3.373-5.537 6.515-11.39 8.775-17.483-2.238.257-7.305 1.152-9.385.643-.596-.146-1.273-.647-1.83-.933-2.294-1.178-3.846-1.191-6.361-1.167 1.66 1.427 4.014 2.745 6.051 3.517-2.044.024-4.08.323-6.123.386-1.86.057-3.745-.115-5.6.036-1.365.11-2.713.417-4.078.554-1.59.161-3.172.107-4.765.054 1.322-.763 2.411-1.703 3.532-2.728-1.94-.042-3.874-.142-5.815-.15.867 1.075 1.543 2.172 2.222 3.376-2.74-.224-5.541-.768-8.057-1.917-1.024-.468-2.043-1.192-3.105-1.536l-.223-.07-.051-.037-.242-.237zM134.43 16.558c-.556.714-1.042 1.503-1.65 2.17q1.032.13 2.067.23a8 8 0 0 0 .994-.48c.099-.264.13-.315.016-.592-.19-.464-1.005-1.076-1.427-1.328m6.662.429c-3.179 2.342-6.498 4.507-10.63 3.857-2.007-.315-4.05-1.31-5.914-2.109-3.68 3.843-2.827 3.044-7.698 4.342l1.335 1.706c.48.49.8.517 1.472.532 2.456.055 5.017-.693 7.472-.904 1.489-1.26 2.886-2.203 4.908-2.027.83.073 1.742.315 2.571.251 2.354-.18 6.374-2.284 8.146-3.754.38-.315.656-.607.715-1.112-.137-.302-.218-.447-.531-.588-.488-.22-1.31-.17-1.846-.194m-26.761 6.98c-1.72 5.414-3.65 10.053-5.712 15.292-1.308 3.322-2.514 6.682-3.812 10.008q-.951 2.43-1.94 4.844c-.165.394-.508.842-.628 1.23-.043.14-.027.206-.016.337.194.345.514.463.852.635l.296.036c.384-.425.595-1.101.889-1.608.663-1.148 1.385-2.28 1.972-3.47 2.976-6.034 4.9-12.83 6.766-19.277.627-2.17 1.5-4.435 1.73-6.687q.01-.093.022-.185a1.3 1.3 0 0 0-.341-1.08c-.024-.028-.052-.05-.078-.075m16.335.151c-.634.33-1.13.667-1.669 1.142.372 4.032.683 7.837.064 11.875-.09.588-.147 1.51-.508 1.995-.027.036-.06.068-.091.101-.219-.119-.147-.033-.23-.302-.26-.838-.193-1.855-.284-2.731-.275-2.66-.635-5.281-.833-7.953-.89 3.981-.623 8.94-2.942 12.41-.161-3.755-.043-7.554-.07-11.315-.6.016-1.171.035-1.767-.072-.126 1.229-.159 2.485-.326 3.706-.56 4.074-1.541 8.265-3.008 12.113-.283.743-.658 1.448-.959 2.184-.343.841-.52 1.986-1.02 2.721-.2-.177-.167-.325-.184-.587-.073-1.11.716-3.948.958-5.276.627-3.443.921-6.912 1.274-10.391.18-1.781.655-3.814.36-5.591l-.115-.064c-.645 1.628-.837 5.256-1.674 6.476l-.26.084c-.157-.096-.293-.114-.334-.306-.426-1.99 1.533-5.947.17-7.92l-.188-.019c-.375.553-1.967 7.338-2.41 8.826-1.814 5.833-4.104 11.78-7.247 17.034-.958 1.6-2.063 3.118-3.138 4.64.574.445 1.127.766 1.774 1.09 1.243-2.41 2.578-4.74 3.9-7.105.575-1.028 1.003-2.142 1.646-3.13-.39 2.362-.95 4.734-1.748 6.992-.573 1.62-1.306 3.213-1.808 4.852 2.278 1.688 4.294 3.685 6.307 5.674.295-8.306 1.36-13.357 7.636-19.242 3.82-3.581 5.307-3.513 9.876-5.29-.784-2.505-.98-6.16-.904-8.784.03-1.014.677-7.503.574-7.792-.303-.084-.51-.079-.822-.045m.52 19.023c-4.877 1.284-9.304 3.762-11.916 8.236-3.214 5.506-3.457 14.358-2.646 20.559.303 2.322.888 4.674 1.495 6.935.722 2.694 2.47 6.734 4.2 8.939-.521-1.345-1.24-2.61-1.733-3.96-.368-1.008-.584-2.087-.867-3.123-.736-2.687-2.576-8.722-1.492-11.224.403-.932 1.194-1.933 2.182-2.278.508-.178 1.137-.211 1.617.068.333.193.537.529.612.898.086.413-.113.748-.34 1.072l-.091.123.045-.041c-.19 1.48-.462 2.927-.472 4.427-.018 2.9.973 11.935 2.79 14.24.122.155.108.139.221.198-.123-2.91-3.065-16.822-1.551-18.215.378-.348.764-.427.967-.954.07-.182.147-.36.216-.542l.118.08.038.22a5.7 5.7 0 0 0 .678 1.905c-.935 4.584-1.524 9.278-.452 13.904.136.587.25 1.426.525 1.956.229-1.786-.084-3.802-.13-5.614-.057-2.284.05-4.686.248-6.963.056-.657.097-1.678.459-2.24.109-.168 1.129-1.199 1.135-1.255.014-.147-.156-.251-.233-.377l-.18-.093.065.455c-.444-.242-.737-.993-.9-1.466.023-.18-.008-.25.145-.378.279-.233.682-.247 1.031-.277.478.182.823.318 1.033.83 1.006 2.444-.622 9.24-.981 12.081 1.674-3.772 1.471-5.231 1.893-9.08.066-.602.447-1.525.252-2.084-.212-.608-.653-.848-.337-1.545a1.84 1.84 0 0 1 1.08-.994q.087-.03.177-.05t.182-.032.184-.015.185.004.183.022.18.041.175.058q.087.034.17.075c.422.215.712.573.835 1.03.37 1.374-1.483 5.193-2.034 6.682-1.439 3.889-5.942 15.794-5.759 19.491.029.589.2 1.143.717 1.468.317-.01.494-.041.725-.281.812-.84.73-4.523 1.09-5.903 1.071-4.111 2.291-8.315 3.686-12.33.606-1.747 1.417-3.44 1.996-5.188.273-.82.466-2.913 1.101-3.405.138-.107.267-.075.432-.081.718.318 1.085.886 1.53 1.503-1.094 2.318-2.595 4.397-3.765 6.673-1.12 2.178-1.75 4.455-2.427 6.795 3.272-3.61 4.482-5.631 6.352-10.114.437-1.045.771-2.147 1.243-3.175.525-1.145 1.3-2.058 1.643-3.298.85-3.07 1.101-6.757.957-9.941-.17-3.783-1.476-10.879-4.378-13.507-1.082-.98-2.407-1.086-3.794-.974q-.156.012-.31.029m71.395 2.477.105.07zm-149.013.444h.114zm.728.027c-.32.412-.456.624-.378 1.174.024.17.06.341.095.51.179.08.096.081.245.035l-.006-.163c-.026-.487.009.04-.05-.377-.048-.34.082-.739.215-1.05-.039-.044-.074-.094-.12-.13m.979.243c-.274.25-.468.359-.572.72l.095.086.612-.59c-.088-.191-.03-.129-.135-.216m146.069.197.132.1zm-145.677.39-.014.314.126-.014.037-.323zm145.206-.22.099.813c.157.096.088.1.191.077.01-.316.056-.528-.162-.79-.035-.041-.085-.067-.128-.1m-144.817 1.51c-.17.194-.273.352-.374.585a3.9 3.9 0 0 1-.948 1.292c-.01.091-.04.185-.019.274.765-.528 1.084-.986 1.395-1.856zm143.357.411.115.068zm-7.865.84c-.218.28-.828.88-.8 1.207.342-.284.715-.522.865-.958zM45.566 50.54l.085.102-.06-.108zm163.29-.102H209zm.727.229.112.179h.123l-.092-.209zm-162.19.146c-.119.443-.206.706.03 1.131.069-.412.162-.738-.03-1.131m142.02.124h.109zm-143.849.265-.067.28.128.087.121-.296zm162.808-.082.078.038zm-20.374-.052-.081 1.031.148-.014c.133-.221.186-.201.123-.47a2.7 2.7 0 0 0-.19-.547m19.812.873c-.083.303-.144.449.016.75.046.087.143.177.212.247a16 16 0 0 1-.104-.95zm-20.382-.113-.232.512.145.142.167-.17c-.016-.171-.026-.32-.08-.484m10.72.234h.106zm-11.374.126h.103zm21.823.041c-.123.27-.243.522-.3.816.083.044.162.101.253.124.219-.265.257-.285.279-.623-.07-.109-.132-.234-.232-.317m-21.98.328-.083.204.133.042.053-.194zm11.454-.074c-.267.287-.567.707-.937.828l-.189-.266c-.348.111-.631.471-.929.689-.281.206-.441.463-.623.756.324.092.881-.308 1.187-.48.594-.334 1.332-.751 1.602-1.4zm11.298-.051c-.099.35-.171.713.02 1.053.087.157.12.18.232.297l.24.008c-.242-.43-.249-.947-.492-1.358m-23.852.379.028.118zm.462.248-.098.078.136-.009.102-.085zm22.85.139-.042.14.067.016.056-.134zm-23.414.114h.146zm-147.687.35c-.118.23-.275.389-.203.645l-.013-.195-.093.25.455-.179c.146.212.1.089.113.38l.121.107c.192-.256.116-.286.073-.588-.144-.2-.23-.311-.453-.42m53.484.504c-1.127.461-1.928 1.144-2.4 2.288-1.55 3.761.907 12.555 2.477 16.093 2.327 5.242 7.317 11.179 12.796 13.238 1.252.47 2.567.738 3.842 1.133 3.132.973 6.304 1.963 9.39 3.072-1.27-2.073-3.022-3.809-4.608-5.638-.956-1.102-1.835-2.278-2.72-3.437-.688-.903-1.451-1.82-1.896-2.871.777.461 1.597.938 2.241 1.58l8.31 8.084c1.252 1.218 2.397 2.574 3.75 3.68-1.268-3.483-3.559-6.57-4.847-10.081-1.196-3.261-1.484-6.715-2.556-9.976-.378-1.15-1.222-2.21-1.89-3.213-3.386-5.092-6.928-8.137-12.471-10.716-1.496-.697-7.022-3.08-8.349-3.289-.34-.053-.73.014-1.07.053m128.126 1.011a24 24 0 0 0-.096 2.34c.916.44 1.855.791 2.808 1.142-.825-1.198-1.552-2.577-2.712-3.482m-183.093.388c-.985 1.07-1.752 2.034-2.426 3.32.652-.432 1.301-.904 1.98-1.293.699-.367 2.335-1.013 2.623-1.724l-.095-.141c-.95.264-1.165.267-2.082-.162m12.75.455.129.216c.258.006.163.033.294-.015l-.26-.241zm158.003-.178c-.34.363-.722.691-.864 1.18l.115.184c.731.074 1.443-.325 2.09-.628l.014-.24c-.602-.062-1.044.608-1.668.583.034-.368.234-.57.441-.865zm8.284.471-.146.167.197-.063.118-.151zM52.886 57.454l.048.564c-.2.112-.274.159-.508.175l.311-.062.005.243.83.512.312.03c-.23-.492-.61-1.08-.998-1.462m163.446 2.076c-.266.187-.344.16-.674.164-.025.286.025.41.114.678.282-.228.565-.427.756-.742l-.083-.12zm-175.342.423c.067.378.097.933.336 1.232l.146.078c-.019-.462-.037-.887-.389-1.234-.028-.028-.062-.05-.093-.076m1.17.234h.101zm170.411.681.115.07zm-170.894.075c.015.324-.047.506.235.716.116.085.358.157.484.205-.2-.38-.332-.698-.72-.921m169.945.01c-.123.284-.332.546-.218.84.391-.018.74-.123 1.114-.228-.075-.288-.036-.395-.287-.573l-.366.384-.165-.063zm-168.394.55c-.032.032-.064.067-.099.097-.17.147-.337.202-.544.279.312.208.644.367.98.532l.234-.075c-.06-.35-.269-.557-.49-.82zm18.033 2.412c-2.27.319-4.513 1.439-6.49 2.57 1.018-.199 1.97-.637 2.937-1.004 1.836-.698 3.665-.915 5.62-.861-1.503.277-3.002.858-4.436 1.382-1.083.389-3.132.846-3.91 1.686l.088.117c1.103-.285 2.167-.72 3.253-1.065 2.4-.763 4.96-1.331 7.003-2.89-1.345-.035-2.729-.116-4.065.065m135.936-.114.067.1c.678.985 2.603 2.507 2.899 3.532-.359.08-.568.01-.875-.193-.854-.569-1.606-1.525-2.323-2.26.427.779.976 1.45 1.528 2.142 1.203.765 2.764 1.025 4.119 1.436-2.184-1.012-4.542-4.537-5.415-4.757m-163.208.91c.576 1.488 1.205 1.786 2.498 2.626.343.222.688.554 1.042.739.166.087.218.091.38.13-.015-.15.017-.103-.041-.168-.59-.623-1.006-1.15-1.848-1.403-1.177-.355-1.147-1.427-2.031-1.924m192.824.88c-2.74 4.98-7.079 5.339-11.085 8.264 1.88.915 3.786 1.786 5.589 2.848.62-1.233 1.398-2.352 2.77-2.82 1.526-.522 3.285-.157 4.88-.485-.337.724-.664 1.454-1.027 2.164a20 20 0 0 1-1.263 2.342q1.115.266 2.21.604 1.096.338 2.167.746 1.072.408 2.114.885 1.043.477 2.052 1.021c-.719-1.742-2.604-6.26-3.568-7.538q-.016.065-.037.132c-.067.192-.153.27-.298.405-.412.037-.635-.036-.958-.303-1.252-1.037-3.392-4.444-3.491-6.06a22 22 0 0 1-.017-1.832c.005-.223.008-.135-.038-.374m-23.897 1.347h.097zm-148.564.809.086.037zm66.818-.177c-1.005.914-2.064 1.7-2.646 2.956.16 2.022 1.92 11.487 3.046 12.646.046.047.104.08.156.12-.582-2.927-3.103-10.87-1.655-13.177.517-.825 1.725-.955 2.027-1.96-.035-.179-.007-.261-.166-.377-.23-.166-.486-.184-.762-.208m9.514.268c-.293.794-.674 1.652-.72 2.5l.12.216c.221.005.336-.011.534-.11.502-.499 1.027-.945 1.099-1.693-.115-.323-.183-.526-.494-.705-.162-.093-.362-.15-.539-.208m73.127.43c.16.325.206.318.545.443.174.064.11.046.31.04l-.12-.24zm-176.65.325c-.254.485-.927 1.45-.793 1.983.39-.242.524-.357.65-.81.1-.357.203-.812.142-1.174m102.71.333.037.075zm35.222 3.016c.149 1.43.145 2.37-.442 3.716 1.244 1.547 2.617 2.916 4.42 3.802l.218-.063c-.038-.269-.13-.456-.26-.69-.753-1.35-1.66-2.597-2.39-3.97-.405-.76-.925-2.25-1.546-2.794M31.287 74.944c.54.76.925 1.513 1.199 2.409.184.135.085.111.29.096.097-.683-.07-1.171-.506-1.713-.278-.347-.562-.638-.983-.792m-1.106.245h.117zm196.034.042a17 17 0 0 0-1.394 1.572c-.054-.292-.037-.152-.058-.417l-.123.061-.038.127c-.097.313-.16.535-.402.772.559.03.877-.244 1.272-.607.424-.391.742-.778.859-1.35zm-195.82.462c.199.433.367.945.776 1.22-.19-.516-.306-.901-.776-1.22m191.9.266c-.169.31-.416.639-.325 1.006.013.055.032.107.048.16.196-.39.41-.717.278-1.166m2.513.164.077.066zm-194.81 1.76c-3.114.947-9.535 4.471-11.031 7.328-.458.874-1.298 2.483-1.243 3.475l.148.012.409-.385c4.265-4.014 7.526-7.049 12.777-9.796-.336-.237-.662-.512-1.06-.633m195.788.68-.19.363c.322.53 1.54.923 2.103 1.294 2.403 1.584 4.893 3.178 7.097 5.03 1.244 1.046 2.248 2.268 3.185 3.59l.1-.15c-.639-3.053-.99-4.15-3.676-5.906-2.034-1.33-6.29-4.095-8.62-4.222m-6.746.278c-.278.237-1.085 1.09-1.41 1.07l-.074-.328c-.469.35-.362 1.032-.76 1.32-.487.35-.922.74-1.286 1.22a7 7 0 0 1-.325-.413l-.226.089c-.074.261-.106.51-.134.78l-.262.287-.161-.013q-.026-.256-.047-.512l-.267.335-.606 1.227c1.249-.777 5.513-3.641 5.851-4.937-.231-.121-.13-.092-.293-.125m-3.896 2.472h.106zM29.385 82.565c.248.58.464 1.386 1.015 1.734-.211-.685-.386-1.324-1.015-1.734m196.689.156c-.544.6-.889 1.2-1.188 1.95.575 1.109.35 2.578.668 3.81l.095.02.152-.233-.004-.12c-.035-.633-.394-1.184-.4-1.778.216-.116.263-.086.499-.076-.188-.421-.805-1.507-.611-1.94.241-.54.698-.88.912-1.465zm-63.828 1.102c.115 3.642.851 7.194 1.708 10.724.431 1.775.941 3.559 1.242 5.361.281 1.686-.177 3.351.215 5.04.307 1.324.863 2.65 1.519 3.837l3.406-.212c.17-.234.155-.238.106-.512-.277-1.564-1.119-3.227-1.583-4.77-.9-2.987-1.532-6.057-2.46-9.033-.759-2.43-1.8-4.783-2.705-7.161-.323-.849-.77-2.717-1.448-3.275m63.516.733.094.26.108.017-.055-.26zm-66.073 1.42c-.704 1.659-1.228 3.455-1.696 5.195.684.504 1.389.995 2.029 1.555.36.32.714.647 1.087.95-.208-1.197-1.1-7.21-1.42-7.7m-1.372.5c-.835.971-2.365 2.464-2.49 3.779.185.242.072.16.327.263.39.115.783.225 1.172.348.247-1.054 1.151-3.433.991-4.39m-23.14.557-.38.515.108.17.215.049c.201-.184.466-.33.504-.604a1.3 1.3 0 0 0-.446-.13m-105.502 1.03h.087zm125.78.818c-.422.197-1.005.378-1.263.78.035.318.061.279.268.494.46-.08.6-.138.856-.547.105-.17.173-.376.242-.564zm-133.741.219.436.785c.74 1.335.044 2.502.249 3.835.087.568.358 1.159.566 1.694-.53.841-1.191 1.916-.997 2.98.01.058.038.113.057.17.401-.767 1.371-2.854 1.112-3.679-.082-.261-.31-.537-.478-.745.256-.884.306-1.533.238-2.443-.058-.777-.202-1.822-.826-2.355-.207-.177-.146-.131-.357-.242m214.202.588h.103zm-218.04 1.907c-.433.35-1.19.798-1.354 1.337.19.295.309.276.635.377.43.08.69.214 1.085.01.254-.624.012-1.025-.219-1.631zm221.186.616c-.49 2.511-.908 4.35-2.53 6.396l1.81-.43c.87-.231 1.671-.497 2.489-.876-.352-.989-1.313-4.566-1.77-5.09m-3.075.946.121.095zm.271 1.393.03.076zm-213.635.742.094.09-.068-.096zm-7.165.261q-.316 1.067-.598 2.142 2.413.337 4.833.624l.141-.054a43 43 0 0 1-.716-1.934c-1.196-.328-2.43-.617-3.66-.778m66.974 2.155c-1.09 1.697-2.177 3.453-3.516 4.967-1.5 1.698-3.391 3.118-5.096 4.606q-3.07 2.736-6.077 5.542c-3.137 2.908-6.387 5.8-9.294 8.938-2.835 3.06-5.39 6.37-8.123 9.52q-2.226 2.54-4.376 5.141c-.651.783-1.401 1.551-1.948 2.41 1.745-1.494 3.495-2.973 5.118-4.6 2.352-2.357 4.53-4.935 6.782-7.391 2.097-2.236 4.183-4.779 6.64-6.62 2.809-2.105 5.983-3.653 8.697-5.912 1.788-1.489 3.393-3.185 4.96-4.901.904-.991 1.783-2.056 2.784-2.951-.798 2.459-1.764 4.974-2.96 7.268-1.527 2.93-3.608 5.439-4.289 8.764 1.739-1.588 4.906-5.013 6.098-7.035 2.032-3.449 4.46-13.401 4.746-17.562zm.121 7.396c-.243 2.678-.64 5.477-1.311 8.083.438-.426.89-.845 1.303-1.297.653-.623 1.426-1.255 1.965-1.977-.319-.814-1.521-4.361-1.957-4.809m81.766 1.235-1.626 2.909c.406.025.821.069 1.229.07.5-.048.764-.022 1.183-.31.193-.397.252-.714.097-1.137-.169-.459-.54-1.188-.883-1.532m6.604 4.936c-4.341 2.973-4.722 4.665-7.46 8.836q1.684-.641 3.384-1.241c1.65-.532 3.346-.884 4.998-1.394.712-1.066 1.068-2.313 1.616-3.465.462-.969 1.104-1.792 1.712-2.67-1.417-.073-2.831-.124-4.25-.066m-3.107.145c-3.048.425-6.557.805-8.528 3.44-.858 1.148-3.504 5.806-3.36 7.198.412.156.885.007 1.303-.08 2.85-.729 4.88-.677 6.503-3.422 1.046-1.769 2.016-3.79 3.484-5.255.726-.724 1.583-1.303 2.299-2.029-.55.046-1.163.04-1.7.148m8.25.077c-1.855 1.713-2.172 3.761-3.417 5.819 1.402-.373 2.777-.901 4.2-1.177.542-.158 1.099-.297 1.627-.496.772-1.27 1.72-2.358 2.613-3.538-1.657-.275-3.342-.553-5.024-.608m6.188.73c-1.19.462-1.944 1.996-2.592 3.028 1.329-.461 2.72-.694 4.08-1.038 1.161-.294 2.293-.693 3.457-.975-2.022 1.332-4.132 1.776-6.377 2.567.812.805 2.905 1.154 4.022 1.133 1.907-.037 3.732-1.648 4.966-2.996q.097-.11.188-.225c-2.517-.65-5.174-1.098-7.744-1.494m-95.375.506c-1.3.744-2.519 1.539-3.677 2.49 2.324-.155 4.29.298 6.442 1.156l1.678.678c.47-.29.938-.59 1.421-.858-1.069-.559-5.142-3.348-5.864-3.466m71.61 1.904c-3.012 2.263-4.752 3.285-8.166 4.884-.504 1.261-1.344 2.799-1.546 4.11l.113.195c2.098-.217 4.096-.86 6.122-1.412.61-1.538 1.099-3.19 1.826-4.672.51-1.041 1.201-1.968 1.724-2.99zm-18.475.646q-.403 2.329-1.028 4.608c-.21.779-1.27 3.448-1.176 4.014.26.116.311.154.596.057.762-.26 1.588-1.39 2.168-1.975 1.538-1.257 2.59-2.895 4.198-4.128-1.277-.722-3.397-2.3-4.758-2.576m-56.476.532c-1.091.014-1.775.737-2.5 1.488q-.902.931-1.687 1.963c2.078-.488 3.506-.726 5.44.395.315.182.49.43.742.676.015.014.037.02.055.03q2.397-1.483 4.823-2.915c-2.274-.928-4.377-1.762-6.873-1.636m21.803.406c-.61.327-1.14.643-1.627 1.147-.57 2.544-1.277 4.53-2.56 6.812l1.547-.705c1.329-.631 2.692-1.258 3.885-2.127-.34-.53-.719-1.067-.863-1.688-.117-.505.177-3.297.148-3.33a3 3 0 0 0-.279-.096c-.083-.013-.167-.009-.251-.014m74.369.055c-2.743.557-5.362 1.65-8.09 2.24 2.292.825 4.125 2.454 6.6 2.715.41.054.805.105 1.203.22 2.175-1.208 4.335-2.587 6.198-4.24-1.66.196-2.889-.078-4.46-.57-.468-.147-.96-.355-1.451-.365M102.442 118c-1.754.758-3.52 1.318-5.36 1.815-.278 1.392-.684 2.725-1.317 4-.114.23-1.122 1.838-1.114 1.93.008.076.078.132.117.198 1.612-.21 4.73-.718 5.765-2.117 1.095-1.48 2.126-3.771 2.035-5.63zm68.072.888c-1.563.501-5.237 1.47-6.424 2.474.078.284.17.282.411.424 2.246 1.316 5.606 2.694 8.204 3.026 2.248-.267 4.561-2.032 6.49-3.183-.718.007-1.46.04-2.165-.116-2.238-.498-4.245-2.714-6.516-2.625m-89.356.656c-.844.12-1.674.258-2.506.445-.951.988-1.863 1.978-2.702 3.066 1.415-.246 2.716-.326 4.066.287.333-.055 4.398-2.357 4.707-2.66-.284-.505-1.16-.844-1.699-.992a5.2 5.2 0 0 0-1.866-.146m68.196.337c-1.908.817-5.76 2.31-6.682 4.272l.029.276.32.242c1.355.393 3.537-.177 4.827-.683.552-1.273 1.25-2.596 1.611-3.936zm-53.664.262c-1.298.355-2.571.34-3.888.542-.692 1.66-1.392 3.26-2.536 4.669-.244.3-.86.864-.81 1.222l.398.086c1.606-.171 3.257-.284 4.842-.592.956-1.493 2.394-3.962 2.38-5.781l-.138-.165zm-5.06.89c-1.607.313-3.146.78-4.691 1.313-.361 1.058-.768 2.054-1.32 3.03-.194.342-.816 1.12-.775 1.48l.144.054a17.7 17.7 0 0 1 3.274-.181c1.47-1.69 2.97-3.405 3.604-5.61-.195-.091-.112-.08-.236-.085m71.715.744c-1.972.46-3.91 1.183-5.84 1.799l.226.109c3.104 1.514 5.817 4.486 9.6 3.518 2.015-.553 3.971-1.114 5.898-1.938a16.6 16.6 0 0 1-2.989-.802c-1.457-.543-5.676-2.802-6.895-2.686m-77.518.843c-1.358.473-2.713.971-4.093 1.374-.39.64-1.641 2.43-1.632 3.14l.206.06c1.413-.07 2.965.099 4.013-1.013.734-.779 1.666-2.354 1.765-3.424-.185-.154-.09-.13-.26-.137m-8.51.925c-1.23.096-1.786.751-2.56 1.647a35 35 0 0 0-2.141 2.715c.837-.185 1.62-.364 2.4-.73 1.694-1.134 3.61-2.135 5.197-3.393-.98-.206-1.891-.333-2.896-.239m78.887.222c-2.104.54-4.192.989-6.329 1.376 2.126 1.758 5.603 4.418 8.494 4.139q.205-.02.41-.046c2.165-.282 4.229-.955 6.366-1.366-1.034-.206-1.933-.444-2.886-.908-1.247-.606-4.995-3.372-6.055-3.195m-76.176 1.077c-.935.462-3.968 1.811-4.35 2.589l.227.002c1.144-.1 2.288-.215 3.436-.255.21-.538.956-1.785.91-2.285zm68.97.584c-1.323.076-2.643.155-3.936.462 2.07 2.182 5.327 3.577 8.317 3.782 1.294.105 2.457-.061 3.729-.297-1.087-.155-2.05-.37-3.047-.847-1.153-.552-4.286-3.104-5.064-3.1m-39.537.463c-1.056.236-2.038.83-2.87 1.513-.72 3.493-1.467 6.704-3.09 9.915-1.044 2.064-2.37 4.064-3.241 6.204 1.304-1.503 2.44-3.202 3.509-4.88.503-.787.96-1.662 1.53-2.4-1.132 4.714-4.068 8.339-5.887 12.711 2.108-1.738 3.651-4.286 4.981-6.644-1.266 5.265-3.315 6.836-5.516 11.31 2.007-1.264 2.959-2.995 4.534-4.66.256-.227.364-.437.718-.423.325 1.723-4.184 8.225-5.143 10.037 1.77-1.009 3.03-2.347 4.159-4.044-.69 3.332-2.732 6.156-4.201 9.172l.076.005-.158.2c.127.261.116.26.382.372 1.139-.36 2.34-2.466 2.87-3.502 3.517-6.875 4.342-14.432 5.764-21.901.813-4.27 1.81-8.343 3.38-12.4-.227-.313-.442-.409-.826-.47a10 10 0 0 0-.97-.115m29.026.775c-.626.102-1.615.136-2.029.662.338.858 8.631 7.359 9.902 7.903 5.29 2.264 11.316 1.871 16.921 1.79l1.843-.073c-1.159-.808-2.311-1.812-3.621-2.361-1.41-.59-2.999-.843-4.488-1.157-2.317-.49-4.508-.992-6.712-1.895-3.068-1.258-7.032-4.3-9.961-4.879-.63-.125-1.225-.075-1.855.01m-5.427 3.595c-.537.153-1.079.298-1.608.475-.248.954-.516 1.896-.615 2.88l-.025.227.065.098c.572.835 1.278 1.575 1.9 2.374 1.984 2.552 3.38 5.358 3.802 8.586l.118.355c.668-.494.865-3.032.994-3.9.45-3.037-.683-7.384-2.516-9.847-.405-.544-.972-1.118-1.678-1.222-.211-.03-.244-.025-.437-.026m37.338.117c-2.35.827-6.23 1.783-8.012 3.466l-.047.155c.613.288 1.36-.048 1.957-.26.885-.314 1.567-.583 2.52-.679q.212 2.683.638 5.34c-.877 1.342-2.389 2.09-3.927 2.402-1.269.257-2.56.16-3.814-.13.375-.498.756-.982 1.16-1.458l-.232-.017c-2.611-.17-5.203.216-7.812-.155a43 43 0 0 1-5.022-1.023c-1.52-.407-3.025-.91-4.585-1.148.53.53 1.024.941 1.685 1.31-1.095.426-3.512 1.081-3.93 2.253-.08.224-.083.347-.052.576.841 1.263 6.202 2.228 7.87 2.562 5.797 1.16 10.284 1.453 15.864-.815 1.578-.605 5.079-2.297 6.629-2.014l.256.185c.037.31.08.385-.133.64-.715.865-2.591 1.763-3.566 2.731.118 1.792.541 6.34 1.894 7.642.112.108.24.179.375.256l.29-.038c.513-.688.214-3.62.217-4.57l.056.088c.868 1.416 1.356 3.653 1.55 5.297.41 3.487-.181 5.645 1.122 9.25.28.776.55 1.657 1.404 1.945.347-.046.529-.061.759-.348.475-.593.524-1.761.596-2.494.511-5.167-.162-10.682-1.148-15.764-.468-2.41-2.865-13.724-3.839-15.11-.277-.125-.425-.114-.723-.076m-47.594.36c-1.555.928-2.454 1.881-3.228 3.549.549-.451 1.06-.865 1.695-1.194 1.512-.69 2.928-1.48 4.363-2.318-.938-.032-1.894-.103-2.83-.038m-29.3.54c-1.05.329-1.537.935-2.044 1.89-.475.892-1.353 2.99-1.037 3.975.115.357.202.405.5.596.365.02.599-.09.923-.232 1.444-.938 2.757-1.88 3.167-3.664.194-.844.194-1.771.247-2.634zm35.057.39c-2.767.394-7.695 1.406-9.398 3.822-.894 1.27-1.841 6.16-1.611 7.708l.12.04.15-.292c1.772-3.102 7.19-6.059 10.58-7.057.32-1.208.99-2.91.79-4.145-.269-.192-.317-.115-.63-.076m-61.3.925c-.606.44-1.027.926-1.471 1.52-.722.964-5.248 8.116-5.432 8.767l.122.088.309-.063c2.81-1.272 5.482-3.274 6.605-6.251.282-.75.902-2.663.632-3.411-.14-.392-.413-.5-.765-.65m-12.658 1.974c-.923.99-5.794 7.221-6.03 8.087.084-.006.173.008.25-.024 1.871-1.292 5.92-4.532 6.349-6.886.061-.339.004-.575-.157-.876-.13-.102-.263-.228-.412-.3m75.97.751c-.303 2.21-1.23 4.182-1.725 6.335l.093.133c1.561 2.186 3.42 4.04 4.386 6.619.468 1.246.493 2.635 1.102 3.827 1.636-3.74 2.298-6.26.755-10.166-.792-2.002-2.893-5.471-4.61-6.748m-2.657 1.55c-3.457 1.276-8.238 3.49-9.88 7.012-.691 1.48-.556 3.529-.254 5.108l.105.13c1.297-2.988 4.376-4.84 7.29-5.996a13 13 0 0 1 1.469-.511c.353-.895 1.62-4.939 1.41-5.7zm35.813 1.807c-.24.265-.37.383-.42.753.093.278.19.434.38.655.203-.324.37-.579.433-.965-.109-.303-.11-.288-.393-.443m-35.119 4.123c-.606 1.787-1.427 3.688-1.752 5.544 2.234 3.016 3.792 5.754 4.385 9.51.025.157-.011.084.135.203l.236-.246c1.4-2.284 2.46-3.966 1.804-6.72-.704-2.958-2.589-6.214-4.808-8.291m-2.541.698c-2.797 1.29-6.77 3.078-7.868 6.221-.57 1.635-.083 3.714.111 5.4 1.156-3.218 4.353-5.086 6.974-7.005.371-1.334 1.054-3.127 1.073-4.5-.197-.138-.096-.112-.29-.116m14.249.117c-.51 3.076-1.768 5.91-2.792 8.832-.817 2.332-1.483 4.716-2.325 7.04-.26.717-1.608 3.858-1.64 4.353-.006.09.054.17.082.256.343.245.408.365.84.344 1.438-.914 2.505-4.577 3.048-6.173.847.924 1.564 1.935 2.36 2.899 1.754 1.945 3.585 3.312 6.117 4.064-3.146-2.868-6.288-5.707-6.518-10.244-.186-3.653 1.169-7.278 3.03-10.363-.735-.335-1.472-.663-2.202-1.008m6.936 2.015q.841 2.048 1.58 4.135c.662 1.872 2.441 8.28 4.245 9.062.244-.009.376-.025.59-.147.988-2.714-.326-8.232-1.54-10.822a16 16 0 0 0-.855-1.563q-1.996-.419-4.02-.665m5.94-.031c1.703 2.21 3.4 4.289 4.69 6.789.533 1.033 1.16 3.126 1.64 3.869l.079.004c.282-3.232.282-7.033-.95-10.084-1.817-.16-3.659-.274-5.458-.578m-38.563 1.101c-.549 1.749-3.471 14.085-3.283 15.173.112-.106.189-.174.263-.311 1.699-2.485 3.761-5.301 3.833-8.431.023-.98-.151-1.949-.275-2.917-.127-1-.2-2.04-.393-3.026a3 3 0 0 0-.145-.488m10.368 2.415c-2.69 1.664-5.164 3.674-6.471 6.616.172 1.078.321 2.167.53 3.24l.137.118c.404-.558.718-1.183 1.147-1.721.955-1.2 2.249-2.24 3.403-3.245.28-1.062 1.397-4.165 1.254-5.008m1.468.076c-.553 1.915-1.132 3.952-1.427 5.923.977 1.606 2.98 5.66 3.051 7.527l.184.124q.322-.375.627-.765a26 26 0 0 0 1.856-3.121c-.359-3.276-2.013-7.268-4.291-9.688m39.378 1.39c-.405 1.104-.325 2.416.187 3.471 1.054 2.175 3.787 3.986 5.623 5.508.046-.497-.027-.791-.36-1.173-1.27-1.459-3.268-2.318-4.31-3.976-.749-1.192-.409-3.056-1.14-3.83m-42.422 4.786c-1.725 1.407-2.956 2.707-4.184 4.576.124 1.068.307 2.101.603 3.136l.135.102c.942-.806 1.584-1.953 2.516-2.799.162-.953 1.136-4.282.93-5.015m1.231.591c-1.467 4.57-2.315 9.135-2.685 13.924l1.538-1.797c1.424-1.566 3-3.097 4.266-4.791-.247-1.286-2.285-6.536-3.119-7.336m-89.185 3.365c-1.976 1.337-4.767 6.625-5.975 8.906l.024.328c.205.008.328-.014.519-.088 1.788-.726 4.766-1.794 5.593-3.712.45-1.04 1.11-3.847.61-4.9-.126-.263-.331-.413-.61-.496-.053-.016-.107-.025-.16-.038m80.697.013c-.267.53-1.904 3.26-1.79 3.72.768-.777 1.849-1.754 1.877-2.928.006-.26-.021-.54-.087-.792m5.942 2.142-2.088 2.608q.656 2.332 1.2 4.692c.075.314.13.711.264 1l.09-.01-.124-.072.14-.007c.04-.877.645-7.973.581-8.149zm9.215 33.823c-2.066.162-3.706.83-5.073 2.443-2.11 2.49-2.879 6.322-2.595 9.507.235 2.638 1.357 5.663 3.481 7.362a6.5 6.5 0 0 0 3.588 1.438c2.007-.105 3.567-.778 4.929-2.272 2.345-2.571 2.92-6.6 2.725-9.95-.155-2.644-1.012-5.341-3.078-7.113-1.195-1.025-2.44-1.38-3.977-1.415m-15.494.266c-.342.029-.562-.016-.834.207-.869 3.952-1.55 7.95-2.371 11.912-.736-3.953-1.495-7.974-2.461-11.878-1.644.059-3.293.097-4.936.196l-1.416 19.796c1.428-.009 2.847-.02 4.272-.127.252-3 .449-6.013.74-9.008l.088-1.262c.387 1.13.568 2.375.813 3.545q.702 3.351 1.366 6.71l2.823-.037c.694-3.483 1.913-6.921 2.389-10.434q.27 5.12.755 10.225c1.387-.025 2.806.005 4.187-.107-.543-6.581-.928-13.173-1.525-19.748q-1.945-.053-3.89.01m25.675.1c-.194 6.6-.135 13.235-.131 19.84q2.375.103 4.752.168c-.013-2.072-.238-4.39.052-6.43.275-.171.384-.135.7-.148.863 1.025.943 5.181 1.67 6.444.155.27.299.246.578.295q2.316.07 4.633.034c-.81-2.538-1.875-5.103-2.553-7.67 1.492-1.31 2.15-2.743 2.282-4.713s-.04-4.174-1.396-5.726c-1.535-1.758-3.795-1.835-5.95-1.934-1.545-.071-3.092-.1-4.637-.16m-46.906.637c-2.048.214-3.684 1.134-4.983 2.725-2.27 2.776-3.016 6.479-2.619 9.98.27 2.383 1.169 4.986 3.1 6.531 1.146.916 2.474 1.367 3.929 1.411 1.952-.141 3.545-.738 4.865-2.249 2.303-2.635 3.008-6.522 2.758-9.92-.183-2.496-1.01-5.393-3.013-7.049-1.166-.964-2.543-1.383-4.038-1.429m68.309-.032c-2.195.493-3.846 1.629-5.056 3.527-1.965 3.08-2.371 7.103-1.562 10.616.526 2.28 1.688 4.59 3.739 5.85 1.207.742 2.396.928 3.787.892 1.956-.361 3.445-1.288 4.567-2.935 2.071-3.037 2.507-7.584 1.793-11.116-.461-2.286-1.515-4.543-3.498-5.89-1.14-.774-2.406-1.072-3.77-.945M79.7 197.287c-2.152.53-3.656 1.95-4.785 3.805-1.98 3.25-2.526 7.68-1.597 11.354.49 1.936 1.629 3.698 3.353 4.753 1.228.75 2.706.988 4.096.598 1.367-.385 2.567-1.282 3.662-2.154.195-.738-1.19-4.03-1.488-4.88-.804.71-1.696 1.446-2.837 1.409-.564-.018-1.062-.276-1.435-.694-.912-1.02-1.046-2.73-.924-4.047.125-1.352.586-2.907 1.703-3.764.57-.437 1.219-.597 1.927-.5.74.1 1.306.53 1.908.933.373-1.731.855-3.46 1.153-5.203-1.298-1.15-2.701-1.714-4.461-1.634q-.138.009-.275.024m96.556.005c-1.489.436-2.621 1.264-3.357 2.655-.99 1.873-1.157 4.586-.475 6.586.975 2.853 5.147 4.014 5.128 5.62-.18.315-.342.45-.702.536-.755.179-1.646 0-2.286-.426a19 19 0 0 1-2.041-1.605l-1.148 5.82c1.546.805 3.12 1.362 4.874 1.439 1.595-.056 2.93-.36 4.077-1.567 1.39-1.463 1.975-3.732 1.882-5.712-.074-1.56-.7-3.44-1.91-4.497-1.062-.927-3.53-1.536-3.745-3.057-.038-.275.065-.33.241-.505.879-.213 2.163.181 2.936.627.388.224.753.5 1.114.765.362-1.74.766-3.53.828-5.31-1.823-1.044-3.319-1.459-5.417-1.37m-122.7 1.602c-4.633.999-7.102 5.693-11.805 6.432-1.165.183-2.339.093-3.51.037a46 46 0 0 1 2.102 2.603c2.193-.167 4.294-.456 6.285-1.451 3.575-1.787 7.343-6.953 11.686-3.368a3.98 3.98 0 0 1 1.418 2.793c.074 1.01-.215 2.04-.882 2.811a3.03 3.03 0 0 1-2.234 1.071c-.66.02-1.179-.153-1.752-.46-.474-.546-.553-.957-.54-1.667l.17-.25.347-.056.596.575c.321.31.645.604 1.119.627.378.018.678-.198.92-.465.412-.457.68-.988.627-1.613-.066-.761-.689-1.557-1.286-1.994-.722-.529-1.608-.683-2.481-.53q-.196.033-.388.086-.19.053-.376.125-.185.072-.362.162t-.344.198-.322.231-.297.263-.27.29-.239.317c-.674 1.01-.852 2.32-.592 3.494.309 1.39 1.237 2.64 2.455 3.37 1.349.81 3.002.96 4.5.519q.167-.05.331-.108t.325-.125.319-.14.31-.157.303-.172.293-.187.284-.203.272-.216.262-.23.25-.242.237-.255.224-.266.21-.278.195-.288.181-.297.166-.306c.822-1.635.883-3.609.277-5.324-.721-2.04-2.413-3.86-4.377-4.76-1.489-.682-3-.746-4.608-.596m147.862.657c-2.284.142-4.403.738-5.974 2.523q-.115.131-.224.269-.108.137-.21.28-.101.142-.196.29-.094.147-.181.299t-.167.308-.151.315-.136.323q-.063.163-.119.329t-.103.334-.087.34q-.038.17-.069.343-.03.172-.053.346-.022.173-.035.348-.014.174-.018.35-.006.174-.002.35.004.174.017.349c.119 1.594.839 3.16 2.07 4.2 1.305 1.102 3.108 1.598 4.796 1.394 1.223-.148 2.368-.696 3.122-1.689.745-.98 1.03-2.26.834-3.47-.164-1.015-.691-2.048-1.573-2.616-.715-.46-1.558-.525-2.367-.308-.759.203-1.53.603-1.933 1.305-.319.553-.501 1.115-.303 1.743.115.362.26.625.548.88.302.082.477.11.768-.04.542-.284 1.028-1.021 1.638-1.072.261.28.346.576.325.971-.016.28-.108.55-.315.746-.388.368-1.04.47-1.554.416-.468-.05-.913-.227-1.314-.466-.835-.617-1.65-1.34-1.792-2.429-.138-1.049.344-2.232 1.003-3.032.792-.961 2.304-1.373 3.503-1.435q.388-.022.776.007.389.028.77.107.381.078.75.206.367.127.716.3c3.064 1.51 4.872 4.46 8.666 4.65 1.567.08 2.249-.147 3.33-1.299.664-.708 1.269-1.488 1.849-2.265-2.57.85-4.713 1.403-7.287.095-3.457-1.757-4.939-4.674-9.318-4.594m-86.59 26.512q-14.445.28-28.875.966c-7.147.291-14.345.5-21.47 1.135 1.487.985 6.3 4.128 7.724 4.4 1.648.314 5.539-.214 7.406-.333q5.882-.376 11.772-.633 15.453-.651 30.919-.702c5.71-.045 11.498-.182 17.2.048q9.761.212 19.519.545c8.124.33 16.28.825 24.41.923q3.488-2.17 7.017-4.278-22.546-1.192-45.112-1.847c-9.968-.284-20.56-.654-30.51-.225"/><path d="M122.687 22.83c-.155.019-.311-.043-.462-.08l-.04-.12c.588-.854 1.378-1.302 2.332-1.657l.403.092.06.22c-.482.592-1.637 1.04-2.293 1.546M146.3 39.569l.074.055zm-33.082 12.362-.153-.15c-.03-.518 2.6-10.777 3.015-11.82l.149.175c.314 2.738-1.838 9.156-3.011 11.795m15.199-5.676c1.089-.698 2.113-1.34 3.355-1.722.434.052 1.094.082 1.472.322.302.192.303.26.35.584-.142.31-.121.403-.427.58-.077-.041-.273-.143-.334-.181-.07-.045-.135-.099-.203-.145-.51-.344-1.215-.133-1.778-.032-.802.232-1.621.406-2.435.594m9.61 15.843c-.045.15-.007.05-.161.277-.438-.588-2.928-14.376-3.289-16.346.325.075.544.206.744.48 1.471 2.005 2.938 8.477 3.068 11.029.08 1.553-.106 3.032-.362 4.56m-19.233-1.57-.048.017-.15-.11c-.153-1.608.538-3.734 1.135-5.206 1.186-2.917 4.012-7.336 6.972-8.61l.153.023.014.091c-3.089 2.435-5.334 6.215-6.687 9.852-.468 1.257-.766 2.585-1.324 3.806zM108.53 71.204a1.6 1.6 0 0 1-.441-.15c-1.622-.879-7.464-7.393-9.303-9.186-1.59-1.55-3.333-2.949-4.898-4.52-.241-.243-.358-.4-.455-.724.316.063.583.197.862.354 2.483 1.403 13.411 11.447 14.234 14.226m-13.412 4.83q-.385-.664-.755-1.337c-2.62-4.774-5.574-12.324-3.995-17.754.135.08.25.135.36.257.083.093.152.233.201.351.865 2.077.912 4.634 1.249 6.839.216 1.417.594 2.864.938 4.258.361 1.46.725 2.924 1.174 4.36.283.905.986 1.999 1.045 2.918zm16.682-5.662c-1.9-1.138-3.863-3.686-5.446-5.309q-2.152-2.211-4.47-4.248c-.613-.55-2.056-1.568-2.314-2.3 4.033 1.976 10.656 7.62 12.23 11.857m17.025-3.469h-.141c-.205-.115-.381-.213-.523-.408-.352-.484-.346-1.192-.2-1.747.146-.56.43-.764.91-1.024.338.101.646.193.885.469q.04.047.077.098.036.052.067.106.03.055.055.112.025.058.043.117.02.06.032.121.013.062.019.124.006.063.006.125 0 .063-.007.125c-.087.82-.616 1.298-1.223 1.782m-.205-2.364c-.148.327-.228.41-.162.77.232.134.415.21.676.269.094-.361.133-.42.01-.767a1.7 1.7 0 0 0-.524-.272m29.453 13.136c1.057-1.3 2.18-2.678 2.483-4.373.308-1.736-.088-4.017-1.112-5.458-.952-1.34-2.61-2.371-4.235-2.602-5.16-.733-10.333 5.226-12.846 9.048-.823 1.252-2.058 3.828-3.177 4.652-.244-.188-.206-.22-.287-.502.083-.573.402-.953.639-1.462 1.12-2.411 2.293-4.88 3.978-6.959 2.335-2.88 5.52-5.321 9.293-5.723 1.916-.141 3.885.224 5.519 1.265 1.826 1.163 2.877 3.097 3.328 5.169.413 1.902.237 3.809-.838 5.474-3.086 4.777-8.787 10.074-13.997 12.359-1.13.495-2.237.778-3.441 1.038 1.374-.986 3.02-1.535 4.472-2.4 3.889-2.315 7.503-5.94 10.22-9.526m-24.068-9.788c-.273.041-.576.1-.842-.006-.309-.123-.503-.382-.623-.681-.151-.376-.053-.88.125-1.228.226-.444.535-.563.972-.72.408-.002 1.03.01 1.334.319.231.234.268.467.243.783-.052.653-.735 1.184-1.21 1.533m-.027-1.713c-.293.181-.575.319-.75.628l.09.21.273.084c.302-.241.614-.376.698-.761zm-9.908.799c.172.136.338.28.505.423l-.01.21-.227.053c-.25-.116-.474-.206-.66-.421a.87.87 0 0 1-.203-.802c.139-.532.643-.82 1.068-1.102.314.015.475.057.75.21.131.173.225.299.254.523.06.469-.168.795-.423 1.153l-.157.023c-.08-.301-.138-.566-.323-.823-.3.067-.394.314-.574.553m13.243 1.797c-.355.225-.483.368-.91.362l-.211-.241c-.151-.506-.112-1.106.044-1.614.125-.404.375-.49.704-.706.404.154.607.33.853.668.04.293.056.293-.101.54q-.368.015-.734.052l-.07.218c.128.19.25.374.355.578z"/><path d="m141.881 78.926-.186-.028c-.12-.412-.022-.662.135-1.055 1.342-3.377 5.716-7.776 9.03-9.222l.152.033c0 .063.02.128 0 .187-.042.126-1.765 1.534-1.995 1.742-1.966 1.78-4.154 3.828-5.786 5.91-.61.776-1.003 1.514-1.35 2.433m13.763-3.619-.197-.117c-.077-.518 1.059-2.494 1.224-3.317.204-1.023.103-2.016-.004-3.04.223.103.169.05.315.203.37.387.361 1.682.336 2.221-.073 1.598-.476 2.942-1.674 4.05m-64.739 35.907c.31.291.638.576.694 1.008l-.11.027c-.39-.077-.64-.243-.928-.507-1.15-1.048-2.98-3.564-3.47-5.034-.206-.62-.098-1.343-.267-1.983-.296-1.128-.72-2.102-.784-3.292-.113-2.084.659-4.294 2.052-5.846 2.1-2.34 5.09-2.626 8.043-2.78.868-.031 1.76.078 2.628.144-3.117 1.132-6.986 1.39-9.642 3.515-1.41 1.129-1.92 2.736-2.11 4.462-.462 4.172 1.368 7.105 3.894 10.286m66.845-1.792-.254.228-.142-.03c.28-1.21 1.172-2.324 1.61-3.498 1.503-4.038 1.867-5.383.044-9.447.292.06.547.169.781.354 1.02.805 1.385 1.944 1.507 3.188.325 3.303-1.506 6.74-3.546 9.205"/><path d="m94.594 101.797-.154-.096c1.998-2.676 7.609-4.003 10.728-4.531l.163.018c-.475.634-4.904 1.837-5.946 2.287-1.63.703-3.143 1.635-4.791 2.322m81.829.189.07.116zm-80.469 11.3c-.003-.156-.017-.062.114-.26 3.037-1.172 8.106-4.995 10.76-7.14 1.465-1.184 2.935-2.535 4.551-3.507-.021.402-.4.797-.666 1.087-1.96 2.138-7.326 6.633-9.775 8.057-1.578.917-3.135 1.686-4.984 1.763m47.876-3.753a2 2 0 0 1-.45-.08c-1.453-.431-3.35-2.797-4.01-4.116 1.51.804 3.254 2.959 4.46 4.196m-33.794 7.233-.13-.2c-.012-1.228 3.29-6.624 4.15-7.612.144.134.138.085.137.338-.005.919-2.417 5.23-2.995 6.098a8.3 8.3 0 0 1-1.162 1.376m-51.846-7.267.06-.093zm74.51 13.987c-.15-.009-.064.01-.244-.1 2.06-3.365 2.18-5.898 2.038-9.727-.04-1.066-.135-2.152.038-3.209.055.052.117.097.164.155.754.915.537 6.316.412 7.733-.198 2.258-.625 3.649-2.409 5.148m17.391-9.246-.313-.21c.23-.293 2.331-.22 3.418-1.429l.118.143c.029.186.1.474.026.66-.132.33-.618.603-.928.73-.861.352-1.457.457-2.32.105m-28.178 11.4c-1.772-.512-3.452-1.295-5.096-2.123-.997-.501-3.263-1.467-3.605-2.498.205-.02.456-.055.66-.016.586.113 7.69 4.17 8.04 4.637m5.618.145c-.195.066-.397.118-.595.175-.329-.09-.497-.09-.73-.347.194-.275.359-.252.67-.337l1.957-.062c-.425.209-.866.386-1.303.57m60.195 12.595c-1.257-.423-2.392-1.457-3.3-2.401-1.684-1.75-3.968-5.674-3.857-8.146.031-.706.2-1.019.71-1.497 1.136.609 2.18 1.754 3.04 2.695 1.874 2.052 4.177 5.427 3.985 8.35-.034.518-.207.687-.578 1m34.038 1.209-.136-.07zm-16.55 12.178-.066-.115zm-58.047 53.099c-.306.2-.7.442-1.078.465-.34.02-.402-.063-.644-.269-.515-1.218-.196-3.215-.051-4.524.446.018 1.023.006 1.415.245.506.31.851.958.944 1.532a3.63 3.63 0 0 1-.586 2.551m-16.955 5.264a3.2 3.2 0 0 1-.864-.097c-.641-.166-1.154-.698-1.469-1.262-.787-1.41-.721-3.573-.236-5.088.383-1.192.93-1.869 2.028-2.446.412-.007.82-.01 1.208.147.621.25 1.072.817 1.332 1.419.649 1.506.564 3.732-.03 5.242-.42 1.07-.92 1.634-1.97 2.084m31.968 1.188c-.338-.055-.661-.112-.971-.263-.7-.34-1.166-1.106-1.4-1.822-.53-1.629-.376-3.888.45-5.384.46-.832.975-1.294 1.877-1.57.316.034.606.078.9.208.696.308 1.172 1.004 1.423 1.7.574 1.595.42 3.97-.34 5.484-.466.924-.962 1.341-1.939 1.647m-68.659-.093c-.3-.02-.686-.019-.96-.154-.82-.407-1.312-1.28-1.56-2.129-.464-1.583-.389-3.578.453-5.013.494-.844 1.067-1.284 2-1.542q.297.046.585.128c.659.189 1.124.744 1.42 1.34.72 1.44.641 3.518.102 5.017-.405 1.127-.952 1.85-2.04 2.352"/></svg>