<svg xmlns="http://www.w3.org/2000/svg" viewBox="0 0 256 256"><path d="M127.018 0h2.312c.784.264 1.467.555 2.153 1.028 1.74 1.201 3.242 2.88 4.713 4.39q2.655 2.769 5.387 5.46 3.012-1.855 5.982-3.778c2.185-1.423 4.556-3.204 7.007-4.13.993-.375 2.106-.61 3.153-.342 2.148.55 3.552 2.794 4.57 4.61 1.761 3.142 3.365 6.477 5.525 9.37 2.77-.824 5.389-1.98 8.032-3.134 1.923-.84 4.095-1.945 6.164-2.32 1.115-.203 2.218-.19 3.243.346 1.663.87 2.45 2.745 2.94 4.46 1.09 3.813 1.526 8.42 3.673 11.81 3.554-.036 6.958-.823 10.446-1.39 1.464-.237 3.027-.565 4.514-.492.998.048 2.13.322 2.873 1.031 2.07 1.98 1.74 8.896 1.946 11.686.128 1.722.357 3.374.8 5.043 1.628.28 3.234.474 4.883.572 3.05.181 9.966-.168 11.849 2.517.51.727.724 1.654.756 2.53.054 1.51-.28 3.06-.554 4.539-.64 3.457-1.599 7.11-1.484 10.636 2.936 1.21 6.004 1.955 9.07 2.748 1.94.502 4.042.918 5.83 1.842.814.421 1.573.974 1.935 1.844.908 2.182-.123 4.522-1.014 6.521-1.791 4.016-3.192 6.53-4.12 10.975 1.857 1.115 3.653 2.337 5.523 3.425 2.072 1.206 4.593 2.207 6.34 3.865.74.701 1.292 1.559 1.553 2.549.63 2.397-.49 4.834-1.718 6.836-1.888 3.08-5.26 6.135-6.085 9.66.871 1.121 1.964 1.965 3.048 2.869 2.952 2.459 6.12 4.878 7.737 8.458v3.672c-.67 1.746-1.657 3.116-2.985 4.432-1.885 1.867-6.703 4.91-7.572 7.179-.197.514-.106 1.026.102 1.522 1.966 4.681 9.608 10.358 7.49 16.016-1.442 3.849-12.425 6.214-12.92 9.658-.536 3.735 5.391 11.91 4.923 15.769-.18 1.482-1.276 2.536-2.592 3.105-3.392 1.466-12.423 1.778-13.928 5.298-.5 1.169-.243 2.542-.068 3.757.384 2.682 2.018 9.348 1.363 11.667-.323 1.14-1.123 1.95-2.202 2.407-3.296 1.397-10.941.081-14.06 1.43-.757.328-1.292.843-1.632 1.596-1.345 2.979.306 11.045-.973 14.277-.408 1.031-1.16 1.818-2.19 2.24-2.637 1.082-8.746-.94-11.673-1.471-1.826-.331-3.565-.54-5.42-.442-.781 1.83-1.34 3.675-1.825 5.602-.79 3.142-1.422 9.237-4.766 10.659-2.206.938-4.99-.315-7.03-1.203-3.386-1.472-6.693-3.357-10.342-4.08l-.118.14c-3.123 3.775-5.36 13.141-10.454 13.746-4.641.553-10.961-6.314-15.245-8.15-3.961 3.446-7.948 9.115-12.535 11.14h-2.81c-3.605-1.298-6.157-4.93-8.658-7.695q-1.697-1.879-3.544-3.61c-2.331 1.437-4.5 3.057-6.698 4.684-1.663 1.231-3.4 2.614-5.26 3.529-.874.43-1.817.747-2.802.75-1.195 0-2.279-.498-3.16-1.29-3.33-2.99-5.252-9.475-8.715-13.006l-.122-.121q-.206.034-.411.073c-2.836.514-5.754 2.313-8.356 3.557-2.17 1.038-5.511 2.89-7.93 1.959-.828-.32-1.43-.983-1.86-1.742-1.848-3.27-2.14-9.02-3.709-12.594-.533-1.213-1.422-2.07-2.747-2.341-3.335-.684-11.53 3.135-15.064 1.685-4.676-1.92-1.832-11.974-3.634-15.96a3.52 3.52 0 0 0-1.848-1.824c-3.231-1.379-10.368.08-14.043-1.347-6.372-2.476 1.654-14.1-.407-18.5-1.311-2.798-10.313-3.68-13.324-4.852-1.386-.539-2.693-1.37-3.281-2.8-.293-.712-.341-1.473-.217-2.228.447-2.738 2.996-7.047 4.15-9.827.473-1.14 1.465-3.192 1.126-4.421-.96-3.479-11.639-5.49-13.23-9.634-1.919-4.993 5.697-11.464 7.437-15.805.214-.535.377-1.154.113-1.7-.446-.922-1.512-1.752-2.278-2.412-2.934-2.526-6.556-5.002-8.066-8.683v-3.97c2.325-4.896 7.37-7.343 10.96-11.163-1.137-3.6-4.027-6.731-6.31-9.693-.757-.983-1.606-1.957-2.178-3.064-.617-1.192-.832-2.448-.391-3.74 1.051-3.085 7.151-5.62 9.947-6.999 1.264-.623 3.33-1.432 3.949-2.776 1.553-3.376-6.479-12.74-4.885-17.031.38-1.023 1.264-1.775 2.203-2.274 1.813-.963 4.044-1.351 6.018-1.865 2.998-.781 5.99-1.599 8.806-2.91.003-4.129-3.291-13.957-2.267-16.88 1.724-4.922 12.849-1.886 16.67-3.828.736-.375 1.25-.971 1.55-1.739 1.331-3.411-.178-9.897 1.097-13.518 2.339-6.637 14.54 1.419 18.493-.554.645-.322 1.114-.88 1.443-1.51 1.258-2.41 1.84-7.552 2.782-10.466.538-1.662 1.323-3.615 2.994-4.421.763-.368 1.582-.47 2.418-.368 3.931.483 10.17 4.337 14.424 5.731 3.92-3.046 5.51-12.927 10.776-14.484 3.688-1.09 7.893 3.085 10.531 5.132 1.673 1.298 3.338 2.546 5.19 3.582C118.61 7.572 121.687 2.14 127.018 0m.948 6.59c-1.497 1.382-2.908 2.847-4.308 4.326-2.529 2.671-5.64 6.653-9.717 6.456-5.4-.26-9.51-6.437-13.841-8.433-1.93 3.37-4.22 8.735-6.812 11.427-1.053 1.093-2.452 1.997-3.922 2.395-3.518.952-7.245-1.167-10.33-2.62q-2.504-1.202-5.072-2.26c-1.024 4.456-2.418 13.125-6.546 15.635-4.386 2.666-11.71-.474-16.44-1.381-.26 4.703.544 12.83-3.28 16.138-3.402 2.944-11.077 2.589-15.373 2.621.956 4.473 3.465 13.03.918 17.034-2 3.144-5.905 3.734-9.244 4.54-2.089.504-4.185.984-6.245 1.594 1.94 4.536 6.24 11.597 4.277 16.605-1.68 4.287-9.11 7.459-13.06 9.466q1.783 2.47 3.611 4.907c2.06 2.74 5.372 6.27 4.767 9.985-.953 5.841-8.575 8.56-11.36 12.871l.104.14c3.329 4.41 11.82 7.863 10.99 14.41-.467 3.672-3.29 6.893-5.451 9.744-.896 1.18-1.79 2.308-2.284 3.726 1.773 1.197 3.597 2.227 5.482 3.236 3.512 1.881 6.561 3.35 7.41 7.602 1.031 5.156-2.77 10.447-4.4 15.115 3.363.96 9.712 1.986 12.519 3.698a7.03 7.03 0 0 1 2.48 2.59c2.92 5.175.172 11.45-.562 16.834q2.652.131 5.306.236c3.65.153 7.772.173 10.4 3.11q.284.315.537.655t.473.702.404.743.333.778c1.217 3.284 1.362 8.791 1.423 12.293 3.376-.415 10.209-1.972 13.156-1.531 1.437.215 2.802.852 3.937 1.751 3.912 3.102 4.233 9.61 5.789 14.041l5.57-2.338c3.203-1.332 7.03-3.246 10.523-1.888 3.66 1.422 5.679 5.813 7.535 9.007.806 1.387 1.713 2.774 2.4 4.22l.213-.133c4.067-2.541 10.106-9.039 15.158-8.01 4.745.968 7.962 6.432 11.314 9.566l1.292 1.242q2.359-2.227 4.613-4.56c2.497-2.562 5.655-6.482 9.616-6.296 3.77.177 10.378 5.793 13.817 7.841l2.727-5.032c1.764-3.243 3.453-6.667 7.243-7.81 4.213-1.269 8.97.904 12.713 2.727 1.153.562 2.291 1.216 3.483 1.684 1.007-4.775 1.81-12.04 6.23-14.921 4.248-2.768 11.997-.225 16.652.765-.096-5.008-.888-11.75 2.894-15.674 2.066-2.143 5.164-2.769 8.032-2.8 2.501-.026 5.037.073 7.527-.194q-.532-2.742-.998-5.495c-.634-3.708-1.414-7.87.814-11.231 2.162-3.261 6.702-4.318 10.236-5.318 1.504-.425 3.027-.905 4.56-1.212-1.686-4.751-6.18-12.124-3.797-17.018 1.886-3.871 8.638-6.35 12.255-8.826-2.218-5.541-10.182-10.118-7.269-16.996 1.96-4.627 7.218-7.5 10.564-11.105-3.137-4.572-12.137-8.335-10.988-14.777.942-5.29 5.89-8.496 7.699-13.201-1.954-1.505-4.226-2.592-6.39-3.757-3.252-1.75-6.146-3.364-6.67-7.411-.676-5.239 2.946-10.056 4.618-14.747-3.738-.997-9.98-2.13-13.185-4.071-1.091-.661-2.013-1.539-2.66-2.646-2.465-4.222.197-11.461.708-16.125-4.47-.226-12.328-.035-15.454-3.553-3.072-3.458-2.453-10.816-2.984-15.21-4.51.936-12.475 3.39-16.631.718-4.067-2.614-4.929-10.784-6.23-15.185-4.967 2.101-11.132 6.383-16.66 4.096-3.485-1.442-4.977-5.33-6.633-8.42q-1.21-2.221-2.615-4.324c-1.996 1.212-3.904 2.593-5.84 3.899-2.757 1.86-6.357 4.705-9.902 3.864-4.388-1.041-8.434-8.06-12.169-10.525"/><path d="M131.563 235.227q-.716.041-1.433.075c-4.243.198-8.627-.138-12.854-.52-23.272-2.099-45.965-11.08-63.333-26.937-21.042-19.212-32.368-46.282-33.68-74.536q-.053-1.205-.082-2.411-.028-1.206-.03-2.412-.002-1.207.022-2.413t.074-2.411.125-2.41.178-2.406.23-2.402.28-2.396.333-2.39q.18-1.192.385-2.381t.435-2.373.487-2.363q.256-1.18.537-2.352.281-1.173.588-2.34t.638-2.327.688-2.312.738-2.297q.382-1.145.788-2.28.406-1.137.836-2.264t.885-2.244.933-2.225.98-2.204 1.029-2.183 1.074-2.16 1.121-2.136 1.168-2.112 1.212-2.086q.617-1.036 1.257-2.059t1.3-2.032q.662-1.009 1.345-2.003t1.388-1.974 1.43-1.943c1.752-2.306 3.53-4.585 5.486-6.725C62.737 38.29 83.623 26.986 104.769 22.67c6.652-1.358 13.297-1.942 20.066-2.24q1.324-.054 2.65-.075 1.324-.021 2.65-.01 1.325.01 2.649.054 1.324.043 2.647.119 1.323.075 2.644.183 1.32.107 2.639.247 1.317.14 2.631.312t2.624.375 2.613.439 2.602.502 2.589.566 2.575.629 2.558.69q1.275.362 2.54.754 1.267.391 2.523.814t2.501.875q1.245.454 2.479.937t2.456.996 2.43 1.055q1.21.543 2.405 1.115t2.376 1.172 2.348 1.23 2.316 1.288 2.285 1.342 2.251 1.398 2.217 1.453q1.1.739 2.181 1.505t2.143 1.559 2.105 1.61 2.066 1.66q1.022.844 2.024 1.711 1.001.867 1.982 1.76c4.174 3.795 7.838 8.14 11.25 12.624q.642.838 1.267 1.689.625.85 1.233 1.713t1.2 1.737 1.166 1.76q.575.885 1.132 1.782t1.096 1.804 1.062 1.825q.522.917 1.026 1.844.505.928.99 1.865.487.937.955 1.883t.917 1.901.88 1.919q.431.963.843 1.936.412.971.806 1.95.393.98.767 1.967t.729 1.982.69 1.995.652 2.008q.316 1.006.613 2.02.297 1.013.573 2.031.277 1.019.534 2.043.258 1.023.495 2.052.237 1.028.454 2.061.218 1.034.415 2.07.197 1.037.374 2.078t.334 2.085.293 2.09q.137 1.047.253 2.096.117 1.049.213 2.1t.171 2.104.13 2.107q.056 1.055.09 2.11.05 1.337.066 2.676.016 1.338 0 2.677-.017 1.339-.066 2.677-.049 1.337-.13 2.674-.083 1.336-.197 2.67t-.261 2.664-.326 2.657-.391 2.648-.456 2.639q-.244 1.316-.52 2.626-.275 1.31-.583 2.613t-.648 2.597-.71 2.582-.773 2.563q-.403 1.276-.836 2.543-.434 1.267-.898 2.522-.464 1.256-.959 2.5t-1.02 2.475-1.079 2.45q-.555 1.219-1.14 2.423t-1.197 2.394-1.257 2.364-1.313 2.333q-.671 1.158-1.37 2.3t-1.426 2.266-1.48 2.23-1.535 2.194-1.588 2.155-1.64 2.117-1.691 2.075-1.741 2.034-1.79 1.99c-20.254 21.883-46.124 31.844-75.62 32.973M101.156 34l.064.064.03.108c.485 1.673 1.225 3.461 2.021 5.012-.681.575-1.695.916-2.486 1.347a48 48 0 0 0-3.888 2.352q-.68.451-1.347.922t-1.32.96-1.292.998q-.64.508-1.264 1.033-.624.526-1.234 1.069-.609.543-1.203 1.103-.593.56-1.171 1.137-.578.576-1.14 1.169-.56.593-1.105 1.201t-1.07 1.232q-.528.624-1.037 1.261-.508.639-1 1.291-.49.652-.962 1.318t-.925 1.345-.887 1.37-.848 1.395q-1.33 2.324-2.423 4.769-1.093 2.444-1.938 4.985c-.168.492-1.502 5.017-1.6 5.108-.173.16-.584.09-.796.067-.23-.026-.156-.016-.381-.148-.692-1.539-.656-11.79-.682-14.288-.017-1.6.186-3.503-.308-5.037-.27-.84-.701-1.409-1.552-1.71-1.53-.54-4.402.397-6.177.402-1.496.005-3.013-.218-4.466-.566-1.53-.366-3.949-1.716-5.498-1.293q-.231.064-.44.18c-.649.353-1.197.986-1.384 1.708-.496 1.916-.285 6.624-.334 8.836l-.496 20.313-2.283 75.162-.607 22.367-.179 8.012c-.03 2.032.047 4.118-.193 6.135a37 37 0 0 0 2.018 2.239l.805-25.803 2.374-79.5.556-23.84q.081-4.456.253-8.909c.045-1.537.011-3.072.137-4.607.949-.33 3.018.824 3.966 1.127.971.311 1.968.573 2.983.688q1.661.189 3.33.076c1.289-.093 3.787-.917 4.885-.475.398.367.428.61.451 1.127.124 2.696.123 5.411.203 8.11q.24 6.2.368 12.404c1.654-.428 3.215-.251 4.9-.165 1.166-4.113 2.286-8.225 4.047-12.135 4.486-9.955 13.228-19.002 22.733-24.296 9.67-5.386 20.094-7.723 31.137-6.834 3.228.26 6.361.703 9.482 1.593 14.69 4.193 26.575 14.155 33.938 27.489 2.493 4.513 4.002 9.283 5.402 14.207 1.576-.26 3.032-.53 4.597-.088q.176.048.353.093c.572-1.558.708-15.097.769-17.516.025-1.004-.124-3.033.194-3.92.175-.49.56-.762.957-1.074 1.936.625 3.77 1.191 5.836 1.086 1.902-.096 6.786-2.357 8.133-1.17.576 1.56.481 9.699.539 11.958l.463 17.007 2.339 77.337q.37 12.018.873 24.033c.138 3.542.014 7.186.397 10.701.707-.937 1.847-2.058 2.014-3.248.079-.555-.114-1.197-.15-1.762-.089-1.398-.103-2.821-.13-4.223-.186-9.941-.754-19.907-1.118-29.847l-.31-10.975c-.025-1.238.12-3.252-.01-4.326-.34-2.818-.307-5.746-.376-8.593-.05-2.049-.209-4.142-.145-6.187 2.132-.82 4.319-1.69 6.368-2.701-2.124.523-4.365.877-6.407 1.672q-.142-3.989-.175-7.98c2.297-.901 4.56-2.379 6.736-3.558-2.227.485-4.71 1.429-6.743 2.456q-.015-.073-.027-.146c-.502-2.977-.222-7.172-.367-10.257-.225-4.798-.278-9.58-.413-14.38l-.597-22.731q-.07-4.392-.202-8.782c-.046-1.593.014-3.318-.258-4.888-.186-1.071-.452-1.83-1.374-2.473-1.09-.76-2.278-.868-3.553-.596-1.835.39-3.629 1.302-5.508 1.456-2.804.23-6.509-2.34-8.552.753-.271.41-.395.824-.468 1.309-.304 2.017-.21 4.217-.274 6.256l-.33 12.688-1.606.21c-1.202-3.965-2.495-7.711-4.365-11.412-1.372-2.714-2.92-5.15-4.636-7.66-.267-.39-.695-.88-.802-1.337.142-.02.256-.068.39-.119.841-1.232 1.795-3.025 2.277-4.434l.012-.127.2-.16-.2.16-.012.127c-.817.74-2.676 3.242-2.686 4.306 0 .082.013.164.019.247-1.58-1.372-2.79-3.337-4.28-4.841-5.242-5.294-10.06-8.949-16.625-12.443.743-1.663 1.508-3.32 2.183-5.01-1.03 1.496-2.092 3.174-2.515 4.957a34 34 0 0 0-3.017-1.425q-.539-.22-1.082-.43t-1.09-.408-1.099-.384-1.107-.361-1.114-.337-1.121-.314q-.562-.15-1.128-.29-.565-.138-1.133-.265t-1.139-.242-1.144-.217-1.148-.193-1.151-.169-1.156-.144q-.578-.065-1.158-.119t-1.16-.095-1.162-.07-1.163-.045q-.582-.017-1.165-.021-.581-.005-1.163.004-.582.008-1.164.029-.582.02-1.163.053-.582.032-1.162.078-.58.045-1.16.103-.579.057-1.156.127-.578.07-1.155.151-.576.083-1.15.177-.575.094-1.147.2t-1.142.226-1.138.249-1.131.273q-.564.143-1.126.297-.561.155-1.119.322c-2.871.848-5.609 2.043-8.375 3.176-.923-1.515-1.501-3.576-2.65-4.905zm89.5 13.308c-1.585 1.088-5.127 6.292-5.628 8.22.382-.183.827-.364 1.127-.673 1.233-1.27 1.97-3.232 2.856-4.755.532-.916 1.214-1.83 1.645-2.792l.064-.058zm-113.129.442.07.068c.558 1.633 3.791 6.51 5.087 7.678.017-.136.036-.27.03-.408-.041-1.065-4.273-6.47-5.117-7.27zM43.126 71.269l.066.06c1.249 1.583 3.646 3.652 5.188 5.045.582.526 1.121 1.105 1.943 1.065l.005-.483c-.672-1.199-5.735-4.943-7.136-5.627zm175.18 6.182c-1.853.854-9.215 6.858-10.122 8.542.784-.227 1.407-.56 2.065-1.031 1.328-.952 7.098-6.194 8.058-7.511l.058-.06zm-180.04 5.804.064.174.39.094.019.069c.47.642 7.373 6.709 7.937 6.808l.521-.42.215-.112c-.31-.874-7.438-5.632-8.673-6.276l-.019-.069-.39-.094zm151.422 12.134c-.499-.265-.784-.434-1.356-.301-.177.213-.307.24-.23.55.064.254.317.447.511.6l.116.136-.116-.137.274-.06c.197.206.394.398.61.584.26-.298.217-.987.191-1.372m-156.437 3.89.188.05.264.242.109.026c1.25 1.267 10.67 6.599 12.481 7.177-2.401-2.299-9.28-6.106-12.481-7.177l-.11-.026-.263-.242zm196.555 2.076c-2.983 1.048-11.891 5.771-14.05 7.9 1.199-.311 2.39-.634 3.514-1.163 1.944-.916 9.132-5.355 10.536-6.737l.068-.074zm-41.904 17.179-.101-.11-.106.143c-.012.415-.094.908.162 1.255.466.18.836.38 1.245.663l.252-.017-.252.017c-.079-.345-.089-.487.044-.817.076.206.154.387.266.575.086-.164.076-.313.09-.495-.276-.696-.969-.924-1.6-1.215M30 123.778l.141.06c1.478 1.054 11.985 4.502 14.432 5.067-4.097-2.384-9.752-4.191-14.431-5.067zm100.032 83.53-.157.191zl.342-.03zm-67.282 3.464.062.071c2.017 2.046 4.009 3.577 7.001 3.6q.973 0 1.933-.149t1.887-.442c1.072-.344 2.094-.832 3.24-.862 2.45-.062 4.259 1.393 6.915.915 2.615-.471 3.582-2.548 6.555-2.565 2.292-.013 6.809-.125 8.906.452.948.26 1.78.74 2.633 1.215 2.088 1.164 3.769 1.493 6.147 1.503q-.12.069-.243.132-.124.063-.25.12-.125.056-.254.107t-.26.095-.263.082-.267.069-.271.056-.273.043-.275.03q-.137.01-.276.015-.138.005-.276.003t-.276-.011-.275-.024-.273-.038-.272-.05-.269-.065c-2.877-.788-3.011-2.57-7.136-2.738-.683.337-1.362.7-2.074.97-1.459-.344-3.088-.733-4.597-.596-2.311.208-4.2 1.95-7.21 2.18-.893.07-1.934.088-2.809-.1-.807-.172-1.653-.487-2.472-.55-1.942-.15-3.962.61-5.857.948-.862.155-1.864-.036-2.63.386l.257.098h-.155c1.174.79 2.384 1.66 3.675 2.242 1.648-.953 3.77-1.355 5.662-1.051 1.004.161 1.98.45 2.994.566.941.107 1.884-.09 2.791-.007.09.008.169.066.258.076.218.026.74-.101.885.032-.511.219-.997.432-1.474.721l-.177-.03c-.788-.119-1.776.216-2.6.212-1.36-.006-2.732-.322-4.093-.406-.889-.055-1.799.06-2.683.142 3.273 1.391 6.576 4.108 10.301 2.55 1.189-.498 2.36-1.211 3.626-1.497 2.144-.484 4.29-.124 6.45-.123 1.619 0 3.689-.401 5.24.185.662.25 1.237.68 1.848 1.028.965.548 2.083.775 3.164.959.513.087 1.28.122 1.604.562-.538.405-2.092.49-2.737.398-1.478-.213-2.65-1.332-4-1.888-1.156-.477-2.291-.537-3.52-.548-.471.242-1.008.569-1.525.684-1.952.434-4.127-.32-6.164-.009-2.34.36-4.367 1.362-6.774 1.52a27 27 0 0 0 4.097 1.99c4.161-1.437 4.844-.972 9.087-.517-.347.239-.681.466-1.094.57-1.187.299-2.669.067-3.897.089-.848.014-1.681.146-2.516.286 2.324 1.341 5.175 1.963 7.761 2.594l-.005.12-.312.195c1.129.678 4.864 1.444 6.308 1.813-.828-.494-2.778-1.448-3.048-2.45l.135-.16c1.633.078 2.872 1.166 4.37 1.661.895.296 1.739.313 2.647.488.001.45-.395.593-.283 1.034.847.44 2.11.412 3.05.634.445.105.87.279 1.312.4l.163-.06c-.31-.195-1.087-.435-1.202-.714.307-.048.643-.09.952-.031.638.12 1.255.57 1.886.774 1.754.568 3.782.864 5.616 1 1.239.092 2.483.079 3.723.138 1.275.062 2.543.24 3.82.279 7.522.225 14.972-.443 22.398-1.587-1.303-.358-2.696-.664-3.879-1.335 1.895.173 3.804.722 5.71.438.806-.12 1.54-.648 2.346-.68.038.227.022.348-.014.571.6.282 8.637-1.726 9.916-2.076.219-.06.377-.105.543-.265l-.563-.168c.114-.14.084-.172.24-.18.27-.016.548.15.79.259.794-.148 5.552-1.603 5.937-2.043-.145-.105-.064-.08-.224-.082-1.493-.028-3.975-.15-5.2-1.008 1.427.357 2.541.28 3.983.271.952-.006 1.907.112 2.857-.001 2.298-.275 5.308-1.982 7.3-3.136-1.978.335-4.15.822-6.15.87-.842.02-1.68-.186-2.513-.276-.995-.107-2.002-.092-2.994-.218-1.713-.216-3.869-.971-5.364-1.84-1.378.208-4.845.814-6.057.413l-.094-.197c.08-.123.147-.228.26-.323a4.3 4.3 0 0 1 1.32-.726c1.137-.385 6.196-1.329 7.237-1.23-.18.46-1.72.991-2.132 1.538-.015.188-.072.285.055.443.294.365.832.494 1.265.622 2.293.675 3.823.248 6.048.408 1.098.08 2.066.4 3.186.304 2.388-.203 4.842-1.154 7.24-1.017 1.74.1 2.848-.692 4.281-1.56-2.528-.377-4.873-.714-7.42-.218-1.259.245-2.703.756-3.978.746-1.097-.009-2.511-.69-3.614-.927-1.216-.262-2.474-.417-3.7-.647-1.27-.238-2.315-1.33-3.59-1.364-3.078-.085-5.803.293-8.824.733-1.11.162-1.94.944-3.053 1.072-1.98.228-4.12-.5-5.643-1.736 1.835.51 3.872 1.058 5.785.665.778-.16 1.73-.795 2.502-.686l.096.328.17-.052.092-.272c.37-.391 4.082-1.416 4.83-1.586.726-.166 4.955-.694 5.265-.496-.275.35-.578.691-.753 1.103.02.034.037.07.061.102.757.99 3.932 1.686 5.153 1.624 1.512-.078 2.352-1.154 3.694-1.621 2.13-.742 7.22-1.685 9.446-1.567 1.588.084 3.15.46 4.737.579 3.85.286 5.676.046 8.649-2.502-2.443.115-4.936.565-7.375.525-2.615-.043-5.271-.776-7.873-.517-1.534.153-3.071.515-4.592.773-1.223.208-2.481.327-3.686.625-.934.231-1.828 1.028-2.769.995-1.19-.041-2.355-1.027-3.413-1.518-1.633-.757-3.356-.88-5.126-.766-1.767.115-3.742.333-5.4.989-1.687.667-2.433 1.937-4.459 1.92-1.77-.014-4.549-.932-5.815-2.18 2.54.995 5.214 1.695 7.868.704.66-.246 1.17-.783 1.853-.967.106.167.153.244.319.361l.097-.53a3.8 3.8 0 0 1 1.073-.874c.892-.487 1.938-.727 2.931-.903 4.155-.738 5.237 1.288 8.71 2.233.105-.178.12-.208.307-.317l.127.45.237-.032c.016-.065.043-.127.048-.194.006-.084-.01-.17-.014-.254.44.037.475.446.873.464 1.339.06 3.059-.624 4.358-.957 1.964-.503 4.054-1.038 6.076-1.21 2.594-.221 4.966.48 7.514.504 3.178.03 6.336-.53 9.525-.552.659-.523 1.29-1.082 1.927-1.63-1.29-.068-2.582-.279-3.874-.271-2.581.015-5.168.395-7.755.384-3.141-.014-5.822-.478-9.089-.206-2.444.204-4.75 1.166-7.229 1.291-1.456.074-2.24-.278-3.295-1.218-1.538-.217-12.342-.416-13.26.106-1.06.6-.48 1.731-2.06 2.333-2.39.912-3.511-.09-5.592-.859-.357-.132-.708-.147-1.063-.305l.1-.118c1.191.397 2.697.653 3.95.71 1.995.092 3.074-.502 4.496-1.809-3.316-.002-6.636-.194-9.955-.226-1.09-.011-2.39-.15-3.459.04q.578.224 1.139.487c-.295.274-1.83.24-2.323.276-6.271.463-12.498.152-18.76-.266-1.767-.117-3.52-.412-5.289-.478q-5.617-.165-11.235-.056c3.638 1.577 5.992 2.912 10.058 1.652.82-.254 3.21-.733 3.958-.342l-.035.167c-.88.485-2.564.713-3.6 1.012-2.328.67-5.102 1.216-7.433.248-.855-.356-1.65-.963-2.431-1.457-.987-.625-1.956-1.138-3.143-1.252-1.969-.19-8.514-.355-10.135.303-1.868.76-3.173 1.976-5.263 2.31-2.038.327-3.668-.626-5.63-.603-1.984.024-3.966.847-5.949 1.06-3.35.361-5.134-.473-8.262-.791l-.118-.011zm61.603-173.199q-1.438.105-2.869.288-1.43.183-2.85.444-1.418.26-2.82.599t-2.784.752-2.738.903-2.685 1.052-2.624 1.197-2.554 1.338c-1.616.91-3.268 1.876-4.629 3.147 1.263.108 5.027-.11 5.88.347-.915.375-5.589.53-6.563.209-.042-.014-.08-.034-.12-.05-1.203.517-2.38 1.916-3.335 2.819 1.829-.037 6.401-.111 7.98.478l-.367.068.232-.098c-.55.32-7.683.478-8.91.422-.907.691-1.674 1.544-2.462 2.364l.184.023c1.624.194 8.186.182 9.054.627l-.08.18c-1.631.431-8.259.342-10.311.345-.686.798-1.352 1.614-1.918 2.504 1.692-.014 9.318-.072 10.306.492-.601.509-9.79.519-11.133.433-.55.78-1.118 1.552-1.642 2.349 2.602.044 5.18.198 7.78.3.933.036 2.067-.105 2.97.096l.08.225c-.25.303-.433.333-.824.371-1.237.12-2.537.013-3.783.04-2.322.05-4.634.157-6.958.133-.448.708-1.327 1.794-1.455 2.599.242.047.276.035.5-.078.504-.255 9.78.251 10.757.448l.038.133c-1.309.547-10.439.849-11.676.353-.635.695-1.016 1.848-1.435 2.696 1.614-.156 10.748-.128 11.71.41l.001.185c-.245.147-.218.172-.521.155-.946-.055-1.977.12-2.931.174-2.828.162-5.988.427-8.792.056l-.894 2.465c1.802-.026 10.816.022 11.95.525l.066.175c-.073.066-.13.155-.22.197-.593.277-11.024.386-12.281.364-.264.768-.53 1.535-.759 2.314 3.352.035 6.683.091 10.03.268.737.039 1.586-.097 2.3.05l.178.268c-.2.252-.394.418-.722.464-.902.125-1.968-.006-2.895.023-3.056.095-6.165.335-9.216.09l-.578 2.323c1.615.07 12 .255 12.602.563l-.019-.015.082.418c-1.163.469-11.155.563-13.02.556-.079.741-.135 1.492-.262 2.227 1.978.028 11.419-.027 12.766.395l.09.15c-.171.298-.396.422-.718.52-.809.246-2.081.117-2.945.146l-9.332.286c-.032.649-.053 1.301-.098 1.95l.142.03c2.78.543 10.814-.103 12.544.745l.072.197c-.12.184-.081.207-.311.26-1.62.377-7.183.358-9.14.355-.864 0-1.982-.159-2.811.014-.26.054-.296.134-.451.332-.105.62.099 1.269.225 1.877 2.13.01 11.281-.034 12.543.814l.034.139c-.98.565-10.47.44-12.404.406l.179 2.272q4.754.007 9.5.263c.747.039 1.64-.034 2.361.107.29.056.38.112.584.306l.025.307c-.632.465-10.494.413-12.208.325.102.714.221 1.396.41 2.093l.125.027c2.191.44 11.058.131 12.171.738l.093.253c-.101.202-.039.186-.235.238-.436.114-.966.045-1.424.076-3.421.229-6.903.226-10.331.163.252.776.539 1.493.895 2.226 2.323.069 9.823.065 11.652.758l.08.172c-.86.65-9.526.564-11.21.587.3.744.586 1.496.932 2.22q4.118.031 8.224.348c.843.06 1.776.025 2.602.177.284.052.475.13.686.336l-.036.218c-1.022.498-9.245.306-10.885.298l1.466 2.489c2.06.057 9.641.105 11.049.691l-.063.145c-1.676.629-8.244.334-10.299.291.532.86 1.043 1.749 1.616 2.582 1.837-.003 3.687.166 5.524.245 1.329.058 2.882-.032 4.173.237.245.05.396.144.58.314-.22.25-.482.245-.81.276-1.678.162-7.462.199-8.924-.094.65.89 1.273 1.848 2.016 2.66 2.565.045 7.107-.112 9.477.605l.109.158c-1.032.54-7.242.319-8.698.172.888 1.069 1.919 1.996 2.93 2.945 2.756-.11 5.639-.307 8.331.373l.087.112c-1.503.534-5.922.322-7.666.259 1.115.978 2.258 1.963 3.476 2.811l.17.021c1.184.138 6.308-.129 6.937.42-1.834.463-4.4.143-6.337.166 1.704 1.116 3.39 2.308 5.188 3.267 3.453 1.846 6.957 3.092 10.69 4.23 5.838 1.781 11.094 2.925 17.235 2.751 6.103-.183 11.702-1.636 17.442-3.66 2.453-.864 4.896-1.775 7.204-2.982-.612.028-1.345.141-1.94-.001l.048-.126c.941-.266 1.915-.31 2.856-.55 1.433-.364 3.369-1.805 4.446-2.8-.979.046-4.268.315-4.912-.133-.123-.085-.083-.086-.088-.247.355-.224.886-.135 1.297-.137 3.704-.017 5.426-.05 8.113-2.86-2.12-.112-5.864.013-7.761-.666 2.833-.587 5.985-.37 8.878-.45 1.008-.768 1.923-1.623 2.713-2.616-1.25-.021-8.095-.038-8.757-.578l-.07.06.179.087.084-.216c2.96-.65 6.487-.404 9.529-.36.78-.857 1.54-1.75 2.173-2.723-2.208.095-8.055.266-9.84-.366l-.017-.125c1.702-.66 8.572-.657 10.544-.491.662-.805 1.199-1.682 1.75-2.563-2.416.02-9.486.101-11.444-.669 3.977-.836 8.2-.247 12.214-.693l1.253-2.353c-1.63.232-9.727-.033-11.307-.45l-.094-.081c.735-.71 10.29-.71 11.946-.803a36 36 0 0 0 1.059-2.31c-1.65.01-10.52-.003-11.363-.641-.03-.022-.052-.052-.078-.078l-.194.012c1.578-.765 9.92-.687 12.186-.681.29-.808.575-1.607.79-2.437-2.137.033-10.513.23-12.03-.466l.052-.158c1.567-.612 10.354-.699 12.352-.68l.586-2.263c-1.406 0-11.714-.134-12.2-.404l.033-.244c.851-.581 10.578-.678 12.387-.652.121-.794.278-1.602.341-2.403-1.629.126-11.605.121-12.41-.445.026-.213-.025-.214.135-.319.594-.39 10.92-.51 12.507-.672.031-.703.05-1.408.1-2.11-1.615.128-11.574.195-12.545-.399l-.033-.208c.282-.304.465-.391.884-.41.728-.034 1.46.028 2.19.002 3.18-.113 6.343-.243 9.525-.272l-.033-2.166c-2.58.023-10.81.27-12.76-.61l-.146-.183c.937-.486 10.869-.74 12.71-.72q-.076-1.06-.19-2.119c-1.831-.024-11.479.1-12.555-.538l-.101-.243c.224-.285.315-.246.678-.291 1.78-.224 10.963-.127 11.563-.477-.034-.704-.21-1.386-.295-2.086-2.06-.009-11.686-.044-12.932-.511l.041-.199c1.795-.704 10.161-.623 12.457-.716-.244-.758-.488-1.49-.829-2.212-1.541.037-11.345.048-12.402-.42l-.042-.142c.46-.48 1.082-.392 1.694-.406 3.414-.073 6.82-.374 10.236-.359-.3-.731-.576-1.48-.951-2.177-2.76-.015-5.499-.109-8.255-.227-.774-.034-1.607.079-2.366-.025a5.3 5.3 0 0 1-1.327-.37l-.127-.158c.946-.376 9.716-.566 11.417-.612l-1.233-2.239c-1.891-.05-10.755-.025-11.834-.643l.016-.108c1.344-.506 9.133-.55 11.067-.502l-1.185-2.333c-2.66-.066-5.301-.19-7.958-.298-1.142-.047-2.427.128-3.529-.186l-.11-.148c.82-.49 9.32-.523 10.835-.484-.669-.748-1.25-1.546-1.835-2.361q-3.669-.158-7.34-.244c-.89-.017-2.12.128-2.97-.035-.175-.033-.343-.12-.502-.195l-.102-.193c1.13-.466 8.528-.4 10.217-.343q-1.042-1.284-2.098-2.556c-2.375-.194-4.777-.17-7.159-.217-1.366-.027-2.744.005-4.091-.247 3.253-.818 6.88-.005 10.165-.597-.909-.91-1.794-1.817-2.852-2.557-2.895-.104-6.439.005-9.257-.407l-.037-.1c1.603-.431 6.733-.343 8.593-.278-1.047-.914-2.077-1.903-3.237-2.67-1.338-.088-2.674-.172-4.016-.184-.813-.007-1.66.08-2.468.012a2.1 2.1 0 0 1-.957-.287l.014-.138.148.023c1.97.273 4.24-.038 6.225-.142-1.785-1.436-3.75-2.568-5.761-3.652-8.367-4.51-18.125-6.806-27.645-5.987m75.713 20.557c-3.135.974-5.757 1.88-9.066 1.286 1.59 1.592 3.458 2.729 5.091 4.232-.06 4.437.182 8.911.294 13.35l.75 28.287q1.155 47.382 2.86 94.746.099 1.944.242 3.884c1.63-1.439 3.149-2.957 4.662-4.516.032-4.506-.33-9.065-.51-13.57l-.839-23.666-2.455-80.995c-.059-2.422-.403-22.5-.742-23.037zm-144.608.15c-.166 1.171-.124 2.411-.154 3.595l-.159 6.51-.562 25.427-1.954 64.663q-.318 13.807-.79 27.608-.124 5.645-.324 11.287c-.041 1.276.004 2.571-.078 3.843 1.423 1.477 2.918 2.863 4.3 4.382.209-2.427.143-4.88.21-7.314l2.813-95.226.668-25.083c.157-4.985.499-10.02.453-15.003 2.556-1.086 4.9-2.405 7.306-3.78-3.748.628-8.148.45-11.73-.909m133.544.717c-.001.473-.086 1.044.211 1.438.332.173.64.265 1.003.355.046-.516.188-1-.105-1.441a9 9 0 0 0-1.109-.352m-122.1 1.949c-1.842 4.917-1.211 10.564-1.222 15.697-.015 6.508.195 13.017.178 19.523.297-.465.57-.962.968-1.348l.954-.658-.013-2.771c-.317.181-.632.436-1.01.38-.14-.22-.163-.253-.099-.521.16-.664.638-1.282 1.034-1.829.094-1.993-.667-28.202-.79-28.473m122.09.084c-.029.423-.11.887.18 1.24.236.286.633.482.95.662.045-.5.162-1.024-.065-1.49-.33-.276-.658-.325-1.065-.412m-.082 1.934c-.023.376-.098.835.173 1.141.266.3.728.516 1.073.714.023-.44.093-.827-.15-1.22-.338-.271-.708-.444-1.096-.635m-.059 2.115c.014.434-.026.668.201 1.045.236.086.438.157.689.181-.16-.623-.318-.883-.89-1.226m1.182 1.167.108.067zm-1.182.568c-.006.377-.073.864.105 1.205.293.066.518.028.811-.01l.172.43c.236-.213.3-.343.391-.646-.066-.308-.12-.5-.412-.667-.32-.183-.71-.244-1.067-.312m.036 1.938c-.037.455-.148.755.095 1.15.423.215.78.405 1.132.727.022-.461.157-1.172-.109-1.562-.383-.217-.717-.195-1.118-.315m-.248 1.816c-.001.43-.07.933.202 1.288.403.231.832.348 1.237.561l.028-1.387zm.005 1.993c-.02.46-.094.93.146 1.343.329.304.787.355 1.212.45.008-.417.082-.845-.174-1.2-.377-.263-.775-.394-1.184-.593m-.021 1.873-.023 1.67c.423.22.85.51 1.34.507.047-.522.167-1.014-.21-1.441-.256-.29-.773-.534-1.107-.736m-.053 2.425c-.013.599-.094 1.165.362 1.635.179.185.394.265.625.362l.158-.11.004-.103c.159-.412.24-.534.165-.98-.289-.432-.853-.599-1.314-.804m-.037 2.166c-.048.558-.103 1.031.313 1.474.217.23.627.45.942.46.057-.452.184-.945-.037-1.364-.353-.311-.779-.42-1.218-.57M69.85 80.066q.195 7.31.292 14.621l.143.08c.188-1.478.066-14.225-.296-14.591-.041-.043-.093-.073-.14-.11m114.08.516c-.124.416-.133.701.06 1.103.139.287.29.509.557.681.203-.438.354-.785.398-1.269-.115-.26-.133-.417-.435-.503-.161-.045-.411-.016-.58-.011m-1.439.52c-.016.403-.081.773.147 1.129.284.178.457.189.78.213-.264-.47-.497-1.004-.927-1.342m6.006-.019c-.025.514-.13 1.076.134 1.536.34.274.709.37 1.12.501.024-.467.12-.991-.144-1.4-.357-.249-.733-.423-1.11-.636m-2.712.59-.083.39c.086-.004.175.005.256-.022l-.003-.384zm2.623 1.628c-.029.566-.075 1.136-.063 1.703.474.197 1.005.368 1.416.679.014-.51.042-1.024.034-1.534-.449-.29-.9-.625-1.387-.848m-3.378.969c.032.444.02.849.279 1.231.289.189.45.254.794.284.038-.431.151-.95-.054-1.342-.304-.234-.655-.177-1.02-.173m-1.244.018c-.05.471-.129.928-.014 1.395l.166-.004c.061-.395.214-.93.065-1.305zm-1.327.39c.044.495.026.974.46 1.3.18.137.264.119.477.145-.239-.496-.457-1.146-.937-1.445m5.831 1.037c.037.51.063.997.03 1.507l1.476.707c-.028-.475.026-1.217-.323-1.578-.29-.3-.809-.468-1.183-.636m-.028 2.218c-.021.605-.13 1.23.257 1.744.242.322.891.589 1.246.78l-.026-1.643c-.483-.313-.954-.638-1.477-.881m-2.654.21c-.236.213-.453.313-.442.662.009.317.195.614.324.892.048.106.075.239.155.325.224-.41.541-.858.56-1.333-.175-.35-.247-.357-.597-.546m-2.64.13c-.198.746-.206 1.457-.226 2.221.573-.029 1.103 0 1.6-.32l-.142-.26c-.3.128-.498.29-.822.204-.306-.472-.16-.887-.048-1.4.051-.237.06-.11-.063-.366zm1.49.423v.199l.109-.042.024-.191zm3.81 1.754c-.02.528-.088.99.208 1.457.296.196.747.361 1.107.304.076-.369.199-.621-.024-.97-.233-.367-.907-.608-1.29-.791m-3.314 1.72c-.257.595-.355 1.1-.142 1.724.252.203.276.234.612.195.024-.002.046-.013.07-.02.21-.352.436-.71.388-1.14-.038-.34-.215-.447-.451-.657zm-1.984.2c.005.4-.055.909.18 1.244.26.09.3.087.569.029.085-.433.214-.743.073-1.167-.285-.148-.51-.115-.822-.105m39.377.017c-3.611 1.849-7.228 4.049-10.637 6.254-1.734 1.121-3.502 2.577-5.36 3.454l-.09.176.087.066c1.073-.194 1.984-.477 2.948-.992 1.265-.676 12.618-8.28 13.05-8.784.034-.038.05-.089.074-.133zm-34.113.244c-.008.398-.082.869.2 1.188.326.369.96.562 1.405.755-.049-.553-.016-1.143-.481-1.528-.256-.212-.805-.321-1.124-.415m-118.096 3.72q.106 17.149.525 34.293l.153 8.82c.019 1.252-.047 2.526.042 3.773l76.353.023 23.79-.043c4.639-.024 9.351-.21 13.983-.025.53-13.695.641-27.392.943-41.091.012-1.904-.05-3.836.043-5.736-1.566.188-3.278.104-4.852 0-.982 3.304-1.971 6.516-3.395 9.664q-.235.505-.48 1.006-.243.5-.498.996-.255.495-.519.986-.264.49-.539.975-.274.485-.559.965-.284.479-.577.952-.294.473-.598.94-.303.468-.615.93-.313.46-.635.915t-.653.903-.672.89q-.34.44-.689.875-.349.434-.706.861-.358.427-.724.847-.367.42-.741.833-.375.412-.758.816-.383.405-.774.802t-.79.785q-.399.39-.806.77t-.821.753q-.415.372-.837.736-.421.364-.85.72-.43.355-.866.701t-.88.684-.893.666-.906.648-.92.63-.932.61-.944.592-.956.572-.968.553-.978.534q-.59.32-1.189.626t-1.205.598-1.218.567q-.613.276-1.233.537-.62.26-1.245.506-.626.245-1.258.475-.631.23-1.269.445-.637.214-1.28.412-.642.198-1.289.38-.647.183-1.298.35t-1.307.316-1.314.284-1.32.25-1.327.22-1.332.185-1.335.152q-.67.069-1.34.12t-1.341.086-1.344.053-1.344.02q-.672.001-1.344-.014t-1.344-.046-1.342-.08-1.34-.114-1.336-.146-1.332-.18-1.328-.212-1.322-.245-1.315-.278-1.308-.31-1.3-.343-1.291-.375c-14.964-4.458-25.466-13.597-32.814-27.173-1.981-3.66-3.166-7.82-4.25-11.824-.712.02-4.002.36-4.472-.053-.115-.101-.183-.195-.276-.313m-2.415.301c-.564.562-1.06.677-1.824.823-.033 3.652.092 7.312.146 10.964q.07 9.51.286 19.02l.814 49.1q.32 11.993.428 23.99c.032 1.96.145 3.916.159 5.875.626.003 1.257.02 1.882-.003.16-8.112-.276-16.198-.393-24.305l-.93-53.747-.323-22.269c-.041-2.633.202-6.982-.245-9.448m120.523.293c-.063.453-.14.676.026 1.109.426.323.92.456 1.344.767.029-.447.102-.833-.15-1.23-.37-.293-.792-.457-1.22-.646m-.101 1.868c-.044.547-.123.998.3 1.421.267.266.797.461 1.165.435-.093-.471-.098-1.013-.504-1.327-.273-.21-.654-.37-.962-.529m-.128 1.989c-.005.474-.066.743.169 1.162.413.284.858.411 1.315.605-.022-.444.022-.681-.32-1.014-.31-.301-.795-.531-1.164-.753m-.037 1.895c.004.443-.076.722.197 1.08.26.08.533.151.789.24s.365.21.543.405c-.02-.415.034-.712-.263-1.045-.284-.319-.88-.511-1.266-.68m-.108 1.316c.225.3.292.443.683.526.18.04.428.003.614-.009-.368-.442-.763-.463-1.297-.517m-162.295.155c-.006.206-.075.523.063.684.745.865 4.35 1.865 5.542 2.172-.585-.867-4.465-2.253-5.605-2.856m162.447.751c-.1.877-.183 1.329.4 2.057.227.283.42.429.765.535l.107-.136c-.199-.404-.601-.63-.958-.885l-.195-.194.061-.22c.543-.013.743.597 1.279.622.179-.381.07-.964.049-1.38zm-.134 2.123c-.02.428-.077.774.166 1.153.4.355.966.395 1.484.433-.14-.614-.552-.928-1.08-1.264a6 6 0 0 0-.57-.322m-.012 1.542c.02.45-.041 1.052.25 1.416.423.249.9.43 1.236.793.063-.388.25-.875.011-1.228-.3-.443-1.052-.673-1.497-.981m-.01 1.869-.003 1.584c.443.228.99.604 1.493.611.105-.27.073-.239-.001-.496l-.35-.046-.105-.156q.26-.12.515-.251c-.26-.522-1.115-.815-1.548-1.246m-.08 2.353c-.022.44-.106.872.144 1.258.46.282 1.006.22 1.514.363.008-.408.084-.658-.23-.98-.312-.321-1.009-.492-1.429-.64m-.072 1.814c.039.449.003.624.287.985.43.14.88-.036 1.283-.2-.236-.477-1.097-.505-1.57-.785m-151.653.87c2.337 1.39 10.16 5.644 12.435 5.888-.061-.324-.047-.664-.335-.875-.863-.63-10.92-4.81-12.1-5.013m151.55.415c.239.34.344.459.757.558.366.087.78.104 1.154.143-.052-.192-.043-.386-.22-.497-.459-.288-1.171-.279-1.691-.204m44.499-.022c-4.249 1.369-8.407 3.166-12.474 4.996-1.264.569-2.723 1.092-3.876 1.85v.127l.16-.007c4.662-1.091 8.237-2.704 12.488-4.832 1.31-.655 2.651-1.26 3.915-2.002l.034-.14zm-44.425.87c-.008.464-.062.816.232 1.196.328.27.819.306 1.236.279.069-.005.136-.022.204-.033.013-.381.079-.544-.228-.84-.33-.32-1.011-.462-1.444-.601m-.034 3.532c-.03.532-.137 1.476.22 1.932.08.103.187.177.29.256.191-.041.41-.084.537-.253.061-.082.118-.225.16-.32l.121-.131-.374-.082c.177-.306.183-.298.12-.644-.343-.277-.708-.515-1.074-.758m-.072 2.225c-.002.314-.08 1.083.145 1.324.255.275.713.428 1.055.581.025-.425.13-.969-.107-1.336-.355-.229-.74-.355-1.093-.57m-.052 1.813c-.03.457-.123.921.141 1.324.377.27.774.473 1.185.684-.035-.47-.006-.976-.352-1.337-.126-.131-.309-.225-.46-.325-.173-.112-.342-.231-.513-.346m.011 1.522c-.016.584-.041 1.169-.044 1.753.357.278.616.463 1.054.581.23.062.418.19.617.315-.042-.558-.014-1.008-.462-1.404-.192-.17-.395-.325-.596-.483-.298-.232-.406-.42-.569-.762m39.242 2.444c-3.17.494-9.022 2.15-11.65 4.05l.056.137.528-.02a15 15 0 0 0 2.641-.604c.846-.276 8.775-3.397 8.972-3.582zm-39.306.02c-.057.548-.224 1.255.018 1.763.398.324 1.159.368 1.663.452.212-.241.124-.552.12-.867-.246-.517-1.284-.702-1.802-1.349m-142.816.625h.153zm142.707 1.865c-.02.5-.105.993.165 1.436.311.189.477.22.85.122.29-.076.55-.187.814-.328l.065-.346c-.449-.552-1.306-.47-1.894-.884M23.681 132.6c.113.317.12.597.462.73 1.199.47 6.969.989 8.573 1.132-2.597-1.151-6.218-1.406-9.035-1.862m163.655.19c-.008.532-.05 1.011.163 1.51.262.226.374.317.746.303.107-.004.216-.05.315-.087.068-.371.07-.577-.124-.916-.224-.392-.716-.612-1.1-.81m1.813.328.108.07zm44.2.185c-1.582.242-3.21.63-4.795.766l-.12.107.09.07c1.181-.033 3.986.154 4.972-.36.027-.314.025-.318-.147-.583m-200.513 1.135h.187zm154.442.431c-.056.488-.187 1.022.025 1.482.222.132.326.136.58.116l-.002-.138a4.4 4.4 0 0 1 .113-1.127c-.214-.283-.378-.256-.716-.333m-144.584.422c1.212.601 4.232 1.328 5.618 1.473-.045-.325-.017-.516-.237-.772-1.751-.381-3.602-.473-5.38-.7m145.927.261.037.075zm-1.488 1.535c.028.364.001.723.258 1.008.32.042.171.058.448-.028.101-.357.163-.38-.008-.702-.232-.097-.46-.197-.697-.279m.01 1.463c-.026.47-.13 1.102.155 1.51.163.231.492.387.776.384.147-.002.28-.043.416-.092.097-.437.137-.482-.088-.858-.272-.456-.773-.757-1.258-.945m-.048 2.255c.025.427-.02.79.314 1.115.397.388 1.035.48 1.566.521-.122-.423-.156-.913-.564-1.15-.346-.202-.923-.309-1.316-.486m33.45.516c-2.47.246-11.685.861-13.224 2.151l-.053.24c.3.215.464.192.826.223 3.573-.12 7.112-1.132 10.583-1.92.943-.213 2.109-.312 2.97-.72-.375-.086-.726-.02-1.102.026m-33.421 1.45c-.003.434-.1.92.162 1.269h.122c.451.008.766.096 1.178.272.133-.354.169-.424.103-.79-.373-.412-1.056-.537-1.565-.75m-150.86.277c1.35.438 10.545 2.17 11.557 2.024.04-.302.157-.652.025-.929-3.793-.604-7.743-.958-11.582-1.095m147.61 1.296c.21.19.374.446.679.417.031-.003.057-.028.086-.041-.291-.293-.356-.29-.766-.376m3.243.478c-.024.358-.129.881.073 1.184q.398.047.796.105c.25.036.142.032.372.012l-.05-.117-.132-.324.29-.453c-.452-.157-.909-.208-1.35-.407m.014 1.976c.048.363.127.621.433.853.304.23.677.361 1.029.497.019-.411.061-.722-.156-1.093-.377-.273-.858-.237-1.306-.257m-.036 1.585c.015.438-.06.876.291 1.204.21.197.817.478 1.112.462-.069-.466-.022-.934-.425-1.241-.239-.183-.695-.31-.978-.424m40.375 1.42c-5.734.183-11.726.276-17.332 1.577 1.446.17 2.877.368 4.335.362 2.357-.164 15.052-1.065 16.464-1.638l.12-.181c-.529-.385-2.839-.136-3.587-.12m-80.624.487c-1.553.219-2.8.706-3.784 2.003-.89 1.174-1.19 2.619-.967 4.064.22 1.43.947 2.792 2.159 3.619.843.574 1.859.85 2.873.847 1.508-.18 2.772-.68 3.742-1.912.954-1.209 1.295-2.85 1.057-4.357-.22-1.394-.979-2.722-2.159-3.52q-.16-.107-.327-.201-.168-.094-.344-.173t-.357-.142-.368-.112-.376-.078-.381-.046-.385-.013-.383.02m29.634.149c-.756.617-3.445 8.745-3.98 10.168l2.394.042c.268-.756.553-1.509.804-2.27l3.208-.038c.197.04.356.008.47.192.323.519.439 1.423.608 2.035.893.006 1.786.021 2.678.019-1.402-3.343-2.36-6.885-3.793-10.207-.796.019-1.595.022-2.389.059m-101.765.085c-.145 1.74-.047 3.513-.042 5.258.005 1.636-.072 3.288-.015 4.921l2.281-.066q-.073-3.112.056-6.221 1.821 3.123 3.588 6.276l2.524-.054c.284-3.1.053-6.856.05-10.019L81 150.62c0 2.061-.07 4.156.085 6.21-1.456-2.05-2.712-4.111-3.963-6.289-.802-.012-1.606-.04-2.407-.017m15.142 0c-1.352.288-2.509.906-3.302 2.073-.85 1.25-1.054 2.9-.71 4.356.308 1.299 1.076 2.433 2.24 3.109 1.149.666 2.397.782 3.688.611 1.493-.469 2.696-1.188 3.464-2.617.67-1.25.783-2.847.355-4.193-.4-1.26-1.287-2.348-2.486-2.92-1.023-.488-2.141-.52-3.249-.42m17.319-.007-.007 1.983 2.996-.007q-.07 4.061-.047 8.123l2.39.043-.013-2.628-.002-5.532c.955-.018 1.914-.02 2.865-.12l.003-1.848c-2.726.006-5.461-.054-8.185-.014m10.579-.011c-.004 3.308.24 6.865-.14 10.138l2.503-.018c-.088-1.427-.167-2.861-.09-4.29 1.208-.008 2.414-.022 3.621.034q.026 2.184-.02 4.367h2.143l.289-.094c.227-1.142.128-8.724-.066-10.14l-2.26.003q-.023 1.981-.124 3.96c-1.192.001-2.39.028-3.58-.018l.004-3.942zm14.665.045c-.361.484-.17 8.827-.166 10.123.817.028 1.635.068 2.453.052l-.07-3.504c.305-.344.606-.68.943-.992.78 1.517 1.771 2.908 2.626 4.381l2.759-.022-1.032-1.795c-.928-1.355-1.947-2.648-2.855-4.015l.13.077-.127-.147q1.802-2.14 3.687-4.207c-.925.007-1.857-.01-2.78.029-1.167 1.287-2.264 2.633-3.374 3.969-.066-1.318-.043-2.632-.024-3.95zm22.057-.059q.032 5.026-.038 10.05c.809.015 1.621.017 2.43.063.002-.964-.223-2.675.115-3.539.372-.15.408-.162.798-.08.816.595 1.802 3.357 2.233 3.517.142.053.303.02.454.03l2.413-.008c-.81-.944-2.368-3.165-2.733-4.306.497-1.335 2.474-1.679 1.271-4.134-.351-.717-1.04-1.134-1.786-1.351-1.6-.466-3.505-.268-5.157-.242m10.15.005-.11 10.119c2.191.022 4.388.095 6.58.093l-.004-1.955c-1.303-.008-2.696.084-3.984-.101-.173-.306-.125-.657-.12-.997 0-.484-.07-.822.198-1.242.947-.465 2.23-.145 3.28-.166l.028-1.752-3.502.001-.059-2.111c1.313.001 2.63-.022 3.942.018l-.024-1.887zm22.329.013c.257.287.335.42.738.47.121.014.32 0 .447-.005-.26-.307-.449-.411-.854-.448q-.165-.013-.331-.016m-88.742.087c-.084 3.346.045 6.677.034 10.021l2.367.08c.002-1.155-.03-2.32.076-3.471l.21-.172-.27-.049.073.125.097-.317c.516.115.733.343 1.01.77.464.719 1.104 2.722 1.867 3.021.018.007.038.006.057.008l2.618.097c-.893-1.453-1.99-2.827-2.82-4.302.78-.563 1.423-1.075 1.588-2.09.134-.826-.012-1.816-.513-2.503-.566-.775-1.52-1.085-2.436-1.195-1.291-.156-2.658-.055-3.958-.023m-72.229.712.053.567c.892.485 13.943.265 15.834.097l-.088-.161c-1.83-.188-3.695-.228-5.533-.326-3.421-.181-6.842-.375-10.266-.177m162.559.06.129.069zm-1.41.67c-.024.48-.107.958.137 1.393.378.345.824.486 1.244.763l-.025-1.588zm-.112 2.235.065.803c.203.131.377.196.603.278l.098.126-.378.057-.002.182c.27.222.486.335.803.466.255-.216.28-.312.402-.63-.046-.433-.141-.608-.488-.877-.291-.226-.754-.309-1.103-.405m1.308 2.288h.17zm-1.019.007c.131.505.216.919.707 1.198.184.104.218.102.418.164-.05-.376-.037-.733-.366-.99-.208-.163-.511-.282-.759-.372m40.135.487c-1.368.027-5.383.284-6.48.873.659.047 1.254.041 1.91-.025 1.817.008 4.668.306 6.346-.214.145-.24.13-.238.082-.517-.44-.346-1.274-.203-1.806-.13q-.027.004-.052.013m-40.308.874c-.011.472-.122.897.198 1.29.236.291.532.376.874.47l.116-.109-.041-.198.162-.45c-.293-.407-.905-.685-1.309-1.003M46.097 159.3c-3.356.37-6.78.678-10.102 1.266.544.082 1.111.046 1.661.041 3.293.017 6.593.077 9.885.011.038-.408.152-.908-.058-1.274-.354-.222-.977-.101-1.386-.043m141.033.498-.01 1.437c.473.259.964.504 1.406.812.03-.594.105-1.202-.364-1.66-.263-.256-.692-.457-1.032-.589m.04 2.145-.152 1.705 1.517.571c.024-.455.135-1.041-.182-1.41-.305-.353-.798-.607-1.183-.866m-.098 2.448c-.024.466-.031.905.013 1.369.48.238.983.458 1.449.72.016-.487.052-.982.044-1.47zm26.154 1.031-1.093.147c1.59.34 3.297.423 4.919.612 2.165.253 4.348.593 6.519.766l.522.032c-.665-.744-5.063-1.565-6.217-1.63-1.499-.083-3.16-.113-4.65.073m-26.118 1.113c-.007.596-.069 1.028.382 1.489.243.248.7.54 1.047.548.013-.469.04-.942.033-1.411-.488-.202-.989-.39-1.462-.626m-148.279 2.27c-2.305.326-4.642.279-6.951.538l-.084.166-.157-.118-.07.132.352.785c.906-.15 6.649-1.006 7.015-1.436zm.683.048.19.053c-.167-.067-.102-.079-.19-.053m147.599-.048c.009.425-.06.86.263 1.196.26.27.744.509 1.091.637.042-.406.13-.765-.093-1.132-.395-.31-.853-.424-1.262-.701m-114.356.377c-.426.012-.93-.046-1.31.152-.18.327-.25.405-.236.788.271.367.559.464.996.538 1.164.196 2.51.054 3.692.04q3.02-.031 6.04-.022 11.956.13 23.911.054l76.183.018c.686.017 2.203.271 2.714-.242.12-.12.18-.334.181-.501.002-.342-.137-.447-.36-.662-.929-.306-18.828-.097-21.089-.099l-58.896-.005-20.178-.008c-3.877-.001-7.774.079-11.648-.051m114.4 1.499c-.017.455-.094.875.188 1.264.322.207.666.177 1.031.113.168-.03.175-.037.313-.083-.245-.553-1.007-.987-1.532-1.294m.029 1.974c.005.418-.089.965.226 1.285.28.286.89.49 1.256.712.006-.382.111-.81-.183-1.108-.342-.349-.907-.577-1.299-.89m-115.24.279-.519.08c-.041.071-.107.134-.125.215-.084.38.115 2.457.12 3.051l.19 12.385c.035 2.453-.028 4.95.12 7.396l42.044.058c.845-4.959 1.8-8.587 6.143-11.648 2.935-2.068 6.639-3.155 10.21-2.5q.352.064.701.146t.693.18.683.214.672.248.659.28.644.313.628.344.61.375.59.405.571.433.548.46.525.488.5.512q.243.262.474.537.23.274.447.559.216.285.419.58c1.67 2.446 2.152 5.042 2.26 7.948 9.724-.036 19.462-.198 29.184-.11 4.644.027 9.311.119 13.953.004l-.013-22.915c-3.51-.056-7.02.026-10.53.025l-20.944-.028-48.808.091-23.25.01q-3.167-.003-6.335-.046c-1.013-.022-2.057-.154-3.064-.09m115.224 1.853c.05.54.054.894.488 1.285.227.204.49.32.769.439l.293-.044c-.01-.408.056-.717-.258-1.036-.298-.303-.906-.484-1.292-.644m-140.393.986c-1.386.312-9.683 2.567-10.185 3.052l.316-.01c3.38-.538 7.021-.658 10.321-1.512.033-.47.143-1.038-.045-1.478-.154-.04-.247-.07-.407-.052m140.44.813c.01.218-.044.61.11.764.388.386.854.461 1.171.952l.226.054c-.033-.42.006-.632-.305-.96-.286-.302-.85-.573-1.202-.81m.137 1.568.086.103.03-.004zm-.115.797c-.014.433-.082.849.148 1.237.47.26.9.21 1.42.113-.1-.426-.108-.634-.407-.962-.379-.125-.798-.228-1.16-.388m-.027 2.1c.016.482.022.791.282 1.204.264.202.468.279.808.262.121-.006.198-.036.308-.071.018-.376.062-.644-.166-.97-.399-.232-.806-.279-1.232-.424m-.063 2c.096.407.077.573.4.851.37.031.642-.054.988-.161-.394-.407-.826-.608-1.388-.69m-60.795.745c-2.96.393-5.79 1.482-7.648 3.936q-.163.215-.316.438-.152.223-.294.454-.141.23-.27.467t-.248.48q-.118.244-.224.492-.106.249-.199.503t-.174.511-.148.52-.122.527-.096.531-.07.536q-.028.27-.042.539-.015.27-.016.54t.01.54.038.54.064.536c.403 2.664 1.98 5.338 4.183 6.91 2.352 1.679 5.59 2.494 8.45 1.995l.175-.032c3.258-.643 6.1-2.134 7.979-4.952 1.415-2.122 2.153-5.163 1.599-7.678-.597-2.708-2.542-5.135-4.871-6.576-2.398-1.483-4.976-1.973-7.76-1.757m61.815.445.14.071zm-.885.91c-.037.445-.05.825.263 1.181.21.24.352.332.664.369l.2-.115-.016-.25c-.016-.302.024-.56.079-.857-.3-.265-.799-.22-1.19-.327m.005 2.012-.04 1.058c.301.254.554.118.928.18.086-.28.123-.435.063-.724-.286-.299-.572-.384-.951-.514m.073 2.306c-.017.441-.101.942.153 1.323.263.145.432.205.731.232-.014-.434.036-.944-.234-1.303a4 4 0 0 0-.65-.252m3.399.1c.05.448.084.9.206 1.336l.196.096q.245-.196.482-.403c.203-.3.248-.296.193-.648-.329-.27-.673-.306-1.077-.381m18.946.524c.345.738 1.021.992 1.759 1.262l.184.066.157-.088.268-.517c-.179-.295-.381-.379-.707-.471-.508-.145-1.132-.221-1.661-.252m-163.408.385c-.292.186-.713.37-.848.702l.106.077c.342-.184.726-.292.9-.644zm163.93 2.099c-.26.287-.606.582-.702.967l.123.123c.31-.273.625-.484.733-.903zm-23.049.37c.208.34.408.747.708 1.008l.236-.013c-.027-.403-.007-.466-.255-.777-.227-.077-.454-.164-.689-.218m-47.383.924.12.066zm.043.397.098.115zm47.732.044h.116zm-47.862.471-.088.797.133.144.138-.04c.055-.369.029-.59-.183-.9m48.163.234.122.115.056-.006-.105-.132zm-.692.29c.036.434.03.768.316 1.122.24.13.46.257.719.344-.303-.463-.62-1.106-1.035-1.466m-47.623.738-.063.597.111.077.157-.053c.057-.345-.024-.34-.205-.62m-.076 1.393.002.222.144-.076.031-.256zm47.743-.019c.02.417-.026.764.33 1.064.254.213.492.255.806.22-.059-.562-.107-.56-.535-.902-.189-.15-.376-.294-.601-.382m-74.181.555c-1.132.435-37.536.212-41.29.146.027 2.792.022 5.576.26 8.36 1.841-.095 3.676-.092 5.52-.082q20.745-.116 41.491.019l-.07-.088c-.56-.687-1.217-1.284-1.805-1.947-1.499-1.69-2.346-3.617-3.052-5.74-.171-.512-.483-.534-.957-.687zm26.254-.163c-.114.659-.584 1.104-.646 1.733.09.123.177.255.28.367l.07-.212c.175-.513.515-1.027.531-1.573-.073-.113-.132-.226-.236-.315m2.204.328c-1.005 3.47-2.453 5.949-5.24 8.278l29.593-.013c4.713.005 9.518-.225 14.218.035 1.597.023 3.215-.122 4.804-.048q-.004-4.126.1-8.251zm51.176.174h.144zm-5.453 1.096c.01.378-.041.662.16.987l.214.017c.275.024.51.1.763.206-.039-.321-.13-.579-.38-.798a2.1 2.1 0 0 0-.757-.412m-48.787.378c-.506 1.057-1.015 2.078-1.812 2.952-.376.412-1.77 1.376-1.846 1.747l.335-.08c1.285-.958 3.162-2.463 3.57-4.117.04-.162.03-.183.02-.327zm49.936 1.957c-.315-.012-.834-.113-1.071.079l.115.107c.334.089.645.239.983.154.002-.115.025-.235-.027-.34m4.648.753.093.037zm-5.837.316c.192.454.325.803.703 1.13.14-.019.274-.03.409-.07.091-.357.113-.349-.056-.671-.338-.225-.67-.296-1.056-.389m-66.575.818.029.292c.303.19.629.178.975.202-.208-.118-.8-.525-1.004-.494m1.155.569c.042.358.03.468.33.71.161.13.404.224.592.315-.033-.296-.046-.586-.304-.788-.181-.142-.4-.187-.618-.237m65.587.503c.02.387-.034.607.213.915.357.037.675-.029 1.025-.091-.35-.412-.736-.63-1.238-.824m-64.223.174c.119.33.102.355.399.53l.165-.028.093-.214c-.217-.101-.434-.2-.657-.287m1.003.474c.339.343 1.337.335 1.836.355-.526-.208-1.286-.57-1.836-.355m11.105-.111c-.46.229-1.25.499-1.553.91l.13.101c.478-.233 1.185-.47 1.536-.87zm-1.827 1.072h.153zm-.625.25h.153zm-4.679 1.056.116.039zm1.555-.055h.152zm-2.248.125h.153zm1.18 0h.175zm5.333.512c-.498.002-.834.004-1.28.239l.035.107a6 6 0 0 0 .648-.068c.43.05.81.15 1.197-.091l-.096-.151c-.15-.016-.357-.064-.504-.036m-8.331.171.083.202.2-.084-.192-.137zm6.329.102-.165-.08.183.007.187.017zm-7.577-.036h.216zm.566-.002.224.001c-.205-.02-.137-.05-.224-.001m6.235.004.138-.001zm3.55-.015c.558.298 1.369.251 1.99.221l.155-.093c-.699-.106-1.44-.252-2.145-.128m-74.453.142-.194.119c.37.499 1.51.977 2.103 1.069 3.63.56 6.943 1.538 10.642.689 1.47-.337 2.939-1.212 4.456-1.223 2.907-.023 3.792 1.74 7.519.694.837-.384 1.627-.812 2.373-1.356q-9.018-.141-18.037.001c-2.954.033-5.908-.142-8.862.007m62.54-.004h.153zm46.558.248c.266.215.442.213.783.183.17-.015.252-.034.41-.064l-.095-.168a6.5 6.5 0 0 0-1.098.05m8.13 5.867c-2.522.185-6.251 1.414-8.466 1.178-.628.339-1.25.67-1.837 1.08l-.062-.011c4.366 1.714 4.858.239 8.976-.129.779-.085 1.575-.198 2.36-.153 1.792.103 3.983.899 5.717.292 1.058-.37 2.076-1.151 3.059-1.705a21 21 0 0 1-4.716-.068c-1.618-.207-3.4-.637-5.031-.484m-108.75.76h.215z"/><path d="M121.052 75.77c2.405-7.201 4.687-14.468 6.97-21.71.814.68 6.115 18.866 7.136 21.691q9.04.07 18.079-.07c2.25-.035 4.5.027 6.749-.069-3.335 2.003-6.527 4.219-9.752 6.39-3.674 2.473-7.333 4.898-10.909 7.517 1.202 4.034 2.817 8.011 4.274 11.962 1.453 3.941 2.791 7.925 4.27 11.857-2.9-2.408-5.931-4.663-8.936-6.936q-4.76-3.654-9.647-7.137l-1.434-.999c-1.764 1.1-3.395 2.527-5.082 3.753-4.743 3.446-9.526 6.947-14.024 10.705q2.887-8.187 5.596-16.436c.731-2.19 1.224-4.632 2.176-6.718-6.415-4.919-13.203-9.433-19.836-14.058 2.027.21 4.13.138 6.17.184 6.064.135 12.135.01 18.2.073m9.672-7.14c-.268.431-.191.979-.172 1.478.337-.113.317-.516.645-.565.295-.044.411-.068.595-.306.201-.236.373-.445.643-.609-.073-.312-.117-.308-.375-.507-.477.079-.858.712-1.211.653zc.12-.068.038-.012.183-.235-.132.072-.051.014-.183.236M129 69.5l-.233.254.016.233c.274.219.52.281.85.367l.066-.275q-.101-.024-.203-.054c-.218-.066-.285-.095-.433-.253zl.106-.124zm-4.315 6c-.08.156-.064.069-.018.266l.509.027.056.05-.056-.05-.24-.309zm-2.037 3.85c-.167.054-.132.002-.171.078za10 10 0 0 0 1.245-.58c-.282-.023-.589-.076-.862.013-.186.06-.294.397-.383.567m-7.772 4.026.185.176.188.056-.188-.056zm2 .89c-.29-.106-.433-.169-.746-.175a2.6 2.6 0 0 0-.025.709l.278.197c.304-.146.346-.337.467-.646q.014-.041.026-.084l.268-.135-.054-.19-.206-.086zm2.36 13.973-.297.09-.045.092c.152-.054.235-.057.343-.182l.126-.097zm11.523-30.556.032.118zm-2.32 2.542c-.282.268-.612.505-.712.896.148.315.202.312.53.455l.057.02-.23-.527c.14-.247.275-.412.48-.608-.087-.212-.029-.144-.124-.236m-2.373 1.088h.12zm-.429.513.174.172.245-.108-.118-.174zm2.474 1.237h.138zm-4.697.374h.147zm3.642.682.117.069zm-2.47.407-.003.258c.298.129.442.068.754.029l.096-.27c-.323-.143-.507-.064-.847-.017m1.459.276-.09.168.166-.037.07-.166zm-7.657 1.816.097.039zm5.323-.111c.272.297.409.495.84.544.203.023.423 0 .626-.013-.31-.38-.438-.445-.921-.492q-.272-.023-.545-.04m.11 1.042-.312.133c.235.122.306.085.563.071l.114-.273c-.263-.023-.142-.049-.366.069m20.64.013h.188zm-24.94.617.043.211.104-.033-.033-.202zm18.769.028-.255.125c.208.178.104.128.287.192l.266-.367-.109-.054zm3.342-.024.033.11zm5.109.133-.104.236.218.014.123-.255c-.08-.002-.161-.017-.237.005m1.755-.038.051.123.068-.025-.039-.132zm-43.74.364.043.11.063-.044-.026-.103zm38.61.428-.023.16.089-.013.112-.2zm-2.715-.123c-.154.295-.349.565-.295.91l.207.206c.197-.26.353-.407.355-.747-.084-.141-.143-.26-.267-.37m1.143.115h.142zm-22.499.352-.025.116.103-.032-.03-.095zm18.92.855q.094.415.203.826l.123-.046.113-.368c-.125-.225-.212-.292-.44-.412m2.857.01-.529.278c-.005.273.022.386.163.62l.11-.023c.017-.046.03-.094.051-.138.115-.241.275-.323.487-.47-.11-.24-.022-.145-.282-.268m4.6.588.14.07zm-.352.266.076.038zm-27.429.065c-.214.362-.323.472-.316.9.129.157.252.315.395.459.216-.303.27-.431.266-.805-.105-.23-.16-.376-.345-.554m19.245.208.172.246.163-.037-.067-.276c-.232.035-.15-.004-.268.067m2.352.005.104.28c.337.123.497.062.846.003l-.043-.246c-.325-.131-.572-.082-.907-.037m-1.248.208.097.039zm-23.115.995c.059.018.119.06.178.046zm4.12 2.448h.191zm7.919.072.094.087-.06-.088zm-7.996.567-.175.236c.09-.003.186.007.273-.02l.15-.233c-.084.002-.17-.007-.248.017m4.304-.13.053.49c.223.075.117.08.317.006l.082-.226a3 3 0 0 0-.452-.27m2.394.575.103.267c.251-.027.158.01.293-.057l-.229-.236zm-7.106.266c-.24.53-.697 1.431-.595 2.017l.183.129q.093-.019.185-.035c.254-.044.341-.08.557.07l.115.14-.004-.111c-.026-.746.205-1.312-.09-2.042zm.87.15h.181zm11.004.233.03.078zm-7.533.32.086.041zm2.174.928-.012.108.097-.02-.032-.093zm3.531.27h.13zm-3.73.463.078.112zm-6.831.879.072.122.072-.024-.008-.165zm-.972.733c-.075.195-.254.483-.17.675.065.148.14.247.243.37l-.076.144-.274-.026c-.27.319-.643 1.075-.602 1.505.003.037.016.072.024.108.288-.004.374-.124.607-.281l-.075-.141-.005-.335c.146-.06.26-.085.41-.122.324-.08 1.01-.617 1.18-.902.087-.144.051-.123.005-.304l-.135.038c-.189.05-.112.038-.302.033-.18-.378-.2-.544-.627-.709-.066-.025-.135-.035-.203-.053m-.93 3.044c.016.294-.051.631.167.836l.161-.08c.03-.227.1-.309-.044-.502-.14-.188-.078-.121-.283-.254m5.48 1.311.113.07zm-.903.267.008.222.18-.114-.053-.183zm3.89.105.126.073zm60.593-1.799-.087-.068z"/><path d="M72.209 100.719c.007-.533.002-1.065.258-1.55.152-.289.246-.384.552-.488.516.22.752.797.922 1.3.551 1.629.862 3.32 1.501 4.925q.209.523.428 1.042.22.519.449 1.033.23.515.47 1.024.24.51.49 1.014.25.505.51 1.004.261.5.532.994.27.494.552.982.28.489.57.971.291.483.592.959.3.477.61.947t.63.934.648.921q.33.458.667.908.338.45.686.894.347.444.703.88t.722.865.738.85.756.836.773.82.79.803.805.788.821.771.837.754.852.737.867.72.881.701.896.684q.451.337.909.665.458.327.923.646.464.319.935.627.471.31.949.609.476.3.96.589.607.364 1.223.713.616.35 1.24.683.625.333 1.257.652.633.318 1.273.62t1.288.588 1.302.556 1.315.524 1.329.49q.666.238 1.34.458.672.22 1.35.424t1.361.39q.683.187 1.37.357t1.38.322q.69.153 1.386.288.695.135 1.393.253t1.399.218 1.403.184q.704.083 1.409.148.705.066 1.411.114t1.414.078q.707.03 1.415.043t1.416.008 1.415-.027 1.415-.063 1.413-.097q.705-.058 1.409-.133t1.406-.168 1.401-.203 1.396-.237 1.39-.273q.692-.144 1.382-.306.689-.162 1.374-.341.704-.184 1.404-.386t1.394-.421 1.382-.457 1.371-.491 1.358-.526 1.344-.56 1.33-.595 1.313-.628 1.298-.66 1.28-.694 1.262-.726 1.243-.758 1.224-.789 1.203-.82q.597-.417 1.182-.85.586-.433 1.16-.88.575-.447 1.138-.909t1.114-.938 1.09-.965q.538-.49 1.065-.993.526-.504 1.039-1.02.513-.517 1.013-1.046.5-.53.986-1.071.487-.542.959-1.096t.93-1.12.903-1.143.872-1.166.843-1.187q.414-.599.812-1.209.399-.609.781-1.228.383-.62.75-1.248.368-.629.719-1.267 1.77-3.254 3.153-6.69c.615-1.563 1.007-3.3 1.876-4.742l.087-.14c.275.017.41.04.64.194.127.218.162.354.17.608.062 1.74-.01 3.511-.015 5.253q-.06 7.928-.243 15.855l-.221 11.26c-.037 3.058.033 6.12-.185 9.17-3.981.137-7.976.035-11.959.021l-17.842.027-80.288-.138c-.388-10.027-.377-20.08-.576-30.113-.068-3.384-.03-6.758-.218-10.14m4.421 26.536.125.072c1.6 1.262 10.901 5.387 12.815 5.56l.055.082-.055-.082c-1.095-.952-11.203-5.231-12.815-5.56zm-1.074 8.605c1.588 1.21 5.33 3.105 7.294 3.32l.137.058-.137-.058c-1.667-1.167-5.282-3.244-7.294-3.32m71.639 22.86c-.427-.007-.91-.093-1.29-.289-.614-.315-1.048-.91-1.252-1.561-.314-1.001-.18-2.241.306-3.166.428-.813.964-1.19 1.832-1.44.532-.014.997.002 1.459.298.663.425 1.06 1.163 1.226 1.916.231 1.043.108 2.215-.485 3.119-.455.691-1.012.95-1.797 1.123m-56.088-.01c-.57-.002-1.164-.082-1.655-.395-.67-.43-1.085-1.154-1.251-1.92-.208-.957-.096-2.044.45-2.875.469-.714 1.019-.948 1.826-1.134.355.008.732.04 1.07.156.722.25 1.248.807 1.535 1.508.394.962.373 2.147-.068 3.088-.425.907-.984 1.258-1.907 1.572m65.648-3.662-.004-2.714c.583-.001 1.216-.042 1.77.165.343.128.663.321.777.695.15.497-.067.967-.291 1.398-.738.437-1.42.431-2.252.456m-54.357-.037c-.315.103-.78.251-1.112.202-.222-.033-.385-.09-.528-.264-.493-.594-.228-1.736-.127-2.439.635-.028 1.262-.106 1.824.254.278.178.481.427.506.77.041.55-.257 1.05-.563 1.477m73.862 1.617c.283-1.312.71-2.612 1.078-3.903.648.785 1.08 2.763 1.365 3.746l-.082-.012.089.13c-.158.083-.493.043-.678.047zm-70.379 18.585-.125.162zc.441-.182.822-.178 1.291-.186 5.876-.097 11.766-.01 17.642-.013l32.208-.006 15.561-.045c3.36-.005 6.88-.135 10.218.269.377 1.35.212 5.495.164 7.083-2.082-.394-5.587-1.883-7.323-1.996l-.167-.118c-.612-.494-3.727-1.181-4.488-1.185 1.51.59 2.834 1.275 4.487 1.185l.168.118c1.213 1.186 5.638 2.33 7.368 2.582l.012 2.881q-2.303-.546-4.583-1.179 2.256 1.144 4.542 2.226.139 3.51.085 7.023c-2.221-.02-5.814.361-7.735-.674-.326-.176-.644-.372-1-.479l-.072-.054.072.054c.443.472 1.12.85 1.657 1.216-2.222.014-4.45-.038-6.672-.052-2.679-1.593-5.082-3.578-7.772-5.158 1.797 1.756 3.726 3.372 5.494 5.158-3.144-.096-6.315-.004-9.463-.035-1.456-1.713-5.55-5.718-7.39-6.869l-.052-.069.052.07c1.343 2.168 3.996 4.75 5.673 6.904q-2.967.061-5.934.011c-.593-.74-1.173-1.456-1.863-2.107l1.26 2.14c-1.818-.007-3.721-.13-5.528.031-.235-1.948-1.158-3.568-1.368-5.185.19-.042.27-.046.475-.027l.052-.125c-.47-.49-1.031-.872-1.505-1.354-.738-.751-1.259-1.716-2.014-2.49q-.273-.279-.558-.544-.284-.266-.582-.517-.297-.251-.607-.489-.309-.236-.63-.458-.32-.222-.65-.428t-.67-.396-.69-.364-.705-.33q-.357-.156-.72-.295-.364-.14-.734-.261t-.746-.225-.756-.19-.764-.152q-.383-.067-.77-.116-.386-.048-.774-.078-.389-.03-.778-.041c-4.348-.09-8.535 1.437-11.669 4.477-2.86 2.774-4.015 5.893-4.895 9.691-1.497-.338-3.148-.144-4.673-.072 1.027-1.614 2-3.199 2.776-4.954a63 63 0 0 0-3.48 4.876 37 37 0 0 1-5.51.046c.664-1.792 2.04-3.417 2.932-5.116l-.102.106c-.86.904-3.25 4.442-3.693 4.74-.391.263-.873.318-1.333.335-1.833.066-3.687-.026-5.523-.023 1.227-1.467 2.858-3.001 3.818-4.637l.055-.064-.055.064c-1.812 1.312-3.239 3.173-4.916 4.66l-10.092-.005c2.47-2.678 5.567-4.854 8.165-7.431-3.501 1.876-6.331 4.9-9.34 7.439L73.639 194c.125-.706-.05-1.403-.021-2.107.009-.219.048-.542.21-.695.656-.624 1.701-1.072 2.48-1.562 1.48-.934 2.997-1.998 4.334-3.128l.142-.12c-2.31.9-5.11 2.25-7.15 3.636q-.206-7.492-.267-14.988l32.389.015zm-15.505 2.162-.153.074c-2 .444-10.44 4.476-11.946 5.744l-.142.056.142-.056c1.779-.515 10.606-4.808 11.946-5.744zl.239-.124zm69.25.77.125.105c.123.09.238.184.375.25.138.111.27.225.42.318l.08.039-.08-.039a2.7 2.7 0 0 0-.42-.318c-.11-.094-.253-.171-.375-.25zm-60.603 1.05-.112.054zc.802-.317 1.607-.846 2.183-1.489-.844.238-1.614.84-2.183 1.489m53.354 3.201.068.05c.533.698 1.869 1.816 2.748 1.963-.3-.745-2.027-1.648-2.748-1.963zm-46.813 1.55-.084.076-.129.155-.07.072.07-.072.13-.155zc.427-.314.649-.605.895-1.075-.448.251-.682.623-.895 1.075m-6.743 1.742-.058.05zc.895-.41 2.124-1.676 2.654-2.497-.99.544-2.016 1.572-2.654 2.497m6.93.562-.275.236-.003.125c.267-.176.174-.056.278-.361l.164-.234zm53.662-8.187h.15zm-65.195 2.758-.207.148.186-.009.276-.173zm19.784 1.786c-.344.443-1.315 1.434-1.278 1.95l.011.046c.648-.268 1.06-1.192 1.32-1.803zm30.223 3.483c.138.445.367 1.28.868 1.46.048.017.101.017.152.026-.21-.543-.52-1.161-1.02-1.486m26.574 3.88.029.26c.164-.023.236-.028.378-.12l-.013-.21c-.165.002-.244-.007-.394.07m-31.433 21.048c.186.211.383.432.431.716.034.204-.064.23-.189.369-2.693.905-5.459-.73-8.083-.972-.59-.054-1.286.079-1.885.133-2.077.187-4.648.465-6.62-.373-.466-.198-1.128-.494-1.328-.983 1.723-.12 3.881.275 5.684.288 2.42.016 4.81-.306 7.23-.254-.601.194-1.224.337-1.836.496 2.207.59 4.329.594 6.596.58m-14.578 4.225c-1.73-.386-2.835-1.9-4.699-2.236-2.231-.402-3.787.225-5.893.826-.891.255-1.82.394-2.735.543-.54.088-1.164.247-1.706.206-.285-.022-.334-.052-.516-.25l.064-.174c.264-.075.503-.136.734-.29 1.602-1.061 5.017-1.227 7.124-1.714 2.791-.428 5.39 1.207 8.062 1.68 1.906.338 3.703-.279 5.598-.185l.167.413.26-.021-.176.074c.241-.002.493-.01.731.022.354.05.544.245.752.519l-.062.19c-.765.088-1.49-.659-2.374-.574-.505.049-1.024.312-1.501.482q-.459.163-.933.275-.473.113-.956.174-.483.062-.97.072-.486.01-.971-.032m16.733-2.807-.355.02.014-.185.217-.051zm-2.34 2.026 1.038-1.226c.06.09.072.198.097.301-.097.296-.215.415-.447.61-.2.167-.251.185-.354.434.293.02.543.02.803.175.014.114.038.272.031.383-.02.327-.074.407-.297.615-2.174.597-3.78.346-5.886-.357-.43-.132-.823-.225-1.173-.515.231-.334 3.303.078 3.945.04.79-.048 1.494-.214 2.244-.46m-53.286 2.783.193-.292c-.225-.072-.402-.082-.636-.096l.027-.13.115-.044c1.133-.44 1.965-1.095 3.214-1.335 1.892-.365 3.777.15 5.672.101 1.139-.03 2.282-.37 3.422-.3a6.1 6.1 0 0 1 2.035.492c.897.38 1.679.969 2.517 1.457 1.103.643 2.508.83 3.766.957.364.043.624.003.904.254-.312.378-1.17.427-1.65.474-3.904.376-5.204-3.377-9.17-2.606-.76.148-1.432.553-2.15.818-2.019-.417-3.922-.665-5.963-.268-.763.148-1.532.41-2.296.518m43.074.572c-1.891.249-4.337.58-6.152-.207-.514-.223-.983-.55-1.493-.788-1.407-.657-3.929-.816-5.37-.275-.227.085-.095.072-.366.023.739-.52 1.998-.888 2.893-1.04 2.557-.178 4.327 1.471 6.746 1.827 1.532.225 2.887-.258 4.39-.312 1.114-.04 1.717.513 2.475 1.23-1.082-.318-1.979-.572-3.123-.458m12.743-2.068-.26.109-.025-.239.25-.106zm-29.977 2.311c-.942-.534-1.796-1.21-2.598-1.937.914.043 1.661.62 2.558.722 1.348.154 2.54-.247 3.798-.195.003.33-.087.355-.276.611-1.17.42-2.238.705-3.482.8m-26.109-.687.27-.129zm54.784 1.616c-1.31.593-2.514.767-3.94.536-.814-.132-2.159-.534-2.661-1.237 1.29.293 2.646.419 3.966.287.682-.069 1.48-.321 2.153-.202.28.194.362.297.481.616m.981-.12-.11.078-.044-.18.073-.022zm2.332 1.022c-.27-.144-.532-.255-.712-.514.831-.015 1.782.31 2.61.454 2.058.357 3.528-.006 5.226-1.2l.18.3c.006.209.009.37-.091.563-.264.506-.94.819-1.447 1.002-2.013.725-3.912.3-5.767-.605m-20.963.798c-1.615-.795-2.816-.796-4.512-1.18l-.056-.13c.463-.293.995-.35 1.525-.453 1.025-.152 2.636.583 3.457 1.172.266.19.48.314.522.642-.377.117-.555.035-.936-.05m-7.659.456c-1.175.325-2.27.618-3.49.294-.87-.23-2.154-.992-2.597-1.793.041.003.082.01.123.01 1.157.032 2.074.718 3.22.836.807.083 2.095-.282 2.796.064.108.3.077.292-.052.589m15.131-.013c-.751-.24-2.262-.122-2.814-.58.288-.273.669-.321 1.042-.414.773-.052 2.281.178 2.908.636l-.046.185c-.388.163-.671.178-1.09.173m5.557 1.329c-.305-.107-.47-.105-.66-.38.22-.116 4.404-.17 5.18-.254l.241.028-.029.268.1-.095c-.125.228-.04.152-.25.265-1.691.913-2.82.695-4.582.168m5.831.073-.42-.067c-.247-.23-.175-.32-.196-.644.083.032.196.072.272.117.304.181.28.263.344.594m-18.683 1.607c-1.534-.86-2.656-1.017-4.392-1.08l-.026.075-.143-.13c.258-.337.635-.453 1.013-.618.69-.037 1.378.016 2.068.054.607.493 1.317.762 1.934 1.212.226.164.261.154.297.44-.298.133-.432.085-.751.047m21.045-.953c-.258-.123-.462-.182-.606-.443.471-.32 2.915.29 3.654.311 1.305.04 2.482-.22 3.706-.651.105.094.073.22.084.356-.113.262-.169.424-.357.64-2.393.883-4.119.624-6.48-.213m12.349.418c-.963.015-3.388.376-4.038.067l-.035-.177c1.014-.69 3.206-.88 4.419-.911 1.859-.214 3.133-.037 4.781.897-1.723-.03-3.41-.063-5.127.124m-61.057-.13c.576-.26 1.142-.49 1.742-.694 2.531-.157 3.951 1.133 6.192 1.864 1.284.418 2.603.481 3.942.524-.581.261-1.154.48-1.758.683-3.52.244-3.599-1.3-6.393-2.102-1.157-.332-2.526-.247-3.726-.275m19.696 1.125c-.916.158-1.97.521-2.895.37-.537-.087-3.047-1.383-3.354-1.822 1.012-.162 2.093.498 3.082.696.909.182 1.883-.057 2.785.12.291.057.332.09.486.32zm16.035-.331c-.791-.136-2.766-.127-3.3-.759l.088-.226.47-.17c.996 0 2.417.016 3.203.687l.003.194zm31.392-.305-.144-.058zm-26.555 1.852c-.383-.127-.844-.227-1.144-.505.667-.261 2.695.091 3.552.07.586-.015 1.162-.115 1.738-.215l.266.065.035.237c-.103.24-.233.359-.462.487-1.252.703-2.72.244-3.984-.14m5.709-.299c-.074.04-.21.05-.294.066l-.112-.226c.096-.038.225-.046.328-.063zm2.344.739c-.266-.177-.469-.306-.665-.565.5-.05 2.565.514 3.344.584 1.226.109 3.314.084 4.296-.734.073.052.155.221.185.3.066.17.1.283-.02.438-.316.41-1.104.648-1.586.776-1.914.513-3.843.193-5.554-.799m-21.363.84c-.775-.428-2.888-.66-3.25-1.007.246-.282.56-.32.906-.407l.19-.022c.856-.063 2.08.498 2.689 1.09.195.191.22.195.216.477-.32.12-.445-.009-.751-.13m28.682.722.414-.294c1.398-1.01 3.063-1.121 4.72-1.355 1.772-.271 2.998-.017 4.522.9-.713.025-1.44-.121-2.16-.119-1.025.005-2.035.15-3.058.187-1.512.141-2.971.265-4.438.681m-20.246-.526c-.184.054-.324.07-.516.05-.721-.068-2.464-.174-2.92-.72.283-.258.547-.263.916-.347.69-.016 1.838.057 2.42.451.261.176.44.276.49.59l-.177.158zm-15.992.86c-1.484.361-3.285.55-4.646-.31-.439-.277-1.082-.73-1.213-1.223.82-.074 2.334.702 3.265.861.775.133 1.51-.07 2.266.002.321.031.368.086.534.326zm20.658 1.121c-.273-.111-.497-.17-.683-.41.865-.365 3.21.298 5.316-.59.119.129.115.315.15.485-.304.674-1.234.882-1.885 1.143-1.035-.094-1.927-.257-2.898-.629m5.375-.398-.089.001-.002-.103h.052zm-22.196.616 1.384-.49c.962.132 1.814.14 2.655.738.27.192.39.31.441.636l-.203.115-.368-.173-.067-.026c-1.192-.49-2.582-.468-3.842-.8m12.036 1.113c-.903-.184-2.854-.325-3.51-.934.237-.234.497-.208.819-.26.636-.102 1.703.103 2.305.349.393.16.712.335.871.735l-.129.19z"/></svg>