<svg xmlns="http://www.w3.org/2000/svg" viewBox="0 0 256 256"><path d="M122.15 0h12.053c2.16.769 4.315 1.519 6.24 2.796 5.421-2.155 11.09-2.854 16.562-.464 3.075 1.343 6.316 3.52 8.602 5.985 6.465-.9 12.148-.437 17.517 3.6 2.07 1.557 3.75 3.448 5.445 5.388 5.62.105 10.887 1.071 14.963 5.286 2.229 2.305 3.9 5.247 4.956 8.264 5.656 1.391 10.391 3.46 13.529 8.638 1.521 2.512 2.643 5.467 3.208 8.353 5.012 1.789 9.15 4.7 11.478 9.605 1.57 3.305 1.995 6.913 2.024 10.53 4.89 3.267 8.3 7.466 9.458 13.332.667 3.376.583 6.85-.05 10.224 4.243 4.121 6.96 9.1 7.04 15.105q.01.605-.01 1.209t-.07 1.207-.13 1.202-.19 1.194-.248 1.184q-.137.588-.304 1.17-.17.58-.366 1.153-.195.572-.42 1.133c.768 1.418 1.298 2.928 1.815 4.45.233.684.415 1.46.748 2.101v12.167q-1.192 3.217-2.697 6.3c2.047 7.576 2.484 12.893-1.62 20.01a44.5 44.5 0 0 1-3.329 4.95c.43 7.726-.522 12.894-5.844 18.859-1.34 1.501-2.867 2.821-4.332 4.197-.167 6.133-1.335 10.746-5.918 15.078-2.175 2.055-4.621 3.382-7.29 4.661-1.566 5.774-3.66 10.516-9.061 13.614-2.35 1.347-5.022 2.248-7.65 2.875-2.397 5.33-5.502 9.786-11.16 11.952-2.926 1.121-6.25 1.575-9.376 1.724-3.963 5.084-8.234 8.75-14.845 9.58-2.515.317-5.063.186-7.577-.067-1.396.935-2.646 2.093-4.06 2.988-5.049 3.195-10.891 4.13-16.73 2.967-1.332-.265-2.645-.665-3.952-1.032-1.958 1.014-3.785 1.862-5.891 2.532h-13.85c-2.069-.838-3.902-1.41-5.801-2.64-3 1.122-6.231 1.952-9.449 1.94-6.103-.028-11.374-2.978-15.554-7.224q-.606.142-1.22.249-.613.107-1.231.18t-1.24.111-1.244.041-1.244-.028-1.24-.097q-.62-.067-1.234-.167-.615-.101-1.222-.236c-5.69-1.248-9.695-4.784-12.771-9.599-3.296.029-6.45-.32-9.514-1.615-5.203-2.199-8.411-6.922-10.454-12.004-3.16-.26-6.587-1.5-9.158-3.358-4.223-3.05-6.62-8.226-7.44-13.267-2.882-1.036-5.601-2.59-7.792-4.744-4.189-4.119-5.769-10.263-5.82-15.999q-.467-.263-.919-.549t-.888-.596-.856-.642-.821-.686q-.402-.353-.785-.728-.382-.374-.745-.768-.362-.393-.703-.806-.342-.411-.661-.841c-3.515-4.827-4.158-11.072-3.252-16.84l-.178-.075.197.01-.019-.28c-2.96-2.895-5.333-6.865-6.28-10.907-.789-3.37-.354-9.542 1.468-12.492C1.51 138.728.73 136.089 0 133.304V120.91c.78-1.249 1.544-3.609 2.195-5.067-.48-3.035-1.4-5.85-1.53-8.97-.27-6.516 2.798-11.764 7.068-16.428-.303-3.7-.606-7.511.51-11.11 1.362-4.393 4.91-9.215 9.016-11.392-.025-2.676.36-5.386 1.259-7.911 2.143-6.016 6.862-9.62 12.462-12.25.713-2.805 1.5-5.612 3.017-8.106 3.186-5.237 8.34-7.516 14.08-8.882 1.432-3.011 2.95-6.076 5.332-8.461 3.889-3.895 9.42-5.207 14.777-5.212 1.623-2.422 3.642-4.697 6.057-6.351 4.945-3.388 11.025-3.977 16.799-2.91 2.242-2.27 5.01-4.251 7.951-5.504 5.357-2.281 11.056-1.631 16.363.49 2.078-1.328 4.431-2.192 6.795-2.846M121 5.75l.149.075c.818.572 2.073 1.01 3.002 1.388.999.406 2.079.793 3.168.813 2.6.05 7.045-2.292 9.525-3.349.265-.09.456-.138.645-.353l-.157-.18c-1.244-.397-3.27-.322-4.481.174-2.46 1.008-5.888 2.651-8.575 2.297-1.053-.14-2.084-.565-3.127-.79zm24.5.78.187.06.062.138-.062-.137zm.376.24.187.056.133.153c.773.824 1.955 1.625 2.914 2.238.805.514 1.64.947 2.584 1.14 2.763.566 6.989-.689 9.714-1.281.196-.052.291-.08.463-.197-1.25-1.61-8.665-.166-10.892-.37-1.767-.162-3.208-.764-4.783-1.53l-.133-.153zm-57.079 3.308c-3.858.984-6.166 4.684-9.625 6.417-1.694.85-3.296 1.002-5.095 1.456 3.413.206 6.362.568 9.101-1.853 2.037-1.8 3.818-3.988 5.62-6.02l.076-.053zM190.03 21l.072.067c.529 1.502 2.622 5.161 3.746 6.336 2.05 2.141 4.968 2.305 7.737 2.621 1.21.138 2.441.323 3.66.354-2.641-2.557-7.522-2.38-10.661-4.576-1.839-1.287-2.907-3.057-4.405-4.654l-.077-.081zm19.487 14 .058.15c.27 1.358.758 2.802 1.232 4.1 2.365 6.474 6.393 5.474 11.662 7.936-1.41-3.249-6.513-3.796-9.074-6.193-1.837-1.721-2.511-3.642-3.76-5.743l-.06-.1zM36.565 46.153l-.064.066zc1.113-.059 2.63-.724 3.638-1.2 1.002-.473 1.954-1.058 2.671-1.919 1.756-2.107 2.912-7.124 3.885-9.867-3.965 2.487-3.423 7.237-6.435 10.358-1.1 1.139-2.442 1.798-3.76 2.628M22.95 64.948l-.095.078-.105.071.105-.072zc.956-.36 2.005-1.093 2.825-1.713 2.765-2.092 3.326-4.315 3.859-7.595q.413-2.62.766-5.25c-3.751 2.91-2.588 7.804-4.806 11.562-.672 1.137-1.731 2.055-2.644 2.996M7.478 109.434l-.073.066zc.455-.504.828-1.093 1.173-1.676 1.84-3.107 1.414-5.585.71-8.93q-.497-2.432-1.09-4.843l-.052-.099-.152.024c-2.622 4.566.544 7.341.428 11.514-.04 1.426-.509 2.693-1.017 4.01m236.558 59.25c-2.363 1.486-5.102 4.092-5.718 6.887-.61 2.772-.21 6.384-.141 9.257.709-.478 1.296-1.1 1.817-1.774.047-3.928-.36-8.196 1.882-11.634.643-.986 1.482-1.792 2.16-2.735l.065-.052zM33.773 209.019l.056.05c1.812 2.908 6.57 4.214 9.239 6.404 1.355 1.113 2.179 2.515 3.227 3.885l.056.136-.056-.136c-.207-.96-.588-1.944-.968-2.847-2.3-5.461-6.605-5.436-11.498-7.443zm185.025 1.191c-2.395.584-5.48 1.967-6.803 4.106-1.301 2.103-1.956 4.92-2.727 7.276.707-.222 1.427-.427 2.121-.687l.043-.104c1.408-3.499 1.859-6.301 4.948-8.859.767-.635 1.651-1.113 2.418-1.732l.077-.06zm-148.13 28.32c1.068 1.709 6.894 1.734 8.766 1.925 1.02.105 2.032.28 3.003.611 1.788.61 2.895 1.765 4.405 2.82l.087.06.097.076.145.132.124.117.08.076-.08-.076-.124-.117-.145-.132-.097-.076c-.258-.34-.561-.662-.858-.969-6.012-6.202-7.462-4.349-15.403-4.446m16.957 6.002.167.058.06.16-.06-.16zm7.466 2.704a2 2 0 0 0-.544.146c.423.816 3.416 1.04 4.297 1.018 2.35-.061 4.639-.746 7.013-.392 1.955.291 3.309 1.338 5.091 2.01.035.016.07.025.104.038l.072.058-.072-.058a6 6 0 0 0-.452-.391c-7.146-5.41-7.36-3.722-15.51-2.428m24.775 4.48-.48.213.092.2c3.768 1.092 6.964-1.69 10.324-2.08 1.689-.195 3.275.232 4.928.487l.144.078-.144-.078c-.59-.273-1.217-.482-1.825-.711-1.172-.442-2.525-1.102-3.768-1.242-2.681-.3-6.799 2.016-9.271 3.133M112.971 4.41c-2.053.4-4.001 1.043-5.845 2.044-1.706.926-3.386 2.04-5.23 2.676q-.722.253-1.475.38t-1.517.125c-.51-.003-1.353-.186-1.803-.049l.802.208c1.674.298 3.718.886 5.41.715a4.8 4.8 0 0 0 1.632-.486c1.347-.656 2.597-1.668 3.828-2.516 1.42-.978 2.872-1.908 4.285-2.893l.097-.068.017-.126zm2.89 1.063q-2.793 1.643-5.501 3.422c-1.461.96-2.904 2.033-4.48 2.793-.733.353-1.517.61-2.327.702-2.571.29-5.784-.597-8.282-1.244q-1.84-.483-3.662-1.025c-2.224 2.378-7.06 7.984-9.814 9.164-1.303.559-2.702.64-4.102.686-2.936.096-6.04.03-8.946-.37-1.416 2.84-4.022 7.935-6.329 10.013-.807.727-1.73 1.206-2.75 1.552-3.37 1.14-7.21 1.536-10.737 1.9l-1.69 5.115c-1.122 3.37-2.172 6.593-5.553 8.286-2.874 1.439-6.299 2.472-9.402 3.255-.208 3.448-.513 8.466-2.102 11.521-.502.966-1.207 1.783-2.02 2.502-2.574 2.273-5.941 3.887-8.959 5.494.37 2.685.746 9.471.098 11.959-.32 1.235-.944 2.334-1.706 3.349-2.183 2.905-5.185 5.037-7.748 7.576q.793 3.085 1.476 6.197c.957 4.432.852 6.939-1.55 10.916-1.53 2.534-3.314 4.954-4.997 7.392 1.783 3.583 4.764 8.492 4.655 12.527-.036 1.332-.416 2.632-.84 3.886-.931 2.748-2.15 5.406-3.483 7.98 4.804 8.369 9.45 7.924 6.354 19.287-.396 1.453-.928 2.903-1.183 4.388 2.815 2.819 8.074 6.509 9.224 10.434.552 1.885.532 3.999.53 5.952-.004 2.028-.173 4.052-.174 6.078l4.502 2.649c3.449 2.037 6.339 3.993 7.394 8.053.753 2.899.847 5.864 1.396 8.782 1.657.623 3.294 1.298 4.958 1.903 4.263 1.55 6.91 2.62 8.87 6.976 1.136 2.525 1.955 5.3 2.733 7.953 3.457.766 9.653.953 12.39 2.92 1.419 1.02 2.489 2.534 3.415 3.99 1.281 2.017 2.46 4.105 3.646 6.178 3.434.018 9.864-.794 12.794.6 1.882.896 3.546 2.486 5.027 3.926 1.6 1.556 3.139 3.218 4.801 4.704 2.618-.588 10.58-2.1 12.823-1.717 1.375.236 2.557.894 3.722 1.63 2.616 1.651 5.067 3.583 7.702 5.196l6.705-2.712c5.365-2.184 6.855-2.005 12.185.216q1.957.825 3.877 1.733l1.693.725c2.052-1.036 3.942-2.475 5.796-3.826 1.447-1.054 2.911-2.254 4.6-2.898 3.294-1.259 10.019.758 13.426 1.58q2.386-2.343 4.722-4.736c3.281-3.374 4.871-5.13 9.831-5.115 2.69.007 5.381.22 8.071.288 1.349-2.377 4.6-8.308 6.505-9.918.973-.823 2.125-1.305 3.342-1.64 1.94-.535 3.987-.792 5.97-1.13 1.267-.216 2.56-.529 3.835-.668 1.344-3.462 2.368-8.893 5.165-11.342 1.05-.92 2.32-1.527 3.586-2.084q3.88-1.666 7.909-2.928l.762-5.407c.569-3.903 1.22-7.218 4.503-9.731 2.33-1.784 5.034-3.127 7.61-4.51q-.032-2.999-.112-5.997c-.093-4.49.122-7.308 3.368-10.648 2.024-2.084 4.236-4.055 6.326-6.077-.925-3.96-2.668-9.125-1.414-13.104.568-1.803 1.584-3.442 2.575-5.038 1.291-2.08 2.588-4.148 3.81-6.271-.809-1.576-1.502-3.212-2.212-4.834-1.913-4.37-2.633-7.152-1.123-11.829.796-2.466 2.177-4.675 3.04-7.103-1.464-2.937-2.788-4.679-4.546-7.332-.702-1.058-1.365-2.183-1.72-3.41-1.193-4.126.677-9.164 1.805-13.14-1.1-1.912-2.778-3.291-4.377-4.772-6.656-6.166-5.687-9.425-5.143-17.84-6.417-4.627-11.197-4.596-12.621-13.583-.31-1.957-.416-3.947-.555-5.922-2.395-1.282-4.844-2.031-7.386-2.926-6.894-2.428-7.162-7.783-9.222-13.902-3.814-1.109-10.678-1.124-13.593-3.492-1.442-1.172-2.444-2.822-3.33-4.428-.972-1.765-1.82-3.597-2.79-5.362-3.642-.123-10.905.811-13.799-.57-1.78-.849-3.304-2.407-4.635-3.83-1.415-1.514-2.742-3.155-4.234-4.59-3.422.554-8.432 1.829-11.757 1.662q-.394-.018-.784-.074t-.772-.148-.754-.223-.73-.294c-2.395-1.093-4.741-3.006-6.868-4.547q-1.087-.79-2.121-1.65c-3.17 1.276-10.062 4.525-13.16 4.536-1.33.005-2.588-.437-3.798-.95a77 77 0 0 1-3.738-1.704c-1.129-.553-2.693-1.75-3.895-1.935m52.974 7.136c1.503 1.549 3.588 4.158 5.55 5.002.866.373 1.804.458 2.737.475 2.496.046 4.967-.325 7.449-.526l.21-.106-.066-.23c-3.089-1.61-6.945-.545-10.246-1.504-1.297-.376-2.758-1.025-3.85-1.817-.572-.414-1.136-1.019-1.784-1.294M66.724 19.245c-2.696 1.464-3.974 3.121-5.568 5.682-.601.966-1.214 1.873-2.081 2.623-1.249 1.08-3.23 1.942-4.779 2.523-.226.085-.709.192-.826.4l.068.039c3.668-.686 6.857-.81 9.14-4.16.956-1.401 1.759-2.926 2.616-4.389.5-.852 1.087-1.658 1.53-2.54zm158.803 34.103c.47 3.36.835 7.142 3.755 9.355 1.46 1.106 3.135 1.625 4.69 2.511.707.404 1.403 1.096 2.134 1.408-.224-1.442-.959-2.304-2.106-3.146-2.931-2.15-6.01-3.299-7.365-6.972-.323-.874-.575-2.451-1.108-3.156M17.333 70.597c-1.642 2.698-1.843 4.847-1.742 7.949.036 1.088.064 2.148-.133 3.224-.185 1.014-.602 2.015-1.07 2.93-.181.357-.467.68-.57 1.069l.065.029c2.485-2.514 3.78-4.824 3.765-8.374-.004-.91-.062-6.43-.315-6.827m220.7 4.243c-.096 3.769.548 6.543 3.168 9.323 1.652 1.753 3.556 3.249 5.075 5.126-.419-5.185-4-5.529-6.4-9.312-1.025-1.615-1.324-3.335-1.844-5.137m8.174 24.377c-.743 2.519-.511 5.117.737 7.429 1.251 2.317 2.965 4.404 4.299 6.694.24-.26.162-.683.147-1.031-.167-3.891-2.927-5.48-4.307-8.765-.578-1.374-.717-2.858-.876-4.327m-238.91 10.47h.095zm-3.377 9.525-.626 1.229c.538 3.114 2.019 6.051 2.774 9.128.281 1.143.211 2.404.397 3.572l.168-.168c1.293-3.927.841-5.877-.786-9.651-.571-1.325-1.15-2.72-1.845-3.982-.024-.044-.055-.085-.082-.128m245.159 4.871c-1.76 5.843.676 8.309 2.743 13.6.18-.561.435-1.19.486-1.777.217-2.487-1.986-6.185-2.755-8.624-.334-1.058-.19-2.166-.474-3.199M4.29 143.853c.015.824-.001 1.651.25 2.446.36 1.142 1.07 2.026 1.813 2.939 2.017 2.48 3.486 4.633 3.7 7.91l.094.028.037-.089c.53-2.747.49-5.076-1.11-7.467-1.015-1.517-2.418-2.631-3.543-4.037-.422-.526-.763-1.271-1.24-1.73m243.505 4.012c-2.167 3.2-2.236 5.794-1.525 9.489.306 1.593.697 3.176 1.066 4.755.502-.275 1.032-1.5 1.333-2.026-.3-2.439-1.387-7.2-1.306-9.348.032-.854.223-1.756.413-2.588.044-.187.039-.108.02-.281m-238.1 19.323c1.284 5.872 6.365 6.265 8.297 12.354-.088-4.474-.884-5.743-4.078-8.81-1.208-1.16-2.72-2.804-4.219-3.544M19.8 189.613c1.011 4.04 5.615 4.8 8.233 7.546.812.851 1.728 2.998 2.325 3.494-.483-3.079-1.387-5.367-3.976-7.26-2.007-1.468-4.396-2.59-6.582-3.78m212.308 1.65c-2.875 1.57-4.216 2.48-5.17 5.708-.552 1.866-1.363 5.646-1.316 7.562l.104.097c.655-.404 1.333-.79 1.965-1.225.776-3.438.879-7.576 3.166-10.459.229-.288 1.323-1.45 1.251-1.683m-30.007 34.29c-3.288.602-6.826.982-8.88 3.933-.588.845-3.478 5.721-3.454 6.334.124.007.266.03.389.017.838-.069 1.157-.143 1.689-.803.547-.68.895-1.54 1.345-2.286 1.594-2.647 3.013-4.092 5.599-5.775.7-.456 3.454-1.196 3.66-1.447zm-151.041.266c2.863 2.828 7.218 2.744 10.644 4.659 2.168 1.212 2.774 3.249 3.977 4.06-1.437-2.717-3.516-6.536-6.603-7.457-2.523-.754-5.408-.857-8.018-1.262m129.287 11.994c-3.521.027-5.24-.188-7.873 2.473-.757.764-4.719 4.707-4.826 5.272.179-.023.357-.043.535-.072 3.596-.91 4.586-3.443 7.383-5.437 1.002-.714 2.143-1.17 3.301-1.565.71-.242 1.494-.572 2.235-.675-.032.002-.064.008-.096.007-.048-.001-.095-.01-.142-.015a2.7 2.7 0 0 0-.517.012m-27.89 7.819c-2.86.921-6.2 4.2-8.825 5.935 1.859-.204 3.16-.682 4.804-1.537 3.953-2.372 5.348-3.658 10.053-3.43-1.847-.545-4.11-.962-6.033-.968"/><path d="M119.368 241.436c-.548.065-1.04.07-1.561-.138-.806-.319-1.477-.886-2.145-1.422-1.736-1.394-3.468-2.687-5.717-3.09-3.675-.66-8.482 2.176-10.824 1.367-2.117-.731-4.188-5.343-7.986-6.724-3.768-1.37-8.806 1.271-10.9-.197-2.398-1.681-2.62-6.045-6.597-7.86-1.496-.684-3.17-1.008-4.808-1.067-1.688-.06-4.078.377-5.632-.333-1.538-.703-2.037-3.198-2.576-4.655-1.475-3.985-4.129-6.226-8.299-7.084-1.351-.279-2.904-.433-4.152-1.038-1.868-.906-1.82-2.987-2.118-4.78-.176-1.058-.404-2.09-.782-3.098-1.602-4.266-4.896-5.117-8.674-6.89-.83-.39-1.81-.993-2.267-1.82-.805-1.454-.252-4.11-.308-5.758a12.5 12.5 0 0 0-.495-3.141c-1.614-5.386-6.854-5.414-8.616-8.09-1.174-1.783-.094-4.88.018-6.898.074-1.34-.038-2.715-.467-3.993-1.286-3.837-5.435-5.125-6.467-7.893-.81-2.172.934-5.273 1.353-7.459.693-3.605-.584-5.815-2.81-8.48-.615-.738-1.28-1.499-1.593-2.422-.714-2.106 1.337-4.381 2.195-6.182 1.669-3.501.887-5.889-.89-9.108-.45-.816-.955-1.636-1.261-2.52-1.19-3.428 3.592-6.189 4.492-9.681.991-3.851-2.587-7.685-1.698-10.853.889-3.17 5.21-4.684 6.695-7.732 1.798-3.69-1.251-8.475.476-11.775 1.538-2.938 5.631-3.731 7.646-6.354 2.6-3.384.428-8.433 2.258-11.442 1.842-3.029 7.58-2.494 9.906-5.745 1.847-2.581 1.675-5.884 3.045-8.598 1.262-2.504 4.924-2.224 7.275-2.987 4.701-1.526 4.543-4.78 6.497-8.512.437-.837 1.024-1.679 1.839-2.184 2.158-1.338 6.848-.368 9.819-1.605 3.512-1.464 3.974-6.028 6.913-7.895 2.42-1.536 7.615.89 10.985-.297 3.403-1.2 5.48-5.808 8.237-6.522 2.913-.755 6.748 1.54 9.936 1.403 3.934-.17 5.738-4.005 9.08-4.648 3.017-.58 6.525 3.355 10.415 2.73 2.603-.42 4.669-2.19 7.15-2.954 3.051-.463 6.199 4.017 9.505 4.935 3.415.947 6.252-1.342 9.516-1.583 3.065-.227 6.007 5.226 9.503 6.459 3.457 1.218 7.622-.903 10.347.095 2.425.888 3.794 5.72 6.78 7.56 3.414 2.104 7.484.852 10.465 2.057 1.923.777 2.431 2.668 3.16 4.408 1.982 4.725 3.549 5.82 8.513 7.056 1.034.256 2.16.438 3.137.863 2.117.919 2.185 2.9 2.582 4.89q.294 1.552.86 3.027c1.69 4.385 4.675 4.72 8.528 6.453.808.364 1.642.85 2.119 1.622.945 1.532.672 3.94.837 5.703.116 1.247.31 2.511.682 3.71 1.62 5.223 6.852 4.785 8.717 8.03q.14.241.24.502c.92 2.438-1.367 6.88-.14 10.492 1.183 3.483 5.591 5.432 6.607 8.34 1.11 3.177-2.214 6.976-1.543 10.468.588 3.059 3.532 5.146 4.51 7.931.693 1.974-.944 4.14-1.754 5.876-1.614 3.457-1.524 5.776.217 9.154.493.956 1.063 1.917 1.41 2.938.89 2.606-1.042 4.31-2.383 6.276-.727 1.064-1.38 2.278-1.711 3.53-.978 3.687 2.182 7.714 1.23 10.76-.736 2.352-4.82 4.248-6.35 7.281-2.168 4.297.498 9.47-.758 11.972-.734 1.461-5.345 2.838-7.299 5.449-3.003 4.012-.739 8.523-2.539 11.606-1.638 2.803-6.949 2.889-9.24 6.216-1.721 2.502-1.428 5.612-2.751 8.201-1.512 2.957-5.125 2.53-7.856 3.46-4.221 1.439-4.991 4.845-6.802 8.44-2.607 5.176-7.052 1.737-11.323 3.708-3.904 1.801-4.911 7.351-8.09 8.657-2.632 1.082-6.466-.905-9.57-.085-3.926 1.037-5.382 5.338-8.52 6.398-2.678.905-6.826-2.072-10.228-1.519-3.75.61-6.42 4.604-9.515 4.872-2.936.255-5.857-3.563-10.288-2.69-2.654.523-4.856 2.079-7.392 2.905m4.32-218.623q-1.08.037-2.16.097t-2.157.143-2.155.187q-1.076.105-2.15.232t-2.145.276-2.138.32-2.132.365-2.123.408-2.115.453-2.105.496-2.094.54-2.082.582-2.07.626-2.057.668-2.043.71-2.027.753-2.011.795q-1.002.408-1.995.836-.992.428-1.976.877t-1.958.918-1.939.958q-.964.49-1.918.998-.955.509-1.898 1.038-.943.528-1.875 1.076t-1.853 1.115-1.83 1.154q-.908.586-1.805 1.19-.896.605-1.78 1.228-.883.623-1.754 1.265-.87.64-1.728 1.3-.857.659-1.7 1.336-.844.676-1.673 1.37c-3.74 3.152-7.14 6.585-10.445 10.18-18.668 20.309-28.074 48.401-26.894 75.824q.066 1.288.164 2.576.097 1.287.226 2.571t.289 2.565.35 2.558.413 2.548.475 2.537.535 2.525.598 2.512.658 2.496.718 2.48.779 2.46.838 2.442.897 2.42.956 2.399 1.013 2.374q.521 1.18 1.071 2.349.55 1.167 1.128 2.322.578 1.154 1.183 2.293t1.24 2.265 1.293 2.234 1.348 2.202 1.4 2.168 1.454 2.133 1.504 2.098 1.555 2.06q.79 1.022 1.605 2.023.814 1.001 1.652 1.983.84.98 1.701 1.941.863.961 1.748 1.9.885.94 1.793 1.857.908.918 1.837 1.813.93.895 1.882 1.768.758.691 1.529 1.367.772.676 1.556 1.338.784.66 1.581 1.306t1.607 1.276 1.631 1.244 1.655 1.212 1.678 1.18 1.701 1.147 1.724 1.113 1.744 1.08q.877.53 1.765 1.045t1.785 1.01q.898.497 1.805.976.907.48 1.823.94.916.462 1.841.905.925.444 1.859.87.933.424 1.875.831.941.407 1.89.796.95.389 1.906.759.957.37 1.92.721.965.351 1.935.684.97.332 1.947.646.977.313 1.96.608.982.294 1.97.57t1.981.53q.994.256 1.992.493.998.236 2 .454 1.003.216 2.01.414t2.017.375 2.023.336 2.03.296q1.017.139 2.036.257c4.852.569 9.843.907 14.727.683l1.51-.074c27.252-.84 53.985-13.606 72.578-33.38q.884-.943 1.746-1.908.862-.964 1.7-1.95.837-.986 1.65-1.992.814-1.006 1.602-2.031t1.552-2.07 1.5-2.107q.738-1.063 1.448-2.144.712-1.08 1.396-2.178.685-1.097 1.342-2.212.657-1.113 1.287-2.243t1.233-2.275q.602-1.145 1.176-2.304.574-1.16 1.12-2.332.545-1.173 1.061-2.359.517-1.186 1.004-2.384.488-1.198.946-2.408t.886-2.43.827-2.452q.398-1.23.766-2.47t.705-2.49.645-2.505q.307-1.256.583-2.52t.521-2.534.46-2.546q.213-1.276.396-2.556t.334-2.565.271-2.573.208-2.578.145-2.583.082-2.586.018-2.587q-.006-1.293-.044-2.586-.049-1.289-.128-2.576-.08-1.287-.19-2.572-.111-1.284-.253-2.566t-.315-2.56-.376-2.55-.439-2.542-.5-2.53-.56-2.517-.622-2.502-.683-2.487q-.356-1.24-.742-2.47-.387-1.23-.802-2.45t-.862-2.431q-.445-1.21-.92-2.41-.474-1.198-.978-2.385t-1.035-2.362q-.533-1.174-1.093-2.336t-1.15-2.308q-.588-1.148-1.204-2.28-.616-1.133-1.26-2.25-.643-1.118-1.313-2.22t-1.367-2.187-1.42-2.152-1.472-2.118-1.522-2.081q-.774-1.031-1.573-2.044-.798-1.012-1.621-2.005t-1.67-1.965-1.717-1.924-1.763-1.882-1.808-1.839-1.852-1.794q-.941-.884-1.904-1.745-.962-.86-1.945-1.697t-1.987-1.65-2.026-1.6-2.065-1.55-2.102-1.498q-1.06-.737-2.139-1.447t-2.173-1.394-2.207-1.34-2.24-1.285-2.27-1.23-2.299-1.174-2.327-1.117-2.355-1.06-2.38-1.002q-1.195-.486-2.403-.943t-2.426-.884-2.447-.824q-1.228-.397-2.466-.764t-2.484-.703q-1.247-.336-2.501-.642-1.255-.305-2.516-.58t-2.53-.518q-1.267-.244-2.54-.456t-2.552-.394-2.56-.331q-1.283-.15-2.569-.268t-2.573-.205-2.578-.142-2.581-.078-2.582-.015-2.582.048q-.578.018-1.155.047"/><path d="m130.063 231.889-.125.004c-22.877.677-46.063-7.115-64.272-20.883-2.377-1.798-4.804-3.63-6.977-5.674-2.963-2.787-5.932-5.684-8.593-8.761q-.737-.847-1.456-1.71-.718-.863-1.418-1.742-.7-.877-1.381-1.77t-1.343-1.8-1.304-1.828-1.265-1.856q-.623-.934-1.225-1.882t-1.184-1.907-1.144-1.933q-.561-.972-1.102-1.957-.54-.984-1.06-1.98-.52-.995-1.018-2.001-.498-1.007-.974-2.023-.477-1.017-.931-2.044-.455-1.026-.888-2.062-.433-1.037-.843-2.082t-.799-2.099q-.388-1.053-.753-2.115-.366-1.062-.709-2.131-.343-1.07-.662-2.145-.32-1.077-.617-2.16t-.57-2.172-.524-2.183q-.251-1.095-.478-2.195t-.43-2.204-.384-2.212q-.18-1.109-.335-2.22-.157-1.113-.289-2.228t-.24-2.232-.194-2.238q-.085-1.12-.146-2.24-.06-1.122-.097-2.244-.038-1.296-.044-2.593t.02-2.594.085-2.592.15-2.59q.09-1.294.213-2.585t.278-2.578.343-2.572q.187-1.283.406-2.561t.47-2.551.533-2.538.596-2.525.66-2.508.72-2.492.784-2.472.844-2.453.905-2.43.965-2.408q.498-1.198 1.025-2.383.528-1.184 1.084-2.356.557-1.171 1.143-2.328t1.2-2.3 1.257-2.269 1.313-2.237 1.368-2.203 1.423-2.168 1.477-2.133 1.529-2.095 1.58-2.057 1.632-2.016 1.68-1.975 1.73-1.933 1.778-1.889c13.51-14.232 32.068-24.528 51.21-28.786 7.126-1.585 14.483-2.308 21.771-2.503 20.672-.534 41.987 6.001 59.15 17.439q3.786 2.547 7.336 5.414t6.837 6.03q.91.87 1.799 1.762.888.891 1.755 1.804t1.712 1.846 1.666 1.887 1.62 1.926 1.573 1.965q.775.993 1.525 2.003.751 1.01 1.477 2.039.726 1.028 1.427 2.074.7 1.045 1.376 2.108.675 1.062 1.325 2.14t1.272 2.172 1.22 2.202 1.166 2.23q.57 1.123 1.112 2.259t1.058 2.284q.514 1.149 1.001 2.31.487 1.16.946 2.333.458 1.172.888 2.355t.832 2.376.774 2.395.716 2.413q.343 1.212.657 2.43.314 1.22.599 2.445.284 1.227.539 2.46t.48 2.47.42 2.483q.194 1.243.359 2.491t.3 2.5.238 2.505.178 2.511.118 2.515c.702 26.954-9.342 54.32-27.976 73.928q-.886.95-1.796 1.877-.909.928-1.841 1.832-.933.905-1.888 1.786-.954.88-1.93 1.737-.977.857-1.974 1.69-.998.832-2.016 1.639-1.017.807-2.055 1.588t-2.095 1.537-2.132 1.484q-1.075.729-2.168 1.43-1.093.702-2.204 1.376-1.11.674-2.237 1.32-1.126.647-2.27 1.265-1.142.618-2.3 1.207t-2.329 1.15-2.357 1.091-2.385 1.032q-1.198.501-2.409.972t-2.432.912-2.454.85-2.475.79q-1.243.38-2.494.727-1.252.349-2.511.665t-2.528.602-2.54.54q-1.275.253-2.555.475t-2.565.412-2.574.347-2.583.283q-1.292.126-2.588.219t-2.593.154q-1.298.06-2.596.089m-4.244-205.46c-4.437.217-8.872.49-13.267 1.158q-1.076.158-2.148.34-1.072.181-2.14.386-1.067.204-2.13.432t-2.121.479-2.11.524-2.098.57-2.086.615-2.071.66-2.057.704q-1.025.364-2.041.75-1.017.385-2.025.792t-2.007.837-1.988.88-1.969.922-1.948.965-1.927 1.007-1.905 1.048-1.881 1.09q-.935.554-1.858 1.129t-1.833 1.17-1.807 1.209-1.78 1.248q-.884.633-1.753 1.285-.87.653-1.725 1.324t-1.696 1.36-1.666 1.398-1.635 1.433-1.604 1.467-1.572 1.503-1.54 1.535q-.76.776-1.505 1.569t-1.47 1.6c-18.036 19.87-27.09 46.973-25.783 73.649q.066 1.238.161 2.474t.22 2.47.281 2.463q.156 1.23.341 2.456t.4 2.447q.215 1.222.46 2.437t.52 2.424q.273 1.21.577 2.412t.637 2.396.694 2.38.753 2.363q.39 1.177.81 2.344.419 1.167.866 2.323t.923 2.302.979 2.278 1.033 2.254q.531 1.12 1.089 2.227t1.142 2.201 1.196 2.172 1.248 2.143 1.3 2.111 1.352 2.08 1.4 2.045q.714 1.014 1.451 2.011.738.996 1.5 1.975.761.978 1.547 1.938t1.593 1.9q.809.94 1.64 1.86t1.684 1.82 1.728 1.778 1.77 1.735 1.813 1.692q.78.707 1.575 1.397t1.603 1.363 1.632 1.33 1.658 1.296 1.685 1.261 1.71 1.226 1.735 1.191 1.76 1.154 1.784 1.118 1.806 1.08 1.828 1.043q.92.513 1.849 1.006.93.492 1.87.966t1.889.928 1.908.888 1.926.848 1.943.809 1.96.768 1.974.727 1.99.687 2.004.644q1.004.313 2.016.604 1.011.291 2.028.562 1.017.27 2.04.519 1.022.25 2.05.477 1.027.228 2.059.435 1.031.206 2.067.392 1.037.185 2.076.349t2.082.306 2.088.263q1.046.12 2.093.22 1.048.098 2.098.175c3.26.227 6.572.383 9.84.243 27.182-.518 52.38-12.256 71.135-31.757 4.154-4.32 7.75-9.024 11.025-14.036q.53-.806 1.046-1.621.515-.816 1.015-1.64.5-.825.984-1.66.484-.834.952-1.677.469-.843.92-1.695.453-.852.889-1.713.436-.86.856-1.728.42-.869.823-1.745t.79-1.76.756-1.774.723-1.788.69-1.802q.335-.904.655-1.814.319-.91.62-1.826.302-.916.586-1.838t.551-1.848.517-1.859.48-1.868.446-1.877.41-1.884.375-1.893q.178-.947.338-1.899.161-.95.303-1.905.143-.953.267-1.91.125-.956.231-1.915.106-.958.194-1.919.088-.96.159-1.922.07-.962.121-1.925.052-.964.086-1.927t.05-1.929q.015-.964.012-1.928-.003-.965-.024-1.93-.03-1.239-.089-2.478-.06-1.238-.15-2.475t-.21-2.47q-.12-1.235-.27-2.466-.15-1.23-.33-2.457t-.391-2.449-.45-2.439q-.24-1.216-.51-2.426t-.569-2.414-.627-2.399q-.329-1.196-.686-2.383t-.744-2.365-.802-2.347-.859-2.327q-.443-1.158-.915-2.304-.472-1.147-.971-2.282-.5-1.135-1.027-2.257-.528-1.122-1.082-2.231-.554-1.11-1.136-2.205t-1.19-2.176q-.607-1.08-1.241-2.146t-1.294-2.115q-.66-1.05-1.346-2.083t-1.396-2.05-1.446-2.014-1.495-1.979-1.542-1.942-1.59-1.903q-.805-.942-1.635-1.864-.829-.922-1.68-1.824-.852-.901-1.725-1.782-.873-.88-1.767-1.739-.896-.856-1.812-1.69-.917-.834-1.853-1.645-.936-.812-1.892-1.6-.956-.789-1.93-1.554-.975-.764-1.968-1.506-.994-.74-2.004-1.458-1.01-.716-2.038-1.408-1.029-.692-2.073-1.359t-2.104-1.308-2.136-1.256-2.166-1.205-2.194-1.15-2.221-1.098q-1.118-.535-2.248-1.043t-2.272-.989-2.296-.932-2.317-.877-2.339-.82-2.357-.764-2.375-.705-2.392-.648q-1.2-.31-2.407-.59t-2.42-.53-2.433-.471q-1.219-.222-2.443-.413-1.224-.192-2.453-.353-1.228-.162-2.46-.293-1.232-.132-2.467-.234t-2.472-.173-2.475-.113-2.477-.053q-1.24-.012-2.478.007z"/><path d="M132.8 228.243c-20.145.648-38.745-3.657-56.09-14.076-2.879-1.73-5.681-3.492-8.376-5.5-2.674-1.992-5.192-4.202-7.684-6.414-18.84-16.722-31.06-41.986-32.55-67.117q-.088-1.265-.143-2.532-.056-1.267-.08-2.535t-.016-2.536.047-2.536.111-2.534.175-2.53.238-2.525.301-2.519.364-2.51.427-2.5q.23-1.247.49-2.488t.552-2.475q.29-1.235.613-2.461.323-1.227.675-2.445t.736-2.427.797-2.408q.414-1.199.857-2.387.444-1.188.917-2.364.473-1.177.975-2.342.503-1.164 1.034-2.315.532-1.152 1.092-2.29t1.149-2.261q.588-1.123 1.205-2.232.616-1.108 1.26-2.2.645-1.093 1.316-2.169t1.369-2.135 1.422-2.1q.725-1.04 1.475-2.063.75-1.022 1.526-2.026t1.576-1.987 1.626-1.947 1.673-1.905c13.443-15.117 32.367-25.9 52.105-30.136 5.7-1.223 11.396-1.795 17.205-2.138q.132-.01.264-.017c5.548-.316 11.226-.004 16.735.682q.945.113 1.887.244.942.13 1.882.28.94.149 1.876.316t1.87.352q.932.185 1.862.388.929.203 1.854.424t1.846.459 1.837.494 1.827.53 1.817.565q.905.29 1.805.599t1.794.634 1.781.669q.887.342 1.768.702.88.36 1.754.736.874.377 1.74.77t1.724.803 1.709.836q.85.427 1.692.869.842.443 1.676.901.833.459 1.657.933t1.64.965 1.62.996 1.602 1.027 1.582 1.058 1.56 1.087 1.54 1.118 1.517 1.147q.754.58 1.496 1.175t1.472 1.205q.731.61 1.45 1.232.719.624 1.425 1.26.916.823 1.81 1.669.895.845 1.77 1.712.874.867 1.726 1.756.852.888 1.683 1.797.83.909 1.638 1.838.808.93 1.592 1.878.785.949 1.546 1.916.761.968 1.498 1.954.738.986 1.45 1.99.713 1.004 1.4 2.025.688 1.021 1.35 2.059t1.3 2.091 1.248 2.123 1.194 2.153 1.142 2.182 1.088 2.208 1.033 2.235q.502 1.124.977 2.26t.922 2.283.866 2.305.809 2.325.751 2.345.694 2.362.635 2.379.577 2.394.517 2.407.458 2.419.399 2.43.339 2.438.279 2.447.218 2.452.159 2.457q.058 1.226.087 2.453t.027 2.454-.033 2.455q-.031 1.226-.092 2.452t-.152 2.45-.212 2.446-.271 2.439-.33 2.432-.39 2.424-.448 2.413q-.24 1.203-.508 2.401t-.565 2.389-.624 2.374-.68 2.358-.739 2.34-.795 2.323-.852 2.302q-.44 1.146-.907 2.28-.467 1.135-.962 2.259t-1.018 2.233-1.07 2.209-1.126 2.182-1.177 2.153-1.23 2.124-1.28 2.094q-.654 1.04-1.332 2.062-.679 1.023-1.381 2.029-.704 1.006-1.431 1.994-.727.989-1.478 1.96-.752.97-1.526 1.922-.775.952-1.572 1.885-.798.933-1.618 1.846-.816.925-1.655 1.83t-1.7 1.788-1.745 1.745q-.883.861-1.788 1.7t-1.83 1.655-1.871 1.608-1.91 1.561q-.966.769-1.95 1.513t-1.987 1.463q-1.002.72-2.022 1.413t-2.058 1.362q-1.037.668-2.091 1.31t-2.123 1.257q-1.07.615-2.154 1.203-1.085.588-2.184 1.149-1.099.56-2.212 1.094-1.112.532-2.238 1.037t-2.263.982q-1.139.476-2.288.924-1.15.448-2.31.867-1.161.418-2.332.808t-2.35.75q-1.18.36-2.369.69t-2.385.63-2.4.571-2.415.511-2.426.45-2.436.388-2.446.328-2.453.266-2.459.204-2.463.143M76.843 65.698c1.285 1.534 2.917 3.838 4.866 4.528l.264-.05c.163-.424.031-.767-.154-1.17-.911-1.984-3.116-3.704-4.96-4.788a20 20 0 0 0-2.447-.983c.24 2.285.736 4.245 2.18 6.07 1.04.225 2.09.429 3.12.7-1.171-1.277-2.43-2.572-2.868-4.307m-4.392 4.352-.075.05zc.977-.239 1.867-.612 2.878-.733-.974-1.16-1.629-1.622-3.118-1.938-.992-.055-1.935.04-2.917.173.815.802 1.76 1.89 2.863 2.23.19.058.183.11.294.267m-.576.2c-.086.043-.192.07-.249.148zl.216-.072zm15.965.552c.229-1.074.737-1.723 1.654-2.315q.335-.214.68-.411c-1.673.26-3.254.475-4.931.136.452 1.322.539 2.432.36 3.826.914.25 1.835.535 2.765.713.359-.516.708-1.04 1.084-1.543l-.699 1.77c.972.477 2.91 1.681 3.865 1.81.166-.23.26-.413.347-.683 1.806-3.196 3.567-1.565 5.722-4.278-.496.308-1.046.707-1.598.895-1.93.655-3.428-.702-5.812.146.581-.562 1.148-1.118 1.8-1.599-1.333-.122-2.981-.64-4.12.278-.444.359-.714.869-1.117 1.255m16.934 5.721c.412.016.811.065 1.204-.084l-.05-.148c-1.35-.47-4.245-.376-5.513.248-.759.372-1.447.898-2.133 1.386.243.57 1.41 1.286 1.932 1.687 1-.839 4.15-1.916 4.56-3.088m-30.971 21.01.072.217.176.482.053.133-.053-.133-.176-.482zm39.893 11.144-.056.063zc3.764-2.701 6.365-5.198 10.968-6.75l-.016-2.17c-3.816 1.555-9.123 5.08-10.952 8.92m-1.106 1.015-.066.058zc.357-.275 3.46-4.676 3.65-5.157-1.218.57-3.168 3.873-3.65 5.157m3.824-80.03-6.14 16.362c-1.525 4.065-3.171 8.139-4.489 12.274l1.258.347 1.303.35c2.38-6.234 4.379-12.663 6.465-19.002.737-2.24 1.986-4.935 2.442-7.187.165-.817.196-1.655-.14-2.434-.16-.373-.355-.524-.699-.71m-2.629.537c-.62.293-1.343.627-1.727 1.227-1.187 1.855-2.862 7.254-3.695 9.53q-2.956 8.142-6.064 16.228l1.17.441 1.165.376c1.214-3.197 9.811-26.464 9.398-27.7zm24.941 7.029c-.56.803-3.459 4.82-3.515 5.431.149.078.295.156.45.223.898.045 1.32-.113 1.993-.718.843-.757 1.476-1.876 1.527-3.023.024-.544-.06-1.495-.455-1.913m11.097 2.697c-2.889.27-5.936.888-8.558 2.176.15.496.312.99.432 1.494 5.942-1.496 12.707-1.609 18.702-.23 1.961.566 3.899 1.211 5.68 2.23.486-.279.969-.547 1.421-.88-4.618-3.758-11.717-5.364-17.576-4.805q-.05.006-.101.015m-10.46 1.554c-.613.708-1.211 1.374-1.986 1.913.722.624 1.349 1.254 1.921 2.02l.339.58.213.019c.325-.275.388-.684.43-1.09.116-1.103-.078-2.467-.819-3.34q-.047-.052-.098-.102m8.358 1.447a30.4 30.4 0 0 0-6.064 1.068c-.102 1.12-.48 1.956-.982 2.94 5.303-2.231 11.077-2.305 16.65-1.121a22.7 22.7 0 0 1 5.222 1.974c.583-.303 1.13-.61 1.67-.986-5.07-2.928-10.647-4.218-16.496-3.875m-14.125 1.234c-4.62.84-7.087 4.454-10.027 7.719q3.74-1.116 7.574-1.85c.922-.172 2.612-.065 3.391-.518.168-.098.449-.504.52-.676.15-.358.075-.736-.118-1.058-.27-.451-1.083-.937-1.16-1.4.34-.115.794.054 1.107.203.356.17.692.425.832.809.215.59-.1 1.272-.414 1.766-.325.512-.755.776-1.266 1.08-.332 2.562-.646 5.163-2.164 7.335l-.111.112c-.397.393-.98.947-1.576.961-.357.008-.65-.165-.918-.377l-.063-.241c.184-.27.051-.166.37-.257a1.45 1.45 0 0 0 .932-.766c.193-.376.194-.68.077-1.083-.262-.281-.44-.443-.84-.453-.72-.02-1.474.403-1.954.914-.555.592-.807 1.32-.78 2.133.017.502.185.97.563 1.311.712.643 1.881.79 2.799.71 1.449-.128 2.99-.714 4.406-1.093 1.375-.369 2.764-.67 4.145-1.015.58-3.92 1.809-9.218-.84-12.663-.784-1.02-1.891-1.489-3.148-1.605a6 6 0 0 0-1.337.002m13.16 1.637c-1.86.15-4.724.335-6.038 1.83-.154.175-.235.34-.284.565.103.307.167.306.443.485 4.919-.612 9.907-.737 14.738.543 1.17.36 2.312.72 3.403 1.284.652-.511 1.316-1.002 1.87-1.62-4.227-2.467-9.28-3.38-14.131-3.087m-3.367 3.005c-.653.036-1.52-.022-2.114.25-.184.275-.2.306-.204.634.176.277.253.406.588.478.987.212 2.156.088 3.18.208 3.785.444 7.501 1.136 11.012 2.67a25 25 0 0 0 2.072-1.605c-4.96-1.983-9.142-2.914-14.534-2.635m-11.356 1.504c-.793.105-1.552.36-2.04 1.046-.166.233-.15.3-.127.57.334.238.643.266 1.048.21.661-.377 1.878-.904 2.23-1.598l-.076-.178c-.354-.133-.668-.083-1.035-.05m-37.11 2.915c-.648 1.273-.994 2.708-.535 4.112.229.697.652 1.392 1.34 1.702 2.29 1.03 4.844 1.079 7.234 1.77 1.845.535 3.852 1.02 5.644 1.69.894.333 1.68.946 2.64 1.108.947.16 1.915.018 2.8-.338q.134-.055.266-.118c.445-.337 1.063-.76 1.162-1.334-.743-.218-2.629.058-3.807-.175-2.178-.43-4.347-1.444-6.462-2.153-1.93-.646-3.942-1.137-5.847-1.825-.504-.182-1.052-.405-1.486-.72-1.371-.993-1.846-2.559-2.95-3.719m44.635 6.27q-3.042 1.06-6.176 1.81-3.133.748-6.326 1.178c-.403-.24-.803-.491-1.22-.704-.6.24-1.179.475-1.737.806 1.12 1.47 2.327 2.356 3.984 3.168 3.37 1.465 5.61.716 8.849-.562 2.133-.843 3.985-2.14 6.25-2.646-.709-.908-2.303-2.887-3.503-3.049-.04-.005-.08-.001-.121-.002m-38.342 2.224c-.263.282-.53.51-.673.874.58.208 1.225.194 1.832.29 1.122.175 2.281.49 3.33.93l-.17-.01c-1.125-.063-4.687-1.021-5.467-.373.182.398.487.595.89.759.927.376 4.478.478 4.854.898l-.206-.164-.115.261a39 39 0 0 1-2.8-.26c-.78-.125-1.718-.37-2.499-.23l-.18.398c1.793 1.449 4.048 1.54 6.189 1.999.294-1.091.83-2.52.21-3.585-.472-.81-1.47-1.162-2.334-1.363-.912-.212-1.927-.346-2.86-.424m6.554 1.075c-.573 1.14-.098 3.837-.15 5.236l-1.371-.126c-.312.625-.652 1.247-.905 1.898.897.483 1.76.848 2.753 1.091.595-.939 1.17-1.895 1.946-2.7-.531 1.16-1.216 2.291-1.942 3.338a87 87 0 0 0 6.086 4.751l2.474 1.707a50 50 0 0 0 2.522-5.305c-1.097-.728-7.754-5.354-8.396-5.211-.202.044-.416.157-.604.244-1.28-1.047-1.165-4.02-2.414-4.923m35.2.996c-1.326.227-2.38.754-3.155 1.892-.819 1.203-.991 2.718-.705 4.123.447 2.19 1.944 2.91 3.14 4.557-.308-.793-.59-1.57-.804-2.394-.177-1.532-.122-2.863.876-4.138 1.202-1.536 3.052-2.027 4.899-2.21q.325-.031.65-.054c-1.197-1.171-3.043-1.826-4.726-1.783zm-17.858 1.703q-.662 1.712-1.136 3.484t-.754 3.587c-.727 4.89-.56 12.182 1.425 16.69.064.146.136.282.212.422 2.993-.376 6.181-.4 9.11-1.074-.1 1.261-.056 2.903.77 3.931.311.389.76.648 1.261.685.956.069 1.95-.314 2.651-.954.88-.803 1.504-1.828 2.474-2.551 1.604-1.197 3.763-2.019 5.588-2.831q3.477-1.52 6.89-3.178c.779-.436 2.191-1.076 2.474-1.992.106-.344.079-.573-.085-.892-.517-1.005-2.435-1.672-3.5-1.913a11.4 11.4 0 0 0-4.194-.147c-1.498 1.228-2.864 2.594-4.311 3.878-2.115 1.877-4.74 3.718-6.416 5.986l-.174-1.569c-1.684-.319-3.498-.134-5.209-.2-1.839-.07-3.637-.459-5.428-.851.052-4.758-.094-9.516-.107-14.275-.005-1.783.255-3.609.183-5.375-.57-.286-1.142-.603-1.724-.861m-25 .231c.13.698.408 1.2.83 1.763.786.204 1.695.316 2.418.67l.012.189c-.551.413-1.25.554-1.9.755a7.1 7.1 0 0 0 1.763 1.123c-.367.74-.555 1.463-.73 2.267.398-.403.815-.798 1.175-1.235.66-.977 1.442-2.087 1.771-3.226-.33-.249-.765.04-.892-.282.32-.139.636-.091.961-.21v-.216c-.273-.072-.456-.07-.73-.045-1.312.118-3.591-.82-4.678-1.552m37.658.156c-3.862 1.784-5.62 2.508-9.799.956l-.21-.08c-.332 2.782-.214 5.629-.183 8.424q.072 5.051.048 10.102c.7.062 1.409.103 2.105.192 3.534.317 7.57.236 10.906-1.114-.453-2.071-.877-4.099-1.01-6.222-.102-1.599.045-3.352-.255-4.913-.235-1.224-1.155-2.24-1.503-3.457l-.052-.177c-.275-1.024-.1-2.476.063-3.525zm7.69 1.012c-1.166.505-2.183 1.178-2.676 2.41-.437 1.093-.44 2.43.041 3.508.788 1.767 3.904 3.918 5.422 5.328l.348-1.175c.841-2.263 2.118-3.374 4.004-4.752-1.381-1.481-4.595-5.287-6.726-5.342-.175-.004-.249.007-.413.023M82.33 67.6c1.425 3.366.374 6.453-.947 9.694q-1.052 2.591-2.423 5.028c-1.248 2.18-5.144 7.427-5.373 9.521.15.336.214.327.546.5.148-.09.212-.126.317-.269 3.69-6.294 8.583-12.284 9.838-19.68.163-.964.41-2.148.166-3.112-.137-.543-.442-1.087-.949-1.36-.349-.187-.79-.245-1.175-.322m-7.818 3.045c-.74.196-1.483.38-2.207.626 2.764.563 5.641.686 8.435 1.121.493.07.875.166 1.338-.052l.072-.147c-.63-.809-4.344-1.409-5.446-1.549q-.546-.067-1.096-.067t-1.096.068m46.646.727c-1.858 1.633-3.353 6.848-3.865 9.218.449.203.897.427 1.367.578.428.039.56.088.903-.218.817-.728 1.575-1.809 2.21-2.704.004-2.271.109-4.438.383-6.693-.356-.215-.588-.171-.998-.181m-25.021.653c-1.134.232-1.875.594-2.524 1.59a9 9 0 0 0-.72 1.371c.506.267 1.007.546 1.52.796.335-.324.602-.636 1.06-.767l.016.16a7 7 0 0 1-.775.732c1.126.642 2.26 1.27 3.336 1.993 1.072-1.583 2.859-2.09 4.608-2.665.69.03 1.36.082 2.044.176-1.574-.756-3.528-1.864-5.311-1.232-1.197.424-2.101 1.34-3.215 1.903 1.359-1.613 2.537-2.32 4.617-2.684-1.475-.635-3.01-1.45-4.656-1.373m-23.883.46c-2.437 3.279-2.538 5.933-3.876 9.576-.896 2.442-2.06 4.74-3.173 7.083 2.613.332 4.936.654 7.264 1.972l.918-1.721c2.95-5.234 6.666-9.956 8.53-15.746-3.219-.37-6.459-.696-9.663-1.163m13.154.82c-.115.33-.288.727-.279 1.08.025.936.483 2.086.724 2.994.484 1.816.828 3.835.741 5.721-.127 2.739-1.068 4.632-1.849 7.165.625 1.869 1.22 3.675 1.56 5.622q4.617-.085 9.212-.535t9.14-1.264l4.16-.802c-1.4-2.817-2.967-5.564-4.95-8.016-4.27-5.275-10.8-9.41-17.233-11.554-.408-.136-.827-.25-1.226-.41m67.893.278q-.331.209-.65.435-.32.227-.627.47-.306.244-.599.505-.293.26-.57.536-.278.276-.54.567t-.508.596q-.246.304-.475.622t-.439.648c2.299-.338 3.895-.469 6.098.509l.15.087c.685.402 1.28 1.161 2.001 1.404.345-.088.365-.118.548-.446.076-.136.13-.316.183-.46-.955-1.844-2.562-4.21-4.26-5.433zm-12.857.154c.055 3.311.207 6.85 1.033 10.066l.92-.882c.196-1.118.122-2.303.182-3.438.072-1.368.267-2.713.481-4.064-.858-.607-1.635-1.28-2.616-1.682m-56.105 2.717c-.163.396-.331.788-.345 1.221-.053 1.715.433 3.6.684 5.306.137.937.187 1.88.326 2.817l.094.06c.645-2.553.337-5.523-.255-8.062-.079-.337-.16-.905-.354-1.19-.04-.06-.1-.102-.15-.152m20.061.917c-1.37 1.044-2.287 1.942-4.002 2.45a31 31 0 0 0 1.933 1.66c.934-.526 1.865-1.097 2.845-1.533 1.652-.428 3.123.118 4.762-.08q.24-.028.48-.064c-2.292-.397-3.788-1.848-6.018-2.433M82.97 79.73c-.87 1.957-1.73 3.97-2.88 5.782-1.482 2.339-3.541 4.867-4.773 7.296l.082.137c.257.02.5.038.757.018 2.63-.261 5.71-1.5 7.554-3.448.24-1.561.08-8.278-.665-9.702-.017-.033-.05-.055-.075-.083m22.947.42c-1.156.418-2.17 1.114-3.211 1.755l1.735 1.844c1.632-1.511 3.427-1.667 5.529-1.636-1.914.462-3.581.826-5.2 2.017.451.631.897 1.258 1.402 1.848 1.187-.56 2.367-1.18 3.619-1.584-1.058.757-2.105 1.574-3.213 2.254.411.68.828 1.343 1.29 1.99.527-.728.872-1.338 1.82-1.502.518-.089 1.11-.206 1.557.11l-.06.126c-1.43.166-1.996.743-3.067 1.672.369.679.753 1.353 1.088 2.049.775-.595 2.13-1.782 3.144-1.666.21.023.16.019.33.136-.776 1.033-2.936.938-2.984 2.636l.312.705q.053-.021.11-.041c.926-.337 1.928-.508 2.887-.734 2.558-.603 4.73-1.513 6.771-3.2-1.68.832-3.386 1.838-5.316 1.17-.583-.203-1.091-.547-1.599-.889 1.868-.765 3.19-1.404 4.605-2.9-1.095.703-2.426 1.713-3.81 1.436-1.089-.217-1.808-1.05-2.52-1.83 1.35-.038 2.66-.107 3.989-.36-1.47-.025-2.95.057-4.072-1.065a4.5 4.5 0 0 1-.725-.967c1.317-.461 2.601-.966 3.853-1.584-1.795.386-3.137.565-4.756-.471-1.257-.806-1.913-1.377-3.508-1.319m26.758 8.908c-2.507.25-5.14.638-7.587 1.242.138.404.246.984.562 1.261h.052c1.062-.258 6.98-1.445 7.358-1.664.079-.045.119-.138.178-.207.014-.322.002-.355-.161-.633-.167-.025-.24-.06-.402 0m10.085.28c-.33.23-.709.417-.847.814.025.687.862 1.743 1.227 2.346q1.865 3.031 3.553 6.165c.75 1.403 1.406 3.04 2.348 4.316.165.059.19.106.36.043.33-.19.71-.349.915-.68-.467-1.654-6.485-12.225-7.477-12.963-.024-.018-.052-.027-.078-.04m-78.26.997c-.206.515-.4 1.04-.638 1.542 3.014-.1 6.234.162 8.554 2.302 1.363 1.257 2.643 3.589 2.674 5.462.011.629-.148 1.134-.61 1.575-.258.247-.764.647-1.135.648-.313.002-.536-.131-.72-.376-.29-.387-.331-.933-.4-1.395l-.028-.171-.015-.104c-.373.058-.669.264-.885.589-.276.414-.153.943-.064 1.393.372.617.707 1.063 1.436 1.245.888.223 2.169-.115 2.91-.625a2.5 2.5 0 0 0 1.068-1.676c.348-2.035-.916-4.572-2.108-6.159-1.902-2.534-4.584-3.683-7.66-4.082q-1.185-.155-2.379-.168m59.18.3c-3.995 1.07-7.926 2.415-11.957 3.34-2.259.519-4.568.863-6.852 1.256-7.615 1.312-15.239 2.215-22.981 1.985-1.676-.05-3.44-.047-5.07-.471l.802 1.995c12.076 1.284 28.852-1.636 40.634-4.86 2.039-.559 4.212-1.004 6.173-1.787-.13-.487-.216-.993-.523-1.402zm9.374.9c-1.208.262-2.39.555-3.578.901-.022 3.788-.202 7.577-.293 11.364q-.197 9.652-.624 19.297c4.285 1.43 9.112 1.954 13.598 2.33 1.337.09 2.67.129 4.01.16l-6.563-21.367c-.994-3.265-2.075-6.513-2.972-9.807-.882.031-1.702.034-2.388-.607-.498-.465-.862-2.137-1.19-2.272m7.475-.092c-.229.272-.526.546-.51.924.042.993.952 2.73 1.274 3.746l6.375 19.624c.927 2.813 1.631 5.936 2.882 8.613.712.225 1.861-.416 2.506-.737.485-.254.987-.494 1.446-.79-1.05-2.229-1.727-4.663-2.545-6.987q-2.091-5.843-4.121-11.707c-.725-2.125-1.267-4.642-2.4-6.575-.411-.702-1.052-1.147-1.803-1.434-.66-.253-1.378-.361-2.072-.486-.193-1.403-.464-2.886-1.032-4.19m-13.072 1.467c-.556.135-1.117.259-1.664.425l-.398 19.876c-.065 3.363-.423 7.229-.104 10.546.08.825.25 2.004.85 2.605 2.008 2.004 15.824 3.175 19.051 2.98 3.058-.186 7.24-1.088 9.631-3.134.721-.617 1.357-1.449 1.99-2.159l.123.154c-.118.682-.392 1.323-.72 1.931l1.846-.005c-.142-1.68-.256-3.483-.592-5.132l-1.871-.007c.312.743 1.06 2.066.777 2.846-.614 1.696-4.537 2.843-5.655 4.224q-2.101-5.93-4.006-11.927c-.685-2.09-1.501-4.213-2.073-6.334q-1.672-4.775-3.183-9.602c-.709-2.274-1.318-4.641-2.167-6.864l-1.659.794c.978 3.395 2.1 6.748 3.125 10.13 1.24 4.085 2.394 8.196 3.678 12.267 1.127 3.574 2.762 7.843 3.604 11.413-1.475.206-2.93.313-4.42.268-2.64-.08-13.895-1.219-15.704-2.665-.447-.357-.482-.944-.526-1.484-.279-3.464.474-30.58.108-31.12zm-62.887.145c-.382.016-.903-.034-1.205.216-.369.698-.25 1.349-.017 2.083.404 1.273 1.204 2.397 2.41 3.02.857.444 1.825.581 2.748.265.696-.237 1.124-.642 1.606-1.183.223-.4.452-.799.661-1.206.497.103 1.055.259 1.52-.03.171-.105.122-.103.206-.327-.149-.67-.724-1.102-1.279-1.452-1.962-1.236-4.389-1.456-6.65-1.386m56.532 1.019c-2.454 1.853-4.482 4.347-6.8 6.397-9.426 8.33-16.782 11.615-29.252 13.287.071.528.066 1.15.428 1.564.25.101.413.078.677.046 2.548-.358 5.102-.719 7.596-1.364 8.503-2.198 15.682-7.27 22.089-13.112 1.698-1.549 4.602-4.015 5.963-5.748.191-.244.228-.356.268-.652-.274-.294-.559-.4-.969-.418m-5.45 2.224c-.509.068-1.034.114-1.533.236.481.227.967.448 1.435.701.313-.146.53-.362.778-.595l.09-.279c-.297-.163-.444-.095-.77-.064m-2.763.416c-.172.36-.077.7.041 1.066.12.373.298.58.595.826.373.096.367.05.71-.139.284-.238.472-.288.506-.667-.32-.538-.929-.845-1.52-1.025-.159-.048-.189-.046-.332-.061m-1.774.457c-8.067 1.78-16.082 2.907-24.332 3.345q.245 1.185.39 2.386.144 1.201.188 2.41.043 1.208-.014 2.417t-.216 2.407c-.059.455-.34 1.396-.011 1.721l.314-.031c2.144-.273 4.263-.582 6.349-1.167 6.791-1.904 13.186-6.092 18.472-10.684-.27-.762-.622-2.24-1.14-2.804m6.178 4.46c-.39.368-1.197.948-1.323 1.465.292.208.787.09 1.139.048a8.4 8.4 0 0 0 1.438-.421c-.398-.388-.776-.803-1.254-1.091m7.127 1.485c-3.92 1.657-9.041 4.301-12.076 7.258 1.402 0 2.742.003 4.114.337 2.734.7 5.608 1.988 8.089 3.326.034-1.536.24-10.074.001-10.868zm33.691.44c-.853.057-1.71.096-2.554.238q.593 2.31.934 4.671 1.877-.082 3.755-.061l2.609-.01c-.403-1.61-.836-3.213-1.068-4.858-1.225-.004-2.452-.025-3.676.02m5.213.041c.3 1.605.631 3.212.866 4.827 1.88-.01 3.763-.047 5.643 0-.28-1.332-.62-2.677-.812-4.024-1.908-.204-3.793-.633-5.697-.803m-49.074.403c-1.732.753-3.347 2.254-4.833 3.405.476-.086.951-.181 1.43-.25.882-.086 1.786-.138 2.656-.304.648-.895 1.282-1.867 2.06-2.656-.434-.066-.876-.154-1.313-.195m39.786.017c-1.379.376-2.697.897-4.016 1.444.24.674.75 2.672 1.323 2.974l.08-.012c1.266.008 2.536-.005 3.801.027-.164-.797-.622-3.96-1.122-4.415zm16.422.79c.35 1.202.61 2.393.84 3.624l3.794-.078c-.237-.554-.458-1.12-.727-1.66-1.175-.737-2.58-1.477-3.907-1.886m5.342.615c.207.58 1.96 1.598 2.501 2.282.095.12.19.236.281.358 5.299 1.343 10.229 3.094 13.183 8.028 3.028 5.056 2.467 10.628 2.971 16.245.43 4.79 1.593 9.506 3.94 13.732.873 1.574 2.185 3.451 4.026 3.908 1.626.403 3.302-.03 4.689-.917a8 8 0 0 0 1.651-1.425c1.786-2.317 2.941-5.505 2.54-8.457-.174-1.276-.614-2.767-1.253-3.888-.736-1.288-1.746-2.488-2.643-3.669-2.64-3.475-5.477-6.717-8.27-10.065-3.022-3.62-7.001-9.356-10.631-12.056-3.248-2.416-8.952-4.15-12.985-4.076m-1.031 1.498c.245.543.512 1.288 1.089 1.559.358.168.82.08 1.2.04-.57-.59-1.535-1.284-2.29-1.599m-64.237 1.004c-1.075.091-1.914.238-2.901.72l.85 2.633 1.384-.105c.587-.03.867.022 1.278-.444.741-.838 1.134-1.943 1.812-2.84-.803.006-1.622-.02-2.422.036m-4.15 1.423c-.868.515-3.336 1.698-3.888 2.32a.96.96 0 0 0 .537.01q2.108-.144 4.214-.326c-.192-.647-.343-1.33-.692-1.912zm51.396.08c-.313.043-.71.013-.927.246.164 1.475.377 2.942.577 4.412q2.865-.017 5.73.01l.674-.005c.179-1.336-.58-3.24-.778-4.607-1.746.002-3.534.07-5.276-.056m-6.205.057c.51 1.5 1.017 2.993 1.618 4.46 1.055-.014 2.103.205 3.154.123.152-1.226-.614-3.274-.811-4.562q-1.981.015-3.961-.021m12.812.03q.426 2.286.695 4.597 2.755.058 5.511.016c.014-1.428-.282-3.29-.666-4.66zm7.015-.035c.077 1.532.26 3.056.34 4.589 1.569.007 3.164.069 4.73-.012l.132-.189c-.257-.953-.765-3.792-1.348-4.354-1.243-.195-2.594-.025-3.854-.034m4.739-.027c.653 1.414 1.03 3.048 1.367 4.564l3.545-.022c-.623-1.53-1.856-3.392-3.11-4.464-.6-.026-1.202-.065-1.802-.078m-64.21 2.466c-.436.585-.083 2.318.017 3.028 3.06-.363 5.862-.304 8.874.444l.198.006c.033-.379-.198-.772-.342-1.115-2.904-1.353-5.477-2.497-8.748-2.363m-1.707.139-1.454.09c.17 1.05.25 2.495.771 3.417.154.032.298.07.457.07l1.48-.178-.058-.202c-.22-.762-.241-2.76-.719-3.21zm-2.889.13-5.177.336c.166.806.382 3.001.888 3.54 1.716-.104 3.453-.159 5.162-.338-.144-.859-.301-2.897-.873-3.538m-6.628.32c-1.575.635-3.143 1.257-4.757 1.788.111.655.153 1.63.526 2.17l.374.069c1.614-.172 3.234-.259 4.848-.422-.157-.686-.556-3.175-.99-3.605m-6.139 2.138c-1.57.398-3.15.718-4.738 1.035.042.46.028 1.009.269 1.411.124.034.25.081.378.089l4.65-.533c-.086-.56-.106-1.526-.436-1.977zm58.99.365c.535 1.717 1.036 3.475 1.845 5.088.642.032 1.278.073 1.92.025-.176-1.64-.342-3.474-.836-5.05-.83-.254-2.05-.045-2.928-.062m4.065.039c.044 1.649.298 3.354.54 4.986q3.36.076 6.721.067c-.4-1.628-.516-3.352-.783-5.01q-3.239-.038-6.478-.043m11.52.01q-1.971.01-3.941.057c.253 1.649.464 3.34.582 5.004l1.656.004 3.888.005c-.168-1.55-.127-3.456-.617-4.924-.473-.227-1.055-.148-1.568-.146m2.713.07c.234 1.658.305 3.325.471 4.99 1.71.001 3.423.027 5.132-.003.217-1.557-.416-3.367-.635-4.92q-2.484-.067-4.968-.067m5.817.06c.024 1.594.388 3.251.61 4.835 1.36.325 3.158.113 4.577.098.183-.23.156-.11.128-.388-.143-1.437-.977-3.255-1.498-4.615-1.272.009-2.547-.004-3.817.07m-89.553.742c-.654.042-1.355-.033-1.827.463-.073.37-.037.579.042.937.22.195.22.201.512.215.646-.042 1.3-.064 1.943-.14-.028-.483.01-1.052-.255-1.47-.15-.017-.266-.037-.415-.005m26.956.249c-.83.048-1.688.057-2.508.183.283 2.66 1.314 4.74 2.191 7.23a33 33 0 0 1 1.403 5.508c.422 2.562.498 5.157.485 7.748-.009 1.792-.168 3.748.162 5.513 1.58.044 3.029-.049 4.535-.562.516-.242 1.039-.475 1.544-.738-.61-1.07-.922-1.973-.99-3.21-.19-3.477 3.243-19.984-1.47-21.342-1.597-.46-3.683-.376-5.352-.33m-3.727.249-1.775.09c.086.753.119 3.138.68 3.623l.343.003 1.808-.053c-.18-.592-.749-3.424-1.056-3.663m-4.853.27c-1.143.08-2.29.181-3.436.208a83 83 0 0 1 .52 3.637l1.579-.079c1.207-.067 2.436-.082 3.638-.203-.108-1.215-.187-2.46-.483-3.647-.604.022-1.218.021-1.818.084m-4.953.356c-1.681.105-3.364.258-5.046.346.097.86.08 2.87.555 3.52l.135-.005c1.692-.122 3.396-.269 5.092-.3-.075-.746-.107-3.13-.637-3.565zm-7.622.647q-1.885.21-3.777.335c.112.756.148 2.927.686 3.385l.518-.018q2.157-.166 4.31-.38c-.116-.974.016-2.58-.645-3.322-.347-.171-.724-.056-1.092 0m-5.34.612-2.147.154c.013 1.076-.109 2.442.294 3.443.259.114.256.085.517.047.677-.12 1.364-.221 2.031-.386-.093-.882-.07-2.481-.5-3.25zm21.495 2.712c.051 1.364.067 2.743.167 4.103l2.945-.03c-.082-1.38-.169-2.785-.425-4.145zm48.264-.011c.045 1.676.267 3.383.519 5.04l6.511-.05c-.175-1.628-.306-3.273-.6-4.885q-3.214-.07-6.43-.105m-51.465.182c-1.066.051-2.144.071-3.207.177q.179 1.996.271 3.998l1.622-.096 3.565-.131-.266-4.029c-.66.025-1.326.037-1.985.081m59.067-.087c.246 1.613.287 3.31.356 4.94q2.741-.094 5.484-.099c-.059-1.603-.419-3.239-.41-4.822-1.81-.046-3.62-.102-5.43-.019m7.808.066-1.106.09c-.157 1.535.275 3.119.211 4.664 1.558-.009 3.122-.043 4.68-.007l.433-.038c.374-.684-.272-3.846-.405-4.725-1.251.034-2.584-.147-3.813.016m4.653.047c-.051 1.503.425 3.242.642 4.754l5.12-.054c-.22-1.529-.35-3.153-.695-4.654-1.688-.077-3.378-.054-5.067-.046m-76.259.21c-1.726.102-3.475.154-5.194.34.176 1.244.127 2.584.376 3.802l.166.081q2.574-.074 5.144-.224c-.033-1.279-.066-2.631-.324-3.885zm-7.42.495c-1.353.111-2.714.198-4.064.341.085.904.012 2.953.563 3.651.194.017.366.035.561.016 1.42-.056 2.845-.09 4.263-.19-.086-1.028.04-2.943-.528-3.79-.303-.099-.486-.07-.794-.028m-7.105.5-.62.075c-.308.404-.255.936-.192 1.425.096.743.277 1.474.373 2.217l1.669-.062c.353-.044.529.01.78-.264.223-1.195-.22-2.328-.319-3.514zm26.154 1.416c.028 2.133 1.236 13.222 2.15 14.227-.061-4.133-.373-8.229-1.433-12.24-.155-.586-.346-1.518-.717-1.987m-30.446 2.206c-3.853.435-7.508 2.084-11.286 2.918-2.254.497-4.859.405-6.955.942-.778.2-1.395.525-1.893 1.168-1.313 1.699-1.255 4.347-2.047 6.33-.836 2.091-2.191 3.99-2.935 6.107-.234.667-.416 1.328-.294 2.037.247 1.441 1.35 2.538 1.79 3.897.352 1.088.19 2.299.275 3.428.193 2.545 2.797 5.262 4.528 6.928 2.066-2.268 2.527-5.63 2.997-8.557l-1.059-1.141c-.744-.751-1.493-1.481-2.367-2.083-.765 1.637-1.355 2.714-2.836 3.803.482-.967 1.649-2.485 1.67-3.54-.353-.248-.693-.112-1.046-.249-.497-.193-1.16-1.594-1.221-2.096-.143-1.148.958-1.748 1.38-2.677 1.096-2.416.903-4.865 2.902-7.156 1.143-1.309 2.858-1.993 4.57-2.073 2.06-.096 4.263.607 6.257 1.083 4.365 1.041 8.524 1.794 13.04 1.341-.975-2.953-1.918-5.299-2.58-8.41-.107-.502-.24-1.73-.757-1.947-.469-.197-1.619-.133-2.133-.053m23.759.005q-1.551.062-3.1.165c.054 1.335.13 2.673.137 4.008l2.146-.064 3.098-.046c-.078-1.373-.142-2.75-.236-4.122-.664.011-1.39-.03-2.045.059m3.247-.058c.04 1.37.053 2.748.145 4.117.97-.014 1.949-.002 2.916-.062q-.092-2.039-.21-4.076zm-9.293.325c-1.226.052-2.457.083-3.68.172.068 1.292.159 2.586.151 3.88l1.336-.029 4.025-.103q-.044-1.999-.177-3.994c-.55.023-1.105.035-1.655.074m-5.146.234q-2.397.078-4.793.198c.159 1.24.25 2.539.495 3.762 1.568-.064 3.14-.154 4.709-.142-.02-.72.094-3.395-.378-3.807-.009-.008-.022-.008-.033-.011m85.97.132H182zm-92.329.114-2.267.123c.309 1.268.576 2.564.965 3.81a25 25 0 0 1 2.078-.127c-.165-1.196-.154-2.58-.523-3.715-.083-.033-.163-.09-.253-.091m66.317.063q-.948.524-1.91 1.021c.07 1.172.105 2.38.297 3.537l2.358-.042c.566-.018 1.139-.017 1.703-.064.132-1.458-.357-2.877-.161-4.315-.697-.046-1.607-.22-2.287-.137m3.097.126c-.047 1.453.256 2.927.13 4.36q3.323-.021 6.644-.122c.068-.254.017-.363-.034-.609-.224-1.084-.143-2.456-.23-3.588-2.167-.019-4.344-.081-6.51-.04m7.442.013c.095 1.4.138 2.799.172 4.202q2.811-.049 5.622-.061c-.337-1.329-.31-2.805-.357-4.173-1.81-.005-3.629-.046-5.437.031m6.483-.059q.012 2.095.105 4.188c1.828.015 3.66.06 5.488.035a55 55 0 0 1-.257-4.164zm6.284.096.161 4.127 5.457-.039c-.155-1.31-.352-2.63-.424-3.947-1.73-.086-3.46-.193-5.193-.141m-53.166.751c-.257 1.227-.545 2.454-.74 3.692.652.301 1.312.65 2.053.565l.119.145.645.365c.28-.958-.222-2.91-.365-3.96-.614-.225-1.16-.443-1.712-.807m2.797.787q-.054 2.212-.23 4.418c.294.298.462.593.906.629.577.046 1.135-.209 1.713-.062l.061.227c-.527.356-5.807.341-6.908.408-.109.507-.253.964-.094 1.477 1.904.096 4.063-.318 5.973-.494l6.757-.623c1.558-.148 3.258-.227 4.767-.648l.295.012c.341-.682.154-2.206-.08-2.922a2.3 2.3 0 0 0-.244-.544l-.214.027.114-.115c-.025.036-.056.07-.076.109-.434.85.206 2.493-.287 3.292l.078-.314c-.682-.895.566-2.833-1.545-3.045-.91-.091-1.844-.095-2.761-.18.04 1.257.123 2.528.08 3.785-.559-.016-1.273.047-1.79-.171l.065-.35c.46-.094.628.288 1.072.198.284-.843-.485-2.657-.617-3.599-2.376-.317-4.66-1.278-7.035-1.515m24.102.032c-.573.26-1.143.536-1.73.762.115 1.104.78 5.041.27 5.822l-.278.053c-1.383-1.294-2.029-3.472-2.936-5.12-1.678.321-3.372.385-5.074.451 0 1.47.035 2.952-.02 4.421-.407.118-1.145.246-1.383.62-.184.29-.185.39-.119.7.84.772 3.473.377 4.572.33q15.376-.677 30.766-.895 4.152-.147 8.308-.127c-.11-1.124-.17-2.278-.36-3.39l-5.498.002c-.041.527-.06.965-.31 1.443l-.184.032c-.341-.448-.356-1.007-.47-1.543-1.826.085-3.618.004-5.442-.005-.063.611-.083 1.188-.37 1.743l-.166.024c-.169-.332-.206-.583-.234-.946l-.061-.788c-1.43.004-4.174-.235-5.445.027-.199.42.004.82-.346 1.127l-.34-.06c-.2-.287-.21-.592-.252-.93-.728-.5-5.377-.144-6.517-.148-.053.48-.058.961-.329 1.375l-.188-.023c-.256-.428-.312-.846-.395-1.332l-3.984.06-.208 2.007-.584-2.103-1.734-.194c.548-.173 1.095-.356 1.653-.499-.1-.804-.088-2.177-.465-2.87zm-3.205 1.075c-.157.398-.106.607.063 1 .231.538.488 1.055.701 1.601.082-.547.082-1.932-.223-2.386-.045-.068-.106-.124-.16-.186zm-43.273 1.383-2.284.058v4.132l3.105-.05 2.43-.069c-.112-1.378-.245-2.757-.306-4.138-.981.019-1.966.02-2.946.067m4.1-.049c.064 1.368.142 2.736.135 4.105 1.06-.063 2.121-.139 3.183-.162.097-1.254-.261-2.677-.381-3.939zm-10.447.175-2.474.042c.009 1.37.048 2.748-.003 4.117l2.846-.035 2.723-.044c-.102-1.38-.213-2.762-.279-4.143-.937.018-1.877.02-2.813.063m-8.4.107c.135 1.314.299 2.63.385 3.948q2.352.092 4.707.11c-.266-1.377-.384-2.71-.417-4.11-1.554.008-3.124-.024-4.675.052m-3.226.084c.346 1.122.516 2.779 1.366 3.61.37.17.7.139 1.096.129l-.578-3.756zm36.32 1.465-.062.523c.574.454 1.504.123 2.206.148l.144-.122c-.078-.17-.166-.184-.338-.24-.597-.197-1.323-.211-1.95-.31m15.678 2.795c-4.385 1.011-8.734 1.994-13.203 2.583-.887.117-3.485.177-4.098.766-.064.338.05.594.231.876.163.253.369.47.586.677 4.099.679 13.144-2.09 16.558-4.54a1.3 1.3 0 0 0 .311-.329c-.14-.027-.241-.052-.385-.033m-50.601.234.188 1.464c8.113.985 16.397.199 24.538.175l-.285-1.698c-8.18.323-16.261.321-24.441.059m67.49 1.313c-4.888.06-9.768.196-14.657.143 1.401 1.498 2.841 3.077 4.582 4.186 5.294 3.37 12.186 4.33 18.325 4.972 4.67.487 17.031.484 20.447 3.373 3.516 2.972 3.846 9.766 3.71 13.947-.045 1.355-.17 2.731-.575 4.031-.742 1.873-2.03 3.073-3.512 4.396 1.623.034 3.257.112 4.88.099.082-1.536-.046-3.547 1.175-4.68.873-.812 2.152-.953 3.291-.866.404.03.802.092 1.2.165-1.486-.813-2.28-1.792-2.75-3.44-.866-3.036-.456-10.159-.217-13.468.068-.951.492-2.204.337-3.099-.085-.49-.545-.873-.948-1.108-3.344-1.947-5.386-1.793-6.655-6.266q-.336-1.23-.594-2.477c-9.34.203-18.705-.252-28.04.092m-15.704 1.281c.418 3.819 2.815 6.891 5.755 9.233 1.31 1.044 2.852 2.046 4.418 2.655.924.359 2.195.605 2.993 1.175.392.28.643.692.705 1.17.094.739-.237 1.506-.71 2.059-1.175 1.372-13.276 6.12-16.084 7.725-.469 1.646-1.014 3.21-1.742 4.763 1.317-.113 2.344-.768 3.57-1.202 1.077-.38 2.139-.441 3.27-.46.533-1.733 1.115-3.076 2.639-4.181 1.878-1.14 4.012-1.743 6.08-2.45 3.983-1.363 7.93-2.75 11.446-5.121-.3-1.507-.807-2.843-1.504-4.214.01 1.65.124 2.541-1.078 3.765-.57.58-1.71 1.735-2.547 1.802-.203.016-.146-.009-.325-.179.75-1.916 2.367-4.578 1.46-6.723-.124-.294-.3-.438-.596-.538-1.748-.59-3.814-.459-5.63-.976q-.668-.187-1.323-.416t-1.295-.499-1.26-.58q-.622-.309-1.222-.657-.601-.348-1.178-.733-.578-.385-1.13-.806t-1.076-.876-1.02-.941c-.866-.87-1.674-2.046-2.616-2.794m-43.531.983c1.895 6.904 6.603 21.628 5.24 28.321-.387 1.897-1.575 3.896-2.537 5.557l-.071.118c-1.155.205-2.28.419-3.407.752-.862 1.358-1.61 2.689-2.214 4.184 2.484.912 4.373 1.405 6.899.256l.147-.069c.906-.283 1.728-.459 2.681-.505-.389-1.523-1.092-3.599-.796-5.15.277-.336.419-.164.688-.362.722-.531-1.231-2.31 4.617-3.785-.397-1.945-1.47-3.54-2.04-5.414-1.43-4.691-1.591-9.592-1.409-14.46-.638-.6-1.048-1.285-1.053-2.187-.008-1.218.737-2.287 1.029-3.438.296-1.168.247-2.48.268-3.675q-4.023.066-8.042-.143m16.405 1.78c-2.6 1.538-4.63 2.678-7.528 3.595-.285.85-.456 1.699-.514 2.595 2.648.57 5.129.954 7.764.1-.744-1.425-1.484-2.71-1.724-4.327.87.846 1.642 1.748 2.42 2.676.615.712 1.22 1.387 1.934 2.002 2.346-.015 6.37.128 8.08-1.672a2.22 2.22 0 0 0 .62-1.745c-.034-.463-.186-1.148-.565-1.458-1.098-.901-6.596 2.013-9.116.246-.762-.535-.77-1.44-1.371-2.011m-59.05 26.566q-5.495.398-10.973.988c-1.813.186-3.692.29-5.485.594l1.635 3.533c3.474-.494 6.995-.725 10.488-1.072 2.871-.286 5.793-.714 8.67-.863l18.701-1.835c-3.234-.479-6.621-.561-9.886-.791-4.327-.306-8.819-.854-13.15-.554m81.215.054c-1.15 1.605-2.9 4.901-2.565 6.93.052.314.113.54.4.711.267.159.614.257.91.351a17.7 17.7 0 0 0 3.92-1.155c1.557-.777 2.689-1.674 3.87-2.948-.862-1.272-1.769-2.393-2.24-3.878-1.43.073-2.864.02-4.295-.011m80.34.203q-7.828.826-15.68 1.393c-2.428.195-6.288.246-8.452.835-.33 1.003-.647 1.984-1.172 2.906.88 1.347 1.5 2.452 1.739 4.063l.028.224c.686.258 4.91.175 6.04.213 4.054.135 8.148.232 12.19.586.784-1.297 5.427-9.028 5.396-10.16zm-128.103 1.615-47.488 4.792c.628 1.335 1.417 2.566 2.192 3.82q4.406-.444 8.805-.944l27.937-2.847 10.066-.92c2.449-.24 4.966-.328 7.314-1.108.65-.216 1.275-.247 1.954-.285.339-.63.692-1.254.972-1.915-2.127-.097-4.246-.273-6.369-.441-1.716-.136-3.677-.45-5.383-.152m21.322.57c-1.225.486-3.253.974-4.192 1.903.1.05.035.032.202-.002l-.006.148c.063-.02.125-.044.19-.058.934-.195 3.472-.189 4.64-.274 3.537-.257 7.066-.623 10.604-.857 1.51-.09 3.404.016 4.86-.354l-.049-.116.17.05c-2.668-.218-5.36-.187-8.035-.256-2.788-.071-5.597-.234-8.384-.184m72.767.808-25.294 1.785c-4.094.29-8.642.362-12.653.942-.875.89-1.645 1.387-2.775 1.904l3.393-.109c7.68-.08 15.716.6 23.414.997 3.522.182 7.042.409 10.57.313.846-.917 1.555-1.97 2.323-2.954.788-1.008 1.648-1.962 2.456-2.954-.472.022-.966.016-1.434.076m1.999 1.541c-1.596 1.542-2.879 3.205-4.07 5.074 2.036.911 3.532 1.156 5.755.917 1.406-.26 2.888-.49 4.207-1.057-.15-1.461-.342-2.935-.43-4.4-1.827.016-3.707.063-5.462-.534m-52.897.211c-8.783.59-17.608.922-26.401 1.411.083.713.116 2.54.629 3.007l.34-.004q12.905-1.24 25.857-1.822c.07-.815.303-1.693.215-2.496-.284-.173-.322-.12-.64-.096m-39.942 2.508q-12.706 1.062-25.39 2.362l-13.712 1.363c-2.875.29-5.777.511-8.636.927 1.026.281 2.005.421 3.062.518 3.136.158 6.215.101 9.351.05 2.295-.038 4.593-.023 6.887-.125 5.422-.24 10.849-.746 16.256-1.206 4.509-.385 9.049-.644 13.548-1.085.454-.959.963-1.919 1.354-2.904-.897.026-1.83.004-2.72.1m51.302 1.118q-13.563.646-27.088 1.853l-6.452.52c-1.126.089-2.34.081-3.439.333-.13.467-.14.938-.578 1.213-.556.349-1.534.473-2.179.629l16.103-.225c6.788-.051 13.628-.023 20.408-.366 4.353-.099 37.984-.965 39.355-1.811-.314-.248-.85-.267-1.244-.304-3.318-.31-6.718-.32-10.052-.538-6.488-.424-12.978-.972-19.473-1.271-1.78-.082-3.58-.07-5.36-.033m-49.869 3.504c-1.774.139-14.36.93-14.743 1.133l.259.05q7.028.02 14.057-.037.312-.533.652-1.048l-.098-.115zm99.249.236-.198.023c-2.418.297-4.818 1.234-7.26 1.254-1.539.012-2.654-1.042-4.094-1.092-1.912-.067-3.956.194-5.873.309q-6.138.348-12.27.815c-1.87.14-5.729.204-7.267.647 1.609.331 3.64.032 5.284.002l10.944-.143c8.147-.197 16.295-.05 24.442-.2 4.673-.086 9.664-.062 14.257-.971-3.521-.524-7.714-.435-11.33-.558-2.044-.069-4.666-.403-6.635-.086m-96.52.629-.24.149c.732.355 2.153.191 2.962.185l.138-.078c-.82-.392-1.975-.352-2.86-.257m-1.165 5.84c-.618.306-1.155.62-1.374 1.316a1.63 1.63 0 0 0 .153 1.354c.314.528.855.839 1.445.965.287.061.566.092.86.072.61-.29 1.071-.546 1.305-1.215q.03-.084.052-.172t.033-.177.014-.179-.004-.18-.023-.178-.042-.175-.06-.17-.077-.162c-.258-.48-.759-.903-1.294-1.032a3.5 3.5 0 0 0-.988-.066m64.74.25c-.641.267-1.207.558-1.476 1.242-.158.4-.137.826.05 1.214.246.516.762.908 1.302 1.075.486.15 1.022.074 1.52.031.618-.234 1.211-.505 1.475-1.158a1.44 1.44 0 0 0-.024-1.156c-.24-.534-.745-.968-1.29-1.166-.491-.178-1.045-.113-1.556-.082m-51.463.249c.257.462.68 1.07.766 1.59.24 1.449.288 14.563-.002 15.516-.149.489-.611 1.044-.896 1.474 1.848.048 3.717.079 5.564.003-.354-.477-.73-.947-1.029-1.462-.047-2.092-.316-6.45-.023-8.334.068-.437.22-1.008.56-1.319.256-.231.487-.328.833-.306.474.03.934.236 1.214.622.508.699.35 2.209.342 3.056-.013 1.862-.34 5.942.248 7.546.65.567 3.185.229 4.082.207-.235-.406-.519-.846-.64-1.302-.803-3.038 1.289-11.254-2.47-12.338-.988-.285-2.405-.195-3.294.325-.347.203-.636.459-.92.739.005-1.051.343-4.954-.218-5.614-.402-.474-1.259-.5-1.83-.493-.761.01-1.526.055-2.287.09m-27.85.127c.266.697.921 1.222 1.043 1.937l.038.212c.37 2.191.097 6.655.086 9.074-.007 1.575.143 3.307-.016 4.86-.034.33-.115.662-.314.932-.297.403-.699.714-.843 1.21l.107.183c1.19.222 2.588.082 3.803.08l7.065-.009.186-2.878c.02-.486.11-1.347-.298-1.706-.043-.037-.1-.055-.15-.083-.611.179-.91.833-1.204 1.369-.39.708-.596 1.433-1.451 1.691-.658.2-2.326.338-2.934-.005-.165-.092-.151-.246-.175-.417-.253-1.801-.057-3.926-.062-5.761-.008-2.739-.272-6.604.102-9.227.387-.31.856-.602 1.053-1.073l-.077-.208c-1.545-.496-4.27-.2-5.959-.181m22.766 1.432c-1.027 1.815-1.893 3.153-3.956 3.884.019.424-.029.865.255 1.208.37.227.69.272 1.117.332.202.47.1 1.231.102 1.747.006 2.268-.671 8.614 1.827 9.586.967.376 2.078.323 3.101.316l.528-.05c.358-.442.341-1.003.407-1.558-.652-.096-1.455-.129-1.883-.706-.67-.904-.341-7.84-.333-9.367a48 48 0 0 1 2.628-.073l.051-1.886-2.676-.012c.006-.905.303-2.606-.276-3.325-.32-.114-.558-.104-.892-.096m48.135 3.085-.168.028c-.363.064-.772.117-1.097.304-.294.17-1.167 1.06-1.451.858-.261-.185-.314-.499-.521-.708-.406-.409-2.748-.119-3.398-.08.28.507.612 1.042.73 1.614.333 1.612.28 9.7-.167 11.159a5.5 5.5 0 0 1-.328.791c1.653.004 3.323.054 4.972-.072-.256-.429-.575-.897-.714-1.379-.526-1.83-.206-6.797-.19-8.93.168-.44.248-.575.678-.768.375-.17.836-.347 1.25-.218.381.117.612.47.743.824.674 1.82-.43 9.8.857 10.388.978.446 3.15.157 4.25.123-1.62-1.655-1.325-3.324-1.302-5.466.022-2.115.531-5.91-1.046-7.571-.7-.739-1.65-.918-2.63-.923-.158 0-.31.012-.468.026m-13.394.131c-1.352.211-2.676.513-3.836 1.276l.453 1.973c.892-.49 2.598-1.383 3.629-1.034.425.144.704.415.895.815.197.413.133 1.241.146 1.697-2.25.832-4.178 1.62-5.26 3.967-.462 1.003-.639 2.052-.224 3.102.252.638.6 1.11 1.107 1.565.816.427 2.004.978 2.933.71.62-.178 1.056-.815 1.667-.915.17.206.31.412.45.64 1.126.29 2.752.046 3.933.023-.423-.518-.849-1.028-1.221-1.584-.005-2.346.3-7.392-.127-9.472-.145-.707-.443-1.393-.959-1.91-.743-.743-1.71-.917-2.725-.903a13 13 0 0 0-.86.05m30.128-.01a13.5 13.5 0 0 0-3.305 1.05l.4 2.164c.97-.551 2.407-1.361 3.56-1.095.421.097.748.382.95.757.235.44.178 1.246.175 1.739-2.285.939-4.6 2.006-5.583 4.47-.394.988-.437 2.004.03 2.972.295.61.685 1.052 1.215 1.463.932.393 2.309.774 3.283.366.559-.234 1.036-.601 1.643-.705.178.17.314.345.457.544 1.08.257 2.353.125 3.46.104-.295-.462-.655-.959-.798-1.492-.886-3.29 1.473-11.356-3.05-12.299-.784-.163-1.647-.124-2.437-.038m-9.72.283-.495.076c-.022.248-.047.127.073.341a5 5 0 0 1 .635 1.903c.215 1.545.222 8.59-.14 9.943-.118.435-.41.876-.636 1.265q1.909.05 3.818.022c.349-.035.906-.013 1.168-.23l-.089-.152c-.224-.394-.424-.77-.508-1.222-.424-2.274.382-10.258-.378-11.674-.083-.156-.299-.225-.447-.265-.903-.245-2.077-.068-3.002-.007m-65.523.072.05.116c.15.343.316.652.505.974.2.34.35.61.406 1.002.227 1.574.202 9.198-.182 10.599q-.115.403-.258.798c1.504-.005 3.013.012 4.517-.023l.305-.112c-.087-.23-.14-.304-.276-.495-1.238-1.74-.299-10.066-.739-12.853-1.434-.033-2.897-.123-4.328-.006m28.055.04c.236.511.668.858.98 1.319.014 2.885-.643 9.589 1.445 11.582.645.616 1.483.847 2.361.792 1.186-.073 1.972-.489 2.732-1.384l.083-.098.096.08c-.019.421-.084.575.155.933.967.507 2.472.21 3.545.215-1.155-2.382-.611-7.107-.621-9.81.016-.901.26-2.687-.373-3.37-.614-.662-3.029-.309-3.887-.3.228.497.509 1.034.61 1.574.434 2.326.1 6.405.16 8.959-.579.493-.978.908-1.788.866-.376-.162-.576-.37-.727-.746-.82-2.036.486-9.546-.816-10.577-1.185-.273-2.736-.13-3.955-.035"/><path d="m131.918 48.404-.088-.132c.211-.581 1.469-1.015 2.018-1.273l.111.072.025.231c-.555.685-1.225.921-2.066 1.102M76.844 65.698l-.062-.072zm10.938 5.177.058-.073zm42.168.628c-.2.138-.402.288-.63.377-.272.107-.248.122-.53-.004-.069-.405.125-.732.282-1.094.444-.017 1.244-.11 1.599.166-.152.324-.416.387-.722.555m.589 2.959c-.265.041-.514.072-.78.007-.401-.098-1.06-.536-1.245-.914-.132-.27-.181-.521-.082-.81.094-.272.083-.293.352-.418.594.308.692 1.105 1.262 1.42.282.156.459.155.766.073.317-.085.634-.319.772-.617.188-.404.15-1.226-.052-1.614-.031-.06-.069-.118-.101-.178q-.042-.082-.082-.165l-.058-.11.209-.392c.468.055.885.076 1.299.315l.054.21c-.182.254-.548.624-.653.903-.068.18-.094.349-.013.524.243.526.932.764 1.428.995-.221.386-.898.44-1.141.787-.193.276-.037.453-.354.709-.203-.339-.301-.628-.398-1.012l-.033-.138-.157-.073zm3.104-1.053c.313-.787.45-1.111.222-1.964l-.046-.168c.205-.323.67-.395 1.03-.52.382-.044.668-.098 1.004.11-.086.169-.17.28-.3.42-.309.331-.652.649-.806 1.087-.1.283-.12.636.06.894.18.256.374.352.678.369.425.024 1.061-.273 1.343-.585.233-.258.347-.505.326-.858-.03-.499-.334-.717-.693-1.004-.179-.142-.097-.04-.199-.308.236-.151.33-.157.606-.163.258-.006.491.073.663.275.34.401.347.98.348 1.475.01.873.09 1.84-.043 2.705-.04.265-.076.447-.308.598l-.212-.114c-.231-.481-.158-1.204-.172-1.737-.669.117-1.614.598-2.24.539-.334-.031-.507-.201-.713-.437q-.272-.31-.548-.614m-42.452-.343c-.222-.088-.12-.018-.288-.231l.241-.12.298-.14zm-16.773 8.111c-.914.128-2.077.145-2.892-.342a1.82 1.82 0 0 1-.856-1.139c-.166-.688.06-1.403.422-1.99.704-1.144 1.806-1.854 3.088-2.174.723-.014 1.387.06 2.066.325.626.245 1.178.686 1.425 1.326.228.588.15 1.22-.133 1.773-.625 1.225-1.872 1.828-3.12 2.221m.002-4.655c-.255.086-.711.153-.84.384l.184.048c.512.137.966.202 1.248.701.116.204.083.293.078.515-.138.228-.204.334-.45.442-.363-.325-.478-.738-.934-.919-.295.163-.366.278-.51.58l.117.16c.169-.015.335-.025.5-.06.276.483.48.985 1.077 1.117.382.084.736-.008 1.043-.24.365-.276.607-.745.634-1.202.02-.35-.082-.7-.318-.964-.428-.48-1.112-.577-1.722-.568q-.053.001-.107.006m56.513-.157 1.347-.565c.481.242.969.424 1.477.603.28-.193.509-.348.844-.437 1.199.483 1.566-.145 2.588-.01.199.027.308.09.437.24.685.796.213 1.959.226 2.883.013.862.294 1.653.206 2.542-.037.365-.105.744-.39.982-1.042-.198-1.294.282-2.195.452-.562.107-1.313-.805-1.683-1.176.238-.251.435-.525.788-.6.271.126.381.246.55.482.17.235.326.425.534.627.25.015.322.032.531-.133.459-.364 1.285-1.503 1.263-2.085a.66.66 0 0 0-.216-.478c-.506-.51-1.144-.393-1.803-.379-.179.344-.327.72-.633.97-.104-.282-.254-.751-.532-.9-.364-.195-.771-.102-1.145.026-.444.151-.564.535-.74.93-.093.212-.016.115-.23.263-.292-.28-.253-.803-.363-1.2-.68-.133-1.71.309-2.371.52a4 4 0 0 0-1.01-1.2l-.131-.103c.252-.301.59-.759.967-.858.133.197.112.123.159.316.083.34.134.629.41.876a.93.93 0 0 0 .815.212c.404-.082.754-.355.99-.684.323-.453.366-.91.275-1.444-1.106-.838-1.702.085-2.788.23-.088-.08-.214-.187-.281-.283-.198-.277-.21-.375-.14-.681.178-.123.318-.21.53-.265.728-.192 1.076-.02 1.714.327m1.95.362c-.346.399-.525.66-.477 1.214.03.35.122.642.418.861.258.192.468.212.768.123q.09-.028.174-.061c.323-.263.662-.5.737-.937.054-.318.013-.59-.205-.84-.358-.412-.921-.38-1.416-.36m2.392.04c-.37.4-.549.711-.512 1.272.022.344.123.592.408.801a.83.83 0 0 0 .574.144c.218-.023.466-.171.649-.29.398-.303.837-.579.9-1.118a.58.58 0 0 0-.154-.448c-.47-.528-1.24-.398-1.865-.362m-3.236 2.099c.05.017.102.06.151.043zm-27.263-2.341-.148-.124z"/><path d="M129.778 82.913c-.471-.38-1.252-.849-1.344-1.484l.305-.402c.62.08 1.568.817 2.172 1.103.501-.298.904-.666 1.334-1.054.253.19.544.385.765.61.263.267.191.507.151.846-.137.088-.287.162-.43.24-1.049-.25-1.93-.129-2.953.14M67.84 97.25c-.772-.182-1.966-.702-2.365-1.438-.136-.251-.177-.513-.055-.78.164-.36.625-.503.963-.644.354-.022.777-.07 1.113.061.476.184.89.751 1.052 1.222.122.351.168.792-.037 1.122-.17.273-.37.383-.67.456m132.635 28.811-.071-.06zm-1.762.146-.063-.08zm1.762-.146c.928 1.019 1.676 2.292 2.464 3.427 2.31 3.325 6.399 8.931 6.933 12.975-.94-1.192-2.261-4.193-3.132-5.7-1.782-3.08-5.036-7.539-6.265-10.702m-1.762.146c2.295 3.562 9.407 15.358 9.538 19.41-.547-.618-9.331-18.532-9.538-19.41m4.574 22.562-.048-.05c-1.046-1.07-1.793-2.715-2.436-4.052-1.779-3.695-4.82-12.427-3.502-16.205.166 1.146.156 2.3.362 3.45.63 3.532 2.034 7.207 3.29 10.554.381 1.016 2.568 5.58 2.333 6.303m-4.3-18.452-.08-.065zm0 0c1.303 3.117 6.614 15.006 6.798 17.672-1.642-2.097-6.807-15.007-6.798-17.672m-65.383 3.703c-.306-.029-.474.02-.7-.206l.027-.454c.259.053.404.105.617.261zm-1.265-.038c-.323.006-.47.052-.761-.112l-.068-.365c.343-.01.542-.08.834.12zm2.792-.15c-.155.064-.339.134-.508.133-.33-.002-.525-.194-.735-.416.538.026.824-.084 1.243.283m56.334 23.7c-.534-.702-.947-3.336-1.307-4.35-1.016-2.86-2.624-4.85-4.585-7.11 1.44.375 2.932 1.216 3.93 2.327 2.155 2.396 2.091 6.125 1.962 9.133m-23.367 45.928a4 4 0 0 1-.263-.365c-.358-.577-.38-1.478-.223-2.123.324-1.32 1.132-2.082 2.251-2.737l.117.124c.087 1.328.299 3.192-.024 4.477-.077.306-.224.664-.526.806-.465.22-.895-.005-1.332-.183m-30.684.253a2.5 2.5 0 0 1-.273-.43q-.079-.16-.14-.328t-.106-.342-.07-.35-.032-.356.005-.358.043-.355q.03-.176.079-.348t.115-.338c.427-1.086 1.146-1.684 2.177-2.16.04.123.071.26.09.388.118.821.205 4.57-.186 5.083-.616.239-1.105.143-1.702-.106"/></svg>