<svg xmlns="http://www.w3.org/2000/svg" viewBox="0 0 256 256"><path d="M105.19 0h4.243c2.842.546 5.76.869 8.628 1.27 3.238.453 6.597 1.043 9.866 1.086 2.835.037 5.821-.505 8.636-.85 3.326-.405 7.153-.718 10.376-1.506h3.507c3.533.827 6.301 2.52 9.432 4.281q2.968 1.661 5.99 3.221c1.106.568 2.153 1.335 3.338 1.72 1.627.531 3.454.714 5.143.97l9.77 1.5c1.773.29 3.66.504 5.375 1.039 2.478 2.75 5.082 5.37 7.601 8.078 1.792 1.926 4.548 5.209 6.526 6.704 1.419 1.072 3.737 1.843 5.375 2.632 3.777 1.817 7.51 3.885 11.389 5.463l5.798 11.892c.904 1.835 1.753 4.03 2.957 5.677 1.175 1.61 4.56 4.389 6.144 5.861 2.698 2.508 5.29 5.197 8.128 7.544 1.272 6.319 1.495 12.916 3.072 19.169.547 2.166 1.935 4.35 2.948 6.332l4.418 8.624c.718 1.371 1.345 2.877 2.15 4.19v6.92c-.59 2.616-.93 5.327-1.335 7.977-.433 2.839-1.037 5.852-1.028 8.723.008 2.624.675 5.437 1.065 8.047.408 2.705.658 5.548 1.298 8.204v5.7c-.882 4.316-4.835 10.548-7.061 14.654-.883 1.627-1.862 3.344-2.411 5.116-.518 1.673-.67 3.542-.922 5.279l-1.3 9.285c-.19 1.37-.223 3.393-.884 4.579-.696 1.247-2.196 2.362-3.248 3.324q-4.13 3.697-8.19 7.473c-1.139 1.051-2.544 2.087-3.492 3.31-1.538 1.983-2.452 4.848-3.428 7.16-1.385 3.284-2.718 6.606-4.291 9.805q-5.625 2.687-11.288 5.294c-1.861.87-4.233 1.691-5.857 2.949-1.821 1.411-3.456 3.341-5.049 5.007l-5.849 6.03c-.962 1.009-2.137 2.653-3.25 3.365-1.526.978-13.193 2.455-15.698 2.812-1.537.22-3.197.32-4.681.789-1.402.442-2.69 1.494-3.96 2.227-1.563.902-3.173 1.729-4.744 2.622-3.177 1.807-6.075 3.667-9.692 4.452h-4.408c-2.175-.607-4.716-.768-6.963-1.062-3.311-.435-7.492-1.158-10.786-1.225-3.168-.068-6.516.61-9.664 1.022-2.952.387-6.004.645-8.911 1.265h-5.037c-.716-.145-1.45-.278-2.135-.54-1.677-.645-3.227-1.648-4.788-2.53l-7.354-4.137c-1.354-.757-2.736-1.594-4.21-2.096-1.443-.491-3.073-.66-4.578-.892q-4.99-.73-9.99-1.394c-1.617-.23-3.358-.37-4.934-.786l-.128-.035q-4.695-5.138-9.471-10.201c-1.41-1.479-2.85-3.257-4.48-4.47-1.892-1.408-4.36-2.404-6.492-3.418q-5.59-2.676-11.266-5.165c-1.676-3.76-3.223-7.579-4.84-11.365-.713-1.667-1.356-3.565-2.309-5.11-.966-1.566-13.4-13.469-15.145-14.812q-1.201-5.526-2.032-11.12c-.366-2.516-.356-5.665-1.177-8.031-1.218-3.512-4.59-8.873-6.525-12.275-.945-1.661-1.966-3.36-2.562-5.184-.338-1.037-.356-2.25-.52-3.333v-4.828c.593-2.121.688-4.508.987-6.69.366-2.669 1.139-6.038 1.261-8.617.127-2.665-.542-5.598-.934-8.24-.42-2.83-.761-5.706-1.314-8.512v-6.027c.468-1.553.587-3.124 1.273-4.623 1.574-3.435 3.966-6.711 5.954-9.933.847-1.374 1.859-2.798 2.344-4.35.568-1.814.672-3.893.902-5.782l1.188-10.01c.188-1.59.245-3.417.78-4.923 3.037-2.482 5.886-5.243 8.788-7.882 1.843-1.678 4.605-3.77 6.023-5.788 1.045-1.487 1.802-3.31 2.606-4.939 1.98-4.013 3.806-8.103 5.805-12.104 3.824-2.003 7.78-3.81 11.654-5.721 1.7-.84 3.581-1.605 5.135-2.687 1.86-1.295 3.529-3.47 5.091-5.13q4.712-4.96 9.327-10.013c1.68-.383 3.49-.519 5.201-.765q4.78-.687 9.548-1.448c1.678-.265 3.525-.411 5.127-.985 1.313-.47 2.559-1.195 3.791-1.843q3.031-1.586 6.027-3.237C99.4 2.452 102.009.789 105.191 0m1.469 4.772c-2.904.78-5.279 2.19-7.891 3.63l-6.566 3.616c-1.41.774-2.898 1.756-4.439 2.238-1.51.473-3.246.591-4.817.82L73.39 16.45c-1.208.185-2.624.219-3.737.738-1.17.546-2.24 1.94-3.134 2.871q-3.16 3.279-6.244 6.63c-1.501 1.627-3.038 3.664-4.85 4.95-1.383.982-3.077 1.64-4.615 2.359q-3.787 1.733-7.541 3.535c-1.068.515-2.337.97-3.271 1.7-.47.368-.83.927-1.127 1.44-.74 1.28-1.326 2.678-1.951 4.019q-1.582 3.449-3.224 6.87c-.648 1.351-1.247 2.889-2.195 4.057-1.208 1.489-2.824 2.782-4.227 4.09q-3.377 3.166-6.718 6.372c-1.043.996-2.5 2.103-3.22 3.355a2 2 0 0 0-.076.143c-.782 1.644-.924 3.71-1.112 5.498l-.803 7.682c-.19 1.697-.29 3.496-.814 5.127-2.073 6.46-8.976 12.76-9.607 19.603-.223 2.412.318 4.809.718 7.176.798 4.722 1.938 9.752 1.727 14.554-.19 4.313-1.139 8.69-1.829 12.952-.284 1.755-.653 3.535-.698 5.314a9.3 9.3 0 0 0 .329 2.777c.582 2.065 1.675 3.939 2.739 5.785 2.135 3.706 5.385 8.487 6.713 12.47.52 1.563.632 3.363.852 4.997q.572 4.525 1.225 9.04c.179 1.181.279 2.621.806 3.706.676 1.39 2.33 2.617 3.443 3.665q3.347 3.168 6.638 6.394c1.4 1.366 3.12 2.749 4.17 4.398.863 1.355 1.482 2.939 2.14 4.404l3.008 6.789c.555 1.285 1.026 2.801 1.846 3.938.367.508.93.856 1.471 1.156 1.329.736 2.757 1.336 4.129 1.992l6.856 3.341c1.438.707 3.023 1.348 4.314 2.299 1.739 1.28 3.233 3.045 4.722 4.603l6.253 6.577c.937 1.006 1.822 2.123 2.855 3.026 2.068.495 4.302.662 6.414.958 2.847.398 5.679.885 8.523 1.297 1.122.162 2.395.051 3.46.42 1.539.532 3.01 1.556 4.419 2.368 2.945 1.698 11.509 6.823 14.47 7.398 1.646.32 3.702-.213 5.365-.445l9.752-1.344c2.03-.298 4.216-.802 6.263-.801 3.457.001 19.797 3.137 21.765 2.367 4.105-1.841 8.026-3.98 11.97-6.136 1.858-1.015 4.629-2.83 6.531-3.422 1.684-.524 3.676-.608 5.428-.841 4.244-.567 8.605-1.007 12.797-1.88 3.612-3.514 7.074-7.173 10.63-10.74 1.11-1.114 2.557-2.887 3.844-3.726 1.328-.865 2.868-1.513 4.302-2.184l7.184-3.305c1.298-.596 3-1.183 4.071-2.126 1.793-1.578 5.442-12.74 7.607-15.751 1.038-1.443 2.707-2.647 3.997-3.873 2.474-2.35 4.885-4.763 7.386-7.084.854-.792 2.7-2.202 3.198-3.165.54-1.044.568-2.614.737-3.777q.55-3.716 1.05-7.439c.345-2.596.453-5.605 1.46-8.034 1.22-2.944 2.891-5.777 4.445-8.556 1.835-3.284 4.696-7.289 4.754-11.173.035-2.26-.606-4.607-.988-6.827-.567-3.28-1.088-6.605-1.453-9.913-.587-5.31.618-10.574 1.54-15.775.473-2.658.865-5.338 1.368-7.989-2.256-3.823-4.152-7.886-6.176-11.836-1.17-2.285-3.681-6.39-4.208-8.776-.917-4.145-1.27-8.54-1.815-12.756-.188-1.45-.297-2.99-.625-4.414-1.255-1.418-2.679-2.69-4.044-3.998l-6.147-5.874c-1.304-1.233-2.962-2.443-3.965-3.927-1.01-1.494-1.702-3.396-2.478-5.034q-1.787-3.726-3.616-7.432c-.522-1.08-1.083-2.755-1.966-3.57-.944-.87-2.49-1.386-3.65-1.953l-7.107-3.53c-1.482-.718-3.193-1.372-4.563-2.278-1.765-1.166-3.284-3.004-4.758-4.516-3.333-3.42-6.557-7.023-9.994-10.33q-5.615-.908-11.252-1.675c-2.214-.305-5.4-.464-7.434-1.211-1.701-.625-3.362-1.7-4.965-2.563q-4.503-2.47-9.081-4.801c-1.321-.67-2.77-1.546-4.22-1.887-1.544-.363-3.672.17-5.237.372-3.166.41-6.344.78-9.504 1.233-2.186.314-4.513.845-6.72.832-2.31-.013-4.729-.53-7.02-.86q-4.95-.702-9.91-1.324c-1.346-.174-3.198-.658-4.526-.464"/><path d="M70.597 18.914c1.724-.376 3.57-.476 5.32-.724 2.561-.363 5.106-.83 7.666-1.194 1.682-.24 3.594-.318 5.192-.89 1.22-.438 2.388-1.202 3.527-1.827l5.89-3.204c2.69-1.486 5.996-3.82 9.016-4.281 1.936.15 3.87.526 5.794.795l9.201 1.229c1.958.267 3.991.657 5.969.673 2.089.016 4.26-.479 6.331-.769 4.767-.667 9.584-1.457 14.373-1.914 4.422 1.91 8.762 4.319 13.001 6.609 1.633.882 3.33 2.166 5.067 2.786 2.104.752 5.018.867 7.273 1.164q5.667.732 11.317 1.583l9.189 9.519c1.457 1.513 2.962 3.378 4.64 4.641 1.736 1.307 4.103 2.179 6.063 3.133 3.277 1.597 6.535 3.26 9.85 4.777l4.705 9.701c1.025 2.147 1.974 4.693 3.376 6.608 1.266 1.731 3.198 3.242 4.771 4.715l8.853 8.264c.681 3.852 1.035 7.817 1.548 11.7.246 1.861.447 3.744.903 5.568.596 2.377 3.895 8.062 5.212 10.606 1.601 3.095 3.067 6.36 4.884 9.328-.412 4.153-1.383 8.287-2.1 12.398-1.398 8.025-.696 12.713.679 20.67.392 2.272 1.375 5.96.996 8.17-.47 2.74-2.263 5.468-3.624 7.861-1.886 3.317-4.08 6.742-5.437 10.315-.976 2.567-1.14 5.46-1.51 8.166l-1.457 10.735c-1.114 1.23-2.467 2.335-3.683 3.473l-7.602 7.14c-1.155 1.09-2.708 2.244-3.553 3.58-1.327 2.096-2.494 5.484-3.532 7.852-1.064 2.426-2.416 4.822-3.177 7.359l-10.508 4.84c-1.788.828-3.899 1.572-5.502 2.714-1.464 1.044-2.714 2.696-3.976 3.985-3.343 3.414-6.636 6.939-10.09 10.238-4.196.773-8.523 1.213-12.756 1.773-1.65.218-3.644.267-5.219.778-1.537.499-3.032 1.622-4.455 2.399-4.254 2.323-9.633 5.557-14.03 7.23l-.144.054c-4.85-.48-9.707-1.275-14.543-1.898-2.15-.277-4.445-.739-6.612-.69-1.926.044-3.907.433-5.817.7l-10.077 1.407c-1.325.185-3.26.697-4.566.503-2.615-.389-11.532-5.749-14.328-7.36-1.311-.756-2.689-1.716-4.106-2.245-1.585-.593-3.814-.518-5.523-.754q-6.567-.876-13.093-2.022c-2.986-2.959-5.777-6.167-8.666-9.225-1.498-1.586-3.005-3.352-4.783-4.63-1.431-1.027-3.12-1.705-4.693-2.482q-3.204-1.605-6.427-3.173c-1.695-.809-3.427-1.555-5.079-2.45q-2.21-4.675-4.277-9.415c-.908-2.058-1.77-4.282-2.971-6.185-1.038-1.646-4.336-4.439-5.87-5.943-2.475-2.427-5.429-5.68-8.092-7.794-.803-3.637-1.192-7.399-1.686-11.09-.333-2.487-.541-5.087-1.45-7.445-1.529-3.974-4.055-7.715-6.205-11.389-.934-1.597-1.917-3.196-2.587-4.928q-.158-.41-.293-.828c-.24-.749-.416-1.452-.397-2.249.045-1.855.571-3.81.904-5.64.765-4.2 1.69-8.758 1.774-13.027.083-4.17-.759-8.406-1.475-12.497-.54-3.081-1.557-6.6-1.024-9.713.407-2.377 1.928-4.616 3.152-6.647 2.188-3.63 4.973-7.482 6.304-11.519.923-2.799 1.309-8.591 1.62-11.76.183-1.88.156-4.52 1.067-6.2.825-1.523 2.694-2.965 3.957-4.14l6.213-5.84c1.346-1.26 2.845-2.5 4.012-3.925 1.315-1.605 2.387-4.532 3.294-6.442 1.49-3.139 3.049-6.248 4.443-9.432 3.169-1.412 6.254-2.965 9.374-4.478 2.287-1.11 5.04-2.064 6.995-3.703 1.231-1.031 2.323-2.326 3.421-3.494l5.767-6.091c1.286-1.365 2.546-2.844 3.959-4.077zm54.427-5.608q-1.406.044-2.81.122-1.405.079-2.807.192-1.402.112-2.801.26-1.399.147-2.794.328t-2.785.398-2.774.466q-1.385.25-2.762.533t-2.748.602-2.733.669-2.715.736-2.696.802q-1.344.418-2.676.868-1.332.451-2.654.934-1.32.484-2.63 1-1.308.515-2.604 1.062-1.295.548-2.578 1.127-1.281.58-2.548 1.19-1.268.611-2.52 1.253-1.251.641-2.487 1.313t-2.455 1.375-2.42 1.434-2.384 1.494q-1.183.761-2.346 1.551t-2.308 1.609q-1.144.819-2.267 1.665-1.124.846-2.226 1.72t-2.183 1.775-2.139 1.828q-1.058.926-2.093 1.879t-2.046 1.93q-1.011.979-1.998 1.98-.987 1.003-1.949 2.03-.768.81-1.52 1.636-.753.826-1.49 1.666-.736.84-1.455 1.695-.72.854-1.423 1.722-.703.869-1.389 1.75-.686.882-1.355 1.777t-1.32 1.802-1.284 1.828-1.249 1.852-1.213 1.877-1.175 1.9q-.58.955-1.14 1.922-.56.966-1.1 1.944-.542.977-1.064 1.964-.522.988-1.024 1.985-.503.998-.987 2.005-.483 1.007-.947 2.024-.463 1.016-.907 2.041-.444 1.026-.867 2.059-.424 1.034-.828 2.075t-.787 2.091-.746 2.106-.705 2.12-.664 2.133-.622 2.146-.58 2.157q-.28 1.082-.539 2.169-.258 1.087-.496 2.178-.237 1.092-.453 2.188t-.411 2.196-.369 2.203-.325 2.21c-.85 6.094-1.317 12.078-1.1 18.234q.037 1.142.097 2.284t.141 2.282.186 2.279.231 2.274.276 2.27q.149 1.133.32 2.263t.365 2.257.409 2.25.453 2.24q.238 1.119.497 2.232.26 1.113.541 2.222t.584 2.21.628 2.198.671 2.186.714 2.172.756 2.157.8 2.143.84 2.126q.43 1.059.882 2.109t.924 2.091.964 2.073 1.005 2.054q.513 1.021 1.046 2.033.532 1.011 1.085 2.012t1.124 1.99 1.163 1.969 1.203 1.945 1.24 1.92 1.277 1.897 1.314 1.87q.667.93 1.351 1.845.685.915 1.387 1.817c3.989 5.069 8.443 9.686 13.16 14.072q1.008.925 2.038 1.826t2.082 1.777 2.124 1.725 2.166 1.674 2.205 1.621 2.244 1.568 2.281 1.513 2.317 1.457 2.351 1.4q1.185.687 2.385 1.344 1.2.658 2.416 1.286t2.447 1.227 2.475 1.167q1.245.569 2.504 1.107 1.258.54 2.528 1.047 1.271.508 2.554.985t2.577.923 2.598.861q1.304.414 2.618.797t2.637.734q1.323.352 2.654.67 1.33.32 2.669.607 1.338.286 2.683.541 1.345.254 2.695.476t2.706.411q1.356.19 2.716.346 1.359.156 2.722.28 1.363.123 2.729.214 1.365.09 2.733.148 1.367.057 2.736.082 1.368.024 2.737.016t2.736-.05c3.801-.193 7.608-.388 11.381-.906 26.132-3.589 51.215-15.99 68.983-35.664 2.03-2.248 4.087-4.556 5.946-6.948q2.962-3.86 5.606-7.945 2.644-4.084 4.953-8.367c10.061-18.465 15.423-39.012 14.333-60.101q-.078-1.402-.19-2.802-.111-1.4-.257-2.796-.145-1.396-.325-2.789t-.392-2.78-.46-2.77-.525-2.759-.593-2.744q-.312-1.37-.658-2.73-.346-1.361-.725-2.713-.378-1.352-.789-2.695t-.854-2.675-.92-2.653q-.474-1.321-.982-2.63-.507-1.31-1.045-2.607-.539-1.296-1.109-2.58-.57-1.283-1.17-2.552t-1.232-2.523q-.63-1.255-1.292-2.494-.661-1.238-1.352-2.46-.69-1.223-1.41-2.428-.721-1.206-1.47-2.393-.749-1.188-1.526-2.357-.778-1.169-1.584-2.32-.805-1.15-1.638-2.28t-1.693-2.24-1.747-2.198-1.8-2.156-1.85-2.111q-.938-1.045-1.901-2.067t-1.951-2.02-1.999-1.972-2.046-1.923c-3.148-2.839-6.361-5.593-9.784-8.097q-.945-.692-1.902-1.364-.958-.672-1.93-1.324-.97-.652-1.955-1.284t-1.982-1.244-2.007-1.203-2.031-1.162q-1.022-.57-2.055-1.12-1.032-.55-2.076-1.078t-2.099-1.034-2.12-.992q-1.064-.485-2.138-.948-1.075-.463-2.159-.904t-2.175-.86-2.194-.815-2.21-.77-2.224-.725q-1.117-.35-2.24-.679-1.123-.327-2.252-.632-1.13-.305-2.265-.587t-2.277-.54-2.287-.493q-1.147-.235-2.297-.447-1.15-.211-2.306-.4-1.154-.187-2.313-.351-1.158-.164-2.32-.305t-2.326-.257-2.33-.21-2.334-.16q-1.168-.07-2.337-.115t-2.34-.066q-1.169-.02-2.339-.018t-2.34.03"/><path d="M132.404 240.604c-3.642.09-7.273.136-10.912-.085q-1.16-.067-2.317-.157-1.158-.091-2.313-.207-1.156-.114-2.308-.254-1.154-.139-2.303-.302t-2.296-.35q-1.146-.186-2.288-.397-1.142-.21-2.28-.445-1.136-.234-2.269-.493-1.132-.257-2.258-.539-1.127-.281-2.248-.586-1.12-.305-2.234-.633t-2.22-.68q-1.107-.35-2.207-.725-1.099-.374-2.19-.771t-2.174-.816-2.157-.862-2.138-.906-2.118-.951q-1.055-.486-2.1-.994-1.043-.508-2.076-1.038t-2.056-1.081-2.032-1.124q-1.011-.571-2.01-1.165-.998-.593-1.983-1.207t-1.959-1.248-1.932-1.288q-.959-.655-1.904-1.329-.946-.673-1.877-1.367t-1.848-1.407-1.819-1.444q-.901-.732-1.788-1.482-.886-.75-1.756-1.52-1.041-.912-2.06-1.85-1.018-.938-2.013-1.9-.995-.963-1.967-1.95-.971-.986-1.919-1.996-.947-1.01-1.869-2.043t-1.818-2.088-1.767-2.132-1.715-2.174-1.66-2.216-1.607-2.255-1.55-2.294-1.495-2.332-1.437-2.367-1.378-2.401q-.674-1.21-1.32-2.435-.644-1.225-1.259-2.466-.614-1.24-1.199-2.495-.584-1.256-1.137-2.525-.554-1.27-1.076-2.552t-1.013-2.577q-.49-1.294-.95-2.6-.458-1.307-.885-2.624t-.821-2.645q-.395-1.327-.757-2.663-.362-1.337-.691-2.681-.33-1.346-.625-2.698-.297-1.352-.56-2.712t-.493-2.725-.426-2.736q-.197-1.37-.36-2.745t-.291-2.754-.225-2.76q-.063-.996-.108-1.992-.045-.997-.073-1.994-.027-.998-.037-1.996t-.001-1.995.034-1.996.07-1.994q.043-.997.105-1.993.061-.996.14-1.99.08-.995.177-1.989.097-.993.211-1.984.115-.991.247-1.98.132-.99.282-1.976t.318-1.97.352-1.965.387-1.957.423-1.95.456-1.943q.238-.97.492-1.934.254-.965.526-1.925.271-.96.56-1.916.288-.955.594-1.905.305-.95.628-1.894.322-.945.661-1.883.34-.939.696-1.87.355-.933.728-1.859.372-.925.761-1.845.39-.919.794-1.83.406-.912.827-1.817t.859-1.801q.437-.897.89-1.786.454-.889.923-1.77.469-.88.954-1.752c3.779-6.9 8.292-13.568 13.519-19.458 3.92-4.419 8.206-8.823 12.713-12.654q.72-.601 1.448-1.19.73-.589 1.468-1.166t1.486-1.142 1.504-1.118 1.523-1.093 1.54-1.069q.774-.527 1.557-1.042.783-.516 1.574-1.018t1.59-.992 1.607-.965q.807-.477 1.622-.94t1.637-.913 1.652-.886 1.665-.859q.837-.422 1.68-.831.843-.41 1.693-.805t1.706-.776 1.718-.75 1.73-.72q.868-.353 1.742-.692.874-.34 1.753-.664.88-.325 1.763-.635.885-.31 1.774-.607.89-.296 1.783-.577.894-.282 1.793-.549t1.8-.519 1.81-.49q.906-.237 1.817-.46.91-.222 1.824-.43.913-.208 1.83-.401.918-.193 1.838-.37.92-.179 1.843-.342c4.688-.809 9.448-1.205 14.192-1.483l.137-.01c4.596-.267 9.31.052 13.887.483q1.088.098 2.173.217 1.086.12 2.17.26t2.163.302 2.157.343 2.15.386 2.143.428 2.133.469 2.124.51q1.06.266 2.114.552t2.102.593 2.091.633 2.078.674 2.064.715 2.05.754 2.035.795 2.02.833 2.002.873 1.986.912q.988.465 1.966.95.98.484 1.949.987.969.504 1.928 1.026.96.523 1.909 1.064.949.54 1.887 1.1.939.559 1.866 1.136.927.578 1.843 1.173t1.82 1.208 1.796 1.244 1.771 1.278q.88.647 1.746 1.312.867.665 1.721 1.346.854.682 1.694 1.38t1.667 1.412q1.062.92 2.102 1.867 1.04.946 2.056 1.918t2.008 1.968 1.96 2.017 1.909 2.063q.942 1.044 1.858 2.11.916 1.067 1.806 2.155.89 1.089 1.754 2.199.862 1.11 1.698 2.24t1.643 2.282q.808 1.15 1.587 2.321.78 1.17 1.53 2.36.75 1.188 1.471 2.395t1.412 2.432q.692 1.224 1.353 2.465t1.292 2.497q.63 1.257 1.23 2.528t1.168 2.558 1.105 2.586 1.041 2.611.977 2.637.912 2.66.847 2.68q.407 1.347.781 2.702t.715 2.72q.34 1.363.648 2.735.307 1.372.58 2.751.274 1.38.514 2.765t.445 2.776.377 2.787q.172 1.395.31 2.794.137 1.4.24 2.802c1.523 23.583-4.92 46.522-17.3 66.527-3.413 5.515-7.054 10.664-11.345 15.54q-.82.917-1.659 1.816-.84.9-1.698 1.78-.86.881-1.737 1.743t-1.775 1.705q-.897.842-1.811 1.665-.915.822-1.848 1.625-.932.803-1.882 1.584-.95.782-1.917 1.543-.966.761-1.95 1.501-.983.74-1.982 1.458t-2.013 1.414-2.044 1.37-2.073 1.325q-1.044.65-2.102 1.279t-2.13 1.233q-1.071.605-2.155 1.186t-2.181 1.139-2.206 1.09q-1.108.534-2.228 1.043t-2.251.994q-1.132.484-2.273.944t-2.292.894-2.311.844-2.33.793q-1.168.384-2.345.742t-2.362.69-2.376.64q-1.191.306-2.39.587-1.197.28-2.401.534-1.204.255-2.413.482-1.209.228-2.422.43t-2.432.376c-3.777.567-7.585.821-11.394 1.066m-3.332-222.54-.243.039c.088.333.319.43.44.705.192.436-.445 1.676-.628 2.126.588.124 1.201.221 1.77.413-.076.58-.244 1.248-.075 1.817.46.467.988.44 1.618.496-.163.74-.35 1.48-.407 2.238.586.103 1.173.218 1.763.3a27 27 0 0 1-.46 1.948c.623.17 1.23.337 1.87.421-.12.752-.214 1.522-.38 2.264.642.097 1.29.178 1.92.337-.227.7-.468 1.395-.625 2.115l1.865.135a30 30 0 0 1-.616 2.106c.529.136 1.058.29 1.591.405-.125.568-.231 1.15-.395 1.707.697.178 1.397.344 2.078.578.2-.71.384-1.415.54-2.136.56.087 1.117.187 1.683.222l.087-2.07c.654.083 1.307.171 1.966.21l-.043-2.185c.564.123 1.384.423 1.92.204.197-.272.162-.481.16-.803.01-.455-.048-.763.191-1.156.477-.208 1.227.126 1.725.231.039-.732.087-1.465.111-2.197.656.133 1.315.254 1.962.424.088-.776.168-1.543.19-2.324.634.087 1.28.151 1.905.28l.172-2.047c.558.022 1.111.094 1.643-.101.287-.322.328-.502.307-.933-.019-.379-.07-.757-.085-1.135.508-.029.991-.012 1.439-.284l.109-.247c-.655-.9-9.71-2.529-11.31-2.78-5.126-.808-10.56-1.467-15.758-1.324m-6.769.113c-5.751.368-11.288 1.036-16.931 2.248-1.817.39-3.67.762-5.434 1.35.498.361 1.032.707 1.49 1.118l.335 2.063c.479-.14.95-.337 1.452-.244.337.28.391.443.433.878.045.476.086.905.209 1.367l1.856-.294c.089.791.149 1.594.358 2.364.598-.07 1.2-.161 1.802-.19-.014.776-.119 1.538.338 2.214.81.287 1.18-.729 1.897.143.1.598-.1 1.267.144 1.813.364.214.713.063 1.107-.036.252-.063.392-.093.646-.006.4.549.26 1.499.259 2.171l2.01-.235-.215 2.084c.589.053 1.176.03 1.58.53.216.267.377.593.539.894.48-.395.959-.793 1.457-1.166l-.661-1.482c.656-.004 1.41.099 1.903-.397.064-.611-.41-1.35-.601-1.937.663-.117 1.334-.22 1.993-.36-.235-.71-.464-1.42-.744-2.114.698-.117 1.424-.204 2.109-.377l-.746-1.844c.653-.21 1.317-.403 1.958-.647l-.723-1.711c.803-.13 1.53-.256 2.27-.621-.293-.436-.644-.85-.71-1.382.112-.233.13-.3.39-.4.416-.158 1.074-.103 1.529-.13l-.481-2.18c.626-.075 1.25-.147 1.871-.262l-.439-1.665c.282-.61.604-1.102 1.005-1.636-1.751.003-3.506-.018-5.255.079m-23.672 3.852c-7.288 2.199-14.398 4.94-21.085 8.598-1.565.856-3.192 1.695-4.603 2.796 1.241.612 1.874 1.189 2.717 2.282.41-.244.814-.504 1.25-.701l.93 2.174c.427-.291.845-.665 1.375-.702.65.316.78 1.096 1.004 1.743l.037.105c.482-.246.957-.57 1.514-.544.663.396.747 1.242.99 1.933.437-.334.947-.836 1.496-.928l.246.099c.09.215.166.416.218.645l.412 1.276 1.558-.949c.344.697.609 1.374.84 2.116.623-.26 1.239-.535 1.889-.722.122.711.334 1.326.591 1.996l1.426-.485c.385.922.653 1.307 1.5 1.867.415-.728.803-1.36 1.436-1.928-.338-.463-.663-.937-1.046-1.364.636-.334 1.274-.655 1.87-1.056L93.9 38.79a16.5 16.5 0 0 1 1.978-1.127q-.622-.83-1.26-1.647.972-.473 1.938-.96-.565-.863-1.193-1.681l1.919-1.174c-.366-.51-.77-1.018-1.07-1.57.644-.357 1.329-.697 1.94-1.107l-1.196-1.771c.648-.263 1.359-.5 1.976-.826l-.941-1.65c.54-.421 1.088-.836 1.619-1.269-.48-.65-.637-1.217-.94-1.933-.008-.018-.026-.03-.038-.045m58.445.118c.031.749.236 1.331.495 2.023-.427.615-.883 1.214-1.163 1.912.715.341 1.47.659 2.155 1.056-.288.663-.569 1.328-.905 1.968.694.273 1.393.527 2.05.883-.37.65-.77 1.297-1.112 1.962q1.008.422 2.026.819c-.337.68-.71 1.314-1.116 1.954l1.89.963c-.403.63-.844 1.197-1.32 1.772.713.398 1.463.774 2.137 1.235-.38.634-.758 1.265-1.18 1.873.569.368 1.099.745 1.62 1.18-.405.47-.824.93-1.177 1.441q1.297.925 2.608 1.827c.154-.767.283-1.55.474-2.307l1.761.729c.051-.587.05-1.165.331-1.694.246-.183.333-.267.664-.192.418.094.816.467 1.142.726.17-.686.25-1.587.665-2.155.278-.115.43-.169.721-.044.39.168.783.433 1.128.683.117-.714.183-1.52.397-2.207.768.251 1.42.544 2.118.956l.362-2.246c.717.29 1.353.6 2.005 1.017l.524-2.24c.618.35 1.231.726 1.872 1.032l.867-2.198c.607.254 1.21.505 1.794.81.142-.52.228-1.104.599-1.51.385-.186.707-.186 1.13-.195.318-.196.398-.49.534-.819-6.79-3.66-12.706-6.664-20.058-9.173-1.979-.676-4-1.366-6.038-1.84M72.462 33.615c-6.165 3.389-11.72 7.717-16.993 12.351-1.665 1.464-3.225 3.054-4.906 4.494 1.175.242 1.851 1.01 2.748 1.738q.76-.568 1.507-1.153c.448.755.924 1.468 1.44 2.179.319-.474.593-.973 1.078-1.293.263-.007.328-.027.532.166.421.399.639.996 1.05 1.419l1.496-1.198c.437.559.866 1.117 1.27 1.7.506-.423 1.002-.877 1.55-1.245a32 32 0 0 0 1.3 1.857c.473-.456.936-.93 1.43-1.363.302.586.597 1.421 1.151 1.792.705-.048 1.134-.704 1.582-1.2.244.509.57 1.458 1.098 1.704.19.088.315.015.509-.027.231-.212.427-.396.61-.653a36 36 0 0 0 1.995 1.561c.348-.373.578-.583.644-1.11.084-.678.103-.951.667-1.38q.133-.1.269-.197c-.584-.571-1.202-1.036-1.867-1.507.51-.574 1.04-1.114 1.591-1.65q-.937-.632-1.865-1.279c.55-.472 1.111-.935 1.645-1.425a38 38 0 0 0-1.609-1.272q.769-.801 1.523-1.616c-.546-.44-1.096-.873-1.613-1.349q.77-.703 1.505-1.442-.86-.676-1.694-1.383.794-.633 1.577-1.28c-.55-.63-1.044-1.07-1.79-1.47q.745-.762 1.513-1.498c-.384-.368-1.074-.895-1.095-1.47-.017-.483.432-1.122.152-1.501m111.59.097c-.287.354-.586.702-.855 1.07l.755.972c-.544.32-1.267.638-1.443 1.291.11.713.837 1.142 1.363 1.567l-1.447 1.36c.386.384.85.75 1.042 1.27-.138.728-.762 1.002-1.278 1.464.524.564.929 1.1 1.335 1.755l-1.392 1.044c.507.476.94.957 1.368 1.504-.529.4-1.075.786-1.582 1.213.5.498 1.011.987 1.499 1.496q-.766.751-1.563 1.468c.37.53.754 1.056 1.104 1.6-.535.384-1.076.755-1.557 1.206l.076.14c.629 1.175-.241 1.71.076 2.438 1.016-.432 1.226-.457 2.309-.06l.688-1.864c.478.493.95.838 1.526 1.204.324-.672.626-1.364 1.013-2 .571.383 1.15.755 1.693 1.178l1.018-1.822q.914.675 1.792 1.397l1.19-2.019q.855.764 1.692 1.55c.35-.655.688-1.322 1.063-1.962.58.463 1.143.927 1.682 1.439.44-.637.869-1.284 1.355-1.887.54.48 1.072.955 1.563 1.486.417-.633.829-1.252 1.163-1.934l1.348 1.351c.328-.5 1.064-1.991 1.554-2.218.594.194 1.299 1.055 1.904 1.41-.757.537-1.563.96-2.382 1.393.492.516 1.009 1.022 1.464 1.57-.68.322-1.369.625-2.007 1.025.404.56.825 1.083 1.28 1.603-.603.52-1.233.944-1.903 1.37.527.546.972 1.088 1.4 1.715-.605.336-1.244.655-1.821 1.035q.621.887 1.253 1.767c-.654.364-1.314.719-1.95 1.113.475.607 1.001 1.215 1.408 1.869l-1.974.906c.41.607.854 1.209 1.21 1.848-.63.336-1.297.648-1.879 1.063.16.517.371.969.623 1.447-.454.276-1.039.526-1.277 1.02-.07.545.084 1.047.089 1.593l1.515-.92c.363.288.722.58 1.11.837.517-.502.899-1.049 1.304-1.64.588.461 1.082.993 1.592 1.536.33-.504.629-1.09 1.144-1.42.349.006.487.037.729.304.279.308.512.706.746 1.05.425-.583.83-1.21 1.327-1.735q.743.866 1.443 1.767c.388-.6.796-1.148 1.258-1.694a26 26 0 0 1 1.411 1.65c.415-.549.82-1.11 1.256-1.643q.704.83 1.364 1.695l1.221-1.633c.49.657.993 1.207 1.647 1.71.332-.457.64-.906.92-1.398.472.4.958.79 1.41 1.212.155-.5.271-1.032.588-1.455.232-.018.293-.003.503.07-.271-1.283-2.078-3.615-2.819-4.795-7.892-12.562-19.591-23.794-31.982-31.873q-1.624-1.056-3.275-2.068m-61.126 7.214c-4.18.315-8.428.714-12.523 1.644 1.34 5.679 2.384 11.434 3.64 17.131l8.464 37.2c.428 1.937.867 3.871 1.27 5.813.219 1.055.334 2.22.714 3.228.307.171.446.11.79.077.196-.324.196-.64.206-1.012.065-2.413-.053-4.852-.043-7.27l.065-19.432q.14-18.75.045-37.5c-.858.035-1.782.003-2.628.121m5.893-.093-.075 48.188q.014 5.281-.101 10.562c-.05 1.673-.22 3.347-.253 5.017-.008.408-.015.826.141 1.209.349.054.65.018.997-.024.59-.457 2.452-9.476 2.698-10.723l6.48-30.81q1.626-7.525 3.135-15.074c.478-2.317 1.08-4.613 1.487-6.942-4.86-.805-9.584-1.316-14.509-1.403m17.618 2.116-9.673 46.539q-.893 4.17-1.888 8.317c-.403 1.692-2.004 7.28-1.922 8.563.268.14.389.128.685.133.728-1.012 1.215-2.32 1.76-3.444q1.49-3.04 2.94-6.102 11.859-24.516 23.324-49.22c-5.011-1.937-9.945-3.719-15.226-4.786m-39.39.318c-4.435 1.268-8.72 2.709-12.95 4.56.867 2.232 1.944 4.372 2.955 6.54q1.545 3.373 3.038 6.769l16.906 37.494c.53 1.18 3.309 8.055 4.074 8.453l.178-.03c.151-.322.122-.611.062-.953-.42-2.389-1.133-4.8-1.684-7.17l-3.161-13.873-6.529-29.247-1.894-8.888c-.231-1.057-.376-2.356-.751-3.36-.05-.134-.085-.17-.16-.274zm57.628 5.82q-3.747 7.618-7.344 15.307l-11.735 24.942q-2.646 5.561-5.368 11.085c-.95 1.913-1.974 3.793-2.856 5.74-.244.537-.428 1.016-.455 1.611l.106.23c.3.01.307-.04.516-.242.727-.703 1.366-1.601 2.008-2.384q2.035-2.523 4.114-5.01 11.87-13.945 23.357-28.207l7.73-9.366c1.39-1.693 2.862-3.38 4.134-5.161-4.57-3.166-9.094-6.301-14.208-8.545m-73.783.158c-4.236 2.023-8.127 4.312-12.031 6.916l21.73 29.613c3.984 5.417 8.082 10.776 11.945 16.28 1.043 1.499 3.395 5.408 4.791 6.352l.198-.007c.294-.796-.673-2.565-1.022-3.324-2.625-5.717-5.379-11.376-7.981-17.106-2.188-4.816-16.405-37.75-17.63-38.723m-40.794 1.609c-2.04 2.346-4.186 4.623-6.17 7.014q-4.47 5.424-8.266 11.34c-.57.875-1.802 2.384-1.917 3.405l.119.028c.873.212 1.426.762 2.15 1.25q.52-.734 1.022-1.479c.304.437.56.854 1.006 1.16.304.05.391.075.662-.121.325-.237.664-.81.92-1.132l1.395 1.636c.428-.5.845-1.013 1.29-1.496.438.513.866 1.042 1.322 1.537.431-.551.855-1.105 1.338-1.611q.546.624 1.081 1.257l.323.252c.615-.214.853-.977 1.2-1.491a24 24 0 0 0 1.572 1.661l1.264-1.734c.537.538 1.065 1.096 1.622 1.613.376-.487.76-.97 1.123-1.468q.801.745 1.55 1.542c.543-.61 1.05-1.203 1.497-1.887-.34-.314-.672-.65-1.048-.919l.78-1.578q-.977-.543-1.96-1.075c.379-.629.77-1.25 1.067-1.922l-1.842-.743a32 32 0 0 1 1.153-1.806c-.649-.33-1.309-.647-1.95-.992.466-.597.883-1.181 1.263-1.837q-.932-.436-1.878-.839c.455-.558.824-1.114 1.185-1.737q-.916-.58-1.81-1.195l1.18-1.426c-.538-.559-1.163-.92-1.83-1.303a18 18 0 0 1 1.184-1.495c-.722-.7-1.57-1.321-1.597-2.409m26.088 7.367q-2.73 2.022-5.297 4.248t-4.956 4.642c1.746 1.8 3.652 3.453 5.51 5.137l8.112 7.38 29.535 26.849c.698.645 4.514 4.473 5.294 4.543.042.003.084-.005.126-.008.197-.248.246-.216.233-.55-1.03-1.663-2.358-3.2-3.532-4.768l-7.493-10.021L81.135 64.77c-1.078-1.457-3.78-5.757-4.949-6.55m105.303 1.62c-4.858 5.514-9.469 11.282-14.097 16.99l-13.157 16.024q-4.469 5.387-9.065 10.665c-1.737 2.007-3.683 3.968-5.2 6.14.027.317.073.293.279.515.322.052.456.034.719-.178 1.013-.818 2.01-1.971 2.94-2.908 10.857-10.566 22.295-20.502 33.393-30.806l7.736-7.063c1.165-1.074 2.425-2.115 3.49-3.284-2.247-2.104-4.576-4.244-7.037-6.095m9.375 8.513q-17.177 15.478-34.136 31.194-4.012 3.707-8.128 7.298c-1.454 1.275-4.953 4.206-6.027 5.576l.172.192c1.257.053 3.525-1.874 4.58-2.595l32.672-21.137 10.41-6.639c2.648-1.68 5.333-3.328 7.855-5.196-1.357-2.2-5.397-7.06-7.398-8.693M63.6 69.569c-2.802 3.37-5.555 6.703-7.997 10.35q17.925 11.31 36.211 22.028l10.164 6.126c1.68 1.018 3.353 2.115 5.081 3.042 1.215.701 3.378 2.226 4.615 2.634.252-.209.412-.337.56-.636-.822-.993-2.473-2.016-3.505-2.868-2.071-1.71-4.085-3.52-6.081-5.319L73.184 78.192c-2.141-1.915-4.21-3.906-6.333-5.84-1.017-.926-2.098-2.035-3.25-2.783m159.031 3.667c-.43.41-.85.75-1.349 1.07l.785 1.432c-.554.137-1.112.218-1.566.584-.207.461-.165.68.014 1.144q.171.434.353.864-1.03.213-2.063.402c.289.739.577 1.471.804 2.232-.75.085-1.506.153-2.249.293l.95 2.266c-.614.084-1.48.084-1.933.54-.214.61.3 1.444.556 2.006-.598.084-1.26.105-1.781.427-.171.289-.227.43-.153.77.097.444.292.902.443 1.334-.802.11-1.61.199-2.397.392.19.63.372 1.258.622 1.868-.567.212-1.488.333-1.9.744-.096.26-.148.435-.163.71-.02.347-.19.579-.378.86l.094.142c.4.035.672.01 1.064-.08l.759.803c.452.011 1.259-.695 1.665-.966.287.569.555 1.167.888 1.71.495-.335.996-.764 1.595-.865.335.101.513.165.683.493.134.259.214.56.31.834l.128.361c.586-.491 1.148-.923 1.811-1.309q.49.888.957 1.787c.36.012.509-.201.768-.441.214-.198.418-.41.623-.618.193.227 1.253 1.639 1.38 1.643.203.006.332-.077.508-.163.283.37.568.726.883 1.07l1.786-.412c.117.469.189.861.507 1.236.304.126.472.2.792.062.407-.174.802-.478 1.145-.757.08.52.101 1.033.433 1.46.352.24.629.28 1.039.201.771-.147 1.399-.458 2.204-.495q.226-.013.453-.02c-.782-2.55-1.514-5.132-2.419-7.64-1.737-4.815-3.893-9.441-6.208-14-.47-.925-1.619-3.465-2.443-3.974m-189.796.7c-1.14 1.749-2.06 3.69-2.977 5.56-2.987 6.099-5.323 12.326-7.33 18.804.774.571 1.55 1.09 2.378 1.578.235-.77.574-1.39 1.029-2.052.585.397 1.164.806 1.769 1.17.343-.69.692-1.293 1.18-1.896.627.32 1.251.648 1.884.955.248-.56.455-1.222.91-1.642.325-.103.415-.141.745.014.376.178.775.643 1.07.935.327-.591.66-1.179.962-1.783.28-.137.304-.165.615-.063.508.168 1.008.455 1.49.69.284-.562.604-1.127.831-1.715.718.323 1.426.633 2.096 1.048.354-.665.688-1.333 1-2.02q1.005.627 1.966 1.319l.08-.15c.164-.3.312-.678.657-.796.526-.181 1.147-.26 1.693-.371l.094-.18c-.411-.805-.997-1.158-1.787-1.542.129-.527.235-1.074.397-1.59-.713-.255-1.423-.517-2.148-.736.236-.541.492-1.08.694-1.635-.811-.275-1.638-.506-2.445-.787.252-.608.506-1.213.72-1.835-.71-.222-1.428-.43-2.13-.674l.767-1.703a38 38 0 0 0-2.062-.614c.198-.667.398-1.327.637-1.98-.758-.239-1.523-.465-2.275-.723.231-.597.501-1.201.668-1.82-.575-.121-1.264-.185-1.75-.527-.122-.282-.18-.432-.044-.727.131-.288.322-.57.487-.84-.689-.48-1.203-1.252-1.872-1.671m167.397 6.073q-19.09 11.832-37.859 24.168-6.005 3.895-12.078 7.685c-1.456.912-2.951 1.76-4.38 2.718-.389.26-.897.572-1.133.983.105.163.088.228.3.263 1.032.166 3.738-1.254 4.775-1.701 11.164-4.7 22.435-9.071 33.713-13.488l16.436-6.282c2.33-.874 4.615-1.857 6.977-2.648-1.454-3.17-4.575-9.148-6.75-11.698M53.789 82.684c-2.21 3.671-4.382 7.505-5.903 11.521 12.759 5.02 25.744 9.508 38.653 14.127l19.425 7.17q1.931.738 3.872 1.45c.22-.288.248-.27.21-.624-.554-.535-3.257-1.84-4.134-2.34-4.318-2.47-8.665-4.917-12.916-7.498l-28.42-17.17q-3.625-2.21-7.218-4.472c-1.097-.69-2.375-1.704-3.57-2.163m154.39 12.188c-4.87 1.951-9.889 3.575-14.798 5.438q-18.11 6.929-36.074 14.227-3.694 1.536-7.437 2.951c-1.053.402-2.441.71-3.38 1.296l-.042.302c.278.285.524.332.921.332 1.064-.002 2.206-.28 3.256-.457l48.48-8.396c4.531-.797 9.094-1.404 13.62-2.244-.873-4.591-2.475-9.031-4.328-13.309zm-161.586 2.42c-1.323 4.029-2.678 8.068-3.377 12.262l48.296 7.819c4.852.82 9.756 1.447 14.586 2.384 1.073.194 2.128.41 3.224.397-3.776-1.871-8.933-3.34-13.025-4.836L67.53 104.924l-14.825-5.477c-1.922-.698-4.15-1.709-6.113-2.154m187.374 3.22c-.777.27-1.526.47-2.334.623.29.624.475 1.2.629 1.868a27 27 0 0 1-2.146.127l.482 1.823c-.756-.11-1.514-.236-2.276-.291.084.648.137 1.321.282 1.959-.67-.047-1.34-.112-2.012-.099.103.593.193 1.192.317 1.78l-1.96-.191c.083.627.185 1.257.222 1.888-.641-.026-1.288-.07-1.929-.078.063.684.136 1.37.187 2.055-.69-.117-1.39-.261-2.085-.333q.097 1.154.22 2.305c-.567-.148-1.098-.327-1.688-.267-.292.183-.403.228-.475.596-.064.324.05.835.091 1.17l-1.669.343c.105.555.223 1.109.284 1.67l1.848-.172c.109.604.199 1.22.346 1.817a45 45 0 0 1 2.18-.39l.183 1.763c.7-.179 1.418-.418 2.145-.427.205.18.156.071.18.308.054.47.034.823.319 1.215.388.144.626.029 1.004-.076.346-.096.697-.154 1.052-.214.054.604.107 1.198.223 1.794.672-.206 1.342-.42 2.017-.618l.365 1.796c.573-.147 1.319-.442 1.9-.308.203.207.241.208.323.502.112.4.256.79.397 1.182l2.031-.448.168 1.468 2.95-.014c-.221-7.719-1.03-15.129-2.695-22.677-.188-.854-.415-2.684-.948-3.349-.034-.042-.085-.067-.128-.1m-211.994.164c-2.591 8.477-3.429 17.445-3.69 26.265.808.06 1.528.17 2.304.418.061-.612.124-1.213.25-1.817.582.147 1.406.483 1.957.143.165-.102.231-.215.262-.41.046-.29-.081-.777-.101-1.09.213-.206.103-.18.365-.174.627.017 1.468.4 2.022.68.021-.601-.078-1.55.437-1.964a.63.63 0 0 1 .503-.11c.486.077.842.428 1.364.31.251-.209.375-.387.412-.713.045-.392.027-.811.03-1.206.666.183 1.346.347 1.997.58l.28-.042c.356-.619-.248-1.676.704-1.9.557-.13 1.345.259 1.868.448.083-.61.11-1.248.419-1.791.294-.181.436-.262.787-.187.443.095.903.296 1.332.449q.303-.965.594-1.934c.36.148.903.45 1.279.298.335-.136.48-.299.65-.606.042-.319.01-.532-.183-.803-.23-.32-.536-.43-.909-.451q-.455-.021-.91-.021c.059-.547.176-1.08-.028-1.606-.299-.272-.463-.35-.874-.331a20 20 0 0 0-1.22.097l.033-2.109c-.649.031-1.429.164-2.044-.064-.217-.281-.28-.404-.254-.766.024-.325.12-.673.189-.993a39 39 0 0 0-2.327-.321c.107-.666.215-1.331.297-2-.753.009-1.512.04-2.264-.013l.421-2.068-2.471-.01.357-2.09c-.624-.02-1.287.019-1.873-.212-.772-.962.697-1.081-1.965-1.886m105.36 8.002c-4.906.291-8.954 2.197-12.218 5.893-2.906 3.291-4.36 7.901-4.065 12.263q.022.394.066.785.042.392.105.78.062.39.144.775t.182.766q.101.38.22.756.12.375.259.743.138.37.295.73.157.362.332.715.174.353.367.697.191.344.4.678.21.333.435.656.226.323.467.634t.498.61.528.584q.272.286.557.558.285.271.584.528c.745.64 1.55 1.267 2.397 1.766 3.049-1.718 5.579-4.17 9.273-4.26 3.281.292 5.67 2.078 8.295 3.9 4.002-2.524 6.656-5.986 7.723-10.652.95-4.154-.009-8.641-2.275-12.209-2.349-3.698-5.907-6.354-10.214-7.285-1.399-.302-2.922-.492-4.356-.41m85.762 2.982q-25.691 4.497-51.442 8.643-4.983.848-9.978 1.626c-.873.13-3.177.26-3.868.483-.169.055-.19.08-.317.17-.09.361.012.666.098 1.017l2.257.134c6.255.295 12.518.302 18.778.363l17.881.218c9.38.073 18.783.387 28.16.288-.005-1.806-.631-12.076-1.358-12.955zm-170.508 1.13q-.917 5.76-1.147 11.588 24.054.11 48.106-.135c3.438-.032 6.894-.067 10.33-.165 2.26-.064 4.52-.227 6.781-.21.41-.01.953.057 1.305-.143.055-.278.059-.28-.072-.53-1.667-.552-3.567-.625-5.301-.927-5.699-.992-11.44-1.777-17.156-2.666l-29.393-4.684c-4.474-.712-8.963-1.532-13.453-2.127m105.094 13.686c-.094.39-.253.802-.126 1.198.675.575 45.324 9.06 49.867 9.702 2.736-1.637 5.25-2.703 8.472-1.87 2.683.694 4.883 2.451 7.13 3.988.255.138.428.319.715.24.783-2.16 1.044-9.014 1.12-11.601-3.73-.27-7.496-.24-11.233-.272l-12.124-.163q-21.925-.085-43.821-1.222m-41.387.449c-3.359.29-6.75.242-10.12.29q-7.608.132-15.216.176-19.807.257-39.616.242c.022 2.62.104 5.209.33 7.82.14 1.615.385 3.225.507 4.841l1.243-.234q.068-.014.134-.032c2.465-.632 4.445-3.418 7.57-4.165 1.815-.433 3.642-.134 5.477-.271 2.496-.187 5.018-.65 7.496-1.005l40.276-6.137c.911-.14 3.11-.075 3.66-.754.072-.3.07-.437-.025-.732-.425-.24-1.225-.114-1.716-.04m-85.816 1.739c-.737.138-1.47.264-2.214.363.247 8.713 1.062 17.916 3.492 26.32.483-.088.97-.167 1.451-.267.076-.564.166-1.13.219-1.696.581.148 1.148.343 1.751.258.236-.161.329-.207.364-.519.054-.49-.195-1.152-.322-1.628.756.033 1.74.218 2.343-.334.18-.382.054-.755-.021-1.151.113-.312.144-.463.464-.625.45-.228 1.243-.142 1.742-.14-.157-.536-.486-1.201-.361-1.745.27-.221.474-.22.804-.24l.467-.027c.433-.06.611-.044.96-.321.17-.425.057-.79-.014-1.224l-.092-.575c.79.022 1.585.027 2.374.08a50 50 0 0 0-.1-2.05c.598.042 1.327.189 1.892-.036.434-.496.185-1.48.558-1.76.45-.34 1.122-.422 1.607-.808.285-.227.364-.368.36-.71-.254-.37-.58-.61-1.03-.676-.5-.073-1.08.02-1.582.063-.039-.55-.02-1.12-.288-1.614-.3-.17-.43-.192-.767-.092-.372.11-.751.309-1.107.466-.179-.6-.285-1.382-.713-1.848-.51-.249-1.001-.01-1.498.161q-.276.096-.55.194c.027-.678.169-1.479-.309-2.028-.55-.237-.994-.003-1.509.201q-.262.105-.522.212c-.018-.695.047-1.593-.475-2.125-.653-.047-1.273.961-1.863.323-.45-.486-.39-1.234-.503-1.848q-1.13.39-2.25.8l-.27-2.19c-.736.252-1.471.526-2.215.754-.002-.588.07-1.29-.12-1.848zm214.178.228.001 1.827-2.419-.556-.004 2.082-2.669-.414c-.037.668-.078 1.334-.071 2.003a33 33 0 0 1-2.478-.487c-.053.702-.115 1.402-.122 2.106-.822-.14-1.649-.306-2.475-.409a13 13 0 0 0-.17 2.056c-.957.023-1.765-.077-2.701-.296l-.176 2.008c-.529-.085-1.548-.38-2.014-.186q-.111.466-.201.937c-.29.243-.62.222-.978.277-.265.041-.166.006-.379.163-.017.328-.027.541.181.814.429.56 1.315.571 1.952.647l-.236 1.586c.742.107 1.47.21 2.22.236l-.03 1.994c.742-.042 1.501-.114 2.244-.102 0 .568-.107 1.358.332 1.792.232.23.458.261.77.225.422-.05.69-.236 1.105-.083.008.143.023.273-.004.415-.087.561-.189 1.125-.242 1.69.864-.04 1.74-.108 2.605-.08q-.155 1.051-.37 2.092l2.617.04c-.129.631-.275 1.263-.373 1.9.63.148 1.072.218 1.545.684.722.711 1.045.795 2.056.848 2.18-8.477 3.746-17.06 3.694-25.852-1.07.045-2.14.105-3.21.043m-87.698 1.855c-.157.409-.32.817-.465 1.23 6.868 2.075 13.604 6.629 20.392 8.55 1.252-.832 2.496-1.727 3.803-2.466.928-.559 1.849-1.147 2.832-1.606-2.379-.658-4.864-1.074-7.279-1.59l-13.682-2.96c-1.86-.4-3.752-.718-5.601-1.159m-38.496.182c-5.138.618-10.269 1.677-15.392 2.45l-8.94 1.345c-1.658.264-3.372.475-4.986.936 1.39.09 2.492.296 3.739.94 1.483.834 2.915 1.75 4.355 2.656 2.674-.808 20.795-6.76 21.59-8.072q.055-.09.115-.177c-.17-.044-.305-.093-.481-.078m1.405 3.188q-2.065.82-4.055 1.81c.521.115 1.053.207 1.547.417l.876.508c.793-.524 1.58-1.072 2.4-1.553-.148-.379-.28-.894-.595-1.156zm35.397.582c-.298.559-.59 1.124-.9 1.676.755.51 1.49.964 2.31 1.361l1.009-.481 1.335-.72c-1.261-.592-2.444-1.357-3.754-1.837m-71.617 1.871c-4.348.422-8.843.997-13.132 1.834l1.65 1.108c1.806.953 3.4 1.553 5.45.917a9.6 9.6 0 0 0 1.874-.79c.603-.338 3.917-2.556 4.218-3.022zm38.529 1.045c-.364.234-.918.485-1.072.906.136.356.263.405.563.627.349-.141.53-.38.703-.724.075-.149.096-.323.123-.483-.109-.177-.128-.224-.317-.326m-59 .55c-3.07.405-4.92 2.266-7.42 3.848-.976.617-2.017 1.089-3.096 1.494.192.68.377 1.365.583 2.041 1.083-.278 2.037-.596 3.014-1.146 3.494-1.967 6.098-5.2 10.384-2.638 3.91 2.337 6.771 5.25 11.756 3.988 4.82-1.221 7.705-7.329 13.198-4.111 3.856 2.258 6.59 5.365 11.488 4.095 4.603-1.194 8.1-7.251 13.307-4.379 3.341 1.844 5.374 4.597 9.514 4.567.82-.006 1.64-.044 2.433-.272 4.31-1.235 7.584-6.855 12.543-4.278 4.496 2.337 6.305 5.962 12.234 4.151 4.326-1.32 7.488-6.681 12.404-4.084 4.359 2.302 6.704 5.871 12.325 4.18 4.155-1.25 7.428-6.835 12.172-4.316 1.426.757 2.714 1.807 4.062 2.693 2.88 1.894 6.139 2.726 9.513 1.71 3.527-1.062 6.226-4.864 9.805-5.128 3.297.272 6.207 3.466 9.5 4.657l.509-2.09c-3.546-1.983-7.236-5.963-11.66-4.677-4.144 1.204-6.373 5.155-11.06 5.207-1.478.016-2.809-.324-4.108-1.03-3.517-1.909-6.531-5.515-10.958-4.234-4.996 1.445-7.972 7.41-13.832 4.244-3.483-1.882-6.371-5.506-10.78-4.191-5.168 1.54-7.791 7.363-13.989 4.124-3.546-1.852-6.346-5.496-10.809-4.203-5.105 1.48-7.486 7.535-13.69 4.244-3.564-1.889-6.422-5.604-10.955-4.25-4.707 1.406-8.236 7.316-13.694 4.418-3.784-2.008-6.614-5.79-11.446-4.354-5.52 1.641-7.557 7.655-14.428 4.004-2.77-1.473-5.451-4.425-8.82-4.284m89.265.1c-.663.668-1.442 1.341-1.935 2.143l.014.218c.27.111.445.058.726.004a9.8 9.8 0 0 0 2.157-.999c-.295-.466-.57-.974-.962-1.366m42.338.212c2.232 1.371 4.561 3.009 7.33 2.303q.545-.135 1.062-.351l.228-.255c-.737-.6-7.342-1.621-8.62-1.698m-69.811 1.377c-.257.244-.573.463-.63.83.296.215.646.177 1.003.16l.404-.119c-.142-.383-.524-.552-.778-.871m-62.18 8.8c-3.091.574-4.941 2.438-7.527 4.014l.844 2.125c2.378-1.425 5.652-4.239 8.566-3.532 2.028.492 3.74 2.004 5.439 3.14 3.468 2.322 7.288 2.636 10.918.5 2.636-1.553 5.344-4.418 8.67-3.62 4.378 1.05 6.072 5.155 11.433 5.021 1.697-.043 3.252-.522 4.709-1.386 2.627-1.558 5.42-4.56 8.776-3.725 4.194 1.044 6.012 5.077 11.384 4.977 1.607-.03 3.107-.465 4.5-1.261 2.92-1.67 5.536-4.653 9.259-3.61 1.535.43 2.838 1.46 4.135 2.345 3.51 2.397 7.023 3.537 11.006 1.407 2.917-1.559 5.72-4.916 9.37-3.776 1.497.467 2.784 1.464 4.063 2.337 3.52 2.403 6.94 3.885 11.095 1.826 3.05-1.512 6.016-5.245 9.79-4.063 1.815.568 3.397 1.911 4.954 2.96 3.419 2.302 7.405 2.838 11.175.954 2.861-1.43 5.112-4.237 8.553-4.168 2.607.543 4.164 2.328 6.369 3.618.282-.807.54-1.602.743-2.433-2.445-1.989-5.102-3.873-8.416-3.522-4.77.505-7.491 5.505-12.543 5.27-4.958-.23-7.58-6.157-13.64-5.233-4.278.653-6.897 5.291-11.37 5.135-4.605-.161-7.369-5.581-12.727-5.277-4.694.266-7.599 5.224-11.918 5.112-4.623-.12-7.046-5.25-12.48-5.102-4.838.133-7.673 5.207-12.218 5.086-4.443-.118-7.442-5.21-12.388-5.14-4.88.069-7.745 5.376-12.53 5.254-4.583-.117-7.402-5.283-12.406-5.23-4.931.054-7.751 5.19-12.183 5.305-5.049.131-7.708-5.749-13.406-5.308m177.11 7.77c-.097.652-.174 1.315-.307 1.96-.841-.33-1.733-.626-2.543-1.023-.07.573-.075 1.211-.388 1.709-.282.167-.407.234-.736.135-.648-.197-1.238-.562-1.9-.758-.147.67-.268 1.36-.469 2.015-.78-.387-1.558-.807-2.359-1.146-.113.698-.23 1.396-.316 2.099-.895-.371-1.798-.79-2.726-1.069l-.39 2.19-2.24-1.352c-.267.648-.54 1.293-.785 1.95a8.8 8.8 0 0 1-2.014-1.005l-.036.115c-.196.605-.78 1.246-.706 1.874.392.676 1.648.708 1.48 1.663-.06.33-.282.712-.431 1.014l2.29.869a11.5 11.5 0 0 0-.847 1.802c.824.232 1.677.434 2.48.728l-.948 1.857 2.4.978c-.299.52-.59 1.039-.937 1.53.744.543 1.74.845 2.578 1.243l-1.1 1.794c.865.508 1.726.974 2.422 1.71-.429.532-.89 1.055-1.256 1.633.832.625 1.612 1.258 2.3 2.043 4.92-8.118 8.326-16.797 11.189-25.811a24 24 0 0 1-3.704-.747m-204.083.49c-1.144.18-2.277.347-3.431.45 1.762 7.743 6.041 18.111 10.314 24.813.4-.741.87-1.006 1.608-1.38l-.021-1.54c.702-.233 1.455-.434 2.124-.746q-.385-.99-.78-1.976 1.175-.428 2.362-.822c-.236-.708-.46-1.42-.745-2.108.505-.132 1.032-.241 1.518-.43.34-.181.453-.171.586-.546-.115-.564-.405-1-.63-1.52.594-.218 1.607-.432 2.021-.886.17-.733-.302-1.266-.593-1.908.682-.154 1.599-.226 2.137-.683.146-.29.18-.492.09-.803-.096-.339-.247-.676-.378-1.004.709-.385 1.432-.755 2.124-1.168a7.6 7.6 0 0 1-.441-2.58c-.518.327-1.283 1.014-1.852 1.116-.27-.152-.233-.154-.314-.436-.055-.19-.082-.38-.117-.574-.056-.311-.096-.488-.312-.734-.26-.093-.331-.154-.598-.035-.513.23-1.072.966-1.592 1.027-.441-.53-.335-1.319-.822-1.779-.893-.08-1.53 1.17-2.293.657-.272-.596-.014-1.433-.797-1.65-.369-.102-.704.24-.962.462-.282.243-.475.457-.85.544-.243-.11-.278-.115-.378-.378-.277-.733-.04-1.195-.808-1.618-.92-.063-1.364 1.177-2.295.644-.38-.71-.147-1.243-1.003-1.61-.732.132-.989.849-1.692 1.005-.223-.157-.299-.17-.345-.454-.076-.465.143-.901-.108-1.335-.298-.112-.409-.068-.727-.016m52.66 2.261c-5.553.47-8.155 5.048-12.345 5.06-6.627.02-8.432-8.38-17.238-3.62a13 13 0 0 0-.725.42l.91 1.996c2.49-1.008 4.753-1.758 7.383-.618 1.411.613 2.634 1.641 3.92 2.472 2.7 1.745 5.949 2.362 9.014 1.179 4.16-1.606 6.748-6.002 11.792-3.79 3.53 1.547 5.455 4.383 9.656 4.425 1.146.011 2.288-.146 3.365-.546 4.241-1.578 6.923-6.157 12.082-3.814 1.488.676 2.794 1.758 4.16 2.645 2.568 1.669 5.475 2.252 8.401 1.164 4.167-1.55 6.94-6.077 11.92-3.868 1.116.495 2.104 1.233 3.118 1.906 3.166 2.103 6.049 3.352 9.803 1.904 4.075-1.573 6.84-5.902 11.737-3.77 1.575.686 2.912 1.833 4.347 2.76 2.68 1.732 5.82 2.22 8.83 1.052 3.483-1.35 5.464-4.186 9.495-4.393 4.905.769 7.224 5.4 12.793 5.227 5.836-.18 8.206-6.097 13.663-5.073q.386.072.762.188c.653.2 1.245.486 1.825.849l.92-2.389c-2.499-1.157-5.217-1.647-7.87-.687-4.415 1.599-7.192 6.525-12.585 4.04-1.373-.632-2.595-1.626-3.847-2.467-2.833-1.902-5.994-2.811-9.302-1.599-4.381 1.606-6.786 6.202-12.079 3.769-1.564-.719-2.931-1.825-4.384-2.739-2.534-1.594-5.55-2.146-8.41-1.095-4.127 1.518-6.784 6.086-11.75 3.868-1.252-.559-2.364-1.422-3.506-2.173-2.94-1.933-5.99-2.969-9.432-1.662-4.156 1.577-6.837 5.959-11.838 3.792-1.442-.625-2.719-1.63-4.03-2.487-2.715-1.772-5.64-2.505-8.748-1.3-4.145 1.606-7.025 5.98-12.008 3.798-3.47-1.518-5.69-4.375-9.8-4.424m-25.716 10.442c.447.748.955 1.505 1.3 2.305 2.804.592 4.569 2.255 6.922 3.72 3.45 2.149 7.24 1.87 10.601-.304 2.47-1.597 4.879-3.803 8.072-3.188 1.772.341 3.223 1.457 4.673 2.46 4.225 2.92 7.682 3.695 12.2.797 2.576-1.653 4.888-3.848 8.222-3.151 2.201.46 3.853 2.076 5.685 3.264 3.344 2.169 7.426 2.155 10.774.015 2.577-1.647 4.678-4.007 8.075-3.285 2.044.434 3.744 1.924 5.446 3.059 3.464 2.308 7.298 2.501 10.867.309 2.726-1.673 4.928-4.179 8.468-3.327 1.569.377 2.85 1.33 4.153 2.231 4.07 2.815 7.273 4.062 11.859 1.365 2.87-1.687 5.252-4.55 8.952-3.633 1.622.402 2.965 1.476 4.315 2.408 4.051 2.798 7.646 3.97 12.189 1.38 2.037-1.162 3.743-2.74 5.947-3.624l.501-.889q.594-.914 1.205-1.817c-1.542.208-2.894.495-4.292 1.199-2.81 1.415-4.806 4.115-8.202 4.146-5.473.05-7.876-6.248-14.34-5.312-4.403.638-7.095 5.425-11.374 5.136-4.85-.327-7.139-5.644-12.957-5.244-4.619.318-7.51 5.189-11.752 5.046-4.407-.15-7.003-5.128-12.43-4.997-4.775.115-7.642 5.132-12.203 4.94-4.489-.188-6.943-4.962-12.38-4.89-5.178.067-7.782 5.108-12.365 5.013-4.46-.092-7.058-5.183-12.375-5.175-5.356.007-7.797 5.233-12.64 5.093-4.907-.142-6.428-5.097-13.116-5.05m24.401 10.528c-6.359 1.5-7.351 7.286-15.038 3.75.858 1.185 1.768 2.626 2.988 3.454 1.03.072 2.039.13 3.06-.062 3.806-.716 6.365-4.697 10.224-4.83 4.462-.153 7.281 4.952 12.262 5.167 5.437.236 8.116-4.967 12.784-5.054 4.297-.08 7.038 4.623 11.626 5.003 5.915.49 8.314-4.62 12.684-4.9 3.883-.25 7.068 4.19 11.404 4.85 5.965.908 8.652-4.955 13.602-4.933s7.537 5.914 13.666 5.036c3.95-.566 6.35-4.047 10.039-5.038 3.701-.384 5.712 2.026 8.686 3.691 1.431.801 2.818 1.236 4.431 1.484q1.142-1.175 2.305-2.329c-1.197-.039-2.328-.074-3.479-.43-4.15-1.284-6.134-4.92-11.009-4.907-5.165.015-7.998 5.71-13.017 5.045-4.538-.601-6.45-5.042-11.949-5.064-5.147-.019-7.903 5.439-12.383 5.087-4.363-.344-7.09-4.985-11.826-5.025-4.936-.042-7.954 5.139-12.406 4.985-4.513-.156-7.203-5.006-12.349-5.047-5.148-.042-8.032 5.173-12.397 5.108-5.01-.074-7.021-5.649-13.907-5.042m-39.265 1.927c-.489.476-.966.985-1.493 1.418l-1.015-.892c-.765.216-1.506.359-2.293.468 4.397 7.345 8.291 12.893 14.13 19.218.768.833 1.755 2.203 2.718 2.743.3-.257.354-.538.39-.925q.064-.697.018-1.394c.509-.272 1.129-.511 1.463-.995.146-.657-.465-1.57-.556-2.293.561-.156 1.372-.292 1.716-.806.105-.157.09-.321.04-.498-.047-.16-.235-.379-.354-.482-.271-.301-.444-.43-.536-.83.426-.874 2.14-.699 1.66-2.155-.06-.181-.219-.37-.324-.526l-.36-.545c.53-.367 1.281-.755 1.563-1.343.05-.555-.244-.865-.578-1.265q-.145-.173-.292-.343l.102-.104c.498-.498 1.776-1.15 1.801-1.845-.311-.436-.836-.896-.914-1.43.32-.722 1.204-.919 1.763-1.46q-.037-.072-.072-.145c-.299-.621-.48-2.148-.894-2.51-.803.106-1.06 1.386-1.8.933-.206-.344-.353-.676-.518-1.04-.092-.205-.054-.133-.24-.306-.544.06-.787.372-1.126.792q-.348.422-.634.889c-.464-.5-.916-1.03-1.416-1.493-.415.277-1.222.976-1.709.961-.587-.336-.471-1.489-1.313-1.367-.636.093-1.194.849-1.592 1.283-.492-.58-.877-1.091-1.602-1.381-.731.248-.633 1.754-1.767 1.16-.283-.148-.385-.502-.45-.794q-.014-.077-.031-.154c-.045-.19-.027-.122-.164-.313-.421-.025-.812.305-1.11.573-.255.23-.498.475-.748.712-.396-.482-.902-1.27-1.463-1.517m179.92-.05a15 15 0 0 1-.97 2.103c-.852-.559-1.534-1.257-2.22-2.003-.37.67-.721 1.37-1.136 2.013q-1.052-.872-2.034-1.823c-.358.61-.697 1.253-1.112 1.825-.772-.556-1.315-1.322-2.065-1.877-.406.657-.795 1.354-1.26 1.971-.65-.626-1.262-1.361-1.969-1.915-.387.617-.76 1.253-1.176 1.85a34 34 0 0 1-1.738-1.881c-.332.331-.64.66-.926 1.031-.357-.041-.775-.249-1.06-.042-.059.494-.247 1.103.004 1.553.429.375.944.62 1.441.891-.394.515-.802.994-1.24 1.47.687.576 1.5.965 2.17 1.537a49 49 0 0 1-1.44 1.575c.757.455 1.524.901 2.23 1.432q-.782.778-1.538 1.582c.786.51 1.64.998 2.336 1.626l-1.592 1.381c.721.516 1.477.922 2.261 1.333-.462.637-.996 1.119-1.579 1.64.704.508 1.633.938 1.797 1.842-.176.573-.618.847-1.063 1.214.494.564 1.316 1.256 1.507 1.978-.102.438-.223.584-.61.818q-.278.166-.565.32a11.7 11.7 0 0 0-1.63-1.608c-.389.664-.764 1.337-1.206 1.968-.53-.774-1.018-1.61-1.59-2.35-.558.638-1.104 1.194-1.8 1.684-.399-.807-.776-1.639-1.23-2.415-.626.59-1.221 1.157-1.972 1.588-.429-.736-.74-1.528-1.166-2.258q-.932.927-1.905 1.813c-.516-.787-.756-1.61-1.07-2.488l-.136.07c-.514.267-1.225 1.024-1.73 1.11-.923-.292-.664-1.648-1.7-1.535-.282.187-.54.38-.8.598-.219.184-.363.285-.65.349-.872-.311-.75-2.091-1.932-1.475-.26.135-.52.35-.713.567-.34.422-.683.838-.982 1.291.675.454 1.283.813 1.608 1.595-.062.362-.14.427-.446.629-.106.07-.218.13-.326.195-.284.17-.403.277-.564.563-.026.347-.035.39.134.691.516.308 1.274.564 1.635 1.037.022.17.076.269-.027.421-.418.62-1.441.694-1.665 1.487.364.849 1.665.688 1.781 1.653-.341.691-1.703.918-1.594 1.7.535.586 1.419.783 2.079 1.212-.546.523-1.306 1-1.691 1.632.032.353.113.468.39.696.466.385 1.006.643 1.457 1.06-.502.393-1.728 1.108-1.965 1.636.395.386.754.73 1.043 1.207q-.062.106-.122.214c-.334.632.09 1.725.319 2.36 2.884-1.51 5.681-3.554 8.307-5.487 9.937-7.312 17.37-14.756 24.544-24.81 1.538-2.155 4.23-6.141 5.157-8.544l-.067-.084c-.268.217-.364.34-.733.322-1.352-.069-2.307-1.27-3.495-1.738m-104.64 13.405c-1.34 3.88-2.166 7.964-3.608 11.81l2.063.01c.2-.761.385-1.53.605-2.287l2.797.04c.19.013.37-.031.507.12.443.487.574 1.537.8 2.17l2.06-.05c-1.233-3.955-2.548-7.883-3.687-11.866zm-11.912.036.004 11.782c2.219.001 4.442.03 6.66-.028l.008-1.821c-1.546-.222-3.152-.165-4.712-.18q.027-4.883-.018-9.765c-.646.003-1.297-.01-1.942.012m17.377.04-.002 1.962 2.623.007c.02 3.264.007 6.53.061 9.793l1.997.004.009-2.583c-.016-2.407-.077-4.823-.04-7.23l2.512-.032c.005-.643.021-1.288.005-1.93q-3.582-.047-7.165.009m8.843-.011c.922 4.006 2.55 7.8 3.517 11.789l1.568.05 2.58-8.48c.323-1.113.663-2.223.955-3.344l-2.026-.02q-1.087 3.915-2.29 7.797-1.166-3.882-2.18-7.807zm10.744-.01.02 11.79 2.08-.018c-.019-3.906-.188-7.854-.076-11.755zm7.596-.01c-.985 3.961-2.678 7.852-3.61 11.703q1.033.068 2.067.108l.721-2.302 2.531.014c.193.008.428-.043.574.101.49.483.57 1.52.845 2.157l2.04.006c-.978-4-2.555-7.826-3.75-11.761zm-73.115 5.1c-.738.39-.988.855-1.377 1.574a11 11 0 0 0-1.668-1.312c-.619.657-.943 1.24-1.273 2.085-.468-.418-.926-.918-1.526-1.132-.33.04-.425.043-.66.31-.302.342-.526.975-.73 1.387-.648-.434-1.275-.922-1.937-1.332l-1.113 1.984c-.557-.476-1.157-1.192-1.828-1.458-.314.066-.452.148-.62.435-.248.427-.399 1.004-.578 1.469-.563-.38-1.077-.883-1.74-1.057-.332.075-.5.129-.694.428-.273.42-.48.931-.688 1.387-.582-.576-1.093-1.24-1.689-1.793-.393.577-.745 1.14-1.062 1.763l-1.228-.529-1.385 1.356q4.49 4.396 9.386 8.336 2.839 2.272 5.837 4.327t6.14 3.885c-.01-.876.008-1.763-.093-2.634.406-.458.89-.904 1.092-1.491-.062-.584-.293-.76-.732-1.113-.246-.198-.503-.386-.74-.595.513-.43 1.284-.832 1.626-1.4.004-.403-.095-.594-.377-.888-.284-.294-.596-.562-.874-.861.476-.42 1.29-.956 1.497-1.551-.097-.664-.952-1.143-1.415-1.584.493-.433 1.218-.915 1.382-1.572-.094-.68-.732-1.143-1.208-1.592l.088-.11c.41-.504 1.169-.977 1.433-1.542-.133-.681-.763-1.059-1.28-1.474l1.611-1.656c-.478-.53-1.034-1.745-1.577-2.05m20.094 11.616-.909 1.299c-.49-.156-.976-.368-1.496-.302-.275.17-.41.262-.51.582-.155.504-.192 1.062-.314 1.578-.611-.236-1.215-.482-1.847-.655-.111.612-.156 1.314-.52 1.83-.296.149-.448.19-.774.08-.45-.15-.904-.415-1.33-.626q-.275 1.134-.526 2.274c-.516-.35-1.224-.967-1.88-.892-.193.023-.22.125-.338.263-.073.484-.019 1.175-.35 1.546-.767.188-1.363-.33-1.997-.712-.207.778-.36 1.516-.442 2.317-.526-.326-1.139-.839-1.773-.847-.541.418-.639 1.277-.8 1.92-.47-.276-1.017-.697-1.57-.725-.579.284-.664.751-.88 1.332l-1.31.814c3.83 2.424 8.178 4.448 12.359 6.187q3.251 1.384 6.6 2.512t6.775 1.992c.004-.763.029-1.533-.012-2.295l-1.232-.504c.357-.665.781-1.367.656-2.152-.5-.69-1.502-.304-1.533-1.268.26-.529.894-1.1.953-1.67-.277-.48-.552-.545-1.064-.68-.35-.094-.713-.126-.972-.4.001-.939 1.275-1.425.885-2.313-.535-.411-1.176-.417-1.747-.742-.032-.912 1.563-1.759.852-2.454-.456-.447-1.25-.321-1.567-.903.231-.974 1.427-.951 1.021-2.159-.455-.423-1.269-.578-1.856-.785.453-.577 1.05-1.147.954-1.946-.066-.533-.84-1.192-1.306-1.42-.064-.03-.133-.05-.2-.076m69.756-.024c-.193.652-.096 1.305-.045 1.974-.459.229-1.138.484-1.322 1.005-.055.159-.01.304.078.446.3.487.69.747.922 1.31-.022.182.012.274-.137.405-.512.452-1.566.401-1.714 1.148.285.608 1.218 1.207 1.089 1.902-.644.488-1.624.061-1.944.942.216.808 1.283.916 1.074 1.871-.625.626-1.794.023-1.929 1.13.244.587.899.934 1.038 1.531-.157.305-.256.392-.594.492-.463.138-.901.121-1.282.465-.1.314-.13.44.046.734.26.434.686.697.764 1.233-.401.707-1.645.316-1.917 1.234.262.552.9 1.014.668 1.638-.147.395-.445.694-.72 1.005-.362.409-.373.852-.42 1.371q3.62-.876 7.159-2.034 3.54-1.158 6.977-2.59c4.27-1.78 8.633-3.81 12.572-6.249-.542-.548-1.098-1.083-1.56-1.702-.491.232-1.107.605-1.66.408-.498-.73.154-1.308-.777-1.932-.792-.035-1.328 1.086-2.062.739-.148-.583-.129-1.207-.47-1.717-.374-.15-.574-.106-.942.057-.385.17-.866.504-1.291.47-.521-.614.001-2.009-.883-2.203-.584.245-1.143.708-1.776.748-.27-.207-.268-.37-.316-.692-.066-.441-.034-.82-.297-1.204-.277-.118-.431-.178-.72-.035-.447.222-.776.584-1.302.614-.243-.124-.307-.117-.38-.398-.147-.57.034-1.168-.252-1.71-.29-.143-.414-.154-.724-.037-.486.184-.893.583-1.436.544-.256-.219-.33-.298-.333-.645-.002-.41.137-.756-.09-1.13-.661-.486-1.127.013-1.756-.201-.512-.174-.653-.761-1.337-.937m-46.018 5.916-.737.88c-.513.135-1.034.258-1.539.42.166.552.364 1.072.329 1.655l-.18.203c-.669-.007-1.31-.073-1.969.072-.226.497.273 2.018-.122 2.163-.659.242-1.775-.519-2.189.15-.06.723.112 1.444.24 2.153-.747-.193-1.491-.41-2.257-.512 0 .79.018 1.563.09 2.35-.672-.159-1.375-.396-2.068-.321l-.214.167c-.067.569.209 1.515-.016 1.983-.391.165-.593.106-.984-.049-.353-.14-.633-.319-1.026-.268-.246.28-.292.492-.269.867.036.579.115 1.157.16 1.736l-2.141-.604c-.023.752-.013 1.524-.083 2.273q-.586.549-1.18 1.088c3.25.88 6.519 1.536 9.842 2.077 1.22.2 2.524.469 3.76.53 2.819.389 10.83 1.256 13.364.775l.113-.113c-.167-.636-.752-1.124-1.216-1.555.236-.703.534-1.34.228-2.071-.698-.573-1.708.16-2.124-.631-.013-.748.758-1.601.28-2.235-.65-.138-1.412.064-2.004-.209-.13-.247-.174-.34-.078-.633.2-.608.732-.93.633-1.64-.204-.282-.23-.375-.606-.403-.5-.035-.898.145-1.394-.064-.11-.148-.213-.208-.197-.405.067-.803.784-1.22.492-2.105-.66-.426-1.79.378-2.12-.486.155-.714.865-1.357.432-2.046-.651-.303-1.46-.01-2.031-.394-.065-.336-.043-.46.139-.754.282-.457.686-.773.808-1.318-.126-.34-.257-.413-.58-.575-.35-.175-.734-.308-1.098-.452-.059-.541-.037-1.325-.488-1.7m22.514.212c-.198.607-.136 1.166-.092 1.79-.663.205-1.469.403-1.911.977-.052.26-.072.293.077.529.27.43.66.635.762 1.165-.04.173-.021.345-.192.439-.58.318-1.31-.062-1.9.37-.093.66 1.05 1.897.746 2.157-.653.56-1.901.024-2.35.9.001.778 1.126 1.216.633 1.979-.723.24-1.839-.193-2.201.529.065.84.919 1.385.452 2.197-.686.409-1.416-.373-1.916.488-.005.686.466 1.325.363 1.974-.353.342-.669.332-1.145.364-.444.03-.698.059-1.007.408-.13.145-.13.221-.103.408.092.635.625 1.112.596 1.79-.37.349-1.4-.096-1.33.612.012.125.129.344.175.45 2.832.452 10.596-.432 13.697-.874 4.06-.64 9.372-1.252 13.141-2.707-.654-.346-1.406-.627-1.667-1.383-.168-.484-.082-.983-.018-1.478-.197-.259-.319-.313-.647-.35-.617-.072-1.34.142-1.96.196.081-.614.317-1.555.167-2.14-.298-.194-.432-.293-.794-.231-.496.085-.919.386-1.438.279-.238-.201-.322-.238-.32-.579.006-.549.474-1.212.255-1.737-.328-.214-.491-.277-.882-.19-.482.108-.972.331-1.463.19-.183-.228-.238-.34-.199-.64.064-.492.372-.981.204-1.456-.384-.237-.565-.225-1.004-.127-.43.096-.778.225-1.225.142-.294-.222-.297-.219-.385-.576.158-.495.469-.982.407-1.494-.228-.226-.302-.34-.647-.35-.589-.019-1.122.471-1.724.269-.111-.124-.267-.216-.257-.396.037-.672.823-1.04.242-1.764-.341-.425-1.072-.485-1.576-.648-.279-.534-.523-1.236-1.157-1.409-.086-.023-.314-.058-.407-.073"/><path d="M113.991 203.11c-.373-.032-.7-.052-1.049-.2.155-1.183.664-2.471 1.098-3.58.173.49 1.037 3.362.86 3.788zm32.897.054c-.466.013-.928.046-1.388-.04.184-1.158.72-2.405 1.076-3.53.488.557.694 1.874.882 2.601.071.275.253.676.11.918z"/></svg>