<svg xmlns="http://www.w3.org/2000/svg" viewBox="0 0 256 256"><path d="M120.432 0h15.295l.124.02c2.5.383 5.108.397 7.632.658q7.724.778 15.323 2.364 5.76 1.198 11.43 2.765c5.531 1.511 11.076 3.186 16.749 4.084q6.16.925 12.373 1.37c5.33.332 11.08.105 16.205 1.732q.405.132.804.279.4.147.793.31.393.162.78.34.386.177.766.37.38.192.751.4.372.206.736.428.363.22.718.456.354.235.7.484.345.249.68.51.335.263.66.538.325.274.64.561.313.288.616.587t.594.61q.29.31.569.632.279.321.544.654.267.332.52.674c4.108 5.513 3.79 10.413 6.069 16.3.82 2.12 1.91 4.127 2.836 6.201q1.706 3.909 2.961 7.985c4.04 13.014 6.432 28.308 8.35 41.83q3.868 28.227 6.565 56.591 1.07 11.133 1.95 22.283l.453 6.18c.087 1.19.077 2.584.382 3.733v7.15c-.29 1.643-.42 3.327-.637 4.982q-.438 3.155-1.155 6.26c-1.583 6.79-4.21 12.882-7.337 19.085-1.33 2.638-2.665 5.33-4.427 7.713-1.752 2.368-4.066 4.651-6.479 6.354-4.132 2.915-8.799 4.348-13.51 6.004-3.322 1.168-6.587 2.545-9.989 3.475-5.506 1.507-11.674 1.815-17.36 1.823-3.84.005-7.703-.266-11.538-.131-2.526.089-5.063.414-7.552.84-9.28 1.583-18.898 5.271-28.126 7.641-3.323.855-6.724 1.657-10.115 2.183-1.798.277-3.79.264-5.543.692h-7.828c-1.581-.385-3.352-.35-4.974-.615q-5.757-.95-11.385-2.49c-2.367-.65-4.746-1.3-7.071-2.083-5.913-1.989-11.943-4.394-18.107-5.452-6.385-1.096-12.844-.691-19.286-.651-6.948.043-13.908-.403-20.634-2.26-3.17-.874-6.282-2.09-9.383-3.186-5.059-1.79-10.04-3.502-14.37-6.79-4.971-3.774-8.002-8.923-10.738-14.395-3.47-6.94-5.922-13.926-7.277-21.573q-.567-3.264-.813-6.568c-.113-1.48-.142-2.993-.348-4.464L0 185.35v-7.666c.287-1.142.315-2.478.426-3.651l.621-6.678q.995-11.762 2.185-23.506 2.272-21.972 5.13-43.876 2.08-16.484 5.455-32.752c1-4.67 2.055-9.395 3.437-13.968 1.075-3.555 2.296-7.137 3.748-10.557.782-1.842 1.79-3.59 2.516-5.455.627-1.61.997-3.297 1.386-4.976.983-4.238 2.111-8.014 4.772-11.559q.262-.343.537-.676t.563-.655.588-.633.612-.609.635-.585.658-.56.678-.533.7-.507.718-.48.736-.45.754-.422q.38-.204.77-.392.388-.189.783-.362.396-.174.798-.331t.81-.3q.407-.142.82-.268c4.34-1.342 8.898-1.03 13.377-1.236q5.653-.281 11.244-1.16c11.326-1.809 22.205-5.44 33.409-7.762 4.798-.994 9.734-1.7 14.61-2.192 2.265-.229 4.578-.24 6.828-.572zm3.686 4.321q-3.564.077-7.12.333t-7.096.69-7.051 1.047-6.99 1.4C86.198 9.99 76.692 13 66.9 14.588q-5.938.979-11.944 1.345c-3.88.21-8.087-.165-11.861.834q-.62.168-1.228.377t-1.2.459-1.166.539-1.126.616q-.553.328-1.083.692t-1.032.764-.98.831q-.474.432-.92.896c-4.378 4.643-4.58 10.26-6.521 15.96-.9 2.64-2.275 5.035-3.328 7.603-1.686 4.117-2.99 8.462-4.108 12.767-3.086 11.872-5.046 24.024-6.799 36.15q-1.604 10.64-2.907 21.32-1.458 12.617-2.752 25.253c-.815 7.471-1.419 14.948-2.139 22.427-.724 7.514-1.687 15.03-1.413 22.589q.054 1.418.165 2.833.112 1.414.28 2.823t.393 2.81.506 2.792.617 2.77.729 2.742.838 2.71.947 2.675c1.072 2.776 2.38 5.47 3.68 8.144 2.003 4.12 4.124 8.167 7.53 11.33 3.84 3.565 8.85 5.312 13.688 7.055 3.79 1.365 7.604 2.866 11.498 3.89 4.573 1.202 9.44 1.688 14.16 1.773 8.774.158 15.904-.81 24.704.941 3.956.787 7.796 2.129 11.627 3.364 11.419 3.68 22.843 7.73 35.014 7.202l.387-.02c8.911-.725 17.626-3.208 26.145-5.822 5.844-1.793 11.607-3.674 17.607-4.911 6.092-1.256 11.75-.977 17.919-.987 5.858-.009 12.037-.06 17.755-1.436 4.25-1.023 8.38-2.69 12.487-4.174 5.648-2.04 10.726-4.121 14.717-8.855 2.571-3.05 4.199-6.783 5.992-10.317 4.676-9.22 7.73-19.33 7.727-29.75 0-4.004-.475-8.064-.778-12.058q-.672-9.137-1.458-18.266-2.63-29.422-6.495-58.709c-1.992-14.24-4.19-28.766-8.245-42.588-.892-3.038-1.871-6.16-3.164-9.054-.997-2.233-2.258-4.377-3.068-6.69-2.493-7.106-1.938-12.658-8.422-18.032-2.178-1.805-4.642-2.895-7.401-3.48-3.982-.845-8.375-.75-12.433-.986-4.875-.283-9.84-.842-14.645-1.693-5.784-1.024-11.411-2.741-17.077-4.26-6.408-1.72-12.932-3.22-19.505-4.144-8.087-1.138-16.54-1.747-24.696-1.312"/><path d="M129.439 250.245c-8.672.148-18.49-2.34-26.684-5.108-5.767-1.947-11.629-4.196-17.605-5.4q-2.691-.547-5.42-.864-2.727-.316-5.472-.4c-7.771-.218-15.397.563-23.152-.53-5.65-.798-10.703-2.879-16.057-4.702-4.816-1.64-10.043-3.385-13.835-6.918-3.458-3.221-5.589-7.346-7.574-11.558-.97-2.055-1.976-4.105-2.813-6.218-3.1-7.82-4.52-16.148-4.777-24.525-.139-4.516.42-8.936.805-13.425l1.811-19.938q2.546-27.725 6.512-55.283c1.638-11.281 3.31-22.583 6.104-33.648 1.308-5.184 2.76-10.333 4.723-15.312 1.067-2.707 2.557-5.202 3.511-7.971 1.88-5.458 1.886-10.739 6.087-15.16 2.196-2.311 4.799-3.968 7.896-4.788 3.636-.963 7.695-.57 11.438-.768q6.205-.378 12.337-1.403c9.365-1.53 18.338-4.363 27.557-6.491 10.491-2.423 20.957-3.594 31.714-3.899 2.246-.069 4.499.04 6.743.12q4.101.156 8.187.535 4.086.38 8.145.982 4.06.602 8.08 1.426 4.02.823 7.99 1.865c6.675 1.697 13.32 3.89 20.123 5.01 5.14.848 10.426 1.317 15.625 1.67 3.702.253 7.656.195 11.271 1.076 2.583.63 4.885 1.897 6.859 3.668 5.084 4.56 4.892 10.359 6.978 16.308.865 2.464 2.182 4.724 3.222 7.111 1.593 3.656 2.787 7.514 3.854 11.35 2.4 8.627 4.05 17.553 5.5 26.382q3.651 23.096 5.854 46.374 2.372 21.087 3.941 42.25c.288 3.823.72 7.654.916 11.482.4 7.866-1.716 17.677-4.68 24.946-1.067 2.616-2.415 5.112-3.673 7.64-1.602 3.221-3.062 6.392-5.514 9.085-3.894 4.275-8.733 5.986-14.02 7.85-4.916 1.733-9.757 3.834-14.935 4.666-11.143 1.791-22.48-.356-33.837 1.984-4.287.884-8.537 2.3-12.72 3.587-10.06 3.095-20.437 6.43-31.015 6.942m55.312-217.09.19.161.072.261.111.148-.111-.148-.072-.26zm-16.095 1.72.219.125.144.126-.144-.126zm8.87 1.25.057.072c.548 1.313 2.384 3.319 3.282 4.665.279.105.518-.038.798-.122l.07-.146c-.323-.855-3.327-3.73-4.15-4.397zm-7.057 2.118c-1.331-1.084-6.875-4.09-7.543-5.228.121-.07.157-.1.31-.141 3.76-1.022 9.246 1.74 12.439 3.553l.05.05-.05-.05c-1.07-2.13-2.56-3.764-3.1-6.157 6.939 3.462 11.578 9.516 15.613 15.913-1.246-4.129-3.013-8.088-4.622-12.086-1.098-2.729-2.216-5.395-2.709-8.315 3.82 2.83 6.406 6.588 8.49 10.809.207-2.496.712-9.402 1.895-11.267l.158-.02c.643.966.996 2.204 1.378 3.298 1.534 4.39 2.405 8.754 1.498 13.397-.215 1.1-.578 2.15-.829 3.237 3.454-5.289 8.441-11.988 14.976-13.29a17 17 0 0 1 1.753-.258c-1.857 3.741-5.215 7.467-7.884 10.71q-1.953 2.41-3.84 4.872c-1.352 1.735-2.843 3.56-3.79 5.554 1.903-1.768 3.506-3.834 5.365-5.648 4.498-4.39 10.838-7.34 17.211-7.083.84.034 1.575.158 2.379.399l.172.05c-1.155.742-2.391 1.334-3.57 2.036-1.9 1.133-3.71 2.428-5.572 3.624-1.587 1.018-3.267 1.96-4.798 3.055 4.8-.873 8.516-1.383 13.207.43 1.296.502 2.623 1.123 3.772 1.91.267.182.52.381.776.58-6.965.275-15.218 1.777-21.21 5.44-.638.39-1.399.783-1.953 1.279l-.065.073.065-.073q.052-.002.105-.008c1.74-.162 4.34-1.373 6.26-1.761 7.958-1.606 14.203 2.058 20.181 6.866q.496.393.946.84c-3.387-.473-6.787-.838-10.18-1.262-4.592-.574-8.305-1.368-12.998-.712 4.043.545 7.709 2.49 10.206 5.773 1.376 1.808 2.588 4.041 3.086 6.27-1.864-1.245-3.818-2.432-5.874-3.333-2.225-.974-4.623-1.562-6.956-2.216-2.478-.696-4.954-1.421-7.448-2.053.8 1.98.921 3.814.075 5.813-.194.455-.445.888-.689 1.318.146 1.557.809 3.038 1.154 4.56.786 3.46 1.477 6.97 2.147 10.456 1.833 9.545 3.065 19.216 4.979 28.738 4.736.426 10.746 1.669 15.265 3.181 2.66-2.718 6.595-5.285 10.53-5.349 2.63-.042 7.427 2.157 9.912 3.255q-.972-9.114-2.109-18.209-1.57-11.331-3.599-22.59c-1.482-8.273-3.091-16.55-5.603-24.585-.725-2.32-1.488-4.653-2.472-6.878-1.23-2.779-2.677-5.398-3.7-8.275-1.922-5.401-1.537-10.723-6.495-14.677-5.233-4.174-12.661-3.476-18.977-3.83q-4.742-.26-9.431-1.012-6.721-1.084-13.297-2.846c-4.413-1.162-8.781-2.5-13.219-3.571q-1.593-.385-3.196-.734-1.602-.35-3.211-.662-1.61-.312-3.226-.588-1.617-.276-3.239-.515-1.622-.24-3.249-.442t-3.258-.368q-1.632-.165-3.266-.294t-3.272-.22q-1.637-.091-3.276-.146t-3.279-.071q-1.639-.018-3.278.002t-3.279.077-3.275.151-3.272.226-3.266.3q-1.63.167-3.257.372c-9.282 1.102-18.361 3.497-27.41 5.765-4.67 1.17-9.335 2.385-14.081 3.217q-6.325 1.138-12.738 1.554c-3.753.227-7.782-.103-11.43.87-2.946.786-5.835 2.35-7.752 4.768-2.628 3.315-2.976 8.738-4.346 12.722-1.689 4.91-4.214 9.437-5.737 14.422-4.435 14.513-6.862 29.612-8.978 44.612q-2.333 16.254-3.882 32.603c10.72-5.48 25.485-7.562 37.449-8.871q1.708-15.979 4.466-31.81c.487-2.839.936-5.693 1.503-8.517.459-2.285 1.041-4.564 1.409-6.865-1.208-2.437-1.633-3.994-1.892-6.704-6.745-.519-13.531 3.93-18.605 7.992 1.317-4.598 4.18-9.295 8.476-11.676 2.018-1.119 4.272-1.441 6.52-1.784-4.028-.202-7.913.362-11.888.92-4.438.622-8.973 1.337-13.443 1.628 6.804-4.77 14.043-9.435 22.765-7.928 2.969.514 4.206 1.38 6.81 2.385l.113.06-.112-.06c-2.478-2.75-13.95-6.25-17.855-6.905-.87-.145-1.77-.279-2.652-.319-.921-.042-3.25.373-3.945-.142.458-.753 4.263-2.21 5.18-2.526 5.136-1.764 9.805-.34 14.516 1.953-1.4-1.273-3.056-2.363-4.605-3.446q-4.156-2.856-8.374-5.619c-.8-.517-1.733-.9-2.496-1.443-.259-.184-.316-.287-.442-.567l.086-.12c.224-.041.431-.069.66-.071 9.479-.105 14.78 3.723 21.301 10.011-.829-1.882-2.059-3.636-3.235-5.318-3.172-4.539-6.87-8.66-10.131-13.117 6.51 1.803 12.92 6.7 16.899 12.082-.008-5.77-.85-10.586 1.521-16.23.174-.415.334-.706.758-.878l.285.146c1.13 1.49 1.744 6.001 1.794 7.826.035 1.315-.12 2.62-.264 3.924.67-1.154 1.128-2.456 1.684-3.669.943-2.056 2.3-4.102 3.78-5.81.631-.728 2.118-2.565 3.128-2.642l.175.163c.259 1.768-4.04 11.62-5.074 13.703-.668 1.345-1.634 2.613-2.182 4l-.05.132 2.117.14c.345-.861.434-1.912.86-2.706 2.198-4.094 8.815-10.026 13.207-11.495-1.094 1.693-3.03 4.03-3.745 5.769.273.062.39.06.666-.036.716-.247 1.381-.72 2.086-1.023 3.017-1.293 6.875-2.654 10.17-1.949-1.738 1.933-4.278 3.318-6.541 4.549l-.214.06-.034.156.192-.06.056-.156c3.165-.685 6.038-1.349 9.31-1.07.448.038 1.107.05 1.509.258.12.062.159.117.242.21-.111.413-.375.555-.737.763-1.608.925-3.585 1.65-5.351 2.193-.996.306-2.046.526-3.006.933 4.093.087 7.947.335 11.869 1.623-2.671 1.846-9.05 2.397-12.526 3.916 2.279.436 4.347 1.146 6.49 2.03-3.061 1.114-6.179 2.092-9.222 3.246-2.885 1.093-5.689 2.354-8.542 3.517-2.275.927-4.65 1.586-6.74 2.919-1.176.75-2.118 1.811-3.015 2.864 2.321-1.437 4.652-2.533 7.264-3.345 3.751-1.165 11.692-2.185 15.685-2.026 1.248.05 2.463.287 3.676.574 3.184.755 7.501 1.975 10.507 3.206-4.866 1.194-8.435 1.78-13.463 1.233l-.222-.066.222.066.117.035c1.305.38 2.696.508 4.023.82 4.966 1.17 12.752 3.218 15.862 7.482-4.008-.45-7.907-1.68-11.76-2.828-1.312-.39-2.643-.854-3.975-1.159l-.319-.13-.162-.06.162.06.319.13.11.058c.906.471 1.874.809 2.793 1.26 2.382 1.172 4.832 2.794 6.765 4.616-4.41.022-10.15-3.31-14.422-4.75-2.745-.927-5.693-1.374-8.567-1.695 4.038 1.311 9.1 3.097 12.113 6.233-5.47-1.204-10.37-4.162-15.812-5.43l.119.07c3.614 2.053 7.793 2.367 9.864 6.77-4.694-.316-13.225-2.936-17.817-4.62-.08 2.188-.098 4.752-1.834 6.358-.642.595-1.456.957-2.262 1.275-.855 6.334-1.252 12.748-1.648 19.125q-.665 11.822-1.548 23.63c5.927-1.725 11.784-3.068 17.913-3.859.943-4.801 1.491-9.693 2.2-14.535.26-1.783.453-3.641.841-5.4 1.794-.099 3.59-.224 5.388-.216-.085 1.064-.54 3.53.255 4.365a.74.74 0 0 0 .516.214c.311.007.574-.148.764-.383.734-.909.524-3.662.576-4.865q2.022-.183 4.039-.41c-.28 1.385-1.087 3.86-.49 5.176.303.277.553.541 1 .499.24-.023.465-.212.606-.402 1.199-1.601.779-4.577 1.032-6.513 4.28-.576 8.189-.657 12.47-.317.929.074 2.001.053 2.849.455.787 1.09-.37 5.184.372 5.864.069.063.324.133.42.151 1.602.308 5.212-.593 6.927-.901l.047-2.602c1.183-.01 2.37-.002 3.552-.043l.022-2.599c2.316-.18 4.71-.488 7.03-.47 1.587.013 3.262.372 4.845.554 2.242.257 4.563.393 6.785.761.506.084.976.207 1.44.431.508.84.539 3.281.656 4.341q.63 5.56 1.163 11.13c.166 1.806.175 3.701.45 5.49.05.336.028.73.409.825.309.078.732-.022 1.022-.118.405-.718.556-17.859.684-20.299 1.262-.216 2.52-.43 3.792-.584l.165 1.31c4.487-1.725 8.116-1.602 12.799-1.312-.005-.478-.127-1.403.176-1.794.185-.24.388-.301.68-.32.541-.033 2.681.818 3.387.992l-.137 1.565q.676.159 1.362.265.685.107 1.377.16t1.386.053 1.386-.053c.02-.576-.045-1.333.218-1.85 1.195-.472 4.052-.117 5.382.027-.002.589-.128 1.449.343 1.888.678.632 2.798.154 3.707.106l.638-.956c1.002-.161 1.955-.094 2.963-.041.216 1.94.256 3.902.36 5.85l.55 10.598c.089 1.702.095 3.471.302 5.16 2.454.154 4.37-.614 6.626-1.474-1.02-6.904-1.41-13.9-2.112-20.844-.587-5.806-.865-12.386-3.424-17.71-1.724-.76-3.533-1.427-4.307-3.321-.517-1.263-.326-2.49.214-3.702l.076-.166c-6.25 1.263-12.379 3.261-18.661 4.341 2.478-2.686 5.698-3.603 8.894-5.096q-2.295.366-4.555.904-2.261.538-4.474 1.246c-1.028.329-3.425 1.4-4.418 1.288l-.133-.16c.432-.604 1.127-1.003 1.727-1.431 2.486-1.77 4.883-3.043 7.71-4.193-1.869.235-3.881.402-5.674.984-1.369.445-2.689 1.134-4.004 1.716-3.524 1.563-7.421 3.192-11.279 3.558 1.787-1.938 3.982-3.276 6.303-4.473.777-.4 1.67-.768 2.388-1.258l.147-.064-.147.064c-1.197.135-2.537.669-3.72.99-3.524.959-7.78 2.296-11.385 2.511 3.097-3.328 7.885-5.253 12.213-6.405 1.598-.425 3.233-.682 4.823-1.144-3.992-.411-8.162-.905-12.04-1.948q.34-.159.688-.3c4.388-1.799 14.523-3.817 19.156-3.702 1.252.032 2.56.283 3.75.661 2.675.85 5.207 2.759 7.87 3.871-2.272-1.812-4.82-3.988-6.356-6.463-1.643-.468-13.427-4.337-13.92-5.108.02-.038.037-.08.062-.115.757-1.047 5.462-2.187 6.827-2.407-4.147-1.196-8.52-.892-12.345-3.223 4.356-1.86 10.877-1.924 15.448-.7 2.406.645 4.626 1.657 7.126 1.96l.074.11c-.35.191-.636.127-1.013.096l-.085.114c1.183.532 2.173 1.192 3.295 1.801-.251-.429-.713-.769-1.08-1.1-.076-.334-.052-.699-.058-1.041-2.18-.838-6.114-2.35-8.265-2.802-.837-.176-1.709.121-2.556.014-3.783-.479-7.957-1.977-11.14-4.036 4.43-1.09 8.64-.206 12.873 1.161m32.818-.807c-.7.39-1.577 1.215-1.769 2.017-.019.077-.032.156-.049.234.572-.482 1.524-1.571 1.818-2.251l.062-.05zm-148.322 2.23c-.262.112-.437.188-.63.399.56.913 1.382 1.764 2.15 2.512 1.43 1.882 2.621 3.978 3.839 6 .692 1.151 1.46 2.866 2.455 3.734l.065.063-.065-.063c-.214-2.215-2.703-7.667-4.29-9.264-.564-.567-1.267-.468-2.003-.47.252-.3.582-.523.89-.76-.732-.806-1.463-1.598-2.411-2.151m157.46 3.308q-.473.13-.94.278-.469.146-.931.309-.463.162-.92.34-.456.179-.906.372-.45.194-.894.403t-.88.433-.864.462q-.428.24-.848.492-.42.254-.83.521-.412.267-.813.549-.402.281-.793.576-.392.294-.774.602-.381.309-.752.63-.37.32-.73.653-.36.334-.707.679-.348.345-.684.702c-.725.78-1.479 1.553-2.007 2.486-.34.602-.67 1.296-.62 2.003l.11-.093c1.232-1.05 2.017-2.599 3.239-3.667 1.107-.967 2.306-1.854 3.45-2.779 1.092-.883 2.156-1.848 3.337-2.612 1.863-1.209 3.886-2.157 5.757-3.339l.074-.073zM65.967 44.071l-.071.032zc.212-.23.325-.359.632-.441.218-.059.355-.114.544-.245l.033-.585c-.079.002-.159-.007-.236.006-.495.086-.795.867-.972 1.265M177.5 48.906l.058.071c1.024.815 2.024.875 2.85 2.032.546.163 1.068.31 1.636.38-1.225-.948-2.905-2.328-4.486-2.412zm-.12 5.374.076.052c.585.521 1.288.973 1.918 1.443.527-.008 1.057.027 1.584.047-.611-.608-2.666-1.389-3.502-1.49zM73.498 66.152c.552.4 8.322 2.874 9.438 3.123l.063.069-.063-.069c-1.92-1.63-6.897-2.791-9.438-3.123m127.034-.927c2.67.949 5.528 1.413 8.185 2.398 1.688.626 3.123 1.587 4.727 2.355l.12.057.046.068-.045-.068a4 4 0 0 0-.606-.73c-2.864-2.735-8.513-4.168-12.427-4.08m-1.461 63.312-.06.058zc2.415-.569 4.267-2.23 6.001-3.926l-.51-3.901-.075-.11c-.108.053-4.794 7.097-5.416 7.937m.887 29.634-.062.048zc2.725-.755 6.646-2.698 8.258-5.073q-.061-1.806-.226-3.606l-.129-.04c-.887.856-2.049 2.6-2.99 3.631-1.479 1.621-3.707 3.373-4.913 5.088m-96.267 3.725-.06.073zc1.11-.169 9.73-1.918 10.362-2.239a7 7 0 0 0-.52-.048c-3.149-.174-7.346.052-9.842 2.287m60.467 64.271c-2.83.426-6.69-.134-9.148-1.665 1.246-.287 2.52-.457 3.759-.756-4.619-.418-9.265-.189-13.895-.365 1.56.407 3.137.793 4.619 1.439-2.149.091-4.345.056-6.48.303-1.442.166-2.81.569-4.231.813-2.792.48-5.91-.085-8.318-1.559 1.169-.222 2.44-.369 3.56-.767-2.463-.197-4.955-.129-7.424-.125-1.939.002-3.929-.075-5.861.094.963.131 3.352.318 4.018 1.08-.204.261-.49.25-.813.285-1.78.198-3.622.047-5.422.224-1.327.13-2.589.59-3.901.792-2.433.377-6.448-.016-8.38-1.68q1.656-.35 3.306-.727c-2.509-.154-5.039-.098-7.552-.117-1.937-.014-3.894-.123-5.829-.062 1.583.321 3.17.675 4.65 1.334-2.245.409-4.5.286-6.76.482-1.472.127-2.882.575-4.339.773-2.434.33-5.644-.19-7.698-1.591l3.653-.79c-4.685-.288-9.46.242-14.118-.23 1.453.454 2.847.823 4.26 1.403-2.193.25-4.415.143-6.615.31-3.943.3-4.896 1.684-9.23.393-.534-.159-1.39-.339-1.811-.712-.143-.128-.132-.126-.22-.262.12-.257.196-.262.454-.362 1.007-.39 2.226-.448 3.282-.71-3.187-.129-6.396.001-9.586-.01-2.012-.007-4.052-.183-6.059-.076l.157.056c1.147.393 3.323.292 4.19 1.232-.245.278-.683.286-1.046.31-1.447.1-2.922-.016-4.362.165l-.182.016c-1.361.13-2.664.543-4.012.741-2.08.306-5.263.076-6.961-1.267q-.145-.114-.285-.234 1.775-.443 3.569-.8c-2.157-.19-4.349-.111-6.513-.108q-4.337.048-8.67-.143c1.256.295 2.946.598 3.86 1.57l-.086.126c-.76.047-1.516-.087-2.268-.186 1.205.94 2.465 2.051 3.859 2.696 1.874.867 6.753.851 8.83.603 2.888-.344 5.207-2.413 8.12-2.549 3.044-.142 5.424 1.175 8.204 2.038 1.636.508 3.425.736 5.133.781 1.935.05 3.752-.302 5.555-.998 1.851-.716 3.73-1.81 5.756-1.847 2.97-.055 5.458 1.276 8.214 2.113q1.084.327 2.2.51 1.118.183 2.249.219c1.943.072 3.875-.115 5.707-.799 1.867-.696 3.69-1.869 5.728-1.934 4.215-.133 7.768 2.547 11.96 2.743 2.296.107 4.611-.035 6.795-.805 1.95-.688 3.579-1.767 5.715-1.829 4.246-.121 7.817 2.3 11.999 2.627 2.632.206 5.14-.238 7.588-1.215 1.424-.568 2.782-1.294 4.345-1.38 1.594-.09 3.215.27 4.748.67 5.743 1.498 8.561 2.794 14.583.941 1.01-.31 2.627-.632 3.45-1.222 5.59-1.252 10.822 2.19 16.416 2.223 2.109.012 4.117-.356 6.108-1.045 1.65-.571 3.299-1.317 5.058-1.446 4.286-.312 8.67 2.031 13.055 2.306 2.106.132 4.405.031 6.416-.66 1.761-.604 3.417-1.498 5.308-1.616 3.39-.211 7.059 1.172 10.282 2.133 2.158-.727 4.015-1.938 5.823-3.294-1.062-.305-2.078-1.052-3.134-1.189l-.232-.025c-2.587-.303-6.47-.133-9.139-.007 1.455.3 3.206.652 4.518 1.34l-.02.152c-2.099.263-4.298.164-6.421.348-1.53.132-2.996.532-4.511.726-2.685.345-5.68-.242-7.973-1.687 1.4-.104 2.954-.359 4.303-.754-1.972.055-3.929-.126-5.9-.167-2.915-.06-5.841-.012-8.758-.008 1.26.31 2.828.543 3.941 1.21l.02.15c-1.904.465-4.167.18-6.138.417-1.653.198-3.154.78-4.772 1.06-2.637.455-6.057-.507-8.209-2.05 1.401.004 2.625-.224 3.98-.572-4.822-.334-9.655-.147-14.483-.383 1.495.415 2.997.755 4.442 1.326-2.96.583-7.445-.067-9.98 1.512m-65.85 3.498c.323.248.48.21.878.234 1.114.721 4.613.764 5.921.687-1.165-.484-4.579-.69-5.92-.687-.364-.184-.46-.254-.879-.234m93.305-198.841c-.156 1.067-.559 3.22-.118 4.197.091.017.212.054.304.05.501-.624.447-1.082.362-1.858-.083-.766-.236-1.683-.548-2.389M70.766 33.952c-.16.233-.439.493-.388.773l.07.054c.2-.252.423-.417.432-.745zm18.265.6c-3.167.581-6.832 2.125-9.494 3.925-.348.235-.95.538-1.168.888-.019.03-.03.066-.046.1l.208.081c1.946-.728 3.82-1.736 5.704-2.612 1.628-.758 3.256-1.361 4.819-2.265zm-9.637.505.026.11zm106.296-.245c.241.699.56 2.148 1.24 2.539l.383-.006c-.18-.721-.843-2.093-1.49-2.476-.042-.024-.089-.038-.133-.057m-115.244.659c-1.347 1.004-3.559 4.595-3.781 6.255-.037.272-.007.303.147.511l.14.045c.984-.635 1.503-1.771 1.724-2.904.084-.43.032-.88.153-1.308.217-.765 1.126-1.651 1.636-2.29.14-.175.119-.072-.019-.31m99.106.012c1.09 1.03 2.573 1.591 3.817 2.417 1.317.875 5.232 4.21 6.673 4.138.03-.002.057-.017.086-.025-2.183-2.615-5.453-4.492-8.538-5.829-.528-.229-1.198-.62-1.768-.681q-.135-.013-.27-.02m22.463.098c-.958 1.05-.85 3.453-.769 4.818.016.265 0 .363.173.575l.298-.017.071-.151c.116-.264.06-.123.117-.39.08-.386.342-.641.609-.912.008-1.148.173-2.757-.256-3.822zm-113.285.291c-.723.606-2.653 2.164-3.044 2.959-.171.346.014.572-.293.909l-.246-.309c-.596.334-4.224 4.435-4.588 5.11l.003.08c.475.134.73.267 1.216.15.355-.403.596-.871.939-1.284 1.508-1.818 3.017-3.6 4.418-5.504.35-.475.885-.774 1.243-1.246.198-.263.35-.451.433-.772zm-14.228.46c.024 2.152.52 4.275.322 6.43-.114 1.255-.73 3.182-.156 4.363l.179-.074.097-.455.015-.124c.17-1.259.997-3.069.95-4.308q-.037-.046-.072-.094c-.725-1.035-.862-4.334-1.335-5.739m5.186 1.538.093.068zm117.68-.189-.284.29c.025.967 1.935 5.985 2.457 7.068.392-.578-.055-2.526-.186-3.209-.207-1.081-.82-3.33-1.735-4.027-.078-.06-.162-.086-.252-.122m-134.393.478.097.255.211-.077-.15-.222zm113.027.013-.206.126.31-.074.202-.121zm.725.098c1.139.253 2.268.63 3.434.712-.67-.694-1.913-.718-2.829-.735-.206-.004-.4 0-.605.023m-76.385.094q-.05.027-.1.051c-.684.328-1.625.027-2.098.654l.073.244c.293.091.47.032.76-.034l.174-.142.106.145c.531-.167 1.164-.383 1.468-.876zm79.497.003c.545.347 1.219.765 1.886.762-.612-.426-1.124-.75-1.886-.762m-116.443.24c.13.402.261.783.681.973.178.08.34.074.529.067-.289-.578-.611-.814-1.21-1.04m34.551.001c-.218.224-.448.467-.75.572-.689.241-1.497.303-2.211.487a27 27 0 0 0-5.25 1.97l.072.113c1.812-.141 6.912-1.358 8.135-2.477a1.45 1.45 0 0 0 .004-.665m112.899 1.114c-1.5 1.729-7.089 7.757-6.766 9.84.005.034.02.066.03.1 1.2-1.372 2.232-2.843 3.355-4.273 1-1.272 2.18-2.522 2.968-3.94.253-.456.439-1.051.428-1.576 0-.05-.01-.1-.015-.15m-8.501 1.414c-.383.178-.763.358-1.137.554-.227.845-.464 2.478-.06 3.242.436-.266.529-.394.65-.89.217-.894.285-1.937.637-2.78zm-11.105.384c.012.786 1.738 2.46 2.327 3.032.183.178.355.311.574.441a1.7 1.7 0 0 0 .472-.08c.11-.572-.528-1.396-.869-1.896-.347-.509-1.053-1.381-1.68-1.499-.264-.05-.557-.019-.824.002m-104.262.728c-.769.389-1.675.757-2.203 1.462-.026.247.018.322.077.549.019.07.037.229.047.307 1.036-.44 1.815-1.018 2.947-1.337l-1.153 1.021c.562-.101 1.775-.473 2.268-.29l-.07.142-.081.097c-.231.28-.46.587-.482.967-.005.074.018.148.027.222.244.129.275.136.553.042.714-.24 1.673-1.125 2.002-1.793.056-.114.054-.157.066-.269-.459-.373-1.344-.251-1.91-.191-.393.041-.785.104-1.175.166l.002-.074-.096.028a3.6 3.6 0 0 1 .44-.467c-.103-.275-.177-.367-.462-.506-.207-.1-.57-.088-.797-.076m8.105.432c-1.433.406-2.876.79-4.233 1.412a57 57 0 0 0 2.994-.404l.12.01c.254.023.103.006.359.053.635.118 1.63.029 2.23-.2.181-.267.242-.338.273-.654l-.194-.097c-.41.144-.847.368-1.278.225zm3.455.049.043.061.028-.022.076-.085zm1.717-.03c-.528.342-1.197.526-1.821.39q-.078-.016-.155-.036c-.504-.115-.615-.168-1.123-.01l-.154.246.155.25c.216.045.389.068.609.054.879-.093 2.491-.476 3.288-.27l.093-.097.167-.003-.14-.204q-.099-.01-.196-.024c-.317-.045-.484-.082-.723-.296m79.656.095c-2.063.386-5.464.213-7.677.217.715.232 3.205.619 3.914.6.205-.025.25-.064.437.036 1.245.661 1.924-.192 2.994.149-.002.073-.012.146-.006.219.007.082.03.163.044.243.447.11.893.019 1.346.007l1.322-.901c-.677-.217-1.656-.652-2.374-.57m-123.752.894h.152zm-.004.034q3.607 2.148 6.961 4.672c2.133 1.596 3.714 3.93 6.328 4.754-.843-1.188-3.001-3.358-4.132-4.287-1.635-1.345-7.11-4.826-9.008-5.125-.05-.008-.1-.01-.149-.014m127.788.883c-.488.437-1.005.862-1.449 1.344l1.995-.654c.613.377 1.207.655 1.876.918l.157-.1a16 16 0 0 1 1.834-.33c-1.409-.71-2.912-.755-4.413-1.178m-103.697.266.158.042zm-2.548-.055c-.205.388-.43.635-.38 1.078.172.113.306.175.504.229.2-.337.272-.466.243-.874-.12-.22-.152-.288-.367-.433m10.398.065c-.864.377-2.545.937-2.988 1.79.078.203.166.35.296.525.422-.234.834-.462 1.282-.644.526-.214 1.223-.56 1.45-1.126.07-.177.06-.199.067-.364zm106.72-.088-.19.4c.249.674.824 1.108 1.345 1.575-.056-.505-.37-1.464-.788-1.78-.159-.121-.2-.127-.367-.195m-110.878.387-.229.204.283-.065.203-.163zm10.55-.018c-1.925.312-3.633 1.144-5.427 1.862.273.314.392.535.793.664a3 3 0 0 0 .684-.363c.079-.092.486-.63.555-.647 1.688-.445 3.5-.515 5.144-1.03l.038-.312c-.183-.218-.24-.177-.512-.194-.421-.027-.853.004-1.274.02m-13.963.011c.125.438.257.87.405 1.3.237.116.124.109.333.07.076-.302.16-.404-.02-.68-.173-.267-.477-.484-.718-.69m110.446.44.12.041zm-106.84 1.605-.11.327c.27.119.397.099.686.086l.135-.269c-.213-.21-.421-.14-.71-.144m96.548.58c-1.303.142-2.643.13-3.931.348.719.1 1.432.192 2.156.25.879.126 2.209.485 3.054.134l.083-.206c-.178-.317-.225-.37-.534-.56-.275.007-.555.003-.828.034m-82.966.131c-.26.06-.506.114-.77.15-1.22.16-4.988 1.157-5.955 1.794.028.154-.01.105.063.172 1.365-.233 5.682-1.089 6.762-1.619l.034-.117-.18.063.206-.18-.025-.18zm84.415-.064c.346.522.592.718 1.211.839.703.137 1.533.006 2.207-.223l-.017-.23c-.646-.533-2.574-.434-3.401-.386m-99.246.305c-.282.317-.36.376-.44.807l.098.15c.1-.023.29-.05.379-.096.249-.213.554-.371.624-.697a1.5 1.5 0 0 0-.661-.164m3.972.296c-.382.331-1.061.825-1.166 1.334-.008.038-.005.077-.007.116l.106.11c.426-.4.892-.779 1.192-1.285-.06-.239 0-.158-.125-.275M44.087 50.51l-.15.006c-.171.005-.336 0-.506-.01.6.732 5.474 2.034 6.66 2.423l.32.08.027-.104c-1.337-.777-5.733-1.76-6.318-2.389zm166.078 1c-1.958.824-3.936.693-5.786 1.88 1.44-.452 2.899-.665 4.401-.797 2.202-.281 4.544-.371 6.703-.853-1.75-.3-3.544.004-5.318-.23m-137.083.143c-.414.13-.721.212-1.029.529-.085.219-.135.308-.109.546.415-.193.932-.382 1.109-.846.048-.126.038-.118.029-.23m-17.097 1.324c1.88 1.323 4.246 3.76 5.298 5.806.495.96.932 2.436 1.46 3.262.116.181.106.151.261.138-.009-1.986-.136-3.768-1.223-5.486-.466-.106-.945-.194-1.403-.326-.103-.401-.199-.803-.343-1.192-.301-.122-.565-.037-.839-.117-.95-.275-1.798-1.728-3.212-2.085m147.142 1.045c-.54.126-1.236.203-1.679.545.319.068.604.088.928.1a3.5 3.5 0 0 0 1.362-.404l.128-.173c-.238-.128-.473-.075-.74-.068m-2.713 1.097c-1.14.573-2.886 1.622-3.48 2.773l.032.218c.15-.051.224-.07.341-.18L201 55.496c-.163-.221-.345-.264-.588-.378m-6.116.246c-.632.313-1.162.639-1.417 1.332-.464 1.266.38 3.02.803 4.237.417-.411.616-1.053.849-1.585-.051-.35-.124-.728-.095-1.081.084-1.028.774-2.06-.14-2.903m-8.2.303c-.288.326-.519.556-.608.99.102.316.161.466.472.623.511.257 1.199.4 1.752.58l.213-.083c-.049-.558-.962-1.56-1.422-1.91a1.4 1.4 0 0 0-.407-.2m-6.096.552c1.122.934 2.3 1.814 3.293 2.889.397-.121.79-.253 1.2-.323l.093-.218c-.336-.82-.95-1.588-1.55-2.233-.815.015-1.603.03-2.413-.057-.208-.022-.416-.038-.623-.058m-89.426.944-.168.04c-1.248.276-2.97.002-4.08.544.126.24.24.242.492.314 1.314.377 2.879.234 4.243.302.681.046 3.413.08 3.817.196l.253-.082c-1.435-.92-2.68-1.131-4.382-.85-.179-.217.012-.331-.175-.464m78.149-.042c1.12.86 6.236 3.407 7.622 3.89.823.288 1.774.197 2.564.563-.02.21-.038.276-.125.457.323.227 5.032.706 5.661.73-1.763-1.454-4.727-1.502-6.916-2.106-.772-.213-1.471-.447-2.16-.87-.481-.296-1.209-1.113-1.756-1.14a10 10 0 0 0-.324.016c-1.029.048-3.06-1.391-4.566-1.54m-3.413.367-1.014.496c-.56-.05-1.169-.146-1.729-.115-.5.028-.967.326-1.458.423-.825.165-1.891-.093-2.614.31l.104-.084.094.07.216-.032c.363-.043.641.032.922.275.049.042.093.091.14.137.434-.019.784-.17 1.201-.261 1.3.723 3.787.015 5.216-.089.726-.053 1.476-.012 2.203.009-1.085-.353-2.188-.846-3.281-1.139m-83.546.303c-.656.137-2.038.29-2.539.673l.14.005c.391.018.62.039.964.245q.218.129.434.261c.993.088 2.166-.773 3.075-1.168-.688-.013-1.386-.052-2.074-.017m13.454.599c.528.268.924.377 1.519.34-.54-.244-.916-.399-1.519-.34m-17.083.257c-.7.24-2.393.429-2.748.976.129.21.252.335.441.492.606.21 1.323-.008 1.893-.268.293-.133.388-.2.564-.463a2 2 0 0 0-.106-.693zm106.842.435c-.302.17-.525.196-.625.541.337.657 1.174 1.07 1.676 1.644l.176.026c-.276-.58-.71-1.89-1.227-2.21m-105.62.227c-.166.296-.27.373-.212.714.421.231 1.096.117 1.57.101l.124-.247c-.371-.399-.962-.46-1.483-.568m108.155.004c-.214.726.19 1.617.521 2.259l.184.124.26-.257c.233-.31.62-.723.58-1.136-.03-.322-.137-.5-.398-.688-.316-.231-.77-.28-1.147-.303m20.776.062c-2.3 1.458-5.479 1.736-8.099 2.376 2.277.03 4.346-.49 6.581-.79 2.652-.356 5.954-.233 8.594.078 2.46.383 4.887.828 7.297 1.459-4.52-2.578-9.245-3.234-14.373-3.123m-161.365.198c-.957.068-1.937-.016-2.883.078-2.927.292-6.8 1.284-9.41 2.613 2.266-.245 4.453-.76 6.67-1.277 4.604-.571 8.598-.587 13.17.16-2.349-1.09-4.944-1.86-7.547-1.574m27.174.134-.962.464-.04.156c.218.19.412.347.664.494.375-.203.63-.343.878-.695l-.02-.24a1.1 1.1 0 0 0-.52-.179m8.91.518c1.071.364 2.147.844 3.29.648-.399-.474-1.454-.58-2.056-.621a17 17 0 0 0-1.235-.027m85.103.321-.11.122.15-.088.112-.117zm1.487-.066q-.398.05-.794.111l-.089.146c.326.174.579.244.935.316.388-.046.598-.03.918-.262-.274-.256-.597-.316-.97-.31m-87.762.034c-.38.137-.798.23-1.074.53.767.889 5.611 2.209 6.887 2.449l.596-.031.02-.116c-1.877-1.444-4.313-1.883-6.429-2.832m85.008.298h.216zm30.774.093-1.18.41c-.29.486-.779 1.122-.679 1.718.045.267.217.445.381.647.556-.096.858-.256 1.192-.722.375-.522.48-1.133.364-1.76-.043-.236-.015-.164-.078-.293m-122.543.336c-.28.235-.494.34-.602.694.574.018 1.046-.017 1.547.295.295.184.58.433.928.427l.417-.281c1.057-.03 2.196.01 3.238-.157l.699-.28c-.066-.217-.306-.367-.517-.456-.953-.4-1.653.578-2.641.329-.998-.252-2.033-.642-3.069-.571m-3.873.128c-.309.17-.64.307-.849.602.258.103.416.02.68-.036.314-.12.704-.206.913-.483-.273-.105-.454-.103-.744-.083m101.476.546c-1.518.136-2.878.853-4.366 1.095-1.225.2-2.483.037-3.728.28.96.218 1.957.619 2.885.145 2.65-.302 5.268-.729 7.94-.871-1.024-.525-1.548-.8-2.731-.649m-99.525.312c-.316.228-.942.55-1.064.907.311.119.588.063.909.026.37-.09.532-.134.812-.413l.086-.29c-.267-.261-.38-.209-.743-.23m18.636.136c3.198 1.183 6.672 2.44 10.065 2.872-1.984-.85-8.042-2.818-10.065-2.873m-26.171.467c-1.291 1.044-2.507 2.326-2.718 4.04-.042.343-.095.706.057 1.027.228-.105.158-.039.25-.143.851-.863 2.99-2.442 2.932-3.747-.016-.366-.135-.725-.267-1.063zm97.6.083c-2.834.318-5.65 1.24-8.319 2.208l-.067.11.197.033c2.755-.672 5.616-1.26 8.314-2.127l.074-.135zm28.066-.083c-.574.764-1.113 1.551-.989 2.551.113.911.758 1.623 1.367 2.26.375-.026.474.015.759-.245.37-1.154-.008-2.781-.562-3.852-.151-.291-.34-.49-.575-.714m-121.94.334c-.575.07-1.143.122-1.527.61-.028.036-.049.078-.073.116l.066.175c.143-.01.275-.01.412-.053.482-.209 1.333-.45 1.672-.84a2 2 0 0 0-.55-.008m-10.535.028c-.091 1.095-.132 2.192-.175 3.29.388-.34.739-.703 1.234-.873l.225.045.517.243.125-.117c-.168-.798-1.012-2.02-1.699-2.465-.113-.074-.122-.075-.227-.123m-4.59 1.738c-2.763.128-4.865.722-7.35 1.886-.687.323-1.415.626-2.026 1.082-.579.433-1.08 1.015-1.58 1.535l-.022.155.054.032c3.36-2.02 7.236-3.459 10.989-4.565l.012-.095zm121.247.1c-1.703.34-3.38.69-5.022 1.268 1.932-.253 3.888-.626 5.836-.695 1.38-.069 2.808-.017 4.178-.153l.006-.135.108.011.046.103.15-.08-.311-.05.07.002c-1.629-.157-3.434-.468-5.061-.271m20.608 1.822c-.68.529-.848 1.035-.947 1.888-.05.435-.318 2.636-.135 2.879a4.2 4.2 0 0 0 .613-.564c.726-.817 1.746-2.037 1.692-3.2-.017-.366-.105-.523-.334-.797a2.8 2.8 0 0 0-.888-.206m-127.783.264-1.269.886.051.21-.222-.037-.025.064a8.5 8.5 0 0 1 1.973 1.253l.386.17c.3-.277.605-1.057.595-1.487-.01-.455-.144-.709-.482-1a4.4 4.4 0 0 0-1.007-.059m-7.978.18c-.7.72-.927 1.548-.905 2.546.008.399.046.852.35 1.137.29.06.315.06.587-.055.393-.373.805-.738 1.169-1.14-.248-.766-.471-2.101-1.201-2.489m127.34.268c-.315.261-.69.541-.789.963a.93.93 0 0 0 .208.855c.356.409 1.061.65 1.358 1.033.123.16.123.495.25.665.28.378 1.448.77 1.903 1.018l.2.053c-.054-1.083-.622-2.316-.803-3.424-.857-.297-1.519-.812-2.328-1.163M66.19 68.765c-1.021.656-2.048 1.644-2.792 2.6l-.029.191c.327.28.75.351 1.159.452 1.242-.273 2-.747 2.829-1.706-.427-.37-1.074-.788-1.157-1.383-.007-.05-.007-.103-.01-.154m126.575 4.688c.213.346.224.491.621.616l.787-.257-.026-.211c-.407-.2-.934-.145-1.382-.148m2.175 1.39-.114.145c-.25.318-1.378 1.3-1.308 1.603.055.239.238.412.394.593.322-.035.455-.137.663-.39.406-.497.563-1.104.52-1.732zm-131.196.806c-.65.11-1.046.21-1.443.773-.118.167-.164.339-.211.534l.114.095.198-.091c.703-.14 1.63-.202 2.065-.834l-.104-.031.105-.081c-.098-.166-.11-.286-.304-.34a.94.94 0 0 0-.42-.025m133.218 1.7c-.624.805-2.186 2.15-2.048 3.211.033.252.175.476.301.69.668-.583 1.939-1.437 2.028-2.393.045-.485-.137-1.049-.281-1.508m-133.104.909c-.814.284-2.459.701-2.871 1.535-.09.181-.08.32-.06.513l.107.147c.925-.28 1.822-.51 2.78-.64.057-.392.293-1.195.089-1.523-.01-.016-.03-.022-.045-.032m133.566 2.329c-.526.87-2.223 3.115-2.093 4.06.024.173.079.364.243.441.189.089.346.083.55.088.829-.421 1.395-.98 1.998-1.671-.15-.938-.251-2.065-.698-2.918m-134.02.783c-1.062.377-2.346.827-3.007 1.794l.035.286.192.11a26 26 0 0 1 2.859-.47c.072-.533.211-1.105.09-1.635zm-.393 3.12c-1.286.442-2.56 1.09-3.199 2.367q-.053.107-.103.216l.054.147.145.005c1.115-.279 2.249-.538 3.396-.639.055-.641.169-1.318.052-1.954-.22-.17-.101-.133-.345-.143m135.304.354c-.915 1.113-2.511 2.584-2.795 3.986.162.064.238.125.413.095.99-.66 2.001-1.349 2.883-2.15-.081-.537-.118-1.534-.501-1.931m.62 2.862c-.456.682-2.819 3.66-2.866 4.136.134.103.25.193.401.268.765.073 1.313.073 1.919-.452.469-.406.814-1.02 1.059-1.582-.14-.775-.229-1.638-.514-2.37m-136.126.4c-1.33.453-2.992 1.252-3.639 2.575-.132.27-.107.361-.027.624l-.076-.065.176.108.238-.085c1.187-.609 2.236-.893 3.548-1.133.085-.617.228-1.26.127-1.88-.25-.156-.13-.126-.347-.144m-.12 3.51c-1.409.473-3.13 1.005-3.833 2.448-.088.182-.137.36-.183.555.192.07.112.077.236.047 1.298-.47 2.604-.771 3.94-1.1.063-.59.188-1.224.09-1.812-.213-.136-.121-.11-.25-.138m136.904-.024c-1.189 1.288-2.144 2.765-3.303 4.078l.088.145.462.04c.565.022 1.136.064 1.7.052.635-.411 1.163-.823 1.657-1.406-.051-.746-.071-2.372-.603-2.909m-94.767.463c-.335 1.303-.095 7.897-.109 9.834-.033 4.545-.247 9.097-.211 13.64 1.201-.111 2.413-.195 3.61-.347-.01-5.472-.134-10.936-.081-16.41a41 41 0 0 0-2.635-.28c.19-1.632.111-3.348.058-4.989 1.278.028 2.553.062 3.823.226.066 1.204.068 2.407.073 3.613q.129 8.853-.029 17.705 1.555-.15 3.105-.347c-.17-3.342-.523-6.686-.655-10.025-.079-1.991-.038-3.994-.032-5.986-.542-.116-1.088-.22-1.619-.382-.095-1.36-.21-2.774-.074-4.134.263-.251.33-.17.68-.168.27.154.313.299.389.59.183.706.237 1.508.349 2.233.22-.31.116-3.667.112-4.3-2.251-.122-4.504-.416-6.754-.474m26.102.313c-.24.18-.515.376-.658.646-.725 1.371-.927 4.25-1.151 5.838-.835 5.908-.967 11.634-.97 17.585l1.128.002c.817-.022 1.637-.027 2.452-.065l.267-16.331c.034-2.42.306-5.043.083-7.447-.22-.218-.39-.276-.709-.272-.173.002-.277.02-.442.044m65.395.084.172.033zm-62.722.19c-.153 4.066-.102 8.149-.144 12.218-.04 3.796-.176 7.594-.2 11.389.94.034 1.882.059 2.82.137-.095-2.744-.068-5.488-.088-8.233-.01-1.411-.104-2.832-.074-4.241 1.69-.058 3.311-.046 4.925.527l.113 1.886.016 9.035a64 64 0 0 1 4.128-.494q-1.041-10.686-2.392-21.338c-3.035-.29-6.065-.648-9.105-.886m32.847.164a40 40 0 0 0 .171 4.775l2.063-.038c.064-1.368.046-2.729.025-4.097-.75-.24-1.492-.46-2.259-.64m9.95.963c.002 1.657-.053 3.338.034 4.991q1.262-.442 2.534-.854c.203-.062.614-.12.726-.301.49-.801.094-2.816.095-3.794q-1.694-.07-3.389-.041m9.552.833c.01.62.024 1.237-.011 1.856-.023.405.01.761.274 1.087.249.307.877.255 1.242.263.007-.879.291-2.443-.363-3.115-.39-.146-.737-.11-1.143-.09m-79.22.335c-.084.834-.24 1.809.2 2.563.048-.551.285-2.072-.101-2.484-.029-.03-.066-.052-.099-.079m-44.22.216c-1.313.275-3.058.678-3.86 1.858-.24.354-.482.847-.472 1.282l.13-.005c1.41-.866 2.766-1.105 4.383-1.316.036-.569.144-1.206-.015-1.758zm137.57.15c-.894 1.229-1.732 2.68-2.882 3.682-.276.04-.143.056-.4-.045-.1.275-.163.53-.059.82.037.103.103.167.171.246l.25.06c1.511-.493 2.448-1.355 3.542-2.459-.085-.75-.161-1.452-.415-2.167zm-44.831 1.37c-.802.081-1.595.159-2.386.319l.175 13.794c.911-.039 1.83-.055 2.74-.127l2.337-.04-.044-8.078c-.012-1.337.162-3.052-.184-4.34-.091-.338-.328-.673-.581-.91-.548-.515-1.33-.66-2.057-.617M62.446 98.53c-1.328.279-3.45 1.238-4.199 2.44-.146.234-.18.379-.123.651l.056.055c1.383-.376 2.791-.854 4.195-1.133.079-.625.227-1.3.138-1.927zm104.22.522c-.317.431.01 11.42.025 12.89l2.023-.066c.046-.078.114-.148.137-.236.05-.183-.146-11.532-.195-12.652zm34.142-.104c-.829 1.338-3.16 3.982-3.478 5.19l.113.187.326-.063c1.885-.453 2.62-1.093 3.689-2.68-.092-.61-.163-2.222-.65-2.634m-87.947.3c-.009 5.165.48 10.222.98 15.357q1.749-.212 3.503-.368c-.128-1.779-.04-4.372-.557-6.03-.496-1.588-3.588-3.784-2.117-5.618.475-.593 1.274-.895 2.014-.935.836-.046 1.73.172 2.519.435.773.454 1.007 1.01 1.231 1.864.306 1.16.354 2.424.472 3.616.21 2.134.377 4.28.644 6.407.447.003.995.079 1.394-.145.247-1.271.1-2.742.092-4.044-.022-3.473-.192-6.956-.172-10.425q-5.005.197-10.003-.114m66.26.385c-.055.29-.056.096.018.322.288.873.493 11.222.477 12.947.698.181 1.407.346 2.097.552.2-1.543-.106-9.285-.387-10.839-.144-.796-.397-1.653-.89-2.305-.363-.481-.736-.608-1.315-.677m-.628.093c-.65.38-1.363.486-2.098.599-.095 3.861-.359 7.785-.275 11.644l1.317.311 1.284.292q-.167-4.098-.236-8.199c-.016-1.181.146-2.493.012-3.656-.033-.291-.094-.442-.288-.655l.65-.207c-.125-.053-.233-.101-.366-.129m7.684-.004c-.475 4.934-.635 9.902-.941 14.849q1.172.2 2.349.366l.479.044c.465-.517-.195-11.245-.266-12.601-.038-.725.013-1.763-.297-2.413-.382-.265-.875-.227-1.324-.245m-16.53.473c-.083 3.877-.028 7.678.239 11.545l1.969-.05c-.03-2.385.378-9.309-1.31-10.908-.26-.247-.582-.42-.897-.587m-107.612 1.791c-1.271.49-3.672 1.188-4.221 2.538-.1.245-.09.41-.069.666.166.175.085.141.198.177 1.427-.561 2.8-1.028 4.309-1.308.015-.566.17-1.523-.062-2.03zm139.513 1.107c-1.172 1.482-2.39 2.967-3.707 4.323.056.413.064.875.277 1.235l.19-.002c1.557-.8 2.699-1.64 3.83-2.978-.11-.666-.192-2.072-.59-2.578m-139.744 2.52c-1.415.436-3.812 1.53-4.502 2.906-.146.292-.18.535-.18.856.217.053.124.057.275.031 1.514-.536 3.088-.843 4.598-1.364.056-.743.207-1.604.064-2.333-.084-.035-.164-.087-.255-.096m140.425 1.365-.103.169c-.928 1.513-4.012 4.427-3.937 6.036.14.222.18.326.437.419.015.005.031 0 .047.001 1.565-.831 3.106-1.833 4.192-3.26-.101-.721-.187-2.864-.637-3.364m-140.477 2.686c-1.717.29-3.335.936-4.821 1.844-.118.653-.265 1.295-.23 1.963l.133.125c1.599-.6 3.194-.985 4.864-1.312.122-.808.251-1.594.229-2.413-.056-.071-.098-.16-.175-.207m141.294 1.787c-.811 1.045-4.391 5.103-4.34 6.182.014.304.153.63.195.94l.142.002c2.048-1.237 3.391-2.406 4.636-4.465-.178-.89-.327-1.802-.633-2.659m-38.565 1.605-.23.132c1.005.356 3.484.496 4.822.846 1.734.453 3.335 1.317 5.06 1.812 2.903.834 5.961 1.33 8.936 1.833 2.21.374 4.441.794 6.676.984l.21-.168c-.056-.256.01-.171-.224-.319-1.405-.887-3.731-1.048-5.325-1.496-1.858-.521-3.637-1.326-5.484-1.89-4.094-1.25-10.142-2.132-14.441-1.734m33.784.755h.115zm-137.076.06c-1.785.523-3.777 1.576-4.71 3.284-.135.247-.317.573-.257.856.263.13.12.095.434.088 1.592-.494 3.175-.85 4.807-1.182.08-.776.428-2.368.022-3.017zm87.633 1.701c-3.358.193-8.208.336-11.339 1.328 2.42.325 4.827.778 7.262.984 4.897.412 10.542.251 15.46.013 2.407-.069 4.819-.158 7.227-.17 1.534-.007 3.098.1 4.626-.023-2.295-.617-4.662-.866-7.011-1.183-5.419-.733-10.745-1.34-16.225-.949m54.946.383c-.724 1.09-1.45 2.171-2.25 3.206-.849 1.098-1.814 2.152-2.533 3.34.213.367.454.624.436 1.053l-.498.369.101.205c1.006-.654 2.035-1.28 2.975-2.028.834-.663 1.594-1.444 2.468-2.052-.208-1.329-.317-2.812-.7-4.093m-122.943.97c-2.579.268-5.161.648-7.657 1.364 2.29-.169 4.605-.463 6.901-.365 6.019.257 11.623 2.287 17.368 3.884 2.09.58 4.224 1.026 6.351 1.441q4.186.834 8.426 1.32c2.253.258 4.575.374 6.796.832-5.856.703-12.453.113-18.29-.618q-4.076-.51-8.076-1.447c-2.055-.475-4.092-1.049-6.167-1.432q-1.568-.282-3.152-.453t-3.176-.231-3.184-.008-3.177.215c-.545.062-2.303.183-2.65.503 3.504-.18 6.987-.253 10.456.382 5.377.984 10.197 3.007 15.76 3.736 4.965.652 9.994.986 14.986 1.377 2.575.203 5.28.272 7.811.762l.184.034.11.022c-8.205 1.136-17.885.975-26.104-.137-3.288-.444-6.468-1.392-9.731-1.961-6.237-1.088-16.364-1.31-22.538-.09l-.008 1.61c7.91-1.01 15.825-.605 23.667.856 2.135.398 4.215.998 6.325 1.5 1.422.339 2.87.555 4.294.878-3.85.201-7.594-.522-11.413-.852-6.457-.56-12.981-.77-19.445-.18-1.086.099-2.68-.058-3.563.594l-.156.328c.114.241.132.295.398.396.657.25 7.625.12 8.924.167 7.159.256 14.247.717 21.34 1.772-5.773.453-11.474.241-17.25.137-4.467-.08-8.958-.055-13.425-.01q-.096 1.743-.159 3.488c3.18.657 6.38.79 9.614.977 1.059.06 2.117.234 3.175.27 1.305.044 2.606-.17 3.914-.082l.055.086c-1.487.348-3.057.415-4.575.554-4.183.386-8.128.552-12.316.052-.026.91-.067 1.822-.077 2.733 2.996-.162 6.074-.205 9.053-.556 2.94-.167 5.816-.263 8.761-.19-5.927 1.136-11.87 2.486-17.92 2.69-.003.785-.028 1.575.042 2.358 2.894.008 5.827-.359 8.707-.654 9.955-1.02 19.754-3.06 29.72-4.04 6.477-.637 12.902-.474 19.388-.745 4.278-.179 8.535-.64 12.793-1.07 5.332-.538 10.726-1.094 15.994-2.098 9.312-1.775 18.011-6.047 27.37-7.658 2.108-.363 4.156-.309 6.189-.602 1.733-.25 3.443-.782 5.177-1.082q2.897-.501 5.824-.774c.965-.093 1.976-.095 2.93-.249.308-.05.548-.084.795-.289-.03-.163-.02-.466-.172-.554-.276-.159-3.445-.501-4.085-.638q-2.537-.53-5.017-1.279c-1.289-.401-2.6-.926-3.912-1.22-1.325-.298-2.727-.042-4.07-.36-3.395-.803-6.753-1.946-9.984-3.258-3.79.647-7.717.672-11.554.702-4.622.035-9.15.02-13.744-.567-3.696-.472-7.462-1.428-11.175-1.605-1.632-.078-3.29-.004-4.925.002l-9.113.007c-3.072.029-6.173.13-9.238-.106 1.742.388 3.5.693 5.236 1.112 7.136 1.72 14.211 3.71 21.476 4.848 5.199.814 10.557.952 15.814 1.056 2.438.049 4.9.154 7.336.082-2.138.67-5.174.658-7.417.812-7.182.495-14.351.327-21.448-.946-5.593-1.003-11.103-2.5-16.705-3.453-3.524-.599-7.108-.486-10.619-1.16-6.466-1.243-11.995-2.936-18.704-3.005-1.096-.01-2.283-.049-3.369.085m90.682 1.248c1.978.633 3.987 1.178 5.976 1.777 1.94.583 3.894 1.249 5.874 1.675 1.822.393 3.708.592 5.55.89q3.654.577 7.232 1.517c-.009-.575-.003-1.154-.036-1.728-1.817-.42-3.681-.586-5.508-.964-4.17-.862-8.313-1.743-12.518-2.428-2.159-.352-4.377-.769-6.57-.739m-110.29.217c-1.648.585-4.568 1.372-5.34 3.073-.148.323-.198.69-.258 1.038.133.239.06.166.17.26 1.754-.758 3.392-.91 5.29-1.011.051-.788.443-2.713.139-3.36m171.541-.002-.529.213c-.07.176-.136.228-.063.422.593 1.572 6.706 4.357 8.423 4.988q.433.158.873.295l.25.01c.281-.568-.121-2.228-.211-2.872-2.31-1-6.337-3.118-8.743-3.056m-27.155 1.257.231 1.475c1.143.002 2.237-.002 3.356.266-.247-.445-.48-.9-.78-1.31a15 15 0 0 0-2.806-.431m5.535.913.445 1.369c1.397.286 7 1.546 8.029 1.1l.113-.523c-.35-.366-7.449-1.731-8.586-1.945m16.552.508c.708.829 1.398 1.608 2.278 2.257 3.198 2.358 8.352 3.366 12.205 4.109-.042-.517-.053-1.058-.156-1.565-1.8-.447-3.541-1.181-5.277-1.832-2.995-1.124-5.933-2.217-9.05-2.969m-167.037 2.075c-1.74.44-3.398 1.011-4.919 1.984-.228.465-.482.9-.538 1.422.193.094.111.089.229.085 1.707-.709 3.512-1.06 5.31-1.462.103-.647.24-1.285.175-1.942-.085-.031-.167-.08-.257-.087m145.397.208c.132.68.3 1.368.362 2.058 3.534-.003 7.08.159 10.554-.6l.171-.137c-.236-.158-9.724-1.115-11.087-1.322m-.876 2.231c-.557.719-4.036 5.037-4.097 5.683l-.022.202-.013.164c-.252.333-.59.461-.956.637l.045.237c.038.206.028.363.032.567.004.175.007.232.124.358 2.765-.574 3.449-1.946 5.437-3.65-.037-1.33.015-2.956-.55-4.198m18.48.138-.065.465c1.437 1.356 16.591 4.336 19.065 4.668-.05-.546-.094-1.089-.19-1.629-3.623-.492-7.252-1.306-10.827-2.073-1.856-.398-6.187-1.544-7.983-1.43m-163.214.66c-1.681.74-5.213 1.924-5.925 3.723-.085.214-.09.36-.078.589l.085.087c1.91-.536 3.874-.81 5.833-1.112.071-.69.452-2.734.085-3.287m-21.394.443c-2.756.149-8.035.237-10.503 1.21 4.231-.241 8.368-.312 12.607-.153 3.089.159 6.034.867 9.086 1.142.219-.216.226-.518.234-.824.004-.164-.003-.462-.131-.571-1.049-.89-9.632-.899-11.294-.804m172.986 1.206c5.148 3.232 24.212 6.292 31.096 7.492l-.245-1.876c-3.82-.52-7.585-.951-11.357-1.787-5.505-1.219-14.06-3.972-19.495-3.83m-21.976 1.386c-1.328.173-2.584.624-3.87.98 2.387.917 5.142 1.34 7.651 1.822.954.168 1.916.372 2.877.489-.08-.887-.145-1.747-.375-2.61l-.042-.163c-2.012-.466-4.176-.778-6.24-.518m-158.712.657c-1.932.07-12.398 1.032-13.295 1.957l.159.034-.055-.152.187.15c6.121-.668 11.981-.963 18.125-.47 4.502.321 8.995.969 13.511 1.045l.175-2.288c-6.265.104-12.535-.68-18.807-.276m174.376.044c-.533.819-1.07 1.635-1.673 2.404-.74.946-3.34 3.588-3.63 4.475-.065.195.05.552.093.752-.15.403-.486.544-.818.804l.207.083c2.827-.76 4.821-2.794 6.368-5.184-.083-.75-.119-2.797-.547-3.334m-146.04.895c-1.919.569-4.55 1.076-5.541 3.037-.077.152-.11.296-.127.464l.145.103.364-.115c1.858-.5 3.813-.713 5.716-.992.035-.715.221-1.81-.1-2.451-.16-.028-.293-.053-.456-.046m147.96.122c.013.415-.033.947.18 1.308 3.625 1.266 9.25 1.628 13.217 2.375 2.433.459 4.879.916 7.29 1.48 2.21.517 4.4 1.133 6.621 1.607 2.848.607 5.713 1.016 8.576 1.527l-.213-1.858c-3.775-.438-7.531-1.062-11.292-1.608-8.155-1.184-16.466-2.469-24.379-4.83m-31.198 1.67c-1.778.127-3.528.282-5.262.716 7.289 1.024 14.52 1.92 21.739 3.415 1.313.242 2.64.456 3.94.756l-.007-2.124c-6.283-1.285-14-3.157-20.41-2.763m-145.826 1.52c-5.206.242-11.435 1.2-15.868 4.048 5.821-1.519 12.116-2.578 18.153-2.312 5.494.172 10.967.768 16.458 1.018.128-.823.228-1.63.28-2.462-6.324 1.013-12.686-.788-19.023-.293m175.602.144a28 28 0 0 1-2.373 3.374c-1.535 1.892-3.311 3.527-3.958 5.96l.107.154.208-.067c2.406-1.544 4.835-3.131 6.577-5.458-.059-.798-.039-3.442-.561-3.963m-146.252.454c-1.845.281-5.014 1.068-6.16 2.67-.256.357-.413.75-.55 1.164l.087.206c2.205-.672 4.353-.934 6.64-1.102.044-.861.253-2.046.044-2.871zm148.097 1.254c-.107.857.107 1.852.208 2.714 5.18.688 10.33 1.585 15.504 2.275 4.42.59 8.902.974 13.286 1.808 1.23.234 2.349.918 3.511 1.359 1.093.414 2.27.596 3.41.825-.101-1.291-.208-2.57-.399-3.852-7.739-1.264-15.502-2.1-23.262-3.184q-3.733-.523-7.45-1.145c-1.594-.27-3.204-.62-4.808-.8m-45.556.505c-2.854.142-5.743.292-8.45 1.307 2.058-.156 4.149.102 6.201.26q3.955.328 7.918.546c5.622.308 11.353.136 16.944.777 1.916.22 3.752.673 5.592 1.243 2.081.558 4.163 1.016 6.27 1.465-.017-.616-.017-1.236-.088-1.848-1.965-.23-3.945-.427-5.9-.74-2.57-.41-5.115-.942-7.691-1.329q-5.937-.892-11.922-1.352c-2.96-.244-5.904-.445-8.875-.329M31.11 138.053c-6.017.391-11.746 1.668-16.985 4.758 6.28-1.056 11.14-1.894 17.53-1.52 5.7.52 11.285 1.047 17.02.776.13-1.02.279-2.042.387-3.065-5.714-.489-12.275-1.53-17.952-.949m28.043 1.241c-2.273.277-4.474.935-6.155 2.557-.14.43-.349.835-.262 1.283.222.052.326.043.543-.025 2.176-.568 4.36-.956 6.581-1.304.043-.774.219-1.716-.1-2.44-.23-.112-.354-.101-.607-.071m147.68.064c-.729 1.037-5.776 7.696-5.833 8.154l.268.351c-.094.383-.292.529-.556.816l.105.08c2.95-1.378 4.494-2.413 6.591-4.945-.086-.918-.132-3.786-.574-4.456m-66.446 1.072c-3.086.142-6.121.327-9.17.857 7.547 1.045 15.18 2.086 22.776 2.663q4.51.32 9.025.582c1.864.095 3.747.044 5.594.34-5.958.638-11.968.32-17.936-.015q-8.802-.481-17.592-1.16c-5.726-.405-13-1.649-18.55-.159 6.458 1.064 13.044 1.584 19.532 2.512 3.201.458 6.513.782 9.539 1.98-7.933-.37-15.834-.978-23.752-1.578-8.893-.673-18.206-1.421-27.106-.512l3.472 1.041c1.75.567 6.353 2.645 7.734 2.717 1.604.084 3.306-.69 4.901-.901 6.047-.8 18.108-1.949 23.473 1.27 1.028.617 1.637 1.368 2.287 2.35a13.5 13.5 0 0 1 1.817-1.014c.672-.303 1.97-.524 2.456-1.01l-.39-.469.092-.104c.877-.053 1.773-.088 2.642-.221 1.516-.232 3.028-.651 4.57-.661 2.212-.014 4.712 1.018 6.977 1.272 2.232.251 4.542-.232 6.742.159.866.153 1.704.647 2.481 1.045 4.248-.688 8.542-1.161 12.778-1.911 4.07-.721 8.042-2.282 12.234-2.148 1.994.063 3.628.568 5.25 1.745 1.666 1.209 3.277 2.692 4.718 4.16.014-3.331.068-6.668.024-9.999-1.8.088-3.696-.264-5.485-.484-3.651-.447-7.296-1.013-10.966-1.275-3.222-.23-6.456-.171-9.681-.058-1.866.066-3.748.215-5.615.148-8.286-.3-16.573-1.434-24.87-1.162m68.3.749c-.036.467.057.846.169 1.298 3.918.578 8.96 1.708 12.885 1.481 1.655-.095 3.257-.76 4.932-.876.44-.058.916-.084 1.346-.19-6.352-1.09-12.907-1.291-19.332-1.713m-149.44 2.1c-2.281.513-5.147 1.172-6.48 3.315a6 6 0 0 0-.293.548l.064.224c.117.037.217.076.34.084 2.265-.428 4.532-.872 6.848-.819.018-.93.23-2.445-.09-3.317-.144-.03-.242-.058-.388-.036m-16.441.662c-8.626.098-21.094-.543-29.077 2.92 1.888-.218 3.78-.479 5.677-.592 4.783-.066 9.484.406 14.254.485 4.832.08 9.77-.28 14.586-.681l.142-2.172q-2.791-.032-5.582.04m166.205.313 1.086 8.034c3.446-.789 6.601-2.016 9.823-3.452-2.042.084-4.087.322-6.122.512-1.327.03-2.572.153-3.866.451 3.121-1.41 6.184-2.964 9.297-4.397-3.459-.07-6.806-.613-10.218-1.148m22.185.424c-1.049.081-2.1.153-3.147.246.21 1.377.344 2.826.74 4.161 1.397.926 3.155 1.258 4.744 1.732 1.313.391 2.606.845 3.92 1.233 1.901.561 3.778 1.04 5.588 1.87-2.71.293-5.483.183-8.086-.678-1.483-.49-2.955-1.085-4.505-1.328-.605.427-2.173 1.385-2.3 2.144-.028.167.09.238.186.36 1.027.47 2.752.301 3.876.337 3.139.1 7.474.55 10.167 2.27-2.612-.151-5.169-.737-7.766-1.02-1.637-.21-3.288-.22-4.929-.388-.952-.098-1.893-.305-2.836-.47-1.087.432-3.376 1.61-3.925 2.668q-.024.051-.041.107c.157.245.245.374.556.45.943.232 5.606-.735 7.13-.709 1.714.03 3.481.348 5.182.562q4.877.585 9.73 1.346c-.344-4.223-.965-8.426-1.284-12.647-2.815-.284-5.56-.984-8.326-1.558-1.499-.311-3.142-.708-4.674-.688m-23.842.18q-2.7 3.029-5.3 6.145c-.835 1-1.774 2-2.488 3.085l.115.112.233-.007q.306-.092.607-.197.3-.104.596-.222t.587-.25.575-.274q.284-.144.561-.3.278-.157.549-.325.27-.169.533-.349t.518-.372q.254-.191.5-.394.245-.203.482-.417t.464-.437.443-.457.423-.477.401-.495.38-.512.356-.528c-.078-.719-.12-2.843-.535-3.33m-148.142 2.815c-2.153.226-5.205 1.29-6.571 3.067-.35.455-.529.947-.63 1.505.247.09.27.056.517.007 2.384-.432 4.792-.655 7.201-.899.012-.775.264-3.114-.186-3.677zm27.462.22c-3.483.778-7.058 2.278-10.153 4.023 3.102-.685 9.688-2.062 12.623-2.053 1.313.004 2.883.232 4.005.938q.266.168.525.347c-2.033.498-3.939.39-6.004.537-4.1.293-10.745 1.201-14.433 2.845.52.288.978.52 1.576.582 1.626.17 3.364-.24 4.97-.462 3.605-.499 8.93-1.237 12.448-.429-2.872 1.48-8.429 1.834-11.685 2.208-1.547.177-3.252.294-4.689.935-.564.252-.982.655-1.415 1.085 5.135-.575 16.73-1.423 20.821 1.847.396.317.715.742.759 1.262.01.122.004.197.002.327-.227.233-.379.244-.695.24-1.757-.017-3.394-.976-5.105-1.143-1.32-.129-2.738-.031-4.063-.014-4.98.066-10.57.013-15.332 1.58.336.232.669.482 1.016.696 4.453-.352 8.833-.444 13.297-.402 1.677.015 3.417-.07 5.079.125-2.627.322-5.273.483-7.897.843-3.215.441-6.398 1.1-9.614 1.557.782.37 1.507.7 2.362.873 4.043.824 9.938-1.22 14.296-.976 2.267.126 4.687.77 6.894 1.286 1.22.285 2.436.684 3.7.638 1.737-.063 3.517-.393 5.24-.624 4.603-.617 9.38-1.43 14.038-1.288 2.228.069 4.425.403 6.639.642 2.306.249 4.62.415 6.925.666 1.44.156 3.203.672 4.638.503 2.108-.42 4.127-.582 6.273-.674-1.244-.233-2.496-.418-3.68-.881 2.087-.33 4.005-1.014 6.147-.972 4.6.089 8.944 1.708 13.49 2.072 1.922.154 3.84.079 5.766.04 6.337-.132 12.612-.87 18.946-.991.26-.005 1.695.028 1.805-.112l-.031-.003.13.048c-.18.004-.113.037-.216-.059-3.882-.202-18.133-.293-20.446-2.95-.23-.263-.428-.6-.391-.962.013-.13.048-.235.083-.358-1.197.191-2.324.343-3.537.288-1.978-.089-13.424-1.754-14.329-.812.046.15.025.233.177.309.812.406 4.457.91 5.688 1.213 2.28.56 4.506 1.276 6.763 1.91 1.602.45 3.237.788 4.842 1.23-5.237.537-8.214-.175-13.272-1.333-1.735-.398-3.48-.91-5.26-1.048-3.14-.246-5.983 1.31-9.036 1.402-1.316.04-2.559-.641-3.851-.824-2.196-.31-4.418-.353-6.63-.465q1.215.359 2.458.599t2.505.359c-3.597.823-8.22-.3-11.927-.457-3.742-.157-8.323.321-12.025.99-1.928.348-6.83 1.825-8.56.917-.193-.101-.214-.242-.306-.427.003-.41.166-.654.458-.923.824-.761 1.988-1.154 2.932-1.747-.793-.072-2.15-.016-2.718-.608.022-.466.268-.687.603-.99q.728-.658 1.504-1.257c-1.068.2-2.154.369-3.212.617-.792-.389-1.457-.768-1.955-1.529-.008-.163-.06-.267.063-.398.596-.638 1.983-.307 2.291-1.234-.544-.63-1.522-.884-1.672-1.762.226-.496.657-.63 1.131-.806.353-.132.71-.247 1.051-.406-1.326-.354-3.225-.724-4.006-1.97-.302-.482-.413-1.227-.243-1.775.133-.428.41-.855.63-1.245-1.907-.776-3.819-.573-5.806-.786-1.121-.12-2.268-.514-3.395-.424m-64.453 1.158c-3.442.319-7.045.717-10.406 1.53.252.195.583.157.89.117q.275-.038.548-.088c3.223-.313 7.64-.894 10.75-1.601-.578 0-1.213-.054-1.782.042m75.477.465c-.215.763-.482 1.424-.213 2.206.283.268.482.343.876.339.709-.006 1.362-.386 2.043-.538.284-.075.79-.148 1.013-.32l-.024-.078-.149.064-.011-.142c-1.17-.532-2.338-1.064-3.535-1.53m88.132.034c-4.13.41-8.525 1.663-12.336 3.287 3.12-.697 6.112-.78 9.287-.564 3.52.334 6.592.912 9.789 2.498-.811-1.68-1.564-3.456-2.544-5.041-1.34-.221-2.846-.408-4.196-.18m-154.514.248q-5.796.901-11.612 1.666c-2.82.346-5.713.528-8.508 1-.078.67-.173 1.341-.206 2.015 2.82-.264 11.959-1.03 14.133.155l.12.21c-.693.574-3.628.386-4.619.452-3.088.207-6.46.703-9.42 1.6 2.288.243 13.01-.623 14.096.04l-.074.2-.5.218c-3.395.992-6.908 1.686-10.376 2.373-.928.184-3.01.389-3.778.682-.091.035-.147.13-.22.195l-.016.398c.26.207.475.173.795.141.879-.087 1.762-.29 2.645-.393 3.13-.365 21.905-2.29 22.901-3.518-.064-.21-.035-.279-.24-.402-1.435-.863-7.005 2.056-7.361.334-.148-.714.363-1.544.734-2.118-.564-.873-1.49-2.123-1.245-3.226.094-.422.383-.776.749-1 .689-.423 1.539-.498 2.206-.968-.067-.02-.133-.057-.203-.054m34.557.006q-2.299.108-4.587.35c.09 2.787.24 5.57.634 8.334 1.574-.203 3.197-.495 4.78-.55-.501-.349-1.286-1.101-1.858-1.215-.652-.135-1.44-.206-2.011-.556.065-.321.218-.43.473-.619.937-.695 3.79-2.767 4.7-3.16.71-.305 1.801-.142 2.384-.537-.045-.28-.113-.428-.003-.697.17-.416.214-.599.048-1.016-.933-.755-3.346-.386-4.56-.334m52.298.267c-3.473.159-8.38.132-11.378 2.01 1.71.061 3.428.103 5.137-.002 2.382-.147 4.75-.48 7.137-.552q1.245-.03 2.49.013 1.243.043 2.483.159t2.47.305q1.231.189 2.449.45c-.81.305-1.554.513-2.415.612-1.807.208-3.708.082-5.528.055q-3.806-.069-7.613-.05c-1.116 0-2.347-.125-3.445.061-1.019.174-2.212.526-2.855 1.381l-.052.33c.29.367.602.467 1.063.521 1.753.208 3.734-.112 5.496-.238 3.672-.263 12.416-.887 15.543.245-5.385-.013-10.62.18-15.98.727-1.914.195-3.874.338-5.762.722-.561.29-.952.643-1.399 1.076 2.626.2 5.32-.031 7.957-.029 3.456.003 6.905.187 10.364.16 2.814-.022 6.099-.42 8.835.22l1.026 1.002c.556.077 1.006.13 1.506.409l.05.14c-1.419.508-14.095.067-16.934.288q3.46.406 6.932.698c3.394.273 7.631-.016 10.641 1.751.222-.542.402-1.18.827-1.594.315-.013.624-.01.939-.001l.105-.178c-.107-.312-.165-.464-.47-.624-.462-.242-1.083-.316-1.593-.412-.148-.423.22-1.048.399-1.454a40 40 0 0 1-2.47-.783c.244-.576.476-1.151.788-1.695-.808-.303-1.633-.565-2.036-1.401-.347-.722-.276-1.612-.273-2.393-5.268-2.388-8.755-2.282-14.434-1.929m-77.058.606c-2.663.218-4.928.746-7.377 1.815 3.929-.38 8.019-.459 11.898.408-4.629 1.133-9.667 1.285-14.092 3.171 1.553-.287 3.111-.614 4.679-.811 2.255-.259 7.289-.976 9.363-.396l.031.157c-1.212.785-5.464 1.352-7.051 1.654 2.043.104 5.526 0 7.286 1.023.066.038.133.072.2.11l.118.067c.418-1.25.647-5.582.816-7.163-1.918-.061-3.958-.236-5.87-.035m104.934.067c-.66.376-1.293.708-1.63 1.426.001.3-.006.435.236.657.022.021.22.141.27.147.572.064 3.23-.444 4.011-.505 3.371-.266 9.506.891 12.598 2.365-.57.04-1.134.074-1.703.01-2.533-.285-12.913-2.968-14.585-1.097-.143.16-.137.25-.18.45.39.472 1.408.49 1.987.544 5.017.468 9.709-.08 14.441 2.182-3.067.175-6.168-.41-9.272-.257-1.835.152-3.604.357-5.333 1.036 1.249.082 2.505.153 3.741.353 4.622.75 9.36 2.332 14.08 1.893l-.005-.03c.666.444 1.323.927 2.058 1.25.442-.282.892-.51 1.168-.97l-.044-.264c-.868-.618-3.001.015-3.53-.765.36-.914 2.363-1.747 3.24-2.129q.223-.096.45-.184c-1.524-.41-3.286-.768-4.121-2.276-.189-.34-.327-.718-.469-1.08l-.202-.047c-1.52-.364-2.879-1.221-4.411-1.499-2.07-.375-4.31.162-6.431-.108-1.938-.246-4.512-1.34-6.364-1.102m73.583 1.44c-3.155.17-6.353.53-9.44 1.217.07 1.136.144 2.266.275 3.398.838-.086 1.677-.159 2.506-.302.791-.144 1.584-.28 2.366-.466-1.075-.23-2.14-.457-3.148-.907 1.52-.42 6.836-1.695 7.52-2.88zm-160.309.363c-1.902.233-6.004 1.007-7.25 2.52-.509.617-.633 1.371-.729 2.141l.097.164c.148.001.317.014.464-.003 2.584-.476 5.201-1.131 7.827-1.297-.029-1.085.07-2.358-.167-3.411-.212-.121-.123-.115-.242-.114m129.744 1.38q-3.514.311-7.039.472c-2.892.147-5.81.053-8.553 1.11.99.185 1.999.339 2.97.602-1.066.42-2.161.809-3.202 1.288 2.846.952 5.742 1.213 8.695 1.615 3.093.422 6.371.955 9.387 1.756-3.242.032-6.482-.04-9.725.001-4.057.153-8.533.215-12.486 1.15 8.334.653 16.674.435 24.973 1.486-.805-2.206-1.687-4.36-2.544-6.545-.309-.789-.519-1.714-.923-2.45-.116-.21-.256-.383-.493-.467-.349-.123-.704-.067-1.06-.019m19.203.418c-2.258 2.321-4.423 4.6-7.083 6.473-.505.355-2.155 1.294-2.288 1.835a2.7 2.7 0 0 0 .499.163c3.452-.643 6.878-2.77 9.382-5.187-.086-1.043-.107-2.147-.352-3.164zm-148.903 2.83c-2.54.318-6.942 1.39-8.606 3.48-.321.403-.438.999-.575 1.488l.056.203c.207.024.327.029.536-.005 3.134-.593 6.162-1.404 9.343-1.74-.12-.99-.078-2.453-.463-3.353-.246-.08-.147-.075-.29-.073m149.352 1.073c-1.857 1.918-3.777 3.772-5.63 5.694-.732.76-1.617 1.525-2.2 2.4l.107.144h.327c2.955-.8 5.49-2.474 7.887-4.332-.072-.737-.17-3.402-.491-3.906M63.97 159.427q-.932.07-1.867.113c.06.984-.15 3.381.398 4.177.297.061.396.034.652-.176.087-.071.17-.193.237-.285l-.055-.29c.732-1.9 1.754-2.192 2.998-3.572-.796-.027-1.569-.052-2.363.033m146.788.037c.35.846.687 1.675.936 2.556.463-.32.863-.629 1.247-1.04l1.108-1.238c-1.094-.097-2.195-.226-3.291-.278m-171.85.714c-5.09.288-10.007 1.559-15.066 2.038-3.21.304-6.451.358-9.672.473-1.3.046-2.683-.01-3.969.167-.12 1.1-.58 3.066-.261 4.1.801.069 1.634-.717 2.848-.747 1.512-.038 3.022.337 4.535.383 1.794.055 15.454.047 16.202-.503a3.2 3.2 0 0 0-.606-.175c-4.818-.641-9.735-.473-14.581-.224-2.214.115-4.547.432-6.757.275-.528-.038-.861-.187-1.198-.612.022-.23-.031-.208.138-.332 1.03-.757 19.549-2.777 22.038-3.01 2.072-.194 4.351-.078 6.372-.499.694-.144 1.503-.293 1.941-.897-.048-.213.006-.204-.169-.289-.493-.24-1.256-.181-1.796-.148m189.412.51c-3.74.095-7.517.167-11.156 1.136 2.71.025 5.426-.127 8.139-.119q6.796.066 13.586.347c1.63.055 4.69-.153 6.105.454l.119.143c-.304.366-.964.387-1.422.431-1.209.116-2.432.12-3.644.206-2.971.212-5.938.49-8.907.725-3.332.264-6.705.487-10.008 1.007-2.336.264-4.82.552-7.066 1.254-.32.1-.636.186-.948.309.886.102 3.364-.432 4.444-.542q4.642-.43 9.297-.678c3.697-.18 7.438-.28 11.14-.216 2.641.045 5.286.217 7.927.214-.117-1.585-.263-3.174-.337-4.761-5.728-.04-11.549-.198-17.27.09M59.5 161.8c-2.782.314-5.174 1.159-7.814 2.018-.786.256-1.712 1.089-2.088 1.82a2.6 2.6 0 0 0-.202.617l.112.279c.21.073.282.085.516.079q4.926-.499 9.823-1.227c.066-.836.482-2.919.084-3.604zm149.634 1.069q-1.347 1.383-2.826 2.624c-.623.529-1.45 1.062-1.963 1.685.174.038.318.07.498.071 1.606-.005 3.214.014 4.817-.1-.06-.7-.202-3.916-.526-4.28m-183.95 6.445c-5.18.054-10.371-.06-15.549.035l-.077 1.99c12.837.162 25.685.078 38.523.06l56.088-.106 126.268.076c5.272.01 10.55.068 15.82.022l-.204-2.151zM146 181.33c-1.307 2.814-2.523 5.761-3.996 8.487-1.548-2.791-3.07-5.594-4.689-8.347-1.475.36-2.787.82-4.097 1.597 2.485 4.032 4.773 8.462 6.662 12.807q-.019 5.574.043 11.147c1.395.14 2.807.131 4.207.118l.006-6.34c-.001-1.526-.116-3.152.17-4.654.385-2.014 2.287-5.518 3.22-7.585.77-1.707 1.461-3.451 2.234-5.155-1.249-.695-2.491-1.417-3.76-2.075m11.724.319q-2.581 7.986-5.279 15.934c-1.065 3.118-2.331 6.27-3.206 9.441 1.602.039 3.199.09 4.8.013.242-.876.516-1.757.684-2.65l4.146-.035 2.466-.064.947 2.815 4.847.027-4.97-15.586c-.578-1.876-2.306-8.393-3.217-9.82-.418-.117-.787-.095-1.218-.075m-40.897.15c-.102 3.255-.043 6.524-.043 9.781l-.024 15.496c2.465.078 7.837.394 10.01-.117 1.013-.239 2.03-.732 2.8-1.439.268-.246.513-.524.759-.792 1.544-2.183 1.886-4.831 1.447-7.448-.36-2.142-1.495-3.97-2.948-5.544.739-2.237 1.186-4.564.041-6.775-.735-1.42-2.088-2.414-3.615-2.835-2.262-.623-6.014-.406-8.428-.327m-28.033.072c-.05 8.406-.198 16.864 0 25.268q5.736.023 11.472-.022l.008-5.017h-6.757l.014-20.231zm16.688-.005.022 25.286c1.406.017 2.818.06 4.224.005l.016-25.284q-2.131-.053-4.262-.006m-86.532 36.89q.646 1.071 1.32 2.125l144.529-.084 47.153-.018c7.98.005 16.017.252 23.992.04.304-.699.593-1.407.945-2.082zm176.95 10.37c.792.35 1.487.634 2.373.604q-.132-.081-.27-.153-.138-.071-.282-.131t-.29-.11-.298-.089-.304-.065-.308-.042q-.154-.015-.31-.02-.156-.003-.31.005m-49.43.186h.216zm74.17-.03c.89.17 1.969.475 2.872.304-.832-.34-1.987-.49-2.872-.305m-170.881.185c.218.073.252.117.484.063l-.181-.206zm121.878-.07c.633.273 1.321.607 2.025.593-.413-.48-.894-.553-1.5-.596a3.5 3.5 0 0 0-.525.002m-97.771.197.196.127.174-.064-.145-.143zm49.48.01.185.052zm23.659-.1c.827.432 1.52.758 2.48.73-.61-.407-1.742-.81-2.48-.73m-95.75.166c.585.58 2.482.595 3.316.59.506-.002 1.016-.02 1.52-.064-.954-.368-3.824-.64-4.837-.526m146.982-.031c.51.573 1.352.737 2.091.782.722.043 1.496.043 2.207-.083-1.266-.237-3.063-.819-4.298-.7m-24.455.147c.1.295.104.349.396.502.874.46 2.657.27 3.621.173-1.244-.413-2.716-.49-4.017-.675m-98.42.131c1.009.526 3.331.618 4.455.507-.758-.374-3.645-.695-4.455-.507m48.664-.005c.501.284.952.371 1.523.424-.17-.26-.273-.423-.604-.468-.29-.04-.631.004-.919.044m25.462.12c.486.531 1.188.591 1.886.619.736.029 1.506.03 2.234-.086-1.218-.367-2.843-.495-4.12-.532m-23.479.251c.818.55 2.556.582 3.52.45-1.117-.222-2.386-.602-3.52-.45m-79.548 1.634c1.148.403 3.35.737 4.202 1.561l-.05.161c-1.439.53-4.345.303-5.929.256 4.27 1.718 13.56 2.986 18.108 2.31 2.098-.313 3.888-1.393 6.08-1.3 2.158.092 4.294.625 6.448.818 2.636.235 5.274.136 7.905.311 1.303.087 2.588.49 3.898.445 2.275-.078 4.282-1.463 6.56-1.376 4.494.173 8.499 2.43 13.314 2.228 2.77-.117 5.3-1.163 7.885-2.056-2.394-.019-6.036-.254-7.985-1.774l-.093-.208c.845-.352 1.777-.543 2.663-.774l.377-.153c-.881-.545-12.418.076-14.2.24 1.803.196 3.31.572 4.821 1.617-1.825.016-3.636.05-5.451.257-4.185.48-5.753 1.51-10.111.121-.69-.22-1.638-.476-2.194-.95l-.064-.249c.562-.67 2.364-.857 3.205-1.085-4.932-.319-9.863-.26-14.8-.057 1.223.393 3.4.735 4.331 1.62l-.055.142c-1.662.391-3.579.17-5.296.316-1.723.146-3.339.667-5.034.86-1.994.227-4.645-.307-6.354-1.397-.285-.182-.547-.397-.813-.606 1.352-.313 2.749-.583 4.056-1.054-3.61-.084-7.21-.226-10.821-.255-1.518-.012-3.095-.101-4.603.031m156.418.03c-2.764.147-5.533-.03-8.296.076 1.911.573 3.709.962 5.544 1.787-2.539.078-5.133.14-7.64.58-1.192.209-2.433.811-3.625.882-2.206.13-7.094-1.166-8.901-2.448 1.024-.112 2.134-.177 3.113-.524-2.756-.484-5.315-.2-8.077-.085-1.709.07-3.426.058-5.137.095 1.857.43 3.598 1.08 5.39 1.718-2.4.184-4.834.127-7.226.377-1.475.155-2.855.669-4.307.892-2.781.427-6.51-.81-8.91-2.154 1.174-.016 2.204-.238 3.33-.546-3.178-.727-9.471-.189-13.056-.225q1.767.645 3.548 1.247c.476.187.95.365 1.404.601-3.413.142-6.95.103-10.263 1.019 1.95-.01 3.863-.052 5.787.321 2.999.58 5.894 1.775 8.976 1.853 4.357.109 7.964-2.129 12.124-2.364 1.968-.111 4.069.405 5.958.897.955.249 1.911.577 2.904.6 1.487.035 3.11-.42 4.602-.564l12.126-1.065c2.05-.166 4.158.482 6.188.683 3.688.363 8.811-.393 12.374-1.448-1.792-.542-3.658-.73-5.428-1.342l-.151-.052c.908-.23 1.817-.48 2.733-.682-1.695-.122-3.385-.269-5.084-.13m-75.902.498q-3.045.043-6.09.137c1.516.47 3 .876 4.365 1.71l-.167.01c-3.433.181-6.608-.126-9.992.84 4.694-.407 7.764.91 12.187 1.807 5.05.778 7.611-.442 12.266-1.703-3.25-.21-6.109-.56-9.038-2.102 1.327.01 2.57-.252 3.857-.546-2.414-.409-4.948-.263-7.388-.154m-11.757 2.743h.216zm30.691 3.125h.15zm.688.117-.095.063.133-.013.109-.082zm-24.13-.041c.489.268.73.367 1.293.334-.453-.246-.782-.316-1.293-.334m25.307.105.007.24c.253-.047.155 0 .309-.103l-.047-.22zm-48.005.138c.56.419.941.517 1.637.475-.54-.279-1.028-.438-1.637-.475m49.222.161.039.08zm-25.017-.037c.713.67 2.487.687 3.452.652a2.6 2.6 0 0 0 .443-.062c-1.14-.358-2.377-.353-3.55-.57-.175-.033-.117-.021-.346-.02m26.819.149c.65.345 1.101.385 1.824.294-.594-.247-1.187-.28-1.824-.294m-49.21.119c.772.446 1.652.518 2.53.427-.757-.288-1.72-.36-2.53-.427m6.125 1.673c-2.962.11-6.112.37-9.054.024 1.321.52 11.75 3.692 12.667 3.695.883.003 1.853-.262 2.718-.427 1.588-.301 3.22-.484 4.838-.36 3.376.26 6.409 1.87 9.799 2.073 2.332.139 4.731-.373 6.934-1.103 1.096-.364 2.163-.815 3.317-.964 2.535-.33 4.854.452 7.327.536 1.839.061 7.975-2.084 10.052-2.75-1.533-.151-3.078-.356-4.62-.335-2.31-.028-4.639-.12-6.947-.059 1.72.434 3.97.739 5.42 1.76q-3.318.116-6.631.326c-4.051.243-7.065.572-11.072-.745-.464-.152-1.221-.328-1.58-.663-.028-.028-.051-.062-.077-.092.1-.247.124-.251.367-.347.728-.288 1.591-.309 2.352-.563q-6.682-.162-13.34.422c1.709.261 3.116.792 4.578 1.712-1.434.094-2.875-.048-4.305.07-1.698.142-3.388.473-5.088.567-2.87.159-6.175-.621-8.745-1.874 1.256-.194 2.445-.574 3.652-.963-.854 0-1.71-.018-2.562.06"/><path d="M113.667 36.806c-.68-1.016-1.38-2.277-2.393-2.991-3.065-2.158-8.575 1.335-10.591.544-.026-.264-.066-.2.111-.424 1.335-1.696 4.645-2.465 6.661-2.769l.025-.004c2.792-.255 4.293.492 6.42 2.194.336-.341.675-.7 1.055-.993 1.514-1.162 3.47-1.44 5.309-1.131 2.411.404 4.506 1.428 5.935 3.451-2.693-.215-5.192-1.269-7.931-1.266-2.225.279-3.263 1.8-4.6 3.389m61.675 2.017c-.12.086-.038.038-.27.104l-.096-.426c.25.004.347.005.582.11zm-40.996 7.372c1.019-.959 1.945-1.426 3.272-1.803 1.243-.136 2.485-.062 3.684.305 1.591.487 3.058 1.388 3.855 2.89-1.802-.413-4.95-1.362-6.69-1.205-2.065.187-3.033 1.844-4.219 3.272-.832-1.181-1.412-1.87-2.766-2.437-1.219-.32-2.37-.54-3.635-.53-.893.009-4.878.724-5.327.51l-.004-.238c.537-.782 1.917-1.5 2.812-1.799 3.243-1.083 6.036-.478 9.018 1.035m-17.834 15.143c.121-.2.244-.398.38-.589 1.217-1.702 3.29-2.246 5.238-2.587.882-.103 1.813-.079 2.68.124 1.531.358 2.984 1.175 3.819 2.538 1.373-1.306 2.822-2.352 4.776-2.541 2.808-.272 4.885 1.25 6.893 2.974-2.269-.036-4.292-.608-6.496-1.067l-.184.029c-2.255.389-3.7 1.865-4.944 3.668-1.154-1.035-2-2.372-3.31-3.236-.548-.363-1.138-.61-1.8-.65-1.647-.103-5.239.965-7.052 1.337m22.287 39.573c-.42-.121-.774-.237-1.098-.54-.459-.431-.758-.882-.754-1.527.003-.52.314-.794.65-1.141.383.013.722.056 1.033.297q.081.062.155.132.075.071.14.15.067.077.124.162.058.085.105.175.048.091.086.186t.065.194.044.2.022.203c.04.65-.154 1.03-.573 1.509m29.922 21.983c-12.268 1.624-24.229-.131-36.309-2.241-1.99-.348-6.034-.843-7.674-1.603 3.375-.331 8.28.686 11.719 1.15q8.401 1.176 16.847 1.983c2.742.237 5.54.424 8.293.462 2.067.028 6.198-.276 8.013.154zm-4.482 24.31c-5.398 1.504-16.887-.173-22.529-1.07-2.072-.328-4.263-.583-6.273-1.182l.015-.139c1.738-.202 3.561.022 5.301.141 5.197.356 10.358 1.114 15.55 1.506q3.032.217 6.068.375c.8.039 1.744-.074 2.51.118zm77.007 3.777c-1.271-.156-7.169-2.093-8.427-2.695-.491-.236-1.264-.571-1.45-1.111 2.625-.161 5.607.989 7.886 2.206.565.302 1.808.988 1.991 1.6m-63.318 5.186c1.894-.317 3.741-.778 5.667-.865 1.632-.108 3.286-.005 4.857.459-1.764.484-3.576.502-5.392.585-1.709.014-3.426-.096-5.132-.18m-56.898 36.14q-.046-2.837-.033-5.674c1.118-.015 2.831-.311 3.72.49.58.52.8 1.343.829 2.096.038 1.018-.142 1.721-.846 2.453-1.201.784-2.296.69-3.67.635m35.13 7.538c.3-2.197 1.174-4.523 1.88-6.628.574.69 1.727 5.413 2.063 6.591l-1.639.004zm-35.214-3.023c1.067.032 2.125.041 3.192 0 .997-.08 2.177-.298 2.997.416.585.509.819 1.308.849 2.06.036.897-.172 1.757-.817 2.41-.643.65-1.387.677-2.245.681l-3.903-.027q-.07-2.77-.073-5.54"/></svg>