<svg xmlns="http://www.w3.org/2000/svg" viewBox="0 0 256 256"><path d="M117.138 256c-1.97-.375-4.06-.423-6.059-.637q-4.426-.516-8.8-1.37c-12.931-2.498-25.97-6.87-37.508-13.292-6.253-3.48-12.195-7.613-17.904-11.916-6.144-4.63-11.363-10.086-16.337-15.924-2.976-3.492-5.652-7.04-8.318-10.77-1.567-2.192-3.147-4.375-4.552-6.676-8.602-14.085-14.036-30.278-16.31-46.583-.434-3.115-.593-6.278-.775-9.416-.542-9.38-.564-18.937.795-28.255.878-6.022 2.553-12.002 4.282-17.83.696-2.346 1.21-4.767 1.987-7.085C11.963 73.349 18.287 60.45 26.502 49.57c2.504-3.316 5.261-6.401 8.107-9.423C44.75 29.378 56.963 19.485 70.367 13.068c2.297-1.1 4.76-1.966 7.141-2.87q3.694-1.426 7.463-2.64 3.769-1.212 7.6-2.208 3.832-.997 7.714-1.773 3.883-.777 7.803-1.33 1.243-.173 2.49-.322 1.246-.15 2.495-.275t2.5-.229q1.252-.103 2.504-.182 1.253-.08 2.507-.136t2.51-.089q1.254-.033 2.51-.042t2.51.004 2.51.05 2.509.098 2.506.144 2.504.19 2.5.237q1.248.13 2.494.283 1.246.154 2.489.33t2.482.376 2.475.422 2.466.467q1.232.245 2.458.514 1.226.268 2.448.559 1.22.29 2.436.604 1.216.313 2.425.65 1.21.335 2.413.694t2.4.739 2.385.783 2.37.828q1.181.425 2.355.872 1.173.446 2.338.915 1.164.468 2.32.958t2.302 1.001q1.147.512 2.283 1.044 1.137.533 2.264 1.086c6.588 3.188 12.852 6.619 18.7 11.052 2.302 1.745 4.423 3.654 6.591 5.557 1.981 1.739 4.018 3.432 5.935 5.241 3.152 2.976 6.148 6.2 9.082 9.39 2.09 2.272 4.269 4.527 6.108 7.008 1.5 2.024 2.802 4.175 4.129 6.313q.745 1.197 1.462 2.41.717 1.215 1.406 2.445t1.35 2.475 1.292 2.507 1.234 2.535 1.176 2.563 1.116 2.59 1.057 2.613q.514 1.314.997 2.638.482 1.325.935 2.66.452 1.336.874 2.681.42 1.346.813 2.7.39 1.356.747 2.719.36 1.363.688 2.735t.625 2.75q.294 1.378.56 2.763c.932 4.92 1.865 10.665 2.292 15.636.258 3 .138 6.163.567 9.13l.018.119v1.57l-.012.122c-.178 1.751-.098 3.568-.16 5.333-.158 4.403-.335 8.821-.95 13.187-1.58 11.249-3.868 20.776-7.938 31.45-.918 2.409-1.796 4.862-2.891 7.196-1.63 3.475-3.826 6.589-5.831 9.841-3.292 5.337-6.712 10.748-10.601 15.678-5.352 6.781-11.62 12.646-18.27 18.129-2.506 2.067-5.091 4.132-7.8 5.931-2.254 1.498-4.657 2.785-7.02 4.1-2.886 1.606-5.751 3.279-8.74 4.686-2.448 1.153-5 2.077-7.521 3.055-8.281 3.214-16.814 6.01-25.571 7.61q-5.503 1.005-11.071 1.535c-1.931.177-4.614.117-6.43.527zm79.64-94.185c-1.023 1.059-1.829 3.188-2.35 4.58-1.153-.496-2.323-.969-3.459-1.503.739-1.665 1.81-3.307 2.216-5.09-1.002 1.57-1.776 3.275-2.553 4.964-1.22-.401-2.465-.773-3.67-1.215.371-.828 1.908-3.766 1.778-4.477-.464.232-1.796 3.736-2.143 4.423q-2.115-.694-4.248-1.327c.44-1.76.97-3.497 1.483-5.237-1.113 1.313-1.54 3.499-2.001 5.134q-2.441-.62-4.891-1.202c.51-1.787 1.167-3.555 1.506-5.383-.821 1.707-1.404 3.521-1.915 5.342-1.518-.295-3.144-.474-4.626-.9.41-1.545.898-3.116 1.166-4.691-.711 1.489-1.197 3.042-1.67 4.618-1.544-.281-3.159-.412-4.682-.764.343-1.607.9-3.163 1.23-4.763-.86 1.534-1.284 3.044-1.646 4.757l-5.053-.501c.265-1.62.672-3.324.755-4.957-.638 1.618-.995 3.235-1.33 4.933-1.77-.162-3.589-.421-5.364-.43.193-1.02.877-3.617.654-4.51l-.108-.1c-.486.675-.8 3.619-1.016 4.593l-5.15-.286c.222-1.45.595-3.062.597-4.522l-.255-.111.248.002-.006-.046-.248.051c-.544 1.26-.6 3.209-.777 4.584q-2.775-.134-5.553-.165c.227-1.419.559-2.908.531-4.347-.463.351-.822 3.609-.926 4.33-.444.024-.903-.048-1.251.282-.223.212-.307.453-.317.749.134.352.204.482.516.72a7 7 0 0 0 1.043.1c-.23 2.35-.493 4.707-.632 7.064-.446.004-.984-.07-1.327.268-.254.251-.323.442-.346.789.136.352.214.492.519.738.346.067.68.096 1.03.118-.055 1-.284 2.188-.184 3.172.531-.835.5-2.152.504-3.1 1.67-.183 3.376-.145 5.054-.121-.149 1.495-.357 3.006-.285 4.51a31 31 0 0 0 .815-4.503c1.68.077 3.374.112 5.048.253-.198 1.137-.638 2.701-.372 3.826.647-.726.795-2.858.945-3.808l4.692.385c-.143.636-1.044 3.637-.979 3.916.323-.11.419-.195.57-.508.305-.628.532-3.161 1.123-3.325.746-.206 2.5.141 3.282.292.471.058.807.028 1.181.344.347 1.087-.65 2.33-.824 3.446l.103.007c.71-1.18.945-2.273 1.35-3.563 1.435.218 2.871.464 4.31.653-.24 1.257-.543 2.528-.52 3.814.487-1.233.763-2.528 1.108-3.805 1.438.255 2.934.392 4.354.718-.186.619-.996 2.543-.749 3.087l.066-.052-.062-.084.019-.158.093.095c.329-.947.6-1.899.857-2.868 1.512.274 3.02.58 4.492 1.03-.34.965-.839 2.009-1.004 3.015.582-.917.939-1.95 1.284-2.973 1.376.326 2.742.65 4.091 1.078-.454 1.401-.863 2.794-1.176 4.235-4.313-.702-8.6-1.32-12.956-1.699-5.042-.438-10.126-.591-15.183-.799-4.159-.17-8.358-.478-12.52-.376.065 1.401.037 2.79 0 4.191 9.182.062 18.361-.284 27.542-.371l11.8-.069c1.93-.022 3.94.046 5.858-.145q-2.183-.324-4.35-.739c.357-1.396.656-2.845 1.145-4.2l3.814 1.095c-.149.591-.366 1.212-.33 1.825.315-.486.388-1.22.504-1.786 1.677.5 3.278.984 4.695 2.056.465-.586.76-1.12 1.084-1.79a11 11 0 0 0-1.353-1.007c.475-.99.953-1.95 1.244-3.014-.57.953-1.07 1.959-1.587 2.941-1.127-.352-2.252-.721-3.384-1.057a30 30 0 0 0 1.949-4.543c-.892 1.416-1.56 2.97-2.167 4.526l-3.532-1.1c.675-2.038 1.4-4.121 2.22-6.105 2.692.93 7.84 2.324 9.781 4.231l1.073-1.828c-.716-.497-1.53-.827-2.32-1.187.677-1.464 1.635-3.116 2.028-4.67l.066-.06zM122.934 5.073c-7.323.282-14.512.998-21.72 2.38-2.427.466-4.823 1.071-7.232 1.62-5.697 1.295-11.651 2.848-17.03 5.169-2.17.936-4.258 2.08-6.34 3.195a134 134 0 0 0-16.06 10.102c-2.446 1.789-5.081 3.362-7.373 5.352-2.488 2.16-4.735 4.64-7.004 7.027-1.679 1.765-3.415 3.479-5.069 5.266-6.071 6.56-10.698 13.847-14.914 21.682-2.17 4.033-4.197 8.022-5.837 12.312-1.013 2.651-1.754 5.365-2.578 8.076-.694 2.281-1.524 4.524-1.991 6.868-1.31 6.564-1.894 14.578-1.996 21.288-.035 2.321.103 4.642.08 6.962-.039 3.763-.36 7.51-.221 11.28.35 9.518 2.144 18.576 5.116 27.6.594 1.802 1.086 3.764 1.952 5.453 2.965-1.146 5.378-.79 8.265.486q.5.22.979.48.48.262.934.563.456.301.883.64.428.34.825.714c.541.514 1.112 1.188 1.75 1.572.376.226 7.198 2.742 7.47 2.79.635.109 1.312-.033 1.907-.256.867-.325 1.666-.81 2.53-1.139 2.09-.798 4.499-.537 6.523.34.873.377 1.667.888 2.462 1.407 3.14-.812 5.95-1.308 8.938.37 1.186.666 1.989 1.732 2.337 3.046.102.387.156.782.203 1.179.796.01 1.593.031 2.388-.008l-.84-1.979c1.708-.94 3.437-1.665 5.259-2.342.143.589.236 1.172.59 1.675l.141-.01c.055-.625-.23-1.185-.457-1.755 1.608-.54 3.25-.918 4.87-1.41.138.661.23 1.784.818 2.194.118-.65-.323-1.715-.514-2.369 3.494-.965 7.173-1.657 10.757-2.202.223.883.476 1.73.791 2.583.113-.88-.18-1.79-.396-2.636q2.752-.499 5.532-.799c.22 1.072.396 2.112.832 3.122l.109.012c-.14-1.07-.442-2.109-.557-3.181l5.62-.558c.253 1.32.492 2.504 1.085 3.716-.08-1.272-.484-2.498-.676-3.755 1.904-.159 3.818-.264 5.72-.44.091 1.049.118 2.459.755 3.35l.087-.089c-.156-1.086-.48-2.16-.557-3.251 2.037-.124 4.085-.247 6.125-.277.14 1.005.26 1.987.602 2.948.144-.862-.122-2.053-.212-2.943 2.142-.075 4.286-.055 6.427-.121l-.046-1.706q-3.272-.022-6.544.036c-.276-2.394-.511-4.796-.811-7.187 2.194-.173 4.482-.296 6.678-.105.016-.599.055-1.206.029-1.804l-6.809.064c-.181-1.255-.34-2.462-.7-3.68l-.071-.05c.085 1.24.175 2.471.38 3.699-2.21.136-4.468.077-6.663.347-.163-1.322-.315-2.661-.739-3.931.073 1.355.143 2.63.583 3.921-2.048.137-4.093.267-6.132.505-.259-.95-.493-1.918-.857-2.835-.204.574.385 2.216.545 2.817-2.049.254-4.112.471-6.15.795-.269-1.057-.508-2.129-.921-3.14.17 1.056.37 2.142.636 3.179-1.994.332-4.11.598-6.053 1.13-.28-.924-.495-1.983-.937-2.84.127.96.394 1.906.624 2.846q-2.767.598-5.521 1.252c-.214-.655-.422-1.309-.695-1.943.04.716.246 1.325.47 1.999-1.995.422-3.949 1.027-5.9 1.614-.33-1.057-.613-2.165-1.136-3.145l-.08-.02c.189 1.108.549 2.194.959 3.238q-2.673.893-5.306 1.899c-.442-1.194-.956-2.359-1.598-3.46.355 1.219.747 2.445 1.31 3.585-1.142.581-4.092 1.825-4.702 2.805.048.422.122.68.308 1.061l.195.137c1.661-.692 3.076-1.781 4.788-2.412l.37.87q1.016 2.507 1.96 5.044c-1.797.71-3.404 1.574-5.047 2.578-1.25-3.236-2.719-6.751-4.574-9.675-1.113-.365-4.821-1.512-5.346-2.45a1.88 1.88 0 0 1-.152-1.545c.678-2.049 5.455-4.515 7.339-5.377 13.444-6.147 29.953-7.533 44.587-8.446q3.046-.18 6.097-.274c1.076-.028 2.201.031 3.27-.078.05-.74.072-1.454.036-2.196-.38.089-.772.269-1.142.055-.267-.154-.377-.41-.42-.7-.07-.482.377-1.167.712-1.477.687-.637 1.564-1.146 2.318-1.708 4.606-3.432 9.398-5.534 15.277-5.096 5.201.387 8.122 1.871 12.203 4.873.912.67 2.012 1.342 2.739 2.206.259.309.51.714.463 1.132-.029.25-.269.49-.484.599-.407.205-1.056.124-1.502.115l-.02 1.885.18.023c2.444.299 4.981.201 7.444.335 3.87.21 7.756.594 11.616.959 11.49 1.085 28.095 3.694 38.27 9.146 1.518.814 3.308 1.778 4.382 3.167.303.392.463.796.369 1.298-.187.991-1.523 1.664-2.322 2.106-.85.469-1.848.885-2.568 1.542-.759.692-4.683 6.641-5.053 7.599l.022.268c.658.198 2.48-.487 3.243-.631 1.171-.223 2.398-.38 3.592-.278 1.048.089 2.084.403 3.134.243 2.258-.345 4.334-1.37 6.653-1.521 1.623-.106 3.088.099 4.654.529.808.221 1.718.559 2.561.578.819.02 1.644-.203 2.436-.388 2.004-.468 3.501-.478 5.513-.04 2.163-3.17 5.927-5.174 9.644-5.874 1.682-.316 3.268-.33 4.88.307 2.646-6.598 4.98-13.35 6.22-20.368 1.385-7.835 1.232-15.859.967-23.771-.144-4.326.046-8.612-.335-12.94-.338-3.842-1.086-7.736-1.885-11.508-1.805-8.516-4.217-17.033-7.652-25.047-1.769-4.126-3.577-8.48-5.889-12.332-1.374-2.29-3.18-4.291-4.762-6.433-2.24-3.03-4.312-6.175-6.842-8.983-7.73-8.58-15.442-14.038-25.144-20.064-1.95-1.212-3.857-2.482-5.845-3.633q-4.787-2.767-9.77-5.162t-10.134-4.403c-2.929-1.165-5.906-1.928-8.952-2.705-5.225-1.332-10.434-2.488-15.793-3.163-2.83-.356-5.698-.487-8.54-.735-4.65-.407-9.537-.863-14.2-.426m3.25 133.351c-3.474.36-7.18 1.534-9.862 3.862 4.654-.071 9.303-.192 13.96-.136 3.07.064 6.23-.1 9.284.191-2.973-2.79-8.012-4.115-12.007-3.993-.447.014-.934.01-1.375.076m14.228 5.541c-.338.813-.312 1.747-.341 2.617-1.111.002-2.228.03-3.338-.001.022-.725.099-1.448-.14-2.144l-.176-.145c-.298.27-.35.686-.369 1.069-.02.407-.02.817-.021 1.225-1.207-.001-2.417.013-3.623-.008.029-.66.106-1.284-.14-1.91l-.202-.197c-.259.16-.332.334-.395.627-.042.19-.02.405-.02.597l-.005.914c-1.2 0-2.402.017-3.601-.006.014-.655.158-1.662-.296-2.194-.026-.03-.058-.052-.086-.078-.248.177-.326.398-.379.695-.087.487-.003 1.102.013 1.599l-3.67-.007c.022-.642.183-1.642-.285-2.15-.031-.033-.069-.059-.103-.088-.288.1-.267.126-.393.39-.251.528-.145 1.271-.129 1.842l-3.497-.005c.022-.64.172-1.565-.273-2.087q-.044-.048-.094-.089c-.265.077-.176.002-.32.245-.338.567-.249 1.299-.238 1.934l-2.984.01c-.006-.83.015-1.636-.209-2.442l-.136-.112c-.624.999-.52 4.911-.258 6.102.055.251.16.391.356.549.21-.146.203-.22.246-.465.154-.864.056-1.889.055-2.769l1.451-.016 1.508.002c-.007.811-.093 1.689.18 2.463l.049.138q.055.153.118.303l.183.056c.54-.815.375-2.052.358-2.993 1.176.003 2.365-.029 3.54.04-.011.99-.165 2.23.38 3.103l.187-.006c.52-.93.386-2.042.373-3.072l3.638.005c-.014.929-.178 2.333.337 3.128.27-.198.323-.63.372-.957.104-.696.056-1.448.052-2.152 1.208.001 2.418-.014 3.625.005-.019.905-.129 1.836.265 2.677h.184c.409-.854.316-1.757.3-2.68l3.535-.003c-.024.978-.16 2.005.287 2.906l.158-.008c.453-.927.325-1.922.295-2.923 1.095-.053 2.179-.112 3.275-.057-.043 1.079-.166 2.224-.005 3.294l.131.1c.713-1.071.833-4.969.616-6.281-.058-.351-.08-.374-.34-.59m-29.417 5.835c-3.25.19-6.514.168-9.769.342-13.113.703-28.546 2.31-40.679 7.471-2.083.886-4.942 1.994-6.435 3.737-.306.356-.53.786-.753 1.197.712-.36 1.377-.734 2.037-1.182 8.386-5.322 26.418-8.157 36.441-9.129 6.115-.593 12.263-.837 18.398-1.114.618-.028 2.681.03 3.142-.349.087-.071.102-.2.152-.301-.815-.72-1.504-.711-2.534-.672m31.473-.09-.293 1.318c3.884.239 7.776.323 11.661.569 11.32.716 22.864 1.945 33.898 4.641 3.463.847 7.237 2.058 10.469 3.571 1.198.561 4.127 2.542 5.242 2.639.122-.347.218-.46.056-.812-.45-.975-2.325-1.855-3.245-2.312-5.258-2.616-10.893-4.225-16.61-5.5-8.154-1.817-16.623-2.688-24.94-3.343-5.39-.424-10.83-.827-16.238-.77m-25.922 4.224c-.345.032-.641-.007-.919.21-.107 1.204.09 2.502.188 3.707q.338 3.971.727 7.937c.347 3.88.439 7.89.995 11.733.064.446.156.766.418 1.133.349.243.825.263 1.237.182.265-.052.293-.065.479-.274.248-3.058-1.746-20.466-1.167-21.65.24-.177.218-.17.514-.127.88.754.893 4.21.982 5.34.439 5.564.921 11.143 1.273 16.712 4.635-.06 9.374.116 13.995-.156.134-1.505.157-3.026.333-4.526.19-3.35.669-6.662.915-10.002.134-1.814.052-5.076.398-6.68.072-.333.255-.716.518-.937.044-.037.097-.062.145-.094l.354.226c.296 1.819.08 3.72.001 5.552q-.25 5.814-.78 11.608c-.102 1.232-.361 2.551-.337 3.779.01.464.065.855.411 1.194.24.093.388.123.631-.012.34-.19.432-.512.514-.861.521-2.196.624-5.326.871-7.683.488-4.636 1.067-9.267 1.492-13.91.075-.819.111-1.655.251-2.466zm-41.852 5.504h.117zm38.36 2.474.077.307.181-.02-.123-.297zm87.858.953.126.072zm-183.125 4.927c-.638.084-1.608.224-2.053.753-.212.252-.183.403-.17.705.231.466.62.678 1.045.952.916-.626 1.577-.973 2.73-.775 3.38.58 5.443 3.907 8.152 5.631l1.128-.551c2.117.265 3.554.67 5.184 2.132 1.582-.034 2.892.003 4.425.45 1.085-1.179 2.592-1.97 4.212-2.047 1.044-.05 1.972.237 2.863.768.557.36.989.764 1.45 1.232.453-.18.85-.294 1.156-.69.075-.285.14-.426-.024-.703-.646-1.09-3.259-1.606-4.43-1.748-2.842-.344-5.059 2.269-7.812 1.735-.666-.129-7.682-2.464-8.18-2.764-.92-.555-1.72-1.415-2.537-2.115-1.934-1.659-4.604-2.765-7.139-2.965m220.164.374c-2.526.349-4.97 1.193-7.003 2.768-.945.731-2.744 3.24-3.681 3.434-1.065.22-2.165-.567-3.226-.57-1.725-.007-3.32 1.055-5.063 1.023-2.019-.038-3.877-1.235-5.977-1.268-3.052-.047-5.436 1.5-8.268 1.628-1.212.055-2.314-.398-3.5-.505-2.015-.182-6.197.545-7.494 2.23-.223.29-.374.633-.525.964 1.99-.112 3.567-.923 5.475-1.33 3.48-1.8 4.008.062 7.124-.238.906-.087 1.567-.659 2.391-.976 2.173-.837 5.423-.737 7.687-.3.201.548.445 1.65 1.005 1.906.615.283 1.434-.02 2.013-.264 1.073-.454 2.005-1.077 2.916-1.797 1.32.375 2.502.63 3.875.675 2.925-1.677 4.596.004 6.326-3.809 1.267-.643 3.655-2.1 5.09-1.684.39.113.536.338.717.68.001.648-.597.81-.187 1.513.301.07.435.01.688-.154.792-.513 2.142-2.033 2.354-2.95.08-.344.006-.477-.167-.77-.703-.413-1.783-.324-2.57-.206m-124.21 1.538c.012.601-.013 1.188.181 1.763l.201.061c.128-.647.171-1.02-.194-1.599-.081-.128-.068-.1-.188-.225m-35.687 2.112c.116.495.398 2.358.876 2.572.063.028.13.043.194.064-.204-.766-.489-2.094-1.07-2.636m34.277 2.862c-9.575.6-19.156.976-28.69 2.106-3.787.449-7.6.912-11.316 1.793 1.096.112 2.17.156 3.27.157 13.112-.26 26.265.087 39.38.126-.072-1.422-.126-2.823-.029-4.246-.861.011-1.76-.027-2.615.064m-58.936.5c-.498.03-1.122-.013-1.552.258l-.105.28c.099.151.098.231.287.274.419.097.911.035 1.34.026 2.063-.041 3.582.194 4.852 2.015l.075.109c.169.253.251.272.53.404.34-.04.338-.026.567-.274.064-.435-.06-.73-.313-1.078-.874-1.205-2.816-1.764-4.242-1.942-.475-.059-.961-.111-1.439-.071m-35.115 5.008c-.358.012-.588-.05-.878.177-.082.99 1.262 2.27 1.865 2.998 7.367.208 14.754.131 22.124.138l36.398-.028q12.946-.08 25.893-.028c6.246.029 12.527.19 18.77.022-1.308 2.712-3.14 5.294-4.787 7.811l-5.516 8.62c-1.908 2.979-3.665 6.06-5.539 9.061l-10.462 16.54-4.367 7.016c-1.05 1.7-2.178 3.405-3.002 5.23.517.202 1.031.417 1.556.596 1.287-1.731 2.39-3.605 3.575-5.407q4.416-6.717 8.676-13.533c1.263-1.98 2.482-4.115 3.89-5.988-.463 2.132-1.723 4.404-2.669 6.373-2.371 4.936-4.887 9.695-7.724 14.382-1.011 1.672-1.993 3.376-3.122 4.972.597.244 1.179.474 1.802.644 2.064-4.581 4.787-9.014 7.548-13.208.671-1.019 1.317-2.18 2.157-3.062l.115-.122.07-.072q-2.347 5.808-4.81 11.568c-.813 1.867-1.772 3.704-2.511 5.596.422.173.846.369 1.283.502 1.706-3.691 5.2-11.494 7.665-14.364l-3.49 10.284c-.521 1.573-1.135 3.137-1.526 4.748 7.117 1.576 14.041 2.219 21.325 2.23q.48-7.384 1.102-14.758c.125-1.338.06-2.78.325-4.094.097-.483.267-1.004.635-1.352.281-.266.597-.365.978-.357.537.012 1.093.39 1.417.795.332.416.508.941.557 1.467.154 1.647-.01 3.479-.037 5.143-.074 4.436-.298 8.844-.22 13.285l1.587-.043c.03-4.436-.224-8.87-.31-13.304-.035-1.813-.22-3.814.043-5.608.065-.445.198-.837.527-1.157.407-.396 1.003-.531 1.556-.51.418.016.816.188 1.078.522.584.746 1.394 17.518 1.836 19.926 7.216-.484 14.676-1.303 21.675-3.177-1.077-2.897-2.006-5.846-2.97-8.782-.576-1.754-1.306-3.587-1.678-5.391 2.278 3.798 4.026 7.883 6.06 11.816.335.729.665 1.648 1.55 1.856.135.032.157.021.277.008.183-.277.206-.404.143-.736-.232-1.203-1.198-2.697-1.741-3.82-1.49-3.08-4.361-8.8-4.959-12.012 1.219 1.485 2.206 3.214 3.223 4.841 2.227 3.561 4.296 7.17 6.341 10.836.43-.125.882-.23 1.292-.407-1.462-2.817-3.138-5.508-4.643-8.3-1.856-3.44-3.52-6.97-5.258-10.47-1.275-2.567-2.793-5.278-3.705-7.999 1.768 1.88 3.057 4.624 4.397 6.834 2.389 3.938 4.848 7.809 7.177 11.787 1.446 2.472 2.726 5.113 4.309 7.495l2.522-.628c-.64-1.322-1.506-2.54-2.293-3.777-1.383-2.176-2.787-4.347-4.143-6.54q-7.79-12.883-16.074-25.457-4.283-6.513-8.354-13.161c-1.022-1.672-2.263-3.39-3.11-5.144q35.795-.122 71.59.16l19.465.181c2.88.019 6.677-.24 9.463.155.849-1.071 1.593-2.142 2.187-3.376l-125.843.314zm177.127 5.002-36.818.065c-6.967.021-13.973.213-20.936.023.317.452.623.915.962 1.351l37.045.031 57.146-.02c.26-.398.546-.795.755-1.222-5.121-.011-10.233-.187-15.353-.246q-11.4-.074-22.801.018m-144.625.125-19.208.032c-3.31-.002-6.652-.115-9.956-.011-.353.011-.728.005-1.04.186l-.046.156c.309.506.801.787 1.37.928 1.046.26 3.048.011 4.195.006l11.718-.039 49.748-.039 17.908.022c4.011.01 8.022.09 12.032-.054.216-.416.442-.829.638-1.254zm166.334 2.62c-9.39.286-18.836.11-28.234.17q-24.632.17-49.265.02c.262.456.518.918.791 1.369l14.405-.012 65.794-.167 6.865-.006c1.098.01 2.291.161 3.379.069a.96.96 0 0 0 .69-.332c.237-.251.373-.706.502-1.022-4.969-.026-9.961.038-14.927-.088m-136.145.13-40.383.035-11.584-.016c-1.905-.005-3.836-.076-5.739-.008-.366.012-.764.041-1.104.188l-.163.272c.63.558 1.441.756 2.267.829 1.132.099 2.31-.012 3.448-.016l6.955.002 22.77.022 28.638-.031c9.657.055 19.636.263 29.266.031.261-.422.548-.841.784-1.278zm-48.314 3c-1.276.013-6.997-.226-7.648.286-.038.272-.027.31.145.545.18.244.428.348.719.39.679.098 1.438-.012 2.127-.02l4.591-.015 17.404-.011 56.616.003c2.289.017 4.624-.065 6.906.095.28-.422.57-.84.831-1.274-10.142-.215-20.311-.023-30.456-.032zm109.107.052 1.013 1.321 56.545-.05q9.993.139 19.987.105l6.021.019c.966.003 2.028.097 2.983-.008.383-.042.73-.282 1.047-.487.196-.225.431-.391.456-.694l-.074.049-.112-.108c-3.148-.243-6.392-.09-9.553-.079q-8.331.05-16.663.009zm-103.107 2.948-12.032.055c.315.478.614.876 1.038 1.262 2.582.195 5.253.025 7.845.013l15.035-.053 49.615.044c3.64.01 7.312.137 10.948.046.363-.472.754-.94 1.074-1.441q-11.65-.083-23.299.016-25.112-.118-50.224.058m105.374.109c.225.552.558.985.909 1.46 3.177-.174 6.393-.107 9.576-.12l17.434-.01 53.609.136c.348 0 .885.053 1.15-.193l.047-.055c.161-.348.321-.547.267-.932-.302-.16-.632-.137-.964-.146-2.23-.064-4.471 0-6.702-.014q-6.896-.073-13.793-.062l-24.783-.106-23.976-.001c-4.253.002-8.525-.087-12.775.043m-114.46 3.202c.372.546.724 1.251 1.439 1.356 1.547.228 3.263.047 4.833.08q7.08.172 14.164.09l39.46-.069c3.198.005 6.391-.092 9.588-.077 2.84.013 5.713.143 8.548.099.355-.006.651-.014.987-.148l.266-.287c.202-.285.46-.526.484-.879-2.46-.246-5.067-.085-7.542-.086l-14.802.016-29.397.057c-9.341.052-18.691.188-28.028-.153m117.194.269c.144.495.219.877.711 1.137.181.096.422.146.621.182 1.322.237 2.863-.011 4.22-.004l12.789.038 46.506.056c1.312.006 11.73.238 12.219.002.13-.062.219-.173.3-.287.198-.318.472-.607.466-.985-2.823-.264-5.808-.053-8.65-.057l-18.454-.024-32.594-.092c-6.018-.01-12.125-.231-18.134.034m2.127 3.53c.232.502.587.9.934 1.325q21.533.225 43.067.05l26.67.101c.357-.001.868.063 1.126-.187.211-.206.131-.12.316-.357.177-.253.377-.462.417-.774l-46.382-.056q-8.987-.129-17.975-.082c-2.714-.007-5.462-.107-8.173-.02m-52.962.273c-6.467.234-12.958.15-19.429.19q-21.317-.03-42.624.616c.342.38.674.78 1.045 1.13 3.111-.021 6.218-.138 9.33-.147 2.09-.122 4.179-.095 6.27-.145q10.714-.178 21.429-.1l33.936-.284c.245-.466.49-.922.777-1.365-3.552-.004-7.195-.135-10.734.105m121.657 3.994c-5.926.151-11.873.048-17.8.048-15.922-.001-31.869-.216-47.787-.008.29.455.56.892.94 1.28l42.555.1 13.412.037c2.47.003 5.07.142 7.526-.087.491-.321 1.21-.767 1.451-1.32-.233-.08-.132-.083-.297-.05m-119.93.5-39.094.892c-5.25.106-10.5.15-15.748.323-.91.03-1.828-.045-2.735.005a2.5 2.5 0 0 0-1.092.293l-.107.2c.232.37.598.5 1.018.588 1.27.265 2.833.056 4.133.009l37.319-.64q10.639-.34 21.281-.504l.76-1.199q-2.868-.028-5.735.033m62.439 3.998-4.978.035c.308.449.595.878.986 1.262 17.458-.163 34.934.134 52.394.13l3.352.01c.502-.448 1.014-.887 1.49-1.364q-11.252-.11-22.504 0zm-64.487.374-35.859.802c-5.592.131-11.205.125-16.791.325.5.408.994.852 1.533 1.208l3.196-.025L73.876 212l12.523-.223c4.298-.052 8.62-.041 12.912-.281l.869-1.267q-2.287-.012-4.571.082m62.941 4.07c.293.45.571.924.903 1.345 4.721.192 9.467-.063 14.194.022q11.889.294 23.781.26c3.105-.003 6.232.074 9.334-.027l.983-.745.307-.401c-.597-.264-16.672-.14-18.711-.157-10.265-.089-20.524-.395-30.791-.297m-65.166.552-34.365.612c-3.696.059-7.411.226-11.105.218.477.397.95.847 1.466 1.189l1.902.012c6.2.094 12.412-.197 18.611-.308l15.144-.347c3.52-.069 7.038-.049 10.556-.184l.99-1.208zm68.394 3.73a7 7 0 0 0 1.256 1.42c8.678.013 17.378.553 26.06.737 3.164.067 6.666.381 9.799.095.836-.077 1.361-.233 2.09-.67l.828-.637c-13.351.014-26.688-.647-40.033-.945m-68.894.781c-5.236.297-10.522.147-15.765.21-7.801.094-15.608.315-23.409.338l1.104.85c.403.255.767.325 1.24.347 2.315.107 4.685-.008 7.005-.017q8.502-.007 17-.261c3.957-.099 7.952.116 11.902-.122.253-.297.98-.965.977-1.321zm-4.457 4.494-17.058.429c-3.634.059-7.361-.08-10.979.184l1.412.97c1.269.498 24.193-.133 26.773-.288.276-.373.55-.745.81-1.13l-.096-.168a6 6 0 0 0-.862.003m77.779.119-.035.234q.454.558.925 1.102c5.898-.062 11.783.072 17.679.15 2.544.035 5.161.261 7.695.099.452-.029.74-.103 1.123-.335q.323-.195.644-.394l.532-.492c-.039-.119-.001-.045-.193-.157-2.365-.061-4.734.118-7.093.06-7.077-.175-14.197-.398-21.277-.267m-2.008 1.365c-.248.308-.364.47-.394.882.15.296.249.445.57.571.137.055.307.072.451.095.207-.325.35-.529.347-.93-.152-.275-.235-.385-.546-.512-.114-.047-.303-.08-.428-.106m-80.928 3.262q-7.68.047-15.359.182c.763.39 1.681.996 2.558 1.011 4.804-.017 9.702.226 14.492-.073.346-.383.683-.76.993-1.174zm87.176.621c.237.566.573.982.964 1.446 2.76.071 5.514.066 8.275.078 1.609.006 3.391.159 4.97-.123.477-.085.878-.298 1.298-.53.254-.209.485-.346.613-.655-2.099-.154-4.27.011-6.377.018-1.465.005-2.928-.123-4.393-.153-1.781-.038-3.571.005-5.35-.08m-88.225 4.006-4.835.061c.478.269.944.475 1.46.66.866.292 1.722.574 2.613.783.326-.406.874-.934 1.002-1.438-.194-.077-.11-.072-.24-.065m91.773.944q.721.999 1.408 2.022a28 28 0 0 0 2.404-1.112c.429-.268.868-.526 1.285-.812-1.7-.093-3.395-.096-5.097-.098"/><path d="M10.709 143.674c-.624-4.662-.817-9.537-1.031-14.239-.105-2.303-.145-4.663-.056-6.967.046-1.199.208-2.394.22-3.594.015-1.682-.057-3.355.016-5.039.252-5.772 1.053-11.488 2.057-17.171.38-2.157.716-4.343 1.252-6.466.464-1.838 1.145-3.648 1.741-5.448 1.2-3.624 2.39-7.136 4.044-10.589 1.715-3.577 3.824-7.022 5.84-10.437 3.721-6.299 7.963-12.51 12.918-17.913q1.648-1.8 3.371-3.53 1.722-1.73 3.516-3.386 1.793-1.655 3.655-3.234t3.787-3.078 3.914-2.917 4.032-2.75q2.046-1.332 4.145-2.578t4.249-2.401c1.17-.64 2.165-1.563 3.352-2.174 5.324-2.743 11.026-5.258 16.783-6.932 3.17-.921 6.405-1.555 9.615-2.316 4.01-.951 7.947-1.92 12.048-2.424 4.645-.57 9.34-.702 14.013-.912 2.953-.123 5.912.134 8.858.313 4.6.279 9.206.59 13.766 1.275 6.77 1.018 15.243 2.856 21.671 5.234 3.816 1.411 7.405 3.14 11.094 4.832 2.908 1.334 5.89 2.539 8.707 4.058 4.517 2.437 8.747 5.389 12.895 8.395 2.812 2.037 5.764 3.976 8.448 6.174 6.002 4.915 12.93 12.637 17.539 18.9 3.569 4.851 6.191 10.17 8.684 15.623.915 2.001 1.905 3.983 2.671 6.047.629 1.696.981 3.47 1.56 5.179.47 1.394 1.17 2.697 1.584 4.117.914 3.143 1.478 6.369 2.216 9.555.833 3.596 1.73 7.157 2.212 10.822.513 3.899.427 7.82.535 11.736.042 1.512.243 3.017.275 4.533.077 3.667-.12 7.322-.332 10.98-.168 2.899-.31 5.818-.745 8.69-4.601-.162-5.302-.15-9.308 2.325-1.023.631-2.019 1.287-3.127 1.76-2.314.986-7.624 2.174-10.22 2.67-4.23.808-8.615.536-12.901.617-3.42.065-6.793.312-10.204.492-.894.048-3.15.093-3.839-.52 1.653-1.456 17.708-1.19 20.67-1.067-5.525-2.053-11.028-1.843-16.795-1.543-1.413.074-2.962.44-4.358.16-1.573-.316-4.776-2.194-6.523-2.888-2.796-1.113-5.656-2.066-8.503-3.038-2.585-.883-5.177-1.8-7.81-2.53q-7.465-2.076-15.067-3.568-7.603-1.493-15.298-2.393-4.25-.462-8.516-.71c-1.703-.11-3.45-.139-5.139-.393l-.133-.32c.1-.476.088-.88.043-1.363l-.017-.178c-.254-2.726-.247-5.433-.855-8.119-.706 2.943-.829 6.997-.796 10.037-3.196.154-6.386.496-9.57.806q-4.565.403-9.105 1.034-4.54.632-9.043 1.49t-8.957 1.94q-4.453 1.082-8.848 2.386-5.29 1.604-10.462 3.557c-3.101 1.143-6.211 2.479-9.462 3.113-6.693 1.305-15.002-.685-21.3 1.648 3.455.395 6.955.61 10.43.763 2.675.118 5.71-.174 8.277.603-.514.243-1.032.447-1.59.567-2.445.525-5.307.24-7.81.289-2.398.046-4.798-.032-7.195-.085-3.64-.081-7.335-.134-10.915-.864-1.46-.298-2.901-.812-4.321-1.258-1.335-.42-2.7-.798-3.96-1.419-.88-.434-1.587-1.25-2.418-1.784-2.956-1.9-6.67-2.954-10.174-2.185m50.918-99.287.06.058c.595.59 2.984 2.48 3.738 2.75l.075.045-.075-.044c-.87-1.123-2.417-2.24-3.738-2.751zm8.895 8.489.064.053c.45.77 4.169 4.95 4.818 5.25-.543-1.147-3.715-4.534-4.817-5.25zM61.7 55.45l-.062.046zc1.236-.514 2.802-2.154 3.733-3.157-1.076.343-3.036 2.223-3.733 3.157m74.73-44.647c-.126.387-.174.488-.093.9.276.266.43.291.794.357.123-.338.235-.568.124-.931-.248-.26-.489-.272-.825-.326m-16.879.258c-.147.337-.24.495-.16.87.244.285.374.313.723.394.129-.309.273-.557.177-.897-.241-.269-.401-.29-.74-.367m-7.337 2.227c-.147.327-.244.535-.202.906.26.286.422.328.8.38.144-.322.244-.512.165-.874-.256-.276-.413-.317-.763-.412m41.717 1.389c-.135.357-.205.522-.126.91.296.274.496.32.889.366.11-.409.174-.534.061-.951-.293-.235-.465-.266-.824-.325m-59.711.983c-.21.33-.305.416-.305.816.25.282.457.336.805.432.135-.371.222-.498.139-.891-.219-.183-.365-.276-.64-.357m38.722.888c-.197.307-.305.45-.3.83.217.355.375.455.78.59.227-.336.32-.437.36-.85-.241-.347-.447-.441-.84-.57m-6.829 1.129c-.25.25-.563.522-.597.898a.76.76 0 0 0 .308.713c.187.143.487.2.716.232.234-.259.514-.537.539-.907a.77.77 0 0 0-.297-.67c-.18-.138-.453-.208-.669-.266m-45.646 1.02c-.258.283-.366.362-.451.743.134.387.377.53.7.75.252-.276.41-.437.468-.824-.165-.39-.322-.505-.717-.669m58.067.492c-.123.39-.165.478-.071.89.278.276.46.31.827.398.103-.356.192-.605.093-.979-.31-.264-.454-.249-.849-.309m-32.47.618c-.18.364-.262.48-.247.896.282.292.38.3.759.404.145-.342.295-.597.187-.976-.233-.24-.374-.268-.699-.324m57.168.03c-.194.32-.3.47-.289.86.206.314.402.425.746.563.188-.314.319-.507.298-.89-.219-.323-.39-.414-.755-.533m-16.806 1.341c-.118.385-.165.49-.083.897.272.273.429.302.791.378.11-.339.232-.597.098-.949-.28-.256-.445-.271-.806-.326m-54.424.986c-.201.303-.378.515-.361.897.205.313.377.403.727.54.185-.314.363-.541.308-.922-.213-.292-.358-.368-.674-.515m87.34 1.63c-.103.388-.174.527-.065.92.26.209.43.295.752.377.154-.344.29-.58.203-.967-.282-.265-.513-.294-.89-.33m-58.605.836c-.995.465-2.041.906-2.972 1.489-4.35 2.724-7.583 7.076-9.314 11.865-2.235 6.179-1.98 13.388.826 19.35q.126.27.26.537.133.267.272.53.14.265.286.525t.299.517.31.51q.16.252.324.501.165.249.336.494.17.245.347.485t.36.477.371.467q.189.232.383.459t.393.449.405.439.415.429.425.418.436.408.446.397.455.386.465.376.473.363.483.352q.243.172.49.34.248.166.5.327.251.16.507.315.255.155.514.303.26.148.522.29.263.141.529.276t.535.265.542.25.548.238.553.224.559.21c5.914 2.076 12.551 1.95 18.236-.803 3.745-1.814 6.808-4.496 9.335-7.776 1.85-2.54 3.194-5.355 3.85-8.44-1.334 1.53-2.578 3.148-4.013 4.587-4.034 4.045-9.338 6.73-15.072 7.1q-.264.016-.528.026-.263.01-.527.013-.263.003-.527 0-.264-.004-.528-.014t-.527-.026-.526-.04-.525-.052-.523-.065q-.262-.036-.522-.079-.26-.042-.52-.091-.259-.049-.517-.105t-.514-.117-.512-.13q-.254-.067-.507-.142-.254-.074-.505-.155-.251-.08-.5-.168-.249-.086-.496-.18-.247-.093-.491-.192-.245-.099-.487-.204t-.48-.216-.476-.228-.47-.24-.464-.252q-.23-.129-.457-.263-.227-.135-.45-.275-.225-.14-.445-.285t-.436-.297q-.216-.15-.429-.306-.213-.157-.421-.318-.209-.162-.413-.328-.205-.167-.405-.338t-.396-.349c-4.194-3.735-7.054-9.147-7.37-14.788-.383-6.84 1.631-12.396 6.225-17.472.674-.743 1.411-1.415 2.124-2.12zm-45.908.173c-.177.361-.272.463-.22.871.208.2.354.3.625.403.222-.34.347-.469.376-.88-.245-.277-.422-.331-.781-.394m50.727 1.375c-.117.334-.229.563-.108.916.28.279.483.305.854.362.14-.327.233-.524.164-.89-.304-.296-.486-.327-.91-.388m11.764.06c-.318.346-.624.71-.588 1.216.024.334.125.566.392.776.348.276.71.28 1.128.274.37-.333.66-.658.684-1.183a1 1 0 0 0-.356-.806c-.379-.333-.794-.305-1.26-.277m-68.186.303c-.272.27-.479.44-.54.838.16.382.352.513.733.68.215-.299.362-.488.387-.871-.17-.371-.24-.412-.58-.647m13.546.256c-.21.31-.324.445-.314.836.226.29.401.359.78.398q.054.005.11.005c.195-.347.306-.468.293-.873-.287-.265-.484-.303-.869-.366m21.816.444c-.383.35-.662.632-.691 1.185-.017.329.112.612.358.828.378.333.8.293 1.264.26.341-.364.61-.68.586-1.215-.016-.338-.159-.58-.425-.784-.34-.259-.683-.277-1.092-.274m52.464.509c-.434.182-.785.36-.938.847-.098.313-.04.607.129.88.228.367.564.49.966.594.463-.18.856-.334 1.035-.848a.98.98 0 0 0-.097-.861c-.263-.42-.646-.515-1.095-.612m-67.391.552c-.152.323-.245.53-.222.9.154.245.219.346.523.423.1.026.262.025.37.028.139-.347.268-.588.161-.967-.28-.267-.468-.3-.832-.384m93.906.68c-.362.39-.645.703-.606 1.275.02.312.17.578.428.756.306.21.697.223 1.054.19.365-.319.648-.607.662-1.128a1.03 1.03 0 0 0-.413-.831c-.36-.263-.702-.264-1.125-.262m8.587.204c-.113.4-.174.524-.071.938.295.244.451.273.816.326.151-.33.243-.521.183-.896-.306-.293-.52-.319-.928-.368m-115.135 1.37c-.142.34-.226.514-.177.892.223.29.388.388.764.453q.054.008.108.013c.152-.344.288-.591.227-.979-.286-.312-.496-.36-.922-.38m43.007 2.623c-.151.364-.224.517-.138.919.302.274.463.317.878.362.119-.355.212-.586.11-.964-.29-.279-.44-.304-.85-.317m-22.63.271c-.05.39-.12.675.082 1.035.333.169.505.16.874.111.081-.33.148-.537.015-.869-.287-.266-.603-.254-.972-.277m80.94 1.665c-.455.186-.805.352-.973.856-.1.303-.056.6.109.87.232.379.584.489.985.588.462-.178.819-.326 1.007-.831a.98.98 0 0 0-.074-.866c-.244-.419-.62-.514-1.054-.617m-112.646.419c-.194.374-.278.464-.24.894.263.275.411.323.766.417.179-.355.303-.504.276-.906-.25-.273-.459-.32-.802-.405m69.376.548c-.25.24-.416.38-.48.739.117.353.242.5.585.681q.06.029.121.056c.252-.297.408-.464.436-.873-.168-.343-.31-.436-.662-.603m-81.667.09c-.102.384-.149.485-.041.88.285.239.453.238.81.269.105-.352.163-.472.086-.84-.295-.235-.482-.282-.855-.31m96.283.059c-.394.332-.743.673-.768 1.223-.016.35.05.613.301.87.376.382.793.352 1.283.33.388-.355.697-.676.713-1.232a1.09 1.09 0 0 0-.378-.853c-.33-.29-.736-.326-1.151-.338m14.506.22c-.32.378-.57.695-.521 1.224a.95.95 0 0 0 .462.724c.286.173.651.16.974.133.32-.374.602-.745.526-1.27a.96.96 0 0 0-.491-.678c-.284-.154-.636-.131-.95-.132m27.427.635c-.862 3.814.14 8.396-1.815 11.94-2.513 1.134-5.563 1.177-8.259 1.67 2.192.077 6.765.228 8.249 1.92 1.438 1.64 1.685 6.703 1.695 8.973l.15.501.106-.028c.614-2.39.085-8.892 2.359-10.162 1.694-.947 4.025-.608 5.794-1.354l-.147-.039c-2.139-.54-5.645-.283-6.905-2.421-1.187-2.017-.574-8.163-1.227-11m7.221.462c-.198.346-.3.46-.3.865.238.31.415.358.77.484.194-.313.305-.457.29-.84-.242-.323-.395-.353-.76-.509m6.458.117c-.125.386-.206.534-.127.938.279.265.494.292.856.35.15-.328.245-.521.183-.894-.298-.326-.461-.365-.912-.394m-122.342.431c-.376.34-.692.624-.73 1.168a.95.95 0 0 0 .355.835c.356.3.733.295 1.167.287.364-.32.681-.595.712-1.117a.99.99 0 0 0-.337-.8c-.35-.322-.722-.358-1.168-.373m42.875.261c-.437.339-.77.639-.863 1.209-.052.317.008.62.225.868.316.362.72.382 1.162.393.411-.285.757-.551.84-1.083.054-.347.02-.614-.2-.899-.31-.402-.698-.455-1.165-.488M68.1 39.805c-.416 2.636.073 7.243-2.262 9.043-1.206.93-4.047 1.23-5.556 1.457-.584.089-1.297.083-1.839.324.324.316 5.717-.112 7.712 1.993 1.948 2.056 1.191 7.701 1.864 8.428l.064-.01c.326-2.2.433-7.605 2.212-8.962 2.09-1.597 5.674-1.16 8.165-1.668-2.37-.247-6.978-.261-8.59-2.266-1.792-2.228-.902-6.828-1.77-8.339m24.332-.001c-.15.326-.24.524-.202.896.231.31.383.41.785.46q.054.006.11.008c.15-.35.243-.553.168-.946-.284-.296-.45-.35-.861-.418m-45.119.985c-.1.398-.171.53-.044.928.295.175.471.206.813.223.145-.377.209-.459.123-.864-.278-.256-.526-.262-.892-.287m89.633.76c-.164.329-.266.517-.207.898.26.29.427.33.816.39.105-.402.172-.54.06-.95-.23-.173-.39-.265-.67-.338m68.972.882c-.112.333-.194.5-.082.849.278.258.523.253.881.284.098-.322.18-.491.06-.822-.32-.252-.464-.249-.859-.311m-22.687.867c-.206.344-.32.47-.33.878.195.302.356.39.66.561.214-.33.316-.517.325-.927-.216-.337-.283-.348-.655-.512m-128.764.411c-.212.286-.312.37-.347.731.172.326.375.417.687.579.206-.355.312-.467.307-.885-.202-.245-.354-.312-.647-.425m31.949-.022c-.115.306-.21.491-.144.822.283.254.448.24.816.306.094-.367.167-.51.06-.88-.267-.178-.412-.225-.732-.248m-11.264 1.286c-.639.436-3.89 2.406-4.027 2.721l.183.05c.725-.418 3.678-2.024 4.002-2.648-.118-.128-.055-.106-.158-.123m99.95 1.318c-.177.344-.317.573-.268.975.266.31.41.366.819.438.179-.32.319-.525.271-.908-.278-.329-.427-.356-.821-.505m-31.648.377c-.126.371-.25.635-.116 1.025.322.228.463.22.848.263.119-.357.217-.58.084-.955-.256-.244-.482-.272-.816-.333m-44.164.687c-.356.376-.691.728-.671 1.286.012.337.099.6.368.82.42.34.855.277 1.348.203.359-.308.604-.569.63-1.076.022-.394-.157-.718-.448-.967-.369-.317-.772-.292-1.227-.266m-17.007.209c-.122.374-.182.452-.07.841.305.205.458.233.811.26.14-.351.203-.44.138-.822-.28-.252-.523-.249-.879-.279m76.279-.02c-.116.363-.206.581-.069.959.3.263.48.275.86.325.133-.353.236-.576.135-.96-.305-.288-.502-.308-.927-.324m47.028.26c-.292.42-.56.792-.449 1.331a.73.73 0 0 0 .31.457c.278.196.648.172.969.17.224-.304.463-.626.442-1.026a.92.92 0 0 0-.423-.73c-.244-.164-.567-.187-.85-.202m-56.255.256c-.219.3-.336.434-.349.82.158.35.379.453.696.633.208-.307.364-.501.354-.89-.23-.34-.346-.38-.7-.563m-22.146.483c-.115.374-.228.637-.089 1.026.29.29.521.306.918.35.145-.35.238-.548.144-.934-.28-.338-.55-.396-.973-.442m-81.152.27c-.148.345-.256.559-.174.944.296.273.43.294.841.31.127-.347.204-.504.1-.875-.268-.257-.419-.298-.767-.379m167.383 1.985c-.047.369-.084.59.093.938.334.168.502.158.879.086.035-.367.062-.476-.083-.81-.297-.207-.542-.2-.89-.214m-93.836.503c-.24.321-.338.417-.395.822.164.29.305.427.572.623.267-.328.407-.44.474-.864-.183-.332-.33-.407-.651-.581m50.038.553c-.418.326-.814.644-.857 1.213-.025.338.032.608.258.87.357.414.752.441 1.26.474.435-.296.751-.564.863-1.101.07-.333.011-.666-.192-.945-.277-.38-.616-.477-1.062-.504a4 4 0 0 0-.27-.006m-32.078 1.957c-.117.367-.169.476-.094.864.267.268.435.284.792.349.153-.363.231-.484.189-.883-.298-.253-.501-.282-.887-.33m44.528.25c-.181.316-.312.507-.263.888.232.318.396.375.75.512.207-.366.267-.445.263-.88-.205-.314-.396-.41-.75-.52m-102.369.873c-.114.35-.199.571-.1.943.29.293.46.36.881.41.172-.343.282-.536.206-.933-.311-.326-.532-.395-.987-.42m47.992.38c-.153.339-.242.499-.182.879.303.295.516.327.923.385.12-.387.196-.533.113-.937-.295-.244-.488-.266-.854-.326m-31.283.497c-.117.359-.178.508-.058.884.256.28.407.314.762.402.125-.368.243-.628.125-1.018-.28-.226-.463-.253-.829-.268m-7.129.483c-.05.373-.091.59.1.938.312.138.384.124.727.087.055-.361.093-.472-.041-.82-.29-.176-.457-.187-.786-.205m72.773.008c-.212.34-.286.416-.292.827.255.319.41.395.806.517.177-.36.266-.476.238-.883-.231-.284-.42-.338-.752-.461m46.34-.002c-.053.374-.114.64.06.995.332.211.534.22.925.197.093-.364.153-.566 0-.932-.31-.25-.607-.236-.986-.26m10.559.995c-.154.324-.253.53-.225.901.196.29.242.348.592.449.049.014.1.018.15.027.146-.35.282-.605.202-.995-.235-.278-.38-.301-.72-.382M34.429 58.43c-.1.349-.164.461-.066.819.24.184.394.264.689.331.14-.334.228-.468.187-.833-.287-.251-.442-.247-.81-.317m66.758 1.997c-.143.325-.236.517-.171.883.284.293.386.3.768.405.147-.326.248-.533.2-.902-.272-.288-.393-.322-.797-.386m-46.465.369c-.204.357-.288.447-.278.868.236.294.413.352.755.48.18-.316.312-.511.271-.892-.23-.292-.379-.361-.748-.456m169.862 1.123c-.108.362-.228.632-.078 1.002.249.221.41.278.732.35.176-.328.294-.515.228-.902-.291-.314-.457-.364-.882-.45m-68.222 1.079c-.443.285-.743.53-.851 1.068a1.1 1.1 0 0 0 .18.899c.276.382.609.468 1.047.495.145.008.16.006.288.003.403-.266.696-.505.82-1.001a1.05 1.05 0 0 0-.169-.89c-.292-.415-.675-.5-1.149-.556zm18.604.166c-.156.326-.263.525-.205.9.25.284.34.31.701.439.141-.34.256-.558.16-.934-.218-.241-.345-.313-.656-.405m40.23.523c-.12.333-.227.56-.12.917.31.226.432.224.804.272.132-.338.207-.46.161-.827-.298-.267-.461-.274-.845-.362M63.731 65.282c-.18.365-.269.48-.242.893.24.264.398.35.718.482.194-.3.313-.48.318-.852-.213-.35-.393-.416-.794-.523m27.84.532c-.153.39-.217.601-.14 1.017.176.224.265.345.564.411.099.022.25.013.354.01.145-.385.267-.64.158-1.059-.326-.288-.5-.324-.936-.38m111.655.273c-.24.316-.317.39-.37.795.17.347.389.435.716.601.202-.303.331-.483.33-.864-.223-.348-.314-.364-.676-.532m-161.602.905c-.373.334-.682.611-.738 1.144-.035.326.045.61.274.849.346.362.735.386 1.2.398.41-.257.697-.445.805-.95.061-.286.034-.57-.123-.822q-.067-.107-.152-.2-.086-.093-.188-.167t-.215-.129-.237-.085c-.19-.049-.43-.037-.626-.038m123.803-.062c-.137.339-.224.506-.151.878.284.28.45.315.854.347.107-.319.231-.567.105-.9-.283-.254-.447-.27-.808-.325m-62.356.37c-.158.363-.239.514-.153.917.275.27.355.294.73.397.103-.345.216-.601.075-.955-.226-.197-.36-.286-.653-.358m118.285 1.534c-.398.311-.766.653-.846 1.18-.05.327-.02.61.175.886.329.463.755.484 1.273.531.42-.25.705-.503.812-1.002.072-.335 0-.669-.19-.955-.313-.475-.704-.552-1.225-.64m-188.982.574c-.181.312-.352.534-.294.91.227.307.391.343.739.455.15-.313.298-.544.219-.902-.213-.251-.36-.34-.664-.463m79.993.249c-.2.289-.353.478-.353.845.227.341.4.409.796.531.194-.296.328-.472.305-.845-.209-.299-.41-.407-.748-.531M73.47 70.985c-.307.397-.546.737-.482 1.27.039.32.206.562.48.728.366.222.77.184 1.172.132.309-.383.573-.748.528-1.264a.85.85 0 0 0-.254-.559c-.374-.385-.958-.335-1.444-.307m92.956.066c-.102.351-.161.474-.08.838.267.261.492.27.844.314.112-.359.174-.478.097-.853-.276-.259-.505-.262-.861-.299m-7.458.111c-.129.353-.242.447-.08.797l.475.252c.109-.336.189-.471.111-.822a1.4 1.4 0 0 0-.506-.227m-50.885.27c-.111.347-.202.565-.071.927.3.22.464.26.847.264.147-.392.231-.51.145-.928-.304-.238-.553-.238-.922-.263m-21.276.367c-.134.385-.182.543-.082.956.245.312.42.386.8.479.115-.373.232-.664.14-1.059-.288-.299-.442-.325-.858-.376m142.024 1.857c-.064.387-.133.659.039 1.031.317.184.397.184.767.189.089-.348.159-.57.035-.925-.28-.257-.482-.264-.841-.294m-170.004.148c-.122.399-.19.528-.097.944.26.231.418.25.748.303.158-.368.25-.498.2-.903-.243-.265-.515-.282-.85-.344m95.961.005c-.096.35-.139.404-.018.739.225.138.396.229.655.286.112-.357.187-.465.08-.831-.264-.157-.41-.186-.717-.194m29.674.3c-.376.333-.671.609-.713 1.148-.026.337.077.646.32.885.345.341.706.354 1.155.353.401-.312.723-.618.774-1.154a1.06 1.06 0 0 0-.338-.867c-.347-.333-.749-.353-1.198-.366m24.406.298c-.212.368-.32.487-.316.92.24.293.402.35.746.474.238-.322.318-.398.363-.808-.23-.347-.403-.444-.793-.586m-160.78.139c-.217.297-.341.393-.36.767.2.298.422.382.737.522.215-.339.3-.419.303-.83-.212-.276-.355-.343-.68-.46m73.26-.004c-.207.29-.34.457-.337.832.227.317.353.355.696.52.203-.306.32-.45.317-.832-.185-.291-.353-.399-.676-.52m17.065.389c-.082.346-.136.469-.037.817.287.225.468.261.815.327.12-.386.195-.53.11-.932-.29-.233-.535-.209-.888-.212m63.114.766-.026.11c-.537 2.468.556 7.349-1.845 9.023-1.378.962-3.644.808-5.229 1.328 1.76.143 4.519.023 5.777 1.458 1.398 1.596 1.208 6.613 1.507 8.793.221-2.119-.162-7.767 1.534-9.103 1.39-1.094 3.951-1.15 5.646-1.403l-.177-.044c-1.678-.398-4.97-.191-5.938-1.795-1.493-2.476-.552-6.812-1.249-8.367M24.43 76.802c-.11.325-.2.5-.097.843.27.265.411.288.769.35.109-.37.187-.502.086-.88-.261-.203-.435-.253-.758-.313m7.894.365c-.121.36-.19.478-.114.859.257.219.411.248.743.291.12-.365.183-.458.085-.84-.245-.208-.4-.252-.714-.31m34.028.004c-.187.284-.34.467-.308.826.225.282.409.356.758.453.19-.347.267-.428.243-.832-.223-.26-.371-.334-.693-.447m20.736.061c-.422.274-.733.534-.82 1.059-.052.313.034.61.223.862.288.381.6.465 1.049.493l.246.013c.385-.29.725-.57.807-1.08.05-.31-.046-.595-.248-.832-.34-.4-.769-.46-1.257-.515m107.132 2.709c-.251.313-.351.388-.4.796.2.315.414.416.733.579.252-.337.375-.437.414-.864-.213-.31-.413-.381-.747-.511m-151.79.096c-.091.348-.182.584-.031.933.248.189.402.273.709.336.16-.377.252-.505.2-.92-.253-.274-.528-.293-.877-.349m73.409.384c-.276.254-.443.396-.52.783.133.322.18.404.5.582.126.07.322.11.457.149.234-.298.354-.434.391-.825-.207-.421-.383-.529-.828-.69m56.642.127c-.209.288-.344.454-.344.829.204.346.4.46.778.583.211-.295.34-.457.334-.84-.223-.335-.39-.428-.768-.572m-38.103.647.02.491c.264.231.358.206.713.246l-.017-.49c-.257-.219-.376-.2-.716-.247m-34.452 1.774c-.469 2.175-.139 4.583-1.317 6.554-2.028.772-4.015 1.028-6.113 1.5 1.468.115 5.374.255 6.257 1.365.87 1.091 1.203 5.932 1.432 6.07.2-1.638.244-5.15 1.595-6.257 1.316-1.078 4.216-1.133 5.888-1.339-1.999-.296-4.545-.434-6.303-1.511-.265-.52-.506-1.023-.651-1.592-.301-1.18-.218-3.945-.788-4.79m25.988.091c-.143.348-.191.414-.127.778.207.163.34.26.599.316.183-.33.233-.372.196-.74-.233-.215-.358-.288-.668-.354m109.29.23c-.133.342-.213.53-.109.903.228.226.37.307.675.401.142-.389.234-.538.164-.953-.251-.219-.406-.28-.73-.352m-206.157.813c-.184 1.694-.188 4.067-1.587 5.25-1.17.992-3.32 1.33-4.794 1.584 1.865.217 4.18.34 5.407 1.972.83 1.105 1.018 2.68 1.11 4.027l.104-.091c.26-1.676.399-3.447 1.89-4.535 1.419-1.036 3.392-1.208 5.077-1.416-1.928-.211-4.43-.42-5.777-2.005-1.1-1.294-.841-4.203-1.43-4.786m158.284.56c-.132.361-.234.585-.117.973.276.274.454.28.823.335.102-.359.186-.598.073-.971-.302-.254-.387-.266-.78-.337m-135.633.189c-.39.268-.684.495-.755 1.003-.046.325.074.644.296.881.314.338.706.373 1.134.399.415-.279.738-.52.809-1.056.045-.343-.086-.596-.314-.841-.296-.32-.764-.356-1.17-.386m11.704.703c-.19.31-.284.465-.302.84.127.265.17.365.46.491.134.059.373.076.511.096.203-.324.356-.532.335-.932-.227-.326-.423-.408-.826-.473q-.088-.013-.178-.022m99.803.292c-.405.375-.67.678-.681 1.254-.006.34.097.614.353.846.33.297.673.297 1.083.277.411-.288.73-.547.789-1.086.035-.325-.088-.603-.306-.836-.348-.37-.763-.415-1.239-.455m66.105.006c-.202 1.788-.18 4.343-1.7 5.564-1.247 1-3.328 1.02-4.867 1.187 1.817.468 4.593.654 5.644 2.425.755 1.27.692 3.012 1.007 4.432l.15-1.388c.19-1.407.337-2.93 1.528-3.887 1.612-1.296 5.403-1.053 5.55-1.301l.065.083.218-.04c-.45-.238-1.134-.188-1.637-.255-1.976-.267-4.74-.869-5.315-3.136-.254-1-.06-2.888-.643-3.684m-50.115 2.073c-.156.325-.255.518-.206.891.22.276.39.364.736.443.162-.35.284-.568.212-.965-.28-.281-.35-.282-.742-.369m-64.234 1.609c-.217.333-.308.43-.334.837.189.321.36.378.684.527.202-.355.306-.476.306-.892-.2-.266-.352-.343-.656-.472m35.003.95c-.381.323-.717.616-.757 1.152-.026.345.031.624.261.894.387.451.85.463 1.399.462.366-.31.727-.667.733-1.184.004-.35-.094-.634-.347-.883-.366-.36-.801-.419-1.289-.442m-26.354.26c-.343.36-.648.725-.656 1.249a1 1 0 0 0 .372.79c.431.363.91.318 1.435.282.314-.377.604-.795.578-1.312a1.04 1.04 0 0 0-.46-.796c-.395-.278-.816-.251-1.269-.212m-77.428 1.67c-.089.316-.197.577-.08.901.259.245.445.256.783.315.13-.328.223-.522.124-.88-.248-.271-.485-.282-.827-.337m123.667.498c-.197.292-.335.47-.33.84.227.338.401.408.798.522.182-.363.274-.476.245-.89-.224-.279-.392-.342-.714-.472m39.392.059c-.21.28-.348.418-.356.783.202.311.332.405.706.496l.105.02c.175-.375.257-.47.202-.89-.216-.22-.368-.304-.657-.41m9.674.21c-.103.326-.185.498-.077.837.251.226.399.256.73.303.138-.379.204-.46.106-.863-.264-.204-.43-.235-.758-.277m-202.969.116c-.15.343-.232.525-.142.91.316.256.432.24.826.29.133-.34.207-.453.151-.82-.25-.278-.487-.307-.835-.38m143.002 1.116c-.119.346-.222.586-.13.956.298.265.448.263.832.341.108-.36.231-.637.09-1.007-.283-.242-.437-.251-.793-.29m-23.528 1.043c-.412 2.16-.026 4.855-1.23 6.754-1.547.847-3.27 1.066-4.974 1.438 1.516.094 3.935.442 5.014 1.614 1.473 1.6.395 5.264 1.385 6.29l.036-.155c.393-1.787.225-5.681 1.736-6.7 1.192-.802 3.052-.942 4.444-1.117-1.48-.263-4.356-.34-5.281-1.681-1.009-1.463-.266-5.632-1.13-6.443m-59.301.16c-.328.367-.603.724-.53 1.247.044.326.267.578.545.735.353.199.75.165 1.138.127.283-.38.54-.785.482-1.284-.034-.298-.21-.534-.463-.688-.361-.22-.772-.183-1.172-.136m9.55.684c-.197.336-.275.403-.251.802.234.286.452.38.781.519.167-.37.273-.506.224-.914-.255-.231-.436-.3-.753-.407m98.406.633c-.118.353-.205.57-.095.944.319.262.564.291.966.324.108-.367.186-.58.042-.957-.292-.267-.54-.272-.913-.311m52.756 1.985c-.19.258-.356.436-.347.773.236.31.34.335.689.483.244-.304.304-.357.352-.738-.236-.32-.344-.355-.694-.518m-145.592.505c-.215.361-.323.464-.312.894.207.235.359.355.64.492.194-.304.337-.491.309-.87-.18-.294-.34-.364-.637-.516m101.215 1.985c-.119.357-.217.59-.103.967.298.23.392.227.772.273.124-.37.2-.49.113-.879-.275-.244-.434-.286-.782-.361m-169.136.911c-.246.307-.306.362-.355.746.203.304.372.4.713.535.2-.337.29-.444.304-.844-.206-.269-.357-.32-.662-.437m17.495.651c-.289.245-.534.448-.601.848a.93.93 0 0 0 .256.83c.274.282.615.318.985.336.271-.24.588-.49.637-.876a.85.85 0 0 0-.268-.745c-.273-.267-.65-.334-1.01-.393m132.461.257c-.421.37-.726.669-.778 1.251-.029.322.037.63.265.872.34.362.742.375 1.198.36.389-.286.751-.579.813-1.096.038-.325-.003-.618-.21-.883-.34-.438-.774-.48-1.288-.504m44.788 1.573c-.15.35-.2.427-.15.799.268.253.484.284.832.346.097-.369.152-.466.036-.84a1.46 1.46 0 0 0-.718-.305m-54.377.127c-.139.34-.226.508-.156.881.286.28.475.326.863.374.121-.34.204-.503.1-.863-.267-.294-.434-.314-.807-.391m-62.484.6c-.098.348-.196.588-.05.942.244.22.385.276.706.34.151-.388.232-.513.167-.933-.258-.261-.479-.287-.823-.35m16.379.029c-.175.297-.306.477-.257.839.231.32.395.37.75.501.187-.317.328-.51.277-.895-.242-.288-.395-.356-.77-.445m-8.346.564c-.242.306-.475.597-.437 1.013.028.319.186.55.456.719.296.185.65.127.974.09.252-.256.52-.518.56-.9.029-.29-.08-.514-.297-.704-.346-.303-.833-.242-1.256-.218m35.712.036c-.108.361-.199.593-.068.967.263.228.414.275.756.33.132-.402.206-.53.117-.953-.285-.248-.447-.28-.805-.344m52.506.823c-.336.352-.637.698-.602 1.223.024.363.151.64.436.867.46.368.896.32 1.447.272.356-.35.646-.696.63-1.227-.009-.343-.189-.63-.452-.837-.46-.359-.909-.328-1.459-.298m11.525.21c-.314.398-.546.723-.463 1.26a.76.76 0 0 0 .313.502c.295.23.704.177 1.051.15.198-.269.447-.576.437-.93a.9.9 0 0 0-.39-.742c-.277-.21-.62-.22-.948-.24m-124.264.483c-.194.29-.328.46-.309.827.186.328.469.397.8.526.19-.318.332-.514.289-.902-.243-.304-.39-.367-.78-.451m-30.861.171c-.37.33-.698.62-.752 1.148-.034.336.092.573.323.806.331.335.845.35 1.283.358.347-.299.613-.59.649-1.073.025-.335-.124-.64-.362-.868-.338-.323-.7-.35-1.141-.37m130.387-.058c-.198.365-.303.486-.288.91.23.297.413.352.752.481.18-.307.3-.503.297-.872-.221-.356-.346-.414-.761-.52m-107.154.505c-.214.333-.3.43-.329.835.237.323.341.358.694.522.206-.292.333-.461.337-.837-.198-.307-.356-.395-.702-.52m78.877.018c-.243.3-.408.483-.44.887.147.297.211.399.536.54.104.046.253.073.367.097.23-.288.371-.461.415-.844-.119-.283-.171-.406-.467-.552-.105-.052-.293-.097-.41-.128m-141.496.292c-.226.316-.295.356-.295.737.25.29.464.349.815.453.159-.316.253-.429.228-.788-.25-.26-.413-.305-.748-.402m49.71.335c-.147.337-.239.497-.163.872.255.297.414.318.78.401.15-.342.235-.532.158-.916-.295-.279-.37-.279-.775-.357m31.6.758c-.105.382-.144.386.032.734.214.101.405.198.632.266.137-.352.184-.412.106-.775-.283-.215-.43-.212-.77-.225m127.306.225c-.151.321-.258.517-.192.883.208.22.317.287.61.361.199-.3.286-.415.267-.79-.242-.29-.327-.318-.685-.454m10.984.128c-.092.391-.156.527-.037.919.296.243.485.27.85.334.119-.338.224-.56.1-.917-.286-.278-.537-.288-.913-.336m-202.396.27c-.137.354-.202.505-.113.891.339.311.573.357 1.037.36.086-.402.138-.53.014-.931-.296-.258-.566-.271-.938-.32m91.419.641c-.242.3-.302.357-.358.733.193.33.358.383.693.532.211-.335.303-.438.325-.841-.209-.263-.344-.321-.66-.424m25.847 1.2c-.1.363-.18.594-.046.965.27.251.419.284.768.352.114-.36.213-.596.086-.973-.284-.265-.44-.285-.808-.344m-105.97.275c-.123.348-.215.572-.124.948.328.274.48.268.894.339.13-.338.218-.537.122-.905-.298-.272-.502-.324-.891-.382m148.114.873c-.176.318-.307.517-.262.895.23.289.33.305.681.438.228-.33.31-.41.342-.82-.23-.318-.373-.404-.762-.513m25.118-.005c-.178.372-.253.452-.197.873.265.271.413.317.767.406.195-.364.293-.486.285-.907-.287-.28-.45-.318-.855-.373m-52.13.371c-.169.34-.257.44-.219.823.24.262.409.333.732.456.21-.338.287-.417.294-.827-.281-.306-.421-.325-.808-.451m-56.384.128c-.19.323-.278.399-.258.782.244.275.456.346.791.46.165-.361.236-.453.19-.857-.24-.225-.407-.294-.723-.385m32.77.244c-.212.307-.33.451-.34.838.212.376.347.454.771.577.179-.312.343-.532.29-.908-.22-.308-.383-.368-.721-.507m-41.782.257c-.23.26-.358.343-.412.693.165.275.31.388.578.561.23-.228.404-.351.455-.686-.18-.347-.291-.376-.621-.568m46.254 1.507c-.154.368-.221.468-.167.874.265.28.428.313.789.4.138-.322.236-.523.173-.885-.255-.265-.437-.325-.795-.39m38.318.53c-.237.284-.36.412-.401.794.175.377.312.456.71.602.19-.3.316-.487.316-.858-.206-.32-.286-.358-.625-.539m-89.21.344c-.08.347-.137.456-.018.8.285.203.508.195.842.204.066-.38.105-.458-.044-.806a1.7 1.7 0 0 0-.78-.198m62.785.733c-.119.36-.216.583-.082.959.255.252.489.272.826.329.127-.36.196-.524.102-.909-.32-.285-.439-.291-.846-.379m41.261.133c-.07.341-.139.579-.002.916.336.216.443.19.832.196.066-.325.127-.537-.017-.854-.26-.232-.483-.23-.813-.258m-120.803.147c-.127.336-.204.494-.118.858.286.258.453.306.849.34.142-.317.248-.515.175-.873-.307-.283-.485-.301-.906-.325m160.195-.027c-.199.355-.284.46-.285.877.271.29.369.297.74.402.183-.319.273-.405.254-.78-.223-.276-.395-.355-.709-.5m-213.069.272c-.099.4-.151.528-.044.937.292.245.443.276.806.33.107-.353.197-.579.066-.944-.287-.27-.454-.276-.828-.323m182.509 1.1c-.062.382-.102.602.07.969.287.199.421.226.769.225.073-.397.115-.515-.019-.907-.303-.203-.47-.243-.82-.287m-55.451.51c-.192.367-.282.48-.267.902.23.335.417.404.797.521.198-.328.358-.537.313-.939-.266-.32-.429-.394-.843-.483m-115.628.612c-.181.326-.277.433-.267.813.228.276.383.328.71.442.212-.313.298-.384.307-.772-.19-.297-.424-.372-.75-.483m133.14.126c-.21.358-.29.455-.297.88.198.324.4.401.731.544.216-.294.347-.466.369-.847-.145-.285-.203-.364-.513-.5-.09-.04-.194-.057-.29-.077m54.479.367c-.101.365-.217.647-.075 1.018.294.243.45.245.815.272.148-.342.236-.509.175-.891-.301-.316-.477-.344-.915-.399m-8.387.14c-.106.35-.17.477-.093.841.266.261.508.267.858.311.11-.358.174-.51.041-.877-.317-.225-.415-.231-.806-.276m-125.616.118c-.119.355-.22.584-.096.958.235.219.39.263.7.33.154-.325.255-.512.178-.884-.288-.285-.401-.299-.782-.403m-30.016.641c-.13.39-.182.476-.087.888.213.194.35.294.626.382.138-.383.232-.525.148-.93-.24-.19-.387-.275-.687-.34m-9.587.11c-.186.367-.29.472-.239.888.242.24.422.35.725.49.203-.304.327-.485.333-.867-.192-.313-.321-.407-.696-.489q-.06-.012-.123-.022m18.516-.002c-.192.327-.35.54-.296.937.282.278.383.284.755.377.156-.373.239-.487.18-.897-.215-.21-.355-.316-.64-.417m54.971-.003c-.214.295-.347.463-.35.845.204.352.307.387.652.582.209-.288.352-.47.375-.84-.183-.335-.329-.435-.677-.587m-23.791.154c-.121.368-.178.46-.088.847.222.21.364.309.655.404.15-.365.247-.508.195-.906-.255-.246-.428-.272-.762-.345m36.755.114c-.108.355-.187.578-.073.95.246.305.44.362.81.461.166-.328.275-.535.251-.918-.156-.242-.23-.353-.531-.437-.115-.032-.333-.046-.457-.056m45.129.744c-.044.337-.1.58.062.897.292.191.438.191.782.174.065-.348.109-.497-.054-.83-.284-.183-.454-.216-.79-.24m-67.029.772c-.091.333-.126.417-.043.746.227.192.37.274.657.348.178-.302.248-.388.258-.733-.276-.3-.462-.327-.872-.361m61.67.604c-.121.343-.172.425-.1.775.268.208.454.225.78.274.082-.35.122-.446.02-.785-.25-.168-.4-.225-.7-.264m-70.427.259c-.138.31-.18.354-.12.682.246.195.405.271.711.343.112-.358.163-.417.05-.767-.216-.11-.403-.208-.641-.258m-93.337.504c-.121.303-.194.296-.066.616l.508.241c.08-.337.169-.394.005-.713zm231.383-.006-.189.46.108.247c.161.06.326.131.492.175l.152-.448c-.164-.319-.25-.289-.562-.434m-133 2.125c-.134.337-.187.418-.13.77.222.205.402.297.683.408.11-.346.19-.495.12-.856-.235-.198-.372-.26-.673-.322m61.773.487c-.155.325-.263.519-.193.89.287.3.385.304.772.407.136-.388.196-.494.12-.91-.237-.228-.382-.3-.698-.386m-87.926.152c-.13.337-.201.507-.145.876.262.338.4.415.835.482.156-.367.285-.613.203-1.023-.299-.275-.483-.305-.893-.335m76.793.858c-.175.341-.265.449-.24.839.241.288.407.368.742.51.171-.374.25-.49.218-.91-.239-.286-.378-.333-.72-.439m-14.064.524c-.083.367-.11.4.038.74.232.135.395.206.661.247.13-.362.175-.397.061-.758-.276-.17-.437-.209-.76-.23m-129.621.148c.095.293.078.442.349.614l.45-.056-.119-.454c-.277-.138-.366-.12-.68-.104m83.559.32c-.125.378-.218.52-.12.912.241.174.408.22.7.271.098-.386.172-.546.071-.937-.232-.17-.367-.211-.651-.246m-87.161.536c-.083.387-.13.511-.015.9.287.272.536.292.91.35.134-.362.23-.582.126-.974-.331-.274-.593-.287-1.021-.276m227.308-.037c-.184.33-.325.54-.28.935.278.346.425.401.868.487.219-.37.28-.455.292-.899-.263-.351-.437-.453-.88-.523m-84.512.499c-.163.325-.273.523-.225.9.268.282.372.27.742.35.163-.349.268-.483.227-.872-.252-.244-.416-.29-.744-.378m45.995.258c-.175.325-.282.51-.235.895.223.353.464.459.857.561.172-.357.293-.576.228-.987-.27-.309-.442-.379-.85-.47m16.353.121c-.097.399-.161.532-.041.932.267.196.435.273.76.335.163-.32.266-.5.2-.874-.31-.312-.475-.344-.919-.392m-177.54.145c-.07.34-.112.395.03.706.187.076.338.134.537.173.082-.306.146-.376.053-.69-.22-.13-.365-.164-.62-.19m193.087.001c.048.251.002.412.226.559.206.136.123.089.371.178l.052-.502c-.235-.218-.325-.193-.649-.234m-206.279.108c-.181.318-.266.375-.213.748a3 3 0 0 0 .62.382c.165-.338.255-.437.207-.818a1.25 1.25 0 0 0-.614-.312m164.977.245c-.06.36-.143.642.04.98.322.172.488.16.839.143.075-.384.123-.504-.006-.882-.288-.215-.53-.216-.873-.24m21.392.384c-.138.334-.195.419-.145.77.182.15.324.254.544.338.124-.362.208-.472.101-.847a1.6 1.6 0 0 0-.5-.261m-37.475.23c-.14.372-.218.48-.14.878.256.2.424.237.742.287.112-.358.181-.458.076-.827-.233-.17-.4-.262-.678-.337m-90.505.16c-.278.315-.383.388-.457.81.192.416.432.511.828.712.238-.311.399-.495.41-.907-.213-.353-.413-.451-.781-.614m-15.293.871c-.133.356-.186.39-.071.746.157.09.309.186.478.254.097-.315.18-.438.082-.759-.17-.103-.298-.182-.489-.241m-8.154.239c-.203.334-.311.443-.315.841.19.25.345.37.617.526.203-.3.341-.474.314-.855-.172-.293-.315-.366-.617-.512m-16.757.147c.031.19.006.43.168.554.176.135.34.144.551.178l-.07-.513c-.246-.185-.338-.18-.649-.22m30.07.082c-.094.34-.196.59-.054.934.259.199.422.26.742.321.165-.35.23-.45.206-.847-.296-.297-.474-.341-.894-.408m-19.105.311c.137.313.152.479.453.653.154-.036.318-.063.468-.115-.11-.347-.076-.373-.389-.548zm-38.124 1.273.049.04zm217.769.222c.028.358-.022.415.242.65l.625.038c.004-.34.036-.367-.177-.624a7 7 0 0 0-.69-.063m6.064-.041c-.206.292-.293.345-.287.697.248.234.426.323.736.446.177-.344.236-.41.2-.787-.224-.202-.356-.282-.649-.356m-231.3.198.074.364c.287.184.464.14.8.143-.076-.313-.048-.336-.311-.513zm194.919-.07c-.095.315-.183.503-.08.828.26.259.483.279.828.334.102-.395.18-.524.048-.919-.283-.165-.471-.209-.796-.243m-125.533.132c-.06.355-.112.576.052.917.33.148.427.118.791.078.077-.363.13-.438-.015-.772-.303-.168-.49-.195-.828-.223m102.919-.026c-.083.368-.148.484-.014.845.238.121.391.171.658.188.118-.368.169-.387.016-.734a3.7 3.7 0 0 0-.66-.299m-167.46.17c.028.373-.004.439.239.713.195.037.387.081.586.094.03-.355.073-.393-.132-.675a5 5 0 0 0-.692-.131m50.683-.009c-.061.343-.12.56.046.886.334.18.445.148.815.13.065-.363.114-.48-.017-.833-.304-.182-.499-.174-.844-.183m-24.725.485c-.15.327-.245.515-.176.886.302.284.48.321.888.386.099-.406.174-.56.053-.968-.269-.202-.432-.254-.765-.304m137.635.124c-.222.303-.344.446-.369.834.156.36.298.499.677.65l.155.054c.212-.295.34-.474.368-.85-.205-.389-.428-.53-.832-.689m12.2.267c-.115.333-.146.338-.017.66l.494.302c.095-.329.16-.415.05-.733a3 3 0 0 0-.528-.229m-20.83.431c.17.258.26.529.615.549.105.006.308-.042.415-.065-.098-.19-.132-.4-.347-.472-.246-.082-.43-.042-.683-.012m-117.994.054c-.195.36-.264.459-.262.88.191.323.372.38.7.53.22-.292.359-.46.37-.843-.137-.275-.197-.375-.501-.501-.092-.038-.209-.051-.307-.066m-31.985.343.096.312c.326.162.619.062.958-.004-.098-.17-.102-.285-.307-.34-.27-.075-.477-.016-.747.032m210.656-.007c.16.365.149.409.494.596.29-.029.555-.058.838-.132-.18-.271-.232-.395-.572-.476-.216-.052-.536-.007-.76.011m-15.532.167c-.171.314-.305.52-.264.892.204.296.348.39.697.511.241-.318.349-.48.361-.9-.17-.267-.232-.371-.557-.463-.077-.022-.158-.027-.237-.04m23.047-.02c-.227.246-.45.43-.478.784.199.373.45.492.81.704.282-.331.359-.392.431-.837-.115-.29-.237-.411-.517-.56-.097-.05-.149-.062-.246-.091m-225.425.126c-.21.296-.338.461-.33.843.24.338.42.402.824.518.159-.367.248-.487.195-.89-.219-.234-.4-.338-.689-.471m10.785.398c-.025.39-.064.52.118.876.29.118.457.15.768.127.118-.374.162-.395.014-.751-.323-.16-.549-.209-.9-.252m35.163.121c-.011.398-.053.515.164.86.214.082.348.124.58.144.037-.382.094-.502-.1-.844a2.6 2.6 0 0 0-.644-.16m126.497.27c-.018.38-.059.5.136.835.279.08.443.106.73.059.027-.365.081-.462-.126-.774a3 3 0 0 0-.74-.12m42.157-.02c-.234.255-.365.344-.435.689.154.294.296.416.564.609.214-.246.444-.442.456-.786-.15-.292-.3-.362-.585-.512m-154.129.756h.128zm123.497-.139c-.098.354-.168.459-.05.815.208.132.369.231.611.285.163-.344.231-.427.187-.815-.263-.218-.41-.249-.748-.285m-167.994.504c-.153.365-.224.475-.177.877.295.235.471.222.839.276.113-.351.19-.462.088-.825a1.9 1.9 0 0 0-.75-.328m35.383.121c-.153.363-.225.48-.184.881.265.237.334.257.684.335.19-.346.293-.459.273-.86-.244-.27-.431-.284-.773-.356m-47.636.239c-.064.344-.134.588.02.922.335.178.442.147.812.125.058-.354.109-.473-.03-.812-.289-.168-.47-.21-.802-.235m51.68.047c-.22.314-.313.392-.333.783.218.267.38.37.677.526.195-.358.292-.473.285-.888-.2-.248-.332-.314-.63-.42m152.836.1c-.12.398-.184.527-.094.943.258.262.483.276.828.328.136-.358.21-.53.14-.92-.308-.283-.464-.303-.874-.351m12.768.114c-.171.33-.269.44-.241.819.188.203.302.273.565.36.195-.32.304-.415.285-.797a1.5 1.5 0 0 0-.609-.382m-189.195.768c-.073.346-.127.45-.001.789.255.167.422.228.724.276.13-.366.2-.45.099-.836-.308-.191-.472-.21-.822-.23m144.133.37c-.129.29-.21.435-.155.76.268.27.336.275.71.363.124-.37.188-.448.076-.833-.218-.146-.374-.233-.631-.29m14.528.113c-.107.38-.156.484-.061.879.203.173.331.283.594.344.18-.373.26-.483.23-.904-.29-.255-.376-.253-.763-.32M37.575 142.69c-.238.297-.362.421-.38.818.178.369.357.512.75.653.172-.319.303-.535.286-.912-.214-.333-.318-.375-.656-.559m157.728.13c-.094.366-.173.621-.067.999.313.315.48.353.93.393.137-.362.273-.64.198-1.036-.29-.298-.469-.34-.896-.355q-.083-.002-.165 0m35.9-.021c-.206.307-.357.503-.356.89.17.262.236.34.568.401.08.015.164.011.246.017.247-.322.36-.416.409-.828-.244-.34-.447-.407-.867-.48m-15.876 1.99c-.137.362-.238.586-.137.979.286.268.433.276.807.37.11-.351.248-.646.122-1.011-.284-.251-.429-.257-.792-.338m-188.861.138c-.211.353-.287.447-.301.87.206.327.416.393.759.526.173-.32.29-.508.235-.887-.236-.316-.328-.348-.693-.509"/><path d="M12.157 150.062c1.518-.222 3.03.013 4.511-.183l.08-.188c-.813-1.532-3.958-.88-5.248-2.006-.198-.409-.126-.828-.101-1.268 2.459-.194 6.134-.354 8.328.892.975.554 1.751 1.423 2.727 1.994 1.168.683 2.618.855 3.889 1.286.791.268 1.305 1.063 2.093 1.292 1.582.463 3.525.499 5.175.66 4.146.407 8.252.746 12.421.819 2.446.042 4.892-.169 7.333-.045-1.7.302-3.408.569-5.13.699-4.676.475-9.328.066-13.997-.232-6.41-.409-11.56-.592-17.824-2.245-1.486-.393-2.899-.722-4.257-1.475m189.238 3.208c7.25-.078 13.963.206 21.248-.514 1.761-.173 3.574-.296 5.302-.68 1.133-.251 1.586-1.023 2.567-1.493 1.214-.582 2.599-.782 3.839-1.317 3.797-1.64 2.922-2.786 7.994-2.824.71-.024 2.118-.18 2.688.243.088.395-.012.76-.085 1.149-.487.528-2.083.568-2.815.72-.632.132-1.486.258-1.856.822l.08.229c.655.544 3.02.31 3.946.323-2.088 1.418-7.417 2.58-9.971 2.971-2.099.321-4.206.367-6.317.554-6.733.6-13.468 1.079-20.225.6q-3.225-.164-6.395-.783m18.519 2.367c3.784.227 7.598.299 11.384-.012 1.93-.16 3.854-.487 5.782-.697 1.962-.13 3.959.158 5.945.054-4.324 1.785-12.392 1.849-17.056 1.581-2.036-.147-4.097-.325-6.055-.926m-186.27.701c-1.224.042-2.444.254-3.675.293-3.12.1-14.05-.021-16.453-1.6 6.702.038 13.338.876 20.03 1.15zm-6.769 1.892c-2.133.349-10.422.76-12.13-.258.646-.486 1.998-.39 2.785-.42 1.871-.069 3.785.198 5.66.27 2.19.084 4.397-.018 6.583-.155-.93.36-1.914.46-2.898.563m215.132-.238c-.923.21-1.871.459-2.812.559-2.755.293-8.96.279-11.355-.875 1.516.05 3.003.157 4.523.114 3.123-.087 6.435-.492 9.53.024zm-111.318 8.013c-.011-2.374.02-4.738.2-7.106.863-.05 1.736-.036 2.6-.046-.316 2.37-.368 4.854-.539 7.24-.756.034-1.507-.034-2.261-.088m-7.536-.041q-.21-3.473-.35-6.95c.932-.002 1.825.024 2.749.155-.098 2.23-.072 4.464-.07 6.695-.773.077-1.553.08-2.33.1m-28.848-5.572c4.1-.478 8.28-.602 12.4-.833l.485-.035c.303.348.79 6.165.94 7.176q-3.159.106-6.312.298c-.256-2.034-.374-4.255-1.218-6.132.303 1.649.495 3.317.71 4.979l.17 1.135c-1.873.217-3.785.333-5.67.424-.461-2.344-1.005-4.677-1.505-7.012m48.649 6.15c.13-2.366.342-4.759.689-7.103l5.268.192c-.071 2.26-.47 4.653-.813 6.889-1.716-.018-3.425.083-5.144.022m5.626-.029c.152-2.29.618-4.608.972-6.877q2.566.177 5.134.285c-.264 2.248-.798 4.493-1.118 6.742q-2.495-.03-4.988-.15m5.506.192c.296-2.275.732-4.527 1.149-6.782l5.01.363c-.336 2.244-.788 4.478-1.194 6.71-1.64.02-3.328-.173-4.965-.292m-66.087-5.514q2.791-.473 5.607-.763c.203-.03.08-.026.369.032.788 1.587 1.084 5.114 1.472 7-1.855.14-3.713.397-5.564.586-.45-.495-1.556-5.796-1.884-6.856m71.583 5.888c.481-2.234.849-4.495 1.319-6.733q2.54.221 5.074.512c-.532 2.237-1.074 4.466-1.562 6.713-.929.228-3.794-.304-4.831-.492m5.393.671a73 73 0 0 1 1.557-6.806c1.576.17 3.142.486 4.703.758-.518 2.168-1.204 4.299-1.845 6.432l-.078.07c-.924.196-3.293-.322-4.338-.454m-83.053-5.48c1.877-.38 3.791-.65 5.68-.97l.209.125c.678 2.165 1.088 4.45 1.591 6.663-1.876.226-3.735.55-5.597.867-.742-2.179-1.274-4.464-1.882-6.685m87.856 6.147q.895-3.345 1.684-6.716c1.539.333 3.096.6 4.644.892-.532 2.144-1.246 4.262-1.887 6.376-.01.012-.018.028-.032.037-.451.264-3.71-.466-4.41-.589m-93.913-4.89c1.73-.404 3.456-.792 5.203-1.114.326-.046.163-.051.488.016.686.94 1.423 5.244 1.75 6.628q-2.518.352-5.025.777l-.273.022c-.586-.581-1.746-5.147-2.143-6.33m98.68 5.669c.823-2.103 1.351-4.341 1.935-6.52 1.613.368 3.199.852 4.788 1.312-.6 1.975-1.527 3.869-2.14 5.864l-.093.086c-.936.177-3.462-.534-4.49-.742m-104.388-4.08q2.634-.756 5.278-1.476l.216.016c.497.667 1.53 5.194 1.87 6.298q-2.542.595-5.075 1.227c-.853-1.96-1.53-4.06-2.29-6.065m109.255 4.992c.528-1.986 1.224-4.322 2.187-6.137 1.44.398 2.87.769 4.291 1.235-.62 2.055-1.541 4.072-2.28 6.096-1.409-.373-2.812-.744-4.198-1.195m-114.876-3.229q2.469-.96 5.035-1.613l.175-.01c.57.503 1.94 4.993 2.297 6.022q-2.505.685-4.979 1.473l-.103-.014c-.493-.49-2.018-4.866-2.425-5.858m62.344 26.623c-.377-.213-.635-.397-.74-.836-.343-1.423.315-4.996 1.039-6.219.13.113.235.243.332.386.616.903.422 5.182.2 6.42-.283.273-.448.22-.831.249m2.71-.426c-.373.147-.66.277-1.072.243-.039-.065-.088-.125-.117-.195-.307-.74-.014-5.818.21-6.71.117.042.221.072.324.147.777.569.962 3.612 1.046 4.594.066.774.137 1.293-.391 1.92m-2.972 8.995c-.337-.05-.695-.115-.944-.373-.444-.458-.465-1.218-.441-1.819.05-1.27.138-3.625 1.1-4.534.436.02.794.015 1.184.227.395.509.26 5.33.169 6.21-.318.248-.683.246-1.068.289m3.393-.336c-.146.04-.293.081-.44.112-.378.08-.826.16-1.154-.05a6 6 0 0 1-.087-.682c-.058-.92-.194-4.745.139-5.44.06-.124.184-.206.276-.31.45.046.865.104 1.163.471.745.916.865 3.455.759 4.626-.054.593-.206.885-.656 1.274m-3.762 15.103c-.207.01-.412.002-.618-.013-.55-.041-.818-.154-1.183-.57-.347-1.007.337-8.033.57-9.484.117-.733.212-1.184.829-1.632.283-.011.628-.05.904.005.351.068.511.236.729.501.338 1.226.448 9.476.04 10.324-.222.46-.84.68-1.271.869m4.44-.03a2.7 2.7 0 0 1-.722.051c-.44-.031-1.03-.289-1.271-.681-.446-.728-.45-9.424-.155-10.369.118-.38.4-.487.71-.694l.102.004c.448.036 1.036.145 1.292.557.358.575 1.122 9.415.936 10.24-.115.51-.472.655-.892.892"/></svg>