<svg xmlns="http://www.w3.org/2000/svg" viewBox="0 0 256 256"><path d="M117.803 0h20.528l.136.026c2.587.476 5.256.626 7.861 1.027q7.91 1.279 15.653 3.337 1.328.36 2.648.749t2.63.806q1.312.418 2.614.864t2.594.92q1.291.474 2.572.976 1.282.503 2.551 1.033t2.528 1.087q1.258.558 2.504 1.143t2.478 1.197 2.451 1.25q1.22.639 2.424 1.304t2.394 1.356 2.365 1.408 2.333 1.46 2.3 1.51 2.268 1.56q1.126.791 2.233 1.608t2.197 1.657 2.16 1.705q1.072.863 2.124 1.75 1.052.888 2.084 1.798t2.044 1.842 2.004 1.886 1.963 1.93q.97.975 1.92 1.971.948.997 1.876 2.013t1.832 2.054 1.786 2.093 1.742 2.131 1.693 2.169q.835 1.094 1.647 2.205.81 1.112 1.597 2.241.968 1.388 1.9 2.8.932 1.413 1.827 2.849t1.753 2.894 1.678 2.939 1.601 2.98 1.525 3.022 1.446 3.059 1.367 3.096 1.286 3.13 1.206 3.161q.582 1.589 1.124 3.192.541 1.603 1.04 3.22.5 1.617.96 3.245.458 1.63.873 3.27.417 1.64.79 3.29t.704 3.31c.663 3.338 1.163 6.725 1.615 10.099.245 1.83.343 3.775.768 5.568v17l-.03.153c-.757 3.926-.885 8-1.56 11.96q-.787 4.865-1.882 9.67-1.093 4.806-2.488 9.533c-1.617 5.289-3.703 10.55-5.856 15.644q2.36-.049 4.72-.02-2.05 2.879-3.948 5.859c1.02.044 2.038.073 3.048.228l-.05.076c-1.143.092-2.289.207-3.436.209-.593.857-1.201 1.708-1.778 2.576 2.441.257 4.893.476 7.313.892l-8.491.877a12.3 12.3 0 0 0-1.617 1.99c2.974.38 6.025.632 8.963 1.227l-.143.026c-1.738.302-9.744.461-10.444 1.261-.026.03-.042.066-.064.1.165.365.457.49.828.624 2.148.78 7.577 1.117 10.182 1.556l-9.202.696c.417.638.852 1.242 1.33 1.838 2.603.3 5.498.393 8.032 1.03-2.18.2-4.384.34-6.558.595a6.8 6.8 0 0 0 1.21 1.85c.685.09 5.386.502 5.587.638-1.59.265-3.232.365-4.838.52 1.323 1.963 2.684 3.95 4.143 5.815l-25.186.02c-3.117 3.244-6.26 6.45-9.628 9.438q-.772.69-1.556 1.37-.783.678-1.577 1.344t-1.598 1.32-1.62 1.293q-.814.64-1.639 1.268-.825.627-1.66 1.241-.834.614-1.679 1.215-.845.6-1.698 1.188-.855.587-1.718 1.16t-1.735 1.133-1.754 1.105-1.77 1.078q-.89.531-1.788 1.048t-1.804 1.02-1.82.991-1.836.963-1.85.932-1.866.903q-.936.445-1.88.874t-1.893.843-1.907.813q-.956.398-1.919.782-.963.383-1.931.751-.97.368-1.944.721t-1.954.69-1.965.658q-.986.322-1.976.627-.99.306-1.985.596t-1.995.562q-.999.275-2.003.532-1.004.258-2.011.5-1.008.243-2.02.468a141 141 0 0 1-13.216 2.262c-1.992.245-4.776.258-6.64.678h-15.904c-1.852-.39-3.894-.417-5.784-.627-3.998-.448-8.096-.998-12.028-1.845-20.303-4.378-38.28-12.552-54.476-25.635q-4.057-3.237-7.812-6.819t-7.178-7.482l-25.519.05q2.124-2.87 4.064-5.868c-1.357-.126-2.697-.356-4.05-.476l.024-.084c1.46-.25 3.14-.124 4.642-.25.667-.725 1.267-1.508 1.877-2.28-2.31-.167-4.617-.421-6.921-.653 2.64-.307 5.31-.585 7.922-1.082.383-.427.717-.894 1.06-1.352-2.979-.394-6.077-.458-9.082-.729 3.691-.633 7.462-.802 11.151-1.469a15 15 0 0 0-.966-1.625c-3.497-.184-7.003-.169-10.48-.63 3.034-.4 6.226-.631 9.203-1.323a33 33 0 0 0-1.695-2.186c-2.296-.006-4.659-.396-6.942-.658 2.04-.328 4.135-.478 6.196-.63-1.789-2.982-4.254-5.509-6.016-8.478 1.85-.003 3.703.075 5.553.105-1.476-2.73-2.637-5.695-3.763-8.582q-1.405-3.56-2.601-7.197-1.197-3.636-2.18-7.335-.983-3.7-1.75-7.45t-1.315-7.538c-.52-3.373-.633-6.81-1.18-10.17V119.41c.556-2.178.64-4.607.926-6.843q.626-4.649 1.588-9.24.357-1.728.76-3.446.402-1.718.85-3.424t.94-3.4q.493-1.695 1.03-3.375Q6.63 88 7.212 86.335q.58-1.665 1.206-3.315.624-1.65 1.292-3.283t1.38-3.248 1.463-3.21 1.548-3.17q.795-1.576 1.63-3.13.837-1.553 1.714-3.084.876-1.531 1.793-3.039.917-1.507 1.873-2.99.956-1.482 1.951-2.94.995-1.456 2.028-2.887.838-1.154 1.701-2.29t1.753-2.251 1.803-2.212q.915-1.095 1.853-2.17.939-1.074 1.901-2.127t1.949-2.084 1.995-2.04 2.041-1.994 2.085-1.948 2.129-1.9q1.075-.937 2.171-1.851t2.212-1.802 2.253-1.751q1.136-.864 2.291-1.7 1.155-.838 2.329-1.649t2.366-1.595 2.401-1.542q1.21-.757 2.435-1.486 1.226-.73 2.468-1.432 1.243-.702 2.5-1.375 1.258-.674 2.53-1.319 1.273-.645 2.56-1.26 1.287-.617 2.587-1.204t2.614-1.144 2.639-1.085 2.663-1.026q1.337-.497 2.685-.964 1.348-.468 2.706-.904 1.359-.437 2.726-.843 1.368-.406 2.744-.781t2.762-.719 2.777-.656q5.617-1.307 11.328-2.105c2.247-.31 4.516-.484 6.756-.83m-14.411 48.034.05.111.04.119c.744 2.137 2.35 6.17 3.505 8.044.262.089.43.1.705.08.824.587 13.33 21.064 13.411 21.702.069.535.18 1.511-.079 1.984l-.267.159c-.782-.234-3.222-2.371-3.916-3.006-3.163-2.89-6.124-6.07-9.172-9.088-2.748-2.72-5.687-5.354-8.248-8.25l-.053-.227c-.477-1.816-2.785-4.337-4.115-5.689.113.827.2 1.67.358 2.488-4.16-4.36-8.72-8.357-12.902-12.699.526-.248 1.018-.467 1.47-.84l.04-.18h-.216l.09.028-.032-.15-.073.117-.029-.183q-3.56-2.02-7.157-3.973c1.31 2.51 2.64 5.1 4.088 7.53.31-.419.612-.839.969-1.22q4.334 4.348 8.756 8.609c1.141 1.121 2.401 2.216 3.463 3.408.203.228.274.362.294.664l-.304.382c.18.623 2.611 2.642 3.243 2.966.034.018.071.03.107.046.316-.175.484-.366.706-.64l12.274 11.913c1.72 1.675 3.375 3.396 5.054 5.11.922.941 1.943 1.862 2.772 2.883.328.404.769.988.83 1.516.018.158.011.125-.075.242-.154-.294-.28-.79-.583-.9l-.228.231c.09.246.164.347.325.546l-.084.242c-.715.247-2.17-.567-2.826-.884-5.438-2.628-10.721-5.762-16.027-8.648l-6.551-3.534c-1.08-.578-2.267-1.112-3.29-1.776l.182-.126-.139.054.1-.257c-2.05-1.506-4.165-3.013-6.386-4.258l.706 2.565q-5.093-2.36-10.249-4.58c-2.236-.965-4.608-1.837-6.753-2.988.299-.486.618-.969.87-1.482-2.712-.358-5.4-.727-8.071-1.325 1.885 1.784 3.892 3.958 6.006 5.456.252-.073.169-.001.3-.232.185-.326.233-.713.301-1.076 1.64.588 16.843 6.997 17.255 7.519l-.038.474c.674.55 4.202 1.437 5.158 1.535l.302-.273c.346.074 24.402 13.004 25.983 14.089.855.588 1.485 1.68 2.28 2.418-1.215.24-2.408.486-3.651.31-2.62-.374-5.284-1.236-7.871-1.83l-16.895-3.769c-.733-.156-4.272-.64-4.672-.97-.04-.032-.167-.212-.195-.248-.722-.932-5.602-2.335-6.912-2.736q.634 1.094 1.303 2.167-8.68-.91-17.347-1.94c-2.311-.267-4.66-.415-6.96-.746l.227-1.558c-2.86.184-5.676.876-8.534 1.112 2.69 1.21 5.456 2.34 8.214 3.386l-.068-1.632c7.874 1.147 15.843 1.665 23.748 2.547-.291.371-.59.74-.86 1.126 1.567.03 5.262.246 6.563-.001.267-.052.515-.276.724-.44 1.383.16 2.779.568 4.14.876l7.738 1.761c6.209 1.39 12.598 2.461 18.665 4.394.653.208 1.23.53 1.806.9-.494.399-1.03.785-1.478 1.235-3.329.349-6.757.286-10.103.363-4.969.115-9.946.283-14.916.276-.387 0-.794.075-1.173-.004-1.008-.21-4.672-1.765-5.462-1.069.043.252.108.46.204.698-.16.095-.071.074-.257.056-.288-.028-.522-.088-.777.078.11.485.445.69.841.95l.262 1.653.199-.014c.68-.052 4.262-.576 4.593-.972.13-.155.085-.1.203-.313 1.263-.131 2.569-.091 3.838-.113l7.713-.079c4.59-.067 9.21-.396 13.798-.26.754.483 1.58.827 2.394 1.194-.51.343-1.456.778-1.79 1.245l.149.353c-1.069.771-17.136 5.145-19.814 5.834l1.255.865c3.198-.903 18.01-5.41 20.244-5.243l.124.107c-.227.416-.716.5-.847.969.068.207.231.501.142.709-.46 1.077-11.66 6.788-13.557 7.824.341.302.677.627 1.056.883q3.85-2.097 7.66-4.265c1.197-.675 2.41-1.478 3.653-2.05.991-.456 2.68-1.31 3.797-1.04l.101.21c-.119.302-.233.45-.467.674l-.224-.206c-.285.098-.274.078-.409.345l.104.2.252.063c-.3 1.664-4.907 5.39-6.297 6.7l1.675.059c1.407-1.753 4.163-4.277 6.11-5.331.435-.235.839-.467 1.338-.315.028.057.067.11.082.171.475 1.899-1.822 4.204-2.866 5.571l1.556.04c.855-1.085 1.769-2.399 2.806-3.303.222-.193.212-.213.516-.184q.124.34.263.675c.186-.456.088-1.43.113-1.966.963 2.725.366 2.336.168 4.719.222.066.223.097.439.06.885-.153 1.941-2.703 2.5-3.512.353.826 1.022 3.053 1.773 3.478.606-.445 1.044-2.595 1.319-3.354.936.987 1.612 2.542 2.64 3.337.292.02.337.07.598-.09-.102-.757-.426-1.496-.68-2.215.2-.568.397-1.132.639-1.684l.118.08c.07.401.084.825.37 1.137.167-.221.06-.501.03-.771l.17.01c1.214.797 2.1 2.392 2.93 3.566l1.827.02c-1.678-2.377-2.77-2.809-2.62-6.06 2.86 1.168 5.368 3.787 7.582 5.902l1.502.007c-2.51-2.482-5.865-4.467-7.056-7.93.568.063.944-.009 1.495-.147 1.35-.339 11.325 6.508 13.225 7.671l.629-.85c-1.917-1.133-3.778-2.403-5.66-3.596-3.171-2.009-5.805-3.409-8.358-6.207.42-.021 1.487.038 1.762-.221l-.103-.392.174-.143c1.518-.055 3.875 1.152 5.336 1.644l6.948 2.314c1.996.686 4.001 1.45 6.043 1.986l1.142-.604c-3.738-1.475-7.61-2.65-11.438-3.869-1.893-.603-4.01-1.124-5.802-1.967q-.9-.425-1.726-.98-.826-.556-1.56-1.228c1.245-.353 2.548-.982 3.844-1.06 1.743-.106 23.733.517 24.131.666l.025.418c.214.219 2.093.688 2.748 1.045 1.445-.887 2.376-2.077 3.387-3.404-1.624.18-4.253-.012-5.7.381-.104.202-.186.344-.353.499-7.209-.405-14.47-.356-21.689-.553-1.074-.03-3.122.335-4.026.131.179-.119.267-.12.33-.332a14.4 14.4 0 0 1-2.615-1.322c1.077-.585 2.268-1.29 3.432-1.668 1.845-.6 3.846-.934 5.745-1.346l10.483-2.227 7.055-1.495c1.317-.284 2.712-.682 4.053-.812 2.191-.213 5.157.86 7.321.347-.086-.265-.04-.163-.174-.409q-.048-.086-.098-.171c.214-.215.396-.205.684-.248 2.115-.31 22.338-2.79 22.65-2.684.076.026.129.096.194.144q.016.431.053.862c.717.145 6.75-2.56 7.824-3.059-2.684-.399-5.37-.744-8.079-.916l.256 1.702c-1.71.11-3.445.398-5.147.6l-10.438 1.245c-2.604.31-5.206.663-7.828.78l.4-1.926c-3.045.761-5.957 1.948-8.988 2.737-5.945 1.549-12.006 2.678-18.002 4.01-2.97.66-6.082 1.643-9.096 2-.82.097-2.23.263-2.906-.273l-.003-.24c.614-.517 1.01-1.25 1.692-1.678 4.571-2.88 9.498-5.287 14.24-7.877 3.853-2.106 7.626-4.47 11.582-6.374 1.572.313 2.729.228 4.25-.264.405-.131 1.625-.415 1.804-.76-.216-.156-.385-.261-.512-.501.098-.1.121-.132.254-.218 1.096-.713 2.601-1.236 3.799-1.785q4.571-2.09 9.163-4.134c.488-.219 2.51-1.392 2.84-1.423.483-.044.603.884 1.084 1.01 2.135-1.679 4.257-3.752 6.13-5.721-2.754.69-5.556 1.186-8.298 1.928.288.541.618 1.02.98 1.512-2.906 1.47-5.91 2.788-8.878 4.129-2.575 1.163-5.158 2.39-7.801 3.39q.711-1.394 1.39-2.805c-1.212.62-6.46 3.577-7.264 4.279-.215.187-.312.378-.43.632l-.05.112c-2.14 1.316-4.382 2.481-6.583 3.694l-9.052 5.001c-3.088 1.685-6.09 3.656-9.325 5.047-.742.319-1.76.732-2.565.56-.202-.18-.314-.263-.335-.558-.051-.728.61-1.586 1.048-2.125 1.774-2.186 4.082-4.147 6.075-6.151 4.505-4.53 9.048-9.14 13.75-13.464.183.43.438.83.673 1.233.724-.512 2.695-1.973 3.069-2.678-.314-.266-.73-.285-1.122-.354 4.214-4.212 8.555-8.307 12.821-12.466.392.486.827.942 1.245 1.406 1.418-2.519 2.689-5.184 3.93-7.795-2.446 1.209-4.85 2.588-7.222 3.94l1.38 1.604c-.964.778-1.846 1.725-2.743 2.581-3.048 2.911-6.01 6.166-9.263 8.832-.115-.795-.134-1.603-.176-2.404-1.322 1.745-2.929 3.343-4.151 5.137l.218.17c-.113.608-17.092 17.72-19.257 19.763-.56.529-1.425 1.344-2.266 1.249-.198-.023-.146-.044-.267-.236.43-1.004.305-2.126.801-3.198.629-1.359 1.595-2.684 2.368-3.977q2.88-4.822 5.81-9.614c1.03-1.701 2.422-4.744 3.683-6.14.19.034.315.047.503.043.624-.684 3.675-8.06 4.31-9.48-.971 1.093-3.002 4.082-3.836 4.797-.19.162-.384.228-.617.305l-.11.034c-.64 1.089-1.416 2.267-1.757 3.492.168.393.259.646.083 1.071-.334.804-.913 1.613-1.36 2.368l-2.755 4.653q-2.501 4.239-5.062 8.443c-.731 1.2-1.396 2.485-2.215 3.627-.43.601-1.197 1.663-1.916 1.879-.198.059-.244-.021-.41-.11-.295-.554-.322-1.205-.317-1.822.005-.521.037-1.072.143-1.583.28-1.35.694-2.703 1.028-4.044q1.107-4.488 2.262-8.963c.698-2.685 1.243-5.51 2.087-8.145.065-.202.157-.328.306-.475.278-.052.472-.079.701-.252.347-.729.327-1.466.268-2.255-.15-2.029.43-4.218.782-6.218-.579 1.136-3.322 7.304-3.407 8.162.176.068.325.145.485.243.007.047.018.093.02.14.05 1.03-5.308 21.37-5.834 22.696-.365.92-1.103 1.68-1.764 2.404-.31-1.165-.736-2.07-.811-3.309-.136-2.221-.126-32.811.144-33.3.095-.17.572-.232.758-.278.506-.882-.697-7.57-.948-8.94-.56 2.88-1.506 5.732-1.87 8.638l1.034.489-.053 24.013-.002 7.13c.003.89.147 1.946.031 2.816-.113.844-.737 1.775-1.151 2.507l-.286-.075c-.72-.696-1.18-1.897-1.492-2.84-.46-1.396-.73-2.877-1.067-4.306q-.723-3.067-1.526-6.114c-.681-2.609-1.349-5.223-2.063-7.822-.265-.964-.86-2.377-.922-3.302-.027-.41.339-.302.57-.617-.557-2.33-2.515-6.082-3.489-8.487.234 1.487.825 8.268 1.328 9.053.17.266.463-.049.65.187.477.598 5.22 19.613 5.55 21.358.188.992.308 2.082.218 3.09-.037.41-.1.65-.415.917-.033-.007-.067-.01-.1-.022-.81-.291-1.963-2.167-2.436-2.866-2.292-3.391-4.201-7.078-6.335-10.574-.977-1.602-5.241-7.912-5.654-9.224-.134-.424.014-.526.224-.867-.127-.811-4.67-5.919-5.603-6.83l-.097-.094zm25.737 27.483.111.12c.085.115.17.252.268.355l.16.183.1.114.106.187-.106-.187-.1-.114-.16-.183c-.073-.132-.173-.24-.268-.356zm6.882 2.414c-.23.492-.383.99-.536 1.51l.056.129.165.012a5.5 5.5 0 0 0 .315-1.651l.083-.055zm-1.763 73.697c-1.7.014-3.687-.245-5.343.087l-.113.297c.103.557.261.535.78.631 3.219.603 5.816 2.544 7.726 5.157l.066.093c.972 1.851 1.47 3.41 1.808 5.474l10.542.096q.032-2.61.005-5.22-3.735-.131-7.472-.224c-1.62-.03-3.272.037-4.883-.126l-.066-.093c-.113-.398-.277-.79-.419-1.18q2.767-.01 5.532.044.025-2.505.015-5.011-4.089-.078-8.178-.025M123.783 4.18c-5.709.294-11.47.803-17.1 1.809q-1.256.225-2.505.477-1.25.252-2.495.529-1.244.277-2.483.58-1.238.302-2.47.63t-2.457.681q-1.225.354-2.442.732t-2.427.781-2.41.832-2.394.88-2.374.93-2.354.978q-1.172.5-2.334 1.026-1.162.525-2.313 1.074-1.15.549-2.29 1.12-1.139.573-2.266 1.169-1.127.595-2.242 1.214t-2.217 1.26-2.19 1.305-2.163 1.35-2.135 1.394-2.105 1.438q-1.046.73-2.076 1.48-1.03.751-2.045 1.523t-2.014 1.565-1.98 1.605-1.948 1.646-1.913 1.686q-.947.852-1.878 1.724t-1.842 1.763-1.806 1.8q-.893.909-1.768 1.837t-1.73 1.872C15.279 68.495 2.799 102.587 4.474 134.42q.077 1.613.195 3.224t.28 3.219q.16 1.607.364 3.21t.447 3.198q.245 1.597.532 3.187.286 1.59.614 3.171.328 1.582.698 3.154.37 1.573.78 3.135t.862 3.113.943 3.09 1.024 3.064q.531 1.525 1.103 3.036.572 1.51 1.183 3.006t1.261 2.974 1.339 2.94q.688 1.46 1.415 2.903l2.461.014c-2.618-5.487-5.116-10.995-7.055-16.766q-.4-1.192-.774-2.392-.375-1.2-.725-2.407t-.674-2.422-.624-2.435-.573-2.448-.522-2.46-.471-2.469-.42-2.478-.368-2.487-.317-2.494q-.145-1.249-.264-2.5t-.213-2.505-.16-2.509-.108-2.511q-.042-1.257-.056-2.514-.016-1.256-.004-2.513.01-1.257.048-2.514.037-1.257.1-2.512.064-1.255.153-2.51.09-1.253.205-2.505t.257-2.5q.14-1.25.308-2.496t.36-2.487q.194-1.242.412-2.48.22-1.238.464-2.471t.514-2.461.566-2.45q.296-1.221.616-2.437.321-1.215.667-2.424t.717-2.409.767-2.394.817-2.378q.426-1.237.88-2.464.453-1.228.932-2.445t.985-2.424 1.037-2.403 1.088-2.38 1.139-2.356 1.189-2.33 1.239-2.305 1.288-2.278 1.337-2.25 1.385-2.22 1.432-2.19 1.479-2.159 1.524-2.126 1.57-2.093 1.615-2.06q.819-1.02 1.658-2.023.84-1.004 1.702-1.989.861-.984 1.744-1.95.882-.967 1.785-1.913t1.826-1.875q.923-.927 1.866-1.834.943-.908 1.905-1.795t1.943-1.752 1.98-1.711 2.016-1.668 2.052-1.625q1.034-.8 2.086-1.58 1.051-.778 2.119-1.534t2.152-1.489 2.183-1.442 2.214-1.395c3.146-1.908 6.325-3.752 9.65-5.334 18.273-8.7 37.482-13.015 57.727-12.388q7.452.252 14.819 1.403c25.893 4.22 51.053 17.176 68.907 36.501q1.037 1.111 2.046 2.247 1.01 1.136 1.99 2.297.982 1.16 1.934 2.344.953 1.184 1.876 2.391t1.815 2.437 1.756 2.48 1.694 2.523q.832 1.273 1.632 2.565.8 1.291 1.568 2.602.768 1.312 1.504 2.642t1.438 2.676 1.372 2.712 1.305 2.744 1.238 2.776 1.169 2.805 1.1 2.833q.531 1.424 1.029 2.86t.959 2.883.888 2.907q.426 1.458.816 2.927t.744 2.947.672 2.963.598 2.98.525 2.993.451 3.005q.208 1.506.378 3.016t.303 3.023q.133 1.514.229 3.03.096 1.517.154 3.036.059 1.519.08 3.038.021 1.52.005 3.039t-.07 3.038q-.113 2.471-.32 4.937-.207 2.465-.506 4.921t-.691 4.898-.875 4.87q-.483 2.426-1.057 4.833t-1.238 4.79-1.417 4.739-1.595 4.683c-1.106 2.978-2.361 5.926-3.618 8.843-.52 1.206-1.124 2.395-1.586 3.623l2.292.028c2.425-4.314 4.213-9.16 5.827-13.83 8.027-23.21 9.637-50.294 2.964-74.005-9.425-33.494-29.426-59.987-59.849-77.006-18.788-10.51-42.299-16.288-63.817-15.347m3.99 5.533c-1.798 2.178-5.453 6.589-5.98 9.263-.173.873-.009 1.866.073 2.746l.028.272q3.115-.244 6.24-.26c2.002-.002 4.006-.014 6.003.142.11-.778.33-1.73.25-2.506-.2-1.956-2.447-4.761-3.649-6.36-.691-.918-2-2.774-2.965-3.297m-16.401.88c-1.536 2.345-4.428 7.035-4.92 9.692-.134.72-.02 1.389.128 2.096q.152.72.315 1.437c2.032-.33 4.066-.693 6.112-.923q3.024-.404 6.055-.756c-.008-.868.094-1.947-.115-2.783-.582-2.324-3.237-4.69-4.926-6.34q-1.291-1.248-2.649-2.423m33.005.02c-1.895 1.78-7.353 6.7-7.404 9.24-.015.747.014 1.5.023 2.248q3.1.289 6.185.703 2.968.46 5.92 1.02c.209-.79.499-1.64.534-2.461.105-2.428-1.678-5.29-2.872-7.344-.704-1.213-1.425-2.378-2.386-3.407m-49.64 3.637c-1.618 3.174-2.826 7.069-3.455 10.578l1.056 3.087q3.145-1.14 6.363-2.05c1.855-.52 3.719-1.093 5.619-1.427-.68-3.864-2.504-5.377-5.605-7.546-1.303-.91-2.693-1.714-3.978-2.642m66.125.233c-2.78 1.527-7.814 4.845-8.732 8.015-.17.586-.29 1.19-.506 1.76 1.823.54 3.742.966 5.527 1.6q3.254.918 6.452 2.015c.334-.906.674-1.789.738-2.763.16-2.435-1.31-6.306-2.328-8.508-.274-.593-.68-1.703-1.15-2.12m15.728 5.638c-2.883 1.386-8.814 3.995-9.916 7.042-.18.499-.34 1.007-.503 1.511 1.697.822 3.44 1.538 5.152 2.327 2.005.941 4.004 1.962 6.053 2.801.355-.571.792-1.185 1.007-1.824.715-2.125-.056-6.2-.564-8.358-.202-.861-.576-2.917-1.228-3.499m-97.53.233c-1.124 3.4-1.839 7.43-1.946 11.014.537.882.912 1.812 1.254 2.785 2.143-.982 4.241-2.065 6.395-3.024 1.723-.783 3.44-1.597 5.184-2.331-.35-.916-.66-1.904-1.258-2.69-1.494-1.969-6.293-4.311-8.631-5.356q-.492-.219-.998-.398m112.53 7.797c-2.644.757-9.67 2.869-11.024 5.201-.339.583-.577 1.29-.821 1.92 1.498 1.051 3.129 1.904 4.666 2.898q2.988 1.981 6.03 3.879c.416-.703 1.014-1.534 1.25-2.309.81-2.659.778-8.476.123-11.147-.055-.223-.071-.26-.225-.442m-127.66.333c-.248 2.718-.808 8.165-.023 10.667.325 1.033 1.163 1.793 1.548 2.822q.032.085.066.168l.037.101c2.064-1.411 4.11-2.87 6.235-4.186q2.141-1.383 4.334-2.683c-.35-.646-.69-1.4-1.176-1.954-1.885-2.151-6.125-3.556-8.817-4.35q-1.096-.313-2.203-.585m-12.9 10.22c-.102 4.047.097 7.951 1.344 11.844.666.342 1.174.657 1.687 1.22q2.623-2.133 5.114-4.419c1.405-1.242 2.895-2.373 4.314-3.594-.39-.547-.849-1.333-1.348-1.77-1.823-1.6-6.876-2.585-9.283-2.986q-.913-.153-1.828-.295m153.125.092c-3.459.491-7.161 1.2-10.275 2.827l-1.38 2.122c1.74 1.308 3.36 2.787 5.002 4.215 1.515 1.36 3.035 2.874 4.698 4.041.489-.497 1.095-1.027 1.439-1.635 1.152-2.033 1.574-7.841 1.551-10.341-.004-.415-.003-.864-.197-1.239-.32-.063-.523-.042-.838.01M39.346 50.63c.183 3.618 1.015 7.937 2.548 11.2q1.049.767 2.123 1.5l3.895-4.584c1.431-1.666 2.951-3.303 4.297-5.037-.436-.449-.9-1.004-1.432-1.336-2.922-1.822-8.02-1.653-11.43-1.743m175.225.173c-2.481.139-6.653.147-8.796 1.32-.683.374-1.184.953-1.697 1.526l-.105.117c1.741 2.135 3.945 4.506 5.503 6.702l2.475 2.938c.55-.338 1.325-.71 1.74-1.204 1.117-1.328 2.166-5.44 2.582-7.183q.495-2.12.864-4.266c-.851.008-1.718-.016-2.566.05M32.587 63.555l-3.687.238c.614 2.86 2.509 9.821 4.874 11.39.583.387 1.296.658 1.934.945l1.307-2.144q2.68-4.36 5.454-8.662c-3.455-1.907-5.964-2.072-9.882-1.767m186.11.003c-2.712.118-3.214.123-5.115 2.09 2.118 3.358 4.14 6.807 6.33 10.116l2.057-.526c1.804-1.786 4.625-8.516 5.314-11.047-2.7-.56-5.829-.693-8.585-.633m-85.93 13.19.059.258c.161.013.289.035.447-.007l-.147-.214c-.103-.017-.258-.065-.358-.038m90.86.278c-.878.305-1.618.858-2.364 1.399 1.127 2.54 2.32 5.048 3.463 7.58.63 1.397 1.172 2.894 1.882 4.245 1.41-.775 2.627-1.61 3.724-2.796 2.135-2.533 3.792-5.54 5.029-8.605-3.79-1.088-7.768-2.059-11.734-1.823m-90.934.246.105.112h.013zM28.686 77.3c-2.85.282-5.6.826-8.28 1.854 1.467 3.302 3.315 7.031 6.19 9.338.73.585 1.542.99 2.31 1.507a26 26 0 0 1-.782 2.26c-3.886-1.46-7.087-.303-10.753 1.374-.926.424-1.814.892-2.655 1.466.833 1.154 1.64 2.347 2.556 3.439 2.176 2.657 4.023 4.795 7.54 5.478 1.072-3.865 2.081-7.801 3.436-11.576 1.668-4.646 3.875-9.33 6.154-13.703-1.928-1.4-3.349-1.779-5.716-1.437m109.421 3.507c-.113.291-.253.472-.165.78l.144.115.233-.594c-.132-.256-.05-.165-.212-.3m2.094 2.734-.39.48c.125.157.051.114.202.16l.434-.433-.087-.16zm45.647.246c-2.099.395-4.337 1.263-6.035 2.58-1.973 1.53-3.291 3.599-4.945 5.423-1.243 1.371-2.66 2.568-3.962 3.881-1.533 1.546-2.948 3.2-4.563 4.665-2.486 2.255-5.914 3.063-7.882 5.92q-.294.43-.566.876c3.952.21 8.311.166 12.272-.004 1.827-.078 3.68-.733 5.51-.431 1.394.229 2.88.947 3.816 2.008 1.305 1.478 1.444 3.32 1.291 5.192-.103 1.267-.88 5.041-.225 6.02.185.277.435.354.751.382 1.802.16 3.734-.012 5.553-.015l12.756-.041c1.995-.01 4.167-.187 6.135.125.836.133 1.643.367 2.228 1.012.58.64.708 1.435.659 2.274-.04.676-.33 1.341-.85 1.789-.161.139-.348.253-.53.364l-.036 30.092c5.021 1.754 12.89 4.883 18.022 5.278.8-2.594 1.651-5.183 2.318-7.815 1.656-6.535 2.718-13.71 2.815-20.455-4.03-2.667-7.62-5.242-10.286-9.395-1.53-2.385-2.589-4.624-4.661-6.632-1.127-.937-2.338-1.812-3.709-2.359-1.686-.672-8.532-1.872-8.756-3.645-.04-.314.102-.672.328-.893.203-.199.5-.406.802-.385.625.045 2.225.857 2.991 1.09 5.34 1.624 9.225 2.484 12.545 7.572.84 1.29 1.522 2.682 2.346 3.983q.398.615.833 1.205t.903 1.153.972 1.097 1.036 1.035 1.097.972 1.153.903q.59.435 1.206.833.615.398 1.254.757c.068-8.772-.772-17.134-2.671-25.71-1.348-.752-2.754-1.411-4.128-2.117-3.192-1.64-5.757-2.853-9.422-2.89.794.867 3.762 3.265 3.745 4.28-.005.275-.095.447-.212.684-.288.183-.427.255-.775.187-.975-.192-2.096-1.308-2.809-1.959-1.503-1.373-2.964-2.84-4.215-4.448q-2-2.556-3.75-5.289c-.826-1.309-1.546-2.75-2.493-3.971-.446-.575-.965-1.175-1.615-1.519-1.123-.594-2.292-.246-3.356.287-2.887 6.046-7.126 11.831-12.782 15.533-.952.623-2.024 1.351-3.112 1.713-.279.092-.52.099-.811.087-.288-.16-.392-.197-.497-.536-.093-.301-.024-.727.054-1.02 1.078-.928 3.033-1.766 4.31-2.713 3.403-2.523 6.018-5.968 8.286-9.51.49-.764 1.093-1.561 1.392-2.42-.03-.181.008-.288-.162-.397-1.165-.742-3.68.528-5.078-.07-1.703-.727-1.933-3.524-3.689-4.383a2.7 2.7 0 0 0-.797-.23m-114.899.227c-2.397.709-3.624 2.986-6.016 3.556-1.39.331-2.922.258-4.345.284 1.502 2.723 3.004 5.581 5.036 7.954 1.55 1.81 7.592 6.7 8.172 8.088-.133.372-.194.504-.527.747-.765.195-1.496-.176-2.146-.563-1.805-1.075-6.78-5.881-8.053-7.553-.84-1.103-1.569-2.295-2.236-3.51-1.2-2.187-3.041-6.833-6.257-6.044-1.932.475-3.382 2.548-4.307 4.182-.981 1.733-1.862 3.523-2.994 5.165-1.11 1.611-5.815 6.89-7.706 7.4-.402.109-.936.019-1.284-.207-.265-.172-.31-.27-.437-.546.121-1.074 1.779-2.264 2.586-2.908.858-.685 1.75-1.342 2.58-2.06-3.644 1.043-11.123 3.359-14.137 5.15-.683 2.059-1.058 4.27-1.448 6.4-1.282 6.994-1.846 13.935-1.852 21.037 2.178-1.96 4.491-3.668 6.404-5.917 5.534-6.51 5.25-10.544 14.518-13.558 1.291-.42 3.166-1.255 4.497-1.198.438.018.842.119 1.143.458.161.182.14.316.177.546-.197.562-.547.835-1.08 1.088-.806.38-1.75.593-2.6.875-3.01.997-6.584 2.194-8.765 4.575-1.84 2.264-3.163 4.741-4.845 7.093-1.79 2.502-4.173 4.648-6.61 6.512-.455.348-1.442 1.262-2.014 1.239-.193-.007-.476-.194-.636-.281l-.11.08c-.048 1.278.077 2.576.145 3.852.427 8.014 2.197 18.806 5.143 26.25 5.651-2.305 11.52-4.043 17.178-6.346.643-4.593.835-9.335 1.168-13.965.26-3.623.731-7.338.617-10.967-.035-1.126-.201-2.208-.565-3.278-.569-1.674-1.84-3.144-1.042-4.952q.13-.295.297-.57c.238-.385.539-.747.9-1.022.66-.5 1.47-.625 2.273-.712 2.488-.27 5.112-.117 7.613-.12 5.525-.005 11.085.128 16.604-.078-.377-3.184-1.65-8.498.382-11.193.797-1.056 1.784-1.58 3.083-1.741 2.072-.257 4.302-.106 6.392-.107q6.109.031 12.218-.034c-1.626-2.685-3.476-3.236-5.956-4.847q-2.344-1.527-4.493-3.32a34 34 0 0 1-3.88-3.844c-1.033-1.213-1.92-2.54-2.9-3.795-1.55-1.982-3.32-3.7-5.297-5.252-.905-.71-1.812-1.43-2.899-1.846q-.188-.072-.382-.127c-.432-.12-.864-.095-1.306-.07m44.829 3.697-.453.35c.068.198.01.127.15.231l.452-.35c-.066-.198-.008-.128-.15-.23M229.59 91.41c-.798.141-1.55.319-2.323.563 1.25 4.272 2.689 8.426 3.725 12.766 1.901-.766 3.767-1.549 5.242-3.024 1.908-2.074 3.786-4.638 5.071-7.158-2.8-1.185-8.778-3.43-11.715-3.147m-91.053 6.445.119.097.078-.045-.103-.117zm-2.817 2.085c.006.306-.062.666.122.913l.131-.038c-.001-.401.023-.558-.253-.875m-15.546.107-.238.362c.14.251.187.272.423.414l.344-.5c-.13-.231-.285-.203-.529-.276m9.334 2.771c-.13.574-.143 1.616.175 2.126.063-.618.179-1.26.065-1.876zm-107.866 3.326c-3.552 1.163-6.898 3.038-9.973 5.156 1.52 1.88 3.057 3.626 4.916 5.188 1.463 1.159 2.845 2.468 4.862 2.227q.492-.06.983-.138c.341-3.875 1.084-7.75 1.794-11.573-.846-.343-1.686-.672-2.582-.86m210.098.285c.418 2.502.863 5.005 1.208 7.518.25 1.815.377 3.683.718 5.478 3.036-.673 4.853-1.808 7.115-3.924 1.445-1.515 2.8-3.047 4.059-4.724-3.807-2.61-8.429-4.635-13.1-4.348m-153.572 6.31c.05.697.08 1.403.155 2.096q6.285.06 12.57.036l.002-2.123c-4.24-.003-8.487-.058-12.727-.009m14.223.008v2.103l12.292-.003-.001-2.102zm13.731 0-.002 2.117c4.292.01 8.602.078 12.893-.034l.004-2.088zm31.147.02-.003 2.108 12.475-.02.004-2.111c-4.156.006-8.32-.04-12.476.022m14.131-.023-.007 2.12 11.644.03.022-2.142zm13.222 0-.005 2.15c4.446.007 8.903.08 13.348-.023l.018-2.124zm-44.234.263-.005 3.124-6.635.04v4.599c1.028-.006 4.734-.263 5.428.146.187.324.182.424.192.802l-.167.31c-1.4.272-2.957.099-4.383.1l-8.678.034c-.01 1.44-.133 3.008.044 4.43.324.183.646.139 1.004.129q6.153.088 12.304-.039c.86-2.617 2.514-4.922 5.002-6.198.865-.443 1.82-.747 2.768-.953l-.003-6.534zm8.488-.009c0 2.216-.03 4.436.01 6.65 2.71.811 5.033 2.302 6.389 4.858 1.696 3.198.873 9.639 1.123 13.422.287.26.582.515.851.794q6.23.034 12.46-.004l.007-4.628c-2.082-.047-11.56.245-12.704-.262-.228-.319-.151-.483-.128-.865.219-.249.573-.205.898-.222 1.465-.077 2.96-.027 4.427-.03.398-.562.123-3.739.095-4.591-1.177-.033-4.47.091-5.362-.243-.039-.404-.029-.65.077-1.04 1.153-.365 10.52-.095 12.688-.12l.01-4.55-13.041-.023c.004-.463-.004-.928.013-1.391h5.598l-.023-4.536-6.28.002c-.01-1.084 0-2.172-.035-3.255zm-50.247 3.16c.065 1.533.268 3.096.55 4.602l5.136-.01.021-4.531zm7.228.056-.005 4.562c4.03.002 8.078.08 12.106-.023l.024-4.539zm13.603 0-.013 4.555 8.44.01c1.436.001 2.996.13 4.416-.059q.049-2.25.002-4.5zm44.296.008.005 4.547 12.65.005.024-4.56zm14.164.018c-.003 1.515-.024 3.033-.008 4.549l12.36-.026-.01-4.533c-4.113.002-8.23-.04-12.342.01m13.933-.008q-.024 2.266-.01 4.533c1.87 0 3.746.032 5.615-.032q.03-2.25.014-4.5zm-149.647 4.683c-.075.159-.188.534-.354.591-.377.128-1.932-.189-2.925.092-2.737.772-6.948 4.324-9.186 6.217q1.882 1.464 3.815 2.86c1.765 1.225 3.543 2.415 5.427 3.451q1.536-.095 3.064-.277-.06-3.56.026-7.119c.06-1.904.285-3.921.133-5.815m211.555-.014c.192 4.454.127 8.927.102 13.384 3.738-.475 5.661-1.46 8.795-3.547q1.923-1.354 3.609-2.994c-2.53-2.366-5.732-5.275-9.092-6.253-1.112-.324-2.311-.255-3.414-.59m-141.27 1.26-.008 4.605c4.033-.005 8.08.052 12.11-.091.05-1.509.035-3.017.027-4.526-4.038.002-8.094-.081-12.129.012m58.773.011q-.027 2.267-.008 4.534l11.79.013.017-4.533zm13.393.005q-.019 2.28-.013 4.56l12.325-.034.007-4.534c-4.104.014-8.216-.054-12.318.008m-85.323.05q-.014 2.256 0 4.51l11.56.038.023-4.555c-3.85-.06-7.734-.082-11.583.008m102.386 3.21-2.91.03-.013 2.05 2.89.013 2.831.002-.01-2.07c-.928-.015-1.86-.046-2.788-.025m3.658.036-.002 2.055q3.24.024 6.48.013l-.002-2.058zm7.249.007-.006 2.092q3.1.038 6.198.005l.011-2.093q-3.102-.049-6.203-.005m7.016.025-.002 2.076q2.859.021 5.718.007l.008-2.066zm-148.484.121.7 2.379c.479-.005.974.02 1.448-.035l.026-2.356zm2.736-.023.01 2.406 1.984.004.024-2.399c-.671-.008-1.346-.034-2.017-.011m2.594.025v2.399c.735-.005 1.486.018 2.218-.028l.029-2.364zm2.708.037c-.007.788-.028 1.58-.016 2.368l2.244-.019.047-2.355c-.754-.005-1.523-.037-2.275.005m6.027.015c-.177.021-.505.001-.61.153-.349.505-.103 1.59-.105 2.183l1.647.024.377-.075c.32-.575.183-1.583.17-2.24zm2.181-.01c-.287.27-.234.478-.248.87-.016.5.013 1.007.03 1.507l1.698-.005c.261-.225.215-.305.239-.652.037-.55.002-1.114-.011-1.665zm-5.414.04.008 2.315 1.97-.013.034-2.3c-.67-.002-1.343-.018-2.012-.003m7.665 0 .003 2.34c.758.008 1.528.04 2.286.006l.016-2.329c-.763-.014-1.543-.057-2.305-.016m2.792.033.018 2.313c.727-.003 1.509.056 2.223-.085.024-.742.057-1.485.041-2.227zm2.797-.007.008 2.277c.5.042 1.005.098 1.507.106.012-.658.18-1.614-.136-2.191-.468-.264-.85-.198-1.379-.192m68.912 2.325-.301.097c-.344 1.064-.111 3.36-.1 4.552l12.256-.002.27-.074c.385-.859.129-3.48.101-4.534q-6.113-.053-12.226-.04m-64.8.066v4.621h4.918l-.005-4.618zm6.48-.017q-.02 2.32-.004 4.638c4.019 0 8.081.13 12.095-.02q.03-2.3.007-4.602c-4.027-.012-8.074-.11-12.099-.016m13.66.011-.002 4.638c4.24 0 8.503.096 12.741-.014l.007-4.618q-6.373-.042-12.746-.006m14.232-.01.009 4.63c1.788-.008 3.607.05 5.391-.056q.076-2.292.093-4.585c-1.826 0-3.669-.05-5.493.012m44.211-.006c-.002 1.526-.05 3.07.022 4.593q6.178.06 12.356.01c-.003-1.529.018-3.062-.015-4.591-4.108-.04-8.256-.123-12.363-.012m13.822-.011v4.644l5.239-.035-.006-4.577q-2.616-.08-5.233-.032m6.988.747.006 3.002 2.077-.022-.001-2.976zm3.09.017q-.044 1.47-.037 2.94l6.195-.011-.004-2.942q-3.077-.02-6.155.013m7.138-.001.004 2.949q3.028.026 6.056.02l.007-2.974c-2.018-.002-4.05-.055-6.066.005m7.07.013-.006 2.94 6.042-.01c.008-.976.031-1.954-.036-2.929q-3-.032-6-.001m6.948-.007.001 2.931 2.375-.023.001-2.923c-.791.004-1.587-.01-2.377.014m-151.023.266.017 2.722c.813.007 1.674.067 2.48-.034.076-.895.113-1.771.104-2.67zm3.14.014c-.133.886-.068 1.802-.044 2.696l1.996-.002c.145-.876.094-1.805.069-2.692-.672-.007-1.35-.031-2.022-.002m2.715.008c-.23.832-.112 1.844-.086 2.706H59.7c.121-.876.078-1.823.044-2.707-.637-.006-1.28-.03-1.916.001m2.492.018c-.003.893-.024 1.79 0 2.683h2.19c.008-.892.028-1.785.019-2.677-.735-.01-1.474-.04-2.209-.006m2.777-.023.023 2.707 1.99.001-.001-2.695zm2.553.02.001 2.662 1.978.012.01-2.68zm2.515.006c-.004.893-.028 1.793.01 2.685l2.475.01-.007-2.686c-.825-.013-1.654-.04-2.478-.01m3.004 0c.009.898.005 1.798.031 2.695l2.173-.008.014-2.69c-.737-.003-1.482-.025-2.218.003m2.718.014-.006 2.664 2.11.006.006-2.687c-.702.002-1.41-.014-2.11.017m2.589-.05c-.031.611-.28 2.26.175 2.72.031.03.07.05.106.076.198-.812.186-1.72.067-2.543-.126-.128-.178-.18-.348-.252m-24.588 3.898-.012 2.841 1.756-.01.019-2.847zm2.24-.022.014 2.863 1.833.004c.003-.944.033-1.898-.006-2.841zm2.398-.006c-.001.942-.039 1.903.034 2.841l1.848.015q.025-1.427.026-2.854zm2.432.016c-.004.933-.024 1.87-.004 2.803.685.006 1.376.033 2.06.004l.002-2.812zm2.66.003c-.002.925-.02 1.853.012 2.777.7.016 1.402.045 2.102.027.007-.921.021-1.843.016-2.764-.71-.023-1.42-.054-2.13-.04m3.174.03-.395.074c-.399.639-.159 1.957-.159 2.703l1.793.022.343-.06c.338-.638.157-1.958.137-2.691zm2.246-.01.004 2.819c.562.003 1.15.04 1.707-.029.169-.908.113-1.857.102-2.777-.602-.007-1.21-.031-1.812-.013m137.197.013q-2.309.055-4.619.047c-.009.589-.014 1.174-.058 1.761-.026.358.003.72.271.992.22.223.81.14 1.108.128l4.432-.021v-2.92zm-134.858.045-.001 2.757 2.504.006v-2.704c-.832-.023-1.67-.069-2.503-.06m3.013.046c-.002.901-.029 1.811.007 2.712l2.235.01c.028-.909.032-1.827.112-2.733zm2.849-.012-.016 2.77 1.67-.015.018-2.745zm103.598-.014.017 2.87c1.868-.004 3.746.034 5.613-.014l.008-2.862c-1.878 0-3.759-.016-5.638.006m6.617-.006.005 2.837 6.258.018.001-2.852c-2.085-.006-4.179-.052-6.264-.003m7.178 0 .001 2.89 6.11-.006.001-2.887q-3.056-.03-6.112.003m-78.661.944-7.793.059-.013 4.63 5.163-.003q3.852-.029 7.701-.145.02-2.284.012-4.568-2.535-.013-5.07.027m60.843.002-10.193.036-.006 4.578 2.197.017 10.21-.036-.007-4.587zm-95.441.097-.015 4.847 11.585-.14.025-4.672zm13.111-.017-.003 4.695q6.117-.094 12.235-.09l-.01-4.636q-6.111-.024-12.222.03m58.77-.058.003 4.613c3.948.047 7.897-.073 11.842-.031l-.002-4.545c-3.934-.04-7.913-.172-11.843-.037m-129.107 1.478h.102zm211.729.153c-.53 4.504-.986 8.966-1.769 13.44 3.393.074 5.904-.505 8.83-2.294 1.431-.85 2.821-1.754 4.232-2.636-2.332-2.545-4.85-5.726-7.968-7.28-1.062-.53-2.25-.748-3.326-1.23m-214.274.903c-3.459 1.992-6.187 4.86-8.853 7.78 1.854 1.246 3.873 2.445 5.918 3.353q2.042.903 4.12 1.72 1.453-.322 2.913-.606c-.843-3.939-1.23-8.073-1.375-12.095-.894-.076-1.829-.212-2.723-.152m32.82.444c-.177.022-.445-.011-.553.15-.398.59-.194 1.957-.207 2.651l2.744.002c.18-.012.502.029.608-.128.408-.597.14-1.958.128-2.666q-1.36-.023-2.72-.01m3.448-.011c-.004.938-.023 1.88 0 2.818l2.501-.003.01-2.815c-.836-.006-1.675-.026-2.51 0m3.427.001c-.264.202-.296.222-.351.567-.11.688-.017 1.508.004 2.21.728.01 1.458.031 2.186.024l.276-.108c.26-.785.1-1.887.062-2.71-.726-.01-1.452-.03-2.177.017m2.73-.007c0 .924-.015 1.851.007 2.775.979.005 1.96.024 2.938.01 0-.91.02-1.826-.012-2.735a38 38 0 0 0-2.932-.05m10.478-.029-.008 2.765 1.603-.02-.007-2.74zm2.239.031c-.376.747-.222 1.89-.192 2.715l2.186.004c.367-.605.184-2.038.166-2.772-.717.01-1.447-.01-2.16.053m104.137.162.005 2.966c.691-.014 1.394-.005 2.082-.06l-.007-2.9c-.692-.005-1.39-.029-2.08-.006m2.995.04.001 2.868 4.094.003c-.004-.935.016-1.879-.021-2.812q-2.036-.05-4.073-.06m10.432.046a43 43 0 0 0-.04 2.862l2.78.01.002-2.903c-.913.007-1.83-.006-2.742.03m3.707-.049-.004 2.887q2.998.012 5.995-.007v-2.916zm6.93-.035c-.003.97-.02 1.942.005 2.912l2.446.002.004-2.917c-.817.001-1.638-.012-2.455.004m-74.127 1.817q-.053 1.653-.047 3.305c4.565-.005 9.146-.114 13.707.017l-.006-2.348c-1.766-.011-3.685.185-5.428.024-.072-.339-.03-.796-.301-1-2.636-.095-5.287-.02-7.925.002m-9.496.092c-.071.38-.042.562-.334.825-1.733.17-3.518.025-5.26.052l.011 2.494c2.563-.102 5.138-.235 7.703-.234l5.799-.006.007-3.162c-2.638-.004-5.29-.069-7.926.031m-8.052.939-11.786.084c-.013.832-.313 2.484.24 3.139.337.137.648.059.995.01q5.77-.516 11.556-.763c.014-.737.16-1.599-.102-2.291-.31-.254-.51-.18-.903-.18m32.604-.062-.016 2.365 12.537.732.002-3.066zm14.006.031-.037 3.2c4.163.416 8.367 1.07 12.538 1.324l-.016-4.51q-6.243-.053-12.485-.014m13.88-.029-.013 4.506 5.256-.035.005-4.47zm-85.896.295q-.043 2.387-.009 4.774c3.484-.508 6.986-1.067 10.49-1.41l1.647-.189.005-3.272c-4.042.03-8.092.01-12.133.097m-6.556.088-.048 6.083c1.354-.31 2.722-.593 4.066-.94.383-.126.677-.145.927-.47.16-1.547.038-3.139.044-4.694zm-24.766.675-.315.098c-.262.756-.108 1.93-.097 2.737l1.776.006.273-.087c.252-.783.11-1.9.102-2.73zm2.342-.02c-.003.953-.015 1.907-.007 2.86l2.124.002c-.005-.936.01-1.875-.021-2.81-.702-.04-1.393-.08-2.096-.052m3.024.012c-.236.171-.247.19-.285.496-.092.754-.008 1.588-.008 2.35l1.884-.008c.267-.23.215-.298.238-.64.046-.662.064-1.362-.1-2.008-.481-.317-1.168-.211-1.729-.19m5.078-.11c-.194.899-.179 1.886-.06 2.796l.264.338c.117-.623.338-2.443-.015-2.968-.048-.072-.122-.117-.19-.167m8.17.112-.217.157c-.13.9-.052 1.86-.035 2.771l2.202-.016.202-.131c.135-.893.063-1.851.054-2.755zm2.808-.068c-.072.85-.375 2.269.176 2.966.254.052.485.08.745.087.016-.703.28-2.369-.17-2.916-.12-.145-.561-.127-.751-.137m-24.548.114q-.057 1.397-.054 2.795l2.141-.017q.033-1.387.034-2.775c-.705-.005-1.416-.029-2.121-.003m10.804.012.006 2.78c.695 0 1.4.025 2.094-.002.001-.928.03-1.866-.013-2.792-.695.001-1.394-.012-2.088.014m116.649.257.001 2.98q2.882-.065 5.766-.091c-.046-.962-.112-1.928-.117-2.891-1.882-.004-3.77-.04-5.65.002m6.691-.086c-.052.998.002 1.965.075 2.96 4.31.166 8.657.05 12.971.05l.012-2.87c-2.034-.138-4.117-.046-6.156-.035-.01.88-.006 1.762-.034 2.642q-3.201.059-6.403.07c.017-.853.09-1.741-.075-2.58-.212-.22-.084-.139-.39-.237m14.004.098q-.02 1.454-.02 2.908l5.838-.029-.005-2.763c-1.893-.249-3.903-.122-5.813-.116m-148.436 3.678c-.033.556-.062 1.11-.13 1.663-.042.336.001.551.096.874.226.243.247.252.593.27.14.008.28.002.419 0 .02-.813.295-2.136-.287-2.756zm1.319.064q-.063 1.37-.044 2.741l2.058-.023c.01-.898.042-1.802.01-2.698zm2.615.021c-.008.906-.04 1.817.017 2.721l2.291.002c0-.899.02-1.804-.008-2.702-.766-.017-1.533-.043-2.3-.02m2.951-.007c-.026.67-.243 1.889.205 2.433.204.25.545.296.847.295.43-.003.86-.048 1.288-.088.235-.839.175-1.772.16-2.639zm2.982.01c-.006.882-.027 1.768.013 2.649.74.048 1.44.061 2.18.004.123-.877.078-1.774.068-2.658zm2.778.004c.005.884-.026 1.788.055 2.668.659.011 1.323.042 1.981.006.055-.876.052-1.739.03-2.616-.69-.035-1.376-.078-2.066-.058m2.586.114.003 2.56c.754.006 1.515.033 2.268.007l.024-2.569zm2.796.024c-.007.854-.022 1.708-.017 2.561l2.625-.001q.023-1.29.016-2.581c-.873.005-1.751-.008-2.624.021m3.107-.069-.005 2.837 2.312-.375c.081-.816.064-1.636.063-2.455-.789-.004-1.581-.024-2.37-.007m2.802.022-.036 2.275 1.69-.319c.218-.183.17-.142.192-.407.046-.512.02-1.027.007-1.54zm121.215.317-.198.154c-.086.874-.05 1.76-.04 2.637h5.577l.211-.113c.186-.839.074-1.803.067-2.663q-2.808-.048-5.617-.015m-21.012.111c.564.186 1.208.392 1.808.293-.37-.33-.58-.368-1.075-.348-.244.01-.49.034-.733.055m3.448-.016c.142.392.129.501.527.679.416.185 1.122.2 1.584.262-.047-.42-.005-.6-.297-.918-.55-.227-1.232-.076-1.814-.023m3.02-.028c.001.357-.069.832.14 1.135a58 58 0 0 0 5.964 1.64l.025-2.788q-3.065-.018-6.13.013m7.156-.016.006 2.734q3.05.064 6.1.026l-.002-2.764q-3.052-.04-6.104.004m14.006-.022c.002.906-.026 1.825.044 2.728q1.221.042 2.443.047v-2.76c-.827-.007-1.659-.029-2.487-.015m-86.481.483c-3.44.097-7.029.025-10.446.419l.012 3.989 1.712-.073q5.405-.148 10.813-.135l-.005-4.25zm3.525-.074-.003 4.32q3.64-.048 7.281-.046c.064-1.429.035-2.862.028-4.292-2.434.004-4.873-.027-7.306.018m8.91-.009q-.029 2.152-.018 4.305h7.756l.004-4.303q-3.871-.024-7.743-.002m9.121.021-.002 4.306q5.89.025 11.775.245l.004-4.155c-3.922-.124-7.85-.447-11.777-.396m13.153.48-.01 4.132c4.274.158 8.558.6 12.824.915q.038-1.871.034-3.744-6.408-.81-12.848-1.302m-48.005.191q-5.646.381-11.256 1.115l-.004 3.668 1.42-.122c3.767-.373 7.534-.528 11.302-.835l-.013-3.898c-.477.021-.977.012-1.45.072m62.239 1.295-.023 3.742q3.885.476 7.753 1.073c1.552.253 3.376.793 4.928.808.134-1.121.11-2.244.104-3.37-4.173-1.09-8.478-1.779-12.762-2.253m-75.767.197c-3.947.596-7.824 1.406-11.73 2.22-.009.666-.011 1.331-.05 1.997-.025.447-.017.94.273 1.304.248.02.431.005.674-.05 3.861-.816 7.739-1.405 11.64-1.99.03-.892.331-2.828-.222-3.517-.197.002-.391-.01-.585.036m-38.828.89c-.05.665-.286 1.845-.046 2.44.17.096.174.128.377.113 1.154-.084 2.318.183 3.5.144.383-.626.196-1.988.171-2.722-1.335-.01-2.667.01-4.002.026m4.566-.04c.002.932-.018 1.87.038 2.8a62 62 0 0 0 2.803.048c-.015-.933.005-1.883-.066-2.813q-1.387-.072-2.775-.034m3.247-.01c-.015.845-.194 1.987.157 2.762.24.21.328.298.666.322.395.027.953-.214 1.324-.34.348-.463.15-2.123.135-2.746zm2.833-.002-.02 2.595 1.71-.474c.277-.241.26-.272.287-.641.035-.491 0-.995-.016-1.487zm2.567-.001-.009 1.76c1.41-.448 2.817-.916 4.248-1.293l1.701-.43c-1.978-.073-3.96-.045-5.94-.037m126.941.589c.161.04.287.091.452.063l-.182-.164zm10.864-.032-2.02.021-.001 2.89 3.615-.018 1.996-.109-.012-2.704c-1.197-.088-2.38-.09-3.578-.08m-9.517.099c.084.125.147.268.252.377.51.529 5.083 1.945 6.135 2.316l-.001-2.776c-1.864-.014-4.633-.266-6.386.082m-12.648.702a56 56 0 0 0-.098 3.565c6.087 1.355 12.313 3.165 18.255 5.072-.003-.943.006-1.888-.01-2.831q-4.447-1.72-8.988-3.173t-9.16-2.633m-103.505.538c-4.01.968-7.866 2.165-11.796 3.397.002.826-.166 2.134.116 2.891l.13.042c3.914-1.137 7.87-2.224 11.85-3.105.005-1.011.107-2.124-.057-3.119-.198-.112-.11-.097-.243-.106m155.706.24c-.991 4.076-1.91 8.172-3.362 12.114 3.49.981 6.05.396 9.418-.748 1.615-.624 3.163-1.297 4.672-2.157-2.927-3.344-6.239-8.04-10.728-9.21m-209.639.526c-3.237 1.307-6.28 6.133-8.462 8.84l6.751 2.813c1.284.494 2.564 1.007 3.86 1.467 1.038-.53 2.06-1.112 3-1.804q-1.824-5.435-3.035-11.04c-.719-.151-1.376-.274-2.114-.276m87.054.024q-4.84.066-9.665.448-.03 2.45-.01 4.9c.887-.038 1.776-.061 2.661-.121 3.244-.083 6.507-.257 9.75-.268l-.005-5.02zm4.206-.048q-.008 2.482.063 4.963c1.935-.018 3.887-.09 5.82-.026-.17.457-.328.922-.517 1.37q-6.405.021-12.808.183l.005 5.123q3.843-.035 7.686-.019l3.574.034c.407-3.334 1.596-6.097 4.314-8.2.9-.697 1.958-1.232 2.994-1.693.297-.132 2.325-.823 2.439-.957.026-.031.086-.368.087-.381.004-.103-.034-.253-.056-.356-.898-.226-2.097-.069-3.035-.079q-5.283-.078-10.566.038m30.501.017-.026 5.108c4.198.143 8.393.24 12.587.495l.038-4.982c-4.154-.27-8.44-.644-12.599-.621m-45.948.643c-4.21.267-8.371.836-12.551 1.39-.008.727-.186 4.194.102 4.591 4.174-.544 8.39-.8 12.582-1.168.009-.78.233-4.332-.133-4.813m60.018.073q-.035 2.49-.026 4.981c4.165.303 8.402.449 12.533 1.06l.005-4.731c-4.171-.612-8.319-.935-12.512-1.31m-107.38.393-.009 2.214c.45-.168.905-.329 1.352-.507.238-.304.312-.551.404-.915-.093-.316-.118-.418-.427-.59-.356-.2-.924-.175-1.32-.202m1.847.082.007 1.551c.624-.192 1.246-.377 1.852-.62.265-.179.255-.179.34-.489-.073-.162-.083-.295-.258-.372-.484-.213-1.402-.08-1.94-.07m2.598.037.069.548c.251.153.367.156.657.085.312-.076.613-.197.923-.285l.225-.151c-.521-.234-1.303-.171-1.874-.197m145.72.615c.382.136.927.413 1.32.27l-.029-.22c-.442-.117-.837-.08-1.29-.05m2.58.046c-.011.353-.1.683.16.97.37.409 1.295.518 1.81.692l.014-1.635zm-31.37.333q-.027 2.346-.017 4.693c4.464.547 8.865 1.438 13.252 2.415.004-1.373.046-2.758-.038-4.129-4.288-1.351-8.763-2.258-13.197-2.979m-88.363.158c-4.239.66-8.532 1.631-12.66 2.797-.003.7-.22 3.315.197 3.738l.113-.001c4.108-.9 8.409-1.66 12.584-2.172.05-.967.39-3.54-.007-4.33zm-20.984.713c-1.587.51-3.183.999-4.76 1.532-.002.815-.141 1.96.084 2.726l.2.067q2.395-.746 4.811-1.417c.003-.918.085-1.92-.075-2.822-.217-.093-.126-.082-.26-.087m136.567 1.701.006 3.123c1.424.545 11.582 4.297 12.218 4.05l.066-.033c0-.738.01-1.41.171-2.134-.559-.62-10.845-4.421-12.461-5.006m-142.968.291-10.63 3.969c-.008.688-.117 1.64.082 2.291l.218.036c3.523-1.16 7.141-2.156 10.632-3.392.028-.915.107-1.863.009-2.772l-.135-.137zm13.127.529q-5.145 1.296-10.204 2.895c-2.521.795-5.026 1.696-7.568 2.416-.011 1.039-.089 2.127.043 3.157.2.136.109.112.249.133 3.274-.977 6.521-2.068 9.81-2.99 2.596-.727 5.251-1.282 7.833-2.048.02-.703.272-3.074-.12-3.54-.01-.013-.029-.016-.043-.023m117.258.278.004 3.686 5.388 1.564-.005-4.023c-1.79-.488-3.543-.982-5.387-1.227m-84.207.77q-5.269.173-10.525.578c-.012 1.625-.04 3.252-.028 4.877.627-.038 1.258-.06 1.882-.127q5.357-.24 10.717-.358c.003-1.684.039-3.376-.02-5.059-.674.028-1.353.043-2.026.09m48.73.022-.02 5.159c4.24.116 8.46.417 12.694.615.004-1.656.025-3.315.01-4.972-4.217-.333-8.452-.707-12.684-.802m-61.546.833c-2.252.228-4.515.428-6.758.731-1.678.227-3.346.552-5.025.764-.013.962-.308 3.743.186 4.41.177.008.335.029.507-.015 3.925-.473 7.929-.644 11.832-1.226.021-1.023.29-3.875-.152-4.64-.225-.067-.359-.061-.59-.024m103.875-.125-.03 4.155c3.86 1.292 7.786 2.396 11.667 3.623l-.002-3.637c-3.785-1.587-7.742-2.847-11.635-4.141m-28.199.155q-.05 2.508-.03 5.017c4.266.308 8.484.785 12.726 1.32.005-1.545.031-3.095.01-4.64-4.097-.931-8.516-1.454-12.706-1.697m-89.212 1.827c-3.98.746-7.955 1.509-11.874 2.535-.008.835-.27 3.513.178 4.115l.276.01q5.81-1.356 11.686-2.38c.072-1.269.315-2.975-.002-4.185-.213-.11-.12-.102-.264-.095m-32.02.077c-3.702 1.404-7.6 2.635-11.208 4.254.001.671-.047 1.355.15 2.002.199.136.102.108.276.127 3.678-1.361 7.346-2.748 11.078-3.953.012-.749.11-1.638-.059-2.365zm135.389-.008c-.024 1.525-.073 3.056-.056 4.582 6.287 1.281 12.75 2.363 18.809 4.532.015-1.325.051-2.654-.001-3.98-6.049-2.275-12.431-3.843-18.752-5.135m33.387.554q.035 1.268.05 2.535c2.405.922 4.93 1.69 7.29 2.697l-.047-3.02c-2.447-.646-4.843-1.632-7.293-2.212m-162.895 1.468c-3.476 1.113-6.97 2.208-10.403 3.447-.009.866-.227 2.547.17 3.272l.13.03 10.44-3.485c.007-1.022.095-2.12-.044-3.131l-.163-.143zm156.618.552c-.009 1.229-.059 2.471-.009 3.698q5.551 1.723 11.08 3.517l.008-3.43c-3.698-1.23-7.36-2.63-11.078-3.785m-144.006.333c-1.539.42-3.055.893-4.573 1.385-.004.785-.203 3.702.173 4.224l.161.001c1.527-.46 3.05-.941 4.591-1.35.005-.733.198-3.766-.157-4.24zm158.575-.06-.006 3.435 1.638.531c.182-.374.379-.748.527-1.137.275-.724.573-1.447.816-2.183-.989-.224-1.977-.47-2.975-.646m-119.45.743-2.36.05c-.083 1.746-.047 3.495-.031 5.244q5.086-.106 10.174-.124l2.553-.022-.038-5.233c-3.418-.002-6.886-.095-10.297.085m11.796-.07v5.191c1.255.02 2.513.054 3.769.058l-.004-5.243zm25.677.039q-.031 2.566.019 5.131l3.12-.006.016-5.077zm4.599.077.008 5.052c4.244.116 8.488.088 12.732.225l.063-4.904c-4.228-.347-8.561-.367-12.803-.373m-49.364.187c-2.99.2-5.968.512-8.955.724l-.01 4.85c1.172-.057 2.345-.131 3.517-.138q4.397-.246 8.8-.332c-.003-1.734.037-3.48-.022-5.214-1.1.031-2.237.001-3.33.11m63.585.201-.047 4.941 12.628.697c.011-1.602.071-3.222.015-4.822-4.171-.37-8.41-.713-12.596-.816m69.945.307c-1.638 4.076-3.276 8.178-5.306 12.078 3.078.718 5.771.998 8.907.346q2.77-.635 5.439-1.61c-2.127-4.272-4.963-8.232-9.04-10.814m-199.68.468c-.94.633-1.822.75-2.88 1.034-2.046 2.01-4.618 6.938-5.924 9.597q2.882.635 5.784 1.178c1.688.3 3.403.593 5.117.691.851-.644 1.694-1.307 2.565-1.924q-1.368-2.682-2.542-5.453c-.444-1.05-1.617-4.461-2.12-5.123m28.004-.015c-3.533 1.11-7.086 2.206-10.578 3.439-.007.688-.204 3.817.119 4.235l.137-.016q5.3-1.665 10.556-3.469c.061-.819.429-3.57-.058-4.174zm26.67.036c-3.966.424-8.03.888-11.91 1.838-.011 1.313-.118 2.702.043 4.003.31.142.657.038.983-.011 3.97-.586 7.964-.915 11.967-1.188.01-1.486.15-3.13-.05-4.596-.342-.164-.67-.087-1.033-.046m89.135.172q-.045 2.39-.03 4.78c4.255.576 8.562 1.048 12.76 1.965l.037-4.66c-3.754-.812-8.993-1.857-12.767-2.085m27.56.453-.026 4.037c1.628.501 3.222 1.097 4.846 1.608 2.381.748 4.8 1.402 7.2 2.095l.004-3.87c-3.969-1.324-7.975-2.82-12.024-3.87m-161.601.575c-1.568.574-3.16 1.115-4.686 1.793a24 24 0 0 1 1.156 2.288l.213.338c.938.156 2.652-.844 3.585-1.174.009-1.018.095-2.103-.034-3.112-.189-.138-.102-.117-.234-.133m31.217.913c-6.006 1.227-11.795 3.136-17.607 5.057-.017.823-.293 3.097.135 3.736l.28.027c3.452-.373 6.407-1.65 9.648-2.762 2.531-.87 5.332-1.634 7.97-2.048.01-.958.286-3.222-.154-4.007zm149.866.12-.036 3.252c.636.234 1.419.653 2.094.48.222-.234.27-.43.364-.731.237-.637.471-1.268.76-1.884-1.04-.437-2.09-.825-3.182-1.118m-32.746.328c-.017 1.52-.003 3.05-.063 4.568q2.903.606 5.834 1.058l.008-4.29c-1.924-.45-3.846-.925-5.779-1.336m-142.223 1.29c-2.952 1.011-6.082 1.905-8.934 3.156.407.96.849 1.89 1.324 2.817l.468.833q3.627-1.313 7.275-2.563c.004-.79.212-3.69-.133-4.244m149.293.36q-.045 2.077-.04 4.155c4.227.653 7.656 2.4 11.686 3.433.123-1.277.058-2.589.047-3.87-3.883-1.313-7.743-2.613-11.693-3.718m19.621.675c0 1.307-.022 2.62.005 3.927 1.897.65 3.79 1.337 5.712 1.903l.6-1.213c.314-.686.63-1.37.912-2.068-2.38-.916-4.791-1.8-7.229-2.55m-107.129.358c-.01 1.65-.035 3.3-.026 4.95l11.375.01-.002-4.958q-5.673-.055-11.347-.002m33.277-.04q-.047 2.501-.05 5.002 5.283-.121 10.567-.15c.098-1.576.038-3.172.026-4.751q-5.27-.137-10.543-.1m-39.044.181-8.287.194-.014 4.628 4.256-.032q4.144-.029 8.289-.004l-.01-4.834zm51.053-.075-.02 4.72c4.257-.025 8.509.136 12.763.14.005-1.453.03-2.91.006-4.362q-6.367-.434-12.749-.498m-63.74.462q-4.803.164-9.591.591-.039 2.147-.03 4.294c.89-.058 1.787-.095 2.676-.177q4.972-.203 9.948-.288l-.012-4.519c-.995.028-1.998.032-2.99.1m77.865.09q-.038 2.166-.022 4.332 6.374.199 12.741.569c.031-1.218.098-2.446.066-3.663-4.208-.69-8.527-1.044-12.785-1.238m-89.155.765q-3.017.274-6 .803t-5.91 1.31c-.006.81-.246 2.877.146 3.512l.153.003c3.95-.433 7.832-1.133 11.804-1.47.035-.902.332-3.443-.033-4.148zm103.416.738-.037 3.558c4.134.39 8.342 1.097 12.497 1.035l.044-2.428c-4.19-.61-8.328-1.491-12.504-2.165m-129.76.337q-6.176 1.84-12.181 4.177c.794 1.628 1.757 3.158 2.723 4.687.279.498.57.992.825 1.502l1.455.026c.01-1.157.105-2.383-.063-3.528-.21-.158-.27-.137-.522-.17l.554-.598-.017-1.89c2.558-.234 5.074-.507 7.601-.968.016-.74.258-2.668-.139-3.239zm156.642.624-.006 3.487q3.131-.022 6.259-.17l.02 2.44c1.138.302 2.217.602 3.264 1.153l.695-.992c.442-.72.915-1.437 1.278-2.201-3.678-1.488-7.668-2.726-11.51-3.718m-143.817.875q-2.325.855-4.675 1.643c-.01.52-.093 1.155.086 1.647l.191.084 4.617-.169c.008-.987.15-2.183-.068-3.14zm130.61.486-.005 2.265q2.423-.012 4.843-.118c.005-.207.081-.591-.06-.748-.65-.72-3.757-1.183-4.778-1.4m5.857 1.639c.162.298.168.427.515.522.407.112.965.087 1.386.073-.575-.3-1.234-.643-1.9-.595m-142.764.153c-.952.226-1.898.422-2.87.543-1.07.133-4.093-.038-4.788.442.054.046.103.107.171.127 1.058.003 7.3.21 7.779-.219.074-.332.08-.501-.014-.829-.092-.024-.183-.064-.278-.064m90.25.03c-1.411.026-6.49-.196-7.416.512l.09.15c1.767.446 7.488.151 9.693.17 1.341.003 6.195.242 7.128-.079l.19-.228c-.033-.278-.006-.297-.187-.532-2.75-.247-6.637-.037-9.499.008m-55.87.132c-.983.007-4.946-.185-5.588.3-.058.275-.044.32.114.569.009.014.024.023.036.034.75.009 4.833.19 5.212-.02.106-.058.181-.159.272-.239.07-.293.139-.335.004-.618zm67.101-.082c.07.234.107.664.367.742.744.222 17.198.06 18.916-.04-1.817-.546-16.587-.822-19.283-.702m-74.362.197c-2.148.112-8.832.078-10.547.765l.175.043c2.168.079 8.465.353 10.299-.091l.192-.184c-.007-.25.037-.327-.12-.532m15.716-.02.24.509c.942.27 16.294.212 17.926.035l-.187-.492c-.578-.25-16.343-.233-17.979-.052m-65.22.973c-.629.519-1.25.962-1.95 1.379-.681 1.307-1.386 2.648-1.828 4.058l3.255.03 3.647-.007c-.699-1.232-2.368-4.572-3.125-5.46m187.627.867-2.838 4.73q2.423.024 4.845.01c.895-.026 1.796-.032 2.69-.083-1.119-1.837-2.596-3.879-4.697-4.657m-8.694 2.023c-.028.832-.227 2.14.382 2.804.169.06.215.12.392.044.38-.162.63-.5.818-.854l.8-1.302c-.793-.254-1.58-.505-2.392-.692m-155.383 1.031c-1.96.087-9.85.54-11.226 1.11l-.037.13c.387.06.773.12 1.156.204 1.12.241 2.338.302 3.477.435 1.73.201 3.482.472 5.222.54-2.83.55-6.558.814-9.46.907l-.142 1.825q5.053.714 10.136 1.16c-2.182.298-8.6.54-10.082 1.28-.143.326-.131.406-.095.766.075.1.122.23.225.303.54.382 6.124 1.123 7.057 1.261l2.909.415c-1.77.152-9.125.424-10.195 1.437-.148.14-.094.126-.09.361.943 1.013 8.231 1.503 9.859 1.717-3.215.368-6.484.501-9.678 1.008l.01 1.655c3.16.513 6.336.909 9.494 1.41-2.212.157-4.404.407-6.606.66-.726.084-1.527.078-2.236.226a.9.9 0 0 0-.549.363c-.123.164-.106.185-.163.392.05.196.003.222.152.297.976.495 78.77.25 86.691.253l69.452.069c2.285-.014 4.598.048 6.878-.1l.032-1.499-7.01-.532c-.961-.072-2.099.005-3.018-.248.462-.248 8.831-1.056 9.996-1.157l.002-1.664c-3.192-.22-6.362-.619-9.553-.845l-.097-.125c3.232-.276 6.445-.689 9.679-.946l.01-1.75-6.78-.636c-1.134-.104-2.315-.129-3.433-.327l.126.056.053-.175c3.347-.356 6.722-.52 10.067-.904l-.005-1.689c-3.679-.358-7.385-.618-11.056-1.034 3.676-.371 7.37-.764 11.052-1.072l-.003-1.814a210 210 0 0 1-11.015-1.06c3.608-.509 7.346-.514 10.981-.845l.014-1.717q-51.759-.35-103.519-.159l-31.53-.017c-5.708.001-11.447-.101-17.152.075m155.867 5.424-.01 21.91q14.061.122 28.123-.002c-1.121-1.616-2.33-3.172-3.516-4.742-1.635-2.145-3.476-4.331-4.914-6.61 2.596-3.502 5.101-7.154 7.838-10.54-3.311.539-6.977.218-10.326.173q-8.597-.157-17.195-.19m-198.424.282c2.363 3.708 5.118 7.195 7.525 10.887-1.706 2.132-3.269 4.375-4.893 6.569-1.005 1.356-2.152 2.706-3.05 4.132 6.817.096 13.645.024 20.464.035 2.465-.01 4.936.02 7.399-.04.035-6.909.224-13.864.011-20.766l-1.385.146c-.627-.31-1.354-.75-2.043-.873-2.1-.373-5.34-.097-7.571-.099zm184.423 17.856c-2.232 2.174-4.698 4.082-6.935 6.23a40 40 0 0 0 1.634 2.784c1.876.6 3.802 1.028 5.728 1.43 1.893.43 3.799.87 5.731 1.084-.345-2.721-1.083-9.314-2.27-11.457zM52.53 207.151c-.883 3.491-1.384 6.84-1.791 10.408 3.16-.613 6.421-1.123 9.526-1.972 2.149-.482 2.278-1.48 3.753-2.807-2.023-1.906-4.236-3.568-6.115-5.63zm53.883.205c-.38.316-.765.621-1.097.99 1.678 1.876 4.049 2.065 6.12 3.275-1.569-.152-3.033-.468-4.559-.85-.82-.204-1.776-.556-2.618-.606a3.25 3.25 0 0 0-1.498.236l-.144.222c.413 1.206 2.276 2.262 3.387 2.807 3.541 1.74 8.706 1.337 12.373.198 2.445.925 4.823 2.026 7.258 2.98-3.31 1.255-6.67 2.66-9.865 4.187l.447 1.455c3.93-1.493 7.809-3.147 11.699-4.742 3.897 1.595 7.813 3.375 11.797 4.728l.44-1.494c-2.641-1.12-5.325-2.135-7.964-3.261l-1.923-.878c2.636-1.075 5.284-2.207 7.99-3.093 3.998 1.39 8.992 1.449 12.862-.413.752-.362 2.55-1.386 2.807-2.197.056-.175-.049-.24-.139-.373-1.75-.768-4.826.46-6.683.759-.699.112-1.398.113-2.103.106l.142-.071c1.188-.573 5.041-1.572 5.521-2.695.133-.31.118-.407.022-.708-.608-.415-2.081-.219-2.748-.087-2.355.466-4.766 1.585-6.976 2.506-4.39 1.829-8.746 3.908-13.25 5.443q-4.342-1.996-8.732-3.883c-3.935-1.726-8.272-3.982-12.566-4.541m-67.688 6.168c3.48 4.131 7.725 7.715 11.93 11.083q.89.714 1.795 1.411t1.822 1.377 1.846 1.343q.93.664 1.872 1.31.942.645 1.895 1.273.954.629 1.919 1.239t1.941 1.202 1.963 1.167q.988.574 1.985 1.13t2.006 1.093q1.007.537 2.025 1.055 1.017.519 2.044 1.018 1.027.5 2.063.98t2.08.941q1.046.461 2.099.903 1.052.441 2.114.863 1.06.422 2.13.824 1.068.402 2.144.784t2.16.745 2.172.704 2.185.664q1.096.321 2.197.623t2.208.583 2.219.54 2.228.5q1.116.24 2.237.46 1.121.218 2.246.417 1.124.197 2.252.374 1.128.178 2.26.335 1.13.155 2.264.29t2.27.25q1.137.115 2.275.208c34.086 2.892 66.257-8.216 92.28-30.178q3.504-2.961 6.74-6.212l1.136-1.192c-.994-.016-1.991-.046-2.986-.042-4.802 4.433-9.705 8.774-15.017 12.594q-1.025.74-2.065 1.458-1.04.719-2.094 1.416-1.055.696-2.124 1.371t-2.152 1.328q-1.082.653-2.178 1.283t-2.205 1.237-2.23 1.192-2.253 1.145q-1.133.562-2.277 1.1-1.144.537-2.299 1.05-1.155.514-2.32 1.005-1.166.49-2.341.955-1.175.466-2.36.907t-2.378.858-2.395.809-2.412.76q-1.21.366-2.426.708-1.218.343-2.441.66-1.224.316-2.454.607-1.23.292-2.466.558t-2.477.506-2.487.456-2.496.404-2.503.352-2.51.3-2.516.249q-1.26.11-2.52.196-1.262.085-2.525.144-1.262.06-2.526.092-1.264.033-2.528.04t-2.528-.012q-1.264-.02-2.527-.065-1.111-.037-2.22-.094t-2.218-.135-2.216-.176-2.211-.216-2.207-.256-2.202-.297-2.197-.337-2.19-.378q-1.092-.198-2.181-.417-1.09-.219-2.175-.457t-2.166-.497q-1.08-.258-2.156-.536t-2.146-.576-2.135-.615-2.124-.654-2.111-.693-2.099-.731-2.084-.77-2.07-.807-2.055-.846q-1.023-.431-2.039-.882-1.015-.451-2.023-.92-1.007-.47-2.005-.957-.999-.487-1.988-.993t-1.969-1.03-1.95-1.065-1.93-1.101-1.91-1.137q-.949-.576-1.888-1.17t-1.867-1.205-1.844-1.24q-.916-.628-1.821-1.272c-5.56-4.002-10.672-8.522-15.585-13.283zm151.035.72q-2.897 1.933-5.832 3.808c-1.437.906-2.942 1.749-4.33 2.725.477 1.003.93 2.028 1.495 2.985q1.997.899 4.021 1.738c2.27.901 4.616 1.988 6.988 2.563.268-3.654.355-7.43.121-11.087-.588-.687-1.738-2.318-2.463-2.733m-123.505.224c-.795.803-1.622 1.59-2.357 2.449-.039 3.79-.116 7.586.008 11.375 2.42-1.025 4.901-1.954 7.292-3.04 2.61-1.16 3.703-1.722 5.075-4.39-1.374-1.037-2.916-1.89-4.38-2.792q-2.848-1.757-5.638-3.602m12.798 7.72c-.657.887-1.366 1.764-1.94 2.706.462 3.76 1.042 7.612 1.91 11.301q2.791-1.616 5.545-3.296c3.44-2.07 3.692-2.036 5.28-5.739-3.575-1.725-7.253-3.156-10.795-4.972m97.846.07c-3.572 1.759-7.167 3.456-10.884 4.889.356 1.005.661 2.007.933 3.038q2.096 1.558 4.365 2.85c1.853 1.127 3.775 2.148 5.692 3.16.844-3.62 1.536-7.357 1.75-11.071-.418-.664-1.305-2.435-1.856-2.866m-84.388 5.8-1.244 3.436c.813 3.511 2.318 7.083 3.77 10.377 1.651-1.126 3.254-2.27 4.767-3.58 3.231-2.678 3.29-2.616 4.354-6.709q-3.6-.93-7.132-2.086c-1.488-.476-3.002-1.065-4.515-1.438m70.774.088c-3.767 1.374-7.779 2.529-11.708 3.322.257 1.175.447 2.428.814 3.57 1.355 1.278 2.809 2.45 4.265 3.61 1.462 1.12 2.92 2.317 4.485 3.293 1.358-2.5 2.865-7.516 3.597-10.341-.276-.678-1.03-3.056-1.453-3.454m-56.317 3.94c-.28 1.201-.617 2.415-.814 3.633 1.57 3.057 3.259 6.787 5.141 9.615 1.336-1.078 2.524-2.368 3.708-3.608 1.294-1.36 2.786-2.77 3.836-4.33.022-1.218.136-2.396.293-3.602-4.082-.443-8.101-1.214-12.164-1.709m41.326.212c-3.813.591-7.612 1.007-11.44 1.472.077 1.255.129 2.515.237 3.767 1.305 1.709 2.852 3.353 4.356 4.891l3.022 2.99c2.254-2.801 3.858-6.175 5.235-9.483-.208-.853-.512-3.093-1.09-3.662zm-26.263 1.729c-.19 1.255-.22 2.526-.405 3.777 1.493 2.81 4.112 6.472 6.223 8.812.931-1.094 1.872-2.179 2.74-3.325 1.293-1.794 2.546-3.582 3.647-5.504q-.138-1.858-.255-3.719c-1.998.062-4.008.162-6.006.137-1.98-.025-3.965-.177-5.943-.178"/><path d="M117.993 98.645c.052-.135.19-.284.277-.401-.074.115-.173.315-.277.4M98.969 197.88c-.432.007-.851.017-1.265-.126-.64-.221-1.09-.722-1.361-1.333-.497-1.119-.493-5.929.072-7.026.319-.617 1.187-.811 1.801-1 .506-.021.992.006 1.453.239.596.3 1.016.904 1.22 1.527.401 1.225.386 5.606-.216 6.665-.372.655-1.023.857-1.704 1.054m-.995-8.013c-.545.841-.528 4.833-.291 5.867.055.244.18.423.406.532.363.174.767.125 1.153.057.435-.954.563-4.955.184-5.942a.78.78 0 0 0-.42-.44c-.299-.14-.715-.097-1.032-.075m-6.594 2.224.032 3.396c.003.74.104 1.727-.446 2.282-.366.002-.637.049-.965-.137-.177-1.18-.052-2.468-.043-3.662.013-1.81-.002-3.618.044-5.427l1.486-.017c.626 1.76 1.334 3.495 1.971 5.252.024-.82-.147-4.248.037-4.78.092-.266.258-.44.54-.514.297-.078.546-.01.79.153.192.71.208 8.542-.012 9.033l-.516.122c-.225-.014-.439-.013-.652-.092-.715-.264-1.805-4.608-2.217-5.506zm13.832 4.877c-.193-.877-.255-2.593-.814-3.277-.142-.173-.166-.132-.37-.159-.518.781-.065 2.745-.17 3.717-.033.304-.009.327-.261.518-.37.019-.673.07-1.002-.135a1.47 1.47 0 0 1-.303-.82c-.05-.608.042-1.233.037-1.844l-.07-6.463q.62-.004 1.239.001c1.01.01 2.316-.009 3.051.8.701.772.592 1.79.553 2.752-.342.584-.662.913-1.239 1.278.42 1.48.82 2.964 1.358 4.408-.534.032-1.058.099-1.583-.03-.303-.249-.308-.38-.427-.746m-1.374-7.097-.025 2.32c.653.012 1.214.017 1.837-.22.116-.482.301-1.051.059-1.525-.162-.315-.52-.495-.858-.548-.328-.052-.68-.032-1.013-.027m6.052.088c-.525.006-1.337.166-1.772-.143-.211-.389-.118-.847-.084-1.273 1.705-.076 3.429-.034 5.137-.039l.029 1.35-1.843.014c-.036 2.022-.014 4.048-.018 6.07q.002.788-.008 1.575c-.187.226-.25.28-.564.32-.29.038-.604-.06-.832-.231-.266-2.467-.053-5.152-.046-7.643m5.88 3.732c-.022 1.06.213 2.354-.017 3.379-.09.403-.226.546-.572.754-.382-.036-.41-.036-.7-.283a2.7 2.7 0 0 1-.257-1.006c-.06-.884.067-1.83.068-2.72.001-1.769-.057-3.54-.097-5.309l1.559-.007.007 3.692 2.026.018-.005-3.706c.458-.008.902 0 1.358.04.066.088.091.107.123.23.163.615.076 8.687-.157 9.004-.434.004-.871.05-1.281-.118-.209-1.26-.073-2.686-.067-3.968zm8.901-1.681c-.033 1.553.195 3.376-.054 4.893-.063.386-.174.8-.525 1.02-.173.11-.23.04-.41-.01-.209-.227-.346-.413-.399-.732-.137-.84-.019-1.874-.016-2.732l.018-5.945 1.79-.009q.584 2.42 1.127 4.85c.547-1.586.964-3.23 1.42-4.845l1.736-.001.01 5.568c.008 1.167.112 2.413-.063 3.569-.062.033-.119.08-.186.1-.333.098-.78.043-1.06-.14-.353-.827-.18-2.006-.161-2.894l-.05-2.734c-.232.992-.593 3.259-1.38 3.945-.153.133-.217.067-.396.036-.821-.886-1.088-2.78-1.401-3.939m7.151 3.981c-.09.577-.173 1.123-.368 1.677-.034.014-.067.031-.102.042-.35.102-.863.068-1.175-.121-.06-1.819 1.394-6.902 1.875-9.081.46-.017.879-.014 1.334.048.422.704.388 1.934.549 2.757.358 1.834 1 3.623 1.317 5.463.048.278.055.516.038.796-.07.043-.135.097-.211.129-.264.109-.775.064-1.023-.061-.36-.452-.441-1.101-.577-1.655zm.82-3.793c-.181.679-.508 1.51-.376 2.212.163.114.293.194.477.278.16-.123.32-.169.35-.382.084-.597-.14-1.593-.45-2.108m6.394 2.641c.217.022.437.04.652.078.27.047.518.05.67.298.218.353.228.678.105 1.065-.204.638-.759 1.18-1.364 1.445-.573.252-1.306.297-1.881.023-.606-.289-.958-.846-1.152-1.47-.39-1.26-.485-5.491.12-6.601.369-.678.887-.924 1.595-1.151.26-.006.526-.015.785.01.577.054 1.134.343 1.47.82.356.51.523 1.29.4 1.896-.296.238-.35.246-.73.292-.93-.375-.448-.957-1.027-1.496-.22-.069-.328-.142-.562-.085-.32.077-.5.227-.64.526-.27.574-.233 4.827.015 5.422.133.316.243.4.547.539.218-.03.342-.062.522-.205.466-.37.435-.862.475-1.406m2.325 2.919q.054-4.62-.003-9.24l4.511-.004q.012.28.014.561c0 .26 0 .54-.209.72-.548.47-2.146.211-2.873.21-.037.74-.01 1.487-.002 2.229.459.006 1.094-.048 1.529.095.396.13.685.293.868.679l-.09.237c-.7.606-1.398.481-2.271.47l-.026 1.88.038.464c.713.606 2.017.067 2.916.299.144.125.262.174.309.37.078.325.024.676-.166.948-1.475.19-3.054.087-4.544.082m5.354.003q.055-4.63.02-9.259c1.09-.011 3.13-.25 3.99.506.464.407.66 1.178.743 1.76.195 1.37.26 4.215-.103 5.53-.084.302-.28.557-.47.801-1.282.837-2.721.677-4.18.662m1.536-7.85c-.043 2-.268 4.279.04 6.242.507.271 1.014.108 1.548-.026.334-.8.399-4.969.054-5.739-.091-.203-.368-.363-.581-.411-.341-.077-.713-.069-1.06-.067m7.494 7.961c-.476.033-.974.039-1.439-.076-.551-.135-1.24-.488-1.486-1.037-.436-.975-.422-6.151.053-7.125.304-.622.908-.886 1.52-1.118.451-.032.986-.062 1.42.082.615.204 1.117.727 1.39 1.305.668 1.42.552 5.258-.048 6.7-.296.71-.726.974-1.41 1.269m-1.034-8.03c-.926.954-.673 3.226-.65 4.533.01.61.019 1.495.5 1.928.217.194.568.205.848.231.893-.887.668-2.77.672-3.981.002-.73.072-1.94-.483-2.476-.221-.215-.594-.221-.887-.235m5.428 2.66c-.026 1.295.243 3.853-.059 5.006-.234.211-.33.281-.666.3-.28.017-.513-.089-.722-.258-.17-1.215-.059-2.49-.05-3.715q.014-2.662-.004-5.323c.356-.008.82-.063 1.15.062.31.117 1.972 4.244 2.3 4.917.01-.923-.197-4.388.174-4.939.172-.023.363-.059.539-.052.288.012.483.04.672.268.034 1.134.179 8.545-.133 8.987-.346.01-.772.066-1.1-.062-.36-.14-1.792-4.44-2.1-5.19m6.237 5.253c-.49.008-.972.054-1.437-.124-.302-2.418-.059-6.537-.05-9.126l1.536-.002c-.108 3.077-.05 6.172-.05 9.251m.904.002c.529-3.101 1.413-6.144 1.932-9.255l.11-.001h.183c.397-.004.778-.07 1.115.174.234.608 1.89 8.672 1.842 9.024-.48.159-.993.105-1.493.096a13 13 0 0 0-.295-1.678l-1.607-.02c-.11.545-.182 1.1-.264 1.65zm2.625-5.925c-.209.739-.718 1.996-.4 2.743l.492.19.29-.248c.056-.782-.08-1.95-.382-2.685m5.074 9.832 10.052-.225c2.697-.082 5.29-.015 7.973.29-3.483.384-7.209.179-10.724.21-2.356-.022-4.997.17-7.301-.275"/></svg>