<svg xmlns="http://www.w3.org/2000/svg" viewBox="0 0 256 256"><path d="M133.36 250.633c-25.853.322-66.595-1.53-90.033-11.827q-1.086-.466-2.15-.98t-2.103-1.076q-1.04-.56-2.053-1.168-1.014-.607-1.999-1.259t-1.94-1.347-1.879-1.433-1.812-1.516-1.743-1.595q-.705-.69-1.382-1.408-.676-.719-1.324-1.463-.647-.745-1.264-1.515t-1.203-1.564-1.139-1.612-1.073-1.656-1.006-1.697q-.486-.86-.937-1.737c-4.074-7.94-6.368-16.591-8.224-25.271q-1.183-5.78-2.126-11.603-.942-5.824-1.643-11.681-.7-5.858-1.157-11.74t-.67-11.778c-.157-3.988-.135-7.984-.192-11.975-.021-1.452-.136-2.9-.15-4.352-.049-5.04.305-10.114.457-15.154Q4.933 99.1 6.484 86.062C7.857 73.469 9.853 61.215 14.3 49.298c3.066-8.214 6.725-15.294 12.933-21.595 4.54-4.607 9.999-8.127 15.905-10.73 16.81-7.41 39.455-9.479 57.683-10.488q10.977-.633 21.972-.794l1.08-.023q10.279-.224 20.555.079t20.524 1.133c3.854.316 7.75.557 11.584 1.058 4.454.582 8.838 1.415 13.243 2.276 8.652 1.692 17.395 3.903 25.365 7.75q.944.455 1.868.946.925.492 1.83 1.02.904.529 1.787 1.093t1.741 1.164q.86.599 1.694 1.232.834.634 1.642 1.3t1.589 1.365 1.532 1.427c9.092 8.863 14.418 24.089 17.101 36.253 1.291 5.855 2.095 11.798 2.922 17.733q1.469 11.106 2.272 22.28t.937 22.376c.058 4.782-.218 9.572-.39 14.348-.7 19.58-2.097 39.328-7.45 58.27-1.6 5.667-3.45 11.181-6.11 16.45q-.885 1.746-1.901 3.419t-2.159 3.263-2.403 3.088-2.632 2.894c-3.553 3.638-8.058 6.9-12.602 9.173-7.386 3.695-15.585 5.9-23.623 7.662-3.054.669-6.123 1.362-9.204 1.9-16.513 2.886-33.483 3.827-50.226 4.012M113.978 10.314c-14.445.299-28.777 1.069-43.069 3.27-8.53 1.314-17.305 3.095-25.3 6.412-5.959 2.471-11.553 5.91-16.043 10.58-4.628 4.815-8.088 10.764-10.606 16.921-5.83 14.258-7.97 30.556-9.39 45.826Q8.461 104.988 8.142 116.7c-.034 1.704.051 3.409.036 5.113-.023 2.628-.107 5.247-.055 7.875.245 12.272.66 24.516 2.038 36.724.729 6.455 1.785 12.815 2.973 19.197 1.694 9.097 4.097 19.325 8.22 27.654q.446.904.93 1.787.484.884 1.006 1.746.521.863 1.08 1.702.557.839 1.15 1.653.594.814 1.221 1.603.628.788 1.288 1.55.661.76 1.354 1.492.692.732 1.415 1.434c3.915 3.752 8.727 6.67 13.693 8.816 19.506 8.428 47.533 10.146 68.742 10.7q13.756.334 27.514.098.69-.018 1.381-.05c19.464-.227 50.388-2.804 68.343-10.216 5.932-2.449 11.341-5.668 15.855-10.276q1.17-1.206 2.25-2.491 1.082-1.286 2.07-2.644.99-1.358 1.88-2.782.891-1.424 1.68-2.907c11.151-21.196 13.394-56.68 13.659-80.664.036-3.258.14-6.51.095-9.768-.072-5.174-.118-10.322-.366-15.492q-.688-13.075-2.408-26.054c-1.758-13.147-4.236-27.348-10.04-39.38-2.332-4.836-5.445-9.46-9.303-13.212q-.776-.756-1.587-1.474-.81-.72-1.654-1.4t-1.716-1.32q-.875-.64-1.777-1.239-.903-.598-1.833-1.154t-1.884-1.068-1.932-.98-1.976-.888c-12.073-5.233-26.34-7.18-39.355-8.445-18.74-1.822-37.564-1.97-56.376-1.667q-.888.01-1.776.042"/><path d="M133.219 245.255c-14.965.026-29.852-.323-44.757-1.72-17.484-1.64-42.701-4.945-56.204-17.04-4.497-4.029-8.061-9.13-10.646-14.57-4.135-8.7-6.264-18.512-7.965-27.943q-1.661-9.325-2.726-18.736-1.066-9.412-1.532-18.872c-.383-7.235-.68-14.692-.63-21.93.054-7.678.563-15.4 1.127-23.056 1.174-15.933 2.957-34.028 8.193-49.12 2.572-7.413 6.194-14.633 11.495-20.486 3.977-4.391 9.177-7.793 14.553-10.215 17.862-8.046 45.856-9.72 65.62-10.408 4.4-.153 8.825-.141 13.219-.355q2.514-.069 5.028-.052 11.676-.055 23.337.527t23.273 1.8c12.071 1.336 24.6 3.055 35.86 7.826 5.794 2.456 10.832 5.726 15.284 10.183 3.501 3.507 6.466 7.898 8.6 12.37 9.05 18.962 11.768 48.781 12.549 69.776.152 4.103.377 8.155.37 12.266q-.055 17.301-1.473 34.544c-1.019 11.844-2.542 23.57-5.51 35.096-.787 3.054-1.551 6.146-2.61 9.118-2.651 7.445-6.435 14.88-12.096 20.493-4.863 4.822-10.513 8.1-16.864 10.586-13.007 5.09-30.184 7.07-44.118 8.33q-15.653 1.506-31.377 1.588M93.305 64.668l-.18.05zl.07-.137zm105.133 42.016c2.264.428 5.443 1.342 7.643 1.472.376.023.383-.049.65-.296l.073.368.173-.015.055-.147-.301-.206c-.186-.732-.62-1.347-1.037-1.964-2.237-.428-7.831-2.508-9.618-2.294l-.015.243c.893.885 1.525 1.932 2.377 2.84m-80.106-90.361c-18.522.488-37.142 1.018-55.23 5.442-5.822 1.424-11.51 3.146-16.825 5.975-4.656 2.477-8.558 5.653-12.174 9.468C20.65 51.4 17.598 76.898 15.723 95.62c-.624 6.217-1.099 12.383-1.265 18.628-.048 1.788-.14 3.556-.088 5.347.111 3.914.056 7.824.063 11.74.003 1.534-.076 3.084.012 4.614.56-.62 1.15-1.438 1.842-1.894.436-.288 1.069-.293 1.418-.693 2.253-2.58 3.66-6.733 5.711-9.46 1.81-.591 3.731-.835 5.52-1.468 2.255-2.86 3.638-6.226 5.529-9.303 1.472-.485 2.885-.693 4.422-.863 2.267-2.453 3.843-5.7 5.608-8.523 1.518-.589 3.14-.79 4.665-1.334 1.932-2.689 4.475-7.914 6.442-9.839 1.07-.334 2.15-.483 3.256-.653 1.119-1.433 1.99-3.12 2.919-4.684.748-1.26 1.605-2.507 2.218-3.838 1.312-.191 2.626-.392 3.943-.548.963-1.462 1.836-2.983 2.707-4.5.531-.926 1.028-2.022 1.725-2.826.217-.251.523-.407.844-.482 1.433-.335 2.391.066 3.323-1.322.837-1.244 3.124-6.985 3.87-7.421 1.252-.733 3.262-.914 4.676-1.273 1.21-.308 2.371-.915 3.573-1.19.179-.041.198-.038.356-.05.099.23.125.278.034.529-.299.819-2.778 3.278-3.48 4.116-2.68 3.198-5.475 6.289-8.197 9.448-2.126 2.468-4.11 5.036-6.291 7.464-2.552 2.84-5.11 5.694-7.714 8.485-1.481 1.59-3.044 3.105-4.501 4.717-1.227 1.356-2.355 2.797-3.566 4.167L44.835 114.32c-2.39 2.617-4.929 5.102-7.3 7.737-7.516 8.353-14.558 17.21-22.45 25.215.075 1.098.164 2.184.338 3.272 1.222-1.233 2.146-2.718 3.288-4.02l11.536-13.095 27.27-30.736c1.745-1.978 3.608-3.848 5.356-5.821 1.27-1.434 2.41-2.98 3.7-4.4 1.123-1.236 2.355-2.375 3.46-3.629 1.622-1.84 3.108-3.803 4.687-5.681 1.86-2.213 3.823-4.353 5.705-6.55 3.432-4.003 7.403-8.232 10.337-12.58.463-.686 1.353-1.044 1.754-1.741.772-1.343.63-6.187.314-7.74-.267-1.308-1.529-3.003-.694-4.308.552-.86 1.24-1.332 1.019-2.479-.256-1.33-1.839-2.892-.948-4.236.505-.763 1.488-1.23 2.322-1.533 2.336-.85 4.919-1.31 7.335-1.92 3.628-.916 7.24-1.923 10.86-2.872 3.285-.861 6.53-1.856 9.836-2.636.84-.198 1.735-.514 2.585-.618.946-.116 33.266 10.053 36.033 11.031-.088.935-.206 1.835-.472 2.737-.342 1.16-.888 2.332-.993 3.539-.012.138-.028.274-.037.412.57.336 1.109.615 1.282 1.3.166.652-.064 1.296-.408 1.849-.27.434-.637.824-1.026 1.152-.393 3.056.275 6.21.068 9.269 1.36.471 2.863.854 4.076 1.645.487-.02.976-.026 1.46.043 1.681.237 3.33.751 4.995 1.085.773.155 1.64.176 2.387.395.204.06.42.173.577.317.478.444.473 1.195.426 1.792-.147 1.876.287 3.877.833 5.677l.167.068c1.932.766 8.31 1.011 9.09 2.769.296.67-.172 1.282-.148 1.938.072 1.921.425 3.812.466 5.747 1.861.113 3.862.37 5.696.708 1.239 1.274 1.29 2.645 1.85 4.251.363 1.045.856 2.016 1.425 2.962 1.57.593 3.308.762 4.794 1.56.687 1.076 1.367 2.149 1.971 3.274.733 1.365 1.397 2.832 2.25 4.122 1.224.174 3.999.568 4.767 1.559.505.652.894 1.497 1.297 2.219 1.098 1.962 2.1 3.982 3.268 5.903 1.582.184 4.164.344 5.194 1.712.595.791 1.016 1.756 1.482 2.63.989 1.853 1.968 3.74 3.107 5.508 1.332.256 4.178.37 4.992 1.557.773 1.128 1.396 2.411 2.069 3.603.744 1.32 1.548 2.61 2.25 3.953 1.205.152 3.142.14 3.929 1.178 1.375 1.816 3.886 8.006 6.138 8.48.299.063.35.011.583-.149.594-1.946.278-4.632.31-6.683.027-1.833.091-3.677.147-5.51.039-1.25.173-2.497.196-3.75.114-6.362-.102-12.68-.43-19.03-.941-18.27-3.653-43.54-12.304-59.84-7.064-13.313-16.465-19.581-30.58-23.85-7.076-2.14-14.431-3.374-21.75-4.332-14.314-1.873-28.645-2.414-43.07-2.472l-9.393-.03c-1.914-.004-3.868-.073-5.777.076m6.243 19.068a1236 1236 0 0 0-22.265 5.96c-2.308.639-4.742 1.007-7.007 1.77-.573.194-1.373.478-1.713 1-.03.048-.053.1-.079.149l.197.344-.109-.053-.003-.11.355.173.325-.127c7.852-2.043 15.77-3.87 23.59-6.019 2.131-.586 4.376-1.047 6.467-1.736.437-.145.826-.304 1.161-.627l.13-.317c-.168-.249-.245-.363-.56-.44-.124-.031-.372.019-.489.033m-.59 3.369c-6.164 2.113-12.512 3.52-18.854 4.971-1.904.436-3.785.964-5.688 1.398-1.729.395-3.486.651-5.21 1.071.278.83.504 1.626.651 2.49 6.362-1.396 12.668-2.973 19-4.483 2.973-.71 6.048-1.203 8.978-2.06.425-.124 1.034-.25 1.295-.628.386-.559.423-1.433.283-2.075-.063-.287-.13-.45-.363-.638-.026-.022-.062-.031-.093-.046m.707 3.977c-2.573.985-5.387 1.386-8.064 2.03l-15.963 3.85c-1.267.295-2.53.615-3.8.894-.82.18-1.712.278-2.498.569-.366.135-.692.307-.879.667-.103.201-.038.245.024.444.275.1.361.073.642.028 4.273-.836 8.481-2.109 12.721-3.107 3.28-.771 6.554-1.638 9.839-2.371 2.435-.544 4.909-.937 7.325-1.575.45-.119.853-.26 1.236-.53l.121-.255c-.12-.315-.143-.42-.398-.632zm13.72 4.886c-.111.357-.18.574-.083.95.804 1.008 18.525 5.215 21.008 5.705.12-.364.233-.64.157-1.029-.125-.166-.208-.218-.403-.295-2.13-.834-4.593-1.264-6.813-1.866q-4.499-1.243-9.022-2.394c-1.51-.378-3.05-.829-4.592-1.038zm-14.816.28c-5.476 1.392-10.995 2.579-16.491 3.884-4.285 1.017-8.582 2.23-12.926 2.962l.017.167c.163 1.723.213 3.546.16 5.275-.017.55-.244 1.816-.072 2.301.022.061.083.099.124.148 2.049-.303 4.239-.842 6.233-1.408 2.2-.545 4.35-1.25 6.547-1.79.06-.913.103-1.843.043-2.757-.04-.608-.234-1.345-.132-1.943q.025-.139.071-.271.047-.132.115-.256.068-.123.155-.233t.19-.205c.709-.638 2.235-.991 3.18-.874.255.032.403.097.584.294 1.024 1.115-.497 4.844 1.038 5.214.564.136 1.366-.203 1.886-.416.654.155 1.485.57 2.073.668.656.109 8.134-1.421 9.034-1.698-.258-.633-.534-1.27-.663-1.945-.264-1.39-.13-6.614-.337-7.103a3 3 0 0 0-.83-.014m2.317 10.123a15 15 0 0 0-.159 2.2c2.663.207 5.703.72 8.2 1.67.171-.287.297-.588.229-.93-.07-.348-.254-.566-.556-.735-2.167-1.215-5.37-1.052-7.714-2.205m-1.437.551c-1.194.054-6.327.902-7.324 1.412-.138.367-.132.614.044.973.074.15.162.297.249.441 2.289-.732 4.5-1.252 6.888-1.556.08-.37.292-.934.143-1.27m-11.87 1.147-.125.062c-.881.422-1.621.333-2.33 1.093-2.292 2.454-4.193 5.446-6.267 8.095-6.134 7.833-12.035 15.816-18.005 23.772-7.097 9.458-14.66 18.518-21.942 27.826-2.286 2.922-4.412 5.99-6.648 8.955q-5.416 7.207-11.114 14.192c-2.916 3.628-5.923 7.18-8.791 10.846l-8.062 10.272c-.87 1.106-1.647 2.282-2.535 3.373-.674.826-7.083 8.264-7.12 8.345-.036.077-.049.161-.073.242.16.07.251.11.427.129l4.211.002c1.61-1.838 3.025-3.811 4.543-5.721l12.82-16.322q21.494-26.697 41.785-54.319l7.815-10.807c2.499-3.397 5.092-6.73 7.543-10.163l9.924-13.755c1.395-1.924 2.7-3.9 4.148-5.787-.055-.264.01-.152-.205-.33m22.93.712c-.013.339-.082.58.114.873 1.03 1.538 2.621 2.763 3.742 4.254 3.379 4.5 6.61 9.15 9.895 13.722L160.3 94.389c1.05 1.443 1.996 2.957 3.06 4.392l9.78 13.028c1.215 1.602 2.495 3.146 3.694 4.763l13.902 18.761c1.52 2.038 2.946 4.133 4.505 6.143l21.189 27.252q1.656 2.206 3.387 4.355c1.205 1.484 2.637 3.046 3.58 4.713.932-.035 1.885-.033 2.803-.208-3.455-5.455-7.725-10.377-11.7-15.447l-20.602-26.115q-10.532-13.43-20.555-27.246L157.89 87.895l-14.583-20.137c-1.62-2.261-3.455-4.363-4.993-6.689-.873-.156-2.032-.157-2.778-.633m-27.68.596c-.886.18-3.239.458-3.823.93l.117.179c1.221-.256 2.549-.434 3.718-.867l.1-.163zm17.906.553c.125 1.627.199 3.194.066 4.825 1.093.24 8.613 1.734 9.047 1.57l.08-.116c-.275-1.062-.615-3.575-.994-4.368-1.976-.9-5.939-1.433-8.2-1.91m-22.29.437c-.445.12-.917.212-1.307.465l.099.108.141-.057c.496-.123.994-.22 1.448-.461-.179-.13-.174-.086-.381-.055m-2.335.41-.222.334c.175.151.242.118.466.14l.321-.36c-.231-.103-.32-.108-.565-.114m39.697.087c.575.256 1.174.48 1.814.46-.504-.47-1.158-.45-1.814-.46m-40.556.343.114.055zm42.597-.015.04.22c3.486 1.131 7.05 1.948 10.609 2.818 2.697.66 5.629 1.498 8.39 1.775l.109-.095c-3.225-1.052-6.618-1.59-9.907-2.397-.972-.238-8.928-2.335-9.241-2.321m-36.623.187c-2.503.717-13.98 3.023-15.224 3.876l.057.266.11.033c3.653-.98 7.362-1.73 11.048-2.576 1.073-.246 2.369-.319 3.386-.702.301-.113.46-.297.64-.546l.04-.282zm-7.21.197.028.074.042-.035.065-.086zm22.775-.07c-.88.36-3.614.403-4.739.529q-.267 2.033-.68 4.042c.699-.1 1.402-.19 2.097-.311 1.111-.172 2.741-.4 3.5-1.282.136-.551-.04-.862-.261-1.365.26-.633 2.006-.68 1.94-1.56l-.079-.115-.111.048-.11-.101c-.54.09-.96.147-1.505.104-.018-.001-.035.008-.052.011m-23.697.37.038.061zm-.775.157h.216zm-.691.162.051.061.029-.018.072-.087zm-.496.087h.153zm-.5.126h.153zm-.58.124h.17zm-.672.126h.147zm-.374.124h.155zm48.231-.028c.217.299.363.382.714.515.931.354 1.967.572 2.928.84q3.201.909 6.429 1.717c3.761.945 7.459 1.983 11.277 2.703l.175-.236c-.174-.237-.377-.304-.646-.397-1.558-.54-3.294-.713-4.891-1.143-5.16-1.39-10.374-3.148-15.67-3.954q-.157-.024-.316-.045m-37.972 1.24c-1.684.37-12.048 2.377-12.812 3.04.005.162 0 .291.055.446 1.78-.776 4.306-1 6.243-1.392 1.06-.214 2.09-.525 3.148-.737.939-.188 2.102-.296 2.976-.678.327-.142.433-.267.593-.576-.168-.106-.094-.09-.203-.103m-19.808.872q-1.825.357-3.558 1.032l-.024.13c-.08.422-.194.797-.352 1.197l.06.28c.275.151.558.1.86.083 1.578-.27 2.241-.545 3.15-1.883.172-.252.31-.449.297-.764a1.8 1.8 0 0 0-.433-.075m59.411-.014c.074.124.176.369.275.462.838.794 6.652 2.151 7.936 2.477 2.13.54 4.27 1.033 6.397 1.584 1.96.509 5.835 1.724 7.777 1.707-.097-.12-.176-.257-.291-.36-.453-.399-13.886-3.846-15.621-4.279-2.13-.532-4.392-.911-6.473-1.591m-53.344.656-.03.098.065-.03.011-.079zm35.338.596c-.008.494-.072 1.003.135 1.462 1.332.646 3.577.788 5.098 1.13 2.508.564 5.052 1.307 7.576 1.762.338.061.685.076 1.028.074.008-.434.1-1.002-.09-1.393-1.593-.772-12.045-2.978-13.747-3.035m-3.323.159-.131.045c-2.109.695-8.708 1.198-9.862 2.2-.072.262-.038.668.084.915.113.23.237.364.49.412.356.068.853-.061 1.21-.115 2.445-.634 4.762-1.383 7.162-2.153.737-.236 1.522-.345 2.245-.61.127-.32.151-.353.076-.684a11 11 0 0 0-.579.04 2.4 2.4 0 0 1-.695-.05m-20.21.26c-1.807.21-15.03 3.063-16.074 3.842l.132.122.242-.037c3.005-.712 6-1.329 9.034-1.905 1.702-.323 4.32-.695 5.875-1.224a1.72 1.72 0 0 0 .894-.674zm61.893-.09c3.028 4.385 6.58 8.515 9.971 12.621l16.358 19.713c5.285 6.453 10.136 13.263 15.27 19.835q5.157 6.529 10.434 12.96c1.082 1.34 2.089 2.74 3.181 4.071 1.554 1.893 3.232 3.684 4.777 5.585 3.3 4.06 6.654 8.094 9.892 12.203 1.424 1.807 2.727 3.72 4.168 5.508.32.396.709.994 1.173 1.218.15-.184.122-.084.113-.291.096-.55.195-1.06.385-1.587-1.625-2.48-3.822-4.789-5.725-7.078-4.356-5.236-8.822-10.38-13.137-15.652-2.11-2.578-4.107-5.248-6.217-7.826-2.095-2.561-4.301-5.019-6.357-7.62-1.488-1.884-2.928-3.807-4.4-5.704-.986-1.272-1.89-2.668-3.16-3.677-.014-.141-.002-.431-.054-.552-.256-.6-4.131-5.234-4.805-6.091-3.13-3.986-6.173-8.02-9.364-11.963-3.241-4.005-6.617-7.902-9.897-11.877l-5.935-7.229c-1.737-2.076-3.613-4.161-5.16-6.379-.502-.067-1.006-.147-1.511-.188m-73.158.588-.195.069c-.546.188-2.106.406-2.37.901l.11.075c.61-.132 2.34-.335 2.68-.796-.072-.101-.11-.198-.225-.249m76.486-.002c-.013.382.194.836.452 1.117.856.927 2.56.656 3.706.806.172.023.107.016.305.01.196-.326.273-.337.183-.7-.931-.977-3.361-1.166-4.646-1.233m-21.799.399c.15.248.341.633.587.794.678.444 6.151 1.647 7.402 1.957 3.732.925 7.437 1.883 11.206 2.654.944.194 2.024.564 2.974.634-.381-.477-.87-.62-1.438-.819-1.585-.555-3.29-.79-4.91-1.24-3.55-.987-7.106-1.89-10.685-2.768-1.681-.412-3.429-.962-5.136-1.212m-45.331 1.562c-2.633.735-5.37 1.112-8.05 1.633-1.178.228-2.32.584-3.487.827-1.238.258-2.567.337-3.765.749-.382.131-.633.236-.85.583l.232.061 10.692-2.039c1.424-.285 3-.476 4.373-.938.364-.123.757-.294 1.005-.6.027-.034.048-.073.073-.109l-.098-.15zm25.908.197c-.49 1.1-.174 4.13-.175 5.464 3.054.44 6.045 1.11 9.057 1.769 1.873.41 3.788.754 5.615 1.343.28-1.62-.552-4.098-1.033-5.627q-4.975-1.029-9.931-2.142c-1.164-.27-2.392-.466-3.533-.807m-4.011.547c-.282.121-.61.274-.914.329-.88.156-1.81.158-2.703.3-1.944.307-4.118 1.015-6.089.874a34 34 0 0 0-.842 4.993l1.404-.26c1.054-.014 6.323-1.008 7.337-1.308.518-.153.992-.323 1.397-.687l.054-.23c-.412-.19-1.056-.382-1.275-.796.284-.738 1.681-1.367 2.301-1.95-.199-.379-.405-.95-.67-1.264m25.276.128c.154.402.377.617.763.793 1.44.656 3.225.985 4.755 1.388 5.381 1.42 10.858 2.433 16.25 3.792l.206-.158-.097-.251c-2.278-.796-4.519-1.195-6.828-1.797l-10.635-2.67c-1.47-.354-2.929-.821-4.415-1.097M98.03 73.305a114 114 0 0 0-11.527 2.306c-.806.205-1.704.234-2.484.518a1.08 1.08 0 0 0-.567.402c.137.191.085.213.279.24.267.037.494-.069.74-.157 2.608-.192 6.622-1.25 9.301-1.854.817-.184 1.606-.208 2.433-.426.632-.167 1.725-.36 2.164-.87.026-.031.046-.067.069-.1l-.112-.153zm51.143.733c.293.412.79.77 1.258.966 1.035.435 2.359.629 3.457.898 3.751.921 8.243 1.645 11.797 2.942.148-.063.284-.175.445-.19.32-.03 4.947 1.28 5.736 1.457-.277-.561-.489-.623-1.07-.819-2.847-.96-5.788-1.517-8.694-2.247-4.245-1.066-8.608-2.332-12.929-3.007m-52.537 1.637c-2.624.394-14.305 2.352-16.124 3.406l-.143.229.268.024c5.148-.998 10.316-1.699 15.438-2.851q.086-.077.174-.151.007-.004.014-.004l.458-.57zm-20.108.249-3.256.453c-.288.487-.703 1.038-.81 1.595l.192.134c1.003-.112 1.948-.246 2.905-.584.415-.454.841-.89 1.17-1.413l-.022-.187zm6.644.441c-.282.188-.632.324-.748.647l.026.085c.33-.09.562-.101.81-.347-.015-.153-.018-.246-.088-.385m68.002.24c.272.279.624.716.97.894.876.45 3.13.79 4.18 1.042 3.753.903 7.49 1.807 11.261 2.631 1.894.414 3.979.996 5.915 1.052.155.004.285-.014.437-.038-.17-.24-.31-.314-.58-.402-1.128-.365-2.34-.579-3.499-.851l-6.856-1.607c-3.736-.895-7.518-2.16-11.317-2.691a4 4 0 0 0-.511-.03m-29.327.947c-2.873.358-5.7.979-8.561 1.391-2.08.3-4.184.389-6.254.77l-.075 2.942c.444-.082.898-.192 1.349-.21.092-.136.148-.305.277-.407.014-.011 10.586-3.033 11.075-3.135.459-.095 3.042-.531 3.18-.66.06-.055.077-.143.116-.216-.15-.259-.288-.332-.581-.406-.167-.043-.356-.052-.526-.069m3.932.072c.036.31.092.578.186.876l-.172.433c.053.053.094.121.159.159.611.354 4.35.948 5.415 1.193q7.118 1.58 14.17 3.43c.382-.729.249-1.147.056-1.922-2.535-.897-5.33-1.275-7.957-1.859-2.714-.603-9.38-2.439-11.857-2.31m-2.354.25-.05.204.327-.068-.019-.19zm51.06-.106c.974.495 1.214 1.197 1.857 2.006 1.703-.372 4.109.275 5.85.481.072-.361.154-.617-.02-.966-.617-.52-6.691-1.585-7.686-1.521m-80.181.631c-2.505.53-14.619 2.007-15.856 3.013l.023.188c.325.102.406.065.743-.016.306-.115.12-.087.369-.059.611.068 1.614-.282 2.243-.385l8.263-1.285c.763-.116 1.502-.408 2.272-.441.51-.022 1.747-.269 2.097-.653q.061-.07.12-.142l-.037-.17zm58.687.702c.227.338.481.744.86.932.864.43 2.238.54 3.195.77 4.299 1.032 8.582 2.037 12.92 2.898 1.249.247 4.865 1.244 5.944.921-.09-.09-.162-.203-.269-.272-.357-.232-20.79-4.946-22.65-5.25M92.47 80.799c-3.177.59-14.437 1.816-16.316 3.153l-.025.207c.235.066.405.071.649.054.126-.102.244-.203.408-.24.793-.182 2.075-.204 2.964-.347 2.754-.442 5.494-.968 8.249-1.41 1.11-.177 2.686-.237 3.709-.661.339-.14.343-.296.457-.614zm33.448-.014c-.068.463-.11 4.258.056 4.518 1.367.42 20.438 4.221 21.164 4.156l-.036-.105c-.38-1.163-.368-3.357-1.321-4.172zm29.147 1.058c.682 1.1 2.278 1.121 3.418 1.516 1.317.458 18.837 4.162 19.733 3.757a4.4 4.4 0 0 0-1.273-.563c-2.074-.559-4.233-.85-6.329-1.33l-9.27-2.16c-1.676-.388-4.713-1.302-6.28-1.22m19.243.47h.128zm-55.51.24c-.22.066-.39.066-.616.067-1.51.001-3.153.346-4.658.541-2.359.306-4.737.55-7.088.903-.222 1.58-.527 3.154-.816 4.724 1.864-.28 3.748-.448 5.601-.784 2.261-.386 4.523-.8 6.79-1.14.761-.114 2.124-.083 2.798-.371.339-.145.651-.673.858-.967.166-.236.165-.239.151-.526-1.012-.831-3.742.335-4.428-.566.044-.262.041-.312.277-.47.799-.538 1.971-.481 2.73-1.042-.187-.258-.183-.299-.512-.346-.355-.05-.73-.027-1.087-.023m-28.824.846c-.934.296-2.056.326-3.035.472-2.061.31-12.476 1.724-13.305 2.955-.066.098-.066.146-.084.25l.257-.022c4-.408 8.028-1.45 11.98-2.207 1.253-.24 2.547-.233 3.786-.485.305-.062.753-.15.982-.381.101-.102.152-.216.217-.339l-.063-.228a2 2 0 0 0-.735-.015m-20.32.385c-1.433.292-2.881.473-4.329.668-.41.392-.715.725-.996 1.22-.162.285-.333.565-.498.848l.054.173c.389.06.72-.048 1.093-.142 1.159-.487 2.685-.548 3.916-.86.521-.517 1.281-1.122 1.582-1.785l-.118-.163c-.242.005-.466.007-.705.04m87.173.566c.572.88.937 1.007 1.932 1.218l15.89 3.408c1.694.376 3.558.55 5.2 1.043l.145-.206c-.044-.172-.025-.258-.184-.367-.512-.35-20.931-4.877-22.983-5.096M87.83 85.936c-1.768.18-15.314 2.598-16.014 3.029l-.16.253c.08.143.08.233.254.278.379.097 1.17-.078 1.5-.271.999.013 2.075-.271 3.064-.427 2.96-.468 5.88-.979 8.804-1.623 1.035-.228 2.14-.23 3.16-.528.204-.06.348-.15.516-.278l-.035-.195c-.332-.202-.524-.26-.91-.307zm37.994.782-.113 1.382c.412.275.865.618 1.346.75.744.204 1.545.288 2.304.436l4.963.996q6.752 1.25 13.47 2.67c1.311.271 2.93.311 4.137.863l.159-.068c.098-.496.045-1.228-.214-1.674-.167-.29-.537-.336-.833-.413-1.478-.386-3.043-.468-4.542-.78-4.419-.914-8.827-1.902-13.254-2.778-2.461-.487-4.985-.81-7.423-1.384m32.802.222c.154.233.372.657.608.804.548.34 3.366.791 4.206.963l12.204 2.532c1.952.397 4.032.657 5.944 1.17.257.069.353.05.6-.033-.232-.333-.29-.5-.693-.64-1.758-.615-4.05-.86-5.894-1.28-4.846-1.1-9.694-2.326-14.583-3.217a25 25 0 0 0-2.392-.299m-35.393.256c-1.159.076-2.262.397-3.404.582l-9.847 1.636c-2.994.487-6.063.586-9.016 1.278-.052.714-.165 1.462-.031 2.168.228.147.11.13.347.082 2.403-.84 4.989-1.142 7.47-1.706 2.418-.55 4.772-1.26 7.173-1.857 2.409-.6 4.822-1.054 7.226-1.7l.207-.31zm59.528.453.132.138c.138.142.275.235.44.343.61.398.797.834 1.054 1.503 1.15.175 3.878.329 5.041.215-.043-.496-.04-.924-.337-1.342-.963-.61-4.83-.326-6.33-.858m-96.535.904c-3.803.481-7.598 1.236-11.364 1.953-1.354.258-2.74.326-4.085.69a3.8 3.8 0 0 0-1.116.476l-.085.272c.288.11.526.078.828.069 4.188-.577 8.311-1.29 12.453-2.131 1.161-.236 2.376-.23 3.52-.564.382-.112.576-.159.82-.468-.139-.239-.058-.206-.29-.273-.25-.074-.427-.052-.68-.024m74.23.78c.172.503.327.725.808.962 1.13.558 2.753.692 3.989.919q3.632.665 7.246 1.42c1.28.259 2.618.414 3.84.873.499.188 7.355 1.417 7.958 1.405l.177-.176c-.442-.346-.944-.465-1.477-.613-2.524-.702-5.177-1.124-7.733-1.716q-5.833-1.398-11.73-2.501c-1.01-.181-2.065-.452-3.077-.573m-34.55.824a41 41 0 0 0 .027 3.06c.058 1.086.28 2.12.072 3.196l19.422 3.43c1.58.29 3.121.75 4.693 1.046.708.133 1.429.182 2.138.3.741.122 1.412.325 2.17.382l.156-.163c-.689-1.968-1.35-3.962-2.136-5.894-1.834-.744-4.18-.862-6.141-1.204q-7.639-1.37-15.227-2.994c-1.675-.355-3.6-.48-5.173-1.159m-40.72.892c-3.862.505-7.696 1.226-11.534 1.89-1.76.303-3.652.75-5.43.866-.346.279-1.08.716-1.223 1.116l.162.013c2.098-.29 16.961-2.265 17.94-3.507a.39.39 0 0 0 .085-.378m76.96.907c.376.656.758.808 1.466 1.003 2.418.668 4.928 1.064 7.392 1.53l10.216 1.953c1.578.296 3.345.387 4.875.817-.119-.335-.115-.569-.486-.7-1.488-.53-4.485-.75-6.21-1.111-5.496-1.148-11.703-3.085-17.252-3.492m-42.797.206c-3.805.7-7.701 1-11.543 1.425-1.558.172-3.425.07-4.86.717l-.189.082c-.594-.14-1.261-.379-1.821-.034-.621 1.206-.55 4.268-.558 5.69 1.332-.243 4.816-.49 5.779-.853 1.952-.33 3.986-.588 5.898-1.097.451-.12.868-.57 1.31-.617.287-.03.674.182.933.297 1.202-.207 4.75-.575 5.632-1.012-.319-.36-.829-.513-1.03-.958.34-.67 1.41-.594 1.806-1.133-.465-.062-.939-.088-1.407-.114-.29-.017-.511.05-.79.104-.211.04-.134.03-.378-.037-.052-.28-.031-.284.128-.511.254-.363.588-.478.988-.623.236-.085.423-.194.627-.332.56-.38 1.36-.472 1.828-.949-.246-.082-.332-.062-.587-.044-.581.042-1.207-.1-1.766 0m-57.225.1c-1.793.582-3.607.904-5.402 1.419-.495.478-1.262 1.193-1.443 1.871l.081.211c.316.032.552-.018.858-.081 3.427-.657 4.234-.42 6.651-3.28l.012-.161a5 5 0 0 0-.757.021m20.569 1.526a493 493 0 0 1-9.934 1.688c-1.916.302-3.922.487-5.805.918-.72.165-1.401.283-1.984.757q-.136.11-.275.218c.242.134.127.109.332.12 5.73-.7 11.644-1.278 17.233-2.754.258-.255.598-.514.717-.865-.211-.109-.113-.1-.284-.082m81.473.667c.177.258.445.728.706.899.684.447 2.493.647 3.327.803 1.414.264 2.863.367 4.24.795.285-.09.526-.238.812-.135 1.828.659 13.176 2.816 14.702 2.683l-.028-.27c-1.647-.626-3.682-.797-5.415-1.168-6.083-1.302-12.174-2.758-18.344-3.607m24.99.487c.76.903 1.413 1.877 2.236 2.727 1.22.3 5.913 1.713 6.796 1.621-.341-.548-.725-1.346-1.225-1.753-1.182-.963-6.043-1.946-7.806-2.595m-69.61 1.026-.153-.067.18.002.192.012zm1.59.165.038.113.067-.048-.028-.097zm-41.04.661c-4.106.59-8.225 1.108-12.321 1.756-1.478.234-3.107.365-4.541.751a.97.97 0 0 0-.513.312c-.09.11-.128.207-.185.331l.12.23c3.377-.328 6.725-.829 10.083-1.295 2.406-.335 4.844-.61 7.229-1.07.24-.283.538-.553.598-.931-.236-.148-.214-.11-.47-.084m86.004.202c.302.518.685.952 1.29 1.105 2.342.592 4.827.807 7.21 1.235 4.55.819 9.125 1.78 13.7 2.414.39.054.766.12 1.153.008l.127-.3c-1.71-.558-5.296-1.26-7.056-1.352-1.004-.052-2.176-.649-3.203-.842-2.496-.47-5.003-.968-7.514-1.35-1.883-.286-3.875-.401-5.707-.918m-44.322.936-.225.054c-1.748.402-3.703.464-5.49.723-5.975.867-11.33 2.045-17.442 2.566-.909.077-2.313.175-3.096.672-.368.858-.302 1.99-.422 2.917l1.08-.371q7.232-2.29 14.683-3.708c1.4-.279 2.758-.629 4.164-.841.665-.1 1.315-.397 1.978-.535 1.315-.275 4.569-.237 5.489-.654.054-.221.035-.29.037-.502 0-.065.009-.13.013-.194-.275-.12-.475-.12-.769-.127m4.128-.072c.069.716.1 1.413.094 2.132 4.065.828 8.243 1.278 12.334 2.01l15.476 2.83c1.75.306 4.26 1.003 5.999.894.154-.231.131-.126.147-.287-.088-.487-.152-1.442-.587-1.753-.519-.372-6.87-1.073-7.996-1.262-6.14-1.029-12.264-2.221-18.397-3.306-2.36-.417-4.674-1.067-7.07-1.258m-3.062.203h.216zm-45.58 1.447c-1.572.562-3.644.579-5.315.794l-8.437 1.16c-.905.125-2.109.134-2.954.404-.279.089-.345.172-.523.39l.03.239c.351.087.632.004.98-.053.22-.035.131-.04.324.014 1.748-.156 15.537-1.64 16.418-2.095.33-.17.693-.663.936-.943zm90.576.082c.176.213.423.585.678.694.8.344 2.943.53 3.935.72 4.674.89 9.326 1.768 14.027 2.505 1.695.267 3.418.644 5.127.8a.9.9 0 0 0 .497-.098c-.106-.26-.061-.315-.333-.437-1.623-.731-7.86-1.078-8.669-1.621-.415-.279-5.41-1.014-6.345-1.201-1.182-.237-2.342-.6-3.533-.79-1.726-.273-3.635-.566-5.384-.572m-41.708 2.008a177 177 0 0 0-.008 7.056c1.394.282 2.822.377 4.23.578l9.712 1.366c5.094.688 10.176 1.534 15.267 2.254 1.41.2 2.879.313 4.274.563.55.098 1.079.312 1.634.386.298.04.416.039.7-.07.003-.15.017-.317.008-.467-.43-1.511-1.083-4.676-1.906-5.863q-7.887-1.083-15.725-2.476c-1.545-.268-3.09-.648-4.633-.89-.64-.1-1.302-.029-1.942-.134-.608-.099-1.194-.36-1.79-.515-1.021-.262-2.068-.47-3.103-.675-2.175-.43-4.617-.466-6.718-1.113m-49.911.456c-2.889.318-16.513 1.528-18.173 2.579l-.062.176c.231.26.21.192.533.212 4.425-.74 8.903-1.054 13.34-1.686.93-.133 1.889-.146 2.808-.347.665-.144 1.283-.333 1.845-.724l.103-.206c-.144-.016-.25-.03-.394-.005m93.52-.067c.362.39.67.641 1.178.813 3.533 1.197 9.268 1.792 13.085 2.423 2.83.468 6.492 1.317 9.279 1.443.165.007.295-.002.456-.041-.042-.19-.038-.468-.201-.591-.603-.456-1.921-.292-2.66-.39-2.392-.315-4.746-1.012-7.136-1.37-.89-.133-3.906-.437-4.54-.69-.197-.079-.376-.238-.532-.379-2.703-.166-6.616-1.4-8.928-1.218M52.04 103.687q-.841.033-1.677.136-.835.104-1.66.277-.823.174-1.63.416-.806.241-1.59.55c-.26.503-.779 1.228-.758 1.775.172.035.25.051.428.02q2.555-.374 5.117-.7l.07-.098c.56-.753 1.72-1.424 2.105-2.221l-.068-.157zm64.765-.044c-.347.046-.606.056-.88.299l.068.159c.395.136.684.03 1.07-.07a1.7 1.7 0 0 0 .705-.177c-.297-.203-.61-.177-.963-.211m-1.604.26c-3.321.676-6.712.933-10.07 1.348-3.33.413-6.732 1.004-10.093 1.032-.437 2.063-.803 4.26-.848 6.37 1.587-.127 7.919-.444 9.07-.995 3.46-.232 6.817-.853 10.243-1.35 1.652-.24 3.4-.316 5.025-.637.353-.07.702-.015 1.056.03l.082-.091c-.31-.222-.478-.007-.728-.128-.41-.2-.806-.66-1.217-.908l.731-1.084c.945-.451 1.813-1.035 2.76-1.475-2.347-.112-5.153-.516-7.449-.325-.264-.142-.411-.286-.608-.512l.056-.15c1.065-.197 1.521-.015 2.317-.973l-.08-.156zm-40.74.51c-1.014.234-2.05.266-3.083.374-2.025.213-4.06.435-6.08.683-2.96.364-5.982 1.058-8.955 1.232-.326.302-.671.594-.934.954 3.909-.29 8.364-.94 12.268-1.504 2.028-.293 4.139-.763 6.183-.83.248-.243.622-.51.7-.844zm97.1-.074c.26.308.533.67.914.833 1.964.84 5.024 1.062 7.15 1.416 3.685.614 7.357 1.287 11.054 1.83 1.367.2 2.975.225 4.282.644l.498-.106c-.002-.24-.029-.267-.203-.428-.25-.232-.603-.298-.925-.366-2.43-.514-4.967-.685-7.422-1.142l-11.043-1.972c-1.404-.237-2.893-.657-4.306-.71m-98.857 2.592q-5.281.541-10.538 1.28c-2.358.344-5.449 1.002-7.777.998-.346.234-.767.455-.97.829l.012.187c3.978-.373 7.952-.948 11.911-1.481 2.256-.304 4.623-.475 6.835-1.002.263-.238.509-.4.63-.741zm100.52-.076q.449.393.915.766c.154.125.296.214.49.27 1.739.496 3.781.59 5.579.886 5.05.832 10.042 1.774 15.128 2.406.502.062 1.215.35 1.686.289.205-.026.236-.087.389-.21l.064-.453c-3.396-.641-6.827-1.087-10.241-1.627-1.233-.195-2.595-.293-3.796-.594-.236-.059-.415-.228-.596-.38-3.225-.328-6.379-1.105-9.618-1.353m1.941 2.356 1.028 1.148c2.613.16 5.3.775 7.886 1.222q5.093.844 10.199 1.602c1.659.244 3.393.609 5.068.65l.166-.145-.048-.186c-1.702-.841-10.522-1.97-12.993-2.381-2.738-.456-5.45-1.051-8.198-1.483-1.016-.16-2.08-.388-3.108-.427m-104.887.352c-3.958.406-7.884.977-11.825 1.517-1.81.249-3.697.344-5.482.725-.361.077-.998.198-1.24.497-.022.027-.036.06-.053.089l.131.173c.172.018.303.05.471 0q6.356-.613 12.695-1.38c1.502-.175 3.281-.17 4.73-.525.309-.076.577-.375.774-.609q.13-.158.253-.323l-.029-.198c-.129.008-.3.005-.425.034m55.725.36c.008.664-.119 2.093.31 2.626 1.954.552 4.101.63 6.117.862 3.715.427 7.47.829 11.173 1.325q8.075 1.049 16.12 2.309c2.714.398 5.54 1 8.27 1.153l.186-.107c-.081-.615-.094-1.361-.634-1.772-.257-.196-.577-.297-.89-.362-.855-.177-1.743-.163-2.607-.284-2.591-.362-5.203-.799-7.795-1.19l-22.172-3.31c-2.101-.31-6.3-.593-8.078-1.25m-5.295.718c-1.08.496-3.23.35-4.52.518-5.513.724-10.986 1.679-16.516 2.322-2.846.33-5.714.453-8.568.686-.722.059-2.264-.044-2.57.704-.261.636-.242 1.462-.398 2.14l.117.2c.377.07.677-.022 1.04-.113.53-.149 1.01-.165 1.538-.265 2.198-.418 4.404-.707 6.603-1.091 1.326-.232 2.66-.746 3.981-.913.876-.111 1.784-.026 2.654-.18 3.063-.545 6.035-1.541 9.116-2.047 2.216-.364 5.005-.478 7.103-1.013.495-.126 1.274-.373 1.534-.824-.288-.213-.657-.189-1-.144q-.057.008-.114.02m56.389 1.125c.097.359.348.744.701.907 1.009.466 6.281 1.022 7.807 1.251 5.083.765 10.123 1.681 15.235 2.271l.161-.133c-.12-.275-.198-.38-.489-.49-1.115-.426-2.632-.489-3.816-.67-2.064-.317-4.11-.73-6.172-1.048-2.082-.321-4.337-.463-6.324-1.183-.13.042-.375.16-.502.161-.548.005-1.39-.36-1.962-.472q-2.298-.468-4.64-.594m-109.894.658c-3.629.36-7.246.808-10.87 1.216-2.293.258-4.62.435-6.9.781l-1.318 1.05c.592-.105 1.188-.236 1.79-.258 1.133.011 2.336-.178 3.467-.287q4.315-.437 8.615-1.004c1.695-.216 3.553-.278 5.215-.636.375-.081.85-.175 1.116-.474.12-.135.074-.123.06-.333-.324-.192-.815-.14-1.175-.055m135.989.435c.64.907 1.264 1.904 2.245 2.479 1.508.883 7.969 1.728 10.1 2.099q.51.09 1.028.137c-.347-.692-.687-1.36-1.127-2-3.958-1.028-8.17-2.356-12.247-2.715m-160.103.186c-2.413.382-4.861.686-7.261 1.13-.505.683-1.136 1.386-1.327 2.227l.07.198c.216.025.363.032.584.008l.115-.033c3.965-1.09 5.494.574 8.41-3.392l.016-.192c-.196.016-.417.013-.608.054m82.998.977c-.36 1.301-.175 6.69.238 8.013 3.967-.173 8.13.64 12.086 1.062q16.139 1.756 32.191 4.181c.188-.288.14-.438.075-.761-.372-1.852-1.558-5.056-2.28-6.874-2.29.086-4.766-.466-7.038-.781q-5.818-.75-11.619-1.617c-5.795-.814-11.619-1.532-17.426-2.257-1.735-.216-3.49-.344-5.218-.601a2.4 2.4 0 0 1-1.01-.365m54.274.203q-.096.026-.193.048c-.347.078-.708.004-1.055-.045l-.156.147c.212.475.756.793 1.238.963 1.147.404 5.39.779 6.99 1.014 5.037.74 10.14 1.897 15.222 2.203l.35-.073c-.044-.262.02-.174-.198-.33-.328-.236-.717-.373-1.11-.458-1.882-.41-3.842-.486-5.738-.836-3.624-.67-7.288-1.506-10.981-1.755-.31-.021-.424-.063-.69-.221-.535-.321-2.551-.352-3.295-.371l-.115-.094c-.162-.131-.095-.082-.27-.192m-113.985.724c-4.397.329-8.805.895-13.181 1.43-1.932.236-4.047.33-5.943.72-.379.078-.778.272-1.025.58-.124.154-.132.179-.222.334l.083.177.193.03 13.05-1.38c2.035-.225 4.064-.616 6.107-.752.335-.303.84-.658 1.025-1.074zm54.005 1.146c-1.163.615-3.942.145-5.356.298-1.308.141-2.591.392-3.907.502-2.447.205-4.934.249-7.37.54-5.21.625-10.535 1.569-15.793 1.704-.346 1.831-.775 3.698-.923 5.557 2.916-.254 5.948-.903 8.875-.828a129 129 0 0 0 6.588-.537c1.028-.114 2.047-.337 3.078-.408l9.088-.594c1.243-.072 2.48-.04 3.724-.162.533-.053 1.118-.079 1.575-.382-.486-.466-1.415-.035-1.801-.78.08-.36.268-.576.564-.786.71-.503 1.904-.382 2.459-.867-.212-.242-.507-.313-.819-.338-1.266-.102-3.21.538-4.327-.081a3.3 3.3 0 0 0-.83.296c-.308-.076-.239-.052-.408-.275l.084-.24c1.897-.592 3.653-1.549 5.576-2.045l.1-.232c-.041-.09-.099-.286-.177-.342m60.223.63c.192.314.421.828.784.955.635.221 1.525.25 2.202.35q3.132.462 6.268.889c5.033.7 10.028 1.574 15.074 2.196-.087-.328-.056-.489-.378-.647-1.244-.615-5.178-.925-6.678-1.153zm-61.848.77.079.038zm-54.86.19c-3.204.665-18.226 1.35-20 2.59l-.082.23.102.098c2.791.027 5.731-.445 8.52-.726 3.514-.355 7.323-.538 10.767-1.315.355-.08.611-.194.917-.39l.077-.16c-.096-.273-.071-.208-.301-.327m118.873 1.584c.06.378.08.526.4.759.347.253.856.358 1.272.434 1.942.356 3.95.457 5.908.73l15.815 2.17c.252.035.411-.007.652-.076-.193-.224-.44-.566-.718-.68-1.29-.53-4.483-.591-6.049-.822-1.47-.216-2.929-.574-4.401-.812a213 213 0 0 0-12.879-1.703m-121.446 1.168c-3.26.25-6.51.702-9.769.998-3.051.277-6.292.363-9.295.927-.302.252-.745.535-.869.913.277.189.573.114.889.097l.378-.018c3.46-.361 6.928-.626 10.386-.996 2.697-.29 5.413-.724 8.123-.842.23-.293.691-.748.737-1.101-.264-.05-.33-.04-.58.022m123.175 1.41c.447.673.694.913 1.493 1.073 2.203.439 21.615 2.998 22.64 2.784-.084-.206-.018-.132-.181-.238-1.632-.87-21.744-3.688-23.953-3.62m26.375.927c.905.946 1.787 1.92 2.536 2.997 1.789.633 3.77.8 5.642 1.081 1.959.295 3.918.626 5.88.896.47.064.939-.005 1.4.08-.27-.84-.694-1.553-1.23-2.249-1.33-.467-2.82-.682-4.201-.975-3.296-.7-6.684-1.423-10.027-1.83m-84.578.005c-.094 1.115-.127 2.228-.159 3.346 1.876-.06 3.76.215 5.623.402 4.426.443 8.83 1.107 13.254 1.59l19.905 2.245c3.249.364 6.82.405 9.976 1.236.236.062.46.084.703.103l.218-.038c.151-.946-.534-2.002-1.039-2.76-3.358-.272-6.661-.745-10.002-1.16-2.6-.324-5.203-.571-7.8-.93-1.442-.198-2.875-.539-4.312-.715l-17.035-1.93c-1.962-.221-7.365-.522-8.933-1.23-.13-.058-.266-.107-.399-.159m-66.036.285c-4.195.505-8.419.897-12.626 1.289-2.166.202-4.584.251-6.7.711-.564.122-1.13.404-1.645.662l.03.17.091.034c1.895.326 19.587-1.544 20.543-2.252.212-.157.324-.309.337-.572zm62.204-.01c-4.732.436-9.502.635-14.244.965q-8.53.575-17.026 1.512c-1.32.135-2.69.328-4.007.406-1.011.06-2.109-.075-3.096.136-.428.092-.757.278-1.033.628-.444.561-.487 1.587-.582 2.278.1.247.028.22.238.308.275.114.543.114.835.126 1.087-.621 10.996-1.507 13.208-1.8 4.296-.57 8.53-1.66 12.813-2.337 3.612-.571 7.252-.543 10.851-1.034.778-.106 2.232-.406 2.83-.914l-.16.05.25-.262c-.329-.094-.543-.09-.877-.062m-89.126.123c-3.118.314-6.04.854-9.015 1.86-.47.609-1.151 1.379-1.298 2.142l.085.18c.271.01.491-.006.757-.063q2.697-.615 5.424-1.079c.919-.156 1.87-.233 2.776-.46.674-.731 1.564-1.476 2.088-2.315l-.022-.238c-.3-.127-.483-.077-.795-.027m153.049 1.17c.324.343.685.812 1.14.955 1.007.316 2.228.427 3.282.587 3.225.487 6.465.791 9.703 1.171 3.018.354 6.904 1.059 9.867 1.13.156.004.288-.02.441-.047-.643-.42-1.146-.695-1.903-.887l-.176-.048c-1.522-.398-3.3-.445-4.874-.673q-5.883-.85-11.787-1.538c-1.869-.236-3.806-.66-5.693-.65m-129.6 1.475c-4.86.65-9.773.965-14.643 1.566-1.384.17-2.922.19-4.263.51a2.77 2.77 0 0 0-1.373.742l.002.122c.344.004.68-.01 1.023-.03l13.91-1.284c1.555-.155 3.283-.121 4.807-.438.586-.123 1.562-.42 1.928-.91.027-.035.044-.077.066-.115-.105-.195-.047-.191-.245-.233-.394-.082-.817.027-1.212.07m131.652.975c.014.306-.008.448.245.667.31.269.825.356 1.216.431 2.221.428 21.516 2.949 22.563 2.71.13-.03.137-.041.239-.095-.277-.285-.524-.472-.911-.58-2.335-.645-5.523-.779-7.98-1.103-5.117-.675-10.243-1.473-15.372-2.03m-62.072.754c-.127 2.584-.123 5.223.181 7.795 2.996.038 6.005.476 8.996.684 1.546.108 3.1.143 4.643.262 9.48.735 18.922 1.892 28.404 2.642q2.331.179 4.655.44c1.373.166 2.909.561 4.286.382l.327-.022c.376-.836-1.246-5.467-1.624-6.576-1.376-.112-2.74-.343-4.113-.495l-10.817-1.176c-8.617-.905-17.243-1.688-25.832-2.846q-2.66-.353-5.33-.6c-1.268-.123-2.546-.13-3.776-.49m-71.31 1.126q-6.475.524-12.941 1.15c-2.151.212-4.994.276-7.008.954-.42.142-.762.463-1.091.748l1.727-.123c4.374-.26 8.761-.753 13.122-1.186 2.103-.209 4.392-.654 6.496-.511.197-.295.563-.695.541-1.04-.29-.104-.55-.038-.845.008m54.988.262q-4.11.173-8.207.554c-1.448.135-2.884.364-4.337.457l-8.815.637c-2.014.13-4.137.112-6.12.507-.139.028-.157.008-.244.106-.468.531-.985 5.457-1.28 6.594 3.228-.34 6.502-.522 9.743-.73 1.598-.102 3.408-.052 4.961-.412 1.885.163 4.773-.742 6.31-.3.823.236 2.842-.179 3.783-.228 4.605-.245 9.232-.498 13.838-.674-.52-.218-1.14-.398-1.535-.813l.005-.204.446-.337-.066-.173c-1.535-.625-1.68.618-3.205-1.04.496-.389 1.072-1.004 1.744-.925l.496-.689c.388-.532.865-.933 1.315-1.405-2.014-.475-4.39-.994-6.457-.87-.344.54-.54.761-1.186.917-.562.136-.89.102-1.412-.131l-.096-.19c.218-.283.483-.391.795-.542-.204-.109-.226-.11-.476-.11m82.71.42q-.093.033-.186.063c-.678.206-1.42-.187-2.124.023.198.465.425.68.902.855 1.428.523 3.341.506 4.858.647.391.036.718.215 1.095.253 1.227.121 2.479.103 3.7.249.78.093 1.547.309 2.327.411 1.32.174 2.697.199 4.029.323 1.625.152 3.24.393 4.865.537.538.047 1.2.183 1.727.073l.104-.251.218.213.055-.107c-.534-.33-1.147-.495-1.758-.621-1.901-.394-3.813-.496-5.73-.723l-9.493-1.164c-1.339-.164-3.153-.172-4.375-.698q-.106-.043-.215-.083m-138.895 2.087q-6.849.71-13.715 1.214c-2.401.19-4.833.478-7.24.504-.367.309-.935.663-1.124 1.1l.09.047 8.776-.643c4.203-.28 8.434-.525 12.603-1.157.218-.282.63-.682.65-1.028zm138.184.41c.469.702.93.89 1.747 1.052 1.497.296 3.183.503 4.707.478.279-.005.413.039.66.144.445.19 16.083 1.607 16.802 1.518-.026-.264-.09-.406-.225-.635-2.398-.509-4.986-.536-7.429-.82-5.394-.628-10.84-1.438-16.262-1.738m26.54.107c.455.625.965 1.078 1.55 1.576 1.614.029 3.241.407 4.837.654 2.896.447 5.834.922 8.74 1.267l.119-.139a6.6 6.6 0 0 0-.586-1.035c-2.173-.605-4.483-.91-6.71-1.274-2.62-.427-5.296-.94-7.95-1.05m-194.244 1.96q-3.95.502-7.801 1.517c-.608.983-1.763 2.253-1.923 3.391l.11.225c.224.06.332.048.556-.016 2.095-.451 4.223-.713 6.353-.95.77-.905 2.923-3.056 3.168-4.071-.217-.14-.22-.106-.463-.096m169.999.363c.044.374.008.506.331.743.152.112.4.169.577.231l.14.052c1.308.454 20.549 2.16 22.205 1.917l-.01-.442c-.214-.197-.402-.243-.682-.282-1.956-.272-4.005-.323-5.977-.516-5.524-.541-11.078-1.048-16.584-1.703m-144.47.269c-5.954.386-11.904.743-17.831 1.44-.665.078-1.326.047-1.99.142-.266.208-.55.332-.636.665.387.114.907.093 1.309.049q6.918-.379 13.83-.861c2.07-.134 4.218-.44 6.288-.358.341-.369.67-.721.946-1.143-.627.018-1.294-.003-1.915.066m171.399.947c1.036 1.593 2.24 2.5 3.648 3.72 3.736-.464 8.136 1.146 11.88.836l-1.782-2.527c-3.132-1.119-10.191-1.744-13.746-2.029m-95.099.88a31 31 0 0 0 .085 2.982c2.706.09 5.351.42 8.042.676 2.786.265 5.596.416 8.388.647l26.3 2.152c3.553.315 7.089.69 10.647.976 1.14.091 2.472.383 3.603.272-.255-.748-.433-1.49-.599-2.262-.388-.219-.834-.52-1.28-.576-2.146-.27-4.39-.225-6.551-.38-3.973-.285-7.954-.73-11.928-1.055-8.238-.674-16.456-1.633-24.695-2.32l-7.958-.626c-1.303-.112-2.795-.127-4.054-.485m-6.255.177c-2.882.104-5.758.412-8.636.594l-17.124.98-12.256.781c-1.777.116-3.839.017-5.573.374-.458.954-.482 2.136-.757 3.157.624-.092 1.25-.177 1.872-.281 3.65-.66 7.34-.922 11-1.47 1.261-.188 2.478-.737 3.744-.853 1.953-.179 3.903.043 5.85-.101 1.655-.123 3.244-.597 4.91-.59.737.003 1.429-.17 2.161-.223 3.08-.22 6.122-.555 9.19-.89 1.766-.192 3.606-.166 5.352-.476.338-.06.563-.12.837-.343.082-.306.087-.301-.046-.588a1.8 1.8 0 0 0-.524-.07m76.387.223c.182.466.33.784.822.996.725.313 13.526 1.334 14.184 1.153.356-.099 6.12.472 7.116.53.01 0 .018.006.027.009.364.012.634.115.888-.202.026-.032.037-.075.055-.112-.107-.232-.135-.287-.392-.384-1.216-.462-3.83-.352-5.217-.443-2.168-.142-4.328-.47-6.495-.647-3.657-.3-7.343-.475-10.988-.9m-149.726.768c-4.061.323-8.158.527-12.227.752-2.015.112-4.135.038-6.128.393-.377.067-.861.148-1.108.47-.027.034-.046.074-.069.111.07.193.033.237.242.326.288.122.513.092.815.078.428-.02.847-.043 1.272-.099 2.659-.5 17.899-.452 18.921-.957.397-.196.79-.817 1.06-1.166-.904.02-1.886-.034-2.778.093m153.003 1.666q-.104.04-.208.077c-.335.115-.667.074-1.014.046l-.119.084c.044.247.047.3.266.455 1.253.887 18.866 1.684 21.53 1.759.54.004.986.05 1.45-.283l-.014-.13c-1.572-.645-4.334-.532-6.089-.647-2.049-.133-15.07-1.06-15.717-1.398zm-153.43 1.338c-4.694.234-9.388.344-14.084.531-2.068.083-4.303-.072-6.34.305-.416.077-.693.179-.986.499l.04.29c.279.209.416.185.757.214q5.134-.367 10.28-.509c3.472-.077 6.875-.022 10.339-.416.243-.251.605-.524.659-.883-.259-.126-.385-.062-.665-.03m80.203.348.006.168c.033 1.082-.24 9.218.19 9.632l50.8 2.064c1.331.051 8.072.768 8.68.633l.069-.204c-.492-1.584-1.772-6.75-2.585-7.7-1.052-.23-2.238-.159-3.315-.212l-4.986-.287c-1.903-.097-3.749-.382-5.638-.548-1.148-.1-2.303-.098-3.452-.195l-30.342-2.541c-3.15-.238-6.266-.703-9.427-.81m-20.735.743c-1.226.37-2.452.375-3.653.692-.685.181-1.069.883-1.825 1.002-2.021.32-4.217.139-6.261.164-6.226.078-12.499-.141-18.704.508a65 65 0 0 1-1.827 7.655c5.215-.516 10.43-.386 15.657-.531 4.814-.135 9.665-.551 14.48-.476 2.315.003 10.844.162 12.432-.489l.112-.234c-.694-.76-2.352.026-3.147-.802l.034-.315c.784-.58 4.509-.204 6.586-1.667-1.203-.369-2.69-.962-3.964-.871-.73.052-1.566.322-2.288.217-.328-.048-.64-.18-.852-.44-.038-.302-.006-.341.196-.578.366-.429 1.135-.552 1.617-.824.582-.328 1.058-.854 1.661-1.14 1.745-.831 4.485-.728 6.468-1.486-1.668-.091-3.312.066-4.98.097-2.149.04-4.445-.123-6.56.23l-.197.03c-.865.156-1.662.656-2.48.967-.728.278-1.58.38-2.347.526a18 18 0 0 1-1.313-.985c.915-.814 1.929-1.016 3.077-1.345zm94.691-.027c.034.387.132.61.323.946.083.05.156.122.247.152.477.154 1.287-.037 1.818-.01 1.282.066 2.57.234 3.855.317q5.28.32 10.563.581c1.867.097 3.759.33 5.626.256.096-.14.083-.07.077-.199-.215-.196-.423-.351-.71-.423-1.737-.431-3.796-.398-5.583-.524l-10.283-.705c-1.925-.12-3.9-.132-5.806-.386-.042-.006-.084-.004-.127-.005m28.652.824-1.63.065c.362.412.87 1.282 1.271 1.585.415.315 9.049.93 10.145 1.003.282.02.515-.025.788-.081l.068-.013c.292.11.564.214.832.378.195-.528.312-1.06.105-1.604-.34-.202-.752-.251-1.14-.303-2.094-.277-4.233-.259-6.334-.482-1.17-.125-2.922-.694-4.01-.585-.034.004-.064.025-.095.037m-184.619.867c-2.711.093-20.597.333-21.69 1.17l-.054.426-.003-.375-.054.04.119.376.319.14c3.278-.23 6.567-.463 9.853-.52 1.48-.026 2.968.06 4.445 0 1.248-.052 2.485-.23 3.731-.305.893-.053 1.879.021 2.754-.129.264-.045.49-.134.658-.36.044-.06.063-.135.094-.202-.071-.146-.02-.055-.172-.261m157.74.697c.16.422.288.725.731.925.423.19.943.238 1.403.266 3.78.23 7.606.242 11.397.412 2.841.128 5.862.543 8.691.318l.127-.136-.119-.376c-3.284-.447-6.576-.454-9.869-.694-4.103-.298-8.244-.635-12.36-.715M38.882 146.07l-.13.012c-1.521.115-3.058-.024-4.582.031-1.262.046-2.469.375-3.748.381-2.306.01-4.592.03-6.897.129-.597.025-1.245-.063-1.83.031-.6.096-1.259.335-1.745.703l.082.106c1.127.135 2.216.144 3.35.11 4.392-.138 8.816.105 13.2-.113.876-.043 1.738-.247 2.612-.316.83-.066 2.103.269 2.77-.364.191-.182.133-.216.117-.441-.407-.378-.987-.41-1.517-.384-.561.026-1.122.073-1.682.115m192.56-.034c-.393.048-.657.025-.98.265.542 1.17 3.772 4.317 4.83 5.953 1.523.105 3.038.048 4.561-.044l.222-.162c.252-1.781.312-3.527.256-5.324-1.335-.142-2.677-.19-4.014-.32-1.512-.148-3.364-.513-4.875-.368m-25.67.423c-.666.096-1.305.014-1.97-.05.353.303.722.598 1.06.918 3.08.248 6.136.29 9.219.425 3.621.16 7.263.402 10.889.378.384-.004.977.072 1.294-.125-.266-.307-.469-.566-.908-.591l-12.666-.61c-2.04-.079-4.977-.013-6.918-.345m.342 2.184c-.187.149-.232.124-.28.37l.08-.198-.019.357c.766.823 3.029.719 4.133.755.655.022 1.298-.067 1.948-.058 1.47.02 2.947.174 4.42.214 3.761.102 7.573.135 11.324.343l.354-.021.174-.205c-.048-.154-.035-.27-.192-.349-1.45-.733-18.674-.759-21.942-1.208m-187.127.465c-.289.209-.6.388-.77.71l.102.165c2.114.329 4.432.15 6.577.145l14.717-.174c.1-.341.159-.407.04-.735-.983-.463-4.892.005-6.222.029-2.5.043-5.027-.143-7.538-.123-1.965.015-3.943.237-5.896.23-.372-.002-.675-.1-1.01-.247m189.497 2.06c-.369.039-.613.014-.917.234.147.32.518.492.803.678q6.596.317 13.198.493c2.648.092 5.454.367 8.088.122l.427.042.135-.155c-.22-.31-.348-.42-.732-.48-1.468-.23-2.983-.228-4.465-.319-3.57-.217-7.124-.309-10.698-.431-1.87-.064-4.004-.44-5.839-.184m-91.595.404c-4.962.272-9.939.187-14.905.296l-18.354.565c-2.667.061-5.337.188-8.003.235-2.36.042-4.634-.013-6.985.305-.451 1.319-.623 2.726-.834 4.099q1.623-.447 3.242-.915c1.294-.106 2.537-.65 3.816-.878 1.276-.228 2.594-.301 3.88-.471 1.649-.22 3.277-.519 4.94-.63 3.991-.264 8.029-.53 12.027-.534l8.011-.014c1.331-.006 2.724.066 4.048-.044 1.111-.093 2.01-.905 3.103-1.006 3.808-.354 6.448.02 10.335-.982-1.445-.09-2.877-.167-4.321-.026m-100.272.292c-.322.233-.51.285-.62.675.282.247.487.268.856.307 2.805.293 6.03.015 8.885.012 3.63-.002 7.315.198 10.936.106.12-.003.178-.017.286-.037.385-.19.604-.338.877-.672l.023-.255c-.065-.045-.12-.107-.194-.137-.469-.188-18.673.103-21.05 0m109.076.256a83 83 0 0 0 .027 3.9c4.624-.187 9.286.101 13.907.255 2.27.075 4.545-.085 6.817 0 1.933.072 3.87.268 5.803.3 2.832.045 5.681-.32 8.526-.27 1.547.028 3.088.32 4.631.417 1.34.084 2.686.035 4.026.096 1.692.078 3.376.232 5.071.263 1.546.03 3.096-.045 4.64.003 2.289.071 4.583.283 6.871.408 1.264.07 2.631-.021 3.875.156.22-.142.266-.171.328-.444.128-.556-.103-1.341-.407-1.81-.186-.288-.459-.572-.802-.66-.218-.056-.344-.019-.552.016-.92.153-2.065-.099-3.01-.164-2.587-.178-5.16-.403-7.754-.487l-18.002-.746c-3.307-.116-6.62-.132-9.927-.294-8.006-.391-16.05-.979-24.068-.94m-87.654.566h.129zm171.448.834c.276.456.609.93 1.169 1.051 1.33.287 20.58.785 21.333.546-.045-.167-.064-.465-.216-.564-.47-.3-20.267-1.115-22.286-1.033m-193.65 1.003c-.134.27-.212.418-.18.724.077.059.14.141.231.176.399.153 16.594.296 18.618.305l.295-.175.849-1.002c-6.584.105-13.238-.377-19.814-.028m195.718 1.56c.2.322.472.892.843 1.018.955.326 18.002.638 20.364.57.445-.012.883-.01 1.29-.212l.063-.186-.114-.19c-2.093-.703-8.131-.505-10.576-.573zm-193.156 1.107c-1.01.005-1.907.037-2.866.398l-.102.161c.338.223.68.29 1.08.327 1.736.159 3.56.022 5.308.056 2.907.055 5.807.219 8.713.298l1.81.051q.502-.594.991-1.199c-3.363.127-6.657.029-10.017-.041-1.637-.034-3.282-.14-4.917-.051m101.824.246c-2.745.198-5.476.168-8.223.262-1.91.065-3.805.315-5.71.391-1.413.057-2.83-.015-4.243.029-2.1.064-4.19.41-6.289.403l-18.663-.068c-2.837-.017-6.666-.478-9.366.103-.748 1.326-1.887 6.878-2.415 8.799-.713 2.598-1.574 5.15-2.29 7.742 3.517.34 7.155.13 10.692.183 6.085.091 12.166.298 18.254.291 6.349-.073 12.693.321 19.036.524 3.164.101 6.465.366 9.61.003q-.066-.03-.131-.057c-.802-.339-2.605-.457-3.036-1.156.173-.29.394-.456.654-.661l.028-.25c-1.074-1.114-3.597-.3-3.584-1.797.515-.854 1.635-1.09 2.461-1.573l.232-.659-.21-.061c-1.124-.322-2.662.058-3.474-.8-.108-.344-.095-.372.013-.719 1.031-1.128 3.31-1.352 4.753-1.646-1.306-.352-2.62-.772-3.962-.953l-.278-.042c.577-.349 1.42-.497 1.886-.948l-.043-.202c-.706-.131-.917.365-1.506.499-.797.18-2.892-.527-3.527-.997l-.148-.28c.327-.684 1.37-1.45 2.07-1.704.612-.223 1.242-.401 1.855-.624-1.565-.547-2.921-.617-4.543-.269-.499-.183-1.045-.31-1.406-.719-.097-.328-.11-.364-.012-.689.74-.743 2.759-.947 3.806-.948.354 0 2.022.229 2.125.123.119-.12.211-.25.31-.386q2.235-.247 4.482-.353c.574-.03 1.176.03 1.742-.027.157-.016.098.007.204-.121-.18-.343-.465-.44-.792-.638zm6.013-.022a65 65 0 0 1-.064 4.4c.456.09 1.008.134 1.386.42.068.294.047.284-.103.551-.428.191-.936.111-1.25.43-.532 2.644-.112 6.626-.028 9.385.028.903.156 2.014-.037 2.901-.06.273-.22.524-.368.757l16.089-.572c1.463-.064 3.281.16 4.696-.116.318-.062.507-.272.73-.483.309-.293.555-.4.977-.394.94.012 1.763.514 2.737.484l24.192-.557 9.121-.187c2.556-.052 5.1-.01 7.656-.148l2.942.02c-.542-3.179-1.657-6.323-2.531-9.427-.473-1.678-.87-3.966-1.63-5.488-1.656-.446-3.821-.255-5.547-.354-2.252-.128-4.508-.336-6.761-.423-1.79-.068-3.584.013-5.374-.045-3.712-.12-7.449-.301-11.166-.183-1.991.063-3.972.566-5.947.533-2.133-.036-8.075-1.204-9.48-.738-1.107.367-2.764-.131-3.95-.136-1.232-.005-2.484.219-3.705.178-1.64-.054-3.298-.327-4.944-.42s-6.365-.043-7.64-.387m89.091 1.278q-.095.042-.192.08c-.314.114-1.339-.053-1.454.096l-.075-.011c.284.41.66.77 1.164.88 1.628.356 4.475.115 6.238.15l13.524.351 1.697-.03.082-.115c-.202-.344-.501-.454-.88-.556q-.697-.184-1.417-.231c-1.484-.11-18.521-.696-18.687-.614M16.158 159.79l-.256.157c-.06.311-.062.313.085.594.495.268 1.313.172 1.877.225 1.47.14 3.048.056 4.536.112 2.632.098 5.24.297 7.876.326l.843-.945c-4.973-.065-9.99-.274-14.961-.468m199.278 1.355c.351.445.69.92 1.089 1.325q7.785.277 15.575.231c1.983.005 4.01-.148 5.987-.041-.192-.294-.352-.714-.715-.812-1.519-.409-5.669-.203-7.505-.232-1.587-.026-3.162-.206-4.747-.24-3.224-.07-6.466-.006-9.684-.23M16.029 162.5c.013.389-.03.613.184.943 1.877.181 10.64.81 12.074.485.245-.276.457-.42.505-.791-1.616-.357-3.565-.246-5.225-.322-2.5-.114-5.037-.354-7.538-.315m201.644 1.419c.318.376.605.742.857 1.166 2.164.145 4.342.065 6.51.067q4.942.054 9.885-.036c1.22-.025 3.221.127 4.359-.114-.06-.39-.04-.402-.333-.659-1.54-.305-3.332-.195-4.907-.209l-10.592-.065c-1.838-.008-3.735.17-5.546-.122q-.116-.016-.233-.028m-199.91 1.516c-.518.026-1.183-.038-1.57.347.18.32.486.439.838.54 1.747.499 6.005.51 7.99.568.067.002.135.015.202.022l.166.157c.491-.261.847-.729 1.22-1.134-1.483.02-8.41-.632-8.846-.5m202.266 1.13c.032.304.102.478.331.691.418.388 1.36.458 1.898.506 2.228.201 4.567.021 6.81.006 2.962-.021 6.083.169 9.018-.248.224-.031.411-.017.633.012l.275.014c.186-.291.227-.309.198-.647-.335-.22-.623-.198-1.014-.218-3.225-.167-6.49-.022-9.721-.047-2.776-.022-5.67-.24-8.428-.069m-203.313 1.92c-.031.404.032.642.177 1.018.307.28.562.212.976.178 1.75-.141 3.647.698 5.33.36.23-.31.5-.591.541-.988l-.085-.118-.19.046.04-.067q-3.392-.256-6.789-.43m205.584.69-.133.176.16.17c.21.232.248.415.31.714.813.511 13.879-.164 15.883-.114l.295-.11c.072-.34.114-.359-.057-.656-.356-.193-.67-.227-1.072-.254-1.798-.122-3.685.01-5.492-.006-3.256-.028-6.655-.214-9.894.08M16.99 171.74c.029.363.005.785.208 1.099 1.226.215 3.273.254 4.458-.197-.043-.184-.017-.331-.198-.429-.982-.53-3.25-.186-4.468-.473m207.386.204-.34.117c-.002.351.164.528.41.785.117.123.37.378.523.448.573.264 2.268.076 2.956.054l9.794-.3.628-.059c.195-.24.189-.267.208-.58-.167-.317-.195-.428-.564-.542-.422-.13-12.436-.021-13.615.077m-109.226.119h.121zm120.223 2.739c-3.153.227-6.332.085-9.495.216.517.721 2.134 2.623 1.957 3.48-.037.178-.2.284-.345.377-.695.445-2.183.296-2.986.242-6.86-.462-13.726-1.392-20.535-2.334-3.05-.422-6.196-1.187-9.273-1.29-2.67-.088-5.323.102-7.99.14-8.022.113-16.022.468-24.035.822-3.245.144-6.515-.057-9.772.06-9.447.338-18.911.909-28.362 1.036-8.161.11-16.32-.36-24.475-.53-7.038-.147-14.08-.038-21.116-.175-5.716-.111-11.494-.362-17.209-.211-2.769.073-5.501.393-8.263.543q-10.944.657-21.904.947c-1.347.047-2.687.258-4.036.318-3.045.136-6.143.1-9.19.033l-.472.022c-.195.253-.2.41-.16.729.088.708.532 1.838 1.148 2.257s2.472.149 3.26.148l32.371-.261q70.605.379 141.209-.108c4.822-.01 39.737.231 40.808-.228.635-.273.938-1.133 1.094-1.743.368-1.435.457-3.021.626-4.494-.949-.015-1.908-.058-2.856.004m-217.9.566c.057.353.112.685.233 1.024.346-.042.587-.367.845-.597l.254-.23c-.349-.23-.91-.135-1.333-.197m201.624 18.066c-.71 1.727-1.447 5.118-1.178 6.932.263 1.77 1.208 3.612 1.25 5.384.014.573-.25 1.352-.389 1.915.322.192.508.255.88.16.732-.183 1.493-.729 2.118-1.14 2.475-1.627 4.307-3.212 5.932-5.689.845-1.007 3.117-3.357 3.013-4.657-.018-.22-.097-.235-.243-.376-1.081-.258-2.964.859-3.872 1.418q-.292.178-.572.374-.28.197-.546.411t-.518.446q-.252.231-.488.478-.236.248-.454.51-.22.263-.421.539-.202.276-.384.565-.183.29-.346.59c.046-.485.12-1.008.018-1.488-.31-1.463-2.497-4.97-3.524-6.115-.132-.147-.145-.15-.276-.257m-181.409.672c-1.867 1.157-3.274 2.654-4.275 4.62-.372.732-.686 1.528-1.19 2.18-1.497-2.574-3.553-4.987-6.554-5.795-.281-.075-.532-.114-.797.031-.153.302-.174.457-.083.79.338 1.239 1.605 2.716 2.41 3.686.652.8 1.313 1.608 1.905 2.453 1.41 2.014 2.869 4.93 5.69 5.164q.426.036.763-.229c.572-.454.822-1.387 1.062-2.05.862-2.381 1.437-4.46 1.49-7.014.021-.971.095-3.004-.42-3.836m110.882 1.432c-2.17.311-4.198 1.256-5.54 3.043-1.55 2.066-2.033 4.85-1.66 7.369.334 2.252 1.444 4.272 3.303 5.619 1.956 1.417 4.766 1.825 7.114 1.422 1.15-.198 2.147-.596 3.072-1.32.121-1.241.37-2.59.314-3.832l-.12.037c-2.535.833-3.978 2.553-6.934 1.125-1.198-.579-2.064-1.627-2.45-2.898-.449-1.482-.304-3.268.45-4.63q.06-.109.125-.214t.135-.207.147-.2.156-.193.167-.184.175-.175.184-.166.193-.156.2-.147.209-.135.214-.124.22-.114q.113-.053.227-.101t.231-.09.236-.078.239-.065c1.942-.472 3.934.482 5.605 1.382 0-1.335.023-2.677-.005-4.011-2.152-.88-3.889-1.145-6.207-.957m15.882-.004c-2.11.35-3.92 1.329-5.19 3.084-1.529 2.114-1.922 4.985-1.493 7.516.362 2.137 1.42 4.095 3.217 5.354 1.963 1.376 4.341 1.618 6.67 1.358 2.186-.45 4.04-1.407 5.293-3.33 1.407-2.157 1.792-4.937 1.254-7.436-.482-2.236-1.752-4.174-3.686-5.416-1.843-1.184-3.932-1.339-6.065-1.13m-84.099.22c-.164 2.873-.094 5.781-.096 8.658-.003 2.796-.094 5.643.118 8.432q1.951.032 3.902.013c.23-3.49.19-7.16-.194-10.636.661 1.55 1.176 3.147 1.78 4.718.75 1.951 1.582 3.877 2.377 5.811l2.387.013c.659-.95 1.074-2.209 1.53-3.271l2.954-7.054q.023 1.91-.223 3.805c-.067 2.165-.168 4.336-.134 6.502l3.867-.038-.006-16.881q-2.048-.082-4.098-.072c-1.64 3.597-3.398 7.138-5.038 10.734-1.354-3.542-2.697-7.363-4.573-10.66-1.508-.136-3.04-.08-4.553-.074m22.748.061-.476.065c-.347.539-.127 15.183-.125 16.875l10.659-.012.008-3.596c-.865.007-6.097.187-6.408-.078a5.4 5.4 0 0 1-.096-.968l.095-2.44c1.835.044 3.667.095 5.502.044l.001-3.446c-1.84-.164-3.675.03-5.512-.107v-3.026c1.975.011 3.954-.006 5.927.048.004-1.117-.026-2.244.02-3.359-3.183-.021-6.417-.157-9.595 0m12.494-.002-.501.103c.276 1.081 4.278 6.753 5.166 8.382-1.798 2.814-3.67 5.59-5.404 8.443l4.735.007c.939-1.913 2.251-3.61 3.114-5.563l3.207 5.569 3.87-.017c.32-.018.553.044.793-.182-1.317-2.63-3.73-5.8-5.308-8.47q2.38-4.34 5.362-8.292-2.334-.055-4.668-.026c-1.126 1.696-2.005 3.534-3.157 5.21-.969-1.733-1.878-3.514-2.93-5.197-1.428-.027-2.851-.042-4.279.033m18.179-.008c-.107 5.625-.159 11.332.11 16.95l4.082-.018c.101-5.622.062-11.264.012-16.887-1.401-.03-2.802-.07-4.204-.045m79.9 9.634c-.71 1.207-1.155 2.569-1.696 3.857-.477 1.137-1.066 2.22-1.56 3.349-.668 1.522-1.203 3.058-1.971 4.54 1.345 1.213 3.063 1.39 4.802 1.302 1.791-.09 3.519-.31 5.025-1.351 1.36-1.093 2.695-2.294 3.848-3.605-.815-.234-1.622-.517-2.479-.496-1.158.027-2.599.456-3.689.85-.406.148-.784.437-1.193.547-.261.07-.332.05-.567-.052-.2-.83 1.127-2.71 1.454-3.56-.732-1.637-1.095-3.206-1.633-4.897-.063-.2-.188-.348-.341-.484m-171.738.45c-.823 2.078-1.012 2.5-2.347 4.259.428 1.418.986 2.446 1.8 3.684-3.992-.944-4.07-1.456-8.08.123 1.385 1.588 2.514 2.538 4.524 3.216.837.2 1.722.337 2.541.588 1.67.512 3.87 1.57 5.554.553.578-.35.915-.949 1.039-1.601.23-1.22-.138-2.875-.862-3.895-.288-.406-.64-.779-.874-1.219-.676-1.27-1.982-5.29-3.295-5.708m11.294 6.55c-1.43 2.06-1.122 4.625-2.975 6.501l-.289.292 1.794 3.323c-1.227.222-7.137 1.052-7.713 1.558.046.321.136.458.397.66 1.003.782 2.267 1.073 3.508 1.127 3.209.511 6.128 1.06 8.991-.99.447-.32.854-.692 1.234-1.089-.988-1.398-1.064-3.13-1.523-4.745-.46-1.616-1.963-5.711-3.424-6.637m150.339 1.033c-.835 1.014-1.928 2.06-2.584 3.19-1.527 2.628-1.912 5.708-3.82 8.184 4.46.749 4.746 2.186 9.678 1.322 2.07-.302 3.474-.8 5.139-2.075-2.558-.625-5.238-1.475-7.865-1.702.712-1.05 1.665-2.156 1.388-3.512-.243-1.193-1.23-2.22-1.627-3.367-.226-.655.053-1.448-.31-2.04m-139.56 6.2c-.136 1.218-.233 2.445-.609 3.617l-1.308 1.267c.322 1.59 2.09 2.85 3.184 4.022-1.206.299-6.467 1.928-7.214 2.476.172.477.65.797 1.089 1.014 1.325.658 3.015.743 4.445 1.164 2.165.527 4.936-.457 6.792-1.601.703-.433 1.364-.98 1.983-1.523-1.999-3.399-4.908-8.453-8.363-10.435m128.077.064c-1.167.975-2.51 1.935-3.51 3.081-2.121 2.435-3.07 4.635-5.78 6.756 1.179.323 2.137.96 3.207 1.53 1.44.765 3.074 1.547 4.643 1.982 2.661.465 4.294-.194 6.68-1.224-1.418-1.352-4.258-3-6.151-3.584.456-.807 1.777-2.517 1.92-3.317.113-.635-.122-1.392-.295-2.004-.317-1.12-.7-1.924-.618-3.12zm-77.263 2.918c-1.533.282-3.157.472-4.65.905 1.025.293 2.037.596 3.022 1.007 1.68.704 6.677 3.19 7.541 4.708.137.24.16.51.08.777-.57 1.887-7.439 5.03-9.374 5.933l-.162.076c3.9.367 7.88.584 11.667-.643 1.781-.577 3.648-1.515 5.52-1.673l.574-.051c3.51 1.873 9.06 2.869 12.99 2.505l3.334-.245c-1.655-.471-8.803-3.786-9.494-5.091a1.76 1.76 0 0 1-.118-1.415c.635-1.765 5.252-3.933 6.962-4.65 1.255-.526 2.538-.91 3.848-1.27-1.576-.294-3.227-.65-4.828-.72-3.22-.141-6.673 1.069-9.718 2.009-1.08.333-2.466 1.022-3.584 1.014-1.28-.01-2.7-.758-3.897-1.198-2.802-1.03-6.72-2.234-9.713-1.978m64.275.465c-1.404.754-3.207 1.473-4.429 2.47-2.92 2.386-3.562 4.366-7.289 6.12 1.46.571 2.928 1.226 4.204 2.146 1.21.873 2.337 1.937 3.682 2.602 1.931.827 3.656.756 5.601-.02q.727-.294 1.433-.638c-1.424-1.629-4.585-3.579-6.545-4.476 1.768-1.042 2.845-2.232 3.6-4.153-.355-1.284-.603-2.429-.282-3.757.045-.188.036-.105.025-.294m-103.574.548c.238.79.62 1.546.96 2.296.797 1.766 1.407 3.248 3.193 4.25.385.215.793.39 1.197.567-2.51 1.622-4.913 3.176-7.247 5.056.314.22.625.458.952.658 1.685.07 4.775.654 6.236.06 1.94-1.249 3.874-2.483 5.788-3.772.589-.396 1.276-.742 1.775-1.25-.079-.586-.732-1.043-1.172-1.378-2.397-1.83-6.298-5.15-9.02-6.138-.806-.292-1.81-.291-2.662-.349m90.157 1.127c-1.727.269-3.39.52-5.145.504-.992.668-2.009 1.321-2.959 2.047-1.258.962-2.373 2.105-3.601 3.104-.573.467-1.846 1.048-2.177 1.631.306.645 3.13 2.405 3.847 2.982.678.546 1.295 1.217 2.004 1.714.286.201.627.43.964.538.34.108.758.1 1.105.038 2.35.756 4.306.818 6.757.607-1.907-2.338-4.173-4.568-6.721-6.179.765-.253 1.447-.546 2.067-1.083.588-.51 3.874-4.958 4.064-5.582.02-.068.012-.142.017-.214-.072-.038-.14-.102-.222-.107m-74.202.632c-.334.019-.632-.007-.926.163l.166.17-.067.015c1.555 2.421 2.949 4.451 5.524 5.857-2.652 1.408-4.636 3.57-6.261 6.055 2.433-.163 4.816.006 7.236-.378 1.993-1.126 4.654-3.989 6.437-4.624.373-.134.566-.2.808-.51-.038-.18-.004-.254-.177-.357-.308-.185-.689-.236-1.036-.312-1.204-1.462-4.318-4.638-5.909-5.506-.49-.268-1.108-.354-1.66-.411a37 37 0 0 0-4.135-.162"/><path d="M179.676 47.078c3.743 1.232 6.531 4.243 8.506 7.521l.052.15-.052-.15c-.228-.916-.804-1.864-1.202-2.721-.29-.623-.86-1.772-.614-2.444l.243-.075c2.7 1.077 4.333 5.05 5.922 7.249l.087.118c-.738-2.008-1.192-3.983-1.583-6.079 2.453 1.302 3.798 4.54 4.703 7.045q.033-2.162.005-4.324.31.191.61.398c1.917 1.33 2.179 3.712 2.57 5.82.075-.485.063-.976.163-1.461.102-.5.27-1.2.724-1.494l.257.093c.78 1.154.818 2.542.827 3.883.334-.679.789-2.63 1.29-3.007.279.042.201-.02.365.161 1.128 1.242.725 3.656.6 5.187.409-.619.69-1.312 1.095-1.934.266-.407.496-.69.996-.79.939.493.355 1.918 1.12 2.615.246.225.503.321.832.294.216-.178.175-.195.232-.454-.684-1.866-2.127-3.464-2.885-5.324-3.373-8.291-5.114-14.923-11.466-21.749a28 28 0 0 0-2.669-2.498c-.443-.366-.973-.651-1.372-1.062l.066-.285c.394-.342.884-.343 1.383-.347 5.293-.041 8.918 3.39 12.403 6.906-.627-1.546-1.555-3.014-2.014-4.623-.132-.46-.29-.985-.04-1.428l.248-.063c2.17.78 4.82 5.354 6.307 7.25l.1.128c-.055-.845-.608-2.929-.238-3.573.116-.015.19-.034.314-.004 2.426.604 2.858 4.665 3.917 5.98.461-.611.29-2.26.288-3.005.594.547 1.133 1.083 1.536 1.793.584 1.03 1.557 5.095 2.106 5.489.343-.423.355-1.102.543-1.619l.17-.028c.093.085.138.12.215.211.542.648.909 1.755 1.194 2.542 1.29 3.555.422 5.157-.835 8.485-.23.607-.543 1.314-.57 1.966-.013.346.06.585.281.846l.23-.106c.878-1.23 1.626-3.593 1.719-5.116.058-.956.169-1.909.704-2.733.232-.358.405-.405.794-.49l.11.172c.274.437 1.37 2.975 1.377 3.428.003.206-.126.539-.175.75.387.086.57-.264.94-.38.132-.04.122-.032.256.051.722.45 1.13 1.817 1.31 2.61-.264.724-1.066 2.352-.84 3.063.206.125.331.23.575.253.116-.212.236-.478.39-.662.21-.25.292-.265.59-.293.282.158.417.299.557.584.678 1.381-.324 2.764-.797 4.048.265.182 1.2-.17 1.636-.124 1.659 1.02-.66 2.955-.242 4.371.373.131.885.273 1.009.699.297 1.025-.87 2.814-1.323 3.703q.211.022.422.047c.587.073 1.111.117 1.497.609.17 1.024-1.26 1.876-1.522 2.95-.183.75-.678 1.026-1.188 1.542l.01.21c.412.227.927.163 1.387.157l.674 1.311 4.971-.972c.442.15.864.3 1.266.541 1.532.918.367 1.643 1.033 2.737.385.631 1.173 1.025 1.333 1.785.132.627.02 1.012-.339 1.526-1.058 1.515.359 1.264.3 2.391-.037.732-.707 1.358-1.196 1.838.66.505 1.129.992 1.376 1.818.127.424.06.844-.162 1.225-.71 1.214-2.155 1.644-3.414 2.014-.563.645.077 1.37-.084 2.132-.091.434-.474.797-.84 1.019-1.103.667-2.296.441-3.482.177a9 9 0 0 1-1.43 1.171 14 14 0 0 1-2.189.005c-1.624-1.037-2.378-2.472-3.085-4.19-2.754-.008-2.28-2.523-3.688-2.99l-.108.117c-.221.975-.021 2.275.158 3.248.069.37.064.572-.112.912-.258.496-.7 1.147-1.255 1.325-.18-.128-.235-.172-.46-.204l-.314.5-.236.037c-1.06-.735.443-3.086-.16-4.181l-.282-.013c-1.135.641-2.235 1.038-3.407 1.567q-.229-.035-.456-.073c-1.479-.239-2.589-.964-3.577-2.069-.894-1-2.034-2.803-1.9-4.177.054-.548.367-1.16.82-1.484 1.807-1.297 4.131 1.113 4.868 1.22.141-.176.175-.273.216-.504.214-1.2-1.54-3.481-2.202-4.468-.288-.43-.557-.856-1.099-.962-1.728-.334-3.745.294-5.525.233-2.503-.087-4.837-.8-7.272-1.29a9 9 0 0 1-1.008.721c-.87.548-2.655 1.64-3.709 1.302a1.4 1.4 0 0 1-.868-.767c-.493-1.016-.278-2.468.098-3.486.875-2.376 4.05-3.88 6.448-4.272 1.608-.262 2.969-.103 4.504-.815q-2.989-2.305-5.748-4.88t-5.265-5.397c-2.063-2.352-3.838-4.86-6.109-7.041-1.882-1.807-3.879-3.644-5.887-5.307-.956-.793-2.74-1.76-3.452-2.674-.178-.228-.175-.269-.136-.538.26-.18.49-.222.8-.245 4.305-.325 5.644 2.177 8.484 4.618l.12.102c-1.052-1.846-2.348-3.554-3.169-5.526m42.888 42.628c.182.429.337.947.79 1.156.536.246 1.713-.498 2.269-.725l.093.112-.093-.112c-.419-.404-1.137-1.286-1.759-1.282-.515.002-.963.522-1.3.85m9.472.034-.019.143c.259.255.493.242.845.311l.114.055-.114-.055c-.057-.058-.11-.12-.171-.173-.258-.23-.328-.285-.655-.28m-25.849-.283c.151.172.255.295.342.51.08.198.163.347.28.525l.508.102c-.243.111-.293.106-.459.33.074.348.202.592.413.88.622.848 1.692 1.513 2.736 1.666 1.299.19 2.355-.421 3.356-1.162.228-.2.362-.31.45-.605-.423-.225-2.126 1.183-3.191 1.085-.982-.09-2.224-.943-2.83-1.704-.125-.157-.212-.276-.367-.409q-.053-.042-.108-.081c-.105-.303-.225-.6-.342-.897-.319-.245-.38-.223-.788-.24m17.708 3.419.045.199.108.102c.11.356.163.6.506.807.113.069.185.09.304.136l.143.13c.106.313.099.323.374.5l.099.11-.099-.11c-.097-.275-.16-.315-.374-.5l-.143-.13a4 4 0 0 0-.81-.943l-.108-.102zm-23.28-52.543q.875.899 1.649 1.887.774.989 1.437 2.054c.569.895 2.69 5.374 3.286 5.79-.944-2.65-3.156-8.171-5.775-9.512a3.4 3.4 0 0 0-.597-.22m7.07 2.47c.04.617.01 1.736.414 2.223.083.1.154.111.275.165.01-.707-.035-1.792-.594-2.318-.029-.027-.063-.047-.095-.07m2.357 1.994.057.299.18-.018-.064-.286zm-1.936 1.114c-.014 1.796.076 4.386 1.209 5.822l.19.066.066-.11c-.115-.16-.267-.329-.343-.51l.454-.496c-.038-.49-.542-.467-.543-1.742 0-.754-.228-1.148-.62-1.78.08-.468.197-.661-.045-1.08zm2.36.503c-.124.523 1.136 6.963 1.484 7.465.137.197.224.197.452.248.037.009.075.01.113.015.292-1.277-.956-6.278-1.533-7.442-.125-.254-.262-.23-.516-.286m3.645 1.999c-.174.36-.251.42-.113.814.09.259.262.498.371.751.162-.513.23-.858-.005-1.375zm.259 1.675c-.254 1.178-.523 4.399-.078 5.429.235.542.39 1.015.483 1.6l.1-.05c.29-1.626.857-5.468-.325-6.806-.055-.062-.12-.115-.18-.173m7.657 4.85h.118zm-1.656 1.844c-.15.363-.234.48-.172.876.141.145.279.305.44.43.136-.402.263-.622.187-1.044-.17-.143-.237-.193-.456-.262m-.667 1.112c-.403.968-.98 2.074-.999 3.14.254.045.128.063.372-.087.442-.68 1.318-1.726 1.224-2.586-.013-.125-.052-.186-.104-.29zm-3.422 1.272-.208.278.223-.062.176-.192zm6.084 2.023-.047.336c.218-.048.127.009.266-.18l.095-.218c-.236-.04-.133-.067-.314.061m-4.062-.126c-.227.35-.44.57-.471.99l.148.146c.254-.334.461-.51.512-.932zm3.61.15c-.59.796-1.397 1.668-1.555 2.674.245.13.106.084.424.117.322-.045.749-.625.956-.897.251-.332.532-.897.448-1.317-.037-.188-.173-.412-.273-.576m2.47 3.777c-.98.442-1.8 1.198-2.189 2.213l.03.257.284.163c.53-.894 1.012-1.307 1.919-1.826.111-.289.121-.409.048-.71zm-2.99 2.505.03.086.039-.052-.011-.066zm3.85.926.038.069zm-.978 1.134-.108.105c-.531.505-1.361.829-1.793 1.371.191.097.327.124.54.142.54-.423 1.373-.826 1.794-1.322l.004-.208zm.07 3.937.089.04zm-24.095.445h.168zm.431 1.288c-.126.178-.166.351-.392.386-2.488.379-4.545-.244-6.88 1.157.63.382 1.12 1.25 1.692 1.509a3 3 0 0 0-.17-.537c.163-.31.284-.433.575-.626.365-.04.55-.044.906.086.315.322.38.456.347.92-.025.34-.086.395-.31.631-.55.124-.982-.038-1.49-.246-.264.267-.344.666-.345 1.032 0 .305-.018.333.189.571.815.274 1.67.367 2.483.618 1.727.432 4.881 1.074 6.502.112l.027-.208-.363-.365.106-.144c.37-.004.549.069.827-.189-.163-.427-.615-.375-.577-.823l.688-.735-.109-.158c-.312.051-.518.096-.835.033.084-.362.32-.598.552-.876l.014-.269a3 3 0 0 0-.713.003c-.311-.284-.368-.64-.475-1.031-.224.009-.454.082-.623-.073l.109-.316c-.207.133-.419.334-.665.341q.035-.354.087-.707c-.368-.001-.654.388-.96.305l-.061-.383zm2.7 1.088-.11.273.243-.03.111-.243c-.081-.004-.165-.022-.244 0m-11.149 1.178c-.566.257-1.14.496-1.665.831-.383.716-.655 1.396-.812 2.199.619-.25 1.204-.457 1.856-.608.878-.154 2.129-.233 2.727-.992.187-.238.141-.349.092-.62-.532-.534-1.462-.766-2.198-.81m3.803-.022-.565.645.026.182.32.11c.323-.159.522-.199.71-.512-.135-.243-.243-.303-.49-.425m8.231 1.654.04.192.151-.097-.006-.17zm26.303.777c-.92.222-3.449.404-3.983 1.1-.09.316-.168.619-.023.94.11.242.277.352.524.407.372.084.823.035 1.203.025 1.14-.023 2.793-.178 3.607-1.06a1.15 1.15 0 0 0 .312-.65c-.091-.287-.097-.418-.393-.559-.245-.116-.975-.231-1.247-.203m-39.235.952c-.503.187-.809.33-1.066.832-.11.217-.084.135-.031.385.255-.07.148-.005.326-.191.379-.215.756-.392 1.148-.58.184-.089.122-.06.27-.254-.225-.168-.371-.174-.647-.192m39.539 1.814c-1.267.203-2.889.159-4.033.738l-.1.189c.219.193.428.354.672.517.284.19.454.38.665.643l.146.18.1.125c.425.112.853.205 1.283.297.637.063 1.27.132 1.912.137.626-.377 1.57-.815 1.667-1.64.034-.291.009-.523-.193-.75-.34-.382-1.415-.52-1.895-.476-.076.007-.15.027-.224.04m-5.08.28-.24.5.234-.011.188-.255zm.453 1.247c-.341.329-.689.65-.99 1.016.94.873 1.688 1.527 2.158 2.745 1.36.77 2.98 1.486 4.58 1.218.151-.128.261-.225.38-.386l.907-1.35c-.546-.56-.989-.946-1.74-1.223-.834-.307-5.243-.525-5.369-1.163l.296-.557-.067-.22zm-1.655.591.073.106zm.787 1.745-1.304.33.557 1.285 1.072.753.215.051.639-1.203c-.315-.48-.622-.993-1.179-1.216m-9.55.532c.151.414.272.968.656 1.211.244.015.427-.019.663-.077-.21-.564-.815-.826-1.318-1.134m6.978.383c-.967.435-1.79.182-2.798.01l.002.005-.54.069c.218.334.608.514.987.604.172.04.347.069.52.097a9 9 0 0 1 1.173.177c.513.116.998.088 1.437-.237.151-.112.165-.134.282-.256l-.033-.188c-.358-.15-.642-.248-1.03-.281m-5.032.15c.001.535-.042 1.211.368 1.622.133.133.292.234.487.248.106.008.296-.04.403-.062-.252-.668-.69-1.361-1.258-1.807m-11.344.849-.146.445c.15.233.184.242.44.355l.165-.444c-.136-.283-.184-.239-.46-.357m20.249.09q-.054.865-.071 1.732c1.081 1.114 2.383 2.489 4.068 2.504.32.003.974-.028 1.202-.277.113-.123.214-.307.302-.446l.296-.067c.356-.122.651-.216.945-.464.116-.278.09-.268-.02-.552-1.075-1.08-5.088-1.834-6.722-2.43m-6.302.472c.114.428.125.587.44.91.425.127.835.115 1.275.117-.117-.312-.18-.725-.521-.867-.316-.132-.851-.124-1.194-.16m-4.573.822.026.417c.249.102.128.097.358.043l.118-.278c-.21-.141-.262-.151-.502-.182m5.916.687-.036.154.165-.06.044-.153zm-6.333.068c-.23.22-.555.412-.582.734l.164.034c.282-.213.556-.321.65-.67zm10.874.335c-.755.119-1.689.302-2.267.832l-.062.224c.394.63 2.315 3.594 2.828 3.665.063.009.127 0 .191.006.292.022.507.13.767.252.662.008 1.397-.104 1.913-.545.133-.275.213-.479.117-.789-.172-.56-2.822-3.31-3.337-3.6-.083-.048-.076-.041-.15-.046m-7.931.005c.102.586.181 1.187.324 1.764.382.276.73.591 1.213.64l.4-.135c.113-.659-.008-1.093-.24-1.704q-.851-.274-1.697-.565m2.542.047c-.191.302-.36.473-.297.86.052.316.347.54.618.67.444.216.968.321 1.446.434.186-.308.267-.598.18-.956-.083-.337-.32-.575-.624-.73-.409-.207-.874-.229-1.323-.278m2.924 1.719h.1zm5.828.67.19.05c-.166-.066-.102-.077-.19-.05m.84.08h.167zm-15.006.102c.01.293-.048.949.173 1.165.043.042.096.071.143.107.005-.38.075-.822-.14-1.152zm6.068.072c.194 1.342.749 2.19 1.59 3.214.846.126 1.435.33 2.18-.197.112-.27.207-.368.08-.653-.34-.758-1.416-1.54-1.953-2.203-.63-.07-1.263-.162-1.897-.16m4.28 1.7h.1zm.122.25h.107zm3.833.13-.007.069.033-.017.037-.07zM120.501 55.629c-.844-.93-.906-3.219-.814-4.436.034-.441.236-.52.557-.779.213.12.293.112.395.347.475 1.097.318 3.803-.138 4.868m-4.711.096c-.277-.047-.4-.083-.612-.271-.397-.864-.303-1.767-.288-2.697q.075-.004.152-.006c.186-.004.546-.04.67.119.478.61.162 2.128.078 2.855m-12.268 2.56c-.294-.004-.476.006-.73-.154-.308-.593-.315-1.086-.196-1.74q.018-.103.04-.205c.087-.462.292-.67.62-.989.124.05.128.032.21.149.285.408.09 2.338.056 2.939m-6.425 1.073a1 1 0 0 1-.38-.155c-.192-.133-.241-.631-.274-.855-.08-.547-.055-1.216.388-1.629.33-.307.819-.248 1.245-.276l.278-.029c.072.276-1.073 2.494-1.257 2.944m33.941 5.852c-.344.044-.681.082-1.027.097-.306-.23-.288-.361-.388-.72.281.01.61-.002.882.069.316.082.403.286.532.554m-19.878 21.145c-.254-.032-.387-.064-.598-.211l.093-.277c.375-.342.672-.376 1.165-.447.211.006.258.037.437.137l-.135.385c-.382.328-.484.33-.962.413m19.381 8.563c-.247.043-.534.081-.785.046-.316-.044-.488-.099-.668-.36.19-.359.367-.426.704-.642.306.007.599.09.858.257.264.169.432.297.506.6-.254.152-.328.108-.615.099m-26.158 1.507c-.284-.074-.515-.208-.673-.453.037-.053.065-.114.111-.16.691-.67 2.485-.692 3.435-.763.172-.03.256-.006.423.032l.135.271-.104.238c-.828.514-2.347.633-3.327.835m32.215-.491c-.544-.08-1.049.079-1.514-.28.021-.349.095-.39.317-.669.43-.008.89-.056 1.256.216.244.182.26.272.288.549-.243.175-.122.124-.347.183m11.452 3.022q-.048.016-.096.028c-.41.083-.79.052-1.147-.17-.26-.326-.282-.54-.314-.937.525.037 1.09.013 1.558.276.19.356.103.426-.002.803m-19.098 7.844c-.19-.172-.312-.28-.56-.36-.218-.069-.436-.132-.653-.207.207-.29.567-.426.876-.588a.93.93 0 0 1 .659.195c.233.2.245.318.274.598-.223.282-.245.273-.597.362m6.429.654c-.125.009-.316.029-.436.009-.338-.056-.434-.169-.626-.419l.087-.29c.359-.28.583-.25 1.029-.3l.12-.026c.287.1.504.217.637.51.124.276.09.382-.038.62-.349.072-.432.019-.773-.104m8.984 1.299c-.867-.373-1.856-.322-2.756-.581-.327-.095-.519-.168-.69-.464l.205-.488c.858.056 1.933.068 2.738.375.359.136.553.287.708.634zm-34.197.501c-.241.012-.572.053-.803-.001-.313-.074-.353-.152-.483-.412.037-.37.21-.583.418-.876.47.083.96.177 1.256.584-.014.41-.108.421-.388.704m-.369-.566h.14zm-9.998 1.247c-.278.033-.514.065-.794.038-.241-.023-.205-.06-.34-.235.054-.338.035-.326.305-.533.376-.034.6-.098.932-.277l.099-.054c.274.034.54.09.812.147.25.211.274.208.335.525l-.218.268c-.37.17-.734.13-1.131.12m55.545-.297c-.599-.032-1.284.21-1.837.12-.543-.09-.813-.492-1.139-.89.748-.058 2.35.008 2.944.476zM131.218 120.4c-.185.003-.371.007-.556.002-.387-.012-.592-.08-.859-.359l.111-.264c.439-.342.855-.395 1.389-.49.306.075.52.177.69.462.168.282.154.403.075.694-.368.153-.476.062-.85-.045m8.035.34c-.453-.076-1.16-.1-1.512-.4.095-.386.409-.488.726-.71a1.4 1.4 0 0 1 .682.056c.29.11.406.244.542.51-.099.326-.161.337-.439.544m-40.773 1.364c-.318.023-.671.064-.989.032-.303-.03-.539-.218-.705-.462l.077-.208c.356-.262.645-.27 1.077-.304l.759-.019c.286.153.327.138.443.434-.168.313-.357.375-.662.527m52.241-.058c-.328-.003-.831.003-1.11-.197-.341-.245-.32-.367-.376-.756.423.03.793.055 1.194.201.283.297.254.337.292.752m2.639.018c-.02-.003-.04-.01-.061-.009-.71.041-1.444-.121-2.1-.4l-.066-.226.174-.157c.34.007.653.059.986.12l.077-.227q.108-.009.215-.015c.606-.028 2.016.293 2.468.688l-.026.164c-.584.261-.843-.2-1.667.062m11.505 2.148c-.68-.133-1.31.048-1.959-.154-.34-.32-.391-.312-.446-.8.75-.033 2.14-.085 2.704.411-.034.301-.087.318-.299.543m-31.611 8.951c-1.057-.125-2.13.129-3.182-.085-.32-.065-.469-.14-.657-.4.101-.38.24-.424.542-.664.913.14 2.987-.011 3.639.603-.077.313-.1.33-.343.546m6.795.063q-.068.01-.136.014c-.633.035-2.007-.03-2.454-.5-.136-.143-.077-.46-.077-.65.696.013 1.75-.025 2.376.245.243.329.236.493.29.891m-51.356 1.551c-.505.045-.982.14-1.433-.142l-.056-.264.109-.128c1.168-.329 2.691-.692 3.903-.689.238.001.425-.01.656-.073l.234-.068c.387.058.837.108 1.09.433l-.038.198c-.495.385-3.835.802-4.465.733m19.262-.409c-.417.024-.819.072-1.227-.04-.124-.338-.007-.48.108-.814.376-.018.684-.044 1.044.095.157.308.113.41.075.759m51.746.862c-.077-.024-.151-.06-.231-.07-1.309-.17-2.565-.255-3.863-.61-.252-.278-.22-.35-.252-.732.876.009 3.533.07 4.132.778.163.192.205.392.214.633m3.865.601c-.798-.264-1.566-.087-2.328-.339l-.097-.228c.147-.363.395-.53.692-.764.718.166 1.667.076 2.293.44.03.34.08.46-.087.766zm-22.087 9.336c-1.05.236-4.83-.134-5.713-.675l-.036-.184c.65-.555 1.203-.437 1.997-.486 1.021-.158 3.63.157 4.651.44.396.11.772.33.973.694l-.16.19c-.655.277-1.049.197-1.712.021m-2.149 2.074-.332-.247c-.16-.004-.253-.002-.42-.03-.311-.054-.48-.132-.645-.396.08-.36.271-.514.527-.757.045.027.088.058.135.08.169.078.345.126.51.216.409.224.634.474.758.927-.188.163-.295.161-.533.207m-44.014.036c-.985-.034-2.23.29-3.169-.01l-.077-.202c.143-.336.31-.455.587-.676.942-.036 2.186-.204 3.066.146.276.11.291.162.41.416l-.134.279c-.325.146-.334.133-.683.047m57.905.803c-1.639.017-3.394.081-5.008-.224-.5-.094-.817-.16-1.11-.591.011-.283.05-.388.218-.616 1.019-.04 4.897.49 5.964.754.126.342.084.337-.064.677m-69.986.044c-.42.061-.815.099-1.239.101-.271-.157-.276-.153-.388-.446l.167-.27c.578-.37 1.52-.651 2.207-.65.32 0 .638-.025.957-.041.567-.029 1.14.045 1.706.093-.134.215-.268.458-.433.65-.325.377-.8.46-1.273.466-.57.01-1.136.054-1.704.096m82.7-.253c-.979.052-1.936.379-2.906.383-.402.002-.619-.076-.893-.363l.081-.17c.855-.466 2.1-.574 3.057-.806.848.327 1.801.2 2.692.216.508.01 1.074-.028 1.446.357l-.104.21c-.92.543-2.358.383-3.373.173m12.349 1.853c-.309-.038-.528-.087-.758-.302-.181-.17-.13-.204-.135-.43.546-.58 2.258-.368 3.07-.413l.073-.05c.307-.025.29-.027.533.165.11.32.123.36.043.688-.649.527-1.85.22-2.661.32zm-31.966.431-.164.046c-.698.182-2.356.384-2.947-.115-.313-.264-.236-.475-.24-.847.96.136 2.773-.112 3.453.562zm34.501 12.785-.116.032c-1.49.429-8.31-.445-10.005-.974-.246-.261-.196-.444-.229-.789.847.016 9.908.662 10.055.738.106.055.188.148.282.222.117.359.109.403.013.77m-24.322.046c-1.905-.13-3.912.101-5.792-.144-.44-.057-1.204-.147-1.49-.519l.07-.32c.26-.329.522-.388.904-.506.576.105 1.097.272 1.69.296 1.288.05 2.629-.203 3.906-.013.406.06.749.128 1.007.469.014.406-.04.411-.295.737m-15.509.346c-.92.349-2.312.218-3.283.155-.695-.045-1.521-.036-2.001-.589.011-.328.04-.366.226-.64.933.01 1.868.105 2.802.123.8.015 1.718-.137 2.494-.002l.163.258c-.067.339-.183.434-.401.695m-58.736.296c-1.358-.001-4.972.188-6.151-.252-.248-.093-.242-.098-.358-.351.157-.412.267-.427.629-.657.937-.03 4.857.065 5.644.293.35.1.574.24.74.563-.158.215-.261.293-.504.404m13.653.896-.666-.045c-.27-.172-.345-.269-.466-.565.582-1.16 5.29-.204 6.552-.711q.012-.006.025-.009c.291-.015.321.017.551.186.089.316.086.344-.017.656-.943.91-3.167.345-4.382.352-.531.003-1.07.076-1.597.136m72.879.915c-1.55.007-3.572.315-5.058-.061-.232-.059-.267-.053-.395-.263.02-.039.035-.08.06-.116.401-.58 1.265-.606 1.9-.7.06.002.118 0 .176.006 1.318.145 3.942-.346 5.05.391.114.285.129.299.051.594-.45.303-1.237.155-1.784.149m-94.525 1.693c-.7-.028-1.763.203-2.396-.062-.217-.091-.185-.158-.261-.36l.142-.297c.386-.302.81-.397 1.274-.53.793.164 2.025.069 2.611.677.003.316-.036.285-.222.519-.373.217-.742.11-1.148.053m115.441-.246c-.71-.022-1.416.07-2.09-.19-.246-.298-.222-.414-.26-.79.707-.066 1.493-.239 2.138.124.25.34.208.444.211.856m-90.62 1.975c-1.088-.095-4.67-.047-5.314-.35-.175-.337-.11-.659-.078-1.023 1.35.014 4.162-.292 5.272.436.199.376.15.52.12.937m59.274.839c-.032.007-.064.02-.098.022-1.004.056-5.857-.427-6.424-.983l.011-.206c.288-.278.486-.374.862-.512 1.608.236 4.84.147 6.155.847.282.15.365.289.462.581l-.145.263c-.383.137-.426.101-.822-.012m-20.491 1.167q-.46.043-.922.047c-.71 0-1.847.092-2.37-.428l.057-.282c.114-.119.204-.267.343-.357.434-.284 2.275-.113 2.88-.156.356-.042.725-.09 1.085-.08.62.018 1.589.146 2.021.613.043.331.06.311-.141.575-.866.231-2.04.047-2.952.068m-29.878.809c-.026-.007-.055-.008-.077-.023a.97.97 0 0 1-.392-.463c-.09-.212-.06-.137.029-.392 1.01-.686 3.697-.262 5.07-.571l.124-.03c.195.149.394.409.47.64.063.192-.016.234-.105.398-1.014.538-3.861.333-5.119.441m75.484.283c-1.608-.112-3.173.14-4.767.083-.53-.02-.99-.029-1.367-.427.018-.406.112-.462.354-.775 1.453.282 5.461-.477 6.446.44l-.014.19c-.2.217-.402.337-.652.489m-108.153.412c1.095-.038 2.198-.05 3.287-.17.305-.053.705-.158 1.008-.076.45.123.95.472 1.226.845l-.037.235c-.912.578-3.33.28-4.463.294-.702-.011-1.346.257-2.028-.032l-.04-.238c.273-.4.643-.603 1.047-.858m56.377 1.442a6 6 0 0 1-1.053.17c-.923.053-2.923.2-3.63-.423-.134-.407-.085-.475.03-.873.775.057 4.077.223 4.44.372.26.31.22.342.213.754m32.685.606c-.401.006-.805.016-1.206-.004-.49-.024-1.095-.049-1.443-.433l.022-.228c.188-.194.348-.294.574-.44.645-.041 1.702-.188 2.272.17.17.106.216.168.266.358-.087.237-.306.404-.486.577m2.599 34.707c-.827.17-1.697.183-2.495-.126-1.056-.409-1.79-1.296-2.21-2.325-.62-1.522-.62-3.58.025-5.099.578-1.359 1.538-2.031 2.863-2.547.87-.11 1.727-.066 2.531.31 1.034.482 1.741 1.38 2.122 2.442.565 1.58.531 3.59-.217 5.096-.573 1.154-1.421 1.827-2.62 2.249"/></svg>