<svg xmlns="http://www.w3.org/2000/svg" viewBox="0 0 256 256"><path d="M122.795 0h10.944l.122.019c2.172.323 4.425.342 6.615.547 4.12.386 8.35.97 12.399 1.807q1.434.284 2.861.601t2.847.667 2.831.731 2.814.797 2.794.86 2.774.924 2.752.987 2.73 1.05 2.704 1.112 2.678 1.174 2.65 1.235 2.621 1.295 2.592 1.354 2.56 1.414q1.27.721 2.526 1.472 1.254.75 2.492 1.529t2.456 1.586q1.22.807 2.42 1.642t2.381 1.696 2.342 1.75q1.161.89 2.302 1.805 1.14.915 2.259 1.856 1.119.94 2.216 1.907 1.097.966 2.172 1.957t2.127 2.007 2.08 2.054 2.033 2.102q1.004 1.063 1.984 2.148t1.935 2.192 1.883 2.236q.93 1.13 1.833 2.28t1.779 2.32c11.32 15.127 20 34.667 23.4 53.254.667 3.642 1.247 7.34 1.62 11.023.184 1.85.254 5.406.677 7.013v12.335l-.02.113c-.48 2.727-.465 5.615-.77 8.377-.515 4.631-1.453 9.395-2.52 13.93q-.34 1.41-.713 2.815-.37 1.403-.772 2.798-.405 1.395-.838 2.78-.434 1.386-.9 2.761-.465 1.376-.96 2.74-.496 1.365-1.023 2.718t-1.082 2.695q-.557 1.34-1.143 2.669t-1.202 2.643q-.617 1.315-1.262 2.616-.645 1.3-1.32 2.586-.674 1.286-1.377 2.556t-1.434 2.525-1.49 2.492-1.547 2.458-1.6 2.423-1.655 2.386-1.708 2.348-1.76 2.31q-.893 1.144-1.811 2.27-.918 1.124-1.862 2.227-.943 1.104-1.911 2.187t-1.96 2.142-2.007 2.099q-1.016 1.037-2.054 2.052t-2.099 2.006-2.144 1.959-2.187 1.91-2.23 1.86-2.27 1.81q-1.145.893-2.31 1.759-1.166.867-2.35 1.706-1.267.909-2.556 1.785-1.29.877-2.6 1.721t-2.642 1.656q-1.33.812-2.681 1.59t-2.72 1.523q-1.37.745-2.758 1.455t-2.793 1.387-2.826 1.317q-1.42.64-2.858 1.246-1.436.605-2.887 1.175t-2.916 1.103-2.943 1.03q-1.477.498-2.967.958t-2.99.885q-1.5.423-3.01.808-1.511.387-3.03.734c-2.782.633-5.605 1.09-8.418 1.558q-4.212.742-8.475 1.093c-2.097.162-4.374.095-6.432.512h-10.781c-2.386-.482-5.623-.455-8.133-.705-3.683-.367-7.346-1.03-10.99-1.665-4.791-.835-9.52-2.17-14.136-3.688q-2.507-.816-4.978-1.733t-4.903-1.934-4.82-2.133q-2.389-1.115-4.73-2.327-2.34-1.212-4.63-2.518t-4.524-2.705-4.41-2.887q-2.176-1.489-4.29-3.065-1.122-.832-2.227-1.689t-2.19-1.738-2.152-1.784-2.113-1.832-2.072-1.876-2.032-1.922-1.988-1.965-1.946-2.007-1.902-2.05-1.856-2.09-1.811-2.13-1.764-2.17-1.716-2.207-1.668-2.244q-.822-1.13-1.62-2.279-.796-1.149-1.568-2.314t-1.518-2.348q-.747-1.182-1.467-2.38t-1.415-2.411q-.694-1.214-1.362-2.442t-1.309-2.47-1.254-2.5-1.2-2.524-1.145-2.551q-.559-1.282-1.09-2.575-.53-1.294-1.032-2.598-.502-1.305-.976-2.62t-.919-2.64-.861-2.66-.804-2.678-.745-2.696q-.357-1.35-.686-2.71c-1.123-4.816-2.143-9.856-2.686-14.772-.327-2.956-.297-5.973-.768-8.91l-.02-.122v-11.792c.502-2.38.421-5.036.658-7.467.34-3.471.934-6.962 1.562-10.393q1.188-6.222 3.064-12.273.424-1.414.88-2.817.457-1.404.945-2.797.489-1.393 1.01-2.775.52-1.38 1.073-2.75.552-1.369 1.136-2.724t1.198-2.698 1.26-2.67 1.322-2.64 1.383-2.608q.706-1.297 1.442-2.576.735-1.28 1.5-2.543.766-1.262 1.56-2.507.794-1.244 1.616-2.47t1.673-2.432 1.729-2.393 1.783-2.353q.862-1.127 1.749-2.235t1.797-2.196q.912-1.088 1.847-2.155.934-1.068 1.893-2.114.958-1.047 1.94-2.072.98-1.025 1.984-2.028t2.03-1.983 2.072-1.939q1.047-.957 2.115-1.891 1.069-.935 2.157-1.845t2.197-1.796q1.108-.886 2.236-1.747t2.275-1.698 2.311-1.646 2.347-1.595 2.382-1.543 2.416-1.489 2.448-1.435 2.479-1.381 2.509-1.326 2.538-1.27q1.276-.62 2.565-1.213 1.29-.593 2.592-1.156 1.302-.564 2.616-1.099t2.64-1.04 2.663-.982 2.684-.922 2.704-.863 2.721-.802 2.74-.742 2.754-.682q1.382-.325 2.77-.62A117 117 0 0 1 115.167.596c2.48-.226 5.04-.232 7.501-.577zm3.05 5.559q-1.488.02-2.975.078t-2.974.151q-1.486.095-2.969.225t-2.962.298q-1.48.167-2.954.37-1.475.204-2.944.444-1.47.24-2.932.516-1.464.276-2.92.588t-2.903.66-2.885.732-2.868.802-2.846.873-2.825.942-2.8 1.012-2.774 1.08-2.746 1.15-2.718 1.216q-1.351.624-2.687 1.282t-2.654 1.35-2.62 1.413-2.585 1.478-2.547 1.54-2.51 1.604q-1.243.817-2.468 1.665t-2.426 1.725q-1.203.878-2.383 1.785-1.181.907-2.339 1.842-1.158.936-2.292 1.9-1.135.964-2.245 1.956t-2.196 2.01q-1.086 1.02-2.146 2.065t-2.094 2.116C17.358 66.72 4.663 97.205 5.39 131.05c.683 31.847 15.016 63.023 37.962 84.956q.852.825 1.719 1.633t1.75 1.6 1.781 1.565 1.81 1.531 1.84 1.496q.928.74 1.869 1.46.941.721 1.896 1.424t1.923 1.387 1.95 1.35 1.976 1.311 2 1.273 2.025 1.234 2.048 1.196 2.07 1.155 2.093 1.115 2.114 1.075 2.134 1.033 2.154.993 2.172.95 2.19.909 2.207.865q1.109.423 2.224.823 1.116.401 2.24.78 1.123.38 2.253.737 1.131.358 2.268.694t2.28.649 2.294.605 2.303.56 2.315.517 2.323.471 2.333.427 2.34.38c6.25.951 12.728 1.501 19.05 1.353q.523-.012 1.045-.032 4.754-.123 9.487-.59 4.732-.47 9.418-1.284 1.226-.221 2.448-.467 1.223-.245 2.44-.516 1.216-.27 2.428-.565 1.21-.294 2.415-.614 1.205-.319 2.404-.662t2.389-.712 2.374-.759q1.183-.392 2.359-.807t2.342-.855 2.323-.902 2.306-.949 2.286-.995q1.137-.509 2.264-1.041 1.128-.532 2.244-1.087t2.221-1.131q1.105-.578 2.198-1.177t2.173-1.22 2.149-1.265 2.122-1.308q1.055-.664 2.096-1.35 1.04-.686 2.067-1.392 1.027-.707 2.04-1.434 1.012-.728 2.01-1.475t1.979-1.515 1.948-1.555 1.917-1.594 1.885-1.632q.933-.826 1.85-1.67.917-.845 1.817-1.708.9-.862 1.781-1.743.883-.88 1.747-1.78.863-.897 1.71-1.813 3.442-3.754 6.548-7.79 3.107-4.036 5.853-8.325c13.396-20.682 21.239-45.315 20.349-70.082q-.05-1.516-.136-3.031t-.21-3.027q-.122-1.512-.285-3.02-.16-1.51-.357-3.014-.198-1.504-.432-3.003t-.506-2.991-.579-2.979-.652-2.963-.725-2.946-.797-2.928-.869-2.906-.94-2.885-1.01-2.861-1.08-2.835-1.15-2.808q-.593-1.397-1.219-2.779t-1.286-2.748-1.354-2.715-1.42-2.681-1.485-2.646-1.55-2.608-1.613-2.57-1.676-2.529-1.738-2.487-1.798-2.443-1.858-2.399-1.917-2.353-1.973-2.304-2.03-2.255T216 42.842t-2.138-2.153-2.19-2.1q-1.076-1.006-2.175-1.987-1.099-.98-2.222-1.935-1.122-.954-2.267-1.88-1.145-.927-2.312-1.826t-2.356-1.77-2.397-1.711q-1.21-.842-2.438-1.654-1.23-.813-2.477-1.595-1.248-.783-2.515-1.535t-2.551-1.474q-1.285-.721-2.586-1.412-1.301-.69-2.619-1.349-1.317-.659-2.65-1.286t-2.681-1.221-2.71-1.157-2.736-1.091-2.762-1.025-2.786-.958-2.808-.891q-1.41-.429-2.829-.823-1.42-.395-2.848-.755t-2.865-.686-2.88-.616q-1.445-.292-2.895-.548-1.451-.256-2.907-.477-1.457-.221-2.918-.407t-2.927-.337-2.934-.267-2.94-.195q-1.47-.08-2.943-.125-1.472-.045-2.945-.054t-2.946.017"/><path d="M134.018 249.365c-6.005.12-11.866.127-17.85-.47q-1.174-.119-2.345-.262-1.17-.142-2.338-.308-1.168-.165-2.333-.352-1.165-.189-2.325-.399t-2.317-.444q-1.157-.232-2.309-.488-1.151-.255-2.298-.533-1.146-.278-2.287-.578t-2.276-.621-2.263-.666-2.25-.71-2.236-.754-2.22-.796-2.205-.84q-1.098-.43-2.188-.882t-2.17-.924-2.153-.967q-1.07-.493-2.132-1.008-1.062-.514-2.113-1.049-1.052-.535-2.093-1.09t-2.07-1.13-2.049-1.171-2.025-1.21q-1.006-.615-2.001-1.25-.994-.634-1.977-1.287-.982-.653-1.951-1.326-.97-.672-1.925-1.363-.956-.692-1.899-1.401-.942-.71-1.87-1.437t-1.843-1.474q-.914-.745-1.813-1.508-.9-.764-1.785-1.544-1.137-.993-2.249-2.014t-2.199-2.068-2.147-2.122-2.094-2.174-2.04-2.226-1.984-2.275-1.928-2.323-1.87-2.37-1.81-2.416q-.89-1.22-1.75-2.46t-1.689-2.502-1.626-2.543q-.798-1.282-1.564-2.583-.766-1.3-1.499-2.62t-1.434-2.657-1.368-2.69-1.301-2.725-1.233-2.755-1.165-2.785q-.566-1.4-1.096-2.813t-1.026-2.84q-.496-1.425-.956-2.863t-.885-2.886q-.424-1.449-.813-2.907-.388-1.459-.74-2.927-.353-1.468-.67-2.944-.316-1.476-.595-2.96-.28-1.483-.523-2.973t-.449-2.985-.375-2.995-.3-3.004-.227-3.01q-.08-1.473-.123-2.947t-.05-2.948.022-2.95q.029-1.474.093-2.947.065-1.473.166-2.944.1-1.472.237-2.94t.309-2.933.38-2.924.452-2.915q.243-1.454.522-2.902.28-1.448.594-2.889t.663-2.873.734-2.857.803-2.837q.418-1.414.872-2.817.453-1.404.94-2.796t1.008-2.771 1.076-2.746 1.142-2.719 1.209-2.69 1.273-2.66 1.338-2.628 1.402-2.594q.717-1.29 1.465-2.56t1.527-2.523 1.588-2.485 1.648-2.446 1.707-2.405 1.765-2.362 1.823-2.318 1.878-2.274 1.934-2.227q.765-.881 1.547-1.747t1.58-1.717 1.614-1.686 1.647-1.654 1.678-1.622 1.71-1.59q.862-.786 1.74-1.555.877-.77 1.769-1.521.892-.753 1.8-1.487.906-.735 1.827-1.451t1.855-1.416q.935-.699 1.883-1.38t1.909-1.342 1.935-1.305 1.96-1.268 1.984-1.229 2.008-1.19 2.03-1.15q1.02-.566 2.052-1.112t2.074-1.071 2.094-1.03q1.052-.506 2.113-.99 1.062-.485 2.133-.949t2.15-.907 2.168-.865 2.184-.822 2.2-.78q1.103-.38 2.214-.737 1.111-.358 2.228-.694t2.242-.65 2.254-.608 2.264-.562c7.459-1.734 14.943-2.646 22.574-3.116 6.088-.387 12.415-.098 18.472.551q1.159.121 2.314.265 1.156.143 2.31.309 1.152.165 2.302.353t2.295.398q1.146.21 2.287.442t2.279.486 2.268.53 2.258.572 2.246.617 2.234.66 2.221.703 2.207.745 2.192.788q1.093.404 2.177.83t2.16.871 2.143.913 2.125.954 2.107.995 2.087 1.035 2.066 1.076q1.028.547 2.045 1.114t2.024 1.154 2 1.193 1.978 1.232 1.953 1.269q.971.643 1.93 1.306.957.662 1.902 1.343.946.681 1.877 1.38.932.699 1.85 1.416.918.716 1.822 1.45.905.735 1.794 1.486.89.752 1.766 1.52 1.129.986 2.233 1.999 1.105 1.012 2.184 2.051t2.132 2.105q1.054 1.066 2.08 2.157 1.028 1.092 2.028 2.208 1 1.115 1.971 2.256.973 1.14 1.917 2.304t1.859 2.35 1.8 2.395q.886 1.209 1.742 2.439.855 1.23 1.68 2.48.826 1.251 1.62 2.522t1.557 2.56 1.495 2.597 1.43 2.633 1.364 2.668 1.299 2.7q.633 1.359 1.233 2.732.599 1.373 1.164 2.761.566 1.388 1.097 2.789.531 1.4 1.028 2.814t.959 2.84.888 2.861q.427 1.436.819 2.883.39 1.446.747 2.902.356 1.455.675 2.92.32 1.463.604 2.934t.532 2.95.46 2.96q.21 1.484.386 2.972.175 1.488.313 2.98t.24 2.987q.083 1.47.13 2.94.047 1.471.059 2.943t-.013 2.944q-.023 1.471-.083 2.942-.059 1.47-.153 2.939-.095 1.469-.225 2.935t-.295 2.928-.365 2.92q-.2 1.459-.436 2.911-.235 1.453-.505 2.9t-.575 2.887-.644 2.872-.714 2.855-.782 2.838-.85 2.818q-.441 1.404-.917 2.797-.475 1.392-.984 2.773t-1.051 2.75-1.117 2.723-1.182 2.696-1.246 2.666-1.31 2.635-1.374 2.604q-.702 1.293-1.435 2.57-.733 1.275-1.497 2.533t-1.558 2.498-1.617 2.459-1.676 2.42-1.734 2.378q-.88 1.18-1.79 2.337-.909 1.157-1.846 2.292t-1.9 2.247c-22.543 25.652-51.78 39.89-85.845 42.071m7.858-201.585.075.059.093.105c.976 1.094 2.163 2.014 3.22 3.03 1.662 1.598 3.255 3.332 4.81 5.033q.971 1.072 1.899 2.18.928 1.11 1.811 2.254.884 1.144 1.722 2.322.839 1.178 1.63 2.387.792 1.21 1.536 2.45t1.438 2.508q.695 1.267 1.34 2.561.644 1.295 1.238 2.613c1.322 2.864 2.448 5.837 3.675 8.744l1.513-.048c.797-5.957-1.173-20.441-2.852-26.525-.715-2.592-1.79-5.005-2.689-7.526-.306-.857-1.275-3.139-.472-3.874.556.165 1.079 1.262 1.357 1.774 5.125 9.439 7.276 20.003 8.809 30.53.385 2.65.447 5.418.952 8.03.758.577 1.809 1.273 1.962 2.294.226 1.51-1.807 2.615-1.999 4.198-.363 3 2.01 6.469 1.785 8.142-.128.953-.92 1.837-1.18 2.825-.193.733-.442 1.207-1.122 1.591-.973.549-2.225.396-3.245.079-1.234-.384-2.352-1.089-3.419-1.8-.983 2.301-1.737 4.739-2.894 6.956-2.126 4.073-6.293 8.774-9.935 11.604-1.915 1.488-4.053 2.74-6.205 3.854-1.408 3.01-2.529 6.488-3.223 9.734-.19.888.178 1.779.072 2.686-.48 4.112-2.383 10.122-.88 14.105.579 1.534 1.753 2.805 2.777 4.056.133.985.279 1.934.586 2.882-1.999.05-6.924.164-8.63-.56-.175-.305-.145-.68-.057-1.01.196-.733.81-1.341.942-2.069a8.7 8.7 0 0 1-1.402-1.867c.105-3.31.655-6.623.538-9.94-.088-2.495-.709-5.03-1.04-7.508-.459-3.443-.712-6.907-1.067-10.36-5.946-.465-11.717 1.96-17.646 1.285-2.487-.283-4.946-.999-7.295-1.851-2.733-.992-5.243-2.626-8.22-2.527-.019 2.399-.145 4.694-.588 7.062-.637 3.407-1.975 6.894-1.684 10.395.199 2.409 1.067 4.82 1.902 7.077.389 1.053 1.104 3.362 1.815 4.123.101.11.162.153.276.254 1.357 1.214 2.86 1.993 4.336 3.024.792.554 1.654 1.445 2.564 1.77 1.432.514 3.104.708 4.6 1.008q3.471.698 6.926 1.475c15.5 3.373 32.14 5.637 47.921 7.165 6.16.597 12.349.85 18.503 1.466q4.245.428 8.463 1.064c1.255.191 2.534.526 3.788.657l-.187.04.098-.009c-.172-.11-.088-.084-.238-.108v.175c-.08-.014-.16-.034-.24-.043-1.253-.135-2.613-.051-3.88-.078-5.692-.12-11.42.339-17.104-.068-3.493-.25-6.993-.729-10.474-1.12q-13.677-1.48-27.21-3.952c-7.205-1.314-14.38-2.89-21.538-4.434-1.68-.362-7.728-1.471-8.933-2.042-.2-.095-.374-.311-.522-.468l-.068.012-.065.53c-1.366 1.028-7.739.69-9.688 1.03-.114-.308-.072-.374-.018-.691.073-.434.064-.655-.092-1.059-1.243-3.22-1.745-6.556-3.183-9.712q-.674-1.49-1.493-2.904c-1.142-1.94-3.162-4.397-3.463-6.64-.198-1.47.632-3.313.904-4.774.249-1.34.212-2.75.023-4.095l-.096.166c-.866 1.517-1.475 3.197-2.215 4.781-1.007 2.16-3.56 6.678-3.906 8.764-.35 2.111.085 4.525.657 6.56.325 1.158.77 2.285 1.385 3.321.795 1.34 3.912 4.717 3.63 6.192-.52.451-1.493.334-2.145.283-1.722-.134-4.315-.331-5.513-1.722q-.172-.2-.303-.427c-.739-1.272-.537-4.164-.855-5.733q-.38-1.903-.953-3.757c-.608-1.938-2.641-6.716-2.525-8.472.08-1.222.979-2.216 1.394-3.326l.058-.071.173-.189.056-.185-.056.185-.173.189-.058.07c-2.75 2.728-3.537 10.694-5.439 12.334l-.2-.043c-.395-.975.254-5.671.352-6.97-.357.409-.702.913-1.27.967l-.2-.223c-.011-.123-.058-.247-.034-.368.02-.103 1.322-2.39 1.577-3.314.757-2.747.546-5.656 1.322-8.416.62-2.205 1.874-4.202 2.377-6.434.526-2.332.252-4.802.23-7.17-.03-3.283 0-6.67.446-9.927.471-3.44 1.586-6.641 4.466-8.78 1.41-1.046 3.046-1.68 4.707-2.209 7.38-2.351 14.9-1.188 22.452-.792 4.454.233 9.068.378 13.507-.16 2.038-.248 4.18-.647 6.032-1.57 2.24-1.118 3.991-2.791 6.559-3.183 2.039-.31 4.02.233 6.05.24 1.16.003 2.222-.431 3.367-.49.704-.036 1.473.134 2.171.239 1.472-.713 2.8-.89 4.398-1.11a4.7 4.7 0 0 1-.956-1.342c-.395-.829-1.38-3.379-.918-4.23.157-.291.38-.389.69-.447 1.825-.338 5.412 2.346 6.754 3.506.479-1.143.517-1.861.271-3.061-.385-1.88-1.085-3.757-1.705-5.568-3.382-9.878-7.977-17.08-14.522-25.185-1.468-1.817-3.608-4.646-5.578-5.854-.342-.21-.625-.325-1.03-.23-.162.16-.23.196-.303.422-.712 2.202 3.992 6.52 5.419 8.212.947 1.121 1.836 2.322 2.541 3.611-2.54 1.236-5.975 2.303-8.265 3.716 2.548.188 9.45.597 11.514 1.596-3.478-.341-11.646-1.113-14.898-.193-2.614.74-5.18 2.17-7.69 3.232 7.485.688 15.119 1.472 22.515 2.784l.106.138.019-.156c-.411.236-3.057-.17-3.717-.227-6.235-.547-14.007-1.41-20.133-.848-3.455.317-6.677 1.862-9.875 3.113 3.775.476 7.6.71 11.389 1.058q7.675.711 15.314 1.74c2.336.312 4.71.57 7.022 1.029-3.22-.167-6.444-.643-9.659-.928q-9.438-.82-18.906-1.13c-2.662-.063-5.594-.287-8.224.148-2.175.36-4.419 1.401-6.464 2.211 2.974.42 5.981.67 8.966 1.01q12.203 1.302 24.363 2.954c3.406.492 7.002.793 10.33 1.644q.081.019.162.035c-1.551-.022-3.109-.357-4.65-.547q-4.168-.486-8.341-.922c-7.492-.791-15.033-1.308-22.544-1.9-3.32-.262-9.509-.833-12.593-.35-1.736.272-3.48 1.108-5.146 1.672l51.167 7.514c-1.864.23-8.029-.982-10.339-1.242-8.86-.996-17.756-1.677-26.609-2.733L98.629 81.37c-1.696-.2-3.623-.63-5.32-.537-1.775.097-4.522 1.353-6.267 1.95q12.862 2.526 25.779 4.763 4.259.682 8.527 1.304c1.492.224 3.021.39 4.492.717-2.056.212-4.274-.127-6.333-.309-9.229-.814-18.432-2.572-27.602-3.885-2.129-.305-5.801-1.167-7.8-.956-1.95.206-5.118 1.64-7.131 2.262 4.237.39 8.423 1.059 12.624 1.727 2.28.363 4.676.63 6.913 1.2-1.166.2-2.449.542-3.625.569-1.485.033-3.068-.311-4.542-.513-3.528-.483-11.463-1.676-14.556-1.168-1.882.31-4.876 1.736-6.857 2.364 4.257.074 8.41.571 12.628 1.096 1.913.238 3.954.377 5.823.862-.648.374-1.306.737-1.919 1.167-6.098-.677-15.85-1.892-21.64-.861-2.245.4-4.462 1.383-6.6 2.165-1.759.643-3.568 1.203-5.263 2.004 7.9-1.195 15.697-1.287 23.656-.575 2.058.183 4.15.339 6.186.688l-.897 1.504c-10.279-1.004-21.824-1.677-31.95.659-2.47.57-4.831 1.393-7.206 2.269-1.767.65-3.636 1.244-5.307 2.113q2.658-.438 5.329-.786t5.352-.606 5.37-.425q2.688-.166 5.38-.242 2.693-.076 5.387-.06 2.693.015 5.384.121 2.692.107 5.378.304 2.687.198 5.365.486l-.365 1.431c-12.79-.63-24.415-.945-37.22.7-3.285.423-6.74.835-9.942 1.702-1.768.48-3.485 1.276-5.18 1.966-1.556.631-3.157 1.211-4.676 1.922 4.812-.783 9.81-1.028 14.668-1.45 14.193-1.23 27.544-1.927 41.79-.808l-.093 1.417c-15.691-.775-31.19.125-46.802 1.686q-5.123.478-10.22 1.182c-1.822.242-3.697.42-5.485.854-1.338.324-2.591.97-3.902 1.382-.083.933-.197 1.875-.236 2.81 3.648-.636 7.323-1.043 11-1.473q13.577-1.6 27.235-2.217 8.853-.513 17.721-.469c3.496.013 7.116.025 10.593.41.19.207.18.448.15.727-.038.343-.166.468-.412.688-.486.133-7.36-.115-8.72-.125q-5.274-.044-10.545.112-15.765.475-31.452 2.106c-5.214.492-10.54.862-15.708 1.71a83 83 0 0 0-.237 3.969q6.337-.912 12.701-1.602t12.75-1.158q6.384-.469 12.781-.714t12.799-.268c5.446-.006 10.919-.018 16.351.413l-.116 1.449c-4.706-.385-9.495-.264-14.214-.242q-18.774.11-37.461 1.92-5.026.465-10.035 1.093c-1.892.231-3.848.407-5.71.812l-.025 4.372q8.192-1.146 16.42-1.989t16.48-1.381 16.522-.771 16.538-.16l-.474 1.451q-8.208.046-16.41.349-8.202.302-16.39.86t-16.356 1.37-16.304 1.88c.037 1.536.05 3.077.119 4.612q7.963-1.174 15.966-2.044t16.032-1.436 16.075-.826 16.094-.213l-.186 1.577c-5.73-.118-11.478.138-17.202.376q-15.799.635-31.532 2.209l-7.877.796c-1.433.142-2.971.188-4.379.485 3.255.676 6.575 1.144 9.847 1.74 2.25.409 4.729 1.095 7.008 1.207 1.543.076 3.14-.144 4.683-.26l7.43-.528 16.315-.97c5.002-.298 10.049-.653 15.061-.648-.028.501-.039 1.009-.11 1.506-1.724.124-3.451.141-5.177.25l-21.908 1.393c-3.884.254-7.802.432-11.67.866 2.961.547 5.816 1.58 8.683 2.486 1.373.433 2.817 1 4.257 1.148 1.919.199 4.014-.157 5.94-.255l12.1-.65c2.477-.114 5.01-.282 7.482-.124l.017 1.553q-6.166.215-12.323.605c-2.623.153-5.287.255-7.898.55 1.91.803 3.968 1.308 5.939 1.949 3.584 1.165 7.071 2.5 10.397 4.286 4.477-.618 9.828-1.113 14.323-.845.218 1.394.41 2.799.712 4.178-4.603.255-9.223.5-13.805 1.016 7.966.84 15.89 1.935 23.717 3.662 10.306 2.274 20.427 5.336 30.73 7.584 3.352.73 6.729.923 10.132 1.253 1.256.122 2.634.156 3.862.442-3.382.093-6.922.15-10.289-.195-2.377-.244-4.739-.747-7.08-1.215q-6.585-1.327-13.118-2.888c-7.587-1.733-15.205-3.568-22.885-4.843q-7.02-1.123-14.107-1.694c-3.828-.341-7.72-.736-11.566-.536-1.932.101-3.768.5-5.674.762 2.055.527 4.11 1.094 6.183 1.548 4.15.911 8.342 1.627 12.493 2.54q9.26 2.078 18.373 4.734c2.302.655 4.649 1.225 6.925 1.96-2.925-.131-5.973-1.129-8.839-1.723-8.247-1.71-16.475-3.525-24.761-5.037-5.142-.938-11.298-2.204-16.536-1.939-2.438.124-4.985.835-7.146 1.967 7.31 1.306 14.591 2.639 21.869 4.124 3.804.776 7.78 1.481 11.505 2.569-2.49-.054-5.08-.59-7.55-.956l-16.391-2.474c-4.727-.745-10.431-1.884-15.161-1.716q-.965.04-1.924.159-.958.12-1.903.318t-1.87.475-1.825.629q6.39.987 12.724 2.294c1.754.355 3.608.63 5.318 1.147-2.025.046-4.098-.246-6.112-.45-6.814-.695-15.276-2.159-21.908-.567.182 1.044.486 2.05.782 3.066l126.039.02q25.511.237 51.024.07c7.622-.002 15.244.132 22.867-.018-3.431-1.166-6.998-1.843-10.548-2.538-7.321-1.433-14.69-2.433-22.04-3.676-3.507-.593-6.983-1.43-10.483-2.074-9.237-1.698-18.614-3.244-27.955-4.26a37 37 0 0 1-.097-2.557c-.685-.94-1.344-1.97-2.172-2.79l.335.056c1.716.287 4.773 1.087 6.414.853 1.72-.245 3.568-1.024 5.251-1.517l12.542-3.66c15.445-4.502 30.727-9.278 46.605-12.056q4.89-.865 9.835-1.328t9.911-.522q2.861-.009 5.717.16c1.5.084 4.45.612 5.752.298.01-.186.06-.276-.064-.434-.89-1.144-12.035-2.183-14.147-2.293-14.467-.755-29.883 3.109-43.985 6.15l-26.646 5.59c-5.037 1.06-10.076 2.26-15.133 3.206.167-1.23.288-2.49.548-3.703 4.516-1.094 9.095-2.166 13.531-3.55-4.226-.263-8.45-.64-12.677-.87l.235-1.509 10.322.429c2.248.11 4.725.455 6.954.202 2.343-.266 6.462-1.688 8.861-2.378-8.522-1.032-17.027-2.29-25.572-3.14.099-.478.18-.97.329-1.435 4.902.529 9.85.725 14.763 1.201q6.5.656 13.008 1.228c1.997.175 4.22.595 6.202.365 1.38-.16 2.753-.6 4.092-.96 2.767-.743 5.525-1.599 8.31-2.257-14.683-1.024-29.322-2.593-43.994-3.746l2.265-1.34 32.935 2.169 8.671.59c1.826.125 3.727.36 5.553.218 1.737-.136 5.878-1.46 7.713-2.019-13.294-1.767-27.035-2.925-40.401-4.192-3.258-.309-6.534-.51-9.786-.867l1.362-1.22c4.247.133 8.492.499 12.73.809 9.49.694 18.958 1.58 28.44 2.371q4.293.38 8.581.812c1.936.188 3.897.425 5.843.408 1.573-.014 3.161-.282 4.718-.493 2.505-.34 5.001-.705 7.519-.94-3.696-.654-7.479-.954-11.208-1.368l-14.767-1.693q-19.098-2.208-38.227-4.127l.885-1.269c14.363.884 28.713 2.43 43.023 3.913l14.41 1.382 16.465 1.607c2.54.258 6.184.879 8.632.803.189-.291.155-.489.17-.831-.22-.353-.573-.444-.959-.525-2.167-.456-5.183-.654-7.484-.978q-9.083-1.35-18.188-2.54-26.765-3.75-53.591-7.039c.291-.601.604-1.199.867-1.813l49.61 6.167c9.817 1.258 19.642 2.84 29.486 3.846l-.052-1.674-31.953-4.989q-19.162-3.275-38.37-6.27c.212-.547.412-1.078.547-1.651q12.275 1.817 24.524 3.796l25.218 3.67 13.455 2.045c1.796.27 4.467.861 6.19.85.076-.422.053-.76 0-1.184-.373-.435-1.776-.564-2.37-.671-13.459-2.45-27-4.453-40.432-7.067-4.009-.78-7.993-1.714-11.978-2.6l-8.57-1.864c-1.606-.345-3.328-.603-4.885-1.12l-.047-1.332c8.445 1.489 16.822 3.32 25.258 4.834 8.797 1.578 17.663 2.842 26.483 4.292 5.34.878 10.683 1.919 16.044 2.647l-.142-1.374c-12.895-2.41-25.852-4.559-38.672-7.342-8.47-1.839-16.96-4.13-25.306-6.463-1.069-.298-4.363-.6-4.936-1.401 0-.344-.012-.339.214-.596 1.56-.317 19.966 4.245 23.165 4.959 9.649 2.156 19.445 3.868 29.17 5.659q5.374 1.028 10.779 1.885c1.583.26 3.268.663 4.868.728.168.007.089.024.246-.1.052-.448-.045-.837-.34-1.183-.284-.332-11.87-2.17-13.446-2.445q-8.595-1.433-17.084-3.397c-5.672-1.361-11.27-3.085-16.864-4.73-4.526-1.33-9.07-2.57-13.582-3.963-.704-.218-4.714-1.325-4.733-1.605 1.36-.349 21.243 4.948 24.013 5.626 3.546.868 7.114 1.712 10.685 2.467 3.487.738 7.012 1.34 10.516 1.997 3.774.706 7.536 1.463 11.322 2.097 2.926.49 5.882.834 8.8 1.361-.058-.45-.063-.968-.355-1.332-2.21-.672-4.82-.854-7.119-1.218q-5.616-.881-11.188-2.003c-11.643-2.302-22.499-5.386-33.753-9.12-3.725-1.235-7.625-2.34-11.229-3.875-.16-.068-.113-.044-.336-.074l-.148-.247.02.062c7.188 1.639 14.257 3.876 21.382 5.767q8.91 2.296 17.934 4.094c7.865 1.623 15.622 3.118 23.644 3.759-.36-1.303-.792-2.612-1.1-3.925-1.936-.81-3.897-1.562-5.823-2.394-1.711-.738-3.443-1.608-5.216-2.176-1.266-.406-2.683-.403-3.99-.696l-11.86-2.769c-8.064-1.904-15.969-4.322-23.956-6.514q-4.992-1.342-9.965-2.754c-1.164-.332-2.717-.586-3.773-1.154 1.781-.007 6.98 1.296 8.997 1.692 8.756 1.721 17.469 3.579 26.04 6.085 5.527 1.614 10.905 3.79 16.5 5.148-3.568-2.347-8.54-3.69-12.606-4.99-11.583-3.702-23.449-6.463-35.065-10.049 1.941.04 4.082.61 6.006.948 5.51.972 10.97 2.042 16.398 3.407q-7.785-3.576-15.66-6.952c-3.488-1.494-13.138-4.801-15.42-6.828 2.708.68 5.288 1.762 7.983 2.483l.144.063-.144-.063c-.988-.68-2.242-1.187-3.317-1.733-1.804-.916-3.566-1.87-5.272-2.96-.506-1.044-.767-2.144-1.07-3.259 2.518 1.355 5.409 2.3 8.059 3.375q8.495 3.545 17.185 6.578 2.256-.844 4.418-1.907-2.726-.279-5.418-.792t-5.33-1.257c3.668.173 9.68 1.584 13.112.926.936-.18 1.862-.623 2.742-.986-2.554-.508-5.262-.672-7.85-1.005-4.029-.518-8.063-1.141-12.074-1.787-2.777-.447-5.745-.9-8.394-1.863 2.055.095 4.144.423 6.2.596l18.756 1.663c2.186.192 5.54.867 7.62.67.667-.062 1.576-.545 2.21-.8-1.662-.308-3.351-.441-5.03-.639l-8.117-.993q-10.36-1.265-20.625-3.161c-1.368-.25-5.585-.822-6.633-1.26l-.01-.198c.276-.072 8.203.854 9.33.938q7.85.568 15.686 1.3c3.466.29 7.505.466 10.872 1.17 2.018.421 3.787 1.669 5.71 2.381l.167.061c.689-.19 1.356-.467 2.025-.718-2.947-1.39-6.062-2.493-9.093-3.687-2.728-1.073-5.42-2.245-8.139-3.342-2.611-1.053-5.75-2.688-8.378-3.413l-.071-.059.071.06c.971 1.06 2.583 1.869 3.828 2.584-2.538-.143-5.122-.7-7.619-1.162-4.006-.742-8.088-1.444-12.028-2.477-2.553-.67-5.074-1.575-7.618-2.308-.654-1.109-1.441-2.18-2.159-3.251 3.13-1.51 6.537-3.138 9.796-4.32 16.063 6.372 31.725 13.679 48.034 19.441l2.627-.822c-1.52-2.023-2.977-4.098-4.552-6.078q-1.81-2.293-3.736-4.49t-3.963-4.292-4.178-4.082-4.383-3.861q-1.129-.942-2.28-1.857-1.151-.914-2.325-1.8-1.173-.885-2.368-1.741-1.196-.856-2.411-1.682-1.216-.827-2.452-1.623t-2.492-1.561-2.529-1.5-2.565-1.436-2.6-1.372-2.633-1.308-2.665-1.242-2.694-1.176-2.723-1.11-2.75-1.04q-1.38-.504-2.774-.974-1.393-.47-2.798-.904-1.404-.435-2.818-.835t-2.84-.765-2.856-.695-2.873-.623-2.888-.553-2.9-.48-2.912-.41-2.92-.337-2.929-.265-2.933-.192q-1.469-.078-2.938-.12t-2.94-.047q-1.47-.005-2.94.026t-2.938.098-2.935.171-2.93.243q-1.162.108-2.321.238t-2.316.283-2.31.33-2.303.375-2.295.421-2.286.467q-1.14.244-2.276.512-1.136.267-2.266.557t-2.254.602-2.242.646-2.228.691-2.215.736-2.2.779-2.183.823-2.166.866-2.149.909-2.13.951q-1.061.486-2.112.994-1.05.507-2.09 1.035t-2.07 1.077-2.048 1.118-2.027 1.158-2.002 1.198q-.995.61-1.978 1.238-.982.629-1.952 1.277t-1.928 1.315-1.9 1.354-1.873 1.391-1.846 1.428-1.816 1.464-1.787 1.5-1.757 1.536c-5.467 4.93-10.273 10.357-14.936 16.037q3.016-1.2 5.994-2.491 4.356-1.844 8.732-3.64c2.834-1.167 6.138-2.822 9.195-3.196 1.571-.192 3.253-.018 4.785.354 2.633.639 5.148 1.79 7.645 2.826q4.629 1.935 9.281 3.812c7.996-2.097 15.92-4.677 23.745-7.327q10.844-3.655 21.584-7.605 10.245 4.712 20.598 9.18c2.637 1.126 6.092 2.863 8.88 3.426.572.115 1.233-.076 1.8-.186-.695.451-1.416 1.001-2.208 1.252-2.89-1.271-6.115-2.37-9.203-3.062.984.756 2.066 1.374 3.029 2.16-2.363-.53-4.13-2.213-6.342-2.952zm-24.134-2.583c3.129.78 6.338 1.205 9.475 1.946 4.402 1.04 8.684 2.859 12.713 4.885l.06.066-.06-.066c-3.548-4.368-9.927-7.763-15.196-9.646-1.617.729-3.31 1.33-4.964 1.973zm47.021 8.429.075.131c.176 1.35 1.108 3.912 1.695 5.15l.3.098c-.246-1.397-1.218-4.069-1.995-5.248zm-15.254 3.127.109.13.166.178.22.31.164.18.113.276.12.045c.116.21.15.403.377.5.248.48.484.86.915 1.194l.078.081.13.154.234.316.07.089.015.058c.181.612.393 1.025.956 1.35-.174-.606-.482-1.016-.97-1.408l-.071-.089c-.06-.11-.158-.216-.235-.316l-.129-.154-.078-.081c-.214-.515-.493-.836-.915-1.194-.033-.255-.196-.326-.377-.5l-.01-.134-.223-.187-.165-.18c-.053-.108-.148-.213-.22-.31l-.165-.178zm7.527 38.006c-.1 1.89.351 4.365 1.11 6.102l.074.138-.074-.138c0-1.107-.658-5.11-1.11-6.102m4.472 1.145c2.179 2.563 3.561 6.343 6.51 8.142l-.017-.052q.436.257.882.497l.241-.006-.241.006-.293-.33.046-.17c.78.052 1.558.502 2.33.35-.205-.004-.269-.026-.45-.134a2.3 2.3 0 0 0-.447-.22l-.207-.074c.5-.111.948.159 1.46.224l.186-.146-.037-.25c-.284-.165-.344-.111-.673-.058.041-.025.08-.057.125-.076.433-.178.888-.317 1.326-.504-.858-.625-1.9-.86-2.756-1.45-.388-.268-.649-.538-.736-1.006.723-.887 2.61-.31 3.645-.33.546-.01 1.068-.142 1.594-.274-1.107-2.005-1.755-2.518-2.134-4.936-.404-2.572.242-3.62 1.668-5.625.23-.323.31-.515.24-.904a10 10 0 0 0-.871.07c-.247-.153-.293-.163-.406-.425.237-.182.137-.123.397-.256q.09-.046.181-.09c-.163-.653-1.765-1.271-2.309-1.807l-.098-.1c-.752-.143-1.854-.452-2.584-.209l-.043.158c.182.32.402.525.668.77.07.244.134.491.211.733.18.569.283 1.319.192 1.915-.036.24-.05.275-.242.428-.837-.755-1.453-1.917-2.16-2.817-.272-.314-.475-.48-.894-.537a7 7 0 0 1-.9-.188c.113-.189.673-.257.9-.317-.195-.245-.357-.374-.679-.422-.827-.125-2.72.987-3.317 1.573-.159.155-.19.181-.186.407.635.434 1.953.36 2.745.668.194.075.46.12.545.314-1.074-.028-2.174-.359-3.258-.47-1.535.947-1.914.783-2.65 2.567.781.288 1.57.175 2.36.48.031 1.73-.285 3.462-.22 5.186.066 1.758.933 2.847 2.15 3.996-.863-1.414-1.454-2.673-1.794-4.301m-55.641 11.719c.691-.488 1.307-.944 2.124-1.198-.493.492-.989.961-1.524 1.41l.224-.067c.36-.118 1.712-1.156 1.89-1.11q-.198.38-.41.752l-.04.09.04-.09c.855-.742 1.789-1.066 2.838-1.434-.977.721-1.823 1.516-2.49 2.535.947-.583 1.895-1.235 2.913-1.687l-.108.12c-.683.75-1.875 1.5-2.385 2.333.848.422 1.524.059 2.373-.2-.713.905-1.53 1.606-2.369 2.386 1.404-.65 2.645-1.567 3.992-2.314-1.014.95-1.707 1.842-2.388 3.053l.897-.54-.107.17c.007.033.023.066.02.1-.002.043-.076.328-.087.374.927-.668 1.72-1.483 2.632-2.164 1.03-.77 2.216-1.326 3.361-1.898-1.423 1.6-3.678 2.075-4.724 4.04l-.056.121-.163.115-.07.08.07-.08.163-.114.056-.123c.534-.273.978-.217 1.589-.513 1.517-.736 2.946-1.646 4.451-2.395-1.744 1.83-4.245 2.849-5.883 4.805l-.07.054.07-.054c2.4-.852 4.4-2.399 6.894-3.076-1.56 1.308-3.105 2.553-4.791 3.695 2.013-.56 3.574-1.62 5.383-2.63-.682.9-1.424 1.754-2.15 2.618 1.234-.607 2.255-1.358 3.285-2.264-.38.798-.815 1.553-1.263 2.314 1.262-.857 2.327-1.925 3.43-2.971-.603 1.242-1.368 2.422-1.909 3.69 1.025-.755 1.936-1.335 3.131-1.793-.322.843-.77 1.666-1.161 2.481a67 67 0 0 1 3.27-3.949c-.38 1.46-1.085 2.839-1.713 4.205 1.046-.92 1.95-2.408 3.227-3.014.267-.127.287-.152.571-.043l.061.337c-.243.32-.333.726-.453 1.105.769-.72 1.328-1.513 1.909-2.384-.106.807-.147 1.61-.185 2.423.529-.767.925-1.617 1.456-2.39-.136 1.294-.56 2.489-.967 3.716 2.104-3.04 2.39-7.103 2.954-10.664.603 2.64.718 5.38 1.314 8.036.015-.826-.324-3.84.1-4.394.225 1.03.288 2.123.666 3.107l.055.136c.069-.931.06-1.868.066-2.801q.03.07.057.14l.086.229c.436 1.141.263 2.345.708 3.492l.107-.139a2.8 2.8 0 0 1 .108-.667c.3.753.532 1.519.763 2.295.072-.855.126-1.715.274-2.561l.034.104c.458 1.245.3 2.51.736 3.742.275-.712.419-1.452.58-2.195l.185-.078.17.138.008.634c.14-.261.18-.355.43-.528l.145.081c.01.147.028.302.027.45-.005.909.376 1.53.811 2.297q-.19-1.466-.303-2.941c.424.794.748 1.652 1.095 2.482a12.4 12.4 0 0 0 .145-2.281c.212.386.39.813.714 1.115l.286-1.063.166-.085.426.404.098-.042c.015-.381.024-.757.091-1.133.273-.15.282-.157.588-.112.223.204.286.365.374.645.064.207.096.325.215.51l.128-.095c.112-.472-.188-1.037-.288-1.513.299-.06.675.256.944.407.264.823.363 1.706.605 2.543l-.007-3.306c.701 1.388.986 2.41 1.124 3.965.177-1.138.348-2.247.27-3.401-.19-2.78-2.186-8.288-3.164-11.074.001 1.431.042 2.866.065 4.298-1.91-3.049-2.452-7.145-5.852-9.062-5.003 2.978-14.968 4.045-20.865 3.868-2.21-.066-4.586-.59-6.778-.304-2.376.31-4.205 1.755-5.599 3.612.98-.386 1.92-.954 2.888-1.388-.989 1.045-2.159 2.072-2.973 3.257.938-.376 1.792-1.032 2.64-1.578-.625 1.025-1.452 1.92-2.271 2.79m2.449 1.313-.19.054zl.058-.186zm66.57-63.192q-.85.332-1.691.687c2.966.797 6.535 1.356 8.977 3.335-3.467-.52-7.086-1.437-10.445-2.448-.757.221-1.483.44-2.2.776 1.734.801 3.381 1.505 5.24 1.956 4.746.743 9.626 1.377 14.416 1.78-1.49-.915-13.252-6.035-14.296-6.086m-60.15.629c-1.82.696-3.72 1.283-5.504 2.057 2.522.922 5.376 1.392 8.012 1.91 6.47 1.273 13.008 2.143 19.48 3.407q2.285.468 4.548 1.032c-2.276-1.1-4.446-2.402-6.733-3.484-4.744-2.244-9.468-3.259-14.598-4.19-1.534-.278-3.659-.917-5.205-.732m-54.89 3.05-.422.043.057.056q-.084-.01-.169-.017a1 1 0 0 0-.463.059c.656.412 1.585.577 2.326.844 1.015.366 2.008.791 3 1.215 6.477 2.765 12.934 5.698 19.552 8.105 2.084.758 4.224 1.387 6.34 2.052 2.022.635 4.051 1.343 6.111 1.841l.473.063c-.905-.914-19.9-8.146-22.987-9.425-3.334-1.381-6.578-3.012-9.966-4.252-.947-.347-1.825-.636-2.846-.644a9 9 0 0 0-1.005.06m45.902.198q-2.863 1.048-5.761 1.99c2.853.58 5.653 1.384 8.5 1.989 4.847 1.03 9.75 1.84 14.632 2.687 3.314.574 6.807 1.386 10.18 1.327 2.068-.145 3.455-.67 5.338-1.51-5.48-1.67-10.966-2.6-16.582-3.642-5.415-1.005-10.857-2.056-16.308-2.84m-49.33.904c-1.007.384-2.08.724-3.041 1.208 2.38.399 4.757.565 7.088 1.237 3.322.958 6.334 2.465 9.454 3.917 2.722 1.266 5.51 2.4 8.264 3.596 1.859.806 3.736 1.74 5.643 2.418 1.696.602 3.613.778 5.365 1.227 4.139 1.06 8.248 2.227 12.436 3.09 3.294.679 6.62 1.102 9.932 1.661.996-.431 2.096-.814 3.023-1.377q-7.734-1.07-15.407-2.508c-3.977-.718-8.057-1.418-11.922-2.611-2.672-.825-5.268-1.992-7.89-2.968-3.322-1.237-6.715-2.335-10.01-3.633-2.646-1.043-10.506-5.423-12.935-5.257m-5.44 2.119q-2.679 1.06-5.344 2.155c2.728.185 5.439.729 8.132 1.189 4.1.7 8.21 1.374 12.205 2.555 2.807.83 5.543 1.924 8.318 2.857 1.481.437 2.97.932 4.47 1.294-3.387-1.576-6.873-2.826-10.298-4.298-3.843-1.652-7.471-3.55-11.518-4.692q-1.94-.532-3.932-.798c-.656-.093-1.395-.108-2.033-.262m45.713.091c-1.594.588-3.213 1.075-4.812 1.636 2.616 1.073 5.378 1.8 8.118 2.476 3.933.971 23.376 5.038 26.323 4.145l4.737-2.032c-2.957-.754-6.034-1.194-9.041-1.71l-14.82-2.553q-3.472-.64-6.932-1.345c-1.097-.218-2.467-.657-3.573-.617m67.862.328h.083zm.112.3.146.075zM88.57 55.39c-.7.182-1.408.347-2.09.59q4.954 2.374 10.023 4.491c1.663.71 3.375 1.566 5.12 2.04 3.491.948 7.798 1.395 11.437 1.87 1.25.164 4.085.774 5.213.35.636-.24 1.26-.521 1.883-.791.941-.418 1.915-.806 2.815-1.307-7.656-1.91-15.602-2.66-23.305-4.434-1.533-.353-10.473-2.842-11.096-2.81m-45.129.892c-2.781.458-7.844 2.566-10.488 3.842 11.83.345 23.812.759 35.473 2.899 5.534 1.015 10.974 2.595 16.448 3.892 5.097 1.207 10.334 2.16 15.514 2.936q3.133.526 6.29.88c1.04-.443 2.076-.904 3.124-1.327-6.66-.184-13.525-1.149-20.012-2.663-3.855-.9-7.634-2.032-11.454-3.057-2.832-.76-5.693-1.41-8.526-2.166-5.796-1.548-20.862-5.841-26.369-5.236m123.777 4.023c-.165.359-.249.46-.198.86.161.175.313.335.504.478.1-.35.143-.607.003-.96a.8.8 0 0 0-.31-.378M32.359 61.931l-2.983.09q-.758 1.501-1.578 2.969 13.269.494 26.52 1.33c6.547.408 13.139.757 19.64 1.643 8.744 1.192 17.597 3.249 26.219 5.138l.975.193c1.081-.457 2.179-.893 3.246-1.382-3.937-.038-8.05-.974-11.923-1.7q-9.916-1.947-19.786-4.12c-2.733-.605-5.447-1.304-8.188-1.867-9.728-1.995-22.187-2.653-32.142-2.294m121.063.276c.099.315.18.657.501.82.133.066.286.103.43.143-.106-.297-.209-.721-.524-.86-.128-.057-.27-.078-.407-.104m14.367.483c-.194.38-.246.517-.182.94.186.333.278.44.631.625.097-.48.015-1.075-.321-1.46-.037-.041-.085-.07-.128-.105m-13.218 1.117c.152.463.245.797.61 1.132l.335.083c-.14-.46-.267-.896-.729-1.13-.069-.035-.143-.059-.216-.085m13.582 1.476c-.03.331-.09.474.075.769.214.066.393.111.617.12-.042-.397-.008-.508-.283-.812zm57.735.27c-7.471.388-17.076 5.2-24.269 7.597.843.4 1.69.85 2.555 1.195.808-.218 1.626-.417 2.427-.66 8.04-2.436 16.073-4.332 24.522-4.423q-.941-1.898-2.135-3.649c-1.036-.05-2.063-.1-3.1-.06m-199.04.818c-.656 1.115-1.391 2.23-1.98 3.38 2.305.212 4.637.259 6.949.36l11.591.475q12.258.47 24.492 1.374c3.438.226 6.898.277 10.326.616 3.963.392 7.867 1.178 11.778 1.906 1.597.297 3.262.725 4.876.88.219.021.442.014.652-.052l2.41-.776-15.408-2.82c-5.245-.983-10.46-2.037-15.756-2.716-7.888-1.012-15.836-1.362-23.77-1.772-5.385-.278-10.772-.671-16.16-.855m129.485-.055c-.099.307-.212.547-.095.867.216.224.369.287.664.38.073-.31.073-.489-.108-.769a2.3 2.3 0 0 0-.46-.478m12.269.468c-.28.219-.382.19-.43.558.236.256.474.39.774.552l.242-.063c.031-.409-.036-.51-.204-.872zm12.556 1.653h.153zm-23.684-.03c-.18.36-.212.403-.165.797.188.19.292.288.553.357.21-.318.257-.373.27-.749-.236-.29-.297-.292-.659-.405m11.014.8-.173.37c.225.405.56.474.978.654.159-.266.21-.384.188-.695-.332-.313-.54-.311-.993-.329m-10.011 1.07-.308.393.037.226.43.205c.19-.227.338-.294.312-.602-.156-.08-.305-.163-.471-.221m-134.49.933c-.652 1.174-1.305 2.348-1.831 3.585q15.327.664 30.661 1.159l14.148.542c3.705.112 7.419.023 11.122.167q3.18.146 6.34.53c1.163.146 3.125.636 4.221.549.424-.034.883-.23 1.286-.357l1.994-.675c-2.802-.506-5.635-.88-8.45-1.303-3.971-.598-7.949-1.22-11.946-1.61-4.994-.489-10.015-.717-15.024-1zm144.846-.007c.02.388-.014.444.237.732.253.049.504.1.76.135-.097-.39-.083-.501-.393-.773zm58.962.117q-2.798.098-5.585.368t-5.552.712-5.497 1.053-5.423 1.391c2.121.919 4.287 1.797 6.337 2.868.12.053.23.135.358.16.407.079 2.598-.647 3.1-.775q3.072-.75 6.189-1.288c4-.71 8.076-1.225 12.14-1.324a46 46 0 0 0-1.647-3.243c-1.476-.001-2.945.004-4.42.078m-69.189.289.054.453.192.127.624-.158.082-.266c-.268-.217-.612-.167-.952-.156m10.349 1.387c.117.335.146.497.47.693.171.104.437.157.631.213-.048-.36-.035-.542-.256-.835a2.7 2.7 0 0 0-.846-.071m-8.804.138c-.354.117-.64.153-.895.431.078.216.158.326.316.492l.109-.034c.321-.114.682-.187.89-.474-.14-.262-.184-.26-.42-.415m9.075 1.754c.243.243.404.447.774.462.13.006.207-.01.33-.025-.085-.159-.139-.376-.316-.444-.255-.098-.526-.03-.788.007m-8.196.08c-.272.25-.672.514-.755.887.29.302.558.307.962.389l.285-.221c.005-.444-.096-.63-.343-.993zM21.235 76.39c-.61 1.197-1.272 2.388-1.807 3.62 11.699.495 23.406.353 35.102.83q7.239.273 14.47.711c2.672.161 5.569.566 8.239.408 1.402-.083 2.846-.871 4.163-1.342q1.767-.647 3.519-1.333c-3.638-.148-7.243-.512-10.871-.78q-7.067-.517-14.149-.784c-12.88-.494-25.806-.415-38.666-1.33m207.12.287c-4.745.345-9.413.937-14.069 1.924 2.323 1.163 4.817 1.935 7.137 3.127l1.137-.278c4.716-.819 9.4-1.125 14.179-1.305q-.719-1.81-1.644-3.522c-2.22-.03-4.534-.165-6.74.054m-58.987.047c.074.386.057.447.339.712l.877.197c-.111-.371-.129-.458-.406-.721-.27-.074-.533-.152-.81-.188m-7.276.637-.629.465-.028.219c.167.117.316.204.505.282l.442-.288.037-.217zm8.273 1.64c-.33.111-.686.152-.906.428.175.194.297.269.539.365l.441.041.24-.228c-.002-.264.014-.379-.213-.562-.029-.023-.067-.029-.101-.043m-7.898.595-.675.32-.054.166c.224.095.427.174.665.223.314-.16.482-.204.673-.506-.239-.186-.302-.175-.608-.203m7.401 1.587c.018.2-.02.463.132.611.255.25.708.31 1.046.398-.353-.533-.524-.85-1.178-1.008m-6.836.122-.247.415.097.198.42.113.36-.4-.059-.162zm-138.9.22c1.718.628 3.523 1.086 5.276 1.615 1.773.535 3.519 1.192 5.351 1.499 5.342.894 11.873.612 17.363.833l9.755.415c1.767.067 3.648.263 5.398.037 1.417-.182 2.903-1.015 4.255-1.489l2.012-.764q-8.543-.826-17.108-1.33c-7.193-.373-14.372-.441-21.571-.527q-3.126-.014-6.25-.126c-1.476-.063-3.009-.241-4.482-.165m206.429.407q-4.019.144-8.033.374c1.34.607 7.814 3.848 8.816 3.816q3.9-.217 7.808-.214c-.519-1.279-.992-2.609-1.61-3.842q-3.488-.221-6.981-.133m-66.557 1.201-.444.435c.24.19.48.199.775.254l.241-.283-.043-.222a2 2 0 0 0-.53-.184m5.477.406c.344.621 1.577.858 2.231 1.06-.24-.496-.58-.703-1.1-.87-.369-.12-.747-.157-1.131-.19m-15.207.224c.368 1.694 1.438 3.88 2.939 4.86.433.282.945.486 1.469.381.29-.058.586-.186.851-.313-.047-.657-.247-1.27-.763-1.715q-.076-.063-.156-.123l.162-.061-.248.002c-.266-.169-.171-.055-.25-.37-.199-.804-.923-1.355-1.61-1.743-.725-.41-1.587-.724-2.394-.918M36.626 86.416c1.583.829 3.588 1.287 5.285 1.899q3.588 1.32 7.195 2.588c1.174.412 2.367.897 3.576 1.189 2.753-1.095 5.474-2.261 8.284-3.209 1.116-.396 2.23-.791 3.327-1.235-6.546-.15-13.117-.644-19.662-.944-2.618-.12-5.4-.448-8.005-.287m-20.163.399a44 44 0 0 1-1.28 4.047c4.076.137 8.135.558 12.191.971q9.192.861 18.277 2.505c.384.061.76.169 1.134.024-.471-.825-5.692-2.17-6.827-2.479-4.932-1.34-9.974-2.439-14.978-3.475-2.799-.58-5.682-1.266-8.517-1.593m217.557.812c2.151 1.118 4.334 2.2 6.596 3.08l-.85-3.046q-2.873-.065-5.746-.034M14.75 91.903l-1.19 4.049q8.928.547 17.798 1.705c1.765.225 3.904.314 5.597.844.964-.344 1.938-.671 2.89-1.05.709-.275 1.431-.534 2.131-.831-2.727-.843-5.487-1.35-8.289-1.874q-6.42-1.192-12.892-2.063c-2-.274-4.062-.42-6.044-.78m-1.504 5.304c-.378 1.469-.787 2.937-1.103 4.42q4.793.165 9.576.502c1.757.12 3.84.477 5.582.25.848-.112 1.931-.735 2.73-1.075.893-.388 1.81-.752 2.665-1.218-6.472-1.204-12.878-2.35-19.45-2.879m88.01 1.843c-3.042.259-5.86 1.465-8.863 1.814-1.385.161-2.775-.545-4.14-.33-.626.099-1.24.498-1.647.974-1.225 1.43-1.115 4.041-.931 5.804.403 3.877 1.779 7.874 3.078 11.533.541 1.526 1.361 3.204 1.596 4.803.251 1.716-.05 3.71-.42 5.39.456-.51.901-1.05 1.388-1.53 3.703-3.568 9.2-9.94 9.312-15.235.042-2.004-1.434-7.597-.526-9.11.542.579.602 1.975.721 2.741.03-1.061.02-2.131.078-3.19.439 1.356.58 2.763.742 4.174.12-.952 1.38-6.939 1.233-7.329-.036-.097-.126-.165-.188-.248-.455-.24-.931-.232-1.432-.262m-89.398 3.734q-.431 2.37-.949 4.724c1.073.129 2.248.36 3.325.299 2.08-.118 4.89-1.793 6.86-2.638q1.753-.767 3.52-1.502c-4.25-.343-8.503-.59-12.756-.883m137.356.023c-.055 1.287.067 5.883 1.01 6.755.025.023.056.039.084.058.468-1.48-.214-5.252-.953-6.576q-.066-.12-.14-.236M10.75 108.345l-.264 1.52 1.789-.874c.228-.109.485-.153.573-.396-.66-.217-1.41-.168-2.098-.25m73.127 1.863c-.576 3.858-1.174 7.903-1.143 11.81.041 5.276 2.299 7.17.035 12.783l.06.069.673-1.16c3.108-5.707 4.263-10.729 2.395-17.124-.612-2.094-1.247-4.346-2.02-6.378m44.427 3.515c-.279.284-.548.515-.666.908.091.24.028.166.124.264.226-.303.6-.694.65-1.068zm-26.133 4.168c-.326.116-.71.23-.974.461-.933.817-1.604 2.652-2.139 3.782-.109.23-.202.459-.29.696 2.127-.08 2.575-1.06 4.36-1.67l.185.048c2.599.69 5.102 2.01 7.606 2.995 7.36 2.895 11.7 1.626 19.07.53 1.852-.205 3.281-.11 5.045.503-.544-1.413-1.155-2.805-2.242-3.894-2.311.095-4.635-.06-6.957.007-3.73.107-7.573.67-11.276.139-1.829-.263-3.637-.81-5.37-1.438-2.273-.825-4.556-2.316-7.017-2.16m39.904 4.912c-1.231.227-1.858.248-2.88 1.017-.096-.369.211-.599-.001-.925-.368.101-.624.185-.931.427l-.206.489-.154-.124a6 6 0 0 0-.465-.33c-.185.086-.188.036-.237.22-.225.83 1.291 9.741 1.47 11.4.15 1.392.177 2.794.302 4.189.122 1.362.377 2.716.404 4.085.056 2.787-.183 5.537-.242 8.315-.03 1.443.339 3.018.013 4.433.465.452 1.305.383 1.911.375a1.9 1.9 0 0 0 .667-.117c-.023-.123-.026-.225-.099-.33-.56-.858-1.138-1.709-1.621-2.614.039-1.662.208-3.322.193-4.984-.014-1.437 0-2.89-.067-4.326-.124-2.628-.547-4.982.297-7.58-.005.594-.176 1.392.076 1.928.279.167.467.228.8.174.316-.052.48-.158.677-.4.046-1.031-.331-2.054-.453-3.076-.474-3.953.343-7.344 2.475-10.662-.035-.494.011-.858-.287-1.272-.58-.213-.987.22-1.62.03zm-41.343 1.694c-1.978.995-3.865 2.008-5.414 3.63.039 1.938.253 4.095-.02 6.007-.171 1.204-.793 2.365-.753 3.596.023.71.408 1.319.778 1.9.18.22.349.557.634.594.794-.852 1.36-2.192 1.746-3.281.615-1.737.88-3.603 1.34-5.386.438-1.695 1.641-5.138 1.721-6.745.008-.149-.006-.186-.032-.315m136.082 2.931c-1.355.097-2.717.167-4.057.4 3.674.352 7.37.644 11.026 1.15 1.11.146 2.22.281 3.328.44l-.022-1.76c-3.375-.302-6.895-.47-10.275-.23m-15.706 1.75c-6.917.478-12.98 2.364-19.578 4.346q-4.022 1.193-8.078 2.266-5.642 1.504-11.305 2.922c-2.155.548-4.374 1.037-6.486 1.731 2.48-.245 4.96-.905 7.392-1.445l9.642-2.09c11.022-2.416 21.966-5.079 33.257-5.916q4.362-.356 8.735-.232c2.127.072 4.405.373 6.523.196-6.407-1.387-13.539-2.38-20.102-1.777M84.32 134.465c-.837 1.456-1.884 2.995-2.378 4.608.558 1.67 1.328 3.26 1.876 4.933 1.193 3.649 1.937 8.41 1.955 12.255.236.318.476.785.85.907.108-.205.124-.334.129-.565.449-3.021-1.597-7.583-1.77-11.005-.102-2.008.643-3.657.99-5.577.26-1.432.176-2.958.165-4.41-.35.705-.727 1.614-1.405 2.053l-.207-.026c-.345-.986-.033-2.15-.205-3.173m-1.646.599h.107zm-.136.25h.11zm145.73 3.257c-17.01.543-34.107 4.804-50.341 9.674l-13.807 4.143c-3.59 1.071-7.198 2.187-10.854 3.01 2.885.504 5.79.922 8.656 1.527 2.487-.781 5.015-1.451 7.523-2.165 11.253-2.995 22.415-6.316 33.777-8.893q9.445-2.1 19.023-3.465c5.526-.788 11.112-1.441 16.693-1.624q2.504-.067 5.009-.013c.537.008 1.352.16 1.851.063.095-.019.163-.104.245-.156l.102-.357c-.39-.562-1.538-.668-2.177-.782-5.12-.916-10.506-1.278-15.7-.963M9.832 140.305c-.078 1.817.412 3.875.692 5.671 11.254 1.238 22.247 2.621 33.426 4.458q5.219.905 10.409 1.968c1.639.325 3.368.794 5.028.949 1.108.104 2.228-.202 3.301-.451-5.937-1.71-11.96-2.753-18.04-3.794-3.684-.565-7.397-1.083-11.054-1.803-3.165-.622-6.296-1.459-9.43-2.221-.466-.114-2.378-.385-2.613-.7l-.112.05v.003l.105-.012c1.595-.15 3.504.346 5.122.501 3.422.327 6.848.552 10.271.851 1.653.145 3.319.428 4.971.51-2.293-.844-4.67-1.311-7.055-1.81-4.212-.881-8.452-1.567-12.694-2.284-4.043-.682-8.237-1.61-12.327-1.886m226.92 3.377q-6.081.199-12.142.75t-12.078 1.452c-10.626 1.646-21.046 4.247-31.428 7.002q-8.342 2.21-16.662 4.504c3.173.58 6.363 1.072 9.541 1.631 6.124-1.382 12.19-3.137 18.287-4.645 14.718-3.64 29.72-6.873 44.833-8.264 2.767-.255 5.545-.534 8.323-.627l.252-1.585c-2.973-.111-5.95-.287-8.925-.218M10.96 147.554c-.214 1.137.563 3.761.817 4.978 6.518.241 13.035.826 19.538 1.322 6.48.494 13.084.717 19.403 2.354.81-.281 1.63-.616 2.453-.844.305-.094.843-.185 1.05-.412-1.81-.375-3.687-.603-5.514-.92q-5.623-.96-11.229-2.019c-8.828-1.616-17.594-3.418-26.518-4.46m228.7 1.375c-13.122.635-26.006 2.54-38.866 5.182-8.094 1.663-16.113 3.633-24.188 5.371q3.113.678 6.241 1.282c.916.202 2.059.578 2.988.565 2.774-.04 7.713-1.335 10.595-1.9 8.697-1.703 17.368-3.588 26.098-5.115q10.837-1.866 21.795-2.776c.164-.888.308-1.787.516-2.665-1.725.002-3.456-.023-5.179.056m-227.624 5.186 1.215 4.659q7.854.193 15.69.768c1.996.131 4.897.648 6.784.462 2.142-.212 5.247-1.286 7.462-1.784.669-.196 1.357-.37 2.007-.62q-11.323-1.51-22.686-2.676c-3.447-.337-7.01-.795-10.472-.809m231.32.565q-15.407 1.097-30.68 3.404-6.984 1.126-13.952 2.342c-2.746.489-5.493 1.07-8.256 1.441.81.231 1.608.403 2.439.546l7.266 1.295c1.512.275 3.156.727 4.692.708 1.295-.017 2.817-.52 4.09-.795q3.232-.698 6.479-1.326c8.972-1.744 18.254-3.606 27.364-4.303.184-.641.995-2.795.726-3.312zm-229.771 5.59c.492 1.614.954 3.253 1.598 4.815q6.508-1.542 13.039-2.984l3.013-.783c-2.384-.314-4.823-.4-7.222-.554-3.459-.223-6.963-.473-10.428-.493m227.659.279q-10.294 1.181-20.54 2.72c-4.06.598-8.198 1.148-12.198 2.06 4.542 1.17 9.06 2.544 13.568 3.846 3.494 1.01 7.74 2.682 11.332 2.637l5.061.053q1.23-3.44 2.399-6.901l-8.977.975c-4.556.489-8.916.994-13.48.271 7.583-1.981 15.518-3.175 23.29-4.178.138-.464.398-.989.294-1.462-.297-.12-.441-.061-.75-.021m-83.863 18.367-.067.529c.163.133.335.256.497.388.257.209.364.376.379.714.065 1.463-.012 2.965-.02 4.433l-.042 9.081c-.006 2.856.283 8.747-.2 11.262-.307.224-.582.374-.767.713.07.303.046.237.254.41 1.761.059 3.54-.059 5.302-.112l.172-.215c-.054-.257-.173-.323-.363-.488-.374-.327-.482-.465-.51-.974-.148-2.783.029-5.669.019-8.464-.02-5.342-.124-10.698-.028-16.038.369-.235.593-.32.802-.711-.077-.192-.042-.224-.246-.317-.96-.435-3.963-.169-5.182-.211m-84.897.091c.132.621.342.833.868 1.177l.096.061c-.08 8.312.12 16.633-.087 24.942-.324.254-.729.499-.877.896l.075.17c1.714.338 4.09.167 5.843.028-.552-.427-1.228-.786-1.341-1.521-.3-1.95-.107-4.172-.114-6.16-.012-3.603-.17-7.288.095-10.88 1.27 3.446 2.87 6.742 4.42 10.067 1.34 2.877 2.637 5.793 4.092 8.614l1.383.002 1.784-.008c-.688-2.365-.422-5.237-.433-7.697l-.03-8.293c-.01-3.302-.248-6.794.038-10.07.25-.413.693-.632.82-1.084l-.143-.199c-1.243-.08-4.011-.365-5.084.153l-.086.233c.232.417.508.51.91.75.202 5.189.03 10.437.03 15.633l-.132-.21c-.784-1.273-1.33-2.877-1.952-4.253q-1.884-4.14-3.831-8.25c-.261-.552-1.439-2.424-1.314-2.987.063-.282.276-.51.449-.735l-.032-.221c-.549-.393-4.506-.169-5.447-.158m24.015.014c.215.46.437.883.72 1.304Q95.13 189 92.837 197.623c-.653 2.55-1.088 5.223-1.896 7.723-.365.246-.6.345-.803.742.158.253.188.249.47.318 1.233.303 3.307.089 4.581-.076l.078-.217c-.578-.879-.902-1.007-.672-2.146.244-1.207.61-2.388.859-3.594q3.038.075 6.077.05l.413.048c.51.802 1.103 3.804 1.115 4.78-.223.43-.592.387-.695.867l.096.223c1.438.167 3.572.246 4.99.012.213-.178.213-.18.27-.453-.338-.424-.842-.948-1.026-1.458-.329-.913-.495-1.982-.719-2.931q-.758-3.298-1.559-6.585l-2.665-10.328c-.359-1.428-.846-2.896-1.078-4.346.19-.248.385-.415.61-.623.14-.13.093-.088.172-.303l-.162-.259c-1.437-.305-3.31-.078-4.794-.046m12.475.008c-.008.184-.072.316.068.454.183.181.41.282.637.398.184.267.211.507.237.822.152 1.802-.031 3.784-.034 5.602l-.008 13.148c.003 1.196.273 4.328.081 5.32-.097.504-.935 1.027-.757 1.493.902.32 4.129.258 5.052-.03l.127-.136c-.107-.27-.14-.269-.355-.445-.371-.305-.624-.617-.672-1.115-.148-1.527.028-3.268.026-4.817l-.015-11.209c.829 1.995 4.435 13.036 5.385 13.944.263-.018.484.038.64-.219.674-1.105 1.565-4.572 2.1-6.052.978-2.7 2.157-5.331 3.12-8.035-.15 2.41-.114 4.841-.117 7.254l-.052 6.62c-.003.76.153 1.686.006 2.421-.116.585-.5 1.047-.862 1.5l.033.34c.886.308 4.347.227 5.307-.01l.097-.18c-.222-.38-.504-.574-.855-.83q-.062-7.933-.044-15.864c-.003-2.832-.174-5.768.009-8.585.02-.313.004-.683.267-.898.127-.105.353-.179.507-.245.104-.276.107-.307.043-.595-1.123-.303-4.143-.143-5.356-.075l-.194.129c-.008.172-.048.232.056.376.316.434.417.794.31 1.329-.294 1.482-.976 3.038-1.471 4.472-1.032 2.987-2.012 6.113-3.3 8.995q-1.571-4.263-3.08-8.548c-.663-1.863-1.433-3.755-1.903-5.675l.93-1.062c-1.95-.04-4.023-.192-5.963.008m22.746.002c-.009.185-.076.371.056.52.194.219.484.306.748.414.217.291.242.62.257.972.043.992-.039 2.006-.04 3l.019 6.204c.004 4.988.097 10.002-.052 14.986-.322.249-.637.432-.759.842.117.275.029.211.272.318.97.425 4.027.088 5.243.09-.011-.399-.024-.503-.311-.784-.158-.154-.337-.291-.508-.43-.126-3.846-.056-7.712-.06-11.56-.004-4.497-.067-9.002-.012-13.498.328-.238.532-.325.695-.703-.143-.247-.18-.274-.473-.352-1.212-.323-3.751-.085-5.075-.02m8.34-.035c.083.538.104.568.569.912l.153.111c.375 1.83.177 3.956.176 5.833l-.016 10.138-.01 5.504c.003 1.205.097 2.432-.06 3.628-.235.32-.63.572-.706.953l.167.249c2.058.166 8.878.285 10.638-.164.57-.146 1.154-.521 1.59-.907.302-.268.594-.58.842-.898 1.579-2.785 1.867-6.278 1.026-9.356a8.5 8.5 0 0 0-1.587-3.141c1.359-2.993 2.038-6.279.85-9.472-.464-1.247-1.23-2.32-2.46-2.896-2.05-.96-8.642-.484-11.172-.494m29.709.02c.05.406.029.514.347.796.15.131.355.237.526.341-.89 4.134-2.026 8.222-2.976 12.344-.929 4.028-1.678 8.156-2.797 12.134-.082.292-.138.655-.42.816-.159.091-.353.15-.525.21-.075.282-.113.281-.013.573.718.22 4.114.306 4.752 0 .185-.087.164-.181.223-.359-.124-.358-.356-.55-.622-.803.247-1.525.691-3.019 1.084-4.51l5.808-.033.318.057c.632 1.193.926 3.317 1.269 4.678-.276.273-.447.386-.558.763.148.251.151.255.42.334.578.17 4.14.158 4.545-.071.133-.076.105-.23.125-.367-.1-.216-.187-.298-.358-.45-.253-.224-.357-.465-.449-.787-.51-1.763-.863-3.6-1.3-5.384l-2.703-10.983c-.327-1.333-1.864-6.999-1.88-7.93-.002-.112.016-.202.03-.314.24-.213.46-.417.67-.66l-.015-.22c-.633-.42-4.508-.208-5.501-.175M45.567 213.114c2.818 2.641 5.673 5.267 8.705 7.663q1.032.823 2.081 1.622 1.05.799 2.116 1.575t2.151 1.527 2.184 1.48 2.216 1.431 2.248 1.382 2.277 1.331 2.307 1.281 2.334 1.23 2.36 1.178 2.387 1.125 2.41 1.072 2.434 1.018 2.456.964 2.476.91 2.495.855 2.515.799 2.531.744 2.547.687 2.562.63q1.284.302 2.575.575 1.29.272 2.587.516 1.296.244 2.597.46 1.302.215 2.608.401t2.615.345 2.623.286 2.628.228 2.633.17 2.636.111q1.318.041 2.637.053 1.32.012 2.638-.005 1.32-.017 2.638-.064.985-.041 1.969-.1.984-.058 1.967-.132t1.965-.165 1.962-.198 1.958-.23 1.954-.263 1.95-.296 1.944-.327 1.939-.36 1.932-.392 1.926-.424q.96-.22 1.918-.456.957-.236 1.91-.488.954-.252 1.902-.52.95-.267 1.894-.55t1.883-.583 1.874-.614 1.864-.644 1.852-.676 1.841-.706q.917-.36 1.829-.737.911-.375 1.816-.767.905-.39 1.804-.797.898-.406 1.79-.827t1.776-.856 1.761-.886 1.747-.915 1.731-.944 1.715-.972q.854-.494 1.7-1.001.844-.508 1.681-1.03.837-.52 1.665-1.056c6.549-4.312 12.867-9.07 18.395-14.656zM148.293 50.791l.077.055z"/><path d="M205.183 59.652c-4.215-.233-33.88-4.648-35.727-6.367 6.43 1.369 13.032 1.659 19.574 2.167 2.822.22 5.798.288 8.564.892 1.424.31 6.517 2.463 7.59 3.307m-51.544-6.07-.14-.06zm0 0c1.275.336 2.51.886 3.746 1.342 1.49.55 3.012 1.03 4.527 1.51.161.343.343.678.447 1.044-1.292-.38-7.912-3.113-8.72-3.896m7.735 6.169-.25-.1zm43.808-.098.066.066zm-43.808.098.216.072zm28.735 6.606c-.119-.013-.24-.004-.34-.074.086.016.268.03.34.074m-41.086 9.026c.164.013.297-.01.434.087-.178-.01-.287.021-.434-.087m28.658 1.985-.056-.085zm1.542 4.728-.228-.062zm0 0c4.51.635 9.085 1.645 13.579 2.448 9.666 1.727 19.256 3.472 28.813 5.745 1.774.422 3.547.867 5.332 1.239 1.442.301 2.939.5 4.35.92 1.68.5 4.327 1.587 5.814 2.463-4.695-.054-10.793-1.51-15.429-2.543-7.82-1.745-15.585-3.724-23.385-5.55-4.55-1.065-9.1-2.056-13.629-3.216-1.783-.456-3.74-.825-5.446-1.506m-23.139 4.199c-.156-.543.168-.983.419-1.45.097.457-.246 1.014-.419 1.45m.545.616-.158-.097c.081-.501.35-.903.599-1.338l.097.11c-.035.464-.33.915-.538 1.325m.64.642-.133-.13c-.047-.422.26-.943.424-1.329.102.103.136.212.195.342-.009.45-.252.752-.487 1.117m1.309.248c-.077.024-.162.01-.243.01l-.032-.4.135-.017z"/><path d="M242.113 98.27c-3.326.16-6.965-.65-10.25-1.162-7.303-1.138-14.59-2.348-21.714-4.356-3.016-.85-5.93-1.92-8.883-2.952-2.37-.828-4.761-1.58-7.066-2.578 1.835.267 3.752.96 5.565 1.4 4.978 1.207 9.972 2.487 14.98 3.555 6.025 1.284 12.086 2.63 18.19 3.475 2.783.385 5.642.294 8.4.737l.177.03c.256.6.424 1.223.601 1.85M164.6 93.118c-.485-.176-1.498-.42-1.79-.807l.43-.108c-.589-.462-1.117-.767-1.248-1.55-.105-.626-.62-1.511-.557-2.012.62.088 1.231.383 1.784.671 1.993 1.04 4.117 3.714 4.805 5.874l-.092.084-.274-.351c-.52-.834-1.02-1.537-1.784-2.165zm6.629 5.681c-.069-.034-.15-.072-.208-.118-1.033-.822-2.361-4.98-2.44-6.221 1.217 1.348 2.418 4.556 2.648 6.339"/><path d="M172.127 98.866a2 2 0 0 1-.46-.088c-1.044-1.512-1.436-4.128-1.55-5.942 1.017 1.649 1.626 4.124 2.01 6.03m-4.527 1.945c-.252-.113-.296-.177-.385-.455-.163-.507-.198-1.1-.328-1.625q-.276-1.15-.689-2.257t-.954-2.157c.17.13.139.098.309.275 1.235 1.287 2.04 4.482 2.048 6.219m-2.97-3.128c-.649-.44-1.162-1.317-1.575-1.971.828.422 1.202 1.17 1.575 1.97m3.119 5.141c-.292-.173-.48-.262-.542-.624-.055-.324.01-.737.071-1.055.337.414.376 1.16.471 1.68m0-.001.095.044zm-59.758 3.602c.165-.199.069-.162.246-.186l-.101.194zm3.441.399.051-.066zm9.884 5.699.053-.12zm9.473 19.767q-9.123-.423-18.237-.99c-2.114-.123-5.752-.079-7.694-.487-.161-.329-.07-.764-.047-1.121 5.505.105 11.03.633 16.526.983l5.585.344c1.177.066 2.397.056 3.558.267.279.275.266.635.309 1.004m1.644 6.144c-4.652.101-10.11-.452-14.856-.678q-4.456-.217-8.915-.388c-1.887-.073-3.806-.08-5.684-.279-.181-.374-.111-.922-.108-1.338 3.111-.022 6.243.137 9.352.254q10 .395 19.992.968zm.846 5.678c-6.963.024-13.95-.193-20.915-.287-1.818-.025-7.48.147-8.95-.221-.196-.35-.147-.829-.152-1.222 7.33.091 14.65.076 21.981.292 2.233.066 5.795-.06 7.856.336.215.355.164.692.18 1.102m-13.217 5.764c-4.546.013-9.24.221-13.762-.233-.386-.038-1.36-.093-1.588-.373.916-.169 1.873-.143 2.802-.21 3.396-.25 6.802-.292 10.206-.378 1.608-.01 14.67-.147 15.25.396l-.029.602c-.063.05-.117.115-.19.152-.22.114-11.35.042-12.69.044m-10.659 5.404c-.758-.794-3.022-3.729-3.267-4.73 7.879.204 14.183 1.095 21.9 2.507 2.726.499 5.552.93 8.23 1.647.177.655.426 1.283.668 1.916l-.537 1.974-.056.228c-.593.311-8.173-1.134-9.513-1.33-3.349-.491-6.713-.984-10.077-1.358-2.423-.27-4.968-.317-7.348-.853m-17.271-.342c-.398-1.297-1.16-2.506-1.47-3.819l.164-.185q3.729-.212 7.46-.067c.28.678.517 1.343.681 2.059.141.614.375 1.925.025 2.481zm22.749 15.307c-1.727.05-7.252-1.237-8.992-1.86 1.886-.058 7.056 1.32 8.992 1.86m29.613 19.507q-.026-2.984.006-5.968c1.532.102 3.965-.311 5.304.484.578.343.916.88 1.046 1.532.256 1.28-.076 2.264-.796 3.31-1.3.921-4.012.627-5.56.642m-47.694 5.75c.441-2.592 1.233-6.425 2-8.904.454.652 1.879 7.673 2.187 8.916l-1.924-.006zm73.77-.286c.543-2.795 1.176-5.643 1.943-8.385.694 1.768 1.489 6.329 1.993 8.461l-1.825.039c-.707.012-1.406-.055-2.11-.115m-26.033 5.907q-.026-3.192-.01-6.384c1.716-.019 4.404-.4 5.856.59.658.449.987 1.143 1.109 1.913.196 1.243.106 2.186-.655 3.222-1.51 1.15-4.452.681-6.3.659m-78.032 22.359c1.204.533 2.378 1.183 3.546 1.793 1.152.603 2.589 1.085 3.876.64 2.796-.967-.305-4.231.582-5.957.337-.653 1.12-1.206 1.815-1.409 1.159-.339 2.453-.13 3.552.317 5.16 2.097 6.453 8.07 11.01 10.516 1.55.832 3.396.879 5.058.367 1.708-.526 3.581-1.631 4.4-3.276.935-1.88.058-3.216-.505-4.996-.23-.727-.297-1.599.093-2.285.426-.753 1.205-1.032 1.994-1.246l.175-.046c7.936.456 6.46 10.154 12.284 12.37 1.803.686 4.065.546 5.785-.304 4.01-1.982 3.45-5.49 4.674-8.959.388-1.1 1.053-2.382 2.18-2.863a2.36 2.36 0 0 1 1.915.012c2.58 1.136 2.428 5.442 3.311 7.742.702 1.83 1.99 3.436 3.827 4.217 1.174.499 2.656.67 3.92.505 6.705-.875 5.666-10.206 11.68-12.36 1.007-.36 2.15-.481 3.129.032 3.291 1.727-.561 4.907.367 7.558.585 1.672 2.108 2.963 3.686 3.669 1.166.521 2.383.718 3.655.652 7.02-.362 8.234-9.651 14.27-11.787.931-.33 2.328-.526 3.243-.05 2.133 1.111.27 4.516.85 6.362.144.457.388.881.836 1.095 1.618.771 6.442-1.357 8.197-1.929-4.905 3.927-12.755 7.488-18.63 9.762-5.748 2.177-11.643 4.143-17.637 5.528-2.204.51-4.439.85-6.671 1.209q-1.874.316-3.757.569t-3.773.443-3.786.317-3.794.19-3.8.063-3.798-.064-3.794-.191-3.787-.319q-1.387-.137-2.77-.308t-2.763-.375-2.753-.44q-1.374-.238-2.742-.507-1.368-.27-2.729-.572t-2.714-.637q-1.354-.334-2.699-.701t-2.68-.766-2.662-.83q-1.326-.43-2.641-.893-1.316-.462-2.62-.956-1.303-.494-2.595-1.018-1.292-.525-2.57-1.08-1.28-.556-2.544-1.142-1.266-.585-2.516-1.202-1.25-.615-2.487-1.261c-2.578-1.362-5.844-2.917-7.693-5.2"/></svg>