<svg xmlns="http://www.w3.org/2000/svg" viewBox="0 0 256 256"><path d="M120.925 0h13.526c2.692.4 5.459.494 8.167.81q7.3.868 14.462 2.532c23.85 5.59 46.185 18.87 63.054 36.543q5.868 6.27 10.95 13.192.916 1.246 1.802 2.515t1.74 2.559 1.677 2.6 1.613 2.64 1.548 2.68 1.482 2.716q.724 1.367 1.415 2.751.69 1.385 1.347 2.786t1.28 2.817 1.209 2.849q.587 1.431 1.14 2.876t1.069 2.904.997 2.929.927 2.953q.442 1.481.852 2.974.408 1.492.78 2.994t.708 3.012.633 3.029.557 3.043q.262 1.526.485 3.057t.41 3.067q.185 1.535.333 3.076.15 1.54.26 3.083t.182 3.089.107 3.092q.036 1.547.033 3.094-.002 1.548-.042 3.094-.04 1.547-.12 3.092-.078 1.545-.196 3.088-.115 1.543-.27 3.083-.152 1.54-.345 3.075-.19 1.535-.42 3.065c-4.89 32.589-22.503 63.381-49.132 83.029-16.08 11.863-33.554 20.096-53.247 23.924-3.315.643-6.626 1.23-9.984 1.606-2.139.24-4.485.25-6.58.682h-13.949c-2.337-.412-4.826-.447-7.193-.7q-5.66-.653-11.257-1.718C83.507 249.889 64.475 240.66 49 228.418q-1.147-.903-2.272-1.83-1.126-.929-2.23-1.882-1.104-.954-2.187-1.932t-2.142-1.98-2.096-2.03-2.05-2.075q-1.014-1.05-2.003-2.122-.989-1.073-1.953-2.167-.965-1.095-1.904-2.211-.94-1.117-1.853-2.254t-1.801-2.295-1.749-2.335-1.695-2.375-1.641-2.412-1.586-2.45q-.778-1.233-1.53-2.484-.75-1.25-1.472-2.518t-1.415-2.552-1.356-2.583-1.298-2.613-1.238-2.642-1.178-2.67q-.573-1.34-1.116-2.695t-1.055-2.72q-.513-1.366-.993-2.743-.481-1.377-.93-2.765t-.868-2.786-.804-2.804-.74-2.823-.676-2.838-.61-2.853-.546-2.866Q.87 143.878.416 137.557c-.157-1.968-.16-4.005-.4-5.954L0 131.479v-7.453c.394-2.163.35-4.564.543-6.77.275-3.135.777-6.232 1.301-9.335q.32-1.912.698-3.814t.812-3.791.926-3.766q.492-1.875 1.04-3.735t1.152-3.703 1.264-3.665 1.373-3.626q.714-1.803 1.482-3.583.769-1.78 1.59-3.537t1.696-3.486 1.8-3.434q.927-1.704 1.904-3.379.977-1.674 2.005-3.319 1.027-1.644 2.104-3.257 1.076-1.612 2.201-3.192 1.125-1.579 2.297-3.124C43.68 28.163 69.664 10.397 98.09 3.492q7.492-1.805 15.144-2.733c2.554-.307 5.146-.394 7.69-.759m4.276 2.808q-1.52.045-3.037.126-1.517.082-3.033.2-1.515.119-3.027.274t-3.02.348-3.01.421-2.998.494-2.986.567-2.972.64-2.955.712-2.936.784-2.917.855-2.895.926q-1.442.48-2.872.996t-2.846 1.066-2.82 1.135-2.791 1.203-2.761 1.27q-1.373.653-2.73 1.339T69.9 17.567t-2.661 1.47q-1.322.75-2.624 1.533t-2.586 1.597-2.547 1.66q-1.263.845-2.505 1.72-1.242.877-2.462 1.782-1.221.906-2.419 1.841t-2.373 1.9-2.326 1.956-2.277 2.013-2.228 2.068-2.177 2.121-2.124 2.174q-1.1 1.13-2.171 2.287t-2.113 2.34q-1.041 1.184-2.053 2.393-1.012 1.21-1.993 2.444t-1.93 2.492-1.869 2.54-1.803 2.587q-.885 1.304-1.738 2.63-.852 1.327-1.671 2.674t-1.604 2.715q-.785 1.367-1.536 2.754-.75 1.386-1.465 2.791t-1.396 2.828-1.324 2.862-1.252 2.893-1.178 2.925-1.106 2.953-1.03 2.98-.956 3.005-.88 3.027-.804 3.049q-.383 1.53-.727 3.068t-.65 3.086-.572 3.1-.495 3.114-.416 3.126-.338 3.135q-.149 1.569-.259 3.142t-.18 3.148-.1 3.151q-.032 1.576-.023 3.153t.057 3.153c.148 6.532 1.097 13.181 2.403 19.576q.237 1.175.497 2.346.26 1.17.543 2.336.282 1.165.587 2.325t.632 2.313.677 2.301.72 2.287.764 2.273.808 2.258q.415 1.126.851 2.243t.894 2.225.937 2.207q.478 1.1.978 2.19t1.021 2.17 1.062 2.15 1.104 2.129 1.144 2.108q.582 1.048 1.184 2.085t1.224 2.062 1.264 2.038q.642 1.014 1.302 2.014.661 1 1.341 1.988t1.38 1.962q.698.975 1.416 1.935.717.961 1.453 1.908.736.946 1.49 1.879t1.526 1.85 1.56 1.821 1.596 1.79 1.63 1.76q.823.871 1.663 1.727t1.696 1.696 1.728 1.662q1.105 1.055 2.236 2.083 1.13 1.029 2.285 2.029t2.334 1.972q1.18.971 2.382 1.914t2.427 1.856 2.472 1.797 2.515 1.735 2.556 1.674 2.596 1.611q1.309.79 2.636 1.548 1.326.758 2.671 1.483t2.707 1.417 2.74 1.351q1.38.66 2.774 1.284 1.394.625 2.803 1.216t2.832 1.148 2.859 1.078 2.885 1.008 2.908.938 2.93.867 2.95.795 2.97.722q1.488.346 2.985.653 1.496.305 3 .577 1.504.27 3.014.503 1.51.235 3.025.433 1.515.197 3.035.357t3.042.282 3.049.21q1.525.085 3.052.133 1.528.05 3.056.063 1.528.01 3.055-.016 1.54-.047 3.077-.132 1.537-.088 3.072-.21 1.535-.123 3.066-.282 1.532-.16 3.059-.358t3.048-.433 3.038-.507 3.024-.58q1.508-.31 3.009-.655t2.992-.726 2.974-.8 2.953-.872 2.931-.944q1.46-.489 2.907-1.014t2.882-1.085 2.855-1.155 2.825-1.225 2.795-1.292q1.39-.664 2.762-1.361t2.729-1.428q1.355-.73 2.692-1.493t2.656-1.558q1.319-.796 2.617-1.624 1.299-.827 2.577-1.685 1.278-.86 2.535-1.749 1.256-.89 2.491-1.81t2.447-1.87 2.4-1.928q1.189-.98 2.353-1.987t2.303-2.043 2.253-2.1 2.202-2.153q1.087-1.09 2.148-2.206.779-.822 1.543-1.658.764-.837 1.514-1.687.748-.85 1.482-1.713.733-.864 1.45-1.74.718-.877 1.42-1.767.701-.89 1.386-1.791.685-.903 1.354-1.817.669-.915 1.32-1.841.653-.927 1.288-1.865t1.253-1.888 1.218-1.91 1.184-1.932 1.148-1.953 1.112-1.974 1.076-1.993q.53-1.002 1.04-2.013.512-1.011 1.004-2.032.492-1.02.966-2.05.474-1.028.929-2.066t.891-2.083q.436-1.046.853-2.099t.815-2.114q.398-1.06.776-2.129.379-1.067.738-2.142t.698-2.155.66-2.168.619-2.18.58-2.19.54-2.2.5-2.21.459-2.218.42-2.227q.565-2.985.975-5.995.412-3.01.67-6.037.257-3.027.36-6.063t.05-6.074q-.053-3.014-.248-6.022-.194-3.008-.532-6.004-.34-2.995-.82-5.971-.483-2.976-1.105-5.925c-5.092-23.633-18.202-47.492-35.836-64.11q-3.835-3.678-7.949-7.04t-8.483-6.385q-.991-.685-1.995-1.35t-2.022-1.311-2.048-1.271-2.071-1.23-2.096-1.19q-1.053-.585-2.118-1.15-1.065-.563-2.14-1.106t-2.162-1.065q-1.086-.522-2.182-1.022t-2.202-.98-2.22-.936-2.238-.892-2.256-.848q-1.132-.414-2.272-.804t-2.286-.76q-1.148-.368-2.302-.714t-2.315-.67q-1.16-.323-2.327-.623t-2.34-.578-2.35-.532q-1.177-.255-2.36-.486t-2.37-.44-2.377-.393q-1.19-.185-2.384-.346-1.194-.162-2.391-.3t-2.397-.253q-1.199-.114-2.4-.206-1.202-.09-2.405-.158t-2.407-.112-2.409-.064-2.41-.018-2.409.03"/><path d="M129.637 251.643q-1.448.01-2.896-.013t-2.895-.08-2.892-.15q-1.445-.09-2.887-.215-1.443-.125-2.882-.285-1.44-.157-2.874-.35-1.436-.193-2.866-.42-1.43-.225-2.855-.485-1.424-.26-2.842-.552t-2.829-.619-2.814-.685q-1.403-.36-2.796-.751-1.394-.392-2.779-.816-1.384-.424-2.758-.881t-2.737-.946-2.714-1.009-2.69-1.073-2.664-1.135-2.636-1.198q-1.312-.614-2.608-1.259t-2.578-1.32q-1.28-.675-2.545-1.38t-2.513-1.439-2.479-1.498-2.442-1.555-2.405-1.612-2.367-1.668-2.328-1.724q-1.153-.875-2.286-1.777t-2.244-1.83-2.2-1.883-2.156-1.933q-1.123-1.017-2.222-2.06t-2.17-2.115q-1.073-1.07-2.119-2.167-1.045-1.097-2.064-2.219-1.018-1.122-2.009-2.268-.99-1.147-1.952-2.318-.962-1.17-1.895-2.365-.933-1.194-1.836-2.41-.904-1.217-1.777-2.455-.873-1.239-1.715-2.498t-1.654-2.54-1.59-2.579q-.78-1.3-1.527-2.618t-1.462-2.654q-.714-1.336-1.396-2.69t-1.33-2.723-1.261-2.755-1.194-2.785-1.125-2.814q-.546-1.413-1.056-2.84t-.985-2.866-.915-2.889-.843-2.91q-.404-1.461-.771-2.931-.368-1.47-.7-2.949-.33-1.478-.626-2.964-.295-1.487-.553-2.98t-.48-2.992-.406-3.003-.332-3.012-.258-3.02-.183-3.024q-.059-1.512-.08-3.024t-.006-3.025q.016-1.512.069-3.024.052-1.511.142-3.021t.216-3.017q.126-1.508.29-3.011.162-1.504.362-3.003t.437-2.993.51-2.982.581-2.968q.31-1.48.655-2.953t.726-2.937.798-2.917.87-2.897.94-2.876 1.01-2.851 1.078-2.826 1.148-2.798q.591-1.392 1.216-2.77.625-1.377 1.283-2.739.659-1.362 1.35-2.707t1.416-2.673 1.48-2.638q.757-1.31 1.545-2.6t1.608-2.562 1.67-2.523 1.73-2.48 1.792-2.437q.91-1.209 1.85-2.393.94-1.186 1.908-2.347.968-1.163 1.965-2.3.997-1.138 2.02-2.251.84-.927 1.697-1.836.858-.91 1.734-1.801.876-.892 1.769-1.767.894-.874 1.805-1.73t1.838-1.694 1.873-1.656 1.905-1.618 1.937-1.58 1.969-1.541 1.999-1.501 2.029-1.46 2.058-1.42 2.086-1.378 2.113-1.336q1.063-.657 2.14-1.292 1.076-.636 2.165-1.25t2.19-1.206 2.213-1.162 2.236-1.117 2.259-1.072 2.28-1.027 2.299-.98 2.319-.934 2.337-.888 2.354-.84 2.371-.793 2.386-.745 2.401-.697 2.415-.649 2.427-.6 2.438-.551 2.449-.502c6.718-1.262 13.469-1.786 20.285-2.093q.216-.012.433-.016 1.49-.012 2.98.013 1.49.024 2.98.085 1.489.06 2.976.157t2.972.23 2.965.303 2.956.374q1.477.206 2.947.447t2.935.518 2.922.59 2.906.66q1.449.348 2.889.732 1.44.383 2.87.801t2.851.871 2.828.94 2.805 1.01q1.395.521 2.779 1.077t2.751 1.144q1.37.59 2.724 1.211 1.354.623 2.692 1.278t2.661 1.342 2.628 1.407 2.592 1.47q1.287.752 2.556 1.534 1.268.782 2.517 1.595 1.25.813 2.478 1.656 1.23.843 2.437 1.716 1.208.873 2.395 1.775 1.186.902 2.35 1.832 1.164.931 2.305 1.89t2.258 1.945 2.21 2 2.161 2.052q5.774 5.553 10.814 11.78.809 1 1.596 2.018.788 1.018 1.554 2.051.767 1.034 1.511 2.083.745 1.05 1.468 2.114.722 1.064 1.422 2.144.701 1.08 1.379 2.173.678 1.094 1.332 2.201.655 1.108 1.287 2.229t1.24 2.255 1.192 2.28q.585 1.146 1.145 2.305.56 1.158 1.097 2.328t1.048 2.35.999 2.371.95 2.392.899 2.411.849 2.43q.412 1.218.798 2.446.387 1.227.748 2.462.36 1.235.695 2.477.335 1.243.645 2.492.309 1.249.591 2.504.284 1.255.54 2.516.257 1.26.488 2.527.23 1.266.435 2.536.204 1.27.381 2.545.179 1.274.329 2.552.153 1.278.275 2.559.125 1.28.223 2.563.1 1.283.17 2.568t.115 2.57q.044 1.287.062 2.573c.315 31.796-12.136 63.967-34.485 86.695q-2.345 2.403-4.809 4.684-2.463 2.28-5.04 4.433t-5.258 4.17q-2.683 2.019-5.465 3.899c-19.325 12.91-43.137 20.68-66.421 20.888m-6.11-240.492q.635 6.963 1.107 13.94c.159 2.15.227 4.341.509 6.478l-1.487.133q-.543-6.897-1.004-13.8c-.163-2.206-.25-4.461-.562-6.65-1.505.119-3.039.131-4.534.329.367 1.985 3.584 19.765 3.268 20.664-.241.234-.359.278-.69.326-.356-.171-.507-.346-.641-.723-.43-1.208-.79-4.972-1.046-6.565-.724-4.5-1.738-9.028-2.212-13.554-1.414.173-2.9.276-4.294.56q2.064 7.074 4.031 14.175c.493 1.809 1.16 3.701 1.509 5.538.082.435.086.763-.055 1.181l-.213.211c-.318-.035-.471-.099-.692-.343-.725-.803-5.428-18.376-5.977-20.6-1.741.307-3.517.556-5.242.94l5.608 13.991 1.802 4.572c.228.575.561 1.116.762 1.7.109.319.12.57.077.901-.222.314-.28.35-.63.513-.318-.055-.451-.084-.63-.372-.627-1.017-1.784-4.466-2.318-5.798-2.016-5.03-4.26-10.06-5.967-15.202-1.784.398-3.565.796-5.331 1.273 1.545 3.136 11.042 20.107 11.025 21.782-.184.335-.19.41-.529.573-.414-.103-.63-.375-.847-.722-.889-1.418-1.471-3.08-2.256-4.566-.79-1.497-1.65-2.957-2.433-4.459-2.127-4.078-4.138-8.213-6.43-12.208a64 64 0 0 0-5.106 1.58c3.444 5.687 7.224 11.166 10.84 16.744 1.045 1.611 2.325 3.197 3.259 4.856.171.304.142.491.078.82-.219.253-.347.374-.66.493-.104-.03-.217-.036-.311-.089-.836-.47-12.64-19.443-14.656-22.322q-2.413.88-4.802 1.826c3.832 5.55 8.213 10.865 12.413 16.145 1.462 1.839 3.52 4.076 4.786 5.965.211.315.303.575.297.958-.153.276-.172.32-.447.469-.469-.013-.784-.289-1.093-.615-1.063-1.124-2.002-2.53-2.985-3.74q-4.197-5.217-8.29-10.516c-2.01-2.653-3.982-5.539-6.23-7.99-1.918.858-3.89 1.666-5.763 2.616C84 28.16 89.754 33.453 95.124 39.146c1.114 1.181 3.172 3.082 3.99 4.314.18.27.236.482.249.81-.139.291-.161.358-.425.536-.445-.043-.738-.285-1.054-.584-.785-.744-1.468-1.594-2.216-2.374l-5.653-5.854c-4.18-4.331-8.526-8.586-12.87-12.756-1.546.71-3.015 1.557-4.481 2.419 2.225 2.097 4.725 3.914 7.082 5.86 5.296 4.374 10.61 8.794 15.463 13.662-.535.117-1.038.265-1.588.184-1.678-1.148-3.132-2.631-4.622-4.01-1.238-1.145-2.51-2.234-3.796-3.325q-3.935-3.353-7.947-6.614c-1.992-1.633-4.059-3.26-5.931-5.027q-1.014.581-2.016 1.182-1.002.6-1.992 1.22t-1.967 1.258-1.944 1.296-1.917 1.334-1.892 1.37-1.865 1.407-1.837 1.443-1.809 1.477-1.78 1.513-1.75 1.547q-.868.781-1.72 1.58-.853.798-1.69 1.613-.837.814-1.658 1.645-.82.831-1.626 1.678-.804.846-1.592 1.708-.789.862-1.56 1.739-.772.877-1.526 1.769t-1.491 1.798-1.456 1.826-1.421 1.854-1.384 1.881-1.348 1.908-1.311 1.934-1.273 1.958-1.235 1.983-1.197 2.006-1.157 2.029-1.118 2.05-1.078 2.073-1.038 2.093q-.508 1.051-.997 2.112c-2.542 5.546-4.452 11.281-6.281 17.09 2.605.675 5.182 1.312 7.856 1.649 9.735 1.228 19.559-1.051 28.651-4.385 2.03 2.62 5.528 3.632 8.692 4.033 8.288 1.052 17.05-1.629 24.57-4.887.66 1.668 1.883 2.554 3.496 3.244 6.784 2.901 17.996 1.833 24.894-.514.152.703.323 1.404.37 2.123q-3.23 1.02-6.574 1.55c-.95.16-1.997.181-2.92.41-.38.094-.51.24-.736.542-.035.373-.029.422.136.758.454.334.913.26 1.438.178 3.05-.479 5.963-1.06 8.935-1.9.446 10.492-1.116 20.849-8.51 28.927-2.8 3.059-6.208 5.856-10.305 6.889-2.687.677-3.249.41-5.852 2.021 1.384.004 5.116-.64 6.104-.062.179.3.242.376.186.74-.311 2.05-4.978 4.633-4.822 6.091.263.323.709.383 1.104.422 2.787.273 7.128-1.467 9.2-3.276.723-.631 1.703-1.936 2.656-2.074.352.1.37.122.601.407.189.712-.082 1.294-.438 1.91-4.524 7.823-10.678 12.214-19.381 14.42-3.43.87-8.116 1.567-11.341-.34-.78-.46-1.466-1.066-2.153-1.652-2.698.83-5.227 1.515-8.082 1.394-4.797-.203-11.964-4.164-16.213-2.63.26.296.532.628.874.833 1.39.831 5.196 1.685 7.107 2.508q1.237.521 2.417 1.16t2.292 1.389c3.008 2.014 6.367 5.35 10.167 5.549 4.307.225 10.788-5.621 14.933-7.59q.686-.322 1.39-.602t1.424-.517 1.453-.429 1.476-.339 1.495-.248q.75-.1 1.506-.156t1.514-.063q.758-.009 1.514.029c1.352.07 3.263-.004 4.438.684q.113.296.212.596c3.343 1.055 6.389 2.264 9.368 4.15 2.363 1.495 4.44 3.38 6.754 4.948 5.99 4.059 12.34 4.782 18.877 1.398 3.13-1.62 5.634-4.031 8.54-5.97 2.486-1.657 5.126-2.599 7.962-3.463.848-.258 1.561-.806 2.406-1.043 4.169-1.17 9.412-.813 13.512.455 1.62.501 3.177 1.16 4.707 1.886 6.11-.843 12.084-2.82 16.94-6.706.619-.495 1.304-1.25 2.145-.769.264.37.23.694.161 1.12-.175 1.106-.89 2.814-.212 3.824.549.817 1.982.983 2.888 1.114 5.869.849 11.745-1.652 16.354-5.126a18 18 0 0 0 2.294-2.03c-1.648-.302-3.637-.627-4.66-2.124-.245-.36-.433-.769-.598-1.17-3.829 1.066-6.926 2.071-10.622.008-1.33-.743-2.597-1.794-3.415-3.09-3.937 2.988-8.935 5.782-14.074 5.053-1.268-.18-2.407-.638-3.198-1.687-.406-.54-.61-1.202-.746-1.856-7.323 5.14-13.734 7.276-22.67 7.625l-.671-1.89c7.905.162 14.42-1.834 20.97-6.241.94-.664 2.911-2.517 4.015-2.407.185.018.262.145.393.264.369 1.237-1.03 2.87 1.012 3.942 1.723.905 4.922.367 6.702-.248 1.98-.683 4.582-1.835 6.114-3.287.765-.725 1.385-1.594 2.126-2.34.292-.293.609-.386.992-.14.746.478.68 1.933 1.118 2.671 1.067 1.797 4.469 3.141 6.475 3.004 2.342-.161 3.594-1.768 5.581-2.617 2.29-.978 4.704-1.758 7.02-2.7-1.969.199-5.268.868-6.87-.495-.956-.814-1.296-2.062-1.642-3.219-3.433.994-8.122 2.63-11.513.724-1.83-1.028-2.596-2.6-3.29-4.465-3.53 3.219-9.042 5.77-13.68 6.767-2.363.508-4.702.657-7.04 1.368-3.064.93-8.73 3.277-11.696 3.218-.441-.008-.795-.112-1.078-.474-.182-.231-.315-.558-.219-.85.132-.402.554-.774.95-.9 1.9-.606 8.366-1.802 9.27-3.611.092-.183.019-.298-.023-.486-.284-.274-.476-.381-.844-.524-1.471.364-2.407 2.176-4.484 1.097-.203-.273-.292-.403-.256-.754.18-1.745 4.217-3.28 3.349-4.484-.191-.266-.35-.307-.644-.362-1.151.651-2.112 1.819-3.098 2.703-2.678 2.404-6.274 3.962-9.886 2.949-.677-.19-1.688-.534-2.07-1.173-.177-.296-.156-.577-.047-.891.598-1.724 5.32-2.889 5.051-4.501-.222-.258-.336-.355-.663-.454-.816.171-1.645.757-2.398 1.132-1.647.82-3.544 1.692-5.362 2.006q-.578-1.372-1.017-2.795-.44-1.423-.737-2.882c11.653-6.371 22.547-16.526 36.866-12.373 1.98.575 3.811 1.387 5.624 2.358 1.298.697 2.626 1.525 4.019 2.011.6-.27 1.1-.586 1.636-.962-2.195-1.088-4.266-2.407-6.482-3.452-6.596-3.11-13.27-3.507-20.166-1.191-4.901 1.646-9.452 4.278-13.786 7.058-2.678 1.719-5.337 3.639-8.29 4.858-2.88-7.516-5.07-17.15-4.514-25.222 10.973 1.555 23.787.02 33.883-4.661a18 18 0 0 0-1.864-1.165c-9.918 4.1-21.27 6.028-31.936 4.165l.164-2.17c11.06 1.51 21.898.025 32.094-4.546 1.439.832 2.85 1.774 4.38 2.43 5.511 2.362 12.772 2.742 18.545 1.206 1.007-.268 2.088-.58 3.034-1.017 1.123-.52 3.274-2.22 4.35-2.282.454-.026.945.245 1.323.463 1.015.585 1.951 1.332 3.002 1.852 4.474 2.21 9.778 2.488 14.55 1.254 6.44-1.665 10.918-4.673 15.185-9.716-9.687-25.332-26.495-46.673-49.838-60.733-2.06 1.642-19.413 15.542-19.776 15.508-.231-.02-.36-.145-.54-.276-.1-.327-.115-.462.052-.773.721-1.339 16.422-12.985 18.886-15.324-1.275-.75-2.548-1.488-3.858-2.174q-7.046 6.694-14.421 13.024c-1.617 1.383-3.221 3.008-4.943 4.244-.355.255-.779.553-1.228.588-.184.014-.228-.077-.362-.183-.05-.293-.092-.567.064-.84.414-.721 2.487-2.25 3.216-2.894 3.77-3.325 7.599-6.586 11.321-9.964 1.634-1.484 3.476-2.963 4.863-4.683-1.42-.77-2.851-1.574-4.344-2.198-3.993 4.566-8.173 8.958-12.309 13.393l-4.147 4.44c-.645.703-1.23 1.481-1.927 2.135-.362.339-.735.678-1.24.763-.191-.098-.248-.069-.315-.294q-.02-.07-.034-.14-.014-.072-.019-.144-.006-.072-.004-.145.003-.072.012-.144t.028-.142q.017-.07.041-.138.025-.068.057-.133t.07-.127c.951-1.519 4.049-4.43 5.406-5.855 4.39-4.61 8.967-9.216 13.036-14.114q-2.373-1.116-4.827-2.042c-1.168 1.873-2.599 3.608-3.928 5.368q-3.364 4.495-6.837 8.906c-1.669 2.114-3.287 4.49-5.14 6.438-.3.316-.757.752-1.193.873-.195.053-.221.048-.402.06-.151-.1-.252-.104-.28-.3-.056-.39.144-.788.342-1.113.53-.866 1.334-1.66 1.985-2.442q1.833-2.19 3.597-4.437 3.4-4.374 6.754-8.785c1.131-1.503 2.19-3.136 3.414-4.558q.21-.242.433-.473c-1.573-.753-3.263-1.326-4.909-1.9-3.789 5.861-7.23 11.951-10.995 17.834-.768 1.199-1.446 2.569-2.257 3.714-.15.21-.29.326-.531.414-.324-.102-.381-.136-.537-.468-.184-.39-.077-1 .116-1.367.403-.764.98-1.5 1.457-2.224q1.187-1.817 2.334-3.66c3.024-4.838 6.053-9.706 8.938-14.627q-2.27-.853-4.59-1.56l-.066.103c-1.27 2.035-2.193 4.49-3.207 6.668-1.74 3.738-3.587 7.418-5.364 11.138-.556 1.163-.991 2.433-1.57 3.571-.144.283-.298.353-.582.461-.35-.065-.473-.128-.724-.381-.181-.513-.07-.856.155-1.331l6.887-14.298c1.022-2.1 1.978-4.244 3.048-6.32q-2.328-.574-4.68-1.04c-1.58 4.981-3.565 9.868-5.457 14.738-.747 1.924-1.36 4.134-2.324 5.949-.216.407-.46.765-.862 1.006l-.306-.139c-.224-.688-.18-1.286.013-1.98.46-1.661 1.335-3.322 1.968-4.938q1.754-4.504 3.448-9.031c.725-1.922 1.513-3.844 2.103-5.81l-3.792-.764c-.573 2.141-5.754 20.846-5.97 21.111-.048.06-.125.088-.188.132-.398-.106-.702-.179-1.025-.453-.112-.357-.03-.687.055-1.042.783-3.277 1.944-6.512 2.894-9.746 1.004-3.41 1.818-6.88 2.865-10.276-1.58-.205-3.162-.433-4.745-.611-.659 4.469-1.659 8.907-2.556 13.333-.242 1.196-.526 2.387-.747 3.586-.172.933-.264 1.935-.535 2.841a2.2 2.2 0 0 1-.49.915c-.322.146-.465.109-.8.045-.247-.283-.19-.475-.165-.85.113-1.623.903-4.586 1.253-6.38.882-4.517 1.656-9.1 2.679-13.584q-2.18-.243-4.374-.272c-.269 3.915-.773 7.814-1.094 11.726-.211 2.585-.211 5.284-.533 7.846-.044.348-.07.562-.292.829-.338.028-.546.036-.876-.066-.252-.327-.287-.637-.3-1.039-.065-1.967.274-4.067.431-6.032.359-4.463.718-8.954 1.236-13.401-1.364-.013-2.73-.046-4.093-.022l-.034 13.366c-.005 2 .13 4.068-.005 6.055-.02.314-.01.528-.229.758-.343.049-.605.073-.952.002-.238-.276-.32-.47-.348-.84-.12-1.547.059-3.406.055-5.003l.063-14.394c-1.48.009-2.966-.013-4.444.034m115.822 78.16c-.85.918-1.612 1.91-2.448 2.84-3.38 3.77-7.043 6.568-11.954 8.012-1.46.43-3.018.892-4.535 1.013.516.361 1.045.712 1.536 1.106.743.462 1.526.254 2.34.066 5.674-1.312 12.479-5.964 15.457-11.007.278-.47.506-.911.365-1.464-.238-.303-.364-.47-.761-.567M84.157 96.873c-4.37 1.506-8.66 3.048-13.244 3.793-1.187.192-5.78.425-6.408.828-.125.29-.14.455-.027.761.15.41.336.452.703.61 5.519-.117 11.029-1.516 16.204-3.365.947-.338 2.568-.823 3.29-1.556a.84.84 0 0 0 .26-.477.95.95 0 0 0-.545-.53c-.075-.029-.155-.043-.233-.064m119.106.254c-4.012 2.818-8.346 3.726-13.17 4.046-.671.044-1.78-.076-1.993.756.116.331.348.589.684.728.264.11.593.084.874.081 5.133-.17 11.16-.944 15.02-4.711-.47-.303-.936-.612-1.415-.9m-152.254.37c-11.051 3.948-24.721 6.243-35.945 1.7-.159.554-.326 1.108-.47 1.666.408.194.819.417 1.246.563q1.34.427 2.706.762t2.751.576 2.784.388 2.804.196c7.752.318 18.823-1.37 25.876-4.707-.549-.396-1.119-.9-1.753-1.144m176.448 14.373-.093.094c-1.2 1.254-1.658 3.229-2.742 4.645-3.72 4.86-11.534 6.668-17.311 6.858-3.286.108-7.027-.148-10.05-1.549-.45.403-.89.792-1.28 1.256 6.1 3.047 14.653 2.394 20.953.314q.142-.048.282-.1c5.07-1.898 8.521-4.433 10.899-9.35 4.404 4.624 8.905 7.46 15.46 7.623l.578.011-.016-1.619c-5.062-.282-10.04-2.015-13.497-5.913-.578-.651-1.499-2.222-2.435-2.277-.25-.015-.499-.003-.748.007m-190.021 5.305q-1.399.11-2.79.296-1.39.184-2.77.441-1.38.258-2.743.587-1.364.33-2.709.73-1.344.402-2.666.873-1.322.47-2.617 1.01t-2.56 1.148-2.496 1.28c-1.781.963-3.627 2.036-5.196 3.317.039.66.09 1.32.085 1.98 1.902-1.283 3.783-2.575 5.801-3.673 9.775-5.315 21.368-7.697 32.386-5.598 3.594.685 7.328 1.966 10.407 3.976l.1.163c-1.659.674-11.846-.563-14.492-.559q-1.24-.004-2.479.064-1.239.069-2.471.21-1.233.142-2.455.357-1.221.214-2.429.5c-1.026.24-2.905.58-3.41 1.629-.097.202-.065.205-.055.441.194.24.337.364.656.41.992.143 3.39-.836 4.466-1.066 1.327-.283 2.62-.499 3.973-.594q2.948-.226 5.903-.118c3.291.12 13.57 1.32 15.956-.254.127-.282.14-.355.023-.668-.16-.434-.8-.866-1.167-1.14-2.693-2.014-5.773-3.267-8.976-4.22-4.852-1.446-10.23-1.93-15.275-1.522m158.697 2.669c-2.805 2.6-6.502 3.709-10.299 3.58-1.77-.059-3.514-.445-5.27-.653-2.516-.299-4.961-.142-7.459.2-.89.121-2.224.236-2.902.887-.189.181-.205.293-.262.537.133.29.285.483.594.615.072.03.15.048.225.072 2.564-.421 5.078-.8 7.689-.706 2.404.087 4.744.69 7.138.833 3.42.204 7.081-.451 9.801-2.643.439-.353.94-.726 1.266-1.19.218-.308.308-.522.284-.909-.233-.356-.423-.445-.805-.623m-122.355 1.522c-1.088.828-2.085 1.775-3.207 2.557-4.382 3.053-9.106 3.735-14.315 3.533-.637-.025-1.94-.162-2.29.484.031.344.21.553.46.776.689.614 6.106.265 7.188.16 5.234-.51 8.746-2.592 12.778-5.762 1.263.947 2.443 1.986 3.82 2.768 5.894 2.903 12.353 1.462 18.3-.56.721-.245 2.01-.54 2.402-1.243.183-.33.168-.444.126-.802-.23-.243-.35-.353-.696-.383-.334-.03-5.234 1.707-6.224 1.967-2.647.695-5.581 1.145-8.319.95-2.667-.19-4.893-1.26-7.003-2.858-.62-.47-1.346-1.163-2.054-1.466-.298-.127-.647-.132-.966-.121m170.418 1.718c-1.584 2.054-3.115 4.167-5.091 5.87-4.623 3.985-12.625 6.187-18.68 6.966q-3.578.429-7.175.621c-1.232.074-2.484.076-3.708.229.21.548.404 1.109.64 1.646 1.416.13 2.894.01 4.312-.07 4.494-.252 8.704-.868 13.035-2.118-1.409 1.295-2.797 2.63-4.357 3.744-3.8 2.703-7.578 5.081-11.998 6.66.364.296.728.608 1.172.775 1.57.589 4.589.323 6.285.138 6.144-.67 7.348-3.849 11.737-7.43 4.296-3.506 8.447-5.147 13.868-6.006.138-1.413.503-10.368-.016-11.001zM74.23 125.841c-5.27 4.048-10.114 5.143-16.686 4.271-1.289-.17-5.362-1.391-6.333-.681-.318.233-.469.567-.485.954-.025.59.22 1.174.62 1.602q.157.169.345.302t.399.225c.866.37 1.868.546 2.766.852 1.96.669 3.816 1.509 5.855 1.93q1.168.237 2.354.355 1.187.119 2.38.117c3.538.006 7.137-.64 9.99-2.84.57-.392.865-.545 1.566-.415.17.031.269.085.399.197.097.307.138.516-.004.825-.216.466-.643.948-.937 1.377.508 1.211 1.092 2.041 2.349 2.583 3.01 1.297 7.123.153 9.968-1.055 2.158-.915 5.183-2.765 6.126-5.026.172-.412.317-1.016.158-1.455-.118-.324-.302-.38-.585-.528-1.274.022-2.58.612-3.846.82-3.452.568-8.114-.349-11.33-1.633-.975-.389-2.043-.844-2.943-1.385-.665-.4-1.418-1.156-2.126-1.392m117.263.464c-2.224.187-6.895-.005-8.612.664-1.108.432-2.1 1.173-3.163 1.71 1.501 2.75 4.216 5.823 6.864 7.513a14 14 0 0 0 2.791-1.741c.814-.653 3.565-3.739 4.33-3.834.319.126.434.218.575.541.774 1.78.1 3.644 2.586 4.793 1.794.83 4.014.304 5.863-.028 6.146-1.511 11.092-3.879 14.548-9.507l.08-.134c-1.638.403-3.29.658-4.98.698-1.12.026-2.385-.106-3.483.095-.832.153-1.721.862-2.566 1.158-3.536 1.242-8.453 1.963-11.886-.014-.655-.378-2.307-2.004-2.947-1.914m-14.77 2.502c-.39.439-.657.792-.596 1.412.198 2.005 4.44 5.954 6.11 7.197.258.192.45.23.78.213.275-.21.589-.36.719-.685-1.838-1.778-3.845-3.218-5.149-5.486-.518-.902-.812-2.336-1.864-2.651m-135.921 4.369c-2.428.162-4.83.43-7.21.949-6.82 1.488-16.105 5.34-21.531 9.781q.119.971.263 1.939c5.658-3.792 10.995-6.807 17.536-8.889 8.28-2.421 18.827-3.469 26.656.785 1.189.646 3.618 2.51 4.902 2.224.212-.048.275-.158.423-.303.06-.271.097-.183-.031-.381-.31-.478-1.057-.894-1.53-1.213-3.387-2.284-7.481-3.937-11.511-4.564-2.516-.392-5.42-.604-7.968-.328m34.188 2.59c-4.346 1.887-8.58 2.484-13.295 1.793 1.454 1.059 5.412 3.522 5.865 5.124-.068.207-.029.234-.238.344-.939.49-2.903-.219-3.852-.576-2.852-1.072-5.438-2.703-8.394-3.57-8.296-2.43-18.641-.08-26.362 3.397-.66.297-1.648.696-1.943 1.405a.56.56 0 0 0 .023.5c.166.299.351.37.647.48 1.699-.297 3.307-1.417 4.907-2.053 2.42-.962 5.008-1.64 7.557-2.15 5.052-.96 10.618-1.446 15.597.094.925.286 1.934.617 2.735 1.176.479.334 1.015.788 1.127 1.392.052.277.04.585.038.866 3.48.615 6.945 1.624 10.484.662 1.501-.408 3.964-2.004 4.87-2.163.364-.065.662.15.894.392.035.415-.103.69-.355 1.01-.29.367-.717.649-1.089.93.881 1.192 1.983 1.755 3.447 1.984 4.038.632 8.072-1.235 11.237-3.588 1.185-.882 2.37-1.796 3.363-2.893-1.176.034-2.377.104-3.551.023-1.212-.084-2.409-.331-3.621-.415-2.532-.174-6.649.439-8.723-1.444-.847-.769-.992-1.62-1.319-2.638-.01-.03-.033-.054-.05-.082m168.61 1.156c-5.47.756-10.257 3.627-14.22 7.39-1.411 1.34-2.826 2.96-4.602 3.826-2.347 1.143-5.091 1.424-7.653 1.74-1.538 2.857-4.576 4.763-7.242 6.438.534.6 1.058 1.119 1.731 1.565 2.761 1.407 5.722 1.632 8.686.671 3.185-1.031 5.378-3.72 7.772-5.909 3.864-3.534 9.576-6.614 14.88-6.95.224-1.23 1.302-8.064.914-8.762zm-199.657 5.879c-1.145.082-4.687.267-5.524 1.127-.172.176-.192.508-.143.733.051.236.156.358.309.532.924.353 3.788-.627 5.023-.718q1.371-.095 2.743-.018 1.372.078 2.723.327c2.01.361 10.557 2.869 11.475 4.775.079.162.056.134.04.317-.214.303-.438.411-.794.485-1.682.35-4.882-.415-6.68-.576-2.918-.26-10.522-.122-12.371 2.74-.211.327-.237.581-.15.95.308.212.519.27.895.209 1.008-.166 1.823-.847 2.734-1.247 1.268-.556 3.196-.622 4.56-.666 6.288-.201 11.941 3.678 18.286 2.309 2.433-.525 4.285-1.608 6.555-2.359.396-.13.867-.196 1.238.036.103.253.136.294.018.561-.334.755-1.11 1.275-1.746 1.756.316.268.627.554.969.788 4.793 2.054 10.02.531 14.644-1.322 4.271-1.714 8.474-4.669 11.427-8.244-3.091 1.31-6.733 3.09-10.134 1.784-.624-.24-1.09-.632-1.55-1.105-3.484 2.144-7.813 3.567-11.92 2.608-1.79-.417-3.018-1.381-4.14-2.785-4.553 1.374-7.754 1.78-12.156-.26-.37.16-.867.436-1.27.406-1.184-.09-2.407-.689-3.526-1.07-3.735-1.271-7.538-2.382-11.535-2.073m1.24 3.498c-10.668.914-20.443 6.676-30.557 9.77l.482 1.923q3.346-1.252 6.672-2.556c7.806-3.052 16.117-7.012 24.59-7.5 2.812-.161 5.635.35 8.457.3-2.809-1.55-6.437-2.372-9.645-1.937m196.437 2.112c-5.286.99-9.562 4.01-13.512 7.501-1.156 1.023-2.236 2.229-3.536 3.064-3.9 2.508-10.335 3.208-14.313.513-.881-.597-1.58-1.33-2.193-2.2-4.095 1.537-7.946 2.646-12.373 2.21-1.122-.11-2.306-.279-3.348-.732-.917-.4-1.665-1.042-2.035-1.99-.245-.628-.203-1.316-.19-1.977-4.649 2.85-9.014 4.265-14.325 5.43 1.828 1.228 3.725 2.302 5.655 3.358 3.159 1.855 6.502 3.909 9.877 5.328 4.709-.55 9.625-1.55 13.728-4.049.775-.471 1.454-1.13 2.181-1.675.631-.473 1.228-.87 1.948-.318.126.327.171.516.043.857-.472 1.257-1.462 2.475-.977 3.912.213.628.724 1.052 1.32 1.305 3.193 1.356 9.386-.168 12.426-1.474 6.951-2.986 10.596-9.417 18.679-10.477.58-2.345 1.688-6.206 1.744-8.526-.308-.164-.458-.099-.799-.06m-141.195 10.643c-.159.1-.297.186-.486.219-.947.163-2.245-.066-3.232-.086q-2.14-.025-4.263.247a21.2 21.2 0 0 0-5.743 1.553c-6.261 2.683-11.604 9.157-19.018 7.398-3.824-.909-6.866-3.412-10.13-5.448-7.624-4.757-15.813-5.196-23.589-.448-2.39 1.46-4.582 3.23-6.954 4.716-2.36 1.479-4.867 2.49-7.493 3.385.785 2.203 1.724 4.419 2.82 6.486 7.198-4.847 12.722-9.926 21.941-10.311 2.079-.087 4.184-.02 6.23.378 3.1.604 6.139 1.918 8.777 3.64 5.333 3.482 9.278 8.731 15.968 4.28 1.89-1.256 3.654-2.698 5.572-3.914 6.328-4.012 12.159-4.412 19.364-2.994 3.33.655 6.462 1.793 9.383 3.534 2.936 1.75 5.46 4.049 8.317 5.904 6.582 4.272 13.635 4.107 20.144-.212 1.887-1.253 3.64-2.697 5.505-3.983q.635-.442 1.293-.849t1.338-.777 1.379-.702q.698-.333 1.415-.626.716-.293 1.447-.546t1.476-.467 1.498-.384 1.518-.302l.247-.04c1.176-.193 2.095-.799 3.225-1.045 3.107-.677 7.056-.362 10.115.465 4.055 1.097 7.423 3.803 11.036 5.848 9.383 5.311 30.871 17.123 41.566 14.987 2.18-.435 3.956-1.838 5.702-3.128 1.054-.78 2.634-1.375 3.406-2.419.743-1.002 1.253-2.233 1.802-3.35q1.746-3.531 3.325-7.14c-2.943 1.373-5.349 3.58-8.064 5.323-1.633 1.048-3.424 1.999-5.314 2.482-5.597 1.429-13.352-.43-18.749-2.386-9.252-3.351-17.803-8.552-26.396-13.281-3.229-1.777-5.991-3.909-9.59-5-5.203-1.578-13.406-1.237-18.368 1.08-3.334 1.556-5.932 3.982-8.91 6.059-5.472 3.816-12.5 5.028-18.822 2.77-6.455-2.306-10.406-7.901-17.215-10.191-1.076-.362-2.328-.722-3.473-.725m139.075.953c-4.482 1.415-7.248 3.95-10.898 6.653q-.379.28-.768.547-.39.267-.788.518-.4.252-.808.488t-.826.456q-.417.22-.842.425-.425.204-.858.393-.433.188-.873.359t-.885.326-.897.292-.908.257-.917.224q-.46.102-.924.188-.464.085-.931.152t-.936.117-.94.081-.942.046c-1.889.072-4.285.083-6.006-.81q-.097-.05-.192-.105-.096-.055-.187-.115-.093-.06-.181-.124-.089-.065-.174-.134-.085-.07-.167-.143-.081-.074-.159-.152-.077-.078-.15-.16t-.142-.168q-.069-.085-.132-.174-.064-.09-.124-.182-.059-.092-.113-.188-.055-.095-.104-.194-.049-.097-.093-.198-.044-.1-.082-.204t-.072-.207-.06-.211a8 8 0 0 1-.235-1.598c-3.754 2.105-7.976 3.261-12.215 3.873.657.395 1.309.807 1.991 1.158 6.45 3.206 19.948 8.296 27.019 5.942 2.782-.925 5.116-2.984 7.469-4.668 1.88-1.346 4.077-2.693 6.229-3.558.524-1.32 3.244-8.287 3.057-9.205zm-142.586 9.884c-.161.246-.283.596-.603.642-.702.101-1.559-.024-2.283-.002-2.042.063-4.2.384-6.129 1.07-2.069.736-4.067 1.767-5.925 2.933-3.536 2.22-6.836 5.205-11.218 5.409-6.132.286-9.8-4.597-14.747-7.225-2.773-1.474-5.854-2.168-8.978-2.314q-.646-.03-1.291-.026-.647.004-1.291.044-.645.04-1.286.114-.642.076-1.279.185-.636.11-1.265.254-.63.144-1.25.323-.622.178-1.232.39t-1.207.457c-4.604 1.886-8.708 5.453-13.074 7.916q1.351 2.737 2.894 5.372c6.985-5.412 13.146-8.298 22.18-7.186q.636.078 1.267.19t1.255.256 1.24.322 1.221.387 1.2.449 1.174.512 1.146.573 1.115.631c3.56 2.168 7.027 6.47 11.464 6.581 4.163.105 7.728-3.665 11.048-5.743 4.728-2.959 10.453-4.618 16.06-4.052q.628-3.403 1.356-6.786c12.414.791 16.41 13.697 31.21 12.523 4.527-.36 8.678-2.368 12.242-5.103 1.818-1.393 3.57-2.896 5.553-4.053 3.061-1.786 6.534-2.727 10.062-2.927.694 3.627 1.47 7.244 2.112 10.88 1.095 6.199 2.03 12.421 3.07 18.628 2.897.174 5.708.677 8.408 1.78 2.955 1.209 5.522 3.3 8.287 4.88q5.835 3.266 11.847 6.19c3.196 1.586 6.423 3.242 9.764 4.502 2.072-1.739 4.299-3.505 6.128-5.5-7.817-2.533-15.285-6.164-22.551-9.967-2.563-1.341-5.182-2.64-7.674-4.107-1.89-1.112-3.624-2.468-5.502-3.588-2.559-1.39-5.273-2.349-8.189-2.625q-.265-1.524-.512-3.05c3.013.14 5.74.646 8.55 1.798 2.933 1.203 5.455 3.408 8.209 4.967q8.389 4.702 17.17 8.623c4.378 1.989 8.803 4.097 13.544 5.064 2.32-2.273 4.436-4.677 6.647-7.049-8.5 1.475-30.899-10.492-38.934-14.998-2.993-1.678-5.748-3.925-8.924-5.245-2.41-1.001-5.046-1.599-7.667-1.543-.191-1.005-.4-2.01-.563-3.02 3.407-.052 6.75.25 9.944 1.539 3.447 1.39 6.435 3.887 9.667 5.714 6.137 3.469 34.101 18.636 39.679 13.036 2.507-2.518 4.778-6.367 6.535-9.438-1.079.763-2.153 1.58-3.36 2.13-3.06 1.394-6.96.996-10.17.441-11.2-1.937-24.673-8.995-34.58-14.661-3.83-2.19-7.315-5.047-11.612-6.285-2.372-.684-4.791-.812-7.246-.738-5.326.16-10.165 1.318-14.574 4.438-1.679 1.188-3.258 2.513-4.95 3.684-4.605 3.192-9.653 4.935-15.286 4.025-6.384-1.031-9.774-4.758-14.837-8.12-4.006-2.66-8.273-4.109-13.059-4.501m-51.582 11.54q-.582.03-1.163.086-.58.055-1.157.136-.578.08-1.151.185t-1.142.235q-.568.13-1.13.284t-1.118.333-1.101.38q-.547.203-1.085.429t-1.064.474-1.044.52q-.515.272-1.02.565-.503.293-.994.608-.49.315-.967.65-.476.336-.938.692t-.907.732q-.446.375-.875.77c.994 1.564 2.015 3.116 2.983 4.697 1.55-.857 3.057-1.779 4.707-2.434 5.027-1.995 11.233-2.173 16.414-.68 2.421.699 4.567 1.77 6.647 3.185 4.618 3.14 9.012 8.373 15.018 5.114 2.03-1.101 3.919-2.602 5.788-3.956 4.888-3.202 9.371-4.675 15.261-4.542.323-2.712.755-5.434.996-8.154-3.782.064-7.134.576-10.61 2.165-5.165 2.362-9.5 7.44-15.553 7.346-6.267-.097-10.002-5.463-15.253-7.95-3.026-1.433-6.217-1.894-9.542-1.87m63.238 8.699.029 9.564c.644.017 1.29.043 1.935.048q.028-3.015.008-6.03c1.642 1.789 2.928 4.056 4.376 6.017l1.673.009c.156-1.166.078-2.413.075-3.59l-.025-5.926-1.891.033-.004 5.894c-1.487-1.97-3.034-3.926-4.332-6.028zm12.082.117-.018 9.49 2.046-.006-.014-9.493zm6.39-.02c-.006 2.07-.495 7.097.904 8.58.755.799 1.868 1.082 2.935 1.075 1.073-.008 2.263-.327 3.03-1.119 1.474-1.525 1-5.091.98-7.045l-.01-1.458-2 .004c.01 1.63.472 6.316-.721 7.438-.413.388-.98.552-1.54.51a1.4 1.4 0 0 1-1.014-.56c-.994-1.287-.465-5.662-.547-7.405zm11.823.023c-.111 3.113-.028 6.245-.007 9.361q3.38.186 6.764.126l-.003-1.748-4.834.009-.002-2.197c1.317-.05 2.636-.034 3.954-.029.009-.584.033-1.172.02-1.756l-3.962-.007.014-2.04c1.509.004 3.026.041 4.534.003l.022-1.715c-2.165-.005-4.336-.047-6.5-.007m-93.83 2.302c-4.037.194-8.06 1.148-11.357 3.613 1.14 1.776 2.445 3.583 3.89 5.13 6.863-1.786 13.936-1.564 20.193 2.083 4.18 2.437 9.186 8.34 14.456 7.076 3.583-.86 8.146-5.593 12.357-7.205 3.18-1.304 6.2-1.926 9.639-2.022.319-2.646.614-5.334.737-7.996-2.922.174-5.72.589-8.437 1.727-5.024 2.104-10.865 7.818-16.23 7.643-9.3-.304-11.654-10.718-25.248-10.049m.475 11.006c-1.769.045-3.512.097-5.24.52 1.676 2.443 4.585 5.389 6.886 7.268q.7.061 1.397.16.695.098 1.385.233.69.136 1.371.307.682.172 1.353.38.672.207 1.331.45.66.242 1.306.52.645.277 1.275.588t1.243.656q1.79 1.016 3.447 2.238c2.24 1.645 6.383 5.48 9.11 5.597 3.356.143 8.885-4.988 11.997-6.683 3.456-1.882 7.341-3.093 11.277-3.32 6.118-.353 11.76 1.214 16.814 4.678 5.56 3.81 8.42 7.107 15.725 8.044 9 1.154 13.639-4.764 20.454-8.881 5.769-3.486 12.852-4.56 19.442-3.243 5.658 1.13 8.24 3.58 12.89 6.316q4.226 2.43 8.6 4.583c1.16.566 2.467 1.471 3.69 1.816 2.16-1.451 4.422-2.891 6.471-4.497-6.484-2.852-12.793-6.202-19.046-9.531-2.47-1.316-4.648-3.048-7.086-4.392-5.995-3.304-13.22-3.541-19.556-1.058-3.993 1.566-6.949 4.24-10.418 6.615-6.703 4.589-14.88 5.964-22.486 2.706-8.886-3.807-11.85-10.792-23.128-11.08-3.084-.079-6.124.336-9 1.475-7.085 2.805-12.7 10.269-21.011 6.67-1.879-.814-3.458-2.08-5.075-3.307-5.038-3.822-8.923-5.855-15.418-5.828m5.173 11.48c6.699 6.222 16.365 12.838 24.588 16.893l.167-.093c2.135-1.206 3.979-2.903 6.059-4.206q.284-.179.574-.351t.583-.337.592-.321q.298-.157.6-.307.301-.15.607-.291.305-.142.614-.276t.621-.26.628-.244.634-.228.639-.211.644-.195.65-.18.653-.162.658-.145.66-.129.665-.112.666-.095.67-.078q.334-.035.67-.061t.672-.044.673-.026q.337-.01.673-.01.337 0 .674.007.336.008.672.025.337.017.673.042.335.025.67.059t.67.076.666.093q.334.05.665.11.332.06.661.127.33.067.658.143t.654.16c5.903 1.583 9.152 4.822 13.998 7.992 6.882 4.501 14.143 5.393 21.424 1.248 2.828-1.61 5.264-3.787 7.982-5.561q.3-.195.604-.38.305-.187.614-.365.31-.178.624-.348t.632-.332.64-.315q.323-.153.65-.297.326-.145.656-.28.33-.137.664-.264t.67-.245.677-.228.683-.21q.342-.101.687-.192.345-.092.693-.174.347-.082.697-.156.349-.073.7-.137t.704-.118.707-.1.71-.081.71-.063q.357-.026.714-.044.356-.017.713-.025t.714-.006.714.013.713.03.712.051.711.069.708.087.706.107.703.124.7.144.696.161.69.18c5.728 1.54 8.496 4.764 13.428 7.241 1.882-.972 3.825-1.896 5.62-3.021l1.334-.834c-3.187-1.758-6.548-3.267-9.663-5.143-2.23-1.342-4.258-3.004-6.498-4.324-5.173-3.051-11.779-3.79-17.533-2.136-6.166 1.774-8.123 4.269-13.039 7.52-7.599 5.028-15.926 5.99-24.054 1.512-2.982-1.642-5.537-3.831-8.353-5.712-5.78-3.859-12.572-5.266-19.336-3.328-2.454.704-4.741 1.76-6.911 3.098-5.535 3.413-10.146 7.952-16.911 4.219-5.055-2.79-8.907-7.78-14.927-8.75m42.775 11.886c-5.971.597-10.064 3.177-14.808 6.589 2.089 1.203 4.807 2.34 7.075 3.132 7.297-2.569 14.936-2.553 21.988.856 3.276 1.583 9.423 6.652 12.293 7.3 2.264.51 6.692.36 9.096.349 1.73-.008 5.942.096 7.452-.452 1.742-.63 4.503-2.743 6.114-3.877 6.855-4.828 13.332-6.696 21.736-5.647a33 33 0 0 1 6.354 1.473c2.247-.796 4.418-1.922 6.576-2.935-2.06-1.393-4.055-2.958-6.223-4.175-4.574-2.569-10.356-3.238-15.466-2.269-6.52 1.237-9.947 4.875-15.22 8.27-8.619 5.55-17.74 4.973-26.147-.681-5.513-3.707-8.223-6.82-15.252-7.806-1.737-.244-3.822-.394-5.568-.127m.124 10.996a29 29 0 0 0-2.988.56q4.587 1.635 9.293 2.886 4.707 1.25 9.5 2.107l2.624.459c-5.288-3.887-11.502-6.77-18.252-6.04q-.09.011-.177.028m64.666.13c-5.254.477-10.524 2.401-14.515 5.929 2.082-.48 4.194-.843 6.294-1.234 5.32-1.113 10.4-2.407 15.551-4.16-2.372-.537-4.904-.766-7.33-.535"/><path d="M129.398 35.448c-6.148-.57-14.618 2.027-19.575 5.707-1.122.834-2.932 2.824-4.163 3.188-.343.102-.563.053-.866-.117a1.1 1.1 0 0 1-.218-.566c-.059-.499.195-1.101.504-1.48.949-1.169 2.332-2.136 3.558-2.995 5.239-3.672 10.92-5.667 17.302-6.134l.053-.007c9.401-.766 18.933 3.098 25.947 9.194q-.308.352-.66.661c-1.127.977-1.988.226-2.938-.53-5.483-4.364-12.007-6.436-18.944-6.921"/><path d="M102.07 155.292c.793-3.676 2.054-7.29 3.248-10.853q1.9-5.857 4.06-11.623c2.742-7.258 5.722-14.9 6.66-22.653q.283-2.358.344-4.732.06-2.374-.103-4.743c-.174-2.413-.498-4.87-1.496-7.097-2.142-4.782-7.484-7.239-12.28-8.483-4.872-1.264-9.803-1.947-14.582-3.617-8.16-2.85-15.496-8.32-20.806-15.12-6.061-7.761-10.102-17.863-8.872-27.816.775.604 1.462 1.379 2.202 2.034q1.255 1.098 2.632 2.04 1.376.942 2.854 1.715c10.216 5.409 21.132 2.699 32.016 2.538q1.966-.04 3.93.06 1.965.098 3.918.334 1.952.235 3.883.607 1.932.371 3.832.877c6.528 1.783 10.763 4.968 14.112 10.84 5.27-9.83 13.847-12.856 24.3-14.241 3.027-.401 6.12-.807 9.178-.594 2.7.188 5.354.737 8.028 1.128 3.913.572 8.05.743 11.97.19 3.667-.517 8.14-2.095 11.165-4.297.819-.596 2.253-2.105 3.147-2.381.19-.059.327-.094.496.02.633.427.82 1.648.94 2.363.873 5.229-.368 11.012-2.362 15.862-5 12.164-17.24 19.37-29.304 23.076-7.123 2.189-19.09 3.485-23.536 9.87-4.272 6.135-3.499 16.781-2.233 23.881 2.109 10.38 5.792 20.123 9.46 30.023 1.404 3.788 2.908 7.503 4.108 11.365-3.667 1.212-7.22 2.583-10.382 4.862-2.338 1.685-4.413 3.664-7.008 4.979-6.18 3.133-12.27 2.405-17.885-1.476-2.181-1.508-4.151-3.313-6.382-4.751-2.921-1.885-5.964-3.123-9.251-4.187M64.423 48.925c-.586 2.763 3.538 10.45 5.213 13.03 1.84 2.835 6.413 8.735 9.307 10.041l.398-.045c.085-.268.242-.516.078-.782-.553-.892-2.486-2.176-3.332-3.032Q74.972 67 73.944 65.785t-1.966-2.5-1.781-2.635-1.587-2.758q-1.171-2.226-2.039-4.588c-.269-.74-.923-3.72-1.297-4.123-.228-.246-.546-.222-.853-.256m100.993.216c-.269.905-.654 1.74-.955 2.63-2.489 7.36-5.056 11.636-10.887 16.773-2.119 1.867-4.585 3.37-6.665 5.273-.183.168-.565.426-.395.696.145.23.327.336.547.49 1.543-.917 2.976-2.16 4.398-3.258 7.188-5.547 12.072-11.684 14.42-20.616.137-.52.205-1.007.162-1.545-.208-.329-.252-.312-.625-.443m20.907.041c-.7 1.114-.862 3.72-1.257 5.104-.444 1.555-1.075 3.083-1.794 4.53-.902 1.818-1.83 3.368-3.13 4.94-.51.617-1.964 1.889-2.18 2.588.155.358.36.486.668.697 1.097-.798 2.007-1.92 2.827-2.991 3.033-3.957 4.833-8.395 5.594-13.307.066-.433.053-.796-.095-1.208a1.4 1.4 0 0 0-.633-.353m-35.948.624c-.603.787-.926 1.943-1.355 2.853-.837 1.778-1.758 3.492-2.916 5.086-4.771 6.574-11.636 11.196-15.456 18.55-.3.577-.84 1.373-.782 2.03.182.33.431.409.758.552l.077-.12c.62-.997 1.105-2.07 1.683-3.091.83-1.466 1.833-2.848 2.888-4.16 5.063-6.293 11.661-10.964 14.9-18.638.34-.807.947-1.796.752-2.687-.182-.21-.287-.284-.55-.375m7.269.395c-1.227 3.745-2.7 7.124-5.13 10.262-2.718 3.508-6.181 6.498-9.512 9.405-1.56 1.361-3.25 2.706-4.64 4.243-.364.404-.543.638-.577 1.186.217.253.317.242.664.262.024.002.049-.007.073-.01 6.981-6.726 15.539-12.342 19.159-21.761.268-.699 1.008-2.156.937-2.884-.036-.365-.097-.403-.36-.622zm14.599.341-.055.1c-.833 1.575-1.252 3.435-1.992 5.074-2.8 6.2-6.875 11.012-12.16 15.225-.613.489-3.725 2.593-3.868 2.918-.042.097.017.21.026.315.184.217.244.319.516.423 1.565-.8 3.035-1.9 4.415-2.984 5.712-4.487 10.72-10.52 13.025-17.498.176-.534.967-2.828.899-3.223-.289-.25-.445-.285-.806-.35m6.82.543-.042.119c-.582 1.706-.93 3.483-1.522 5.192-2.13 6.15-5.816 9.75-10.744 13.694-.469.376-1.252.83-1.341 1.448.178.234.257.342.554.43.04.012.083.009.124.013q.305-.18.606-.368.3-.187.597-.383.296-.195.587-.397.291-.203.577-.412.286-.21.567-.425.281-.217.557-.44.275-.223.546-.453.27-.23.534-.466t.523-.479.51-.492.499-.504.486-.516.474-.528.46-.54.447-.55.433-.561.42-.572q.206-.288.405-.582.2-.293.391-.591.192-.298.376-.601.185-.303.362-.61t.347-.619q.17-.31.331-.626.162-.316.316-.635.154-.32.3-.642.147-.323.285-.65.138-.326.268-.657.13-.33.253-.662.121-.333.236-.669.113-.335.219-.674.106-.338.203-.68.097-.34.186-.684c.2-.785.701-2.25.57-3.027-.279-.203-.569-.185-.9-.201m-35.561.511c-1.066 1.128-2.63 4.576-3.817 6.203-1.043 1.429-2.28 2.748-3.453 4.072-2.994 3.38-5.755 6.58-7.802 10.654-.387.77-.976 1.774-.99 2.64-.004.231.036.343.219.49.108.087.311.163.43.22.722-1.062 1.209-2.33 1.777-3.482q1.013-2.003 2.296-3.846c3.554-5.132 8.493-8.939 11.325-14.638.228-.458.67-1.195.641-1.705-.01-.163-.144-.322-.267-.419-.085-.066-.258-.142-.359-.189m-70.505 1.486c.017 1.145.525 2.251.94 3.303 1.899 4.815 4.92 9.004 8.628 12.598 1.466 1.42 8.014 7.028 9.626 7.1.035.001.071-.005.107-.007.112-.363.239-.538.1-.9-1.296-1.153-2.873-2.01-4.26-3.053-3.847-2.894-7.374-6.332-10.07-10.333-1.042-1.547-2.02-3.186-2.746-4.908-.334-.79-.926-3.097-1.434-3.624-.228-.236-.594-.171-.891-.177m36.247.482c-.26.282-.353.334-.415.723 1.686 3.4 8.751 7.993 11.692 11.132 1.376 1.468 3.258 4.93 4.29 5.751.214-.324.388-.472.324-.887-.126-.826-.823-1.819-1.276-2.51-3.293-5.026-7.15-6.937-11.301-10.82-.698-.653-2.41-2.937-3.013-3.27-.113-.063-.171-.075-.301-.119m-28.15.101c-.229.338-.354.464-.261.878.204.91.958 1.883 1.453 2.678 3.773 6.047 9.097 10.674 14.753 14.9 1.646 1.23 3.368 2.593 5.169 3.584q.182.1.373.185c.166-.302.344-.54.288-.9a1.3 1.3 0 0 0-.32-.377c-1.155-.898-2.408-1.688-3.592-2.55a110 110 0 0 1-6.295-4.94c-2.448-2.076-4.802-4.326-6.825-6.821-.785-.968-1.507-1.936-2.146-3.008-.63-1.058-1.24-2.362-2.022-3.299-.183-.219-.311-.24-.575-.33m14.961.148c-.229.26-.403.362-.382.74.036.663.783 1.628 1.173 2.16 4.195 5.72 9.911 8.408 14.784 13.179q1.229 1.21 2.346 2.524c.668.793 1.951 2.798 2.678 3.291.148.1.315.118.487.137l.368-.375c-.173-1.933-5.484-6.85-7.005-8.123-3.511-2.938-7.246-5.423-10.476-8.709-.452-.46-.903-.926-1.301-1.433-.746-.95-1.647-2.826-2.672-3.391m41.544.232c-2.222 2.888-10.014 11.039-10.009 14.279.24.267.47.26.81.344.83-1.705 1.662-3.37 2.755-4.927 1.031-1.47 7.143-8.231 7.121-9.244-.23-.209-.381-.34-.677-.452m-48.915.134c-.13.492-.17.69.11 1.153.901 1.484 2.284 2.835 3.47 4.1 4.26 4.535 8.82 8.518 13.545 12.55.866.74 2.756 2.696 3.76 2.982.184-.36.326-.498.257-.904-1.695-2.068-4.949-4.397-7.053-6.2q-4.95-4.222-9.385-8.984c-.6-.648-3.593-4.33-4.04-4.584a11 11 0 0 0-.411-.092c-.084-.012-.169-.014-.253-.021m13.777.103c-.185.268-.354.402-.299.752.338 2.16 9.96 9.106 11.944 10.763 2.63 2.197 5.09 4.64 7.069 7.446.522.74 1.871 3.46 2.468 3.784.053.028.112.046.167.07.252-.333.422-.449.382-.897-.068-.74-.966-1.82-1.38-2.473-4.663-7.362-10.288-10.169-16.533-15.62-1.03-.9-2.411-3.017-3.312-3.601a1.8 1.8 0 0 0-.506-.224m12.729.246c-.2.364-.366.546-.34.966 1.072 1.384 2.931 2.461 4.29 3.565 1.144.93 2.199 2.068 3.145 3.196.57.68 1.628 2.398 2.422 2.578.121-.186.334-.397.297-.625-.356-2.195-7.373-8.225-9.444-9.486-.103-.063-.27-.144-.37-.194"/><path d="M99.316 166.702c.437-2.122.983-4.222 1.505-6.324 7.113 1.868 9.062 4.468 14.687 8.264 3.388 2.287 7.124 3.67 11.218 3.917 13.242.795 16.51-9.385 27.51-11.543q.837 3.116 1.346 6.302l-1.362.173c-6.631 1.036-10.323 3.825-15.5 7.64-6.67 4.917-13.254 5.723-20.35 1.07-2.718-1.782-5.133-3.959-7.942-5.62-3.534-2.091-7.075-3.264-11.112-3.879"/></svg>