<svg xmlns="http://www.w3.org/2000/svg" viewBox="0 0 256 256"><path d="M119.264 0h17.074l.125.021c2.285.37 4.667.395 6.974.641 4.083.435 8.23 1.058 12.271 1.799 3.28.6 6.528 1.431 9.753 2.272 22.182 5.782 39.23 16.604 52.795 35.201 22.682 31.094 29.1 78.714 23.217 116.105-4.84 30.759-17.652 61.92-43.567 80.743-13.822 10.039-30.241 15.183-47.001 17.618q-4.633.677-9.296 1.11c-1.72.157-3.582.155-5.267.49h-16.923c-1.736-.365-3.644-.365-5.417-.52q-4.227-.397-8.428-1.012c-18.234-2.738-33.556-7.612-48.547-18.598-24.775-18.158-37.547-49.636-42.112-79.152-5.988-38.714-.376-85.15 23.238-117.361C52.858 19.297 73.97 7.504 98.177 2.805c4.118-.8 8.3-1.494 12.47-1.953 2.816-.31 5.703-.387 8.494-.832zm6.727 3.686c-29.273.622-57.118 7.701-77.985 29.464-2.35 2.451-4.41 5.09-6.456 7.797C25.448 62.26 18.23 90.435 16.602 116.76q-.488 8.688-.238 17.385.263 8.534 1.42 16.994c2.57 20.14 8.41 39.82 19.158 57.166 2.777 4.484 5.87 8.875 9.35 12.844 1.758 2.002 3.687 3.894 5.613 5.734 20.897 19.961 50.649 25.777 78.626 25.334 28.192-.552 56.056-6.786 76.277-27.801q3.118-3.211 5.927-6.696t5.284-7.212c3.19-4.847 5.85-10 8.243-15.277 10.166-22.407 14.16-47.237 13.662-71.735-.492-24.2-6.21-49.36-17.792-70.688-4.39-8.085-9.791-15.884-16.445-22.287-21.559-20.745-50.683-26.826-79.696-26.835"/><path d="M132.639 250.235q-3.7.142-7.404.097-3.703-.047-7.399-.284t-7.375-.662q-3.679-.427-7.331-1.04c-18.782-3.09-35.698-9.812-49.806-22.874-22.806-21.113-33.78-58.131-34.922-88.436q-.291-7.03-.1-14.063.193-7.033.867-14.037c2.736-26.213 11.735-54.456 29.967-74.05C62.03 21.028 79.887 12.251 98.304 8.524c8.332-1.686 16.865-2.4 25.35-2.706q.168-.012.337-.019c8.306-.373 16.76.208 24.978 1.407 19.561 2.856 38.62 9.45 53.407 23.01 19.948 18.29 29.932 46.557 33.82 72.736q1.277 8.146 1.695 16.38c1.46 34.498-6.62 75.532-30.604 101.619-20.078 21.837-45.974 28.068-74.648 29.283m16.165-229.57-.042.077zc.358-.174.617-.286 1.017-.308l.1.12c-.2.632-.83 1.195-.902 1.82.349-.143.61-.365.908-.59-.23 1.518-.792 2.545-1.636 3.799.495.258 1.085.66 1.634.751.065-.295.045-.114.028-.439-.082-1.5 1.26-3.802 2.02-5.043l.1 1.149.026-.141c.293-1.443 2.102-4.539 3.387-5.325.216-.132.238-.106.473-.107.296.473.077 1.182-.04 1.693-.483 2.096-.562 1.737-1.705 3.271l-.06.057.06-.057.914-.626-.075.119.137-.12c.091.296.111.445-.069.72-.223.341-.537.612-.742.97l.03.11.536-.195c.13.187.116.094.071.316-.097.482-.65 1.055-.637 1.493l.351.016c.094.221.025.322-.058.538-.413 1.084-1.247 2.251-1.936 3.177l2.065 1.398c-.348-1.834.078-3.533 1.11-5.072.633-.945 1.413-1.805 2.122-2.695.119.224-.251 1.509-.312 1.83l-.065.08.065-.08c1.26-1.867 2.282-4.023 4.095-5.43-.18 1.176-.375 2.352-.515 3.534l-.08.106c-.538.693-1.369 1.177-1.314 2.116l.052.082.073-.113q.259-.37.564-.703.306-.333.653-.623c-.197.676-.388 1.292-.707 1.921-.085.17-.116.303-.13.492l.196.105c-.274.613-.868 1-1.102 1.611.219.01.329-.042.53-.118l.1.093c-.305 1.302-.86 3.236-2.017 4.017-.208.14-.45.232-.683.322.86.754 1.578 1.237 2.661 1.627-.412-1.686-.491-2.83.439-4.387.49-.822 1.058-1.62 1.609-2.402.094.532.172 1.075.3 1.6.517-1.15.927-2.394 1.602-3.46l.29 1.846c.383-.91.719-1.916 1.282-2.73.776-1.124 1.661-2.14 2.837-2.86-.218 1.714-.257 3.396-1.735 4.565-.37.292-.792.512-1.206.735.813-.191 1.575-.399 2.347-.718-.589.969-1.025 1.719-1.972 2.378l.104.097c.322-.071.796-.26 1.08-.107-.094 1.01-1.222 1.523-1.452 2.418l.455.076c.198.815-.754 2.268-1.176 2.956-.169.273-.506.898-.759 1.068-.37.248-.827.167-1.049.584.773.707 1.879 1.23 2.78 1.773-.253-1.607-.161-2.893.8-4.263l.001.078c.72-1.022 1.403-2.086 2.16-3.08.052.624.1 1.238.226 1.853.736-1.47 1.859-2.679 2.623-4.131-.081.858-.183 1.7-.335 2.55l.057-.088c1.639-2.586.649-3.182 3.79-5.315-.237 1.68-.27 3.212-1.436 4.556-.47.542-.985 1.001-1.424 1.579.772-.352 1.46-.864 2.16-1.34-.61 1.57-1.751 2.726-2.724 4.074.674-.503 1.332-.993 2.07-1.4-.303.84-1.408 1.998-1.205 2.785-.628 1.801-1.436 3.348-3.211 4.262 1.047.898 2.146 1.776 3.148 2.725-.445-1.206-.573-2.433.01-3.64.148-.306.308-.52.564-.74.15-.037.31-.043.45-.11.145-.07 1.713-2.555 2.329-3.094-.007.891-.03 1.786-.016 2.677.342-1.887 1.025-3.082 2.095-4.653a30 30 0 0 0-.104 2.43c1.153-2.84 2.407-4.194 4.85-6.082-.476 1.507-.843 3.088-1.623 4.474-.353.629-.845 1.17-1.186 1.798l-.053.08.053-.08a7.5 7.5 0 0 1 1.35-.843c-.509 1.327-.964 2.702-1.579 3.983l-.074.04.074-.04c.275-.192.549-.374.838-.543-.204 1.025-1.916 4.524-2.48 5.543q-1.057.542-2.138 1.033c.818.953 1.927 1.588 2.87 2.406-.196-1.163-.364-2.45.325-3.497.145-.22.321-.424.493-.624l-.026.086a27 27 0 0 0 2.107-2.462c.016.379-.014.832.13 1.18.425-.947.85-2.093 1.61-2.829l.157.057.09.989.101.081c.499-.77.71-1.76 1.3-2.447l.197.005c.245.372.237.736.277 1.164q0 .01.003.02c1.112-1.94 2.844-3.354 4.693-4.576-.784 2.153-1.517 4.088-3.06 5.83.525-.23 1.048-.48 1.584-.685-.897.917-1.79 1.773-2.44 2.894.49-.333.986-.657 1.45-1.024-.623 1.34-1.3 2.385-2.482 3.31.644-.264 1.278-.523 1.895-.846-1.413 2.75-2.422 4.835-5.57 5.851l-.172.055c.965.702 1.65 1.662 2.374 2.599.135-2.034 1.076-3.681 2.591-5.02a7.4 7.4 0 0 1 .977-.734l.112.102.017.743.129.068c.618-.612.798-1.632 1.629-1.97.102.146.158.25.23.419.745-.754 1.252-1.682 1.979-2.455-.174.67-.377 1.328-.397 2.024l-.075.048.075-.048c2.044-2.185 3.14-3.55 6.078-4.713-.58 1.526-1.161 2.903-2.221 4.163-1.195.223-2.518.319-3.34 1.325l-.07.08.07-.08c1.464-.747 2.44-1.02 4.085-.998-1.14.944-2.209 2.009-3.443 2.827l-.14.077.14-.077c.83-.23 1.672-.503 2.52-.657-.845 1.007-1.702 2.028-2.723 2.862l-.055.108.055-.108.397-.067c.111.513-1.246 2.63-1.585 3.158-.602.94-1.49 1.804-2.615 2.045a8 8 0 0 1-1.34.151c.855 1.053 1.827 2.096 2.596 3.21.194-1.216.639-3.457 1.668-4.25.167-.128.252-.175.454-.194.154.3.127.399.124.728.274-.041.456-.398.616-.618.645-.887 1.135-1.76 1.901-2.563l-.202 1.996c.657-1.076 1.45-2.244 2.322-3.156l.11.108-.05.737.12.06c.727-.535 1.251-1.553 2.014-1.965-.006.279-.043.549-.079.825.462-.24.823-.78 1.217-1.131 1.126-1.008 2.867-1.996 4.314-2.446-.849 1.872-1.801 3.215-3.504 4.395-.75.52-1.439.953-2.09 1.603 1.153-.551 2.327-1.096 3.607-1.27-1.08 1.029-3.038 2.324-3.864 3.307l-.067.064.066-.064c.872-.197 1.68-.596 2.474-.997-.604.886-1.34 1.596-1.833 2.562-.46.22-1.057.419-1.42.775.321.222.47-.121.792.233-.095 1.048-1.59 2.781-2.377 3.43-.81.67-1.852 1.14-2.924.994a5.5 5.5 0 0 1-.926-.231c.982 1.376 2.059 2.718 2.974 4.138.547-2.647 1.026-3.681 3.27-5.288-.04.395-.141.863-.014 1.242.757-.5 1.783-3.139 2.703-3.063.061.307.052.535.024.844.798-.102 1.872-1.985 2.604-1.774.006.352-.058.638-.145.975l.11.101c.585-.421.867-1.072 1.391-1.547 1.16-1.052 3.149-1.759 4.624-2.221-.446.65-2.792 3.434-2.703 4.028l.47-.041c-.046.24-.252.374-.452.505-.69.453-1.608.41-2.32.82l-.138.079.138-.078c.575.038 1.145.07 1.721.073l-.213.118.084.185c-.064.039-.13.073-.19.116-.715.513-1.4 1.365-2.07 1.97.53-.067 1.077-.11 1.593-.253-.805.918-1.669 1.598-2.717 2.219l-.172.1c.287.008.565.037.851.068l.052.168c-.164.29-.338.567-.523.844-.858 1.286-1.85 2.715-3.492 2.995-1.194.205-2.127-.25-3.077-.903 1.044 1.817 2.222 3.563 3.284 5.374q.06-.212.131-.42c.444-1.318 1.094-3.148 2.425-3.805.205.213.18.675.216.972l.126.032c.72-.719 1.45-1.573 2.31-2.115.255.143.048.698.209 1.023.567-.558 1.221-1.577 1.916-1.904.055.278.113.538.202.808.982-.636 1.717-1.624 2.697-2.31l-.517 1.825c1.88-1.805 3.948-2.396 6.495-2.64-.555.614-1.124 1.254-1.742 1.805-.379.338-.803.582-1.144.966.3.063.58.062.883.069l.068.121c-.647.726-1.65.911-2.508 1.285l-.034.114c.5.182 1.094.12 1.621.116-1.087 1-1.892 1.13-3.151 1.742.215.245.651.256.969.327-.836.938-1.508 1.363-2.687 1.761l.796.638q-.39.4-.793.79c-1.162 1.13-2.743 2.658-4.491 2.582-1.128-.05-1.807-.713-2.546-1.473.873 2.005 2.011 3.951 3.047 5.877.076-.318.15-.65.26-.96.457-1.272 1.573-2.82 2.792-3.445l.154.081.072.575.136.066c1.705-1.519 3.039-2.734 5.188-3.584-.427.61-.819 1.243-1.216 1.872 1.155-.88 2.262-1.827 3.559-2.494-.43.53-.79 1.081-1.154 1.657 2.33-1.326 4.176-2.01 6.85-2.284-1.596 1.322-3.141 2.577-4.94 3.624.88-.166 1.795-.195 2.688-.258-1.192.757-2.496 1.305-3.678 2.08l.038.105c.357.03.685.046 1.022.183l-.03.133c-.901.79-1.701 1.49-2.816 1.961l-.186.078c.194.062.121.06.308.044.274-.023.465-.08.723.05-.036.634-.573 1.143-.999 1.581-1.1 1.133-3.272 3.316-5.007 3.259-1.077-.035-1.88-.824-2.57-1.557.874 2.17 1.882 4.287 2.826 6.428q.065-.232.138-.462c.754-2.354 2.342-3.601 4.436-4.697-.305.433-.601.918-.636 1.456l.134.063c1.316-1.036 2.797-2.142 4.37-2.742l.141-.052c-.456.543-.81 1.107-1.174 1.713 1.167-.759 2.282-1.654 3.404-2.483-.39.617-.711 1.244-1.029 1.9 2.811-1.793 6.047-2.64 9.359-2.815-1.802 1.455-4.123 2.895-6.284 3.72.883-.115 1.753-.19 2.642-.232-.401.322-.86.753-1.324.972-.655.31-1.554.33-2.123.767.188.343.464.428.8.62-1.163.758-2.321 1.183-3.638 1.612l1.605.145c-.708.796-1.45 1.582-2.243 2.293-1.331 1.195-3.167 2.614-5.057 2.455-1.383-.116-2.065-.931-2.87-1.935.528 2.484 1.188 4.95 1.8 7.415.488-1.271 1.106-2.322 2.143-3.226.58-.505 1.54-1.22 2.338-1.167a3.4 3.4 0 0 1-.123.517l-.066.207c.598-.005 1.773-1.007 2.404-1.283 1.027-.451 2.056-.615 3.163-.747-.408.526-.762 1.103-1.13 1.656 1.431-.942 2.466-1.925 4.12-2.512q-.493.762-.972 1.533c2.87-1.385 4.804-1.748 7.966-1.91-.49-3.331-1.575-6.7-2.552-9.915-2.423-7.963-5.161-15.944-9.036-23.332-2.929-5.587-6.166-11.085-10.03-16.082-10.317-13.34-24.785-22.398-40.792-27.383-20.4-6.354-46.873-7.43-67.73-3.206-9.522 1.928-18.664 4.989-27.273 9.511-18.137 9.529-30.877 24.98-38.958 43.633-2.274 5.248-4.075 10.583-5.774 16.036 3.281.125 6.121.647 9.091 2.098l-.83-1.415c1.628.642 2.836 1.733 4.136 2.865a19 19 0 0 0-1.56-2.206c2.121.786 3.298 2.12 4.984 3.543l-1.043-2.163q.122.05.243.105c2.368 1.069 3.579 2.77 4.498 5.154.575-1.957 1.5-3.788 2.072-5.76-.477.219-.95.445-1.476.514-2.011.265-3.64-1.147-5.114-2.297.79-.017 1.548-.104 2.33-.214-1.776-.7-3.227-1.245-4.79-2.381.671-.098 1.357-.132 2.032-.188-.409-.158-.822-.302-1.225-.476-.544-.234-1.765-.96-1.996-1.522.29-.045.58-.079.871-.11l.032-.116c-.976-.718-1.961-1.428-2.87-2.23-.554-.489-2.286-1.79-2.328-2.476.08-.029.157-.067.239-.087 1.192-.288 5.905 1.723 7.045 2.345-.414-.61-.787-1.252-1.172-1.881 1.575.774 2.576 1.584 3.519 3.089l-.472-1.954c1.6.847 2.788 1.74 4.026 3.07l-.682-1.68c2.344 1.257 2.898 2.305 3.956 4.698.87-1.732 1.737-3.462 2.524-5.234-.758.385-1.479.725-2.346.773-1.875.105-3.358-1.084-4.69-2.24.715-.12 1.448-.157 2.17-.218-1.384-.394-2.7-.348-3.666-1.584.283-.056.566-.08.853-.104-.017-.12-2.37-1.843-2.668-2.124l1.304-.26c-2.06-1.426-3.774-3.585-5.434-5.45 2.952.302 5.314 1.306 7.688 3.046-.35-.794-.66-1.595-.958-2.41 1.474.89 2.59 1.977 3.73 3.26-.248-.751-.537-1.494-.807-2.238 1.638.995 2.794 2.392 3.718 4.046-.172-.835-.373-1.574-.715-2.357 1.866 1.24 3.045 2.548 3.505 4.815.818-1.534 1.901-2.944 2.774-4.456l-.178.082c-.507.241-.964.459-1.532.513-1.428.135-2.527-1.054-3.527-1.903l1.117.038.029-.061.243.044-.07.122.04-.154c-.018-.002-.038 0-.055-.006-1.576-.518-2.91-1.773-3.807-3.135l2.36.577c-1.72-.836-2.877-1.77-4.195-3.163.745.04 1.488.114 2.23.18-2.103-1.933-3.951-4.233-5.85-6.372 2.37.988 4.663 1.85 6.749 3.384l-.416-1.833c1.41.805 1.98 1.896 2.946 3.109l.128.159.072.066-.072-.066c-.046-.642-.661-1.575-.532-2.112.103.012.173.014.274.062 1.432.672 2.46 3.303 2.979 4.71q-.138-1.616-.305-3.23c.584.613 1.175 1.222 1.738 1.853 1.365 1.532 1.353 2.725 1.232 4.672l3.053-4.517c-.632.051-1.271.113-1.892-.057-2.168-.593-3.5-3.165-4.592-4.959l.1.05.164.086c.959.482 1.74 1.197 2.619 1.806-.301-.843-2.974-2.774-3.736-3.66-.387-.448-.653-.935-.92-1.457l1.866.592c-2.218-1.776-4.114-4.449-5.892-6.67 2.66.943 4.823 2.071 7.01 3.843l-.708-2.431c1.65 1.723 2.888 2.776 4.08 4.911-.187-.884-.402-1.764-.604-2.644.475.47 1.998 2.482 2.292 2.629.023-.21-.021-.335.142-.48.49.522.974 1.047 1.35 1.66.948 1.548.73 3.026.315 4.683 1.104-1.394 2.21-2.772 3.397-4.098-.505-.032-1.022-.07-1.503-.242-1.579-.561-2.625-2.154-3.323-3.591.899.428 1.768.934 2.644 1.408-.466-.58-1.167-.936-1.75-1.392-1.001-.78-1.716-1.559-2.481-2.566.6.139 1.21.25 1.815.372-.76-.688-2.544-2.25-2.709-3.275.213-.01.42-.027.632-.056-1.075-1.892-2.341-3.704-3.444-5.59 2.599 1.374 4.618 2.763 6.643 4.915-.12-.68-.331-1.431-.287-2.122l.256.054c1.326 1.042 2.178 2.587 2.965 4.046a25 25 0 0 0-.643-2.304q.383.303.737.64.352.338.672.708t.603.768.528.821c1.114 1.94 1 3.368.445 5.44.973-1.229 2.052-2.328 3.19-3.4-1.757-1.36-3.673-3.669-4.242-5.851.762.463 1.53.986 2.353 1.332l.061.06-.061-.06c-.369-.443-.839-.81-1.228-1.241-1.154-1.277-1.972-2.747-2.632-4.329l1.666.896c-1.47-1.587-3.119-5.077-4.282-7.06 1.264.851 2.583 1.68 3.758 2.65.486.401 1.025 1.236 1.562 1.492.203.097.206-.314.482-.434.746.698 1.06 1.746 1.432 2.67-.004-.549.008-1.08.068-1.627l.212-.012c1.087.792 1.573 2.124 2.192 3.272l.134.037c.08-.28.024-.143.177-.41.185.119.167.09.298.224 1.422 1.456 1.555 3.733 1.478 5.636.836-.858 1.77-1.637 2.663-2.435-1.704-1.411-3.142-3.565-3.824-5.664.78.477 1.555 1.06 2.357 1.487l.081.078.153.13.075.07-.075-.07-.153-.13-.081-.078c-.364-.585-.95-1.1-1.378-1.654-.846-1.096-1.434-2.261-2.036-3.499.612.256 1.19.589 1.775.903l.097.08.087.077-.087-.077-.097-.08c-1.645-2.058-2.83-4.504-3.924-6.888 2.336 1.209 3.938 2.811 5.353 4.997-.157-.76-.23-1.48-.263-2.255.756 1.08 1.343 2.198 2.002 3.334l.155-.057a6 6 0 0 0 .19-.922l.13.005c.76.962 1.482 1.968 2.073 3.044.996 1.81 1.09 3.34.51 5.301 1.036-.851 2.055-1.699 3.192-2.415-1.302-1.61-2.219-3.412-3.332-5.142.712.303 1.42.617 2.157.853l.08.047-.08-.047c-1.448-1.46-2.084-2.98-2.704-4.904.831.574 1.593 1.269 2.4 1.881-2.417-2.777-2.894-4.07-4.335-7.405 1.776 1.064 3.438 2.337 4.509 4.133-.037-.651-.138-1.294-.227-1.94 1.023 1.047 1.966 2.464 2.493 3.827l.044-1.962c.457.634.89 1.289 1.327 1.936 1.436 2.127 2.132 3.122 1.617 5.777.88-.356 1.744-.756 2.608-1.148-1.323-1.295-2.085-2.968-2.555-4.73.394.232.755.405 1.191.543l.079.039-.079-.04c-.64-1.038-1.807-1.72-2.433-2.786l.077-.159c.54.055.936.26 1.414.497-1.436-2.312-2.215-4.689-3.063-7.254 1.526 1.185 2.576 2.332 3.597 3.98l-.047-2.245a58 58 0 0 1 1.663 2.386l.129.275-.129-.275c.018-.226-.028-.216.152-.378.906.584 1.415 2.509 1.853 3.485l.147.031c.048-.195.076-.265.193-.438.064.052.131.099.19.155 1.084 1.03 1.394 3.497 1.334 4.89l1.906-1.281c-.672-1.166-3.228-5.748-3.106-6.874l.109-.015c.335.535.67.875 1.154 1.27l.164.132c-.378-.694-.816-1.285-1.293-1.911l.024-.152c.193.091.312.137.525.176-.657-1.94-1.45-3.928-1.874-5.932 1.373 1.123 2.276 2.546 3.362 3.927l.109-.085-.034-.629c1.234 1.211 1.314 2.23 1.81 3.807a44 44 0 0 1 .128-2.358c1.254 2.04 2.282 4.234 2.42 6.64a18 18 0 0 0 2.087-1.117c-1.426-1.428-2.114-3.328-2.83-5.171.454.317.93.594 1.404.877-.455-.46-.8-.881-1.095-1.464-.181-.361-.443-.844-.305-1.254l.206-.064.546.347.121.059.147.127.075.07-.075-.07-.147-.127-.121-.06c-.996-1.262-1.407-3.991-1.506-5.557 1.332 1.195 2.123 2.317 2.903 3.925-.063.364-.149.706-.07 1.074.107-.61.166-1.258.452-1.812l.147.062c.407 1.1.69 2.242 1.11 3.332-.045-.478-.091-.943-.066-1.424l.116-.08c.49.51.18 1.522.545 2.149.16-.202.163-.367.216-.618.727.8 1.025 2.733 1.04 3.777.294-.226.526-.56.565-.937.14-1.368-1.264-2.164-.098-3.426-.02-.466-.267-.686-.159-1.166l.394-.197c-.11-.327-.313-.435-.584-.618l-.052-.238.236-.262c-.226-.836-.77-2.527-.249-3.318.024-.035.056-.062.084-.094.323.012.43.103.636.342.888 1.035.975 2.224 1.019 3.511.198-.178.327-.385.476-.603l.113.008c.247 1.042.16 1.993-.16 3.004.33-.504.669-.998.94-1.538.288 1.433.583 2.697.236 4.147l1.271-.54c-.178-.47-.37-.94-.516-1.422.427-1.446 1.08-2.637 2.03-3.812.51 1.418 1.08 2.97.39 4.434-.39.826-1.023 1.402-1.74 1.94 1.075.595 2.879 2.452 3.122 3.707.032.167.022.183.008.328l-.106.103-1.132-.188-.113-.064.114.064c2 1.669 3.214 3.685 3.987 6.172-2.3-1.45-3.425-3.442-5.284-4.812l-.067-.065.067.065c.075.343.167.614.024.954l-.259.075c-.585-.239-1.05-.706-1.528-1.111l-.072-.073-.07-.115c-.087-.137-.2-.266-.3-.394l-.084-.083c-.222-.614-.965-1.601-1.48-1.974-.218-.158-.34-.075-.596-.044.228.29 1.733 1.73 2.076 2.018l.083.083c.097.137.185.273.3.394l.071.115.072.073.461.781-.128.09-.604-.127-.062-.079.062.079c1.072.77 1.453 1.416 1.96 2.628-.478-.428-.995-1.005-1.565-1.296l-.064-.049.063.05.138.215c1.201 1.861 2.398 3.35 2.947 5.553-2.241-1.472-2.642-2.682-4.315-4.386l-.074-.066.074.066.44 1.122c-2.227-1.393-3.758-3.43-4.593-5.911l-1.784 1.096c1.681.708 2.503 1.967 3.187 3.6q.062.152.117.308l-.944.259c.812.876 1.41 1.94 1.977 2.987-.593-.541-1.213-1.218-1.935-1.571l-.066-.056.066.056.054.087c1.215 1.944 2.874 3.843 3.241 6.193l-.082.277c-1.267-.14-4.171-4.296-5.195-5.312l-.06-.076.06.076q.412.882.869 1.742c-2.371-2.18-3.556-3.824-4.816-6.75-.531.272-1.063.535-1.569.852 1.788 1.465 1.442 2.258 2.265 4.13.286.65.788 1.254 1.207 1.829l-1.763-.694c.845.87 1.8 1.609 2.449 2.642-.593-.293-1.194-.576-1.769-.902 1.888 1.902 3.021 3.764 3.791 6.347a21 21 0 0 1-1.906-1.478c-.872-.773-4.656-4.79-5.57-4.85l.055.163c.055.167.096.327.132.5-.526-.117-1.171-.989-1.447-1.427-.698-1.11-1.016-2.406-1.347-3.66-.841.316-1.518.797-2.188 1.39 1.615 1.495 3.695 4.015 4.873 5.88l-2.542-1.344c1.28 1.3 2.343 2.42 3.174 4.068-.62-.599-1.2-1.144-1.922-1.62l-.172-.116c.85 1.148 4.32 5.081 4.04 6.463-.007.035-.024.067-.036.1-.94.013-2.758-1.935-3.48-2.634-.96-.931-1.887-1.91-2.647-3.014.305.81.63 1.56 1.056 2.312-1.14-.965-2.054-2.181-3.24-3.083.096.26.193.382.139.659-1.347-.379-2.533-1.943-3.187-3.112-.329-.588-.603-1.217-.876-1.832-.728.713-1.668 1.46-2.253 2.288l.14.006c1.266.084 2.296 1.49 3.076 2.397.528.615 1.026 1.282 1.611 1.843-.699-.053-1.394-.105-2.088-.206l-.141-.07.14.07c1.195.616 2.486 1.118 3.605 1.867-.638.114-1.275.24-1.92.312.602.181 1.231.323 1.73.723l.119.093c.446.373.752.938 1.06 1.425-.487-.217-.972-.448-1.47-.636 2.006 1.385 3.473 3.066 4.46 5.315-2.889-1.241-5.276-3.209-7.937-4.828.255.462.535.916.706 1.418-.79-.827-1.332-1.982-2.173-2.703l-.051-.073.051.073c.18.53.396 1.023.64 1.526-2.194-1.133-4.138-2.9-4.947-5.29-.93.773-1.788 1.607-2.651 2.45 2.241.414 3.708 1.553 5.209 3.212-.605.029-1.215.042-1.817.09 1.806.51 3.008 1.084 4.42 2.335q-1.363.084-2.728.135c1.873.509 3.042.81 4.196 2.524-.522-.185-1.075-.434-1.628-.483l-.116-.065.116.065c2.572 1.883 3.918 2.727 5.496 5.719-2.661-.943-5.255-2.895-7.672-4.36l-.069-.042.07.042c.118.276.196.465.196.767l-.185.06c-.876-.406-1.625-1.241-2.275-1.941l-.058-.07.058.07.24.791-.068.113c-1.181-.193-4.76-2.337-5.46-3.287-.547-.74-.803-1.874-.837-2.782-.991.85-2.055 1.678-2.895 2.684 1.943.315 3.79.874 5.008 2.56.158.217.215.407.29.66.713.56 1.779.697 2.593 1.158l-2.17.778c1.596.392 2.852 1.295 4.336 1.932l-2.346.406c2.272.571 5.403 3.116 6.573 5.125q.166.287.316.582c-3.437-1.375-6.931-3.124-9.782-5.49.472.614.933 1.24 1.452 1.815-1.72-.65-2.981-1.33-4.324-2.587.35.627.725 1.19 1.163 1.759-1.086-.58-3.585-1.672-4.359-2.544-.389-.437-.543-1.05-.71-1.598-.134-.441-.28-1.26-.625-1.558-1.118.697-2.09 2.127-2.948 3.136 2.478-.07 4.327 1.146 6.197 2.626-.893.055-1.744.202-2.621.374 2.223.028 3.616.226 5.249 1.86-.556.012-1.15-.027-1.68.159.12.245.462.32.712.409 1.043.371 2.014.607 2.97 1.199-.644.097-1.282.201-1.934.232 2.127.898 4.682 2.922 5.711 5.02-2.365-.692-5.559-2.119-7.823-3.168-.746-.345-1.48-.785-2.239-1.093l-.05-.062.05.062c.307.465.692.87.99 1.334-2.337-.819-6.07-1.446-7.207-3.91-.208-.45-.337-.965-.469-1.442q-1.299 1.762-2.537 3.567c1.749-.243 4 .019 5.481 1.089.266.192.477.421.543.753q.01.065.014.131c-.282.153-.569.236-.875.326 1.703.296 3.149.717 4.709 1.493-.87.258-1.696.427-2.595.538.893.335 3.415.828 3.898 1.487-.089.255-.013.184-.233.299-.407.21-.953.205-1.399.286 2.588.724 4.725 2.498 6.24 4.701-3.431-.817-7.733-2.555-10.632-4.544.528.637 1.049 1.252 1.654 1.819-2.574-.61-6.568-1.414-8.09-3.794-.289-.451-.46-.983-.623-1.49-.898 1.41-1.866 2.823-2.583 4.337 1.484-.63 2.668-.61 4.179.007 1.706.697 4.087 1.896 5.404 3.178a24 24 0 0 0-2.894.14c1.925.279 3.337.575 4.992 1.676-.826.016-1.654.016-2.476.113 3.216 1.045 6.325 2.935 8.323 5.743-3.263-.97-6.255-2.665-9.497-3.68.282.246.683.498.792.854-.987.107-2.794-1.345-3.715-1.781l-.058-.052.058.052.056.09c.166.26.943 1.093.931 1.324-1.166.154-4.88-1.228-5.838-1.96-.873-.666-1.31-1.468-1.638-2.494-.997 1.123-1.643 2.697-2.024 4.136l-.042.062.042-.062c1.612-.788 3.285-.24 4.898.308.907.309 1.817.657 2.693 1.045-.646.19-1.297.365-1.923.615 1.945.321 3.74.7 5.528 1.569l-2.824.181c3.022.793 4.94 1.95 7.259 4.061.8.73 1.658 1.507 2.275 2.404-3.159-.713-6.112-2.346-9.133-3.49l1.095 1.63c-1.433-.679-2.696-1.813-4.119-2.419l-.052-.05.052.05c.264.56.622 1.096.936 1.631-.99-.416-1.927-.84-2.789-1.496-.373-.283-.688-.632-1.079-.89l-.188-.122-.056-.057.056.057c.435.743 1.132 1.33 1.724 1.95-2.6-.617-4.699-.87-6.228-3.329-.5 1.447-1 2.895-1.634 4.29 1.42-.866 2.586-.7 4.135-.323 1.785.433 3.55.968 5.163 1.859a54 54 0 0 1-2.615.799c.818-.08 1.638-.212 2.449-.038l.22.044c1.083.237 2.109.725 3.15 1.1-.825.062-1.656.105-2.477.2 1.817.61 7.26 3.077 8.11 4.783.056.111.055.085.022.16l-.204-.165-.003.191c-3.112-.572-6.437-1.46-9.404-2.552.418.56.82 1.102 1.32 1.593-1.079-.31-2.053-.667-3.015-1.257-1.031-.632-2.071-1.525-3.218-1.912l-.072-.065.072.065c.957.922 2.063 1.583 2.951 2.595-2.45-.325-5.562-.39-7.237-2.506-.27-.342-.485-.739-.702-1.117-.483 1.722-1.079 3.415-1.5 5.154 1.583-1.078 2.66-1.434 4.598-1.07 1.866.352 3.7 1.125 5.489 1.763-.682.11-1.401.17-2.03.467.532.454 2.455.339 3.22.525.539.13 1.045.383 1.544.619l-2.285.266c2.935 1.125 5.928 2.238 8.055 4.67-2.026.006-6.207-.784-7.987-1.75l-.187-.048.187.048c.103.231.076.11.08.363-.844.247-2.378-.47-3.22-.747.42.477.811.982 1.209 1.479-2.056-.424-3.221-1.16-5.04-2.097l-.088-.08-.114-.093.114.093.088.08c.577.634 1.268 1.169 1.932 1.709-1.824.056-4.373.367-5.848-.944-.315-.28-.53-.642-.76-.989l-.11-.161q-.48 2.44-.843 4.9c2.818-1.707 5.822-1.516 8.93-.753l.115.029c-.558.254-1.028.442-1.447.91l-.06.066.06-.067c1.553-.408 3.126-.57 4.617.204.18.094.132.08.287.268-.37.174-.897-.08-1.326.076.48.327 1.18.311 1.736.46 1.904.512 4.105 1.687 5.447 3.145l.112.12.066.074c-3.078.385-5.893-.05-8.901-.637.67.36 1.33.69 2.037.973-1.869.187-2.844-.069-4.396-1.145q.639.706 1.248 1.437c-.144.223-.05.165-.317.218-1.531.302-2.99-.858-4.346-1.382l-.075-.064.075.064c.617.654 1.413 1.118 2.172 1.587-1.122.242-2.386.443-3.532.288-1.454-.195-2.298-.988-3.145-2.103q-.363 3.101-.535 6.219c.53-.713 1.109-1.336 1.892-1.772 2.035-1.133 5.275-1.271 7.495-.633-.626.407-1.628.645-2.338.948 2.812-.436 3.845-.715 6.762-.312-.641.213-1.264.497-1.888.757 2.825.15 5.418.944 7.928 2.24-2.989.758-6.231.974-9.296.799a27 27 0 0 1 1.777.966c-1.69.088-3.35.019-5.01-.313a9.8 9.8 0 0 1 2.14 1.404c-1.831.159-3.447.206-5.236-.271.73.412 1.469.787 2.224 1.15-1.087.488-2.384.906-3.582.935-1.324.032-2.193-.46-3.103-1.356q.022 3.155.077 6.31.311-.575.706-1.096c1.761-2.355 4.514-2.599 7.186-2.964l-1.188 1.675c1.932-1.122 3.288-1.688 5.553-1.776-.477.41-1 .763-1.512 1.127 1.804-.405 3.798-.763 5.648-.59.837.079 2.523.212 3.071.882-1.692.356-3.287 1.078-4.883 1.723-2.041.824-4.016 1.573-6.156 2.101 1.102.043 2.195-.012 3.296-.061-2.118 1.744-3.94 2.248-6.633 2.407.873.201 1.772.304 2.659.432-1.352.966-3.07 1.862-4.757 1.959-1.314.075-2.055-.393-2.988-1.223l.4 6.824c1.33-2.561 2.905-3.846 5.543-4.94l-.259 2.03c1.535-2.038 2.785-2.881 5.277-3.438-.299.581-.554 1.183-.818 1.781 1.006-.926 1.629-1.939 3.011-2.343l.16.093-.245.647c.4.175 4.308-1.582 6.846-.694 1.949-6.881 4.9-14.364 7.672-20.956 1.645-3.913 3.519-7.821 4.88-11.837a21 21 0 0 1-.346-1.195c-.431-1.743-.351-3.54-.39-5.318-.111-5.044-.226-9.57 2.519-14.035 1.93-3.141 4.478-5.536 7.996-6.775 3.791-1.336 7.984-1.178 11.874-.401 1.456.29 3.56 1.076 5.01.737 2.056-.482 7.58-2.75 9.571-3.827 1.374-.744 2.615-1.687 4.044-2.339 6.059-2.761 12.513-4.715 18.988-6.22 2.227-.517 4.623-.53 6.903-.553q1.068-.006 2.135.026 1.068.032 2.133.102 1.066.07 2.129.176 1.062.107 2.12.252 1.059.144 2.111.325t2.098.4 2.083.473 2.064.545 2.045.618 2.021.69 1.996.76q.991.397 1.968.83.976.432 1.937.898t1.905.966 1.87 1.032q.925.532 1.832 1.097c.995-1.034 2.25-1.933 3.396-2.794-.736.183-1.484.312-2.229.454 1.016-.668 2.66-1.304 3.473-2.173-.54-.237-1.111.094-1.684-.07l.096-.223c.928-.744 3.082-.704 4.277-.931-.915-.084-2.534-.06-3.295-.54.641-.525 2.086-.818 2.885-1.087l.001-.105-.347-.14-.027-.122c1.963-1.387 3.934-1.605 6.28-1.459-.514-.67-2.328-2.96-2.96-3.288l-.104.038c-.077.454-.183.907-.413 1.31-.471.828-1.215 1.476-2.027 1.957-1.18.7-2.519 1.08-3.8 1.552-1.7.627-3.393 1.306-5.116 1.86-1.524.491-3.09.871-4.625 1.332 1.623-1.891 3.612-3.334 5.6-4.811l-2.156.603c1.306-1.198 2.64-2.043 4.22-2.829l-2.372.047c.931-.44 3.139-1.028 3.767-1.58-.663-.059-1.206.052-1.844.197 2.241-1.685 3.878-2.69 6.757-2.673-1.099-.965-2.139-1.993-3.187-3.011-.184.473-.357.975-.602 1.42a4.7 4.7 0 0 1-1.365 1.572c-2.688 1.989-10.621 5.199-13.947 6.196l.057-.102c1.24-2.364 3.947-4.2 6.243-5.42a30 30 0 0 0-2.847.71c1.421-1.23 3.23-2.044 4.88-2.921-1.091.207-2.13.44-3.181.804.502-.431 3.697-2.7 3.75-2.782-.374-.125-.934.023-1.328.078 1.297-1.571 3.657-2.376 5.599-2.66-1.067-1.03-2.205-1.947-3.374-2.854-.029.628-.083 1.314-.316 1.903-1.209 3.068-9.705 6.539-12.906 7.872.632-1.128 1.466-2.225 2.322-3.194.4-.453.99-.892 1.293-1.407-.284.044-.663.183-.908.035.489-.751 1.558-1.119 2.189-1.79l.088-.098.074-.056-.074.056c-.659.084-1.317.4-1.937.633.914-1.057 1.742-1.768 3.022-2.325-.42-.03-.84-.079-1.26-.122l-.107-.158c.015-.044.024-.09.043-.132.604-1.363 3.849-3.327 5.245-3.804-.912-.693-1.687-1.483-2.682-2.073-.078.68-.186 1.3-.543 1.896-.504.84-2.004 2.386-2.944 2.636l-.147-.17c-.047-.013-.094-.053-.139-.038-.508.166-6.991 5.523-8.596 6.396.855-2.34 2.346-4.102 3.665-6.157l.134-.211.052-.058-.052.058-1.186.695c.935-1.576 1.703-2.575 3.135-3.757-.788.31-1.55.69-2.315 1.051 1.157-1.839 3.086-4.086 4.898-5.247-.806-.579-1.685-1.037-2.554-1.511.004.374-.014.73-.089 1.097-.387 1.89-1.35 2.375-2.684 3.557-.456.404-.8.871-1.315 1.215q.015-.24.04-.48c-.654.11-4.362 3.65-5.428 4.304-.283.174-.453.288-.788.218-.088-.778 1.204-2.88 1.679-3.56.306-.441.729-.809 1.002-1.265l-.625.29-.098-.13c.394-.726 1.206-1.407 1.782-2.01-.3.115-.6.253-.924.273-.187.011-.132.007-.278-.13.158-.508.762-.91 1.063-1.357-.393.04-.756.35-1.078.564 1.245-1.457 1.59-2.634 2.536-3.864.369-.48.85-.912 1.281-1.339-.59-.269-1.133-.597-1.686-.934-.162.862-.366 1.63-.808 2.398-.537.934-1.856 2.782-2.899 3.073l-.123-.089.195-.578.06-.063-.06.064c-1.686 1.259-4.038 4.782-5.9 5.44l-.182-.116c-.022-1.208 1.832-3.982 2.612-4.899.213-.25.418-.507.626-.763l.056-.071-.056.072c-.592.274-1.035.691-1.522 1.116.421-1.127 1.001-1.948 1.77-2.867l.048-.073-.048.073c-.514.279-1.058.499-1.594.731.23-.54.482-1.066.893-1.491.334-.347.792-.735.988-1.173-.19.022-.095-.001-.323.099-.239.104-.113.094-.347.053.5-1.05 1.779-2.19 2.566-3.072l-1.184-.733c-.466 1.432-1.646 3.515-2.803 4.496-.192.162-.24.238-.5.215.037-.193.115-.316.012-.49-.98.688-1.854 1.837-2.728 2.67-1.063 1.014-2.236 1.941-3.363 2.885.79-2.637 1.532-2.901 2.867-5.068-.218.12-.345.25-.598.229.392-.884 1.021-1.697 1.56-2.498l-1.5.771c.586-1.215 1.337-2.222 2.017-3.37l.058-.067.141-.142.069-.097c.401-.218 1.243-.54 1.431-.977l-.151-.323-.36-.045c-.368.394-.636.89-.92 1.345l-.069.098-.142.14-.057.067-.094.08c-.73.63-1.191 1.474-1.877 2.126-.4.38-.82.128-1.277.506-1.651 1.364-2.82 2.91-4.729 3.99.695-1.755 1.585-3.509 2.773-4.988.345-.43.765-.796 1.107-1.224l.067-.065-.067.065c-.412.177-.812.406-1.212.61.724-2.276 2.083-3.528 3.849-5.017-.826-.416-1.645-.745-2.066-1.633-.595-1.256.119-2.983.58-4.188.492.568.996 1.18 1.402 1.813.746 1.165.566 2.172.306 3.438l1.292.576c-.47-2.14-.213-2.299.66-4.103.37-.764.679-1.561 1.027-2.335.284-.632.87-2.084 1.544-2.339l.183.148c.231.792.121 1.85-.009 2.662l-.035.21c-.12.721-.435 1.054-.899 1.603M107.48 33.01c.068.318.222.357.467.55l.05.066-.05-.066c-.159-.297-.177-.39-.467-.55m-8.234 5.597.129.144.172.172.056.073-.056-.073-.172-.172zm-17.591 16.77.122.065.067.183-.067-.184zm56.402 8.77-.056.075zc.884.016 2.743-.391 3.452-.896-1.09.09-2.492.361-3.452.896m0 .962c-1.882.115-6.002.885-7.436 2.033 1.678-.119 5.995-1.153 7.437-2.033l.066-.077zm-13.623 3.742c-1.744.064-4.29 1.017-5.625 2.15 1.823-.35 4.142-.972 5.625-2.15l.06-.069zm42.026.807.12.038c.813.41 2.058.813 2.972.845.102.03.218.076.323.085l.532.18.218.07.532.18.298.121.17.064-.17-.063-.298-.122-.532-.18-.218-.07-.532-.18c-.092-.044-.223-.061-.322-.085q-.704-.33-1.453-.543-.748-.213-1.52-.302zm-45.03 1.677c-1.89.54-4.162 1.181-5.8 2.288 1.736-.167 4.59-.993 5.8-2.288l.07-.06zm3.246 1.76c-2.847.914-5.448 1.194-7.743 3.311l-.058.078.058-.078c.718-.246 1.481-.322 2.216-.512 1.847-.477 4.109-1.502 5.527-2.799l.073-.063zm35.575 2.432.185.055.102.11c1.043.995 6.274 4.567 7.533 4.99-1.844-2.17-4.97-3.847-7.532-4.99l-.103-.11zm-67.332.923.005.041c.4.38 2.983-.724 3.675-.819.656-.09 1.25.003 1.891.139q.032.04.068.078c.355.35.741.347 1.205.362-.327-.299-.848-.348-1.273-.44-.004-.016-.005-.034-.014-.048-.198-.281-.528-.341-.85-.406-1.754-.35-3.264.126-4.707 1.093m-2.97-.157-.073.058zc1.237-.46 2.54-1.348 3.653-2.064-1.576.52-3.166.8-4.756 1.24-.185.06-.217.066-.409.157-.731.348-.934 1.256-1.175 1.954 1.415-1.076 1.893-2.018 3.75-2.53zm85.196-.157.062.047c.77 1.23 2.363 2.74 3.593 3.55-.728-1.222-2.369-2.796-3.593-3.55zM83.18 78.94l-.237.276-.04.165.04-.165zl.055-.19zm97.426.059.143.129.077.078c.773 1.026 2.046 2.246 3.122 2.957l.051.063-.051-.063c-.57-1.04-2.073-2.383-3.122-2.957l-.077-.078zm-16.831-4.383c.317.324.617.508 1.027.704 1.92.912 3.984 1.578 5.932 2.444 2.177.967 4.23 2.14 6.374 3.166l.109.07-.109-.07c-.563-.674-1.435-1.196-2.159-1.68-3.267-2.188-7.216-4.261-11.174-4.634m13.505 9.135.06.179.11.04c.63 1.228 3.796 5.956 4.724 6.953l.056.076-.056-.076c-.519-2.124-3.023-5.665-4.724-6.954l-.11-.04zm-89.015.804c1.478-.95 2.769-1.287 4.04-2.042.243-.145.32-.177.416-.45-.614-.392-1.813-.197-2.507-.042q-.532.114-1.043.3-.511.187-.991.443c-2.072 3.217-4.81 2.284-6.209 6.449-.158.473-.397 1.156-.315 1.658.008.049.026.095.04.142l.163.046c.356-.216.62-.48.913-.774.384-1.664.998-2.75 2.52-3.671q.114-.07.23-.133.116-.064.236-.122t.242-.11q.122-.05.247-.096.125-.045.252-.084.127-.038.255-.07.13-.032.26-.058t.261-.044.264-.031.265-.017q.132-.005.265-.004.133.002.265.01.133.009.264.024.132.015.263.037.131.023.26.051.13.029.258.064c.655.176 1.145.495 1.682.897.81-.077 1.525-.248 2.297-.497-.417-.227-.848-.441-1.255-.685 1.016.061 2.05.148 3.068.096 1.113-.057 2.217-.255 3.33-.305 1.254-.058 2.522.106 3.766-.082-.549-.176-1.123-.388-1.691-.483-.735-.125-1.57-.057-2.317-.07-2.345-.043-4.443-.22-6.665.692l-1.834-.308c1.152-.421 4.644-1.277 5.355-1.968-.334-.276-1.048-.222-1.462-.185-1.808.161-3.568 1.11-5.388 1.422m24.61 1.593c-.844-.334-1.14-.37-1.997-.082.582.276 1.29.358 1.905.126q.047-.02.092-.043c1.828-.123 4.938 1.001 6.78 1.569l-.915-.695c-.938-.782-1.764-1.228-2.954-1.517-.76-.185-2.639-.534-3.28-.052-.138.105-.08.12-.079.33zm54.52-.005.06.049c.498.837 8.62 9.068 9.483 9.619l.085.082.085.092-.085-.092-.085-.082c-.835-1.97-7.5-8.564-9.483-9.62zm5.385.492.058.056c.913 2.263 4.007 4.166 5.603 6.066 1.347 1.602 1.737 3.774 2.967 5.427l.06.066-.06-.066q-.014-.107-.032-.213c-.887-4.559-4.673-8.894-8.538-11.28zm12.982-.01.107.132.188.318.045.03c.289.748.802 1.536 1.333 2.138l.064.132-.064-.132q-.042-.154-.096-.305-.053-.15-.118-.297-.064-.146-.138-.287t-.16-.277-.178-.265-.197-.25q-.103-.123-.215-.237t-.231-.22l-.045-.03-.188-.318zm-35.355-6.117c2.391 1.904 6.863 3.124 9.738 4.298 2.01.821 4.193 2.006 6.293 2.473l.061.065-.06-.065c-2.522-2.677-12.26-5.943-16.032-6.771M121.375 87.4l.08.046c.948 1.268 2.349 2.451 3.795 3.101-.76-1.028-2.546-2.714-3.794-3.101zm61.273.225.061.074c.564 1.321 1.435 2.551 2.058 3.859.84 1.766 1.437 3.703 2.37 5.415-.203-2.716-2.44-7.388-4.428-9.274zm-23.517-7.506c.749.715 5.625 2.796 7.2 3.684 2.255 1.272 3.956 3.309 6.224 4.5l.047.054-.048-.054a5 5 0 0 0-.669-1.028c-1.688-2.025-5.901-4.886-8.305-5.961-1.366-.61-2.96-1.064-4.45-1.195m32.822 8.157c.356-.254.717-.48 1.095-.699-.813.056-1.643.15-2.457.1.58 1.527 1.215 3.053 1.5 4.67.833.093 1.689.25 2.523.293l.124.082-.124-.082c-.462-.358-1.011-.541-1.548-.758 2.008-.39 2.482-.753 4.611-.2-.539-.31-1.035-.663-1.539-1.026.804-.273 1.627-.483 2.45-.687l.036.156-.035-.156c.061-.044.118-.096.185-.132 1.794-.973 4.559-.515 6.363.16-.505-1.481-1.11-2.94-1.667-4.403-.237.452-.486.898-.827 1.28-1.95 2.18-5.937 1.809-8.648 2.011.558-.344 1.135-.663 1.701-.993-1.305-.016-2.463.19-3.743.385m-102.11.692c-.687.382-1.458.853-2.282.653-.413-.1-.777-.355-1.132-.578l-.124.185c.492.522.955.796 1.69.815a2.1 2.1 0 0 0 1.548-.633c.133-.132.216-.276.3-.442l.031-.091zm1.445.8c.227-.527.45-1.03.759-1.516q2.741-.091 5.484-.127c-1.45-.823-3.1-1.395-4.779-.944-.58.156-1.34.57-1.614 1.132-.846 1.74-.815 2.112-2.827 2.921-1.414.57-3.23.587-3.94 2.178-.436.974-.367 2.147-.39 3.19.759-1.43 1.482-2.854 3.146-3.359 1.052-.319 2.19-.403 3.216-.81 1.134-.452 2.166-1.245 3.297-1.754-1.611.161-4.788.83-6.24 1.604-1.082.576-2.016 1.405-3.028 2.09 2-2.807 2.578-1.886 5.135-3.018.579-.256 1.015-.78 1.57-1.072l.061.127c.622.237 1.904-.126 2.618-.173 1.715-.116 4.616-.186 6.275.02-.404-.33-.82-.737-1.313-.923-1.677-.63-5.793-.369-7.43.434m-7.237.805c-.599.42-1.417 1.454-1.552 2.173-.027.142-.033.282-.041.426l-.006.08c.527-.391 1.435-2.007 1.6-2.679l.056-.046zm58.577 1.435.077.046q.623 1.045 1.375 2.001c1.104 1.411 2.433 2.435 3.843 3.518 3.838 2.948 4.705 3.507 9.356 4.956 1.199.373 2.397.813 3.648.965-.898-.71-2.08-1.253-3.064-1.86l-7.645-4.748c-1.925-1.208-5.7-4.16-7.513-4.832zm-25.85.255.058.053c.947 2.397 2.666 3.481 4.84 4.63-.984-2.468-2.719-3.294-4.84-4.63zm-1.528.612.125.125c.127.1.227.181.375.25l.172.172.107.107.096.094-.096-.094-.107-.107-.172-.172c-.114-.1-.245-.17-.375-.25zm-16 .01.174.18.054.184-.054-.184zm83.773 3.24.072.054c.156.54.411 1.317.844 1.686l.06.135-.06-.135c-.152-.636-.399-1.2-.844-1.686zm-36.397-5.776c2.291 2.812 5.084 6.153 8.675 7.311l.055.06-.055-.06c-2.028-2.649-5.524-6.078-8.675-7.31m-50.98 6.173c.968.954 3.124.971 4.432 1.395l.029.06c.502.7 1.462 1.395 2.325 1.578l.067.05-.067-.05c-.52-.633-1.585-1.237-2.325-1.577l-.03-.06c-1.237-1.157-2.857-1.097-4.431-1.396m11.126 1.228.04.088c.647.67 1.101 1.923 1.925 2.31-.055-.371-.207-.756-.366-1.096-.318-.681-.879-.975-1.559-1.214zm77.229.376.124.249.072.216-.072-.216zm-86.25.503.192.055.258.27.246.065.052.087-.052-.087-.246-.065-.258-.27zm-15.197 1.672c-6.464 5.294-12.075 21.568-14.937 29.693-.26.737-1.395 4.844-1.805 4.83.157-.861.477-1.612.752-2.438a194 194 0 0 1 2.098-5.93c.983-2.654 1.856-5.33 2.93-7.952.375-.914.858-1.778 1.244-2.686 2.399-5.642 4.835-11.235 9.045-15.822l-.077-.106c-.383.036-.709.063-1.067.22a4 4 0 0 0-.468.734l-.14-.686c-.315.062-.407.256-.582.509-3.686 5.33-13.86 29.226-14.02 35.666 4.073-7.619 6.507-15.981 10.555-23.638 1.756-3.321 3.785-6.719 6.196-9.607.574-.688 1.24-1.269 1.834-1.932.148-.165.126-.072.065-.283-.956-.129-1.21.662-1.997.809.206-.267.397-.476.651-.697l.066-.143.206-.091-.206.09-.066.144c-.24.067-.39.186-.617.064zl.07-.05zm24.447-.16.083.109c.254 1.088.534 1.935 1.336 2.749-.16-.959-.738-1.994-1.336-2.749zm-62.857 1.05c-.913 1.03-1.728 1.683-3.057 2.136-1.798-.294-3.366-.965-4.767-2.145.752-.245 1.502-.485 2.235-.784-1.364.091-2.597.277-3.7-.706a1.05 1.05 0 0 1-.28-.38c.231-.243.35-.258.658-.37-.57-.562-1.902-.734-2.641-1.135-.467-.254-.882-.628-1.283-.974l1.724-.138c-2.74-1.053-4.749-3.27-7.444-4.348-.7 3.157-1.124 6.36-1.784 9.52 3.71.232 5.443.57 8.88 1.993-.42-.634-.864-1.26-1.199-1.945 1.818.906 3.214 1.654 4.427 3.377-.315-1.108-.65-2.005-1.315-2.958 1.849.913 2.759 1.824 4.31 3.102l.06.063-.06-.063c-.073-.576-.303-1.11-.5-1.652 2.237.787 3.493 1.751 4.637 3.84.418-2.07 1.03-4.316 1.099-6.432l.074-.052zm71.256 2.81.054.184.115.034c.603 1.799 1.993 3.043 3.356 4.274-.556-1.491-2.068-3.375-3.356-4.274l-.115-.034zm-.542.135c-.007.03-.022.06-.02.091.01.315.23.398.455.579l.051.05-.051-.05a3 3 0 0 0-.21-.653zm11.105-6.028c1.021 1.062 2.052 2.174 3.214 3.081 1.08.844 2.297 1.562 3.427 2.343.924.638 1.847 1.349 2.829 1.89l.058.055-.058-.054c-.512-.938-1.131-1.913-1.825-2.727-1.632-1.915-5.08-4.365-7.645-4.588m-12.328 7.412.051.06c.031.118.038.159.091.287.35.842 1.1 2.3 1.948 2.643q-.007-.052-.017-.105c-.22-1.023-1.143-2.267-2.022-2.826zm63.714-7.184c.22.927 4.999 7.748 5.961 8.781l.064.128-.064-.128c-.916-2.641-4.12-6.701-5.961-8.781m-58.7 8.79.058.18.203.075c.492.827 1.17 2.183 1.883 2.802l.054.066-.054-.066q-.021-.09-.045-.179c-.258-.876-1.02-2.162-1.838-2.623l-.203-.075zm34.417-14.69c2.697 3.005 4.876 6.527 8.016 9.115 1.361 1.122 2.915 2.012 4.41 2.94 1.775 1.101 3.667 2.229 5.69 2.795l.06.058-.06-.058c-1.19-1.554-5.599-4.453-7.403-5.774a85 85 0 0 1-4.781-3.748c-1.709-1.45-4.08-4.475-5.931-5.327M106.48 108.3c-1.883-.404-3.755-1.075-5.605-1.623-2.487-.737-4.99-1.396-7.494-2.078-3.01-.82-6.086-1.89-9.243-1.496 2.199.71 4.286 1.739 6.383 2.699 1.841.842 3.708 1.643 5.524 2.535l-.04.09c-2.088-.13-9.73-3.528-12.19-4.553-3.968 3.988-9.495 15.532-11.905 21.103-1.05 2.428-4.018 11.164-5.45 12.443-.26.234-.623.404-.978.41-.312.006-.57-.157-.77-.384-.751-.854-.094-3.341.081-4.402-.61.364-1.227.749-1.867 1.06-.48.233-2.364.824-2.574 1.163.262.044.593.03.776.225-.15.113-.067.092-.247.068l-.004.187c-.075.016-.152.022-.225.048-.388.138-.778.416-1.16.587-1.062.476-2.16.877-3.227 1.347 1.168-.143 2.324-.319 3.452-.66-1.894 1.884-3.593 2.603-6.214 2.949.899.105 1.827.264 2.731.244-1.791 1.56-3.319 1.934-5.647 2.064.92.223 1.806.414 2.75.5-1.397 1.18-3.267 2.212-5.159 2.059-.87-.071-1.51-.382-2.123-.988.152 2.217.338 4.545.897 6.7 1.194-2.491 2.61-4.102 5.104-5.322-.03.585-.08 1.177-.073 1.763 1.633-2.212 3.599-3.433 6.118-4.475-.468.807-.719 1.54-.924 2.454 1.604-1.992 2.913-3.41 5.59-3.825l.095.146-.29.626-.087-.124.101.185c2.985-1.085 5.884-1.364 9.014-.694-2.946 1.505-5.874 2.435-8.743 3.798.946-.116 1.905-.27 2.86-.255-1.701 1.845-3.393 3.262-5.678 4.351-.856.409-1.817.726-2.615 1.233.87-.058 1.72-.128 2.58-.275-2.234 2.686-6.119 4.864-9.624 5.174-.929.083-1.767-.006-2.675-.227.412 2.111.986 4.176 1.617 6.23 2.728-.049 5.463-.136 8.192-.126-1.036-.917-2.226-1.383-3.48-1.933 6.025-.551 12.105-1.085 18.109-1.825 2.118-.262 4.202-.762 6.313-1.008-1.37-.099-3.706.2-4.658-.962-.082-.099-.154-.206-.227-.312l.04-.186c1.164-.393 3.915-.206 5.297-.3 3.838-.261 7.617-.585 11.347-1.576q-2.676-.691-5.328-1.47c3.714-.244 8.181.372 11.668-.204-1.629-.689-3.18-1.445-4.576-2.543 2.812.403 5.904.83 8.48 2.063 4.229-1.038 8.636-1.27 12.939-1.848 1.47-.197 2.877-.672 4.372-.654l.225-.002h.134c.26-.474.482-1.004.911-1.347 1.113-.133 1.937.53 2.947.872.808.274 2.027.164 2.869.147 4.346-.086 5.014-1.051 7.603-4.346 1.309-1.666 5.74-7.216 5.641-9.057-.009-.166-.006-.137-.133-.224-.17-.116-.346-.198-.532-.285-.218-.418-.207-.728-.056-1.174.183-.544.493-1.067.761-1.574-.518.139-1.054.258-1.559.439.198-1.16.858-3.467.245-4.523-.14-.24-.482-.237-.683-.397-.641-.51-.274-2.596-.164-3.345-2.262-1.45-3.548-5.46-5.309-7.588l-.064-.072.064.072c.278 1.603 1.617 3.039 2.168 4.587l-.087.164-.3.013c-1.532-.684-2.815-3.291-3.666-4.698.027.572.112 1.201-.01 1.763-1.515.267-3.698-4.441-4.93-4.82.121.398.451.582.769.822.13.59.322 1.175.491 1.756-1.695-.82-3.407-1.976-4.534-3.505l-.423 1.519c-1.828-1.54-3.706-3-5.511-4.572l-.255.338c-1.278-.251-3.023-2.573-3.828-3.544.184.522.45 1.08.436 1.639-.28.092-.399-.017-.621-.19-.597-.47-1.128-1.117-1.63-1.683-2.045-2.309-3.16-3.763-6.186-5.026.467.463 1.316 1.141 1.363 1.828-.566.158-4.2-1.77-5.103-2.138q.84 1.108 1.658 2.233l-.122-.031-.204-.057c-1.751-.474-3.412-1.4-5.129-2.02.196.233.41.468.58.72.175.258.198.393.128.687-.038.021-.074.048-.115.064-.768.31-3.18-.756-4.027-1.044.582.514 1.222.954 1.853 1.406-1.634-.08-3.24-.573-4.868-.612-.321-.008-.626-.052-.86.177 1.207 1.237 15.804 4.864 18.733 6.453m28.052 2.208.07.05c2.031 3.416 3.897 5.131 7.69 6.393l-.106-.147c-1.063-1.499-1.867-3.167-2.88-4.7-2.208-3.341-6.084-7.603-9.732-9.455 1.28 2.74 3.904 4.532 5.938 6.684 1.087 1.15 2.034 2.423 3.124 3.57.792.833 2 1.8 2.536 2.794-1.108-.713-1.99-1.952-3.01-2.807-1.07-.895-2.404-1.538-3.56-2.332zm-4.582-1.257c.305.722.786 1.461 1.228 2.111l.06.138-.06-.138-.02-.192c-.106-.8-.576-1.45-1.208-1.919m1.302 2.374.056.137c.17.624.4 1.297.89 1.745.004.379.264.728.52.992.106.108.22.213.34.306l.05.063-.05-.062c-.12-.417-.48-1.073-.86-1.299-.157-.608-.504-1.254-.89-1.745zm20.404.5.072.058q.11.307.228.611c.486 1.246 1.493 2.103 2.701 2.638-.747-1.188-1.9-2.3-2.93-3.249zm-129.201 1.129c3.108-.101 5.355 0 8.349.927l.052.051-.052-.051a2.3 2.3 0 0 0-.55-.737c-.124-.116-.093-.17-.111-.334l-.029.08.29-.216-.181.042.287.143.1-.138c1.11.433 2.177 1.188 3.128 1.902-.242-.56-.514-1.105-.78-1.653 2.085.67 3.16 1.516 4.48 3.249-.281-.944-.65-1.722-1.145-2.566 2.438.519 3.781 1.403 5.534 3.147q.297-3.162.735-6.309c-.617.98-1.191 1.702-2.367 2.026-1.706.47-3.637-.328-5.11-1.158.432-.174 1.209-.39 1.49-.755-2.215.048-3.593-.545-5.325-1.882.793-.127 1.604-.185 2.404-.266-1.765-.216-3.119-.585-4.708-1.405.446-.1.866-.174 1.264-.409-.3-.39-1.506-.726-1.99-.996-1.613-.9-3.064-2.022-4.538-3.127-.464 3.489-.945 6.923-1.227 10.435m103.603-9.382c.743 1.443 2.51 2.63 3.6 3.85 2.373 2.66 2.774 4.78 6.388 6.707l.056.055-.056-.055c-1.566-3.197-6.729-9.209-9.988-10.557m35.819 12.53.066.062c.273.359.655.676 1.01.957 2.297 1.816 4.98 2.645 7.882 2.289-.374-.379-1.638-.242-2.194-.477-2.195-.93-4.289-2.447-6.698-2.769zm27.877 1.558c-.677.631-2.31 2.434-3.24 2.397-.041-.002-.081-.015-.122-.022-.23-.79 1.634-3.663 2.021-4.615-.44.484-.862 1.034-1.428 1.37l-.19-.094c-.113-.534.123-1.067.189-1.598-.656.35-1.306.717-1.995.996a14 14 0 0 0-1.718-.312c-.066.677-.039 1.476-.6 1.957-.623.536-1.501.345-2.24.25a17 17 0 0 1-1.059-.163c-.543.298-1.066.59-1.649.806q-1.057-.455-2.107-.928c.146.843.292 2.01-.181 2.772-.107.172-.196.147-.377.19-.312-.162-.424-.45-.585-.746-.259.691-.738 2.49-1.35 2.817-.173-.022-.618-.14-.745-.027-.377.336-.38 1.178-.358 1.64.062 1.29.457 2.579.795 3.817-.572-.102-1.145-.199-1.713-.321.612 1.652 1.632 4.656.854 6.396-.095.212-.137.19-.33.288-.465-.157-.542-.42-.812-.815.119 1.578.582 3.781.164 5.302l-.225.248c-.316-.038-.421-.113-.628-.36-.164-.195-.307-.415-.453-.624.149.677 1.305 4.91 1.18 5.208l-.03-.108.255.176.01.061-.2.064.045.228c-.518.016-.945-.402-1.324-.714.525 1.876 1.133 5.483 2.039 6.984.299.496.694.881 1.197 1.168.701.401 4.64 1.791 5.62 2.1l1.329-.32c.286-.65.558-1.308.893-1.933 1.147.422 2.154.747 2.708 1.934q.14.303.258.615l1.652.158c.886-.626 1.499-1.076 2.633-.887 3.475.578 2.94 2.149 4.783 2.867 1.52.593 3.281.912 4.864 1.315q4.675 1.159 9.317 2.445c.572-1.628.94-3.209 1.21-4.912-1.172.792-2.137.962-3.554.7-1.79-.332-3.492-1.245-4.925-2.348a20 20 0 0 0 2.537-.545c-3.307-.433-5.078-1.754-7.603-3.82.733.032 1.45.058 2.185.013-2.67-1.239-4.545-2.148-6.744-4.159.512.104 1.351.357 1.849.129-.366-.456-5.113-2.975-5.967-3.39-1.012-.494-2.067-.882-3.086-1.355 2.659-.501 6.19-.782 8.533.915.245.177.461.39.686.592q.124.109.25.216c-.369-.708-.723-1.43-1.128-2.118 1.393.806 2.854 1.659 4.006 2.797-.185-.722-.343-1.464-.597-2.166 1.954 1.286 3.621 2.554 5.237 4.263-.207-.689-.401-1.382-.66-2.053 2.321 1.362 4.057 2.652 5.234 5.132.026-.681.058-1.362.053-2.044 2.077.826 3.458 1.956 4.536 3.932.324-2.193.78-4.456.85-6.67-.853.829-1.617 1.298-2.856 1.285-2.242-.022-5.568-2.175-7.343-3.47l2.489-.379c-2.164-.3-3.622-.88-5.467-2.07.643-.135 1.285-.286 1.938-.357-1.75-.769-3.468-1.5-5.12-2.473l1.671-.299c-1.712-.443-3.24-1.29-4.888-1.902-1.35-.501-2.778-.797-4.175-1.136 2.586-1.086 5.676-1.314 8.31-.257.734.294 1.448.656 2.162.994-.397-.54-.869-1.091-1.205-1.667 1.885.588 3.994 1.705 5.352 3.14l-1.093-2.567c2.227 1.124 4.156 2.24 5.91 4.043l.01-1.604c1.962 1.163 3.459 2.376 4.878 4.168q.327-3.182.39-6.381c-.218.317-.44.648-.725.908-.561.51-1.406.681-2.144.625-1.232-.094-3.428-.876-4.247-1.845.189-.289.554-.37.866-.51-1.842-.151-3.09-.76-4.75-1.473l2.313-.177c-1.285-.342-2.471-.72-3.66-1.322l1.448-.53-1.376-.058c-.642-.029-1.48.057-1.935-.441.188-.397.524-.53.899-.744-2.683-.196-5.34-1.464-7.929-2.213 3.165-1.402 5.479-1.088 8.657-.011-.42-.53-.85-1.05-1.276-1.576 1.749.86 3.689 1.39 5.481 2.185q-.54-.849-1.07-1.703c1.85.759 3.41 1.403 4.941 2.733-.165-.64-.385-1.24-.622-1.856 2.382 1.037 3.695 1.674 5.365 3.767.042-2.263-.068-4.53-.144-6.79-.59.792-1.196 1.496-2.166 1.812-1.361.444-3.417-.193-4.641-.858l-.028-.16c.22-.069.66-.137.792-.315-1.078-.376-2.56-.293-3.713-.365.534-.284 1.043-.605 1.556-.924-1.378.093-2.674.16-4.037-.103.598-.278 1.178-.588 1.762-.895-1.015-.07-3.121.192-3.958-.302l.028-.16.63-.272-.043-.116c-2.079-.543-5.826.099-7.286-.47.552-.316 1.05-.712 1.605-1.021 2.486-1.387 4.73-1.423 7.49-1.167-.498-.33-.97-.694-1.447-1.053 1.522.358 3.02.78 4.523 1.212-.486-.643-1.035-1.048-1.7-1.486 1.778.195 3.07.624 4.665 1.425-.331-.465-.698-.907-1.052-1.354 2.7.173 4.81.365 6.846 2.36q-.311-2.523-.59-5.05l-.136-.76-.15-.097c-.692.853-.986 1.671-2.148 1.962-.99.247-4.056.416-4.898-.07l.619-.241c-.342-.31-4.093-.128-4.834-.148.533-.154 1.057-.275 1.528-.58l-.032-.122c-1.242-.207-2.955.133-4.246.219.45-.343.93-.642 1.404-.951-1.429-.053-2.81.053-4.226.242l1.66-.874-2.048.005c-.549 3.035-1.186 4.918-2.833 7.549m-39.223-.084.061.062c.733 3.196 2.625 5.482 4.975 7.636-1.369-2.88-2.122-5.803-4.975-7.636zm4.501 2.624.061.066q.058.286.14.566c.79 2.631 2.478 5.49 4.686 7.176.82.627 1.772 1.117 2.677 1.61-.638-.906-1.53-1.683-2.22-2.568-1.63-2.095-3.36-5.04-5.283-6.784zm-21.692-3.84q.127.372.274.736.146.364.312.72.166.355.351.701t.388.682.425.659.46.635.494.61.526.582l.09.187.085.078-.084-.078-.09-.187c-.775-1.782-2-3.818-3.23-5.325m19.792 7.216.05.065c.23.62.585 1.019 1.115 1.406-.213-.572-.638-1.038-1.114-1.406zm-131.25.657c3.456-.247 5.512-.318 8.808.886l.046.06-.046-.06c-.287-.502-.673-.837-1.094-1.222 2.94.43 4.198.684 6.606 2.589-.453-.85-.96-1.506-1.625-2.192 3.21.489 5.084.858 7.21 3.545.009-2.194.024-4.393-.1-6.584q-.116.188-.245.367c-.652.897-1.503 1.53-2.623 1.688-1.63.231-3.136-.498-4.4-1.448.65-.227 1.258-.468 1.876-.777-.585.046-1.17.052-1.756.063-1.529-.174-2.835-.91-3.992-1.882a38 38 0 0 0 1.99-.427c-1.823-.22-3.162-.482-4.76-1.43l1.517-.583c-2.452-.273-4.707-1.698-6.897-2.767-.03 3.386-.381 6.787-.516 10.174m129.767 4.968.07.067c.237.856.264 1.754-.156 2.572-.13.253-.206.267-.455.362-.362-.233-.463-.604-.63-.994-.233 1.53-.572 2.508-1.6 3.693-.406-.458-.802-.929-1.225-1.37-.021 1.08-.039 2.405-.866 3.222-.361.356-.626.314-1.084.373-.054.007-.104.03-.156.045-.495 1.042-.963 2.38-1.845 3.145l-.3.083c-.037-.31.092-.844-.075-1.074-.797.803-1.002 2.025-1.661 2.92-.433.586-1.367.713-1.707 1.19-.194.272-.143.694-.353.983-.821 1.129-3.463 3.03-3.342 4.638.027.351.208.552.488.739.72.478 2.013.688 2.873.726.907.04 1.823-.253 2.735-.299 3.591-.178 9.665-.434 13.068.356-4.472.517-8.835 1.206-13.34 1.444.853.688 3.12 2.45 3.12 3.644 0 .303-.124.375-.327.562-.494-.047-.621-.359-1.01-.623-.448-.302-1.361-.212-1.899-.327-.65-.138-1.293-.44-1.943-.613-1.647-.44-4.962-1.08-6.636-1.098-.555-.006-1.092.156-1.616.32-2.608.818-5.186 1.834-7.754 2.773-1.797.658-3.622 1.247-5.41 1.928-1.531.584-3.112 1.593-4.689 1.976-.166-.385.016-.778.16-1.144.507-1.297 1.392-2.337 1.988-3.56.45-.297 1.342-1.049 1.851-1.015l.063.054c-.272.521-.789.813-1.278 1.108q.491 1.112.933 2.244c-.01-.47.002-.884-.18-1.324l.118-.308.151-.042c.307.213.671.604 1.032.583.233-.347.397-.616.32-1.06-.09-.531-.52-1.089-.995-1.341-.218-.116-.22-.095-.44-.172-.211-.074-.488-.249-.695-.285-1.427-.245-6.248 2.246-9.213 2.046.278-.696.6-1.317.984-1.96-3.256.957-6.9 1.17-10.261 1.677 2.28-1.07 6.129-2.248 8.657-2.457.815-.067 2.135.07 2.65-.591.043-.327.055-.619.05-.948-.008-.556.084-1.166.497-1.577.35-.347.806-.59 1.233-.828l.076-.058-.076.058c-1.496.267-3.046 1.057-4.491 1.566q-3.644 1.305-7.412 2.192c-4.041.971-8.117 1.695-12.194 2.488-4.195.816-8.315 1.78-12.553 2.408-5.74.85-11.714 1.22-17.514 1.506 2.659 1.63 5.368.623 8.17 1.578-3.135 1.298-6.58 1.766-9.9 2.362-6.267 1.124-12.673 1.91-18.865 3.374 1.894-.039 3.79.087 5.684.041 4.616-.112 9.192-.39 13.814-.315 5.705.094 11.402.551 17.109.435 3.377-.069 6.753-.308 10.129-.433 13.153-.487 26.4-1.1 39.563-.758q11.24.239 22.46.966c4.837.307 9.689.825 14.531.986 4.763.158 9.648-.152 14.43-.167 8.019-.025 16.035.16 24.056.114l14.633-.102c3.172-.04 6.354-.04 9.518-.297-8.39-1.435-16.974-1.807-25.454-2.394-3.528-.244-7.057-.432-10.58-.738-3.707-.321-7.419-.764-11.14-.867-3.954-.109-7.954.205-11.91.335 1.363-.511 2.849-.833 4.27-1.148 6.03-1.336 10.408-.988 16.388.103 1.819.331 3.74 1.025 5.576 1.124 1.055.057 2.139-.04 3.196-.06q2.71-.046 5.42.005c7.275.137 14.458.47 21.733.002-4.191-.683-8.472-.886-12.637-1.713-4.03-.8-8.052-2.3-12.118-2.794-3.398-.412-6.883-.132-10.299-.37 2.473-.623 5.119-.385 7.574-.995-2.895-.624-5.779-1.181-8.644-1.947-1.843-.494-3.67-1.03-5.519-1.502-.347-.09-.721-.255-1.076-.298-.336-.04-.559.103-.833.273l-.03.202c.028.03.054.063.085.09.44.385 1.01.186 1.528.13 1.164.623 2.785 2.416 3.508 3.54l.097.153c-1.622-.214-10.387-.69-10.958-1.078 3.095-.206 6.73-.202 9.757.495-1.334-.917-2.928-1.561-4.47-2.038-1.73-.536-4.595-1.487-6.347-.964-1.318.393-1.412 1.86-2.42 2.563-2.766 1.927-5.753 3.554-8.724 5.135-.874.465-4.393 1.909-5.212 1.66l-.117-.25c.196-2.67 6.241-5.707 7.031-7.282l-.207-.2c-1.53.14-3.877 1.695-5.367 2.312-1.716.71-3.501 1.151-5.237 1.784-1.483.54-2.847 1.24-4.406 1.572.822-2.445 2.601-4.395 4.835-5.634.689-.382 1.604-.683 2.148-1.241.08-.343.098-.424-.098-.747-.642-1.056-3.91-.718-5.1-.867l-.192-.025c2.734-1.73 8.46-2.78 11.749-2.819 1.137-.013 2.337.347 3.459.07 1.278-.316 1.96-.919 2.626-2.025.151-2.508-.077-5.254-.381-7.747-1.086-1.234-.29-2.39-.998-3.68-1.964-.614-.86-2.388-1.819-3.658q-.202.179-.4.362c-.069-.029-.141-.05-.206-.085-.96-.529-1.078-2.229-1.18-3.178-.507.287-1.031.5-1.57.716-1.065-1.666-1.728-3.551-2.826-5.221.096.473.202.951.26 1.43.055.469.196 1.41-.097 1.79-.609-.312-1.854-3.252-2.305-4.056.283 1.047 1.165 3.382.716 4.37-.09.2-.195.182-.385.253-.728-.176-1.17-.685-1.691-1.188zm14.543.225.061.084c.692.84 1.762 1.258 2.82 1.327l.052.083-.053-.083c-.65-.57-2.046-1.187-2.88-1.411m-30.473 22.23c.298.239.55.447.914.582.415-.132.538-.356.823-.677.055.338.005.496.286.717.188.016.458.023.622.12.297.177.388.313.75.412.052-.205.077-.413.108-.621-.103-.195-.123-.28-.31-.413-.398-.283-.993-.276-1.456-.214-.008-.025-.011-.053-.024-.076-.139-.233-.317-.294-.562-.372-.235.044-.354.078-.554.217-.253.178-.122.111-.416.247q-.09.04-.181.078m-27.12-131.28.04.087zm48.325 2.993.046.084zm-47.381 7.518h.144zm50.649 12.154-.022.155.148-.103.11-.17zm-66.888 1.721h.078zM145.47 62.67c-.514.04-1.962.009-2.291.356l.1.08c.746-.077 1.524-.11 2.253-.29l-.016-.122zm45.524.299c-.902 2.19-2.068 2.934-4.177 3.81-3.126 1.298-6.775 2.35-10.185 2.342 1.697 1.398 3.49 2.762 5.018 4.346.727-.332 1.436-.68 2.142-1.056l-1.012-.144-.274-.117c.36-.59 2.653-1.089 3.406-1.424-.775.068-1.509.168-2.27-.04l-.073-.134c1.162-.756 3.23-.928 4.589-1.209-.843-.201-1.691-.38-2.501-.694.993-.21 2.235-.252 3.155-.644l-.03-.127-.393-.211c.346-.475 2.07-.829 2.704-.927.895-.138 1.77-.076 2.669.003-.757-1.105-1.775-2.982-2.768-3.774m-56.198.166c-3.277.935-6.343 2.367-9.346 3.965l-.039.109.295.002c.771-.24 1.56-.475 2.306-.784 1.485-.613 2.869-1.45 4.33-2.113.766-.346 2.241-.615 2.779-1.154zm16.3.919c-2.162.123-4.358.203-6.5.534.708.24 1.567.146 2.309.106 2.368-.065 4.72-.38 7.084-.513-.944-.119-1.942-.255-2.893-.127m-2.751 1.74c-.718.059-2.446.128-2.985.619.47.016.888-.046 1.35-.128.75-.096 2.425-.129 3.003-.536-.452.006-.92-.015-1.368.045m9.919 1c1.294.475 5.178 1.063 6.515.798-2.09-.31-4.403-.962-6.515-.799m-13.586.361c-3.44.641-6.369 2.194-9.507 3.617-.626.283-1.535.494-2.044.947l.28.104c4.017.056 7.807-3.037 11.389-4.53l-.007-.126zm5.107.518c2.846 1.171 4.057 1.236 7.048.814l.066-.067c-1.871-.33-5.285-.892-7.114-.747m-22.065 1.202c-1.974.867-3.486 1.986-5.27 3.16-.502.33-1.046.578-1.535.925l.057.148c2.142-.92 5.497-2.123 6.854-4.134zm-9.7.974c-.542.287-4.421 2.265-4.542 2.62l.179.035c1.604-.503 3.204-1.418 4.505-2.493l-.057-.139zm40.498.172c1.891.775 3.988 1.13 5.955 1.679 1.164.325 2.36.838 3.542 1.048-2.06-1.613-6.846-2.523-9.497-2.727m37.169.064c-.66 1.535-1.251 2.437-2.885 3.082-2.938 1.161-6.591 1.252-9.725 1.533 1.235 1.477 2.241 3.099 3.39 4.637a11.7 11.7 0 0 0 3.14-.927c-.679-.023-1.364-.028-2.042-.084l-.398-.187.048-.165c1.024-.517 2.334-.677 3.432-1.047-.576-.066-1.445-.051-1.931-.368.112-.224.12-.231.353-.302.793-.241 2.096-.029 2.934.017l-1.409-.811c2.715-1.201 4.879-2.05 7.853-.956-.679-1.155-1.849-3.54-2.76-4.422m-63.399.19c-2.217.542-4.803 1.425-6.637 2.812l-.043.132.168.019c2.343-.42 4.628-1.702 6.678-2.888zm15.377 1.298a23 23 0 0 0-5.233.716c-1.018.257-2.048.616-3.087.772-2.65.399-5.76-.096-8.237 1.051l.044.075c.257-.02.514-.037.77-.064 2.035.02 4.124.153 6.15-.01 1.345-.108 9.957-1.743 10.683-2.413.027-.025.048-.056.072-.085-.291-.2-.817-.081-1.162-.042m4.303.025c.713.573 1.41 1.125 2.262 1.48 1.819.755 5.706.979 7.689.776q.206-.02.411-.047c-.248-.288-.469-.412-.828-.538-1.613-.57-7.336-1.556-9.079-1.658q-.227-.014-.455-.013m-39.871 2.201c-.516.059-1.46.083-1.808.476l.242.03c.549-.036 1.55-.038 1.921-.456-.244-.087-.125-.077-.355-.05m15.922.364c-1.833.334-3.824.687-5.487 1.553l.014.1.608.008c2-.117 3.762-.128 5.386-1.485l.06-.156a2.7 2.7 0 0 0-.581-.02m-14.051.611c-.905.163-1.644.454-2.458.89 1.054-.068 2.129-.094 3.177-.213.82-.205 1.627-.43 2.434-.684-1.048.002-2.105-.025-3.153.007m-5.25.123c-.735.181-2.187.42-2.726.94.149-.005.27-.006.414-.048.937-.24 1.912-.444 2.805-.819l.007-.102zm34.991.226c-.21.103-.457.164-.573.37.477.007.92-.088 1.387-.18l.385.044-.031-.113a3.6 3.6 0 0 0-1.168-.121m3.095.03c2.84 1.576 6.583 2.117 9.708 2.953 1.083.29 2.36.87 3.47.898-3.138-2.069-6.726-2.957-10.394-3.535-.895-.141-1.879-.346-2.784-.316m-16.44.103q-.066.017-.13.036c-1.259.362-2.371 1.111-3.677 1.307-1.846.276-6.295-.822-7.609.505l.048.216.324.169c3.41.773 5.575.009 8.778-1.1.699-.242 1.768-.495 2.363-.912.036-.026.069-.058.103-.086l-.054-.117zm-44.651.23c-.504.504-1.018.983-1.163 1.704l.135.22c.35-.605.72-1.186 1.112-1.765zm51.888.433c-1.929.306-3.92.56-5.815 1.037 1.664.058 3.419.21 5.065-.082 1.894-.289 3.828-.521 5.698-.938-1.647-.088-3.303-.2-4.948-.017m-27.31.46c-.465.134-.982.22-1.345.556.126.198.04.134.316.19.46.093.97.015 1.434-.025.463-.099.961-.158 1.35-.443l-.04-.154c-.553-.178-1.139-.174-1.716-.123m6.367.183h.153zm25.95-.004c1.398.77 7.12 1.959 8.881 2.179.79.099 1.577.097 2.371.057-2.317-.873-3.321-.706-5.558-1.14-1.856-.36-3.781-1.283-5.693-1.096m-37.456.197c.754.72 2.418 1.012 3.413.999a4.8 4.8 0 0 0 .993-.137c-.464-.396-3.553-.894-4.28-.873q-.063.003-.126.011m-8.462.142c-.67.148-2.082.29-2.526.83.215.262.53.26.856.296l.189.018c.629-.217 1.596-.618 2.04-1.121-.22-.112-.32-.054-.56-.023m-10.723.081c-.864 1.406-1.732 2.695-2.105 4.33l.857-.781c.557-.524 1.994-1.662 2.022-2.472.002-.04-.006-.08-.01-.12l-.158-.118q-.352.212-.7.432l-.11-.11c.084-.385.179-.767.204-1.16m6.158-.028c-.917.656-1.802 1.415-2.479 2.323l-.012.188.275-.01c1.152-.436 1.914-.972 2.622-2.01l.036-.271c-.172-.134-.221-.182-.442-.22m22.76.099c-.637.085-1.255.175-1.877.343 2.42.295 4.457 1.603 6.836 1.953.375.004.717.008 1.088-.041.034-.005.07 0 .104 0l-.044-.067-.07.062c-.028-.022-.054-.047-.084-.066-.614-.398-1.648-.542-2.351-.813-.874-.338-1.662-.9-2.54-1.22a2.55 2.55 0 0 0-1.061-.151m-24.807.21c-1.525.376-2.401 1.012-3.436 2.192-.167.192-.533.517-.627.744-.022.054-.027.113-.04.17.082-.019.229-.037.3-.075 1.629-.627 2.813-1.485 4.025-2.735l.079-.266zm39.143.541c-1.094.109-1.918.31-2.888.841.81-.007 1.642.023 2.447-.06 1-.107 1.971-.26 2.956-.46-.827-.201-1.655-.406-2.515-.321m-31.798.095c-1.245.3-2.338.774-3.487 1.33.83.1 1.52.19 2.34-.037 1.005-.418 1.993-.843 3.041-1.142l.55-.161c-.808-.014-1.64-.065-2.444.01m40.354.039-.488.112-.029.183c1.292 1.152 6.465 1.984 8.197 1.893a7.6 7.6 0 0 0 1.262-.168l.496-.161c-1.244-1.044-7.673-1.988-9.438-1.86m62.217.054c-.78 1.451-1.817 2.392-3.429 2.86-2.581.75-5.92.797-8.602.74a51 51 0 0 0 1.514 3.31q1.609-.254 3.226-.453c.305-.046.467-.044.718-.241-.444-.268-1.022-.351-1.523-.473 1.456-.529 2.549-.54 4.071-.33l-1.317-1.067c2.713-.354 4.827-1.096 7.544-.176-.599-1.272-1.243-3.168-2.202-4.17m-89.762.704c1.337.753 2.61.736 4.04 1.113 3.23.852 6.156 2.188 9.54 1.237 1.19-.334 2.349-.778 3.528-1.147l.288-.113-.054-.11c-3.003-.255-6.005 1.048-9 .822-2.312-.175-4.334-1.68-6.565-1.88-.575-.052-1.202.034-1.778.078m-4.277.2c-1.353.276-2.64.972-3.942 1.435l.685.139c.81-.096 3.185-.76 3.716-1.333.023-.025.04-.055.06-.083-.172-.057-.341-.123-.52-.157m-4.364.133c-.353.035-.709.028-1.007.24.322.07.56.058.885.03.419-.003.825.037 1.204-.168-.29-.198-.736-.132-1.082-.102m-20.382.197c-.156.251-.326.516-.413.8-.156.507-.854 5.057-.782 5.408.008.041.115.318.126.347.294.807.034 3.343-.14 4.24-.094.49-.116.852-.035 1.344l.155.157c.508-.402 2.212-4.585 2.302-5.36.02-.171.008-.207-.014-.356l-.117-.019a6 6 0 0 0-.568.871c-.027.047-.06.091-.09.136-.33.422-.652.846-1.027 1.23.4-.877.866-1.688 1.419-2.48.564-.808.903-2.429.908-3.404l-.129-.229c-.466.106-.734.61-.972.985-.203.32-.354.651-.679.865-.165-.319-.087-.842.028-1.182.191-.561.68-1.133 1.021-1.619q-.142-.71-.273-1.423c-.331.848-.648 1.706-1.023 2.535.036-.98.19-1.88.303-2.846m26.239.185c1.494.761 2.722 1.574 4.462 1.459-1.364-.978-2.752-1.557-4.462-1.459m24.384.262c-1.187.148-2.33.437-3.483.747 3.645.694 7.092 1.083 10.807.837a33 33 0 0 0 3.2-.429c-3.32-.674-7.116-1.456-10.524-1.155m-48.406.046c-.283.453-.913 1.208-.797 1.756.382-.474.91-1.016.817-1.675q-.008-.041-.02-.082m10.263.083c-2.352.195-3.17.21-4.981 1.924.627-.173 1.248-.34 1.9-.383.834-.056 3.28.427 3.856.012-.591-.175-1.112-.195-1.72-.197l.063-.135c1.004-.352 1.99-.093 3.012-.053.827.033 1.936-.096 2.736-.284l.051-.137-.395-.106.204-.387-.082-.17c-.63-.123-1.56.223-2.19.36-.887-.349-1.48-.533-2.454-.444m75.757.647c1.89 2.693 5.074 4.956 7.858 6.68-1.137-1.553-6.153-6.116-7.858-6.68m-83.39.469c-.88.112-1.63.763-2.163 1.451-.624.806-1.096 2.098-.91 3.126.035.198.034.176.093.345 1.115-.95 2.835-3.245 2.998-4.743.006-.06-.012-.12-.017-.179m2.252-.046c-1.17.664-2.836 2.015-3.123 3.396-.03.146-.024.158-.02.286l.117.13c.716-.283 1.928-.66 2.236-1.438l.899-2.282zm17.393.002c-.541.241-1.09.47-1.608.758 1.066.17 2.307.51 3.376.496.417.053.842.162 1.241-.004l.018-.214c-.572-.608-1.775-1.058-2.597-1.075a2 2 0 0 0-.43.039m-7.035.299c.829.41 1.213.464 2.122.281-.395-.365-.828-.359-1.337-.341-.262.01-.524.025-.785.06m-70.436.11q-1.41 5.194-2.515 10.462c3.367.229 6.175.567 9.293 1.931-.329-.666-.79-1.223-1.245-1.804 1.814.907 3.414 1.6 4.559 3.361-.19-.934-.45-1.672-.948-2.496 1.204.666 2.44 1.385 3.278 2.509.264.355.439.787.72 1.12l.027-.056-.15.035-.073-.074.22-.146c-.023-.705-.25-1.38-.44-2.054 1.102.536 1.902 1.082 2.774 1.946.495.581.972 1.161 1.418 1.781.408-1.794.844-3.861 1.625-5.529-1.21.819-2.322 1.318-3.826 1.05-1.277-.227-2.41-.939-3.293-1.871.702-.049 1.423-.07 2.12-.165-2.047-.359-3.562-.904-5.163-2.266.51-.06 1.181-.056 1.625-.321-.524-.382-1.251-.557-1.848-.81-.767-.323-1.51-.845-2.142-1.385a42 42 0 0 1 2.185-.144c-3.04-1.12-5.242-3.72-8.201-5.074m67.385.236-.034.296c.537.371 1.188.22 1.793.126l.041-.171c-.437-.255-1.293-.262-1.8-.251m15.327.142-.006.276c.957.754 2.892 1.155 4.079 1.354-.19-.497-1.186-.913-1.686-1.135-.836-.37-1.461-.581-2.387-.495m5.636.261-.009.196c1.768 1.486 4.351 2.106 6.62 1.905 2.05-.181 4.048-.805 6.013-1.389l1.773-.45c-2.938-.22-5.84.23-8.767.197-1.88-.021-3.757-.512-5.63-.459m27.065-.007c3.698 1.318 7.793 2.981 11.785 2.693-3.572-1.782-7.774-2.918-11.785-2.693m-40.695.388c-.474.074-.955.135-1.424.239 1.453.875 2.817.612 4.442.663.41-.015.8.02 1.148-.23l-.049-.157c-.761-.247-3.332-.634-4.117-.515m32.274.5c-1.645.176-3.193.49-4.78.952 2.92-.16 5.626.218 8.485.749 1.221.227 2.456.52 3.692.636 1.457.064 2.9.041 4.357.003-3.329-1.723-8-2.867-11.755-2.34m-37.285.078c.957.356 1.884.824 2.925.724-.89-.39-1.942-.765-2.925-.724m-18.619.202c-.427.644-.602 1.202-.754 1.95l.584 1.147.178-.054c.112-.865.304-2.225-.008-3.043m30.553.065-.376.138.037.152c.813.315 1.757.37 2.621.37l.263-.148c-.307-.38-1.188-.445-1.68-.494a6 6 0 0 0-.865-.018m-13.27.264c-.892.136-1.726.434-2.579.719.978.16 1.941.272 2.93.338.752-.08 1.427-.258 2.15-.47-.823-.316-1.602-.615-2.501-.587m11.858 1.013c-1.026.139-2.04.28-3.025.61a15 15 0 0 0 2.91.564c.668-.02 1.283-.121 1.812-.554l.132-.298c-.132-.197-.168-.276-.414-.34-.384-.1-1.026-.045-1.415.018m9.255-.07c.677.497 1.326.946 2.184 1.05-.694-.508-1.315-.904-2.184-1.05m7.74.473-4.453.259c2.318 1.089 3.998 1.334 6.53.982 1.607-.327 3.245-.62 4.817-1.09-2.314-.269-4.566-.356-6.893-.15m64.225.382c.153.382.166.654.538.851l.489-.185.047-.306c-.317-.289-.65-.315-1.074-.36m-110.032.368c-.297 1.03-.379 2.445-.058 3.474.374-1.097.353-2.095.25-3.234zm53.038.18c3.075 1.499 6.233 2.83 9.259 4.42 2.19 1.15 3.916 2.951 6.353 3.635-4.322-4.005-8.63-8.261-14.984-8.107a6 6 0 0 0-.627.052m20.86.1c4.515 2.782 9.652 4.469 14.233 7.172 1.748 1.031 3.453 2.182 5.104 3.36.981.7 2.442 2.092 3.515 2.5-3.85-4.032-11.112-9.196-16.255-11.248-2.087-.833-4.392-1.356-6.597-1.785m-47.436.209c-1.28.075-2.581.104-3.846.322.751.349 1.536.678 2.362.794 1.5-.05 2.665-.402 3.981-1.101-.84-.065-1.656-.116-2.497-.016m34.739.071c3.078 1.92 5.984 3.401 9.49 4.405.856.245 1.818.553 2.71.619-2.995-2.28-8.33-5.183-12.2-5.024m-62.187.206c-.034.572-.135 1.204.02 1.76.22.065.136.087.259.034.12-.541.289-1.038-.043-1.537-.104-.157-.111-.151-.236-.257m8.807.182c-1.349.291-2.584.797-3.335 2.022-.255.418-.556 1.114-.404 1.61.011.038.032.072.049.108l.227-.005c.235-.246.326-.414.433-.736l-.224-.353c.868-1.395 2.582-2.205 4.124-2.603-.314-.093-.549-.067-.87-.043m9.566.012-.209.097c.663.815 3.422 1.225 4.511 1.477l.158-.092c-1.231-1.18-2.835-1.45-4.46-1.482m15.101.399c-1.637.036-3.013.077-4.592.58l1.61.37c1.454.229 2.811-.056 4.101-.785l.036-.083-.25-.114.022.353-.112-.358zm36.643.058c2.638 1.343 4.998 2.991 7.54 4.484 1.594.935 3.292 1.703 4.942 2.534.978.492 1.977 1.15 3.014 1.494-1.268-1.215-2.513-2.477-3.93-3.52-2.51-1.848-8.34-4.981-11.438-4.995zm-20.682.183-1.873.201c1.837.538 3.758.681 5.664.776l1.562-.056c-1.832-.95-3.32-1.11-5.353-.92m-4.24.544c2.235 1.87 6.01 3.916 8.86 4.565-.48-.5-.959-1.014-1.515-1.43-1.677-1.252-5.273-3.093-7.345-3.134m-9.239.62c1.002 1.286 2.351 3.141 3.955 3.722-.556-1.379-1.603-2.877-3.008-3.488-.295-.127-.63-.191-.947-.234m3.407.498c.65.86 1.438 1.46 2.356 2.011 1.823 1.096 3.93 1.822 5.854 2.737 1.789.851 5.57 3.071 7.318 3.446-1.269-1.169-2.52-2.344-3.963-3.3-1.9-1.257-9.406-4.783-11.564-4.894m-12.609.2c.73.391 1.538.535 2.267.917 3.198 1.675 5.546 3.589 9.22 4.44a6.4 6.4 0 0 0-.78-.552c-.982-.57-1.849-1.478-2.799-2.126-1.751-1.197-5.774-2.934-7.908-2.68m6.895-.04-.143.25c.146.467.575.675.983.89.682.36 1.398.659 2.106.963l.046-.169c-.782-.952-1.739-1.781-2.992-1.933m21.491.283c2.368 1.328 6.196 3.775 8.764 4.388-2.053-2.548-4.904-4.005-8.178-4.348q-.292-.033-.586-.04m-2.611.078c2.108 1.796 3.802 2.951 6.535 3.651-1.41-1.178-4.774-3.45-6.535-3.651m-30.163.164c2.092 1.269 4.14.825 6.433 1.212-1.848-1.282-4.272-1.12-6.433-1.212m-22.245 1.07-.145 1.532c.222.331.412.74.802.884.184-.573.258-1.041-.035-1.595a3.6 3.6 0 0 0-.622-.82m15.877.162c-1.14.396-2.096 1.096-3.066 1.796 1.067-.197 2.068-.53 3.117-.782 1.077-.167 1.931.09 2.953.383-.55-.734-.957-1.194-1.896-1.323a7 7 0 0 0-1.108-.074m87.647.434h.09zm-100.214.035c-.783.346-.997 1.175-1.299 1.94-.192.485-.412 1-.386 1.527l.155.224c.871-1.123.945-2.374 1.643-3.532zm2.73.001a8.5 8.5 0 0 0-1.471 1.47c.03.598.056 1.147.216 1.728.386-.898 1.247-2.017 1.402-2.924zm14.851.048.153.055c.398.146.75.3 1.123.5a6.65 6.65 0 0 0 2.92.796c-1.361-.76-2.624-1.251-4.196-1.351m130.766.718c-1.976 1.063-3.631 2.512-5.541 3.64-.737.434-1.638.62-2.301 1.162.409.059 1.03-.078 1.35.144-.638 1.07-2.23.852-3.046 1.6.28.206.695-.022.855.26-1.03 1.204-2.415 1.322-3.88 1.576.476.084 1.186.114 1.579.397-.31.752-2.596 1.74-3.377 2.06-1.077.441-2.085.73-3.211.265-.544-.225-1.003-.573-1.452-.946.243.849.492 1.701.674 2.566.185.869.202 2.46.596 3.19l.535-.835c.674-1.011 1.872-2.364 3.113-2.596q.119-.021.238-.039c.143.233.069.341.034.604.597-.048 1.47-1.138 2.048-1.48.437-.258.95-.438 1.423-.618-.398.521-.804 1.034-1.15 1.593 1.447-.956 2.7-1.578 4.378-2.009-.197.258-.548.617-.63.921 1.06-.493 1.935-.894 3.128-.931l.058.108-.304.454c2.33-.827 4.323-1.246 6.8-1.33-.346-2.173-1.16-8.19-1.917-9.756m-111.041.151c1.841 3.036 6.606 4.966 9.793 6.224-2.025-2.594-6.572-5.482-9.793-6.224m-12.993.079c1.079 1.066 5.677 5.313 6.84 5.744-1.04-2.398-2.492-4.246-4.986-5.256-.575-.233-1.242-.39-1.855-.488m55.484.005c2.1 1.848 4.4 3.398 6.7 4.983.976.672 1.964 1.46 2.982 2.059-1.7-2.511-6.827-6.291-9.682-7.043m-65.765.204c-2.146.21-4.251.55-6.386.802-.847.1-1.784.015-2.595.271q-.756.241-1.27.848c-.352.414-.567.916-.78 1.41.434-.275.88-.58 1.35-.789.418-.184 3.68-1.296 4.026-1.347 1.751.007 3.59.137 5.318-.186 1.231.586 2.148 1.651 3.42 2.088-1.629-2.153-1.993-1.188-3.772-2.358.44-.35 1.782.02 2.388-.189l-.036-.275c-.544-.153-1.09-.341-1.663-.275m34.043.153c1.947 3.397 5.488 4.37 9.008 5.339q.182.05.365.094c-1.873-1.935-6.807-4.498-9.373-5.433m-51.923.13c.002.566.005 1.02.197 1.564l.269.214c-.045-.648-.048-1.245-.466-1.779m.809.659.133.067zm56.35-.128c1.583 1.125 4.38 3.411 6.129 3.895-1.418-1.657-3.923-3.578-6.129-3.895m-34.83.329c.095.3.209.415.485.574.887.509 2.306.05 3.367.521-.02-.229.037-.203-.117-.312-.936-.665-2.628-.944-3.735-.783m105.502.15c-1.024 1.405-2.201 2.197-3.941 2.478a44 44 0 0 1-5.45.524l1.78-1.004q-2.112.636-4.214 1.306.438-.513.865-1.035l-2.133.41c.275-.28.503-.433.603-.817l-.166-.176c-.313.033-.322.075-.554.296-.32.787-.06 3.88.108 4.77.213.202.219.149.496.158.507.007 1.122.088 1.604-.06l-.667-.618.01-.188c1.044-.411 2.913-.002 4.01.179a43 43 0 0 0-2.062-1.065c1.575-.297 3.206.015 4.734-.328-.3-.219-.636-.31-.984-.424.334-.465 1.43-.611 1.986-.705 2.048-.344 3.627-.004 5.49.887-.326-1.181-.775-3.666-1.515-4.588m-93.52.29c.654 1.47 1.943 3.62 3.484 4.236.48.192 1.034.242 1.543.312-1.243-1.697-2.642-4.143-4.893-4.53q-.066-.01-.133-.017m-31.147.078c-.295.422-.564.764-.655 1.283.075.207.097.243.264.408.336-.492.555-.967.506-1.577zm8.69.05c-.288.09-.683.125-.843.385.64.448 2.565.65 3.332.518.36-.062.725-.172 1.077-.272.474-.037.957-.057 1.429-.113-1.565-.32-3.397-.798-4.995-.518m49.443-.03.165.157c.953.912 1.643 2.05 2.582 2.95 1.6 1.537 4.79 3.665 6.646 5.075-1.476-3.332-4.87-6.8-8.33-8.051-.346-.125-.699-.14-1.064-.131m-59.958.46-.002.411.14.08.013-.414zm2.957-.287c-.219.893-.347 2.143.243 2.942.075.1.156.149.254.217.051-1.016-.005-1.981-.226-2.977zm75.908.061c2.383 2.544 9.944 9.669 13.01 10.068-2.146-2.014-10.755-9.474-13.01-10.068m-76.359.076c-.076.375-.241.82-.08 1.183l.156-.024c.027-.407.132-.8-.076-1.159m5.687.606c-.953.291-2.059.926-2.632 1.772l-.017.276.197.115a7.8 7.8 0 0 0 1.857-.817c.579.017 1.142.11 1.718.142 1.296-.07 2.582-.249 3.876-.309-1.618-.694-3.22-1.188-4.999-1.18m18.089.012-.373.212.012.197.643.394.215-.16c.008-.292.061-.204-.108-.394-.142-.16-.193-.193-.39-.249m-4.666.163c.31.385.534.763 1.068.805.055.005.11.002.165.003-.362-.45-.664-.677-1.234-.807m-21.6.137c-.3.639-.672 1.295-.44 2.02.039.118.079.174.14.274.278-.636.483-1.611.3-2.294m28.37.008c1.118 3.029 2.556 4.8 5.515 6.227.125.06.158.068.275.108-.98-1.619-4.218-5.382-5.79-6.335m-10.186.217c.605.348 1.27.505 1.892.848l.132-.022c-.256-.308-.562-.781-.986-.834-.328-.04-.706-.005-1.038.008m-16.705.292-.148.113a2.4 2.4 0 0 1-.6.299c-.155.295-.037.634.018.947.314-.34.65-.651.815-1.092-.026-.09-.03-.192-.085-.267m47.984.237c2.1 2.207 4.705 4.035 7.9 4.037q.06-.001.123-.005c-2.303-1.714-5.16-3.492-8.023-4.032m-47.134.331.043.081zm12.356.016h.154zm28.047.052c.618 2.576 2.729 5.29 4.971 6.675a7.6 7.6 0 0 0 1.616.746c-1.569-3.156-3.599-5.543-6.587-7.42m-35.263.654a46 46 0 0 1-2.681 1.805c1.091-.355 2.16-.54 3.275-.774.974-.28 1.948-.588 2.932-.83-1.205-.249-2.3-.29-3.526-.201m31.295-.075c1.592 2.276 3.276 4.024 6.001 4.844-.553-1.632-2.937-3.494-4.463-4.245a10 10 0 0 0-1.538-.6m71.12-.014c.009.503.007.833.284 1.265-.009-.504-.007-.833-.285-1.265m-107.904.17c-.329.335-.468.402-.453.9.012.376.06.676.014 1.059.224-.552.475-1.099.59-1.685zm20.615.237c.3.899.8 1.42 1.64 1.858.383.2.776.328 1.19.444-.745-.713-1.844-2.022-2.83-2.302m-8.067.415-.676.227-.032.127c.628.253 1.383.27 2.052.352l.43.014c-.216-.328-1.391-.609-1.774-.72m41.45-.013q.407.388.839.75.43.361.885.694.453.333.927.637.474.303.967.576.492.272 1.001.512.51.24 1.032.447.524.207 1.06.38.535.174 1.08.312c-1.683-2.365-3.376-3.641-6.282-4.142-.5-.086-1.004-.128-1.51-.166m-19.55.582c.745 1.382 3.856 3.866 5.27 4.695-1.072-1.921-2.663-3.946-4.871-4.609-.15-.045-.238-.055-.4-.085m-30.875.42c.287.205.447.406.812.385q.012-.003.023-.009l-.046-.273c-.273-.148-.488-.114-.789-.103m2.086.057c.234.285.456.411.823.448.41.042.842-.044 1.241-.126-.539-.41-1.416-.336-2.064-.322m54.647-.097c.985 1.723 6.09 8.382 7.644 9.22-.985-3.428-3.555-7.172-6.737-8.864a5 5 0 0 0-.907-.356m-55.053.406.06.032zm26.824-.026c1.262 2.253 3.083 4.614 5.432 5.842-1.078-2.326-2.995-4.831-5.432-5.843m-22.62.406c.086.452.444.699.76 1.003-.08-.352-.122-.605-.437-.833-.109-.08-.203-.117-.322-.17m79.31.723c.962 1.684 3.234 5.179 5.074 5.952-1.024-1.903-2.973-5.06-5.074-5.952m-20.718.228c1.102 2.204 3.305 4.67 5.71 5.457a21 21 0 0 0 2.85.698c-2.653-2.389-5.164-4.842-8.56-6.155m25.489.141c.94 2.89 3.061 8.058 4.913 10.324-.352-2.119-3.267-9.105-4.913-10.324m-40.452.292c1.319 1.489 5.262 3.815 7.195 4.413-1.66-2.434-3.608-3.841-6.538-4.335a8 8 0 0 0-.657-.078m53.013.594c-.088 1.29-.238 5.77.536 6.826.03.041.072.07.109.106-.015-1.326.156-5.911-.542-6.841-.027-.037-.068-.06-.103-.09m-81.45.444c.03.366.176.475.397.76-.031-.335.033-.557-.235-.782zm15.48-.147c1.927 3.63 4.214 5.3 6.28 8.406l-1.654-.738q1.945 2.194 3.917 4.363c.341.342.675.692 1.045 1.005-.912-3.838-5.72-10.74-9.043-12.774a3 3 0 0 0-.544-.262m86.647.22c-.815 1.128-1.568 2.026-3.015 2.267-.993.165-4.23.552-5.135.177q.262-.265.534-.52c-1.046-.335-3.02.297-4.118.492l.899-.9-.007-.096c-1.459-.121-3.062.483-4.557.54l1.925-.779c-.632-.098-1.263-.202-1.9-.263.002 1.154-.245 4.122-.031 5.033.348.122.6.085.954.039 1.237-.197 2.39-.182 3.636-.189l-.391-.122-.048-.115-.255.004-.347-.337c.188-.083.088-.07.278-.039 1.19.194 2.472.235 3.677.236-.675-.261-1.363-.506-2.02-.811 1.535-.337 2.86.035 4.366-.097l.008-.135-.36-.336c.237-.28.744-.275 1.1-.305 2.267-.19 3.993-.124 5.911 1.245-.205-1.167-.463-4.08-1.104-4.99m-98.943.222c.064.577.258.98.591 1.452-.021-.455-.02-.967-.377-1.303-.08-.074-.128-.098-.214-.149m122.867.034c-2.512 1.603-4.999 3.397-7.853 4.324.446.003.875-.038 1.282.172l.031.2c-.71.776-2.42 1.084-3.43 1.215.505.186 1 .361 1.524.492-.495.37-.994.764-1.547 1.042-.755.38-1.687.652-2.351 1.166.23.064.448.089.686.111-.098.402-.684.687-1.028.894-1.332.802-2.699 1.567-4.31 1.151-.815-.21-1.3-.605-1.887-1.19l-.083-.081q.314 1.662.43 3.349t.03 3.376c.274-.482.531-.99.837-1.451 1.273-1.43 2.444-2.221 4.338-2.668-.27.54-.557 1.076-.8 1.629 1.563-1.274 3.463-2.028 5.373-2.632-.43.465-.863.922-1.247 1.427 1.655-.814 3.27-1.498 5.069-1.914l-.994 1.022c2.4-1.121 4.712-1.171 7.311-.967-.156-2.771-.597-7.914-1.236-10.585zm-113.296.121c1.147 2.866 3.567 6.796 6.314 8.317-1.619-3.443-3.317-5.947-6.314-8.317m-6.69.436.132.385c.083.007.17.033.25.01l-.21-.408zm28.887.049c.68 1.13 1.354 2.294 2.174 3.329 1.296 1.637 6.032 6.43 7.908 6.998-2.126-3.785-3.91-6.044-7.413-8.637-.77-.569-1.781-1.352-2.669-1.69m-6.077.376c1.532 2.596 3.464 4.253 5.921 5.931.557.38 1.175.904 1.795 1.164-1.062-2.491-2.59-3.869-4.771-5.404-.856-.603-1.793-1.248-2.774-1.63l-.17-.061m-21.815.138c.297.494.532.769 1.114.928-.344-.432-.576-.749-1.114-.928m43.968.378c3.76 2.621 8.958 5.954 13.577 6.406-3.856-2.206-9.122-5.808-13.577-6.406m-7.803.466c1.051 3.234 3.375 5.38 6.368 6.91 2.24 1.146 5.26 1.81 7.771 1.896-2.372-.936-4.816-1.75-6.928-3.221-1.633-1.137-3.191-2.424-4.742-3.67-.713-.573-1.645-1.558-2.469-1.915m-38.089.318.048.142.122-.038-.124-.11zm61.213 2.053c.844 1.528 2.297 3.658 3.967 4.353-.874-1.69-1.931-3.638-3.852-4.32-.038-.014-.077-.022-.115-.033m-30.273.412c.08.608.377 1.153.641 1.7 1.306 2.716 3.436 4.171 5.331 6.382-.274-1.583-4.33-6.994-5.597-7.896a1.4 1.4 0 0 0-.375-.186m13.837.632c1.387.837 2.795 1.646 4.264 2.332 2.528 1.182 9.144 3.59 11.805 3.681-1.591-.909-3.418-1.41-5.116-2.087-2.504-1-8.55-3.862-10.953-3.926m-35.156.954c.303.469.456.76 1.001.958-.288-.469-.493-.715-1-.958m-3.88.123c.543.849 1.33 2.103 2.236 2.588-.363-.816-1.438-2.175-2.236-2.588m8.054.509c.3.772.568 1.592 1.369 1.973-.309-.75-.674-1.51-1.37-1.973m25.998.126c.947 1.379 1.763 2.903 2.761 4.232 1.959 2.608 5.184 4.643 8.39 5.243-2.297-2.068-4.685-4.007-7.025-6.023-1.224-1.053-2.63-2.852-4.126-3.452m-11.296.124c.15 2.013 2.811 6.105 4.36 7.426a6.4 6.4 0 0 0 2.425 1.302c-.527-1.991-4.112-7.323-6.008-8.373a7 7 0 0 0-.777-.355m31.712 1.319c.36 1.02 3.407 2.641 4.421 3.124.343.164.683.308 1.042.43-1.18-1.476-3.71-2.897-5.463-3.554m-26.147 2.284c.792 3 2.553 6.782 5.326 8.424.125.073.244.132.381.18-.827-2.037-3.852-7.655-5.707-8.604m3.282.137c.85 2.091 2.206 4.456 4.439 5.336q.054.02.11.036c-.824-1.954-2.722-4.29-4.549-5.372m-14.97.238c.775 1.594 2.19 3.564 3.905 4.228-.755-1.548-2.29-3.527-3.904-4.228m99.877.435c-2.115 1.057-4.326 2.479-6.645 2.972.178.085.329.148.518.206.197.06.392.133.586.2-1.484.95-2.73 1.252-4.45 1.532q1.058.097 2.118.151c-1.31.963-2.326 1.341-3.926 1.585.397.168.791.345 1.195.496-1.967 1.202-4.651 3.049-7.067 2.512-.775-.172-1.345-.584-1.954-1.071.145 1.904.123 3.815.129 5.724.44-.433.873-.877 1.325-1.298a18 18 0 0 1 4.289-2.29c-.276.462-.546.89-.702 1.41l.083.133q.199-.126.396-.256c1.116-.737 2.55-1.242 3.846-1.56-.432.421-.851.743-.91 1.385.593-.08 1.35-.635 1.95-.858.925-.344 1.921-.587 2.886-.795l-1.226 1.112c2.532-.872 5.498-1.052 8.145-.67-.002-1.918.026-8.975-.481-10.526zm-65.974 1.114c1.105 1.459 3.143 2.323 4.912 2.568.337.047.66.084 1.001.074-1.39-.641-4.553-2.611-5.913-2.642m-14.311.47c.423 2.085 1.529 3.248 3.254 4.395.762.507 1.595 1.037 2.475 1.302-1.696-1.897-3.422-4.604-5.729-5.698m-13.637.873c1.377 2.787 3.632 6.006 6.462 7.483-1.254-1.564-4.82-6.912-6.462-7.483m-3.463 1.41c.52 1.923 2.959 7.21 4.692 8.264.029.018.062.03.093.046-.968-2.33-2.56-6.942-4.784-8.31m7.733.489c1.069 2.16 3.434 6.66 5.303 7.949-.772-2.039-3.617-6.674-5.303-7.949m-4.471.861c.764 3.146 4.306 10.234 6.805 12.072-.644-1.49-1.849-2.773-2.661-4.186-.925-1.608-3.048-7.117-4.144-7.886m19.14.013c2.73 2.39 6.914 4.121 10.578 3.876q.3-.021.6-.048c-1.178-.465-2.419-.764-3.606-1.216-2.376-.905-5.01-2.415-7.572-2.612m-11.017.136c.516 1.829 2.479 6.342 4.065 7.311-.486-1.101-3.403-6.865-4.065-7.31m13.956 3.853c1.053 1.466 5.152 5.441 6.852 5.813-1.84-2.359-3.83-4.97-6.852-5.813m-17.358.62c.608 1.25 1.891 2.932 3.146 3.58-.63-.853-2.198-3.193-3.146-3.58m89.894 1.809c-1.93.937-4.282 2.31-6.422 2.467-.223.016-.447.053-.668.08l.003.044 1.298.668c-.892 1.036-3.038 1.026-4.075 1.726.257.174.395.198.691.274l-.002.14c-1.51 1.028-2.85.974-4.596 1.051.703.255 1.454.484 2.128.806-1.7.862-4.305 1.859-6.208 1.263-1.043-.327-1.546-.94-2.17-1.793-.033 2.423-.398 4.793-.491 7.202.336-.445.664-.9 1.016-1.332 1.313-1.24 2.45-2.03 4.18-2.568l-.929 1.81c2.165-1.52 4.3-2.162 6.853-2.768l-2.397 1.934c1.283-.423 2.95-1.283 4.287-1.352l.048.138-.341.469c.68-.003 1.383-.236 2.061-.32 1.798-.223 3.762.07 5.5.53.087-1.27.619-9.792.234-10.469m-212.227.297c-.114 3.394.011 6.79.126 10.183 1.298-.324 2.545-.59 3.89-.564.608.012 3.028.407 3.308.239l-.16-.173a1.3 1.3 0 0 1-.288-.436c.683-.247 2.446.554 3.111.872.435.208.854.453 1.271.692-.408-.67-.81-1.265-1.334-1.852l-.043-.049c2.268.553 3.829 1.357 5.542 2.94-.322-.645-.632-1.294-1.006-1.91 2.158.427 3.568 1.033 5.135 2.608.079.08.454.536.541.566.042.013.087-.014.13-.02-.043-2.148-.195-4.302-.203-6.448-.916 1.09-1.806 1.93-3.299 2.08-1.666.168-3.022-.583-4.4-1.392a19 19 0 0 0 2.483-.904c-2.194.055-3.822-.302-5.782-1.289a8.8 8.8 0 0 0 1.88-.564l.185-.076.11-.046c-2.161.07-3.589-.377-5.444-1.461l2.065-.602c-2.814-.278-5.167-1.54-7.818-2.394m117.227.249c.6 2.565 1.637 5.043 3.96 6.5.176.111.344.18.544.236-1.1-1.5-3.25-5.992-4.504-6.736m22.768.505c.927 2.335 3.228 6.337 5.613 7.459.122.057.143.057.256.084-.632-2.008-4.01-6.436-5.869-7.543m-.335 4.77c.833 1.346 2.15 2.442 2.833 3.619-.122.195-.232.259-.418.388-.069.49.304.898.59 1.282.767 1.033 1.952 1.766 3.11 2.295-.374-.509-.74-1.021-1.155-1.497-.34-.485-.685-.967-1.018-1.456 1.001.194 2.014.25 3.032.287-2.53-1.42-4.607-3.275-6.975-4.918m-22.105.462c.247 1.705.985 4.161 2.449 5.215.243.175.513.275.808.317-.525-1.392-1.894-4.795-3.257-5.532m.03 3.4c-.05.375.098.732-.016 1.033-.327.142-.634.173-.778.511.137.362.441.611.708.881l-.081.093-.224-.06c-.239-.063-.36-.051-.594.04l-.027.154.174.036c.204.044.132.01.252.087-.373.08-.643.071-.916.345.126.227.197.233.413.362-.248.631-1.67 1.154-1.492 1.696.17.061.34.128.514.178-.503.358-1.311.786-1.439 1.434l.173.269c-.374.312-.712.231-1.033.627.04.27.097.452.223.695q-.366.137-.74.248l-.082.222.218.387c-.24.504-1.408 1.113-1.894 1.403.118.168.224.28.387.407-.078.225-.168.229-.371.33-.302.15-.632.248-.95.355l-.02.132.51.318v.105c-.42.237-.754.434-1.237.498l-.09.266-.516.215-.005.131.724.184.038.117c-.733.613-2.208.002-2.58.576.39.62 1.472.483 1.819 1.066-.186.206-.28.308-.582.329-.864.058-1.678-1.352-2.472-.852-.545.342-1.423.388-2.05.553-.075.309-.07.57.093.855.06.106.14.161.228.233l.243-.047a4 4 0 0 0 .305-.539l-.029.219c.165.23.253.326.516.436.404-.194.266-.62.608-.855l.319.25.164-.088c.17-.089.339-.167.514-.244.28.159.48.316.566.637.142.531.014 1.131.456 1.508.514-.162.578-.99 1.128-.752.135.058.306.205.42.289l.123-.04c.058-.323.026-.614.351-.788.506-.27 1.164-.226 1.642-.602-.256-.191-.525-.242-.825-.332-.207-.062-.127-.027-.3-.145l-.024-.244c.24-.151.439-.232.712-.307l-.285-.385.051-.117c.332-.1.8-.177 1.01-.45q-.144-.315-.304-.622c.202-.279.584-.35.897-.458l.12-.166a11 11 0 0 0-.384-.291c.356-.333.8-.227 1.207-.587-.112-.272-.252-.314-.486-.483l.098-.172a5 5 0 0 0 .94-.339l.103-.19-.189-.309c.237-.2.456-.297.736-.42l.12-.202-.203-.434c.125-.206.246-.296.436-.435.324-.236.48-.418.55-.827.012-.067.016-.135.024-.202l.17-.094c.362-.202.68-.35.912-.705l-.091-.18-.542-.135.044-.14c.382-.141 1-.232 1.244-.56a4 4 0 0 0-.173-.609c.42-.446 1.034-.385 1.436-.886l-.015-.192-.162-.116c.281-.575.6-1.138.994-1.644.05-.973-.744-1.509-1.129-2.312zm-117.41 2.121q.161 4.167.669 8.305c1.953-.418 3.385-.373 5.357-.156-.01-.189-.05-.265-.13-.431 1.153-.374 3.373.55 4.41 1.092.357.187.696.409 1.032.629l-.662-1.483c2.343.66 3.43 1.188 5.248 2.798l-.752-1.967c2.48.524 4.253 1.845 5.956 3.678.3-1.242-.334-4.715-.54-6.1-.58.866-1.15 1.647-2.251 1.837-1.06.184-3.013.057-3.889-.563-.282-.2-.314-.276-.407-.589l.376-.5.102.083-.014-.24c-1.948-.308-2.69.169-4.453-1.155.566-.213 1.134-.42 1.69-.656-1.716-.03-4.423-.232-5.686-1.576-.036-.038-.066-.081-.099-.122l.09-.134.762-.08.083-.123c-.84-.426-1.815-.643-2.704-.961-1.405-.503-2.796-1.051-4.189-1.585m211.585.05c-2.17.903-5.14 1.656-7.077 2.636.284.217.79.162.895.474-1.513 1.173-5.239 2.05-7.164 2.151.77.267 1.553.512 2.288.867-1.727 1.003-5.027 2.45-7.013 1.974-1.065-.256-1.712-.901-2.364-1.74-.181 1.495-.759 4.333-.593 5.702.196-.108.132-.037.22-.181.727-.721 2.461-2.229 3.5-2.321.057-.005.115.012.173.018.005.332-.066.576-.157.89l.05.123c1.642-.734 3.87-2.73 5.782-2.537l.266.172c-.404.442-.826.872-1.17 1.362 1.844-.756 4.172-1.998 6.195-2.026l.19.125-.01.402c2.011-.232 3.627-.565 5.57.311.115-1.048.844-7.909.569-8.388zm-68.88 1.744c.414 1.106.396 2.155.683 3.258.106.409.517.496.488.784l-.385-.102c-.174.379-.064.81.076 1.181q.141.368.298.73l-.105.091a1 1 0 0 0-.249.372c.06.51.25.92.456 1.384l-.298.245c.024.482.039.874.232 1.32.307.134.651.23.988.131.16-.047.185-.072.312-.15.08-.22.118-.196.025-.428-.243-.357-.5-.602-.522-1.038.19-.268.384-.49.613-.723-.311-.365-.663-.702-.781-1.177a4 4 0 0 1 .374-.383c-.068-.55-.338-.53-.567-.962-.198-.375.156-.718.187-1.071.05-.564-.636-1.143-.642-1.592-.007-.568.52-.667-.169-1.23-.294-.241-.662-.493-1.014-.64m68.336 7.885c-1.149.625-3.575 1.449-4.399 2.06l.898.125.069.111c-1.281.941-3.052 1.104-4.572 1.355.835.174 1.683.326 2.51.535-2.365 1.333-4.2 1.902-6.916 1.729.911.371 1.834.622 2.786.868-2.837 1.15-4.208 1.585-7.311 1.209l1.385.684c-.106.267-.17.272-.428.382-1.345.578-3.246.65-4.578.077a6 6 0 0 1-.8-.441c-.144-.09-.08-.061-.251-.099l-.04.077c-.347 1.713-.735 3.428-1.035 5.149 6.754.553 13.434 1.223 20.219 1.388.848-3.855 1.628-7.692 2.136-11.61.147-1.132.398-2.468.327-3.6m-210.16.405c.49 4.998 1.32 9.986 2.2 14.928 4.717-.064 9.436-.023 14.15-.156 1.893-.054 3.87-.038 5.748-.247q-.296-3.248-.733-6.479l-.142-.56-.158-.049c-2.51 1.399-3.796 1.704-6.621.886a12 12 0 0 1-1.035-.366c.621-.422 1.108-.896 1.63-1.431-2.231.69-3.732.573-5.813-.482.76-.29 1.444-.62 2.149-1.027-2.238.142-3.73-.219-5.806-1.002.765-.206 1.543-.388 2.278-.685-1.497-.274-3.098-.432-4.33-1.407l-.093-.214c.289-.102.562-.111.864-.129-.345-.44-3.537-1.277-4.288-1.58m96.307 1.233c-.249.225-.473.54-.473.896 0 .277.152.558.392.705.398.244.752.112 1.186.055.295-.226.33-.255.454-.602-.077-.444-.267-.689-.637-.928-.246-.16-.631-.12-.922-.126m46.936-.096c-.23.322-.364.603-.322 1.02.021.208.055.367.23.482.18.12.304.132.513.157a3 3 0 0 1-.583.21c-.214.511.167 1.012.162 1.515-.007.743-1.158 1.926-1.206 3.469-.21.145-.389.161-.635.212-.29.058-.554.089-.736.353-.156.228-.182.498-.213.764-.355.306-.856.376-1.301.487.371.385.709.81 1.212 1.02.177-.046.238-.019.343-.19.202-.329.245-.8.273-1.18l.052-.3c.399.073.286.383.728.358.281-.329.36-.667.476-1.078.5-.083.988-.106 1.313-.52-.044-.303-.676-.91-.634-.998l.137.005c.353.009.61.008.948-.12.391-.64-.42-.809.436-1.344.12-.534-.344-1.004-.255-1.422.095-.441.419-.325.28-.876-.195-.145-.377-.283-.599-.386l.118-.063c.254-.139.469-.224.604-.494-.151-.44-.763-.816-1.183-1.015q-.078-.035-.158-.066m-44.66.122c-.204.392-.46.75-.395 1.207.202.274.18.267.514.324.316-.201.406-.421.558-.746.055.27.097.54.19.802.332-.152.699-.216.823-.6.032-.1.048-.303.06-.414l-.138-.194q-.444.05-.888.082l-.187-.174c-.179-.162-.297-.236-.538-.287m2.311.19c-.139.288-.197.421-.145.742.305.292.44.29.843.38.103-.359.12-.412.02-.769-.248-.186-.416-.279-.718-.354m1.54-.067c-.251.158-.437.246-.577.518l.093.194c.602.192 1.051.177 1.66.013l.192-.205-.095-.206-.325-.072-.253.279-.147-.016q-.066-.088-.136-.175c-.148-.179-.21-.24-.413-.33m-7.41.23-.121.037c-.59.179-1.584-.049-1.84.627-.122.319-.063.622.028.937l.208.136c.165-.105.24-.121.334-.3.106-.24.157-.532.4-.643.252.297.408.585.78.716.269-.148.326-.216.423-.532.081-.262.088-.636-.082-.864-.035-.046-.087-.076-.13-.115m-3.566.416c-.243.318-.393.658-.811.746-.286.061-.758-.025-1.054-.045-.567.372-1.44.793-1.617 1.491.113.33.147.378.411.606l.269-.021c.118-.351-.157-.426-.013-.71a4 4 0 0 1 .419.263l.153-.011c.04-.005.08-.012.12-.013.198-.004.304.066.473.158l.275-.075c.132-.263.113-.473.114-.761l.121-.145c.23.137.258.217.386.445l.205-.01c.186-.288.356-.567.606-.807l.212.04.23.406c.257.017.197.067.367-.1.211-.208.247-.371.335-.644-.025-.165-.001-.302-.137-.418-.26-.224-.737-.305-1.064-.395m10.094 1.132-.077.085c-.237.257-.41.4-.726.548-.122.273-.15.463-.013.75.068.14.126.208.215.326.198-.219.19-.471.218-.75.252.268.3.369.667.456.157-.132.212-.121.238-.347a1.2 1.2 0 0 0-.292-.908c-.093-.108-.107-.1-.23-.16m40.35.386-.08.113c-.405.548-1.36.931-1.591 1.455.315.256.648.242 1.045.305.006-.22-.05-.702.094-.852.334.114.23.518.659.503.259-.303.3-.354.366-.743-.102-.338-.194-.571-.493-.781m-42 .348c-.575.077-1.28.058-1.708.463.004.335.115.57.246.87.084.03.166.08.255.083l.127-.05c.433-.167.722-.21 1.18-.161l.261-.152c.094-.398.023-.531-.09-.915l-.156-.15zm-2.558.147c-.35.156-.47.155-.653.502.093.573.771 1.013 1.135 1.448l.167.036c.207-.481 0-1.192-.177-1.661a1.7 1.7 0 0 0-.472-.326m-3.984.15c-.239.254-.629.796-.954.857-.311-.208-.537-.461-.933-.402-.925.139-2.452 1.12-3.283 1.6-.437.252-.917.38-1.273.752l-.074.305.193.312.189.04a4 4 0 0 0 .591-.525c.192-.2.295-.3.578-.354.667.124 1.01-.299 1.353-.063.08-.028.156-.063.238-.084.06-.016.121-.018.182-.027.192.026.309.095.477-.02.207-.143.32-.317.468-.517.501-.146.686.376 1.098.166l.167-.686.154-.09c.349.257.601.606 1.04.56.344-.256.806-.691 1.24-.679.367.285.698.6 1.17.681.288-.164.36-.294.444-.62.067-.26.1-.535.139-.799-.151-.2-.293-.355-.55-.417-.38-.091-.75.1-1.039.332-.1.08-.195.17-.29.257-.403-.2-.879-.523-1.325-.579m11.571.356c-.282.42-.352.561-.874.662-.627.122-1.458.134-1.89.655-.038.309-.021.333.124.61.259.182.411.266.726.31.131-.115.234-.211.343-.349.074.004.149-.008.22.01.055.013.24.135.293.168.417-.155.477-.566.778-.711.318-.154.631.195 1.041-.066.159-.356.165-.548.15-.925-.284-.302-.51-.282-.911-.364m11.713.034c-.074.37-.116.529.042.89.28.264.45.348.804.464.054-.389.087-.604-.105-.968-.255-.196-.43-.304-.74-.386m31.062-.047c-.222.348-.36.595-.428 1.005l.12.285.278.027c.235-.271.5-.5.532-.875-.159-.28-.21-.292-.502-.442m-13.216.263-.1.057c-.378.204-.595.221-1.015.233-.213.006-.345.068-.526.17-.149.254-.231.392-.126.703.093.275.487.733.754.835.22-.402.321-.722.382-1.177.467.076.484.584.97.554.18-.256.229-.399.143-.716-.103-.376-.184-.432-.482-.66m.7.027c.064.339.115.714.416.934.111.082.243.124.37.172.061-.397.16-.633-.007-1.005-.281-.098-.48-.111-.778-.101m1.092.018c.196.304.24.464.58.604.233-.056.469-.108.699-.172-.07-.206-.026-.232-.24-.332-.31-.146-.704-.104-1.039-.1m12.86.126-.346.451c.052.244.021.24.212.425.145.141.276.281.406.434l.059-.244c.073-.29.185-.488.342-.738-.159-.254-.394-.247-.674-.328m-20.241.025-.295.284c.05.403.362.645.573.97.162-.246.196-.5.155-.8-.02-.151-.044-.195-.094-.323zm.967.12-.177.24c.093.317.215.52.5.715.112.076.148.08.261.118.188-.286.456-.584.438-.94-.339-.199-.633-.135-1.022-.134m1.661-.082c-.067.403-.184.788-.013 1.177.3.148.369.14.707.117.097-.418.249-.743.12-1.158-.27-.174-.507-.144-.814-.136m-13.505.108c-.043.3-.115.563.028.846l.27.127c.16-.105.29-.215.429-.347.284.288.535.616.84.88l.247-.219c-.292-.511-.888-1.055-1.46-1.239-.171-.055-.198-.046-.354-.048m23.596.031-.331.3c.001.462.319.848.457 1.285.2-.36.078-.923.053-1.34zm-2.52.252c-.258.21-.499.36-.587.697l.147.259c.208.056.407.1.62.13.272-.236.33-.226.372-.577a1.7 1.7 0 0 0-.553-.509m11.762.148c-.123.322-.38.763-.264 1.08.327.049.528-.002.841-.081l.31-.404-.059-.266a3.3 3.3 0 0 0-.828-.329m-51.071.5c-.35.343-.772.773-1.294.804-.34.021-.67-.182-.946-.359-.61.415-1.162 1.203-1.273 1.946-.034.224.046.398.13.599l.231.067c.225-.154.368-.293.537-.508.246-.332.364-.591.749-.756.178.147.276.28.397.476.383-.236.517-.835.696-1.252.322.301.512.675.941.783.363-.293.674-.54.75-1.031.036-.236-.06-.333-.16-.539-.303-.198-.392-.202-.758-.23m1.131 0c.031.444.046.759.283 1.143.153.098.257.16.432.217-.118-.58-.197-1.006-.715-1.36m36.944-.03c-.427.268-.683.482-.787.993-.054.266-.07.357.025.617.088.007.228.036.313.017l.063-.105c.219-.358.723-.779.777-1.175a2.5 2.5 0 0 0-.391-.346m2.666-.006c-.069.136-.184.468-.284.563-.283.27-.815.101-.624.736.085.282.24.465.421.69.192.048.315.095.513.061l-.291-.55c.16-.43.676-.686 1.026-.984l-.059.02-.073-.367c-.206-.058-.419-.134-.63-.17m12.13.014c-.172.295-.352.534-.335.89.17.168.106.171.315.176.297.007.554-.095.831-.188l.261-.257c-.219-.35-.693-.458-1.071-.62m-16.273.622c-.363.219-.567.347-.76.73.013.334.008.325.237.568l.265.083c.332-.2.57-.314.72-.694-.05-.293-.078-.386-.317-.59-.044-.038-.096-.065-.144-.097m-1.51.486c-.37.353-.453.436-.599.922.082.346.114.389.363.644l.138.043c.308-.3.52-.481.609-.922-.105-.372-.22-.458-.51-.687m-5.435.455c.082.364.038.5.362.704.392-.068.731-.236 1.091-.397l.215-.24c-.454-.233-1.155-.099-1.668-.067m9.976.082c-.585.395-1.613.888-1.832 1.577.105.098.182.173.311.239.735-.293 1.309-.56 1.727-1.256l.017-.323zm-5.821.108c-.3.352-.594.61-.618 1.09l.179.531c.306-.27.577-.47.703-.876-.018-.333-.076-.47-.264-.745m-1.375.498-.066.098c-.22.324-.447.584-.732.852-.041.197-.106.245.019.422.147.21.302.304.51.446.294-.389.748-.845.79-1.344-.155-.25-.262-.336-.521-.475m-38.933 1.12c-.098.411-.203.822-.28 1.238l.172.164c.237-.283.406-.456.438-.842-.098-.248-.14-.367-.33-.56m36.695.06c-.121.388-.164.606-.076 1.006l.23.213.373-.018c.216-.296.448-.546.478-.926-.16-.246-.183-.267-.477-.306-.153-.021-.38.017-.528.03m-1.117.425c-.132.355-.179.408-.088.77.247.237.396.298.728.377.087-.38.126-.478.008-.863-.233-.179-.352-.253-.648-.284m-1.682.538c-.326.226-.661.4-.82.78-.009.379.118.578.302.89.358-.298.643-.596.697-1.081.032-.288.032-.36-.154-.57q-.012-.01-.025-.018m.86-.026c-.218.349-.439.646-.487 1.066.065.022.13.066.199.057.3-.183.465-.237.63-.553-.085-.256-.145-.383-.341-.57m10.422.171c-.34.243-.55.327-.714.716.189.53.717.821 1.162 1.149.228-.329.455-.659.362-1.084-.092-.418-.44-.593-.786-.772q-.011-.005-.024-.008m-12.862.987c-.294.195-.703.384-.835.726l.086.089c.353-.033.682-.028.981-.24l.042-.242c-.084-.115-.16-.248-.274-.333m11.444.136c-.44.24-1.208.522-1.383.999.193.34.575.47.91.64.424.114.579.233.988.05.18-.368.23-.602.077-.996a1.5 1.5 0 0 0-.466-.664zm-2.014 1.218-.114.113c-.45.435-1.502.846-1.581 1.47.184.134.367.263.558.385l.126-.166c.213-.251.288-.422.614-.52q.298.224.6.442c.281-.124.5-.302.627-.601.127-.3.04-.414-.077-.692-.26-.206-.43-.33-.753-.43m-95.26 16.366-.465.043c-.464.777-.124 13.619-.122 15.598q1.454.004 2.908-.009l-.043-10.67a243 243 0 0 0 7.158 10.614l2.507.014.294-.084c.359-.923.158-13.702.117-15.554l-2.94-.016q-.02 5.385.013 10.77c-2.3-3.6-4.698-7.142-6.943-10.775-.828.021-1.658.032-2.485.07m15.15-.059q-.034 7.862.016 15.723l8.231.016.002-2.691q-2.675-.056-5.35-.025c.032-.458.08-.92.084-1.379l.016-2.369 4.419-.047-.023-2.651q-2.211-.103-4.425-.093-.073-1.89-.037-3.782c1.701.013 3.41.06 5.111.03a34 34 0 0 0 .045-2.729zm9.06.044c.316 1.64.951 3.308 1.476 4.896 1.18 3.571 2.497 7.104 3.594 10.7l2.608.066c1.1-3.604 2.119-7.37 3.516-10.867 1.329 3.587 2.25 7.306 3.608 10.882l2.312.002c1.12-3.7 2.439-7.347 3.654-11.017l1.447-4.615c-1.041-.013-2.087-.048-3.127-.02q-1.332 5.338-3.126 10.54c-.984-3.551-2.121-7.056-3.096-10.61-1.097.009-2.203-.012-3.298.056A101 101 0 0 1 93.36 187.3c-1.212-3.466-1.969-7.124-3.31-10.542-1.037.005-2.093-.032-3.127.048m30.2-.035a41 41 0 0 0-.039 2.732l5.897.024c-1.072 1.555-6.523 11.71-6.377 12.827.006.041.022.081.033.122 3.186.245 6.513.063 9.716.061a43 43 0 0 0-.044-2.674l-5.722-.103 3.813-7.273c.702-1.321 1.58-2.67 2.096-4.069.171-.466.259-.894.227-1.388-.243-.28-.528-.266-.89-.283-2.874-.14-5.829.013-8.71.024m11.046.005c-.24 5.22-.073 10.502-.05 15.729l7.28.006.007-2.624-4.506-.03.018-1.423q.053-1.345.082-2.691l4.15-.005-.021-2.752-4.127.006-.003-3.474 4.461-.022.007-2.74c-2.429 0-4.872-.06-7.298.02m12.955-.043q-1.912 5.638-3.742 11.303c-.475 1.478-1.1 2.948-1.425 4.466l2.725.009c.425-1.207.841-2.413 1.362-3.584 1.162-.022 2.325-.055 3.487-.06.197.01.486-.034.629.113.744.77 1.016 2.563 1.454 3.57l2.79-.016c-.555-1.913-1.258-3.772-1.874-5.664-.741-2.277-1.394-4.586-2.097-6.876-.33-1.077-.733-2.155-1.014-3.244zm8.224.029.032 15.767 7.387-.018-.01-2.62c-1.5.005-3.004.03-4.502-.005-.02-4.351.04-8.726-.132-13.073-.924-.024-1.85-.062-2.775-.051m13.1-.022c-1.688 5.246-3.554 10.463-5.05 15.766l2.643.04c.436-1.219.92-2.438 1.295-3.677h3.695c.322.023.559-.029.788.24.648.762.871 2.433 1.252 3.393l2.769.006c-1.663-5.256-3.225-10.579-5.057-15.779zm8.304.018c-.022 5.243-.046 10.507.082 15.748l2.722-.008-.049-10.436c2.201 3.48 4.64 6.903 6.68 10.472.797.003 1.706.088 2.485-.064l.124-.202c-.008-5.169-.09-10.35.004-15.518l-2.756.003c-.006 3.559-.202 7.225.02 10.771-2.172-3.524-4.152-7.364-6.608-10.69a31 31 0 0 0-2.703-.076m14.297-.009-.018 15.839c2.932-.012 6.042.274 8.361-1.893 1.795-2.137 2.206-4.88 1.96-7.594-.167-1.83-.78-3.706-2.234-4.918-2.226-1.857-5.382-1.464-8.07-1.434M60.426 201.183l-20.565.478c4.78 1.38 13.428 1.21 18.665 1.336q22.11.39 44.223.186l91.782-.402c6.766-.028 13.722-.25 20.408-1.322-7.9-.426-15.836-.246-23.744-.233l-44.475.243-23.101.028c-3.079-.027-6.155-.219-9.234-.256q-17.677-.188-35.355-.132-9.302-.019-18.604.074m42.513 4.38-15.258 2.805c-1.819.325-3.86.974-5.695.93-1.834-.044-3.742-.431-5.565-.677q-5.672-.806-11.383-1.259c-1.866-.14-3.795-.322-5.664-.174 3.703.822 7.108 2.368 10.76 3.278q-5.398-.242-10.78.236c3.276 1.521 6.288 1.438 9.792 1.87.992.123 2.043.224 2.994.536-3.36.598-6.429 1.876-9.535 3.241 2.091.596 5.886.078 8.06-.277-2.057.97-3.934 2.09-5.826 3.344 2.725-.464 5.419-1.616 8.016-2.547 3.261-1.169 6.632-2.302 9.78-3.736 2.795.863 5.752 1.435 8.6 2.106q10.951 2.547 21.976 4.751c13.054 2.717 26.073 5.713 39.203 8.044q7.194 1.448 14.43 2.67c3.366.563 6.757 1.182 10.179 1.195-7.38-2.289-15.146-4.157-22.662-5.994-2.516-.615-5.528-.95-7.92-1.755q5.869.32 11.73.774c2.493.185 5.02.434 7.52.448-5.9-1.599-12.09-2.555-18.1-3.687-2.329-.44-4.79-.743-7.067-1.394 3.65-.09 7.344.153 10.998.24 1.553.038 3.355.237 4.881-.037-1.02-.273-2.126-.37-3.174-.526q-3.69-.56-7.399-.965c-6.06-.723-12.098-1.443-18.13-2.375q-10.641-1.64-21.212-3.68c-5.168-.984-10.345-2.184-15.585-2.683q4.57-1.577 9.067-3.357c.96-.382 2.115-.714 2.971-1.27z"/><path d="M113.98 22.984c1.317-1.264 2.684-1.828 4.486-2.066 1.476-.146 2.967-.063 4.445.016a204 204 0 0 0-5.832 4.492c-.704.443-1.616 1.133-2.494.993-.345-.055-.6-.186-.792-.489-.532-.835-.096-2.093.187-2.946m27.09 3.406c-2.165-.055-4.02-2.008-5.586-3.304-.763-.632-1.591-1.21-2.299-1.903l.095-.143.804-.12c2.357-.126 4.84-.19 6.803 1.358.577.454 1.1 1.05 1.147 1.817.053.88-.426 1.649-.964 2.294m40.222 6.439.055-.078zm-71.875 2.361.069.041zm-33.708 2.017-.056-.064zM69.2 42.209l-.047-.066zm132.857 7.513.067-.066zm-29.681.252.062-.072zm33.063 10.75.049-.076zM72.931 68.426l.062.054zm-5.12 8.831.063.087zm20.256 7.397.198-.1zm-.272.136.272-.136zm-.228.12.228-.12zm-.067.058.067-.059zm104.399 3.375.054-.067zM91.24 89.915l.048-.147zm-.084.085.085-.085zm-.079.283.022-.157zM106.48 108.3l.144.065zm34.69 7.397.103.073zm.103.073.1.087zm54.045 15.55-.054-.055zm-65.382 25.067q1.72-.261 3.447-.464c2.826-.394 12.012.82 14.639 2.07-.903.143-1.83.174-2.741.236-2.009.139-4.004.252-5.993-.155-1.484-.304-2.925-.783-4.415-1.07-1.624-.314-3.294-.445-4.937-.617m-5.535 2.873c2.07-.517 4.187-.648 6.306-.834 1.255-.194 6.023-.314 6.941.315l.022.164c-1.042.63-4.261.388-5.576.376-2.582-.035-5.106-.155-7.693-.02m-42.937-.069c6.485-.993 13.22-.313 19.757-.636.294-.033.608-.02.905-.028-.762.428-2.088.513-2.971.645-5.249.784-10.386.934-15.663.22-.678-.018-1.355-.121-2.028-.201m-8.027 1.953q4.264-.225 8.534-.339c2.891-.035 5.7.34 8.576.521-2.825.91-5.377 1.452-8.355 1.248-2.51-.145-6.332-.761-8.755-1.43m43.976 3.252c3.277-1.415 6.558-2.515 10.136-2.847 3.116-.365 6.269.48 9.332.905.798.11 1.764.082 2.506.371-.055.044-.105.097-.167.133-.346.2-1.161.22-1.564.268-3.462.41-5.653-.198-8.97-.817-1.49-.053-3.362.588-4.83.893-2.149.445-4.264.835-6.443 1.094m-27.008-1.082c5.214-1.023 10.694-.21 15.855-1.411l.234.036c-1.182.916-4.111 1.722-5.605 2.202-2.082.67-4.907 1.39-7.056.712-.63-.199-1.237-.559-1.823-.863-.515-.277-1.059-.47-1.605-.676m-31.636 1.89c3.317-.995 7.135-1.059 10.577-1.278 2.836-.15 5.663.09 8.495.234-3.413.887-7.303.994-10.81 1.207-2.763.115-5.516.268-8.263-.163m110.126.689c.819-.186 1.616-.276 2.452-.343 2.691-.27 5.619-.1 8.318.064-.9.134-1.786.242-2.695.294-2.652.266-5.418.125-8.075-.015m22.384 22.822c-.34.334-.678.603-1.108.814-.594.29-1.502.7-2.155.485-.491-.59-.232-9.217-.231-10.668 1.056.001 2.154.221 3.023.848.954.688 1.411 1.716 1.609 2.847.346 1.981.054 4.034-1.138 5.674m-28.925-2.457a84 84 0 0 0 1.205-4.16c.505.512 1.127 3.153 1.301 3.944l-.093.138-.735.043zm-21.546.048c.364-1.368.869-2.677 1.407-3.983.462.422 1.086 3.175 1.253 3.909-.29.13-.692.065-1.01.06z"/></svg>