<svg xmlns="http://www.w3.org/2000/svg" viewBox="0 0 256 256"><path d="M112.554 0h3.518c1.468.428 2.984.701 4.471 1.058 2.386.573 5.197 1.64 7.644 1.594C130.438 2.61 137.776.706 140.274 0h3.548c1.744.446 3.369.945 4.988 1.753 2.853 1.422 5.819 3.695 8.934 4.398 4.325.976 9.29-.85 13.807.743 3.44 1.214 6.205 3.68 8.955 5.984 1.158.97 2.316 1.976 3.672 2.662 1.317.667 2.799.987 4.23 1.31 3.412.769 6.942 1.437 9.848 3.515 2.125 1.52 3.837 3.74 5.325 5.861 1.156 1.648 2.209 3.436 3.877 4.623 1.153.82 2.465 1.397 3.736 2.009 4.034 1.94 7.862 3.796 10.252 7.783 1.734 2.894 2.56 6.961 4.617 9.444 1.084 1.307 2.516 2.276 3.882 3.26 2.655 1.912 5.508 4.034 7.226 6.875 2.653 4.39 2.228 10.533 4.392 14.063.6.977 1.403 1.813 2.166 2.662 2.157 2.403 4.371 4.758 5.379 7.902 1 3.12.65 6.55.495 9.774-.076 1.586-.204 3.173.272 4.714.423 1.372 1.185 2.61 1.907 3.84 1.965 3.347 3.873 6.521 4.088 10.504.267 4.947-2.562 9.89-2.505 14.653.015 1.33.337 2.644.642 3.931 1 4.215 2.486 8.326 1.375 12.662-.644 2.528-1.794 4.878-2.972 7.193-.882 1.74-1.875 3.502-2.322 5.418-.327 1.404-.233 2.893-.231 4.325.004 3.363.006 6.867-1.086 10.087-1.44 4.25-5.463 7.075-7.387 11.036-2.206 4.541-1.915 9.964-4.882 14.237-2.987 4.302-8.214 5.877-10.639 9.386-.862 1.247-1.426 2.696-2.037 4.075-1.927 4.356-3.88 7.863-8.098 10.357-2.968 1.756-6.797 2.625-9.402 4.88-1.014.879-1.762 2.01-2.527 3.101-1.74 2.48-3.504 5.062-6.097 6.734-4.313 2.782-8.364 2.338-12.676 4.138-1.694.707-3.108 1.967-4.506 3.126-2.468 2.048-4.857 4.125-7.827 5.43-3.436 1.509-7.056 1.237-10.724 1.203-1.43-.013-2.833-.036-4.23.318-2.818.714-5.463 2.556-8.036 3.891-1.782.927-3.557 1.592-5.484 2.14h-4.434c-1.794-.575-3.746-.933-5.58-1.382-1.843-.453-3.768-1.025-5.668-1.128-2.618-.143-8.816 1.82-11.725 2.51h-4.773c-4.87-1.28-8.014-4.385-12.332-5.798-1.603-.523-3.26-.473-4.924-.48-3.167-.015-6.661.245-9.742-.52-5.564-1.383-8.564-6.362-13.377-8.733-4.508-2.221-9.82-2.177-14.108-4.996-3.93-2.583-5.437-7.216-8.69-9.981-2.374-2.019-5.618-2.965-8.338-4.436-7.39-3.996-6.478-8.827-10.414-14.776-2.451-3.706-7.565-5.363-10.238-9.337-2.577-3.832-2.45-8.544-4.102-12.68-1.757-4.396-6.175-7.005-8.04-11.313-1.481-3.42-1.482-7.141-1.494-10.795-.005-1.455.034-2.951-.284-4.379-.623-2.796-2.417-5.405-3.697-7.947-.943-1.874-1.658-3.763-2.259-5.77v-3.375c.306-1.283.452-2.621.731-3.915.638-2.95 1.815-6.129 1.711-9.159-.09-2.604-1.68-8.322-2.442-11.06v-2.64c1.052-4.959 4.067-8.558 5.515-13.224 1.377-4.435.037-9.459 1.189-14.052.904-3.609 2.819-6.502 5.182-9.318.972-1.158 2.037-2.297 2.706-3.667s1.028-2.842 1.41-4.31c.87-3.351 1.63-6.94 3.55-9.874 1.783-2.725 4.656-4.604 7.23-6.515 1.1-.817 2.25-1.641 3.125-2.709 2.021-2.466 2.936-6.486 4.607-9.366 2.352-4.054 6.07-6.135 10.183-8.056 1.346-.629 2.743-1.2 3.96-2.064 3.365-2.386 5.284-7.864 9.465-10.788 3.978-2.781 9.377-2.494 13.7-4.583 4.74-2.288 7.872-6.914 13.167-8.284 3.164-.819 6.58-.68 9.823-.764 1.632-.043 3.323-.014 4.89-.539 1.52-.508 2.959-1.39 4.364-2.146 2.789-1.5 5.412-2.828 8.487-3.651m1.564 5.546c-5.194.532-9.068 4.824-14.052 6.043-4.385 1.073-10.944-.286-14.454 1.003-3.843 1.412-7.086 5.655-10.823 7.7-2.662 1.455-5.881 1.994-8.812 2.696-1.453.349-2.988.66-4.283 1.443-1.013.612-1.859 1.52-2.598 2.431-2.21 2.726-4.018 5.962-6.82 8.14-3.299 2.566-8.576 3.74-11.285 6.354-3.086 2.977-3.951 8.441-6.522 11.988-2.776 3.83-7.69 5.585-10.14 8.884-2.218 2.985-2.705 9.65-4.503 13.44-2.043 4.309-6.374 7.388-7.627 12.112-1.017 3.835.11 8.776-.937 13.09-.66 2.72-2.05 5.266-3.315 7.746-.746 1.464-1.602 2.96-1.934 4.585-.182.89-.152 1.806-.055 2.705.473 4.351 2.233 8.49 2.079 12.913-.148 4.25-2.745 10.665-2.233 14.302.63 4.466 4.508 8.511 5.608 13.06 1.027 4.247-.228 10.264 1.02 13.635 1.451 3.92 5.364 6.414 7.39 10.017 3.237 5.755 1.477 11.948 7.179 16.488 2.331 1.856 5 3.367 6.94 5.669 2.998 3.557 3.582 9.091 6.518 12.23 2.895 3.095 8.495 3.9 11.967 6.73 3.44 2.803 4.89 7.79 8.637 10.19 1.491.957 3.5 1.21 5.206 1.594 2.469.556 5.034 1.099 7.307 2.249 4.212 2.132 7.967 7.241 12.115 8.596 3.892 1.272 10.236-.259 14.659.914 5.12 1.357 9.794 6.525 15.253 5.864 4.437-.534 8.434-2.665 13.029-2.488 4.422.17 10.26 2.828 14.023 2.469 4.974-.737 8.863-4.685 13.724-5.918 4.623-1.172 9.756.482 14.224-1.204 4.218-1.592 6.691-5.6 10.506-7.748 5.387-3.033 12.042-1.502 16.161-7.04 1.601-2.153 2.885-4.724 4.828-6.584 3.49-3.341 9.091-3.575 12.75-6.951 2.409-2.223 3.53-5.68 4.709-8.656.479-1.21.925-2.417 1.691-3.481 2.656-3.687 7.732-4.874 10.533-8.465 2.706-3.47 2.348-9.218 4.252-13.278 2.03-4.328 6.648-7.409 7.922-12.088 1.023-3.759-.267-8.802.78-13.055 1.084-4.401 4.77-8.999 5.347-13.134.126-.894.05-1.813-.082-2.702-.635-4.255-2.355-8.242-2.162-12.62.197-4.495 2.812-10.46 2.32-14.55-.453-3.765-4.625-7.579-5.64-11.804-1.096-4.572.823-10.754-.54-14.407-1.266-3.393-5.647-6.462-7.488-9.934-2.277-4.294-1.94-10.71-4.422-14.21-.796-1.121-1.96-2.022-3.058-2.827-2.212-1.624-4.66-3.077-6.51-5.13-3.238-3.592-3.717-8.899-6.96-12.434-3.216-3.504-8.579-4.24-12.199-7.25-3.31-2.751-4.772-7.49-8.411-9.913-4.022-2.676-9.348-2.242-13.606-4.405-4.128-2.097-6.495-6.705-11.048-8.162-4.565-1.46-9.468.381-14.108-.869-5.272-1.42-10.251-6.71-15.715-5.832-4.163.669-8.127 2.656-12.417 2.588-3.082-.049-6.198-1.09-9.16-1.882-1.556-.416-3.13-.898-4.758-.847"/><path d="M132.828 243.264c-7.068.431-14.413-.107-21.405-1.15q-1.035-.147-2.067-.312-1.031-.165-2.06-.35-1.029-.183-2.053-.386t-2.046-.424q-1.022-.222-2.038-.463-1.017-.24-2.03-.499-1.012-.258-2.02-.536-1.007-.277-2.009-.573t-1.998-.61-1.987-.647-1.975-.682-1.963-.72q-.977-.368-1.948-.754t-1.935-.79-1.92-.826-1.903-.86q-.949-.44-1.889-.896t-1.87-.93q-.932-.473-1.855-.964-.922-.49-1.836-.998-.913-.507-1.817-1.031t-1.798-1.065q-.895-.54-1.779-1.097t-1.758-1.13-1.737-1.161q-.863-.59-1.715-1.194t-1.693-1.224-1.67-1.256q-.83-.635-1.648-1.285-.818-.651-1.623-1.316-.806-.666-1.6-1.346-.792-.68-1.573-1.374-1.052-.935-2.08-1.894-1.03-.96-2.034-1.945-1.005-.985-1.986-1.994-.98-1.009-1.936-2.041t-1.886-2.089-1.834-2.133-1.781-2.178-1.728-2.22q-.85-1.122-1.673-2.263-.822-1.141-1.617-2.302t-1.56-2.342q-.767-1.18-1.504-2.379-.736-1.198-1.444-2.414-.707-1.216-1.384-2.45-.678-1.232-1.325-2.482-.647-1.249-1.264-2.514-.616-1.264-1.201-2.544t-1.14-2.572q-.554-1.294-1.076-2.6t-1.012-2.626-.948-2.649-.883-2.671-.817-2.693-.751-2.711-.685-2.73-.618-2.744-.55-2.76q-.26-1.382-.484-2.772-.224-1.388-.415-2.782t-.347-2.792-.28-2.8q-.121-1.402-.21-2.806-.09-1.425-.146-2.853-.056-1.427-.076-2.856t-.005-2.856q.015-1.429.066-2.856.05-1.428.136-2.854t.207-2.849.277-2.843.348-2.836.418-2.826q.227-1.41.488-2.815.261-1.404.557-2.801t.627-2.788.695-2.77.764-2.753q.4-1.371.832-2.733.433-1.361.9-2.712.466-1.35.965-2.688.5-1.338 1.033-2.663.532-1.326 1.098-2.638.565-1.311 1.163-2.609.597-1.298 1.227-2.58t1.291-2.548 1.354-2.516 1.414-2.48 1.476-2.446q.753-1.213 1.537-2.408t1.596-2.37 1.654-2.329q.84-1.154 1.71-2.288t1.768-2.244 1.822-2.2 1.876-2.154q.773-.875 1.564-1.733.79-.859 1.599-1.701t1.633-1.668 1.666-1.635 1.7-1.6 1.731-1.565 1.763-1.53 1.794-1.494q.905-.738 1.824-1.457.92-.719 1.853-1.42.934-.7 1.882-1.38.948-.682 1.909-1.344.961-.661 1.936-1.303.975-.643 1.962-1.265.988-.622 1.988-1.224t2.012-1.183 2.036-1.143 2.059-1.1q1.034-.54 2.08-1.058 1.046-.52 2.102-1.016 1.056-.498 2.122-.973 1.066-.476 2.14-.93 1.076-.454 2.16-.886t2.178-.842 2.194-.797 2.21-.753q1.108-.365 2.224-.707 1.115-.343 2.238-.662 1.123-.32 2.251-.617 1.13-.296 2.264-.57 1.135-.274 2.275-.525 1.14-.25 2.285-.478c5.885-1.163 11.763-1.776 17.743-2.123q.345-.018.69-.033 1.165-.037 2.329-.05t2.329-.004q1.164.01 2.328.044t2.327.091 2.325.138 2.321.186 2.317.232 2.312.28q1.155.15 2.306.326 1.151.175 2.298.373t2.291.42q1.143.22 2.282.465 1.138.245 2.272.512 1.133.268 2.26.558 1.128.29 2.25.604 1.121.313 2.236.65 1.115.335 2.223.694t2.208.74 2.193.784q1.092.403 2.176.828t2.16.872 2.14.916 2.122.96 2.103 1.002 2.08 1.045q1.036.532 2.06 1.086t2.038 1.129q1.012.574 2.013 1.169 1.002.595 1.99 1.21.99.615 1.965 1.25t1.94 1.29q.962.654 1.912 1.328 3.036 2.101 5.926 4.399t5.621 4.78q1.043.963 2.061 1.95 1.019.989 2.013 2 .994 1.013 1.963 2.049t1.913 2.096 1.861 2.141q.918 1.082 1.809 2.186t1.755 2.23q.863 1.125 1.7 2.272.835 1.146 1.643 2.312t1.588 2.352 1.529 2.39q.75 1.204 1.47 2.426.721 1.222 1.412 2.461.69 1.24 1.351 2.495.66 1.256 1.29 2.528.63 1.27 1.228 2.557t1.165 2.587q.567 1.301 1.101 2.615.535 1.314 1.038 2.64t.973 2.666.908 2.688.842 2.71.776 2.728.71 2.748q.337 1.378.641 2.763t.575 2.779q.27 1.392.507 2.791.236 1.4.438 2.804t.37 2.813.302 2.821q.133 1.413.232 2.828.1 1.415.164 2.832c.45 11.816-1.015 24.611-4.167 36.022-4.57 16.542-13.756 33.928-25.455 46.539q-.972 1.045-1.97 2.067-.997 1.021-2.019 2.018-1.022.998-2.067 1.97t-2.114 1.918-2.16 1.868q-1.092.92-2.206 1.814-1.113.893-2.248 1.76-1.134.866-2.29 1.705-1.155.839-2.33 1.65t-2.37 1.592-2.407 1.534q-1.214.754-2.445 1.476-1.23.724-2.479 1.417-1.248.693-2.512 1.356-1.265.662-2.545 1.294t-2.576 1.233-2.604 1.17q-1.31.57-2.632 1.107t-2.658 1.042-2.683.978-2.705.913-2.727.847-2.746.781-2.764.714-2.781.647-2.796.58-2.81.511-2.82.444-2.83.375-2.839.306-2.845.237-2.85.17m63.78-190.956c1.055 1.248 2.177 2.422 3.166 3.727 2.423 3.195 4.083 6.794 5.544 10.503.307.778.86 1.33 1.08 2.145.369 1.365 1.123 2.575 1.5 3.918.287 1.022.292 2.197.377 3.254l-.194-.22.22.362c.7-.993-.676-6.541-.244-6.872l.226.067c.232-.482-.115-1.02-.089-1.52.027-.51.374-.341.404-.91.045-.86-.218-1.787-.053-2.63l.312-.076c.159-.808-.448-1.735-.191-2.47l.244-.105c-.005-1.288.018-2.545.14-3.829-7.746-4.023-15.627-7.839-23.814-10.876-2.634-.978-5.343-2.061-8.144-2.419-2.222-.283-4.654.086-6.788.71 1.471.075 2.875.064 4.174.862-3.734.105-7.397-.026-11.006 1.127 1.796.116 3.597 0 5.395.071 2.935.115 6.09.615 8.94 1.315-5.927.28-12.086-1.508-17.897.231 2.29.173 4.547.803 6.807.952 2.258.346 4.563.534 6.806.953-.109.003-.242.003-.35.01l-.162.011c-3.358.208-6.848-.467-10.201-.701-3.248-.227-6.29.065-9.512.45 1.579.316 3.176.502 4.764.762 3.532.576 7.048 1.187 10.59 1.711-2.995.21-6.317-.195-9.26-.751-2.212-.418-4.405-.943-6.66-1.046l.013.126-.22-.092c.651.631 2.699.547 3.635.794a20 20 0 0 1 2.635.926c2.33.98 4.574 2.202 6.832 3.334q2.944 1.45 5.94 2.791c1.515.69 3.058 1.49 4.667 1.927 4.564-1.314 7.473-1.074 11.972.376 1.978.637 3.817 1.31 5.644 2.314 1.274.7 2.367 1.541 3.495 2.447q.192-.074.382-.152c.415.477.873 1.317 1.398 1.636l.115-.278c.611.341 1.01 1.47 1.596 1.68l.106-.227c.611.264.49 1.423 1.326 1.572.412.073.376.629.845.66-.326-1.564-2.096-4.389-2.859-5.94-.456-.929-.754-1.975-1.331-2.833-.318-.473-.242-.98-.611-1.556-.145-.226-.355-.5-.408-.763.069-.011.14-.017.208-.034.066-.016.13-.043.194-.064-.383-.78-.915-1.599-1.174-2.421.162-.161.07-.097.275-.194-.173-.391-.5-.896-.5-1.319l.337-.174c-.351-1.092-.572-2.104-.636-3.252m-148.051.823-.049.087zc1.246-.032 2.509-.323 3.775-.361 4.746-.142 9.795.08 14.494.797-5.782.427-14.438-.423-19.692 1.002-3.349 3.283-10.922 13.36-12.943 17.471 5.998-1.562 16.205-5.69 22.09-5.321 2.267.142 4.31.873 6.347 1.83 7.093-2.93 14.267-5.677 21.378-8.562 7.163-2.906 13.941-6.4 21.654-7.596 1.496-.177 2.993-.192 4.498-.181-2.468-1.121-5.095-1.994-7.624-2.982-4.644-1.814-13.638-5.84-18.151-6.087-2.434-.133-4.524.606-6.79 1.38.942.15 1.88.377 2.814.571-2.673.34-4.415.156-7.101.982 1.975.043 4.092.481 5.88 1.325-4.683-.39-8.817-.739-13.34.71 4.784-.201 10.073-.328 14.673 1.124q-5.68-.245-11.364-.153c-1.955.029-3.954.006-5.894.257-1.368.177-2.695.508-4.024.869 6.191.271 12.463-.2 18.611.88-6.028.532-25.373-.943-29.29 2.045m59.68 13.732c-.744-.012-1.572.033-2.279.283-.072.013-.158 0-.214.047l.214-.047c.77.06 1.544-.058 2.279-.283l.138-.082zm113.124 61.117c-.583-.01-1.202-.062-1.78.02l-.025.21c.656.127 1.185-.002 1.804-.23l.14-.073zm-111.192 9.828c-1.042-.346-1.762-1.251-2.662-1.839-1.658-1.082-3.422-2.004-5.09-3.072-2.514-1.61-4.998-3.508-7.689-4.794l-.775.673c-1.352-.472-2.46-.976-3.92-.836q-.332-.306-.673-.605c-1.293-1.112-8.012-3.465-9.97-3.846-.636.21-1.435.444-1.831 1.023l.06.123.204-.045c.037.022.073.047.112.066.791.385 2.182.491 3.058.672-1.032.174-4.589-.184-5.206.306.074.062 6.825.865 7.757.998-2.995.513-6.116-.311-9.159.021l.196.046c2.046.473 10.284.687 11.47 1.555l.164.004.058.047c-1.514-.108-3.023-.317-4.54-.385-1.592-.072-3.203-.029-4.798-.048 3.016.974 6.99 1.045 10.18 1.257 1.673.11 3.373.103 4.956.715-1.288.05-2.572.06-3.858-.034-1.633-.12-3.442-.596-5.044-.229-.334.077-.687.05-1.028.035l-.066.045c.595.211 1.107.453 1.745.536 1.518.196 3.097.038 4.628.129.552.032 7.045.838 7.13.899.072.051.107.139.16.208l.053-.05-.07-.102-.086.212c-1.551.561-7.5-1.055-7.99-.312 2.669 1.695 7.582.347 10.76 1.894-2.215.132-8.406-.928-9.98-.376 1.666 1.277 9.575.378 10.752 1.568-.563.431-2.838.124-3.584.025-.678-.09-1.89-.428-2.514-.092 1.738 1.197 6.747.337 7.797 1.169-.212.235-.564.254-.871.273-.887.056-1.786.01-2.673-.024 1.22.484 2.518.854 3.822 1.018.834.104 1.834.086 2.623.344.926.302 1.52 1.332 2.573 1.206l.1-.108c-.349-.222-.745-.352-1.05-.632 2.246.536 2.8.857 5.192.67.435.346.885.681 1.287 1.066-3.415.239-6.696 1.201-10.092 1.487-2.269.19-4.58.004-6.856.034-3.325.043-6.645.302-9.974.144-2.16-.102-4.303-.457-6.47-.536-2.302-.085-4.707.302-6.986-.065-3.908-.627-7.476-2.528-11.376-3.294-2.244-.44-4.72-.576-7.005-.734-1.75-.12-3.58.173-5.251-.514-1.351-.556-2.264-1.783-3.592-2.413q.542 4.43.937 8.874c.174 2.082.236 4.216.52 6.284 4.884.384 9.002-2.701 13.892-2.072 1.613.207 2.922 1.143 4.45 1.578 1.802.513 3.722.383 5.521.84 1.057.268 1.952.885 2.97 1.24 2.122.74 7.149 1.634 9.373 1.548 4.399-.17 7.14-4.13 12.87-4.037 1.995.032 4.082.466 5.927 1.228 3.954 1.634 6.05 3.434 10.604 2.712-1.206-.606-3.808-1.578-4.252-2.92-.094-.287-.135-.505-.085-.808.162-.218.18-.255.453-.29 1.66-.212 3.451 1.662 4.924 2.264 1.995.816 4.283 1.099 6.372 1.638 1.862.481 3.747 1.193 5.644 1.49.676.106 1.275.143 1.95-.005 3.439-.75 6.889-3.516 10.059-5.056 3.25-1.521 6.19-1.473 9.543-.266 1.468.529 2.996 1.398 4.548 1.6 1.743.227 3.454-.054 5.227.294 3.106.612 6.806 2.217 9.74 3.439.874.363 3.456 1.796 4.215 1.852.371.028.886-.217 1.21-.374 1.343-.654 2.501-1.704 3.774-2.487 6.236-3.833 9.965-4.72 17.103-2.362 2.735.904 5.469 2.114 8.087 3.315 2.696 1.236 5.415 2.877 8.394 3.288 5.463.753 9.684-4.144 15.316-3.667 3.694.313 7.164 2.226 10.733 3.168.344-1.261.687-2.546.933-3.831l-.178-.224.16.04-.12-.11-.18.038c-1.643.33-2.344-.819-4.089-.102-.408-.053-.651-.115-1.014-.308l-.118-.227c.462-.505 1.91-.453 2.561-.485.576-.028 2.901.136 3.206-.251.336-.427.377-1.236.459-1.765-1.373.413-2.412-.005-3.782.059-1.937.09-3.91.565-5.825.593-1.07.015-2.143-.145-3.215-.145-2.508 0-5.046.172-7.55.076-1.078-.04-2.16-.227-3.235-.235-1.728-.014-3.467.426-5.198.478-1.505.046-3-.221-4.5-.228-1.764-.007-3.532.249-5.297.117-1.052-.078-2.086-.375-3.135-.435-1.17-.067-2.337.28-3.511.17l-.119-.12c.403-.484 2.893-.886 3.57-.899.277-.005.481.068.742.142.253.071.552.148.816.151.748.009 1.546-.191 2.313-.205 3.497-.06 7.022-.012 10.51-.305.73-.061 1.554-.144 2.231-.428l-.007-.139c-.293-.113-.343-.139-.646.002-.096.044-.243.14-.336.2-1.305-.626-1.732-.646-3.176-.291-1.1.27-2.066-.1-3.16-.138-.61-.02-1.165.176-1.76.182-1.168.013-2.398-.105-3.566-.181-1.705-.113-3.342-.51-5.06-.535 2.71-1.102 5.59-1.152 8.456-1.529 2.137-.281 4.257-.653 6.39-.96.927-.132 2.067-.07 2.942-.352.336-.108.5-.341.635-.651.669-1.538.123-6.012.2-7.943.055-1.398.457-2.738.49-4.138.012-.522-.019-.96-.192-1.455-.476-.427-1.209-.46-1.833-.408-.323.027-.483.05-.695.308l.124.338c-1.623.531-3.386.333-5.067.515-2.988.322-5.96.85-8.962 1.014-1.922.106-3.817-.138-5.689.387.836.619 1.697 1.378 2.614 1.862.1-.29.185-.555.367-.807l.258-.07c.328.347.275.71.689.987l.351-.014q.157-.312.329-.617c.27-.037.203-.085.393.07.235.191.47.517.517.825.005.033.002.066.004.1a3 3 0 0 1-.419-.063 1.7 1.7 0 0 0-.49-.025l.034.148c1.5.321 6.08-.508 7.135.237l-.1.155c-.849.141-1.72.084-2.58.148-1.9.144-3.826.378-5.734.363-.821-.006-1.642-.355-2.463-.261-.766.088-1.401.404-2.07.765.725-.075 1.46-.19 2.188-.139-.207.127-.147.121-.35.156-.782.136-1.575.136-2.365.278-1.239.223-2.527.623-3.772.742-1.158.11-1.785.014-3.007.32q1.23.096 2.458.214l.057.118c-.362.26-.907.132-1.318.064-.522-.086-1.13-.259-1.656-.25-.803.012-1.614.323-2.434.366-1.312.07-2.739-.146-4.028.037-.774.11-1.418.47-2.255.543-4.167.362-8.109.365-12.267-.028-.896-.085-2.288.06-2.908-.672l-.077-.325c.204-.327.397-.444.77-.544 1.302-.347 2.833-.265 4.186-.458-3.45-.245-6.782-1.098-10.25-1.148-2.37-.035-4.82-.105-7.184.065-4.172.3-8.312 1.064-12.474 1.412-2.064.173-4.068-.14-6.121-.112-1.953.025-3.9.318-5.851.372-3.913.109-8.078-.936-11.937-.25.666.663 1.602 1.063 2.11 1.858m-7.266-.577c.44.417.81.602 1.409.675l.055.062-.055-.061c-.374-.442-.86-.579-1.41-.676m65.823 91.73-.118.018c-3.157.529-6.075 1.99-9.348 2.024-4.88.05-9.07-3.863-14.448-3.633-5.903.253-11.284 3.872-17.203 3.466-4.98-.342-8.873-3.409-14.49-3.293-4.79.099-8.954 3.361-13.847 3.101-2.169-.115-4.065-.893-6.04-1.719-4.335-1.81-6.92-2.336-11.546-1.85 1.926 1.051 2.733.827 4.575 1.418 2.014.786 3.922 1.822 5.945 2.581 2.646.994 5.426 1.694 8.104 2.622 1.633-.64 3.278-1.262 4.85-2.043 4.151-2.065 6.74-3.8 11.391-1.782 4.389 1.904 8.603 5.995 13.67 4.026 1.127-.438 2.207-1.031 3.287-1.574 6.167-3.1 8.777-4.597 15.517-1.67 1.978.86 3.93 1.918 5.976 2.598 2.363-.475 12.221-3.249 13.725-4.29l.148-.06zm-44.89-210.64q-1.077.044-2.153.109t-2.151.151-2.147.194-2.144.236-2.138.279-2.132.32-2.125.364-2.118.405-2.11.447-2.1.488-2.09.53-2.079.572-2.067.612-2.055.653-2.041.694-2.028.734-2.013.774-1.996.813-1.98.853-1.963.892-1.946.931-1.926.969-1.906 1.007-1.886 1.044-1.866 1.082-1.844 1.118-1.82 1.154-1.798 1.191-1.774 1.226-1.75 1.26q-.868.64-1.723 1.295-.856.656-1.698 1.329c-2.9 2.324-5.94 4.685-8.464 7.419q-.254.276-.493.566c8.314-3.089 22.37-8.882 30.88-8.714 3.301.065 6.48.913 9.601 1.924 2.016-.465 4.048-.956 6.003-1.634 9.323-3.236 20.488-9.488 30.611-7.694 3.955.701 7.786 2.399 11.5 3.886q5.49 2.316 11.02 4.532c2.711 1.097 5.417 2.274 8.225 3.108 2.708-1.088 5.447-2.252 8.32-2.833 8.336-1.683 16.924 1.989 24.466 5.2q5.638 2.42 11.128 5.16c1.594.799 3.142 1.746 4.75 2.504.41.194.862.425 1.318.45.231-.236.279-.278.256-.634-.064-1.034-1.76-2.579-2.442-3.303q-2.027-2.117-4.165-4.123t-4.38-3.893-4.583-3.653q-2.34-1.764-4.772-3.4-.744-.501-1.497-.989-.752-.488-1.512-.964t-1.528-.939-1.543-.914-1.558-.888-1.572-.863-1.587-.837-1.6-.811-1.612-.785q-.81-.386-1.625-.758-.816-.373-1.637-.732-.822-.36-1.65-.705-.827-.346-1.66-.678t-1.671-.65q-.839-.319-1.682-.623-.844-.305-1.692-.596-.848-.29-1.7-.568-.854-.277-1.711-.54t-1.719-.512q-.861-.249-1.727-.484-.865-.235-1.734-.455-.87-.22-1.742-.427-.873-.207-1.749-.399t-1.755-.37-1.76-.341q-.882-.164-1.766-.313-.885-.149-1.771-.283-.887-.135-1.776-.255-.888-.12-1.779-.225t-1.782-.197-1.786-.167-1.788-.138c-3.822-.26-7.714-.397-11.54-.188m.205 17.096c-1.78.252-3.373.699-5.044 1.356 1.37-.037 2.505.004 3.832.342-2.263.179-4.746.347-6.898 1.092 1.652.155 3.465.184 5.044.72-3.221.1-6.258.04-9.407.898 3.284.141 6.595.412 9.797 1.203-5.1-.041-10.343-.516-15.392.247 3.954.52 7.821 1.095 11.722 1.943l.012.057c-4.881-.23-9.611-1.174-14.524-.65 1.92.232 4.244.27 6.079.885-.874.434-5.08-.075-6.251-.056-2.267.038-4.796.188-6.942.938.668.048 1.557.021 2.187.23-1.347.186-2.708-.01-4.057.19q1.938.628 3.832 1.376c3.731 1.443 7.437 3 11.199 4.359 2.482.897 5.013 1.672 7.532 2.457 1.597.497 3.208 1.073 4.83 1.477l.148-.041c1.294-.374 2.554-.947 3.808-1.442 3.269-1.29 7.934-3.276 11.256-3.988q.905-.196 1.823-.315t1.842-.16 1.85-.008 1.843.148c1.277.158 2.595.444 3.883.44 2.492-.006 6.352-1.384 8.58-2.521-4.113-2.056-8.693-3.788-12.956-5.553-4.197-1.738-8.402-3.742-12.797-4.919-2.19-.587-4.561-.986-6.83-.705m46.242 9.645h.153zm-28.629 5.226a12.3 12.3 0 0 0-3.113.908 8 8 0 0 1 2.163.431l-.176-.029c-.963-.134-2.123.18-3.096.263 1.018.161 2.318.368 3.333.244l.025.109c-1.505.847-3.795.705-5.506 1.104q1.938.085 3.879.065c-3.172.862-6.586.356-10.176 1.35 1.913.008 3.822-.107 5.735-.061l.061.15.097-.139.227.053-.38-.07-.034.16-3.348.328q-2.19.194-4.375.44l.225.033c1.355.21 2.838 1.023 4.175 1.01 2.378-.02 6.983-1.732 9.404-2.456 3.013-.901 6.17-1.776 9.241-2.439-2.601-.983-5.56-1.785-8.36-1.454m12.551 3.378c-1.538.18-2.956.808-4.48 1.045 1.377.005 2.764-.114 4.138-.057-3.386.771-6.881.797-10.284 1.51l.128.008c1.217.065 2.44-.026 3.659.005 1.864.048 3.683.3 5.517.621-4.737.274-11.023-.116-15.393 1.373 4.335.08 8.838.293 13.065 1.345-5.446-.066-12.99-.87-18.198.412 4.887.534 9.988.78 14.766 1.988-6.474-.01-16.237-2.046-22.032.436 3.43.012 6.867.04 10.284.38 2.536.252 5.048.744 7.586.954-.876.357-14.187-.221-16.583-.147-2.386.075-6.734.617-9.008 1.269 2.317.104 4.629-.034 6.946-.041q3.12.018 6.227.313c.807.073 1.78.071 2.54.347l-.345.066.157-.085-.073.107c-3.54-.016-7.084.183-10.624.234-3.714.054-7.208-.374-10.884.517l-.07.081c.772.046 1.576-.104 2.353-.123 2.044-.05 4.245.087 6.256.477-2.692.313-5.41.025-8.104.212-3.694.255-7.393.937-11.088 1.288 1.016-.499 2.195-.735 3.26-1.13l10.722-3.947c4.003-1.462 7.865-3.308 11.865-4.765-1.57-.706-3.24-1.223-4.864-1.79-3.5-1.22-7.316-2.844-11.075-2.777-2.03.037-3.969.634-5.908 1.175 1.82.022 3.53.127 5.293.627-3.332.067-6.003.288-9.19 1.357 3.192.19 5.59.622 8.62 1.704-4.979-.345-9.899-1.05-14.78.537 4.202-.271 11.653.341 15.704 1.413-2.172-.153-4.342-.04-6.515-.078-5.605-.098-9.343-.386-14.966.682 3.805.086 12.361.197 15.752 1.573-1.821-.14-3.641-.124-5.465-.207-5.664-.257-11.612-.725-17.044 1.195q4.266-.32 8.544-.244t8.53.546c-.612.515-14.432.437-16.551.603-1.73.135-3.406.515-5.09.91 2.432.034 4.92-.022 7.343.207 1.772.166 3.522.541 5.291.745-1.767.192-3.587-.025-5.365.003-4.85.075-8.455.314-13.237 1.307l-.118.104c1.243.132 2.555-.035 3.808-.04 2.463-.008 5.373.138 7.774.66a271 271 0 0 0-14.183.62c-1.426.1-2.834.401-4.257.49 2.873 1.553 5.743 3.108 8.707 4.483 1.323.614 2.7 1.104 4.027 1.712 2.072-.756 4.06-1.392 6.277-1.568 2.926-.233 5.865.377 8.734.88l10.557 1.852c1.744.296 3.539.688 5.3.834 1.376.115 4.85-1.785 6.392-2.316q2.03-.679 4.132-1.089c2.014-.412 4.108-.467 6.152-.286 4.795.425 9.531 1.763 14.166 3.01 5.382 1.45 10.781 2.864 15.849 5.229a58.4 58.4 0 0 1 7.242 4.024c4.57-.575 9.193-2.271 13.571-3.653 3.873-1.224 7.776-2.499 11.717-3.486 1.258-.315 2.54-.519 3.808-.788 1.294-.276 2.353-.893 3.678-1.015-1.046-.407-4.002-1.772-4.826-2.445l-.058-.217c.838-.632 5.885-.52 7.017-.317.438.079.87.395 1.306.317l.003-.353c.97.03 1.494 1.119 2.368 1.284l-.262-.535.126-.163c.825-.027 1.273.686 1.997.775l-.03-.171c-.034-.228-.036-.136.009-.338q.772.325 1.553.626c-.314-1.048-4.332-3.123-5.385-3.858a44 44 0 0 1-3.294-2.533c-.213-.182-.601-.419-.392-.724.023-.033.058-.055.086-.083-.604-.758-2.129-.775-2.578-1.709l.1-.244c-.524-.534-1.223-.661-1.702-1.284l.026-.114.396.033-.066-.198c-.342-.156-.891-.275-1.094-.566l.334-.098c-.275-.386-.703-.788-1.082-1.074-.383-.29-1.087-.474-1.544-.646-2.453-.927-4.435-1.048-6.993-.446-.715.168-1.425.365-2.134.557.929.016 2.466-.128 3.248.367l-.004.21c-.517.172-1.123.146-1.665.208-1.51.17-3.14.28-4.583.774 2.272.055 5.03-.216 7.179.56l.006.155-.139-.199-.044.246c-4.032.567-8.24-.541-12.222.72 5.318.017 9.41.413 14.58 1.672-2.624-.088-5.23-.421-7.851-.555-2.815-.144-5.6-.012-8.405.234-.717.063-1.737.024-2.38.306 1.69.195 3.42.124 5.119.248 2.042.148 4.103.564 6.123.898 1.424.235 2.935.394 4.324.783-2.18.03-4.413-.321-6.58-.537-4.198-.42-9.219-.798-13.389-.133 3.083.362 6.227.444 9.29.903-4.99.49-10.934-1.073-15.749.543 2.462-.097 4.834-.17 7.294.059-2.231.21-4.47.196-6.706.309q-3.281.184-6.527.696c4.414-1.602 8.63-3.55 12.984-5.275 3.997-1.583 8.083-2.908 12.072-4.53-1.761-1.111-4.05-1.705-5.96-2.564-3.626-1.631-7.58-3.988-11.327-5.153-1.057-.328-2.14-.33-3.232-.26m43.117.077.098.04zm15.15 4.98c-.114.566-.114.842.09 1.383.074.197.108.302.026.508-.104.26-.271.515-.411.758l.065.097.615-.215c-.006.253-.137.589-.124.812.032.572.75 1.195.714 1.868-.026.52-.542.844-.53 1.38l.376.226c.223 1.236-.74 7.563-1.445 8.582-.062.091-.132.177-.197.267-.127.179-.248.364-.373.544.469-.29.966-.559 1.371-.934 2.173-2.62 3.079-5.143 5.657-7.71-1.477-2.25-3.744-5.881-5.833-7.566m-102.94 7.84h.154zm.252 0h.152zm-.75.12.247.003zm-.376.13h.153zm111.285 1.775c-1.49 2.74-4.01 4.61-5.744 7.149.683-.343 1.387-.666 2.054-1.039.786-.37 2.976-1.383 3.687-1.567.806-.21 1.724-.184 2.552-.271.016-.444-2.032-3.687-2.451-4.171q-.048-.051-.098-.101m-165.87.321-1.184.326q1.486.078 2.968.213c-2.445.66-4.985.532-7.443 1.286 2.557.022 4.74.398 7.206 1.06-5.648-.38-11.31-.354-16.743 1.465 5.172-.44 11.252-1.26 16.197.659-1.81-.097-3.625-.217-5.438-.203-1.824.015-16.118.656-16.918 1.124a5 5 0 0 0-.289.245c-.149.145-.21.307-.284.496l.081.09c5.552.172 11.826-.53 17.305.393-1.946.422-4.123.324-6.105.35-3.922.05-7.88-.06-11.788.291-.287.457-.68.937-.706 1.488.132.226.156.31.423.393.764.235 3.176-.13 4.446.078q-2.044.326-4.101.564c.251.48.921 1.194.944 1.694l.133.214c1.142 1.843 5.05 9.987 5.547 12.053.069.284.017.507-.015.787-.053.462-.033.553.23.945.416.62.514 2.844 1.125 3.034.489-.748.276-4.443.206-5.383-.022-.293.156-.599.257-.866.078-.207.092-.305.053-.52l-.317-.5c.104-.389.282-.294.467-.572.058-.088.269-2.76.337-3.189.386-2.417.834-4.758 1.332-7.154.2-.966.33-1.948.592-2.9.938 3.244 1.565 6.327 1.254 9.728 4.532-1.494 9.124-2.71 13.69-4.085q8.963-2.67 17.74-5.896c-3.819-1.765-7.559-3.693-11.409-5.39-1.804-.794-3.666-1.67-5.595-2.106-1.383-.313-2.79-.343-4.198-.212m29.991 7.383c-1.708.237-3.293.671-4.934 1.19 2.002-.085 3.732.005 5.657.58-3.702.053-7.14.145-10.62 1.57 3.37-.391 6.758.015 10.121.29-1.322.324-2.757.298-4.112.322-3.44.06-7.183-.04-10.424 1.262 3.266-.016 8.567-.026 11.723.555-1.678.285-3.366.272-5.061.282-4.4.027-8.769-.236-13.061.878 4.227-.026 9.193-.264 13.33.654-3 .21-6.006.234-9.012.272-3.77.048-7.2-.09-10.824 1.208 3.054-.202 7.325-.412 10.317.029q-5.771.716-11.583.928c-.945 2.341-4.61 5.805-6.392 7.761-2.19 2.403-4.52 4.858-6.477 7.45 3.35-1.32 10.085-4.498 13.613-2.974.33.143.621.353.778.686.133.281.092.486-.01.759-.39.235-.44.227-.885.162-.892-.128-5.694 1.65-6.772 1.971-.58.173-1.23.229-1.831.309 2.528.15 5.116.007 7.652-.032 5.5-.082 11-.267 16.5-.284.043-1.002-.113-3.252.615-4.014 1.106-1.157 4.39-1.197 5.921-1.321 1.554-.126 3.113-.492 4.665-.532 6.17-.163 12.374.58 18.531.357.748-.027 1.401-.4 2.13-.477 1.25-.133 2.577-.002 3.84-.066 2.18-.11 4.352-.34 6.537-.436.516-3.491 1.262-7.89 1.194-11.37.222-.376.576-.752 1.007-.877 1.508-.438 3.452-.378 5.036-.485q7.324-.432 14.66-.402c5.985.003 12.273.072 18.17 1.168-2.443-1.331-5.13-2.047-7.782-2.838-6.345-1.853-18.753-4.975-25.146-4.443-1.043.086-1.937.36-2.92.706 2.735.007 6.171.536 8.72 1.525-5.055.054-9.207-1.75-14.031.65 2.956-.228 5.764.21 8.651.802-4.33.263-8.392-.94-12.543.905 3.777.226 7.35.754 11.048 1.538-3.451-.156-9.118-1.078-12.277-.56-1.145.187-2.171.594-3.24 1.025 3.222-.19 7.326.262 10.395 1.38-3.915.158-8.589-1.369-12.522-.476-.661.15-1.332.477-1.96.736 4.147-.021 7.781.69 11.736 1.825-1.806-.076-3.56-.43-5.347-.668-2.873-.382-6.353-.601-9.204-.03-.855.17-1.702.484-2.527.76 3.837-.47 10.77.426 14.492 1.64-6.346-.2-13.938-2.034-20.08-.073 4.49-.131 7.467.015 11.905.574-3.531.797-9.109-.115-12.845-.049-1.281.023-2.611.412-3.893.569 1.927.141 4.446-.278 6.254.207-1.01.193-2.133.148-3.164.184-2.327.08-4.633.102-6.954.314-1.868.172-3.73.456-5.582.745-1.267.198-2.989.705-4.255.54l.142-.011c.038-.028.072-.063.114-.084.607-.3 1.808-.414 2.5-.607 3.745-1.05 7.526-1.997 11.257-3.093 7.27-2.135 14.484-5.146 21.332-8.39-6.044-.9-16.501-3.34-22.273-2.676m133.646.486c-1.15.187-2.803.612-3.775 1.254l-.049.154.518-.159q.204.119.406.243c.223-.147.392-.307.578-.498l.239.023.376.521c.413.046.492-.21.825-.239.367-.03.4.382.638.486.773.339 1.2-.284 2.35.593.668.51 1.398.9 2.02 1.474l.034.205c-.338.24-.707.279-1.111.305-1.65.108-3.387-.102-5.042-.159-1.228-.043-2.548.065-3.757-.125.08 1.087.301 3.333-.191 4.29-.271-.007-.25-.052-.443-.222-.356.549.818 10.094 1.068 11.307.118.577.302 1.336.843 1.66.853.513 2.415.199 3.357.135 1.864-.137 3.67.006 5.53 0 3.736-.011 7.494-.077 11.228-.15-1.287-5.477-3.536-10.844-5.914-15.926-.753-1.61-1.476-3.25-2.376-4.784-2.435-.026-4.922-.221-7.352-.388m-20.65 2.127c.634.175 2.375.343 2.791.787l-.318.074.006-.103c-2.807-.266-5.712-.451-8.52-.09 1.573.276 3.22.091 4.761.372 1.958.158 3.749.774 5.667 1.033.821-.621 1.617-1.185 2.535-1.656-2.304-.47-4.585-.462-6.922-.417m-166.961.785-.124.14.108.055.16-.147zm-.337.39q-1.09 1.967-1.943 4.049c.385.5 1.671 1.621 1.809 1.866.159.282.285.901.575.994l.275-.311c.492.334.814.903 1.225 1.332.84.877 1.147 2.248 2.028 3.156.153.158.229.306.322.502.216.376.442.912.775 1.192l.061-.125c-.268-.612-1.225-3.296-1.658-3.517l-.143-.017-.21-.373-.045.119.24-.267c-.121-.916-.787-1.806-1.122-2.669-.57-1.462-1.438-4.82-2.189-5.932m159.93.483c.747.25 1.623.207 2.411.245 2.378.116 4.632.188 6.875 1.085-2.708-.257-5.606-.656-8.322-.368q3.328.61 6.67 1.133c-2.157.476-4.13-.171-6.268.007 1.08.554 4.537.86 5.898 1.13l-.133.011c-3.542.258-7.65-.67-11.179-.116 3.498.098 9.298.881 12.546 1.955-1.736-.116-3.457-.39-5.19-.534q-4.151-.316-8.314-.245c-.988.017-2.111-.05-3.077.14 2.625.258 5.248.454 7.815 1.1-1.912.023-12.345-.847-13.282-.236 1.703.18 3.413.244 5.119.431-1.722.403-6.894-.046-7.81.377 1.245.143 2.513.12 3.742.385-2.614.109-5.238-.052-7.854-.005-2.733.048-5.46.334-8.183.552-1.095.076-2.21.2-3.308.157a23 23 0 0 1 2.573-.652c-1.069-.704-2.183-1.395-3.343-1.94.424 3.733.956 7.47 1.308 11.21q6.634.025 13.265.237c.139.808.25 1.635.44 2.431.71.191 1.53.529 2.219.123.6-.354 1.001-.933 1.62-1.298 1.271-.018 3.28-.384 4.27.528.346.32.536 1.027.688 1.465.707-.675 1.411-1.445 2.224-1.987 1.282 0 3.584-.305 4.554.64.431.42.533 1.168.67 1.727.77-.692 1.467-1.433 2.166-2.195 1.092-.175 2.587-.28 3.571.347.302.193.34.347.42.681-.087.29-.272.655-.188.943.23-.183.152-.067.236-.331.234-.737.63-1.508 1.411-1.803.863-.326 1.738.18 2.583.252 1.184.1 2.613-.277 3.83-.302 2.602-.053 5.32.142 7.926.234-.517-4.451-1.156-8.87-1.819-13.302-.193-1.29-.282-2.611-.508-3.893-1.227.555-6.812 2.729-7.748 2.474-.038-.01-.073-.031-.11-.047.077-.187.127-.28.243-.435a5 5 0 0 0-.473-.853l1.494-.77c-3.938-.569-7.688-.927-11.678-.688m-52.517 3.223c.06 2.617.814 15.923.207 17.268-.532.22-1.1.431-1.59.732-.692.424-1.048 1.254-1.93 1.244-1.114-.936-1.722-3.076-3.221-4.397q-2.759 2.03-5.565 3.993c-.422-2.14-.034-4.377-.516-6.511-1.91.025-3.851-.016-5.755.131q.168 1.214.35 2.425c.819-.032 2.11-.292 2.724.397.08.09.094.163.129.268-.733.404-2.018-.215-2.844-.146-.127.523-.065 1.074-.046 1.608 1.499.17 2.99.436 4.492.562l-.205.039c-1.373.251-2.804.233-4.196.274-.126.417-.08.826-.06 1.254.225.237 3.54.385 4.308.538-1.555.304-2.83.444-4.408.32l-.051 1.772c1.98-.03 3.95.027 5.914.309-1.989.287-3.902.414-5.91.274l-.023 1.767c1.895-.029 3.59-.16 5.403.484-1.842.168-3.645.21-5.495.216v1.63c2.123-.028 4.197.03 6.288.462-2.093.246-4.114.225-6.215.148-.037.62-.089 1.243-.094 1.864 2.228-.463 3.97-.198 6.174.171-2.047.346-4.134.263-6.202.244-.06.515-.165 1.015-.014 1.521.363.187 5.724.376 6.763.496-2.343.33-4.603.365-6.959.367l-.008 1.816c2.364-.181 4.486.013 6.831.302-2.303.276-4.565.198-6.867.349-.025.53-.069 1.067-.05 1.598 2.318.027 4.983-.086 7.215.586-2.397-.015-4.855-.053-7.246.135-.004.563-.088 1.24.074 1.775.856.229 2.172-.118 3.096-.113 1.43.009 2.917.177 4.322.435-2.513.206-5.011.37-7.534.369-.035.58-.084 1.161-.08 1.742 2.635-.156 4.953-.104 7.56.325-2.504.355-5.073.405-7.594.28-.004.623-.02 1.249-.009 1.872l1.873-.1c1.9-.008 3.83.075 5.691.484-2.547.316-5.086.32-7.647.208l.001 1.942c1.5.145 2.987-.015 4.485.06 1.54.079 3.06.422 4.6.518-1.598.183-3.237.248-4.844.264-1.258.012-2.93-.207-4.128.106-.293.485-.263 1.014-.28 1.567 2.773.07 5.546-.114 8.26.554-1.348.112-7.687.042-8.236.27l-.105.432c.185.293.311.355.654.425 1.928.392 13.028-.191 15.249-.73.811-.197 1.471-.681 2.131-1.17 2.546-1.888 9.153-5.707 12.097-6.915l.204.027c1.507.205 3.245 1.273 4.728.956.245-.189.38-.245.407-.583a.93.93 0 0 0-.286-.764c-.684-.097-1.681-.126-2.292-.415.684-.097 1.894.178 2.408-.177.117-.268.204-.608.095-.898-.056-.149-.088-.179-.174-.294-1.243-.275-2.528-.095-3.78-.39 1.307-.17 2.627-.183 3.944-.22.06-.433.18-.862-.016-1.272-.252-.236-.477-.308-.817-.308-1.04 0-2.053.273-3.039-.208 1.167-.72 3.452.516 4.134-.952l-.034-.503c-.059-.044-.107-.108-.175-.133-.4-.149-2.886.075-4.126-.31l-.155-.047-.093-.03c.913-.1 1.82-.168 2.739-.12.277.014 1.578.244 1.76.158.07-.034.115-.107.174-.161.008-.42.048-.566-.168-.935-.619-.385-2.709-.112-2.848-.619.769-.626 2.388.43 3.078-.324.032-.387.055-.628-.126-.99-.573-.445-1.223-.025-1.788-.38l-.01-.293c.518-.214 1.839.304 2.008-.332.08-.3.01-.767-.14-1.03-.551-.037-1.091.069-1.608-.155l.007-.11c.406-.084 1.564-.221 1.768-.603.12-.225.1-.477.103-.725l-.155-.233c-.483-.01-1.1.05-1.546-.141.064-.187.01-.136.191-.233.423-.226 1.484.077 1.644-.388.094-.276.127-.708-.023-.962-.22-.056-.388-.05-.61-.042-.347.015-.53-.052-.843-.192l-.158-.191.084-.171.752.005c.333.002.498-.032.792-.211.186-.263.301-.603.243-.932-.023-.133-.043-.151-.103-.252-.497-.177-.985.049-1.433-.194l.046-.238c.492-.222 1.416-.02 1.577-.682.07-.289.025-.437-.124-.666a5 5 0 0 0-.846-.12l-.162-.162.017-.261c.269-.148.55-.143.849-.163.26-.224.349-.34.383-.693.03-.297.036-.505-.157-.742q-.482.034-.964.078l-.104-.097c.443-.506 1.47-.317 1.294-1.266-.094-.505-.556-.702-.966-.927l-.101-.244c.309-.045.613-.018.809-.306.528-.776.22-2.695.286-3.648q1.233-.288 2.477-.526c-.115-1.386-1.112-11.6-1.715-12.059-.984-.748-15.7-1.144-18.28-1.11m-9.103.773c-.252.595-.39 1.14-.252 1.781.158.207.25.301.488.406.149-.672.338-1.315.239-2.007-.194-.16-.238-.14-.475-.18m1.425.008c-.426.516-.48 1.271-.47 1.918l.255.33c.401-.358.48-.729.499-1.258.01-.29-.037-.538-.104-.819zM27.17 85.819c-.966 1.91-1.819 3.832-2.397 5.899 2.247 1.357 4.533 2.67 6.678 4.188 1.49 1.054 2.868 2.292 4.39 3.291l.467.204.049-.177c-.675-1.095-1.776-1.72-2.587-2.664l.329-.243c-.346-.355-.935-.445-1.156-.873.052-.063.113-.12.156-.19.028-.046.035-.101.053-.152-.672-.797-4.333-5.848-4.535-6.636-.047-.183-.104-.365-.154-.547-.337-.294-.825-.57-.897-1.026-.026-.163-.012-.37-.012-.531-.122-.206-.204-.384-.383-.543m22.941 1.98c-2.06.288-4.153.632-6.122 1.318-.165 1.457-.288 2.942-.57 4.38-.14.72-.285 1.462-.51 2.16-.444 1.373-1.121 2.65-.87 4.148l.094-.224c1.299-3.037 1.892-4.397 3.974-6.949.33-.404.707-1.01 1.203-1.217.119-.049.242-.087.363-.128.01-.275.023-.144-.03-.392.59-.935 2.593-2.304 2.846-3.084-.118-.007-.262-.028-.378-.012m-9.42.813.071.032zm75.961.644-.138 2.339c.586.045 1.202.136 1.786.129q.186-1.248.401-2.492zm11.35 1.795c-.361.348-.441.528-.465 1.026-.02.397.08.774.176 1.155l.314.299c.38-.421.545-.713.517-1.314-.023-.47-.139-.827-.506-1.137zm-92.817 2.906c.338 1.018 1.101 3.943 2.04 4.435-.223-1.569-.892-3.315-2.04-4.435M23.66 95.15c-.738 2.388-1.343 4.806-1.992 7.218 1.877.03 3.763.086 5.639.01 2.684-.11 5.335-.387 8.028-.427.35.001.7.082.991-.122-1.202-.548-3.049-.775-3.844-1.837q-.13-.171-.266-.339l-.39.164-1.546-.783c-.002-.307-.01-.154.027-.459a3 3 0 0 0-.751-.118c-1.332-.076-3.036-2.228-4.517-2.692a6.4 6.4 0 0 1-1.379-.615m93.351 1.11.087.177c.323.662.43 2.158.483 2.247.044.075.142.097.213.146l.559.038c.024-.55.041-1.097.106-1.644.036-.304-.001-.462-.117-.742-.407-.328-.828-.244-1.331-.221m-6.53.656c-.111 1.319-.437 2.579-.637 3.882-.207 1.343-.244 2.712-.367 4.065.681-.004 1.366.007 2.046-.015-.034-1.413-.173-2.802-.308-4.207-.154-1.01-.413-1.898.009-2.869l.215-.147c.331.173.466.448.597.801.224.606.112 1.486.102 2.13.363-.806 1.33-2.326 1.048-3.186-.382-.396-.685-.448-1.213-.46-.496-.011-.995-.001-1.492.006m-28.873.507c-.83 2.253-1.01 4.722-1.017 7.105.652-.082 1.296-.155 1.936-.31-.052-1.36-.223-2.71-.374-4.061-.017-.407-.082-.87.194-1.208.211-.258.497-.362.822-.36.9.007 1.966.633 2.782 1.004a16 16 0 0 0 1.002-2.068c-1.787-.096-3.555-.148-5.345-.102m23.778.01-2.306.062c-.498 2.498-.723 4.746-.565 7.3.629.049 1.231.072 1.862.052-.018-1.26-.006-2.529-.079-3.786-.047-.874-.269-1.994-.062-2.833l.214-.237c.374.001.623.145.877.408.56.582.804 1.502 1.466 1.958.313.006.376-.001.62-.236.665-.644.816-1.752.998-2.614zm-17.235.103c-.537 2.134-.456 4.445-.408 6.632l1.924-.022c-.211-1.766-.589-3.83-.169-5.578 1.112.196 2.139 1.29 3.36 1.658.4-.742.777-1.516 1.256-2.209-1.934-.35-4-.359-5.963-.481m71.508-.126c.022.431.006.863.186 1.263l.152.129c.094-.413.232-.776.052-1.183-.127-.071-.255-.152-.39-.209m1.495.084c.415 9.317 1.213 18.592 1.52 27.917.032.96-.1 3.961.194 4.703.278.027.713.12.946-.068.269-.218.474-.512.756-.725 1.666-1.257 3.908-1.99 5.733-3.011 1.35-.784 2.6-1.546 4.119-1.97q-1.15-8.459-2.397-16.904c-.479-3.254-.887-6.56-1.55-9.781-3.102-.048-6.22-.185-9.321-.161m-65.584.288c-.286 1.21-1.15 5.432-.492 6.419.188.28.34.392.675.448.3.05.532-.002.762-.185.21-1.539-.078-3.904.014-5.69l.166-.455c.25-.075.445-.081.688.045.745.388.815 1.707 1.724 1.736.896-.42 1.565-1.276 2.215-2-1.915-.173-3.827-.38-5.752-.318m-17.263.132c-.369.422-.374 1.971-.336 2.546.017.253.074.448.192.676.23.054.18.096.354-.035.246-.184.363-.432.508-.695.417-.594 1.13-1.377 1.071-2.139-.198-.25-.301-.378-.635-.41-.363-.034-.789.03-1.154.057m134.377.212c.097 1.694.403 3.359.531 5.05 1.73-.105 3.479-.254 5.212-.264 1.163-.008 2.327.099 3.49.076 4.255-.08 8.535-.274 12.788-.014.159-1.1-.558-3.09-.982-4.119-3.494.05-6.999-.123-10.498-.11-3.004.012-6.009.25-9.013.046-.428-.03-.985-.131-1.316-.424-.097-.087-.136-.144-.212-.24m-14.064.435c.159 1.127.265 3.491.813 4.417l.444.11-.058.144-.445.096c-.251.935.553 6.69.79 7.901 3.845-.084 7.688-.056 11.532-.11-.099-1.938.18-5.72-.639-7.362-.629-.332-1.793-.147-2.523-.229-1.099-.026-7.815.073-8.459-.383 1.286-.689 9.012-.231 10.823-.166-.17-1.427-.283-2.887-.558-4.297q-4.682.237-9.37.18c-.58-.011-1.268.082-1.83-.026-.21-.04-.353-.153-.52-.275m-81.233.587c-.022.526-.132 1.167.117 1.645.284.27.511.28.88.322.041-.567.2-1.291-.081-1.802-.343-.196-.527-.161-.916-.165m42.286-.118c-.044.575-.125 1.22.314 1.661.028.029.063.05.094.076.103-.575.216-1.034-.094-1.567zm18.076.147c-.003 1.26.048 2.54-.17 3.785l-.01.056c-1.325.385-2.637.489-4.008.59l-.033-.17c-.164-.888.092-2.348-.498-3.024-.273-.087-.21-.11-.512.002-.22 1.18 1.281 9.11 1.531 10.797q.995 6.518 1.769 13.065c2.854-.49 4.181-.117 6.526 1.526q.164.115.324.234c3.594-1.56 7.584-5.463 11.637-5.11 1.368.119 2.704.665 3.98 1.133l1.504.619c-.445-7.821-1.675-15.584-2.55-23.362-.533.093-1.078.167-1.603.294-.073 1.152-.012 2.29.044 3.44-.502-.017-1.08.025-1.544-.183-.746-1.024.265-3.084-1.446-3.341-.326-.049-.47.028-.723.216-.24.576-.142 2.46-.273 3.336-1.399.157-2.779.344-4.145.693-.121-1.494-.272-2.991-.295-4.49l-2-.033c.03 1.164.024 2.314-.15 3.468-1.482.42-2.988.877-4.53.987-.099-1.471-.09-3.052-.514-4.471a26 26 0 0 0-2.31-.058m-1.32.123c-.095.821-.172 1.58.037 2.394l.256.247c.036-.808.114-1.63-.014-2.433-.094-.085-.162-.16-.28-.209m7.615.05c-.385.708-.317 1.867-.118 2.648.041.164.052.174.115.305.174-.927.325-1.78.175-2.727zm6.392.364c-.245.736-.266 1.555.083 2.268q.029.053.062.105c.072-.672.185-1.602-.019-2.256zm-30.69 1.319c-.121.544-.29 1.258.117 1.734.094.11.227.186.346.263.048-.581.147-1.158-.029-1.724-.162-.152-.217-.196-.434-.273m-42.342.289c-.082.62-.275 1.278.036 1.841.294.16.55.163.875.181.058-.56.213-1.207-.019-1.734-.333-.256-.482-.24-.892-.288m-74.958 1.896c.522.814 1.023 1.763.802 2.766q-.023.103-.056.204t-.077.197-.096.188-.115.177-.133.164q-.072.079-.15.15t-.164.133q-.085.063-.177.116c-.297.177-.626.303-.947.43.113 1.088.28 2.189.56 3.248q14.131.342 28.267.248c.318-.02.461.04.693-.197.458-1.688.762-5.276.795-7.084-2.739-.048-5.48.052-8.22.072-6.65.049-13.364.12-20.011-.067-.286-.263-.598-.619-.97-.745m176.328.089-5.445.198c.257 2.688 1.153 5.161 1.767 7.768 3.985.022 7.998-.052 11.98.082 1.508.052 3.008.261 4.516.328 1.677-.203 3.164-.216 4.846-.195-.24-2.658-.708-5.562-1.53-8.105-1.971-.011-3.96.089-5.928.036-3.412-.09-6.787-.338-10.206-.112m-101.52.046c-.093.607-.282 1.29-.111 1.89.292.364.483.374.941.43.034-.487.064-.971.125-1.456.035-.278-.01-.443-.104-.705-.29-.228-.488-.16-.85-.159m42.428-.074c-.056.518-.162 1.005.04 1.5.207.191.315.261.592.317.037-.524.118-1.009-.09-1.505-.186-.188-.286-.248-.542-.312m-137.995.654c-.252.11-.284.124-.393.395-.793 1.973-1.21 6.017-1.462 8.218q8.388-.82 16.812-1.067 1.495-.1 2.991-.164c-.17-1.257-.332-2.512-.333-3.783-.78-.243-1.647-.47-2.031-1.273-.32-.669-.171-1.58-.117-2.297-5.15.096-10.314-.043-15.467-.03m138.335 1.386c-.339.336-.453.572-.464 1.064-.007.313.083.585.181.876l.377.336c.339-.41.36-.804.31-1.338-.028-.295-.018-.643-.261-.851-.042-.036-.095-.058-.143-.087m-42.993.596c-.113.652-.319 1.311-.006 1.933.336.246.468.24.871.289.086-.595.275-1.283.08-1.862-.291-.315-.532-.315-.945-.36m42.663 1.775c-.06.519-.245 1.295.125 1.73.163.194.406.258.634.339.104-.653.215-1.222-.056-1.846-.238-.204-.397-.203-.703-.224m-42.683.655c-.171.59-.38 1.091-.116 1.677.263.207.452.23.772.287.22-.358.359-.97.265-1.388-.059-.266-.159-.353-.347-.528zM160 109.8c-.285.39-.51.822-.402 1.323.044.203.149.33.28.481l.526.164c.26-.338.266-.81.22-1.223-.034-.313-.098-.525-.35-.719zm-43.207.628c-.096.555-.261 1.129-.112 1.683.313.4.504.436.966.624.106-.677.273-1.28-.023-1.922-.268-.246-.49-.3-.831-.385m96.964.651c.225 2.115.66 4.146.993 6.238.228 1.433.219 2.576.78 3.948-.211.07-.106.073-.315-.01.034.912.72 1.688.728 2.573l-.37-.437c-.135.411.229 2.47.438 2.888.06.12.156.24.235.349l-.162.125-.038.176-.163.003c.237.31.42.451.756.653l-.122-.003.29.119c-.251.191-.442.188-.745.231l-.09.188c.232.383.801.858.808 1.262l-.093.036.031.124-.156-.108-.48-.005c.248.345.515.655.595 1.082-.26.078-.248.057-.491-.003.332.309.844.676 1.019 1.099-.246.082-.423.08-.68.085l-.025.183c.345.414.807.86.994 1.368l-.057.122c-.27-.099-.54-.197-.807-.307l.08.111c.263.367.836 1.127.853 1.574a12 12 0 0 1-.6-.281c.18.569.566 1.079.883 1.582-.364.033-.934-.349-1.271-.521.48.452 1.315 1.053 1.37 1.74-.273.03-.349-.018-.594-.123l-.165.111.071.075c.327.364.777.766.871 1.244-.282.013-.436-.035-.702-.115.108.344.412.595.656.85l.149.562c-.292.191-.505-.103-.796.124.282.38.703.745.772 1.211q-.31-.006-.618-.023c-.032.577 1.273 1.19.92 1.754l-.135-.064a4 4 0 0 0-.425-.165c-.008.508.459.847.479 1.365l-.458-.133-.102.117c.236.564.508.738 1.039.972l.23-.026c.088-.268.087-.49.083-.77q.092-.016.183-.036l.231-.06c.46-1.907-1.364-10.307-1.735-12.748-.24-1.576-.362-3.561-.705-5.067-.11-.487-.34-.955-.504-1.427l.277-.167c-.038-1.417-2.295-12.632-3.054-13.523-.043-.05-.104-.081-.156-.122m-53.659.852c-.288.303-.458.575-.466 1.01-.007.364.113.575.292.871.17.077.34.159.513.228.272-.204.275-.21.322-.562.068-.515-.042-.919-.218-1.4a1.5 1.5 0 0 0-.443-.148m70.971.248c-2.165.11-4.344.299-6.508.352-1.395.035-8.58-.547-9.181.09.06.349.138.53.342.819.483.244 1.085.091 1.605-.013l-.638-.244.036-.136c1.95-.254 3.966-.173 5.93-.206 1.136-.018 2.266-.151 3.4-.045l-2.09.677c1.57-.065 6.168-.107 7.448.264-2.998.662-5.892-.302-8.8.735-.393-.196-.863-.477-1.296-.555-1.258-.225-3.895.25-5.4.226.146.915.284 1.82.537 2.714 2.453-.335 4.948.27 7.411.176 3.377-.13 6.729-.768 10.109-.797.723-.007 1.744.079 2.4.41-.189.215-.588.224-.871.236-1.91.08-4.656-.154-6.436.498l.073.07-.09-.04.294-.097.104.18c.549.012 1.308-.067 1.803.173l.073.154c-.609.282-1.982.042-2.695.055-1.82.033-3.606.326-5.437.293-2.19-.038-4.277-.439-6.475-.185l.303 1.509c2.269-.576 4.658-.41 6.983-.349l.221.107c-.867.487-6.191.064-7.247 1.045-.017.28-.073.21.095.38.276.28 3.203.955 3.905 1.253 1.585.673 2.843 1.649 4.314 2.508 2.833 1.653 5.336 2.113 8.566 2.194.958.024 1.966.104 2.922.038.361-.024.563-.051.843-.306l.099-.501c-1.33-.786-5.418.29-6.23-.428.3-.425 1.186-.524 1.683-.61 1.466-.253 2.969-.128 4.416-.395.03-.562.146-1.206-.082-1.733-.235-.188-.322-.272-.631-.311-1.555-.195-3.278.094-4.85.117-1.602.024-3.234-.27-4.84-.328-1.334-.048-2.695.181-4.022.043-.433-.045-.804-.07-1.116-.379.36-.482 1.196-.575 1.768-.658 2.186-.318 4.507.078 6.703.146 1.18.036 2.362-.087 3.542-.103 1.123-.016 2.248.084 3.37.069-.027-1.564-.212-6.182-.769-7.45-1.03-.286-2.183-.267-3.25-.337-1.126-.074-2.235-.27-3.357-.348-1.397-.098-2.777-.016-4.16-.3 1.48-.112 6.97-.018 7.927-.412-.884-.129-1.863-.342-2.754-.265m3.144.135c.47.371 1.605.187 2.208.14-.413-.344-1-.257-1.52-.21q-.344.032-.688.07m-165.49.115c-8.81.489-17.632.474-26.437.942.179 1.634.285 3.322.576 4.938 3.612-.28 7.153-.934 10.748-1.304 3.645-.374 8.346-.486 11.996-.07l-.007.064c-1.105.125-2.21.149-3.319.224-2.123.115-4.268.183-6.382.413-2.482.269-4.888.846-7.351 1.2-1.63.236-3.37.253-4.97.577-.228.046-.476.142-.65.303-.103.095-.07.116-.048.233.978.585 3.201.088 4.371.173 1.149.083 2.31.383 3.452.552 1.4.207 2.849.271 4.264.308 4.75.125 9.496-.373 14.24.061.638-2.866 1.064-5.752 1.48-8.657-.651.008-1.314-.011-1.963.043m131.615.018c.176 2.325.617 4.63.88 6.947 1.696-.14 3.422-.21 5.107-.433 1.026-.135 2.028-.45 3.053-.567.67-.078 1.966.16 2.46-.355.037-.295.043-.44-.08-.714-1.279-.495-3.199.034-4.537.093-1.438.063-2.99.053-4.424-.084l-.139-.19c.755-.486 4.832-.6 5.828-.607.506-.003 2.3.173 2.695.014.316-.127.558-.474.73-.749.032-.331.044-.423-.17-.707-.38-.506-1.41-.681-1.996-.846.574-.042 1.631-.015 2.028-.49.173-.208.174-.436.081-.684-.037-.1-.14-.235-.204-.325-3.805-.194-7.52.53-11.312-.303m-126.11.604c.254.33.34.407.758.465.567.078 1.276-.023 1.834-.143-.342-.354-.759-.361-1.242-.37a10 10 0 0 0-1.35.048m42.432-.12c-.14.596-.386 1.236-.067 1.803.335.211.556.184.947.21.07-.544.222-1.132.023-1.656-.321-.275-.496-.275-.903-.357m-31.61.366-.038.25c.633.504 2.12.237 2.921.206l-.022-.198c-.785-.432-1.987-.324-2.862-.258m138.669-.01c-.489.078-1.056.112-1.497.344.223.113.118.088.307.107.511-.066.936-.14 1.413-.337l-.065-.117zm-186.927.283c-5.729.191-11.56.064-17.266.527-.176 1.521-.434 3.076-.43 4.609q1.887.048 3.774.038l8.13.175c1.518.035 3.049.136 4.567.074 1.59-.066 3.181-.292 4.758-.5-.103-1.64-.111-3.39-.47-4.998-1.022.004-2.044-.006-3.063.075m123.107.625c-.147.426-.342 1.003-.175 1.449.164.436.536.527.937.646l.138.04c.104-.665.215-1.29-.09-1.914-.316-.244-.421-.206-.81-.221m-43.512 1.193c-.043.578-.19 1.275.06 1.811.367.237.523.176.951.158.069-.5.251-1.162.048-1.633-.335-.29-.627-.275-1.06-.336m43.629.951c-.264.353-.514.735-.402 1.201a.94.94 0 0 0 .562.647c.16.07.339.119.507.163.263-.298.383-.513.362-.932-.019-.362-.185-.595-.386-.875a8 8 0 0 0-.643-.204m-54.17 1.582-.061.254c.46.493 1.321.433 1.965.454q.362.014.724.016l.014-.522c-.627-.524-1.866-.255-2.642-.203m10.336-.026c-.071.623-.087 1.173.285 1.702.269.064.491.03.763.004.09-.475.252-.992.104-1.465-.376-.316-.67-.265-1.152-.24m44.011.536c-.28.255-.474.422-.507.83-.025.304.148.566.373.755.2.169.506.227.753.288.273-.337.347-.644.304-1.082-.028-.287-.166-.51-.368-.709zm50.07.609c-1.143.228-2.3.477-3.465.557-1.73.119-3.452.016-5.19.17-.147.565-.346 1.127-.275 1.713.187.274.227.35.573.432.298.07.752.012 1.062.006 1.728-.022 3.285-.444 4.973-.73 1.38-.235 2.825-.31 4.224-.278l-.234-1.74c-.553-.03-1.122-.035-1.668-.13m-118.357.874c-.184.124-.24.12-.322.334.826.41 2.167.266 3.07.197l.268-.249-.035-.168c-.754-.332-2.156-.137-2.981-.114m-52.52.134c-1.385.186-2.779.403-4.173.489-1.453.09-2.91.056-4.363.15-1.811.117-3.626.365-5.44.415-1.705.047-3.425-.2-5.128-.098-.53.032-.94.071-1.37.396-.165.301-.165.335-.136.679.22.354.417.548.83.662.813.224 1.859-.004 2.723.054 1.823.121 3.64.321 5.465.438 2.085.133 4.201.182 6.279.394-5.176.66-10.163.804-15.372.642-.123 3.561-.33 7.868.238 11.374l.165.05c2 .577 4.167.276 6.218.212 1.58-.049 3.165-.012 4.743-.086 1.253-.059 2.499-.224 3.75-.296 1.741-.1 3.532-.062 5.253-.332l-.15.09.411-.098c-.587.131-1.209.197-1.767.428-.723.298-1.329.792-2.099.989-3.052.782-6.459.8-9.594.981-.857.05-1.81.06-2.622.355-.086.223-.1.137-.008.348.55 1.258 4.354 2.388 5.61 2.792 2.009.645 3.974.761 6.023 1.17 1.196.24 2.444.709 3.656.773.56.039 1.122.023 1.626.295l.032.17c-1.3.762-3.187.377-4.595.278-.982-.069-1.973-.022-2.953-.113-2.721-.254-5.581-.798-8.262-1.335-1.703-.342-3.376-.857-5.08-1.172.186 2.817.669 5.585 1.298 8.335 2.28-.498 4.15-1.518 6.219-2.545 3.47-1.722 7.008-1.967 10.678-.717 1.326.451 2.602 1.05 3.965 1.385-.278-4.935-.366-9.877-.66-14.81-2.232-.766-4.354-1.133-6.67-1.56-1.1-.202-2.21-.497-3.324-.608-1.309-.131-2.641-.109-3.955-.194-1.158-.075-2.32-.214-3.48-.24q8.73-1.149 17.517-1.705c-.043-1.24-.055-7.892-.636-8.446a3.8 3.8 0 0 0-.862.01m76.754.106c-.027.576-.23 1.31-.008 1.829.317.193.686.122 1.042.105.06-.516.225-1.171-.014-1.648-.287-.255-.656-.245-1.02-.286m-73.08.489q.352 3.7.633 7.407c3.148-.192 6.19-1.264 9.246-1.977 4.81-1.12 8.812-1.468 13.745-1.44l1.502.05c.343-1.102.654-2.197.921-3.32-5.107.464-10.384 1.109-15.512.71-1.973-.152-3.71-.904-5.622-1.23-1.592-.27-3.295-.057-4.912-.2m116.676.076c-.014.499-.116 1.211.304 1.576.244.212.796.317 1.112.295.037-.517.16-1.139-.064-1.619-.444-.307-.825-.252-1.352-.252m32.787 1.17c-1.029.472-1.912 1.13-2.819 1.8-.206.768-.458 1.427-.021 2.173.187.318.387.66.738.81l-.16-.046.2-.023c.002-1.17-.443-1.983.002-3.138.238-.18.228-.182.524-.163.899 1.411-.534 2.422 1.903 4.475-.373-1.167-.802-2.316-1.219-3.468.944.396 1.38.737 1.989 1.585.04.671-.014 1.736.609 2.163.122.084.268.127.406.176l.084-.102-.075-.137c-.34-.641-.563-1.212-.555-1.944l.125-.174c.424.05.756.402 1.004.728.569.748.915 1.712 1.81 2.132l.366-.006-.244.052.196-.239c-.22-.358-1.392-1.7-1.398-1.97l.145.038c1.566.416 2.544 2.716 3.938 2.464l.063-.16c-.468-.587-1.008-1.082-1.387-1.734l.151.08c.912.506 2.081 2.152 3.15 1.932.22-.045.24-.144.372-.308.017-.303.037-.602.077-.903.579.245.937 1.072 1.661.808.045-.017.211-.135.246-.158.224-.15.367-.242.652-.195.454.074.814.298 1.292.284l.1-.167c-.644-1.468-6.937-5.071-8.617-5.728-1.607-.628-3.58-1.086-5.308-.936m-76.521.853c-.133.454-.363 1.103-.126 1.554.107.203.166.212.348.328l.74.014c.202-.334.337-.989.22-1.37-.053-.177-.202-.332-.323-.466-.304-.068-.551-.069-.86-.06m44.967.176c-.399.035-.81-.038-1.078.303-.204.26-.303.842-.22 1.16.052.198.081.24.166.409l.317.035c.475-.044.714.001 1.09-.307.268-.584.165-.915-.045-1.494zm27.603 1.069c-.341.358-.787.708-.856 1.219.096.203.19.303.358.45.221-.097.254-.053.35-.292.151-.371.192-.794.255-1.187zm29.2.347c.144.832.328 1.625.565 2.436 1.555.575 2.9.538 4.502.194l.082-.115c-1.122-.746-3.855-2.468-5.149-2.515m-9.2.592q-2.224.18-4.428.522c1.636.978 3.2 1.912 4.667 3.135 1.083.126 2.088-.099 3.178.137-.001-1.288.067-2.55.227-3.83-1.192-.066-2.459-.129-3.645.036m-92.769.138c.005.525-.108 1.418.193 1.836.324.16.62.052.955-.018.049-.487.201-1.133-.013-1.583-.391-.26-.672-.211-1.135-.235m44.623.077c-.363.196-.558.317-.681.741s-.098.807.132 1.193c.16.267.35.371.653.443.055.013.112.021.168.032.368-.149.565-.163.747-.555.223-.482.183-1.008-.055-1.467-.117-.227-.158-.255-.373-.389zm16.065.502c-.949.284-2.443.61-3.017 1.47-.271 1.24.127 2.742.487 3.94.296.339.668.46 1.075.632-.218-1.075-.77-2.872-.477-3.906l-.006.148.26-.14c.719 1.174.86 2.38 1.252 3.665.5.265.997.542 1.517.769-.825-1.513-1.55-2.945-2.11-4.576 2.695 1.973 1.663 2.081 2.895 4.617.52.176 1.038.362 1.57.5l-.08-.21c-.404-1.047-1.506-2.107-1.586-3.185l.18-.092c.605.283 1.016.67 1.252 1.304q.067.187.125.379l.137.376q.053-.027.107-.052c.177-.08.111-.053.333-.08.266.53.422 1.104.598 1.67.338.069 1.025.302 1.306.144-.114-.824-1.078-1.397-1.213-2.213.175-.066.21-.128.396-.038.998.481 1.548 2.633 2.804 2.233.276-.089.187-.04.373-.212l-.491-.785.085-.089c.849.26 1.54 1.313 2.413 1.267.035-.203.033-.374.017-.579 1.526.016 1.887.849 3.519.073-.446-.483-.894-.98-1.408-1.393-1.374-1.102-7.141-4.806-8.699-5.412-.475-.184-.996-.258-1.501-.282-.707-.032-1.408.007-2.113.057m-110.396.284c-3.007.237-6.031.48-9.002 1.022.695.023 1.393.06 2.088.04 2.51-.035 5.07-.176 7.575-.057l.888-1.098c-.51.028-1.043.025-1.549.093m82.2-.038c-.396.259-.595.364-.69.862-.157.824-.25 2.52.232 3.252.09.137.11.14.224.224.195-.119.198-.221.247-.437.274-1.206.112-2.506.403-3.76.175 1.15.401 3.965 1.026 4.792.463-.607.124-1.987.465-2.74.522.588.326 1.646 1.014 2.187.352-.482.12-1.294.355-1.858l.172.029c.455.704.632 1.588 1.16 2.225l.171.037c.061-.536-.067-1.025.084-1.558l.151-.106c.87.566.482 1.766 1.575 2.361-.005-.373-.08-.831.122-1.16.262-.016.385.02.62.133.507.6.004 1.325.876 1.628l.15-.132c-.04-.3-.079-.561-.059-.864.232-.14.383-.177.656-.083.108.037.237.149.327.22l.2.915c.187.03.098.047.247-.042.333-.2.518-.276.905-.285.313.152.627.302.934.467a22 22 0 0 0 2.425-.261c-2.855-1.971-10.593-5.484-13.992-6.046m-1.504.82c-.3.388-.61.773-.892 1.176-.087.904-.372 2.322-.078 3.17.363-.209.602-.273.738-.697.255-.798.516-2.857.232-3.65m75.076.58c.708.195 1.287.253 2.013.176-.704-.194-1.288-.264-2.013-.175m-49.643.016c-.576 1.001-.308 2.501-.32 3.64.243.279.674.275 1.037.323.119-.251.15-.274.043-.549-.096-.249-.277-.474-.43-.69.11-.804.323-1.657.186-2.462-.194-.238-.208-.213-.516-.262m-11.182.15c-.425.123-.778.181-1.062.548-.108.401-.143.62.061.994.207.377.494.638.818.913.204-.019.41.031.541-.148.343-.468.29-1.232.159-1.766-.034-.133-.076-.264-.117-.395-.151-.082-.227-.125-.4-.145m62.624.056c.239.274.442.527.825.588.269.043.578.02.851.016-.559-.32-1.032-.533-1.676-.604m-107.79.201c-.03.532-.16 1.218.094 1.7.269.222.536.191.867.196.037-.585.185-1.288-.123-1.799-.305-.112-.518-.106-.838-.097m29.078.129c-.611.57-.961 1.253-1.01 2.1-.03.554 0 1.01.381 1.442.576-.574.645-2.51.766-3.318zm73.823.168-.012.153.192-.028.023-.17zm-48.08.077c-.446.441-.747.885-1.067 1.416-.002.638-.061 1.197.249 1.777.42-.063.58-.023.878-.338.228-.898.15-1.712.102-2.626zm-27.61.649c-.498.452-.922.86-.932 1.572-.005.327.131.616.29.892.548-.428.64-1.09.732-1.748.028-.204.031-.39.012-.594zm75.887-.06c.122 2.301.294 4.559.68 6.833.332 1.967.831 3.87 1.085 5.858l.218-.011c1.41-.082 2.76-.73 4.15-.711 1.35.019 2.874.652 4.22.899.902.165 6.822.81 7.335.238.08-.09.132-.187.192-.289.45-1.833 1.189-10.522.674-12.083-.47-.473-1.558-.422-2.198-.428-1.512-.015-3.028.037-4.54-.01-1.322-.04-2.652-.185-3.974-.155-1.537.036-3.108.4-4.639.337-1.082-.045-2.125-.394-3.203-.477m-50.731.63c-.289.315-.572.708-.56 1.16.006.216.042.416.222.56.071.056.24.13.326.17.36-.29.43-.473.498-.94.044-.304.006-.606-.164-.864zm-27.083.53c-.162.338-.316.495-.229.868l.119.104c.132-.336.306-.549.187-.901zm-25.452.529c-.064.464-.226 1.036-.009 1.47.38.226.666.173 1.103.183.043-.459.177-1.039-.041-1.458-.32-.241-.672-.193-1.053-.195m50.728.132.094.066zm-50.877 1.99c-.104.36-.247.684-.123 1.055.325.275.779.209 1.183.221q.041 0 .082.004c.05-.378.154-.754-.027-1.107-.318-.248-.731-.177-1.115-.173m76.48 1.325.273.118.272-.117-.273-.117zm-4.707 1.368-.162-.058.232-.011.205.035zm-88.695 1.87c1.121.39 2.497.597 3.665.328-.973-.356-2.618-.446-3.665-.328m122.342 4.694.116.039zm.21.308c-.183.142-.274.14-.305.388-.061.489.103.79.393 1.165l.227.064.3-.246c1.336.594 2.347 1.894 3.67 2.588.346.181.663.392.975.625 1.119.034 3.308-.358 4.127.39l.087.28c-.223.186-.344.123-.615.096l-.153-.018c-1.3-.147-4.07.425-5.243 1.02-.69-.408-1.322-.725-2.088-.974-1.612.589-3.207.79-4.895 1.031l.22-.014.066.045c1.229-.024 2.474-.15 3.7-.106 1.14.103 2.262.096 3.402.019 1.073-.072 2.117-.302 3.18-.435 1.385-.174 6.857-.509 7.674-1.308.637-.622.51-1.955.533-2.774-2.166.015-4.296.071-6.435-.327-3.19-.595-5.473-1.667-8.82-1.51m-190.628 5.465c-3.629.86-5.207 3.112-9.459 3.81.134.651.25 1.313.405 1.958.638-.428 1.706-1.33 2.518-1.155.128.028.252.075.38.103.072.016.146.02.219.031l.029-.26c.546-.423.902-.52 1.59-.546.31-.203.527-.395.781-.666.472.06.38.547.82.495.135-.3.215-.67.558-.793.103-.037.321-.05.434-.06.198.172.272.362.381.597l.2.036a2.4 2.4 0 0 0 .072-.625c.005-.26.022-.39.174-.611l.294-.042c.232.207.32.4.455.674l.17.01c.033-.727-.107-1.428-.147-2.15.367.455.721.918 1.143 1.324l.074-.208c-.192-.29-.577-.686-.537-1.045.016-.142.135-.375.185-.498-.086-.246-.013-.195-.223-.29-.197-.091-.305-.095-.516-.09m4.613-.029c1.44.84 4.97 2.92 6.492 3.035-.049-.446-.033-.596-.307-.964-1.062-.554-5.124-1.951-6.185-2.071m21.12.675-.19.22.088.215.243.075c.514.163.743.275 1.139.649.15.14.293.197.485.26.373-.094.547-.16.914.03.092.049.154.13.22.204l-.029.144a4 4 0 0 0-.054.47l.207.26c.38-.107.86-.31 1.244-.202.194.265.166.452.167.768l.14.112c.248-.197.465-.374.763-.494l.18.091.018.426c.643.076 1.303.022 1.948-.02l2.399-.345c-.972-.245-1.969-.476-2.89-.875-2.769-1.196-3.8-2.178-6.992-1.988m84.437.248c-2.764.503-5.158 2.111-7.623 3.372-.831.425-1.729.733-2.488 1.282l-.097.184c.276.27.478.351.87.356.866.01 1.881-.39 2.689-.675 1.778-.626 3.277-1.584 4.978-2.336 2.942-1.3 6.21-.178 8.964 1.034 3.264 1.356 6.013.636 9.39.673 1.16.012 2.291.212 3.429.419-2.266-1.33-4.303-1.848-6.916-1.872-.99-.009-1.971.029-2.945-.186-.978-.215-1.936-.653-2.871-1.006-2.428-.916-4.77-1.469-7.38-1.245m56.55.048.024.163.381-.027.005-.214zm-104.41 1.704c-1.914.316-3.656 1.043-5.356 1.965-1.456.79-2.793 1.707-4.456 2.003-3.73.663-7.457-1.149-11.181-1.243-3.293-.083-6.306.746-9.536 1.071-2.91.293-6.042.348-8.941-.056-1.852-.258-3.675-.695-5.524-.968 4.437 2.627 11.426 2.907 16.477 2.114 4.688-.737 7.188-1.812 12.177-.89 1.34.29 2.832.801 4.185.88.899.052 1.799-.123 2.68-.277 1.4-.246 2.746-.528 4.082-1.02 2.88-1.06 5.827-2.934 9-2.716 3.626.248 6.808 2.6 10.267 3.534.47.127.934.202 1.42.216 2.026.057 4.079-.161 6.108-.183 1.608-.016 3.293.202 4.886.032.61-.065 1.122-.263 1.681-.504a39 39 0 0 0-7.864-.633c-2.303.048-4.724.377-7.005-.04-1.331-.242-2.556-.802-3.79-1.333-3.02-1.301-5.963-2.368-9.31-1.952m90.31-.002c-3.373.538-7.688 2.739-10.297 4.947 2.373.165 3.349-.292 5.372-1.371 5.45-2.904 8.557-2.584 14.203-.345 2.024.802 4.059 1.589 6.07 2.423 4.56 1.907 6.478 3.077 11.623 2.591-2.49-.407-4.963-.833-7.334-1.732-6.312-2.396-12.55-7.179-19.638-6.513m-137.538.726c.056.19.054.385.232.497.367.232 1.052.13 1.472.114-.578-.309-1.051-.534-1.704-.61m95.291 1.637c-2.18.409-5.192 1.482-7.061 2.698 2.741-.276 5.387-1.282 8.118-1.392 2.619.06 4.436.862 7.18.782-2.782-1.38-5.092-2.268-8.237-2.088m-46.463.774c-2.343.281-4.465 1.142-6.502 2.32.757.025 1.571.097 2.32-.03 1.864-.316 3.477-1.08 5.414-1.143 2.269.057 4.457.669 6.727.7-2.448-1.129-5.239-2.1-7.96-1.847m-64.175.274c-1.517.036-7.395-.089-8.404 1.062-.08.09-.114.153-.184.259.125.33.142.363.48.52.467.218 1.031.236 1.537.224 1.284-.033 2.608-.288 3.89-.425 2.047-.22 4.11-.36 6.165-.485 3.21-.269 6.363.119 9.568.017-3.828-1.702-8.93-1.409-13.052-1.172m153.648.101c-2.19.228-4.134.83-6.001 2.01 2.47-.277 5.02-.706 7.507-.695 2.038.059 4.078.275 6.109.447-2.366-.957-5.01-2.022-7.615-1.762m-24.546.505c-1.323.094-2.49.157-3.721.68 2.17-.061 4.58-.222 6.728.07 1.161.108 2.322.234 3.487.27-1.866-.884-4.451-1.217-6.494-1.02m62.342.36c-2.863.536-5.38 1.936-7.906 3.321 1.278.01 2.748.162 3.995-.078 3.465-.67 3.478-2.421 8.032-1.125 3.97 1.287 4.127 1.538 8.333 1.145-1.59-.805-8.394-2.912-10.112-3.208q-.58-.103-1.169-.117t-1.173.061m-77.035 1.161c-7.124.337-14.289.239-21.419.19-3.45-.023-6.9.052-10.35.045q-8.035-.092-16.072-.04l-31.378.236c-2.81.047-5.591.468-8.406.482-2.023.01-4.046-.182-6.067-.26q-4.058-.125-8.117-.093c-6.806.08-13.591.708-20.402.619.246.663.479 1.311.832 1.927 3.198-.246 6.374-.242 9.576-.324 5.918-.152 11.812-.259 17.733-.254l25.241-.096 92.333-.393c9.978-.003 19.951.331 29.93.208-1.593-.856-3.833-1.763-5.632-1.929-5.147-.474-10.447 1.156-15.506 1.093-2.686-.033-5.194-.97-7.84-1.193-4.611-.387-9.206-.034-13.817-.043-3.55-.007-7.083-.48-10.639-.175m77.535 2.325c-.745.151-1.347.395-2.008.763q1.4-.086 2.797-.191l2.012-.184c-.952-.303-1.796-.43-2.8-.388m-7.145 1.657c-5.32.256-10.677.113-16.002.186q-22.543.317-45.088.093l-96.408.71q-11.353.112-22.706.076c-3.669-.001-7.419-.19-11.074.018-.11.152-.172.168-.149.372.055.49.36.963.643 1.356 2.664.204 5.345.082 8.014.044q4.68-.047 9.362-.039l191.04-.905.464-1.866q-5.45.061-10.9-.019c-2.363-.037-4.843-.203-7.196-.026m-116.098 8.843c-1.847.467-3.265 1.416-4.269 3.068-1.537 2.53-1.8 6.082-1.094 8.914.48 1.927 1.543 3.894 3.271 4.963 1.316.814 2.795.983 4.3.76 1.92-.523 3.26-1.515 4.255-3.25 1.483-2.585 1.72-6.302.949-9.143-.499-1.837-1.635-3.606-3.301-4.583-1.283-.751-2.662-.875-4.111-.73m12.413.087-.038 17.45q1.48.094 2.963.147.026-6-.086-11.998c1.078 1.88 2.201 3.763 3.146 5.715.492.034.987.082 1.48.086 1.113-1.922 2.163-3.937 3.385-5.79l-.031 4.006-.034 8.023 3.046-.018-.021-17.507c-.98-.008-1.961-.002-2.94-.027-1.524 1.971-2.445 4.375-4.119 6.236q-1.965-3.115-3.802-6.308zm22.958.126-3.939 12.258c-.558 1.726-1.035 3.514-1.657 5.214l3.387.032c.375-1.409.725-2.829 1.155-4.222l4.091-.02c.353.013.62-.065.855.25.668.89.934 2.877 1.21 3.99l3.28-.012q-2.542-8.81-5.527-17.482zm12.055.018c-.278 5.796-.103 11.69-.1 17.495l3.202-.01c.012-3.913.144-7.884-.097-11.79 2.262 3.776 3.948 7.888 6.081 11.74l2.622.062.22-.128c.234-1.507.046-3.287.052-4.832l-.036-12.505c-1.024 0-2.057-.028-3.08.01l.085 11.383q-1.852-3.848-3.752-7.673c-.617-1.24-1.177-2.575-1.905-3.748zm-86.356.836q-1.475 3.761-3.395 7.316c.574.857 1.15 1.714 1.782 2.53.644.834 1.406 1.559 1.877 2.51l-.069.138c-.32.634-1.225 1.452-.985 2.235.103.335.221.395.495.579.378.03.443.01.788-.154.198-.245.358-.475.297-.804-.102-.552-.366-1.015-.276-1.593.222.353.466.861.89.991.421.13.866.067 1.232-.18.37-.25.665-.69.704-1.142.029-.332-.035-.649-.258-.907-.331-.383-.917-.543-1.406-.518-.386.02-.765.285-1.095.472.043-.114.139-.17.228-.248l-.136.01c1-1.184 2.042-2.338 2.875-3.65-.605-1.258-2.997-7.046-3.548-7.585m133.2 1.39c.117 1.76.248 3.527.23 5.293-.015 1.603-.231 3.308-.056 4.895.064.577.177 1.55.662 1.917.148.112.23.043.396.008.138-.174.27-.34.388-.53.873-3.265 1.332-6.956-.48-10.018-.311-.527-.68-1.16-1.14-1.565m-.937.117c-1.865 2.27-2.686 4.802-2.406 7.741q.048.551.149 1.096.1.544.252 1.076t.354 1.048.451 1.009l.248.469.16.001c.962-2.973.24-4.873.357-7.79.06-1.49.376-2.96.559-4.437zm-152.462 5.65c.877.69 1.748 1.374 2.68 1.992l11.989-.063-.06-1.852q-7.306.084-14.61-.077m37.588.071c-3.784.08-7.572-.03-11.353.058-.074.631-.161 1.263-.205 1.898l1.913.011c2.069.004 7.252.296 8.934-.246 1.103-.355 2.02-1.09 2.928-1.785zm134.416.383q-5.851.08-11.703.03c-.378.499-1.112 1.285-1.122 1.916q5.287-.19 10.578-.138c.518-.363 2.082-1.261 2.247-1.807m-37.333.312c.801.558 1.513 1.039 2.457 1.332 2.662.825 8.661.351 11.601.312-.056-.552-.115-1.1-.133-1.655-4.638.002-9.29-.075-13.925.01m-99.916 2.675c-2.802.223-5.582-.041-8.316.14-.216.015-.526.014-.68.177-.36.376-.43 1.066-.523 1.556l.175.244c2.094.161 4.22.111 6.319.084.74-.471 2.701-1.46 3.025-2.201m-29.985.187c.818.644 1.626 1.334 2.51 1.888l7.983.017a20 20 0 0 1-.434-1.905zm13.612.234c-.526.183-1.106.311-1.366.86-.134.285-.163.62-.029.91.212.457.78.828 1.253.965q.06.015.123.027c.624-.288 1.083-.47 1.311-1.165.088-.266.116-.56-.008-.822-.177-.378-.672-.663-1.07-.743-.07-.014-.143-.021-.214-.031m139.658.041c-.414.676-.81 1.371-1.304 1.993 2.097-.025 7.467.333 9.098-.482a14.3 14.3 0 0 0 1.899-1.556zm-18.496.113c2.623 2.472 6.733 1.768 10.064 1.744l-.644-1.78q-3.046.033-6.092.018c-1.095-.003-2.239-.073-3.328.018m13.11.295c-.282 1.676-.877 3.422-.574 5.113l1.546-.05c.334-.24.439-.508.499-.914.086-.58-.932-3.603-1.288-3.999-.048-.053-.124-.106-.183-.15m-128.36 2.284-1.348.786c.799.28 1.4.46 1.93 1.161l.018.205c-.297.333-.715.377-1.143.391-.73.025-1.472-.28-2.156-.508-.367.503-.807 1.16-1.492 1.23-.34.036-.647-.123-.888-.349-.31-.291-.447-.686-.588-1.077-.835.29-2.339.92-3.19.472-.158-.083-.162-.178-.23-.331.038-.27.044-.559.294-.724.172-.114.416-.187.606-.271.184-.081.254-.126.368-.287-.088-.253-.02-.211-.22-.324-.462-.26-5.553.148-6.532.114l1.148.788c3.71 2.206 8.128 3.453 12.412 2.394 2.278-.564 4.244-1.706 6.088-3.123-1.747 0-3.258-.185-4.956-.546-.04-.008-.08-.001-.121-.001m119.194.543c2.35 1.773 4.886 2.46 7.824 2.317-.248-.767-.471-1.56-.785-2.303-2.345.024-4.695.076-7.039-.014m12.556.033c-.686.691-1.28 1.437-1.88 2.203 1.267-.018 5.745.152 6.572-.228q1.287-.891 2.518-1.858c-2.402-.02-4.81-.006-7.21-.117m-7.944 3.377c1.215.543 2.554 1.067 3.896 1.125.004-.374.072-.789-.106-1.12-1.189-.147-2.597-.117-3.79-.005m4-.057c.108.394.183.855.467 1.162.21.023.231.065.416-.057.102-.368.263-.652.135-1.02-.345-.127-.659-.1-1.019-.085m1.461.002-.14 1.212c1.168-.16 2.309-.421 3.458-.679l1.25-.487zm-134.741 9.947c-5.221.023-10.45-.039-15.67.03l1.401 1.523 153.836.402q7.026.06 14.053.002.819-.847 1.663-1.668zm-12.207 4.056q1.393 1.487 2.87 2.89c4.264-1.9 7.784-3.196 12.39-1.4 5.593 2.18 7.89 4.999 14.157 2.287 6.248-2.703 9.91-4.562 16.722-1.878 2.207.87 4.456 2.114 6.786 2.589 5.699 1.16 10.53-4.011 16.987-3.863 5.979.136 11.06 5.017 16.328 4.148 1.569-.258 3.081-.95 4.536-1.57 5.505-2.35 8.565-3.632 14.438-1.278 2.157.865 4.315 2.043 6.6 2.508 6.498 1.323 11.443-4.31 17.64-3.774 5.648.489 9.629 5.287 15.715 4.292q.102-.017.202-.036c2.169-.561 4.05-1.519 6.087-2.418 3.402-1.502 7.308-1.542 10.91-.802l1.535-1.566zm39.227 2.933c-4.823.447-8.999 3.585-13.85 3.675-9.005.166-9.598-6.151-21.012-2.357.704.74 1.41 1.47 2.154 2.171 1.982-1.14 3.82-1.542 6.061-.932 3.93 1.07 6.926 4.286 11.051 4.986 6.051 1.025 10.864-6.136 16.903-5.43 5.424.633 9.546 6.085 15.253 5.38 4.91-.607 9.459-5.61 14.18-5.332 5.35.315 9.194 5.964 15.055 5.564 4.964-.339 9.672-5.423 14.367-5.373 7.023.074 10.368 8.505 19.301 4.096 3.649-1.977 7.368-5.074 11.753-3.751 1.588.479 3.019 1.34 4.405 2.23 5.923 3.802 7.844 5.227 14.555 1.691 2.37-1.249 4.513-2.477 7.234-2.671a41 41 0 0 0 1.985-1.598c-5.57-.713-10.913 1.744-16.452 1.447-4.752-.255-8.873-3.327-13.65-3.1-5.118.243-9.657 2.795-14.943 2.639-5.148-.153-9.65-3.125-14.897-2.885-4.942.226-8.618 3.223-13.701 3.173-5.436-.052-10.092-3.617-15.472-3.45-5.151.16-9.495 3.348-14.699 3.335-5.472-.015-10.143-3.935-15.582-3.508m-29.825 5.96c1.874 1.531 3.267 1.84 5.282 2.95 4.049 2.23 5.77 4.752 10.95 4.221 5.097-.523 8.643-5.758 13.882-5.712 5.594.048 9.476 6.488 15.807 5.64 5.083-.68 8.8-5.663 14.203-5.33 5.35.331 9.104 6.076 14.494 5.748 4.853-.295 9.105-5.755 14.5-5.63 5.542.129 9.453 5.708 15.014 5.577 4.953-.116 9.271-6.048 14.871-5.536 4.193.383 6.407 3.917 9.983 5.484 1.17.512 2.335.706 3.597.83 2.576-.385 6.316-3.448 8.519-5.014-2.545.511-5.197 1.237-7.805 1.172-4.973-.125-8.83-3.85-13.962-3.912-5.11-.062-9.675 3.201-14.714 3.11-5.64-.101-9.888-3.788-16.326-3.215-4.468.398-8.366 3.31-12.925 3.3-5.197-.012-9.951-3.626-15.888-3.4-4.929.189-9.293 3.229-14.164 3.166-5.271-.068-9.929-3.574-15.213-3.51-5.355.066-9.917 3.858-15.413 3.4-5.011-.416-9.644-3.629-14.692-3.338m28.999 5.782c-7.15 1.03-11.923 5.011-19.47 2.028 2.37 1.826 5.164 3.634 7.855 4.947 1.662-.559 2.939-1.445 4.378-2.427 4.609-3.143 7.236-4.144 12.432-1.559 3.956 1.97 8.015 5.302 12.66 3.766 6.082-2.011 8.924-7.256 15.91-3.829 3.96 1.942 7.986 5.644 12.705 4.077 5.837-1.939 10.045-7.178 16.563-3.964 3.827 1.886 8.78 5.487 13.205 4.029.811-.267 1.563-.67 2.316-1.066 3.846-2.158 7.647-4.945 12.26-3.666 2.896.802 4.908 2.79 7.487 4.158 1.526-.809 3.026-1.675 4.563-2.462-4.752-.417-8.774-3.56-13.589-3.51-5.443.056-9.51 3.437-15.367 2.95-5.017-.417-8.84-3.213-14.427-3.079-4.917.119-9.287 3.347-14.07 3.214-5.23-.145-9.84-3.488-15.153-3.427-5.019.058-9.267 3.15-14.346 3.127-5.511-.025-10.23-3.772-15.912-3.307m-.162 5.504c-3.08.36-6.017 1.693-8.926 2.708.543.34 1.081.688 1.637 1.005 3.242-1.664 5.947-2.837 9.593-1.68 5.751 1.822 10.052 7.623 16.534 4.328 4.366-2.218 7.144-5.47 12.485-3.727 6.306 2.057 9.502 7.371 16.766 3.73 4.038-2.023 8.048-5.034 12.763-3.51 3.979 1.287 9.27 5.091 13.544 4.811.981-.064 1.907-.428 2.776-.87 1.559-.794 3.063-1.795 4.54-2.732 2.77-1.622 5.2-2.463 8.41-1.629 1.058.275 2.049.722 3.046 1.163 1.003-.382 1.946-.898 2.898-1.392-6.613-2.233-9.225-1.6-15.61.579-2.278.777-4.519 1.248-6.939 1.064-5.107-.389-9.407-3.188-14.98-3.06-5.074.118-9.572 3.263-14.708 2.853-5.061-.404-9.341-3.144-14.72-3.055-4.714.077-8.922 3.106-13.627 2.908-5.255-.22-10.172-4.015-15.482-3.494m26.452 11.897c2.044.542 4.104 1.056 6.072 1.843 4.646 1.86 6.684 3.662 11.797 1.516.416-.204.846-.394 1.222-.668-1.556.24-3.094.39-4.663.178-1.44-.195-2.803-.686-4.17-1.157-3.442-1.186-6.572-2.088-10.258-1.712m85.443-181.011-.076-.046z"/><path d="M144.132 88.75c-.394.027-.793.1-1.163-.064-.259-.254-.504-.525-.475-.918a1.82 1.82 0 0 1 .658-1.272c.15-.001.337-.015.488.007.322.048.434.101.624.373.281.404.289 1.13.158 1.587-.064.223-.1.187-.29.288m8.343.1c-.393.017-1.001.11-1.33-.136a.94.94 0 0 1-.38-.648c-.038-.462.212-.959.489-1.31l.226-.013c.458-.02.72-.012 1.05.331.255.262.353.692.314 1.046-.038.351-.087.52-.37.73m-12.22 13.825-.027-1.783c-.016-1.389-.162-2.803.879-3.868a13 13 0 0 1 1.864-.1c.484.01 1.035.155 1.372.525.8.879.376 3.354.322 4.47l-1.382.3a42 42 0 0 1-3.029.456m2.692-4.646c-.065 1.028-.066 2.194.094 3.21.209.203.1.14.305.224.125-.77.416-2.556.037-3.242-.08-.147-.285-.15-.436-.192m5.181 5.149c-.032-1.496-.351-3.806.246-5.181.2-.46.462-.673.921-.844.758-.021 1.758-.12 2.362.431.845.77.478 3.142.476 4.257l-2.045.413c-.69.226-1.32.587-1.96.924m2.503-5.121c-.035.891-.196 2.042.21 2.867l.169.13c-.031-.743.1-2.263-.233-2.888zm15.223 4.568c-.023-.651 0-1.303.012-1.954.585-.018 1.172.016 1.756.036.012.642-.015 1.284-.035 1.925zm-33.071 7.994q-.464.022-.928.026a1.2 1.2 0 0 1-.58-.758c-.103-.41.087-1.034.33-1.376.127-.18.473-.195.683-.244l.528.04c.321.223.391.406.518.78.129.376.138 1.07-.08 1.404-.1.156-.302.112-.47.128m8.446-.029c-.25.019-.576.076-.821.038-.252-.039-.357-.19-.488-.389-.202-.308-.215-.617-.133-.963.113-.484.229-.627.65-.893.27-.008.578-.051.825.072.177.087.309.37.373.548.179.492.122 1.026-.102 1.492zm6.729.121c-.036-.713-.175-1.657.166-2.294.452-.06 1.09-.197 1.47.11.25.202.403.54.395.858-.01.446-.027 1.018-.358 1.31-.556.027-1.116.015-1.673.016m45.759.054c-.078-.748-.07-1.476-.051-2.226.635-.035 1.277-.012 1.913-.009.026.692.035 1.36-.015 2.052-.617.047-1.232.12-1.847.183m-15.725.319c-.003-.72-.054-1.461.131-2.162.361-.022.856-.095 1.2.004.238.067.51.322.6.543.17.41-.017 1.156-.198 1.553q-.867.037-1.733.062m8.136-.005a16 16 0 0 1 .005-2.164c.297-.017.596-.037.893-.034.404.005.576.131.843.415.188.557.091 1.136.05 1.714-.599.083-1.189.072-1.792.07m-20.02 2.034c-.01-.632-.12-1.496.147-2.078l.166-.019c.607-.064.893-.138 1.38.255.292.538.13 1.258.041 1.842zm44.472 6.448-.149.087-.27-.091c.147-.043.27-.012.42.004m-77.375 5.773c-.274.047-.564.111-.842.121-.353.013-.481-.104-.725-.335-.2-.584-.06-1.263-.005-1.868.338-.026.85-.112 1.165-.005.222.076.513.344.59.568.14.412-.01 1.123-.183 1.52m-23.035 12.471.059.044zm60.381 3.319c-.249-.022-.26.026-.44-.167l.123-.155.426.03c-.016-.207.002-.133-.055-.321l-.04-.126.76-.147a6 6 0 0 0 1.686-.56l.172-.088.168.024c.203.215.182.205.178.504-.408.447-1.534.189-2.18.596-.152.348-.105.35.027.712l-.114.069zm5.087-.05a1.16 1.16 0 0 1-.55-.161c-.203-.381-.194-.708-.204-1.127.115.066.161.088.279.18.4.315.437.639.475 1.108m-103.646.632c-.446-.469-.557-.753-.567-1.393.404.367.45.884.567 1.393"/><path d="M166.594 142.749c-1.834-.062-12.873.836-13.886.379l.102-.1c3.617-.015 7.469-.291 11.01-1.058 1.08-.233 4.221-1.638 5.047-1.345.068.024.13.065.2.082.358.09.562-.126.845-.304l.103.107-.155.128c.04.388.089.736.208 1.108.302.22.642.505 1.034.52.356.013.46-.118.714-.333.173.013.243-.011.382.099q-.05.212-.112.421l-.038.125c.543.185 1.206.172 1.782.223 1.103.098 2.208.21 3.316.243 1.342.04 3.034-.119 4.325.216l-.042.168c-1.77.574-7.662.15-10.032.137-.81-.005-3.266.084-3.831-.488l.748-.332c-.571-.091-1.145-.03-1.72.004m.836-1.775-1.43.907c1.105-.149 1.892-.299 2.973.064l.633-.092c.136-.267.06-.284-.027-.557-.236-.163-.283-.189-.588-.12-.228.053-.47.174-.689.263-.47-.252-.133-.507-.872-.465m3.003 2.385.017.128.172-.07.001-.105z"/><path d="M173.031 141.803c-.17-.147-.107-.052-.166-.3l.25-.17.179-.053.106.077zm-52.769 1.382-.415-.271.052-.209c.509-.353 1.108-.416 1.713-.379a2.3 2.3 0 0 0-.538.343c.528.235.807-.056 1.323.293l-.064.064.222-.22a3.6 3.6 0 0 1 .144-.704 5.8 5.8 0 0 0 1.156-.898l.245.04.04.13a8 8 0 0 0-.719 1.012c0 .257-.058.288.126.485.203-.154.324-.261.584-.299.211-.03.143-.028.314.117l-.147.29c-.991.675-2.673-.19-3.915.169zm-8.608-.215c.556-.096 1.112-.126 1.666-.249l.095-.341c.097-.045.13-.067.25-.078.397-.038.607.155.896.374.164-.248.281-.49.536-.652.012.312-.011.592.179.856l.275-.017c.308-.19.417-.425.584-.733.092-.172.025-.104.183-.2.046.17.073.325.097.501l.024.202c.37.113.612-.077.962-.218.262.33.297.414.712.496.535-.215.975-1.032 1.398-1.465l.104-.105c.058.056.079.142.113.216q-.387.754-.8 1.494c-1.567.287-7.881.698-9.03.155l-.012-.113c.589-.095 1.172-.106 1.768-.123m13.605-.127c-.234-.06-.296-.024-.443-.228l.433-.32c.147.026.295.08.439.122l.007.138zm8.253.722-.115.145c-.683-.055-1.308-.194-2.004-.193-1.315.002-3.703.39-4.88.121-.673-.153-1.373-.146-2.034-.35l.027-.127c.936-.035 1.713-.202 2.626-.348.442-.071.713-.052 1.083.203l-.048.125c-.14.003-.282.01-.422.012-.474.003-1.007.035-1.366.375.944.066 1.948-.24 2.932-.206.28.01.498.036.69-.194.054-.064.094-.136.141-.204.224.12.37.197.621.249-.186-.288-.294-.482-.372-.822.285.048.567.261.81.29.244.03.78-.148 1.064-.18l.19.19c-.11.231-.503.35-.724.523.751.293 1.822-.077 2.64-.017.742.055.356.25.643.575.539-.056.879-.39 1.38-.526.226-.061.14-.073.356.062 1.11.697 2.363-.177 3.523.383l.064.185-.257-.143.108.193c-1.666.424-4.407.123-6.117-.154l.634-.017c-.4-.15-.644-.194-1.071-.161zm-59.951.242c-.6-.185-1.242-.207-1.862-.315.305-.137.594-.148.922-.184l-.05-.085c-.485-.17-.969-.203-1.467-.31.29-.217.624-.219.972-.26.624-.082 1.375.31 1.974.456.474.115.989.006 1.478.064-.548.312-1.197.197-1.75.506q-.11.062-.217.128m110.084-.466c-.148.02-.371.068-.525.055-.33-.028-.348-.113-.528-.364.124-.008.342-.026.46-.017.334.025.386.091.593.326m-62.206 4.07c-3.37.689-7.19.52-10.606.287-1.412-.096-3.954-.595-5.235-.28-2.295.565-3.12-.85-5.157-1.299-1.507-.333-5.6-.463-7.127-.138-1.022.217-1.818-.013-2.828-.14l-.001-.18-.121.065q.47-.189.928-.404l-.202-.063.039.169-.27-.178c-.978.02-2.33-.327-3.53-.35-4.338-.079-8.706.161-13.029-.287-.78-.08-1.541-.083-2.066-.73 1.109-.103 2.228.528 3.335.565 1.036.034 2.124-.319 3.148-.21 4.257.457 8.49.135 12.749.167 1.868.014 3.91.09 5.77.261.819.075 1.632.269 2.45.327.9.065 1.771-.272 2.69-.167l.061.136c-1.325.435-3.285.342-4.695.332.045.022.087.05.135.066 1.306.44 3.412.45 4.855.799.44.107 2.038.722 2.349.685.145-.018.26-.132.39-.198.13.171.26.329.407.485.728-.019 1.118-.836 1.638-1.282l.137.088-.035.589.076.035.59-.287c.003.115-.095.231-.152.33 1.904.602 4.037.13 5.986.415.431.063.854.091 1.288.114.305-.008.164.029.443-.115.213-.11.341-.14.588-.143 1.43.727 3.406.395 5.002.536m-31.172-2.601c.55.166 2.586.5 3.164.506l.019-.241c-.928-.316-2.21-.373-3.184-.265m1.336.557.118.04zm15.903 1.5-.116.19c.694.336 1.737.17 2.454-.023-.702-.212-1.276-.095-1.976-.179-.142-.017-.233-.045-.362.012m5.393.57h.122zm97.571 3.036c1.581.006 4.466-.197 5.91.256-.403.187-5.535.38-6.28.327-.785-.055-1.567-.235-2.35-.323-1.201-.135-2.523-.066-3.671-.468l-.039-.16c.49-.27 1.013-.341 1.556-.446.682-.049 1.4.063 2.09.054 1.751-.025 3.72-.335 5.445-.031-1.634.538-5.67.251-7.629.39 1.62.234 3.332.356 4.968.4m-7.372-.119c-1.213.308-4.81.686-5.834.17l-.082-.361c1.504-.086 4.545-.098 6.014.053zm-102.478 32.943c-.647.071-1.278.031-1.871-.259-1.029-.504-1.656-1.505-1.998-2.565-.662-2.05-.679-4.918.362-6.845.584-1.08 1.315-1.625 2.467-1.994.553-.038 1.1-.026 1.619.192 1.03.433 1.695 1.384 2.079 2.399.753 1.987.719 4.828-.17 6.762-.538 1.173-1.292 1.862-2.489 2.31m33.526-4.288c.48-1.794.98-3.575 1.666-5.303.591.584 1.502 4.47 1.761 5.412l-1.261-.097z"/></svg>