<svg xmlns="http://www.w3.org/2000/svg" viewBox="0 0 256 256"><path d="M116.19 0h24.121l.148.028c1.69.312 3.425.43 5.13.665 3.715.516 7.51 1.125 11.159 2.009 5.882 1.425 11.76 3.126 17.419 5.28q1.117.422 2.226.865 1.11.444 2.21.908t2.192.949q1.092.484 2.174.99 1.083.505 2.155 1.03 1.073.526 2.136 1.072 1.062.545 2.114 1.11t2.094 1.151q1.04.586 2.07 1.19 1.031.605 2.05 1.23 1.018.623 2.025 1.266t2 1.305q.995.662 1.976 1.343.982.68 1.95 1.38.97.698 1.925 1.415t1.897 1.452 1.869 1.487 1.841 1.522 1.812 1.557 1.782 1.59 1.753 1.624q.868.82 1.721 1.656.853.837 1.69 1.689t1.657 1.72 1.626 1.75q.804.884 1.591 1.782.788.898 1.559 1.81.77.913 1.523 1.84.753.928 1.489 1.869.735.941 1.453 1.896t1.417 1.923 1.381 1.949q.98 1.424 1.92 2.874t1.841 2.926 1.76 2.976 1.679 3.021 1.596 3.067 1.51 3.109 1.427 3.149 1.34 3.186q.647 1.603 1.251 3.222.605 1.62 1.164 3.256.56 1.635 1.075 3.285t.984 3.313.895 3.34q.423 1.675.803 3.362.377 1.687.71 3.383.333 1.697.618 3.401c.537 3.249 1.064 6.518 1.347 9.8.16 1.83.168 5.642.555 7.176v10.47l-.02.112c-.4 2.536-.355 5.736-.585 8.399-.425 4.94-1.18 9.963-2.17 14.817-1.403 6.879-3.46 13.448-6.019 19.974-8.977 22.898-23.631 41.44-43.38 56.019-14.225 10.5-32.432 18.511-49.83 21.751q-5.53.99-11.11 1.66c-1.82.21-4.067.213-5.81.65h-18.524c-2.13-.45-4.446-.475-6.616-.727q-5.543-.688-11.037-1.696c-2.442-.467-4.862-1.182-7.264-1.83q-1.472-.39-2.934-.815-1.463-.427-2.914-.89-1.452-.46-2.892-.959t-2.866-1.03q-1.427-.534-2.84-1.102t-2.812-1.172-2.782-1.24q-1.384-.638-2.751-1.31-1.367-.671-2.718-1.376t-2.683-1.443-2.646-1.51q-1.314-.77-2.608-1.573t-2.568-1.638-2.528-1.701-2.484-1.763q-1.232-.897-2.44-1.824-1.107-.836-2.195-1.695t-2.157-1.743-2.119-1.79-2.078-1.837-2.038-1.88q-1.009-.953-1.996-1.926-.988-.974-1.954-1.97-.966-.994-1.91-2.01-.944-1.017-1.865-2.053t-1.82-2.093q-.898-1.056-1.773-2.132t-1.726-2.171-1.678-2.208-1.63-2.245q-.802-1.13-1.58-2.28-.777-1.148-1.529-2.313t-1.478-2.347-1.426-2.378-1.374-2.41-1.321-2.438-1.267-2.468-1.212-2.494-1.158-2.52-1.102-2.545-1.046-2.569-.989-2.591-.932-2.612-.875-2.632-.817-2.65-.758-2.668-.7-2.684-.64-2.698c-.945-4.312-1.765-8.784-2.244-13.172-.322-2.942-.4-5.934-.782-8.863v-18.883c.482-1.994.506-4.264.75-6.308.366-3.056.932-6.11 1.55-9.124 3.465-16.944 11.167-34.287 21.328-48.286q.817-1.139 1.658-2.259t1.707-2.222q.866-1.101 1.756-2.183.89-1.083 1.803-2.145.914-1.062 1.85-2.104.937-1.042 1.897-2.063.959-1.02 1.94-2.02.983-1 1.986-1.977t2.028-1.934q1.025-.955 2.07-1.888 1.046-.932 2.111-1.842 1.066-.909 2.152-1.795t2.19-1.747 2.229-1.698 2.265-1.65 2.3-1.598 2.337-1.548 2.369-1.496q1.192-.735 2.401-1.443t2.433-1.39 2.463-1.336 2.491-1.282q1.253-.627 2.52-1.226 1.266-.6 2.545-1.17 1.28-.572 2.571-1.115t2.595-1.057q1.303-.514 2.617-1t2.639-.942T88.21 5.7t2.677-.825 2.695-.765q1.353-.368 2.712-.707 6.736-1.67 13.613-2.609c2.089-.299 4.2-.465 6.282-.795m7.097 5.07q-1.5.052-2.998.142t-2.994.216-2.987.289-2.98.363q-1.487.2-2.969.435-1.482.236-2.957.509-1.476.272-2.945.581t-2.929.653-2.912.726q-1.452.38-2.894.796t-2.873.868-2.851.937-2.827 1.008-2.802 1.077q-1.394.555-2.773 1.145t-2.746 1.213q-1.365.624-2.714 1.28-1.35.657-2.682 1.347-1.333.69-2.648 1.412-1.316.723-2.613 1.477t-2.576 1.54-2.537 1.604-2.496 1.666-2.456 1.726-2.411 1.786q-1.195.907-2.368 1.845-1.172.936-2.321 1.902t-2.274 1.959-2.224 2.014-2.175 2.068-2.123 2.121q-1.05 1.074-2.071 2.173-2.45 2.615-4.74 5.37t-4.412 5.643-4.07 5.894-3.712 6.126C9.477 87.497 4.397 109.552 5.22 133.152q.052 1.5.142 2.999.09 1.498.216 2.993.126 1.496.29 2.988t.362 2.98.437 2.97.51 2.958.581 2.945.655 2.929.726 2.913q.38 1.451.798 2.893.416 1.442.868 2.873.453 1.431.94 2.851t1.01 2.827q.521 1.408 1.078 2.801.556 1.394 1.147 2.774.59 1.38 1.215 2.745t1.282 2.714 1.35 2.681q.69 1.333 1.414 2.648.723 1.315 1.479 2.612.756 1.296 1.543 2.575.788 1.277 1.606 2.535t1.668 2.496 1.73 2.453 1.788 2.411 1.848 2.365 1.905 2.32 1.962 2.272 2.017 2.222q1.023 1.1 2.072 2.173t2.124 2.12 2.176 2.069q1.097 1.013 2.219 2t2.267 1.946q1.145.96 2.313 1.89 1.169.931 2.36 1.833t2.403 1.775 2.446 1.716 2.487 1.655 2.526 1.595q1.273.781 2.565 1.532 1.292.75 2.602 1.469t2.636 1.405 2.67 1.341 2.702 1.275 2.732 1.209q1.374.587 2.761 1.141t2.788 1.074 2.813 1.006 2.837.937 2.86.867 2.878.797 2.898.727q1.454.345 2.915.655t2.93.585 2.943.513 2.955.44q1.48.203 2.965.37 1.484.165 2.973.295t2.979.225q1.491.093 2.984.15 1.493.058 2.987.077 1.493.02 2.987.005t2.987-.067q.283-.012.566-.03 1.482-.037 2.963-.112 1.48-.076 2.959-.185 1.478-.11 2.954-.258 1.476-.146 2.947-.328t2.938-.4q1.466-.219 2.927-.472 1.46-.254 2.915-.544 1.454-.29 2.9-.614 1.447-.325 2.886-.685 1.438-.36 2.867-.755 1.43-.394 2.848-.824 1.42-.43 2.827-.894 1.409-.464 2.805-.962t2.78-1.03 2.754-1.099q1.371-.565 2.727-1.164 1.357-.6 2.698-1.231t2.667-1.297q1.325-.664 2.634-1.36t2.6-1.425q1.292-.728 2.565-1.488 1.274-.76 2.528-1.55t2.49-1.61q1.234-.821 2.448-1.672 1.215-.85 2.409-1.73t2.364-1.789 2.321-1.846q1.149-.936 2.275-1.901t2.228-1.957 2.18-2.01q1.077-1.019 2.129-2.063t2.079-2.114c2.974-3.108 5.935-6.317 8.587-9.708 14.58-18.648 23.113-41.894 25.024-65.42q.555-7.54.308-15.098c-.736-31.633-15.115-62.657-37.93-84.4q-1.099-1.041-2.223-2.055-1.125-1.014-2.274-2-1.149-.985-2.322-1.942-1.172-.958-2.368-1.886t-2.415-1.826q-1.218-.898-2.459-1.766-1.24-.868-2.501-1.706-1.262-.837-2.543-1.643t-2.583-1.58q-1.3-.774-2.62-1.516t-2.656-1.45-2.692-1.385-2.726-1.319-2.756-1.25q-1.387-.61-2.787-1.184-1.401-.574-2.815-1.114-1.415-.54-2.842-1.044-1.427-.505-2.867-.974-1.439-.47-2.89-.903-1.45-.434-2.91-.832t-2.93-.76-2.95-.687q-1.478-.326-2.964-.615t-2.978-.541-2.992-.468-3.001-.395q-1.504-.178-3.01-.32-1.508-.141-3.018-.246-1.51-.104-3.023-.172-1.512-.067-3.026-.097t-3.027-.023-3.027.052q-.607.01-1.212.048"/><path d="M131.645 249.633q-1.503.055-3.006.074-1.504.018-3.007-.001-1.503-.02-3.006-.076t-3.002-.15q-1.5-.093-2.998-.224-1.498-.13-2.992-.298t-2.984-.373-2.973-.446-2.961-.52-2.948-.592-2.932-.666-2.914-.738-2.896-.81q-1.442-.422-2.874-.881-1.432-.458-2.852-.952t-2.827-1.023-2.802-1.092-2.773-1.162-2.743-1.23-2.713-1.296q-1.348-.666-2.679-1.364t-2.645-1.43-2.608-1.495q-1.296-.764-2.571-1.56-1.276-.794-2.532-1.621-1.255-.827-2.49-1.685-1.235-.857-2.448-1.745t-2.404-1.806-2.358-1.865q-1.168-.946-2.312-1.922t-2.264-1.98q-1.119-1.003-2.213-2.034-1.074-1.016-2.123-2.059-1.049-1.042-2.072-2.11t-2.02-2.16q-.997-1.093-1.967-2.21t-1.912-2.256-1.857-2.303-1.8-2.347-1.742-2.39-1.683-2.432-1.623-2.473-1.562-2.511-1.5-2.549-1.439-2.584-1.374-2.62-1.31-2.651-1.245-2.683-1.18-2.713-1.112-2.74-1.045-2.767-.977-2.791-.91-2.815q-.437-1.412-.84-2.836t-.77-2.855q-.368-1.433-.7-2.874-.333-1.44-.63-2.89-.298-1.448-.56-2.904t-.489-2.917-.417-2.928-.345-2.937-.274-2.945-.202-2.951-.13-2.955q-.06-1.507-.082-3.016-.022-1.508-.007-3.016t.068-3.016.143-3.014q.09-1.505.217-3.009.127-1.503.292-3.002.165-1.5.367-2.995t.441-2.984.515-2.972.589-2.96q.313-1.475.662-2.942t.735-2.926.808-2.907q.421-1.448.88-2.886.457-1.437.95-2.862t1.022-2.839q.529-1.413 1.092-2.812.564-1.4 1.162-2.784.598-1.385 1.23-2.755.633-1.37 1.299-2.723t1.366-2.69 1.432-2.655 1.498-2.618 1.562-2.581 1.626-2.541 1.689-2.5q.86-1.24 1.75-2.457.89-1.218 1.811-2.413t1.87-2.367 1.929-2.32q.978-1.148 1.985-2.27 1.007-1.124 2.042-2.222 1.024-1.095 2.075-2.163 1.051-1.07 2.128-2.112t2.18-2.059q1.102-1.015 2.23-2.004 1.127-.988 2.278-1.948t2.326-1.892 2.372-1.833 2.416-1.775 2.46-1.714 2.501-1.653 2.541-1.59 2.58-1.528 2.617-1.463 2.652-1.398 2.686-1.333q1.35-.65 2.717-1.265 1.367-.616 2.748-1.198t2.777-1.13 2.804-1.061q1.409-.513 2.83-.992 1.42-.478 2.853-.92 1.432-.444 2.874-.851 1.443-.408 2.895-.78 1.453-.371 2.914-.707 1.46-.336 2.93-.635 1.468-.3 2.944-.563 1.476-.264 2.958-.49 1.482-.227 2.969-.417t2.978-.343 2.986-.27 2.992-.196q1.496-.08 2.995-.122c.996-.066 2.012-.06 3.011-.069q1.481-.01 2.962.014 1.48.026 2.96.087t2.959.159 2.952.23 2.947.302 2.938.374 2.929.445q1.461.24 2.916.517 1.456.276 2.904.587t2.887.658 2.872.727 2.852.798 2.833.866 2.81.935 2.787 1.004 2.762 1.07q1.374.553 2.735 1.138 1.36.586 2.706 1.204t2.676 1.27q1.33.65 2.645 1.334 1.314.683 2.611 1.398t2.577 1.46 2.54 1.524q1.26.777 2.502 1.585t2.463 1.645q1.222.838 2.423 1.705 1.2.867 2.38 1.763t2.336 1.82 2.291 1.877 2.246 1.932 2.197 1.986 2.149 2.04q1.087 1.057 2.147 2.142t2.093 2.196 2.037 2.247 1.981 2.297 1.923 2.345 1.864 2.393 1.804 2.439 1.743 2.483 1.68 2.525 1.617 2.567 1.552 2.606 1.487 2.643 1.42 2.68q.694 1.35 1.354 2.715.66 1.366 1.285 2.748.626 1.381 1.217 2.778t1.147 2.808 1.077 2.836 1.005 2.861q.486 1.438.935 2.886.449 1.45.862 2.909.412 1.46.789 2.928.376 1.47.716 2.948t.643 2.965.568 2.979.494 2.993.419 3.004.344 3.014.27 3.021.193 3.027.119 3.031.042 3.033q.012 1.488-.013 2.975t-.086 2.974-.16 2.971q-.097 1.485-.231 2.966t-.304 2.96q-.171 1.478-.377 2.952-.207 1.473-.45 2.94-.242 1.469-.52 2.93-.279 1.462-.593 2.916t-.664 2.9-.735 2.883-.805 2.864-.875 2.844-.944 2.821-1.014 2.798q-.523 1.392-1.081 2.771t-1.15 2.745-1.215 2.715-1.282 2.685q-.658 1.335-1.348 2.653t-1.412 2.619q-.722 1.3-1.476 2.583t-1.539 2.547-1.6 2.508-1.662 2.468-1.722 2.426-1.78 2.384-1.839 2.34q-.933 1.158-1.895 2.293t-1.95 2.246q-.99 1.112-2.006 2.199t-2.058 2.148q-.863.879-1.744 1.74-.88.86-1.778 1.703t-1.813 1.667-1.846 1.63-1.88 1.592q-.947.786-1.911 1.553t-1.943 1.514-1.973 1.473-2.003 1.433-2.032 1.392q-1.023.686-2.06 1.351-1.036.665-2.086 1.308-1.05.644-2.113 1.265-1.063.622-2.138 1.222-1.076.6-2.163 1.178-1.088.578-2.187 1.133-1.099.556-2.209 1.09-1.11.532-2.231 1.043t-2.251.998-2.272.951q-1.14.464-2.29.905t-2.31.859-2.325.81-2.341.763-2.357.716-2.37.667q-1.19.321-2.385.618-1.195.298-2.396.57-1.2.273-2.407.521-1.206.249-2.417.472t-2.426.422q-1.216.199-2.435.373c-4.734.669-9.535 1.159-14.32 1.19M124.968 7.558q-3.799.08-7.586.398t-7.546.873-7.477 1.345-7.377 1.811C75.4 17.54 55.84 29.032 41.762 43.777 25.515 60.797 13.559 82.43 9.38 105.705c-1.608 8.956-2.034 17.907-1.817 26.987.126 5.31.847 10.543 1.73 15.772q.194 1.192.412 2.38t.46 2.371q.241 1.184.507 2.362t.556 2.35.605 2.339.652 2.326.699 2.312.747 2.297.793 2.281.84 2.265.886 2.247.932 2.228.978 2.209 1.022 2.188q.523 1.09 1.067 2.167.545 1.078 1.112 2.145.566 1.066 1.155 2.121.588 1.055 1.198 2.098t1.24 2.072q.632 1.03 1.283 2.047.652 1.017 1.325 2.02t1.366 1.992 1.406 1.964 1.445 1.934q.733.96 1.486 1.905.752.945 1.524 1.874t1.562 1.843 1.6 1.81 1.636 1.776 1.672 1.744 1.707 1.708 1.742 1.673q1.07 1.008 2.163 1.99 1.094.983 2.21 1.938 1.118.955 2.258 1.883 1.14.927 2.303 1.827 1.162.9 2.346 1.77 1.184.871 2.39 1.713 1.204.841 2.43 1.653 1.225.812 2.47 1.594 1.244.782 2.508 1.533 1.263.751 2.544 1.471t2.58 1.409 2.614 1.345 2.645 1.28q1.331.625 2.677 1.216 1.345.592 2.704 1.15 1.36.56 2.733 1.085t2.758 1.016q1.385.492 2.782.95t2.804.88 2.825.812 2.844.743 2.861.673 2.878.603q1.442.284 2.89.532 1.449.25 2.903.463t2.913.39 2.922.32q1.464.142 2.93.248 1.465.106 2.933.176 1.469.07 2.938.105t2.94.033 2.939-.04l.322-.008c27.839-.981 53.677-10.178 75.013-28.256 4.532-3.84 8.629-8.062 12.673-12.402 5.81-6.233 10.68-13.459 14.749-20.935q.5-.907.983-1.823.484-.916.952-1.84.468-.923.92-1.855.453-.931.889-1.87t.856-1.886.825-1.9.792-1.914.759-1.927.726-1.94.692-1.951.66-1.963q.321-.985.626-1.975.304-.99.592-1.984.287-.995.558-1.995.27-1 .524-2.004t.49-2.012.455-2.02.421-2.028.386-2.035.351-2.041.317-2.047.281-2.052.247-2.056.212-2.06.176-2.064q.079-1.032.14-2.066.063-1.034.107-2.068t.07-2.07.035-2.071 0-2.071-.036-2.071-.07-2.07q-.053-1.269-.132-2.537-.08-1.267-.185-2.532-.106-1.266-.238-2.529t-.291-2.523-.344-2.517-.396-2.508q-.212-1.252-.45-2.5-.237-1.248-.501-2.49t-.554-2.478-.605-2.467-.657-2.453q-.342-1.224-.709-2.44t-.76-2.423q-.392-1.208-.81-2.407-.417-1.2-.86-2.39t-.91-2.37q-.468-1.181-.96-2.352-.493-1.17-1.01-2.33t-1.058-2.31q-.54-1.148-1.106-2.286-.565-1.137-1.154-2.263-.588-1.125-1.2-2.237-.613-1.113-1.249-2.213-.635-1.099-1.293-2.185-.659-1.086-1.34-2.158t-1.385-2.129-1.429-2.1-1.472-2.069-1.516-2.038-1.558-2.006-1.6-1.972-1.641-1.939c-3.197-3.697-6.751-7.115-10.33-10.44q-2.255-2.069-4.623-4.009-2.367-1.94-4.84-3.745-2.471-1.804-5.041-3.468t-5.227-3.18q-.901-.527-1.81-1.038-.91-.511-1.828-1.006t-1.845-.974-1.862-.942-1.877-.91-1.893-.876-1.908-.843-1.922-.81-1.937-.777q-.971-.38-1.949-.744-.978-.363-1.962-.709t-1.974-.675-1.985-.64-1.996-.606-2.007-.572-2.016-.536-2.025-.501-2.034-.466-2.04-.431-2.049-.395-2.055-.36-2.061-.324-2.066-.288-2.071-.252-2.075-.216-2.078-.18-2.082-.144-2.083-.108q-1.042-.044-2.085-.071t-2.086-.036-2.086.001-2.086.037"/><path d="M118.672 13.54c3.038-1.007 5.638-3.273 8.673-4.414 2.655.122 6.766 3.61 9.506 4.632 3.31-.701 6.33-2.587 9.64-3.374l.12.054.2.097c2.762 1.307 5.9 5.073 8.516 5.87 3.108.946 7.03-2.598 10.566-.916 2.787 1.326 5.124 6.53 6.94 6.962 2.574.615 5.848-1.143 8.746-.471 3.688.855 4.123 5.173 5.947 7.825 1.472 2.139 6.271.815 8.597 1.2 3.727.619 4.56 4.438 5.633 7.493.31.886.588 1.838 1.21 2.564 1.454 1.699 6.308 1.454 8.577 2.624 3.917 2.02 2.367 8.382 4.204 10.554 1.538 1.818 6.5.885 8.606 3.537 2.382 2.996.462 8.418 1.492 10.85.77 1.819 5.847 2.227 7.728 4.868 2.147 3.016-.879 9.063.46 11.346.752 1.281 4.604 2.972 6.192 5.243.536.766.991 1.674 1.091 2.614.233 2.196-1.666 6.182-2.078 8.613l-.035.213c1.824 3.192 4.939 4.597 6.114 8.487-.846 3.09-2.57 5.924-3.477 9.007 1.227 2.422 4.208 5.772 4.967 8.07.16.484.184.973.024 1.46-.505 1.542-1.813 3.198-2.666 4.607q-1.238 2.063-2.324 4.209.924 2.09 1.896 4.158c.579 1.212 1.435 2.589 1.722 3.904a2.45 2.45 0 0 1-.254 1.764c-.503.93-1.413 1.8-2.086 2.617-1.324 1.606-2.691 3.254-3.854 4.979.294 2.17 2.511 8.14 2.402 9.431-.036.413-.204.771-.454 1.098-.675.886-1.737 1.656-2.572 2.393L233.776 172c.133 3.402.632 6.811.674 10.207-.9.758-2.004 1.353-2.999 1.981-1.95 1.23-3.888 2.457-5.906 3.571.05 2.422.193 5.024-.028 7.432-.119 1.296-.468 1.744-1.33 2.698-3.537 3.917-6.32 2.21-8.71 4.398-2.625 2.403-.734 6.702-3.057 9.047-3.35 3.383-6.781 1.386-9.362 3.552-3.165 2.656-1.418 7.754-6.199 9.78q-.323.137-.66.235c-2.547.743-6.034-.779-8.227.784-2.328 1.66-2.368 5.24-4.568 6.966-2.815 2.21-5.273 1.034-8.41.674-4.627-.531-5.08 4.366-7.978 6.567-3.244 2.464-7.508-.215-11.017-.633l-.195-.023c-3.44 1.514-5.963 5.15-9.632 6.154-3.112-.7-5.906-2.306-8.969-3.119-2.361.868-5.001 2.582-7.205 3.825-.695.354-1.376.636-2.114.889-3.46-.926-6.142-3.918-9.556-4.83-2.927 1.147-6.078 2.844-9.208 3.226-3.145-1.372-5.338-4.178-8.265-5.852-3.422.358-6.776 1.325-10.228 1.415-2.064-1.058-4.628-5.133-6.556-6.946-3.103-.362-6.222.18-9.326.11-2.88-.065-4.914-6.268-6.852-8.224l-.102-.1c-2.969-.662-6.112-.58-9.095-1.203-.558-.117-1.199-.275-1.64-.66-1.538-1.345-2.517-6.603-3.953-8.67l-.08-.112c-2.383-.74-8.424-2.055-10.04-3.593-.98-2.894-1.285-5.987-2.378-8.853-2.667-1.744-7.595-2.78-9.644-4.798-.911-2.718-.453-6.901-1.233-9.89-1.54-1.508-3.679-2.751-5.478-3.93-.69-.451-1.58-.889-2.137-1.49-.396-.428-.591-.929-.675-1.5-.15-1.035 0-2.192.022-3.24l.106-6.037c-1.692-1.674-5.509-4.49-6.578-6.297q-.104-.173-.184-.358-.08-.186-.134-.381t-.08-.395-.027-.402c0-1.65 1.613-6.729 2.13-8.694-1.52-3.29-4.798-5.655-6.435-8.883.424-3.255 2.794-6.307 3.735-9.496-1.1-1.841-4.402-6.72-4.862-8.25a2.72 2.72 0 0 1 .017-1.678c.544-1.638 3.83-5.892 4.902-7.934-.985-3.44-2.821-6.66-4.04-10.035 1.82-2.574 5.609-5.283 6.693-7.925-.495-3.159-1.674-6.308-2.415-9.43 1.421-3.81 6.293-4.897 7.408-6.818 1.251-2.157-1.294-8.113-.046-10.546 1.5-2.922 6.49-3.384 8.098-5.368 1.451-1.791-.026-7.658 1.17-10.144 1.502-3.128 8.188-3.089 9.508-5.007 1.302-1.893 1.218-7.148 2.518-9.645l.076-.143c2.82-1.853 7.713-1.19 9.82-2.879 1.39-1.113 2.313-6.705 3.798-8.574 1.781-2.242 8.079-1.523 10.803-1.9l.163-.023c1.904-2.247 3.186-6.152 5.146-7.942a3.37 3.37 0 0 1 1.673-.837c1.984-.378 6.699.391 9.025.456 2.573-1.739 3.731-4.822 6.01-6.65q.939-.749 2.136-.815c1.765-.1 6.959 1.488 9.322 1.75 2.642-1.844 5.603-4.927 8.5-6.129 3.206.512 6.094 2.324 9.255 3.105m89.484 38.98.063.043c.204.757.597 1.498.918 2.213 1.628 3.624 3.227 4.383 6.2 6.801-.742-1.986-1.384-4.011-2.088-6.012-1.342-1.094-3.41-2.383-5.03-3.002zm11.312 137.906-.063.052zc.464-.404.863-.91 1.306-1.343.89-.869 1.837-1.692 2.764-2.52.295-1.903.782-3.784 1.202-5.664-1.573 1.346-4.279 2.918-4.617 5.078-.233 1.488-.345 2.97-.655 4.449M136.915 16.282c-2.165.798-4.399 1.556-6.494 2.523q3.146.082 6.277.395c1.964.166 3.962.213 5.912.492-1.918-1.083-3.893-2.137-5.695-3.41m-18.11.074c-1.727 1.058-3.367 2.241-5.175 3.163 2.15-.2 4.32-.132 6.465-.352q2.63-.211 5.256-.482c-1.502-.41-5.383-2.27-6.546-2.329m-17.155 2.495c-1.756 1.256-3.292 2.863-4.965 4.234q3.056-.743 6.132-1.397c2.052-.502 4.16-.864 6.188-1.442-2.167-.429-5.25-1.438-7.355-1.395m52.276.183c-2.298.43-4.544 1.065-6.851 1.475 2.147.266 4.206.93 6.323 1.34 1.876.35 3.782.65 5.63 1.123-.684-.59-4.271-3.98-4.849-3.968-.084.002-.168.02-.253.03m-34.051 3.81c-1.784 1.023-5.46 3.695-7.263 4.04-.709.137-1.407.012-2.094-.175-2.365-.645-4.667-1.528-7.033-2.184l-.123.085c-.755.54-1.363 1.26-1.992 1.936-3.571 3.84-3.97 4.456-9.515 3.617-1.583-.239-3.183-.749-4.78-.821l-.102.124c-2.287 2.865-2.451 6.606-6.83 7.114a22 22 0 0 1-4.103.074c-.92-.07-1.93-.256-2.848-.189-.38.027-.684.087-.966.368-.46.459-.736 1.4-.976 2-2.085 5.2-2.069 5.934-7.937 6.593-1.375.155-4.045.04-4.948 1.143-.559.683-.766 1.949-1.001 2.798-.424 1.535-.81 3.505-1.741 4.8-1.319 1.837-6.851 3.253-9.084 3.922-.193 2.13-.537 6.358-1.413 8.2-.283.595-.695 1.074-1.19 1.501-2.056 1.774-4.986 2.905-7.332 4.298.208 2.635 1.163 7.544-.64 9.63-.98 1.133-5.717 4.501-7.2 5.51.808 2.54 2.427 6.78 1.088 9.299-.997 1.876-4.314 4.863-6.005 6.258.832 3.034 2.542 5.845 2.708 9.064-1.197 2.936-3.747 5.138-5.484 7.736 1.269 2.666 3.204 5.26 4.016 8.096-.697 2.755-2.334 6.071-4.057 8.323 1.3 2.256 4.805 5.482 5.297 7.714.195.88.036 1.793-.194 2.652-.625 2.337-1.825 4.618-2.268 6.982l.11.131c1.634 1.927 4.914 3.83 5.99 5.972.31.614.367 1.285.313 1.961-.214 2.705-1.005 5.37-1.732 7.972 2.55 1.812 5.767 2.898 7.843 5.331.549 3.233-.267 6.305-.134 9.505 2.2 1.026 6.076 2.096 7.839 3.532.495.404.846.987 1.063 1.583.792 2.174.519 6.537 1.086 7.822.152.347.457.541.786.695 3.346 1.552 7.498.62 9.147 4.755.627 1.572 1.254 4.502 1.963 5.728.251.433.559.716 1.019.917.774.338 1.718.371 2.55.488 4.932.693 6.828.33 8.92 5.392q.813 2.026 1.516 4.093c2.702.16 7.483-.498 9.794.173.903.262 1.658.785 2.269 1.495 1.557 1.81 2.47 4.155 4.068 5.988 2.328-.48 6.418-1.604 8.715-1.364.683.07 1.31.317 1.884.69 1.804 1.174 3.971 4.324 5.473 5.036.36.171.769.145 1.149.061 3.674-.816 6.22-3.753 10.125-1.385 1.586.96 3.079 2.123 4.834 2.763l.176-.055c1.908-.602 5.661-2.714 7.417-2.582.835.062 1.673.471 2.424.818 1.525.706 2.995 1.556 4.585 2.11 2.85-.538 5.04-3.554 7.692-4.021 2.715-.479 5.757 2.242 8.578 2.02 2.717-.213 4.892-4.234 7.605-5.175 2.826-.98 5.762 1.356 8.549.383 3.016-1.053 3.817-5.345 7.185-6.465 2.713-.901 5.689-.151 8.46-.681l.114-.114c2.006-2.033 2.49-5.693 4.806-7.336 2.457-1.743 7.39-.756 9.064-2.58 2.033-2.217 1.43-6.388 3.948-8.35 1.88-1.465 6.561-1.58 8.047-3.001 1.505-1.44.701-7.154 2.304-9.093 1.752-2.122 5.833-2.691 7.992-4.639v-.175c.006-2.68-1.294-7.486.73-9.584 1.177-1.221 5.64-4.032 7.255-4.888-.765-2.939-1.917-6.034-1.75-9.1 1.671-2.628 4.367-4.802 6.467-7.094-.662-3.009-2.497-5.598-2.936-8.939 1.315-2.948 3.74-5.187 5.63-7.747-1.635-2.662-3.41-5.431-4.365-8.432.896-2.968 2.708-5.365 3.992-8.13-1.677-1.763-5.586-6.022-5.556-8.504.027-2.23 2.018-6.313 3.121-8.238l-.062-.085c-2.084-2.726-7.088-4.918-6.596-8.95.29-2.378.839-4.725 1.082-7.111l-.115-.104c-2.815-2.505-6.979-4.316-7.274-8.557-.15-2.142.04-4.327.095-6.471-2.199-1.05-5.974-2.648-7.643-4.344-.622-.631-1.023-1.405-1.316-2.233-.582-1.638-1.043-5.755-1.79-6.83-.47-.676-1.312-1.149-2.041-1.505-1.573-.77-3.274-1.225-4.86-1.95-2.894-1.32-3.468-5.59-4.758-8.215l-.15-.096c-2.677-1.666-7.899-1.04-9.73-3.186-1.544-1.812-1.975-4.355-3.513-6.187-3.215-1.193-7.085-.118-9.376-1.019-2.586-1.017-3.461-4.668-5.82-6.174a2.9 2.9 0 0 0-1.312-.463c-2.554-.253-5.453 1.288-7.935.617-2.625-.709-4.451-4.895-7.011-5.144-1.846-.179-5.964 1.571-7.96 2.078-3.016-.799-5.117-3.05-7.898-4.283l-.155.029c-2.61.525-4.862 2.48-7.473 2.87-2.683.4-6.174-2.92-8.503-2.938m-35.153 1.508c-1.515 1.491-2.584 3.279-3.875 4.948 1.737-.872 3.567-1.405 5.342-2.173l5.548-2.49c-2.341-.017-4.68-.31-7.015-.285m79.496.2c3.618 1.797 7.512 3.643 11.403 4.746-1.392-1.58-2.757-3.228-4.244-4.717-2.364-.227-4.787-.053-7.16-.029m16.706 7.177c1.091 1.049 2.188 2.371 3.412 3.234.84.592 5.519 2.332 6.702 2.716-1.498-1.629-2.631-3.603-4.21-5.138a51 51 0 0 0-5.904-.812m-105.538.199c-2.01.162-4.043.214-6.046.415-.61.753-2.834 3.637-2.916 4.478.123-.007.24.004.352-.052 1.806-.658 3.753-1.242 5.395-2.26 1.232-.764 2.348-1.709 3.581-2.475l.022-.11zm119.733 8.89c1.043 1.428 2.101 3.35 3.456 4.466 1.448 1.193 3.623 2.07 5.253 3.234-.951-1.887-1.757-4.011-2.979-5.733-1.805-.699-3.85-1.532-5.73-1.966m-134.43.187c-1.943.723-4.131 1.031-6.005 1.853-.873 1.747-1.627 3.645-2.398 5.444l.148-.033c1.632-1.134 3.456-2.038 4.957-3.346 1.29-1.124 2.294-2.533 3.431-3.802l-.059-.111zm-13.28 12.013c-1.625.796-3.371 1.476-4.945 2.353-.321.903-1.689 5.198-1.538 5.898 3.918-3.572 4.075-3.032 6.507-8.067zM219.607 66.06c1.159 3.951.363 4.944 3.416 8.243.495.535 1.04 1.3 1.614 1.732a49 49 0 0 1-.904-6.582c-1.25-1.11-2.664-2.582-4.126-3.394m-183.115.563c-1.39 1.023-2.764 2.144-4.212 3.079-.174 1.783-.654 4.299-.608 5.996l-.137.044c.168.14.09.09.223.166 2.414-3.195 3.647-5.146 4.834-9.036-.066-.23-.007-.163-.1-.25m190.936 13.933c.686 4.201.272 5.452 2.608 9.332.34.564.697 1.358 1.187 1.79q-.01-3.39-.11-6.778c-.808-1.109-2.684-3.515-3.685-4.344m-199.21.675c-1.256 1.365-2.653 2.653-3.832 4.08-.03 1.565-.284 4.952.064 6.365l.065.067c.954-1.716 2.321-3.523 2.902-5.386.484-1.552.57-3.318.91-4.922zM233.363 96.34c.02 1.895-.234 5.333.255 7.087.284 1.02.832 2.006 1.238 2.984.184.442.336 1.298.633 1.638.023.026.053.047.08.071.229-.254.23-.597.276-.922.299-1.661.74-3.432.776-5.121-.972-1.893-2.018-4.013-3.258-5.737m-211.283.75c-1.037 1.576-2.122 3.136-3.113 4.741.22 1.981.584 3.936.834 5.912l.078.268c.41-.367 1.758-3.545 1.976-4.242q.243-.768.285-1.572c.085-1.358.196-3.823-.06-5.108m-3.186 16.61q-1.03 2.516-2.116 5.01c.207 2.05.892 4.08 1.451 6.058l.18.041c.558-1.336 1.403-4.12 1.353-5.573-.035-1.03-.299-2.093-.457-3.113-.121-.776-.147-1.692-.41-2.423m218.026.144c-.23 1.718-1.013 4.46-.817 6.054.207 1.682.906 3.346 1.229 5.023l.115.014.172-.46 1.6-5.24c-.521-1.56-1.371-4.042-2.3-5.391M18.17 131.339c-.436 1.871-1.054 3.86-1.26 5.768L19 142.52l.143-.083c.19-.842.211-1.706.326-2.559.445-3.313.402-3.293-.591-6.475-.198-.634-.36-1.502-.707-2.064m219.553.308c-.478 1.475-1.52 3.779-1.528 5.248-.007 1.088.289 2.249.457 3.321.098.628.032 1.501.277 2.07l.258-.569c.732-1.559 1.647-3.154 2.205-4.777-.347-1.3-1.06-4.271-1.669-5.293M20.05 148.469c-.25 2.011-.413 4.01-.564 6.03.861 1.607 1.849 3.133 2.827 4.67l.139.016c.01-1.64.299-4.783-.137-6.222-.229-.755-.747-1.451-1.087-2.166-.341-.718-.648-1.62-1.108-2.26-.02-.026-.047-.045-.07-.068m215.994-.025c-.87 1.675-1.77 3.342-2.56 5.057.212 1.61.28 3.211.267 4.834l.105.073.111-.112c.965-1.289 1.955-2.565 2.851-3.903-.046-1.078-.2-5.252-.66-5.847-.031-.04-.076-.068-.114-.102m-4.088 16.523c-2.957 3.693-3.957 4.509-4.414 9.555 1.404-1.073 2.811-2.202 4.077-3.437.017-1.636.6-4.741.337-6.118m-207.677.126q.078 2.774.126 5.547c.84 1.428 2.611 3.78 3.814 4.898-.669-3.65-.31-5.623-2.658-8.826-.382-.52-.801-1.208-1.282-1.618m7.304 15.604c.227 1.805.328 3.646.627 5.438.952 1.037 2.997 3.564 4.19 4.177-1.026-3.404-.728-5.485-3.404-8.255-.442-.458-.902-.988-1.413-1.36m9.219 14.469c1.361 3.49 1.21 4.852 4.552 7.093.65.435 1.355.979 2.058 1.306-1.606-4.218-2.074-6.138-6.34-8.29-.124-.063-.155-.07-.27-.11m174.123.573c-.73.539-1.482 1.021-2.304 1.408-.475.224-1.056.383-1.491.671-.878.582-2.317 4.48-2.927 5.627l.022.215c1.765-1.28 3.747-2.156 5.576-3.33.257-.946 1.263-3.783 1.124-4.591M52.401 207.924c2.841 5.27 2.602 5.327 8.534 7.259-2.196-2.964-2.693-4.598-6.312-6.294-.715-.335-1.471-.725-2.222-.965m150.786.703c-1.557.715-2.912 1.07-4.622 1.171-1.11 1.767-2.065 3.644-3.24 5.364l.116.05c1.942-.88 4.015-1.453 5.931-2.378.766-1.279 1.378-2.678 1.952-4.052l-.069-.146zM65.912 218.872c1.216 1.523 2.453 3.131 3.896 4.445 1.99.48 4.018.808 6 1.313-3.976-4.11-4.433-4.274-9.896-5.758m123.689.532c-1.65.531-3.302.589-5.023.56-.789.903-2.858 3.58-3.837 4.027l.056.113-.265.295.077.07c1.96-.573 4.138-.803 6.165-1.015.799-1.15 2.37-2.846 2.907-3.993zm-108.732 8.18c1.425 1.263 2.909 2.45 4.391 3.643 2.114.276 4.245.328 6.358.655-4.823-3.873-4.425-3.908-10.749-4.298m89.064.363c-.263 0-.564-.005-.81.1-1.211.516-3.408 2.823-4.683 3.732 1.401-.19 2.798-.385 4.208-.5q1.203-.055 2.404-.153c1.165-1.056 2.447-2.095 3.496-3.262-1.531.01-3.089-.025-4.615.083m-72.768 5.598c1.623 1.336 3.674 2.377 5.474 3.465 1.89-.227 3.83-.587 5.727-.683l.347-.141c-.636-.472-1.38-.784-2.092-1.126-3.58-1.718-5.583-1.601-9.456-1.515m55.64-.018c-1.853.69-3.67 1.724-5.454 2.591 2.155-.006 4.229.25 6.369.449.345.025.689.058 1.035.06 1.283-1.022 2.564-2.106 3.92-3.028-1.961.113-3.917-.221-5.87-.072m-16.577 2.742c-1.723.563-3.441 1.148-5.193 1.613 1.615.383 3.254.784 4.9 1.01 1.686-.181 3.33-1.323 4.886-1.972-1.555-.107-3.053-.455-4.593-.651m-17.127.135a42 42 0 0 0-3.447.996c1.15.38 2.234.783 3.343 1.274l1.16-.203q1.85-.381 3.716-.679c-1.017-.255-3.955-1.553-4.772-1.388"/><path d="M137.059 231.414c-3 1.14-5.178-.754-7.866-1.741-2.301-.846-4.202.553-6.244 1.468-4.045 1.812-5.845-2.2-9.373-2.93-2.831-.585-5.522 1.947-8.372 1.402-2.999-.573-4.564-3.905-7.392-4.775-2.93-.9-5.76 1.383-9.137-.393-2.516-1.324-3.511-4.636-6.08-5.736-2.731-1.17-6.337-.025-8.872-1.351-2.909-1.522-2.82-5.725-5.718-7.211-2.023-1.037-4.564-.937-6.705-1.765-2.861-1.106-3.361-3.837-4.495-6.358-1.265-2.813-3.724-3.13-6.326-4.137-5.101-1.976-2.986-6.13-5.04-9.728-1.334-2.335-4.968-2.682-6.789-4.699-2.31-2.558-.294-6.407-1.77-9.179-1.275-2.394-4.833-2.843-6.003-5.691-1.15-2.805.497-5.772.005-8.577-.5-2.842-4.076-4.177-4.934-6.974-1.056-3.44 1.945-6.563 1.096-9.65-.52-1.888-2.482-3.597-3.29-5.502-1.128-2.66.145-5.15 1.144-7.609 1.38-3.395.273-4.036-.968-7.042-1.555-3.767-.193-5.574 1.86-8.611.546-.806 1.093-1.66 1.28-2.632.49-2.537-1.681-5.48-1.108-8.503.587-3.098 3.487-4.437 4.71-7.079 1.007-2.177-.474-6.016.581-8.894 1.087-2.966 4.333-3.675 5.788-6.111.843-1.412.585-3.69.81-5.306q.111-.811.336-1.599.224-.787.558-1.535c1.382-3.042 4.862-3.06 6.607-5.523 1.332-1.882.98-5.22 2.767-7.558 2.189-2.862 6.245-2.954 8.024-5.334.68-.91 1.012-2.088 1.455-3.128 1.755-4.122 3.888-4.769 7.972-5.642.993-.212 2.013-.384 2.902-.903 2.276-1.33 2.718-5.234 5.343-6.657 2.476-1.344 5.693-.368 8.29-1.31 2.755-1 3.703-4.98 6.75-5.967 2.47-.8 5.326.546 7.858.128 2.76-.455 4.324-3.823 7.007-4.638 3.129-.951 6.314 1.821 9.23 1.11 2.234-.546 4.398-2.503 6.606-3.394l.168-.017c3.036-.275 5.258 2.373 7.964 2.43 2.69.056 5.048-2.486 7.76-2.427q.287.009.569.067c2.528.501 4.828 2.784 7.349 3.655l.165.055c2.273-.469 5.51-1.76 7.752-1.527 3.083.321 4.64 3.749 7.481 4.566 2.77.796 5.916-1.157 8.659.308 2.386 1.275 3.73 4.58 6.131 5.576 2.57 1.065 5.613-.127 8.194 1.549 2.523 1.638 3.21 5.304 5.945 6.595 1.267.599 2.77.76 4.115 1.141 3.272.927 4.568 2.892 6.031 5.768.458.901.915 1.795 1.622 2.533 1.752 1.83 5.028 2.127 7.153 4.434 2.018 2.19 1.894 5.527 3.473 7.928 1.726 2.624 5.306 3.247 6.958 6.106 1.318 2.28.715 5.094 1.687 7.486 1.074 2.643 4.13 3.945 5.322 6.616 1.519 3.404-.106 7.064.854 9.612.797 2.114 3.06 3.587 4.146 5.595 1.316 2.435.17 4.814-.53 7.237-1.126 3.897 1.255 5.511 2.93 8.621 1.818 3.377-.688 6.497-1.67 9.822.623 2.473 2.16 4.77 2.56 7.273.635 3.974-3.268 5.62-3.737 8.847-.413 2.841 1.878 5.769 1.394 8.781-.506 3.144-4.032 4.34-4.873 7.103-.747 2.46.37 5.348.013 7.903-.373 2.674-2.766 3.757-4.711 5.228-2.842 2.151-1.82 4.895-2.266 8.019-.754 5.29-4.6 3.862-7.075 6.733-1.835 2.129-.99 6.25-3.138 8.628-1.935 2.142-5.255 1.933-7.404 3.642-2.401 1.908-2.242 6.14-4.895 8.14-2.4 1.809-5.737 1.147-8.223 2.557-2.437 1.381-2.431 5.097-4.76 6.708-2.834 1.96-6.973.063-9.653 1.548-2.134 1.184-2.91 4.228-4.9 5.662-1.758 1.269-5.169.16-7.182-.14-4.02-.598-4.87 2.442-7.625 4.42-2.837 2.037-7.297-.504-10.399-1.008-2.066.716-3.923 2.431-5.851 3.491M120.22 25.624c-2.282 1.084-4.638 2.928-7.081 3.527-2.869.704-5.843-2.001-8.645-1.232-2.659.73-4.303 3.733-7.003 4.53-2.377.703-6.687-.842-8.609.197-2.369 1.28-3.379 4.511-5.903 5.627-2.671 1.182-6.158.033-8.705 1.53-2.33 1.37-2.584 5.11-4.948 6.418-2.63 1.455-6.19.888-8.555 2.92-2.07 1.777-1.887 5.133-3.857 7.014-2.472 2.36-7.045 2.265-8.312 5.944-.613 1.78-.681 3.882-1.553 5.55-1.42 2.72-5.668 3.43-6.973 5.895-1.398 2.64-.195 6.037-1.55 8.45-1.38 2.458-5.025 3.466-5.89 6.185-.898 2.818.583 6.175-.48 8.8-1.04 2.568-4.19 3.966-4.737 6.813-.537 2.79 1.862 5.789 1.064 8.731-.736 2.712-3.72 4.721-3.806 7.608-.08 2.769 2.457 4.957 2.402 7.642-.07 3.476-3.574 6.477-1.81 9.994.874 1.743 2.443 3.155 3.055 5.031 1.063 3.258-2.022 7.32-1.01 10.106.832 2.29 3.673 3.487 4.665 5.792 1.202 2.796-.49 5.725-.052 8.565.476 3.075 4.795 3.85 6.213 6.372 1.364 2.426.444 5.875 1.107 8.545 1.949 2.035 5.065 2.499 6.92 4.59 2.002 2.256 1.053 5.908 2.685 8.27 1.646 2.381 5.704 2.076 7.796 4.053 2.048 1.936 1.846 5.665 4.007 7.399 2.27 1.821 6.495.927 8.908 2.996 2.05 1.757 2.558 5.224 4.85 6.581 2.14 1.267 6.462-.144 9.051 1.454 2.816 1.74 4.217 6.115 7.862 6.194 2.142.047 4.392-.732 6.517-.368 3.069.526 4.742 4.196 7.587 4.794.859.18 1.797-.054 2.624-.296 1.443-.421 2.944-1.066 4.446-1.21 2.287-.22 5.909 2.294 7.786 3.477.729-.12 1.448-.24 2.15-.477 1.697-.572 3.801-1.897 5.622-1.764 2.55.186 5.08 2.922 7.644 2.26 2.334-.785 5.058-3.185 6.92-3.488 2.952-.48 5.98 2.363 8.936 1.38 2.803-.931 4.203-4.416 7.194-5.042 2.4-.502 5.13 1.492 7.509.68 2.926-.998 3.762-5.247 6.642-6.344 2.549-.97 5.748.485 8.179-.87 2.643-1.475 2.871-5.483 5.5-7.001 3.188-1.843 7.54-.006 9.702-4.376.833-1.684 1.271-3.767 2.394-5.282 1.902-2.565 6.319-1.988 8.257-4.515 1.764-2.299 1.09-5.73 2.775-8.046 1.61-2.214 5.436-2.394 6.617-4.85 1.226-2.553-.153-6.02 1.39-8.508 1.41-2.274 4.995-3.07 5.879-5.701 1-2.977-1.028-6.454.403-9.427 1.086-2.257 4.014-3.525 4.513-6.053.589-2.984-1.847-5.955-1.309-8.992.656-3.703 4.987-4.835 3.297-9.617-.627-1.773-1.768-3.622-2.04-5.478-.436-2.983 2.636-5.537 2.21-8.469-.363-2.495-3.204-4.638-3.775-7.193-.693-3.105 1.829-6.14 1.218-9.189-.473-2.362-3.596-4.314-4.565-6.709-1.075-2.658.212-5.639-.57-8.343-.884-3.05-4.221-4.51-5.617-7.238-1.31-2.562-.445-5.89-2.077-8.243-1.58-2.276-4.684-2.935-6.357-5.183-.607-.815-.984-1.774-1.303-2.732-1.495-4.492-1.129-5.418-5.707-7.573-4.54-2.137-4.196-2.605-6.346-6.718-.405-.776-.858-1.538-1.533-2.112-2.136-1.813-5.478-1.319-7.803-2.864-2.338-1.553-3.062-4.778-5.372-6.233-2.264-1.426-5.4-.514-7.842-1.48-2.74-1.082-3.85-4.413-6.47-5.626-2.508-1.161-5.67.587-8.333-.262-2.612-.834-4.37-3.393-6.87-4.504-3.812.236-6.873 2.319-10.524.498-1.83-.913-3.422-2.131-5.402-2.73-2.465.572-4.984 2.162-7.508 2.247-2.491.082-5.69-2.61-7.695-2.322"/><path d="M129.264 223.737c-26.382.026-49.765-8.874-69.076-26.92-2.752-2.573-5.19-5.34-7.595-8.235-13.283-15.981-21.628-35.958-22.315-56.827q-.036-1.182-.044-2.365-.007-1.183.014-2.366t.072-2.365.129-2.363.187-2.358.245-2.354.301-2.346.36-2.339.416-2.329.473-2.318.53-2.306.585-2.293q.307-1.142.642-2.277.334-1.135.697-2.261t.752-2.243.806-2.225.86-2.204q.445-1.096.915-2.182t.967-2.16 1.02-2.134q.523-1.061 1.072-2.11.548-1.048 1.123-2.082.574-1.035 1.173-2.055t1.223-2.025 1.273-1.995 1.32-1.963 1.368-1.93 1.415-1.897q.72-.939 1.461-1.86t1.506-1.825 1.55-1.788 1.593-1.75q.713-.753 1.441-1.492.729-.74 1.472-1.462.744-.724 1.503-1.431.76-.707 1.533-1.398.774-.691 1.563-1.366.788-.674 1.59-1.331.803-.658 1.62-1.298.816-.64 1.646-1.263t1.672-1.228 1.699-1.192q.855-.587 1.723-1.155t1.748-1.119 1.77-1.081 1.794-1.044 1.815-1.005 1.836-.966 1.857-.927 1.875-.887 1.894-.847 1.912-.807 1.928-.766 1.944-.725 1.96-.683 1.972-.642 1.987-.599 1.998-.557 2.01-.514 2.021-.472 2.03-.428 2.04-.386q1.02-.182 2.046-.342t2.053-.298c4.122-.571 8.246-.794 12.401-.918q.292-.01.584-.014c24.654-.301 50.416 9.156 68.178 26.443q.878.85 1.734 1.721t1.69 1.764 1.647 1.805 1.601 1.846 1.555 1.885 1.507 1.922 1.46 1.96 1.41 1.995q.692 1.007 1.36 2.03.667 1.024 1.309 2.063t1.257 2.095 1.206 2.126q.589 1.07 1.151 2.154.563 1.085 1.099 2.183.535 1.098 1.043 2.209t.989 2.234.932 2.258q.452 1.136.876 2.281t.82 2.302.762 2.322.704 2.34.645 2.356q.309 1.182.587 2.372.279 1.189.528 2.385.25 1.196.469 2.398t.408 2.409.349 2.418q.16 1.212.289 2.426t.228 2.433.168 2.438q.069 1.22.107 2.44.038 1.221.046 2.443c.322 25.01-9.918 48.12-27.288 65.869q-.84.857-1.699 1.693t-1.739 1.651-1.78 1.608q-.899.793-1.817 1.564-.919.771-1.856 1.519t-1.893 1.473-1.928 1.426-1.963 1.378-1.996 1.33-2.028 1.28q-1.022.627-2.059 1.23-1.037.602-2.088 1.179t-2.117 1.127-2.143 1.076-2.17 1.022-2.194.969q-1.103.47-2.217.915-1.114.443-2.239.86-1.124.416-2.259.804t-2.278.75-2.296.692-2.312.637-2.327.579-2.341.522q-1.174.247-2.353.465t-2.364.406q-1.184.189-2.373.349-1.188.16-2.38.29t-2.387.231-2.392.173-2.396.115-2.397.055m10.034-148.05c-.886.466-1.993 1.427-2.604 2.227l-.061.055.061-.055c.934-.282 2.055-1.44 2.604-2.227l.059-.05zm-27.28.82.045.078c.164.31.338.57.591.816.892.867 2.223 1.648 3.49 1.62-.27-.415-.989-.572-1.433-.8-.932-.478-1.787-1.046-2.648-1.636zm-2.888 40.844.131.137.114.131-.114-.131zm-1.349.4.054.182.165.184-.165-.184zm14.057.563-.058.186zl.144-.063zm-1.963.311-.095.107zl.13-.144zm.675.186-.05.188zl.2-.166zm89.956 9.02c1-1.065 1.917-2.366 3.17-3.146-.723 1.468-1.737 3.663-2.863 4.8-.333-.66-.65-1.466-1.393-1.746-1.452-.546-2.42 1.136-3.591 1.584-.263.101-.334.045-.576-.056-.204-1.388-1.178-1.509-1.917-2.507-.724-.98-1.045-2.19-1.792-3.184l-.12-.16c-1.806 3.669-4.713 7.096-7.397 10.183 4.425.155 8.868.086 13.296.106 4.736-.03 9.48.033 14.214-.097-1.936-2.035-6.287-6.544-7.108-9.006-.582-1.747-.681-3.643-1.215-5.413l-.056-.184c-.65.754-1.095 1.68-1.604 2.531-.775 1.294-1.617 2.349-2.681 3.418.435 1.083.83 2.008 1.633 2.877m-78.131 1.831-.124.083zc2.863-1.007 5.525-1.481 8.556-1.581 2.093-.07 5.197.204 7.142-.454l-.049-.074-.476.002c-2.574.185-5.089-.336-7.634-.61-1.715-.186-4.088.398-5.596 1.252-.685.388-1.324.976-1.943 1.465m-20.102 3.56-.346-.002c-.137.296-.048.328.055.623.254-.069.395-.04.545-.266-.08-.138-.137-.243-.254-.355m8.668 30.884c-.973.12-4.981.881-5.63 1.382 1.791.343 4.06-.531 5.63-1.382l.058-.075zm50.986 6.349-.107.033c-1.43.463-2.816 1.195-4.21 1.765-3.82 1.562-7.329 1.16-11.071-.431-1.378-.586-2.904-1.643-4.412-1.728-1.938-.11-3.22 1.518-4.882 2.186-.907.366-1.96.506-2.935.522-2.182.036-6.292-.228-8.381-.8-1.364-.372-3.761-1.765-4.972-1.775-3.503-.029-6.806 3.102-10.662 2.803-1.45-.112-2.933-.405-4.29-.934-2.038-.793-4.383-2.453-6.63-2.432-3.522.032-7.534 3.633-11.68 3.477-4.453-.167-9.017-4.504-13.493-2.266l1.502 1.526c.842.793 1.667 1.58 2.632 2.225 1.862 1.246 7.415 3.523 9.69 3.435 2.88-.112 4.734-1.952 8.196-1.843 1.382.044 2.786.166 4.137.471 3.152.712 6.352 2.17 9.64 1.852 3.504-.338 6.793-3.194 9.861-3.229 1.563-.018 3.265 1.153 4.72 1.714 1.85.713 3.833 1.362 5.819 1.536 3.44.3 5.22-1.443 8.237-2.437 1.335-.44 2.79-.538 4.186-.556 3.289-.043 6.11 2.95 9.4 2.244 2.378-.51 7.86-5.187 9.533-7.13.096-.113.1-.123.172-.228l.072-.05zM127.908 38.37c-.66 2.453-.47 6.673-.605 9.329-.128 2.523-.447 5.086-.474 7.606-.004.384.004.731.134 1.095.55.325 3.355.592 3.989.415.219-.062.276-.164.388-.365.303-.547.71-9.7.72-10.972 1.299 2.536 2.652 5.049 3.933 7.593.66 1.31 1.17 2.862 2.04 4.038.256.346.579.482.978.609 1.332.424 2.937.3 4.314.266a.86.86 0 0 0 .218-.447c.349-2.159.267-4.553.406-6.746.17-2.69.393-5.378.493-8.073.03-.792.144-1.642.057-2.43-.026-.237-.034-.357-.243-.498-.864-.582-3.006-.484-4.064-.547-.37 1.935-.367 3.955-.5 5.92-.112 1.645-.352 3.342-.286 4.989-1.251-2.244-2.446-4.526-3.672-6.785-.687-1.266-1.323-2.818-2.294-3.891-.374-.412-.771-.6-1.303-.748-1.318-.369-2.868-.393-4.229-.358m-7.337.559c-1.904.21-10.396.87-11.288 1.558-.275.994 1.804 16.368 2.354 17.507.597.486 1.632.281 2.367.206 2.869-.29 6.968-.588 9.659-1.46-.036-.775-.08-1.53-.2-2.296-.064-.473-.087-.933-.354-1.342-.59-.413-6.12.531-7.291.571-.124-.98-.24-1.956-.456-2.92 2.112-.267 4.51-.385 6.526-1.097.02-1 .157-2.816-.612-3.571-.4-.394-.884-.441-1.416-.405-1.599.108-3.291.605-4.896.833l-.352-2.72c1.375-.162 6.29-.469 7.09-1.171.295-.699.158-2.382-.113-3.082a1.2 1.2 0 0 0-.348-.508c-.255-.097-.397-.14-.67-.103m34.692 3.726c-2.388.45-4.339 1.642-5.729 3.658-1.592 2.311-2.323 5.752-1.833 8.515.377 2.13 1.775 3.998 3.547 5.194 1.925 1.299 4.358 1.96 6.658 1.505.722-1.188 1.076-2.44 1.466-3.767-.543-.016-1.116.006-1.653-.07-1.619-.158-3.173-.508-4.266-1.834-.83-1.01-1.137-2.334-.999-3.619.168-1.566.923-3.208 2.162-4.203a4.2 4.2 0 0 1 3.265-.896c1.603.224 2.85 1.19 4.1 2.133q.541-.665 1.003-1.386t.84-1.49c-1.493-1.985-4.046-3.332-6.488-3.677q-1.033-.136-2.073-.063m-57.107.871c-2.023.469-8.004 2.59-9.733 3.542.688 2.786 1.733 5.559 2.605 8.296.692 2.175 1.787 6.47 2.876 8.33 1.535-.314 3.088-.694 4.443-1.51l-.047-.204c-.252-1.078-1.806-4.964-1.547-5.697.177-.112.35-.226.535-.325.634-.143.856-.115 1.405.227 1.931 1.206 3.673 2.904 5.441 4.343.984-.33 4.382-1.268 4.885-1.953-.025-.429-.277-.688-.58-.967-1.413-1.3-4.512-3.07-6.223-4.29 1.23-1.038 2.153-2.086 2.29-3.773.126-1.555-.408-3.233-1.465-4.389-.978-1.07-2.378-1.626-3.815-1.664a8 8 0 0 0-1.07.035m68.951 3.29c-.837 1.319-6.763 15.417-6.716 16.428.813.989 3.034 1.673 4.236 2.079 1.186-2.032 1.828-4.32 2.891-6.413 1.16.499 5.309 2.141 5.778 3.074.249.495-.009 1.044-.222 1.498-.745 1.589-1.623 3.069-2.209 4.737.805.515 3.244 2.018 4.139 1.933.149-.015.255-.062.39-.112 1.077-1.588 7.213-13.626 7.445-15.023-.697-1.151-3.57-2.31-4.845-2.751q-1.369 3.015-2.682 6.056c-2.147-.995-4.383-1.98-6.385-3.244.599-1.32 2.523-4.87 2.424-6.227-.512-.962-2.252-1.599-3.277-1.893a3.5 3.5 0 0 0-.967-.142m-83.312 2.282-6.265 3.508c-1.113.629-2.405 1.224-3.387 2.043-.301.251-.463.399-.571.77.662 1.802 1.734 3.528 2.599 5.246 1.133 2.253 2.256 4.5 3.438 6.73.555 1.045 1.076 2.227 1.806 3.16 1.188-.5 3.211-1.287 4.001-2.32-.004-.597-.452-1.294-.728-1.82-.633-1.235-1.45-2.528-1.95-3.81 1.69-1.39 3.707-2.25 5.425-3.575-.512-1.159-1.156-2.415-2.078-3.301-1.791.907-3.399 2.115-5.254 2.904-.484-.828-.977-1.59-1.591-2.327 2.229-1.351 4.8-2.575 6.808-4.225-.413-.86-1.097-2.685-2.107-2.963-.047-.013-.097-.013-.146-.02m40.921 15.224c-16.557.766-32.476 7.413-43.751 19.757-8.957 9.804-14.883 22.46-15.814 35.778 7.412-2.433 7.317.766 13.487 1.023 3.424.144 6.377-1.89 9.755-1.963 3.422-.075 6.479 2.107 9.911 1.983 1.414-.05 2.628-.543 3.992-.797.376-.07.875-.041 1.086-.401.008-.014.08-.263.081-.27.344-1.014 1.86-2.013 2.553-2.867-.12-1.489-.056-3.037-.265-4.51-.56-.886-1.062-1.757-1.208-2.816-.212-1.525-.123-3.169-.133-4.71l-.011-8.856c-.01-7.004-.277-14.057-.105-21.053 2.737.163 4.485-.267 6.803-1.738l3.69 1.552c1.137-.746 2.263-1.536 3.436-2.222 1.04 1.011 2.61 1.502 3.903 2.116 1.004-.931 2.1-2.002 3.24-2.765 1.989.477 3.388.783 5.407.092 1.227.473 2.18 1.093 3.222 1.891l1.031-.818c.645-.468 1.276-.978 2.01-1.297 1.581.52 2.746 1.496 4.06 2.48.572-.27 1.157-.526 1.705-.844.67.09 1.302.12 1.978.111.932.7 1.875 1.34 2.886 1.92.994-.638 1.991-1.362 3.054-1.873 1.612 1.358 3.509 1.608 5.553 1.686-.88 7.538-1.39 15.126-2.074 22.684-.286 3.163-.404 7.558-1.221 10.51-.42 1.514-1.466 2.817-2.16 4.215.12 1.361.58 2.655.74 4.011 1.086.846 1.489 2.144 1.89 3.418 1.78.578 3.768 1.314 5.638 1.423 2.396.139 6.936-1.965 9.423-2.736 2.323.653 6.822 2.374 8.971 2.482.83.042 1.63-.118 2.424-.342 2.119-.596 4.147-1.499 6.246-2.165 1.734.61 3.437 1.265 5.243 1.631-.099-2.511-.56-5.06-1.1-7.513q-.124-.553-.258-1.104t-.279-1.1-.3-1.094q-.154-.545-.32-1.088-.165-.543-.34-1.082-.175-.54-.36-1.075-.186-.536-.382-1.069t-.401-1.06-.421-1.054-.44-1.045q-.226-.52-.461-1.037t-.48-1.028-.499-1.019q-.254-.506-.518-1.009t-.537-.999q-.273-.497-.556-.989-.282-.491-.574-.978-.292-.486-.593-.967-.3-.48-.61-.956-.31-.475-.629-.944-.319-.47-.646-.932-.327-.464-.664-.92-.336-.457-.68-.907-.345-.451-.698-.895t-.715-.88-.731-.868-.747-.854-.763-.839-.779-.825-.794-.81-.81-.794-.823-.78q-.59-.55-1.193-1.085t-1.219-1.055-1.245-1.024-1.27-.993q-.642-.488-1.295-.96-.654-.472-1.319-.928t-1.341-.894q-.677-.44-1.364-.861-.686-.422-1.384-.826-.697-.405-1.404-.792t-1.424-.756-1.443-.72-1.46-.684q-.734-.332-1.476-.647-.742-.314-1.492-.61t-1.508-.572-1.52-.535-1.535-.496-1.545-.458q-.776-.22-1.557-.419-.781-.2-1.567-.38t-1.576-.34-1.584-.301q-.793-.141-1.59-.262-.798-.12-1.597-.221-.8-.101-1.602-.182t-1.606-.141-1.61-.101-1.61-.06-1.612-.021-1.612.02-1.612.06q-.298.012-.596.038m-4.435 11.388c1.131 2.211 3.323 2.564 4.827 4.278.727-1.15 1.48-2.293 2.172-3.464l.105-.447-.125-.019c-.768 1.157-1.56 2.023-2.577 2.96-1.59-.983-2.993-2.468-4.402-3.308m22.2.284c-2.41 2.283-5.535 4.192-7.304 7.074l.025.2c2.717-1.261 5.218-3.335 6.719-5.952.173-.301.503-.773.555-1.104.012-.072.003-.146.005-.219m-25.39.113c.355.918.973 1.761 1.549 2.552 1.595 2.192 3.107 3.911 5.591 5.075l.039.015c-.974-2.453-4.877-6.253-7.179-7.642m31.664.006c-1.258.68-2.559 1.296-3.967 1.594l-.07.173.265.224c1.523-.13 2.685-.814 3.868-1.742l.038-.233zm-18.666.325c.105 1.026.425 2.03.684 3.025.762 2.929 1.493 5.566 1.31 8.621 4.435-2.998 10.273-3.817 15.493-2.799 1.736.339 3.312.927 4.873 1.748l.304.102c.391-.376.337-1.217.38-1.74-3.986-1.646-9.792-2.068-14.021-1.213-1.971.397-3.823 1.117-5.719 1.765-.54-2.353-1.273-8.151-3.304-9.509m2.174.274c.698.874 1.975 2.278 3.129 2.436q.051.006.102.006c-.837-.84-2.1-2.051-3.231-2.442m20.028 1.025c-1.781.597-6.314 2.634-7.262 4.267-.022.036-.035.077-.053.116.11.183.19.263.371.376 2.689-.87 5.033-2.922 7.22-4.668zm-43.077.133c1.016 1.587 2.855 3.772 4.788 4.207q.524.114 1.06.123c-.733-1.83-3.852-3.532-5.595-4.243-.127-.052-.14-.054-.253-.087m17.978 2.344c-.987 1.999-1.366 4.191-2.3 6.19-4.83-2.157-7.865-3.272-13.258-2.526-1.1.152-2.567.349-3.585.76-.295.119-.52.433-.616.727-.123.376-.032.746.054 1.117l.166.152c5.226-1.87 11.452-1.912 16.525.49.63.297 1.237.645 1.832 1.008.153-1.67.492-3.305.82-4.948.184-.918.468-1.898.482-2.835zm15.852.171c-.819.217-1.912.46-2.554 1.036l.055.122.424-.023c.741-.056 2.168.033 2.754-.359.083-.332.055-.34-.09-.657-.247-.126-.31-.126-.59-.119m-34.719.626-.223.314c.206.04.352.023.557.002.811-.085 1.675.326 2.39.68l.158-.125c-.312-.477-.727-.68-1.273-.804a4.8 4.8 0 0 0-1.608-.067m8.05.039c.52.642 2.692 1.003 3.572 1.24-.328-.594-.71-.904-1.373-1.084-.658-.179-1.52-.233-2.199-.156m32.236.863c.847.597 2.581.67 3.562.535.245-.034.488-.097.728-.16-.482-.123-3.837-.428-4.29-.375m-19.365.19-.014.211c-.108 1.53-2.076 6.41-1.426 7.343.221.319.628.427.976.547.553-.126.968-.212 1.293-.724.892-1.404.383-3.925-.023-5.44-.18-.67-.371-1.386-.806-1.937m12.936 5.075c-4.26.267-8.891 1.186-11.837 4.532q-.27.303-.528.618c.238.332.489.66.705 1.006 3.127-3.2 6.934-4.675 11.414-4.735 2.78-.037 5.333.525 8.004 1.235.512.153 1.034.293 1.54.465-.784 3.128-1.617 6.223-2.314 9.374.535.624 1.059 1.275 1.646 1.85q.802-6.03 1.911-12.01c-3.109-1.72-7.002-2.482-10.54-2.335m-26.651.125c-1.563.089-6.539.422-7.611 1.522-.253.26-.368.476-.365.844.002.206.038.337.123.517 1.007.221 2.572-.728 3.583-.972 3.403-.818 7.542-.46 10.798.781 2.035.825 3.425 1.868 4.82 3.562.248-.41.508-.817.728-1.242-2.742-3.043-6.525-4.786-10.623-5.003a14 14 0 0 0-1.453-.009m25 2.706c-.425 1.122-1.138 4.253-.544 5.336.091.166.209.246.368.335.253-.01.52-.164.7-.343.035-.035.063-.076.094-.114.34-1.181 1.762-3.499 1.164-4.639a1.1 1.1 0 0 0-.746-.556c-.327-.056-.704-.032-1.036-.02m-29.842.117c-.538.265-1.088.514-1.595.835.669 3.145.679 6.473-1.136 9.262l-.07.106c.139-1.96 1.085-7.156-.16-8.718l-.163.043c-.069.197-.148.376-.168.585-.424 2.868-.239 5.949-.125 8.838.97-1.152 2.294-1.875 3.233-3.055.254-1.654 1.1-6.476.184-7.896m1.688.018c-.144 1.092.037 2.199.063 3.295.032 1.307-.277 2.512-.636 3.758.511-.25 1.028-.486 1.511-.788 1.002-1.044 1.423-3.05 1.362-4.475-.029-.667-.23-1.253-.564-1.826zm2.622-.015c.188 2.037.272 3.775-.23 5.78.555-.18 1.134-.337 1.663-.586.627-1.128 1.299-2.61.968-3.925-.116-.462-.412-.884-.84-1.106-.485-.252-1.032-.171-1.561-.163m28.31-.08c-.279 1.893-.907 3.743-1.018 5.653.552.184 1.165.46 1.756.393.063-.92.114-1.855.299-2.76.18-.884.73-2.092.699-2.959-.396-.356-1.224-.303-1.736-.327m-4.246.219c-.639.146-1.242.295-1.85.548-.397 1.234-.546 2.979.115 4.17.063.114.085.135.159.222.221-.028.848-.03.98-.192.463-.57 1.116-3.845 1.001-4.625-.227-.17-.094-.121-.405-.123m-21.426.102c.403 1.614.273 3.037-.04 4.657a31 31 0 0 1 1.877-.22c.547-1.478.72-2.473.461-4.042a24 24 0 0 0-2.299-.395m28.3-.044q-.583 3.087-1.076 6.188c.333.193.681.461 1.074.482l.144-.155c.34-2.137.833-4.085 1.516-6.138-.55-.135-1.1-.28-1.659-.377m-9.599.545c-.726.26-1.306.564-1.864 1.1-.299.941-.643 2.438-.108 3.342.082.14.196.254.305.371.489-.005.948.015 1.41-.167.339-.476.592-3.803.596-4.51-.181-.166-.071-.113-.338-.136m12.091 0c-.426 2.28-1.144 4.506-1.473 6.803.401.373.806.819 1.25 1.138.338-1.32.565-2.662.853-3.992.254-1.177.609-2.357.752-3.553zm-28.088.021c.066 1.398.303 2.818.294 4.213.434.048.94.163 1.353.003l.248-.294c.24-.832.757-2.074.301-2.9-.284-.515-.797-.703-1.338-.833q-.427-.102-.858-.189m2.678.91q.097 1.81.114 3.622c.413.072 1.022.298 1.367.045.011-.008.017-.023.026-.035.225-.862.65-1.91.106-2.73-.31-.47-1.11-.704-1.614-.902m10.597.53c-.808.565-1.82 1.157-1.994 2.215-.13.791.288 1.707.617 2.412l.26.107c.372-.2.528-.407.661-.813.229-.697.776-3.3.574-3.865zm-8.428.561c.022 1.126-.056 2.261-.02 3.382.432.206.881.47 1.362.527l.13-.144.44-2.154c-.58-.574-1.156-1.285-1.912-1.61m5.346 2.284c-.477 1.067-.323 1.951.125 3.004.031.076.071.148.107.222.455-.834.434-1.605.172-2.508-.09-.31-.154-.5-.404-.718m-2.169.509c.189.42.323.815.685 1.112-.157-.514-.204-.82-.685-1.112m-.669.4c-.172.43-.331.863-.566 1.264.312.442.58.856 1.02 1.18l.266-.2c-.255-.803-.641-1.37-.72-2.244m-9.273.577c-3.794.6-7.732 2.515-10.033 5.685-.845 1.163-1.038 2.14-1.11 3.547 2.022-2.999 4.543-5.564 7.993-6.836 2.952-.899 5.534-1.017 8.326.457 1.624.857 2.904 2.124 4.374 3.193l.415-1.174c-1.508-2.458-3.71-3.972-6.512-4.638-1.083-.257-2.345-.406-3.453-.234m19.052.507c-2.255.276-6.294 1.73-7.71 3.559-.546.706-.404 1.35-.273 2.18q.024.143.051.283c2.2-2.348 5.09-3.722 8.33-3.848 2.148-.083 4.386.472 6.305 1.425 2.744 1.431 4.391 3.2 5.674 6 .243-.887.42-1.767.522-2.682-1.762-3.225-4.867-5.37-8.36-6.389-1.484-.433-2.995-.642-4.539-.528m-20.17 7.621c-2.647.327-5.168 1.955-6.8 4.042-.377.482-.707 1.015-1.02 1.54 3.466-.943 5.957-.687 9.222.768 1.749.776 3.547 1.649 5.48.912a5.2 5.2 0 0 0 1.133-.625c-.54-2.36-1.435-4.18-3.531-5.499q-.25-.156-.51-.293t-.53-.252q-.27-.116-.549-.21t-.563-.167-.575-.122-.582-.077-.587-.031-.588.014m22.392.379c-2.756.29-5.209 1.49-6.985 3.657-.568.692-1.369 1.834-1.31 2.761.021.324.101.587.369.793.708.545 2.085.264 2.893.052 1.295-.34 2.444-1.144 3.674-1.653 3.29-1.328 5.883-1.349 9.322-.576-.729-1.949-2.518-3.447-4.391-4.285-1.107-.496-2.355-.806-3.572-.749m-11.498.464c-.452.362-.671.605-.728 1.195-.243 2.556.349 3.777-1.404 6.044.542.286 1.748 1.48 2.132 1.558.154.031.428-.047.575-.091l2.185-.95c-1.542-2.596-1.508-4.05-1.196-6.929.044-.41.048-.64-.382-.805-.317-.122-.848-.048-1.182-.022m14.897 5.792c-4.055.312-5.16 1.59-8.63 2.91-1.585.601-3.22.891-4.9 1.043l-1.11-.591c-1.446.39-2.83.382-4.292.047-4.368-.999-8.498-4.402-13.204-3.07-1.144.325-2.215 1.078-2.788 2.139a7 7 0 0 0-.303.668l.224.001c2.701.004 5.272-.55 7.995-.217 4.381.537 6.635 2.954 11.384 2.1-.218 2.648-.97 4.764-3.018 6.554-.435.381-.9.705-1.497.682-.17-.162-.19-.108-.187-.304.01-.51.546-.92.879-1.249-1.047-.043-2.507-.575-3.325.216-.664.641-1.496 1.936-1.415 2.885.022.248.074.357.213.555.292.103.5.153.796.006.364-.18.681-.585.958-.874 1.104-.238 1.767-.025 2.714.585 1.72 1.109 2.799 2.306 4.907 2.757 1.102-.29 1.951-.747 2.896-1.374a10 10 0 0 0-.914-1.194l-.01-.218.536-.234.07-.187c-.28-.177-.532.02-.664-.153l.175-.267-.074-.1c-.16-.221-.308-.375-.294-.662.175-.18.21-.205.452-.272l-.047.12c-.05.13-.09.263-.13.395.26.064.206.092.477-.034l.11-.234c.622-.04 1.073-.05 1.572.368.071.178.152.25.077.444-.185.481-.697.653-1.127.852-.228.106-.136.052-.336.209 1.078-.111 2.899-.997 3.79-.252.363.304-.112.576.547.65.298.033.625-.046.839-.265.403-.414.45-1.04.39-1.585-.093-.815-.483-1.764-1.15-2.275-.886-.68-2.917-.27-4.002-.178.644.483 1.444.908 1.583 1.764-.086.176-.076.273-.277.34-.458.152-.978-.062-1.372-.297-1.033-.616-1.553-1.948-1.791-3.07-.308-1.455-.322-2.953-.7-4.394 5.523 1.43 8.269-1.913 13.45-2.38q1.183-.106 2.364.007c.96.095 3.448.76 4.264.53.097-.355.006-.642-.187-.964-.631-1.051-1.865-1.456-2.998-1.688a12.2 12.2 0 0 0-2.92-.245m-24.06 5.511h.15zm17.763 0h.137zm-27.008.126h.14zm9.95.228.04.081zm84.914-.075c-.981 1.02-2.374 2.7-2.386 4.16-.023 2.812 2.515 4.506 3.784 6.687.089-.007.214.002.29-.043.503-.373 2.389-1.569 2.373-2.14-.003-.085-.055-.237-.082-.321-.255-.168-.117-.14-.388-.105-.376.049-.78.157-1.11-.075-.922-.654-2.252-2.725-2.385-3.837-.164-1.367.521-3.064-.096-4.326m-68.745.222h.151zm13.41-.01c-2.219.169-4.45.213-6.664.398.975 1.083 1.848 2.33 1.771 3.865-.054 1.074-.483 1.572-1.203 2.312 2.37-.222 4.058-.581 5.662-2.489a19 19 0 0 0 1.62-2.266c-.372 1.813-.726 3.392-2.403 4.46a7 7 0 0 1-1.155.58c-1.76.51-4.729 1.023-6.563.926-.488-.026-1.447-.289-1.772.118l.04.242c1.312.849 8.076.834 9.703.484 1.08-.233 1.97-.774 2.57-1.717.947-1.49.757-3.283.344-4.91-.185-.732-.465-1.528-1.101-1.98a2.3 2.3 0 0 0-.849-.023m-40.856.187.124.04zm10.07.323h.14zm21.447-.044c-1.605.424-2.637 1.085-3.875 2.16 1.404.858 2.076 2.505 3.597 3.385.812.222 1.606.41 2.372-.055.606-.368.956-.987 1.107-1.665.203-.917.091-2.015-.445-2.804-.32-.471-.842-.91-1.415-1.018-.434-.08-.905-.04-1.341-.003m-20.677.226.095.067zm1.858-.058h.15zm-13.903.307.099.038zm26.448-.056h.18zm-92.37.176c-1.678 2.011-2.368 3.986-2.526 6.588.347-.449.7-.894 1.034-1.353 1.429-1.656 2.764-3.16 3.733-5.147-.75-.055-1.488-.11-2.24-.088m70.936-.028c-1.254.63-2.52 1.517-2.965 2.922-.165.52-.133 1.034.144 1.508.258.443.629.672 1.08.886l1.605.409c-.606-1.633-.614-2.756-.058-4.419.135-.401.328-.816.374-1.237zm1.366.013c-.714.89-.911 1.982-.778 3.105.1.842.431 1.738 1.137 2.256q.082.061.17.113t.181.094.19.075.197.053.202.032.204.01.204-.011.201-.034c.827-.177 1.429-.788 1.919-1.437l.092-.087c.583-.535 1.625-.987 2.032-1.615-.01-.402-.043-.643-.344-.932-1.292-1.245-3.896-1.6-5.607-1.622m-63.77.214c-.022 1.379.051 2.642 1.074 3.7.329.338.823.845 1.3.948-.155-1.787-.433-3.016-1.85-4.233q-.255-.217-.524-.415m60.069.096c-1.375.229-2.497.677-3.663 1.449l-.749 1.548c.205 1.372.62 2.572 1.18 3.84 2.933 1.274 5.89 1.163 9.013.774l2.6-.153-.146-.129c-.186-.16-.502-.485-.733-.555-.797-.244-2.118.178-3.01.086-.752-.077-1.497-.464-2.218-.68-1.4-.422-3.565-.63-3.728-2.502-.084-.973.55-2.148 1.191-2.86.22-.244.457-.472.694-.698l.017-.136c-.145.002-.304-.008-.448.016m-3.523.403h.146zm79.061 1.839q-.069.011-.138.026c-2.278.467-4.313 1.914-6.646 2.19-3.89.46-7.05-2.147-10.258-2.009-1.934.083-5.67 2.004-8.087 2.428a7 7 0 0 1-2.624-.028c-1.136-.223-3.989-1.627-4.766-.455-.201.305-.271.885-.353 1.243 2.088.771 4.365 1.803 6.597 2.018 3.036-.124 6.215-2.376 9.403-2.702 2.184-.223 5.82 1.95 8.385 2.11 3.501.217 6.299-2.334 9.686-2.194 1.706.071 3.457.677 5.093 1.148-.042-.768-.078-1.536-.16-2.301-1.991-.446-4.099-1.416-6.132-1.474M42.1 121.45c-1.125 1.135-1.992 2.566-2.955 3.841-1.978 2.618-4.834 6.137-7.265 8.206 5.781.304 11.645.103 17.434.084 3.324-.011 7.766.27 10.962-.22-.753-.64-1.402-1.386-2.065-2.115-1.066-1.12-2.263-2.182-3.259-3.359-.74-.874-1.365-1.858-2.057-2.772-.886-1.17-1.864-2.272-2.845-3.362-.977.907-2.602 2.644-2.977 3.94.116.828.634 1.407 1.122 2.055.737-.827 1.154-1.678 1.572-2.692.275.956.325 1.875.458 2.852-.741.8-1.602 1.497-2.315 2.314a10 10 0 0 0-1.186-1.31c.007-1.31-.216-2.506-1.154-3.489-.615-.644-1.396-1.148-1.979-1.813-.563-.644-.678-1.768-1.49-2.16m26.651.207q-1.856.383-3.639 1.03l-.015 2.178c4.451-1.408 6.024-1.28 10.36.33 1.317.49 2.6.845 4.017.808 3.466-.088 6.28-2.412 9.976-2.143 4 .292 6.043 2.746 10.451 2.113 1.278-.4 2.575-.977 3.888-1.213a11 11 0 0 0-.93-1.982c-1.337.44-2.7.944-4.112 1.067-3.528.306-6.76-2.307-10.38-2.209-3.485.095-6.475 2.244-10.082 2.003-3.263-.218-6.227-2.334-9.534-1.982m62.305 2.591.124.35c.34.123.652.161 1.008.198-.315-.358-.696-.374-1.131-.548m37.838.78q-.08.015-.16.033c-1.202.262-2.382.692-3.54 1.103-5.97 2.12-6.904 2.446-12.773-.44-.397.733-1.29 1.652-1.16 2.489.527.794 5.662 2.217 6.806 2.451 2.84.582 6.05-.775 8.704-1.718.854-.304 1.828-.74 2.742-.776 1.339-.055 2.995.629 4.267 1.032 1.616.54 3.34 1.244 5.054 1.34 3.299.185 5.923-2.655 9.157-2.578 1.208.03 2.461.433 3.614.775.058-.942.129-1.886.166-2.83-1.83-.185-3.933-.954-5.74-.796-2.908.254-5.4 2.315-8.403 2.263-3.068-.053-5.863-1.975-8.734-2.349m-99.815.265c-1.371.19-2.668.504-3.956 1.017.011 1.064.06 2.108.158 3.168 2.516-1.22 5.143-1.499 7.8-.562 1.561.55 3.07 1.315 4.702 1.632 4.039.784 7.187-2.337 11.088-2.172 4.363.184 7.257 3.498 11.906 2.145 1.299-.47 2.6-.988 3.918-1.397q-.377-1.525-.697-3.063c-1.6.548-3.272 1.297-4.943 1.544-3.648.539-6.91-2.465-10.644-2.336-3.469.12-6.404 2.453-9.932 2.166-3.298-.267-5.963-2.554-9.4-2.142m46.872 2.007c-3.043.303-5.884.175-8.923.057 3.17.922 6.198.918 9.469.907 2.637.118 5.073.467 7.57 1.37-2.814-2.346-4.52-2.663-8.066-2.343zm-1.273 1.877c-2.587.165-4.732.534-7.026 1.778 1.306-.257 2.606-.592 3.925-.775 3.19-.441 7.738-.457 10.746.69 1.947.742 3.735 2.058 5.895 2.03 2.247-.028 4.52-1.487 6.664-2.109 2.05-.594 4.157-.685 6.276-.728.684.007 1.373.014 2.054.089.936.102 3.804.847 4.54.53-1.225-1.243-5.493-1.558-7.184-1.566-2.496-.01-5.028.228-7.443.87-1.526.406-3.298 1.526-4.868 1.494-1.75-.035-3.408-.927-5.059-1.424-2.582-.776-5.835-1.062-8.52-.88m72.576.19c-2.412.986-6.105 2.876-8.736 2.627-1.765-.167-3.592-.858-5.275-1.395-1.108-.353-2.389-.944-3.557-.897-1.364.054-2.813.789-4.096 1.24-6.163 2.168-8.093 1.268-14.002-.654q-.467 1.658-.797 3.348c1.336.212 2.64.412 3.932.826 5.246 1.8 6.58 1.473 11.744-.438 1.188-.44 2.36-.91 3.645-.934 3.363-.061 6.892 2.564 10.235 2.216 3.761-.392 7.117-3.169 10.982-2.508.072-.946.168-1.896.206-2.843-1.22-.198-3.087-.819-4.281-.588m-117.889.43c-1.408.168-2.694.435-4.022.937.167 1.154.316 2.312.575 3.45 6.843-2.617 7.873 1.553 13.245 1.306 3.314-.151 6.233-2.346 9.566-2.212 5.767.232 6.845 4.01 13.552 1.41 1.24-.47 2.465-.903 3.751-1.235-.186-.95-.309-1.934-.894-2.733-.142-.052-.226-.11-.379-.084-2.183.364-4.06 1.7-6.362 1.78-3.564.125-6.619-2.826-10.272-2.635-3.338.174-6.052 2.709-9.53 2.414-3.23-.274-5.89-2.65-9.23-2.398m77.975 1.913c-.295.64-.621 1.024-1.171 1.452-.08 2.837.09 5.674.176 8.51.043 1.394.184 2.93.004 4.316-.063.48-.144.874-.465 1.244-.371.197-.686.253-1.108.25-1.262-.009-2.56-.414-3.794-.656q-1.843-.343-3.703-.574c-5.81-.724-11.554-.586-17.364.061-1.468.164-7.589 1.325-8.341 1.12-.35-.094-.697-.291-.855-.633-.931-2.016 1.238-13.51-.465-14.68-.292.112-.285.122-.397.402-.37.919-.169 2.258-.125 3.244.018 2.31-.039 4.654-.304 6.95-.177 1.532-.694 3.145-.61 4.688.018.316.214.588.427.808.534.552 1.323.885 2.023 1.174 1.76-.36 3.485-.862 5.254-1.182 9.282-1.68 19.314-2.142 28.262 1.25 1.048-.395 2.582-.79 3.167-1.831.095-1.919-.157-3.872-.219-5.795q-.09-3.733-.233-7.463c-.034-.838.042-1.853-.159-2.655m-33.196 1.219c-.021.293-.101.441.092.679l.576.137c-.096-.35-.087-.538-.442-.727-.071-.038-.15-.06-.226-.089m1.268-.01-.011.533c.23.198.35.138.644.149-.011-.195.035-.317-.116-.46-.167-.156-.302-.174-.517-.221m1.152.048.098.457c.275.153.457.129.761.118-.281-.373-.415-.444-.859-.575m24.144-.003-.108.487.133.149.651.025c-.16-.339-.19-.441-.537-.612-.044-.021-.093-.032-.139-.049m-27.468.332.045.263.205-.109-.075-.24zm4.91-.028-.191.202.311-.133.18-.226c-.245.082-.152.02-.3.157m1.393.038-.024.112.097-.007.032-.131zm16.781-.189.143.349c.241.096.46.161.715.21-.157-.307-.17-.403-.52-.507-.095-.028-.238-.04-.338-.052m1.465.136.01.258c.282.071.276.104.57.005l.009-.17c-.18-.16-.175-.143-.406-.12-.061.006-.122.018-.183.027m1.337-.168.055.4c.252.19.447.161.753.193-.108-.27-.124-.498-.442-.578-.09-.023-.27-.016-.366-.015m2.787.195.013.268c.12-.023.226-.034.335-.091l-.064-.288c-.232.044-.143-.005-.284.111m1.163-.187-.113.482.16.107.234-.065.031-.241zm-24.277.22h.137zm1.995.053.13.043zm1.048.016.068.143.128-.034-.15-.119zm22.384-.199-.245.451c.188.116.089.098.296.067l.217-.101c-.032-.283-.065-.242-.268-.417m-21.46.346.007.105.084-.005v-.102zm11.371-.05.145.09.09-.034-.142-.089zm1.029-.014.147.14.182-.078-.144-.172zm-11.552.153.11.039zm9.261-.023.16.081.054-.019-.103-.106zm-.971.299-.073.058.122-.035.08-.073zm58.057.144-.135.025c-3.122.628-6.153 2.454-9.326 2.729-3.589.311-7.13-2.284-10.578-2.2-1.468.034-3.143.876-4.511 1.408-6.327 2.46-8.528.57-14.725-.962l-.673 3.391 1.457.253c6.163 1.47 7.11 3.058 13.465.776 1.688-.607 3.487-1.373 5.296-1.488 3.597-.228 7.32 2.718 10.89 2.358 2.503-.253 6.39-2.32 9.299-2.937.175-.756.797-2.442.398-3.153-.09-.16-.257-.187-.433-.206-.11-.012-.31 0-.424.006m-73.53.143q-2.249.08-4.493.248c.013 1.462-.237 10.395.386 10.98.243.23.543.32.872.281 1.657-.197 3.296-.61 4.971-.796q2.74-.308 5.494-.453t5.511-.126q2.757.018 5.509.2 2.751.183 5.487.529c.726.097 3.896.89 4.356.564.698-1.774.359-8.822.323-11.107-3.529-.507-7.39-.411-10.95-.15-1.444.106-2.9.36-4.347.359-1.82-.002-3.615-.242-5.426-.383-2.492-.193-5.198-.272-7.693-.145m-28.97.598c-2.792.517-5.43 2.21-8.268 2.298-5.244.164-6.538-3.714-13.106-1.496.163 1.13.338 2.233.616 3.343 1.193-.196 2.376-.402 3.588-.29 3.159.293 5.819 2.306 9.094 2.056 2.175-.166 4.472-1.243 6.562-1.875 5.571-1.098 7.75 2.033 12.419 1.983 3.027-.032 5.74-1.882 8.701-2.361-.222-1.076-.374-2.239-.77-3.264-1.661-.312-5.402 1.968-7.768 1.976-3.868.013-7.162-2.787-11.067-2.37m102.217 4.347c-7.698 2.385-6.75 3.835-14.954 1.306-1.269-.39-2.82-1.061-4.155-.998-1.897.088-3.969 1.075-5.74 1.707-6.236 2.221-8.996.036-14.901-1.376-.095.858-.778 3.392-.575 4.048l.281.049c1.124.149 2.226.328 3.323.615 2.276.596 4.748 1.583 7.132 1.518 2.117-.059 4.419-.77 6.4-1.478 1.404-.502 3.004-1.35 4.506-1.335 3.104.03 7.297 2.794 10.578 2.654 2.514-.108 4.764-1.494 7.216-1.874.363-1.03 1.358-3.82 1.11-4.811zm-121.765.913-.614.11c-.228.349-.205.65-.128 1.062.165.895.57 1.82.877 2.679.981.063 1.98.106 2.94.332 2.261.533 4.425 1.607 6.77 1.752 3.47.214 6.612-1.903 10.034-2.14 3.993-.276 7.352 2.79 11.252 2.245 1.467-.204 2.847-.863 4.25-1.307.93-.293 1.998-.379 2.887-.743l.086-.122c.377-1.304.727-2.59.874-3.944l-.236.058c-2.699.68-5.387 2.107-8.174 2.301-3.772.263-7.091-2.547-10.925-2.324-3.434.2-6.355 2.428-9.892 2.138-3.704-.303-5.892-2.416-10.001-2.096m102.951 4.602c-4.86 1.333-8.88 3.713-14.08 2.43-2.507-.618-4.934-1.426-7.497-1.809.56 1.458.388 2.386.01 3.849 1.265.15 2.483.376 3.71.716 2.276.63 4.896 1.842 7.275 1.673 2.187-.156 4.526-1.011 6.618-1.643 1.156-.365 2.392-.859 3.59-1.034 2.498-.366 5.779 1.118 8.124 1.916 1.104.375 2.217.794 3.403.753 1.436-.05 2.947-.701 4.333-1.068q1.074-2.399 1.89-4.896c-7.27 2.65-6.912 2.069-14.078-.03-.995-.292-2.264-.842-3.298-.857m-102.294.587c.524 1.433 1.003 2.909 1.658 4.288l.196.03c2.413.375 4.62 1.72 7.076 1.847 3.553.184 6.685-2.21 10.235-2.223 3.797-.014 7.109 2.652 10.872 2.438 2.403-.136 5.224-1.618 7.832-2.02-.342-1.298-.643-2.52-.663-3.867-1.06.226-2.085.475-3.115.816-1.305.433-2.65 1.066-4.026 1.184-3.498.302-6.98-2.668-10.777-2.516-3.516.141-6.633 2.542-10.184 2.265-3.143-.245-5.947-2.01-9.104-2.242m57.323 3.768.088.037zm1.11-.059h.179zm1.463.058.098.038zm1.391-.058h.14zm1.304.076.093.082zm1.35.024.016.121.096.018-.061-.132zm-8.02.108.041.065zm9.31.016.094.103zm-10.656.077.11.046zm-1.346.177-.004.087.049-.011.002-.085zm13.35-.048.135.044zm1.265.169-.009.101.09-.012.002-.102zm-16.027.082.097.039zm-1.26.175.033.08zm18.525.07.105.048zm-20.076.218.167.031zm21.285.038.105.038zm-13.164.057c-2.451.201-10.678 1.007-12.365 2.148l-.086.382-.144-.047c-.354-.112-.608-.2-.985-.14-.246.26-.284.556-.27.911.006.133.023.265.036.397.325.173.764.013 1.104-.091 1.096-.336 2.181-.735 3.288-1.028 4.827-1.28 10.486-1.905 15.442-1.559 3.059.376 6.144.898 9.065 1.915 1.058.369 2.8 1.532 3.883 1.374.199-.267.196-.31.216-.647-.842-1.375-4.23-2.056-5.713-2.411-3.968-.95-9.428-1.762-13.471-1.204m-9.516.193.111.069zm24.16.127.055.037zm30.335-.106c-3.197.816-9 3.229-12.173 2.608-1.66-.325-8.677-3.213-9.651-1.626-.655 1.066-.75 2.887-.746 4.118 3.546-1.177 5.762.144 9.055 1.246.971.325 2.026.642 3.06.622 1.053-.02 2.18-.434 3.19-.718 2.438-.658 5.497-1.764 7.976-1.972 2.677-.225 8.33 1.996 11.148 2.82 1.126-1.626 2.006-3.358 2.883-5.125-1.133.317-2.29.668-3.478.675-3.755.025-7.57-3.127-11.264-2.648m-83.728.273c-3.167.445-6.362 2.444-9.55 2.236-1.725-.113-5.885-1.82-6.477-1.79-.166.71 1.726 3.962 2.147 4.767 1.496.492 3.01.987 4.6 1.002 1.288.012 2.477-.33 3.683-.747 4.01-1.39 6.085-2.136 10.238-.766 4.84 1.744 6.275 2.618 11.281.708 1.44-.548 2.863-1.093 4.373-1.418.03-1.352-.049-2.409-.442-3.7-1.136.255-2.26.522-3.371.874-1.564.495-3.157 1.24-4.807 1.351-3.937.264-7.406-2.812-11.675-2.517m28.015.024h.184zm-1.11.302.081.041zm27.846.007.065.037zm-29.106.37.086.04zm30.596.13.07.037zm1.193.653.047.111.06.013-.01-.136zm-18.537 1.153q-2.087.105-4.156.4c-1.01.151-2.382.633-3.371.578-.325-.018-.734-.232-1.034-.363.013 1.16.172 2.561.49 3.675l-.026-.061.298-.034c.123-.807.11-1.832.472-2.55h.163c.316.745.264 1.573.65 2.285l.14-.015c.291-.872.246-1.815.585-2.665l.143-.036c.296.51.428 2.19.814 2.405.383-.872.213-1.907.598-2.776l.156.013c.39.8.142 1.984.713 2.632.474-.547.201-2.441.76-2.75.237.176.299.3.34.598.11.784-.137 1.568.477 2.192l.152-.02c.289-.793-.069-2.397.49-2.955.517.544.695 2.34 1.023 3.127.14-.865.133-2.095.472-2.881l.174.005c.446.774.279 1.683.738 2.424l.146-.055c.172-.722-.044-1.988.579-2.436.162.047.273.03.359.192.317.599-.11 1.993.41 2.354.613-.597.227-1.936.777-2.528.671.538.725 2.119.962 2.94l.029-.129c.15-.706.11-2.305.621-2.771.192.059.213.016.291.164.136.258.107.608.116.894.042.494.042.962.308 1.395l.179.032c.316-.671.08-1.895.519-2.41.606.648.77 2.505.946 3.4.085-.823.033-2.602.512-3.214.432.321.551 1.4.623 1.906.082.578.138 1.114.3 1.679.187-.88-.01-2.714.509-3.347.21.042.2-.012.288.154.364.69.061 2.049.685 2.577.489-.609.168-1.825.533-2.515.66.68.446 2.06.99 2.848.386-.62-.026-1.91.656-2.292.236.124.246.129.315.38.183.66-.06 1.455.263 2.073.209-.065.205-.01.28-.174.273-.604.015-1.38.367-1.965l.176-.048c.354.334.326.777.34 1.239.01.388-.014.769.11 1.142l.173.023c.412-.61.46-1.329.52-2.044l.114-.082c.441.811.395 1.857.888 2.616.144-.58.01-1.722.445-2.136.261.21.291.48.39.785.074.23.037.14.182.356.193-.273.197-.316.215-.652-.756-1.35-2.696-1.79-4.084-2.186-4.15-1.185-8.97-1.73-13.293-1.393m-9.43 1.349c-1.452.614-2.846 1.024-4.209 1.85l.163 2.31c.295-.802.539-1.626 1.062-2.311l.093.077c-.025.57-.046 1.11.019 1.678l.135.108c.181-.256.273-.469.367-.767.06-.512.119-.946.317-1.423l.17.025c.14.522.186 1.544.513 1.931.25-.736.302-1.826.717-2.444.438.403.326 1.902.827 2.094.136-.996.509-2.072.506-3.06-.295-.211-.337-.122-.68-.069m-29.208 1.398c-5.647.425-6.701 3.656-13.142 1.651 1.068 1.917 2.367 3.94 3.76 5.639 7.693-2.472 8.015-4.72 16.205-.964 5.047 2.207 7.835.118 12.68-1.234-.405-1.635.021-3.281.38-4.888-2.588.659-5.18 2.155-7.771 2.5-4.233.565-7.835-2.803-12.112-2.704m84.676.12c-2.636.333-5.318 1.243-7.883 1.945-1.284.352-2.664.862-4.006.83-4.486-.108-7.191-3.507-12.24-1.856.26 1.401.9 2.916.934 4.325 3.637-.77 5.442.384 8.717 1.601.649.218 1.352.506 2.037.555 3.766.268 8.96-2.99 13.114-2.74 2.296.138 4.484 1.112 6.644 1.823q1.337-1.818 2.542-3.726c-2.344-.747-7.635-2.873-9.86-2.757m-29.047 1.843.069.035zm-18.196.186c-4.963.514-11.025 1.32-15.24 4.085 1.329 1.138 2.748 1.945 4.568 1.805 1.751-.134 3.475-.886 5.198-1.23 3.616-.724 7.44-.868 11.114-.687q2.593.177 5.134.715c1.945.418 4.674 1.612 6.568 1.406.458-.05.944-.506 1.285-.8.72-.617 1.403-1.268 2.174-1.825-2.933-.588-5.671-1.547-8.551-2.302-3.95-1.035-8.178-1.494-12.25-1.167m-37.777 4.48c-2.587.223-5.236 1.385-7.644 2.31.951 1.322 2.014 2.557 3.097 3.77 5.955-2.116 7.179-.147 12.603 1.459 1.113.33 2.31.584 3.477.543 1.745-.061 3.241-.877 4.809-1.55 1.972-.849 4.4-1.584 6.57-1.448 3.596.226 6.7 2.792 10.299 2.706 3.981-.094 8.349-4.667 13.062-2.445 1.07.504 2.066 1.206 3.163 1.646 2.757 1.105 6.478.813 9.238-.16 1.8-.634 3.377-1.438 5.307-1.665 4.33-.51 8.476 3.705 14.221 2.953 2.176-.286 3.809-1.575 5.849-2.164 1.16-.306 2.113-.345 3.302-.257q1.876-2.12 3.718-4.269c-1.562-.599-3.183-1.272-4.86-1.437-4.265-.418-10.201 3.524-13.983 2.847-2.545-.456-6.41-2.98-8.642-2.8-.394.031-.802.204-1.158.365-.97.44-1.823 1.133-2.742 1.67-1.861 1.088-4.359 2.018-6.484 2.335-5.732.855-8.54-1.952-13.725-2.012-4.686-.054-8.63 3.307-13.417 1.701q-.062-.02-.122-.042c-2.02-.739-4.038-2.439-5.715-3.776-2.143.766-4.171 1.898-6.398 2.407-5.681 1.3-8.563-2.794-13.826-2.686m43.292 1.178c2.886.914 5.552 1.937 8.633 1.585-2.346-.963-6.142-1.663-8.633-1.585M77.65 175.073q-3.67 7.457-7.25 14.957c-1.125 2.345-2.346 4.684-3.393 7.062 1.174.762 2.337 1.56 3.567 2.23q1.044-2.093 2.059-4.2l1.288-2.639.13.048c2.057.8 3.479 2.257 5.838 1.295 2.287-.933 3.997-3.683 4.862-5.891.845-2.157 1.123-4.864.127-7.02-1.153-2.497-4.958-4.412-7.228-5.842m95.948.83c-1.19.854-2.358 1.746-3.561 2.58a373 373 0 0 1 4.36 16.197c.732 3.001 1.304 6.044 2.072 9.035q1.658-1.199 3.379-2.305c-.278-1.391-.532-2.792-.838-4.177l1.444-1.073a83 83 0 0 1 3.356-2.4c.815.798 1.612 1.617 2.297 2.532q1.755-1.355 3.57-2.628-8.102-8.825-16.08-17.761m-43.891 2.006c-4.085.692-7.948 2.644-12.181 2.429-3.642-.185-7.21-2.121-10.84-1.922-1.213.066-2.345.446-3.495.806-2.673.838-4.982 1.289-7.78.816 2.621 1.527 5.754 2.623 8.594 3.696 6.671-2.01 9.96 3.767 15.555 3.014 2.03-.273 4.802-1.52 6.669-2.394 2.892-1 5.499-1.408 8.336.007 3.674 1.833 4.75 3.018 9.039 1.648 1.694-.541 3.326-1.29 5.032-1.795.994-.295 2.07-.126 3.055-.392 1.573-.424 6.399-2.729 7.733-3.694-3.494-1.489-7.041-3.04-10.854-1.487-.838.342-1.646.784-2.505 1.07-3.784 1.256-8.675 1.063-12.356-.452-1.425-.586-2.398-1.38-4.002-1.35m36.025 4.115c-1.13.636-2.261 1.267-3.364 1.95.733 2.02 8.226 22.419 8.596 22.748q1.746-.977 3.46-2.012c-.625-1.868-1.41-3.677-2.095-5.523-.8-2.159-5.799-16.102-6.597-17.163M92.5 184.046c-2.45.284-4.239 1.656-5.738 3.551-2.707 3.421-4.035 8.893-3.486 13.191.285 2.23 1.06 4.459 2.922 5.866 1.179.892 2.522 1.214 3.981 1.042 2.648-.549 4.513-2.058 5.982-4.298 2.43-3.708 3.945-8.916 3.006-13.331-.42-1.971-1.302-3.911-3.044-5.047-1.098-.715-2.325-1-3.623-.975m37.064 1.999c-2.248.265-4.426.978-6.47 1.941 2.074.057 4.12.08 6.193.015 2.064.02 4.118-.113 6.171-.303-1.874-1.344-3.562-1.881-5.894-1.654m28.706.25c-1.629.178-3.054.81-4.084 2.137-1.288 1.66-1.505 4.297-1.203 6.318.294 1.966 1.047 3.96 2.734 5.14.588.413 1.29.76 1.985.944 1.61.425 4.233.133 4.615 2.314q.018.109.026.22.008.11.005.22-.004.111-.018.221-.015.11-.04.217-.026.108-.062.212-.037.105-.084.206-.046.1-.103.195t-.122.184c-.421.57-1.044.88-1.742.948-1.344.132-2.39-.312-3.568-.872.15 1.857.202 3.781.565 5.61 1.237.465 2.276.637 3.597.655 1.54-.159 3.038-.747 4.031-1.985 1.434-1.786 1.663-4.201 1.372-6.395-.283-2.127-1.136-4.571-2.927-5.879a6.5 6.5 0 0 0-2.166-1.003c-1.39-.364-4.133-.284-4.43-2.09-.09-.54.115-1.101.456-1.518.485-.594 1.151-.84 1.9-.896 1.028-.077 2.041.286 2.95.733-.175-1.84-.382-3.75-.755-5.56-.962-.207-1.947-.338-2.932-.275m-55.554 1.99c-1.469 7.736-3.373 15.391-4.846 23.127 3.08 1.031 6.428 1.848 9.592 2.584.532-.79.667-3.399.938-4.42-1.842-.578-3.764-.9-5.59-1.508 1.004-6.334 2.707-12.537 3.9-18.83zm47.376 1.506c-3.092.535-6.205 1.053-9.27 1.726.364 4.506 1.389 9.782 2.103 14.324.468 2.978.72 6.22 1.507 9.114 3.174-.56 6.384-1.07 9.516-1.83-.11-.93-.214-1.858-.376-2.78-.113-.762-.21-1.53-.346-2.288-2.02.321-4.08.67-6.04 1.264q-.4-1.988-.585-4.007c1.886-.341 3.785-.75 5.685-.991-.057-1.779-.325-3.466-.679-5.204l-5.697 1.155c-.143-1.336-.308-2.663-.567-3.982l6.226-1.315c-.19-.97-.47-4.626-.974-5.197-.15 0-.358-.022-.503.011m-40.084 1.172c.794 2.254 4.11 12.24 4.054 13.901-.113 3.376-1.166 6.7-1.21 10.115l3.835.424c.37-2.268 1.046-9.538 1.87-11.172l.012-.024c1.1-2.153 2.044-4.379 3.114-6.546.84-1.702 1.913-3.46 2.567-5.232-1.491-.11-2.986-.245-4.478-.324-1.067 2.33-2.156 4.657-3.047 7.061-.75-2.506-1.623-5.065-2.203-7.611q-2.262-.257-4.514-.592m26.489 1.09-1.87.13c.044 4.662.054 9.418.359 14.069-2.233-4.508-3.379-9.556-5.715-14.007a89 89 0 0 1-4.502.14c.447 7.887.274 15.809.726 23.689l1.735.013c.667-.026 1.336-.044 2.003-.082q-.035-6.963-.37-13.917c2.1 4.494 3.536 9.316 5.638 13.803 1.411-.224 2.83-.247 4.247-.404.127-7.815-.004-15.685-.215-23.5-.672.017-1.367.001-2.036.065"/><path d="M94.246 49.062c1.064-.516 2.153-1.015 3.308-1.286.317.056.644.12.948.23.373.136.688.409.837.783.186.47.197 1.109-.01 1.572-.485 1.084-2.377 1.539-3.424 1.937l-.331.108c-.675-.524-1.069-2.501-1.328-3.344m34.344 39.771-.154-.231c-.037-1.241.591-2.91.893-4.151.304.929.289 2.25.08 3.197-.133.605-.289.859-.82 1.185m-1.533 34.424-.428-.19-.002-.196c.662-.664 1.568-1.087 2.384-1.535.253.056.131 0 .353.197-.046.337-.227.556-.46.806-.57.614-1.02.853-1.847.918m12.416-.744c-.2-.172-.197-.114-.245-.4.347-.31.924-.358 1.369-.453.117.106.132.258.181.405l-.182.342c-.5.217-.603.18-1.124.106m-23.266.24c-.257.045-.515.076-.773.111-.304-.14-.29-.133-.423-.443.4-.04.778-.124 1.156.044zm-75.832 4.944c.419-1.079.742-2.152 1.224-3.214.557.696 1.081 2.563 1.58 3.484.743.264 1.264.547 1.862 1.07a10 10 0 0 1-.627 1.22l-.127-.09c-1.095-1.431-2.106-2.162-3.912-2.47m173.302-3.012.074-.049zm-101.549 8.775.147-.238zm-36.241 54.993c1.042-2.318 2.183-4.582 3.154-6.933.873.336 1.726.825 2.159 1.688.438.873.293 1.857-.04 2.74-.517 1.363-1.425 2.491-2.773 3.072-.982.216-1.652-.09-2.5-.567m101.603 3.667c-.57-2.775-1.433-5.552-2.169-8.29.922.595 4.35 4.924 5.349 6.055l-1.117.849c-.675.478-1.375.926-2.063 1.386M90.44 202.1c-.504.094-.968.16-1.464-.011-.643-.223-1.107-.687-1.379-1.304-.877-1.986-.201-4.863.552-6.788.776-1.98 1.76-3.616 3.775-4.495.528-.033.973-.024 1.464.196.703.315 1.142.934 1.385 1.647.799 2.352-.07 5.566-1.186 7.687-.71 1.348-1.64 2.596-3.148 3.069"/></svg>