<svg xmlns="http://www.w3.org/2000/svg" viewBox="0 0 256 256"><path d="M120.056 0h16.902l.126.02c2.154.338 4.368.378 6.535.641q6.618.831 13.13 2.273 1.367.313 2.726.656t2.71.716q1.35.373 2.693.775t2.676.834 2.657.892 2.637.95 2.615 1.009 2.593 1.065 2.568 1.122 2.543 1.178 2.517 1.233 2.49 1.288q1.237.658 2.46 1.343t2.43 1.396q1.208.712 2.4 1.45 1.191.737 2.366 1.5 1.175.765 2.333 1.554 1.158.79 2.299 1.604 1.14.814 2.263 1.654 1.122.839 2.226 1.703t2.188 1.752 2.149 1.799q1.064.911 2.109 1.845 1.044.935 2.068 1.892t2.026 1.937 1.983 1.98q.981 1.002 1.94 2.024t1.894 2.066q.936 1.043 1.849 2.106.913 1.064 1.802 2.147.89 1.083 1.755 2.186t1.706 2.224q4.488 6.022 8.379 12.446 1.34 2.298 2.587 4.65 1.246 2.35 2.397 4.75t2.202 4.844q1.053 2.444 2.005 4.929.953 2.485 1.805 5.006.853 2.521 1.6 5.075.75 2.553 1.395 5.135t1.185 5.187c.66 3.268 1.08 6.563 1.445 9.874.185 1.647.215 3.491.58 5.096v20.126c-.387 2.319-.518 4.685-.857 7.013-.75 5.133-1.736 10.332-3.046 15.351q-.355 1.347-.737 2.686-.385 1.34-.798 2.67-.41 1.33-.851 2.652-.44 1.321-.91 2.633-.468 1.312-.965 2.613t-1.022 2.592-1.076 2.569-1.132 2.545-1.186 2.521q-.607 1.254-1.24 2.495-.633 1.24-1.293 2.467t-1.346 2.44-1.398 2.41-1.449 2.379-1.5 2.347-1.55 2.315-1.598 2.281q-.812 1.132-1.648 2.246t-1.695 2.21-1.743 2.174-1.788 2.136-1.834 2.097-1.879 2.057-1.922 2.016-1.965 1.975-2.007 1.932-2.048 1.888q-1.034.934-2.088 1.844-1.054.911-2.127 1.8-1.073.887-2.165 1.752t-2.202 1.706-2.239 1.659q-1.41 1.015-2.85 1.991-1.438.976-2.904 1.912t-2.956 1.83-3.006 1.747-3.054 1.663q-1.539.81-3.099 1.577t-3.142 1.49q-1.58.723-3.181 1.402t-3.22 1.313q-1.619.633-3.255 1.222t-3.288 1.132-3.318 1.04q-1.666.495-3.345.945t-3.371.856q-1.691.402-3.393.757-1.702.357-3.413.665-4.99.918-10.033 1.472c-1.777.188-4.103.18-5.785.583h-16.4c-1.82-.39-3.86-.41-5.72-.627q-5.718-.653-11.38-1.683c-18.37-3.468-36.056-11.695-51.086-22.716q-1.126-.833-2.232-1.69t-2.194-1.739q-1.087-.881-2.155-1.786t-2.116-1.833-2.075-1.88q-1.027-.95-2.033-1.923t-1.991-1.968-1.947-2.011-1.903-2.054q-.94-1.036-1.858-2.094-.917-1.057-1.811-2.134t-1.764-2.174-1.716-2.212-1.667-2.248-1.618-2.285-1.567-2.32-1.516-2.353-1.465-2.386q-.719-1.2-1.411-2.417t-1.359-2.448-1.304-2.476q-.64-1.246-1.25-2.505-.612-1.26-1.195-2.532t-1.14-2.556q-.555-1.285-1.083-2.582t-1.026-2.605q-.499-1.307-.97-2.626-.47-1.318-.91-2.647-.442-1.328-.854-2.666t-.794-2.684-.736-2.7-.677-2.717c-1.085-4.576-1.839-9.293-2.42-13.959-.277-2.22-.4-4.472-.74-6.68v-17.32c.303-1.627.306-3.422.484-5.077q.493-4.596 1.332-9.142.334-1.865.723-3.719.39-1.854.833-3.696t.94-3.67 1.049-3.64 1.155-3.609 1.26-3.573q.657-1.777 1.366-3.534.708-1.757 1.468-3.492t1.571-3.448 1.672-3.4q.86-1.687 1.77-3.349t1.869-3.296 1.965-3.239 2.059-3.18 2.152-3.119 2.242-3.053q.841-1.122 1.706-2.225t1.755-2.186q.889-1.084 1.802-2.148.913-1.063 1.85-2.106.936-1.043 1.896-2.065t1.941-2.023 1.986-1.978 2.03-1.934 2.07-1.89 2.114-1.842 2.153-1.795 2.193-1.746 2.23-1.698 2.269-1.648 2.304-1.597q1.16-.786 2.338-1.546t2.373-1.493 2.405-1.44 2.437-1.387 2.466-1.332 2.496-1.277 2.523-1.221 2.55-1.166 2.575-1.108 2.6-1.05q1.305-.512 2.621-.994 1.316-.481 2.643-.934t2.663-.876 2.682-.816 2.7-.757q1.353-.363 2.715-.696t2.73-.636q6.222-1.382 12.548-2.162c2.585-.298 5.21-.385 7.782-.756m2.976 2.569c-4.42.128-9.005.442-13.363 1.222.156.852.327 1.685.555 2.52l2.165-.285q6.788-.806 13.62-1.005l-.002-2.54c-.99.026-1.986.034-2.975.088m7.09-.081.006 2.497q5.819.205 11.608.835c.734.08 3.73.614 4.28.45l.085-.17.475-2.345c-5.42-.812-10.974-1.19-16.454-1.267m20.234 1.852-.464 2.507c3.636.784 7.25 1.586 10.844 2.553.773.208 3.529 1.168 4.15 1.076l.706-2.421c-2.559-.741-5.12-1.537-7.712-2.15-2.497-.588-5.027-.996-7.523-1.565m-44.898.198c-5.097.888-10.085 2.182-15.066 3.565.208.72.427 2.02.89 2.576 5-1.458 9.948-2.697 15.059-3.715-.173-.765-.301-1.605-.592-2.331-.223-.124-.121-.118-.291-.095M169.34 9.28l-.83 2.497q5.076 1.833 9.98 4.085c.761.356 3.609 1.946 4.223 1.967l.138-.193 1.17-2.033q-5.23-2.771-10.755-4.895c-1.285-.505-2.591-1.071-3.926-1.428m-83.005.092q-7.453 2.614-14.522 6.135c.381.668.826 1.739 1.362 2.269a149 149 0 0 1 14.415-6.008c-.263-.769-.487-1.638-.905-2.335-.13-.04-.213-.08-.35-.061m37.832.574c-4.442.184-8.972.396-13.351 1.197.541 3.432 1.467 6.887 1.67 10.354q-1.584.198-3.164.427c-.707-1.81-.866-3.708-1.198-5.609-.27-1.54-.62-3.065-.81-4.618-4.944.97-9.95 2.046-14.753 3.585 1.055 3.357 2.5 6.774 3.223 10.208q-1.577.523-3.145 1.068c-.96-1.875-1.397-4.051-1.981-6.07q-.608-2.063-1.406-4.061c-4.66 1.577-9.568 3.474-13.875 5.864 1.512 3.15 3.336 6.239 4.666 9.46-.863.51-1.746.975-2.636 1.438-1.882-3.054-3.49-6.29-5.084-9.5q-6.5 3.618-12.613 7.86c2.004 2.92 3.927 5.902 5.973 8.79q-1.154.974-2.33 1.92c-.887-.994-1.635-2.152-2.414-3.232q-1.999-2.787-4.068-5.523c-3.733 3.291-7.71 6.302-11.16 9.908 2.678 2.435 5.276 5.076 7.706 7.76a28 28 0 0 0-2.258 2.252c-2.718-2.467-5.214-5.21-8.026-7.562-3.322 3.491-6.486 7.404-9.367 11.275l5.382 3.904c1.043.76 2.069 1.596 3.172 2.265q-.881 1.095-1.718 2.223c-3.255-1.399-5.848-3.824-8.818-5.687q-4.253 6.179-7.885 12.741c3.13 1.603 6.255 3.186 9.442 4.674q-.729 1.594-1.488 3.173c-3.148-1.576-6.277-3.339-9.532-4.679-2.088 4.55-4.091 9.086-5.856 13.775 3.462 1.077 6.962 2.113 10.371 3.343-.33.995-.671 1.987-.93 3.003q-5.298-1.406-10.52-3.071c-1.4 4.626-2.748 9.478-3.506 14.256 3.541.664 7.166 1.14 10.669 1.98q-.283 1.558-.509 3.125c-3.552-.633-7.151-1.085-10.72-1.622-.708 5.251-1.245 10.493-1.383 15.794l10.684.157v3.212c-3.507.143-7.023.029-10.533.12q-.063 3.887.21 7.766t.881 7.72c3.526-.44 7.084-1.076 10.623-1.334q.286 1.527.628 3.042c-3.454.867-7.094 1.416-10.628 1.821.706 4.132 2.11 10.802 3.677 14.644q5.088-1.523 10.131-3.19c.307.958.634 1.915.91 2.882-3.281 1.382-6.648 2.402-9.997 3.59 1.378 4.848 3.752 9.384 5.875 13.93 3.174-1.578 6.19-3.512 9.402-5 .464.842.973 1.682 1.384 2.55-3.005 1.847-5.983 3.748-9.126 5.357 1.991 4.392 4.73 8.614 7.496 12.556 2.805-2.048 5.558-4.312 8.48-6.178.638.743 1.24 1.48 1.735 2.328-2.586 2.227-5.52 4.224-7.981 6.57 2.813 3.888 5.865 7.965 9.439 11.192 2.495-2.469 4.888-5.06 7.487-7.418.664.685 1.358 1.357 1.965 2.092-2.373 2.547-4.545 5.273-6.898 7.836 3.596 3.447 7.223 6.684 11.172 9.726 2.308-2.66 4.198-5.66 6.378-8.423a15 15 0 0 1 2.245 1.858c-1.257 2.527-4.058 6.3-5.76 8.682 3.252 2.318 8.874 6.053 12.391 7.607 1.723-2.998 3.232-6.147 5.119-9.044q.664.27 1.288.624.624.353 1.198.784c-1.422 3.123-2.96 6.17-4.522 9.224 3.96 2.202 9.583 4.472 13.946 5.875 1.274-3.208 2.109-6.535 3.252-9.788 1.086.224 2.175.447 3.206.864-.933 3.404-1.988 6.755-3.001 10.134 4.67 1.481 9.712 2.893 14.583 3.474.271-1.791.61-3.573.876-5.364.254-1.711.388-3.422.817-5.103 1.123.092 2.222.171 3.288.565-.044 3.561-1.09 7.14-1.61 10.665 5.215.686 10.377 1.19 15.645 1.136-.007-3.425-.126-6.901.132-10.318.999-.023 2.007-.075 3.005-.023.574 3.346.547 6.892.57 10.281 2.541-.007 5.127-.028 7.656-.28 2.607-.184 5.186-.55 7.773-.904-.442-3.52-1.275-7.245-1.605-10.67 1.081-.143 2.163-.308 3.248-.424.799 3.445 1.163 7.002 1.913 10.468q3.746-.647 7.439-1.548 3.692-.902 7.315-2.054-1.658-5.064-3.417-10.093l2.883-1.098c1.563 3.233 2.333 6.772 3.72 10.083q3.588-1.192 7.061-2.684t6.807-3.273c-1.494-3.005-3.673-6.383-4.824-9.443.822-.42 1.693-.812 2.442-1.355 1.924 3.024 3.4 6.314 5.423 9.279 3.826-1.94 9.403-4.972 12.574-7.8q-1.838-2.766-3.784-5.456c-.766-1.046-1.616-2.047-2.337-3.123.735-.732 1.466-1.428 2.317-2.026.805 1.266 1.785 2.39 2.712 3.566l3.87 4.906c3.697-3.084 7.366-6.033 10.761-9.456-1.038-1.25-2.065-2.524-3.167-3.719-1.275-1.382-2.843-2.746-3.831-4.35a44 44 0 0 1 2.243-2.054c2.043 2.646 5.077 5.044 7.562 7.318q2.6-2.689 5.004-5.555t4.6-5.892c-2.729-2.051-5.402-4.199-8.203-6.15a23 23 0 0 1 1.924-2.408c1.824 1.219 3.588 2.526 5.365 3.812 1.033.748 2.138 1.462 3.108 2.289 2.929-3.752 5.414-8.005 7.411-12.325-2.946-1.869-6.44-3.365-9.214-5.265.564-.96 1.171-1.915 1.651-2.92 1.212.456 2.366 1.126 3.518 1.717l5.815 2.987c2.112-4.305 3.91-8.652 5.621-13.13-1.883-.756-3.843-1.352-5.766-1.998-1.492-.5-2.986-1.077-4.499-1.505.38-1.095.81-2.194 1.142-3.305l10.353 3.216c1.47-4.797 2.569-9.653 3.63-14.553l-10.887-1.898c.183-1.13.337-2.274.602-3.388 3.626.604 7.293 1.043 10.904 1.724.729-5.09 1.317-10.257 1.304-15.405q-5.495-.15-10.993-.152l-.024-3.236c3.648-.028 7.32-.017 10.961-.252-.028-5.015-.194-10.466-1.225-15.392-3.684.39-7.354.946-11.042 1.282l-.627-3.223c3.74-.137 7.42-.943 11.135-1.341-.676-5.147-2.072-10.234-3.665-15.165-3.288 1.27-7.214 2.5-10.633 3.349q-.498-1.446-.955-2.904c3.393-1.234 7.042-2.531 10.565-3.303-1.64-4.818-3.643-9.721-5.98-14.248-2.792 1.697-6.973 3.996-10.054 5.033l-1.446-2.921c3.01-1.17 7.14-3.35 9.96-5.046-2.173-4.4-4.921-8.78-7.9-12.676-3.06 1.958-5.828 4.398-8.936 6.261-.588-.798-1.221-1.587-1.762-2.418 2.677-2.414 5.804-4.366 8.717-6.486-3.091-4.006-6.115-7.856-9.69-11.454q-2.598 2.63-5.3 5.153c-.895.848-1.77 1.768-2.723 2.548-.71-.726-1.43-1.484-1.988-2.335 2.404-2.701 5.142-5.067 7.653-7.666-3.08-3.358-7.343-7.055-11.172-9.513-2.191 2.868-4.12 5.908-6.343 8.76a42 42 0 0 0-2.408-1.853c.844-2.349 4.618-6.477 6.216-8.941-4.127-2.781-8.333-5.745-12.864-7.835-1.637 3.137-3.223 6.45-5.116 9.433-.907-.488-1.821-.966-2.72-1.468 1.41-3.32 3.448-6.29 5.03-9.515-3.22-1.926-10.275-5.144-13.928-6.083-1.364 3.279-2.139 6.831-3.64 10.041a50 50 0 0 1-3.078-1.074c.975-3.39 2.344-6.677 3.484-10.015-4.714-1.523-9.714-2.648-14.59-3.534-.66 3.447-1.048 6.86-2.01 10.25q-1.602-.25-3.209-.464c.529-3.428 1.058-6.887 1.71-10.294-4.78-.952-10.777-1.228-15.653-1.29a64 64 0 0 0-.132 6.096c.033 1.49.152 3.03.043 4.516l-3.707-.022c-.008-3.533.087-7.076.016-10.608zm63.11 7.24c-.441.792-.887 1.578-1.269 2.4q4.374 2.49 8.613 5.202c1.33.85 2.6 1.831 3.947 2.643.276.166.373.276.697.26l.088-.081q.737-.973 1.492-1.93-4.594-3.289-9.429-6.211c-1.301-.797-2.697-1.769-4.138-2.283m-118.931.169c-3.945 2.19-9.649 5.343-13.05 8.192.503.706.993 1.512 1.62 2.109 4.198-2.918 8.456-5.76 12.999-8.117-.348-.505-1.062-1.99-1.57-2.184M52.083 27.77c-3.92 3.171-7.841 6.395-11.343 10.035a27 27 0 0 0 1.754 1.839c2.066-1.487 3.907-3.452 5.805-5.149 1.748-1.562 3.62-2.994 5.35-4.568-.485-.689-.976-1.569-1.566-2.157m151.934.181c-.602.711-1.23 1.413-1.774 2.17 1.556 1.309 3.193 2.523 4.73 3.854 2.146 1.858 4.185 3.84 6.337 5.691q.86-1.032 1.697-2.082-4.362-4.396-9.205-8.256c-.516-.418-1.197-1.121-1.785-1.377m13.714 12.146c-.62.679-1.23 1.372-1.893 2.01q4.058 4.334 7.837 8.915c.308.37 1.826 2.479 2.14 2.624.076.035.165.018.248.023q.015-.002.028-.008l1.904-1.572c-3.006-4.388-6.723-8.06-10.264-11.992m-179.897.476c-1.712 2.075-3.564 4.025-5.327 6.057-1.585 1.828-3.085 3.744-4.555 5.666.692.52 1.386 1.033 2.046 1.593l9.766-11.384c-.624-.648-1.236-1.36-1.93-1.932m192.562 14.691q-1.1.773-2.221 1.514c2.101 3.145 4.09 6.239 5.994 9.511.452.777 1.721 3.37 2.309 3.823.736-.468 1.468-.987 2.28-1.309-1.745-3.682-4.065-7.196-6.32-10.582-.63-.946-1.28-2.123-2.042-2.957m-204.62.175c-1.662 2.3-8.026 11.409-8.168 13.6.14.328.305.536.64.673.47.193 1.001.301 1.49.456 1.418-2.416 2.812-4.857 4.323-7.217 1.29-2.015 2.734-3.983 3.927-6.052-.67-.486-1.437-1.16-2.212-1.46m214.606 16.934q-1.179.508-2.365.999c1.078 2.526 2.288 4.992 3.38 7.511.828 1.913 1.535 3.894 2.396 5.787.082.181.178.297.325.429l.174-.002c.776-.257 1.564-.497 2.333-.774-.653-1.82-5.239-13.376-6.243-13.95m-224.891.145c-2.216 4.6-4.9 9.846-6.026 14.823.792.256 1.582.48 2.39.681 1.067-2.6 2.099-5.225 3.228-7.8.944-2.153 2.011-4.28 2.809-6.492-.794-.405-1.587-.851-2.401-1.212M247.63 90.14c-.8.265-1.616.508-2.4.813 1.188 4.111 2.293 8.182 3.167 12.373.156.75.38 2.92.86 3.329.807-.119 1.607-.244 2.422-.297-.553-4.74-1.764-9.472-3.193-14.017-.187-.593-.42-1.8-.856-2.201M8.2 90.87c-1.44 4.602-3.132 9.882-3.634 14.682.853.19 1.722.43 2.584.567.658-2.302 1.078-4.672 1.638-7 .602-2.504 1.341-4.98 2.075-7.449-.887-.254-1.796-.482-2.663-.8m-4.29 18.742c-.8 5-1.562 11.596-1.537 16.65.905-.025 1.818-.028 2.72-.116.223-.37.527-7.63.604-8.529q.35-3.865.943-7.7c-.906-.163-1.81-.287-2.73-.306m248.304.44c-.88.064-1.763.112-2.637.235.432 3.791.897 7.56 1.032 11.378.022.618-.115 3.946.095 4.304.045.073.11.13.165.195l2.688-.048c-.035-2.337-.478-14.405-1.343-16.065M2.378 129.874c-.02 5.503.46 11.249 1.432 16.663l2.294-.437.238-.129c.085-1.991-.396-4.239-.569-6.242q-.402-4.921-.478-9.858zm248.257-.009c-.017 5.166-.287 10.97-1.277 16.046.523.089 2.442.577 2.822.31.76-5.48 1.305-10.811 1.412-16.347-.985-.004-1.972-.025-2.957-.009m-1.814 19.906c-.92 5.11-2.279 10.108-3.725 15.091.833.334 1.664.683 2.51.982 1.552-5.11 3.047-10.371 3.849-15.659-.878-.143-1.754-.296-2.634-.414M6.2 149.91c-.589.094-1.177.198-1.767.277.423 2.096 2.822 14.586 3.818 15.65.174-.05.363-.089.531-.153l1.892-.634c-.825-3.127-1.676-6.256-2.377-9.414-.41-1.848-.616-3.952-1.243-5.719-.308-.124-.541-.062-.854-.006m237.582 18.643c-.966 2.535-1.936 5.06-3.033 7.542-.933 2.111-1.99 4.19-2.855 6.328.789.468 1.627.84 2.457 1.227 2.34-4.514 4.289-9.295 6.01-14.08-.857-.343-1.711-.7-2.579-1.017m-232.04.197c-.764.27-1.526.557-2.298.8 1.147 3.174 4.551 12.516 6.382 14.768l.118.004c.77-.424 1.535-.862 2.316-1.264-1.802-3.198-3.28-6.568-4.65-9.97-.22-.546-1.522-4.187-1.808-4.326-.018-.008-.04-.008-.06-.012m224.362 17.196c-1.378 2.41-2.693 4.858-4.133 7.232-1.127 1.858-2.438 3.687-3.444 5.609.488.411 1.41 1.352 2.08 1.301l.175-.152c2.475-3.465 6.172-8.868 7.755-12.725-.775-.477-1.586-.927-2.433-1.265m-216.37.53c-.716.41-1.427.837-2.17 1.196.858 1.883 6.988 12.498 8.183 13.104.721-.55 1.437-1.112 2.189-1.62q-3.357-4.612-6.25-9.528c-.348-.6-1.478-2.903-1.951-3.151m206.327 15.454c-2.942 4.141-6.391 8.083-9.863 11.789.372.35 1.575 1.702 2.013 1.76q2.744-2.777 5.248-5.771t4.753-6.185c-.701-.554-1.39-1.123-2.151-1.593m-196.058.176c-.683.584-1.363 1.155-2.095 1.678 2.82 3.982 6.31 8.162 9.882 11.477.63-.633 1.27-1.26 1.892-1.904-1.781-2.075-3.704-4.016-5.463-6.118-1.133-1.354-3.015-4.033-4.216-5.133m12.407 13.987c-.6.663-1.187 1.35-1.822 1.977 3.827 3.32 7.287 7.136 11.537 9.953l1.716-2.09q-3.755-2.858-7.235-6.046c-.992-.894-3.154-3.208-4.196-3.794m171.019.403q-5.47 5.05-11.252 9.737c.431.614.913 1.494 1.494 1.952l.172-.043c3.956-2.935 8.06-6.174 11.452-9.758-.605-.632-1.199-1.323-1.866-1.888M57.09 228.319c-.565.682-1.147 1.357-1.657 2.082 3.674 2.902 9.01 5.986 13.115 8.302l1.349-2.387c-1.745-1.097-3.568-2.064-5.33-3.131q-3.811-2.322-7.477-4.866m142.003.157c-4.072 3.03-8.585 5.247-12.842 7.973.318.733.617 1.47 1.042 2.15.244.087.146.108.297.041 4.585-2.347 8.897-5.106 13.13-8.028-.444-.72-.972-1.598-1.627-2.136m-125.777 9.501q-.666 1.162-1.37 2.302c4.708 2.43 9.725 4.638 14.775 6.25l.216.005c.391-.712.56-1.654.78-2.44-4.903-1.858-9.69-3.811-14.401-6.117m109.303.26c-4.663 2.253-9.328 4.234-14.227 5.926.23.78.417 1.675.812 2.385.27.053.161.071.331.018 3.916-1.255 11.088-3.94 14.43-6.058-.325-.744-.62-1.514-1.06-2.2zm-91.317 7.044q-.365 1.29-.67 2.596 3.633 1.153 7.346 2.018 3.712.867 7.48 1.44c.4-.368.456-1.845.528-2.406-3.015-.655-6.046-1.217-9.032-2.002-1.888-.497-3.754-1.226-5.652-1.646m73.315.245c-4.907 1.21-9.676 2.56-14.673 3.422.09.79.091 1.754.423 2.477.228.085.235.077.496.03 4.994-.818 9.775-2.075 14.623-3.513-.135-.677-.258-1.896-.772-2.384zm-54.757 4.022-.33 2.514c5.4.763 10.848 1.34 16.308 1.325.118-.885.107-1.777.117-2.67-5.394-.02-10.743-.532-16.095-1.169m35.584.13c-5.12.577-10.225 1.112-15.383 1.162-.01.748-.153 1.665.148 2.352.366.28.622.23 1.078.225 5.15-.14 10.156-.595 15.24-1.415-.111-.74-.135-1.647-.518-2.297-.225-.085-.332-.076-.565-.027"/><path d="M131.278 233.399q-1.213.04-2.428.054t-2.428-.002q-1.215-.016-2.428-.059-1.214-.043-2.426-.115t-2.423-.172q-1.21-.1-2.418-.228t-2.412-.284-2.404-.34-2.397-.396-2.386-.452-2.375-.507q-1.185-.267-2.363-.562t-2.349-.617-2.334-.672-2.317-.725-2.3-.78-2.282-.832-2.262-.886-2.24-.938-2.218-.99q-1.103-.507-2.194-1.04-1.091-.534-2.17-1.093t-2.143-1.142-2.116-1.191-2.088-1.24-2.058-1.29-2.029-1.336-1.996-1.383-1.963-1.43-1.93-1.474-1.895-1.519-1.86-1.562q-1.001-.871-1.981-1.767t-1.937-1.815q-.958-.92-1.892-1.863t-1.845-1.909-1.797-1.954-1.748-1.998-1.698-2.04-1.647-2.082-1.594-2.123-1.542-2.161-1.488-2.199-1.432-2.235-1.377-2.27-1.32-2.304-1.262-2.335-1.204-2.366-1.146-2.395q-.557-1.204-1.085-2.422t-1.025-2.45q-.498-1.23-.964-2.473-.467-1.243-.902-2.497-.436-1.254-.84-2.518-.405-1.264-.778-2.538t-.714-2.557-.651-2.574-.587-2.59q-.277-1.297-.522-2.602t-.457-2.615-.393-2.626q-.18-1.315-.327-2.634-.148-1.32-.262-2.642t-.196-2.648c-1.29-19.369 3.717-40.537 13.112-57.49Q37.51 74.072 39 71.715q1.491-2.357 3.103-4.633t3.342-4.463 3.572-4.282q.755-.872 1.53-1.727.776-.856 1.57-1.694t1.606-1.658 1.643-1.623 1.678-1.585 1.713-1.548q.866-.764 1.747-1.51.882-.744 1.78-1.47.898-.725 1.812-1.43.914-.706 1.843-1.39.93-.685 1.874-1.35.945-.663 1.903-1.306.96-.643 1.932-1.265.973-.621 1.96-1.221.986-.6 1.985-1.178t2.011-1.133q1.013-.556 2.037-1.089t2.06-1.043q1.035-.51 2.082-.997t2.103-.951q1.058-.464 2.125-.904t2.144-.857q1.076-.416 2.162-.809 1.086-.392 2.18-.76 1.094-.369 2.196-.713t2.212-.663 2.225-.614q1.116-.295 2.239-.565t2.25-.515q1.129-.245 2.262-.465t2.271-.415 2.28-.364c4.004-.617 8.085-.827 12.126-1.098q.558-.03 1.116-.042 1.093-.028 2.186-.032t2.186.015 2.185.06q1.093.043 2.184.108 1.09.065 2.18.152 1.09.088 2.177.2 1.088.11 2.172.244t2.167.29q1.082.157 2.16.337t2.152.382 2.144.427 2.135.472 2.124.517 2.112.562q1.053.291 2.1.605 1.047.315 2.087.651t2.073.694 2.058.738 2.041.781 2.025.824 2.007.866 1.988.909 1.969.95q.979.486 1.948.992t1.927 1.032 1.904 1.073q.947.547 1.881 1.113.935.566 1.858 1.152t1.833 1.192 1.808 1.23 1.78 1.267 1.754 1.304c3.843 2.91 7.538 6.216 11.011 9.562 5.558 5.353 10.327 11.639 14.39 18.176 10.892 17.52 16.12 35.783 16.461 56.419.113 6.876-.69 13.842-2.003 20.583q-.693 3.735-1.632 7.416-.94 3.681-2.122 7.292c-4.678 13.905-12.77 27.398-22.988 37.956q-.778.813-1.573 1.61t-1.606 1.577-1.64 1.542-1.673 1.506-1.705 1.47-1.735 1.434q-.875.708-1.766 1.397-.89.688-1.795 1.358t-1.824 1.32-1.851 1.28q-.933.63-1.879 1.24t-1.905 1.2q-.958.59-1.93 1.159-.97.569-1.953 1.117-.983.549-1.978 1.076t-2 1.032-2.022.99q-1.016.485-2.042.947-1.027.462-2.062.903-1.037.44-2.082.858t-2.099.814q-1.053.395-2.115.768t-2.132.724q-1.07.35-2.147.677t-2.16.631q-1.084.305-2.174.586t-2.186.538-2.197.492-2.206.445q-1.106.21-2.216.397t-2.224.35-2.23.302c-3.224.385-6.463.712-9.71.763m58.545-166.753c.011.218.044.198.184.35l.1.129-.1-.13c-.041-.239.007-.116-.184-.349m12.859 19.66-.047.06zl.669-.35-.012-.167-.133-.061c-.304.106-.357.314-.524.578m10.09 2.014c-.485.554-.944 1.126-1.33 1.755-.457.746-1.768 3.713-2.38 4.012-.407.199-.489.249-.657.661.082.204.157.415.256.612.367.114 1.147.44 1.504.225.807-.483 2.407-5.903 2.579-6.955.014-.088.022-.227.029-.31l.07-.053zm-5.248 6.579.094.11.163.303.063.063-.062-.063-.164-.303zm-4.121 4.623.052.05c.308.751.668 1.408 1.338 1.897 1.067.781 2.315.668 3.542.489-.356-.709-3.963-2.018-4.88-2.385zm6.367 2.48.029.34.257.202.04.08-.04-.08-.257-.202zm-160.278 9.872c-.311.213-.481.33-.67.67.03.358.063.389.288.674.3-.26.539-.449.69-.829-.054-.3-.081-.305-.308-.515.173.015.336-.001.51-.013.257-.26.237-.46.302-.813-.428.228-.612.397-.812.826M48.03 130.95c.502-.387.553-.925.628-1.52q.067-.545.121-1.091c-1.05 1.72-2.325 4.18-4.43 4.706-.642.16-1.34.049-1.985-.03l.237 1.44c.172 1.1.31 2.218.533 3.307 1.056-1.884 3.485-3.636 5.296-4.758-.384-.76-.461-1.208-.4-2.054m158.355 3.068c-.004.378-.035.801.04 1.17.032.16.064.312.179.432.573.596 2.805 2.033 3.585 2.559l.078.095.082.085-.082-.085-.077-.095c-.762-1.505-2.557-3.022-3.805-4.161m4.263 3.401c.222.413.417.61.793.887l.073.101.154.276.057.066-.057-.066-.154-.275-.073-.101c-.218-.414-.42-.61-.793-.888m-3.167 4.84c.294 1.088.843 1.83 1.7 2.543l.053.06-.053-.06c-.341-.887-1.034-1.87-1.7-2.542m-1.61 17.098.13.143.13.143-.13-.143zM188.81 184.14c-.21-.321-.423-.645-.596-.989-1.472-2.916-.545-5.779.372-8.705.25-.798.831-2.895 1.59-3.292l.044.096-.044-.096c-1.2-1.785-2.676-3.47-4.516-4.622-1.566-.982-3.007-1.643-4.33-2.99.694 1.95 1.081 4.064 1.832 5.967.904 2.288 1.937 2.994 2.599 5.754-.947-1.074-1.927-2.13-2.846-3.227-.729-.87-1.396-1.81-2.17-2.64.052-1.87-.284-3.594-.526-5.432-1.06-.776-2.427-1.644-2.653-3.054-.06-.376-.04-.779-.033-1.158-1.008-1.405-4.568-4.47-6.077-5.38-2.657-.049-4.7 1.385-7.255 1.601-2.849-1.508-6.715-8.143-8.856-11.052a119 119 0 0 0-5.147-6.492c.342 2.81 1.027 5.531 1.212 8.37l-.083-.2c-1.205-2.972-1.757-6.185-2.954-9.161-1.591-3.959-4.297-7.088-6.603-10.615.21 1.517.428 3.052.882 4.52.821 2.65 2.144 5.217 3.259 7.76.974 2.225 1.833 4.549 2.953 6.701 1.444 2.776 3.13 5.451 4.456 8.285-3.02-3.254-5.467-7.132-8.725-10.151.053 1.983-.072 4.213.552 6.12.493 1.508 1.243 2.92 1.695 4.446.605 2.046.942 4.157 1.525 6.202l.121.117c6.236 5.968 9.759 4.516 13.502 13.991.881.185 1.727.373 2.572.689a20.7 20.7 0 0 1 2.778 4.302c-.768-.541-1.514-1.272-2.326-1.72-1.095-.605-2.494-.758-3.476-1.561-1.135-.928-1.976-2.34-2.975-3.423-1.955-2.119-5.985-4.805-8.622-6.011.522 1.513.951 3.287 1.702 4.69 4.677 1.086 4.947 1.318 8.547 4.522-2.582-.702-5.036-1.785-7.578-2.602-1.017-.328-2.504-.455-3.389-.974-2.542-1.494-5.954-5.69-7.394-8.244-1.1-1.952-.858-4.326-1.773-6.371-1.362-3.041-3.617-5.545-5.196-8.458.314-1.197.224-2.426.382-3.643.243-1.87.78-3.652.846-5.554.05-1.427-.366-2.848-.106-4.267.742-4.06 2.86-7.754 3.666-11.777-1.583 1.333-2.976 2.963-4.418 4.448-1.985 2.044-4.147 3.962-5.77 6.323-1.844 2.684-3.277 5.585-5.264 8.197-.744.977-1.801 1.168-2.558 1.985-.748.807-1.38 1.762-2.052 2.637q-1.352 1.729-2.834 3.349c1.936-3.893 4.512-7.455 6.62-11.267-.865.09-1.728.185-2.597.217-2.112 2.508-3.541 5.398-5.114 8.253q-1.632 2.954-3.37 5.847c-1.045 1.78-2.058 3.605-3.477 5.121.105.679.272 1.423.25 2.109-.08 2.445-.94 3.003-.179 5.692-.522 1.057-1.06 2.11-1.553 3.18.021-1.016.063-2.043.014-3.057-.05-1.065-.462-2.513-.267-3.547.154-.822.816-1.799 1.165-2.567.199-.436.587-1.212.318-1.657-.83.287-1.584.77-2.38 1.136-2.547 4.002-2.904 9.055-5.73 12.893.285-.972.568-1.93.66-2.943.084-.924.013-2.025.253-2.91.227-.836 1.001-1.468 1.189-2.287.306-1.333.204-2.565.71-3.888-2.384-1.153-4.626-2.019-7.213-2.611-2.355 1.617-1.375 2.94-2.632 4.836-.615.927-1.747 1.795-2.523 2.617.715-1.508 1.888-3.362 2.438-4.832.53-1.415-.114-2.398 1.21-3.555-.406-1.602-.686-3.098-.74-4.752 1.95 3.073 3.384 4.208 6.614 5.75q-1.788-2.51-3.484-5.083c-.904-1.367-1.774-2.864-2.866-4.086-1.546 2.463-1.923 5.451-3.32 7.976l-.168-.005c-.335-.559-.44-1.327-.512-1.966-.887.577-3.336 1.68-3.555 2.762-.357 1.762-.03 3.769-.254 5.57-.11.886-.709 1.644-.952 2.488-.217.754-.023 1.595-.218 2.346-.153.594-.59 1.168-.837 1.733-.284.647-.425 1.465-.632 2.152-.577-1.061.131-3.326.23-4.476.063-.75.032-1.495-.01-2.246.321-.544.657-1.04 1.038-1.542-.062-2.003.439-4.42-.397-6.274 3.658-3.513 5.669-3.221 8.12-8.359-3.13 2.088-5.783 4.915-8.66 7.34-2.348 1.98-4.876 3.734-7.257 5.672-3.631 2.954-7.132 6.076-10.917 8.84.043 1.184.463 2.04.237 3.243.662-1.107 1.301-2.275 2.154-3.249.635 3.744 2.615 8.738.182 12.304-.734 1.077-1.68 1.397-2.882 1.685.527.638 1.12 1.56 1.807 2.008l.226-.03c1.011-1.55 1.759-3.918 2.118-5.74.202-1.025.308-2.192.733-3.155.427-.963 1.27-1.681 1.822-2.569.537 3.765 4.03 9.45 1.398 13.07-.766 1.054-2.002 1.292-3.08 1.901.832.709 1.397 1.227 2.516 1.374.282.037.547.115.819.196.776-3.486 1.923-6.94.771-10.462.245-.42.445-.873.87-1.134.27.068.304.09.463.337.407.63.644 1.374 1.054 2.021 2.064 3.261 3.92 5.737 2.94 9.847-.142.598-.381 1.1-.913 1.438-.534.34-1.184.236-1.678.695-.061.267-.091.31.077.55.563.808 1.767 1.183 2.691 1.304l.154.02c.686-3.542 1.91-7.386-.282-10.625-.654-.966-1.449-1.875-2.04-2.874 4.9-1.172 10.793-1.195 15.694-.166 4.637.974 9.012 2.363 13.796 2.486 6.849.175 12.564-2.657 19.254-2.887 6.883-.237 13.342 2.835 20.145 3.031 3.355.097 6.903-.392 10.198-1.004 5.762-1.071 11.864-3.174 17.56-.643-.71.409-1.314.892-1.913 1.447-5.105-1.787-10.935.258-16.04 1.201-3.033.56-6.224 1.013-9.314.995-7.198-.04-13.961-3.259-21.25-2.986-6.227.233-11.784 2.972-18.15 2.894-5.86-.072-11.107-2.198-16.817-3.008-3.474-.493-6.158.017-9.483.001.356.453.68.913 1.146 1.26l.235.345.08.108c.92 1.658 2.683 2.902 3.769 4.5q.156.227.301.462t.278.477.255.49q.12.248.23.502.108.254.204.513.096.258.179.522.083.263.153.53t.126.537.1.543.073.548.046.55.018.552-.009.551-.036.551-.064.549-.09.544c-.454 2.291-1.73 4.236-3.697 5.509-3.495 2.263-7.974 1.697-11.83.879 1.95-.649 3.625-1.47 5.308-2.653-1.793.118-3.474-.069-5.236-.413-1.456-.286-5.164-1.542-6.395-1.317-.316.057-.596.14-.787.41.79 1.065 4.223 3.34 5.47 4.261 12.368 9.138 25.538 14.504 40.685 17.042q3.503.563 7.038.86 3.535.296 7.083.324c20.092.305 40.11-5.27 56.545-17.002q4.105-2.965 8.024-6.172c1.038-.85 2.23-1.717 3.123-2.719.315-.353.673-.823.712-1.315.028-.36-.039-.612-.264-.89-.579-.715-1.134-.322-1.813-.032-3.19 1.355-4.98 1.34-8.4 1.071 1.296 1.26 2.454 2.62 3.322 4.212-3.802.834-5.655 1.151-9.585.915 1.004 1.963 1.477 3.837 1.879 5.987-1.52-2.248-4.18-1.558-6.561-2.482-2.258-.876-4.132-2.825-5.079-5.035-1.332-3.11-1.4-6.419-.101-9.566.456-1.103 2.31-3.493 3.393-3.941.021.03.047.058.064.091.298.591-.168 2.277-.29 2.965.958-1.587 1.606-3.813 3.031-5.022.454-.385 1.008-.57 1.491-.901.175-.121.3-.156.335-.377a3.2 3.2 0 0 0-.796-.48c-6.064-2.574-11.818-.819-17.956.356-3.091.591-6.33 1.017-9.482 1.034-7.294.038-14.153-3.275-21.487-2.992-6.474.25-11.935 2.968-18.592 2.877-5.926-.081-10.386-2.062-15.975-2.839-3.151-.438-6.379-.372-9.542-.063-1.576.155-3.133.405-4.716.493-.666-.228-1.052-1.308-1.347-1.9 5.215-.467 10.297-1.166 15.531-.403 5.55.809 10.947 2.825 16.603 2.775 7.065-.062 13.514-3.344 20.667-2.864 6.334.425 12.285 2.913 18.676 3.004 7.557.107 14.696-3.085 22.229-2.777 3.043.124 5.569 1.238 8.189 2.707-.466.885-1.27 1.6-1.663 2.507-.618 1.424-1.6 7.183-1.577 8.781a37 37 0 0 1 2.331-1.516c-.435-1.135-.872-2.37-.883-3.598-.01-1.027.306-1.983.659-2.933 1-2.692 2.013-3.988 3.976-6.026.16 3.379.677 6.688.885 10.054l1.445-1.286c-.502-.942-1.163-2.053-1.312-3.118-.411-2.947 2.349-8.207 4.065-10.532 1.586 3.129 1.5 7.052 1.529 10.484zm1.464-12.763.102.124.159.187.13.261.107.082.148.311.129.211.097.106.149.307.115.226.129.26.125.247c.083.963.631 2.344.83 3.387.23 1.212.197 2.439.422 3.643l.09.019.328-.477.86-1.518c-.878-1.183-2.093-4.644-2.53-5.054l-.125-.246-.13-.26-.114-.227-.15-.307-.096-.106-.13-.21-.147-.312-.107-.082-.13-.261-.159-.187zm-1.445 14.263c-.23.322-.48.697-.611 1.072-.107.306-.053.462.081.74.772.466 3.905.092 5.292.35l.16.046-.16-.045c-1.446-.846-2.697-2.034-4.02-3.059zM74.863 198.294l-.138.047zc.95-.204 1.986-.347 2.9-.668l-.027-.122c-.165-.07-.36-.166-.535-.2-.627-.123-1.785.694-2.338.99m-.501.176c-1.247.258-2.526.628-3.8.681-2.851.118-4.86-1.54-7.43-2.338-1.118-.347-2.207-.406-3.367-.474 3.033-1.656 6.498-2.529 9.857-3.257.433-.094.862-.044 1.292-.142-.487-.317-.806-.3-1.354-.185-1.138.239-2.227.79-3.379.96-4.188.618-7.198-2.312-11.153-2.639 3.383-1.594 7.602-2.8 11.316-3.095l-1.332-1.006c-2.352 1.044-5.121 2.523-7.715 1.474-2.986-1.209-4.094-3.706-7.89-3.329.689-.352 1.309-.626 2.061-.824 3.429-.7 6.792-1.38 10.296-1.578l-1.163-.987c-2.222 1.09-4.425 1.634-6.852.82-3.238-1.084-5.572-3.806-8.937-4.51 3.022 5.222 6.96 10.643 11.082 15.055 1.656 1.773 3.451 3.383 5.198 5.062 1.422 1.366 2.785 2.794 4.271 4.091 2.815-1.579 5.984-2.633 8.999-3.78l.138-.091zm49.692-167.898q-1.177.043-2.353.114-1.175.073-2.348.173-1.174.101-2.344.231t-2.338.288q-1.167.16-2.33.346-1.162.188-2.32.404t-2.31.46-2.297.518-2.284.574-2.27.63-2.252.686-2.236.741-2.216.797-2.196.85q-1.093.44-2.175.905-1.081.466-2.151.959t-2.127 1.01q-1.058.519-2.102 1.063-1.044.545-2.075 1.115-1.03.57-2.046 1.166-1.017.595-2.018 1.215t-1.986 1.265-1.955 1.314-1.922 1.361q-.952.693-1.887 1.409t-1.852 1.455q-.918.738-1.816 1.5-.899.76-1.778 1.544-.88.783-1.74 1.587-.86.805-1.7 1.63-.84.826-1.659 1.672t-1.617 1.712c-1.01 1.098-2.058 2.208-2.941 3.411l.062.183c.39 1.123.93 2.194 1.438 3.267.382.808.824 1.626 1.072 2.487.696 2.411-.326 5.151-1.112 7.421-.438.073-.918.106-1.291.358l-.076.216c.248.183.507.206.819.152.43-.074.589-.322.793-.682l.105-.187c2.789-1.079 2.648-2.152 4.555-3.99-1.273-.887-2.414-1.481-2.68-3.153-.107-.677-.073-1.373.045-2.047.258-1.456 2.029-7.65 2.88-8.747.173-.224.213-.233.477-.266.526.551 1.145 3.188 1.133 4.018-.036 2.46-.644 5.022-1.077 7.438.184.178.216.234.492.222 1.208-.055 2.752-1.41 3.6-2.203-1.052-.486-1.972-.883-2.801-1.719.9-1.42 1.17-3.176 2.143-4.486 2.115-2.85 5.994-3.934 9.166-5.106 2.07-.764 4.142-1.512 6.172-2.378q-1.878 2.647-3.622 5.384c-.942 1.457-1.847 2.994-2.966 4.324-.992 1.178-2.316 1.973-3.354 3.086 2.162.532 4.35.544 6.56.678-3.142 3.495-5.297 4.445-9.689 5.582-.794.206-1.806.372-2.449.903l.102.133c1.837.24 3.195-.227 5.114.308-2.05 1.576-4.386 2.91-6.843 3.738-1.298.437-2.652.745-3.922 1.259 2.317.283 4.678.425 6.965.894-1.059.556-1.959 1.329-2.911 2.042-3.1 2.323-4.693 3.09-8.434 3.7-.627.102-.625.037-.842.65l.07.209c1.374.378 3.034-.43 4.445-.415.919.01 1.912.298 2.8.516-2.167 2.004-5.135 5.344-7.897 6.277-.395.133-.849.12-1.262.124L51.14 95.93c2.3-.075 4.69-.102 6.889-.817-1.776 1.8-3.203 4.07-5.236 5.592-.792.594-3.873 1.818-4.137 2.202l.064.174c1.06.162 2.656-.57 3.76-.736.812-.122 1.634-.086 2.447.007-3 3.825-2.806 5.801-7.549 8.212-.6.305-1.466.876-2.128.934-.391.034-.753-.059-1.044-.334-.25-.235-.441-.561-.63-.846-.266 1.78-.357 3.58-.614 5.36 1.232-.693 2.627-1.287 3.775-2.094 2.463-1.732 2.43-3.082 5.794-3.969-1.288 3.497-2.062 6.594-5.765 8.278a16.5 16.5 0 0 1-2.85.998c-.373-.346-.751-.686-1.108-1.046-.113 1.136-.635 4.348-.115 5.262.396.085 1.563-.761 1.977-1.03.72-.468 1.446-.984 2.064-1.584.567-.553 1.316-1.646 1.979-2.029.142-.082.517-.065.684-.069l.239-.255c-.115-.436-.32-.743-.13-1.165.575-.258 1.332.004 1.932.138-1.04 2.887-1.813 4.908-4.093 7.044-.703.659-1.499 1.318-2.378 1.725q-.303.137-.613.257l-1.998-.416c.076 1.62.295 3.263.27 4.883 1.065-1.306 2.542-2.222 3.779-3.358.876-.805 1.662-1.89 2.631-2.559l2.206-.257c-1.048 1.95-1.301 5.557-1.9 7.878.682-.333 1.361-.685 2.063-.976-.725 2.144-.532 4.241-.734 6.452-.237 2.598-.959 7.777-3.574 9.116-.822.422-1.577.373-2.462.216.489 1.53.925 3.116 1.522 4.606l-.046.08.291-.013c.016.186.036.097-.073.265l.094.019c.14-.408.279-1.001.55-1.339 1.396-1.74 3.871-3.588 3.97-6.035-.151-.135-.297-.184-.482-.261-.199-.344-.232-.571-.128-.961.095-.354.24-.675.39-1.007.473-1.041-.082-2.872 1.22-3.37.166-.063.348-.094.521-.13.318.382.102 5.613.033 6.42-.177 2.075-1.145 6.442-2.766 7.844-.804.695-1.931.646-2.934.671.426 1.787 1.055 3.496 1.522 5.266l.108.05.016-.12c.27-1.74 3.011-4.739 4.21-6.113-.006-.505-.001-.993.06-1.494a2 2 0 0 0-.416-.562c-.037-.857.947-1.694.6-2.561l-.486-.058c.039-.527.527-1.217.912-1.571.33-.303.726-.387 1.15-.486-.321 2.03.12 3.883.057 5.891-.052 1.645-1.084 5.637-1.844 7.137-.246.486-.664.931-1.105 1.247-.582.418-1.611.64-2.012 1.187.179 1.238 1.085 2.632 1.651 3.755q.024-.06.05-.118c1.1-2.456 3.314-3.862 3.969-6.755.347-1.533-.343-3.106.018-4.436.014-.048.024-.097.038-.145.202-.683.828-1.297 1.32-1.789.011 1.908.482 3.731.692 5.615.11 1 .08 2.01.056 3.014.372-.546 1.081-1.865 1.7-2.058.038-.012.078-.014.116-.021.277.509.293 1.219.403 1.785.607 3.13.926 4.952.494 8.194l1.486-.965.091.873.114.041c.548-.257 1.485-1.302 2.283-1.769l.011.157c.27 3.47 1.781 9.028-.812 11.96a4.5 4.5 0 0 1-.99.82c-.453-.004-1.283-.11-1.656.184-.262.205-.269.3-.268.601.433.842 1.266 1.427 1.927 2.089 2.887-4.35 3.59-6.178 2.732-11.367-.183-1.114-.453-2.236-.551-3.36 1.505-1.426 3.266-2.607 4.891-3.895l9.8-7.83c3.607-2.902 6.934-6.325 10.796-8.884 1.2-.795 2.617-1.644 4.102-1.62 1.232.019 2.167.828 2.96 1.696 1.416 1.55 2.387 3.542 3.579 5.272 1.09 1.581 2.36 3.016 3.5 4.555.717-.352 1.397-.57 2.173-.75 1.427-2.377 2.941-4.691 4.31-7.105 2.02-3.562 3.876-7.228 5.93-10.766-2.702-.466-5.3-1.01-7.886-1.934-8.152-2.911-15.857-8.802-20.847-15.861C80.5 110.646 77.608 98.8 79.743 86.39c2.072-12.04 9.438-22.596 19.339-29.584 10.131-7.15 23.662-10.218 35.89-8.103 6.28 1.087 11.801 3.347 17.406 6.316-4.12-1.03-7.682-1.82-11.972-2.018-11.78-.148-21.875 3.338-30.37 11.64-7.5 7.33-12.239 17.7-12.344 28.233q-.005.484 0 .968.007.484.026.968.018.484.048.967t.072.966q.043.482.097.963.053.482.12.961.065.48.143.958t.167.954.19.95.214.944.237.938.26.933q.135.465.283.927.147.46.305.918.159.458.329.912.169.453.35.902.18.45.373.894.191.445.394.884.203.44.416.874.214.435.438.864.224.43.459.853.234.424.48.841.244.418.5.83.254.411.52.816.265.405.54.803.275.399.56.79.285.392.58.776.294.385.598.762t.617.746.635.732.653.715.67.698q.467.47.95.925.483.454.98.892.498.438 1.01.86.512.421 1.037.825.526.404 1.064.791.539.387 1.09.755.551.37 1.114.72t1.137.681 1.159.644 1.18.606q.594.292 1.198.565.605.274 1.217.526.613.253 1.234.486.62.233 1.249.445.628.211 1.263.403.635.19 1.276.36 3.423-3.26 6.778-6.592c1.101-1.09 2.2-2.462 3.489-3.318q.12-.08.247-.15t.258-.13q.132-.061.268-.11.136-.05.275-.09.14-.039.281-.067t.286-.046q.143-.017.288-.023t.29 0c1.7.058 3.084 1.06 4.17 2.293 2.809 3.189 4.813 7.08 7.583 10.292 6.598-4.113 10.813-8.15 15.759-14.11-2.255 5.142-5.578 9.355-9.672 13.144-1.264 1.17-2.575 2.345-4.042 3.253l11.486 15.893c3.773-1.25 5.328-2.172 9.135-.261.73.367 1.34.841 1.949 1.38 3.247 2.87 6.234 6.161 9.311 9.222 1.614 1.606 4.44 4.083 5.75 5.725.725.908 1.178 1.929 1.535 3.027.239.736.424 1.487.657 2.224-.029-2.584.265-4.892 1.16-7.337.74 1.049 1.315 2.183 1.992 3.268-1.006-3.612-.714-6.56.75-10.016.757.877 1.649 1.579 2.35 2.506.684.905 1.195 2.113 1.935 2.93.169.188.264.196.5.25l.124-.147c-.343-.806-1.642-2.322-2.244-3.101-.406-.525-.78-1.023-.963-1.673-.655-2.328.44-5.763 1.278-7.962.403.435.819 1.01 1.375 1.24l.267-.055.119-.201c-.919-2.374-.418-4.788.285-7.163.742.332 1.386.733 2.059 1.187-.735-2.803-.903-5.308-.181-8.143l1.383.67c-.668-2.52-.543-4.945-.502-7.53.41.089.804.22 1.22.103.484-.748-1.471-6.7-.557-6.87a3 3 0 0 1 .522-.034c.373-.99-1.335-6.01-.641-6.384.208-.112.41-.089.64-.09.16-.203.13-.094.099-.377-.128-1.136-.751-2.293-1.118-3.379q-.603-1.82-.853-3.722c.461.177 1.04.487 1.536.44.218-.944-3.061-6.292-3.513-7.884.608-.026 1.266.005 1.843-.202l.14-.178c-.323-.694-1.04-1.303-1.485-1.95-1.088-1.583-1.985-3.266-3.129-4.819.605-.256 1.237-.49 1.816-.8-.763-1.676-4.665-5.223-6.073-7.227.726-.115 1.455-.249 2.188-.319-2.27-2.57-5.127-4.203-7.629-6.502.559.209 1.108.431 1.692.56 1.525-.424 2.867-1.414 4.383-1.931l-.115-.04c-4.048-1.347-5.672-.898-9.159-4.01 1.527.182 3.038.266 4.311-.761q.156-.126.303-.26c-1.167-.488-2.221-1.187-3.372-1.674-.918-.389-1.933-.631-2.883-.938a13.16 13.16 0 0 1-5.608-3.581l-.145-.154c1.946.565 3.394.632 5.381.19.71-.157 1.434-.36 2.161-.395 1.13-.055 2.244.189 3.343.423-1.744-.68-3.567-1.194-5.21-2.105-2.851-1.579-3.952-4.212-5.558-6.874-.91-1.51-1.88-2.988-2.83-4.474 2.981 1.364 6 2.678 8.922 4.165 1.929.982 3.807 2.2 5.79 3.05.484.208 1.805.786 2.283.609.534-.198.86-.803 1.055-1.304.297-.76.516-1.546.877-2.281.692 3.389 1.944 6.62 2.306 10.07 2.9-1.937 2.035-2.282 3.905-4.275-.11.602-.274 1.26-.283 1.871-.041 3.057 1.984 6.087 2.217 9.236 1.525-.803 2.183-1.95 3.233-3.248-.01 3.859.358 6.258-1.145 9.92-.293.711-1.211 2.542-.852 3.228l.185-.01c.585-.724.803-1.875 1.21-2.729.892-1.874 2.235-4.098 3.619-5.65.248 1.311.684 6.58.53 7.766a3.1 3.1 0 0 1-.5 1.372c-.335.505-1.223 1.597-1.883 1.646-.198.015-.23-.109-.345-.24-.18-1.095.67-2.773.908-3.9.225-1.063.255-2.156.488-3.223-1.33 2.254-2.138 4.779-3.529 7.017l-.04-.052c.773 1.827 1.614 3.653 2.259 5.53.623-3.873 4.563-6.417 6.466-9.642-.137 2.594-.03 9.27-1.996 10.93-.834.704-3.306.129-3.401 1.04-.069.65 1.024 3.417 1.486 3.89.023.025.05.043.076.064.078-.044.176-.065.234-.133.307-.363.38-.942.607-1.358.25-.457.587-.891.907-1.302 1.151-1.478 3.888-4.067 5.493-5.028-.218.554-.435 1.107-.544 1.695-.413 2.214-.287 7.317-2.606 8.335-1.081.475-2.373.535-3.52.827.357 1.6.72 3.228 1.192 4.798q.015-.068.032-.135c.637-2.334 4.808-6.273 6.979-7.467.233-.128.414-.173.676-.133l.183.178c-.032.883-.357 1.819-.567 2.678-.536 2.19-.87 4.828-2.558 6.492-.792.782-1.95.486-2.946.605-.464.055-.966.3-1.399.47.277 1.735.426 3.585.86 5.28 1.826-2.564 3.834-4.387 6.471-6.088.623-.402 1.391-.981 2.131-1.12.078-.015.157-.022.234-.038.138-.03.272-.071.407-.108.57-1.184-1.792-8.228-2.345-9.81-1.331-3.807-2.71-7.704-4.408-11.367q-.447-.977-.916-1.944-.469-.966-.958-1.923-.49-.956-1-1.902t-1.04-1.88-1.08-1.857-1.12-1.834-1.16-1.808-1.199-1.784-1.237-1.757-1.274-1.73q-.647-.857-1.312-1.701t-1.348-1.673-1.384-1.644-1.419-1.613-1.453-1.582q-.736-.784-1.488-1.551-.752-.768-1.52-1.518-.769-.751-1.554-1.485-.784-.734-1.584-1.451t-1.616-1.416-1.646-1.381-1.675-1.346-1.704-1.309-1.732-1.271-1.76-1.234-1.785-1.196-1.81-1.156-1.835-1.118-1.86-1.077-1.881-1.037q-.947-.509-1.904-.996-.957-.488-1.925-.955-1.075-.504-2.162-.98-1.088-.477-2.187-.925-1.099-.45-2.209-.87-1.11-.422-2.23-.815t-2.25-.758-2.269-.701q-1.138-.337-2.285-.645-1.146-.308-2.3-.587t-2.315-.528-2.327-.47-2.339-.412-2.347-.353-2.357-.294-2.362-.235-2.368-.174-2.371-.116c-2.657-.108-5.38-.18-8.035.016M76.682 58.266c-2.264.902-9.423 3.346-10.296 5.434-.331.792.154 2.54.264 3.405 1.409.247 3.925-1.304 5.03-2.09 1.11-.79 4.856-5.396 5.008-6.588.01-.073.003-.103-.006-.161m103.69.525c2.008 3.472 3.74 6.597 7.944 7.692.3.078.579.17.89.102-.032-1.351-.397-3.135-1.046-4.332-2.041-1.394-5.426-2.758-7.787-3.462M61.03 62.334c-.213.345-.361.489-.359.9.124.159.231.294.381.428.159-.262.357-.529.26-.855a1.1 1.1 0 0 0-.282-.474m128.818.988c.754 1.735.87 3.358 1.332 5.149.946.9 1.88 1.791 2.659 2.844l.134-.014c0-2.09.331-4.308.059-6.37-2.056-.24-2.483-.682-4.185-1.609m-128.825.461c-.205.316-.418.567-.39.961.205.266.281.284.598.41.217-.285.27-.432.302-.79-.152-.376-.158-.378-.51-.58m133.981.538c-.531 2.053.577 4.294.51 6.346-.013.407-.608 1.638-.487 1.87.14.267.365.456.582.66.267-.848.64-1.779.719-2.666.1-1.112-.613-5.127-1.147-6.028-.065-.109-.081-.108-.177-.182m-129.289.924.056.038zM53.899 65.2c-1.403 1.3-2.531 2.921-3.674 4.447.098.824.13 1.655.355 2.457.485 1.736 1.34 3.319 1.647 5.114.28 1.633-.128 3.205-.2 4.835-.031.734.048 1.468.023 2.2-.03.823-.877 1.31-.94 1.958-.002.024.271.395.307.448l.189-.028q.207-.383.408-.77c.346-.71 3.448-3.808 4.26-4.58-.766-.506-2.279-1.267-2.609-2.121l.025-.136c.083-.51.03-.746-.164-1.212-.92-2.203.607-5.22.882-7.49.157-1.298.04-2.512-.148-3.799-.054-.367-.027-1.087-.305-1.307-.015-.012-.037-.01-.056-.016m6.648.216c-.036.342-.147.746.045 1.051.282.113.462.126.764.113.044-.394.175-.731-.044-1.072a4 4 0 0 0-.765-.092m.109 1.555c-.252.227-.446.369-.514.72.139.373.339.534.694.722.239-.32.357-.527.434-.921-.099-.285-.12-.375-.43-.485-.06-.021-.123-.024-.184-.036m3.644.239-.14.556.132.197a8 8 0 0 0 .928-.032l-.191-.398a2.6 2.6 0 0 0-.532-.052zm4.188.853-.091.392.105.071.183-.102.18-.249c-.243-.147-.115-.116-.377-.112m-8.622.464c-.025.379-.087.6.08.946.316.151.538.18.88.21.041-.397.099-.563-.07-.931-.322-.158-.541-.192-.89-.225M70.1 68.6c-.47.638-.77 1.035-1.59 1.155-.848.124-1.839-.253-2.63-.534-.901 1.073-1.47 2.188-2.195 3.366l1.47-.103c2.51-.339 4.854-1.466 7.083-2.623-.729-.554-1.186-1.164-2.138-1.261m119.996.213h.215zm-2.143.606a13.3 13.3 0 0 0-3.871 1.051c1.7.849 3.469 1.597 5.387 1.72 1.073.07 2.207-.058 3.274-.189-.766-.886-1.511-1.827-2.374-2.622-.801-.004-1.619-.04-2.416.04m12.093.174c-1.609 1.275-2.798 2.398-3.885 4.16.618.912 1.214 1.856 1.885 2.73.43.439.88.87 1.283 1.335.25-1.813 1.566-6.76.716-8.225M55.4 69.805c.098.487.17.906.63 1.186.226.137.17.103.412.191-.236-.676-.376-1.049-1.042-1.377m17.118.179c.113.327.084.477.405.647l.513-.136c-.067-.177-.073-.35-.253-.44-.229-.117-.416-.083-.665-.071m-13.061.257.115.453c.31.146.43.066.753.004l-.015-.365c-.308-.17-.507-.11-.853-.092m12.497.239c-.447.271-.558.319-.816.796.013.052.039.1.038.154 0 .05-.068.31-.082.364.216.09.248.062.47.034.348-.25.73-.457.899-.868-.12-.251-.227-.379-.508-.48m-22.342.13c-1.588 2.032-3.236 3.867-4.218 6.28.73 2.042 1.858 3.914 2.606 5.944.551 1.496.717 3.113 1.25 4.619-.648.531-1.809 1.506-2.68 1.452-.194-.012-.28-.137-.385-.29-1.125-1.649-.682-5.772-.81-7.77-.073-1.123-.395-2.24-.27-3.364l.052-.486c-1.198 2.123-2.664 4.234-3.473 6.54l1.034 1.649c1.377 2.007 2.896 4.44 3.396 6.84.135.647.246 2.117.819 2.435.202-.154.287-.188.332-.457.227-1.363-.676-2.853-1.243-4.03 1.218.766 1.616 1.765 2.172 3.028 1.593-.959 2.225-2.612 2.911-4.267-.59-.501-1.043-1.024-1.518-1.635q.479-.588.97-1.165c-.327-.211-.659-.412-.954-.668-.393-1.33-.593-2.6-.598-3.991-.005-1.403 1.108-10.12.606-10.665m20.829.615c-.493.256-.788.404-1.066.895.009.026.025.05.026.078.002.035-.03.26-.036.297.29.123.263.074.542-.02q.507-.238 1.017-.469c.095-.31.048-.332-.08-.635-.18-.123-.177-.176-.403-.146m-14.795.31c-.026.39-.095.583.1.928.259.104.482.175.757.217-.02-.32-.003-.63-.277-.85-.156-.124-.396-.212-.58-.294m12.914.415c-.291.184-.469.236-.61.556.126.248.246.436.43.646.39-.252.529-.39.698-.826l-.063-.265c-.297-.147-.144-.114-.455-.11m-1.445.477c-.297.255-.362.264-.439.641.151.308.267.383.569.542.337-.27.378-.257.459-.674-.169-.296-.246-.41-.589-.51m134.177.3c-.056 1.46-.007 3.04-.282 4.475-.129.67-.524 1.311-.569 1.98-.02.297.001.565.211.794.026.028.056.05.084.076l-.053-.139c.236-.917.713-1.537 1.31-2.245-.061-.861-.17-4.432-.7-4.942m-135.182.079c-.311.18-.526.211-.647.564.13.214.255.424.405.626.385-.224.5-.246.7-.659-.123-.319-.172-.334-.458-.531m-10.57.249c-.096.369-.202.564-.087.933.275.173.536.206.85.258.044-.39.13-.607-.053-.961a3.4 3.4 0 0 0-.71-.23m12.5.257h.146zm-3.629-.005c-.024.326-.105.5.087.78a3.2 3.2 0 0 0 .807-.077c-.028-.307-.038-.342-.226-.586a1.9 1.9 0 0 0-.668-.117m128.246.261c-.499.004-.956.04-1.446.131.474.201 1.117.146 1.634.259.475.082.83.168 1.293.002l.144-.19c-.199-.214-.364-.296-.669-.299-.312-.002-.646.056-.956.097m3.452.79c-.234.399-.38.664-.867.774-.69.155-1.506-.025-2.212-.046-.701.377-1.5.735-1.971 1.394-.04.212-.111.305.008.504.403.67 1.618.824 2.335.977 1.215.174 3.565.766 4.679.247.18-.27.211-.323.141-.664-.092-.452-1.77-2.862-2.113-3.187m-135.68.206c-.631.784-1.937 2.122-1.809 3.178.026.217.123.257.266.403.975.267 2.228-.344 3.145-.706.906-.333 1.996-.596 2.637-1.358.032-.175.099-.248-.025-.401-.575-.712-3.276-.913-4.214-1.116m-5.251.342c-.059.391-.141.586.023.953.173.065.334.127.516.166.068-.378.175-.566-.012-.91zm-4.738.283-.045.572.192.179.287-.016.049-.393c-.153-.194-.254-.253-.483-.342m15.647 1.324.075.12.066-.034.034-.149zm-1.04-.062c-.34.256-.462.284-.585.704.134.25.23.342.507.459.04.016.085.017.128.025.324-.245.61-.417.754-.816-.13-.264-.04-.21-.274-.292a1.4 1.4 0 0 0-.53-.08m-14.34.08c-.036.402-.103.53.115.88.171.06.344.128.519.174.03-.33.09-.586-.105-.877a1.4 1.4 0 0 0-.528-.177m154.635.349c-.75.55-1.519 1.094-2.194 1.735-.672.636-1.258 1.373-1.969 1.963l1.627 2.991.708 1.278c1.02-2.333 2.117-5.293 1.911-7.864zm-141.768.174c-.252.35-.292.38-.301.805.222.292.331.37.701.442.258-.318.352-.394.413-.81-.16-.246-.204-.321-.506-.401-.089-.024-.214-.03-.307-.036m-.931.55c-.337.15-.762.269-.972.586.073.365.193.445.44.716.419-.144.636-.233.915-.583.07-.317.073-.291-.102-.564zm-11.52.322c-.338.263-.391.3-.537.699.108.3.116.379.416.528.049.025.102.039.154.058.272-.267.355-.39.45-.775-.098-.285-.105-.334-.387-.477-.03-.015-.064-.022-.096-.033m9.843.258c-.279.199-.51.281-.622.614.185.276.374.443.626.655.36-.282.429-.3.566-.755-.097-.246-.14-.364-.407-.477-.051-.023-.109-.025-.163-.037m-1.513.615c-.25.271-.398.429-.463.809.082.109.12.219.262.25.24.053.49-.034.723-.09l.362-.242c-.002-.195.05-.243-.11-.385-.223-.196-.489-.274-.773-.342m-8.799.741c-.026.426-.101.697.092 1.084.219.077.366.094.598.085.071-.38.173-.629.044-.998-.264-.128-.441-.158-.734-.171m146.255.17.156.144.189-.073-.184-.145zm1.493.077-.137.076.191-.016.111-.118zm.752-.041.053.223c.242.067.482.134.728.189-.267-.235-.363-.37-.716-.436zm1.506 1.415c-.452.347-.743.474-1.315.406-2.302-.273-3.342-.323-5.487.745 1.029.492 2.077 1.012 3.174 1.334 1.93.594 3.876.968 5.86 1.318-.347-.673-1.733-3.594-2.232-3.803m-150.01.124c-.02.389-.092.58.126.911.155.017.304.04.46.034.052-.356.156-.519-.05-.831-.177-.04-.356-.088-.535-.114m-4.287.305c.058.428.071 1.068.465 1.336.11.075.176.068.314.093a2.25 2.25 0 0 0-.747-1.406q-.015-.013-.032-.023m10.082-.026c-1.143 1.09-1.79 2.245-2.526 3.617 1.85-.39 3.587-.894 5.358-1.558 1.116-.368 2.492-.582 3.531-1.089l-.004-.129c-2.069-.406-4.262-.517-6.359-.84m-5.177 1.614-.131.254h.238l.112-.246zm-4.382.151c-.053.363-.138.668.037 1.01.246.193.39.192.696.199-.061-.445-.171-.826-.553-1.103a1.4 1.4 0 0 0-.18-.106m14.084.24-.157.187.25-.076.164-.229zm-.904-.016-.148.334c.145.338.274.382.572.585.104-.35.204-.463.053-.804-.16-.045-.312-.09-.477-.115m-.772.377c-.278.23-.463.287-.516.653.148.18.276.343.452.496.268-.24.456-.328.537-.686a1.34 1.34 0 0 0-.473-.463m-17.874.151a46.3 46.3 0 0 0-3.446 7.276c.669.343 1.21.87 1.769 1.364 2.836 2.514 3.759 4.763 5.455 8.045.745-.36.913-.911 1.181-1.662.525-1.472.964-2.999 1.378-4.505-.863.568-1.96 1.148-3.032.94-.605-.118-1.035-.521-1.348-1.034-1.017-1.663-1.273-4.243-1.262-6.153.005-.892.115-1.84-.005-2.724-.07-.513-.31-1.185-.69-1.547m16.494.609c-.346.25-.447.298-.625.7.144.272.168.308.477.402.034.01.071.012.107.018.332-.17.589-.266.756-.622-.077-.23-.024-.22-.263-.344-.264-.138-.155-.094-.452-.154m137.832.03c.49.481.973.982 1.479 1.447 1.345.346 2.76.447 4.14.583-1.38-.874-4.005-1.629-5.619-2.03m-148.382.183c-.152.33-.226.438-.199.807.276.199.355.21.696.252.128-.348.149-.404.077-.764-.203-.173-.308-.254-.574-.295m9.207.262c-.286.238-.512.388-.603.769.19.25.2.243.508.32.327-.203.464-.235.623-.594-.137-.282-.255-.349-.528-.495m147.419.203.06.194.158-.103-.022-.16zm-149.222.47.01.477c.287.23.455.157.813.148.02-.322.045-.313-.161-.555-.22-.028-.44-.06-.661-.07m-6.62.498c-.25.228-.425.286-.459.638.2.171.394.33.615.475l.29-.161c.029-.33-.075-.514-.288-.778-.049-.062-.105-.117-.158-.175m156.424.28.114.072zm-2.106.194c.432.347 1.154.321 1.698.302-.19-.252-.21-.328-.542-.372-.365-.048-.789.03-1.156.07M43.3 87.59c.066.351.04.61.365.828.07.047.174.076.255.102-.147-.45-.183-.67-.62-.93m161.064.105a22 22 0 0 0-.132 1.938c-2.559-1.505-3.822-1.734-6.78-1.76.719 1.022 1.575 1.723 2.633 2.375 1.97 1.058 4.167 2.051 6.437 2.132-.585-1.502-1.135-3.42-2.158-4.686m-152.91 1.159c-.297.888-1.363 2.835-1.139 3.69.219.227.263.268.602.277 1.16.029 3.143-1.219 4.108-1.834 1.217-.71 2.173-1.14 3.559-1.4-.805-.199-1.613-.421-2.443-.477-1.584-.108-3.138.203-4.687-.256m-7.437.22c-.286.271-.386.303-.45.702.13.246.25.473.418.696.286-.314.398-.4.496-.825-.145-.32-.178-.37-.465-.573m.678 1.281c-.295.247-.575.424-.661.82.091.336.191.46.444.696.348-.208.425-.207.578-.599-.047-.33-.148-.652-.361-.917m12.41.084h.148zm-.694.269c-.293.194-.511.252-.63.595l.175.398c.304-.23.534-.334.674-.694-.067-.095-.136-.217-.219-.299m-1.273.802c-.322.177-.722.324-.887.67.126.296.193.315.466.496.303-.25.62-.414.752-.79a1.1 1.1 0 0 0-.331-.376m-17.227.069c-.788 1.66-1.487 3.339-1.946 5.122-.195.757-.24 1.638-.486 2.359-.197.58-.505 1.123-.71 1.703-.401 1.136-.68 2.372-.93 3.55-.26 1.227-.243 2.532-.527 3.725-.352 1.482-1.687 6.428-1.277 7.68.014.041.036.08.054.119.547.088 1.08-.03 1.623-.111 3.298 1.959 5.726 4.812 7.99 7.861.146-1.245.75-4.485.592-5.576-.211-.237-.355-.416-.69-.437-1.336-.084-2.135.608-3.345-.424-2.185-1.862-3.51-7.535-4.235-10.33q1.176 1.008 2.315 2.06c2.393 1.871 4.05 4.365 5.916 6.722q.398-2.863.892-5.71c-1.169.074-2.26.128-3.39.479-1.922-2.902-2.415-5.082-3.183-8.386-.183-.787-.574-1.6-.621-2.403l.126-.157c.934.609 1.56 1.583 2.526 2.225 2.25 1.495 3.212 4.334 5.019 6.285q.468-1.228.813-2.496t.562-2.565c-1.188-.541-2.151-.443-3.403-.599-3.382-3.193-1.507-8.313-3.685-10.696m162.325.255c.795 1.066 1.54 2.312 2.983 2.498.621.08 1.263.043 1.886.004-1.364-1.066-3.336-1.622-4.869-2.502m-146.655.339c-.306.28-.398.326-.509.738.067.165.126.442.28.527.299-.217.567-.367.688-.736-.12-.328-.164-.333-.46-.53m-9.07.163c-.095.368-.112.407.015.76.232.175.399.3.683.371.128-.302.244-.52.178-.857-.282-.267-.489-.256-.876-.273m7.896.479c-.298.242-.386.26-.478.645.13.23.228.377.437.542.263-.257.373-.311.448-.68-.133-.24-.184-.335-.407-.507m154.34.527c.091.457.128 1.032.56 1.303.03.02.063.032.095.048-.147-.441-.268-1.07-.655-1.35m-155.656.074c-.183.275-.276.298-.243.64.218.172.386.266.649.356.176-.318.218-.308.123-.653-.176-.13-.33-.253-.529-.343m-11.063.646c.16.321.33.79.694.924.07.026.146.037.22.056-.106-.332-.178-.596-.498-.793-.129-.08-.276-.132-.416-.187m165.498.28c.474.315.757.534 1.343.542-.442-.378-.752-.495-1.343-.542m-164.456.986c-.259.29-.34.339-.28.753.05.346.394.645.661.825.216-.273.378-.387.273-.764-.091-.323-.394-.621-.654-.814m161.625.346c-.274.044-.531.06-.778.192l-.034.2-.096-.1c-.053.266-.104.247.054.495 1.273 2 5.292 3.038 7.439 3.812.016-1.02-.563-3.395-1.24-4.151-.033-.037-.073-.067-.11-.1-.309.238-.24.578-.603.678-1.65-.705-2.848-.975-4.632-1.026m12.673.328c-1.78 2.105-2.646 4.113-4.155 6.285l.08.138 1.483-.049c1.076-1.759 2.482-4.176 2.668-6.268zm-167.355.216c-.493 1.358-1.082 2.764-1.242 4.209 1.697-.607 3.445-1.173 5.065-1.967a18 18 0 0 1 1.468-.648c.677-.253.93-.56 1.396-1.113-1.993-.293-4.997.161-6.687-.481m-6.584.718c-.153.366-.154.43-.098.825.25.272.278.317.632.407.188-.365.256-.46.242-.882-.183-.213-.23-.29-.52-.341-.077-.014-.176-.01-.256-.009m1.005 1.154c-.328.287-.47.338-.567.773.16.33.34.52.601.766.297-.324.362-.353.42-.807-.13-.302-.223-.49-.454-.732m10.27.28c-.31.193-.653.29-.746.651l.195.378c.305-.245.541-.41.678-.793-.092-.216-.03-.151-.127-.235m-1.854.84c.006.324-.003.488.182.769.3.104.336.1.646.026l.141-.382c-.098-.2-.062-.235-.29-.317-.242-.087-.427-.093-.679-.096m-.777.462c-.212.325-.257.33-.208.708.241.216.357.29.678.337.215-.341.255-.323.17-.71-.22-.167-.367-.278-.64-.335m-7.27.142c-.117.304-.21.42-.042.733.085.158.3.321.427.448q.162.164.322.329c-.023-.461-.148-.984-.405-1.37zm6.124.365c-.107.352-.125.492-.004.842.234.2.263.216.567.256.149-.373.194-.409.091-.79-.23-.168-.372-.258-.654-.308m-.983.492c-.108.303-.181.45-.09.772.194.18.284.235.547.273.162-.336.206-.381.153-.744-.215-.174-.336-.253-.61-.3m-9.88 1.367.053.195.078-.004-.062-.197zm.14.52c.127.388.156.755.49 1.003.188-.05.292-.087.466-.187.009-.355.003-.344-.223-.62-.266-.095-.45-.163-.733-.197m179.877.431c-2.213 1.764-3.533 4.495-5.39 6.602l-.024.316c.641-.08 1.29-.142 1.922-.28 1.188-1.189 3.506-4.722 3.52-6.416 0-.074-.019-.148-.028-.222m-166.158.15c-.992.324-4.941.987-5.799.63-.2-.085-.382-.228-.564-.344l-.086-.05-1.162 4.714c2.151-.638 6.6-2.952 8.054-4.574l.069-.265-.159-.138zm152.509.042c-.06.349-.006.586.195.875 1.696 2.436 4.101 2.527 6.628 3.472.135-.211.013-.595-.018-.846-.226-1.004-.396-2.705-1.007-3.52-.24.262-.14.5-.448.768-1.087.02-2.287-.522-3.374-.698-.66-.106-1.315-.016-1.976-.051m-165.412.497c-.137.319-.225.497-.076.835.128.292.361.463.65.575.214-.352.323-.537.289-.967-.19-.261-.254-.347-.587-.427-.09-.022-.185-.017-.276-.016m1.076 1.162c-.297.217-.525.348-.634.721.101.279.16.358.45.493.07.032.146.048.219.073.324-.31.371-.329.461-.79-.13-.25-.169-.344-.427-.477-.021-.011-.046-.013-.07-.02m10.934.15c-.35.209-.705.328-.893.693.064.15.118.283.209.42.28-.272.7-.588.812-.964zm-1.35.841c-.3.26-.512.36-.615.749.134.203.254.367.433.532.288-.269.503-.378.587-.77-.125-.192-.233-.356-.405-.51m-8.996.106c-.243.293-.518.552-.578.94.117.258.147.31.43.413.071.026.146.04.219.06.34-.27.412-.255.479-.702-.157-.337-.274-.48-.55-.71m164.537.65c.411 1.086.841 2.008 1.95 2.538.942.451 2.21.559 3.248.638l.111-.127-.326-.352c-.437-.199-.988-.377-1.311-.74l.062-.174.505-.184-.056-.112-.13.01c-1.685.136-2.793-.43-4.053-1.497m-157.055.368c-.044.38-.065.463.086.808.344.151.375.12.746.032.074-.377.108-.378-.088-.703-.265-.087-.463-.14-.743-.136m-7.22.592c-.122.38-.194.588.002.963.148.284.404.478.71.554q.057.014.115.024c.143-.359.216-.555.024-.92-.198-.375-.446-.54-.851-.621m6.072.156c-.087.382-.106.401.053.754.224.17.347.273.612.37.165-.357.218-.418.16-.801-.3-.249-.426-.292-.825-.323m-.848.598c-.233.322-.29.372-.315.763.172.296.302.431.586.623.212-.323.291-.413.322-.809-.17-.29-.307-.4-.593-.577m164.79.502.185.284.144.016-.063-.342c-.23.015-.145-.017-.267.042m11.627.105c-2.274 1.927-1.87 7.663-5.928 9.206-.974.37-2.05.288-3.06.491.037 1.55.183 3.082.329 4.624l.842-.837c.748-.785 1.488-1.607 2.332-2.29 1.511-1.225 4.532-2.97 6.457-3.27.206-.032.41-.076.616-.113-.094-1.592-.528-6.443-1.287-7.65zm-11.043.876.098.092zm-174.868.413-.022.493.161.123.271-.107.1-.231a1.4 1.4 0 0 0-.51-.278m169.455.068c-.155.494-.17.828.064 1.304.977 1.986 4.465 2.918 6.334 3.85l.128-.161q-.216-2.218-.5-4.429l-.742.75c-1.75-.64-3.386-1.33-5.284-1.314m-168.687.773c-.105.176-.27.326-.222.54.067.295.271.514.454.746.182-.346.321-.495.285-.891a3 3 0 0 0-.517-.395m1.021 1.144c-.34.45-.472.66-.412 1.238.225.1.1.086.374-.002.269-.295.432-.401.503-.8-.16-.198-.242-.305-.465-.436m180.315.259c-1.874 1.494-3.137 3.559-5.102 4.93-.04.215-.104.272.024.467.115.175.175.213.359.296 1.938-1.055 2.628-3.025 4.072-4.557l.165-.177c.252-.268.486-.495.8-.69l-.007-.189c-.093-.026-.216-.076-.311-.08m-170.713.733c-.115.373-.148.432-.044.802.221.2.351.287.641.362.143-.33.188-.377.12-.724-.241-.243-.407-.32-.718-.44m-8.79.276c-.262.247-.49.411-.543.79.157.268.23.308.532.427.031.013.066.017.099.026.276-.292.403-.333.42-.745-.163-.179-.31-.355-.507-.498m166.916.15c.446 1.299 1.011 2.118 2.292 2.749.707.347 1.42.626 2.191.79-1.207-1.38-3.05-2.371-4.483-3.538m-159.416.583c.083.399.137.7.393 1.032.305.125.311.12.63.032.074-.398.089-.417-.09-.777-.345-.225-.522-.258-.933-.287m-6.727.493c-.206.32-.409.49-.37.876a1.7 1.7 0 0 0 .575.243c.246-.328.3-.314.246-.714-.145-.136-.286-.293-.451-.405m5.742.38c-.116.387-.108.525.005.894.297.257.286.253.683.231q.022-.001.043-.006c.216-.327.281-.352.246-.735-.237-.272-.52-.35-.876-.38-.034-.004-.068-.002-.102-.003m-5.148.913-.17.178.074.15.208-.106.2-.272-.1-.062zm4.069-.06c-.05.334-.128.456.042.765l.372.122c.069-.37.128-.419-.058-.738zm-12.654.143c-.541 1.602-.89 6.083-.724 7.825l.114.179c.952.092 2.089.114 2.97.522 2.212 1.025 5.497 5.019 7.253 6.814.952-1.425.379-4.29.081-5.913l-.026-.128c-.918.463-1.78.567-2.783.267-1.509-.453-2.83-2.085-3.515-3.458-.568-1.138-1.745-5.75-2.928-6.07-.142-.039-.296-.035-.441-.038m178.925.24c.29.302.598.704.986.865-.251-.346-.467-.715-.849-.93zm-4.383.573c.299 1.98 1.502 2.85 3.041 3.985 1.116.824 2.295 1.41 3.555 1.978l.179-.109c-.05-.918.083-3.19-.448-3.898q-.096.029-.193.054c-1.013.24-4.942-1.552-6.134-2.01m5.832.087c.052.357.07.738.367.989.058.049.124.088.186.133-.1-.491-.125-.811-.553-1.122m11.559.027c-.979.344-1.338.95-1.772 1.862-1.028 2.156-2.18 5.795-4.68 6.662-1.104.383-2.46.216-3.529-.2.009.803-.14 4.497.214 4.996l.017.008c2.869-2.8 6.373-5.04 10.393-5.715.009-1.753.12-5.993-.466-7.48zm-188.515 1.061.062.267.16-.105.002-.24zm.6.376c-.107.37-.14.441-.041.807.257.16.303.166.607.17l.183-.346c-.108-.292-.22-.445-.525-.564-.072-.028-.149-.045-.224-.067m12.25.754c-.13.339-.216.46-.149.823.178.131.275.213.493.27.173-.317.327-.502.328-.866-.226-.192-.383-.198-.672-.227m-11.118.41c-.326.338-.444.507-.51.975l.089.246c.323.067.35.034.655-.104.223-.116.233-.088.367-.323-.1-.345-.314-.57-.602-.795m10.336.583c-.2.279-.333.356-.32.714.219.182.432.34.674.49.176-.324.241-.443.188-.826-.183-.216-.264-.31-.542-.378m159.382.151c.493 1.563 1.056 2.759 2.59 3.549.944.486 2.468.987 3.524.886l-.127-.082c-.97-.615-2.082-1.02-3.002-1.7-1.035-.767-1.906-2.02-2.986-2.652m12.441.375-.062.148.068.019.069-.14zm-181 .316c-.425.275-.592.345-.837.801.036.211.075.255.201.42.253.021.165.062.29-.024.359-.163.665-.225.882-.56-.126-.297-.298-.428-.536-.637m180.238.178-.435.728.05.184.14.026c.2-.275.466-.49.436-.837zm-172.115.097c-.19.407-.228.454-.156.92.246.219.24.227.567.239.172-.329.262-.435.243-.812-.24-.249-.316-.257-.654-.347m-.816.9c-.242.308-.37.415-.429.81.158.281.302.34.59.474.22-.3.372-.478.365-.87-.188-.269-.221-.288-.526-.414m171.517-.023c-.03.354-.085.644.09.97.26.099.147.092.33.08.133-.338.227-.465.155-.827-.22-.129-.316-.177-.575-.223m-178.043.301c-.327.203-.556.268-.709.628.256.297.657.348 1.02.449l.301-.275c-.039-.332-.131-.55-.444-.734-.053-.03-.112-.045-.168-.068m177.29.353c-.584.776-1.825 1.54-2.006 1.886.114.278.031.157.247.363.83-.04 1.265-.263 1.81-.902.228-.268.304-.515.308-.866-.123-.25-.122-.315-.359-.481m-171.824.495c-.24.325-.452.487-.456.897.191.148.309.21.545.26.198-.295.326-.414.345-.775-.154-.198-.2-.273-.434-.382m162.356.16c-.044 1.217.155 1.74 1 2.662 1.517 1.655 3.624 3.004 5.537 4.16l-.01-1.818c-.01-1.043.034-2.124-.131-3.155l-.173-.105-.12.12c.05.294.22.734.052.98a2.2 2.2 0 0 1-.928-.17c-.693-.278-4.803-2.352-5.227-2.674m-167.165.127c.044.341.088.462.366.68.122.096.275.17.41.245-.057-.347-.103-.496-.34-.759-.141-.056-.289-.129-.436-.166m-8.401.695c-.29 1.988-.253 6.367.027 8.403l.125.16c.578.049.87-.194 1.328-.516 4.561 1.114 5.832 3.302 9.42 5.71.195-.172.211-.115.227-.399.06-1.048-.218-3.835-.841-4.648-.118-.153-.276-.153-.463-.14-.55.038-1.27.327-1.82.472-2.24-.703-3.604-2.095-4.656-4.14-.569-1.106-1.6-4.495-2.807-4.847-.16-.047-.378-.046-.54-.055m192.652.523q-.058.046-.114.094c-2.468 2.093-3.918 8.645-8.123 8.408-.63-.036-1.282-.222-1.897-.366-.171 1.215-.697 3.465-.488 4.597l.256.13c1.175-.796 2.307-1.716 3.517-2.451 2.058-1.251 4.91-2.216 7.293-2.501.247-1.581.62-6.417.076-7.745a1.4 1.4 0 0 0-.52-.166M34.79 125.821l.206.576c.164-.082.104-.023.19-.17l.092-.17c-.201-.148-.259-.177-.488-.236m13.584.574c-.475.333-1.015.627-1.282 1.157.038.29.08.32.272.545.434-.168.734-.65.928-1.06.119-.25.188-.34.118-.61zm-12.922.152c-.165.34-.232.47-.164.857.227.207.245.212.563.194.032-.002.062-.01.093-.014l.234-.377c-.08-.32-.178-.398-.473-.554-.11-.058-.147-.068-.253-.106m171.528.558c.273 1.026.548 1.754 1.514 2.301.679.384 1.453.604 2.106 1.033.702.46 1.263 1.28 2.098 1.477-1.143-1.224-2.599-2.002-3.905-3.026-.685-.538-1.225-1.15-1.813-1.785m-170.453.313c-.155.352-.311.639-.272 1.036.196.209.241.258.546.274.1.006.265-.012.37-.02.109-.336.181-.446-.012-.778-.126-.216-.418-.404-.632-.512m183.49.474c-1.477.852-2.772 1.953-4.025 3.103-.314.288-.936 1.065-1.335 1.119a6 6 0 0 0-.565.109c-.132.29-.083.334-.038.637.432-.177.89-.352 1.276-.62.768-.532 1.412-1.273 2.135-1.868.6-.493 1.365-.886 1.912-1.425.23-.227.513-.54.64-.84.05-.118.036-.09 0-.215m-173.32.072c-.273.302-.435.42-.523.823.17.252.313.355.573.509.232-.318.396-.462.438-.859a1.6 1.6 0 0 0-.488-.473m-9.09.86c-.197.311-.38.537-.347.922.21.302.388.35.718.478.237-.347.346-.42.334-.849-.224-.274-.402-.384-.706-.55m7.757.333c-.15.372-.245.472-.145.87.308.202.583.268.935.347.088-.4.112-.487-.008-.873-.277-.239-.421-.294-.782-.344m-6.926.767c-.115.446-.134.524-.001.989.188.177.277.311.554.316.03 0 .06-.014.09-.02.206-.372.322-.476.277-.907-.271-.283-.538-.341-.92-.378m6.341.045c-.286.34-.53.585-.603 1.034.073.265.134.393.321.594.314-.315.535-.518.642-.959-.073-.314-.13-.441-.36-.669m162.188.183c0 1.533.044 2.39 1.186 3.527 1.393 1.387 3.057 2.542 4.5 3.9.153-.276.16-.53.199-.838.144-.934.687-2.975.38-3.816-2.941.133-2.461-1.082-4.538-2.353-.394-.241-.203-.019-.511.047-.216.047-.992-.366-1.216-.467m-166.919.794c-.232.348-.365.461-.37.887.27.294.565.317.942.363.099-.159.24-.264.17-.458-.115-.312-.483-.591-.742-.792m173.12 1.554.138.07zm-181.793.651c-.043 2.602.321 5.253.804 7.808 1.966-.588 3.513-.576 5.355.406 1.59.848 4.523 3.591 5.992 3.874l.202-.105-.022-.43c-.288-1.75-.696-3.478-1.084-5.209-.657.598-1.371 1.487-2.34 1.434-1.649-.089-3.354-1.971-4.356-3.159-.853-1.01-2.693-4.513-3.79-4.656-.25-.032-.513.007-.761.037m192.279-.054-.12.087c-2.744 2.03-4.27 8.186-8.426 7.61-.72-.1-1.397-.216-2.126-.227-.361 1.107-.917 2.94-.627 4.09l.185.1.116-.038c3.432-1.748 7.313-3.663 11.181-4.045.228-1.71 1.064-5.807.546-7.27-.288-.274-.328-.257-.73-.306m-188.169.81c-.118.342-.327.732-.21 1.09.288.135.312.082.611.025.229-.288.294-.288.262-.648a3.7 3.7 0 0 0-.663-.466m11.955.272c-.133.3-.209.313-.112.64l.455.27c.137-.312.26-.434.175-.778a1.5 1.5 0 0 0-.518-.132m1.885.036c-1.032 1.984-1.952 5.049-4.248 5.827-.585.198-1.238.215-1.85.261q.5 2.218 1.09 4.412l.138.11c.688-.603 1.21-1.398 1.84-2.065.653-.691 1.463-1.282 2.043-2.034.223-.29.474-.667.475-1.046.002-.29-.299-.353-.27-.655.044-.46.304-.938.444-1.382.287-.902.603-2.515.338-3.428m-12.918.852c-.097.371-.112.454-.02.822.346.243.487.248.914.21l.14-.348c-.142-.317-.243-.447-.577-.582-.14-.057-.31-.077-.457-.102m10.13.12c-.064.369-.089.425.058.765.192.095.3.15.516.175.101-.34.18-.436.052-.775a2.5 2.5 0 0 0-.626-.166m-8.774.994c-.225.317-.343.42-.372.814.2.283.366.343.673.477.234-.312.374-.437.428-.83-.208-.284-.38-.365-.729-.46m8.058-.004c-.194.329-.248.391-.243.767.15.217.25.373.482.507.244-.333.363-.447.416-.864-.232-.278-.307-.291-.655-.41m172.498.364.11.096.035-.002zm-12.433.519c.78 3.458 3.546 5.173 5.628 7.772l.324-1.665c.125-.859.535-2.29.403-3.112l-.156.179c.08-.236.016-.121.216-.33l-.029-.14a2.5 2.5 0 0 0-.525.367c-1.576-.365-2.498-1.547-3.843-2.327-.593-.344-1.361-.543-2.018-.744m11.748.242.029.26.19-.091.03-.272zm-178.784.003c-.21.33-.305.401-.285.8.22.29.437.369.761.5.238-.339.34-.417.352-.84-.231-.312-.455-.388-.828-.46m177.952.04c-.344.21-.56.267-.669.697-.04.16-.007.395.004.561l.168.105.136-.077c.367-.224.751-.4.963-.79-.092-.31-.175-.338-.475-.466-.04-.017-.085-.02-.127-.03m-172.042.352c-.26.262-.419.358-.504.724.2.199.251.205.529.271.218-.237.471-.395.485-.724a2.6 2.6 0 0 0-.51-.272m170.817.24c-.24.329-.496.739-.804 1.005-.417.363-1.627.483-1.688 1.017l.341.354c.792-.387 2.177-.856 2.586-1.642-.016-.268-.03-.458-.26-.65-.05-.04-.117-.056-.175-.084m-3.137.382h.116zm-172.16.106c-.167.326-.407.651-.33 1.03.204.227.341.295.628.394.189-.343.331-.497.31-.894a2.4 2.4 0 0 0-.607-.53m165.007 1.685c.185 1.058 1.151 2.265 1.995 2.909-.151-1.12-.963-2.11-1.834-2.796-.051-.041-.107-.075-.161-.113m17.981.874c-.322.097-.69.191-.963.394-.592.441-1.101 1.179-1.559 1.754-1.473 1.851-3.12 3.924-5.353 4.871-.702.298-1.4.469-2.097.081-.673-.374-.994-.823-1.829-.661-.753.677-1.2 3.733-1.558 4.84.47.085 2.222-1.018 2.792-1.268 2.126-.933 4.528-1.82 6.784-2.374.732-.18 2.08-.051 2.692-.416.818-.487 1.6-5.28 1.6-6.328 0-.367-.06-.54-.288-.821zm-190.796.117c-.069.114-.173.213-.205.342-.232.913.72 4.902.998 6.018.102.409.213.81.36 1.206 1.831-.787 3.424-.443 5.222.266 1.75.69 4.838 3.093 6.032 3.366.301.07.556-.041.837-.137-.508-1.732-1.102-3.44-1.566-5.184-1.458.697-2.549 1.178-4.164.573-2.713-1.017-4.227-3.779-5.761-6.05-.59-.192-1.127-.364-1.753-.4m15.862.602c-.274.298-.483.434-.551.839.1.164.195.335.304.494.226-.248.411-.497.447-.844.025-.247-.026-.337-.2-.489m-11.485.383c.013.385.004.465.21.783.154.05.298.107.46.123.073-.335.102-.326-.075-.614zm168.266.26c-.065.91-.153 1.805-.29 2.707q.869 1.425 1.902 2.736c.493.633 1.116 1.29 1.518 1.98.383.658.5 2.11.983 2.575.249-.243.297-.482.384-.805q.59-2.026.994-4.096c-.66-.45-1.326-.806-2.042-1.156-.58-.916-1.08-1.811-1.883-2.557-.533-.494-1.103-.797-1.566-1.384m-166.965.705c-.203.3-.327.392-.315.762.213.201.363.297.638.4.209-.337.33-.441.314-.845-.223-.19-.349-.258-.637-.317m8.92.018c-.17.338-.28.445-.225.827.289.221.486.229.836.27.197-.305.318-.41.315-.78-.28-.223-.585-.253-.926-.317m-7.767.854c-.246.284-.402.406-.482.778.215.29.408.397.715.571.23-.33.36-.458.405-.864-.177-.292-.34-.347-.638-.485m177.988.003-.401.42c.135.222.128.17.363.228l.323-.449c-.15-.195-.054-.13-.285-.199m-170.807.267c-.2.375-.354.54-.318.97.122.082.243.175.374.243.241-.315.311-.357.33-.767-.125-.171-.222-.309-.386-.446m169.887.69.046.208.157-.126-.034-.154zm-175.825-.074c-.236.337-.468.6-.477 1.029.184.247.252.27.538.396.252-.334.517-.546.535-.97a2.3 2.3 0 0 0-.596-.455m174.79.265-.287.274.01.287c.184.152.177.202.426.204l.435-.234.024-.193c-.204-.147-.364-.27-.609-.338m-173.899.476c-.096.308-.205.442-.084.753.208.063.349.093.569.108l.133-.352c-.171-.31-.313-.343-.618-.508m173.078.352.052.24c.213 0 .134.04.256-.077l-.001-.236c-.266.041-.17-.001-.307.073m-4.407.216c.064.019.129.062.193.047zm.729.185-.027.34.18-.125.063-.267zm2.782-.023c.208.197.162.237.466.23l-.043-.233c-.287-.113-.147-.117-.423.003m-162.72-.088-.312.584.076.129.186-.008.224-.098c.05-.277.073-.319-.112-.553-.017-.021-.04-.036-.061-.054m162.24.227.004.117.09.01.002-.142zm-1.133.123.045.251c.272-.02.162.017.342-.072l-.219-.266zm-8.811.666c.51 1.065 2.308 2.441 3.186 3.442.392.447.899 1.321 1.347 1.657-.025-.279-.042-.611-.166-.865-.43-.882-2.893-3.227-3.74-3.928a1.4 1.4 0 0 0-.627-.306m-152.796.846c-.219.263-.362.314-.336.672l.343.348c.166-.33.343-.525.283-.897zm170.893.409c-3.119 1.948-3.604 5.229-8.048 6.454-.673.185-1.436.355-2.13.205-.355-.077-.642-.24-.846-.55-.094-.143-.151-.325-.222-.48-.091-.2-.057-.128-.253-.306-.737.342-1.808 3.589-2.132 4.472q-.177.475-.305.966l.132-.035c1.836-.507 3.599-1.349 5.393-1.992 2.123-.76 5.512-1.415 7.78-1.27.514-1.706 1.95-5.569 1.767-7.22-.349-.265-.701-.26-1.136-.244m-187.76.244c.541 2.491 1.068 5.02 1.815 7.458 6.116-1.564 10.86 3.58 12.537 3.453.027-.253.006-.292-.09-.516-.718-1.625-1.44-3.285-1.758-5.042-.891.764-1.654 1.495-2.924 1.373-3.386-.326-5.565-4.751-8.146-6.294-.412-.247-.965-.35-1.434-.433m169.339-.037q-.215 1.468-.412 2.94c1.105 1.743 3.723 4.195 4.333 5.915.13.363.07.659-.007 1.02l.12-.03c.255-.484.474-.969.678-1.476.517-1.188 1.047-2.37 1.473-3.595-.473.254-.959.494-1.41.783-1.705-1.948-2.48-4.14-4.775-5.557m-153.418.635c-.16.337-.229.412-.18.793.173.148.304.259.508.363.134-.28.278-.5.206-.819-.18-.165-.298-.263-.533-.337m-11.74.445c.255.376.415.671.851.837l.366-.009c-.078-.399-.06-.418-.368-.676zm1.59.558c-.117.335-.2.457-.12.81.263.16.417.182.723.194l.147-.437c-.208-.345-.397-.387-.75-.567m9.199.239c-.048.383-.066.546.105.908.263.147.278.175.572.134.103-.347.184-.455.06-.804-.26-.133-.446-.205-.737-.238m-8.156.513c-.16.36-.246.447-.169.843.135.108.264.226.413.311.118-.382.293-.62.111-.988zm.986.628c-.157.319-.255.448-.238.808.157.189.28.34.494.465.21-.363.372-.52.342-.945a1.6 1.6 0 0 0-.598-.328m6.241.07.228.456c.346.108.382.016.704-.119-.227-.278-.242-.308-.617-.34-.097-.008-.215-.001-.315.003m166.745.005c-.329.14-.86.27-1.006.589.152.207.285.316.5.456.34-.214.494-.407.709-.743l.005-.255zm-171.631.67c-.219.279-.477.524-.483.896.205.31.434.411.755.57.176-.369.11-.833.095-1.234-.14-.137-.174-.172-.367-.232m170.12.06c-.58.296-1.677.686-1.965 1.281.176.207.267.221.515.31.221-.22.383-.423.548-.689l.154-.052c.425-.15.666-.235.947-.59l-.011-.21zm-11.632 1.224c.663 1.645 2.52 2.383 2.893 4.25l.12.583.159-.22a5 5 0 0 1 .315-.71c-.035-.72-2.284-2.961-2.892-3.515a1.9 1.9 0 0 0-.595-.389m-149.117.452c-.03.37-.104.581.077.911.286.05.46.036.743-.032l.043-.469c-.275-.288-.485-.302-.863-.41m148.637.925c-.476 1.699-.703 3.305.21 4.918.876 1.546 2.043 3.042 3.068 4.498l.653-1.29c.415-.796.839-1.49 1.454-2.151l-1.15-.446c-1.678-2.085-2.115-3.679-4.235-5.529m-149.221.443c-.129.335-.205.416-.111.772.238.148.455.264.718.363.084-.397.112-.456-.033-.828-.203-.138-.339-.229-.574-.307m167.906.613c-3.018 1.161-6.691 8.031-10.433 6.292-.92-.428-1.698-1.254-2.773-.91-.874 1.24-1.38 3.028-1.926 4.453l.125.135c1.416-.463 2.73-1.132 4.194-1.48 2.433-.578 5.064-.896 7.546-1.276.747-.115 1.502-.15 2.242-.307.67-1.694 2.013-4.57 2.083-6.316-.147-.278-.2-.353-.51-.48-.154-.062-.39-.084-.548-.111m-183.992.159c.593 2.417 1.264 5.116 2.243 7.4 2.937-.596 7.123.105 10.002.983.883.27 2.107 1.108 3 1.065-.005-.272-.04-.32-.174-.545-.573-1.256-1.131-2.52-1.787-3.736-.837.492-1.722 1.1-2.645 1.407a14.9 14.9 0 0 1-5.139-2.51c-1.723-1.309-3.231-3.965-5.5-4.065m15.273.881c-.117.356-.175.517-.083.894.24.272.233.28.588.337.169-.333.3-.467.245-.843a2.6 2.6 0 0 0-.75-.388m-10.933.2.116.401c.3.103.41.066.729.01l.003-.293c-.317-.168-.494-.127-.848-.119m1.103.216c.013.334.078.456.209.75.036.082.105.286.138.379.252.184.397.153.698.178.197-.371.324-.463.231-.883-.35-.29-.84-.335-1.276-.424m164.072.441.07.181.113-.001c-.148-.185-.066-.163-.183-.18m8.88.033-.353.296c-.007.323.078.375.267.644.217-.297.287-.337.292-.698zm-170.991.345c-.233.39-.407.654-.415 1.114l.147.236c.167.027.335.084.5.038.25-.34.464-.528.505-.954-.242-.236-.429-.314-.737-.434m169.778.102-.135.753c-.268.167-.518.19-.824.239.046.307.24.426.448.647.526-.242 1.052-.476 1.555-.763-.317-.365-.568-.723-1.044-.876m-157.307.466c.237.23.275.353.62.387l-.018-.305c-.22-.091-.366-.093-.602-.082m155.49.079c-.396.239-.545.276-.752.702l.053.296.254.137.17-.067.02-.42c.06.012.123.016.18.037.045.017.2.127.244.158.276-.138.268-.13.383-.416-.148-.298-.155-.306-.483-.413q-.034-.01-.069-.014m-166.594.2c-.19.395-.303.623-.241 1.064.223.224.325.296.667.292.076 0 .151-.023.227-.035.161-.392.25-.476.142-.897a2.8 2.8 0 0 0-.795-.424m5.469.651.011.12.089.017.005-.157zm159.46-.25c-.165.245-.28.349-.305.653a7 7 0 0 0 .532-.033c.175-.017.258.009.417.072l.22-.004c-.116-.256-.315-.494-.58-.613-.13-.059-.159-.056-.284-.075m-4.09.184c.344.46.705.808 1.297.904.07.012.142.015.213.023-.407-.396-.94-.815-1.51-.927m-159.594.189c-.055.382-.09.604.082.97.242.19.362.27.69.276.108.002.241-.032.347-.056.045-.394.07-.452-.11-.799-.334-.232-.614-.305-1.009-.391m162.918.06c-.276.138-.553.188-.667.483.154.15.296.28.477.398l.377-.222.063-.263zm-153.033.098c.068.501.175.962.59 1.296.206.166.138.12.371.209-.034-.451-.005-.996-.309-1.352a1.9 1.9 0 0 0-.652-.153M58 161.251c-.806 1.738-1.694 5.115-3.606 5.83-.552.207-1.247.21-1.834.248q.84 1.777 1.767 3.51l.674 1.258c.294-1.137.797-2.032 1.458-2.997 1.983-2.895 2.005-4.475 1.541-7.849m139.927-.044c-.095 1.39-.541 2.716-.645 4.094.952 1.909 2.202 3.67 3.112 5.59l.87-1.264c.548-.818 1.194-1.625 1.323-2.626l-.096-.172q-.465.061-.926.147c-1-.684-1.197-4.257-3.638-5.77m-142.87.478c-.139.374-.211.452-.103.847.202.163.364.3.594.422.147-.359.222-.47.168-.863-.22-.188-.39-.3-.658-.406m-.878 1.626c-.139.35-.198.399-.099.755.222.119.422.226.666.293.11-.379.16-.432.026-.796-.217-.127-.344-.194-.593-.252m162.458.209-.117.077c-3.269 2.258-5.45 6.427-10.14 5.682-1.297-.207-2.4-.773-3.464-1.522-.552.977-1.871 2.782-1.922 3.873.072.061.158.153.244.193 1.736-.325 3.434-1.116 5.192-1.203 2.777-.138 5.564.71 8.333.498.86-1.09 3.295-6.109 3.222-7.445-.424-.285-.87-.21-1.349-.153m-178.802.351c.87 2.366 2.013 4.677 3.188 6.904 2.64-.5 6.94-.296 9.58.17 1.206.213 2.403.591 3.582.92l-.609-1.39-1.396-2.871c-.462-.053-.928-.093-1.388-.163-.315.854-.606 1.752-1.476 2.19-.634.317-1.312.194-1.95-.053-2.065-.803-3.967-2.384-5.695-3.747-.805-.636-1.619-1.35-2.563-1.773-.431-.194-.807-.217-1.273-.187m4.215.822h.131zm.33.198c.138.317.147.402.431.589.145-.017.3-.024.44-.06l.054-.386c-.23-.216-.406-.175-.715-.16q-.105.007-.21.017m11.351.165-.011.23.129-.09.038-.224zm-9.784.009c-.149.319-.261.45-.21.804.24.208.42.275.722.362.188-.33.317-.463.301-.848-.281-.22-.473-.252-.813-.318m1.516.36c-.161.42-.324.772-.292 1.229l.138.188c.162.009.31.045.459-.026.205-.328.473-.593.448-.986a3.7 3.7 0 0 0-.753-.405m165.01.2.12.462c.263.135.276.11.57.046l.182-.39-.135-.136zm-.49.075q-.11.064-.222.125c-.903.485-3.711.782-4.197 1.635.1.3.157.337.463.475.037.017.079.022.118.033.132-.315.145-.558.463-.71l.192.113c.3.172.622.261.951.357.854-.36 2.002-.712 2.636-1.416l.015-.23c-.138-.153-.233-.29-.42-.382m-151.495.264c-.071.358-.13.495-.011.849.149.092.29.19.453.257.02-.324.068-.615-.167-.882-.083-.094-.175-.153-.275-.224m-11.393.11c-.233.336-.582.703-.616 1.108.273.186.468.142.783.124.27-.225.518-.384.607-.742-.18-.323-.42-.387-.774-.49m1.283.57c-.128.371-.33.75-.194 1.138.223.159.358.167.627.18.165-.387.299-.564.233-.985a1.6 1.6 0 0 0-.666-.332m156.737.802-.158.25.204.002.187-.255zm-146.943-.145c-.083.34-.152.465-.04.803.206.125.388.233.611.325.113-.346.188-.425.061-.776a6 6 0 0 0-.632-.352m146.133.445.126.072zm-144.3 1.298-.351.505.07.165.663.155.212-.506-.097-.221c-.162-.034-.332-.08-.496-.097m1.544.155c-.192.994-1.579 5.871-1.425 6.351.506-1.148 1.816-5.062 1.481-6.22-.013-.046-.037-.087-.056-.13m-1.991.867c-.881 1.62.838 3.998-1.702 4.873-.345.119-.724.188-1.082.267.214.434.426 1.051.891 1.249 1.24-1.736 1.974-3.135 2.225-5.267l-.085-.063-.249.05c.068-.433.495-.433.505-.902-.177-.147-.284-.157-.503-.207m3.31.12-.23.459c.101.296.144.281.42.441.101-.357.196-.44.014-.775zm-5.426.224-.138.54c.209.206.175.174.428.232.164-.26.264-.29.213-.605-.168-.061-.329-.126-.503-.167m-15.934.603c-.216.87 2.342 5.388 2.885 6.28.176.291.344.601.63.797 1.653-.11 3.343-.661 4.993-.917.325-.044 1.057-.045 1.271-.266l.06.036c-1.047-.25-2.003-.61-2.917-1.187-1.842-1.164-4.8-4.702-6.922-4.743m171.753.213-.103.071c-.877.62-1.634 1.39-2.497 2.032-2.28 1.695-5.396 3.005-8.287 2.49-1.228-.218-2.315-.8-3.388-1.408-.561.66-1.387 1.45-1.687 2.261l.047.257c.262.105.584.097.849-.01.248-.102.4-.275.566-.476.981-.389 1.822-.61 2.89-.558.227.011 8.486 2.01 8.71 2.105.184.077.361.167.538.26 1.198-1.679 3.207-4.57 3.565-6.554-.118-.242-.142-.223-.387-.308-.26-.09-.544-.12-.816-.162m-166.873 1.038.078.154.104-.07-.02-.166zm1.23.056-.216.202.12.082.16-.035.193-.131-.044-.154zm15.084-.281c-.056.357-.154.51.05.818l.21.076.147-.56c-.144-.206-.177-.229-.407-.334m145.528.337c-.554-.015-3.198.213-3.53.475-.123.096-.198.2-.294.319.3.252.331.361.747.329.861-.067 2.552-.259 3.11-.956.028-.033.047-.072.07-.108zm-159.533-.1c-.066.365-.155.468.056.786l.254.131c.086-.338.202-.472.026-.792zm1.33.31.083.486c.255.083.136.091.356.007l.089-.257c-.186-.156-.29-.196-.529-.237m153.862.224-.155.39c.175.335.31.381.625.577.113-.354.203-.454.066-.807a2.6 2.6 0 0 0-.536-.16m-.63.51-.21.138c.104.014.227.044.331.034l.22-.145-.08-.12zm-151.467.124h.113zm146.255.01c.01.331-.034.71.162.99l.204.006c.06-.186.194-.39.1-.575-.107-.216-.272-.295-.466-.42m-135.502.5-.16.25.114.073.17-.09.17-.245c-.208-.065-.11-.074-.294.011m136.87-.136h.141zm-143.852 1.283c-.893 1.056-1.596 1.406-2.925 1.748.609.003 1.218.02 1.825-.036l2.62-.09c-.694-.478-1.047-.898-1.498-1.6q-.01-.012-.022-.022m6.562.074c-.072.208-.245.498-.147.696.07.14.034.09.114.177.163-.29.297-.382.225-.722zm4.824.38c-.232.207-.455.302-.486.621.174.174.34.34.528.499.238-.232.353-.337.41-.67-.147-.305-.146-.305-.452-.45m-.276 2.242c-.027.349-.096.46.12.745l.328.12c.11-.341.194-.406.048-.728zm142.63.304c-2.755 1.917-6.357 4.739-9.957 4.087-2.057-.372-3.499-1.702-4.833-3.206-.591 1.232-1.36 2.333-2.06 3.501 1.226-.272 2.502-.631 3.766-.566 2.033.106 6.812 2.285 8.77 3.256-1.025.202-1.795.514-2.681 1.076-2.733 1.601-4.701 2.415-7.91 1.857 2.1 1.34 4.029 2.689 5.924 4.304 1.484-1.555 3.008-3.118 4.248-4.88.344-.49.283-1.196.639-1.623.195-.233.645-.082.973-.443.922-1.014 4.49-5.723 4.395-6.943-.013-.169-.165-.236-.284-.34a3.6 3.6 0 0 0-.99-.08m-159.597.684-.097.155.219-.063.037-.138zm1.271.172-.164.206.23-.104.188-.222zm1.304.118-.147.162.217-.062.105-.152zm14.472.901-.173.22.213.014.223-.287zm4.451.813c-.023.27-.121.564.101.776.059.056.195.122.27.16.014-.272.117-.612-.12-.81-.057-.048-.181-.096-.251-.126m-4.87.525-.182.252.226.014.201-.268zm5.389 1.127c-.206.27-.3.265-.26.618l.42.468c.181-.323.194-.35.16-.717-.102-.128-.195-.263-.32-.369m122.961 1.627h.12zm-123.067.39c-.092.413-.156.554-.027.966l.146.127c.096-.328.212-.59.07-.922zm123.655.343-.012.412.145-.114.044-.312zm.975.029c.028.376.01.502.228.82l.3.147c.042-.208.141-.359.012-.544-.149-.215-.319-.294-.54-.423m-138.001.355-.04.251.17-.112.035-.247zm-1.51.13-.04.243.146-.1.066-.253zm-1.851.087.045.102h.06l.019-.113zm1.22.042h.14zm20.836.219-.025.321.15-.024-.025-.29zm-5.539.8-.147.235.252-.025.135-.252zm5.69.961c-.03.354-.118.506.112.79l.285.06.065-.527c-.175-.198-.215-.235-.462-.323m.261 1.9c-.07.371-.157.536-.001.887l.14.107c.053-.28.208-.643-.001-.888-.038-.044-.092-.07-.138-.106m106.556.898c-.645.504-1.315.99-1.89 1.575 1.974.792 3.098.52 5.072.781 3.052.403 6.36 2.645 8.06 5.147q1.295-.892 2.393-2.017c.59-.645 2.043-1.964 2.072-2.843.013-.375-.068-.422-.316-.667-1.322-.427-3.336.397-4.715.584-2.05.279-4.358.405-6.38-.12-1.216-.317-2.2-.933-3.197-1.676-.343-.256-.702-.614-1.1-.764m-121.902.207.276.582.2-.044.063-.365c-.212-.135-.297-.142-.539-.173m-1.488.153-.084.385c.184.182.327.236.571.316l.096-.481c-.226-.237-.271-.183-.583-.22m3.364.17.089.037zm-4.346.172.012.083.031-.006.055-.097zm2.365-.106h.135zm15.432.362-.15.531.142.171.182-.19a.94.94 0 0 0-.175-.512m100.42 2.796c-.873.58-2.322 1.263-2.761 2.244.02.176-.013.305.134.428.758.63 2.575.38 3.524.345q1.337-.007 2.672.033c-.448-.249-.9-.497-1.293-.829-.551-.465-1.754-2.028-2.277-2.221m-109.77 1.72-.13.276.186-.034.19-.243c-.082-.003-.167-.02-.246 0m-1.33-.121-.45.425.007.23.276.153.414-.449-.022-.205zm-1.466.532.032.088.112-.031-.02-.104zm-1.393.087h.136zm9.895 4.495-.184.138.1.141.187.005.235-.163-.046-.145zm1.322.227.004.102.087-.012-.005-.106zm-2.578.14-.038.096.1-.026.044-.093zm-1.634.363-.013.09.05-.013.008-.088z"/><path d="M142.659 87.056c.192-1.821.104-3.718.103-5.55q-.027-4.907.022-9.813c.776.44 7.772 11.175 8.879 12.724l7.259-1.966c2.061-.555 4.181-1.214 6.315-1.4-2.57 3.674-5.488 7.085-8.073 10.748.98 1.714 2.18 3.35 3.303 4.974 1.677 2.425 3.354 4.87 4.917 7.37-4.063-1.345-8.02-3.218-12.015-4.775l-1.994-.727c-2.593 2.748-4.52 6.148-6.812 9.152-.768 1.008-1.539 2.102-2.538 2.891-.069-1.919.124-3.9.243-5.821q.326-4.62.455-9.25a462 462 0 0 1-15.43-5.009c5.138-1.053 10.281-2.263 15.365-3.548m-94.719 43.646-.182-.053zm0 0 .09.248zm76.154 20.965c-.035-.1-.051-.131-.064-.25-.21-2.013.975-3.337 1.657-5.079.539-1.375.17-2.945.679-4.278.163-.429.469-.82.767-1.163.752-.864 1.719-1.527 2.498-2.366 1.542-1.662 2.923-3.487 4.435-5.179.124 1.404-2.124 3.817-2.42 5.557-.446.463-.92.853-1.385 1.289-1.575 1.476-3.105 4.65-3.149 6.788-1.12 1.511-2.056 3.07-3.018 4.681m31.41 4.592c.608-2.665.243-5.34.498-8.057.067.064.083.073.14.167 1.113 1.806 1.424 6.988 1.89 9.264.203.989.618 1.939.882 2.913.177.654.25 1.337.382 2 .187.936 1.548 4.105 1.399 4.752l-.183-.13c-1.19-1.83-2.107-3.821-3.393-5.589-.01-.687.042-1.356.103-2.04a51 51 0 0 1-1.718-3.28"/><path d="M117.271 164.48c2.151-2.637 4.362-4.904 7.003-7.052.743-.604 1.702-.909 2.405-1.55.738-.674 1.073-1.721 1.686-2.505 1.14-1.455 2.582-2.664 3.738-4.142-.044 1.163-.548 2.547-.822 3.687-1.365 1.21-3.022 2.177-4.176 3.598-1.228 1.513-2.044 3.23-3.026 4.894-1.34 2.272-3.034 3.957-5.106 5.54-.899.688-4.873 4.309-5.211 5.219-.15.401.047.941-.041 1.366-.093.451-.608.842-.99 1.04-.817.425-2.353-.24-3.167-.492-3.112 1.71-6.64 5.051-9.517 7.264l-3.178-.619c2.832-2.258 5.711-4.429 8.487-6.759 2.187-1.849 4.546-2.435 7.364-2.365.708-2.194 1.236-4.507 2.047-6.658.523-1.387 1.316-2.666 1.836-4.054.347-.927.498-1.925.853-2.847.347-.902.937-1.739 1.37-2.605.747-1.498 1.35-3.038 2.257-4.452-.535 2.41-1.44 4.596-2.182 6.935-.681 2.146-1.15 4.36-1.63 6.556m37.719-2.025c-2.24-.827-6.054-6.697-7.163-8.863 2.922 2.075 5.464 5.76 7.163 8.863m-41.853 13.178c2.182-1.252 4.891-1.34 7.103-2.621 1.279-.74 2.814-1.689 3.863-2.721 1.122-1.106 1.29-2.95 2.35-4.184.824-.959 1.751-1.936 2.709-2.757 1.065-.915 2.452-1.693 3.247-2.873.585-.869.924-2.005 1.35-2.964.461-1.04 1.007-2.042 1.559-3.036.07.073.072.056.094.168.091.476-.157 1.266-.25 1.749-.95 4.984-3.474 5.939-6.108 9.668-1.196 1.692-2.61 4.35-3.654 6.212-.628.35-1.298.608-1.913.99-.987.616-1.896 1.511-2.983 1.937-1.488.583-3.294.693-4.854 1.137-1.77 1.874-3.033 4.234-4.738 6.179l-.085-.105c-.337-1.52 1.626-5.279 2.31-6.78m61.831-13.511-.107-.048-.177-.082c-1.785-.81-4.172-2.863-5.013-4.645 1.023.39 2.037 1.12 2.999 1.661 4.006 2.256 4.229 3.856 5.102 8.11.177.866.325 1.768.63 2.6.475 1.29 1.527 2.397 2.108 3.678-.507-.137-.995-.55-1.399-.88-2.817-2.302-2.177-4.966-3.816-6.515-.22-1.262-.227-2.6-.327-3.88m-11.679 7.301c-.057.016-.117-.027-.173-.046-.112-1.838.278-3.822.423-5.67.084-1.076-.018-2.152.215-3.214.2-.91.684-1.807 1.076-2.651l.154.223c.017.745-.01 1.501.037 2.243.087 1.359.398 2.802.182 4.156-.263 1.65-1.22 3.442-1.914 4.958m16.267 10.644c-.853-.34-1.907-1.044-2.778-1.201-.597-.108-1.127.159-1.68-.205l-.175-.112c-3.882-2.563-5.004-7.292-7.506-10.781.39-2.547.114-5.172.072-7.74l.132-.051c1.12 1.794.89 4.25 1.944 6.042.353.6.914 1.054 1.29 1.647.637 1.007 1.029 2.267 1.801 3.174.624.733 1.54 1.184 2.123 1.951.695.913.734 2.12 1.343 3.06.982 1.517 2.405 2.729 3.434 4.215M78.994 163.607c.732-1.86 1.847-2.588 3.466-3.625l.115.154c-.272.687-.78 1.2-1.07 1.871-.35.813-.543 1.678-.846 2.506-.238.651-.565 1.276-.841 1.913-.372.857-.552 2.064-1.102 2.807-.17.228-.078.163-.351.214-.45-.862-.333-2.373-.933-3.058l-.263.044c-.637.512-1.087 1.22-1.419 1.958.25 1.043.788 2.347.446 3.409-.243.75-.728 1.039-1.399 1.385-.558.266-.849.485-1.087 1.067-.178.438-.23.704-.607 1l-.168-.049c-.162-.897 1.126-2.683 1.409-3.633.322-1.082.167-2.352.376-3.47.396-2.125 2.628-3.36 4.274-4.493m49.433 13.65-.034-.024c-.163-.694.736-3.009.914-3.872.35-1.697.049-3.602.745-5.213.686-1.59 1.92-3.129 2.77-4.67.452.655-1.63 5.597-1.854 6.727-.262 1.328-.215 2.726-.238 4.075-.85.923-1.565 1.963-2.303 2.976m-46.766 2.502c-.082-.079-.036-.02-.072-.21 1.111-1.078 2.457-1.875 3.572-2.972 1.075-1.058 1.818-2.397 2.873-3.452.62-.621 1.382-1.117 2.06-1.676 1.151-.948 2.22-1.983 3.468-2.81 1.303-.862 2.795-1.503 4.159-2.273l.082.08c-.126.636-.508 1.303-.775 1.901-1.868 1.215-2.76 3.33-4.084 5.043-3.026 3.916-6.4 5.722-11.283 6.368m67.617 1.519c-1.738-.767-3.046-2.722-4.447-3.976-.635-.57-1.51-.671-2.17-1.175-.91-.692-4.195-3.99-4.594-4.898-.444-1.012-.499-2.312-.649-3.403.547.387.866 1.595 1.315 2.168 1.188 1.514 2.726 2.907 4.068 4.297.687.107 1.35.27 2.024.439 1.56 1.608 3.74 4.451 4.453 6.548m30.278-1.213.093.08zm.093.079.1.078zm-96.9 6.604c.215-.337.246-.335.636-.427.993-.231 2.08-.232 3.094-.243 4.86-.053 9.174 1.348 13.85 2.342 2.487.528 5.031.906 7.575.96 6.43.139 12.302-2.761 18.668-3.003 6.964-.266 13.573 2.96 20.502 3.071 3.258.053 6.658-.46 9.855-1.06 4.65-.87 9.962-2.797 14.645-1.373a47 47 0 0 0-1.733 1.762c-4.209-.858-9.525.975-13.739 1.74-2.953.536-6.054.939-9.057.905-6.815-.078-13.225-2.981-20.109-2.965-6.996.017-13.178 3.337-20.425 2.87-5.57-.358-10.705-2.447-16.198-3.096-2.042-.241-4.07-.079-6.114.01-.37-.351-.73-.73-1.134-1.04l-.081-.108c-.058-.119-.159-.238-.235-.346"/><path d="M86.616 190.895c-.311-.518-1.097-1.196-1.212-1.746.267-.238.573-.194.922-.231 6.987-.465 14.439 3.315 21.815 3.346 6.084.025 11.754-2.575 17.792-2.95 7.329-.455 14.296 3.04 21.387 3.037 7.456-.004 14.5-3.099 21.863-2.966l-1.016 1.86c-7.195.49-14.17 3.28-21.435 3.03-6.905-.238-13.477-3.294-20.463-2.95-6.542.322-12.588 3.19-19.217 2.907-4.749-.202-9.124-1.717-13.74-2.634-2.228-.443-4.434-.586-6.696-.703"/><path d="M88.48 193.93c-.334-.724-.648-1.426-1.114-2.076 7.093.032 13.668 3.2 20.777 3.268 6.155.059 11.837-2.626 17.936-2.98 7.234-.42 13.997 2.988 21.135 3.031 3.656.022 7.56-.698 11.127-1.478 2.945-.643 5.87-1.43 8.903-1.46-.165.612-.293 1.24-.437 1.857-.061.216-.047.24-.216.407-1.588.112-3.18.152-4.75.437-5.065.918-10.047 2.457-15.264 2.206-6.815-.328-13.267-3.223-20.134-2.96-4.197.16-8.008 1.47-12.073 2.285q-1.859.37-3.749.52-1.889.149-3.783.073c-4.474-.189-8.51-1.6-12.846-2.48-1.833-.371-3.65-.55-5.512-.65"/><path d="M89.299 196.989c-.104-.764-.22-1.502-.409-2.25 5.975.391 11.512 2.871 17.486 3.131 2.762.12 5.495-.048 8.206-.608 3.893-.804 7.476-2.04 11.496-2.226 7.131-.33 13.487 2.756 20.479 2.97 6.861.208 13.189-2.447 19.956-2.765-.062.578-.016 1.583-.412 1.974-6.302.415-12.199 2.818-18.539 3.124-6.532.316-12.274-2.712-18.696-3.042-2.622-.136-5.36.005-7.928.565-1.906.416-3.743 1.125-5.628 1.626-1.969.523-4.034.751-6.067.835-5.516.229-8.521-1.266-13.561-2.44-2.093-.489-4.25-.67-6.383-.894m6.195 16.12c.927-3.814 2.38-7.468 3.537-11.21 1.281.445 2.919.834 4.022 1.63q.12.086.23.184.11.097.209.206.1.108.188.226.089.117.165.243t.14.258q.064.133.115.271.05.138.086.281.037.143.059.288c.186 1.155-.214 2.504-.893 3.442-1.664 2.3-3.537.161-5.242.418l-.138.315q-.612 1.998-1.142 4.018zm4.39-9.333c-.416 1.289-.878 2.582-1.244 3.884 1.012.406 1.916.754 3.025.78.589-.434 1.177-1.126 1.263-1.881.056-.497-.19-.983-.512-1.345-.65-.728-1.658-1.055-2.532-1.437m48.773 2.349.081.066c.218 1.878 1.782 7.23 2.462 9.07l-1.325.372c-.635-1.97-1.035-4.044-1.53-6.053-.42-1.708-.944-3.387-1.354-5.099l1.36-.445c2.154 2.553 4.038 5.481 6.366 7.866-.12-.897-.459-1.84-.687-2.72-.527-2.023-1.105-4.06-1.51-6.112l1.202-.339q1.288 5.499 2.754 10.953l-1.507.604c-2.027-2.747-4.254-5.301-6.23-8.096zm-43.491 6.524-.21-.087c-.937.42-.943 2.027-1.723 2.625-.294.226-.37.189-.712.135-.247-.18-.353-.23-.482-.516.653-1.385 1.53-2.679 2.28-4.016 1.157-2.069 2.212-4.21 3.5-6.202.52.102 1.034.24 1.548.365.038 1.91.797 10.683.46 11.761-.107.033-.288.096-.396.1-.162.006-.366-.047-.487-.16-.559-.52-.475-2.306-.538-3.049-1.11-.209-2.184-.561-3.24-.956m2.802-5.804c-.772 1.418-1.526 2.849-2.326 4.25l1.203.4 1.55.465c-.02-.843.02-4.637-.427-5.115m31.877 10.728.605-7.92c.096-1.221.036-2.784.41-3.934.353-.265.783-.256 1.208-.3l.105-.023c.072.033.157.046.216.099.242.216 4.549 9.153 5.507 10.699-.454.112-.914.204-1.372.305l-1.55-2.886c-1.228.294-2.486.518-3.723.774-.02.981-.011 1.963-.015 2.945zm1.83-10.24c.03 1.87-.09 3.725-.237 5.588.796-.178 1.598-.387 2.402-.517l.333-.125c-.004-.684-1.886-4.335-2.387-4.851-.034-.035-.074-.063-.112-.095m-30.029 9.742c.727-3.786 1.2-7.656 1.64-11.485l1.44.349c-.21 1.839-.528 3.676-.8 5.508 1.043-1.328 2.222-2.606 3.38-3.835.543-.577 1.084-1.185 1.94-1.16.302.008.447.048.661.258-.125.381-3.465 3.665-4.003 4.247q1.007 2.328 1.905 4.699l.733 2.21c-.524-.028-1.048-.079-1.572-.121-.53-2.005-1.307-3.96-2.06-5.89-.44.5-.914.968-1.384 1.44-.223 1.32-.259 2.694-.43 4.025-.49-.047-.969-.15-1.45-.245m22.335-8.954c-.893.04-1.765.164-2.663.154-.018-.03-.04-.06-.055-.093-.172-.383-.159-.943-.041-1.341 1.028-.309 4.69-.511 5.989-.662.123-.031.28-.015.409-.016.299.37.275.913.318 1.37l-2.625.382 1.267 10.06c-.466.093-.947.124-1.419.172l-.248-1.993c-.343-2.674-.597-5.358-.932-8.034m-7.075 10.523c-.908-.183-1.95-.7-2.517-1.454-.202-.268-.198-.409-.159-.73.148-.17.278-.323.466-.45.264-.175.26-.217.585-.157.175.282.357.576.601.805.339.318.865.489 1.326.448.553-.05 1.022-.376 1.341-.819.296-.41.388-.824.273-1.317-.294-1.255-1.88-1.689-2.852-2.307-.735-.468-1.43-1.145-1.617-2.028-.184-.866.126-2.008.604-2.738.56-.857 1.403-1.18 2.368-1.356.757.071 1.573.397 2.141.908.362.326.561.701.557 1.196-.002.289-.03.449-.257.637-.798-.09-1.511-1.09-2.38-1.288-.395-.09-.721-.038-1.047.205-.416.31-.752 1.12-.73 1.631.058 1.36 2.489 2.13 3.411 2.872.678.546 1.115 1.252 1.182 2.13.074.974-.252 2.17-.936 2.888-.688.722-1.398.902-2.36.924m-6.542-.632c.065-3.763.566-7.553.728-11.323l1.5.072q-.534 5.647-.865 11.309c-.447.04-.916-.026-1.363-.058"/></svg>