<svg xmlns="http://www.w3.org/2000/svg" viewBox="0 0 256 256"><path d="M101.807 0h14.89l.118.023c1.922.353 3.997.382 5.948.539l11.15.884 39.726 2.785 8.236.55c3.79.241 7.51.328 11.16 1.525q.53.17 1.053.362t1.036.405 1.018.447 1 .489.978.528q.483.275.956.57.472.293.931.606.46.314.906.645.447.332.88.682.432.35.85.717.417.367.82.751.402.385.788.785.387.4.756.816.37.416.722.846t.686.875.65.903c2.732 3.936 4.282 8.882 6.144 13.278l10.78 26.087 19.906 48.584c3.766 9.281 7.795 18.508 10.96 28.019.538 1.618.63 3.345 1.145 4.942v5.946c-.778 3.904-1.463 6.941-3.375 10.537-1.192 2.238-2.702 4.303-4.065 6.435l-8.465 13.229-17.292 27.018-15.87 24.939q-3.649 5.899-7.445 11.705c-1.611 2.517-3.175 5.122-4.95 7.525q-.657.895-1.389 1.731-.732.835-1.533 1.605t-1.666 1.468q-.864.696-1.784 1.319-.582.395-1.183.757-.6.365-1.219.7-.618.333-1.252.636-.635.302-1.284.572t-1.31.505q-.662.237-1.334.44-.673.202-1.355.373-.682.167-1.372.302c-1.28.245-2.626.313-3.887.615H83.008c-1.304-.26-2.673-.33-3.991-.562q-.768-.133-1.527-.31-.76-.175-1.507-.39-.749-.218-1.484-.476-.736-.255-1.456-.552t-1.424-.633q-.703-.334-1.387-.71-.683-.372-1.346-.782-.662-.412-1.3-.858c-2.606-1.807-4.749-3.986-6.62-6.538-2.069-2.824-3.85-5.884-5.7-8.854l-5.499-8.642-18.222-28.749-18.443-28.863-5.506-8.54c-1.449-2.225-2.985-4.439-4.226-6.787-1.336-2.527-2.386-5.27-2.93-8.082-.19-.974-.264-1.962-.44-2.937v-5.669c.286-.89.42-1.86.637-2.773q.488-2.085 1.196-4.106c.807-2.347 1.777-4.636 2.688-6.944l6.69-16.478 21.15-51.341 8.091-19.684q1.979-4.933 4.074-9.817c1.63-3.893 3.088-7.846 5.65-11.249C58.025 4.247 68.352 3.045 80.268 1.876c4.8-.47 9.61-.981 14.419-1.345C97 .356 99.385.354 101.678.02zm3.374 6.695q-11.355.375-22.666 1.443c-5.585.529-12.034.998-17.315 2.96q-.591.217-1.169.47-.577.251-1.139.536-.561.285-1.105.603-.544.317-1.069.666t-1.027.728-.984.786-.936.843-.885.895q-.528.556-1.013 1.148-.486.593-.927 1.22-.441.626-.834 1.283-.394.658-.739 1.342c-1.33 2.68-2.411 5.513-3.566 8.275q-3.11 7.37-6.102 14.789l-13.742 33.15-14.665 36.149-4.302 10.63c-1.12 2.71-2.34 5.402-3.272 8.184-.943 2.818-1.51 5.605-1.388 8.585q.02.552.073 1.101.052.55.136 1.095t.198 1.085.26 1.072.321 1.056.381 1.035.44 1.012.495.985c.97 1.801 2.211 3.5 3.316 5.224l6.225 9.754 18.017 28.195 17.914 28.154 7.238 11.46c2.348 3.725 4.518 8.02 7.798 11.004q.283.256.575.501.291.246.591.482t.608.461.623.44.638.418q.322.204.65.397.33.193.666.374.335.181.676.351.342.17.689.328t.7.304q.352.147.709.28.356.135.718.256.361.123.727.232.365.11.734.206.368.097.74.181.373.085.747.156c3.086.569 6.444.33 9.575.313l12.076-.01 49.316.007 13.243.012c4.614.006 9.694.458 14.16-.786 3.363-.938 6.807-3.06 9.267-5.527 3.112-3.123 6.59-9.482 9.083-13.378l18.632-29.4 21.111-33.038 7.538-11.744c1.14-1.806 2.404-3.601 3.4-5.488 1.556-2.947 2.404-6.05 2.376-9.39-.02-2.444-.542-4.773-1.311-7.084-1.176-3.53-2.659-6.947-4.05-10.395l-4.691-11.81-15.927-38.946-13.632-33.062-4.062-9.68c-.9-2.172-1.716-4.424-2.746-6.536-1.024-2.1-2.226-3.847-3.897-5.485-2.779-2.725-6.07-4.664-9.868-5.57-4.147-.988-8.712-.989-12.968-1.268l-22.813-1.38L125 7.472c-6.073-.385-12.109-.917-18.199-.827-.54.008-1.081.013-1.62.051"/><path d="m148.614 246.847-46.317.013H89.662c-3.065-.001-6.337.197-9.358-.367q-.339-.061-.676-.135-.337-.073-.67-.16-.335-.085-.665-.183-.331-.097-.658-.207t-.65-.231q-.322-.122-.64-.255-.319-.133-.632-.277-.312-.144-.62-.3t-.61-.322q-.302-.167-.597-.345-.296-.177-.585-.365t-.571-.386q-.282-.199-.557-.407-.275-.209-.541-.427-.267-.218-.526-.446-.26-.227-.51-.464c-2.412-2.279-4.035-5.3-5.784-8.09l-5.123-8.18-20.81-32.833-18.305-28.626c-1.741-2.7-3.407-5.46-5.174-8.14-1.473-2.232-3.124-4.43-4.411-6.775-1.375-2.505-2.223-5.09-2.295-7.961-.068-2.741.63-5.424 1.524-7.994.808-2.326 1.8-4.599 2.73-6.878l4.383-10.749 14.346-35.184 14.047-33.968 5.939-14.313c1.177-2.831 2.269-5.74 3.604-8.5q.34-.717.737-1.403.398-.687.85-1.338.452-.652.956-1.264.504-.613 1.056-1.182c1.966-2.031 4.207-3.6 6.854-4.608 5.489-2.091 13.494-2.61 19.361-3.122 7.457-.65 14.873-1.185 22.36-1.288 6.39-.11 12.793.455 19.164.845l32.6 2.12 18.093 1.089c3.53.21 7.316.18 10.78.927q.648.14 1.284.324.637.185 1.26.413.622.229 1.227.5.605.27 1.19.583t1.147.664 1.098.742q.536.39 1.043.816.508.427.985.887a17.9 17.9 0 0 1 3.704 5.05c1.023 2.045 1.85 4.2 2.73 6.309l4.219 10.077 14.737 35.62 15.1 37.138c2.91 7.195 6.127 14.368 8.557 21.737q.22.652.387 1.32.167.667.281 1.345.114.68.174 1.365.06.686.065 1.374c.033 2.93-.602 5.595-1.966 8.194-1.801 3.432-4.236 6.663-6.297 9.96-6.767 10.825-13.944 21.38-20.831 32.125l-21.246 33.404-6.188 9.853c-1.657 2.597-3.198 5.269-5.386 7.467-2.5 2.513-5.66 4.113-9.105 4.907-3.014.694-6.279.413-9.354.448q-9.139.097-18.279.056M96.892 117.575q-.095.058-.191.114c-.214.123-.396.163-.635.21-.704.137-1.023.483-1.403 1.075-.93 1.447-2.12 4.191-2.467 5.882 3.416-.012 6.223-1.656 8.737-3.848.602-.524 1.172-1.259 1.948-1.491.142-.042.282-.094.422-.138.148-.387.21-.772.585-.98.531.06 2.708 2.111 3.313 2.573-.624.535-1.642 1.942-2.391 2.07-.166-.249-.237-.463-.177-.77.078-.4.291-.756.369-1.166-.398-.121-.517.361-.846.053-.754.841-2.462 4.718-2.806 5.872l-.092.073.047-.126c.055-.146.043-.087.055-.19-.503.405-1.007.804-1.473 1.253.234-1.15.314-2.676.772-3.721.37-.845 1.003-1.615 1.504-2.389-3.605 3.245-4.093 3.978-5.105 8.837 3.266-.78 4.814-1.606 7.136-4.042.498-.522 1.016-1.344 1.577-1.757.741-.546 1.066-2.135 1.988-2.372l.164.126c-.158 1.282-.326 2.546.518 3.651.246.324.57.587.878.85 1.31-1.87 2.54-3.786 4.008-5.539-.263-.948-.477-1.593-.175-2.564l.058-.19.037-.112c-1.78-.498-3.287-.767-4.917-1.743-7.584-4.537-7.724-15.816-18.427-15.997-2.577-.044-5.128.514-7.662.912-3.687.578-7.376 1.116-11.056 1.743-1.964.334-3.93.805-5.904 1.06-1.458.25-2.863.577-4.254 1.082 1.352.694 3.2 1.708 4.742 1.349.24.147.253.182.377.42.664.18 4.01.993 4.413.927.24-.039.518-.285.752-.305.39-.034.844.39 1.208.436.624.078 2.49-.811 2.938-.525l.109.24c.874-.1 1.672-.507 2.528-.623.488-.065.946.226 1.432.106.272-.067.45-.258.622-.472q.12-.154.235-.312l.301-.062c.165.132.318.266.469.414.503-.062.82-.388 1.277-.532.404-.128.373.108.68.15.258.035 1.723-.634 2.058-.752 2.03-.716 4.6-1.336 6.496-2.186.762.189 1.34.426 1.989.88-2.195 1.475-4.154 3.44-6.565 4.559.865-1.252 2.028-2.088 2.98-3.236-1.78.888-5.315 2.391-6.707 3.508l-.166.13.096.062c1.6 1.002 2.762 1.407 4.617.959 2.423-.586 4.53-2.035 6.883-2.693.318-.09.918-.225 1.22-.046.562.332 1.741 2.015 1.854 2.663.022.125 0 .177-.026.287-.292.229-.33.297-.694.316l-.504-.289c-.935.411-2.909 3.163-3.739 4.05-.585.624-1.21 1.2-1.854 1.762.53-.78 3.872-6.204 3.812-6.801-.004-.043-.017-.084-.025-.126-.306-.032-.488.13-.722.313-2.253 1.767-5.62 6.395-6.542 9.142.463-.093 2.254-.298 2.489-.611.035-.048.096-.232.118-.293.764-.28 1.741-.537 2.43-.95.922-.553 1.771-1.353 2.637-1.999.881-.657 2.086-1.297 2.848-2.07.372-.376.611-1.054.91-1.508.84 1.011 1.638 2.06 2.583 2.976-.777.698-1.609 1.391-2.29 2.184-.716.833-1.266 1.792-1.894 2.689-.746 1.066-1.588 2.102-2.42 3.105.512-1.826.922-3.91 1.91-5.537.522-.578 1.29-1.217 1.35-2.01-.424.247-.986.575-1.254 1-.239.383-.162.594-.096 1.01m33.405.867-.154.058zl.058-.316zm36.079 2.692.138.059c3.663 3.412 9.04 7.924 11.824 12.053-3.7-2.45-6.988-5.815-10.352-8.72-1.21-1.043-2.4-2.188-3.767-3.02.382 1.166.564 2.414.873 3.605.627.37 1.483.971 1.823 1.622 1.233.97 2.285 2.11 3.47 3.13.633.544 1.337.993 2.002 1.497 3.054 2.314 6.143 4.336 9.916 5.268-1.306-1.799-2.513-3.678-3.866-5.443-1.717-2.24-3.643-4.342-5.59-6.382-.878-.92-1.869-2.103-2.992-2.709-.68-.367-2.461-.621-3.341-.901zm-3.7 20.723c-1.566-1.551-3.977-4.395-5.368-6.157-1.97-2.497-2.312-3.757-5.245-5.45.008.245.065.376.145.608.265.767.546 3.622.835 3.937l.438-.304.213.106.04.225-.23.31.09.113c.483.032.536.193.855.555 2.155 2.448 4.09 4.847 6.69 6.872 1.756 1.325 3.522 2.776 5.412 3.901-1.157-2-6.824-13.748-7.568-14.05-.538.012-1.057.068-1.59.14a44 44 0 0 0 2.426 4.288c.948 1.495 2.303 3.228 2.858 4.906m-53.605 5.316c.841-2.524 3.045-6.686 4.463-8.995-.388-.515-.797-1.021-1.136-1.57-2.932 5.612-5.58 8.548-6.992 15.129 1.92-1.69 4.012-3.332 5.764-5.191 1.962-2.187 3.79-4.753 5.323-7.259.727-1.188 1.34-2.453 2.104-3.617.445-.679.524-1.703.91-2.475l-.607-1.263c-.997 2.028-8.557 14.172-9.829 15.241m11.661 28.891c.295-1.46.823-2.889 1.236-4.32.698-2.427 2.398-9.262 2.324-11.587-.885 1.49-1.322 3.211-1.847 4.853-.61 1.906-1.295 3.809-1.807 5.743-.581 2.196-.998 4.45-1.516 6.663-.144.612-.715 2.194-.61 2.756.006.034.022.065.032.098l.381.148c.008.06-1.815 2.78-2.077 3.636l-.07.07.07-.07c.948-.787 2.675-2.696 2.965-3.913-.127-.184-.229-.327-.289-.546-.06-.218.056-.297.162-.481l.196-.013c.116.197.237.378.374.561q.048-.024.093-.052c.456-.306.865-.912 1.195-1.345 1.79-2.35 2.595-4.119 3.386-6.994.453-1.652 1.861-9.202 1.17-10.411-.3-.14-.329-.127-.657-.07-.355.89-.296 2.143-.5 3.103-.867 4.074-1.825 8.395-4.074 11.958zm-47.544 4.167-.187.008zq1.116-.494 2.217-1.022c2.74-1.335 6.564-4.389 7.567-7.324-.41.174-.824.353-1.248.494-1.814.603-4.213.524-5.924-.385-.4-.212-.845-.542-.938-1.014-.067-.34.057-.646.305-.87.517-.464 1.316-.709 1.955-.97 1.913-.783 5.09-1.77 6.152-3.61l-.072-.188c-1.241-.166-2.626.614-3.968.521-.598-.041-1.067-.183-1.47-.635-.33-1.497 2.545-2.69 3.566-3.468.979-.748 1.812-1.615 2.295-2.76l.074-.178c-1.195.06-2.674.256-3.82-.156-.394-.142-.568-.314-.754-.681.014-1.306 2.858-2.935 3.806-3.966.673-.731 1.066-1.461 1.474-2.358q-4.29-.17-8.584-.16c-2.32-.003-4.646.067-6.956-.183-1.1-.119-3.234-.54-3.825-1.556-.148-.254-.118-.31-.029-.564.411-.422.89-.58 1.462-.689 1.56-.295 3.315-.156 4.897-.161q4.04-.005 8.079-.051c.83-.007 2.077.163 2.845-.099.2-.243.263-.295.31-.601-.22-.165-.323-.209-.61-.232-.734-.06-1.515.107-2.262.101-2.099-.017-4.203-.113-6.304-.138-2.71-.032-5.636.16-8.282-.477.167-.236.335-.474.517-.698.509-.63 1.123-.984 1.903-1.188 2.151-.562 6.377-.032 8.89-.268.252-.26.19-.414.201-.768-.667-1.134-7.032-.222-8.608-.953l-.044-.207c.088-.149.093-.173.227-.312 1.234-1.291 6.932-1.206 8.801-1.208.237-.65.553-1.272.848-1.898-3.893.933-6.18.58-10.001-.34a8.8 8.8 0 0 1 1.779-.952l-.015-1.551c-.528-.048-1.151-.042-1.662-.158-.356-.082-.61-.213-.82-.517.016-.228-.009-.289.13-.485.703-.994 2.687-1.55 3.843-1.75l1.18-1.909c-.504-.045-1.019-.076-1.392-.456l.02-.226c.694-.728 2.236-1.027 3.197-1.331-2.609-.624-5.841-.372-8.186-1.832-.502-.312-.921-.741-1.044-1.336-.2-.963.346-1.786.858-2.544-2.18-.257-4.507-.091-6.703-.103l-14.258-.113c-2.467-.006-5.054.195-7.505-.005-.483-.039-1.081-.084-1.473-.394a1.52 1.52 0 0 1-.556-1.153c-.008-.292.068-.536.28-.747.223-.22.441-.317.753-.362 2.27-.331 6.707-.084 9.177-.082 7.514.007 15.045.19 22.556.116l.914-.765-.1-.001c-1.692.01-3.326-.38-5-.393-8.62-.066-17.248.233-25.873.1-.562-.3-1.123-.76-1.461-1.306-.177-.286-.178-.45-.12-.77.275-.267.478-.324.858-.387 2.713-.446 5.763-.225 8.52-.233l15.48-.01c-.259-.365-.489-.753-.726-1.133l-12.907.012c-2.296 0-4.681.123-6.97-.064-.563-.046-1.143-.082-1.523-.53.074-.24.059-.265.256-.454.37-.354 1.011-.722 1.51-.84 2.04-.481 4.605-.282 6.701-.303q6.763-.071 13.525.046c.773-.475 1.508-1.046 2.249-1.571-5.239.291-10.573.116-15.822.12-1.783.002-6.078.227-7.614-.12-.343-.077-.47-.135-.65-.433.034-.11.031-.131.112-.236.451-.593 1.783-.954 2.48-1.055 1.94-.28 4.151-.113 6.12-.145q6.644-.168 13.29-.163a28 28 0 0 1-2.89-1.727q-5.121-.053-10.243-.023c-1.802 0-3.789.156-5.565-.134-.474-.077-.932-.272-1.376-.453.63-.412 1.167-.74 1.911-.923 2.561-.63 10.569-.285 13.557-.265-.397-.726-.701-1.415-.907-2.217-1.647.007-9.209.349-10.105-.407l.103-.241c2.183-1.494 7.956-.642 10.746-.955.949-.106 1.866-.73 2.826-.967 1.98-.49 4.02-.7 6.003-1.195-1.798.017-11.306.293-12.366-.19l-.023-.173c.854-.55 2.435-.799 3.439-.892 1.907-.179 3.92-.05 5.834-.02q3.537.051 7.072-.1c4.456-.206 8.943-1.18 13.386-1.674-1.396-.392-3.487-.146-4.949-.146l-10.23-.027c-1.892-.002-3.849.108-5.731-.046-.367-.03-.733-.051-1.035-.28l.083-.167c.688-.391 1.37-.477 2.149-.531 1.713-.12 3.471-.068 5.19-.074l11.486.03c2.995-.02 5.987-.16 8.982-.205 2.074-.032 4.145.089 6.22.075 4.936-.035 9.865-.18 14.804-.141.646-1.005 1.41-1.793 2.293-2.591l-25.235.5c-2.401.026-9.801.423-11.797-.325l.013-.161c.936-.449 2.117-.493 3.139-.552 4.787-.275 9.66-.086 14.458-.075q9.28.061 18.554-.266c2.796-.074 3.793-1.373 6.645-1.031.802-.472 1.637-.883 2.466-1.305-4.734-.03-35.487 1.087-36.71.193.056-.056.103-.124.17-.166.627-.398 2.398-.465 3.165-.498 1.017-.044 2.039.007 3.057-.016 1.249-.028 2.497-.153 3.748-.184 2.615-.066 5.233-.025 7.848-.05l25.485-.322c4.226-.092 8.446-.484 12.669-.645q12.684-.404 25.375-.549c1.71-.005 3.368.297 5.065.417 1.26.089 2.447-.08 3.719.107-2.575.654-5.168.617-7.797.682q-4.707.12-9.415.14-9.982.094-19.954.565c-1.875.097-4.248-.278-6.027.296l.24.125-.077-.017 3.845 2.076c2.69-.297 5.415-.296 8.119-.402l15.292-.515c7.15-.207 14.307-.764 21.463-.756.865 0 2.692-.118 3.401.293l-.063.238c-.818.538-1.93.584-2.883.654-2.36.174-4.74.058-7.106.128l-14.283.486q-7.977.344-15.959.582c-2.442.078-4.896.228-7.339.188.687.773 1.225 1.62 1.768 2.497 2.459.297 5.084-.218 7.559-.302 5.506-.186 11.037-.247 16.538-.527 6.47-.33 13.011-.858 19.487-.921 1.578-.015 8.322.11 9.511.686l-.032.179c-.97.22-2.063.088-3.06.112-3.087.073-6.187.04-9.273.175-7.656.334-15.302.934-22.959 1.258-2.102.088-4.21.051-6.313.115-3.648.11-7.301.263-10.952.212l.977 2.43c1.974-.258 4.007-.175 5.996-.205 3.8-.057 7.684-.066 11.473-.352 2.528-.19 4.13-1.876 7.097-2.127 3.144-.266 6.586.022 9.716.326 1.698.166 3.413.424 5.12.436 4.488.034 9.008-.412 13.498-.547 1.439-.044 2.932-.14 4.367-.06.56.03.919.039 1.307.465.02.342.012.378-.156.677a1.85 1.85 0 0 1-.928.326c-1.532.148-3.237-.026-4.787-.032q-5.142-.066-10.279.148c2.126.455 4.29.788 6.431 1.169 1.034.226 2.07.578 3.13.645 2.318.147 14.709-.424 15.529.335.128.34.108.37.015.724-.094.085-.167.198-.28.254-.747.368-9.535.193-10.978.144 1.242.549 2.343 1.192 3.474 1.945 1.811.072 12.391-.193 13.085.28.268.182.356.385.376.69-.033.036-.062.076-.098.109-.262.231-.616.287-.953.328-1.352.164-2.811.03-4.174.022q-3.663.01-7.326-.028c.005.816-.073 1.421-.4 2.178 3-.115 6.006.003 9.008-.017 1.785-.011 3.837-.275 5.579.002.475.075.834.207 1.111.614.015.278.027.32-.111.556-1.48.522-14.211.3-16.714.222-1.307.704-2.654 1.181-4.055 1.653 4.79.083 9.566.208 14.358.207 2.217 0 7.672-.256 9.577.146.303.227.395.394.56.723-.011.166.022.263-.103.39-.319.325-.871.365-1.3.397-2.192.16-4.496.022-6.702.026-6.011.012-12.076-.139-18.08.091.481.53 1.034.966 1.587 1.418l15.086.078c2.14.011 4.382-.15 6.506-.008.389.026.792.113 1.132.31.332.19.4.359.475.705-.06.18-.115.344-.248.484-.396.42-1.03.576-1.582.64-2.046.234-4.37.029-6.44.03l-13.928.01c-.059.385-.142.766-.22 1.147l15.884-.01c2.537-.005 5.445-.243 7.93.047.861.101 1.252.807 1.733 1.438 1.22-1.072 2.728-1.698 3.933-2.826a7 7 0 0 1-.73-.047c-1.013-.136-3.257-.972-3.778-1.881-.252-.441-.166-.824.125-1.209.487-.643 1.267-1.088 1.87-1.621 1.702-1.505 2.674-3.788 3.183-5.956-.833-1.503-2.24-2.827-3.356-4.13l-6.014-7.05Q203.151 79.748 190.7 65.992l-7.333-8.254c-1.336-1.498-2.62-3.045-4.03-4.475q-4.43 5.73-8.629 11.63c-1.354 1.867-2.773 3.69-4.101 5.576a344 344 0 0 0-3.553 5.171c-.79 1.165-1.562 2.473-2.53 3.493-.274.29-.491.503-.899.504l-.083-.221c.362-2.367 2.771-5.105 3.84-7.312l.069-.145c-1.46 1.214-2.705 2.58-3.962 3.995-.821-4.873-2.9-9.511-4.412-14.19 2.7 2.496 4.28 6.316 6.525 9.236a25 25 0 0 0 1.535-2.135c-2.548-2.611-4.482-5.763-6.83-8.55.334 1.12.926 2.153 1.32 3.256-2.107-1.99-4.793-8.274-5.843-11.2 1.246 1.451 2.37 3.017 3.583 4.497l8.64 10.535c.25-.587.462-1.195.687-1.793-1.354-2.131-3.275-4.075-4.891-6.018l-10.106-12.121c-6.016-7.211-11.878-14.542-17.972-21.688-1.258-1.476-2.388-3.073-3.686-4.508-7.992 9.59-16.65 18.651-25.005 27.927l-10.46 11.733c-1.68 1.9-3.225 3.88-5.017 5.682.362.362.674.792.996 1.19 1.024-1.387 2.209-2.788 3.51-3.916-.494 1.992-1.735 3.675-2.57 5.522.929 1.785 1.915 3.42 2.485 5.37-2.706-1.642-4.318-4.713-6.04-7.271l-6.526-9.84c-1.134-1.672-2.228-3.433-3.567-4.947-1.525 1.577-2.793 3.416-4.228 5.078L58.053 73.757 39.177 95.898c-2.477 2.915-5.12 5.758-7.509 8.736-.28.349-.674.847-.784 1.28-.158.614 6.023 6.559 6.166 8.64.02.299-.04.4-.25.612-1.009 1.014-3.585.627-4.916.668 1.046.83 2.076 1.47 3.208 2.16.523.32 1.26.8 1.348 1.466.153 1.15-1.61 1.134-2.068 1.752-.03.341-.05.587-.23.89-.77.55-1.789.263-2.672.17 1.12 1.203 2.538 2.291 4.037 2.974.655.298 1.784.362 2.273.835-.12.22-.066.105-.158.342.55.656 1.678.902 2.05 1.694.154.327.214.634.095.985-.083.243-.287.414-.522.51-1.721.71-4.712-.262-6.318-.964 1.619 2.13 3.843 3.589 6.014 5.095 1.127.781 2.423 1.542 3.231 2.677-.03.175-.02.185-.102.36-.164.348-.428.54-.776.674-2.219.857-5.553.066-7.66-.804 1.331 5.847 10.085 7.553 11.433 9.939.185.328.146.646.026.99-.23.657-.832 1.028-1.434 1.304-2.497 1.147-5.444.864-7.937-.116.191.775.429 1.558.803 2.266 2.213 4.182 6.044 3.34 9.789 4.552q.06.019.119.04a13 13 0 0 0 3.247-3.101c-1.863.842-4.487 1.194-6.45.45-.44-.166-.803-.427-.978-.883a2 2 0 0 1-.084-.522c.074-.847 5.15-4.053 5.954-4.726 1.087-.91 1.932-1.821 2.592-3.082-1.002.125-2.645.234-3.517-.367a.79.79 0 0 1-.356-.648c-.02-1.229 2.451-2.897 3.26-3.664a24 24 0 0 0 2.043-2.203c-.769.016-2.308.064-2.94-.443-.253-.203-.375-.387-.389-.721-.037-.904 1.1-2.108 1.586-2.855.93-1.429 1.723-2.946 2.46-4.482.577-1.2 1.1-2.594 1.903-3.653l.224.059c.984 1.054 1.325 2.866 1.964 4.158a45 45 0 0 0 1.683 3.08c.714 1.197 1.889 2.51 2.22 3.863.038.152.096.41-.012.537-.517.613-2.14.545-2.876.578 1.378 1.798 2.728 3.088 4.263 4.699.227.238.803.725.738 1.07-.073.385-.339.654-.678.818-1.322.637-3.19.176-4.512-.226 1.737 3.29 7.771 6.07 8.62 8.45.111.31.039.692-.123.981-.213.384-.571.603-.987.718-2.52.695-5.048-.312-7.193-1.536 2.821 4.7 12.673 8.53 13.894 10.664l-.093.308c-.34.352-.643.565-1.09.767-3.328 1.501-6.309.466-9.517-.74 2.188 3.699 6.565 5.503 9.968 7.82.382.261.776.503.941.941l.04-.13.05.098c-.035.293-.07.576-.213.839-.282.52-.778.789-1.332.943-3.272.906-6.772-.186-9.624-1.783 1.936 2.892 5.526 4.69 8.75 5.714 1.304.415 2.696.665 3.933 1.258l.158.078c-.163.597-.391.991-.772 1.48m20.25 3.3c1.832 2.005 4.645 3.406 7.087 4.552l.085.031-.085-.03c-.077-.205-.156-.413-.206-.626-.118-.505-.047-.994.138-1.472.753-1.938 2.102-3.908 3.138-5.73 3.44-6.05 7.21-11.923 10.726-17.933-.605-.917-.623-2.166-.763-3.239-.583.415-1.465.956-2.195 1.04-.383.043-.775-.023-1.062-.301-1.006-.975-.215-3.697-.11-4.932.07-.804.06-1.618.056-2.424-1.653 1.3-4.558 3.834-6.812 3.571a1.6 1.6 0 0 1-1.122-.65c-.834-1.132-.405-3.026-.25-4.331-1.672.899-3.805 1.782-5.742 1.59-.969-.095-1.54-.383-2.158-1.128-1.131.136-2.273.205-3.408.296.855 1.685 1.994 2.75 3.472 3.888.656.49 1.565 1.04 1.63 1.942.022.314-.141.58-.37.78-.935.82-2.668.694-3.826.67 1.557 2.44 5.64 4.161 6.231 5.816-.032.334-.01.434-.3.65-1.126.839-4.399-.087-5.594-.417.537.608 1.125 1.352 1.798 1.808 1.78 1.207 5.748 1.662 6.953 3.322.05.262.105.48.029.746-.102.357-.364.615-.666.81-2.116 1.368-5.346 1.18-7.69.72 2.208 4.933 7.651 5.025 9.619 7.72.291.4.461.837.347 1.335-.12.527-.516.907-.967 1.172-2.338 1.38-5.429 1.465-7.982.755m48.415 30.034c1.764 2.962 2.776 6.378 4.295 9.478l2.182.07c.164-5.627-.057-11.255-.069-16.88l-2.638-.082q-.008 4.49-.135 8.976l-.204.015a83 83 0 0 1-3.56-8.885l-2.502-.006q-.132 8.393-.098 16.786l2.794-.007c.138-3.151.007-6.312-.065-9.465M101.948 12.688c-4.796.023-9.457.323-14.202 1.04.15.154.303.11.513.113q6.714.047 13.429.023 5.114.03 10.228-.056c1.535-.026 3.171.06 4.687-.178-4.88-.7-9.718-1.133-14.655-.942m.74 4.124-22.377.033-6.293-.008c-1.347-.003-2.748-.075-4.086.102-1.149.152-2.272.623-3.345 1.04l87.007-.01c12.073.008 24.198.237 36.263-.122-1.137-.403-2.35-.814-3.558-.92-3.576-.313-7.282-.13-10.874-.126h-18.788l-37.874-.007c-5.355.01-10.722-.069-16.074.018m21.308 3.873c-2.681.124-5.382.058-8.066.056l-13.353-.01-40.691.002c-.262.256-.735.607-.828.948l.084.079 39.595.03c7.494 0 15.043.186 22.533-.038.3-.287.702-.594.851-.985zm7.938.068c.362.333.717.687 1.1.996l41.725.036 12.532-.016c2.42-.005 4.962.138 7.365-.147a9.4 9.4 0 0 0-1.166-.861l-36.33-.03c-8.4-.002-16.83-.142-25.226.022M58.763 24.54l-.623 1.08 47.082.009 10.082-.003c1.224.002 3.396.227 4.528-.074l.712-.975c-6.775-.247-13.618-.06-20.401-.068zm76.754.029c.203.416.468.716.775 1.06l45.946-.018 10.936.017c1.55.004 3.475.229 4.975-.063l-.84-1.033q-16.566-.083-33.132.011l-18.341-.005c-3.435 0-6.887-.068-10.32.031m-78.535 3.686c-.173.357-.357.713-.518 1.075 4.775-.057 59.844.037 59.973-.036l.876-1.047zm81.81.047c.163.372.383.644.64.956l39.599.003c6.88.002 13.78.141 20.659.044-.048-.426-.213-.736-.407-1.115-14.355.169-28.718.037-43.074.056-5.79.008-11.631-.121-17.417.056m-73.385 3.76-5.856.01c-1.4-.006-2.825-.088-4.218.056-.232.238-.342.316-.43.63.195.236.364.278.663.301 1.567.121 3.258-.005 4.835-.004l10.589-.002 32.198-.018c3.272.001 6.557-.051 9.827.062l.791-1.026q-7.054-.065-14.108-.046zm76.75-.002-.322.067c.063.39.542.717.836.98 7.153-.193 14.335-.084 21.491-.086l36.744-.009.339-.05c.136-.287.119-.297.047-.61-.41-.414-.62-.383-1.179-.385l-30.778.055c-9.058.003-18.122-.075-27.178.038m-88.35 3.736c-.18.32-.358.55-.37.926 1.18.373 4.65.134 6.099.133l12.107-.007h24.572c4.501.001 9.051.117 13.548-.046l.65-.968-38.811-.05-11.33.024c-2.146.008-4.322.08-6.465-.012m90.811-.029c.321.345.637.697.967 1.034 19.129.038 38.291.174 57.419-.065-.056-.216-.094-.642-.278-.772-.346-.248-.928-.265-1.343-.279-1.236-.04-2.487.098-3.73.084q-10.542-.052-21.085.022l-20.883-.036c-3.684-.007-7.384-.077-11.067.012m3.23 3.647.96 1.08 38.92.023 11.287.01c1.804.002 3.8.174 5.574-.066-.15-.364-.263-.815-.6-1.045-4.912-.217-9.906.045-14.829.06l-24.96.018c-5.449.001-10.906.08-16.352-.08m-95.658.111c-.132.255-.384.606-.386.89 1.768.262 3.754.087 5.55.087h11.12l37.656-.005.581-1.003-34.24.007c-6.757-.004-13.525-.08-20.281.024m-1.496 3.618c-.146.357-.285.523-.187.903.35.196.654.263 1.056.268.82.012 1.648-.1 2.47-.11 2.6-.03 5.209.02 7.811.015l24.67.024 11.252-.013c1.255-.006 3.535.203 4.71-.126q.048-.016.094-.034c.202-.293.413-.447.367-.811a1.05 1.05 0 0 0-.54-.152c-.669-.009-1.338.086-2.008.09l-6.443-.014zm100.187-.018c.295.376.582.766.893 1.129l39.346-.008c1.882 0 14.08.228 14.86-.098l.046-.129c-.136-.276-.244-.706-.558-.81-.75-.246-7.979-.023-9.42-.023L166.6 43.2l-9.594.012c-2.034.002-4.097.064-6.125-.086m-56.974 3.812-30.498.025-9.269-.009c-1.318-.002-2.736-.144-4.037-.036-.543.044-1.064.198-1.46.581l-.04.151c.721.574 4.78.334 5.87.334l30.667-.032c4.685-.026 9.395.047 14.077-.114l.858-.935zm99 0-39.227.035.968.961 13.665.016 27.458-.03c3.653-.012 7.348.125 10.993.028.33-.009.566-.056.809-.293-.001-.316-.04-.36-.21-.63-.685-.34-12.543-.093-14.456-.087m-11.565 3.747c.315.465.712.735 1.159 1.062l17.375.01c3.063 0 6.21.145 9.262-.042-.138-.367-.227-.791-.525-1.045-9.074-.16-18.202.375-27.271.015m-133.722.073-.515 1.03c4.655.178 9.35.035 14.009.013 3.902-.018 7.843.108 11.739-.071l.882-.946q-8.78-.048-17.559.002c-2.844.006-5.715.075-8.556-.028m30.578.012c.25.398.434.785.862 1.007 1.547.152 16.455.117 16.924-.146l.11-.147c.158-.198.46-.465.471-.714-2.435-.11-4.915-.017-7.355-.018-3.667-.001-7.346-.053-11.012.018m78.578-.046.738 1.02c1.934-.002 18.368.111 18.736-.036.01-.005.226-.191.23-.195.02-.021.03-.05.046-.075l.43-.648c-.92-.299-17.95-.157-20.18-.066m-72.994 3.714c-1.028 0-2.077-.043-3.097.1l-.117.155c.227.378.377.535.81.657 1.608.45 6.898.158 8.86.15l2.564.003.85-1.114zm81.282 0-5.204.014.883.967c2.804.144 5.637.06 8.445.056l4.487.004.715-1.055zm37.375 0-18.031.06 1.112 1.06 7.042-.011c2.036-.005 17.529.146 18.075-.183-.03-.316-.104-.453-.287-.71-1.04-.505-6.344-.21-7.911-.217m-143.282.125-8.325.026c-1.237.003-2.57-.124-3.794.001-.505.052-1.266.19-1.65.558-.028.028-.045.067-.067.1.269.262.343.281.716.34 1.079.169 2.299.053 3.398.051l6.752-.017 13.136-.093c.271-.336.537-.677.819-1.004zm28.125 3.625c-1.023-.001-3.448-.285-4.24.338.284.33.927.639 1.36.68.39.037.8.016 1.192.011l3.844.039.78-1.083zm75.829-.06c.26.343.51.698.794 1.02 1.138 0 6.743.303 7.466-.327l.272-.513-.102-.142c-2.78-.216-5.642-.058-8.43-.037m24.956.124 1.231 1.122 23.214-.03-.627-1.115zm-143.77.145c-.133.326-.33.66-.252 1.017 2.111.314 5.848.058 8.113.054 4.637-.008 9.325.154 13.954 0l.544-1.089zm41.68 3.237c.173.347.357.867.666 1.097l.117-.074c.128-.333.308-.564.185-.91-.33-.086-.63-.103-.968-.113m80.157.269c.39.479.872 1.14 1.54 1.207.274.027.452-.023.71-.099.088-.084.178-.149.23-.26.167-.29.33-.414.251-.752-.781-.369-1.877-.111-2.732-.096m25.585.224 1.153 1.148c7.029-.02 14.073.084 21.1-.04-.098-.38-.144-.783-.445-1.058-2.309-.224-4.787-.027-7.114-.029zm-149.102.09c-.106.312-.287.654-.172.979 2.029.307 4.406.042 6.476.044 4.203.005 8.434.119 12.633.005.274-.008.637.018.873-.147.053-.037.1-.083.149-.124l.601-.568-.011-.124c-2.353-.17-4.786-.058-7.148-.06zm-1.699 3.912c-.084.362-.19.585-.078.945 2.06.33 6.373.051 8.637.051l6.299.026c1.147.006 2.365.091 3.503-.024.246-.025.393-.12.586-.259.219-.216.487-.425.625-.701l-.619.052.134-.128-.165.02c-2.07.237-4.379.048-6.47.048-4.148-.001-8.305.042-12.452-.03m154.372.02c.42.335.851.66 1.248 1.022q9.518.064 19.036-.018c-.086-.355-.118-.759-.415-1-2.978-.218-6.058-.036-9.05-.03-3.588.006-7.239-.136-10.82.027m-36.311 3.552q.304 1.917.953 3.745c.154-.169.29-.325.409-.52l.701-.994c-.6-.716-1.284-1.727-2.063-2.23m-119.495.158c-.11.33-.287.637-.212.982l.199-.077-.038.11c3.458.09 6.928.026 10.386.02 1.97-.004 4.057.137 6.01-.037.278-.025.456-.082.67-.26l.605-.692c-2.407-.189-4.903-.057-7.319-.057-3.427 0-6.875-.08-10.3.01m159.391.037 1.2 1.106c5.704-.002 11.458.146 17.157-.043-.096-.383-.11-.664-.383-.955-2.004-.23-4.196-.058-6.221-.052q-5.876.048-11.752-.056M37.914 73.653c-.102.39-.194.576-.09.97.953.242 13.21.169 14.69.018a1.6 1.6 0 0 0 .589-.175c.236-.249.49-.422.565-.761-.213-.039-.113-.052-.302.032l-.048-.075c-5.131-.091-10.272-.017-15.404-.009m165.125.078 1.198 1.082q7.281.056 14.562.02c-.08-.339-.11-.746-.391-.978-1.964-.256-4.119-.094-6.103-.1-3.08-.009-6.188-.102-9.266-.023M36.367 77.505c-.146.336-.305.585-.273.957 1.313.116 12.882.225 13.277-.087.03-.024.052-.058.078-.087l.73-.797zm170.686.001c.45.4.893.822 1.372 1.187q6.026.108 12.053.048c-.118-.33-.2-.777-.506-.977-1.537-.203-3.15-.113-4.7-.12-2.743-.014-5.478-.019-8.22-.138M34.704 81.124c-.098.35-.263.715-.19 1.074 1.067.135 10.045.203 10.449-.126.04-.034.075-.075.112-.112.28-.252.544-.445.719-.784-.002-.002-.475.038-.48.038l.06-.067q-5.335.02-10.67-.023m177.032.393 1.229 1.104c3.094.016 6.19.06 9.283.041-.19-.396-.323-.85-.681-1.109-3.205-.202-6.617-.132-9.831-.036M33.12 84.983c-.091.26-.334.714-.267.97 1.215.11 6.485.31 7.224-.245l.543-.522v-.138c-2.47-.207-5.018-.044-7.5-.065m183.164.539c.513.373 1.016.764 1.568 1.078q2.863.037 5.726.023c-.15-.403-.202-.718-.534-1-1.607-.38-5-.17-6.76-.101M31.602 88.893c-.138.3-.4.661-.332.984.79.135 3.086.338 3.76-.096l.036-.056 1.017-.842c-1.486.014-2.997.076-4.481.01m189.185.257c.5.391.992.807 1.52 1.157.913-.007 1.829-.002 2.742-.023l-.596-1.062c-1.227.052-2.445.117-3.666-.072m-97.828 5.527c-1.363.114-2.434.5-3.74.817-1.964.478-3.99.33-5.412 2.095-.912 1.132-1.355 2.743-1.695 4.133.424-.173.841-.346 1.279-.481 1.15-.356 2.41-.964 3.475-1.53.898.634 1.224 1.29 1.7 2.239l.39.118-.053.193.163-.061c1.053.735 1.943 2.2 2.142 3.462.382 2.415-1.06 4.416-2.439 6.222q-.814 1.058-1.648 2.1c1.55-.649 2.742-2.068 4.188-2.94-.457 1.574-1.132 3.154-2.67 3.955-.942.49-2.065.585-2.984 1.13l.02.114c.114.031.433.078.513.14.509.393 1.148 1.38 1.454 1.935l.105.197c.431-1.072 1.508-3.002 2.557-3.546.187-.097.133-.066.346.019.154.508-.256.86-.18 1.253.109.568 1.156 1.77 1.575 2.21.886-1.947 2.245-3.68 2.93-5.696l-.063.086.027-.227.094.076.213-.07c.996 1.653 2.482 3.548 3.952 4.812.428-.749 1.317-2.79 2.124-3.083.51.26 1.146 1.95 1.596 2.495.404.488.897.858 1.42 1.205.42-1.247 1.14-2.416 1.801-3.55-.837-.695-1.218-1.383-1.59-2.398 1.893.57 3.721 1.541 5.538 2.323-1.091-1.522-2.108-3.115-3.246-4.6-1.234-1.609-2.96-3.093-3.768-4.962a23.7 23.7 0 0 0 4.417 1.74c-.836-1.536-1.832-3.158-3.046-4.428-.541-.566-1.37-1.051-1.777-1.702.288-.205.626-.124.965-.066q.253.046.504.1c-.452-1.86-1.23-3.544-2.92-4.606-2.26-1.421-5.694-1.394-8.257-1.223m-28.69 2.86 1.027.304c1.47.432 2.716 1.22 3.983 2.056 1.369.003 8.29.258 8.95-.342l.094-.34c.223-.595.464-1.142.76-1.705-2.302-.036-4.602.119-6.907.102-2.619-.019-5.297-.22-7.907-.074m61.685 2.66c-5.716.409-11.463.234-17.181.555.302.654.589 1.317.973 1.927.091.152.24.515.409.558.334.085 12.594-.453 13.784-.617.302-.347 2.018-2.124 2.015-2.423m-48.546.48c-2.284.313-4.618.18-6.92.268.589.61 1.206 1.208 1.758 1.85.634.496 5.035.115 6.165.105l-.043-.14c-.2-.671-.149-1.423-.456-2.038-.241-.086-.267-.085-.504-.046m57.99.503c-3.225.143-5.191.816-7.402 3.249-3.862 4.25-6.768 10.116-11.917 12.97-1.065.59-2.16.936-3.317 1.294.15.541.345 1.053.067 1.587-.16.31-.431.502-.695.72.919 1.532 1.987 3.04 3.332 4.231.582.515 2.931 2.237 3.168 2.749.038.081.02.337.01.392-.043.251-.195.54-.293.778.45.835.796 1.675 1.127 2.563a14.5 14.5 0 0 1-1.858-1.815c-.696.739-1.266 1.47-1.752 2.366 1.408.515 3.262 1.952 4.782 1.59.23-.182.293-.283.313-.584.037-.568-.167-1.226-.291-1.78-.794-3.537-2.47-5.591-3.66-8.762 2.49 1.614 3.388 3.999 5.484 5.861.98.871 2.173 1.466 3.338 2.048.512.255 1.375.714 1.96.506.309-.11.448-.299.56-.594.305-.809-.272-2.658-.657-3.41-.324-.088-.312.089-.57.081-.314-.009-.923-.437-1.195-.597.187.697.587 1.802.285 2.495-.244.034-.15.065-.349-.08-1.044-.767-1.24-2.759-1.855-3.883-.907-1.658-2.445-3.153-3.993-4.213.594 1.25 1.185 2.493 1.612 3.812-1.28-1.15-2.293-2.56-3.558-3.709.675-.824 1.25-1.77 2.392-1.868 1.02-.088 2.404-.022 3.193.706.238.22.53.49.49.845-.013.113-.103.323-.146.433l-.191.054a12 12 0 0 0-.719-.538l-.191.095c-.057.49.101.783.4 1.168 1.103 1.418 2.964 2.992 4.333 4.189.076-2.223-.37-4.534-2.005-6.191-.085-.087-.252-.224-.345-.303-.482-.415-.976-1.304-1.1-1.935-.025-.13-.012-.17.005-.286.302-.11.458-.137.765-.009 1.459.611 3.2 3.435 4.434 4.573 1.072.987 2.551 1.813 3.865 2.426-1.752-6.397-1.217-5.472-5.89-9.951.653 1.113 1.382 2.184 2.023 3.301.492.856.878 1.785 1.4 2.619-1.503-1.046-2.543-2.408-3.69-3.812l-.903-.972c-.212.418-.377.844-.767 1.125-.34.038-.397-.007-.71-.158-.207-.355-.285-.591-.185-1.002.254-1.034 1.323-2.55 2.077-3.266.303.025.42.041.677.225.574.41 1.069 1.014 1.618 1.475 1.878 1.574 3.785 3.19 5.864 4.493 1.229.77 2.426 1.274 3.82 1.663-1.315-2.288-4.812-10.108-7.427-10.677-.2-.043-.145-.018-.329.124-.183 1.127 2.664 4.372 3.264 5.538l-.091.051c-.835-.687-1.552-1.488-2.354-2.209-.75-.674-1.64-1.255-2.339-1.973a1.45 1.45 0 0 1-.412-.814c-.102-.825.732-1.724 1.262-2.281.296-.311.598-.626.926-.903.248.325.509.69.84.934 2.125 1.556 7.487 3.749 10.098 4.198-1.007-2.367-3.573-5.92-5.754-7.317-.371-.239-.732-.324-.553-.804.413-.286.787-.409 1.267-.547 2.278.45 4.662.539 6.972.813 3.417.406 6.818.906 10.227 1.377 2.25.31 4.531.538 6.765.946-4.876.743-10.638-.24-15.56-.798-1.903-.215-3.803-.316-5.686-.686-.158-.03-.098-.022-.278-.016l-.062.316.006-.014.11.152c.195.262.417.669.758.736.633.126 1.778-.356 2.243.19.054.063.13.19.176.265.934.397 2.272.46 3.284.634 6.582 1.13 13.344 1.278 19.688-1.021-1.969-.87-4.231-1.212-6.329-1.687-5.823-1.319-11.524-2.39-17.467-3.037-2.125-.23-4.293-.526-6.436-.454m-49.513.365c-.611.227-1.324.411-1.843.812.184.169.294.106.535.104.487-.027 1.431.046 1.801-.271l-.062-.258q-.077-.044-.153-.09c-.217-.137-.143-.072-.278-.297m33.926 2.4c-3.061.111-6.149.313-9.21.29.33.874.694 1.703 1.119 2.535l1.374-.14q3.966-.2 7.935-.296a42 42 0 0 0 1.854-2.47c-1.023.02-2.05.025-3.072.081m-46.662.066c.465.783.911 1.589 1.418 2.344 1.577-.019 11.194.287 11.786.002-1.313-.985-3.37-.629-4.894-1.12-.937-.302-1.86-1.011-2.833-1.15-1.763-.25-3.683.025-5.477-.076m2.08 3.381c.434.618.849 1.265 1.34 1.839 1.24-.02 8.125.117 8.692-.47.028-.028.05-.06.076-.09.269-.346.55-.687.79-1.053-3.634.025-7.264-.154-10.898-.226m39.219.305q-1.256.068-2.513.034c.413.828.89 1.578 1.466 2.303 1.313-.246 2.675-.12 4.005-.17.72-.056 1-.17 1.48-.729.408-.475.75-1.043 1.099-1.563-1.819.012-3.733-.072-5.537.125m26.849.01.763.869c3.891 1.244 7.616 3.01 11.314 4.74 1.26.59 2.495 1.284 3.788 1.796-4.413-.668-10.722-4.161-14.875-5.996.463.756 1.738 2.38 1.53 3.246-.04.168-.13.356-.195.513l.163.188c1.311.555 2.534 1.28 3.853 1.821 4.12 1.692 8.531 1.996 12.925 1.376-4.584-3.37-13.705-7.733-19.266-8.553m60.256.124c.007.32-.016.468.226.713.083.085.27.21.371.282-.052-.32-.078-.673-.373-.872-.07-.048-.149-.082-.224-.123m-151.225 1.54c-5.341 1.641-10.093 4.293-15.122 6.64 4.063 1.225 8.062 1.055 12.087-.222.92-.292 1.846-.58 2.7-1.04.273-.146.532-.31.797-.47.159-.097.299-.203.485-.221l.405.07.136-.101c.932-.646 1.905-.963 2.779-1.75-.716-.21-1.293-.409-1.912-.844-3.494 1.82-8.391 3.665-12.36 3.748 2.864-1.15 9.757-3.157 11.682-5.093-.517-.23-1.134-.596-1.677-.718m26.947.834c.624.862 1.261 1.593 2.1 2.254 1.067.001 2.134.01 3.2-.035l.623-.905a11 11 0 0 1 1.075-1.274c-2.311-.003-4.693.121-6.998-.04m36.735.75c.403.7.81 1.386 1.264 2.056l1.118-.992.877-.865a57 57 0 0 0-3.26-.2m22.115 1.172c.653 1.072 13.9 8.361 16.684 11.229-2.308-1.023-4.704-2.057-6.911-3.287-2.389-1.332-5.36-3.358-7.793-4.39.233.447 1.981 3.567 2 3.77l-.06.372-.007.016c.399.117.48.163.757.48.382.436.933.852 1.492.999 1.129.297 2.198.944 3.297 1.352 3.428 1.273 7.37 2.1 11.025 2.09-3.243-3.043-10.678-8.629-14.507-10.71-1.239-.673-4.635-1.95-5.977-1.921m-76.721.23c-.6.203-1.203.445-1.835.52l-.308-.307c-1.272.547-4.79 3.388-6.13 4.353-1.993 1.436-4.081 2.733-6.093 4.141-1.793 1.257-3.504 2.614-5.263 3.916 5.191.62 10.773-1.9 14.787-5.059.372-.293.683-.59.964-.974 1.055-1.213 2.14-2.41 3.053-3.737-4.013 3.245-9.578 6.591-14.52 8.105 4.176-2.731 8.445-5.36 12.499-8.268.903-.648 2.045-1.292 2.85-2.047.213-.2.276-.293.343-.567-.255-.092-.138-.078-.347-.075m9.623 2.58h.116zm37.667-.104c.55.93 1.157 1.977 1.987 2.687.26-.136.525-.29.792-.412.291-.135.61-.144.925-.168l.254.043.01-.192c-1.065-.885-2.634-1.597-3.968-1.958m-11.385.227c-.239.506-.551 1.013-.553 1.583.153.284.26.436.59.527.213.059.47.05.691.058l.438-.117c.08-.589-.553-1.354-.897-1.802-.11-.144-.09-.107-.27-.249m-102.56.555c-.91 1.123-1.526 2.224-2.971 2.724-1.273 3.553-2.814 7.09-4.324 10.552-2.42 5.547-4.82 9.585-3.122 15.854 3.343-1.212 8.075-3.135 9.679-6.592q.257-.568.458-1.159c-2.025.473-3.692.74-5.763.45-.809-.172-2.148-.39-2.594-1.185-.128-.228-.136-.373-.137-.626.667-1.195 7.65-3.993 9.888-7.51-1.704 1.097-3.923 2.1-6.003 1.654-.486-.104-.886-.296-1.165-.724-.22-.334-.32-.733-.232-1.129.13-.595.61-.862 1.106-1.144 2.517-1.43 4.836-2.594 6.847-4.747-1.353.626-3.226 1.569-4.737.983-.259-.1-.387-.203-.487-.46-.259-.668-.02-1.689.307-2.298.855-1.593 3.25-3.099 4.569-4.46-.438-.057-.885-.098-1.318-.183m208.938.043c.325 1.101 3.04 2.33 4.042 2.965l.007.184c.055 1.171.962 3.151.129 4.128-.258.302-.627.373-1.003.37-1.145-.012-2.262-.534-3.238-1.08 1.718 2.222 6.563 4.5 7.15 5.601.102.193.107.656.075.871-.055.36-.218.6-.522.803-.926.615-3.162.227-4.182-.091-.984-.307-1.865-.78-2.76-1.281a14.2 14.2 0 0 0 2.951 2.683c1.249.852 7.335 3.765 7.307 5.07-.005.242-.17.47-.351.62-1.084.9-3.483 1.094-4.842 1.146a16 16 0 0 1-3.623-.465c.727 2.635 2.837 3.962 5.098 5.25 1.838 1.047 3.774 1.727 5.767 2.413.522-2.46.659-4.447.187-6.936-.236-1.245-.657-2.488-1.099-3.673-.816-2.189-1.874-4.297-2.756-6.463a383 383 0 0 0-3.211-7.656c-.556-1.287-1.058-2.722-1.812-3.898l-.085-.127-1.513.383c-.582-.38-1.019-.681-1.716-.817m-100.352.557c-.339.559-.706 1.093-.88 1.728.15.225.072.148.201.257l.341.054c.256-.2.36-.43.402-.75.056-.43.01-.865-.064-1.289m5.195.885c-.296.928-1.335 2.84-2.185 3.321-.167.094-.17.085-.33.12l.252-.067-.345-.052c-.021-.116-.039-.435-.094-.522-.31-.49-1.233-1.103-1.662-1.536.072.558.123 1.132.242 1.683.267.286.61.597.82.925.281.439.447.989.682 1.458.7 1.396 1.754 3.412 3.126 4.243l1.042-1.04c1.237-1.446 2.345-2.939 3.323-4.573-.508-.854-.975-1.615-1.675-2.327-.212.444-.417.868-.694 1.276-.357-.209-.788-.555-1.196-.557-.173.252-.278.356-.23.683.037.263.182.566.274.817-.089.259-.094.257-.326.403-.38-.165-.503-.605-.65-.976-.133-.34-.251-.502-.15-.869.322-.303.48-.39.598-.825-.125-.524-.481-1.165-.822-1.585m-17.418 1.071.08.105c.249.345.33.546.372.966.039.386.077.683.376.931.262-.037.37-.114.575-.278-.021-.448.015-.902-.273-1.273-.356-.207-.742-.32-1.13-.45m6.666.408c-.947.445-.877 1.483-1.712 1.365a3.7 3.7 0 0 1-.55-.787l-.055.025-.036-.115c-.226.53-.281 1.098-.368 1.664.738.823 1.237 1.833 1.903 2.716 1.025 1.358 2.242 2.615 3.382 3.878l1.675-2.426c.839-1.179 1.491-2.475 2.123-3.773-.24-.306-.556-.819-.958-.893-.334-.062-.521.092-.782.266-.51-.369-.362-1.578-1.178-1.438a2 2 0 0 0-.525.15l-.088.286.107-.159c.144.75.307 1.5.397 2.258-.312.257-.62.53-.943.77-.509-1.071-1.268-3.364-2.392-3.787m-9.788.222c-.606.72-1.12 1.42-1.555 2.26 1.18 2.088 2.742 3.951 4.433 5.651.61-1.29 1.697-2.252 2.235-3.539.394-.875.796-1.706 1.303-2.522-.277-.352-.547-.715-.845-1.05l-.128.097c-.577.45-1.443 1.931-2.013 2.07-.567-.515-.557-1.782-.608-2.51-.289.464-.568.939-.87 1.394-.657-.389-1.467-1.71-1.952-1.85m-23.64.836c-.281.173-.596.279-.688.628-.021.08-.02.164-.031.246-.206 1.44-8.176 8.691-9.942 9.93-1.08.756-2.191 1.48-3.299 2.196 2.011-2.265 4.231-4.263 6.342-6.426 1.963-2.013 3.758-4.168 5.864-6.037-1.028.27-2.062.587-3.106.786-.763.934-1.664 1.717-2.566 2.513-4.323 3.827-7.688 7.937-10.78 12.807 5.681-1.222 12.598-6.295 15.792-11.184 1.079-1.651 1.83-3.496 2.488-5.347zm94.899.298-.054.188c.237.258.472.518.718.767l20.478.018c3.652-.001 7.438-.205 11.07.113.567.36 1.904.998 2.24 1.554-.244.497-.652.773-1.177.931-1.92.577-8.553.242-10.988.237l-19.39-.018c.274.779.53 1.495.173 2.299-.335.754-1.04 1.194-1.79 1.464-2.27.82-4.97.969-7.36.776l.7 1.11c1.907.026 5.326-.097 6.787 1.279.083.079.107.116.183.212l-.006.245c-1.133.82-4.075.467-5.423.38.425.583.838 1.195 1.303 1.748.943.003 3.139-.266 3.828.38.218.204.279.52.24.808-.043.311-.192.477-.471.613-.59.288-1.82.08-2.473.04.172.624.33 1.258.538 1.873.57-.002 1.415-.118 1.851.32.142.142.203.295.27.478-.064.264-.06.33-.304.485-.765.486-1.846.324-2.717.813-2.095 1.175-5.16.605-7.483.54l.713 1.198c2.489-.008 8.967-.5 10.66 1.109l.055.256c-.392.511-1.398.619-2.012.703-1.646.227-3.298.28-4.956.3-.963.012-1.973-.047-2.925.097-.137.26-.131.608-.037.898.04.121.077.153.15.24 2.113.563 8.773-.867 9.959.805a.93.93 0 0 1 .124.82c-.1.335-.35.556-.66.696-.389.175-.827.236-1.249.263-2.522.166-5.126-.005-7.662.038-1.301.023-2.602.25-3.9.23-1.025-.015-2.071-.211-3.085-.36l.755 1.154q4.871.103 9.743.116c1.738 0 3.66-.186 5.37.036.298.04.552.101.758.331.178.198.215.301.273.552-.053.357-.152.589-.442.81-.64.49-1.613.888-2.406 1.042-1.878.364-12.44-.194-13.15.34-.18.137-.439.756-.606.958-.323.395-1.016.685-1.462.93l.139.124c1.026.898 4.887 3.114 4.958 4.341.018.305-.126.555-.347.75-.706.617-2.053.685-2.93.558-.626-.091-1.258-.263-1.868-.427.724 1.118 1.482 2.03 2.52 2.87 1.136.92 4.393 2.039 4.18 3.737-.244.448-.51.654-1.009.787-1.449.385-3.595-.453-4.985-.887.632.948 1.298 1.599 2.28 2.179 1.3.767 6.483 2.017 6.22 4.014-.046.342-.263.596-.545.774-1.966 1.245-5.167.538-7.33.365 1.274 3.019 3.949 5.15 6.767 6.694.713.39 1.5.684 2.19 1.111.309.19.43.288.49.644-.829 1.365-6.429 2.665-6.218 4.264 1.214 1.324 3.498 1.957 5.259 2.032 4.239.18 7.944-1.352 12.586-.866.914-1.636 1.827-3.172 2.207-5.031-4.117 3.267-9.167 4.959-14.465 4.295-.527-.066-1.188-.175-1.555-.592-.142-.16-.173-.354-.164-.567.037-.869 1.203-1.673 1.855-2.127.857-.598 2.873-1.383 3.413-1.986l-.002-.08c-.874.033-1.934.1-2.61-.578-.154-.155-.155-.224-.22-.422.094-.415.349-.649.693-.879.875-.585 1.954-.779 2.96-1.026 3.533-.867 6.367-1.986 7.897-5.529q.065-.15.132-.299c-2.905 1.619-5.557 3.125-8.987 2.18-.468-.129-1.07-.325-1.328-.777-.193-.338-.111-.735.043-1.067 1.462-3.15 8.479-4.377 10.553-9.574-2.474 1.301-5.167 2.65-8.034 1.846-.653-.184-1.806-.659-2.183-1.244-.132-.205-.131-.378-.132-.612.987-2.701 10.109-5.119 12.72-10.252-2.122 1.324-3.613 1.803-6.1 1.241-.554-.125-1.25-.326-1.61-.804-.14-.186-.256-.547-.201-.781.243-1.031 5.547-4.311 6.678-5.29a12.3 12.3 0 0 0 2.359-2.707 9 9 0 0 1-2.488.799c-.674-.444-1.898-1.05-2.087-1.918-.09-.407.043-.741.287-1.06.602-.79 1.666-1.418 2.423-2.078.617-.536 1.135-1.196 1.62-1.85-1.375-.499-2.335-1.029-3.258-2.198 1.515-1.629 2.809-3.234 3.916-5.17.648-1.134 1.235-2.492 2.025-3.523.22-.287.396-.335.736-.42.637.167.995.778 1.308 1.318.764 1.32 1.382 2.658 2.262 3.916.78 1.114 1.861 2.195 2.514 3.364.181.325.324.72.264 1.098-.068.423-.367.71-.717.918-.727.433-1.784.54-2.616.656l.093.159a7.3 7.3 0 0 0 1.628 1.909c.93.786 3.231 1.881 3.341 3.147-.19.468-.503.643-.947.833-1.234.526-2.592.608-3.913.664l.094.139c1.032 1.483 3.892 3.74 5.435 4.731.947.609 2.217 1.178 2.998 1.985.36.37.574.877.468 1.397-.07.343-.292.614-.59.788-1.903 1.109-4.702.195-6.64-.358.752 1.614 1.922 2.453 3.404 3.367l.143-.083c4.415-2.497 9.275-.844 11.123-7.22q.098-.338.187-.678c-2.457 1.185-5.36 2.44-8.114 1.521-1.121-.374-2.566-1.197-3.218-2.202-.04-.298-.079-.364.113-.617 1.646-2.174 8.473-3.618 10.977-6.538.728-.85 1.161-1.86 1.591-2.88-2.243.232-6.903.663-8.721-.908-.207-.178-.37-.427-.402-.7-.021-.182.103-.27.22-.39.626-.644 1.548-1.1 2.325-1.533 2.6-1.445 5.986-2.899 7.472-5.603-1.842.99-4.28 1.906-6.395 1.303-.316-.09-.643-.25-.818-.542-.173-.287-.185-.556-.16-.878 1.285-2.099 5.513-3.075 7.441-5.977-1.223-.263-2.346-.465-3.435-1.126-.222-.4-.431-.785-.591-1.215l-21.284-.03c-3.564-.008-7.514-.256-11.041.066m-64.663 3.584.086.113.028-.002zm-8.93.045c-1.154 1.682-2.217 3.45-3.526 5.015.495 1.196 2.946 7.041 3.709 7.513.517-.293 1.085-1.7 1.44-2.226 1.197-1.727 2.316-3.403 3.226-5.307-.642-.745-1.279-1.475-2.023-2.12-.406-.351-.881-.624-1.254-1.005-.286.557-.617 1.464-1.223 1.711-.34-.021-.373.008-.617-.222-.17-.954.998-2.558.559-3.286zm18.934.145c-.277.538-.665 1.123-.745 1.727l.143.188c.333-.248.743-.526.826-.966.052-.279.041-.61-.125-.855-.026-.037-.066-.063-.099-.094m8.938-.034c.024.473.15 1.32.467 1.682l.024-.177c.212-.38.395-.57.363-1.011-.263-.266-.515-.362-.854-.494m-19.271.225a7.6 7.6 0 0 0-.4 1.481l.088.168.167-.115c.258-.412.61-.837.609-1.34-.225-.175-.21-.153-.464-.194m1.621 1.058c-.354.701-1.266 1.456-1.948 1.829l-.335.004c-.175-.36-.025-.72.04-1.11-.231-.018-.136-.05-.328.118-.822.722-1.16 1.877-2.02 2.618l-.124.108-.075.063c.403 1.042.799 2.048 1.33 3.032.935 1.736 2.036 3.269 2.54 5.206l.128-.105c1.757-1.465 3.413-6.939 4.955-6.839.458.03.798.445 1.024.803 1.227 1.948 2.287 4.096 3.715 5.911.85-1.91 3.325-6.212 4.863-7.496 1.253 2.128 2.578 4.252 3.648 6.48.13.293.204.448.466.639h.264c.765-.774 1.294-2.367 1.86-3.337.93-1.59 1.98-3.094 2.856-4.719-1.003-.998-2.261-1.808-3.347-2.736-.409.374.092 1.178-.652 1.317l-.433-.373c-.304.143-.22.452-.587.588-.6-.376-.698-1.52-.938-2.147-1.033 1.374-1.947 2.913-3.066 4.207-.856-.765-1.694-1.484-2.678-2.08l-.536.582-.188.003c-.17-.271-.17-.273-.133-.59l.32-.45c-.116-.433-.398-.803-.642-1.175-.448.86-.995 1.354-1.933 1.665-.102.033-.22.052-.323.072l-.191-.119.038-.194a4 4 0 0 0 .06-.625l-.174-.07c-1.031.642-1.815 2.741-2.96 2.94-1.078-.468-2.443-2.037-3.244-2.929a17 17 0 0 0-.679 2.174c-.221-.823-.754-2.19-.31-2.966-.075-.102-.145-.252-.263-.299m36.951-.096c2.133 3.227 4.713 6.335 7.098 9.386 1.617 2.069 3.579 4.217 4.603 6.653l-13.118-14.685c.2 1.579.518 3.236.944 4.769l.81.89c.205.231.393.435.535.712.344.672 1.779 2.451 2.356 2.837.367.245.445.68.565 1.082l.112.077c.786.548 1.792 1.329 2.454 2.015.255.263.381.651.634.919.338.357.82.638 1.212.935 2.14 1.625 4.244 2.88 6.848 3.64-1.707-3.775-4.05-6.922-6.42-10.28q-2.617-3.747-5.187-7.525c-1.437-.032-2.184-.948-3.446-1.425m-63.476.237c-1.207 1.218-2.043 2.81-3.062 4.187-2.988 4.038-6.554 8.143-10.873 10.789 2.048-2.12 3.929-4.468 5.79-6.753 1.882-2.31 3.84-4.654 5.438-7.175-.975-.07-1.726-.232-2.514.48-.758.683-1.34 1.776-2.014 2.575-3.784 4.659-7.55 9.173-9.901 14.782 1.897-.776 3.859-1.709 5.54-2.885 3.24-2.266 8.38-7.706 9.91-11.4.35-.849 1.721-3.876 1.686-4.6m-60.068.963h.151zm69.17.308c-2.44 2.45-3.239 5.05-3.236 8.494q.001.323.005.646c1.093-.986 2.263-1.956 3.253-3.047.452-.497.816-1.06 1.248-1.571.439-.375.869-.767 1.344-1.094-.502-.867-.876-1.605-1.544-2.365-.809 1.612-1.732 3.128-2.442 4.79l-.048-.004c-.306-2.176 1.33-3.808 1.42-5.849m-3.418 3.588c-2.752 4.638-6.151 9.757-10.05 13.5.525-2.273 2.134-3.99 3.325-5.937 1.122-1.835 2.224-3.793 3.104-5.752-.907.36-1.817.711-2.708 1.108-.4.827-.787 1.651-1.287 2.424-2.447 3.783-4.136 7.81-5.298 12.155 6.06-3.896 11.41-9.761 12.95-17.022a.9.9 0 0 0-.035-.476m7.131 2.13c-1.539 3.999-5.988 10.493-9.287 13.205 1.82-3.665 4.966-7.401 6.194-11.033-.98.842-1.968 1.675-3.105 2.303l-.731 1.435c-1.91 3.372-4.227 6.689-4.987 10.565 5.035-2.536 8.035-6.269 10.938-10.948.625-1.007 1.201-2.5 2.106-3.248-.342-.697-.67-1.669-1.128-2.28m17.417.375c-1.859 3.21-2.385 4.476-5.38 6.686-.033.808-.113 1.627.049 2.425 2.311-1.513 4.791-4.77 5.297-7.519.092-.5.16-1.09.034-1.592m9.045.23c-.064.352-.156.744-.083 1.1.196.953 3.227 6.35 3.933 7.363q.515.745 1.065 1.466t1.133 1.415q.584.695 1.199 1.36.615.667 1.26 1.303.646.637 1.321 1.242.675.606 1.377 1.179.703.573 1.431 1.113t1.482 1.044c-.519-1.894-1.12-3.882-2.007-5.638-.857-1.7-1.973-3.3-2.933-4.946-.786-1.26-1.58-2.528-1.963-3.977-.513.505-1.017 1-1.588 1.443 1.753 2.923 3.97 5.67 5.522 8.695-3.931-2.623-6.595-7.823-9.245-11.648-.538-.777-1.158-1.928-1.904-2.513m-7.691.62c-.231 1.572.516 3.177 1.438 4.42.89 1.198 1.99 2.4 3.317 3.113.143-.001.27.004.41-.03-.059-.863-.29-1.677-.94-2.26-.648-.58-1.445-1.099-1.992-1.778-.822-1.02-1.249-2.653-2.233-3.465m16.241.259c.158.87.213 1.912.54 2.723 1.314 3.272 5.68 7.74 8.543 9.729 1.035.718 2.001 1.245 3.193 1.66-.504-2.974-3.201-7.043-4.845-9.626-.513-.826-1.076-1.65-1.472-2.54a45 45 0 0 1-2.005-.32c1 1.806 2.09 3.547 3.2 5.287.81 1.27 1.802 2.583 2.358 3.981-1.953-1.502-3.714-3.678-5.15-5.683-1.376-1.922-2.342-3.874-4.362-5.211m-9.138.595v.087l.053-.013-.002-.086zm7.914 1.383-.192.46c.131.266.198.258.444.403l.176-.55c-.145-.276-.152-.218-.428-.313m-23.222.26c-.538 1.74-1.493 3.308-2.037 5.057-1.023 3.291-1.573 6.665-2.777 9.918-.713 1.929-1.823 3.685-2.464 5.643l-.053.154-.03.092.138-.093c1.253-.86 2.927-3.644 4.578-3.344 1.44.262 1.916 1.943 3.65.911.858-.511 1.782-1.517 2.88-1.255.898.214 1.789 1.564 2.554 2.14.199-.987.364-1.999.674-2.957.519 1.184.858 2.406 1.156 3.661.735-1.171 1.751-2.537 2.843-3.397.68.695 1.56 2.175 2.594 2.22 1.773.076 3.115-2.054 5.041-1.179 1.205.547 1.941 1.774 3.142 2.317q.353.163.71.317c-1.168-2.542-2.942-4.732-4.092-7.313l-.06-.159c-.845-2.236-2.466-11.434-4.187-12.314-.037-.019-.08-.027-.12-.04-.243.231-.29.63-.294.966-.003.301.018.332.227.538q.113.108.231.212c.112.62.214 1.253.382 1.859.247.891 1.247 2.804.569 3.604-.258.303-.719.438-1.081.56-2.572-.643-3.848-2.205-5.314-4.286-.382-.542-.716-1.193-1.237-1.61a1 1 0 0 0-.317.353c.45.8 1.053 1.507 1.485 2.312 1.228 2.283 1.395 5.163.708 7.634-.285 1.024-1.022 2.897-1.992 3.404-.322.168-.526.157-.877.103-.364-.21-.582-.436-.707-.843-.45-1.459-.034-3.394-.216-4.95-.195-1.666-.69-3.248-.955-4.895l-.725.965c-.717.958-2.002 1.809-3.186 1.996-.436.069-.95.042-1.317-.232-.456-.341-.592-.895-.609-1.436-.052-1.726.748-3.4 1.694-4.787-.127-.62-.186-1.352-.61-1.847m6.165 2.778c-.241.298-.412.499-.38.907.093 1.187.572 2.493.848 3.657.43 1.81.583 3.445.652 5.303l.082.03.021-.036c1.089-3.15.834-6.146-.625-9.184-.145-.301-.34-.473-.598-.677m-5.42 2.009-.53.427.003.196.138.132c.285-.202.454-.232.542-.586zm39.624 6.517c.105.37.103.477.401.737.444.117.866.058 1.32.023-.399-.561-.9-.621-1.545-.73zM20.25 148.98c-1.266.7-1.977 1.334-2.923 2.417-.22.253-.438.686-.775.674-.12-.301-.161-.448.002-.749.216-.4.575-.777.88-1.113-.65.083-1.387.101-1.977.396.006.279-.036.172.06.337.646.881 1.41 1.773 1.852 2.776 1.41-.967 2.73-2.17 3.107-3.922.059-.273.058-.505-.053-.765zm215.319-.044c.307 2.314 1.373 3.478 3.162 4.849q.683-1.229 1.423-2.424c.233-.313.374-.419.394-.815-.206-.211-.346-.298-.655-.297a1.07 1.07 0 0 0-.742.31l-.037.246c.247.297.363.349.365.745l-.179.14c-.277-.052-.367-.05-.525-.314-.178-.297-.21-.863-.257-1.205-.906-.532-1.95-.916-2.95-1.235m-73.46 1.322c.002.69.096 1.448-.432 1.981-.41.413-.977.545-1.543.507-1.629-.11-3.99-1.123-5.437-1.863.281 1.169.68 2.647-.026 3.741-.331.513-.866.799-1.454.914-2.189.429-5.026-1.191-6.746-2.401q-.22-.153-.43-.317l.027.234c.161 1.316 1.392 4.798.494 5.82-.276.314-.685.399-1.084.394-.915-.011-1.95-.506-2.786-.85.15 1.716.009 2.92-.436 4.568 1.133 2.223 2.502 4.34 3.771 6.487 1.828 3.094 3.602 6.207 5.522 9.245 1.005 1.59 3.211 4.44 3.88 5.946.178.398.098.876-.035 1.279-.277.843-.986 1.43-1.767 1.797-1.845.866-4.224.566-6.075-.164-2.285-.902-4.186-2.68-5.95-4.335.464.86 2.935 4.415 2.97 4.888.009.133-.074.257-.11.385-.505.539-1.306.542-2.002.561-2.804.074-6.343-.949-8.38-2.918a27 27 0 0 1-1.447-1.476c-.245 1.267-.549 2.38-1.69 3.146-1.25.84-3.231.78-4.663.446-1.165-.272-2.126-.882-2.73-1.934-.362-.632-.465-1.355-.578-2.063-1.83 2.496-4.384 4.139-7.475 4.605-1.102.166-3.29.313-4.15-.512-.102-.097-.104-.118-.16-.226.344-1.09 2.317-3.375 3.026-4.916-2.245 1.79-4.055 3.742-6.76 4.912-2.859 1.1-3.132.948-6.037.575.27.381.678.482 1.13.56 1.105.188 5.188.408 6.078-.224.139-.099.27-.255.387-.38 1.37-.226 4.307.704 5.844.935q2.161.326 4.345.402 7.09.21 14.181.03c1.855-.035 3.73.036 5.58-.084 2.217-.144 4.541-.83 6.645-.944.76-.042 1.416.346 2.208.297 1.512-.092 3.076-.009 4.573-.223 2.928-.418 7.351-2.387 9.459-4.476-1.433.121-4.046.206-5.247-.76-.258-.206-.268-.29-.332-.594.278-.906 1.805-1.614 2.564-2.17-1.35.447-2.74.94-4.131.29-.314-.147-.48-.323-.678-.6-.058-.339-.084-.442.098-.759.996-1.726 7.819-2.711 9.922-7.361l.086-.186.05-.113c-2.615.822-5.135.69-7.63-.539-.46-.227-.793-.462-.983-.952.002-.418.129-.675.423-.961 1.653-1.602 5.24-1.712 6.916-3.339.464-.45.787-1.034 1.08-1.604-1.34.576-3.693 1.366-5.116.802a1.27 1.27 0 0 1-.7-.637c-.136-.28-.14-.605-.079-.902 2.464-2.297 5.031-2.626 6.685-5.968-1.484.535-2.862.632-4.344-.025-.302-.133-.6-.302-.73-.626-.096-.24-.06-.63.059-.86.194-.377 4.516-3.078 5.532-4.223-.77-.036-2.038.073-2.616-.538-.255-.27-.22-.639-.157-.975q.047-.236.104-.47c-.195-.214-.247-.197-.513-.279m-30.142 4.78-.066.165c-.495 1.203-1.818 1.733-1.993 3.014l.095.22c.855.165 1.764-1.133 2.56-.591.166.667.02 1.399.048 2.085.644.61 1.194 1.284 1.756 1.969.442-.861.594-1.706.725-2.651l.216-2.149c.721 1.397 1.47 1.6 2.898 2.103-.09-.922-.048-2.75-.77-3.383-.912-.296-2.026.324-2.882.657-.951-.38-1.688-.99-2.587-1.439m-14.123.162c-1.36 1.442-1.722 2.583-2.088 4.484 1.765-.901 2.86-1.558 3.752-3.386-.189 1.231-.451 2.836.212 3.976.189.08.255.173.457.075 1-.487 1.403-2.95 1.68-3.961.247.965.484 1.928.81 2.87.33.188.586.363.979.36.258-.21.305-.367.344-.7.113-.975-.214-2.186-.331-3.171.239.38.46.753.659 1.155.37.748 1.067 1.985 1.874 2.276.29-.043.406-.054.56-.343.18-.338.198-.93.253-1.305-.596-.81-1.446-1.708-2.481-1.888-2.497-.434-3.123 1.6-6.68-.442m20.951.358c.203 1.079.198 3.09.817 3.966.179.099.358.208.543.294-.033-1.34-.05-3.02-1.083-4.02a4 4 0 0 0-.277-.24m-11.302 2.132c.385 2.386.288 4.678.381 7.078.082 2.13.285 4.253.349 6.386.072 2.417-.002 4.832-.019 7.25l.05-.112.046.263.385.174.007.155c-.235.013-.283-.038-.49-.138-.272.523.21 1.446.269 2.007.033.328-.016.674-.035 1.001-.03.498-.023.975.015 1.472.017.222.012.133-.004.404-.135-.238-.145-.365-.192-.631-.073-.406-.162-.935-.493-1.221-.112-.097-.23-.09-.368-.112.135-.849.763-1.88.227-2.641-.07-.1-.193-.246-.274-.344-.016-.507.196-.687.53-1.058.29-1.98.082-9.578-.438-11.488l-.035.009-.027.126c-.643 3.261-1.113 7.539-.887 10.872.102 1.506.387 3.004.664 4.485.181.965.286 2.177.84 3.005l.206.101c.736-.53 1.117-3.543 1.278-4.516.192-1.156.302-2.377.267-3.55-.106-3.555-.683-7.14-1.017-10.682l-.536-5.177c-.09-.923-.038-1.947-.294-2.837a1.2 1.2 0 0 0-.405-.281m-4.976 2.358-.119.3.156-.005.16-.277zm13.468-.054c-.147.43-.32.863-.437 1.3 3.12 7.111 6.701 14.88 12.177 20.509-7.504-3.782-10.856-17.414-12.835-18.642-.258 1.169 1.18 3.45 1.669 4.559 2.492 5.912 5.45 13.453 11.842 16.106a15.5 15.5 0 0 0 2.602.808q-4.757-7.405-9.159-15.026l-3.567-6.035c-.704-1.187-1.358-2.56-2.292-3.579m-5.192.106-.95.645c.42 5.846.634 12.409 4.348 17.236.341.443.741 1.081 1.165 1.437.143.12.18.126.329.191a1.7 1.7 0 0 0 .387-.22c.496.467.787 1.308.967 1.953l-.232-.004c-.02 0-.042.006-.063.009.447 1.127 1.659 2.255 2.46 3.171-1.987-4.765-2.844-9.772-4.154-14.737-.988-3.189-1.832-6.908-3.515-9.795.367 2.189.916 4.353 1.4 6.519.786 3.513 1.538 6.905 2.63 10.345q-1.277-2.112-2.145-4.422c-1.056-2.787-2.79-9.048-2.112-11.88-.149-.31-.198-.298-.515-.448m-11.674 1.24q-4.48 8.032-9.384 15.814-1.695 2.679-3.418 5.34c-.662 1.03-1.435 2.088-1.943 3.203q.066-.04.131-.083c1.467-.983 2.747-3.248 4.193-3.936 0 .07.017.142-.003.209-.009.031-2.334 2.583-2.625 2.927 5.049-2.986 8.432-6.132 10.9-11.52 1.739-3.724 3.411-7.55 4.757-11.434-.413.443-.805.938-1.338 1.237-1.209 3.928-6.452 14.776-9.863 16.866.76-1.661 1.931-3.11 2.816-4.708 2.34-4.23 4.609-8.685 6.457-13.151zm-72.348 1.298c-1.106.505-2.218.912-3.367 1.302.304.351.619.697.912 1.056-.9.726-1.832 1.303-2.844 1.857v.198c1.108-.05 3.854-2.34 4.635-3.198.297-.326.686-.746.663-1.215m162.51.128c.48 1.016 1.202 1.716 1.992 2.49l.918-.735.977-.69c-1.33-.278-2.591-.664-3.886-1.065m8.476 3.89q-.063.03-.127.057c-.628.266-2.48.409-2.845.802.234.146.459.24.718.336l.731.376c.559-.439 1.142-.849 1.584-1.41zm-177.799.64c-1.139.164-2.25.28-3.4.304.534.214 1.086.41 1.607.653.41.185.527.248.956.104.428-.143 1.117-.491 1.316-.92.016-.034.022-.073.033-.11-.229-.074-.258-.074-.512-.031m184.096 3.042c-2.072 2.329-4.127 4.388-7.42 4.586-1.92.115-3.639-.453-5.208-1.53-.399-.274-1.247-1.035-1.737-.847.025.526.428 1.138.736 1.559 1.662 1.716 2.41 1.894 4.46 2.938 2.654-.492 6.458-.506 8.177-2.91.518-.724 1.25-2.765 1.052-3.632-.013-.057-.04-.11-.06-.165m-191.141.569c.285 1.791.574 3.152 2.134 4.282 1.411 1.022 3.228 1.613 4.843 2.242 2.31-.8 4.679-1.721 6.244-3.69.406-.65.738-1.292 1.045-1.995-2.712 1.975-5.576 3.475-9.046 2.891-1.293-.218-2.593-.91-3.37-1.99-.669-.929-.667-1.336-1.85-1.74m182.526 6.223c.75.586 2.218 1.22 3.184 1.242-.664-.555-2.301-1.275-3.184-1.242m-180.553 1.828c.419.745 1.001 2.053 1.843 2.32a3 3 0 0 0 .368-.362l.5-.45c-.182-.281-2.285-1.314-2.711-1.508m35.189 1.136.13.1c1.184.908 4.68 2.738 5.034 4.17.081.325.002.417-.169.67-1.814 1.114-5.411.487-7.347.028-2.951-.702-5.11-2.373-7.874-3.219.419 1.593 1.124 2.89 2.605 3.74.182.106.377.191.57.272 4.339 1.2 11.152 2.3 15.19-.03a6.1 6.1 0 0 0 2.11-1.978c-2.658.126-5.705-.726-7.722-2.558a1.4 1.4 0 0 1-.318-.411c.107-.275.27-.365.505-.53-.942-.086-1.784-.024-2.715-.254m149.163.155c.198.379.438.71.363 1.154-.22.225-.326.296-.65.3-.575.006-1.178-.078-1.753-.126.36.186.728.413 1.1.567.346.136.744.362 1.12.305.47-.392 1.035-.84 1.063-1.512.005-.13-.028-.225-.06-.346-.363-.292-.723-.303-1.183-.342m-11.695.94c.685 2.005 2.181 3.497 3.662 4.955 1.986-.005 3.993-.018 5.97.19.167.017.098.018.265-.014l.322-.704c-.055-.045-3.856-.692-4.54-.915-1.569-.513-2.842-1.419-4.138-2.412-.447-.343-1.02-.91-1.541-1.1m-159.778.902c-1.5 1.026-2.975 2.052-4.6 2.874-.458.232-1.74.641-2.006 1.007.21.132.401.235.634.323.593.136 1.186.29 1.786.386 1.735-.853 3.662-2.149 4.333-4.057a.8.8 0 0 0 .037-.458zm-7.596 6.785c.918 1.124 1.879 2.189 2.66 3.416 2.792.392 5.625.57 8.436.79q8.436.624 16.885 1.034 25.366 1.228 50.762 1.167c6.243.018 12.482.253 18.73.206q19.251-.24 38.484-1.1c12.643-.488 25.463-.92 38.007-2.678l.72-1.243.988-1.639c-8.474.826-16.931 1.737-25.431 2.277q-26.815 1.443-53.667 1.636-26.853.194-53.686-.863-16.074-.414-32.092-1.824c-3.402-.307-7.537-.411-10.795-1.179m171.187 5.076c-3.287.362-6.592.59-9.887.868q-23.406 1.86-46.882 2.238-27.58.673-55.158-.016-27.58-.69-55.09-2.742l.812 1.212c.395.181.788.376 1.194.529.265.078.364.052.61-.04.885-.33 2.419.59 3.39.74 1.815.28 3.678.349 5.51.45q15.338.901 30.693 1.434 9.373.31 18.749.491c2.946.042 5.893-.002 8.839.056 4.892.096 9.805.441 14.695.423 1.528-.006 3.04-.221 4.564-.243q18.102-.156 36.188-.92 15.864-.42 31.68-1.726c3.401-.293 6.938-.41 10.306-.939.312-.474.882-1.134.943-1.698l-.16-.184c-.35-.02-.653.013-.996.067m-103.923 11.963c-1.507.264-2.589.995-3.469 2.248-1.777 2.53-1.979 6.461-1.408 9.397.351 1.813 1.125 3.733 2.695 4.815 1.062.731 2.124.835 3.376.757 1.588-.408 2.74-1.191 3.575-2.644 1.534-2.67 1.636-6.89.814-9.794-.475-1.679-1.386-3.317-2.96-4.184-.848-.466-1.673-.591-2.623-.595m-16.4.312-.023 16.77c.993-.007 1.999.017 2.991-.034l.01-5.962c1.68-.03 3.258-.16 4.504-1.444 1.114-1.147 1.487-2.807 1.418-4.365-.064-1.442-.567-2.973-1.66-3.964-1.663-1.507-5.145-1.083-7.24-1.002m24.98.026c-.001 5.573-.161 11.204.023 16.771q3.957.112 7.913-.042c.108-.845.062-1.714.051-2.565q-2.555-.105-5.112-.09l-.017-14.07zm14.071-.024c-1.065 3.617-1.847 7.297-2.695 10.968-.445 1.923-1.03 3.86-1.364 5.8l2.767.08q.396-1.541.72-3.099c1.004.025 2.017.079 3.02.014.184.013.427-.032.558.114.521.58.602 2.134.724 2.916.914.001 1.83.016 2.745 0-1.21-5.596-2.381-11.3-4.009-16.79zm21.558-.034.02 16.803c2.53.063 5.477.46 7.49-1.425.144-.134.274-.278.406-.423 1.818-2.723 2.045-6.346 1.41-9.49-.352-1.742-1.038-3.335-2.565-4.366-2.08-1.404-4.419-.966-6.76-1.099m28.931 5.597c-1.591.21-2.62.659-3.744 1.852 1.452 1.327 2.87 1.92 4.858 1.837 1.352-.057 2.677-.359 3.994-.645 1.346-.346 2.72-.685 4.006-1.218-2.452-.655-6.677-2.158-9.114-1.826m-108.6.258q-.787.084-1.563.233-.777.149-1.538.362-.762.213-1.503.487-.742.275-1.458.611c2.707 1.184 5.355 1.801 8.314 1.778 1.402-.086 4.464-.425 5.508-1.329l.12-.297c-.26-.574-.753-.793-1.326-1.007-2.017-.753-4.415-1.029-6.554-.838m55.99 18.66c-.52.986-.998 1.97-1.43 2.999-1.18.123-2.374.216-3.542.432.883.866 1.929 1.732 2.68 2.711a49 49 0 0 0-.732 3.167c.892-.492 2.16-1.44 3.122-1.658 1.042.531 2.088 1.133 3.176 1.562q-.3-1.674-.655-3.337c.887-.816 1.814-1.61 2.579-2.543a76 76 0 0 1-3.589-.432c-.435-.866-.925-2.229-1.608-2.901"/><path d="M121.82 35.776c1.027-2.187 2.625-4.202 3.946-6.224.9-1.378 1.685-2.854 2.654-4.183.034.029.071.053.103.084.986.98 5.057 12.2 5.22 13.911-2.101-2.552-3.29-6.24-5.06-9.107-.415 1.675-.568 3.446-.924 5.146-.198.83-.547 3.368-1.193 3.869-.56-.721.322-6.719.316-8.095l-.002-.209c-1.75 1.504-3.31 3.273-5.06 4.808m8.632-8.328-.057-.057zm0 0c1.15.824 5.677 7.063 6.949 8.693 2.322 2.973 4.764 5.885 7.002 8.92.815 1.107 1.674 2.226 2.27 3.468-.582-.363-1.16-.735-1.75-1.086.532.708 1.11 1.409 1.577 2.16.346.604.68 1.191.945 1.837a6.1 6.1 0 0 1-1.417-1.223c-2.445-2.862-4.546-6.096-6.822-9.1-1.917-2.53-4.367-5.28-6.02-7.909-1.067-1.699-2.199-3.81-2.734-5.76M113.144 43.38l-.087-.207c2.04-4.05 5.132-7.411 8.04-10.851 1.19-1.409 2.314-2.9 3.617-4.207l.09.207c-1.926 4.402-4.78 7.96-8.002 11.466-1.156 1.259-2.303 2.541-3.658 3.592m17.973 15.484c-.06-5 .496-10.074.77-15.072 1.6.9 4.766 4.415 6.263 5.866q-.672-1.45-1.328-2.907c2.245 2.452 4.506 5.148 6.126 8.064-1.805-.723-3.252-1.908-4.745-3.122-1.296-.88-2.426-2.026-3.728-2.923-1.207 3.317-1.509 7.025-3.358 10.094m-26.464-5.369-.07-.06c.49-1.858 4.895-7.197 6.255-8.86.172.159.1.054.171.344-.482 1.945-4.745 7.22-6.356 8.576m.488 3.85c1.256-4.066 4.124-7.557 5.947-11.38a1 1 0 0 1 .213.325c.33.828 1.505 6.597 1.256 7.185-.623-.187-1.417-1.659-1.8-2.224-1.373 1.12-2.506 2.48-3.66 3.815zM65.573 69.794c1.086-3.735 4.84-7.54 7.36-10.463 1.1-1.276 2.172-2.66 3.413-3.799 2.058 4.792 3.017 12.525 3.36 17.807.063.962.304 2.393.023 3.315l-.159-.036c-.09-.191-.201-.387-.271-.585q-.948-2.765-1.675-5.596t-1.231-5.71c-.296-1.613-.454-3.256-.776-4.861-1.723 2.435-2.85 5.24-4.82 7.508.478-1.663.961-3.313 1.542-4.944-2.14 2.304-4.085 5.68-6.766 7.364m118.205-5.418.06.072c.338 1.435.917 2.793 1.248 4.234-1.358-1.32-3.927-5.992-4.924-7.821-.906 1.871-1.812 3.684-3.176 5.267.769-2.21 1.58-4.521 1.927-6.84-1.13 1.516-2.108 3.134-3.165 4.7-3.311 4.909-8.735 12.817-13.123 16.542.4-.683.828-1.353 1.243-2.028 4.685-7.692 10.705-14.49 15.609-22.039 1.253 1.624 9.963 12.505 9.969 13.55l-.188.06c-2.294-1.305-3.46-3.78-5.335-5.547l-.085-.078zm-71.115 6.083c.51-2.33 3.476-9.281 4.87-11.12 1.544 1.505 5.178 8.36 6.003 10.59-2.163-1.63-3.856-4.058-5.618-6.104-.654.532-1.737 2.55-2.299 3.357a17 17 0 0 1-2.956 3.277m-5.807 4.311c-.083.044-.183.04-.276.052-.178-1.305 5.365-8.729 6.324-10.124l.254.084c.166.522-.377 1-.222 1.607.06.235.108.444.143.685-.857 2.418-4.099 6.249-6.223 7.696m-41.33-4.912.047-.064zm8.007 12.702c-2.07-1.297-3.797-4.092-5.264-6.033-.5 1.517-.959 3.047-1.672 4.481.155-1.65.257-3.245.119-4.903-2.14 2.904-3.787 6.17-5.998 9.011.383-2.019 1.618-3.937 2.295-5.881-1.38 1.724-2.727 3.472-4.322 5.007-.851.81-2.462 2.648-3.669 2.699-.13.005-.205-.026-.321-.061-.108-.241-.13-.281-.02-.543.565-1.352 3.015-3.726 4.098-4.92 1.147-1.264 2.213-2.6 3.376-3.852 1.636-1.76 3.369-3.439 4.896-5.297 2.528 3.088 4.947 6.587 6.482 10.293"/><path d="M177.034 88.412c.221-1.214.833-2.404 1.278-3.559.867-2.25 1.744-4.506 2.565-6.775.695-1.922 1.113-3.907 1.94-5.787.11.043.151.052.256.134.963.749 5.162 7.761 5.282 9.037l-.112.084c-1.79-.738-4.031-5.05-5.259-6.693-.63 1.561-1.094 3.238-1.599 4.846-.879 2.901-2.303 6.415-4.351 8.713m17.77-9.932c-.919.857-2.919 3.634-4.036 3.767l-.134-.183c.105-1.167 1.142-2.635 1.596-3.75.743-1.826 1.162-3.782 1.88-5.621 1.141 1.607 7.018 10.354 7.106 11.216l-.137.138c-1.341-.863-2.585-2.084-3.808-3.117-.854-.793-1.546-1.722-2.467-2.45"/><path d="M182.17 82.692c-.12.022-.281.018-.405.025l-.033-.207.113-.12-.073-.056c.466-1.535.86-3.114 1.392-4.626l.18.183c.34 1.132.566 2.134.192 3.291-.265.822-.606 1.132-1.366 1.51m5.248.14c-.816-.11-1.612-.548-2.208-1.107-.643-.604-1.038-1.3-1.08-2.183.253.069.395.151.587.32.416.368.862.695 1.286 1.052.633.53 1.338 1.038 1.415 1.918M73.533 82.56l.064.042zm35.513 1.545c3.334-.989 7.04-.896 10.493-.982 2.482-.062 4.966-.21 7.449-.238 3.423-.036 6.866.05 10.283-.207 2.724-.046 6.4-.436 8.94.648l-.04.107c-1.97.376-4.22.273-6.234.313l-10.01.219q-2.933.063-5.865.181c-1.69.08-3.368.245-5.062.161-3.31-.112-6.653.129-9.954-.202m69.943 3.647c.984-1.862 1.951-3.256 3.86-4.252l.042.073c-.002.62-1.053 2.318-1.365 3.034 2.347-.178 4.521-.533 6.883-.257-.768.349-1.499.638-2.315.855-2.324.464-4.741.51-7.106.547m-72.303-.23c-2.644.048-6.774.504-9.27-.157l.033-.22-.069.035c2.13-.833 9.268-.687 11.829-.75l21.855-.347c4.257-.078 8.513-.328 12.768-.474 2.68-.093 5.362-.077 8.043-.171 1.525-.085 8.245-.254 9.249.623-.892.446-3.56.377-4.623.424q-16.308.589-32.625.806l-11.391.153c-1.94.029-3.856.16-5.8.078m15.362 11.084c1.072-.168 1.798-.446 2.53-1.267.455.091.907.157 1.368.213.212.407.076.94-.053 1.363-.149.49-.482.861-.932 1.095-1.409.733-3.025.244-4.416-.235-.348-.158-.817-.338-1.069-.638-.22-.263-.236-.443-.222-.772.23-.267.368-.385.719-.466.763-.176 1.47.316 2.075.707m-55.707 7.401c5.133-.873 10.268-1.391 15.429-2.023 2.123-.259 4.219-.76 6.351-.931l.51-.028c.28.113.564.282.715.56.162.296.162.507.11.83-.455-.158-.998-.345-1.483-.293-1.69.18-3.377.822-5.065 1.093-4.122.664-9.7 1-13.875.962q-1.348-.053-2.692-.17m96.106-.187c.673-.742 1.287-1.184 2.188-1.595l.365.006c.398.325.326.803.581 1.224.488.801 1.925 1.528 2.11 2.451l-.208.151c-.39-.017-.624-.125-.962-.297-1.321-.795-2.694-1.28-4.074-1.94m-62.59 12.799-.08-.069c.087-.817 1.687-2.274 2.312-2.826.111.108.134.078.115.227-.102.81-1.763 2.142-2.347 2.668m62.822 23.239.061.114zm-7.528 3.102-.231.004-.3-.51c.287.145.385.218.53.506m-46.128 2.286.051-.073zm11.638 28.878.074-.06zm-12.404 44.159c-.289.03-.526.04-.81-.03-.672-.164-1.17-.624-1.518-1.209-1.126-1.89-1.094-5.142-.582-7.22.314-1.274.786-2.25 1.93-2.934.326-.014.689-.039 1.007.036.736.174 1.316.836 1.647 1.482 1.016 1.985.998 5.446.278 7.528-.391 1.131-.864 1.83-1.952 2.347m46.228.287q.036-5.862-.043-11.722c.62.101 1.387.158 1.95.438.82.406 1.231 1.197 1.47 2.047.657 2.335.599 5.942-.57 8.093q-.095.116-.194.228c-.762.86-1.539.861-2.613.915m-60.49-6.302-.002-5.115c.586-.027 1.305-.147 1.843.119.594.293 1.037.79 1.232 1.423.317 1.024-.037 2.18-.534 3.08-.804.652-1.566.538-2.54.493m36.175 2.952c.352-1.597.703-3.192 1.118-4.774.379.296 1.053 3.831 1.25 4.533l-.117.202-.51.047zm11.687-3.654-.071-.064z"/></svg>