<svg xmlns="http://www.w3.org/2000/svg" viewBox="0 0 256 256"><path d="M122.05 0h12.514l.12.02c2.389.38 4.877.404 7.287.684 5.023.583 10.14 1.447 15.063 2.597 28.856 6.742 56.166 24.35 73.693 48.298q1.068 1.442 2.097 2.912t2.015 2.968q.988 1.498 1.934 3.023.946 1.524 1.849 3.075.903 1.55 1.764 3.124.86 1.575 1.677 3.172.816 1.598 1.588 3.218t1.5 3.26 1.409 3.299 1.317 3.337 1.224 3.373q.59 1.695 1.131 3.405.543 1.71 1.038 3.435t.942 3.462.846 3.487q.4 1.75.75 3.509 1 5.254 1.585 10.57c.18 1.707.214 4.752.607 6.288v14.558l-.02.109c-.44 2.45-.427 5.073-.69 7.559a117 117 0 0 1-2.292 13.697q-.325 1.419-.685 2.83-.358 1.411-.748 2.814t-.812 2.797q-.42 1.393-.875 2.776-.453 1.384-.938 2.757-.486 1.373-1.001 2.734-.517 1.362-1.064 2.711-.547 1.35-1.124 2.686-.578 1.337-1.186 2.66-.607 1.323-1.245 2.631-.638 1.31-1.306 2.603-.667 1.294-1.364 2.573t-1.423 2.54-1.48 2.508-1.536 2.474-1.593 2.437-1.648 2.4-1.702 2.363q-.864 1.172-1.755 2.323t-1.808 2.283-1.86 2.24-1.91 2.199-1.96 2.154q-.991 1.065-2.007 2.108t-2.056 2.063-2.102 2.014q-1.062.996-2.147 1.967t-2.192 1.917-2.235 1.867-2.276 1.815-2.318 1.763q-1.168.869-2.357 1.71-1.607 1.131-3.248 2.213-1.64 1.082-3.313 2.113-1.673 1.032-3.376 2.012-1.703.981-3.435 1.91t-3.491 1.805-3.544 1.698-3.594 1.59-3.64 1.482q-1.832.713-3.684 1.37t-3.723 1.258q-1.87.6-3.76 1.145-1.888.546-3.792 1.033-1.904.485-3.821.915t-3.848.8q-1.93.373-3.87.685t-3.89.565c-5.896.787-11.741 1.25-17.693 1.157-7.489-.115-15.048-1.132-22.419-2.407-9.958-1.72-21.427-5.54-30.535-9.89-4.384-2.095-8.59-4.504-12.825-6.879-7.86 2.461-15.522 5.607-23.407 7.992-1.002-9.813-1.358-19.703-2.413-29.513-2.036-2.284-4.126-4.501-6.072-6.865q-2.415-2.944-4.652-6.025-2.237-3.08-4.288-6.288-2.05-3.208-3.908-6.532t-3.515-6.75c-1.176-2.458-2.582-5.214-3.288-7.849.436-.017.846-.033 1.276-.11.895-.16 2.211.306 3.236.227 2.622-.203 10.623-1.939 12.595-3.447l.15-.06-.15.06c-3.15 1.2-6.387 2.077-9.764 2.239.84-.313 1.705-.322 2.561-.542 1.209-.312 9.07-2.635 9.498-3.026-.724-.016-1.675.366-2.382.567-2.81.801-5.96 2.078-8.898 2.182a64 64 0 0 0 6.202-2.16c-1.771.248-3.382.97-5.08 1.489-.445.136-1.505.48-1.895.277l.007-.001-.192.085c.65-.295 1.358-.37 2.032-.605 1.59-.555 3.32-1.329 4.777-2.175l.143-.085.203-.094.19-.09-.19.09-.203.094c-1.974.542-3.793 1.54-5.804 1.996.843-.501 6.701-2.856 6.815-3.06-.945.019-2.025.792-2.85.692.125-.321.32-.423.58-.64l.204-.088.072-.079-.072.08-.204.087c-1.14.45-2.23 1.12-3.307 1.702-2.189 1.184-5.098 2.938-7.506 3.433-1.315.27-2.692.264-4.028.3l.98-1.144c-1.015-2.167-1.701-4.544-2.4-6.829q-.88-2.872-1.63-5.78-.752-2.908-1.375-5.846t-1.115-5.901-.854-5.945c-.366-3.002-.385-6.075-.843-9.056l-.02-.122V123.14c.448-2.157.425-4.647.621-6.86q.436-4.796 1.311-9.533.334-1.883.723-3.756t.831-3.734.94-3.707 1.048-3.68 1.154-3.646 1.26-3.611 1.364-3.574 1.469-3.532 1.57-3.487 1.671-3.441 1.771-3.39q.91-1.683 1.869-3.338.958-1.655 1.965-3.282 1.006-1.626 2.06-3.222 1.053-1.597 2.153-3.162t2.244-3.098q.857-1.135 1.738-2.251.883-1.117 1.789-2.214t1.836-2.172 1.884-2.132 1.93-2.09 1.976-2.047 2.02-2.003q1.022-.99 2.064-1.958t2.107-1.912 2.149-1.865 2.189-1.817 2.228-1.768 2.267-1.72 2.304-1.668q1.162-.822 2.34-1.618 1.18-.796 2.376-1.565 1.197-.77 2.41-1.513t2.442-1.46 2.474-1.405 2.504-1.35 2.533-1.295 2.561-1.239 2.588-1.182 2.613-1.124 2.638-1.067 2.66-1.009 2.682-.95 2.702-.89q1.356-.43 2.72-.83 1.366-.4 2.74-.77 1.373-.37 2.755-.71t2.77-.65q6.73-1.434 13.57-2.195c2.434-.254 4.92-.285 7.34-.628zM26.001 88.434l-.094.066zc.2-.895.312-1.977.704-2.802.466 1.257-.453 6.786-.61 8.474.662-1.948 1.06-3.963 1.507-5.968l-.102.155.245.216c-.362 3.594-1.156 7.337-.961 10.95.198-1.06 1.401-8.452 1.533-8.731l-.018.074.103.08c-.08 1.894-.122 3.78-.24 5.674-.199 3.155-.553 6.496-.196 9.644.167-1.51 1.528-12.537 1.9-13.073.117 1.258-.032 2.605-.088 3.872q-.229 4.938-.636 9.865c-.098 1.306-.288 2.682-.227 3.986.582-2.553.992-5.174 1.413-7.758.177-1.088.274-2.212.523-3.284.075 2.783-.287 5.614-.544 8.383-.315 3.4-.505 6.865-.224 10.274.585-5.444 1.326-10.867 1.93-16.308l.13.008c-.266 4.295-.83 8.956-.036 13.22l.142.114-.142-.114c-.142-1.905.113-4.379.5-6.255.05 1.763-.063 3.526-.058 5.29.248-1.684.663-3.317.962-4.987.305-1.705.448-3.51.584-5.238.745.994.045 15.174.009 17.386-.012.714-.253 1.964-.033 2.605.034.1.132.164.198.247.254-.189.257-.567.291-.864.11-.94.078-1.91.118-2.858.152-3.69.024-7.64.623-11.29l.028-.166c.042 1.396.148 2.779.266 4.17.258-1.328.288-2.736.659-4.032.251.62.136 1.672.138 2.36q.02 3.475-.1 6.948c-.064 1.59-.34 3.477-.12 5.046.3.07.472-.043.757-.141.393-.522 1.06-7.87 1.224-9.212.255 2.913-.663 7.44-.091 9.78l.032-.105.05-.177c.578-2.029.64-4.444.886-6.542.19 1.907.069 3.903.067 5.821a38 38 0 0 1 3.442-.963c-.719-1.731-1.634-3.498-2.076-5.323-.668-2.76-.75-5.616-1.538-8.373-.835-2.924-2.197-5.666-3.371-8.46-.972-2.314-1.825-4.734-2.626-7.112-1.123-3.332-1.286-6.93-2.639-10.203-1.39.913-2.783 1.857-4.056 2.93a41 41 0 0 0-.232 2.767m100.055 6.1c1.989-.024 4.143-.608 6.105-.975q5.91-1.083 11.787-2.327 16.885-3.496 33.727-7.191 18.042-3.757 36.04-7.724l8.993-1.931c1.853-.39 3.833-.694 5.622-1.312l.037-.191.188-.015-.082.151.213-.151.008-.075c-.268-.31-.44-.447-.86-.474-1.5-.097-3.497.69-4.991 1.003q-7.146 1.456-14.274 3.001l-55.147 11.715-18.636 4.061c-2.954.635-5.928 1.37-8.905 1.873-.719-1.533-1.516-2.606-2.725-3.793l72.005-14.784c3.026-.622 30.3-5.9 31.265-6.57-.12-.23-.033-.16-.302-.243-.414-.128-.878-.108-1.303-.043-1.469.223-2.943.635-4.402.936l-9.868 2.015-31.79 6.405-34.251 7.092c-7.295 1.511-14.732 2.787-21.92 4.746-.797-.599-1.733-.974-2.676-1.281 2.093-.494 4.288-.72 6.407-1.129q8.044-1.53 16.057-3.218 25.621-5.433 51.319-10.489l22.148-4.407 5.889-1.187c1.058-.204 2.19-.314 3.21-.659l.017-.109c-1.609-.122-3.594.597-5.199.908l-13.043 2.57-57.907 11.352q-8.744 1.767-17.466 3.64c-3.832.845-7.728 1.902-11.603 2.509-1.054.165-3.521.097-4.56-.192a1.54 1.54 0 0 1-.761-.459c-.442-.483-.65-1.203-.998-1.759 2.681-.679 5.438-1.138 8.155-1.66l17.405-3.253c2.743-.536 5.59-.984 8.278-1.749 3.853-5.457 7.15-8.907 13.965-10.061 1.856-.315 3.769-.517 5.65-.523 1.312-.004 2.674.133 3.98.023 2.31-.196 4.604-1.325 6.932-1.697 1.529-.244 3.082-.34 4.626-.42.93-.047 1.912-.009 2.824-.202 1.559-.33 3.168-1.606 4.626-2.296 2.747-1.3 5.834-2.173 8.82-2.712 2.552-.46 5.31-.746 7.9-.634 1.13.048 2.313.389 3.439.305 1.004-.074 2.076-.543 3.047-.809.923-.252 1.876-.396 2.805-.63 1.027-.259 2.025-.638 3.042-.936q-.849-1.122-1.725-2.223t-1.779-2.18q-.902-1.08-1.832-2.135-.929-1.057-1.884-2.09-.956-1.033-1.936-2.042t-1.986-1.993-2.034-1.944-2.081-1.893-2.128-1.84-2.173-1.788-2.217-1.733-2.258-1.678-2.3-1.622q-1.16-.796-2.339-1.564t-2.376-1.506-2.414-1.446-2.448-1.386-2.482-1.326q-1.25-.647-2.514-1.263-1.265-.616-2.544-1.201t-2.574-1.138-2.6-1.073q-1.308-.52-2.627-1.009-1.32-.488-2.651-.944t-2.673-.877-2.694-.812-2.714-.744q-1.361-.355-2.73-.677-1.37-.322-2.748-.61-1.377-.287-2.76-.54-1.385-.254-2.774-.473-1.39-.22-2.785-.404c-7.649-1.014-15.13-1.03-22.824-.706-1.191.05-3.232-.097-4.325.348 3.676.035 7.407.232 11.018.974-5.204.659-10.294-.031-15.498.034-3.331.042-6.911.595-10.134 1.444-.174.045-.117.029-.343.027l.021-.09.261.202c4.926-.98 9.65-1.096 14.65-.883 1.684.072 3.401.085 5.067.352-4.776.572-9.64.508-14.434.95-3.096.285-6.098 1.014-9.161 1.483-.95.145-1.926-.02-2.88.074-1.727.17-3.811 1.076-5.44 1.686 5.071-.576 10.21-.706 15.302-1.078 2.756-.202 5.471-.736 8.224-.952 2.782-.22 5.483-.04 8.257.13q-1.077.373-2.178.663-1.102.29-2.222.496-1.12.205-2.253.325t-2.272.152c-1.538.048-3.076-.032-4.614.045-5.066.25-10.138.837-15.193 1.26-2.129.178-4.991.105-6.995.568-1.212.28-2.399.95-3.52 1.48 5.828-.376 11.638-.748 17.477-.932 2.21-.07 4.484-.257 6.691-.16-4.57 1.124-9.236 1.32-13.907 1.651-2.616.186-5.225.467-7.84.662-1.768.132-3.692-.154-5.411.215-.98.21-1.985.866-2.87 1.334 4.17-.001 8.319.08 12.486-.152 3.832-.212 7.82-.791 11.65-.616-3.255.684-6.575 1.264-9.887 1.587-4.8.47-9.622.544-14.426.939-1.114.091-3.088.017-4.028.588l-.03.072.17-.069.088.13c6.45-.046 12.886-.49 19.339-.367-1.972.575-4.269.674-6.306.922q-5.683.73-11.384 1.302c-2.005.198-4.406.153-6.277.873l27.416-1.259c-3.35.857-6.86.99-10.288 1.348-4.462.464-8.9 1.01-13.37 1.42-1.562.144-5.731.313-7.04.695-.572.167-1.181.663-1.68.995 3.163-.447 6.352-.057 9.513-.363 2.67-.259 5.316-.74 7.975-1.098 2.718-.366 5.462-.6 8.192-.864 1.695-.164 3.427-.387 5.129-.407-5.116 1.261-10.137 2.212-15.389 2.757-2.792.29-5.597.37-8.39.633-2.907.274-5.845.89-8.768.896-.595.47-1.21.927-1.772 1.434 3.691-.078 7.569.088 11.23-.353 2.422-.292 4.828-.733 7.244-1.069 2.68-.372 5.374-.623 8.058-.96 1.42-.18 2.959-.61 4.37-.661-5.693 3.339-14.913 3.162-21.419 3.755-3.86.351-7.842.974-11.716.857L55.1 40.49q8.83-.29 17.663-.218c-6.185 2.008-13.463 1.482-19.884 1.767-.505.49-1.007.97-1.46 1.509l6.846-.02c1.548-.019 3.113-.12 4.656.007-1.629.307-3.275.484-4.908.761-2.955.501-5.833 1.087-8.836 1.215-.396.324-.79.641-1.155 1 3.874-.184 7.723-.24 11.602-.25 1.762-.003 3.553-.076 5.313.006-6.266 1.58-12.756 1.826-19.17 2.314l-1.322 1.302c5.891-.24 11.755-.595 17.655-.635-1.585.541-3.381.748-5.03 1.026q-7.09 1.192-14.259 1.72c-5.123 5.726-9.555 11.726-13.578 18.268-1.081 1.758-2.293 3.544-3.151 5.42 1.316 1.153 2.723 2.19 4.049 3.326 2.93-.738 5.8-1.69 8.786-2.198 1.902.697 3.48 2.07 4.996 3.385l1.685 5.267c1.31.185 2.818.229 4.053.711 1.364.534 5.859 4.808 7.017 6.087 3.315-.813 6.62-1.61 9.872-2.659 1.864-.6 4.322-1.752 6.128-2.099.456.55.882 1.091 1.275 1.688 1.181-.599 3.264-1.968 4.61-1.538.873.279 1.724 1.526 2.08 2.32.742 1.653 1.344 3.365 2.117 5.006.7 1.487 6.403 12.79 6.999 13.274.187-.096.364-.196.541-.31.425.58-.008 3.122-.123 3.902-.131.89-.364 1.779-.808 2.565-.703.5-1.569.786-2.395 1.02-3.3.938-6.711 1.581-10.056 2.349l-16.277 3.81q-23.51 5.618-47.076 10.987c.04.873.063 1.752.127 2.623 7.186-1.954 14.545-3.426 21.795-5.143l49.226-11.572c-1.169 1.368-2.32 2.85-3.827 3.863-2.689 1.807-6.26 2.764-9.28 3.891-4.941 1.842-9.966 3.798-14.529 6.466q-1.543.888-2.986 1.931t-2.77 2.231c-1.507 1.375-2.893 2.892-4.456 4.202-1.96 1.644-4.07 3.102-6.08 4.683-1.916 1.507-3.75 3.151-5.58 4.76-1.736 1.525-3.927 3.965-5.66 5.182-2.195 1.542-11.494 3.484-11.566 6.614-.013.57.406 1.067.818 1.41.85.708 1.88 1.111 2.92 1.449-2.71 1.332-5.438 2.64-8.12 4.03l-.03-.16c-.464-2.379-1.482-4.693-2.166-7.018-1.298-4.412-2.376-9.035-3.118-13.577q-.236-1.392-.44-2.788-.203-1.397-.374-2.797t-.31-2.805-.243-2.812q-.105-1.407-.178-2.816-.072-1.41-.112-2.82t-.046-2.822.02-2.822.084-2.82.152-2.819.216-2.814q.125-1.405.283-2.808t.348-2.8.413-2.792q.223-1.393.478-2.781t.543-2.77q.288-1.38.607-2.755.32-1.375.672-2.741t.735-2.725.799-2.706q.415-1.35.861-2.688.447-1.338.925-2.666.477-1.328.986-2.645.508-1.316 1.047-2.62.54-1.304 1.108-2.596.57-1.29 1.17-2.568.598-1.278 1.227-2.541t1.288-2.511 1.345-2.481 1.403-2.449 1.46-2.415 1.515-2.38q.826-1.266 1.683-2.512t1.744-2.468 1.805-2.426 1.863-2.38 1.921-2.334 1.978-2.286q1.003-1.13 2.034-2.236t2.088-2.187 2.14-2.134 2.193-2.08 2.243-2.027 2.292-1.971 2.34-1.914 2.386-1.856q1.204-.913 2.43-1.797t2.475-1.736 2.516-1.675 2.557-1.613 2.595-1.55 2.633-1.486 2.668-1.42 2.703-1.355 2.735-1.287 2.765-1.22q1.39-.594 2.795-1.152 1.404-.56 2.822-1.083 1.418-.524 2.848-1.014 1.43-.489 2.872-.943t2.895-.872 2.915-.8q1.462-.384 2.933-.73 1.472-.347 2.95-.657 1.224-.244 2.451-.463t2.46-.413q1.231-.194 2.466-.362 1.236-.169 2.475-.312 1.238-.143 2.48-.261t2.484-.21q1.244-.093 2.489-.16t2.492-.109q1.246-.041 2.493-.057t2.493-.007 2.493.045 2.492.095q1.246.06 2.49.147 1.243.086 2.486.197 1.242.111 2.48.248 1.24.137 2.477.3 1.236.161 2.469.349t2.461.4q1.229.212 2.453.45 1.224.237 2.443.5t2.432.55 2.42.6 2.408.65q1.2.336 2.394.698t2.38.747 2.362.796 2.347.844 2.329.892 2.31.939 2.29.986 2.27 1.033q1.13.528 2.248 1.08 3.788 1.916 7.451 4.064t7.185 4.518q1.618 1.095 3.198 2.243 1.58 1.149 3.12 2.35t3.04 2.454 2.955 2.555 2.867 2.653q1.41 1.35 2.775 2.749 1.365 1.397 2.682 2.84t2.583 2.93q.662.754 1.311 1.52.65.766 1.287 1.542t1.26 1.563 1.235 1.584 1.208 1.603q.597.807 1.182 1.624.584.816 1.154 1.642.571.826 1.128 1.662.557.835 1.1 1.68.543.844 1.072 1.697t1.044 1.716 1.016 1.732.986 1.748.958 1.765.929 1.78.899 1.796.87 1.81.839 1.824.809 1.837.779 1.851.748 1.863.717 1.876.687 1.886.655 1.898q.32.952.624 1.91.304.956.592 1.918t.56 1.928.529 1.937q.256.97.496 1.945t.465 1.954.432 1.96.4 1.969q.275 1.456.514 2.92.24 1.463.442 2.932.204 1.469.371 2.942.168 1.473.3 2.95.13 1.477.226 2.957.095 1.48.154 2.961.059 1.482.082 2.964.023 1.483.01 2.966-.014 1.482-.064 2.964t-.135 2.963-.208 2.958-.28 2.952-.353 2.944-.424 2.935q-.23 1.464-.495 2.923-.266 1.459-.567 2.91-.302 1.453-.638 2.897-.337 1.444-.71 2.88-.371 1.435-.778 2.86-.407 1.426-.849 2.842-.441 1.415-.917 2.82t-.986 2.796-1.055 2.771-1.122 2.745-1.188 2.717-1.255 2.687-1.32 2.655-1.384 2.623-1.448 2.587-1.511 2.552-1.573 2.513-1.634 2.475q-.84 1.232-1.71 2.443-.87 1.21-1.769 2.4t-1.827 2.357-1.884 2.31q-.956 1.144-1.94 2.264t-1.995 2.216q-1.01 1.096-2.048 2.166-1.038 1.071-2.101 2.116-1.064 1.045-2.153 2.064-1.088 1.018-2.202 2.01t-2.25 1.956-2.298 1.9q-1.16.936-2.344 1.843t-2.388 1.786q-1.204.877-2.43 1.726-1.226.848-2.473 1.666-1.246.819-2.513 1.606t-2.55 1.543-2.589 1.48q-1.303.725-2.623 1.417t-2.658 1.352-2.69 1.287-2.72 1.22q-1.367.594-2.75 1.154-1.381.56-2.776 1.086t-2.803 1.018-2.826.948q-1.42.458-2.85.88t-2.869.809-2.889.739-2.906.667q-1.457.316-2.921.597c-28.29 5.542-57.176.396-82.44-13.187l-2.858 1.013c4.467 3.156 12.698 6.721 17.945 8.631 3.594 1.308 7.196 2.573 10.88 3.602q1.7.47 3.413.893 1.713.422 3.436.796 1.724.375 3.457.7 1.734.326 3.475.602 1.743.278 3.492.505 1.749.228 3.503.407 1.755.18 3.514.308 1.759.13 3.52.21t3.526.113q1.763.03 3.527.012 1.764-.02 3.526-.088 1.763-.067 3.522-.185 1.76-.117 3.516-.285t3.507-.382 3.494-.48 3.48-.58q4.5-.822 8.922-1.99 4.423-1.17 8.741-2.678 1.136-.385 2.264-.792 1.129-.406 2.249-.835t2.232-.879 2.214-.921q1.103-.472 2.196-.965t2.177-1.007 2.157-1.05 2.136-1.09 2.115-1.133 2.092-1.173q1.04-.597 2.069-1.213 1.029-.618 2.045-1.254 1.017-.637 2.02-1.293t1.995-1.332 1.969-1.37 1.941-1.409 1.914-1.446 1.886-1.482 1.856-1.52 1.826-1.555 1.796-1.59 1.765-1.624 1.733-1.659 1.7-1.692 1.667-1.725q.825-.87 1.633-1.756.808-.887 1.599-1.788.79-.902 1.563-1.82.774-.916 1.529-1.848t1.492-1.878q.736-.947 1.455-1.907.718-.96 1.417-1.935.902-1.256 1.772-2.535.87-1.278 1.708-2.578t1.644-2.62 1.577-2.66 1.51-2.699q.74-1.359 1.444-2.735.704-1.377 1.375-2.77.67-1.395 1.305-2.805t1.235-2.835 1.164-2.865 1.093-2.894 1.02-2.92.947-2.943.873-2.968.8-2.987.725-3.007.65-3.023q.305-1.516.573-3.04.27-1.523.5-3.052t.423-3.064.345-3.073q.155-1.538.27-3.08.114-1.543.192-3.088.077-1.544.115-3.09.04-1.546.04-3.093t-.04-3.092q-.037-1.546-.115-3.09-.075-1.545-.19-3.087t-.27-3.081q-.153-1.54-.345-3.074-.192-1.535-.423-3.064t-.497-3.052q-.533-2.912-1.211-5.794-.679-2.881-1.502-5.725-.822-2.844-1.787-5.642t-2.07-5.545q-.422-1.076-.863-2.144-.441-1.067-.903-2.127-.46-1.06-.941-2.11-.48-1.051-.98-2.093t-1.019-2.074-1.056-2.055-1.094-2.035-1.131-2.016-1.168-1.993-1.205-1.972-1.24-1.95q-.63-.968-1.277-1.926-.647-.957-1.312-1.902-.664-.945-1.346-1.878t-1.38-1.853q-.7-.92-1.415-1.827t-1.448-1.801-1.481-1.774q-.749-.88-1.513-1.746-.765-.867-1.545-1.718-.78-.852-1.577-1.69-.796-.837-1.607-1.66t-1.637-1.63-1.668-1.6q-.84-.793-1.696-1.57-.856-.776-1.725-1.537t-1.753-1.506-1.78-1.473q-.898-.728-1.808-1.44-.91-.711-1.833-1.406t-1.859-1.373-1.884-1.338q-1.234-.855-2.488-1.68t-2.53-1.62q-1.273-.794-2.566-1.558-1.294-.763-2.605-1.495t-2.64-1.431q-1.328-.7-2.673-1.368-1.345-.667-2.706-1.302-1.36-.634-2.736-1.236-1.376-.601-2.767-1.17-1.39-.567-2.793-1.101-1.403-.535-2.819-1.035t-2.844-.965-2.865-.896q-1.439-.431-2.887-.827-1.449-.396-2.906-.756-1.458-.361-2.924-.686t-2.94-.615-2.953-.543-2.965-.472-2.976-.4-2.986-.327-2.992-.255-2.997-.183-3-.11-3.004-.036-3.002.035-3.001.109-2.998.181-2.992.254-2.985.326-2.976.398-2.966.47q-1.529.273-3.05.583t-3.034.658-3.017.733q-1.505.386-2.999.808-1.493.423-2.977.882-1.483.46-2.954.956t-2.93 1.029q-1.458.532-2.903 1.1-1.444.57-2.874 1.173-1.43.605-2.846 1.244-1.414.64-2.812 1.314-1.399.675-2.78 1.384-1.382.709-2.745 1.452t-2.707 1.52-2.67 1.586-2.629 1.652-2.586 1.717-2.544 1.781-2.499 1.843q-1.237.937-2.452 1.905t-2.404 1.965-2.354 2.024-2.304 2.082-2.251 2.138-2.198 2.194-2.142 2.248-2.086 2.3-2.028 2.35-1.97 2.401-1.908 2.449-1.848 2.496-1.785 2.54q-.85 1.238-1.67 2.496t-1.609 2.536q-.789 1.279-1.546 2.575-.758 1.297-1.484 2.612-.726 1.314-1.42 2.646-.693 1.332-1.355 2.68-.66 1.349-1.289 2.713t-1.223 2.743-1.156 2.772q-.561 1.394-1.088 2.8-.528 1.406-1.02 2.825-.493 1.418-.951 2.849-.459 1.43-.882 2.87t-.811 2.892-.741 2.911-.67 2.928-.599 2.943-.526 2.957-.455 2.969-.383 2.978q-.173 1.492-.31 2.988t-.237 2.994-.164 2.999-.092 3.002-.018 3.004q.009 1.501.054 3.002.046 1.501.128 3.001t.2 2.997.273 2.99.346 2.984.419 2.975.49 2.962q.653 3.76 1.552 7.468.899 3.707 2.04 7.348c.579 1.883 1.138 3.822 1.95 5.621-.29.194-.57.341-.725.667l.129.166c1.374-.05 8.168-3.406 9.809-4.24 1.143-.582 2.283-1.349 3.49-1.775 1.823-.643 3.884-.33 5.787-.942-2.457-.057-8.582.576-10.368-1.209-.22-.22-.296-.424-.364-.72.098-.535.378-.755.803-1.052 3.035-2.12 8.03-2.983 10.503-4.875 1.21-.925 2.291-2.056 3.399-3.099q2.455-2.308 4.999-4.518 2.39-2.054 4.915-3.937c1.246-.935 2.557-1.823 3.733-2.844 1.473-1.279 2.769-2.748 4.203-4.067 1.653-1.52 3.561-2.827 5.493-3.968 4.242-2.506 8.98-4.392 13.588-6.102 3.34-1.239 7.9-2.522 10.763-4.55 1.761-1.248 3.17-3.193 4.729-4.696 1.197-1.154 2.925-2.269 3.929-3.575.471-.614.754-1.421.896-2.175.43-2.276.436-4.707.571-7.021q.264-4.854.738-9.692c.101-1.01.9-5.216.72-5.751l-.125-.058c-.434.17-.848.634-1.022 1.065-.197.486-.335 1.01-.488 1.51-1.276.302-2.612.54-3.871.879-.055.015-.1.055-.151.079-.041.019-.202.076-.25.094 1.385-.147 2.904-.511 4.27-.816l-.329 2.285c-1.276.21-2.587.436-3.824.82l-.14.09.14-.09c1.247-.038 2.561-.36 3.793-.57-.038.637-.11 1.272-.175 1.907-1.712.444-3.502 1.001-5.263 1.168-.998-1.892-2.304-4.233-2.751-6.325 2.179-.953 4.837-1.088 7.158-1.605 1.121-.249 2.149-.659 3.21-1.087q.154-.356.32-.707c1.265-2.661 4.661-5.304 7.425-6.262 3.587-1.243 7.94-.678 10.327 2.525.813 1.09 1.375 3.015 2.64 3.636 1.6.787 4.429-.075 6.78 1.106 1.863.936 3.35 2.907 3.972 4.876.322 1.02.732 2.669.222 3.656-1.299.814-4.63-1.707-6.349-1.38l.163.22-.073.17c-1.632.62-4.761.642-6.594.814l.693-1.27q2.325-.083 4.649-.191c-1.784-.3-3.614-.396-5.417-.544-.73.62-1.213 1.211-1.642 2.068.063 2.103.422 4.224.699 6.309q.538 3.911.911 7.842c5.178-1.081 10.325-2.355 15.483-3.53l27.863-6.339 79.007-17.996a24 24 0 0 0-.978-2.33q-13.453 2.94-26.841 6.163l-42.925 9.865-34.861 7.868c-5.202 1.177-10.488 2.173-15.65 3.505-.236-1.018-.324-2.094-.463-3.131 3.481-.591 6.954-1.425 10.423-2.112 18.26-3.618 36.307-8.161 54.454-12.293l36.956-8.204c5.922-1.312 11.911-2.459 17.774-4.019L231.84 79c-16.888 4.033-33.95 7.365-50.902 11.112-13.462 2.975-26.786 6.489-40.178 9.75-9.294 2.263-18.68 4.203-27.934 6.615l-.238-2.178c3.451-.885 7.082-1.414 10.583-2.103q9.058-1.819 18.062-3.894c7.823-1.859 15.566-4.055 23.384-5.933q20.205-4.678 40.506-8.918l16.544-3.625c3.182-.719 6.345-1.533 9.544-2.17l-.624-1.135c-5.686 1.418-11.428 2.572-17.154 3.813l-31.185 6.665-17.696 3.94c-3.69.859-7.396 1.861-11.12 2.543-1.16.212-2.332.322-3.49.543-1.528.292-3.102.717-4.65.863-1.018.097-2.057-.043-3.08-.012-1.035.031-2.133.269-3.155.449-2.413.424-10.769 2.767-12.407 2.667-.126-.273-.129-.481-.143-.776.35-.518 1.6-.6 2.22-.712 4.558-.832 9.151-1.471 13.704-2.353 11.2-2.168 22.359-4.685 33.505-7.115l23.466-4.994c10.204-2.208 20.386-4.642 30.632-6.643l-.67-1.078-71.413 15.357c-10.478 2.25-20.993 4.312-31.447 6.671q-.21-.911-.448-1.816m-18.623-.061c1.89.029 3.907.076 5.77-.256 1.668-.297 3.343-.89 5.04-.975 1.924-.098 3.62.491 5.054 1.794l.048.088-.049-.088q-.062-.157-.132-.31t-.147-.303-.162-.295-.177-.287q-.091-.141-.19-.277t-.204-.268q-.106-.132-.218-.257-.112-.126-.23-.246t-.242-.235-.253-.222-.264-.209q-.135-.1-.275-.195-.14-.094-.283-.182-.145-.087-.293-.167t-.3-.153-.308-.137c-2.403-1.01-4.863-.296-7.3-.889-1.198-.292-3.295-1.605-4.466-1.106-.6.257-1.017.879-1.44 1.352-1.827 2.051-4.195 1.447-6.589 1.488-.595-.347-1.085-.791-1.266-1.482-.17-.645-.017-1.33.34-1.884.609-.947 1.714-1.456 2.788-1.658 1.451-.273 2.928-.047 4.158.795.285.194.556.414.825.628 1.846-.518 3.492.065 5.281.528-1.159-2.121-2.423-4.128-4.89-4.835-2.338-.67-4.82-.238-6.9.964-2.552 1.475-4.324 3.432-5.078 6.308-1.056 4.04-1.172 10.363-1.435 14.677-.17 2.77.04 6.643-1.281 9.144-.228.43-.602.845-.94 1.199-.955 1.003-2.078 1.85-3.066 2.826-1.516 1.498-2.911 3.131-4.47 4.581-.71.66-1.477 1.263-2.233 1.867l1.84-.329c-1.146 1.227-2.682 1.936-3.904 3.07 1.85-.544 3.496-1.396 5.29-2.024-.432 1.166-.975 1.697-1.673 2.662l-.066.047.066-.047c2.014-.508 4.507-3.325 6.777-4.38-.82 1.487-1.952 2.832-2.943 4.212.83-.548 1.627-1.158 2.434-1.74l-.83 2.021c1.946-.993 3.54-2.887 5.075-4.424-.124 1.484-.52 2.388-1.29 3.637.558-.433 1.272-1.07 1.965-1.235l.109.104c-.062.978-1.104 2.31-1.603 3.162.968-.595 1.888-1.31 2.63-2.174.472-.549.84-1.537 1.424-1.898l.19.103c.087.308.158.551.327.827.41-.199.581-.516.731-.936.112-.31.23-.575.387-.866l.141.081c.799 2.234-.65 3.759-1.306 5.782l-.05.16c.483-.682.886-1.456 1.483-2.047l.111.074c-.16 1.148-.768 2.293-1.228 3.354l1.21-1.384c-.146 1.837-.727 2.933-1.671 4.463.704-.6 1.32-1.855 2.215-2.106l.108.145c-.235 3.46-4.301 5.866-6.143 8.508-.793 1.138-1.997 1.952-3.021 2.87.982-.289 1.898-.79 2.841-1.19-.522.671-1.146 1.259-1.744 1.861.527-.184 1.03-.404 1.596-.395l.086.164c-.73 1.13-4.692 2.39-6.04 3.169q-.917.536-1.764 1.18-.846.643-1.608 1.383c-.912.89-1.747 1.881-2.512 2.898-.794 1.055-3.717 5.886-4.538 6.194-2.839 1.068-5.814 1.392-8.731 2.17-2.643.703-5.319 2.054-8.05 2.322-2.425.238-4.95-.168-7.378-.229-5.22-.131-10.222 2.592-14.611 5.148 3.311.01 6.51-.28 9.807-.532 2.674-.204 5.33-.345 7.995-.68l13.294-1.711c2.39-.3 4.86-1.028 7.257-.644q.596 4.708 1.104 9.426l3.257-1.102c.133-2.13.323-5.036 1.55-6.866.832-1.241 2.53-2.894 3.866-3.558 1.248-.62 3.362-.856 4.812-1.41 5.863-2.247 13.461-6.197 17.349-11.193 1.05-1.35 1.91-2.915 2.322-4.583.81-3.272.766-7.618.802-10.993.132-12.457-.948-24.62-2.522-36.965-2.998 1.987-5.285 2.504-8.806 2.848 3.695-.991 7.394-3.579 10.19-6.177-.962-.49-1.91-.984-2.832-1.55m-51.174 12.596c.328 1.064 2.945 10.53 3.328 10.81l.032-.084-.125.08-.185-.171.3-.1c-.534-2.124-1.016-4.243-1.383-6.404.962 1.292 1.998 5.322 2.516 6.986l1.986-.507c-1.153-2.49-2.22-5.02-3.379-7.508-1.125-2.417-2.323-4.782-3.342-7.248-1.44-3.488-2.552-7.128-4.149-10.548-.353-.756-.975-2.363-1.777-2.713-.382-.166-.761-.091-1.125.078-.163 1.005.005 2.148.04 3.17.105 2.963.306 5.91.466 8.87-.524-1.819-2.62-10.92-3.539-11.702-.319-.273-.522-.493-.681-.888-.098-.243-.148-.376-.358-.55l-.186.069c-.078.13-.144.224-.189.376a1.3 1.3 0 0 0-.03.539c.114.686.401 1.42.587 2.1q.788 2.915 1.633 5.814c.92 3.256 1.544 6.733 2.872 9.848-.084-1.437-.223-2.89-.124-4.329.27 2.258.986 4.36 1.593 6.541a93 93 0 0 1 1.78 7.496c.141-1.653.057-3.356.059-5.016.346 1.392.604 2.806.869 4.215.075.403.08.948.222 1.313.363-1.778-.162-4.608-.33-6.453-.235-2.589-.488-5.225-.48-7.824.26.944.373 1.956.556 2.92.562 2.968 1.15 6.735 2.06 9.552-.184-3.081-1.05-6.685-.749-9.713.468 1.502.637 3.173.883 4.728.34 2.144.717 4.245 1.245 6.352-.072-2.354-.276-4.762-.527-7.104-.108-1.001-.298-1.99-.37-2.995m6.074 2.954c.772 1.02 1.326 2.221 1.917 3.35l.177.357.103.206.128.255.065.058-.065-.058-.127-.255-.104-.206-.177-.356.085-.237c1.023.877 1.872 2.466 2.654 3.596l1.639-.481c-2.733-3.517-5.018-7.528-7.255-11.367-1.261-2.166-2.477-4.352-3.958-6.378.023.592.04 1.158-.033 1.748l-.11.06-.326-.51c-.084 1.398 6.837 16.152 7.891 18.107-.56-2.718-1.517-5.302-2.504-7.889m-45.98 7.665c.85-2.293 1.339-4.642 2.407-6.872.031 1.687-.331 3.423-.554 5.093-.37 2.764-.718 5.535-.786 8.326.373-.924.316-2.184.512-3.198.523-2.713 1.11-5.413 1.981-8.037-.226 3.839-.954 7.868-.734 11.704.74-3.026 1.197-6.137 1.756-9.202.245 2.727-.02 5.486-.03 8.22l.12.145-.067.11.187-.168-.156.037c.292-2.435.816-4.85.993-7.297.34 2.446.633 4.982 1.147 7.395.044-1.588-.128-3.137-.297-4.713-.384-3.408-.721-6.846-2.13-10.017-.607-1.367-1.44-2.659-2.173-3.962-.789-1.398-1.494-2.83-2.183-4.28-.32 2.472-.907 4.91-1.226 7.39q.745-2.28 1.544-4.543c-.08 3.325-1.332 6.53-1.589 9.836q1.444-3.704 2.628-7.498c.085 3.822-.922 7.74-1.35 11.531M67.624 132.5l-.086.075c-1.008.364-1.97 1.038-2.915 1.551q-2.024 1.114-4.209 1.864c-.485.167-1.169.303-1.556.63 2.755.206 6.188-1.85 8.22-3.584q.25-.21.46-.46zl.124-.096zm5.19 8.219c-1.826.96-3.38 1.983-5.36 2.65-.393.132-1.262.295-1.418.685-.012.03-.012.065-.019.097 1.308.326 3.103-.569 4.213-1.23.886-.528 2.028-1.328 2.584-2.202l.048-.065zm.53 10.492-.344.032zl.154-.205zm-.596.119c-.76.09-1.474.305-2.125.714-.573.061-1.033.255-1.548.509l-.117.042.117-.042c.508-.041 1.188-.14 1.548-.51.757-.026 1.462-.377 2.125-.713l.126-.08zm-23.7 5.114c-1.822.671-3.595 1.548-5.456 2.113-.885.269-2.338.147-3.072.647 2.78.281 5.893-.561 8.09-2.335.164-.131.305-.264.438-.425l.061-.05zm-18.524 18.827c1.61-.548 3.342-1.5 4.989-1.835 1.175-.238 2.545-.014 3.748-.002.832.008 1.657-.089 2.48-.195 1.786-.23 3.588-.525 5.342-.935.97-.227 1.938-.605 2.918-.763.507-.082 1.003-.015 1.506-.065.704-.071 1.387-.301 2.097-.368.907-.086 7.054.247 7.29.096l-.07-.1.346.066c-.675-.371-1.485-.525-2.23-.706 4.86-.409 9.742.212 14.565-.897.076.594.139 1.191.228 1.783q-3.306.327-6.617.59c2.223.307 4.491.209 6.729.148q.138.92.26 1.84c-2.404.105-4.828.02-7.23-.117-1.427-.081-3.175-.457-4.576-.19-1.744.333-4.072 2.021-5.67 2.896a36 36 0 0 1-3.798 1.822c-7.525 3.051-14.656 2.207-22.393.911-1.858-.311-3.718-.714-5.588-.93.582 1.179 1.17 2.347 1.883 3.454 7.532 2.834 16.478 3.96 23.986.552 4.009-1.82 7.933-5.154 12.23-6.11 1.767-.394 3.538-.245 5.328-.325 1.938-.087 3.949-.469 5.834-.937-2.042 1.188-4.136 1.736-6.493 1.87-.873.05-1.78.028-2.643.162-4.864 1.335-7.476 3.866-11.685 6.086-1.641.865-3.472 1.416-5.228 2.004 4.625-.379 10.004-2.66 14.466-4.094 4.232-1.36 9.071-2.707 13.146-4.34-.391-2.887-.566-5.833-1.018-8.705-3.842.819-7.538.952-11.402 1.415-2.644.317-5.248.935-7.896 1.236-2.185.247-4.367.31-6.558.469-1.986.144-3.969.368-5.953.546-1.324.118-2.664.26-3.993.279-1.072.015-2.234-.143-3.292.031-.958.157-1.858.72-2.756 1.068-1.292.502-2.672.91-4.015 1.247-1.506.379-4.286.612-5.464 1.067-.09.293-.076.397.086.684.146.258.496.345.761.417 1.199.33 2.524.41 3.75.647 2.494.48 4.977 1.1 7.498 1.418q.379.045.758.081.38.037.76.065.381.029.762.05.381.02.762.032.382.012.763.016.382.003.763-.001.382-.004.763-.017.382-.013.762-.033.381-.021.762-.05.38-.029.76-.066t.758-.083.757-.099.754-.114.752-.132.748-.148q.374-.077.745-.163.372-.086.742-.18.37-.093.738-.195.367-.102.733-.211.365-.11.728-.227t.724-.243.718-.258.712-.274.706-.289.7-.304.693-.319.686-.334q.341-.17.678-.348.338-.178.672-.363.333-.185.663-.378.329-.192.654-.392.326-.199.647-.405c-1.807-.093-4.154-.609-5.861-.445-1.18.113-2.426.843-3.579 1.175-2.577.742-5.321 1.273-7.993 1.49-2.902.235-5.157-.41-7.857-.41-1.035-.001-1.92.238-2.931.381m174.373 27.486c-.08-.462-.324-1.236-.137-1.666.343-.172.553-.014.908.09l.077.046-.077-.046a8 8 0 0 1-.409-.404c-.257-.277-.537-.653-.532-1.037.576-.042 1.48.616 1.998.907-.768-.665-1.522-1.3-2.07-2.168l.062-.161c.378.109.617.303.92.54-.274-1.38-.635-2.718-1.019-4.07 1.929 2.628 2.327 4.226 5.225 6.289-.174-.45-.432-.833-.692-1.237-.24-.466-.387-.985-.654-1.44-.507-.86-4.05-5.878-4.516-6.012-.237.142-.286.178-.388.45-.602 1.614 0 5.939.433 7.612.208.8.539 1.551.87 2.307m-39.457-1.272c-1.88.216-7.343 2.552-9.552 3.313-2.437.84-4.944 1.486-7.37 2.337-.42.147-.8.317-1.152.591 4.143.262 12.29-3.087 16.09-5.097.63-.333 1.449-.676 1.984-1.144l.058-.079zM226.977 70.17c-10.406 2.306-100.974 20.696-101.915 21.517l.081.164.217.061c6.628-.932 13.244-2.217 19.807-3.524q12.411-2.562 24.792-5.267 12.456-2.538 24.881-5.222c10.47-2.237 21.003-4.263 31.437-6.659.353-.081.79-.134 1.072-.364a1.8 1.8 0 0 0-.372-.706m-187.75 8.609c-.156 2.279-.462 4.581-.465 6.862.104-.413 1.031-4.451 1.042-4.459.112 1.958-.18 3.912-.06 5.872.487-1.577.791-3.136 1.479-4.65-.337 3.044-1.196 6-1.257 9.086.373-1.3.72-2.631.96-3.963.006 1.963-.43 3.847-.571 5.79-.1 1.387.073 2.797.213 4.175.447-2.073.824-4.157 1.399-6.199-.075 2.736-.059 5.575.254 8.293.19-.422.464-4.663.72-5.82.133 2.48-.133 4.976.034 7.443.29-1.327.523-2.65.731-3.992.52 3.505-.03 6.951.292 10.439.528-1.7.693-3.355.805-5.124.178 1.048.192 2.063.167 3.124-.054 1.712-.331 3.54-.177 5.237q.018.22.039.441c.29-1.975.562-4.01 1.061-5.943.181 2.567-.052 5.16.03 7.735.435-1.666.727-3.373 1.203-5.025q.045 3.435.333 6.859.27-1.798.636-3.578c.534 2.048.507 4.014.78 6.085q.28-1.409.489-2.83c.47 1.273.597 2.614.91 3.928.015-4.709-1.813-9.47-3.125-13.944l-3.053-10.769q-1.972-7.063-3.584-14.217c-.424-.288-.843-.597-1.285-.856m-.819.303c-.205.976-.868 4.64-.724 5.423l.116.024c.168-.885 1.082-4.634.726-5.311-.035-.068-.066-.09-.118-.136M21.76 85.06c-.469 1.301-.955 2.617-1.263 3.966-.258 1.133-.353 2.293-.525 3.44-.23 1.53-.546 3.078-.821 4.604.42-.802.46-1.698.69-2.565q.56-2.042 1.144-4.078c-.282 2.69-.953 5.564-.755 8.257.546-2.41 1.07-4.768 1.934-7.09-.18 2.03-.894 4.097-.886 6.127-.266 1.905-.134 3.714.075 5.614.23-2.254.376-5.057 1.286-7.148-.319 3.275-.867 6.822-.536 10.102.396-1.788.611-3.712.727-5.54.156-2.452.166-13.59-.796-15.378a.9.9 0 0 0-.274-.311m79.956 3.436c.04.337.074.662.174.988.307.057.392-.024.677-.133.001-.223.058-.27-.118-.437-.221-.209-.458-.302-.733-.418m-1.782.578c-.154.372-.228.58-.16.993.231.25.296.322.661.343.15.009.38-.062.519-.092.178-.36.273-.442.198-.847-.295-.315-.81-.343-1.218-.397m-27.564.778c-1.623 1.702-2.562 2.448-2.49 5 .073 2.623.345 5.745.835 8.319q-.036-4.362.575-8.68c.392 2.44.036 5.02.301 7.511.241-1.646.28-3.308.48-4.957.516 3.026.816 6.153 1.004 9.217.381-2.198.228-4.432.392-6.647.769 1.933.486 6.295.977 8.467q.101-1.399.177-2.8c.026-.987.077-1.949.207-2.928 1.064 3.353 1.014 6.895 1.585 10.333.214-2.382-.011-4.787.31-7.158.135 1.258.216 2.536.535 3.762.237-.408-.014-1.994-.028-2.565.853 1.99 1.183 4.472 2.053 6.655-.234-3.252-5.272-21.754-6.913-23.529m5.786 1.125c-1.524 4.216.582 11.997 1.595 16.363.47 2.025.895 4.079 1.455 6.079a68 68 0 0 0-.417-5.47c-.144-1.287-.467-2.773-.352-4.062.73 3.148 1.425 6.328 2.218 9.46-.017-1.037-.582-7.165-1.026-7.734l.082-.08-.046-.182q.023.087.048.173c.65 2.007 1.365 4.003 1.736 6.089.075.399.116.654.398.969l-.007.088c.205-.306-.769-5.935-.904-6.627 1.002 2.08 1.618 4.495 2.291 6.707-.214-1.632-.467-3.268-.63-4.905.245.72 1.25 4.188 1.749 4.467.209-.484-.1-1.325-.214-1.852.36.578.726 1.383 1.266 1.787.304-.017.305-.087.526-.278.194-.476.117-.85-.08-1.312-.808-1.895-2.199-3.708-3.2-5.527-1.37-2.488-2.481-5.125-3.632-7.719-.453-1.022-2.439-6.017-2.856-6.434m-14.165 1.79c-.901.236-1.607.54-2.36 1.107.941 2.026 1.082 4.403 2.098 6.358-.303-2.23-.484-4.427-.466-6.679.715 2.614 1.117 5.315 1.553 7.986.044-1.13-.109-7.162.046-7.572.147.232.107.123.156.31l.03.193c.138.919.424 6.813.713 7.072.213-1.94-.2-3.882-.135-5.827q1.002 3.074 1.92 6.173c-.051-2.246-.45-7.207-2.19-8.787-.381-.346-.691-.401-1.2-.354zm53.738 1.395a69 69 0 0 0-3.268.774c2.6.185 5.012.31 7.497 1.181.729.278 1.534.666 2.298.805-1.67-1.537-3.199-2.89-5.628-2.838-.3.007-.601.044-.899.078m-56.586.033c-.065 1.127.45 3.762 1.202 4.647.029.033.063.06.094.09-.175-.867-.693-4.297-1.296-4.737m1.255 4.868h.104zm-37.723.665c-.065 3.957-.879 8.156-.063 12.069.223-1.638.364-3.303.653-4.93.245 2.826-.007 5.75.352 8.546.147-1.062.31-2.124.41-3.192a24 24 0 0 0 .17-1.811c.188 2.215.55 4.442.942 6.63.125-1.576.208-3.16.098-4.741-.146-2.095-1.562-11.053-2.518-12.523-.012-.018-.03-.032-.044-.048m129.394 10.442c-2.006.216-3.939.86-5.937 1.135-.191 6.468-.224 13.038-.728 19.49 1.633-.364 3.304-.68 4.907-1.157 2.696-.962 4.673-2.47 5.929-5.103 1.457-3.055 1.905-7.714.766-10.928-.46-1.3-1.281-2.457-2.564-3.04-.722-.328-1.584-.457-2.373-.397m-9.741 1.985-2.436.513c-.462 4.796-.27 9.665-.424 14.48-1.553-4.574-3.772-8.851-5.655-13.286-1.125.26-2.251.55-3.392.729q-.362 7.917-.564 15.84c-.023.737-.27 2.95-.115 3.536.021.082.09.144.136.216.185 0 .346.001.528-.033.678-.155 1.367-.294 2.038-.475.128-2.506.163-5.01.246-7.518.083-2.489.245-4.983.076-7.47 1.065 2.688 2.352 5.26 3.543 7.892.844 1.867 1.586 3.78 2.436 5.642 1.077-.218 2.154-.46 3.236-.654.041-2.342.844-18.732.625-19.2-.035-.074-.093-.134-.139-.201zm97.35 3.373q-18.274 4.04-36.492 8.317l-49.219 11.39-27.172 6.225-9.788 2.269c-2.027.471-4.106.857-6.094 1.47-.489 4.878-3.142 8.573-6.855 11.612-2.68 2.193-8.464 5.575-11.648 6.805-.597 2.388-1.292 4.752-1.853 7.15 4.534-1.38 9.007-2.992 13.503-4.488q9.172-2.972 18.282-6.126c-.52-.134-1.08-.31-1.616-.33-4.402-.159-11.877 3.13-16.212 4.391-2.612.761-5.25 1.206-7.925 1.676-.883.155-2.588.659-3.385.2-.05-.226-.089-.179.039-.355.305-.42.874-.645 1.35-.81 1.136-.393 2.393-.519 3.56-.818 3.125-.8 6.233-1.744 9.196-3.023 2.118-.915 4.254-1.825 6.327-2.838 6.638-3.247 13.574-7.146 21.072-7.826 2.921-.265 5.784-.067 8.663.46 1.369.25 2.984.817 4.368.752 1.287-.06 2.732-.678 3.95-1.08q4.454-1.455 8.756-3.315c4.056-1.803 7.99-3.88 12.051-5.681 7.52-3.672 15.474-8.631 24.22-6.181 4.232-1.517 8.643-2.613 12.793-4.356q-3.224.194-6.453.153c-1.65-.023-3.401-.176-5.038-.005-1.38.144-2.762.525-4.114.828q-3.837.856-7.66 1.768c-3.32.77-6.633 1.53-9.94 2.347-1.484.367-3.382.621-4.713 1.349-.988.54-1.852 1.297-2.815 1.882-1.73 1.05-3.506 2.04-5.254 3.063-3.555 2.08-6.933 4.069-10.894 5.307-7.442 2.324-13.455-1.99-19.96-.738-2.453.473-5.024 1.092-7.348 2.008-6.887 2.717-12.858 6.942-20.23 8.434.968-.879 1.919-1.823 3.04-2.506 1.473-.898 3.296-1.508 4.883-2.2 3.086-1.344 6.26-2.739 9.239-4.306-4.081 1.017-8.15 1.959-12.198 3.108.625-1.393 1.336-2.822 1.755-4.292 6.138-1.246 12.237-2.793 18.336-4.22l21.84-4.99 88.331-20.214c-.08-.713-.103-1.483-.344-2.161-.254-.133-.137-.123-.335-.105m-175.756.66h.092zm.123.25h.099zm58.667-.02q-1.446.326-2.897.626c-1.255 3.564-2.149 7.255-3.158 10.895-.901 3.247-1.923 6.485-2.715 9.758 1.017-.162 2.001-.352 2.992-.635.402-1.304.781-2.621 1.225-3.91.548-.768 4.203-1.344 5.272-1.58.318 1.249.584 2.544 1.013 3.759a63 63 0 0 0 2.991-.605q-1.55-6.558-3.265-13.074c-.347-1.356-.84-4.135-1.458-5.233m-58.54.27h.108zm-48.979 1.401c-.437 1.36-1.597 4.819-1.175 6.135.303-1.456 1.445-4.85 1.175-6.135m15.466 2.509c-.042 1.107-.33 2.982.073 3.994l.258.127c.062-1.252.056-2.76-.198-3.987zm210.002.423c-2.719.704-5.516 1.162-8.217 1.907.148 1.374.073 3.279.49 4.574 2.646-1.154 5.349-2.526 8.103-3.385-.036-.7.075-2.547-.284-3.076zm-13.485 3.286c-2.729.486-21.592 4.465-22.921 5.302l.002.026c2.27-.008 4.528-.141 6.793-.26 1.316-.069 2.701-.065 3.995-.294 2.965-.526 9.278-3.05 12.042-4.572.101-.174.104-.1.089-.202m13.566 2.063c-2.557 1.106-5.163 2.182-7.642 3.455.034.736-.087 2.971.313 3.486q3.761-1.574 7.606-2.934c.013-.73.223-3.484-.114-3.982zm-11.04.87c-8.353 3.208-16.98 5.883-25.468 8.718l-28.229 9.596L79.08 178.62l-30.74 10.407c-3.876 1.34-7.93 2.483-11.72 4.027l2.607 32.35.763 9.737c.127 1.646.189 3.325.403 4.961.624.064 16.25-5.457 17.94-6.025q71.972-23.934 143.539-49.05l20.737-7.093c4.104-1.392 8.326-2.669 12.35-4.276l-2.273-36.571c-.11-1.666-.304-8.708-.789-9.832zm11.092 5.387q-3.654 1.473-7.35 2.838c.111 1.433.204 2.87.335 4.302l6.99-2.707c.08-.958.43-3.587.128-4.39zm-169.699.509c-1.301.765-2.607 1.589-4 2.179-.707.3-1.898.532-2.451 1.022.035.074.058.157.115.216q.227-.035.452-.08.226-.043.449-.097.223-.053.444-.115t.44-.133q.218-.072.433-.152t.427-.168.42-.186.412-.203.403-.219q.2-.113.394-.235.195-.121.385-.251.189-.13.373-.267.184-.136.363-.281.178-.144.351-.296.172-.151.339-.31.166-.158.325-.323zm6.12 1.491c-2.27 1.384-4.362 2.593-6.978 3.224-.023.218-.055.13.053.274 2.533.056 4.888-1.325 6.677-3.029q.166-.158.329-.319c-.024-.052-.034-.117-.08-.15m112.412 1.797c-6.32.746-11.975 4.268-17.442 7.308q1.507-.459 2.972-1.039 6.135-2.03 12.245-4.137c1.994-.666 4.031-1.243 6-1.976-1.227-.204-2.534-.326-3.775-.156m-109.688 1.55c-.882.391-1.802.858-2.733 1.108-.553.149-1.405.172-1.869.478.167.196.231.24.45.356 1.372-.034 3.222-.439 4.213-1.477a.8.8 0 0 0 .201-.36zm86.52.55c-1.872.465-3.76.906-5.612 1.444-1.694.491-3.34 1.14-5.033 1.631-1.634.475-3.332.775-5.006 1.078q.694-.581 1.405-1.14c-2.133.544-4.263 1.123-6.407 1.621-1.552.36-8.438 1.64-9.335 2.163 3.474.363 6.932 1.36 10.403 1.553 5.233.29 10.029-2.582 14.423-5.058 1.772-1 3.666-2.005 5.301-3.215-.082-.088-.033-.067-.139-.077m-106.664.13c-1.446.617-2.856 1.358-4.358 1.827l-.242.077-.147.044c.033.07.055.147.108.203 1.48.154 3.216-.699 4.319-1.656a2.7 2.7 0 0 0 .34-.374zm6.166.111c-1.433 1.061-2.847 2.165-4.436 2.988-.438.227-2.15.819-2.358 1.159l.031.247c2.135-.118 4.859-2.038 6.252-3.58.247-.274.442-.452.511-.814m174.422.493c-2.108.894-4.313 2.004-6.529 2.568.101 1.596.25 3.206.28 4.804 1.91-.63 3.75-1.555 5.659-2.129.181-.987.942-4.552.59-5.243m-155.882.874c-.948.34-1.895.706-2.902.821-.567.065-1.469-.177-1.956-.008.073.222.152.316.32.477 1.418.27 2.93.254 4.172-.614.161-.113.31-.238.457-.368l-.01-.24zm-8.046 2.123c-1.575.859-3.231 1.861-4.946 2.4-.685.215-2.24.28-2.725.726.08.133.121.203.247.299 2.946.192 5.334-1.423 7.471-3.247l.01-.145zm-22.514.36c-2.092 1.095-4.147 2.283-6.42 2.976-.67.204-1.394.186-2.05.39-.24.074-.284.074-.41.3l.29.226c2.655-.17 4.91-1.071 7.158-2.47.474-.294 1.089-.643 1.48-1.041.104-.106.121-.159.18-.277zm5.45 1.516c-1.333.874-2.67 1.644-4.181 2.167-.564.195-1.177.409-1.763.511-.428.074-1.14-.059-1.471.208.04.13.075.243.139.364 2.457.138 5.133-.956 6.97-2.589.23-.204.292-.29.386-.573zm20.332.513c-1.702.706-3.261 1.423-5.126 1.563l-.056.134.291.276c1.67.217 3.173-.322 4.488-1.355.177-.139.34-.288.498-.448zm-15.481 1.247c-1.738.823-3.606 1.856-5.481 2.308a.7.7 0 0 0-.365.185c.046.075.08.161.145.219 1.839.058 4.09-.947 5.444-2.216q.162-.155.31-.323zm174.988.994c-1.659.592-3.298 1.233-4.953 1.834.1 1.618.172 3.261.392 4.868 1.155-.44 2.323-1.021 3.504-1.363.328-.958 1.363-4.443 1.123-5.29zm-170.575.592c-1.358.74-2.748 1.577-4.237 2.023-.61.183-1.981.29-2.41.668l.213.126c2.362.011 4.707-.7 6.41-2.424.09-.09.137-.151.222-.254-.133-.145-.058-.115-.198-.14m-22.348.422c-1.816.701-3.514 1.644-5.346 2.33-.76.284-2.79.206-3.167.836l.011.167c2.274.122 6.447-1.158 8.11-2.67.164-.15.283-.325.404-.508zm6.233 1.075c-.729.341-4.644 2.194-4.905 2.645l.27-.006c1.231-.326 4.166-1.483 4.838-2.506l-.058-.126zm5.672 1.033c-.764.417-6.446 3.292-6.49 3.344l.081.076q.451-.077.895-.188.445-.11.88-.253t.858-.318.832-.381.801-.442.766-.5.727-.555q.354-.292.684-.608l.018-.144zm78.068 1.92c-7.063.65-15.446 3.94-21.497 7.638l7.846-1.799c2.929-.836 5.805-1.511 8.83-1.885 1.69-.21 3.42-.218 5.093-.535 2.897-.548 5.829-1.66 8.613-2.624-2.808-.59-6.018-1.182-8.885-.795m-87.805.62c-1.953.371-3.92.812-5.907.934-.997.061-2.341-.363-3.255-.135.123.254.17.227.412.35 2.83.905 6.136.08 8.827-.998l.123-.153zm189.116 2.096c-.938.347-1.894.67-2.819 1.051.11 1.678.174 3.375.357 5.046.732-.294.92-.487 1.224-1.2.574-1.345 1.237-3.337 1.329-4.802zM43.624 155.75c-1.727.942-3.572 1.733-5.559 1.881-.605.045-1.57-.232-2.075-.004.1.133.195.262.31.382 1.508.587 3.538.068 4.974-.57.832-.37 1.81-.85 2.436-1.52zm12.851 1.619c-1.793.757-3.619 1.567-5.488 2.117-.561.166-1.807.353-2.17.748l.172.07c1.591-.26 6.599-1.477 7.642-2.775.023-.029.04-.062.06-.093zm74.246.542c-.828.159-1.688.275-2.475.587l-.117.182.124.159c.698-.15 2.063-.362 2.572-.838zm-69.133.603c-1.052.361-8.178 2.194-8.25 2.34l.066.049c2.723-.21 5.792-.848 8.204-2.19l.076-.145zm30.793 5.874-5.535 1.917a48 48 0 0 0-.296 6.523c1.292-.404 2.641-.755 3.893-1.268.354-1.55 1.942-6.119 1.938-7.172m-7.804 3.717c-1.004.993-1.732 4.063-1.697 5.474.006.215.005.292.152.436l1.467-.411c.05-.871.474-5.008.078-5.499m-61.481.208h.216zm-.311.125h.152zm-.25.125h.152zm-6.38 7.244c-.736.077-1.476.17-2.214.224 3.874 10.018 12.25 23.594 19.552 31.477l1.1 1.16c-.105-1.33-.219-2.658-.27-3.99q-3.012-3.571-5.731-7.37-2.72-3.797-5.13-7.8-2.823-4.847-5.294-9.883c-.371-.765-1.407-3.405-1.94-3.822zm214.79 2.594c-1.761.36-10.47 2.883-11.293 3.992-.107.143-.099.142-.16.28.233.052.135.061.294.022 3.504-1.061 6.903-1.846 10.53-2.371.31-.57.781-1.236.911-1.87-.209-.093-.113-.093-.282-.053m-3.984 3.522c-3.01.372-5.866 1.183-8.7 2.238 1.512.345 3.082.418 4.618.614 1.432.357 2.689.727 3.741 1.833 1.277-1.366 2.137-3.107 2.962-4.77-.854.017-1.78-.035-2.621.085m-11.51 1.358c-.994.298-3.514.813-4.224 1.438l.079.06c1.62-.27 2.85-.485 4.26-1.428zm-187.443.515c.678 1.188 1.332 2.4 2.07 3.553 2.656.656 6.86 2.038 9.534 1.409 2.158-.507 4.24-1.484 6.362-2.135l2.33-.716c-3.2-.096-6.391.219-9.586-.051-3.686-.311-7.112-1.346-10.71-2.06m179.804 2.075-1.988.667c.867.472 1.642 1.052 2.4 1.682a41 41 0 0 0 3.18-.872c.933-.254 1.864-.521 2.802-.755-2.106-.352-4.27-.513-6.394-.722m15.94.385c-4.512 1.5-9.18 2.518-13.731 3.912.316.35.617.78 1.093.894.265-.055.506-.115.759-.215 3.436-1.035 10.488-3.433 13.76-3.518-.548-.333-1.279-.902-1.88-1.073m-192.683 2.58c.568 1.035 1.333 2.214 2.19 3.029l.155-.063c.1-.386.106-.687.461-.933.16-.11.462-.197.653-.246.561-.156 1.13-.297 1.678-.495-1.72-.403-3.438-.801-5.137-1.292m193.558.444c-3.445 1.651-8.36 2.519-12.131 3.697l.653.894c.088.028.173.086.266.084.44-.01 9.295-2.58 10.291-2.925.316-.547.639-1.08.986-1.607zm-28.142.762c.017.04.03.083.052.12.477.839 1.643 1.206 2.136 2.197.648 1.302.14 4.598.147 6.148q.004 1.785.224 3.558c.109-.596.053-1.524.326-2.03l.085-.158.07-.123-.043-.223c.005-.577-.074-.819.307-1.298l.018.032c.313-.768-.086-1.603-.314-2.357l.669.915.069-.022c.081-.687.085-1.382.106-2.073l.038.074c.08-1.377.016-2.74-.932-3.847-.552-.645-1.413-.975-2.256-.992a3.6 3.6 0 0 0-.702.08m-8.008 3.232c-.802.27-1.62.52-2.407.83-1.796 5.29-3.507 7.815-3.477 13.794.873-1.269 1.46-2.683 2.147-4.055 1.151-2.297 2.757-4.618 4.817-6.185-1.287 1.696-2.196 3.601-3.32 5.397-.512.846-1.075 1.69-1.48 2.594 1.286-1.142 2.38-2.434 3.215-3.945 1.022-1.849 1.713-3.778 3.274-5.272-.327.752-1.05 1.772-1.148 2.545l.129.059c.462-.194.767-.436 1.142-.763.31-.911.922-1.923 1.04-2.855-.272-.312-.59-.389-1.008-.405-1.326-.05-3.81 2.296-4.679 3.211.349-1.677.996-3.07 1.697-4.625.078-.173.054-.11.058-.325m32.835.859c-2.132.703-4.375 1.183-6.474 1.959.566.632 1.12 1.282 1.704 1.898l1.125 1.189c1.367-1.54 2.6-3.174 3.794-4.85l-.033-.175zm-37.972.834c-.465.527-.782 1.183-1.127 1.792l.028.313c.495-.541.868-1.222 1.14-1.903zm-.705.309q-1.653.464-3.251 1.094c-1.338 2.643-2.373 6.39-1.398 9.309.15.45.344.886.538 1.318l.27.395.09-.036c-.443-4.124.472-7.162 2.814-10.554.262-.38.888-1.078.937-1.526m-.55 2.016c-1.395 2.134-2.076 4.036-2.621 6.519.285-.394.632-.798.843-1.236.291-.484 1.13-1.532 1.152-2.032a10 10 0 0 0-.637.273c.893-1.363 1.118-1.762 1.607-3.307l-.093-.158zm9.012 1.612-1.127.507c-.518.895-1.18 1.837-1.535 2.805l.099.09.153-.053c.755-.324 1.537-.748 1.826-1.575.018-.052.029-.106.043-.159-.173-.21-.068-.127-.315-.245.141-.209.29-.344.476-.508.243-.215.35-.349.47-.647-.027-.073-.032-.163-.09-.215m-2.198 3.453c-1.513.685-2.882 2.552-4.174 3.703l.034.154.19-.069c.917-.517 3.703-2.768 4.174-3.615l-.04-.169zm-13.518.288c-5.677 2.137-11.706 4.631-17.822 5.011-1.322.082-2.648.084-3.97.171-1.185.078-2.37.238-3.556.28-1.07.037-2.53-.23-3.545.008-1.414.333-2.794 1.09-4.129 1.657a38 38 0 0 1-4.635 1.619c-1.57.439-3.238.326-4.788.744-2.883.776-5.771 1.904-8.605 2.858l-17.253 5.845q-11.603 3.875-23.143 7.935c-2.07.737-4.232 1.3-6.271 2.107q2.065.958 4.166 1.835c3.484-.905 5.917-3.083 8.915-4.868q.699-.412 1.43-.763.73-.352 1.489-.64.758-.288 1.538-.511t1.576-.379c3.279-.65 6.246-.424 9.457.473 1.916.536 3.772 1.27 5.799 1.057 3.305-.345 6.105-2.362 9.376-2.82 3.313-.463 4.652.442 7.65.986 1.461.264 3.143.208 4.609.013 5.153-.683 10.682-4.083 16.148-5.364 3.746-.878 7.71-1.329 11.559-1.22 1.814.053 3.796.516 5.59.245 2.523-.382 4.899-1.679 7.265-2.573q3.508-1.29 7.115-2.267c2.789-.75 5.646-1.31 8.417-2.107-1.353-.526-2.951-.718-4.388-.867-8.91-.924-14.248 3.441-22.36 4.44-1.835.225-3.617-.078-5.427-.356-2.069-.318-4.224-.787-6.318-.823-3.274-.058-6.907 1.685-9.867 2.983-5.311 2.327-8.326 3.499-14.277 3.319-1.892-.058-3.716-.36-5.615-.117-1.778.228-3.425.864-5.086 1.503-3.375 1.299-5.06 1.514-8.61.83-1.255-.243-2.503-.488-3.718-.891 1.35.117 2.742.416 4.094.342 4.151-.227 7.739-3.331 11.995-3.81 4.891-.548 7.127 2.025 12.651.303 5.724-1.785 10.578-6.164 16.616-7.075 4.652-.702 9.718 3.133 14.113 2.02 3.289-.833 8.647-4.69 11.336-6.938l.141-.119c-6.086 1.953-14.001 4.212-20.31 2.258 5.749.357 8.908-.872 14.155-2.842q3.11-1.151 6.26-2.193c.129-.439.28-.837.233-1.299m5.441.103c-.447.44-.862.742-1.401 1.057-.034.87-.172 1.883.037 2.735l.21-.914c.215-.957.662-1.844 1.159-2.684zm23.44 9.683c-8.058.409-15.322 1.6-23.093 3.889-4.298 1.266-8.558 3.004-12.95 3.916-1.716.357-3.568.144-5.317.265-4.33.302-8.578.812-12.799 1.84-4.405 1.074-8.715 3.434-12.922 4.212-2.246.415-4.686.308-6.924-.118-2.287-.435-4.343-1.078-6.701-.763-4.123.552-7.24 3.907-11.766 3.924-1.425.005-2.802-.399-4.159-.792-2.883-.837-5.533-1.623-8.574-1.297-3.95.423-6.973 2.382-10.514 3.895a26.6 26.6 0 0 1-5.787 1.707c2.113.954 4.4 1.993 6.614 2.672 5.22-3.376 9.094-4.766 15.35-3.762 4.06.651 5.782.948 9.93.24-5.037 2.52-7.74 1.296-12.866 1.519-2.708.118-5.248.796-7.736 1.849-.697.323-1.406.632-2.086.988 1.683.549 3.476 1.28 5.219 1.56 1.341.216 2.777.005 4.134-.008 2.848-.027 6.547.506 9.177-.838 1.073-.549 2.024-1.453 2.945-2.219 2.56-2.128 5.293-4.429 8.567-5.322 4.035-1.102 7.19.505 11.056 1.25 1.62.313 3.318.33 4.953.13 2.956-.362 5.723-1.487 8.345-2.856 1.918-1.001 3.675-2.014 5.789-2.57 2.33-.615 4.29-.22 6.613.253.853.174 1.713.371 2.59.288 2.367-.223 5.018-2.362 7.486-2.997 4.832-1.243 9.642-.639 14.519-1.144 2.438-.252 4.723-1.22 7.196-1.364 1.438-.084 2.794.022 4.188.383 2.155-1.557 4.366-3.063 6.44-4.726-3.526.396-7.133.876-10.604 1.62-2.303.494-7.766 2.349-9.66 2.282-1.46-.051-3.81-1.025-5.302-1.433 8.175-2.713 13.406-4.31 22.156-4.636 2.033-.076 4.054.076 6.081.048.812-.625 1.585-1.297 2.364-1.963zm-12.28 10.607c-2.325.47-4.599.85-6.977.927-3.667.12-7.232-.19-10.885.426q-1.367.243-2.704.62-1.337.378-2.63.886c-2.005.774-3.998 1.752-6.152 2.025-2.719.343-5.187-.658-8.383-.096-4.954.87-8.913 4.152-14.07 4.708-5.2.56-10.98-1.815-15.803-1.043-2.112.339-3.963 1.29-5.83 2.286q-2.873 1.54-5.781 3.012c-.944.49-1.837 1.087-2.793 1.55-2.144 1.037-4.694 1.248-7.04 1.276 1.107.26 2.212.517 3.331.726q3.522.578 7.06 1.05c3.817-2.133 7.12-4.67 11.53-5.56 5.429-1.095 9.412 1.98 14.397 1.582 2.602-.208 5.332-1.396 7.827-2.153 5.698-1.728 9.59-2.425 15.517-2.798 1.495-.094 2.959-.328 4.448-.046.96-.807 1.743-1.79 2.694-2.594 1.776-1.5 4.893-2.514 7.202-2.327 1.775.143 3.55.843 5.279 1.27 1.654-.802 9.176-4.595 9.933-5.722zm-16.183 6.875c-1.848.299-3.552.811-5.162 1.79-.946.575-1.966 1.404-3.042 1.69-2.185.58-5.261.305-7.709.77-5.661 1.073-11.183 2.876-16.884 3.743-2.569.392-5.215.713-7.816.573-5.531-.295-6.282-1.544-12.085.444-2.387.818-4.783 1.829-7.091 2.848q2.064.174 4.135.243c2.777.155 5.389-.382 8.146-.44 1.908-.04 3.764.419 5.693.337 2.471-.104 4.946-.385 7.411-.592 2.312-.195 4.584-.25 6.861-.75 2.195-.483 4.264-1.428 6.472-1.924 2.084-.468 4.276-.446 6.3-.926 2.106-.5 4.201-1.366 6.224-2.129 4.186-1.578 8.812-3.298 12.685-5.54-1.376-.135-2.756-.282-4.138-.137"/><path d="M146.688 24.438q-.112.08-.225.154c-.274.174-.266.167-.578.1-.12-.287-.134-.427-.019-.726.192-.5.595-1.045 1.047-1.337 1.239-.8 3.114-.896 4.5-1.422 1.666-.631 3.296-1.47 4.918-2.211.23.037.478.09.688.199.357.185.66.62.726 1.014.066.4-.074.778-.3 1.101-.348.497-.93.818-1.48 1.042-.858.349-1.808.472-2.707.68-2.192.507-4.364.969-6.57 1.406M126.13 39.38l1.939-.074c.53-.018 1.069.005 1.6.008-.34 2.374-.388 4.804-.54 7.197-.228 3.577-.495 7.152-.589 10.736l-1.464.037-1.756.079c.159-5.987.849-12 .81-17.982m4.192 17.727c.798-5.935 1.156-11.94 2.069-17.862 2.497.021 5.023.098 7.514.266-.023 1.227-.168 2.408-.345 3.62-1.45-.11-2.897-.146-4.349-.182-.152 1.131-.297 2.253-.371 3.393q1.829.024 3.652.174-.196 1.685-.413 3.368c-1.233-.01-2.448-.159-3.668-.323q-.285 1.968-.498 3.946 2.243.054 4.476.261-.183 1.702-.3 3.41c-2.587-.067-5.182.103-7.767-.071m9.298.218c1.262-5.487 2.046-11.873 2.854-17.494 1.833.225 3.804.351 5.578.87 1.28.374 2.513 1.048 3.137 2.28.639 1.26.586 2.962.125 4.27-.582 1.654-1.784 2.554-3.294 3.291.773 2.804 1.629 5.58 2.373 8.395-1.265-.19-2.525-.389-3.802-.48l-.35-1.493c-.309-1.5-.68-3.029-1.086-4.507-.152-.554-.317-1.317-.833-1.613-.624.603-1.186 5.721-1.377 6.91zm5.598-13.47c-.236 1.316-.502 2.633-.631 3.965.97.054 1.81.127 2.742-.204.452-.493.856-1.167.827-1.861-.02-.465-.248-.816-.59-1.117-.677-.596-1.49-.655-2.348-.783m-31.525-3.326c1.453-.211 2.933-.325 4.393-.479 1.317-.16 2.656-.12 3.771.688.975.707 1.511 1.828 1.662 3.003.235 1.833-.28 3.91-1.415 5.366-1.317 1.69-3.048 2.089-5.051 2.366l-.068 5.248.006 1.632q-1.665.28-3.334.533c.347-6.082.05-12.263.036-18.358m3.758 3.15c-.218.158-.23.099-.277.389-.17 1.07-.08 2.414.018 3.491.604.231 1.326-.082 1.893-.338q.121-.057.24-.12c.495-.529.93-1.144.925-1.903-.004-.435-.205-.803-.525-1.088-.689-.612-1.423-.501-2.274-.43m33.786 15.432c.744-2.086 1.136-4.357 1.621-6.514q1.249-5.419 2.338-10.871c2.237.757 5.133.869 7.077 2.248 1.003.712 1.63 1.78 1.822 2.99.242 1.519-.154 3.254-1.105 4.473-.854 1.097-1.821 1.447-3.138 1.64.645 2.898 1.487 5.782 2.204 8.667-1.329-.358-2.666-.655-4.01-.947l-.306-1.895c-.411-2.211-.734-4.49-1.312-6.662-.959 2.385-1.435 5.14-1.848 7.672zm6.541-13.206c-.345 1.341-.795 2.76-.975 4.128.921.162 1.66.304 2.582.04.59-.481 1.075-1.079 1.148-1.867.05-.545-.201-1.035-.566-1.422-.617-.659-1.346-.734-2.189-.879M96.56 44.689q4.59-1.376 9.206-2.658c.316.351.456 3.06.524 3.72l-3.054.816c.076 1.833.287 3.675.429 5.507.232 3.001.434 6.007.8 8.995l-3.325 1.087-.296-3.436c-.348-3.761-.79-7.546-.972-11.318q-1.413.519-2.85.968-.183-1.846-.461-3.681m66.154 17.248c.751-2.07 1.342-4.213 2.01-6.312 1.119-3.517 2.258-6.998 3.166-10.578l7.719 2.815q-.474 1.85-1.067 3.665-2.224-1.01-4.5-1.892l-1.03 3.154c1.385.514 2.804 1.002 4.123 1.671q-.475 1.645-1.145 3.22a21.5 21.5 0 0 0-4.005-1.483c-.25.955-.566 1.9-.854 2.843l-.289.896c1.643.354 3.237.898 4.861 1.326-.387 1.11-.68 2.265-1.007 3.395q-3.953-1.474-7.982-2.72M91.58 46.667c1.121-.45 2.275-.828 3.4-1.274.172.26 2.136 16.052 2.417 18.011-1.08.275-2.092.816-3.099 1.285-2.276-3.188-4.283-6.401-6.914-9.33.776 3.746 1.267 7.596 1.862 11.376-.86.498-1.76 1.002-2.691 1.348l-.186-.113c-.828-5.926-1.989-11.855-3.078-17.74 1.227-.533 2.436-1.111 3.65-1.671 1.84 3.19 4.25 6.033 6.284 9.1-.38-3.682-1.004-7.348-1.645-10.992m-14.412 6.994c1.084-.532 2.145-1.117 3.212-1.681l.133.018c.056.056.127.1.17.168.144.235 3.327 15.247 3.734 16.971-1.012.605-2.012 1.225-3.086 1.716-1.406-5.718-2.635-11.511-4.163-17.192M67.693 59.4c1.126-.651 2.178-1.434 3.243-2.18.606.176 7.998 12.392 9.478 14.045q-1.558 1.12-3.142 2.2c-.472-.984-1.118-1.889-1.715-2.8l-2.617 1.693-1.454 1.047c.132 1.216.14 2.45.182 3.672-1.12.648-2.17 1.483-3.255 2.195q-.114-6.676-.375-13.348c-.062-1.928.091-4.695-.345-6.524m3.197 3.559c-.004 2.26.27 4.53.311 6.797l1.85-1.184 1.046-.67c-.559-1.067-2.355-4.31-3.207-4.943M60.01 80.49c.541-.053 1.097-.095 1.629-.214.762-.17 1.428-.561 1.824-1.253.263-.46.436-1.236.257-1.752-.526-1.518-3.126-.97-4.365-1.12a5.4 5.4 0 0 1-2.273-.79c-1.13-.72-1.809-1.847-2.044-3.157-.242-1.345.123-2.88.905-3.995 1.201-1.714 2.893-2.81 4.96-3.18.168-.015.348.008.517.016.636.716.696 2.593.858 3.555-1.128.208-2.724.363-3.436 1.393-.266.384-.328.95-.206 1.392.38 1.379 4.33.101 6.246 1.335 1.174.757 1.744 2.044 2.027 3.365.403 1.884.067 3.745-1.016 5.343-1.124 1.659-2.653 2.412-4.566 2.748-.42 0-.825.049-1.194-.18-.522-.802-.134-2.537-.123-3.505m52.253 21.458c5.115-.38 10.219-1.78 15.198-2.942 3.813-.89 7.625-1.834 11.465-2.597 2.194-.435 4.414-.723 6.612-1.136 2.025-.38 4.023-.95 6.064-1.228.233-.016.306-.057.517.058-1.005.665-3.811 1.148-5.127 1.504-8.138 2.204-16.363 4.042-24.555 6.022-3.206.776-6.437 1.466-9.612 2.363l-.232-.041c-.265-.608-.264-1.347-.33-2.003m13.793-7.416-.025-.143zm-40.023 4.499q2.36-.542 4.737-.996l.247.04c.151.584-.016 1.376-.067 1.979-1.125.272-2.263.712-3.416.83l-.132.01.025.112a1.4 1.4 0 0 0 .572-.074c.942-.29 1.93-.457 2.895-.655.018 2.256-.332 4.572-.462 6.834l-.002.107-.15.11c-.541-.546-3.569-6.981-4.248-8.297m4.063 3.502c-.53.105-1.236.15-1.684.447.116.034.223.076.343.08.579-.122 1.193-.207 1.73-.461l-.132-.102zm22.002-3.044c2.903.035 5.726-.4 8.588-.82.787-.151 1.418.188 2.127.48-2.881.974-5.933 1.477-8.91 2.087l-1.686.352c-.082-.693-.088-1.401-.119-2.098m-55.838 7.578-.102-.069zm5.994 2.806-.119-.245zm0 0 .08.148zm-43.493.941.082-.066zm39.467.384-.07-.075zm92.654 2.62a30 30 0 0 1 2.188-.543c.281.002.563.008.838.073a2.94 2.94 0 0 1 1.85 1.348c1.127 1.828.891 4.993.457 7.005-.416 1.921-1.202 3.467-2.884 4.566-.929.408-1.857.655-2.84.902-.034-4.445.376-8.899.391-13.35m-29.935 15.949c.597-3.032 1.365-6.085 2.184-9.065.321.932.459 2.005.672 2.972l1.204 5.34-2.477.486zm-82.349 64.494q65.636-22.59 131.6-44.198l42.59-14.339c5.754-1.93 11.539-4.298 17.355-5.963l.061.027c.053.07.13.125.158.208.29.86.667 9.924.774 11.673l1.956 30.674c-1.968.822-4.037 1.465-6.051 2.167q-6.242 2.197-12.522 4.283l-32.96 11.382q-50.654 17.547-101.49 34.56l-26.962 9.158c-1.742.598-9.858 3.593-11.043 3.667-.23-3.733-.595-7.46-.871-11.19q-1.146-16.067-2.595-32.11m136.479-37.41q-.99.429-1.984.844c.697 6.367 1.279 12.957 2.684 19.209-.63-1.295-1.067-2.669-1.646-3.986-.94-2.136-1.995-4.234-3.004-6.338-1.148-2.393-2.276-4.846-3.626-7.132l-2.879 1.13c1.354 8.577 1.967 17.261 3.191 25.858l.976-.323c.517-.172 1.04-.333 1.552-.517q-.694-5.762-1.477-11.513c-.36-2.765-.606-5.558-1.199-8.285.881 1.647 1.569 3.417 2.355 5.113 1.923 4.147 3.95 8.635 6.154 12.62.865-.275 1.73-.56 2.598-.823l-2.317-18.116c-.314-2.343-.492-4.77-.916-7.09-.048-.263-.076-.473-.287-.655zm-18.483 6.041c-1.783.544-2.917 1.573-3.795 3.205-2.543 4.727-1.673 12.74-.159 17.712.676 2.22 1.72 4.737 3.901 5.867.75.388 1.403.445 2.235.418 1.54-.339 2.535-1.06 3.39-2.391 2.988-4.65 2.14-11.845.964-17.012-.576-2.532-1.669-5.75-4.022-7.176-.78-.472-1.609-.647-2.514-.623m-12.197 4.985-2.313.736c.235 2.559.654 5.115 1.008 7.66q.832 5.899 1.598 11.806c.278 2.101.628 4.194.783 6.309q2.637-.87 5.248-1.818c.714-.254 1.441-.489 2.144-.77a64 64 0 0 0-.635-4.363c-1.527.53-3.057 1.175-4.61 1.61l-2.101-15.463c-.165-1.199-.433-4.694-.861-5.666zm-5.08 1.858c-2.197.815-4.388 1.67-6.614 2.4 1.072 8.537 2.333 17.056 3.341 25.598 2.506-.66 5.102-1.615 7.503-2.59-.107-.675-.243-1.359-.291-2.04l-.251-2.143q-2.414.8-4.79 1.706l-1.015-6.83c1.404-.554 2.846-1.054 4.233-1.646-.158-1.355-.31-2.72-.574-4.06q-2.112.732-4.2 1.531c-.222-2.118-.506-4.24-.69-6.36 1.4-.518 2.83-.998 4.194-1.606-.17-1.266-.287-2.568-.593-3.809-.216-.15-.121-.124-.253-.151m-9.575 3.538-2.476.75 1.453 10.841c.36 2.722.91 5.511.755 8.266-.061 1.074-.254 2.232-.922 3.108-.304.4-.795.858-1.323.892-.4.025-.737-.198-.997-.48-.697-.761-1.093-1.897-1.358-2.881-.639-2.366-.852-4.934-1.205-7.36-.514-3.531-1.11-7.072-1.48-10.621-.907.36-1.81.74-2.734 1.049l.505 3.48q.536 3.692 1.023 7.39c.505 3.749.866 10.52 4.066 13.002.742.576 1.665.849 2.598.682 1.292-.232 2.38-1.258 3.067-2.328.966-1.507 1.363-3.34 1.478-5.105.268-4.118-.647-8.38-1.175-12.462-.327-2.527-.508-5.178-1.056-7.663a1.5 1.5 0 0 0-.219-.56m-18.191 6.119c-2.025.812-3.134 2.224-3.969 4.184-2.169 5.09-1.586 13.501.525 18.615.685 1.658 1.888 3.614 3.622 4.305.847.338 1.689.364 2.584.328l.404-.014c1.078 1.09 2.17 2.373 3.61 2.979.626.064 1.359.21 1.875-.257.852-.773.476-3.063.427-4.126-1.3.419-2.029.397-3.29-.235q-.272-.139-.536-.291c3.265-5.538 2.95-12.5 1.38-18.553-.575-2.22-1.614-5.1-3.688-6.34-.961-.574-1.858-.665-2.944-.595m-9.13 3.603c-.736.24-1.472.5-2.215.72.696 8.56 2.237 17.463 3.486 25.987.293.122.148.115.435.042l2.243-.807c-1.04-6.107-1.799-12.287-2.597-18.43-.285-2.198-.444-4.483-.819-6.661-.06-.352-.059-.617-.326-.86zm-5.613 1.993a75 75 0 0 1-3.34 1.237c-.328 6.39-.842 12.873-.728 19.268-.982-3.627-2.187-7.204-3.269-10.803-.638-2.125-1.085-4.409-1.948-6.452l-3.509 1.325c.442 6.486 1.23 12.958 1.914 19.422.243 2.295.573 4.612.73 6.913l2.628-.861-1.725-14.428c-.176-1.493-.696-4.12-.624-5.479l.06.003c2.026 6.132 3.566 12.442 5.538 18.597.715-.2 1.428-.39 2.116-.671l.685-21.65c.445 1.153.599 4.567.787 5.975.647 4.815 1.301 9.682 2.18 14.46l2.613-.957c-.57-3.089-3.644-25.49-3.983-25.87z"/><path d="M158.709 185.856c-.332.019-.637.02-.952-.107-.946-.382-1.552-1.463-1.94-2.355-1.541-3.549-2.554-10.774-1.02-14.43.418-.994.92-1.653 1.925-2.074q.149.036.296.078c1.078.314 1.775 1.243 2.287 2.195 1.75 3.254 2.72 10.435 1.56 14.003-.416 1.278-.948 2.086-2.156 2.69M30.376 175.347l.149-.077zm83.657 27.299c-.309.073-.589.12-.907.075-.629-.091-1.28-.85-1.608-1.339-2.142-3.195-2.749-10.433-1.969-14.127.3-1.424.808-2.92 2.076-3.747.257-.015.51-.03.766.013.748.125 1.36.767 1.772 1.363 2.261 3.26 2.799 10.382 2.023 14.16-.302 1.471-.86 2.754-2.153 3.602"/></svg>