<svg xmlns="http://www.w3.org/2000/svg" viewBox="0 0 256 256"><path d="M123.396 0h10.33l.114.021c2.82.497 5.81.45 8.666.779q7.975.96 15.782 2.845 1.37.33 2.73.69 1.362.36 2.715.75t2.697.809 2.68.87 2.658.928 2.638.987 2.615 1.045 2.591 1.102 2.567 1.16 2.54 1.216 2.512 1.273 2.484 1.327 2.453 1.382q1.22.705 2.423 1.436 1.203.732 2.39 1.49t2.357 1.542 2.322 1.593q1.151.81 2.286 1.645 1.133.835 2.249 1.695 1.115.86 2.21 1.744 1.096.885 2.172 1.793 1.077.909 2.132 1.84 1.056.933 2.09 1.888 1.035.955 2.049 1.932 1.013.978 2.004 1.978t1.961 2.022 1.916 2.065 1.869 2.106 1.822 2.147 1.774 2.188 1.725 2.225q.85 1.123 1.676 2.264c8.846 12.454 14.678 23.932 19.075 38.59 1.485 4.96 2.782 9.938 3.59 15.06.498 3.152.983 6.295 1.195 9.48.122 1.833.19 7.111.545 8.53v8.762l-.018.128c-.407 3.078-.407 6.286-.717 9.39-.455 4.563-1.325 9.192-2.302 13.674-5.164 23.682-17.836 45.629-35.023 62.619-3.148 3.111-6.49 6.224-9.994 8.932-17.06 13.19-35.137 21.612-56.32 25.783a136 136 0 0 1-10.87 1.673c-1.842.21-4.015.197-5.787.602h-12.186c-2.194-.335-4.502-.338-6.718-.542-3.502-.328-7.036-.858-10.504-1.438-17.728-2.972-37.086-11.014-51.6-21.563-26.47-19.238-44.539-46.09-51.3-78.222-.908-4.312-1.665-8.707-2.034-13.1-.24-2.852-.138-5.855-.605-8.672L0 132.337V122.28c.348-1.584.278-3.522.407-5.15.272-3.43.615-6.852 1.21-10.242q.31-1.825.671-3.641t.776-3.62q.414-1.806.88-3.598.465-1.792.982-3.57t1.085-3.54 1.186-3.508 1.286-3.472q.669-1.727 1.386-3.434.718-1.707 1.484-3.392.766-1.686 1.58-3.349t1.676-3.302q.862-1.638 1.77-3.252.91-1.613 1.864-3.2.954-1.586 1.954-3.145t2.044-3.087q1.044-1.53 2.131-3.028.861-1.18 1.748-2.34.887-1.161 1.8-2.301.914-1.14 1.853-2.259t1.903-2.216 1.953-2.172 2.002-2.127 2.049-2.082 2.096-2.034 2.142-1.986 2.187-1.937 2.23-1.887 2.273-1.835 2.313-1.783 2.353-1.73 2.392-1.677 2.43-1.622 2.466-1.566 2.5-1.51 2.535-1.452 2.567-1.394q1.291-.683 2.597-1.336t2.628-1.276 2.656-1.217q1.334-.593 2.683-1.155t2.708-1.095 2.732-1.032q1.372-.5 2.755-.97 1.384-.47 2.777-.908t2.797-.844 2.814-.78q1.412-.374 2.832-.716t2.848-.652c4.719-1.014 9.632-1.733 14.436-2.193 2.59-.247 5.284-.243 7.846-.645zm-.423 6.57q-3.127.11-6.243.385-3.117.277-6.214.72t-6.166 1.051-6.101 1.38q-1.68.416-3.345.88-1.666.465-3.318.978t-3.288 1.073-3.255 1.169q-1.62.607-3.22 1.262t-3.182 1.356-3.142 1.447q-1.56.747-3.097 1.539-1.538.792-3.052 1.628t-3.003 1.716-2.952 1.802-2.898 1.887-2.842 1.971q-1.407 1.007-2.784 2.053T52.148 33t-2.66 2.212c-3.923 3.36-7.663 7.075-11.212 10.824C25.104 59.952 15.031 79.15 10.191 97.643c-2.776 10.605-4.162 22.45-3.851 33.394q.19 5.188.78 10.345.592 5.158 1.58 10.255 1.268 6.912 3.331 13.63c6.44 20.488 18.559 37.977 34.087 52.618 3.758 3.544 7.976 6.763 12.206 9.722q.998.7 2.011 1.38 1.012.68 2.038 1.339 1.027.66 2.066 1.298 1.039.639 2.09 1.257 1.052.617 2.116 1.214 1.064.596 2.139 1.172 1.075.575 2.162 1.128t2.185 1.085 2.206 1.041 2.226.997 2.245.952 2.265.907 2.282.861q1.145.419 2.299.815 1.153.397 2.315.77 1.16.372 2.33.722 1.167.35 2.343.676t2.357.629 2.368.581 2.38.534q1.193.255 2.39.486t2.4.438 2.408.39 2.415.342 2.421.293 2.427.245 2.432.196 2.434.147q1.218.061 2.437.099 1.22.036 2.439.05 1.22.012 2.439 0t2.439-.048q.696-.016 1.391-.066 1.498-.073 2.995-.183 1.495-.11 2.988-.256 1.494-.146 2.983-.328 1.488-.182 2.973-.4t2.962-.473 2.95-.544 2.936-.616q1.465-.326 2.92-.687 1.457-.362 2.904-.758 1.446-.397 2.883-.828t2.863-.898 2.84-.966q1.413-.501 2.815-1.036t2.79-1.104 2.762-1.171 2.732-1.238q1.359-.635 2.702-1.304 1.343-.668 2.67-1.369 1.326-.7 2.635-1.433t2.6-1.498 2.562-1.56 2.524-1.62q1.252-.827 2.484-1.683t2.442-1.742 2.4-1.801q1.188-.916 2.355-1.859 1.165-.944 2.308-1.915t2.262-1.971q1.12-1 2.214-2.025 1.094-1.026 2.163-2.079 1.069-1.052 2.112-2.13t2.06-2.181q1.008-1.103 1.99-2.231.98-1.128 1.933-2.28t1.877-2.326q.925-1.174 1.82-2.371t1.761-2.416 1.701-2.457q.836-1.24 1.64-2.499.806-1.26 1.58-2.538.773-1.279 1.515-2.576.743-1.298 1.453-2.613t1.388-2.647q.677-1.332 1.322-2.68.645-1.35 1.257-2.713.611-1.364 1.19-2.742.577-1.379 1.121-2.77.544-1.393 1.054-2.798t.985-2.822.915-2.846.846-2.867.774-2.887.704-2.905.632-2.921q.298-1.465.56-2.936.263-1.472.489-2.95.226-1.477.416-2.96t.343-2.969.27-2.977.197-2.982.124-2.987.051-2.989-.023-2.989-.095-2.987q-.088-1.802-.23-3.602-.141-1.798-.336-3.592t-.445-3.581-.552-3.566-.66-3.548q-.355-1.769-.764-3.526-.41-1.758-.871-3.502-.462-1.745-.976-3.474-.513-1.73-1.079-3.444-.565-1.714-1.182-3.41-.617-1.695-1.284-3.371-.667-1.677-1.385-3.333-.717-1.656-1.484-3.289t-1.582-3.243-1.679-3.195-1.774-3.142c-1.983-3.377-4.277-6.66-6.543-9.855-4.626-6.521-9.885-12.868-15.829-18.242-2.716-2.455-5.46-4.915-8.349-7.166q-.832-.654-1.676-1.294t-1.7-1.266-1.72-1.235-1.744-1.204-1.764-1.173-1.784-1.142-1.804-1.11-1.824-1.078-1.843-1.046q-.925-.514-1.86-1.013t-1.879-.98-1.895-.946-1.911-.912-1.928-.88q-.968-.43-1.943-.844-.975-.413-1.958-.81-.982-.396-1.971-.775t-1.985-.74-1.998-.705-2.01-.67-2.021-.633-2.033-.598-2.042-.562-2.053-.526-2.06-.489q-1.034-.235-2.07-.453-1.037-.217-2.078-.416t-2.084-.379-2.09-.342-2.097-.306-2.101-.268q-1.052-.124-2.106-.23c-5.822-.586-11.77-.91-17.62-.584z"/><path d="m132.656 245.567-.125.005q-1.431.058-2.863.08t-2.864.01-2.864-.06-2.861-.131-2.857-.2-2.851-.27-2.844-.339-2.835-.408-2.824-.477-2.812-.546-2.797-.615-2.782-.683-2.764-.75-2.745-.817-2.725-.885-2.701-.95-2.678-1.016-2.653-1.081-2.625-1.145q-1.305-.59-2.596-1.21t-2.566-1.272-2.535-1.334q-1.258-.683-2.5-1.396t-2.467-1.457-2.43-1.516-2.392-1.575q-1.187-.802-2.353-1.632-1.167-.831-2.313-1.69-1.146-.86-2.27-1.746-1.125-.887-2.228-1.8-1.102-.915-2.182-1.855t-2.137-1.907q-1.067-.971-2.11-1.969-1.042-.997-2.06-2.02-1.017-1.023-2.009-2.071t-1.957-2.12-1.904-2.169q-.938-1.096-1.85-2.215-.91-1.118-1.793-2.26-.883-1.14-1.738-2.303-.854-1.163-1.68-2.346-.824-1.184-1.62-2.387t-1.561-2.427q-.766-1.223-1.5-2.465-.736-1.242-1.44-2.501-.703-1.26-1.376-2.536t-1.313-2.57q-.64-1.292-1.248-2.6-.609-1.309-1.184-2.632-.576-1.323-1.118-2.66t-1.052-2.687-.985-2.712-.917-2.736q-.441-1.374-.849-2.758-.407-1.384-.78-2.778t-.711-2.796-.642-2.813-.57-2.828q-.27-1.418-.502-2.842-.233-1.424-.43-2.853-.198-1.43-.36-2.863t-.288-2.871q-.126-1.437-.217-2.877-.09-1.44-.145-2.882-.063-1.441-.09-2.883t-.019-2.884q.009-1.443.052-2.884.044-1.442.123-2.882t.193-2.878.263-2.872.334-2.865.403-2.856.474-2.845.543-2.833.612-2.818q.323-1.406.68-2.803t.75-2.785.817-2.766q.426-1.379.885-2.746.46-1.367.952-2.722.492-1.356 1.018-2.699t1.084-2.673 1.149-2.645q.59-1.316 1.213-2.617t1.277-2.586q.655-1.286 1.34-2.555.686-1.268 1.402-2.52.717-1.252 1.464-2.486.747-1.233 1.524-2.448.776-1.215 1.583-2.411t1.642-2.372 1.699-2.33 1.756-2.288 1.811-2.245 1.866-2.2q.947-1.088 1.92-2.152.978-1.08 1.983-2.133 1.004-1.054 2.035-2.083 1.03-1.028 2.087-2.03 1.056-1.003 2.136-1.979t2.186-1.925 2.233-1.869 2.279-1.813q1.15-.892 2.323-1.756 1.172-.863 2.366-1.697t2.408-1.638 2.448-1.577 2.487-1.515 2.523-1.454q1.271-.71 2.56-1.39 1.287-.678 2.592-1.325t2.626-1.26q1.32-.614 2.655-1.194 1.336-.581 2.685-1.128 1.35-.547 2.712-1.06 1.363-.514 2.738-.993 1.375-.48 2.761-.924t2.784-.855 2.804-.785q1.407-.376 2.823-.715 1.416-.34 2.84-.645 1.424-.304 2.855-.573t2.869-.502 2.88-.43 2.89-.358q1.447-.162 2.898-.287 1.45-.124 2.904-.213t2.909-.141q1.084-.043 2.17-.066 1.084-.022 2.17-.025 1.085-.002 2.17.016t2.17.057 2.169.097q1.083.059 2.166.138t2.163.179 2.16.219 2.155.26 2.15.3 2.144.34 2.137.38q1.066.2 2.13.42 1.062.22 2.12.46t2.113.5 2.102.54 2.093.578 2.08.618 2.07.657 2.056.695q1.024.357 2.042.734 1.018.376 2.03.772 1.01.395 2.013.81 1.003.414 1.999.847.995.433 1.981.885t1.966.922 1.947.959 1.93.995 1.91 1.03 1.89 1.067 1.87 1.102 1.85 1.136q2.495 1.601 4.917 3.311 2.423 1.71 4.766 3.527 2.344 1.816 4.605 3.734 2.261 1.919 4.435 3.935c2.935 2.69 5.615 5.735 8.193 8.769 3.053 3.592 5.965 7.24 8.612 11.148 7.543 11.142 14.054 25.419 17.214 38.536 1.847 7.67 2.76 16.13 3.095 24.006.332 7.784-.434 15.327-1.782 22.982-1.029 5.843-2.245 11.518-4.096 17.166-5.207 15.886-14.816 30.916-26.09 43.168-6.648 7.224-13.021 12.221-21.234 17.524-1.751 1.131-3.44 2.395-5.235 3.452q-1.552.902-3.13 1.758-1.579.855-3.182 1.663t-3.23 1.568-3.276 1.47-3.317 1.372q-1.67.662-3.358 1.273t-3.394 1.17-3.427 1.07q-1.722.509-3.458.966t-3.485.862-3.51.758-3.53.653-3.548.547q-1.779.246-3.564.44t-3.575.334-3.583.227m84.342-75.485c1.145-.408 2.197-1.272 3.253-1.88 1.767-1.02 3.666-1.839 5.399-2.912 1.881-1.165 3.586-2.615 5.508-3.719-.848.996-1.92 1.861-2.88 2.754-1.091 1.014-2.138 2.072-3.266 3.044-.775.67-1.626 1.291-2.356 2.007 1.102-.453 2.278-1.181 3.427-1.44l.147.065.168.63.205.071c1.288-.663 1.617-1.698 3.206-2.108-.369.615-.749 1.227-1.102 1.85l1.434.323c.448-.395 1.133-1.129 1.754-1.116.347.608.046 1.324.023 1.996.53-.363 1.412-1.149 2.083-1.04l.058.125c-.201.486-.624 1.18-.548 1.7.238.236.255.256.612.236.452-.025.63-.178 1.064.012.258.5.1 1.072.397 1.544l.148-.008c1.4-2.855 4.262-11.159 4.644-14.159a2.6 2.6 0 0 0-.409-.705q.097-.024.192-.05c.195-.054.314-.106.482-.211.182-.633.274-1.273.376-1.922-1.516-.063-3.094-.094-4.603.071 1.005-.459 4.346-1.638 4.925-2.376l-.569-.001-.081-.255-.113.23-.197.002c-2.244.03-4.535.435-6.782.599 2.71-1.194 5.272-2.498 8.275-2.701l.434-2.511c-5.14-.15-12.287 1.932-16.824 4.365-4.88 2.617-10.711 7.328-14.74 11.13-1.39 1.31-2.787 2.65-4.046 4.087-1.7 1.941-3.293 4.054-5.087 5.901.535.857 1.073 1.702 1.67 2.518 2.255-4.758 11.119-13.77 15.526-16.964 2.629-1.904 5.692-3.519 8.626-4.899-2.956 2.724-9.16 5.923-11.128 9.289l-.038.066.038-.066c1.477-.85 2.857-1.943 4.299-2.858 1.893-1.202 3.993-2.302 5.989-3.326-2.286 2.553-5.064 4.742-7.582 7.066-1.291 1.191-2.473 2.518-3.678 3.796 1.074-.528 2.082-1.262 3.087-1.909 1.898-1.221 3.797-2.466 5.781-3.545-2.201 2.636-4.882 4.696-7.2 7.204m-180.963-4.33c1.433.295 2.896.42 4.325.74 1.768.397 3.456 1.123 5.123 1.819l.11.063-.11-.063c-1.187-1.139-2.66-1.958-4.053-2.816-1.945-1.198-3.879-2.429-5.906-3.483-1.707-.887-3.488-1.626-5.232-2.436 10.695 2.57 16.118 7.999 24.74 14.122q8.997 6.46 18.394 12.322c-2.17-4.692-11.286-9.586-15.516-12.569-3.044-2.147-5.844-4.63-8.825-6.86-4.803-3.598-10.719-7.01-16.36-9.085q-2.493-.944-5.1-1.499c-1.138-.233-12.201-1.447-12.618-1.261l-.057.422c.173.217.323.392.57.528 1.053.582 2.304.952 3.417 1.419 2.314.97 4.934 2.266 6.935 3.781l.148.111c-1.538-.571-8.67-3.106-9.978-2.947l-.047.177c.335.387 2.766 1.174 3.44 1.461a58 58 0 0 1 8.319 4.333c-2.19-.641-4.415-1.156-6.608-1.789-1.247-.36-2.485-.87-3.737-1.182a1 1 0 0 0-.478.001c.076.32.254.437.52.611.964.629 2.324.983 3.388 1.495 2.98 1.431 6.12 3.021 8.89 4.823q-3.276-.943-6.524-1.983c-1.491-.47-2.988-1.008-4.516-1.341l-.195-.184-.088.133-.768-.159.38.285-.142.2.16-.148c2.733 2.055 7.197 4.142 10.307 5.977 1.021.603 2.267 1.233 3.13 2.041l-.113-.036c-2.013-.66-11.2-4.703-12.579-4.498.06.553.408.863.83 1.201 1.466 1.177 3.515 2.006 5.18 2.903 2.008 1.084 3.975 2.252 5.956 3.384.818.467 1.895.922 2.606 1.526-4.385-1.268-8.595-2.993-12.804-4.74 1.218 4.03 3.633 7.73 5.543 11.466 8.793-.904 17.416.474 26.102 1.713 2.74.39 5.495.602 8.22 1.097 3.492.635 6.886 1.657 10.415 2.105-1.498-.775-3.303-1.175-4.939-1.575-3.833-.935-7.698-1.585-11.245-3.395 1.825.246 3.675.351 5.515.438-3.182-1.108-6.37-1.787-9.708-2.189l-.046-.145c.618-.248 1.371-.245 2.03-.254 4.792-.072 8.965 2.13 13.498 3.3-1.37-.977-2.826-1.8-4.324-2.564l-.106-.031.106.031.197.423-.098.202c-1.456.355-8.234-2.488-10.073-2.996-2.459-.68-4.985-1.027-7.462-1.626 4.904-.14 9.744 1.439 14.374 2.863l.073.062-.074-.062c-.695-.59-1.679-.844-2.503-1.23-2.126-.997-4.238-2.03-6.437-2.857-2.351-.884-4.915-1.574-7.164-2.678 4.543.76 8.37 1.572 12.447 3.934 2 1.16 3.733 3.018 6.04 3.572l.07.064-.07-.064c-.973-1.139-2.475-1.928-3.73-2.73-5.637-3.6-11.647-6.817-17.965-9.066 1.528.03 3.077.564 4.532 1.004 5.771 1.745 9.874 4.386 14.722 7.815 1.308.924 2.578 1.934 3.934 2.785 1.718 1.078 3.5 2.164 5.282 3.131 1.163.632 2.382 1.18 3.51 1.873-2.244-.219-4.097-1.294-6.404-1.233l-.06-.078.06.078c1.078.678 8.345 2.926 9.711 3.206l.1-.097c-1.198-1.69-10.646-7.148-13.228-8.855-2.989-1.975-5.857-4.107-8.895-6.014q-2.991-1.867-6.098-3.534c-1.547-.838-3.119-1.697-4.734-2.398-1.859-.807-3.779-1.467-5.632-2.29m188.028 10.486.047-.109c.952-2.14 2.885-3.813 3.807-5.774l-.125-.167c-1.047-.148-1.946.752-2.738 1.35-1.537 1.16-2.973 2.524-4.256 3.962-.587.658-1.106 1.407-1.738 2.019 1.092-2.36 2.491-4.416 4.031-6.496-.535.115-1.126.214-1.618.46-3.137 1.573-7.184 6.463-9.082 9.397.957-3.83 3.913-6.669 6.042-9.878q-.98.67-1.917 1.4t-1.826 1.517q-.89.787-1.728 1.628t-1.622 1.733c-1.194 1.375-2.182 3.016-3.65 4.117 1.655-3.723 5.941-9.757 9.417-11.775-4.463.924-7.586 4.707-10.553 7.907.551-1.023 1.077-2.095 1.718-3.065 2.073-2.837 4.485-5.33 7.113-7.662-4.974 1.892-7.998 6.336-11.827 9.752 1.096 2.284 2.512 4.907 1.569 7.486-.484 1.324-1.488 2.383-2.714 3.055l.433 1.87c3.712-.854 7.473-1.473 11.185-2.323 6.296-1.442 12.288-3.545 18.001-6.57.678-1.16 2.878-4.823 2.513-6.067-.19-.645-1.084-1.403-1.564-1.879-1.77.998-3.012 2.132-4.421 3.578 1.04-1.573 2.217-3.105 3.21-4.698-.243-.211-.67-.192-.99-.172-1.82.12-5.538 4.029-6.717 5.404m-70.558 54.567c-2.12.697-4.31 1.195-6.452 1.818-1.325.385-2.62.954-3.97 1.242-1.535.327-3.393.12-4.967.084-2.577-.057-5.162-.07-7.732-.279-3.675-.298-7.327-.821-11.012-1.006-10.374-.52-20.64.029-30.996-1.514-4.226-.63-9.32-1.594-12.949-3.904-1.284-.817-2.41-1.957-2.71-3.504-.186-.959.07-1.834.643-2.614 2.272-3.096 7.602-4.7 11.198-5.28-1.038.956-2.04 2.014-2.214 3.485-.117.988.212 1.958.836 2.723 1.38 1.69 4.434 2.483 6.52 2.675.401.037.86.023 1.175-.232-.54-.696-3.752-1.533-4.928-2.447-.708-.551-1.23-1.274-1.328-2.184-.534-4.987 8.829-4.89 11.82-6.09 1.006-.403 1.66-.963 2.344-1.777-1.465-.712-3.048-1.049-4.652-1.276-6.54-.926-20.689-.459-26.041 3.548q1.293-.415 2.604-.773 1.31-.357 2.636-.656 1.325-.3 2.662-.54t2.683-.423q1.347-.181 2.7-.303t2.71-.185q1.357-.062 2.715-.064 1.359-.003 2.716.055c.955.043 5.224.314 5.736.872-.168.352-.795.406-1.157.48-6.219 1.25-16.281 1.761-21.126 6.121-1.156 1.041-2.2 2.509-2.248 4.112-.043 1.465.748 3.051 1.726 4.11 1.228 1.329 2.936 2.153 4.566 2.874 11.512 5.093 29.043 3.633 41.489 3.898 4.939.104 9.84.826 14.78 1.025 3.09.097 6.135-.232 9.215-.267 3.236-.037 6.488.286 9.714.514 1.811.128 3.776.12 5.535.57 1.979.506 2.804 1.462 3.813 3.166 4.998-1.549 10.032-3.378 14.787-5.57-2.57-.753-5.156-1.306-7.792-1.78-2.256-.404-14.257-2.016-15.411-2.722a.91.91 0 0 1-.434-.727c-.028-.37.269-.802.507-1.064 1.649-1.814 6.56-2.861 8.894-2.972-2.586-.574-5.358-.615-7.861.366-1.331.521-2.672 1.486-3.22 2.852-.225.562-.237 1.129.025 1.68.494 1.04 1.426 1.53 2.45 1.883M134.707 15.718c-.352.23-.523.294-.714.677.037.417.101.625.428.902.25.212.489.294.8.38.252-.437.52-.808.496-1.332-.128-.281-.235-.427-.536-.545a1.1 1.1 0 0 0-.474-.082m-16.748.843c-.202.184-.37.335-.514.57-.117.19-.207.26-.372.403-.282.242-.513.483-.515.886-.003.555.548 1.17.956 1.486.097.075.199.143.299.215.183.13.334.274.495.43.101-.188.18-.44.366-.543.598-.334.957-.89 1.218-1.51-.023-.354-.047-.53-.314-.784-.275-.262-.662-.445-1.002-.604-.083-.211-.077-.385-.297-.474-.19-.078-.113-.055-.32-.075m-13.67 1.899c-.232.207-.472.405-.705.61-.2.176-.25.357-.341.6.059.302.138.47.414.64.31.189.686.315 1.022.455.236-.517.459-.983.812-1.435-.374-.295-.767-.68-1.202-.87m47.797 1.779c-.33.24-.755.426-.836.862-.06.325.066.725.297.962.134.139.173.158.317.262l.172-.03.05-.127.164-.054c.182-.057.348-.09.535-.118.185-.267.264-.417.298-.742-.14-.385-.37-.543-.671-.795q-.068-.06-.137-.117c-.107-.087-.067-.062-.19-.103m10.61.076c-.337.516-.618.967-.476 1.607.052.236.216.38.376.546.28.01.14.036.415-.094.386.025.532.012.885-.181.129-.3.145-.362.034-.691-.179-.533-.618-.764-1.053-1.058zm-19.995 2.89c-.343.358-.545.596-.698 1.07.069.419.145.601.5.846.266.183.53.332.774.546q.019-.119.04-.236c.099-.539.72-.968.253-1.543-.183-.226-.615-.547-.869-.682m-58.747.865c-.392 1.192-.77 2.397-1.228 3.565-.668.09-2.16.14-2.645.631.185.415.632.56 1.036.715.57.22 1.13.434 1.667.729.526 1.291.848 2.606 1.288 3.922.39-1.204.542-3.5 1.746-4.127.611-.319 1.422-.493 1.901-.994l-.024-.222c-.586-.448-1.419-.586-2.13-.728-.343-.717-1.103-3.08-1.611-3.491m44.071 2.486c-.461.4-1.058.765-1.277 1.35.04.564.375.865.739 1.261.123.134.224.276.325.427l.466.144c.282-.234.425-.41.64-.71.303-.42.527-.624.474-1.201-.044-.48-.412-.68-.763-.926-.204-.141-.356-.285-.604-.345m-17.723.947c-.324.198-.624.377-.758.759a.92.92 0 0 0 .114.834c.242.366.56.45.96.563.329-.165.62-.309.796-.656a.95.95 0 0 0-.029-.87c-.215-.392-.674-.547-1.084-.63m-11.969.321-.651 1.188-1.234.488.135.116c.404.36.599.613.845 1.105.094.188.18.267.358.375.344.06.699.107 1.039.184l.18-.01c.028-.185.049-.377.083-.56.095-.504.39-.76.79-1.045l.019-.2-.231-.107c-.96-.448-.668-1.003-1.333-1.534m77.721.506-.061.142c-.203.447-.314.63-.742.871.147.26.062.149.246.342l-.12.09-.126-.046c-.26-.093-.47-.201-.748-.124-.106.2-.146.165-.095.338.114.383.526.585.422.974l-.457.395.008.245c.245.208.29.263.63.233.117-.01.336-.059.457-.084.092.218.111.314.144.539.039.265.082.407.256.622.334-.004.302-.073.527-.297l.165-.733c.242.277.501.691.875.774.46-.6-.185-.83.876-1.04.2-.243.208-.256.226-.57-.198-.172-.376-.222-.624-.297.095-.215.208-.34.371-.506l-.009-.266-.16-.039c-.227-.059-.14-.026-.339-.14.026-.195.061-.373.114-.562-.167-.201-.125-.205-.401-.277-.291.181-.434.382-.626.656l-.202.016c-.206-.309-.252-.597-.318-.953-.088-.095-.187-.223-.288-.303m-23.84 1.749-.104.085c-.437.378-.606.743-.819 1.271l-.184.1-.314-.358c-.403.013-.863.364-1.213.568.358.175.931.363 1.182.663l-.105-.038.047.069-.713-.054-.156.165.052.252c.296.169.52.249.846.323a2.8 2.8 0 0 1-.409.507c-.184.19-.261.299-.31.568.124.248.121.238.379.342.351-.103.8-.505 1.118-.46.182.369.15.49.1.877l-.021.212c.225.242.395.552.73.591.191-.4.073-1.106.359-1.355.247.218.442.486.774.524.234-.248.295-.566.39-.885.326-.057.65-.114.971-.191-.225-.38-.657-.623-1.01-.886.427-.336.907-.639 1.158-1.131l-.063-.224c-.5-.219-.918.13-1.364-.127l.109-.417-.14-.186c-.304-.04-.402.003-.685.102-.337-.204-.293-.63-.605-.907m-11.105.73c-.248.304-.682.722-.677 1.144.003.318.151.57.391.769.191.158.45.273.67.386q.282-.623.574-1.242c-.273-.348-.568-.854-.958-1.057M89.2 34.308c-.297.375-.585.776-.927 1.11.254.29.713.977 1.055 1.092.297-.35.585-.706.923-1.018-.311-.392-.632-.913-1.05-1.184m-18.527.428c-.385.375-.747.73-.78 1.3-.02.318.1.593.341.8.388.33.831.327 1.309.312.401-.367.695-.642.731-1.22a1.12 1.12 0 0 0-.3-.87c-.368-.385-.77-.358-1.254-.326zm95.081.719c-.315.312-.607.492-.648.97-.022.258.145.55.352.699.17.123.341.148.542.184.279-.17.573-.312.624-.677.042-.303-.012-.56-.22-.791-.131-.146-.46-.328-.65-.385m22.883.24c-.001 2.892-.792 4.938-2.851 6.991-2.567 2.559-4.237 2.775-7.625 3.423 3.599 1.061 7.425 2.23 9.336 5.772.861 1.595 1.339 3.53 1.527 5.322.153.117.078.108.207.095.306-3.212 1.163-6.101 3.754-8.213 1.883-1.535 4.542-2.474 6.886-2.994-3.513-.463-6.533-1.597-8.772-4.478q-.434-.552-.78-1.163-.346-.61-.597-1.267c-.31-.789-.533-3.024-1.085-3.488m-4.406.481-.712.902.818.894h.207l.062-.065c.316-.278.577-.414.695-.824-.126-.37-.63-.666-.966-.86-.033-.019-.07-.031-.104-.047m-55.833.387c-.33.438-.536.719-.453 1.294.03.211.094.247.22.404.203.043.352.113.554.052.271-.28.518-.484.593-.885-.18-.461-.484-.638-.914-.865m14.69.763c-.284.347-.512.536-.593.982.214.381.56.594.905.848.207-.435.408-.703.358-1.197a4.3 4.3 0 0 0-.67-.633m-35.196.255-.914 1.067c.303.309.694.853 1.1.974l.955-.97c-.311-.367-.67-.915-1.142-1.072m10.085 1.116c-.328.342-.665.68-.984 1.032.373.352.738.736 1.146 1.047.274-.279.651-.588.64-1.015-.012-.418-.304-.703-.616-.95-.11-.088-.089-.073-.186-.114m37.609 1.228-.034.187c-.572 3.32-.588 6.918-.68 10.29q-.224 7.647-.224 15.298c-.046 7.044-.39 14.075-.5 21.113-.038 2.466.073 12.025-.576 13.527-.196-.121-.162-.136-.213-.36-.231-1.004-.225-2.122-.288-3.15-.194-3.151-.193-6.286-.245-9.44q-.112-7.825-.667-15.631c-.043-.618-.053-2.959-.444-3.344-.315.806-.08 2.915-.146 3.888q-.547 8.018-.858 16.049c-.16 4.246-.186 8.562-.646 12.788-.042.39-.088.764-.323 1.089l-.178-.086c-.439-2.485-.092-6.686-.034-9.367l.336-16.313c.105-5.11.686-16.238-.707-20.609-.575 4.894-.664 9.888-.841 14.81q-.358 11.09-.929 22.17-.183 3.078-.415 6.151c-.125 1.777-.17 3.587-.613 5.32-.377-3.504-.087-7.084-.135-10.605-.153-11.169.213-22.35-.08-33.512-.082-3.117.174-7.365-.449-10.293-.838 5.93-.933 12.001-1.088 17.98q-.255 10.936-.683 21.866c-.19 4.076-.17 8.409-.906 12.418-.362-2.08-.327-4.247-.397-6.355-.16-4.852-.131-9.668-.03-14.521.09-4.397.029-8.807.038-13.206.007-3.013.26-6.247-.147-9.221-.578 2.121-.687 4.585-.939 6.782-.817 7.155-1.258 14.382-1.703 21.57-.18 2.9-.106 6.549-.84 9.33-.415-2.15-.41-4.38-.482-6.562-.192-5.85.12-13.199-.876-18.861-.431 2.233-.365 4.697-.496 6.977-.297 5.166-.488 10.815-1.148 15.927-.676-2.378-.805-4.769-.972-7.22-.304-4.438-.325-8.957-.854-13.371-.556 3.746-.509 7.68-.703 11.468-.096 1.872-.12 4.077-.689 5.864-1.17-2.977-1.036-6.416-1.173-9.579-.063-1.473-.19-2.955-.209-4.428-.013-.998.087-2-.004-2.995.234-.277.48-.493.466-.89-.012-.348-.103-.543-.33-.796-.282-.098-.433-.058-.72.013-.333-.131-.492-.237-.827-.005-.215.147-.196.26-.25.48.129.647.433 1.044.88 1.513.125 1.458-.355 12.645-.966 13.477-.104.141-.204.135-.36.18-.517-.418-.578-1.14-.645-1.772-.402-3.811-.496-7.796-.487-11.63.007-2.7.2-5.572-.167-8.249-.54 2.224-.474 4.755-.588 7.043-.208 4.14-.357 8.279-.807 12.402l-1.527-.338c-.129-3.222-.008-6.434.019-9.655.074-8.71.358-17.448.017-26.153-.103-2.63.011-5.93-.497-8.456l-.042.21c-.733 3.758-.711 9.782-.879 13.754q-.431 10.909-1.114 21.805c-.128 2.184-.114 6.957-.898 8.846l-.158.08c-1.226-1.264-.907-20.106-.865-22.818.04-2.658.14-5.266-.4-7.886-.76 4.641-1.826 28.978-2.694 30.33l-.173-.062c-.495-1.541-.192-4.344-.193-6.013q-.007-7.072-.155-14.142c-.067-2.508.034-5.209-.526-7.658-.552 3.055-.536 6.297-.698 9.397q-.319 5.452-.779 10.894c-.158 1.995-.193 5.044-.994 6.838l-.192.114c-.36-.381-.415-1.128-.45-1.63-.097-1.359-.055-2.748-.08-4.11l-.175-8.519q-.392-11.662-1.069-23.31c-.043-.666-.144-4.67-.705-4.749-.902 1.804-.118 28.588-.136 32.95-.013 3.132-.122 6.317-.425 9.435-.83-2.813-.739-6.092-.881-9.016-.223-4.566-.424-9.115-.776-13.675-.156-2.022-.241-4.125-.594-6.121-.41 2.334-.15 4.886-.185 7.261-.058 3.908-.222 7.814-.25 11.723-.024 3.632.11 7.352-.171 10.975-.037.473-.062 1.224-.396 1.564-.629-.551-.595-3.147-.654-4.032-.27-4.102-.356-8.238-.949-12.311-.263 3.31-.194 16.076-1.329 17.876l-.11-.028c-.51-1.787-.264-5.862-.305-7.896-.174-8.688-.152-17.368-.598-26.049-.123-2.39-.016-5.41-.59-7.694l-.041.178c-.484 2.145-.366 4.527-.39 6.718l-.066 8.52c-.036 7.952-.126 15.963-.718 23.896-.145 1.952-.143 5.133-.763 6.877l-.13.074c-.428-.368-.447-1.47-.488-2.018-.106-1.434-.124-2.874-.23-4.31-.341-4.564-.761-9.147-.986-13.717-.218-4.457-.203-8.912-.67-13.355-.607 3.186-.506 6.55-.6 9.786q-.321 9.192-.513 18.387-.04 2.87-.02 5.74c.01 1.159.1 2.365-.007 3.517-1.182-3.214-.7-6.84-1.361-10.179l-.027.159c-.319 2.046-.317 13.122-.917 13.836-.204-.06-.213-.016-.312-.18-.157-.261-.175-.543-.196-.84-.189-2.763-.132-5.573-.17-8.343-.055-3.852-.171-7.696-.284-11.547-.089-3.073-.075-6.288-.603-9.32-.7 3.029-.79 6.259-1 9.35q-.472 6.293-.65 12.6c-.057 2.906.237 8.084-.567 10.645-.324-3.04-.27-6.171-.429-9.23-.152-2.952-.523-5.947-.526-8.9l-.041.127c-.53 1.725-.496 3.86-.625 5.653q-.305 4.8-.693 9.594c-.076.918-.018 2.324-.42 3.132l-.099-.187.163.005.054-.267-.203.102c-.362-1.491-.121-3.893-.117-5.483q.08-6.341-.062-12.682c-.064-2.237-.048-4.546-.522-6.74-.334 2.356-.5 4.732-.8 7.092-.52 4.08-1.138 8.132-1.571 12.225q-.26 2.493-.44 4.993c-.086 1.156-.083 2.385-.359 3.512-.543-5.78.658-41.702-1.049-43.481-.586 1.834-.512 7.407-.609 9.645-.372 8.651-.62 17.314-1.197 25.955-.192 2.88-.16 5.885-.622 8.73-.437-1.86-.529-3.75-.648-5.65-.28-4.465-.172-9.018-.62-13.462-.033-.335-.056-.653-.261-.931-.341.66-.257 2.363-.34 3.143-.294 2.804-.664 5.602-.97 8.405-.212 1.94-.295 4.02-.73 5.917-.427-.738-.798-1.387-.927-2.247-.42-2.818-.094-5.726-.01-8.557l.22-10.667c.132-5.594-.087-11.204-.085-16.8.002-3.357.237-8.35-.602-11.526l-.029.211c-.315 2.433-.254 4.95-.257 7.4q-.002 3.47-.092 6.94-.25 12.472-1.376 24.897c-.112 1.211-.324 5.462-1.094 6.236-1.05-1.344.16-28.397-.868-33.5-.508 4.014-.587 8.09-.864 12.125-.264 3.834-.714 7.669-1.107 11.493-.151 1.474-.367 2.945-.508 4.418-.073.774-.04 1.52-.258 2.274l-.093.067c-.526-.457-.509-1.835-.556-2.5q-.317-4.893-.802-9.772c-.154-1.555-.212-3.255-.625-4.76-.6 4.97-.391 10.194-1.473 15.097-.344-.267-.719-.526-1.02-.84-.014-9.278.291-18.553-.016-27.828-.065-1.974.154-4.5-.459-6.37l-.127-.048c-.584 1.674-.848 8.212-1.009 10.319q-.47 5.695-.87 11.396c-.183 2.659-.42 5.334-.274 7.999-.516-.673-.935-1.197-1.142-2.038-.445-1.815-.302-3.966-.343-5.84l-.166-11.17c-.02-2.5.096-5.219-.241-7.686l-.101.066c-.338 1.865-.317 3.85-.47 5.745-.388 4.839-.675 9.684-1.253 14.504-.113.945-.12 2.486-.542 3.324l-.026.008-.19-.267.231.251c-.078-.087-.177-.158-.233-.26-.295-.535-.628-6.518-.82-7.695-.439 2.053-.748 4.132-1.21 6.18-.016-2.717-.26-5.406-.363-8.118-.124-3.261-.1-6.624-.533-9.86-.377.63-.285 3.062-.34 3.936l-.64 9.401c-.144 2.26-.191 4.693-.562 6.918-.086.513-.232 1.337-.669 1.646-.357-.372-.318-.825-.31-1.313.1-5.805.496-11.612.655-17.416.103-3.74.452-26.38-.283-27.829l-.195-.024c-.853 1.297-1.419 21.62-1.59 24.722l-.822 12.887c-.137 2.33-.388 10.834-1.392 12.31l-.154-.055c-.447-1.308-.24-3.686-.258-5.129-.04-3.325.268-19.71-.626-21.534l-.183-.064c-.872 1.33-1.721 26.482-2.677 31.134-.672-2.843-.462-6.72-.538-9.734-.07-2.723-.438-19.555-.971-20.49-.05-.087-.135-.149-.202-.223-.492 1.29-.277 2.945-.384 4.31q-.605 8.65-.96 17.313c-.158 3.658.022 7.568-.808 11.144-1.002-4.673-.301-14.51-1.867-18.041-.385 5.224-.473 10.47-.83 15.695-.129 1.881-.146 3.89-.495 5.741-1.091-2.895-1.179-6.27-1.648-9.318-.8 3.874-.455 7.974-1.206 11.849l-.05-.171c-1.021-3.57-.465-13.425-1.516-15.586l-.151.063c-.892 2.626-.682 16.654-1.906 17.632-.565-.783-1.033-10.675-1.47-12.73l-.044.22c-.809 4.252-.315 8.702-.9 12.97-.051.376-.104.959-.407 1.205-1.16-1.514-1.075-17.7-1.922-18.714l-.161.118c-.382 2.675-.736 20.06-1.452 20.79-.187-.254-.196-.578-.208-.89-.319-8.251.365-16.608-.54-24.836-.085-.768-.268-1.486-.486-2.225-.242 3.1-.854 29.297-2.009 30.363-.025.023-.056.039-.085.059-.2-.16-.164-.343-.192-.593-.199-1.76-.084-3.66-.136-5.442-.137-4.677-.212-9.335-.606-14.002l-.029.14c-.386 1.994-.305 4.1-.445 6.121-.243 3.52-.54 7.052-.854 10.567-.105 1.166-.056 2.574-.31 3.704-.068.3-.138.398-.345.61l-.224-.041c-.45-1.471-.366-3.409-.46-4.95-.17-2.79-.327-5.575-.583-8.36-.56 3.24-.898 6.514-1.271 9.78-.138 1.2-.169 2.474-.386 3.656-.055.296-.099.533-.288.775l-.145-.07c-.257-1.169-.168-2.53-.189-3.729q-.067-3.423-.079-6.847c.003-1.438.11-2.933-.025-4.361-1.57 4.7-2.231 9.777-2.706 14.694-.107 1.103-.34 2.404-.174 3.494l.142.216c4.932-.009 21.549-10.018 25.119-13.594 1.731-1.735 3.12-3.796 4.956-5.433 1.685-1.504 3.894-2.233 5.71-3.562q1.07-.773 1.953-1.755c1.406-1.574 3.18-4.629 5.597-4.68 1.51-.031 3.012.876 4.009 1.944 1.928 2.066 2.706 4.939 4.733 6.892 1.91 1.843 4.532 3.01 6.749 4.458 4.058 2.65 8.142 5.43 11.902 8.49 1.244-.743 2.637-1.206 3.934-1.852 2.76-1.375 5.406-3.237 7.681-5.318 5.823-5.327 8.289-14.24 16.19-17.177.956-.355 2.144-.73 3.158-.491 1.164.275 2.174 1.093 3.395 1.136.785.027 1.584-.214 2.338-.401 2.198-.545 4.135-.507 6.188.523 9.965 5 12.666 24.272 26.783 16.056 2.524-1.47 5.75-4.76 8.083-5.646.955-.362 2.52-.353 3.488-.088 2.302.632 5.44 3.908 7.385 5.472q1.433 1.132 2.982 2.1c1.779 1.129 3.517 1.934 5.608 2.284 1.273.213 2.523.328 3.736.798 2.287.885 4.567 2.818 7.007 3.12 1.875.231 3.756-.462 5.381-1.331 2.103-1.126 3.916-2.7 5.887-4.03 3.232-2.179 7.142-3.538 11.02-2.407 3.362.981 6.026 3.995 8.577 6.254q1.553 1.352 3.227 2.552a65.8 65.8 0 0 0 13.404 7.455c1.32.547 3.561 1.678 4.937 1.708.31-.244.387-.491.444-.879.37-2.55-1.352-12.071-1.897-14.97-.076.844-.34 6.878-.512 7.198-.119-.176-.08-.067-.087-.254-.065-1.816-.904-7.254-1.695-8.898l-.976 6.264c-.168 1.118-.224 2.328-.527 3.415-.293-2.842-.225-5.758-.31-8.614-.129-4.33-.326-8.625-.62-12.945-.445 2.722-.873 5.451-1.124 8.199-.447 4.869-.471 9.814-.555 14.7l-.102-.046c-.236-.889-.161-1.832-.27-2.743q-.385-3.077-.95-6.126c-.347 2.612-.692 6.312-1.521 8.753-.323-4.405-.124-8.822-.352-13.23-.074-1.435-.1-2.894-.35-4.311q-.553 1.933-.888 3.916t-.449 3.99c-.075 1.314-.005 6.659-.487 7.465l-.22-.086c-.276-.868-.193-1.98-.283-2.904-.174-1.781-.417-3.628-.897-5.353-.332 1.983-.498 4.373-1.216 6.252l-.173.114c-.2-.14-.248-.165-.304-.418-.334-1.514.012-4.519-.007-6.239-.058-5.14-.102-10.321-.377-15.455-.133-2.466-.201-4.934-.692-7.36-.593 4.602-.827 9.342-.995 13.981-.132 3.677-.22 7.3-.502 10.97-.058.759.058 1.715-.187 2.425l-.15-.037c-.582-1.277-.93-13.973-.937-16.42-.415.975-1.744 12.488-1.773 14.122l-.004.186c-1.718-2.975-1.119-12.444-1.987-16.37l-.024-.119c-.637 4.422-.597 9.094-1.094 13.561-.363-.288-.741-.567-1.091-.87-.849-3.628-1.187-10.05-1.317-13.878l-.031.123c-.565 2.328-.667 6.538-.828 9.052-.067 1.038-.05 2.126-.271 3.144l-.17.063c-.392-.903-.28-3.447-.326-4.561-.239-5.845-.261-11.697-.543-17.54-.116-2.385-.093-4.912-.573-7.254-.446 2.753-.568 5.593-.723 8.375-.359 6.493-.359 13.026-.779 19.508-.022.35-.039.736-.286 1.005-.17-.041-.285-.02-.385-.181-.165-.267-.19-.572-.201-.879-.081-2.146-.002-4.349-.013-6.5q-.02-5.6-.239-11.194c-.088-2.379-.1-4.908-.529-7.251l-.048.16c-.558 1.924-.422 5.603-.52 7.685q-.335 6.549-.862 13.085c-.118 1.485-.056 3.255-.386 4.685-.065.281-.17.441-.386.627l-.292.047c-.06-.056-.143-.094-.177-.168-.016-.035-.987-13.021-1.121-14.359l-.023.145c-.325 2.203-.822 14.517-1.318 15.182-.083.111-.203.19-.305.284l-.16.005c-.35-1.363-.304-2.953-.386-4.36-.225-3.894-.196-7.977-.844-11.825-.914 4.362-1.222 8.96-1.704 13.39-.143 1.317-.148 2.78-.41 4.063-.055.273-.13.479-.331.678l-.214-.014c.012-6.483-.295-12.954-.185-19.445.077-4.584.224-9.155.234-13.741.005-2.334.093-4.727-.193-7.048-.596 3.932-.893 7.863-1.19 11.825-.767 10.205-.945 20.456-1.755 30.653l-1.121.996c.221-4.857-.076-9.776-.088-14.64l-.016-9.879c0-1.803.075-3.644-.034-5.441-.033-.55-.097-1.085-.304-1.599h-.103c-.41 1.416-.254 3.228-.366 4.72q-.657 9.467-1.159 18.944c-.138 2.77-.111 5.578-.335 8.34-.034.414-.071.725-.337 1.058l-.257.1c-.409-.361-.426-.83-.456-1.353-.119-2.089.001-4.233-.01-6.328q-.07-7.491.026-14.982c.031-2.63.252-7.397-.166-9.813l-.078-.04c-.779 6.754-1.122 13.627-1.454 20.419-.161 3.294-.099 9.822-.923 12.682-.555-1.664-.552-3.337-.627-5.073-.155-3.562-.005-9.559-.804-12.754-.332 2.778-.533 5.582-.75 8.373-.189 2.443-.126 5.143-1.002 7.46-.522-3.489-.306-7.119-.297-10.642q.078-9.001.011-18.003c-.034-2.457.076-5.085-.287-7.516-.523 3.535-.676 7.222-.935 10.787q-.554 7.805-1.254 15.598c-.2 2.215-.074 5.054-.755 7.142l-.152.097c-.429-.718-.234-2.606-.222-3.472.076-5.801.522-11.606.728-17.404.125-3.536.058-7.094.073-10.633.016-3.82.11-7.628.05-11.448-.042-2.724.234-5.896-.51-8.523-1.073 6.842-1.166 14.642-1.366 21.575q-.209 9.304-.934 18.58c-.272 3.646-.372 7.552-1.13 11.121l-.024-.206c-.799-7.067.77-21.26-3.627-27.009l-.003.213c-.02 2.401.553 4.821.712 7.22.172 2.602.35 16.652-.886 18.21-.025.032-.058.058-.088.087-.25-.12-.247-.185-.334-.44-.431-1.268-.363-3.02-.466-4.355-.218-2.84-.38-5.714-.878-8.523-.706 3.916-.576 7.928-1.494 11.829-.762-2.434-.619-5.338-.685-7.876q-.176-6.75-.114-13.502c.019-3.54.134-8.44-.388-11.89-.528 2.152-.703 4.339-.9 6.54-.41 4.59-.547 9.213-.797 13.815-.152 2.798-.186 6.56-1.172 9.171-.422-3.57-.601-7.15-.754-10.739-.114-2.675-.121-5.493-.64-8.125-.213 1.996-.958 15.943-1.69 16.58-.806-.961-.822-12.096-1.488-14.623-.148 3.715-.492 10.704-1.48 14.164-.227-2.956-.308-5.934-.415-8.897-.044-1.222.138-2.836-.205-3.99l-.169-.012c-.31.757-.204 1.959-.252 2.786-.1 1.688-.444 9.096-.88 10.056l-.2.074c-.698-.735-.951-14.863-1.067-16.884-.187-3.248-.468-6.503-.748-9.746-.451 2.797-.414 5.74-.53 8.572q-.233 6.08-.603 12.155c-.108 2.023.018 5.569-.811 7.353l-.129.02c-.69-1.656-.483-7.071-.526-9.247-.035-1.763-.11-3.53-.11-5.293-.003-5.033.502-40.783-.84-42.952m3.343.73c-.221.487-.368.786-.29 1.325.19.29.303.422.611.584l.095-.01c.244-.362.487-.643.48-1.1-.205-.423-.463-.611-.896-.8M60.999 42.32c-.254.735-.486 1.48-.852 2.17-.665.323-1.326.55-2.03.772.765.334 1.632.65 2.231 1.252.317.318.569 1.129.936 1.266l.108-.069c.132-.404.261-.792.327-1.213.934-.498 1.882-.92 2.858-1.328-.818-.227-1.633-.466-2.468-.62-.314-.686-.632-1.654-1.11-2.23m15.8.478c-.332 1.556-.688 3.118-1.194 4.628-1.277.297-2.53.817-3.761 1.266 1.208.444 2.46.848 3.616 1.42.481.853.847 1.64 1.125 2.579.1.34.237 1.262.412 1.503.037.052.114.056.172.084.251-1.356.804-2.589 1.207-3.9 1.021-.535 2.362-.947 3.258-1.636l-.002-.217c-.923-.638-2.174-.814-3.196-1.279-.513-1.287-.664-2.76-1.19-3.995-.099-.232-.228-.337-.447-.453m57.544.108c-.111.326-.17.525-.146.877-.365.125-.44-.142-.8.11-.002.315.073.39.237.663-.448.015-.663-.061-.993.26l.06.277c.298.153.528.167.856.197l.024.154-.34.298.024.236.236.151q.298-.1.595-.207c.202.251.222.59.28.899l.325.087c.108-.126.21-.261.32-.384.197-.222.481-.371.732-.526a4 4 0 0 0-.117-.63c.365-.204.674-.14.92-.483l-.093-.302c-.285-.054-.703-.056-.903-.264l.14-.372-.13-.272-.183-.033-.316.222c-.382-.485.063-.721-.728-.958m-44.008 2.532c-.26.245-.559.506-.593.888-.026.29.089.608.323.791.268.21.556.277.879.34.264-.268.504-.505.535-.904.022-.288-.095-.635-.327-.821-.242-.194-.52-.246-.817-.294m59.368.158c-.589.327-.834-.092-1.016.275-.114.227-.168 1.101-.051 1.342.035.073.087.136.131.204.346.065.645.113.96.275l.198.066c.287-.207.537-.453.596-.815.063-.385-.013-.734-.117-1.103-.231-.258-.256-.238-.603-.292zm56.469 2.965c-.191.32-.381.843-.733.944l-.399-.202-.175.069c-.023.39.113.537.341.849-.418-.03-.836-.135-1.2.088l-.045.25c.29.169.576.232.899.308a3.6 3.6 0 0 1-.62.368l-.08.22c.185.197.114.18.415.22.247.031.453.096.684.188.085.242.14.479.192.73.205.094.119.101.25.068.345-.193.362-.27.738-.173l.343.389.254-.047c.25-.442-.2-.814.205-1.085.32-.003.723.075.979-.12-.077-.432-.424-.49-.681-.841l.19-.041c.177-.041.323-.087.49-.156l.043-.214a2 2 0 0 0-.53-.239 6 6 0 0 1-.161-.688l-.259-.149-.434.283c-.219-.153-.15-.053-.222-.258-.119-.33-.177-.558-.484-.76m-85.6.397c-.61.614-.743 1.156-.73 2.029.008.49.12.917.333 1.354.12.09.233.19.372.25.536-.59.713-1.153.707-1.957-.003-.493-.124-1.203-.506-1.548-.054-.048-.116-.087-.176-.128m46.01.161-.075.088c-.332.373-.573.449-1.062.527.1.47.22.938.256 1.416l.378.221c.443-.015.684-.056.963-.444q.034-.046.062-.096t.05-.103.04-.108.025-.111q.01-.057.013-.114.003-.058 0-.115-.004-.057-.014-.114-.01-.056-.026-.111a2.23 2.23 0 0 0-.61-.936m-25.733.15c-.156.502-.221.776-.088 1.289.224.25.218.24.553.28l.48-.364.255-.05a1.2 1.2 0 0 0-.168-.885c-.088-.138-.137-.166-.25-.259a7 7 0 0 0-.782-.01M45.998 51.92c-.217.342-.348.549-.358.97.169.284.217.372.546.49.139.05.357.055.499.07.217-.382.29-.577.264-1.018-.145-.235-.22-.396-.511-.476-.109-.03-.323-.032-.44-.036m14.028.433c-.186.36-.27.567-.25.976.16.276.273.453.597.55.18.054.395.059.582.071.211-.352.306-.533.276-.962-.16-.282-.29-.397-.601-.509-.187-.066-.408-.092-.604-.126m35.015.367c-.326.284-.647.578-.98.853.305.4.67 1.021 1.149 1.213.37-.347.753-.687 1.112-1.046-.392-.351-.802-.797-1.281-1.02m-7.438.86c-.354.357-.646.636-.634 1.181.007.32.121.554.384.74.286.203.65.247.99.222.312-.27.558-.488.623-.917a.94.94 0 0 0-.273-.824c-.314-.322-.668-.353-1.09-.401m87.842.967c-.156.36-.202.447-.165.832.181.21.277.32.569.375.082.016.168.013.252.019.136-.366.22-.48.136-.869-.281-.25-.436-.287-.792-.357m-44.82 1.167-.45.375q-.111-.016-.222-.028c-.296-.03-.442.046-.7.178-.185.247-.213.315-.139.645.07.312.292.689.54.884l.155-.02.2.029c.2.03.38.07.573.125.418-.154.562-.448.836-.792-.18-.507-.308-1.1-.793-1.396m-59.166 2.986c-.523.63-1.219 1.282-1.947 1.663.607.386.81.629 1.117 1.266.195.405.467.644.806.931l.147-.06-.004-.13c.105-.283.128-.539.389-.704l.349.218.22-.093c.065-.214.117-.447.188-.657.093-.279.352-.517.545-.732-.403-.419-.786-.726-1.247-1.07-.236-.175-.3-.34-.48-.56-.023-.029-.055-.048-.083-.072m-32.145.478-.059.17c-.074.206-.094.333-.28.459-.42.286-.796.66-1.205.97.062.238-.006.14.16.261.422.307.549.543.776 1 .137.276.325.472.543.684l.274.079.094-.099a3.1 3.1 0 0 1 1.038-.713c.213-.288.17-.617.173-.96l.4-.424c-.277-.45-.689-.285-1.047-.586-.367-.31-.358-.639-.867-.84m120.563.806c-.295.394-.527.736-.468 1.257a.86.86 0 0 0 .452.678c.284.149.654.1.956.033.237-.272.542-.576.54-.963a.9.9 0 0 0-.345-.742c-.331-.273-.73-.259-1.135-.263m-113.305.116c-.33.309-.6.577-.598 1.068 0 .321.155.596.398.799.301.252.642.3 1.02.323.363-.326.662-.62.658-1.15-.002-.325-.176-.6-.434-.789-.309-.226-.676-.242-1.044-.251m158.315.102c-.364.332-.73.622-.934 1.082.014.3.054.474.309.669.298.228.517.194.817.324.067.029.121.082.181.123.348-.17.567-.599.788-.916-.26-.49-.448-1.042-1.011-1.239q-.075-.024-.15-.043m-71.551.108c-.217.37-.339.583-.32 1.018.163.276.275.458.61.533.208.047.451.036.664.036.183-.345.274-.556.272-.961-.146-.264-.251-.447-.56-.539-.207-.062-.451-.069-.666-.087m36.14 1.214c-.074.416-.12.802-.127 1.224l-.183.117q-.458-.18-.922-.346l-.141.112c.203.274.387.341.682.49l.03.08c-.203.117-.071.082-.323.035-.14-.026-.28-.041-.42-.06l-.106.136.073.238c.26.127.504.216.781.296-.025.459-.53.315-.411.863l.166.114q.301-.186.59-.388c.12.374.092.77.095 1.158l.304.142.215-.102c.092-.273.185-.542.295-.809q.107.027.215.052c.293.061.176.062.442-.01.041-.317-.017-.505-.093-.807.327-.648 1.185-.087 1.034-1.138-.229-.307-.266-.324-.626-.456-.404.041-.659.144-1.016.332-.371-.473.2-.978-.554-1.273m45.143.19c-.27.248-.652.541-.696.931-.036.315.044.547.282.759.262.232.612.27.941.313.405-.314.698-.552.745-1.1.02-.246-.076-.354-.18-.568-.356-.291-.643-.334-1.092-.335m-23.037 1.441-.023.14c-.053.32-.07.565-.302.812-.416.016-.413-.278-.842-.144l-.153.29c.138.201.284.36.457.531-.154.25-.329.413-.54.613l-.035.227c.262.207.597.151.914.15.455.218.637.612.902 1.022.11-.236.222-.59.373-.794.362-.487 1.208-.23 1.138-.903-.294-.287-.617-.134-.803-.455l.348-.253c-.112-.377-.39-.508-.72-.689a1.03 1.03 0 0 1-.457-.432zm-5.681.84c-.258.276-.427.439-.484.831.081.313.106.456.403.643.33.209.719.21 1.095.209.291-.345.373-.405.439-.867-.125-.314-.222-.523-.542-.683-.306-.154-.582-.147-.911-.134m-96.545.983c-.41.3-.721.547-.774 1.094-.033.337.074.63.305.875.277.296.61.376.996.429.376-.277.665-.53.757-1.01.054-.281.017-.55-.144-.79-.269-.403-.686-.522-1.14-.597m132.029.568c-.365.485-.54.898-.704 1.481-.25-.043-.426-.12-.656-.222-.269.053-.43.063-.552.354-.106.25-.114.53.031.764.055.087.194.23.267.31l-.065.194c-.432.083-.802.061-1.111.382l-.008.19c.441.355 1.407-.087 1.47.5.022.207-.044.485-.074.694l.134.172.814-.087.186.156q-.004.346-.014.69c.212.145.226.145.483.138a8 8 0 0 0 .251-.793c.513-.299.856.012 1.295-.611a4 4 0 0 0-.159-.676l.135-.158c.454.036.647.11 1.052-.116l.033-.197c-.29-.275-.6-.422-.954-.594.067-.263.193-.443.338-.668-.013-.27.039-.22-.178-.428l-.488.152c-.143-.088-.203-.08-.253-.246a2.27 2.27 0 0 0-1.03-1.295c-.103-.06-.14-.062-.243-.086m-10.14 1.659c-.298.188-.647.382-.768.738-.1.296-.076.573.103.834.185.27.477.392.772.493.333-.201.68-.393.826-.778.103-.273.108-.533-.047-.786-.194-.316-.556-.406-.886-.501m-14.477 2.008c-.24.31-.508.636-.493 1.053a.84.84 0 0 0 .418.714c.276.177.619.156.93.147.262-.274.535-.541.538-.948.003-.3-.126-.533-.356-.72-.298-.243-.675-.24-1.037-.246m-19.384 2.404c-.253.28-.526.556-.544.959-.017.377.09.48.313.755.387.191.615.163 1.024.11.269-.201.567-.392.608-.759.033-.3-.058-.528-.266-.746-.31-.325-.719-.333-1.135-.319m-13.757 4.603c-.388.268-.742.505-.812 1.016-.046.339.086.584.31.825.234.251.608.332.925.41.412-.291.76-.593.835-1.124a.92.92 0 0 0-.28-.808c-.271-.255-.625-.301-.978-.32M220.1 78.84c-.363.378-.703.734-.704 1.29a.93.93 0 0 0 .399.778c.328.247.724.265 1.118.268.385-.268.713-.528.768-1.034.036-.32-.09-.613-.306-.844-.374-.398-.767-.433-1.275-.458m-16.18.475c-.427.324-.755.56-.826 1.13-.029.229.048.334.131.54.364.343.599.404 1.099.464.307-.184.585-.332.694-.702a.95.95 0 0 0-.147-.865c-.242-.337-.574-.446-.951-.567m27.689 1.173c-.413.349-.745.629-.773 1.211-.017.35.104.603.34.854.333.354.802.391 1.256.4.407-.232.73-.438.856-.93a1.06 1.06 0 0 0-.146-.872c-.254-.392-.626-.582-1.076-.653-.146-.023-.311-.012-.457-.01m-197.913 1.45c-.224.502-.343 1.123-.876 1.317-.157.058-.33.098-.49.143-.187.233-.191.228-.185.525l.444.532c-.097.285-.188.364-.394.574.006.317.01.305.226.54q.347-.026.694-.07c.33.328.515.803.956.948.312-.226.377-.55.496-.898l.124-.137.232.077c.216.07.402.104.63.115l.227-.228c-.023-.322-.148-.539-.297-.816.132-.355.75-.482.619-.772-.205-.458-.634-.892-1.074-1.125-.286.028-.347.08-.587.244-.224-.322-.425-.755-.745-.969m45.144.414c-.377.294-.694.564-.764 1.07a.98.98 0 0 0 .286.844c.386.394.885.424 1.399.376l.136-.018c.362-.31.722-.588.733-1.111.007-.33-.15-.57-.396-.772-.43-.351-.858-.38-1.394-.39m34.447 7.546c-4.149.858-6.825 4.092-9.048 7.477-1.06 1.614-2.027 3.31-3.153 4.878-1.85 2.574-4.506 5.157-7.032 7.06-4.922 3.706-12.428 5.096-15.711 10.324.397-.07.783-.151 1.16-.299 1.957-.762 3.875-1.995 5.748-2.965 3.201-1.657 6.567-3.105 9.56-5.125 1.816-1.226 3.595-2.56 4.895-4.344-1.023 2.671-.995 5.655-.709 8.47-.82-.001-1.654-.038-2.4.353l-.125.209c.224.536 1.02.777 1.526.984 8.134 3.336 11.6 1.33 19.462-1.202 2.72-.876 5.784-1.575 8.39-2.69.402-.171.967-.376 1.147-.804-.829-.884-1.856-1.617-2.79-2.389q-1.938-1.616-3.813-3.306c-.157-2.998-.433-5.836-.396-8.859l.237.024c1.082 1.673 1.625 4.625 2.538 6.561 2.016 4.278 9.095 10.594 13.421 12.344-1.685-3.086-4.838-5.293-7.128-7.933-1.609-1.856-2.91-3.993-4.578-5.784l-.305-.33c5.412 2.012 10.558 8.377 14.61 12.478 1.463 1.481 2.956 3.106 4.832 4.07 1.803.928 3.799 1.249 5.792 1.478-1.755-.913-3.5-1.824-5.116-2.975-4.221-3.007-7.808-7.456-10.542-11.836-1.798-2.88-2.29-6.048-3.701-9.055-1.679-3.576-5.396-7.63-9.752-6.27-.694.217-1.404.54-2.13.614-1.783.181-3.24-1.309-4.89-1.158m-58.132 2.74c-2.187.873-2.648 3.31-4.303 4.819-1.903 1.736-4.038 2.665-6.168 4.015-1.975 1.251-3.738 3.19-5.009 5.139 3.186-2.513 5.256-4.218 9.136-5.716-1.67 1.68-3.667 2.94-5.6 4.29-1.917 1.339-3.81 2.715-5.788 3.965-6.54 4.135-17.259 9.92-24.585 11.975 3.75-.062 8.69-1.852 11.976-3.495 1.657-.829 3.22-1.828 4.862-2.683 1.532-.797 3.195-1.372 4.683-2.24-3.35 4.279-6.882 8.186-11.67 10.883 4.091-.926 7.768-3.224 10.577-6.322 1.215-1.34 2.306-2.787 3.576-4.078 2.036-2.07 4.992-4.41 7.43-5.967-1.056 1.454-2.142 2.887-3.189 4.347-1.835 2.56-3.503 5.334-6.131 7.164-1.799 1.1-3.665 2.037-5.53 3.017 3.121-.897 6.032-2.42 9.161-3.331-2.131 1.644-4.55 3.666-7.104 4.555-1.863.65-3.902.484-5.834.754-2.704.379-12.178 2.463-13.482 4.64-.03.335-.02.359.148.652.524.287 1.1.153 1.644-.012 2.844-.863 5.545-2.03 8.469-2.692 2.578-.583 5.214-.777 7.824-1.16 2.487-.364 4.954-.868 7.443-1.238 3.696-.549 7.451-.979 11.119-1.683 5.5-1.055 10.779-3.26 16.374-3.894 3.62-.41 6.227-.119 9.776.379a20 20 0 0 1 1.347-1.548c-3.032-2.52-3.326-4.545-5.246-7.724q1.843 1.343 3.786 2.537t3.976 2.23l1.238-.73c-3.118-2.668-6.512-4.85-10.036-6.937-2.073-1.228-4.344-2.317-6.197-3.865-1.334-1.115-2.402-2.514-3.285-4.005-1.008-1.703-1.933-4.488-3.558-5.665-.566-.41-1.161-.42-1.83-.376m177.725.486c-.464.394-.77.733-.798 1.368a1.3 1.3 0 0 0 .337.967c.268.291.624.412 1.016.417.17.002.36-.037.526-.063.44-.334.703-.623.783-1.186a1.34 1.34 0 0 0-.33-1.102c-.289-.323-.603-.43-1.035-.439-.164-.003-.337.02-.499.038m-70.714 7.882-.168.072c-1.748.774-3.167 2.252-4.61 3.48-4.078 3.47-8.597 5.935-13.954 3.925-3.462-1.3-6.702-3.936-9.29-6.535 2.731 4.562 5.312 6.877 10.507 8.183 1.018.255 2.07.47 3.052.845 4.566 1.743 7.214 5.914 10.542 9.227 2.994 2.981 6.662 5.586 10.494 7.367-3.008-.574-5.808-1.141-8.54-2.602-7.996-4.276-8.342-11.141-18.743-12.576 3.954 1.61 6.732 4.806 9.564 7.884.67.729 1.569 1.455 2.103 2.279-.638.604-2.525.446-3.36.422q-1.32-.04-2.625-.251c1.459 1.269 3.071 1.964 5.047 1.827 1.02-.071 1.9-.374 2.801-.835 4.116 3.692 10.44 5.675 15.92 5.35.9-.053 1.812-.19 2.703-.325-2.695-2.248-4.52-3.89-4.836-7.618a19 19 0 0 1-.051-1.118c3.402 2.388 7.183 4.74 11.149 6.018l-.115-.138c-2.018-2.389-4.76-4.182-6.841-6.556-1.63-1.86-2.813-4.391-4.055-6.525-1.718-2.95-3.537-5.894-5.121-8.915 1.731.516 3.268 1.3 4.832 2.199 3.348 2.14 6.596 4.105 10.364 5.44 2.758.976 5.829 1.61 8.43 2.97 2.734 1.43 4.59 3.82 6.893 5.792 3.449 2.953 10.464 6.907 15.162 5.86 3.514-.784 6.968-2.113 10.604-2.253.666-.026 1.298-.003 1.952.14 3.81.828 7.616 2.467 11.26 3.837 2.236.84 4.538 1.558 6.742 2.473.75.311 3.487 1.704 4.15 1.114.023-.49-.111-.76-.443-1.12-2.477-2.68-13.583-6.295-17.54-7.864-1.367-.542-3.084-1.028-4.252-1.906-3.496-2.63-1.418-14.216-11.395-14.373-4.373-.068-7.474 2.87-10.867 5.147-1.49 1-3.012 1.814-4.586 2.665l.05.168c.827.172 2.04-.175 2.793-.504-.486.933-2.522 2.718-2.515 3.391 1.245 2.26 9.62 5.037 9.923 6.33l-.166.18c-1.625.017-4.142-1.159-5.483-2.026-1.439-.93-2.784-1.782-4.075-2.92-1.608-1.418-3.054-3.198-4.92-4.28-4.947-2.869-10.75-3.541-15.76-6.166a38 38 0 0 1-3.96-2.41c-2.077-1.434-5.483-4.637-7.996-4.791q-.109-.006-.217-.004c-.185 0-.37.012-.553.026m8.646 9.807c1.86 3.12 2.95 6.677 4.972 9.673.854 1.264 1.968 2.274 2.964 3.418-1.268-2.932-1.802-6.112-2.935-9.096l.14.138c.953.938 1.771 2.016 2.62 3.046 2.638 3.199 4.578 5.185 8.243 7.19-2.023-2.158-3.556-4.614-5.465-6.838-.486-.633-.917-1.238-1.29-1.946 1.731.807 3.667 1.585 5.251 2.654 1.113.752 2.1 1.696 3.132 2.553 1.793 1.487 3.917 2.72 6.116 3.494-1.12-.99-2.26-1.97-3.321-3.022-1.728-1.717-3.585-4.36-5.841-5.354-2.514-1.109-5.362-1.428-7.896-2.541-2.186-.961-4.45-2.684-6.69-3.37m-74.49 2.336c-.932.192-1.9.412-2.692.967l.005.171c.3.044.534.034.835-.008.868-.024 1.87.053 2.56-.563l.097-.304c-.164-.238-.206-.27-.5-.294-.093-.008-.213.016-.305.03m126.636.83c4.66 4.85 10.307 8.169 16.669 10.255 1.138.373 2.623.944 3.83.951.082.001.164-.003.246-.004-.08-.358-.102-.533-.439-.721-1.573-.879-3.839-1.566-5.548-2.261-4.197-1.706-8.284-3.677-11.985-6.309-.834-.593-1.83-1.545-2.773-1.91m-98.248 3.697c-4.084.342-8.187 1.19-12.174 2.111-2.775.642-5.463 1.453-8.321 1.679-3.353.264-6.731.226-10.091.496-7.212.58-14.374 1.483-21.614 1.743-2.247.081-4.476-.14-6.72-.166-3.632-.043-7.348.063-10.978.236-2.957.141-5.902.64-8.822 1.106-2.771.442-5.59.85-8.329 1.457q-4.097.947-8.099 2.238t-7.88 2.916c-3.466 1.454-6.735 3.243-10.133 4.827.11 1.878.18 3.771.383 5.642.313-.605.661-1.594 1.13-2.046.537.245.785.934.984 1.466.953 2.548 1.409 5.293 2.15 7.905.416-3.162 1.6-9.76 4.022-11.956.336.008.404.007.665.254.444.419.749 1.365.985 1.926 1.084 2.578 1.824 5.459 2.212 8.23.187 1.334.21 2.781.553 4.08.195-5.912.726-12.85 4.64-17.598 4.128 5.074 4.59 12.559 6.045 18.692.191-1.667.208-3.344.399-5.008.24-2.097 1.205-7.564 2.81-8.988.301-.09.379-.126.672.049.365.218.665.832.858 1.191 1.433 2.675 1.671 5.448 2.321 8.337.358-3.803 1.257-7.229 2.822-10.715.258-.576.589-1.51 1.128-1.878.257-.175.386-.094.647-.007 1.746 1.677 3.66 12.588 4.07 15.412.31 2.127.482 4.279.689 6.418.34-1.507.475-3.041.729-4.563.455-2.734 1.306-5.58 2.536-8.069.762 1.832 1.403 3.709 2.12 5.558.959 2.468 1.987 4.879 2.697 7.437.298-.797 3.394-7.76 3.557-7.942l.211-.036c1.137.993 2.313 4.848 2.811 6.398.569-2.701 1.478-5.311 2.833-7.725.678 1.704 1.135 3.472 1.879 5.154.724-1.802 1.217-3.773 2.339-5.371.621 1.503 1.229 3 1.668 4.57.506-1.364 1.88-5.522 3.243-6.123.309-.137.495-.141.807-.005 1.14.497 1.933 4.063 2.178 5.172.55-2.037 3.079-9.711 4.598-10.779l.271-.039c1.33 1.089 2.324 7.146 2.633 9.04.596-1.845 1.86-5.556 3.218-6.893.18-.048.246-.11.427-.02 1.293.647 2.914 5.55 3.28 6.987.247.968.447 1.952.736 2.907.478-3.384 1.444-7.146 3.455-9.97 1.79 1.619 2.656 4.192 3.524 6.384.321-1.619.65-3.256 1.201-4.815 1.892 2.76 3.15 5.679 4.358 8.78l.101-.151c1.15-1.76 1.825-4.716 3.275-6.111.299-.018.189-.065.413.132 1.621 1.423 2.238 4.814 3.605 6.328l.208-.055c.612-1.247 1.005-2.74 1.478-4.062a42 42 0 0 1 2.833-6.29l.079.097c1.962 2.497 3.498 11.004 4.324 11.808.263-.048.172.017.322-.194.365-.513.568-1.296.797-1.884.771-1.977 1.506-3.903 2.872-5.56 1.027 1.213 1.8 2.581 2.493 4.006q.507 1.013.976 2.046c.478-1.514 2.9-10.07 3.853-10.576 1.188.802 2.388 6.734 2.728 8.462l.072-.182c1.135-2.913 1.655-8.472 3.111-10.82l.16-.047c1.417 1.154 4.103 11.054 4.634 13.121 1.332-3.067 2.388-6.982 4.365-9.668 1.127 1.213 1.629 2.77 2.224 4.286.733-1.832 1.414-3.673 2.445-5.363q.195.226.374.464.18.238.343.488t.31.51q.146.26.275.528.129.27.24.546.11.277.203.56t.166.573q.074.289.129.582c.607-1.34 1.395-3.801 2.458-4.751.162-.03.248-.093.394.014.673.493 1.632 3.94 1.894 4.904.447-1.648 2.305-8.213 3.614-9.114.464.094.662.432.91.81 2.533 3.855 3.74 10.492 5.509 14.895l.07-.168c.52-1.261 1.484-5.623 2.444-6.299.803.393 3.694 5.343 4.066 6.415l.108.32c.77-2.496 1.59-5.342 3.222-7.431 1.925 2.475 2.927 6.065 3.913 9.019 1.08-2.545 1.37-5.435 3.019-7.72.4.955.837 1.904 1.085 2.91l.056.222.03.133c.45-2.786 1.621-7.463 3.13-9.829 1.836 1.927 3.967 9.389 4.258 12.123.647-4.018 1.414-8.308 3.096-12.032 2.454 4.332 3.895 10.791 5.032 15.653.388-1.21 2.626-8.981 2.824-9.265.249.002.215-.052.363.11.473.52.591 1.47.743 2.143.24-2.745 1.503-8.778 3.462-10.721 2.541 2.819 2.978 6.204 4.257 9.61.216-2.867 1.188-11.61 2.828-13.729.195-.063.172-.109.323-.006 1.317.897 3.159 9.787 3.812 11.904.396-1.877 2.007-9.774 3.55-10.637.038-.022.082-.034.123-.05.827.442 1.403 2.646 1.662 3.501.588 1.945.807 3.986 1.415 5.915.686-2.727 1.227-5.585 2.154-8.24 1 2.029 1.33 4.032 1.843 6.2.219-1.478 1.35-7.652 2.542-8.285.297-.157.525-.12.819.011 1.347.601 2.823 4.458 3.34 5.79.187-1.33 1.148-4.794 1.063-5.712-1.748-1.444-10.646-4.793-13.346-5.936-3.395-1.436-6.747-3.05-10.212-4.313-3.73.743-7.424 1.802-11.045 2.957-2.458.784-5.588 2.145-8.088 2.38-1.539.145-3.946-.794-5.49-1.136-4.303-.953-9.214-.977-13.51-.033-3.567.783-7.16 2.24-10.519 3.66-1.255.53-2.486 1.177-3.771 1.628-.59.206-1.503.53-2.115.45-1.884-.243-3.947-1.227-5.704-1.933q-6.209-2.467-12.055-5.701-2.567-1.388-5.067-2.895c-5.063-3.12-12.082-8.105-18.25-7.4m34.334 38.256c-4.47.18-8.811.845-13.198 1.705-5.129 1.005-9.137 2.038-14.476 2.096-6.862.076-13.657-1.741-20.46-2.53q-4.186-.495-8.399-.358c-1.788.066-3.57.275-5.358.341-4.189.155-8.375.097-12.562.411-2.423.181-4.85.587-7.267.862-2.09.238-4.155.23-6.194.825-2.63.766-4.144 2.668-6.444 3.832-1.5.758-3.248.808-4.81 1.437.724.352 1.324.63 1.638 1.429l-.062.267c-.285.125-.392.203-.707.084-.16-.06-.342-.245-.477-.351-.294-.23-.394-.348-.776-.364-.2.238-.162.109-.14.433.084 1.198.66 2.426 1.585 3.193.352.292.752.558 1.142.796q1.281-.07 2.558-.201c-.456.445-.906.803-1.427 1.167 2.017 1.47 4.447 1.152 6.779 1.654.981.212 1.905.533 2.775 1.038 1.966 1.14 3.729 3.137 6.233 2.751 1.266-.194 2.44-.873 3.707-1.033 2.317-.293 7.679 3.2 9.968 4.262-.43-.993-.917-1.991-1.223-3.03 1.274 1.249 4.645 5.432 6.353 5.484.192.006.134.021.263-.082-.558-1.285-1.223-2.54-1.745-3.836.864.678 1.575 1.592 2.308 2.406 1.745 1.938 3.232 3.378 5.445 4.78-.691-1.48-1.306-2.923-1.72-4.51 1.365 1.68 2.51 3.577 4.009 5.14 2.108 2.2 4.719 3.912 6.895 6.06 3.58 3.532 6.78 7.65 9.926 11.568 2.241 2.79 4.744 5.615 6.473 8.766.721 1.314 1.484 3.037 1.311 4.569-.08.703-.392 1.275-.96 1.7-1.206.904-3.282 1.322-3.593 3.05-.096.538-.078 1.172.271 1.62.513.659 1.584.78 2.355.838 4.051.3 9.48.094 12.724-2.68 1.962-1.68 2.749-4.412 2.895-6.909.31-5.28-1.757-10.645-4.281-15.197-.905-1.632-1.936-3.191-2.84-4.822 2.758 1.845 4.784 4.195 7.96 5.46-.827-1.198-1.678-2.384-2.429-3.631-.28-.536-.556-1.061-.777-1.625l.117.1c2.875 2.535 4.833 5.66 8.618 7.038-1.326-1.679-2.555-3.192-3.305-5.22 2.592 2.677 5.423 5.155 9.1 6.095-1.659-1.791-3.411-3.772-4.194-6.129 1.86 1.959 5.738 6 8.584 6.107.307.012.528-.049.81-.177l-.155-.194.013.03c-2.344-1.902-3.803-4.64-4.879-7.402 3.064 3.253 6.077 6.865 10.38 8.487-1.447-2.316-3.463-4.296-4.468-6.867 2.308 2.759 5.278 6.382 9.055 6.96l.255-.085c-.073-.767-2.162-2.338-2.719-3.037 2.001 1.43 3.487 2.996 6.052 3.232-2.255-3.017-5.457-7.155-6.859-10.647 3.513 3.216 6.397 7.035 9.54 10.591 1.809 2.048 4.011 3.973 5.45 6.307.748 1.212 1.365 2.773 1.411 4.209.06 1.857-1.069 3.66-2.325 4.945-1.094 1.119-2.36 2.105-3.527 3.15l.158.024c1.306.203 2.554.64 3.864.836 4.97.742 9.595-.544 13.775-3.229.983-2.233 1.95-4.447 2.586-6.81 2.677-9.94 2.121-22.899-1.611-32.509-.405-1.04-.84-2.086-1.371-3.068 2.412 1.79 3.893 4.417 5.112 7.102.598-.688 1.116-1.328 1.51-2.16-1.865-7.502-11.138-15.278-17.589-19.16-8.293-4.991-16.98-7.354-26.636-7.385m-58.68 29.377c.13 3.262.64 7.048 1.149 10.291.804 5.12 3.945 18.028.26 21.896-1.179 1.237-4.912 2.55-4.974 4.08-.02.476.247.902.602 1.195 1.767 1.462 7.686 1.076 9.973.79 1.666-.21 3.07-.73 4.5-1.595 5.16-4.174 5.766-12.546 8.529-18.279-1.565-2.17-3.31-4.197-5.08-6.2-3.794-4.294-7.604-8.103-12.64-10.954-.748-.423-1.52-.912-2.319-1.224m-65.457 6.003-4.37.025c.383.682.783 1.307 1.258 1.93 2.797.181 5.627.083 8.43.061q6.064-.063 12.128-.045 20.855.152 41.71.052c1.473-.004 2.955-.035 4.428.006l-.234-1.843q-25.63-.376-51.26-.164c-4.028.022-8.065-.094-12.09-.022m168.313.349c.001.481-.023.895.178 1.34.081.06.147.15.243.18.697.215 18.706.045 20.646-.03.194-.321.45-.634.431-1.023-.781-.63-18.764-.4-21.498-.467m4.356 3.022q-2.044.028-4.088.036c.031 1.005.039 2.019.156 3.019q7.755.182 15.512.144l1.333-.04c.72-.862 1.655-1.883 2.142-2.894-.269-.297-1.024-.29-1.431-.309-4.51-.201-9.102.077-13.624.044m-174.492.611c.575.892 1.217 1.8 1.945 2.573l33.495.136c1.773.01 3.54.181 5.313.22 5.746.125 11.433.1 17.164-.39 2.28-.194 4.608-.37 6.843-.884.451-.137.797-.143 1.059-.574.162-.266.127-.476.035-.75-.261-.189-.457-.233-.771-.251-1.707-.098-3.47-.006-5.185 0l-11.449.056-30.56-.063c-5.952-.008-11.944.1-17.89-.073m36.87 6.383c-6.748.477-18.056 2.567-22.684 7.819-.366.415-.65.897-.904 1.387q1.263 1.343 2.593 2.617c1.098-1.183 2.251-1.5 3.072-2.356-.451-.395-1.133-.204-1.587-.639-.012-.421.141-.634.43-.936 2.05-2.147 8.057-4.18 10.905-4.88 1.593-.392 3.216-.632 4.842-.834 2.21-.225 4.534-.525 6.754-.443 8.557.317 18.153 3.15 25.982-1.566-3.647.69-7.233 1.443-10.974 1.262-5.225-.253-10.279-1.486-15.54-1.507-.933-.004-1.974-.062-2.89.076m29.303 2.347.09.278c.306.108.546.128.867.144-.102-.164-.155-.363-.35-.417-.214-.059-.392-.028-.607-.005m68.288.691-.02.15c-.611 5.046 5.227 10.645-.345 15.04-.894.705-1.85 1.332-2.753 2.026 2.93.74 7.792 2.286 10.61.629a9 9 0 0 0 1.096-.785c1.65-1.46 6.585-5.342 6.687-7.465.113-2.368-4.55-6.803-6.135-8.806-3.168.008-6.041-.038-9.14-.788m-89.779 2.96c-2.814.273-4.917.813-7.644 1.444-4.983 1.153-7.956 1.727-12.64 4.234-.722.387-1.667.794-2.206 1.422q-.062.075-.12.151l.044.155c1.068-.055 3.327-1.415 4.497-1.898q4.72-1.908 9.661-3.131c6.546-1.301 12.026-1.867 18.697-1.096 2.64.305 5.25.93 7.906 1.106-4.611-1.544-13.448-3.08-18.195-2.387m75.916 6.111c-2.453.38-5.756 1.514-7.27 3.599-.356.488-.55 1.067-.751 1.63 2.913-2.011 5.327-3.58 8.981-3.695.85-.026 1.73-.052 2.567.117.654.132 1.536.397 1.965.95.176.228.23.495.153.769-.044.155-.035.147-.185.214-.772.346-2.044.31-2.9.44q-.902.145-1.77.427-.87.281-1.685.692c-2.594 1.29-4.159 3.156-5.923 5.368-.685.86-1.39 1.735-2.293 2.38-1.335.956-2.882 1.385-4.467 1.737-6.574 1.461-12.023.223-18.495-.658-1.9-.258-3.807-.397-5.718-.537-3.219.138-5.589.53-8.36 2.258 3.442-.317 6.74-.81 10.215-.627 3.3.175 6.5.888 9.767 1.296 4.537.567 11.523.891 15.533-1.44 3.179-1.849 4.956-5.393 8.023-7.401 1.075-.705 2.3-1.21 3.504-1.646 1.659-.6 4.432-1.01 5.578-2.342.236-.275.412-.604.41-.976-.003-.557-.408-1.005-.825-1.324-1.696-1.297-4.022-1.344-6.054-1.231m-89.369 4.234c-1.1.343-2.597 1.003-3.1 2.117-.095.21-.111.307-.08.529l.169.179c.319-.057.183.013.411-.2 1.169-1.094 2.366-1.706 3.67-2.593-.355-.12-.704-.061-1.07-.032m12.423 2.288c-.428.573-.495 1.23-.377 1.93.2 1.178 1.329 2.22 2.286 2.858 1.401.934 2.997 1.368 4.62 1.74l.07-.145c-.62-.481-1.444-.793-2.146-1.147-2.048-1.032-3.68-2.564-4.279-4.848a1.1 1.1 0 0 0-.174-.388m19.63 14.744c-2.346.08-7.49.179-9.556 1.279l-.174.24c.529.244 1.065.465 1.603.687 4.174-.765 8.275-1.255 12.526-1.124 3.927.121 7.859.833 11.746 1.368 6.12.843 12.397 1.518 18.583 1.348 2.192-.084 8.531-.071 10.091-1.104l.027-.233c-.245-.228-.368-.265-.709-.245-1.588.091-3.221.431-4.822.561-3.605.293-7.315.251-10.919-.024-9.45-.722-18.87-2.983-28.397-2.753m6.522 4.499q-2.483.1-4.962.265c3.222.72 6.39.633 9.653.963 3.298.333 6.613 1.016 9.926 1.121 1.203.099 2.539.27 3.731.035l.072-.139c-.587-.394-2.008-.437-2.755-.57-5.145-.919-10.409-1.93-15.665-1.675M207.183 50.156l-.082-.04z"/><path d="m171.125 63.313-.513-.088-.1-.147.145-.39c.28.055.355.015.55.238zm50.862 3.375c-.15.035-.051.022-.298-.013l-.03-.508c.21.087.285.134.448.276zM56.095 112.092c.431-.438.879-.874 1.275-1.344 2.917-3.461 1.29-8.392.965-12.43.771.719 2.05 4.414 3.364 5.984-.471 1.143-.778 2.358-1.056 3.56.882-.732 1.648-1.603 2.522-2.353.334.279.653.58.977.87l-2.481 2.838c-1.665 1.496-3.498 2.114-5.566 2.875m55.971.56c.912-.939 2.313-1.623 3.402-2.363q2.297-1.564 4.298-3.492c.282.27.562.567.862.817l.822.77c-3.125 1.183-6.006 3.844-9.385 4.268m-59.028 3.543c-.23.05-.384.057-.617.024.195-.227 2.895-1.652 3.447-2.017 2.15-1.424 4.023-3.236 6.236-4.579a14.6 14.6 0 0 1 3.27-1.495c.335.046.41-.017.641.249-.017.046-.03.094-.051.138-.699 1.4-7.278 5.695-8.882 6.418-1.29.581-2.682.902-4.044 1.261m53.214-.518c1.888-.651 3.726-1.417 5.605-2.085 2.689-.957 8.307-2.66 10.41-4.383a30 30 0 0 1 2.07 1.746c-2.995 1.726-12.608 4.516-16.22 4.723-.631.034-1.234.033-1.865-.001m64.692 2.748q-.026-.008-.05-.02c-4.842-2.498-6.554-3.924-8.678-9.076 2.645 1.36 6.904 6.739 8.728 9.096m-123.162 1.512-.205.006c.712-.3 1.467-.478 2.196-.735a52 52 0 0 0 4.43-1.789c3.614-1.661 7.022-3.72 10.733-5.19.153 0 .056-.01.278.083-.027.039-.051.08-.081.117-.532.671-1.5 1.334-2.187 1.86-4.53 3.473-9.635 4.788-15.164 5.648M112 112.719l.066-.067zm-25.051 18.44c1.135-1.067 3.037-1.755 4.447-2.451 4.363-2.152 8.704-4.417 13.556-5.263 1.531-.267 3.116-.349 4.666-.47-1.443.81-3.22 1.33-4.768 1.935-2.064.806-4.108 1.689-6.197 2.427-2.708.956-5.468 1.746-8.198 2.631-1.134.368-2.341.982-3.506 1.191m-2.53-2.419-.087-.045c.02-.028.036-.058.058-.084.29-.336.984-.612 1.378-.821 3.59-1.905 10.1-4.249 14.223-4.465.45-.023.878-.073 1.325-.139l.099.02c-1.632.614-3.097 1.581-4.747 2.145-3.98 1.36-8.208 2.195-12.249 3.388m13.974 3.938c.897-.6 1.886-1.06 2.838-1.567 3.235-1.722 6.414-3.03 9.89-4.192-6.267.416-13.264 3.34-19.103 5.571 4.13-2.809 9.86-6.146 14.607-7.538 2.314-.68 4.852-1.024 7.262-1.116-1.877.904-3.837 1.632-5.756 2.443 1.717-.111 3.42-.62 5.12-.88 1.24-.19 2.473-.177 3.722-.177-.954.513-1.96.99-2.975 1.371l.158.002c2.815.01 5.298-.461 8.084.31-2.248.323-4.45.768-6.551 1.666 2.419-.13 5.035-.633 7.407.013l.114.151c-.165.106-4.506.976-5.526 1.338 2.257-.121 4.27.257 6.466.703-3.802.689-7.715 1.068-11.543 1.628-1.995.292-4.029.566-5.965 1.143 1.06-.741 2.237-1.294 3.359-1.933 1.849-1.052 3.623-2.149 5.567-3.026-3.832.988-7.77 1.592-11.624 2.495-1.877.44-3.686 1.112-5.551 1.595m16.952-3.99h.216zm-77.006 4.18-.105-.022.02-.125c6.295-4.65 14.215-5.917 21.82-6.247l.117-.004c-3.99 1.77-8.468 2.52-12.68 3.589-3.105.788-6.134 1.804-9.172 2.809m7.297.59c1.254-.792 2.608-1.452 3.925-2.133 7.278-3.762 11.74-4.068 19.652-4.874.803-.106 1.633-.103 2.443-.131-1.819.59-3.53 1.475-5.357 2.025-1.918.576-3.899 1.003-5.839 1.507l-12.623 3.302c-.741.07-1.467.18-2.201.304m-12.108-2.708-.303-.043c.493-.404 1.463-.555 2.094-.762 4.318-1.416 8.731-2.7 13.285-3.005l.27-.009c-.666.469-1.898.666-2.687.903-4.558 1.368-7.96 2.119-12.659 2.916m19.78 4.289c2.587-1.548 5.353-2.845 8.072-4.137 1.852-.879 3.748-1.86 5.704-2.477 2.204-.695 4.81-1.178 7.11-1.373.813-.095 1.68-.055 2.5-.068-2.792 1.134-5.487 2.519-8.338 3.496-4.112 1.41-8.386 2.345-12.512 3.728-.841.334-1.647.647-2.536.83m1.896 2.366c1.383-.916 3.054-1.57 4.55-2.291 5.114-2.467 8.938-4.247 14.537-5.56 1.376-.322 2.91-.733 4.33-.67-1.134.706-2.435 1.224-3.657 1.764-4.776 2.112-9.698 3.533-14.661 5.118-1.639.524-3.422 1.328-5.1 1.639m5.669.947-.236-.016.044-.097c2.081-1.006 4.2-1.925 6.268-2.964 2.505-1.258 4.881-2.71 7.558-3.6 2.552-.849 5.286-1.256 7.946-1.626l.207.02.008.15c-3.433 2.818-8.26 3.82-12.392 5.184-3.117 1.028-6.223 2.128-9.403 2.948m112.571-2.578c1.116-.868 2.515-1.46 3.806-2.033 5.172-2.294 10.297-3.383 15.958-2.657 2.636.337 5.823 1 8.261 2.1-2.174-.187-4.303-.092-6.478.008-1.459-.009-2.86.264-4.306.4-1.65.156-3.34.159-4.976.41l-.17-.067c.99-.891 6.28-.381 7.01-.731-5.563-1.706-13.518 1.333-19.106 2.57m-86.562-4.549.069-.063zm23.72 4.332c2.416-1.335 7.245-3.46 9.891-3.89 1.88-.22 3.772.041 5.609.43-1.155.406-2.155.995-3.177 1.663 2.085-.343 4.542-.277 6.418.757-.696.164-1.382.385-2.068.586 1.67.042 3.12.136 4.672.788-1.002.131-1.97.401-2.946.656 1.147.214 2.614.233 3.676.729.248.116.164.039.267.302-.324.276-.749.25-1.155.284 1.445.172 2.788.58 4.166 1.036-2.379.135-4.817-.185-7.213-.171.282-.297.513-.567.722-.92-.29.014-.589.014-.873.08l-.113.034-.15-.058c-1.166-.25-2.569-.116-3.775-.214a51 51 0 0 1 3.427-1.358c-2.836.007-5.72-.565-8.539-.12l3.664-1.96.01-.154c-.417-.248-8.446.717-9.656.904-.966.15-1.91.355-2.857.596m-24.796-3.708.07-.07zm-20.754 8.281c1.598-1.203 4.124-2.288 5.927-3.248 2.284-1.216 4.7-2.903 7.167-3.659 2.478-.758 5.109-.967 7.66-1.374-2.06 1.821-17.43 7.497-20.754 8.28m33.218-7.376.125-.073zm8.172.908.202-.112zm-.19.082.19-.082zm-32.016 4.99c-.023-.105-.014-.028.073-.222 2.718-1.677 5.493-3.389 8.691-3.957 1.635-.29 3.333-.37 4.983-.602q-.001.009-.005.016c-.543.675-6.802 2.884-8.01 3.248-1.89.569-3.819 1.033-5.732 1.518m115.607-3.655c2.055-.589 4.135-.926 6.256-1.151.815-.13 1.708-.074 2.535-.074 3.745.003 7.311.342 10.863 1.62q-5.062.173-10.115.517c-1.766.002-3.461.445-5.211.54l-.016-.084c.825-.52 2.567-.764 3.577-1.073-2.628-.166-5.26-.107-7.889-.295m-16.447.768.048-.073zm25.51 1.958c2.302-1.095 4.885-1.387 7.4-1.628 3.904-.28 7.596.375 11.383 1.292-2.62.42-5.23.567-7.875.72-1.659.159-1.86-.332-3.169-.435a47.5 47.5 0 0 0-7.74.05m-129.827 4.744c4.088-2.675 9.418-5.032 14.237-5.754 1.43-.242 2.969.027 4.382.243-2.205.804-4.416 1.65-6.676 2.288-2.666.751-5.385 1.281-8.046 2.067-1.292.414-2.578.837-3.897 1.155m-13.95-5.074.078-.067zm22.849 4.65c2.915-1.338 5.52-2.733 8.76-3.07.944-.076 1.868.035 2.803.152-2.772 1.374-5.947 1.824-8.96 2.396-.862.218-1.713.457-2.603.521m10.869-.83c-.68.01-1.443.093-2.066-.212l.082-.156c.612-.222 1.217-.22 1.86-.249.675-.03 1.542-.142 2.13.248l-.09.165c-.604.232-1.276.189-1.916.203m80.049 19.319a99 99 0 0 0-7.536-.704c-1.822-.098-3.705-.082-5.514-.31-.52-.065-1.175-.117-1.576-.47.022-.026.04-.056.066-.08.548-.498 3.287-.562 4.142-.615 4.374-.232 10.843.438 14.505 2.895-1.362-.167-2.733-.475-4.087-.716m-60.976-.489c-.843-.01-1.755.008-2.584-.16-.303-.06-.513-.083-.69-.351.02-.032.038-.068.063-.097.36-.415 1.18-.505 1.7-.611.647-.06 1.471-.15 2.1.005.366.09.737.2.931.53l-.12.215c-.464.264-.879.362-1.4.469m41.096.854c-.531.109-1.078.235-1.62.256-.39.014-.721-.04-1.008-.32-.005-.22-.047-.234.105-.417.584-.707 1.74-.737 2.581-.818.784-.051 1.681-.168 2.458-.047.28.044.378.028.546.26-.62.619-2.201.857-3.062 1.086m-29.444.535c-1.422-.067-2.863-.106-4.278-.26-.877-.097-2.99-.242-3.562-.955l.049-.207c.558-.239 1.19-.236 1.79-.284a19.5 19.5 0 0 1 3.854.162c.897.124 2.933.33 3.506 1.09l-.063.206c-.412.24-.83.223-1.296.248m-35.392 3.292c.624-.356 1.264-.706 1.757-1.239.293-.316.356-.524.339-.947-.649-.41-4.254 1.164-5.356.6l-.042-.243c.798-1.034 3.392-1.692 4.664-1.942.554.017 1.147.01 1.579.412.479.446.598 1.15.577 1.774-.037 1.15-.388 2.439-1.273 3.226-.696.618-1.69.978-2.622.864-.388-.047-.637-.16-.886-.455.177-.707 1.467-.748 2.053-1.084.466-.267.898-.656 1.314-.996l-.026-.162c-.695-.034-1.39.098-2.078.192m42.12-2.876c2.864-.312 5.727-.004 8.598-.09 2.577-.077 5.128-.495 7.7-.659.138.001.277-.001.415.01.38.031.77.124 1.014.416-.058.111-.058.131-.166.228-.54.488-1.816.595-2.523.707-4.223.672-8.727.894-12.938.058-.718-.169-1.405-.425-2.1-.67m104.945-.428.123-.101zm-.084.077.084-.077zm-160.627 2.865c-.344-.009-.713.017-1.026-.145-.178-.093-.129-.085-.169-.29.28-.31.6-.38.983-.5l.552.132c.241.218.29.226.346.54-.255.22-.347.21-.686.262m-39.057 8.376.122.05zm192.488 3.609.101-.183zm-.064.079.064-.079zm-190.544.79.136.072zm98.401 43.504a2.3 2.3 0 0 1-.628.387l-.213-.082c-.008-.637.648-1.255.999-1.787 2.97-4.499-1.604-9.748-4.112-13.23q-1.86-2.577-3.481-5.31c-.562-.961-1.25-2.063-1.472-3.164.106.068.133.08.238.18 1.01.962 1.767 2.407 2.629 3.515 3.173 4.077 8.832 10.202 8.64 15.576-.066 1.848-1.342 2.787-2.6 3.915m55.538-10.694c-.221.005-.485.054-.685-.05-1.823-.958-7.666-9.597-8.43-11.599.044.02.089.035.13.058.535.299 1.055.962 1.484 1.4 2.14 2.188 6.722 7.341 7.501 10.192"/><path d="M188.528 218.478c.923-.611 1.53-1.25 2.014-2.27 1.613-3.398-1.082-6.781-2.837-9.503-1.285-1.994-2.794-4.206-3.552-6.457l-.046-.142.07.048c1.028.776 1.874 2.154 2.638 3.183 3.636 4.89 5.018 6.904 5.89 13.047 1.305-1.888 1.705-3.647 1.56-5.908.836 1.998 1.264 3.848 1.23 6.017-.928 1.523-2.245 2.189-3.88 2.714l.635-1.058-.081-.117c-.986.363-1.49 1.221-2.275 1.844-.316.251-.59.378-1.002.33l-.101-.155c.137-.325.268-.594.26-.957l-.293-.177c-1.307.237-2.532.806-3.795 1.212.32-.475.644-.95.946-1.437 1.755-2.83 1.266-5.695.568-8.76 1.943 3.051 2.85 4.805 2.05 8.546m-53.228 3.712c.212-.474.428-.952.606-1.441 1.795-4.922-.892-9.41-3.498-13.436-.803-1.24-1.569-2.507-2.385-3.738-.651-.982-1.505-1.913-1.995-2.984l-.045-.103q.048.037.095.078c3.69 3.483 9.735 11.46 10.023 16.57.098 1.733-.45 2.96-1.584 4.219-.36.333-.803.577-1.218.836m-19.631-11.125-.252.011c-.487-.946.816-7.392 1.125-8.788.17.084.273.09.36.27.88 1.82-.657 6.635-1.233 8.507m-12.828 8.399-.12-.038c-.066-.359.28-.594.528-.833.552-.53 1.183-1.114 1.593-1.76 1.17-1.85 1.597-4.635 2.06-6.769.211.17.272.328.316.58.358 2.041-.3 5.713-1.559 7.379-.778 1.029-1.614 1.245-2.818 1.44m1.622 1.431c.897-1.44 2.332-2.451 3.172-3.955 1.106-1.98 1.508-4.338 2.713-6.246.19.193.153.092.182.33.08.644-.118 1.49-.2 2.137-.486 3.846-2.012 5.93-4.324 8.925-.003-.634.151-1.259.27-1.879-.591.286-1.19.487-1.813.688m35.555-1.228c-.171.312-.311.573-.58.816-.025-.054-.075-.103-.074-.163.006-.539.566-1.537.691-2.125.378-1.77.222-4.332-.095-6.12.901.993 1.474 3.903 1.387 5.232-.048.725-.245 1.815-.81 2.322l-.35-.12zm-30.146 1.377-.194-.097c-.102-.506.672-1.55.94-2.007.847-1.444 1.466-2.824 1.921-4.446.204-.726.288-1.474.598-2.166.048.047.106.085.145.141.605.873.221 2.793-.04 3.764-.53 1.975-1.563 3.764-3.37 4.811m-25.312-5.196.058-.067z"/><path d="m133.203 222.033-.328.093-.122-.128c.039-.208 2.517-5.243 2.765-5.674.047.047.1.089.142.14.416.52.61 1.344.49 1.994-.286 1.567-1.734 2.69-2.947 3.575"/></svg>