<svg xmlns="http://www.w3.org/2000/svg" viewBox="0 0 256 256"><path d="M122.43 0h9.934l.121.018c2.375.332 4.84.34 7.232.563q6.655.645 13.21 1.957 1.43.291 2.851.615t2.835.68 2.82.742q1.406.388 2.802.807t2.783.87 2.763.932 2.74.994 2.719 1.057q1.352.543 2.693 1.117t2.667 1.178q1.327.604 2.64 1.237t2.611 1.297 2.582 1.356 2.55 1.414q1.267.72 2.518 1.47t2.483 1.528 2.45 1.583q1.215.805 2.411 1.638 1.197.832 2.375 1.692 1.178.859 2.336 1.745t2.296 1.797 2.255 1.85q1.117.936 2.212 1.898 1.096.963 2.169 1.95 1.073.986 2.124 1.996t2.079 2.045 2.032 2.091 1.984 2.137 1.936 2.18q.955 1.102 1.885 2.224t1.835 2.267q.905 1.143 1.784 2.306c12.24 16.052 20.393 35.61 23.77 55.494q.958 5.627 1.495 11.309c.168 1.794.198 4.857.588 6.487v6.196l-.02.116c-.442 2.754-.387 5.694-.662 8.485q-.856 7.983-2.553 15.83-.312 1.416-.657 2.824t-.72 2.807q-.376 1.4-.783 2.791-.407 1.39-.847 2.772-.439 1.381-.909 2.752-.47 1.372-.97 2.732t-1.031 2.709q-.532 1.348-1.093 2.685-.561 1.335-1.153 2.659-.59 1.323-1.212 2.633-.62 1.31-1.27 2.605-.651 1.295-1.33 2.575-.68 1.28-1.387 2.545-.708 1.265-1.445 2.513-.736 1.249-1.5 2.48-.764 1.232-1.556 2.446t-1.611 2.41q-.819 1.195-1.665 2.372-.845 1.177-1.717 2.335t-1.77 2.295-1.821 2.255-1.872 2.214-1.92 2.17-1.97 2.127-2.016 2.082q-1.02 1.03-2.064 2.036-1.042 1.006-2.108 1.989-1.065.982-2.153 1.94-1.087.959-2.196 1.893-1.108.933-2.238 1.842-1.129.908-2.278 1.79-1.15.884-2.319 1.74-1.517 1.118-3.067 2.191-1.55 1.074-3.13 2.1-1.582 1.028-3.192 2.008t-3.249 1.912-3.303 1.816q-1.666.883-3.356 1.717t-3.405 1.618q-1.714.784-3.451 1.517t-3.494 1.415q-1.758.681-3.535 1.31-1.777.63-3.571 1.207t-3.606 1.1-3.636.995-3.664.886q-1.839.417-3.689.777-1.85.362-3.71.67-5.004.817-10.06 1.19c-1.739.127-4.056.067-5.706.405h-10.32c-1.872-.425-4.999-.48-7.021-.678q-5.494-.584-10.937-1.532c-18.207-3.177-35.9-11.154-50.716-22.161-26.805-19.916-44.058-46.592-50.985-79.303-.768-3.63-1.404-7.379-1.76-11.074-.228-2.364-.245-4.796-.602-7.138L0 133.993v-14.079c.436-2.296.516-4.71.822-7.035.488-3.697 1.214-7.431 1.965-11.084q.378-1.757.806-3.502.427-1.745.904-3.478.476-1.732 1-3.45.524-1.72 1.097-3.423.572-1.703 1.191-3.39.62-1.686 1.286-3.355.667-1.669 1.38-3.318t1.471-3.278 1.563-3.236 1.652-3.191 1.741-3.144q.893-1.559 1.828-3.093.936-1.534 1.914-3.041.979-1.508 1.999-2.987t2.08-2.93 2.162-2.87q.868-1.122 1.76-2.226.893-1.104 1.809-2.188t1.855-2.148 1.903-2.106q.962-1.044 1.947-2.065.985-1.022 1.992-2.022t2.035-1.978 2.078-1.933 2.12-1.888 2.16-1.841 2.2-1.793 2.24-1.745 2.275-1.696 2.313-1.646 2.347-1.595 2.382-1.544 2.416-1.49 2.446-1.439q1.232-.706 2.478-1.385 1.246-.678 2.507-1.33 1.261-.651 2.536-1.275t2.563-1.22 2.589-1.164q1.3-.567 2.613-1.107 1.313-.539 2.638-1.05 1.324-.51 2.659-.991 1.335-.482 2.68-.934t2.7-.875 2.718-.817 2.736-.756 2.752-.697 2.765-.637A116 116 0 0 1 115.13.563c2.378-.22 4.808-.238 7.173-.545zm-.22 4.429q-2.902.145-5.793.423t-5.769.688q-2.876.41-5.73.95t-5.681 1.209c-25.16 6.042-47.248 20.47-64.331 39.696q-.975 1.116-1.922 2.256-.948 1.14-1.868 2.303t-1.81 2.347-1.755 2.39-1.696 2.432-1.637 2.472q-.803 1.245-1.577 2.51t-1.515 2.548-1.454 2.584q-.712 1.3-1.392 2.618t-1.328 2.65q-.647 1.334-1.263 2.682-.616 1.349-1.199 2.712-.582 1.362-1.132 2.74-.55 1.376-1.067 2.766-.516 1.389-1 2.79-.482 1.402-.931 2.815t-.864 2.836-.795 2.856-.726 2.874-.657 2.891-.586 2.906-.517 2.92q-.24 1.462-.446 2.93-.205 1.469-.375 2.941-.17 1.473-.304 2.95-.134 1.475-.233 2.955t-.162 2.96q-.063 1.481-.09 2.963-.027 1.483-.019 2.965t.053 2.964.124 2.962q.093 1.526.225 3.05.13 1.523.3 3.042.168 1.52.374 3.035.207 1.515.45 3.024t.524 3.013q.28 1.503.597 2.999.318 1.495.672 2.983t.744 2.965q.39 1.478.818 2.946.426 1.469.89 2.926.462 1.457.96 2.902.499 1.446 1.033 2.879.534 1.432 1.103 2.851.57 1.42 1.173 2.824t1.242 2.794 1.31 2.762q.673 1.374 1.379 2.73.705 1.356 1.444 2.695.74 1.338 1.511 2.658.772 1.32 1.576 2.62t1.64 2.581 1.702 2.54 1.765 2.497q.898 1.237 1.826 2.452.928 1.216 1.886 2.407t1.944 2.36 2.002 2.312q1.014 1.143 2.057 2.261 1.044 1.118 2.114 2.21t2.166 2.157 2.22 2.104 2.27 2.048q.944.85 1.906 1.68.961.831 1.94 1.641.978.81 1.973 1.6.996.789 2.008 1.557t2.039 1.516 2.07 1.472 2.102 1.429q1.057.703 2.13 1.384t2.159 1.34 2.186 1.294 2.213 1.248 2.239 1.201 2.263 1.154 2.287 1.107 2.31 1.058 2.331 1.01 2.352.961 2.371.912 2.39.861 2.408.812 2.424.76 2.44.71q1.223.343 2.453.66 1.231.316 2.468.606 1.236.291 2.479.556 1.242.265 2.49.504 1.248.238 2.5.45t2.51.4q1.256.184 2.517.345t2.523.294q1.264.133 2.53.24 1.266.108 2.533.188c4.376.257 8.93.38 13.305.102l.19-.014q1.538-.078 3.073-.196 1.535-.114 3.067-.27 1.532-.154 3.06-.347 1.527-.193 3.05-.423 1.522-.232 3.038-.5 1.516-.269 3.024-.576 1.51-.306 3.01-.65 1.501-.344 2.993-.726 1.491-.38 2.973-.8 1.482-.418 2.952-.873 1.471-.456 2.93-.948t2.905-1.02 2.88-1.091q1.432-.565 2.85-1.164 1.418-.6 2.821-1.235t2.79-1.304 2.755-1.374q1.37-.704 2.72-1.442 1.352-.738 2.684-1.51 1.333-.77 2.645-1.575t2.606-1.642q1.292-.837 2.563-1.705 1.271-.87 2.52-1.77t2.475-1.831 2.428-1.893 2.381-1.953 2.331-2.012 2.28-2.069 2.228-2.125 2.174-2.18q1.074-1.105 2.12-2.234 1.045-1.13 2.062-2.287 1.015-1.147 2.001-2.319t1.942-2.367q.957-1.197 1.884-2.416t1.823-2.461 1.761-2.505q.865-1.264 1.7-2.549.833-1.284 1.635-2.59.801-1.305 1.57-2.629.77-1.324 1.505-2.667.736-1.343 1.439-2.704.702-1.361 1.37-2.739.67-1.378 1.304-2.772t1.233-2.803 1.165-2.833 1.093-2.86 1.022-2.888q.494-1.45.951-2.911t.878-2.934.805-2.955.732-2.974.658-2.992.584-3.006.509-3.02.434-3.032.36-3.042q.16-1.523.282-3.05.123-1.526.208-3.055t.132-3.06.056-3.062-.018-3.063q-.03-1.531-.097-3.061-.065-1.53-.17-3.058-.1-1.497-.236-2.99t-.305-2.984q-.172-1.49-.38-2.976-.207-1.485-.45-2.965-.245-1.48-.524-2.954-.28-1.473-.595-2.94-.316-1.466-.667-2.924t-.738-2.907q-.386-1.45-.808-2.89-.421-1.439-.878-2.867-.456-1.429-.947-2.846-.492-1.418-1.017-2.822t-1.085-2.797-1.153-2.769q-.593-1.378-1.22-2.74-.626-1.363-1.285-2.71-.66-1.347-1.352-2.678t-1.416-2.644-1.48-2.609q-.757-1.296-1.544-2.572t-1.605-2.534q-.818-1.257-1.667-2.494-.848-1.237-1.726-2.453-.879-1.215-1.786-2.41-.908-1.193-1.845-2.365t-1.9-2.32q-.965-1.149-1.957-2.274t-2.012-2.225-2.066-2.175-2.117-2.125q-1.072-1.049-2.168-2.072t-2.219-2.019q-.9-.797-1.814-1.576-.914-.78-1.844-1.541-.93-.762-1.874-1.505t-1.903-1.468-1.931-1.43q-.973-.706-1.959-1.393t-1.985-1.354-2.012-1.315-2.036-1.276-2.061-1.236-2.085-1.196-2.108-1.154-2.13-1.114-2.151-1.071-2.172-1.03-2.19-.987q-1.101-.482-2.21-.944-1.11-.461-2.229-.9-1.118-.44-2.245-.858t-2.261-.813-2.277-.77-2.292-.724-2.305-.68-2.318-.635-2.33-.59q-1.167-.283-2.34-.543t-2.351-.499-2.36-.452-2.37-.406-2.376-.36-2.382-.314-2.389-.268c-5.91-.62-12.137-1.007-18.078-.577z"/><path d="M131.352 248.417c-30.895 1.314-61.437-11.099-84.102-31.79q-1.11-1.01-2.193-2.05-1.084-1.038-2.142-2.103t-2.088-2.157-2.034-2.208-1.978-2.258-1.922-2.306-1.864-2.354-1.805-2.399q-.887-1.21-1.744-2.443-.858-1.232-1.684-2.486-.826-1.253-1.62-2.527-.795-1.273-1.558-2.566t-1.494-2.604q-.73-1.312-1.428-2.641-.697-1.33-1.362-2.675-.664-1.346-1.295-2.709t-1.227-2.74-1.159-2.769-1.09-2.797-1.02-2.824-.948-2.848-.879-2.871q-.42-1.44-.806-2.892-.385-1.45-.734-2.91-.35-1.46-.662-2.929t-.588-2.944-.516-2.957-.441-2.97q-.202-1.487-.368-2.98-.165-1.491-.293-2.987t-.22-2.994q-.09-1.499-.144-2.999c-.225-5.001.044-10.066.532-15.043q.116-1.19.255-2.378.14-1.188.304-2.373.163-1.184.35-2.365.188-1.181.399-2.358.21-1.177.445-2.35.234-1.173.492-2.34.258-1.168.54-2.33.28-1.163.585-2.32t.632-2.306q.327-1.15.678-2.293.35-1.144.724-2.28.373-1.136.77-2.264.395-1.129.814-2.249t.86-2.231.903-2.215q.463-1.102.948-2.195t.992-2.176 1.036-2.156 1.078-2.135 1.121-2.112 1.163-2.09 1.205-2.066 1.246-2.041 1.286-2.016q.654-1.002 1.327-1.99.673-.989 1.366-1.963T31.4 57.16t1.444-1.907 1.481-1.877 1.52-1.848q.768-.916 1.555-1.816t1.592-1.785c5.164-5.633 10.718-11.005 16.759-15.7q1.414-1.088 2.86-2.134t2.922-2.046 2.982-1.96q1.506-.956 3.04-1.868 1.533-.912 3.093-1.778t3.145-1.684q1.586-.82 3.194-1.59 1.61-.772 3.24-1.495 1.632-.723 3.284-1.397 1.652-.673 3.323-1.298 1.671-.624 3.36-1.199 1.69-.574 3.395-1.098 1.706-.523 3.427-.996 1.72-.473 3.454-.894 1.734-.42 3.479-.79t3.501-.686c5.653-.969 11.405-1.382 17.129-1.634q1.463-.039 2.927-.042t2.927.029 2.925.1 2.922.172 2.918.244 2.91.314 2.902.386q1.448.21 2.891.456t2.88.527 2.865.597 2.85.666 2.833.737 2.815.805 2.793.874q1.392.453 2.772.941t2.748 1.01 2.722 1.075 2.696 1.142q1.34.588 2.666 1.208t2.636 1.273 2.605 1.336q1.293.684 2.57 1.4t2.536 1.462 2.5 1.523 2.461 1.585 2.422 1.643 2.382 1.703q1.18.866 2.338 1.76t2.295 1.817 2.25 1.872 2.204 1.927 2.156 1.98q1.079 1.017 2.133 2.06 1.053 1.044 2.08 2.114t2.028 2.163 1.975 2.213 1.92 2.26 1.862 2.307 1.806 2.352q.889 1.188 1.748 2.396.86 1.209 1.689 2.438.828 1.23 1.627 2.479t1.566 2.518q.768 1.269 1.504 2.556.737 1.287 1.441 2.592t1.377 2.626 1.311 2.66q.64 1.338 1.246 2.691.606 1.354 1.18 2.721.572 1.368 1.111 2.75.54 1.38 1.044 2.775.505 1.394.976 2.8.47 1.406.906 2.824t.837 2.845.766 2.865.696 2.882.625 2.9q.294 1.453.553 2.912.259 1.46.482 2.927.222 1.466.409 2.937t.337 2.946.265 2.954.192 2.959.119 2.963q.044 1.49.051 2.982.007 1.491-.022 2.983-.03 1.49-.097 2.98t-.17 2.978q-.105 1.488-.245 2.972-.141 1.485-.319 2.966-.177 1.48-.392 2.957-.214 1.476-.465 2.946-.25 1.47-.538 2.933-.287 1.464-.611 2.92-.323 1.455-.683 2.903t-.756 2.885q-.395 1.438-.826 2.865t-.897 2.845q-.467 1.416-.969 2.82-.501 1.405-1.037 2.797t-1.107 2.77q-.57 1.377-1.175 2.74t-1.243 2.712-1.31 2.68q-.672 1.33-1.376 2.645-.705 1.315-1.442 2.611t-1.506 2.575q-.768 1.278-1.569 2.536t-1.631 2.497q-.832 1.238-1.694 2.455t-1.754 2.412-1.813 2.368-1.871 2.323-1.929 2.275-1.984 2.226-2.04 2.177q-1.004 1.054-2.034 2.083t-2.085 2.032-2.134 1.981-2.181 1.93-2.228 1.875-2.272 1.821-2.316 1.765-2.358 1.709-2.398 1.65-2.439 1.592-2.476 1.533-2.512 1.471-2.548 1.41-2.58 1.349q-1.3.658-2.614 1.285t-2.643 1.22q-1.33.595-2.672 1.157-1.344.562-2.7 1.091-1.357.53-2.725 1.026-1.37.496-2.75.959t-2.772.892q-1.391.429-2.792.824-1.402.395-2.812.756-1.41.362-2.83.689-1.418.326-2.845.618-1.426.293-2.86.55t-2.872.48-2.882.41-2.892.34-2.9.27q-1.45.117-2.904.2-1.454.081-2.91.128m-9.106-237.739c-8.02.496-15.843 1.503-23.631 3.512-22.086 5.694-42.903 18.881-57.97 35.956q-.968 1.08-1.91 2.185-.94 1.104-1.854 2.231-.913 1.128-1.799 2.277t-1.742 2.32-1.684 2.364-1.624 2.403-1.565 2.444-1.505 2.481-1.442 2.518-1.379 2.553-1.315 2.586-1.252 2.618-1.186 2.648q-.576 1.331-1.12 2.677-.543 1.345-1.053 2.703-.51 1.359-.987 2.729-.476 1.37-.918 2.752t-.85 2.774-.781 2.795-.712 2.813-.641 2.83q-.304 1.419-.572 2.845-.268 1.425-.5 2.858-.234 1.431-.43 2.869-.198 1.438-.36 2.88t-.287 2.886-.216 2.894-.144 2.898-.073 2.9 0 2.902q.018 1.451.071 2.901.054 1.45.143 2.898.084 1.216.192 2.43t.242 2.427q.133 1.212.292 2.42.158 1.21.342 2.415.183 1.206.392 2.407.208 1.201.44 2.398.234 1.197.492 2.388.257 1.192.54 2.378.282 1.186.589 2.366.306 1.18.637 2.353.332 1.174.687 2.34t.734 2.325.782 2.31q.404 1.15.83 2.292.427 1.143.877 2.275.45 1.134.924 2.257t.97 2.237q.497 1.113 1.017 2.216t1.061 2.195q.543 1.093 1.107 2.173.565 1.08 1.152 2.15.587 1.068 1.196 2.124.608 1.057 1.239 2.1.63 1.044 1.282 2.074t1.325 2.047q.674 1.016 1.367 2.019.695 1.002 1.409 1.99t1.45 1.961q.734.973 1.489 1.93.754.958 1.529 1.9t1.568 1.868 1.606 1.834c3.593 4.013 7.718 7.795 11.762 11.341 19.802 17.365 47.24 27.927 73.563 28.116 2.31.017 4.671.096 6.974-.071q.23-.016.459-.04 1.442-.08 2.882-.194t2.876-.264q1.436-.149 2.868-.334 1.433-.184 2.86-.404 1.428-.22 2.85-.474 1.421-.254 2.837-.543 1.415-.289 2.822-.612 1.408-.324 2.807-.681t2.79-.75 2.77-.817q1.38-.426 2.75-.885 1.369-.46 2.727-.952 1.357-.493 2.702-1.018 1.346-.526 2.678-1.084 1.332-.559 2.65-1.15t2.62-1.213 2.591-1.277 2.559-1.34 2.525-1.402 2.49-1.463 2.454-1.524 2.416-1.584 2.376-1.641 2.336-1.7 2.293-1.756 2.25-1.812 2.204-1.865 2.159-1.92 2.111-1.971 2.062-2.023 2.012-2.072q.994-1.048 1.961-2.12.647-.72 1.281-1.45.635-.73 1.258-1.471.623-.74 1.233-1.491.611-.75 1.21-1.511.598-.76 1.184-1.53.585-.77 1.159-1.55.573-.779 1.134-1.568.56-.788 1.108-1.586.548-.797 1.083-1.604.535-.806 1.056-1.621.522-.815 1.03-1.638t1.004-1.655q.494-.831.976-1.67.481-.84.948-1.687.468-.847.922-1.702.454-.854.894-1.716t.865-1.73q.426-.87.838-1.745.411-.876.809-1.758.397-.882.78-1.77.383-.89.751-1.784.369-.894.723-1.795t.693-1.807.664-1.817.634-1.828.605-1.839.574-1.847.545-1.858.514-1.865.484-1.874q.234-.938.453-1.88.22-.943.423-1.889.396-2.006.728-4.024.333-2.017.602-4.044.268-2.028.473-4.062t.346-4.075.217-4.083q.077-2.044.09-4.088.011-2.045-.04-4.09-.053-2.044-.169-4.085c-.317-6.53-1.627-13.186-3.207-19.517-6.08-24.345-17.943-43.606-36.522-60.426-4.078-3.691-8.569-6.988-13.17-9.992q-.955-.628-1.922-1.238-.968-.61-1.947-1.201t-1.97-1.162q-.99-.572-1.991-1.123-1.002-.552-2.014-1.084t-2.035-1.044q-1.022-.512-2.055-1.003-1.032-.492-2.074-.963-1.041-.472-2.093-.922-1.05-.45-2.11-.88t-2.128-.84-2.143-.796-2.159-.754-2.173-.712q-1.09-.345-2.187-.668t-2.2-.626-2.212-.581-2.222-.539-2.233-.494-2.242-.45-2.25-.406-2.259-.362-2.264-.317-2.27-.272-2.276-.228-2.28-.183-2.282-.138-2.285-.092-2.286-.048-2.287-.003-2.287.042-2.285.088q-.14.009-.279.021"/><path d="M127.327 18.38c.262-1.246.471-2.687 1.314-3.696.942-1.127 2.317-1.271 3.684-1.381l.154-.005c1.954-.05 5.028.01 6.507 1.48 1.158 1.152 1.127 2.869 1.146 4.384 1.202.15 2.41.268 3.614.4.377-1.274.728-3.043 1.902-3.839 1.234-.836 3.754-.5 5.148-.262 1.51.256 4.044.755 4.942 2.13.762 1.167.442 3.054.125 4.333 1.177.42 2.4.752 3.595 1.12.472-1.328 1.224-2.714 2.54-3.367 1.524-.757 3.987.036 5.489.584 1.42.518 3.585 1.412 4.209 2.893.619 1.471.068 2.98-.484 4.368l3.663 1.574c.698-1.132 1.483-2.238 2.784-2.722 1.383-.515 2.902.11 4.149.725 1.746.86 4.526 2.125 5.12 4.117.413 1.39-.343 2.772-.996 3.949 1.099.802 2.37 1.474 3.519 2.214.181-.288.364-.577.571-.847.615-.805 1.407-1.305 2.428-1.41 2.202-.226 4.898 1.677 6.486 3.023 1.043.884 2.011 2.058 2.081 3.484.07 1.435-.73 2.422-1.61 3.443q1.617 1.473 3.278 2.896c1.047-.916 2.215-1.65 3.662-1.625 1.977.036 3.53 1.64 4.77 3.004 1.223 1.346 2.523 3.049 2.379 4.974-.103 1.355-1.095 2.02-2.044 2.85.736.965 1.589 1.852 2.401 2.755 1.287-.596 2.405-1.278 3.856-.843 2.184.654 4.135 3.514 5.178 5.46.647 1.208 1.203 2.807.752 4.161-.371 1.117-1.48 1.626-2.441 2.144.67 1.225 1.44 2.416 2.163 3.612 1.032-.423 2.017-.798 3.156-.608 1.23.206 2.003.811 2.702 1.814 1.188 1.707 3.304 5.667 2.824 7.771-.302 1.323-1.562 2.037-2.608 2.72q.44 1.868 1.142 3.655c1.205-.142 2.326-.324 3.49.16 1.185.492 1.77 1.448 2.245 2.592.83 2.002 1.998 6.018 1.035 8.112-.549 1.192-1.996 1.628-3.121 2.06q.464 2.008.827 4.036c1.127-.038 2.261-.07 3.304.438.985.48 1.535 1.189 1.894 2.204.732 2.065 1.411 6.886.407 8.847-.653 1.274-2.277 1.479-3.516 1.868a15 15 0 0 0 .131 4.206c.88.144 1.841.266 2.63.703 1.002.555 1.44 1.408 1.72 2.488.53 2.047.506 6.79-.625 8.603-.809 1.296-2.523 1.517-3.89 1.79-.27 1.34-.27 2.718-.294 4.08.925.293 1.78.676 2.478 1.372.862.859 1.095 1.874 1.101 3.057.01 2.008-.72 6.374-2.257 7.808-1.124 1.047-2.776.898-4.189.877q-.382 1.599-.827 3.181c.75.546 1.504 1.087 2.043 1.858.832 1.191.962 2.489.718 3.889-.344 1.969-1.754 5.819-3.432 6.94-1.204.805-2.767.437-4.08.164l-1.627 3.631c.32.281.644.566.91.899q.091.115.176.236t.164.244.151.252.138.26.125.266q.06.134.112.272.052.137.097.277t.083.282.069.286.054.289.04.291q.017.147.026.293.008.147.01.294.001.147-.005.294t-.02.293-.034.292c-.324 2.217-2.623 6.089-4.447 7.35-1.399.966-2.992.685-4.556.424-.582 1.034-1.243 2.031-1.872 3.038.795.633 1.433 1.218 1.762 2.22.362 1.104.142 2.178-.356 3.2-1.114 2.29-3.99 5.501-6.498 6.262-1.533.465-2.699-.174-4.004-.892-.875.834-1.662 1.788-2.472 2.688.706.793 1.196 1.603 1.299 2.681.126 1.327-.465 2.545-1.302 3.536-1.46 1.725-3.964 3.75-6.31 3.885-1.436.083-2.363-.504-3.405-1.39l-2.692 1.926c.546 1.068 1.034 2.54.802 3.74-.333 1.718-2.017 3.159-3.4 4.1-1.64 1.114-3.917 2.53-5.987 2.094-1.363-.288-2.095-1.166-2.813-2.27-.994.62-2.038 1.165-3.066 1.727.348 1.319.621 2.69.117 4.014-.655 1.718-2.602 2.746-4.174 3.486-1.584.747-3.681 1.617-5.422.943-1.272-.492-1.83-1.695-2.364-2.85-1.2.278-2.401.798-3.566 1.208.07 1.189.194 2.426-.243 3.563-.506 1.317-1.787 2.107-3.022 2.657-1.853.825-4.529 1.571-6.489.762-1.486-.612-1.965-2.09-2.547-3.451-1.22.21-2.434.489-3.647.743.029 1.308.076 2.788-.704 3.912-1.023 1.472-3.078 2.162-4.77 2.485-1.76.335-3.946.4-5.466-.697-1.251-.903-1.532-2.21-1.766-3.638-1.272.009-2.518.187-3.774.369a9 9 0 0 1-.237 1.512c-.281 1.08-1.044 1.99-2.013 2.524-1.92 1.06-5.004 1.03-7.075.459-2.221-.613-2.797-1.421-3.331-3.52-.078-.304-.16-.764-.359-1.014-.267-.337-.62-.305-1.016-.37-.998-.115-1.887-.16-2.877.045-.2.798-.406 1.647-.897 2.32-.652.895-1.726 1.25-2.786 1.375-2.138.25-5.719-.234-7.402-1.668-1.225-1.043-1.261-3.054-1.381-4.532q-2.01-.513-4.014-1.048c-.371 1.148-.744 2.269-1.85 2.917-1.556.91-4.399.095-5.993-.4-1.482-.459-3.115-1.151-3.833-2.627-.614-1.264-.337-2.608.09-3.876-1.258-.78-2.565-1.528-3.914-2.136-.44.795-.904 1.542-1.638 2.102a3.83 3.83 0 0 1-2.949.767c-2.139-.31-5.26-1.8-6.525-3.601-1.027-1.463-.25-3.194.049-4.77a45 45 0 0 1-3.074-2.193c-.607.85-1.301 1.75-2.285 2.176-1.1.478-2.166.214-3.226-.24-2.004-.861-5.006-2.892-5.766-5.04-.486-1.377.323-2.913.885-4.144-.857-.785-1.763-1.51-2.665-2.243-.688.72-1.424 1.254-2.426 1.417-1.312.215-2.541-.375-3.58-1.123-1.476-1.062-3.95-3.246-4.184-5.165-.174-1.416.849-2.77 1.691-3.807-.873-.935-1.733-1.879-2.684-2.734-.934.583-2.067 1.061-3.187 1.007-1.568-.076-2.865-1.368-3.84-2.488-1.1-1.261-2.578-3.178-2.394-4.948.15-1.443 1.3-2.351 2.366-3.17q-1.145-1.746-2.268-3.506c-1.015.584-2.016 1.043-3.22.809-1.453-.283-2.475-1.512-3.247-2.687-1.064-1.62-2.729-4.651-2.229-6.678.332-1.344 1.609-2.111 2.69-2.812-.537-1.222-1.024-2.463-1.587-3.674-1.193.429-2.54.631-3.751.152-1.618-.64-2.497-2.33-3.113-3.857-.698-1.73-1.7-4.734-.846-6.54.587-1.24 2.163-1.686 3.35-2.106-.456-1.219-.743-2.489-1.056-3.75-1.23.137-2.661.381-3.786-.28-1.46-.857-2.172-3.409-2.538-4.953-.362-1.524-.969-4.257-.03-5.659.831-1.244 2.44-1.554 3.798-1.85q-.264-2.005-.467-4.018c-1.197-.013-2.748-.025-3.71-.828-1.343-1.123-1.627-3.292-1.72-4.937-.091-1.63-.118-4.032 1.086-5.292.97-1.014 2.524-1.036 3.828-1.102q.128-2.06.205-4.124c-1.115-.27-2.35-.463-3.213-1.289-1.1-1.051-1.285-3.082-1.262-4.531.026-1.664.255-4.338 1.573-5.509 1.1-.978 2.772-.839 4.131-.803.324-1.296.57-2.624.856-3.928-.65-.187-1.337-.363-1.962-.619-.764-.311-1.365-.765-1.693-1.54-.873-2.067.05-5.332.832-7.317.544-1.384 1.163-2.447 2.568-3.064 1.172.032 2.284.346 3.402.675.398-1.385.923-2.71 1.452-4.048-1.236-.584-2.328-1.15-2.807-2.534-.64-1.855.06-4.29.893-5.987.618-1.262 1.835-3.402 3.264-3.818 1.316-.383 2.727.544 3.832 1.132.79-1.32 1.429-2.779 2.11-4.16-.63-.387-1.315-.764-1.862-1.266-.6-.551-.874-1.186-.905-1.998-.089-2.341 1.662-5.359 3.196-7.036.892-.975 2.088-1.876 3.465-1.892 1.296-.014 2.039.64 2.894 1.503.974-1.035 1.824-2.295 2.724-3.406-.381-.227-.777-.455-1.111-.751q-.121-.11-.232-.23-.11-.122-.207-.253-.098-.13-.182-.27-.085-.14-.155-.288t-.126-.302-.096-.312-.065-.32-.034-.325c-.12-2.111 1.53-4.311 2.9-5.779.987-1.059 2.425-2.297 3.949-2.303 1.352-.004 2.383 1.058 3.293 1.925a46 46 0 0 1 3.242-2.921c-.872-1.083-1.831-2.26-1.71-3.742.148-1.797 1.495-3.39 2.834-4.493 1.319-1.086 3.319-2.286 5.093-2.05 1.304.172 2.069 1.293 2.797 2.267 1.03-.795 2.148-1.495 3.227-2.223q-.106-.163-.203-.328c-.656-1.126-1.08-2.36-.704-3.659.566-1.954 2.798-3.548 4.503-4.483 1.329-.729 3.118-1.315 4.613-.834 1.141.368 1.791 1.701 2.312 2.689 1.105-.666 2.248-1.268 3.38-1.887-.154-.328-.316-.661-.441-1.001-.392-1.065-.465-2.248.029-3.292.837-1.767 3.109-2.746 4.862-3.338 1.514-.512 3.621-1.018 5.11-.225 1.141.609 1.58 1.967 1.935 3.123q1.823-.603 3.639-1.229c-.346-1.404-.561-3.069.129-4.403.663-1.283 2.25-2.003 3.566-2.437 1.795-.592 4.68-1.241 6.436-.3 1.287.689 1.656 2.589 2.064 3.887q1.8-.33 3.593-.695c-.008-1.346.112-3.024.91-4.149.712-1.002 2.163-1.386 3.318-1.606 1.945-.372 5.511-.734 7.207.515 1.137.838 1.241 2.665 1.433 3.94q1.988-.09 3.978-.096m13.299 20.525.073.062c.61.686 1.357 1.302 2.004 1.962q2.246 2.302 4.38 4.708c3.881 4.416 6.825 9.09 9.891 14.064.27-.312.518-.642.77-.968-.351-.412-.896-.931-.86-1.501.449.03.76.456 1.045.77.057-.291.111-.568.014-.859-.116-.35-.362-.507-.662-.679-.188-.108-.418-.211-.58-.356a.9.9 0 0 1-.326-.676l.137-.045c.382.15.742.352 1.156.244.113-.302.178-.422.038-.742-.39-.893-1.851-1.51-2.68-1.95.698.034 1.388.142 2.08.237-2.26-4.479-11.73-12.526-16.407-14.209zm-4.35 2.24.062.041c.621 1.082 1.729 2.107 2.52 3.093 1.669 2.078 3.31 4.254 4.74 6.503a81 81 0 0 1 3.934 6.952c.984 1.956 1.835 4.002 3.095 5.8l1.398-.588c-.3-.47-1.108-1.513-1.07-2.037l.306.111c.313.425.617.979.964 1.361.22.242.388.298.702.328.223-.14.299-.202.418-.449.127-.262.052-.453-.047-.713-.451-1.182-1.348-2.307-2.004-3.391-3.619-5.982-6.14-9.795-11.508-14.454-1.025-.89-2.192-2-3.448-2.516zm-28.723.448c-4.856 1.924-10.927 8.013-12.957 12.777-.392.921-.595 1.834-.696 2.829 2.856-4.157 5.578-8.24 9.18-11.813 1.391-1.38 3.175-2.47 4.473-3.793l.072-.066zm40.448.806.078.047c.799.978 2.001 1.834 2.95 2.675 1.653 1.465 3.281 3.001 4.774 4.63 3.248 3.544 5.67 7.54 6.875 12.226.287 1.116.586 2.39.504 3.55-.063.902-.567 1.647-1.237 2.226-6.492 5.61-27.838 3.006-36.282 3.286-7.645.254-15.406 1.549-23.057 1.008-3.243-.23-7.693-.939-9.91-3.61-1.825-2.196-1.351-5.306-1.156-7.939l-.578 2.016c-.293 1.782-.424 3.572.309 5.273.847 1.966 2.384 3.037 4.308 3.79 8.318 3.256 21.352.69 30.315.528q5.325-.054 10.649.11c7.255.2 16.72.917 23.458-2.079 1.565-.695 3.312-1.82 3.913-3.504.899-2.523-.966-7.438-2.041-9.728-2.352-5.009-6.226-9.056-10.572-12.39-.97-.744-2.065-1.648-3.221-2.068zM94.148 58.17c-.046.644-.087 1.224.044 1.864-.145.489-.06 1.07.152 1.529l.13.041c.565-.776 1.177-1.6 1.91-2.226l.183-.017-.044-.078c-.007.045-.008.091-.02.135-.33 1.258-2.365 2.119-1.703 3.49.092.191.198.376.3.562l.101.186.063.11c.293-.536.559-1.119.974-1.572l.266.041c-.142.156-.186.135-.176.356.19-.225.14-.102.176-.356l.31.063.089.151c-.237.524-.989.972-1.427 1.346l.08.16c.249.521.483.88.887 1.295.835-1.684 1.283-3.556 2.005-5.293 1.302-3.131 3.013-6.256 4.815-9.126 1.055-1.68 2.368-3.208 3.611-4.751 1.742-2.161 3.452-4.307 5.048-6.58-5.17 2.874-9.865 7.353-13.349 12.125-1.55 2.123-2.925 4.384-4.424 6.545m44.692 18.262c-.62-.02-1.527-.144-2.095.094.081.31.223.309.483.475.36.679 1.56 3.234 2.15 3.561l.189-.083c.068-.267.11-.502.123-.776.427.324.248 1.705.348 2.264.193.261.172.257.491.314.66-.705.73-2.925.763-3.875-.042-.534-.281-.617-.446-1.065-.06-.163-.102-.335-.178-.492-.147-.312-.34-.622-.67-.753-.192.126-.235.12-.337.344-.399.871-.294 2.38.03 3.263-.119-.087-.255-.153-.355-.26-.074-.079-.422-2.66-.496-3.011m-24.209 9.674c.288-.505.33-.757.172-1.315-.034-.124-.074-.246-.111-.37l-.227-.758c-.47.394-.828.68-1.096 1.244-.102.217-.214.43-.318.647l-.359-.17c-1.376.529-.226 1.61-2.82 2.09.31.937.677 2.519 1.625 3.003.432.22.838.204 1.289.049.814-.28 2.671-1.287 3.301-1.863.125-.281.093-.528.076-.826a3.5 3.5 0 0 1 .527-.147c.25-.056.463-.097.627-.316.496-.662.93-1.83 1.235-2.6l-.056-.143-.343-.067.028-.165c.438-.264.576-.305.706-.831.077-.317.127-.647.183-.968a2.4 2.4 0 0 0-.085-.437c-.196-.701.402-1.432-.022-2.254-.448-.865.755-2.48-.319-3.288-.321.022-.304.018-.525.253-.242.726-.133 1.475-.26 2.224a.73.73 0 0 1-.338-.54c-.09-.577.166-1.373-.171-1.874-.308-.126-.322-.179-.627-.062-.541.865-.307 2.506-.195 3.498l-.428-.017c-.167.285-.35.816-.296 1.154.03.188.179.43.264.595-.43.07-.456-.312-.798.18-.456.654-.548 1.391-.392 2.162.162.801.513 1.61.803 2.374l-.142.152c-.22-.21-.476-.736-.772-.681-.05.009-.09.044-.136.067m14.521 15.814c.384.111.575.232.96.016.296-.165.483-.475.543-.802.064-.35.031-.724-.007-1.074.18-.125.337-.209.535-.301.848-1.096 1.105-4.195.951-5.531-.048-.42-.578-.64-.416-1.026.152-.36.31-.648.14-1.04-.073-.169-.223-.337-.328-.49-.27-.393-.19-1.245-.265-1.733-.293-1.912-1.017-7.03-2.303-8.223-.33-.026-.42.115-.654.321-.264.232-.48.531-.837.603.001-.272.129-.416.33-.594.067-.06.237-.178.308-.23.331-.244.552-.447.595-.886.068-.689-.41-1.435-.886-1.888-.3-.286-.574-.427-.998-.428-.265.197-.301.236-.365.583-.114.61.263 1.76.502 2.334l-.099.173c-.14.255-.094.15-.163.443.096.307.183.617.29.92.31.888-.043 2.27.06 3.253.108 1.023.438 2.061.68 3.059.116.475.465 1.517.265 1.971-.292.661-.403.987-.186 1.692.307.996-.547 2.812-1.042 3.725-.429.792-.888 1.51-1.549 2.132-1.006.949-4.27 2.59-4.03 4.131.242.358.53.44.91.6.223.096.441.14.583.342.355.505.565.743 1.2.84.5.077.656.026 1.054-.282q.14-.11.276-.223c.615.29.706.284 1.352.045.8-.295 2.54-.931 2.89-1.743.071-.167.08-.254-.029-.413-.05-.075-.198-.21-.267-.276m-6.337 32.54c.083-.743.024-1.486.126-2.228.271-.23.606-.489.748-.823.238-.558.162-1.474.202-2.078.066-1.022.212-2.043.234-3.066.052-2.326-.065-4.651-.006-6.976.015-.607.248-1.291.203-1.862-.05-.651-.214-1.398-.522-1.973l-.165-.05c-.153.236-.126.154-.196.406-.139.497-.402 1.403-.133 1.853l.312-.037c-1.254 1.362-.233 1.416-.541 2.619-.17.132-.324.23-.426.427-.087.167.02.338.069.51.172.188.311.317.542.423l.202.09-.013.102c-.651.683-.827.965-.951 1.901.412.856.424 1.327.297 2.26l-.133.011.082-.078c-.657-1.486-.805-3.692-.346-5.252.08-.27.131-.326.072-.604q-.072.07-.141.143c-.455.482-.859 1.31-1.037 1.937-.464 1.635-.41 3.841-.668 5.596-.262 1.782-.84 3.588-.978 5.368-.133 1.73-.067 3.528-.013 5.262l.296 1.763q.193-.178.383-.357c.208-.192.402-.362.521-.625.474-1.045 1.763-3.55 1.39-4.611-.318-.238-.561-.204-.949-.208l-.195-.001c-.052-.227.011-.24.12-.435.568.04 1.102.357 1.614.594m-4.228-16.358.217-.111q0-.404-.012-.808c.301-.031.282-.032.524.152.075.417-.01.754-.097 1.16.119.308.2.407.473.593.334-.021.377-.078.65-.282.287-.528.2-.922.113-1.493-.045-.297-.125-.537.052-.805.445-.67 1.065-.946.983-1.864-.02-.22-.248-.762-.208-.926.041-.17.364-.517.467-.687.336-.553.358-1.567.395-2.204-.453.351-.899.765-1.443.957l-.17-.052-.11-.605c.233-.026.328.014.546.087.194-.225.158-.285.137-.571-.058-.787-.42-1.645-.379-2.423.031-.595 1.017-.827.156-1.524a1.8 1.8 0 0 0-.629-.341c-.376.333-.858 4.035-1.022 4.831-.901 4.124-3.731 7.886-3.872 12.19-.043 1.302.239 2.528.358 3.812.916-.993 1.422-2.34 2.202-3.464.526-.758.009-1.265.907-2.102.598-.558.556-1.188.638-1.956-.236-.582-.41-1.12-.876-1.564m9.702 6.018c.183-.39.383-.66.67-.98-.036-.375-.305-3.911-.316-3.925-.373.313-.74.646-1.143.921.419-.54.873-1.063 1.097-1.716l.055-.156c.214-.668.156-1.47.159-2.168-.734.61-1.334 1.294-1.952 2.02-.14 1.173-.285 2.389-.229 3.57.306-.32.566-.552.951-.774l.138.094c-.224.689-.627 1.144-1.078 1.703-.02.62-.145 1.423.024 2.016.412.047.728-.204 1.103-.031-.141.451-.76.845-1.14 1.121-.013.556-.144 1.434.248 1.877.136.154.218.1.406.098.897-.566 1.225-1.455 1.94-2.165-.051-.537-.03-1.208-.341-1.661-.294-.047-.334.027-.592.156m5.572 9.253c-.58-.145-.875-.681-1.306-1.059l-.086.149-.156-.283c-.197.92 2.236 9.61 2.72 10.42.067.114.168.211.258.305.19.2.49.46.566.732.126.451-.225 1.544.383 1.607l.122-.056c.304-.139.55-.243.888-.279l.303.144c-.087.34-.438.297-.55.527-.154.318.333 2.45.52 2.744.024.036.055.067.083.1.256-.091.263-.162.375-.402 1.849-3.976-.826-8.601-2.143-12.313-.49-1.38-.775-2.882-1.07-4.314-.412-1.683-1.276-3.997-.961-5.696.04-.22-.052-.28-.182-.449-.52-.676.07-2.59-1.074-2.825.01.496.276 1.161.121 1.606l-.246.124-.111-.2c-.163-.288-.365-.62-.603-.85l.185.951.195.12-.157.085c-.044-.067-.083-.138-.132-.202-.038-.05-.085-.09-.127-.136-.042.372-.077.655.036 1.022h.127l.178-.54.156-.03c.322.503.626 1.026 1.03 1.47-.07.403-.288.567-.551.873-.13-.13-.082-.047-.121-.243-.076-.381-.13-.651-.36-.966l-.19-.036c-.2.346-.129.711-.026 1.08.287 1.029 1.396 1.438 1.201 2.617a8 8 0 0 1-.67-1.03c-.275.267-.26.728-.265 1.103-.004.374-.021.752.112 1.107l.186.081a4.4 4.4 0 0 0 .633-.498c.27.119.405.234.632.42q-.029.076-.054.154c-.095.304-.037.77-.3.933-.318-.374-.518-.849-.993-.975-.189.548-.294 1-.053 1.554.646.478 1.386.044 1.931.433-.267.355-.404.471-.454.92m-12.663 18.658-.569-.12c-.339.291-.39.78-.418 1.202-.06.93.208 3.753.904 4.389.023.021.055.032.083.047.215.838.642 1.505 1.122 2.21.11-1.423-.273-3.757.095-5.01.079-.271.06-.149.096-.412.03-.214-.112-.292-.239-.454.34-.01.411.015.681-.181.15-.3.074-.572.031-.89-.048-.362.369-.914.47-1.298.115-.426.076-.951.077-1.392l-.105.088c.251-.371.68-.902.668-1.356-.27-.1-.159-.09-.444-.075q-.1.006-.199.016l-.182-.163.068-.187c.123.013.348.038.465.035.302-.008.534-.121.688-.392.255-.446.055-1.104-.032-1.584.257-.477.538-.951.55-1.504.027-1.229.23-2.692-.01-3.89l-.146-.067c-.918.55-1.972 1.91-2.504 2.857-.212.376-.545.982-.418 1.42q.233-.074.47-.14l.005.183c.043 1.842-.267.551-.746 1.26-.472.7-1.107 3.902-.989 4.687.059.393.249.48.528.72m7.62 26.708.714.415.024.114c-.248.1-.395.148-.55.373.002 1.73.733 4.425 1.633 5.922.639 1.48 1.437 3.038 2.358 4.361.015-.709.134-1.64-.08-2.312l-.163-.065c-.206-.086-.135-.035-.261-.17.34-.347.407-.589.405-1.076a3.7 3.7 0 0 0-.175-1.146l-.17-.156a1.8 1.8 0 0 0-.342.528l-.236.044c-.28.054-.538.135-.807.224l-.03-.113c.113-.12.2-.271.293-.408.11-.028.177-.043.288-.086.533-.208.672-.651.907-1.13-.685-1.543-.595-4.51-1.442-5.668l-.175-.025-.216.247c-.006.456.004.821-.33 1.16-.312-.131-.32-.22-.495-.517.352-.66.707-1.39.74-2.148l-.21-.191-.8.17-.162-.113c.057-.437.38-.327.551-.745-.362-.768-.035-1.467-.292-2.205h-.216c-.031.03-.066.059-.094.093-.746.937-.679 3.466-.666 4.624m-1.447-156.43c-28.574.607-55.001 11.799-74.827 32.476q-.671.693-1.33 1.398t-1.305 1.422-1.279 1.445-1.252 1.468-1.225 1.49q-.606.752-1.199 1.514-.592.761-1.17 1.534-.579.772-1.143 1.555t-1.114 1.576-1.086 1.595-1.056 1.615-1.027 1.635q-.506.821-.997 1.652-.49.83-.967 1.67-.475.84-.936 1.687-.46.848-.906 1.704-.445.857-.874 1.72-.43.865-.843 1.737-.414.871-.812 1.75-.398.88-.78 1.766-.381.886-.747 1.779t-.715 1.792q-.35.9-.683 1.805-.333.906-.65 1.818-.316.911-.616 1.828-.3.918-.583 1.84-.284.922-.55 1.85-.267.927-.516 1.86-.25.931-.482 1.868-.233.936-.449 1.877-.215.94-.414 1.885-.198.944-.38 1.892c.62-.109 1.307-.188 1.896-.41 1.707-.643 3.042-1.882 4.938-2.032 3.972-.313 6.39 2.897 10.787 2.496 3.3-.3 5.718-2.763 9.154-2.503 3.42.26 5.384 2.728 9.321 2.554 3.387-.15 5.912-2.736 9.336-2.593 3.19.134 5.546 2.529 8.81 2.495 3.425-.036 5.998-2.581 9.36-2.5 3.388.08 5.276 2.44 8.994 2.334.788-3.635 1.45-7.38 1.436-11.11-.02-5.183-1.89-12.783-3.186-17.957-.465-1.85-.888-3.779-1.516-5.58-2.312-1.19-4.11-3.016-4.897-5.528-1.483-4.733.695-10.063 2.916-14.216 4.465-8.348 12.903-14.752 21.928-17.475 4.403-1.328 9.103-2.044 13.703-1.797 12.531.535 22.567 3.978 31.204 13.372 3.708 4.033 7.974 11.578 7.699 17.162-.101 2.048-1.276 3.869-2.797 5.176-.858.738-1.83 1.295-2.834 1.808-.687 3.075-1.62 6.09-2.3 9.168-1.196 5.426-1.599 11.082-1.458 16.632.043 1.672-.095 3.492.221 5.13.351 1.811 1.23 3.72 1.857 5.462 3.239-.066 5.485-2.483 8.72-2.527 3.241-.044 5.607 2.409 8.786 2.515 3.508.118 5.297-2.127 8.399-2.457 2.923-.31 4.536 1.062 7.13 1.832 1.083.322 2.135.397 3.259.39 1.375-.01 2.737-.098 4.045-.554 2.162-.753 3.317-1.99 5.817-1.999 3.148-.01 5.188 2.207 8.4 2.472 1.89.157 4.212.099 5.997-.61 1.962-.78 3.068-2.343 5.41-2.232 1.976.093 4.74 2.267 6.074 1.727.079-1.646-1.476-6.81-1.98-8.591-4.864-17.189-12.527-30.2-24.52-43.408-4.01-4.417-8.446-8.315-13.193-11.913q-.785-.598-1.581-1.181t-1.603-1.152-1.624-1.12-1.646-1.09-1.666-1.058-1.685-1.026-1.706-.994-1.723-.961-1.742-.928-1.759-.895q-.883-.439-1.776-.861-.892-.422-1.791-.827-.9-.405-1.807-.793-.908-.388-1.822-.759-.915-.37-1.836-.724-.922-.352-1.85-.688t-1.862-.653q-.934-.318-1.874-.618t-1.886-.582-1.897-.546q-.95-.264-1.906-.51-.956-.245-1.916-.473t-1.924-.437-1.933-.4q-.968-.19-1.94-.363-.971-.172-1.946-.326t-1.953-.29-1.957-.251-1.962-.215-1.965-.177-1.969-.14-1.97-.102q-2.761-.138-5.525-.097m-2.861 14.603c.683 1.394 1.504 2.806 2.01 4.273.737 2.133 1.12 4.421 1.472 6.647.753 4.755 1.077 9.468 1.683 14.22.076.59.053 1.934.716 2.158.273.092.278.032.5-.078.414-.733.29-1.656.274-2.472.256.831.39 1.579.429 2.453l1.626.162c.005-.526 0-.968.197-1.466l.119.09c.056.477.022.899-.03 1.375.43.057.887.154 1.32.142l.155-.129-.024-.12a2.7 2.7 0 0 1-.011-1.059l.165-.162c.378.448.323 1.035.35 1.601l1.351.162c.081-.569.068-1.324.496-1.74.19.617.198 1.233.225 1.872l1.584.16c.007-.456-.028-.95.132-1.38.328.434.527 1.391 1.117 1.492.239.041.32.025.536-.06.215-.832-.326-2.332-.57-3.136q-.622-1.995-1.36-3.951t-1.592-3.864-1.817-3.763q-.965-1.854-2.038-3.648c-1.188-2.015-5.11-9.236-6.949-9.731-.646-.175-1.402-.08-2.066-.048m-1.976.079c-.478 1.647-.726 3.349-1.2 4.992-1.342 4.647-6.959 20.669-5.35 24.39l.178.115c.417-.203.577-.447.72-.884.19-.58.168-1.072.474-1.63l.138-.07c-.066.693-.283 1.379-.18 2.073l.134.158c.162-.025.412.003.499-.154.12-.216.091-.483.092-.724l.14-.114c.108.241.178.465.239.723l.173.08c.273-.128.694-.22.78-.545.114-.435-.02-.806.233-1.222l.165.071.031.2c.069.42.114.72.431 1.019.303.049.517.014.779-.164.094-.064.14-.133.208-.218l-.011-.203c.065-.428.098-.845.308-1.231.287.241.325.988.385 1.363.436-.094 1.072-.148 1.423-.43.007-.392-.061-.981.187-1.293l.27.089c.103.28.042.472-.01.756.2.246.263.284.603.315.177.017.4-.043.576-.07l.504-.073c-.056-.48-.14-.918.004-1.389l.162-.038c.253.426.252.895.294 1.377.474-.026.941 0 1.345-.278.111-.298.145-.542.176-.855.19-.19.183-.247.46-.286.252.434.04.988.293 1.374.261-.043.27-.048.453-.238.588-2.797-1.501-17.047-2.286-20.218-.51-2.058-1.278-4.524-2.445-6.307a2 2 0 0 0-.412-.456 6 6 0 0 0-.963-.005m5.413.01c2.013 1.661 3.221 3.982 4.548 6.187 3.56 5.917 6.725 11.964 8.618 18.632.184.647.653 3.077 1.268 3.338.076.032.162.03.243.044.343-.276.372-.748.416-1.16q.015-.143.026-.286l.156-.098c.651.55.013 1.527 1.315 1.367.254-.031.446-.107.633-.28l.174-1.392-.008.133.028-.087.183.049-.173.019.001.07.236.089c.093.404.148.8.194 1.211.6-.12 1.254-.202 1.828-.414-.1-.507-.234-.968-.108-1.481l.104-.084c.293.387.619 1.044 1.052 1.253.38-.067.598-.154.931-.349.02-.45-1.285-2.561-1.588-3.127-3.516-6.546-7.072-13.455-12.162-18.95-1.811-1.955-4.803-4.563-7.593-4.676q-.161-.006-.322-.008m-6.989.16q-1.314.239-2.62.52c-1.79 2.406-3.337 4.956-4.868 7.533-3.682 6.198-6.225 11.131-7.121 18.435-.133 1.075-.463 2.407-.295 3.477.03.197.073.33.201.486.261.067.363.143.623.052.207-1.528.377-3.009 1.56-4.16-.503 1.417-1.273 2.353-.88 3.93l.107.052c.18-1.105.91-4.695 1.52-5.356l.236-.077.099.135c-.436 1.563-1.83 3.58-1.527 5.22.166.188.119.213.39.231.182.013.33.013.508-.008.325-.974.341-2.229 1.246-2.836.015.183.01.341-.013.523l.232-.025q.013-.06.029-.122l.043-.159c.013-.046.019-.094.037-.137.1-.24.369-.418.565-.579l.036.116-.719 1.246c.595-.52 1.183-1.047 1.801-1.538-.413.741-.57 1.219-1.455 1.461-.241.066-.48.125-.718.202l-.271 1.528.123.151c.315-.036.53-.056.743-.315.41-.496.782-1.57 1.383-1.79l.119.12c-.403.491-1.02 1.049-.978 1.715.311.125.408.094.746.047l.166-.179-.085-.523.144-.141.142.061c0 .364-.017.43.177.73.237.04.192.08.374-.042.709-.477.663-1.904 1.288-2.134.214.124.323.135.433.365l-.542.156c-.105.404-.141.788.094 1.16.097.151.096.13.241.216.259-.012.253-.095.422-.278.285-.919.049-2.314.085-3.301.04-1.11.214-2.285.47-3.362.481-2.021 1.145-4.008 1.7-6.01.598-2.157 1.1-4.343 1.744-6.486.986-3.288 2.019-6.45 2.712-9.821.055-.267.082-.234-.025-.502-.117.003-.309-.009-.422.013m10.78.138.084.068c1.686 1.319 3.74 2.291 5.498 3.605 6.193 4.63 9.274 8.121 13.424 14.646 1.253 1.971 2.513 3.876 3.449 6.026l1.027-.593c-.511-.808-.883-1.376-.877-2.369.042.029.088.052.126.085.523.443.769 1.338 1.239 1.89l.251-.118c.122-.343.084-.53-.073-.86-3.306-6.949-11.181-16.107-16.943-21.284-2.404-.54-4.73-1.052-7.206-1.096m-14.995.727c-1.078.27-2.611.487-3.485 1.19-1.078.867-1.765 2.361-2.608 3.457-2.428 3.158-5.177 6.058-7.237 9.491-2.284 3.808-5.468 9.458-5.74 13.899.721.472 1.517.755 2.316 1.066.35-.496.683-1.022 1.096-1.467.016.366-.212.667-.412.968l-.128.428c.245.24.28.339.615.376.45-.348.485-1.047.897-1.323.057.458-.154.976.084 1.354.357.114.498.165.87.046.492-.44.255-1.284.65-1.585.201.181.219.189.225.474.009.406-.184.857-.009 1.221.319.097.41.142.73.07.116-.123.204-.23.244-.4.137-.598.037-1.242.14-1.852.171-1.03.463-2.043.674-3.066.29-1.397.478-2.805.84-4.188 1.377-5.274 4.21-10.047 6.974-14.704.438-.738 3.424-5.122 3.454-5.438zM158.059 73.5A23 23 0 0 1 154 74.702l-.037.169c-.4 1.708-1.377 3.218-1.768 4.936-1.085 4.774.654 11.82 2.1 16.444l.653 2.22c.03-7.091.551-13.927 2.338-20.812.21-.81 1.15-3.55.888-4.145zm-61.564 1.302c.283 1.344 1.985 9.85 2.47 10.441l.083-.399c.225-2.996.911-6.376.456-9.348-1.014-.198-2.021-.386-3.009-.694m54.802-.014c-.326.32-.443.475-.45.95-.002.15.054.31.095.453l.198.112c.182-.428.449-.895.415-1.368zm-49.675.853c.837 4.988 2.421 9.64 3.741 14.506 1.47 5.418 2.46 10.865 2.797 16.473 1.714.271 3.226.918 4.792 1.643-.266-4.711-1.379-9.748-2.886-14.222-.77-2.285-1.82-4.468-2.67-6.724-1.409-3.738-2.386-7.491-3.09-11.417-.895-.077-1.795-.139-2.684-.26m5.351.448c-.437 2.485 1.222 7.102 2.18 9.424a29 29 0 0 0 2.016-2.284c1.382-1.828 1.758-3.588 2.157-5.803a80 80 0 0 1-6.353-1.337m40.012.462-2.38.225c-.216 1.39-.416 2.795-.776 4.157-.402 1.516-.998 3.06-1.233 4.61-.143.947.062 1.997.165 2.941.212 1.94.389 4.182-.027 6.097-.249 1.141-1.514 3.068-1.177 4.116.038.116.124.243.194.343.103.148.222.28.345.413.42-.266.457-.535.565-1.009.329-1.443.538-2.918.958-4.338.948-3.211 5.274-14.596 4.265-17.5-.322-.158-.56-.104-.899-.055m-25.647.507c.269.477.329.719.284 1.264-.016.197.008.329.073.515l.217-.135.142-.086c.064.68-.596 1.591-.304 3.062l.115.035.215-.168c-.033.4-.26.43-.348.748-.175.632.092 1.73.09 2.405-.002.714-.319 1.352-.32 2.098l.553.921a7 7 0 0 1-.617-.174c-.133.397-.356.971-.14 1.379.156.294.553.563.808.775.526-1.157.853-2.247 1.185-3.465.16.487.429 1.057.329 1.571q-.046.058-.09.117c-.378.5-.572.905-.56 1.542.21.368.844.826.834 1.17-.314-.084-.505-.341-.722-.567l-.189.043-.303.615-.159.043a4 4 0 0 1-.521-.681c-.243-.381-.526-.666-.856-.972-.343.623-.51 1.345-.837 1.932-.451.813-1.15.606-.726 1.997l.05.149c-.364-.011-.555-.082-.85.178-.947.836-2.022 3.146-2.027 4.377-.002.583.154 1.198.29 1.763.428.851.843 1.92 1.42 2.674.269-.708.204-1.645.954-2 .072-.035.15-.06.221-.096.412-.209 1.941-3.08 2.343-3.663.41-.596 1.031-1.044 1.445-1.638.158-.227.25-.517.325-.78.18-.644.24-1.315.383-1.967.364-1.663.796-3.272.95-4.98.141-1.564.023-3.232-.022-4.804-.013-.46.062-1.59-.2-1.937-.09-.12-.217-.238-.324-.343.009-.32.033-.599.087-.914.086-.498-.037-.74-.325-1.14a3.3 3.3 0 0 0-.55-.612l-.222.037c-.503.977.48 3.322-.052 3.885l-.408-.006c-.384-.881.808-3.441-1.135-4.074-.157-.051-.34-.073-.506-.093m10.764.153-.388.347.02.153.831.285c.202-.236.276-.245.3-.567-.282-.196-.426-.184-.763-.218m-1.865.09c-.015.489.965 3.109 1.176 3.846q.213.167.435.327l-.05.15c-.085.283-.172.585-.126.882.096.634.752 3.1 1.034 3.573.173.288.353.12.551.264.421.305-.21 2.135.905 2.557.15-.292.204-.555.29-.866.054-.2.029-.129.182-.306l.254.028c.026.462-.417 1.123-.489 1.656l.076.134c.34.609.556 1.494.98 2.01.377.036.476-.272.721.018.045.368.04.678.013 1.048-.045.609-.012.92.386 1.396l.478-.277c.246.097.318.133.434.396.011.025.052.232.057.252.211.863 1.636 1.613 2.172 2.424l.037.052.103.055c.45-1.135 1.135-5.094.679-6.22-.017-.043-.044-.081-.065-.121a1.7 1.7 0 0 0-.473.327l-.049-.112.58-1.07c-.623-3.532-3.37-5.018-5.214-7.794-.697-1.049-.935-2.51-1.748-3.447l-.293-.093a9 9 0 0 1-.523.36l-.096-.174a8 8 0 0 0-.345-.545c-.3-.059-.166-.084-.378.016-.343.162-.545.277-.935.193-.259-.374.121-.558-.25-.856zm18.72 6.06c-1.568 5.481-2.854 10.95-4.162 16.494-.422 1.786-1.101 3.575-1.351 5.39-.083.608-.044 1.197.022 1.804.467-.135.937-.29 1.41-.403 1.772-.253 3.16-.033 4.77.757q-.328-4.567-.357-9.146c-.016-2.808.871-13.017-.332-14.897m-47.69.476c-.145 2.18-.176 4.362-.312 6.542-.127 2.043-.409 4.18-.308 6.22.156 3.162.974 7.356 1.392 10.629.882-.25 1.792-.539 2.711-.614.37-.04.858-.019 1.151-.239.133-1.114-.133-2.38-.27-3.489a95 95 0 0 0-3.176-15.328c-.357-1.211-.658-2.578-1.188-3.72m10.638 9.148c.965 3.243 1.936 6.463 2.477 9.81.346 2.14.45 4.3.759 6.439.8-.451 1.6-.797 2.456-1.125.437-.623.284-1.767.25-2.503-1.452-2.121-3.534-5.66-3.515-8.288.01-1.308.374-2.57.507-3.864a40 40 0 0 0-2.934-.469m39.5 1.982c-.107 3.34-.247 10.13.496 13.274.916.313 2.4.958 3.38.73.062-.39.107-.763.031-1.156-.213-1.111-3.608-12.416-3.839-12.764-.02-.03-.046-.056-.068-.084m-13.496 3.725c-.01.364.053 1.123-.172 1.385-.414-.264-.505-.764-.946-.952-.194.28-.249.72-.18 1.052.076.362.302.524.609.7l.194.11.118.31-.245.107c-.267-.149-.38-.555-.603-.522.068 1.055.492 2.089.455 3.147.027.697.364 1.37.595 2.022.022-.89-.046-1.881.047-2.756.096-.91.977-3.288.767-4.06-.012-.043-.25-.301-.26-.31-.09-.077-.272-.173-.379-.233m2.495 1.75c-.433 1.846-.974 6.43.11 8.028.206.302.56.367.898.462.034-2.568.152-5.086.42-7.642a17 17 0 0 0-1.428-.848m-6.728 4.092c-.078.749-.484 2.262-.125 2.857l.2-.016c.204-.012.304-.005.492.056l.329.352-.01.227c-.451.218-.933-.014-1.411.216-.14.406.162.729.059 1.192l.012-.016-.284.063q-.148-.52-.274-1.046c-.32-.112-.476-.156-.809-.08-.318.406-.352 1.587-.254 2.114.024.13.042.151.094.254l.605.044-.005.185c-.274.2-.681.383-.741.747-.075.454.094 1.076.238 1.51l.175.175c.268-.056.496-.144.763-.06-.276.29-.593.435-.712.822.081.498.267.78.597 1.156.829.945.707 2.649 1.415 3.73.483.739 1.695 1.355 1.895 2.151q.068.261.131.522c.587 1.292 2.007 2.447 3.179 3.223-.079-3.314-1.31-6.466-2.205-9.618-.221-.78-.42-2.564-.982-3.108-.11-.106-.232-.196-.352-.29l-.397-.313v-.041q.068-.014.137-.026c.21-.043.13-.023.352-.103.155-.266.167-.454.086-.758-.112-.421-.44-.755-.57-1.163-.422-1.324-.218-3.736-1.135-4.859-.163-.034-.328-.078-.493-.099m-1.52.294c-.246.796-.992 2.142-.607 2.923.203.414.489.438.885.58.198-.148.337-.17.383-.427.138-.766-.348-2.175-.528-2.952zm-32.559 1.73c-.073.51-.23 1.112-.13 1.618l.164.138c.275-.592.28-.928.058-1.544-.047-.13-.036-.1-.091-.212m28.371 1.361c-.288.4-.663.831-.602 1.356.025.216.103.209.265.325.309-.325.63-.685.632-1.161.002-.229.012-.331-.189-.482-.03-.023-.07-.025-.106-.038m-6.2.302c-.171.702-.428 1.852-.148 2.532.183.133.31.181.53.229.212-.828.29-1.64-.141-2.422-.106-.192-.118-.195-.24-.339m82.558.322c-3.077.347-4.798 2.266-8.45 2.378-3.877.119-5.869-1.93-9.185-2.253-2.608-.254-4.183.926-6.527 1.697-.828.271-1.746.364-2.613.421-4.55.305-7.452-3.332-12.145-1.874-.974.302-1.869.856-2.791 1.282-.775.358-1.81.315-2.495.757l.079.31c.442.25.756.202 1.235.065 1.97-.561 3.673-1.419 5.76-1.527 3.69-.192 5.865 1.71 9.563 1.721 4.246.014 6.582-2.166 11.079-1.576 4.429 1.094 7.106 2.594 11.932 1.129 1.883-.572 3.668-1.259 5.674-1.146 2.117.119 3.982.944 6.017 1.408 1.474.335 2.984.36 4.488.301 3.844-.151 6.9-2.828 10.868-2.013 1.73.355 3.34 1.338 5.058 1.829l-.239-1.264-.191-.03c-2.254-.377-3.934-1.532-6.352-1.618-2.685-.096-4.088 1.139-6.469 1.9-1.508.481-3.115.55-4.685.467-3.669-.194-5.715-2.65-9.61-2.364m-134.89.263c-3.716.197-5.756 2.363-9.112 2.434-3.194.068-5.622-2.18-8.761-2.397-4.358-.3-5.8 2.09-9.43 2.388-4.19.344-6.922-2.731-11.209-2.39-2.38.19-4.322 1.76-6.781 2.213-.728 4.057-1.08 8.278-1.195 12.394 1.005-.037 1.902-.107 2.861-.44 2.406-.836 3.967-2.58 6.754-2.146 3.542.551 4.98 3.167 9.383 2.725 3.168-.318 5.59-2.91 8.735-2.868 4.403.06 5.343 3.468 11.575 2.739 2.53-.57 4.62-2.509 7.185-2.714 3.467-.278 5.97 2.572 9.407 2.734 5.585.264 7.287-4.527 13.588-1.946 1.403-2.992 2.58-6.026 3.686-9.137-3.349-.29-6.199-1.998-9.653-1.521-1.403.193-2.748.787-4.144 1.075l-.002-.108-.196.119c.036-.02.07-.046.108-.06.044-.015.093-.014.139-.024.598-.13 1.22-.464 1.79-.695 1.905-.772 3.645-1.042 5.69-.707 1.445.237 5.295 2.362 6.546 1.606.118-.256.046-.299-.028-.56-.288-.375-.63-.426-1.073-.508-.874-.164-1.59-.679-2.377-1.066q-.444-.213-.904-.388t-.933-.312-.957-.232-.972-.151c-4.538-.468-6.893 2.532-11 2.24-3.271-.232-4.668-2.272-8.72-2.297m36.55-.008c-1.332.102-2.575.366-3.86.724-.002.44-.089 1.028.164 1.403 1.265-.213 2.538-.386 3.82-.444.005-.414.124-1.353-.124-1.683m39.468-.002c-.47.041-1.144.022-1.489.387-.099.105-.12.167-.178.286.14.236.052.184.295.255.872.252 3.027-.208 4.397.044.406.094.82.251 1.225.099l.034-.212c-.7-.703-2.086-.945-3.042-.935-.399.004-.85.012-1.242.076m-37.273.071-.018 1.683c1.673.258 3.247.967 4.888 1.377.013-.486.068-.96-.126-1.417-.954-.738-3.51-1.368-4.744-1.643m20.156.857c-.393.56-.82 1.113-1.146 1.715.064.487.084 1.033.298 1.479l.132.07c.49-.452.96-1.477.997-2.154.019-.336-.046-.858-.281-1.11m96.15.084c-3.184.195-5.42 1.938-8.804 2.026-1.58.041-3.198-.052-4.74-.41-1.893-.44-3.713-1.154-5.676-1.212-2.024-.06-3.847.724-5.773 1.221q-.92.228-1.86.344-.94.117-1.888.12c-3.746.031-6.072-1.526-9.29-1.672-3.015-.137-5.773 1.422-8.796 1.615-3.984.255-6.33-1.605-9.74-1.643-2.733-.03-4.847 1.403-7.457 1.727 1.245 3.133 3.096 6.079 4.605 9.095 2.335-.59 4.245-.535 6.366.728q.434.26.862.527c2.383 1.054 5.615 1.19 8.058.249 3.147-1.213 4.68-2.982 8.434-1.367 1.006.434 1.946 1.011 2.97 1.411 2.285.894 5.467.88 7.766.021.948-.354 1.82-.907 2.748-1.31 1.907-.826 4.218-.79 6.106.05.906.402 1.786.916 2.718 1.253 2.287.827 5.69.9 7.981.067 1.043-.379 1.987-.993 3-1.44 1.843-.812 4.167-.659 5.986.154.996.444 3.6 2.094 4.671 1.76.041-.013.077-.037.117-.055.456-1.844-.534-9.058-.899-11.334-2.813-.763-4.378-2.004-7.466-1.925m-85.855.033c.055.843-.024 2.24.569 2.872l.486.091c-.042-.684-.452-2.282-.887-2.814-.048-.058-.112-.1-.169-.15m7.647.08c-.791.086-1.58.165-2.363.31.522 2.854 1.283 5.632 2.003 8.44.362 1.411.648 2.846 1.033 4.25l1.327-.388a59 59 0 0 0 2.592-1.008c-.485-3.662-.506-7.37-.91-11.038-1.222-.397-2.39-.629-3.682-.565m-46.393.477c-.56.276-1.325.578-1.604 1.174l.224.265.15-.017c.543-.001.918.03 1.375-.288.109-.221.189-.314.116-.564-.023-.082-.101-.228-.136-.304-.022-.047-.083-.224-.125-.266m16.82.005-1.365.302c.009 1.201-.185 2.925.204 4.036l.101.038.251-.541q.452-1.157.925-2.306l-.285.224.08-.084c.399-.427.754-.863.856-1.45l-.132-.205c-.218-.018-.417-.047-.634-.014m35.175-.064c.192.435.266.62.738.8.963.367 2.203.43 3.227.317-.07-.188-.074-.382-.27-.467-.606-.26-2.972-.58-3.695-.65m-10.49.121.007.119c.075.995.62 2.462-.107 3.303-.45.52-1.168.713-1.795.93.173 1.022 1.741 7.5 2.123 8.148.323.077.6.11.933.122l2.258.022c-.569-2.727-1.37-5.341-2.065-8.033-.344-1.331-.527-2.828-.992-4.11-.094-.259-.156-.332-.363-.5m-35.579.473a64 64 0 0 0-3.64.497c.071 2.14.094 4.256.011 6.396-.04 1.034-.312 3.284-.196 4.118.017.117.058.165.116.254l.1.03c1.037-.355 2.05-.665 3.133-.854.374-2.705 1.056-7.8.72-10.369-.08-.026-.16-.078-.244-.072m2.353.006c-.025 3.476-.326 6.8-.58 10.256 1.932.369 3.55 1.082 5.31 1.939.293-.243.27-.714.303-1.087.284-3.193.048-6.517-.105-9.715-1.606-.497-3.27-1.124-4.928-1.393m43.941.494c.092 3.173.254 6.583.769 9.713 2.161.171 3.685.608 5.668 1.478-.428-1.94-1.095-3.805-1.612-5.721-.429-1.587-.72-3.22-1.03-4.834-1.332-.079-2.525-.219-3.795-.636m-52.295.488c-.505.065-.999.123-1.488.27-1.081 3.526-2.25 7.08-3.992 10.341l.915.385c1.077.308 3.292.856 4.319.304.191-.103.192-.234.237-.431.214-.943.627-10.083.243-10.791-.016-.03-.04-.054-.059-.081zm58.171-.078c.687 3.574 1.756 7.884 2.979 11.291.73-.104 1.421-.213 2.128-.43.137-.245.162-.268.077-.553-.314-1.05-4.562-9.491-5.184-10.308m-29.437 1.131c-.493.467-.946.926-1.374 1.455-.11.861-.318 1.818-.255 2.681l.09.08c.71-.72 1.792-1.783 1.778-2.86-.005-.392-.048-1.02-.24-1.356m-4.586 1.094c-.112.388-.26.72-.104 1.115l.432.392c.138-.437.245-.626.146-1.08-.156-.145-.307-.297-.475-.427m7.689 6.502c-.042.535-.133 1.07.234 1.516a.64.64 0 0 0 .476.263c-.108-.662-.156-1.325-.71-1.779m72.54 2.463-.181.028c-2.823.454-4.81 1.815-7.903 1.877-1.378.027-2.802-.1-4.136-.46-2.316-.625-4.075-1.556-6.55-1.407-3.444.207-5.448 2.033-9.586 1.813-2.277-.121-4.06-1.152-6.22-1.614-1.043-.224-2.06-.201-3.12-.19.255.568.502 1.142.774 1.702 3.718.271 6.08 1.982 9.978 1.868 3.47-.102 6.263-2.014 9.554-1.808 1.708.106 3.182.835 4.791 1.327 1.47.45 3.035.573 4.566.546 1.17-.073 2.254-.181 3.384-.5 1.757-.495 3.415-1.313 5.262-1.422 2.207-.131 4.029.837 6.083 1.424.985.281 2.02.425 3.04.496 1.712.117 3.513.013 5.173-.444 1.923-.53 3.66-1.332 5.69-1.382 2.233-.055 3.975.924 6.053 1.516.758.216 1.547.286 2.326.38l-.001-1.623c-.851-.14-1.711-.269-2.529-.55-1.587-.546-2.995-1.377-4.701-1.5-2.731-.197-4.755.823-7.316 1.442-1.29.311-2.63.403-3.952.378-1.194-.022-2.44-.105-3.599-.411-2.434-.643-4.25-1.806-6.88-1.486m-173.078.14c-2.924.313-5.3 2.005-8.237 2.148.005.53 0 1.064.017 1.594 3.815.027 5.348-1.925 8.507-2.036 3.343-.116 6.139 2.131 9.535 2.133 3.627.003 6.456-2.171 9.914-2.134 3.722.04 6.66 2.478 10.588 2.096 2.926-.285 5.401-2.128 8.352-2.18 5.17-.09 6.442 3.543 13.282 1.609 2.655-.97 4.91-1.892 7.78-1.371q.4-.757.818-1.506c-5.531-1.443-7.74 1.797-12.306 1.731-3.449-.05-6.186-2.215-9.754-2.162-3.552.053-6.392 2.46-9.984 2.132-3.367-.308-6.168-2.29-9.671-2.1-3.195.171-5.893 2.199-9.109 2.19-3.434-.008-6.212-2.48-9.732-2.144m73.682.198-2.91.993c-.07.578-.194 1.185-.107 1.764l.16.035c.972-.33 1.944-.66 2.902-1.03.072-.479.306-1.286.125-1.731zm2.495-.055q-.149.82-.307 1.639c2.058.59 4.076 1.577 6.218 1.772.054-.485-.038-.97-.1-1.451-2.001-.48-3.775-1.614-5.81-1.96m45.86.18.194 1.436c2.119.254 4.003 1.133 6.08 1.477l.173.031.103.017c-.136-.612-.33-1.175-.55-1.76-2.06-.682-3.808-1.228-6-1.201m-2.325.135q-1.773.524-3.512 1.152c.075.43.108 1.248.422 1.55l.083.01q1.757-.492 3.49-1.06c-.06-.5-.061-1.14-.29-1.59zm-57.226.612-.765 1.384c2.163.791 4.087 1.184 6.394 1.122.356-.375.367-1.117.444-1.618-2.213.203-3.991-.145-6.073-.888m70.598-.005c-.883.388-1.74.612-2.688.783.16.486.268 1.02.642 1.386.166.034.332.075.5.092.898-.084 1.758-.144 2.61-.462-.26-.59-.486-1.262-.882-1.774zm-22.432.742c-.014.54-.002 1.089-.1 1.62 1.235.102 2.469.195 3.709.112l-.282-1.594c-1.12.016-2.216.017-3.327-.138m-5.91.079c.197 1.854.359 3.468 1.04 5.215.302-.429.63-.853.89-1.308.354-.738.694-1.46.951-2.237-1.088-.479-1.88-1.096-2.882-1.67m49.796.365c-1.683.161-3.074.758-4.662 1.263-2.029.647-4.399.729-6.501.483-2.429-.284-4.387-1.503-6.918-1.74.637 1.344 1.341 2.658 1.961 4.01 1.47 3.208 2.858 6.414 4.76 9.402 1.989.238 4.127.286 6.02-.476 2.12-.855 3.272-2.014 5.752-2.028 2.998-.016 4.878 2.331 7.768 2.643 1.941.21 4.187.189 5.995-.633 2.01-.914 2.915-2.038 5.312-2.046 2.449-.008 3.624 1.245 5.72 2.094 1.201.487 2.445.645 3.73.725 1.427-.033 2.82-.115 4.175-.603 2.463-.887 3.405-2.288 6.371-2.18 3.178.115 4.432 2.298 7.6 2.581a76 76 0 0 0 .494-11.62c-.904-.072-1.787-.145-2.666-.385-2.035-.555-3.716-1.46-5.886-1.402-1.885.05-3.49.79-5.267 1.303-1.724.499-3.632.642-5.418.529-1.146-.073-2.293-.234-3.396-.557-1.856-.544-3.54-1.422-5.527-1.381-1.892.039-3.481.91-5.25 1.436-1.476.44-3.08.55-4.612.519-3.811-.08-6.228-2.045-9.555-1.937m-134.966.13c-3.56.22-6.366 2.168-10.026 2.112-3.384-.052-6.194-2.294-9.605-2.036-2.867.217-5.263 2.048-8.187 2.004.02 3.866.159 7.676.606 11.517.945-.135 1.803-.285 2.69-.662 1.85-.786 3.226-2.146 5.354-2.227 3.719-.14 5.817 3.325 10.637 2.864 3.249-.31 5.646-3.004 8.909-2.858 2.358.105 4.028 1.518 6.145 2.296 1.514.555 3.013.627 4.61.556.744-.137 1.474-.27 2.178-.555 2.083-.845 3.82-2.35 6.19-2.306 5.004.092 6.949 4.482 12.91 1.94 2.565-3.982 5.225-8.143 7.335-12.387-.766-.077-1.55-.181-2.321-.115-3.14.272-5.29 1.977-8.823 1.971-3.167-.004-5.7-1.87-8.755-2.132-3.508-.3-6.38 2.061-9.887 2.147-3.55.086-6.437-2.053-9.96-2.129m69.241.085.085.082zm33.545-.046c.6 4.005 1.232 9.533 2.506 13.25 2.083-.824 3.098-2.267 5.531-2.349l2.495-.025c-1.238-3.143-2.795-6.147-4.03-9.291-2.218-.373-4.289-1.25-6.502-1.585m-46.548.091-1.981 10.752c1.01.102 1.959.236 2.91.607 1.813.709 3.096 1.738 5.12 1.933l1.519.02c.4-3.106.19-6.459.136-9.591a9.2 9.2 0 0 1-1.13-2.03c-2.254.052-4.41-1.167-6.574-1.69m-2.588.317c-.893.308-1.784.627-2.693.885-.463 2.598-.922 5.219-1.536 7.785-.255 1.064-.788 2.079-.965 3.153l.135.122.137-.02c1.112-.42 2.234-.986 3.374-1.3.244-1.714 1.977-9.98 1.833-10.614zm46.8.009c-1.138.377-2.27.771-3.44 1.043.556 3.936 1.408 7.908 1.474 11.893l1.416.281c1.117.15 2.032.07 3.131-.156q-.878-4.325-1.59-8.68c-.238-1.403-.366-2.892-.723-4.265-.225-.118-.13-.099-.268-.116m-58.567.293c-1.83 3.445-3.826 6.78-5.691 10.199 3.505-.091 4.387.704 7.439 1.95.688.264 1.366.532 2.084.709 1.374-3.678 2.315-7.761 2.915-11.638-2.416-.015-4.497-.312-6.747-1.22m72.778.191c-1.03.578-1.915.626-3.06.67.95 2.15 1.957 4.273 2.919 6.417.6 1.338 1.114 2.74 1.811 4.028.518-.067 1.035-.139 1.556-.182.85.031 1.66.19 2.493.35-.723-1.608-1.585-3.147-2.336-4.743-.983-2.089-1.865-4.607-3.206-6.477zm-36.401.092a41 41 0 0 1-2.066 2.054c-.007.789-.058 1.555.207 2.309.902-.796 2-1.8 2.097-3.08.03-.386-.024-.758-.096-1.137zm12.4.613c-1.269 3.107-1.995 3.223-4.161 5.441.306 1.503.651 2.868 1.272 4.278 1.917-.378 3.63-.484 5.511.146 1.026.45 1.98 1.006 2.948 1.565-.092-3.75-.677-7.62-1.401-11.295-1.404.053-2.772-.026-4.17-.135m-23.177 1.377a8.4 8.4 0 0 0-.777 2.187c-.29 1.333-1.04 7.978-.784 9.058.03.13.06.155.129.25l.117.022c.288-.022.562-.04.845-.101.254-.533-.154-6.933-.085-8.142.052-.918.805-2.341.601-3.146-.011-.044-.03-.085-.046-.128m10.903.77c-.774.896-1.533 1.778-2.188 2.767.002.7-.056 1.476.163 2.149.404-.364.795-.725 1.247-1.03.257-.637.432-1.182.963-1.65 0-.674.094-1.503-.097-2.148zm.008 3.252c-.697.6-.967 1.42-1.631 2.032-.15.137-.297.274-.45.408 0 .612-.144 1.964.153 2.473.698-.706 1.306-1.507 2.011-2.195.082-.702.37-2.124-.083-2.718m-.133 3.624c-.632.808-1.314 1.56-2.008 2.314.041.597-.008 1.465.404 1.93.627-.67 1.232-1.349 1.966-1.904-.09-.525-.097-1.996-.362-2.34m-4.284.489c-.29.699-.6 1.376-.522 2.15l.112.141c.377-.275.56-.365.654-.87.085-.456.023-1.044-.244-1.421m-93.683 2.087c-.732.07-1.436.16-2.143.37-1.641.492-3.435 1.615-5.162 1.496.067.607.113 1.227.23 1.826 2.743-.367 5.144-1.856 7.872-1.948 2.94-.1 5.434 1.739 8.318 1.99 4.127.36 6.946-1.993 10.736-2.02 3.358-.023 6.187 2.074 9.558 2.048 5.142-.04 7.542-3.449 13.27-1.48 2.303.884 4.237 1.513 6.74 1.4.387-.584.778-1.164 1.136-1.766-5.277.487-7.03-2.03-11.36-2.028-3.618.002-6.727 2.445-10.317 2.148-3.14-.26-5.784-2.172-9.016-2.157-3.553.016-6.507 2.317-10.024 2.175-3.429-.138-6.296-2.38-9.838-2.054m56.254.002-1.713.216c-.678.68-1.214 1.526-1.699 2.352 3.316-1.166 5.592-.915 8.876.249.837.3 1.657.52 2.528.703.217-.545.441-1.088.63-1.644-2.846-.69-5.622-2.26-8.623-1.876m17.452-.053c-.067.59-.118 1.188-.219 1.774 2.49.056 4.151.877 6.479 1.431 1.133.27 2.247.33 3.408.354l.144-1.644c-2.388-.071-4.281-.886-6.546-1.456-1.077-.271-2.16-.381-3.266-.459m34.997.06-.354.137c-.09.558.269 1.244.452 1.768 2.586-.313 4.389.754 6.808 1.384l.257-.025c.267-.378.143-1.172.13-1.622-2.728-1.11-4.306-1.82-7.293-1.641m45.815-.006c-1.964.143-3.59.91-5.464 1.404-1.486.391-2.946.43-4.473.414.38.589.747 1.197 1.154 1.767 1.135-.012 2.215-.088 3.32-.366 1.967-.493 3.735-1.379 5.808-1.393 2.95-.02 5.492 1.65 8.435 1.83 1.81.11 3.742.003 5.478-.552 1.573-.501 2.992-1.197 4.668-1.287 2.445-.131 4.417.803 6.719 1.397 1.808.467 3.715.544 5.569.386 2.13-.182 3.878-1.236 5.92-1.624 4.766-.668 5.469 1.107 9.566 1.666.088-.543.192-1.087.24-1.634-.636-.093-1.297-.168-1.91-.363-1.95-.62-3.512-1.67-5.626-1.728-2.286-.064-4.05.835-6.191 1.425-1.601.44-3.35.539-5.001.419-3.181-.231-5.933-1.989-9.145-1.817-1.73.092-3.202.846-4.825 1.355-1.452.454-3.08.552-4.593.534-3.736-.045-5.91-1.872-9.649-1.833m-25.039.094c-1.366.445-2.629 1.107-3.97 1.605l.351 1.53c1.6-.563 3.064-1.28 4.796-1.304 1.544.065 3.034.266 4.506.755-.373-.86-.762-1.675-1.284-2.457-1.472-.162-2.92-.253-4.399-.13m-58.355.237c-1.285.445-2.563.902-3.88 1.245-.171.487-.44 1.044-.408 1.565l.181.092a21.7 21.7 0 0 0 4.163-.89c.114-.618.286-1.26.224-1.89-.197-.14-.099-.117-.28-.121m27.117-.021c-1.002.911-1.942 2.002-2.047 3.42-.041.552.1 1.076.332 1.571 1.033-1.42 2.23-2.733 1.848-4.644-.051-.255-.018-.175-.133-.347m-4.501.117c-.369.347-.73.655-.744 1.203-.007.275.094.538.218.778.367-.25.637-.422.736-.88.072-.337-.015-.648-.096-.972zm44.444.594c-.387.024-.602-.035-.897.23-.07.621.434 1.312.699 1.864.99-.214 1.975-.419 2.992-.415l1.473.134c-.398-.654-.78-1.326-1.204-1.963zm-51.97.668c-.192.075-.401.086-.488.29-.289.676-.416 2.525-.163 3.227.015.042.038.08.058.12l.269-.187c.498-.901 1.281-2.111 1.07-3.172-.245-.292-.377-.237-.745-.278m5.525-.069c-.085.672-.327 1.673-.166 2.313.251-.052.346-.328.484-.538.274-.369.665-.775.716-1.242-.233-.353-.454-.41-.859-.499q-.087-.019-.175-.034m26.419.282.034 1.865c1.393.128 4.12.541 5.357.022l-.377-1.77c-1.79.292-3.238.187-5.014-.117m-99.311.59c-2.767.333-5.144 1.84-7.959 2.046-3.468.254-6.192-1.875-9.527-2.006-3.142-.123-5.379 1.58-8.335 1.876.462 3.69 1.23 7.391 2.144 10.995 2.17-1.296 4.28-2.652 6.938-2.014 2.336.561 4.127 2.267 6.593 2.626 5.727.835 6.79-3.36 12.438-2.673 2.744.593 4.793 2.468 7.697 2.629 5.77.321 6.732-3.925 13.138-2.324 2.35-2.914 4.669-5.828 6.702-8.975-3.764-.304-6.437-2.335-9.846-2.252-3.546.087-6.45 2.376-10.121 2.121-3.613-.25-5.948-2.402-9.862-2.049m37.091-.006c-1.739.282-3.32.608-4.41 2.106-1.25 1.716-2.416 3.49-3.721 5.164-1.31 1.68-2.847 3.296-3.991 5.087 2.576 1.132 5.159 1.423 7.828.413 2.637-1.407 4.145-2.21 7.242-1.841 1.676-2.967 3.514-5.976 4.911-9.082-2.582-.848-5.067-2.113-7.859-1.846m17.428-.067q-1.028 6.42-1.741 12.884c3.112-1.39 4.996-2.398 8.457-1.88l2.022.454c.419-3.21.903-6.436 1.204-9.658-1.309-.044-2.58-.121-3.855-.44-2.122-.53-3.85-1.369-6.087-1.36m80.892.079c-2.752.251-4.987 1.632-7.901 1.741.944 1.011 1.883 2.03 2.935 2.932 1.33 1.14 2.778 2.157 4.072 3.336 1.022.931 1.957 2.202 3.068 3.002.491.353 1.146.48 1.692.733 1.824.843 3.088 1.778 5.198 1.856 1.502.056 3.431-.043 4.834-.616 1.761-.719 2.97-2.02 4.966-2.216 3.185-.313 4.142.906 6.8 2.049 1.197.514 2.574.743 3.87.769 4.569.09 5.817-2.513 9.68-2.873 2.24.038 3.552.588 5.334 1.896.98-2.584 1.954-8.024 2.326-10.854-.651-.123-1.327-.23-1.955-.446-1.43-.49-2.72-1.221-4.259-1.344-2.687-.213-4.773.88-7.293 1.496-1.426.348-2.92.437-4.383.356-1.157-.064-2.341-.227-3.461-.529-2.208-.596-4.089-1.475-6.434-1.316-1.666.113-3.094.85-4.656 1.343-1.41.445-2.932.556-4.402.54-3.743-.04-6.303-1.84-10.031-1.855m-45.198.113c.662 3.041.941 5.79-.823 8.543-.329.514-1.18 1.385-1.179 1.98.141.196.228.274.455.371.742.319 1.714.326 2.51.587 1.292.424 2.492 1.108 3.79 1.504.465.11.931.234 1.402.319.528-3.89.674-7.839.779-11.759-2.263-.54-4.587-1.73-6.934-1.545m21.197-.004c-1.512.232-2.794.916-4.229 1.396.644 3.25 1.674 6.425 2.763 9.55 1.347.39 2.304 1.036 3.52 1.696 1.504.815 3.588.7 5.244.578 1.48-.13 2.769-.433 4.099-1.113-.924-1.497-1.86-2.99-2.678-4.547-1.148-2.183-2.181-4.48-3.427-6.604-1.76-.566-3.431-1.01-5.292-.956m-59.536.591c-1.494.498-2.887.815-4.462.886-1.554 3.438-3.52 6.608-5.152 9.988l1.826.927c2.158.973 4.024 1.281 6.391.97.123-.923 1.717-12.447 1.664-12.593-.023-.066-.075-.118-.113-.177zm18.088.06c-.51 1.085-1.362 3.567-2.607 3.948-.353.108-.787-.084-1.122-.195-.08 1.1-.923 7.502-.585 7.993l.434.244c.74.239 1.469.418 2.23.573.23-2.208.406-4.443.778-6.63.29-1.705.837-3.458 1.002-5.17.029-.306.007-.481-.13-.762m51.467.236c-.673.09-1.346.172-2.006.334 2.162 4.231 4.438 8.257 7.13 12.179 1.955-.09 3.212-.422 4.81-1.608 1-.707 2.095-.684 3.27-.794-3.569-3.356-7.481-6.146-10.562-10.008-.873-.058-1.77-.16-2.642-.103m-42.229.157c-1.095.995-1.915 3.144-1.984 4.604-.01.206 0 .32.08.508.184.106.357.187.578.163.033-.003.063-.02.096-.03l.098-.174c.364-.634.775-1.099 1.298-1.606.037-.334.091-.657.03-.992l-.404.026c.043-.266.141-.436.265-.671.243-.46.377-.966.202-1.486a.6.6 0 0 0-.259-.342m2.455.214.097.094-.071-.1zm17.707.475a117 117 0 0 1-.81 11.587c2.687-.203 3.474-1.534 5.855-2.141a22 22 0 0 1 2.98-.236q-1.202-4.505-2.451-8.997c-1.848.124-3.784.389-5.573-.213m-17.57.419c-.01.52-.082 1.054.334 1.443.14.13.287.203.46.275-.062-.53-.127-1.302-.623-1.631-.053-.036-.114-.058-.172-.087m.257 2.102c-.2 1.855.712 5.994 1.231 7.875.1.364.024.517-.085.855-.346 1.068 1.097 2.686 1.031 3.935-.031.6.234.888.62 1.292.936.983.029 3.01.617 3.609.047.048.413.082.503.094.271.613.439 1.365 1.087 1.676.287-.357.303-.872.359-1.325.08-2.462-.098-5.524-.82-7.895-.35-1.152-.89-2.252-1.312-3.378-.25-.668-.469-1.692-.938-2.203-.4-.05-.769.314-1.02.113l-.034-.401c.364-.298.85.019 1.027-.35-.113-.64-.326-.768-.845-1.133l-.125-.087c-.482-.823.189-2.294-1.083-2.627q-.106-.026-.213-.05m-2.803.803c-.63.756-1.18 1.837-1.69 2.69-.014.823-.107 1.757.272 2.51l.19.12.353-.316c.542-.773 1.288-1.175 1.138-2.18-.2.063-.336.13-.516.23l-.077-.136c.2-.28.401-.471.656-.696-.022-.574.082-1.802-.326-2.222m.265 4.017c-1.117 1.393-1.688 2.714-1.505 4.536.058.576.325.986.626 1.46-.003.456-.225.434-.304.774-.181.79.128 2.409.144 3.284.923-.613 1.504-1.18 1.74-2.294q.035-.17.06-.34c.014-.583.037-1.166.023-1.75-.195-.291-.388-.584-.597-.867-.378.443-.022 1.75-.244 2.363l-.252.008-.104-.12.059-.196c.231-.8.155-1.36-.019-2.161l.152-.054c.234-.087.147-.048.373-.206-.059-.389-.197-.663-.378-1.004.168-.155.34-.289.525-.422.186-.906-.183-1.878-.174-2.8zM87.618 154.3c-1.733.118-3.095.655-4.709 1.263-3.32 1.25-6.112.906-9.211-.752l-1.06 1.587c.355.186.707.387 1.08.538 3.87 1.597 6.313 1.606 10.225.19 1.314-.477 2.519-.89 3.935-.901l.875-1.878zm-37.814.119c-2.878.317-5.4 1.922-8.3 2.052-5.833.262-8.087-4.28-14.984-.619l.535 1.685c1.767-1.208 4.335-1.441 6.401-1.069 1.352.244 2.622.844 3.921 1.27 3.658 1.198 6.724.273 10.185-1.026 6.04-1.552 7.829 1.623 13.032 1.514 2.456-.052 4.419-1.083 6.722-1.7.853-.23 1.72-.291 2.595-.396.466-.626.915-1.176 1.495-1.702-4.758-.405-6.553 1.956-10.698 1.964-3.827.006-6.935-2.294-10.904-1.973m58.506-.002c-2.151.238-4.063 1.194-6.163 1.644l-.16 1.58c1.441-.267 2.824-.594 4.206-1.087 2.232-.47 4.272-.183 6.511.13l.2-1.723c-1.522-.379-3.02-.665-4.594-.544m115.894.008c-2.748.23-5.11 1.634-7.896 1.79-1.725.098-3.548.064-5.235-.346-2.148-.522-3.943-1.423-6.213-1.397-1.911.021-3.464.715-5.246 1.278-2.84.898-6.595.682-9.422-.165l1.995 2.325c1.234.208 2.505.338 3.757.303 1.123-.068 2.163-.164 3.244-.482 1.75-.517 3.327-1.351 5.181-1.467 3.437-.214 6.274 1.773 9.67 1.895 1.522.055 3.095-.029 4.576-.406 1.002-.256 1.968-.665 2.956-.971 2.54-.786 4.909-.532 7.406.275l.358-1.273c-1.749-1.097-3.07-1.493-5.131-1.36m-86.165.062.461 1.663c2.386.741 4.941 1.94 7.459 1.973l.101-1.68c-2.744-.608-5.18-1.76-8.021-1.956m16.44.169c-1.362.225-2.61.917-3.909 1.37-.755.262-1.534.39-2.321.517l-.138 1.733c1.299-.147 2.367-.381 3.567-.901 2.314-.961 4.326-1.025 6.798-.868l-.507-1.877c-1.167-.028-2.324-.061-3.49.026m5.838-.017.44 2.15c5.325 1.94 8.354 1.981 13.59-.333l.149-.153c-.141-.55-.674-1.052-1.052-1.469-2.99 1.636-6.888 1.894-10.157.94-1.026-.3-1.964-.809-2.97-1.135m22.74.006c-1.794.327-3.445 1.223-5.242 1.622l-.245.057-.148.032c.461.621.917 1.205 1.458 1.76 1.102-.484 2.204-1.017 3.347-1.394 2.239-.452 4.127-.338 6.35.181-.58-.767-1.21-1.465-1.87-2.166a17.4 17.4 0 0 0-3.65-.093m-92.04.23c-.283.508-.578 1.009-.807 1.544 3.275 1.085 5.671 1.748 9.155 1.677.216-.083.273-.048.378-.27.189-.398.128-1.026.147-1.462-3.682.052-5.422-.666-8.873-1.49m34.638-.048c-.965 1.267-1.459 5.341-1.217 6.922.034.223.118.455.187.67-.438 1.115-.748 1.934-.368 3.119q.056.184.109.37c-.357.613-.793.942-.57 1.718.042.15.104.24.215.349.285.076.574.13.818.302l-.082.193-.172.024c-.39.058-.696.079-1.017.332-.174.706.55 1.104.488 1.748l-.391.178c-.492 1.53-1.29 5.682-.481 7.146.1.183.122.197.243.34.18.023.238.08.386-.048.238-.206.386-.489.549-.754l.217-.05.103.169c.147.234.08.145.263.34.1-.39.116-.729.116-1.13l-.13-.202c-.367-.01-.653.123-.986.255-.084-.291-.171-.356-.042-.641a5 5 0 0 1 .912.011c.235-.167.242-.18.293-.478.068-.39.13-.877-.069-1.233-.371-.012-.532.161-.842.356l-.083-.089c.212-.587.882-.817 1.097-1.382.275-.72-.107-1.467.097-2.127.138-.451.625-.402.574-.98-.043-.48-.496-.953-.45-1.451.067-.71.717-1.425.49-2.16l-.161-.093-.614.239-.097-.127c.66-.705 1.13-.361.918-1.983-.016-.127-.033-.149-.078-.25-.237.06-.308.107-.499.25l-.137-.095c.018-.938 1.299-1.549.6-2.59-.254-.132-.411-.186-.698-.2.257-.58 1.213-.33.792-1.507-.092-.258-.314-.499-.486-.709-.026-.374-.043-.538.227-.834.077-.084.16-.161.242-.24.093-.367.141-.554.046-.931l-.133-.086a1.1 1.1 0 0 1-.316-.31c.01-.34.067-.59.162-.917.143-.498.161-.944-.026-1.434m-10.63 1.049c-.064.674-.151 1.355-.17 2.032 1.445.345 2.888.492 4.368.603.107-.526-.25-1.317-.404-1.834-1.27-.23-2.556-.43-3.795-.801M50.4 157.05c-3.254.25-6.084 2.082-9.377 2.037-6.118-.084-6.206-3.5-13.842-1.067.953 3.252 2.1 6.613 3.434 9.732 1.087.096 2.085.18 3.119.555 2.703.979 4.207 2.59 7.296 2.588 3.99-.003 6.404-3.45 10.408-3.011 3.66.4 5.038 3.102 9.645 2.999 3.904-.087 6.35-3.102 9.662-2.989 2.39.082 3.944 1.54 6.06 2.363 1.16.45 2.318.579 3.552.606.596-.07 1.208-.117 1.793-.248 1.447-4.726 3.104-9.149 5.25-13.603l-.196.02c-1.54.171-2.925.854-4.38 1.342-4.468 1.498-6.76.078-10.908-1.12-1.866 1.91-9.773 9.633-12.092 9.737-.55-.333-.72-1.208-.897-1.792 4.013-2.249 7.197-4.917 10.323-8.268-3.002.495-5.616 2.103-8.718 2.125-3.57.026-6.568-2.236-10.132-2.006m124.494-.067c-3.6 1.958-7.73 2.648-11.718 1.483-.68-.198-1.347-.454-2.011-.7.928 3.345 1.806 6.716 2.844 10.03 2.486.144 4.085.715 5.973 2.333 2.53.98 5.84 1.198 8.368.089 2.056-.903 3.147-1.912 5.469-2.268-.997-1.392-8.087-10.59-8.925-10.967m28.94.06c-1.182.133-2.24.53-3.356.918-2.615.91-4.757 1.148-7.512.83 1.238 1.675 2.847 4.064 2.474 6.252-.098.577-.264 1.345-.774 1.696-.174-.027-.261 0-.385-.148-.515-.614-.662-2.166-.928-2.949-.614-1.805-2.31-4.4-3.9-5.472-.695-.469-1.477-.719-2.297-.859-3.036-.519-5.114.218-7.88 1.346 1.421 1.664 2.876 3.312 4.197 5.057 1.08 1.427 2.047 2.97 3.183 4.349 1.68.466 2.877 1.272 4.402 2.027 1.796.889 4.39.875 6.316.51 2.75-.509 4.241-2.52 6.793-2.792 3.29-.351 4.263 1.119 6.873 2.237 1.686.723 3.537.912 5.354.753 3.574-.313 5.008-2.637 8.45-3.134 1.578-3.157 2.976-6.625 3.968-10.016-6.697-1.916-8.46 1.462-14.448 1.271-3.816-.121-6.568-2.308-10.53-1.877m-114.012.115c-2.115 3.921-3.712 8.01-4.943 12.288 2.002-1.134 3.962-1.9 6.3-1.212 1.238.364 2.383 1.068 3.502 1.693 1.658.683 3.293.97 5.085.932.007-3.993-.218-7.96-.094-11.959-2.396.148-4.475-.054-6.761-.803-1.017-.333-2.033-.75-3.089-.94m17.757-.005c-1.915.38-3.736 1.046-5.678 1.314-.081 3.954-.296 8.092.222 12.019 1.247-.47 2.317-1.214 3.508-1.785 2.025-.832 3.824-.926 5.95-.38.372-3.628.848-7.262 1.075-10.904-1.71-.188-3.353-.364-5.077-.264m31.125-.057c.273 2.139.746 4.452.608 6.604-.128 2.003-.696 3.911-.703 5.94 1.776-.937 3.237-1.6 5.29-1.516l1.356.151c.106-3.096.328-6.15.64-9.231-2.533-.391-4.743-1.285-7.191-1.948m16.063.197c-2.376.32-4.269 1.648-6.725 1.726-.266 3.145-.387 6.272-.534 9.422l.132.055c.748.326 1.347.826 2.018 1.279 1.548 1.046 3.24 1.13 5.043 1.148 1.785-.06 3.196-.285 4.758-1.194.775-.45 1.482-.886 2.334-1.182-.932-3.704-1.883-7.528-3.096-11.147-1.271-.217-2.65-.3-3.93-.107m-40.005 1.403c-.202 1.954-.325 3.918-.558 5.868-.178 1.48-.464 2.952-.624 4.433 2.306 1.146 4.147 2.113 6.813 1.52.377-.162.732-.268.97-.622.465-1.73.272-5.463.384-7.472-.996-.961-1.417-1.965-1.98-3.197-1.703-.03-3.33-.226-5.005-.53m14.953 1.053-.17.181a5 5 0 0 1-.543.48c-.478.378-.717.717-.796 1.332-.093.737-.063 2.003.454 2.6.156.18.215.153.437.202.319-.19.361-.348.535-.67.293-.73.237-1.382.161-2.15-.275.3-.531.644-.911.812.076-.449.569-.894.862-1.228.014-.347.166-1.321-.03-1.56m2.7 3.584c-.041.693-.288 2.066.149 2.62l.352-.026c.115-.62.053-1.744-.264-2.306-.095-.168-.116-.175-.236-.288m-4.006 1.44c-.226 1.197-.348 4.204.079 5.289l.192.026c.082-.118.195-.249.25-.381q.043-.11.09-.22c.141-.317.369-.503.63-.72.303-1.095.35-2.682.077-3.79-.316-.201-.914-.08-1.318-.204m4.509 1.408c-.276.42-.534.844-.78 1.283.29 1.346.124 2.55.079 3.906.173-.307.308-.611.61-.811-.09.57-.41 1.076-.514 1.645-.358 1.972 1.243 4.24 1.99 5.947.363.302.719.609 1.11.874.125-1.597-.08-5.345-1.022-6.656-.06-.083-.168-.17-.233-.234-.066-.066-.125-.138-.188-.207l-.15-.161-.046-.339.121-.051c.184-.086.117-.049.279-.207-.13-1.025-.59-4.368-1.256-4.989m2.82.494c.09.655.291 3.19.744 3.61.044-1.143.026-2.254-.117-3.39-.228-.216-.326-.176-.627-.22m-6.174 2.655-1.151 2.005c.02.676-.082 2.42.389 2.94.312-.39 1.038-1.102.969-1.618-.046-.338-.214-.674-.35-.983.037-.348.095-.667.177-1.007a2.37 2.37 0 0 0-.034-1.337m13.516.721c-1.003.062-1.87.165-2.818.535-.717.28-2.135 1.187-2.801 1.248-.209.02-.502-.065-.703-.105-.128.619.27 1.633.456 2.247l1.26-.429c2.508-1.081 4.164-1.398 6.895-1.295l.004-2.029a21 21 0 0 0-2.293-.172m40.916.127c-2.061.142-3.557.872-5.494 1.474-1.449.451-3.006.61-4.519.58-3.643-.076-5.774-1.925-9.471-1.873.173.6.336 1.204.548 1.79.808.09 1.628.148 2.416.36 1.113.398 2.207 1.03 3.347 1.305 2.618.631 5.731.489 8.28-.379 1.31-.446 2.559-1.021 3.939-1.232 1.32-.203 2.684-.088 3.995.117-.431-.706-.855-1.417-1.316-2.105zm20.256-.009c-1.634.182-2.996.842-4.538 1.33-3.81 1.202-7.5.661-11.121-.786.763.97 1.499 2.061 2.35 2.95 2.52.549 5.131.648 7.65.021.947-.235 1.855-.62 2.776-.936 2.424-.834 4.649-.819 7.117-.194 4.093 1.777 7.947 2.142 12.182.47q1.187-.482 2.357-1.003l.9-1.772c-3.02.576-4.97 1.8-8.244 1.897q-.604.022-1.207-.002t-1.203-.093-1.193-.183-1.176-.272c-2.356-.659-4.098-1.627-6.65-1.427m-154.157.131c-3.248.17-5.922 2.16-9.198 2.125-3.207-.034-5.862-2.065-9.052-2.035.266.638.528 1.255.87 1.857 2.65.301 4.86 1.806 7.592 1.964 4.017.232 6.817-2.197 10.606-2.11 4.716.107 7.474 3.13 12.74 1.781 1.75-.523 3.426-1.394 5.24-1.66 4.757-.698 7.378 2.455 12.507 1.828q.273-.97.524-1.948c-4.1.99-7.51-1.767-11.577-1.76-3.572.007-6.586 2.252-10.185 2.027-3.692-.231-5.766-2.234-10.067-2.069m38.536.002c-1.531.108-2.838.55-4.247 1.148l-.352 1.907c4.111-1.626 6.572-1.577 10.65.05 1.764.534 3.235.651 5.071.575l.061-1.836c-1.212-.031-2.378-.082-3.565-.342-2.8-.613-4.625-1.584-7.618-1.502m18.947-.009c-1.9.23-3.666.92-5.466 1.536.02.575.017 1.161.076 1.733a64 64 0 0 0 3.355-.997c2.03-.487 3.603-.428 5.664-.129l.2-2.018c-1.258-.116-2.57-.275-3.83-.125m39.909.1c.047.726.084 1.454.159 2.178 3.813 1.413 7.324 2.317 11.35.944 1.261-.43 2.441-1.053 3.716-1.458.12-.503-.075-1.111-.174-1.614l-.203.036c-1.43.265-2.758.857-4.147 1.267-3.79 1.118-7.248.31-10.701-1.353m-34.189.392-.118 1.995c2.404.877 5.037 1.816 7.621 1.16l.346-1.959c-3.072.414-4.979-.076-7.849-1.196m-62.91 2.14c-4.169.365-7.071 2.715-11.478 1.923-2.097-.377-3.924-1.502-5.997-1.92 2.09 4.624 4.862 9.43 7.837 13.541 3.704.504 6.36-2.69 9.97-2.841 5.053-.212 6.36 4.216 12.988 2.413l.19-.068c3.956-1.439 5.4-3.651 10.046-1.556 2.05.925 3.578 1.968 5.903 2.15.211-1.825.293-3.66.493-5.485.224-2.049.578-4.08.88-6.118-4.817.44-6.704-1.958-10.602-1.945-3.728.011-6.832 2.27-10.647 1.972-3.347-.26-6.16-2.25-9.583-2.065m133.75 0c-1.916.19-3.48.858-5.295 1.436-2.177.693-4.703.825-6.956.488-2.305-.346-4.32-1.582-6.676-1.925.575 2.096 1.325 4.095 2.105 6.12.788 2.046 1.705 4.038 1.963 6.232 2.37 1.44 5.02 1.577 7.686.926 2.262-.552 4.029-2.131 6.374-2.461 3.613-.509 4.733.971 7.759 2.075 1.845.672 4.059.75 5.987.453 3.421-.527 4.89-3.445 8.708-2.918.752.104 1.605.315 2.256.702.916.544 1.593 1.306 2.592 1.74 1.602.424 3.046.41 4.657.015 2.4-2.843 5.793-9.412 7.35-12.933-4.15 1.916-7.784 2.79-12.249 1.18-2.013-.727-3.701-1.288-5.87-1.189-1.947.09-3.48.82-5.29 1.46-2.395.846-5.376.792-7.84.309 1.14 1.909 2.936 3.523 3.876 5.16.219.381.332.667.262 1.112-.244.203-.412.276-.742.214-2.254-.42-5.553-5.799-6.847-7.657-1.246-.337-2.51-.618-3.81-.539m-95.532.123c-1.683.168-3.2.622-4.758 1.27-1 3.92-1.641 7.892-1.732 11.946l.208-.074c4.024-1.458 5.92-3.861 10.528-1.74 3.376 1.554 5.677 2.888 9.488 1.531 2.132-.759 3.612-2.136 6.004-2.243.396.002.845.068 1.199-.132.68-2.291 1.24-7.775 1.493-10.292-4.092-.725-4.952.435-8.679.998.056 1.412.783 6.013-.102 6.956-.254.27-.492.376-.862.393a1.6 1.6 0 0 1-1.25-.538c-1.141-1.296-.605-4.633-.518-6.238-1.262.008-2.435-.012-3.667-.299-2.678-.622-4.475-1.744-7.352-1.538m54.89 0c-2.203.193-4.124 1.026-6.166 1.819.206 1.584.707 4.345-.286 5.716a1.37 1.37 0 0 1-.998.569c-.716.073-1.385-.377-1.982-.714.243 1.89.61 3.753.757 5.654.932.202 1.83.294 2.782.337 5.1-.041 5.775-2.894 10.02-2.896a200 200 0 0 1-2.322-10.516c-.6.006-1.206-.007-1.805.031m18.88-.049c-6.287 2.603-8.127 2.755-14.58.445.499 3.743 1.8 7.296 2.396 10.996.737.335 1.376.77 2.043 1.227 2.049 1.119 4.957 1.129 7.173.473 1.937-.573 3.193-2.1 4.61-2.451.9-.223 1.958-.181 2.882-.207-.727-2.687-3.156-4.394-3.746-7.042-.183-.823-.126-1.758-.131-2.6-.003-.376.053-.603-.27-.83zm-49.257.745c-.454 3.314-1.163 7.55-1.309 10.808 2.33 1.489 4.561 2.323 7.354 1.71 1.048-.229 2.025-.664 2.978-1.147.654-.335 1.723-.758 1.998-1.498.095-.255.12-.501-.02-.742-.354-.603-1.002-1.174-1.43-1.745-1.35-1.798-1.798-4.138-1.821-6.342-2.91.36-4.994-.183-7.75-1.044m11.715 4.528c-.389.332-.67.04-1.047.331.103.435.342.734.621 1.069l.277.256c.316-.388.254-1.11.26-1.594zm1.962 1.193c-.347 1.464-.078 2.324-.32 3.554-.175.881-.455 1.737-.651 2.614-.236 1.054-.392 2.124-.674 3.168-.423 1.56-1.171 3.325-1.221 4.94l.088.09c.136.14.086.084.216.257q-.278.096-.55.206c-.247.637-.373 1.364-.266 2.043l.203.117c.355-.131.596-.303.89-.531a6 6 0 0 0 .482-.623c.145-.215.256-.275.459-.42 1.169-.844 2.078-2.826 2.281-4.202.133-.898.338-2.88-.21-3.616-.398-.18-.526-.173-.729-.574l.032-.223.474.274.148-.059c-.07-.958-.227-1.907-.292-2.864-.095-1.38-.097-2.789-.36-4.151m40.314 6.222c-1.056.069-2.158.093-3.196.302-1.326.267-2.56.828-3.851 1.21-3.258.962-6.423.383-9.553-.696.126.608.244 1.852.716 2.253 3.023 1.047 6.094 1.429 9.195.436 1.269-.407 2.468-.928 3.8-1.107 1.23-.164 2.43-.04 3.657.077-.172-.796-.3-1.655-.582-2.417zm-21.434.109c-1.855.192-3.407.948-5.18 1.424-1.888.508-3.756.274-5.673.138.035.722.056 1.45.11 2.172q1.468.115 2.94.13c2.446-.041 4.069-.874 6.36-1.352 1.472-.308 2.978-.23 4.471-.167l-.473-2.415c-.84.01-1.724-.032-2.555.07m37.92.005c-2.025.145-3.626.837-5.544 1.416-2.668.805-5.895.882-8.502-.172.143.736.268 1.483.441 2.212 2.877.924 6.002.664 8.862-.211 1.623-.496 3.153-1.057 4.864-1.15 2.506-.135 4.498.573 6.866 1.183 3.186.821 7.062.652 10.134-.541 2.792-.97 5.33-.896 8.134-.03 1.435.444 2.71.846 4.23.889l1.4-2.133c-4.679.734-5.702-1.407-9.557-1.417-2.037-.005-3.7.798-5.619 1.302-1.767.464-3.799.554-5.614.42-3.863-.285-5.823-2.076-10.095-1.768m-133.81.12c-2.817.326-5.259 1.844-8.117 1.825.495.641.978 1.3 1.495 1.922l.23-.047c2.268-.484 4.38-1.62 6.707-1.813 4.014-.331 7.398 2.22 11.348 2.005 4.093-.221 6.018-2.549 10.647-1.952 2.683.528 5.027 1.841 7.812 1.91l.014-1.76c-3.494-.411-6.42-2.287-10.01-2.15-3.47.13-6.34 2.262-9.917 1.992-3.82-.288-5.825-2.26-10.209-1.932m38.627 0c-2.29.26-4.218 1.272-6.415 1.851.016.647.012 1.3.087 1.942l.184-.045c2.324-.58 4.353-1.777 6.806-1.879 5.209-.217 7.181 3.271 13.547 1.509 2.142-.828 4.047-1.58 6.384-1.533q.115-.935.204-1.873c-3.9-.06-6.43 1.862-10.053 1.853-3.724-.009-6.954-2.3-10.744-1.826m23.239.178c-.142.632-.287 1.258-.362 1.903 3.289 1.543 6.42 2.327 9.974 1.022a12 12 0 0 0 1.842-.84c.19-.697.365-1.383.494-2.095-3.5 1.426-6.847 2.234-10.495.7-.494-.207-.974-.451-1.453-.69m-41.634 2.452c-3.062.236-5.697 1.979-8.769 2.068-3.948.115-7.311-2.42-11.332-1.97-2.18.245-4.212 1.292-6.343 1.786 1.472 2.2 3.241 4.276 4.945 6.303 14.352 17.07 36.332 30.029 58.22 34.365q1.287.257 2.581.483 1.293.226 2.592.42 1.299.192 2.602.354 1.303.16 2.61.29 1.306.128 2.616.224t2.62.16q1.312.064 2.625.095 1.312.03 2.625.029t2.626-.036 2.624-.101 2.62-.166 2.616-.231 2.609-.297 2.6-.36 2.592-.426 2.58-.49q1.286-.26 2.566-.553t2.552-.618q1.273-.324 2.536-.68t2.519-.744 2.499-.805q1.245-.419 2.478-.868t2.456-.928 2.433-.99 2.407-1.05q1.196-.54 2.38-1.109 1.183-.57 2.351-1.168 1.169-.599 2.322-1.226t2.291-1.283 2.258-1.34 2.225-1.396q1.103-.711 2.189-1.45c8.327-5.586 15.853-12.156 22.107-20.015 1.209-1.52 2.49-3.064 3.5-4.725-2.738-.306-5.087-1.633-7.89-1.582-2.157.04-3.895.834-5.942 1.344-1.599.398-3.35.46-4.99.391-3.443-.144-6.491-1.659-9.97-1.489-1.894.093-3.333.739-5.104 1.257-2.767.809-5.476.643-8.294.292-.108.245-.091.119-.063.353.043.358.113.631-.077.958-.272.11-.503.146-.793.043-.405-.143-.663-.43-.821-.817-.23-.562-.322-1.176-.507-1.752a11.7 11.7 0 0 0-2.274-.24c-2.077.032-3.642.627-5.586 1.215-2.863.867-6.099.441-8.92-.373.627 2.483 1.293 4.97 1.802 7.48q25.17.099 50.338-.207-1.948 2.073-4 4.044t-4.202 3.833-4.393 3.613-4.573 3.382q-.774.535-1.558 1.055-.785.52-1.578 1.027-.794.506-1.596.998-.803.491-1.614.969-.81.477-1.63.94t-1.648.91-1.664.88q-.836.432-1.68.85-.843.417-1.694.819-.85.402-1.709.788-.858.387-1.723.758t-1.736.727-1.75.695-1.76.663-1.774.632-1.784.599-1.795.567-1.805.534-1.814.502q-.91.243-1.823.469t-1.831.436-1.839.403q-.92.193-1.845.37-.924.176-1.852.335t-1.858.303-1.863.27q-.933.125-1.867.234-.935.11-1.872.202-.936.093-1.874.168t-1.878.134-1.88.1-1.88.066q-1.252.021-2.505.012t-2.503-.05-2.502-.11-2.498-.171-2.494-.233-2.487-.294-2.479-.354-2.47-.415-2.458-.475q-1.226-.253-2.446-.536-1.22-.282-2.433-.595-1.212-.312-2.417-.654t-2.4-.714-2.383-.772q-1.186-.4-2.362-.83t-2.342-.887-2.319-.945q-1.154-.486-2.295-1-1.142-.515-2.27-1.058-1.129-.542-2.244-1.112t-2.216-1.167q-1.1-.597-2.187-1.22-1.085-.624-2.155-1.274t-2.124-1.326q-1.055-.677-2.092-1.378-1.037-.702-2.056-1.429t-2.022-1.478-1.984-1.528-1.946-1.576q-.964-.799-1.907-1.622t-1.867-1.669-1.826-1.714c-1.863-1.786-4.035-3.823-5.613-5.856 1.224.458 2.5 1.124 3.794 1.317 2.38.356 5.59.089 8.066.087q8.615.017 17.229-.06-.343-3.252-.615-6.51c-3.502-.16-6.436-2.161-9.967-2.104m18.953.124c-2.47.224-4.502 1.288-6.865 1.873.047 2.223.399 4.447.705 6.647l21.251.031 3.236.005c.682-2.834 1.225-5.79 1.547-8.686-3.414.137-6.225 2.044-9.705 1.998-3.579-.049-6.583-1.963-10.169-1.868m56.605.246c-1.701.185-3.251.807-4.898 1.212-1.914.47-3.882.34-5.828.214-.005.835.145 2.208-.503 2.857-.203.203-.44.225-.71.19-1.353-.175-3.014-3.152-3.68-4.219-.365 3.26-.863 5.447-3.158 7.905.45.087.9.073 1.357.075l22.552-.014q-.832-4.031-1.835-8.023c-1.087-.143-2.2-.3-3.297-.197m-34.417.012q-.866 4.113-1.61 8.249 3.79.024 7.581.009c1.241-.003 2.718.153 3.922-.108.2-.4.202-.792.231-1.232.273-2.308 1.082-4.388 1.525-6.642-3.849 1.685-6.701 1.675-10.625.14q-.515-.202-1.025-.416m-10.502 11.13c-4.138.02-38.931.032-39.938.631q20.406.537 40.818.35 24.346.141 48.693.038l27.072-.059 8.196-.016c1.175.004 2.368.092 3.54.046.413-.016.73-.084 1.099-.268.172-.252.177-.239.136-.54-.082-.048-.156-.114-.247-.144-.583-.196-4.252-.038-5.104-.041l-20.774.005c-21.16.046-42.333-.238-63.491-.002m48.865 8.086-.175.036c-.348.075-.666.093-.909.375-.402 1.708.608 7.884-.791 8.72-.276.164-.445.123-.737.072-.505-.45-.591-1.06-.635-1.708-.158-2.343.098-4.768.077-7.123-.618-.006-1.222-.017-1.836.07-.014.813-.036 1.626-.04 2.439-.009 1.662-.423 6.172.614 7.278.553.59 1.539.79 2.317.771.698-.018 1.326-.28 1.8-.798.448-.49.721-1.1.867-1.744.35-1.546.234-5.947.106-7.626-.022-.286.005-.512-.18-.743zm-45.273.335c-.002 3.524-.122 7.094.044 10.613.648.02 1.3.05 1.948.052l.128-4.29c1.138.097 2.176.147 3.116-.63.67-.552.995-1.4 1.034-2.252.039-.844-.209-1.68-.793-2.303-1.143-1.22-2.847-1.186-4.386-1.19zm32.18.425c-.65.76-2.526 9.694-2.754 11.264.549-.002 1.1.005 1.648-.01.141-.538.294-1.075.418-1.617l1.59-.117c.392 0 .555-.04.898.165.246.413.29.885.37 1.352l1.72-.112c-.275-1.468-1.991-9.99-2.568-10.8-.443-.181-.85-.14-1.322-.125m-19.977.136c-.868 2.606-2.39 8.188-2.666 10.766.59.081 1.186.185 1.781.216.138-.55.288-1.094.367-1.655.674.066 1.344.14 2.022.154.036.027.077.05.11.081.586.577.168 1.572 1.298 1.6.315.008.646-.034.96-.062-.594-3.644-1.27-7.447-2.213-11.014-.553-.041-1.104-.093-1.659-.087m8.347.117c-.378.373-.305.858-.309 1.37-.023 3.267-.098 6.58.023 9.844 1.656.056 3.311.124 4.969.095.262-.147.204-.047.268-.297.125-.486.036-1.117.017-1.62q-1.677-.065-3.354-.09c-.012-1.155.148-8.588-.262-9.185-.459-.177-.867-.138-1.352-.118"/><path d="M94.192 60.036c.35-.876 1.194-2.402 2.082-2.797.044-.02.093-.028.139-.042-.57.91-1.3 2.276-2.22 2.838m1.715-1.222-.12-.069zm61.222.194-.066-.008-.053-.107.057.006zm-60.784 2.679c.105-.313.171-.677.438-.89l.113-.019c-.021.361-.186.585-.453.828q-.047.042-.098.081m-.064.047.064-.047zm13.772 1.007-.005-.218.113-.012c-.074.22-.008.167-.108.23m-.409 1.58.01-.219c.004-.094.013-.188.014-.282.005-.5.095-.668.385-1.078-.084.528-.059 1.157-.41 1.578m.441.433c.062-.4.234-.782.306-1.195l-.061-.19.154-.282c.202.167.221.243.316.48-.049.453-.44.838-.715 1.187m-.556-.389.116-.044zm-10.398 1.833-.082-.041c-.028-.357.212-.648.388-.943l.074.07c.04.347-.208.615-.38.914m38.097 10.806.141-.124zm3.098 1.995-.182.024.039-.136.208-.068zm-12.75 1.813-.291-.018c-.156-.592-.285-1.23-.182-1.84l.163.146c.161.525.481 1.197.31 1.711m4.844-.986-.146.062c-.275-.184-.24-.368-.31-.678.062.027.129.046.186.08.26.156.242.263.27.536m.62-.023-.164.047-.104-.082.184-.594c.19.192.199.169.276.454zm-15.25.662c-.09.325-.127.648-.414.846-.014-.035-.034-.067-.045-.103-.16-.528.113-1.153.301-1.635.168.339.332.671.456 1.03.014.042.07.229.104.27.052.061.122.106.183.16-.061-.015-.12-.034-.182-.044-.04-.007-.082-.004-.123-.006zm16.538 3.801c-.166-.124-.24-.173-.452-.199-.23-.027-.109.04-.28-.128.19-.254.282-1.208.313-1.545.097-1.07-.475-.504-.984-1.077-.05-.407.053-.63.214-.99.091.253.156.433.341.635.178.193.396.349.463.615.188.749.216 1.593.564 2.293.097.196.15.295.144.524l-.18.073zm-17.083-.927c-.035-.005-.072-.004-.106-.016-.306-.103-.337-.193-.484-.462.001-.426.108-.603.339-.938.362.062.515.126.73.413.002.43-.236.676-.48 1.003m6.242.127c-.285-.104-.273-.132-.457-.352-.094-.394-.053-.542.075-.91.162.082.277.186.416.302.144.37.065.595-.034.96m-7.21 1.955c-.11-.128-.159-.159-.215-.308-.169-.454.148-.92.355-1.307.154.132.167.096.208.26.118.477-.148.941-.348 1.355m11.659-.096c0-.306.02-.538.109-.831l.055-.021.336.374.037-.398c-.116-.167-.17-.25-.192-.46q-.007-.075-.008-.152c.329.2.433.319.55.671-.137.445-.251.523-.58.835zm5.131-1.146-.21.143.096-.2.352-.115zm3.146.232-.1-.038zm-12.609.845c-.3.057-.493.084-.792.011.111-.308.374-.423.633-.615.257.19.35.314.482.605l-.09.134zm10.681.533.507-.992c.82.427.77 1.53 1.505 2 .274.177.36.12.638.023.369-.374.526-.824.727-1.3l.147-.007c.255.617-.447 1.282-.638 1.884.18.254.343.467.42.775l-.374.556c-.002.306.051.416.224.666.32.074.748.124.99.357.121.118.085.22.09.374l-.263.147c-.418.048-.685-.166-1.026-.372-.832-1.546-1.91-2.716-2.947-4.112m-17.285.46-.09.015.016-.099.106-.017zm-2.456-.041.088-.097zm14.775.714c-.082-.013-.165-.015-.244-.038-.347-.106-.479-.513-.642-.803l.133.04c.484.17.551.38.752.8m-15.412 1.103c-.124-.155-.338-.168-.526-.226-.067-.203-.138-.287-.071-.501.096-.31.253-.54.555-.67.233-.1.385-.2.588-.35l.092-.069c-.405.872-.309 1.335-.166 2.26l-.14.018zm25.515.424a1 1 0 0 1-.46-.241l-.01-.39c.154-.049.063-.042.27.05zm-26.767.451-.148.043c-.013-.31-.02-.536.066-.838l.246-.06q-.076.428-.164.854m15.984-.783-.14.053-.088-.16.19-.12zm1.445 1.317c-.083-.015-.17-.02-.25-.044-.35-.108-.418-.392-.572-.686.109.021.136.023.249.063.319.11.425.39.573.667m5.922 1.112a1 1 0 0 1-.264-.35l.13-.241.143-.046.126.083zm-5.995 1.251c-.19-.109-.365-.236-.545-.36-.078-.358 0-.439.141-.768.228.079.249.1.4.27.11.352.082.511.004.858m-11.964 4.623q-.004-.011-.01-.02c-.27-.282-.32-.408-.424-.775.067.025.141.035.2.076.366.252.455.597.991.604.206.002.235-.123.358-.266.18-1.359.6-1.867 1.564-2.776.12-.114.455-.358.53-.496.248-.45-.344-.96.035-1.918q.015.01.026.023c1.585 2.012-.107 1.49-.354 3.235-.167 1.183-.785.35-1.183 1.09-.208.387.128 1.012-.273 1.317-.627.478-.563.06-1.2.896-.222-.238-.21-.669-.26-.99m21.123-1.923a2.1 2.1 0 0 1-.586.718l-.208-.072c-.172-.423.146-.749.097-1.127-.038-.295-.832-1.739-.973-2.303.036.017.075.028.109.049.19.114.31.216.518.314l.14-.241.114.006c.246.476.735 1.473.603 2.013-.017.067-.041.132-.061.198zm-9.025-1.189c-.201.094-.09.062-.339.082l.148-.47.372.148.058.157zm-7.777 1.168-.13-.034.035-.144.156-.023zm7.692 1.108-.171-.15c.031-.341.228-.558.413-.839l.11.14c0 .37-.162.537-.352.849m-4.59 4.352.39.366c.472-.153.028.003.389-.152.407-.175.893-.085 1.207-.424-.017-.59-.554-.998-.953-1.393l.123-.087.056.014-.184.115.244-.088-.246.132.358-.062c.408.368.769.732 1.11 1.165.383-.485.9-.961.788-1.628-.077-.454-.49-.668-.85-.885l-.133-.079.012-.126c.327.042.517.052.79.248l.189.134.154.112.295-.016c.25-.281.372-.527.34-.916-.035-.438-.202-.648-.527-.93.057-.059.136-.161.206-.201.438.204.623.349.797.809.214.563.623 1.308.667 1.887-.636.144-.707-.736-1.327.166-.183.265-.174.47-.096.772.117.448.366.867.499 1.32-.39-.307-.78-.606-1.19-.888-.36.125-.54.496-.746.796-.396.12-1.585.325-1.776.666-.18.32-.156.577-.546.766-.114.055-.215.07-.335.094l-.11-.16c.1-.322.25-.554.436-.83.01-.243.01-.457-.031-.698m-7.887-.459c-.079-.412-.163-.796-.136-1.218.183-.375.443-.466.799-.636.014.262.04.171-.063.4-.219.488-.424.946-.6 1.454m2.121-1.214c-.353-.075-.683-.1-.938-.378l.136-.058c.341.002.55.232.802.436m5.766 1.674-.085-.053zm-.533 2.657c-.16.01-.326-.002-.487-.006-.348-.36-.42-.943-.685-1.388l-.065-.107c.079.03.16.054.236.09.532.247.88.869 1.001 1.41m3.034-.305-.424-.332c-.137-.347-.11-.383-.018-.75.242.056.346.108.553.233.099.378.015.488-.111.85m1.183-.361-.137-.046zm-6.045.962-.1-.044a5 5 0 0 0-.325.165l-.105.062c-.133-.314-.095-.655-.092-.99.322.197.619.4.92.626l-.032.14zm4.062.322c-.401.03-.771.11-1.132-.107l-.033-.233c.307-.079.883.222 1.164.34m-3.715.594-.177-.011-.003-.154.172-.02zm11.083 10.501c-.035-.45-.027-.92-.264-1.316-.17-.118-.427-.272-.55-.443-.286-.394-.239-1.085-.207-1.543.042-.59 0-.94-.208-1.5q.067-.01.136-.017c.385-.033.516-.019.805.222.18.533-.24 1.364-.286 1.942-.03.385.06.656.303.959l.263-.154c.487.44.194 1.192.497 1.724.226.399.817.8 1.17 1.098l-.033.162c-.316.17-.64.291-.815.622.235.935.911.477 1.37 1.06-.371 1.867.453 1.228.563 2.332-.11.054-.036.028-.236.027-.187-.365-.364-.677-.628-.992-.341.114-.155.513-.483.72l-.145-.154c-.13-.47.166-.894.268-1.346.075-.33-.031-.487-.21-.751-.318-.154-.672-.266-.85-.59.059-.388.368-.653.62-.937-.399-.347-.737-.724-1.08-1.125m-96.37-2.14-.109-.003c-2.221-.114-3.852-1.346-6.698-1.248-1.1.038-2.044.2-3.081.581-.473.174-1.355.647-1.803.573l.112-.14c5.255-2.365 6.365-1.515 11.58.237m13.781-1.264c-2.322-.066-4.153.335-6.382.97.851-.886 3.85-1.35 5.098-1.439q.19.004.38.011c1.69.072 2.925.624 4.481 1.169.412.144 1.045.22 1.328.532-.838.016-3.657-1.054-4.905-1.243m20.02.167c-4.542-1.062-8.644 2.127-11.543 1.342 1.013-.25 2.09-.165 3.13-.428 1.702-.432 3.259-1.308 5.004-1.57 1.361-.124 2.938-.09 4.233.397.874.328 1.629.738 2.546.967 1.538.384 3.076.375 4.649.368l-.134.067.303-.03-.021.057c-2.884.463-5.426-.432-8.167-1.17m48.132-.351-.127.02-.03-.2.069-.006zm14.889.82-.091-.039zm-14.659 1.5c-.111-.033-.227-.109-.331-.163-.183-.334-.112-.694-.089-1.06.166.079.319.178.476.273.133.372.032.57-.055.95m-75.394-.97h-.155zm37 .001h-.155zm-43.771.097c.113.01.224-.005.317.062-.071-.011-.26-.023-.317-.061m6.271.026h-.155zm12.896.039-.216-.066zm0 0c.26.012.527-.018.75.122-.287 0-.48-.023-.75-.123m63.206 2.678c-.198-.208-.263-.526-.359-.794.076-.492.191-.536.533-.877.256.095.265.104.415.332-.032.49-.35.922-.589 1.339m-1.847 1.848c-.198-.22-.127-.096-.216-.37.034-.026.07-.049.1-.08.468-.481.444-1.222.434-1.843.206.161.307.364.355.623.107.594-.376 1.19-.673 1.67m15.041-.773a1.4 1.4 0 0 1-.188-.551l.378-.379.142.117c.057.323-.167.538-.332.813m-10.115 1.649.124-.102zm11.232.495-.161.068-.071-.185.174-.072zm-16.936 1.341c-.12-.344-.191-.548-.153-.92.287-.327.417-.325.826-.44-.352.44-.303.77-.411 1.302zm-.432 2.114-.026.195-.133-.015c-.074-.606-.088-.991-.535-1.453.378.112.697.143.978.426-.038.31-.16.565-.285.846m20.354-.006c-.177.1-.067.054-.34.1-.258-.316-.246-.76-.291-1.152.277.034.41.114.637.273.118.355.089.412-.007.779m-20.967 1.963-.317-.096c-.24-.333-.186-.731-.19-1.125l.281.183c.234.346.217.638.226 1.038m11.404.692.018-.104zm-5.634 3.931c-.112-.23-.2-.4-.358-.604-.041-.052-.093-.097-.123-.156-.097-.183.547-.84.671-1.088.14-.28.244-.265.518-.4l.067.07c.055.61-.24 1.726-.583 2.23zm-.772 1.913c-.236-.191-.149-.07-.251-.372l.23-.126.243-.016zm.475 1.716-.115-.107c-.053-.874.427-1.486.858-2.205l.126.164c.025.566-.613 1.437-.822 2.014zm-1.555-1.534-.082-.03.037-.158.068.026zm-.05 2.665-.066.045-.106-.079.144-1.214.472.262c.056.414-.218.644-.444.986m13.125.458.206.179zm.206.179.288.142c-.035.258-.14.454-.254.687.152.15.26.193.453.278.26.563.602 1.348.422 1.971-.15.1-.174.173-.36.132a1.5 1.5 0 0 1-.438-.182l-.393-.296.013-.113c.37.05.713.12 1.075.216-.293-.562-.569-1.03-1.003-1.501-.104-.552.106-.804.197-1.334m-12.607 2.873c-.2.06-.403.11-.604.165l-.184-.135-.07-.645c.295.18.62.265.948.368zm14.481 2.267c-.124-.043-.374-.106-.489-.19-.315-.228-.29-.472-.348-.822.137.06.275.115.401.198.31.202.353.483.436.814m-1.134 1.16-.152-.12.085-.285.188.111zm1.999 2.517c-.206-.024-.388-.04-.581-.122-.15-.064.168-1.426-.022-1.833-.114-.247-.255-.495-.377-.738.277.057.41.108.625.29.206.69.39 1.685.355 2.404m-12.823.709-.056.082-.02-.136.08-.054zm13.566 1.167c-.327.023-.168.043-.475-.06-.248-.339-.198-.716-.2-1.117.34.232.52.798.675 1.177m-13.845 1.098c-.31-.151-.607-.306-.902-.484l.062-.372c.363-.025.66-.053 1.015.059.105.343-.037.48-.175.797m-.555 2.578c-.24-.24-.478-.43-.563-.771l.218-.34c.156.075.31.178.458.266.113.37.014.487-.114.845m-1.095 1.931-.134-.059c-.202-.313-.135-.523-.123-.89.287.104.32.05.472.334zm.398 1.974c-.263.028-.278.076-.512-.074l.111-.714c.245.047.33.069.545.21zm10.871.344-.193.059.157-.179.156-.038zm-12.123-.14.072.128zm.072.128.105.214zm.743 1.57c-.362.062-.501.157-.819-.043a6 6 0 0 1 .039-1.052h.146l.058.15c.156.393.266.656.576.944m0 .001.26.154zm12.021.72-.156.068-.003-.22.156-.092zm1.428 1.102-.144-.1c-.122-.441-.609-.778-.94-1.077.365.032.6.063.937.224.219.328.174.58.147.953m-14.045.388c-.122-.076-.234-.183-.345-.274l.048-.219c.097-.05.207-.075.312-.107zm12.598.144-.102.046-.139-.068.11-.23.236-.08.088.098zm1.617 1.113-.24-.088c-.236-.35-.244-.868-.298-1.283.03.017.063.03.09.05.383.287.401.89.448 1.321m-14.318.326.168-.477c.222-.078.13-.093.28-.036-.113.312-.17.322-.448.513m-.116.027.116-.028zm14.737 1.648-.316.023-.185-.172a7 7 0 0 0-.32-1.137c.297.028.413.092.649.272.203.353.181.623.172 1.013m.412 1.556-.272.098-.054-.226.135-.039zm-.495 1.8-.243-.108c-.255-.383-.224-.568-.249-1.02.063.03.13.053.188.09.263.163.267.759.303 1.038m-6.376 4.693c-.077-.046-.208-.118-.269-.18-.233-.234-.147-.489-.127-.785l.338.122c.191.31.098.494.058.843m3.916 1.749-.109.06-.04-.16.075-.026zm-8.623 3.892-.264.063-.166-.117-.02-.66c.261.074.32.056.512.263zm8.602.319-.189.077.033-.363.216-.037zm.529 1.221-.251.115.069-.354.207-.096zm.395 2.979-.095-.018c-.17-.325-.04-.745.011-1.094l.201.15c.113.359-.023.607-.117.962m-4.174 4.026-.149-.135c-.1-.383.091-.743.22-1.101l.144.13c.1.371-.097.755-.215 1.106m1.013-.016-.227.071c-.26-.235-.197-.493-.227-.832.248.027.351.043.537.213zm-.24 2.084c-.272.063-.143.072-.386-.01-.083-.43.174-.865.342-1.255l.475.577c-.03.38-.167.426-.431.688m-.253 2.064.159-.364.186-.05c.109.197.148.307.152.533zm-4.096.264-.152-.05zm0 0 .057.171zm.507 3.052c-.19-.24-.35-.419-.458-.71l.537-.291c.046.325.005.728.004 1.061zm-.298 1.51-.094-.102c-.02-.417.294-.75.519-1.078l.17.246c-.05.43-.315.613-.595.935m-.549 1.252a6 6 0 0 1-.453.438l-.15-.053c.047-.437.178-.711.39-1.094l.447.048c.235.17.257.17.337.446-.227.238-.259.181-.571.215m-.933 2.362c-.17-.088-.232-.223-.34-.377.012-.397.098-.423.35-.714.137.048.252.12.378.191.038.413-.161.564-.388.9m-17.162 18.924c-.301.144-.742.318-1.076.345-.33.027-.408-.048-.651-.234-.354-.756-.157-1.859-.123-2.682.525.025 1.049.057 1.518.319.344.191.642.478.716.881.094.508-.13.951-.384 1.37m28.953 3.877c-.287.02-.545.014-.83-.015.065-1.092.454-2.248.71-3.314.037.05.08.094.109.148.272.513.667 2.304.479 2.878-.061.188-.302.226-.469.303m-19.688-.002c-.298-.058-.51-.087-.775-.246-.351-.735.303-2.038.479-2.838.042.046.097.083.126.138.327.611.537 2.044.468 2.72z"/></svg>