<svg xmlns="http://www.w3.org/2000/svg" viewBox="0 0 256 256"><path d="M123.997 0h7.873c1.861 1.51 5.177 5.008 7.726 4.77 1.091-.102 2.091-.689 3.021-1.227 3.938-2.278 7.268-4.931 11.584-1.535 2.022 1.592 3.956 5.051 5.786 6.134.47.28 1.04.424 1.561.579 4.177-.927 8.755-3.797 12.863-1.072 3.051 2.023 3.76 6.084 6.305 8.528l.199.042c4.638.964 10.629-3.078 14.064 2.19 1.706 2.618 1.92 8.608 5.062 9.343 3.403.797 6.72-1.006 10.01 1.11.805.518 1.506 1.167 2.03 1.973 2.3 3.54.449 10.021 5.196 11.123 3.37.783 7.373.354 9.556 3.622 2.251 3.37.853 7.285 1.334 11.002l.113.135c2.841 3.322 8.293 2.085 10.915 6.234.874 1.382 1.122 3.038.995 4.646-.19 2.414-1.886 6.294-.215 8.382.702.878 1.773 1.4 2.743 1.925 3.826 2.07 7.372 3.954 6.942 8.958-.11 1.264-.504 2.456-.97 3.63-.77 1.94-2.478 4.594-.93 6.531.567.71 1.363 1.243 2.094 1.77 2.801 2.02 5.621 3.894 5.226 7.831-.355 3.518-4.588 7.976-3.983 10.628.255 1.114 1.06 2.07 1.75 2.947 1.143 1.454 2.213 2.86 3.153 4.46v6.565c-.535.895-1.077 1.764-1.713 2.595-.967 1.272-2.362 2.643-2.95 4.133a3.37 3.37 0 0 0-.124 2.052c.257 1.082.89 2.063 1.467 2.999 2.1 3.405 3.935 6.163 1.63 10.063-1.79 3.03-5.72 4.892-6.973 7.181-.471.861-.52 1.669-.265 2.61.954 3.528 3.8 6.807 1.767 10.609-1.884 3.523-7.871 4.655-9.043 7.543-1.365 3.362 2.403 8.682-.733 12.468-2.602 3.14-8.66 3.05-10.416 5.9-.466.756-.456 1.722-.492 2.581-.163 3.98.482 8.777-3.924 10.74q-.391.172-.796.306-.309.104-.622.192c-2.21.626-6.915.79-8.079 2.86-.503.896-.65 1.951-.833 2.947-.667 3.642-1.174 7.574-5.327 8.823-3.689 1.11-8.84-1.14-10.828 2.549-1.894 3.514-1.767 8.197-6.303 9.671-3.566 1.159-7.129-.806-10.764-.122l-.115.09c-3.046 2.44-2.982 7-7.267 8.94a6.5 6.5 0 0 1-3.38.541c-2.998-.308-7.668-3.5-10.264-1.48-.649.506-1.179 1.219-1.712 1.842-2.096 2.45-4.66 6.066-8.316 5.713-3.458-.332-7.95-4.825-10.802-4.403-1.217.18-2.492 1.088-3.435 1.84-1.22.975-2.41 1.993-3.608 2.993h-7.876c-2.053-1.303-3.78-3.732-6.04-4.607-3.978-1.536-8.612 5.642-13.585 4.022-4.363-1.42-6.279-7.92-9.698-8.284-3.086-.328-6.783 3.234-10.61 2.406-3.778-.816-4.885-4.827-6.699-7.69-.482-.76-1.148-1.68-1.966-2.085-1.778-.88-7.924 1.117-10.92.39-4.587-1.111-4.264-7.053-6.37-10.296-.476-.731-1.12-1.326-1.96-1.601-2.116-.694-5.985.248-8.559-.376-4.508-1.093-4.684-5.22-5.395-9.005-.189-1.008-.389-2.116-.953-2.99-1.371-2.124-5.799-2.145-8.117-2.69-5.673-1.336-4.946-5.673-4.968-10.234-.006-1.055.02-2.207-.394-3.197-1.503-3.6-7.908-2.945-10.458-5.934-3.644-4.272.791-9.567-.747-13.252-1.21-2.9-7.176-3.572-9.041-6.725-2.432-4.109.74-7.56 1.582-11.476.61-2.836-2.327-4.492-4.172-6.04-1.112-.933-2.22-1.987-3.004-3.22-2.345-3.69-.145-6.846 1.798-10.037.555-.912 1.173-1.86 1.39-2.922.463-2.267-1.6-4.208-2.902-5.81A41 41 0 0 1 0 131.53v-6.895c1.707-3.097 4.461-4.907 5.133-8.526-.966-2.936-3.366-5.275-4.101-8.288-1.563-6.408 6.985-8.849 7.7-12.879.53-2.976-2.609-6.583-2.38-10.003.05-.733.333-1.438.664-2.088 1.865-3.663 5.686-4.268 8.296-6.608.483-.434.964-.988 1.166-1.617.624-1.95-.868-6.055-.677-8.524.544-7.013 7.966-5.703 11.221-8.602 1.716-1.527.814-5.816.953-8.033q.014-.225.038-.448.043-.415.124-.823c.976-4.789 4.774-5.288 8.847-5.97l.421-.07q.31-.052.62-.11c.96-.184 1.96-.42 2.726-1.066 2.277-1.923 1.243-7.628 3.373-10.523 3.5-4.759 9.535-1.11 12.996-3.51 2.24-1.555 2.28-7.768 5.143-10.158 3.28-2.74 7.307-.844 10.996-.519 3.996.353 5.444-6.393 8.26-8.656 4.385-3.524 8.388.959 12.3 1.215.782.051 1.497-.166 2.14-.613 1.882-1.308 3.738-4.49 5.788-6.186 4.086-3.38 7.698-.688 11.475 1.473.963.55 1.988 1.158 3.119 1.24 2.19.16 5.994-3.368 7.656-4.743m3.605.659c-4.165.831-7.808 5.868-10.745 5.942-4.304.108-7.814-5.714-12.54-4.099-3.866 1.322-5.42 7.424-9.209 8.062-4.758.8-9.656-6.485-14.197.343-1.465 2.202-3.107 6.563-5.897 7.158-3.84.82-9.296-3.485-12.455 1.014-2.27 3.233-1.74 9.338-6.473 10.241-3.318.633-8.218-1.128-10.452 2.153-2.946 4.328.17 10.744-6.782 12.191-2.526.526-6.61.503-8.252 2.888-2.344 3.404.403 8.28-1.703 11.57-1.73 2.703-7.742 2.499-10.271 5.28-3.198 3.518 1.388 9.163-.824 12.749-2.167 3.513-10.743 4.56-9.617 10.472.646 3.399 3.97 6.924 1.668 10.322-2.089 3.085-7.942 5.782-7.2 10.169.694 4.095 6.157 7.822 3.367 12.092-1.75 2.678-6.044 5.984-5.31 9.549.781 3.804 6.123 7.057 6.25 10.284.162 4.162-5.633 7.596-4.073 12.255 1.4 4.182 8.005 5.502 8.07 10.102.065 4.635-6.065 9.5.08 13.292 2.428 1.498 6.763 2.685 7.505 5.76.98 4.066-3.397 10.08 1.055 12.99 3.254 2.125 8.797 1.645 9.88 6.226.788 3.338-1.003 9.02 2.422 11.132 4.14 2.554 9.835-.503 11.61 6.179.7 2.634.61 6.955 3.178 8.53 3.3 2.024 8.42-.576 11.376 1.678 3.414 2.603 2.765 9.928 6.858 11.295 3.656 1.22 8.939-2.519 12.134.243 3.74 3.233 3.256 10.75 10.264 8.843 2.53-.689 6.431-3.436 9.033-1.958 3.592 2.04 5.406 9.346 10.575 8.124 4.117-.975 7.922-6.258 12.324-3.637 2.965 1.762 4.326 4.365 7.969 5.17 5.632-.085 7.867-6.177 12.217-5.967 4.513.217 8.233 6.767 13.054 3.677.608-.388 1.154-.89 1.656-1.408 1.845-1.896 4.37-6.11 7.22-6.215 4.283-.16 8.789 5.015 12.882.757 2.47-2.571 3.263-8.081 7.513-8.272 3.64-.163 7.862 2.538 10.896-.669 3.206-3.388 1.875-10.386 7.962-10.654 2.903-.127 7.2.61 9.353-1.747 2.577-2.822 1.352-8.531 3.982-10.854 3.082-2.722 9.423-.732 11.611-4.812 1.788-3.333-.398-9.362 2.48-11.857 3.5-3.036 10.855-1.956 10.353-8.631-.223-2.957-1.737-7.048.467-9.544 2.485-2.814 9.127-4.162 8.835-8.781-.253-4.014-4.55-7.971-1.367-11.782 2.359-2.824 7.529-4.909 7.219-9.274-.258-3.604-4.004-6.27-4.268-9.808-.26-3.473 5.305-6.938 5.963-10.78.812-4.738-6.095-7.985-6.056-12.077.044-4.543 8.213-9.444 1.738-14.808-1.887-1.565-5.352-3.07-5.612-5.785-.444-4.619 5.937-9.437.642-14.03-2.528-2.194-8.099-3.458-8.48-7.174-.423-4.127 3.139-8.665-.99-12.121-3.072-2.573-9.633-1.67-10.211-6.739-.358-3.132 1.124-7.857-1.62-10.177-2.993-2.534-8.3-.785-10.972-3.718-2.98-3.268-.456-9.295-4.816-11.881-3.45-2.046-8.97 1.159-11.696-1.966-3.165-3.626-1.54-11.657-8.864-10.86-2.815.307-6.387 1.966-8.919 0-3.503-2.721-3.51-9.713-9.696-9.116-3.588.346-7.65 3.895-11.016 1.15-2.922-2.382-4.895-7.462-9.344-7.097-1.078.089-2.144.588-3.087 1.09-5.44 2.902-6.309 5.396-12.098.751-1.916-1.537-3.934-3.438-6.55-3.425"/><path d="M8.622 117.977c.13-4.317-2.792-6.128-4.176-9.808-2.015-5.356 5.866-7.503 7.626-11.62 1.042-2.437-.834-5.436-1.712-7.717-.341-.885-.723-1.856-.787-2.811-.302-4.547 7.83-5.905 9.912-9.083 1.838-2.803-1.84-8.56-.23-11.933 1.145-2.402 5.567-3.047 7.923-3.864 7.016-2.432 2.088-8.89 4.336-13.285 1.457-2.848 7.316-2.451 10.123-3.449 4.462-1.585 2.934-7.781 4.686-11.271 2.01-4.004 8.217-1.407 11.734-2.666 3.42-1.224 3.702-6.554 5.133-9.421.207-.413.434-.815.733-1.169 2.822-3.346 8.681.68 12.281-.476 3.593-1.154 4.243-6.627 6.986-8.948 3.722-3.15 8.335 2.465 12.385 1.827 3.977-.628 5.58-7.263 9.49-8.424 2.514-.746 5.513 1.802 7.603 2.911 1.2.636 2.634 1.329 4.004 1.429 3.597.261 6.898-4.813 10.514-5.92l.134-.013c3.984-.356 6.86 4.73 10.545 5.863 3.887 1.194 8.052-4.347 12.174-4.31 3.755.035 5.73 6.408 9.418 7.844 3.867 1.506 7.527-2.415 11.487-1.81.675.104 1.409.332 1.949.763 1.582 1.266 2.57 3.6 3.62 5.304.61.988 1.274 1.917 1.969 2.846.937.236 1.665.809 2.666.903 2.897.274 5.895-1.46 8.71-.876 3.327.69 3.963 5.436 4.964 8.122.417 1.12.94 2.057 1.606 3.049 3.833 2.037 7.535.065 10.694 1.133 3.472 1.175 3.207 5.499 3.77 8.404.255 1.312.703 2.443 1.284 3.643.314.188.588.416.872.645 2.343 1.892 8.152 1.144 10.428 3.157 3.087 2.73-.033 8.577 2.062 11.924 1.962 3.133 8.094 2.621 10.557 5.546 2.149 2.553.064 6.517-.18 9.445-.534 6.403 6.768 6.316 9.656 9.927 2.545 3.182-1.528 8.066-1.898 11.512-.467 4.346 5.17 5.888 7.352 8.73 2.925 3.814-3.083 8.43-3.514 12.325-.31 2.796 2.841 5.449 4.422 7.483.792 1.017 1.702 2.258 1.894 3.562.473 3.18-4.797 7.313-6.035 10.367-.232.573-.29 1.208-.367 1.817.403 1.011.764 2.007 1.295 2.964 1.067 1.922 2.68 3.856 3.243 5.99 1.262 4.796-7.451 7.398-8.496 11.86-.71 3.029 3.067 7.25 2.694 10.437-.314 2.687-5.531 4.631-7.605 6.194-.824.62-1.615 1.328-2.052 2.286-1.001 2.198-.046 5.816.272 8.144.112.827.308 1.727.164 2.555-.579 3.331-7.652 4.168-10.228 6.08-.6.447-1.108 1.044-1.373 1.751-.658 1.763-.264 6.33-.564 8.566-.118.888-.339 1.804-.953 2.487-2.271 2.525-8.502 1.21-11.145 3.64-2.789 2.563-1.2 8.25-3.593 10.983-2.625 2.998-8.972.121-12.157 2.145-3.394 2.157-2.609 8.523-5.766 10.832-2.113 1.544-5.604.312-7.993-.076-5.355-.87-6.323 2.59-8.48 6.462-.554.994-1.13 1.96-2.09 2.622-3 2.07-7.345-1.117-10.513-1.649-4.816-.809-6.917 5.385-10.253 7.7-3.675 2.553-8.348-3.33-12.054-3.858-3-.426-5.66 2.441-7.86 4.121-1.222.935-2.832 2.123-4.449 1.903-3.733-.598-5.576-4.423-8.94-5.697-4.496-1.704-8.367 4.139-12.455 4.261-3.412.106-5.88-5.498-8.165-7.585-.523-.479-1.157-.904-1.865-1.041-2.886-.563-7.83 2.575-11.428 2.798-4.088-2.386-4.12-7.951-7.55-9.833-3.284-1.803-8.678 1.7-11.726.297-2.45-1.129-3.108-5.274-4.022-7.591-2.39-6.055-5.426-4.332-10.568-4.459-1.001-.025-2.054-.126-2.971-.554-2.574-1.2-2.455-7.241-3.445-9.782-2.01-5.165-7.298-2.912-11.056-4.704-.865-.413-1.457-1.152-1.746-2.06-.83-2.604.353-6.808-.733-9.863-1.398-3.935-6.515-3.74-9.714-5.378-4.466-2.286.285-8.78-1.274-13.377-.935-2.758-4.71-3.917-7.119-5.169-.925-.48-1.92-1.061-2.475-1.974-1.751-2.877 2.871-7.964 2.307-11.514-.741-4.665-7.273-5.94-8.365-9.827-.74-2.632 2.424-6.3 3.633-8.607.478-.912.933-1.96.921-3.007-.04-3.634-5.55-6.634-6.57-10.248-.752-2.668 3.246-6.317 4.84-8.311.634-.793 1.141-1.639 1.639-2.52M123.616 13.07q-1.406.052-2.81.14-1.404.086-2.806.207-1.402.122-2.8.278t-2.792.347-2.783.416-2.772.485q-1.382.26-2.758.554t-2.745.621-2.727.69-2.71.757q-1.351.395-2.691.823-1.34.429-2.67.89-1.328.462-2.646.957t-2.622 1.02-2.595 1.087q-1.291.559-2.568 1.15t-2.539 1.213-2.508 1.276-2.475 1.337-2.442 1.398-2.406 1.459-2.37 1.517-2.33 1.577-2.292 1.633-2.25 1.689-2.208 1.745-2.163 1.799q-1.07.912-2.118 1.851-1.048.94-2.073 1.904-1.024.965-2.024 1.954-1 .99-1.974 2.005-.975 1.014-1.925 2.052-.977 1.043-1.928 2.11-.95 1.068-1.873 2.159-.924 1.09-1.82 2.204-.896 1.113-1.764 2.249-.868 1.135-1.708 2.291-.84 1.157-1.65 2.334t-1.59 2.375-1.532 2.413-1.471 2.45-1.41 2.487-1.347 2.52q-.658 1.27-1.284 2.554-.626 1.285-1.22 2.585t-1.155 2.614-1.09 2.642-1.023 2.669-.956 2.693-.89 2.716-.82 2.738-.754 2.758-.683 2.775-.615 2.79-.545 2.807-.474 2.818-.405 2.83-.333 2.838-.263 2.846-.192 2.852-.12 2.855-.05 2.858.021 2.858q.03 1.429.093 2.857c1.066 29.292 15.275 58.415 36.663 78.243 20.758 19.244 46.033 30.104 74.396 31.118 2.606.093 5.254.031 7.862-.02q1.422-.056 2.842-.148 1.42-.091 2.837-.218t2.832-.289 2.823-.358 2.813-.43 2.802-.498q1.398-.266 2.788-.567 1.391-.302 2.774-.637 1.383-.336 2.757-.706t2.739-.774 2.719-.841 2.697-.909q1.342-.471 2.673-.975 1.33-.505 2.649-1.042 1.317-.537 2.621-1.107 1.304-.569 2.594-1.171t2.564-1.236 2.531-1.298q1.259-.666 2.5-1.362t2.464-1.423q1.224-.726 2.429-1.483t2.391-1.543q1.186-.787 2.352-1.603t2.311-1.66 2.27-1.717 2.226-1.773 2.182-1.828 2.135-1.88 2.088-1.934 2.04-1.985 1.99-2.035 1.938-2.083c21.23-23.136 31.815-51.367 30.418-82.725-1.29-28.958-15.325-58.982-36.747-78.523-3.753-3.423-7.668-6.75-11.811-9.697-20.132-14.318-45.375-22.349-70.137-21.296q-.286.013-.572.037"/><path d="M132.875 241.478q-1.343.058-2.686.085t-2.687.022-2.687-.043-2.685-.108-2.681-.172-2.677-.236-2.67-.3-2.663-.365-2.653-.428-2.642-.492-2.629-.555-2.615-.618-2.6-.68-2.582-.743-2.565-.804-2.543-.866q-1.267-.448-2.523-.927-1.255-.478-2.5-.986-1.243-.509-2.474-1.047t-2.45-1.106-2.421-1.163q-1.205-.597-2.394-1.222t-2.364-1.28q-1.173-.653-2.331-1.334-1.159-.682-2.3-1.391-1.141-.71-2.265-1.446t-2.23-1.5q-1.106-.762-2.193-1.552t-2.155-1.605-2.117-1.656q-1.048-.84-2.076-1.706-1.028-.865-2.034-1.755c-23.584-20.98-37.483-48.844-39.336-80.394-1.667-28.376 9.388-58.503 28.216-79.69q2.144-2.44 4.414-4.763t4.657-4.524q2.389-2.201 4.89-4.273t5.106-4.01c12.41-9.137 27.486-16.048 42.584-19.213 6.432-1.348 12.876-1.943 19.426-2.328 4.056-.23 8.194-.08 12.242.226 22.575 1.702 45.734 10.647 63.214 25.127q1.113.909 2.203 1.845t2.157 1.9 2.11 1.952 2.06 2.004 2.009 2.055 1.958 2.104 1.905 2.152 1.851 2.199 1.796 2.243 1.74 2.288q.855 1.155 1.682 2.33t1.624 2.371q.798 1.196 1.565 2.411t1.504 2.45q.737 1.233 1.443 2.485t1.381 2.52q.675 1.27 1.318 2.554.643 1.285 1.254 2.586.612 1.301 1.19 2.617.579 1.315 1.125 2.645.545 1.33 1.058 2.672.512 1.342.991 2.697.48 1.356.925 2.722t.856 2.743.788 2.764.72 2.783.65 2.8.58 2.814.51 2.829q.238 1.417.44 2.84.203 1.423.37 2.85t.298 2.859q.117 1.347.201 2.697t.136 2.7q.05 1.352.069 2.704.018 1.352.004 2.704-.015 1.353-.063 2.704t-.129 2.701-.194 2.698-.26 2.691-.326 2.685-.39 2.676q-.213 1.335-.457 2.665t-.521 2.654q-.277 1.323-.585 2.64-.31 1.316-.65 2.625-.341 1.309-.714 2.608t-.777 2.59-.84 2.571-.903 2.55-.964 2.526-1.026 2.502-1.087 2.477-1.146 2.449-1.206 2.42-1.265 2.391-1.322 2.359-1.38 2.326q-.704 1.154-1.436 2.291t-1.492 2.256-1.546 2.219-1.6 2.18-1.652 2.141-1.704 2.1c-18.2 21.691-41.394 35.954-69.45 40.822-4.54.788-9.128 1.014-13.707 1.415m-8.56-225.405q-3.006.072-6.002.32t-5.972.672-5.923 1.02-5.853 1.368c-20.608 5.34-38.335 16.183-53.054 31.48q-.845.878-1.67 1.774-.826.896-1.632 1.81-.806.913-1.593 1.844t-1.552 1.879-1.51 1.911-1.47 1.944-1.427 1.975-1.383 2.006-1.34 2.036-1.295 2.063q-.637 1.04-1.251 2.092t-1.205 2.118q-.591 1.065-1.159 2.143t-1.112 2.168-1.064 2.192-1.018 2.214q-.496 1.113-.969 2.236-.472 1.123-.92 2.256t-.871 2.276-.822 2.294-.772 2.311-.721 2.328q-.348 1.167-.671 2.342t-.62 2.356-.57 2.37q-.27 1.187-.517 2.38-.246 1.194-.466 2.392-.22 1.199-.414 2.402t-.361 2.41q-.168 1.206-.31 2.416t-.257 2.424-.205 2.427c-.22 3.085-.424 6.175-.36 9.269.043 2.088.273 4.197.442 6.279q.084 1.008.186 2.015.101 1.006.221 2.01.12 1.005.258 2.008.138 1.002.293 2.001.156 1 .33 1.996.174.997.366 1.99.191.994.401 1.983t.437 1.976q.227.985.473 1.967.245.981.507 1.958.263.977.543 1.95.28.971.578 1.938t.613 1.928.647 1.917q.333.956.682 1.905t.716 1.892.75 1.88q.384.935.784 1.864.4.93.817 1.851.417.922.85 1.836t.884 1.82.915 1.804.948 1.788q.483.889.98 1.77.498.88 1.012 1.751.514.872 1.044 1.734.529.862 1.074 1.714.545.853 1.105 1.695t1.135 1.675 1.165 1.654 1.195 1.632 1.224 1.611c2.937 3.85 6.102 7.704 9.606 11.055 2.046 1.957 4.092 3.964 6.244 5.803 16.095 13.754 34.7 22.57 55.664 25.798 5.805.893 11.898 1.543 17.78 1.418q1.237-.038 2.47-.107 1.392-.048 2.782-.13 1.389-.082 2.776-.198 1.387-.117 2.771-.268t2.763-.337 2.755-.405 2.743-.474 2.73-.541 2.716-.61q1.355-.322 2.7-.677t2.683-.744 2.663-.81q1.326-.423 2.642-.877 1.316-.455 2.62-.943 1.303-.487 2.595-1.007 1.291-.52 2.569-1.071 1.278-.552 2.542-1.135t2.513-1.198q1.249-.614 2.482-1.26 1.233-.645 2.45-1.321 1.217-.677 2.417-1.382 1.199-.707 2.38-1.442 1.183-.736 2.346-1.501 1.162-.765 2.306-1.559 1.143-.793 2.267-1.615t2.226-1.671q1.103-.85 2.184-1.727 1.081-.876 2.14-1.78 1.06-.903 2.095-1.833 1.037-.929 2.05-1.884t2.001-1.935 1.952-1.984q.965-1.004 1.903-2.032c2.77-2.998 5.28-6.195 7.735-9.45 11.185-14.831 17.865-30.316 20.754-48.692 1.008-6.409 1.579-13.008 1.305-19.5q-.28-7.706-1.497-15.32-.196-1.162-.416-2.32t-.465-2.312-.511-2.3-.56-2.29q-.291-1.143-.606-2.279t-.654-2.265-.7-2.25q-.362-1.123-.747-2.237t-.792-2.22q-.408-1.106-.839-2.203-.43-1.097-.883-2.186-.454-1.088-.929-2.166-.476-1.08-.973-2.148-.498-1.068-1.018-2.126t-1.061-2.105-1.104-2.083q-.563-1.035-1.148-2.06-.584-1.023-1.189-2.035-.605-1.011-1.231-2.01t-1.273-1.984q-.647-.986-1.314-1.958-.666-.972-1.353-1.93t-1.393-1.902q-.707-.943-1.432-1.872-.726-.929-1.471-1.843t-1.508-1.811-1.546-1.78q-.781-.883-1.582-1.748-.8-.866-1.617-1.715-.818-.849-1.653-1.681t-1.687-1.647-1.721-1.61q-.77-.705-1.555-1.395-.783-.69-1.58-1.365-.796-.675-1.605-1.335t-1.63-1.305-1.654-1.275q-.832-.63-1.677-1.244-.844-.614-1.7-1.212t-1.722-1.18-1.744-1.148-1.766-1.116-1.785-1.082-1.806-1.049-1.825-1.015-1.843-.981-1.861-.947-1.879-.911-1.895-.876q-.951-.43-1.911-.841-.96-.412-1.927-.806-.966-.394-1.94-.77-.975-.375-1.956-.732-.98-.358-1.968-.697t-1.981-.66q-.994-.32-1.993-.622t-2.005-.586-2.014-.548q-1.01-.264-2.025-.51t-2.034-.473-2.042-.435-2.05-.396q-1.027-.19-2.057-.359-1.03-.17-2.064-.32c-5.865-.891-12.023-1.465-17.957-1.183q-.631.029-1.26.086"/><path d="M131.046 236.49c-4.654.069-9.35.05-13.984-.41-21.867-2.17-43.442-11.288-59.77-26.086-4.66-4.225-9.284-8.708-13.287-13.564q-.689-.844-1.361-1.702T41.316 193t-1.292-1.755q-.638-.883-1.258-1.78-.62-.895-1.222-1.804-.602-.908-1.186-1.828t-1.15-1.851-1.112-1.875q-.546-.942-1.074-1.895-.529-.953-1.037-1.917-.51-.963-1-1.937-.489-.973-.96-1.956-.47-.983-.92-1.975t-.882-1.993-.841-2.01-.802-2.027-.761-2.042-.721-2.057-.68-2.07-.638-2.084-.596-2.096-.555-2.107-.513-2.118-.47-2.128q-.226-1.066-.43-2.137t-.385-2.145-.343-2.152-.3-2.158q-.14-1.081-.258-2.164t-.214-2.169-.171-2.173-.128-2.175c-1.36-29.021 9.24-55.988 28.661-77.36q.745-.829 1.507-1.642.761-.814 1.54-1.612.778-.798 1.572-1.58.795-.782 1.605-1.547t1.637-1.514q.825-.749 1.667-1.48.84-.732 1.697-1.446.855-.714 1.726-1.41.87-.697 1.755-1.375t1.783-1.338 1.81-1.302 1.836-1.264 1.861-1.226 1.887-1.187 1.91-1.149 1.934-1.11q.972-.544 1.956-1.069.983-.524 1.977-1.029t1.999-.988 2.018-.947 2.037-.905 2.055-.864q1.032-.42 2.073-.82t2.088-.779 2.105-.735 2.119-.692q1.063-.335 2.133-.648t2.145-.604 2.158-.56 2.169-.516 2.179-.472q1.091-.224 2.188-.426c5.476-.977 10.97-1.381 16.517-1.644.111-.037.139-.051.27-.066 1.359-.154 2.954.056 4.316.13 2.896.156 5.774.307 8.659.613q.888.091 1.775.198.887.106 1.773.227.885.12 1.768.256t1.763.286 1.76.314q.877.164 1.753.343t1.747.372q.873.193 1.742.4t1.734.43q.865.222 1.727.458t1.72.486 1.71.514 1.703.543 1.693.57 1.684.598 1.673.626 1.663.653 1.652.68 1.641.708 1.629.734 1.616.761 1.604.788 1.59.813 1.578.84 1.563.866 1.548.891q.77.452 1.534.917.763.464 1.518.941.756.477 1.503.967t1.486.991 1.47 1.015q.732.514 1.454 1.04c3.693 2.73 7.13 5.753 10.485 8.887q.986.935 1.949 1.895t1.902 1.942 1.854 1.989q.915 1.005 1.804 2.033.89 1.027 1.754 2.076.865 1.05 1.703 2.12t1.65 2.16 1.597 2.2 1.543 2.239q.757 1.128 1.487 2.275t1.43 2.312q.702 1.164 1.375 2.345.672 1.181 1.316 2.379.643 1.197 1.257 2.41t1.198 2.44 1.137 2.47q.554 1.241 1.077 2.495t1.016 2.522.953 2.546.89 2.569.828 2.59.763 2.608q.366 1.31.7 2.627.334 1.318.635 2.644.301 1.325.57 2.657t.505 2.672.439 2.683.373 2.692.307 2.701q.137 1.353.24 2.708.104 1.355.175 2.713t.108 2.716c.203 5.936-.262 11.06-1.102 16.918q-.14 1.01-.3 2.016t-.339 2.01-.377 2.003-.416 1.995q-.218.995-.455 1.987-.237.99-.493 1.977-.257.986-.532 1.968-.276.981-.57 1.957t-.607 1.945-.645 1.934-.683 1.92q-.35.957-.719 1.907-.37.95-.756 1.893-.388.942-.793 1.877-.406.935-.83 1.862t-.865 1.846q-.441.918-.9 1.828-.46.91-.936 1.81-.477.901-.971 1.792-.495.892-1.006 1.773-.511.882-1.04 1.754-.528.87-1.073 1.732-.545.861-1.107 1.711t-1.14 1.69-1.172 1.667-1.204 1.644-1.237 1.62q-.626.805-1.267 1.597-.642.792-1.298 1.572-.657.779-1.328 1.546-.672.766-1.358 1.52-.687.752-1.388 1.493c-20.501 21.908-46.735 34.315-76.807 35.326m19.969-116.864.077.132c.24 2.041 1.37 4.894 1.835 7.065.585 2.725.859 5.575.992 8.355.296 6.146-.145 11.863-3.39 17.269-1.097 1.828-2.497 3.53-3.928 5.11-.862.952-2.012 1.898-2.635 3.025l.076.233.363.153c4.642-4.645 8.904-9.19 9.976-15.974.774-4.897.57-10.84-.399-15.727-.37-1.863-.917-3.698-1.442-5.521-.37-1.28-.668-2.907-1.448-3.987zm-36.751 44.197q-.08-.055-.162-.107c-.428-.259-1.109-.157-1.596-.238-.386-.064-.772-.289-1.148-.323-.136-.012-.367.069-.49.102l-.096.173c1.146.496 2.831.875 4.075 1.018.183-.177.184-.109.197-.333.019-.32-.085-.6-.18-.903.25-.055.17-.086.383.052.242.156.307.286.436.533l.066-.138c.22-.45.401-.66.885-.826.877-.302 1.98-.259 2.908-.394.872.055 1.445.163 2.036.85s.903 1.584 1.448 2.314c-.31-1.335-.576-2.6-1.454-3.697-2.102-.381-5.184-.139-6.998 1.095-.253.172-.288.227-.379.505zm25.817 1.266-.097.237-.129.09-.146.203.147-.203.128-.09zl.168-.059zM127.99 22.57c-1.698 2.823-3.68 5.496-5.568 8.194-1.685 2.407-3.292 4.862-5.106 7.176.674.294 1.77.636 2.032 1.392.07.2-.028.289-.11.469-.407.298-.955.581-1.135 1.054.107.27.205.435.477.566.167.08.313.108.495.11 1.022.01 2.104-.22 3.127-.308q2.841-.224 5.692-.238c1.776.03 8.57.597 9.694.293.135-.27.15-.4.12-.7-.23-.334-.559-.478-.905-.668-.145-.261-.198-.355-.097-.665.22-.671 2.047-.858 1.8-1.386-.409-.873-1.62-2.132-2.23-3.03-1.273-1.872-7.047-11.532-8.286-12.259m-32.12 4.77a4.8 4.8 0 0 0-.487.95c-.467 1.3-.825 2.649-1.255 3.963q-1.498 4.425-2.892 8.884c-.355 1.142-1.045 2.611-1.144 3.788.178.311.267.392.622.483.542.139 1.063.072 1.552.388.146.268.198.43.12.738-.204.8-1.1 1.187-.91 2.066.243.192.388.296.71.267 1.078-.098 2.537-.895 3.567-1.3 1.857-.73 3.74-1.506 5.661-2.052 1.53-.527 3.058-1.013 4.627-1.411 1.33-.337 2.741-.597 4.039-1.029.296-.098.483-.1.654-.366-.29-.846-2.253-1.141-1.771-2.187.192-.416.836-.88.63-1.388-.2-.489-12.9-11.385-13.723-11.795m64.201.136c-2.048 1.551-3.95 3.286-5.934 4.918-2.287 1.88-4.732 3.712-6.858 5.768-.5.484-.962.979-1.312 1.584.53.275 1.347.58 1.578 1.169.08.201.007.317-.042.516-.401.398-2.017.84-2.063 1.227 1.189.92 7.043 2.025 8.968 2.642 1.175.389 9.262 3.438 9.403 3.444.09.003.453-.14.53-.191.117-.079.14-.126.214-.229.018-.967-1-1.238-.403-2.262.609-.47 1.93-.15 2.121-.82-.514-1.997-5.299-17.24-6.01-17.723zM66.06 42.303c.087 3.768.39 7.566.598 11.33.101 1.825.318 3.72.179 5.543-.027.36-.032.563.158.888.56.458 2.691.273 2.685 1.005-.01 1.02-1.441 1.917-.706 2.94.195.05.3.14.48.032 1.157-.695 2.173-1.688 3.221-2.54a135 135 0 0 1 5.263-4.084c1.314-.947 2.627-1.894 3.985-2.777.73-.474 1.813-.945 2.43-1.516.148-.135.302-.492.337-.687.03-.163.02-.196.008-.343-.156-.167-.123-.178-.363-.223-.394-.073-.723-.09-1.017-.388-.126-.316-.236-.528-.103-.866.204-.522.723-.781.796-1.358-.989-1.045-8.619-3.437-10.43-4.113-2.517-.941-4.972-1.977-7.52-2.843m122.68.453-10.423 3.779c-1.787.643-3.78 1.193-5.477 2.03-.33.163-.411.198-.603.51.179.761 1.138.934.969 1.814-.701.83-2.064.504-2.558 1.37.69.806 3.344 2.232 4.354 2.897 1.284.845 2.543 1.733 3.808 2.608 2.612 2.02 5.247 4.058 7.57 6.415.465-.257 1.119-.545 1.298-1.088.042-.128.046-.151-.023-.265-.34-.57-1.483-.649-1.29-1.51.064-.288.268-.566.527-.705.575-.31 1.357.073 1.852-.282.625-1.804 1.19-14.175 1.129-16.628-.32-.288-.744-.787-1.134-.945m-63.39.804q-1.022.039-2.043.102-1.02.064-2.039.153t-2.035.202-2.029.252-2.023.3-2.014.351-2.006.399-1.995.448-1.983.496q-.99.26-1.972.545-.981.284-1.957.593-.975.307-1.942.64-.967.331-1.925.687-.96.355-1.909.733-.95.379-1.89.78-.94.402-1.87.827t-1.85.87-1.829.917-1.805.96-1.781 1.004-1.757 1.047-1.73 1.09-1.703 1.132-1.675 1.172q-.83.597-1.646 1.214-.816.616-1.616 1.253t-1.585 1.291q-.785.656-1.553 1.33-.769.675-1.52 1.368-.752.693-1.487 1.404-.734.712-1.451 1.44-.718.73-1.417 1.475c-9.616 10.217-17.28 23.283-20.767 36.927q-.898 3.613-1.467 7.292-.569 3.68-.803 7.396c-.183 2.634-.333 5.266-.25 7.908.245 7.703 1.346 15.644 3.836 22.963.865.109 1.733.214 2.607.229 1.742.029 3.491-.121 5.236-.123 2.901-.003 5.828.112 8.726.013.4-.013.804-.024 1.166-.206.756-.818 1.269-3.662 1.189-4.782-.116-1.619-2.272-3.317-3.446-4.263-2.009-1.619-4.54-2.64-7.15-2.334-.844.099-1.765.328-2.609.253-.263-.208-.323-.218-.406-.537l.288-.431c-.972-.446-2.543.594-3.432-.105.058-.705.912-1.786 1.175-2.524-1.052-.206-3.314-.271-4.016-1.112-.033-.24-.081-.195.061-.356.238-.268.608-.463.97-.462.49.002 1.045.188 1.52.308l-.039-.122c-.431-1.256-1.712-2.406-1.855-3.713l.111-.128c1.272.47 2.63 1.977 3.657 2.87.006-.674-.007-1.56.575-2.035.28-.228.343-.223.677-.18.845.766.75 2.827.812 3.911.273-.684.625-2.02 1.346-2.345.163-.074.23.005.38.07.615.84.759 1.938.977 2.934.418-.607.806-1.264 1.37-1.744.208-.023.219-.065.405.066.831.592.803 2.05 1.515 2.771.569.577 3.903 1.59 5.294 2.589.46.329 1.239 1.15 1.782 1.16.441-.722.51-4.913.297-5.808-.097-.408-.277-.787-.46-1.162-.704-.487-1.274-.952-1.816-1.623l-.2-.002c-1.422-.003-3.72.792-4.992.259l-.2-.237c.102-.558.546-.864.962-1.221-1.162-.468-3.443.853-4.215-.647-.089-.173-.011-.258.042-.43.391-.386.863-.58 1.352-.812-.783-.117-1.58-.198-2.331-.456-.588-.651-2.174-1.762-2.423-2.45l.06-.27c.774-.377 2.843.932 3.246.433-.424-.953-1.155-1.799-1.39-2.818l-.037-.16a10 10 0 0 1-.077-.37c1.575.223 2.582.626 3.57 1.94q.367.487.692 1.003c.064-.818-.003-1.929.607-2.55.307-.049.36-.048.618.171.947.804 1.257 2.607 1.45 3.783l.679-2.268c.728.684 1.273 1.197 1.31 2.266.018.54-.001 1.089-.003 1.63.246-.61.465-1.412.884-1.917.418.27.627.59.734 1.068.129.568.092 1.22.36 1.742q.355.064.716.1c.238.287.459.688.817.785.414-.426.414-3.555.542-4.412-.552-1.305-1.325-2.333-2.244-3.405-.504.231-1.204.64-1.766.462-.183-.059-.203-.199-.288-.355-.026-.529.269-.965.502-1.423-1.078.341-2.347.751-3.452.318-.21-.256-.193-.234-.162-.566.23-.385.459-.57.823-.825-.915.2-2.377.617-3.256.154-.192-.101-.174-.185-.243-.372.178-.674.749-1.03 1.27-1.443-1.07.04-3.095-.057-3.905-.873-.167-.168-.139-.205-.174-.424.224-.396.633-.533 1.023-.727-2.169-.524-3.276-1.532-4.765-3.11l-.032-.167c.782-.384 5.054.67 6.199.87-.274-.841-.967-2.533-.435-3.376.096-.153.198-.119.36-.142.916.444 1.684 1.895 2.009 2.856.087.257.153.521.217.785.37-.83.748-2.251 1.457-2.792l.326.158c.36 1.344.388 2.752.806 4.078.316-.603.616-1.386 1.197-1.767.188.003.282-.04.43.098.926.857-.047 2.833.845 3.734l.178-.049c.179-.447.33-1.182.725-1.46.176.023.25-.014.363.147.159.227.205.466.255.733.418 2.23.135 1.924 2.09 3.384.096-.94.594-7.655.319-7.982-.346-.412-.889-.47-1.397-.48-.764-.013-1.546.12-2.29-.092l-.21-.225c.084-.591.456-.863.89-1.239-1.623.287-3.073.342-4.691-.001.279-.595.537-1.21.884-1.768-1.224-.733-1.983-1.403-2.855-2.528 1.316.27 2.595.525 3.833 1.07-.005-.91-.143-2.009.32-2.826l.228-.087c.944.463 1.724 2.475 2.337 3.354.123-.606.175-1.436.712-1.824.173-.126.276-.077.478-.069.678.495.863 1.217.988 2.01q.043.276.078.552l1.017.83c.053-1.178.278-4.229-.638-5.08-.781-.727-2.814-.794-3.089-1.853.235-.75.922-1.166 1.536-1.594-1.326-.257-2.848-.235-4.116-.643-.177-.284-.186-.331-.189-.666.432-.634 1.436-.678 2.065-1.133-.035-.111-.102-.217-.105-.334-1.23-.265-2.632-.39-3.44-1.464l.02-.268c.371-.28.974-.347 1.233-.709-.143-.368-.527-.519-.884-.674-1.073-.465-1.697-.677-2.171-1.841-.068-.168-.05-.113-.067-.296.11-.16.101-.241.313-.27 1.209-.162 2.802.886 3.95 1.243-.246-1.024-.636-2.1-.34-3.146l.2-.199c.481.037.743.277 1.054.635.767.881 1.173 1.929 1.532 3.025.451-1.13.898-2.24 1.6-3.242 1.093 1.454 1.113 2.464.965 4.223.72-1.166 1.334-2.39 2.669-2.953l.323.026c.405.766-.405 2.653-.579 3.535 1.166-.803 2.224-1.3 3.56-1.756-.912 1.645-1.84 3.097-3.09 4.52.499-.13.987-.312 1.502-.212l.245.174c.075.63-.317 1.044-.689 1.515q-.657.82-1.327 1.627c.294 1.464.371 2.412 1.666 3.303l.146.102c.244-1.057.952-3.551 1.982-4.112.034-.018.073-.028.11-.042.33.268.324.85.38 1.266.474-.749 1.205-2.147 2.114-2.397.207-.056.229.018.394.123.364.994-.062 2.078-.333 3.051.342-.396.646-.83 1.129-1.056l.114.075c-.138.56-.42 1.287-.801 1.733-.255.297-1.516 1.111-1.527 1.43-.003.099.082.181.123.272.312.094.591.137.914.172.143.281.14.148.047.428-.09.266-.22.456-.381.683q-.085.003-.172.01c-1.331.094-2.36 1.16-3.182 2.14-1.133 1.35-2.008 3.138-1.815 4.948.056.528.258.93.601 1.325l.324.14c.281-.122.403-.23.505-.532.253-.748.275-2.215.953-2.67.194.113.375.24.559.369.233-.061.293-.07.431-.288.476-.747.644-2.624 1.504-2.959.207.071.257.037.367.242.255.48.065 1.167.372 1.585.279-.097.422-.222.564-.483.55-1.016.79-3.103 1.927-3.617.191-.086.274-.055.471-.04.313.274.363.604.396.998.072.867-.048 1.79-.114 2.657.56-.93 1.553-2.983 2.55-3.409.197.096.454.292.673.235.614-.161.992-.79 1.64-.977l.153.118c-.104.885-1.15 1.922-1.66 2.684 1.073-.638 2.338-1.239 3.629-1.054l.076.153c-.512.846-1.765 1.403-2.494 2.113q1.14.046 2.282.08c-1.83 2.044-1.419.851-3.245 1.872.392.626 1.313.463 1.555 1.336-.304.358-.691.426-1.148.47-1.06.099-2.177-.107-3.239-.152.53.262 1.35.553 1.597 1.126.09.208.013.31-.043.516-.367.361-.606.449-1.12.454-.904.008-1.8-.214-2.707-.24.254.356.545.674.58 1.125-.175.317-.222.328-.548.494-.46.024-.853-.234-1.246-.447-.65-.352-1.635-.12-2.388-.212-1.838 1.195-3.03 3.215-3.483 5.324-.425 1.978-.228 3.435.89 5.15q.247.379.517.74l.065-.17c.505-1.36.5-2.957 1.653-4.005.186-.025.263-.091.415.05.528.49.47 2.147 1.008 2.271.73-.752-.091-2.931 1.524-3.62.307.026.362.031.56.302.38.518.448 1.593.559 2.23l1.689-2.034c-.061-.935-.276-2.214.184-3.07.175-.089.202-.16.403-.083.413.159.641.65.859 1.014.045-1.106.274-2.623 1.177-3.392.24-.204.386-.228.688-.207.537.361.618.8.745 1.394.58-1.166 1.28-3.064 2.534-3.596l.206.067c.335.746-.239 1.715.11 2.384 1.124-.495 1.342-2.241 2.612-2.762.18.2.147.092.126.376-.07.97-.653 1.925-1.09 2.773.535.023 1.029.004 1.513.257l.09.206c-.474.845-2.999 1.328-3.931 1.87.801.086 1.76.109 2.361.716.02.171.078.247-.051.387-.649.705-2.157.721-3.05.817.239.345.437.522.457.947-.26.198-.412.206-.739.155-.539-.085-1.09-.257-1.619-.392-2.31 1.007-2.308 1.767-3.907 3.365.402.319 1.01.691 1.075 1.238.024.197-.082.254-.194.4-.883.413-1.95.396-2.898.657.685.38 1.081.677 1.396 1.401l-.05.244c-.795.362-2.982-.242-3.887-.39.348.176.7.343 1.047.516.283.141.562.403.661.707.064.195-.019.234-.113.395-1.104.588-3.02.33-4.235.3a17 17 0 0 0-1.655 1.662c.257 2.435.592 4.858.834 7.296.789-.764 1.64-1.512 2.295-2.398.163-1.266.517-3.642 1.594-4.5.181-.143.25-.127.468-.161.797.492.553 1.495 1.114 2.126.319-.085.422-.246.581-.525.522-.914.742-2.371 1.86-2.777.164-.06.287-.071.43.032.382.278.537.894.975 1.055.334-.163.49-.358.613-.714.781-2.264-.26-3.722 2.488-5.06.34-.165.545-.208.914-.145.195.362.126.612.014 1-.097.338-.269.67-.182 1.025.916-.293 2.938-3.902 3.42-3.991.108-.02.2.09.3.136.201.307.222.453.157.82-.162.91-.86 1.861-1.324 2.656 1.435-1.185 4.543-4.437 6.199-4.739l.29.082c.074.3.035.444-.115.717-.463.849-1.301 1.55-2.012 2.192.781.043 2.491-.048 3.05.503-.06.317-.197.419-.458.591-1.307.867-3.338.727-4.403 1.487l.039.066.117-.012c.54-.033 2.928.632 3.324.98l.048.26c-.292.413-.601.526-1.094.61-1.457.251-2.974-.027-4.443-.023.627.151 1.597.262 1.961.84.156.248.171.336.174.618-.407.369-.878.32-1.398.295q-.752-.043-1.5-.127c-.326.434-.365.844-.992.931-.673.093-1.572-.432-2.148-.737a25 25 0 0 0-2.239 2.174c1.154.053 2.4.105 3.287.944l.099.3c-.175.333-.38.465-.737.587-.606.207-1.329.191-1.965.22.648.547 2.599 1.827 2.764 2.658-.18.229-.08.187-.347.227-1.279.191-3.018-.904-4.357-1.081l-.547-.075c.329.216.889.462.974.839a1.47 1.47 0 0 1-1.084.377c-1.382-.117-1.597-2.076-3.244-.986-.84.556-1.413 1.267-2.46 1.463-.584.646-2.24 2.19-2.455 2.911-.143.48-.133 1.082-.103 1.58.06 1.026.548 4.239 1.003 5.06 1.776.443 6.002.24 7.976.236 6.578-.012 13.168-.25 19.745-.087-.584-2.03-1.227-4.09-1.609-6.168-2.32-12.615 2.855-21.145 5.723-32.811.622-2.532 1.401-5.2 1.636-7.793.087-.956.44-4.78-.376-5.292-1.438-.903-5.106 1.67-5.818-.666-.379-1.242-.06-3.211.578-4.303q.062-.105.128-.208.067-.102.139-.201t.148-.194.159-.186.168-.177q.086-.087.177-.169.09-.082.185-.16.095-.076.194-.149.098-.072.2-.139t.208-.129.214-.117.22-.107.226-.095q.113-.044.23-.083.115-.038.233-.071t.237-.06c1.52-.337 3.22-.097 4.523.779 2.11 1.419 1.818 4.312 2.739 4.665.306-.237.27-.67.58-.776l.078.116c.255.369.513.73.998.788.275.033.611-.078.805-.276.237-.241.09-.666.387-.973l.401-.04c.261.23.323.556.425.876.513.386 2.21.129 2.893.094.045-.397.033-.826.302-1.142.297-.073.293-.101.555.046.05.163.199.935.312 1.004.675.414 5.208-.084 6.237-.093.845-.007 8.32.149 8.602.068.337-.097.546-.249.695-.565.114-.243.206-.503.3-.754l.234-.036c.318.46.521.954.743 1.465.685-.068 1.61.035 2.246-.188-.287-.314-.304-.376-.386-.795l.118-.354c.302-.104.31-.104.614-.005.312.37.355.735.454 1.198l.009.035 2.822-.012c.094-.436.138-.915.46-1.245.301-.073.3-.082.577.053.147.343.167 1.004.416 1.203l.778-.267c.638-1.986 1.65-3.464 3.524-4.451 1.35-.71 3.049-.891 4.503-.394a3.8 3.8 0 0 1 2.298 2.128c.604 1.395.372 2.942-.201 4.305-.284.674-.59 1.233-1.116 1.75-1.034-.215-3.43-1.009-4.363-.428-.179.11-.221.25-.269.453-.222.94.017 3.093.12 4.095.527 5.115 2.546 10.057 4.356 14.825 1.301 3.429 2.648 7.088 3.367 10.686 1.393 6.981.69 14.962-1.87 21.584l16.193-.01c2.065.009 11.027.428 12.288-.032.689-1.201.966-5.7.99-7.245-.888-1.595-2.686-3.503-4.362-4.254-.984.222-2.754 1.032-3.685.796l-.149-.215c.268-.53.93-.772 1.413-1.102-1.572.318-5.018 1.404-6.442 1.182-.285-.19-.312-.202-.435-.517.13-.415.403-.6.772-.803.662-.364 1.397-.625 2.099-.902-.652-.249-1.852-.542-2.165-1.211.572-.537 1.898-.242 2.096-1.088-.295-.701-1.309-1.408-1.987-1.71-1.291-.575-3.427.893-4.252-.322.055-.257.05-.322.286-.473.38-.244.888-.33 1.303-.52-1.443.089-2.989.244-4.403-.13l-.09-.37-.121.237c.42-.622 1.224-.739 1.916-.925-1.022-.382-2.053-.508-3.116-.724l-.93-.788c.975-.341 1.88-.43 2.893-.582-1.61-.29-3.482-.672-4.714-1.818l.001-.187c.347-.29.783-.255 1.208-.215.614.058 1.608.333 2.162.117-.166-.781-1.244-1.278-1.155-2.166l.256-.168c1.024.273 2.173 2.215 3.012 2.952.01-.667-.103-1.654.255-2.227.31.001.315.025.53.236.802.784.97 2.048 1.75 2.812.347-.597.077-1.392.478-1.966.294-.046.414-.094.651.14.645.634.481 2.113 1.255 2.55l-.106-.188c.14-.44.221-.996.656-1.23l.13-.06c.677.277 1.177 1.85 1.646 2.44 1.228 1.547 3.218 3.005 4.679 4.387-.244-.664-.499-1.326-.714-2 1.047.553 1.569.99 2.29 1.915l.212-.081c.065-.315.083-.593.089-.912l.117-.052c1.44 1.204 2.162 4.821 4.407 4.625.305-.027.368-.107.592-.299.082-.218.144-.399.145-.634.004-.58-.155-1.142-.16-1.72-.008-.658.073-1.317.077-1.975a1.5 1.5 0 0 0-.13-.673c-.203-.421-.65-.761-1.003-1.054l-.154-.032c-1.218-.231-2.605.26-3.73-.26l-.149-.262c.282-.577 1.321-.637 1.443-.99-1.018-.233-2.203.374-3.149.084-.078-.157-.175-.248-.127-.43.149-.561.783-.949 1.228-1.269h-.225c-1.208.005-2.754.574-3.883.194-.083-.145-.173-.2-.111-.375.24-.683 1.53-1.203 2.155-1.533-1.165-1.239-3.23-3.602-4.898-4.016-.867-.216-1.89-.142-2.709-.479-.257-.106-.41-.234-.51-.487.352-.392.995-.203 1.407-.572-.107-.271-.177-.305-.413-.484-.932-.019-2.664.15-3.332-.652-.03-.037-.052-.08-.079-.12.319-.435 1.161-.472 1.67-.551-.925-.317-1.807-.616-2.333-1.517l.058-.153c.625-.022 1.391.284 1.969.084.087-.256.092-.275-.037-.507-.402-.724-1.385-1.137-1.849-1.899l.068-.168c.634-.03 1.142.339 1.754.352.26-.462.032-1.01.396-1.419.252-.024.34-.053.547.13.664.582 1.358 2.725 2.031 3.63-.112-.797-.42-1.916-.042-2.664l.152-.067c1.065.547 1.966 3.05 2.45 4.123-.174-.9-.558-2.162-.073-3.011.024-.042.057-.078.085-.116l.253-.026c1.31 1.103 1.355 3.455 1.823 4.973.481 1.559 1.62 3.168 2.872 4.187-.107-.932-.475-1.976-.404-2.893l.153-.128c1.243.387 1.86 1.994 2.46 3.047.017-.535-.03-1.162.184-1.658.317-.168.32-.166.674-.1.97.847.753 2.573 1.389 3.149.14-.676-.002-2.168.535-2.597.267.076.364.273.487.513.574 1.112.374 2.524.938 3.522l.141.041c.314-1.566.013-3.552 0-5.174-.007-.836.07-1.674.095-2.51-1.033-1.629-3.008-3.51-4.9-3.931-.94-.209-1.996-.178-2.876-.573l-.126-.203c.329-.398.685-.739 1.065-1.089-.894.28-1.81.623-2.736.764-.483-.232-1.008-.421-1.366-.831l.025-.234q.097-.05.193-.102c.174-.095.3-.176.446-.304-.646-.404-2.587.528-2.921-.475.483-.645 1.522-1.055 2.24-1.405-1.242-.222-3.343-.46-4.236-1.416-.032-.202-.093-.236.053-.409.296-.35.82-.525 1.27-.529.491-.004 1 .081 1.493.106-.944-.52-2.143-1.15-2.565-2.202.025-.152-.006-.244.14-.333.645-.392 1.807.086 2.484.281-.403-.62-1.047-1.357-.887-2.137.163-.123.179-.195.4-.164.653.092 2.296 1.592 2.523 1.53.095-.408.092-.767.403-1.058.5.072.844.475 1.135.86.724.954 1.22 2.107 1.726 3.184.004-.923-.11-2.103.406-2.915l.208-.043c.67.565 1.125 3.448 1.5 3.504.168-.279.283-.54.419-.832.079-.17.069-.12.255-.27.3.11.38.267.504.554.796 1.862.097 2.224 1.845 3.732.318.275.684.644 1.053.84.076.041.2.082.276.11l.219-.094c.304-.923-.076-4.905-.524-5.77-.81-1.566-3.081-1.95-3.81-3.414.323-.18.612-.168.975-.198-.227-.775-1.968-.952-2.249-2.05.193-.213.37-.27.637-.367-.084-.848-1.856-1.2-1.912-2.37.111-.132.072-.146.23-.147.984-.007 1.924 1.273 2.797 1.171.345-.468.088-1.132.445-1.524.326.115.577.308.724.627.35.761.25 1.683.602 2.458l.142-.029c.215-.637.195-1.25.294-1.906l.113.128c.882 1.018 1.121 2.336 1.796 3.478l.154-.09c.35-1.603.33-3.02.297-4.645-.924-.755-1.471-1.43-1.76-2.625l.102-.227c.295-.005.582.004.876.024l.186-.16c.048-1.013-1.255-1.916-.944-2.907.133-.083.197-.172.363-.136.387.082.78.54 1.131.747.175-.156.171-.187.177-.417.023-.946-.81-2.988-.334-3.772.488.064.794.516 1.082.89.516.674.988 1.385 1.465 2.087.377-1.184.78-1.961 1.701-2.82-.092 1.57-.334 2.835-.777 4.337.927-1.285 3.028-3.637 4.551-4.1l.235.088c.195.647-.334 1.778-.55 2.41 1.147-.746 2.824-2.236 4.28-1.996.148.025.157.038.272.097.081.226.094.134.002.347-.332.775-1.418 1.138-1.652 1.836.357.365.956.269 1.384.626-.009.26-.005.268-.198.43-.78.657-2.798.512-3.097 1.067.055.18.031.292.218.377.452.206.885.045 1.285.358l-.03.35c-.704.348-1.72.384-2.501.514.535.332 1.84.946 1.999 1.584-.169.29-.242.502-.59.607-.782.234-1.592-.614-2.264.074.333.499 1.798.436 1.741 1.11-1.975 1.9-3.441-.692-4.665 3.18a13 13 0 0 0-.609 3.785c-.006.395-.006.789.016 1.184l.127-.132c.988-1.05 1.753-3.365 2.827-4.014.209.206.218.253.228.56.029.844-.39 1.752-.56 2.58.563-.825 2.26-3.84 3.1-4.119.038-.013.079-.015.119-.022.209.249.233.42.215.748-.06 1.076-.712 1.837-1.251 2.713 1.12-.61 2.533-1.756 3.8-1.904.316.13.326.171.512.463-.009.394-.106.621-.386.906-.303.309-1.334.897-1.445 1.237.316.197.546.256.678.611-.126.285-.265.446-.555.565-1.085.445-2.286.352-3.42.846l2.118.501c-2.141 1.462-2.84 1.722-5.482 1.39-.349.362-.719.716-1.029 1.112-.04 2.59-.188 5.776.543 8.262 2.463-2.414 3.12-5.975 4.74-8.875.297.958.516 1.867.535 2.878l.173.008c.867-.963.478-2.865 1.501-3.618.191.012.262-.032.398.125.386.446.446 1.238.358 1.798-.051.33-.181.627-.317.928.272.047.469-.092.683-.268 1.006-.826 1.173-2.618 2.568-3.164l.193.145c.135 1.103-.654 2.432-1.099 3.425 1.396-.783 2.875-2.31 4.384-2.712l.22.07c.214.773-.894 1.668-.684 2.239 1.014.268 2.123-.265 3.176.007l.042.189c-1.179 1.25-2.985 1.864-4.59 2.343.642.164 1.306.284 1.875.636l.091.217c-.212.345-.398.485-.794.593-1.083.297-2.963-.048-3.808.404.328.59 1.579.326 1.758 1.136-.275.368-.56.46-1.01.526-.968.14-2.04.057-3.016.002-.267.224-1.596.75-1.632.87.261.076.353.034.618-.009.534-.087 1.005-.116 1.436.273.092.082.123.151.181.251-.1.258-.13.291-.397.41-1.11.496-2.722.5-3.92.528-1.221.866-2.61 2.207-3.454 3.45.126 1.438.459 2.834.627 4.264.707-.467 1.37-.91 1.918-1.57.808-.971 1.906-4.042 2.697-4.526.215.197.278.366.306.654.089.92-.444 1.999-.775 2.843l.096-.123c1.037-1.363 2.583-5.064 4.09-5.63l.25.09c.218.506.16.997-.03 1.503-.238.634-.851 1.202-.96 1.852 1.053-.154 2.095-3.161 3.669-2.906.158.362.02.786-.119 1.136-.177.452-.394.886-.568 1.339.964-.498 2.316-1.247 3.43-1.04l.19.17c-.05.422-.265.683-.597.942-.424.33-1.094.444-1.397.858.41.425 1.099.386 1.468.831-.037.282-.07.284-.294.446-.636.459-2.431.127-2.74.718.42.206 1.135.357 1.386.743-.073.268-.147.375-.412.504-.463.225-2.614.106-3.597.358.74.362 1.525.635 2.003 1.341l-.035.197c-.616.33-1.926.207-2.597.004-.113-.034-.225-.075-.338-.113l-.78-.262c.237.15.478.29.717.435.176.107.26.271.369.44l-.064.258c-.803.454-2.444-.07-3.353-.19-1.432.857-2.368 1.87-3.483 3.082.08 1.446-.055 2.916.194 4.345 2.118-.082 5.67-1.047 7.148-2.634.92-.987 1.15-3.457 2.455-3.964l.122.083c.07.713-.319 1.613-.535 2.29.374-.341.81-.695 1.119-1.095.58-.753.738-1.8 1.377-2.53l.156.023c.163.507.16 1.177.493 1.57.687-.297 1.164-2.212 1.97-1.92.204.074.261.15.389.315.053.585-.319 1.05-.215 1.628l.17.117c1.075-.475 1.933-1.893 3.124-2.031l.226.113c-.247.904-.826 1.79-1.295 2.6.909-.229 2.409-.726 3.305-.262.039.02.071.048.107.072.004.275.053.187-.111.373-.977 1.107-4.285 1.745-4.894 2.564.42.453 1.146.299 1.574.752-.168.308-.493.42-.825.51-1.246.337-2.571.065-3.843.221.72.196 1.941.154 2.36.782-.105.32-.138.382-.458.55-.995.522-4.063-.335-5.386-.123-.913.146-7.794 3.677-8.369 4.289-.209 1.51.524 5.956.807 7.7 5.705.267 11.52.1 17.235.038 1.202-2.493 1.744-5.625 2.316-8.326q.291-1.362.535-2.734t.442-2.75q.198-1.38.348-2.764.15-1.385.253-2.775t.158-2.781.063-2.785-.032-2.786-.127-2.783-.222-2.777-.317-2.768-.412-2.756-.505-2.74-.599-2.72q-.322-1.356-.69-2.7-.37-1.343-.784-2.673t-.873-2.645q-.34-1.002-.704-1.995t-.753-1.978-.803-1.957q-.414-.974-.852-1.937-.437-.963-.9-1.914-.462-.952-.947-1.892-.486-.94-.995-1.867-.51-.927-1.042-1.841t-1.087-1.815-1.132-1.787-1.177-1.758-1.221-1.728-1.264-1.697-1.305-1.665-1.348-1.63-1.387-1.598-1.428-1.561-1.466-1.526-1.504-1.488q-.76-.734-1.54-1.45-.78-.715-1.577-1.41-.797-.696-1.612-1.371-.814-.675-1.645-1.33-.83-.654-1.678-1.288-.847-.633-1.71-1.246-.863-.612-1.74-1.202-.879-.59-1.771-1.158-.893-.568-1.799-1.114-.907-.545-1.826-1.068-.92-.523-1.853-1.022t-1.877-.975-1.902-.928c-9.595-4.625-20.314-7.114-30.92-7.772-2.37-.147-4.742-.005-7.109-.09m86.767 22.5-11.87.747c-1.326.079-4.039-.036-5.182.359-.136.279-.13.14-.055.395.107.36.239.65.11 1.02-.28.319-.564.602-1.028.598-.634-.006-1.102-.595-1.712-.566-.23.254-.245.446-.304.772.681 1.377 1.956 2.603 2.913 3.809 1.651 2.08 3.27 4.234 4.674 6.49a115 115 0 0 1 3.379 5.472c.418-.121 1.117-.222 1.42-.523-.072-.492-.244-.898-.082-1.388.263-.279.321-.34.682-.455.305.083.486.124.656.41.202.341.336.783.482 1.154.435-.427.834-.823 1.12-1.372 1.067-2.056 1.748-4.498 2.595-6.668l2.435-6.248c.433-1.116.945-2.251 1.269-3.402-.467-.207-1-.517-1.502-.603m-168.115.36c-.625.209-.892.626-1.238 1.162 1.063 2.983 2.487 5.857 3.669 8.798 1 2.487 1.768 5.242 2.993 7.618.403-.386.758-.834 1.354-.853a.75.75 0 0 1 .53.188c.55.459.784 1.633.993 2.31 1.56-1.933 2.719-4.227 4.217-6.227 1.446-2.115 3.031-4.096 4.631-6.095.735-.918 1.574-1.828 2.222-2.806.189-.284.34-.502.352-.853-.193-.3-.232-.324-.555-.477-.714.035-1.554.607-2.143.11-.295-.769-.156-1.509.043-2.278-2.037-.124-4.075-.096-6.112-.196-3.645-.177-7.307-.462-10.956-.402m.89 23.971q-4.835 1.345-9.705 2.554c-2.322.559-4.69.957-6.96 1.722-.375.127-.743.22-.944.584-.14.252-.136.46-.144.742.705 1.75 3.361 3.866 4.68 5.308q2.644 2.899 5.217 5.861c.905 1.06 1.785 2.154 2.806 3.105.346-.738.617-1.63 1.403-1.99.282.016.51.049.716.27.32.341.446 1.087.905 1.224.068.02.142.01.213.015.81-1.015 1.267-4.261 1.67-5.63a72 72 0 0 1 1.561-4.654c.445-1.197 2.881-6.417 2.82-7.224-.015-.18-.1-.203-.222-.314-.873-.026-1.708 1.159-2.391.469-.621-.629.271-1.579-.697-2.099a7 7 0 0 0-.928.057m165.486-.09c-.165.263-.318.393-.293.712.037.477.079.84-.136 1.286-.297.263-.447.32-.82.396-.618-.403-1.215-1.158-1.994-1.05-.227.227-.288.337-.348.652q1.958 4.767 3.614 9.647c.48 1.448 1.663 7.352 2.54 8.107.325-.06.435-.188.632-.453.374-.502.58-1.05 1.081-1.452.36-.011.39.03.695.23.227.327.204.701.227 1.085l.194.258c.405.036.611-.066.915-.338.698-.624 1.249-1.418 1.88-2.107l6.032-6.23c1.098-1.15 2.482-2.395 3.3-3.758.19-.318.262-.707.258-1.073a1.6 1.6 0 0 0-.243-.878c-.495-.409-1.025-.623-1.626-.827-3.885-1.317-8.029-2.152-12.01-3.164-1.16-.294-2.795-.927-3.898-1.043M105.63 97.729c-.837.4-3.311 1.242-3.806 1.903l.08.195c.202.023.367.038.57.024 1.035-.396 3.046-.676 3.792-1.432.005-.204.055-.229-.104-.384-.17-.167-.314-.222-.532-.306m43.576.431c-.091.366-.195.483-.005.819 1.083.492 2.249.66 3.388.977.016-.196.09-.345-.057-.498-.647-.67-2.404-1.065-3.326-1.298m-19.626 3.895c-3.084.347-6.83-.012-10.119.213.59 6.329 3.351 14.163 5.377 20.208.721 2.154 1.317 4.41 2.159 6.513 1.715-4.61 6.073-24.368 8.17-26.579l.11.094c.1 1.406-.613 3.071-1.067 4.387-2.378 7.8-4.303 15.72-6.59 23.545.425 1.268.85 2.537 1.105 3.853 2.9-8.333 5.305-16.923 7.507-25.466.568-2.204 1.277-4.413 1.782-6.627q-2.963-.013-5.925-.076c-.742-.017-1.809-.209-2.509-.065m-17.227.249c.848 4.417 2.088 8.677 3.207 13.024 2.45 9.523 5.09 19 7.48 28.537l.512-1.46c.41-1.25.804-2.496 1.15-3.766-1.188-4.703-2.57-9.365-3.83-14.05a640 640 0 0 0-4.802-16.972c-.535-1.793-.998-3.62-1.578-5.398-.715.01-1.426.017-2.139.085m3.248.025c.972 3.98 2.236 7.877 3.359 11.816 1.14 3.995 2.141 8.032 3.268 12.032 1.026 3.645 2.13 7.278 2.907 10.989l.313-1.072c.395-1.554 1.074-3.454.942-5.062-.156-1.896-2.802-8.75-3.517-11.086-.582-1.898-1.071-3.825-1.633-5.729-.691-2.343-1.46-4.657-2.006-7.041-.372-1.624-.534-3.269-.859-4.898a41 41 0 0 0-2.774.05m23.6-.096q-3.369 12.807-7.235 25.474c-.674 2.28-2.33 5.869-2.574 8.01-.13 1.15.537 2.73.974 3.8l.16.08c.095-.131.187-.245.255-.393 1.556-4.3 3.046-8.666 4.287-13.067 1.302-4.614 2.368-9.303 3.564-13.946q.698-2.745 1.465-5.472c.424-1.478.92-2.954 1.21-4.465zm3.206-.014c-.736 3.588-1.926 7.086-2.842 10.635-1.622 6.28-3.128 12.588-5.02 18.795-1.018 3.343-2.25 6.652-3.437 9.94.315 1.074.964 4.162 1.675 4.73 2.92-9.277 5.213-18.74 7.767-28.121q1.102-3.996 2.245-7.981c.484-1.708 1.125-3.537 1.3-5.303.051-.51-.217-1.662-.436-2.14q-.038-.083-.093-.156-.054-.073-.123-.134-.068-.06-.147-.106-.079-.045-.166-.074c-.214-.07-.496-.069-.723-.085m-30.853 2.245c-1.154 4.526-2.103 9.122-3.037 13.698-1.883 9.238-4.655 20.816.52 29.457 1.355 2.263 2.631 3.252 4.686 4.767 1.157.053 2.305.085 3.465.067.924-.018 1.855-.015 2.778-.072 1.103-2.158 1.508-4.512 2.522-6.67-1.014-3.028-1.623-6.258-2.427-9.355-.79-3.042-8.239-31.644-8.507-31.892m33.13 2.063c.009 1.544-1.347 5.287-1.786 6.96l-6.91 25.967c-.81 3.071-2.178 6.216-2.623 9.35.492 1.275.92 2.572 1.355 3.867l3.75-.054 3.856.016q.04-.052.08-.1c1.2-1.498 2.659-2.661 3.758-4.283 3.385-4.992 4.015-12.212 3.416-18.048-.598-5.826-2.114-11.417-3.478-17.092-.525-2.18-.862-4.417-1.418-6.583m29.419 3.663.052.15zm-135.371 6.703c-2.15.915-4.228 2.953-6.224 4.27-2.053 1.356-8.97 4.953-10.082 6.44-.065.315-.107.433.049.737.445.867 8.986 5.87 10.537 6.892 1.896 1.197 3.688 2.774 5.7 3.736-.073-.857-.134-1.623.334-2.393.253-.145.302-.145.586-.045.76.27 1.197 1.405 2.095 1.226.45-.517.342-1.152.297-1.789-.228-3.223-.472-6.402-.464-9.637.005-1.725.125-3.443.268-5.162.069-.829.242-1.729.22-2.553-.009-.285-.12-.483-.268-.718-.162-.079-.242-.179-.424-.103-.733.305-1.172 1.815-2.077 1.446-.27-.111-.401-.338-.479-.606-.136-.468.198-1.45-.068-1.741m179.25.599c-.276.248-.38.402-.53.744-.189.433-.378.64-.825.802-.194.07-.299.021-.493-.013-.508-.41-.87-1.556-1.641-1.389a.94.94 0 0 0-.587.423c.186 3.215.484 6.383.41 9.61-.044 1.895-.791 9.793-.396 10.807.343.193.407.229.797.222.865-.502.774-1.502 1.923-1.58.848.388.51 1.57 1.886 1.022 1.35-.537 2.697-1.725 3.886-2.565 1.78-1.213 9.72-6.303 10.443-7.358.053-.452.058-.748-.234-1.135-.474-.628-10.723-7.043-12.48-8.436-.44-.348-1.135-1.127-1.702-1.155-.21-.01-.258-.005-.456 0m-67.05 1.945h.082zm-46.986 3.407c-2.98 8.692-4.853 20.016-.668 28.569 1.545 3.156 3.568 5.561 6.051 8.001.53.52 1.392 1.466 2.114 1.683.337.101.739.051 1.088.032l.543-.025c-.04-.245-.161-.275-.353-.413-.657-.475-1.43-.817-2.063-1.323-4.268-3.418-7.418-8.723-8.36-14.091-1.002-5.708-.374-11.941.645-17.612.225-1.253 1.097-3.691 1.003-4.82m23.099 10.107c-.393 1.837-.766 3.681-1.222 5.504.118.439.21 1.15.527 1.476l.137-.212c.5-1.276.985-2.56 1.546-3.81-.197-.772-.435-2.409-.988-2.958m1.36 4.516c-.564 1.58-1.043 3.233-1.677 4.783.444 1.101.93 2.185 1.367 3.289l1.599-3.607c-.379-1.502-.774-3.004-1.29-4.465m-3.273 2.738c-.588 1.72-1.135 3.471-1.527 5.247.1.343.16.83.456 1.053l.049.002c.468-1.584 1.09-3.12 1.681-4.661a13 13 0 0 1-.66-1.641m5.01 3.235c-.631 1.35-3.288 6.958-3.003 8.248.06.274.243.348.456.491.415-.04.837-.024 1.18-.286.477-1.271-.187-2.778.012-4.089.245-1.6 2.196-2.541 1.398-4.278l-.042-.086m-4.08.5q-.959 2.215-1.559 4.552c.32.75.717 2.316 1.409 2.712.596-1.296 1-2.744 1.428-4.104-.252-.844-.606-2.568-1.278-3.16m-83.386 1.866c-.169.614-.188 1.29-.76 1.684-.205.141-.371.146-.609.156-.851-.29-1.28-1.03-1.796-1.72-1.394 1.385-2.537 3.066-3.782 4.59-2.203 2.695-4.58 5.385-6.564 8.241-.332.478-.896 1.223-.927 1.808-.02.374.207.685.401.984 1.278.865 6.126 1.744 7.83 2.045q3.242.675 6.457 1.468c1.015.248 2.256.751 3.29.783l.22-.15c.091-.511-.208-1.098.028-1.542.982-.41 1.751.798 2.708.177-.084-1.594-1.232-3.589-1.785-5.098q-.991-2.7-1.849-5.447c-.673-2.164-1.251-5.999-2.194-7.708-.234-.143-.398-.224-.668-.271m88.276.044c-.94 1.546-1.122 3.228-.723 4.978.086.378.178.624.43.917.14.054.204.103.355.082.882-2.336 1.225-3.314.118-5.682-.096-.206-.053-.134-.18-.295m81.876-.01c-.174.185-.335.351-.427.592-.472 1.237-.654 2.698-.995 3.986-.695 2.632-1.516 5.31-2.494 7.852-.458 1.19-1.871 4.086-1.927 5.242-.013.27.156.373.348.528.145.116.258.139.439.158.643-.226 1.18-1.028 1.905-.502.264.192.343.439.37.751.036.405-.074.726.196 1.072.124.054.24.133.371.164.282.066 8.612-2.185 9.732-2.456 1.888-.439 6.613-1.263 7.99-2.317.17-.282.256-.48.173-.817-.06-.245-.192-.443-.35-.634-.93-1.125-10.945-12.593-11.492-12.926-.239-.146-.484-.176-.737-.033-.23.13-.483.456-.656.651-.269.085-.513.159-.78.011-.213-.118-.244-.201-.29-.423s-.11-.59-.326-.708c-.307-.168-.707-.162-1.05-.191m-89.88 1.873c-.2.864-1.227 3.357-1.015 4.01l.205.25c.599-1.235 1.325-2.758.926-4.143zm9.597 2.494c-.213.65-.53 1.345-.458 2.036.206.345.316.311.689.424.29-.287.35-.293.335-.72-.016-.464-.236-1.426-.566-1.74m-8.735.833c-.212.317-.369.452-.367.84.204.207.373.31.633.434.164-.383.25-.517.21-.94-.175-.178-.235-.244-.476-.334m-6.602 4.694c3.131 1.601 6.69 2.835 10.138 3.47.24.553.471 1.105.68 1.671l.144-.028c.26-.635.433-1.15.844-1.716a26.6 26.6 0 0 1 4.598-1.74c1.242-.402 2.496-.782 3.72-1.234-2.484-.044-4.957.096-7.439.118-2.454.023-4.904-.083-7.356-.174-1.768-.065-3.587-.044-5.329-.368m-68.056.183c.555 2.485 1.935 4.7 2.96 7.013 7.121 16.062 18.315 28.083 33.086 37.496 4.116 2.624 8.604 4.57 13.163 6.272q.713.273 1.432.534.72.26 1.443.508.724.247 1.452.48.728.234 1.46.454.733.22 1.47.426.736.206 1.476.399.74.192 1.484.37.743.18 1.49.344.747.165 1.497.316.75.15 1.502.288.752.136 1.507.26.755.122 1.512.231t1.516.203q.758.095 1.519.175t1.523.147 1.524.119 1.527.09 1.528.06q.764.024 1.53.034.764.01 1.528.005.765-.005 1.53-.024.764-.02 1.528-.053.764-.034 1.528-.081.763-.048 1.525-.11.763-.061 1.523-.137.761-.076 1.52-.166.76-.09 1.518-.195.757-.104 1.513-.222t1.508-.251q.754-.132 1.504-.279.751-.146 1.499-.306.748-.161 1.492-.335.98-.223 1.954-.47.974-.245 1.942-.515t1.93-.563q.96-.293 1.914-.61.954-.316 1.9-.655.945-.34 1.883-.701.937-.362 1.865-.747.929-.385 1.847-.792.919-.406 1.828-.835.908-.43 1.806-.88.898-.451 1.785-.924.887-.472 1.762-.966t1.738-1.009 1.713-1.05 1.687-1.092 1.66-1.132 1.633-1.172 1.603-1.21 1.574-1.25 1.543-1.287 1.512-1.324 1.479-1.36 1.446-1.396 1.411-1.43q.698-.724 1.377-1.464.68-.74 1.34-1.497.662-.757 1.305-1.529.642-.773 1.267-1.56.624-.788 1.228-1.59.605-.803 1.19-1.62.585-.816 1.15-1.647t1.11-1.675c3.258-5.135 7.1-12.065 8.899-17.885-3.814-.302-7.759-.005-11.59-.036q-13.231-.133-26.463-.105c-5.406.01-10.872-.16-16.268.028a26.2 26.2 0 0 1-3.581 4.326c2.59-.567 5.279-.241 7.906-.19 1.211.023 2.43-.057 3.64.004-4.376 1.534-7.508 1.507-11.986.618-2.348 1.896-4.568 2.508-7.025 3.888-.627 1.001-1.365 2.127-1.667 3.276l.118.495.163.064c.547-.58 1.067-1.251 1.675-1.763 1.314-.116 5.888-.382 6.906.119l-.027.141c-1.513.862-4.419 1.292-6.105.948-1.005 1.15-1.836 2.136-2.369 3.603 1.322 3.448 2.384 4.428 5.144 6.805.277-.042.442-.165.671-.318l.19.154c-.164.364-.629.54-.982.675-.148 1.43-.273 2.76-.052 4.188 1.104 1.04 2.539 1.694 3.582 2.776-.006 1.441.36 4.005-.16 5.211-.287.251-.298.254-.68.28a3.8 3.8 0 0 1-.949-.585c-1.38.487-2.204.099-3.569.183-1.144.071-2.278.258-3.426.298-4.715.164-9.45-.057-14.163-.085l-7.997-.059c-1.059 0-2.115.074-3.174.046-2.424-.066-4.841-.352-7.265-.399-.035-1.273-.54-4.377.316-5.243.949-.96 2.395-1.443 3.414-2.512q.148-2.07.184-4.144l-1.727-.546c.69-.038 1.389-.053 2.075-.118.971-1.225 3.133-3.004 3.71-4.267.283-.62.354-1.413.472-2.085.106-.607.292-1.326.237-1.936-.044-.494-.288-.877-.688-1.165-.396-.284-.862-.46-1.312-.643-2.213.374-5.486-.182-7.525-1.176l.003-.11c1.01-.114 2.16-.102 3.171.029 1.197.155 3.839-.582 4.587.465.103.144.189.336.27.491.294.166.56.18.887.21l.072-.115c-1.022-1.545-2.965-2.749-4.707-3.305-.282-.09-1.138-.25-1.33-.433-.051-.05-.076-.122-.114-.183.12-.556.771-.94 1.2-1.264-2.845-1.85-5.032-3.77-7.094-6.493-4.38-.187-8.776-.092-13.16-.098l-21.458.01c-6.521.03-13.061-.294-19.578-.183m87.193 5.49c-1.375.271-2.548.56-3.394 1.792-.794 1.156-.918 2.581-.968 3.94.556-1.183.907-2.512 1.72-3.549.945-.895 1.89-1.239 3.196-1.21 1.21.027 2.157.34 3.035 1.184l-.265-1.893c-1.106-.145-2.206-.325-3.324-.265m3.752 1.729c.017.403-.025.561.22.891.572.163 1.368-.316 1.902-.545l.198-.112c-.633-.344-1.588-.018-2.32-.234m-87.406 8.28c-.337.524-.33.64-.21 1.234.087.431.114.695-.144 1.07a1.2 1.2 0 0 1-.476.407c-.892.006-1.722-1.409-2.48-.653-1.065 1.062-3.728 7.717-4.6 9.548-.772 1.621-1.726 3.233-2.387 4.895a1.4 1.4 0 0 0-.126.635c.009.207.136.332.243.5.484.28.938.377 1.493.427.65.057 9.06-.154 9.39-.25.08-.022.157-.053.236-.072.097-.024.291-.05.4-.067 2.413-.181 4.82.12 7.225.005-.186-.614-.572-1.586-.184-2.183.168-.26.442-.4.745-.433 1.093-.122 1.562 1.14 2.929.994-.004-.462-2.126-2.88-2.573-3.44q-2.469-3.079-4.75-6.3c-.767-1.102-3.413-5.545-3.938-5.989-.24-.202-.495-.262-.793-.328m150.105.304q-3.161 4.896-6.654 9.561c-1.124 1.507-2.395 2.938-3.467 4.477-.182.262-.373.512-.356.843.164.318.191.43.504.62.764.006 1.613-1.262 2.244-.6.232.244.212.404.206.713-.22.391-.61.827-.535 1.263.676.524 6.492.536 7.738.608 1.72.047 9.94.667 10.918.026.157-.261.244-.356.168-.678-.319-1.334-6.561-14.641-7.402-15.82-.405.34-.695.62-1.227.713-.363-.085-.457-.138-.657-.458-.237-.376-.368-1.014-.807-1.173-.193-.07-.467-.073-.673-.095m-91.252 12.888q-.072.09-.147.179c-.607.704-2.657 1.261-2.635 2.305 1.945.452 5.126.142 7.217.124l12.253-.066 13.096.034c1.744-.01 3.708.154 5.426-.113l.194-.16c.02-.338-.048-.53-.272-.8-.15-.183-.406-.319-.616-.418-.495-.083-1.237-.868-1.704-1.163-.498.375-.97.745-1.415 1.186.742-.098 1.485-.215 2.232-.26l.129.117c-.025.043-.053.085-.075.13-.114.237-.115.432-.134.69-.874.348-19.381-.015-21.906-.03-3.346-.018-6.713.111-10.056.002-.569-.018-1.41.018-1.925-.219-.136-.062-.181-.1-.315-.19l-.023-.17c.376-.218 1.11-.382 1.308-.716-.172-.246-.372-.326-.633-.462m-1.932 4.204h.138zm-.92.473v.282c.87.782 2.649.828 3.788.768 1.086-.057 2.319-.327 3.396-.254.71.048 1.483.476 2.184.437.592-.034 1.085-.27 1.72-.255.394-.035.482 0 .784-.273l-.057-.195c-1.194-.301-2.707-.157-3.958-.194q-3.931-.094-7.858-.316m38.266.087c-.104.094-.39.42-.501.457-.683.224-3.928.043-4.839.04-2.32-.009-20.587-.127-21.036.076l.018.141c.937.273 1.96.175 2.866.496 1.169.095 2.349-.178 3.52-.133.832.032 1.657.193 2.491.205 2.898.042 5.841-.103 8.742-.15.863-.013 1.741.1 2.596.07.313-.01.61-.165.885-.305.35.05.365.094.621.346l.257-.289c.885.02 3.597.356 4.179-.158.14-.124.198-.296.222-.48.012-.094-.009-.22-.02-.316m39.628 2.622c-3.387 2.846-6.642 5.53-10.324 7.99-.81.54-4.359 2.6-4.6 3.3.116.267.106.264.365.365.547.214 1.159.129 1.654.48.094.299.134.4-.037.698-.29.508-.915.649-1.026 1.295.11.466.38.73.771.988 1.486.976 4.334 1.766 6.075 2.486 1.952.764 8.744 3.883 10.377 3.735l.246-.153c.155-.78.045-1.582-.043-2.364-.414-3.696-.964-7.403-1.257-11.11-.111-1.413.14-2.84-.045-4.245-.205-.305-.232-.339-.568-.484-.527.063-1.001.22-1.504.038-.383-.5-.37-.872-.305-1.477.035-.326.127-.62.219-.933l.114-.413zm-116.907.19c-.326.393-.68.705-.638 1.252.044.55.385.912.267 1.477-.471.449-1.493.694-2.12.888l-.214-.652-.154-.04c-.308.83-.05 4.371-.064 5.57-.019 1.602-.198 3.195-.24 4.797-.033 1.277.08 2.569.006 3.842-.061 1.073-.635 2.598-.107 3.606.19.362.38.47.727.636 1.324-.078 8.54-3.197 10.27-3.92 1.06-.423 5.525-1.922 5.924-2.756.073-.154.043-.36-.018-.513-.322-.806-1.332-1.126-1.142-2.108.817-.797 2.074.003 2.816-.62-.156-.33-.592-.58-.886-.791-3.284-2.36-6.742-4.394-9.896-6.953-1.462-1.187-2.876-2.825-4.531-3.714m21.323 14.47c.095.952 1.319 2.345.708 3.204-.664.242-1.411-.323-1.886-.005-.155.333-.153.518-.073.863.597 2.582 1.685 5.167 2.485 7.708.689 2.187 1.387 4.373 2.046 6.569.25.83.403 1.698.69 2.514.129.366.286.65.65.825.77-.002 6.822-5.352 7.81-6.166.884-.712 5.488-4.194 6.01-4.85.156-.195.194-.323.234-.564-.309-.911-1.463-.953-1.48-1.967.169-.322.246-.452.592-.587.521-.203 1.042-.19 1.488-.566.09-.293.145-.254-.009-.544-1.072-.424-2.295-.537-3.418-.807-1.562-.374-3.096-.869-4.619-1.376-2.367-.786-4.683-1.777-6.993-2.716-1.312-.533-2.851-1.277-4.235-1.534m72.044.59c-3.082 1.288-6.184 2.561-9.366 3.583-1.716.551-6.672 1.666-7.815 2.325l-.074.204c.513.716 1.589.739 1.713 1.707-.274.922-1.268.894-1.224 2.043.905 1.169 2.386 2.02 3.54 2.942q1.94 1.582 3.851 3.198c1.084.9 5.814 5.136 6.903 5.071.601-.714 4.652-14.69 5.098-16.502q.215-.852.269-1.73c-.11-.266-.122-.327-.353-.492-.784-.001-1.418.961-2.096.349-.298-.828.064-1.993-.358-2.665zm-25.945 6.811c-3.746.315-7.45.624-11.215.51-2.664-.08-5.316-.468-7.984-.505.479.638 1.433 1.812 1.334 2.635-.026.213-.14.25-.29.382-.421.088-.756.05-1.18-.006-.281.19-.342.31-.457.627.282 1.134 5.325 7.822 6.383 9.365.735 1.042 3.176 5.054 4.074 5.53.467-.1.78-.43 1.088-.778 1.641-1.858 3.042-4.18 4.473-6.214 1.45-2.06 3.04-4.06 4.399-6.178.4-.622.922-1.401.929-2.157-.102-.181-.05-.19-.227-.223-.474-.091-.894.194-1.377.049-.166-.236-.173-.247-.12-.522.14-.736.981-1.608.89-2.343-.248-.24-.39-.167-.72-.172"/><path d="M122.58 69.587c1.03-2.354 2.683-3.728 3.728-5.769a5.1 5.1 0 0 0 .485-1.584c.175-1.169.091-2.394.157-3.575.113-1.999.355-4 .588-5.989l.216.13c.68 1.235.83 3 1.25 4.37.64 2.091 1.713 4.105 1.999 6.295.248 1.904.008 3.861.235 5.78l.028.227c1.12-1.178 2.278-2.36 3.437-3.501 1.114-1.098 2.564-2.143 3.332-3.528.558-1.005.613-2.28.911-3.381.338-1.245 1.683-3.89 2.48-4.905.18.19.135.409.147.665.066 1.322-.075 2.647-.06 3.968s.21 2.631.187 3.956c-.014.821-.072 1.65-.221 2.458-.453 2.447-1.723 4.068-1.76 6.699 1.9-2.451 3.912-3.549 6.594-5.007.896-.487 1.834-.95 2.61-1.623.644-.557 1.21-1.274 1.725-1.948.635-.83 2.824-4.205 3.77-4.433.106.332.036.474-.04.81-.302 1.338-.819 2.635-1.148 3.97-.445 1.81-.5 4.118-1.308 5.785-1.124 2.317-2.748 2.747-3.407 5.684a201 201 0 0 1 6.032-2.521c2.344-.939 5.009-1.61 6.839-3.475 1.437-1.465 1.804-3.267 3.43-4.792-.266 2.946-2.367 9.802-4.512 11.829-.885.837-2.09 1.431-3.102 2.106-1.078.72-2.027 1.559-2.977 2.436 1.328-.264 2.661-.544 4.006-.707 3.559-.434 7.107-.534 10.423-2.121 2.136-1.022 4.107-2.56 6.14-3.785-1.059 2.155-5.355 9.634-7.267 10.636-2.303 1.207-5.253.956-7.271 2.85-.312.292-.427.533-.442.969.341.136 1.7-.73 2.337-.74 1.593-.028 3.18-.18 4.776-.156 1.061.016 2.09.237 3.143.286 2.052.095 4.592-.247 6.517-.99 1.19-.458 2.177-1.234 3.304-1.791.238-.117.262-.17.524-.083.09.802-1.246 2.285-1.74 2.926-1.53 1.983-3.23 4.351-5.359 5.708-2.975 1.896-7.81 1.262-9.966 4.429l-.08.121c2.45.026 4.869-.296 7.262-.819 1.369-.299 2.791-.732 4.188-.843 1.34-.108 2.687.172 4.025.188.892.01 1.773-.141 2.664-.027.064.23.023.268-.099.466-.637 1.043-13.073 8.449-14.929 9.339-1.665.798-3.434 1.36-5.228 1.784.052-1.966-.263-3.963-.637-5.89-1.63-8.387-7.373-16.38-14.459-21.094-1.952-1.3-4.135-2.304-6.319-3.143-6.953-2.669-12.57-2.704-19.772-1.236-11.234 2.59-21.601 12.417-24.349 23.652a43 43 0 0 0-.963 5.426c-.06.53.05 1.823-.154 2.253-.04.084-.12.144-.18.216a2.2 2.2 0 0 1-.488.074c-.613 0-1.34-.323-1.921-.517-1.083-.364-2.205-.704-3.228-1.214-2.142-1.067-4.061-2.615-6.174-3.759-.881-.477-1.868-.752-2.784-1.158-.954-.423-2.613-1.592-3.292-2.385-.214-.25-.247-.388-.238-.709.293-.364.568-.535 1.031-.576.874-.079 1.923.183 2.797.289 3.987.48 7.858 1.515 11.891.891-2.17-1.452-4.026-3.275-6.125-4.829-.678-.501-1.366-1.07-2.106-1.472-.99-.537-2.082-.934-3.01-1.572-2.052-1.411-3.809-3.325-5.748-4.898 4.487.327 8.99 1.592 13.406 2.445 2.418.466 4.882.654 7.282 1.223-1.15-.777-2.406-1.466-3.401-2.445-1.465-1.441-2.484-3.248-3.808-4.805-1.228-1.445-6.282-6.302-6.63-7.698l.132-.134c.539-.015 4.18 2.035 5.002 2.4 2.28 1.01 4.83 1.231 7.08 2.314 1.707.821 3.072 2.055 4.68 3.01l.148.086c-1.599-3.567-2.523-7.485-4.345-10.954-1.214-2.312-3.212-4.18-4.395-6.476l-.078-.156c1.223.569 2.4 1.332 3.57 2.006 2.066 1.19 4.149 2.219 5.908 3.858 2.44 2.274 3.53 4.366 6.633 6.124-2.237-4.03-.366-6.77-1.234-10.858-.366-1.728-2.507-6.632-2.337-8.066l.152-.088c.948.775 1.675 2.006 2.442 2.973 1.79 2.255 3.997 4.241 4.856 7.102.439 1.46.13 2.902.426 4.347.299 1.458 1.433 3.541 2.725 4.361.43.274.907.348 1.403.23.275-.066.172-.002.328-.254-.352-.765-2.847-2.041-3.48-4.413-.25-.94-.062-1.93-.12-2.886-.07-1.159-.39-2.346-.374-3.503.005-.312.024-.427.183-.688l.302-.05c1.227.51 3.421 5.391 4.066 6.72-.385-2.415.155-4.535.192-6.943.034-2.218-.478-4.462-.87-6.635-.151-.84-.875-3.549-.477-4.238.615.398 2.115 3.854 2.639 4.703 1.15 1.866 2.72 3.493 3.696 5.456.75 1.508.9 3.316 1.882 4.709zm17.267-8.778c-.306 1.011-.092 1.958-.565 2.961-1.619 3.437-3.823 3.493-4.105 8.176-.053.884-.047 1.85.346 2.667.136.282.345.483.567.694l.262.122c.195-.46-.416-3.472-.017-5.035.78-3.054 3.917-4.51 3.858-8.081-.006-.38-.019-.932-.174-1.275-.051-.113-.09-.141-.172-.23m-11.304 1.039c-.043.854-.107 1.632-.348 2.46-.34 1.164-.97 2.22-1.337 3.37-.675 2.122-.157 4.376 1.336 6.008.41.448.822.792 1.336 1.113l.243-.129c-1.204-1.888-2.527-3.246-1.996-5.67.389-1.773 2.119-5.233.927-6.984-.043-.064-.107-.112-.161-.168m-12.149.739c.337 1.148 1.418 1.875 1.712 3.08.296 1.21-.083 2.443.058 3.654.18 1.54 1.82 5.157 3.34 5.729.187.07.309.054.5.034l-.077-.146c-.704-1.309-1.687-2.459-2.126-3.9-.816-2.675.227-5.314-2.048-7.573-.31-.308-.696-.702-1.12-.822-.078-.023-.159-.038-.239-.056m34.453 3.15c-.967 1.05-1.935 2.051-3.05 2.95-3.1 2.499-5.59 3.883-5.663 8.38-.006.354.143.496.358.762l.267-.172.128-.867c.25-1.692 1.307-3.852 2.698-4.87 2.115-1.55 4.82-3.114 5.362-5.916-.068-.246-.01-.17-.1-.268m-44.997.754c-.117.926.943 2.027 1.304 2.896.672 1.617-.46 3.866.655 5.356.099.133.193.21.312.316h.141c.15-2.53.665-5.581-1.162-7.655-.37-.418-.695-.772-1.25-.913m55.596 2.936c-.166.302-.234.33-.165.661l.293.333c.076-.334.206-.565.054-.88zm-65.623 1.91c.272 1.061 1.456 1.897 2.05 2.829.875 1.375 1.357 3.132 2.433 4.359.937 1.07 2.371 1.936 3.581 2.656.804.478 2.232 1.318 3.181 1.049.128-.036.189-.064.322-.114-.644-.638-1.63-1.087-2.408-1.567-1.218-.752-2.459-1.628-3.49-2.623-1.943-1.873-2.059-4.321-4.62-6.019-.314-.208-.674-.499-1.05-.57m64.283 1.026c-1.088.619-2.172 1.24-3.32 1.741-2.875 1.255-5.866 2.055-6.874 5.463-.237.805-.585 2.586-.17 3.327.04.069.088.131.131.197l.312-.146c.238-.698.266-1.403.392-2.123.355-2.034 1.553-3.498 3.378-4.392 2.257-1.107 4.666-1.602 6.251-3.767-.018-.26.038-.17-.1-.3m9.89 6.4c-.827.577-1.677 1.312-2.586 1.741-1.386.655-2.962.853-4.407 1.343-3.462 1.174-5.797 4.167-6.334 7.769-.038.254-.077.672.06.9.034.058.086.104.13.155.786-2.531 2.05-5.366 4.534-6.656 2.822-1.463 5.053-1.244 7.657-3.613.367-.334.848-.755 1.002-1.236.076-.239.062-.138-.055-.404m-81.787 1.32-.113.56c.668.654 1.576 1.121 2.293 1.754 3.11 2.743 5.58 5.346 9.963 5.756a3 3 0 0 0 .472-.333l.272.086c-.196-.41-2.698-1.291-3.28-1.568-1.336-.635-2.526-1.29-3.703-2.195-1.845-1.42-3.364-3.113-5.599-3.959-.1-.038-.203-.068-.305-.1m86.458 9.41c-4.568 1.645-10.315.822-12.764 5.952a8 8 0 0 0-.76 2.647l.088.09.083-.094c1.128-2.347 2.373-4.15 4.928-5.058 1.875-.666 3.878-.693 5.786-1.23l.179-.047c.924-.266 2.126-1.28 2.71-2.017l.028-.197zm-93.067.558.087.336c1.421.724 3.226.773 4.718 1.435 2.252.998 3.83 3.103 6.127 3.928 1.092.392 2.241.431 3.365.66.026-.172.135-.427.004-.563-.486-.511-2.42-.816-3.2-1.24-4.662-2.532-5.071-4.67-11.101-4.556m94.759 8.093c-3.267.903-9.95 4.652-12.426 7.01-.554.527-.986 1.151-1.38 1.805.457-.214.929-.413 1.36-.673 4.598-3.16 9.563-5.452 14.413-8.163-.65-.002-1.32-.038-1.967.021m-94.33 2.43-.451.41.035.192c.938.444 2 .609 2.917 1.082 2.723 1.407 5.483 4.04 8.718 4.164l.22-.176-.011-.198c-.854-.693-2.061-.876-3.037-1.346-2.939-1.415-5.035-3.515-8.391-4.128m24.179 60.614c-3.817.734-7.986.75-11.562-1.032.666-.095 10.95.203 11.137.263.303.096.41.262.554.525zm63.041-.73c.98-.123 1.972-.185 2.956-.269 1.294-.269 3.352-.025 4.738-.006q3.039.043 6.077-.047c-.858.538-1.72.84-2.675 1.152-3.65 1.129-7.521.13-11.096-.83m20.807-.013c2.087-.277 4.184-.069 6.274-.26l.226-.066c1.857.489 3.908.055 5.806.089-1.845.863-3.407 1.133-5.439 1.294-2.352.089-4.625-.36-6.867-1.057m-138.141-.073c.888.009 1.768.018 2.654-.048 1.485-.018 2.968.025 4.454 0 1.69-.029 3.607-.18 5.275.043l.082.168-.148-.13.063.216q-.979.27-1.953.552c-3.956.96-6.646.855-10.427-.802m31.995.762q-.358.095-.718.175-.361.08-.724.146-.364.066-.73.117-.366.05-.734.087t-.736.057q-.37.022-.739.028t-.738-.003-.739-.032q-.368-.023-.736-.062-.367-.038-.733-.092-.365-.053-.728-.121-.364-.068-.724-.15-.36-.083-.716-.18-.357-.097-.71-.209-.352-.111-.699-.237-.347-.125-.69-.265l1.126-.08c1.272-.33 10.224.144 12.418.086-.64.269-1.3.496-1.95.735m30.354 2.692.1.037zm-30.834 2.521c4.07.047 8.22.191 12.282-.037.024-.005.046-.015.07-.013.175.013.297.059.484.051.214-.009.429-.023.643-.034l.203.187-.13.186c-3.164 1.623-7.291 1.388-10.651.63zm-10.543.788c-.689.173-1.38.352-2.08.479-2.927.53-5.798.285-8.66-.454-.553-.144-1.192-.215-1.666-.545.196-.173.805-.167 1.086-.198 1.933-.114 3.873.038 5.808.052 2.497.017 5.005-.082 7.505-.09-.656.285-1.317.523-1.993.756m98.522.072q-.856.356-1.758.567-.757.176-1.529.269-.77.092-1.548.1c-1.774.016-6.484-.5-7.905-1.379l-.022-.175.435-.155c1.118.202 2.388.112 3.525.109q3.343-.021 6.684-.095c1.14-.02 2.424-.112 3.54.115-.396.313-.953.464-1.422.643m11.216-.377c.946-.067 1.898-.1 2.845-.147a2.8 2.8 0 0 1 .607-.017c.925.103 1.873-.011 2.803-.023q2.55-.025 5.102-.024c-.816.421-1.617.685-2.496.934-3.132.56-5.823.197-8.861-.724m-74.156 6.134c-2.521.751-4.735 1.298-7.382.911-.775-.113-4.987-.866-5.373-1.189-.08-.067-.127-.168-.19-.252 2.235-.1 4.942.218 7.261.26 1.939.037 4.173-.334 6.058.006l-.004.13zm60.206.031c1.89-.255 3.85-.21 5.753-.222 2.511-.014 5.001-.04 7.508-.195.37-.053.665-.122 1.023.026-.115.239-.124.213-.346.34-4.043 2.307-7.257 1.943-11.538.76q-1.195-.37-2.4-.709m-83.747.439c-4.168.944-7.089 1.042-11.256-.094-.32-.088-.792-.222-.961-.512.525-.127 1.009.044 1.511-.08l.205-.055c4.072-.232 8.637-.067 12.742.014-.737.264-1.494.488-2.241.727m73.538-.17c-2.258.791-4.26 1.367-6.686 1.124-.882-.089-5.256-.947-5.776-1.374-.114-.093-.188-.227-.281-.341 1.779-.2 3.615-.016 5.401 0 2.942.025 5.874-.056 8.82.02zm-97.444.115c-.59.244-.84.37-1.46.136l-.057-.176c.038-.054.068-.116.116-.162.378-.367.916-.304 1.41-.341.403.012.763-.047 1.168.014-.248.289-.815.406-1.177.529m95.396 5.106c2.346-.31 4.71-.24 7.072-.242 2.803-.001 5.626-.042 8.419-.311.256-.056.397-.078.65-.004l-.076.147c-4.008 2.265-9.154 2.088-13.515 1.026q-1.277-.301-2.55-.616m-72.941.044q.879-.041 1.757-.072c.837.1 1.731-.017 2.58.012 3.47.121 6.931.07 10.403.04l-1.87.596c-5.223 1.433-7.816.94-12.87-.576m-9.539.087.052-.08zm-4.088.325c-.251-.04-.149.017-.313-.163.535-.327 3.597-.16 4.401-.162-.09.068-.106.084-.221.144-1.617.852-2.243.767-3.866.18m96.419 12.178c-.043-1.177-.645-5.212-.341-6.006.157-.411 1.858-1.04 2.313-1.242.597.09.39 3.68.418 4.307.185 4.05.753 6.648 3.288 9.929-.862.428-1.687.898-2.513 1.39-.95-1.525-1.517-3.39-2.666-4.78l-.132-.155c-.532-.635-1.269-1.043-1.96-1.485-2.045-1.52-4.179-2.995-6.11-4.657q1.393-.674 2.776-1.368c1.388 1.473 3.25 2.93 4.927 4.067m-83.768 5.611c.701-1.891 2.064-3.704 3.104-5.435q2.157-3.647 4.264-7.323c1.667.683 3.551 1.53 4.878 2.783.918.868 1.401 1.809 1.416 3.089.017 1.43-.565 2.911-1.612 3.895-2.959 2.782-5.913-.408-7.25-.293-.186.015-.346.307-.459.448-.737 1.273-1.398 2.594-2.216 3.819a15.5 15.5 0 0 1-2.126-.983m8.436-9.424q-1.193 1.882-2.34 3.791l.12.06c.972.494 1.736 1.142 2.832 1.362.79-.198 1.344-.642 1.764-1.349.316-.533.383-1.247.195-1.836-.28-.873-.973-1.284-1.75-1.65q-.409-.193-.82-.378m62.2 2.676 2.525-.85c.1.026.212.023.299.078.395.251 2.038 2.957 2.437 3.514 2.098 2.932 4.472 5.653 6.566 8.59-.872.284-1.725.631-2.58.963-.621-.646-1.194-1.346-1.81-2l-1.227.473q-1.548.573-3.126 1.055c.178.954.207 1.951.278 2.92-.766.353-1.544.627-2.342.896-.12-1.251-.106-2.517-.176-3.772l-.44-7.072c-.094-1.596-.122-3.22-.404-4.795m2.82 3.846c-.126 1.742.066 3.635.19 5.381.844-.256 1.746-.471 2.559-.81l.434-.217c.058-.377-.49-1.004-.721-1.32-.707-.968-1.551-2.29-2.462-3.034m-61.693 8.638c-.576-.17-1.898-.467-2.201-.987.624-1.248 1.728-2.492 2.53-3.652 1.516-2.19 4.127-6.506 5.873-8.236.755.221 1.59.407 2.293.764.313.159.649.361.732.723.197.853-.796 8.562-.928 10.052-.105 1.19-.111 2.39-.23 3.577-.028.293-.023.492-.177.748-.843-.162-1.6-.571-2.424-.807l-.148-.041q.142-1.36.32-2.716c-.64-.361-1.325-.631-2-.916l-2.102-.796c-.554.726-1.036 1.524-1.538 2.287m6.47-9.361q-1.684 2.63-3.481 5.184l1.322.46 1.63.619c.205-1.53.857-4.745.626-6.156zm41.181.115c.393 1.778 1.608 10.025 2.136 10.84.255.392.679.617 1.136.673.596.074 1.383-.081 1.848-.478 1.922-1.638-1.488-8.97-1.259-11.506.398-.655 1.751-.855 2.486-1.065.257.196.304.453.384.757.412 1.566.557 3.273.84 4.87.332 1.869.96 3.81.981 5.712.009.818-.117 1.61-.572 2.305-.684 1.044-1.821 1.629-3.012 1.895-1.332.298-2.848.278-4.016-.51q-.178-.119-.34-.26-.163-.14-.306-.301t-.265-.337q-.121-.178-.22-.369c-.981-1.958-1.66-7.09-2.191-9.47l-.357-2.143a25 25 0 0 1 2.727-.613m-37.154 12.783c.993-2.668 1.755-6.986 2.377-9.882.296-1.374.504-2.88 1.064-4.171l.182.016c1.774.179 4.961.961 6.408 1.938.538.364.946.894 1.357 1.39-.155 1.304-.236 2.712-.663 3.959-.494 1.445-1.377 2.146-2.692 2.79.586 1.967.752 4.245 1.692 6.069-1.036-.005-2.045-.18-3.044-.444a13 13 0 0 0-.284-1.732q-.645-2.151-1.26-4.311l-1.215-.089c-.389 1.774-.861 3.536-1.276 5.305-.895-.252-1.779-.501-2.646-.838m5.339-11.022q-.492 2.102-.906 4.221c.962.22 2.222.713 3.151.213.66-.857.981-1.61 1.233-2.656l-.976-1.433c-.734-.102-1.837-.085-2.502-.345m27.376 5.833c.304 1.914.794 4.443-.275 6.205-.623 1.027-1.635 1.422-2.75 1.693-1.257.306-2.635.267-3.751-.45-1.099-.706-1.657-1.841-1.891-3.093-.43-2.3-1.267-7.963.175-9.883.83-1.106 3.051-1.322 4.33-1.483 1.058.03 2.011.238 2.855.918.509.411 1.315 1.267 1.307 1.98-.005.365-.095.425-.33.674-.37.142-.63.166-1.026.13q-.09-.008-.182-.02c-.923-.086-1.624-.985-2.552-1.27l-.15-.042c-.628.15-1.251.32-1.826.625-.381.203-.599.57-.695.98-.118.502.448 6.04.584 6.742.065.333.181.684.369.97.273.42.68.663 1.17.738.538.083 1.407.034 1.844-.33.469-.39.752-1.202.778-1.802.014-.315-.072-.433-.282-.648-.562-.183-1.175.012-1.764.005-.273-.197-.367-.302-.49-.617 0-.593.246-.99.623-1.434.337-.397.692-.387 1.18-.43l.174-.014c.858-.033 1.717-.094 2.575-.144m-21.23 7.509c1.636-3.454 2.846-7.148 4.093-10.759.377-1.092.675-2.21 1.102-3.285q1.564.084 3.12.26c.877 4.858 1.828 9.653 2.957 14.46-.849.01-1.655-.016-2.493-.154-.27-.835-.429-1.645-.547-2.514-.691-.036-1.387-.005-2.078.008-.775.064-1.547-.054-2.317-.137-.385.704-.713 1.87-1.402 2.313-.704.453-1.704.009-2.435-.192m6.412-10.379c-.904 1.821-1.37 4.083-1.943 6.032l1.582.05 1.663.024c-.23-.991-.943-5.712-1.302-6.106"/></svg>