<svg xmlns="http://www.w3.org/2000/svg" viewBox="0 0 256 256"><path d="M120.936 0h14.525l.126.021c2.59.42 5.295.508 7.906.805q6.932.836 13.754 2.326 1.388.31 2.768.65 1.381.342 2.754.714t2.736.775 2.718.837 2.699.897 2.678.958 2.655 1.019 2.632 1.078 2.607 1.137 2.58 1.195 2.553 1.253 2.524 1.31 2.494 1.368 2.463 1.422 2.43 1.478 2.395 1.533 2.361 1.586T203.62 24t2.286 1.691 2.249 1.742 2.208 1.792 2.168 1.841 2.125 1.89 2.082 1.937 2.038 1.983q1.008 1.004 1.993 2.03t1.947 2.073 1.9 2.117 1.85 2.159q.914 1.09 1.803 2.2t1.752 2.24 1.701 2.279q1.016 1.424 1.994 2.874t1.918 2.925 1.84 2.975 1.76 3.022q.862 1.523 1.682 3.067t1.6 3.11q.779 1.567 1.517 3.153.738 1.585 1.433 3.19t1.35 3.227 1.264 3.261 1.178 3.294 1.09 3.323q.523 1.67 1.003 3.351.48 1.683.915 3.377t.825 3.399q.39 1.704.735 3.42c.61 3.19 1.163 6.434 1.505 9.664.227 2.14.197 4.5.67 6.59v19.387l-.025.117c-.485 2.494-.572 5.125-.925 7.651q-1.02 7.034-2.82 13.909-.365 1.414-.765 2.82-.398 1.406-.828 2.803t-.892 2.783q-.461 1.387-.954 2.762t-1.017 2.74q-.525 1.364-1.08 2.716t-1.14 2.69-1.202 2.664q-.616 1.326-1.262 2.637t-1.322 2.606-1.38 2.576-1.438 2.544-1.496 2.51q-.763 1.247-1.553 2.477t-1.609 2.44q-.818 1.21-1.663 2.402t-1.718 2.365-1.771 2.325q-.899 1.152-1.823 2.283-.925 1.132-1.875 2.242t-1.925 2.199-1.975 2.154-2.024 2.109-2.07 2.062q-1.047 1.02-2.117 2.015t-2.162 1.966-2.207 1.917-2.25 1.865-2.29 1.815-2.332 1.761-2.371 1.708q-1.196.841-2.41 1.654c-14.238 9.699-31.243 16.35-48.181 19.29q-4.983.885-10.022 1.365c-1.745.167-3.72.115-5.418.475h-15.996c-2.199-.373-4.497-.447-6.718-.678q-4.825-.522-9.601-1.385c-18.24-3.267-35.29-10.99-50.327-21.709q-1.139-.814-2.26-1.653t-2.223-1.702-2.186-1.75-2.146-1.798-2.107-1.845-2.065-1.89-2.024-1.936-1.98-1.98-1.937-2.022-1.892-2.064-1.846-2.105-1.8-2.145-1.752-2.184-1.703-2.222-1.655-2.26-1.605-2.294-1.553-2.33-1.503-2.363-1.45-2.395-1.397-2.426-1.344-2.457-1.29-2.485q-.63-1.25-1.234-2.513-.604-1.264-1.18-2.54-.575-1.276-1.122-2.565t-1.067-2.589-1.01-2.612-.952-2.633-.894-2.654-.836-2.672-.776-2.69-.718-2.707c-1.117-4.486-2.118-9.203-2.72-13.786-.33-2.523-.363-5.137-.798-7.632L0 138.213v-20.026c.385-1.91.38-3.982.59-5.93.303-2.843.802-5.684 1.351-8.49q.344-1.762.736-3.513.392-1.753.832-3.493t.93-3.468q.487-1.728 1.023-3.441.536-1.714 1.12-3.412.582-1.698 1.212-3.379T9.1 79.716t1.397-3.307 1.489-3.267 1.578-3.225 1.667-3.18 1.754-3.132 1.84-3.084 1.924-3.03 2.007-2.977 2.089-2.92q.84-1.145 1.706-2.271.867-1.126 1.758-2.231.89-1.106 1.807-2.192t1.855-2.15q.94-1.065 1.904-2.108t1.95-2.065 1.996-2.021 2.042-1.975 2.085-1.929 2.127-1.882 2.17-1.833 2.21-1.784 2.25-1.734 2.288-1.683 2.325-1.632 2.361-1.578T60.075 19t2.43-1.47q1.223-.723 2.462-1.417t2.493-1.36 2.524-1.305 2.552-1.247q1.282-.609 2.579-1.19 1.296-.58 2.605-1.13 1.309-.552 2.63-1.073 1.321-.522 2.654-1.014 1.332-.491 2.675-.953t2.696-.893q1.353-.432 2.716-.833t2.734-.77 2.75-.71 2.766-.648c4.562-1.009 9.293-1.741 13.937-2.247 2.497-.272 5.048-.347 7.529-.72zm1.179 4.572c-33.406 1.35-63.134 15.56-85.729 40.063C14.98 67.85 2.63 101.58 3.987 133.125q.067 1.529.172 3.054.105 1.526.247 3.049t.322 3.041q.18 1.52.397 3.033.217 1.514.47 3.022.255 1.508.546 3.01t.62 2.995.693 2.98q.365 1.484.766 2.96t.839 2.941q.438 1.466.911 2.92t.983 2.897 1.053 2.871q.545 1.43 1.125 2.845t1.193 2.816q.615 1.4 1.263 2.786.649 1.385 1.331 2.753.683 1.369 1.399 2.72.715 1.352 1.464 2.685.75 1.334 1.531 2.649.782 1.314 1.595 2.609.814 1.295 1.66 2.57.845 1.274 1.721 2.528.877 1.253 1.784 2.484.908 1.232 1.845 2.44.937 1.209 1.903 2.394.967 1.185 1.962 2.346.996 1.161 2.02 2.297t2.075 2.247 2.13 2.195 2.184 2.142 2.235 2.088q.807.742 1.627 1.469t1.652 1.44 1.678 1.41 1.703 1.38 1.728 1.35 1.751 1.318 1.775 1.287 1.797 1.255 1.82 1.222 1.84 1.19q.927.586 1.863 1.156t1.882 1.123 1.903 1.09q.956.535 1.921 1.054t1.94 1.02q.975.502 1.958.986.984.484 1.976.95.991.466 1.992.915 1 .448 2.008.879 1.008.43 2.023.843 1.015.412 2.038.806t2.052.77 2.066.733 2.079.696 2.09.659 2.103.621 2.113.583 2.123.546 2.132.507 2.142.47 2.149.43q1.076.206 2.156.392 3.309.533 6.64.9 3.331.365 6.677.565t6.696.23q3.351.033 6.7-.105c5.088-.102 10.209-.725 15.226-1.55q1.219-.2 2.434-.424 1.214-.224 2.424-.473t2.415-.52 2.403-.57 2.392-.617q1.193-.32 2.38-.664 1.185-.344 2.365-.712 1.179-.368 2.35-.759t2.335-.805 2.32-.853q1.154-.437 2.3-.897 1.147-.46 2.283-.944 1.137-.483 2.264-.989t2.243-1.034 2.222-1.078 2.2-1.123 2.178-1.166 2.154-1.21 2.13-1.251 2.103-1.295 2.078-1.335 2.051-1.378 2.023-1.418q1.004-.718 1.994-1.457t1.965-1.497 1.934-1.536q.96-.778 1.904-1.575t1.871-1.612 1.84-1.649q.91-.834 1.805-1.685t1.772-1.721q.878-.87 1.738-1.756.737-.774 1.461-1.561t1.435-1.586q.71-.8 1.407-1.61.697-.812 1.38-1.635t1.35-1.658q.669-.834 1.323-1.68t1.294-1.703 1.264-1.725 1.234-1.746 1.204-1.768q.595-.889 1.174-1.788.58-.898 1.143-1.807t1.112-1.827q.548-.918 1.08-1.845.533-.928 1.05-1.864.516-.937 1.016-1.882t.984-1.899q.484-.953.952-1.915.467-.961.918-1.931t.886-1.947.851-1.961.818-1.976.784-1.99.75-2.003.715-2.015.681-2.028.646-2.038q.315-1.022.611-2.05.297-1.027.576-2.06.279-1.031.54-2.068t.505-2.079q.243-1.041.469-2.086.77-3.312 1.337-6.666.568-3.353.928-6.734.36-3.382.512-6.78.155-3.397.1-6.797-.097-5.496-.618-10.968-.522-5.472-1.46-10.888-.214-1.182-.45-2.359t-.496-2.349-.541-2.34-.587-2.328-.63-2.316-.677-2.304q-.349-1.15-.72-2.291t-.764-2.276q-.394-1.134-.809-2.261t-.852-2.245-.895-2.227q-.459-1.11-.939-2.21-.48-1.101-.98-2.192-.501-1.091-1.024-2.172-.522-1.082-1.065-2.152-.542-1.072-1.106-2.132-.563-1.06-1.147-2.109t-1.188-2.087-1.228-2.063-1.268-2.039-1.307-2.014-1.346-1.989-1.384-1.962-1.422-1.934q-.72-.961-1.458-1.907-.739-.947-1.496-1.879t-1.531-1.85q-.775-.916-1.567-1.819-.793-.902-1.602-1.788-.81-.886-1.637-1.757-.826-.87-1.67-1.726-.843-.854-1.703-1.692c-24.443-23.417-56.204-34.965-89.914-34.259q-1.105.023-2.209.085"/><path d="M132.152 249.246c-4.387.094-8.766.099-13.145-.22q-1.276-.09-2.55-.207-1.275-.117-2.546-.26-1.272-.145-2.54-.316t-2.532-.37-2.525-.423-2.514-.477-2.503-.53q-1.25-.28-2.492-.585-1.243-.305-2.479-.636-1.235-.332-2.464-.69t-2.45-.742-2.432-.794q-1.212-.41-2.416-.846-1.203-.435-2.396-.896-1.194-.462-2.378-.948-1.183-.487-2.356-.999-1.173-.511-2.334-1.048-1.162-.536-2.312-1.098-1.15-.561-2.288-1.147-1.138-.585-2.263-1.195t-2.236-1.243-2.21-1.291-2.182-1.338-2.153-1.384-2.122-1.43q-1.054-.725-2.092-1.474-1.038-.748-2.06-1.518t-2.027-1.562q-1.005-.793-1.993-1.606t-1.959-1.647q-.97-.834-1.923-1.688-.952-.855-1.886-1.73-1.093-1.01-2.16-2.047t-2.109-2.1-2.057-2.151-2.003-2.202-1.949-2.249-1.893-2.296-1.836-2.343-1.779-2.386-1.719-2.43-1.659-2.47-1.598-2.512q-.783-1.265-1.536-2.549-.752-1.284-1.473-2.586-.72-1.302-1.409-2.621-.688-1.32-1.344-2.656t-1.28-2.687-1.212-2.718q-.59-1.367-1.145-2.747-.556-1.38-1.078-2.774t-1.01-2.8-.94-2.824q-.453-1.417-.871-2.846-.419-1.428-.801-2.866t-.731-2.885q-.348-1.448-.66-2.903-.311-1.455-.588-2.917t-.516-2.931-.445-2.943q-.204-1.474-.372-2.953t-.3-2.961-.226-2.968-.154-2.972c-.295-7.863.32-15.607 1.602-23.354q.182-1.123.386-2.242.203-1.12.427-2.235t.468-2.226.509-2.218.55-2.207.59-2.197.63-2.186.67-2.174.71-2.162.75-2.148q.386-1.07.79-2.134t.828-2.118q.424-1.056.867-2.104.444-1.047.906-2.087.462-1.039.944-2.07t.982-2.052 1.019-2.034 1.056-2.015 1.094-1.995 1.13-1.975 1.166-1.953q.591-.972 1.201-1.932t1.237-1.91 1.272-1.886 1.306-1.862 1.34-1.839 1.375-1.813 1.407-1.788 1.44-1.762q.727-.874 1.471-1.735.744-.86 1.503-1.707.76-.847 1.535-1.68c4.156-4.466 8.641-8.479 13.415-12.27C73.783 16.14 97.693 8.02 123.95 7.056q.075-.008.15-.012c7.229-.356 14.685.192 21.833 1.252q1.117.156 2.23.334 1.114.178 2.224.376 1.11.199 2.216.418 1.106.22 2.208.46 1.101.24 2.198.5 1.098.26 2.19.541t2.178.583 2.168.623 2.155.663 2.142.704 2.13.744q1.06.382 2.114.784t2.1.823 2.083.862q1.038.441 2.067.901t2.05.94 2.032.978 2.014 1.016 1.994 1.053 1.974 1.09 1.953 1.128 1.932 1.163 1.91 1.2 1.886 1.235 1.863 1.27 1.84 1.305 1.814 1.34 1.789 1.373 1.763 1.406 1.736 1.439 1.71 1.471 1.68 1.503q1.095 1.017 2.164 2.06t2.113 2.112 2.06 2.163q1.018 1.094 2.008 2.213t1.952 2.261 1.896 2.309q.934 1.165 1.839 2.354.905 1.188 1.781 2.398t1.722 2.442q.846 1.23 1.661 2.483.816 1.251 1.6 2.522t1.538 2.561 1.475 2.598q.722 1.308 1.411 2.633.69 1.326 1.346 2.668.657 1.341 1.28 2.698.624 1.358 1.214 2.73.59 1.373 1.147 2.759.556 1.386 1.078 2.785.523 1.4 1.01 2.812.489 1.412.942 2.835t.871 2.858.802 2.877q.383 1.445.73 2.897.348 1.453.66 2.914.312 1.46.588 2.929t.516 2.943.444 2.954.372 2.964.298 2.972q.132 1.488.227 2.979.095 1.49.153 2.984.058 1.5.079 3 .021 1.502.006 3.003t-.068 3.001-.142 3-.215 2.994-.288 2.988q-.162 1.493-.361 2.98-.2 1.489-.435 2.971-.236 1.483-.507 2.96-.272 1.475-.58 2.945t-.651 2.93q-.344 1.462-.724 2.914-.379 1.453-.794 2.895-.415 1.443-.865 2.875-.45 1.433-.936 2.853-.485 1.42-1.005 2.829t-1.074 2.804-1.143 2.776-1.21 2.747q-.622 1.367-1.277 2.717-.656 1.351-1.344 2.685t-1.408 2.651-1.474 2.616-1.537 2.579-1.6 2.54-1.662 2.5-1.722 2.46-1.783 2.415-1.84 2.372-1.9 2.326q-.963 1.15-1.954 2.278-.992 1.127-2.01 2.23c-16.632 18.216-40.093 30.95-64.188 35.855-6.768 1.377-13.52 2.057-20.41 2.37M159.587 44.97c.312-1.538.876-3.014 1.193-4.553-1.602-.603-3.2-1.226-4.81-1.807-.577 1.513-.93 3.148-1.36 4.71q-1.172 4.207-2.401 8.398c-.7 2.441-1.32 5.061-2.397 7.367.225-2.48.804-4.894 1.358-7.317 1.038-4.545 2.288-9.051 3.245-13.611l-1.329-.456c-1.12 4.655-2.08 9.33-3.28 13.972-.424 1.645-.764 3.42-1.369 4.998.803-6.504 2.324-12.905 3.227-19.391q-2.856-.654-5.73-1.227-2.2 12.213-4.258 24.45c-.788 4.629-1.498 9.763-2.6 14.3-.107.44-.243.835-.488 1.218l-.11-.036c-.177-1.858.409-4.208.686-6.074l1.786-11.648 2.302-15.974c.314-2.158.563-4.343.942-6.49-.502-.078-1.011-.179-1.519-.209-.354 2.095-.52 4.233-.805 6.341-.518 3.822-1.12 7.64-1.437 11.484l-.116.075.072-.39-.108-.046q.362-8.844.988-17.674c-1.981-.334-3.981-.47-5.968-.75-.323 3.386-.495 6.942-1.133 10.278-.395-1.198-.169-8.498-.181-10.38l-1.611-.041c-.117 4.277-.132 8.561-.289 12.837-.161 4.39-.472 8.748-.789 13.128-.117 1.627-.029 4.38-.621 5.83l-.15.06c-.402-.402-.318-.947-.317-1.491.002-3.466.249-6.963.375-10.429q.427-9.972.49-19.954c-2.06-.026-4.125-.074-6.186-.024q.01 14.145-.291 28.286c.858-.268 1.697-.56 2.534-.886l-.036.168c-.188.856-.618 1.69-.695 2.551.618.413 1.394.635 2.064.963 1.121.549 3.75 1.986 4.17 3.206-.26.382-.645.44-1.08.52-1.006.188-1.884.354-2.837.746.2.753.412 1.45.732 2.161.904.132 2.222.337 2.825 1.098.149.189.103.2.088.422-.313.368-.798.494-1.266.538-.59.056-1.198.044-1.79.052l-.446 1.604c.783.523 2.225 1.296 2.464 2.26-.153.283-.205.281-.53.38-.685.206-1.713-.068-2.418-.169-.213 1.01-.445 2.021-.602 3.042.753.651 1.948 1.47 2.418 2.356l-.077.161c-.85.135-1.945-.34-2.75-.604-.3.92-.514 1.746-.588 2.716.576.459 1.994 1.374 2.177 2.048-.287.196-.582.177-.912.123-.479-.08-.938-.264-1.417-.349.009.729.003 1.461.03 2.189l.155-.051c2.578-.888 5.16-2.758 7.303-4.453 1.876-1.484 3.474-3.128 4.966-4.99q1.737-2.178 3.345-4.453c1.231-1.756 3.62-6.288 5.416-7.21 1.745-.895 4.483-.579 6.35-.316 6.254.88 12.415 3.531 18.075 6.23 2.27 1.082 4.542 2.274 6.692 3.58 3.268 1.984 13.945 9.1 15.12 12.313.06.165.053.31.031.48l-.104.115c-1.06-.371-1.967-1.346-2.944-1.915-2.646-1.54-8.157-2.974-11.193-2.993.261.522.904 1.503.718 2.085-.716.154-2.017-.418-2.8-.53-2.715-.388-6.938.058-8.54 2.582-1.069 1.685-1.12 4.193-.904 6.118-2.691-2.364-5.188-3.705-8.865-3.466-1.262.082-2.742.415-3.586 1.437-.616.745-.679 1.884-1.302 2.585-.172-.265-.192-.58-.243-.886-.219.107-2.88 4.988-3.412 5.692.633-2.644 2.116-4.885 3.063-7.397-1.782-.945-3.685-1.178-5.625-.596-3.088.926-3.048 2.74-4.73 4.892-.672.858-1.664 1.566-2.581 2.14 1.029.772 2.045 1.605 3.119 2.31 1.558-.283 4.208-1.105 5.71-.504l.046.156q-1.64 1.332-3.365 2.554c.818.769 1.437 1.69 2.216 2.486 1.851-.098 3.804-.298 5.65-.168l.102.444.183-.292-.117-.11.043.308c-1.109.987-2.797 1.56-4.143 2.171.415.934.891 1.825 1.382 2.72 2.067.05 4.343.06 6.349.572-1.697.849-3.53 1.353-5.341 1.893q.178 1.382.311 2.768c1.571-.03 3.91-.122 5.364.493l.123.203c-.647.833-4.035 1.258-5.142 1.402l-.158.02-.014 2.296c2.468.034 5.07-.1 7.518.142 1.288.127 2.578.434 3.853.66 2.163-2.338 7.232-7.46 9.795-8.912 1.606.674 3.08 1.858 4.512 2.847 2.256 1.56 4.556 3.192 6.968 4.499 2.903-2.71 6.045-5.188 9.08-7.75 1.501-1.267 3.018-2.825 4.618-3.942.234-.164.41-.243.705-.23.618.026 1.216.478 1.666.865 2.816-1.388 5.138-3.248 7.698-5.025q4.686-3.236 9.433-6.381c-.588-1.87-1.416-3.681-2.192-5.48-2.997 2.379-6.154 4.524-9.25 6.769-4.714 3.418-9.39 6.866-14.174 10.186-2.847 1.975-6.339 4.836-9.382 6.218 3.719-3.064 7.573-5.938 11.394-8.87 2.567-1.969 5.081-4.014 7.633-6.006 4.194-3.274 8.631-7.125 12.999-10.05-.516-1.248-1-2.523-1.584-3.74-2 1.395-3.928 2.893-5.909 4.316q-6.266 4.44-12.413 9.042c-4.04 3.075-7.958 6.25-12.147 9.131-1.185.815-2.412 1.778-3.73 2.359 6.757-5.875 14.005-11.223 21.123-16.653 4.131-3.151 8.13-6.473 12.294-9.585l-.563-1.062c-5.357 4.142-10.473 8.608-15.808 12.79-1.54 1.208-3.204 2.903-4.938 3.797.75-.9 1.74-1.706 2.601-2.505q2.774-2.616 5.682-5.083c3.916-3.376 7.784-6.8 11.742-10.13-.84-1.698-1.744-3.315-2.818-4.877-7.094 6.77-13.974 13.739-21.28 20.292-3.015 2.705-6.071 5.413-9.302 7.861 1.163-1.48 2.677-2.798 4.047-4.084q3.387-3.12 6.727-6.292c3.489-3.357 6.774-6.956 10.148-10.432 2.832-2.919 5.804-5.738 8.531-8.75-.884-1.703-1.897-3.388-3.1-4.883-1.671 1.566-12.248 12.911-13.475 13.223.295-1.17 7.849-9.316 9.157-10.75 1.084-1.187 2.43-2.336 3.32-3.663.02-.336-.12-.418-.311-.678l-.245-.034c-.967.563-2.34 2.582-3.106 3.493-2.658 3.16-7.126 8.872-10.2 11.246 1.264-1.993 2.953-3.762 4.429-5.603q4.098-5.06 7.976-10.293c-.869-1.155-1.73-2.297-2.699-3.371-4.217 5.196-8.607 10.382-13.19 15.257 1.215-3.087 3.823-5.784 5.854-8.388l6.347-8.162c-.25-.31-.543-.598-.814-.89-2.798 3.522-5.367 7.248-8.076 10.843-1.514 2.009-3.042 4.18-4.9 5.885 1.072-2.75 3.49-5.573 5.215-8.01l6.815-9.67c-1.058-1.068-2.098-2.159-3.241-3.136q-4.676 6.245-9.507 12.37c-1.077 1.36-2.182 3.046-3.352 4.288-.225.238-.327.3-.63.39-.228-.165-.264-.156-.383-.427 1.628-2.337 3.39-4.587 5.066-6.89l7.693-10.685-.851-.765c-2.201 2.977-4.201 6.14-6.305 9.189-1.172 1.7-2.383 3.558-3.83 5.036.613-1.644 2.931-4.928 3.99-6.65 1.731-2.814 3.322-5.817 5.241-8.501q-1.991-1.784-4.169-3.333c-1.867 2.494-11.505 18.615-12.793 19.17-.178.076-.221.006-.382-.064-.022-.081-.073-.16-.064-.242.038-.356 1.632-2.64 1.912-3.116 2.892-4.919 6.032-9.646 8.766-14.666.35-.643.96-1.31 1.137-2.024.044-.175-.102-.312-.188-.453-.137-.064-.285-.047-.434-.052-.293.132-.475.245-.661.524-1.07 1.6-2.119 4.09-3.07 5.88-1.554 2.925-3.23 5.766-4.86 8.647-.692 1.225-1.303 2.495-2.018 3.709.361-1.798 1.901-4.45 2.74-6.168 2.227-4.568 4.69-9.138 6.61-13.843a48 48 0 0 1-3.773-2.359c-.868 1.912-1.928 3.735-2.925 5.582q-2.579 4.864-5.293 9.654c-1.003 1.787-2.5 4.903-3.63 6.44-.27.143-.485.19-.787.234.29-2.05 5.505-11.504 6.844-14.084q2.216-4.29 4.375-8.608l-1.099-.844c-2.71 6.399-5.93 12.61-9.081 18.8l-.087-.106c.187-.087.446-1 .541-1.24 2.397-6.058 5.05-12.02 7.582-18.021q-2.335-1.302-4.615-2.699c-.756 2.5-1.906 4.884-2.957 7.27q-2.635 6.088-5.486 12.078c-.599 1.285-1.114 3.06-1.946 4.184-.233.315-.459.522-.859.59l-.178-.13c-.07-.268-.047-.477.03-.74.427-1.433 1.53-3.552 2.125-5.05q3.817-9.447 7.84-18.81l-1.148-.559q-1.702 4.513-3.485 8.994c-.64 1.625-1.216 3.482-2.109 4.983.286-1.557.98-3.189 1.45-4.716.996-3.241 1.91-6.535 3.1-9.711a42 42 0 0 0-4.924-2.145c-2.441 6.1-4.346 12.523-6.398 18.768l-1.658 4.887c-.232.68-.39 1.411-.666 2.073-.137.327-.35.684-.649.885-.219.146-.115.108-.409.05-.16-.312-.118-.596-.062-.93.429-2.584 1.777-6.28 2.594-8.872 1.203-3.814 2.319-7.661 3.536-11.467.44-1.38 1.827-4.671 1.785-5.929-.009-.266.024-.167-.178-.35-.906 1.131-1.151 3.044-1.833 4.358zM83.798 57.097l-.067-.114c-1.064-1.831-3.536-7.899-4.654-8.872-.297.041-.357.129-.593.303.307 1.3 1.634 3.199 2.282 4.443 1.597 3.067 3.1 6.179 4.717 9.236 1.333 2.52 2.84 5.038 4.016 7.627a.77.77 0 0 1 .067.443c-.326.162-.576.191-.93.216-.351-.163-.472-.42-.674-.75-1.12-1.837-2.068-3.835-3.071-5.741l-4.762-8.977c-1.008-1.916-1.98-3.89-3.16-5.708q-2.132 1.46-4.237 2.96 2.986 6.618 6.325 13.067c1.16 2.267 3.256 5.69 3.948 7.983l-.082.087c-1.122-.992-1.738-2.683-2.48-3.974q-2.597-4.432-5.02-8.962c-1.303-2.44-2.527-4.938-3.885-7.346l-.953.674c1.099 1.99 10.91 19.078 11.029 19.889-.14.239-.072.212-.367.31-.387-.125-.59-.364-.832-.678-1.413-1.839-2.504-4.06-3.71-6.052-2.5-4.132-5.11-8.224-7.31-12.526q-1.767 1.214-3.356 2.654c1.23 2.512 2.743 4.945 4.187 7.34.69 1.145 1.528 2.325 2.056 3.551l-.073-.075c-1.619-1.693-6.328-9.274-7.339-9.957-.236.126-.309.218-.44.45.004.146-.006.178.059.334.26.625 1.43 1.889 1.877 2.507l7.33 10.146c.88 1.214 2.109 2.572 2.74 3.916.145.308.218.497.092.815-.277.079-.34.133-.604-.019-1.09-.627-11.05-14.318-12.625-16.516-1.3 1.136-2.648 2.315-3.83 3.57q1.825 2.951 3.847 5.772c1.144 1.592 4.533 5.861 5.106 7.31-1.29-1.081-2.412-2.73-3.485-4.031-2.192-2.657-4.37-5.342-6.607-7.96l-.782.856q6.37 6.956 12.362 14.239c.252.31.642.69.6 1.095-.305.215-.385.305-.765.333-.837-.502-5.35-5.98-6.253-6.977q-3.485-3.852-7.189-7.493-1.55 1.745-2.991 3.582c1.99 2.323 3.853 4.755 5.802 7.113 1.31 1.585 5.196 5.663 5.831 7.25l-.076.123c-1.173-.52-10.91-11.63-12.486-13.336-.207.231-.547.526-.614.833-.065.296 2.109 2.362 2.434 2.687 2.315 2.311 8.72 8.779 10.148 11.313-1.855-1.183-3.52-2.987-5.124-4.5-2.858-2.695-5.676-5.441-8.597-8.068a57 57 0 0 0-2.278 3.097q5.989 6.79 12.449 13.134.121-.143.25-.28c7.282-7.974 20.6-14.88 30.803-18.369 2.437-.833 5.423-1.85 8.013-1.921.758-.021 1.442.1 2.014.628 1.716 1.584 3.861 5.155 5.466 7.152 2.682 3.335 6.203 6.949 9.281 9.916l.026-.056c.478-1.107 1.153-2.066 1.806-3.073 1.647-2.537 2.601-4.93 2.528-7.973-.85.008-1.706.133-2.552.225-.57.736-1.105 1.35-1.902 1.862-1.677 1.076-3.537.771-5.37.312-.493-.124-.699-.19-.956-.62.91-1.03 3.118-.804 4.31-1.24.387-.14.84-.54.96-.946.09-.308.088-.564-.09-.842-.705-1.093-4.644-1.769-5.955-2.085-.56.62-1.005 1.91-1.687 2.281-.291-.547.042-1.804.156-2.417l.863-.91c.286-.104.567-.224.878-.209 1.09.052 2.32.498 3.386.77 3.442.879 7.877 1.82 11.317.483.536-.208 1.473-.661 1.684-1.24.064-.178-.015-.24-.088-.396-.197.11-.4.234-.61.318-.359.144-.482.088-.82-.07l-.075.348c-.182.174-.263.032-.448.118-.528.244-.032.229-1 .31-.597.05-.948.152-1.462.458l-.151.093c-.432-.276-3.52-.182-4.37-.302-3.067-.433-6.006-1.628-9.055-2.21.325.344.875.753 1.007 1.209l-.193.32c-.385.186-.736.55-1.069.823-1.452-.378-1.605-3.734-2.761-4.593-.1-.075-.116-.07-.241-.05-1.656.25-.41 2.81-1.04 3.533-.698-.613-1.04-1.626-1.364-2.471.184-.394.391-.802.65-1.152.469-.633 1.137-.731 1.87-.825-.07-1.647-.368-4.049.883-5.329 1.989-2.035 6.342.814 8.406 1.332.553.139 1.198.11 1.768.12-.091-2.754-.623-5.61-.95-8.35-.741-6.236-1.576-12.48-2.19-18.729-1.965.368-3.94.696-5.891 1.136.505 2.967.862 5.974 1.272 8.957.398 2.898.857 5.799 1.169 8.708.207 1.936.296 3.885.487 5.823-2.097-7.536-3.366-15.34-4.594-23.057l-1.55.391c.63 2.894 4.24 20.466 3.832 21.719-.521-.318-4.932-19.06-5.525-21.261-1.51.531-3.014 1.06-4.552 1.507q.802 3.787 1.66 7.562c.462 2.014 1.06 4.086 1.225 6.148-1.075-3.554-2.098-7.11-3.246-10.641-.282-.869-.336-1.788-.724-2.623-.336-.07-.486.021-.806.13-.09.358.011.69.105 1.04.44 1.631 1.013 3.253 1.508 4.871 1.85 6.04 3.866 12.04 5.359 18.182-.225.383-.466.758-.702 1.136-.943-2.792-1.733-5.654-2.596-8.474-1.645-5.38-3.382-10.871-5.39-16.126-1.767.663-3.551 1.356-5.248 2.186.448 1.798 1.133 3.595 1.703 5.362 1.596 4.95 3.368 9.893 4.825 14.882-.994-1.509-1.646-3.587-2.322-5.259-1.92-4.745-3.604-9.59-5.572-14.312-.417.215-.827.447-1.24.671 3.021 7.892 6.596 15.6 9.791 23.427-.25.243-.477.541-.834.601-.891-1.046-3.468-7.373-4.252-9.154-2.068-4.696-4.315-9.39-6.152-14.178q-2.15 1.082-4.199 2.344c1.267 3.164 2.758 6.402 3.53 9.723m67.845 15.05.063.047c3.5 5.33 7.596 10.305 11.408 15.424 1.108 1.487 2.197 3.644 3.418 4.936l.063.07-.063-.07c-.37-1.719-1.347-3.54-2.12-5.12-2.15-4.396-8.004-13.626-12.706-15.24zm-60.155.93c-.543.062-.907.166-1.361.474l-.378.05-.093.198.293-.029.178-.22c.554-.047.894-.168 1.361-.472l.136-.063zm-43.91 4.366c.57.956 1.895 2.185 2.834 2.756l.104.086.082.09-.082-.09-.104-.086c-.54-.791-1.982-2.434-2.834-2.756m24.676 5.511c-.396.016-.816.358-1.085.635l-.084.1-.081.038.081-.038c.115-.035.23-.068.342-.11.327-.121.68-.294.827-.625.62-.161.974-.306 1.32-.863-.55.175-.92.457-1.32.863m-3.497 2.302-.12.111zl.229-.168zm13.2 1.423-.052.07zc.89-.71 1.596-1.715 2.459-2.489 1.913-1.717 3.903-3.349 5.864-5.011 2.913-2.472 5.61-4.871 9.011-6.694l-.023-.139c-.203-.09-.407-.19-.634-.202-1.373-.068-3.268.91-4.518 1.454-4.925 2.146-10.258 4.667-14.303 8.273-.425.379-.733.603-.766 1.197-.097-.022-.246-.075-.36-.053-.862.168-3.107 3.097-3.692 3.877 1.385-.963 2.566-2.2 3.915-3.218 3.836-2.894 11.794-8.16 16.142-9.593-3.364 2.971-11.778 8.458-13.095 12.598m5.492 6.56-.067.135zc1.19-1.871 1.756-4.19 2.601-6.235 1.758-4.254 4.235-7.891 7.546-11.088.843-.814 1.652-1.63 2.691-2.192-.886.821-1.714 1.597-2.45 2.56-2.67 3.488-6.59 11.386-7.626 15.648 1.058-1.706 1.844-3.677 2.706-5.49 1.971-4.146 4.091-8.319 7.048-11.852.357-.306.833-.476 1.258-.669-2.864 6.336-1.666 13.976-.072 20.49-.312-5.324-.837-14.14 1.85-18.794-.855-1.046-1.898-2.145-3.11-2.765-.227.034-.4.081-.606.186-5.309 2.697-8.242 8.223-9.96 13.69-.677 2.157-1.154 4.364-1.876 6.51m15.757-17.318c-.083.35-.177.72-.185 1.082-.09 3.979 5.392 13.547 8.136 16.424l.063.072-.063-.072c-.487-1.651-1.621-3.282-2.36-4.848-1.686-3.57-3.344-7.225-4.655-10.95 2.95 4.27 5.529 7.693 9.712 10.923-.48-.673-1.108-1.286-1.663-1.901-.696-.751-1.34-1.553-2.048-2.292-.527-.552-1.115-1.05-1.608-1.634-.838-.994-1.525-2.137-2.328-3.166-.968-1.24-2.046-2.386-3.001-3.638M87.17 93.655l-.032.344zl.195-.154zm-48.211-.54c.35.824 2.798 2.211 3.667 2.598l.248.162.184.159.259.139.085.098.096.076-.096-.076-.085-.098-.26-.139-.183-.159-.248-.162c-.724-.878-2.602-2.166-3.667-2.598m167.486 15.557-.07.056zc1.42-.345 12.687-6.392 13.352-7.346l-.18-.599-.222-.03c-2.806 1.968-5.833 3.804-8.791 5.538-1.318.773-3.019 1.457-4.159 2.437M55.36 111.815c-2.692-1.308-5.28-3.055-7.913-4.507-3.794-2.093-7.762-4.004-11.464-6.242l-.425 1.383c5.842 2.835 11.621 5.858 17.391 8.84 2.164 1.118 5 2.946 7.195 3.71 1.641-1.187 3.189-2.501 4.875-3.625l-1.213-.753c-6.234-3.648-12.308-7.602-18.461-11.388-2.33-1.434-4.66-3.038-7.07-4.323-.66 1.637-1.333 3.278-1.784 4.988 4.702 2.59 9.22 5.573 13.74 8.465 1.465.937 3.985 2.264 5.128 3.452m64.163 12.427.1-.086c2.035-1.73 7.505-.864 10.146-.804.397.009.84.07.88-.428.051-.643-.19-1.42-.304-2.056-.522-2.915-2.924-10.95-1.109-13.323l.145.017c.276.924.072 1.999-.023 2.94.998-1.83 1.55-3.892 1.245-5.982-.43-.666-.843-1.075-1.493-1.52.325-.584.691-1.169.948-1.785-.698-.677-1.405-1.24-2.257-1.718-.773.632-1.413 1.387-2.053 2.149.552.476 2.265 1.492 2.38 2.141-1.02 1.59-4.166-.649-2.707 5.936.486 2.195 1.432 4.262 1.966 6.433.378 1.23 1.209 3.121 1.123 4.4-.025.36-.197.674-.343.997l-.041.097c-2.565.024-5.232-.713-7.781-1.038-2.485-.317-5.05-.321-7.554-.436-.78-1.399-1.811-3.86-3.134-4.739-.327-.043-.407.006-.717.133-.221.546.76 3.601.915 4.383-1.419-.776-2.778-1.517-4.371-1.859 1.482 1.4 2.615 2.763 4.49 3.648-1.336-.128-2.35.051-3.646.379 1.096.228 2.2.816 3.274.943 4.474.532 4.666-.914 8.811 2.469 1.035.009 2.074.035 3.108-.006-.54-.406-1.354-1.212-1.998-1.285m1.931 20.063c1.316-1.73 3.07-2.963 4.465-4.6-.61.059-1.316.076-1.895.277-2.6.905-5.486 4.422-7.746 6.166 1.541 3.436 3.148 6.844 4.635 10.305 1.657 3.855 3.203 7.768 4.98 11.57 2.242.002 17.289.075 17.978-.215.189-.236.216-.24.218-.537-.224-.294-.302-.354-.67-.412-2.013-.318-5.516.01-7.723.036l-1.242-1.472c2.986-.124 5.96-.448 8.944-.585-.172-.484-.333-.976-.526-1.452-3.132.138-6.298.155-9.42.41a26 26 0 0 1-1.27-1.736c3.36-.157 6.733-.37 10.096-.444l-.476-1.617c-3.566.047-7.329-.03-10.868.39l-.988-.85c2.25-.143 4.477-.435 6.712-.725 1.491-.221 2.989-.386 4.48-.603-.134-.615-.245-1.249-.43-1.85-3.804.393-8.112 1.147-11.886 1.151-.6-.446-1.15-.879-1.672-1.417 2.515-.527 5-1.218 7.51-1.736.483-.1 1.114-.299 1.431-.708.046-.059.073-.13.11-.195l-.171-.257c-.79-.006-1.636.309-2.403.503-1.696.431-4.406 1.262-6.09 1.34-.151-.234-.098-.405-.092-.678.307-.58.836-.7 1.428-.882 2.199-.678 4.324-1.545 6.511-2.243l-.369-1.187c-2.42.66-4.872 1.581-7.351 1.959-.208-.386-.426-.769-.615-1.164q3.676-1.309 7.313-2.723c-.228-.5-.443-1.01-.694-1.498q-3.844 1.411-7.667 2.875c-.419-.319-.831-.625-1.201-1.002q3.839-1.598 7.633-3.3c-.304-.331-.602-.68-.938-.98-1.51.464-7.472 3.092-8.29 2.963-.24-.182-.47-.36-.69-.566 2.373-1.303 4.78-2.63 7.231-3.78l-1.304-1.346c-2.334.9-4.582 2.123-6.988 2.815m16.987 32.98-.05.065zc.839-.416 1.533-.775 2.49-.804l.22.123c.05.297-.051.541-.227.78-.134.181-.315.336-.476.494l-.588.584c.665-.383 1.327-.798 2.014-1.14.467 1.714.52 3.223.221 4.974-.4-.411-.792-.833-1.208-1.227.256.628.53 1.252.738 1.898-.853.944-3.741.117-4.476 1.308.028.271-.02.25.192.455l.174-.027c.795-.111 1.56-.083 2.36-.047-.134.253-.488.755-.415 1.011.25-.085.453-.174.685-.301.376-.207.804-.314 1.229-.208.251.435-.29 1.108-.027 1.423l.335-.424c.23.165.212.475.259.749.11.641.092 1.736.578 2.202.242-.122.154-.028.25-.327.201-.624.153-1.473.484-2.016.378.062.504.451.824.412a3 3 0 0 0-.048-.757c-.059-.357-.098-.691.144-.999.166-.212.415-.302.651-.41.369.009.615.233.904.436l.296.004c.084-.213.111-.395.133-.623.665-.155 1.36.258 2.03.073.124-.32.182-.4.121-.73-.59-.422-1.524.091-1.816-.73q.144-.319.305-.63l.061-.06-.06.06c-.592.347-1.178.66-1.802.944-.38-.244-.705-.541-1.043-.84.384-.785.65-1.488.849-2.337-.337.452-.79 1.232-1.352 1.394-.2.058-.244-.036-.404-.14-.522-1.174-.13-3.191.105-4.424.398.37.732.708 1.244.916l.076.028-.076-.028-.243-.398c-.187-.307-.311-.468-.27-.848.162-.302.26-.44.553-.622.293-.023.433.021.684.156.322.174.649.401 1.014.298-.148-.262-.317-.426-.274-.732.784-.229 1.626.266 2.333-.257.117-.338.085-.492.013-.83-.724-.24-1.536.068-2.23-.14-.099-.03-.357-.299-.435-.298-.259.004-.754.51-1.11.549-.169.018-.201-.076-.313-.181-.098-.332-.106-.544-.066-.89.03-.258.055-.333-.027-.585-.178.246-.304.471-.603.578-.42-.308-.882-1.932-1.131-2.474-.09.618-.113 1.487-.323 2.062-.127.346-.199.359-.515.487-.537-.067-.933-.475-1.345-.8.247.293.52.59.721.916.152.245.2.261.131.553-.733.2-1.6.027-2.36.027-.482 0-.88-.005-1.228.375-.15.163-.11.096-.09.329.5.563 1.477.556 2.18.638-.416.33-.742.591-1.02 1.048m-24.362 2.14-.05.072zc.684-.626 1.215-.91 2.174-.917l.254.344c-.147.604-1.013 1.214-1.46 1.694.62-.358 1.198-.772 1.782-1.186.237 1.002.353 2.03.492 3.05.376-.952.584-1.965.82-2.958l1.341 1.348c-.293-.536-.807-1.141-.918-1.738.171-.284.269-.483.59-.617.51.007.784.382 1.227.565.225.092.255.125.485.028-.092-.275-.148-.408-.144-.702.739-.264 1.96.217 2.57-.233.066-.314.04-.352-.08-.654-.53-.26-1.091-.198-1.665-.273-.298-.04-.52-.036-.716-.279l.22-.368-.044-.133-.353.019c-.564.128-1.03.252-1.604.11-.132-.114-.256-.162-.282-.347-.1-.704.98-2.08 1.355-2.715-.685.632-1.344 1.296-2.013 1.944-.276-1.01-.55-1.996-.953-2.965-.244 1.01-.277 1.966-.292 2.999-.398-.245-.693-.416-1.158-.49l-.045.124q.118.138.233.278c.294.358.464.539.42 1.02-.71.545-1.505-.112-2.288.048l.276.415c-.27.544-1.416.182-1.975.375-.225.292-.227.373-.274.743.572.297 1.324.06 1.945.21.252.062.282.077.424.299a8 8 0 0 1-.344.963M127.936 9.93c1.419 2.795 9.238 9.047 11.998 11.403 4.185-2.35 8.635-4.554 12.6-7.245l.268-.38c-.088-.344-.08-.36-.357-.575-1.07-.08-10.276 5.647-12.224 6.676-2.181-1.602-10.452-9.707-12.285-9.88m-.951.416c-2.383 1.884-4.619 3.94-6.88 5.967-1.337 1.199-2.693 2.572-4.219 3.526l-8.11-4.4c-1.435-.79-3.013-1.856-4.554-2.378-.279.236-.252.476-.325.823.113.336.298.42.58.609q3.799 2.133 7.638 4.195c1.616.879 3.409 1.739 4.869 2.86 1.526-1.298 10.984-9.309 11.422-10.472-.073-.274-.132-.45-.306-.674zm.884 2.479c-2.308 2.261-4.68 4.422-7.09 6.574-1.14 1.017-2.268 2.168-3.536 3.021q.37 4.073.556 8.158 5.177-.362 10.366-.42c3.211-.012 6.399.301 9.604.366.278-2.693.469-5.496.998-8.152-1.106-1.047-10.22-9.262-10.898-9.547m26.22.245c-.217.278-.444.447-.451.807.986 1.448 2.067 2.826 3.08 4.256l5.803 8.334q4.668-1.234 9.244-2.774c1.771-.578 3.562-1.318 5.383-1.705l.696-.795.708-.896q-4.772 1.389-9.492 2.943c-2.018.658-4.073 1.44-6.153 1.865-1.371-2.25-7.157-10.944-8.819-12.035m-52.801.264c-2.129 2.611-6.913 8.874-8.111 11.754-2.4-1.124-11.81-4.04-14.328-4.296l-.217-.024-.13-.013 1.137 1.192c2.833 1.078 5.753 1.96 8.657 2.825 1.757.523 3.67.953 5.328 1.729 1.096-2.634 8.052-10.951 8.212-12.716-.178-.185-.32-.332-.548-.451m1.329 2.305c-1.381 2.205-2.876 4.34-4.347 6.485-1.078 1.573-2.113 3.278-3.416 4.673.855 2.746 1.577 5.542 2.4 8.3q4.15-1.25 8.358-2.291 4.911-1.206 9.914-1.944c-.203-2.689-.309-5.37-.47-8.058-3.387-2.664-8.657-4.709-12.44-7.165m50.316.092c-3.537 2.186-8.066 4.807-11.767 6.666q-.538 4.261-1.014 8.53c3.418.402 6.743 1.035 10.097 1.8 2.62.662 5.273 1.268 7.855 2.067q1.486-3.864 2.72-7.814c-.655-1.198-7.254-10.999-7.89-11.25m-75.45 5.568c-2.436 4.094-4.55 8.578-6.483 12.93-4.595-.422-9.219-.4-13.816-.759l.968 1.312c4.462.29 9.027.572 13.496.597 1.587-2.57 2.807-5.546 4.131-8.27.787-1.619 1.796-3.273 2.383-4.965-.082-.303-.189-.573-.477-.751-.063-.04-.135-.063-.202-.094m101.65.057-.734.935c1.644 4.544 3.292 9.144 5.134 13.61 2.2-.047 13.759-.178 14.636-.709l.9-1.112c-4.873.492-9.835.485-14.729.69-.523-1.498-4.714-12.864-5.207-13.414m-99.911 2.047c-1.789 4.115-3.745 8.33-5.898 12.264 1.885 2.444 3.243 5.302 4.916 7.892q3.584-2.114 7.354-3.877 4.691-2.117 9.474-4.019c-.839-2.631-1.665-5.286-2.363-7.959-4.52-1.284-9.083-2.651-13.483-4.3m97.428.36c-4.599 1.323-9.067 3.069-13.711 4.248-.981 2.499-1.719 5.117-2.546 7.672 3.116 1.154 6.104 2.442 9.145 3.769q3.94 1.912 7.794 3.994c1.6-2.396 2.944-4.985 4.613-7.327-.76-2.001-4.05-11.35-5.023-12.366zm23.319 10.458c-.32.462-.65.91-.895 1.417.154 1.774.51 3.544.804 5.3l1.319 7.87c2.09.369 13.536 2.547 14.8 2.372l.085-.06 1.113-1.077c-3.082-.455-6.173-.837-9.254-1.308-1.899-.29-3.857-.742-5.766-.897q-.675-4.493-1.45-8.969c-.254-1.529-.4-3.146-.756-4.648m-77.98.334c-.056 5.037.403 10.16.085 15.183-.359-1.885-.504-3.834-.707-5.741q-.539-4.636-.874-9.291c-1.188.084-2.388.165-3.561.386-.009 1.602.068 3.254-.174 4.841-.162-1.581-.304-3.216-.649-4.77l-1.902.25c.222 3.324.62 6.675.996 9.986.209 1.952 1.854 16.474 1.304 17.31l-.45.068c4.003 1.315 4.161.54 7.824.1-.102-9.46-.505-18.917-.422-28.378zm-65.536.047c-1.056 4.326-2.129 8.68-3.315 12.971-2.577.502-12.437 1.883-14.096 2.737.19.277.71.574 1 .75 1.734-.116 3.51-.527 5.226-.817l8.832-1.453c1.074-4.357 2.335-8.755 3.12-13.17zm2.212 1.832c-.496 1.425-.659 3.05-.996 4.527-.627 2.746-1.527 5.58-1.862 8.375 1.758 2.184 3.844 4.204 5.766 6.25 2.08-1.725 4.159-3.616 6.377-5.156 2.626-2.045 5.39-3.856 8.107-5.77-1.33-2.565-2.785-5.232-4.413-7.617q-6.487-.377-12.98-.609m135.501.747c-3.56.149-7.12.34-10.684.32-1.345 2.366-2.793 4.687-4.005 7.127 3.34 2.207 6.657 4.395 9.891 6.758 1.755 1.31 3.439 2.662 5.056 4.14 1.523-1.878 3.626-4.88 5.198-6.481q-1.152-5.966-2.073-11.973-1.692.044-3.383.109M53.881 50.42c-4.247.75-8.522 1.58-12.801 2.12l-.302 12.841q3.172 2.401 6.4 4.73l.195.114c.766-.335 3.178-3.476 3.913-4.31 2.692-3.062 5.605-5.91 8.51-8.766-.732-.875-5.258-6.611-5.915-6.729m147.37.222c-1.698 2.027-3.537 4.055-4.958 6.292 1.496 1.529 3.043 3.017 4.49 4.592 2.634 2.866 5.102 5.881 7.602 8.862l.935-.706c1.789-1.36 3.94-2.714 5.567-4.22q.192-6.4.017-12.799c-4.577-.431-9.09-1.464-13.652-2.02m16.214.582c-.287.339-.583.674-.845 1.032-.055 1.468-.214 12.742.066 13.424.463.409.966.692 1.53.935 1.047.454 11.822 4.36 12.164 4.327.07-.006.135-.036.202-.055.385-.293.78-.577 1.149-.89-4.666-1.558-9.275-3.308-13.934-4.897-.006-1.967.29-12.967-.332-13.876m-178.95.052c-.55 4.382-.498 8.959-.531 13.371-4.402 2.097-9.15 3.418-13.552 5.51.377.26.785.508 1.126.813q3.717-1.352 7.402-2.787c2.075-.798 4.263-1.59 6.239-2.61.13-4.511-.008-9.024.309-13.53-.306-.276-.611-.603-.992-.767m68.106 10.78c.239.62 2.087 1.559 2.718 1.99.235-.102.116-.038.352-.201.269.442.163 1.202.271 1.715q.06-.082.124-.163a1.8 1.8 0 0 1 .46-.407c.312-.016.487-.077.744.135.412.34.48.89 1.017 1.141l.246-.04c.09-.157.174-.302.24-.47.48.62.701 1.53 1.382 1.957.364-.003.644-.196.954-.364.175.008.248-.033.377.112.427.483.136 1.104.953 1.295.231-.237.259-.459.346-.77.201-.141.148-.165.361-.134 2.113.301 1.606 3.284 5.708 2.165.637-.28 1.482-.786 1.776-1.453.12-.275.132-.584-.016-.851-.326-.588-1.003-.845-1.624-.963-.418-.08-.841-.135-1.261-.194-.373.486-.732 1.005-1.144 1.457-1.394-.183-2.741-.36-4.015-.988-3.478-1.713-5.63-5.53-9.969-4.969m-.283 1.42c-.575.623-.606.969-.575 1.79.029.763.161 2.123.613 2.761.139-.175.088-.19.064-.403.21-1.062.674-2.021 1.109-3.007-.391-.395-.77-.801-1.211-1.14m15.988 1.563-.062.25c.344.196.822.135 1.208.133l-.045-.332c-.334-.199-.732-.092-1.101-.051m-13.935.772c-.344.622-.941 1.664-.776 2.383.04.177.06.19.14.326 2.11.647 4.336.994 6.466 1.632.148-.287.068-.311-.018-.608-1.061-.612-1.943-.414-2.464-1.698-.092-.227-.195-.312-.382-.46-.927-.23-1.564.398-2.053-.472-.054-.096-.097-.197-.147-.295-.178-.355-.438-.592-.766-.808M39.194 67.35c-3.992 1.8-8.147 3.293-12.236 4.858l2.479 13.116c1.806 1.022 3.693 1.87 5.517 2.852l1.391.65c2.756-5.632 6.148-11.18 9.822-16.25-.682-.52-6.557-5.145-6.634-5.175-.107-.042-.226-.034-.34-.05m177.014.231c-2.091 1.713-4.27 3.292-6.39 4.963 2.67 4.025 5.264 8.067 7.645 12.272.734 1.299 1.632 2.645 2.189 4.026l2.397-1.286c1.401-.8 2.791-1.645 4.258-2.321.654-1.736 1.046-3.572 1.485-5.371l1.82-7.492c-1.941-.722-12.45-4.756-13.404-4.79m-90.604 2.108h.138zm-10.946.5h.153zm2.153 0h.125zm-1.403.124h.153zm2.075 0h.143zm-1.825.126h.153zm36.05.592-.259.139c.285.553 3.108 1.383 3.839 1.771 1.81.962 3.559 2.017 5.353 3.002 1.47.806 3 1.502 4.47 2.308 2.302 1.262 4.545 2.668 6.778 4.047 1.942 1.2 4.014 2.373 5.778 3.82l.162-.056c-.507-1.01-2.104-2.054-2.994-2.776-5.997-4.874-12.668-9.183-20.045-11.622-1.021-.337-2.004-.584-3.083-.633m80.629-.06c-.35.395-.733.797-.949 1.284-.768 1.741-1.103 3.834-1.552 5.683-.644 2.658-1.404 5.344-1.798 8.051 2.346 1.547 4.746 3 7.14 4.47 1.811 1.113 3.62 2.302 5.528 3.24.393-.055.642-.363.945-.613-4.02-2.693-8.137-5.327-12.364-7.683.57-2.415 3.321-12.764 3.05-14.432m-83.973.27c-2.032 2.65-3.662 5.512-5.567 8.24q-2.321 3.271-5.106 6.158-1.482 1.573-3.147 2.95c-1.218.997-5.044 3.398-5.613 4.342 1.117-.197 2.353-1.145 3.31-1.747 4.986-3.134 8.069-5.786 11.432-10.62.564-.81 1.896-3.955 2.423-4.306.7 1.423-.464 9.653-.832 11.715.133.88-.995 4.998-1.199 6.219 1.324-2.826 2.197-5.425 3.013-8.417 1.273-4.661 2.065-8.823.93-13.627 1.185 2.028 1.524 3.911 2.205 6.108.643 2.075 1.391 4.117 2.05 6.186.576 1.806 1.045 3.675 1.731 5.442.343.882.16 1.962.524 2.818l.018-.167.026.148c.202-5.439-.916-11.348-2.812-16.418-.537-1.435-.999-2.806-2.067-3.949-.382-.409-.87-.742-1.319-1.075m-124.27.418c.599 4.66 1.638 9.224 2.338 13.862-3.93 2.352-8.16 4.177-12.223 6.285.511.222 1.039.428 1.537.677 1.854-.895 3.673-1.859 5.51-2.787 2.156-1.088 4.504-2.075 6.374-3.627-.445-4.626-1.671-9.198-2.356-13.8-.38-.218-.764-.47-1.18-.61m134.106.092q2.749.979 5.448 2.086c1.198.492 5.834 2.755 6.873 2.793-2.775-1.55-9.192-4.817-12.32-4.88M88.996 73.86c-.485.244-1.146.483-1.526.87.143.12.07.107.197.1.488-.222 1.133-.429 1.52-.8l-.063-.138zm36.606.358c-.111.357-.301.63-.126.973l.174-.046.426-.445c-.083-.25-.269-.326-.474-.481m-38.435.546c-1.384.627-7.51 3.369-8.104 4.323l.024.193c.95-.585 7.98-4.12 8.119-4.33zm37.837-.008c-.377.144-.964.272-1.189.598.165.237.274.3.514.45.426-.108.583-.228.781-.643.074-.154.08-.212.113-.363zm-2.397.819-.222.385.092.197c.307.018.587.013.893-.018l.205-.167c-.223-.288-.613-.332-.968-.397m2.362 1.365h.216zm-2.032.355-.41.313.015.187c.134.018.278.045.413.052l.568-.364-.06-.122zm2.034 1.275c-.056.311-.109.367-.314.614.218.14.12.105.277.147.166-.213.37-.365.358-.641-.084-.034-.234-.112-.321-.12m-.952.457.014.105.087-.006-.01-.111zm-.43-.074-.333.626.096.138.513.062c-.054-.219-.114-.68-.275-.826m-1.14.1c-.204.262-.374.356-.35.702.194.096.333.135.548.157.315-.194.399-.178.495-.529-.249-.245-.347-.247-.692-.33m-75.637.162c-1.175 1.455-2.214 3.094-3.097 4.745 1.823 1.413 11.792 10.44 12.585 10.657l.171-.169c.993-1.394 2.168-2.676 3.338-3.922q-4.264-3.939-8.626-7.768c-1.41-1.214-2.834-2.492-4.371-3.543m31.726.04c-.36.188-.89.384-1.147.701.133.17.056.134.187.169.369-.216.887-.434 1.111-.806zm-1.595.769c-.86.515-2.382 1.141-3.012 1.884l.016.269c.722-.46 2.577-1.34 3-1.99zm44.992.838c-.163.299-.353.478-.274.82.401.229 1.084.148 1.544.154l.236-.576c-.098-.219-.032-.2-.231-.264-.391-.126-.864-.113-1.275-.134m2.565.468.076.16-.05-.153zm-3.627 1.441-.528 1.273 1.83.277.382-1.303zm2.99.64-.208.537c.128.273.13.24.361.391l.184-.666c-.175-.25-.06-.167-.337-.261m-53.79.625-.412.432.03.156.179.047.443-.436c-.11-.196-.03-.131-.24-.199m49.709.979c-.348.526-1.028 1.464-.948 2.116.039.313.23.593.502.752.461.27 1.14.314 1.663.397.76-.756.747-1.622.882-2.636-.699-.265-1.357-.516-2.1-.629m-76.767.188-.547 1.062 19.16 14.894q2.717 2.133 5.39 4.32c1.066.867 2.136 1.835 3.288 2.582l.291-.206v-.206c-1.136-1.08-2.445-2.018-3.666-3.006l-6.184-5.084q-5.247-4.366-10.545-8.67c-2.363-1.928-4.696-3.924-7.187-5.686m80.338.982c-.134.316-.289.62-.168.97.025.073.063.14.095.209.109-.3.309-.682.17-.997-.028-.063-.065-.121-.097-.182m-51.627.994c-.62.051-1.25.081-1.864.174 1.252 1.854 2.87 3.535 4.3 5.26 2.694 3.249 5.306 6.565 8.01 9.805 1.978 2.368 4.157 4.669 5.921 7.197-1.897-1.697-3.603-3.708-5.344-5.57-4.935-5.275-9.588-10.77-14.303-16.24-2.2.868-4.275 1.925-6.384 2.99 4.669 4.574 9.167 9.315 13.743 13.98 2.87 2.927 5.98 5.761 8.661 8.855-2.307-1.673-4.363-3.724-6.455-5.653-1.902-1.755-3.822-3.477-5.67-5.291-3.815-3.745-7.526-7.634-11.526-11.184-1.509 1.071-2.918 2.196-4.25 3.485 4.377 3.642 8.667 7.432 13.118 10.979.687.532 1.368 1.113 2.102 1.577.667-.061 1.337-.109 2.001-.193l6.678 5.335c1.146.923 2.264 1.95 3.47 2.792.763-.655 3.063-3.14 4.081-3.02 2.01.237 10.422 9.545 12.532 11.517 2.581-2.338 2.47-2.63 6.118-2.873-1.819-1.823-3.452-2.65-6.075-2.674 1.255-1.435 2.621-2.472 4.396-3.2-.438-.212-.9-.408-1.308-.672 2.162-1.225 4.668-1.27 7.08-.849.903.903 1.512 2.007 2.33 2.973 1.886.233 5.055.775 6.689-.467 1.016-.773 1.367-2.042 1.494-3.258.122-1.166.045-2.309-.108-3.467-3.826-3.59-5.668-7.379-5.844-12.651-.035-1.077.05-2.152-.007-3.228a13.3 13.3 0 0 0-1.319 2.4l.507 1.645c-2.425-2.238-6.019-3.209-9.289-3.09-1.029.037-2.302.292-3.009 1.119-.444.519-.613 1.32-.81 1.963-.31-1.306-.55-2.199-1.762-2.953-2.403-1.496-6.549-2-9.261-1.257q-.142.039-.282.085t-.277.098-.272.112-.266.125-.26.137-.253.15-.246.161-.237.174-.23.184-.22.195-.21.206-.2.215-.19.225-.178.234-.167.241q-.081.123-.156.25l-.097-.1.012-.166c.142-2.025-1.166-4.15-2.48-5.625-.76-.853-1.644-1.524-2.722-1.926-.153.372-.289.823-.56 1.121l-.023-.188c-.062-.478-.084-1.05-.52-1.354-.473-.33-1.149-.111-1.642.046-1.708.544-3.002 1.705-4.265 2.93.284-.808.862-2.135.384-2.958-.25-.43-.669-.666-1.149-.763-.62-.125-1.306-.08-1.937-.065m155.427.335q-3.22 2.014-6.688 3.56c.85 2.296 1.856 4.53 2.706 6.827 1.225 3.311 2.223 6.689 3.162 10.09q2.747-.657 5.485-1.35c.679-.195 1.362-.38 2.028-.617 2.05-3.617 3.46-7.608 5.61-11.166-3.065-1.84-6.113-3.696-9.201-5.494-1.022-.594-2.04-1.346-3.102-1.85m-198.873.21c-3.657 2.06-7.692 3.656-11.216 5.905 1.616 4.123 3.25 8.3 4.669 12.494q1.805.321 3.613.623 2.183.41 4.352.891c1.389-5.609 3.314-11.18 5.56-16.507-1.203-.529-6.4-3.335-6.978-3.406m13.443.023-2.095 4.202c3.351 2.513 6.59 5.182 9.948 7.683 3.875 2.887 7.844 5.566 11.837 8.282 1.066.725 3.318 2.576 4.456 2.776.246-.088.476-.169.706-.295.873-.582 1.746-1.157 2.578-1.797-2.602-2.648-6.631-5.294-9.676-7.585q-8.843-6.678-17.754-13.266m76.503.941a27 27 0 0 0-.535 3.127c1.132.113 2.244.201 3.383.138l.219-.163c.069-.8-.023-1.59-.038-2.39q-1.517-.346-3.03-.712m4.85.728c-.068.547-.12 1.019-.037 1.57l.183.194c.09-.546.273-1.15-.055-1.647q-.043-.06-.091-.117m-5.534 3.734c-.153 1.032-.169 2.053-.129 3.095.52-.27 1.019-.56 1.593-.695l.313.139c.076.278.107.179-.016.399-.361.644-1.324.986-1.89 1.44.083.742.121 1.512.353 2.225l.158.113.132-.046q1.337-.909 2.699-1.78c-.429-.682-.893-1.36-1.272-2.071.005-.97.105-1.886.253-2.845-.732-.006-1.463-.023-2.193.026m3.1-.045c-.098 1.233-.167 3.072.687 4.095.142.17.234.156.44.213l.324-.253c.25-.266.574-.473.597-.844l-.094-.155c-.525-.893-.601-2.198-1.163-2.97-.263-.03-.527-.063-.791-.086m-106.467.291c1.73 4.425 3.228 9.036 4.732 13.545-3.35 3.063-6.802 6.111-9.91 9.423l1.237.155c2.005-1.675 3.92-3.467 5.846-5.233 1.381-1.266 2.852-2.515 4.109-3.904-1.345-4.67-3.215-9.176-4.749-13.783zm109.526.243c.132.381.18.729.487.996l.306-.084.123-.634c-.243-.292-.55-.233-.916-.278m16.17.291c-2.891.151-5.936.436-8.766 1.064.977.578 1.991 1.004 3.002 1.506a22.5 22.5 0 0 1 4.103-1.163 6.7 6.7 0 0 1-.988 1.398l-1.128 1.014q1.288.864 2.597 1.695c1.255-.468 3.272-1.38 4.605-.95.263-.218.279-.449.315-.778.072-.659.07-1.345.096-2.008-.629-.921-1.226-1.435-2.35-1.648a8.4 8.4 0 0 0-1.486-.13m102.139-.106c-1.993 2.562-5.742 10.574-6.792 13.62 1.221 1.178 9.826 8.649 10.7 9.017l.8-.035.245-.025c-.192-1.127-8.995-7.983-10.512-9.356.87-1.247 1.466-2.892 2.111-4.277q1.951-4.26 3.99-8.479l-.04-.174zm-115.035 1.797-.45.217-.05.21c.349.35.906.467 1.365.622l.347-.037.13-.192c-.14-.305-.378-.575-.697-.706-.18-.074-.396-.087-.588-.107zm-2.708 1.813c-.538.616-1.06 1.214-1.501 1.906.37.558.697 1.137 1.235 1.549l.28.028.21-.25a28 28 0 0 1 1.826-2.073c-.619-.437-1.303-.983-2.05-1.16m5.822.436c.427.617.969.951 1.661 1.218l.38-.058c-.007-.265.056-.335-.146-.527-.389-.37-1.171-.67-1.707-.647q-.094.006-.187.014m-9.278 1.465c-.954.545-1.825 1.052-2.572 1.877l.586 1.563.941-.748c.517-.29.965-.55 1.552-.672.332-.07.579-.034.773-.323-.226-.6-.635-1.174-1.043-1.666zm12.92 1.033c.377.432 1.133 1.12 1.722 1.206.18.025.206.013.366-.008-.162-.494-.394-.68-.871-.91a2.55 2.55 0 0 0-1.217-.288m-2.721 1.464c-.312.405-.719.834-.879 1.324.309.336 1.458.106 2.241.871 1.097 1.073.717 1.95 1.395 2.72.704-.771.854-1.356 1.058-2.347-1.031-1.117-2.463-1.898-3.815-2.568m-7.962.487a11 11 0 0 0 1.075 1.61l1.103-.42.062-.19c-.682-.466-1.403-.923-2.24-1m14.274.04-.12.325c.326.563.922.864 1.462 1.195.066-.36.136-.484-.113-.792-.272-.335-.826-.6-1.229-.728m-16.3.228c-.611.445-1.118.922-1.643 1.465.363.562.946 1.653 1.556 1.92l.142-.1a16 16 0 0 1 1.697-1.188c-.273-.474-.932-1.926-1.455-2.061-.198-.051-.117-.042-.296-.036m99.248.271c-3.149 1.344-6.175 3.062-9.214 4.64q-4.106 2.091-8.285 4.034c1.004.96 1.99 2.013 3.163 2.766 1.005-1.077 3.949-4.52 5.037-4.935 1.144.121 1.918.924 2.802 1.589 2.696-1.174 5.156-2.844 7.853-4.019-.272-1.131-.508-3.135-1.224-4.032zm-185.106.953c-.444 1.53-.861 3.062-1.16 4.628 2.925 1.203 9.627 4.88 12.25 4.931 3.05 2.616 4.816 3.674 8.272 5.58a27 27 0 0 0 2.267-1.464c.809-.616 1.642-1.216 2.394-1.901zm105.362.617-.289.403c.209.66 1.44 1.24 2 1.652.148-.281.16-.27.085-.576-.529-.57-1.172-1.021-1.796-1.48m-4.62.574c-.503.823-.909 1.66-1.303 2.541.607.557 1.346.946 2.05 1.366.476-.817.985-1.63 1.38-2.49-.698-.484-1.391-.991-2.127-1.417m-12.526.846c-.496.281-1.002.553-1.488.85.295.451.563.835.959 1.201l.503.378.198-.057c.324-.615.158-1.487.113-2.163-.178-.203-.076-.145-.285-.209m15.708 1.582c-.507.69-.965 1.365-1.369 2.121l2.338 1.671c.382-.774.728-1.544 1.038-2.35-.61-.494-1.275-1.147-2.007-1.442m5.26.13c-.177.384-.271.517-.237.947.323.44.776.675 1.115 1.082l.238-.468c-.218-.591-.643-1.147-1.116-1.561m77.529.566c-2.093.897-5.306 2.203-7.086 3.53.13.297.393.493.627.707 2.28-1.132 4.617-2.104 6.927-3.166-.088-.36-.14-.846-.469-1.07m-200.704.526c-3.158 3.008-6.446 5.897-9.58 8.923q2.703 3.998 5.461 7.957c.754 1.079 1.535 2.444 2.459 3.362q3.683-.172 7.365-.381c.194-5.712 1.075-12.742 2.3-18.325-2.62-.495-5.446-.82-8.005-1.536m111.518.021q-.573 1.01-1.184 1.995c.737.486 1.476.907 2.263 1.305l.967-2.109a6.7 6.7 0 0 0-2.046-1.191m73.468.141h.151zm27.596-.052c-2.225.686-4.444 1.384-6.697 1.974 1.013 5.932 1.71 11.768 2.05 17.777l7.594.264.618-.839c2.348-3.502 4.614-7.143 7.14-10.516-2.334-2.002-4.626-4.047-6.984-6.023-1.082-.907-2.194-1.98-3.43-2.662zm-200.257.879c.056.098.092.21.169.293.268.293 8.827 3.827 9.868 4.151.253.079.449.085.704.028l-.016-.222c-1.106-.629-9.82-4.135-10.725-4.25m108.539-.082c-.407.674-.746 1.305-.981 2.063.437.407.88.897 1.396 1.199l.101-.025c.387-.56.827-1.12 1.147-1.72-.513-.564-1.022-1.094-1.663-1.517m-71.508.582c-.58.298-1.102.602-1.631.987l4.736-.003c.426-.016.858-.018 1.283-.05-1.504-.561-2.779-.872-4.388-.934m65.075.026c-.399.717-.789 1.441-1.2 2.151.588.365 1.164.77 1.819 1.002.41-.539.836-1.07 1.195-1.645-.549-.633-1.023-1.175-1.815-1.508m-12.269.876c.025.313.23.592.465.796.14.123.18.139.325.225-.176-.349-.35-.838-.687-1.045zm99.105-.048c-1.999.7-3.94 1.45-5.849 2.37q2.165 1.718 4.398 3.344c.26.19.537.371.775.588.151.64.291 1.287.465 1.922l1.937-.423c-.113-1.278-.837-7.035-1.445-7.79zm-189.211.392a37 37 0 0 0-.752 4.269c2.216.62 4.546 1.01 6.726 1.72l1.62-1.075c.625-.462 1.264-.913 1.862-1.41-1.823-.715-3.669-1.366-5.498-2.063-1.304-.496-2.608-1.082-3.958-1.44m113.692-.085c-.12.257-.195.34-.103.629.096.305.411.6.645.807.172-.397.2-.572.152-1.002-.163-.246-.19-.36-.499-.417-.064-.012-.13-.011-.195-.017m-8.536.933a9.7 9.7 0 0 1-1.303 1.617 29 29 0 0 0 2.202 1.701c.293-.103.373-.393.506-.667.161-.334.298-.684.441-1.025zm6.224-.01c-.393.415-.794.823-1.158 1.264.45.493.907.981 1.346 1.484l1.077-1.007c-.372-.617-.728-1.248-1.265-1.74m68.791.618a68 68 0 0 1-3.254.01c-.39.395-.787.785-1.167 1.19l1.364-.017 4.472-.038c-.254-.233-1.098-1.138-1.415-1.145m-12.744.227c-1.101.028-1.5.445-2.28 1.17l2.6.017 2.369-.016c-.566-.559-1.095-1.226-1.96-1.213-.243.003-.487.022-.729.041m-134.32.246c-1.247.049-1.791.586-2.673 1.408.754-.192 1.454-.32 2.24-.314l2.995-.004-1.166-1.134zm4.087.061c.461.443.886.797 1.446 1.121 2.359.008 4.756.099 7.11-.045l-1.128-1.11q-3.714.048-7.428.034m17.286.885a40 40 0 0 0-1 1.058l.092.123c.323-.018.61-.06.926-.127.27-.063.426-.091.667-.232-.094-.347-.431-.583-.685-.822m60.987.156c-.306.314-.355.312-.393.77.109.222.188.448.373.617.345-.337.372-.34.444-.848-.144-.296-.12-.385-.424-.539m-7.379.268c-.32.458-.657.909-.92 1.402.385.442.743.918 1.252 1.22.179-.016.246-.017.405-.111.4-.267.81-.525 1.195-.811-.585-.618-1.194-1.265-1.932-1.7m5.15.553-.952.618c.314.495.61 1.065 1.002 1.499l.858-.6c-.268-.514-.51-1.09-.908-1.517m-39.158.11c.083.375.067.639.361.895l.591.041c-.153-.373-.186-.58-.568-.79-.103-.056-.27-.107-.384-.145m-2.849.786c-.522.254-1.053.496-1.553.794.65-.045 1.308-.067 1.95-.183.368-.04.758-.03 1.057-.272-.174-.229-.392-.297-.675-.333-.252-.032-.524-.013-.778-.006m-58.147.295c-1.998.16-2.975.823-4.627 1.84.509-.053 1.02-.121 1.532-.14 1.526-.02 3.066-.004 4.59-.081-.374-.544-.742-1.226-1.263-1.636zm160.755.226c-.418.4-.85.791-1.24 1.22q6.053.06 12.105.026c.382-.026.624.034.91-.232-.058-.376-.433-.67-.689-.935zm-145.823.093-1.772 1.23q5.496.024 10.992-.02l1.623-.05c-.42-.407-.826-.825-1.298-1.172-3.176.01-6.37.092-9.545.012m13.571.007c.452.374.893.74 1.303 1.162q2.956.09 5.903-.162c-.08-.385-.564-.776-.83-1.058q-3.188.058-6.376.058m121.997.006c-.51.336-1.05.786-1.658.9a3 3 0 0 1-.455-.245c-.265.043-.268.014-.486.204l.03.244c.619.381 4.457.146 5.386.147h1.837c.31-.425.65-.844.924-1.292-1.808-.023-3.784-.182-5.578.042m-164.57.286c-.059.434-.145.566.092.947 1.123.684 2.484.803 3.727 1.19l1-.563c.223-.142.495-.263.636-.49-.39-.16-.053-.074-.405-.038-.05.005-.1-.013-.15-.018l.043-.121-.213-.024c-1.572-.186-3.172-.585-4.73-.883m55.423.12c.616.364 1.196.738 1.907.876q.087.018.175.034c.742.13 1.547.054 2.297.028-.293-.35-.576-.715-.912-1.024-1.158-.004-2.312-.02-3.467.086m33.19-.042-.129.06c-.352.163-1.427.418-1.65.669l.076.098c.59-.081 1.441-.124 1.846-.605-.103-.205-.037-.146-.144-.222m22.92.073-1.12 1.002c.382.502.745.92 1.235 1.328.366-.327.741-.647 1.09-.993-.286-.395-.726-1.194-1.206-1.337m29.965.324c-.331.213-.69.376-.842.759.174.256.299.292.596.339 1.087.172 2.305-.007 3.41.007l.512-.014.098-.144c-.963-.99-2.532-.81-3.774-.947m-23.984.152c-.327.247-.36.233-.447.626.09.27.145.463.322.691.334-.256.496-.315.63-.722-.139-.292-.24-.409-.506-.595m-141.19.179c2.492 4.182 5.507 8.06 7.988 12.266-1.113 1.57-7.227 9.755-7.33 10.758l.176.193c.384-.004.515-.025.81-.291q2.652-3.434 5.227-6.927c.895-1.215 1.877-2.438 2.622-3.751-.79-1.47-7.687-11.891-8.482-12.117-.312-.089-.688-.101-1.011-.131m237.602-.006c-2.899 3.839-5.761 7.906-8.255 12.018 2.68 3.918 5.725 7.589 8.475 11.46q.19-.631.362-1.268c-2.482-3.293-5.077-6.641-7.344-10.08q2.434-3.83 4.944-7.61c.618-.933 2.443-3.307 2.726-4.22-.27-.224-.575-.244-.909-.3m-98.587.757c-.307.319-.474.397-.468.88.006.41.262.998.527 1.308.191-.157.393-.227.425-.485.065-.516-.16-1.3-.484-1.703m-95.134.11c.278.327.553.748.981.863.294-.048.496-.121.76-.259l-.025-.184zm-20.386.477q-.283 1.218-.528 2.445c.643-.234 1.266-.454 1.859-.804.502-.358 1.008-.707 1.483-1.1-.936-.173-1.889-.318-2.814-.541m113.438.661-.846.577c.216.517.41 1.065.707 1.542.363-.195.582-.22.687-.66.104-.432-.061-.876-.304-1.23-.119-.175-.088-.138-.244-.229m78.193.129.436.383c.072-.006.155.01.215-.029l.022-.257c-.242-.103-.413-.103-.673-.097m-175.17.483c-3.413.328-6.984.088-10.422.164-.341.218-1.363.742-1.438 1.076a3.2 3.2 0 0 0 .792.104q5.955.052 11.91-.022c-.21-.436-.398-1.007-.752-1.333zm142.766-.096c-.67.464-1.363.911-2.014 1.398l8.547-.012c.412.012.752.068 1.1-.198.212-.342.377-.689.542-1.056-1.81-.02-6.786.24-8.175-.132m-134.717.139-1.253 1.27c3.035.138 6.092.078 9.13.08 3.263.004 6.54.058 9.8-.066l.652-.05.135-.164c-.204-.42-.541-.709-.829-1.068zm22.54.006c.484.434.952.867 1.4 1.339l9.412.054c1.5.007 3.521.227 4.97-.117-.35-.424-.69-.866-1.072-1.263q-7.355-.044-14.71-.013m124.48-.01-.573 1.241c5.498.025 11.002.06 16.5-.001l.169-.093c-.681-.467-2.322-.954-3.16-1.07-1.386-.193-2.937-.067-4.344-.07zm-33.248.558c-.804.076-1.094.485-1.629 1.058 4.385.18 8.8.072 13.19.063l1.698-.011c-.55-.343-1.168-.8-1.8-.958-2.067-.517-8.973-.243-11.459-.153m-20.523.35c-.037.354-.07.627.132.95.058.092.106.122.184.183.092-.395.163-.551.047-.947zm-2.022.507c.015.443-.025 1.123.313 1.465.109.11.24.087.383.103.1-.55.046-.958-.258-1.433zm-2.009 1.185c.04.546.153 1.069.483 1.517l.258.106c.126-.436.27-.927.045-1.354a.51.51 0 0 0-.382-.276c-.098-.018-.3 0-.404.007m-41.433.5c-.466.199-.905.39-1.332.666.48.436.94.861 1.493 1.207 2.478.177 4.969.156 7.452.152q.471-.784.954-1.561c-2.458.239-4.843.201-7.31.144-.428-.295-.749-.486-1.257-.608m-72.503.78-.575 1.349 19.6.017.133-.18q-.324-.576-.636-1.159c-6.166.026-12.361.18-18.522-.026m25.554.038c-.57.495-1.166.902-1.797 1.315H79.08c.504.004 1.023.082 1.454-.215l.123-.267c-.422-.562-2.01-.697-2.675-.79-2.335-.328-4.896-.12-7.257-.11zm25.988.014c.268.462.73.786 1.055 1.215 4.496.118 9.148.295 13.633-.018-.046-.478-.517-.88-.84-1.23l-8.874-.031c-1.645 0-3.335-.07-4.974.064m69.879.115c-.02.334-.124.756.044 1.046 2.264.098 6.945.373 9.006.066l.094-.087c.108-.212.337-.536.342-.769-1.625-.45-7.531-.301-9.486-.256m33.1-.046c-.504.37-.936.73-1.364 1.189 4.665.188 9.38.056 14.052.056l25.217.007c.365-.016.48.03.764-.213.01-.38-.07-.697-.164-1.06l-24.714-.001c-4.563-.01-9.239-.262-13.792.022m-20.56.121c-.315.37-.636.737-.936 1.119 1.78.023 14.039.276 14.9-.074l1.002-1.055c-4.978-.032-9.99-.12-14.967.01m-15.98.59-.047.182.118.065.095-.217zm-35.155.006-.013.22c.342.122.666.065 1.019.032-.278-.157-.563-.383-.894-.334zm33.42-.069c.042.418-.005.75.268 1.077l.417.027c.077-.31.11-.476.023-.785-.266-.244-.35-.246-.708-.319m-1.655.777c-.186.502-.3.925-.084 1.44.11.067.206.136.33.171.19-.4.437-.82.292-1.271-.064-.202-.157-.228-.353-.294-.06-.02-.123-.03-.185-.046m6.554.334c.46.819 2.744 1.543 3.649 2.221-1.281.022-2.541-.056-3.818-.146-.164.427-.336.852-.481 1.286l2.65.065 1.732.009c.472-1.046 1.328-1.878 2.066-2.744-1.957-.11-3.871-.564-5.798-.691m-35.215 1.352q.61.952 1.25 1.886l12.654.044c3.762.044 7.554.16 11.313.03l.125-1.957zm30.299-.065c-.007.386-.092.734.117 1.066.22-.031.306-.059.515-.161.058-.299.16-.447-.01-.714zm-41.69.582c-.02.183-.007.554-.075.71-.113.26-.53.247-.318.561 2.4.366 5.315.11 7.777.1l.244-.076c-.267-.51-.92-.89-1.463-1.058-1.798-.555-4.267-.257-6.165-.237m-75.026.148c-.021.47-.095.763.118 1.188.227.136.395.217.663.234.979.06 2.02-.078 3.012-.069l10.277.019 30.686-.025.877-.63a4 4 0 0 0 .552-.562c-1.716-.314-3.665-.159-5.415-.16l-9.374.007c-10.462.008-20.934-.117-31.396-.002m54.43.026.437 1.285c5.061-.015 10.162.085 15.22-.06-.06-.482-.602-.904-.931-1.27q-7.364-.022-14.727.046m75.738-.02-1.136 1.098c4.817.059 9.766.32 14.572.017.457-.392.905-.794 1.392-1.149-4.936.006-9.894-.088-14.828.033m20.533.02c-.197.398-.385.806-.601 1.195l15.845-.01c.282-.383.555-.776.848-1.15-2.82-.119-5.651-.076-8.474-.074-2.535.002-5.085-.048-7.618.038m20.621.008-.4.11c-.018.283.038.447.142.708.342.32.742.362 1.193.394 1.859.135 3.817-.045 5.688-.035h15.578l.297-.115c.058-.387.053-.577-.064-.95-.321-.204-.614-.185-.995-.198-3.086-.104-6.217.037-9.309.036-4.03-.002-8.106-.126-12.13.05m-56.321.122c-.245.272-.399.441-.475.814.055.248.097.347.279.527.239-.266.387-.48.404-.855.01-.246-.046-.317-.208-.486m-65.628.566c-2.046 1.272-3.871 2.886-5.766 4.368-2.126 1.664-4.312 3.253-6.423 4.935.795 1.714 1.797 3.344 2.725 4.989q1.912 3.399 3.783 6.82c.782 1.416 1.642 2.838 2.267 4.332.868 2.074.133 4.485.624 6.63.34 1.482 2.655 5.209 3.46 6.757l15.183-.09-.334-1.635c-2.443.004-4.901.056-7.34-.125-.307-.37-.622-.734-.92-1.111 2.629-.226 5.316-.294 7.919-.74-.111-.559-.21-1.123-.346-1.677-2.694.25-5.681.31-8.312.9l-.376-1.545q4.201-.501 8.391-1.088c-.136-.642-.253-1.29-.459-1.914-1.586.4-7.728 2.089-8.808 1.823a7 7 0 0 1-.445-.868q4.483-1.19 8.878-2.672c-.101-.64-.181-1.293-.328-1.924-1.93.34-12.218 3.09-13.373 2.524.038-.314.074-.31.308-.529 2.296-1.162 4.606-2.342 6.988-3.318.99-.405 2.933-.858 3.657-1.488-.02-.323-.098-.357-.282-.61-.61-.19-9.194 2.543-11.21 2.732 2.707-2.591 6.955-3.175 10.24-4.79-.33-.476-.655-.905-1.053-1.327-2.215.764-4.55 1.267-6.73 2.08-.252-.089-.261-.091-.409-.314.398-.787 5.272-2.67 6.369-3.13l-.885-1.103-.152.043c-1.284.372-6.153 2.343-7.111 2.058-.027-.276-.02-.28.158-.482.861-.98 4.984-2.295 6.411-3.232l-1.127-1.261c-1.062.222-3.004.966-4.031.675-.15-.278-.1-.255-.035-.543.69-.826 2.031-1.008 3-1.406l-.658-1.394c-.85.355-3.117 1.516-3.905 1.153-.035-.016-.066-.04-.1-.06.166-.849 3.858-2.05 3.61-3.532-.417-.225-.769-.16-1.213-.025-1.158.352-2.139.949-2.856 1.924-.28-.408-.57-.81-.81-1.245 1.08-.417 3.537-1.597 3.968-2.694.096-.243.105-.408.095-.664l-.141-.21c-1.366-.237-3.705 2.307-4.953 1.99-.043-.327.01-.462.215-.726.9-1.161 3.008-2.155 4.214-3.113-.162-.484-.305-.973-.547-1.425-1.509.814-2.81 1.868-4.178 2.886l-.153-.078c-.049-.413.04-.655.293-.988.945-1.246 2.472-2.112 3.552-3.266-.147-.426-.254-.927-.54-1.277m119.367.362c-1.828 2.159-3.223 4.668-4.823 6.998 1.96 4.84 3.252 9.773 4.64 14.793.883 3.19 1.856 6.352 2.732 9.542.672 2.445 1.206 4.971 2.023 7.369 1.601.01 8.848.297 9.591-.317-.106-.287-.122-.247-.363-.402-1.54-.135-4.75.276-5.749.096-.282-.05-.345-.116-.535-.313-.03-.29-.096-.31.093-.55 2.012-.17 4.054-.04 6.073-.207-.166-.552-.317-1.114-.514-1.656-1.307.036-5.903.364-6.791.021l-.268-.353c.175-.346.339-.475.715-.587 1.431-.428 4.128-.217 5.803-.413l-.56-1.694-3.206.019c-.811.026-2.352.297-3.015-.25-.177-.145-.24-.294-.317-.501.158-.21.057-.154.327-.189 1.857-.24 3.868-.088 5.754-.255l-.552-1.47c-1.477.082-5.268.662-6.318-.247l-.014-.234c.85-.679 4.514-.483 5.85-.688-.218-.714-.423-1.434-.684-2.134-1.795.076-3.608.1-5.4.23-.419-.263-.843-.521-1.254-.796q3.092-.24 6.191-.35l-.57-1.602c-1.236.002-4.63.334-5.563-.548-.113-.106-.183-.231-.264-.36l.049-.186c1.677-.186 3.601-.018 5.309-.031-.173-.584-.334-1.162-.58-1.72-1.329.02-3.583.296-4.79.113-.282-.042-.476-.176-.68-.364l.034-.216c.988-.514 3.858-.278 5.065-.283-1.171-3.322-2.623-6.54-3.837-9.846-.601-1.636-2.938-9.495-3.602-10.419m-52.557.819c-.11.318-.18.388-.078.704.196.103.33.163.55.217.097-.319.23-.514.11-.835a2 2 0 0 0-.582-.086m-1.816.593c-.059.379-.151.583.016.935l.355.113c.072-.37.146-.508-.004-.86zm-119.78.406c-2.198.1-4.403.238-6.603.204-1.488 1.91-2.915 3.866-4.379 5.794-1.122 1.479-2.3 2.923-3.324 4.473 2.08 2.245 4.47 4.217 6.767 6.235 1.285 1.17 2.556 2.368 3.89 3.484 2.13-.58 4.44-.792 6.624-1.152-1.24-6.19-1.99-12.725-1.922-19.045zm203.155-.047q-.072 4.67-.566 9.314-.494 4.643-1.406 9.223c2.379.616 4.934.935 7.227 1.809 1.51-1.295 2.857-2.778 4.37-4.058 1.87-1.76 4.373-3.781 5.886-5.772-2.618-3.461-5.14-7.034-7.847-10.423q-3.833.051-7.664-.093m-142.029.742.432 1.213c4.029.01 20.035.484 23.055-.614.249-.188.453-.276.569-.573l-.09-.044-.083.099-.293.056-.049-.214c-7.834.227-15.702-.035-23.54.077m26.15.04-.668 1.108c9.632.012 19.308-.155 28.934.175l.925-.96q-10.587-.159-21.175-.159c-2.67-.017-5.349-.212-8.016-.165m-81.771.143-.187.185c.001.382-.047.612.146.947 1.207.21 28.293.153 28.882-.007l.148-.188.876-.773c-3.684-.212-7.41-.114-11.1-.119zm33.45.004-.256.099c.08.397.45.677.736.962 1.68.02 5.299.387 6.7-.293l1.152-.8q-4.166-.043-8.333.032m88.592-.05c.184.411.338.905.723 1.163 2.586.158 5.233.047 7.827.043l13.466.017 9.72.012c1.512.001 3.169.136 4.666-.041.21-.204.4-.406.584-.633l.217-.272c-.284-.228-.639-.196-.998-.201-3.337-.048-6.685.164-10.02.135-8.727-.074-17.456-.29-26.186-.223m40.076.144c.029.404.035.672.286 1.011.27.138.46.195.761.082.148-.055.228-.11.357-.188l.306-.56c-.066-.216-.01-.235-.181-.304-.398-.162-1.093-.054-1.529-.04m26.517.028c-2.3.022-14.883-.161-16.072.246l.015.23c.901.621 4.224.35 5.4.339 1.86.001 15.113.21 15.748-.03l.155-.191c-.08-.282-.117-.373-.404-.519-.785-.4-3.824-.09-4.842-.075m-69.268 1.356a25 25 0 0 1-2.518 3.753c.806.747 1.59 1.475 2.506 2.089-1.414-.167-2.85-.157-4.25-.406.513 2.124 1.147 4.247 1.565 6.39-1.052-1.702-2.165-3.234-3.577-4.665-1.454 1.306-3.021 2.526-4.572 3.716 2.298 2.601 5.716 6.401 7.26 9.434.945 1.858 1.366 4.013 1.926 6.008q1.173 4.147 2.398 8.279 9.39-.157 18.782-.095 4.604.026 9.207-.042c1.114-.014 2.258.048 3.367-.02a3.6 3.6 0 0 0 1.24-.286l.143-.212c-.403-.459-1.208-.519-1.786-.552-1.171-.069-2.402.065-3.575.115q-2.267.094-4.536.088c-.431-.582-.898-1.16-1.283-1.772 3.337.018 6.66-.106 9.995-.215-.22-.59-.426-1.182-.713-1.743-3.374.025-6.763.31-10.134.47-.617-.638-1.209-1.26-1.726-1.984 3.511-.177 7.023-.5 10.528-.77l-.753-1.348c-1.671.066-10.587.697-11.397.022.106-.464.373-.842.618-1.242.214-.288.285-.345.645-.383 1.754-.182 7.255.09 8.375-.595-.23-.275-.659-.293-1.007-.327-1.894-.183-4.872.147-6.921.17l.593-1.292c2.213-.002 4.435.037 6.647-.016-.31-.5-.61-1.015-.948-1.497l-4.954.016c.13-.608.178-1.16.193-1.779 1.17.006 2.341.025 3.512.016-.244-.426-.478-.863-.738-1.279h-3.06c-1.005-3.75-2.274-7.605-2.589-11.488 1.307 3.282 1.891 6.749 2.832 10.136l1.76-.086c-.806-1.208-1.131-3.657-1.569-5.128-.693-2.333-1.526-4.851-2.686-6.993-1.473 1.964-2.149 3.87-2.954 6.163-.398-.489-.786-.991-1.206-1.46-.877.934-1.743 1.87-2.707 2.716 1.38 6.111 3.05 12.149 4.295 18.29-1.104-1.894-2.049-3.898-3.037-5.856q-2.784-5.455-5.366-11.009c-1.203-2.577-2.338-5.208-3.72-7.696-.625-1.127-3.11-5.093-4.105-5.635m-6.249.236c.243.302.348.538.724.654l.232-.073.018-.497c-.319-.222-.597-.113-.974-.084m-1.54 1.517-.269.167.291-.01.194-.132zm1.062.245.117.285.203.022-.051-.333c-.235.003-.15-.026-.27.026m-82.918-.077c-4.887 4.067-10.056 8.261-15.82 11.028 1.251 3.467 2.556 7.672 3.218 11.289.611 3.336.86 6.769 1.378 10.127q7.406-.073 14.813-.045c2.106.001 4.308.157 6.4.036.345-.02.55.005.802-.238.027-.319.02-.48-.113-.772-.22-.179-.385-.234-.671-.238-1.234-.018-2.563.171-3.806.229q-4.323.236-8.653.255c-.386-.446-.75-.877-1.22-1.239 3.25.001 6.567-.35 9.801-.657 1.391-.133 2.805-.345 4.201-.378-.12-.63-.22-1.27-.385-1.89-1.947.224-14.407 1.652-15.088 1.287l-.035-.16c1.34-1.828 13.955-2.463 14.352-3.375.033-.076-.024-.566-.046-.659-.041-.172-.076-.23-.145-.376-1.87-.305-10.317 1.582-12.892 1.926-.273-.453-.55-.9-.777-1.379 1.604-.273 3.2-.551 4.787-.906 2.853-.583 5.654-1.307 8.468-2.053-.143-.57-.274-1.146-.469-1.702-5.901 1.272-12.357 3.741-18.458 3.436 1.634-.933 3.265-1.902 5-2.637 1.668-.707 11.015-3.432 11.468-4.427-.133-.286-.225-.416-.552-.493-.972-.228-8.753 2.57-10.629 2.945 2.312-2.192 6.956-4.12 9.986-5.172-.176-.62-.33-1.254-.564-1.855-1.438.355-8.473 2.913-9.269 2.651.076-.36.291-.473.59-.664 2.481-1.589 5.294-2.823 7.868-4.28l-.499-1.43c-1.172.376-8.061 3.117-8.598 2.864.743-1.288 6.374-4.366 7.918-5.176-.176-.544-.303-1.054-.684-1.495-.772-.084-5.913 3.217-7.26 3.716 1.96-2.287 4.425-4.115 6.345-6.443-.126-.387-.328-1.372-.656-1.598-.032-.022-.07-.035-.106-.052m129.498.008q-2.685 4.129-5.447 8.207c-1.135 1.652-2.412 3.278-3.467 4.979-.136.219-.362.501-.304.762.062.28.184.404.36.621 1.187.435 4.67.301 6.152.395a18 18 0 0 1-2.93.512c-.53.044-1.869-.08-2.296.142-.073.038-.133.098-.2.148.17.292.412.39.726.48 1.498.43 3.817-.228 5.025.885l.09.354c-.646.427-3.764.304-4.66.305l.93 1.53 3.99-.146.403 1.193q-1.776.198-3.558.329c.309.535.608 1.071.971 1.572.573-.006 2.12-.212 2.505.249.205.245.237.569.298.873-.67.108-1.348.197-2.008.347.238.548.504 1.014.832 1.512.456.013.971-.044 1.381.163.177.33.226.474.21.862-.176.371-.311.459-.647.666-.042.773 2.435 4.485 2.94 5.662 1.894.014 6.218.335 7.851-.176l.102-.377c-1.872-.675-4.504-.226-6.496-.266l-.246-1.764 2.72.007 3.563.023c-.175-.673-.332-1.358-.543-2.02-1.964.099-3.924.117-5.89.124l-.325-1.53c1.921.024 3.857.078 5.777-.006-.137-.535-.254-1.085-.434-1.607-1.228.014-4.834.255-5.789.072a8.5 8.5 0 0 1-.266-1.562c.752-.32 4.573-.126 5.706-.186-.112-.643-.223-1.277-.4-1.907-1.869.008-3.734.097-5.6.179l-.485-1.261q2.86-.142 5.722-.189l-.362-1.69c-1.808-.049-3.62-.12-5.429-.126-.227-.519-.44-1.051-.705-1.552 1.5.014 4.513.343 5.813-.322l.035-.37c-1.545-.948-5.182.058-5.904-.439-.231-.159-.329-.44-.445-.685l.013-.269c1.747-.485 3.913-.24 5.737-.44-.156-.605-.287-1.234-.494-1.823-.65-.04-1.311.013-1.798-.493q-.05-.057-.095-.117c.024-.221-.025-.232.176-.38.363-.268.942-.245 1.384-.292-.729-1.943-1.696-3.788-2.392-5.743-.382-1.072-1.301-4.778-1.797-5.415m-123.006.563-.015.097.09-.01.03-.103zm138.248-.115c-.058.302-.013.36.104.651.57.489 3.135.482 3.869.31.047-.012.09-.04.135-.06l.457-.81c-1.293-.339-3.203-.111-4.565-.091m-170.64.145c-1.08-.006-2.947-.293-3.81.422-.089.074-.109.119-.162.208l.089.258c1.126.474 18.784.18 21.664.186l2.678-.02c.447-.33.897-.651 1.313-1.02-3.122-.157-6.27-.079-9.396-.072zm53.72-.003c.095.391.106.574.38.876 1.287.218 6.521.196 7.703-.046.32-.065.593-.259.856-.443l.334-.197-.058-.118c-1.835-.306-7.16-.17-9.215-.072m45.955.001c-8.211.076-16.427-.072-24.636.034l.693 1.22 3.674-.007c3.036.002 8.6.403 11.234-.593.32.189.651.37.96.577 3.692.028 7.456.134 11.14-.054.248-.383.489-.772.75-1.146q-1.908-.043-3.815-.031m38.476.003-.34.104c.01.398.316.75.54 1.08 4.434.004 8.892.102 13.323-.03l.843-1.126c-4.763-.14-9.604-.172-14.366-.028m42.63-.025c.113.357.173.678.485.917 1.887.356 6.433.093 8.567.085-.01-.4.044-.639-.186-.974-2.089-.286-6.653-.1-8.866-.028m-114.119.052q-4.633 3.475-9.175 7.069c2.445 2.566 5.134 5.063 7.778 7.426.566 3.506 1.345 7 2.111 10.468.495 2.241.945 4.523 1.546 6.736q4.632.008 9.261-.092c1.332-.035 2.721-.002 4.042-.167-.181-.5-.36-.969-.631-1.428q-3.105.079-6.207.213c-.343-.508-.694-1.012-1.022-1.53q3.361-.324 6.73-.573c-.174-.493-.333-.998-.53-1.481-2.251.17-4.512.39-6.77.431l-.498-1.319c2.198-.292 4.56-.464 6.699-1.031-.147-.52-.279-1.044-.48-1.545-2.305.237-4.597.523-6.912.636l-.601-1.359c2.316-.319 4.676-.537 6.954-1.074l-.506-1.92c-1.388.165-2.766.39-4.146.611-.663.117-2.243.587-2.827.344-.152-.25-.207-.471-.127-.765.072-.268.221-.363.464-.462.628-.256 1.407-.298 2.07-.464 1.41-.351 2.813-.838 4.233-1.198-.104-.413-.223-1.243-.651-1.441-1.307-.603-7.789 2.523-8.988.714 0-.324.012-.391.27-.63 1.056-.976 5.397-1.082 6.164-2.109-1.808-.243-4.276 1.157-5.803.93-.421-.061-.77-.285-1.126-.505 2.211-.837 4.464-1.54 6.696-2.317l-.705-1.492c-1.264.333-6.217 2.125-7.135 1.664-.181-.09-.266-.22-.363-.388.05-.075.076-.174.15-.226.362-.258 6-2.01 6.956-2.35-.192-.515-.373-1.036-.588-1.54-1.65.442-3.378 1.04-5.06 1.197-.085.008-.195.064-.273.1l-.012.048-.081-.124c.456-1.14 3.757-2.154 4.894-2.763l-.547-1.234c-1.274.383-2.566.73-3.832 1.13-1.004.317-2.009.805-3.04 1.011a1.75 1.75 0 0 1-.782-.009l-.151-.187c.225-.493 5.8-2.744 6.709-3.087q.269-.101.54-.198c-.323-.674-.63-1.361-.992-2.015l-.217.067c-1.122.351-2.183.843-3.253 1.323l-.16-.178c.064-.742 1.105-1.481 1.63-1.953-.491-.345-1.097-.897-1.706-.964m58.463.097-4.401.038c.248.383.487.778.76 1.144q3.397-.11 6.797-.102l3.663-.02 1.005-1.047q-3.912-.077-7.824-.012m52.384.026c-1.043 2.237-1.62 4.7-2.899 6.816 1.263 2.59 1.936 5.505 2.787 8.254.46 1.488 1.034 2.946 1.61 4.393-.059-.98-.022-2.095-.3-3.035-.359-.28-.663-.409-.827-.845.127-.353.452-.47.773-.65.195-.637.044-1.533-.04-2.185-.573-.027-1.186.008-1.708-.25-.123-.174-.187-.215-.203-.433l.14-.15c.525-.003 1.087.076 1.544-.215.19-.285.272-.633.196-.977-.029-.135-.049-.152-.112-.254-.565-.044-1.304.047-1.823-.146l-.167-.3c.06-.17.045-.254.217-.348.556-.304 1.246-.055 1.766-.468-.024-.368-.012-.382-.256-.655-.486-.12-1.184.024-1.571-.236l-.028-.243c.524-.419 1.285-.1 1.821-.496.01-.311.009-.475-.144-.75-.19-.096-.209-.133-.429-.12-.33.022-.63.09-.917-.107-.102-.28-.122-.283-.024-.56.422-.242 1.065-.186 1.387-.506.068-.317.128-.489.001-.8a4 4 0 0 0-.728-.32c-.132-.272-.163-.403-.037-.693.126-.292.304-.577.46-.853-.065-.815-.022-2.172-.49-2.868m-72.563 1.941.028.29.175.019.156-.152-.02-.21c-.282.015-.174-.02-.34.053m34.807 1.73c.25.314.419.668.84.752.971.195 8.425.15 9.02-.158l-.095-.425c-.987-.332-8.257-.204-9.765-.168m-136.253.178c-1.688.01-5.667-.28-7.016.358l-.119.163c.715.417 10.888.174 12.29.175 2.094.01 5.058.328 7.017-.295l.143-.339.061.033-.047.238.104-.193c-.687-.423-10.85-.159-12.433-.14m51.409-.062c.165.319.209.568.577.688.555.18 1.725.015 2.218-.319q.093-.066.183-.137l.14-.068c-.802-.338-2.24-.173-3.118-.164m41.585.053c.236.462.589.842.918 1.238l.156.025.036-.115c.158-.335.419-.716.335-1.094-.374-.222-1.02-.084-1.445-.054m88.07.12c.167.254.165.299.482.349 1.347.21 3.189.034 4.56-.074-.146-.237-.143-.294-.433-.344-1.017-.177-3.583-.06-4.609.068m-61.235.116c.178.335.181.439.576.532 1.268.3 3.839.153 5.028-.292l.103-.186c-.537-.31-4.91-.177-5.707-.054m-44.395.27c-.357.046-.473.014-.738.27l.061.222c1.009.499 3.126.207 4.268.187l.807-.728c-1.467-.007-2.933-.028-4.398.049m-104.94 2.181-.064.325c.718.925 1.716 1.714 2.577 2.508 2.667 2.458 5.586 4.747 8.149 7.297-1.515 2.49-2.882 5.07-4.273 7.63-.549 1.01-1.256 2.052-1.692 3.104-.112.272-.228.643-.14.933.041.14.125.26.2.382l.192.036.17-.153 3.612-6.29c1.144-1.968 2.359-3.898 3.216-6.013-2.619-2.183-5.108-4.569-7.652-6.841-1.054-.94-2.121-2.083-3.335-2.805-.28-.167-.534-.157-.845-.126zm236.598-.051q-2.63 2.66-5.387 5.187c-1.715 1.572-3.717 3.13-5.122 4.98 1.011 1.888 5.621 10.632 6.712 11.682l.439-1.194a120 120 0 0 1-5.949-10.402c1.773-1.425 9.501-8.44 10.036-9.81-.16-.255-.327-.334-.616-.42q-.057-.014-.113-.023m-130.575.419.026.184.148-.061.227-.215zm67.448.331c-1.01.024-4.936-.185-5.568.235.01.216-.021.258.114.438.968.01 4.67.328 5.264-.23.103-.096.194-.203.284-.311zm34.798-.001c-.549 1.485-1.077 3.376-1.25 4.949-.301 2.753.254 9.912.696 12.744.264 1.695.801 3.385.976 5.083.415-1.266 1-2.465 1.557-3.672-.25-.355-.525-.677-.602-1.113l.148-.121c.325.114.459.222.793.114.637-1.09.884-2.522 1.196-3.741l-2.519-.29-.477-.069-.152-.228c.551-.401 2.638-.177 3.383-.194l.362-1.43c-1.096-.088-3.069-.001-4.012-.499l.399.141-.4-.125.202.086-.073-.19c1.29-.334 2.711-.33 4.04-.425.109-.37.271-.67.175-1.05-.695-.41-3.96-.4-4.208-.866 1.03-.39 2.607.183 3.279-.18.107-.29.09-.465-.04-.754-.297-.662-.852-1.26-.976-1.986-.466-.439-1.142-.55-1.716-.82l.022-.096.172-.022c.331-.044.643-.037.893-.283.074-.541-1.294-4.144-1.683-4.767-.066-.105-.1-.126-.185-.196m4.475.173.361.39-.069.188-.055-.114.058.314c.53.038 1.054-.012 1.583-.047l.26-.078c.11-.263.168-.25.067-.533-.68-.158-1.499-.087-2.205-.12m-189.563.116c.15.376.143.587.553.74.591.22 1.591-.004 2.214-.073-.214-.352-.275-.555-.703-.667-.61-.16-1.434-.033-2.064 0m190.953 2.583c-.14.397-.263.585-.171 1.001l.219.223.071-.109c.061-.262.014-.222.247-.414l.035-.235c-.127-.155-.25-.335-.401-.466m-44.573.211c.278.337.442.639.853.8.266-.073.394-.173.6-.354l.173-.344c-.43-.275-1.125-.132-1.626-.102m-145.795.6c.149.676.334 1.283.595 1.925l1.663-1.167 1.038-.76c-1.098-.001-2.198-.017-3.296.003m5.886.23c-1.625 1.453-3.235 2.987-5.001 4.266 1.082 5.627 3.112 10.99 5.473 16.193 1.078-.046 2.261-.055 3.287-.416l.106-.184c-.141-.24-.161-.299-.46-.349-.308-.052-.524.057-.83-.094l-.051-.228c.473-.67 1.73-.394 1.483-1.675-.053-.275-.24-.496-.4-.715l-.327-.448c-.003-.176-.056-.269.087-.4.242-.225.59-.302.897-.402l.14-1.808c-1.542.1-4.342.71-5.718.418-.045-.173-.122-.264-.017-.428.37-.577 1.681-.799 2.322-1.008.691-.161 3.234-.538 3.549-1.065.187-.313.167-.638.136-.984l-.15-.19c-1.203-.036-5.81 1.56-6.518.842.039-.256.023-.328.243-.493 1.27-.95 4.426-1.472 6.034-2.381-.207-.588-.405-1.166-.691-1.721-1.3.704-3.454 2.094-4.911 2.129l-.106-.154c.655-1.381 3.032-2.667 4.284-3.537-.274-.532-.536-1.069-.87-1.568-.89.536-1.753 1.083-2.746 1.416.6-1.073 1.24-1.776 2.169-2.577-.377-.77-.776-1.855-1.415-2.439m187.804 4.896q-.92 4.073-2.226 8.038-1.307 3.966-2.99 7.787c4.715.024 9.437.058 14.151.006.644-.019 1.291-.026 1.934-.061a49 49 0 0 0 3.073-2.36q-3.314-5.872-6.696-11.706-3.63-.821-7.247-1.704m-197.648.666-6.708 1.128c-2.163 3.944-4.566 7.785-6.625 11.78.89.714 1.775 1.531 2.727 2.153l2.846.022c4.357 0 8.72.046 13.076-.01-1.038-2.692-2.08-5.379-2.91-8.143-.256-.849-1.779-6.71-2.049-6.947zm212.15 14.44c-.956.718-1.693 1.764-2.717 2.366-6.716.09-13.44.021-20.156.022l-36.493.006-105.73-.014-39.263.004c-7.046 0-14.141-.173-21.182.038l-.035.152.405.634c11.698.266 23.435.058 35.137.075l87.75-.096 66.248-.044 22.751-.03c4.034-.002 8.133.157 12.157-.03.356-.782 1.227-2.264 1.128-3.083m-226.53.05c.135.466.246.943.48 1.371l.242.093.487-.4.227-.175-.006-.222c-.402-.357-.931-.49-1.43-.667m169.632 4.388c-.328.842-.35 1.72-.385 2.612-.388-.095-.758-.234-1.158-.163l.12.14c.133.159.256.32.378.488-.15.218-.05.157-.314.206-1.294.24-3.512-.268-4.558.6.055.257-.011.186.191.317 1.056.682 3.407.651 4.669.743-.084.34-.277.79-.129 1.122.38-.123.642-.442.923-.713.056 1.15.075 2.128.578 3.188.496-.37.55-.72.638-1.316.099-.674.115-1.363.23-2.034.5.174 1.014.415 1.55.388l.168-.096c-.108-.352-.318-.52-.565-.78.397-.4 4.307.217 4.314-.758-1.474-.82-3.265-.105-4.648-.786.01-.28.058-.522.123-.794l-.116-.178q-.313.06-.622.138c-.722-.571-.513-1.73-1.387-2.324m42.074.703c-.576.772-.872 1.728-1.215 2.62-.288-.303-.53-.562-.904-.756l-.212.073c-.044.407.153.854.401 1.167.138.174.296.329.441.495q.108.127.211.259c-.942-.412-2.152-.936-3.181-.54-.237.092-.454.234-.666.37l-.054.204c1.023.653 2.844.19 3.737 1.16-.007.25-.058.43-.143.664l.151.26c.235.046.466.094.698.155.424.754.594 1.66.86 2.48l.616-1.546c.15-.21.601-.687.669-.91.049-.162-.064-.443-.013-.614.083-.28.798-.64 1.076-.696.51-.102.908.067 1.34.32.099-.085.434-.438.54-.464.275-.065.933.197 1.067-.08-.244-.527-.443-1.152-1.073-1.316-.76-.198-1.51.629-2.328.535l-.122-.169c.204-.68.974-1.147 1.072-1.804-.863.083-1.441.676-2.071 1.21-.164-1-.248-2.262-.897-3.077m-149.704 1.453.012 1.361 11.39-.025c.012-.396.081-.89-.075-1.255-1.352-.223-2.849-.075-4.224-.073zm-40.466 1.302c-.003.482-.054.996.12 1.453 1.19.16 2.459.083 3.662.085l6.36-.006.006-1.533zm24.596 2.26c-.008.488-.028.98-.015 1.468l9.537.014.004-1.486c-3.174-.002-6.353-.043-9.526.004m-29.608 2.99-.036.123c-.187.657-.172 1.58-.544 2.137-.268.084-.26.094-.515-.042-.448-.238-.767-.51-1.276-.617l-.194.08c.12.633 1.64.941 1.42 1.574-.945.36-3.228-.698-3.707.297-.15.309-.133.437-.035.738.622.287 1.803-.306 2.135.402.04.084.085.254.112.347.361.142.795.003 1.167-.06.337.492.692.994.922 1.545.276.66.436 1.574.837 2.153l.056-.119c.498-1.104.655-2.547 1.565-3.391.4.035.802.256 1.169.118.16-.38.175-.61.542-.816.556.017.985.441 1.507.39.144-.242.27-.414.29-.702-.1-.277-.174-.405-.46-.523-.758-.314-1.414-.152-2.169.047-.47-.163-.92-.302-1.328-.597l.047-.179c.477-.194 1.329-.417 1.575-.894-.356-.15-.601-.076-.951.065-.362.144-.705.304-1.078.42-.002-.634.116-1.609-.326-2.118-.19-.218-.46-.295-.725-.379m174.707.267c-.078.393-.15.66.006 1.049.631.401 12.428.229 14.127.16.053-.356.133-.653-.035-.99-.093-.066-.172-.155-.277-.196-.577-.225-12.346-.073-13.82-.023m-50.453 1.283-.003 1.518q6.571-.1 13.143-.037l.02-1.404c-4.372-.049-8.792-.222-13.16-.077m-88.773-.032a30 30 0 0 0-.326 2.44 13.5 13.5 0 0 0-2.104-.519c.601.267 1.1.441 1.541.942l.02.241c-.93.795-2.942-.063-3.879.706-.015.238-.058.19.082.356.306.363.712.374 1.145.39l.482.02c.288.163.443.319.659.562.558-.04.668-.618 1.34-.032.918.803.636 2.716 1.632 3.098.176-1.156.374-2.471 1.281-3.298.31-.07.314-.093.592.053l.156.397c.271.076.39.058.656-.027.107-.237.118-.297.121-.542.525-.197 1.096.063 1.606-.192.1-.298.112-.321.025-.621-.735-.645-3.202-.18-3.495-.85.318-.52.932-.91 1.355-1.364-.714.275-1.335.589-1.986.993-.124-.592-.204-2.454-.674-2.674-.074-.035-.153-.053-.229-.08m56.21.177c-.366.954-.495 1.962-.788 2.936l-1.546-1.182c.344.423 1.136 1.198 1.269 1.693-.844 1.084-3.873.487-3.9 1.744-.001.089.043.22.069.307.763.265 1.73-.093 2.564.105.068.22.074.393.07.622.46.07.704-.556 1.135-.032.485.588.762 2.087.84 2.84a.8.8 0 0 0 .178.438l.243-.007c.412-1.378.748-2.903 1.803-3.964l.245-.082c.452.275.622.389 1.165.258.571-.138 1.654-.09 2.079-.33.01-.347.034-.46-.124-.763-.446-.22-1.517.089-1.79-.196-.197-.206-.051-.623-.473-.634-.816-.021-1.492.847-2.038-.541l.293-.59c.118-.241.084-.142.106-.419-.328.098-.612.473-.896.33-.25-.642-.104-2.133-.504-2.533m-34.482.341.043 1.414c4.202.032 8.417.092 12.619.009.014-.438.066-.87-.087-1.29-1.54-.235-3.22-.133-4.782-.144-2.595-.018-5.2-.061-7.793.011m87.44 1.239c-.449.937-.395 2.286-.45 3.311-.418-.682-.823-1.261-1.39-1.83.266.895.552 1.79.737 2.707-.476-.148-1.577-.65-1.966-.507l-.036.417c-.874.45-1.981-.435-2.655.337-.051.297-.088.403.014.695.765.292 1.886-.188 2.526.33-.145.278-.256.361-.486.568.435.221 1.828-.417 2.423-.358-.036.386-.279.65-.388 1.012-.154.507-.246 1.047-.351 1.566.318-.464.62-1.032 1.094-1.346.173.041.242.01.335.183.156.29.16.629.19.95.063.525.065 1.103.356 1.556l.259.107.16-.077c.222-.826.019-2.375.51-2.983l.193-.024a6 6 0 0 0 .544-.1c.048-.326-.072-.563-.175-.869.352-.182.937-.056 1.298.062.294.095.569.216.87.296-.08-.248-.16-.493-.256-.736.15-.232.052-.171.304-.231.651-.155 1.87.156 2.266-.432l-.102-.294c-.982-.173-1.988.01-2.953-.232l-.044-.15.241-.39c-.277-.008-.152-.045-.357.081-.396.244-.667.383-1.127.449l-.293-.091c-.11-.342-.03-.663.022-1.008l-.102-.226-.18-.004-.233.494c-.43-.69.05-2.642-.407-3.062-.105-.097-.26-.114-.391-.171M42.51 187.244c-.006.439-.065.939.11 1.346 1.185.37 10.5.03 12.486.02.076-.38.195-1-.02-1.329-1.51-.133-3.073-.056-4.59-.054zm36.96 2.315c-.432-.006-1.13-.105-1.457.232-.244.251-.264.374-.275.698.185.288.23.412.585.508.756.205 9.236.018 10.765.017.386-.009.82.079 1.117-.214.243-.24.27-.53.261-.845-.235-.261-.358-.37-.717-.413-1.01-.118-2.173-.009-3.194-.006zm-30.167.66c-.013.397-.083.838.086 1.208 1.277.335 7.622.093 9.352.09 0-.393.057-.89-.13-1.239-1.13-.201-2.374-.088-3.523-.08q-2.892.029-5.785.02m165.119.34-.055.14c-.232.603-.334 1.619-.73 2.085-.658.148-1.147-.26-1.697-.584l.996 1.338c-.892.062-3.152-.024-3.78.561.05.301.128.436.403.597.98.573 2.543-.392 3.365.406.056.33-.023.467-.213.731-.245.34-.566.655-.849.965.588-.391 1.17-.793 1.766-1.173.214 1.06.41 2.11.761 3.136l.06.181.038.108.298-1.539c.147-.554.289-1.111.442-1.664q1.18.57 2.35 1.163c-.544-.623-1.108-1.239-1.627-1.883 1.364-.27 2.883-.026 4.103-.75l.09-.18c-.868-.847-3.002-.102-3.985-.666.065-.389.43-.626.726-.873.278-.232.475-.502.684-.795-.632.327-1.482.94-2.158 1.069-.579-.651-.293-1.839-.988-2.372M144.704 192c-.002.434-.056.931.127 1.331 1.222.283 2.752.117 4.017.123l8.054.017c.013-.477.067-.942-.134-1.388-1.302-.269-2.886-.101-4.221-.099zm35.254 1.24-.027 1.334c4.386.023 8.817.098 13.2-.059.171-.349.253-.531.19-.934-.321-.343-.52-.358-.985-.376-4.095-.166-8.276.031-12.378.035m-123.642 2.668c-.004.481-.05.946.168 1.388 1.324.267 2.95.099 4.308.098l8.496-.008c.002-.43.06-.939-.131-1.331-1.332-.26-2.947-.09-4.32-.094q-4.261-.004-8.522-.053m54.096 1.904c-.393.012-.6-.036-.928.19-.167.323-.219.466-.2.844l.163.31c1.87.467 7.525.13 9.831.166.397-.011.592.046.911-.203.1-.427.058-.841.034-1.274q-4.906-.054-9.811-.033m89.524 3.559c-.12.405-.2.562-.106.981.587.521 11.903.267 13.558.22.112-.251.153-.57.025-.827-.135-.272-.239-.323-.526-.377-1.435-.27-3.255-.064-4.719-.056-2.733.015-5.502-.055-8.232.059m-160.462.689c-.429.005-.85-.056-1.2.23-.192.415-.145.89-.143 1.338l12.525-.007c.368-.004.75.088 1.029-.161a2.6 2.6 0 0 0-.009-1.105c-.204-.261-.167-.205-.478-.245-1.348-.17-2.823-.055-4.183-.055-2.513 0-5.029-.025-7.54.005m33.872 2.614c-.687.189-1.237.377-1.622 1.015-.731 1.21-.539 14.935-.318 17.186.49.71.873 1.196 1.764 1.335 1.828.286 5.746.079 7.815.096l22.343-.035 52.712-.011c8.19-.016 16.401.113 24.59-.025.552-.009 1.012-.059 1.535-.248 1.176-.867 2.16-1.844 2.395-3.362.257-1.669.053-3.534.059-5.228.008-2.236.287-5.394-.083-7.542-.113-.657-.359-1.277-.775-1.802-.541-.684-1.674-1.3-2.543-1.383-1.48-.14-3.07-.006-4.561.01q-4.014.037-8.027.022l-27.767-.084-40.222.028c-9.076-.03-18.225-.278-27.296.028m131.566.576c-.031.444-.097.664.103 1.068 1.045.43 9.865.234 11.58.152.029-.374.089-.702-.089-1.048-.529-.388-10.066-.263-11.595-.172m-159.76.256-.007 1.515 9.356.002c.004-.459.064-.971-.142-1.39-1.404-.425-7.324-.125-9.208-.127m14.09 2.732c-.414.873-.387 1.82-.409 2.765-.563-.257-1.716-.94-2.337-.782-.037.009-.072.028-.107.041l-.098.238c.436.578 1.641.144 1.652 1.174-.686.528-3.502-.088-3.624.707-.035.224.018.399.069.614l.198.137c.564-.116 1.029-.338 1.616-.287.647.494.088 1.022 1.243.862q.177-.024.352-.054c.495.215.647.747.828 1.214.245.63.421 1.222.567 1.88l.017.06c.989-.547.757-2.572 1.806-3.409.401.142.75.433 1.165.335.085-.297.035-.517-.009-.816.708-.209 1.395.607 2.146.168.021-.379.017-.4-.187-.72-.835-.52-2.973-.13-3.394-.778.335-.611 1.26-.851 1.803-1.292-.821.224-1.61.453-2.392.79-.049-.842.027-1.974-.614-2.616-.105-.106-.175-.15-.291-.23m136.778-.028c-.427.547-.428 1.32-.452 1.992l-.178.144c-.648-.074-2.098-1.025-2.577-.788.337.86 1.877.97 1.9 1.881-.877.899-3.849.15-3.858 1.234.935 1.043 3.031.024 3.829 1.009-.04.373-.193.603-.386.913.232.017.466-.184.645-.328.154-.125.293-.275.43-.417.182.782.331 2.4.962 2.863l.18-.007c.133-.756.077-1.688.303-2.397q.07.075.142.146c.137.132.292.252.438.375l.186-.039c.142-.508.265-1.291.781-1.557.388-.199.828-.024 1.19.131l.56.236c.516-.306 1.017-.637 1.528-.952l.023-.168c-1.077-.636-3.526-.246-4.121-1.445.181-.384.484-.486.867-.627.38-.141.735-.352.91-.726-.234-.137-.405-.14-.672-.08-.6.136-1.043.821-1.643.792-.52-.634-.244-1.726-.987-2.185M55.213 221.13c.005.383-.047.88.142 1.216 2.292.243 4.815.09 7.125.034.005-.404.077-.842-.165-1.188-2.273-.296-4.801-.07-7.102-.062m56.684 6.073c-.51.943-.863 1.917-1.128 2.955q-1.394-.762-2.818-1.465c.785.682 1.553 1.206 2.446 1.735-.767.905-3.68.179-3.915 1.196.264.341.508.394.931.444q.324.034.65.058c.167.238.122.26.114.537.938.071 1.77-.763 2.548.17.502.602.796 2.055 1.071 2.835.48-.776.33-1.877.828-2.534l.44.037c.229-.355-.17-.566.187-.785.321.095.525.276.778.484l.172-.018.057-.472c.8-.542 1.99.305 2.476.068.092-.045.1-.179.15-.268-.012-.288.012-.427-.247-.618-.75-.554-2.767-.146-3.141-1.005.26-.564.875-.662 1.324-1.046.288-.247.542-.595.785-.887-.773.429-1.839 1.222-2.697 1.371-.457-.387-.629-2.12-1.011-2.792m34.121.242c-.47.826-.576 1.889-.844 2.803-.588-.365-1.637-1.226-2.353-1.078l-.095.213c.32.718 1.303.673 1.567 1.524-.19.262-.33.337-.653.403-.908.188-1.887-.063-2.762.23l-.108.194c.19.353.486.426.83.58l.179.08.107.048c.722-.121 1.458-.291 2.124.107.223.274.262.516.327.851.365.09.603-.048.957-.16.098.797.095 1.716.42 2.45.153.11.162.176.362.135.202-.042.28-.108.431-.237.039-.504-.015-1.448.317-1.808l.353.049c-.012-.302-.079-.548-.16-.837l.136-.17c.328.075 1.085.421 1.332.306l-.079-.376c.206-.257.371-.315.7-.362.612-.089 1.774.082 2.242-.362.027-.026.046-.06.07-.089-.074-.228-.008-.162-.222-.274-1.044-.546-2.754.076-3.542-.703.025-.278.072-.503.299-.693.458-.383 1.023-.304 1.434-.82l.035-.222c-.185-.128-.159-.167-.356-.142-.425.054-1.425.686-1.959.854l-.469.154c-.061-.603.037-2.129-.392-2.48-.172-.142-.1-.095-.228-.168m-67.029 4.587c.002.471-.051.981.15 1.417 1.396.147 2.844.072 4.246.072 2.715 0 5.435-.026 8.15.021.005-.48.056-.951-.153-1.396-1.277-.412-10.309-.175-12.393-.115m92.152.975c-.028.415-.101.826.07 1.218.738.428 9.694.164 11.088.142.012-.458.042-.923.007-1.379-3.719.004-7.448-.05-11.166.019m-60.48.306h.15zm9.51 2.678.015 1.473c3.741.008 7.486.053 11.226.018.012-.46.11-1.034-.091-1.448-3.593-.279-7.522-.048-11.15-.042m33.89 1.763.004 1.388c4.267.044 8.549.115 12.815-.006.018-.433.09-.904-.111-1.3-1.294-.274-2.933-.093-4.266-.092zm-62.174.752-.023 1.499 12.246-.007.005-1.49zm37.879 3.654c-.014.47-.096 1.006.054 1.453 1.402.118 2.856.034 4.264.024l6.943-.017c.016-.484.083-.96-.142-1.405-1.2-.228-2.591-.093-3.815-.087zM159.52 45.125l.067-.154zM83.798 57.097l.049.152zm80.098 1.028.053-.15z"/><path d="M148.17 63.304c-.701 1.489-.79 3.26-1.564 4.704-.169.314-.338.722-.685.823-.505-1.11 1.077-5.049.826-6.62-.005-.034-.055-.301-.053-.346.012-.367.183-.467.422-.715.625-.031 1.248 0 1.873.023 1.084 1.412 2.298 3.475 2.614 5.24.047.266.057.297-.102.521h-.249c-.847-.666-1.222-2.04-1.954-2.879-.322-.368-.634-.716-1.129-.75m-53.121-.071.058.14zm.262.454-.145-.074zM72.282 68.18l.066.07zm102.374 4.32.064-.073zm7.609 1.223.047-.125zM68.422 76.432l.094.105zm.094.105.079.087zM172.285 100.5c.82-1.607 9.155-12.447 10.405-13.178l.433-.043c-.021.434-.04.521-.27.881-1.194 1.882-2.944 3.65-4.383 5.355-1.613 1.91-4.26 5.304-6.067 6.888q-.058.049-.118.096m.838 5.299-.216.142c.296-1.5 12.458-15.406 14.446-17.363l.382.118.112.237c-.487 1.528-12.728 14.7-14.724 16.865m-1.01-5.06.172-.238zm-.163.182.163-.182zm-.054.073.054-.074zm20.615 1.742.067-.058zM55.36 111.815l.184.097zm.184.097.072.069zm63.762 12.498.217-.168zm-.158.09.157-.09zm84.299 23.762c-.398-.006-.707.003-1.07-.188-.378-.651-.597-3.396-.817-4.296-.888-3.642-2.382-7.249-3.047-10.93.482.501.77 1.422 1.035 2.068 1.788 4.355 2.811 8.785 3.9 13.346m-48.989-5.352c-.366.099-.721.229-1.105.19l-.032-.16-.076-.011c-.188-.694-.335-2.631-.404-3.458.158.073.25.128.348.28.337.518 1.4 2.631 1.269 3.159m.011 2.628c-.14.022-.386.083-.535.064-.323-.04-.413-.115-.617-.339.003-.227-.021-.199.073-.404.291-.629.78-.764 1.375-.999.412.185.76 1.215.956 1.624zm-33.079-1.183.063-.05zm33.014 3.974c-.34.023-.448.105-.724-.126-.046-.163-.13-.298-.057-.462.282-.632 1.739-1.07 2.37-1.359.399.367.609 1.135.808 1.632zm1.501 2.655c-.343.03-.807.11-1.146.047a1.22 1.22 0 0 1-.732-.51c-.108-.172-.037-.231.015-.411.754-.687 1.926-.69 2.897-.82.149-.038.249-.011.398.011.468.504.734 1.15 1.038 1.762q-.07-.013-.142-.024l-.235-.032c-.706-.102-1.384-.06-2.093-.023m-.125 2.841c-.48.031-1.073.133-1.417-.29-.192-.237-.137-.385-.071-.645.76-.783 2.694-.629 3.772-.711.233-.018.366-.006.59.036.464.41.684.981.952 1.529q-1.915-.02-3.826.081m-1.282 1.552q2.746.03 5.484-.191l.213.004c.388.51.61 1.176.866 1.761-1.776-.051-3.566 0-5.343.007-.238.01-.411 0-.641-.064-.376-.408-.448-.993-.58-1.517m.577 3.071c1.902-.243 3.825-.364 5.736-.52.274-.04.417-.05.677.053.464.479.659 1.157.903 1.769q-2.65-.025-5.297.068l-1.458.081zm1.821 5.07c-.201-.367-.44-.747-.583-1.14-.09-.25-.114-.271-.003-.521l.367-.041q3.366-.07 6.733-.064c.184.397.395.805.539 1.218.105.302.185.507.044.805l-.337.005c-2.252-.031-4.509-.166-6.76-.262m.567 2.962-.266-1.567c2.454.16 4.987-.035 7.453-.002.266.474.454.986.658 1.49q-3.922.06-7.845.08m69.022 7.946-.128-.101c-.202-.438-.124-1.052-.121-1.528l.19.148c.157.46.078 1 .059 1.48m-115.759 46.227c-.872.058-1.647-.004-2.402-.49-.746-.48-1.178-1.283-1.36-2.134-.255-1.185-.22-5.883-.039-7.161.075-.525.22-1.035.521-1.477.613-.899 1.377-1.176 2.413-1.352.592-.021 1.27.031 1.818.269.717.311 1.23.883 1.511 1.608.576 1.483.581 7.679-.131 9.106-.468.936-1.389 1.337-2.33 1.631m-1.319-10.774c-.198.218-.388.42-.483.704-.419 1.238-.32 4.752-.25 6.186.028.573.195 1.393.677 1.765.448.346.963.249 1.468.14.661-.579.736-1.067.789-1.924.071-1.177.32-5.72-.405-6.458-.472-.48-1.175-.433-1.796-.413m6.086 10.754q.037-6.298-.05-12.596l2.049.007q.982 3.79 2.421 7.431c1.005-2.384 1.632-4.997 2.352-7.481l2.065.018c.054 4.222-.069 8.466-.08 12.692l-1.717.003.007-4.863q.015-1.667-.05-3.333c-.54 2.089-1.285 4.113-1.754 6.225l-1.638-.048c-.378-1.97-1-3.995-1.73-5.86l.003 7.814zm11.34.065c.362-1.678 2.337-12.09 2.859-12.638l1.349-.02q1.349 6.35 2.83 12.668c-.59.016-1.18-.027-1.771-.058-.104-.544-.18-1.456-.516-1.885-.118-.15-.255-.095-.429-.098l-2.08-.002c-.102.673-.18 1.352-.269 2.026zm3.455-8.356c-.286 1.388-.728 2.992-.76 4.406q.626.019 1.252.029l.322-.054c.244-.647-.607-3.59-.814-4.381m10.302 3.263c.064-2.516-.042-5.046-.06-7.563l1.96.03c.01 4.193-.04 8.396.103 12.587l-1.82-.017q-1.29-3.778-2.663-7.527l-.007 7.606-1.787-.013-.096-12.635 1.662-.002c.923 2.503 1.877 4.999 2.708 7.534m4.561 5.117.02-12.67 1.832.026-.021 12.623zm4.062-.046c.886-4.236 1.964-8.429 2.858-12.663l1.473.018c.696 4.223 1.743 8.443 2.66 12.625l-1.769.02c-.092-.524-.134-1.316-.43-1.757-.122-.181-.275-.137-.475-.163l-2.074-.04c-.112.653-.189 1.317-.281 1.974zm3.435-8.102c-.183 1.04-.76 3.294-.641 4.24.435.07.833.08 1.273.069l.257-.091c.047-.816-.538-3.522-.89-4.218m-54.165 8.099-.004-12.557c.871-.008 1.745-.022 2.616-.002 1.09.024 2.149.126 2.92.987.736.822.915 2.03.826 3.094-.101 1.22-.523 2.132-1.434 2.936q.684 2.764 1.624 5.452l-1.948.01-.333-1.155q-.55-1.897-1.018-3.816a11 11 0 0 0-1.25.05c-.314.618-.207 4.112-.223 4.994zm1.86-10.707c-.012 1.069-.342 3.04.304 3.88.584.222.91.058 1.46-.194.15-.068.29-.14.43-.228.344-.649.706-1.696.417-2.423-.173-.435-.602-.76-1.033-.911-.476-.167-1.075-.12-1.578-.124"/></svg>