<svg xmlns="http://www.w3.org/2000/svg" viewBox="0 0 256 256"><path d="M127.907 19.8c-.216 1.276-.663 2.53-.795 3.818-.041.392-.035.66.217.968.639-.139 2.186-3.884 3.116-4.703l.083-.07c-1.992 5.416-4.5 10.597-6.93 15.826-1.847 3.971-3.519 8.018-5.361 11.991-5.593 12.057-11.493 24.283-14.001 37.443-.754 3.95-.953 7.944-1.223 11.946q2.127-1.392 4.37-2.59c-.625-.477-.992-.877-1.267-1.616l.091-.187c.489-.038.83.28 1.214.542l.052.057-.052-.057-.243-.4c-.363-.588-.78-1.23-.714-1.953l.21-.082c.616.269 1.03.814 1.475 1.3-.584-1.028-1.605-1.909-1.49-3.216l.171-.065c.563.325.972.848 1.406 1.324.218-.215-.696-1.313-.844-1.536-.424-.64-.358-1.305-.311-2.032l2.14 2.27c-.597-1.115-1.702-2.361-1.763-3.663l.143-.064c.795.456 1.47 1.172 2.14 1.795-.576-.843-1.424-2.037-1.533-3.071-.026-.248-.05-.154.099-.338.852.136 1.608 1.14 2.184 1.728-.55-1.03-1.782-2.437-1.867-3.583l.154-.136c.844.18 1.754 1.377 2.35 1.998-.719-1.177-1.888-2.425-1.718-3.885l.184-.059c.704.409 1.334 1.29 1.888 1.893-.66-1.118-1.364-2.312-1.713-3.572l.217-.196c.858.273 2.021 1.86 2.623 2.532-.473-.973-1.11-1.827-1.594-2.785-.21-.413-.575-1.089-.425-1.537.747.184 1.972 1.85 2.519 2.452-.511-1.147-1.872-2.45-1.978-3.69-.025-.29.01-.434.183-.662.796.435 1.684 1.694 2.323 2.38-.534-.975-1.434-2.184-1.699-3.254-.078-.316-.079-.475.081-.753.767.14 1.759 1.64 2.328 2.226-.426-1.055-1.984-3.375-1.638-4.512l.148-.053c.786.733 1.435 1.675 2.104 2.517-.457-1.25-1.441-2.6-1.488-3.943.121-.275.075-.328.364-.455.762.608 1.25 1.556 1.965 2.245l.107.101c-.56-.973-1.18-2.009-1.493-3.093-.14-.484-.155-.79.09-1.234l.187-.023c.893.729 1.48 1.78 2.34 2.567l.13.115c-.484-1.082-2.231-3.252-2-4.39.759-.132 1.56 1.53 2.239 1.822-.566-.885-1.417-2.187-1.48-3.263-.016-.276.019-.3.198-.485.863.711 1.605 1.75 2.369 2.58-.545-.997-1.177-2.003-1.606-3.054-.166-.408-.304-.777-.134-1.197.75.251 1.813 1.656 2.397 2.27-.533-.863-1.538-2.15-1.635-3.146-.026-.28-.013-.445.175-.66.739.097 1.686 1.815 2.242 2.392l.106.108c-.5-1.06-2.093-3.13-1.912-4.288.027-.175.046-.13.222-.24.797.649 1.464 1.711 2.108 2.52-.483-1.084-1.296-2.105-1.647-3.235-.086-.276-.14-.456-.003-.72.83.31 1.74 1.53 2.33 2.169-.647-.981-1.65-2.338-1.699-3.55l.164-.09c.626.385 1.103.948 1.638 1.446-.37-.702-1.276-1.763-1.082-2.565l.217-.053c.637.355 1.105 1.1 1.667 1.59l.114.097c-.555-.841-1.313-1.845-1.51-2.85l.153-.119c.84.265 1.517.974 2.178 1.537-.348-.474-.708-.947-1.027-1.44-.256-.398-.743-1.095-.637-1.582.624-.08 1.281.765 1.795 1.077l.189.11.056.043-.056-.043c-.42-.728-1.27-1.76-1.254-2.643.928.21 1.8 1.128 2.62 1.6-.649-.807-1.615-1.79-1.979-2.756l.137-.178c.883.136 1.542.688 2.32 1.09-.726-.838-1.512-1.604-1.633-2.762l.123-.09-.046-.12c.689.108 1.725 1.3 2.408 1.721-.547-.674-1.761-1.954-1.759-2.861 0-.142.02-.172.063-.29.381-.031.616.16.9.4.47.397.927.815 1.38 1.232-.623-.92-1.472-1.89-1.692-3.004l.144-.126c.852.303 1.636 1.033 2.306 1.63-.59-.89-1.237-1.727-1.804-2.633l.24-.312-.302.195.207-.245c.873.295 1.584.831 2.38 1.282-.506-.55-1.717-1.75-1.623-2.567.004-.035.019-.069.028-.103.37-.065.648.016.963.226.456.305.892.67 1.33 1.003-.548-.666-1.713-1.95-1.642-2.871.003-.038.016-.076.024-.114.32-.089.564.041.843.22.513.329 1 .862 1.455 1.28-.538-.815-1.679-2.222-1.636-3.195.411-.051.719.137 1.047.39.452.349.879.749 1.307 1.127-.524-.892-1.305-1.887-1.589-2.881l.399-.185-.38-.049-.031.158.276-.173c.728.28 1.312.841 1.916 1.322-.399-.737-1.303-2.02-1.122-2.845.348-.05.521.03.812.231.372.258.718.6 1.058.9-.448-.784-1.286-1.932-1.345-2.822l.184-.099c.75.241 1.343.822 1.941 1.318-.52-.87-1.194-1.821-1.3-2.853l.127-.282c.377-.088.594-.038.925.174.28.18.549.378.818.572-.323-.617-.992-1.633-.863-2.357.007-.04.024-.076.036-.114.28-.113.272-.107.54.002.21.084.364.242.531.39q.294.257.585.518c-.403-.83-.952-1.822-.877-2.774l.17-.199c.518.028.904.516 1.256.858-.22-.846-.679-1.894-.306-2.736l.19-.165c.277.194.37.454.538.735.126.211.07.138.298.275-.011-.252-.074-.475-.139-.717.129-.3.028-.186.294-.351-.126-.473-.283-.918-.208-1.412l.183-.259c.279.113.4.346.565.583l.155.034c.103-.542-.3-1.461.159-1.848l.288.11c.605-.988 1.05-2.068 1.629-3.077-.241 2.4-.962 4.83-1.532 7.176-1.3 5.351-2.846 10.506-4.768 15.668-.587 1.574-1.287 3.107-1.918 4.663a421 421 0 0 0-4.16 10.634c-4.558 12.181-8.596 24.879-11.127 37.646 2.224-1.487 4.442-2.413 7.071-2.938-.556-.635-.988-1.305-1.433-2.02.838.672 1.656 1.355 2.574 1.916l.189.117.114.068c-.915-1.496-2.324-2.59-3.223-4.11 1.468.952 2.791 2.397 4.317 3.176-1.254-1.937-2.462-2.117-3.512-4.8 1.608 1.16 3.06 2.5 4.545 3.809-1.3-1.694-3.237-3.373-3.922-5.403 1.59 1.162 2.836 2.718 4.39 3.874-1.347-1.966-3.268-3.542-4.252-5.727 1.663 1.158 3.002 2.799 4.692 3.879l.064.056-.064-.056c-1.33-1.916-3.495-3.23-4.387-5.468 2.215 1.269 3.845 3.342 6 4.68-1.738-2.348-4.035-4.355-5.49-6.91 1.406.846 2.414 2.181 3.778 3.06l.088.092.08.098-.08-.098-.088-.091c-.888-1.733-2.417-2.952-3.406-5.146 1.758 1.556 3.3 3.37 5.184 4.779-1.623-2.317-3.585-3.85-4.845-6.507.831.618 1.576 1.42 2.336 2.125q1.594 1.496 3.318 2.843c-1.596-2.179-3.644-4.253-4.795-6.704 1.447 1.132 2.688 2.594 4.206 3.623l.097.077.143.136.079.07-.08-.07-.142-.136-.097-.077c-1.349-1.674-2.784-3.37-3.624-5.365 1.808 1.377 3.451 3.04 5.395 4.218-1.362-2.127-3.222-3.852-4.468-6.088 1.66.694 2.939 2.01 4.455 2.946l.043.066-.043-.066c-1.133-1.94-2.635-2.873-3.729-5.187 1.483.968 2.736 2.276 4.23 3.198l.044.063-.044-.063c-.768-1.801-2.571-3.235-3.463-5.457 1.456 1.04 2.8 2.269 4.084 3.51-1.029-1.83-2.525-3.363-3.498-5.223 1.25.619 2.31 1.556 3.48 2.308l.056.062-.057-.062c-.441-1.118-2.664-3.193-2.623-4.207.882.198 2.948 2.116 3.744 2.767-1.134-1.44-2.329-3.06-3.098-4.73 1.161.732 2.011 1.544 3.04 2.427l.045-.075c-.642-1.507-1.851-2.585-2.302-4.214l-.046-.172c1.113 1.03 2.174 2.121 3.279 3.161-.564-1.034-2.64-3.35-2.61-4.417.685.051 2.45 2.139 3.002 2.693-.925-1.508-1.784-2.96-2.41-4.625 1.101.953 1.952 2.143 3.052 3.103-1.136-1.607-1.963-2.974-2.235-4.949.679.912 1.339 1.963 2.177 2.732l.083.116.106.186-.106-.186-.084-.116c-.413-1.379-1.278-2.557-1.657-3.993q1.338 1.408 2.647 2.842c-.709-1.518-1.592-2.835-2.17-4.436q1.31 1.276 2.69 2.476a14.2 14.2 0 0 1-1.995-3.502c.782.541 1.48 1.205 2.19 1.836-.75-1.079-1.361-2.11-1.823-3.343.757.494 1.415 1.168 2.114 1.743l.054.053-.054-.053c-.59-1.074-1.196-2.113-1.518-3.303.714.664 1.417 1.314 2.202 1.893-.701-1.076-1.153-1.88-1.368-3.158.59.56 1.17 1.103 1.828 1.584-.626-.993-1.12-1.796-1.382-2.959l1.61 1.159c-.588-.966-1.03-1.793-1.32-2.898.54.485 1.087.963 1.601 1.476-.443-1.029-.85-2.009-1.114-3.101l1.476 1.554c-.206-.61-.948-2.318-.689-2.913.312.112.54.3.798.5l.124-.079c-.264-.66-.92-1.546-.639-2.24.441.041.92.533 1.273.815-.319-.637-1.088-1.797-.84-2.505.014-.041.037-.079.056-.118.295.028.446.18.673.354l.14.007c0-.677-.637-1.733-.274-2.317.292.102.439.265.657.475l.098-.064c-.176-.708-.617-1.864-.44-2.555l.345-.104-.023-.027c.303.179.51.36.758.605-.16-.67-.599-1.863-.288-2.506.307-.015.337.09.572.271.24-1.699.372-3.118.935-4.77.236 3.663-.103 7.233-.538 10.867-.626 5.226-1.559 10.271-2.586 15.426l-2.308 12.014c-1.98 9.9-3.893 19.569-4.001 29.71 1.77-1.551 3.993-1.754 6.256-1.597 1.055.073 2.086.237 3.123.44-1.888-1.044-4.035-1.725-5.819-2.934.937.099 1.857.216 2.776.427.936.216 2.02.631 2.97.674l.054.07-.054-.07c-.507-.402-1.157-.696-1.73-1-1.708-.905-3.408-1.731-4.818-3.081 2.72.302 5.195 1.61 7.859 2.085l.14.07-.14-.07c-.61-.496-1.455-.855-2.153-1.234-2.076-1.129-3.76-2.168-5.377-3.915 1.403.522 2.845 1.014 4.198 1.657 1.75.83 3.429 1.815 5.23 2.53-1.996-1.565-4.244-2.794-6.175-4.455-1.178-1.015-2.153-2.183-3.138-3.377 2.826.876 5.294 2.492 7.98 3.677l.064.065-.064-.065c-2.304-2.245-5.046-3.361-6.483-6.442 2.22 1.215 4.21 2.563 6.215 4.098l.07.058-.07-.058c-1.976-2.613-4.431-4.771-6.074-7.648 2.14 1.406 4.011 3.137 6.121 4.564-1.942-2.142-4-3.653-5.745-6.069 1.43.778 2.68 1.694 3.976 2.67.337.254 1.228 1.065 1.594 1.138.07.014.142-.007.214-.01-.213-1.35-3.767-5.466-4.661-7.258 1.569 1.002 2.928 2.246 4.298 3.496-.935-2.39-2.869-4.185-3.849-6.541 1.525.748 2.623 2.044 3.736 3.29-.394-2.761-2.29-5.17-3.204-7.818 1.048 1.003 1.934 2.061 2.789 3.23-.026-2.27-.665-3.731-1.5-5.785.497.264 1.005.516 1.491.8-.331-1.317-.752-2.623-1.059-3.942l1.02 1.122c.497-1.295-.975-2.941-.598-4.161q.34.21.668.435c.212-.305.06-1.175-.01-1.553-.138-.745-.552-1.675-.52-2.407.297.119.393.253.601.48l.016.017c.25-1.711-.688-2.95-.607-4.393.271-.03.38.013.634.097.519-.92-.397-3.857-.371-5.06.11.22.149.395.357.533.347-2.048.209-4.34.238-6.419q.137-6.682-.082-13.362c-1.365.616-2.493.756-3.94.191-1.323-.517-2.666-1.59-3.237-2.92-.343-.798-.37-1.656-.011-2.453q.05-.112.11-.22.061-.106.132-.207.07-.1.151-.193t.17-.178q.089-.084.186-.16.097-.075.201-.14t.215-.12q.11-.056.224-.1c1.222-.464 2.633-.148 3.77.406q.509.251 1.008.521l-.072-2.546q-2.83-.892-5.727-1.539t-5.839-1.04c-11.983-1.598-31.136-1.194-42.09 4.377-1.582.805-4.332 2.34-4.954 4.104a1.77 1.77 0 0 0 .081 1.422c.555 1.077 2.855 1.577 2.956 2.575-.08.091-.144.2-.24.275-.038.03-5.663 1.537-6.403 1.817-1.556.59-3.097 1.382-4.512 2.25-6.614 4.057-7.333 10.372-14.862 13.958q-1.128.532-2.309.935-1.18.403-2.398.672c-1.167.25-2.391.408-3.516.812-.998.358-2.208.906-2.067 2.176.082.736.781 1.84 1.358 2.29.148.115.302.163.48.209 1.094-.251 1.064-1.609 1.966-1.811.355.271.495.542.543.989.103.983-.382 1.675-.91 2.443.088 1.228.238 2.463.274 3.694.47.642.81 1.132 1.636 1.256 1.623.243 3.309.215 4.947.288 5.943.265 14.407.411 18.341 5.645.954 1.269 1.772 3.058 1.524 4.667-.4 2.586-3.808 6.3-5.933 7.763-2.353 1.62-4.974 2.2-7.706 2.829-.357.082-.927.138-1.018.516.301 1.111 1.255 1.874 2.226 2.422.86.485 2.972 1.593 3.94 1.405.156-.03.27-.085.412-.145l-.006-.209c-.508-.392-1.479-.776-1.812-1.291.216-.217.378-.224.675-.21.889.042 1.797.462 2.677.626-.41-.357-.849-.684-1.124-1.16l.058-.174c.94-.01 2.249.578 3.083.12l.019-.12-.161-.035c-.425-.093-.751-.184-1.129-.4l-.022-.164c.218-.221.374-.392.704-.394.047 0 .384.051.416.056.393.053.563.041.91-.143 2.376-1.266 5.444-2.382 8.122-1.57a5.08 5.08 0 0 1 3.141 2.673c.577 1.177.671 2.452.791 3.735.43-1.89.849-3.734-.294-5.484-.855-1.308-2.302-2.002-3.802-2.268-.687-.122-1.43-.214-2.129-.178-.861.044-2.291.864-3.05.356l.238.14-.146-.329c.608-.468 1.297-.716 2.026-.934-.196-.17-.398-.233-.64-.32l-.002-.247c.067.026.132.066.204.078.802.133 2.78-.28 3.591-.478-.514-.199-1.485-.463-1.764-.962-.018-.03-.026-.066-.039-.099.209-.193.273-.18.551-.177 1.072.01 2.186.427 3.271.514-1.007-.462-1.916-.929-2.76-1.659l.192.047c1.253.308 2.537 1.236 3.803.834l.13-.152c-.253-.148-.475-.203-.755-.277-.618-.164-1.01-.352-1.416-.847l.02-.21c.732-.1 3.204 1.512 3.786.983-.763-.675-1.73-1.055-2.496-1.739.24-.165.606-.077.888-.028 1.763.303 2.156 1.657 4.08.624.42-.226.814-.284 1.283-.35-.753-.383-2.078-.99-2.518-1.697l.088-.176c1.023-.15 2.718.988 3.888 1.256l-.085-.067c-.973-.759-1.859-1.165-2.672-2.157l-.11-.131c1.368.389 2.73.853 4.135 1.091-.597-.333-2.184-.961-2.417-1.581.266-.18.46-.147.766-.087.608.12 1.457.557 2.058.454-.2-.467-.782-.661-.92-1.122.62-.342 1.516.29 2.121.043-.173-.287-.53-.224-.588-.53.248-.181.41-.325.721-.371.171.098.245.085.298.293.07.278.045.521-.039.79-.36 1.15-.904 2.295-1.36 3.413-1.805 4.413-3.943 8.703-5.948 13.03-2.091 4.51-3.907 9.172-6.128 13.617-1.727 3.458-3.612 6.893-5.689 10.156 1.73 1.372 3.29 3.41 3.526 5.679.066.635-.023 1.279-.165 1.898-.346 1.51-.942 2.978-1.387 4.464-.732 2.444-1.384 4.924-2.015 7.395q-1.993 7.947-3.542 15.993-1.55 8.045-2.649 16.164c1.895.396 3.71.904 5.486 1.683 3.484 1.529 5.932 3.31 9.869 3.548 1.079.065 3.83-.226 4.667.127.201.327.194.465.17.832-.187.384-.4.563-.793.708-1.163.428-2.86.38-4.09.298-4.026-.274-7.056-2.172-10.635-3.742-2.787-1.222-6.044-2.019-9.09-2.099-4.535-.118-8.593 1.677-12.736 3.258-1.664.635-3.302 1.274-5.077 1.52-6.306.872-10.728-3.168-16.736-2.9-6.893.307-12.746 4.66-19.695 4.86-.622.018-1.298.034-1.872-.243-.147-.07-.276-.16-.41-.253l-.017-.178c.82-.518 2.218-.336 3.162-.52a19.5 19.5 0 0 0 3.313-.985c7.27-2.83 11.75-8.783 20.314-6.824 3.459.79 8.014 3.107 11.396 3.001 1.072-.033 2.253-.437 3.16-1.015.297-.188.461-.34.55-.68-.55-.457-3.56-.745-4.476-.898-1.435-.238-2.891-.451-4.285-.874-2.179-.662-4.24-1.62-6.488-2.058q-1.136-.224-2.294-.28-1.157-.056-2.31.057c-9.949.942-11.756 9.093-22.352 8.112l-.08-1.838c2.279-.084 4.496-.129 6.654-.959 2.043-.786 3.635-2.359 5.414-3.582 5.67-3.901 11.388-4.713 17.977-3.018-.184-1.454-.232-2.786.692-4.031.908-1.224 2.444-1.811 3.913-1.999 2.82-.36 5.706.788 8.3 1.762l-.106-.166c-1.648-2.576-5.157-4.648-8.112-5.272a12.9 12.9 0 0 0-4.173-.177c-2.546.319-5.63 1.757-7.453-.906-.684-.998-.912-2.28-.689-3.462.297-1.575 1.46-2.86 2.776-3.704 3.65-2.339 8.764-1.632 12.766-.717 1.312.3 2.592.914 3.918 1.096.255-.496.451-1.066.999-1.298.403-.17.952-.114 1.378-.101l-.038-.178c-.578-2.662-2.17-4.813-4.45-6.277q-.449-.293-.926-.535t-.977-.433-1.017-.325q-.518-.135-1.047-.214c-3.133-.456-7.617.61-8.552-3.638q-.027-.122-.048-.245-.02-.123-.035-.247t-.023-.248-.011-.25q-.002-.124.002-.25.005-.124.015-.248.01-.125.028-.248.016-.124.04-.247.022-.123.052-.244t.064-.24q.035-.12.077-.238t.088-.234q.048-.115.1-.228.054-.113.113-.223.058-.11.122-.218.065-.106.134-.21c.872-1.326 2.246-2.067 3.778-2.359 4.856-.926 10.38 1.551 14.279 4.237 6.65 4.58 11.38 12.186 13.382 19.941q1.981-9.643 4.645-19.122c.805-2.916 1.979-5.885 2.55-8.841l-.08-.153c-.848-1.59-4.454-4.47-3.987-6.04.46-1.54 1.796-3.162 2.623-4.544 2.419-4.04 8.891-14.488 6.544-19.18-.35-.698-.853-1.118-1.449-1.591-2.734 1.522-8.552 7.105-11.704 6.264-2.002-.534-6.532-3.928-7.537-5.845-1.15-2.196-2.003-4.551-1.746-7.049-1.046-1.551-1.992-3.142-1.623-5.103.218-1.159 1.502-2.448 1.538-2.781-.75-.687-1.801-.593-2.74-.832-2.48-.631-3.84-3.154-4.307-5.486-1.909-.984-3.065-2.064-3.732-4.166-.248-.782-.397-1.6-.564-2.402-1.775-1.663-3.207-3.582-3.274-6.113q-.004-.15 0-.3t.015-.3.03-.297q.018-.15.044-.297.026-.148.059-.294t.074-.29.088-.287.102-.282.116-.276.13-.27.143-.264.155-.256.169-.248.18-.24q.094-.117.193-.23.099-.112.204-.22c2.072-2.154 5.075-2.278 7.792-2.99 1.613-.423 3.173-1.01 4.587-1.904 2.252-1.422 3.711-3.337 5.224-5.48 3.69-5.228 6.918-7.736 12.977-9.91.119-2.915 1.237-5.186 3.395-7.158 2.168-1.982 4.874-3.287 7.578-4.366 10.644-4.248 22.884-5.085 34.224-4.516 18.383.922 40.863 8.395 55.549 19.622 5.004 3.826 9.386 8.396 13.594 13.062 7.248 8.037 13.622 17.173 18.94 26.587 2.23 3.948 4.258 8.032 6.271 12.094 3.002 6.058 5.991 12.145 8.58 18.394 5.562 13.418 9.877 27.48 13.728 41.477 1.09 3.963 2.082 7.936 3.083 11.92 1.09 4.335 2.235 8.671 2.687 13.128-2.281-.014-4.402-.128-6.583-.884-7.06-2.447-9.979-8.621-19.16-7.718-2.683.264-5.317 1.561-7.824 2.513-2.45.93-4.95 1.776-7.525 2.284a15 15 0 0 0-1.007 1.647c4.395.156 7.656-1.254 11.675-2.737 6.194-2.287 9.768-2.069 15.231 1.74 1.94 1.352 3.76 2.66 5.91 3.677 1.351.639 2.937 1.276 4.42 1.503.845.13 2.042.021 2.811.338l.071.21c-.208.333-.367.485-.758.583-.723.18-1.567.113-2.305.059-5.315-.39-9.692-3.472-14.78-4.546-8.374-1.767-11.939 3.577-19.553 2.964-6.52-.524-9.19-6.032-17.28-5.671-4.557.203-9.077 3.146-13.2 4.935-2.26.98-4.699 1.815-7.105 2.332 8.49 2.245 11.94-3.815 19.411-4.295 4.045-.26 7.18 1.39 10.444 3.587 1.591 1.072 3.11 2.067 5.04 2.391 3.778.633 7.293-1.535 10.743-2.712 3.04-1.037 6.212-1.511 9.405-1.015 6.175.96 8.303 4.369 13.396 6.434 1.015.411 2.194.898 3.274 1.064 1.063.163 2.262.05 3.267.462l.107.202c-.352.417-.809.411-1.326.453-7.677.625-12.494-6.105-20.786-6.248-6.857-.119-11.58 4.554-17.04 4.486-6.037-.075-8.683-5.415-16.134-4.562-5.297.607-9.063 5.152-14.167 5.157-4.85.005-8.622-4.725-14.477-5.089-7.035-.437-11.043 4.911-16.736 4.945-4.592.027-8.548-4.455-13.815-5.044-7.657-.857-10.955 4.85-17.252 4.972-5.515.107-9.59-4.798-15.204-4.734-5.586.063-9.724 4.752-15.262 4.609-4.822-.125-8.969-4.294-14.641-4.885-7.145-.743-10.232 3.98-16.54 4.369-2.72.168-5.15-.67-7.615-1.721-5.877-2.508-10.032-3.669-16.094-.81-4.197 1.979-8.047 4.61-12.91 4.493-.621-.015-1.517-.01-2.028-.377l-.054-.236.152-.204c1.666-.117 3.314-.249 4.913-.77 6.143-2.003 9.565-6.72 16.752-7.227 4.542-.32 6.913 1.362 10.967 2.693q.72.236 1.457.413.736.177 1.485.294t1.504.174 1.513.052c4.618-.001 6.124-1.512 9.993-3.356 2.616-1.247 5.292-1.873 8.193-1.855 3.65.023 6.412 1.508 9.762 2.694 2.682.95 6.044 1.68 8.887 1.756 2.102.055 3.44-.976 5.381-1.47 2.218-.564 4.565-.872 6.846-1.059 3.279-.268 6.203.51 9.315 1.433 1.483.44 3.082.952 4.64.968 1.875.02 4.564-.153 6.374-.588 3.854-.928 5.499-2.159 9.87-1.798 5.352.442 8.641 4.133 13.485 4.234-.417-2-1.078-3.936-1.526-5.927-.87-3.86-1.524-7.82-2.1-11.734-.564-3.827-1.023-7.736-1.281-11.596-.206-3.077-.251-6.17-.478-9.243-3.182 2.34-7.187 1.773-10.857 1.29-.958-.126-1.938-.383-2.864-.052-4.036 1.441-8.883.956-12.697-.941-.636-.317-1.243-.701-1.836-1.092-3.778 1.744-8.289 2.498-12.302 1.042-1.407-.51-2.644-1.316-3.52-2.55-3.108 1.262-7.053 1.562-10.195.23a11.5 11.5 0 0 1-1.436-.74c3.531.38 6.194.089 9.293-1.79.697-.423 3.737-3.135 4.331-2.239.268.404.38 1.115.492 1.59.546 2.315 1.392 4.138 3.91 4.768 1.631.408 3.35-.036 4.752-.909 1.738-1.081 3.131-2.815 4.233-4.511.31-.48.657-1.28 1.055-1.664.184-.177.276-.191.519-.208.799.766 1.332 1.9 1.909 2.837 1.583 2.57 3.83 4.733 7.044 4.613 1.963-.074 3.773-1.065 5.074-2.506.65-.72 1.271-1.768 2.113-2.257.329-.017.419-.037.66.238.309.352.543.899.8 1.302 1.067 1.681 2.486 2.722 4.455 3.113 1.67.332 3.33.104 4.997-.12-.01-4.334-.088-8.83.297-13.145-3.097.48-6.202.288-9.26-.41-.836-.19-3.547-1.25-4.156-1.04-.036.029-.07.061-.108.087-3.386 2.237-11.087 1.424-14.803.456-1.463.951-2.942 1.359-4.674 1.44-3.403.157-6.686-.53-9.247-2.887q-.812.474-1.675.848-.862.374-1.762.644c-3.35.998-5.766.273-8.749-1.332a17 17 0 0 0 1.693.32c3.745.471 6.995-.756 9.221-3.848.496-.688.992-1.882 1.68-2.376.228-.164.284-.151.545-.116.915 1.042.478 3.812 1.857 5.59.567.731 1.354 1.115 2.265 1.218 2.926.33 5.183-1.768 6.585-4.08.531-.877 1.018-2.046 1.849-2.677 2.154-1.637 4.085 5.218 8.471 5.768 2.692.337 5.461-1.565 7.122-3.537.62-.737 1.151-1.692 1.893-2.299.255-.051.44-.111.664.083.418.362.844 1.23 1.169 1.7 1.366 1.97 3.052 3.246 5.251 4.188 1.025.439 2.929 1.297 4.023.86.195-.313.937-8.914 1.178-10.422a43.2 43.2 0 0 1 2.308-8.612c-1.742-.606-3.77-.983-5.598-.558-2.573.599-2.408 1.839-3.624 3.636-.255.376-.517.479-.96.407-.725-.118-1.417-.604-2.049-.957-1.647-.917-3.365-1.657-5.278-1.706-2.639-.066-5.469.986-7.527 2.619-.814.646-2.018 2.25-3.045 2.406-1.263.192-2.87-1.226-3.72-1.982-2.203.812-3.864 2.314-5.873 3.42-2.622 1.442-2.88-1.429-4.542-1.688-.958-.149-2.464 1.469-3.276 1.946l-.169-.078c-2.2-4.252 6.488-38.185 8.164-44.486.094-.353.178-.92.496-1.103l.368.228c.28-.334-.117-1.144-.085-1.617.02-.311.103-.463.323-.67.211.019.372.043.574.115q.085.031.17.065c-.224-.54-.517-1.207-.381-1.795l.222-.082.673.357.089-.092c-.21-.394-.639-1.045-.651-1.489-.01-.306.04-.362.237-.562.372.052 1.063.796 1.404 1.055-.31-.687-.925-1.424-1.06-2.144-.062-.33-.013-.561.176-.84.404.169.77.569 1.197.52.196-.678-.77-1.375-.825-2.154l.299-.123c.487.09.962.41 1.396.643-.37-.625-1.01-1.507-.926-2.255l.226-.08c.582.212 1.008.674 1.46 1.084l-.15-.271c-.275-.504-1.087-1.788-.918-2.364l.107-.02c.666.245 1.166.87 1.663 1.363-.457-.905-.948-1.772-1.37-2.697l.224-.317-.05-.053c.391.175.738.344 1.07.618.353.291.715.533 1.098.782-.599-.697-1.48-1.573-1.722-2.48l.126-.131c.716.017 1.378.498 1.988.845-.576-.564-1.473-1.367-1.531-2.221l.107-.069c.657.029 1.158.529 1.663.907-.486-.66-.897-1.23-1.156-2.02l.106-.19c.515.069.945.547 1.317.881-.372-.932-.806-1.839-1.226-2.75.656.325 1.294.703 1.935 1.058-.432-.55-.819-1.096-1.027-1.77l.124-.122c.23.077.398.134.585.295.254.219.508.428.772.637-.321-.643-.91-1.604-.799-2.334l.232-.15c.49.048.902.39 1.306.653-.328-.549-1.056-1.554-.949-2.206l.229-.127c.55.04 1.048.415 1.517.686l-.079-.107c-.4-.55-1.098-1.362-.987-2.072.253-.09.383-.025.627.06.274.095.297.123.594.067-.053-.479-.502-.875-.695-1.345.058-.276.058-.283.272-.466.312.054.618.125.927.197l.162-.122-.291-.442c-.204-.305-.32-.445-.314-.833l.198-.141c.27.11.512.211.8.265.117-.43-.372-1.01-.423-1.481-.028-.26-.005-.258.18-.455.217.05.41.09.634.092.115-.422-.17-.925-.27-1.364l.149-.194.559.017c.395-.329-.18-.79.042-1.245.896-.167.287-.708.809-1.324l.24.139c.354.594-1.484 7.055-1.857 8.311q-4.023 13.315-8.627 26.44-2.759 7.887-5.25 15.863c-2.785 8.821-5.444 17.85-5.575 27.177.7-.561 1.406-1.071 2.161-1.557-.363-.423-.904-.958-.888-1.55.2-.206.243-.256.552-.24.108.005.215.03.323.036a6 6 0 0 1-.443-.792c-.157-.329-.276-.63-.146-.98.325-.059.515.082.79.232l.121.068c.102-.263-.695-1.13-.752-1.555-.026-.19.06-.243.157-.39.556.171 1.114.678 1.589 1.016-.326-.381-.685-.775-.95-1.203-.2-.323-.401-.764-.307-1.147l.257-.055c.587.252.984.702 1.43 1.146-.258-.355-.518-.711-.758-1.079-.305-.467-.714-1.198-.586-1.772.44.074 1.086.785 1.447 1.088-.42-.683-1.225-1.48-1.315-2.294-.03-.262-.043-.154.149-.383.63.257.916.922 1.517 1.234-.237-.412-.574-.697-.787-1.134-.245-.504-.633-1.177-.435-1.735.69.067 1.724 1.356 2.242 1.841-.536-.834-2.048-2.468-2.01-3.448l.073-.055c.64.008 1.144.582 1.597.984l.038.086-.037-.086c-.232-.888-.954-1.597-1.206-2.503-.068-.245-.122-.325.011-.552.644.076 1.339.89 1.797 1.325l.064.055-.064-.055c-.52-1.066-.878-2.188-1.175-3.333l.124.088.199.15c.75.565 1.36 1.32 1.987 2.017-.54-1.147-1.666-2.6-1.71-3.876l.133-.072c.78.55 1.451 1.307 2.128 1.981-.579-1.038-1.412-2.04-1.55-3.26l.149-.083c.71.452 1.303 1.083 1.912 1.66-.512-.997-1.168-1.866-1.23-3.024l.138-.087c.62.398 1.109 1.215 1.6 1.784-.366-1.13-1.479-2.783-1.21-3.976l.142-.089a20 20 0 0 0 1.677 2.498c-.56-1.928-1.032-3.49-1.132-5.517.722 1.091 1.091 2.35 1.803 3.436-.226-.981-.523-1.954-.728-2.939-.12-.576-.269-1.462.064-1.978.368.237.901 1.678 1.182 2.157-.222-1.147-.474-2.416-.518-3.583-.01-.299-.006-.47.213-.685.04.009.082.012.12.026.645.23 1.146 1.234 1.502 1.787-.345-1.035-1.04-2.562-.93-3.635l.106-.081c.677.099 1.335 1.13 1.756 1.636-.308-.886-1.08-2.131-1.046-3.07.008-.242-.017-.142.192-.334.616.102 1.065.649 1.501 1.06-.337-.714-1.092-2.062-.908-2.84l.204-.062c.567.212.962.719 1.377 1.145-.512-1.207-.656-2.14-.67-3.444.259.363.83 1.313 1.241 1.426.06-1.168-.786-2.341-.538-3.512.45.327 1.346 1.672 1.85 2.2-.493-1.088-1.383-2.65-1.11-3.868l.157-.017c.674.61 1.127 1.61 1.686 2.349-.318-1.404-1.128-2.693-1.201-4.153l.122-.131c.761.573 1.336 1.485 1.99 2.19-.457-1.117-.969-2.215-1.468-3.315l.382-.215-.42-.148c.74.103 1.696 1.306 2.215 1.836-.16-.331-.343-.651-.517-.975-.324-.599-1.132-1.83-.931-2.505.567.078 1.822 1.73 2.302 2.205-.418-.906-1.861-3.091-1.611-4.095.684.068 1.882 1.695 2.422 2.227-.421-1.171-1.674-2.6-1.485-3.873.616.004 1.774 1.589 2.275 2.068-.291-.766-1.65-3.07-1.483-3.734.746-.02 1.918 1.28 2.51 1.776-.565-1.241-1.976-2.849-1.895-4.243l.164-.129c.948.778 1.753 1.944 2.56 2.879-.779-1.72-1.493-3.31-1.812-5.18 1.05 1.084 1.735 2.414 2.74 3.531-.649-1.764-1.373-3.505-2.039-5.264 1.098 1.055 1.992 2.392 3.01 3.533-.529-1.377-1.18-2.582-1.468-4.05.771.74 1.593 1.426 2.404 2.12-.915-1.568-1.953-2.924-2.643-4.631.862.822 1.62 1.787 2.406 2.682-.358-.89-.704-1.764-.958-2.69a41 41 0 0 1 2.214 2.619c-.79-1.901-1.785-3.673-2.375-5.657 1.248 1.088 2.125 2.335 3.07 3.678-.373-1.85-1.353-3.512-1.949-5.3 1.176 1.047 2.254 2.25 3.344 3.387-.43-1.823-1.364-3.485-1.81-5.312 1.051.803 1.728 2.088 2.804 2.788.457-.364-.781-2.755-.521-3.5.767.35 1.392 1.55 2.15 2.105q.06.044.124.087c-.53-1.13-.88-2.108-1.044-3.348.443.466 1.109 1.356 1.774 1.383-.11-.852-1.16-1.711-1.434-2.595-.106-.343-.073-.462.085-.775.308.008.794.737 1.051.992l.228-.008c.197-.56-.157-1.182-.39-1.695.526-.659.959-1.395 1.41-2.107m31.594-5.045.145.063c1.636 1.135 4.138 2.237 5.957 3.31 5.549 3.272 10.535 7.278 15.177 11.73 11.889 11.405 19.128 23.262 26.776 37.666 4.429 8.342 8.569 16.915 11.848 25.78 2.043 5.524 3.718 11.145 5.493 16.756 2.277 7.2 4.506 14.15 6.427 21.473 2.038 7.775 3.769 15.623 5.769 23.404 1.634.8 3.25 1.164 5.045 1.418-.707-5.362-2.847-12.373-4.244-17.724-4.291-16.442-9.263-32.848-15.93-48.494-3.095-7.265-6.76-14.387-10.356-21.42q-1.513-2.956-3.162-5.838t-3.43-5.686-3.691-5.52-3.944-5.342c-1.988-2.596-3.925-5.237-6.067-7.71-5.75-6.635-12.652-12.63-19.934-17.524-3.602-2.42-7.59-4.938-11.734-6.279zm-3.25.503.143.062c1.642 1.015 3.606 1.665 5.318 2.607 5.863 3.228 10.876 7.678 15.475 12.483 2.154 2.251 4.306 4.508 6.268 6.931 12.82 15.838 23.872 38.694 30.492 57.948 2.695 7.84 4.454 15.924 6.788 23.868 1.627.29 3.279.67 4.628 1.684 1.202.903 1.899 2.213 2.092 3.696.137 1.052-.014 2.202-.691 3.053-.74.931-1.65 1.191-2.773 1.337 2.01 6.917 3.45 13.916 5.19 20.894 1.42.797 2.762 1.688 4.114 2.594l2.054 1.536c-2.442-10.013-4.71-20.09-7.495-30.016-1.192-4.249-2.736-8.435-4.023-12.663-2.112-6.945-4.16-13.928-6.834-20.683-3.432-8.667-7.67-17.15-12.094-25.355-3.97-7.365-8.37-14.799-13.41-21.482-6.374-8.45-14.732-16.65-23.58-22.5-3.566-2.358-7.398-4.702-11.52-5.932zm-1.625 1.384.15.058c.975.58 2.106.888 3.11 1.425 3.576 1.913 8.18 5.15 11.172 7.9 3.135 2.883 5.862 6.292 8.501 9.62 11.162 14.077 18.6 28.91 25.05 45.577 2.135 5.515 4.228 11.14 5.956 16.796.69.284 1.348.577 1.897 1.1.69.658 1.12 1.512 1.129 2.476.008 1.047-.443 1.805-1.133 2.545.613 1.664 1.118 3.382 1.663 5.07q.074.002.147.009c1.107.103 2.047.561 2.768 1.425.657.79.935 1.807.843 2.824-.14 1.553-.964 2.486-2.099 3.433.243.69.514 1.326.849 1.974l1.757-.095c.949-.023 1.9.086 2.846.167-1.631-5.721-2.874-11.543-4.62-17.23q-1.476-4.712-3.155-9.354-1.68-4.642-3.559-9.207t-3.954-9.045-4.342-8.865c-1.19-2.316-2.349-4.666-3.637-6.929-7.794-13.698-19.355-29.64-33.098-37.9-2.574-1.545-5.179-2.918-8.092-3.716zm-1.5 1.86.146.079c1.078.873 2.23 1.59 3.279 2.523 4.67 4.159 8.768 9.08 12.476 14.098 2.449 3.312 4.83 6.627 6.97 10.15 6.673 10.993 11.625 23.364 15.336 35.66q2.076 6.912 3.873 13.903c.617 2.43 1.043 4.949 1.795 7.338l.062.195q1.232-.877 2.472-1.741l1.79-1.084c-1.004-3.094-1.818-6.261-2.786-9.37q-3.412-11.097-7.822-21.837c-6.898-16.412-16.295-31.44-29.378-43.614-2.384-2.22-5.016-4.972-8.067-6.221zm3.127.26.133.103.144.082c1.145 1.133 2.631 2.056 3.879 3.092q3.535 2.96 6.678 6.334c14.302 15.263 23.638 34.352 30.297 53.997q1.651 5.007 3.155 10.06c.643 2.177 1.213 4.377 1.959 6.522 1.092-.486 2.102-.855 3.285-1.047q.588-.067 1.173-.152c-.004-1.366-4.102-12.249-4.858-14.214-6.53-16.981-13.708-32.149-25.12-46.446-4.82-6.04-8.209-9.869-14.604-14.345-1.847-1.293-3.791-2.89-5.844-3.801l-.144-.082zm-3.751 1.252.133.102.153.085c1.252 1.234 2.625 2.274 3.83 3.588 2.075 2.263 3.917 4.694 5.786 7.127 12.49 16.257 19.61 34.134 24.582 53.877 1.862 7.392 3.389 14.799 4.353 22.366a32 32 0 0 1 2.303-2.181c.72-.614 1.512-1.16 2.271-1.727-1.037-3.613-1.763-7.317-2.721-10.953-2.251-8.539-4.843-17.052-8.12-25.256-6.112-15.295-14.282-29.494-25.837-41.368-1.711-1.758-4.224-4.52-6.447-5.473l-.153-.085zm-.792 3.883.167.228.08.082c1.191 2.022 2.716 3.73 3.631 5.924-.776-.738-1.457-1.826-2.281-2.44l-.078-.09-.075-.1.075.1.078.09c.516 1.815 2.036 3.58 2.938 5.26 1.559 2.904 3.023 5.977 4.194 9.06q1.368 3.582 2.593 7.216 1.224 3.633 2.305 7.312 1.08 3.679 2.015 7.398.934 3.719 1.72 7.471.787 3.753 1.425 7.534t1.126 7.584.826 7.623.524 7.649c1.342 1.627 2.87 3.106 4.223 4.733.114-3.075-.204-6.216-.502-9.273q-.409-3.965-.989-7.907t-1.33-7.858q-.751-3.913-1.671-7.791t-2.006-7.713c-1.325-4.818-2.76-9.665-4.656-14.291-1.656-4.043-3.632-7.971-5.508-11.916-.901-1.896-2.029-3.927-2.643-5.93l-.05-.163c2.102 2.266 3.768 5.544 5.186 8.28 9.225 17.782 15.425 46.4 15.627 66.252 2.06 3.105 3.458 6.248 4.865 9.682q.045-5.41-.282-10.812t-1.025-10.767C180.119 79.296 174 57.996 165.452 43.01c-2.148-3.764-4.731-7.254-7.28-10.749-1.673-2.294-4.085-6.394-6.214-8.054l-.08-.082zm44.89 114.076c.8-4.933 2.69-10.823 5.254-15.122 1.77-2.97 5.992-7.638 9.444-8.508-2.14 1.727-4.365 3.72-5.833 6.069 1.269-1.257 2.636-2.302 4.103-3.312 1.161-.801 2.56-1.546 3.508-2.6.418-.464.671-1.034.673-1.662.001-.39-.08-.797-.387-1.068-.444-.393-1.219-.414-1.77-.32-3.432.584-8.083 6.704-10.018 9.613q-.4.612-.771 1.242-.373.63-.716 1.275-.345.645-.66 1.305t-.602 1.333q-.286.673-.543 1.358t-.483 1.38-.422 1.4-.36 1.418c-.578 2.531-.946 5.11-1.577 7.63-.841 3.358-2.54 7.722-4.302 10.718q1.821-6.897 2.771-13.966c1-6.99 1.53-15.63 4.512-22 1.71-3.655 4.446-7.014 7.594-9.525.919-.732 2.38-1.536 3.078-2.448.324-.424.243-.769-.008-1.2-.3-.513-.738-.818-1.317-.943-2.855-.62-6.997 2.317-9.252 3.872-12.171 8.39-11.986 19.246-15 32.22-.88 3.785-2.204 7.44-3.688 11.025.895-6.206 3.026-13.84 2.97-19.968q-.02-1.095-.12-2.186-.102-1.091-.285-2.171-.184-1.08-.448-2.144-.264-1.063-.608-2.104c-1.071-3.326-2.624-6.286-4.713-9.084-3.137-4.2-6.84-7.84-10.79-11.263-.893-.774-2.328-2.278-3.524-2.466-.255-.04-.383-.01-.618.08-.115.157-.21.19-.16.4.26 1.08 2.087 2.905 2.795 3.858 1.613 2.17 3.026 4.694 4.179 7.14 1.387 2.945 2.133 6.139 2.458 9.368.86 8.56-1.246 24.983-5.179 32.479-.635 1.21-1.425 2.683-2.458 3.595.194-.433.487-.847.714-1.267 2.553-4.727 3.474-9.68 1.891-14.87-1.613-5.29-5.198-11.088-9.636-14.51-1.835-1.416-3.884-2.473-5.92-3.563 1.703.406 3.3.871 4.907 1.59 4.734 2.115 9.728 6.755 12.157 11.382.578 1.104.865 2.223 1.312 3.363l.076.19c.104-.906.205-1.445-.105-2.32-.515-1.454-1.412-2.792-2.268-4.064-3.437-5.11-7.742-8.796-13.315-11.41-.993-.466-2.357-1.11-3.453-.663-.357.144-.718.438-.845.81-.204.598.074 1.332.423 1.819.688.958 2.147 1.383 3.127 2.003 3.94 2.493 6.863 6.81 8.548 11.084 2.376 6.024 2.074 11.56-.479 17.455.164-2.856.702-5.675.846-8.532-1.85-2.198-5.266-5.678-8.307-5.956-1.116-.101-2.374.276-3.203 1.046-.346.32-.547.671-.527 1.157.068 1.636 2.865 2.191 4.025 2.834.563.312 1.027.707 1.484 1.156q.23.223.448.457.219.234.425.478.207.245.402.5.194.254.375.517.182.264.35.537.168.272.323.553.155.28.295.568t.267.582.237.595.208.606.177.615.147.623.115.63.085.635.052.637q.019.32.022.64c.01 4.064-1.887 6.852-4.652 9.612q.657-.164 1.325-.28.668-.115 1.343-.183t1.351-.085 1.355.013c3.32.178 4.524.746 8.018.003a31.6 31.6 0 0 0 5.887-1.886c6.67-2.904 11.9-6.973 19.632-5.113 2.575.62 4.84 1.996 7.341 2.802l.187.06c2.5-3.687 4.259-6.726 8.121-9.276 1.204-.794 2.477-1.515 3.838-2.005 2.023-.727 5.363-1.362 7.206.046.603.462.924 1.27 1.598 1.584.311-.006.46.012.697-.228.251-.254.361-.671.39-1.016.054-.661-.208-1.34-.661-1.82-1.639-1.737-4.265-2.579-6.593-2.592-3.578-.02-8.185.886-11.17 2.956-1.263.875-2.33 2.008-3.422 3.081.377-5.521 1.102-8.517 4.639-12.998 3.298-4.179 9.378-8.761 15.039-7.82 1.355.226 2.692 1.224 4.097 1.006.377-.059.749-.224.939-.577.18-.337.149-.734.069-1.094-.23-1.038-.789-1.85-1.701-2.395-2.823-1.686-9.81-1.555-12.879-.708-5.775 1.593-9.435 7.074-12.04 12.102-.717 1.382-1.3 2.827-2.061 4.186M166.08 119.57c1.688 1.153 2.415 2.654 3.022 4.53.033-1.667.039-3.328-.33-4.966-.988-1.06-3.184-2.877-4.68-2.953-.28-.014-.362.038-.596.173-.178.373-.111.686.029 1.057.153.409.375.792.617 1.154.593.892 1.33 1.682 1.942 2.561.774 1.111 1.404 2.433 2.326 3.422l.064.076-.064-.075c-.327-1.73-1.433-3.49-2.33-4.979M55.9 127.64l.058.06.065.22c.335 1.174.653 3.034.296 4.227l-.2.162c-.536-.158-1.115-.534-1.659-.559l.006.156.212.121c3.039 1.825 7.324 9.192 8.228 12.778-1.233-1.42-2.112-3.189-3.277-4.681-2.527-3.237-6.44-5.591-10.257-6.987-1.084-.397-2.216-.611-3.298-1.006l.045-.082c3.02-.023 6.629 1.727 9.11 3.32.982.631 1.894 1.374 2.868 2.023-1.227-1.322-2.767-2.775-4.342-3.66-2.756-1.548-7.898-2.433-11.045-2.604-2.212-.12-5.23-.036-6.946 1.575-.63.591-1.149 1.446-1.161 2.33-.007.511.145 1.045.523 1.407.979.939 3.56.04 4.751-.142q1.255-.184 2.523-.186c4.169-.017 8 1.843 10.908 4.784 3.28 3.318 4.337 7.093 4.306 11.638-2.118-2.882-4.365-4.652-7.65-6.08 2.99.763 5.272 1.378 7.166 3.991-.531-2.033-1.5-3.333-2.76-4.96-.197.181-.405.39-.643.514-1.122.584-4.201-.843-5.427-1.175-1.437-.39-3.557-.817-4.895.012-.643.399-1.096 1.122-1.258 1.854-.124.565-.028 1.128.315 1.598 1.265 1.736 6.357 1.926 8.456 2.195-2.308-1.178-4.858-1.282-6.912-2.26l-.031-.2.295-.312c1.061-.395 2.941-.064 4.042.204 2.428.588 5.317 2.269 6.602 4.484.29.501.462 1.089.291 1.66-.321 1.078-1.47 1.591-2.383 2.075l.436-.112c1.453-.365 2.835-.939 4.24-1.453 2.993-1.096 5.91-1.896 9.11-2.077.353-2.007.893-4.352.842-6.383-.064-2.534-2.666-9.573-3.803-12.158-3.078-6.99-7.948-13.074-15.35-15.67a33 33 0 0 0-3.665-1.064c-.93-.21-1.967-.293-2.853-.634.154-.067.298-.128.462-.165.912-.209 2.038-.08 2.959.022 3.43.381 6.533 1.252 9.485 3.11 6.508 4.096 10.186 11.862 11.936 19.124.485 2.012.683 4.075 1.134 6.093.242-1.535.506-3.003.258-4.557-1.393-8.74-5.698-17.25-12.98-22.503-3.177-2.29-8.612-4.747-12.63-4.014-1.077.197-2.036.72-2.66 1.64-.328.485-.474 1.038-.355 1.617.593 2.898 4.681 1.907 6.891 2.277q.668.116 1.32.3t1.282.435 1.23.563 1.167.688c5.352 3.49 8.436 9.147 9.715 15.283-1.205-2.168-3.435-7.3-5.035-8.797zm92.497 24.081c1.647.131 3.178.482 4.739 1.025.757.263 1.83.943 2.585.991l.2-.24c-.306-.856-2.31-1.858-3.14-2.252-2.826-1.343-5.607-1.339-8.605-.661.715 4.075 1.897 8.295 3.494 12.112l2.122-.99c-.287-.897-.66-1.731-1.06-2.584-.657-1.516-1.34-3.04-1.89-4.6 2.399.416 4.55 1.096 6.794 2.014-2.361-1.792-5.083-2.297-7.726-3.443 2.738-.238 5.094.507 7.533 1.699.832.406 1.65.88 2.539 1.151-1.502-1.62-3.673-2.567-5.681-3.401-.628-.261-1.317-.482-1.904-.82m10.888-137.033h.151zm-3.626.374h.152zm.31.126h.217zm-3.06 3.25h.152zm-.812 3.294c2.695 2.93 4.801 6.23 7.076 9.477 3.03 4.326 6.077 8.494 8.565 13.174 9.131 17.182 14.581 38.793 16.482 58.062.528 5.357.87 10.77.64 16.156q-.05 1.146-.167 2.287c.347-1.545.736-3.05 1.266-4.544a37.7 37.7 0 0 1 4.094-7.762c-.447-3.254-.799-6.517-1.366-9.754q-1.603-8.887-3.999-17.594c-4.88-18.076-11.77-34.695-23.445-49.476-2.52-3.19-5.534-7.179-8.689-9.75q-.21-.169-.458-.276m-6.34.86c.312 3.325.166 6.75.168 10.09q-.004 8.956.087 17.911.121 9.298.78 18.572c.508 6.667 1.313 13.329 2.023 19.977.09.834.569 3.166.072 3.805-.202.26-.429.392-.757.407-1.224.057-2.084-.053-3.069.878-3.174 3.004-3.57 19.64-3.582 24.07-.02 6.962.14 13.503.866 20.447.176 1.685.183 3.66.764 5.262.186.51.478.85.859 1.233.888.895 1.839 1.712 2.711 2.627 4.039-.072 6.328.73 9.852 2.69-.39-3.108-1.505-5.904-4.064-7.861-1.87-1.43-4.924-1.714-5.378-4.475q-.034-.203-.048-.408t-.007-.41q.006-.206.034-.41.027-.203.075-.403t.116-.393.155-.38.192-.363.228-.341q.087-.118.18-.232.093-.113.192-.222t.203-.212q.105-.103.214-.201.11-.099.223-.191.114-.092.233-.179.119-.086.242-.166t.25-.155.257-.141.264-.129.27-.114q.138-.054.276-.1.14-.047.281-.087t.285-.072.288-.058.29-.043c2.958-.345 5.776 1.745 7.977 3.45-1.2-4.96-3.753-9.215-7.767-12.391-2.037-1.409-5.138-2.457-5.582-5.18-.181-1.111-.002-2.18.691-3.084.657-.86 1.651-1.463 2.727-1.605 3.206-.423 9.006 3.471 11.416 5.424 1.582 1.28 3.031 2.686 4.528 4.06l-.13-.199c-1.351-2.06-5.01-5-4.437-7.595.119-.542.38-1.026.858-1.331.867-.553 2.07-.467 3.017-.213 1.304.35 2.514 1.013 3.614 1.783-.548-5.345-3.307-10.427-6.49-14.675-1.002-1.338-2.373-2.705-3.02-4.258-.386-.927-.361-1.91.3-2.709.552-.666 1.406-1.051 2.26-1.112 2.199-.156 4.622 2.281 6.143 3.675q1.169 1.06 2.29 2.17c-.148-3.612-.745-7.189-1.184-10.773q-.695-6.068-1.797-12.076-1.103-6.008-2.608-11.927c-.595-2.31-1.318-4.583-1.982-6.873-1.923-6.625-4.105-13.131-7.13-19.352-1.339-2.754-2.939-5.402-4.53-8.015-1.008-1.654-3.682-6.05-5.008-7.273-.057-.052-.12-.096-.18-.145m-21.051 4.812.02.317.191-.022-.03-.267zm-58.974 30.14c-.18 1.364-.444 2.374-1.603 3.247-.57.428-1.218.758-1.843 1.095 1.772-.202 3.584-.319 5.095.824.528.398.87.987 1.225 1.535.709-.184 1.417-.357 2.106-.605a25 25 0 0 0 3.72-2.056c-1.132-1.97-2.876-2.978-5.017-3.557-1.214-.329-2.431-.44-3.683-.483m9.99 8.22c-1.447.882-2.964 1.7-4.57 2.255-2.052.708-6.244.756-7.446 2.685-.089.477.1.802.28 1.226 2.432-.1 6.47-1.581 8.514-2.866.868-.545 1.684-1.269 2.377-2.02q.49-.532.905-1.123c-.016-.053-.012-.127-.06-.157m30.417 1.48.097.039zm-.72 1.785c.041.038.075.108.131.105zm-6.771 22.034h.114zm110.494 14.168c-1.33.968-2.64 1.927-3.855 3.04.251.886.631 3.112 1.284 3.69l.158-.066c1.268-.974 2.493-1.83 3.938-2.531-.453-1.357-.887-2.725-1.384-4.067zm-4.91 4.13c-2.646 3.163-4.386 6.651-5.504 10.614-.184.655-.48 1.449-.506 2.125-.005.117.016.16.047.26l.273-.408c1.873-3.061 4.095-6.233 6.772-8.643-.185-.588-.804-3.64-1.081-3.947m8.402 8.478c-.331.373-.77.758-.945 1.225l.216-.002c.52-.063.662-.025 1.061-.387.062-.227.094-.298-.023-.505a.9.9 0 0 0-.309-.33m5.194 9.779c1.132 4.042 2.101 8.157 3.351 12.162 1.503.984 3.268 2.205 3.67 4.081.188.882.028 1.763-.492 2.503-.437.624-1.005.988-1.665 1.338.911.145 1.82.291 2.71.543.625.199 1.258.385 1.874.61-.847-5.018-2.094-9.992-3.434-14.9-.474-1.736-.865-3.574-1.476-5.26-1.532-.765-2.806-1.183-4.538-1.077m-1.54.254c-1.689.538-3.122 1.384-4.627 2.296.398 2.653 1.001 5.294 1.568 7.916l2.414.051c1.27.124 2.474.277 3.695.655-.307-1.233-2.5-10.44-2.672-10.743-.043-.076-.13-.117-.194-.175zm-6.018 3.357c-1.71 1.476-3.205 3.078-4.443 4.974.067 1.186.145 2.35.326 3.525l.979-.362a27 27 0 0 1 4.716-1.164c-.283-1.05-1.225-6.592-1.578-6.973m-5.886 6.848c-.401.72-1.54 2.397-1.324 3.18l1.497-.817c-.02-.668.075-1.756-.172-2.363m-61.172 7.145c.298.752.856 1.209 1.569 1.576-.446-.555-.94-1.227-1.57-1.576m71.526.461-.281.176c-.118.865.292 1.973.513 2.812 1.219-.379 2.429-.708 3.691-.903l1.22-.135c-.719-.67-1.443-1.444-2.263-1.983-.971-.069-1.91-.078-2.88.033m-1.907.436c-1.075.452-2.123 1-3.027 1.743l-.07.19.29-.026c1.13-.029 2.255-.057 3.387-.012q-.158-.903-.347-1.8zm-69.33 1.327c.14.435.205.756.587 1.029l.393.098c-.268-.482-.453-.896-.98-1.127m66.468 2.848c-1.155.162-2.93.213-3.749 1.112.02.23-.032.155.077.259 1.248-.392 2.497-.774 3.721-1.237l.022-.111z"/><path d="M105.692 12.232c.135-.482.298-.938.576-1.36.655-.992 1.605-1.364 2.724-1.6 1.134-.037 2.171.12 3.159.72 1.036.628 1.842 1.667 2.084 2.865.167.828.043 1.71-.468 2.399-.673.91-1.619 1.19-2.677 1.367-1.228-.197-2.46-.625-3.487-1.34-1.179-.821-1.642-1.69-1.911-3.051m20.15 3.908c-1.263-.107-2.5-.305-3.606-.972-.861-.52-1.59-1.308-1.816-2.311-.153-.68-.04-1.358.36-1.933.713-1.023 1.912-1.445 3.085-1.638 1.437-.128 2.778.313 3.882 1.245.75.633 1.335 1.51 1.397 2.51.046.74-.173 1.488-.677 2.041-.689.756-1.646.99-2.625 1.058m-24.747 2.736c-1.266.25-2.582-.005-3.755-.509-1.194-.513-2.408-1.365-2.868-2.633-.248-.686-.294-1.454.057-2.113.48-.898 1.5-1.325 2.422-1.603 1.157-.072 2.186.081 3.254.542 1.293.559 2.776 1.603 3.26 2.968.195.548.2 1.125-.064 1.652-.431.864-1.442 1.385-2.306 1.696m15.85-.991-.027.005-.084-.11zm13.583 1.927.068-.038zM70.376 34.536c.405-1.246.761-2.582 1.344-3.757.62-1.253 1.395-1.948 2.712-2.393 1.648-.162 3.069.395 4.629.815 2.836.763 5.546.691 8.395.041-1.863 1.435-9.57 5.445-11.786 6.157a26 26 0 0 1-2.638.535c1.933-1.136 2.931-2.682 3.932-4.641l-1.956-.4c-.256.512-.502 1.073-.828 1.545-.943 1.368-2.26 1.785-3.804 2.098m32.523.994q-.013-.059-.022-.118c-.152-1.134.313-.597.803-1.201-.322-.262-.555-.4-.623-.826.168-.272.385-.347.664-.474.16-.073.098-.014.184-.162-.103-.115-.269-.274-.348-.413-.168-.294-.118-.416-.066-.734.312-.02.54-.033.847.047.18.756.119 3.669-.197 4.386a6.3 6.3 0 0 1-1.242-.505m.24 8.711c-.501-.218-.936-.4-1.134-.947-.02-.054-.03-.11-.046-.165.194-.276.325-.276.653-.324.177-.026.382-.047.559-.038-.327-.614-.954-.389-1.034-1.25.351-.303.75-.154 1.176-.343-.42-.377-.784-.445-1.04-.97l.028-.316c.32-.265.708-.245 1.103-.28-.492-.508-.846-.776-.95-1.489.206-.214.082-.162.364-.17l.789-.196.037-.13-.15-.091c-.349-.212-.622-.354-.83-.71l-.037-.317c.205-.253.357-.328.684-.379.314-.048.646-.055.963-.072-.129 1.686-.38 6.752-.997 8.11zm-.745 1.306c-.153-.171-.289-.357-.429-.54-.052-.361-.081-.353.13-.646.382-.17.641-.152 1.044-.12.018.043.04.084.055.128.127.38.077.763-.1 1.116-.328.19-.326.151-.7.062m-35.189 2.016q.907-.384 1.844-.687t1.898-.525 1.935-.358 1.96-.189q.198-.002.397 0c2.915.015 5.854.652 7.949 2.822 2.34 2.426 2.341 5.763 2.288 8.916-.589-1.995-1.255-3.616-2.532-5.266a13.6 13.6 0 0 0-2.211-1.975c-3.836-2.704-8.966-3.506-13.528-2.738m35.255-.282c-.167-.128-.37-.266-.503-.43-.191-.236-.197-.433-.138-.712.364-.32.513-.292.983-.355l.064.004c.174.2.14.173.142.422.005.412-.024.86-.32 1.158zm-.99 9.277c-.06-.051-.094-.073-.14-.147-.319-.53.13-6.238.317-7.096.247-.127.37-.174.54-.401l-.453-.302c-.181-.357-.071-.853-.034-1.244.394.095.718.107 1.018.387-.256 2.915-.73 5.921-1.248 8.802"/><path d="M67.183 49.072c.71-.167 1.41-.3 2.131-.405q.197-.022.394-.037c3.694-.246 7.812.482 10.658 3.015 2.457 2.187 3.236 4.845 3.401 8.018l-.595-1.482c-.689-1.345-1.722-2.576-2.812-3.615-3.449-3.29-8.35-5.632-13.177-5.494"/><path d="M82.74 62.52c-.526-.518-.864-1.384-1.222-2.04-1.06-1.941-2.194-3.529-3.937-4.912-1.914-1.517-4.14-2.581-6.474-3.277-.831-.248-6.76-1.296-6.981-1.48 1.637-.106 3.433.011 5.061.197 4.05.464 8.98 1.984 11.609 5.318 1.26 1.599 2.194 4.148 1.944 6.195m7.718 3.347c-.774-.003-1.652-.318-2.225-.848-.307-.283-.348-.406-.382-.818.78.071 2.024.548 2.53 1.164.162.195.097.263.077.502m-12.741 6.44c-.437-.025-.838-.096-1.196-.36l-.042-.283.37-.348c.36.05.817.127 1.111.351.16.122.1.113.107.352zm-1.937.687c-.39.046-.791.138-1.172.011.073-.353.48-.65.738-.909.353.19.864.39 1.081.73-.198.181-.386.144-.647.168m89.029 26.088-.183-.057zm0 0 .04.131zm.041.131c1.113.675 2.056 1.709 2.924 2.666 3.984 4.393 6.16 9.742 7.555 15.432 1.258 5.132 1.748 11.091.324 16.21l-.154.454-.132.017c-.23-1.125-.082-2.5-.084-3.654-.005-2.386.013-4.776-.221-7.154-.678-6.886-3.25-14.136-6.973-19.958-.865-1.353-2.552-2.743-3.24-4.013m26.066 33.617-.097-.095c.032-5.303 1.158-10.792 3.078-15.736 2.309-5.946 6.512-11.369 12.455-13.996q.01.007.016.017c.143.366-.457.702-.734.92-2.833 2.222-4.728 3.838-6.865 6.812-4.68 6.508-6.153 14.414-7.853 22.078"/><path d="m188.448 125.854-.032.012c-.263-2.867.846-6.431 1.914-9.055 1.663-4.086 4.696-8.51 8.371-11.034 1.152-.791 2.387-1.346 3.668-1.89.066.088.024.021.065.228-.13.08-.257.164-.387.243-.208.126-.418.25-.622.383-.95.623-1.812 1.413-2.653 2.174-5.468 4.945-8.863 11.77-10.324 18.94m-8.05 9.862c-.038.189-.113.345-.188.522-.253-.845.07-3.218.06-4.268-.018-2.022-.08-4.092-.394-6.091-.945-6.018-3.95-11.833-6.015-17.561.359.231.54.566.754.924 1.238 2.085 2.286 4.3 3.278 6.51 3.045 6.787 4.379 12.573 2.505 19.964m-75.041-21.449a7.4 7.4 0 0 1-1.743.496c-2.131.31-4.625-.11-6.356-1.452-.794-.617-1.892-1.921-2.022-2.945.467.368.822.851 1.29 1.222 1.777 1.412 4.267 2.42 6.55 2.475.735.018 1.798-.217 2.471.006zm18.193-4.033c2.14.947 4.004 2.06 6.29 2.71 1.688.48 3.44.596 5.126 1.048l.021.118-.177.161c-2.851.814-6.076.27-8.654-1.155-.862-.476-2.246-1.246-2.622-2.191-.093-.234-.044-.459.016-.692m-29.23.611.033-.077zm-8.626 2.491-.328-.196c.475-.219 1.884.043 2.468.048 2.301.017 4.644-1.038 6.485-2.343q-.013.053-.029.105c-.38 1.087-1.46 2.02-2.476 2.498-2.06.966-4.087.654-6.12-.112m36.444-.56q-.217.147-.44.284c-2.385 1.482-5.666 1.59-8.33.946-1.771-.428-3.803-1.289-4.797-2.897 1.119.137 2.141.757 3.228 1.06 3.716 1.032 7.48.979 11.166-.124-.26.259-.549.492-.828.731m89.161 1.567.076-.062zm-45.219 5.227-.057-.058zm55.537 4.354c-4.298-1.033-7.925-.314-11.692 2.016-3.227 1.995-6.378 5.265-8.157 8.632-.584 1.105-.971 2.314-1.553 3.411.309-2.208 1.29-4.42 2.427-6.32q.225-.382.47-.752t.507-.728.543-.702q.28-.344.577-.673.298-.33.611-.643.314-.315.642-.613.329-.298.672-.579t.7-.544.727-.51.752-.471.774-.433.794-.394.814-.354.83-.313.845-.27.858-.228c2.227-.54 5.851-.746 7.858.468m.001 0 .133.072zm-140.904 1.152c2.98 1.47 6.004 1.644 9.187.625.516-.165 1.92-1.015 2.367-.939l-.26.335c-1.45 1.497-2.946 2.318-5.085 2.338-1.986.018-4.579-.639-5.994-2.113a3 3 0 0 1-.215-.246m-.083-.076-.113-.099zm26.952 2.18a6.8 6.8 0 0 1-2.197 1.709c-2.168 1.065-4.809.904-7.045.138-2.227-.763-3.924-2.059-4.964-4.195 1.743 1.106 3.516 2.223 5.53 2.759 3.665.976 6.54.004 9.693-1.807-.332.469-.677.93-1.017 1.395M80.629 125l.083.076zm40.987 3.91c-.389.239-.796.44-1.213.626-2.2.977-4.744.774-6.95-.077-1.988-.768-3.87-2.18-4.754-4.159.87.224 1.843 1.197 2.675 1.651 2.288 1.25 5.017 2.19 7.665 1.957 1.015-.09 1.989-.452 3.008-.525l.035.13zm13.844-.511q-.163.107-.332.207-.168.1-.341.191t-.35.175q-.178.083-.358.158-.181.075-.365.142t-.371.124-.376.107-.382.09-.384.071q-.194.031-.388.054-.194.022-.39.035-.195.013-.39.017-.196.004-.392-.001t-.39-.02-.39-.037-.388-.056c-1.884-.297-3.664-1.256-4.805-2.805 1.01.111 2.636.971 3.744 1.262 1.567.41 3.414.501 5.007.223.812-.142 1.621-.387 2.446-.417l.077.119zm-58.854 6.863c1.849 1.245 3.874 1.907 6.12 1.813 4.425-.186 5.453-3.207 7.984-5.891q.054-.059.11-.115c.362.058.472.037.703.348.4.537.652 1.457.934 2.075.81 1.775 2.409 3.541 4.248 4.268 3.157 1.248 6.489-1.037 8.573-3.227.677-.712 1.723-2.211 2.637-2.559q.06-.022.12-.039c.405-.106.711.46.895.76 1.704 2.782 2.682 5.512 6.01 6.825 1.038.409 2.234.503 3.329.309 4.15-.737 4.796-4.677 6.353-5.391.53.154 1.365 1.78 1.858 2.264 2.799 2.747 7.413 2.425 11.013 2.426-2.925 1.8-5.089 2.304-8.523 1.984-1.611-.092-3.12-.753-4.684-1.088-5.157 2.755-10.598 2.961-16.094.944-2.106-.773-3.013-1.684-5.352-1.228-4.252.828-7.957-.117-11.502-2.494-2.584 1.144-5.588 1.866-8.426 1.588-2.65-.26-4.649-1.536-6.306-3.572m-13.654 15.062c-.714-.716-1.965-3.933-2.624-5.032-3.351-5.596-8.226-9.264-14.523-10.843-1.88-.471-3.822-.647-5.69-1.116l-.11-.029c5.04-.344 11.107 1.277 15.171 4.317 4.05 3.03 7.074 7.67 7.776 12.703m97.534-3.287c-.61-.728-.895-2.01-1.36-2.863-1.76-3.225-4.604-4.983-7.874-6.379a8 8 0 0 1 1.099-.054c2.206.082 4.413 1.583 5.862 3.154 1.688 1.83 2.384 3.649 2.273 6.141m39.668-8.912.06-.141z"/><path d="M76.265 139.333c4.242 1.331 9.537 1.756 13.606-.402.419-.222.816-.486 1.216-.739l-.662.957c-1.54 1.681-3.415 2.445-5.67 2.554-2.505.122-6.573-.668-8.49-2.37m16.005-.078-.203-.456c.283-.335 2.249 1.242 2.768 1.505 2.156 1.095 4.967 1.534 7.352 1.175a2.2 2.2 0 0 1-.458.393c-1.399.899-3.094 1.03-4.689.685-2.044-.441-3.64-1.546-4.77-3.302m-16.005.078-.14-.062zm43.307 4.158c-2.553 1.256-5.24 1.623-8.04 1.035-3.003-.63-5.3-2.136-6.98-4.691.125.053.072.024.194.1 3.781 2.358 7.66 3.971 12.189 3.65 1.067-.077 2.072-.37 3.124-.472l.018.093zm15.318-.738c-1.841.867-3.757 1.207-5.78.85-1.892-.335-3.83-1.428-4.952-3.01 1.28.069 3.41 1.343 5.002 1.649 1.27.244 2.695.32 3.983.212.736-.062 1.465-.254 2.204-.217l.016.156zm-32.703-1.273.06-.076zm99.358 7.32c1.209-2.549 3.995-4.476 6.583-5.396 1.328-.473 2.808-.813 4.225-.785l-.2.099c-1.238.594-2.67.847-3.946 1.384q-.71.294-1.391.648-.682.353-1.331.763-.65.41-1.261.875-.612.464-1.182.979c-.507.452-.968 1.021-1.497 1.433m-138.639-3.995.063.07zm10.096 2.858c2.123 1.224 4.819 2.44 7.316 2.445 3.218.006 5.082-2.238 7.193-4.284.322.021.559.069.803.296.33.306.597.913.83 1.308.925 1.568 1.887 2.99 3.466 3.973 3.509 2.183 6.702-.238 9.21-2.6.764-.72 1.547-1.745 2.603-2.003 1.968 1.543 2.83 3.262 5.24 4.721 3.74 2.265 7.19.677 10.156-1.999.702-.633 1.53-1.762 2.453-1.983.748.154 2.102 1.967 2.913 2.526 3.026 2.087 6.623 1.596 10.043.99q-.3.27-.611.526c-2.427 1.981-6.1 2.045-9.048 1.747l-1.75-.29c-2.134.93-4.244 1.767-6.535 2.242-4.392.909-9.54.369-13.338-2.134-1.001.4-2.095.613-3.159.769-4.303.63-9.253.262-12.855-2.409-2.268.865-4.973.862-7.352.564-3.192-.4-5.629-1.885-7.578-4.405m128.482 1.236.06-.1zm-.08.101.08-.101zm-126.028 2.625-.113-.113zm0 0 .084.085zm73.021.097-.12-.062z"/><path d="M75.46 151.71c2.373 1.371 6.264 1.99 8.983 1.555.412-.066 1.69-.414 1.904-.082-.128.138-.252.289-.39.417-1.639 1.094-3.423 1.232-5.315.857-1.847-.367-3.98-1.235-5.182-2.747m87.772 1.066.095-.085zm-.145.21.145-.21zm-60.905 2.524c-.413.291-.843.602-1.3.823-2.5 1.21-5.533 1.063-8.108.16-1.934-.678-3.587-1.795-4.5-3.686 1.034.412 2.022 1.116 3.064 1.571 3.803 1.662 7.856 1.718 11.725.194-.283.321-.586.627-.881.938m22.733-.962a3 3 0 0 1-.813-.5l.247-.14-.015.135c3.092.148 5.923.291 8.763-1.154l.064.037c-.219.544-1.459 1.172-1.982 1.435-2.12 1.065-4.093.897-6.264.187m-19.87.544c-.209-.284-.484-.563-.508-.927l.623.388c.92.578 1.89 1.017 2.902 1.41 4.448 1.733 9.786 1.428 14.12-.498l-.035.034c-2.143 1.954-5.999 3.144-8.867 3.102-3.14-.047-6.064-1.254-8.235-3.51m17.137.374.067-.068zm4.773 11.797c-6.63-.196-9.725 4.52-17.254 3.967-5.695-.418-9.507-4.713-15.487-4.144-4.909.467-8.735 4.15-13.804 4.13-5.153-.02-9.248-3.56-14.292-4.004-2.384-.21-4.947-.003-7.227.747-4.096 1.348-6.37 3.185-11.065 3.2-6.18.018-9.692-4.058-15.852-3.719-1.723.095-3.395.448-5.035.977-4.667 1.505-8.824 4.007-13.82 4.459-.684.062-1.577.17-2.234-.056l-.03-.14c.702-.635 6.624-2.158 8.146-2.822 3.302-1.442 6.143-3.452 9.64-4.537 4.205-1.305 8.57-.84 12.637.746 3.134 1.222 5.878 2.604 9.34 2.289 2.392-.218 4.468-1.179 6.631-2.14 3.309-1.469 6.509-2.268 10.15-1.911 4.987.49 8.831 4.343 13.929 4.187 5.78-.178 9.8-4.658 15.713-4.292 5.245.325 8.871 4.408 14.057 4.27 3.872-.103 6.646-2.31 10.161-3.544 1.655-.58 3.272-.77 5.015-.865 7.355-.131 9.687 4.233 15.372 4.512 5.844.287 8.982-4.25 15.499-4.486 6.988-.255 9.569 3.992 14.962 4.48 5.322.483 9.588-3.725 15.082-4.156 7.682-.603 11.264 4.662 18.053 3.948 3.666-.385 7.116-2.81 10.844-3.59 9.236-1.935 12.414 2.884 19.887 5.685.882.33 6.57 1.864 6.671 1.944.159.123.105.114.121.344-.813.597-3.623-.07-4.614-.272-1.476-.3-2.88-.652-4.29-1.191-3.501-1.34-7-3.473-10.79-3.77-4.271-.335-7.889 1.517-11.864 2.674q-.965.289-1.951.488t-1.988.306q-1 .107-2.006.121-1.007.015-2.01-.063c-5.925-.499-7.434-4.03-14.164-3.613-5.882.363-9.735 3.972-16.088 3.806-5.563-.145-9.96-3.999-15.558-3.868-5.994.14-10.056 4.174-16.25 3.881-5.224-.246-8.828-3.43-14.238-3.978"/><path d="M214.462 176.781c-2.144.915-4.35 1.987-6.617 2.548q-.288.073-.58.135-.29.06-.584.109-.294.048-.59.083t-.592.058-.595.031-.595.006-.595-.021-.593-.047-.59-.073q-.296-.043-.588-.099t-.582-.124q-.29-.07-.576-.15-.286-.082-.569-.176-.282-.094-.56-.2t-.552-.224-.54-.249c-1.345-.661-2.623-1.462-4.04-1.966-2.099-.747-4.46-.905-6.668-.752q-1.187.073-2.353.31-1.166.236-2.288.632c-3.68 1.285-7.06 3.549-11.128 3.163-4.983-.471-8.893-4.28-14.091-4.295-5.743-.016-10.32 4.52-15.956 4.49-5.98-.034-10.083-5.136-16.787-4.415-5.073.546-9.25 4.413-14.192 4.387-5.336-.029-8.612-3.833-13.52-4.354-6.218-.66-10.607 4.15-16.612 4.233-6.251.087-9.956-4.436-16.489-4.337-6.494.098-9.638 4.45-15.485 4.246-5.896-.206-10.267-4.782-15.816-4.89-4.138-.08-7.644 1.82-11.393 3.243-2.653 1.007-5.417 1.816-8.247 2.098-.757.076-1.712.216-2.444-.043-.324-.115-.494-.292-.632-.597.053-.056.094-.128.16-.17.093-.058 2.931-.304 3.36-.374a12 12 0 0 0 2.3-.623q1.288-.463 2.53-1.04 1.24-.577 2.424-1.263c3.65-2.107 6.725-4.492 11.056-5.025 6.383-.448 10.931 3.049 16.91 3.295q.803.033 1.605.003t1.6-.121q.797-.092 1.585-.245.788-.154 1.562-.368c3.838-1.078 6.508-2.632 10.73-2.612q.819.012 1.634.088.815.075 1.621.215.807.14 1.6.342.794.202 1.569.466c3.121 1.036 5.636 2.27 9.019 2.237 6.125-.06 10.906-3.625 16.954-3.08 4.265.383 7.457 3.215 11.766 3.18 2.427-.019 4.695-.847 7.015-1.446 2.577-.665 5.429-1.263 8.078-1.466q.59-.046 1.182-.064.591-.018 1.183-.008t1.182.048 1.18.103q.587.065 1.172.159.584.093 1.163.213.58.121 1.153.269t1.138.323c2.313.708 4.59 1.746 7.051 1.738 2.825-.009 5.282-1.079 7.955-1.793a32 32 0 0 1 8.108-1.052q.86-.007 1.719.049t1.711.174q.853.119 1.694.299.842.18 1.668.421c2.987.874 5.533 2.181 8.745 2.054 2.594-.102 4.78-1.056 7.197-1.872 2.565-.864 5.327-1.524 8.044-1.523 5.967.004 10.188 3.293 15.55 3.263 3.185-.018 5.825-1.184 8.787-2.13 2.672-.853 5.7-1.288 8.5-1.006 6.274.633 8.945 4.304 14.173 6.497 1.264.53 2.658.986 4.026 1.135.74.08 1.59.029 2.302.224.206.055.285.066.391.256-.422.504-1.165.514-1.79.544-4.764.235-9.18-2.186-13.61-3.564-1.562-.487-3.158-.892-4.795-1.013-2.785-.208-5.282.39-7.818 1.503"/><path d="M188.82 179.889c-5.413.374-10.157 3.548-15.568 3.625-5.993.084-9.603-3.535-15.1-3.68-3.482-.091-6.442 1.53-9.66 2.59q-.745.252-1.507.443-.763.191-1.539.322-.775.13-1.558.198-.784.07-1.57.076c-6.009.036-10.053-3.573-15.46-3.753-5.436-.18-10.154 3.524-15.575 3.666-5.628.148-9.422-3.321-14.603-3.542-5.558-.236-9.957 3.604-15.547 3.779-6.444.2-9.451-3.259-15.19-3.805-6.311-.601-10.034 2.843-15.993 3.334-5.288.435-6.885-1.189-11.481-2.538-3.238-.95-6.886-.834-10.146-.059-3.428.815-6.434 2.5-9.72 3.68-2.057.74-6.118 2.018-8.21 1.026l.028-.154c1.003-.432 2.254-.531 3.324-.764 1.014-.22 2.002-.552 2.97-.92 2.166-.825 4.196-1.964 6.302-2.924 4.984-2.272 10.478-3.46 15.882-2.087 4.281 1.087 6.394 2.764 11.227 2.606 3.596-.119 6.128-1.584 9.429-2.627 1.53-.482 3.05-.706 4.646-.828 7.053-.635 10.464 3.785 17.18 3.697 5.847-.076 8.966-3.496 14.311-3.725 5.885-.251 9.87 3.686 15.74 3.657 5.21-.025 8.993-3.155 14.052-3.598 6.292-.55 10.503 3.487 16.511 3.595 5.712.104 10.332-3.55 16.026-3.557 5.386-.006 9.707 3.706 15.086 3.617 5.626-.092 10.298-3.666 16.057-3.602 6.267.07 9.237 4.26 14.81 4.318 2.383.025 4.512-.772 6.699-1.624 3.95-1.539 7.495-2.71 11.807-2.216 4.723.54 8.45 3.248 12.78 4.891 1.422.54 2.916.972 4.42 1.214.613.1 1.25.101 1.857.213.334.061.466.117.655.395l-.108.247c-.621.357-1.425.316-2.123.292-4.599-.16-8.54-2.425-12.814-3.78q-1.172-.38-2.381-.615-1.21-.235-2.439-.321a21.7 21.7 0 0 0-7.013.62c-4.26 1.092-8.063 3.12-12.621 2.612-3.184-.355-5.252-1.957-8.104-3.061-1.892-.733-3.753-.94-5.768-.933"/><path d="M184.97 188.448c-2.898 1.027-5.693 2.644-8.7 3.291-8.55 1.84-12.229-4.491-19.31-4.125-5.959.308-8.966 4.837-16.267 4.097-4.986-.506-8.919-4.246-13.482-4.319-6.096-.097-10.064 4.843-17.449 4.302-5.589-.41-9.72-4.822-15.483-4.235-5.051.514-8.558 4.28-13.931 4.28-6.305 0-10.571-4.611-16.82-4.21-5.605.36-9.879 4.683-15.66 4.472-5.71-.209-9.63-4.275-15.092-4.405q-1.24-.018-2.472.124-1.231.141-2.435.44c-5.103 1.294-9.749 3.855-15.123 4.09-.608.026-1.433.093-2.01-.105-.255-.087-.265-.094-.39-.344.705-.63 2.884-.642 3.854-.834 1.532-.303 3.058-.845 4.49-1.459 3.471-1.488 6.502-3.959 10.103-5.131 9.739-3.171 14.175 4.203 22.222 3.62 3.333-.242 6.056-2.408 9.065-3.629 1.8-.73 3.597-1.051 5.527-1.191 6.502-.379 10.604 4.317 16.866 4.2 5.213-.097 9.335-4.042 14.553-4.119 5.5-.08 9.237 3.879 14.663 3.92 5.492.04 9.952-3.912 15.464-3.921 5.898-.01 9.292 3.95 14.666 4.123 5.487.176 9.956-3.771 15.432-3.881 5.493-.11 9.335 3.616 14.648 3.764 5.422.151 9.905-3.51 15.27-3.868 7.52-.501 10.138 4.001 15.74 4.28 5.094.254 9.91-3.176 15.402-3.557 7.653-.531 10.561 3.723 17.07 5.772 1.078.34 2.2.595 3.312.797.804.146 3.505.191 3.968.59-.462.777-3.19.548-4.012.493-3.471-.23-6.594-1.253-9.887-2.282-1.841-.575-3.634-1.22-5.572-1.359-6.788-.489-11.227 3.46-17.842 3.525-8.555.083-10.601-6.255-20.379-3.206"/><path d="M44.859 199.571c-4.26-1.08-7.566-3.958-12.089-4.226-2.092-.124-4.238.195-6.256.738-3.62.974-12.121 4.87-15.648 3.696-.306-.101-.398-.206-.537-.486l.1-.117c1.116-.367 2.41-.335 3.573-.531 1.025-.174 2.109-.596 3.074-.983 7.495-3.01 10.482-7.788 19.774-6.133 2.06.367 4.003 1.11 6 1.706 2.591.772 5.485 1.05 8.18.912 5.036-.257 9.316-2.941 14.28-3.346 4.429-.318 6.663 1.419 10.545 2.785 1.927.677 3.992.995 6.032 1.023 5.906.084 9.817-3.686 15.252-3.616 4.683.06 8.365 3.12 13.048 3.532 6.166.544 10.87-3.125 16.877-3.287 6.215-.167 9.806 3.247 15.178 3.286 3.073.022 5.634-1.166 8.485-2.113 2.589-.86 5.235-1.341 7.971-1.202 5.168.264 9.033 3.624 14.072 3.65 5.041.025 8.958-3.507 13.913-3.956 7.122-.645 10.716 3.403 17.414 3.464 6.405.059 10.775-3.973 18.17-3.235 4.995.498 9.32 4.635 13.885 6.474 1.931.778 3.683 1.051 5.725 1.266.256.027.307-.019.477.192l-.105.227c-2.347 1.81-11.436-2.115-14.287-3.004-1.417-.441-2.86-.779-4.338-.932-5.963-.616-9.216 1.81-14.619 3.366 1.925.335 4.003.32 5.958.49 1.837.16 3.685.497 5.52.608 2.396.145 4.714.04 7.085.56 3.992.876 6.074 2.388 9.591 3.585q1.26.426 2.564.683c.66.129 1.783.058 2.34.347.166.085.11.085.153.301-1.486 1.633-8.466-1.224-10.303-1.85q-1.462-.504-2.973-.838c-2.772-.606-6.301-.939-9.09-.467-1.625.276-2.934 1.348-4.264 2.255a65 65 0 0 0-10.742 9.155c-.995 1.052-2.043 2.127-2.865 3.321l-.107.156c1.639 5.868 4.717 10.444 8.816 14.85l.068-1.933c-3.15-3.525-5.803-7.53-7.136-12.108 4.508-.822 9.267-.39 13.81-.116a32 32 0 0 1 2.324-1.063q-5.708-.39-11.43-.441c-1.346-.002-2.783-.083-4.112.145 1.28-1.336 2.484-2.778 3.851-4.025q6.484.29 12.945.908c2.86.292 5.737.803 8.604.964-3.051 2.086-6.259 3.713-9.04 6.214-3.06 2.75-5.776 6.226-5.985 10.483-.339 6.932 5.165 12.385 9.493 17.126-4.006-.696-8.49-.84-12.57-1.184-11.78-.996-23.589-1.495-35.39-2.138-.665-3.892-1.601-7.825-2.834-11.577q-23.264-.887-46.544-.893-23.281-.007-46.546.867c-.916 3.816-1.44 7.77-2.135 11.636-7.235.425-14.481.579-21.717 1.056-8.8.518-17.656 1.06-26.42 2.008 2.575-2.655 5.022-5.659 6.986-8.796 1.768-2.823 3.283-6.27 2.466-9.654-1.753-7.259-9.75-11.842-15.688-15.437 3.363-.064 6.794-.537 10.157-.777l7.255-.515c1.445-.102 3.102-.073 4.491-.476l.05.043c1.191 1.016 2.233 2.22 3.304 3.361-4.743.084-9.488.73-14.226.984.552.375 1.063.804 1.582 1.222 1.622-.181 12.658-1.163 13.502-.815.014.045.033.089.042.135.184.98-6.032 12.201-7.047 13.82 18.366-1.04 36.68-2.365 55.077-2.845q25.122-.564 50.248-.174t50.218 1.732c.342-.391.72-.761 1.077-1.139-4.167-.507-8.526-.436-12.73-.641q-14.837-.79-29.692-1.106c-6.871-.172-13.749-.538-20.621-.594q-31.975-.145-63.903 1.574c-9.012.457-18.073.727-27.06 1.565 2.325-3.894 4.867-8.065 6.28-12.392-1.932-3.418-5.584-6.378-8.635-8.815-2.398-1.914-6.504-5.036-9.324-5.947-1.034-.333-2.185-.334-3.261-.336-2.057-.004-4.01.206-6.013.694-3.353.817-10.474 3.963-13.556 2.952-.266-.087-.29-.127-.409-.362l.157-.187c.698-.247 1.423-.175 2.146-.296.9-.15 1.805-.412 2.676-.677 5.396-1.642 7.973-3.727 14.193-4.234 3.068-.25 6.005.09 9.061.177 2.024.058 4.11-.151 6.132-.279m18.6-5.15c-3.137.369-5.228 2.018-7.991 3.317-1.567.737-3.189 1.178-4.86 1.599 2.995.099 6.086-.297 9.057-.654 4.59-.591 9.248-.613 13.864-.961-3.224-1.453-6.325-3.773-10.07-3.302m62.233-.007c-2.739.42-5.285 1.476-7.827 2.542 3.2-.078 6.398.035 9.598-.041l7.673-.009c-2.502-1.627-6.427-2.903-9.444-2.493m31.363-.003c-2.48.431-4.71 1.202-6.847 2.549 3.378.04 6.781-.022 10.154.133l6.886.032c-3.347-1.332-6.41-3.276-10.193-2.714m-62.99.13c-2.551.364-4.705 1.471-6.987 2.605 2.877-.002 5.746-.261 8.618-.264q3.586-.008 7.17-.143c-2.754-1.383-5.638-2.656-8.801-2.198m94.418.13c-2.61.346-4.699 1.18-6.98 2.475 4.313.093 8.676.077 12.967.567 2.039.176 4.083.414 6.122.562-4.43-1.492-7.064-3.984-12.11-3.605m-78.862 5.887q-21.502.504-42.969 1.849-6.129.368-12.25.849c-1.683.13-3.518.115-5.17.423-.38.07-.808.18-1.09.46-.131.129-.104.218-.123.388.136.31.172.483.51.623.426.175 14.66-1.025 16.433-1.143q22.38-1.663 44.813-2.225c13.14-.237 26.249.132 39.381.377q20.594.742 41.152 2.166l12.62.712c1.86.106 3.916.439 5.76.3.772-.06 1.425-.597 2.062-1.004q-7.619-.426-15.228-.999-17.059-1.185-34.135-2.08-25.874-1.013-51.766-.696m4.123 5.213c-1.593.362-2.679 1.137-3.558 2.527-1.573 2.488-1.565 6.072-.882 8.84.394 1.597 1.1 3.2 2.568 4.081.465.28 1.158.609 1.718.454.592-.163.944-.711 1.546-.824.207.186.336.379.486.611.606.136 1.413-.066 2.031-.142-.235-2.809-.099-5.653-.043-8.47l-.087-.263c-1.076-.319-2.891-.078-4.041-.061-.017.862-.174 1.764.4 2.479l.216.094c.276.123.47.22.571.519.25.732.089 2.427-.293 3.11-.136.243-.236.273-.476.39-.493-.093-.776-.393-1.045-.8-1.158-1.752-1.207-5.177-.754-7.181.183-.814.501-1.84 1.244-2.305.428-.268.954-.283 1.432-.153.6.163 1.117.573 1.612.934.196-.984.508-1.915.83-2.864-1.149-.575-2.155-1.054-3.475-.976m8.414.007c-.713 2.467-1.19 5.031-1.758 7.536-.6 2.64-1.29 5.283-1.79 7.942l2.42-.013c.351-.816.571-1.681.816-2.534q1.664-.024 3.328-.075c.221.867.396 1.732.505 2.621l2.946-.013c-1.005-2.977-1.626-6.099-2.344-9.153-.49-2.083-1.117-4.2-1.496-6.301q-1.313-.017-2.627-.01m7.235.024c-.112 5.138-.21 10.315-.062 15.453l2.656-.006.034-5.155.072-.293c.446-.18.885-.024 1.346-.066 1.39-.128 2.531-1.265 3.08-2.481.658-1.461.78-3.412.176-4.911-.422-1.049-1.237-1.746-2.286-2.138-1.534-.573-3.403-.44-5.016-.403m13.054.086c-1.495.444-2.493 1.34-3.24 2.707-1.412 2.59-1.634 6.366-.795 9.167.44 1.469 1.218 2.955 2.64 3.673.681.344 1.327.374 2.072.318 1.553-.507 2.58-1.628 3.314-3.054 1.351-2.621 1.53-6.42.603-9.202-.454-1.36-1.267-2.648-2.598-3.285-.645-.308-1.293-.353-1.996-.324m-37.448.303c-.327.03-.554.002-.833.19q.3 3.712.464 7.434-1.843-3.726-3.768-7.41c-.705.038-1.411.087-2.117.11.39 5.063.597 10.233.646 15.31l2.265-.041.353-.059c.36-.802-.258-6.475-.265-7.83 1.28 2.531 2.398 5.116 3.536 7.713l2.309-.11c-.356-5.081-.583-10.262-.59-15.356zm46.164-.006-1.697.045-1.005 15.48 2.929.088c.096-2.233.18-4.474.615-6.672.482 1.282.844 2.59 1.142 3.925l.675 2.919c1.015.032 2.045.031 3.054.149-.689-2.394-1.52-4.732-2.251-7.112 1.192-.832 1.863-1.725 2.147-3.196.244-1.269.205-2.842-.556-3.94-.64-.924-1.76-1.381-2.838-1.54a16 16 0 0 0-2.215-.146m-56.171.514-1.552.074a332 332 0 0 1 1.353 15.096c.313.197.742.131 1.112.135l1.633-.04-1.037-15.366c-.502.032-1.009.051-1.509.101m64.411-.109c-.293 3.715-.611 7.411-1.024 11.115-.166 1.495-.271 3.032-.53 4.512 2.164.142 4.332.321 6.498.434.103-.853.195-1.71.333-2.558-.764-.034-3.115.05-3.613-.376q.177-1.876.424-3.744c.991.034 1.975.07 2.961.178l.322-2.689q-1.54-.105-3.084-.137.143-1.873.396-3.733c1.146.1 2.276.18 3.428.188.169-.875.328-1.739.414-2.626zm-70.708.431c-1.194.368-2.144.904-2.766 2.04-.576 1.053-.757 2.319-.396 3.472.787 2.516 5.636 4.873 4.65 6.712-.228.424-.864.822-1.332.895-.744.117-1.686-.398-2.353-.692-.11 1-.206 2.002-.35 2.996.955.294 1.786.473 2.796.47 1.211-.07 2.37-.382 3.203-1.334.803-.917 1.143-2.537 1.012-3.726-.403-3.656-5.703-5.381-4.844-7.474.376-.396.862-.542 1.4-.556.548-.015 1.144.193 1.661.357.125-.77.517-2.046-.057-2.71-.493-.571-1.743-.507-2.439-.464zM74.32 233.209c-.405 2.228-.793 4.47-1.273 6.683-1.49-.69-2.925-1.492-4.419-2.177-2.173-.995-4.42-1.844-6.642-2.72-1.41-.557-2.865-1.235-4.363-1.51-1.09-.199-2.178-.135-3.278-.097 2.54 1.132 5.205 1.974 7.769 3.048 3.128 1.31 6.193 2.85 9.36 4.053q-6.539.039-13.069.374c-6.037.204-12.169.553-18.182 1.12-.457.557-.945.972-1.506 1.417 11.752-.762 23.615-1.644 35.394-1.629.481-2.349 1.303-6.14 1.367-8.451-.35-.177-.775-.117-1.158-.111m105.055.066c-.012 2.577 0 5.24.202 7.808l34.982 2.182c-.319-.434-.628-.882-.96-1.306l-18.987-1.316c-4.067-.224-8.21-.674-12.281-.664 5.642-2.82 11.376-4.823 17.574-5.972-1.542-.222-3.268-.61-4.824-.469-2.95.27-11.151 3.833-13.909 5.504-.127-1.34-.229-4.61-.651-5.688-.401-.106-.733-.1-1.146-.079"/><path d="M133.573 212.9c-.303.189-.672.427-1.033.463-.244.024-.14.04-.358-.14.076-1.58.078-3.169.103-4.752.356.025.75.016 1.07.194.44.244.721.707.846 1.183.275 1.055-.085 2.153-.628 3.051m9.36 5.811c-.052.002-.104.008-.156.007-.464-.006-.812-.18-1.118-.52-1.024-1.14-.97-3.402-.875-4.85.11-1.695.526-3.364 1.853-4.517.062.003.125.003.186.01.491.053.824.306 1.11.692 1.07 1.443 1.006 4.15.712 5.85-.219 1.26-.634 2.558-1.712 3.328m10.388-5.89c-.248.151-.517.224-.792.31-.16-.03-.31-.01-.41-.156-.49-.721.049-3.198.148-4.127.327.038.621.076.912.24.428.24.7.697.8 1.168.2.933-.144 1.806-.658 2.566m-31.017 3.295c.35-1.842.564-3.697 1.025-5.518.04.044.088.081.118.132.175.296 1.153 5.183 1.06 5.392l-.476.05z"/></svg>