<svg xmlns="http://www.w3.org/2000/svg" viewBox="0 0 256 256"><path d="M0 28.053c.387-1.227.908-2.368 2.094-3.018.58-.318 1.184-.414 1.837-.445 1.682-.08 3.4 0 5.086.013l8.519.028 27.449-.03q6.334.032 12.668-.064c1.976-.019 3.982.05 5.953-.05 1.778-1.109 3.492-2.318 5.287-3.4 3.975-2.398 8.203-4.54 12.456-6.4 14.647-6.407 32.277-9.611 48.213-9.426q3.212.065 6.417.292t6.394.613 6.355.932 6.3 1.25c9.337 2.161 18.624 5.447 27.089 9.976 2.33 1.246 4.67 2.528 6.943 3.874 1.224.725 2.464 1.771 3.805 2.244 1.335.47 14.766.187 17.127.185l33.356.02c1.893-.003 8.734-.279 9.957.132.827.279 1.445.9 1.907 1.62.35.544.57 1.128.788 1.733v1.548c-1.595 5.093-5.485 11.16-8.136 15.913-4.83 8.663-9.78 17.312-14.415 26.078 2.834 6.23 5.336 12.721 7.063 19.355 4.102 15.759 4.277 33.66.954 49.585q-1 4.588-2.337 9.089t-3.002 8.892q-.411 1.107-.844 2.207-.432 1.1-.886 2.19-.454 1.092-.93 2.174-.475 1.082-.971 2.154t-1.014 2.135-1.055 2.114-1.097 2.094-1.137 2.071-1.178 2.049q-.6 1.018-1.218 2.025-.619 1.007-1.257 2.001-.639.994-1.297 1.976t-1.335 1.95-1.372 1.924q-.697.955-1.411 1.896t-1.447 1.868-1.484 1.84-1.52 1.81q-.768.898-1.554 1.78t-1.589 1.749-1.623 1.717-1.657 1.686q-.837.834-1.69 1.652-.852.818-1.72 1.62-.87.8-1.754 1.584-.884.785-1.783 1.55-.9.767-1.814 1.516t-1.843 1.48q-.928.73-1.871 1.442-.944.712-1.9 1.406-.957.693-1.927 1.368t-1.953 1.33c-4.35 2.876-8.817 5.541-13.572 7.7q-1.782.815-3.59 1.574-1.808.758-3.638 1.459-1.83.7-3.682 1.343-1.852.642-3.723 1.226t-3.76 1.108-3.793.988-3.822.868-3.849.746c-2.395.445-4.82.68-7.221 1.087-2.033 3.561-3.883 7.222-5.97 10.755-.774 1.309-1.526 2.782-2.557 3.909-.557.607-1.272 1.142-2.081 1.355-.762.2-1.866.032-2.535-.38-.662-.408-1.273-1.2-1.714-1.837-.86-1.241-1.556-2.654-2.304-3.968-1.835-3.223-3.638-6.587-5.649-9.701-5.368-.978-10.712-1.459-16.033-2.84-5.38-1.395-10.875-3.134-15.997-5.287-20.589-8.653-38.081-23.83-50.73-42.109q-.835-1.18-1.639-2.382-.803-1.202-1.577-2.423t-1.517-2.462-1.454-2.499-1.392-2.535-1.327-2.568q-.648-1.293-1.263-2.601-.615-1.31-1.197-2.633t-1.13-2.66-1.064-2.69-.996-2.714q-.48-1.363-.927-2.738t-.859-2.761q-.412-1.387-.789-2.782t-.719-2.8-.649-2.818q-.306-1.413-.577-2.833-.272-1.42-.507-2.847-.236-1.426-.435-2.858-.2-1.433-.364-2.869t-.291-2.877q-.128-1.44-.22-2.883-.091-1.443-.146-2.887-.056-1.445-.075-2.891t-.002-2.891.07-2.89.144-2.889.215-2.883.287-2.877.36-2.869.43-2.86q.234-1.426.504-2.846.418-2.404.947-4.785.53-2.382 1.168-4.736.64-2.354 1.387-4.676.748-2.322 1.603-4.607c.787-2.157 1.585-4.394 2.63-6.442-5.219-9.976-10.785-19.752-16.096-29.679C4.161 37.989 1.567 34.243 0 29.936zm172.875 24.572c-.085.019-.264.042-.337.084-2.61.308-5.325 1.182-7.866 1.87-4.32 1.169-8.79 2.254-12.999 3.786-1.478.539-2.913 1.27-4.355 1.903q-2.48 1.059-4.998 2.022c-2.383.933-6.375 2.205-8.419 3.59-.065.193-.132.381-.179.58 2.006-.377 4.14-1.616 6.05-2.363 5.573-2.18 11.159-4.476 16.793-6.487q4.938-1.71 9.956-3.17c1.685-.484 4.565-.95 6.017-1.731.097-.002.242-.058.337-.084l.124-.093zm-53.608 9.5.172.182.186.05-.186-.05zM221.08 155.97c2.145.255 4.202 1.192 6.18 2.016q1.323-3.41 2.413-6.9c-2.148-.643-4.147-1.467-6.185-2.398 2.246.223 4.334.775 6.51 1.346.656-2.326 1.385-4.659 1.757-7.049-2.018-.427-4.287-.947-6.155-1.825 2.27.012 4.403.474 6.64.77q.833-3.397 1.353-6.857c-2.024-.39-4.048-.756-6.008-1.415 2.08-.214 4.136.085 6.191.392.327-2.457.708-4.923.885-7.395-2.272-.143-4.567-.308-6.806-.736 2.266-.385 4.51-.332 6.8-.326q.22-3.586.212-7.179c-2.147.02-4.288.058-6.423-.21 2.075-.602 4.242-.754 6.387-.924-.032-2.404-.044-4.884-.275-7.278-2.2.284-4.373.348-6.581.498 2.085-.825 4.22-1.243 6.443-1.486-.128-2.354-.247-5.003-.848-7.283-2.219.418-4.58 1.03-6.835 1.083 2.086-.94 4.342-1.742 6.566-2.282q-.393-3.416-1.233-6.75c-2.383.58-4.808 1.462-7.268 1.565 2.192-1.134 4.661-2.08 7.014-2.83-.953-3.862-2.159-8.492-3.789-12.104-7.08 11.094-13.407 22.725-19.927 34.154l-38.155 67.655c-4.934 8.67-9.798 17.398-14.836 26.006l-5.536 9.44c-1.283 2.188-2.933 4.507-3.69 6.928a125 125 0 0 0 8.49-1.588c-.645-2.3-1.061-4.416-.988-6.823.767 2.19 1.456 4.339 2.038 6.588 2.389-.688 4.814-1.37 7.163-2.184-.828-2.184-1.249-4.429-1.594-6.73 1.049 2.09 1.823 4.228 2.504 6.459q3.605-1.203 7.017-2.876c-1.017-2.122-1.62-4.377-2.098-6.672 1.063 2.038 2.15 4.063 3.006 6.2a80 80 0 0 0 6.664-3.108 77 77 0 0 1-2.608-6.38c1.411 1.841 2.452 3.793 3.665 5.754 2.075-1.245 4.234-2.433 6.224-3.808a40.5 40.5 0 0 1-3.111-6.189c1.488 1.751 2.657 3.754 4.118 5.516 2.123-1.35 4.213-2.782 6.075-4.482-1.244-1.977-2.919-4.095-3.741-6.275 1.733 1.688 3.202 3.639 4.63 5.586 1.774-1.539 3.61-3.023 5.321-4.63-1.18-1.707-2.284-3.388-3.252-5.228 1.433 1.046 2.965 3.128 3.94 4.614 1.766-1.64 3.51-3.35 5.176-5.09-1.47-1.626-2.87-3.262-4.028-5.134 1.644 1.417 3.15 3.003 4.826 4.376 1.578-1.706 3.02-3.514 4.565-5.245-1.13-1.178-3.48-3.217-4.18-4.546 1.745.866 3.415 2.477 4.915 3.718 1.477-1.982 3.09-3.857 4.563-5.84-1.745-1.23-3.24-2.584-4.73-4.1 1.821.94 3.542 2.094 5.275 3.186 1.336-1.947 2.581-3.933 3.809-5.95-1.807-1.248-3.601-2.447-5.207-3.955 2.035.945 3.881 1.868 5.695 3.205 1.309-2.078 2.402-4.346 3.437-6.572-2.07-.968-3.942-2.13-5.817-3.428 2.126.604 4.217 1.688 6.238 2.588 1.179-2.116 2.09-4.427 3.063-6.645-1.931-.86-4.177-1.661-5.864-2.938M57.017 198.312c1.51-1.767 3.103-3.652 4.924-5.103-.931 2.088-2.73 4.029-4.245 5.737 1.765 1.876 3.76 3.479 5.786 5.063 1.07-1.883 2.645-4.25 4.343-5.612-.478 1.701-2.49 4.748-3.6 6.211 2.009 1.273 3.767 2.895 5.818 4.13 1.428-2.135 2.798-4.216 4.393-6.237-.925 2.387-2.05 4.608-3.349 6.808 2.005 1.306 4.016 2.565 6.099 3.745.9-2.358 2.396-4.542 3.705-6.695-.666 2.413-1.534 5.014-2.914 7.114q3.152 1.83 6.463 3.353c.97-2.38 1.963-4.826 3.343-7.001-.682 2.487-1.31 4.888-2.234 7.302 2.103 1.157 4.429 2.076 6.66 2.959.622-2.407 1.403-4.744 2.634-6.913-.453 2.464-.981 4.815-1.722 7.211a92 92 0 0 0 7.319 2.211q.919-3.706 1.941-7.385c-.135 2.558-.184 5.155-.768 7.658 2.307.66 4.748.994 7.11 1.416-.016-.797.037-1.675-.31-2.411-1.653-3.494-3.649-6.864-5.514-10.247q-5.203-9.603-10.707-19.037l-21.152-37.31-27.732-48.587Q39.432 99.824 35.481 93c-1.4-2.442-2.732-4.954-4.27-7.31-1.594-.35-3.233-.574-4.845-.839-.595 2.413-1.37 4.783-2.009 7.187 2.112.864 4.413 1.406 6.562 2.23-2.276-.119-4.564-.57-6.778-1.1-.633 2.398-1.043 4.87-1.559 7.296 2.264.527 4.539 1.105 6.742 1.848-2.276.106-4.604-.364-6.878-.507-.27 2.386-.601 4.754-.73 7.155 2.168.376 4.313.757 6.467 1.211-2.172.203-4.368.055-6.543-.042q-.365 3.707-.372 7.432c2.141.148 4.339.01 6.409.688-2.162.263-4.277.289-6.45.287.04 2.424.094 4.938.434 7.34 2.36-.1 4.78-.286 7.122.09-2.347.48-4.716.755-7.096 1.018.26 2.36.496 4.723.872 7.07 2.238-.23 4.41-.508 6.668-.398-2.076.744-4.246 1.123-6.406 1.526.213 2.367.727 4.779 1.39 7.059 2.233-.509 4.36-.923 6.644-1.1-2.078.927-4.26 1.446-6.453 2.028q.933 3.491 1.96 6.956c2.416-.922 4.69-1.367 7.253-1.664-2.225 1.014-4.558 1.82-6.846 2.678.65 2.185 1.545 4.32 2.368 6.445a44 44 0 0 1 6.928-1.955c-2.099 1.166-4.293 2.08-6.521 2.962.799 2.316 1.808 4.491 2.906 6.678 2.21-1.056 4.358-1.845 6.691-2.575-1.84 1.485-4.136 2.492-6.231 3.577 1.045 2.17 2.23 4.289 3.397 6.396 2.23-1.282 4.488-2.296 6.892-3.199-2.025 1.486-4.048 2.827-6.272 4 1.11 2.212 2.507 4.313 3.959 6.314 1.569-1.486 3.816-2.579 5.775-3.437q-2.49 2.293-5.306 4.17c1.116 2.013 2.785 3.885 4.236 5.668 1.888-1.517 3.873-2.956 5.986-4.144-1.544 1.875-3.379 3.478-5.16 5.122 1.335 1.89 3.024 3.643 4.607 5.33 1.761-1.734 3.68-3.35 5.633-4.862-1.471 2.097-3.079 3.858-4.977 5.566q2.556 2.675 5.337 5.117m69.104-189.7c-.383.265-.673.471-.764.959-.053.288-.01.563.164.804.257.354.629.489 1.05.506l.207.005c.37-.315.698-.592.727-1.117.02-.338-.132-.59-.369-.816-.247-.234-.687-.314-1.015-.34m-4.92.13c-.414.253-.713.458-.825.967q-.013.06-.02.12-.006.06-.006.12t.006.12.018.12.03.117.044.113.054.108q.03.052.066.101c.256.357.615.457 1.027.516.446-.277.777-.504.856-1.069a1.09 1.09 0 0 0-.285-.874c-.256-.287-.604-.384-.966-.458m9.534-.023c-.338.364-.61.666-.566 1.202.027.332.212.605.478.793.335.238.714.264 1.114.248.377-.29.664-.555.684-1.071.013-.33-.137-.607-.375-.824-.413-.377-.816-.36-1.335-.348m5.238.26c-.291.26-.597.51-.658.92a.93.93 0 0 0 .23.793c.296.339.717.354 1.127.4.318-.229.63-.447.728-.852a.94.94 0 0 0-.177-.844c-.312-.388-.795-.413-1.25-.416m-20.002.355c-.37.356-.68.648-.668 1.202.004.2.095.386.235.532.323.336.819.326 1.248.313.391-.338.677-.582.692-1.137a.8.8 0 0 0-.198-.557c-.284-.335-.727-.385-1.136-.367-.058.002-.115.01-.173.014m24.999.008c-.374.337-.737.7-.748 1.24-.007.352.077.61.339.855.366.343.766.333 1.23.323.37-.313.708-.616.711-1.145.002-.365-.109-.649-.374-.9-.33-.312-.722-.363-1.158-.373m-29.879.527c-.426.248-.754.476-.876.991-.072.302-.007.6.166.856.273.402.638.452 1.079.507.414-.263.749-.486.835-1.01a1.06 1.06 0 0 0-.262-.87c-.252-.293-.578-.396-.942-.474m34.873.108c-.387.332-.662.653-.713 1.183-.03.316.067.6.289.829.327.335.697.32 1.127.319.36-.313.675-.598.724-1.107a.98.98 0 0 0-.305-.809c-.318-.315-.701-.376-1.122-.415m-40.232.753c-.335.365-.606.668-.586 1.2.011.31.163.586.41.774.349.266.766.252 1.177.225.33-.303.617-.617.62-1.097.001-.337-.18-.615-.436-.818-.367-.292-.74-.293-1.185-.284m45.126-.009c-.4.34-.737.67-.764 1.229-.016.35.053.615.297.877.296.318.608.333 1.01.353.416-.291.7-.53.787-1.063a1.1 1.1 0 0 0-.26-.921c-.282-.334-.659-.415-1.07-.475m-49.878 1c-.373.32-.668.59-.709 1.115a1 1 0 0 0 .323.827c.296.28.663.343 1.053.37.391-.247.696-.451.79-.945.065-.339-.019-.592-.212-.869-.233-.335-.56-.451-.95-.483q-.148-.011-.295-.016m54.417.273c-.328.38-.587.71-.566 1.246q.002.055.01.11.009.056.023.11t.035.106.047.102.058.096.068.088.077.08.087.072c.389.283.824.238 1.27.189.31-.357.554-.683.537-1.182a1.02 1.02 0 0 0-.431-.794c-.38-.284-.77-.257-1.215-.223m-59.168.99c-.386.312-.727.582-.754 1.122-.016.333.128.567.355.794.248.246.636.309.965.371.371-.285.694-.601.727-1.101.022-.342-.047-.606-.291-.856-.28-.286-.624-.318-1.002-.33m63.91.145c-.325.361-.552.623-.538 1.138.01.356.123.673.393.919.304.277.682.403 1.093.368q.1-.009.2-.021c.35-.354.638-.766.595-1.293-.028-.337-.16-.657-.433-.867-.437-.336-.796-.29-1.31-.244m-36.134 1.184c-1.611.082-3.236.16-4.838.35q.031 4.733.197 9.464l2.697-.006 4.72-.046q-.128-4.932-.407-9.858c-.779.024-1.599-.001-2.369.095m3.547-.097q-.283 4.92-.201 9.849 3.696.063 7.392.04c.024-3.232-.002-6.475.091-9.707q-3.64-.16-7.282-.182m-36.434.149c-.364.337-.688.643-.696 1.179a.97.97 0 0 0 .378.788c.309.245.701.301 1.084.3.367-.337.707-.69.709-1.225.001-.345-.086-.606-.357-.832-.34-.285-.71-.242-1.118-.21m44.779.153c-.587 3.083-.592 6.461-.762 9.602q3.628.007 7.257-.048c.382-2.93.608-5.878.953-8.813-2.464-.383-4.962-.57-7.448-.741m28.931.08c-.35.357-.646.688-.6 1.228.03.353.135.58.414.805.351.282.679.267 1.099.248.37-.337.673-.638.678-1.18.003-.321-.16-.607-.404-.807-.36-.295-.75-.292-1.187-.293m-47.991.227c-1.996.209-4.008.375-5.99.685q.51 4.288.692 8.602l1.388.015 6.044-.005c-.13-1.379-.669-8.788-.969-9.35a7 7 0 0 0-1.165.053m27.563.645c-.631 2.745-1.13 5.839-1.315 8.653 1.292.004 6.323.247 7.21-.118.478-2.434 1.015-4.873 1.42-7.32q-3.614-.869-7.315-1.215m-34.928.33c-2.225.247-4.448.721-6.624 1.243.146 2.243.379 4.67.845 6.867.263.161.343.151.656.16l6.631.013c-.118-1.061-.751-7.786-1.048-8.285-.153-.003-.308-.016-.46.003m-23.217.31c-.258.283-.524.554-.544.963-.016.307.058.573.286.79.353.334.82.311 1.27.267.248-.305.49-.598.474-1.016a1 1 0 0 0-.422-.792c-.338-.234-.675-.22-1.064-.212m83.21.478c-.367.34-.702.683-.706 1.219-.002.3.148.557.38.738.307.241.678.24 1.05.25.35-.322.646-.64.67-1.142a.93.93 0 0 0-.347-.775c-.301-.258-.669-.281-1.047-.29m-16.67.37c-.543 2.384-1.111 4.764-1.538 7.172q3.787.059 7.574.016c.452-1.753 1.017-3.511 1.403-5.276-2.451-.803-4.893-1.476-7.439-1.911m-51.58.438q-3.56.847-7.085 1.831c.258.964.965 4.193 1.632 4.784l.363.045 6.855-.002c-.231-1.164-.895-6.024-1.437-6.659zm-19.59.714c-.405.313-.742.567-.78 1.121-.022.32.11.59.354.791.33.273.679.272 1.08.269.355-.358.653-.672.665-1.211a.86.86 0 0 0-.353-.732c-.28-.218-.626-.235-.967-.238m92.231.378c-.322.325-.63.62-.576 1.124.036.34.23.549.495.74.317.229.738.27 1.115.275.326-.345.63-.665.595-1.18-.023-.338-.218-.586-.495-.76-.35-.222-.73-.22-1.134-.199m-12.518.8c-.462 1.607-.954 3.21-1.31 4.845q3.371.073 6.743.003c.38-.177.411-.354.553-.754.195-.555.343-1.137.506-1.702-2.118-.97-4.346-1.523-6.492-2.392m-68.794.456c-2.418.843-4.844 1.749-7.203 2.746l.71 1.509 1.45.012 7.143-.008c-.337-.806-1.378-3.807-1.991-4.242zm-15.332.484c-.404.255-.749.492-.83 1.004-.05.31.057.606.266.835.325.355.698.367 1.14.381.332-.19.65-.364.775-.753.092-.288.032-.566-.126-.816-.27-.431-.756-.562-1.225-.651m101.45.516c-.346.34-.66.649-.62 1.18.023.323.206.56.462.74.32.224.677.253 1.055.268.35-.34.609-.655.618-1.168a1 1 0 0 0-.379-.808c-.342-.277-.729-.252-1.135-.212m-9.665 1.181c-.234.73-.48 1.457-.694 2.192 1.45-.023 2.904-.11 4.353-.12l.462-.074a5 5 0 0 0-.273-.038l-.024-.147c-1.303-.543-2.522-1.273-3.824-1.813m-96.534.544c-.39.283-.726.551-.765 1.075-.023.32.119.603.355.813.28.248.616.295.975.319.368-.302.71-.588.765-1.098a.9.9 0 0 0-.335-.802c-.275-.23-.648-.282-.995-.307m11.517.646c-.539.228-1.393.463-1.796.88.223.139.281.112.535.121.552.004 1.292.105 1.786-.156.066-.313.095-.177-.071-.443-.12-.192-.231-.325-.454-.402m99.464.11c-.353.394-.556.723-.561 1.268-.002.215-.006.142.154.325.305-.063.295-.1.508-.303.422-.175.784-.27 1.02-.68v-.248c-.337-.335-.665-.352-1.12-.362m1.145 1.363c-.276.191-.801.457-.911.761l.23.093c.365-.152.717-.265.99-.566l-.066-.203zm3.746 1.442c-.086.322-.29.704-.127 1 .241-.067.42-.149.635-.277l.34-.255-.016-.187c-.294-.168-.505-.223-.832-.281m.992 1.306-.427.454c.037.227-.017.132.169.28l.376-.437c-.024-.247.03-.155-.118-.296m4.441 3.62.018.008.02-.02zm.206.643c-.248.228-.592.488-.612.853a.82.82 0 0 0 .315.73c.271.228.618.271.954.312.276-.276.536-.544.582-.953.042-.373-.08-.494-.287-.772-.341-.195-.576-.183-.952-.17m-184.118.568q4.808 8.26 9.451 16.612c2.46 4.493 4.799 9.084 7.401 13.494 1.756-2.45 3.166-5.159 4.807-7.69q-3.972-.737-7.928-1.551c-.735-1.361-1.438-2.761-2.255-4.073 2.637.664 5.325 1.051 7.982 1.613.949.2 3.24.884 4.064.872.17-.003.208-.029.348-.083.243-.262.285-.304.355-.651-.457-.522-11.888-2.737-13.54-3.072-1.307-2.316-2.438-4.75-3.844-7.004q6.497 1.51 12.964 3.144c2.4.61 4.904 1.462 7.337 1.864.533.088 1.212.173 1.707-.085l.044-.21c-.271-.342-.59-.498-.995-.654-1.605-.617-3.449-.892-5.124-1.32q-4.712-1.253-9.438-2.448c-2.408-.589-4.918-1.056-7.267-1.846-1.028-1.66-2.061-3.389-2.884-5.16l6.56-.028c1.311-.005 2.672-.084 3.974.08 1.955.247 3.983 1.052 5.875 1.601q7.261 2.04 14.4 4.471l.981-.926c-1.944-.859-4.04-1.4-6.074-2.011-3.472-1.043-6.98-2.034-10.405-3.224q25.043.184 50.086.111l73.79-.003 22.767.006c4.813.002 9.642.102 14.449-.128a23 23 0 0 0-2.268-1.665l-108.483.011-43.236-.016c-8.517-.023-17.089-.253-25.601-.03m193.038.116a20 20 0 0 0 1.973 1.6c5.439.111 10.955.203 16.39-.002-3.166 1.765-6.87 2.933-10.27 4.196l1.004.885c2.964-1.01 5.868-2.264 8.776-3.427 1.35-.54 2.816-1.275 4.239-1.56 1.507-.302 4.324-.029 5.993-.019q6.11.033 12.219-.052c-.61.887-1.206 1.77-1.74 2.706-8.196 2.539-16.603 4.349-24.803 6.867l.87.903c4.553-1.324 9.126-2.536 13.703-3.769 3.094-.833 6.197-1.75 9.323-2.45-1.197 2.723-3.032 5.113-4.363 7.76-.366.679-.637.76-1.373.975-4.293 1.25-8.794 1.646-13.179 2.411l.881.963c4.21-.497 8.274-1.575 12.451-2.227-.799 1.443-1.571 2.98-2.528 4.325-2.546.582-5.336.869-7.8 1.705.66 1.425 1.797 2.7 2.718 3.973.754 1.042 1.454 2.132 2.149 3.215 3.226-4.96 5.957-10.327 8.84-15.495l5.349-9.546c.746-1.328 1.572-2.62 2.277-3.97l-27.761.032c-5.096-.005-10.248-.195-15.338.001M188.037 34.4c-1.525.384-4.174 2.21-5.686 3.036-6.371 3.481-12.784 6.93-19.017 10.656.595-.082 1.195-.187 1.791-.24a5.5 5.5 0 0 0 1.406-.449c3.645-1.782 7.138-4.064 10.688-6.044l9.868-5.458c1.007-.56 2.062-1.024 3.053-1.613-.701.036-1.402.067-2.102.112m-19.025.397c-1.612.813-3.81 3.035-5.273 4.256-4.145 3.457-8.269 7.002-12.505 10.345l1.485-.205c.467-.084.754-.24 1.13-.522 2.627-1.969 5.014-4.326 7.543-6.425 2.939-2.44 6.12-4.688 8.919-7.282l.028-.146c-.448-.072-.876-.044-1.327-.021m30.084-.079c-.368.341-.722.701-.731 1.239-.006.345.072.596.327.84.357.34.748.347 1.206.348.406-.352.74-.639.759-1.22a1.06 1.06 0 0 0-.394-.86c-.34-.29-.737-.338-1.167-.347m-55.189.081c-1.714 2.826-3.067 6.02-4.531 8.987-1.11 2.247-2.446 4.507-3.368 6.832l.067.23c.233.127.434.228.692.294.922-1.78 8.043-15.502 7.875-16.159a1.8 1.8 0 0 0-.734-.184m10.921.048c-1.272 1.34-12.978 15.043-13.03 15.61.428.085.816.094 1.252.087 1.12-1.823 2.752-3.484 4.122-5.133 2.916-3.51 5.81-6.996 8.843-10.407-.206-.202-.722-.154-1.015-.16q-.087 0-.172.003m-20.448.289c-.59 3.13-2.647 12.015-2.103 14.575l.169.113.088-.157q1.138-5.2 2.058-10.444c.22-1.23.628-2.646.644-3.887-.254-.19-.551-.176-.856-.2m-67.605.097c1.663 1.764 10.843 6.606 13.52 8.208 1.986 1.189 3.95 2.684 6.008 3.72.594.299 1.406.348 2.065.453-1.683-1.952-19.345-12.154-21.46-12.375-.044-.005-.088-.004-.133-.006m32.804-.054-.403.25c.053.288.002.183.167.416 1.42 2.005 3.169 3.867 4.72 5.776 1.972 2.427 3.841 4.96 5.85 7.352.28.334.687.848 1.065 1.058.232.129.578.14.84.163l.174-.057c-.065-.351-.308-.617-.517-.895-1.857-2.462-3.933-4.814-5.88-7.209-1.01-1.242-4.506-5.935-5.54-6.641a1.5 1.5 0 0 0-.476-.213m10.543.073c.133.582 6.385 15.266 6.482 15.366.056.058.133.09.2.136.265-.013.528-.025.792-.052.12-.773-5.836-14.267-6.615-15.28-.148-.192-.481-.152-.715-.165q-.072-.004-.144-.005m16.408-.052c.019.985.1 6.958.52 7.39l.703.124c.02-1.463.204-6.334-.362-7.335-.304-.142-.532-.156-.86-.18m-41.406.138q5.013 4.452 10.227 8.667c2.049 1.681 4.429 3.304 6.182 5.289.633.04 1.268.091 1.903.098-1.941-2.052-4.927-4.076-7.168-5.923l-6.29-5.196c-1.086-.898-2.177-1.922-3.342-2.712-.279-.19-.36-.22-.694-.229q-.409-.008-.818.006m33.534.045c.507 1.87 2.573 13.217 2.933 13.785l.081-.09c.126-.799.386-1.819.322-2.615-.094-1.156-1.936-10.421-2.334-10.995a6 6 0 0 0-1.002-.085m-64.619.83c-.437.212-.806.385-.97.888a.96.96 0 0 0 .12.853c.258.392.651.518 1.083.625.413-.178.735-.308.908-.764.1-.263.13-.537.024-.804a1.25 1.25 0 0 0-.818-.722c-.123-.036-.216-.05-.347-.077m150.813 3c-.422.28-.695.514-.802 1.037-.084.408.013.793.261 1.121.33.435.693.498 1.21.55.428-.273.743-.513.844-1.044a1.27 1.27 0 0 0-.236-.992c-.334-.468-.746-.572-1.277-.672m-155.873.393c-.29.272-.591.541-.656.957-.047.303.019.587.23.816.319.349.794.384 1.236.39.37-.325.68-.608.68-1.143.001-.324-.17-.6-.424-.79-.32-.24-.684-.237-1.066-.23m132.69.858c-.468 1.743-.087 4.11-.056 5.914q.038 2.517-.124 5.03c-3.49 1.207-7.037 2.234-10.534 3.417-5.81 1.965-11.54 4.16-17.335 6.165q-6.09 2.097-12.129 4.337c-2.077.76-4.239 1.445-6.262 2.338-.515.227-.986.481-1.384.886l-.05.248c.386.188.829.04 1.215-.088 1.504-.494 2.947-1.223 4.434-1.776 3.04-1.13 6.124-2.147 9.189-3.207 1.71-.592 3.41-1.277 5.133-1.825 6.378-2.282 12.742-4.621 19.148-6.824 3.436-1.18 6.957-2.174 10.361-3.437.381-.141.629-.258.907-.556l.062-.249c-.44-.672-1.653-1.004-2.388-1.291.061-.374.077-.89.355-1.16 1.643-.706 3.351-1.264 5.021-1.905l12.91-4.856-.834-.837q-8.602 3.364-17.312 6.438c-.006-1.002.102-6.266-.248-6.694-.022-.027-.053-.045-.08-.068m-3.075 1.143c-.841.468-1.716.91-2.52 1.438-.06 1.554.028 3.125-.092 4.673-3.404.46-6.824.804-10.232 1.231l-19.133 2.412-8.304 1.014c-1.746.207-3.526.34-5.25.688.156 2.006.518 4.005.609 6.01.444.115 41.542-9.205 45.063-10.4.04-2.075.298-4.967-.01-6.941zm-123.649.356-1.037.772c5.844 1.982 11.78 3.706 17.599 5.757-.382.93-1.044 2.116-.634 3.138.35.873 1.382 1.386 2.21 1.706 2.03.784 4.469.83 6.616 1.138q3.61.514 7.14 1.43c2.99.805 5.873 1.988 8.761 3.093q7.013 2.668 13.967 5.487l6.952 2.743c.906.365 1.795.844 2.715 1.16.275.095.507.18.794.099.132-.282.09-.31.05-.604-4.504-1.98-9.088-3.739-13.614-5.661-4.296-1.825-9.454-4.237-13.833-5.551-4.513-1.354-9.287-2.083-13.933-2.84-1.794-.292-6.008-.57-6.796-2.544-.272-.68.041-1.532.356-2.144.394-.764 1.012-1.602 1.186-2.443l-.112-.135c-.465.072-.733.352-1.08.642q-5.853-1.708-11.667-3.55c-1.855-.575-3.747-1.285-5.64-1.693m18.933-.007c.747 1.005 2.524 2.357 2.34 3.693-.18 1.307-1.024 2.938-.5 4.225.317.38.817.446 1.281.534 2.81.528 5.685.797 8.508 1.276 7.974 1.352 15.831 2.971 23.737 4.653 3.592.764 7.28 1.357 10.822 2.309.43-1.933.451-3.916.782-5.86q-20.86-2.55-41.756-4.793c-.03-1.534-.044-2.895-1.214-4.051-.948-.937-2.704-1.707-4-1.986m51.863 1.532c-.997.619-1.277 1.883-1.528 2.966-.6 2.591-.738 5.38-.996 8.024-.624 6.4-1.054 12.741-1.13 19.171-.019 1.486-.183 3.048-.04 4.525.08.822.208 1.686.668 2.387.747 1.139 1.975 1.806 3.29 2.066 1.095.217 2.099.117 3.183-.082 1.385-.533 2.924-1.468 3.548-2.882 1.185-2.688-.448-23.432-1.012-27.016-.3-1.91-.794-3.897-1.545-5.683-.574-1.364-1.476-2.571-2.883-3.155-.508-.211-1.01-.282-1.555-.322m84.143 1.64c-.326.38-.579.706-.504 1.242.052.376.3.662.623.84.36.198.731.181 1.127.15.303-.37.566-.738.504-1.248-.044-.363-.152-.549-.434-.781-.39-.321-.854-.265-1.316-.203m-166.546.324c-.4.449-.639.79-.585 1.422.025.293.143.52.37.71.328.273.664.266 1.065.227.35-.321.701-.695.708-1.204.005-.355-.095-.627-.369-.863-.355-.306-.753-.297-1.189-.292m162.213 1.304-54.114 17.413c-2.762.896-16.126 4.81-17.532 5.858l.08.145c.18-.024.37-.038.548-.074 4.894-1.252 9.699-2.947 14.528-4.433l40.227-12.768c5.71-1.79 11.387-3.734 17.172-5.277-.25-.283-.559-.74-.909-.864M48.28 47.56c-.096.326-.214.464-.065.784 3.053 1.202 7.031 2.095 10.252 3.035l22.327 6.465q7.756 2.31 15.486 4.706c2.72.826 5.466 1.571 8.178 2.426 5.197 1.638 10.375 3.49 15.633 4.914.004-.2.071-.347-.087-.495-.945-.882-4.156-1.526-5.461-1.97q-22.221-7.47-44.778-13.852-7.248-2.165-14.538-4.182c-2.285-.633-4.616-1.393-6.947-1.83m166.35 2.044c-.286.228-.641.466-.722.849-.064.307-.022.57.168.826.281.377.803.485 1.24.53.33-.18.573-.3.71-.68.12-.334.078-.604-.094-.907-.192-.337-.569-.535-.942-.587-.12-.017-.24-.023-.36-.031m-175.526.61c-.334.355-.632.688-.62 1.21a.94.94 0 0 0 .412.746c.35.251.745.24 1.15.224.353-.316.65-.623.647-1.135-.003-.313-.16-.574-.405-.761-.351-.27-.761-.29-1.184-.284m171.463 1.801c-7.849 2.05-75.917 18.159-76.798 18.953l-.005.197c.24.2.275.236.603.208.094-.008.221-.04.316-.061 8.15-2.257 16.464-4.047 24.694-5.997q13.598-3.36 27.245-6.518l16.6-3.928 5.202-1.217c.681-.157 1.415-.241 2.08-.438.382-.113.626-.271.896-.567l.024-.361c-.22-.218-.33-.29-.665-.298-.064-.002-.127.018-.192.027m-166.472.539-.222.652c.138.268.2.235.475.317 2.967.883 6.135 1.383 9.154 2.098q11.477 2.765 23.002 5.319l33.472 7.78c3.411.773 6.816 1.619 10.24 2.325v-.472c-.493-.468-10.501-2.606-11.855-2.93zm176.295 3.2c-.354.357-.642.651-.639 1.194a.95.95 0 0 0 .395.8c.424.333.838.272 1.333.211.354-.324.642-.618.66-1.133a1.01 1.01 0 0 0-.37-.812c-.427-.368-.863-.311-1.379-.26m-185.682.089c-.347.358-.625.669-.616 1.203.006.314.163.59.415.773.306.223.659.209 1.018.197.336-.35.627-.677.635-1.195a.9.9 0 0 0-.399-.767c-.318-.231-.68-.216-1.053-.211m179.506.43L152.781 68.81c-6.291 1.257-12.64 2.274-18.916 3.603.051 3.136.971 7.457-1.452 9.903-1.363 1.377-3.37 1.958-5.27 1.936-1.88-.023-3.97-.72-5.265-2.123-2.181-2.361-1.487-6.944-1.572-9.948-4.371-.752-8.681-1.885-13.038-2.72l-46.23-8.981c-6.649-1.304-13.256-2.806-19.926-4.014q-1.713 2.297-3.326 4.665c1.382.6 4.273 1.893 5.29 2.9l-.096.096c-1.416-.037-4.3-1.58-5.686-2.253-1.27 2.047-2.672 4.088-3.736 6.25 1.79 1.021 3.662 2 5.33 3.211-2.014-.542-3.975-1.3-5.76-2.386a18 18 0 0 1-1.099 1.85c1.441 2.466 2.735 5.012 4.176 7.474q12.614 21.174 24.871 42.556l15.748 27.633c3.6 6.365 7.071 12.845 10.849 19.105l27.935 49.256 7.035 12.512c1.798 3.255 3.537 6.535 5.472 9.713 5.173-8.864 10.097-17.87 15.158-26.8l41.672-73.63 26.042-45.36 10.537-18.168c.97-1.7 2.073-3.356 2.995-5.077a18 18 0 0 0-1.023-1.296c-2.08.834-4.197 1.81-6.42 2.175 1.77-1.338 3.907-2.128 5.825-3.223-1.225-1.842-2.53-3.63-3.688-5.514-1.759.634-5.396 2.282-7.15 2.113l-.116-.117c1.02-1.025 5.017-2.379 6.512-3.007-.973-1.42-2.484-3.929-3.85-4.876zM102.398 58.27c3.578 1.309 7.003 3.095 10.422 4.768 2.423 1.186 4.886 2.285 7.292 3.504.009-.385.075-.767-.159-1.095-2.56-1.506-5.367-2.649-8.03-3.965-1.738-.858-3.546-2.041-5.387-2.618-1.264-.396-2.825-.518-4.138-.593m41.574 1.395c-.598.107-1.2.212-1.78.394-1.259.394-7.512 2.721-8.306 3.32-.129.26-.12.246-.037.525l.135.093c3.395-1.288 6.87-2.62 10.123-4.234l.029-.087zm-112.233.299c-.34.362-.645.703-.6 1.24.028.335.137.597.416.799.316.228.666.234 1.037.206.385-.295.659-.544.702-1.064a1.04 1.04 0 0 0-.31-.834c-.371-.377-.76-.364-1.245-.347m191.841.13c-.367.394-.6.686-.588 1.253.007.352.123.676.388.919.345.317.716.35 1.16.309.362-.301.713-.653.729-1.159.011-.353-.08-.614-.323-.87-.406-.426-.81-.43-1.366-.451m-109.887.12c1.348.984 4.836 3.457 6.33 3.823-.055-.566-.126-.725-.582-1.094-1.625-1.316-3.653-2.447-5.748-2.728m23.763.426c-.984.33-3.034.855-3.659 1.688.03.32.008.387.214.625.356.004.635-.187.94-.349.717-.368 3.264-1.354 3.539-1.938-.35-.124-.674-.064-1.034-.026m89.473 2.527c-.48.839-1.566 2.179-1.5 3.139.18.28.209.313.508.455.24-.05.337-.069.54-.213.65-.808 1.25-1.645 1.848-2.492-.418-.421-.797-.772-1.396-.889M25.365 73.112c-.292.422-.532.77-.428 1.313.058.3.246.534.526.656.312.135.674.064.99-.022.316-.398.564-.721.474-1.26a.8.8 0 0 0-.31-.504c-.333-.272-.852-.239-1.252-.183m205.857 3.485c-.36.354-.653.663-.664 1.203-.006.322.127.598.37.805.417.356.834.303 1.34.264.355-.346.636-.648.602-1.186-.022-.359-.212-.625-.494-.829-.363-.264-.726-.27-1.154-.257M23.484 77.6c-.357.323-.697.618-.726 1.138a.88.88 0 0 0 .349.753c.338.269.763.29 1.175.291.362-.273.699-.518.739-1.013.027-.34-.117-.568-.352-.796-.315-.305-.77-.364-1.185-.373m4.52 2.604c-.405 1.19-.773 2.41-1.228 3.58.918.243 1.833.463 2.764.65.352.092.621.21.982.12-.557-1.417-1.559-3.187-2.519-4.35m205.24 1.379c-.396.27-.746.51-.844 1.02-.064.328.029.615.237.868.336.406.727.46 1.219.507.38-.282.722-.585.76-1.092.025-.358-.177-.702-.444-.924-.248-.208-.616-.315-.928-.38m-211.152.65c-.347.203-.615.376-.762.77a.95.95 0 0 0 .083.87c.214.333.517.499.904.54.117.013.235.015.353.02.327-.212.639-.418.759-.814a.96.96 0 0 0-.129-.85c-.277-.402-.755-.497-1.208-.536m212.923 4.747c-.44.278-.846.55-.961 1.093-.057.268-.027.418.043.674.213.278.36.44.714.522.166.038.394.024.56.025.431-.243.823-.437.927-.973.068-.345-.033-.593-.25-.858-.257-.315-.649-.423-1.033-.483m-214.67.105c-.363.412-.655.742-.6 1.328a.88.88 0 0 0 .254.575c.3.315.81.302 1.207.25.366-.394.66-.681.632-1.257a.84.84 0 0 0-.248-.555c-.322-.339-.811-.343-1.244-.341m-1.223 4.787c-.322.371-.599.717-.542 1.246.034.31.213.551.483.7.355.195.751.16 1.135.091.244-.263.53-.54.555-.922a.93.93 0 0 0-.316-.786c-.354-.327-.862-.343-1.315-.33m216.755.255c-.358.367-.609.65-.556 1.203.034.356.188.57.463.786.367.286.748.248 1.177.192.341-.332.629-.671.63-1.177a.99.99 0 0 0-.408-.797c-.407-.315-.832-.263-1.306-.207m-217.889 4.74c-.304.389-.556.752-.47 1.277.055.33.174.569.467.747.351.215.703.154 1.083.074.286-.456.555-.855.462-1.42a.83.83 0 0 0-.296-.495c-.328-.278-.848-.216-1.246-.183m218.902.372c-.35.347-.604.668-.572 1.19.02.33.197.588.466.771.392.266.776.212 1.214.154.308-.37.548-.7.459-1.215-.056-.326-.262-.562-.537-.727-.317-.19-.67-.195-1.03-.173m-219.435 4.869c-.29.282-.56.538-.605.965-.034.313.04.578.261.807.287.296.72.288 1.097.25l.152-.022c.262-.268.552-.555.598-.948a.83.83 0 0 0-.279-.76c-.336-.307-.8-.279-1.224-.292m220.261-.005c-.307.228-.607.441-.679.845-.053.3.023.617.23.844.308.337.694.38 1.126.387.323-.22.613-.421.738-.813a.9.9 0 0 0-.113-.801c-.2-.307-.565-.426-.91-.451-.13-.01-.262-.01-.392-.011m.64 4.877c-.365.352-.699.638-.672 1.191.016.32.18.566.425.755.303.235.658.298 1.034.319.376-.307.664-.578.718-1.094a.98.98 0 0 0-.298-.833c-.357-.358-.741-.354-1.207-.337m-221.483.233c-.326.373-.592.784-.528 1.306.04.332.15.58.439.768.312.201.676.18 1.026.121.303-.369.573-.701.533-1.213-.026-.341-.187-.554-.45-.757-.285-.218-.676-.236-1.02-.225m-.29 5.01c-.36.36-.63.657-.629 1.201a.98.98 0 0 0 .402.794c.327.251.68.227 1.068.198.33-.347.609-.704.542-1.215-.038-.292-.245-.577-.49-.736-.26-.169-.592-.198-.892-.242m222.166.022c-.31.282-.572.519-.637.954a.9.9 0 0 0 .255.8c.383.408.902.394 1.415.365.35-.306.641-.595.645-1.1.002-.318-.148-.571-.394-.764-.407-.32-.803-.293-1.284-.255m.03 5.12c-.341.382-.623.725-.551 1.275.043.335.155.573.442.766.324.219.66.196 1.026.14.322-.37.586-.697.556-1.222a.95.95 0 0 0-.42-.74c-.314-.225-.683-.232-1.054-.218m-222.413.135c-.355.338-.653.648-.638 1.18.01.324.178.569.435.754.362.26.739.227 1.156.206.307-.379.602-.742.551-1.265-.03-.314-.206-.555-.473-.716-.31-.186-.682-.174-1.03-.159m222.604 4.854c-.409.26-.775.485-.871 1.001-.062.338.048.61.261.865.296.356.732.404 1.16.431.375-.267.726-.513.797-1.01.046-.326-.082-.617-.31-.846-.282-.283-.658-.371-1.037-.44m-222.352.119c-.41.335-.736.589-.75 1.165-.007.335.13.592.39.798.305.242.651.254 1.024.263.382-.283.697-.536.732-1.053.022-.334-.113-.577-.34-.809-.273-.282-.681-.349-1.056-.364m.387 5.12c-.407.275-.807.521-.85 1.063-.024.308.12.576.347.775.286.25.655.333 1.024.373.392-.223.716-.417.817-.9a.96.96 0 0 0-.237-.841c-.306-.352-.667-.421-1.101-.47m221.389.107c-.291.271-.576.507-.61.933a1.02 1.02 0 0 0 .323.874c.288.288.718.351 1.103.367.373-.343.667-.631.639-1.183-.018-.348-.18-.569-.45-.773-.28-.213-.667-.24-1.006-.218m-220.77 4.889c-.414.339-.746.6-.794 1.174a.9.9 0 0 0 .34.819c.298.24.7.28 1.069.278.402-.283.708-.523.752-1.059a1.03 1.03 0 0 0-.33-.851c-.301-.294-.636-.34-1.037-.362m220.228.013c-.359.323-.693.615-.689 1.144.003.334.153.585.409.786.302.238.671.323 1.05.335.39-.318.711-.586.74-1.133.018-.338-.106-.597-.358-.818-.352-.31-.714-.315-1.153-.314m-219.512 5.02c-.379.32-.695.59-.693 1.134 0 .337.143.588.391.802.267.23.61.316.955.344.388-.32.76-.622.795-1.167.021-.33-.052-.594-.307-.82-.332-.294-.728-.29-1.141-.293m218.493-.016c-.34.364-.599.671-.562 1.206.022.326.186.611.455.797.333.23.708.227 1.091.177.285-.228.552-.441.647-.814a.96.96 0 0 0-.167-.833c-.284-.39-.731-.523-1.19-.534q-.137-.002-.274 0m-217.326 4.862c-.406.283-.791.566-.86 1.1-.045.343.007.61.254.866.325.336.698.35 1.13.363.414-.28.764-.53.838-1.067a.98.98 0 0 0-.278-.84c-.294-.309-.673-.389-1.084-.422m216.25.155c-.262.256-.532.49-.554.884-.018.34.068.607.304.851.325.337.77.399 1.216.363.355-.326.655-.63.675-1.147a.88.88 0 0 0-.379-.769c-.391-.288-.814-.236-1.262-.182m-215.192 4.725c-.328.355-.628.708-.58 1.23.033.345.145.57.433.772.35.246.712.21 1.11.171.316-.359.605-.684.569-1.2-.022-.319-.205-.572-.465-.747-.317-.213-.7-.22-1.067-.226m214.314-.012c-.413.31-.73.553-.768 1.112q-.033.489.325.823c.295.278.676.359 1.068.373.38-.335.692-.666.707-1.205.01-.342-.125-.563-.37-.786-.249-.227-.643-.273-.962-.317m-212.91 4.891c-.361.32-.68.598-.668 1.129.007.334.176.591.429.794.281.225.579.248.925.29.4-.27.713-.541.775-1.052.038-.319-.089-.611-.315-.832-.332-.323-.718-.322-1.147-.329m211.13-.001c-.344.369-.605.673-.577 1.214a.9.9 0 0 0 .434.75c.313.2.663.183 1.016.138.386-.345.67-.599.681-1.154a.83.83 0 0 0-.218-.572c-.332-.39-.871-.387-1.337-.376m-209.215 4.631c-.399.297-.726.55-.76 1.093-.023.361.11.588.367.827.283.263.714.304 1.08.312.318-.227.616-.428.72-.833a1 1 0 0 0-.166-.88c-.234-.332-.666-.49-1.052-.515q-.095-.004-.189-.004m207.448.254c-.282.33-.555.633-.526 1.1.018.296.078.514.302.727.303.287.706.287 1.092.273.353-.354.66-.71.635-1.24a.85.85 0 0 0-.234-.57c-.328-.36-.828-.322-1.27-.29m-205.567 4.592c-.297.247-.633.475-.71.877-.06.316.015.585.208.84.269.352.838.432 1.241.426.382-.26.71-.51.761-1.013a.95.95 0 0 0-.32-.81c-.357-.33-.73-.326-1.18-.32m203.854.007c-.392.338-.722.605-.734 1.166a.97.97 0 0 0 .377.789c.29.239.66.281 1.021.298.375-.307.691-.622.728-1.135a.98.98 0 0 0-.321-.794c-.308-.285-.672-.315-1.07-.324m-201.49 4.383c-.45.271-.828.483-.942 1.04a.8.8 0 0 0 .098.571c.205.356.654.487 1.032.54q.093.012.187.019c.332-.178.695-.357.856-.722.121-.277.128-.552-.023-.818-.238-.42-.77-.554-1.208-.63m199.483.137c-.386.323-.719.592-.728 1.141-.007.35.155.581.415.794.264.217.652.233.98.24.368-.319.66-.613.679-1.138a.97.97 0 0 0-.38-.791c-.268-.209-.638-.243-.966-.246m-197.527 4.374c-.31.325-.593.623-.57 1.106.015.289.084.507.302.714.332.316.733.289 1.156.267.33-.31.63-.644.646-1.126a.91.91 0 0 0-.378-.751c-.355-.274-.74-.235-1.156-.21m195.03.25c-.34.415-.587.77-.542 1.332.02.238.097.462.278.631.296.276.659.315 1.04.26q.078-.013.154-.03c.34-.351.662-.695.65-1.224-.008-.314-.178-.576-.432-.751-.343-.237-.748-.23-1.147-.219M32.5 174.862c-.357.323-.669.596-.674 1.122-.002.321.14.568.392.762.365.28.735.269 1.166.25.351-.363.624-.723.604-1.256a.91.91 0 0 0-.417-.749c-.332-.22-.698-.18-1.07-.129m190.232.212c-.372.39-.638.689-.607 1.264a.96.96 0 0 0 .425.777c.273.184.656.228.975.189.374-.372.682-.685.653-1.256-.018-.338-.182-.59-.461-.773-.294-.194-.644-.21-.985-.201m-187.362 4.133c-.419.284-.775.54-.879 1.073a.92.92 0 0 0 .204.808c.281.328.653.395 1.06.426.424-.261.79-.523.883-1.048a.96.96 0 0 0-.267-.846c-.26-.272-.641-.363-1.001-.413m184.868.256c-.39.31-.776.603-.807 1.146-.02.327.144.599.388.8.284.235.635.297.99.345.39-.27.76-.548.821-1.06.037-.303-.096-.585-.31-.793-.289-.28-.7-.37-1.083-.438m-2.903 4.008c-.379.271-.654.485-.747.97-.054.284-.025.563.136.809.242.368.572.502.995.533q.087.004.175.005c.362-.333.725-.687.748-1.213.013-.322-.14-.564-.371-.772-.239-.214-.63-.27-.935-.332m-178.981.16c-.346.227-.65.413-.775.83-.09.297-.066.608.109.868.247.365.605.525 1.035.58.057.007.114.009.172.014.364-.211.638-.374.79-.788a1.02 1.02 0 0 0-.133-.892c-.302-.41-.71-.538-1.198-.613m175.788 4.112c-.368.362-.66.645-.642 1.202.01.3.122.529.37.702.333.232.687.211 1.07.162.333-.313.65-.623.662-1.116a.86.86 0 0 0-.376-.727c-.322-.237-.703-.238-1.084-.224m-172.576.25c-.3.317-.575.618-.55 1.087.014.279.084.475.286.68.316.318.804.313 1.217.263.357-.369.643-.675.605-1.227a.78.78 0 0 0-.259-.525c-.353-.336-.85-.304-1.299-.278m169.565 3.334c-.407.313-.73.561-.767 1.117-.022.346.12.633.371.861.254.23.573.301.9.373.394-.267.729-.516.78-1.033a1.08 1.08 0 0 0-.301-.83c-.249-.27-.632-.413-.983-.488m-166.148.659c-.379.322-.728.587-.727 1.136.001.353.168.578.426.799.265.226.646.265.976.314.375-.319.69-.593.73-1.123a.94.94 0 0 0-.34-.815c-.315-.27-.669-.303-1.065-.311m162.65 3.25c-.302.31-.532.55-.521 1.019.007.293.093.546.31.75.273.256.631.337.995.308q.057-.006.112-.016c.354-.312.64-.58.655-1.092a.92.92 0 0 0-.375-.779c-.359-.269-.761-.24-1.176-.19m-158.763.626c-.44.213-.846.408-.992.92a.92.92 0 0 0 .182.847c.268.334.656.44 1.053.523.439-.221.813-.425.942-.945.076-.306-.007-.593-.198-.837-.26-.333-.595-.418-.987-.508m155.39 2.863c-.33.357-.656.7-.615 1.228.03.375.143.573.439.803.247.192.59.21.889.228.361-.348.652-.632.645-1.177-.005-.342-.145-.595-.408-.803-.282-.224-.599-.27-.95-.28m-151.599 1.01c-.365.346-.706.67-.694 1.218.008.319.09.564.35.766.345.267.727.233 1.13.197.361-.283.636-.523.676-1.02a1.04 1.04 0 0 0-.313-.833c-.348-.353-.695-.35-1.149-.328m147.578 2.457c-.302.409-.57.786-.502 1.325.042.335.14.56.425.758.385.268.756.214 1.189.158.315-.342.58-.67.546-1.167-.023-.33-.216-.617-.477-.808-.371-.271-.744-.279-1.181-.266m-143.61 1.376c-.389.315-.714.58-.746 1.124-.02.347.107.587.337.835.227.245.59.33.901.401.4-.237.721-.466.81-.965a1.13 1.13 0 0 0-.227-.877c-.282-.36-.653-.448-1.075-.518m139.932 1.915c-.314.205-.6.388-.72.771a.97.97 0 0 0 .131.868c.298.44.65.54 1.142.637.377-.286.721-.555.789-1.06.042-.315-.085-.597-.313-.812-.28-.264-.662-.337-1.029-.404m-135.839 1.468c-.364.332-.652.629-.676 1.157a1.05 1.05 0 0 0 .344.813c.272.253.647.322 1.004.352.38-.292.694-.55.734-1.067.025-.327-.119-.628-.35-.85-.298-.287-.657-.364-1.056-.405m131.624 1.655c-.332.334-.577.587-.578 1.088-.002.348.128.64.392.867.278.24.577.292.933.336.374-.338.712-.69.722-1.228.007-.341-.077-.609-.349-.833-.327-.27-.725-.252-1.12-.23M64.869 209.97c-.38.27-.679.487-.773.975-.056.287-.015.555.148.801.28.424.689.543 1.163.617.4-.304.735-.577.779-1.12.027-.34-.035-.624-.272-.882-.287-.312-.644-.365-1.044-.39m123.522 1.514c-.346.368-.648.744-.593 1.282.033.331.146.584.431.773.285.187.632.173.956.131.371-.295.705-.584.745-1.095.025-.319-.114-.595-.354-.798-.36-.304-.745-.297-1.185-.293m-118.894 1.359c-.426.266-.798.492-.941 1.009a1 1 0 0 0 .145.852c.23.337.565.466.94.569.467-.208.757-.399.913-.912q.146-.48-.1-.917c-.227-.402-.542-.507-.957-.601m114.844 1.388c-.372.34-.718.647-.728 1.194a.92.92 0 0 0 .389.758c.344.255.758.246 1.162.23.389-.375.68-.684.67-1.253-.005-.292-.174-.557-.412-.722-.32-.22-.71-.21-1.08-.207m-110.69 1.378c-.407.257-.79.48-.898.986-.055.263-.061.48.086.72.258.417.746.487 1.19.526.389-.237.74-.454.84-.935.059-.286.047-.514-.111-.772-.232-.377-.707-.467-1.108-.525m106.43 1.101c-.345.392-.602.707-.563 1.262.022.31.18.6.445.773.287.19.636.17.966.181.352-.36.65-.68.6-1.227-.031-.357-.259-.634-.56-.811-.255-.151-.597-.169-.888-.178m-102.35 1.276c-.373.322-.692.597-.707 1.133-.01.327.135.595.391.794.283.219.638.245.983.255.386-.319.688-.583.712-1.124a.9.9 0 0 0-.355-.779c-.302-.25-.65-.277-1.025-.28m97.992.971c-.311.33-.606.633-.582 1.123.013.279.08.472.283.677.303.306.72.302 1.118.312.354-.31.634-.62.64-1.12a.96.96 0 0 0-.382-.771c-.323-.254-.693-.239-1.077-.22m-93.737 1.263c-.381.371-.654.657-.64 1.228a.96.96 0 0 0 .398.784c.337.253.68.244 1.078.206.365-.308.685-.601.727-1.113a.94.94 0 0 0-.35-.808c-.363-.313-.765-.307-1.213-.297m89.4.63c-.354.372-.626.674-.618 1.223a.92.92 0 0 0 .396.773c.285.211.642.228.983.216.347-.358.623-.651.595-1.189-.019-.351-.176-.562-.447-.77-.259-.2-.596-.226-.91-.254m-84.37 1.231c-.44.26-.86.502-.973 1.048-.07.333-.035.602.186.872.23.28.565.382.905.454.426-.24.804-.528.928-1.03.077-.314.074-.595-.115-.871-.224-.329-.562-.412-.93-.473m79.965.651c-.408.232-.726.424-.873.9-.088.282-.078.564.06.828a1.1 1.1 0 0 0 .7.546c.16.045.38.04.541.048.409-.287.743-.565.802-1.095a1.04 1.04 0 0 0-.304-.838c-.255-.26-.582-.32-.925-.389m-75.127 1.105c-.417.252-.776.517-.9 1.018q-.014.053-.021.107-.008.053-.009.108-.002.054.002.108.005.054.015.107.01.054.026.106t.037.102.047.097.059.092c.246.342.64.435 1.029.502.435-.229.74-.459.858-.964q.013-.057.02-.115.006-.058.007-.117 0-.059-.005-.117-.006-.058-.017-.116-.012-.057-.03-.113-.017-.055-.04-.109-.024-.054-.052-.105-.03-.05-.064-.098c-.233-.328-.589-.421-.962-.493m70.139.519c-.38.34-.695.612-.75 1.154-.033.332.055.615.298.849.349.335.727.353 1.176.347.374-.315.711-.624.741-1.151.02-.34-.055-.609-.302-.854-.337-.337-.722-.345-1.163-.345m-65.623 1.096c-.329.393-.591.747-.534 1.288.033.307.206.551.46.72.35.232.728.19 1.123.157.314-.353.555-.66.5-1.167-.035-.325-.22-.57-.48-.751-.316-.22-.695-.25-1.069-.246m60.764.42c-.361.361-.692.684-.665 1.239.015.306.178.56.437.72.365.224.774.18 1.175.126.363-.349.644-.62.637-1.16a.8.8 0 0 0-.216-.54c-.36-.4-.873-.406-1.368-.385m-55.97.85c-.397.45-.676.822-.638 1.45q.025.42.347.692c.284.24.626.268.98.261.416-.372.667-.64.701-1.226.019-.335-.067-.645-.316-.884-.317-.305-.668-.319-1.073-.293m51.558.231c-.387.374-.672.689-.72 1.248-.028.31.06.611.285.834.232.23.583.305.9.317.406-.28.766-.595.833-1.117.043-.33 0-.615-.22-.878-.297-.357-.653-.379-1.078-.404m-46.491.865c-.362.346-.682.642-.702 1.182a.94.94 0 0 0 .36.786c.289.24.662.273 1.021.29.346-.286.707-.56.715-1.056.005-.329-.167-.573-.41-.774-.283-.236-.633-.338-.984-.428m41.735.417c-.373.33-.694.651-.677 1.188.01.31.193.593.442.767.28.196.613.2.94.231.36-.272.674-.543.716-1.031.027-.32-.11-.593-.344-.803-.308-.278-.681-.33-1.077-.352m-37.118.486c-.331.352-.607.68-.563 1.202a.98.98 0 0 0 .44.72c.257.168.584.18.88.205.355-.301.66-.577.68-1.083.012-.321-.129-.581-.375-.781-.315-.256-.675-.268-1.062-.264m32.358.361c-.363.302-.709.603-.724 1.118-.01.333.072.585.333.806.27.228.613.252.95.256.337-.272.659-.536.698-1.001a.94.94 0 0 0-.228-.736c-.266-.304-.655-.36-1.029-.443"/><path d="M130.364 79.362a4.07 4.07 0 0 1-1.976 1.168c-1.225.318-2.635.186-3.71-.513-.75-.486-1.23-1.243-1.391-2.119-.398-2.164-.105-4.757-.066-6.961.132-7.346.085-14.953 1.182-22.218.204-1.348.434-2.855 1.192-4.013.026.024.055.045.078.071 1.036 1.208-.265 22.793-.3 26.16.63-.864 1.492-1.677 2.588-1.858.674-.112 1.326.071 1.877.467 1.04.75 1.553 2.08 1.73 3.308.304 2.111.102 4.76-1.204 6.508m-5.407-4.097c.205.815.532 1.736 1.3 2.184.557.325 1.247.321 1.849.134.465-.145.894-.405 1.315-.645.336-.273.624-.466.77-.892-.05-.187-.027-.28-.204-.391-.995-.63-3.825-.438-5.03-.39"/><path d="m161.032 162.55-.132.046c-.615.417-1.125.992-1.635 1.53-3.293 3.479-5.208 8.1-6.106 12.751-.962 4.983-1.65 11.701-1.257 16.78-.353.586-.71 1.167-1.011 1.783-.677-7.091.59-16.314 1.32-23.476.206-2.025.775-4.16.742-6.185-1.862 6.799-3.484 13.653-3.616 20.738a99 99 0 0 0 .098 6.052c.06 1.4.278 2.95.087 4.33-.154 1.118-.927 2.237-1.52 3.176-.28-5.246.43-10.454.517-15.692.036-2.215-.213-4.44-.418-6.644-.296-3.191-.612-6.382-1.163-9.54-.22 4.89-.079 9.867-.11 14.767-.027 4.099-.22 8.188-.326 12.284-.05 1.982.284 4.043.12 6.004-.032.386-.118.844-.378 1.147a.86.86 0 0 1-.738.3c-.147-.014-.143-.01-.22-.14-1.063-1.808.06-13.17.098-15.92.037-2.629-.033-5.321-.283-7.94-.393-4.119-1.755-6.491-2.856-10.224-.456-1.544-.529-3.125-1.23-4.58 2.081-1.979 3.325-2.21 5.98-2.776-2.602-.283-4.352-.676-6.762-1.709 2.822.122 5.88.644 8.61-.232.224-.38.386-.552.385-1-.698-1.222-3.197-.912-3.601-1.914.447-.552 1.688-.751 2.362-.86-.574-.228-1.191-.443-1.712-.78-3.38-2.184-3.091-5.601-8.26-7.538-1.788-.67-3.785-.898-5.665-.519-.418.085-2.212.757-2.445.723-.058-.008-.216-.252-.218-.257-1.006-1.72-.046-8.04.772-9.993.392-.938.989-1.989 1.965-2.407a1.85 1.85 0 0 1 1.46-.022c.58.238.98.764 1.181 1.345.525 1.514-.035 3.223-.752 4.582-.971 1.843-2.375 3.33-3.62 4.975 2.557-1.19 4.908-3.032 5.889-5.762.4-1.114.511-2.233.55-3.408 7.54.013 15.083.478 22.614-.18-1.707-.199-3.41-.133-5.123-.198-5.806-.22-11.7-.261-17.504.033-.46-1.153-1.157-2.512-2.356-3.025-.877-.376-1.957-.258-2.815.115-1.502.654-2.391 2.154-2.93 3.634-1.107 3.04-.853 6.238-.918 9.407-1.186-4.423-2.192-9.908-6.53-12.387-1.25-.714-2.678-1.073-4.09-.643-1.127.343-2.07 1.12-2.582 2.184-.791 1.647-.641 3.66-.016 5.329 1.76 4.698 7.957 7.65 8.903 12.325-.31.486-.983 1.295-1.04 1.87-.025.24.258.812.189 1.01-.144.416-.882.668-1.083 1.188-.526 1.364-.755 2.828-1.1 4.244-.446 1.838-.978 3.653-1.318 5.515q-3.126-.097-6.236-.432c1.957.745 3.951 1.354 6.03 1.643-.28 1.604-.521 3.227-1 4.786-.812 2.644-2.835 6.465-4.251 8.901.482-2.731.8-5.509 1.406-8.215-2.481 4.796-2.015 9.67-3.798 14.492.248-2.228.145-4.502.166-6.742.032-3.579.275-7.02 1.009-10.529-.801 1.51-1.252 3.245-1.664 4.9-.731 2.941-1.21 6.049-1.33 9.076-.083 2.072.066 4.15.103 6.222.042 2.335-.043 4.65-.16 6.98-.072 1.4-.038 2.875-.239 4.259-.334-.653-.737-1.315-.823-2.052-.178-1.518-.071-3.136-.06-4.665.025-3.238.128-6.482.135-9.718.006-3.576-.504-7.156-.308-10.735.112-2.062.538-4.062 1.001-6.066-.667 1.26-1.105 2.68-1.49 4.049-1.525 5.407-.962 10.278-.698 15.756.08 1.648.027 3.3.067 4.949.04 1.702.182 3.401.237 5.103-.521-.99-1.261-2.111-1.47-3.214-.207-1.094-.165-2.278-.197-3.389-.084-2.947.007-5.894-.073-8.838-.11-4.048-.689-8.057-1.049-12.085-.188-2.108-.109-4.262-.37-6.355-.44 3.056-.903 6.186-.46 9.266-1.841-4.296-3.228-7.953-6.992-10.982 1.056 1.436 2.031 2.882 2.801 4.497 3.145 6.59 5.058 17.796 4.679 25.199-1.78-1.874-1.596-5.077-2.093-7.495-.458-2.234-1.157-4.532-2.41-6.457.683 2.887 1.055 5.659 1.439 8.59-.633-1.019-1.27-2.008-1.654-3.153-.387-1.155-.496-2.497-.69-3.699-.55-3.405-1.127-6.653-.993-10.12-.743 3.417-.932 7.129-.264 10.572-1.416-1.584-2.35-3.745-3.39-5.589l-6.249-11.181-13.274-23.2c-2.504-4.365-5.287-8.829-7.495-13.326l2.826-.022c.29-.745.618-1.497.855-2.26-1.61.014-3.213.025-4.82.132-.403-.7-.824-1.395-1.166-2.127 2.248-.03 4.608-.182 6.838.103.433-.76.877-1.501 1.368-2.227-2.704-.187-6.998-.251-9.666.012a28 28 0 0 1-1.225-2.371c3.843.488 7.892-.262 11.706.36.471-.745.943-1.483 1.353-2.263l-14.244-.024c-.468-.765-.936-1.52-1.326-2.329 5.715.01 11.441.08 17.154-.025.422-.679.822-1.374 1.35-1.976-6.505-.003-13.044.163-19.545.059a21 21 0 0 1-1.233-2.09c7.397.005 14.833.177 22.225-.004l1.668-2.094c-8.406-.124-16.814.009-25.22-.085a23 23 0 0 1-1.42-2.168l28.672-.042c.605-.609 1.182-1.213 1.712-1.89-3.068-.357-6.265-.17-9.354-.167l-16.055.017-6.17-.004c-.403-.704-.834-1.4-1.147-2.15l22.412-.044c4.022-.021 8.886-.282 12.813.019.679-.588 1.443-1.166 2.049-1.826 1.08-6.45.256-12.807-3.62-18.215q-.152-.215-.31-.426-.159-.211-.322-.418-.164-.207-.332-.41t-.342-.402q-.173-.199-.352-.393-.178-.195-.36-.385-.183-.19-.371-.376-.188-.185-.38-.366-.192-.18-.388-.357-.197-.176-.397-.347-.201-.171-.406-.338-.205-.165-.414-.327-.209-.16-.421-.317-.213-.156-.43-.306-.216-.151-.436-.297-.22-.145-.444-.285t-.45-.274-.458-.263-.464-.252-.47-.24q-.236-.117-.475-.228-.239-.112-.48-.218-.242-.105-.487-.205-.244-.099-.49-.193-.248-.093-.496-.18-.25-.088-.5-.169-.251-.081-.504-.157-.253-.074-.508-.143-.254-.07-.51-.132-.257-.062-.514-.119-.258-.056-.517-.106-.26-.05-.52-.093-.246-.043-.495-.079-.248-.035-.496-.065-.25-.03-.499-.054-.25-.023-.5-.04t-.5-.03-.501-.015-.502-.004q-.25.002-.5.01-.251.007-.502.02-.25.015-.5.035t-.499.046-.498.06q-.248.032-.496.07-.247.04-.494.084-.246.045-.492.096-.245.051-.49.108-.244.058-.486.12-.242.064-.483.133-.241.07-.48.145-.24.075-.477.156t-.472.168-.468.18-.463.192-.458.203-.453.215-.448.225-.442.237-.435.248-.43.258q-.213.133-.423.27t-.416.28q-.206.142-.409.29c-4.819 3.486-7.803 8.408-8.724 14.28q-.277 1.767-.313 3.556c-.981-1.781-1.858-3.706-2.961-5.406q.06-.296.127-.59.066-.295.14-.588t.155-.584q.081-.29.17-.58.087-.288.182-.575.096-.287.198-.571t.21-.566.226-.56q.115-.28.238-.556t.252-.549q.129-.272.264-.542.136-.27.279-.537.142-.266.29-.529.15-.262.305-.522.155-.259.316-.514t.329-.507.341-.498.353-.49.365-.481.377-.472.388-.463.399-.454.41-.443.42-.434q.214-.214.432-.423t.441-.412.451-.402.461-.39.47-.38q.238-.186.48-.367.242-.18.488-.356.246-.174.496-.344.25-.165.504-.323.253-.159.51-.311.258-.153.52-.298.26-.146.525-.285.265-.14.533-.273.268-.132.54-.258.27-.126.545-.246.275-.119.552-.231t.557-.218.563-.204.567-.19.572-.175.576-.162.58-.147.583-.132q.293-.063.587-.118t.589-.103.592-.089.593-.074.596-.059.596-.044.598-.03q.299-.01.598-.014t.598 0 .598.015q.3.011.598.03.299.019.596.045.298.026.596.06.297.034.593.075.297.04.592.089t.589.104.587.118q.299.064.596.135.298.07.594.149t.59.163q.293.086.585.179.291.093.58.192.29.1.576.207.287.107.57.221.284.114.565.236.281.12.559.249.278.127.552.262.275.135.547.276.27.142.538.29t.532.303.524.316.516.329.507.341.5.354.49.366.48.378.472.39.462.401.452.413.44.424q.219.215.431.434.213.22.42.446.207.224.409.454t.398.466.385.475.374.484.362.493.35.502q.171.254.337.511c3.24 5.004 4.374 10.24 4.196 16.144l.15-.076c1.437-.74 2.758-1.7 4.153-2.515 2.117-1.236 4.387-2.352 6.63-3.341 12.402-5.474 27.088-6.05 39.998-2.02 5.15 1.608 10.283 4.046 14.845 6.923-.12-7.228 1.527-13.696 6.687-19.025q.216-.218.437-.432.221-.213.447-.421.227-.209.458-.411.232-.203.468-.4.236-.196.477-.387.24-.191.486-.376.245-.185.495-.364.25-.18.504-.353.254-.172.512-.34.259-.166.521-.327.262-.16.528-.314t.536-.302.543-.288.55-.275q.276-.134.556-.262.28-.127.563-.248.282-.12.568-.234t.574-.22.579-.207q.29-.1.584-.192.293-.093.588-.178.296-.086.593-.164t.596-.15q.3-.07.6-.134.301-.064.603-.12t.606-.105q.303-.05.608-.091.304-.042.61-.076t.612-.061.613-.046q.306-.02.614-.031.307-.012.614-.016c6.415-.083 12.955 2.44 17.537 6.952 4.814 4.741 6.985 10.193 7.486 16.864-1.132 1.82-2.32 3.595-3.39 5.454.644-6.87-.304-12.747-4.845-18.21-3.606-4.34-8.577-7.073-14.212-7.585q-.27-.025-.54-.044t-.54-.03q-.271-.013-.542-.018-.27-.005-.541-.004-.271.002-.542.01-.27.008-.541.023-.27.015-.54.036-.27.022-.54.05-.269.028-.537.063-.269.035-.537.077-.267.041-.534.09-.266.048-.531.102-.266.055-.53.117-.263.06-.525.129-.262.067-.523.142-.26.074-.519.155-.258.08-.515.168-.256.087-.51.18-.255.094-.506.194-.252.1-.501.205-.25.106-.496.218-.247.112-.49.23-.244.118-.485.242-.24.125-.478.255t-.472.266-.465.278q-.23.141-.458.288-.227.148-.45.3-.224.154-.444.312-.22.159-.435.322-.215.164-.427.333-.212.17-.419.344-.196.165-.388.336-.192.17-.38.346-.187.175-.37.355-.184.18-.363.365-.179.184-.353.372-.174.19-.344.382-.169.193-.334.39t-.324.398-.315.406q-.154.205-.304.414t-.294.421q-.145.212-.284.428t-.273.435-.262.442-.251.448-.24.454q-.118.228-.229.46-.111.231-.217.465t-.206.471-.194.475-.182.48q-.089.242-.17.485-.083.243-.159.489-.076.245-.146.492t-.134.496-.122.499-.11.502-.096.504-.085.507q-.039.254-.072.508-.033.255-.06.51-.026.256-.046.512c-.185 2.245.001 4.372.514 6.561 1.25.967 2.493 1.932 3.69 2.963 2.959.105 5.921.02 8.88.012l17.85.002c3.22 0 6.468-.104 9.684.003a59 59 0 0 1-1.274 2.3q-8.058-.123-16.117-.133c-5.578-.051-11.174-.147-16.75-.002.708.741 1.42 1.468 2.167 2.169l18.686-.003c3.542.002 7.199-.187 10.72.16-.356.645-.721 1.287-1.06 1.94-8.876-.067-17.774.153-26.644-.07.648.75 1.319 1.459 2.025 2.154 7.776.131 15.551-.034 23.325.07-.338.697-.66 1.413-1.03 2.093-6.941-.067-13.887.025-20.825-.188a20 20 0 0 0 1.604 2.157c5.928.233 11.91-.194 17.823.164-.31.671-.63 1.308-1.019 1.938-5.124-.025-10.26-.114-15.384-.038.378.745.789 1.44 1.249 2.138l12.825.02c-.34.658-.662 1.349-1.047 1.98-3.564.075-7.166-.07-10.72.126.36.728.773 1.388 1.229 2.06 2.694 0 5.391-.024 8.083.088-.281.626-.56 1.243-.9 1.841l-6.305.015c.304.767.607 1.529.958 2.275 1.288-.006 2.593-.055 3.878.035-.331.66-.642 1.353-1.027 1.981-.675.054-1.421.04-2.05.307l-.098.207c.327.635 1.084.956.896 1.724-.335.308-.558.406-1 .443-1.721.145-3.537.013-5.267.006l-9.479-.002q-17.096-.154-34.19.19l.332.077.046-.179.075.149c1.66.355 4.507.135 6.314.135l13.673-.02q6.853-.038 13.706.038c5.041.077 10.07.233 15.114.113-.855 1.737-1.841 3.403-2.808 5.079-1.988-.363-4.015-.73-5.964-1.268-7.054 2.076-14.482 4.132-21.831 4.615-.66.043-4.783.247-4.859.383l.52.029-.212-.052c.988.274 3.334.095 4.477.124q12.732.218 25.465.113-8.106 14.898-16.45 29.664c-2.68.722-5.357 1.555-8.073 2.131 2.343-.035 4.674-.184 7.018-.134-2.448 4.168-4.702 8.446-7.119 12.632-.447.775-1.035 2.204-1.592 2.797-.376-.328-.38-1.177-.41-1.66-.393-6.237.494-12.992 3.304-18.625.99-1.986 2.226-3.724 3.382-5.601zl.064-.175zm-19.581-45.776c.03.359.13.36.375.605.11.216.04.145.172.246l.167.18.122.262.066.058-.066-.058-.122-.262-.167-.18-.172-.246c-.106-.273-.11-.458-.375-.605m.944 1.477.028.102c.302.736.65 1.317.359 2.12-.21.123-.254.157-.507.101-1.31-.29-3.217-2.907-4.388-2.502l-.03.203c.742.472 1.236-.239 1.562.872 1.107.891 2.192 1.805 3.485 2.418.729.347 1.503.591 2.233.931.38.178.768.494 1.161.622.444.144.902.07 1.364.25.454.176 1.121.725 1.584.689l.06-.123a6 6 0 0 0-.618-.425c.127-.301.105-.233.374-.356 2.067.165 10.24 3.84 11.604 5.355.05.252.126.336.001.57-.25-.091-.41-.207-.618-.365a2.5 2.5 0 0 0-.745-.402c-.695-.26-1.28-.564-2.032-.613l-.208-.103-.063-.07.063.07.208.103c.61.487.99.95 1.313 1.662-.928-1.004-1.878-1.82-3.128-2.404l-.082-.078-.225-.168.225.168.082.078.16.18c.434.472.998.678 1.368 1.224l-.048.139c-.602-.2-1.002-.63-1.624-.788l-.062-.068.063.068q.095.117.184.239c.149.208.236.223.19.492-.738-.2-1.075-.88-1.91-.996l-.153-.071c-.096-.083-.229-.149-.338-.216l-.123-.139-.144-.074-.094-.236-.175-.06.175.06.094.236.144.074.124.14c.106.07.22.162.337.215l.153.07c.418.338.845.668 1.25 1.02-.537-.13-1.117-.328-1.664-.38l.076-.159c-.105-.354-.361-.429-.659-.63l-.056.12c.11.333.37.455.639.669l-.163-.027c-2.974-.512-7.898-4.33-9.448-4.244-1.521.086-3.23 1.187-4.5 1.984l-.086.17c.219-.013.424-.038.64-.078.214.234.282.63.257.956-.004.053-.028.103-.042.154l-.064-.1c-.162-.248-.283-.432-.536-.598l-.238.06-.122.227.121.152c.117.148.224.296.329.453l-.137.175c-.34-.125-.732-.877-.943-.866-.022.409-.044.524.142.902.71.545 1.604.204 2.28.69.62.445.994 1.531 1.424 1.803.212.132 14.714.217 16.047-.009.18-.03.21-.048.36-.102l-.124-.005.2-.154c.166.126.267.188.48.225.993.172 6.5.245 7.16-.193-.197-.435-1.01-.753-1.362-1.18-.075-.41.005-.44.211-.785-.364-.516-1.304-.515-1.52-1.022l.555-.258.02-.197c-.746-.692-1.656-1.228-2.507-1.785-3.591-2.351-7.498-3.947-11.158-6.138-2.102-1.258-3.863-3.123-5.814-4.605-.36 1.935-.6 3.768-.608 5.74-.55-.445-1.172-.751-1.795-1.077zm-6.9 2.501.045.212.366.23.093.03-.093-.03c-.15-.266-.123-.298-.411-.442m-37.196 1.688-.404.324-.02.214c.311-.16.28-.234.424-.538l.053-.053zm18.984.06.217.125c.126.133.234.259.388.361l.111.109-.111-.109c-.135-.219-.174-.24-.388-.361zm-1.137.108c.181.287.504.418.792.59l.082.073.149.137.08.064-.08-.064-.148-.138-.083-.073a2.7 2.7 0 0 0-.388-.463c-.19-.18-.166-.133-.404-.126m-1.877.731.231.161.124.1-.124-.1zm1.606.296.125.115c.133.103.267.22.41.31l.077.033-.076-.033c-.127-.12-.27-.21-.411-.31zm11.7-.226c-.225-.025-.453-.04-.68-.058.419.466 2.07.918 2.696 1.186l.033.087-.033-.087c.187-.085.37-.059.565-.033l.248.035.15-.132c-.667-.56-2.145-.778-2.978-.998m-17.677 1.216.17.177.181.05-.182-.05zm24.478.376.185.009c.167.225.313.435.44.686.11.213.211.43.332.637.382.656.945 1.015 1.667 1.205-.825-.671-1.522-2.12-2.439-2.528zm-25.376.103c.054.08.163.103.25.146l.124.093-.124-.093zm24.006-.41 1.156.863.087.038-.087-.038-.181-.538c-.326-.287-.552-.262-.975-.326m-36.21 1.69-.027.096za4.6 4.6 0 0 0 .704-.046l.106-.16c-.028-.008-.055-.02-.084-.023-.359-.049-.427.04-.726.229m58.974-.124.055.161.174.056-.174-.056zm-4.894.628.197.048.252.267.233.081.066.079-.066-.079-.233-.081-.252-.267zm-43.374.249.132.12.065.302c-.519.337-4.77-.294-5.641-.37-.552-.049-1.25-.178-1.696.194-.01.226-.017.465-.058.688-.098.537-.481.763-.9 1.048-.18-.041-.36-.087-.543-.106-.846-.087-1.37.458-1.964.959 2.778.108 5.573-.036 8.353-.035q9.629.093 19.256-.048c4.706-.043 9.493.374 14.179-.066l.069-.153c-.744-.41-1.68-.148-2.435-.468q-.082-.037-.163-.076c-.517-.364-.988-.789-1.507-1.15-2.166-1.511-13.62-5.567-16.035-5.135l-.059.1c.34.224.957.531 1.365.475.395-.054.582-.064.94.136l-.052.139q-.418.034-.833.093c.125.339.744.639 1.053.85-.845-.165-1.624-.322-2.383-.755-.182-.104-.073-.079-.306-.058.837.71 2.457 1.218 3.04 1.685-.401.349-1.26.405-1.773.636.476.051.934-.115 1.404.025-.08.076-.14.144-.245.193-.716.336-1.778-.383-2.483-.582-2.288.592-4.485-.28-6.817-.018l.075.153-.102.13c-1.571.107-2.644 1.284-3.804 1.213zm44.359 26.958c-.913.088-2.639.567-3.325 1.194l-.062.111-.311.063c.45.673 1.726 1.23 2.367 2.183.225.335.548 1.72.725 1.755.034.006.305-.028.32-.03 1.13-.1 2.457.543 3.512.321-.868-.404-3.46-.456-3.953-.923.223-.3.792-.438 1.15-.495.156-.024.316-.028.473-.036q.565-.037 1.13-.068c.643.006 2.14.187 2.682-.101l-.165-.022c-.485-.071-.969-.16-1.46-.183-.652-.03-3.186.243-3.543-.148.367-.339 1.398-.09 1.537-.382-.658-.137-1.403-.029-2.072.031l-.13-.111c-.349-.302-.597-.546-.832-.942l.008-.293c.475-.371 1.1-.192 1.63-.41l-.035.135-.183-.317c-1.008.026-1.882.734-2.759.065-.034-.026-.06-.061-.091-.092l.062-.11c.99-.16 2.487-.666 3.325-1.195l.138-.067zm-2.879 6.267-.367.167.003.213c.632.543 2.107 1.001 2.948 1.03l.058.072-.058-.072c-.81-.46-1.837-.57-2.577-1.153zl.142-.091zm-23.626-70.039c-15.843.696-29.089 7.854-39.671 19.475-4.57 5.02-7.716 10.918-10.694 16.962q4.157-.067 8.314-.041c1.945 0 3.991.138 5.905-.232 1.573-.304 2.784-.874 4.249-1.42.587-.219 1.299-.268 1.796-.664-.346-.77-1.667-1.138-1.334-2.178.393-.345 2.883-2.004 3.22-1.999l.1.161q-.156.222-.31.445c.245.029.117.024.383.007-.03.138-.09.287-.117.418-.015.074-.016.15-.024.225l.104.034c.395-.314.666-.73 1.179-.679.733.459.572 1.213 1.583 1.388.225.274.266.316.311.663-.453.57-1.28.557-1.963.653.136.244.456.246.57.444a1.26 1.26 0 0 1-.565.167q-.323.035-.644.072l.21.056.41.11c.518.14.842.468 1.211.837 3.784.104 7.99-1.981 11.407-3.43 1.221-.518 2.514-1.145 3.826-1.377 2.546-.45 6.752 2.19 9.417 1.582 3.489-.796 6.676-2.567 9.844-4.158 2.18-1.145 4.47-2.237 6.58-3.497 1.252-.747 2.367-1.71 3.684-2.345 2.334 1.047 4.11 3.194 6.257 4.592 3.901 2.541 8.298 4.209 12.144 6.878.731.508 2.226 2.246 3.027 2.11l.349-.3.224.276c.302-.082.488-.257.722-.452l.031-.147c-.796-.184-1.809.174-2.482-.374-.096-.269-.114-.274-.021-.54l.299-.138a3 3 0 0 0-.164-.65l.1-.224c.707-.225.563-.405.754-.5.045-.022.096.028.144.042.332.093.59.179.938.116l.202-.132c-.2-.402-.87-.488-.655-1.002.103-.247.249-.432.5-.547.234-.106.552-.097.804-.09.33-.21.636-.52 1.026-.443.493.47.988.927 1.42 1.455a3.2 3.2 0 0 1-.29.716c.548.6 1.237.88 1.679 1.58l.113.172.066.107c-.452.302-.918.591-1.336.94 2.823.836 3.895-1.273 6.257-.946 1.232.17 2.41 1.718 3.664 1.466l.233-.234c-.511-1.687-1.739-3.405-2.61-4.94q-.53-.945-1.095-1.87t-1.162-1.83q-.596-.904-1.225-1.787-.628-.883-1.287-1.743t-1.347-1.697q-.69-.836-1.407-1.648t-1.464-1.598-1.52-1.545q-.773-.76-1.572-1.491-.8-.731-1.624-1.434t-1.674-1.377-1.72-1.316q-.873-.643-1.767-1.255t-1.81-1.193q-.915-.58-1.85-1.127-.935-.548-1.889-1.062c-8.133-4.345-18.696-7.214-27.962-6.497m12.953 28.46.034.27.149.014-.052-.3zm-.552.54c-.21.314-.386.443-.346.826l.078.064c.194-.24.46-.435.442-.748zm-1.782.88.5.423.16-.02c-.222-.312-.286-.292-.66-.403m2.488.167.057.038zm-3.218 1.442h.163zm-40.822 1.18.146.131c.152.141.272.278.399.44l.32-.166.053-.31c-.288-.177-.595-.115-.918-.094m73.29-.024-.07.331c.236.079.31.082.548.064l.179-.306c-.25-.133-.38-.093-.657-.089m-54.788.594h.136zm-1.266.376h.152zm-15.763.13-.106.377c.34.32.924.245 1.377.255-.156-.34-.51-.381-.85-.506-.283-.104-.161-.068-.42-.127m73.139.452.09.1-.057-.103zm-51.495.043h.146zm13.363-.082c.814.401 1.501 1.58 2.414 1.413-.452-.44-.916-.872-1.355-1.325zm-13.12.207h.153zm12.003 0h.15zm.387-.104.811.776.206-.043c-.112-.288-.15-.407-.442-.567-.158-.086-.398-.123-.575-.166m-13.77.555c.234.187.203.234.52.222l-.261-.284c-.087.017-.181.02-.26.062m2.63.049h.153zm.315.124h.213zm19.115.081.121.125.095-.02-.133-.129zm30.263.011.09.117.047-.015.007-.167zm.7.012-.076.181.233-.033.093-.219zm-54.805-.08c.193.212.453.582.764.586.13.002.237-.02.363-.041-.385-.282-.663-.428-1.127-.544m21.194.24c.083.31.055.505.34.677l.173-.076c-.095-.347-.09-.378-.415-.559-.031-.017-.065-.028-.098-.042m39.935.048c-1.775.618-3.498 1.823-5.45 1.675-.153.396-.106.674.061 1.05.156.353.304.553.226.955l-.132.02-.283-.273c-.204.161-.175.246-.237.49l.088.258c.324.136 1.603.111 2.072.172 1.317.032 2.639.087 3.957.054.775-.526 2.553-1.502 2.828-2.361-.249-.758-1.46-1.479-2.151-1.835-.323-.166-.618-.204-.979-.205m-7.794.273.113.105zm-31.35-.056c.017.41.008.565.336.835.326.268.729.516 1.106.704-.114-.556-.212-.974-.67-1.347zm-30.323.222h.153zm27.101-.091c.343.478.912.855 1.461 1.058-.25-.522-.45-.742-1-.942-.162-.06-.29-.09-.461-.116m23.179.966h.123zm1.428.343.12.096zm22.414-.196c-.055.107-.246.39-.254.492-.033.444.336 1.04-.229 1.315l-.18-.082.011.11c-.733.127-1.426.176-1.987.71l-.022.269.159.122c.247-.032.67-.166.868-.021l3.453-.002c-.44-1.022-1-2.135-1.819-2.913m-85.29.286.077.038zm-.826.139-.023.134.151-.038.08-.153zm2.123-.073h.15zm-2.783.182c-.177.247-.195.337-.511.39-.998.17-4.265-.067-5.463-.084q-3.72-.058-7.44-.07c-1.84-.01-3.81.127-5.616-.262l-1.123 2.541 3.337.003c2.254-.003 18.91.188 19.79-.254l-.007-.256c-.607-.242-1.494-.139-1.996-.597-.374-.341-.462-1.221-.971-1.411m4.807-.055c.277.192.44.383.803.322.135-.023.353-.156.466-.214l-.148-.197c-.38.013-.745.042-1.121.09m37.677.051.174.045zm2.185-.052h.138zm-.713.22.108.12.08-.02-.1-.117zm30.205.254.106.203.123-.021-.098-.207zm-27.403.19.129.126.138-.072c-.088-.022-.178-.074-.267-.055m28.51.085h.104zm-32.988.133c.21.026.325.078.522-.011l-.244-.115zm30.675.123-.048.216.118.098.065-.256zm-29.512.052.066.038zm.65.137.11.187.165-.07-.136-.155zm2.57.305h.144zm-1.372.358.04.28.227.005-.083-.302zm29.978-.008-.18.279c.078.001.159.015.234-.006l.086-.31zm-2.072-.127-.325.393c.292-.028.16.006.397-.087l.341-.012a1.15 1.15 0 0 0-.413-.294m2.582.256-.083.198h.28l-.013-.19zm-29.57.079.103.038zm37.214.218.005.18.402-.072-.02-.204zm-74.145 1.725c-2.923.006-12.185-.259-14.31.321 1.705.294 3.709.11 5.45.112l10.832-.007 8.575.003c1.868 0 3.765.072 5.625-.105l.09-.111.195.046-.004-.014-.11-.032c-.051.03-.098.072-.155.093-.04.015-.086.007-.129.012l-.071-.148c-5.278-.332-10.7-.321-15.988-.17m23.17.177-.644.114.4.063.364.058.083-.101zm2.017.074c.56.097 1.476.29 1.994.004-.532-.214-1.423-.069-1.994-.004m-35.623 3.872c-5.259.065-10.606.203-15.839.745 3.367.374 7.004.138 10.4.106 3.267-.065 6.52-.255 9.782-.401 1.877-.084 3.927.021 5.765-.34-3.373-.135-6.733-.107-10.108-.11m10.311 5.38c-2.541.059-6.593-.03-9.023.35 2.953.227 5.925.23 8.885.24 2.983.002 6.33.206 9.252-.354-2.988-.185-6.127-.464-9.114-.237m-15.937 5.36c-2.55.14-5.146.189-7.683.46 3 .372 6.006.433 9.025.517 5.324.147 10.718.144 16.036-.137 2.48-.08 4.988-.117 7.459-.334l.025-.058c-1.873-.318-4.027-.118-5.95-.193-6.273-.243-12.633-.49-18.912-.255m76.625 2.386c-1.308.017-11.052.163-11.437.495 2.44.424 6.115.192 8.655.195 3.885.007 7.814.05 11.685-.308-2.956-.333-5.93-.395-8.903-.382m-59.117 6.369c-4.797.153-9.718.083-14.49.57.919.409 14.252.297 16.23.266 4.962-.013 9.969.02 14.92-.34-2.883-.71-13.237-.706-16.66-.496m46.465.872-.134.168c.07.042.132.098.208.126.104.038 7.447-.1 8.264-.116l.227-.07c-.57-.34-7.5-.214-8.565-.108m-.222 3.882c-.455.014-.854.036-1.293.159l-.067.142c.846.007 1.71.005 2.55.111.308.069.568.165.88.093-.588-.26-1.424-.493-2.07-.505"/><path d="m106.02 107.896-.057.153c.148.292.24.246.537.351.063.303.011.366.267.563.19-.126.354-.258.522-.41q.077.026.156.05c.529.147 1.126-.354 1.68-.282.499.064.779.924 1.337 1.002-.182-.488-.841-.611-.892-1.105.52-.382 1.7-.349 2.35-.253.317.046.415.058.638.278l-.035.55.17.161.245-.067c.058-.212.082-.4.096-.62.341.121.384.196.618.48l-.18.163.09.086.13-.062-.04-.187c.349.094.607.172.894.397.866.674 3.351-.214 3.707.705.164-.16.081-.072.247-.267.522-.101.782-.098 1.258.146.214-.15.277-.233.419-.442.251.03.27.034.461.17.345-.182.49-.335.896-.218.233.067.477.21.696.317l.08-.067c-.473-.481-1.112-.875-1.808-.895-.378-.01-.638.179-.986.272-.93.246-2.82.12-3.526-.554-.164-.157-.113-.102-.102-.351.773-.477 1.778-.409 2.63-.907.963-.564 3.498-3.069 4.356-3.06.332.462.16 1.181.069 1.715-.107.626-.236 1.61-.716 2.05l.283.349-.026.152-.337.145c.162.19.494.159.739.178.601.049 1.462-.065 2.007.172-.338.245-2.016.477-2.034.734-.02.27.09.529.174.782.042-.228.047-.596.24-.733.324-.228.79-.232 1.164-.149.199.045.338.15.496.27l.088.275c-.236.43-.833.226-.83.66l-.197.274-.218.012c-.434.027-.85.147-1.282.191-.85.086-1.742.022-2.594-.007-.643-.023-.523-.517-1.087.032-.41-.087-.77-.244-1.154-.41l-.105.143.13.26-.201.099-.172-.148a1.15 1.15 0 0 0-.457-.261c-1.054.951.499.977-2.15.841l-.384-.02-.08-.103a6 6 0 0 0-.285-.33 2.4 2.4 0 0 0-.448.396c-.543.034-.99-.18-1.521-.211-1.316-.079-2.996-.07-4.285.102l-.182.315c-.284.075-.326.078-.584-.102-.09-.062-.23-.193-.316-.27-.369.178-.167.401-.619.487a18 18 0 0 0-.808-.437l-.386.256c-.506-.132-.547-.285-.865-.685q-.006.093-.016.186c-.035.276-.008.173-.175.421q-.463-.003-.926.011c.028.221.13.317.258.494-.443.269-1.087.355-1.593.479-1.658.404-3.044.46-4.713.092-.702-.156-1.523-.382-2.247-.31l-.15-.152.15.152c-.186.144-.18.175-.426.197-.52.043-.708.22-1.198-.029l-.09-.13-.25-.148-.19-.155-.118-.1.118.1.19.154.25.149.09.13-.106.372c-.232.097-.18.13-.388.051-.348-.132-.568-.453-.842-.694.018.372.05.57-.207.865-.219.252-.495.385-.816.455l-.427-.242-.203.133-.355.003.003.201.007-.033c.065.03.129.063.195.09 1.36.574 4.695.363 6.315.466.844.055 1.646.274 2.495.239.578.282.974.837 1.441 1.267-.334-.487-1.02-1.06-1.179-1.596.076-.154.069-.24.247-.298.26-.085.462-.014.721.04l.306.238.105.135-.105-.135c.029-.114.099-.23.15-.337 1.028-.19 1.706-1.1 2.707-1.331 1.277-.294 3.028.016 4.363-.032.92-.034 1.833-.221 2.755-.273.755-.041 1.513.03 2.268-.003.385-.017.8-.123 1.182-.091.553.046.656.11 1.007.503l.022-.055a1.1 1.1 0 0 1 .445-.276c.497-.156 1.315-.295 1.787-.04.27.144.371.234.44.528a1 1 0 0 1-.35.378c-.707.45-2.102.898-2.955.728-.039-.171-.054-.356-.154-.502-.038.117-.057.194-.12.307-.689 1.233-3.099.407-4.27.792l-.111.374c-.63.205-1.879-.06-2.572-.118a3.2 3.2 0 0 1-.236.771c-2.082 1.173-10.345.927-12.941.838-.605-.021-.778.02-1.205-.436-.179.117-.343.22-.548.286-.888.288-4.966-.03-5.715-.471q-.092-.058-.183-.118l-.329.208c-.334-.026-.353-.03-.609-.246-.081-.356-.069-.49.107-.815.41-.755 1.044-.966 1.822-1.17l.235-.059c.073-.242.066-.157.074-.383l.002-.145.175-.104c.176.149.269.233.49.308.009-.216-.019-.32.097-.507l.497.207.168-.07q.02-.382.032-.766l.227-.136c.496.225.64.841 1.078 1.175l.206-.135c-.068-.548-.824-.758-.877-1.198-.032-.261.055-.493.218-.697.412-.52 1.151-.755 1.79-.803.631-.048 1.008-.005 1.492.418.067-.185.14-.365.215-.548.392-.209 1.065.08 1.27-.048.201-.128.053-.43.43-.516.367-.085.646-.056.937.157.251.48.493.66.949.937-.277-.4-.556-.652-.949-.936.25-.14.246-.156.523-.1.17.193.325.367.53.522l.174-.113a1.7 1.7 0 0 1-.142-.571c.029-.03.055-.063.088-.088.408-.308 3.642-.896 4.07-.698.273.126.187.302.549.32-.054-.224-.05-.256.004-.498.373-.147.616-.055 1.008.004.508-.423.841-.66 1.504-.802.459-.61 1.806-2.282 2.478-2.515l.245.188c.072-.254.141-.54.335-.733.366-.362 1.367-.959 1.848-.954.146.448-.233 1.085-.318 1.554l.41.195c.047.385-.133.264-.335.528-.295.385-.297 1.202-.597 1.663-.392.603-.845.712-1.5.833-.058-.25-.092-.367-.278-.547zm1.356 1.855.078.037c.191.422.31.551.715.784l.064.052-.064-.052c-.208-.373-.353-.552-.715-.784zm-5.376.152.058.062c.155.212.204.279.442.41l.105.092-.105-.092c-.146-.246-.203-.272-.442-.41zm-1.124-.01c.058.293.24.385.453.585l.084.188.078.062-.079-.062-.083-.188-.227-.529zm.013 1.733.054.188.181.06-.18-.06zm-4.788.375c.055.184.107.163.269.251l.108.123-.108-.123c-.115-.198-.034-.106-.27-.25m4.301 2.624.057.184.135.052c.194.445.495.785.82 1.138-.152-.582-.335-.816-.82-1.138l-.135-.052zm-5.651.5.124.125.303.295.04.08-.04-.08-.303-.295zm27.284-9.687h.151zm-15.81.578.108.129.095-.023-.125-.126zm1.421.046h.114zm12.466.5h.133zm1.689.876h.135zm-17.904 1.124h.116zm.788.126h.126zm6.57.582.017.207c.167.135.33.277.504.403-.162-.292-.187-.513-.521-.61m-11.452.043h.112zm9.362.124h.136zm-2.87.376h.101zm-8.891.004q.337.451.69.888l.14-.015c-.126-.338-.217-.578-.55-.774-.102-.06-.173-.071-.28-.099m1.184-.006c.33.392.603.744 1.06.996-.312-.463-.497-.834-1.06-.996m15.015.228.057.079zm10.004-.102h.135zm-18.748.325.238.154.153-.037-.078-.224zm16.912-.075h.108zm-31.332.472.038.194.106-.006-.078-.189zm24.268-.043.114.04zm-15.126 1 .105.072zm-8.648.197h.128zm6.952.552.145.045zm14.682.934.143.179.08.005-.04-.24zm-23.534.013h.153zm15.213.041c.209.104.112.104.288.056-.22-.1-.123-.106-.288-.056m2.548-.04h.142zm2.902.055.102.04zm1.094-.055h.146zm-21.508.124h.152zm13.552-.127c.179.311.303.694.67.819.092.03.253.038.352.046-.317-.432-.504-.673-1.022-.865m5.026.127h.152zm-5.666.207.151.105zm2.98-.08h.146zm-18.833.328.097.112h.013zm15.135-.028.108.041zm-15.88.79.078.11.025-.004zm18.802.034h.119zm-18.169.183.085.038zm5.943.049-.004.31.15-.026-.004-.29zm-4.36.14.092.171c.308.004.606.005.912.041-.209-.233-.287-.308-.63-.303a1.2 1.2 0 0 0-.374.09m3.297.062.078.037zm2.27-.001.087.037zm5.157.192h.15zm-8.897.362.061.08zm6.74.224.074.105.041-.026-.038-.114zm-2.2-9.803-.06.223-.096.049.096-.05zc.116-.142.233-.298.378-.415.457-.367 1.2-.41 1.754-.333.883.123 3.019.782 3.564 1.48-.349.13-.653.038-1.008-.025l-.175-.032-.748-.185a1.8 1.8 0 0 1-.28-.399l-.075-.151c-.075.2-.066.229-.236.376l-.999-.273c-.053.03-.194.107-.232.148-.552.593-1.38.16-2.149.41-.156.05-.205.008-.361-.035l-.037-.228c.155-.296.17-.323.462-.48zm.645-.034h.113zm35.852 23.259c-1.25-.245-2.53-.19-3.794-.278-2.094-.146-11.265-.842-12.791-1.784l.02-.189.422-.297c1.589.139 3.185-.002 4.776.116 1.914.142 10.127 1.571 11.543 2.418zm31.488-.02c-.252-.027-.501-.077-.751-.122-.291-.254-.306-.332-.427-.704.524.132.865.398 1.178.826m.583.199-.343-.094-.024-.155c.308.086.188 0 .367.25m-4.161-.141.176.268zm4.161.14.11.107zm-37.027 19.769c-2.934-2.167-6.19-4.937-7.968-8.149-.693-1.25-1.508-3.131-1.05-4.562.309-.96.94-1.37 1.805-1.792 1.226-.165 2.32.232 3.285.996 3.975 3.151 4.783 9.713 5.261 14.387-.461-.266-.895-.578-1.333-.88m3.724 1.223c1.059-.802 1.988-1.389 3.292-1.72.964-.096 1.764-.052 2.677.295.9.34 5.537 3.154 5.856 3.871l-.121.186c-.768.15-1.511-.084-2.246-.291-.868-.387-1.63-.996-2.41-1.534-2.475-1.707-4.244-1.094-7.049-.807"/><path d="M130.447 154.494c-.538.056-1.209.217-1.689-.061l.107-.193c1.834-.527 2.874-2.24 4.835-2.712 2.974.036 2.536 2.468 3.837 3.569.25.212.191.136.236.429-.133.426-.348.64-.724.867-1.206.731-2.702 1.144-4.075.79-1.203-.696-1.838-1.52-2.527-2.69m3.5-1.702c-.117.36-.212.525-.134.9.285.207.493.237.832.299.042-.411.124-.6-.083-.966-.203-.082-.405-.17-.615-.233m1.191.403c-.103.367-.229.56-.09.923.21.12.417.243.632.352.044-.342.075-.576-.134-.882-.099-.145-.274-.278-.407-.393m1.445 2.618h.179zm84.496.158-.061-.064zm-79.553 26.553.058.054c.497.861 1.102 1.529 1.389 2.516l-.435.023-.173.228c-.136.799.153 1.505.376 2.263-.796-.751-1.342-1.602-1.917-2.524l.039.118.063.197c.151.456.284.893.375 1.367.157.81.641 2.854.156 3.573l-.248-.038c-.243-.236-.411-.423-.571-.727l-.555-1.045c.224 2.414-.15 4.279-1.036 6.534-.248-.918-.552-1.821-.842-2.727-.19 2.307-.49 4.332-1.245 6.535l-.17-2.34q-.033.17-.068.337c-.19.864-.016 1.46-.107 2.281-.244-.097-.122-.091-.363-.03-.194.579-.363 1.181-.642 1.726l-.15-.019c-.5.733-.742 1.945-1.083 2.792-.09-.982-.118-1.974-.17-2.959-.515 2.785-1.244 5.983.328 8.565-.557.146-1.086.358-1.623.563 1.867.195 3.625.77 5.41 1.33 1.139.357 2.546 1.022 3.078 2.159.167.356.212.762.023 1.122-.198.379-.66.573-1.06.644-1.536.274-2.83-.654-4.031-1.452-6.544.027-12.982 1.14-19.535 1.273-.44-.748-.844-1.512-1.25-2.278 1.433.302 3.018.428 4.48.483 2.709.102 5.452-.415 7.48-2.344 2.052-1.95 2.857-5.083 2.914-7.83.06-2.908-.936-6.014-2.998-8.122-1.87-1.912-4.323-2.849-6.978-2.848-3.266.001-5.765 1.452-8.023 3.717-.475.61-.85 1.236-1.227 1.91.047-1.807.396-3.433.968-5.14l-.216.001-.083-.154c.407-1.276.654-2.67 1.167-3.9.384-.92.964-1.75 1.396-2.649-.186-.106-.617.28-.877.334.645-.936 1.6-2.01 1.996-3.072-.235.122-.348.211-.618.204-.106-1.275 1.672-2.19 1.917-3.283-.208.03-.263.049-.464-.032.545-1.287 1.656-2.355 2.426-3.52l-.051-.149-.518-.087c-.033-.543 1.764-2.103 2.14-2.678l-.058-.133-.49-.036-.011-.138c.624-.689 1.534-1.036 2.367-1.41l-.933-.273c-.09-.26-.14-.529-.196-.798a1.2 1.2 0 0 0-.41-.147l-.15-.023c.038-.597 1.525-1.715 2.009-2.15l-1.855.434.042-.098.072-.162c.396-.903.91-1.722 1.424-2.56q-.817.406-1.644.792c.77-1.234 1.44-2.411 2.592-3.334-.577-.008-1.157.018-1.734.03.774-1.34 1.206-2.204 2.48-3.165-.793.317-1.556.7-2.323 1.072q.054-.122.106-.246c.28-.692 1.175-1.703 1.274-2.267l-.46-.133c.034-.265.069-.368.3-.53.487-.342 1.301-.278 1.854-.22l.155.018c-.418-.139-1.215-.303-1.459-.661.225-.181.305-.23.617-.218.745.031 1.798.823 2.264 1.382 2.256 2.71 6.301 3.742 9.642 4.135 1.181.139 2.402.14 3.563.403l.495 1.185-.349.127c.097.342.375.465.629.696.597.541-.049.459-.016 1.032l.376.26.004.179c-.247-.012-.172.02-.367-.084q-.061-.034-.122-.072c.144.667.647 1.36 1.006 1.937l-.063.143a12 12 0 0 0-.815-.311l-.143.098c.144.59.964 1.257 1.372 1.731.256.298.532.644.503 1.056-.347.213-.675.135-1.076.13l-.027.102c.519.54 1.066 1.093 1.514 1.693.323.434.67.899.587 1.454l-.209.127c-.55.005-1.016-.326-1.488-.58.533.453 1.161.935 1.532 1.537l.085.145c.384.645.489 1.42.64 2.147-.655-.583-1.34-.987-2.108-1.397 1.463 1.589 2.087 2.926 2.617 5.013-.861-.724-1.641-1.514-2.535-2.208.547.819 1.171 1.657 1.587 2.55.243.524.601 1.433.384 2.005a34 34 0 0 0-1.846-1.107zm-16.243-24.335h.152zm80.419 24.514-.06-.054z"/><path d="M143.46 202.52c-.094-.055-.188-.104-.268-.181-.55-.53-.227-10.519-.062-12.014.142.392.205.763.224 1.18.058 1.276.209 10.623.106 11.016m-3.805 5.681c-.18.001-.073.016-.311-.103-.204-.373-.329-.747-.441-1.156-.474-1.722-1.664-6.602-1.199-8.196.516-1.765 1.633-3.372 2.44-5.011.504-1.026.676-2.199 1.237-3.18l.185.166c.235 1.223.16 2.622.202 3.87.09 2.616.171 5.202.53 7.799.135.967 1.072 4.29.986 4.671-.012.056-.037.109-.055.163-.714.815-2.554.87-3.574.977m-26.183.822c-.816-1.536-2.113-2.988-2.409-4.725-.457-2.689.156-5.65 1.788-7.847 1.56-2.1 3.763-3.158 6.305-3.536.648-.082 1.351-.061 2.002-.008 2.337.191 4.676 1.226 6.198 3.044 1.87 2.233 2.388 5.476 2.1 8.298-.251 2.462-1.273 4.986-3.257 6.552-2.546 2.01-6.01 1.813-9.044 1.465l-1.951-.174a7 7 0 0 1-.35-.559c-.77-1.37-.582-2.897-.162-4.346.476-.262.922-.522 1.349-.859l-.15.077-.252-.316c-.707.278-1.32.54-1.945.982-.136.65-.179 1.292-.222 1.952m-51.531-15.815.046-.06zm5.884 5.188.05-.114zm59.148 17.556.448.11c.227.054.48.136.714.145.455.019.718-.235 1.043-.507.048.022.1.036.143.066.244.165.405.41.7.52.805.296 1.632.05 2.271.75.193.492.185.959-.014 1.454-.41 1.02-1.934.3-2.728.71-.356.182-.519.497-.637.86-.285.885-.29 7.076.059 7.741.337-.056.435-.513.734-.735l.273.34.178-.154c.178-.511.016-1.22-.138-1.734a1.2 1.2 0 0 0-.24.465 3 3 0 0 1-.15.436l-.053-.063c.047-.753.196-1.423.388-2.151l.002.103c.396-1.534.79-3.06 1.284-4.567-.112 1.337-.345 2.668-.48 4.003-.347 3.398-.401 4.283-2.42 7.178.13-.868.332-1.73.51-2.59q-.043-.097-.088-.193c-1.364-2.799.092-7.227-.568-8.445-.461 0-.902.23-1.331.391-.03 1.893-.188 4.535.1 6.355.165 1.041.623 1.963.745 3.042l.026.238.05.37-.126.056c-.038-.032-.079-.06-.114-.096-1.46-1.462-.984-3.284-.975-5.105-.223.904-.487 1.8-.737 2.696.057-2.538.777-4.974.802-7.54l-1.547.1c-.235 1.833-.008 3.673-.173 5.498-.029.314-.05.714-.302.92-.375-.393-.426-1.724-.566-2.313-.367-1.532-1.787-2.98-1.924-4.535.444.35 1.985 3.544 2.344 4.24q.16-1.88.264-3.764c-.246-.381-.553-.726-.843-1.076-1.7-.037-3.507-.256-5.18-.563-.527-.873-.839-1.876-1.351-2.774.829.342 1.633.664 2.51.867.83.193 3.363.418 4.129.174.36-.114.08-.462.603-.522 1.135-.13 1.293.277 2.365-.4m10.315 2.481.057-.184zm-.115.102.115-.102zm-2.978 1.044c-.764 1.818-2.681 5.8-2.393 7.61.347-.19 1.924-3.463 2.237-3.989.883-1.489 1.87-3.144 2.972-4.473l.162-.192c-1.359 3.423-3.36 6.717-5.154 9.93-.684 1.224-1.398 2.862-2.323 3.902.304-1.395 1.064-2.782 1.475-4.166.298-1.001.384-2.025.516-3.056.276-2.167 1.302-3.782 2.508-5.566m-14.849-.517-.07-.063z"/><path d="M119.346 219.064c.672.759 3.394 4.68 3.898 5.585.466.835.587 2.32 1.203 2.965.308.013.515-.046.752.165.442 1.47.997 2.96 1.352 4.447q-2.575-4.337-4.985-8.767c-.765-1.416-1.656-2.887-2.22-4.395m8.383 8.536-.11.017-.08-.199.135-.022zm-1.179 4.627.06.147zm3.045.328.1-.186zm-.126.259.126-.26zm-.064.06.064-.06z"/></svg>