<svg xmlns="http://www.w3.org/2000/svg" viewBox="0 0 256 256"><path d="M122.393 0h12.214l.123.02c2.458.384 5.022.37 7.504.63 4.394.462 8.81 1.269 13.12 2.226q1.402.308 2.796.648t2.78.71 2.763.772 2.746.834 2.726.895 2.706.956 2.683 1.016 2.66 1.077 2.635 1.135 2.609 1.194 2.582 1.252 2.553 1.31 2.523 1.366 2.492 1.423 2.459 1.478q1.221.752 2.426 1.532 1.204.78 2.39 1.587t2.355 1.64q1.168.832 2.318 1.691 1.149.86 2.279 1.744t2.239 1.794 2.199 1.843 2.156 1.893q1.069.958 2.114 1.94 1.047.982 2.07 1.987 1.024 1.005 2.025 2.033 1.002 1.028 1.98 2.077.977 1.05 1.932 2.122.954 1.071 1.884 2.164t1.835 2.206 1.785 2.246 1.735 2.285q1.655 2.262 3.212 4.591t3.016 4.723 2.813 4.846 2.605 4.96 2.393 5.067 2.176 5.163 1.956 5.25q.923 2.647 1.732 5.33c1.2 3.912 2.318 7.948 3.025 11.983.648 3.686 1.22 7.421 1.578 11.146.193 2.02.278 5.8.705 7.533v11.146l-.02.116c-.415 2.473-.39 5.102-.65 7.606q-.778 7.13-2.29 14.142-.31 1.422-.653 2.837-.34 1.414-.714 2.82-.373 1.407-.78 2.804-.405 1.398-.843 2.786t-.907 2.765-.969 2.744-1.031 2.721-1.093 2.697-1.154 2.672-1.215 2.645-1.274 2.616-1.334 2.587-1.392 2.555-1.45 2.524q-.739 1.253-1.507 2.49-.767 1.236-1.563 2.454t-1.619 2.419-1.673 2.38-1.727 2.343-1.78 2.302-1.831 2.262-1.883 2.219-1.933 2.176-1.981 2.131-2.03 2.086q-1.026 1.03-2.077 2.038t-2.122 1.992-2.167 1.942-2.21 1.892q-1.117.934-2.254 1.842t-2.295 1.79-2.335 1.737q-1.487 1.081-3.006 2.118-1.518 1.038-3.066 2.031t-3.123 1.941-3.178 1.85q-1.603.903-3.23 1.758-1.628.856-3.28 1.664-1.652.809-3.326 1.569t-3.37 1.472q-1.696.711-3.411 1.374-1.716.662-3.45 1.275t-3.484 1.175-3.518 1.075q-1.766.51-3.546.97-1.781.462-3.574.87-1.793.41-3.597.764-1.804.358-3.617.663-5.11.905-10.282 1.32c-1.962.17-4.204.122-6.116.515h-10.39c-2.237-.452-4.74-.385-7.027-.583q-5.485-.51-10.912-1.454-1.868-.335-3.725-.725t-3.701-.838-3.674-.948q-1.83-.502-3.645-1.06-1.813-.558-3.61-1.17t-3.573-1.278-3.532-1.386-3.49-1.492-3.442-1.597-3.393-1.7-3.34-1.802-3.283-1.903-3.224-2.001-3.163-2.098-3.097-2.192-3.03-2.285q-.895-.694-1.777-1.402-.883-.71-1.753-1.433t-1.727-1.464-1.702-1.493q-.844-.755-1.675-1.523-.831-.77-1.649-1.553-.817-.783-1.62-1.58-.804-.798-1.593-1.61-.79-.81-1.565-1.636t-1.535-1.664-1.506-1.69-1.476-1.716q-.731-.865-1.447-1.743-.715-.877-1.415-1.767t-1.384-1.791-1.353-1.816-1.32-1.839-1.288-1.862-1.256-1.884-1.222-1.906-1.189-1.927-1.154-1.947q-.57-.979-1.12-1.968-.552-.988-1.086-1.987-.535-.998-1.051-2.005-.517-1.007-1.016-2.023t-.98-2.041-.944-2.058-.908-2.074-.871-2.09-.835-2.105q-.408-1.055-.798-2.118-1.945-5.474-3.433-11.089-1.49-5.615-2.512-11.333-.798-4.39-1.147-8.84c-.175-2.178-.24-4.392-.512-6.56v-12.04c.465-1.89.444-5.148.628-7.207.3-3.362.816-6.722 1.399-10.046 3.192-18.189 11.662-37.335 22.607-52.156q.86-1.181 1.745-2.342t1.798-2.301 1.85-2.26 1.901-2.216q.963-1.098 1.952-2.173.988-1.075 2-2.127t2.049-2.081 2.096-2.034 2.142-1.985 2.186-1.935 2.23-1.885 2.273-1.834 2.315-1.78q1.167-.878 2.354-1.728t2.393-1.674 2.431-1.618 2.467-1.562 2.503-1.505q1.26-.739 2.536-1.448 1.276-.71 2.568-1.39t2.6-1.33 2.63-1.27 2.657-1.21 2.685-1.148q1.349-.56 2.71-1.087 1.362-.529 2.735-1.025 1.373-.497 2.757-.962t2.779-.899 2.798-.835 2.817-.77 2.833-.706 2.85-.641A126 126 0 0 1 115.281.587c2.31-.226 4.705-.208 6.988-.567zm.433 6.073q-1.486.066-2.97.168-1.483.102-2.964.24-1.48.139-2.958.313-1.477.175-2.949.385t-2.939.457-2.927.529-2.913.6-2.898.67q-1.444.354-2.88.742t-2.861.811-2.841.881-2.818.95q-1.404.493-2.795 1.02-1.39.525-2.769 1.086-1.377.56-2.74 1.153-1.364.594-2.713 1.22-1.349.628-2.682 1.287-1.333.66-2.65 1.351-1.316.692-2.615 1.416t-2.58 1.48q-1.282.754-2.544 1.54-1.263.787-2.505 1.604-1.243.817-2.465 1.664-1.223.847-2.424 1.723-1.202.877-2.382 1.783t-2.336 1.84-2.292 1.896-2.244 1.952-2.196 2.005q-1.086 1.017-2.146 2.06-1.06 1.042-2.096 2.11-1.035 1.069-2.043 2.161C20.951 64.587 9.348 88.863 6.73 115.166c-.675 6.783-.63 13.717-.307 20.52 1.496 31.476 16.467 61.384 39.69 82.453q.794.73 1.601 1.447.807.716 1.626 1.418.82.702 1.652 1.389t1.676 1.358 1.7 1.329 1.724 1.297 1.747 1.266q.88.626 1.77 1.235t1.791 1.203 1.813 1.17q.912.577 1.834 1.137t1.854 1.105q.931.543 1.873 1.07t1.892 1.037 1.911 1.002 1.928.968q.969.476 1.946.933t1.962.898 1.978.863 1.992.826 2.008.791q1.007.387 2.021.755t2.035.718 2.047.681 2.06.644 2.07.607 2.082.57 2.09.532 2.1.495 2.11.456q1.056.22 2.116.42t2.124.38q3.158.57 6.342.966 3.184.397 6.385.619t6.409.268 6.415-.081l.16-.009c4.655-.102 9.33-.68 13.924-1.411q1.226-.197 2.446-.418 1.222-.22 2.438-.466t2.428-.516q1.21-.27 2.416-.565t2.405-.613 2.392-.661 2.378-.71 2.364-.757q1.177-.39 2.347-.804t2.331-.852 2.313-.899q1.153-.46 2.295-.945 1.143-.484 2.275-.991 1.133-.507 2.255-1.037t2.233-1.082 2.212-1.127 2.188-1.17 2.164-1.215 2.139-1.259 2.113-1.3 2.087-1.344 2.059-1.385 2.03-1.427 2.002-1.467 1.972-1.507 1.941-1.546 1.91-1.585 1.876-1.624q.931-.821 1.845-1.661t1.81-1.698 1.775-1.734q.88-.875 1.74-1.769c23.063-24.14 34.63-55.841 33.801-89.107-.632-25.393-10.682-51.38-26.386-71.22-3.556-4.491-7.555-8.735-11.709-12.68q-1.094-1.032-2.213-2.038t-2.262-1.983-2.31-1.928q-1.168-.949-2.358-1.87-1.19-.92-2.402-1.81-1.213-.892-2.446-1.753t-2.489-1.69q-1.255-.83-2.529-1.63t-2.569-1.567q-1.293-.767-2.606-1.503t-2.642-1.438-2.678-1.374q-1.346-.67-2.71-1.306-1.362-.637-2.74-1.24-1.38-.604-2.772-1.173t-2.799-1.103q-1.406-.535-2.825-1.035t-2.85-.965-2.873-.894-2.893-.824-2.913-.752-2.931-.68-2.947-.608-2.96-.536q-1.484-.25-2.974-.462-1.489-.213-2.983-.39-1.494-.176-2.992-.315-1.498-.14-2.999-.242-1.5-.103-3.004-.169-1.503-.066-3.007-.094-1.504-.03-3.009-.02-1.504.007-3.008.053a21 21 0 0 0-1.247.062"/><path d="M131.214 247.981q-1.665.041-3.33.036t-3.33-.055-3.327-.146-3.322-.238-3.314-.328q-1.655-.186-3.304-.418-1.65-.232-3.291-.508-1.642-.278-3.276-.599-1.635-.322-3.26-.688t-3.238-.776-3.216-.865-3.191-.953-3.164-1.04-3.135-1.125-3.102-1.211-3.068-1.296c-4.81-2.166-9.355-4.715-13.852-7.462-6.527-3.988-12.747-8.445-18.347-13.671-18.883-17.621-31.215-38.48-36.797-63.765-1.459-6.605-2.548-13.148-2.77-19.924q-.039-1.503-.04-3.007t.033-3.007q.036-1.504.108-3.006t.182-3.002.255-2.996q.146-1.497.33-2.99.182-1.492.402-2.98t.475-2.97.549-2.956q.292-1.475.62-2.943.33-1.467.694-2.926.365-1.46.765-2.909.4-1.45.837-2.889t.907-2.867.977-2.844 1.047-2.819 1.116-2.793 1.185-2.764 1.252-2.734 1.32-2.703q.675-1.343 1.384-2.67.71-1.326 1.45-2.634.742-1.309 1.515-2.598.773-1.29 1.578-2.56t1.641-2.52 1.702-2.48 1.763-2.437 1.822-2.392 1.88-2.347 1.938-2.3q.983-1.139 1.993-2.252 1.01-1.114 2.049-2.202 1.01-1.074 2.046-2.122 1.037-1.048 2.099-2.07 1.062-1.023 2.149-2.019 1.087-.995 2.198-1.964 1.112-.968 2.247-1.909 1.136-.94 2.294-1.852t2.338-1.795 2.383-1.737q1.201-.854 2.424-1.677t2.465-1.616 2.505-1.555T69 23.644t2.579-1.429q1.298-.698 2.613-1.364 1.316-.666 2.647-1.3 1.331-.632 2.677-1.232t2.708-1.166 2.736-1.1q1.375-.532 2.762-1.03t2.787-.962 2.81-.892 2.83-.822T99 11.595t2.869-.682 2.884-.61 2.898-.537 2.912-.466q1.458-.215 2.921-.394 1.464-.179 2.931-.321t2.938-.249q1.47-.105 2.943-.175 1.472-.07 2.946-.102c29.983-.827 60.937 10.432 82.997 30.856q2.159 1.96 4.223 4.02t4.029 4.215 3.826 4.399 3.615 4.574c14.286 19.084 23.681 43.804 24.599 67.687.852 22.166-5.974 46.56-17.237 65.612-4.286 7.252-9.358 13.831-15.08 20.004q-.838.904-1.695 1.79-.856.886-1.73 1.755t-1.766 1.719-1.801 1.683-1.835 1.646-1.867 1.608-1.9 1.57-1.932 1.531-1.962 1.492-1.993 1.45-2.02 1.41q-1.018.696-2.05 1.37t-2.078 1.327-2.103 1.284-2.13 1.241-2.154 1.198-2.178 1.153-2.201 1.11-2.223 1.063q-1.117.52-2.245 1.019-1.127.498-2.264.972-1.137.475-2.284.927-1.147.451-2.303.88-1.155.428-2.32.832-1.163.405-2.336.785-1.172.381-2.351.738-1.18.356-2.367.69-1.186.332-2.38.64-1.193.309-2.392.593-1.2.284-2.404.544-1.205.26-2.414.495t-2.424.446q-4.195.67-8.423 1.07-4.23.398-8.475.524M134.885 36.9l.041.071c1.084 1.584 2.148 3.03 3.5 4.405a7 7 0 0 0-.15-1.135c-.331-1.434-2.174-2.575-3.35-3.27zm-1.231 3.246.053.061c.602 1.207 1.619 2.286 2.471 3.328 2.796 3.419 5.625 6.704 9.102 9.455-1.383-3.693-5.629-7.346-8.459-10.016-.982-.928-1.99-2.016-3.114-2.767zm.743 8.49.06.048c2.817 3.968 9.042 8.238 13.091 10.987 1.011.686 2.143 1.624 3.246 2.133l.054.048-.054-.047c-1.443-1.918-14.1-11.826-16.337-13.121zm3.232 7.115.068.18.395.09.021.068c.768.955 1.977 1.745 2.912 2.544 3.442 2.94 6.8 5.974 11.029 7.79l.07.06-.07-.06c-1.705-1.873-11.65-9.287-13.94-10.334l-.022-.067-.395-.09zm55.526 18.633.06.07c.16.765.585 1.597.905 2.318 1.57 3.544 3.663 6.621 6.845 8.927-.649-1.502-2.068-3.047-3.015-4.418-1.54-2.23-2.99-4.764-4.736-6.828zM69.85 66.306c.742 3.313 4.99 8.599 7.473 10.795l.052.114-.052-.114c-.928-2.26-5.755-8.947-7.473-10.794M118 81.65l.058.061c1.077 2.04 3.302 4.466 5.362 5.51-.84-1.901-3.71-4.227-5.362-5.51zm-1.874 2.873.072.073c1.087 1.057 2.306 2.013 3.47 2.986 4.055 3.387 8.335 6.803 13.129 9.077l.077.064-.077-.064c-1.498-1.575-3.525-2.958-5.249-4.278-3.521-2.695-7.285-5.97-11.35-7.785zm-42.817-6.102c1.31 2.434 5.2 5.338 7.627 6.74l.061.064-.06-.064c-.423-.615-1.016-1.168-1.529-1.717-1.916-2.05-3.67-3.585-6.099-5.023m-1.308 7.86.074.062c1.432 1.05 12.349 4.69 14.709 5.332-3.099-2.201-6.461-4.083-9.72-6.038-2.49-1.466-4.934-3.012-7.483-4.376 2.154 3.468 5.742 4.98 9.258 6.666-2.174-.545-4.538-1.352-6.764-1.584zm11.775-1.386c.894 1.825 3.424 3.73 5.14 4.783l.054.048-.055-.048c-.871-1.77-3.4-3.923-5.139-4.783m110.129 6.993.058.065c.247 1.456.68 2.982 1.127 4.391 2 .935 4.05 1.892 6.153 2.569-.826-1.075-2.356-1.797-3.371-2.722-1.421-1.294-2.504-2.93-3.91-4.238zm-75.891.139.056.066c1.604 2.035 4.224 3.218 5.788 5.266-1.437-.644-2.685-.978-4.253-1.168 4.241 2.003 8.644 3.049 13.23 3.888 1.484.354 2.99.643 4.483.96-3.506-1.608-7.29-2.604-10.784-4.219-2.925-1.352-5.548-3.377-8.464-4.727zm45.135.49.063.044c1.344 3.285 4.436 5.781 7.645 7.12.998.416 2.254.93 3.319 1.099l.073.066-.073-.067c-1.743-1.351-3.602-2.566-5.354-3.913-1.855-1.427-3.653-3.023-5.61-4.305zm.018 7.01c1.458 2.034 9.92 4.265 12.524 4.865l.058.077-.058-.077c-1.86-1.767-9.876-4.444-12.524-4.866m79.023 32.74c-2.14-.193-4.289-.017-6.433-.168 2.547 3.589 3.898 5.484 8.086 7.135.602-3.963.554-8.276.534-12.28-.123-24.637-8.699-48.415-23.237-68.187q-.84-1.13-1.705-2.238-.867-1.109-1.759-2.196-.893-1.087-1.811-2.153-.92-1.065-1.864-2.108t-1.913-2.063-1.963-2.016-2.011-1.967-2.058-1.918q-1.04-.947-2.104-1.868-1.063-.922-2.148-1.817t-2.192-1.764-2.234-1.71-2.275-1.656-2.314-1.6-2.352-1.544-2.389-1.486-2.424-1.428-2.458-1.37-2.49-1.309-2.521-1.248-2.551-1.187-2.579-1.125-2.605-1.062q-1.31-.516-2.63-1-1.321-.483-2.654-.934t-2.675-.87q-1.344-.42-2.696-.806t-2.715-.74q-1.361-.354-2.731-.674t-2.747-.608-2.761-.54q-1.384-.255-2.774-.475-1.412-.226-2.83-.417t-2.84-.347q-1.423-.156-2.849-.276-1.425-.12-2.854-.204-1.428-.085-2.858-.133-1.43-.049-2.86-.062-1.431-.013-2.862.01-1.43.022-2.86.08-1.43.06-2.858.153-1.427.095-2.853.224-1.424.13-2.846.295-1.42.166-2.838.366-1.416.2-2.828.437-1.41.236-2.815.507t-2.803.577-2.787.648q-1.39.34-2.77.716t-2.752.786q-1.37.41-2.731.854t-2.709.921q-1.349.478-2.685.99-1.336.511-2.66 1.056-1.323.544-2.632 1.122-1.309.577-2.603 1.187t-2.573 1.252-2.54 1.316-2.508 1.379-2.472 1.441-2.435 1.502q-1.209.767-2.397 1.563-1.189.796-2.358 1.622-1.168.826-2.315 1.68-1.398 1.039-2.764 2.118-1.367 1.078-2.7 2.196-1.335 1.118-2.636 2.274-1.302 1.157-2.568 2.35t-2.5 2.424q-1.23 1.23-2.426 2.496-1.196 1.265-2.354 2.565-1.157 1.3-2.277 2.633t-2.2 2.698-2.12 2.76q-1.04 1.397-2.039 2.822t-1.956 2.88q-.957 1.454-1.871 2.935t-1.785 2.99-1.697 3.039-1.607 3.087c-3.476 7.02-6.125 14.22-8.427 21.695 1.94-2.714 3.49-5.72 5.135-8.618 2.75-4.845 5.563-9.815 8.694-14.424 3.838 3.448 7.752 6.938 11.776 10.166 6.241-7.924 12.207-16.06 18.524-23.923 1.655-2.059 3.225-4.263 4.968-6.242q3.862 4.77 7.89 9.401c8.42-11.077 15.84-22.945 23.853-34.318q4.62 5.963 9.336 11.852c1.457 1.826 2.863 3.703 4.404 5.459 4.306-6.416 8.037-13.385 11.767-20.152 1.541-2.795 3.014-5.655 4.694-8.368 3.781 4.612 7.483 9.35 10.875 14.257 5.057 7.315 9.645 14.925 14.445 22.406q6.901-12.64 13.181-25.601c4.797 8.835 9.774 17.583 14.673 26.362 1.813 3.248 3.729 6.452 5.458 9.744q1.769-3.558 3.71-7.024c6.757 11.172 13.978 22.087 20.357 33.482 3.96-4.485 7.538-9.335 11.636-13.693 2.269 3.361 4.815 6.49 7.31 9.683q4.23 5.426 8.328 10.951c1.602 2.164 3.297 4.313 4.707 6.609-2.309-.804-4.682-1.408-7.016-2.134-2.657-4.494-4.625-5.236-8.92-7.822 2.453 3.08 4.681 5.083 7.757 7.48-3.202-1.136-6.516-1.795-9.703-3.03-.692-5.207-.88-10.746-2.64-15.726-1.576 2.068-3.298 4.007-4.954 6.008q-2.52 3.081-4.92 6.256c.811 1.585 1.522 3.283 2.45 4.797-.106.509-.212 1.015-.288 1.528-3.097-.588-6.146-1.361-9.221-2.046-4.543-1.013-8.996-1.966-13.456-3.335L188.9 80.2c-.288-3.804-.46-7.668-.923-11.453q-5.095 9.627-9.93 19.387c-1.424 2.85-3.076 6.727-4.687 9.34 3.57 3.123 6.873 6.618 10.314 9.885-1.512.052-3.062.152-4.561-.1-3.125-.526-6.184-1.934-9.2-2.895-3.143-1.002-6.36-1.738-9.469-2.862-.572-4.022-1.245-8.037-1.58-12.087-4.531 5.18-9.279 10.179-13.705 15.447a201 201 0 0 1-19.379-3.945c-3.124-.796-6.188-1.81-9.313-2.588-2.07-6.838-3.542-13.86-5.7-20.665q-6.558 7.103-12.71 14.56l-2.303 2.78c.733 1.09 1.757 2.043 2.625 3.03-4.36-1.555-8.83-2.828-13.241-4.234l-18.654-6.05-1.253-13.5c-.346-3.64-.777-7.29-.997-10.939-2.107 2.039-3.94 4.461-5.818 6.712-5.13 6.145-9.918 12.537-14.952 18.752 1.608 2.137 3.436 4.116 5.159 6.162 2.28 2.71 4.524 5.504 6.931 8.102-8.418-1.137-16.768-3.219-25.124-4.759l-1.479-9.718c-.207-1.417-.326-2.865-.588-4.27-1.192 2.302-2.285 4.662-3.613 6.891-1.034 1.736-2.289 3.354-3.402 5.042-1.375 2.085-2.615 4.259-3.94 6.376-1.132 1.808-3.695 5.363-4.343 7.047-.567 1.474-.537 3.508-.682 5.086-.737 8.048-1.14 16.19-.353 24.254 3.145-1.914 5.049-4.01 7.18-7.021-2.13.043-4.232.043-6.322.508 2.066-1.578 5.531-4.465 5.888-7.241q.032-.255.05-.511c-1.758.006-3.5.147-5.252.282 3.668-2.697 6.003-5.986 8.176-9.939 2.388 4.148 4.42 7.114 8.361 9.96-1.698-.068-3.704-.462-5.363-.243-.19.253-.226.32-.187.661.221 1.943 4.384 5.79 5.915 6.942-2.093-.364-4.234-.395-6.354-.408 2.108 2.903 4.209 5.743 7.653 7.109 3.193-1.254 5.441-4.263 7.253-7.064-2.196.072-4.587.25-6.749.64 2.777-1.956 5.436-4.623 6.503-7.932-1.881.151-3.822.42-5.708.409 3.932-2.992 6.073-5.976 8.358-10.28 2.046 3.848 4.712 7.815 8.43 10.2-1.321-.077-4.19-.519-5.291-.284-.154.281-.196.41-.112.73.55 2.083 4.14 5.776 5.912 6.985-2.198-.217-4.44-.425-6.646-.514 1.481 1.902 4.708 6.606 7.254 6.898 1.147.131 2.217-.543 3.059-1.251 1.76-1.481 3.53-3.56 4.546-5.636-2.162.197-4.383.298-6.527.628 1.946-1.199 5.743-4.995 6.203-7.202.064-.303.015-.4-.096-.678-1.517-.222-3.893.246-5.462.441 3.944-2.64 6.434-6.143 8.558-10.332 2.612 4.378 4.37 7.333 8.663 10.333-1.39-.146-4.042-.658-5.322-.515-.216.212-.281.251-.275.577.036 1.872 4.74 6.176 6.211 7.278-2.309-.063-4.613-.344-6.917-.504 2.465 3.247 4.187 6.096 8.365 7.182 3.478-1.698 5.643-4.09 7.725-7.327-2.326.37-4.682.556-7.02.832 2.935-1.582 5.703-4.824 6.678-8.029l.037-.132c-1.872.164-3.76.418-5.635.505 3.825-2.21 6.564-6.479 8.541-10.338 2.156 4.208 4.662 7.913 8.78 10.404-1.972-.194-4.04-.518-6.018-.462 1.074 3.215 3.816 6.04 6.645 7.825-2.368-.193-4.776-.482-7.151-.482 2.17 2.949 4.972 6.08 8.497 7.362 1.45.527 3.003.802 4.512 1.103-3.593.124-7.145-.131-10.73-.278 2.037 2.39 4.338 4.592 7.426 5.524-3.794.083-7.725.342-11.446-.518l.046.181c.309 1.24.259 3.43.994 4.421 1.033.424 2.38.395 3.492.441 4.016.168 8.069-.027 12.091-.023 3.401.004 7.027.277 10.399-.073 1.09 1.81 2.186 3.605 3.554 5.226 3.65 4.328 9.367 8.279 14.739 10.047 7.808-2.936 13.682-8.36 17.961-15.43 4.843.373 9.737.267 14.592.262 2.793-.003 5.816.19 8.576-.186.722-.099 1.623-.268 2.18-.772.859-.777.996-2.252 1.1-3.344-2.965-.121-5.95-.315-8.917-.203 1.892-1.802 3.825-3.585 5.629-5.474-4.1.5-8.492.45-12.619.24l.117-.043c2.24-.807 5.956-1.1 7.836-2.134.953-.524 1.766-1.358 2.529-2.121 1.27-1.27 2.424-2.601 3.446-4.078-2.085.016-4.268-.044-6.332.287 2.325-2.097 5.006-4.528 6.355-7.394-1.808-.12-3.609-.16-5.42-.183 3.567-2.624 5.9-6.756 7.904-10.634 2.41 4.262 4.077 7.835 8.152 10.81-1.907-.029-3.808-.15-5.712-.265 1.31 2.788 4.129 5.94 6.654 7.733q-3.22-.167-6.441-.268c1.545 2.736 4.153 5.846 7.204 6.933 2.816-1.707 5.588-4.25 7.346-7.052-2.116.09-4.326.06-6.414.422 2.618-1.972 5.485-4.845 6.75-7.927-1.97.147-3.902.298-5.88.297 4.75-3.632 5.13-5.92 8.323-10.662 2.656 4.729 3.685 7.198 8.02 10.752-1.623-.074-3.53-.38-5.124-.19l-.127.125c.11 1.94 3.632 5.283 5.133 6.612q.533.464 1.099.888-3.268-.111-6.531-.313c1.593 2.633 4.278 6.029 7.342 6.97 2.976-1.477 5.7-4.313 7.672-6.948-2.178.015-4.422-.024-6.576.338 2.215-2.044 5.355-4.932 6.489-7.7-1.84.067-3.68.151-5.522.14 3.658-2.993 5.619-6.399 7.88-10.442 3.087 4.911 3.418 6.873 8.213 10.563-1.95-.081-3.864-.186-5.8-.45 1.038 2.902 4.208 6.135 6.719 7.824-2.218-.095-4.45-.266-6.668-.281 1.157 1.98 4.635 6.331 6.849 6.925.726.194 1.447-.175 2.047-.553 2.43-1.528 4.802-4.01 6.406-6.383-2.175.026-4.34.173-6.51.313 1.572-1.1 6.127-5.655 6.613-7.498l-.095-.265q-2.716.284-5.446.353c4.247-3.042 5.655-6.397 8.149-10.721 2.267 4.03 4.462 8.172 8.482 10.703-2.034-.083-4.084-.123-6.103-.387 1.573 3.238 4.078 5.2 6.52 7.673M84 235.907l.061.076c2.024 1.096 4.81 2.131 7.057 2.543 1.596.293 3.276.363 4.893.483 3.389.252 6.784.388 10.173.64 4.516.336 8.962 1.287 13.484 1.613 6.015.435 12.076.19 18.1.434q3.063.155 6.11.49c1.578.18 3.247.503 4.835.43 2.305-.106 4.727-.903 6.95-1.481l1.341-.361-21.072-1.769c-6.194-.528-12.362-1.123-18.569-1.484q-3.053-.202-6.113-.251c-2.381-.017-4.768.062-7.147-.065-3.575-.19-7.14-.69-10.71-.98q-4.66-.361-9.332-.242zM127.683 27.34q-4.744 7.188-9.154 14.585c-2.082 3.455-4.17 6.928-5.964 10.543 2.572 3.807 5.085 7.74 7.883 11.385-2.144-.496-4.308-.89-6.456-1.369q-8.437-1.927-16.853-3.947c-.578-6.064-.722-12.164-1.42-18.225-5.37 5.746-9.787 12.349-14.244 18.81-2.036 2.951-4.285 5.925-6.076 9.03l12.088 14.859c2.166 2.66 4.391 5.258 6.492 7.971 3.105-3.69 5.938-7.568 8.868-11.394 2.51-3.278 5.175-6.521 7.403-9.997 4.09 4.049 8.596 7.705 12.793 11.65 4.912 4.618 9.528 9.527 14.367 14.216 1.865 1.879 3.675 3.809 5.527 5.7l10.412-12.048c1.87-2.152 3.68-4.471 5.757-6.424 3.967 3.364 8.031 7.336 11.803 10.956 1.54-2.556 2.78-5.303 4.133-7.961 2.724-5.354 5.43-10.785 7.868-16.275q-3.72-1.887-7.595-3.43c-2.088-.855-4.278-1.633-6.254-2.73-.4-2.024-.559-4.114-.847-6.158q-.83-5.499-1.742-10.984c-.355-2.191-.616-4.415-1.08-6.585-4.1 7.252-8.234 14.585-11.923 22.053l8.32 12.407c-5.152-.819-10.28-2.357-15.29-3.787-4.493-1.284-9.022-2.53-13.462-3.988-.589-4.154-4.497-37.898-5.354-38.863m-26.336 15.864c1.005 2.504 1.997 4.865 4.616 6.081q.11.049.222.092c-.27-.973-3.878-5.628-4.838-6.173m-3.157 7.252c2.082 3.138 5.016 5.368 7.952 7.639-1.68-.534-3.344-.9-5.079-1.21 1.655.874 3.373 1.541 5.124 2.189 1.408.48 2.874.772 4.323 1.1-1.635-1.298-11.303-9.506-12.32-9.718m5.627.654c1.916 1.857 6.773 6.634 8.952 7.452a15 15 0 0 0-1.91-2.294c-1.209-1.19-5.54-4.705-7.042-5.158m67.829.717c.76 1.67 4.32 7.314 6.01 7.831.066.02.136.026.203.04-.447-2.103-4.289-6.53-6.026-7.757-.06-.042-.125-.076-.187-.114m-36.916 6.409c1.902 2.303 5.208 7.163 7.708 8.413 1.888.944 4.136 1.497 6.139 2.195 1.553.542 4.28 1.733 5.824 1.919a155 155 0 0 0-7.912-4.462c-1.628-.851-3.383-1.549-4.928-2.54-2.058-1.32-5.074-4.736-6.83-5.525m37.2 1.364c2.078 2.112 5.78 5.152 8.664 6.059-1.615-1.942-6.206-5.683-8.663-6.06M67.73 70.237c1.243 2.956 4.308 5.725 6.789 7.665.393.306.876.772 1.33.967.035.016.074.025.112.037-1.93-2.739-5.573-6.608-8.231-8.669m126.537 12.836c.06.502.077 1.226.33 1.668.964 1.682 7.969 7.949 9.83 9.463q.12.097.246.181c-1.411-2.21-8.359-10.074-10.406-11.312m-162.069.633c2.481 3.392 3.92 5.528 7.512 7.816-1.381-2.02-5.28-7.005-7.512-7.817m192.752 6.4c1.045 2.314 4.055 5.927 6.102 7.416-1.496-2.58-3.746-5.609-6.102-7.416m-191.856.314c1.81 2.718 5.26 5.465 7.75 7.603-2.045-.95-4.012-2.025-6.079-2.937 1.064 1.05 2.081 2.164 3.532 2.668 2.24.849 4.363 1.744 6.773 1.935-2.101-1.401-4.047-3.127-5.963-4.769-1.698-1.455-3.813-3.878-6.013-4.5m166.554 4.503c.731 1.418 1.453 2.84 2.253 4.22 1.96.578 3.978.957 5.984 1.338-2.037-1.764-5.81-4.509-8.237-5.558m-157.392.93c1.725 1.154 3.9 2.72 5.985 3.05-1.698-1.6-3.594-2.857-5.985-3.05M16.96 140.196q-2.378.106-4.759.142c.102.845.225 4.089.61 4.655l.24-.093c1.064-.826 4.884-3.721 5.12-4.736-.404-.054-.806-.001-1.21.032m8.535-.06c1.575 1.952 3.729 3.806 5.923 5.026a20.2 20.2 0 0 0 4.156-2.677c.917-.744 1.813-1.513 2.576-2.42-4.28.553-8.37.52-12.655.07m19.72-.039c1.1 1.35 2.272 2.55 3.685 3.573.722.522 1.54.986 2.201 1.579 1.437-.709 2.616-1.623 3.84-2.65.78-.745 1.534-1.493 2.124-2.403-2.185.146-4.378.336-6.569.286-1.766-.04-3.52-.268-5.28-.385m20.17-.024c1.769 2.621 3.975 4.155 6.894 5.283 1.207-.82 2.406-1.67 3.482-2.661.821-.811 1.627-1.63 2.28-2.586-2.434.302-4.914.474-7.367.363-1.766-.08-3.522-.337-5.29-.399m171.94.035c.963 1.115 4.392 4.815 5.636 5.058.073.014.148.01.222.015l.151-.362c.132-1.451.344-2.891.548-4.333-2.184.015-4.398-.002-6.556-.377m-59.897.114c1.728 1.825 4.142 4.857 6.354 5.999-3.309.214-6.632.007-9.923-.347.028 1.242-.028 2.659.983 3.563.524.47 1.355.642 2.033.736 1.72.236 3.563.096 5.302.09 2.13-.007 4.302.071 6.427-.062 1.137-.105 2.343-.289 3.115-1.229.722-.879.795-2.064.977-3.142-1.886-.029-8.358.188-9.598-.357l-.118-.21c.376-.83 2.148-1.628 2.892-2.202 1.085-.837 1.979-1.774 2.858-2.82-3.744.345-7.573.641-11.302-.019m19.562-.016q2.772 3.243 6 6.032c-3.009.02-5.981-.181-8.981-.371.092 1.202.065 2.67 1.026 3.557.461.424 1.188.596 1.79.69 2.227.351 9.573.228 11.96.045q.332-.025.661-.063c.868-.193 1.682-.417 2.21-1.19.577-.844.635-2.123.766-3.117q-4.866-.003-9.732-.067c2.293-1.505 4.341-3.446 6.2-5.452-3.973.425-7.937.547-11.9-.063m19.662.005c1.557 1.834 3.602 3.91 5.722 5.088 1.57-.666 2.994-1.485 4.31-2.576a37 37 0 0 0 2.486-2.384c-4.184.21-8.345.293-12.518-.128m-154.988 5.083c.076 1.06.254 3.704 1.038 4.43 1.192 1.107 15.198.551 17.223.194.308-.055.532-.126.768-.34l.098-.285.764-4.032c-3.507.68-6.802.516-10.344.49-3.231-.024-6.338.061-9.547-.457m-39.136.178c.097 1.116.064 3.28.837 4.12 1.206 1.313 12.35.76 14.71.517.67-.069 1.434-.125 1.896-.674.213-1.301.397-2.598.804-3.856-3.196.429-6.314.314-9.525.3-2.953-.011-5.786.032-8.722-.407m19.416.076c.185 1.14.332 3.467 1.322 4.17 1.342.952 13.815.654 15.734.085.285-.085.534-.214.69-.482.063-.108.08-.185.112-.3.213-1.195.386-2.413.671-3.592-4.037.844-8.41.55-12.515.44-2-.054-4.034-.016-6.014-.321m-21.159.133c-2.717.144-5.313.216-8.03.017.224 1.476.52 2.926.836 4.385.226.249.309.19.635.207 1.729.088 4.334.144 5.905-.539.792-.83.763-2.727.914-3.826l-.09-.234zm192.845.095c.082 1.102.014 3.103.938 3.851.458.37 1.35.5 1.929.567 1.761.2 3.65.088 5.426.094 2.536.009 5.39.279 7.875-.227.707-.144 1.211-.398 1.775-.843.775-1.025.87-2.104 1.093-3.326-6.347.003-12.69-.194-19.036-.117m27.61.043c-2.462.095-4.925.023-7.387.049.037 1.16-.09 2.669.874 3.517.36.315.78.458 1.227.604 2.08.325 4.326.3 6.428.232.337-1.479.65-2.951.857-4.455-.665.011-1.336.003-2 .053m-118.19 24.493q-12.468.203-24.904 1.11c-3.266.242-7.379.35-10.492 1.266-1.324.388-2.265 1.285-3.377 2.034-8.495.14-17.007.029-25.503.03l-37.483.032c.438.937.889 1.87 1.271 2.831l29.7-.39q5.861-.175 11.726-.219c2.246-.004 4.531-.047 6.764.217q.59.069 1.171.196t1.147.311 1.109.424 1.061.533c-2.286.294-4.583.635-6.883.8-7.32.53-14.743.293-22.078.258-7.559-.037-15.163.02-22.715-.317q1.025 2.067 2.123 4.096l29.582.374c3.062.05 6.13.485 9.19.475 4.457-.015 8.95-1.67 13.442-.823.415.078 1.108.223 1.39.566.025.03.04.065.06.097-.145.277-.316.341-.608.428-2.473.731-7.463.942-9.995.704-1.275-.12-2.421-.496-3.725-.44l-37.66 1.901.65 1.408c7.955.276 16.01 1.261 23.93 1.398 4.905.084 9.142-1.004 14.336-.493 2.401.236 4.671.951 6.837 2.001-2.321.241-4.706.171-7.039.21q-6.934.126-13.87.15c-3.276.035-6.556.275-9.83.416q-5.82.234-11.641.382c.322.427.656.849.958 1.29 7.967.306 15.968.867 23.937.969 3 .038 5.97-.055 8.964-.211 2.583-.135 5.178-.35 7.766-.238 2.112.09 4.053.688 6.135.898-4.92.961-11.989.657-17.175.814-3.942.12-7.881.403-11.82.616-5.055.273-10.135.505-15.175.981l.77.885q13.802.135 27.594.694c4.302.18 8.869.123 13.109.87-3.725.787-7.607.86-11.4 1.065-3.104.168-6.221.376-9.33.448-5.807.134-11.616.051-17.424.273.346.416.68.838 1.074 1.209 2.82.416 5.699.56 8.545.682 3.805.163 10.796-.104 14.089 1.776-6.29.728-12.624.806-18.895 1.737.35.391.693.79 1.056 1.168 8.793.673 17.602.773 26.395 1.334 4.558.291 9.074.931 13.604 1.491 2.635.326 5.307.522 7.929.92-3.38.599-6.808.376-10.221.304q-7.285-.189-14.567-.476c-6.774-.236-13.643-.105-20.393-.686q1.2 1.111 2.372 2.252c4.764.719 9.577 1.025 14.368 1.492 2.579.25 5.141.626 7.709.967 2.266.301 4.66.46 6.869 1.043-8.245 1.495-17.076 1.245-25.291-.321 1.188.997 2.575 2.467 3.983 3.119 1.57.727 3.764.928 5.462 1.27 3.802.768 7.614 1.436 11.481 1.765 3.665.31 7.367.298 11.043.376q8.722.175 17.435.585c4.244.192 8.53.335 12.736.934.286.04 1.295.088 1.391.368-3.848 1.283-18.224.08-23.023-.076l-30.85-1.015c1.11.807 3.392 2.845 4.61 3.09 1.92.389 3.983.42 5.937.56 7.202.517 14.423.281 21.622.713 4.615.278 9.046 1.589 13.64 1.883l13.917.8c4.435.281 8.879.659 13.323.752 4.398.094 8.803-.076 13.201-.135q7.464-.048 14.928.018l13.632.128c1.569.004 3.387.25 4.917-.026.846-.152 1.754-.894 2.483-1.357-4.586-.451-9.164-.944-13.765-1.218-8.506-.505-17.038-.616-25.553-.931q-4.482-.183-8.966-.313c-4.182-.122-8.654-.155-12.74-1.105 3.483-.668 7.24-.544 10.78-.574 7.135-.034 14.26-.376 21.394-.411q17.59.007 35.165.783c1.148-.679 2.231-1.419 3.319-2.189-7.968-.528-15.93-1.113-23.915-1.307-5.511-.133-13.484.451-18.685-.59 3.404-.638 6.868-.662 10.32-.767q4.766-.119 9.525-.41c9.685-.566 19.465-1.899 29.174-1.612.576-.444 1.155-.882 1.712-1.348-6.777-.405-13.469-.836-20.265-.786-4.53.033-9.058.354-13.588.408q-10.533.136-21.024-.818c-3.629-.296-7.316-.526-10.889-1.247 2.504-.405 5.257-.218 7.788-.144 3.941.116 7.9.322 11.843.289 6.305-.054 12.6-.55 18.907-.683q15.32-.227 30.636.18c.527-.493 1.077-.975 1.579-1.492-6.212-.643-12.535-1.188-18.781-1.24l-21.259.001c-2.46-.001-7.799.283-9.936-.283l-.116-.151c.686-.487 6.121-.738 7.313-.813 8.139-.516 16.307-.625 24.454-.982 7.532-.33 15.101-.926 22.64-.904l1.46-1.496q-15.032-.39-30.069-.251c3.066-1.12 9.584-1.607 12.976-1.902 6.847-.596 13.628-1.156 20.51-1.079l.925-1.093c-6.134-.927-12.505-1.541-18.713-1.409-3.941.085-7.953.632-11.877.453-1.989-.09-3.952-.585-5.931-.801l-.073-.146c1.081-1.282 3.8-1.447 5.345-1.58 11.321-.976 22.755-.088 34.093.059.401-.563.803-1.099 1.264-1.616-9.308-.428-18.474-2.1-27.811-1.901-3.44.073-6.924.471-10.343.856-1.694.191-3.415.486-5.118.516-1.817.032-3.556-.17-5.347-.45-.938-.147-1.946-.27-2.84-.599a1.3 1.3 0 0 1-.448-.276l.015-.216c.428-.201 1.096-.454 1.287-.928.288-.714 1.076-5.977 1.284-7.105 1.667.076 3.337.133 4.991.368-2.393 1.909-4.72 4.602-6.248 7.268 7.721-.542 15.494-.475 23.226-.798 10.128-.423 20.213-1.181 30.355-1.313.281-.746.579-1.423.986-2.11-3.787.41-7.609-.281-11.413-.306-8.912-.06-17.75.379-26.665-.195-2.737-.176-5.563-.31-8.256-.855 5.452-1.468 10.828-1.198 16.4-1.01 4.502.152 9.015.38 13.52.44 6.348.085 12.585-.543 18.819-1.71l.722-1.19c-4.683.116-9.376.442-14.062.369-6.4-.1-12.79-.644-19.184-.733-4.946-.07-14.018.626-18.486-.571 1.657-1.622 3.15-2.93 5.614-2.91 1.776.016 3.581.22 5.354.349 4.95.36 9.96.872 14.926.885 2.846.007 5.674-.044 8.513-.241 2.826-.196 5.645-.525 8.473-.684 3.696-.209 7.43-.18 11.13-.161.324-.787.658-1.563 1.023-2.331-4.362-.043-8.74 0-13.099-.13-5.662-.171-11.31-.506-16.978-.567q-5.44-.047-10.88.008c-2.836.043-5.69.175-8.523.05 7.031-2.223 16.472-2.006 23.874-2.13 8.996-.151 18.03-.087 27.017-.416q.642-1.639 1.484-3.185c-9.98.79-19.989.74-29.99.778q-15.564.114-31.128-.017c-1.814-2.292-4.601-2.92-7.37-3.245q-5.335-.651-10.69-1.105-5.356-.454-10.725-.711-5.37-.256-10.744-.315t-10.748.08M72.506 230.53c1.111.593 2.351 1.55 3.573 1.817 2.11.461 5.238.404 7.478.571q8.011.597 16.007 1.387 2.762.285 5.475.879c1.779.402 3.598.98 5.418 1.131 2.106.175 4.263.055 6.375.024q4.002-.059 8.004.05c5.921.173 11.847.587 17.766.86 4.506.209 9.014.276 13.521.422 2.638.086 9.83.716 12.044.026 1.651-.514 3.418-1.258 4.993-1.98q1.432-.635 2.85-1.3c-7.982-.661-15.885-1.48-23.897-1.728q-8.024-.223-16.05-.296c-4.82-.02-9.638.054-14.455-.156-4.477-.197-8.94-.633-13.416-.828-8.134-.354-16.246-.431-24.383-.553-3.73-.056-7.588-.532-11.302-.326m35.992 12.128c6.249 1.913 13.736 2.27 20.232 2.165 1.528-.024 3.176.05 4.677-.263q-7.113-.366-14.197-1.11c-3.382-.33-7.345-.88-10.712-.792"/><path d="M118.578 46.869c2.025-5.709 5.446-10.777 8.416-16.008q.01 2.103-.136 4.201c-.421 2.974-.954 5.79-1.802 8.677-.639-1.496-.918-2.755-.939-4.382q-1.89 2.54-3.734 5.115c-.576.79-1.14 1.68-1.805 2.396m39.776 12.571c1.248-5.248 4.097-10.944 6.168-15.96.038 1.256.091 2.514.1 3.771.038 2.104.245 4.205.266 6.306-.614.599-1.042 1.194-1.451 1.952-.25-1.212-.465-2.447-.822-3.632-.908 2.239-2.542 5.854-4.262 7.563m-73.768-1.006c1.695-3.03 3.817-5.873 5.73-8.769 1.035-1.568 1.922-3.317 3.02-4.828-.205 2.129-.59 4.279-.973 6.384-1.169 1.005-2.4 1.976-3.5 3.054-1.356 1.33-2.666 3.15-4.277 4.159m33.92-11.439.073-.126zm-33.98 11.495.06-.056zm73.756 1.011.072-.061zm-65.413 4.64 6.353-.08c4.536-.044 8.147-.05 12.61 1.153-2.183.433-4.365.55-6.58.62q-6.026.07-12.048-.116c-.123-.523-.225-1.052-.335-1.577m48.409.658-.116-.043zm0 0c.911.3 2.105.777 2.838 1.393-.888-.189-2.162-.796-2.838-1.393m2.838 1.392.191.085zm.192.085.192.087zm24.81 2.661q-.075-1.07-.136-2.139c4.225.69 8.33 2.133 12.3 3.697-1.26.005-2.568-.205-3.823-.338-2.782-.294-5.614-.583-8.341-1.22M52.797 80.739c.08-.746 8.723-12.216 9.896-13.645.184 1.094-.9 5.447-1.12 6.912-3.323 1.531-6.154 4.227-8.776 6.733m40.78-10.743.034-1.744c3.331-.046 11.004-.445 13.839.494-.468.184-.949.34-1.423.508-1.105.375-2.237.809-3.394.985-2.29.35-6.49-.218-9.056-.243m75.686 3.832c-.036-.87-.027-1.744-.035-2.615 1.491.166 9.014 1.28 9.813 2.069l-.157.06c-3.237.201-6.364.54-9.621.486m-33.821 1.007c-.329-.918-.575-1.878-.852-2.812 8.464 1.446 17.29 1.745 25.45 4.647l.022.173c-2.834.352-5.874.087-8.712-.148-5.319-.438-10.612-1.208-15.908-1.86m-36.325-.476c-1.776 0-3.669.077-5.429-.137-.164-.395-.111-.957.03-1.355.396-.239.859-.174 1.316-.186q2.634-.13 5.266.034c-.275.507-.638 1.4-1.183 1.644m82.735 14.071c.61-4.146 1.937-7.68 3.49-11.536.343-.852.597-1.753 1.047-2.556l.173-.117.108.375c.435 2.209.549 4.447.7 6.688-1.532 2.085-3.776 5.388-5.519 7.146m-12.533-10.032c-.065-.77-.014-1.545.013-2.316q4.095.066 8.146.669l-1.493.428c-2.212.536-4.417.89-6.667 1.219m-75.358.49c-.183-.615-.321-1.184-.264-1.829 1.4-.085 2.821-.079 4.224-.112l-.797 1.498q-.019.026-.041.048c-.621.552-2.282.386-3.122.395m43.381.352a36 36 0 0 1 3.6-.438c4.642-.315 11.808.203 16.166 1.822-1.063.12-2.184.029-3.254.007-5.608.003-11.006-.31-16.512-1.391m-36.511 14.841-.228.208-.088-.016c1.311-2.124 3.117-4.053 4.609-6.07 1.599-2.162 2.978-4.497 4.46-6.742.457 1.704.547 3.67.86 5.431-3.731 1.354-6.722 4.563-9.613 7.19m52.544-9.992-.28.025c-3.156.267-13.093 1.266-15.438-.71.309-.218.71-.19 1.083-.233 5.423-.29 10.904.148 16.314.552-.555.144-1.118.252-1.68.367m-6.857 3.946c-1.044.159-6.356.947-7.004.658-.118-.322-.137-.523-.112-.866.254-.37.651-.504 1.044-.69 2.183.394 5.961.432 8.317.576q-1.125.144-2.245.322m68.313 9.106c1.789-3.166 2.935-6.83 4.98-9.819.488 1.157-.052 7.738-.111 9.507-.416-1.064-.76-2.145-1.26-3.175-.394 1.09-.674 2.19-.951 3.314l-.083.088c-.71.225-1.815.087-2.575.084m-33.047-8.649.07-.063zM26.65 91.065l.069-.053zm-6.808 10.633c.637-1.297 5.977-9.786 6.808-10.633-.095.924-.406 1.86-.664 2.751-1.12 3.876-2.526 5.005-5.529 7.464a4.6 4.6 0 0 1-.615.418m118.562-9.208c.367-.386.763-.744 1.153-1.109 2.486-.102 5.046.29 7.5.661-.477.117-.963.208-1.445.309-2.341.487-4.833.237-7.208.14m11.304 10.821c.685-1.11 7.082-9.878 7.844-10.428-.144 1.922-.643 3.723-.328 5.662q-2.191 1.323-4.323 2.739c-1.036.685-2.071 1.491-3.193 2.027M70.23 97.188a41 41 0 0 1-.047-2.611c1.707.065 3.52.596 5.183.974q4.487 1.016 8.947 2.145c2.869.723 5.974 1.305 8.725 2.367l-.08.141c-7.28.958-15.662-1.322-22.727-3.016m-50.455 4.552.066-.042zm50.628 1.377c1.195-.357 2.407-.565 3.646-.693 4.494-.575 13.29 1.015 17.567 2.316-1.11.172-2.24.254-3.357.366-5.973.366-12.217.236-17.856-1.989m123.554 1.071c-.107-.544-.266-1.082-.408-1.618 4.144.796 8.27 1.873 12.377 2.845 2.159.51 4.457.86 6.564 1.523.163.36.025.588-.068.965-.85.39-16.184-3.272-18.465-3.715m-162.389.778a17 17 0 0 1-.196-1.716c4.018.195 8.048.615 12.06.924 2.405.186 5.774.2 8.042.796l.063.118-.325.176c-.787.278-1.57.492-2.402.573-1.961.192-4.006.022-5.971-.073q-5.645-.265-11.271-.798m118.078-1.606.061-.048zm-30.461 2.289c-.387-.75-.714-1.542-1.062-2.312 6.163.284 12.754 1.103 18.792 2.409-2.18-.014-4.353-.146-6.535-.129-3.73.029-7.467.21-11.195.032m104.851.035q-.117-.969-.195-1.942c2.437.473 4.87 1.512 7.224 2.302 3.525 1.183 7.968 2.39 11.228 4.064-2.142.332-14.874-3.8-18.257-4.424m-62.139 2.541c-.238-.917-.38-1.866-.55-2.799 5.15 1 10.262 2.14 15.388 3.252l.056.195c-4.945.571-9.982-.087-14.894-.648m33.666.384c-.29-.594-.545-1.212-.815-1.815 2.913.829 5.948 1.33 8.903 1.996.998.225 2.202.35 3.116.799l.052.186-.294.216c-.45.25-.934.453-1.4.67q-4.765-1.1-9.562-2.052m-163.784.677-.1-1.79c2.87-.004 5.77.287 8.634.454 2.111.123 4.604-.019 6.626.531l.038.127-.729.319c-4.088 1.38-10.193.751-14.47.359m73.752 2.812c6.589-2.903 14.261-3.826 21.381-4.169q1.49-.049 2.981-.026 1.491.022 2.98.115 1.488.094 2.97.259 1.481.164 2.954.4 1.472.235 2.931.54t2.903.681 2.866.818 2.824.955c.152 10.381-.482 23.906-3.96 33.686-3.032 8.523-9.412 14.373-17.428 18.143-.276.137-.554.295-.87.296-1.63.005-7.716-4.181-9.012-5.199q-1.87-1.472-3.502-3.202c-3.003-3.175-5.262-7.305-6.675-11.421-3.031-8.828-3.629-22.57-3.343-31.876m29.103-1.902c-.171.553-.345 1.1-.471 1.666-.727.025-1.448.04-2.167.157.58.34 1.158.701 1.76 1.004l-.558 2.133 1.609-1.187c.654.302 1.2.678 1.784 1.096q-.349-.993-.719-1.977c.56-.378 1.128-.736 1.622-1.199l-2.161-.046c-.154-.516-.28-1.282-.699-1.647m-13.353.105a16 16 0 0 0-.425 1.632l-2.045-.055c.529.44 1.051.896 1.598 1.312l-.495 1.794c.486-.316 1.164-.882 1.755-.829l.305.216 1.217.907-.675-2.104 1.74-1.006c-.718-.075-1.44-.168-2.162-.19-.133-.482-.27-1.351-.718-1.634-.03-.019-.064-.03-.095-.043m6.858 8.29a22 22 0 0 0-.606 1.657l-1.87.03c.465.518.922.977 1.465 1.416a12 12 0 0 0-.568 1.947c.569-.458 1.161-1.092 1.915-1.178.352.3.708.69 1.175.773.177-.232.147-.11.106-.419-.06-.465-.298-.911-.49-1.335.548-.402 1.1-.796 1.615-1.24l-2.045-.046c-.213-.523-.397-1.129-.697-1.605m-.24 9.731-5.151 9.109q-1.479-2.14-3.035-4.223l-5.417 6.44c-1.099 1.31-2.337 2.62-3.236 4.073.261.856.551 1.665.918 2.48 1.868.15 3.475.96 5.282 1.343 1.842-.607 3.6-1.429 5.42-2.09 1.946.735 3.918 1.589 5.943 2.069 1.83-.682 3.596-1.589 5.47-2.136 1.776.758 3.576 1.63 5.458 2.096q2.119-.662 4.263-1.238c.365-.847.669-1.677.923-2.564-.93-1.934-2.528-3.648-3.856-5.328q-2.32-2.971-4.68-5.911c-1.052 1.615-2.076 3.26-3.18 4.84-1.434-2.674-3.235-6.659-5.122-8.96m6.007 19.108-5.38 2.056c-1.962-.629-3.856-1.476-5.856-1.978-1.822.556-3.54 1.38-5.348 1.955q-2.272-.629-4.526-1.317c.265.502.516 1.01.843 1.475 1.199.463 2.404.84 3.636 1.204 1.424-.413 2.843-.837 4.295-1.147 2.274-.664 4.606.501 6.757 1.237 1.7-.636 3.708-1.532 5.535-1.548 1.378-.011 2.536.745 3.847 1.028 1.322.286 2.673.057 3.997-.104.412-.624.82-1.239 1.16-1.906-4.215 1.411-4.987.58-8.96-.955m-11.092 3.716c-2.737.672-4.566 1.828-7.447.937 3.11 4.334 7.906 7.572 12.784 9.598 1.502-.693 2.97-1.448 4.367-2.339 2.959-1.95 5.622-4.207 7.806-7.017-2.489.424-3.856-.435-6.141-1.168-1.59.33-5.196 1.843-6.535 1.536-1.641-.375-3.152-1.213-4.834-1.547M78.76 109.895c-1.75.024-7.03.12-8.34-.53-.061-.134-.139-.281-.163-.43-.047-.294-.044-.559.117-.804l.416-.072c2.825-.077 5.679-.028 8.486.315-.109.47-.13 1.257-.516 1.521m147.753.634 1.125-2.081c1.193.557 10.305 3.152 10.39 3.286l-.557-.06c-3.659-.352-7.312-.667-10.958-1.145m-146.177-.893c1.478-.485 2.83-.821 4.385-.962 1.245-.086 2.325-.078 3.548.192q-2.334.252-4.675.423c-1.09.093-2.163.294-3.258.347m117.037 3.591c-.323-.598-.561-1.234-.814-1.864 1.08.3 4.568.793 5.262 1.19l-.477.366c-.439.24-.913.428-1.37.632zm-159.647-.137q-.287.056-.575.105c-1.106.188-4.172.835-5.045.212-.038-.341-.019-.394.124-.709.396-.298.63-.244 1.116-.27 2.092-.122 4.287-.086 6.364.174-.657.177-1.322.328-1.984.487m32.649-.335 2.373-.067c2.167-.089 4.308-.141 6.449.258-1.105.526-2.373.683-3.568.892-1.735.314-3.498.453-5.256.555zm-39.263 5.973c-.076-.155-.123-.304-.175-.467.02-.035.037-.073.061-.106.787-1.063 3.735-1.574 4.957-1.86l-.035.168c-1.15.99-3.273 2.225-4.808 2.264m211.078 13.541.054.077zM37.439 147.823l-.227.053.077-.199.267-.051zm46.837 28.929q.127-.147.261-.289c.79-.843 1.69-1.613 2.811-1.968 2.697-.851 7.345-.84 10.293-1.066 7.161-.546 14.252-1.161 21.437-1.373 4.077-.181 8.21-.125 12.292-.106 3.564.016 7.143-.02 10.704.108q9.687.438 19.33 1.461c2.455.248 5.153.27 7.513.984 1.51.458 2.672 1.217 3.743 2.365-1.139 6.058-1.986 12.151-2.975 18.234-1.029-.808-2.038-1.528-3.34-1.832-2.239-.522-4.945-.401-7.251-.502-6.775-.298-13.593-.404-20.375-.517-3.016-.069-6.045-.197-9.061-.159-5.951.075-11.902.407-17.855.512l-10.418.115c-5.01.018-10.377-.291-15.192 1.286q-.885-8.635-1.917-17.253m42.157-1.996c-.612 2.775-1.247 5.567-2.045 8.295-.826-2.556-1.806-5.413-2.207-8.066l-2.027-.06c.406 1.561.875 3.1 1.343 4.643.826 2.427 1.523 4.873 2.187 7.348l1.581-.008c.96-4.075 2.27-8.075 3.166-12.155zm4.002.015c.159 4.063-.317 8.159-.32 12.226q3.343.144 6.69.173c.009-.64.036-1.284 0-1.923l-4.633-.019-.007-1.54.018-1.819 3.62.006c.012-.619.04-1.241.026-1.86l-3.678-.024c.035-1.159.084-2.308.202-3.462l4.474-.002.054-1.753c-2.148-.002-4.298-.03-6.446-.003m9.097.151a458 458 0 0 0-.689 12.16l1.868.032c.152-2.393.336-4.789.338-7.188l.09.139c1.13 1.803 2.635 6.281 3.838 7.422.32.075.633.028.956.001.055-.082.13-.16.15-.256.122-3.939.515-7.919.876-11.843-.631-.078-1.258-.16-1.894-.18-.353 2.445-.38 4.962-.624 7.425-1.156-2.543-2.395-5.068-3.458-7.651zm-24.826.356c-1.117.287-1.876.68-2.483 1.7-1.083 1.82-.897 5.072-.332 7.046.34 1.188.99 2.362 2.113 2.968.573.308 1.1.33 1.74.323 1.085-.3 1.71-.67 2.293-1.661 1.141-1.944 1.157-5.422.536-7.538-.31-1.056-.897-2.087-1.906-2.609-.628-.325-1.276-.273-1.96-.23m35.314.332-1.252 11.947c.628.06 1.263.102 1.888.186.337-3.932.668-7.967 1.247-11.869-.627-.113-1.245-.238-1.883-.264m-45.86.318-1.57.155c.624 3.893.718 7.9 1.132 11.824 1.688-.042 3.416-.045 5.093-.25.504-.04 1.022-.057 1.52-.145l-.402-1.785c-1.506.116-3.017.264-4.529.26-.143-1.963-.371-8.783-.827-9.977-.266-.132-.127-.106-.417-.082m53.222.404c-1.767 3.757-3.315 7.618-5.108 11.36.658.068 1.315.13 1.965.249.284-.764.594-2.243 1.365-2.609l.543.076c.784.126 1.566.253 2.355.343.146.845.302 1.691.426 2.54q.936.066 1.873.117c-.426-3.981-1.3-7.895-1.815-11.862zm-60.63.305c-1.126.3-2.005.665-2.631 1.715-.387.651-.65 1.434-.416 2.185.72 2.314 6.229 3.392 5.522 5.283-.144.383-.48.617-.854.74-.536.175-1.269.151-1.766-.131-.376-.214-.608-.58-.845-.93-.662.249-1.336.482-1.98.773.587 1.155 1.392 1.942 2.646 2.355.312.102.621.163.946.199 1.38-.161 2.401-.542 3.323-1.655.41-.496.672-1.085.612-1.738-.112-1.207-1.009-2.193-1.922-2.903-.918-.714-3.56-1.798-3.7-2.972-.022-.18.022-.321.08-.49.303-.344.572-.453 1.024-.473.569-.024 1.224.064 1.645.484.19.191.358.41.525.621.468-.312.932-.641 1.417-.926-.7-1.013-1.53-1.867-2.799-2.094a3.5 3.5 0 0 0-.827-.043"/><path d="M115.36 185.275c-.17-.032-.388-.06-.551-.128-.495-.204-.783-.623-.995-1.097-.635-1.413-.744-4.008-.19-5.46.31-.813.784-1.142 1.554-1.49.642.174 1.07.462 1.398 1.056.767 1.393.766 3.916.26 5.398-.291.857-.67 1.317-1.475 1.72m-35.751-6.226q1.725-.67 3.42-1.418l.028.025-.029.077.17-.014c.271 1.398.335 2.91.487 4.329l.984 9.694c.197 1.991.322 4.011.681 5.98-.319-.143-.642-.286-.923-.497-1.367-1.028-1.48-5.07-1.73-6.737-2.108-.435-4.454-.689-6.39-1.647 2.289-.847 4.79-.96 7.073-1.796.077-5.035-1.294-4.157-3.674-7.844zm92.413 8.617c.476-2.742.895-5.476 1.447-8.207 1.783.881 3.584 1.142 5.444 1.773a16.6 16.6 0 0 1-3.686-.31c-.556.822-1.105 1.631-1.563 2.513-.597 1.388-.962 2.883-1.642 4.231m-15.049-3.937-.88-.104-.077-.123c.315-1.148.939-2.275 1.52-3.311.516.456.662 2.888.784 3.645zm-70.612 11.208c.49-.138.994-.197 1.498-.269.963.047 2.239 1.477 2.922 2.153-.58.297-1.177.533-1.782.772-.827.245-1.64.252-2.492.208-.139-.942-.125-1.913-.146-2.864m81.948 2.709a6.3 6.3 0 0 1-1.765.344c-.36.013-.772-.098-1-.396-.54-.709-.12-2.248-.001-3.055 1.065.256 2.32.996 2.996 1.869.225.29.32.526.267.887zm-54.777-1.749c2.369-.525 5.035-.467 7.463-.592 4.742-.26 9.437.135 14.16.49l11.595.807c5.333.37 10.772.838 16.022 1.876 1.936.382 3.809 1.023 5.733 1.456 1.117.252 3.892.566 4.624 1.408l-.1.203c-1.748.746-4.332.369-6.186.292-2.336-.212-4.677-.368-7.007-.642-3.654-.43-7.29-1.011-10.944-1.435-3.937-.456-7.887-.73-11.818-1.248-4.485-.59-8.944-1.432-13.44-1.929-3.364-.371-6.744-.364-10.102-.686m-7.988 5.101c1.897-.515 3.83-.686 5.783-.819 3.516-.32 7.307.132 10.839.318q9.288.46 18.535 1.45 9.246.989 18.422 2.505-2.481.244-4.968.417c-1.655.014-3.313.163-4.968.215q-3.933.108-7.859-.15c-7.038-.484-14.01-1.902-21.023-2.683-4.909-.546-9.859-.712-14.76-1.253m-39.748 3.665c2.727-.47 5.539-.543 8.298-.604 4.43-.075 8.883.268 13.306.472 7.751.36 15.137.686 22.826 1.865-2.805.814-5.736.849-8.634.877q-6.306.178-12.61-.049t-12.58-.856c-3.517-.32-7.283-.434-10.606-1.705m100.6 1.711c1.673-.313 3.376-.372 5.072-.447 3.005.046 6.133.248 9.046 1.025-1.698-.035-3.411.066-5.11.121-3.02.042-6.023-.257-9.008-.699m-4.553 2.78c-10.781.814-25.469 2.031-35.912-.145-.956-.2-2.386-.406-3.187-.987l-.012-.193c.38-.231.78-.242 1.211-.289 5.537-.308 11.148.224 16.692.313 5.725.09 11.405.033 17.128.353 2.31.13 4.632.222 6.919.601-.946.18-1.88.284-2.84.346m-64.949 3.856c1.16-.67 2.272-.934 3.587-1.086 4.48-.393 23.527 1.173 26.698 3.006l-.011.191c-.752.396-2.086.24-2.927.228-2.475-.273-5.01-.32-7.496-.526-4.244-.352-8.479-.819-12.72-1.196-2.363-.21-4.798-.207-7.132-.617m-12.903 4.084c.758-.185 1.533-.227 2.308-.29 6.156-.685 12.472 1.13 18.6 1.512 5.59.348 11.183.019 16.776.186 4.9.147 9.794.798 14.67 1.281 3.155.313 6.447.442 9.54 1.15-.91.208-1.799.313-2.729.383-4.347.292-8.846-.022-13.192-.295q-7.888-.556-15.787-.935-6.71-.268-13.424-.416c-3.813-.062-7.677.053-11.461-.483-2.034-.287-3.694-.783-5.3-2.093"/></svg>