<svg xmlns="http://www.w3.org/2000/svg" viewBox="0 0 256 256"><path d="m204.009 214.032.09.031c.333.485 3.513 8.536 3.734 9.398.214.833.23 1.732.278 2.588-1.278-2.016-2.28-4.267-3.272-6.434-.94-2.055-1.499-4.3-3.197-5.897 1.253 3.18 2.236 6.409 3.298 9.651.78 2.383 1.621 4.732 2.359 7.131-2.746-3.977-6.194-14.193-9.105-16.643 1.281 3.992 2.727 7.976 3.316 12.146.381 2.695.377 5.454.353 8.17-3.12-6.12-6.163-12.27-9.879-18.06-.406-.632-.84-1.59-1.448-2.018-.354-.071-.417-.044-.761.078-.027.282 1.569 5.05 1.786 5.915.59 2.35.934 4.743 1.314 7.132-1.764-4.422-3.465-8.82-5.701-13.032l-1.72-.027c.651 2.52 1.334 5.045 1.785 7.61.306 1.746.463 3.507.692 5.261-1.427-4.173-2.892-9.14-5.123-12.924-.554.002-1.11-.006-1.664.014.555 2.69.785 5.393 1.04 8.122l-.054-.128c-.796-1.925-1.744-6.974-3.428-7.97-.38-.03-.388-.032-.704.179-.667 1.217-.314 3.498-.291 4.88-.228-.69-1.282-4.9-1.615-5.032-.32-.126-.7-.102-1.04-.113-.363.643-.052 1.688-.549 2.208l-.091-.081c-.065-.671-.028-1.4-.504-1.919-.419-.251-.911-.168-1.38-.146q.83 1.134 1.884 2.065l.091.08.055.092c.84 1.37 2.004 2.522 2.892 3.858 4.332 6.512 9.551 16.017 7.66 24.009-.48 2.021-1.363 3.82-2.25 5.68.039-2.454.327-4.884.252-7.342l-.046-.041.018-.15c.031-.387.03-.841-.029-1.225l-.114.05c-.195 2.815-.905 5.5-2.213 8.012-.602-3.399-.21-6.982-.545-10.427-.202 1.129-.221 2.275-.335 3.414-.212 2.118-.61 4.35-1.284 6.374-.404-7.438-.179-14.885-2.648-22.009.936 5.967 1.446 12.011-.353 17.892-.265-5.294-.367-10.814-1.506-16-.139 4.289-.363 8.71-2.022 12.728-.15-1.998.022-4.044.067-6.047a53 53 0 0 0-.327-7.39c-.186 1.802-.129 3.61-.232 5.416-.114 2.01-.414 4.025-.7 6.017l-.032-.193c-.976-5.804-.828-16.982-4.07-21.779l.452 9.543c.167 3.015.438 5.99.301 9.016q-1.037-3.78-1.956-7.59c-3.947-2.23-8.527-2.949-12.589-5.1 4.486 4.914 10.501 9.78 14.165 15.228-1.924-.814-3.931-1.418-5.9-2.113-5.18-1.83-10.455-3.693-15.192-6.503 4.264 4.978 8.016 10.793 10.579 16.844-3.28-2.45-6.353-5.213-9.438-7.903-2.595-2.263-5.207-4.784-8.282-6.365 1.879 4.748 2.801 14.116 2.156 19.317-2.018-2.665-3.985-5.533-5.572-8.477-1.268-2.353-2.328-4.831-3.46-7.252.433 5.495.177 11.534-1.895 16.719-2.465-5.36-3.854-9.911-3.862-15.905-.003-2.35.29-4.69-.12-7.018-.863 6.116-1.489 11.946-4.559 17.455-.708 1.271-1.508 2.578-2.553 3.603-1.452-3.47-2.157-10.21-1.804-13.96.19-2.028.715-4.013 1.32-5.952-2.581 2.148-4.883 4.587-7.45 6.75-2.154 1.814-4.3 3.664-6.522 5.392-1.688 1.314-3.467 2.52-5.106 3.893 1.98-6.138 5.024-9.668 8.929-14.555.98-1.226 2.064-2.45 2.922-3.762-3.232 2.103-6.672 4.297-10.189 5.894-3.876 1.759-7.907 2.747-11.442 5.26 2.773-4.934 7.757-8.674 11.661-12.693.867-.892 1.94-1.81 2.648-2.817.318-.452.659-1.335.525-1.886-.28.16-.39.334-.58.585l.287.28c-.06.349-.242.565-.529.774-.232.169-.417.261-.709.284-.335-.557.09-1.353-.203-1.836l-.196.09-.014.155a3.2 3.2 0 0 1-.251.997c.118.46.638.787.511.967-.672.955-3.186 2.621-4.218 3.496q-2.033 1.725-3.89 3.637c.113-.534.218-1.05.505-1.525 1.068-1.768 3.415-2.742 4.041-3.682a.47.47 0 0 0 .06-.47c-.42.068-.97.857-1.322 1.18l-.756-1.736a75 75 0 0 1-2.554 2.652c-1.219.169-2.535 1.046-3.716 1.481-1.021 1.547-1.496 3.269-2.209 4.96-.054-1.514.09-2.951.3-4.448-1.015.689-1.604 1.717-2.573 2.413-.692 1.926-1.028 3.952-1.67 5.894.043-1.786.113-3.577.09-5.364q-.973.618-1.931 1.258c-.89 2.27-1.531 4.625-2.413 6.9.398-2.716.389-5.488.662-8.22.24-2.406.77-4.785.97-7.192-1.223 3.535-1.792 7.187-2.528 10.839q-1.231 6.158-2.854 12.225c-.27-4.508.048-8.901.452-13.393-.757 2.178-.898 4.816-1.289 7.09-.5 2.905-1.164 5.774-1.75 8.662-1.043-5.639.165-14.67 1.29-20.297-1.593 3.926-2.862 7.892-3.6 12.069-.584 3.302-.885 6.786-1.807 10.008-.67-4.402-.281-9.85.44-14.246-1.15 1.875-3.362 14.462-3.808 17.244h-.257c-.725-3.762-.888-7.748-.13-11.517.327-1.625.842-3.207 1.186-4.828l.064-.154-.064.154c-1.404 2.112-3.142 8.577-3.907 11.252-.136-1.39-.153-2.738.001-4.128 1.22-11.039 6.383-20.515 14.362-28.129 1.698-1.62 3.55-3.073 5.378-4.54l-2.345-.035c-1 1.832-2.506 3.268-3.617 5.025q.334-1.287.792-2.534.459-1.247 1.038-2.443l-1.61-.079c-1.556 2.69-4.097 6.941-6.04 9.26.577-1.72 1.124-3.454 1.743-5.16.44-1.214 1.213-2.7 1.388-3.962-.277-.076-.44-.074-.723-.024-.974.739-7.374 10.096-8.343 11.71q2.081-6.017 4.71-11.815l-1.647.007q-2.41 4.35-4.963 8.619c-.957 1.62-1.885 3.338-2.968 4.876.435-3.257 1.599-6.612 2.741-9.688.444-1.194 1.304-2.568 1.44-3.821-.315-.138-.358-.135-.7-.082a2.2 2.2 0 0 0-.673.736c-.62 1.023-1.106 2.173-1.662 3.234q-1.555 2.942-3.156 5.86l-3.562 6.469c-.793 1.416-1.652 2.82-2.338 4.292-.026-4.724 2.585-11.259 4.17-15.786.583-1.668 1.427-3.537 1.575-5.308-1.545 2.635-2.744 5.58-4.078 8.333q-3.254 6.635-6.779 13.13c.47-2.28 1.034-4.476 1.791-6.68.621-1.805 5.392-13.484 5.372-14.143-.308.01-.416.062-.622.302-.785.915-3.9 7.937-4.723 9.614q-3.286 6.729-6.888 13.295c.492-2.41 1-4.783 1.844-7.101 1.068-2.93 2.465-5.738 3.507-8.675-.987 1.33-1.698 2.95-2.453 4.424-1.479 2.889-2.967 5.766-4.666 8.532-.466.758-.918 1.609-1.464 2.309.375-3.372 5.099-13.355 6.535-16.81-1.436 2.044-2.504 4.469-3.648 6.688-1.862 3.614-3.742 7.084-6.049 10.436 1.141-4.272 3.044-8.38 5.01-12.327.673-1.351 1.577-2.68 2.107-4.088l.056-.074-.056.074c-2.188 2.212-7.01 11.2-8.45 14.187 1.352-7.844 5.523-14.824 10.608-20.823-3.454-.107-6.925-.01-10.38.005l-20.042.007c-3.864-.006-7.765.09-11.626-.058q6.933-11.635 13.689-23.372l30.279-51.642 44.752-75.561 25.552-43.074 6.281-10.646c1.3-2.23 2.546-4.513 3.934-6.688 2.25 3.556 4.221 7.281 6.375 10.895l19.593 33.384q2.669 4.58 5.29 9.188c1.106 1.94 2.158 3.955 3.388 5.817 1.63.277 3.246.823 4.817 1.33 7.6 2.449 14.962 6.628 19.673 13.237 3.239 4.543 5.123 9.734 5.816 15.254q-7.28-2.792-14.79-4.887c1.296 2.594 2.887 5.096 4.334 7.61l10.841 18.526 38.741 65.825 13.388 22.66c2.381 4.043 4.932 8.033 7.117 12.185l-24.909.044c-4.178-.004-8.395-.158-12.569.005 1.971 2.584 5.203 7.125 6.171 10.184-1.13-.937-2.049-2.472-3.091-3.556-2.2-2.287-4.562-4.38-6.825-6.597l-1.775.096c4.088 5.088 8.449 9.04 11.001 15.258-2.011-2.32-4.108-4.552-6.135-6.855.9 1.823 1.918 3.587 2.805 5.417 1.689 3.483 2.974 7.052 3.967 10.79-3.183-5.39-6.058-10.73-10.145-15.528.52 1.78 1.315 3.486 1.967 5.22 1.35 3.588 2.324 7.331 2.673 11.148-1.413-2.577-2.602-5.295-3.984-7.896-.893-1.68-2.117-3.368-2.837-5.115-.377-.915-.349-2.03-.559-2.995-.517-2.382-2.08-7.22-3.42-9.167-.22-.32-.483-.372-.841-.449zM129.784 26.84c.495.16.964.343 1.439.558.032-.83.135-1.775-.009-2.592-.362-2.057-2.106-4.264-3.186-6.053-.95 1.903-2.287 3.582-3.194 5.507.146 1.296.035 3.092.98 4.09l-.391.06c-.245.789.517 4.807.716 5.859 1.135-.349 1.626-1.35 2.777-1.693-.754.975-1.547 1.766-2.727 2.164.14.832.242 1.672.356 2.508l1.681-.662c.614.26 1.245.488 1.868.727-1.202-.015-2.32-.076-3.504.175.035.825.167 1.657.265 2.477q.142-.052.286-.1c1.232-.398 3.069-.042 4.204.532l-.028-2.865c-.476-.023-.878-.058-1.333-.203l-.062-.123c.468-.133.916-.024 1.386.049.026-.824.008-1.652.007-2.476-.689-.122-1.35-.318-2.02-.514.673-.035 1.339.005 2.01.038l-.022-2.312c-.748-.372-1.202-.716-1.71-1.39.573.161 1.11.386 1.658.613q.036-1.797.01-3.594c-.517-.229-.997-.444-1.457-.78m-6.103 34.08c-2.636-2.572-5.314-5.074-7.99-7.603-1.742-1.645-3.45-3.357-5.269-4.916-.623 1.108-1.398 2.155-1.981 3.278 1.277 1.21 2.666 2.286 3.999 3.433 1.461 1.259 2.862 2.594 4.298 3.883.8.718 1.67 1.405 2.424 2.171 3.264-.497 4.682-.327 7.388 1.664.387.285.755.564 1.177.796 5.74-1.331 10.654-2.807 16.599-3.312.694-3.161 1.647-6.183 2.701-9.24-.701-1.305-1.47-2.568-2.234-3.837-1.419 4.334-2.967 8.483-4.821 12.651.95-4.792 2.28-9.98 3.647-14.669-1.274-2.058-2.434-4.181-3.7-6.242-.15 3.81-2.137 15.428-3.594 18.615.398-4.521.767-9.035 1.238-13.55-.793-.519-1.513-1.19-2.162-1.88l.026-.144-.09.073.019-.118-.115-.008c.062.08.012.035.152.074.56.157 1.75 1.267 2.194 1.682.238-2.011.688-4.477.548-6.466-.188-2.682-3.161-6.3-4.502-8.645-.025.826-.306 6.032-.058 6.296.295.315.516.382.627.827l-.043.107-.14-.102c-.2-.139-.115-.09-.338-.18-.407.499-.464 5.545-.301 6.195.031.126.062.153.13.243.344.067.64.079.986.077-.32.188-.647.17-1.006.185-.44.52-.258 2.868-.267 3.615q-.216 5.241-.706 10.465l-.048-.194c-.268-1.152-.3-2.482-.403-3.662q-.35-3.95-.546-7.911c-.052-1.145-.003-2.4-.171-3.528-.052-.35-.097-.472-.37-.695-.389-.035-.85.163-1.168.119-.319-.044-.428-.497-.762-.173-.044.042-.165.246-.2.304l-.171-.075c-.468-.201-.9-.449-1.41-.229-.186.081-.207.088-.253.314-.162.803 1.185 10.049 1.365 11.635.163 1.439.266 2.888.39 4.331-.929-2.011-2.814-12.98-3.346-13.466q-.462-.07-.922-.152l.001-.174.118-.004c.279-.011.502-.017.762-.132 0-1.479-.657-3.2-.923-4.683-.225-1.262-.292-2.649-.616-3.876a.6.6 0 0 0-.19-.339c-.153-.16-.356-.298-.534-.431l.424-.127c.27-.912-.633-4.105-.783-5.263-1.683 2.6-3.57 5.326-4.921 8.11.94 2.2 8.038 21.228 7.957 22.368-1.512-2.994-3.05-6.006-4.477-9.04-1.008-2.147-1.852-4.36-2.967-6.455-.562-.059-1.55.954-2.058.608.421-.525 1.33-.787 1.958-1.019-.492-1.433-1.054-2.837-1.757-4.18-1.044 1.734-2.115 3.46-3.069 5.246.756 1.056 5.358 7.083 5.484 7.6-.227-.045-.13.011-.276-.159-.966-1.123-2.076-2.138-3.126-3.182-.978-.972-1.913-2.009-2.983-2.881-.401.627-.818 1.249-1.197 1.889.634.657 1.306 1.517 2.059 2.024l.299-.092c.041.167.061.348.102.511.19.752 8.565 9.183 9.891 11.646m20.274 29.551c1.58.349 3.166.96 4.709 1.46q4.07 1.347 8.175 2.583l13.37 4.034c2.587.805 5.175 1.58 7.69 2.598q-1.334-2.312-2.737-4.58c-9-2.54-17.753-5.95-26.594-8.986-3.122.555-6.214 1.247-9.314 1.911-1.517.326-3.056.725-4.591.94-.164 3.657.22 7.455 1.544 10.891 1.255 3.26 3.452 6.165 5.291 9.115 2.522 4.044 5.037 8.187 7.298 12.382 1.404 2.604 3.218 8.34 4.816 10.182 1.01 1.164 2.597 1.886 3.911 2.655 4.475 2.618 5.994 6.56 7.626 11.202l1.083-2.035c-1.653-2.626-2.785-5.463-4.267-8.17-.816-1.493-1.78-2.878-2.788-4.245-.388-.527-.846-1.275-1.415-1.61l-.397.038c-.68-.596-1.248-1.374-1.87-2.038-1.306-1.395-2.832-2.768-3.92-4.335-1.092-1.57-1.957-3.344-2.979-4.97 2.849 2.288 5.641 4.802 8.636 6.886 1.114.776 2.454.923 3.612 1.593 4.268 2.47 7.403 7.379 8.863 11.973l.912-1.51c-.504-.518-1.037-1.04-1.458-1.63-1.008-1.415-1.753-3.077-2.562-4.615q-1.585-3-3.263-5.95c-.765-1.358-1.529-2.76-2.577-3.925-1.047-1.163-2.522-2.034-3.744-3.016-4.3-3.453-8.63-6.883-12.74-10.564-.929-.833-2.239-1.797-2.963-2.802 1.155.474 3.804 2.506 5.016 3.321 4.123 2.775 8.26 5.603 12.454 8.266.87.552 1.864.934 2.802 1.354 2.143.96 4.14 2.07 5.793 3.766 3.25 3.335 4.46 6.959 6.565 10.94.36-.599.79-1.142 1.214-1.696-.852-.458-1.747-.912-2.371-1.673-.712-.869-1.151-2.23-1.602-3.26-1.51-3.451-2.853-6.831-4.035-10.404-1.978-1.358-4.201-2.398-6.236-3.68-4.822-3.036-9.527-6.241-14.258-9.413-1.828-1.224-3.946-2.333-5.61-3.769 2.951 1.365 5.771 3.002 8.67 4.47 5.254 2.66 10.664 5.255 15.691 8.317-.27-.789-.563-1.577-.79-2.38 6.212 2.34 6.83 2.516 9.554 8.533.559 1.235 1.145 2.48 1.587 3.763.378 1.097.624 2.39 1.131 3.42l.08.052-.08-.052c.01-1.631-1.098-3.698-1.371-5.398-.493-3.06-.396-6.336-.485-9.432-3.719-1.26-7.214-3.014-10.738-4.726q-7.943-3.782-15.656-8.012c-1.857-.998-4.562-2.137-6.127-3.428 1.152.314 2.317.9 3.431 1.351l6.769 2.732c4.564 1.829 9.134 3.603 13.668 5.508 2.894 1.216 5.788 2.406 8.53 3.944q-.034-1.707-.04-3.415c.769.504 1.5 1 2.123 1.686 3.582 3.947 3.512 13.009 3.234 18.089.646-2.745.797-5.713.522-8.517-.176-1.794-.474-3.596-.501-5.4-.023-1.573.478-3.379.17-4.914-.213-1.056-1.156-2.237-1.71-3.16-.312-.077-.573-.145-.862-.291l-.038-.12.499-.018-.056-.176c-2.485-.913-5.144-1.489-7.683-2.263-1.83-.558-5.75-2.114-7.317-2.286.042.029.08.066.127.087 3.29 1.448 6.738 2.62 10.092 3.94 1.277.502 2.633.954 3.847 1.591l.128.07c-8.368-1.452-18.6-6.365-26.51-9.737-2.15-.917-5.071-1.792-6.978-3.042m-53.212 4.49c-1.157.117-8.239 2.082-9.313 2.642l-.306.427c1.926-.55 8.228-2.257 9.619-3.069l.13-.075zM93 99.5l-.223.06c-2.397.559-5.117 1.795-7.462 2.648-2.608.95-5.353 1.759-7.904 2.83-.301.127-.606.234-.79.523-.131.204-.22.463-.309.688 3.805-1.926 8.07-3.229 12.046-4.777 1.396-.544 3.168-1.1 4.42-1.911zl.25-.11zm60.626 7.653.185.052.242.222.071.046-.071-.046-.242-.222zm.875.498.186.052.266.244.103.028c.801.72 1.89 1.301 2.806 1.87 2.881 1.793 6.045 3.389 8.775 5.381-.225-.576-.55-1.08-.875-1.603-3.507-1.602-7.313-4.35-10.706-5.648l-.103-.028-.266-.245zm-2.352 6.6.16.194.266.08c.098.081.186.165.3.225.127.1.227.181.375.25l.08.079c.946 1.115 5.592 4.494 6.876 5.263-.034-.115-.067-.23-.111-.343-.234-.595-5.872-4.504-6.764-4.92l-.081-.079-.375-.25-.3-.226-.267-.08zm16.432.243c-.316-.615.188-.924-.313-1.07-.068-.019-.139-.02-.208-.031-.083.403-.071.688.176 1.048.075.108.119.128.216.193zl.306-.203-.02-.242-.151.037zm-31.491-4.831c1.727 2.93 3.779 5.402 6.204 7.766l.065.06-.065-.06c-.456-1.206-1.395-2.469-2.071-3.57l-4.052-6.56zm33.676 8.136.225-.176c-.363-.074-.639.027-.993.11l-.005-.064q.075-.025.145-.056c.219-.103.29-.222.422-.414-.036-.228.02-.23-.137-.335-.446-.299-1.083-.057-1.236-.677-.076-.31-.089-.462.053-.756.062-.126.22-.281.309-.382-.14-.215-.238-.261-.474-.355l-.28.061c-.138.268-.23.449-.125.755.023.066.149.306.173.356.44.885.525 2.593 1.137 3.27.107.646.33 1.495.635 2.076.252.75.48 1.476.9 2.153.372.764.877 2.647 1.602 3.045.176.097.25.008.418-.06l.09-.263c-.162-.47-.452-.443-.7-.827.144-.121.248-.2.327-.376.077-.174-.025-.294-.087-.463-.318-.2-.347-.143-.723-.072.095-.225.066-.121.111-.386.046-.272.111-.283.296-.478-.157-.648-.617-1.21-.648-1.855-.014-.29-.034-.49-.143-.765-.348-.141-1.069.223-1.443.347.225-.489.813-.694.968-1.246.135-.476-.15-1.074-.339-1.5-.111-.229-.325-.46-.478-.667m-85.975 1.957-.108-.148a5 5 0 0 1-.315-.53c-.223.11-.325.324-.38.568-.12.536.345 1.25-.047 1.641l-.094-.179c-.121-.227-.063-.142-.198-.305-1.276 2.037-1.82 12.367-1.124 14.77.053.183.06.184.13.33.123-.23.059-.517.007-.763-.254-1.849-.125-10.548.607-11.918l.364.257c.258-.179.174-.062.269-.337-.178-.397-.419-.816-.404-1.258l.07-.1c.321.305.522.715.742 1.097.276-.854.187-1.918.528-2.68.037-.08.066-.165.099-.247za3.7 3.7 0 0 0 .825-.882c.154-.234.129-.413.072-.67l-.475-.23c-.034-.12-.107-.219-.171-.326-.133.113-.139.1-.233.258-.353.591-.164 1.227-.018 1.85m.544 1.606-.064.138zc.515-.967 1.348-2.452 1.438-3.533-.66.654-1.41 2.605-1.437 3.533m7.874 2.079-.055.183zl.165-.19zm69.436-1.404c-.14-.197-.175-.245-.397-.36.056.616.977 1.756 1.416 2.248.539.582.683 1.847 1.442 2.165.31-.155.341-.249.528-.549l-.32-.296a2.4 2.4 0 0 1-.515-.128l-.055-.289-.02.117c-.031-.491.145-.965.091-1.478l-.165-.129c-.407.085-.67.334-.986.587a4 4 0 0 0-.039-.893c-.08-.469-.17-.985-.58-1.271l.133.803c-.286-.084-.362-.293-.533-.527m3.484 2.158a1.6 1.6 0 0 0-.39.379c.014.179.013.432.077.599.12.31.224.327.51.428l.037-.122a2.7 2.7 0 0 1-.218-.82c.258-.213.407-.128.726-.106-.004.31-.06.727.088 1.004.078.146.218.146.363.195.056-.564-.126-.768-.451-1.198-.501-.474-.779-.96-1.39-1.34l-.069.074.129.165.01-.156-.188-.064c.219.379.46.652.767.962m-12.983.518.223.17.18.161.052.05c.694.996 1.944 2.382 2.976 3.026.043-.195.089-.335.034-.534-.17-.612-2.423-2.13-3.01-2.492l-.052-.05-.18-.161zm-89.293 2.668c.016.068.107.18.146.242.179.232.064.167.334.214l.38-.411c-.149-.095-.05-.041-.316-.126l-.398.323c-.021-.13.002-.04-.146-.243m104.236-1.148c.215.73.598 1.208 1.096 1.761l.055.382.198.123c.068.586.19.857.593 1.272-.136-.499-.29-.852-.593-1.272-.05-.287-.045-.305-.253-.504a4.2 4.2 0 0 0-1.096-1.762m-95.461 1.7c.254.276.502.287.859.387l.196.078.066.077-.066-.077-.196-.078c-.301-.258-.467-.347-.86-.387m94.733.425q.004-.1.006-.203c.005-.302-.061-.574-.13-.867l-.036-.158c-.063-.265-.092-.448-.314-.63l-.178-.035c-.139.299-.037.543.01.852.036.228.035.138-.036.37-.288-.174-.516-.416-.854-.349-.012.628 1.178 2.665 1.646 3.2.262-.055.142-.006.361-.143l.1.185-.305.222c.202.832.802 1.708 1.211 2.468l.246-.022c.19-.343.242-.634.129-1.022-.069-.237-.102-.324-.288-.493-.294.143-.149.064-.435.239l-.103-.158c.14-.224.284-.438.44-.651-.072-.256-.202-.415-.362-.623.006-.203-.026-.257.098-.426.255-.346.461-.596.387-1.052-.06-.364-.207-.763-.523-.976-.16-.108-.227-.057-.406-.033l-.127.182c.215.3.594.705.596 1.078-.138.216-.218.367-.427.52l-.165-.11c-.088-.455-.151-.936-.32-1.368zm-8.718-.107.131.038c.358.38.688.588 1.177.767l.067.095.067.061c.236.53.706 1.059 1.054 1.526.006-.248.019-.463-.081-.697-.187-.438-.572-.631-.973-.828l-.067-.062-.067-.095c-.357-.434-.656-.59-1.177-.767zm19.014.614-.138.134zl.194-.268c.022-.35-.088-.409-.29-.685-.018.026-.04.05-.052.079-.146.317.035.566.148.873M74.482 130.36l.143.14.312.156.063.063-.063-.063-.312-.156zm84.562-.295c-.066.106-.03.03-.05.247l.367.118c.58 1.262 2.088 2.69 2.925 3.887.534.766.928 1.898 1.59 2.514.31-.15.453-.43.652-.703-.193-.306-.518-.496-.651-.843-.337-.876-2.45-3.584-3.158-4.17l-.297.264c-.228-.12-.294-.734-.407-1-.322-.118-.33-.077-.654.05a3 3 0 0 0-.101-.443zm-63.324.824c-.298.135-.436.227-.634.49-.034.286-.07.372.098.62.045.066.124.147.18.207l.137.25c.181-.142.213-.316.23-.543.025-.336.002-.687-.01-1.024.048-.018.101-.029.146-.055.215-.124.302-.27.565-.311.187-.03.251.077.395.18.152.529.346 1.01.577 1.51-.009-.63-.037-1.6-.389-2.13-.143-.012-.072.015-.195-.122l.309-.687-.12-.119c-.526.188-1.004 1.245-1.288 1.734m-16.82.237.1.124c.1.154.187.284.314.417l.037.082-.037-.082c-.09-.145-.21-.281-.314-.417zm.501.75.055.184.231.242.044.072-.044-.072-.231-.242zm.375.625.055.184.223.249.05.065-.05-.065-.223-.249zm.37.625.055.185.247.267.052.159-.052-.159-.247-.267zm14.615 2.014c-.362-.14-.498-.258-.88-.152-.141.27-.182.479-.22.781.395.087.44.116.807-.037.12-.202.225-.365.293-.591.093-.124.232-.286.295-.433.15-.349-.056-.803-.164-1.144l-.177.093c-.079.47.013 1.006.046 1.483m-18.869-.014.147.224.468.035.166.17.057.04c.557.581 1.343.869 2.11 1.036-.57-.512-1.346-.939-2.11-1.036l-.057-.04-.166-.17-.468-.035zm1.109 2.03.185.06.188.138-.188-.138zm11.98 6.83-.075.138zc.245-.654.727-1.837.777-2.507.008-.098-.157-.429-.198-.54l-.008-.038c-.363.401-.552 2.498-.57 3.085m-.23 2.14.187.179.047.185-.047-.185zm11.68-.714c-.335.302-.661.546-.834.972.073.397.166.42.458.682l.096.081.092.086-.092-.086-.096-.08c.052-.2.057-.256-.011-.458-.089-.263-.066-.098-.052-.418a4 4 0 0 0 .538-.106c.084-.313.024-.367-.098-.673m82.887 2.189-.164.048a7.4 7.4 0 0 0-1.492.631 4.3 4.3 0 0 1-.711-.23l-.338.063a1.7 1.7 0 0 0-.183.556c-.364-.003-.58-.507-.918-.193-.23.214-.32.546-.43.833l-.2.048q-.293-.332-.566-.681l-.281.019c-.28.339.002.779-.35.922a3.5 3.5 0 0 1-.976-.511l-.204-.039-.105.23c.148.372.575.7.93.874.7.344 2.163-.45 2.854-.736 1.056-.436 2.312-1.036 3.134-1.834l.056-.072zm-92.919 1.15.048.073c.267.865 1.346 3.338 1.992 3.916l.086.191.141.275.119.24.053.108c.167.756.553 1.63 1.094 2.193.05.184.054.24.193.379l.177.353.103.207.134.254.063.06-.063-.06-.133-.254-.104-.207-.177-.353c-.073-.267-.013-.139-.193-.38-.235-.752-.607-1.568-1.094-2.192l-.053-.108-.118-.24-.142-.275-.086-.19c-.226-1.096-1.153-3.165-1.992-3.917zm-17.181-.784-.231-.04-.07.079c1.797.8 6.9.594 9.09.733 1.475.094 2.954.316 4.414.54l.078.065-.078-.065c-1.181-.86-3.374-1.677-4.862-1.779-1.366-.094-2.822.224-4.187.346-1.382.124-2.768.132-4.154.121m93.517 2.086c-.171.137-.131.054-.163.223.175-.132.135-.049.163-.223.88-.137 1.402-.502 2.208-.815.36.085.612.144.985.061.328-.237.48-.434.68-.784l-.218-.171c-.926-.012-2.924 1.129-3.655 1.709m-91.08.241c-.369-.033-.678-.139-1.005.048l.06.187c.194.058.483.214.659.107.159-.097.2-.184.285-.342.259-.005.262.026.49-.127-.48-.42-1.503-.485-2.122-.801l-.124-.066c-.237-.02-.306-.071-.514.059.317.486 1.62.58 2.177.882q.048.026.093.053m82.877-.168.062.186.125.062-.125-.062zm9.643.01c-.222.204-.316.22-.382.523l.293.32.242.315c.828.371 1.958-.147 2.797-.338.146.075.337.192.497.24.307.092.367.076.634-.06.032-.247.048-.353.173-.576.421.103.173.315.507.567a3.5 3.5 0 0 0 1.05-.275l-.024-.122-.281-.028c-.202-.214-.346-.48-.539-.703-.216-.25-.318-.306-.642-.322a3 3 0 0 0-.308.482l-.097.195c-.503.041-.67-.406-1.135-.407a21 21 0 0 0-.406.855l-.208-.002-.348-.374c-.249.008-.148-.021-.375.09-.485.237-.831.375-1.382.446l-.155.017c.18-.203.289-.291.355-.56zm-72.034 3.088c-.097-.394-.18-.548-.053-.94.305-.122.523-.15.845-.168-.064-.229-.128-.29-.282-.463l-.033-.679-.172-.06c-.085.306-.128.57-.153.884l-.142.127c-.204.19-.445.355-.465.645-.025.36.053.598.26.886-.002.044.007.09-.005.133-.347 1.213-.251 1.775.15 2.975-.014-.922.053-1.613.378-2.48l.061.084.168-.416c-.05-.286-.064-.335-.25-.556zm6.511-.924c-.025.09-.06.21-.07.3-.042.39.1.472.324.757.117.231.197.378.4.541l.433-.084-.013-.278c-.235-.246-.49-.168-.82-.179.028-.36.03-.621-.047-.98zm-44.041 3.893c-3.38.625-8.542 3.123-11.26 5.177 2.122-3.702 6.327-6.442 10.227-7.96-3.098.648-8.9 2.424-11.4 4.258-.549.404-.96.976-1.33 1.541-1.278 1.946-2.298 4.061-3.58 6.01l-.248.413.061.132.235.073.038-.157.312-.06.147.205c3.353-.07 6.706-.01 10.058-.062 3.473-3.135 6.964-6.468 11.115-8.696-3.25.931-8.986 3.54-11.431 5.718 1.963-2.737 4.23-4.746 7.056-6.591l.139-.068zm36.036.933.051.188.25.264.083.24.136.192-.136-.193-.082-.24-.25-.263zm12.469.466c-.078.583.381 1.326.601 1.883l.127.054c.264-.339.362-.359.32-.8-.261-.454-.669-.783-1.048-1.137.403.035.718.17 1.13.077l.072-.322-.458-.243c-.366.07-.475.238-.744.488m-9.741.408-.1.124zl.072-.216zm-.375.75-.168.358-.034.156.034-.156zl.124-.25zm-27.276.087c-3.387.305-14.193 4.63-16.68 6.921 1.442.07 2.905.05 4.348-.004q2.036-1.442 4.176-2.725t4.371-2.4c1.238-.626 2.575-1.133 3.785-1.792l.15-.058zm23.1.793c-.352-.148-.544-.284-.927-.235l-.302.236c.26.183.375.326.713.258.163-.033.37-.176.515-.259l.051-.104zm108.554.625.076.042 2.677 3.117c-3.056-1.906-6.177-3.761-9.58-4.99 1.367 1.1 2.905 2.02 4.308 3.079 1.692 1.277 3.227 2.701 4.773 4.146 3.945.065 7.929.213 11.871.044-1.355-2.088-3.008-5.344-4.627-7.098-.758-.821-6.394-3.58-7.733-4.159a23 23 0 0 0-3.235-1.143c-.33-.054-.596-.153-.916-.039 1.125.868 2.971 1.399 4.26 2.051 3.17 1.605 6.07 3.476 8.807 5.744-4.869-1.861-9.49-3.998-14.612-5.14 4.74 2.683 8.844 5.347 12.168 9.757-2.246-1.61-5.674-4.428-8.16-5.369zm-97.746 1.44-.13.024zc.06-.025.121-.044.177-.076.285-.16.326-.57.389-.859-.318.323-.426.504-.566.935m-29.074.404c-1.542.282-5.991 2.63-7.35 3.625.56.047 1.089.07 1.65.027 1.434-1.052 4.758-2.759 5.7-3.653l.066-.067zm-9.495 2.239c-.81.309-1.683.83-2.318 1.421.97-.072 1.682-.696 2.318-1.421l.061-.06zm57.113-13.9c.628 1.38 1.882 2.698 2.853 3.863 2.955 3.54 6.343 6.855 10.117 9.521 1.91 1.35 3.977 2.457 5.993 3.636.941.551 1.835 1.175 2.778 1.724l.054.061-.054-.061c-1.419-1.865-6.414-5.076-8.52-6.803-1.99-1.633-3.982-3.316-5.853-5.083-2.436-2.3-4.766-4.743-7.368-6.858m-13.561 67.136c-2.652.72-14.499 6.763-15.606 8.416-.029.043-.048.091-.072.137.615-.15 1.15-.45 1.707-.741 2.862-1.502 5.61-3.225 8.444-4.782 1.438-.79 4.433-2.044 5.527-3.03l.126-.069zm46.666 3.389.096.205.62.132c.239.187.11.125.378.2a1.6 1.6 0 0 1-.186.374c-.185.275-.226.303-.532.347-.458-.176-.598-.512-.908-.855a6 6 0 0 1-.503.39c-.41-.113-.449-.344-.66-.701l-.583.174c-.438-.156-.62-.611-1.006-.87l-.3.236c-1.283-.299-3.416-1.415-4.757-1.948 2.306 1.866 5.864 3.22 8.559 4.46 2.814 1.334 5.92 2.313 8.84 3.418-1.342-1.09-2.806-1.644-4.314-2.44-.486-.258-.702-.297-.873-.848l-.15-.063-.427.44c-.41-.12-.718-.498-1.027-.79-.281.015-.46.007-.725-.088-.154-.175-.231-.266-.286-.5-.053-.224-.049-.141.085-.348l.367-.034c-.218-.249-.31-.249-.614-.354-.137-.14-.195-.147-.377-.2-.255-.197-.394-.294-.717-.337m2.115 1.175.061.163.415.105.189.129.252.12.046.064-.046-.064-.252-.12-.189-.129-.415-.105zm-62.239 1.053-.13.035zc.156-.117.274-.147.32-.35.094-.407-.083-.751-.306-1.078-.19.182-.24.218-.316.478.148.253.254.432.284.728zm35.246 1.069.066.055c1.303 2.967 3.605 5.945 5.49 8.595.554.778 1.08 1.67 1.715 2.377l.047.082-.047-.082c-.013-.116-.014-.159-.035-.266-.449-2.319-5.204-9.327-7.17-10.706zm-39.296 1.903-.413-.323c-.494.134-.731.614-1.023 1.019l.163.232c.47-.264.822-.645 1.273-.928l.59-.335c.14-.377.017-.563-.092-.944l-.012-.027-.115-.015.1.093-.275-.02c-.16.425-.178.797-.196 1.248m47.839-6.562c1.221.889 2.616 1.578 3.946 2.293 2.46 1.322 4.949 2.576 7.433 3.852 1.528.785 3.121 1.847 4.732 2.413l.067.063-.067-.062c-1.91-2.24-13.053-7.894-16.111-8.559m-43.127 15.216-.194.041zl.16-.192zm51.907-7.31c.083.203.206.334.357.493.16.168.158.327.213.55l-.353.235.075-.005c-.897-.043-1.112-2.31-1.882-2.855l-.191.096c-.028.622.64 1.63.949 2.167.261.453.573 1.04 1.013 1.338 2.275 1.54 6.825 2.938 9.53 4 1.798.706 3.632 1.632 5.493 2.127l.07.066-.07-.066c-1.053-1.057-2.906-1.861-4.208-2.643l.064.078-.262-.1-.35.162c-.509-.24-.358-.823-.86-1.025-.157.232-.101.135-.23.385l-.088.175-.232.003c-.269-.212-.315-.216-.4-.543.084-.262.169-.486.165-.763-.45-.006-.442.724-.963.862l-.196-.185.029-.696-.146-.128c-.086.109-.196.273-.306.365-.302.254-.455.174-.818.139-.15-.342-.272-.563-.522-.839-.383-.015-.251.25-.559.445-.333-.19-.467-.705-.61-1.052l-.241-.015-.45.566-.312-.072c-.253-.346-.235-.585-.287-1.005-.255-.151-.612.318-1.146.326-.38-.243-.125-.476-.434-.806-.479-.055-.946.127-1.403.257.141-.51.413-.972.379-1.514-.26-.325-.44-.364-.819-.524m-26.342 9.25-.263.31c.142.205.058.147.21.221l.152-.028zl.332-.085c-.094 0-.24.059-.332.085m13.91.244c-.032.141.025.26.062.398.443.262.719-.282 1.149-.343.171-.025.505.072.688.098-.487.763-1.141 1.214-1.777 1.845.541-.129 1.584-.659 2.037-.453-.084.328-.21.497-.427.76-.182.22-.254.286-.337.565.225.171.348.208.61.287l.105.031.043.193-.393.483c.093.313.396.435.657.621.056.107.093.274.13.39l-.304.464c.204.201.5.291.774.336q.006-.048.009-.097c0-.044-.769-4.582-.828-4.827-.06-.247-.122-.408-.299-.598-.175-.344-.32-.625-.602-.9l-.253.013a7 7 0 0 1-1.044.734m-27.65-.018c-.089.118-.04.035-.089.277l.36.394a2 2 0 0 1-.137.602c-.288.219-1.202 1.226-1.453 1.278-.233.047-.275-.21-.622-.081.057.265.023.189.12.399l.062.126c-.326.265-.76.298-1.09.55-.24.182-.234.251-.279.531.355-.013.666-.287.971-.46.605-.343.843-.807 1.342-1.245.485-.426 1.15-.742 1.676-1.148 1.965-1.517 6.125-4.912 7.349-6.927-.186.147-.378.286-.567.429-1.257-.041-.579.625-1.365 1.037-.226-.144-.152-.081-.334-.252l-.119-.115-.103.113.056.69c-.167.293-.2.344-.49.513q-.327-.12-.657-.23l-.114.154c.057.246.078.478.093.73-.171.297-.149.285-.479.378-.37-.103-.49-.227-.748-.494-.126-.36-.023-.675.049-1.037l.037-.182c-.118.053-.338.132-.443.22-.194.162-.221.215-.216.458.226.346.643.88.642 1.315-.002.481-.365.713-.67 1.044-.207-.274-.42-.529-.529-.86a8 8 0 0 0-.24-.66c-.261.098-.289.247-.437.474l.056.192c.154.124.34.255.471.403.242.275.226.318.187.66-.207.297-.352.48-.655.691l-.54-.195c-.188.153-.132.796-.198 1.073l-.22.06-.406-.234c-.013-.258-.03-.511-.062-.768zm-3.222 4.45-.243.084-.053.087.053-.087zl.053-.183zm24.434 1.197.034.146.235.099c.143.168.26.385.382.57l.178-.004.347-.48c-.083-.265-.068-.356-.286-.54a2.6 2.6 0 0 1-.463.363l-.158.091c-.076-.108-.165-.166-.27-.245m-.851-230.28q-4.642 8.333-9.63 16.464l-12.672 21.14-45.186 76.388-32.31 55.027-10.432 17.85c-1.9 3.241-3.74 6.657-5.844 9.762l232.116.006c-1.395-2.833-3.15-5.555-4.733-8.292q-4.503-7.86-9.125-15.652l-24.748-41.803c-6.544-10.956-13.043-21.979-19.351-33.072-4.624-8.13-8.98-16.357-13.974-24.28l-1.489-.317q4.914 8.097 9.662 16.291c2.054 3.606 3.992 7.276 6.06 10.877 3.179 5.533 6.527 10.976 9.664 16.531 4.27 7.56 8.765 14.95 13.19 22.413l20.545 34.903c2.238 3.844 4.437 7.721 6.718 11.539 1.91 3.198 4.01 6.42 5.644 9.769l-228.133-.004L95.034 70.298l20.227-34.068c4.256-7.117 8.659-14.17 12.715-21.406 1.673 2.515 3.173 5.157 4.7 7.763l7.444 12.804c4.848 8.309 9.962 16.494 14.621 24.912l1.37.216c-1.189-2.656-2.912-5.224-4.376-7.743l-9.722-16.482q-5.359-9.324-10.87-18.558c-.525-.9-2.662-4.964-3.138-5.386m20.058 40.477c-1.248 2.409-2.285 4.955-3.391 7.433.697-.064 1.394-.142 2.095-.155l1.296-.168c.703-1.208 1.395-2.453 1.99-3.72-.55-1.036-1.16-2.581-1.99-3.39m-40.622.37c-.679 1.121-1.328 2.243-1.909 3.42a90 90 0 0 1 9.63 5.908l1.432-.59a53 53 0 0 1 2.21-.78c-3.773-2.63-7.484-5.499-11.364-7.959m43.341 4.493-1.437 2.323 1.468.016 1.402-.007c-.386-.698-.848-1.811-1.433-2.332m-46.02.246a45 45 0 0 0-2.031 3.175c1.676.632 3.366 1.246 5.02 1.934 1.244.517 2.48 1.13 3.753 1.573.224.077.359.14.582.032.227-.11.395-.233.595-.384l2.093-1.438c-2.064-1.135-4.234-2.102-6.358-3.122-1.196-.574-2.424-1.284-3.653-1.77m43.612 3.745q-2.932.12-5.85.433c-3.095.345-6.16.913-9.219 1.49-1.356.256-2.832.436-4.142.873-.488.163-1.044.393-1.387.794-.961 1.122-.453 4.564-.283 5.916.369 2.94 1.165 5.76 2.01 8.59 2.54-.089 5.054-.508 7.56-.909 7.693-1.23 15.11-3.073 22.968-2.598 4.697.405 9.174 1.342 13.657 2.813-1.821-1.972-3.683-4.66-3.516-7.477.041-.69.249-1.329.77-1.804.728-.663 1.868-.817 2.812-.75 1.295.091 2.563.534 3.807.882-4.936-3.72-15.724-6.908-21.853-7.83-2.422-.365-4.887-.448-7.334-.423m-46.343.76c-.723 1.11-1.457 2.21-2.087 3.376 1.07.215 8.399 2.008 8.948 1.805l.213-.213a37 37 0 0 1 2.6-2.386c-3.211-.891-6.508-1.556-9.674-2.581m25.074 2.447c-1.737 1.255-2.887 2.835-3.241 4.986-.377 2.29.635 3.672 1.115 5.758.554 2.412-.3 4.88-2.316 6.328-1.47 1.056-3.41 1.551-5.198 1.216q-.145-.026-.29-.06-.143-.033-.285-.073t-.281-.088q-.14-.047-.277-.102t-.272-.115-.265-.129q-.132-.067-.259-.141t-.251-.155-.243-.166q-.12-.087-.235-.18-.115-.091-.225-.19-.111-.097-.216-.2-.106-.104-.206-.212-.1-.109-.194-.222-.095-.114-.183-.231-.09-.118-.172-.24-.083-.123-.16-.25-.075-.128-.145-.259t-.133-.266q-.063-.134-.119-.272-.056-.137-.105-.277t-.09-.283-.076-.287-.062-.29-.046-.293-.031-.296-.016-.296-.001-.297.014-.296.03-.296.044-.293.06-.291c.362-1.636 1.242-2.968 2.676-3.864 1.018-.636 2.597-1.163 3.788-.729.124.046.147.072.24.141l-.074-.263-.14.444q-.075-.008-.15-.012c-1.317-.087-2.631.537-3.602 1.402-1.105.985-1.845 2.424-1.923 3.91-.069 1.326.453 2.616 1.37 3.573 1.017 1.062 2.465 1.517 3.911 1.488q.138-.001.276-.01.137-.008.274-.024.138-.016.274-.038t.27-.052q.135-.029.269-.065.133-.036.264-.079.131-.042.26-.091.129-.05.255-.105.127-.055.25-.118.123-.061.243-.13.12-.067.237-.141t.229-.154.22-.165q.11-.085.213-.176.104-.09.204-.186t.193-.197c.911-.958 1.542-2.22 1.507-3.562-.041-1.552-.908-2.666-1.374-4.067-.514-1.543-.524-3.495-.484-5.105-4.698.959-8.472 3.082-11.141 7.104-1.534 2.31-2.817 5.094-3.453 7.805-.952 3.587-1.471 7.251-2.155 10.895-.46 2.445-1.142 4.918-1.276 7.406-.08 1.492.11 2.926.35 4.394.21-2.528.742-4.72 1.963-6.952-.25 2.627-.355 5.213 1.459 7.377 2.59 3.09 9.403 3.594 13.203 3.829 3.668.226 8.857.64 11.776-2.037 1-.918 1.468-1.877 1.492-3.217.043-2.331-.853-4.655-1.3-6.922-.371-1.888-.496-3.799-.627-5.715-2.18-.744-3.622-1.843-4.646-3.926-1.66-3.379-.87-6.203-1.204-9.68-.259-2.692-.921-4.98-.736-7.759.093-1.4 1.013-4.537.95-5.47M99.16 67.335c-.712 1.114-1.437 2.219-2.073 3.377q4.124.276 8.195.996a4 4 0 0 0 .437-.468c.883-1.112 1.783-2.204 2.799-3.201-3.127-.109-6.243-.424-9.358-.704m3.469 4.738c-2.14.11-4.294.061-6.436.033L94.5 75.105l2.511.03 6.323.124 1.758-3.228c-.832-.03-1.634-.046-2.463.042m.472 3.492c-3.091.466-6.331.782-9.46.832-.403.7-1.691 2.499-1.667 3.245q4.83-.266 9.665-.45c.408-.956 1.348-2.652 1.462-3.627m51.156 2.248c-8.281.6-16.35 3.008-24.644 3.444.153 2.362.28 5.585 2.248 7.24.653.55 1.603.437 2.4.338 2.178-.268 4.375-.888 6.516-1.372q6.11-1.398 12.285-2.474c1.773-.31 3.637-.725 5.432-.837 10.186-1.44 16.949-.027 26.611 2.84-2.447-1.61-4.964-3.229-7.597-4.521-6.92-3.396-15.529-5.339-23.251-4.659m-52.992 1.871c-3.466.308-6.984.912-10.415 1.502-.407.692-1.94 3.015-1.908 3.627l.11-.004c3.784-.492 7.594-.769 11.371-1.271.181-.679 1.06-3.37.94-3.82zm26.86.014c-.523 2.285.05 5.833 1.309 7.836.392.624.866 1.182 1.487 1.587q-.038-.088-.078-.175c-.181-.392-.487-.711-.714-1.077-.643-1.039-1.18-2.227-1.393-3.436-.19-1.08-.092-3.968-.61-4.736M100.147 83.9q-6.137 1.44-12.378 2.326c-.39.996-2.28 3.73-2.35 4.338l.132.016c4.678-.86 9.446-2.08 14.182-2.495.117-.84.707-3.544.511-4.162zm65.338 1.274c-1.908.141-3.796.345-5.695.575 1.785.337 3.57.697 5.363.988 1.553.237 3.127.444 4.667.757-.45-.748-.877-1.532-1.414-2.22a26 26 0 0 0-2.921-.1m-9.7 1.122c-2.054.224-4.07.675-6.117.942 6.314 1.597 12.562 3.5 18.931 4.877 1.477.33 2.948.646 4.39 1.11q-1.056-2.043-2.337-3.953-5.187-1.1-10.388-2.141c-1.242-.255-3.287-.95-4.48-.835m-56.707 2.085c-4.78 1.405-9.646 2.775-14.556 3.635-.823 1.315-1.965 2.8-2.509 4.238.271.132.358.046.642-.022 5.577-1.407 11.106-2.904 16.779-3.888.052-.981.477-3.056.144-3.915a1.4 1.4 0 0 0-.5-.048m66.342 4.111c2.985 1.152 6.114 1.93 9.12 3.032l-.79-1.21c-2.289-.39-6.333-1.784-8.33-1.822m-66.192.136c-6.03 2.2-12.332 4.317-18.494 6.107-1.137 1.726-2.306 3.462-3.263 5.297 7.154-2.384 14.234-4.843 21.461-7.007-7.302 4.06-15.316 6.76-23.077 9.772-.817 1.3-2.019 2.89-2.391 4.382-.31 1.238.84 6.598 1.187 8.117q.209.904.457 1.798l.165.401c.231-1.057-.154-2.823-.238-3.963-.2-2.7-.175-8.034 2.384-9.73.607-.403 1.439-.645 2.163-.483.654.147 1.135.605 1.452 1.177.433.78.386 1.442.328 2.302 4.655-1.95 9.401-3.806 14.115-5.616 1.074-.412 2.22-.656 3.28-1.091.276-.113.365-.162.557-.398l-.044-.141.095.048-.084-.277.12.15-.117-.143c-1.123.147-2.494 1.016-3.58 1.445l-8.868 3.476c-1.795.702-3.583 1.475-5.42 2.057 1.826-1.245 3.898-2.05 5.92-2.922 4.118-1.775 8.44-3.325 12.444-5.322-.048-1.37-.106-8.614-.36-9.401zm53.931 7.308h.153zm.25.124h.153zm.25.126h.153zm.312.124h.216zm.313.126h.153zm.25.124h.153zm.25.126h.153zm.25.124h.153zm3.474 1.564c2.727 1.471 5.568 2.753 8.353 4.112 2.68 1.308 5.377 2.747 8.133 3.876-.001-.457.05-.949-.17-1.362-1.36-.791-3.088-1.272-4.558-1.881-2.213-.917-10.032-4.54-11.758-4.745m-52.616 1.206c-.011 2.126.621 3.925 2.142 5.45 3.39 3.4 8.284 3.21 12.733 3.508 1.953.131 3.978.423 5.93.4 1.787-.022 3.834-.41 5.108-1.758.348-.368.655-.783.925-1.211l.754-1.381c-1.168.804-2.317 1.555-3.681 1.98-3.917 1.222-11.049.46-15.122-.297-2.674-.497-5.932-1.303-7.56-3.711-.636-.942-.844-1.933-1.23-2.98m-6.917.805q-5.354 2.148-10.734 4.228c-2.283.864-4.75 1.592-6.928 2.693-1.516 5.83-.713 9.098-.606 14.75.27-1.356.602-2.691.94-4.03.837-3.549 1.823-6.123 4.403-8.798.697-.724 1.464-1.487 2.33-2.008.467-.281 1.081-.561 1.637-.417.318.082.482.26.63.542.511.98-.049 2.617-.416 3.577 2.507-1.619 5.091-3.462 7.833-4.644.139-.826 1.143-5.368.911-5.893m36.752 1.84c-1.261 3.321-1.401 4.208-3.685 7.001.108.121.049.103.144.116 1.347-.352 2.023-.953 2.733-2.164.764-1.304 1.357-3.13.97-4.63a.7.7 0 0 0-.162-.323m17.683.835h.152zm.875.5h.152zm27.566.752c-.03 1.576-.117 3.174.05 4.742l.07.069c.034-.692-.148-1.855.36-2.379l.339-.078c.478.54.512 5.043.654 6.177q.1.948.212 1.893l-.079-.044.102.202c.316-.416.226-5.34.135-6.095-.16-1.323-.911-3.483-1.843-4.487m-5.363.146c.132.666.326 1.499.844 1.975-.175-.566-.371-1.614-.844-1.975m-98.036.885c-.204.355-.598.862-.562 1.279l.242.436-.064.215-.411-.063c-.155.164-.163.265-.16.49.004.278.177.542.31.78l-.019.289c-.257.088-.117.07-.42.03-.097.256-.117.345-.008.619.042.107.15.289.21.394-.19.637-.675 1.343-.376 2.018.25.087.123.05.378.11-.108.21-.231.376-.38.559-.103 2.615.087 6.94.926 9.394l.114.048c-.012-1.412-.181-2.827-.186-4.248-.005-1.12.194-2.285.065-3.396-.213-.127-.237-.128-.471-.129l-.029-.189.102-.05q.184-.092.361-.198c.115-.892.388-2.447-.164-3.173l.3-.19c.038-.212.02-.351-.012-.558-.157-1 .245-3.014.532-4.006-.085-.168-.147-.323-.278-.46m1.13.398.105.07zm96.891.809c.006.852-.07 1.813.114 2.642l.24.106c.099-.792.11-2.073-.354-2.748m-97.083.337.037.123.064-.056-.026-.1zm98.18.174h.114zm-79.833.067c-2.587 1.304-5.13 2.761-7.635 4.217-.148.338-.45.802-.347 1.148.575-.53 1.153-1.028 1.81-1.455.901-.585 5.96-3.187 6.268-3.691zm79.792.047c.314 1.213.86 7.209 1.235 7.62.032-1.375-.317-6.676-1.133-7.538-.03-.032-.068-.055-.102-.082m-98.291.616.046.126zm18.305.192c-2.334 1.623-5.05 2.69-7.333 4.34-2.798 2.024-4.246 8.782-4.836 12.043-.332 1.83-.616 3.85-.56 5.712.444-.682.709-3.281 1.017-4.275.98-3.158 4.616-9.804 8.13-10.545q.352-.072.707-.126c.542.133.946.264 1.232.776.385.69.192 1.589-.03 2.297-.363 1.159-1.017 2.222-1.643 3.253-2.348 3.872-4.872 6.686-4.864 11.393 2.26-3.93 5.515-7.26 8.092-10.97-.081-3.142-.186-6.318-.073-9.46.052-1.454.22-2.903.32-4.354zm-18.64.617.07.105.128-.01.012-.14zm88.175.39.11.04zm9.976.253.133.067zm-98.243.192h.126zm9.704.316.096.165.14-.056-.075-.19zm88.11-.205c-.007 1.316-.066 4.412.44 5.564.282-.073.345-.024.512-.28-.067-.254-.02-.362-.3-.481-.061-.027-.343-.076-.417-.09.109-.191.227-.376.304-.583l.279.28c.062-.288.058-.398-.059-.669l-.465-.294c-.007-.494.509-.933.344-1.358l-.255-.196c-.002-.29.022-.517.081-.801.054-.258.093-.468-.052-.71-.108-.181-.239-.275-.413-.382m-97.658.27c-.19.363-.308.434-.2.842l.266.25c.175-.331.334-.506.297-.885-.12-.078-.228-.154-.363-.207m43.713.225c-3.32.399-5.844 1.956-7.912 4.564-1.124 1.418-3.009 4.216-3.258 5.944.203-.237.322-.46.462-.737 2.982-5.228 7.194-7.351 12.38-9.85-.552.017-1.126 0-1.672.08m-34.367.76-.107.26.122.09.15-.219zm20.496-.21c-2.878 6.104-2.402 11.548-.934 17.874.54 2.327 1.123 4.641 1.937 6.89 1.55 4.284 3.58 6.356 6.814 9.353.235.206.48.525.791.558-.767-3.651-4.954-6.1-6.332-9.332-2.371-5.561-3.154-14.668-2.951-20.673.048-1.422.825-3.408.675-4.67m-21.658.104c-.516.522-1.046 1.085-1.272 1.791.08.284.227.412.433.616.158-.39.258-.73.322-1.147q.108-.062.215-.126c.247-.151.34-.29.468-.551.002-.313.022-.339-.166-.583m.708.115h.137zm12.087.153c-.59 4.725-.787 9.776.11 14.47 1.323 6.918 7 17.156 11.323 22.749 2.644 3.42 5.915 6.26 9.42 8.76 1.795 1.28 4.093 2.57 5.542 4.227.68.778 1.07 1.683.967 2.728-.089.897-.492 1.787-.814 2.621l-13.449-.014c-2.275 0-4.604.104-6.874-.044-1.5-.097-2.975-.387-4.463-.582-.894.676-1.342.738-2.417.748.487-.41.975-.818 1.44-1.254-.07-.307-.168-.43-.43-.613-.78-.547-1.829-.711-2.75-.516-1.389.293-2.508 1.32-3.234 2.501q-.219.36-.424.727c2.575.103 2.954-.065 5.18-1.2-.31.564-.819.915-1.312 1.313 3.922.27 7.9.121 11.832.11l16.436.032 56.034.007 24.417.007c4.159 0 8.57.235 12.688-.067l-.823-1.072c-4.157-.155-8.344-.047-12.505-.042h-20.224l-58.325-.049c.469-2.446.741-3.823 2.66-5.595-.735.153-1.47.327-2.22.382-1.535-.89-2.966-2.02-4.423-3.036-9.398-6.547-12.34-11.569-17.585-21.52-1.863-3.535-3.816-6.998-4.84-10.892-.796-3.022-.54-5.699-.504-8.757.024-1.967-.094-4.186-.433-6.13m-20.796.456c-.167.334-.323.535-.305.913l.18.228c.24-.27.353-.376.387-.751-.078-.2-.09-.25-.262-.39m8.459.379-.099.558.168.15.136-.656-.102-.076zm83.193-.112h.097zm-1.26.231-.084.305.228-.138.102-.301c-.083.042-.175.074-.246.135m1.398.019h.12zm14.88 0h.117zm-8.514.736.075.079zm-89.911-.08c-.177.273-.388.478-.344.823.005.043.026.083.038.125.215-.383.339-.502.306-.948m83.935-.005c.797 2.246 1.793 4.435 2.509 6.709.286.908 1.122 4.456 1.537 4.992-.509-3.345-1.572-6.326-2.861-9.44-.28-.676-.614-1.799-1.185-2.261m14.384-.041c-.091 1.023-.094 1.974.107 2.986.077-.652.282-2.465-.107-2.986m-115.84.27c.009.555.007 1.005.29 1.5-.001-.432.06-.968-.114-1.367zm15.566-.018c-.16.349-.275.464-.19.846.233.15.457.304.717.407.096-.363.104-.512-.109-.839-.124-.19-.221-.307-.418-.414m-6.163.542c-.231.257-.502.418-.459.787.004.033.018.065.027.097.197-.197.527-.408.487-.72-.007-.058-.037-.11-.055-.164m-.128 1.025c.05.017.102.06.152.043zm.055 1.076-.195.162.198.133.197-.177zm97.86-.047c.004.405-.006.791.104 1.185l-.062-.38q.28-.26.568-.51c-.225-.203-.325-.22-.61-.295m1.529-.076q.144 1.267.32 2.53l.135.084c-.052-.796-.06-1.634-.227-2.414zm9.44.607-.147.264.149.13.15-.302zm-119.641-.099c.506.77 1.082 1.514 1.811 2.086-.394-.8-.838-1.678-1.708-2.052-.034-.014-.069-.022-.103-.034m10.469.104c.005.372-.08.614.183.897l.247-.019c.05-.345.124-.436-.08-.73zm82.508.743c-.043.285.09.388.255.601l.135.166c-.055-.298-.038-.567-.26-.784zm16.29.012-.171.26.11.14.179-.019.017-.3zm-61.369.263a19 19 0 0 0-3.775 4.105c1.019-.703 1.967-1.504 2.927-2.284.172.844.385 2.105 1.231 2.56.804.431 1.809-.38 2.33-.023.746.508.737 2.357 2.026 2.037.681-.17 1.375-.884 1.814-1.39.574 1.163 1.18 2.477 2.509 2.928.737.25 1.509.117 2.188-.24.284-.15.51-.332.75-.543 1.002 1.32 1.962 2.521 3.419 3.352l.68.266.082-.036q-2.098-3.25-4.587-6.209c.064.58.23 1.16-.014 1.695-.408.253-.84.294-1.304.174-.899-.234-1.498-1.09-1.919-1.86-.463-.848-.89-1.718-1.326-2.579-.65.884-1.27 1.803-2.068 2.56l-.115.11-.067-.135c-.49-1.028-.55-3.468-.686-3.703-.034-.058-.109-.082-.163-.123-.213 0-.247.018-.397.167-.652.65-.746 2.025-1.769 2.18-.398-.124-.669-.257-.875-.64-.398-.74-.066-1.748-.712-2.346zm45.94.163.116.042zm-82.835.331c-.368.439-.44.733-.39 1.299.047.542.196 1.113.336 1.639.019-.539.4-2.564.151-2.861-.026-.032-.065-.052-.097-.077m98.003-.034.239.684.174-.034-.011-.365c-.132-.096-.263-.2-.403-.285m9.03.153h.11zm-113.203.017c.098.976.341 2.617 1.04 3.349.04.04.089.071.133.107-.25-.945-.525-2.754-1.174-3.456m11.95.233h.082zm101.13 0h.124zm-93.452.046c-.306.273-.563.418-.692.812l.204.34c.27-.266.484-.462.613-.831-.049-.278.016-.184-.125-.32m.934.313-.08.129.072.04.147-.126zm70.19.002-.028.39c.219-.109.136-.037.264-.197l.065-.188-.187-.064zm15.039.246.064.083zm-112.716-.005c-.145.333-.301.491-.19.85.621.348 1.557.082 2.265.184-.11-.305-.823-.636-1.134-.777a2.8 2.8 0 0 0-.941-.257m98.422.248.022.2.145-.034-.037-.193zm13.099.025h.116zm-86.063.264c-.39.521-.889 1.059-1.079 1.688l.112.214c.276.04.432.021.699-.061.107-.39.111-.62.064-1.022.246-.016.514.034.69-.145-.13-.297-.263-.447-.486-.674m53.198.377c1 4.105 2.887 7.714 4.25 11.669 1.138 3.298 2.054 6.661 3.073 9.996 1.06 3.467 2.212 6.909 3.302 10.367.39 1.24 1.584 5.625 2.33 6.31-.278-1.725-.742-3.426-1.143-5.127-1.407-5.975-3.256-11.69-5.145-17.52-.736-2.273-1.231-4.65-2.06-6.885-.64-1.722-3.34-7.76-4.607-8.81m43.979.326c-.357.112-.755.182-1.014.468.594.398 2.012.122 2.739.27l.583.246.16-.07c-.049-.261-.14-.382-.353-.538-.701-.509-1.31-.43-2.115-.377m-105.027.592.103.066zm8.837-.001.072.038zm94.656-.128c-.512.18-1.211.335-1.62.69l.252.06c.512-.165 1.188-.289 1.6-.63-.186-.122-.102-.1-.232-.12m-108.161.088c.087.688.162 2.71.627 3.106-.088-.752-.112-2.633-.627-3.106m12.445.706-.007.226.099-.03-.02-.206zm.684-.197c-.523.906-1.169 1.644-1.629 2.598q-.06.12-.124.237l.138.307c.556-.94 1.297-1.905 1.681-2.92zm-1.948.124c-.293.376-.677.743-.686 1.24.117.202.234.314.413.462.276-.209.458-.304.543-.664.076-.321-.069-.787-.27-1.038m20.881.099h.09zm-46.372.194-.33.391c.138.223.188.23.436.296 1.115.296 2.805.168 3.956.066l.31-.232-.025-.242c-1.047-.517-3.163-.302-4.347-.28m18.341-.072c-.079.34-.178.534-.071.875l.101.08c.063-.211.24-.559.14-.754-.079-.151-.038-.098-.17-.2m105.58.229.237.365c.286.053.44-.032.701-.144l-.112-.205a2.5 2.5 0 0 0-.826-.016m1.04.104c.457.312.728.415 1.282.315.263-.048.523-.115.783-.177-.636-.291-1.379-.077-2.065-.138m-2.603.152-.179.158c.233.194.538.161.84.145.179-.01.236-.022.398-.047l.218-.212c-.34-.19-.889-.085-1.277-.044m-71.589.015c-.851 2.395-.568 4.693.524 6.964q.243.514.552.992t.677.912l.158-.007c-.111-.749-.61-1.489-.778-2.274-.382-1.785-.392-3.529-.57-5.331-.036-.357-.105-.865-.378-1.133-.053-.052-.123-.082-.185-.123m51.915.003-.286.421.271.006.232-.072c-.069-.123-.13-.245-.217-.355m-32.63.137q.163 1.968.545 3.905.382 1.938.978 3.82c.805 2.485 1.892 4.868 2.838 7.3.888 2.282 1.652 4.61 2.577 6.879 1.312 3.218 2.878 6.328 4.227 9.53.536 1.274 5.195 12.972 5.288 13.058.034.031.147.097.193.125-.31-2.922-1.093-5.873-2.09-8.638-1.741-4.828-4.14-9.441-6.252-14.116-1.681-3.723-3.146-7.606-4.687-11.394-.785-1.933-1.49-3.919-2.152-5.898-.365-1.089-.908-3.773-1.466-4.57m31.076.133c-.31.261-.616.463-.738.867.066.28.167.392.396.567q.028.02.059.034c.312-.32.641-.599.791-1.031-.087-.248-.119-.307-.384-.411-.04-.015-.083-.017-.124-.026m-76.587.36c-.261.383-.64.794-.608 1.277.14.158.261.268.44.382.303-.218.542-.301.587-.716.031-.292-.21-.755-.42-.943m78.018.836.018.29.167.033.143-.142.007-.249c-.269.015-.16-.022-.335.068m5.636-.224c.056.663.346 1.163.827 1.621.073-.574.003-1.026-.355-1.491-.156-.046-.313-.096-.472-.13m-88.856.313.104.07zm-19.046.181-.321.426.045.209.594.344.183-.357c-.118-.348-.222-.395-.501-.622m5.936.138h.151zm12.996-.121c-.393 2.405-.818 4.811-.454 7.25.305-.569.242-4.001.356-5.056.056-.521.316-1.588.153-2.079-.013-.04-.037-.076-.055-.115m-18.268.24a.86.86 0 0 0 .374.305l.264.506c.165.037.322.078.49.09.054-.368.115-.527-.028-.878-.332-.183-.738-.068-1.1-.024m5.974.053.135.215.266-.073c-.173-.108-.19-.162-.401-.142m-4.115-.077-.293.4c.169.248.346.428.558.637q.123.123.244.248c.226-.267.228-.302.268-.651-.103-.252-.184-.436-.45-.55-.103-.046-.217-.063-.327-.084m12.073.156h.116zm8.807-.118c-1.97 3.412-2.97 7.342-1.93 11.235.03.118.074.232.114.348a5 5 0 0 0 .057-.976c-.049-.725-.364-3.49-.321-3.968.106-1.188 1.292-.92.662-2.516.06-.279.04-.325.24-.546q.21.11.416.222l.158-.123c0-.252-.077-.355-.206-.561-.16-.257-.207-.382-.185-.695l.121-.239q.23.097.457.195c.311-.297.649-1.452.62-1.884-.012-.184-.11-.34-.203-.492m-19.609.235-.209.399c.25.11.407.092.677.091l.088.117q-.038.095-.071.194c-.09.274-.076.162-.03.442l.397-.128c.094-.287.137-.377-.011-.667a.8.8 0 0 0-.632-.436c-.07-.01-.14-.008-.209-.012m20.357.189.085.038zm98.444-.07a20.7 20.7 0 0 0-4.531.942c3.42-.118 8.481.113 11.16 2.58.407.374.874.827.891 1.413.008.251-.118.483-.301.653-1.615 1.5-12.306 1.491-14.986 1.614-.953.043-2.44-.054-3.336.27-.709.257-1.255.943-1.767 1.472 1.2-.458 2.385-.942 3.657-1.156 3.614-.607 8.13.737 11.392 2.208 1.855.836 3.823 1.849 4.596 3.848.23.595.527 1.614.29 2.246-.107.29-.279.468-.578.551-.207.058-.429.005-.628-.055-.8-.244-1.548-.662-2.324-.977-.896-.364-1.856-.614-2.789-.867-2.244-.606-4.633-.999-6.964-.922-2.918.096-5.897 1.12-8.507 2.375-1.55.744-2.923 1.493-4.62 1.915-.251.444-.49.88-.698 1.346 4.94-2.195 11.146-3.014 16.478-2.221.792.143 1.539.191 2.144.77.148.39.202.613.006 1-1.08 2.12-5.6 4.273-7.82 4.885-2.822.778-5.863 1.004-8.767 1.285-1.8.174-3.616.401-5.422.454-.4.737-.826 1.47-1.15 2.243 5.915-1.206 9.11-1.215 14.632 1.48 3.22-4.618 10.835-6.663 16.181-7.615q2.796-.478 5.62-.738t5.66-.302l-8.436-14.285c-1.242-2.103-2.335-4.334-3.692-6.363-1.719-.095-3.694-.325-5.39-.049m-107.922.138H80zm10.28-.12c-.284.451-.676 1.016-.564 1.576.213.081.126.084.254.066l.046-.12a7 7 0 0 1 .56-1.11l.004-.266zm7.491.14c-.228.348-.393.49-.343.933.019.168.09.352.136.515.063.218.038.119.084.387.302-.4.266-1.215.161-1.71-.009-.043-.025-.083-.038-.125m-27.152.26c.081.023.219.085.3.066l-.125-.145zm.746.098-.325.55.073.193.554.238.12-.23c-.12-.294-.218-.5-.422-.751m2.647.123h.152zm3.516.356.133.2.103-.011-.095-.218zm98.815.17.015.67c.21.199.089.154.352.162-.065-.35-.058-.599-.367-.832m-113.866.142c-1.44 3.358-3.882 6.87-5.779 10.028-1.78 2.965-3.412 6.072-5.285 8.976 6.99.923 13.447 2.213 19.947 5.027q1.895.825 3.747 1.741c1.487.751 3.126 1.881 4.752 2.22 1.286.267 2.854-.18 4.144-.334 3.358-.4 6.61-.107 9.818.954a35 35 0 0 0-1.783-3.037c-3.003.204-5.904-.648-8.855-1.065-2.093-.295-4.46-.348-6.464-1.019-1.77-.592-3.459-1.511-4.865-2.741-.66-.578-2.046-1.769-2.058-2.686-.003-.221.11-.283.24-.445 1.756-.741 4.198-.203 6.098-.346 2.248-.168 4.49-1.003 6.737-.936-4.766-1.957-7.769-2.898-13.122-2.402-.895.083-1.852.188-2.721.42-1.228.328-5.452 2.297-6.383 1.797-.28-.838-.185-1.65.187-2.45.921-1.983 3.703-3.537 5.691-4.188 3.058-1 6.894-.763 10.092-.784-1.68-.519-3.383-1.078-5.129-1.326-2.821-.403-7.555-.052-9.996-.852-.417-.137-.761-.324-.988-.718-.16-.275-.223-.585-.113-.891.315-.877 1.691-1.376 2.511-1.653 4.684-1.584 9.899-.227 14.453 1.206.46.144 2.01.843 2.332.458-.066-.563-.74-.996-1.155-1.325q-.177-.14-.357-.278c-.983-.024-1.985-.027-2.956-.185-4.42-.724-7.868-2.695-12.74-3.166m96.088.207h.167zm-85.448.26.155.144.133-.095-.08-.16zm3.421.216.183.227.142-.035-.16-.216zm12.659-.24c-.114.417-.257.706-.155 1.131l.182.15c.166-.4.278-.57.23-1.006zm81.038.516-.085.067a3.4 3.4 0 0 1-.817.485l.106.18.228.007.026.023.233.226.343-.009c.168-.214.24-.278.161-.57-.022-.084-.129-.341-.196-.41m-8.722.14c.15.347.295.792.649.978.138.074.365.105.513.135-.307-.49-.588-.925-1.162-1.113m-63.67.293.08.037zm88.121.038c-2.915.453-5.845 1.011-8.746 1.546.83.038 1.621.073 2.447-.04 1.155-.138 3.447-.092 4.304-.842.777-.022 1.803.608 2.453-.017.168-.162.307-.416.433-.613l-.066-.116zm1.269-.058c-.105.302-.196.534-.159.86l.17.191c.607-.002 1.107-.4 1.585-.735.01.225-.022.41-.069.63.148.104.292.21.446.3.367-.187.722-.332.98-.666l-.022-.237c-.688-.471-2.12-.364-2.931-.343m-111.596.212c.082.002.17.025.247-.001zm12.918.113c.005.365-.067.616.166.91l.21-.013c.034-.338.098-.45-.091-.743zm102.066-.001c-.181.31-.333.442-.281.805.477.229.983-.015 1.486.189l.291-.173-.004-.162c-.408-.387-.959-.521-1.492-.66m-28.171.26c.204.918 1.746 2.64 2.335 3.618a1 1 0 0 0 .39-.248c.053.245.081.468.096.716.02.31.091.471.242.739.185-.327.346-.475.23-.871-.329-1.127-2.273-3.455-3.293-3.953m-66.247.396c.073.333.054.588.32.816a2.3 2.3 0 0 0 .563-.183c-.22-.254-.427-.408-.691-.606q-.04-.031-.078-.064zm96.067-.072c.102.35.145.493.496.649.29.128.598.185.91.186-.16-.339-.252-.536-.626-.67-.244-.087-.525-.121-.78-.165m-21.961.029c-.067.4-.143.514.055.879l.267.161c.053-.366.122-.513-.043-.851zm-81.806.645c-.862 1.083-.804 4.984-.65 6.341q.028.253.068.504l.16-.096c.055-.898-.037-1.785-.011-2.682.022-.738.2-1.494.325-2.222.092-.541.35-1.342.108-1.845m6.094-.034c-.071.367-.126.488.007.846l.349.186c.085-.381.186-.541.02-.903zm3.848.085c-2.4 3.36-5.363 6.643-6.619 10.624-.111.353-.358.973-.33 1.337.005.073.03.143.045.214l.137-.209c2.474-4.427 3.74-6.387 7.406-9.965-.136-.557-.26-1.57-.639-2.001m-2.273.109c-.22.356-.463.671-.494 1.1.18.216.074.163.287.21.195-.266.539-.561.425-.92-.032-.103-.159-.295-.218-.39m89.456-.02c-.092.34-.183.424-.004.739.222.052.44.107.665.147.058-.307.086-.378-.019-.667a1.2 1.2 0 0 0-.642-.219m1.484.002-.29.503.075.191c.358.017.708.012 1.067-.003l.154-.262c-.092-.246-.025-.215-.236-.315-.271-.127-.476-.111-.77-.114m1.677.044-.158.463.102.202q.361.036.724.061l.101-.272c-.184-.275-.474-.342-.77-.454m-4.31.089-.063.42c.238.319.4.29.785.358l.079.011c-.003-.366.027-.42-.19-.707a3.4 3.4 0 0 0-.612-.082m5.457-.015c.027.335-.05.421.216.65l.66-.021c-.038-.208.007-.257-.186-.38-.23-.146-.428-.186-.69-.249m1.744.28-.024.239c.394.102.744.015 1.136-.053-.346-.163-.645-.195-1.019-.232zm-8.454.202-.195.223c.279.016.148.04.394-.064l.116-.248c-.253.03-.152-.012-.315.09m-.891.107c-.417.023-.72.05-1.1.228.19.079.098.069.27.054.358-.027.805-.005 1.11-.19-.21-.106-.113-.09-.28-.092m-88.213.049c-.306.407-.654.782-.755 1.292.121.255.169.304.465.377.053.013.109.011.163.017l-.091-.638c.181-.205.364-.4.56-.59-.064-.306-.078-.28-.342-.458m76.47.34.025.19.134-.028-.007-.243zm-104.983-.055-.096.591c.23.088.356.085.6.084l.392.332c.184-.325.249-.406.246-.774-.371-.259-.692-.24-1.142-.233m1.347.022.093.425c1.234.6 2.048-.292 3.14.718.177-.235.32-.386.362-.686-.169-.238-.202-.237-.482-.291-.506-.097-1.314.256-1.703.069-.519-.25-.842-.293-1.41-.235m-2.902.172-.09.165-.35-.117-.144.165.062.248c.32.135.51.185.867.187l.389-.237.11-.16.307.268.182-.151.003-.273c-.425-.28-.866-.175-1.337-.096m105.216-.135c.195.439.439 1.13.909 1.351.03.014.065.02.098.03-.17-.398-.385-1.212-.816-1.342-.062-.019-.127-.026-.191-.039m-106.12.314c-.351.113-.647.156-.902.434.087.217.118.295.29.464.23-.34.449-.549.774-.798zm7.629-.04c.178.339.293.574.626.79.373.07.497.01.825-.144-.075-.24-.028-.276-.267-.405-.35-.187-.796-.198-1.184-.24m82.967.247c.778 2.98 1.67 5.908 2.581 8.849.547 1.763 1.005 3.75 1.92 5.357.579 1.018 1.527 1.891 2.241 2.823.53.693.96 1.517 1.418 2.262l.128-.027.072-.111.46-1.174c-1.217-3.3-2.499-6.724-4.04-9.885-.573-1.175-1.435-2.206-1.991-3.383-.413-.876-.437-1.941-.92-2.78-.379-.656-1.211-1.527-1.87-1.931m-80.982.11c-.103.357-.165.382.002.706.188.057.355.115.55.133l.203-.456c-.197-.313-.412-.287-.755-.382m-9.532.353.033.058zm1.71-.17c-.234.206-.556.361-.529.707.004.052.024.1.036.15.25-.263.488-.4.504-.783 0-.025-.007-.05-.01-.074m-3.19.252.085.049zm11.883-.023c.163.333.261.585.637.723.313.116.806.088 1.138.099-.632-.607-.886-.826-1.775-.822m99-.006-.121.604.152.017.202-.227c-.069-.225-.045-.222-.234-.394m-108.792.316.04.077zm3.532-.06.011.228c.293.032.167.062.385-.046l-.119-.22zm25.61-.155c-.244.423-.487.84-.761 1.245-.012.258-.062.341.081.565.194.304.352.588.487.922.226-.258.3-.325.373-.656a1.4 1.4 0 0 0-.462-.434c-.051-.737.77-.657.282-1.642m-27.386.21.16.316c.238-.069.15-.012.284-.131l.224-.18a4 4 0 0 0-.668-.004m2.878.08.159.093.096-.037-.152-.09zm.706-.063.01.232c.451.102.925.12 1.386.158l.078-.144c-.495-.157-.958-.208-1.474-.246m1.703.395h.153zm1.1.154c.23.079.26.12.507.066l-.256-.145zm2.865.548c.758.233 1.674.668 2.44.769-.819-.64-1.407-.819-2.44-.769m91.02-.102c0 .314-.024.661.214.903.09.093.197.153.303.22.088-.331.093-.466-.024-.79-.182-.177-.25-.233-.494-.333m-66.246.277-.055.13c-.178.41-.33.642-.655.949l-.067.294c.183.174.364.325.57.471l.24-.199c-.03-.146-.103-.353-.114-.492-.02-.257.103-.55.21-.777zm17.251-.02c.101.511.191 1.029.316 1.535 4.207 2.764 13.656 5.415 18.72 4.865l-.1-.033c-1.57-.497-3.221-.762-4.81-1.21-4.78-1.346-9.666-2.97-14.126-5.157m-23.261.408-.078.24c.087-.001.178.013.262-.013l.177-.205-.111-.119zm-12.357.098c-.66.406-1.23.285-1.976.216.617.412 1.182.776 1.879 1.043.507.055 1.01.104 1.52.122q-.642-.686-1.275-1.38zm10.242.032q-.736 1.546-1.393 3.126c.427-.204.819-.316 1.101-.707a3.5 3.5 0 0 0-.127-.561c.009-.295.122-.47.264-.722.369.07.584.364.836.621l.166-.088.083-.432c-.308-.431-.673-.766-.93-1.237m65.185.01c.245.423.465.89.845 1.21l.194-.037c.064-.18.168-.288.065-.468-.205-.357-.739-.548-1.104-.706m8.028.124c-.253.177-.523.272-.604.576.374.98.919 2.558 1.74 3.226l.247-.005c.278-.325.294-.553.268-.969-.034-.05-.063-.102-.101-.149-.198-.242-.422-.317-.702-.429-.1-.206-.124-.362-.143-.589l.135-.084.45.154c.15-.23.107-.415.03-.672-.042-.135-.07-.185-.126-.303l-.168-.053c-.16.211-.282.379-.482.553-.21-.442-.035-1.02-.544-1.256m1.872.108c-.23.233-.315.219-.329.56.082-.017.162-.043.245-.053.067-.007.135.002.203.003.099.629-.07 1.23.029 1.86l.293-.026c.286-.54.095-1.23-.078-1.782-.076-.244-.165-.402-.363-.561m-88.385.425-.047.247c.47.303 1.075.364 1.617.463l.003-.17c-.52-.287-.96-.57-1.573-.54m15.062.086c-.225.263-.46.435-.46.805 0 .057.016.112.025.168.19-.218.534-.486.493-.805-.007-.06-.039-.112-.058-.168m88.947.157c-.194.296-.404.464-.356.825.368.09.638.005.994-.086l.52-.401.02-.2c-.373-.166-.777-.133-1.178-.138m-1.884.186c-.572.049-1.162.063-1.712.237q-.035.121-.074.242l-.058.155c-1.094.004-2.117-.185-3.041.596l-.044.096c.12.107.17.201.345.202.348.002.694-.252.99-.418l.073-.09.227.164a11 11 0 0 1 1.187-.2c1.047-.102 1.326-.845 2.462-.376.342-.049.488-.12.76-.334l.091-.253c-.348-.206-.815-.106-1.206-.021m3.538.006c.184.448.216.595.606.903.476.102.801-.017 1.202-.275l.061-.24c-.394-.332-1.338-.329-1.868-.388m-85.951.251c.104.438.1.696.428 1.013l.295-.066.079-.38c-.227-.33-.41-.47-.802-.567m60.73.119c-.166.225-.353.363-.32.654.038.347.126.517.414.718.184.129.115.102.32.09-.221-.43-.378-.54-.179-1.028.028-.07.07-.132.105-.199-.116-.096-.203-.17-.34-.235m27.92.101.235.666c.293.075.32.03.597-.054-.036-.172-.014-.362-.178-.453-.207-.116-.423-.126-.653-.159m-86.029.187c-2.81 2.809-5.559 5.257-5.563 9.526q.006.864.022 1.726l.669-1.058c1.979-2.625 4.508-4.628 6.662-7.089-.463-.977-1.03-2.326-1.79-3.105m-8.236.234c-.055.19-.088.532-.263.63-.21.12-.43.145-.665.191-.02.251.033.394.126.625.42-.24.805-.52.927-1.016q.023-.096.041-.194zm95.64.173.09.036zm-90.898-.073c.102.382.15.834.482 1.082l.301-.094c-.022-.325-.085-.545-.332-.779-.13-.124-.285-.163-.451-.209m78.058.1c-.843.305-2.345.634-2.873 1.356.017.167-.012.233.107.36.763-.341 2.218-.764 2.776-1.352l.06-.273zm13.395.042-.073.401c.237.23.368.18.682.21l.123-.313c-.214-.289-.393-.239-.732-.298m-28.899.149c-.215.343-.503.676-.458 1.1.107.174.194.347.343.49.144-.434.387-.946.328-1.407zm20.936-.053c-.464.286-.636.739-.97.831-.468-.17-.956-.397-1.456-.413l-.173.157c-.11.1-.247.24-.365.321-1.03.712-1.972-.033-3.028 1.167-.346-.146-.505-.286-.877-.145-.224.085-.423.23-.62.364l-.008.162c1.248.212 2.663-.289 3.852-.637 1.745-.41 3.478-.763 5.284-.72.807.019 1.714.3 2.504.159.147-.278.262-.467.282-.787-.383-.249-.75-.467-1.206-.404q-.316.305-.647.593c-.33-.154-.459-.717-.875-.577-.302.101-.544.354-.78.56h-.167c-.229-.23-.447-.5-.75-.63m-63.451.18c-.042 1.49.745 2.78 1.742 3.836 3.226 3.42 10.153 5.72 14.766 5.837 1.17.03 2.311-.062 3.471-.21-.454-.517-3.06-.755-3.805-.894-2.853-.533-5.743-1.254-8.424-2.375-2.459-1.029-4.284-2.177-6.005-4.208-.536-.633-1.099-1.479-1.745-1.986m50.839-.037c.126.97.036 2.062.24 2.993l.154.002c.228-.843.247-1.975-.197-2.759-.063-.111-.109-.146-.197-.236m-84.677.144-.32.243c.257.184.629.129.944.144l.236-.18-.062-.127q-.399-.042-.798-.08m102.275.04c-.138.37-.2.473-.133.873.39.392 1.127.375 1.651.438-.023-.373-.059-.62-.231-.962-.405-.314-.788-.328-1.287-.349m4.356-.062c.09.416.08.603.387.91.278.023.486.041.755-.04-.327-.4-.702-.61-1.142-.87m-29.837.167.157.561.19.1.159-.069c-.149-.343-.197-.376-.506-.592m-89.71.208c-1.186.052-2.245.201-3.388.532.609.09 1.834.447 2.38.3a1.14 1.14 0 0 0-.273-.457c.41.067.746.155 1.129.314.214-.124.327-.253.48-.446l.242-.008.077.123c.123.191.075.12.235.322.355-.083.514-.255.762-.5.45.283.523.386 1.062.322l.088-.089c.143-.14.089-.089.272-.228.272.094.481.185.738.309.413.199.942.082 1.368-.03-.113-.206-.337-.229-.56-.293-1.33-.383-3.237-.342-4.612-.17m25.97-.137c-.114.354-.181.524-.082.896.244.154.247.167.53.137l.286-.392c-.13-.383-.395-.44-.735-.64m70.608.013c-.105.495-.092.746.184 1.195q.046.071.094.138c.042-.407.136-.794-.069-1.17zm-91.316.211c.398.385.672.697 1.267.696.278-.001.574-.089.841-.157-.206-.322-.372-.416-.76-.497-.425-.088-.916-.066-1.349-.042m112.003-.102c-.069.297-.138.593-.218.888.185.334.327.313.681.412q.38.104.761.204c.071-.203.166-.301.075-.51-.221-.506-.815-.794-1.3-.994m-97.462.153c-.166.368-.364.576-.235.969l.433.313c.089-.358.224-.688.065-1.043zm-12.502.162c.217.352.31.593.743.707.633.167 1.302.117 1.92.37 2.13.871 3.493 2.555 5.962 2.617-.393-.898-.878-1.703-1.393-2.536-1.246-.083-2.523-.184-3.755-.406-1.122-.203-2.364-.798-3.477-.752m-10.527.118-.705.319-.048.18c.19.12.37.229.575.32l.427-.105c.085-.294.102-.159-.049-.431-.133-.242-.06-.166-.2-.282m23.96.18-.022.116c-.209 1.032-1.233 3.451-.912 4.368l.094.018c.187-1.112 1.192-3.603 1.166-4.253zm69.479.046.195.509.147.06.117-.067-.016-.26a1.6 1.6 0 0 0-.443-.243m29.08.024c-.212.31-.4.432-.333.811.733.626 1.809.696 2.68 1.096l.175-.088c-.75-.804-2.092-.686-2.523-1.82m1.8.012c.06.35.017.51.303.735l.458.046c-.208-.426-.278-.604-.761-.781m-95.948.217c.112.497.316.67.694.989-.074-.352-.062-.668-.394-.882-.078-.05-.21-.082-.3-.107m64.468-.03c-.07.417-.058.612.067 1.017.362.364.436.363.916.465-.238-.512-.44-1.246-.983-1.483m-94.464.124c-.245.197-.34.186-.397.508.264.226.47.265.798.346l.262-.298c-.11-.33-.241-.384-.564-.524q-.049-.018-.099-.032m31.42.282-.264.018.281.018.269-.065zm68.883-.145c.244.562.453 1.129.846 1.606.096.007.205.028.3.012-.104-.47-.156-1.154-.522-1.485-.214-.059-.403-.112-.624-.133m-94.252.103c-.27.175-.388.254-.503.559.218.404.73.461 1.153.596l.358-.259c.005-.326.005-.402-.266-.63-.215-.182-.475-.225-.742-.266m3.64.014c-.263.326-.54.614-.648 1.029.282.19 1.32-.02 1.882.182.483.175.836.167 1.341.102.222-.16.45-.303.636-.504l.013-.252c-.552-.147-.974-.109-1.53-.002-.454.088-1.298-.336-1.694-.555m-5.216.11c-.28.203-.426.283-.536.628.131.222.159.277.431.337.168.037.379.02.55.022l.311-.189c.046-.19.113-.238-.008-.412-.185-.266-.443-.336-.748-.387m2.55.083c.352.347.67.75 1.164.871.23-.051.357-.082.562-.207l.173-.455c-.227-.225-.385-.254-.707-.258-.398-.006-.79.058-1.192.048m-4.719.202c-.243.262-.326.427-.437.755q-.073-.033-.147-.063c-.222-.086-.425-.112-.659-.142l-.149.116c.161.263.191.303.463.446l.656-.146.104-.044c.427-.169.725-.159 1.176-.141.235.009.14.022.36-.08l.161-.266c-.172-.231-.068-.19-.271-.22a3.1 3.1 0 0 0-.917-.03zm27.198.008-.052.387c.289.31.796.264 1.215.31l-.071-.397-.134-.004c-.433-.018-.597-.067-.958-.296m-31.013.174.06.326c.315.169.438.13.787.11l-.001-.294c-.257-.211-.387-.178-.7-.157q-.073.006-.147.015m97.365-.039c.066.608.278 1.029.7 1.468l.193.063c-.099-.437-.303-1.213-.718-1.456-.055-.031-.117-.05-.175-.075m31.383.16.076.037zm-113.637.003c-.35.214-.67.362-.84.757l.051.219c.273.162.301.16.62.14l.125-.173.173-.122c.24-.165.463-.216.725-.329.02-.009.036-.027.053-.041l-.197-.305zm93.516-.005c-.456.195-1.066.358-1.38.743l.102.107c.473-.151 1.036-.263 1.408-.604-.067-.22-.006-.15-.13-.246m20.397.42.028.088.032-.007.049-.1zm-129.436.208-.08.185.322-.03.063-.229zm2.145-.178c-.541.715-2.23.906-2.166 1.53.128-.045.245-.077.357-.155l.114-.06c.706-.358 1.548-.405 2.2-.822l.027-.213a1.7 1.7 0 0 0-.532-.28m28.815.143c.203.315.385.725.752.86l.17-.026c-.028-.352-.022-.437-.222-.72a1.9 1.9 0 0 0-.7-.114m-14.014.103c-.238.225-.598.444-.641.77.284.159.526.252.836.341l.264-.024c.05-.391-.018-.577-.151-.935zm112.2.121h.215zm-32.036.1c.085.584.142 1.168.352 1.722l.157.085.138-.197c.183-.36.279-.528.124-.925-.137-.349-.434-.562-.771-.685m32.872.246.069.224.177-.049-.116-.192zm-130.75.145-.032.105.098-.01.04-.12zm31.506-.023c.056.396.295.481.29.893l-.172.09c-.174-.2-.19-.24-.252-.484l-.179.088-.043.25c.094.116.145.202.281.27.106.213.194.37.362.539l.188-.104c.084-.386.104-.92-.113-1.267-.062-.1-.14-.175-.219-.263zm-12.509.015c-.143.151-.286.336-.46.45l.078.028-.143.077c.758.432 1.682.849 2.552.954l.094-.17c-.379-.37-1.627-1.302-2.12-1.339m-19.558.416.33.468c.23-.078.15-.023.265-.123l-.037-.177a6 6 0 0 0-.558-.168m100.25.432-.213.274-.516-.031c.084.29.19.528.324.796.3-.157.415-.313.612-.578l.054-.358c-.23-.115-.136-.118-.26-.103m-59.85.136.045.132.085-.043-.044-.147zm-40.718.216.072.067zm40.204.32-.06.15.137-.015.088-.178zm1.365.006c-.178.564-.346 1.547-.827 1.903a2.2 2.2 0 0 1-.858.087c-.149.718-1.532 1.344-1.127 1.964 1.243-.95 2.228-2.242 3.555-3.07-.23-.295-.459-.645-.743-.885m-2.127.126c-.19.325-.269.367-.213.733.291.162.547.237.86.339q.023.008.045.02l.082-.272c-.242-.254-.504-.61-.774-.82m-7.823.168c.159.349.258.617.587.842l.232-.03c-.03-.216.012-.376-.173-.515-.206-.155-.404-.214-.645-.297m69.234.196.04.19.106-.022zm-.79-.003-.396.249c-.021.356.098.387.313.647l.377-.23.035-.256zm-42.826.12c.439 2.155 1.906 4.32 3.738 5.551 2.813 1.889 9.998 5.459 13.27 4.763 1.33-.284 2.538-1.035 3.613-1.844.35-.28.715-.55 1.027-.874-5.105 1.934-7.986 1.715-12.964-.54-2.568-1.163-4.656-2.716-6.541-4.803-.647-.715-1.347-1.72-2.143-2.252m-16.605.481.082.226.143-.046-.094-.189zm-9.274.318c-.078.782.377.747.413 1.362.064 1.088-.548 3.142-.174 4.049l.098.017c.405-1.543.499-3.447.423-5.042a1.2 1.2 0 0 0-.478-.14zm68.727.187-.024.19.192-.044.202-.217c-.245-.036-.12-.051-.37.07m1.126.035-.136.233c.232.115.117.102.342.067l.077-.258-.148-.088zm-75.4.335c-1.341.279-2.665.617-4.04.655 1.188.236 2.281.658 3.397 1.12.653.255 1.302.537 1.984.705.105-.271.172-.425.117-.715-.366.065-.6.202-.92-.013q-.103-.797-.178-1.598c-.238-.18-.113-.144-.36-.154m13.222.213.09.037zm61.614.055c-.165.342-.192.388-.148.761.17.17.275.28.493.39.165-.347.188-.417.16-.799-.195-.228-.22-.266-.505-.352m17.353 0c-.352.451-.714.88-.963 1.399l.294.12c.398-.188.818-.458 1.01-.875.084-.182.078-.214.102-.388-.155-.25-.173-.192-.442-.256m1.7.006-.102.22a7 7 0 0 1-.44.781l.138.172c.31-.233.455-.343.61-.713-.044-.26-.008-.262-.207-.46m1.343.084c.319.335.442.572.901.668.213-.1.429-.196.636-.307l.057-.178c-.501-.16-1.07-.15-1.594-.183m-4.279.075c-.323.118-.459.108-.638.412.072.394.233.756.28 1.15.169-.47.346-.931.548-1.39zm-79.603.109c-.245.335-.426.48-.448.902.134.16.261.312.412.456.176-.34.347-.596.296-.994-.08-.124-.151-.263-.26-.364m83.393-.028-.3.403c.204.22.086.138.35.252l.32-.409c-.146-.238-.123-.181-.37-.246m-5.48.092c-.113.391-.316.865-.208 1.264l.429.132c.27-.343.3-.43.373-.862-.121-.3-.11-.388-.432-.497-.053-.017-.108-.024-.162-.037m-1.142.147c-.179.316-.273.487-.291.86.136.266.169.352.468.46.089.032.227.052.323.068q.025-.051.046-.104t.034-.108.023-.111q.008-.056.011-.113.003-.056 0-.113-.004-.056-.013-.113-.01-.055-.024-.11t-.036-.108c-.137-.347-.221-.37-.541-.508m-82.948.15-.222.697.085.083c.142-.169.32-.304.246-.553-.024-.08-.072-.151-.109-.226m70.828.008c.006.44-.04.612.207.986l.31.107c-.04-.369-.014-.688-.313-.963-.06-.054-.136-.087-.204-.13m10.636.08c-.156.368-.315.728-.5 1.082l.02.204c.188.032.332.048.524.045.382-.28.524-.342.715-.786-.095-.266-.154-.354-.436-.476-.093-.04-.222-.054-.323-.069m-84.885.388.04.082zm16.039-.107-.242.656.087.181.386.053.185-.4c-.108-.288-.162-.306-.416-.49m67.48-.008c-.37.232-.518.378-.747.75l-.014.32c.224.239.276.234.6.307.253-.349.508-.68.685-1.074l-.081-.212zm-73.205.133c.094.359.135.782.447 1.017l.216-.015c-.028-.281.018-.676-.255-.847-.086-.054-.308-.122-.408-.155m-28.302.162c.33.28.627.54 1.017.731-.137-.266-.24-.685-.575-.734-.099-.014-.337-.001-.442.003m100.355.044c-.452.126-.767.211-1.117.531-.062.214-.105.2.009.414.121.227.058.149.267.29.434-.134.801-.215 1.122-.55.048-.3 0-.382-.194-.62-.023-.028-.058-.043-.087-.065m-73.815.143c-.155.345-.258.432-.159.806l.501.411c.088-.357.14-.579.034-.946-.139-.15-.18-.194-.376-.271m64.732.012c.032.362-.009.546.284.81.035.031.078.052.118.078l.12-.567c-.192-.284-.211-.23-.522-.321m-70.273.156c-.015.492-.048.869.172 1.317l.157.137c-.021-.44.01-.96-.195-1.353zm13.032.314c.072.332.081.705.31.958l.198-.02c.045-.358.11-.456-.087-.77zm-33 .3c.299.162.478.357.823.222.029-.011.053-.034.079-.051l-.12-.162zm26.898-.06c-.459.327-.51.419-.736.94l.066.256.442-.066-.02-.447q.087-.047.172-.096a2.1 2.1 0 0 0 .47-.374l-.06-.183zm3.479.001c-1.124 1.34-2.612 2.26-3.73 3.603-.123.148-.254.291-.379.436-.113.911-.964 4.226-.888 4.74.828-1.125 5.09-7.843 4.997-8.779m1.987.067c-.206.332-.394.617-.48 1.004.079.17.077.221.236.331.323.224.533.382.736.72-.008.336-.12.401-.325.66l.18.116c.344-.201.546-.459.794-.761.279-.383.483-.662.579-1.13l-.103-.124c-.268.06-.334.032-.53.239l.066.341c-.19.143-.115.146-.335.105-.274-.05-.396-.156-.614-.317-.114-.393-.026-.828-.204-1.184m58.438.513-.127.294c.077.102.14.206.243.284l.137-.555c-.172-.078-.087-.076-.253-.023m-66.1-.01c-.14.365-.267.56-.203.949l.218.002c.219.003.42.03.635.073.158.237.186.44.233.718l.293-.077.12-.21c-.167-.561-.901-.99-1.296-1.454m77.876.031c.296.542.587.97 1.138 1.271.253.009.502.018.755.013-.344-.585-.62-1.088-1.316-1.268-.195-.05-.38-.035-.577-.016m-1.3.107c.168.465.28.956.666 1.287.427.179.766.152 1.221.127-.254-.144-.5-.21-.621-.482-.147-.33-.235-.66-.565-.845-.233-.03-.467-.064-.7-.087m-97.259.33c.252.202.462.353.757.492l-.096.04c.39-.008.65-.097 1.008-.246.255.104.329.259.472.485l.185-.183-.014-.237.505-.178-.025-.05c-.079-.026-.212-.084-.294-.086-.827-.025-1.672-.082-2.498-.037m2.788.016c.146.394.135.596.537.791.312.151.616.106.928-.023.244-.1.474-.245.7-.381.416.272.792.584 1.197.868l.61-.868c-1.059-.422-2.811-.381-3.972-.387m4.262.28c.09.354.102.727.436.943.154.1.434.147.615.194 0-.39.052-.597-.16-.932a4 4 0 0 0-.891-.206m20.37.113c-.257.435-.62.916-.688 1.423.188.168.098.126.236.175l.044-.1c.173-.388.627-.752.683-1.132-.088-.155-.133-.252-.275-.366m-18.819.195c.11.343.124.497.394.744a2 2 0 0 0 .567-.217c.425.361.52.434 1.065.533-.011-.325-.01-.384-.283-.606-.379-.309-1.264-.404-1.743-.454m-8.787.315-.166.323c.22.32.53.389.879.548l.333-.488-.067-.228c-.343-.118-.621-.145-.978-.155m11.213.119c.09.328.072.524.408.678.158.072.402.088.576.116-.287-.457-.507-.574-.984-.794m71.38.355.014.287.156-.047.053-.3zm7.982-.143c-.305.377-.668.477-1.112.642l-.038.087c.112-.019.386-.046.487-.087.376-.026 1.021.02 1.301-.209a2.3 2.3 0 0 0-.638-.433m-88.493.075c-.288.147-.602.213-.726.519.338.152.652.225 1.012.297.298-.179.385-.187.516-.502-.17-.25-.218-.302-.542-.338-.087-.01-.175.01-.26.024m29.381-.027c-1.268 1.1-2.522 2.31-3.572 3.621-1.294 1.615-4.26 6.458-4.32 8.426-.007.194.035.374.076.561l.176.16c.302-.146.347-.258.538-.54q2.164-2.86 4.636-5.46c1.4-1.491 2.953-2.94 4.115-4.63-.382-.64-.99-1.785-1.649-2.138m-27.65.27-.779.582c.517.394 2.733.498 3.452.41.05-.334.129-.622-.022-.942-.175-.107-.162-.153-.377-.102-.493.114-.817.593-1.332.619-.05-.168-.042-.257-.03-.429-.31-.22-.537-.146-.911-.137m23.774-.067-.102.665c.184.038.271.035.453.013-.058.368.01.133-.133.411-.131.255-.1.4-.08.677.305-.252.547-.417.659-.816-.047-.347-.064-.446-.342-.693-.114-.101-.325-.19-.455-.257m-19.814.44-1.263.689q2.075.24 4.147.51l.201-.133c-.357-.355-1.008-.57-1.465-.789-.317.186-.552.356-.936.333a11 11 0 0 1-.322-.568zm13.788-.01c-.28.289-.4.36-.489.762.103.234.203.468.323.695.238-.352.374-.783.307-1.21-.025-.162-.027-.127-.141-.246m61.278.086c.049.406.046.809.311 1.14l.205.03c.043-.377.074-.553-.103-.905-.136-.097-.26-.197-.413-.265m-71.84.847c.115.245.054.243.334.344.54.195 1.176.242 1.743.326-.502-.495-1.398-.616-2.077-.67m72.667.29c-.303.694-.219 1.113.068 1.817.184.45.402.949.844 1.181.26-.835-.172-1.859-.567-2.62a.9.9 0 0 0-.345-.378M49.5 153.13c-.425.134-.8.245-1.167.503l-.047.166.15.021c.368-.158 1.047-.338 1.275-.651zm52.634.441-.192.53.135.142.173-.18c-.029-.175-.05-.327-.116-.492m-4.903.24c-.198.698-.444 1.198-.07 1.891.194-.473.496-1.068.33-1.589-.049-.153-.145-.202-.26-.302m5.486.259c-.064.312-.21.668-.007.96.039.055.1.09.15.135.085-.325.206-.547.038-.871-.04-.077-.123-.16-.181-.224m7.075-.002c.018.354-.004.48.29.727.16.134.478.202.673.253-.208-.37-.402-.82-.84-.954-.04-.012-.082-.017-.123-.026m-7.502.739.044.166.024.012zm-.874-.124c-.058.365-.127.605.088.944.147.23.403.433.645.552.006-.584-.49-.983-.734-1.496m7.541.522c.072.348.11.519.408.738.135.1.31.174.459.247.042-.386.06-.419-.131-.753-.261-.122-.444-.213-.736-.233m1.715 0c.088.328.15.647.461.843.093.058.152.07.25.098-.089-.349-.14-.608-.46-.829-.092-.064-.151-.078-.25-.112m-2.305.728-.21.406c.141.386.571.516.926.713.043-.331.048-.491-.186-.754a1.6 1.6 0 0 0-.53-.365m1.53.008c-.023.394-.066.752.057 1.135l.218.128.359-.162.246-.402c-.126-.359-.265-.424-.61-.593-.124-.06-.154-.067-.27-.106m-9.077.13c-.052.334-.16.533.102.802.151.156.431.286.621.397.056-.3.122-.39-.066-.651-.161-.224-.434-.39-.657-.548m-4.457.23c.004.322-.07.743.176.996.049.05.115.08.173.12.018-.413.07-.6-.129-.971zm73.123.005-.045.103a3 3 0 0 1-.57.86c.434.077.894.128 1.297.311l.19-.16c.243-.245.585-.495.628-.853-.196-.175-.131-.178-.422-.175l-.282.473c-.383-.123-.425-.395-.796-.56m-2.39.112c-.243.264-.448.387-.493.753.292.163.554.192.878.234l.34-.092.107-.257c-.113-.239-.217-.464-.48-.57-.107-.042-.24-.053-.353-.068m.827.027.272.685.227.097.322-.174.105-.434-.14-.161zm3.64.049c-.276.3-.575.51-.65.915.18.281.419.328.719.428.208-.382.47-.688.42-1.129a5 5 0 0 0-.49-.214m-6.113.169c-.227.215-.362.274-.432.591.292.22.617.2.966.222.212-.216.218-.15.241-.48-.271-.264-.417-.28-.775-.333m7.245.018c-.216.33-.478.667-.607 1.04l.311.254.655-.274.352-.052.103-.262c-.186-.385-.417-.558-.814-.706m-12.763.436.128.07zm4.423-.134c-.317.124-.613.165-.814.447.085.156.127.23.263.348.302-.156.587-.236.77-.528-.07-.108-.11-.193-.22-.267m-55.166.115c-.251.274-.586.515-.646.886.179.158.257.227.487.308.266-.238.614-.464.691-.83-.175-.232-.258-.25-.532-.364m64.84-.049c-.187.295-.397.541-.363.907.281.132.341.11.654.009.112-.037.279-.11.393-.159l.293-.143-.006-.137c-.33-.149-.65-.308-.972-.477m-61.747.281q-2.653 2.113-5.07 4.493c-1.173 1.174-2.23 2.456-3.517 3.512.734.007 1.495.052 2.227-.006.483-.04 1.093-.04 1.53-.263 1.532-.778 5.714-4.647 7.039-5.985-.536-.528-1.44-1.634-2.209-1.75m50.773.02c-.309.173-.564.242-.733.562l.1.141c.277-.162.541-.325.803-.511-.119-.172-.053-.117-.17-.192m-62.927.125c.09.415.215.457.527.73l.23.05.03-.407c-.244-.281-.417-.322-.787-.374m85.556.161c1.653 1.352 3.913 2.188 5.735 3.35 2.167 1.38 4.136 3.185 6.344 4.465 1.118.042 2.222.044 3.34.006-4.254-2.962-10.19-7.293-15.419-7.82m-100.73.412c.2.29.338.53.699.634.269.077.666.034.94.019l.027-.457c-.201-.21-.306-.26-.603-.269-.346-.01-.718.043-1.063.073m82.59-.08c-.86.496-.907-.113-1.173.664-.044-.057-.085-.116-.132-.17-.209-.244-.257-.286-.56-.343l-.224.176-.035.382c.261.294.817.259 1.202.28.54.031 2.836.005 3.186.156.57.014 1.238-.049 1.68-.436-.193-.219-.51-.361-.807-.405-.154-.022-.196-.006-.33.018l-.075.11a7 7 0 0 1-.313.409l-.24.018c-.28-.28-.577-.664-.976-.753-.314.123-.448.473-.609.751l-.216.016c-.18-.221-.189-.44-.234-.714zm-84.46.203c.253.335.409.723.874.752.305.019.703-.074 1.01-.118l.069-.16c-.204-.288-.49-.429-.833-.492-.371-.068-.748-.02-1.12.018m3.666-.07c.733.68 1.303.453 2.196.7-.299-.332-.578-.702-1.055-.73-.375-.023-.766.01-1.141.03m2.273.047c.477.43.902.626 1.555.6.159-.005.144-.006.275-.027-.535-.518-1.106-.518-1.83-.573m-7.62.132c.536.384.965.684 1.629.808-.144-.422-.139-.593-.513-.853q-.558.007-1.115.045m13.898.032h.083zm-4.229.06c.217.304.39.583.788.653.222.039.5-.023.716-.066-.407-.493-.897-.513-1.504-.586m8.654-.069c-.099.394-.125.542.024.94.241.179.254.219.55.213.1-.414.141-.433-.045-.81zm63.89.114.107.259c.526.194 1.091.189 1.646.224-.057-.188-.044-.378-.237-.465-.39-.174-1.094-.044-1.517-.018m8.951-.029-.704.09-.088.174.141.215c.27-.09.601-.125.763-.362zm-66.459.035c-.165.321-.202.519-.23.87.289.64.786.327.72 1.14l.234.064.504-.518-.01-.201c-.631-.4-.831-.516-1.133-1.214-.022-.05-.056-.094-.085-.14m57.046.205.102.066zm-.748.061.155-.001zm-69.76.068c.148.325.17.501.529.635.161.06.414.044.586.054l.457.031c-.505-.416-.927-.62-1.572-.72m-6.474.346c-.3.218-.597.436-.886.669-.353-.158-.937-.5-1.312-.365-.129.047-.208.11-.317.184.14.278.415.412.668.577.74.046 2.054.3 2.65-.203.08-.328.066-.37-.044-.692-.27-.14-.457-.157-.758-.17m2.498.098c-.06.027-.12.059-.182.082-.294.109-.433.074-.73.027-.177.096-.312.104-.371.304.167.248.206.292.472.427l.484-.027c.47.011.784.032 1.198-.207l.064-.22c-.2-.25-.32-.343-.617-.462zm1.422-.112c-.177.281-.18.297-.157.63.288.279.446.306.826.376.195-.256.263-.305.287-.62-.306-.293-.543-.319-.956-.386m9.246.22c-.087.33-.193.697-.032 1.026.144.296.298.33.582.422a6 6 0 0 1-.374-1.295zm5.749.289c-.27.32-.73.738-.77 1.156l.246.28c.319-.37.409-.808.65-1.224zm10.002.445c-.207.303-.299.341-.255.716.208.18.4.347.636.49.121-.36.235-.543.152-.919-.185-.156-.297-.23-.533-.287m45.797.433c.473 1.5.714 3.084 1.217 4.564 1.411-.886 2.807-1.821 4.25-2.654l2.91-1.61c-2.781-.145-5.594-.374-8.377-.3m-55.563.191-.242.423.083.27c.22.093.392.167.629.208.2-.25.389-.368.375-.7-.28-.155-.534-.17-.845-.2m-6.285.376.066.183.114-.005-.1-.196zm15.021-.238c-.136.358-.201.424-.004.784.115.213.316.42.47.608.065-.327.177-.71.012-1.024-.11-.21-.265-.292-.478-.368m-18.807.236c-2.575.636-5.543.364-8.183.368 1.007.66 2.025 1.309 3.003 2.013 1.011.743 1.816 1.436 3.154 1.23 1.06-.163 2.316-.777 3.272-1.273-.322-.72-.668-1.787-1.246-2.338m21.064.018-.426.549.176.095c.313-.115.37-.162.688-.084l.15.24c.025-.228-.044-.27-.178-.446-.115-.151-.256-.248-.41-.355m-11.872.42c-.11.367-.13.492.004.869.159.145.18.241.404.233.186-.007.113.004.263-.032.1-.412.124-.387-.093-.745-.188-.108-.38-.237-.578-.324m8.607-.055-.227.373c.163.304.276.295.596.39q.274.08.551.153l.125-.27c-.126-.29-.219-.475-.54-.585-.15-.052-.351-.05-.505-.06M99.31 162l.07.036zm3.987-.06h.076zm12.111-.112c-.165.283-.408.528-.348.857a1.9 1.9 0 0 0 .693.029l.309-.307-.055-.241c-.194-.111-.394-.25-.599-.338m-12.228.46c.079.39.239.327.414.623.101.171-.49.726-.41 1.044l.302-.056c.299-.323.557-.473.593-.92-.167-.336-.528-.501-.829-.706zm77.051-.16c1.787 1.074 3.56 2.134 5.251 3.358 1.283.011 2.57.044 3.852-.024-2.414-1.022-6.631-3.11-9.103-3.334m-68.145.3c-.171.344-.209.356-.127.726.688.507 1.356.096 2.107.296l.303-.313c-.617-.442-1.584-.29-2.283-.71m-9.662.537c-.207.285-.599.667-.548 1.008l.076.07.6-.829c-.064-.211-.009-.136-.128-.249m9.022.241-.545.445-.014.178c.359.13.703.273 1.05.43l.302-.136.015-.242a5.6 5.6 0 0 0-.808-.675m-33.983.935c-1.22.437-2.461.893-3.572 1.571l-.027.15.059.045c1.323-.074 2.504-.954 3.618-1.636-.059-.126-.017-.097-.078-.13m24.887-.099c-.072.357-.156.518-.013.859.213.087.343.13.576.156.072-.356.098-.41-.036-.743-.178-.108-.328-.206-.527-.272m7.922.101c-.282.232-.71.501-.833.855.308.153.692.028 1.027-.037.299-.1.579-.13.779-.379a3.3 3.3 0 0 0-.71-.309c-.157-.052-.098-.03-.263-.13m-13.327.144-.139.094c-.583.387-1.175.644-1.822.906.17.132.273.069.481.052l2.216.05c-.228-.35-.454-.8-.737-1.102m79.428.335-1.54.73 3.57.065.603-.02.073-.118c-.758-.42-1.854-.513-2.707-.657m-75.268.105c.054.228.017.364.229.491.195.117.367.162.585.217-.231-.418-.39-.522-.814-.708m-8.606 2.164c-1.663.75-2.226 1.988-2.84 3.611q-.243.632-.436 1.28c.95.018 2.011.114 2.93-.175 1.12-.661 1.547-1.842 2.321-2.832.324-.415.772-.754 1.181-1.082-1.047-.444-2.005-.76-3.156-.802m-3.629.141c-1.633.334-3.047.96-4.017 2.392-.49.723-.73 1.464-.83 2.325l1.683-.003c.8-.029 1.599-.05 2.398-.088.614-1.746 1.186-3.263 2.375-4.718-.533.028-1.08.032-1.609.092m-5.588.504c-1.2.27-2.085.8-2.758 1.85-.438.686-.707 1.493-.944 2.267l1.601.006 1.532-.027c.517-1.537 1.093-2.738 2.14-3.984-.523-.056-1.044-.128-1.571-.112m-45.089 3.183c-.263.345-.52.697-.798 1.03l40.988-.017.284-.103c.13-.321.13-.337.044-.673-.257-.179-.329-.233-.647-.254-1.293-.088-2.64.005-3.94.007l-8.12.003zm167.261 7.358q-5.373 9.47-10.857 18.878 5.23.07 10.462.033c3.597 0 7.205.053 10.8-.044-1.226-2.286-9.538-18.115-10.405-18.867m-155.661.247-6.961 11.822c-1.372 2.311-2.892 4.602-4.096 7.003l11.197.018c3.665-.005 7.34.047 11.003-.021-2.484-3.92-4.797-8.018-7.114-12.039-.71-1.233-3.193-6.025-4.03-6.783m25.623.842c-1.603.198-2.968.743-3.97 2.08-1.056 1.41-1.547 3.465-1.278 5.194.255 1.643 1.183 2.929 2.528 3.87 1.196.836 3.563 1.636 3.89 3.2.087.422-.057.828-.295 1.172-.352.509-.869.773-1.47.877-1.469.252-2.562-.413-3.688-1.254a8 8 0 0 0-.397-.278c-.224 1.15-.939 3.44-.18 4.474.619.844 2.12.997 3.076 1.138 1.925.05 3.644-.026 5.14-1.426 1.255-1.175 1.888-2.89 1.931-4.588.04-1.556-.445-3.256-1.542-4.399-1.196-1.245-5.034-2.775-5.026-4.44.003-.535.18-.963.58-1.325a2.15 2.15 0 0 1 1.602-.561c.904.068 1.889.724 2.741.642.37-.96.516-2.428.35-3.448-.578-.662-1.79-.844-2.632-.907q-.68-.052-1.36-.021m8.58.398c-.375.046-.601.005-.88.27-.292 1.706-.16 12.297.138 14.025.209 1.215.617 2.41 1.334 3.422.883 1.247 2.102 1.952 3.599 2.194 1.682.272 3.653.016 5.04-1.012 1.691-1.253 2.597-3.512 2.845-5.544.321-2.632.07-5.677.058-8.353-.003-1.633.059-3.297-.037-4.924-.613-.049-3.23-.292-3.597.086-1.012 1.04.224 11.594-.773 14.157-.333.856-.93 1.496-1.878 1.586-.662.063-1.322-.117-1.82-.566-.929-.839-1.135-2.275-1.162-3.462-.06-2.589.005-5.195.02-7.786.006-.982.097-2.008.022-2.984a1.84 1.84 0 0 0-.278-.895c-.704-.377-1.849-.23-2.631-.214m15.435-.013a.97.97 0 0 0-.186.505c-.234 2.775-.021 5.743-.016 8.535.007 3.535-.16 7.165.041 10.69 1.085.056 2.389.23 3.448-.045.404-.4.309-1.692.312-2.255l-.017-4.816c.619 1.08 3.474 6.756 4.153 7.165.831.008 3.202.273 3.783-.253.078-1.428-3.171-5.585-3.963-7.168 1.686-.936 2.779-2.189 3.316-4.075.483-1.697.43-3.76-.445-5.32-.793-1.41-2.177-2.307-3.722-2.7-2.087-.531-4.562-.357-6.704-.263m14.162.008-.316.05.016.256-.08-.168-.087.244c.019.036.046.068.056.108.07.287.025.683.054.987l-.272.03.123.127q.09 5.976.06 11.953c.001 1.592-.145 3.313-.015 4.889.032.379.13.873.452 1.117.589.447 2.364.187 3.109.177.168-.09.325-.108.382-.303.218-.741.131-17.613.015-19.445q-1.748-.135-3.497-.022m6.633-.056c-.242 3.725-.04 7.557-.055 11.295-.01 2.515-.28 6.125.045 8.477.789.054 2.98.339 3.6-.103.268-.192.276-1.328.284-1.684.075-3.494.191-7.252-.321-10.713 2.132 4.238 4.205 8.516 6.637 12.596.808.008 3.247.267 3.81-.235q.009-.01.016-.022l.02-13.297c-.003-1.686.248-4.65-.184-6.173-.892-.393-2.66-.15-3.665-.126-.12 4.34-.093 8.714-.046 13.055-1.958-4.472-4.195-8.776-6.513-13.069-1.208-.013-2.42-.049-3.628-.001m21.056.02c-.804 1.996-1.234 4.311-1.827 6.392l-2.344 8.23c-.424 1.5-1.154 3.331-1.2 4.887.22.282.506.267.856.305.968.107 2.004.042 2.978.035.283-1.132.537-2.283.893-3.395q2.32-.005 4.639-.111l.264.079c.4 1.107.58 2.28.977 3.384 1.185.038 2.686.24 3.802-.19.228-.425.012-.942-.122-1.386-.398-1.317-.878-2.608-1.25-3.933-1.33-4.744-2.34-9.638-3.94-14.3-1.241-.005-2.485-.029-3.726.002m13.035-.016c-.647 2.882-.867 5.955-1.295 8.883-.298 2.035-1.615 8.934-1.441 10.597.152.221.093.224.384.285 1.04.22 2.375.057 3.443.041.893-3.841 1.019-8.28 1.475-12.224.481 2.038 2.683 10.799 3.582 12.167.275.15.614.225.927.143.355-.092.474-.281.61-.604.364-.874.521-1.85.785-2.757.543-1.865 1.148-3.706 1.65-5.586.206-.772.325-2.123.736-2.76l.113.154-.23-.129.228.167.023.338c.401 3.674.814 7.396 1.515 11.029 1.316.094 2.626.07 3.944.01q-.934-6.769-2.058-13.509c-.329-2.062-.5-4.223-.962-6.25-1.177-.009-2.357-.033-3.535-.01-1.066 3.458-2.418 6.947-3.052 10.512q-.887-3.348-1.915-6.655c-.382-1.268-.706-2.61-1.225-3.828-1.235-.02-2.468-.044-3.702-.014m19.09.058-.332.14c-.264.672-.123 17.57-.065 19.606 2.677.106 5.462.141 8.136.014.323-1.203.463-2.45.523-3.693-1.547-.13-3.099-.108-4.65-.108-.367-.48-.17-3.461-.157-4.23 1.38-.003 2.762.011 4.142-.012l.003-3.672-4.216-.056c.001-1.35-.019-2.705.008-4.054l4.545.03c.132-1.303.133-2.62.11-3.929-2.668-.117-5.378-.1-8.048-.036M95.659 214.2c-.253.8-1.237 3.323-.948 4.01l.178-.026c.806-.862 1.278-2.12 1.22-3.313-.013-.248-.018-.417-.241-.567-.065-.043-.14-.069-.21-.103m2.245.055-.351 1.685 1.061-.829 1.016-.817zm59.051-.015c.016.058.035.115.046.174.054.29-.008.446-.09.72 1.284 1.921 3.253 3.41 4.682 5.254-.078-.883-.675-1.962-.96-2.827-.364-1.1-.635-2.228-.914-3.352-.92.004-1.846-.015-2.764.031m5.261-.045c-.107 2.803.805 8.449 2.637 10.575-.194-1.389-1.713-9.84-2.563-10.52q-.036-.029-.074-.055m-71.665 4.147c-.418 1.42-2.582 7.686-2.397 8.685.359-.431.784-.891 1.022-1.402.625-1.34 1.549-5.679 1.401-7.13-.005-.052-.017-.102-.026-.153m26.92.303q-4.11 2.19-8.108 4.581c-2.395 1.411-4.66 2.686-6.773 4.522l.047.113c3.385-2.19 7.073-3.857 10.476-6.029.613-.39 3.849-2.763 4.243-2.79l-.063-.195.215-.078zm-16.466 1.257.07.115.043-.01-.022-.157zm-1.912.127c.073.387.082 1.017.362 1.27.039-.452.118-.706-.08-1.12zm-2.136.335.139.146c.309.322.78.583.953.99-.166.316-.44.46-.728.65l.102.165c.351-.169.654-.27.843-.635.002-.322.02-.438-.212-.697-.267-.299-.725-.495-1.097-.62m9.844.2-.195.131.167.121.212-.167zm-.852.242-.137.76.142.201c.174-.23.206-.337.144-.633-.022-.105-.098-.232-.15-.328m-1.404.495-.123.181.185-.055.09-.162zm-8.417.05c.145.428.345.746.598 1.118.014-.403.095-.694-.12-1.041-.158-.028-.318-.064-.478-.077m-2.093 1.205c-.213.35-.251.363-.203.763.21.257.322.383.636.497l.112-.316-.128-.21a2.7 2.7 0 0 1-.275-.623zm6.97.999c-.05.294-.06.126.037.382.091.238.08.387.112.629.01.076.03.15.044.225l.124.068.175-.173c-.002-.45-.048-.66-.248-1.063-.18-.1-.096-.095-.244-.068m.514-.254c-.015.204-.103.52.03.68.118.14.203.167.37.224.034-.208.133-.395.003-.574-.118-.162-.235-.23-.403-.33m-8.52.138c-.575.585-.574.838-.744 1.624l.194.275c.404-.378.792-.697 1.027-1.21-.017-.34-.026-.363-.233-.632zm6.877.51c-.45.582-.349 1.178-.337 1.896l.172.287c.314-.301.494-.403.512-.868.016-.418-.096-.79-.212-1.186zm-14.128.132c-.537 1.753-1.625 4.822-1.715 6.559l1.272-.826c.049-.965.675-5.163.443-5.733m12.846.474c-.32.379-.538 1.408-.544 1.925 0 .106.027.166.06.259.466-.37.619-.593.687-1.198.03-.268.014-.542.002-.81zm10.81 1.287.116.085.074-.048-.095-.082zm2.15.317.067.311.175-.018-.09-.3zm13.38-.065c-1.47 1.87-4.98 7.327-4.912 9.552 1.117-1.538 5.218-7.778 4.945-9.445-.006-.037-.021-.071-.032-.107m-29.877.23-.127.11c-.615.531-1.687.963-2.049 1.689l.152.168.236-.095c.186-.232.272-.434.563-.516.492-.14 1.1-.62 1.455-.98l.044-.25c-.086-.043-.18-.104-.274-.126m15.028-.02.358 1.161c-.16.207-.329.347-.593.406-.499.112-.983-.339-1.337-.633l-.112.016-.042.098c.175.303.337.482.59.716a1.04 1.04 0 0 1-.615.595c-.33.109-.438.083-.718-.089-.091-.056-.177-.12-.264-.181-.133.368.03.847-.22 1.101-.413-.159-.685-.39-1.107-.203-.237.364-.316.63-.73.784-.287-.131-.366-.246-.486-.541-.081-.2-.136-.415-.194-.621l-.261.046c.087 1.045.398 1.154.01 2.28 2.154-1.137 4.254-2.373 6.415-3.496-.09-.428-.155-1.125-.55-1.375-.044-.028-.096-.043-.144-.064m-2.129.47c.159.124.084.117.2.108l-.114-.131zm-16.167.113c-1.088.716-3.302 1.672-4.02 2.689-.05.281-.102.504-.05.788 1.284-.917 3.298-1.974 4.084-3.32zm-2.668.062-.31.481c.128.175.057.126.176.189l.23-.191c-.01-.199-.017-.292-.096-.48m17.565.244c.11.399.115.666.432.941l.439.001c-.232-.388-.47-.717-.871-.942m39.044.569.135.149.115-.036-.126-.147zm-57.43.096c-.272.19-.61.356-.718.685l.024.113c.316-.195.549-.278.728-.608zm17.195.476-.091.215c.142.208.283.375.464.55l.01-.753-.14-.13zm43.89-.117c.077.314.09.527.36.738.054.043.12.07.179.105.066-.344.116-.39-.048-.692zm-57.298.311.06.06zm37.418-.196c-.407 1.724-.241 3.788-.364 5.56-.03.428.387.558.244 1.053-.112.386-.54.747-.813 1.022.245.064.457.044.707.027.235.212.253.266.349.57-.093.308-.1.37-.397.536-.166.093-.378.15-.558.214l-.093.183.151.092c.184-.046.263-.118.439-.011.262.16.442.465.493.765.008.043.007.088.01.132a9 9 0 0 0-.878.689l.056.084.58-.006.256.323c-.183.36-.275.577-.648.77q-.103.053-.204.11l.099.137.55-.014.144.15c-.085.413-.26.825-.242 1.248l.155.095c.24-.189.357-.241.406-.563.123-.81.037-1.774.055-2.597.06-2.697.451-8.163-.497-10.569m21.072.396.133.435c.272.136.376.117.673.105l-.06-.351c-.257-.159-.449-.168-.746-.189m1.037.485c.073.345.055.448.378.64.134.078.362.13.504.174-.091-.346-.105-.449-.349-.702zm-48.465.118c.027.331-.037.49.223.721l.219-.058.054-.19a1.9 1.9 0 0 0-.496-.474m49.762.297-.042.374c.222.196.448.227.728.297l.114.204.157.025.234-.175c-.212-.36-.595-.578-1.003-.682zm-65.883.09c-.636.424-1.22.834-1.776 1.364l-.014.179c.105-.05.222-.094.318-.158l.133-.101c.424-.318.554-.377 1.057-.437.074-.01.286-.064.373-.085.177-.275.134-.349.138-.666zm14.781.467-.128.37c.136.222.276.384.46.567.106-.331.151-.404.066-.734-.133-.077-.252-.152-.398-.203m13.6.227.1.103zm-1.439.265-.155.121.205.04.2-.142zm40.736-.257-.143.59c.223.204.483.192.775.245-.037-.354-.006-.451-.314-.669-.083-.058-.224-.122-.318-.167m-51.017.131c-.32.453-.503.74-1.044.899l-.156.047q-.2.057-.4.108c-.148.255-.197.304-.185.593.29.02.163.047.384-.048.619-.26 1.341-.482 1.853-.925l.056-.242c-.165-.204-.263-.33-.508-.431m36.007.282c.476 1.08 2.564 2.942 3.673 3.446.041.018.085.03.128.046l-.038-.15a7 7 0 0 0-.044-.857c-.198.054-.375.166-.565.067-1.157-.6-2.004-1.92-3.154-2.552m-53.054.23h.113zm13.92-.138c-.178.304-.225.34-.198.685.2.112.394.226.586.352l.043.27-.147.113-.438-.155c-.128.302-.036.408.049.71.353-.168.879-.332 1.098-.647a3.5 3.5 0 0 0-.654-.766l-.04-.372zm-15.713.314c-.752.43-1.356 1.022-1.603 1.884-.06.208-.053.222-.065.407l.063.073c.54-.318 1.45-.748 1.688-1.362.105-.269.03-.664-.022-.944zm27.955-.02-.386.43.02.168.638.364.111-.23c-.113-.255-.204-.515-.383-.731m11.833.363-.462.427c-.005.308.017.302.216.543.25-.246.385-.334.483-.676-.077-.135-.108-.203-.237-.294m-24.994.427.106.083-.069-.085zm12.28.085c-.242.213-.442.282-.467.615l.132.23c.157-.1.32-.141.374-.33.058-.203.014-.32-.04-.515m-13.273.224c-.186.281-.32.437-.321.786.202.23.292.266.625.253.362-.014.796-.213 1.135-.333l-.161-.356c-.435.01-.485.355-.94.322-.248-.275-.088-.447-.338-.672m34.247.004c-.166.303-.387.513-.237.867.077.183.25.378.37.538.135-.373.267-.648.163-1.051zm-35.155.834c-.059.249-.017.358-.242.502-.327.21-.752.257-.99.558.13.144.061.128.163.137.44-.162.866-.316 1.277-.54l.085-.228c-.047-.072-.23-.378-.293-.43m26.538-.05c-.411.24-1.119.532-1.328.966.245.237.382.207.714.252l.155-.108.341.184c.225-.35.278-.625.338-1.033l-.086-.233zm-25.886.333h.117zm35.437.12c-.213.296-.48.569-.472.95.196.118.11.103.235.114.254-.286.46-.423.511-.807-.088-.093-.163-.192-.274-.256m-23.797.63h.144zm25.653-.081c-.215.235-.472.399-.425.752.011.085.071.208.107.288.102-.311.208-.601.346-.9zm7.853.35c.488.476 1.002 1.089 1.7 1.219-.403-.518-.749-1.086-1.445-1.192q-.127-.018-.255-.028m-9.97.363c.148.224.313.627.613.657.077.008.155-.009.232-.013-.087-.352-.041-.445-.347-.631zm-10.644.315c-.27.162-.468.24-.632.522.296.135.604.066.917.035.111.109.218.207.308.334l.077.123c.204-.32.332-.436.334-.822-.208-.202-.25-.23-.56-.229-.113 0-.325.025-.444.037m11.916.297c-.236.3-.314.353-.344.745.23.272.32.294.66.419.253-.32.288-.337.303-.74-.235-.3-.254-.314-.62-.424m10.913.003c-.195.305-.274.324-.208.674l.45.38c.066-.393-.053-.714-.242-1.054m-37.182.119-.208.456c.117.193.04.142.194.2l.22-.148a1.25 1.25 0 0 0-.206-.508m14.514.992c-.34.022-.722-.025-1.004.17.226.239.438.395.709.575l.314.017c.239-.259.271-.302.341-.645l-.113-.155zm23.552.353.036.117.057.021.011-.15zm-24.015.95-.2.044c-.261.052-.446.003-.699-.07l-.267.309.168-.285-.099.149c.205.218.394.242.674.315l.144.264c-.116.336-.238.356-.548.508q-.197.095-.397.185c.139.193.293.364.452.54l.028.122-.45.533.051.156.282.013c.326-.721 1.15-2.071 1.12-2.83zm24.894-.036h.13zm-40.71.496.026.193.063-.013.029-.206zm13.713 1.04.134.082.049-.026-.085-.11zm.272 1.244c.246.272.413.528.768.65l.077-.03c-.12-.262-.228-.477-.52-.58-.106-.038-.216-.036-.325-.04m-.812.755.133.038zm1.003.641.155.047zm-.094.734q-.059.072-.121.142c-.174.186-.337.284-.554.409.009.255-.033.143.116.339.305-.229.504-.392.692-.736l-.07-.143zm17.489.897.036.19.155-.098-.018-.161zm-9 .73.117.036z"/><path d="M127.873 20.875c-.086-.044-.192-.072-.246-.151.085.045.188.074.246.151m0 0 .251.107zm-.732 4.717-.134-.223c.264-.27.714-.273 1.072-.332.088.068.032.015.114.2-.282.258-.69.283-1.052.355m2.644 1.248-.153-.061zm-1.605 2.63c-.235-.009-.468-.01-.697-.062-.333-.077-.327-.109-.508-.384.419-.007.708.013 1.1.162zm1.394 1.13-.073-.069zm-.657 1.976.076-.049zm-6.795 2.933c-.647.015-.934-.315-1.386-.709.56.097.967.337 1.386.709m13.044.367-.304-.09-.005-.132.86-.267c.264-.062.12-.054.432.005-.28.271-.623.359-.983.484m-11.228 1.838c-.293-.078-.576-.087-.774-.322l.266-.31c.277.09.466.119.647.362zm11.552 1.5c-.244-.022-.508-.033-.746-.092-.317-.078-.403-.206-.546-.48.472 0 .788.05 1.208.273zm1.908.529q-.118.008-.236.013c-.661.024-1.132-.436-1.573-.87.234.003.458.024.686.073.547.116.817.327 1.123.784m-12.492 1.12c-.65-.158-1.23-.489-1.91-.581a3 3 0 0 1-.778-.22q.578-.077 1.158-.028c.652.06 1.131.316 1.53.829m12.644-.413-.174.02-.063-.293.16-.03zm-22.457 1.245-.007-.139c.181-.322.626-.491.94-.668l.034.112c-.187.35-.63.512-.967.695m6.024.835-.303.134-.154-.189c.218-.069.248-.017.457.055m6.938.939-.193-.026c.273-.372.73-.601 1.114-.854l.18.035c-.124.331-.79.642-1.1.844m14.294-.147c-.487.041-1.077.142-1.541-.032l-.035-.271c.018-.01.034-.028.054-.032.444-.075 1.113.156 1.522.335m-20.061 1.739-.224.152-.116-.08c.288-.41.52-.562.967-.785.227.015.416-.033.588.124-.4.206-.808.397-1.216.589m13.458.37c-.353-.129-.833-.24-1.087-.52l-.02-.073c.43-.01.699.212 1.003.49q.053.05.104.102m0 .001.167.114zm-17.631.186.117-.104zm17.799-.072.127.098zm-17.977.236.178-.165zm18.103-.138.266.152zm-18.164.202.061-.063zm18.43-.05.065.055zm5.452.443c-.623.069-.902 0-1.399-.356.522.022.915.167 1.399.356m-16.488.058-.065.047.085-.023.085-.049zm.742 12.393-.112-.072zm-2.33 2.232.05.08zm-4.312 19.645c-.761.086-1.577-.038-2.25-.418-.746-.421-1.258-1.139-1.467-1.965-.263-1.038-.043-2.183.527-3.083.625-.987 1.443-1.443 2.553-1.704.662-.013 1.224.08 1.832.353.837.376 1.466 1.027 1.771 1.899q.058.167.1.34.04.172.064.348t.03.353-.006.354-.042.352-.076.346q-.047.17-.112.336-.063.165-.144.323c-.599 1.192-1.575 1.745-2.78 2.165m-.73-4.501c-.006.388-.055.445.187.74.26.042.467.066.73.03-.023-.355-.028-.359-.264-.626a4 4 0 0 0-.653-.144m25.316 14.408-.08-.065zm-1.638 4.253-.067-.068zm0 0 .193.088zm-1.373 4.849-.194-.048zm0 0 .1.112zm.11 6.262-.152-.21zm0 0 .195.04zm.195.04.063.058zm29.516 11.924-.14-.03zm.217 1.597c-.158-.316-.268-.384-.155-.73l.416-.2-.067.815zm-1.003-.261.154-.143zm1.535 4.23-.087-.78.166-.158.319.056c.226.273.303.276.273.623a1.8 1.8 0 0 1-.671.259m-4.667 4.82.017-.177.496.35c-.283.136-.136.104-.44.101zm-63.208 17.003-.082-.066zm-7.694 8.268.195-.232zm7.116 35.757c-.024-1.388-.324-5.096.14-6.165.84.082 1.61.128 2.323.633.635.449 1.035 1.064 1.163 1.834.18 1.085-.238 2.12-.872 2.976-.916.63-1.678.66-2.755.722m38.193 3.114c.735-2.418 1.15-4.913 1.8-7.352.413.502 1.448 6.04 1.898 7.28l-1.612.051zm-69.725 31.047.068-.07zm149.769.918.047.065zM39.405 236.874l.065-.073z"/></svg>