<svg xmlns="http://www.w3.org/2000/svg" viewBox="0 0 256 256"><path d="M126.895 0h2.204c4.943 2.273 10.073 4.244 15.094 6.343 1.722.72 5.369 2.59 6.976 2.82 2.133.305 4.553.093 6.717.091l13.567-.015c1.674-.002 3.947-.278 5.546.168.525.147 1.013.648 1.401 1.02 1.406 1.345 2.674 2.88 4.03 4.281l8.623 8.83c1.367 1.42 2.96 3.488 4.576 4.556 1.387.918 3.359 1.47 4.904 2.11 2.032.843 16.684 6.837 17.453 7.683 1.025 1.129 1.545 3.324 2.12 4.73 1.26 3.084 2.648 6.114 3.904 9.198.956 2.347 2.61 7.203 3.893 9.06.979 1.417 2.67 2.53 3.936 3.7 2.174 2.014 4.295 4.084 6.477 6.09 2.366 2.175 6.543 5.671 8.271 8.197q-.073 9.14-.016 18.28c.002 2.011-.262 6.117.127 7.903.32 1.476 1.34 3.314 1.947 4.748l3.637 8.826q1.315 3.186 2.565 6.397c.358.915.645 2.063 1.153 2.886v.827c-2.528 5.504-4.79 11.21-7.02 16.84-.714 1.804-2.171 4.885-2.417 6.703-.273 2.013-.064 4.302-.052 6.343l.077 12.863c.007 1.409.277 3.994-.19 5.268-.562 1.536-12.223 12.665-14.406 14.836-1.247 1.24-2.854 2.531-3.785 4.009-1.341 2.129-2.296 4.974-3.296 7.297-1.344 3.12-2.794 6.193-4.125 9.319-.565 1.327-1.769 4.982-2.656 5.826-.837.797-14.787 6.426-17.144 7.393-1.619.665-3.665 1.247-5.055 2.293-1.259.947-2.395 2.392-3.502 3.523-1.826 1.868-14.635 15.091-15.283 15.355-1.348.549-4.35.248-5.893.241l-13.423-.02c-2.157.002-4.615-.215-6.742.128-1.715.277-3.653 1.353-5.25 2.028l-10.072 4.271c-1.709.725-4.907 1.857-6.421 2.755h-2.08c-5-1.847-9.925-4.06-14.835-6.136-2.112-.893-5.35-2.453-7.52-2.887-1.963-.392-4.685-.084-6.739-.075l-12.808.017c-2.226-.013-4.495.06-6.712-.119-1.008-1.273-2.23-2.453-3.353-3.632-2.525-2.652-5.12-5.233-7.668-7.862-1.504-1.551-5.842-6.505-7.31-7.408-1.961-1.208-4.944-2.26-7.15-3.18-3.354-1.399-6.681-2.868-10.049-4.234-1.369-.555-4.076-1.29-5.167-2.236-.328-.284-.56-.727-.748-1.113-.847-1.74-1.485-3.65-2.231-5.44l-4.87-11.62c-.651-1.593-1.29-3.836-2.227-5.212-.908-1.334-2.486-2.472-3.675-3.581l-9.42-8.777c-1.726-1.601-3.868-3.257-5.259-5.14-.244-1.734-.052-3.68-.05-5.438l.02-12.843c.004-2.197.191-4.594-.094-6.768-.258-1.962-1.568-4.548-2.313-6.43Q3.68 137.245 0 128.714v-.675c.784-2.932 2.116-5.797 3.286-8.597q2.08-4.936 4.04-9.92c.671-1.679 1.673-3.506 2.06-5.264.406-1.844.085-4.472.077-6.404-.023-5.735-.16-11.495-.073-17.227.01-.667.016-1.444.361-2.035.982-1.682 2.9-3.084 4.3-4.415l9.118-8.761c1.494-1.412 3.374-2.79 4.63-4.406 1.203-1.547 2.15-4.691 2.911-6.572q2.057-5.024 4.165-10.027c.675-1.645 1.225-3.369 1.96-4.984.232-.51.52-1.065.927-1.456.993-.955 3.513-1.694 4.856-2.26l12.008-5.118c1.912-.82 4.13-1.556 5.884-2.644 1.71-1.06 3.12-2.99 4.529-4.43 4.589-4.69 8.977-9.621 13.703-14.17 2.34-.127 4.718-.05 7.063-.053l12.242-.022c1.957-.002 4.805.232 6.646-.035 1.463-.213 7.295-2.872 9.082-3.618q4.343-1.793 8.665-3.638c1.477-.631 3.05-1.206 4.455-1.982m1.172 6.854c-3.125 1.994-7.507 4.333-10.851 5.937q5.362-.076 10.724-.072 5.323-.032 10.646.042c-3.499-1.958-7.133-3.766-10.52-5.907M81.71 16.711c-2.982 2.997-5.94 6.108-8.505 9.476 2.95-1.456 5.906-2.883 8.95-4.135q6.203-2.717 12.518-5.161c-4.318-.232-8.642-.084-12.963-.18m82.522.1-3.186.05c6.325 2.62 12.745 4.9 18.907 7.918l2.1.942q-3.625-4.51-7.337-8.95-5.242-.029-10.484.04m-37.06 3.999c-22.214.537-42.97 6.638-61.082 19.744-4.579 3.312-9.017 6.971-12.924 11.064-2.426 2.543-4.891 5.11-7.108 7.838-12.391 15.252-21.605 34.424-24.419 53.96-.89 6.175-1.087 12.36-.938 18.59.16 6.67 1.278 13.404 2.883 19.868q.38 1.563.805 3.115t.893 3.092q.469 1.54.981 3.065t1.068 3.036q.555 1.51 1.153 3.004.599 1.494 1.239 2.97t1.323 2.934q.682 1.457 1.405 2.895.724 1.437 1.488 2.853t1.568 2.81q.803 1.395 1.647 2.765.843 1.37 1.725 2.717t1.802 2.666 1.877 2.614 1.95 2.56q.994 1.266 2.023 2.503c2.732 3.261 5.859 6.31 8.938 9.24q.655.614 1.322 1.217.666.603 1.343 1.194t1.363 1.171 1.383 1.147q.697.568 1.403 1.123.706.556 1.422 1.099.715.543 1.44 1.074t1.46 1.05 1.477 1.023q.742.506 1.494.998.751.493 1.511.972.76.48 1.528.947t1.544.92 1.56.892 1.574.866 1.59.839 1.603.81q.805.4 1.618.784.811.385 1.63.755.819.371 1.644.727.824.357 1.655.699t1.667.67q.837.328 1.68.641.841.314 1.689.612.848.299 1.7.583t1.71.554 1.718.524 1.728.494 1.736.464 1.744.435 1.751.404 1.758.374c2.21.467 4.42.958 6.657 1.273 5.236.738 10.73 1.007 16.022.978q.934-.004 1.868-.025.934-.02 1.868-.057.933-.036 1.866-.09.933-.053 1.864-.122.932-.07 1.862-.155.93-.086 1.859-.188t1.855-.22 1.852-.253q.924-.135 1.846-.285.922-.151 1.841-.318.92-.167 1.836-.35t1.828-.382q.913-.198 1.822-.413.91-.216 1.815-.446.905-.231 1.806-.478t1.798-.508 1.789-.541 1.779-.572 1.768-.602 1.758-.634 1.746-.665 1.734-.694 1.722-.725 1.71-.756 1.695-.785 1.681-.814 1.667-.844 1.652-.873 1.636-.902 1.62-.93q.807-.473 1.604-.96.798-.486 1.587-.986c6.781-4.384 12.916-9.582 18.622-15.281q.936-.949 1.848-1.92.912-.972 1.8-1.965.889-.994 1.752-2.008t1.702-2.051q.838-1.036 1.65-2.092.813-1.056 1.6-2.132.786-1.076 1.545-2.17.76-1.095 1.492-2.209.733-1.113 1.438-2.243.705-1.131 1.382-2.279t1.325-2.312 1.268-2.344 1.21-2.374 1.152-2.403 1.092-2.43 1.032-2.458.971-2.481.91-2.505.849-2.526q.408-1.268.785-2.546t.723-2.565.66-2.582.596-2.597.532-2.611q.25-1.31.468-2.624t.403-2.634.338-2.643q.153-1.324.273-2.651t.208-2.657.143-2.661.077-2.664.011-2.665c0-5.286-.597-10.637-1.539-15.833-2.573-14.19-7.814-26.775-15.411-38.992-4.338-6.977-9.35-13.664-15.178-19.476q-.919-.921-1.86-1.82-.94-.898-1.903-1.773-.962-.875-1.946-1.725t-1.988-1.678q-1.005-.826-2.03-1.627-1.024-.802-2.068-1.578t-2.107-1.526-2.143-1.474-2.18-1.42q-1.097-.697-2.213-1.366-1.115-.67-2.246-1.312t-2.278-1.256-2.308-1.2-2.337-1.141-2.364-1.085-2.391-1.026-2.415-.967-2.438-.907-2.46-.846q-1.234-.409-2.479-.787-1.245-.377-2.498-.724t-2.516-.663q-1.261-.316-2.53-.601-1.27-.285-2.545-.539-1.276-.253-2.558-.476t-2.568-.412-2.578-.35q-1.29-.158-2.585-.285t-2.592-.222-2.596-.158-2.6-.095-2.601-.03q-.431 0-.862.01m74.94 18.394c3.798 3.79 7.461 7.69 11.33 11.413.996.959 2.121 2.322 3.258 3.054-1.155-3.378-2.928-7.07-4.287-10.465-1.503-.75-8.942-3.83-10.301-4.002m-148.826.423c-1.54.483-3.091.951-4.602 1.522-1.769.669-3.498 1.439-5.287 2.056-.612 1.345-4.278 10.757-4.078 11.6l.09-.035c2.263-2.509 4.637-4.934 6.994-7.354 1.43-1.47 6.342-6.117 7.072-7.667-.12-.133-.05-.105-.19-.122m176.034 33.57c2.496 4.981 4.674 10.013 6.824 15.147.225.538 2.207 5.657 2.339 5.739l.093-.709.447-7.218c.076-1.425-.02-3.011.304-4.398-1.603-1.45-8.664-7.907-10.007-8.56m-203.726.67c-2.023 1.593-7.07 5.766-8.278 7.807l-.048.08c-.086 2.548-.044 5.105-.034 7.655.006 1.523-.124 3.261.151 4.756 1.365-2.769 8.2-18.312 8.209-20.297m217.42 43.447c-.018 2.729.174 5.428.197 8.15.039 4.512-.093 8.989-.195 13.496.764-1.157 1.396-2.386 2.046-3.609q1.878-3.515 3.612-7.104c-.894-1.83-4.492-10.032-5.66-10.933m-230.459.16q-2.89 5.3-5.377 10.802 1.78 3.884 3.83 7.634c.627 1.122 1.236 2.22 1.736 3.407.069-4.438-.134-8.887-.128-13.33q-.014-2.538.036-5.077c.02-.985.133-2.068.041-3.04-.017-.177-.011-.265-.138-.397m4.722 43.867c-.298 4.28-.241 8.745-.14 13.034 3.026 2.655 5.967 5.41 9.03 8.02-1-3.042-2.586-5.942-3.838-8.892-.668-1.573-4.528-11.531-5.052-12.161m221.411-.008c-2.642 7.269-6.18 14.154-9.235 21.243-.15.347-.474.893-.385 1.252l.039.031c3.4-3.07 6.611-6.449 9.74-9.795-.014-2.023.189-11.651-.159-12.731M38.974 201.608c1.217 3.678 2.726 7.346 4.214 10.923a81 81 0 0 1 5.096 1.986c1.657.705 3.362 1.531 5.125 1.924-2.252-2.839-4.95-5.274-7.457-7.878-1.7-1.765-5.06-5.665-6.978-6.954m176.938.738c-1.138.853-13.252 13.46-13.52 14.166l.09.094c3.441-1.106 6.699-2.767 10.085-4.03.65-1.483 3.794-9.027 3.47-10.105zM73.379 229.964q2.526 2.763 4.945 5.621c1.023 1.21 2.005 2.521 3.098 3.662 4.124.003 8.271.097 12.392-.042-2.063-1.577-8.092-3.446-10.827-4.618-2.257-.968-4.443-2.164-6.645-3.255-.942-.467-1.961-1.071-2.963-1.368m108.603.157c-2.543 1.226-4.981 2.68-7.55 3.849q-1.806.82-3.654 1.541c-1.365.523-7.985 2.572-8.564 3.546l.191.12c4.032.207 8.126.063 12.165.064 1.151-1.302 7.24-8.01 7.528-9.005zm-64.561 13.11c3.588 1.9 7.065 3.965 10.621 5.908 2.223-1.353 4.475-2.728 6.783-3.931 1.275-.659 2.605-1.279 3.843-2.002l-14.037.04c-2.397-.002-4.815-.08-7.21-.015"/><path d="M130.781 232.874c-28.423.291-52.98-8.743-73.984-27.911-13.508-12.327-22.94-27.951-28.698-45.209-2.89-8.661-4.817-17.596-5.219-26.742-.978-22.227 5.582-43.723 17.778-62.235q2.4-3.679 5.084-7.156 2.683-3.478 5.634-6.732c16.829-18.324 38.292-29.752 63.006-33.001 3.721-.49 7.48-.672 11.227-.833 28.03-.327 53.577 9.224 73.94 28.58 13.635 12.962 24.582 31.35 29.718 49.438q.835 2.926 1.483 5.9t1.105 5.983.721 6.04.335 6.076q.022 1.32.012 2.641-.011 1.321-.055 2.642-.043 1.32-.119 2.639t-.184 2.635-.25 2.63-.315 2.623-.379 2.614-.443 2.605-.508 2.592-.571 2.579-.636 2.564-.698 2.548-.761 2.53-.824 2.51-.885 2.489-.946 2.466-1.007 2.443-1.067 2.416-1.126 2.39-1.185 2.361-1.244 2.331-1.3 2.3-1.356 2.267-1.413 2.232-1.467 2.197q-.747 1.09-1.52 2.16-.774 1.071-1.574 2.122t-1.626 2.082-1.676 2.042-1.727 2q-.875.989-1.775 1.956t-1.823 1.912q-.874.898-1.769 1.776-.895.877-1.81 1.733-.917.855-1.853 1.688-.937.833-1.893 1.643-.957.81-1.933 1.597-.975.786-1.97 1.549t-2.008 1.5q-1.012.74-2.043 1.453-1.03.713-2.077 1.401-1.048.689-2.112 1.351-1.064.663-2.143 1.3-1.08.637-2.175 1.247t-2.203 1.194-2.233 1.14-2.259 1.085-2.285 1.03-2.31.975-2.332.918-2.353.862q-1.183.416-2.374.804t-2.393.746q-1.201.359-2.41.689t-2.427.629-2.44.57-2.454.511-2.466.451-2.476.392-2.484.33-2.492.271-2.498.21-2.502.15-2.505.089M111.252 75.847c3.492-.781 7.135-1.156 10.682-1.62 14.076-1.836 28.451-2.731 42.569-.827l.132.188.364-.005-.125-.17-.371-.013c-2.358-.972-6.14-1.338-8.706-1.602-2.913-.3-5.854-.659-8.78-.776-8.749-.35-17.788.467-26.479 1.479q-3.872.48-7.729 1.075c-1.484.219-3.068.56-4.568.537-.913-.014-1.85-.424-2.678-.781 2.471-.48 5.005-.751 7.497-1.124q6.769-1.072 13.59-1.718 6.823-.646 13.672-.864c.904-.023 2.093-.354 2.95-.17.383.083.667.052 1.046-.01l-.076-.14c-7.536-.928-15.201-.436-22.737.235q-4.218.41-8.422.933-4.206.522-8.395 1.158-4.19.636-8.36 1.385-4.171.749-8.32 1.61t-8.273 1.834-8.221 2.055-8.163 2.277-8.098 2.496c-4.412 1.404-8.92 2.736-13.243 4.391-1.855.71-3.738 1.438-5.556 2.234-1.462.639-2.883 1.53-4.462 1.83q-.501 1.27-1.027 2.53l.243-.07c2.34-.684 4.59-1.79 6.866-2.667 3.803-1.466 7.698-2.8 11.56-4.108 5.852-1.984 11.792-3.993 17.742-5.65 7.875-2.195 15.859-3.901 23.87-5.509 3.49-.7 9.167-2.325 12.545-2.269l.121.001c-2.148.994-4.638 1.106-6.922 1.654-1.18.283-2.186 1.016-3.353 1.3-1.403.34-2.86.549-4.276.833q-4.837.983-9.66 2.03c-12.498 2.84-25.315 6.784-37.384 11.115-3.937 1.414-8.05 2.703-11.81 4.543-.376.934-1.388 2.88-1.153 3.842.726.352 1.805.296 2.616.45 2.197.412 4.632.85 6.74 1.572 1.174-1.105 1.848-2.566 2.996-3.637.94-.876 1.981-.696 3.036-1.194 1.459-.69 1.989-1.727 3.864-2.388.812.208 1.504.368 2.192.869.859.625 1.743 1.215 2.47 1.997.488.524.81 1.116 1.347 1.614-1.024.323-2.051.656-3.112.837-1.55.264-3.171.316-4.684.755-.696.202-4.121 1.536-4.614 1.391l.011-.148c1.448-1.04 6.705-2.904 8.592-3.593-3.634.67-7.324 1.566-10.23 3.943 1.426.524 2.871.876 4.346 1.227 1.224-1.358 3.583-1.584 5.192-2.432 5.13.76 4.697-2.097 8.066-2.404 2.776-.252 4.167 2 6.988-.084.317-.234.62-.488.957-.693l1.582-.084c2.066 1.177 4.826 2.283 5.493 4.792q.053.2.1.4c-2.156 1.051-4.205 1.469-6.485 2.128-2.535.733-5.05 1.543-7.59 2.255 1.334.385 2.694.762 4.075.937 1.352-.866 4.935-2.638 6.419-3.016.926-.237 1.925-.074 2.832-.395 1.15-.409 2.125-1.166 3.236-1.652 1.605.479 2.255.361 3.742-.442l.583-.318.091.132c.19.27.364.594.706.676.24.058.51.04.747.112.465.14 1.129.999 1.424 1.393.322.43.733 1.056.662 1.621-.043.341-.232.591-.515.773-.515.33-1.167.407-1.76.493-3.174.462-6.473 1.388-9.456 2.58 1.13-1.915 7.675-3.151 8.878-4.35-.833-.365-4.894 1.056-5.951 1.462-2.182.839-4.45 1.736-6.727 2.278 1.174.366 2.3.47 3.475.744.878.205 1.692.633 2.584.81 2.933-1.581 6.333-3.075 9.702-3.218q.269.865.519 1.737a7 7 0 0 1 1.609 1.46c-2.27.573-4.534.994-6.811 1.502.868.34 1.734.672 2.618.965 1.778-.696 5.009-2.371 6.959-1.865.357.316.335.62.362 1.096.04.73.116 1.374.286 2.088-.925.023-1.799.129-2.709.287 1.088.434 2.159.865 3.307 1.12.273 2.496 1.629 3.29 1.457 6.413-3.519.683-7.214.933-10.784 1.313q-5.924.643-11.809 1.578c-2.799.44-5.58 1.265-8.326 1.961q-5.75 1.418-11.477 2.93c-2.184.589-6.629 1.506-8.36 2.544l-.052.077.053-.076c4.479-.332 8.972-1.255 13.429-1.833q15.015-1.96 30.125-2.968c2.742-.171 6.282-.632 8.952-.388.773.07 1.296.301 1.968.682-1.743.425-3.668.435-5.455.564l-9.099.65q-10.924.803-21.81 2.004c-6.315.638-12.763 1.226-18.983 2.516-2.555.53-5.084 1.319-7.597 2.018-2.187.61-4.701 1.2-6.722 2.24.04.608.047 1.219.065 1.827 11.839-2.386 23.967-3.582 35.987-4.648q10.202-.984 20.426-1.7c3.1-.197 6.202-.41 9.304-.561 1.688-.082 3.516-.246 5.2-.083.896.086 1.742.464 2.559.817-2.29.664-5.084.552-7.469.71q-7.383.528-14.775.937-17.71 1.256-35.359 3.182c-5.243.618-10.637 1.113-15.81 2.175.168 1.388.372 2.758.712 4.115 17.207-2.455 34.568-3.625 51.909-4.647q6.682-.431 13.373-.702c1.871-.077 3.889-.311 5.743-.17.68.053 1.403.376 1.984.719l.02.189c-1.08.71-17.155 1.255-19.966 1.417q-17.968 1.15-35.924 2.487c-5.586.471-11.155 1.107-16.739 1.595.011 1.746.384 3.402.801 5.087 3.173-.201 6.381-.726 9.546-1.072 5.49-.602 11.004-1.112 16.502-1.63 4.192-.394 34.54-2.663 36.205-1.661.21.126.141.084.221.349-.457.382-1.488.439-2.081.497-2.481.243-4.982.348-7.469.53l-19.973 1.368q-16.296 1.135-32.548 2.786c.416 1.99 1.062 3.942 1.647 5.888 5.88-1.108 12.054-1.53 18.007-2.102q17.724-1.731 35.512-2.564c1.552-.071 6.052-.507 7.34-.166.332.088.446.153.604.453-.04.112-.066.21-.14.308-.44.582-1.397.515-2.044.555l-58.976 4c.255 2.05 1.156 4.15 1.963 6.041 4.475-.405 8.922-1.12 13.404-1.517 13.185-1.166 26.325-1.87 39.548-2.405 2.263-.091 8.222-.742 10.107-.096l-.033.175c-1.51.727-6.972.661-8.994.75q-9.477.47-18.94 1.194c-4.263.288-8.532.483-12.79.84l-13.884 1.177c-2.691.244-5.371.557-8.068.744.591 2.017 1.575 3.93 2.476 5.822 1.404.01 2.813-.116 4.213-.204.222-.526.48-1.005.93-1.371.276-.224.567-.342.928-.275.652.121.894.773 1.185 1.294 1.052.205 2.122.17 3.19.17l-.232.076c-.87.298-1.669.304-2.546.517.166.227.314.465.465.703-.037.81.236 1.703.628 2.414.3.545 1.03.624 1.587.771l.828-1.297q-.129-1.082-.22-2.168c.557-.851 1.056-2.637 1.489-3.116.191-.21.438-.381.732-.375 1.081.024 2.035 1.157 2.74 1.855 6.004-1.254 12.225-1.532 18.333-1.886 3.116-.181 6.251-.489 9.374-.44-1.703.567-3.694.697-5.466.936q-7.368.978-14.788 1.39c-2.072.12-4.206.012-6.261.215.053.227.255.501.352.724.23.526.078 1.251.024 1.81.57.585 1.459 1.03 1.68 1.866-.176.63-.785.983-1.334 1.268-1.178.613-2.614.95-3.878 1.358-2.146.693-4.288 1.411-6.445 2.067-.791.24-2.223.458-2.816 1.037l.024.154c1.53.036 5.883-1.727 7.601-2.217q8.109-2.335 16.276-4.461 13.008-3.255 26.258-5.316c2.797-.461 5.57-1.009 8.38-1.399 5.922-.821 11.956-1.513 17.922-1.848 3.973-.223 7.938-.245 11.915-.275 8.109-.06 15.814.231 23.875 1.221 3.486.428 7.04.757 10.476 1.486.867-.487 1.662-.785 2.67-.818 1.905-.062 2.913.835 4.227 2.022 1.38-.101 3.194-.985 4.517-.657 1.151.285 1.668 1.493 2.19 2.429l.385-.232c.274-.168.547-.34.836-.484 6.309-3.16 5.875 1.48 7.457 1.512 1.945.038 3.534-1.849 5.644-1.038 1.236.474 1.006 1.66 1.542 2.617.776 1.387 5.195-.051 6.876.482 1.61.51 1.008 1.644 1.655 2.744.934 1.589 4.45.302 5.966.66 1.373.324 1.132 1.751 1.764 2.684.998 1.471 2.896-.791 4.18-.514 1.94.419 1.078 1.63 2.028 2.67.217.24.427.202.721.214 1.034-.734 2.385-3.7 3.076-4.92-2.15-1.589-4.777-2.18-7.25-3.044-8.41-2.94-16.714-5.554-25.607-6.547-2.96-.331-6.003-.464-8.978-.584-1.686-.069-3.444-.036-5.11-.297l-.194-.031c2.745-.52 5.67-.355 8.448-.272 6.4.193 12.707.864 18.925 2.474 4.469 1.156 8.802 2.767 13.133 4.336 2.408.872 4.89 1.504 7.097 2.856 1.529-2.546 3.2-5.65 4.219-8.436-2.36-1.234-5.172-1.781-7.758-2.36-7.674-1.716-15.36-2.262-23.201-2.592q-12.022-.514-24.051-.263l-9.08.08c-2.373.03-4.752.138-7.124.054 3.414-1.438 8.865-1.647 12.586-1.827 11.16-.538 22.235-.096 33.359.88 4.667.409 9.357.779 13.975 1.584 4.052.707 7.847 1.876 11.706 3.273.397-.877.748-1.744 1.047-2.66-3.553-1.302-7.79-1.839-11.516-2.55-9.311-1.775-18.348-2.603-27.8-3.143-4.382-.25-8.738-.518-13.13-.585l-14.938-.16c-2.958-.042-5.97.003-8.917-.267 9.904-3.008 26.545-1.072 37.106-.387 5.454.354 10.861.713 16.304 1.24 2.154.209 4.336.36 6.476.68 5.725.855 11.52 1.872 16.934 3.97 1.36-3.348 2.543-7.273 3.217-10.831-3.412-.713-6.917-1.173-10.361-1.71-3.954-.618-7.954-1.309-11.928-1.762-1.438-.163-8.485-.513-9.09-.947l-.025-.31c.11-.236.185-.362.399-.523.776-.584 3.27-.133 4.236-.062 9.126.67 18.135 2.209 27.106 3.97.52-1.707.822-3.472 1.16-5.223-3.553-.78-7.163-1.172-10.77-1.595-6.528-.765-13.072-1.301-19.612-1.93-.63-.06-1.408-.096-1.839-.614-.022-.325-.058-.37.123-.633 1.497-.23 5.24.236 6.91.383q10.486.864 20.89 2.428c1.52.224 3.013.59 4.534.816.116-1.783.596-3.457.599-5.276-5.752-1.014-11.591-1.587-17.384-2.327-1.506-.192-4.328-.159-5.656-.688-.32-.128-.427-.215-.56-.526.109-.278.07-.341.344-.489l.244.185c1.675-.542 14.803 1.416 17.333 1.836 1.978.328 3.93.804 5.911 1.13.142-1.29.644-4.311.178-5.448-1.72-.489-3.754-.573-5.537-.802q-5.961-.776-11.937-1.43c-1.751-.19-3.56-.232-5.297-.494-.484-.072-.865-.195-1.162-.602.002-.232-.051-.223.088-.358 1.208-1.18 20.405 2.323 23.87 2.45.214-.145.2-.22.237-.467.147-.962.295-4.235-.322-4.921-.21-.233-.516-.37-.816-.442-.853-.206-1.825-.24-2.699-.353q-3.144-.408-6.295-.767c-8.685-.995-17.388-1.63-26.093-2.385-.63-.055-1.444-.182-1.876-.684l.089-.19c1.383-.56 4.771-.032 6.393.078 10.512.714 21.191 1.666 31.522 3.797.01-1.574.093-3.228-.142-4.786-2.975-.818-6.3-1.012-9.358-1.38q-10.773-1.231-21.586-2.051c-2.035-.134-4.075-.228-6.112-.335-1.341-.07-2.74-.064-4.053-.373-.65-2.374-1.89-4.35-2.976-6.524.357-.367.769-.865 1.248-1.062.37-.152.602-.03.953.094 1.778.63 1.016.076 2.393-.572.32-.15.693-.295.904-.592.294-.413-1.655-1.634-1.81-2.92-.117-.967.352-1.62.924-2.329l1.443.28c.576-.258.726-1.322 1.308-1.729a.75.75 0 0 1 .769-.085c.723.29 1.128 1.23 1.463 1.873.7-.19 1.718-.367 2.372.029.862.522 1.001 2.133 1.204 3.053-.619.732-1.095.846-1.904 1.26-.296.152-.588.4-.657.743-.213 1.05 1.478.86 1.91 1.705.293.575.057 1.207-.101 1.784 1.012-.191 2.546-.658 3.489-.078.368.227.505.383.623.793.09.317 1.52.826 1.855 1.323.324.482.561 1.482.427 2.057a2.8 2.8 0 0 0-.08.623c.62.196 14.243 1.085 14.534.969-.722-2.37-10.83-.896-11.978-1.858-.037-.256-.084-.206.05-.385.43-.567 1.196-.642 1.846-.784.573-.856 1.125-1.828 2.131-2.227 1.184-.47 2.451.1 3.53.591l.02-.09c.145-.748.241-1.43.903-1.911.42-.116.802.07 1.207.178.376.1.618.14.97-.063-.069-.459-.178-1.017-.035-1.469.509-1.595 2.128-1.118 3.254-1.66.3-.885-.786-1.828-1.122-2.64-.159-.383-.258-.844-.057-1.23.248-.476.957-.736 1.441-.876 2.739-.791 4.212 1.422 6.182 2.427l.136.067c-.51-2.086-1.205-4.124-1.87-6.165-.93.26-1.991.569-2.95.662-1.16.112-1.573-.047-2.425-.778 1.591-.729 3.214-1.06 4.92-1.395-.295-.842-.576-1.659-1.014-2.44q-1.096.417-2.238.68-1.143.263-2.31.366a9.6 9.6 0 0 0-1.294-1.644c1.545-.514 3.458-1.122 5.093-1.054-.179-.872-.35-1.683-.675-2.515q-2.187.47-4.412.703t-4.462.222l-.73-.802c2.941-.824 5.963-1.323 8.911-2.121a26 26 0 0 0-.78-2.26c-3.469.487-6.917 1.251-10.4 1.618-1.21.127-2.359-.341-3.568-.055-.97.229-1.659 1.077-2.635 1.348-2.818.781-5.742 1.248-8.578 2.016l-8.816 2.426c-2.243.606-4.457 1.25-6.766 1.555 2.67-1.488 6.169-2.214 9.093-3.082q15.153-4.576 30.659-7.757c-.308-.716-.71-1.382-1.098-2.056-2.868.76-5.952 1.113-8.873 1.679-5.652 1.094-11.334 2.317-16.895 3.8-8.276 2.209-16.515 4.656-24.746 7.027l-6.343 1.863c-1.337.396-2.746.913-4.131 1.089l-.2-.117-.048.025.121.1c-.307-.058-.174.012-.396-.212.145-.394 4.457-1.435 5.21-1.703 5.66-2.013 11.425-3.691 17.183-5.394q10.409-3.157 20.96-5.799 6.159-1.46 12.341-2.818c1.167-.265 3.797-.62 4.7-1.142.074-.69-.478-1.46-.823-2.038-9.256 1.912-19.03 3.357-28.1 5.917q-12.34 3.492-24.571 7.347c-5.108 1.66-10.191 3.705-15.39 5.045-1.718.442-5.21 1.103-6.893.575-.275-.086-.295-.124-.41-.368.504-.48 9.629-2.161 11.65-3.09l.14-.067q-4.887.514-9.715 1.426c-1.572.287-3.443.953-5.026.957-.663.002-1.24-.367-1.797-.682 3.868-.796 7.703-1.535 11.61-2.12 4.007-.599 8.339-.77 12.144-2.222l-.007-.124c-1.023-.344-16.992 1.708-19.258 2.077-2.12.345-4.643 1.013-6.737 1.185-.264.021-.469-.063-.687-.21-.207-.14-.141-.089-.207-.358.179-.231.38-.294.654-.364 1.429-.362 3.013-.492 4.475-.76 5.47-1.004 11.037-1.907 16.569-2.484 2.814-.293 10.56-.552 12.718-1.507l-.085-.087c-.386-.053-.76-.144-1.133-.007-.668.245-9.452.455-11.014.566-4.14.293-8.305.734-12.425 1.241-1.687.208-11.125 1.826-12.025 1.66-.321-.06-.731-.235-.914-.515.57-.484 3.525-.756 4.383-.899 8.213-1.364 16.505-2.676 24.822-3.178 1.713-.103 3.43-.219 5.145-.261 2.67-.066 7.106.218 9.512-.642-2.091-.303-4.218-.284-6.328-.315-7.65-.112-15.174.678-22.763 1.49-5.255.563-10.967 1.09-16.124 2.141-.42-.164-.945-.343-1.23-.7.37-.46 5.137-.95 6.131-1.094 7.396-1.07 14.822-2.378 22.29-2.806 3.915-.225 7.885-.362 11.807-.352 2.984.008 9.748.721 12.182.016-3.731-.29-7.482-.707-11.222-.848-7.917-.3-15.948.104-23.822.925-4.177.435-8.377.875-12.537 1.442-2.076.283-4.765.953-6.788.953a1.9 1.9 0 0 1-.628-.531l.048-.242c1.35-.65 4.552-.868 6.206-1.117 12.362-1.858 24.684-3.13 37.204-2.795 2.895.078 5.738.368 8.62.578 2.174.159 4.338.5 6.523.244l-.117-.11c-2.333-.558-4.935-.651-7.328-.89-13.726-1.372-27.602-.708-41.285.828-4.024.451-8.057.898-12.053 1.56-.318-.38-.581-.804-.856-1.216 3.208-.668 6.618-.932 9.87-1.335 10.88-1.35 21.714-2.233 32.689-1.99 4.23.095 8.575.326 12.772.847.95.118 4.379.905 5.102.692l-.022-.167c-.995-.528-3.555-.798-4.776-.986-12.91-1.99-28.159-1.926-41.196-.668-2.107.204-15.674 1.977-16.808 1.668-.319-.087-.408-.176-.57-.454l.14-.182c4.013-.778 8.074-1.217 12.128-1.723 12.275-1.533 23.686-2.346 36.073-1.26 3.042.266 6.123.677 9.135 1.18 1.083.181 2.199.564 3.266.684.558.064 1.197.334 1.743.237-3.9-1.107-8.038-2.058-12.068-2.605-3.332-.452-6.651-.622-10.001-.844-3.58-.238-7.205-.428-10.796-.348-6.37.142-12.706.714-19.047 1.29q-4.046.383-8.074.916c-1.094.141-2.216.416-3.312.47-.739.036-1.856.003-2.428-.525l.053-.211c.85-.562 6.905-1.221 8.225-1.389 12.927-1.637 26.036-2.517 39.051-1.53q3.515.281 6.992.87c1.411.248 2.851.654 4.278.761-.046-.04-.086-.087-.136-.121-.848-.565-4.416-1.136-5.616-1.376-4.783-.958-9.54-1.178-14.394-1.396q-7.565-.392-15.137-.179t-15.103 1.03q-3.545.369-7.073.878c-1.447.222-2.937.575-4.393.674-1.228.084-1.73-.033-2.651-.843m71.907 4.581.216.072.124.093-.124-.093zm2.864 1.323.144.216.332.021-.332-.02zm-109.96 23.47c-1.017.178-8.802 2.928-9.21 3.533-.026.038-.04.083-.06.124 1.366-.058 8.432-2.751 9.27-3.657l.061-.064zm48.593-80.042c-4.94.269-9.808.628-14.693 1.459-22.666 3.856-42.383 15.181-57.68 32.24-3.863 4.307-8.029 9.258-10.806 14.359 2.44.244 4.812.906 7.194 1.465q4.112.974 8.274 1.707c1.375.235 2.854.572 4.25.5 1.324-.067 4.015-1.24 5.433-1.696q3.504-1.093 7.023-2.135c4.69-1.388 9.55-2.553 14.334-3.565q3.754-.822 7.541-1.48 3.787-.66 7.599-1.154 3.811-.494 7.64-.823 3.83-.329 7.67-.492 3.064-.145 6.132-.121c1.357.023 2.735.158 4.09.069 1.961-.084 4.066.267 6.035.41 15.465 1.116 30.914 5.205 45.187 11.207 1.947-.977 4.332-1.52 6.42-2.162 5.417-1.666 10.922-3.1 16.405-4.531 2.797-.73 5.68-1.345 8.42-2.268-1.443-2.636-5.442-7.098-7.58-9.45-13.235-14.556-28.558-24.306-47.476-29.827-8.841-2.58-18.265-3.762-27.471-3.742-1.3.003-2.646-.06-3.94.03m-5.874 42.253q-2.48.147-4.955.35t-4.947.46q-2.47.257-4.935.569t-4.922.677-4.905.786-4.887.894-4.866 1.001-4.843 1.109-4.817 1.215q-2.402.634-4.789 1.32-2.387.688-4.759 1.427-2.371.74-4.726 1.531-2.355.792-4.691 1.635-2.337.843-4.654 1.738-2.318.895-4.615 1.84t-4.573 1.942c-1.74.763-8.201 3.288-9.21 4.542a1.8 1.8 0 0 0-.29.518c.62.17 5.988-2.39 6.946-2.779 1.911-.682 3.73-1.591 5.618-2.332 3.39-1.332 6.875-2.52 10.327-3.689q5.447-1.81 10.961-3.405 5.514-1.596 11.086-2.975t11.194-2.54q5.621-1.16 11.284-2.1 9.714-1.594 19.489-2.76c1.987-.224 4.001-.521 5.993-.667 1.036-.076 2.13.036 3.147-.177q-4.827-.282-9.66-.13m25.938 2.005h.216zm.328-.02c.596.134 1.087.21 1.694.166-.6-.258-1.057-.268-1.694-.165m67.51.73c-7.153 1.676-14.252 3.648-21.348 5.55-2.99.802-5.946 1.75-8.978 2.383 1.06.408 2.082.891 3.11 1.37.637.244 1.323.587 2.007.637l.084-.071-.208-.215c.256-.463 1.278-.658 1.774-.8q7.594-2.13 15.239-4.067c3.31-.859 6.612-1.791 9.941-2.571-.3-.464-1.121-2.048-1.6-2.213q-.01-.003-.022-.003m2.244 3.623c-1.943.506-3.92.871-5.881 1.302l-10.91 2.459q-3.011.7-6.007 1.461c-1.537.384-3.14.883-4.724.983q1.247.653 2.51 1.274l1.186.564 16.446-3.662 6.011-1.313c.718-.16 1.513-.22 2.207-.443.256-.082.393-.197.543-.414.093-.601-.601-1.427-.958-1.897a1.2 1.2 0 0 0-.353-.307zm-174.042.34c-.25.398-.485.78-.675 1.211 2.33.736 4.786 1.124 7.182 1.597q4.052.799 8.08 1.71l.355-.035-.025-.15c-1.784-.833-4.002-1.269-5.902-1.83-2.865-.848-6.078-2.032-9.015-2.503m-.987 1.883L38.91 77.3c2.87.742 5.79 1.215 8.706 1.729 1.876.33 3.805.768 5.704.893l.385-.147c-.285-.347-12.468-3.605-13.931-3.781m-1.171 1.805-.758 1.445c2.848.708 8.81 2.13 11.625 1.954l.512-.099.043-.118c-.84-.362-1.784-.44-2.663-.69-2.91-.829-5.881-1.57-8.759-2.492m-1.074 1.827L36.825 81c1.91.601 3.853.903 5.83 1.185.966.138 2.06.18 2.988.472l.692-.24.015-.124-5.83-1.752c-.977-.29-2.058-.52-2.99-.915m-.975 2.05-.68 1.449c2.22.364 4.473 1.062 6.729.98l.338-.22.027-.146-.094-.125-.06.155-.31-.006-.266-.37.088.052zm147.277.097c.182.331.301.362.662.463.816.23 1.711.384 2.55.517-.414-.497-2.39-.888-3.088-.97zM35.696 83.485c-.21.373-.614.889-.619 1.308.914.622 3.228.562 4.341.554l.693-.29c-.604-.466-3.434-1.108-4.415-1.572m149.935.092.167.135.144-.09-.13-.123zm-4.528 1.407.14.048-.101-.062zm-146.353.365c-.374.534-.598 1.033-.82 1.638.734-.02 1.576.028 2.293-.105.343-.17.656-.24.85-.578-.41-.523-1.683-.749-2.323-.955m-1.062 2.065-.125.485c.206.136.271.141.51.17l.146-.335c-.167-.27-.24-.227-.531-.32m129.002 3.68-.093-.015.065-.018.162-.005zm-.707.093-.041.026.076-.014.059-.03zm-94.865 9.21c-1.114.278-2.2.636-3.308.927-2.081.547-10.675 2.414-11.824 3.763.16.243.27.201.543.271q1.199.358 2.42.633l.135-.094c1.096-.772 1.988-1.745 3.22-2.327 2.153-1.017 7.647-2.047 8.923-2.953l.001-.16zm-9.477.207c-1.797.94-3.593 1.8-5.541 2.388-.902.273-3.333.557-3.938.904.313.162.599.281.933.39l1.469.415c2.111-1.377 5.542-2.21 7.214-3.897l.012-.173zm11.58 1.297c-4.163.909-8.038 1.42-11.954 3.246-.472.22-1.269.471-1.594.88.206.254.553.296.855.38l1.97.42c1.102-.714 2.192-1.508 3.411-2.01 1.715-.705 6.445-2.023 7.562-2.783l-.005-.142zm-40.722.356c-.185.608-.382 1.212-.522 1.832 4.241.833 8.424 1.936 12.63 2.924 7.888 1.855 15.705 3.742 23.519 5.891 5.53 1.521 11.063 3.2 16.534 4.922 2.555.805 5.202 1.917 7.801 2.496.743.166 1.51.175 2.269.165l.204-.187c-.037-.262-.059-.28-.273-.428-1.267-.875-3.473-1.205-4.944-1.697q-19.467-6.293-39.302-11.304c-5.965-1.55-11.911-3.227-17.915-4.614m-.734 2.56c-.186.639-.378 1.278-.553 1.92q12.785 2.852 25.427 6.283 12.641 3.43 25.114 7.432c.847.266 1.75.624 2.627.746.491.068 1.216-.098 1.628.14l.481-.222c-.109-.317-.29-.388-.585-.523-2.1-.966-4.49-1.599-6.694-2.298q-6.086-1.972-12.238-3.727-17.5-5.25-35.207-9.752m-.755 2.64-.381 1.875q19.097 4.766 37.99 10.284c1.683.48 9.404 3.228 10.306 3.127l1.185-.127.871-.433c-1.327-.769-4.848-1.643-6.463-2.148q-11.019-3.416-22.121-6.546-7.081-2.11-14.208-4.057c-2.381-.668-4.742-1.538-7.18-1.974m56.184 1.703c-2.386.435-4.775.943-7.019 1.886.6.243 1.199.506 1.816.702 1.317-.084 5.317-1.312 6.256-2.283.034-.035.061-.077.092-.115l-.038-.162a2.5 2.5 0 0 0-1.107-.029m-56.732 1-.318 1.805q15.143 4.152 30.238 8.477 3.321.99 6.59 2.145c1.36.48 2.79 1.114 4.199 1.415.825.177 1.513-.02 2.313-.222l.333-.17-.034-.159c-1.7-.802-3.684-1.28-5.469-1.892-6.67-2.287-13.495-4.234-20.27-6.193-5.77-1.668-11.78-3.822-17.582-5.206m-.497 2.834c-.119.53-.29 1.058-.197 1.602.759.782 6.922 2.228 8.402 2.64q7.094 1.946 14.127 4.103c2.052.64 10.964 3.716 12.223 3.776.35.016.833-.18 1.171-.285l.223-.231c-.217-.382-.755-.55-1.148-.707-4.954-1.981-10.422-3.453-15.53-5.048q-6.436-2.04-12.904-3.974c-1.655-.504-3.294-1.1-4.961-1.553q-.697-.19-1.406-.323m61.051.051q-1.466.212-2.939.36l-.091.261-.034-.25-.086.207-.202-.05c.605.263 1.215.353 1.8.652.735.062 2.304-.626 2.942-1.028l.042-.146c-.475-.148-.947-.058-1.432-.006m-61.452 2.666-.222 1.956q9.929 2.884 19.766 6.07 2.366.776 4.704 1.635c1.036.382 2.093.873 3.173 1.106.846.181 1.803-.057 2.654-.178l.415-.173.04-.169c-2.68-1.326-5.964-2.163-8.803-3.144-4.653-1.61-9.325-3.132-14.008-4.651-2.554-.828-5.124-1.786-7.72-2.452m-.277 2.775-.061 2.155q8.398 2.523 16.691 5.373c1.965.686 3.872 1.62 5.854 2.24.678-.139 1.35-.27 2.009-.49l.293-.21c-.612-1.09-21.909-7.836-24.786-9.068m-.12 3.054c-.08.862-.184 1.731-.195 2.598 2.832.694 5.621 1.542 8.414 2.378 3.197.957 6.435 1.913 9.51 3.224.56-.147 1.123-.285 1.67-.483l.293-.186c-.222-.337-.466-.447-.833-.61-1.853-.825-3.845-1.462-5.754-2.152-4.376-1.582-8.772-3.064-13.104-4.769m37.226 2.946.16.047zm-37.48.493c-.054.87-.053 1.727-.031 2.599 2.402.823 4.94 1.322 7.38 2.051 1.219.365 4.876 1.727 5.838 1.835.503.056 1.155-.28 1.61-.46l.352-.254c-.057-.226.007-.16-.159-.257-2.147-1.264-5.332-2.115-7.734-2.967-2.396-.85-4.819-1.839-7.256-2.547m.07 3.6c0 .736-.012 1.474.006 2.21 1.755.41 5.81 1.695 7.442 2.476l2.157-.755.377-.133c-.052-.193.003-.14-.132-.219-1.466-.855-8.294-3.434-9.85-3.579m.075 3.704c-.008.735-.176 1.963.446 2.501.375.325.825.346 1.294.288.764-.094 1.557-.41 2.289-.645l.878-.341-.12-.167.002.281-.084-.328-.093.031-.113-.126c-1.462-.553-2.99-1.084-4.499-1.494m.48 3.326.14.049-.11-.062zm106.89 33.578c-4.451.019-8.965-.079-13.409.133-20.78.99-41.252 4.797-61.333 10.115q-5.633 1.44-11.183 3.177c-1.504.462-3.094.827-4.522 1.492 1.974 3.66 4.968 7.246 7.66 10.412q.596.708 1.204 1.406.609.697 1.23 1.383t1.255 1.362 1.28 1.338 1.303 1.315 1.326 1.29q.67.64 1.35 1.268.68.627 1.373 1.242.691.615 1.394 1.217t1.417 1.192 1.438 1.166q.724.577 1.459 1.14.734.564 1.479 1.113.745.55 1.499 1.087t1.518 1.059 1.538 1.031q.773.51 1.555 1.004.783.495 1.574.975t1.591.947 1.608.918 1.624.888 1.64.859 1.655.83q.832.406 1.67.798.839.392 1.684.769.846.377 1.698.738.852.362 1.71.708.86.346 1.724.676.865.33 1.736.645.87.315 1.746.614.876.298 1.758.582.881.282 1.767.55c7.712 2.297 15.913 3.824 23.962 4.166 2.145.162 4.31.089 6.46.093q1.125-.004 2.25-.034 1.124-.029 2.248-.083t2.246-.133 2.242-.184 2.238-.233 2.232-.283 2.226-.333 2.217-.382q1.106-.204 2.208-.432 1.101-.228 2.198-.481 1.096-.252 2.186-.53 1.09-.276 2.175-.578t2.16-.626q1.078-.326 2.147-.675 1.07-.349 2.131-.722t2.114-.77 2.097-.816 2.078-.863 2.058-.909 2.037-.955q1.013-.488 2.016-1 1.002-.51 1.993-1.044.99-.533 1.969-1.088.978-.556 1.944-1.133t1.918-1.175 1.892-1.218 1.864-1.26q.926-.64 1.836-1.3.911-.66 1.806-1.341.896-.681 1.776-1.382t1.745-1.42 1.713-1.46q2.073-1.805 4.048-3.72 1.974-1.913 3.843-3.929 1.87-2.016 3.63-4.129t3.404-4.316c1.05-1.435 2.089-2.792 2.864-4.403q-3.82-1.442-7.684-2.761-3.863-1.32-7.767-2.515-3.903-1.196-7.843-2.267t-7.912-2.016q-3.972-.944-7.972-1.763-4-.818-8.024-1.508t-8.068-1.252-8.103-.995c-5.562-.616-11.211-1.266-16.814-1.28m39.37.186-.405.19c.948.418 2.048.425 3.029.787l.23.132.037-.15a8 8 0 0 0-.705-.932c-.709-.03-1.485-.127-2.186-.027m7.873 1.306-.196.077c.57.529 2.387.809 3.18.966l.208-.153c-.054-.295-.323-.47-.576-.629-.186-.117-.397-.174-.604-.242-.046-.015-.091-.034-.138-.048-.575-.18-1.284-.037-1.874.03m-140.467.599c-.404.555-.75.656-1.414.769-.775.131-1.648.08-2.436.085.693 1.518 1.358 3.056 2.152 4.524.184.3.23.524.576.64l.098-.065c.438-.285 1.274-.433 1.544-.827l-.456-.947c-.64-1.346.314-2.306.056-3.557-.042-.207-.078-.415-.12-.622m148.896.503-.25.157c.745.372 1.577.47 2.335.81l.19-.075c-.005-.296-.103-.409-.277-.64-.626-.369-1.298-.281-1.998-.252m6.574 3c1.275.584 2.736.901 4.093 1.243-.225-.531-.373-.755-.939-.968-.92-.346-2.178-.37-3.154-.275m9.436 3.212c.218.596.489.77 1.053 1.031.392.181.8.333 1.202.488-.11-.47-.204-.75-.633-1.035-.422-.279-1.124-.439-1.622-.484m7.15 2.156c-.433.11-.969.176-1.278.517.01.415.237.951.54 1.248.157.154.216.147.418.203.33-.091.609-.22.79-.526.179-.303.255-.826.603-.976.04-.017.084-.025.125-.037.068.232.138.462.196.696.106.436.299.819.682 1.067l.205-.301-.252.254-.073-.083.341-.134c-.093-.577-.325-1.27-.85-1.598-.327-.204-1.074-.354-1.446-.33m.889 2.607c.488.223 1.316.79 1.811.674l.025-.44c-.209-.216-.343-.26-.647-.277-.387-.022-.801.024-1.189.043"/><path d="M111.04 31.418c2.617-.243 5.234-.654 7.841-.995l.443-.09c.073.033.167.038.219.099.173.207.303 1.454.417 1.823q.208.663.52 1.284.313.62.724 1.182c1.285 1.75 3.215 2.825 5.355 3.129 2.353.334 4.917-.135 6.835-1.58 2.021-1.522 2.725-3.433 3.085-5.861 2.886.191 5.768.489 8.653.702-.02 1.848-.056 3.632.572 5.396.733 2.056 2.218 3.87 4.223 4.791 1.977.91 4.528 1.062 6.577.305 2.63-.971 4.378-2.853 5.523-5.365 2.227 1.11 4.784 2.03 7.16 2.771-.42 1.52-.713 3.058-.575 4.642.178 2.033 1.076 4.24 2.687 5.544 1.869 1.514 4.606 2.217 6.975 1.903 2.141-.284 4.052-1.358 5.374-3.074 1.316 1.114 2.8 2.254 3.888 3.592-1.1.763-2.06 1.727-3.176 2.48-2.904 1.957-6.799 2.792-10.242 2.116-3.281-.644-6.024-2.418-7.887-5.21-1.27-1.9-2.753-6.163-2.273-8.416.056-.263.107-.364-.004-.627-.634.6-1.151 1.313-1.792 1.914-2.022 1.9-4.626 3.011-7.367 3.334-3.39.4-6.55-.368-9.236-2.508q-.278-.224-.543-.461-.267-.237-.521-.487t-.496-.512-.471-.534q-.23-.273-.445-.557-.216-.284-.418-.578t-.39-.596-.36-.615-.33-.632-.3-.647-.267-.66q-.127-.334-.237-.672-.11-.34-.203-.683t-.17-.692q-.077-.348-.137-.7-.06-.351-.104-.705c-.316.858-.709 1.66-1.156 2.456-1.263 2.124-3.28 3.82-5.536 4.808-3.107 1.361-6.985 1.449-10.14.191-3.476-1.385-6.072-4.295-7.529-7.683-.285 3.311-1.403 6.61-3.787 9.011-2.382 2.401-5.816 3.656-9.175 3.666-4.839.014-7.446-2.107-10.711-5.343q.009.138.014.277c.126 3.781-.873 7.977-3.552 10.78-2.121 2.218-4.938 3.329-7.982 3.395-4.635.1-9.062-1.876-12.38-5.054 1.29-1.042 2.749-1.902 3.942-3.056 2.668 1.94 5.102 3.504 8.567 2.93 2.099-.348 4.016-1.636 5.225-3.375 1.78-2.56 1.622-5.416 1.089-8.341 2.276-1.136 4.716-2.076 6.91-3.347.695 1.23 1.317 2.489 2.34 3.485 1.62 1.578 3.825 2.339 6.063 2.27 2.43-.075 4.84-.856 6.528-2.67 2.1-2.257 2.258-5.024 2.143-7.95m-8.067 55.805c.362.132.84.392 1.21.311.11-.283.15-.513.185-.812.19-.172.293-.23.535-.325.462-.18.741-.623 1.104-.94.996-.866 2.62-1.396 3.897-.88.4.163 1.038.6 1.174 1.026.117.364.002.668.294.965.322.327.654.617.844 1.04-.364-.26-.709-.533-1.05-.823l-.15.06-.037.087c.32.314.655.738 1.095.864l.142-.187c.26-.753.309-1.571-.06-2.295-.493-.968-1.534-1.574-2.54-1.883-1.126-.346-2.133-.233-3.156.35-.133.077-.262.162-.393.243l-.156.095c-.64.414-1.166 1.352-1.596 1.978-.41-.846-.576-1.073-1.498-1.406-.543-.195-1.14-.278-1.663-.51.895-.093 2.722.563 3.296.011.11-.105.21-.295.288-.42-.29-.537-1.339-.873-1.889-1.124 1.294-.15 2.08.305 3.107.234.128-.192.179-.36.238-.583.857-.297 2.459.038 3.343.24-2.975-2.18-3.302-2.805-7.253-2.2-1.764.27-3.579.713-5.194 1.489 1.725.07 3.47-.08 5.183.12q.266.03.53.063c-2.13.24-5.98.516-7.8 1.486-.576.306-1.052.8-1.52 1.247 2.056-.853 3.827-.807 6.008-.546-.811.325-1.88.6-2.612 1.05l.406.295-.069.156c-.754.252-1.555.056-2.274.297-.741.247-1.261 1.019-2.013 1.208-.073-.338.228-.448.138-.755-.673.338-1.192.863-1.413 1.587-.376 1.23.115 3.022-.623 4.03-.599.276-1.212.079-1.86.065-1.391 1.24-5.5 4.044-5.568 5.876-.014.391.129.757.422 1.023.695.631 2.526.56 3.485.959l.15.06.089.04c2.17-.879 4.173-1.986 6.539-1.185.844.286 1.648.685 2.493.966 1.162.387 2.391.557 3.52 1.05.214.093.382.186.571.321l-.106.117c-.806.004-1.505-.248-2.275-.436-1.389-.34-2.784-.48-4.207-.305-.465.056-1.098.147-1.48.445-.106.083-.143.148-.215.25.081.238.197.378.359.569-.608-.364-1.107-.543-1.829-.443-.293.041-.343.156-.515.371-.007.283.017.427.235.647.076.076.21.138.307.188.236-.107.169-.027.254-.184l.103-.095.407.192.069-.11c-.144-.301-.418-.388-.703-.526l-.018-.143c.322-.023.448.102.716.258.333.194.47.113.837.053.143-.177.13-.094.137-.209.45-.056.94.054 1.37-.038l-.029-.16c-.346-.091-.888-.165-1.154-.39.648-.069 1.655.03 2.24.326l-.189.067c-.249.094-.157.042-.34.191.21.209.426.334.68.484-.67.24-1.625.138-2.347.212 3.523 2.386 5.109 1.334 6.954 5.802-.561-.744-1.172-1.966-1.865-2.526-.01.156.003.28.011.433.035.645-.684 1.84-.92 2.474-.497 1.33-1.847 6.096-1.937 7.386-.057.823.041 1.52.266 2.308l.234.835c.322-2.49.728-5.218 1.517-7.601l.054 2.432c.777-1.882 1.216-3.96.972-5.987 1.094 2.162.93 4.507.188 6.77-1.846 5.627-1.497 5.053-.524 10.673-3.313-3.498-4.194-6.77-4.068-11.498.043-1.63.312-3.612-.94-4.896-1.432-1.469-3.787-.75-5.393-1.89-1.149-.816-.831-2.473-1.263-3.64-.962-2.592-3.775-2.784-3.841-6.076q-.005-.236-.005-.472c.895-1.675 1.88-2.82 3.372-3.995.683-.538 1.4-1.035 1.963-1.706.915-1.091 1.627-2.429 2.374-3.641 2.094-3.4 3.212-5.363 6.947-7.103 1.343-.625 2.732-1.188 4.153-1.614 4.386-1.312 8.727-.87 12.766 1.301 2.632 1.414 3.889 3.328 5.981 5.236 1.906 1.737 3.973 3.318 5.909 5.027 2.273 2.007 8.324 8.173 10.687 9.04 1.622.596 4.457.152 6.265.265 4.21.262 8.408.887 12.626 1.033 1.127.04 2.238-.291 3.37-.318 6.989-.164 14.332-.118 20.496 3.674 2.856 1.757 5.106 4.155 6.759 7.066 3.208 5.65 4.403 15.76 11.07 18.345 1.521-.856 2.988-1.421 4.759-.932.901.249 2.971 1.9 3.401 2.72.02.038.032.08.048.12l-.155.118-.364-.076-.037-.154.037.155c.296.157.576.295.837.507l-.404.069.042.176-.156-.055.103.103c.228.232.422.395.497.725l-.164.183c-.331-.064-.61-.202-.912-.344.099.376.417.557.461.941-.345.148-.718.038-1.077-.017l-.179.176.03.205c.306.17.594.285.922.401l.074.15-.175.144-.185-.107a4 4 0 0 0-.454-.227c-.213.344-.224.508-.624.616l-.256-.082-.081-.184-.212-.063c.05.151.16.168.293.247l.257.082c.066.297.132.362.014.653-.364.026-.625-.135-.953-.275.13.356.403.576.668.834-.698.002-1.383.002-2.061-.184-2.07-.567-3.225-1.79-4.249-3.58-.403-.137-.817-.22-1.228-.325-1.386-.35-2.602-.978-3.768-1.794-5.088-3.562-5.993-9.795-9-14.87-1-.055-1.996-.07-2.996-.076.46 6.331 1.737 13.386 5.825 18.462.871 1.082 1.867 2.108 2.984 2.938 1.181.878 4.815 2.302 5.176 3.546.373 1.29-1.645 9.222-2.34 10.555-.828 1.583-2.132 2.811-3.863 3.34-2.452.747-7.291.617-9.558-.575a1.32 1.32 0 0 1-.244-.89c.089-1.628 1.918-3.336 3.013-4.388q1.103-.207 2.204-.43c.155-.528.308-1.065.32-1.619.016-.695-.065-1.542-.448-2.141-1.788-2.795-9.227-5.762-12.378-7.841-2.481-1.637-4.421-3.537-6.479-5.659q-.194.402-.347.821c-1.764 4.811 2.26 6.147 3.81 9.626l.058.135c-.167.35-.336.72-.558 1.039-1.133 1.623-2.804 3.017-4.087 4.544-1.3 1.547-2.279 3.372-3.683 4.83-.54.562-1.45 1.478-2.228 1.597-2.052.314-3.75-.235-5.754-.266-1.027-.016-2.057.229-3.085.127-.39-.039-.793-.127-1.128-.338-.762-.48-.888-1.19-1.063-2.002.723-1.365 2.22-3.44 3.414-4.38 1.313-.272 2.638-.237 3.967-.386 1.414-1.184 2.157-2.386 2.536-4.208l-.03-.099c-.984-3.249-3.456-5.583-5.019-8.554-.58-1.103-1.076-2.305-1.357-3.522-.133-.573-.153-1.143-.343-1.708-.14-.08-.198-.153-.371-.127-.524.078-3.898 1.858-4.779 2.222-1.723.712-3.524 1.282-5.303 1.835-3.303 1.026-6.908 1.357-10.065 2.785-1.214.549-2.359 1.239-3.292 2.2-2.16 2.227-3.444 5.43-4.871 8.159a100 100 0 0 1-2.87 5.101c-1.226 2.04-2.745 3.894-4.35 5.643 1.67.12 3.472-.162 5.153-.243 3.184-.152 6.952-.392 10.103-.32 2.481.056 8.773.632 10.658 2.133l-.055.174c-.046.015-.092.033-.14.044-1.309.311-5.466.084-7.067.086-5.62.007-11.37.322-16.975-.108-.525-.04-1.027-.134-1.497-.38-.097-.316-.104-.603-.112-.93-.299.045-1.292 1.344-1.653 1.624a4.4 4.4 0 0 1-1.933.87c-.68.13-7.591.328-8.29.218-2.13-.337-3.068-1.85-4.25-3.427-.717-.055-1.43-.147-2.144-.23-.37-.386-.552-.941-.96-1.26a1.1 1.1 0 0 1-.368.25c-.469-.123-.734-.418-1.025-.789-.544-.696-.765-1.375-.647-2.258.199-1.486 1.335-2.981 2.539-3.842 1.72-1.229 3.304-.371 5.17-.09 2.539-1.956 2.822-7.116 3.461-10.123.38-1.79.86-3.558 1.338-5.325-.45-1.704-1.503-2.995-2.196-4.58-1.242-2.845.686-7.31 1.776-10.031-.128 2.384-1.307 5.09-1.077 7.318l.108-.059c-.119-.275-.088-.378-.055-.681l.282-.03c.44-.358 2.08-7.499 2.306-8.54.303 1.834.112 3.581-.185 5.4 1.277-2.716 1.51-5.718 1.628-8.687.496 2.168 1.04 4.396.681 6.636-.215 1.345-.87 2.692-1.547 3.862-.296.512-.774 1.124-.91 1.701-.084.35-.006.814.045 1.163.06.41.138.997.48 1.257l.128-.212c.084.251.079.159.072.405-.01.35-.044.703-.037 1.054.032 1.611 1.94 4.27 3.078 5.32q.328.307.665.604l.042.081-.043-.08c-.193-.577-.759-1.093-1.086-1.616a28 28 0 0 1-1.664-3.08c-.188-.408-.348-.73-.188-1.167.212.017 1.4 1.732 1.774 2 .026-.079.04-.163.08-.236.024-.042.07-.067.106-.101-.288-.706-.778-1.324-1.145-1.992-.461-.843-.757-1.777-1.07-2.682.779 1.118 1.534 2.265 2.415 3.306-.325-1.5-.76-2.921-.905-4.46a32 32 0 0 0 1.523 2.962c-.011-1.329.063-2.61.248-3.926 1.042 3.23.348 5.793 1.1 8.764.502-1.87.619-3.562.582-5.491 1.563 5.107-.646 9.932-1.21 14.985-.233 2.086.04 4.182-.43 6.252-.311 1.372-.897 2.766-1.765 3.881-2.851 3.667-4.585.07-8.205 2.338l-.535 1.169c.142.383.273.7.514 1.032.81.327.99-1.212 1.768-1.461.352.127.404.199.65.487.073.849-.917 1.241-1.103 1.942-.009.035-.009.072-.014.108l-.11.032.023-.1-.035.095c.068.01.223.028.276.041.704.174 1.336-.093 2.057-.028.244.022.454.046.697.005.671-.114.941-1.14 1.346-1.633.204-.248.486-.4.81-.41.34-.012.584.062.823.286-.017.524-.534.929-.732 1.424l.111.167c.254.041.456.05.713.01 1.642-.258 4.119-1.037 5.113-2.445.088-.343.027-.552-.078-.886-.093-.297-.145-.373-.081-.683.175.324.345.6.583.882l.163-.036c.303-.774-.222-1.936-.45-2.697.474.708.939 1.412 1.482 2.07-.134-.831-.36-1.75-.73-2.51.132-.661.027-2.136.33-2.61l.371.011c.192-.58.002-1.434-.007-2.058l.139-.113c.17.1.312.2.465.326l.153.13.095-.266-.177.135-.044-.123.236-.19c.041-.984-.024-1.958-.083-2.94.28.697.572 1.36.93 2.02-.098-1.406-.387-2.782-.006-4.178l.164-.088c.335.401.407.99.527 1.489.023-.615-.27-3.344-.15-3.607.439.196.514.721.922.864.25-1.158-.512-1.834-.497-2.958l.118-.107c.585.526 1.053 1.28 1.523 1.912q-.054-.303-.112-.605c-.264-1.399-.932-2.752-1.398-4.1.972.953 1.457 1.728 2 2.977-.252-1.53-.84-2.942-1.009-4.504.684.812 1.21 1.797 1.767 2.7-.172-1.048-1.053-2.803-.928-3.718l.161.016c.501.55.834 1.221 1.199 1.866-.108-.853-.639-2.2-.468-2.994l.194-.06c.188.118.37.234.547.369l.136.105c-.047-.509-.324-1.218-.17-1.703 1.063.57 1.844 3.486 2.834 4.258l.175-.074c.083-.758-1.86-5.102-2.156-6.12l-.05-.176c1.198 1.356 1.783 3.047 2.538 4.669l.152.01c.09-.238.2-.516.175-.775-.111-1.159-1.772-5.149-2.238-6.443.92 1.171 2.115 2.966 2.41 4.429l.04.22.144.072c.163-2.087-1.055-4.577-1.94-6.432 1.057 1.27 1.79 2.542 2.422 4.067.217-2.427.236-3.198-.228-5.643a12.6 12.6 0 0 1 1.06 1.943c.34-1.57.486-3.495.139-5.076-.109-.492-.333-.927-.41-1.43.154-.046.119-.068.264.017 1.237.723 1.629 5.797 2.01 7.212.248.928.912 3.546 1.692 3.999v-.26l.143.045c-.243-.133-.064-2.487-.346-2.981q-.269.195-.536.392c-.314-.306-.407-1.506-.418-1.975-.01-.416.074-.935.369-1.24l.194.044c.86.975.656 2.353 1.09 3.521l.304-.21-.02.046c.182-.435.412-.91.505-1.373.138-.683-.21-1.806.185-2.35.543.777.604 1.808 1.218 2.626l.19.019c.282-.742.14-1.933.142-2.742 1.101 2.398.641 4.158.512 6.708-.187-.387-.389-.76-.6-1.133l-.125-.017-.021.264c.165.328.303.728.614.94l.21-.154c.865-1.859.892-4.76 1.157-6.798.18.634.393 1.289.451 1.947.185 2.07-.163 3.43.756 5.439l.149.049c.097-.122.112-.127.182-.293.198-.464.186-1.384-.01-1.837-.06.323-.072.546-.275.815-.239-.143-.305-.242-.393-.516-.2-.62.362-1.502.435-2.148.127-1.125-.096-1.873.419-2.994l.18-.066c.78.998-.333 3.52.413 4.773.698-.877.147-4.28.854-5.218.359.24.62.82.849 1.189q-.051.328-.093.657c-.048.408-.042.575.214.898l-.163.058c-.338.127-.316.121-.462.45.034.454.162.737.372 1.138l-.03-.078c.101-.024.232.004.304-.072.472-.496.074-3.57.68-4.265l.234.127c.449.697.458 1.528.407 2.334-.016.261.04.283.167.502l.17-.01c.563-.969.339-2.736.587-3.874l.042-.19c.302.843.476 1.82.482 2.718.007 1.013-.51 2.785-.029 3.686.131.245.264.447.534.503.407-.85-.362-4.806.688-6.091.743 1.056.039 4.023-.023 5.31.207-.45.471-.936.607-1.41.307-1.073.155-2.558.754-3.507l.16.007c.467 1.083-.041 2.355.078 3.48.023.215.016.303.194.437.382-.42.548-1.025.752-1.55-.124-.212-.068-.166-.23-.294q-.05-.038-.1-.073c.108-1 .267-2.506.698-3.407l.132.029c.063 1.077.42 2.11.252 3.201-.108.709-.88 1.558-.738 2.22.343.017.384-.062.671-.23.367-.463 1.031-5.616 1.203-6.57.281 1.589.272 3.03.092 4.633-.077.68-.509 1.612-.267 2.228.769-.792 1.376-5.9 1.621-7.264.312 1.01.66 2.387.473 3.442-.104.587-.847 1.184-.73 1.741l.23.06c.175-.17.433-.219.663-.297.423-1.972.632-3.986.94-5.978.615 1.793.58 3.174.238 5.003.328-.317.581-.717.847-1.088.007-.765-.104-3.513.383-4.002l.254.124c.408.673.252 1.529.214 2.281-.022.435-.117.898.184 1.231l.257-.116c.544-1.176.415-2.826.507-4.108.025-.355.052-.754.338-1 .77.63.47 3.403.584 4.401l.019.154c.684-2.557.142-4.863.34-7.424.695 1.743.952 3.548 1.14 5.4.644-2.275-.683-5.991-1.313-8.18 1.765 1.677 2.137 3.683 2.397 6.002.18-1.745.317-3.688-.684-5.24-.419-.648-1.012-1.092-1.094-1.908l.139-.044c.806.548 1.496 1.544 2.052 2.334 1.066 1.516 1.424 3.454 1.085 5.263-.698 3.727-2.61 4.54-5.414 6.493-.644.449-1.879 1.315-2.016 2.09.23.15.368.254.516.487-.076.414-.257.657-.496.99l-.143.02c-.331-.055-.57-.17-.872-.004l.015.22.205.144c.247-.1.437-.205.652-.36l.143-.02c1.78-.338 3.435-.919 5.276-.944 3.108-.041 5.845 1.088 8.131 3.153.524.473.886 1.108 1.404 1.605l.151-.012.067-.402.093-.088-.069-.091c.692.621.957 1.574 1.638 2.21.217-.075.149-.036.322-.149l.11-.076c.583.447 1.168 1.776 1.807 1.962l.058-.406.115-.08c1.924 1.934 4.199 3.026 6.55 4.325 1.174.649 2.315 1.354 3.496 1.998 1.49.815 3.507 1.771 4.62 3.079.631.74.663 1.696 1.135 2.509q.21-.1.425-.188c.155.403-.239 1.244-.04 1.49.237.295.408.065.383.581-.03.638-.406 1.208-.232 1.865l.125-.048c.162-.357.307-.72.452-1.084l.141-.026c.29.849-.472 2.148-.779 2.978-1.147.403-2.126.381-3.327.383-.44.231-.845.494-1.198.848-.423.424-.668.83-.68 1.433.126.285.22.486.53.61.706.278 1.573-.062 2.266-.256.18-.56.301-1.147.77-1.541l.358.097c-.033.314-.101.805.038 1.103.144.309.305.416.627.51.475.14 1.206-.072 1.632-.28 1.227-.603.642-1.442 1.003-2.464l.172-.066c.309.319.442.642.611 1.048-.107.237-.122.414-.133.672l.149.099c.031-.03.066-.057.094-.091.798-.979.821-4.21.79-5.482l.103-.075c.17.19.339.376.526.551.084-.085.097-.087.158-.212.385-.785.134-2.803-.142-3.615l-.103.04q-.054.54-.137 1.078c-.056.357-.125 1.046-.432 1.27-.708-.618-.056-2.368-.623-3.137-.307.183-.157.965-.46 1.266-.45-.718-.581-1.84-.909-2.662-.034.318-.026.637-.031.956-.006.39.042.906-.244 1.183-.502-.566-.371-1.588-.883-2.084-.214.551-.197 1.226-.24 1.813-.246-.676-.483-1.516-.972-2.057-.153-.17-.396-.447-.629-.462l-.14.182-.206.004c-.084-.244-.201-.377-.417-.523-.716-.483-10.419-5.751-10.628-5.786-.14-.023-.278.046-.417.069-1.197-1.425-2.745-2.297-4.091-3.558-.218-.205-.333-.249-.636-.297-.914-.147-4.433-5.133-5.194-6.101.52 1.22 1.086 2.364 1.392 3.663-1.055-1.581-3.95-6.613-4.414-8.24-.08-.282-.156-.509-.009-.774.043.007.087.008.128.02.35.101.534.433.837.614.22.131.45.09.68.255.838.599 2.218 2.077 2.692 2.998.339.656.554 1.347.952 1.974.342.045.23-.236.532-.412 1.008 1.052 1.38 2.874 2.517 4.107l.1-.024-.026-.782.134-.013c.783.835 1.289 1.909 2.041 2.786l.113.129c-.174-.602-.313-1.212-.454-1.821.942 1.026 1.35 2.436 2.15 3.583-.085-.375-.198-.77-.242-1.152-.035-.307-.05-.465.154-.71.209.157.17.091.28.286.382.673.768 1.488 1.545 1.782.138-.085.261-.151.409-.219.982.647 1.865 1.61 2.727 2.409l-.653-1.923c1.223 1.023 2.129 2.422 3.329 3.509l-.746-1.768c1.062.848 2.566 2.748 3.864 3.074l-.027-.544c.694-.213.92.95 1.501 1.198.055-.267.01-.305.234-.482.496.236.777.834 1.162 1.219.198.199.202.248.494.249q.098-.27.199-.54c.57.385 1.131 1.308 1.597 1.856-.318-.717-.546-1.445-.774-2.193.876 1.101 1.531 2.154 2.202 3.39-.114-.738-.314-1.46-.497-2.183l1.536 1.098c.013.245.018.498.054.741.04.268.065.394.297.548.075-.334.157-.635.293-.952l.234-.03c.945.89-.472 4.255-.37 5.596.68-1.675.86-3.62.996-5.408-1.433-1.165-8.132-5.587-8.724-6.804l.359-.02-.012-.103-.602-.456a9 9 0 0 1-1.575-1.487l.036-.064c.383.259.733.502 1.168.663l.03-.081c-.868-1.156-2.161-1.947-3.077-3.113q1.036.703 2.115 1.341c-1.046-1.297-2.4-2.211-3.522-3.43.903.201 1.762.701 2.59 1.108-1.198-1.073-2.13-1.985-2.99-3.355.887.423 1.66.934 2.461 1.5-.848-1.239-2.495-2.396-2.949-3.834.792.29 1.778 1.467 2.404 2.075-.642-1.548-1.94-3.103-2.843-4.54l2.156 1.734c-.88-1.391-2.178-2.445-2.858-3.959.784.644 1.618 1.215 2.451 1.793-.58-.608-1.17-1.214-1.73-1.841-.39-.436-.931-1.102-.897-1.716l.2-.085c.758.321 1.49 1.076 2.155 1.582-1.042-1.466-2.376-2.417-3.176-4.094 1.238.771 2.16 2.027 2.89 3.267-.535-2.102-2.432-3.492-3.395-5.435.529.244 1.169.485 1.62.856.388.317.687.913 1.149 1.09.07-.654-1.83-2.07-2.222-2.727-.181-.303-.323-.632-.236-.986.777.04 2.028 1.453 2.734 1.945-.835-1.285-2.07-2.307-2.82-3.651l.087-.12c.62-.005 1.34.78 1.785 1.172-.606-1.218-1.604-2.079-2.317-3.223 1.155.444 2.348.864 3.42 1.487 4.237 2.465 6.971 6.935 8.822 11.335.78 1.855 1.436 3.857 2.367 5.639 1.847 3.537 4.848 5.705 8.594 6.9-1.51-2.11-4.247-2.87-5.769-5.108-3.045-4.476-4.094-9.984-7.022-14.549-6.996-10.91-16.5-8.767-27.574-9.054-4.276-.11-8.623-.818-12.893-1.182-3.41-.291-7.076-.164-10.422-.904l-.225-.051c.767 1.503 1 3.17 1.718 4.702-2.166-.777-3.99-1.47-5.86-2.85.353 1.517 1.263 5.176 2.053 6.345.883 1.307 2.166 2.447 3.251 3.592-5.463-2.586-7.462-3.867-11.062-8.82.435 1.256.911 2.522 1.24 3.81.323 1.266.52 2.56.851 3.826.27 1.035.796 2.147.883 3.207l-.175.128c-.978-.383-2.585-4.025-3.266-5.045-.578-.867-1.295-1.554-1.798-2.494-1.225-2.291-2.015-4.795-3.49-6.954l.102.092.168.155c1.662 1.518 2.505 3.646 3.941 5.369-.079-.407-.138-.868-.288-1.256-.324-.838-.91-1.662-1.335-2.46-.593-1.118-1.088-2.35-1.797-3.398-.543-.8-3.265-4.138-4.04-4.282-.197.234-.19.258-.14.568.095.587.36 1.214.52 1.793.333 1.218.77 3.19.649 4.446-.03.314-.09.43-.331.622-.915-.808-1.814-2.888-2.681-3.99-1.068-1.356-2.525-2.312-3.617-3.64l.48.182c2.085.779 3.344 2.328 4.69 4.012l.068.07-.068-.07c-1.417-7.121-7.803-5.875-9.988-9.254-.17-.263-.154-.442-.087-.744l.042-.166c-.161-.44-.67-.585-.998-.9q-.073-.07-.145-.142m19.442 3.99c.075.143.138.273.234.403.218.297.6.335.936.404l.04.091-.04-.091c-.348-.377-.705-.594-1.17-.806m1.96 1.788.061.06c.066.221.172.453.268.664.56 1.237.77 2.661 1.062 3.985-1.212-1.475-1.216-2.69-2.112-4.153-.506-.828-1.348-1.505-1.926-2.312-1.546-2.16-2.41-3.808-3.64-6.093.089 1.15.131 2.29.15 3.444-.77-2.077-1.105-3.537-2.92-4.933 1.458 1.638 2.547 3.962 3.172 6.056-1.242-1.133-1.758-2.503-2.59-3.91-1.076-1.818-2.719-2.991-4.435-4.162.767.142 1.497.334 2.244.56a13 13 0 0 0-.906-.693c-1.98-1.356-3.813-2.349-6.28-1.9.128.342.89.544 1.214.68 1.539.644 2.759 1.496 4.042 2.546 2.287 1.87 1.958 2.928 2.234 5.611.266.332.54.716.865.994.771.66 1.776 1.204 2.626 1.766 1.796 1.186 3.584 2.368 5.266 3.715-.975-1.618-2.279-3.347-2.902-5.119 1.109 1.077 2.756 3.056 3.524 4.39 1.68 2.915 1.97 4.935 4.82 7.207-.446-1.143-1.197-2.063-1.7-3.164-.774-1.699-.42-3.932-2.076-5.18zm1.15 0 .066.062c.096.337.259.677.39 1.004.328.815.403 1.635.543 2.495.481 2.969 3.172 5.26 5.478 6.929-1.03-1.397-2.705-2.797-3.383-4.389-.17-.4-.181-.671-.013-1.057l.133-.05.284.258c.678 1.467 1.68 2.667 2.746 3.865-.314-.77-.65-1.548-1.136-2.227-.82-1.146-1.814-1.998-2.355-3.338-.23-.572-.494-.932-.9-1.39.148.763.413 1.624.347 2.399-.672-.446-.62-2.963-2.134-4.499zM86.338 94.09l-.056.16zl.162-.057zm34.431 3.594c-1.437-2.269-2.278-3.656-4.368-5.454-.32-.275-.766-.731-1.18-.846-.138-.039-.229-.025-.364-.018l-.197.184c.211.885 2.63 2.316 3.41 3.116.585.6 1.026 1.285 1.431 2.014-1.92-1.773-4.052-3.834-6.342-5.115 1.094 1.781 2.734 2.556 4.271 3.88 1.284 1.105 2.544 2.354 3.701 3.591 2.182 2.334 3.614 5.367 5.897 7.584-.657-1.195-1.473-2.276-2.14-3.456-.731-1.292-1.213-2.883-1.617-4.305l1.328 1.726c1.394 2.167 2.298 4.783 4.027 6.676-.854-1.714-1.546-3.443-2.343-5.177-.517-1.126-1.147-2.231-1.604-3.381-.274-.69-.227-1.63-.619-2.243-.42-.66-1.163-1.207-1.694-1.791.254.656.488 1.328.79 1.965l-.101-.078c-.486-.385-1.52-1.635-2.098-1.629.514 1.552 1.25 2.948 1.654 4.558-1.046-1.502-1.391-3.346-2.53-4.766-1.695-2.115-4.198-3.522-5.907-5.614.18.394.36.838.614 1.19.552.766 1.645 1.445 2.39 2.02 1.61 1.243 3.356 3.259 3.591 5.369m8.182-.932c.255 1.026.74 1.398 1.606 1.954l.094.062.082.054c1.108 1.575 1.526 4.317 3.053 5.365a9 9 0 0 0-.258-1.124c-.41-1.328-1.547-3.557-2.795-4.241l-.083-.054-.094-.062c-.348-.706-.98-1.48-1.605-1.954m-35.016 7.411c-1.209-.353-2.068.124-3.217.467l-.145-.037c-.8-.217-1.472-.7-2.268-.877l-.056.127c.303.337.61.664.93.984-.385-.18-.832-.46-1.263-.416-.149.295-.106.49-.003.805.24.736 1.011 1.108 1.675 1.383 1.463.605 3.317.59 4.33 1.933.694 1.407.941 2.677 1.134 4.218.26-2.101 1.116-5.281.161-7.241q-.141-.295-.291-.585l.204-.02c.52.446.813 1.025 1.108 1.635l-.1-1.538c-.66-.508-1.878-1.64-2.697-1.613l-.047.156c.17.225.343.421.545.62m34.347.225.064.06c.037.435.25.827.348 1.25.454 1.95.112 2.12 1.683 3.59l.066-.189c-1.057-1.33-.78-3.37-2.097-4.652zm72.742 30.864.17.172.18.05-.18-.05zM109.93 87.2c.572.732 1.376 1.855 2.232 2.235-.27-.98-.927-1.59-1.794-2.083a1.1 1.1 0 0 0-.439-.151m9.89.26c.532.93 1.723 2.3 2.74 2.692-.71-.843-1.697-2.323-2.74-2.691m-10.643.55c.9 1.484 1.835 2.532 3.374 3.387-.562-1.38-1.073-2.447-2.522-3.058-.28-.118-.562-.24-.852-.33M90.379 89.7c-.174.264-.458.584-.4.919.007.044.022.086.032.13.298-.267.362-.305.47-.683zm32.322 2.253c.52.663 1.095 1.23 1.646 1.861-.022-.505-.108-.81-.48-1.17q-.123-.12-.258-.224-.136-.104-.283-.192-.147-.087-.304-.156-.157-.07-.32-.119m-36.043 1.984h.153zm3.123 7.998-.133.322c.298.193.602.368.911.541l.053-.294c-.265-.302-.412-.511-.831-.569m31.689.155c-.083.46-.061.788.112 1.227.428 1.078 1.17 2.08 1.681 3.129.5 1.024.792 2.215 1.371 3.18-.232-1.923-1.702-6.227-3.164-7.536m-24.547 3.437.103.11.029-.004zm82.537 6.385c.218.735.41 1.493.688 2.207.696.028 1.388.066 2.084.021-.753-.974-1.632-1.74-2.772-2.228m-47.77 11.375c-.086.748-.202 1.514.304 2.153.108.138.117.137.234.233.129-.756.209-1.577-.322-2.22-.083-.1-.117-.11-.216-.166m-.75.174c-.296 1.078-.332 2.675.218 3.681l.255.178-.17-.903c-.14-.704.149-2.494-.303-2.956m12.329.481c-.222.632-.807 1.879-.666 2.503l.279.03c.079-.312.06-.472.315-.683.257-.213.376-.474.515-.769.013-.373-.068-.747-.351-1.012-.028-.026-.061-.046-.092-.069m-3.812.204c-.136.679-.403 2.307.003 2.888.038.055.099.101.15.144.454-.48.493-1.099.465-1.752-.016-.368-.027-.868-.282-1.154zm-12.319.176.004.13c.011.54-.335 1.28-.188 1.733.958.681.41 2.211 1.22 2.94.444-1.185.136-2.523-.37-3.642-.181-.401-.332-.868-.666-1.161m10.857 1.107c.08.623.072 1.318.559 1.768-.028-.555 0-1.091-.281-1.587zm9.19.033c-.357.27-.73.496-.937.904.008.276 0 .393.222.596.066.059.177.108.257.147.326-.156.487-.174.596-.547.084-.29.025-.636-.012-.93zm1.442.264c-.314.182-.577.314-.779.629l.03.206.32.085c.311-.201.627-.298.74-.66zm-11.604.204c-.005.5-.066 1.107.28 1.513.035.041.077.076.115.114l.3-.007c-.104-.527-.167-1.035-.454-1.499zm-7.026.145c-.011.824-.07 1.669.083 2.482l.135.122.16-.192c.233-.588.468-1.057.219-1.675-.105-.258-.381-.563-.597-.737m10.466.623-.054.201.12.076.067-.237zm-6.61-.03c-.083.3-.108.543-.122.852-.027.551-.06.678.186 1.167.338-.64.43-1.035.256-1.742-.102-.093-.205-.201-.32-.277m-7.078.29c-.118.696-.298 1.517-.052 2.197l.157.143c.17-.568.303-1.577.049-2.134-.053-.117-.075-.127-.154-.206m5.292.345c-.065.483-.157.929-.016 1.408l.18.196c.178-.527.214-.871-.045-1.381zm10.68.483c-.684.413-.75.604-.938 1.362l-.084.344-.166.099c-.436-.31-.38-.892-.806-1.17-.166.148-.265.29-.384.474-.185.283-.39.477-.65.69l.177.48c.559.178 1.986-.363 2.592-.517.225-.424.469-.808.49-1.3-.066-.176-.099-.324-.23-.462m1.303-.083c-.216.701-.502 1.055-1.108 1.466.057.183.01.116.113.22.462-.208.838-.354 1.166-.75.104-.356.048-.462-.043-.812zm6.37.612c.077 4.403 7.78 8.467 7.19 14.544-.223 2.292-2.215 3.483-2.608 5.637-1.302-.297-3.152-1.023-4.396-.295-.527.308-.925 1.005-1.139 1.56.192.043.343-.031.53-.083l.209.119c-.584.401-1.206.767-1.458 1.466.061.33.08.334.33.561.437.128.86.06 1.306.02.211-.304.306-.57.663-.7.441.272.829.758 1.397.622 1.029-.246 1.242-1.288 2.526-1.153l.133.16c-.18.533-.811.596-.956 1.108.359.264.794.32 1.22.416.462-.217 1.21-.442 1.387-.954.04-.116.072-.234.11-.35.07-.208.17-.335.316-.494l.275.199c.21-.141.333-.224.45-.451-.038-.497-.005-.474.287-.841.286-.028.139-.031.442.018.723-.689.439-1.701.9-2.467.062.392.097.781.129 1.177l.13.085c.583-.73.298-2.616 1.028-3.107.326.362.048.916.381 1.281.573-.625.381-1.981.743-2.78.342.353.305 1.3.34 1.797.158-.51.354-1.028.415-1.56.035-.34-.011-.649.225-.905.24.178.351.397.504.646.084.137.038.095.127.156.177-.368.186-.678.062-1.066-.41-1.281-1.366-1.478-1.296-3.047.022-.476.045-.952.038-1.43.861 1.352 1.675 2.428 1.932 4.042.03.182.107.317.206.468l.235.032c.145-.414-.143-.903-.263-1.328.369.111.363.565.732.547.02-.735-1.712-2.793-2.16-3.641-.375-.708-.637-1.479-.912-2.229.002 1.134-.241 2.349-.091 3.458l.022.184.015.11c-.865-.875-.842-1.978-.83-3.128.01-1.074.283-2.186.48-3.24l-.063.129c-.384.815-.488 1.853-.987 2.577-.172-.106-.136-.036-.171-.196-.216-.976-.006-2.024.022-3.016-.24.667-.417 1.332-.835 1.911l-.162-.033c-.21-.871-.162-1.87-.204-2.77-.174.616-.283 1.288-.661 1.81l-.103-.036c-.219-.78-.26-1.604-.34-2.407-.195.421-.386 1.042-.778 1.306-.32-.303-.32-1.188-.376-1.635l-.003.006-.239.04c-.285.533-.356 1.137-.467 1.726l-1.097-3.248c.005.691.08 1.442-.12 2.108l-.12.077c-.467-.394-.52-.958-.621-1.526-.041-.228-.008-.139-.089-.296-.106.357-.194.913-.493 1.14-.22-.171-.338-.334-.375-.623-.034-.264-.006-.555.006-.822-.132-.252-.156-.312-.403-.475.007.253.097.97-.054 1.132l-.287-.43c-.246.16-.137.07-.33.27-.306-.216-.573-.464-.874-.681-.462-.333-.668-.96-1.082-1.202m1.186.489.048.15-.02-.14zm-12.922.002c-.326.307-.623.63-1.035.818-.184.495.38.746-.022 1.078l-.24-.008c-.242-.399-.207-.835-.54-1.15-.363.048-.43.042-.706.274a5 5 0 0 0-.008.926c-.222.096-.204.064-.423.005-.173.245-.183.223-.135.516.768.09 3.304-.651 3.944-1.055l.033-.157c-.038-.046-.08-.088-.114-.136-.189-.262-.248-.54-.326-.847-.18-.176-.167-.192-.428-.263m63.975.38h.152zm-67.887.605c-.254.53-.683 1.142-.63 1.72.287.146.496.097.806.069-.014-.748.577-1.247.365-1.645-.18-.052-.358-.109-.541-.144m-1.458.38c-.058.2-.179.396-.085.595.115.244.295.342.507.496.103-.32.195-.502.085-.836-.194-.148-.262-.19-.507-.255m-12.221.413c.292 2.05-.154 3.363-.072 5.228.04.902.284 1.788.498 2.66.313-.682.561-1.349.778-2.067.01-.051.028-.101.032-.153.05-.605-.409-1.195-.408-1.856l.152.032c.254.572.31 1.199.404 1.814.14-1.91.278-3.756-1.049-5.337a3 3 0 0 0-.335-.32m11.123.032c-.356.128-.755.227-.952.583-.072.129-.097.222-.142.357l.086.193c.302.008.346-.025.61-.178l.14.32.175.021c.046-.273.094-.54.157-.81.058-.245.04-.126.043-.405zm-23.193.196h.107zm23.755-.022c-.179.36-.394.625-.35 1.03.199.104.264.121.501.15.203-.346.238-.391.223-.787-.126-.181-.182-.276-.374-.393m-2.582.268-.079.183c-.081.193-.135.38-.19.582-.066.237-.102.357-.303.516-.264-.237-.304-.48-.415-.809-.263-.007-.284.02-.466.204-.316.323-.842 1.045-.887 1.487l.083.096c.407-.239.795-.468 1.159-.77l-.075.25.195-.31.181.02c.451.046.87.138 1.251-.168.12-.096.096-.075.1-.243.006-.333-.093-.632-.187-.95zm-23.52 1.889c-.509 1.147-.932 2.264-1.232 3.483-.689 2.803-1.703 11.21-4.465 12.368-2.273.953-3.783-1.687-6.068 1.028-.252.3-.675.722-.81 1.091-.132.368-.225.786-.057 1.153.297.114.44.131.738-.014 1.115-.543 1.045-2.116 2.007-2.235.336.123.483.167.697.473.118.622-.193 1.005-.523 1.49-.312.457-.759.96-.828 1.516.15.197.18.257.445.291.475.063 1.085-.083 1.564-.146.847-.966 2.094-1.656 3.386-1.77a6.3 6.3 0 0 1 1.732.118c.475 0 1.385.12 1.776-.138q.05-.522.115-1.043c.226.144.36.28.542.472.252-.558-.63-1.888-.05-2.12.442.257.597.671.925 1.034-.071-1.185-.363-2.316-.384-3.512.18.599.306 1.202.717 1.687l.05.019.163-.142-.038.184c.004-.063.012-.126.015-.189.032-.704-.418-1.144-.277-1.92.045-.25.025-.453.005-.705l.162-.041c.147.394.067.92.329 1.23.315-.073.593-.3.725-.612.28-.656-.294-1.494-.064-2.185.243.147.406.342.598.548l.17-.032c.401-1.086.091-2.668-.074-3.795l.074.132c-.2-1.04-.596-1.984-.81-3.005.556.669.97 1.379 1.369 2.15-.231-1.453-.889-2.564-1.482-3.887.86 1.001 1.498 2.09 2.123 3.247-.513-2.464-1.925-3.9-3.09-6.01-.082-.148-.043-.091-.175-.213m94.858 2.614h.152zm-91.454.264.084.661.153.118.112-.031c.024-.204.1-.326-.036-.493-.142-.173-.09-.112-.313-.254m10.21.64c-.059.41-.166 2.632-.322 2.791l-.312-.147c-.314.43-.06 1.78.02 2.31.044.292.14.496.28.753l.197.004c.226-.519.302-.85.313-1.41.003-.16.017-.322.025-.482.236-.099.112-.065.371-.098.336-.443.226-1.099.154-1.612-.092-.656-.281-1.618-.726-2.108m-1.214 4.234q-1.021 2.275-2.114 4.515c.17.388.326.941.646 1.218l.096-.107c.422-.67.612-1.99.936-2.375l.212.508c.415-.388.562-1.402.6-1.949.035-.51.054-1.323-.286-1.724-.027-.031-.06-.057-.09-.086m-2.333 4.873a44 44 0 0 0-1.718 3.428c.114.369.201 1.124.474 1.355.412-.748 1.922-3.383 1.716-4.097-.082-.28-.21-.545-.472-.686m-2.221 3.98c-.374.593-.45 1.177-.302 1.864q.038.168.088.333l.208.085.118-.056c.262-.43.54-.805.562-1.325-.121-.421-.334-.643-.674-.9M34.082 97.302c-.01-.3.042-.347.22-.579 1.153-1.505 5.502-2.569 7.414-3.267q9.307-3.468 18.826-6.302t19.207-5.023c3.904-.885 7.757-1.813 11.711-2.454-.042.412-.74.935-1.046 1.243-1.636.424-3.318.705-4.97 1.061-3.802.819-7.638 1.634-11.398 2.617-7.712 2.015-15.316 4.265-22.926 6.624-2.564.794-5.153 1.48-7.691 2.364-3.169 1.104-6.193 2.577-9.348 3.716m19.1-3.732c-.254-.05-.284-.029-.49-.21l.157-.234c1.636-.96 3.941-1.388 5.766-1.945q14.712-4.43 29.786-7.397l.323-.004c.028.073.065.143.084.219a.57.57 0 0 1-.064.476c-.26.4-.685.509-1.118.636-.694.205-1.416.21-2.115.382-4.064 1-8.19 1.775-12.261 2.76-6.72 1.625-13.335 3.772-20.068 5.316"/><path d="M104.304 86.706c-.631.032-1.345-.643-1.862-.979.412.01.888.023 1.27.194.377.169.468.414.591.785m-1.503.26-.174-.063zm0 0 .103.219zm.104.219.069.038zm-42.858 7.389c-.024.009-.047.024-.073.026-.208.016-.305.01-.456-.127l-.008-.263c.277-.257.55-.385.905-.512.703-.252 1.505-.338 2.232-.536a193 193 0 0 1 8.35-2.089c4.902-1.106 9.782-2.29 14.706-3.3l.42-.031.088.175c-.087.307-.21.507-.414.745l-.107.12c-.185.21-.316.308-.599.369-1.689.366-3.428.578-5.128.906-1.789.345-3.573.817-5.347 1.234-4.82 1.136-9.668 2.58-14.57 3.283m34.641-2.031c-.217.098-.454.225-.683.287-.344.095-.386.082-.663-.098-.147-.561.022-.92.32-1.404.7-1.139 1.49-1.76 2.77-2.072.266-.028.5-.02.758.063.933.296 3.352 1.257 3.792 2.03-.256 1.051-2.652.34-3.475.931q-.041.031-.081.066c-1.038.566-1.653.496-2.738.197m1.215-2.113a11 11 0 0 1-1.002.49l-.153.252c.117.352.194.377.494.606l.329.018.156-.163-.012-.122.145-.436c.18-.053.36-.098.54-.148a1.16 1.16 0 0 0 .469-.22c-.305-.22-.6-.237-.966-.276m111.507.849c.453-.172.916-.277 1.387-.39.842.12 1.702.21 2.432.69.974.639.693 1.576.892 2.539.324 1.569 2.165.087 3.348.939.498.358.604.923.707 1.491l.029.167c.338.187.444.117.825.088.399-.03.7-.003.99.308.356.382.297 1.907.211 2.444q-.02.117-.052.231t-.076.224-.1.215-.122.203-.143.188-.162.172-.18.154-.196.133c-1.378.853-3.076.488-4.548.16-.595 1.262-2.674 3.566-2.521 4.888.908.708 2.923-.852 3.9-1.19.571-.197 1.257-.239 1.854-.317.39-.051.904-.182 1.278-.057-.186.578-1.185.539-1.725.648-1.079.22-2.675 1.936-3.686 2.642 1.71.004 3.238.079 4.88.594-.985.188-1.949.474-2.946.598-1.272.16-2.595.124-3.875.145-2.529.042-5.065.065-7.59-.084-.238 0-.555-.031-.775-.124-.287-.122-.394-.346-.506-.613l.09-.193c.867-.624 4.097-.437 5.273-.463-1.08-.559-2.226-.973-3.301-1.529-.486-.25-1.605-.849-1.768-1.372l.194-.128c.964-.081 1.53-.001 2.416.36a6.6 6.6 0 0 1-.552-.825c-.197-.36-.391-.878-.285-1.288.308.017.766.748.967.996.911 1.12 2.186 1.917 3.389 2.683l1.115-.34c-.524-2.017-1.2-3.383-2.776-4.78-.614.386-1.26.604-1.988.448-.793-.17-1.274-.743-1.71-1.38-.588.325-1.166.564-1.793.796-.399-.096-.882-.21-1.233-.424-.676-.415-1.082-1.312-1.207-2.064-.16-.958.024-1.957.61-2.743.595-.797 1.34-.854 2.256-.98.299-.312.305-.764.419-1.166.123-.437.345-.739.752-.95 1.258-.651 2.481.282 3.681.542.306.066.441.02.686-.154.28-.943.578-1.414 1.235-2.132m2.662 9.065c-.616.38-1.218.759-1.8 1.188.347.534.681 1.071 1.1 1.553.453-.474 1.444-1.274 1.476-1.959.01-.203-.102-.338-.242-.48-.126-.129-.37-.242-.534-.302M68.722 95.222c-.212.017-.089.024-.364-.066l.01-.157c1.215-.721 12.193-2.973 14.163-3.197l.228-.016.106.136c-.117.336-.41.65-.696.853-.337.24-.758.389-1.155.489-1.281.322-2.645.475-3.946.738-2.215.449-4.474 1.06-6.721 1.287-.56.057-1.071.015-1.625-.067m120.089 2.384-.203-.096.03-.142c.951-.822 5.737-2.017 7.25-2.478l.057.004-.042-.034.225.251-.018-.01c-1.093 1.206-5.592 1.954-7.299 2.505m-77.428 15.993c-.607-4.228-1.422-7.255-3.843-10.87 2.38 2.423 3.192 4.916 4.754 7.79-.404-3.93-1.755-7.609-4.873-10.174-1.924-1.582-4.706-2.736-7.063-3.534 2.607.372 4.311 1.084 6.682 2.177-1.523-1.469-3.408-2.611-5.27-3.596 1.39.32 2.99 1.002 4.18 1.792 1.094.726 2.959 3.388 4.234 3.272.055-.615-.245-1.439-.637-1.911-1.116-1.344-2.522-2.634-4.144-3.317.284-.131.65-.057.943.04.683.23 1.3.7 1.874 1.125 2.488 1.844 4.153 4.075 5.537 6.843-1.497-.656-2.622-1.822-4.172-2.42 2.238 2.489 3.627 7.089 3.805 10.402.042.78-.292 2.834.304 3.282l.243-.031c.308-.684-.28-3.369-.328-4.295.824 2.292.729 4.668 1.45 6.973.118-2.48-.011-4.874-.158-7.348.585 1.875 1.139 3.628 1.34 5.592-.044 1.63-.079 3.272.102 4.895.217-1.43.641-2.987.688-4.418.08-2.483-.555-5.033-.58-7.54l-.003-.226v-.136c.717 1.47 1.56 2.869 2.291 4.33.515 1.03.882 2.088 1.47 3.086-.408-1.91-1.273-3.027-1.885-4.751-.765-2.156-1.208-4.447-1.894-6.633q1.593 2.27 2.866 4.733c-.336-2.768-1.851-4.86-2.214-7.27 2.112 2.15 4.157 6.122 4.125 9.192-.015 1.442-.308 2.873-.348 4.316-.026.949.496 3.112.045 3.86l-.17-.017c-.41-.638-.635-1.34-.985-2.008-.526-1-1.215-1.94-1.853-2.872.011 2.641-1.15 5.097-1.133 7.626.006 1.005.387 2.132.609 3.107.071.311.254.904.034 1.154-.42-.053-.667-.386-.91-.7-1.568-2.019-2.971-4.207-3.887-6.6-.622 1.766-.75 3.662-1.402 5.387-1.027-1.91-1.04-4.238-1.615-6.334-.135.294-.304.817-.54 1.019-.246-2.676-.094-5.301.13-7.97.628 2.196 1.047 4.659 1.292 6.936.12 1.115.152 2.246.32 3.354.569-1.541 1.388-5.526.75-6.984a4 4 0 0 0-.161-.328m8.48-5.897c-.002.997-.15 4.12.373 4.776l.147-.129c.21-1.242.549-3.48-.364-4.51-.046-.051-.104-.091-.156-.137m-6.488 6.807c-.127 2.29.276 4.049 1.29 6.108.202.412.408.94.715 1.281l.115.123c-.38-1.414-1.067-2.789-1.343-4.22-.175-.91-.016-1.87-.198-2.764-.008-.041-.007-.089-.032-.124-.092-.129-.408-.301-.547-.404M74.376 97.652a2 2 0 0 1-.597-.47l.028-.264c.837-.689 4.352-1.018 5.591-1.26.191-.037.237-.022.417.03l.12.352c-.057.294-.043.46-.3.65-.728.54-4.29 1.015-5.259.962m92.8.702-.118-.024-.058-.146.122-.228c1.679-1.085 4.22-1.59 6.16-2.06l.188.004.178.21c.006.309-.001.338-.166.599-.674.357-5.446 1.562-6.306 1.645m11.454-.565c.845-.779 1.352-.93 2.448-1.157 1.28.065 1.534.875 2.474 1.126.64.17 1.345-.104 2.014.107 1.618.51 1.121 1.795 1.736 2.995.143.277.62.554.874.729.09.465.256 1.078.197 1.547-.143 1.126-1.328 1.822-2.142 2.456-.031.296-.016.607-.072.898-.055.28-.156.39-.388.535-.884-.057-2.143-1.687-2.756-2.304-2.714-2.105-6.508-3.58-9.84-4.333.705-1.061 1.51-2.291 2.74-2.779.969-.384 1.788-.207 2.715.18m-57.86-.106.07.066zm35.953.877c-.326.056-.57.096-.902.05l-.077-.212.239-.425c.313.041.592.102.894.188l.067.171zm-79.129.617c-.138-.003-.247-.048-.377-.09.389-.438 1.29-.563 1.857-.69.171-.044.221-.003.386.046l.051.285-.156.218c-.583.265-1.135.23-1.761.231"/><path d="M104.685 101.58c-1.196-1.564-2.496-2.358-4.252-3.18q.127-.008.253-.012c1.482-.038 2.666.54 3.72 1.562 2.102 2.036 2.828 4.581 2.854 7.427.007.745-.094 1.95-.628 2.488l-.193-.023c-.226-.484-.048-1.27-.121-1.819-.21-1.579-.733-3.132-1.448-4.55-1.634-2.866-4.81-3.268-7.652-4.382 3.018.023 4.942.907 7.467 2.49"/><path d="M100.17 102.713a12 12 0 0 1-1.068-.184c-.24-.054-.286-.008-.418-.219.282-.266.648-.335 1.01-.444.13-.028.15-.038.305-.04.819-.011 1.509.32 2.074.895 1.012 1.03 3.096 5.487 3.024 6.874-.015.287-.064.322-.259.507-.258-.157-1.16-2.562-1.45-3.1-.716 2.349-1.767 4.475-2.933 6.629.027-1.818.368-3.573.073-5.385-.368-1.283-.91-2.9-1.764-3.938-.499-.608-1.985-1.155-2.208-1.767.035-.013.068-.03.104-.039.669-.162 1.493.25 2.029.615 1.343.911 1.531 1.85 2.139 3.246.526 1.207.767 1.606 1.035 2.954.14-1.084.364-2.26.287-3.355-.107-1.512-.889-2.324-1.98-3.249m-6.235 1.449.064.063zm71.356 3.813c-.614.023-1.164-.507-1.626-.857a3.4 3.4 0 0 1 1.083.08c.328.232.407.42.543.777m-3.175.284c.606.305 1.173.624 1.851.736l.059-.134c-.196-.209-.342-.374-.597-.512-.27-.146-.537-.288-.803-.44.31-.062.555-.103.868-.025.62.156 1.235.468 1.553 1.035.022.35.023.423-.126.737-.061.006-.327.032-.378.052-.284.11-.004.495-.147.815l-.326.124c-.423-.133-.704-.573-.98-.905-.394-.466-.679-.955-.975-1.483m-.885.547-.075-.055zm0 0 .111.113c.595.593 1.853 1.011 1.935 1.86-.192.424-.501.66-.847.96-1.145-.4-1.744-.947-2.582-1.807.083-.257.165-.51.228-.771l.11.141c.803 1.02 1.821 1.75 3.024 2.235-.946-.885-1.588-1.458-1.978-2.731m.259 3.293c-.597.083-1.282.01-1.784-.358-.391-.287-.452-.543-.51-1.007.6.209 1.867.911 2.295 1.365m-1.548.582c-.208.095-.449.221-.677.167-.532-.127-.804-.609-1.097-1.028.574.068 1.194.412 1.73.638zm-59.063 7.532c.94-2.296.934-4.489 1.368-6.89.16.078.318.147.418.305.814 1.284-1.281 9.507-1.453 11.522-.2 2.35 1.413 4.885 1.31 5.584-.187.09-.163.135-.328.061-1.12-.5-2.273-3.566-2.639-4.641-.57-1.661-.772-3.981-.313-5.691.257-.958.654-1.872.908-2.835.24-.906.282-1.948.63-2.804l.176-.037c.353.677-.193 1.532.059 2.271l.253.084c.142.405-.316 2.505-.39 3.071m-.647-.272c-.267.965-.703 2.158-.276 3.124.198-.437.505-2.58.33-3.027-.013-.034-.036-.064-.055-.097m.663.371h.101zm10.167-3.966c-.103-.861-.035-1.949.322-2.747.004.742.156 2.149-.322 2.747m14.715 4.974-.194-.142c-.297-.755-.282-1.804-.399-2.623.532.513.535 2.026.593 2.765m59.464-.155c-.515.116-1.098.319-1.613.158-.325-.317-.286-.42-.345-.857q.18.01.361.023c.752.052 1.075.074 1.596.675m13.477 6.19q-.391-.028-.781-.064c-.279-.028-.614.005-.793-.217l.155-.19c.252 0 .51-.004.762.019.319.029.61.023.81.278zm-10.496.716-.05.02c-.66.285-1.685.192-2.36-.03-.464-.153-.489-.294-.692-.705.929.019 2.181.1 3.028.474zm4.253 5.291c-1.032.25-2.833.385-3.81-.088-.36-.173-.365-.425-.485-.772 1.052.046 3.625.01 4.435.701zm11.736 2.591-.109.085-.175-.034.136-.217.205-.09.16.066zm-.567.486h-.127zm-60.412 1.032c-1.754.174-5.807.412-7.42-.006.59-.572 4.738-.616 5.65-.663 1.387-.024 6.952-.45 7.792.323-.64.536-4.958.377-6.021.346m54.042.107c-.276.028-.563.068-.84.063-.383-.006-.535-.085-.81-.34.7-.115 1.063-.143 1.65.276m-66.821 5.294c4.388-.842 9.026-.469 13.467-.677.047-.013 7.643.281 7.986.354.365.077.784.18 1 .507-1.036.681-10.043.153-11.945.072-3.513-.04-7.003.105-10.508-.256m49.145 1.487c-1.16-.344-2.47-.551-3.675-.634-.544-.038-1.076.025-1.611-.101l-.059-.175.446-.699c1.296.3 4.26.6 5.164 1.56zm10.457 1.206-.132-.07zm-54.274 3.725c-2.936-.24-6-.042-8.957-.115-.83-.021-1.843.066-2.634-.137 1.056-.853 7.666-.69 9.405-.731 3.932-.039 7.85.055 11.781.099a10 10 0 0 1-1.006 1.019c-2.856-.14-5.744.13-8.588-.135m28.911-.206c.968-.402 1.851-.701 2.904-.781 1.605-.058 10.18-.272 10.935.338.132.106.08.195.076.347a1.7 1.7 0 0 1-.55.483c-.455.261-.745.332-1.256.176q-.053-.016-.105-.034-6.003-.233-12.004-.53m-13.246 1.527c-.102.108-.031.058-.243.097-.042-.122-.112-.316-.136-.437-.068-.356-.02-.439.154-.732.33-.233.672-.214 1.059-.235.282.046.375-.008.556.227l-.118.213c-.423.235-.802.47-1.173.782zm37.091-.444-.074.04-.128-.067-.105-.706.268.15c.153.27.114.276.039.583m6.209 1.215.504-1.609c3.167.293 6.346.415 9.514.741q2.867.293 5.703.806t5.625 1.243c1.05.268 2.778.571 3.548 1.326l-.065.175-.356.111c-1.554.102-3.179-.185-4.72-.374-2.939-.36-5.848-.828-8.777-1.248-3.641-.521-7.314-.837-10.976-1.172m-32.29.254c.58.004 1.155-.031 1.734-.068 1.12-.305 9.727-.026 11.026.125.412.047.82.17 1.216.287-.088.716-.265 1.437-.407 2.145-.673-.112-1.375-.124-2.056-.168-4.335-.34-8.687-.418-13.023-.791.476-.558.956-1.05 1.51-1.53m-46.038 2.863c.953-.939 1.948-1.864 3.257-2.27 1.667-.517 3.54-.27 5.26-.28l6.942-.01c1.76 0 3.526-.108 5.289-.124 1.469.001 2.935.011 4.383.285 1.7.32 3.142.785 4.163 2.263-2.02.342-4.362.013-6.424.003l-14.508-.02c-2.789.012-5.574.16-8.362.152m74.849.618c.744-.708 1.58-1.334 2.405-1.943 1.222.319 2.675.25 3.94.308 3.7.17 23.619 2.45 25.162 4.142l-.02.218c-.56.379-1.362.42-2.023.422-2.383-.41-4.846-.596-7.248-.908-2.718-.353-5.42-.843-8.144-1.138-4.689-.508-9.375-.748-14.072-1.101m-69.86 6.404c-3.559.155-11.046.085-14.373-.569l-.121-.182.14-.165c2.272-.735 5.54-1.023 7.947-1.171.742-.143 1.626-.078 2.388-.09 4.124-.068 8.624.086 12.515 1.532-2.751.433-5.708.584-8.496.645m97.413 10.057c-.442.036-.85.043-1.288-.047-3.059-.631-6.078-1.69-9.107-2.485-4.666-1.224-9.407-2.254-14.027-3.64-.95-.286-2.023-.578-2.857-1.125.125-.018.179-.03.299-.034 2.717-.085 25.101 5.657 26.98 7.331m-110.341 9.481q.299-.083.594-.173c1.22-.369 2.16-1.728 3.375-2.278 1.539-.698 3.333-.612 4.971-.905 1.185-.213 2.344-.564 3.529-.79a7.3 7.3 0 0 1 1.304-.04c2.514.132 4.128 1.603 5.71 3.361q.421-.499.873-.97c1.402-1.432 3.17-2.401 5.218-2.386 1.467.011 2.815.57 4.238.84 4.147.792 4.913-.2 8.293 3.331.91-.23 1.794-.579 2.668-.917 2.662.652 4.398 2.379 6.732 3.656 6.406 3.506 12.342 2.547 19.004.612.232.69.406 1.41.596 2.112.176.655.37 1.422.854 1.92 1.615 1.668 6.896 1.393 9.263 1.514.694.036 1.558-.023 2.174.33.41 1.167-2.106 7.726-2.647 9.188.623 1.62 3.03 7.547 3.01 8.747-1.011.858-8.754-.125-10.912 1.264-1.644 1.058-1.934 3.297-2.336 5.052-2.451-.691-5.084-1.317-7.628-1.5-6.83-.49-11.754 2.95-16.697 7.213-1.51-.378-2.955-.941-4.393-1.53-.985 1.432-2.315 2.762-3.963 3.398-1.272.491-2.34.438-3.555-.113-.877.678-1.58 1.031-2.667 1.259-3.337.177-5.38-1.493-8.023-3.284-1.824 1.51-3.897 3.01-6.31 3.323-1.618.21-3.052-.212-4.33-1.192-.888.202-1.74.322-2.65.196-2.271-.316-3.765-1.858-5.098-3.565-.401-.006-.802-.045-1.201-.076-.658.441-1.329.793-2.039 1.141-2.14-.392-4.115-2.486-5.965-3.649q-.636-.404-1.302-.758-.665-.355-1.355-.659-.69-.303-1.4-.554-.711-.25-1.44-.446c-2.647-.708-5.63-1-8.336-.477-1.372.264-3.054.868-4.445.674-1.799-.25-1.63-1.995-2.587-3.154-1.728-2.089-5.584-2.41-8.11-2.415-1.001-.002-2.17.135-3.152-.017-.311-.048-.416-.153-.572-.409.088-1.348 2.033-3.662 2.641-5.106 1.81-4.295-.29-6.507-1.809-10.295-.202-.503-.515-1.277-.287-1.803 1.1-.313 2.683-.078 3.84-.071 1.623.01 3.428-.202 4.983-.675 2.95-.898 3.097-3.06 4.446-5.274.132-.217.23-.411.503-.419.882-.026 1.997.607 2.861.835 2.046.541 4.243.807 6.358.695q.662-.04 1.32-.12t1.31-.2 1.296-.28 1.275-.359 1.252-.436 1.223-.511 1.189-.585 1.151-.656c1.398-.849 3.047-2.217 4.675-2.5.902-.158 1.78.365 2.48.886m9.174 11.246c-1.903.111-3.471.533-4.794 2.026-1.539 1.736-1.836 4.198-1.66 6.426.151 1.927.753 3.977 2.315 5.241 1.11.898 2.599 1.215 4 1.258 1.822-.056 3.39-.43 4.675-1.835 1.574-1.724 2.03-4.229 1.888-6.489-.12-1.911-.738-3.93-2.23-5.22-1.212-1.048-2.634-1.353-4.194-1.406m15.82-.009c-1.708.244-3.21.807-4.288 2.246-1.503 2.007-1.675 4.96-1.29 7.35.27 1.671.987 3.237 2.411 4.234 1.635 1.145 3.895 1.333 5.813.938q.23-.046.455-.106.226-.061.447-.136t.438-.163q.215-.09.425-.191.21-.103.414-.219.202-.115.398-.244.195-.128.381-.268.187-.14.364-.293c-.116-1.868-.078-3.752-.082-5.624-.988-.016-5.195-.258-5.804.063l-.056.124.005 2.233c1.073.01 2.179-.032 3.244.114.008.571.123 1.37-.291 1.828-.46.509-1.883.901-2.563.868-.767-.037-1.415-.365-1.93-.93-1.249-1.367-1.318-3.478-1.194-5.231.09-1.274.38-2.79 1.362-3.687a2.37 2.37 0 0 1 1.812-.61c.863.066 1.467.394 2.003 1.067.376.472.725.973 1.073 1.466.698-.267 1.464-.5 2.107-.878-.513-1.448-1.342-2.632-2.755-3.331-.923-.457-1.884-.58-2.898-.62m15.176.118c-1.758.302-3.09 1.08-4.113 2.584-1.373 2.02-1.617 4.983-1.128 7.328.318 1.527 1.044 3.128 2.378 4.014 1.556 1.033 3.417 1.081 5.202.888 1.713-.37 3.036-1.067 4.027-2.579 1.328-2.024 1.487-4.863.977-7.171-.382-1.726-1.24-3.244-2.782-4.19-1.4-.86-2.96-.996-4.561-.874m-43.71.154c-2.393.01-4.8-.034-7.191.052l-.005 2.24q1.881-.018 3.761-.078-.007 5.875.092 11.748l.133.25c.855.191 1.804.093 2.68.107.05-4.044-.033-8.086.021-12.13l3.824.002.007-2.204zm66.965 2.266a58 58 0 0 0-1.056 2.567c-1.004-.006-2.008-.024-3.01-.018.707.793 1.55 1.388 2.385 2.035-.268.982-.546 1.963-.803 2.948.837-.572 1.705-1.29 2.636-1.69l2.398 1.644c-.207-.963-.427-1.926-.607-2.894.86-.666 1.755-1.31 2.58-2.019l-3.327-.04c-.304-.773-.614-1.926-1.196-2.533m-87.993.128a57 57 0 0 0-.889 2.79l-3.181.016c.803.71 1.713 1.293 2.498 2.016-.367.926-.621 1.868-.876 2.83q1.32-1.01 2.68-1.964c.816.654 1.652 1.27 2.5 1.879l-.85-2.83c.823-.667 1.665-1.32 2.458-2.022-1.051.001-2.136-.073-3.181.026-.272-.799-.566-2.156-1.16-2.74"/><path d="M117.782 205.117c-.677.006-1.263-.056-1.843-.436-.953-.625-1.418-1.688-1.627-2.772-.358-1.86-.313-4.546.812-6.147.61-.869 1.229-1.04 2.225-1.232.074.017.147.04.223.05.55.079.974.081 1.477.369.988.566 1.571 1.572 1.818 2.657.412 1.813.263 4.38-.758 5.967-.625.97-1.224 1.285-2.327 1.544m32.208-.007c-.82.033-1.408.004-2.067-.538-.988-.812-1.332-2.06-1.477-3.281-.21-1.76-.304-4.178.882-5.622.67-.816 1.308-.925 2.312-.999.595-.036 1.146-.016 1.671.3.893.536 1.334 1.516 1.57 2.488.441 1.806.467 4.61-.566 6.215-.621.965-1.236 1.203-2.325 1.437"/></svg>