<svg xmlns="http://www.w3.org/2000/svg" viewBox="0 0 256 256"><path d="M120.647 0h12.821l.116.02c2.367.385 4.878.36 7.273.601q7.657.762 15.179 2.382 1.399.306 2.79.645 1.391.338 2.775.708t2.757.77 2.74.833 2.72.895 2.7.956 2.676 1.016 2.654 1.077q1.32.554 2.628 1.137 1.308.584 2.601 1.196 1.295.613 2.575 1.255t2.545 1.312 2.514 1.37 2.483 1.426 2.45 1.482 2.416 1.537 2.381 1.591 2.344 1.645 2.307 1.698 2.266 1.749 2.228 1.8q1.103.912 2.185 1.85 1.083.937 2.144 1.898 1.06.962 2.1 1.947 1.039.986 2.055 1.994t2.01 2.04 1.962 2.085q.97 1.053 1.916 2.129.945 1.075 1.866 2.17.921 1.097 1.817 2.214.897 1.117 1.767 2.254.87 1.136 1.715 2.293c11.144 15.256 19.267 33.421 22.7 52.02 2.72 14.742 2.657 30.477.34 45.277q-.253 1.52-.543 3.033-.287 1.513-.613 3.019-.327 1.506-.687 3.003-.362 1.498-.76 2.986t-.833 2.967q-.432 1.478-.902 2.946-.469 1.467-.974 2.923-.504 1.455-1.043 2.899-.54 1.442-1.114 2.872t-1.182 2.845q-.609 1.416-1.251 2.816-.643 1.4-1.319 2.784-.676 1.385-1.385 2.752-.71 1.368-1.451 2.718-.743 1.35-1.517 2.682t-1.58 2.644-1.645 2.606q-.838 1.293-1.706 2.565-.869 1.273-1.768 2.524-.9 1.25-1.829 2.48-.929 1.228-1.887 2.434-.959 1.206-1.946 2.389-.988 1.183-2.003 2.341t-2.059 2.292-2.114 2.242-2.167 2.19-2.219 2.137-2.27 2.083-2.32 2.027-2.368 1.97q-1.196.972-2.415 1.914t-2.46 1.854q-1.422 1.054-2.873 2.068-1.45 1.014-2.928 1.987t-2.982 1.906-3.034 1.822q-1.529.89-3.082 1.738-1.554.847-3.13 1.651-1.577.805-3.175 1.565t-3.216 1.476-3.256 1.386q-1.638.671-3.293 1.296t-3.328 1.204q-1.672.58-3.36 1.112t-3.389 1.018q-1.702.487-3.416.925-1.715.437-3.44.83-1.727.39-3.463.732-5.044.987-10.157 1.52c-1.83.19-3.948.138-5.724.555h-17.065c-2.1-.425-4.454-.437-6.595-.68a162 162 0 0 1-11.55-1.752c-2.772-.518-5.492-1.266-8.209-2.016q-1.442-.394-2.874-.825t-2.854-.895-2.83-.964-2.808-1.032-2.781-1.1-2.754-1.165-2.725-1.233q-1.355-.632-2.694-1.298-1.34-.665-2.662-1.362-1.323-.698-2.629-1.427-1.305-.729-2.593-1.49-1.288-.76-2.556-1.552-1.27-.79-2.519-1.613-1.249-.822-2.478-1.673t-2.437-1.733-2.395-1.791q-1.117-.846-2.214-1.715t-2.175-1.763-2.137-1.811-2.096-1.857-2.054-1.902q-1.017-.963-2.013-1.947-.995-.985-1.97-1.992-.973-1.006-1.924-2.033-.952-1.027-1.88-2.075-.929-1.048-1.834-2.116t-1.787-2.156-1.74-2.195-1.69-2.232-1.642-2.269-1.591-2.304q-.783-1.16-1.54-2.339-.757-1.177-1.489-2.372-.731-1.194-1.436-2.403t-1.383-2.435-1.329-2.465-1.275-2.493-1.22-2.52q-.596-1.268-1.164-2.547t-1.108-2.572q-.54-1.292-1.05-2.596-.512-1.303-.995-2.617-.482-1.315-.936-2.64-.454-1.324-.878-2.659-.425-1.334-.82-2.677-.395-1.344-.76-2.695-.366-1.352-.702-2.711-.336-1.36-.641-2.726Q1.593 149.693.814 142.7c-.32-3.107-.401-6.248-.814-9.343v-11.682c.403-1.932.375-4.061.543-6.03q.38-4.499 1.188-8.941.311-1.873.678-3.735t.789-3.712.9-3.687 1.01-3.66q.531-1.821 1.117-3.626t1.226-3.592 1.333-3.553 1.438-3.513 1.543-3.468 1.646-3.42 1.747-3.369q.898-1.672 1.846-3.316t1.945-3.259 2.042-3.2 2.136-3.136q1.092-1.553 2.229-3.072 3.236-4.35 6.811-8.426t7.465-7.852q.799-.762 1.61-1.512.812-.749 1.637-1.484.824-.735 1.661-1.456.837-.72 1.687-1.426.849-.706 1.71-1.398.862-.69 1.735-1.367t1.758-1.338 1.78-1.307q.897-.645 1.804-1.276.907-.63 1.825-1.244.918-.615 1.846-1.213t1.867-1.18 1.887-1.15 1.907-1.115 1.925-1.083 1.944-1.049 1.962-1.015q.985-.5 1.978-.982.994-.482 1.996-.947t2.012-.912 2.027-.878 2.042-.842 2.056-.807 2.07-.772 2.083-.735 2.096-.7 2.106-.663 2.119-.626q1.061-.305 2.129-.59 1.066-.286 2.138-.554 1.072-.267 2.148-.516t2.156-.479c4.298-.913 8.717-1.54 13.088-1.973 2.02-.2 4.099-.21 6.103-.5zm4.199 3.306c-7.537.275-15.11.977-22.51 2.471q-1.18.249-2.356.52t-2.346.566-2.334.61-2.322.657-2.309.701-2.294.747q-1.144.384-2.28.79t-2.264.836-2.247.879-2.23.922-2.211.966-2.192 1.008-2.172 1.052-2.151 1.093-2.13 1.135q-1.059.577-2.107 1.176-1.047.598-2.083 1.216-1.036.619-2.06 1.258-1.023.638-2.034 1.297t-2.01 1.336-1.982 1.375-1.956 1.414-1.927 1.451-1.9 1.489-1.869 1.525-1.84 1.562q-.912.79-1.809 1.597t-1.777 1.631-1.745 1.666-1.713 1.7-1.68 1.733-1.645 1.765q-1.03 1.115-2.033 2.255T32.35 48.01t-1.92 2.352-1.864 2.397-1.805 2.443-1.744 2.485q-.858 1.254-1.684 2.527-.827 1.274-1.622 2.568-.795 1.293-1.559 2.606t-1.495 2.643-1.43 2.678-1.366 2.713q-.666 1.365-1.298 2.745-.633 1.38-1.232 2.776-.598 1.395-1.163 2.805t-1.095 2.832-1.026 2.858-.956 2.882-.886 2.905q-.425 1.458-.815 2.925-.39 1.468-.744 2.945t-.671 2.961-.6 2.977-.527 2.99q-.245 1.5-.454 3.004t-.381 3.012-.308 3.021-.234 3.028-.16 3.032-.087 3.036q-.025 1.518-.013 3.036t.06 3.036q.052 1.562.143 3.121.09 1.56.22 3.117t.298 3.109q.169 1.553.376 3.102t.453 3.09.53 3.079.607 3.065q.322 1.528.683 3.048.36 1.52.759 3.03.398 1.51.834 3.01t.91 2.99.983 2.964 1.057 2.94 1.13 2.912 1.204 2.883q.62 1.434 1.274 2.853.655 1.417 1.346 2.819.69 1.401 1.415 2.785.725 1.383 1.484 2.748.76 1.366 1.553 2.712.793 1.345 1.62 2.67.826 1.326 1.686 2.63.859 1.305 1.75 2.588.893 1.282 1.816 2.542.924 1.26 1.878 2.496.955 1.237 1.94 2.449t2 2.4q1.016 1.187 2.06 2.348 1.045 1.162 2.118 2.297t2.174 2.243 2.23 2.188 2.284 2.132q.859.783 1.733 1.55t1.762 1.518 1.79 1.484 1.818 1.451 1.845 1.416 1.87 1.381q.943.682 1.897 1.345.955.665 1.922 1.31.967.646 1.946 1.273.98.628 1.97 1.237t1.992 1.2 2.015 1.16q1.013.572 2.037 1.124 1.023.552 2.057 1.085 1.033.532 2.077 1.046 1.043.513 2.096 1.006 1.053.494 2.115.968 1.062.473 2.133.927 1.07.453 2.15.887 1.079.433 2.166.846t2.182.805 2.196.764 2.21.723 2.224.681 2.236.639 2.248.597q1.127.287 2.258.554t2.269.512q1.136.245 2.278.468 1.14.225 2.286.428 1.145.202 2.294.382 1.148.18 2.3.34 5.112.653 10.258.948t10.298.227q1.21-.028 2.418-.08 1.21-.052 2.417-.13 1.208-.075 2.413-.175 1.206-.1 2.41-.223 1.204-.122 2.405-.27 1.2-.147 2.399-.317 1.198-.17 2.392-.365 1.194-.192 2.385-.41t2.376-.458 2.367-.505q1.18-.263 2.356-.55t2.345-.597 2.333-.642q1.163-.333 2.32-.689t2.306-.734 2.29-.779q1.143-.4 2.276-.823 1.134-.423 2.259-.868t2.241-.912 2.223-.956q1.107-.49 2.204-1t2.184-1.042 2.163-1.086 2.141-1.127 2.119-1.17 2.095-1.21q1.042-.615 2.071-1.251t2.046-1.292 2.02-1.332q1.005-.675 1.995-1.37t1.966-1.41q.977-.716 1.939-1.449c5.828-4.463 11.07-9.385 16.142-14.679 14.255-14.875 25.224-35.32 30.008-55.337q.465-2.005.867-4.023.4-2.018.738-4.048t.612-4.07q.273-2.04.48-4.087.21-2.047.352-4.1.145-2.053.226-4.109.077-2.056.092-4.114.012-2.058-.037-4.115-.033-1.536-.1-3.072-.07-1.535-.178-3.067t-.252-3.063-.33-3.055q-.183-1.526-.403-3.047-.22-1.52-.48-3.035-.257-1.515-.553-3.023-.295-1.508-.627-3.008-.333-1.5-.702-2.992-.37-1.491-.776-2.973t-.849-2.954-.921-2.931-.994-2.908-1.065-2.882-1.136-2.856-1.206-2.826-1.275-2.796-1.344-2.763-1.412-2.73q-.723-1.356-1.479-2.693-.756-1.338-1.545-2.657t-1.61-2.617-1.674-2.577-1.737-2.535-1.8-2.491q-.914-1.234-1.86-2.446-.945-1.212-1.92-2.4-.974-1.187-1.978-2.35t-2.037-2.302-2.092-2.25-2.147-2.199q-1.087-1.086-2.201-2.144-1.102-1.042-2.23-2.056t-2.279-2.002-2.326-1.945-2.374-1.889-2.419-1.83q-1.22-.9-2.462-1.77t-2.506-1.71-2.545-1.65q-1.283-.808-2.586-1.585-1.302-.778-2.623-1.523-1.32-.746-2.659-1.46-1.338-.712-2.694-1.393-1.355-.68-2.727-1.327-1.371-.648-2.758-1.261-1.387-.614-2.789-1.194-1.401-.58-2.816-1.125-1.415-.546-2.843-1.057t-2.868-.987-2.892-.917q-1.45-.44-2.912-.846t-2.932-.775q-1.471-.37-2.95-.704t-2.967-.632-2.981-.56q-1.494-.26-2.994-.486t-3.005-.414-3.013-.34q-1.51-.152-3.022-.267t-3.027-.194q-1.514-.078-3.03-.12t-3.033-.046-3.033.028q-.272.005-.544.02"/><path d="M130.813 251.233c-4.144.14-8.315-.098-12.445-.425-26.187-2.068-51.981-12.455-71.556-30.147q-3.81-3.376-7.347-7.039t-6.78-7.588q-.777-.95-1.536-1.915-.758-.966-1.497-1.946-.74-.981-1.459-1.976t-1.418-2.005q-.7-1.009-1.378-2.032-.68-1.023-1.338-2.06-.658-1.036-1.296-2.085-.637-1.05-1.253-2.111-.617-1.062-1.212-2.136t-1.168-2.16-1.125-2.183-1.081-2.205q-.53-1.108-1.037-2.226t-.992-2.246-.947-2.266-.901-2.284-.856-2.302-.81-2.318q-.392-1.163-.762-2.334t-.716-2.35q-.346-1.177-.669-2.362-.322-1.185-.621-2.376t-.574-2.387-.526-2.399q-.25-1.202-.478-2.409t-.43-2.417-.38-2.426-.333-2.433-.284-2.44q-.13-1.22-.235-2.443t-.186-2.449q-.08-1.225-.137-2.452-.071-1.519-.106-3.04-.034-1.52-.03-3.041.003-1.521.044-3.041t.12-3.04.195-3.035.27-3.03.344-3.022q.192-1.508.42-3.012t.494-3.002q.265-1.497.568-2.988t.642-2.973.715-2.956.788-2.938.86-2.917.932-2.895 1.004-2.872 1.075-2.845q.554-1.416 1.144-2.818t1.214-2.79q.624-1.386 1.282-2.757.659-1.371 1.35-2.726.693-1.354 1.418-2.69.725-1.338 1.484-2.656.758-1.319 1.548-2.618.79-1.3 1.613-2.578.823-1.28 1.677-2.538.854-1.26 1.738-2.496.885-1.238 1.8-2.452.915-1.215 1.86-2.407t1.919-2.36 1.977-2.312 2.033-2.262q.822-.903 1.662-1.79.84-.888 1.698-1.758t1.732-1.723 1.767-1.688 1.8-1.653q.909-.817 1.833-1.616.925-.799 1.865-1.579t1.896-1.54 1.926-1.504 1.956-1.464 1.986-1.424 2.013-1.385 2.04-1.344q1.028-.662 2.068-1.303t2.093-1.261q1.052-.62 2.117-1.22 1.065-.598 2.142-1.176 1.077-.577 2.165-1.133t2.187-1.09 2.208-1.045 2.23-1.001q1.119-.49 2.248-.957t2.267-.911 2.285-.866 2.302-.82 2.318-.773 2.333-.727q1.17-.351 2.347-.68 1.176-.328 2.36-.632 1.183-.305 2.372-.586t2.383-.538 2.394-.49c6.862-1.301 13.804-1.843 20.77-2.187 3.707-.142 7.428.124 11.126.373q1.265.08 2.529.186 1.262.107 2.523.24 1.26.132 2.518.291 1.258.16 2.512.345t2.504.397q1.25.211 2.494.449 1.245.237 2.485.5 1.24.264 2.474.554 1.234.289 2.462.604t2.449.656 2.434.707 2.42.757 2.403.808 2.385.858q1.188.44 2.367.907 1.179.466 2.347.957 1.169.49 2.327 1.005 1.159.515 2.306 1.054 1.147.54 2.283 1.102t2.26 1.15q1.123.586 2.234 1.196 1.112.61 2.21 1.242 1.098.633 2.183 1.289t2.155 1.334q1.072.678 2.128 1.379 1.056.7 2.098 1.422 1.042.723 2.068 1.467t2.037 1.509q1.01.765 2.005 1.551t1.971 1.593 1.939 1.634q.96.827 1.903 1.674 1.145 1.025 2.264 2.079 1.12 1.053 2.212 2.135 1.092 1.08 2.157 2.188t2.102 2.243 2.046 2.294 1.988 2.344 1.929 2.392 1.868 2.44q.92 1.233 1.808 2.487t1.745 2.53 1.681 2.573 1.617 2.614 1.551 2.653 1.484 2.692 1.417 2.727 1.35 2.762q.656 1.389 1.279 2.794t1.21 2.826 1.138 2.855 1.067 2.882.995 2.908q.48 1.46.923 2.932t.849 2.954.775 2.974.701 2.993.626 3.009.551 3.023q.257 1.516.476 3.037t.4 3.047q.18 1.527.325 3.057.142 1.53.247 3.064.102 1.533.17 3.068.05 1.174.08 2.348.03 1.175.035 2.349.007 1.175-.01 2.35-.015 1.174-.053 2.348-.04 1.174-.1 2.347t-.144 2.345q-.083 1.172-.188 2.342t-.232 2.337q-.129 1.168-.279 2.333t-.322 2.327-.366 2.32-.41 2.314q-.216 1.154-.454 2.304t-.499 2.296-.542 2.286q-.282 1.14-.585 2.275-.304 1.135-.629 2.264t-.672 2.251q-.346 1.123-.714 2.238-.368 1.116-.757 2.224-.39 1.108-.8 2.209t-.841 2.193-.883 2.177-.924 2.16-.966 2.142-1.005 2.123q-.513 1.056-1.047 2.103t-1.086 2.083q-.553 1.037-1.125 2.063-.573 1.025-1.165 2.04-.592 1.014-1.203 2.017t-1.242 1.994c-4.039 6.272-8.652 11.977-13.671 17.48q-.828.901-1.674 1.787t-1.709 1.754-1.744 1.72q-.88.85-1.778 1.683-.897.833-1.811 1.648t-1.844 1.612-1.876 1.574-1.907 1.537-1.937 1.498-1.967 1.458-1.996 1.42-2.024 1.379-2.05 1.338-2.078 1.296-2.103 1.255-2.128 1.213-2.151 1.17-2.175 1.126-2.196 1.083-2.218 1.038-2.238.994q-1.125.486-2.258.949t-2.276.903-2.294.858q-1.151.417-2.31.812-1.16.394-2.327.765-1.167.37-2.341.718t-2.355.672-2.368.624-2.38.576-2.392.53q-1.198.251-2.4.48c-6.532 1.222-13.147 1.78-19.778 2.084M203.5 140.874l-.379.156c-.28.107-.456.223-.58.516a.76.76 0 0 0-.059.508l.196-.024c.138-.308.356-.679.443-1zc.139.13.05.085.287.087l-.064-.095zm-159.66.065-.059.184zl.13-.054zm134.41.435-.125.213c.127-.174.105-.094.125-.213l.098-.124zm1.25.655.13.095.299.294.04.08-.04-.08-.3-.294zm-62.442 1.427-.093.042c-1.038.485-1.966 1.234-2.957 1.814-1.454.851-3.501.963-5.158 1.19l.986 1.069c.364.316.722.659 1.116.937 1.496-1.041 5.103-3.691 6.106-5.052l.066-.059zm59.943.295.055.19.193.055-.193-.055zm-36.602.124.061.18.116.033c.87 1.576 2.652 2.848 4.08 3.873.663-.421 1.31-.873 1.962-1.312l1.132-.645c-3.599.456-4.291-.158-7.174-1.916l-.115-.032zm70.505 1.02.045.059c.071.151.139.298.237.435.927 1.283 2.708 1.443 4.154 1.65-.971-.659-3.112-1.378-4.391-2.085zm-7.374.23.061.175.158.073-.158-.072zm-32.28.624-.099.124zc.26-.18.173-.058.26-.369l-.161.057zm69.616.574c-.91.335-2.127.734-2.874 1.347 1.078-.119 2.076-.62 2.874-1.347l.116-.073zm-70.233.186c-.092.12-.187.231-.258.365-.212.185-.275.228-.375.5l-.124.221.124-.221c.232-.172.256-.233.375-.5.113-.117.177-.226.258-.365l.116-.134zm9.61.055-.117.031zc2.602-.742 5.19-4.933 7.332-6.765 2.305-1.971 5.116-3.303 8.005-4.164-5.238-.187-6.273-.775-10.707 2.435-.803-.722-1.976-1.536-3.045-1.758-1.566-.325-3.278-.221-4.874-.232-2.517-.017-5.043-.051-7.558.042-1.982.074-3.952.256-5.937.284-4.689.065-9.365-.25-14.046-.172.423.39 1.022.974 1.142 1.556.117.565-.1 1.091-.416 1.553-.45.656-1.49 1.77-2.324 1.871-.185.022-.245-.07-.387-.168-.297-.77-.05-1.672-.131-2.486-.057-.555-.181-1.024-.616-1.4-.374-.136-.618-.14-.993-.023-.588.184-1.22.516-1.496 1.093-.633 1.319.68 3.705 1.186 4.935-1.044-.606-3.053-1.512-3.78-2.359-1.07-1.25.797-3.067.147-4.317-.142-.07-.163-.09-.34-.124-1.174-.23-2.854 1.508-3.724 2.2a5 5 0 0 0-.632.505c1.073 1.11 3.958 3.311 5.276 4.211a7.35 7.35 0 0 0 3.183 1.199c4.948.606 7.012-4.96 10.624-7.16.328-.2.838-.523 1.236-.538.026 0 .327.003.38.047.408.337.89 1.5 1.217 1.98.713 1.041 1.5 2.06 2.409 2.94 1.242 1.2 3.573 3.23 5.446 3.146 1.577-.07 3.622-.907 4.64-2.137.306-.369.411-.679.367-1.165-.22-.129-.427.267-.751.299-.483-.583-.463-1.43-.945-2.04-.388-.493-1.121-1.222-1.802-1.216-.315.003-.547.177-.755.394-.756.787-.535 2.065-.456 3.036-.869-.367-2.244-.466-2.836-1.25-.349-.46-.446-1.02-.35-1.583.15-.879.686-1.638 1.412-2.142 1.16-.806 2.851-.882 4.2-.6 1.89.393 2.93 1.858 3.932 3.363.855.323 1.75.577 2.62.86l.081-.14c.918-1.558 1.791-2.027 3.483-2.46.37.135.732.282 1.085.458.781.387 1.552.957 1.814 1.83.47 1.56-1.548 4.762-2.316 6.161m-113.24 4.432c-.091.33-.078.327.064.641l.177.106.153-.08c.054-.328.145-.634.008-.951-.278.067-.236.078-.402.284m-35.978.273.047.165.245.09.084.135.128.108-.128-.108-.084-.136-.245-.089zm170.85.51.173.054.058.165-.058-.165zm-15.436 4.06-.188.139zl.185-.06zm-6.584 20.598c.91 1.658 1.42 3.85 2.049 5.648q1.997 5.825 4.19 11.579l3.116-.022-.099-23.928h-3.117l-.029 8.864c-.026 2.018-.155 4.067-.017 6.082-.921-1.72-1.296-3.88-1.914-5.731q-1.613-4.684-3.534-9.25-1.876.014-3.751-.005l.015 23.98c1.055.015 2.11.038 3.165.002.091-5.735-.074-11.482-.075-17.219m-65.902 28.756-.094.09-.096.09.096-.09zc.495-.242.651-.431.895-.911-.409.269-.642.49-.895.911m-6.526-1.297c.572.708 1.172 1.355 2.012 1.744q.141.065.288.115.146.05.296.087t.304.058.308.028.308 0 .308-.031q.153-.023.303-.06t.296-.089c-.054.272-.078.146.07.377l.64.022c.095-.084.153-.179.224-.282-.248-.185-.626-.113-.934-.117a44 44 0 0 0 3.018-1.738q-2.385-.12-4.773-.154-1.334-.004-2.668.04m10.066-194.72q-3.194.248-6.373.642c-.013 5.131-1.081 12.16-4.836 15.998-6.387-2.823-9.062-6.116-12.472-12.05-2.395.603-4.734 1.564-7.093 2.307.948 5.35 1.817 11.814-1.435 16.622q-.103.15-.217.291c-5.935-1.295-10.69-4.783-14.167-9.683-2.595 1.346-4.98 2.769-7.327 4.52 1.958 4.302 3.341 8.55 3.024 13.342-.068 1.023-.173 2.194-.529 3.163l-.06.154c-5.856-.008-11.395-2.918-15.82-6.55-1.838 1.443-3.675 3.011-5.251 4.739 4.043 4.11 5.963 9.558 6.306 15.26-4.428 1.808-10.192.57-14.437-1.224-1.038-.438-2.047-.958-3.062-1.446-1.722 1.859-3.385 4.14-4.687 6.313 4.698 3.805 7.778 7.615 9.713 13.454-2.6 2.349-6.292 2.636-9.655 2.467-2.85-.142-5.536-.759-8.208-1.743-1.558 2.691-3.087 5.774-3.658 8.846 4.534 2.294 9.99 5.582 11.752 10.694.095.276.179.716.036.981-.894 1.656-5.95 3.408-7.79 3.83-3.104.713-6.108.55-9.126-.428-.809 3.482-1.611 6.938-2.177 10.47 4.324-.067 8.098 1.477 11.38 4.298 2.129-1.728 4.296-3.443 6.26-5.361 2.01-1.965 3.837-4.106 5.854-6.066-.528-2.204-1.321-4.221-2.003-6.367l.154-.11c1.364-.97 2.864-1.74 4.278-2.636 1.942-1.23 3.675-2.686 5.313-4.291-1.243-.901-2.598-1.782-3.653-2.905 1.433.222 2.68.635 4.021 1.175.842-4.075.263-7.285-.973-11.183 3.728-1.176 7.163-2.274 10.393-4.56-.923-.96-1.951-1.903-2.63-3.056 1.26.433 2.365 1.135 3.592 1.632.839-2.396 1.164-4.663 1.05-7.2-.045-1.012-.174-2.048-.147-3.058 1.466-.27 2.948-.35 4.42-.565 2.15-.315 4.132-.962 6.12-1.822-.72-1.146-1.453-2.285-2.128-3.458 1.292.484 2.283 1.081 3.265 2.065 1.028-1.948 1.868-3.881 2.302-6.054.246-1.234.368-2.504.663-3.726 3.958.425 7.405.523 11.307-.404-.517-1.234-.901-2.529-1.25-3.82 1.053.765 1.885 1.547 2.511 2.715 1.818-1.818 3.384-3.879 4.528-6.189.542-1.094.98-2.26 1.573-3.325 2.515.586 8.886 2.159 11.134 1.273l.054-.062a1.7 1.7 0 0 0-.165-.544c-.323-.688-.167-2.413-.158-3.2.416.818.928 1.63 1.311 2.456.15.321.22.666.373.988 1.474-.19 4.23-3.352 5.158-4.547.938-1.206 1.71-2.53 2.604-3.766 1.311.564 2.516 1.38 3.77 2.061 2.159 1.172 4.367 1.923 6.751 2.487-.037-1.353.123-2.443.602-3.713.451 1.178.776 2.3.931 3.553a19 19 0 0 0 5.478-3.192c.746-.616 3.385-3.44 4.038-3.565 1.089.724 2.02 1.678 2.989 2.55 1.886 1.697 4.09 3.344 6.451 4.317.247-1.49.714-2.675 1.349-4.044.216 1.425.355 2.707.277 4.145 2.463-.566 4.737-1.279 6.974-2.488 1.17-.633 2.29-1.409 3.474-2 .954 1.077 1.654 2.355 2.456 3.544 1.316 1.951 3.072 3.666 4.984 5.029.56-1.378 1.335-2.622 2.243-3.799-.1 1.45-.2 2.82-.596 4.227 2.532-.067 4.968-.195 7.43-.86 1.276-.345 2.511-.824 3.78-1.19 1.793 3.608 2.707 6.536 5.524 9.624.813-1.174 1.718-1.883 2.857-2.728-.444 1.25-.887 2.367-1.605 3.485l.236.092c2.512.948 6.582 1.332 9.207.956.558-.08 1.495-.34 1.815.27.496.944.594 2.175.904 3.197q.275.879.61 1.737.336.858.728 1.69.393.833.842 1.637t.951 1.576c.858-1.28 1.853-2.135 3.16-2.942-.629 1.434-1.411 2.701-2.27 4.005 3.531 1.682 6.678 2.281 10.58 2.228.005 3.479-.101 6.539 1.056 9.892 1.304-.659 2.611-1.227 3.963-1.78-1.066 1.187-2.156 2.359-3.142 3.615 2.14 1.397 4.276 2.759 6.673 3.683.945.365 2.615.453 3.271 1.233-.413 3.323-1.292 6.473-1.137 9.87 1.647-.272 3.29-.451 4.95-.619-1.381.826-2.798 1.645-4.24 2.362 1.663 2.405 3.794 4.34 6.471 5.553.834.377 2.883.895 3.47 1.417.129.115.135.233.119.4-.086.924-2.013 4.678-2.469 5.839-1.415-1.44-3.036-2.65-4.613-3.906-1.439-1.148-2.845-2.335-4.303-3.459-.961-3.569-2.914-7.097-4.7-10.313q-.39-.702-.792-1.398-.403-.695-.816-1.383-.415-.689-.84-1.37-.426-.681-.863-1.356-.437-.673-.885-1.34t-.908-1.326-.93-1.31q-.471-.65-.953-1.294-.481-.643-.974-1.278-.492-.634-.995-1.26-.503-.627-1.017-1.245t-1.037-1.227-1.058-1.209-1.078-1.19-1.099-1.173-1.118-1.155-1.137-1.134-1.156-1.116q-.583-.552-1.175-1.096-.592-.542-1.194-1.075-.6-.533-1.21-1.056-.611-.522-1.23-1.035-.619-.511-1.246-1.013-.628-.502-1.263-.993-.637-.491-1.28-.971-.645-.48-1.297-.95-.652-.469-1.312-.927t-1.327-.905-1.343-.883-1.357-.859-1.372-.837-1.385-.813q-.957-.553-1.927-1.082t-1.952-1.034-1.977-.986-2-.938-2.023-.889-2.044-.839-2.064-.789-2.082-.738-2.1-.687-2.116-.636q-1.062-.304-2.131-.584-1.069-.278-2.145-.531-1.075-.253-2.156-.479-1.082-.227-2.168-.426-1.087-.2-2.178-.373-1.091-.174-2.186-.32t-2.193-.267-2.2-.212-2.203-.16q-1.103-.065-2.207-.104-1.104-.04-2.209-.052t-2.209.004-2.209.056-2.206.11q-1.103.07-2.204.166-1.1.095-2.198.218-1.098.122-2.193.272-1.095.149-2.185.325t-2.177.379-2.166.431-2.156.485-2.143.537c-22.76 6.177-43.436 21.669-55.18 42.192-1.252 2.188-2.5 4.448-3.52 6.755-.536 1.213-.819 2.64-1.526 3.757-1.14 1.8-2.914 3.326-4.27 4.986-1.935 2.37-3.944 4.652-5.926 6.981-5.802 6.823-11.899 13.433-19.828 17.83-1.062.588-5.588 2.424-6.088 3.127-.203.285-.238.743-.265 1.08-.114 1.39.013 2.887 0 4.29 7.316-.36 14.702-.362 22.028-.462q21.325-.34 42.652-.226l27.836-.044c4.727-.008 9.508-.166 14.23.02 1.161.046 8.184.859 8.984 1.22l-.115.242c-.572.2-1.6.007-2.247.031-6.838.252-13.663.266-20.504.298q-31.593.321-63.188.162-8.163-.137-16.326-.114c-1.996.002-4.56-.282-6.461.157-.34.078-.725.181-1.076.153-1.38-.11-4.127-1.075-5.297-.031-.428.788-.224 1.866-.18 2.734 1.987.242 4.013.172 6.01.165q4.185-.008 8.37-.061c4.055-.039 8.173.175 12.218-.033 1.975-.102 3.923-1.067 5.878-.987.902.037 1.794.372 2.688.514 1.551.246 3.178.285 4.749.338 4.888.168 9.801.08 14.693.103q14.179.107 28.359.027c10.193-.033 20.395.268 30.585.12 1.913-.028 3.785-.54 5.682-.56 1.573-.015 2.815.965 4.35.99 5.972.094 11.917-.537 17.885-.541l52.584-.104c14.846.068 29.731.42 44.575.078.02-.856.21-2.114-.05-2.915-1.57-.538-9.566-.203-11.977-.197l-20.927.082q-29.939.159-59.878.001c-6.45-.031-12.92.006-19.369-.145-2.994-.07-6.02-.431-9.009-.372 7.578-1.393 15.441-1.315 23.124-1.317q9.644-.053 19.287.094l32.714.144c6.286.019 12.58.139 18.865.102-3.024-2.882-5.762-5.899-8.135-9.344-1.356-1.97-2.544-4.103-3.987-6.007-1.99-2.624-4.743-4.56-6.793-7.141-1.368-1.722-2.312-3.714-3.443-5.588-.764-1.264-1.686-2.443-2.567-3.627-.952 1.048-1.755 2.23-2.233 3.571q.046.06.09.121c1.191 1.622.25 2.23.51 3.302.138.574.609.193.449 1.024-.253 1.313-2.58 5.382-3.43 6.366l-.132-.02c-.265-.545.163-1.824.158-2.505-.019-2.435-.765-5.353.035-7.67.715-2.072 1.858-3.923 2.361-6.074-1.284-2.073-2.986-3.901-4.234-5.998 1.936 1.35 7.886 7.883 9.296 9.938 1.733 2.525 3.008 5.128 5.123 7.405 2.283 2.46 5.165 4.43 7.836 6.449 1.277.965 2.7 1.894 3.742 3.122 1.334 1.573 2.376 4.387 3.583 6.232q1.316 2.001 2.799 3.883c.673.844 1.444 1.669 2.042 2.565l24.59.036c-.03-1.358.244-4.492-.754-5.465-1.09-1.064-2.932-1.678-4.295-2.39-1.358-.709-2.775-1.552-3.964-2.52-6.039-4.917-11.472-10.586-17.484-15.536-2.318-1.908-4.788-3.663-7.19-5.466l-7.473-5.72c-1.494-1.135-3.048-2.214-4.486-3.419-2.633-2.205-4.871-4.716-7.205-7.221-2.214-2.377-4.503-4.745-6.874-6.965-1.215-1.139-2.466-2.419-3.855-3.34q-.275 3.025-.27 6.062c.773.737 1.382 1.608 2.014 2.463 2.795 3.781 2.046 5.286 2.803 9.605.03.172.006.312-.038.479l-.203.156c-.878-.334-1.725-2.727-2.115-3.597-.916-2.041-1.552-4.187-2.604-6.17-.251 2.369-1.692 4.5-1.891 6.824-.146 1.699.817 3.385.67 5.083-.181 2.083-1.546 3.992-1.831 6.069-.243 1.766.297 3.937.226 5.803-.128 3.345-1.295 6.819-2.112 10.065l-.173.073c-.6-.771.363-7.147.317-8.588-.047-1.465-.45-2.935-.76-4.362-.596.752-1.184 1.503-1.675 2.33-.787 1.325-3.139 6.654-4.181 7.13-.277-.82 1.623-5.833 2.086-6.75.874-1.728 2.336-2.967 3.497-4.485 1.357-1.776 2.489-6.063 2.474-8.308-.008-1.179-.343-2.345-.625-3.482.747-1.59.64-3.692.91-5.42.238-1.53.707-2.982 1.31-4.405-2.746 2.294-5.969 4.526-8.068 7.454-.841 1.172-1.456 4.077-2.086 5.566-1.412 3.334-3.263 6.441-4.869 9.676-.754 1.517-2.059 4.846-3.01 6.055-.249.317-.374.309-.766.338-.168-.119-.247-.119-.296-.337-.225-1 1.911-5.625 2.494-6.651.84-1.478 1.996-2.851 2.695-4.4.82-1.814.293-2.356.635-3.496.53-1.774 2.65-5.251 3.772-6.816.635-.884 1.308-1.81 2.07-2.589 2.079-2.125 7.114-6.23 8.309-8.726.354-.739.377-1.727.424-2.532-4.195 1.388-6.744 4.61-9.801 7.607-1.049 1.027-2.281 1.967-3.22 3.087-.876 1.047-1.546 2.346-2.299 3.492-1.59 2.425-3.29 4.702-4.589 7.313-1.562 3.144-2.25 6.683-4.052 9.713.583-4.63 2.1-8.882 3.836-13.188l-9.064 6.87c-.546.41-1.138 1.126-1.754 1.365l-.11-.118c.227-.792.601-1.219 1.17-1.793 3.465-3.496 7.413-6.519 11.041-9.847.987-.907 1.916-1.872 2.914-2.769 1.135-1.02 2.32-1.973 3.422-3.033 2.888-2.783 6.378-6.904 9.808-8.814 1.26-.703 2.507-1.101 3.917-1.366 2.46 1.159 9.217 9.051 11.626 11.546a111 111 0 0 0 5.383 5.182c5.763 5.213 12.492 9.143 18.57 13.944 5.315 4.197 10.034 9.04 15.192 13.405 2.001 1.693 4.172 3.171 6.275 4.729 1.245.922 2.325 2.11 3.705 2.838.615.325 1.15.503 1.846.448l.213-.154c-.066-.471-.46-.805-.827-1.076-1.574-1.16-3.402-1.915-5.072-3.22.918-.792 1.832-1.6 2.778-2.36.763-.613 1.681-1.163 2.333-1.89l-.045-.186c-2.14.278-4.915 2.257-6.278 3.873q-2.215-1.865-4.546-3.582c3.228-1.895 6.695-3.084 10.227-4.267-.419-3.043-.958-6.133-1.759-9.1-6.44.516-12.782.011-18.098-4.092 1.13-1.517 2.135-3.152 3.344-4.605 2.513-3.02 6.302-4.999 9.775-6.74q-1.817-4.611-3.917-9.1c-4.929 1.776-8.947 2.127-14.13 1.06-1.125-.231-2.393-.462-3.447-.933a1.36 1.36 0 0 1-.57-.428c-.204-1.973 3.254-6.802 4.455-8.292 1.63-2.02 3.508-3.87 5.43-5.613-1.469-2.349-2.946-4.8-4.719-6.937-4.62 2.573-8.517 3.895-13.86 4.065-.86.027-1.937.171-2.758-.07-.333-.097-.57-.249-.725-.57-.66-1.363 1.31-7.53 1.955-8.921 1.07-2.305 2.63-4.46 4.242-6.419-1.621-1.817-3.356-3.453-5.156-5.09-4.303 4.152-10.405 6.797-16.43 6.891-1.001-5.916.48-11.537 3.18-16.785-2.583-1.62-5.203-3.327-7.96-4.644-2.329 3.864-5.063 6.484-9.114 8.512-1.329.665-2.716 1.27-4.163 1.622l-.164.038c-2.67-5.951-3.337-10.73-1.532-17.06-2.615-.937-5.315-1.719-7.979-2.504-1.702 4.489-5.231 8.536-9.15 11.252-.565.392-1.177.905-1.806 1.182-.28.123-.358.11-.638.037-.69-.649-1.208-1.565-1.69-2.375-2.095-3.522-3.306-7.372-3.43-11.48q-.028-1.097.001-2.196c-2.59-.528-5.435-.76-8.076-.835-1.39 5.673-3.924 11.09-8.61 14.782-4.962-3.7-7.788-9.051-9.353-14.918-.46.027-.94.026-1.396.086m5.58-.132c.762 3.006 2.804 5.494 5.06 7.539 1.78-1.907 3.221-3.78 4.299-6.177.17-.428.303-.749.284-1.213l-.13-.112c-.658.244-1.364 1.966-1.845 2.596-.804 1.054-1.72 2.034-2.623 3.003-.847-.84-1.717-1.672-2.502-2.57-.564-.645-1.882-2.831-2.543-3.066m-16.863 1.727c-.398 2.39-1.398 4.12-2.554 6.216-1.365-.871-2.721-1.76-3.922-2.853-.735-.669-1.35-1.477-2.141-2.072.321.778.687 1.497 1.15 2.201q.272.367.563.718.292.351.602.686.31.334.64.65.328.317.674.614.346.298.709.575.362.278.739.535.376.257.767.492.391.236.795.45c.903-1.646 2.965-5.904 2.503-7.707-.05-.192-.062-.199-.142-.352zm42.61.699c.192 2.676 1.46 5.127 2.935 7.312 2.147-1.012 3.979-2.693 5.434-4.552.41-.555.773-1.09 1.097-1.703-2.07 1.37-3.89 3.061-5.993 4.406-.514-.697-3.025-5.376-3.103-5.429zm24.232 6.225c-.869 2.802-.036 5.981 1.279 8.502 2.284-.867 4.18-1.845 5.858-3.656.436-.506.817-1.003 1.179-1.567q-3.067 1.843-6.23 3.519c-.752-1.73-1.233-3.585-1.619-5.43-.055-.26-.096-.9-.222-1.11-.06-.102-.163-.172-.245-.258m-90.814.342c-.1 1.023-.11 2.013-.312 3.026-.265 1.326-.716 2.63-.901 3.968-2.367-1.051-4.245-1.773-6.297-3.389l-.18.088c.015.609.564 1.059.968 1.474 1.917 1.748 3.921 2.691 6.326 3.588.876-2.387 1.755-6.12.702-8.545zm113.43 11.798c-1.145 1.478-1.651 4.224-1.418 6.041.103.81.294 1.62.462 2.418 2.302-.382 4.484-.77 6.452-2.106.63-.43 1.24-.846 1.8-1.367-2.402.666-4.779 1.4-7.195 2.017-.287-1.923-.275-3.64-.06-5.567.043-.393.247-1.148-.042-1.436m-135.404.331c.119 2.252.207 4.414-.226 6.64-.834-.024-1.622-.078-2.438-.26-.864-.194-3.707-1.374-4.242-1.211l-.057.111c.322.508 1.012.905 1.531 1.194 1.282.69 4.597 2.163 6.024 1.698.213-.07.278-.136.392-.334.754-1.303.142-5.796-.44-7.213-.142-.348-.205-.461-.544-.625m153.714 15.077c-2.194 2.158-3.192 4.974-3.242 8.026 2.39.275 4.704.384 6.936-.668.797-.398 1.505-.797 2.208-1.35-2.468.466-5.017.918-7.535.815.213-1.245.254-2.498.602-3.72.23-.808 1.087-2.334 1.096-3.028zm-171.544.04c-.09 1.07.446 2.421.634 3.502.186 1.076.259 2.151.3 3.242-1.558.19-3.125.38-4.698.264-.64-.047-1.835-.41-2.377-.169l.019.193c.483.332 1.004.52 1.546.733 2.289.572 4.725.916 7.045.3.008-2.135-.643-6.224-2.079-7.858-.111-.126-.235-.162-.39-.208M27.271 64.8c.344.82.835 1.562 1.246 2.35.64 1.226 1.08 2.459 1.46 3.785-2.177.745-4.064 1.216-6.377 1.019-.396-.034-.427-.1-.738.156l-.013.246c.42.398 1.136.474 1.69.578 1.742.326 5.192.237 6.699-.678a.68.68 0 0 0 .36-.527c.212-1.435-1.853-4.599-2.771-5.687-.395-.466-.917-1.177-1.557-1.243m201.55.318c-2.683 1.87-3.787 4.243-4.759 7.306 2.578.532 5.17 1.152 7.754.267.498-.208 1.116-.393 1.522-.753-.228-.229-.445-.257-.761-.273-.692-.035-1.444.086-2.139.127-1.585.092-3.102-.005-4.647-.384.617-1.714 1.339-3.43 2.364-4.943.212-.311.81-.98.702-1.321zM15.967 87.71c.507.743 1.151 1.358 1.728 2.043a17 17 0 0 1 2.318 3.615c-1.061.63-2.084 1.184-3.264 1.558-.928.293-2.778.308-3.445.889l-.024.188c.683.44 1.84.287 2.62.248 2.384-.235 4.295-.797 6.38-1.984-1.14-2.397-3.347-5.542-5.98-6.483-.154-.055-.19-.055-.333-.074m223.824.28c-2.84 1.616-5.004 3.513-6.452 6.492 2.618 1.154 5.383 2.452 8.256 2.746.507.01 1.08.065 1.518-.243l.1-.252c-.22-.314-.427-.518-.81-.591-.742-.143-1.506-.166-2.244-.326-1.626-.353-3.302-1.173-4.802-1.889.815-1.23 1.606-2.505 2.618-3.586.676-.721 1.699-1.266 2.08-2.191-.188-.173-.09-.143-.264-.16M9.258 113.336c.577 1.207 4.018 3.37 5.246 4.618-.937.699-1.881 1.359-2.895 1.942-.848.487-2.043.938-2.762 1.576-.22.196-.415.47-.466.763-.034.194.062.228.176.367.478.083.716-.018 1.167-.192 2.297-1.258 4.548-2.97 6.405-4.827-1.534-1.525-4.654-3.992-6.87-4.247m213.24 21.756c.673 1.54 3.501 2.202 4.85 3.18 2.675 1.941 4.772 4.7 7.936 5.932 2.842 1.105 4.905-.552 7.537-1.296.971-.274 2-.275 2.963-.545-1.582-.227-3.241-.054-4.8.25q-.478-1.196-.941-2.398c-.623-.236-1.494-.698-2.147-.389-.311.147-.491.379-.592.706-.211.683-.165 1.551-.192 2.266-.844-.304-1.51-.595-2.199-1.187-.42-.804-.19-2.255.045-3.107.25-.903.903-1.725 1.744-2.135a2.77 2.77 0 0 1 2.24-.112c1.387.508 2.376 1.717 3.643 2.42 1.221.677 2.708.84 4.002 1.373.124-1.107.292-2.226.326-3.338-1.04.021-2.081.053-3.113-.1-2.135-.315-4.228-1.06-6.404-1.03-2.903.042-5.75 1.54-8.624 1.365-2.188-.133-4.082-1.828-6.273-1.855m-180.101.374c-3.84.142-6.739 1.592-9.795 3.79.803.88 1.508 1.837 2.305 2.719 1.637 1.811 3.633 3.31 5.726 4.555.88-.62 1.799-1.215 2.636-1.89-1.576-.092-3.086-.601-4.158-1.822-.488-.556-.844-1.281-.747-2.038.09-.695.596-1.268 1.138-1.67.799-.593 1.693-.878 2.633-1.147 1.24.324 2.263.724 2.946 1.896.776 1.333.631 3.152.212 4.59-.224.77-.55 1.65-1.099 2.241-.15.161-.297.321-.45.478.736.65 1.437 1.28 2.041 2.057l-.087.137c-1.515 2.4-1.922 4.352-4.653 5.773 3.773-.9 6.962-2.829 9.914-5.3-1.541-2.693-2.317-5.08-2.39-8.2-.019-.81-.06-1.695.128-2.49.253-1.066 1.492-1.998 2.404-2.516.939-.534 2.111-.618 3.142-.319.279.081.55.185.823.285.682.39 1.124.723 1.353 1.504q.034.115.056.233t.031.237q.01.12.005.24-.003.12-.02.238-.016.119-.045.235-.029.117-.07.229-.041.113-.094.22-.053.108-.117.209c-.417.655-1.17 1.055-1.916 1.201-.32.062-.55.06-.864-.043-.234-.23-.342-.362-.37-.702-.042-.534.307-1.06.486-1.545-.4-.142-.943-.407-1.35-.22-.487.226-.988.676-1.426.996-.355.86-1.195 1.964-.849 2.885.247.655.958 1.06 1.57 1.31 1.428.58 2.87.615 4.384.493 1.401-1.368 2.38-3.146 3.833-4.431l.055-.051c-.49-.51-.922-1.101-1.073-1.805l.08-.222c.586-.087 1.516.557 2.112.753l.195-.058c1.44-.436 3.68-2.194 5.144-1.728.134.159.205.175.2.4-.022.829-1.232 1.896-1.794 2.476 2.109.743 5.417 3.187 7.168 3.377.656.072 1.288-.113 1.87-.407 1.446-.732 2.852-2.09 3.84-3.353-.53-1.162-1.373-2.229-2.095-3.281q-6.728-.279-13.461-.22c-3.505-.003-17.319.566-19.507-.299m-22.147.069c-1.493.25-2.665.959-3.545 2.211-.736 1.049-.94 2.164-1.039 3.411-.462.3-.905.705-1.393.946-1.28.63-3.025.37-4.43.67l-.171.037-.103.023c1.117.125 2.296.073 3.39.297.994.203 1.981.577 2.955.865 3.35.99 5.503.434 8.266-1.634.598-.487.822-.685.891-1.462.075-.84.02-1.852-.555-2.525-.606-.707-3.85-1.102-4.846-1.112-.271-.002-.316-.003-.54.164.744.708 2.68.329 2.747 1.816.025.562-.264 1.119-.66 1.502-.265.259-.61.46-.99.473-.34.011-.607-.14-.841-.373-.744-.74-.8-2.413-.847-3.413 1.726-1.4 3.2-1.371 5.331-1.322-1.234-.473-2.296-.666-3.62-.574m102.384.142c-3.456.27-6.92.258-10.383.215 1.033.674 1.69 1.733 1.916 2.953.126.68.036 1.327-.388 1.887-.31.41-1.206 1.102-1.726 1.175-.171.024-.186.011-.334-.017-.602-.925.794-3.459-.753-3.804-.362-.082-.755.044-1.045.263-1.082.816-.275 2.991-1.226 3.565-.64-.201-1.031-.7-1.338-1.282a2.77 2.77 0 0 1-.207-2.19c.212-.671.914-1.412.945-2.08-.233-.314-.452-.395-.836-.462-1.512-.26-5.716-.197-7.013.57l-.165.255.188-.184-.158.062c-.007.976 3.054 4.045 3.814 4.822 1.533 1.569 3.235 2.801 5.515 2.812 1.276.007 2.59-.347 3.731-.908 1.912-1.141 3.828-2.775 5.266-4.476-.59-.59-1.837-1.593-1.897-2.452.248-.167.27-.139.552-.077.701.154 1.4.537 2.034.863q1.973 1.002 3.761 2.308c1.442 1.05 2.674 2.191 4.351 2.86 3.812-.951 6.762-3.648 9.712-6.093-1.143-.11-4.386-.569-5.283-.028-.323.476-.345 1.036-.511 1.575-.346 1.116-1.237 2.138-2.092 2.898q-.78.127-1.556.275c-1.293-.75-2.695-1.951-3.125-3.43-.192-.662-.07-1.283.032-1.947-.585.016-1.205-.011-1.782.072m79.026-.024c-1.624.373-3.03.843-4.147 2.164l-2.29-.377c-.632.254-1.249.432-1.619 1.051-.007.462.351.83.654 1.142 1.38 1.416 2.88 2.882 4.4 4.141 1.385 1.148 2.865 2.184 4.245 3.338-1.278-1.871-2.316-4.272-2.552-6.52.522-1.063.954-1.904 2.17-2.29.855-.27 1.787-.136 2.562.3.781.441 1.402 1.173 1.633 2.048.225.852.055 1.922-.401 2.675-.386.637-1.171 1.263-1.714 1.785.775.949 1.492 1.982 2.022 3.088-.169 1.721-1.619 5.589-2.944 6.678-.393.322-.953.486-1.415.694.618.001 1.28.034 1.887-.086 2.826-.555 5.947-3.004 7.927-4.984q.129-.129.255-.261c-.541-.786-1.013-1.599-1.482-2.429-1.257-2.45-1.467-4.55-1.498-7.297 1.004-1.7 2.384-3.69 4.408-4.227.94-.25 1.9-.088 2.718.438.885.57 1.632 1.566 1.846 2.606.102.494.08 1.037-.21 1.467-.597.887-2.166 1.302-3.075 1.8.254-.993.783-2.454.115-3.391-.191-.27-.445-.38-.767-.408-.613-.052-1.298.512-1.678.93a4.6 4.6 0 0 0-1.111 2.064c.242 1.031.536 1.971 1.478 2.593.713.47 1.616.55 2.434.356 2.5-.592 5.49-4.155 7.843-5.573-.342-.854-.666-1.68-1.166-2.457-2.07-.413-6.427-1.18-8.399-.888-1.646.243-3.07.956-4.783.876-2.802-.13-4.32-1.343-7.346-1.047m-122.902.162-.6.079c-.148.249-.15.143-.086.394.31 1.226 2.01 2.324 2.707 3.41.855-.346 2.771-1.511 3.613-1.324 1.925 2.415 1.121 5.506 5.282 5.928 1.47.149 2.689-.469 3.774-1.405.485-.418.96-.865 1.404-1.329 1.614-1.943 3.009-4.215 5.183-5.583-2.784-.079-5.564-.049-8.347-.097-4.316-.076-8.612-.233-12.93-.073m-44.484.121q-4.684.028-9.368.112c1.409 1.594.146 4.211.926 4.992 1.786-1.433 3.592-2.986 5.653-4.012.817-.406 2.906-.664 3.373-1.088-.194-.006-.39-.023-.584-.004m-21.01.357c-1.528.254-3.075.6-4.625.637.035 1.151.078 2.303.222 3.447.412-.245.827-.53 1.275-.702 2.076-.859 3.884-1.799 5.436-3.462-.77-.002-1.544-.028-2.308.08m112.714.006c-.131.287-.21.51-.113.828.208.682 1.231 1.301 1.783 1.721l1.576-.604c.331-.262.548-.453.749-.828-.025-.338-.013-.398-.294-.624-.816-.653-2.704-.553-3.701-.493m110.188 1.655c-.202.267-.448.473-.413.835.008.084.057.185.09.262.185-.37.41-.635.338-1.055q-.006-.022-.015-.042m-19.866.108c.226.466.428 1.022.808 1.38-.124-.476-.192-1.08-.674-1.326-.043-.022-.09-.036-.134-.054m19.462 1.497c-.02.535-.096 1.1.067 1.616l.17.135c0-.578.053-1.234-.237-1.751m-.409.344c.035.035.061.097.111.099zm-33.471.285h.18zm-66.958.238.002.076.033-.008.024-.082zm-93.275.5-.075.182.139-.028.086-.19zm.666-.056.07.038zm136.787-.003.115.04zm.474.207-.07.344.171-.214.13-.237zm24.822-.137h.111zm-28.554.183c-.768.466-1.652.835-2.375 1.352-.872 2.713-1.64 5.083-3.742 7.13.815.895 1.78 1.679 2.706 2.458 2.43 2.043 4.835 3.887 8.138 4.034 1.814.08 6.913-1.169 8.163-2.302q.264-.244.501-.513c.011-.519-.016-1.115.19-1.599.279-.655 2.073-2.767 1.577-3.305-1.307-.095-2.909 2.394-3.999 1.255-.496-.519-.819-1.702-1.042-2.393 2.12-.197 2.02-1.512 4.355-1.833l.154.031c.64.138 1.387.515 2.01.573.795.075 2.547-.444 3.203-.887.175-.118.176-.13.303-.259l.016-.215c-.456-.46-.984-.796-1.459-1.228-.964-.877-1.482-1.504-2.71-2.013-2.135.782-3.912 2.678-5.667 4.08-.725.58-1.556 1.1-2.212 1.755q-.305.306-.558.658-.252.352-.445.74c-.211.435-.406.999-.23 1.48.51 1.395 2.167.988 1.221 3.21-.361.85-1.562 2.157-2.458 2.456-.483.16-.95.064-1.384-.186-1.766-1.016-3.05-4.084-3.487-5.97-.099-.43-.14-.873-.188-1.31l-.017-.147c.56-1.077 1.153-2.003 1.288-3.238-.84-.576-1.516-1.099-1.752-2.155-.091-.412.12-1.43-.1-1.659m-132.27.121-.816.308-.05.155.086.088c.334-.096.713-.116.922-.4zm159.758-.072-.167.361c.155.299.17.328.465.489l.27-.067.067-.11.02-.252-.277.155-.08-.13.118-.307c-.14-.054-.268-.11-.416-.14m-24.737.145.32.529c.224.002.14.028.263-.024-.194-.305-.259-.337-.583-.505m1.582.426.083.072zm-119.002.194c-1.597 2.467-3.251 4.93-5.5 6.86l.129.155c1.975 2.39 2.645 5.562 6.296 5.888 1.183.106 2.306-.17 3.44-.465.118-.615.485-1.519.438-2.107-.97.027-.683.65-1.72-.315l-.146.201c-.5-.056-1.03-.658-1.326-1.036-.567-.724-.943-1.656-.797-2.585.142-.9.72-1.53 1.448-2.035.897-.623 1.838-.953 2.629-1.74.126-.126.26-.248.388-.372-1.813-.694-3.447-1.826-5.279-2.449m19.956.294c-1.807.922-3.599 1.824-5.494 2.556 1.629.924 3.822 1.898 4.42 3.838a2.1 2.1 0 0 1-.171 1.67c-.69 1.252-2.145 1.749-2.983 2.857.263-.103.408-.177.691-.185.034.28.045.266-.121.49-.247.037-.447.02-.694-.013-.066.07-.153.144-.204.227.547.53 1.379.597 2.118.569 2.907-.114 5.348-3.058 7.648-4.548-.49-.63-.99-1.255-1.364-1.963-.94-1.78-1.236-3.83-2.962-5.099-.15-.11-.452-.347-.636-.385-.081-.016-.165-.009-.248-.014m53.518.172c-1.22.297-2.17.729-3.18 1.48 2.524.786 3.881 1.65 5.811 3.448-.498.69-1.028 1.373-1.49 2.087.318.869.589 1.733.827 2.627-.336.09-.676.171-1.001.295-.781-.336-1.916-.582-2.354-1.327l-.08.02-.115.197.362-.177c-.144.193-.128.237-.37.308.063.616.22 2.275.685 2.659.194.16.439.29.656.417.405.121.81.251 1.22.354 2.99-.765 5.282-3.03 7.37-5.204-1.687-1.684-2.939-3.97-4.75-5.465-.523-.432-2.863-.978-2.787-1.492.011-.078.04-.153.059-.23-.323-.078-.54-.037-.863.003m-15.555.094c-.984 1.062-1.711 2.313-2.661 3.396-1.274 1.454-2.748 2.734-4.005 4.202 1.907 1.942 4.505 4.369 7.386 4.374.59.001 1.118-.068 1.667-.289l.225-.259c-.084-.394-.322-.5-.648-.712l-.111-.07-1.233-.916a14.6 14.6 0 0 1-1.918 1.591c.814-1.353 1.887-2.579 2.487-4.046-.617-.741-1.354-1.43-1.258-2.477.052-.577.451-1.04.894-1.377 1.329-1.009 3.096-1.419 4.56-2.204-1.755-.842-3.428-1.185-5.385-1.213m-90.253.232c-2.443 1.623-5.562 4.173-7.283 6.604 2.377 3.01 4.57 4.453 8.288 5.528.254.08.583.237.847.21-1.386-1.525-3.175-4.025-3.038-6.193.043-.677.366-1.442.911-1.868 1.18-.923 3.89-1.395 4.714-2.477l-.097-.178-.252.015c-1.057.056-3.07-1.178-4.09-1.64m199.334.023c-1.265.458-2.849 1.108-4.184.482-.155-.073-.25-.214-.35-.346-2.04 1.387-3.348 3.256-5.189 4.825-.726.619-1.708.896-2.342 1.617.162.627 1.383 1.193 1.92 1.508 2.25 1.324 4.203 3.043 6.833 3.49-1.02-2.018-2.06-3.765-2.576-5.987l1.046-1.114c.466-.414.892-.748 1.448-1.043 1.064.093 2.127.18 3.135.558.605.667 1.053 1.31 1.02 2.247-.059 1.657-1.735 3.927-2.935 5.006a6 6 0 0 1-.349.286c2.661-.232 5.124-.64 6.927-2.841.626-.764.983-1.621 1.325-2.533-.663-1.082-4.856-5.856-5.73-6.155m18.012-.03c-1.02.972-2.15 1.663-3.345 2.397-.696 1.715-2.464 3.533-3.753 4.852.816.912 1.728 1.608 2.737 2.292.822.516 1.68 1.008 2.47 1.573.254-.975.543-1.954.723-2.945-.34-.32-.667-.574-.825-1.025.08-.952.884-1.965 1.27-2.84.537-1.218.827-2.841.853-4.166zm-236.89.116c.006.88.18 1.75.43 2.59 1.618.648 2.641 1.946 3.535 3.409-.731 1.088-1.618 2.031-2.477 3.017l.495 2.033q1.25-.801 2.548-1.521c1.301-.774 2.544-1.506 3.607-2.603-.394-.723-.698-1.682-1.169-2.33-1.231-1.694-5.109-3.325-6.97-4.595m91.907.032c-.62.248-1.33.587-1.631 1.228-.181.387-.118.789.051 1.165.765 1.7 3.562 2.882 2.859 5.081-.37 1.158-1.47 1.866-2.459 2.452.026.548-.023 1.163.273 1.64.312.253.532.367.945.329.766-.07 1.827-.652 2.51-1.022 1.85-1.052 3.521-2.226 5.096-3.658-1.055-1.137-6.257-7.176-7.433-7.214zm55.155.263c-2.848.916-7.412 4.809-9.259 7.177 2.606 2.423 6.233 3.881 9.67 4.609l-.093-.126c-1.24-1.647-3.616-3.227-3.339-5.575.1-.85.615-1.64 1.289-2.151.39-.297.771-.445 1.247-.546.198.061.22.012.284.18.197.525-.283 1.29-.034 1.724.244-.153.237-.152.284-.427.074-.425.026-.914.017-1.346l.015-.159c.075-.838-.186-2.565.356-3.183.389-.048.53.103.867.29.4.658.128 1.858.168 2.652.996.96 1.918 1.876 1.975 3.354.054 1.4-.729 2.376-1.237 3.589-.225.539-.282 1-.64 1.493l-.124.177-.083.115c2.093-1.004 6.555-2.882 7.423-5.224-.605-1.011-4.961-5.282-6.024-6.068-.247-.183-.468-.242-.763-.32-.587-.154-1.413-.38-1.999-.235m-59.168.082c-2.535 1.816-4.519 4.233-6.93 6.198 1.772 1.582 3.609 2.696 5.701 3.79.722.359 2.133 1.118 2.914.975.167-.28.201-.448.136-.775-.23-1.156-2.267-2.293-2.939-3.352-.119-.188-.238-.374-.35-.567l.074-.168c.64-1.41 3.327-3.688 2.6-5.328-.157-.353-.48-.585-.843-.69-.119-.034-.241-.057-.363-.083m-12.032.976h.152zm93.422.725-.174.533.288-.15.26-.106c-.123-.099-.237-.198-.374-.277m25.384.702.124.04zm-6.613-.024c-.801.5-1.592 1.003-2.356 1.56l1.205 1.08q-1.19 1.995-2.334 4.019c.23.938.438 1.729 1.308 2.281.773.491 1.945.639 2.844.732.811.082 1.587.102 2.402.076-.672-.802-1.682-1.804-1.582-2.946.068-.77.633-1.326 1.213-1.77q.446-.338.899-.666c-.123-1.474-.912-2.469-2.026-3.401-.414-.346-1.03-.917-1.573-.965m-162.008.228-.13.16c-.19.23-1.48 1.478-1.474 1.535.088.805.787 2.154.301 2.861-.396.579-1.432 1.145-2.048 1.497.39.679 3.777 3.1 4.604 3.32l.178.042c1.89-.363 3.022-1.17 4.221-2.636-1.559-1.666-2.167-2.042-2.127-4.456-1.038-.889-2.211-1.876-3.525-2.323m52.482.145c-.354.24-.392.178-.798.113.325.537.917.943 1.391 1.349l1.033-1.394c-.567.028-1.064.048-1.626-.068m39.806-.128c-1.01.95-2.4 1.876-3.007 3.137 0 .338.076.547.195.857.44.12 1.156.234 1.405.649.393.655.338 1.424.111 2.124-.632 1.957-1.87 3.223-3.68 4.147 1.72.085 3.433.15 5.156.148 1.601-.002 3.224-.053 4.82.052-1.627-1.015-2.65-2.036-3.1-3.961a32 32 0 0 1-.338-1.712 36 36 0 0 1 2.119-2.538c-.98-.89-2.513-2.365-3.681-2.903m54.844.101h.146zm-127.199.125h.136zm109.077-.065c.805.832 1.882 1.341 2.943 1.772.469-.45.925-.913 1.45-1.3.125-.083.542-.303.601-.415-1.744.27-3.278.497-4.994-.057m-109.428.158c-.957.226-1.685.203-2.66.037l.581 1.146c.867-.053 1.648-.522 2.23-1.156zm15.736.178c-.663.55-1.338 1.287-2.15 1.587-.143.053-1.035.248-1.09.326-.066.093-.053.222-.08.332.491 1.811 3.69 2.489 2.06 5.231-.757 1.273-1.963 1.7-3.201 2.339 1.3-.018 3.914-.313 4.969-.199.164.018.287.135.41.231.861-.053 5.096-.102 5.567-.317-.08-.248-.157-.263-.38-.383-1.165-.628-2.613-.707-3.079-2.19-.479-1.525.435-3.165.836-4.61-.878-.688-2.726-2.48-3.862-2.347m-53.013.385c.426.602.796.97 1.547 1.104.62.11 1.256.001 1.873-.087-.514-.289-1.311-.168-1.892-.157-.477-.29-.997-.692-1.528-.86m173.032.524.13.07zm36.368.003.114.067zM75.61 148.312h.137zm-33.068.178.144.072zm55.28-.138c-.343.354-.627.626-.796 1.096.073.271-.002.184.162.304.35-.179.65-.289.831-.66-.008-.316-.035-.468-.197-.74m-32.12.102c-.277.226-.483.334-.615.67.053.102.093.206.177.285.201-.25.542-.534.547-.855zm159.332.237.009.23.099.032-.041-.237zm-183.08.184.076.044zm181.398-.062h.148zm.942 0h.127zm1.711.054.101.04zm-195.473.183-.096.181.16-.04.083-.177zm183.466.012h.163zm-183.857.355.026.07zm45.727-.08c-.491.659-.763 1.473-.917 2.273l.06.164c.225-.52 1.031-1.935.857-2.436m.698.441.115.102zm23.429.033-.041.15.064.02.045-.142zm-45.18.126h.121zm102.716.186.098.065zm-1.498.19h.153zm-91.716.359.068.08zm33.684-.11h.185zm27.58.357.06.083zm100.97.003.041.081zm-105.133.058c.674.554 1.626 1.064 2.529.989-.435-.527-1.846-.817-2.529-.989m-32.849.13c-1.968 1.681-3.838 3.41-5.968 4.895l8.629-.004c1.96.006 4.021.144 5.953-.21-2.863-1.648-5.84-2.825-8.614-4.681m90.476.167c.044.038.08.108.137.105zm25.067-.09h.138zm11.001.168c-2.516 2.003-4.726 3.626-7.768 4.76l8.355.014c2.52-.011 5.045-.054 7.565-.013-1.981-.77-3.828-1.721-5.573-2.939-.841-.588-1.68-1.338-2.579-1.822m-195.922.115c-2.278 1.901-4.947 3.364-7.36 5.098 3.255-.522 6.688-.3 9.982-.285 2.434.027 4.883.143 7.316.095-2.65-.758-5.024-1.831-7.385-3.257-.864-.522-1.638-1.228-2.553-1.651m33.409.013c-2.696 1.63-5.52 3.518-8.466 4.643q3.947-.124 7.895-.07c2.804-.007 5.603-.026 8.406.08-2.468-.574-4.317-1.828-6.275-3.406-.45-.362-1.038-1.037-1.56-1.247m114.704-.007c-2.982 2.128-4.868 3.422-8.437 4.47q3.785.09 7.57.057c2.616-.002 5.403-.197 7.996.126a23 23 0 0 1-2.867-1.608c-.865-.571-3.5-2.93-4.262-3.045m-21.74.12c-2.294 1.427-4.228 3.725-6.804 4.612 2.993.01 5.994-.13 8.99-.147q3.426-.009 6.852.059c-1.987-.6-3.997-1.383-5.815-2.394-1.006-.56-2.146-1.874-3.224-2.13m91.262.005c-1.628 1.061-3.244 2.085-5.03 2.872-1.394.614-2.847 1.074-4.26 1.64l7.22.057 8.767-.014c-1.035-.613-6.015-4.532-6.697-4.555m-55.81.315.027.058zm-114.088.079.133.067zm43.968.151c-2.04 1.204-4.1 2.389-6.335 3.198-.638.23-3.38.692-3.545.849 2.117.14 4.298.047 6.421.059 3.368.002 6.754.07 10.119-.053-2.793-.662-4.391-2.495-6.66-4.053m89.42.5.105.107.032-.001zm-18.9.917h.138zm5.993 2.125h.152zm2.224.329c-.287.19-.698.379-.824.713.658.452 4.627.416 5.597.419.198-.01.421.046.558-.105-1.42-.886-3.699-.942-5.33-1.028m-4.09.345.125.046zm-116.697 1.322-35.65.179c-6.981-.006-13.985-.107-20.963.048l.428 1.21 174.277-.075 38.058-.034 12.517-.004c.89 0 1.791-.045 2.679-.012.608.023 1.237.131 1.844.092a2.4 2.4 0 0 0 .945-.274c.247-.296.269-.633.332-1l-127.743.016c-15.568.04-31.162-.455-46.724-.146m-41.5 4.128-14.085.045.938 2.774 214.239-.015 12.998-.007c.36-.947.693-1.894.994-2.862zm113.409 7.356c-1.658.193-3.09.666-4.184 2.014-1.429 1.759-1.798 4.51-1.533 6.703.208 1.724 1.002 3.076 2.379 4.123 1.63 1.239 4.597 2.005 4.882 4.353.107.882-.067 1.987-.662 2.68-.39.454-1.034.693-1.623.702-1.159.018-2.09-.664-2.849-1.457q-.287-.302-.57-.608c-.8.914-1.634 1.814-2.395 2.76.872 1.549 2.171 2.657 3.905 3.137q.376.103.756.19c1.682.071 3.264-.03 4.597-1.206 1.538-1.356 2.356-3.913 2.442-5.919.086-1.988-.35-3.773-1.727-5.283-1.943-2.13-5.927-2.43-5.764-5.714.037-.75.297-1.548.878-2.052.45-.391 1.027-.502 1.608-.451 1.115.098 1.972.834 2.836 1.473a48 48 0 0 0 2.013-2.474c-1.028-1.462-2.129-2.53-3.967-2.857a7 7 0 0 0-1.022-.114m-76.324.517c-.476.52-.209 3.51-.204 4.327l4.522.096.007 19.5 3.495-.007.006-3.769c-.007-5.25-.148-10.531-.044-15.778l4.295-.057-.007-4.282c-3.952-.296-8.105-.143-12.07-.03m17.377-.066c-1.82 7.968-3.785 15.95-5.304 23.98l3.562.018c.329-1.887.77-3.745 1.128-5.624l4.837.001.372.05c.59.829.848 4.409 1.168 5.638q1.756.014 3.512-.038c-.728-4.556-1.815-9.06-2.774-13.572-.734-3.452-1.302-6.953-2.26-10.353-1.411-.114-2.826-.098-4.241-.1m16.207.055q-.191 5.537-.178 11.077c.006 2.112.184 4.316-.002 6.416-.048.542-.127 1.283-.517 1.699-.32.34-.9.514-1.357.503-.513-.012-.945-.27-1.272-.655-.583-.69-.827-1.542-1.086-2.387-.226 1.91-.564 3.863-.661 5.78.39.397.763.805 1.219 1.126 1.109.59 2.47.957 3.715.596 1.096-.318 1.894-1.216 2.416-2.196.513-.962.76-2.033.889-3.11.292-2.448.124-5.038.112-7.502l.003-11.385zm14.85.002q-.092 11.98-.021 23.959l3.347-.01c.01-2.092-.376-5.895.319-7.742.324-.861.902-1.669 1.394-2.445 1.456 3.308 2.441 6.811 3.748 10.179l3.639.003-1.029-3.072-2.69-7.394c-.493-1.353-.923-2.793-1.542-4.092a157 157 0 0 0 4.578-9.335l-3.845.01c-1.497 3.403-3.232 6.808-4.484 10.3q-.146-5.169-.114-10.34zm41.165.014-6.06.031q-.017 2.011.006 4.022c1.337.026 2.684.02 4.018.09l.016 19.745 1.428.018 2.064-.004v-19.744l3.974-.03c.006-1.373.04-2.75-.003-4.122-1.807-.103-3.634-.031-5.443-.006m-48.59.01.038 23.87q1.613.027 3.226.037c.23-2.72.031-5.573.015-8.31q-.009-7.786-.113-15.571c-1.054-.009-2.111-.036-3.165-.025m22.303.02.002 23.89c1.129-.026 2.262-.029 3.39-.088l-.022-23.78zm36.942.015-4.965 23.899c1.066.002 2.138.028 3.204-.006l1.234-6.097 5.062-.025c.494.576 1.019 4.96 1.316 6.122 1.14.01 2.28.036 3.419.014-.502-3.12-1.325-6.212-1.976-9.307q-.95-4.488-1.963-8.963c-.406-1.88-.746-3.776-1.224-5.64zm57.302 28.709c-15.73.229-31.494.042-47.226.045l-89.874.013-33.493.005c-6.62.001-13.267-.123-19.883.106.772.937 1.521 1.91 2.331 2.813 2.814.185 5.693.066 8.514.058l14.594-.043 46.537-.142 118.056-.017c.963-.933 1.854-1.928 2.753-2.92-.77.026-1.54.042-2.31.082m-65.994 5.224c-3.102 1.88-6.42 4.23-10.228 3.32-1.978-.474-3.578-1.655-5.29-2.695q.129.326.28.642t.325.62.368.595.41.568q.216.276.45.537.235.26.487.502.253.243.522.467.27.224.554.428c1.65 1.018 3.428 1.209 5.294.757 3.418-.828 6.367-2.955 9.482-4.49.911-.449 1.908-.582 2.822-1.023-1.823-.212-3.66-.032-5.476-.228m-63.897.14c-.894.004-2.37-.135-3.123.365.524.6 3.847.934 4.806 1.083q1.658.226 3.319.428c-1.045-.537-1.946-1.031-2.775-1.884zm72.25-.005-1.932.106-1.277 1.234c1.275-.017 2.535-.035 3.79-.29 1.348-.294 2.662-.68 3.986-1.068q-2.284-.037-4.568.018m12.153-.016c-17.957 12.271-42.617 17.345-63.96 13.316-11.976-2.261-22.966-6.397-33.198-13.056l-2.527.013c.872.758 1.761 1.463 2.76 2.05q.943.6 1.901 1.174.958.575 1.93 1.126t1.958 1.078 1.984 1.028 2.009.978 2.032.929 2.056.877 2.076.826q1.044.4 2.096.774t2.115.721 2.133.669 2.148.615 2.163.562 2.176.507q1.091.24 2.188.454 1.097.213 2.199.398t2.208.344 2.216.288 2.222.233 2.228.178q1.115.076 2.231.123t2.233.067q1.118.019 2.235.01 1.118-.008 2.234-.044 1.117-.036 2.233-.1 1.115-.064 2.229-.156 1.113-.091 2.225-.211 1.11-.12 2.218-.266 1.108-.148 2.212-.322 1.103-.175 2.202-.377t2.192-.431 2.182-.486c12.33-2.898 20.999-7.159 31.592-13.946-1.089.036-2.248.148-3.331.057m-79.9.145c.969.715 2.222 1.079 3.286 1.647 3.125 1.67 6.65 4.482 10.435 3.954 2.92-.406 3.927-2.636 6.077-4.187-.013-.363.042-.625-.166-.932l-.324.047.543-.423-.029-.099c-.309.051-.519.052-.77.253l-.056.577c-.858.474-1.606 1.096-2.451 1.565-2.026 1.126-4.245.972-6.387.355a21 21 0 0 1-3.533-1.349c-.895-.445-1.738-1.189-2.73-1.38-1.207-.234-2.659-.056-3.895-.028m46.342-.013c-.327.034-.736.035-1.043.139.92.706 3.602 1.958 4.759 1.785.49-.073.896-.288 1.305-.553.573-.46 1.126-.905 1.624-1.445-2.139.015-4.539-.221-6.645.073m-23.202.224c-.279.407-.416.778-.564 1.247.395 2.006.789 3.538 2.576 4.757.516.351 1.006.489 1.601.653 1.423-.308 2.344-.66 3.168-1.962.803-1.267 1.007-2.583 1.116-4.043-.677.547-1.368 1.085-2.018 1.665-.778.657-1.638 1.292-2.329 2.041-.093.101-.286.374-.39.437-.075.045-.174.018-.262.027-.145-.373.135-.72.173-1.126a1.5 1.5 0 0 0-.385.462c-.145.24-.26.34-.51.478l-.152-.016c.027-.17.04-.263.127-.416l.326-.08c-.06.01-.119.023-.179.03-.265.035-.243-.015-.466-.076-.062-.017-.213-.028-.284-.034l.19-.062.08-.1c1.148-1.378 2.842-2.954 4.372-3.877q-3.095-.064-6.19-.005m12.194-.01c.942.709 1.707 1.693 2.637 2.352.51.361 1.181.413 1.631.86-.221.198-.345.194-.631.26.055.332.117.664.144 1a3 3 0 0 1-.934.224c-1.302-1.05-2.934-3.168-4.409-3.762l-.177.09c-.041.633.367 1.411.594 2.002.644 1.491 1.118 2.679 2.734 3.314q.405.158.815.306c.822-.285 1.625-.596 2.392-1.01l.082-.177c.607-1.295 1.89-2.202 1.361-3.791-.213-.637-.566-1.077-1.042-1.538-1.707-.049-3.497-.218-5.197-.13m62.535.177-3.233.042c-1.211 1.537-1.693 3.151-2.118 5.044-4.025-.685-7.903-.549-11.952-.397.697 1.517 1.31 3.012 1.776 4.62-.97-1.113-1.927-2.235-3.022-3.227-2.281 3.239-4.311 6.676-5.706 10.394-3.644-1.302-7.51-1.864-11.334-2.357.25 1.378.44 2.737.596 4.129-.715-1.177-1.398-2.418-2.22-3.519a75 75 0 0 0-7.542 8.769c-2.767-1.93-6.864-3.758-10.17-4.503-.183 1.523-.339 3.057-.601 4.569q-.653-2.276-1.375-4.53c-3.394 2.17-6.962 4.577-9.657 7.603-2.12-2.717-6.656-5.158-9.54-7.145q-.68 2.145-1.314 4.305c-.13-1.581-.309-3.178-.34-4.763-3.566 1.085-7.26 2.562-10.348 4.657-1.974-2.722-5.063-6.857-7.856-8.753-.804 1.396-1.436 2.865-2.163 4.299.064-1.633.216-3.253.374-4.88-3.847.063-7.344.663-11.001 1.864-1.52-3.518-3.074-7.042-5.342-10.156-.77 1.196-1.568 2.251-2.575 3.256.152-1.515.731-2.761 1.2-4.186-3.987-.679-8.074-.986-12.05-.04-.67-1.675-1.257-3.402-1.988-5.05-4.747-.05-9.5.022-14.248.02-1.662 3.373-3.28 6.67-5.67 9.61 1.547 1.5 3.157 3.01 4.81 4.391 3.271-2.301 6.943-4.75 10.854-5.743 1.624-.412 3.337-.564 5-.768l.018.133c.19 1.239.673 2.414.863 3.65.697 4.547-.92 8.973-2.89 12.992 2.057 1.312 4.187 2.518 6.234 3.84l.287.113c.84-.478 2.338-2.456 3.118-3.249q1.3-1.335 2.78-2.47c1.786-1.387 3.633-2.243 5.741-3.014.837-.307 1.722-.57 2.516-.975 3.256 5.327 3.995 10.837 2.52 16.936l-.046.187q3.361 1.294 6.775 2.441c1.949-3.612 4.335-7.544 7.895-9.772 1.326-.83 2.775-1.42 4.137-2.183 4.103 5.897 5.051 8.289 5.403 15.58 2.621.36 5.253.59 7.874.93 1.062-3.873 2.627-7.972 5.427-10.924 1.144-1.207 2.439-2.224 3.647-3.358l.069.094c.877 1.164 2.227 1.912 3.296 2.885 3.042 2.767 4.795 7.374 5.571 11.329 2.587-.226 5.164-.47 7.734-.847.458-7.124 1.233-9.907 5.413-15.681 6.494 2.793 8.676 5.694 11.663 11.965 2.676-.586 5.215-1.744 7.818-2.58-1.052-3.913-1.64-8.635-.312-12.556.501-1.483 1.283-2.87 1.974-4.27l.122.049c1.304.509 2.685.783 3.988 1.304 4.003 1.6 7.149 4.744 9.343 8.4 2.557-1.371 5.303-2.732 7.566-4.57-2.96-6.857-4.01-8.707-2.373-16.106l.1.02c1.272.223 2.657-.045 3.972.117 4.72.58 7.72 3.438 11.157 6.39 1.728-1.489 3.438-2.962 5.017-4.612-2.017-3.186-4.019-6.157-5.078-9.825zm-155.508.125-1.548.62c1.374.066 4.025.141 5.048 1.243.451.484.41 1.134.359 1.747-.087 1.018-.425 2.505-.058 3.465.661-1.076 1.037-2.364 1.444-3.555-.27-1.031-.465-2.153-1.463-2.74-1.017-.598-2.621-.603-3.782-.78m87.702.002h.113zm3.991-.068c1.386.89 3.116 3.522 4.392 4.058-.672-1.553-2.013-3.182-3.617-3.83a3.5 3.5 0 0 0-.775-.228m-4.18.253c-.769.441-2.535 1.47-2.832 2.319.04.096.087.25.147.332.955-.692 1.984-1.402 2.719-2.338l.035-.24zm84.168.402c.222 1.262 1.353 5.462 2.248 6.327.193-.255.25-.457.228-.782-.03-.474-.225-.98-.303-1.454a51 51 0 0 1-.391-3.11c1.007-.016 5.434.207 6.038-.116-1.175-1.036-6.213-.918-7.82-.865m-16.21 12.84c-.533 2.915-.337 5.955.782 8.722.055-1.177-.094-6.299.491-6.922l.45-.005c1.103.137 4.888 1.17 5.586.965-.258-.616-2.08-1.362-2.71-1.62-1.439-.588-3.061-.916-4.599-1.14m-134.741.177c-1.754.244-5.093 1.24-6.164 2.646l-.016.294.188.154c1.264-.561 4.773-2.131 6.068-1.514.177.084.199.267.272.436.478 2.385.229 4.453.457 6.8.979-2.798 1.333-5.987.619-8.892-.462.021-.97 0-1.424.076m21.716 11.602c-3.18.788-5.536 1.996-7.264 4.883q-.115.193-.214.395c1.724-1.345 2.964-2.432 5.06-3.19.566-.156 1.132-.33 1.703-.463.33.693.69 1.394.945 2.12.284.803.554 3.27 1.196 3.686.442-.637.302-2.284.162-3.03-.2-1.06-.619-3.772-1.457-4.385zm92.83.062c-.797 1.834-2.031 6.361-1.298 8.271q.029.075.062.148c.231-.088.147-.013.269-.276.346-.751.46-1.714.635-2.52.286-1.312.646-2.577 1.212-3.798.94.311 5.346 2.264 5.72 2.29l.146-.115c-.803-1.568-4.737-3.336-6.375-3.888q-.184-.06-.37-.112m-91.674 7.457c-.046.5-.14 1.012-.014 1.503l.242.097c.114-.436.298-.9.146-1.34-.122-.087-.245-.187-.374-.26m69.134.31c-.77 1.401-3.187 6.176-2.857 7.647l.167.1c1.027-.768 2.373-5.588 3.495-5.654l.556.266c.889.548 1.782 1.1 2.59 1.764.584.48 1.144 1.07 1.771 1.481.244.16.343.249.636.265-.524-1.873-3.758-4.475-5.401-5.401-.31-.175-.632-.323-.957-.469m-47.771.16c-2.346 1.164-4.814 2.776-5.82 5.332-.038.096-.07.226-.097.321l.097.165c.718-.183 1.837-1.686 2.471-2.22.76-.639 1.628-1.171 2.496-1.652l.292-.082c1.959 1.713 2.222 4.36 3.362 6.482.363-2.558-.856-5.846-2.358-7.888a2.4 2.4 0 0 0-.443-.458m24.107 2.308c-1.671 1.645-4.463 4.304-4.497 6.862q0 .094.003.188l.15.06c1.38-1.272 2.647-4.28 4.423-5.086.985.915 1.914 1.865 2.748 2.922.569.721 1.004 1.94 1.83 2.35l.127-.056c.097-1.569-2.232-4.749-3.235-5.875-.392-.44-.988-1.157-1.55-1.365"/><path d="M46.218 90.716c.789-1.993 1.97-3.865 3.04-5.72 3.643-6.315 7.578-12.271 12.496-17.685q.733-.82 1.486-1.62.752-.802 1.525-1.585t1.563-1.545q.792-.764 1.602-1.507.81-.744 1.637-1.467.829-.724 1.674-1.426.846-.703 1.708-1.385.863-.682 1.742-1.342.88-.66 1.774-1.298.895-.639 1.806-1.255.91-.616 1.836-1.21.926-.593 1.866-1.163t1.893-1.118 1.92-1.07q.968-.524 1.947-1.024t1.97-.974 1.995-.927q1.003-.45 2.017-.876 1.013-.426 2.037-.826 1.024-.401 2.057-.776 1.034-.376 2.076-.726t2.093-.674q1.05-.324 2.109-.622t2.124-.57 2.137-.517 2.149-.464q1.077-.22 2.16-.412 1.082-.192 2.17-.358 1.086-.166 2.177-.304 1.09-.139 2.184-.251t2.19-.197 2.194-.143q1.098-.05 2.196-.072 1.099-.023 2.198-.02 1.098.004 2.197.034t2.195.087 2.193.14q1.096.084 2.189.194t2.183.245 2.177.3 2.17.35 2.16.404 2.149.456 2.138.508 2.125.559 2.11.61q1.052.318 2.096.662 1.044.343 2.079.711c16.951 6.121 32.401 17.932 42.982 32.506q1.431 2.007 2.767 4.079t2.57 4.206q1.236 2.133 2.37 4.322 1.133 2.189 2.162 4.429c-4.716-3.295-9.553-7.521-13.506-11.706-3.37-3.568-6.589-7.528-10.35-10.688-.899-.756-2.164-1.776-3.39-1.725-1.816.077-4.287 1.451-5.73 2.51-2.615 1.92-4.908 4.627-7.267 6.868-2.448 2.327-4.824 4.77-7.311 7.05-2.891 2.648-6.014 5.124-9.094 7.548-1.107.87-3.142 2.834-4.56 2.909-.384.02-.484-.06-.748-.329-1.374-1.401-2.53-3.05-3.814-4.54-1.187-1.379-2.46-2.685-3.673-4.041-2.392-2.67-4.72-5.31-7.374-7.724-1.886-1.599-3.889-3.29-6.122-4.37-1.69.66-3.232 2.221-4.677 3.322-2.05 1.563-4.207 2.989-6.225 4.594-1.527 1.215-2.943 2.604-4.377 3.928-2.197 2.028-4.054 4.408-6.413 6.27-.35.275-1.177.948-1.627.89-.368-.048-1.044-.58-1.362-.812-1.928-1.409-3.712-3.011-5.663-4.414-2.031-1.46-4.124-2.835-6.146-4.307-1.388-1.011-2.706-2.114-4.08-3.142-1.24-.928-2.552-1.782-3.734-2.784-3.038-2.573-5.611-5.7-8.777-8.128-.753-.577-1.392-1.016-2.36-1.114-.855-.087-1.74.02-2.516.4-4.22 2.07-10.634 11.076-14.445 14.561-1.348 1.232-3.051 2.21-4.528 3.296-1.693 1.246-3.285 2.65-4.891 4.005m81.31-46.403c-.228 2.1-.194 4.22-.204 6.33l.036 10.228c0 1.408.148 2.95.02 4.34-.038.418-.092 1.056-.432 1.343-.43-.318-.517-1.04-.592-1.546-.722-4.902-1.256-9.841-1.98-14.748-.223-1.506-.337-3.096-.653-4.577-.067-.309-.205-.774-.442-1-.053-.05-.12-.084-.178-.126-.261.058-.304.06-.45.307-.229.388-.215.95-.184 1.383.094 1.36.464 2.79.646 4.154.454 3.398.851 6.807 1.377 10.196.27 1.743.774 3.687.775 5.443 0 .34-.018.621-.28.851-.304-.174-.395-.397-.522-.714-1.069-2.663-1.681-5.874-2.45-8.661-.91-3.304-2.009-6.58-2.881-9.886-.19-.723-.231-1.549-.881-2.001-.305.026-.448.113-.7.282-.154.479 3.956 14.877 4.515 16.802.381 1.312 1.014 2.744 1.236 4.082.04.247.024.253-.159.415-.303-.063-.501-.227-.673-.481-.828-1.227-1.374-2.827-1.972-4.185l-4.457-10.207c-.708-1.635-1.338-3.585-2.276-5.086-.286-.033-.557-.026-.801.161-.119.091-.157.156-.24.268.206 1.496 1.546 3.65 2.174 5.078q2.586 5.985 5.076 12.012c.198.469 1.361 2.737 1.365 2.996.001.066-.03.13-.044.195-.17.055-.247.134-.418.035-.82-.476-7.839-12.716-8.955-14.69-.406-.717-1.825-3.717-2.288-4.067-.043-.033-.347-.047-.37-.046-.306.015-.49.194-.675.409-.009.112-.048.226-.028.337.105.563 1.718 2.838 2.084 3.44q3.17 5.272 6.207 10.622c.79 1.392 1.797 2.85 2.462 4.296.126.276.201.423.04.695-.342-.04-.56-.23-.775-.487-.526-.628-.919-1.407-1.4-2.075l-7.156-9.802c-1.183-1.646-2.256-3.448-3.509-5.029-.207-.26-.317-.415-.638-.511-.266.145-.352.22-.482.494 0 .253.034.428.152.649.698 1.309 1.784 2.6 2.65 3.815 1.867 2.62 3.727 5.263 5.672 7.824.74.976 4.115 4.944 4.245 5.838l-.188.121c-.884-.305-9.778-10.55-10.992-11.989-1.016-1.204-2.228-3.133-3.371-4.117-.314-.27-.511-.352-.894-.21-.127.276-.248.411-.114.716.368.837 1.775 2.214 2.424 2.962q3.848 4.421 7.792 8.757c1.205 1.323 2.505 2.59 3.66 3.952.302.355.603.712.741 1.163-1.674-.597-11.557-9.725-13.607-11.591-.97-.883-2.346-2.43-3.451-3.054-.372-.21-.808-.152-1.178.013-.096.25-.107.293.008.554.514 1.164 3.335 3.034 4.376 3.917 1.762 1.495 12.302 10.548 12.522 11.132-.205.151-.11.141-.352.1-1.55-.26-16.216-10.715-19.084-12.433-.311.407-.62.803-.88 1.246l.135.101c2.452 1.837 5.278 3.376 7.905 4.96 2.124 1.28 4.105 2.751 6.186 4.088.99.636 1.988 1.317 3.006 1.903.457.263.962.471 1.395.77.233.16.383.315.507.573l-.05.28c-.238.134-.29.158-.57.088-1.016-.25-2.514-1.178-3.518-1.634-2.645-1.204-5.346-2.316-7.953-3.597-2.057-1.01-4.095-2.064-6.142-3.095-.897-.452-1.979-1.153-2.95-1.395-.456.313-.588.84-.777 1.345l.125.068c2.286 1.206 4.789 2.164 7.152 3.219 2.788 1.244 5.517 2.597 8.293 3.86 1.37.624 4.769 1.736 5.707 2.726l.018.238c-.651.337-3.968-.936-4.8-1.2L91.23 68.617c-.2.558-.413 1.115-.592 1.68 2.308.509 22.048 5.99 22.523 6.657l-.058.29c-.358.118-.744.053-1.11 0-2.386-.347-4.765-.886-7.152-1.268-5.058-.81-10.141-1.517-15.167-2.513-.164.589-.331 1.171-.445 1.772 1.8.018 21.984 2.662 23.37 3.274l-.052.153c-2.119.735-6.067.195-8.365.123-3.25-.102-6.516-.078-9.769-.102-1.526-.01-3.27-.201-4.776-.014a1.24 1.24 0 0 0-.734.335c-.11.285-.097.329-.038.631.334.392.482.35.995.388 3.513.267 7.132.069 10.654.025l13.679-.035c.214-3.195 2.164-6.352 4.54-8.419 2.666-2.32 6.552-3.632 10.082-3.39 1.762.12 3.418.654 4.996 1.43 3.49 1.867 6.112 4.777 7.277 8.591q.195.635.363 1.277l15.913.103c2.953.041 6.087.342 9.014.027.215-.454.443-.906.644-1.366-2.621.007-5.14.33-7.741.46-2.252.113-15.174.653-16.27.1l-.165-.247c.168-.279.298-.323.602-.404 1.995-.532 4.319-.577 6.38-.847l12.36-1.716c.988-.135 3.628-.332 4.422-.733a3 3 0 0 0 .255-.257c.158-.212.106-.332.07-.574-.392-.277-.757-.304-1.225-.291-1.51.039-3.132.439-4.633.675l-10.953 1.67c-2.12.34-4.38.892-6.516.995-.373.018-.997.09-1.21-.246.8-.8 4.676-1.454 5.972-1.815q6.665-1.827 13.268-3.863c1.066-.335 2.201-.542 3.245-.93.29-.109.56-.178.73-.452-.016-.38-.005-.42-.233-.718-.353-.177-.616-.194-1-.132-1.689.275-4.535 1.38-6.32 1.927q-3.868 1.22-7.757 2.37c-1.256.359-2.538.635-3.79 1-.931.272-4.138 1.642-4.924 1.05.037-.277-.025-.185.182-.355.911-.743 3.806-1.745 5.024-2.24q5.71-2.312 11.385-4.704c1.455-.61 3.13-1.121 4.5-1.873.393-.216.905-.528 1.058-.974-.035-.164.002-.142-.15-.231-.466-.273-1.239-.17-1.727-.007-1.373.46-2.787 1.253-4.125 1.833l-10.363 4.453c-2.341.992-4.695 2.086-7.149 2.763 2.687-2.241 5.924-3.783 8.96-5.487 2.504-1.406 4.963-2.907 7.444-4.354 1.347-.786 3.137-1.557 4.279-2.576.22-.197.385-.468.373-.777-.008-.2-.042-.177-.186-.319-.425-.07-.736.005-1.135.169-1.561.64-3.081 1.793-4.508 2.689-2.458 1.541-4.963 2.991-7.43 4.514-1.896 1.168-5.454 3.546-7.35 4.246-.335.125-.595.202-.906.002l.073-.087-.054-.136.151.19.057-.192a396 396 0 0 0 13.246-10.357c1.403-1.146 3.015-2.208 4.309-3.46a2.3 2.3 0 0 0 .553-.79c-.022-.353-.064-.375-.29-.655-.398-.065-.632.053-.957.286-1.614 1.158-3.12 2.605-4.632 3.902q-3.833 3.31-7.756 6.512c-1.569 1.285-3.16 2.767-5.006 3.628l.072-.12c.9-1.432 2.497-2.744 3.678-3.97 2.574-2.671 5.081-5.406 7.632-8.1 1.129-1.191 2.719-2.574 3.651-3.85.214-.292.29-.572.355-.923l-.099-.354c-.268-.145-.314-.152-.625-.047-1.51.514-15.032 16.884-16.118 17.045-.044-.358.06-.553.238-.871.918-1.642 2.34-3.19 3.458-4.72l6.903-9.564c.774-1.062 1.827-2.15 2.456-3.292.248-.451.262-.934.112-1.413l-.23-.143c-1.034.32-3.82 4.84-4.595 5.948-1.555 2.22-3.187 4.384-4.75 6.598-1.382 1.956-2.96 4.52-4.627 6.197-.185.186-.263.3-.527.21-.076-.396.11-.75.288-1.094.92-1.766 2.128-3.409 3.126-5.137 1.78-3.081 3.425-6.245 5.198-9.335.613-1.07 2.314-3.64 2.556-4.649.085-.355-.13-.541-.37-.749-.379.05-.584.225-.826.52-1.24 1.52-2.101 3.768-3.027 5.52-1.276 2.414-2.695 4.773-4.024 7.161-1.06 1.908-2.055 3.988-3.295 5.782-.24.348-.453.596-.805.83l-.27-.012-.122-.202c.409-1.528 1.31-3.06 1.938-4.521 1.55-3.603 2.986-7.262 4.467-10.894.586-1.436 1.61-3.435 1.941-4.86a1.73 1.73 0 0 0-.04-1.01c-.264-.244-.26-.236-.62-.252-.359.195-.445.38-.62.755-.916 1.96-1.592 4.12-2.385 6.14-1.156 2.943-2.424 5.843-3.631 8.765-.626 1.513-1.257 3.934-2.387 5.135-.167.177-.252.125-.477.135l.211.071-.163-.175c-.063-1.62.7-3.523 1.113-5.082q1.357-5.264 2.812-10.502c.51-1.861 1.256-3.856 1.512-5.759.033-.244.059-.415-.14-.58-.196-.162-.355-.2-.595-.265l-.258.057c-.848 1.413-1.062 3.56-1.484 5.154l-2.98 10.88c-.431 1.584-.755 3.231-1.247 4.795-.114.363-.176.632-.47.872l-.274-.005c-.376-.432-.368-.86-.332-1.413.128-2.005.63-4.098.922-6.094.463-3.163.795-6.346 1.258-9.513.209-1.432.605-3.011.681-4.445a1.45 1.45 0 0 0-.188-.832c-.33-.213-.403-.206-.8-.216-.21.172-.256.22-.327.494-.392 1.514-.441 3.304-.67 4.873-.551 3.78-1.223 7.61-1.59 11.408-.123 1.275-.182 4.462-1.031 5.396-.42-.395-.419-1.483-.434-2.054-.054-2.022.044-4.057.066-6.081.026-2.574-.01-5.149.033-7.722.032-1.847.328-4.501-.01-6.27-.388-.252-.687-.228-1.144-.239"/><path d="M37.017 101.925c1.657-1.578 2.978-3.44 4.5-5.14 1.476-1.65 3.225-3.133 4.916-4.557 2.12-1.785 4.458-3.429 6.728-5.018 1.337-.936 2.796-1.812 3.99-2.93 1.343-1.26 2.528-2.74 3.749-4.118 2.058-2.324 4.115-4.626 6.288-6.845 1.272-1.3 2.558-2.719 4.192-3.563 2.504.298 4.121 2.206 5.915 3.82 3.802 3.42 7.52 7.203 11.611 10.264 2.494 1.865 5.092 3.593 7.657 5.358 1.805 1.242 3.705 2.47 5.293 3.986.404.387 1.144 1.08 1.07 1.693-.068.565-.88 1.055-1.294 1.383-1.568-1.233-2.995-2.657-4.556-3.91-3.36-2.696-6.752-5.2-9.968-8.08-4.726-4.232-9.206-8.727-14.163-12.695-.619 1.985-1.385 4.16-1.682 6.216q2.885 3.06 5.9 5.994c1.588 1.577 3.16 3.264 4.972 4.585 4.962 3.613 10.614 6.22 15.022 10.6.307.306.55.583.544 1.028l-.121.093c-.53.082-.932-.08-1.383-.347-.89-.528-1.708-1.394-2.53-2.037-2.879-2.254-5.847-4.618-9.256-6.008 1.108 2.952 1.518 5.993 2.173 9.049.243 1.133 1.256 3.56.802 4.646-.126.3-.268.337-.544.449-.707-.21-1.165-5.01-1.408-5.968-.265-1.043-.666-2.035-1.1-3.017-1.12-2.538-2.38-5.21-3.976-7.482-1.044-1.486-2.374-2.788-3.62-4.103-1.655-1.746-3.303-3.498-5.041-5.162.235 2.229.525 4.423.909 6.632.325 1.874.939 3.922.885 5.815-.061 2.166-.537 4.718-.916 6.875-.293 1.666-.832 3.353-.654 5.058.234 2.24 1.468 6.407 2.168 8.633.327 1.039 1.222 2.501 1.168 3.567-.013.242.011.15-.184.333-.91-.353-4.543-8.242-5.195-9.69.397-2.486.668-4.993 1.099-7.476.346-2 1.266-4.736 1.2-6.681-.066-1.919-1.056-3.623-1.112-5.582-1.972 3.934-1.35 6.888-1.755 11.028-.227 2.314-2.661 11.334-4.302 12.681l-.215-.078c-.444-1.318.231-3.809.727-5.073.531-1.355 1.277-2.501 1.575-3.96.402-1.973.273-4.326.363-6.344-1.575 1.184-3.358 2.855-4.442 4.507-.963 1.468-.985 3.268-1.721 4.833-1.542 3.276-3.596 6.356-5.371 9.512-1.82 3.237-3.437 7.05-5.773 9.933-.783.967-1.867 1.602-2.897 2.27 1.235-2.96 2.66-6.75 4.83-9.153 2.23-2.166 6.66-9.344 7.329-12.319.313-1.392-.003-2.874.342-4.28.734-3.002 5.8-6.682 8.35-8.242 1.637-3.718 2.192-8.519 1.795-12.53-3.347 2.562-5.12 5.647-7.125 9.287-.8 1.454-1.523 2.915-2.69 4.117-1.691 1.739-3.905 3.106-5.839 4.574q-5.742 4.434-11.55 8.778c-5.166 3.905-10.211 7.945-15.428 11.787-2.395 1.764-4.732 3.69-7.382 5.058 3.185-3.671 7.143-6.41 10.936-9.382 5.063-3.969 10.097-7.935 15.332-11.683 2.381-1.705 5.248-3.4 7.48-5.193 1.38-1.11 2.638-2.437 3.882-3.694.892-.902 1.844-1.791 2.612-2.803-2.444.98-5.041.945-7.482 2.09-2.59 1.215-4.163 2.333-5.171 5.1-.794.597-5.664 3.675-6.435 3.89l-.154-.117c.05-.179.097-.358.173-.528.513-1.148 2.052-1.727 2.98-2.5 1.336-1.113 2.335-2.547 3.593-3.726 2.112-1.98 5.538-2.76 8.168-3.81 1.919-.767 3.717-1.995 5.26-3.36 2.831-2.507 7.766-8.751 9.503-12.111.684-1.325.865-2.589 1.355-3.956.115-.322.336-.616.475-.937-.132-.313-.182-.307-.484-.475-.451.028-.789.241-1.14.512-1 .774-1.802 1.911-2.684 2.82-2.11 2.177-4.251 4.311-6.303 6.545-1.243 1.354-2.406 2.871-3.718 4.15-.801.78-1.842 1.408-2.719 2.108-2.677 2.136-5.498 4.211-8.067 6.465-.996.874-1.943 1.775-2.817 2.773-1.053 1.2-2.075 2.676-3.359 3.635-1.082.808-2.849 1.449-4.085 2.133m78.62-15.425c1.51-1.32 3.194-2.479 4.74-3.769 2.38-1.985 4.664-4.145 7.154-5.989 1.562-.084 2.714 1.043 3.864 1.958 3.238 2.576 5.827 5.605 8.325 8.877 1.08 1.414 2.104 2.894 3.256 4.248.938 1.102 2.067 2.054 3.118 3.046q2.388 2.263 4.746 4.555l4.891 4.84c.913.902 1.815 1.889 2.824 2.683 1.695 1.336 5.519 2.703 7.67 3.902 1.933 1.077 3.961 2.182 5.77 3.455 2.463 1.734 4.766 3.696 7.336 5.275 1.088.668 2.309 1.148 3.467 1.682 2.606 1.202 4.761 2.36 6.964 4.2-1.208-.268-2.416-.341-3.6-.742-3.372-1.14-5.986-2.906-8.917-4.856-4.155-2.764-8.12-5.782-12.445-8.277.192 1.107.428 2.169.814 3.226.425 1.162 4.676 10.263 4.58 10.528-.981.022-1.982-1.683-2.481-2.407-2.313-3.358-3.932-7.116-6.25-10.464-2.891-4.178-6.82-7.582-10.453-11.105-2.601-2.522-5.143-5.182-7.983-7.439.91 3.063 1.458 6.291 1.956 9.445.235 1.483.255 3.147.754 4.564 1.505 4.279 6.819 13.242 6.508 17.418l-.138.076c-.943-.94-2.193-4.698-2.796-6.093-1.57-3.636-3.859-7.392-5.12-11.059-.889-2.587-1.178-5.41-1.756-8.079-.413-1.912-1.045-3.728-1.675-5.576-1.418-4.154-2.867-8.091-6.08-11.252-.17 5.189 1.78 10.142 2.295 15.275.105 1.037.156 2.07.067 3.111-.157 1.82-.683 3.906-.417 5.714.247 1.677 1.076 3.269 1.702 4.828.377.94.748 1.921.877 2.93.204 1.592-.066 3.368-.074 4.984-.005.93.151 1.947.049 2.866-.042.382-.222.765-.371 1.115l-.13.05c-.228-5.444-2.285-10.433-3.995-15.519-.101-.3-.21-.57-.18-.894.062-.66.284-1.32.415-1.97.427-2.113.983-4.607.91-6.754-.097-2.829-1.65-7.361-2.23-10.36-.319-1.64-.24-3.381-.418-5.045-.227-2.133-.632-2.722-2.291-4.066-1.697 3.937-3.752 7.968-4.432 12.237-.582 3.66-.266 7.657-.18 11.356.072 3.136.047 6.287.164 9.42.061 1.64.636 10.371.33 11.17l-.173-.003-.266-.525c-.533-1.524-.787-3.255-1.147-4.834-.421-1.849-1.09-3.911-1.215-5.8-.156-2.39 1.13-4.84 1.187-7.251.07-2.889-.461-5.791-.683-8.666-.138-1.781-.099-3.596.025-5.376-.753 1.041-1.477 2.063-2.053 3.217-1.395 2.794-2.182 5.896-3.61 8.677-.906 1.766-2.821 2.818-3.88 4.511-.608.974-1.125 2.02-1.704 3.012-1.033 1.773-2.14 3.524-3.024 5.376-.994 2.082-1.707 4.52-2.989 6.422.591-2.503 1.41-7.358 2.5-9.478.535-1.04 1.538-1.8 2.077-2.833.796-1.526 1.329-3.183 2.272-4.633.934-1.434 2.47-2.368 3.288-3.892 1.152-2.147.932-4.878 2.265-6.986 1.12-1.772 2.989-3.187 4.355-4.798 2.435-2.871 4.4-7.61 5.825-11.114a26 26 0 0 0-1.937-1.374l-.15.092c-1.659 1.008-3.002 2.66-4.388 4.004-1.495 1.45-4.129 3.454-5.284 4.96-1.209 1.575-1.502 3.954-2.36 5.736-.236.49-.734.96-1.089 1.371-1.36 1.576-2.512 3.776-3.443 5.647-.465.932-.872 1.968-1.453 2.831-1.074 1.596-4.019 3.724-4.515 4.773-.516 1.09-.845 2.292-1.21 3.44-1.66 5.215-2.743 11.253-6.909 15.162a188 188 0 0 0 3.957-11.29c.79-2.518 1.366-5.257 2.475-7.657.56-1.213 1.607-2.2 2.34-3.322 1.45-2.221 2.766-4.564 4.106-6.854-1.53.403-4.517 1.097-5.783 1.908-1.094.7-2.107 1.809-2.986 2.755-1.387 1.493-2.587 3.168-3.896 4.731-1.165 1.391-3.568 3.81-4.346 5.294-1.458 2.785-2.988 7.408-5.031 9.626 1.008-3.85 1.935-7.739 3.023-11.567-1.808.938-3.902 1.526-5.55 2.726-1.322.962-2.525 2.156-3.725 3.266-3.999 3.698-9.088 9.03-14.315 10.763l.136-.159c2.42-2.836 5.81-4.92 8.644-7.324 3.13-2.654 6.017-5.748 9.454-8.017 1.492-.986 3.306-1.629 4.894-2.472 2.424-1.287 4.71-2.931 6.89-4.594 2.235-1.704 3.447-4.415 5.88-5.974 2.908-1.862 6.147-1.538 9.29-3.952.571-.44 1.21-.957 1.656-1.526.953-1.22 1.613-3.84 1.44-5.347m80.939 3.326-.054-.06zm0 0c3.93 3.215 6.156 8.596 9.682 11.681 2.249 1.968 5.196 3.023 7.665 4.7 2.337 1.59 4.524 3.382 6.834 5.005 2.112 1.483 4.415 2.804 6.38 4.476 1.944 1.652 3.605 3.604 5.468 5.341.753.703 3.24 2.628 3.495 3.414-2.869-.553-6.275-4.217-8.253-6.328-.66-.706-1.275-1.521-2.016-2.14-1.842-1.537-4.211-2.443-6.192-3.8-2.937-2.014-5.466-4.544-8.55-6.36-1.774-1.046-3.844-1.559-5.552-2.652q-.077-.046-.154-.096c-.609-.41-1.089-1.217-1.497-1.819-1.059-1.56-1.856-3.285-2.876-4.87-.941-1.463-3.974-5.309-4.434-6.552M90.467 141.009c-.602.035-1.144-.223-1.724-.346-.214-.046-.432-.083-.642-.145-.591-.177-1.158-.64-1.412-1.206q-.032-.07-.056-.142-.025-.073-.042-.147-.018-.075-.028-.151t-.012-.153.004-.153q.005-.077.018-.152.014-.076.034-.15t.049-.145c.342-.875 1.288-1.394 2.108-1.725.504-.032 1.004-.03 1.502.065.968.185 1.712.893 2.238 1.694.227.344.384.738.253 1.154-.24.757-1.64 1.339-2.29 1.702m-.67-2.69c-.304.139-.431.129-.59.442.131.345.403.495.69.7l.346-.047c.12-.219.216-.355.119-.619-.126-.34-.254-.38-.565-.475m-16.881 1.46c-.113-.055-.34-.187-.474-.206-.321-.045-.414.078-.648.262-.079.257-.102.368-.038.638.045.193.088.361.116.557l-.147.06c-.318-.203-.59-.397-.793-.722-.312-.5-.335-1.104-.19-1.662.244-.946.751-1.504 1.567-1.999 1.139.146 2.28 1.846 3.005 2.694a6 6 0 0 1-1.132.962c-.354.24-.629.39-1.073.306-.271-.3-.191-.495-.193-.89m-5.913 11.217.137.132zm14.939 32.898c.305-2.71 1.18-7.328 1.892-9.965.442.92 1.68 8.591 1.848 9.968l-1.526.004zm82.794.003c.535-3.2 1.481-6.339 1.942-9.545.386.39 1.779 8.416 2.012 9.595l-1.971-.031zm15.119-7.46-.073-.062z"/></svg>