<svg xmlns="http://www.w3.org/2000/svg" viewBox="0 0 256 256"><path d="M116.9 0h21.187l.126.02c2.018.318 4.094.378 6.124.63 3.965.494 7.948 1.236 11.843 2.129q1.195.268 2.384.56 1.19.29 2.374.604 1.184.313 2.361.65 1.178.336 2.349.694t2.335.74 2.32.782q1.157.403 2.306.828 1.148.424 2.289.87 1.14.447 2.272.915t2.254.958 2.236 1 2.216 1.043q1.103.531 2.196 1.084t2.175 1.126 2.153 1.168 2.131 1.208 2.107 1.248 2.083 1.288 2.059 1.328q1.022.674 2.032 1.366t2.006 1.405 1.98 1.444q.982.73 1.95 1.48.97.749 1.923 1.517t1.894 1.553q.94.786 1.864 1.59.924.803 1.833 1.624.909.82 1.802 1.659.893.838 1.77 1.692.876.855 1.737 1.727.86.871 1.704 1.759t1.67 1.791c3.322 3.656 6.298 7.532 9.22 11.507 10.238 13.927 18.293 32.775 21.575 49.726.637 3.287 1.218 6.672 1.582 10 .2 1.796.27 5.033.678 6.58v17.797l-.02.116c-.352 2.234-.38 4.554-.617 6.808-.41 3.856-1.09 7.756-1.933 11.541q-.255 1.149-.528 2.293-.274 1.143-.57 2.282-.294 1.139-.612 2.272-.315 1.133-.653 2.26-.335 1.127-.692 2.249-.357 1.12-.734 2.234-.378 1.115-.775 2.222-.398 1.107-.815 2.207t-.855 2.192-.894 2.175q-.457 1.084-.934 2.16-.476 1.075-.972 2.142-.497 1.067-1.012 2.124-.516 1.057-1.05 2.105-.535 1.048-1.088 2.086-.554 1.038-1.126 2.066t-1.163 2.045-1.2 2.023q-.61 1.006-1.237 2.001t-1.273 1.979q-.645.983-1.308 1.955t-1.344 1.931q-.68.96-1.379 1.906-.698.947-1.412 1.881-.715.935-1.447 1.856-.732.92-1.481 1.828-.749.907-1.513 1.801-.765.894-1.546 1.773-.781.88-1.578 1.745t-1.609 1.716-1.64 1.687-1.67 1.657c-4.617 4.453-9.639 8.435-14.803 12.226-14.024 10.296-32.202 17.771-49.24 21.191q-4.59.913-9.231 1.505c-1.8.225-3.691.307-5.463.67h-21.037c-2.17-.52-4.585-.545-6.807-.838-3.378-.445-6.772-1.112-10.116-1.775-15.842-3.147-31.817-10.226-45.104-19.39q-1.211-.826-2.403-1.678t-2.364-1.732-2.324-1.785q-1.152-.906-2.282-1.838-1.131-.933-2.24-1.89-1.11-.958-2.196-1.941t-2.151-1.99q-1.064-1.008-2.105-2.04-1.041-1.03-2.058-2.086t-2.01-2.133q-.992-1.078-1.96-2.178t-1.91-2.223-1.859-2.266q-.916-1.143-1.806-2.307t-1.754-2.349-1.699-2.387q-.835-1.204-1.644-2.426t-1.588-2.463-1.531-2.499-1.474-2.533-1.415-2.566-1.357-2.598-1.297-2.628-1.236-2.657-1.175-2.684q-.573-1.35-1.114-2.711-.541-1.362-1.051-2.736t-.989-2.758-.925-2.781-.861-2.801-.797-2.82-.733-2.838c-1.09-4.389-2.065-8.869-2.624-13.36-.267-2.15-.157-4.385-.563-6.508l-.024-.12v-20.03c.384-1.625.377-4.037.552-5.775q.457-4.385 1.313-8.71.314-1.659.671-3.308.357-1.65.758-3.289.4-1.64.844-3.267.444-1.629.93-3.245t1.015-3.219 1.1-3.19q.57-1.589 1.182-3.161.613-1.573 1.266-3.13.653-1.555 1.347-3.094t1.429-3.058q.734-1.52 1.508-3.019t1.587-2.978 1.665-2.936q.851-1.457 1.741-2.891t1.817-2.845 1.891-2.795q.84-1.21 1.707-2.4.868-1.191 1.762-2.361.895-1.17 1.816-2.32.922-1.15 1.869-2.278.947-1.127 1.92-2.233t1.972-2.19 2.02-2.143 2.07-2.096 2.118-2.048 2.164-2 2.209-1.948 2.253-1.898 2.297-1.845 2.338-1.792 2.379-1.738 2.418-1.682q1.219-.828 2.456-1.627 1.237-.8 2.492-1.57 1.256-.77 2.529-1.512 1.272-.741 2.562-1.453t2.595-1.395 2.626-1.334 2.657-1.274q1.335-.622 2.685-1.212 1.349-.591 2.712-1.15 1.362-.56 2.737-1.088 1.375-.529 2.762-1.025t2.785-.96 2.806-.897 2.826-.832q1.418-.4 2.844-.767 1.427-.367 2.862-.701c3.833-.933 7.782-1.596 11.689-2.137 2.11-.293 4.252-.469 6.348-.841m5.543 3.322q-1.518.068-3.033.172-1.516.105-3.028.246t-3.021.32-3.013.393-3.001.466-2.99.54-2.976.612-2.96.685-2.942.756-2.922.828-2.903.899-2.879.97-2.854 1.039-2.829 1.108-2.8 1.178-2.771 1.245-2.74 1.312-2.707 1.379q-1.345.705-2.672 1.444-1.328.738-2.637 1.509-1.31.77-2.6 1.573t-2.56 1.635q-1.27.834-2.519 1.698t-2.477 1.758-2.434 1.819-2.388 1.877-2.342 1.935-2.294 1.99q-1.136 1.01-2.245 2.047t-2.195 2.101q-1.084 1.064-2.143 2.154t-2.09 2.205C13.17 68.717 1.857 100.288 3.436 134.824q.077 1.508.19 3.014.114 1.507.264 3.01t.338 3q.186 1.5.41 2.993.223 1.494.483 2.981.26 1.488.555 2.97.296 1.48.627 2.954.332 1.474.7 2.938t.77 2.92.841 2.901.912 2.88.982 2.857 1.05 2.831q.543 1.41 1.12 2.805t1.188 2.778q.61 1.38 1.255 2.747t1.32 2.716q.678 1.35 1.388 2.683t1.452 2.649 1.516 2.612 1.579 2.575q.805 1.277 1.641 2.535.837 1.258 1.703 2.495t1.763 2.452q.896 1.216 1.822 2.409.926 1.194 1.88 2.364.955 1.17 1.937 2.317t1.993 2.27 2.048 2.22 2.101 2.17 2.154 2.118 2.204 2.065q1.122 1.031 2.27 2.036 1.148 1.004 2.32 1.98 1.171.975 2.367 1.922 1.195.946 2.413 1.863 1.219.917 2.46 1.804t2.502 1.743 2.544 1.68 2.585 1.618 2.624 1.554 2.662 1.489 2.697 1.422 2.73 1.357q1.375.66 2.765 1.288 1.39.627 2.794 1.22 1.405.594 2.824 1.152t2.851 1.081 2.877 1.012 2.901.94 2.923.869 2.944.796q1.476.38 2.962.724t2.979.652q1.494.308 2.994.578t3.008.502q1.507.235 3.019.43 1.512.198 3.029.355 1.516.16 3.036.282 1.52.123 3.042.206 1.523.084 3.047.132 1.524.047 3.049.058 1.525.007 3.05-.02 1.524-.028 3.047-.093.16-.007.321-.02c25.08-.69 50.414-10.166 70.355-25.281q4.32-3.302 8.347-6.957t7.73-7.636c18.061-19.102 29.678-45.563 32.314-71.667.557-5.52.597-11.097.437-16.638q-.107-5.384-.665-10.74t-1.56-10.647c-4.727-23.867-17.687-48.148-35.453-64.9q-5.634-5.406-11.86-10.117-1.056-.788-2.128-1.554t-2.161-1.509-2.193-1.463-2.222-1.417q-1.12-.697-2.252-1.37-1.133-.673-2.28-1.322-1.148-.65-2.308-1.274-1.16-.625-2.334-1.225-1.173-.6-2.359-1.176-1.186-.575-2.383-1.126t-2.407-1.075-2.428-1.025-2.45-.973-2.47-.922q-1.239-.447-2.487-.87-1.25-.42-2.506-.816-1.258-.395-2.523-.764t-2.538-.711-2.553-.657-2.566-.604-2.578-.55-2.589-.495q-1.297-.233-2.598-.44-1.302-.207-2.608-.386-1.305-.179-2.615-.33-1.309-.152-2.621-.277-1.312-.124-2.626-.22-1.315-.097-2.631-.166-1.316-.068-2.634-.11-1.317-.04-2.635-.054t-2.636 0-2.635.057q-.753.02-1.505.064"/><path d="M132 250.783q-1.452.052-2.904.072-1.452.018-2.904.002-1.453-.017-2.904-.067-1.452-.05-2.902-.137-1.45-.085-2.897-.206-1.448-.12-2.892-.272-1.444-.155-2.884-.344t-2.875-.411q-1.436-.223-2.865-.48t-2.853-.548-2.838-.616q-1.416-.325-2.823-.684-1.408-.358-2.806-.75t-2.788-.818q-1.388-.425-2.767-.883-1.378-.458-2.745-.949t-2.722-1.014-2.697-1.079q-1.341-.555-2.67-1.143-1.328-.587-2.642-1.206t-2.613-1.269-2.582-1.33-2.55-1.392-2.515-1.452-2.48-1.512-2.444-1.57-2.405-1.629-2.366-1.685-2.325-1.74-2.283-1.796q-1.131-.912-2.24-1.85-1.108-.939-2.195-1.903-1.143-1.006-2.262-2.04t-2.21-2.095q-1.093-1.062-2.158-2.15-1.065-1.09-2.103-2.204t-2.048-2.255q-1.01-1.14-1.99-2.305-.982-1.166-1.934-2.355-.951-1.189-1.873-2.401-.922-1.213-1.813-2.448-.892-1.236-1.751-2.493-.86-1.257-1.69-2.535-.828-1.278-1.624-2.576t-1.56-2.616q-.765-1.318-1.495-2.654-.731-1.337-1.428-2.69-.698-1.355-1.36-2.726-.664-1.371-1.293-2.759t-1.223-2.79-1.153-2.819-1.082-2.847-1.011-2.874-.939-2.898-.867-2.92-.793-2.94q-.378-1.476-.72-2.96-.341-1.485-.646-2.977-.304-1.493-.571-2.992-.267-1.5-.497-3.005-.23-1.506-.421-3.017-.192-1.511-.346-3.027-.155-1.515-.271-3.034t-.195-3.04q-.082-1.507-.127-3.015-.044-1.509-.052-3.018-.007-1.51.022-3.018.03-1.51.096-3.017.067-1.508.17-3.014t.245-3.008q.14-1.503.318-3.002t.392-2.992.465-2.983.539-2.97.611-2.956.684-2.94.756-2.922.828-2.902.898-2.882.97-2.858 1.039-2.834 1.108-2.808q.572-1.397 1.178-2.779.605-1.382 1.245-2.75.64-1.367 1.312-2.718.673-1.35 1.38-2.684.705-1.335 1.444-2.65.738-1.317 1.509-2.615.77-1.297 1.573-2.576.802-1.278 1.636-2.536t1.697-2.496 1.759-2.453 1.818-2.41 1.877-2.363 1.935-2.317 1.99-2.269q.779-.87 1.573-1.724t1.604-1.693 1.637-1.663 1.668-1.631q.843-.808 1.7-1.6.857-.79 1.729-1.565t1.759-1.533 1.788-1.5q.9-.74 1.816-1.464.915-.724 1.843-1.43.93-.706 1.871-1.394.942-.689 1.897-1.359t1.923-1.321 1.947-1.285 1.972-1.248 1.995-1.21 2.018-1.17 2.04-1.133q1.025-.557 2.06-1.094 1.037-.536 2.082-1.053 1.046-.517 2.102-1.014t2.12-.974 2.138-.933 2.156-.892 2.173-.85 2.189-.81q1.098-.393 2.203-.766 1.106-.373 2.218-.725t2.23-.682 2.245-.64 2.255-.597 2.267-.553c8.044-1.855 16.12-2.787 24.352-3.24l.028-.003c4.733-.2 9.453.026 14.168.44 26.473 2.317 52.827 13.451 72.43 31.543q1.13 1.04 2.233 2.107 1.102 1.067 2.179 2.161t2.125 2.215q1.049 1.12 2.07 2.267t2.013 2.317q.991 1.172 1.954 2.367t1.895 2.414 1.835 2.462q.902 1.241 1.773 2.505t1.71 2.549q.84 1.285 1.647 2.59.808 1.306 1.582 2.63.775 1.326 1.516 2.67.742 1.344 1.45 2.706t1.382 2.74q.673 1.38 1.313 2.775t1.244 2.806 1.174 2.836 1.104 2.864 1.032 2.89q.498 1.453.96 2.916.462 1.464.887 2.939.426 1.474.815 2.96.388 1.484.74 2.978t.666 2.997q.315 1.502.592 3.012t.517 3.025.442 3.038.367 3.047q.162 1.527.29 3.056.125 1.53.215 3.062.088 1.532.137 3.066.055 1.502.076 3.005.017 1.503 0 3.006-.02 1.503-.076 3.005-.054 1.502-.147 3.002t-.222 2.998-.298 2.99q-.166 1.494-.37 2.984t-.443 2.972-.517 2.962-.59 2.947-.662 2.932-.735 2.915q-.385 1.452-.806 2.895t-.877 2.875-.949 2.852q-.491 1.42-1.018 2.828-.526 1.408-1.088 2.802-.561 1.395-1.156 2.775-.596 1.38-1.225 2.745-.63 1.364-1.292 2.713-.663 1.35-1.359 2.682t-1.425 2.647q-.728 1.314-1.489 2.61-.76 1.297-1.553 2.573-.793 1.278-1.617 2.535t-1.678 2.493-1.74 2.452-1.8 2.407q-.914 1.193-1.858 2.362-.943 1.17-1.916 2.316-.972 1.146-1.973 2.268-1 1.122-2.028 2.219-1.032 1.103-2.092 2.18-1.059 1.078-2.144 2.13t-2.196 2.076-2.247 2.021-2.296 1.965q-1.16.97-2.343 1.909t-2.39 1.85q-1.205.91-2.433 1.791-1.229.88-2.478 1.73-1.25.851-2.52 1.67-1.27.82-2.559 1.607t-2.598 1.543-2.635 1.48-2.672 1.413q-1.344.69-2.704 1.348-1.361.657-2.737 1.28-1.377.625-2.768 1.214-1.392.59-2.797 1.145t-2.824 1.076-2.85 1.006-2.874.935-2.895.865-2.916.794-2.935.721-2.951.65-2.967.576-2.98.503q-1.493.233-2.992.43t-3 .357-3.01.282q-1.505.123-3.014.208-1.509.087-3.02.135M177.75 26.53l.07.065c.738.865 1.725 1.59 2.526 2.414 1.656 1.7 3.215 3.487 4.805 5.247.391.434.816.948 1.344 1.212.105-1.31.107-2.27-.549-3.46-1.538-2.788-5.212-4.552-8.126-5.413zm30.695 21.113c1.283 1.167 1.892 2.781 1.995 4.488.097 1.63-.412 3.218-.571 4.826-.117 1.182.034 2.274.233 3.438 1.583-6.238 4.847-6.442.773-13.292-.84-1.412-1.763-2.748-2.703-4.095l-1.031-1.447c2.962 7.497-6.656 9.915 2.431 18.302-.155-1.023-.247-1.976-.156-3.01.187-2.109.908-4.005.341-6.142-.294-1.11-.852-2.033-1.312-3.068M49.615 67.51c-2.46.938-3.477 2.301-5.235 4.147 1.58-.542 3.227-1.322 4.599-2.277.245-.62.468-1.223.636-1.87l.985-2.282q-.595.086-1.184.2c-3.145.606-4.635 2.13-6.365 4.688-.512.746-.93 1.5-1.324 2.313 2.418-.698 3.069-1.901 4.754-3.56.895-.879 1.867-1.375 3.134-1.36M33.318 98.988l-.063.133zc2.274-2.924 5.335-2.944 8.724-3.38.385-1.663.69-3.35 1.024-5.024-1.425.78-2.95 1.39-4.399 2.131-2.898 1.484-4.357 3.19-5.35 6.273m-4.376 23.174c1.803-1.619 4.884-4.47 6.83-5.687-1.361 1.833-4.766 4.248-6.577 6.003l1.038 1.695c3.118-1.393 5.234-3.333 8.748-4.005.139-3.218.298-6.424.68-9.624.009-.27.024-.437-.11-.678l-.274-.051c-3.327 1.185-6.411 3.293-8.195 6.422-1.023 1.795-1.837 3.605-3.059 5.295zm7.628 17.4c-1.809-1.223-6.228-4.84-7.661-6.463l-1.051.632c2.163 4.522 4.394 9.685 9.514 11.476.894.312 1.777.442 2.725.457q-.504-5.239-.858-10.49c-3.095-.195-6.232-2.45-9.29-3.414l-.656 1.062a28 28 0 0 0 2.241 2.234c1.295 1.135 4.242 3.129 5.036 4.506m-3.172 17.704.078.03c1.198 3.277 2.357 6.458 5.525 8.311 2.205-.019 3.47.2 5.293 1.513q-1.124-4.1-2.125-8.232c-3.687.032-5.264-.25-8.693-1.592zm147.796 45.65-.068.058zc.919-.305 1.947-1.143 2.763-1.696-1.084.194-2.052.864-2.763 1.696m-7.087 5.738c-1.066-.09-2.13-.238-3.198-.307-3.547-.23-8.155.763-10.868 3.185-.56.5-1.472 1.405-1.514 2.17l.165.127.287-.134.119-.338c-.025.673-.154 1.23.162 1.861l-.037-.288c.287.836.24 1.533-.1 2.344a4 4 0 0 0-.172-.628c-.268.561-.371 1.194-.649 1.737-.096.19-.129.167-.332.225-.763.218-1.023.957-1.648 1.386-.361.248-.663.555-.978.858q.455.481.92.953c1.26 1.262 2.606 1.371 4.284 1.388-.81-1.63-1.637-3.457-1.288-5.33.41-2.196 2.225-3.676 3.99-4.822 2.155-1.291 4.956-1.645 7.423-1.677 1.205-.768 2.373-1.756 3.434-2.71M98.51 223.107l-.24.221.134.142.15-.076zc.11-.02.05-.017.202.012l.124.025c.552-.208 1.08-1.107 1.44-1.583.438-.583.528-.94.635-1.644-.596-1.025-1.685-1.654-2.217-2.667-.364-.692-.869-1.952-.567-2.72q.044-.11.092-.218c-1.175-1.808-3.06-3.218-4.999-4.115-5.765-2.67-11.206-1.103-16.853 1l-1.984.553c.732.869 1.526 1.685 2.306 2.511 1.9-1.15 4.058-2.057 6.227-2.545q.346-.08.696-.144.35-.062.702-.108t.707-.073.71-.038q.355-.01.71-.003.355.008.71.033.354.025.707.069.353.042.703.103t.697.138q.346.078.689.173t.68.207q.337.113.668.242.331.128.656.273.324.145.64.306.317.162.626.338.308.177.607.369c3.36 2.167 4.531 4.522 5.34 8.33-.045.024-.091.046-.133.075-.29.203-.395.528-.47.858zm-17.544-4.5c2.733 3.202 8.483 7.06 12.634 8.084l.15.047-.15-.047c-1.145-1.124-2.256-2.215-3.528-3.202-2.044-1.586-6.557-4.376-9.106-4.882M129.84 12.063c-.166 1.162-.078 2.403-.049 3.576 5.405-.051 10.82-.224 16.225-.366l.134-.104c-.657-.346-1.394-.496-2.08-.779-.733-.302-1.544-.43-2.311-.623-3.869-.978-7.922-1.638-11.92-1.704m-6.756.114c-4.588.37-9.11 1.285-13.41 2.952l3.537.004q6.455.144 12.912.191l-.005-3.24c-1.01.014-2.03-.003-3.034.093m4.323-.075q.054 3.975.037 7.95c-.002 1.396-.129 2.91.064 4.288.268.213.608.156.933.154l-.013-7.691c-.002-1.487.094-3.057-.08-4.531-.27-.197-.61-.149-.94-.17m-20.577 4.333c-2.026.133-5.749 1.974-7.468 3.127 6.19.323 12.374.459 18.563.719l-.121.126c.236-.113.192-.127.477-.08-1.766.255-3.68.137-5.468.148l-10.554.024c-1.63 0-3.565-.227-5.137.2-1.661.451-4.132 2.14-5.43 3.274 5.223.698 10.539.442 15.784.837-2.283.299-4.664.232-6.965.288l-11.088.324c-1.726 1.273-3.56 2.564-5.108 4.048 2.172.325 4.398.43 6.588.59-2.68.366-5.43.25-8.093.74-3.122 2.387-5.849 5.748-8.413 8.702-2.559 2.948-4.822 6.075-7.038 9.283-12.046 17.443-18.337 37.025-21.128 57.91-.745 5.577-1.031 11.187-1.165 16.807 7.658.043 15.388.206 23.042.001.065-1.274.155-2.552.168-3.829-.885-.756-1.153-1.602-1.485-2.677l1.98.004c.074-1.742.578-5.972-.01-7.449-.388-.972-1.11-1.711-1.489-2.727l2.296-.055q.06-3.532.027-7.065c-.91-.751-1.312-1.722-1.599-2.84l2.036.025c0-2.182.065-4.387-.055-6.565a10.2 10.2 0 0 1-1.611-2.596l2.256-.09c.038-1.866.425-4.308-.293-6.045-.368-.89-.96-1.674-1.291-2.572l2.107-.029c.228-4.179.12-4.64-1.529-8.486l1.865-.007c.011-2.04.346-4.67-.225-6.619-.188-.642-.566-1.282-.822-1.909.623-.035 2.024.041 2.487-.413.025-.025.043-.057.064-.086l-.082-.403c.26-.325.836-.402 1.233-.445q.124-.013.247-.023l.075-.057.107.01c-.496-.473-1.001-.944-1.434-1.477l.083-.084c.722-.706 2.367-1.332 2.368-2.474 0-.255-.04-.529-.069-.782.142-.398.47-.605.787-.862l.014-.185c.184-2.645-.448-11.663.403-13.399l.207-.157c.149.04.319.034.406.175.38.616.12 11.739.186 13.49.365.244.779.455.966.87l-.02.23c-.013.156-.039.336-.038.489 0 .524.542 1.065.918 1.376.62.51 1.315.946 1.888 1.51-.6.433-1.077.857-1.576 1.41.507.052 1.14.042 1.579.317.025.262.004.376-.058.624.42.323 1.87.342 2.445.42a10 10 0 0 1-.966 1.904l.009 6.617 1.521.046c-.306 1.182-.58 2.206-1.248 3.247 0 1.746-.028 3.496.006 5.241.496-.031 1.015-.13 1.475.092.18.218.303.323.277.63-.059.698-.891 1.6-1.35 2.088q-.098 2.891-.097 5.785l2.117.072c-.293.946-.637 1.69-1.233 2.495-.054 2.145-.112 4.355.073 6.492l1.87-.015a9.6 9.6 0 0 1-1.57 2.88c.001 2.374-.044 4.77.111 7.14l1.946-.011c-.331 1.113-.835 1.888-1.534 2.8-.012 2.495.005 5.075.22 7.561l2.047-.058c-.304 1.169-.824 1.995-1.517 2.966.154 1.144.12 2.321.136 3.473 2.666-1.009 5.328-2.242 8.03-3.125 2.752-.899 5.609-1.448 8.368-2.324 2.974-.945 5.802-2.312 8.813-3.136 2.541-.695 5.25-.856 7.867-1.082 5.161-.445 10.122 1.45 15.218.138 4.036-1.04 7.61-2.939 11.069-5.213.918-.603 1.76-1.479 2.736-1.965 2.117-1.056 4.535-1.463 6.701-2.48 5.4-2.537 7.208-7.254 13.488-7.626 2.203-.13 4.459.382 6.464 1.28 4.202 1.884 8.446 4.217 12.965 5.277 2.766.648 6.708.191 9.613.111q6.117-.205 12.236-.267c-.158-.988-.316-1.972-.536-2.95q-12.218-.17-24.42-.819l.077.004c2.868-.335 5.823-.342 8.71-.444q7.653-.282 15.31-.436l-.578-2.765c-6.006.15-12.114-.163-18.121-.373-.606-.02-5.095-.307-5.26-.265l.386.075-.387-.073.137-.044.053.1c.027-.022.05-.048.08-.066.526-.316 20.458-.913 22.771-.985-.24-.919-.46-1.85-.735-2.76-4.856.022-9.73-.196-14.583-.378-2.078-.077-4.373.072-6.404-.335 3.617-.308 7.264-.412 10.89-.56 3.206-.131 6.423-.318 9.63-.379-.237-.943-.46-1.893-.723-2.83-1.848-.015-18.301-.322-19.156-.792 2.786-.265 5.632-.254 8.432-.363 3.4-.134 6.808-.366 10.21-.413-.25-.97-.551-1.898-.9-2.837q-4.618-.104-9.23-.346c-2.145-.099-4.387-.097-6.496-.495 2.19-.186 4.386-.214 6.577-.372 2.875-.144 5.764-.213 8.635-.404-.286-.906-.553-1.825-.861-2.724-2.74-.049-16.782-.248-18.096-.857 5.812-.185 11.654-.733 17.465-.726-.335-.947-.644-1.916-1.064-2.83-5.89-.038-11.861-.313-17.74-.702 2.018-.41 4.23-.359 6.29-.45q5.379-.215 10.753-.498c-.343-.935-.686-1.862-1.102-2.768q-8.209-.292-16.41-.774c1.66-.415 3.664-.331 5.375-.41q5.176-.251 10.356-.386c-.35-.906-.706-1.8-1.125-2.675q-5.526-.32-11.055-.57c-1.678-.088-3.386-.108-5.054-.305 2.48-.29 5.003-.359 7.497-.467 2.589-.112 5.19-.258 7.781-.25a49 49 0 0 0-1.686-3.007c-5.312-.097-10.835-.23-16.12-.748 2.019-.418 4.302-.293 6.364-.369 3.001-.111 6.01-.308 9.012-.366-.518-.96-1.025-1.923-1.608-2.845-1.871-.156-14.386-.403-15.174-.858l14.288-.644c-.597-.935-1.187-1.876-1.82-2.788-3.029-.249-6.04-.385-9.077-.499-2.006-.075-4.092-.022-6.07-.374 4.687-.193 9.368-.546 14.055-.701a65 65 0 0 1-1.645-2.696c-2.827-.11-5.65-.307-8.475-.439-2.125-.098-4.316-.097-6.427-.344 2.647-.205 5.302-.275 7.954-.379 1.926-.075 3.855-.216 5.782-.21-.662-.96-1.298-1.97-2.077-2.84-4.94-.36-9.93-.472-14.882-.552.193-.191 12.034-.777 13.553-.89-.66-1-1.264-1.91-2.199-2.68-4.93-.391-9.928-.222-14.84-.712 4.166-.624 9.205-.41 13.512-.812-.813-.983-1.62-1.981-2.607-2.798-3.437-.254-6.911-.354-10.357-.47-1.908-.064-3.88-.034-5.77-.283l-.103-.133-.079.097-.007-.074.346.139-.165-.171.044.155.127.02.078-.198q7.188-.227 14.37-.581c-.955-.987-1.96-1.911-2.974-2.837q-6.002-.154-12.001-.438c-2.549-.102-5.147-.12-7.681-.409 1.684-.341 3.617-.248 5.343-.31 4.208-.151 8.43-.166 12.633-.363-1.137-.87-2.43-2.305-3.741-2.836-1.26-.51-5.012-.318-6.486-.36l-9.641-.307c-2.002-.067-4.04-.059-6.03-.293 2.424-.254 4.875-.273 7.309-.39 4.071-.195 8.157-.412 12.232-.45-1.336-.937-2.867-2.24-4.439-2.715-1.485-.45-4.486-.231-6.146-.27l-14.524-.431c-2.271-.061-4.826.144-7.055-.214 8.202-.474 16.45-.367 24.65-.914-1.949-.978-4.23-2.348-6.364-2.823-1.833-.408-4.389-.09-6.327-.125-4.682-.084-9.382-.338-14.065-.26l.023 9.288c1.714-.017 3.602-.17 4.93 1.136.648.635.964 1.391 1.248 2.234 1.385.813 2.807 1.622 4.059 2.634 3.513 2.84 5.971 7.19 7.117 11.522q.08.296.153.594.072.298.138.598.065.3.123.6.058.302.108.605.05.302.094.606.042.304.078.609t.063.61q.028.306.047.611.02.307.033.613.013.307.018.614.005.306.002.613t-.013.614-.029.612q-.017.307-.043.613-.026.305-.059.61t-.074.61q-.04.303-.089.606t-.104.605q-.056.302-.119.602t-.134.599q-.07.298-.149.595t-.163.591q-.086.295-.179.587-.093.293-.192.583-.1.29-.207.577-.108.288-.222.572-.114.285-.236.567t-.25.56-.263.554-.277.548-.29.54q-.15.269-.305.533c-1.678 2.854-3.917 5.355-6.714 7.145.017 1.185.25 2.902-.277 3.976-1.106.58-7.046.25-8.675.243l-.008 6.536c.76.287 1.34.59 1.68 1.367.222.506.249 1.146.313 1.692-.84 1.447-.655 2.878-.62 4.488l.811.801c.01 6.635.113 13.296-.034 19.928-1.886-.015-3.78-.072-5.662.09q.052-9.955-.098-19.908c.243-.292.478-.597.752-.861.017-1.071.111-2.225-.037-3.285-.167-1.188-1.387-2.189-.123-3.4.758-.727 1.407-.54 1.52-1.784.165-1.828 0-3.807-.011-5.647-2.114.003-7.4.308-9.115-.254-.424-.69-.115-2.68-.074-3.518-1.171-.91-2.374-1.792-3.425-2.843-3.715-3.717-6.045-9.008-6.7-14.19-.796-6.302.864-12.936 4.808-17.958 2.003-2.552 4.513-4.297 7.33-5.841.618-1.254 1.316-2.52 2.727-2.995.951-.321 2.007-.268 3-.258q.115-4.674.067-9.349c-6.417-.027-12.882-.302-19.292-.092m20.784 9.716c-.07.439-.027.708-.357 1.018-2.297.757-3.4-1.09-5.533 1.866 2.302.168 4.656.085 6.965.083 1.57-.003 4.166.245 5.601-.162.089-.284.068-.344-.001-.638-.578-.696-1.688-.884-2.552-.964-1.06-.098-2.14.008-3.204-.04-.194-.247-.207-.515-.25-.815-.221-.258-.338-.253-.669-.348M65.95 27.355l-.003.138c-.04 1.078-.459 2.13-.769 3.154-1.046 3.455-.798 6.027.935 9.191.392-.508.803-1.007 1.13-1.559-.426-1.429-2.023-4.763-1.678-6.117l.026.172c.292 1.716 1.524 3.797 1.982 5.591q1.365-1.569 2.8-3.073c2.299-2.478 4.537-5.001 7.118-7.196-2.852.521-5.171 1.626-6.851 4.079-.676.986-1.157 2.072-1.491 3.218-.255-1.006-2.653-6.968-3.199-7.598m122.614.31c.931 3.228-2.54 5.855-1.199 8.694.552 1.17 1.625 2.265 2.424 3.277l.316.301.2-.041c.37-.764.058-2.059.06-2.898.002-1.528.467-3.044.457-4.575a7 7 0 0 0-.407-2.38c-.352-.96-.994-1.816-1.851-2.378m-53.324 2.953.334.386c.261.014.16.042.317-.024-.23-.259-.313-.263-.651-.362m-14.813.22c-.382.12-.766.234-1.142.37l2.496-.085.47-.064.097-.155c-.623-.17-1.283-.108-1.92-.065m12.966-.036c.646.362 1.097.308 1.815.265-.159-.222-.177-.278-.466-.321-.421-.062-.924.023-1.35.056m-10.52.132c.728.353 3.972.297 4.835.123-.64-.494-3.567-.304-4.405-.218a2.4 2.4 0 0 0-.43.095m5.135.005c1.251.476 3.671.245 5.04.133-.907-.54-4.01-.368-5.04-.133m8.31.5c-.665-.003-1.636-.133-2.177.318-.034.028-.062.063-.093.095l.035.179c.733.41 1.292.373 2.105.352l2.173.024c-.527-.42-1.194-1.03-1.913-1-.045.002-.087.021-.13.032m-17.252.058-1.25.803c1.192.018 2.386.049 3.578.05.422-.125.436-.17.71-.52l-.049-.247c-.922-.298-2.036.184-2.989-.086m3.64.016c-.098.282-.248.519-.167.81q2.523.03 5.046.024c.033-.367.09-.423-.127-.713-1.42-.417-3.267-.117-4.752-.121m5.701.027-.251.169c-.02.238-.068.245.082.447 1.47.406 3.608.148 5.149.131l.196-.109c-.107-.309-.114-.43-.43-.583-.84-.408-3.69-.03-4.746-.055m-67.632.544c-1.853 2.581-4.817 6.957-4.313 10.255.336 2.194 2.493 3.863 4.02 5.299-.067-2.917-1.252-5.73-.964-8.666.106-.642.195-1.273.428-1.884-.008 1.578-.065 3.155.135 4.724.2 1.58.611 3.12.864 4.689 1.146-1.63 2.436-3.26 3.413-4.994-.636-2.091-2.148-3.767-2.977-5.782-.542-1.319-.256-2.586-.606-3.64m133.747.24c.169 1.37.068 2.664-.394 3.974-.811 2.299-2.752 4.179-1.556 6.763.561 1.211 1.547 2.268 2.384 3.297 1.103-3.287 1.258-4.787 1.13-8.236.446.983.518 2.022.545 3.087-.036 1.653-1.305 5.09-1.04 5.929.116.106.173.227.345.205.848-.108 2.162-2.046 2.603-2.748.944-1.501 1.249-2.806.855-4.574-.47-2.11-3.112-6.531-4.872-7.698m-77.149.281c-.699.602-1.406 1.192-2.041 1.862h4.824c.39-.02.64.044.911-.297.318-.4.445-1.095.637-1.57zm4.807.028c-.26.62-.488 1.233-.693 1.873l5.67.024.335-.048c.304-.442.162-1.33.147-1.856zm6.029-.01-.007 1.902 6.3.002c-.198-.637-.392-1.274-.622-1.9-1.889-.003-3.782-.033-5.671-.004m6.277.063c.197.614.383 1.234.601 1.84 1.829.04 3.643-.007 5.471-.042-.47-.685-1.14-1.226-1.802-1.718-1.423-.079-2.845-.076-4.27-.08m-19.445 2.051c-.543.658-1.077 1.309-1.55 2.02l6.165-.025c.222-.03.38.013.528-.174.358-.45.497-1.259.66-1.814-1.933-.008-3.87-.038-5.803-.007m6.323.039-.6 1.896 6.607.032.222-.087c.156-.57.081-1.207.066-1.793q-3.147-.06-6.296-.048m14.543.046-.472.031c-.17.267-.157.4-.095.7.086.407.242.82.369 1.218l6.072.005.463-.052c.047-.332-.075-.481-.264-.744-.296-.41-.656-.779-.97-1.176-1.691-.016-3.417-.102-5.103.018m-7.689.024-.009 1.895 6.933.01-.484-1.907q-3.22-.017-6.44.002m-14.899 2.167a21 21 0 0 0-1.194 2.002l7.156.001c.246-.094.249-.036.362-.3.226-.526.32-1.15.445-1.709zm7.362-.018q-.257 1.009-.48 2.026c2.398.004 4.798-.015 7.195.017l.21-.117c.124-.633.07-1.277.05-1.918-2.323-.005-4.653-.052-6.975-.008m7.553.036-.008 2.022 7.45-.022-.453-1.984zm7.557.043.456 1.967 7.686-.037a18 18 0 0 0-1.181-1.915zm-23.807 2.179a25 25 0 0 0-.976 2.105l7.88.018c.218-.107.23-.056.314-.305.187-.545.245-1.175.34-1.744q-3.779-.066-7.558-.074m31.379.06c-2.321.008-4.653-.035-6.972.038l.386 2.081 1.192.019 7.025-.045c-.201-.625-.395-1.637-.978-2.008-.18-.114-.445-.078-.653-.085m-23.25.02-.347 2.057 7.73.014c.305-.442.181-1.507.164-2.05q-3.774-.04-7.547-.02m8.14.032.005 2.042 7.837.006c-.11-.682-.198-1.376-.35-2.05-2.492-.015-5.001-.066-7.492.002m-17.362 2.34c-.253.791-.52 1.58-.719 2.388q4.208-.031 8.417.008c.391-.389.39-1.823.47-2.395q-4.084.02-8.168-.001m8.81.014-.297 2.396 8.188.01c.277-.56.107-1.74.087-2.38zm8.608.03c-.01.79-.036 1.584-.02 2.374l8.21-.001-.308-2.363zm8.554.05.297 2.314 8.661-.006a25 25 0 0 0-.666-2.332zm-88.387 1.684c-2.027 2.675-5.142 6.67-4.588 10.234.359 2.31 2.321 3.409 2.721 6.7 2.009-2.227 4.332-5.43 4.157-8.595-.19-3.43-2.872-4.601-2.187-8.186zm61.582 1.025c-.16.683-.324 1.361-.422 2.057 2.945.061 5.889.015 8.833.04.184-.692.205-1.408.256-2.12-2.88-.002-5.791-.088-8.667.023m9.34-.002-.288 2.106 8.483.014c.242-.547.096-1.508.09-2.116zm8.872.03c-.008.698-.023 1.397-.02 2.096l8.466.006-.155-2.115c-2.761.002-5.53-.039-8.291.012m8.971-.007c.022.713.048 1.412.143 2.12l9.009-.002c-.128-.712-.24-1.43-.423-2.13-2.908-.001-5.82-.029-8.729.012m-27.623 2.456a21 21 0 0 0-.246 2.303c2.992.074 5.989.003 8.981.016.038-.767.051-1.544.125-2.308zm9.51.023c-.066.78-.136 1.555-.131 2.34l8.679.002c.008-.776.033-1.556.017-2.331zm17.022.056q-3.948.023-7.895.002c-.029.614-.205 1.654.141 2.18.197.051.3.067.51.06q3.985-.028 7.97-.015c-.006-.694.046-1.406-.187-2.067-.242-.185-.252-.147-.539-.16m1.24.028.123 2.233q4.547-.055 9.095.006a24 24 0 0 0-.16-2.258zm60.601 1.486c-.121 1.807 1.185 3.411 2.313 4.709.465.535 1.407 1.63 2.142 1.662.123.006.29-.018.411-.032.067-1.56-.484-2.846-1.521-4.002-.833-.928-2.178-1.907-3.345-2.337M56.553 49.662c-1.099.26-1.936.734-2.536 1.72-.732 1.204-.787 2.77-.951 4.139l1.022-1.268c1.435-1.724 3.074-2.926 4.706-4.424-.757-.105-1.475-.198-2.241-.167m52.832.065c.003.778.025 1.519.145 2.288 2.913.243 5.913.106 8.838.099l-.001-2.387zm9.616.014-.006 2.388c1.98.015 7.017.285 8.69-.035l-.004-2.362zm9.272-.031-.004 2.46c2.868-.005 5.74-.036 8.608-.007l-.015-2.454c-2.857-.013-5.733-.071-8.589.001m9.277.002c-.002.816-.02 1.634.053 2.449 2.967-.007 5.939-.047 8.905-.014.06-.81.113-1.61.1-2.424-3.018-.004-6.04-.042-9.058-.011m-27.97 2.747c.075.79.198 1.544.36 2.32q4.236-.015 8.47.03l-.037-2.307c-2.928.005-5.867.06-8.793-.043m9.427.059c.005.772-.006 1.545.082 2.314l8.593.012V52.54zm9.27.038q-.028 1.154-.018 2.309h8.607l.006-2.34zm9.322-.023c-.03.779-.069 1.559-.087 2.338 2.59-.017 6.191.181 8.67-.111.1-.747.211-1.495.292-2.244q-4.438-.014-8.875.017m-27.569 2.63c.171.769.401 1.489.666 2.23 2.645.062 5.29.19 7.935.242q-.065-1.206-.159-2.41zm9.09.073q.042 1.236.153 2.469c2.787.069 5.636.18 8.42.073l.001-2.538zm9.142.007-.007 2.636c2.796.012 5.601.049 8.394-.11q.11-1.263.177-2.53zm9.235.011a26 26 0 0 0-.157 2.43c2.33-.098 5.996-.005 8.142-.372q.28-1.046.547-2.094zm-26.64 2.502c.331.94.695 1.825 1.15 2.713 2.293.014 4.618.134 6.905.303-.086-.922-.15-1.854-.292-2.77-2.572-.071-5.195-.292-7.763-.247m32.558.066c-2.034.069-4.117.042-6.135.305q-.197 1.367-.327 2.743l1.391-.098c1.893-.107 3.8-.171 5.685-.38.548-.856.963-1.734 1.308-2.69zm-24.087.261c.052.928.131 1.84.257 2.76 1.464.021 7.045.307 8.099 0l.01-2.63q-4.184-.022-8.366-.13m15.085.111q-3.077.093-6.155.054l-.002 2.745 2.198-.004c1.958-.044 3.923-.128 5.881-.12.094-.914.185-1.828.314-2.74-.744.019-1.493.023-2.236.065m-96.894.37c-.546 1.304-.486 2.488.058 3.79.257.614 3.757 6.486 3.97 6.682.597-1.596.626-3.142-.108-4.707-.801-1.708-2.337-2.82-3.325-4.384-.277-.438-.37-.93-.595-1.381m163.963.004c.227.445.443.901.686 1.338.965.349 1.82.52 2.473 1.389-.354.05-1.809-.754-2.254-.928l1.434 3.164 2.773-.091q1.66-.03 3.32-.003c-2.226-2.928-5.011-4.004-8.431-4.87m16.964.029-.064.162c-1.239 3.001-5.055 5.622-3.611 9.193q.143.354.297.704c.333-.068.352-.203.54-.481 1.188-1.759 2.71-4.964 3.082-7.047.133-.744.04-1.629-.109-2.365zm-165.625.447c-1.956.27-3.68.794-4.927 2.45-.552.732-.911 1.575-1.262 2.416 1.234-.87 2.748-2.084 4.284-2.247l.045.049-.02.005c-1.227.56-2.469 1.173-3.593 1.92q1.95-.242 3.907-.418c.163-.29.538-.745.402-1.07-.033-.08-.133-.217-.185-.29l.01-.048.457-.059c.535-.723 1.04-1.74 1.253-2.613l-.132-.12zm59.435 1.743c.171.562.433 1.035.715 1.546q3.154.233 6.316.334L119 61.132q-3.373-.155-6.744-.345m29.224.161c-1.532.103-3.081.135-4.61.267l-.31 1.69c.647-.068 1.298-.156 1.95-.17 1.458-.116 2.922-.105 4.384-.115.315-.598.64-1.192.941-1.796-.783.039-1.574.058-2.355.124m-21.8.26c.084.545.153 1.099.277 1.636 2.563.06 5.17.147 7.733.04l-.01-1.59zm13.373.111q-2.396.06-4.792.04v1.55l3.27-.002 4.42-.008.34-1.694c-1.079.035-2.161.053-3.238.114m-19.927 1.249c.37.576.726 1.119 1.189 1.627q2.685.139 5.372.244l-.388-1.46c-2.058-.132-4.122-.189-6.173-.411m29.111.236c-1.911.06-3.855.066-5.754.313-.098.42-.277.921-.184 1.345.088.022.206.066.295.064q2.513-.06 5.022-.206c.336-.42.794-.877.96-1.391l-.104-.134zm-22.156.257c-.019.501.108.931.234 1.411l7.397.087-.01-1.435q-3.811.001-7.62-.063m8.181.06c-.006.46-.077.998.122 1.422 1.713.255 5.395.17 7.2.004l.368-1.447q-3.845-.011-7.69.021m96.37 1.093c.068 1.947-.363 3.363-1.715 4.81-1.562 1.673-3.735 3.085-3.69 5.648.033 1.878 1.095 3.671 1.701 5.41.28-3.308 2.138-5.68 3.575-8.565.486-.975.834-1.994 1.156-3.031-.046.619-.085 1.206-.248 1.809-1.23 3.629-3.87 6.318-4.094 10.285 2.968-3.074 6.904-2.619 6.85-8.36-.024-2.438-1.642-6.213-3.396-7.878zm-194.202.248c-1.358 3.01-3.67 7.619-2.322 10.968 1.198 2.974 4.963 2.693 6.188 6.01l.177-.02c1.3-2.32 2.622-5.257 1.857-7.963-.782-2.77-3.326-4.046-4.782-6.36-.383-.61-.754-2.288-1.118-2.635m84.136.02a27 27 0 0 0 1.77 2.006l4.102.209-.646-1.932zm25.091.212c-1.193.045-2.399.053-3.587.162l-.552 1.805 1.2-.02c.961-.016 1.91-.02 2.862-.16a43 43 0 0 0 1.838-1.89zm-19.262.072c.204.656.388 1.33.62 1.975 2.238.005 4.483.047 6.721.01l-.006-1.88q-3.668-.025-7.335-.105m7.868.122-.004 1.881c.914 0 6.216.207 6.754-.231l.51-1.671q-3.63.03-7.26.021m76.313.554c.954 2.194 3.534 2.572 5.33 3.841-1.52-.456-3-1.021-4.334-1.894q.726 1.92 1.526 3.808l1.373-.203c1.808-.266 3.615-.412 5.432-.595-2.342-2.866-5.682-4.525-9.327-4.957m-87.907 1.303a20 20 0 0 0 1.895 1.555 29 29 0 0 0 2.585.082l-.596-1.353zm22.324.077c-.941.035-3.244-.148-3.88.553-.13.143-.095.262-.107.444.142.326.24.451.53.657.96.162 1.597.006 2.402-.558.4-.28.768-.607 1.133-.93l-.027-.144zm-5.888.243-4.841.03v1.918l1.673-.002 3.433-.019c.864-.577 1.114-1.056 1.484-1.987zm-11.976.026c.277.686.562 1.312.95 1.944l5.676-.016-.008-1.9zm13.74 1.245c-.202.269-.392.38-.348.728.427.202 1.109.047 1.575.006l.263-.13-.062-.133c-.518-.1-.984-.163-1.428-.47m-16.009.3c.866.648 1.719.548 2.75.457-.4-.421-.618-.495-1.19-.512-.519-.015-1.042.025-1.56.054m.892 1.99-.016 1.785 16.704-.11-.015-1.656zM70.73 71.64c.192.412.247.637.62.906 1.333.222 2.834.07 4.188.055l7.51-.078c-.028-.357.016-.57-.216-.849-1.471-.197-3.053-.07-4.539-.07-2.519 0-5.046-.047-7.563.036m-23.855 3.745-.155.068c-1.049.445-2.134.495-3.219.794-2.548.701-4.898 2.576-5.934 5.032-.22.521-.41 1.06-.598 1.593 1.823-1.096 3.365-2.58 5.179-3.636 1.153-.588 2.277-1.089 3.588-1.183-2.11.86-3.928 1.72-5.645 3.259 1.794-.224 3.384-.388 5.121.217.388-1.385 1.662-4.93 1.756-6.063zm162.186.894c.131.742.37 1.414.627 2.119 1.102.132 2.204.213 3.227.68-1.05-.114-2.11-.203-3.153-.365.217.805.409 1.63.674 2.419 1.728.198 3.549.459 5.284.484.775.046 2.371.317 2.989-.132.006-.484-.294-.79-.62-1.129-2.333-2.436-5.729-3.759-9.028-4.076M70.342 79.97c.156.33.237.661.54.87 2.634.161 5.305.092 7.945.116 1.309.012 2.904.204 4.17-.028.198-.036.356-.148.523-.25l.147-.505c-1.436-.309-3.17-.144-4.648-.153zm57.56 1.41c-.403.188-.809.343-1.133.658l.024.19c.496.2 1.025.138 1.55.126.476.042.95.138 1.34-.17-.124-.324-.391-.447-.7-.6-.342-.17-.706-.193-1.08-.204M25.269 82.696c-1.154 2.59-3.386 6.563-2.264 9.447.96 2.47 4.182 2.71 5.293 5.043.282.59.403 1.305.535 1.944.235-.58.479-1.139.771-1.694-.73-2.804-2.728-5.084-3.606-7.854-.198-.88-.475-1.828-.311-2.732.538.863.588 2.323 1.002 3.319.961 2.312 2.29 4.437 3.206 6.771.972-1.73 1.632-3.598 1.035-5.584-.704-2.345-2.636-3.954-3.964-5.923-.575-.853-1.028-1.98-1.697-2.737m205.207.262q-.806 1.438-1.799 2.754c-1.365 1.824-3.512 3.731-3.835 6.063-.213 1.538.234 3.356.662 4.822l.075.24c.79-3.448 3.043-5.029 3.919-7.995.363-1.229.394-2.44.44-3.708.007-.198.007-.134.114-.347l.078.04-.026.107c.371.546.134 2.249.019 2.925-.786 4.342-4.34 5.867-3.878 10.643l.103-.108c2.571-2.644 6.815-2.898 6.857-7.555.018-2.107-1.262-6.333-2.704-7.858zm-103.1.662c-.001 1.39-.028 2.785.008 4.173l1.76-.037c.016-1.17.383-2.903-.197-3.932-.517-.354-.969-.26-1.57-.204m-83.75 4.276-.142.069c-3.96 1.839-7.995 1.38-9.856 6.237q-.183.466-.319.948t-.225.974-.131.99q-.041.5-.034 1l.108.152c2.448-6.085 5.405-5.272 10.24-8.344.164-.609.441-1.321.438-1.95zm36.907.92q-3.394.022-6.787.001c-1.258-.004-2.649-.124-3.89.067l-.062.159c.258.38.55.56.996.643.686.128 1.484.054 2.183.048 2.236.015 9.076.375 10.77-.255l.229-.299c-.26-.285-.52-.4-.91-.432-.822-.068-1.701.048-2.529.067m132.316-.101c.21 1.006.442 1.988.742 2.972 2.19.473 4.159 1.195 5.903 2.636-1.866-.924-3.66-1.827-5.74-2.161l.679 3.368 1.792.207c2.282.114 4.75.43 7.016.251-.895-2.614-3.395-4.769-5.824-5.978-1.44-.717-2.965-1.167-4.568-1.295m-86.052.383q.08 5.708.051 11.416c-.01 1.97-.127 3.992-.034 5.957.016.343-.007.77.206 1.043.396-1.124.141-12.168.134-14.33-.003-1-.172-2.128.006-3.105.064-.352.158-.532.471-.7.189.05.287.026.397.208.177.294.204.617.22.954.057 1.234-.064 2.517-.066 3.758l-.026 10.55c-.002.917-.13 1.892-.017 2.798.288.08.352.106.636.03q-.04-.052-.078-.105a1.1 1.1 0 0 1-.187-.54l-.012-11.88c-.001-1.607-.147-3.318-.04-4.913.022-.314.033-.568.217-.834.322-.076.368-.035.68.088.159.202.245.285.278.546.266 2.077-.386 17.301.06 17.665l.213-.021c.29-.78.118-16.538.073-18.566zm-53.39 8.84c-1.17.002-3.309-.25-4.346.263.335.42 1.423.531 1.963.583.942.09 1.922-.018 2.87-.02h6.42c.79.004 3.572.264 4.1-.23.107-.1.173-.22.249-.341l-.077-.21c-.756-.286-9.697-.093-11.178-.046m94.213 2.096c-3.667.595-6.96 4.628-10.089 6.555-2.173 1.338-4.53 2.138-6.597 3.708-1.875 1.425-3.472 3.166-5.218 4.737-1.963 1.765-4.744 3.606-6.27 5.715-.244.338-.48.654-.475 1.077 1.088.162 3.215-1.54 4.058-2.16 3.264-2.397 6.278-6.343 9.633-8.216 1.355-.756 2.885-1.234 4.362-1.697 1.667-.522 3.462-1.043 5.218-1.111l-.067.146c-.646 1.374-2.73 4.326-2.304 5.943.272.102.163.12.408.004 2.034-.968 4.168-6.112 6.325-7.453.549-.341 1.477-.357 2.082-.174.43.13.853.38 1.247.596 1.676 1.033 3.971 2.122 5.302 3.543.79.843 1.35 2.037 2.001 3 1.257 1.858 6.244 8.924 8.555 8.393.06-.013.117-.035.175-.052l.058-.152c-.856-1.496-2.552-2.73-3.624-4.114-2.745-3.543-7.614-10.862-9.449-14.889 1.882.692 3.426 1.79 5.206 2.66 2.363 1.153 4.802 1.724 7.347 2.318 1.07.25 2.407.686 3.501.49l.113-.187c-.847-1.44-7.686-3.657-9.598-4.501-2.877-1.27-5.595-2.972-8.661-3.773-1.055-.276-2.146-.439-3.239-.406m69.379 3.216c-1.41.398-2.673 1.718-4.067 1.843-2.39.215-6.457-3.05-8.13.128-.933 1.772-.113 4.843.49 6.629.875 2.593 3.442 5.785 4.79 8.49.757-.191 1.512-.406 2.288-.506q.118-1.213.206-2.428c.021-1.605-.186-4.082.13-5.592.586 1.021.153 6.54.012 8.011.591.096 1.178.187 1.76.329l.072-.177c1.713-4.19 7.562-9.121 5.647-14.072-.376-.974-1.251-2.05-2.216-2.481-.329-.147-.627-.165-.982-.174m-208.855.138c-1.8.485-3.185 1.387-4.476 2.724-1.24-1.075-3.156-2.116-4.843-2.043a2.33 2.33 0 0 0-1.729.856c-.984 1.166-1.326 3.391-1.137 4.895.32 2.548 4.245 8.19 5.649 10.783.575-.094 1.156-.171 1.72-.32l.08-.152c-.159-1.957-.5-4.112-.225-6.06l.092-.09c.176.824.15 1.681.23 2.519q.205 1.912.435 3.822c.61.061 1.225.107 1.826.234.733-1.474 1.482-2.925 2.317-4.345 1.733-2.946 4.196-6.194 2.916-9.803-.325-.918-1.15-2.443-2.066-2.9-.26-.13-.505-.121-.789-.12m161.628.876c2.5 1.35 5.134 2.384 7.632 3.748 4.202-.239 8.464-.275 12.673-.298.046-.955-.175-2.017-.309-2.967-6.66-.243-13.336-.187-19.996-.483m-121.29 3.625c.23.287.464.692.849.749 1.513.224 14.691.272 15.522-.089l.11-.603c-.334-.207-14.8-.1-16.48-.057m131.172 1.137c1.67.747 3.427 1.28 5.115 1.983 1.238.515 2.472 1.32 3.762 1.665.726.195 1.458.193 2.203.198q-.18-1.685-.39-3.367-5.353-.063-10.69-.479m-7.222.427c3.858 5.965 8.05 6.4 14.261 8.803 1.579.61 3.003 1.574 4.58 2.197-.023-.685-.025-1.376-.121-2.055-2.191-1.03-4.419-1.916-6.696-2.737-1.687-.609-3.43-1.107-5.036-1.917-2.382-1.202-4.25-4.078-6.988-4.29m23.734.214c-.1 1.833.376 3.875.586 5.703.218 1.892.31 3.779.442 5.676 3.262.45 5.92 1.673 8.775 3.252l.87-1.389c-.89-.736-1.774-1.485-2.703-2.17-.981-.725-2.36-1.46-3.133-2.403-.222-.272-.299-.646-.379-.98l.043-.385c.255.127.386.72.481.999q.047.14.091.28c2.014 1.339 3.811 2.788 5.723 4.253l.95-.936c-1.322-2.154-2.761-4.99-4.243-6.964-1.484-1.975-4.23-4.22-6.686-4.8a8 8 0 0 0-.816-.136m-203.871 2.042q-.404 2.137-.712 4.29c2.34 1.506 5.009 4.288 6.896 6.37l.775-.694c-1.522-2.951-3.315-5.261-5.327-7.878-.5-.65-1.033-1.546-1.632-2.088m231.24-.005c-1.154 1.757-2.52 3.332-3.768 5.018-1.12 1.515-2.124 3.126-3.146 4.708.287.315.548.613.775.976 2.16-2.146 4.258-4.895 6.871-6.473-.183-1.323-.24-2.992-.733-4.23m-33.022 2.605-.015.258c.205.076.115.088.272.02l.067-.399-.15-.027zM11.59 116.424c-.197 1.447-.35 2.948-.315 4.41.337.35.697.76 1.136.982 1.07.541 2.306.78 3.407 1.282.476.217 1.062.714 1.565.731l.138-.148.785-1.202c-.905-.781-1.825-1.554-2.682-2.388-1.285-1.251-2.506-2.71-4.034-3.667m232.467.042c-2.196 1.845-4.427 4.089-6.222 6.335.256.377.504.764.798 1.113 2.077-1.28 4.206-1.516 6.126-2.93-.06-.87-.115-3.916-.545-4.473zm-125.484.209c-3.972.296-7.298 1.728-10.996 3.009-3.848 1.333-7.766 2.712-11.699 3.764 1.823.01 3.555-.105 5.35-.438 1.812-.441 3.596-.913 5.361-1.52 2.802-.965 5.545-2.108 8.426-2.826 2.99-.745 5.904-.781 8.916-1.207-1.849-.582-3.422-.852-5.358-.782m-50.673 1.43c.182.27.448.82.79.876 1.285.21 16.435.123 17.097-.117l.088-.615c-.401-.315-15.82-.12-17.975-.144m-29.193 4.768c-2.737.913-5.362 1.931-7.966 3.183.055.508.012 1.275.415 1.61l.187.01c2.545-.03 5.093.114 7.636.192.015-.865.288-4.348-.076-4.966zm178.534.325c-.23 1.474-.156 2.99-.107 4.477 1.68.15 6.481.543 7.958.285l.243-1.85c-2.672-.976-5.306-2.341-8.094-2.912m-206.175.696c-.173 1.156-.164 2.386-.14 3.555q2.777.114 5.55.328c.025-.651.027-1.309.124-1.954-1.859-.588-3.734-1.176-5.534-1.93m233.655-.005c-1.832.623-3.576 1.447-5.39 2.098l.204 1.92c1.768-.288 3.565-.326 5.347-.486.005-1.099.153-2.482-.16-3.532m-.606 4.042c-1.542.099-3.1.158-4.633.345l-.249 1.259q1.077.435 2.164.845c1.128.454 2.258.964 3.402 1.37.084-1.062.428-2.783-.047-3.749-.232-.114-.383-.093-.637-.07m-233.158.043a36 36 0 0 0 .2 3.725 28 28 0 0 1 4.243-1.531l1.317-.429-.21-1.55c-1.845-.096-3.702-.24-5.55-.215m19.981.154c-.061.514-.1 1.044-.205 1.551 2.886.846 5.516 2.243 8.343 3.245q.118-2.272-.052-4.54c-2.699-.272-5.378-.256-8.085-.256m186.196.008c-.008 1.444-.028 2.89-.017 4.334 2.184-.347 4.026-1.048 6.017-1.976.461-.169.914-.337 1.39-.462.311-.082.452-.17.685-.388.22-.412.077-.85-.001-1.287q-4.04-.017-8.074-.221M45.13 129.262c.108 12.975 2.378 29.898 6.865 42.028l102.902.004 32.927.043c5.336.002 10.712-.197 16.04-.013.728-1.835 1.334-3.71 1.909-5.597 3.365-11.672 5.558-23.982 5.766-36.152-7.243-.535-15.018-.302-22.31-.277l-32.549.013zm-27.868 2.22c-1.979 1.34-4.593 1.528-6.026 3.58.122.927.267 3.635.673 4.276.092-.024.218-.037.292-.097 2.265-1.921 4.144-4.349 6.21-6.486-.324-.423-.663-1.06-1.149-1.273m221.096.024-.872 1.266c2.162 2.3 4.266 4.74 6.674 6.785l.156-.053c.243-1.492.315-3.07.403-4.58-1.99-1.793-4.257-1.969-6.362-3.418m-12.339.224c-2.996 1.743-5.601 2.925-9.08 3.325-.304 3.565-.748 7.162-.912 10.734 2.874-.266 5.484-1.713 7.354-3.915a9.3 9.3 0 0 0 .98-1.373c1.179-2.197 2.076-4.479 3.585-6.483l-.926-.978c-1.01 1.001-2.01 2.03-3.06 2.99-1.073.978-2.479 1.654-3.207 2.946-.08-.263-.042-.306.077-.546.27-.545 4.894-4.682 5.885-5.715-.184-.317-.383-.811-.696-.986M18.596 132.94c-2.063 2.33-4.235 5.344-6.73 7.152.063.698.08 3.29.523 3.716l.067-.012c2.298-3.12 4.18-5.109 6.037-8.633.266-.505.708-1.19.705-1.77-.208-.181-.36-.317-.602-.453m218.444.106c-.137.197-.324.352-.284.597.343 2.12 5.585 8.49 7.196 10.409a45 45 0 0 0 .357-3.952c-1.658-1.209-3.05-2.6-4.447-4.09-.76-.81-1.923-2.41-2.822-2.964M21.503 134.57c-.507 1.135-1.014 2.266-1.639 3.341-1.3 2.238-3.581 4.887-3.95 7.472-.178 1.258.17 2.538.62 3.706.357.932.818 2.13 1.617 2.762 1.104.302 2.269-.726 3.286-1.068.671-.226 1.534-.214 2.24-.148 1.514.143 4.631 1.861 5.753 1.196.225-.133.417-.328.603-.51 1.121-2.043 1.484-4.39.826-6.647-.55-1.888-1.76-3.628-2.747-5.312-.884-1.51-1.706-3.022-2.427-4.618a15 15 0 0 1-1.66.242c-.2 2.061-.263 4.35-.833 6.34-.136-2.118.14-4.255.233-6.373-.67-.08-1.276-.18-1.922-.383m208.387.5c-.814 1.684-1.602 3.4-2.573 5.001-2.797 4.612-3.513 5.384-1.648 10.726.186.532.476 1.104 1.028 1.334.215.09.45.117.681.102 1.77-.109 3.177-1.527 5.072-1.446 1.492.064 3.892 1.663 5.094 1.134.99-.436 1.62-2.08 2.045-3.013.6-1.424 1.112-2.826.502-4.354-.558-1.399-1.526-2.694-2.329-3.965-1.143-1.812-2.279-3.65-3.303-5.533l-1.861.266c.112 1.6.578 7.036-.052 8.243-.32-2.371.067-5.513-.189-8.144a21 21 0 0 0-2.467-.35M29.628 156.36c-2.244 2.738-6.977 5.598-6.636 9.621.238 2.815 1.671 5.797 3.35 8.028.206-2.708 1.128-4.477 2.775-6.6 1.307-1.653 2.416-3.01 2.158-5.271-.173-1.523-.731-3.216-1.276-4.65l-.052.194c-.322 1.23-.312 2.481-.488 3.732-.266 1.883-1.475 3.63-2.397 5.26.273-1.653 1.254-2.942 1.694-4.523.416-1.498.252-3.087.655-4.585.105-.39.26-.798.216-1.206m192.362.268c-2.49 1.538-5.24 2.358-8.035 3.142-.385 1.224-.793 2.52-.931 3.797l.1.17c2.412-1.09 7.632-3.36 8.652-5.915.134-.335.365-.823.253-1.159zm4.864.091c.462 1.728.412 3.613 1.061 5.278.39.997 1.987 3.092 1.925 4.005-.486-.388-.78-1.055-1.093-1.588-1.475-2.516-1.764-3.017-2.089-5.957l-.108-1.016c-.965 2.038-2.122 4.67-1.285 6.927.404 1.087 1.124 1.965 1.888 2.817 1.95 2.244 2.598 4.12 2.612 7.093 1.755-2.332 4.223-6.228 3.818-9.308-.352-2.668-3.43-5.035-5.29-6.784-.488-.46-.935-1.046-1.44-1.467m-5.38 2.531c-2.78 2.147-5.496 3.875-8.734 5.268-.124.36-.353.825-.264 1.2l.054.069c2.464.195 5.253-.138 7.19-1.845 1.248-1.099 1.668-2.805 1.76-4.409.008-.16.006-.121-.006-.283m-4.852 12.885-.13.121c-2.13 1.932-6.873 2.558-8.262 4.942-.006.287-.05.294.125.541.925.238 3.387-1.088 4.22-1.58.557-.33 1.077-.722 1.588-1.118-.438.574-.898 1.056-1.5 1.46-.498.297-.995.587-1.538.797-.86.331-2.697.578-3.223 1.307l.004.218c.53.49 1.868.606 2.552.578 1.605-.063 3.048-.928 4.1-2.106 1.19-1.334 2.072-3.283 2.13-5.077zm-178.379.204c1.417 2.327 2.739 5.472 5.62 6.234.774.206 1.629.197 2.383.47 1.088.393 1.88 1.28 2.892 1.769-.765-2.33-1.36-4.703-3.724-5.937-1.722-.9-3.742-1.105-5.562-1.753-.568-.202-1.072-.512-1.608-.783m-2.977.507c.598 2.946 1.195 6.113-.54 8.815-.542.844-1.801 2.308-2.781 2.539-.167.039-.185.028-.332.017.03-.263 2.126-2.165 2.572-2.939 1.64-2.848.356-5.37.78-8.29-.798.818-1.59 1.681-2.46 2.423-1.318 1.122-2.858 1.93-3.871 3.37-1.353 2.651-.89 5.809-.003 8.548.444 1.367 1.053 2.64 1.75 3.893.574-1.394 1.096-2.99 2.016-4.198 2.69-3.53 6.758-5.101 4.518-10.531-.325-.788-1.134-3.096-1.649-3.647m184.827.088c-.042 3.595.483 5.5 2.825 8.34.2.243.57.6.477.924-.683-.139-1.808-1.868-2.192-2.451-.956-1.451-1.484-2.925-1.791-4.63-.76 2.525-1.494 5.228-.143 7.712.56 1.03 1.434 1.893 2.322 2.646 1.837 1.608 2.612 2.604 3.405 4.912 1.694-1.86 4.065-4.866 3.9-7.546-.11-1.782-1.566-3.087-2.845-4.166-1.264-1.067-2.717-2.083-3.866-3.265-.738-.76-1.312-1.787-2.093-2.476m-119.74 3.379-4.9.028 1.69 1.367 1.226 1.181c.564-.776 2.037-1.86 2.362-2.526-.127-.024-.247-.057-.377-.05m-22.367.117c-2.462.437-5.42 2.577-7.054 4.413q1.811.703 3.517 1.634c3.474-2.627 6.661-4.922 11.267-4.256 1.034.15 2.058.458 3.027.845 1.798.837 3.123 1.885 4.558 3.246a49 49 0 0 1 3.469-1.874c-1.648-1.559-3.786-3.21-5.989-3.878-1.54-.468-10.546-.108-12.795-.13m31.54-.069a10.1 10.1 0 0 1 2.123 2.135l1.519-1.365a14 14 0 0 1 1.202-.67zm29.943.03c.869.683 1.665 1.44 2.47 2.194l.957-1.183c.375-.343.743-.705 1.146-1.016-1.521-.006-3.054-.048-4.573.005m12.755.04c.907.566 1.43 1.012 2.008 1.941l1.613-1.079.997-.848q-2.309-.094-4.618-.014m-94.008.097c1.243.867 3.344 2.669 4.883 2.431.371-.057.747-.07 1.122-.09l1.22-1.056 1.63-1.302c-2.945-.014-5.913-.096-8.855.018m12.256-.05c-1.446.85-2.646 2.062-3.876 3.192l1.763.428c.443.011.53-.01.858-.305.828-.747 1.924-1.724 2.34-2.757-.03-.187.008-.238-.164-.357-.275-.19-.597-.202-.92-.201m47.567.036c-2.113 1.088-3.926 2.442-5.681 4.033 1.296.549 2.63 1.062 3.799 1.857 3.1-2.844 6.838-4.808 11.15-4.643q.756.036 1.504.151.748.116 1.48.31.73.194 1.437.464t1.381.614c1.33.746 2.576 1.54 3.544 2.741 1.34-.673 2.614-1.292 4.068-1.685-1.112-1.341-4.014-3.709-5.832-3.862-2.67-.225-5.533-.026-8.221-.02-2.84.008-5.8-.16-8.629.04m43.382.043c-2.101.088-4.683 2.382-6.11 3.81 1.343.607 2.686 1.269 4.055 1.812 2.822-2.73 6.163-4.311 10.132-4.256q.689.011 1.373.093.683.081 1.355.232.673.15 1.326.37.653.218 1.28.501a13.4 13.4 0 0 1 3.813 2.894q1.79-.88 3.59-1.739c-1.127-1.49-2.851-2.805-4.457-3.743q-8.178-.035-16.357.026m19.855-.031c.63.44 1.24.896 1.84 1.376l.766-.616c.215-.192.663-.5.736-.763l-.198.183.098-.034c-.382-.368-1.556-.184-2.106-.173zm13.236.04c.36.191.566.274.98.137.107-.035.21-.08.313-.121-.423-.18-.855-.107-1.293-.016m6.21-.051c-1.842.627-3.457 1.65-4.87 2.995.68.139 1.359.27 2.026.46.656.235 1.309.459 1.934.767.298-.709 1.72-3.689 1.636-4.27zm-10.937.15c-2.229.304-3.613 1.198-5.073 2.844q1.806-.362 3.63-.631c1.764-.007 3.435.014 5.182.312-.192-.87-.406-1.487-1.177-1.995-.677-.447-1.759-.59-2.562-.53m-42.328.223c-1.55.508-2.514 1.38-3.487 2.655 1.649-.316 3.63-.626 5.31-.375l3.453.534c-1.104-1.366-2.489-2.595-4.315-2.787q-.48-.055-.961-.027m-42.426.157c-1.9.245-3.32 1.116-4.565 2.532 1.777-.262 3.514-.48 5.315-.447 1.434.037 2.83.369 4.252.532-1.335-1.513-2.585-2.483-4.696-2.604q-.153-.009-.306-.013m-50.829.368c.486 1.073.948 2.167 1.475 3.22.804-.438 1.655-.675 2.547-.865l.475-.231c-.038-.269-.069-.286-.276-.451-1.095-.87-2.883-1.349-4.22-1.673m71.255 2.992c-2.935.543-4.828 1.694-7.03 3.672.894.615 1.7 1.315 2.564 1.966 1.966-1.609 3.626-2.474 6.23-2.429 1.615.312 3.196.806 4.459 1.912.868-.713 1.733-1.426 2.64-2.092-1.977-1.989-4.546-3.127-7.381-3.105-.488.004-.998.017-1.482.076m42.533.139c-2.396.329-4.468 1.252-6.276 2.875.91.764 1.842 1.512 2.703 2.332 1.34-1.315 2.69-1.995 4.599-1.965q.619.013 1.235.077c1.459.335 2.574.858 3.703 1.85q1.22-1.194 2.5-2.322c-2.208-1.989-4.656-3.054-7.663-2.909q-.401.021-.801.062m-84.426.118c-2.677.386-4.807 1.487-6.797 3.305.757.685 1.502 1.436 2.317 2.05 1.624-1.24 3.401-2 5.463-2.068 1.675.27 3.104.667 4.344 1.91a46 46 0 0 1 2.375-2.172c-2.197-1.942-4.654-3.206-7.649-3.03zm105.427.515c-5.98.43-10.96 2.798-14.902 7.353q-.69.8-1.35 1.623c1.427.262 2.752.623 4.107 1.143a20.5 20.5 0 0 1 4.334-4.107c3.652-2.313 7.89-3.159 12.131-2.193 1.462.332 2.803.885 4.117 1.6.623-1.075 1.171-2.293 1.619-3.452-3.008-1.608-6.681-2.097-10.056-1.967m-85.026.128c-5.746.284-10.581 2.952-14.416 7.188q-.644.708-1.266 1.436c1.442.28 2.69.75 4.031 1.336 3.022-3.448 6.966-6.072 11.646-6.368q1.534-.098 3.055.134c4.99.813 7.395 3.293 10.926 6.531 1.366-.492 2.728-.987 4.118-1.41-.98-1.01-1.916-2.075-2.963-3.017-3.935-3.542-8.684-5.762-14.023-5.833-.368-.005-.74-.012-1.107.003m43.928 0c-6.379.205-11.21 2.041-15.655 6.788-.553.59-1.097 1.232-1.53 1.916 1.391.325 2.763.685 4.11 1.168 3.442-3.704 7.408-6.338 12.613-6.537q.45-.02.9-.002c5.632.65 8.827 2.445 12.603 6.61a37 37 0 0 1 4.247-1.279c-3.23-4.46-8.377-7.53-13.802-8.407-1.156-.187-2.316-.25-3.486-.257m-85.197.123a26.5 26.5 0 0 0-6.215 1.067c.523 1.106 1.036 2.21 1.643 3.273 4.475-1.115 8.62-.863 12.642 1.566 1.38.833 2.495 1.917 3.583 3.094l1.106 1.25c1.435-.637 2.813-1.153 4.34-1.512-3.022-4.266-8.535-7.59-13.669-8.463q-1.704-.281-3.43-.275m-16.365 4.085c.466 1.12 2.015 1.91 3.098 2.353 1.107.453 2.267.744 3.385 1.163-.445-.96-.955-1.882-1.463-2.81-1.782-.027-3.304-.25-5.02-.706m163.059.548c-1.386.207-2.786.262-4.185.293-.568 1.023-2.223 3.55-2.391 4.574l.187.14c1.216.051 2.384.06 3.355-.807 1.284-1.145 2.029-2.773 3.106-4.09zm-83.294.216c-1.219.264-2.06.752-3.025 1.532.737.567 1.375 1.2 2.025 1.863l1.91.037c.823-.102 2.015-1.82 2.675-2.438-1.163-.748-2.162-1.217-3.585-.994m42.4.122a7.4 7.4 0 0 0-2.415 1.044l2.123 2.4 1.316-.266c.498.012.72.094 1.102-.267.568-.536.997-1.249 1.488-1.857-1.169-.617-2.26-1.085-3.615-1.054m-84.968.378c-1.012.235-1.892.538-2.805 1.047.633.671 1.28 1.3 1.97 1.913q.833-.123 1.67-.225c.699-.005 1.013.027 1.53-.486.447-.442.81-.955 1.262-1.394-1.29-.689-2.133-.999-3.627-.855m-36.82.19c1.71 2.483 3.89 3.822 6.85 4.339q.158.026.319.047c-.24-.612-.474-1.222-.773-1.809-1.336-.434-2.68-.854-3.97-1.418-.816-.357-1.605-.827-2.426-1.159m141.66.2c-3.543.544-6.838 2.107-9.007 5.05l2.62 1.743c1.356-1.305 2.808-2.299 4.613-2.887 2.847-.784 5.303-.44 7.876 1.02l.117.069q.888-1.688 1.845-3.337c-2.48-1.397-5.215-2.016-8.064-1.657m-41.022.133c-4.063.361-7.41 2.09-10.154 5.108a59 59 0 0 1 2.902 2.01c2.032-2.137 4.406-3.735 7.441-3.837q.249-.008.498-.005c3.13.196 5.494 1.604 7.672 3.8.876-.675 1.741-1.388 2.663-2-1.92-2.722-5.25-4.364-8.477-4.913a13 13 0 0 0-2.545-.163m-43.667.243c-3.515.465-6.526 2.136-8.776 4.889a23.5 23.5 0 0 1 2.614 1.847c1.946-2.032 4.192-3.498 7.084-3.565q.7-.015 1.394.077t1.365.288c2.243.79 3.81 1.968 5.386 3.739q1.427-1.014 2.874-2c-2.618-2.97-6.08-5.093-10.105-5.337-.584-.035-1.26-.037-1.836.062m-41.125.136c-1.159.08-2.265.216-3.381.55a80 80 0 0 1 1.605 2.92c2.701-.629 5.158-.13 7.505 1.333.772.48 1.459 1.056 2.126 1.67.148.121.372.386.567.36.772-.1 1.677-1.184 2.349-1.613-2.88-3.073-5.662-5.054-10.01-5.203q-.38-.012-.76-.017m148.473 1.662c-.156 1.851-.444 3.8-.302 5.653.049.636.549 2.526.34 2.968-.519-.421-.66-1.654-.728-2.317-.202-1.984.096-3.947.026-5.93-1.73 2.459-3.288 5.398-2.693 8.519.215 1.125.751 2.147 1.404 3.078 1.07 1.645 1.892 3.006 1.47 5.058a17 17 0 0 1-.391 1.5c2.984-3.072 4.457-6.907 4.393-11.188-.027-1.802-.267-3.78-1.555-5.144-.69-.73-1.372-1.327-1.939-2.169zm-165.713.378c-2.117 4.337-5.244 4.749-3.287 10.406 1.017 2.94 2.774 5.039 4.953 7.184-.403-2.393-.593-4.166.712-6.351.36-.605.815-1.181 1.128-1.808.619-1.343 1.059-2.513.502-3.983-.553-1.46-1.751-2.71-2.779-3.857.767 2.443 1.229 4.507-.032 6.912-.461.88-1.076 1.706-1.674 2.498l.063-.185c.4-1.153 1.035-2.189 1.454-3.326.741-2.009.196-4.997-.678-6.907a2 2 0 0 0-.362-.583m80.136 1.954c-4.79.5-9.073 2.642-12.607 5.89 1.424.22 2.794.724 4.148 1.2 3.712-2.828 7.01-4.254 11.688-3.625l.136.018c3.406.75 5.534 2.066 8.198 4.264a63 63 0 0 1 3.941-1.406c-4.559-3.878-8.916-6.8-15.196-6.372q-.155.012-.308.031m-41.99.127c-4.321.413-9.299 2.398-12.413 5.488 1.635.506 2.978 1.053 4.389 2.026 3.289-2.635 6.29-3.936 10.565-3.702 3.04.311 5.645 1.635 7.774 3.808 1.334-.785 2.69-1.314 4.147-1.83-3.495-3.501-8.201-5.844-13.204-5.848q-.63-.002-1.258.058m83.894.126q-.434.039-.864.096-.431.057-.86.132-.427.075-.852.168-.424.093-.845.204-.42.111-.835.24-.416.128-.825.274-.41.145-.812.308-.404.163-.8.342-.395.18-.783.376t-.767.408-.75.44-.73.472-.71.501q-.35.258-.688.53-.338.273-.665.56t-.641.587c1.733.348 3.361.764 5.017 1.399 3.012-2.36 6.1-3.597 9.962-3.39 3.287.234 6.046 1.326 8.612 3.385a23 23 0 0 1 4.014-1.612c-3.403-3.465-8.506-5.472-13.345-5.491-.599-.002-1.239-.004-1.834.071m-62.748 1.366c-2.175.272-3.725 1.177-5.148 2.827l.879.783c1.68-.333 3.35-.61 5.07-.602 1.814.074 3.61.264 5.415.457-1.04-1.705-2.462-2.807-4.436-3.279a7.4 7.4 0 0 0-1.78-.186m84.532.008c-2.032.208-3.895.925-5.341 2.415.445.426.882.86 1.362 1.247.93-.186 1.87-.415 2.809-.55 1.273-.115 2.514-.094 3.788-.049q.708-1.05 1.453-2.076c-1.368-.679-2.542-.952-4.07-.987m-42.31.107c-1.972.34-3.192 1.174-4.647 2.493.4.46.835.912 1.194 1.403 1.813-.471 3.612-.816 5.488-.89 1.147-.028 2.297.362 3.437.48q.55-.503 1.11-.994c-1.26-1.466-2.61-2.371-4.595-2.537-.664-.055-1.325-.004-1.988.046m-84.6.37c.275.651.497 1.038.997 1.552.906.927 1.457 1.055 2.732 1.107.896.036 1.752.168 2.638.262l.26-.12-.117.074.181-.234c-.283-.814-1.563-1.474-2.324-1.839-1.447-.695-2.769-.889-4.367-.802m-7.779.725.104.41-.158.18-.625-.022-.044.179c1.105.918 2.154 1.797 3.05 2.93l.252.273c.171-.33.147-.77.05-1.127-.153-.561-.947-2.484-1.492-2.673-.33-.115-.782-.077-1.136-.15m148.51.876c-1.53.75-2.947 1.226-3.89 2.728l.69.909c.386.093.634.012.971-.197.766-.473 2.102-2.236 2.284-3.147.014-.073.011-.15.017-.224zm-77.374 2.277c-1.84.341-3.658.925-5.213 1.995 2.108-.185 4.232-.174 6.347-.163 1.793.011 3.377.014 5.101-.569-2.014-.962-3.974-1.537-6.235-1.263m-21.74.267c-.903.055-1.792.092-2.674.305.794.147 1.74.044 2.55-.002l.126-.015c.778-.086 1.563-.081 2.345-.091l.046-.102c-.737-.213-1.634-.173-2.393-.095m2.83.148c.338.125.328.12.666-.008-.278-.047-.393-.085-.666.008m60.636-.029c-1.888.257-3.31.782-4.827 1.945l1.486.52c1.77-1.037 3.223-1.453 5.276-1.537.623-.025 1.294.022 1.907-.087 1.807.502 3.62 1.086 5.443 1.52-2.599-1.937-6.085-2.717-9.285-2.361m-83.514.123c-2.598.385-4.534 1.339-6.557 2.996.302.34.615.673.9 1.027a35 35 0 0 1 6.205-1.023c1.68-.07 3.166.058 4.819.365.648-.492 1.396-.843 2.114-1.221-2.282-1.49-4.704-2.469-7.481-2.144m24.298.024h.216zm.026-.044c1.541.478 3.2.479 4.754.908 1.885.52 3.697 1.914 5.666 1.948-3.168-1.38-6.908-3.045-10.42-2.856m-50.636.167c-.033.11-.158.394-.149.494.07.752.707 1.789.99 2.526 1.012 2.63-.168 5.494-2.278 7.184 1.256-2.35 2.65-4.384 1.816-7.194a9 9 0 0 0-.508-1.254c-.798 1.83-2.367 3.327-2.975 5.178-.574 2.155-.026 4.417 1.071 6.319.411.712.895 1.377 1.38 2.04-.17-1.01-.313-1.996-.266-3.024l.069-.135c1.663-3.147 4.198-3.09 2.794-7.656-.314-1.023-1.245-3.773-1.944-4.478m133.443.837.082.072zm-.63.165h.138zm8.64.401c-.934 1.95-1.958 4.238-1.183 6.42 1.128 3.174 3.57 3.158 3.647 7.512 1.121-2.709 1.62-5.322 1.052-8.24-.553-2.341-1.207-4.094-3.11-5.661.14 3.248.214 4.678 1.735 7.596l-.163.072c-1.082-.908-1.754-3.263-1.868-4.642-.082-.996.057-2.088-.11-3.057m-12.275.51.023.108.148-.046.032-.121zm-120.923-.035c.684 1.163 1.35 2.422 2.246 3.436 1.97-.224 3.919-.466 5.838-.986l.507-.183-.015-.135c-1.926-1.312-6.226-1.592-8.576-2.132m39.278.361c-6.033.477-12.245 3.104-16.981 6.804.95.082 1.875.219 2.814.384 1.671-1.02 3.177-2.253 4.885-3.225 4.407-2.35 10.201-3.455 15.063-1.93.843.264 2.217 1.033 3.067.848.211-.279.263-.285.243-.627-.858-1.106-4.934-2.042-6.373-2.216q-1.358-.153-2.719-.038m44.952.251c-4.584.273-8.637 1.593-12.738 3.595.466.748.712 1.542.979 2.376 2.26-1.454 4.732-1.967 7.188-2.99.043-.607 0-1.16.518-1.578.477-.385 1.536-.37 2.131-.431 6.879-.288 7.998.115 14.016 3.052.267-.28.513-.54.835-.76-4.112-2.1-8.242-3.511-12.929-3.263m34.314.262h.152zm-.25.125h.152zm-69.411 1.68c-.218.276-.463.506-.458.876 1.39 1.272 3.123 2.154 4.555 3.4.293-.466.57-.927.933-1.343a10.8 10.8 0 0 1 1.934-1.474c-2.359-1.223-4.364-1.342-6.965-1.46m73.514.527c-1.237.373-2.441.753-3.581 1.369-1.456.787-2.723 1.895-3.997 2.94-2.767 2.27-5.618 4.947-8.755 6.699-3.086-.11-5.86-.298-8.28 2.002-.753.716-1.166 1.448-1.558 2.404.11.312.207.626.312.94.187.558.853 1.068.881 1.627.24.073.132.088.326-.007 3.72-1.682 5.727-4.547 9.963-5.341-.311-.296-.628-.582-.898-.917l1.756-.607a10 10 0 0 0 1.682.864c2.172-1.744 4.477-3.435 6.514-5.334 1.545-1.439 2.937-3.056 4.283-4.681.415-.502 1.264-1.329 1.352-1.958m-59.482.158q-1.524.091-3.052.106c.544.371 1.177.555 1.792.775.446.185.679.322 1.16.136.592-.23 1.161-.689 1.685-1.047-.523.002-1.065-.025-1.585.03m4.464 1.594c-1.435.312-2.553.873-3.352 2.165-1.379 2.228-1.022 5.299-.98 7.796 1.142.024 2.269.109 3.395.302.739.136 1.482.26 2.21.446.916-2.735 2.599-6.49 1.18-9.294a4.5 4.5 0 0 0-.799-1.092c-.563-.17-1.059-.306-1.654-.323m-9.706.643c-1.073.165-2.086.506-2.734 1.435-.859 1.23-.666 2.954-.381 4.346.312 1.527.795 3.036 1.236 4.531.681-.146 1.364-.314 2.051-.424q1.847-.39 3.726-.578c-.004-2.368.436-6.588-1.428-8.406-.736-.718-1.484-.835-2.47-.904m-46.601.259c-2.086.18-4.107.706-6.11 1.296l1.375 1.66c2.27-.457 4.383-.632 6.7-.676 1.959.098 4.179-.561 6.088-1.002-2.293-1.138-5.51-1.748-8.053-1.278m21.485.583c-1.517.425-3 .811-4.335 1.685l1.233.56c.633-.222 3.576-1.648 3.807-2.123-.295-.206-.36-.139-.705-.121m51.359.174c-.847.124-1.688.249-2.542.311l.091.14c.797 1.24.894 4.015 1.14 4.291l.108-.047c.828-.331 2.239-.473 3.14-.415.655.042 2.007.457 2.59.29.188-.053.385-.27.52-.4 1.102-1.069 2.19-1.998 3.482-2.828-2.833-.253-5.642-1.686-8.529-1.342m4.216.29.156.186.213-.122c-.13-.038-.233-.089-.369-.064m-40.677.413c-1.054.343-2.018.898-2.537 1.924-.595 1.178-.44 2.656-.024 3.864.748 2.17 2.572 4.234 3.983 6.028l1.807-1.081c1.155-.632 2.323-1.206 3.563-1.655-.496-2.97-.847-6.148-3.471-8.071-.967-.708-2.12-1.106-3.32-1.008m27.983.01c-1.684.57-2.785 1.592-3.58 3.183-.859 1.717-1.328 3.674-1.855 5.515 1.746.698 3.44 1.449 5.09 2.356l.344.164c1.48-.7 3.599-4.24 4.15-5.802.419-1.187.595-2.557.033-3.73-.39-.812-1.093-1.304-1.94-1.56-.725-.22-1.494-.213-2.242-.126m-34.273.182c-2.9.181-5.442-.052-8.033 1.567a13 13 0 0 1 3.156 2.957q.056-.01.111-.025c.46-.133.916-.453 1.357-.653 1.633-.743 3.115-.665 4.832-.321.138-1.117.304-2.018.841-3.029l.1-.19c-.784-.114-1.574-.256-2.364-.306m86.655-.092c-.36 3.274-.1 5.058 1.267 8.077-1.51-1.992-1.8-3.77-1.934-6.213-.518 1.561-.87 3.793-.108 5.313q.279.546.577 1.081c.91 1.802 1.735 3.4 1.717 5.472 1.272-2.739 1.639-5.274.604-8.173-.438-1.227-1.129-2.363-1.545-3.59-.17-.502-.258-1.616-.578-1.967m-.622.744c-3.346 4.888-2.876 5.424-2.974 11.219-.438-2.286-.485-4.274-.054-6.565-.595.903-1.22 1.796-1.788 2.716-.015 1.674.156 3.336.357 4.996.121 2.293-.058 3.908-1.041 6.01 2.357-1.666 3.983-3.997 4.492-6.87.463-2.613-.148-5.2.09-7.795.08-.868.965-3.286.918-3.711m-129.692.115c.141 1.865.382 3.758.851 5.57.696 2.683 1.67 5.248 2.003 8.019-.514-1.044-.844-2.184-1.215-3.285-.962-2.856-1.78-5.412-2.024-8.444-.954 2.017-2.395 4.175-1.587 6.475.118.336.27.666.416.992.709 1.264 1.788 2.153 2.597 3.333 1.316 1.919 2.225 4.427 3.12 6.574.221-2.047.109-4.034.169-6.078.043-1.483.29-2.962.311-4.443.038-2.651-1.596-5.116-3.2-7.109-.427-.53-.904-1.187-1.44-1.604m87.325 4.936c-3.578.661-6.006 3.3-7.997 6.187 1.568 1.104 3.12 2.248 4.722 3.301.563.3.883.211 1.474.031 2.07-.63 4.342-2.346 5.338-4.299.49-.958.73-2.09.357-3.13-.3-.838-1.054-1.567-1.873-1.9-.671-.273-1.317-.23-2.021-.19m-45.007.261c-1.014.2-1.79.556-2.395 1.436-.698 1.013-.735 2.427-.49 3.592.392 1.858 1.574 3.437 3.173 4.432a7 7 0 0 0 1.793.784 12 12 0 0 0 1.765-.924c1.313-.865 2.713-1.753 3.894-2.791-1.536-2.1-3.76-5.921-6.492-6.423a6.4 6.4 0 0 0-1.248-.106m-19.479.765c-1.766.146-3.206.44-4.674 1.49.461.353.917.727 1.402 1.047 2.801-.779 5.116-.578 7.658.863.585.331 1.028.66 1.476 1.163.956.939 1.895 1.91 2.905 2.79-.776-2.422-2.394-5.137-4.71-6.373-1.193-.636-2.71-.981-4.057-.98m-16.013 2.009c-.234 2.09-.635 4.56.753 6.357.93 1.204 2.389 1.908 3.58 2.816.913.696 1.683 1.508 2.406 2.396-.287-.918-.556-1.847-.931-2.733-.762-1.686-1.88-5.006-3.145-6.233.442 1.029.839 2.011 1.049 3.117-1.392-2.08-1.817-3.88-3.713-5.72m116.11 1.264-.097.113c-1.456 1.741-2.373 3.677-4.303 5.002a9.05 9.05 0 0 1-1.725 3.733c-.21.272-1.23 1.242-1.135 1.46l.019.013c2.767-1.07 5.756-3.091 6.998-5.898.525-1.186.753-3.07.285-4.329q-.02-.047-.043-.094m-59.726.719c-6.212.728-8.55 2.68-13.492 5.993-6.038 4.048-12.028 7.193-19.507 6.868 3.033 1.633 4.641 1.8 7.899.812 2.635-.799 5.05-2.038 7.544-3.176-4.077 3.231-5.318 4.744-10.78 5.152 4.528 3.664 12.103 6.846 17.811 8.136 2.614.591 5.254.875 7.923 1.056-2.232-1.478-4.487-3.121-5.1-5.905-.218-.995-.115-1.995.448-2.858 1.16-1.781 3.624-2.528 5.603-2.89 1.094-.202 2.2-.294 3.309-.384.024-2.118.556-4.715-1.034-6.383a8.5 8.5 0 0 0-.871-.762c-.93-.519-1.898-.71-2.943-.436-1.986.522-3.907 2.797-5.242 4.281-2.684-1.303-5.838-.173-8.477.75l-.185.066c2.231-1.928 3.199-2.608 6.145-3.066.803-.125 1.714-.26 2.445-.636 2.582-1.329 2.407-3.89 6.454-3.608 1.671.116 2.998.803 4.276 1.855 1.662-1.171 4.393-2.212 6.448-1.825.681.128 1.246.49 1.64 1.064 1.138 1.654 1.264 2.853 3.536 3.361 1.476.33 3.046.145 4.475.714.917.365 1.76 1.238 2.598 1.787 5.24 3.434 5.784 3.975 12.166 4.578q1.765-1.16 3.49-2.378c-2.318.126-4.545.21-6.842-.235-3.543-.686-6.902-2.287-9.925-4.23-6.524-4.19-11.306-8.87-19.812-7.701m46.887.6c-2.209.452-3.964 2.422-5.777 3.67-2.224 1.53-5.098 3.227-7.678 3.999-2.654-.665-5.043-2.032-7.315-3.524-.94.401-1.877.82-2.835 1.174l1.351.62c4.773 2.17 9.737 2.722 14.714.883 2.441-.901 8.166-4.425 9.572-6.543.025-.038.03-.086.046-.13-.604-.285-1.423-.183-2.078-.15m-17.781 2.54h.124zm-53.38 1.833c-1.259 1.598-2.404 2.669-4.205 3.631.94-.07 1.936-.082 2.853-.293 1.395-.397 2.832-.834 4.167-1.406-.918-.663-1.828-1.376-2.815-1.931m31.175.012c-1.53.242-2.702.815-3.642 2.088a7 7 0 0 0-.463.735c.054 1.696.05 3.423.226 5.11 2.7.391 6.452.897 8.254 3.197a3.6 3.6 0 0 1 .758 2.7c-.221 1.748-1.648 3.245-3.012 4.256-1.028.761-2.188 1.363-3.348 1.896 4.703-.318 9.17-1.045 13.581-2.756 4.126-1.663 8.292-3.67 11.848-6.364-2.027-.16-3.858-.516-5.63-1.563-2.796-1.653-4.911-5.691-8.704-5.119-.556.084-1.215.235-1.633.636-.103.097-.13.143-.206.25-1.196-.436-2.872-.79-3.87-1.586-1.696-1.355-1.442-3.373-4.159-3.48m-35.518.22c-.365.252-.95.535-1.145.926l.08.067c.351-.207 1.004-.482 1.174-.856z"/><path d="M189.654 36.565c-.086-.055-.144-.084-.212-.17-.542-.684-.08-2.262.093-3.053.327.302-.04 2.604.119 3.223m18.791 11.079-.07-.108zM47.323 58.79c-.203-.86.054-1.999.017-2.905-.103-2.52-.932-4.956-.023-7.43.224.601.02 1.913.048 2.598.076 1.872.432 3.73.349 5.608-.033.75-.175 1.415-.391 2.128M34.441 80.016c-.349-.339-.76-2.455-1.009-3.085-.727-1.832-2.02-3.415-2.72-5.286-.358-.958-.557-1.905-.682-2.918.033.031.073.056.097.093.514.787.712 2.097 1.125 2.986 1.324 2.854 3.283 4.853 3.19 8.21m1.496 36.18.18-.054zm-.09.246.09-.246zm-.075.034.075-.034zm93.576 34.547c-.341 1.201-.476 2.515-.68 3.751-.317 1.915-.669 3.84-.909 5.766-.109.873-.085 1.79-.262 2.65a2.2 2.2 0 0 1-.283.721q-.038.062-.083.119-.044.057-.094.11-.05.051-.105.098-.056.047-.116.087t-.123.075-.131.061-.137.047-.14.033c-.992.179-3.424.227-4.279-.347-.255-.365-.347-.761-.437-1.191-.53-2.533-.838-5.158-1.27-7.713l-2.51-14.11c-.14-.763-.228-1.676-.503-2.395-.219-.572-.86-1.096-.874-1.721-.014-.69.437-1.204.891-1.664 1.543.07 3.855-.319 5.253.305.364.163.68.43.784.832.185.71-.231 1.3-.602 1.862.63 3.462 1.31 6.923 1.905 10.39.356-1.5.535-3.076.781-4.599.274-1.691.622-3.411.784-5.115.083-.873-.508-1.697-.287-2.587.087-.347.168-.506.486-.674 1.057-.562 4.1-.602 5.247-.231.438.14.874.455 1.038.902.265.719-.1 1.366-.385 2.01.105 1.238.422 2.494.647 3.716l1.167 6.427c.605-3.122 1.317-6.35 1.618-9.513.083-.871-.458-1.494-.5-2.317a1.17 1.17 0 0 1 .414-.925c.707-.597 4.51-.508 5.534-.335.377.063.784.212.988.56.57.972-.406 2.033-.778 2.892-.479 1.105-1.458 7.602-1.763 9.278-.719 3.388-1.248 6.856-1.835 10.27-.242 1.411-.468 4.264-1.064 5.404-.157.302-.445.478-.767.561-.736.19-3.684.29-4.283-.135-.289-.204-.43-.954-.5-1.28-.263-1.219-.326-2.51-.5-3.748-.388-2.775-.8-5.576-1.338-8.327m-59.16-9.898c-1.579-.125-2.38.114-3.874.4-.459.087-1.006.11-1.389-.207-.331-.274-.465-.736-.52-1.145-.166-1.244-.275-3.673.507-4.667 3.142-.113 6.32-.013 9.466-.018 2.141-.004 4.537-.263 6.638.12.297.236.391.534.46.903.15.803.298 4.195-.198 4.795-.75.905-2.507-.018-3.479-.132-.658-.076-1.383.001-2.046.034q-.097 5.756-.117 11.512c-.013 2.531-.36 5.916.312 8.312.189.423.385.848.553 1.28.245.632.328 1.094.06 1.728-.33.376-.993.431-1.464.477-1.071.105-5.141.281-5.883-.323-.713-1.237.732-3.043.995-4.315.288-1.397.047-4.003.043-5.548q.005-6.603-.064-13.206m18.818 20.429c.275.593.794 1.515.599 2.185-.092.314-.173.39-.47.531-1.139.545-5.805.483-7.038.096-.245-.25-.488-.554-.429-.935.022-.144 1.566-2.74 1.881-3.803.681-2.295 1.241-4.635 1.867-6.947q1.997-7.154 3.761-14.368c.26-1.064.387-2.178 1.385-2.796.832-.037 1.771-.148 2.593-.021.375.057.89.201 1.116.533.657.968 1.033 3.412 1.364 4.61l3.615 12.95c.613 2.23 1.327 5.674 2.281 7.68.269.564.858.955 1.188 1.486.2.32.252.778.139 1.135-.063.198-.22.384-.411.449-1.044.356-5.669.448-6.563-.053-.331-.186-.572-.482-.629-.865-.09-.62.278-1.222.63-1.691l.091-.119q-.462-2.1-.963-4.19l-1.224.045a51 51 0 0 1-3.85-.093c-.383 1.382-.732 2.759-.933 4.18m3.282-14.341q-.771 2.565-1.392 5.17l1.885-.001c.299-.01.697.062.914-.145-.147-.898-.897-4.485-1.407-5.024m14.087-8.748c-.39-.492-.867-.982-.894-1.648-.022-.525.256-.91.573-1.296 1.38-.067 5.291-.419 6.38.282.291.187.485.47.547.81.14.768-.41 1.382-.813 1.973-.14 2.368-.073 4.78-.09 7.153q-.06 6.504.013 13.007c.009.582-.04 1.233.118 1.794.288 1.019 1.547 1.96 1.254 3.103-.14.544-.456.73-.916.981-1.38-.036-6.204.296-7.08-.356-.749-.558-.339-1.435.02-2.065.358-.625.9-1.393 1.007-2.112.253-1.696.038-5.995.037-7.927l-.011-8.367c-.004-1.7.08-3.463-.123-5.15zm42.83 22.802c.416.539.893 1.199.891 1.91a1.22 1.22 0 0 1-.456.969c-.904.708-4.892.508-6.088.327-.352-.054-1.19-.205-1.394-.521-.546-.846.58-1.783.996-2.474 1.278-2.118 1.898-5.781 2.534-8.195l3.858-14.935c.306-1.149.432-2.183 1.529-2.82.869-.041 1.875-.172 2.732-.029.402.067.712.206.905.578.797 1.538 1.146 3.642 1.612 5.326l3.795 13.89c.526 1.907.876 4.066 1.677 5.86.282.632.883.976 1.25 1.541.208.321.223.557.129.923-.077.3-.212.597-.494.751-.608.33-5.264.277-6.063.053-.371-.104-.72-.31-.883-.678-.366-.826.24-1.842.59-2.572-.25-.97-.492-2.676-1.143-3.416-.29-.328-.626-.24-1.026-.253l-3.954.002a57 57 0 0 0-.997 3.763m3.458-13.803c-.49 1.539-1.043 3.184-1.279 4.784l.097.139c.368.002.735.008 1.102-.005.416-.006.919.054 1.298-.119-.012-1.103-.684-3.84-1.218-4.8m14.273 13.925c.165-3.726.056-7.498.058-11.227 0-3.228.126-6.505.015-9.729-.041-1.214-1.11-2.427-.99-3.558.066-.617.525-.979.97-1.35 1.31-.106 3.06-.26 4.328.08.4.106.635.242.871.587.764 1.117 1.222 2.572 1.73 3.822 1.332 3.277 2.535 6.892 4.282 9.962l.079.136.063-6.058c.022-1.279.139-2.62.016-3.893-.12-1.255-1.147-2.762-.832-3.935.181-.251.328-.413.626-.524.867-.323 4.916-.406 5.672.048.317.19.454.432.555.777.13.44.091.661-.117 1.072-.697 1.374-.633 2.231-.648 3.736v16.412c-.008 1.244.297 5.413-.277 6.225-.216.306-.54.387-.88.48-.909-.004-1.972.08-2.85-.15-.572-.15-.925-.368-1.261-.858-.816-1.19-1.238-2.704-1.768-4.036-1.235-3.108-2.445-6.538-4.127-9.428l-.094-.159c-.065 3.624-.327 8.368.002 11.893.213.27.437.541.596.847.185.356.314.867.144 1.25-.138.31-.433.494-.742.599-.95.323-4.846.336-5.716-.144-.296-.162-.481-.382-.558-.714-.179-.78.45-1.56.853-2.163M36.57 139.562l.075.085zm.076.085.143.132zm.144.132.066.078zm4.756 23.995c-1.23.082-2.806-.958-3.756-1.681-.896-.683-2.568-2.202-2.723-3.356 1.117.591 2.288 2.718 3.788 3.608.753.447 2.229.704 2.69 1.429m109.042 43.283c-.373.176-.732.063-1.12-.005.41-.073.714-.15 1.12.005m1.755.114-.405.076-.193-.16c.24-.041.37.003.597.084m6.757 6.186.171-.357.175.04-.048.174zm4.156 6.514-.062.09-.005-.168.049-.012zm-6.348 2.145-.076-.107zm-57.993.876c-.106-.11-.054-.033-.088-.267l.216-.19.267-.023zm60.313-.077-.24-.068-.062-.141.522-.32.224.071.044.146z"/></svg>