<svg xmlns="http://www.w3.org/2000/svg" viewBox="0 0 256 256"><path d="M0 176.914c.691-2.63.38-6.627.397-9.418l.142-11.301.543-57.088.045-15.528c.007-2.554-.054-5.13.042-7.681 1.321-1.563 2.889-2.97 4.34-4.413q3.835-3.864 7.72-7.679l20.73-20.758 29.028-29.07 8.33-8.441c1.391-1.416 2.758-2.967 4.244-4.28C85.504.952 95.5 1.172 105.45 1.1l53.687-.49c4.345-.027 8.698-.043 13.042-.136 1.925-.04 3.869-.277 5.791-.19.442.02.671.022 1.025.293 2.453 1.882 4.586 4.215 6.777 6.396l11.064 11.077 37.681 37.733 12.967 12.972c2.528 2.505 5.021 5.138 7.733 7.447.02 7.58-.225 15.148-.345 22.725l-.622 43.222-.257 28.353c-.05 3.547.152 7.195-.088 10.724-6.264 5.944-12.191 12.257-18.28 18.376l-38.306 38.314-11.961 11.964c-1.867 1.849-3.649 3.991-5.806 5.499-.63.44-2.14.307-2.9.287-24.816-.63-49.631-.09-74.449-.037q-7.59-.023-15.181.042c-3.976.06-8.047.298-12.014.073l-46.211-46.97-15.222-15.518C9.003 188.617 4.38 184.022 0 179.2zM169.875 6.56q-30.71.007-61.415.525l-13.634.14c-5.7.005-11.411-.077-17.107.134-8.678 8.401-17.011 17.164-25.582 25.676l-25.76 25.716q-9.66 9.527-19.145 19.228c-.246 14.42-.08 28.862-.107 43.284l-.274 23.342-.224 21.704c-.053 3.758-.325 7.597-.11 11.347 3.99 4.44 8.274 8.647 12.469 12.894l23.617 23.765 23.083 23.61q3.659 3.723 7.372 7.39c1.4 1.411 2.749 2.906 4.206 4.255h8.71l60.514-.077c10.288-.023 20.612.099 30.896-.138 2.093-1.316 6.415-6.086 8.345-8.08 2.048-2.118 4.182-4.159 6.28-6.226l39.451-39.455 10.907-11.101c1.877-1.922 3.698-3.903 5.653-5.746q.121-50.096 1.12-100.182c-1.578-1.772-3.317-3.41-5.002-5.08l-8.276-8.25-33.899-34.029-16.851-16.789-4.797-4.829c-1.019-1.023-2.05-2.168-3.213-3.026-2.397-.125-4.827-.024-7.227-.002"/><path d="m207.19 39.676-.105-.05c-1.108-.551-2.156-1.346-3.185-2.034-2.205-1.474-4.39-3.003-6.664-4.368-9.742-5.843-19.918-11.34-30.612-15.238q-3.63-1.315-7.326-2.433t-7.446-2.036-7.544-1.633-7.62-1.226c-1.49-.185-4.854-.349-6.036-.982.161-.288.489-.33.79-.448 3.356-.604 8.256-.42 11.801-.503 10.996-.257 22.012.037 33.004-.332q8.758 8.869 17.619 17.636c1.953 1.944 12.606 12.211 13.323 13.647M78.779 9.333c2.827-.169 5.688-.077 8.521-.09q8.665-.02 17.329-.186 4.208-.06 8.417-.061c1.767 0 3.705-.124 5.437.233.288.059.464.08.625.338-.626.645-12.61 3.295-14.327 3.755-3.217.861-6.418 1.933-9.577 2.988-13.83 4.617-25.321 9.824-37.506 17.963-2.95 1.976-5.995 4.728-9.173 6.205.472-.92 1.092-1.65 1.781-2.415 1.854-2.06 3.853-3.995 5.791-5.974l11.785-11.986 6.647-6.742c1.3-1.315 2.7-3.04 4.25-4.028m48.013 21.841c-.097.261-.012.174-.222.29-.107-.127-.121-.13-.206-.304-.98-2.023-1.56-16.648-.576-18.776.371-.014.791-.06 1.159-.018.232.026.412.08.552.274.91 1.255.201 11.739.008 13.69q-.225 2.441-.715 4.844"/><path d="m149.73 32.91-.283.292-.06-.148c.357-1.189.75-2.346 1.272-3.473.699-1.51 1.655-2.93 2.49-4.37 1.112-1.918 2.142-4.09 3.542-5.806.598-.732 1.257-1.305 2.038-1.832.261.045.333.093.546.237.089.164.17.315.185.505.202 2.51-7.804 12.418-9.73 14.596M93.79 19.226a9 9 0 0 1 1.017-1.12c.337-.002.635.04.925.224 1.153.736 6.241 9.894 7.02 11.609.399.88.644 1.741.842 2.685-.033.026-.298.244-.332.26l-.227-.133c-1.785-1.843-3.17-4.142-4.605-6.26-1.593-2.35-3.32-4.752-4.64-7.265m74.674 22.576c1.894-3.223 11.782-12.193 15.247-13.423.197-.012.405-.027.603-.003.337.04.56.175.768.44.035.184.088.383.02.567-.463 1.252-13.447 10.857-15.39 11.913zM69.002 30.32c.47-.713 1-1.272 1.628-1.843 1.918.924 5.986 5.022 7.837 6.625 1.843 1.595 4.011 3.134 5.658 4.915.55.594.82 1.23 1.126 1.966-.422-.16-.83-.359-1.24-.547-3.08-1.767-5.89-4.151-8.719-6.29-2.109-1.593-4.332-3.044-6.29-4.826m138.188 9.356.053.056zM13.66 117.214c1.619-1.033 3.404-1.85 5.086-2.779q2.101-1.15 4.075-2.506 1.974-1.357 3.801-2.906c4.108-3.506 8.188-7.143 11.869-11.097 6.585-7.075 12.516-14.773 19.39-21.587 2.02-2.003 5.068-4.014 7.38-5.899 7.25-5.906 14.278-12.24 22.208-17.233 3.139-1.977 6.458-3.477 9.716-5.224 2.275-1.221 4.665-3.003 7.227-3.457 2.08-.075 4.049.544 6.025 1.113 4.798 1.384 10.042 2.729 15.019 1.543 1.163-.278 2.28-.776 3.398-1.195 3.674-1.377 7.418-.5 10.809 1.243 1.768.908 3.292 1.875 5.308 2.128 4.839.609 12.218-1.397 16.18.899 5.572 3.23 9.592 11.343 14.682 15.782 3.436 2.995 7.338 5.412 11.126 7.925q6.652 4.452 13.226 9.017c2.838 1.978 5.744 3.903 8.41 6.11 2.387 1.976 4.435 4.301 6.56 6.544 1.977 2.086 4.016 4.133 5.938 6.267 3.13 3.475 6.22 7.102 10.131 9.74 2.38 1.606 5.151 2.986 8.036 3.326.945.11 2.296-.046 3.15.386.317.16.56.352.67.702l-.107.159c-2.964 1.017-7.232.465-10.367.435l-9.507-.059q-34.634-.057-69.255-1.032-24.31-.665-48.618.062-15.572.532-31.128 1.412l-22.012.824c-7.949.28-32.325 1.49-38.425-.644m119.37-56.569.05.06c.137 1.522 1.224 3.025 1.6 4.536-2.283-.951-4.358-2.572-6.493-3.824l-.088 1.654c-.959-.471-1.84-1.101-2.681-1.756-.444 1.977-.479 4.124-.606 6.145l-.537 8.773c-.106 1.912-.136 3.835-.373 5.737.619-.978 2.144-4.171 2.976-4.59 1.03-.08 4.434 2.5 5.518 3.212 3.22 1.955 6.37 4.174 9.717 5.897 1.952-2.428 3.962-5.194 4.997-8.145-.944-4.221-6.202-11.145-9.34-14.111-1.43-1.355-3.066-2.424-4.69-3.528zm33.27 37.274c-2.077-1.82-3.61-4.275-5.619-6.19.794 1.833 1.395 3.54 1.773 5.512-1.744-1.933-3.843-3.965-5.948-5.519.41 1.61.556 3.26.934 4.87-1.712-1.575-3.234-3.302-4.78-5.037.494 3.583 1.561 7.138 1.635 10.763-1.064-.993-1.803-2.477-2.563-3.71-1.315-2.133-2.579-4.331-4.045-6.365.523 2.168 1.066 4.333 1.5 6.52-1.756-2.348-3.466-4.705-5.105-7.138.502 3.03 1.13 6.288 1.029 9.357-1.9-2.927-3.048-6.375-5.302-9.077.029 2.16.168 4.313.208 6.47-1.579-2.65-3.893-4.88-5.948-7.168-.392 3.216-.678 6.494-1.453 9.645-1.287-3.355-1.243-7.236-3.024-10.386-.218 1.343-.518 7.739-.978 8.284-.543-.265-.926-1.556-1.121-2.115-.522-1.497-.853-3.084-1.435-4.553-.203 3.417-.517 9.56-1.656 12.635-.284.768-.653 1.382-1.226 1.97-.475-5.014-.213-10.437-2.405-15.12-1.126 1.89-1.189 4.012-2.118 5.933l-.2.412c-.776-2.406-.974-4.988-1.67-7.428-.628 3.419-.712 6.829-.85 10.29-1.448-3.48-1.712-7.072-3.486-10.742-.783 3.61-.872 7.237-.888 10.916-1.409-3.444-1.818-7.241-2.97-10.785-.547 2.779-.634 5.707-1.519 8.406-1.106-3.224-1.216-6.468-1.741-9.799l-.041.103c-.623 1.575-1.818 7.236-2.713 8.036l-.198-.087c-.62-1.622-.295-4.215-.743-6.073a43 43 0 0 0-1.117 3.546c-.405 1.527-.659 3.162-1.413 4.566-.287.534-.681.95-1.117 1.364.128-1.308.3-2.638.33-3.951.038-1.68-.084-3.357-.024-5.037-.694 1.301-1.394 2.602-2.008 3.943-.915 1.997-3.382 8.79-5.134 9.733l-.239-.061c-.603-1.229 1.318-7.45 1.483-9.317.135-1.523.005-3.085-.48-4.54-.557.843-1.287 3.02-1.77 3.479-.28-.098-.376-.19-.507-.464-.623-1.311-.112-3.056-.695-4.271l-.185.033c-1.676 2.427-1.793 8.277-2.571 9.327-.393-.235-.52-.659-.632-1.09-.739-2.822-.555-5.911-1.1-8.798-.707 2.46-1.324 5.998-2.805 8.057-.045-1.592.177-6.575-.457-7.736-.697.58-2.56 6.557-3.023 7.772-.472-2.351-.104-4.733-.485-7.085-1.974 5.079-3.353 13.638-7.026 17.468l.018-.2c.136-1.444.502-2.884.852-4.29.414-1.659 1.06-3.475 1.23-5.173.226-2.266-1.689-6.389-2.662-8.511-.454 2.451-.633 5.009-1.218 7.425-.726-2.613-.88-5.336-1.207-8.017-.685 2.486-1.557 6.84-2.621 8.905l-.027-.16c-.187-1.153-.505-8.607-.859-9.04-1.152 1.503-1.234 6.212-2.442 7.889l-.13.004c-.617-1.209-.085-6.301-.188-8.015l-.063.1c-.759 1.257-2.364 7.152-3.176 7.57-.35-.411-.237-1.283-.197-1.816.136-1.806.373-3.613.598-5.41-.669 1.26-1.297 2.562-1.808 3.895-.794 2.071-1.434 5.191-2.803 6.897l-.226-.033c-.562-.82.876-8.276 1.118-9.695-.644 1.273-2.935 6.17-3.89 6.785-.258-.28-.22-.656-.207-1.024.07-2.009.861-3.94.964-5.958q.012-.209.02-.418l-.099.122c-1.018 1.282-2.86 5.093-4.018 5.788l-.188-.099c-.327-1.353.428-3.328.79-4.661-4.295 4.666-8.151 9.691-12.836 13.988-2.98 2.733-8.349 5.99-10.18 9.309 4.249-.76 7.624-4.377 11.296-6.4-.987 2.236-2.818 4.15-4.263 6.112 2.996-1.21 5.985-3.882 8.256-6.18 1.053-1.066 1.918-2.278 3.28-2.962l.146-.076.088-.044c-1.16 2.778-2.97 5.38-3.907 8.23 3.971-2.426 5.916-7.738 8.608-11.379l.063.17c.965 2.618.556 10.488 3.127 11.607.244.106.287.075.537.047.334-.439.174-1.215.101-1.736-.322-2.29-.974-4.657-1.949-6.756 2.811 1.86 4.382 5.118 6.85 7.374-.223-1.739-.726-3.459-.877-5.196 2.29 1.555 3.812 3.823 5.972 5.478-.112-1.91-.796-3.36-1.596-5.056 2.171 1.154 3.768 3.169 5.837 4.489-.85-1.48-1.757-2.95-2.421-4.525 2.593 1.491 4.294 3.974 7.066 5.253 1.833-2.026 3.566-4.36 5.624-6.152-.139 1.89-.611 3.737-.76 5.62 1.392-1.59 4.035-5.809 4.775-7.73.306-.811.592-1.62 1.027-2.373.608 2.102.493 7.128 2.06 8.451.212-.164.148-.059.193-.364.357-2.44-1.81-8.068-1.15-9.621l.198-.014c.81.737 1.304 1.782 1.938 2.668 2.154 3.01 4.586 5.609 7.81 7.506q2.259-1.546 4.295-3.376c1.323-1.173 2.548-2.568 4.127-3.397-1.372 2.663-3.006 5.177-4.31 7.88 2.708-1.971 4.358-4.601 6.113-7.395.662-1.053 1.288-2.135 2.116-3.07.053 2.118-.707 7.792.757 9.375.029.032.066.056.099.084.23-.15.252-.407.308-.666.563-2.647-.788-6.923-.062-9.304l.176-.102c.627.613 1.074 1.815 1.53 2.589 1.645 2.784 3.855 6.68 6.355 8.722-.538-2.898-1.492-5.72-1.895-8.642 1.878 2.214 3.588 4.563 5.725 6.545-.658-1.996-1.419-3.959-2.157-5.927 2.72 2.198 4.88 4.97 7.501 7.259 3.42-2.052 6.207-4.719 9.161-7.37l-.077.172c-.83 1.816-2.797 4.14-3.266 5.9l.105.24c.332.107.387.083.73-.006 2.498-2.36 5.206-7.93 6.814-11.106.378 2.492.191 7.359 1.151 9.395.249.527.652.895 1.113 1.238.484.361.995.687 1.471 1.056-.383-1.981-2.715-9.84-2.328-11.092l.176-.029c.809.723 1.423 1.815 2.047 2.703 2.023 2.879 4.279 6.612 7.24 8.57-.664-2.583-3.99-6.014-5.51-8.456 2.62 2.051 6.222 5.264 8.43 7.736 1.21-2.055 3.975-6.359 5.524-8.013-.187 1.12-1.528 7.802-1.426 8.188.37-.022.59-.114.849-.39 1.645-1.76 2.627-8.094 3.394-10.596 1.788 3.435 2.17 8.506 5.355 11.299-.597-2.867-1.649-5.605-2.368-8.439 3.245 1.56 5.936 7.73 7.612 8.38.157-.187.116-.32.099-.562-.083-1.135-.411-2.322-.675-3.428 1.429 1.403 2.77 3.286 4.46 4.35-.094-.902-.196-1.789-.16-2.697l.144.087c1.35.828 2.632 2.374 4.384 1.945 2.107-.517 3.627-3.135 5.296-4.433l-.04.168c-.265 1.09-1.544 3.415-1.226 4.42.242.112.146.123.371.045 2.02-.694 5.76-7.401 6.767-7.675.292.738-1.842 6.423-2.18 7.805l1.213-.36c1.345-3.98 1.507-8.521 3.352-12.296 1.831 3.154 1.777 5.766 1.268 9.329-.119.828-.383 1.822-.333 2.647.597-.27 1.032-1.48 1.266-2.095.495-1.303.853-2.656 1.212-4.002 1.892 2.06 1.915 3.733 2.923 6.185.415-2.378.84-5.23 2.548-7.061.875 2.267 1.278 4.639 1.854 6.989.552-1.103 1.214-2.367 1.326-3.612.158-1.77-1.368-5.517-.013-6.849.251.005.283.071.448.25.857.933 1.387 2.475 1.85 3.641.544-1.186 1.058-2.4 1.707-3.533.014 3.81-.81 7.558-.766 11.338l.11-.165c1.686-2.582 1.805-5.49 2.481-8.39.064-.273.102-.564.364-.694 1.556 1.662 2.151 7.337 2.526 9.742.43-.056.828-.016 1.128-.375.84-1.005 2.122-6.71 2.7-7.139.108-.08.247-.108.371-.161.293.043.35.062.527.33.987 1.503-1.022 6.974-.155 7.853.334.019.368.008.659-.158.64-1.011.983-4.863 1.218-6.226 1.677 1.874 3.388 3.968 4.48 6.24.104-.618.149-1.323.453-1.877.046-.03.093-.057.137-.09.178-.13.225-.219.316-.412-.662-1.277-2.426-2.833-3.444-3.945-4.766-5.204-9.413-10.439-15.009-14.797-.254 1.56-.567 3.131-.667 4.71-1.075-2.497-2.49-4.841-4.007-7.093.64 3.066.692 6.186.586 9.308-.635-1.32-1.09-2.699-1.647-4.05-.756-1.832-1.603-3.638-2.472-5.42-.08 2.57-.03 5.204-.599 7.722-.326-2.86-.726-5.862-2.173-8.398-.273 2.998.103 5.993-.411 8.982-1.873-2.997-3.392-6.224-5.323-9.184-.034 2.141.176 4.272.142 6.41-.806-1.01-1.426-2.097-1.994-3.255q-.064 2.47-.157 4.939c-1.288-1.981-2.23-4.18-3.466-6.196.535 2.08.878 5.534.918 7.696-1.168-2.673-2.272-5.511-3.866-7.96.633 2.814 1.589 5.859 1.756 8.736-.89-1.279-1.594-2.676-2.404-4.006-.874-1.435-1.85-2.8-2.812-4.176.31 2.25.853 4.49 1.34 6.709.199.91.476 1.856.585 2.78-1.802-2.467-2.948-5.53-4.603-8.126.097 1.753.285 3.473.648 5.194.438 2.074 2.273 7.182 2.006 8.915-.234.035-.148.067-.332-.078-.45-.354-.828-1.055-1.076-1.567-.447-.924-.71-1.956-1.105-2.907-1.06-2.548-2.555-5.67-4.253-7.827-.137.926-.264 4.001-.811 4.505-.519-.006-.965-.46-1.304-.81-1.308-1.354-2.251-3.013-3.6-4.344.442 2.037.798 4.155 1.436 6.138m-60.88-51.123c-2.007.255-3.77.974-5.067 2.61-.785.992-1.954 3.846-2.976 4.312l-.146-.073c-.232-.685.03-1.308.335-1.922q.397-.788.809-1.57c-1.75.812-3.471 1.709-5.038 2.843.856.169 1.709.359 2.58.426.109 1.595.056 3.197.036 4.794l.198.072c2.113-1.63 4.469-3.273 6.854-4.476 1.831 1.229 3.557 2.478 5.221 3.927-.425-2.048-.871-4.095-1.232-6.155-.236-1.34-.338-3.405-.833-4.615-.27-.134-.439-.167-.74-.174m2.868.702c.715 3.447 1.492 6.962 1.92 10.456 1.221-1.098 2.48-2.343 3.844-3.258q2.604 1.744 5.279 3.377l1.81 1.335c-.052-1.865-.418-3.75-.7-5.59-.18-1.173-.292-2.411-.552-3.566-1.918-.455-3.885-.603-5.808-1.023-1.983-.432-3.86-1.131-5.793-1.73m24.955.48c.983 2.722 2.094 5.645 3.735 8.039.64-.378 1.273-.754 1.885-1.175 3.202.853 8.113 3.814 11.213 5.452l.364.125c.112-.222.145-.181.065-.446-.283-.932-1.044-1.914-1.641-2.67-2.654-3.355-5.904-5.662-9.728-7.527-1.868-.91-3.781-1.768-5.893-1.798m-3.298.286c-2.445.654-4.868 1.346-7.373 1.734.416 2.602.811 5.233 1.463 7.788.937-.668 3.138-2.519 4.173-2.573 2.099 1.258 4.185 2.538 6.406 3.572-.356-1.728-3.14-9.52-4.376-10.506zm16.601 3.335a49 49 0 0 1 7.298 7.813c1.696-1.423 3.426-2.825 5.368-3.904.604.154 1.21.328 1.82.456 1.001.2 2.01.387 3 .638-1.056-2.063-2.675-3.904-4.957-4.62-2.392-.75-5.774-.235-8.281-.196-1.42.023-2.834-.073-4.248-.187M85.6 59.23c-1.088 1.007-4.495 5.288-5.653 5.297-.08-.579 1.603-3.664 1.931-4.486-4.297 3.245-8.325 6.828-12.536 10.181-2.744 2.186-7.152 5.178-9.464 7.646 2.38-.009 3.682-.098 5.432-1.856.34-.343.666-.683.961-1.067 1.995 2.453 4.085 4.79 6.238 7.104 1.008 1.084 2 2.317 3.107 3.293 2.959-2.914 3.959-6.982 6.166-10.406 3.245-5.034 7.921-9.259 10.065-14.94-1.726 1.01-2.895 3.261-4.338 4.679.241-1.826.736-3.602.979-5.433l-.124.145c-.778.914-3.276 5.596-3.87 5.85-.283-.474-.085-1.072.042-1.585.26-1.049 1.302-3.366 1.163-4.318zm80.053-.023c.49 1.809 1.07 3.62 1.657 5.4-1.196-1.508-2.316-2.976-3.673-4.35.312 1.514.352 3.103.425 4.644-1.238-1.934-2.407-3.696-4.067-5.303.33 2.005 1.023 3.93 1.413 5.926-1.24-1.49-2.208-3.042-3.617-4.407.319 1.566.746 3.109 1.417 4.564-1.237-1.425-2.482-2.82-3.857-4.114.353 1.193.716 2.31 1.316 3.403 1.793 3.266 5.758 7.368 8.375 10.142.95 1.068 1.917 2.367 3.076 3.209 1.357.985 3.246 1.682 4.76 2.427 3.477 1.712 7.11 3.824 10.81 4.973.379-2.002.375-4.13.508-6.164.09-1.355.276-2.712.33-4.067-3.421-3.211-8.005-5.005-11.3-7.913-2.413-2.13-5.287-6.96-7.573-8.37m-65.062.403c-.52 1.558-.994 3.159-1.609 4.68-.139-1.39-.255-2.776-.231-4.177-.907 1.54-1.291 3.351-2.022 4.974-.324-1.49-.264-2.952-.374-4.461-1.342 1.222-2.073 2.846-3.283 4.16.11-.8.265-1.574.447-2.36-2.512 4.439-5.5 8.371-8.54 12.448-1.565 2.1-3.228 4.186-4.563 6.444 1.81-.771 3.426-2.076 5.224-2.762a19 19 0 0 1 1.65 1.18c2.665 2.238 5.45 4.325 8.204 6.453 1.41-2.556 2.854-5.104 4.153-7.719 1.13-2.278 6.482-13.885 5.95-15.778-.022-.079-.074-.147-.111-.22-.32.257-.63.709-1.046.773-.209-.105-.264-.072-.344-.307-.302-.885-.134-2.337-.139-3.27l-1.275 3.131a14.4 14.4 0 0 1-.502-3.168c-.38 1.126-.656 2.377-1.182 3.436l-.186.014c-.626-.85.362-2.82-.221-3.47m15.467.938c-.328.952-.023 2.317-.02 3.332-.839-.949-1.864-1.715-2.825-2.535.154.819.68 2.54.322 3.27-.327-.066-.528-.407-.707-.677-.45-.68-.867-1.373-1.215-2.11-.804 1.213-.967 2.487-1.242 3.881q-.733-1.92-1.418-3.857c-1.028 2.983-1.994 5.992-3.23 8.898-.723 1.699-1.698 3.273-2.45 4.957-1.09 2.443-1.8 5.058-2.483 7.638 1.476-1.323 3.715-3.652 5.346-4.593 2.09 1.407 4.168 2.83 6.34 4.11 2.61 1.534 5.364 2.943 7.86 4.649.345-.54.637-1.006.772-1.642.376-1.773.29-3.68.41-5.489.36-5.432 1.057-11.056.382-16.483-.787-.967-1.8-1.668-2.803-2.392.36 1.183.628 2.379.895 3.585-1.019-.97-2.957-4.11-3.934-4.542m23.887.322c1.037 4.152 4.88 7.583 7.115 11.249 1.161 1.904 1.879 3.889 2.487 6.024 1.933 1.557 4.403 2.694 6.577 3.895 3.124 1.726 6.227 3.503 9.397 5.142-.016-2.807-.27-5.612-.23-8.42a57 57 0 0 1-3.92-4.102c-1.895-2.201-8.065-10.546-10.377-11.285l-.138.09c.043.293.085.575.086.872-.253.043-.46-.147-.666-.291-1.004-.705-1.919-1.828-3.14-2.125l-.191.064c.175 1.15.728 2.218.914 3.389q-2.025-1.733-4.005-3.518c.225.885.485 1.776.651 2.674-1.393-1.337-2.76-2.867-4.56-3.659m49.683-5.917c3.504-2.809 7.197-5.161 11.083-7.406 1.9-1.098 3.78-2.224 5.835-3.014.222-.035.483-.1.706-.093.35.011.385.087.599.333.112.475.084.817-.175 1.24-1.021 1.668-9.831 6.143-12.115 7.154-1.374.608-2.755 1.15-4.216 1.516-.569.108-1.144.185-1.717.27m-125.958.942c-1.756.112-3.333-.74-4.859-1.514-2.261-1.148-4.489-2.372-6.722-3.574-1.51-.813-3.11-1.568-4.502-2.572-.879-.633-1.915-1.395-2.26-2.454 1.134-.006 2.338-.048 3.415.363 1.595.61 12.665 7.51 14.292 8.834.313.256.474.552.635.916m152.77-7.057-.054-.062zm0 0c6.109 5.545 11.811 11.576 17.625 17.43l8.717 8.735c1.443 1.443 2.96 2.852 4.35 4.345q-.078 10.903-.4 21.802c-.135 6.605-.176 13.22-.409 19.823l-.116.85-.076.053c-.525-.88-1.856-7.717-2.258-9.324a177 177 0 0 0-2.75-9.704c-5.245-16.789-11.367-31.627-20.339-46.796-1.424-2.408-2.802-4.881-4.344-7.215M9.234 78.852c2.82-3.054 5.857-5.957 8.804-8.889 6.499-6.465 13.119-12.871 19.465-19.483l.063.062c.062.567-.822 1.694-1.125 2.182-3.455 5.543-6.705 11.506-9.374 17.468q-2.088 4.593-4.006 9.259t-3.665 9.4-3.318 9.526-2.968 9.642c-1.435 5.101-2.495 10.273-3.771 15.413-.069-.081-.171-.142-.205-.243-.163-.479-.019-10.087-.013-11.553z"/><path d="M203.175 71.24a9 9 0 0 1-1.048-.02l.016-.144c3.744-2.858 15.06-8.043 19.672-8.402.276.02.513.026.76.168.178.102.153.164.207.344-.064.167-.06.178-.169.349-.905 1.43-10.674 5.374-12.794 6.072-2.155.709-4.4 1.304-6.644 1.633m-150.949.228c-.382.062-.774.11-1.162.096-3.004-.116-16.54-4.748-18.649-6.942-.055-.436.15-.851.297-1.254 1.188.35 2.428.19 3.586.512 1.694.47 3.465 1.528 5.085 2.24 3.17 1.394 6.438 2.647 9.533 4.197.446.223 1.245.55 1.5.982zm160.21 15.366c2.7-1.886 8.377-2.983 11.623-3.812 2.02-.515 4.053-1.117 6.105-1.488.744-.097 1.775-.13 2.467.158.367.153.624.416.741.8.093.304.037.498-.1.77-.858.743-10.978 3.006-12.558 3.238-1.587.233-3.191.268-4.791.329-1.162.05-2.325.02-3.487.005M22.964 84.331c.23-.809.513-1.505.882-2.26 2.538.279 6.384 1.343 8.982 1.94 2.855.656 6.595 1.291 9.272 2.288.4.149.849.301 1.038.714l-.125.276-.358.104c-2.869-.102-5.742-.513-8.582-.904-3.691-.508-7.557-1-11.109-2.158M166.3 97.919l.049.074zm57.421 1.473c1.58-.532 3.1-1.031 4.767-1.22 2.336-.281 5.574-.23 7.834.494.32.103.472.168.625.466-.02.034-.035.071-.06.102-.58.744-3.23 1.076-4.143 1.143-2.955.405-6.262.188-9.023-.985m-205.754.84c1.76-1.104 3.939-1.271 5.958-1.43 2.504-.239 5.422.03 7.764.98-1.976.686-3.836.836-5.908.907-2.68.076-5.164.038-7.814-.457m108.84 28.67c-.319 2.386.165 12.018-.416 13.082-.115.21-.19.228-.43.273-.71.134-3.538.13-4.076-.293-.22-1.037-.343-21.516-.15-21.906.17-.343.286-.365.62-.51 1.19-.02 2.756-.216 3.89.106.36.102.497.251.706.549.762 1.085 1.277 2.475 1.855 3.668q1.216 2.517 2.641 4.921c1.804-2.927 2.995-6.237 4.831-9.133l.121-.009c.963-.05 3.657-.33 4.333.28.178.459.233.91.25 1.4.123 3.636-.03 7.325-.015 10.967.01 2.394.295 7.714-.114 9.632-.33.323-.788.352-1.228.366-.561.017-2.802.115-3.133-.277-.68-.804-.36-5.888-.35-7.181q.017-2.793-.28-5.57c-.838 1.427-3.236 6.763-4.095 7.37-.291.205-.44.174-.774.106-.792-.604-3.448-6.488-4.186-7.841m-27.895-9.142c1.286-.043 2.754-.231 4.01.024.97.973.22 12.448.619 15 .156 1.003.467 1.9 1.327 2.498.489.34 1.215.704 1.83.521.987-.294 1.497-1.396 1.753-2.312.721-2.582.46-9.573.445-12.54-.004-.82-.215-2.438.227-3.132q.054-.083.111-.163c1.122-.034 2.982-.315 3.999.13.189.41.233.827.26 1.274.115 1.92.006 3.914-.006 5.84-.028 4.148.515 10.381-2.497 13.66-1.227 1.336-2.86 1.886-4.636 1.919-1.881.034-3.751-.441-5.113-1.817-2.858-2.888-2.417-8.224-2.432-11.975-.007-2.945-.186-5.999.103-8.927m55.495 22.397c-1.01.14-3.367.362-4.222-.181-.048-.16-.061-.187-.09-.377-.337-2.188-.084-6.872-.087-9.29l-.003-7.515c0-1.403-.088-2.885.06-4.278.037-.36.137-.573.35-.86 1.036-.025 3.478-.321 4.267.282.086.234.105.346.125.593.3 3.662.054 7.978.055 11.708l.002 5.838c-.001 1.063.071 2.205-.054 3.258-.042.36-.172.552-.404.822M8.522 177.07c-.295-5.911.073-11.921.095-17.84l.206-15.543c.052-2.735-.038-5.498.209-8.224.566.992.776 2.71 1.072 3.848.688 2.65 1.345 5.3 2.166 7.913q4.263 13.452 9.263 26.647c2.458 6.687 5.063 13.439 8.278 19.799q1.72 3.339 3.618 6.58c.733 1.273 1.547 2.555 2.163 3.888l-.13.02c-3.489-3.529-7.093-6.946-10.57-10.483l-10.343-10.47c-2.01-2.044-3.969-4.14-6.027-6.136"/><path d="M243.119 147.689c1.33-3.77 2.274-8.332 2.888-12.279.028.02.058.037.083.061.202.198.182.26.18.53l-.14 26.335c-.002 4.946.26 10.638-.137 15.519-4.428 4.216-8.642 8.726-12.902 13.111l-14.317 14.56c1.504-3.293 3.553-6.335 5.147-9.582.65-1.324 1.064-2.752 1.708-4.077.594-1.221 1.295-2.393 1.91-3.604a292 292 0 0 0 5.139-10.652c4.05-8.84 7.482-18.274 9.992-27.667-1.267-.113-2.545-.071-3.815-.17-4.994-.384-9.973-.82-14.98-1-15.417-.553-30.96-.076-46.375.404l-18.561.639c-3.379.117-6.809.111-10.175.374 2.226.451 4.45 1.217 6.523 2.143 1.813.81 3.616 1.852 5.577 2.251 3.317.675 8.071-.899 11.632-.851 4.703.063 9.242 2.11 13.99 1.424 5.112-.74 9.484-4.032 14.744-4.175 5.39-.148 11.773 3.95 17.899 4.406 3.073.229 5.674-.606 8.57-1.475 1.265-.38 2.558-.801 3.896-.76.49.014 7.697 1.498 7.958 1.647.094.053.147.158.22.237-.077.19-.026.168-.205.248-1.98.891-5.64-.841-7.866-.917-2.654-.09-5.24 1.212-7.78 1.828-1.603.388-3.284.462-4.924.316-3.244-.29-6.362-1.306-9.423-2.364-2.514-.869-5.1-1.963-7.788-2.054-5.086-.172-9.346 2.87-14.16 3.936-5.638 1.25-9.754-1.138-15.12-1.232-3.659-.065-8.028 1.526-11.352.878-3.414-.666-6.576-2.756-9.814-4-9.484-3.646-8.549 2.805-14.51 3.333-5.797.513-12.904-3.814-18.455-2.376-1.718.445-3.213 1.492-4.826 2.197l-.15.064c-.709.297-1.472.535-2.244.57-1.465.066-3.029-.477-4.458-.788-1.31-.286-2.677-.475-4.02-.476-2.838-.002-5.777.42-8.568.9-2.734.472-5.394 1.294-8.195.91-3.24-.444-5.708-2.46-8.693-3.6-5.087-1.943-9.364-.546-14.102 1.586-9.34 4.262-11.299-1.425-19.735-1.221-1.68.04-3.403.269-5.012.764-1.933.596-3.768 1.446-5.786 1.744-2.84.42-4.939-.585-7.482-.565-1.813.014-3.451.689-5.209.777l-.187-.2c.096-.27.02-.192.227-.333.587-.4 1.493-.615 2.172-.808 4.685-1.334 5.965.36 9.89-.041 4.65-.474 7.669-3.11 12.952-2.683 4.347.351 8.374 3.292 12.73 2.959 2.27-.173 4.22-1.215 6.255-2.131 2.698-1.215 6.089-2.324 9.088-2.074 2.099.175 4.424.94 6.304 1.875 2.938 1.461 5.208 3.163 8.642 3.163 1.945 0 3.83-.477 5.721-.877 2.733-.578 5.51-1.163 8.31-1.238 1.392-.037 2.82.131 4.183.406 1.605.323 3.506 1.074 5.13.926 2.11-.191 4.014-1.842 5.948-2.621 4.752-1.914 11.64 1.194 16.45 2.099.991.186 2.084.356 3.09.195 2.18-.348 4.603-2.446 6.422-3.697-5.964.06-11.943.26-17.906.201-5.222-.052-10.486-.317-15.696-.675-4.747-.327-9.515-.683-14.247-1.176-8.477-.885-16.985-1.984-25.492-2.522-7.763-.49-15.433-.303-23.197-.115q-10.766.267-21.516.917-3.11.21-6.215.503c-1.085.104-2.243.315-3.328.335a1.4 1.4 0 0 1-.734-.195c-.347-.189-.714-.69-.798-1.068.047-.042.088-.093.142-.126.627-.391 2.348-.523 3.111-.654 7.895-1.359 15.878-1.94 23.868-2.42 4.986-.298 9.976-.626 14.972-.678 13.55-.141 26.986 1.849 40.44 3.154q11.639 1.05 23.322 1.276 16.148.357 32.287-.306c14.313-.636 28.606-1.89 42.931-2.21q9.164-.208 18.323.178 9.158.386 18.272 1.362c2.236.244 9.543.866 11.357 1.492"/><path d="M29.344 162.712c-1.676-.211-3.262-.731-4.97-.81-1.574-.071-3.526.554-4.972.242l-.09-.219c.457-.415 1.17-.606 1.763-.755 4.305-1.076 7.119 1.232 11.052.687 3.631-.504 6.784-2.806 10.419-3.268 4.959-.629 9.984 2.19 15.227 2.031 5.416-.165 9.536-3.3 15.234-3.03l.13.007c5.441.357 12.637 4.136 17.379 3.953 3.261-.125 6.705-1.607 9.846-2.473 3.484-.96 7.209-1.254 10.817-1.132 2.798.094 5.658.127 8.41.676 4.484.895 8.787 2.783 13.448 2.522 4.576-.256 7.934-3.928 12.403-4.605q.07-.012.139-.02c1.981-.222 8.152.678 9.633 1.9l.01.208c-.953.493-7.89-2.03-11.774-.463-3.752 1.516-6.185 4.083-10.658 4.286-4.384.199-8.978-1.64-13.198-2.597-2.234-.507-4.468-.708-6.751-.793-4.258-.159-8.504.048-12.64 1.154-3.255.87-6.362 2.413-9.796 2.438-3.704.026-7.404-1.57-10.933-2.563q-1.524-.433-3.083-.724-1.558-.291-3.137-.438c-5.883-.535-9.888 2.685-15.506 2.927-4.75.205-9.071-2.313-13.742-2.144-5.376.196-8.588 3.836-14.66 3.003m167.875-2.752c-3.632 1.017-7.265 2.14-11.046 2.423-4.734.354-9.337-1.303-14.086-1.208-2.04.04-4.09.266-6.113.527-1.594.206-6.687 1.392-7.87 1.095-.115-.03-.146-.049-.263-.098l-.089-.226c.623-.639 2.915-.842 3.825-1.025 4.524-.908 9.236-1.675 13.863-1.236 3.834.364 7.56 1.435 11.447 1.085 5.048-.455 9.734-2.583 14.77-3.124 6.866-1.01 12.56 4.568 19.357 4.49 1.784-.02 3.542-.35 5.26-.817 1.875-.51 9.779-3.668 11.213-3.051.223.302.22.388.26.767-.362.364-4.329 1.224-5.217 1.498-3.163.98-6.33 2.127-9.653 2.393-4.323.346-7.818-.507-11.724-2.277-2.013-.912-3.958-1.78-6.18-2.026-2.655-.293-5.186.198-7.754.81m-107.627 9.094c-5.294 1.859-9.176 2.775-14.7 1.06-2.481-.77-4.873-1.542-7.441-1.986-1.643-.285-3.316-.649-4.992-.536-3.862.259-7.613 2.283-11.307 3.343q-.626.181-1.266.308-.64.126-1.288.198-.648.071-1.3.088-.651.016-1.302-.024c-3.234-.196-6.268-1.547-9.496-1.895-.965-.105-3.822.189-4.455-.227-.163-.108-.146-.208-.194-.384.322-.35 1.213-.352 1.683-.384 2.254-.151 4.49-.01 6.686.537 2.081.52 4.121 1.304 6.293 1.312 5.875.022 10.695-4.047 16.529-4.086 2.326-.016 5.406.593 7.63 1.276 3.198.982 6.227 2.31 9.633 2.36 3.987.058 7.353-1.903 11.092-2.87 2.572-.665 5.283-.753 7.928-.805 3.143-.063 6.229.078 9.364.262 1.494.089 3.041.097 4.514.373 1.46.274 2.923.748 4.361 1.13 2.766.734 5.632 1.309 8.499 1.386 2.84.076 5.714-.39 8.443-1.166 2.96-.84 4.703-1.608 7.92-1.85 3.67-.276 7.307.92 10.86 1.686 3.035.654 6.314 1.136 9.418 1.127 4.077-.011 7.616-1.23 11.445-2.469 1.571-.508 3.156-1.106 4.81-1.254l.199-.016c5.256-.092 8.73 4.445 13.176 4.891 2.791.28 6.836-1.653 9.587-2.452 2.589-.752 5.303-1.316 8.008-1.349 3.93-.047 6.667 2 10.125 3.463 1.642.695 3.494 1.138 5.265 1.325a14.6 14.6 0 0 0 5.317-.39c.942-.243 1.943-.594 2.918-.628l.105.13-.085.42c-.306.398-.58.573-1.054.745-.883.322-1.877.473-2.802.623-4.318.701-8.087-.132-11.986-2.037-2.21-1.08-4.087-2.298-6.601-2.476-4.396-.312-8.691 1.257-12.844 2.475-1.689.495-3.432 1.038-5.201 1.12-.931.044-1.856-.11-2.75-.362-2.389-.675-4.417-2.134-6.632-3.2q-.456-.219-.924-.407c-4.465-1.783-9.469.915-13.876 2.056-2.37.613-4.73.918-7.18.879-1.77-.028-3.604-.134-5.343-.468-4.221-.81-8.245-2.287-12.615-2.162-6.139.178-11.852 3.371-17.963 3.136-4.092-.158-8.021-1.575-11.99-2.437-5.125-1.112-15.345-1.335-20.534-.444-1.271.219-2.474.629-3.687 1.055m126.82 6.6c-4.396-1.954-8.417.177-12.867.814-2.746.393-5.541.456-8.31.367-2.373-.077-4.77-.207-7.073-.819-2.333-.618-3.72-1.943-6.315-1.874-4.987.133-9.298 1.22-14.144 1.885-2.27.312-6.116.392-8.48.335q-1.758-.032-3.507-.21-1.749-.177-3.477-.499c-4.16-.812-8.162-2.09-12.456-1.996-2.191.047-4.426.414-6.549.95-2.114.532-6.675 2.629-8.554 2.32l-.01-.452c1.44-.985 7.287-2.664 9.064-3.048 1.426-.308 2.846-.481 4.294-.627 6.239-.771 10.58 1.33 16.298 2.48 2.045.41 4.216.529 6.3.526 1.778-.002 3.626-.04 5.385-.303 1.85-.275 3.691-.754 5.521-1.138 3.385-.71 7.088-1.339 10.555-1.3 2.496.028 4.472 1.409 6.817 2.016 3.165.82 7.347.816 10.624.672q3.42-.15 6.774-.831c2.354-.484 4.75-1.445 7.191-1.233 1.95.17 3.718 1.195 5.5 1.928 1.015.417 2.054.757 3.102 1.085.901.282 1.805.562 2.724.786 1.329.324 3.124.44 4.304 1.123.263.153.19.058.262.321q-.062.029-.126.052c-2.63.827-10.31-2.227-12.847-3.33M24.714 177.13c6.484-4.586 12.777.388 19.86-.516 4.96-.632 9.285-3.308 14.352-3.687 6.08-.282 11.693 3.312 17.75 3.752 7.626.553 13.013-3.716 19.868-3.76 4.43-.028 11.462 2.809 16.263 3.622 1.35.229 2.728.13 4.091.185.556.022 1.244.023 1.636.452l-.076.214c-.657.362-1.518.337-2.252.347-5.028.07-9.43-1.809-14.218-2.93-1.594-.374-3.224-.626-4.862-.65-4.268-.066-7.983 1.493-11.989 2.659-7.042 1.796-11.17.79-17.792-1.278-2.255-.704-4.51-1.372-6.886-1.486-1.9-.091-3.746.149-5.581.636-3.638.968-6.95 2.7-10.742 3.161-4.383.532-7.969-1.291-12.208-1.58-2.424-.165-4.64.72-7.022.85z"/><path d="M107.34 178.265c-3.055-.362-5.99-.897-9.084-.971-.804-.019-3.805.18-4.364-.333.038-.307.104-.33.322-.556 3.797-.204 7.424-.021 11.17.632.617.107 1.497.177 2.041.497.212.124.136.057.219.328zm33.041.02q-.81.22-1.629.411c-.428.097-.931.227-1.328-.022-.013-.197-.063-.219.047-.345.871-.988 7.226-1.463 8.75-1.527.79-.014 2.504-.116 3.166.355l-.118.183c-1.46.557-3.1.206-4.632.332-1.43.118-2.845.359-4.256.613m-.903 5.906c-3.471.337-6.398.629-9.913.121-3.076-.444-6.022-1.33-9.154-1.34-3.661-.011-7.091 1.117-10.71 1.411-2.419.197-4.978.26-7.389-.026-2.462-.291-4.909-.853-7.386-.982a21 21 0 0 0-3.099.048c-.908.088-1.896.34-2.808.233-.304-.036-.455-.048-.655-.297.022-.034.04-.072.066-.103.41-.476 1.567-.576 2.167-.652 4.961-.627 7.88.49 12.562.936 1.967.187 4.045.17 6.019.032 4.108-.287 7.237-1.619 11.57-1.473 5.465.184 10.35 2.276 16.007 1.66 2.729-.296 5.37-1.208 7.983-2.01 3.944-1.211 7.992-2.498 12.083-3.082 2.482-.439 5.846.455 8.375.782 1.866.242 3.75.333 5.59.76 1.446.335 2.91 1.114 4.38 1.255 2.512.242 4.61-1.012 7.29-.327 1.59.407 3.26 1.118 4.737 1.835 1.546.752 3.044 1.896 4.798 2.073 5.137.518 9.055-3.786 13.14-4.151 2.116-.19 3.93 1.02 5.818 1.77 1.5.594 3.161 1.145 4.772 1.322 2.328.254 5.001-.286 7.287-.76.91-.188 1.832-.467 2.757-.554.675-.064 1.645.096 2.184.53l-.075.18c-1.11.438-2.65.419-3.845.678-.83.18-1.632.47-2.464.625-3.054.573-6.412.452-9.389-.442-1.906-.572-4.795-2.357-6.72-2.17-1.351.132-2.603.744-3.815 1.311-2.918 1.369-6.022 2.882-9.339 2.592-1.679-.147-2.985-.753-4.445-1.545-4.784-2.593-6.463-2.804-11.779-2.243 4.31 1.31 8.487 2.885 12.682 4.517 2.72 1.058 5.365 1.865 7.813 3.507 4.15-.635 8.15-1.442 12.37-.804 3.294.498 6.484 1.513 9.824 1.784 1.567.127 4.009-.495 5.043-.102.23.242.265.262.317.588l-.176.21c-.781.354-1.72.335-2.565.35-2.126.039-4.36-.117-6.452-.515-2.284-.435-4.522-1.074-6.832-1.382-1.846-.246-3.676-.221-5.53-.061-4.008.345-7.799 1.259-11.673 2.285-1.575.417-3.187.789-4.73 1.305-2.154.72-4.222 1.697-6.424 2.276-1.968.517-4.021.284-5.977.76-1.14.279-2.117.983-3.296 1.166-3.093.481-6.006-1.327-9.171-.94-1.405.17-2.635.718-3.88 1.36-.884.457-1.797 1.016-2.778 1.227-2.044.437-5.763-.819-7.775-1.37-1.235.43-2.417 1.36-3.61 1.941 1 .408 2.056 1.119 3.118 1.31 1.588.286 3.54-.204 5.148-.381 1.799-.197 3.614-.195 5.417-.337 1.308-.102 2.826-.436 4.121-.373.356.018.443.145.649.412l-.052-.189-.004.263c-.046.034-.09.071-.138.1-.629.384-1.687.526-2.413.637-2.036.312-4.123.281-6.17.529-1.968.238-4.07.824-6.048.79-1.153-.021-2.35-.546-3.48-.79-3.514-.754-5.86 1.043-9.04 1.346-1.476.142-2.83-.512-4.28-.594-3.074-.174-6.049.332-9.09.595-1.423.123-2.886.105-4.293.362-1.187.218-2.304.528-3.372 1.1-2.303 1.236-3.274 2.969-5.057 4.032-1.802 1.074-6.116-.787-8.055-1.268-3.415-.847-7.328 2.417-10.18 4.064a9.2 9.2 0 0 1-2.683 1.055c-1.641.355-7.215.632-8.813.359-1.556-.267-3.157-.982-4.692-1.404-2.951-.63-6.15.236-9.097.617-3.943.51-7.9 1.082-11.847 1.543-2.511.293-5.025.283-7.545.43-.282-.22-.583-.444-.834-.697-.234-.235-.354-.398-.353-.728.572-.46 5.102-.394 6.161-.463 3.395-.222 14.406-2.137 17.231-3.518 3.153-1.541 5.884-5.636 8.22-8.278 1.12-1.267 2.337-2.466 3.581-3.611 3.135-2.885 6.714-5.185 10.261-7.522-1.613.178-3.186.114-4.797.201-.876.047-1.698.134-2.314.813-2.559-.316-4.732.373-7.231.686-1.941.244-3.887.214-5.79.73-1.623.44-2.1 1.341-2.9 2.724-2.008.89-5.924 1.412-8.16 1.573-1.448.104-2.963.076-4.392.334-2.062.372-4.026 1.137-6.05 1.665-2.251.588-8.433 1.545-10.683 1.356-.291-.024-.542-.039-.737-.269 1.156-1.078 8.999-1.37 11.258-2.569 3.406-1.806 3.953-6.357 8.594-8.706.128.01.256.016.384.028 1.987.182 3.983-.153 5.985-.1q.915-.95 1.949-1.769 1.034-.818 2.17-1.49c5.248-3.138 10.277-.866 15.51.922q2.538.861 5.165 1.396c1.082.224 2.236.506 3.345.492 1.212-.014 2.444-.391 3.659-.488 1.788-.142 3.573.174 5.352.305q.726.06 1.444-.061c1.19-.2 2.34-.68 3.407-1.227 3.307-1.696 4.657-1.81 8.393-1.292 1.525.21 2.988.919 4.395 1.513q3.046 1.282 6.078 2.595c1.651.72 3.338 1.572 5.094 2 .62.151 1.568.365 2.172.133 1.773-.68 3.773-3.326 5.225-4.6 1.035-.91 2.155-1.662 3.324-2.385m32.554-1.797.056.052c.183.651.497 1.595.942 2.117l.063.061-.063-.061c-.013-.751-.414-1.595-.942-2.117zm-1.953 2.445c.902.886 1.618 2.23 2.581 2.969l.061.044-.061-.044a5.4 5.4 0 0 0-.332-.813c-1.005-2.03-3.744-4.328-5.928-5.005-.748-.232-1.492-.289-2.198.1-1.337.736-1.748 2.435-2.139 3.79.662-.684 1.409-1.398 1.905-2.212.12 1.347-.016 2.656-.126 3.999.658-.987 1.07-2.101 1.534-3.188.01 1.787-.207 3.186.516 4.88.125-.944.357-3.968.99-4.596.268.096.285.149.416.394.303.571.45 1.246.691 1.847.322.802.767 1.598 1.138 2.383a24.5 24.5 0 0 1-.311-5.115 13.8 13.8 0 0 0 2.931 4.16c-.452-1.476-1.198-2.322-1.668-3.593m7.892.31.006.118.273.233.124.243-.124-.243-.075-.268zm-98.22 1.996.124.105.187.156.16.093-.16-.093-.187-.156zm-.983.356.055.185.243.084.051.081-.05-.081-.243-.084zm60.885.125.047.194.248.255.074.248.14.24.06.061-.06-.061-.14-.24-.074-.248-.248-.255zm-59.974-.418c-.93-1.166-2.826-2.266-4.26-2.678-.371-.107-.644-.164-.99.02l-.028.3c.395.969 1.701 2.69 2.534 3.319l.041.076-.041-.076c-.202-.826-.711-1.71-1.062-2.493.78.698 1.937 1.593 2.184 2.639l.028.129.368.167-.145.02c.251-.778-.393-1.712-.716-2.425.705.36 1.224.973 1.916 1.32zm-7.592-1.136c1.531.759 2.312 1.79 3.456 2.982l.05.07-.05-.07a2.3 2.3 0 0 0-.144-.444c-.606-1.394-2.323-3.45-3.783-3.987-.742-.272-1.49-.165-2.191.175-1.671.81-2.441 2.243-3.058 3.899.798-1.007 1.364-2.191 2.27-3.102-.252 1.64-.82 3.305-.577 4.97.29-.234.888-3.097 1.043-3.595l.843 2.248c.155.417.358.784.579 1.17-.135-1.084-.67-3.076-.438-4.077l.13.007c.578 1.487 1.233 2.908 1.892 4.368-.163-1.955-1.184-3.538-1.506-5.46.998 1.467 2.05 2.902 2.899 4.462-.36-1.263-.767-2.468-1.415-3.615m73.664 2.959.229.152.008.294-.008-.294zm-30.986.853.267.148.188-.209c.686.227 1.156.866 1.628 1.386q-.299-.941-.612-1.878c.699.815 1.254 1.486 2.22 1.995-1.221-1.96-2.764-2.849-4.993-3.362-.74-.17-1.496-.293-2.244-.422l-1.308-.233c.263.774.502 1.562.853 2.302.116-.148.077-.056.078-.278 0-.336-.047-.656.153-.943.217-.013.215-.063.353.062.61.554.431 1.71.954 2.371.179-.039.16.004.245-.163.315-.623.002-1.612.498-2.122.615.194 1.203 1.592 1.503 2.173q.11.211.213.425l.133.019c.044-.466-.021-.818-.13-1.27m75.132.117.116.115c.127.311.27.527.565.691l.166-.164-.035-.674-.396-.52c-.178.033-.099.44-.3.667zm-3.44.088c.629.462 1.21.99 1.835 1.461l.058.057-.058-.057c-.912-2.062-3.848-3.953-5.837-4.958-2.163-1.095-3.683-.713-5.869-.006.08-.92.144-1.337-.396-2.135l-.196-.007c-.102.434.123.92.257 1.336-.126.576-.28 1.167-.354 1.751-.043.342-.053.671.157.96l.217-.063a1.7 1.7 0 0 1 .03-.673c.083-.34.27-.617.575-.793.218-.126.145-.092.409-.034.026.507-.393 1.39-.565 1.894.423-.461.815-.95 1.214-1.43.077 1.264.337 2.283.728 3.484l.52-2.269.893 2.361c.292.767.65 1.415 1.186 2.038-.304-1.311-.847-2.72-.975-4.05-.024-.254-.056-.343.106-.552 1.077.742 2.287 3.193 2.987 4.373-.171-.738-.427-1.358-.703-2.057-.198-.498-1.079-2.51-.901-2.928.835.406 2.231 2.159 2.953 2.893-.29-.617-.613-1.22-.747-1.893.82-.199 2.43 2.986 3.596 3.484l.129-.068c-.216-.715-.853-1.465-1.249-2.119m-97.086 1.627-.24.163-.126.111.126-.111zc.324-.156.537-.2.733-.508-.38.101-.462.233-.733.508M62.4 189.86c1.067.714 1.646 1.626 2.543 2.492l.043.117-.043-.117c-.28-.89-.842-1.767-1.559-2.373-1.296-1.097-2.556-1.045-4.146-.934.813.812 1.6 1.63 2.268 2.569.388.546.682 1.128 1.109 1.65l.142-.049c-.668-1.1-1.211-2.058-1.543-3.31.978.91 1.681 2.094 2.642 3.042-.374-1.067-.946-2.078-1.456-3.087m112.506 2.132c.885.663 1.68 1.529 2.644 2.067l.054.05-.054-.05c-.233-.468-.585-.862-.862-1.305-.173-.276-.276-.387-.202-.721.395-.14.775.043 1.158.16-.643-.786-1.453-1.681-2.257-2.307-.772-.6-1.6-1-2.598-.842-1.6.255-5.548 2.79-6.476 4.101l.076.091c.672-.3 1.195-.8 1.751-1.272-.512.93-1.033 1.844-1.4 2.845a22 22 0 0 0 2.33-3.468l-.306 2.066c-.017.289-.062.498.065.766.575-.71.902-1.894 1.325-2.73.101.987.183 1.938.139 2.932.375-.994.74-1.884 1.34-2.767-.01 1.05-.103 2.103-.168 3.151.434-1.002.718-2.069 1.146-3.082.427 1.038.67 2.16.961 3.242-.02-.944-.157-1.885-.268-2.821.403.526.701 1.108 1.092 1.633.361.486.26-.075.708.131.394.181.592.813 1.047.886-.108-1.023-.712-1.908-1.245-2.756m-19.567-1.105c.126.72.12 1.393.155 2.118.04.86-.012 1.449.648 2.053l.078.066-.078-.066c-.052-1.221.021-2.451.078-3.671l.323.531c.718 1.169 1.051 2.5 1.724 3.695-.084-1.024-.282-2.048-.443-3.063.415.691.821 1.323 1.357 1.928-.063-.879-.145-1.642.159-2.492l.121-.05c.05.349.067.714.248 1.022l.2-.108c.336-.526.478-1.062.642-1.656-1.422-1.481-2.998-2.264-4.823-3.14-.589-.174-1.196-.382-1.796-.514-.446-.098-.527-.02-.9.24q-.032-.02-.067-.035c-.048-.017-.097-.028-.146-.042-.259-.318-.449-.57-.83-.75-.315.032-.256.03-.464.226-.11 1.231.16 2.605.223 3.852.345-.662.587-1.353.859-2.047l-.04.115.179-.25c.005.477-.02 1.04.202 1.472.088.17.1.196.32.225.366.047.631-.357.86-.587-.034 1.266-.068 2.514.031 3.779.261-1.054.66-1.909 1.18-2.851m-72.515 5.665-.05.055zc.422-.302.657-.602.92-1.046-.506.258-.699.542-.92 1.046m41.99-.096c.68.514 1.323 1.076 2.005 1.583-1.564-2.061-5.198-5.158-7.791-5.55-1.258-.19-3.19.343-4.353.823q.217 1.795.367 3.597.643-1.855 1.23-3.73c.25 2.487.358 5.01.745 7.475.186-1.611.406-3.183 1.094-4.668.263.876.489 1.815.52 2.732.122.935.223 1.878.407 2.803.271-1.6.478-3.247.847-4.825.687 1.812 1.312 3.747 2.37 5.38-.201-1.544-.314-3.189-.744-4.683 1.239 1.332 2.378 2.795 3.65 4.084-.682-1.334-2.143-3.281-2.349-4.727l.104-.114c1.51.42 3.025 2.196 4.187 3.2-.694-1.143-1.699-2.203-2.289-3.38m17.676-.073c.538.464 1.053.952 1.68 1.294l.061.044-.06-.044-.694-1.282c.052-.55.078-1.101.112-1.651-.477-.845-.787-2.035-1.425-2.738-.555-.613-1.493-.913-2.3-.918-2.396-.014-3.969 1.34-5.753 2.708-.435.333-1.006.621-1.38 1.016-.186.198-.183.192-.157.474.272.103.265.068.53.002a4.5 4.5 0 0 1 .621-.523c.282-.188.648-.383.98-.31l-.329 1.865c.716-.908 1.249-1.842 1.738-2.888-.015.702-.105 1.402-.177 2.1-.067.315-.112.928-.001 1.218l.186-.082c.475-.708.703-1.51.97-2.312.382 1.129.493 2.352.971 3.446.223-.812.555-1.468.994-2.18.384 1.295.902 2.551 1.385 3.81.005-.666.085-1.326.155-1.989.507.662.85 1.357 1.208 2.107-.143-.884-.644-2.247-.364-3.099l.179-.036c.046.085.095.169.139.256.39.771.937 1.407 1.474 2.08a24 24 0 0 1-.743-2.368m-29.281 2.44q.109.062.216.129c.414.26 1.783 1.71 2.054 1.738-.082-.838-2.536-2.5-2.26-2.988.681.04 1.477.736 2.032 1.131-1.444-1.822-3.26-3.556-5.692-3.792-1.15-.112-2.524.042-3.429.83-1.095.954-1.273 2.428-1.355 3.786.67-.985 1.328-1.847 2.165-2.699-.21 1.74-.626 3.434-.855 5.159a14 14 0 0 0 1.352-2.897l.132-.233c.575.366 1.425 4.352 1.669 5.269.04-1.6-.024-3.123-.247-4.711 1.142 1.339 1.898 2.909 2.898 4.342-.292-1.454-.837-2.581-1.424-3.924 1.073 1.015 2.209 1.949 3.288 2.953-.679-1.291-1.389-2.562-1.831-3.959.567.395 3.065 2.318 3.363 2.427l.165-.112c-.434-.996-1.787-1.39-2.241-2.45m-11.324 3.995c1.17.6 2.309 1.406 3.541 1.853l.056.055-.055-.055c-.564-.765-1.3-1.433-1.919-2.156-.575-.672-1.077-1.405-1.648-2.08-.95-1.123-2.776-2.287-4.3-2.36-.46-.021-.947.118-1.282.447-.358.35-1.178 1.46-1.182 1.92l.372-.209.079.056c.047 1.085-.338 2.207-.379 3.32q.427-1.492.92-2.963c-.015 1.804.121 3.62.748 5.326.038-.902-.082-1.945.08-2.824.05-.267.04-.275.277-.422.506.34.707.905.976 1.433.45.816 1.116 1.576 1.686 2.31a23 23 0 0 0-1.125-3.921c1.653 1.608 2.951 3.449 4.76 4.923-.656-1.16-1.306-2.317-1.9-3.511 1.363.97 2.671 2.086 4.105 2.946-1.051-1.543-2.57-2.701-3.81-4.088m57.452-22.01c.087.785.37 1.633.851 2.265-.054-.79-.02-1.507-.562-2.138zm2.02.4c.045.717-.003 1.81.49 2.366l.247.055c-.006-.773-.054-1.713-.616-2.31-.038-.04-.081-.074-.121-.111m12.024 1.626c.337.734.905 2.415 1.543 2.84-.234-.881-.429-2.167-1.264-2.695-.103-.065-.163-.089-.28-.145m-20.676.196c-.643.129-2.5.33-2.835.824.174.21.137.201.42.303.308.11.563.274.833.456.345-.22.636-.478 1.08-.388.132.028.178.062.286.123.07.197.13.391.18.595.415.169.722-.323.908.15.075.193.097.45.132.655.315-.201.172-.731.493-.95.336.567.647 1.152.999 1.708.094-.707.146-1.453.326-2.143.4 1.035.845 2.329 1.572 3.173l.132-.018.019-.231c.023-.272.073-.528.13-.794l.175-.116c.507.234.742.884.951 1.367l.173.049.314-.521c.139.198.195.355.283.579.121.31.215.522.439.764l.205.007.148-.276.01-.18c.026-.401.022-.722.243-1.073l.19.017c.448.7.608 1.535 1.13 2.183l.189.029c.085-.465-.175-.945-.368-1.36l.13-.022c.697.593.341 1.862 1.175 2.374l.204-.11-.041-.089c-.332-.738-.558-1.538-.953-2.246-1.007-1.802-3.305-3.397-5.204-4.14-1.048-.41-2.974-.933-4.068-.699m-3.245 3.726c.252.637.76 2.507 1.15 2.908l.05-.194q.11-1.34.194-2.681c-.495.044-.906.071-1.394-.033m-8.547.814c.493 1.17 1.732 4.664 2.62 5.343-.275-.985-1.864-4.867-2.62-5.343m-2.827.135c.19.595.337 1.472.857 1.851-.103-.574-.236-1.346-.706-1.752-.045-.04-.1-.066-.15-.099m-58.422.408.145.075zm63.957.36c.26 1.247.662 2.455.948 3.695.183.044.106.057.234.005.271-1.103.033-1.832-.545-2.786a7 7 0 0 0-.637-.915m-38.436.537c-1.329 2.376-1.934 4.038-1.597 6.764.14-.756.257-2.295.828-2.792q.052.067.107.134c.117.138.203.214.352.31.414-.308.488-.97.787-1.4.201.17.167.313.19.572.055.638-.06 1.295.118 1.915l.161-.033c.294-.532.377-1.023.47-1.612.315.406.617.822.979 1.188l.047-.117-.067.117-.054-.035c.107-.452-.02-.681-.152-1.12-.041-.31-.106-.395.042-.681.833.325 1.164 1.744 2.062 1.982l.179-.138c-.063-.716-1.02-1.687-1.352-2.43l-.084-.182-.047-.112a54 54 0 0 1 2.774 1.696c.005-.286.021-.112-.036-.342-.044-.173-.022-.242.032-.407-1.709-1.94-3.247-2.783-5.74-3.277m12.526-.013c.548.84 1.392 2.13 2.306 2.57q-.06-.195-.139-.383-.079-.187-.175-.366-.097-.18-.21-.349-.114-.168-.243-.326-.129-.157-.273-.3-.144-.145-.3-.274-.157-.13-.326-.243-.169-.114-.348-.21c-.137-.075-.163-.078-.292-.12m-14.052.073c-.489.21-1.078.459-1.303.981-.076.177-.01.254.043.424l.18.033.407-.608.11.054a6 6 0 0 1-.21 1.269l-.029.407c.502-.273.875-1.398 1.02-1.953.036-.141.044-.273.053-.418-.201-.178-.102-.13-.272-.19m-47.742.148c-.963.776-1.42 1.51-1.772 2.706l.067.151c.411-.379.598-.903.852-1.392q-.344 2.191-.662 4.386c.506-1.222.93-2.471 1.426-3.694.32 1.247.384 2.52.665 3.769.129-.865-.036-3.941.437-4.435.357.825.633 1.792 1.132 2.535.269-.852-.556-2.566-.855-3.407 1.49 1.38 2.357 2.854 3.417 4.569-.365-1.696-1.139-3.707-2.686-4.65-.605-.369-1.334-.434-2.021-.538m39.351.545c-1.437.392-2.34.743-3.355 1.873.489-.264 1.218-.852 1.772-.849.117.142.207.273.293.434l.265.144c-.31.329-.781.62-.907 1.047.25.113.572.16.831.041.632-.287 1.055-.886 1.8-.941l.306.125.008.135c-.55.557-1.73 1.214-1.779 2.043-.008.14.018.281.038.419l.145.102.369-.488.184.044c.331.6.105 1.761.136 2.468.535.423.945.845 1.376 1.368-.141-.858-.295-1.709-.334-2.58.594.68 1.482 2.071 2.353 2.328.014-.862-.939-1.846-1.429-2.523l-.261-.57.072-.189c.976.482 2.349 2.233 3.203 3.073-.645-1.288-1.688-2.231-2.404-3.462 1.169.774 2.328 1.61 3.565 2.267-1.202-1.362-2.564-2.375-3.537-3.94.92.328 1.814.701 2.712 1.089-.906-.848-4.024-3.497-5.18-3.469q-.121.004-.242.011m52.146.272c-.523.117-.947.173-1.274.645-.776 1.124-.817 3.563-.751 4.879.485-.996.95-2.009 1.477-2.984.307 1.362.208 2.723.386 4.095.29-1.034.469-2.061.63-3.122l.091.175c.66 1.29.873 2.958 1.792 4.079.012.001.025.006.036.001.006-.959-.369-1.94-.515-2.893-.021-.333-.103-.5.104-.777.74.33 2.254 3.016 2.736 3.83-.428-1.63-.897-3.26-1.198-4.918q.74.984 1.449 1.99l.176.013c.107-.336.12-.501-.026-.832-.518-1.177-2.9-3.69-4.092-4.07a2.7 2.7 0 0 0-1.021-.111m-26.065.897c.038.343.019.818.295 1.062q.031.025.064.047c-.007-.28.042-.8-.192-1-.051-.042-.111-.073-.167-.11m-68.42 2.639c-.248.342-.498.636-.584 1.06.122.202.05.15.158.213.21-.335.542-.743.564-1.142zm34.5.01c-1.659 1.31-3.332 2.934-4.24 4.872.218 1.109.546 2.14.92 3.204.195-1.44.859-2.63 1.579-3.876.026 1.006.027 2.02.112 3.023.338-.81.61-1.587.804-2.443.389.564.766 1.138 1.223 1.65-.181-.623-.718-1.695-.67-2.28.357.055.564.298.83.536.246.376.462.757.82 1.037l.105-.11c-.149-.574-.36-.914-.703-1.389q-.136-.194-.269-.39.05.016.099.035c.893.353 1.592 1.084 2.474 1.5-.406-.717-1.33-1.395-1.854-2.224.643.355 2.018 1.285 2.729 1.08-.109-.409-.508-.675-.816-.943-.34-.296-.556-.644-.796-1.022.65.338 1.312.665 1.95 1.025-1.26-1.41-2.445-2.686-4.296-3.286m68.878 1.732h.085zm-27.469 1.198.06.044.008-.009zm1.54.138c-.152 1.016-.269 2.05-.249 3.08.69.882 1.455 1.656 2.26 2.433l1.674-.043c-.667-.936-1.02-1.82-1.337-2.919.803.953 1.583 1.968 2.448 2.862-.29-.634-.56-1.283-.93-1.875a9.8 9.8 0 0 1-1.148-2.191c1.632 1.112 2.405 2.624 3.867 3.835-1.05-2.016-2.647-4.004-4.888-4.704-.561-.175-1.13-.326-1.698-.478m-49.469.64c-.712 1.335-1.122 3.733-.78 5.23.024.108.063.148.121.229l-.115-.141.125.103c.201-1.207.077-3.257.733-4.262.703 1.335.825 2.861 1.607 4.306-.163-1.18-.526-4.759-1.567-5.406-.039-.024-.082-.04-.124-.06m54.217 1.29c.426.588.709.936 1.429 1.11-.407-.481-.77-.986-1.429-1.11m-56.433 1.258c-.356.266-.674.476-.894.87l-.019.338q.257.27.523.532c-.062.143-.062.255-.219.319-.27.109-.587.06-.871.044-.218.16-.284.178-.327.46-.1.644.228 2.395.612 2.939.09.126.11.131.219.21.253-.17.23-.196.35-.459-.467-1.104-.409-1.711-.197-2.875.243.918.498 1.742.94 2.588.055-.756.346-4.437-.092-4.943zm9.781 1.08c-3.286.675-8.561 3.955-10.394 6.776-.48.74-.83 1.991-.599 2.867q.024.085.05.168l.173.01c.486-1.776 1.272-3.089 2.296-4.601-.267.755-.577 1.495-.63 2.3-.048.737-.326 2.23.066 2.885.647-1.209 1.097-2.527 1.808-3.699-.151 1.055-.09 1.953.082 3.003.585-1.748 1.084-3.653 1.926-5.291-.124 2.033.193 4.358 1.008 6.234.052-2.365-.035-4.793.714-7.067l.326 1.403c.27 1.595.577 3.131 1.132 4.658.121-.994.683-3.873.458-4.725l.118-.113.04-.36c.3.155.354.3.445.626.376 1.355.166 2.825.54 4.2.26-.602.022-2.65.099-3.478.239.992.439 1.874.996 2.745l-.015-4.091c.649 1.342 1.065 2.84 1.78 4.136a27 27 0 0 0-.184-5.107c.78 1.111 1.466 2.186 2.029 3.422a35 35 0 0 1-.17-2.086c.554.291 1.106.593 1.672.863-.694-.66-1.284-1.206-1.684-2.094.548.217 1.285.412 1.719.812l.089.286.107.026c.073-.84-.278-1.644-.823-2.266-1.198-1.366-3.391-2.209-5.174-2.441m-12.444 2.79c-.128.757-.285 1.545-.073 2.301l.175.173c.106-.722.326-1.834-.102-2.475m18.409 2.343.084.226.091.033-.017-.288zm11.23 1.065.143.072zm-30.88.082c-.23.684-.648 2.114-.348 2.793.043.098.069.107.144.173.298-.869.345-1.892.358-2.808zm-1.408 2.116.035.153zm-6.974-28.787q-.393-.134-.794-.246-.4-.112-.806-.201t-.817-.156-.823-.11-.829-.064-.83-.017-.831.03-.828.075c-1.14.148-3.819 1.184-4.565.965l-.061-.176c.016-.03.029-.063.049-.091.614-.88 3.684-1.451 4.773-1.618l.122-.011c3.025-.255 5.667.487 8.506 1.429.696.23 1.753.455 2.291.976.15.144.104.109.093.33-.846.319-3.684-.82-4.65-1.115m-22.275 3.265c-1.734.356-3.477.763-5.228 1.027-2.403.362-4.78.21-7.194.275-1.068.03-2.161.249-3.222.224-.283-.006-.534.006-.77-.167 1.116-1.337 9.063-1.244 11.1-1.514 2.362-.313 4.655-.981 7.034-1.203 1.175-.146 2.425-.062 3.594.102 2.347.328 4.595 1.053 6.907 1.544 1.556.331 3.155.45 4.703.8.353.08.69.153.99.365-1.571 1.338-10.942-1.446-13.253-1.706-1.608-.18-3.072-.018-4.66.253m125.948 1.055-.047-.088zm-10.396 2.224-.121-.073zm-108.975 4.19c-3.38.805-5.79-.107-9.058-.772-1.164-.236-2.352-.343-3.506-.625-.205-.267-.191-.386-.23-.726 2.906-.121 5.656.854 8.492 1.322 1.28.212 2.516.125 3.794.239.301.026.497.032.705.265zm64.057-1.368-.133-.227z"/><path d="M110.593 192.289c-.145-.018-.14-.013-.306-.06-.701-.201-1.017-.638-1.336-1.258.675.26 1.256.71 1.642 1.318m-30.645 2.293c-2.01.964-4.386.888-6.543.611-.793-.102-2.183-.221-2.691-.878l.061-.428c1.508-.038 3.054.285 4.575.302 1.509.017 3.788-.365 5.144-.177-.076.27-.33.395-.546.57m50.402 33.028c-2.38.654-2.52-.2-5.1 1.361-.622.377-1.504.983-2.241.803l-.083-.237c.063-.172.134-.314.26-.451.478-.521 1.185-.922 1.795-1.27.645-.367 1.357-.806 2.084-.98.486-.117 1.008-.095 1.505-.104 2.053-.038 3.025-.281 4.664-1.552 2.752-2.135 5.088-4.647 7.677-6.954 3.279-2.923 6.701-5.599 10.252-8.177 5.169-3.753 9.871-6.993 16.067-8.85 3.052-.916 6.46-.108 9.509-.993 2.595-.752 4.698-2.96 7.328-3.816 2.416-.786 5.365-.299 7.898-.555 3.811-.387 7.549-1.142 11.381-1.407 6.213-.544 12.084 1.23 18.153 2.055-1.726 3.258-5.668 11.092-8.057 13.411-2.8 2.719-5.308 2.413-8.91 2.366-.795.746-1.579 1.513-2.562 2.007-2.279 1.146-4.493.148-6.717-.56-.535.565-1.084 1.21-1.756 1.612l-.165.095c-.736.432-1.572.601-2.391.815-.297 1-.622 2.032-1.512 2.673-1.4 1.01-3.449.403-5.01.143-1.141.54-2.268 1.3-3.474 1.674-1.372.424-5.315-.412-6.748-.897-.55-.186-1.088-.499-1.603-.767-.873.332-1.731.681-2.546 1.14-.783.441-1.64 1.132-2.49 1.395-1.735.538-3.844.148-5.644.167-1.185.704-1.888 1.628-2.629 2.753l1.744.285c-2.863 2.53-4.437 2.85-8.217 2.655-.695.609-1.435 1.292-2.337 1.563-1.013.305-2.383-.155-3.483-.05-1.393.134-2.419.828-3.897.744-1.34-.089-2.767-.546-4.1-.403-1.871.202-3.296 1.375-5.303.982-1.502-.294-2.534-1.463-3.342-2.676m75.9-28.582.182.06.042.117.069.085c.474.576 1.758 1.579 1.64 2.404-.013.09-.072.187-.115.267-1.135.008-3.894-2.795-4.815-2.993.609.948 1.448 1.706 1.983 2.704q.099.182.193.367c-.486-.426-.983-.843-1.443-1.297.384.57.785 1.133 1.15 1.714-1.977-1.187-3.008-3.19-5.15-4.364.44.564.91 1.116 1.26 1.743l.126.018-.13.233.109.058-.06-.214.052.213c-.232-.053-.45-.136-.685-.086l.646.987c-1.028-.845-1.856-1.871-2.957-2.649.688.992 1.376 2.112 1.85 3.222-1.353-.394-2.283-1.475-3.267-2.419l-.054-.06.054.06c.41.861 2.552 3.52 3.298 4.067.164-.372-.136-.71-.01-1.069.451.097.834.723 1.07 1.085.484.744.859 1.554 1.399 2.26-.102-1.285-.39-2.425-.79-3.647 1.18 1.099 2.013 2.438 2.89 3.779l.061.076-.062-.076c-.282-1.52-1.197-2.728-1.709-4.167 1.715 1.279 3.985 5.021 5.548 6.896l-.09-.207c-.819-1.952-2.211-3.798-3.276-5.643 1.951.978 3.502 3.198 4.789 4.934.024-.057.061-.11.072-.171.21-1.19-2.123-4.08-2.887-5.009a92 92 0 0 1 4.108 2.62c-.553-.773-1.087-1.531-1.508-2.385.88.616 1.686 1.314 2.615 1.863l.033.068-.033-.068c-.441-1.187-1.405-2.17-1.959-3.326 1.118.493 2.16 1.023 3.35 1.336-.514-.865-1.475-1.857-2.452-2.2l-.184.096.025.553-.177.059c-.81-.352-1.56-1.085-2.25-1.64.461.776 1.005 1.513 1.519 2.256l-.127-.047-.21-.08c-1.288-.453-2.25-1.59-3.51-2.206l-.041-.117zm-2.484 1.348.147.064.056.184-.056-.184zm-7.449-.481c.242 1.085.707 1.881 1.623 2.528l.046.055-.046-.055c-.317-.848-1.013-1.866-1.623-2.528m-9.699 9.238c1.104 1.075 1.737 2.349 2.648 3.56l.078.056-.078-.056c-.073-1.716-.857-3.35-1.48-4.926 1.449 1.194 2.486 2.709 3.415 4.321-.222-1.33-.474-2.661-.554-4.01q.924 1.922 1.924 3.806l.082-.15c.088-1.987-.957-3.658-1.51-5.504.918.633 2.4 3.689 3.666 4.907-.343-1.312-1.026-2.58-1.3-3.882-.057-.275-.102-.35.06-.59 1.045.15 3.518 3.363 4.257 4.202-.41-1.137-.841-2.263-1.102-3.446 1.264 1.125 2.24 2.508 3.458 3.68-.517-1.091-1.155-2.114-1.661-3.214 1.16.737 2.185 1.783 3.252 2.654-.666-1.354-1.472-2.585-2.376-3.79-1.795.075-1.947-.712-3.45-1.066-.31-.073-.336-.111-.612.067-.082.28-.109.508-.323.717-1.125-.442-1.76-1.487-3.038-1.628-.147.064-.329.156-.488.191-.553.121-1.231-.468-1.666-.764-1.185-.059-2.35.091-3.524.234.001-.378.069-1.047-.158-1.349-.169-.224-.382-.349-.668-.34-.71.025-1.668.952-2.202 1.393-2.933 2.702-4.14 6.571-5.519 10.197 1.407-1.814 2.417-3.942 3.816-5.783-.508 1.826-1.625 4.228-1.677 6.07l.094.077c1.294-2.307 2.006-4.87 3.607-6.99-.153.81-.45 1.615-.657 2.417-.544 2.106-.88 4.07-.925 6.25.492-.98.838-1.991 1.138-3.044.237.865.432 1.91.906 2.672l.13-.09c.26-1.252-.127-2.782-.256-4.047.718 1.47 1.578 2.84 2.448 4.222-.371-2.556-1.377-4.866-1.966-7.362 1.636 1.903 2.814 4.309 4.275 6.364-.49-2.048-1.32-4.06-2.064-6.026m-44.023 14.169-.065.072zc.401-.567.712-1.265 1.07-1.867.546-.919 1.156-1.797 1.757-2.68-.644 2.717-1.366 5.427-1.816 8.185a32 32 0 0 0 1.831-4.696c.184-.614.265-1.267.467-1.87l.061-.177-.007-.03c.043.064.078.133.13.189.036.038.086.061.13.092-.01.808-.323 1.671-.44 2.48-.21 1.473-.181 3.008-.097 4.49.417-1.978.701-3.92.9-5.929.307 1.575.763 2.933 1.619 4.292-.028-1.195-.264-2.49-.543-3.651-.3-1.253-1.504-3.841-1.209-5.04l.139.105c1.007 1.983 1.785 3.993 3.039 5.85-.448-2.252-1.216-4.453-1.821-6.667l.125.122-.155-.339c.056.018.12.02.169.053.055.037 1.597 3.078 1.923 3.647-.267-1.871-.83-3.777-1.25-5.623l.114.182c.764 1.165 1.165 2.527 1.79 3.772-.106-1.08-.148-2.36-.621-3.357-.17-.361-.35-.512-.719-.644-.356.09-.575.243-.855.478-2.166 1.823-5.528 5.726-5.731 8.633m62.307-17.364h.1zm-35.937 1.96c-1.452.54-2.306.779-3.85.455-.86.875-1.623 1.66-2.766 2.167-1.768.784-5.06.342-6.18 2.03-.327.493-.456 1.194-.59 1.767.684-.904 1.346-1.871 2.13-2.69-.596 2.683-1.519 3.611-1.054 6.541.368-1.774.787-3.423 1.69-5.013.046.768.159 1.556.148 2.322-.027 1.953-.297 3.866-.05 5.816.703-2.626 1.164-5.27 1.715-7.927.54 1.968.535 4.034.971 6.016.326-2.413.079-4.881.375-7.318.472 2.115.495 4.419 1.36 6.421.106-1.288.08-2.87.614-4.055l.153-.055.083.226-.094-.044.022.13.184.037c-.007.052-.022.104-.02.156.024.65.939 3.724 1.147 4.6.072-1.778-.102-3.528-.43-5.274.994 1.405 1.136 2.965 1.899 4.449-.068-1.506-.598-4.156-.323-5.512.06-.302.3-.61.47-.863l.085.044.036-.088c.53.86.702 1.894 1.14 2.806-.062-1.796-.572-3.548.271-5.216l1.443 3.92.05-.073c.065.23.091.143.024.272l.112.146c.592-1.203-.784-3.526-.161-4.855l.121.138q.17.189.343.373l.162-.041c.006-.336-.08-.79.138-1.048.096.117 1.626 4.993 1.86 5.606-.163-1.875-.474-3.708-.776-5.564l.325-.184c.435.28.843.65 1.263.959l.11-.046c-.048-.32-.146-.525-.4-.73-.758-.608-2.553-.943-3.506-.83zm-19.001 5.168c-.15.592-.15.872.169 1.416.246.42.504.83.728 1.263.002-.765-.224-1.899-.727-2.519-.049-.06-.114-.106-.17-.16m-25.151-16.61-.05-.057zm-40.751 3.95c-.198-.386-.431-.776-.45-1.221-.036-.92.67-1.557 1.237-2.188l.084.185c-.19.87-.35 2.54-.871 3.224m-26.764.673c-1.574.13-3.111-.019-4.673-.219-.614-.078-1.487-.143-1.884-.653.26-.189.131-.145.449-.18 1.69-.187 3.55.312 5.324.145 3.947-.371 7.856-1.928 11.642-3.034q.528-.026 1.056-.005c.868.041 5.288.567 5.624.939l-.075.191c-.107.07-.14.098-.25.145-1.619.685-4.337-.365-6.116-.115-1.144.16-2.429.77-3.55 1.104-2.397.713-5.068 1.393-7.547 1.682"/><path d="M173.285 199.66c-.136-.214-.185-.322-.191-.577.414-.277 1.13-.247 1.629-.395l.136-.041.34-.022.077.238c-.034.098-.052.17-.123.255-.496.594-1.178.553-1.868.542m-60.077-.838-.054-.054zm92.103 2.116-.14-.072zm-4.007.106.05.08zM61.22 202.687c-.59-.067-1.067-.132-1.606-.399l-.002-.134c1.328-.513 4.205-.098 5.724-.167 1.157-.052 2.288-.247 3.427-.447.081-.006.163-.022.244-.018.35.016.434.157.655.395-.04.212.01.211-.125.311-1.367 1.006-6.639.707-8.317.459m90.127 3.163c-3.255.745-7.683 1.465-10.877.267-.714-.268-1.308-.513-1.627-1.235 1.524-.115 3.339.808 5.008.851 2.42.063 5.294-.856 7.626-.254l.093.179zm-23.002 1.726c-1.646-.251-3.364-.615-5.036-.486-1.593.124-7.105 1.658-8.035 1.44-.296-.07-.345-.169-.481-.41l.112-.29c1.376-1.05 5.839-1.425 7.682-1.657 2.47-.415 4.858.518 7.31.52 1.592.002 5.209-.975 6.54-.282l-.036.178c-1.521.922-6.22 1.196-8.056.987m8.468 3.479c-1.821.504-3.273.667-5.155.479-.811-.081-1.642-.234-2.456-.183.129.102.28.209.397.326.267.268.287.285.29.646-.151.198-.17.268-.41.373-1.453.635-4.116-.42-5.476-.994-.462-.196-.834-.344-1.027-.824.026-.713.444-1.288.894-1.81 2.005-.078 4.838 1.094 7.03 1.32 3.09.317 6.041-.558 9.093-.827-.97 1.077-1.8 1.207-3.18 1.494m-12.431-1.087c.078.38.082.676.418.927.885.66 2.472.522 3.509.37-.735-.719-2.91-1.253-3.927-1.296m19.338.645c-.32-.058-.661-.106-.973-.2-.339-.1-.442-.222-.603-.521l.08-.257c1.058-.326 2.776.017 3.915-.02 1.213-.038 2.415-.175 3.619-.317.42-.075.796-.137 1.163.086l-.074.227c-1.591 1.268-5.213 1.14-7.126 1.002m-45.403 2.054c-.464-.049-.774-.116-1.19-.332-.156-.27-.145-.25-.07-.555 1.405-1.396 7.185 1.621 8.981 1.865 4.853.66 9.167-1.945 13.89-2.479.357.012.629.006.947.196l.014.232q-.068.064-.138.127c-.922.788-2.942 1.236-4.125 1.64-4.002 1.37-8.042 2.233-12.175.913-2.06-.657-3.972-1.334-6.135-1.608m38.088 1.183c-.649.115-.894.146-1.451-.226l-.016-.12c.925-.838 5.075-.99 6.487-1.076.357-.02.564-.017.909.108l.01.169-.101-.224.146.15c-.88.787-4.701 1.059-5.984 1.219m-31.314 5.437c-.24-.095-.487-.187-.718-.302-.299-.147-.52-.232-.635-.548.827-.092 1.86.342 2.707.447 1.335.165 2.714.134 4.049.003 2.642-.26 4.92-1.57 7.502-1.952 3.023-.446 6.22.458 9.302.227 2.918-.22 5.656-1.385 8.582-1.612l1.578-.075q-.323.186-.653.36c-3.643 1.928-8.492 2.634-12.569 2.387-1.735-.105-3.521-.49-5.258-.321-1.352.131-2.637.605-3.923 1.012-3.375 1.067-6.536 1.422-9.964.373m30.763 28.087c-.146-.023-.075.01-.19-.14.951-.72 9.298-2.685 11.218-3.249q5.439-1.61 10.846-3.324c4.818-1.527 9.704-3.167 14.364-5.133 6.705-2.83 13.535-5.895 19.767-9.666q5.192-3.141 10.282-6.446c1.81-1.176 4.304-3.21 6.223-3.922l.064.16c-.163.374-.427.633-.705.923-2.373 2.473-4.887 4.806-7.322 7.218l-11.976 11.95-7.38 7.303c-1.452 1.454-2.851 3.007-4.396 4.363-13.599-.088-27.196.19-40.795-.037m-53.385-28.881c-1.1-.088-2.166-.254-3.222-.581-.584-.18-2.173-.678-2.445-1.19.674-.27 3.459.544 4.322.658.78.104 1.577.14 2.363.145 2.515.017 4.709-.704 7.145-1.112 1.465-.142 4.883.223 6.555.349l.036.135c-.902.593-2.421.419-3.47.377-3.25-.13-4.483.615-7.512 1.114-1.233.204-2.526.135-3.772.105m109.793-.499c-.298-.15-.38-.146-.52-.441.433-.467 4.438-.944 5.379-1.144l.375.003.07.156q-.053.076-.108.147c-.743.932-4.016 1.165-5.196 1.279m-140.684 2.598-.07-.062zm0 0 .12.053c2.911 1.3 5.68 3.232 8.427 4.856 2.797 1.651 5.707 3.127 8.61 4.583 15.4 7.722 30.995 12.43 47.818 15.911.793.165 3.911.649 4.22 1.249l-.089.15c-1.903.145-3.822.082-5.73.09l-9.41.054c-9.164.072-18.374.248-27.537.054L60.64 229.864l-6.134-6.275c-.962-.986-2.06-1.938-2.928-2.997m55.53 4.407c-1.644-.026-3.317.232-4.955.111-1.25-.092-5.189-1.084-5.921-1.925l.08-.232c1.067-.516 3.368.722 4.48.98.632.147 1.306.167 1.952.129 1.387-.082 2.791-.397 4.18-.344 2.062.079 3.893.712 5.994.335 4.003-.718 7.81-2.732 11.741-3.261 2.122-.227 4.57.949 6.648 1.372 1.047.213 2.12.24 3.156.454.35.072.48.031.683.333-1.782.92-4.48.629-6.338.074-1.357-.405-2.76-1.085-4.198-.99-1.782.117-3.623.987-5.285 1.602-4.492 1.664-7.5 1.725-12.217 1.362"/><path d="M187.34 222.613c-.384-.086-.698-.156-1.038-.37l.05-.181c.837-.352 2.973-.212 4.042-.354 1.196-.159 2.375-.427 3.553-.686.272-.031.45-.071.7.055l-.075.216c-1.79 1.272-5.107 1.369-7.231 1.32m-17.168 2.362c-1.188.006-2.724.13-3.72-.639l.044-.172c1.019-.329 3.325.037 4.617-.09 1.92-.187 3.796-.701 5.66-1.175 1.397-.06 2.702.093 4.076.337-1.075.258-2.112.149-3.18.324-1.07.176-2.138.554-3.195.809-1.433.344-2.837.505-4.302.606m9.759 2.343c-.24-.151-.417-.233-.53-.502.319-.279 3.544-.36 4.326-.465 1.26-.169 2.51-.437 3.755-.691.211.059.248.033.391.211-.106.118-.201.227-.335.314-1.493.968-5.862 1.474-7.607 1.133m-19.382 2.192c-.276-.17-.471-.25-.592-.566.23-.296.634-.195.98-.155 1.137.132 2.302.332 3.447.352 3.757.066 7.443-.992 11.06-1.875.115-.005.317.041.433.059-.01.055-.01.114-.032.166-.145.33-.492.509-.794.664-.891.46-1.967.659-2.937.903-3.7.93-7.841 1.686-11.566.452m-30.492 1.413c-.507.282-7.115 1.725-7.842 1.822-1.074.144-2.2.212-3.281.11-1.39-.13-5.185-1.692-5.968-2.79-.119-.166-.046-.265-.011-.45 1.944.12 3.55 1.63 5.511 1.908 3.127.444 6.919-1.475 10.063-1.769.56-.052 1.06.097 1.5.437.17.35.137.351.028.732m15.289 1.311c-.518-.068-.997-.145-1.427-.462l.034-.165c1.053-.36 4.583-.055 5.929-.082q2.067-.053 4.129-.223c.352-.043.632-.03.98.01l.01.093c-1.91 1.393-7.257 1.095-9.655.828m18.414 1.392-.379-.08-.078-.183c.237-.374.771-.574 1.2-.626 1.271-.153 2.765.181 4.083.127 3.012-.126 5.636-.847 8.518-1.585l.192.01.177.218c-.065.11-.065.125-.174.226-.424.389-1.325.659-1.866.86-3.873 1.446-7.603 1.498-11.673 1.033m-9.354 1.713-.325-.155c.118-.19.03-.118.314-.171.885-.166 1.834-.122 2.734-.221 2.046-.226 3.852-.772 5.754-1.528l.145.236c-.137.393-.395.57-.752.774-2.237 1.281-5.391 1.693-7.87 1.065m-22.753-.183-.181-.133-.029-.22c.52-.346 5.928-.382 7.01-.506l.07.073-.01.186c-1.122.838-5.427.708-6.86.6m5.73 4.125c-.387-.141-.932-.272-1.172-.624.56-.399 3.478.317 4.285.41 4.732.544 9.753-.129 14.445-.769a3.5 3.5 0 0 1 1.173.029l-.307.228.264-.074c-.1.069-.17.121-.275.176-2.41 1.245-10.857 1.668-13.73 1.472-1.6-.11-3.14-.424-4.684-.848"/></svg>