<svg xmlns="http://www.w3.org/2000/svg" viewBox="0 0 256 256"><path d="M121.144 0h13.563c2.536.373 5.136.422 7.686.708q7.227.841 14.32 2.463 1.365.313 2.724.656 1.358.342 2.708.715t2.693.774 2.674.834q1.333.431 2.656.892 1.323.46 2.636.95 1.312.49 2.614 1.008 1.301.519 2.591 1.066t2.567 1.122 2.542 1.178 2.516 1.234 2.487 1.288 2.459 1.343 2.428 1.397 2.397 1.45q1.191.738 2.365 1.502 1.174.765 2.331 1.554 1.158.79 2.297 1.605t2.26 1.655 2.225 1.704 2.185 1.753q1.083.888 2.147 1.8t2.106 1.847 2.066 1.893 2.023 1.938 1.98 1.981 1.937 2.026 1.891 2.067 1.845 2.108 1.799 2.148q.887 1.084 1.75 2.187.864 1.103 1.703 2.225.905 1.23 1.782 2.479t1.725 2.52q.849 1.269 1.667 2.558t1.607 2.596 1.548 2.632 1.487 2.667 1.425 2.7 1.362 2.733q.666 1.373 1.3 2.763.634 1.388 1.236 2.791.601 1.403 1.171 2.82t1.107 2.846q.536 1.43 1.04 2.87.504 1.442.975 2.894.47 1.453.908 2.916t.84 2.935c.805 2.906 1.63 5.825 2.162 8.796.66 3.687 1.305 7.435 1.673 11.163q.235 2.496.407 4.999c.066.907.053 1.922.263 2.806v9.913q-.011.052-.02.106c-.455 2.486-.373 5.196-.62 7.725-.53 5.379-1.353 10.859-2.528 16.136q-.327 1.428-.687 2.85-.358 1.42-.75 2.832-.393 1.413-.815 2.816-.425 1.403-.88 2.796-.457 1.392-.944 2.775-.488 1.382-1.007 2.752-.52 1.371-1.07 2.73t-1.131 2.704-1.193 2.677-1.254 2.65-1.314 2.62-1.374 2.589-1.433 2.557-1.49 2.524-1.548 2.489-1.604 2.453-1.66 2.416-1.715 2.377q-.871 1.178-1.768 2.337-.898 1.159-1.822 2.297-.924 1.137-1.874 2.254t-1.924 2.21q-.975 1.095-1.975 2.167t-2.024 2.12-2.071 2.073-2.119 2.026-2.164 1.977-2.209 1.927q-1.115.95-2.252 1.876t-2.294 1.824-2.336 1.77-2.376 1.718q-1.394.993-2.815 1.948-1.421.956-2.867 1.873t-2.916 1.794-2.963 1.716-3.008 1.636-3.05 1.555-3.092 1.472q-1.555.716-3.13 1.39-1.573.673-3.165 1.304-1.592.63-3.2 1.219-1.608.588-3.231 1.133-1.623.544-3.26 1.044-1.637.503-3.287.96t-3.312.868q-1.662.415-3.334.782t-3.354.69c-3.038.57-6.073 1.06-9.15 1.368-2.048.205-4.445.2-6.427.63h-15.676c-1.942-.368-4.07-.38-6.048-.575-2.942-.285-5.927-.74-8.835-1.28-21.77-4.03-39.086-12.08-56.637-25.458-22.492-17.144-39.226-43.62-45.47-71.162-1.203-5.308-2.272-10.727-2.873-16.138-.31-2.796-.25-5.678-.637-8.448L0 132.82v-9.779c.389-1.694.336-4.981.492-6.905.269-3.322.793-6.651 1.362-9.934q.32-1.824.692-3.638t.797-3.617.9-3.593 1.004-3.564 1.106-3.535 1.207-3.501q.63-1.742 1.308-3.466.679-1.722 1.407-3.425t1.505-3.385 1.602-3.339 1.697-3.291 1.792-3.242 1.884-3.188 1.975-3.133 2.065-3.075q1.054-1.523 2.152-3.014.864-1.18 1.755-2.34t1.808-2.299 1.86-2.257 1.911-2.213 1.962-2.17q.992-1.074 2.01-2.124t2.058-2.078 2.105-2.03q1.064-1.004 2.15-1.983 1.087-.978 2.196-1.931t2.24-1.882 2.28-1.83 2.323-1.777q1.172-.876 2.363-1.724 1.191-.849 2.401-1.67t2.439-1.614 2.475-1.559 2.51-1.5 2.543-1.445 2.576-1.385 2.607-1.326 2.636-1.266 2.665-1.206 2.691-1.144q1.353-.557 2.717-1.083t2.741-1.02 2.764-.958 2.784-.894 2.804-.831 2.823-.766 2.839-.702 2.855-.637c4.057-.88 8.314-1.48 12.444-1.906 2.233-.23 4.525-.282 6.739-.626zm3.634 4.678c-8.003.44-15.834 1.204-23.68 2.911q-1.163.262-2.32.547t-2.308.592-2.296.637-2.283.682-2.27.725-2.255.77-2.24.814-2.223.857-2.207.9-2.188.942-2.17.985-2.15 1.027-2.13 1.07-2.108 1.11q-1.05.564-2.087 1.15T65.8 21.588q-1.026.606-2.04 1.231t-2.016 1.27-1.99 1.31q-.99.665-1.965 1.348-.976.684-1.939 1.386-.962.703-1.911 1.424-.949.72-1.883 1.46-.934.739-1.854 1.496-.92.758-1.825 1.533t-1.794 1.567-1.764 1.602-1.733 1.637q-.858.826-1.7 1.67-.842.842-1.667 1.702-.826.859-1.634 1.734-.809.875-1.6 1.766-.862.952-1.704 1.922t-1.663 1.957-1.621 1.992-1.58 2.026-1.535 2.058-1.493 2.09q-.735 1.054-1.448 2.122-.713 1.069-1.403 2.151-.69 1.084-1.358 2.18-.667 1.098-1.311 2.21-.645 1.11-1.265 2.235t-1.218 2.261q-.596 1.138-1.169 2.287t-1.121 2.311-1.072 2.334-1.023 2.356q-.5 1.184-.973 2.377-.474 1.194-.923 2.397t-.872 2.416-.821 2.433q-.398 1.222-.77 2.451t-.718 2.466-.666 2.48q-.32 1.245-.614 2.495-.293 1.25-.56 2.506-.268 1.257-.509 2.518-.24 1.261-.455 2.528-.214 1.266-.401 2.537t-.349 2.545-.294 2.551-.241 2.557-.187 2.562c-.269 4.39-.414 8.755-.167 13.153 1.952 34.718 15.843 64.19 41.88 87.388q2.46 2.16 5.031 4.186 2.572 2.025 5.247 3.911 2.676 1.886 5.448 3.627t5.633 3.33c20.072 11.238 40.373 15.953 63.346 15.715 2.948-.145 5.893-.273 8.828-.59q1.088-.112 2.173-.243 1.086-.132 2.169-.285 1.082-.15 2.162-.32t2.157-.359 2.15-.398 2.143-.436 2.135-.475 2.125-.513 2.116-.55 2.106-.588 2.095-.625 2.084-.663 2.072-.7 2.058-.737 2.046-.773 2.03-.81q1.013-.414 2.017-.845 1.005-.433 2.001-.882.997-.45 1.985-.917.988-.468 1.968-.953t1.951-.987 1.933-1.022 1.915-1.056 1.895-1.091 1.876-1.124 1.855-1.157 1.834-1.19q.912-.604 1.813-1.223t1.79-1.255q.89-.635 1.768-1.286.879-.652 1.745-1.319t1.721-1.348c4.758-3.783 9.348-7.774 13.436-12.284 1.676-1.849 3.405-3.686 4.99-5.614q1.215-1.451 2.383-2.94 1.17-1.488 2.291-3.012 1.122-1.525 2.195-3.084 1.073-1.558 2.097-3.15 1.023-1.592 1.996-3.215.974-1.624 1.895-3.276.922-1.654 1.79-3.335.87-1.681 1.686-3.389t1.578-3.44 1.469-3.488q.707-1.755 1.358-3.532t1.247-3.574 1.134-3.61 1.02-3.645.904-3.675q.424-1.845.79-3.702.748-3.622 1.271-7.283.524-3.661.821-7.348.298-3.686.368-7.384t-.088-7.393c-.242-4.94-.62-9.856-1.403-14.744q-.209-1.289-.445-2.573t-.499-2.563q-.262-1.28-.552-2.552t-.606-2.54q-.317-1.267-.66-2.527t-.712-2.512-.765-2.496q-.396-1.245-.817-2.48-.422-1.236-.87-2.463-.447-1.226-.92-2.443t-.973-2.424-1.022-2.402-1.073-2.38q-.549-1.185-1.123-2.358T237.3 71.46t-1.221-2.308-1.269-2.282-1.317-2.254q-.67-1.121-1.364-2.227t-1.41-2.197-1.457-2.168-1.501-2.136-1.546-2.104q-.785-1.044-1.59-2.071-.806-1.028-1.633-2.038-.828-1.01-1.676-2.003-.849-.992-1.718-1.967-.869-.974-1.758-1.93-.89-.956-1.799-1.893t-1.838-1.855-1.876-1.815-1.915-1.776q-.888-.8-1.791-1.584-.904-.783-1.822-1.549t-1.852-1.513-1.88-1.477-1.909-1.44-1.936-1.403q-.976-.693-1.964-1.366t-1.99-1.327q-1-.653-2.014-1.288-1.014-.634-2.04-1.249-1.025-.614-2.062-1.209-1.038-.594-2.087-1.168-1.049-.575-2.108-1.128-1.06-.554-2.13-1.087-1.07-.534-2.151-1.046t-2.17-1.003-2.19-.962-2.208-.918-2.225-.876-2.242-.832-2.257-.79-2.273-.744q-1.14-.361-2.286-.7-1.147-.34-2.3-.657t-2.312-.611-2.323-.567-2.334-.521-2.343-.476q-1.174-.227-2.352-.43-1.179-.204-2.36-.385-1.183-.181-2.368-.34-1.185-.157-2.373-.292c-5.544-.648-11.24-1.036-16.824-.831q-.079.003-.158.01"/><path d="M132.701 247.954c-7.362.145-14.666-.077-21.963-1.124q-1.091-.165-2.18-.35t-2.174-.388-2.165-.43-2.158-.468-2.15-.508q-1.071-.264-2.138-.548t-2.129-.587-2.118-.625q-1.055-.323-2.105-.665t-2.094-.703-2.08-.742-2.065-.779q-1.03-.4-2.052-.817-1.021-.418-2.035-.855t-2.02-.893-2.003-.929-1.986-.965-1.968-1.002-1.948-1.038-1.93-1.074-1.91-1.109-1.888-1.143-1.868-1.179q-.928-.597-1.845-1.212t-1.823-1.246-1.8-1.28q-.894-.647-1.776-1.311-.882-.665-1.751-1.345-.87-.68-1.727-1.377-.857-.696-1.701-1.407t-1.675-1.44-1.648-1.469c-23.67-21.659-37.822-50.365-39.196-82.545-1.449-33.919 9.696-63.914 32.697-88.854q.99-1.062 2.004-2.099t2.055-2.048q1.04-1.011 2.105-1.997 1.064-.985 2.153-1.944t2.2-1.89q1.113-.933 2.248-1.837 1.134-.904 2.291-1.78 1.157-.875 2.334-1.722t2.377-1.664q1.199-.818 2.417-1.605 1.218-.788 2.455-1.546 1.238-.757 2.493-1.484 1.256-.726 2.53-1.422 1.272-.695 2.563-1.359 1.29-.664 2.596-1.296 1.305-.631 2.627-1.23 1.321-.6 2.656-1.166 1.336-.567 2.685-1.1 1.35-.534 2.711-1.034 1.362-.5 2.736-.966t2.759-.898 2.78-.83 2.8-.761 2.817-.692 2.834-.622 2.848-.552 2.862-.481q1.433-.223 2.872-.41 1.438-.188 2.881-.34t2.889-.269 2.895-.197q1.448-.08 2.898-.125 1.467-.052 2.935-.068 1.467-.015 2.935.005t2.934.076 2.931.148 2.927.22 2.92.291q1.46.164 2.913.363 1.454.199 2.903.434t2.891.505 2.879.575 2.863.646 2.846.716 2.828.785 2.809.854 2.786.923 2.762.991 2.738 1.058 2.711 1.125 2.683 1.19q1.334.613 2.653 1.257t2.62 1.32 2.589 1.385q1.286.708 2.553 1.448 1.268.739 2.518 1.51 1.249.77 2.479 1.57t2.44 1.631 2.4 1.69 2.357 1.749 2.314 1.805 2.269 1.862 2.223 1.917 2.175 1.97q.779.724 1.544 1.462.766.737 1.519 1.487.752.752 1.491 1.516t1.464 1.541 1.435 1.568 1.408 1.593 1.379 1.618 1.35 1.643q.667.827 1.32 1.666.652.84 1.29 1.69.637.851 1.258 1.713.623.862 1.229 1.735t1.197 1.757 1.165 1.778 1.134 1.798q.558.905 1.1 1.819.543.914 1.069 1.838t1.034 1.857 1.002 1.875.968 1.893q.475.95.934 1.91.458.959.899 1.926.44.967.864 1.942t.83 1.957q.406.983.794 1.972.388.99.759 1.986.37.996.723 2 .353 1.002.687 2.011t.651 2.024.615 2.035.578 2.046.541 2.056c2.034 7.769 3.38 15.649 3.67 23.69.45 12.428-.558 25.212-3.647 37.287-4.873 19.054-15.129 36.916-28.49 51.272q-.995 1.062-2.016 2.1-1.02 1.036-2.065 2.049-1.046 1.012-2.116 1.999-1.07.986-2.162 1.947-1.094.96-2.21 1.894t-2.255 1.84q-1.138.907-2.299 1.785-1.16.879-2.34 1.729-1.182.85-2.383 1.671t-2.422 1.614-2.461 1.554q-1.24.762-2.498 1.494-1.257.732-2.532 1.433t-2.567 1.371-2.6 1.309-2.63 1.245-2.66 1.181-2.688 1.117q-1.35.541-2.714 1.05-1.363.51-2.738.985-1.376.476-2.762.918t-2.783.851-2.803.784-2.821.715-2.838.646-2.852.578-2.866.508-2.877.439-2.886.369q-1.446.167-2.895.299t-2.902.228-2.906.159m-3.7-211.428.178.062.035.111c.493 1.043 2.422 2.91 3.249 3.88 2.534 2.977 4.989 6.008 7.572 8.945 4.02 4.571 8.14 9.047 11.996 13.762 2.674 3.27 5.185 6.686 7.682 10.093q5.283 7.125 10.113 14.565c1.525 2.37 4.076 5.935 4.992 8.49-.933-.905-1.714-2.007-2.52-3.025q-1.926-2.427-3.821-4.879c-2.69-3.463-5.499-6.839-8.226-10.275q-5.34-6.665-10.548-13.434c-4.605-6.038-9.093-12.149-13.766-18.14q-2.22-2.85-4.593-5.577c-1.16-1.326-2.414-2.601-3.482-4 2.406 10.557 6.044 20.676 8.93 31.087.887 3.197 8.031 32.396 7.446 33.765-.61-.426-2.048-5.576-2.374-6.575l-3.462-10.88c-1.26-3.942-2.55-7.866-3.539-11.889q-2.578-10.492-4.855-21.054c-1.066-4.843-1.996-9.666-3.37-14.435-1.43 3.33-2.205 7.038-3.228 10.514l-6.403 21.776c-2.567 8.535-5.763 16.81-8.747 25.2-.272.763-1.958 5.954-2.197 6.152-.053.044-.122.066-.183.099-.232-.9.858-4.894 1.114-5.999q3.126-13.738 7.631-27.088c2.258-6.535 4.924-12.915 7.289-19.409 1.224-3.358 2.197-6.804 3.416-10.166-2.543 2.635-4.82 5.703-7.076 8.591-2.304 2.948-4.636 5.835-6.844 8.861-3.794 5.129-7.451 10.378-11.341 15.432-4.403 5.719-9.18 11.137-13.906 16.584q-2.246 2.545-4.453 5.123c-.923 1.087-1.785 2.237-2.752 3.285l-.136-.085c-.12-1.224 3.91-6.32 4.77-7.526q9.676-13.741 20.26-26.793c6.862-8.294 14.214-16.166 20.883-24.628Q109.241 50.177 93.972 63.57 78.53 77.329 62.63 90.559c3.12 2.372 10.005 6.433 13.581 7.565 1.16.368 2.31.535 3.524.416 2.866-.282 5.732-1.104 8.633-.606 1.382.237 2.719.85 4.023 1.35 2.75 1.056 5.504 2.264 8.335 3.08 1.368.394 2.868.728 4.298.743 1.665.019 3.387-.481 5.017-.803q2.15-.428 4.328-.676c2.92-.357 5.815-.385 8.75-.255 4.043.18 8.22.651 12.192 1.405 2.316.439 5.689 1.646 7.897 1.581 1.547-.046 3.3-1.061 4.781-1.578 3.805-1.327 7.687-2.843 11.698-3.38q1.138-.162 2.288-.192t2.294.076c3.632.318 8.006 1.599 11.592.591 3.819-1.072 6.668-3.913 9.714-6.278q2.475-1.944 5.227-3.473c-1.068-1.068-2.345-2.002-3.483-3.004l-8.126-7.196L156.224 59.7q-9.507-8.49-19.199-16.767c-2.44-2.05-5.092-4.614-7.811-6.234l-.035-.111zm-48.595 76.35.063.186.125.062-.125-.062zm-62.53 3.154.068.067c2.16 2.333 4.832 4.115 6.933 6.551-4.616-2.206-8.779-5.404-13.224-7.94-.073 1.699-.164 3.458-.395 5.142 2.447 4.553 2.263 5.719 2.654 10.857-1.074-2.608-1.976-5.326-2.85-8.007-.333 4.417-.383 9.189.273 13.574 1.46 9.775 6.058 19.938 8.248 29.753 1.069-.385 2.136-.799 3.226-1.123.383-1.76.568-3.572.809-5.355.52-3.843.924-7.655 1.323-11.51.394-3.8.985-7.56 1.463-11.347.39 1.544.508 3.145.668 4.725.742 7.32.125 14.635.307 21.966.668-.238 1.313-.473 1.946-.797l2.413-15.698c.786-4.885 1.581-9.858 3.236-14.54q.097 7.16-.058 14.32c-.152 5.127-.485 10.238-.685 15.362 1.305-.678 2.608-1.416 3.955-2.007.575-1.119.632-2.418 1.116-3.58.173 1.006.306 2.003.404 3.018.964-.473 1.908-.875 2.968-1.079-.95-4.956-.789-13.629-.239-18.722.93 3.038 2 6.04 2.857 9.099.823 2.936 1.447 5.928 2.271 8.862.906-.07 2.18-.049 2.99-.494.594-1.12.577-4.334.557-5.685-1.524-1.087-2.294-3.055-3.046-4.703 1.413.713 2.322 1.488 3.237 2.784.672-4.872.953-9.777 1.605-14.647-2.774-.944-11.522-6.9-13.776-9.123 3.11 1.123 12.404 5.224 13.957 7.75.304-2.52.926-5.088 1.081-7.605-2.273-1.29-4.727-2.658-6.797-4.254 1.454.21 2.816.465 4.214.94 1.023.348 2.181.935 3.239 1.1.132-.23.278-.638.513-.732.247.386.262.857.32 1.302 3.25 1.715 6.736 3.484 9.602 5.79-3.1-1.157-6.175-2.282-9.226-3.571-.046 1.906-.078 4.117.368 5.973 3.043.728 6.406 2.692 8.719 4.815-2.9-.738-6.491-1.75-8.75-3.788q.555 5.34.82 10.7c.086 1.669-.005 3.384.186 5.04 1.406 1.068 2.614 2.1 3.635 3.56.784-2.326 1.436-4.76 2.436-7.002-2.268-1.368-4.693-2.764-6.238-4.977 2.685.655 4.807 1.689 6.95 3.449q.83-2.029 1.535-4.104c-.297 2.922-1.014 5.751-1.597 8.618-.51 2.51-.916 5.048-1.358 7.571 1.423-.1 2.872-.263 4.298-.21.22-1.195.867-2.218 1.089-3.394a21 21 0 0 1-2.833-.232l3.091-1.177c.476-3.138.94-6.237 1.898-9.271.356 2.901.506 5.789.651 8.706.676-.089 1.366-.152 2.032-.297-.252-.429-.586-.87-.616-1.378.15-.294.141-.276.454-.389 1.054.118 1.934.671 2.67 1.412 2.865-.405 5.8-.908 8.596-1.659-1.268-.77-2.53-1.596-3.834-2.303-1.494-.81-3.109-1.405-4.628-2.171-1.448-.73-9.19-5.095-9.817-6.123.182-.176.08-.138.363-.132 2.699.056 10.25 3.986 12.557 5.567 1.322.906 2.511 1.977 3.61 3.14 1.73.382 3.26.956 4.925 1.538 3.206-.625 6.676-1.041 9.773-2.06q-8.66-2.932-16.935-6.824c-2.238-1.056-4.395-2.298-6.646-3.315.507.454 1.108.927 1.4 1.556l-.174.166c-3.22-.73-8.348-4.864-10.932-6.98 4.455.853 8.393 2.769 12.576 4.404 5.753 2.249 11.781 4.328 17.118 7.486 1.661.983 2.948 2.285 4.47 3.43l1.472-.365c.053-2.493-.305-4.996-.385-7.49-1.273-1.04-3.288-2.333-4.338-3.512 1.44.4 2.862.806 4.24 1.395-.01-.814-.108-1.903.36-2.61.42.295 1.042 2.522 1.243 3.154 2.605 1.05 9.637 4.36 11.395 6.095l-.147.138.147-.138c1.221.678 3.822-.19 5.166-.469q.36-1.361.763-2.71c-3.213-1.315-7.329-3.971-10.425-5.771 3.827 1.052 7.512 2.502 11.267 3.766.637-1.625 1.225-3.32 2.1-4.833-6.503-2.883-13.073-5.604-19.627-8.366-2.829-1.191-5.989-2.163-8.651-3.672 8.882 1.905 36.202 10.012 41.493 17.218-3.793-.673-8.357-3.208-11.926-4.776-.186 1.767-.561 3.514-.752 5.286 1.766.831 3.663 1.349 5.437 2.215 1.263-.37 2.602-.561 3.895-.81 2.381-.46 4.718-.928 7.05-1.605-1.837-1.068-3.665-2.541-5.158-4.038 2.53 1.14 5.144 2.165 7.482 3.672 3.789-.708 7.823-1.862 11.455-3.18 1.859-.674 3.682-1.581 5.578-2.126.216-1.689.398-3.43.21-5.127-.08-.733-.299-1.424-.363-2.165l-.013-.165c-2.054-.435-4.109-.772-6.13-1.352-5.548-1.59-10.602-4.252-15.72-6.853 2.07.157 4.145.792 6.152 1.302 5.359 1.364 10.542 2.758 15.526 5.202-.01-1.421-.123-2.848-.172-4.269-2.502-.954-5.35-1.483-7.961-2.091-1.099-.256-2.538-.354-3.512-.92l.115-.13c1.845-.288 9.046.884 11.107 1.331l-.16-3.218c-6.972.03-14.1-.297-20.99-1.408-1.177-.19-2.332-.495-3.502-.716-2.443-.463-5.006-.751-7.487-.898q-4.47-.278-8.947-.431c-6.776-.171-13.558-.132-20.337-.211-3.524-.041-7.058-.278-10.582-.25-.363.003-.758-.049-1.06.157.004.119.004.237.017.355.04.362.184.522.507.66.656.279 1.445.353 2.133.589 3.171 1.085 6.349 2.385 8.917 4.582-3.764-.013-7.706-1.51-11.319-2.491q.047 1.425.052 2.85c2.564.876 4.478 1.767 6.582 3.487-2.249 0-4.3-.613-6.506-.93l.155 3.66c8.35 2.776 16.82 5.468 24.438 9.947-5.342-1.406-10.728-2.993-16.004-4.64-2.775-.868-5.51-1.863-8.308-2.657.17 1.661.039 3.345.225 5.011 4.182 1.967 7.938 4.529 10.77 8.222-3.606-1.742-7.345-3.352-10.818-5.345.047.483.005.984-.011 1.47-2.013-.427-4.015-1.046-6.004-1.579a26 26 0 0 0-.448-2.622c-2.562-1.44-5.621-2.354-8.335-3.505-3.068-1.3-6.046-2.857-9.041-4.319-1.55-.757-3.173-1.396-4.693-2.204 1.85.207 3.697.775 5.487 1.273 5.5 1.53 10.763 3.488 16.043 5.645-.193-1.255-.396-2.492-.693-3.728-5.053-1.902-10.12-3.85-15.306-5.36-4.752-1.384-9.633-2.381-14.474-3.395-4.678-.98-9.58-1.943-14.35-2.273 3.523-.771 6.755-.738 10.322-.763-2.179-.73-4.593-1.39-6.887-1.575-1.43-.114-2.975.13-4.413.2q-3.69.146-7.382.239c2.35.837 4.83 1.389 7.222 2.107 5.552 1.666 14.078 4.721 18.559 8.387-3.685-.62-7.15-1.927-10.632-3.236-7.05-2.65-14.578-5.796-22.22-5.764 2.023 1.223 4.498 1.923 6.672 2.874 6.239 2.729 12.591 5.418 18.598 8.63 1.558.833 3.202 1.633 4.659 2.634-3.825-.876-7.495-1.732-11.164-3.153-5.901-2.284-11.575-5.325-17.61-7.26zM93 149.625l-.216.072zl.124-.094zm-.875.25-.24.093zl.216-.072zm71.655 13.876.069.077c.147 1.64 1.968 6.604 2.745 8.178.568 1.151 1.287 2.256 1.946 3.358-.054-3.806-.61-7.61-1.008-11.392-.703-6.674-1.428-13.357-2.513-19.98a7.2 7.2 0 0 1 1.374 2.121c.741 1.762 1.105 3.738 1.542 5.596.707 3.006 1.439 6.017 2.1 9.033.392 1.787.652 3.63 1.16 5.387.61-9.074.322-18.232 1.222-27.28.065-.652.135-2.061.64-2.476 2.03 3.369 3.073 26.395 3.458 31.932.136 1.955.387 3.89.578 5.839 2.283-9.512 2.68-19.384 4.472-28.981.404-2.163.652-4.41 1.352-6.5.832 2.329.54 5.34.58 7.783q.082 4.459.106 8.917l.157 14.612c.96-4.681 2.014-9.33 2.899-14.028l3.025-16.459c.53-2.78 1.34-8.625 2.618-10.93l.19-.028c.21.832-.099 1.811.028 2.689.59 4.084-.032 8.28-.427 12.365-.584 6.036-1.369 12.057-1.916 18.094.876-1.646 1.842-5.386 3.172-6.511l.183.017c.277.726-.034 1.88-.186 2.626-.495 2.427-1.191 4.781-1.958 7.135-.56 1.723-1.465 3.663-1.647 5.452-.14 1.373.133 2.9.264 4.274q.332 3.895.85 7.77c.218-1.352.602-2.677.893-4.014q1.618-7.289 3.75-14.443c.44-1.474.692-2.996 1.278-4.425.156-.382.312-.803.707-.971.028.027.06.05.083.082.348.465.251 1.776.262 2.35.155 7.937-1.945 17.693-3.679 25.486l2.682.003 1.172-7.915c.12-.827.095-1.673.283-2.49.082-.357.184-.675.453-.934l.217.025c.664.935.801 7.025.903 8.531.464-1.987.855-3.991 1.333-5.976.588-2.443 2.15-7.768 2.116-10.031-.027-1.795-.475-3.684-.753-5.456-.785-5.007-3.131-17.243-2.395-21.774l.147-.094.225.071c.388.423.534.998.678 1.542.83 3.139 1.304 6.408 2.007 9.582.828 3.739 1.913 7.438 2.81 11.163.69 2.871 1.177 5.788 1.87 8.664.308-1.808.638-3.68.529-5.52-.108-1.809-.471-3.58-.452-5.401.044-4.08.504-8.234.265-12.299-1.341-1.828-2.553-3.94-2.96-6.198-.164-.913-.546-2.534-.006-3.31 1.145.174 2.017 4.868 2.843 5.264-.01-.356-.05-.667.125-.991.265-.089.243-.114.535-.039.437 1.297.602 2.742.853 4.09l1.444 7.723c.776-9.989.608-20.22 3.278-29.944.092-.335.144-.754.452-.928l.212.141c1.81 5.242 1.204 12.276 1.22 17.831l-.103 17.87c-.037 2.967.01 5.927-.125 8.893-.287 6.263-1.02 12.477-1.416 18.73.527-1.34 1.081-2.689 1.351-4.109.246-1.292.219-2.665.292-3.979q.157-3.015.505-6.014c1.12-9.052 3.09-18.088 6.843-26.431.35-.779 2.34-5.204 2.768-5.367.638 1.397-.781 5.34-1.258 6.851-.765 2.425-1.59 4.838-2.19 7.311-1.044 4.317-1.544 8.703-2.052 13.106-.329 2.85-.686 5.685-.732 8.557 1.324-2.388 2.369-4.994 3.53-7.47 1.298-2.762 2.845-5.581 3.835-8.463.418-1.216.632-2.51.865-3.771l.569 1.504q1.025-1.918 1.995-3.864c-.23-1.34-.353-2.702-.675-4.025-.63-2.59-1.693-5.18-2.56-7.704 1.019.844 1.675 1.7 2.386 2.814-.222-2.252-.76-4.376-1.16-6.593-.196-1.088-1.168-6.395-.701-7.068l.236.018c1.474 1.4 6.452 19.515 7.33 22.605q1.135 4.554 2.417 9.068l1.06-2.719c-.751-1.994-1.17-4.036-1.62-6.112-1.315-6.08-2.024-12.252-2.872-18.409-.272-1.972-.947-4.044-.793-6.037l.125-.058c1.614 1.898 3.545 11.291 4.73 14.34l.004-.14.01-.235c.09-2.54.767-5.142 1.082-7.676.511-4.128.678-8.297 1.233-12.414.42-3.114 1.127-6.172 1.572-9.276.2-1.385.273-2.799.378-4.193 1.007 6.756 1.269 12.36 1.129 19.189-.076 3.65-.519 7.51-.203 11.135l.124-.001q.047-.088.091-.177c.541-1.14.464-3.084.575-4.378.249-2.873.533-5.791.55-8.675.026-4.534-.497-9.162-1.084-13.651-.3-2.305-.496-4.611-1.232-6.826-.535.091-1.062.212-1.591.329.087 1.169.326 3.895-.396 4.794l-.24-.043c-.872-1.045-1.151-3.129-1.375-4.443-5.122.913-10.001 2.06-14.963 3.623 1.545 3.18 1.938 5.587 1.031 9.008-1.666-2.967-1.664-5.59-1.446-8.888-3.701.916-7.345 2.309-10.948 3.555-2.552.883-5.283 1.66-7.722 2.811 1.513 3.52 2.024 6.694 2.196 10.486-1.819-3.1-3.04-6.617-3.254-10.203-3.032.954-5.815 2.357-8.736 3.572-3.764 1.566-7.626 3.002-11.323 4.715.989 2.436 1.324 5.202 1.105 7.814-1.052-2.377-2.087-4.725-2.452-7.315l-4.043 1.815c.942 2.174 1.774 4.43 2.17 6.772.17 1 .753 3.566.16 4.397l-.193.03c-1.937-2.029-2.458-8.206-2.758-11.03-2.849.858-5.642 2.125-8.389 3.271.59 1.578-.02 3.296-.516 4.815-.838-1.64-.712-2.723-.404-4.483l-5.653 1.974c1.068 1.532 1.613 3.333 2.19 5.088-1.594-1.3-2.757-2.812-3.827-4.561-2.842 1.04-5.716 1.934-8.59 2.877.691.704 1.035 1.672 1.334 2.595.196.604.696 1.847.395 2.439l-.224.047c-1.123-.757-2.334-3.352-2.607-4.677-2.262.647-4.54 1.237-6.8 1.9 1.036.903 1.538 1.909 2.045 3.153-1.503-.664-2.616-1.547-3.572-2.88-2.484.55-5.031 1.243-7.556 1.545-.784 3.469-1.899 6.836-2.915 10.241-1.411 4.734-2.71 9.499-4.087 14.242-1.057 3.645-2.252 7.292-3.09 10.995.472.76.842 1.526 1.198 2.346 1.079-1.368 1.921-2.935 2.806-4.432q1.9-3.273 3.938-6.461c-.037-3.457-.102-7.118.41-10.54.387-2.584 1.329-5.049 1.895-7.596.391-1.762.431-3.604.685-5.39.628 1.386.783 3.086 1.036 4.58 1.204 7.112 1.685 14.36 2.417 21.534 1.499-5.693 2.034-11.472 2.605-17.307.322 1.237.405 2.63.544 3.9.493 4.483.64 8.746.442 13.25 1.168-3.66 3.443-9.921 5.322-13.207l.097.048c.155.668-.052 1.579-.123 2.27-.886 8.612-3.333 16.945-4.786 25.455 1.363-.051 2.75.026 4.115.052.771-6.012.304-12.226 1.315-18.191 1.512 5.87 2.747 11.92 3.497 17.932l1.753.014c-.124-3.432-.588-6.891-.87-10.317q-.727-9.869-1.745-19.711c-.497-4.554-1.7-9.817-1.359-14.35 1.406 2.632 2.202 5.71 3.07 8.555 3.572 11.713 6.125 23.908 8.247 35.962 1.058.175 2.181.153 3.253.195-2.06-8.108-3.703-16.397-5.203-24.624-.566-3.103-.786-6.29-1.491-9.364.387.392.729.763 1 1.248.45.802 1.901 5.158 2.264 5.381l.286-.262-.212.129.024.131.407.117c2.005 2.004 3.037 4.87 3.337 7.636-.897-1.104-1.55-2.341-2.325-3.527zM81.668 47.938c-2.113.635-4.927-.175-6.762 1.203 2.442.96 4.146 1.088 6.719.7.63-.096 1.445-.316 2.067-.294.414.015.88.497 1.28.297.136-.067.25-.158.372-.247.762.204 1.496.505 2.258.701.549.142 1.083.139 1.633.33.822-.127 1.476.072 2.26.018 1.467-.101 3.158-.497 4.582-.876-3.698-1.398-10.412-1.816-14.409-1.832m93.59 3.362c-4.322.487-8.591 1.199-12.928 1.566l-.047.17c.296.454.552.643 1.087.747 1.615.316 3.903.756 5.513.533 1.947-.27 4.142.146 6.093.28 2.035.14 5.488.045 7.504-.267.805-.103 1.461-.142 2.261.052l.168-.075c2.636-1.165 6.704-.002 8.676-.939.042.024.083.053.128.072.43.18 1.072-.007 1.464-.215.14-.076.252-.182.37-.288l.022-.2c-.367-.383-1.366-.461-1.88-.47-.948-.017-1.903.063-2.849-.001-1.998-.136-3.982-.497-5.987-.638-1.587-.112-3.19-.06-4.782-.122-1.409-.055-2.972-.262-4.364-.113-.196.021-.274-.01-.45-.092m-80.909 2.75a7.4 7.4 0 0 1-1.189.106c-.418 0-1.036.066-1.366.35-.031.026-.054.061-.082.092.068.337.166.464.45.667.362.258.794.465 1.185.68.606.166.937.12 1.496-.199.345-.197.701-.558.806-.953.079-.296-.037-.4-.193-.628-.372-.189-.703-.18-1.107-.115m-9.625 2.012c-2.812.394-6.712.804-9.525.418-.898-.123-3.457.051-4.187.666-.03.024-.053.056-.08.084.11.25.03.16.215.292 2.837.755 7.382 1.652 10.247 1.152.662-.115 1.359-.459 1.94-.791.668-.383 1.225-.816 1.702-1.426l-.087-.402.221.128.012.112-.442-.22.053-.017zm87.61 3.124c-1.6.079-3.397.134-4.811.967l-.133.24c.386.576 1.634.864 2.302 1.012.417.092.744-.026 1.148-.004.496.029 1.019.15 1.51.234.202.034 1.002.248 1.158.206.072-.019.126-.079.19-.118l.16-.289c.74.021 2.11.008 2.757.252l.123-.024c2.005-.38 3.41-.046 5.034-1.58-3.371-1.449-5.705-.255-9.01-.889-.18-.034-.258-.065-.429-.008m18.218 3.596-.183.043c-2.201.502-4.68-.034-6.81.681-.127.292-.083.252.012.533.846.859 2.367 1.035 3.521 1.145 1.173.11.733 1.056 1.86.215.75-.033 1.503-.038 2.236-.209l.177-.059a9.6 9.6 0 0 1 2.338-.444c.928-.069 3.42.223 4.106-.308.107-.082.345-.447.396-.573.064-.16.057-.215.065-.368-.215-.325-.433-.428-.813-.512-.526-.116-6.372-.226-6.905-.144m-129.459.891q-.101.034-.204.066c-.31.094-.568.047-.881.074-1.416.122-4.742.19-5.868.718l-.079.17c.199.23.36.428.682.462.225.023.51-.04.734-.073l.117.062c1.798.91 5.922.282 7.968.403 2.045.12 3.993.774 6.02.99.829.088 1.697-.147 2.498.141 2.023-.172 5.64-.36 6.982-2.06.049-.06.08-.132.12-.199-.36-.233-.755-.274-1.174-.29-2.267-.09-4.546.19-6.796.106-2.196-.083-8.155-1.081-10.012-.607q-.054.017-.107.037m117.227 3.882c-.96.046-3.364.011-4.035.715.142.31.358.368.666.483.883.332 2.188.594 3.117.454q.099-.011.198-.018c.382-.023.106-.023.403.037.802.16 2.408-.777 3.123-1.157-1.13-.437-2.256-.632-3.472-.514m16.091.553c-.13.1-.343.317-.486.373-.822.32-2.481-.123-2.747 1.011.193.447.44.73.897.925 1.724.742 4.173.164 5.996.059.767-.044 1.543-.014 2.307-.09 1.337-.131 3.012-.761 4.26-.118 1.326-.225 2.482-.524 3.631-1.252-.92-.334-3.484-1.102-4.4-.731-.147.059-.155.092-.32.177-.814.422-1.509-.33-2.33-.368-2.224-.106-4.605.613-6.808.014M54.56 71.148c-1.197.353-2.562.282-3.803.272-3.268-.028-7.871-.496-10.892.597 1.699 1.239 7.858 1.72 10.075 1.756 2.547.005 5.087-.185 7.627-.348 1.742-.111 3.48-.051 5.18-.539.483-.139.842-.376 1.245-.672-2.461-1.086-4.517-1.094-7.172-1.062-.724.008-1.551-.077-2.26-.004m21.715.15q-.047.03-.095.058c-.402.232-.665.249-1.116.273-1.383.076-4.047.437-5.304 1.012-.143.303-.142.288-.044.608.57.505 1.495.6 2.23.708l.117-.014a2.5 2.5 0 0 1 .75.005c1.143.19 2.707-.537 3.584-1.191.6-.448 1.19-.944 1.743-1.447-.612.062-1.277.208-1.865-.011m108.314 2.073-.114.05c-.593.244-1.601.151-1.96.693.117.371.338.522.681.697 1.516.774 4.545 1.436 6.266 1.702.203.031.394.042.599.038.72-.016 1.514-.175 2.225-.092.734.086 1.43.378 2.179.376.392 0 .727-.096 1.102-.192.112-.03.225-.053.338-.08.907-.383 1.83-.746 2.713-1.184-.646-.355-1.285-.668-2.011-.829-1.212-.267-2.43-.18-3.656-.289-1.86-.165-3.712-.438-5.568-.646-.909-.102-1.805-.106-2.712-.241-.027-.004-.054-.002-.082-.003m27.632 2.065c-1.11.036-2.222.157-3.33.177-1.632.03-5.472-.254-6.802.945-.031.028-.056.064-.084.095.126.305.232.382.547.497 2.089.762 5.769.646 8.031.555 1.079-.043 2.197-.18 3.264.013a1.6 1.6 0 0 0 .421-.413c1.98-.133 8.056 1.004 9.41-.23.036-.159.115-.269.005-.412-.552-.723-3.035-1.01-3.936-1.044-2.516-.095-5.015.149-7.526-.183m-182.143.09c-1.331.276-2.677.465-4.005.752l-.002.15-.505.003c1.367.775 4.053 1.458 5.614 1.073.046-.011.09-.027.136-.04.962.214 2.936.186 3.749-.43.164-.124.174-.15.288-.292-.018-.19.022-.262-.136-.398-1.291-1.111-3.86-.434-5.139-.819m37.905.669c-1.76.054-3.195.428-4.832 1.058 1.23.158 2.461.332 3.695.46 1.153.127 2.733.472 3.728-.291.147-.113.222-.253.303-.414-.05-.31-.046-.401-.334-.584-.386-.245-2.072-.318-2.56-.229M53.92 79.8c-1.148.403-2.618.103-3.83.154-1.74.074-3.486.314-5.231.397-1.425.067-2.848-.086-4.271-.042-1.277.04-7.107.583-7.696 1.392.296.459 1.053.602 1.572.71 1.3.272 2.679.305 4.004.385.785-.336 4.858.187 5.983.175 1.314-.013 2.666-.243 3.983-.325 3.564-.223 7.356-.065 10.698-1.504-1.403-1.144-2.945-1.343-4.712-1.235-.216.013-.308-.017-.5-.107m140.93 1.25c-1.186.088-4.51.057-5.336.888-.102.103-.138.195-.2.318.058.275.054.346.297.518 1.37.97 5.489.863 7.15.88 1.97.007 3.578-.499 5.44-1.104-3.052-2.121-5.288-.67-6.772-1.425-.202-.103-.358-.085-.579-.075m28.857.603c-2.601 1.397-10.394-.415-14.865 1.936 2.013 1.48 5 .856 7.347.952 1.22.159 2.603-.02 3.844-.03 3.651-.03 7.321.015 10.964-.276l.678-.944c-.878-.447-1.668-.831-2.646-1.016-1.402-.265-4.043.08-5.146-.64zM61.896 83.27l-.132.06c-.284.124-.528.231-.838.264-.805.085-2.174.647-2.842 1.093l-.117.2c.208.343.508.502.896.595.419.1.865.137 1.293.188.514.1.872.2 1.357-.047l.169-.081c.924-.474 1.834-1.346 2.593-2.057-.762-.042-1.643-.004-2.379-.215m-40.164 2.283c-.436.04-1.045-.004-1.393.255.176.373.596.62.97.765 1.975.762 6.735.714 8.988.578.473-.063.993-.076 1.4-.344-.5-.549-4.722-1.1-5.647-1.109-.16-.001-.304.031-.461.046-1.263.12-2.545-.344-3.857-.191m17.05 2.022a10.8 10.8 0 0 0-4.047.88c2.169.802 5.616 1.533 7.94 1.675 1.364.084 4.507-.165 5.5.185.144-.039.252-.09.388-.145.253-.105.51-.067.779-.07 1.139-.01 1.941-.413 2.801-1.128-.619-.244-1.238-.498-1.89-.635-2.192-.46-9.285-.997-11.47-.762m172.393.983c-.243.151-.446.274-.736.313-1.322.177-7.378-.367-8.278.08-.14.068-.235.265-.31.394l-.161.02c-.383.052-.686.088-1.024.277l.022.177c.878.615 2.03.719 3.034 1.028 1.122.413 7.147.54 8.206.067.5-.224 1.197-1.087 1.596-1.486-.787-.238-1.568-.463-2.285-.874zm13.013 1.233c-.302.167-.624.35-.967.413-.826.151-1.757.129-2.597.17-2.606.129-5.504.177-7.97 1.086.163.257.431.822.734.912 1.124.33 3.204.47 4.543.785.368.087.941.362 1.258.128.053-.04.228-.221.28-.275.787-.054 2.832.399 3.374-.084.086-.288.06-.474.344-.636.027-.016.062-.011.093-.017 2.637.266 5.33.145 7.978.126 1.13-.008 2.33.1 3.45.002.453-.04.9-.263 1.31-.444-.368-.342-.758-.748-1.198-.993-2.083-1.161-6.226-1.02-8.638-1.05-.612-.007-1.422.089-1.994-.123M23.023 92.68c-1.579.152-5.18-.005-6.346.987-.03.211-.08.207.032.35.625.81 3.816.91 4.79.95 1.616.064 3.248-.008 4.861.102.015.001.03.01.044.014 2.382.124 4.874.277 7.18-.41-2.387-1.913-6.24-1.805-9.132-1.891-.37-.011-.73-.198-1.098-.171a1.5 1.5 0 0 0-.331.069m33.158 1.628c-1.301.095-2.583.354-3.885.446-1.596.114-6.322-.198-7.421.84-.032.03-.056.068-.084.103.125.3.315.377.605.501.713.305 1.5.437 2.259.572 2.11.25 9.856.347 11.428-.95.106-.086.13-.145.193-.253-.063-.396-.222-.564-.55-.792-.492-.34-1.737-.474-2.345-.5-.068-.004-.133.022-.2.033m139.509.482c-1.195.187-3.192.284-3.987 1.287-.163.205-.124.283-.068.512 1.01.855 3.063.425 4.305.65.23-.169.249-.257.542-.238.722.047 1.538-.135 2.08-.637.315-.292.579-.667.84-1.007-1.048-.272-2.67-.877-3.712-.567M67.52 97.102l-.31.204c-.53-.115-1.122-.342-1.642-.126-.237.262-.32.393-.38.744.143.325.17.39.508.548.226.106.582.259.807.341.048.017.1.01.151.016.977-.047 1.871-.114 2.833-.316-.266-.169-1.89-1.42-1.966-1.411m147.1 1.344c-2.328.126-4.73-.107-6.913.778-.63.254-2.363.011-2.602.557-.035.08-.079.23-.105.318-.272.145-.435.163-.732.174-.638.024-.871.379-1.268.817l-.13.144c2.837-.008 5.672.076 8.506.072 1.408-.002 2.82-.18 4.227-.102.364.021.632.102.965.245l.183.15c.096-.07.332-.29.432-.315.982-.244 3.305.214 4.406.302 1.87.15 4.05.21 5.889-.15l.703-.858c-1.436-.683-4.603-1.483-6.105-1.087-.718.19-3.092-.682-4.03-.818-1.23-.178-2.059.443-3.426-.227m24.413.714c-.864.126-1.645.437-2.489.601-1.167.227-2.163-.17-3.034.899-.065.362-.062.349.128.665.707.444 1.518.406 2.326.318 1.987.087 3.976-.047 5.967.027-.078-.674-.068-1.76-.588-2.254-.536-.51-1.635-.3-2.31-.256m-222.759.74q-.072.06-.146.115c-.442.325-1.738.178-1.967.373-.078.067-.06.197-.09.296.23.546.749.698 1.26.903 2.92 1.177 6.177.718 9.267.757.568.007.666.287.918.29.67.006.975-.288 1.668-.089.535.055 2.036-.377 2.477-.665l.067-.207c-.311-.55-1.018-.768-1.596-.926-2.426-.664-5.125-.796-7.626-.804-1.193-.005-2.43.079-3.613-.065a2.3 2.3 0 0 0-.62.022m39.206.754c-.183.103-.337.253-.548.23-1.393-.144-2.989.328-4.31.748 1.12.72 2.68 1.434 4.057 1.146.167-.035.173-.044.349-.094 1.363-.394 2.8.212 4.188-.188.2-.042.291-.045.489-.042 1.117.02 2.678-.036 3.747-.3l.971-.966c-2.229-.214-4.307-.584-6.563-.412-.784.06-1.554-.187-2.38-.123m22.224 1.681c.94 3.314 1.792 6.608 2.613 9.951l.152-.005c-.173-1.736-.016-3.567-.299-5.275-.208-1.255-.725-2.436-1.099-3.646-.447-.34-.893-.728-1.367-1.025m-21.798 4.477c-11.233.064-22.491-.147-33.72.075-1.7.034-3.393.225-5.094.275.914.312 1.856.676 2.81.83 1.715.277 3.553.144 5.29.145q4.574-.031 9.147.078 13.997.092 27.992-.074c2.021-.02 4.047-.067 6.068-.052 1.406.01 2.987.182 4.366-.044.145-.296.069-.542.042-.864-.214-.269-.32-.359-.673-.391-1.559-.143-3.275.017-4.852.014zm27.158-.058c.008.429-.041.938.167 1.32 1.981.359 4.352.082 6.37.097l14.97.042 33.719.178c5.924.038 11.885.29 17.807.105.057-.406.164-.719.02-1.106-1.084-.505-66.657-.674-73.053-.636m75.923.538c-.342.037-.681.04-.98.228l-.144.378c.288.335.639.544 1.093.569.158.008.316-.008.474-.016l.724-.03c.399.023.587.1.927-.124.099-.345.16-.686.216-1.04-.768.009-1.542 0-2.31.035m3.816.07c.071.405.055.753.334 1.064.177-.058.246-.09.4-.207.137-.296.31-.48.21-.802-.327-.076-.612-.07-.944-.056m3.776-.027c0 .466-.013.935.004 1.4q15.008.117 30.012.468c1.492.036 2.977.218 4.468.287 4.314.2 9.16.459 13.43.1 1.63-.136 3.257-.47 4.865-.766.055-.018.108-.047.166-.054.044-.005.211.03.259.039l.19-.148c-.02.004-.04.016-.061.013-.037-.004-.071-.022-.107-.031-.928-.223-2.167-.095-3.146-.122l-8.638-.215c-9.422-.268-18.835-.703-28.259-.907-4.375-.095-8.821.199-13.183-.064m-98.019 2.608c-4.73.133-9.439.137-14.17.097-3.372-.028-6.79-.157-10.155.07 2.48.4 4.987.728 7.449 1.23 2.496.509 4.971 1.205 7.44 1.836-3.665-.077-9.053.139-12.538-.5 1.866.778 3.971 1.107 5.939 1.569q2.675.648 5.322 1.399l17.867 4.827c-.308-1.618-.613-3.233-1.002-4.834-3.569.801-8.233-2.194-11.221-3.973 3.664.52 8.044.914 11.065 3.274-.395-1.676-.732-3.397-1.199-5.053-1.6-.002-3.199-.014-4.797.058m71.41.475c2.41.19 4.815.609 7.21.938 2.96.406 5.944.73 8.852 1.431-.015-.724.01-1.433-.223-2.127-.316-.242-.656-.245-1.05-.273-2.428-.175-4.957-.023-7.394-.025-2.439-.001-4.972-.176-7.395.056m18.603.014c.085.928.325 1.988.671 2.853l.192.122c.093-.105.176-.183.232-.313q.388-1.285.722-2.585zm4.226.366.069.08zm3.385-.189-.676 2.999c1.689.499 3.342.706 4.643 2.002-1.76.448-3.326.344-5.125.23-.165.776-.356 1.557-.485 2.34 2.154.549 4.314 1.07 6.428 1.763 2.01.659 3.937 1.531 5.938 2.197.944.315 1.918.454 2.875.708.913-.42 5.679-2.282 6.033-2.847-.434-.425-1.613-.516-2.204-.642-2.804-.597-8.96-2.266-11.338-3.517 4.678-.021 11.62 1.497 16.118 2.915l2.391-.798c1.939-.678 3.91-1.231 5.86-1.87-.999-.218-2.715-.398-3.491-1.04l.02-.165c1.248-.583 4.327.126 5.8.03 1.546-.1 3.42-1.106 4.9-1.604-2.136-.095-4.263-.204-6.384-.501a20 20 0 0 1 3.591-.584c1.474-.108 6.612.159 7.539-.51l-.019-.171c-3.492-.423-7.174-.182-10.697-.323q-15.851-.655-31.716-.612m-6.85 3.527.07.034zm4.923 5.795q-.505 2.16-1.09 4.299c3.881.07 5.837 1.197 9.33 1.933.992-.418 1.955-.87 2.916-1.355q1.325-.629 2.641-1.275c-4.457-1.58-9.269-2.175-13.797-3.602m-1.277 5.515c-.906 1.457-.701 3.684-1.296 5.326 1.706-.534 3.34-1.226 4.971-1.953 1.194-.541 2.404-1.06 3.557-1.685-2.406-.594-4.805-1.185-7.232-1.688M52.928 134.29l.044.086zm48.314 5.025c.556 1.838.884 3.73 1.425 5.563q3.3-.618 6.588-1.296l1.51-.448c-3.366-.99-6.427-2.161-9.523-3.82m19.66 1.306-.025.582.184.192c.377-.018.74-.072 1.113-.131l-.084-.207zm13.2 2.677c-1.956.238-3.864.709-5.793 1.09-2.729.541-5.484.986-8.182 1.677-1.165 6.332-1.96 12.763-2.976 19.124-.688 4.308-1.675 8.58-2.258 12.903 1.295-2.45 2.285-5.04 3.428-7.562 1.813-3.999 3.719-7.96 5.592-11.93.645-1.307 1.263-2.645 2.207-3.77-1.362 3.18-2.163 6.726-3.005 10.08-1.021 4.073-2.048 8.204-2.785 12.338q5.053-11.46 9.945-22.988c.752-1.797 1.24-3.695 2.007-5.488.38-.89 2.53-4.914 2.525-5.487-.265-.059-.44-.036-.706.013m-18.484 3.613c-2.505.523-4.973 1.207-7.448 1.852-1.463.382-2.985.68-4.416 1.163l4.341 19.846c.277 1.472.481 3.01.849 4.46 1.534-5.318 2.69-10.7 4.019-16.068.803-3.248 1.797-6.454 2.54-9.717.098-.432.322-1.07.195-1.485zm-58.219 3.423c-.009 2.072.024 4.125.136 6.194.982-.11 1.86-.246 2.78-.632.162-.59.462-1.324.407-1.933-.206-.175-.205-.166-.442-.228-1.581-.417-1.745-2.472-2.881-3.4m29.713.09c-3.531.678-7.071 1.201-10.612 1.813.918.365 1.188.68 1.872 1.354.038.037.09.057.135.085 1.404-.104 9.296-2.176 10.18-2.904l-.04-.164c-.499-.22-.999-.206-1.535-.183m12.343.945c-1.547.577-3.127 1.036-4.621 1.745 2.021 7.607 4.188 15.166 5.892 22.853.203 1.013.395 1.907.895 2.825.312-1.004.523-1.86.501-2.922-.049-2.369-.482-4.793-.77-7.144q-.538-4.602-.93-9.219c-.127-1.52-.366-7.116-.777-8.105zm-24.034 1.056c-1.429.174-2.851.332-4.292.351.064.722-.032 1.65.265 2.295.321.196.438.16.798.075q.1-.025.198-.053l4.3-.92c-.201-.587-.357-1.224-.754-1.711-.206-.077-.301-.08-.516-.036m18.43.964q-2.62.81-5.225 1.668 2.917 10.364 6.224 20.611c.416 1.133.843 2.262 1.247 3.4l.506-.946q-1.354-10.352-2.126-20.764c-.073-.899.096-3.347-.392-3.985zm-6.05 1.879q-2.02.589-4.053 1.131c1.708 2.373 2.604 4.794 3.643 7.508-2.308-1.39-4.205-4.55-4.915-7.124-3.633.824-7.19 1.967-10.83 2.723.038.863.041 1.781.207 2.628.37 1.88 1.19 3.548 1.549 5.712-.436-.49-.862-.999-1.323-1.465q.508 3.74.954 7.488c.145 1.316.163 2.668.378 3.973.408 2.475 1.09 5.025 1.744 7.449.13-2.618-.133-5.142-.167-7.747-.028-2.125.157-4.261.168-6.39.009-1.595-.591-10.415.025-11.082.644.546.851 2.386 1.042 3.229q1.07 4.862 1.8 9.785.73 4.924 1.119 9.887.17 1.964.249 3.933l.17 1.096c.758.039 1.519.092 2.279.083q-.529-5.005-1.174-9.996c-.47-3.571-1.082-7.229-.943-10.844l.06.148c.826 2.123 1.022 4.695 1.514 6.927.71 3.219 1.596 6.405 2.335 9.62.245 1.063.479 3.112.898 3.986.265.05.367.034.612-.076.565-1.4.622-3.207.808-4.697q.464-3.918 1-7.828c.2-1.452.346-2.928.71-4.35.496 1.94.697 3.936.941 5.918.46 3.734.788 7.48 1.237 11.212l3.074.01c-.335-3.684-.996-7.352-1.587-11.002l-1.973-12.617q-.496-3.253-.957-6.512c-.106-.744-.114-1.74-.33-2.442-.038-.12-.081-.163-.153-.252zm143.508 3.573c-.821 2.273-.931 4.816-1.179 7.207q-.555 5.379-.927 10.773c-.214 2.876-.551 5.747-.618 8.632l1.311-1.966c1.509-2.4 3.082-4.754 4.61-7.14-.012-.84-.034-1.681-.147-2.514-.413-3.047-1.114-6.09-1.707-9.106-.333-1.696-.54-3.51-.986-5.172-.079-.291-.157-.488-.357-.714M57.82 160.928c-.34.726-.18 4.086-.188 5.135l.554-1.333c.813-1.269 1.156-2.48 1.546-3.924zm7.786.369c-.965.145-1.928.285-2.881.497.181 1.654.821 3.181 1.07 4.814l.133.373c.577-.839 1.388-4.281 1.82-5.487-.045-.067-.074-.154-.142-.197m2.453.81c-2.053 6.564-3.2 13.528-4.485 20.275-.282 1.483-1.026 4.132-.912 5.513l.11.12 4.041-.016c.481-2.123 1.686-25.158 1.246-25.892m-17.807.539c-.416.113-.84.214-1.244.363.757 3.05.886 6.248 1.455 9.34l.127.297.093-.06q.033-3.086.137-6.171c.035-1.212.163-2.499.001-3.699-.26-.148-.285-.1-.57-.07m-6.931.738c-1.178.327-2.34.683-3.47 1.151-.005 7.909-1.118 15.675-2.423 23.454 1.033.02 2.081.005 3.11.095.198-2.657.114-5.348-.027-8.006q-.201-4.538-.117-9.08c.977 2.172 2.34 6.976 2.883 9.384.437-2.023 1.864-5.712 1.959-7.47.089-1.66-.393-3.599-.68-5.236-.235-1.343-.37-2.907-.824-4.175-.166-.083-.22-.107-.411-.117m-6.56 2.232c-.95.387-1.922.75-2.842 1.202-.519 2.546-.675 5.226-1.004 7.805-.38 2.985-.766 5.96-1.044 8.958-.12 1.29-.307 2.617-.28 3.914.209.271.293.227.635.286.397-.03.627.013.948-.232.697-2.962 4.416-20.321 3.964-21.863-.256-.124-.13-.11-.377-.07m24.8 1.36c-1.262 3.645-1.877 7.637-2.644 11.41-.242 1.193-.735 2.665-.733 3.863.002 1.405.675 3.006 1.09 4.35l.183.34c.378-.285 1.543-6.472 1.699-7.573q.255-1.842.391-3.696c.066-1.023.278-8.34.078-8.63-.017-.025-.043-.042-.064-.063m-39.442 2.89c-.853.435-1.483.656-1.79 1.642-.213.678-.318 1.36-.558 2.04.421.956.817 1.936 1.29 2.868l.624 1.211c.226-1.08.91-6.848.543-7.623-.038-.079-.057-.09-.109-.139m203.693.723c-1.401 2.588-5.527 13.003-5.796 15.726l.126.179c.85.069 1.695.149 2.548.138.417-1.839 3.34-15.073 3.122-16.043m-21.633 2.263c-.393 4.556-1.09 9.095-1.456 13.644l2.617.005c.403.007.85.077 1.209-.133.266-1.121-1.693-11.68-2.262-13.412zM26.7 175.458c-.726 2.637-1.123 5.361-1.848 7.987.255.474.511.936.816 1.381.169.263.333.686.633.773.264-1.598.803-8.945.4-10.14m107.705 1.867c-1.242 1.729-3.25 6.782-2.8 8.818.033.148.057.173.123.288l.15.06c.964-.006 1.932.004 2.897-.02-.023-1.41-.13-8.509-.37-9.147m-87.6 2.38c-.355 1.155-.536 2.366-.83 3.54-.392 1.574-.96 3.228-1.15 4.839.235.109.382.136.642.137l2.171.022c-.09-1.63-.31-7.284-.833-8.538m123.473 1.758c-.067 1.407-.543 4.025.458 5.18.101.116.233.179.366.248.13-1.065-.27-4.36-.715-5.336zm18.026 1.75c-.12.843-.639 2.985-.262 3.672.087.156.46.174.632.211.39-.635.09-2.853-.177-3.595q-.03-.082-.08-.155-.048-.073-.113-.132m-24.742 6.839c-3.006.198-6.064.104-9.076.117l-17.27.043-50.91.378c-17.557.07-35.277-.081-52.739 1.992l-.064.095c1.563.21 3.234.194 4.815.298q8.46.561 16.938.53l31.898-.045c4.43-.315 8.909-.253 13.35-.304 4.846-.057 9.71-.189 14.555-.332q20.885-.526 41.774-.751c6.462-.065 12.926-.054 19.387-.183q16.614-.417 33.213-1.226c2.445-.116 4.892-.097 7.336-.239-1.137-.401-7.056-.082-8.77-.102q-22.217-.402-44.437-.271m-58.03 7.45c.757 3.373 1.658 6.83 2.177 10.243l1.896-.002c.374-2.614.928-5.251 1.579-7.81.165-.815.318-1.632.551-2.432l-1.632.006c-.475 2.524-.877 5.161-1.516 7.643-.312-2.577-.938-5.094-1.407-7.643zm7.174 0c-.107 3.412-.08 6.833-.092 10.248h1.663l.027-10.248zm3.285 0 .029 10.264 4.452-.004.001-1.498c-.571.003-1.138-.002-1.708.048-.335.03-.542-.021-.859-.129-.274-.263-.272-.282-.296-.676-.01-.161.002-.334.006-.495v-1.756c.971.02 1.798.127 2.655-.397v-.51c-.857-.534-1.586-.49-2.567-.505-.008-1.036-.042-2.08-.008-3.114.818.03 2.225.273 2.853-.29.055-.333.047-.35-.104-.653-.981-.671-3.284-.282-4.454-.285m5.055 0c-.026.425-.103.81.142 1.185.433.307 1.203.185 1.729.198 0 2.956.04 5.92-.023 8.875l1.75.002-.019-1.668c-.005-2.419-.05-4.844-.01-7.262.519.004 1.168.085 1.652-.109.238-.305.334-.363.29-.749-.417-.455-.989-.471-1.572-.502-1.3-.07-2.637.01-3.939.03m6.322-.013c.004 1.303-.165 9.769.262 10.228.465.057.9.056 1.368.032-.154-1.948-.226-4.059.024-5.999.894 2.005 1.823 4 2.679 6.022.425.016.994.11 1.364-.11.019-.115.057-.265.055-.38q-.062-4.891.002-9.783l-1.731-.002c.184 2.202.042 4.413.281 6.611l-.093-.157c-1.069-1.831-1.948-5.02-2.895-6.403-.452-.098-.857-.08-1.316-.059m8.93.007c-.481 1.871-.814 3.766-1.256 5.645-.36 1.529-.854 3.069-1.135 4.611l1.854.074c.108-.736.198-1.478.369-2.202l1.981-.005c.39.392.425 1.611.537 2.173l1.81-.017c-.54-1.619-.815-3.322-1.171-4.988-.378-1.77-.816-3.524-1.235-5.285zm5.05.054.014 10.227 1.52.006c.002-2.078-.056-4.186.134-6.257l.051.132c.542 1.464.785 5.18 1.8 6.145.32.008.628.064.896-.14.31-2.176.67-4.395 1.384-6.48-.027.822-.073 1.65-.061 2.474q-.01 2.05-.054 4.1l1.644-.022q.102-5.104.058-10.21c-.676.001-1.357-.016-2.032.036-.638 2.296-1.294 4.578-1.452 6.968q-.922-3.502-2.092-6.928c-.602-.018-1.207-.048-1.81-.051m-32.004 16.879c-2.979.24-6.068.08-9.06.082-3.88.004-7.763.115-11.645.143-7.945.058-15.874.465-23.811.733-1.4.047-8.083.18-8.785.501 1.225.263 2.645.209 3.903.318 6.411.557 12.854.605 19.285.688q28.636.142 57.267-.434c3.727-.059 7.454-.207 11.183-.24l36.692-.95c3.225-.082 6.445-.266 9.666-.343 2.263-.053 5.317.077 7.495-.317-2.273-.308-4.74-.076-7.04-.079l-11.513-.11-49.796-.043-16.58.05c-2.008-.006-5.404-.374-7.26 0m-26.177 6.017c-3.655.106-7.324.105-10.981.17-1.934.033-3.92-.029-5.841.221 6.929.816 13.885 1.676 20.86 2.004 8.886.417 17.875.141 26.773.16q19.334.155 38.668-.031c7.977-.12 15.971-.562 23.946-.596q4.94-.217 9.882-.324c2.528-.06 5.089-.038 7.599-.366-2.089-.164-4.207-.13-6.301-.15l-12.209-.049-34.425-.411-39.783-.464-12.937-.16c-1.756-.009-3.495-.101-5.25-.005m11.677 6.11c-3.501.15-7.029.1-10.534.175-1.35.029-2.736-.002-4.078.127l-.067.116-.036-.047c1.818.065 3.632.44 5.446.629 5.565.582 11.235 1.303 16.82 1.54 6.886.293 13.81.078 20.699.054l37.041-.3q4.586-.23 9.175-.378c2.02-.067 4.07-.05 6.077-.303l-.235-.131c-.033.019-.063.042-.097.057-.584.242-2.375-.065-3.063-.078-2.943-.059-5.884-.041-8.827-.142-5.036-.172-10.066-.481-15.105-.598l-30.693-.543c-7.471-.14-15.058-.487-22.523-.178m16.874 6.499c-.98.04-6.99.046-7.54.244.752.142 1.508.189 2.262.304.942.144 1.87.37 2.814.497 7.603 1.03 15.737 1.45 23.345.27 2.674-.288 5.721-.51 8.287-1.306-5.543.083-11.109.219-16.65.145-4.14-.054-8.391-.412-12.517-.154"/><path d="M236.523 121.053c-.16-.187-.302-.359-.406-.584-1.227-2.67-.897-7.679.04-10.403.092.08.108.08.174.192 1.4 2.357.743 8.226.192 10.795m-101.735-2.371c-1.849.204-4.227-.319-6.071-.621-7.946-1.3-15.682-3.412-23.54-5.112-2.32-.502-4.876-.594-7.12-1.284.16-.038.315-.062.48-.07 2.662-.13 5.622.42 8.28.712 6.15.674 23.581 2.392 27.97 6.375m57.308-2.386c-2.134-.634-4.426-.767-6.615-1.164-1.711-.31-3.372-.814-5.074-1.135-1.028-.193-3.961-.417-4.689-1.052l.085-.155.656-.129c3.34-.202 6.934.144 10.143 1.077.942.274 5.601 1.763 5.954 2.408l-.213.186zm38.491 4.85c-.704-.665-1.26-1.326-1.69-2.198-.949-1.924-1.045-4.37-.348-6.385.031.016.065.028.095.047.78.509 1.284 2.546 1.51 3.413.255.985.939 4.26.433 5.123m-111.896 3.003c-4.912-.644-9.864-3.437-14.31-5.514-3.034-1.418-6.093-2.788-9.113-4.236 2.011.024 4.26.531 6.227.98 3.488.793 7.061 1.725 10.407 2.993 2.061.781 4.042 1.759 6.089 2.579.867.348 3.82 1.32 4.25 2.005l-.05.195c-.473.205-1.04.149-1.548.153-1.257-.044-2.517-.02-3.774-.014zm99.342-3.036c-.063-.058-.13-.111-.189-.172-1.481-1.524-1.346-3.925-1.275-5.872.41.305.737.605.98 1.063.76 1.427.955 3.428.484 4.98m-4.862 6.598c-.41-.208-.7-.396-.958-.783-1.004-1.509-2.623-6.378-2.273-8.116.049.046.102.088.147.138 1.114 1.225 2.787 5.41 3.094 7.113.1.552.045 1.095-.01 1.648m-56.622 3.954c-.637-.11-3.254-1.22-4.19-1.511-3.253-1.012-6.582-1.762-9.83-2.787-3.443-1.087-6.827-2.505-10.191-3.814-1.707-.665-3.91-1.288-5.344-2.427 1.596-.02 7.656 1.381 9.63 1.814 6.06 1.331 12.212 3.293 17.447 6.692.843.547 1.929 1.175 2.478 2.032m66.129-1.583c-.465-.239-.74-.683-1.034-1.102-1.216-1.742-2.23-4.66-1.853-6.789.037.02.076.034.111.057 1.594 1.056 2.419 5.987 2.776 7.834M48.113 140.704c-2.865-.563-18.131-14.998-21.198-17.732.265.026.411.072.656.193 1.794.892 3.565 2.105 5.25 3.2 4.842 3.147 9.486 6.322 13.148 10.864.835 1.036 1.742 2.189 2.144 3.475M23.709 137.3c-.24.019-.277-.002-.474-.13-2.664-1.712-5.365-7-6.968-9.828-.674-1.19-1.663-2.576-2-3.897.138.05.279.105.405.18.82.497 1.625 1.403 2.282 2.102 3.04 3.233 5.763 7.183 6.755 11.573m124.344-2.758c-2.272-.461-4.57-1.315-6.78-2.019-6.647-2.117-13.592-4.332-19.439-8.252 6.294-.115 21.568 5.62 26.035 10.064.093.093.09.095.184.207m82.807-5.292c-.053-.015-.108-.022-.157-.045-1.079-.514-1.891-3.331-2.12-4.422.163.04.323.106.48.16.953.986 1.726 2.947 1.797 4.307m6.387 2.796c-1.481-1.458-3.544-5.01-3.599-7.119.338.122.565.243.835.486 1.802 1.628 2.626 4.27 2.764 6.633m-33.722 6.871-.167-.04c-.986-2.066-3.526-10.848-3.157-12.953.208.113.308.182.454.375 2.275 3.016 3.384 8.88 2.87 12.618m-6.282-5.72q-.039-.038-.076-.078c-1.578-1.726-3.458-4.642-3.406-7.053.214.122.423.242.61.405 1.658 1.44 2.78 4.584 2.872 6.726M29.4 135.216c-.34-.087-.62-.19-.89-.42-1.71-1.463-3.907-5.89-5.32-7.966.183.07.33.128.492.241 2.633 1.852 5.086 4.966 5.719 8.144m197.113-1.828c-.094-.11-.105-.12-.203-.258-.719-1.01-1.113-1.977-.93-3.223.478.274.776.842.982 1.34.293.71.427 1.414.151 2.14M94.645 134.45l-.122-.054zm53.408.092.071.058zm72.933 7.671-.104.096c-.171-.147-.142-.15-.185-.367-.096-.492-.596-5.39-.555-5.81.037-.381.188-.654.394-.968.319.146.419.319.584.632.916 1.737.477 4.63-.135 6.417m-22.433-2.133-.224.034a1.15 1.15 0 0 1-.4-.452c-.59-1.11-1.293-2.931-.949-4.167.713.346 1.145 1.046 1.435 1.759.384.942.526 1.871.138 2.826m-177.67 8.607c-.358-.143-.663-.503-.931-.776-2.805-2.861-3.792-7.099-5.347-10.696 1.037.714 4.534 6.844 5.159 8.215.484 1.064.823 2.128 1.119 3.257m20.544-5.347c-.24-.014-.458-.043-.669-.17-1.378-.83-2.616-3.793-3.058-5.315 1.863 1.392 3.174 3.232 3.727 5.485m9.528-1.624c-.111-.024-.128-.025-.25-.07-.992-.37-1.368-1.542-1.755-2.437 1.153.538 1.52 1.405 2.005 2.507m113.415 11.671c-2.544-2.153-5.111-8.074-5.624-11.4.22.164.381.336.568.536 2.577 2.755 5.196 6.953 5.056 10.864m-17.689 2.627c-3.07-1.733-5.778-8.451-7.305-11.715.214.092.159.061.385.197 3.7 2.224 6.033 7.483 6.92 11.518m-16.053-5.062c-.044-.022-.089-.04-.13-.065-.932-.563-1.899-3.054-2.094-4.11-.157-.844.026-1.4.491-2.103.069.016.139.025.205.048.673.244 1.903 3.84 2.253 4.681q-.352.78-.726 1.549m-102.852-4.388c.13-.572.211-1.154.304-1.733.122.099.24.207.34.328 1.223 1.47 1.739 3.632 1.567 5.483-1.468-1.023-1.685-2.48-2.212-4.078m98.145 4.83c-1.192-.92-2.37-2.172-2.81-3.649-.214-.721-.231-1.171.144-1.834.157.066.148.056.306.155 1.334.839 2.146 3.717 2.486 5.17zm73.575 4.325c-.247-.058-.342-.07-.522-.262-1.509-1.618-3.748-7.197-3.604-9.409.191.056.316.096.472.232 1.405 1.236 3.727 7.45 3.654 9.439m-158.355-1.342a6 6 0 0 1-.253-.299c-1.099-1.394-2.415-3.774-2.195-5.613.245.101.417.22.605.403 1.605 1.557 1.8 3.39 1.843 5.509m-19.513 1.45q-.08-.046-.159-.098c-1.707-1.182-3.284-3.656-3.716-5.674.727.314 1.505 1.063 2.042 1.646 1.112 1.207 1.908 2.438 1.833 4.126m89.68 2.281c-.154-.053-.259-.076-.392-.163-1.79-1.163-3.14-5.494-3.55-7.53.188.015.3.051.468.145 1.866 1.04 3.06 5.612 3.474 7.548m11.045-2.89c-.552-.162-.903-.514-1.19-1.004-.36-.612-.47-1.25-.293-1.934.367.088.497.19.72.492.516.702.88 1.568.764 2.446m104.623 2.63c-.294-.585-.482-1.258-.665-1.886-.31-1.07-.572-2.099-.009-3.121a.84.84 0 0 1 .296.373c.515 1.268.881 3.34.378 4.633M82.97 170.32q-.047-.068-.09-.137c-1.34-2.242-4-8.44-3.4-11.011.176.093.28.168.412.327 1.838 2.22 3.56 7.966 3.078 10.821m54.543 33.896c-.306-.02-.578-.008-.837-.192-.358-.918.294-2.608.5-3.558l.13.142c.206 1.03.62 2.388.486 3.428z"/></svg>