<svg xmlns="http://www.w3.org/2000/svg" viewBox="0 0 256 256"><path d="m0 123.887.02-.113c.48-2.782.438-5.777.717-8.601q.8-7.565 2.483-14.984.332-1.43.697-2.851t.762-2.835.825-2.817.89-2.797.952-2.776 1.015-2.755q.524-1.371 1.078-2.73.554-1.36 1.139-2.706.584-1.346 1.2-2.678.615-1.333 1.26-2.651.645-1.319 1.32-2.622t1.379-2.591 1.437-2.56 1.495-2.526 1.552-2.491 1.608-2.456 1.663-2.419 1.718-2.38 1.771-2.34 1.823-2.3 1.876-2.259q.95-1.118 1.926-2.215.975-1.097 1.975-2.171t2.025-2.126 2.072-2.079 2.118-2.032 2.164-1.983 2.209-1.933q1.114-.955 2.251-1.884t2.294-1.831 2.334-1.78 2.375-1.725q1.252-.901 2.526-1.771t2.568-1.708 2.61-1.645 2.648-1.58 2.687-1.515 2.724-1.449 2.757-1.381 2.791-1.314 2.823-1.245 2.852-1.175 2.88-1.105 2.906-1.034 2.93-.962 2.954-.89q1.482-.428 2.974-.819t2.993-.744 3.01-.671 3.027-.597 3.04-.523q1.523-.243 3.052-.448t3.062-.373 3.07-.298 3.076-.223 3.082-.147T126.548.2t3.085.004q1.542.02 3.083.08 1.542.058 3.081.154 1.54.096 3.076.23 1.537.135 3.07.306 1.532.172 3.06.381t3.051.456q1.557.257 3.107.552t3.093.629 3.076.703 3.057.78 3.038.853 3.016.928 2.993 1.002 2.966 1.074 2.94 1.147 2.911 1.218q1.448.628 2.88 1.29t2.848 1.36q1.415.697 2.813 1.428 1.398.732 2.778 1.498t2.74 1.565 2.7 1.632q1.341.832 2.661 1.697t2.618 1.762 2.574 1.826 2.528 1.888 2.481 1.95 2.433 2.01 2.383 2.068 2.331 2.126q1.153 1.078 2.279 2.183 1.126 1.106 2.224 2.238 1.099 1.133 2.17 2.292 1.07 1.16 2.112 2.345 1.041 1.185 2.053 2.395t1.995 2.445 1.935 2.493 1.873 2.54q.845 1.175 1.662 2.368.818 1.194 1.608 2.406t1.553 2.442 1.497 2.477 1.439 2.511q.705 1.263 1.381 2.543t1.323 2.574 1.264 2.603 1.203 2.632 1.143 2.659q.556 1.335 1.082 2.683.525 1.349 1.02 2.709.494 1.36.958 2.73.463 1.371.895 2.752.432 1.382.832 2.773.4 1.39.767 2.79c1.1 4.072 2.09 8.156 2.736 12.328.614 3.96 1.217 7.951 1.577 11.942.17 1.872.03 4.653.4 6.37v3.345l-.02.131c-.347 2.426-.307 4.98-.532 7.433q-.73 7.723-2.233 15.334-.285 1.437-.602 2.867-.318 1.43-.67 2.853-.35 1.423-.733 2.837t-.798 2.82q-.413 1.405-.86 2.801-.446 1.395-.924 2.78t-.988 2.76-1.05 2.735q-.54 1.362-1.112 2.711-.57 1.35-1.173 2.685-.602 1.336-1.234 2.658-.631 1.322-1.293 2.629t-1.354 2.599-1.412 2.567-1.47 2.535-1.528 2.501-1.584 2.465q-.805 1.224-1.639 2.429-.833 1.205-1.694 2.39-.86 1.186-1.748 2.352-.887 1.166-1.801 2.312t-1.853 2.27-1.905 2.227q-.964 1.102-1.954 2.183t-2.004 2.138-2.051 2.092-2.099 2.045-2.144 1.997q-1.084.986-2.19 1.947t-2.233 1.898-2.276 1.846-2.317 1.793q-.847.634-1.705 1.253-.858.62-1.726 1.224-.868.606-1.745 1.196-.878.591-1.765 1.167t-1.784 1.138-1.802 1.109-1.82 1.078-1.838 1.05-1.855 1.018-1.87.988q-.94.486-1.888.957-.947.471-1.902.926t-1.917.895-1.933.863q-.969.423-1.945.831t-1.96.8-1.971.767q-.99.375-1.984.734-.995.36-1.996.702-1.001.343-2.008.67-1.006.326-2.018.636t-2.028.602-2.038.57q-1.021.275-2.047.535-1.025.26-2.055.502-1.03.243-2.063.47t-2.071.435-2.078.4q-1.04.193-2.084.365-1.043.175-2.089.333-1.046.157-2.095.3-1.049.14-2.1.262c-4.568.573-9.214 1.03-13.823 1.08-5.782.063-11.705-.5-17.427-1.292-35.09-4.857-64.82-23.221-86.034-51.335-12.33-16.342-20.117-36.142-23.391-56.28Q.83 141.926.445 136.862c-.137-1.918-.048-4.765-.445-6.536zM121.846 8.177c-3.93.252-7.865.546-11.759 1.144q-1.303.202-2.6.432t-2.59.49-2.58.546-2.566.603-2.553.66-2.536.715-2.522.771q-1.255.4-2.503.827-1.247.427-2.484.882-1.237.454-2.464.936t-2.443.99-2.421 1.044-2.397 1.097-2.373 1.15-2.346 1.201-2.32 1.253-2.29 1.304-2.262 1.354-2.232 1.404-2.2 1.452-2.167 1.5-2.134 1.549q-1.058.785-2.099 1.595-1.041.808-2.064 1.64t-2.027 1.686-1.989 1.73-1.95 1.773-1.912 1.816q-.945.918-1.87 1.857t-1.83 1.898q-.903.96-1.786 1.939-.883.978-1.744 1.977-.96 1.094-1.893 2.211-.932 1.117-1.838 2.257-.905 1.14-1.782 2.302-.878 1.161-1.726 2.344-.849 1.183-1.668 2.386-.82 1.203-1.61 2.425-.789 1.223-1.549 2.465t-1.488 2.501q-.73 1.26-1.427 2.537-.698 1.278-1.365 2.572-.666 1.294-1.3 2.604-.636 1.31-1.238 2.635-.603 1.325-1.173 2.664T16.67 83.99t-1.041 2.718-.974 2.744-.907 2.766-.839 2.787q-.402 1.4-.77 2.807-.368 1.409-.701 2.826-.334 1.416-.632 2.841-.3 1.425-.563 2.856-.264 1.432-.492 2.87-.23 1.437-.423 2.88t-.351 2.89q-.158 1.446-.281 2.897t-.21 2.903-.14 2.908q-.05 1.454-.067 2.91-.016 1.456.003 2.911.02 1.455.075 2.91.055 1.454.146 2.907.091 1.491.22 2.979.128 1.488.294 2.972t.368 2.964.442 2.954.515 2.942.588 2.928.66 2.913.733 2.895q.384 1.444.804 2.877t.876 2.855.947 2.833q.49 1.41 1.016 2.809.526 1.397 1.086 2.782.56 1.384 1.155 2.754t1.223 2.725 1.29 2.694 1.358 2.66 1.423 2.626q.727 1.304 1.487 2.59t1.552 2.552 1.614 2.513 1.677 2.472 1.737 2.43q.884 1.203 1.797 2.385.914 1.181 1.856 2.34t1.914 2.293 1.97 2.245 2.025 2.195q1.026 1.085 2.08 2.144 1.053 1.06 2.131 2.092 1.08 1.032 2.184 2.038t2.233 1.983q.843.73 1.7 1.443t1.726 1.41 1.753 1.379 1.778 1.345 1.802 1.312 1.827 1.278q.919.63 1.85 1.244.93.614 1.873 1.21.942.595 1.895 1.174.953.578 1.916 1.139.964.56 1.938 1.103t1.958 1.066q.983.525 1.977 1.03.993.506 1.996.994 1.002.487 2.014.956t2.032.918 2.048.88 2.064.842 2.08.804q1.043.392 2.094.764 1.05.373 2.108.726t2.121.686q1.064.334 2.134.647t2.146.606q1.075.294 2.156.567 1.08.274 2.166.527t2.176.486 2.184.446 2.193.405 2.2.364q1.1.171 2.205.322 1.105.152 2.212.282c6.741.767 13.415.8 20.186.624 32.487-2.052 61.84-15.741 83.453-40.261 20.328-23.063 31.76-55.526 29.796-86.27-.323-5.044-.796-10.181-1.704-15.153q-.224-1.22-.474-2.436t-.524-2.426-.575-2.415-.626-2.401q-.325-1.198-.674-2.389t-.725-2.374-.773-2.358q-.4-1.175-.823-2.342t-.871-2.324-.92-2.306-.966-2.286-1.015-2.265-1.06-2.244-1.108-2.221-1.153-2.198-1.2-2.173-1.244-2.148-1.288-2.121-1.332-2.094-1.375-2.066-1.418-2.038q-.72-1.01-1.46-2.007-.74-.995-1.502-1.976-.76-.98-1.542-1.945-.781-.964-1.582-1.912t-1.622-1.879-1.66-1.844-1.699-1.81-1.736-1.774-1.772-1.738-1.808-1.7q-.913-.84-1.843-1.663-1.086-.966-2.195-1.906-1.11-.94-2.241-1.853t-2.286-1.797-2.328-1.741-2.37-1.684-2.411-1.625q-1.216-.799-2.45-1.567t-2.487-1.506q-1.253-.737-2.524-1.444-1.27-.707-2.557-1.383-1.288-.676-2.59-1.32-1.304-.645-2.623-1.257t-2.652-1.192-2.68-1.127-2.707-1.061-2.732-.995-2.755-.929q-1.384-.447-2.778-.86-1.393-.414-2.797-.793-1.403-.38-2.816-.724-1.412-.345-2.833-.655-1.42-.31-2.847-.586t-2.862-.517-2.873-.446-2.883-.376-2.891-.306-2.898-.235-2.904-.164-2.906-.094-2.907-.023-2.907.049-2.905.119"/><path d="m131.031 246.563-.067.005c-3.182.151-6.392-.026-9.571-.183q-1.275-.071-2.547-.17t-2.543-.225q-1.27-.127-2.537-.28t-2.531-.335-2.523-.39-2.514-.443-2.503-.497-2.492-.552q-1.244-.289-2.48-.605-1.237-.316-2.467-.659-1.23-.342-2.451-.711t-2.436-.764q-1.213-.395-2.418-.817t-2.4-.868q-1.196-.447-2.382-.92-1.185-.473-2.36-.971-1.175-.499-2.34-1.023-1.163-.523-2.316-1.072-1.153-.548-2.293-1.121-1.14-.574-2.268-1.171t-2.242-1.22-2.216-1.268-2.188-1.315-2.159-1.362-2.129-1.409q-1.057-.715-2.098-1.454-1.041-.738-2.066-1.498t-2.033-1.543q-1.009-.783-2-1.587t-1.965-1.63q-.974-.825-1.93-1.67-.956-.847-1.893-1.713-1.054-.974-2.085-1.973t-2.037-2.023-1.987-2.071-1.937-2.119-1.885-2.165-1.831-2.21-1.779-2.254-1.722-2.296-1.667-2.337q-.82-1.179-1.61-2.376-.79-1.199-1.552-2.416-.761-1.216-1.493-2.451t-1.434-2.488-1.372-2.52-1.312-2.554-1.249-2.584-1.186-2.614q-.578-1.315-1.123-2.642-.545-1.328-1.059-2.669t-.993-2.693q-.48-1.352-.929-2.716-.447-1.364-.862-2.738t-.796-2.758-.729-2.777q-.347-1.392-.661-2.793-.314-1.4-.594-2.809-.28-1.407-.526-2.822-.246-1.414-.457-2.834t-.389-2.844-.32-2.852-.25-2.86-.181-2.865q-.074-1.454-.111-2.909t-.04-2.91q-.001-1.456.033-2.912.034-1.454.105-2.909.07-1.453.176-2.905t.247-2.9q.142-1.45.32-2.894.176-1.445.39-2.885.212-1.44.46-2.874t.532-2.862.603-2.848q.318-1.42.672-2.832t.742-2.815.81-2.796.88-2.775.948-2.752q.491-1.37 1.016-2.728.524-1.358 1.082-2.703t1.149-2.675 1.214-2.645 1.279-2.615 1.343-2.583 1.406-2.549q.719-1.265 1.469-2.513t1.53-2.476 1.59-2.438 1.651-2.398 1.709-2.357q.869-1.167 1.767-2.313t1.823-2.27 1.878-2.224 1.933-2.177q2.891-3.198 5.994-6.191 3.103-2.994 6.403-5.769.754-.625 1.519-1.237t1.538-1.213 1.559-1.187 1.577-1.162q.794-.574 1.596-1.135.803-.561 1.616-1.109.812-.548 1.633-1.082.82-.535 1.65-1.056.83-.52 1.668-1.027.838-.508 1.684-1.001t1.7-.972q.855-.48 1.717-.945t1.732-.916 1.746-.888 1.761-.858 1.775-.83 1.788-.8q.897-.393 1.801-.771t1.814-.741 1.825-.711 1.837-.681 1.847-.651 1.859-.62 1.868-.59 1.878-.559q.94-.272 1.886-.528t1.895-.497q.95-.24 1.903-.465t1.91-.435 1.918-.402 1.923-.372 1.93-.34c5.224-.84 10.502-1.156 15.782-1.386l.14-.01q3.281-.105 6.562-.018 3.282.086 6.553.363 3.27.278 6.52.746 3.248.468 6.464 1.125.978.192 1.953.4.974.208 1.945.433.97.225 1.938.466.966.241 1.929.499t1.92.532 1.912.564q.953.29 1.901.596.948.307 1.891.63.943.322 1.88.66.937.339 1.868.693.932.354 1.857.725.925.37 1.844.756.918.385 1.83.787.913.401 1.818.818t1.803.85q.897.431 1.788.879.89.447 1.773.91.882.462 1.757.94t1.741.97 1.724.998 1.707 1.029q.85.521 1.69 1.057t1.67 1.085q.831.55 1.653 1.115.821.564 1.633 1.142.812.577 1.613 1.17.802.591 1.594 1.196.791.605 1.572 1.224t1.552 1.25 1.53 1.277 1.508 1.302q.75.658 1.487 1.328 1.08.974 2.137 1.974t2.09 2.025q1.032 1.025 2.038 2.076 1.006 1.05 1.987 2.126.98 1.075 1.934 2.173.953 1.099 1.88 2.221.925 1.122 1.824 2.267.898 1.144 1.768 2.31t1.71 2.354 1.653 2.394 1.593 2.435 1.532 2.474 1.471 2.51 1.409 2.545 1.346 2.58 1.281 2.612 1.218 2.642 1.151 2.672q.56 1.343 1.086 2.7.526 1.356 1.019 2.725t.951 2.75.884 2.772.815 2.792.746 2.813q.355 1.41.676 2.83.321 1.419.607 2.845t.537 2.86.465 2.872.395 2.882.325 2.892.252 2.898.181 2.904q.072 1.463.107 2.928t.035 2.93q-.001 1.465-.037 2.93-.037 1.464-.11 2.927-.072 1.464-.18 2.925t-.252 2.919-.324 2.912-.395 2.903-.465 2.893-.537 2.88-.608 2.867q-.32 1.429-.677 2.85-.356 1.421-.746 2.833-.391 1.412-.816 2.814-.426 1.402-.885 2.793-.46 1.392-.953 2.771-.494 1.38-1.02 2.746-.528 1.367-1.088 2.721t-1.154 2.693q-.593 1.34-1.22 2.665-.626 1.324-1.284 2.633t-1.348 2.601-1.412 2.567-1.475 2.532-1.536 2.495-1.596 2.457-1.656 2.417-1.716 2.375-1.773 2.333-1.829 2.289-1.885 2.243-1.94 2.196q-.735.811-1.486 1.608t-1.517 1.58-1.546 1.552-1.574 1.523-1.603 1.494-1.63 1.463-1.656 1.433-1.683 1.402-1.71 1.37q-.86.677-1.733 1.338t-1.759 1.306-1.782 1.273-1.806 1.24q-.909.611-1.829 1.206-.92.594-1.85 1.171-.931.578-1.873 1.137-.94.56-1.892 1.102-.952.543-1.913 1.067-.962.525-1.933 1.031-.97.507-1.951.996-.98.488-1.97.958-.989.47-1.987.922-.997.452-2.003.885t-2.02.847-2.035.81-2.05.772-2.064.734q-1.035.357-2.077.695t-2.09.657-2.101.617-2.113.579-2.123.538c-8.315 1.98-16.603 2.927-25.12 3.377m-70.49-23.372c3.507 2.975 9.862 6.52 14.022 8.643 1.457.663 2.862 1.452 4.316 2.132 3.794 1.773 7.769 3.408 11.77 4.657-.055-1.235-.009-2.466-.048-3.7q-.177-4.41-.47-8.814c.005-1.14-.146-6.588-.502-7.291-.85.095-13.123 11.458-15.066 13.016.564-3.026 2.825-16.576 2.495-18.869-.19-.247-.181-.305-.489-.41-1.194.6-2.31 1.501-3.413 2.26q-2.315 1.59-4.686 3.093c-2.485 1.726-5.27 3.916-7.929 5.283m120.519 8.79c-3.762-2.905-11.492-11.785-15.065-13.154q-.217 3.522-.37 7.048c-.111 2.017-.826 10.987-.069 12.441 1.46.49 13.593-5.389 15.504-6.334 4.521-2.676 9.594-4.838 13.614-8.293-1.7-1.862-5.272-4.376-7.408-6.136l-4.709-3.718c-.888-.701-1.783-1.542-2.78-2.076l-.198.083c-.8 2.034.877 17.357 1.48 20.14M123.59 11.323c-5.459.197-10.834.81-16.232 1.623 2.432 4.298 5.417 8.563 8.379 12.51 1.043 1.492 2.04 3.088 3.195 4.493.662-2.373 1.283-4.779 1.515-7.238.22-2.338.136-4.692.403-7.03 1.577.139 3.148.318 4.694.675.657-1.683 1.207-3.416 1.812-5.12-1.255.011-2.514 0-3.766.087m4.783-.09c.768 1.694 1.323 3.48 2.101 5.163 1.547-.228 3.1-.492 4.655-.655-.048 1.75-.155 3.54-.043 5.288.182 2.844.936 6.03 1.835 8.737 1.656-1.82 2.985-4.114 4.362-6.159 1.9-2.728 5.49-7.697 6.734-10.66-6.368-1.349-13.147-1.719-19.644-1.714m-22.035 1.921c-5.272 1.079-10.394 2.455-15.53 4.069q3.442 4.614 7.217 8.96c1.783 2.042 3.544 4.473 5.413 6.384.67-1.8 3.693-17.963 3.326-19.367-.183-.06-.228-.078-.426-.046m42.474-.106c.866 6.543 2.596 12.957 3.65 19.466 2.115-2.208 4.034-4.623 6.04-6.931 2.214-2.65 4.808-5.435 6.562-8.407-4.496-1.577-11.575-3.485-16.252-4.128m-21.159 3.161-1.416 3.897c-1.413.032-2.803.185-4.207.338 1.17.867 2.37 1.766 3.395 2.804-.367 1.343-.764 2.686-1.052 4.05a67 67 0 0 0 3.759-2.587c1.06.85 2.135 1.648 3.252 2.421-.379-1.325-.83-2.62-1.283-3.92.985-.983 2.02-1.945 2.936-2.993-1.312-.143-2.62-.208-3.94-.14-.341-1.238-.739-2.787-1.444-3.87M90.176 17.36c-5.203 2.027-10.18 4.193-15.171 6.698 2.146 2.383 4.892 4.39 7.27 6.554 2.445 2.236 4.968 4.374 7.434 6.584.236-1.725.264-3.492.35-5.23q.218-3.769.352-7.541c.071-2.05.31-4.224.209-6.265-.017-.35-.043-.516-.243-.797zm75.301.05c-.272 4.323.173 8.772.427 13.09.133 2.256.076 4.679.51 6.895 2.522-2.085 4.888-4.414 7.297-6.631 2.356-2.206 4.856-4.485 6.987-6.905-4.646-2.466-10.148-5.097-15.221-6.449m15.61 6.606c-.915 1.995-1.007 7.323-1.201 9.673l-.853 10.29q4.297-2.889 8.64-5.708c2.642-1.765 5.205-3.642 7.847-5.404-4.528-3.293-9.345-6.477-14.433-8.851m-106.38.228q-3.716 1.925-7.289 4.105t-6.984 4.605c2.752 1.438 5.313 3.321 7.888 5.053 2.88 1.951 5.74 3.947 8.69 5.791-.372-4.872-.97-9.697-1.495-14.552-.123-1.142-.215-4.08-.585-4.954zm51.887 6.064c-21.239.499-39.978 6.942-56.832 19.908-4.44 3.416-8.544 7.027-12.41 11.08q-.829.86-1.637 1.74-.808.879-1.595 1.779t-1.55 1.817-1.505 1.855-1.459 1.892-1.413 1.927q-.694.971-1.364 1.96t-1.317 1.994-1.267 2.025-1.217 2.056q-.596 1.035-1.166 2.084t-1.115 2.113-1.063 2.14-1.01 2.165-.956 2.189-.903 2.212-.848 2.233-.793 2.254q-.383 1.131-.738 2.272t-.682 2.29-.625 2.305-.569 2.32-.512 2.334-.454 2.345-.397 2.356-.339 2.365-.28 2.372q-.127 1.188-.223 2.379-.097 1.19-.164 2.383-.068 1.193-.106 2.387t-.047 2.388.011 2.389q.039 1.183.106 2.365.068 1.182.163 2.362.096 1.18.22 2.357t.277 2.351.333 2.344.39 2.335.446 2.325.502 2.314q.264 1.153.557 2.3t.613 2.287.668 2.271q.347 1.132.722 2.255t.776 2.236.83 2.217.883 2.197q.456 1.093.936 2.174.481 1.082.989 2.151.507 1.07 1.04 2.127.532 1.058 1.09 2.102t1.141 2.074 1.19 2.046 1.24 2.017q.632 1 1.288 1.986t1.335 1.955 1.383 1.922q.702.953 1.428 1.888.725.936 1.473 1.853.747.918 1.517 1.818.77.899 1.561 1.78.791.88 1.603 1.742.812.86 1.645 1.702.832.842 1.685 1.663.863.808 1.745 1.596.881.787 1.781 1.554t1.818 1.512q.917.746 1.852 1.47.935.723 1.886 1.425.952.701 1.92 1.38t1.952 1.335 1.982 1.288 2.012 1.242 2.041 1.194q1.028.584 2.069 1.145 1.04.56 2.094 1.096t2.12 1.047 2.144.997 2.167.946 2.189.894 2.209.843 2.228.791 2.246.738 2.263.685 2.278.632 2.293.578 2.305.523q1.156.249 2.318.47 1.161.22 2.328.415 1.166.193 2.336.36 1.17.165 2.345.304 1.174.138 2.351.25 1.177.11 2.356.194 1.18.083 2.36.138 1.182.055 2.364.083t2.364.028c17.699-.284 35.928-4.945 50.924-14.564 6.404-4.107 12.482-9.41 17.757-14.867q.685-.699 1.356-1.411t1.328-1.438 1.299-1.464 1.27-1.49q.627-.75 1.239-1.514t1.209-1.54 1.178-1.563 1.146-1.586 1.114-1.609 1.082-1.631q.533-.82 1.05-1.652.516-.832 1.016-1.673t.982-1.693q.483-.851.948-1.712.466-.86.914-1.73t.88-1.75q.43-.878.844-1.765.412-.887.808-1.782.395-.896.773-1.799.377-.902.736-1.813.36-.91.7-1.827.342-.918.665-1.842.322-.924.626-1.854t.59-1.866.552-1.878.514-1.888.477-1.899q.229-.951.439-1.907t.4-1.916.362-1.923.324-1.93q.151-.968.284-1.937c.507-3.902.86-7.8.79-11.738-.136-7.634-.833-15.161-2.52-22.617-4.105-18.13-14.019-35.035-27.37-47.915q-1.77-1.738-3.621-3.388-1.852-1.651-3.78-3.211-1.929-1.56-3.93-3.027-2-1.466-4.07-2.834c-15.546-10.12-34.778-15.929-53.361-15.537zm-66.376 2.814q-1.927 1.348-3.785 2.79t-3.642 2.974-3.49 3.151-3.33 3.32c1.075 1.065 2.06 2.203 3.108 3.291l2.796-3.515c-.48-.618-.975-1.23-1.44-1.86.79.358 1.578.737 2.397 1.024l2.093.538c1.056 1.117 1.958 2.369 2.894 3.586 2.913 1.128 5.08 2.371 7.807 3.73q-1.884-7.022-3.905-14.005c-.328-1.15-1.011-4.126-1.503-5.025m135.505-.058c-1.26 2.13-2.061 7.034-2.633 9.567q-1.063 4.822-2.23 9.619c3.026-1.41 6.724-3.583 9.21-5.807.753-.673.987-1.628 1.76-2.202.544-.541 1.072-1.043 1.695-1.495.463 2.038 1.266 3.675 2.29 5.484 1.262-1.19 2.508-2.392 3.89-3.446-3.27-3.138-6.527-6.105-10.097-8.9-1.247-.978-2.507-2.036-3.886-2.82m15.036 12.56c-.793 1.38-1.651 2.63-2.698 3.83 1.878 1.105 3.372 1.994 5.648 1.834l.058-.002c-1.904 1.964-9.94 11.519-10.64 13.52l.046.306c.782.42 4.46-.62 5.479-.854q7.305-1.549 14.447-3.734c-2.767-4.073-5.798-7.742-9.1-11.388-1.061-1.17-2.101-2.424-3.24-3.511m-166.04.96c-4.402 4.425-8.63 9.341-12.124 14.518 1.604.48 3.282.757 4.924 1.083q4.515.907 9.06 1.653c2.096.35 4.242.777 6.372.818-2.011-3.205-4.666-6.193-7.147-9.041-1.036-1.19-2.18-2.343-3.105-3.618 2.417.04 2.799-.894 4.803-1.76-.55-.807-2.092-3.143-2.782-3.653m9.32.865a38 38 0 0 0-1.366 3.852c-1.433-.014-2.93.059-4.35-.143q1.553 1.435 3.178 2.789c-.569 1.505-1.242 2.97-1.791 4.481.817-.51 3.364-2.561 4.129-2.613l.216.117c1.255.832 2.502 1.663 3.711 2.562-.564-1.491-1.163-2.977-1.621-4.504 1.315-.928 2.621-1.877 3.954-2.779-1.624.043-3.249.127-4.873.16-.18-.68-.782-3.53-1.186-3.922m147.625.388c-.39 1.177-.792 2.353-1.153 3.539a31 31 0 0 1-4.67.181c1.189.876 2.64 1.694 3.69 2.72-.394 1.554-.962 3.035-1.585 4.51 1.428-.78 2.684-1.824 3.964-2.822 1.25.916 2.536 1.918 3.899 2.66-.586-1.444-1.256-2.905-1.709-4.393q1.794-1.45 3.62-2.858c-1.526.019-3.053.049-4.578-.003-.612-1.129-.868-2.44-1.478-3.534m21.755 13.29c-1.58 1.541-2.88 3.525-4.225 5.278-2.669 3.476-5.306 6.993-8.1 10.37 2.81-.182 5.624-.413 8.436-.55 3.237-.261 9.663-.22 12.456-1.245-1.56-3.016-6.403-11.828-8.567-13.853m-190.992.312c-2.163 3.145-4.213 6.293-6.12 9.603-.81 1.405-1.695 2.853-2.318 4.352 3.888.601 7.985.666 11.916.84 2.774.09 5.573.27 8.346.267-.268-.568-.553-1.1-.92-1.611-1.061-1.48-9.97-12.894-10.904-13.451M231.9 75.323c-1.412 1.383-13.547 14.052-13.746 14.674.91.54 5.938.388 7.157.397q6.558.368 13.126.352c-.917-3.294-4.526-12.833-6.376-15.363zm-208.055.422c-2.002 3.276-5.317 11.153-6.468 14.891 4.409-.023 8.836-.225 13.242-.402 1.192-.084 5.766.14 6.412-.537.122-.128.1-.26.12-.426-.552-1.317-11.57-12.526-13.306-13.526m-6.532 15.322q-2.477 7.558-4.018 15.36l13.86-1.594c1.377-.148 2.772-.258 4.132-.525.504-.437 1.01-.868 1.479-1.343-1.916-2.013-13.204-10.945-15.453-11.898m221.142.413c-1.575.9-15.044 10.71-15.101 11.294-.026.262.086.773.314.913.698.43 5.424 1.09 6.55 1.277 4.183.77 8.359 1.636 12.549 2.358-.388-2.154-3.147-14.966-4.189-15.778-.036-.029-.082-.043-.123-.064M13.252 106.796c-1.285 6.685-2.03 13.72-2.027 20.539 1.464-.851 3.011-1.554 4.537-2.286-.171-1.994-.141-4.02-.378-6.003q2.298 1.585 4.545 3.242c.18.096.252.195.461.138.481-.131.988-.486 1.427-.728 1.339-.739 2.74-1.526 4.25-1.836.276.136.843.509 1.115.42l.107-.173c.317-.51.522-.763 1.06-1.053.416-.224.961-.465 1.083-.972.088-.367-.102-.727-.324-1.005-.265-.333-.61-.598-.962-.833-2.079-1.392-4.326-2.624-6.449-3.968-2.835-1.794-5.599-3.714-8.445-5.482m229.578 1.572q-4.624 2.525-9.29 4.971c-2.108 1.081-4.338 2.078-6.37 3.28-.371.22-1.044.59-1.196 1.014-.013.035-.015.073-.022.11.803.696 8.063 4.367 8.803 4.274.294-.037.69-.306.953-.449 1.486-.685 2.724-1.713 4.173-2.424l.112 6.212q2.388.842 4.63 2.022c.004-1.55.024-3.106-.056-4.656-.087-1.692-.955-13.277-1.677-14.297-.016-.023-.04-.038-.06-.057m-6.656 14.23c-1.017 1.182-2.02 2.362-2.966 3.6-1.347-.39-2.726-.468-4.118-.55q1.366 1.549 2.678 3.144c-.977 1.638-1.972 3.232-2.661 5.018l1.897-1.283c1.03-.614 2.052-1.261 3.107-1.832q1.425 1.058 2.882 2.07a51 51 0 0 0-.656-3.519c1.105-.493 2.233-.925 3.341-1.409a23 23 0 0 0-3.418-1.013c.008-1.299.205-2.97-.086-4.225m-218.12.476c.251 1.177.593 2.302.964 3.444l-3.219 1.317 3.405 1.024c-.37 1.439-.474 2.91-.772 4.36 1.054-1.026 2.03-2.139 3.087-3.152 1.12.795 2.23 1.623 3.408 2.332-.377-1.123-.921-2.163-1.186-3.324q1.772-.893 3.602-1.66c-1.29-.212-2.593-.396-3.87-.674.262-1.233.45-2.46.593-3.712-.92.91-1.815 1.87-2.85 2.651-1.1-.809-1.997-1.9-3.162-2.606m226.542 5.541q-2.357 1.251-4.768 2.393c.358 2.22.454 4.47.8 6.691-1.916-1.093-3.712-2.428-5.534-3.67-2.76 1.345-6.582 2.445-8.983 4.221 1.2 1.002 2.608 1.836 3.945 2.64 2.963 1.763 5.857 3.625 8.802 5.415 1.299.79 2.706 1.451 3.95 2.32.797-5.238 1.368-10.424 1.653-15.717.073-1.355.291-2.944.135-4.292m-233.358.047c.17 6.428.486 13.663 1.909 19.913 2.103-.9 4.102-2.25 6.04-3.457 2.302-1.436 4.627-2.86 6.865-4.395.745-.496 3.017-1.76 3.355-2.507-.11-.423-.433-.638-.79-.858-1.739-1.072-5.651-2.454-7.747-3.332-1.866 1.182-3.592 2.561-5.446 3.759.263-2.267.461-4.523.483-6.806-1.495-.9-3.096-1.568-4.668-2.317m1.953 20.446c1.06 5.224 2.227 10.625 4.042 15.64 2.922-1.924 5.693-4.123 8.488-6.227 1.418-1.111 5.545-3.96 6.247-5.342-.09-.25-.098-.314-.351-.44-.836-.414-2.734-.615-3.702-.812-3.407-.694-6.817-1.395-10.234-2.037-1.489-.28-3.01-.461-4.49-.782m228.2.314c-3.164.414-6.31 1.04-9.453 1.583-2.113.365-4.361.61-6.423 1.194-.719.203-1.325.495-1.962.878l.105.118c1.859 2.04 4.384 3.754 6.543 5.483 2.478 1.985 4.937 4.195 7.612 5.891.157.1.267.224.38.368-.71.706-18.38.436-19.698 1.856.206 1.432 12.837 12.81 12.986 14.092-2.072.128-5.667-.444-7.886-.657-3.682-.488-7.525-1.325-11.229-1.337 1.752 3.103 3.847 6.045 5.861 8.983 1.627 2.373 3.27 4.944 5.15 7.122 2.696-3.497 4.938-7.325 7.019-11.212q.927-1.697 1.797-3.424.87-1.728 1.683-3.483.812-1.755 1.565-3.536.754-1.781 1.448-3.587.694-1.805 1.327-3.632t1.206-3.675 1.082-3.713.959-3.746c.278-1.168 1.284-4.472 1.117-5.411-.008-.043-.024-.084-.036-.126-.385-.137-.756-.068-1.153-.03M17.249 164.834q.644 1.96 1.36 3.894.714 1.934 1.5 3.842.784 1.907 1.638 3.784t1.776 3.722q.921 1.846 1.91 3.656t2.041 3.583 2.17 3.507 2.297 3.425c3.04-3.027 5.766-6.53 8.475-9.858 1.007-1.238 2.379-2.623 3.09-4.032-.081-.358-.072-.544-.343-.8-2.25-.104-4.572.115-6.825.185q-6.253.16-12.501.442C25.7 178.422 36.65 168.43 36.86 167.09l.079.027c-.398-.415-1.116-.545-1.667-.647-1.674-.308-3.443-.37-5.14-.517-4.28-.37-8.626-.571-12.884-1.12m187.483 25.963c.45 1.144 4.246 9.672 5 10.03l.595-.062c.157.326.1.559.075.91.485.792 3.369 2.685 4.26 3.31-1.843-.49-3.488-.783-5.362-.233.392 1.742 1.081 3.5 1.88 5.099l3.043-3.309c3.229-3.504 6.739-7.25 9.057-11.436-6.105-1.613-12.293-3.376-18.548-4.309m-153.41 1.007c-4.927.315-9.918 1.308-14.795 2.083-1.456.231-2.92.542-4.385.69 2.844 4.158 5.957 7.947 9.26 11.741a118 118 0 0 0 3.82 3.881c.648-1.557 1.243-3.215 2.02-4.711-1.43-.277-3.464-.565-4.638-1.495l-.075-.236c.376-.37.922-.36 1.43-.408.964-1.294 7.699-10.531 7.741-11.46-.245-.118-.119-.093-.379-.085m-.453 5.43c-.099 1.705.027 3.448.143 5.15q-2.102.89-4.226 1.726c1.245-.082 2.29.065 3.499.364a14.4 14.4 0 0 1-1.614 2.994c1.294-.9 2.62-1.734 3.96-2.561l2.714.895c.846.264 1.678.484 2.547.657-.711-1.248-1.627-2.383-2.485-3.533 1.037-1.221 2.03-2.511 2.734-3.958-1.493.608-2.999 1.198-4.477 1.842a24.7 24.7 0 0 0-2.795-3.576m154.964.375a90 90 0 0 0-3.292 2.96c-1.283-.754-2.553-1.536-3.938-2.093.606 1.338 1.303 2.694 1.803 4.072q-1.46 1.464-2.862 2.985c.685-.066 1.44-.075 2.111-.206.711-.107 1.422-.208 2.126-.353.564 1.095 1.14 2.177 1.86 3.179.359-1.205.608-2.433.869-3.661 1.17-.249 2.204-.509 3.28-1.048a54 54 0 0 1-2.824-1.613c.346-1.312.85-2.674.988-4.023zm-14.215 6.32c-.465.574-.48.802-.399 1.551.374 3.468 1.292 6.988 2.061 10.389.545 2.407.982 5.16 1.963 7.418 3.742-2.304 7.746-5.756 11.009-8.74q2.156-1.987 4.24-4.05c-1.395-1.117-2.928-2.338-4.482-3.214-.517.962-1.094 1.924-1.546 2.917.081.712.183 1.427.202 2.144-3.07-1.762-10.357-7.907-13.048-8.414m-127.462.303c-1.927.96-4.588 1.928-6.047 3.514-.544.59-.944 1.361-1.348 2.052l-.97-.425q-1.51 2.29-2.924 4.639c-1.12-1.847-1.962-3.777-2.621-5.832-1.396.951-2.808 1.885-4.186 2.86 1.24 1.252 2.485 2.537 3.825 3.682q2.38 2.203 4.904 4.24t5.179 3.9q1.897-5.413 3.67-10.867c.74-2.24 1.64-4.546 2.072-6.867-.502-.326-.992-.681-1.554-.895m39.316 19q-3.976 4.656-7.879 9.375c-1.534 1.862-3.574 3.917-4.575 6.104q2.993 1.05 6.044 1.911c3.28.868 6.58 1.674 9.931 2.218-.433-2.654-2.618-18.528-3.52-19.608m49.247-.056c-1.095 3.015-1.644 7.08-2.268 10.27-.583 2.981-1.508 6.405-1.613 9.42 3.372-.458 6.668-1.327 9.956-2.186l6.12-1.89q-4.118-5.843-8.615-11.398c-1.132-1.404-2.257-2.997-3.58-4.216m-14.828 2.532c-.677 1.94-2.855 7.296-2.87 8.993-.015 1.968.525 3.98.644 5.961-1.757-.177-3.53-.321-5.278-.571a115 115 0 0 1-1.764 4.721q4.475-.183 8.945-.454c3.593-.364 7.326-.639 10.85-1.424-1.113-3.256-5.088-8.704-7.103-11.874-1.115-1.754-2.143-3.726-3.424-5.352m-20.082.226c-1.768 2.589-3.369 5.29-5.069 7.923-1.913 2.964-3.926 5.872-5.59 8.987 3.685.715 7.332 1.165 11.07 1.498q4.488.332 8.988.43c-.511-1.554-.983-3.17-1.707-4.641-1.652.234-3.315.383-4.976.546.168-2.031.679-5.04.362-6.992-.227-1.405-.77-2.81-1.213-4.157-.366-1.113-.699-2.32-1.465-3.232a1.5 1.5 0 0 0-.4-.362m10.368 3.65-.8 2.364c-1.166-.174-2.302-.55-3.433-.877.512 1.067 1.047 2.126 1.786 3.057-.808 1.034-1.53 2.1-2.246 3.197q1.692-.359 3.416-.507c.325.843.64 2.11 1.144 2.828q.578-1.565 1.206-3.11c.97.297 1.942.523 2.935.732-.49-1.133-1.153-1.976-1.95-2.91.64-1.128 1.356-2.207 2.005-3.327-1.051.263-2.107.515-3.146.82-.21-.576-.51-1.869-.917-2.268"/><path d="M131.152 224.234q-3.18.083-6.357-.042-3.178-.124-6.34-.456-3.163-.331-6.298-.869-3.134-.537-6.227-1.278c-14.647-3.472-31.03-11.231-42.21-21.417q-4.42-3.952-8.374-8.37-.678-.769-1.341-1.552t-1.308-1.58-1.275-1.607-1.241-1.633-1.206-1.66-1.172-1.684-1.135-1.708-1.1-1.732-1.062-1.754-1.026-1.776-.989-1.798q-.484-.904-.95-1.818t-.912-1.837q-.447-.924-.874-1.856-.427-.933-.834-1.874t-.794-1.891-.756-1.908-.714-1.923-.674-1.937-.633-1.951q-.307-.98-.593-1.964-.286-.985-.55-1.976-.266-.991-.51-1.987t-.468-1.997q-.223-1.002-.425-2.007t-.383-2.016q-.181-1.009-.341-2.022-.16-1.014-.299-2.03t-.255-2.035-.213-2.04q-.096-1.022-.17-2.044-.075-1.024-.128-2.048c-.296-6.526.088-13.364 1.238-19.797 3.153-17.65 12.19-35.454 24.288-48.644 17.817-19.425 41.345-30.997 67.773-32.162q.08-.008.16-.012c6.29-.324 12.775.221 18.972 1.304 18.734 3.275 35.236 11.695 49.207 24.535q.886.804 1.751 1.63.866.826 1.71 1.674.845.847 1.669 1.715.823.868 1.625 1.756.801.888 1.58 1.796.78.908 1.536 1.835.757.926 1.49 1.872.733.945 1.443 1.908.71.964 1.395 1.944t1.346 1.978 1.297 2.011 1.246 2.042 1.195 2.073 1.144 2.102q.558 1.058 1.09 2.13.533 1.07 1.038 2.155.506 1.085.984 2.181t.93 2.205q.45 1.108.873 2.227.424 1.12.82 2.248.394 1.13.762 2.268.367 1.139.706 2.286t.649 2.303.591 2.319.534 2.332.476 2.345.417 2.356.359 2.365.3 2.374.24 2.38.181 2.386q.077 1.194.123 2.39c1.043 25.947-8.852 49.765-26.358 68.72-4.904 5.31-10.389 10.411-16.334 14.538-14.543 10.093-32.73 15.299-50.31 16.009M68.447 74.221c2.776.444 8.103 3.629 10.78 4.993q6.97-3.065 14.143-5.619c3.28 2.056 6.158 4.634 9.327 6.841 3.721-2.948 6.603-3.815 11.06-5.23.644.232 1.158.449 1.813.158 1.718.265 3.47 1.077 5.099 1.687 3.711 1.39 7.377 2.888 11.066 4.333a19 19 0 0 0 2.104-1.064c2.745-7.521 6.105-14.832 9.322-22.161 1.129-2.57 2.67-6.822 4.155-9.05-.999 3.977-2.831 7.904-4.331 11.722q-3.675 9.461-7.5 18.863c2.765-.948 5.508-2.162 8.176-3.355 1.542-.69 3.221-1.65 4.867-2.012.458-.1.889-.03 1.343.051q4.558-4.02 8.98-8.19c1.732-1.605 3.441-3.354 5.331-4.769-1.493 2.408-5.324 5.926-7.44 8.104-1.719 1.77-3.412 3.758-5.3 5.338 2.73 1.169 5.328 2.601 7.906 4.071 1.172.668 2.333 1.438 3.544 2.021 2.12-.816 8.78-3.926 10.466-4.002 1.047-.048 2.211.365 3.225.623 1.442-.825 2.96-1.822 4.507-2.427.556-.218 1.103-.127 1.684-.404 3.446-1.647 6.767-3.665 10.383-4.94-2.28 1.93-5.341 3.036-7.954 4.438-2.444 1.31-4.844 2.902-7.401 3.974 3.67 2.509 7.265 5.111 10.966 7.578 1.527 1.017 3.07 2.198 4.728 2.987.8-.432 1.72-.608 2.286-.926 3.012-1.692 2.848-2.716 6.733-2.828.875-.025 1.88-.1 2.723.158.973.299 1.877 1.07 2.69 1.66 2.887 2.087 5.673 4.155 7.295 7.429q.11.222.216.446c-1.684-.587-7.042-4.045-7.877-4.078-.07-.003-.137-.02-.205-.031-.886-1.243-1.74-2.516-2.85-3.574-.687.09-1.381.162-2.058.309-.728.888-1.449 1.847-1.976 2.87l.146.082c.84.47 1.757.898 2.671 1.2 1.097.364 4.438.824 5.07 1.645-.258.297-1.942.337-2.467.56-.547.23-.548 1.156-1.036 1.506-.245-.209-.302-.414-.413-.707-.752-.575-2.481-.975-3.426-.955-.176.144-.167.205-.408.18-1.238-.132-2.42-1.582-3.674-1.398l-.104.155c.41 1.768 2.775 3.052 4.062 4.183 1.554 1.366 2.859 2.816 4.664 3.888q.149.087.302.167c1.981.739 4.089 1.327 6.115 1.944 1.102.336 2.322.577 3.333 1.143l.013.145c-1.253.137-4.425-.908-5.076-.726-.046.013-.234.225-.245.243-.273.454.164.739-.14 1.052-.703.092-1.372-.494-1.911-.882-.976.033-1.909.178-2.87.347-.18-.461-.35-.947-.84-1.164-.913-.405-1.757.806-2.806.462.036-.422.387-.411.28-.841-.65-.416-1.551-.489-2.306-.56-2.615 1.146-6.595 3.943-8.77 5.781q9.638 1.17 19.222 2.73c3.631.554 7.259 1.175 10.91 1.587-4.499-25.342-19.36-47.332-40.377-62.001q-.935-.651-1.885-1.279t-1.917-1.231q-.965-.604-1.946-1.184-.98-.58-1.974-1.136t-2.002-1.086-2.028-1.037-2.053-.987-2.076-.936-2.1-.884-2.12-.833-2.14-.78-2.158-.727-2.175-.674q-1.093-.324-2.192-.62-1.1-.297-2.207-.566-1.106-.27-2.22-.511-1.112-.242-2.23-.457-1.12-.215-2.243-.402t-2.251-.346-2.26-.29q-1.13-.132-2.265-.236-1.134-.103-2.27-.179-1.137-.075-2.275-.123t-2.276-.067-2.278-.011-2.278.044q-1.138.037-2.275.102-1.137.064-2.273.156-1.135.093-2.267.213-1.133.12-2.262.269-1.13.148-2.254.324-1.126.176-2.246.38C92.71 38.17 76.253 47.26 62.87 59.999q-1.774 1.662-3.459 3.413-1.684 1.752-3.276 3.588t-3.085 3.754-2.885 3.91c-1.639 2.362-3.233 4.722-4.66 7.22-1.256 2.194-2.345 4.49-3.695 6.63 1.195-.65 2.48-1.226 3.87-.844.639.177 1.605.972 2.218.848.314-.336.328-.715.419-1.157 3.39-2.003 7.063-3.6 10.606-5.323 1.717-.835 3.506-1.923 5.297-2.558 2.025 1.647 4.126 3.192 6.177 4.805 2.586-1.053 4.782-3.102 7.276-4.407-1.785-1.063-8.075-4.55-9.226-5.657m1.108 28.578-.095-.038c-.95-.386-1.811-.965-2.778-1.315-2.246-.815-4.55-1.322-6.77-2.248-1.961-.817-3.655-2.205-5.595-3.07-1.66-.741-3.324-.522-5.04-.884-.914-.193-1.62-.82-2.48-1.125-2.152-.762-4.906-.367-7.12-.079-.225 1.106-.854 2.12-1.302 3.15.641.067 1.395.082 2.006.28 1.079.351 1.964 1.15 2.986 1.618.93.426 1.916.623 2.843 1.084.283.141.679.315.891.552.132.147.125.155.196.308l-.12.248c-.965.273-4.223-.769-5.248-1.12-.576-.197-1.474-.67-2.04-.681l-.016.1c1.458 1.896 7.764 2.413 8.022 4.098-.42.285-1.903.147-2.468.18q2.395 1.35 4.94 2.392c1.352.563 2.75 1.047 4.031 1.764-7.953-1.289-10.788-2.927-16.99-7.884-1.236 4.205-2.447 8.348-3.226 12.67q20.84-2.882 41.724-5.441 4.626-.576 9.26-1.08c1.908-.205 4.367-.186 6.16-.826.23-.31.025-.54.14-.843.291-.761 1.379-1.153 1.27-2.097-.092-.795-.862-1.46-.416-2.231.664-.449 2.05-.634 2.853-.508.433.068.711.233.965.583.014.346-.14.516-.333.78.124.48.35.863.595 1.291-.038.736-.07 1.472-.134 2.206q1.829-.042 3.654-.16l.092-.162c.203-.362.438-.755.527-1.163.206-.944-.04-2.885 1.095-3.303.662-.245 1.534.086 2.104.425.253.151.462.293.622.546-.078.255-.263.565-.316.81-.116.531.643 1.94.702 2.623l.05.536 52.594.181c.431-.505.95-1.03.915-1.746-.046-.909-.727-1.87-.24-2.693.593-.38 1.713-.541 2.39-.35.593.168.843.596 1.185 1.07-.485 1.005-.603 2.25-.202 3.329.015.04.038.079.056.119.204.013.288.05.473-.046.404-.21.666-.36 1.13-.218.414.127.971.428 1.395.371l.05-.106c.233-.465.459-.57.9-.806.263-.14.521-.287.782-.428-.083-.907-.3-2.249.307-3.026.216-.278.598-.45.949-.43.768.04 1.721.577 2.294 1.07l.11.273c-.337.624-.892 1.446-.725 2.19.085.379.387.51.691.69.491.293.607.816 1.016 1.112.674.488 17.19 1.909 19.499 2.273 1.778-2.128 3.415-5.136 5.143-7.022.194-1.41.44-2.8.709-4.196-2.174-1.518-4.264-3.036-6.556-4.383-3.273-2.053-4.915-5.178-7.766-7.642-1.934-1.671-4.263-2.464-6.311-3.9-1.409.605-2.89 1.126-4.186 1.952.605 1.786 1.591 2.694 2.226 4.172.16.372-.311.723-.186 1.217.377 1.481 1.879 3.91 2.646 5.354-3.1-2.344-5.88-5.035-9.317-6.922-1.361-.748-2.86-1.238-4.297-1.82q-2.512-1.038-4.899-2.341c-3.032-1.67-5.805-3.806-9.064-5.052-.206.39-.41.8-.684 1.147-.628.795-1.967 1.85-1.613 3.002.06.194.176.376.272.553.181.335.377.619.349 1.013-.764.953-4.123.087-3.944 1.947.157 1.627 3.565 4.903 4.854 5.957-.564.003-1.163-.054-1.687.178l-.054.163c.865 1.581 1.91 3.181 2.964 4.642-4.02-1.45-7.6-3.534-11.131-5.918-1.58-1.066-3.117-2.328-4.813-3.195-2.538-1.298-5.54-1.632-8.21-2.636-1.367-.515-2.416-1.641-3.728-2.255-2.75-1.285-5.767-1.943-8.594-3.019-.722.445-2.142 1.094-2.35 1.933.214.737.759 1.516.875 2.248.11.693-.368 1.156-.049 1.898.29.674.811 1.33 1.309 1.866.981 1.056 5.482 5.045 6.666 5.69 1.992 1.085 3.927 1.003 5.918 2.496-2.993-.876-6.111-.736-9.024-2.009-3.625-1.585-7.37-3.48-10.758-5.527-3.896-2.354-9.062-6.094-13.327-7.5-1.376-.453-4.466-.715-5.725.04-.349.209-.533.487-.614.889-.123.616.305 1.256.666 1.71q.096.12.195.237c-.773.59-1.561 1.14-2.373 1.675.406.47.816.99 1.325 1.353.794.566 3.453 1.498 3.52 2.453-.946.103-1.93-.05-2.88-.073-1.798-.044-3.568-.066-5.363-.21-2.46-.198-4.905-.532-7.368-.704l.126.108c1.002.88 1.632 2.047 2.414 3.11 1.61 2.188 4.398 3.494 6.782 4.649-2.58-.646-5.277-1.251-7.698-2.375-5.37-2.491-7.57-5.979-13.934-5.846-.666.013-1.677-.082-2.244.272-.04.025-.073.057-.11.085-.025.293-.067.44.147.683.452.514.857.363.992 1.151-.102.479-.404.743-.73 1.092a9.2 9.2 0 0 1-.143 2.573c.644 1.366.972 2.559 1.204 4.048 2.848 2.796 7.642 3.72 9.618 6.174m70.554 8.183c-.365.172-.51.204-.74.546.021.191-.013.26.143.4.374.336.996.4 1.478.35.398-.041.689-.198 1.016-.415l.218.087c.034.338-.124.6-.262.898l.047.173c.353.178.776.112 1.142-.008.43-.14.818-.296 1.273-.361-.034.045-.075.086-.103.135-.178.318-.42.71-.528 1.054.492.649 1.66-.198 2.181.176.056.478-.244.67-.198 1.115.782.5 1.997 1.29 2.938 1.333.232.01.467-.351.624-.517.332.011.275.043.493.266l-.096.219c-.362.182-.74.317-.964.671.151.732 1.89 1.68 2.53 2.123.04.292.114.645.277.898.166.258.345.479.646.532.208-.16.414-.294.642-.425.273.099.285.096.44.34l-.079.158c-.27.165-.459.252-.637.523.584.93 1.204 1.716 1.621 2.745.225-.484.596-1.22.578-1.755-.013-.383-.09-.652-.372-.913-.168-.155-.187-.164-.297-.386l.13-.233c.146-.063.363-.138.499-.232.244-.168.327-.31.346-.611.018-.276-.034-.632-.22-.83l-.643.014c-.305-.543.876-1.186.863-2.09-.358-.096-.809-.149-.95-.544a.95.95 0 0 1 .045-.754c.277.052.506.08.788.061l.153-.216a2.5 2.5 0 0 0-.062-.94c-.18-.049-.274-.062-.416-.186.243-.221.369-.248.412-.59l-.43.163c-.093-.048-.211-.1-.281-.181-.227-.26-.229-.459-.231-.776l.194-.143c.395.064.469.175.763.434l.138-.122c.135-.656.148-1.323.182-1.991-1.123-.586-2.93-.801-4.17-.397-.054.018-.097.063-.152.082-.369.134-.622-.119-.934-.294-4.106-.017-8.296-.28-12.39-.005-.379.025-.656.019-.973.255q-.098.076-.193.155c-.061-.05-.113-.112-.183-.148-.28-.146-.477-.065-.746.028l-.025.076c.86.105 1.499.691 2.16.717.79.031 1.14-.532 1.654-1.005.351.05.39.105.661.341m-20.211.388c-.224-.186-.567-.546-.821-.67-.276-.133-.857-.08-1.156-.08-1.145-.004-2.305.06-3.447-.001-.665-.036-1.502-.242-2.149-.18-.19.019-.328.112-.499.188-.777.345-1.814-.44-2.63-.226-.263.07-.537.38-.816.421-.7.102-2.256-1.25-3.148-.074-.127.882.092 1.832.301 2.688l.104.053.201-.227c.275.109.258.175.372.434.173.394.208.942.507 1.252l-.046.149c-.394-.177-.608-.649-1.017-.626-.234.486-.034 1.269.004 1.808.13.183.427.501.493.7.247.747-.475 2.065.005 2.85.29.477 1.142-.09 1.145.835-.458.147-.887-.384-1.19-.119-.069.586.018 1.51.373 2.005.126.175.121.14.266.266q.07.062.138.126a2.5 2.5 0 0 1-.278.434c-.197.26-.303.544-.239.875.081.416.664.655.812 1.188-.214-.03-.116.006-.294-.102l.044-.266-.393.01.026.045c-.022.033-.047.065-.065.1-.138.277-.114.603-.004.882.085.217.124.177.321.25.387-.118.66.09.934-.157a1.9 1.9 0 0 0-.255-.573c.263-.3.548-.32.745-.686l-.038-.256c-.33-.23-.686-.262-1.073-.328-.236-.206-.232-.193-.271-.503l.189-.228c.249-.014.255-.042.488.084.567.306 1.015.538 1.675.346l.147-.174c-.202-.433-.741-.809-.798-1.26.632-.49 1.787-.672 2.097-1.435-.205-.358-.443-.46-.838-.564-.2-.052-.401-.095-.602-.138l-.413-.15-.042-.181c.332-.282.766-.275 1.184-.242.43.034.862.249 1.252.426.452-.398.965-.78 1.286-1.296-.06-.227-.003-.218-.189-.315-.526-.273-1.596-.062-1.933-.549.157-.302.338-.415.607-.61.81-.008 1.572 1.44 2.616.254.039-.044.07-.094.106-.142l-.04-.132-.13-.008c-.435-.029-.974-.086-1.31-.395-.134-.123-.077-.124-.07-.347 1.168-.47 3.716.231 4.382-1.278-.108-.344-.192-.352-.495-.561-.737.105-1.5.265-2.244.252l.129-.064c.417-.217.65-.454.943-.81.343-.103.47-.159.823-.014.358.147.792.638 1.081.9l2.005-1.174c-.448-.165-1.009-.3-1.359-.633l.028-.202c.36-.146.69 0 1.035.144.413.174.639.372 1.092.257.431-.383.63-.988 1.132-1.224 1.242.427 2.809-1.123 3.998-1.056.232.012.549.19.758.29 1.329-.28 2.577-.36 3.911-.534-2.338-.477-4.741-.219-7.082-.642-.216.1-.554.318-.776.358-.611.111-1.197-.342-1.815-.076-.016.33.052.362.21.638m91.345 3.441c.23.382.442.565.867.704-.147.228-.164.261-.419.388-.392-.228-.561-.885-.73-1.291-2.437 1.296-1.17.173-2.48-.174l-.214.132c.625.873 1.81 1.347 2.685 1.92 1.105.725 2.413 1.767 3.183 2.842.62.865 1.913 2.47 2.881 2.898.382.733.728 1.495 1.291 2.108.374.098.5-.028.847-.18l.075.133c-.267.278-.456.498-.617.85-.006.341.05.48.226.77.288.175.285.198.614.147.224-.215.421-.469.744-.508.215.205.242.248.324.533-.22.246-.433.25-.743.338-.171.257-.17.418-.122.715.043.273.198.365.404.524.215.166.358.287.506.523l-.1.24c-.339.243-.647.297-1.045.377-.31.24-.521.44-.742.766-.048.37-.055.371.14.688.621.36 1.374.419 2.068.229.32-.088.524-.227.673-.538.25-.526.393-1.896-.032-2.375-.241-.272-.471-.073-.644-.505.224-.336.746-.567 1.09-.774.108-1.536.042-3.092.024-4.632-.49.24-.806.445-1.35.26l.016-.203c.345-.311.843-.291 1.286-.332-.1-1.815-.248-3.526-.703-5.296-.685-.03-1.984.237-2.15.217-.406-.05-.652-.552-.883-.861-.481.201-.942.471-1.403.715-.178-.21-.357-.441-.56-.628-.226-.208-.382-.277-.68-.256a2.8 2.8 0 0 1-.61.583c-.371.05-.543.028-.89-.114-.141-.218-.227-.396-.462-.523-.23-.126-.615-.059-.85.033-.216.085-.43.178-.649.261l-.014-.389c-.26-.264-.498-.244-.852-.315M94.807 100.196c.3.288.625.675 1.01.834-.14-.294-.218-.613-.55-.743-.108-.041-.342-.073-.46-.091m7.468 1.14c-.01.607-.12 1.918.226 2.4.261-.126.417-.294.62-.497l.25.006c.366.45.398 1.114.587 1.652.264-.151.359-.218.407-.553.108-.748-.581-1.962-1.096-2.485-.27-.275-.635-.405-.994-.523m-7.939.192c-.306 1.2.209 2.053.67 3.139.18.07.213.088.412.059.174-.842.444-1.778-.086-2.549-.196-.284-.667-.559-.995-.65m65.257.175c.005.662-.203 2.278.19 2.794.108.142.395.157.561.198.046-.943.163-1.797-.254-2.675-.172-.137-.291-.234-.498-.317m8.31.09c.047.639-.036 2.47.333 2.938l.188.037c.149-.811.422-1.686.168-2.493-.226-.265-.379-.347-.688-.482m-2.066 3.454.058.037zm-60.467.491c.03.359-.011.563.223.844 1.305.163 2.683.043 3.998.035l7.12.012q16.221.246 32.444.241c1.867.004 7.797.331 9.286-.091-.153-.366-.15-.563-.563-.697-.592-.192-4.38-.002-5.283-.007l-27.74-.078c-6.493-.042-12.992-.303-19.485-.259m62.221.078-.22.015c-1.225.082-7.596-.198-8.136.447-.158.188-.127.16-.165.376.123.309.401.487.693.629.32.155.732.11 1.08.106 1.787-.008 3.594-.066 5.377-.003.693.025 1.386.215 2.072.216.3 0 .51-.08.76-.234.22-.294.241-.75.199-1.108-.019-.153-.036-.346-.189-.422-.346-.172-1.083-.063-1.47-.022m-63.555.245c-.603.092-1.201.191-1.81.235-.028.639-.12 1.323.049 1.944.254.097.144.09.32.079.585.026 1.116.054 1.682.225-.045-.79-.017-1.691-.196-2.457zm-7.235.257c-.431.042-.86.027-1.128.427-.215.322-.136 1.287-.165 1.692l1.71-.055c.394.011.996.1 1.3-.191.308-.297.482-.69.467-1.122-.01-.276-.104-.456-.222-.696-.43-.272-1.444-.09-1.962-.055m73.253-.036c0 .409-.071.583.193.907 1.381.556 3.173.351 4.657.504q5.085.49 10.156 1.115 18.121 2.439 36.183 5.292c-.03-.326-.019-.674-.157-.973-1.257-.462-2.853-.525-4.178-.72l-7.91-1.157c-12.875-1.882-25.976-3.915-38.946-4.967m-76.207.144c-11.139 1.107-22.26 2.646-33.377 3.966q-7.55.901-15.09 1.89c-3.55.465-7.262.868-10.745 1.687-.419.098-.714.214-1.05.484-.264.211-.53.418-.791.633l1.501-.157c14.813-2.474 29.682-4.228 44.582-6.058l10.874-1.307c1.448-.17 2.924-.242 4.363-.461.325-.05.882-.108 1.087-.389-.136-.227-.16-.263-.415-.33-.289-.076-.647.004-.94.042m5.882-.055c-.14.669-.269 1.34-.444 2l2.18-.007c.206-.352.353-.983.239-1.379-.072-.246-.382-.445-.6-.547-.346-.162-.996-.078-1.376-.067m3.855 2.937c-2.678.058-5.42.023-8.061.506-.215 2.488-.31 4.97-.547 7.46-.047.499.235 1.078.213 1.166-.081.318-.464.691-.677.949l.06.175c.512 1.513-.605 1.89.182 3.466-.135.24-.2.287-.417.44a59 59 0 0 0-.289 2.895c.406.528 1.088.01 1.099.897-.225.292-.38.285-.75.335-.302.04-.355-.01-.584.211-.022.395.118.64.288.98.995.679 3.236.294 4.43.212.807-.038 1.511-.243 2.258-.54.039-.62-.02-1.273.489-1.717.224-.195.535-.336.838-.305.33.033.605.245.772.521q.056.093.108.188l-.09.164c-.509.105-1.245.158-1.538.648-.117.196-.114.383-.118.601.148.273.177.334.492.44.797.268 3.722-.488 4.874-.475-.245-.396-.479-.774-.565-1.239-.31-1.673-.305-3.463-.449-5.16l-.87-9.316c-.088-.939-.052-2.683-.517-3.47a2.3 2.3 0 0 0-.631-.032m62.527-.03c-.156.123-.371.374-.572.34-.227-.04-.375-.158-.562-.284-.327-.021-.468.004-.757.158l-.047.418c-.266.1-.42.087-.7.048a2.8 2.8 0 0 1-.183-.55c-.66-.133-1.35-.016-2.018-.013-.28 4.383-.27 8.77-.388 13.158-.028 1.021-.264 2.04-.28 3.041-.004.295-.008.526.14.79 1.195.855 3.7.49 5.093.296-.337.408-.636.87-1.132 1.084-1.022.047-3.598-.584-4.302.226-.21.24-.243.486-.266.79.185.376.337.527.738.668 1.146.403 2.416.235 3.597.132.382-.023.861.01 1.134-.3.736-.838.207-2.409 1.676-2.636.256.064.5.114.644.361.153.263.084.387.005.654-.529.325-1.316.602-1.532 1.217.182.287.35.349.68.431 1.144.285 2.646-.242 3.868-.176.151-.085.252-.094.311-.272a1.76 1.76 0 0 0-.069-1.209c-.568-.053-.875-.043-1.353-.397l-.07-.191c.175-.273.497-.424.813-.477.233-.04.488-.022.724-.012-.075-2.386-.37-4.765-.585-7.141l-.9-10.178c-1.236.045-2.47.105-3.707.025m-75.875 1.013c-1.45.217-4.168.407-5.318 1.154.016.417.37.382.358.797-.789.677-1.428.042-1.69 1.458-.27.069-.326.058-.598-.014-.183-.257-.227-.21-.18-.542.637-.54 1.45-.503 1.727-1.395-.06-.163-.036-.238-.215-.306-.59-.226-1.278.087-1.827.306-.167-.166-.083-.073-.25-.282-1.603.278-3.671.847-5.261.639-.35-.046-.848.04-1.145.23.198.159.401.304.609.449l-.046.139-.656.305-.067.2c.258.287.726.466 1.114.463.356-.002.24-.432.708-.364.399.434.77.876 1.129 1.343.212-.086.385-.18.577-.302.22-.14.338-.173.605-.16l.286.157-.092.193a3 3 0 0 0-.193.558c.229.367.441.42.82.572.402.163.813.319 1.2.516.052.5.236.925.614 1.276.125.117.26.228.44.216.338-.022.66-.279.942-.454l.188.037c-.121.363-.655.579-.455.907.73 1.196 2.651 1.988 3.134 3.28.254.68.672 1.901 1.26 2.337.265-.065.46-.281.571-.541.055-.127.047-.169.051-.29a4 4 0 0 0-.582-.4c-.023-.266-.022-.45.179-.657.434-.448.855-.497.888-1.218.009-.21-.006-.341-.128-.52l-.678-.292-.071-.224.138-.225q.355-.001.71.011c.334-.486.933-3.87.838-4.49-.03-.196-.047-.141-.244-.269l-.616.093-.095-.181c.323-.205.239-.028.476-.119.415-.16.925-1.213 1.04-1.618-.18-.182-.372-.285-.595-.408l-.08-.276c.243-.286.053-.137.349-.24.425-.147.676-.517.837-.923.123-.306.143-.607.01-.913-.254-.094-.453-.048-.716-.013m80.614.264.117.268.655.241.076.264c-.209.21-.447.217-.727.27-.178.358-.133.826-.01 1.198.121.362.33.695.522 1.023a3.3 3.3 0 0 1-.167.74c-.163.5-.194.957-.046 1.467.283.086.495.058.784.032l.127.2c-.067.187-.054.255-.22.371-.267.185-.551.343-.612.688-.049.279-.041.65.183.852.18.162.5.288.718.4l.138.249c-.361.54-1.03.214-.939 1.135.015.15.107.356.156.493l.163.072c.47-.218.998-.623 1.5-.67.137.24.125.269.061.532-.049.201-.174.33-.305.482-.282.139-.568.32-.891.222-.163-.05-.347-.162-.494-.24.162 1.632.55 1.672 1.579 2.858.258-.32.627-.657.695-1.06a2.7 2.7 0 0 0-.591-.469l-.025-.238.21-.153c.315.053.524.162.809-.001q-.019-.075-.036-.152a4 4 0 0 1-.075-.513l.246-.239a.9.9 0 0 1 .422.242c.502-.287 1.338-1.117 1.466-1.687.078-.341.016-.715-.026-1.056.319-.149.6-.112.941-.093.74-.338 1.076-.838 1.507-1.502a4.4 4.4 0 0 1 .842-.258c.388-.075.637-.28.938-.522q.015-.06.027-.12c.06-.408-.123-.63.124-.985.261.072.477.175.717.299.636-.227.728-1.107 1.34-1.248.407-.094.782.056 1.186.023.911-.074 3.983-1.022 4.683-1.494-.502-.054-1.161.207-1.653.333-.378-.291-.665-.504-1.128-.632l-.234.089c-.155.369-.173.545-.513.77l-.414.014-.196-.199c.012-.412.446-.517.269-.837-.325-.145-.532-.26-.89-.15-.251.078-.5.215-.736.33l-.48-.054-.084-.124c.126-.189.04-.094.285-.259-.649-.305-1.517-.336-2.223-.496-.216.373-.397.755-.745 1.021-.155.014-.28.05-.426-.012l-.043-.125c.194-.283.403-.522.638-.77l-.085-.091-.117.005c-.702.02-1.91-.39-2.492-.148q.04.063.078.128c.117.205.076.126.166.377-.195.153-.13.167-.349.14-1.226-.15-2.619-1.785-3.905-1.246l-.213.269c-.89-.242-1.324-.455-2.278-.254m-40.628.674c-.46.281-.79.496-.923 1.053-.082.348-.057.707.124 1.023.161.28.424.508.74.587.205.052.421.044.63.041.405-.15.743-.237 1.003-.606.154-.566-.134-1.232-.287-1.785-.419-.117-.855-.27-1.287-.313m3.33.157c-.457.114-.701.126-1.05.45-.172.493.041 1.116.143 1.617.59.13 1.18.28 1.776.379.232-.026.388.029.535-.173.206-.282.275-.674.226-1.018-.057-.4-.296-.878-.663-1.07-.264-.138-.673-.199-.967-.185m-6.748.504c-.335.088-.737.15-.917.483a1.15 1.15 0 0 0-.079.915c.118.392.568.925.953 1.071.274.104.633.093.925.103.421-.102.582-.074.856-.423.148-.722-.168-1.437-.233-2.16-.5.001-1.005-.011-1.505.01m9.365.093c-.193.526-.483 1.29-.215 1.834.243.492.702.646 1.195.754.299.066.589.106.893.125.448-.93.384-1.564.157-2.553-.682-.03-1.353-.06-2.03-.16m-62.687.416c.249.415.432.665.941.772.303.063.671-.043.97-.106-.117-.299-.34-.47-.626-.604-.42-.195-.846-.13-1.285-.062m51.244.104-1.676.64c.209.633.385 1.644.743 2.18.484-.127 1.156-.217 1.553-.525.186-.57.032-1.4-.25-1.924-.11-.203-.163-.29-.37-.37m67.305.019-.393.184c-.1.382.102.966.294 1.3.163.284.42.523.653.749.289.053.49-.031.764-.115.375-.144.524-.195.753-.546.048-.3.065-.5-.117-.766-.326-.478-.836-.73-1.396-.785a5 5 0 0 0-.558-.021m-125.164.137c-.782.138-1.24.203-1.791.818-.061.322-.102.408.117.687.17.218.542.368.792.45.406-.006.677.053 1.013-.221.336-.275.543-.843.516-1.263-.017-.265-.06-.267-.21-.466zm2.26-.011c-.493.171-.868.416-1.065.927-.119.309-.058.593.108.867.199.33.425.45.797.52q.35.06.704.09c.423-.267.83-.732.931-1.241.067-.335.036-.589-.175-.863q-.05-.064-.11-.117-.062-.053-.132-.094-.07-.04-.147-.067-.076-.026-.157-.037c-.24-.033-.512 0-.754.015m125.341-.042c.3.594.61 1.184.89 1.787l2.091-.02c-.126-.567-.172-1.099-.7-1.432-.605-.38-1.586-.304-2.281-.335m-131.621.411c-.342.152-.56.25-.794.559-.03.243-.077.218.047.393.188.267.588.501.916.54.313.037.677-.007.993-.023.317-.121.382-.132.583-.4a1.1 1.1 0 0 0-.336-.734c-.363-.361-.675-.393-1.167-.355zm135.244.013.352 1.402c.534.154 1.05.345 1.612.313l.17-.148.409-1.105a24 24 0 0 0-2.543-.462m-126.265.057c-.324.365-.723.866-.694 1.384.017.302.182.521.407.715.33.285.983.44 1.395.583.257-.561.763-1.36.533-1.982-.094-.254-.352-.408-.597-.49a4.4 4.4 0 0 0-1.044-.21m-11.514.16c-.328.211-.509.325-.66.706.036.354.04.473.329.723.293.254.658.214 1.016.199.384-.18.476-.199.714-.567.006-.333 0-.442-.236-.711-.299-.343-.747-.334-1.163-.35m128.982.017c-.41.193-.584.207-.802.615-.005.434.052.672.37.986.496.49.84.593 1.523.578.391-.127.56-.136.828-.459.047-.354.073-.566-.128-.881-.244-.38-.727-.752-1.177-.83-.201-.034-.411-.021-.614-.01m-67.76.197c-.516.22-1.208.43-1.442.993-.123.297-.16.59-.008.886.243.47.763.784 1.214 1.023.465-.157.915-.281 1.141-.764a1.42 1.42 0 0 0 .003-1.227c-.164-.344-.551-.777-.907-.911m17.804.008c-.09.641-.226 1.151.182 1.724.278.389.61.651 1.094.716.446.058.757.017 1.134-.242.218-.362.46-.675.457-1.114-.121-.341-.213-.491-.535-.674-.592-.335-1.654-.386-2.332-.41m-81.46.165c-.609.207-1.276.336-1.607.944-.11.205-.055.297-.025.515.296.366.617.618 1.066.772.75-.2 1.28-.313 1.657-1.053.155-.305.148-.475.082-.801a1 1 0 0 0-.743-.38c-.194-.015-.25-.007-.43.003m143.66-.058c-.217.348-.446.639-.454 1.064.14.3.217.455.546.57.34.12.759.193 1.12.223.21-.433.451-.832.441-1.325-.181-.286-.269-.38-.61-.45-.33-.067-.707-.062-1.043-.082m3.136.403c-.38.378-.684.685-.693 1.256-.006.412.08.862.394 1.156.266.248.531.208.865.225l.13-.07c.348-.489 1.03-1.227.933-1.859-.031-.203-.153-.308-.319-.422-.314-.216-.941-.242-1.31-.287m-17.617.126c-.529.209-1.078.4-1.589.651.255.585.48 1.136.898 1.629.098.037.204.096.31.099.534-.258 1.076-.505 1.585-.811-.25-.538-.453-1.057-.885-1.478zm-112.332.4c-.316.21-.64.418-.757.803-.084.272-.04.63.102.876.203.352.603.441.962.556l.19-.043c.323-.55.91-1.305.865-1.935-.356-.325-.907-.272-1.362-.257m-22.512.155-3.277.561c.298.238.504.426.704.754-.483.017-1.151-.399-1.58-.63-.708.07-1.422.104-2.102.321l-.183.412c-.395.093-.583.042-.926-.174q-.079-.052-.156-.106c-1.27.033-2.639.418-3.896.645q-2.617.451-5.247.826c-.577.084-2.244.138-2.649.465.016.51.295.753.65 1.087q.274.258.554.51c-.557.273-1.15.554-1.371 1.18.099.467.393.648.755.934.204.16.306.242.374.504l-.114.225q-.39-.02-.782-.031c-.152.302-.131.463-.105.79.173.289.356.54.566.804l.034.326c-.179.072-.32.116-.505.158-.127.633-.121 1.275-.243 1.908.185.328.442.692.532 1.055-.225.333-.437.544-.393.98.028.28.087.388.316.526.26-.055.522-.094.689-.327.076-.106.14-.262.195-.381.203-.043.162-.08.307.023.207.149.329.36.467.569.38.151.755.205 1.137.021.235-.113.448-.298.649-.461 1.19.02 2.954.739 4.04.09.113-.6.075-1.079.451-1.593.406-.554 1.201-1.426 1.22-2.13-.29-.029-.523.054-.8.13l-.159-.097.062-.344.218-.14c.336.085.45.171.767-.003 1.514-.83 2.903-3.711 4.301-4.948 1.178-1.043 2.47-2.13 3.764-3.02.57-.393 1.645-.783 2.034-1.348-.215-.107-.113-.099-.299-.071m2.053.341c-.38.248-.552.317-.763.727-.004.426-.006.772.302 1.112.205.226.432.34.706.46.275-.012.466-.056.722-.156l1.207-.616c-.233-.57-.432-1.15-1.045-1.399-.345-.14-.764-.14-1.129-.128m89.016-.023c-.332.35-.784.754-.79 1.275-.005.36.24.747.526.954.42.304 1.125.672 1.621.823.403-.686.833-1.367 1.205-2.07-.862-.499-1.54-.935-2.562-.982m-24.606.163c-.434.11-.939.166-1.225.537-.13.379-.19.655-.018 1.047.209.478.63.921.958 1.325l.298.1a10 10 0 0 0 1.525-1.09c-.308-.517-.92-1.707-1.493-1.912zm-41.425.107c-.412.478-.99 1.15-.912 1.843.039.345.144.416.383.633.32.072.657.196.978.093.41-.593.83-1.181 1.226-1.783-.553-.323-1.059-.592-1.675-.786m130.25.08c-.555.447-.99.766-1.095 1.507-.052.369.047.562.257.854.412.19.753.233 1.192.109.44-.479.876-.953 1.275-1.469-.509-.409-.984-.826-1.629-1.002m-23.588.171-1.466.524c.499.602 1.023 1.282 1.707 1.68.451-.213.912-.416 1.353-.65-.313-.547-.57-1.075-1.07-1.477-.182-.04-.336-.078-.524-.077m-55.887.325c-1.206.087-2.61-.067-3.774.202-3.1.715-6.973 4.285-9.02 6.648-1.805 2.084-3.197 4.08-4.457 6.541-.603 1.18-1.08 2.486-1.81 3.59.034 1.642.486 3.087.676 4.69.085.725.02 1.49-.01 2.219q1.808.476 3.607.991c2.364-.722 4.648-1.642 6.974-2.471 2.478.835 4.963 1.71 7.468 2.462.594-.196 1.214-.365 1.79-.605 1.856-.59 3.73-1.152 5.557-1.826 2.434.927 4.883 1.73 7.378 2.474 1.997-.408 3.893-1.183 5.9-1.534.26-1.328.686-2.466 1.233-3.697-.9-1.512-1.576-2.861-1.812-4.618l-.137-.124c-.404-.371-.63-.586-.786-1.127-.303-1.055-1.393-2.06-2.042-2.938-2.974-4.016-3.726-6.172-8.475-8.75-2.16-1.171-5.787-2.472-8.26-2.127m64.781-.064c-1.437.413-2.975.68-4.37 1.191-5.528 2.027-9.433 6.055-12.227 11.115-.863 1.565-1.45 3.276-1.975 4.98.797 1.237.671 1.953.43 3.35l.594 1.398c-.084.584-.34 1.558-.01 2.06.871.037 1.804-.661 2.784-.69 2.006-.061 4.237 1.142 6.202 1.582 1.946-.735 5.4-2.19 7.43-2.08 1.09.06 2.199.47 3.241.786 1.507.435 3.027.938 4.556 1.283 2.501-.747 5.018-1.467 7.492-2.299l5.466 1.72c-.343-.862-.652-1.558-.246-2.474.232-.523.62-1.014.95-1.482-1.06-5.702-4.738-9.997-8.824-13.907-.942-.902-1.886-1.952-2.962-2.692-1.413-.972-3.041-1.89-4.68-2.415-.661-.213-1.385-.308-2.03-.548-.59-.22-1.206-.892-1.821-.879m-130.8.134c-2.646.823-5.404 1.71-7.768 3.18-3.386 2.103-7.05 7.234-8.923 10.807-1.748 3.332-1.13 5.227-.785 8.765q3.433 1.03 6.822 2.196 3.666-1.228 7.289-2.576c2.58.644 5.31 1.499 7.779 2.48.128.031.252.086.384.095.705.045 6.255-2.208 7.528-2.559 1.721.586 6.231 2.385 7.794 2.483.267-.154.42-.199.496-.529.21-.909-.127-.982.623-1.814-.022-.874-.102-1.725.176-2.565.103-.31.191-.625.29-.935-.522-1.102-.88-2.26-1.442-3.345-1.877-3.625-6.414-9.776-9.707-12.043-1.458-1.004-3.17-1.64-4.829-2.23-1.553-.552-4.14-1.53-5.727-1.41m-10.001.442c-.344.213-.873.46-1.003.863-.119.368-.055.807.156 1.126.21.317.496.532.8.75.192.012.3.02.487-.032.426-.303.845-.595 1.225-.957-.341-.56-.815-1.529-1.49-1.72-.057-.016-.117-.02-.175-.03m129.14.297c-.479.394-.97.776-1.402 1.222.41.59 1.03 1.564 1.782 1.697.05.01.102.01.153.014.48-.272 1.02-.496 1.172-1.073.078-.293-.028-.56-.195-.803-.31-.45-1.024-.82-1.51-1.056m-101.581.065c-.561.557-.964 1.072-1.265 1.81.42.422.806.889 1.42 1.002.54-.48.976-.985 1.342-1.611-.425-.476-.871-.995-1.497-1.201m36.545.146c-.647.418-1.195.855-1.748 1.392.558.679 1.103 1.307 1.895 1.726.579-.287 1.027-.603 1.522-1.01-.465-.816-.894-1.541-1.669-2.108m30.19.255a5.2 5.2 0 0 0-.912 1.27l-.077.146-.045.088c.531.598.978 1.227 1.793 1.417.204-.05.396-.095.591-.175.418-.394.818-.778 1.177-1.228-.625-.734-1.178-1.434-2.211-1.505q-.158-.01-.315-.013m63.75-.034a10.3 10.3 0 0 0-1.47 1.478c.345.624.676 1.185 1.29 1.572l.214-.078c.521-.538 1.379-1.192 1.396-1.991-.162-.414-.436-.575-.826-.744a7 7 0 0 0-.603-.237m-160.684 1.292c-.424.287-.878.597-1.019 1.123-.079.298-.026.64.14.9.29.456.861.72 1.378.8.06.01.12.014.18.02.386-.305.909-.66.992-1.186.051-.32-.082-.59-.277-.831-.308-.381-.932-.682-1.394-.826m32.52.208c-.616.578-1.116 1.002-1.337 1.849.075.36.082.47.388.709.184.143.476.266.704.306.604-.592 1.2-1.078 1.337-1.955-.124-.377-.238-.563-.6-.746a1.6 1.6 0 0 0-.493-.163m96.645.143c-.398.267-.807.532-.858 1.06-.043.458.184 1.029.507 1.35.31.309.713.51 1.102.696l.181-.01c.403-.398.806-.784 1.153-1.234-.605-.798-1.183-1.39-2.085-1.862m33.668.418c-.649.496-1.138 1.035-1.635 1.681.314.454.59.906 1.034 1.245l.276-.02c.63-.519 1.659-1.236 1.77-2.12.037-.297-.09-.392-.266-.596-.429-.172-.713-.214-1.179-.19m-98.727.082c-.592.487-1.06 1.03-1.549 1.616.748.535 1.465 1.043 2.305 1.427.343-.053.681-.207.902-.488.2-.256.217-.532.135-.839-.202-.75-1.002-1.377-1.677-1.673q-.056-.024-.116-.043m36.075.271c-.623.411-1.178.825-1.693 1.371.466.688.98 1.26 1.616 1.797.62-.345 1.137-.614 1.32-1.346.088-.353.067-.651-.108-.98-.211-.394-.718-.728-1.135-.842M47.07 120.602c-.458.576-.84 1.126-1.105 1.82.671.62 1.243 1.037 2.168 1.153.423-.41.806-.811 1.168-1.279-.716-.581-1.44-1.217-2.232-1.694m36.87-.02c-.467.393-1.26.902-1.361 1.539-.033.205.038.378.149.55.167.258.594.502.857.66.571-.363 1.115-.803 1.268-1.504.07-.32.026-.598-.18-.86-.168-.211-.48-.346-.733-.386m92.594.634c-.45.382-.9.688-.95 1.322q-.005.065-.004.129.001.065.009.129t.022.127.034.124.046.12q.027.06.059.115t.07.109q.037.052.08.1c.393.452 1.004.684 1.577.797.376-.334.832-.656.865-1.203.025-.42-.145-.913-.467-1.19-.349-.298-.879-.654-1.34-.68m37.563.14c-.589.412-1.3.795-1.374 1.593-.031.347.048.66.283.923.193.216.431.406.725.435l.242-.09c.605-.45 1.158-.892 1.686-1.431-.215-.48-.451-1.213-.985-1.415-.187-.072-.385-.036-.577-.015m-102.777.384c-.477.482-.89.944-1.277 1.504a8.6 8.6 0 0 0 2.314 1.61c.413-.38.941-.791 1.026-1.383.049-.334-.07-.624-.277-.879-.372-.457-1.239-.717-1.786-.852m40.138.58c-.559.46-1.035.907-1.498 1.465.318.618.733 1.647 1.373 1.98l.11.007c.669-.564 1.336-1.047 1.371-2.008a1.11 1.11 0 0 0-.37-.882c-.286-.266-.599-.489-.986-.562m-65.648.195c-.514.576-1.293 1.31-1.276 2.144.007.346.26.701.517.921.139.12.162.124.302.203.562-.448 1.285-.897 1.324-1.692.028-.566-.522-1.17-.867-1.576m86.05.552c.035.521-.011 1.463.317 1.848.142-.09.243-.159.361-.279.236-.326.372-.395.331-.806-.266-.349-.64-.539-1.008-.763m-127.004.254c-.393.385-.785.755-1.12 1.193.442.582 1.22 1.681 1.971 1.788.151.022.133.004.264-.069.45-.52.864-1.034 1.25-1.604-.681-.428-1.584-1.147-2.364-1.308m130.055.246c-.577.622-1.08 1.244-1.02 2.143.025.364.183.641.452.885.262.237.759.444 1.11.452.476-.479 1.026-.945 1.021-1.676-.004-.503-.337-.861-.701-1.158-.276-.225-.558-.461-.862-.645m41.241.014c-.836.629-1.527 1.284-2.126 2.147.28.487.596 1.176 1.164 1.368.043.014.089.018.133.028a13 13 0 0 0 2.127-1.721c-.236-.559-.562-1.498-1.139-1.78-.05-.025-.106-.028-.159-.042m-106.945 1.084c-.274.481-.636.97-.488 1.55.097.38.35.786.704.977.29.157 1.024.395 1.352.32.051-.012.097-.037.146-.056.278-.47.582-.938.826-1.427-.745-.64-1.578-1.137-2.54-1.364m-21.522.435c-.683.42-1.333.813-1.519 1.651-.101.458.067.795.318 1.158.158.228.294.38.538.521.765-.48 1.281-1.047 1.512-1.948.078-.3.053-.53-.026-.83-.15-.189-.352-.46-.599-.53-.072-.02-.15-.014-.225-.022m65.985.128c-.611.455-1.221.895-1.765 1.43.245.682.458 1.481.883 2.074.755-.384 1.443-.657 1.702-1.548.127-.435.011-.782-.21-1.152-.158-.264-.355-.638-.61-.804m-110.37.345c-.49.576-1.28 1.478-1.134 2.286.06.328.26.532.536.698.424.255 1.176.243 1.662.261.397-.472.614-1.042.92-1.572-.625-.573-1.255-1.239-1.983-1.673m174.703 1.011c-.778.42-2.119 1.163-2.379 2.064-.07.241-.017.31.044.542.242.21.447.268.746.365.792-.266 1.886-.704 2.247-1.531.102-.235.1-.397.085-.646-.172-.342-.387-.63-.744-.794m-111.382.234c.011.376-.064.606.201.883l.278-.01c-.03-.278 0-.596-.263-.777-.065-.045-.144-.064-.216-.096m65.986.104c-.317.5-.476.985-.357 1.582.156.78 1.079 1.71 1.558 2.346l.138-.056.052-.199c.286-.732.588-1.461.817-2.214-.665-.69-1.26-1.196-2.208-1.459m-64.78.735c-.08.919.233 1.423.829 2.137.22.264.316.415.64.521l.167-.1c.223-.458.522-.923.298-1.44-.285-.66-1.307-.918-1.934-1.118m-19.024.18c-.46.607-.881 1.188-1.242 1.862.223.388.438.784.684 1.157.39-.67 1.083-1.6.891-2.416-.048-.208-.198-.444-.333-.603m65.444 1.256c-.415.35-.871.693-.918 1.276-.04.488.232.848.522 1.203.381-.194.506-.186.64-.63.154-.506.047-1.063-.034-1.572zm-112.586.445c-.469.092-.96.207-1.439.225-1.135.044-2.982-.474-3.728.61-.224.326-.31.606-.225 1.002.262.29.444.401.845.42.407.018.823.006 1.23-.011 1.576-.057 3.19-.047 4.76-.193.217-.643.415-1.302.668-1.931-.691-.066-1.418-.19-2.11-.123m62.726-.008c-1.005.2-1.989.463-2.978.727.067.527.145 1.055.175 1.585 1.142.282 2.132.456 3.313.384.817-.05 1.825.004 2.584-.296.224-.317.266-.723.208-1.102-.063-.399-.222-.63-.56-.846-.752-.478-1.875-.488-2.742-.452m-71.458.24c-.076.7-.222 1.367.106 2.025.4.253.717.258 1.175.158a1.3 1.3 0 0 0 .45-.18c.267-.147.539-.115.835-.111.255-.235.531-.573.586-.93.053-.338-.108-.431-.312-.67-.946-.374-1.852-.22-2.84-.292m65.47.292c-1.221.001-2.515-.062-3.477.839-.29.272-.377.498-.385.887.14.316.172.474.51.626.404.183 1.181.353 1.608.263 1.219-.074 2.963 0 3.855-.968.258-.279.259-.469.232-.818-.29-.447-.659-.689-1.189-.785a5 5 0 0 0-1.155-.044m71.093.114-1.519.139c-.086.602-.305 1.418.02 1.974.167.286.452.408.763.47.599.122 1.546-.084 2.149-.166.603-.084 1.215-.148 1.808-.282-.015-.56.064-1.277-.364-1.704-.612-.61-2.044-.48-2.857-.43m-5.326.118c-.416.218-.802.45-1.188.715-.831-.098-2.054-.367-2.78.203-.243.189-.248.276-.297.558.208.61.671.885 1.227 1.158.499.245.858.232 1.404.18l.245-.008c1.11-.028 2.535.55 3.45-.323a1.45 1.45 0 0 0 .446-1.169 1.36 1.36 0 0 0-.655-1.044c-.593-.376-1.185-.3-1.852-.27m-56.186 1.792c.01.342-.053.695.2.965.056.06.15.1.222.135-.058-.44-.054-.803-.422-1.1m-68.399.737q-1.584.072-3.17.058c-.361.58-.594 1.32-1.026 1.828-.17-.123-.131-.046-.16-.228-.088-.558-.063-1.065-.024-1.623-.7.014-1.406.006-2.103.065q.07 1.38.207 2.756l1.794-.227c.32-.093.538-.383.778-.286 1.423.573 4.777.463 6.18-.123.527-.22.893-.479 1.19-.966.042-.393.022-.661-.248-.972-.302-.348-.575-.39-1.019-.397-.798-.014-1.604.06-2.399.115m64.132.354c-.531.029-1.06.008-1.543.251-.199.242-.305.381-.265.71.055.447.227.922.347 1.359 1.33.009 2.52.101 3.842-.168.639-.174 1.141-.295 1.485-.903.09-.16.114-.312.133-.491-.138-.307-.211-.436-.529-.574-.87-.38-2.532-.278-3.47-.184m-5.052.123c-1.092.102-2.207.292-3.301.317-.433.393-.863.727-1.11 1.27-.001.316-.011.297.207.526.881.305 1.785.186 2.678.443 1.171.05 2.82.324 3.906-.146.243-.272.226-.269.23-.637-.31-.671-.902-1.365-1.608-1.648-.316-.127-.666-.121-1.002-.126m74.291.122-.146.033c-1.235.256-3.673-.312-4.54.727-.232.279-.37.909-.252 1.267.094.285.252.456.547.541.108.031.292.029.408.031 1.051-.004 3.811.273 4.573-.37a.83.83 0 0 0 .302-.746c-.042-.482-.414-1.229-.801-1.493zm-12.24.433c-.268.293-.488.487-.534.903.198.804 1.036 1.203 1.679 1.642 1.17.016 3.63.358 4.484-.433.422-.28.697-.475.956-.916.03-.303.053-.382-.183-.619-1.1-1.109-4.828-.213-6.402-.577m-53.186 2.04c-1.467.47-3.016.357-4.45.876l-.172.06-.103.038c.135.524.214 1.056.58 1.47.229.114.449.223.685.32 1.048.104 3.148.129 4.016-.537.263-.202.443-.44.47-.783.034-.414-.181-1.075-.504-1.34-.124-.103-.367-.125-.522-.105m-68.555.284c-.89.035-1.815-.036-2.548.543-.139.278-.226.444-.127.758.114.36.458 1.029.815 1.203.704.343 2.107.143 2.897.117.8.033 1.711.19 2.326-.455a1.38 1.38 0 0 0 .393-1.056c-.011-.252-.115-.755-.294-.941-.47-.485-2.768-.195-3.462-.17m-5.496.08c.043.848.173 1.652.332 2.485.712-.092 1.332-.014 2.037.084-.017-.742-.209-1.736-.777-2.25-.462-.418-1.016-.33-1.592-.319m137.984.144-.128.035c-.504.133-2.014.163-2.296.594-.176.27-.2.678-.121.988.079.315.199.54.496.696.579.304 1.488.143 2.121.104.72-.038 1.784.03 2.296-.58.244-.292.211-.449.187-.799-.309-.544-.645-.71-1.24-.88l-.184-.05-.16-.047c-.352-.096-.61-.097-.972-.061m-4.31.3c-1.232.725-6.239.102-6.67 1.126-.125.298-.118.748-.01 1.043.334.225.677.188 1.062.192 1.434.058 5.224.723 6.334-.286.223-.203.277-.42.258-.714-.035-.572-.551-1.048-.974-1.362m-66.935.09c-1.231.205-5.068.222-5.737 1.137-.209.285-.137.487-.087.803.461.47 1.597.551 2.249.558.22.002.44-.015.659-.037 1.197-.153 4.504-.166 5.293-.774.158-.307.21-.401.124-.76-.079-.335-.36-.652-.659-.797-.496-.24-1.299-.174-1.842-.13m7.818 2.465-.168.067c-.849.335-2.94.479-3.273.715-.074.515.098.805.405 1.21.234.31.45.619.657.946.885-.025 2.248.087 2.931-.597.217-.217.375-.473.371-.79-.005-.511-.34-1.058-.606-1.475-.252-.103-.143-.104-.317-.076m-67.93.422c-1.3.091-3.12.121-4.025 1.23a1 1 0 0 0-.244.488c.153.323.33.456.675.566.74.237 1.603.12 2.37.07q1.995-.046 3.989-.155c-.02-.636-.014-1.285-.09-1.917-.889-.132-1.774-.29-2.675-.282m132.094.01c-.749-.007-1.961-.164-2.49.518-.203.261-.167.38-.147.69.224.397.56.787 1.03.886.21.045.416.063.63.074.966.039 1.917.075 2.881.008-.12-.767-.262-1.482-.495-2.223zm-138.34-.004c.053.707.007 1.6.358 2.225.195.121.201.192.439.13.231-.061.408-.154.616-.267.176-.393.298-.677.303-1.11-.168-.382-.303-.586-.71-.73a7 7 0 0 0-1.006-.248m67.459.237c-2.03.255-4.032.506-6.07.694.668.798 1.575 1.724 2.687 1.786.299.016.605-.009.904-.028 1.669.007 3.417.13 5.053-.225.207-.49.56-1.099.351-1.633-.124-.317-.373-.482-.682-.594-.582-.212-1.618-.054-2.243 0m65.462-.028c-1.952.53-3.875.256-5.866.383.295.582.623 1.163.875 1.764l1.606.053c.913.002 4.626.227 5.205-.25.214-.176.292-.384.266-.659-.042-.455-.351-.885-.725-1.136-.406-.271-.902-.225-1.36-.155m-108.06.103c-2.326.91-4.65 1.858-7.067 2.504-2.429-.778-4.852-1.612-7.323-2.245.038.53-.032 2.67.223 2.984 2.162.92 4.48 1.45 6.681 2.272 2.43-1.014 4.917-1.868 7.397-2.751a65 65 0 0 0 8.007 2.725c.694-.281 1.392-.597 2.102-.83q2.647-.934 5.279-1.913c1.901 1.022 5.599 2.132 7.766 2.87l1.688-.926c-.754-.763-.733-1.108-.748-2.117-2.758-.879-5.584-1.848-8.396-2.526-2.473.754-4.834 1.972-7.348 2.569-2.604-1.081-5.517-1.982-8.26-2.616m61.219.12c-2.229.778-4.448 1.753-6.722 2.367-1.162-.369-2.309-.729-3.505-.977-.215.809-1.046 2.25-.718 2.984.7.603 2.439.678 3.36.9 2.365-.852 4.838-1.813 7.282-2.398 2.552.657 5.077 1.54 7.583 2.357 2.398-.81 4.749-1.787 7.147-2.583.737.298 1.471.619 2.227.864 1.855.577 3.708 1.197 5.6 1.643 1.84-.584 3.646-1.262 5.483-1.853a9 9 0 0 1 .348-2.736c-1.81.665-3.611 1.319-5.458 1.872q-3.652-1.313-7.37-2.421c-2.535.577-4.996 1.568-7.494 2.298-1.66-.554-6.375-2.387-7.763-2.316m71.468.154-.19.042c-2.692.614-5.67 2.411-8.44 1.724-1.65-.41-3.256-1.066-4.926-1.382-.872.332-1.755.648-2.6 1.041.042.636.007 1.391.268 1.976.217.135.276.2.543.146.428-.086.905-.386 1.298-.581l6.102 2.21c2.432-1.008 4.98-1.664 7.404-2.703 1.674.962 3.762 1.48 5.59 2.087.775.262 1.548.538 2.332.775 2.284-1.242 5.244-1.888 7.705-2.852 1.922.95 3.935 1.604 5.962 2.285-.228-1.223-.477-2.168-.263-3.426-1.519-.44-3.218-1.107-4.792-1.219-1.719-.122-5.996 1.392-7.808 2.003-1.45-.42-6.958-2.105-8.185-2.126m-148.33 2.644c-2.94.461-5.849.787-8.83.507.049.55.029 1.248.28 1.743l.216.072c.508.067 1.084.179 1.593.106.654-.093 6.395-1.976 6.778-2.202.104-.062.123-.095.192-.176zm128.86-.113c-.147.497-.2.983.076 1.456.227.389.739.637 1.17.7.338.048.703.037 1.045.041.118-.587.278-1.119-.028-1.67-.662-.48-1.499-.319-2.264-.527m-65.183.228c-.634.114-1.424.249-1.77.882-.168.309-.116.369-.004.677.488.396.963.309 1.554.288.497-.112.93-.217 1.225-.676.135-.211.17-.335.197-.577-.13-.303-.16-.429-.502-.548-.19-.065-.496-.047-.7-.046m63.548.017c-1.25.648-5.492.869-6.989.68-.573-.073-1.147-.275-1.697-.445-.213.484-.514.993-.487 1.532.17.297.21.287.532.42 1.535.01 3.06.114 4.593.146 1.436.03 2.876-.029 4.312.045.34-.599.71-1.154.557-1.874-.213-.295-.407-.403-.754-.504-.022-.006-.045 0-.067 0m-68.362.502c-1.698.122-5.017.29-6.508.93-.084.764.598.618-.014 1.605.445.356 1.486.254 2.07.262 1.422-.182 5.641-.499 6.574-1.464.219-.227.198-.354.175-.637-.245-.387-.51-.636-.976-.728-.414-.083-.902-.005-1.32.032m89.059 1.081q-3.591 1.359-7.216 2.625c-2.11-.896-4.365-1.477-6.52-2.261-4.676 2.385-10.315 1.934-15.425 2.311 2.943.88 5.896 1.882 8.79 2.911 1.839-.622 4.875-1.938 6.704-2.054 1.652-.105 5.802 1.446 7.658 1.935 1.62-.492 5.904-2.263 7.29-1.875 2.089.597 5.929 2.067 7.94 1.764 1.966-.295 4.58-1.344 6.643-1.877 2.39.88 4.903 1.449 7.32 2.26.993-.235 5.786-1.71 6.22-2.456.114-.195.062-.243.024-.446-1.307-1.088-5.487-.132-7.23-.594-2.224-.59-4.474-1.465-6.623-2.294l-7.545 2.752c-2.655-.867-5.46-1.618-8.03-2.7m-56.401.148q-3.649 1.052-7.182 2.446c-2.62-.815-5.237-1.68-7.876-2.437q-3.51 1.266-7.052 2.44l-6.073-1.58c-3.362 1.198-8.03 2.735-11.57 2.414-1.49-.136-2.98-.577-4.428-.933-1.087-.267-2.406-.417-3.409-.91a8 8 0 0 1-.735-.423c-1.29.5-2.574 1.046-3.875 1.516-2.636-.689-5.283-1.52-7.863-2.397-2.566.644-4.995 1.674-7.533 2.375-2.722-.756-5.394-1.666-8.125-2.396-2.396.725-4.74 1.617-7.133 2.34-1.953-.466-5.814-2.104-7.517-2.106-1.84-.002-5.228 1.46-7.1 2.1l-2.406-.495.858 3.886c2.55-1 5.13-2.199 7.773-2.918 1.693 1.067 5.954 2.208 8.023 2.901 2.441-1.092 5.035-1.979 7.589-2.766.651.358 1.365.56 2.07.787q2.635.946 5.313 1.765 3.775-1.353 7.589-2.594c2.51.932 5.076 1.748 7.633 2.539q3.407-1.347 6.862-2.563c2.748.91 5.579 1.665 8.283 2.69 2.258-.864 4.524-2.023 6.842-2.67 2.65.727 5.537 2.008 8.213 2.424 2.394-.845 4.841-1.635 7.182-2.615 2.585.878 5.163 1.806 7.78 2.584q3.533-1.354 7.137-2.506c2.558.804 5.1 1.736 7.695 2.415q3.279-1.257 6.585-2.439c2.674.89 5.508 1.66 8.108 2.728 1.773-.681 3.713-1.219 5.418-2.026q-4.35-.767-8.659-1.746c-1.739-.38-3.542-.688-5.2-1.346-1.885.484-3.681 1.156-5.496 1.85q-3.883-1.093-7.721-2.334m-15.561 4.858c-2.32.783-4.61 1.804-6.95 2.499-2.773-.74-5.497-1.631-8.26-2.4-2.222.817-4.496 1.825-6.782 2.43-2.687-.871-5.51-1.686-8.266-2.306q-3.508 1.203-7.036 2.346c-1.768-.514-6.34-2.248-7.85-2.181-.993.043-1.98.471-2.914.785-1.442.486-2.902 1.056-4.373 1.436-2.525-.851-5.157-1.58-7.727-2.293-2.46.785-4.904 1.704-7.393 2.38-2.754-.793-5.478-1.784-8.253-2.486-2.43.928-4.874 1.82-7.374 2.544.224.752.472 1.466.785 2.186 1.773-.778 3.567-1.467 5.371-2.166 2.504 1.081 5.203 1.837 7.813 2.618 2.583-.815 5.11-1.745 7.675-2.607 1.595.993 5.87 1.933 7.891 2.594 2.319-.85 4.771-1.567 7.007-2.607 2.677.877 5.357 1.797 8.059 2.592 2.599-.79 5.17-1.613 7.718-2.56 2.433 1.042 5.056 1.785 7.6 2.498a172 172 0 0 1 7.484-2.504l7.87 2.64c2.34-1.093 4.896-1.849 7.346-2.66 2.529.864 5.098 1.813 7.683 2.482 1.459-.844 5.037-1.792 6.82-2.472l2.953.895c1.542.52 3.104 1.006 4.632 1.563 2.242-.852 4.529-1.809 6.85-2.415 2.562.679 5.06 1.616 7.59 2.405 2.008-.596 4.4-1.669 6.37-2.016 2.109-.37 6.25 1.442 8.346 2.147 1.893-.661 4.634-1.891 6.577-2.088 1.688-.17 6.226 1.414 8.004 2.024 2.299-.767 4.617-1.506 6.875-2.386 2.006.68 6.311 2.395 8.286 2.235 2.065-.167 4.432-1.311 6.354-2.077 2.667.715 5.309 1.538 7.955 2.325 1.71-.583 3.417-1.193 5.152-1.694l.85-2.537c-1.641.537-3.28 1.11-4.955 1.529a55.5 55.5 0 0 0-7.93-2.367c-2.257.736-4.506 1.511-6.783 2.186-2.478-.843-5.663-1.717-8.24-2.237-2.106.735-4.2 1.548-6.328 2.212-2.06-.858-5.805-1.693-8.1-2.265-1.85.575-3.75 1.487-5.637 1.852-2.067.401-6.153-1.276-8.168-2.083-2.415.727-4.77 1.671-7.186 2.376-2.6-.764-5.193-1.746-7.806-2.426-1.724.618-4.79 2.03-6.485 2.235-1.353.164-6.29-1.596-7.947-2.105-2.318.747-4.535 1.77-6.864 2.484-2.76-.864-5.51-1.829-8.309-2.56m-61.663 4.743c-2.523 1.066-5.192 1.841-7.79 2.706-1.775-1.36-5.074-1.846-7.223-2.657-1.773.568-3.59 1.135-5.3 1.87.252.654.484 1.321.806 1.944.828-.344 1.63-.714 2.431-1.116 1.581 1 5.407 1.773 7.396 2.496 2.52-.91 5.16-1.532 7.654-2.468.925.416 2.02.6 2.996.889 1.62.479 3.233 1.084 4.88 1.452 2.528-.824 5.107-1.523 7.615-2.4 1.945 1.008 5.51 1.774 7.734 2.488 2.649-.918 5.271-1.755 7.986-2.458 2.353.817 4.728 1.565 7.088 2.363 2.563-.676 5.233-1.47 7.72-2.387 2.575.832 5.175 1.78 7.804 2.416q3.74-1.211 7.516-2.306c2.496.732 4.986 1.59 7.5 2.247q3.366-1.028 6.686-2.198c2.699.56 5.3 1.432 7.89 2.363 1.539-.826 5.578-2.11 7.412-2.593 2.501 1.154 5.293 1.747 7.927 2.536q3.268-1.224 6.612-2.224c2.493.722 4.95 1.528 7.42 2.32q3.737-1.103 7.444-2.3c2.291.884 4.729 1.51 7.082 2.221 2.566-.736 5.087-1.642 7.69-2.245 1.19.59 5.707 2.143 6.912 2.25.25.023.412-.032.646-.105l6.983-2.052q3.618 1.312 7.338 2.3c1.788-.532 3.517-1.242 5.322-1.717l.833-2.24c-1.492.318-2.898.812-4.36 1.226-2.533-1.047-5.253-1.575-7.854-2.421-2.214.866-4.433 1.742-6.728 2.369-2.312-.913-5.711-1.92-8.145-2.447q-3.385 1.346-6.872 2.4c-1.82-1.032-5.596-1.772-7.732-2.327-2.005.913-4.207 1.746-6.333 2.333-2.712-.821-5.407-1.768-8.145-2.492-1.885.74-4.837 2.098-6.841 2.127-1.548.023-6.042-1.623-7.82-2.118-2.256.8-4.605 1.775-6.933 2.304-2.398-.85-4.832-1.572-7.252-2.35-2.38.818-4.765 1.726-7.177 2.438-2.262-.986-5.238-1.834-7.661-2.306q-3.657 1.244-7.354 2.359c-2.487-.988-5.199-1.69-7.767-2.447-2.495.864-4.987 1.73-7.537 2.424-2.499-.857-5.003-1.716-7.553-2.407l-7.583 2.553c-2.494-1.11-5.283-1.789-7.896-2.585-2.542.892-5.103 1.865-7.686 2.63-1.708-.977-5.764-2.077-7.78-2.659m-2.32 4.778c-1.774 1.009-5.446 1.786-7.55 2.483-2.348-.842-4.703-1.766-7.13-2.356-.614.214-1.248.405-1.846.661.1.44.154.961.483 1.287 2.462.768 4.922 1.694 7.431 2.285 1.279.301 6.818-1.721 8.388-2.204a92 92 0 0 0 7.765 2.456q3.836-1.184 7.648-2.437c2.612.772 5.178 1.755 7.81 2.441 2.513-.82 5.056-1.8 7.64-2.359 2.636.802 5.314 1.729 8.005 2.307 2.439-.874 4.894-1.707 7.406-2.347 1.84.705 6.261 2.405 8.082 2.206 1.986-.218 5.063-1.56 7.131-2.14 1.916.678 5.967 2.344 7.819 2.157.863-.087 1.736-.452 2.55-.738 1.363-.477 2.722-1.008 4.117-1.383 2.541.846 5.127 1.825 7.748 2.38 2.442-.727 4.78-1.85 7.256-2.457 2.565.893 5.197 1.934 7.834 2.57 2.348-.623 4.682-1.483 6.964-2.315 2.06.606 6.679 2.318 8.599 2.102 1.092-.123 2.209-.578 3.248-.923 1.14-.377 2.298-.719 3.381-1.243 2.614.648 5.127 1.533 7.694 2.338 2.586-.78 5.146-1.59 7.752-2.309 2.44.74 4.919 1.432 7.308 2.316.748-.227 1.54-.422 2.263-.715 1.589-.528 3.178-1.096 4.794-1.537 2.367.477 5.662 1.904 7.885 1.954.66.014 1.34-.17 1.982-.315l1.088-2.773c-1.177.323-2.446.883-3.645 1.05-1.796.248-6.254-1.636-8.323-2.165-1.875.698-4.326 1.91-6.272 2.129-1.741.197-6.25-1.691-8.294-2.237-2.22.771-4.41 1.688-6.642 2.412-2.645-.657-5.2-1.653-7.85-2.273-2.157.725-4.308 1.645-6.492 2.255-2.793-.834-5.616-1.793-8.462-2.42-1.789.707-3.832 1.767-5.716 2.1-1.614.286-6.89-1.734-8.918-2.307-2.415.749-4.769 1.72-7.14 2.597-2.431-1.065-5.189-1.938-7.798-2.43-2.285.776-4.567 1.623-6.879 2.315-2.484-.863-4.971-1.782-7.533-2.388-2.472.83-4.952 1.762-7.47 2.438-2.552-.915-5.154-1.712-7.746-2.506-2.23.964-5.259 1.812-7.637 2.51-2.326-1.026-4.848-1.722-7.276-2.469-2.652.657-5.127 1.542-7.676 2.51-2.674-.798-5.405-1.981-8.156-2.433-2.425.89-4.993 1.715-7.496 2.354-2.184-.642-6.022-2.171-8.123-2.434m-.424 4.244c-2.555.69-5.074 1.52-7.598 2.313-2.322-.638-4.629-1.476-6.976-1.987.455.956.913 1.9 1.434 2.823 1.127.289 2.25.58 3.393.798 2.356-.894 4.793-1.56 7.14-2.466 2.651.693 5.279 1.738 7.868 2.643 2.551-.946 5.14-1.969 7.758-2.71 2.588.851 5.177 1.918 7.788 2.666 2.535-.821 5.007-1.822 7.555-2.6 1.678.8 5.716 2.176 7.547 2.612 1.791-.585 6.117-2.445 7.717-2.326 1.01.076 2.1.581 3.055.916 1.364.478 2.773 1.086 4.18 1.404 2.605-.689 5.094-1.747 7.714-2.395q3.6 1.255 7.24 2.392c2.472-.77 4.813-1.769 7.338-2.394 1.885.486 5.506 2.21 7.1 2.287 2.596.125 5.504-2.462 8.24-2.06 2.326.341 4.569 1.628 6.834 2.275 1.951-.686 3.932-1.661 5.954-2.086 2.539-.534 6.273 1.185 8.76 1.963 1.789-.484 6.212-2.125 7.66-2.171 1.74-.056 5.998 1.643 7.97 2.15 2.124-.623 4.524-1.784 6.573-2.233 1.89-.415 6.767 1.592 8.699 2.272.694-.215 1.39-.423 2.07-.678 1.493-.542 3.112-1.281 4.683-1.531 2.236-.355 6.399 1.426 8.552 2.188.974-.333 2.831-.861 3.405-1.793l-.115-.158c-.418.011-.744.098-1.14.227-2.478-.8-4.932-1.627-7.489-2.142-2.002.684-5.142 2.117-7.207 1.945-1.318-.11-2.707-.6-3.968-.99-1.006-.312-2.176-.867-3.23-.887-.993-.02-2.156.413-3.113.679-1.325.368-2.702 1.011-4.051 1.217-1.694.26-6.142-1.333-7.963-1.96-2.245.603-5.561 2.04-7.794 1.935-1.163-.055-2.339-.4-3.455-.704-1.26-.343-2.667-.952-3.97-.933-1.405.02-2.987.674-4.338 1.069-1.001.292-2.043.662-3.09.724-1.814.107-6.163-1.69-8.144-2.203-1.83.576-5.099 2.05-6.772 2.173-.886.066-1.913-.35-2.76-.604-1.445-.432-2.983-1.127-4.47-1.324-1.457-.191-6.399 1.507-7.93 2.095-1.897-.65-4.94-1.97-6.845-2.143-2.048-.188-5.947 1.616-8.135 2.103-2.519-.745-5.105-1.787-7.666-2.326l-7.422 2.254c-2.68-.554-5.287-1.564-7.92-2.304-2.353.757-4.721 1.484-7.036 2.352-2.675-.633-5.367-1.479-7.97-2.363-1.817.505-5.684 1.929-7.275 2.108-1.57.177-6.731-1.511-8.385-2.112m-11.642 6.518c.543 1.801 1.716 3.59 2.658 5.212q.886 1.546 1.83 3.057t1.945 2.985 2.055 2.91q1.055 1.436 2.163 2.832t2.268 2.748 2.37 2.66 2.467 2.57 2.563 2.475H191.52c3.537-3.295 6.783-6.727 9.825-10.486 3.808-4.759 8.526-11.414 10.967-16.991l-111.618.03-38.904-.04H49.847c-2.282 0-4.583-.06-6.862.038m27.7 30.203q-1.577.494-3.139 1.038c2.72 2.102 6.066 3.744 9.423 4.556 2.848-1.165 5.995-1.81 8.957-2.655 2.482 1.004 5.071 1.759 7.632 2.537 2.75-.808 5.487-1.76 8.245-2.518 2.334.97 4.782 1.746 7.21 2.449 2.65-.844 5.358-1.56 7.988-2.461 1.496 1.15 4.882 1.623 6.784 2.526 2.794-.852 5.6-1.856 8.428-2.58 2.39.96 4.92 1.521 7.299 2.48 2.609-.608 5.222-1.498 7.732-2.438 2.527.848 5.05 1.76 7.62 2.468 2.494-.771 4.987-1.529 7.434-2.444 2.447.84 4.954 1.536 7.383 2.423q2.526-.703 5.01-1.539c1.006-.334 2.024-.747 3.06-.971 1.11.289 5.13 1.87 5.836 1.667.942-.745 1.922-1.468 2.798-2.29-2.84-.107-5.477-1.443-8.23-2.066-2.412.76-4.749 1.746-7.168 2.48-2.642-.822-5.267-1.734-7.922-2.51-2.516.832-5.038 1.676-7.51 2.633-2.603-.819-5.175-1.723-7.789-2.506-2.47.645-4.797 1.803-7.262 2.442l-8.135-2.477c-2.32.721-4.844 1.516-7.036 2.56-2.528-1.094-5.385-1.832-8.059-2.516-2.326.823-4.693 1.786-7.09 2.37-2.595-.799-5.197-1.68-7.825-2.358-2.507.857-5.044 1.892-7.6 2.578-2.8-.824-5.519-1.91-8.32-2.722-2.47.796-4.888 1.838-7.368 2.573-1.562-.616-7.015-2.733-8.385-2.729m15.222 5.03q-2.631.803-5.28 1.542c-.923.266-1.854.611-2.795.794-1.064-.482-2.157-.853-3.262-1.229 1.156.836 2.354 1.577 3.572 2.317 1.773-.507 3.785-1.288 5.608-1.458 1.99-.186 6.169 1.462 8.214 2.133 2.759-.777 5.507-1.572 8.277-2.31 2.343.75 4.736 1.44 7.031 2.325 1.322-.556 2.72-.928 4.093-1.335 1.066-.315 2.181-.726 3.3-.766 1.825-.065 5.976 1.568 8.009 2.041 2.498-.982 5.205-1.383 7.661-2.385 2.71.816 5.413 1.684 8.15 2.4 1.08-.578 2.278-.889 3.441-1.252 1.087-.339 2.226-.785 3.365-.87 2.17-.162 6.359 1.599 8.64 2.194 1.608-.901 4.802-1.987 6.614-2.12.808-.06 1.61.08 2.387.295 2.067.573 4.153 1.227 6.185 1.913.661-.42 1.357-.693 2.102-.925 2.854-.93 4.85-1.981 7.833-.69a47 47 0 0 0 2.648-1.64c-.78-.272-1.625-.634-2.45-.711-2.768-.259-6.277 1.589-9.049 2.187-2.471-.817-4.941-1.711-7.486-2.274-2.586.756-5.156 1.633-7.755 2.336-2.292-1.031-5-1.665-7.407-2.407-2.677.852-5.424 1.798-8.17 2.388-2.132-1.122-4.962-1.836-7.296-2.472q-4.107 1.236-8.196 2.536c-2.396-.955-4.988-1.903-7.506-2.469-2.303 1.014-4.92 1.636-7.344 2.333-2.414-.818-4.891-1.615-7.351-2.282q-4.09 1.229-8.192 2.412c-2.497-.936-5.058-1.72-7.591-2.551M176.907 209c-2.177.769-4.303 1.665-6.49 2.408q-3.969-1.066-7.925-2.176c-2.439.6-4.873 1.454-7.255 2.255-2.106-.495-5.786-1.954-7.632-2.134-.629-.061-1.262.085-1.863.251-2.066.571-4.059 1.44-6.125 1.993-2.663-1.075-5.44-1.774-8.225-2.45-1.294.505-2.658.854-3.986 1.265-1.224.378-2.431.828-3.668 1.162-1.277-.612-2.7-.968-4.057-1.362-1.128-.326-2.343-.764-3.52-.839-1.743-.11-5.942 1.523-7.774 2.099-2.46-.863-5.021-1.49-7.533-2.188-2.637.8-5.274 1.674-7.945 2.349-1.743-.933-5.551-1.767-7.607-2.353-1.302.4-2.611.856-3.928 1.199l1.83.935c2.538 1.228 5.124 2.448 7.818 3.295 2.772-.621 5.371-1.648 8.086-2.434 2.616.77 5.183 1.774 7.83 2.423 2.023-.698 5.796-2.37 7.767-2.158 1.499.16 3.116.82 4.561 1.261.925.283 2.056.767 3.028.695 2.267-.167 5.091-1.69 7.37-2.283q3.978 1.139 7.907 2.434c1.934-.663 5.092-2.034 7.043-2.195 1.947-.161 6.162 1.536 8.165 2.198 2.256-.598 6.722-2.556 8.814-2.146 1.8.353 3.671 1.17 5.41 1.764 3.393-1.299 6.962-3.03 9.965-5.08l.064-.165zm-47.49 5.029c-2.37.86-4.74 1.8-7.157 2.515-2.612-.793-5.214-1.715-7.84-2.442-2.495.758-4.977 1.546-7.384 2.558-2.578-1.008-5.333-1.71-7.986-2.508-1.779.606-3.65 1.114-5.386 1.82 3.886 1.561 7.968 2.744 11.976 3.953 2.67-.969 5.4-1.757 8.071-2.714 2.413.882 4.966 1.933 7.462 2.544.771-.219 7.453-2.563 7.458-2.563.17.009.325.1.488.15 2.505.794 5.008 1.718 7.53 2.435 2.496-.78 5.107-1.598 7.477-2.705 2.357.963 4.807 1.662 7.156 2.644 4.592-1.226 9.324-2.571 13.736-4.341-1.166-.436-2.495-1.088-3.734-1.222-1.642-.178-6.689 1.917-8.472 2.55-1.618-1.092-5.863-2.109-7.904-2.62-2.414.824-4.822 1.688-7.264 2.424-2.273-.727-5.988-2.183-8.226-2.478m14.987 4.885a97 97 0 0 0-7.217 2.995c-2.737-1.103-5.734-2.292-8.626-2.882-2.418.873-4.795 1.898-7.212 2.752-2.49-1.1-5.076-1.909-7.659-2.757-1.768.481-3.509 1.05-5.254 1.61l2.162.51c3.52.676 9.023 1.788 12.553 1.497 1.58-.131 3.304-.63 4.83-1.08 1.607.468 3.352 1.118 5.02 1.223 3.325.21 12.501-1.302 15.813-2.401-1.419-.424-3.104-.776-4.41-1.467"/><path d="M126.9 78.88c-.365-.139-.711-.23-.97-.54-.156-1.395-.012-2.89.012-4.298q.054-3.64.063-7.28-.012-10.568.083-21.135c.023-2.472-.191-7.296.349-9.483.293.131.323.136.485.409-.098 3.608.216 7.218.278 10.827.058 3.418.225 30.997-.026 31.5zm21.363-31.684c-.095-.118-.196-.19-.201-.35-.03-.925 2.147-5.574 2.75-6.378l.111.164c-.122.946-2.081 5.986-2.66 6.564m-43.131.128-.38-.12c-.721-.694-2.414-5.387-2.619-6.507.138.091.25.17.35.31.439.62 2.689 5.764 2.648 6.317m10.137 27.319c-2.278-5.346-4.172-10.84-6.249-16.264-.81-2.118-2.81-6.537-3.15-8.517.104.041.17.06.264.134.756.597 10.17 23.29 10.574 25.023zM85.672 57.982c-.147-.026-.275-.042-.417-.097-.836-.328-3.965-4.38-4.316-5.276 1.005.616 4.362 4.291 4.733 5.373m80.773 1.118-.108-.199c.193-.682 4.121-4.361 4.892-5.047l.098.104c-.196.782-4.031 4.62-4.882 5.142m-63.027 19.64c-.126.139-.265.259-.405.385-.035-.01-.073-.013-.107-.026-.185-.073-.324-.206-.452-.354-.449-.515-.756-1.15-1.198-1.675-1.927-2.29-13.766-15.798-14.319-17.25.057.004.115.006.172.015.947.15 15.282 16.218 16.723 18.16-.03.352-.196.473-.414.745m-36.765-5.967c-.27-.018-.5-.038-.753-.14-.756-.3-2.73-1.283-3.048-2.005.11.008.236.012.346.038.77.187 3.007 1.455 3.455 2.106m1.794 1.448-.062-.064zm56.878 25.166c-2.632-.35-5.394-2.401-7.928-3.277-1.324-.458-2.768-.672-4.134-.999-3.947-.944-8.903-2.226-12.328-4.356 2.736.304 15.415 2.327 17.58 3.491 1.102.593 2.087 1.584 3.067 2.365 1.218.97 2.47 1.88 3.743 2.776m24.331-1.019c-.645-.164-1.302-.489-1.936-.713-2.736-.966-5.403-2.126-8.135-3.081-1.605-.561-3.402-.806-4.935-1.526.113-.011.226-.025.34-.031 5.353-.311 10.665 1.828 14.666 5.35m-102.46-.664c-2.207-.841-4.726-1.304-6.66-2.744l-.02-.159.953-.138c1.722.063 4.19.756 5.666 1.66.361.221.62.414.723.84-.152.369-.313.37-.662.541m22.359 5.097.068.058zm27.804 5.061.005.039-.105.115-.38-.052c-.26-.331-.238-.884-.274-1.297.31.051.466.046.717.243a1.8 1.8 0 0 0-.157.481c-.042.242.06.28.194.471m-8.999 3.382c-.196.296-.342.622-.662.788.059-.443.321-.835.534-1.222.43.173.848.317 1.05.76-.349.038-.626-.166-.923-.326m1.901-.205-.1-.047zm26.8.31c-.255.086-.267.148-.528.04l-.14-.549c.323-.014.416-.074.699.104zm28.901 1.101-.171-.058c-.217-.267-.465-.393-.756-.564-.441-.26-.516-.488-.638-.96.49.192 1.388.43 1.64.92.095.186-.029.463-.075.662m28.369-.512c-.248.05-.4.014-.643-.048-.315-.274-.376-.634-.488-1.018.407.007 1.024-.07 1.352.193.06.383-.061.525-.22.873m-67.883-.367c-.32.162-.394.221-.746.195-.136-.292-.11-.407-.09-.734.354-.021.673-.039 1.025.026l.063.17zm2.968.517c-.293-.103-.451-.135-.667-.373l.108-.247c.394-.22.778-.339 1.21-.463.244-.014.308-.007.548.08-.22.437-.8.731-1.2 1.003m12.048-.358c-.055-.103-.092-.229-.133-.338.451-.284.93.013 1.535-.319l.102.103c-.096.138-.14.214-.271.337-.425.397-.71.29-1.233.217m18.646-.746.153.134zm2.629 1.098-.298-.423c.043-.396.21-.455.494-.721l.249.16c.009.415-.225.638-.445.983m-29.578-.343a2.7 2.7 0 0 1-.534.384c-.47-.144-.7-.487-1.032-.836.356-.066.743-.09 1.105-.058.283.025.508.033.689.264zm2.593.64c-.315-.152-.604-.296-.886-.508.098-.317.416-.441.685-.628.256.102.27.18.432.393.063.341.108.496-.048.822zm4.145-1.006.21-.001zm28.603.147c-.198.017-.197-.032-.35-.145l.276-.107zm-34.55.142-.076-.039zm5.503 1.075c-.449-.239-.918-.273-1.348-.544-.076-.381.029-.435.223-.758.413.287.966.585 1.253 1zm29.798-.553c-.172-.143-.192-.174-.278-.367l.216-.112.254-.054.078.085zm3.049-.193a1.5 1.5 0 0 1-.536-.128l-.143-.361c.303-.027.385-.068.673.056zm1.679.636a1.4 1.4 0 0 1-.553-.187c-.134-.396-.035-.633.043-1.038.25.069.267.049.462.245q.012.49.048.98m-5.696-.111a1.7 1.7 0 0 1-.404-.277c.027-.322.148-.353.364-.58.14.036.247.102.374.172.006.32-.152.433-.334.685m-66.347.334c-.218-.06-.422-.141-.633-.22-.196-.282-.175-.334-.174-.683.109.041.291.105.386.166.303.198.324.412.421.737m69.712-.157-.26.014c-.32-.137-.436-.474-.591-.766l.59.082c.258.231.215.322.26.67m-64.055-.109c-.187.013-.417.047-.602.02-.369-.056-.397-.139-.596-.426.282-.045.55-.11.831-.028.212.06.26.257.367.434m19.654.875c-.202-.293-.341-.468-.332-.841.309-.3.776-.34 1.191-.447l.073.047c.052.255.058.486-.089.72-.219.35-.476.415-.843.52m70.256.047c-.274.035-.134.053-.414-.08.53-.684 1.132-.911 1.934-1.141l.178.133c-.062.367-.398.624-.674.87-.387.345-.541.27-1.024.218m-98.226-.342c-.335-.01-.538-.001-.834-.178.032-.354.203-.425.443-.668.312.026.477.061.743.228-.007.365-.111.363-.352.619m93.783-.033c-.336.058-.526.068-.868-.014-.308-.217-.402-.425-.552-.755.298-.037.63-.06.912.077.34.166.387.367.509.691m2.155.333c-.017 0-.035.006-.052.001-.263-.077-.304-.15-.448-.368-.007-.43.09-.471.345-.802.271.12.418.224.621.44-.044.388-.197.456-.466.729m-28.075.168a4.2 4.2 0 0 1-.78-.588c.097-.319.32-.366.596-.534.321.1.493.146.732.397-.074.363-.283.474-.548.725m35.105-.435c-.37.044-.693.071-1.063.03-.305-.264-.298-.365-.4-.744.219.003.428.019.642.063.43.088.597.295.82.651m-70.765.307a2.1 2.1 0 0 1-.867-.209c-.378-.17-.554-.234-.697-.622.335-.023.714-.077 1.047-.05.313.026.411.109.599.346zm2.589.197c-.215-.025-.445-.057-.643-.148-.295-.137-.392-.329-.492-.617l.147-.282c.13-.013.26-.029.39-.035.36-.017.593.026.863.267.002.4-.068.479-.265.815m30.355-1.045.168-.026zm7.936 1.484c-.194-.17-.335-.27-.433-.515-.08-.2-.049-.136.07-.36a8 8 0 0 0 1-.64q.01.007.018.019c.18.382-.182.984-.331 1.38zm-65.962-.462c-.361-.076-.625-.136-.934-.354-.08-.341-.018-.315.145-.604.382.044.63.07.952.306.062.34.015.349-.164.652m30.413.14c-.416.079-.718.185-1.117.026-.167-.353-.063-.694-.002-1.062.362.09.658.192.99.365.19.308.178.31.129.671m33.609-.219c-.382.097-.713.23-1.097.08-.174-.358-.118-.434-.046-.814.361 0 .752-.033 1.096.089.2.071.139.066.231.293zm-60.999-.031c-.154.178-.31.33-.481.491-.364.08-.427.108-.773-.016-.31-.39-.28-.463-.305-.942l.397.34c.203.063.266.055.48 0 .186-.049.338-.084.528-.104zm-8.661.601c-.18.047-.29.044-.473.036-.259-.263-.253-.394-.331-.748.256.021.485.065.737.114l.156.241zm92.695-.405-.093-.094.027-.005zm-85.866.805h-.39c-.262-.234-.24-.383-.31-.721a4 4 0 0 1 .754.062c.148.305.05.35-.054.66m22.102.036c-.333.112-.507.141-.853.079-.317-.28-.333-.376-.46-.764.397-.058.705-.11 1.101-.002.219.276.196.33.212.687m1.698 1.083c-.363-.102-.736-.157-1.002-.444.222-.322 1.037-.241 1.424-.496.04-.344.1-.607.222-.931.368.164.692.38.852.75-.17.222-.08.162-.321.27-.475.21-.758.34-1.094.748q-.042.052-.08.103m-29.6-.486c-.198-.145-.272-.225-.364-.452.26-.389.722-.541 1.134-.755.163.036.078-.006.21.191-.213.415-.634.707-.98 1.015m97.487-.161c-.305-.135-.583-.228-.788-.506l.042-.159c.208-.103.35-.16.585-.187.261-.03.521-.054.782-.087l.09-.016c.283.118.294.095.42.37-.24.34-.749.449-1.13.585m-94.442-.109c-.304-.046-.278.017-.485-.244.133-.344.272-.422.551-.655.192.07.29.128.452.244-.046.34-.27.434-.518.655m90.437.564a.85.85 0 0 1-.165-.555c.256-.43.804-.607 1.239-.817.073.084.104.21.145.314-.043.114-.068.191-.124.294-.23.414-.667.619-1.095.764m-24.382-.012c-.243-.285-.404-.403-.465-.777.189-.298.529-.374.843-.494.274.187.3.168.377.486-.148.357-.462.552-.756.785m22.334.15c-.064.061-.194.083-.278.11-.201-.185-.175-.248-.237-.504.103-.234.147-.277.37-.416.178-.11.302-.197.444-.352l.157-.175c.22.036.324.09.516.192l.005.194c-.296.364-.62.65-.977.952m-24.463-.733c-.382.14-.778.358-1.185.238-.2-.299-.177-.38-.182-.746.507-.037 1.032-.124 1.528.016l.055.206z"/><path d="m172.851 114.987-.238.001c-.513-.004-.69-.117-1.039-.47q.085-.006.172-.007c.536 0 .732.127 1.105.476m-64.551.768c-.327-.015-.475-.043-.747-.229-.204-.339-.15-.614-.117-.988.312.088.516.188.782.373.162.367.132.457.082.844m45.393-.407c-.302.086-.445.093-.75.013-.192-.317-.183-.419-.196-.795.144.009.205.01.36.037.352.065.507.108.715.394zm-70.833 1.18c-.173-.145-.285-.25-.395-.448.483-.373 1.054-.663 1.58-.973l.18.096.04.249c-.182.44-.666.574-.987.901-.163.167-.196.136-.418.175m3.899-.638c-.35.025-.635.073-.957-.096-.1-.334-.05-.385.065-.72.27 0 .488.03.75.095.216.303.172.342.141.72m90.977-.416c-.14.072-.042.03-.309.078l.004-.281c.08-.047.18-.05.27-.071zm-25.35 1.117a1.3 1.3 0 0 1-.688-.386c-.072-.368-.017-.428.133-.78.294.065.451.148.692.329.085.372-.004.488-.137.838m-64.639.558-.293-.297c-.06-.267-.124-.418.027-.672.195-.33.558-.46.892-.597l.17.086c.008.582-.443 1.049-.796 1.48m86.827-.266c-.25-.051-.36-.137-.568-.277-.136-.39-.104-.397.043-.79.253.049.446.127.678.239.12.372-.001.477-.153.828m3.222-.043c-.393.066-.552.058-.923-.085-.187-.279-.193-.284-.17-.618.393-.043.771-.128 1.145.032.138.325.079.337-.052.672m-92.688.328c-.338.044-.403.063-.71-.074-.154-.344-.082-.562 0-.91.348.03.667.028.966.228.058.366-.066.448-.257.756m131.436-.339c-.242.043-.258.074-.5-.02l-.026-.495c.25.033.336.045.558.18zm-172.691.458c-.447.048-.812.103-1.2-.162-.027-.337 0-.359.177-.653.531.053.915.136 1.327.501l-.01.162zm3.29.27c-.224-.15-.38-.3-.557-.504.048-.323.24-.41.471-.627.18.116.312.254.465.403-.002.389-.13.442-.379.728m170.036-.968-.176-.058zm-106.971.518c-.131.086-.263.178-.407.243-.267.121-.592.198-.87.072-.353-.16-.457-.475-.59-.808.484.03 1.427-.084 1.815.18zm41.016.393c-.21-.043-.369-.123-.561-.213-.137-.335-.085-.38.016-.735.319.032.48.055.738.25.04.346-.02.39-.194.698m62.609-.447-.4.09c-.368-.106-.359-.186-.57-.514l.525-.059c.315.134.294.17.446.483m3.346-.464.05.132zm-127.942 1.456c-.116-.176-.266-.372-.349-.565-.16-.375-.11-.438.03-.796l.317.273c.08.398.063.689.002 1.088m-49.202-.384a1.9 1.9 0 0 1-.672-.126c-.08-.349.053-.44.218-.74.284-.002.435.031.692.154.058.36-.047.413-.239.712m113.429.028a1.3 1.3 0 0 1-.617-.175c-.082-.31-.018-.402.083-.712.228.02.404.085.616.168.132.342.059.373-.082.72m22.169.091c-.24-.075-.427-.138-.64-.277-.207-.137-.157-.14-.195-.363l.239-.302c.332.03.533.024.806.236.038.348-.032.397-.21.706m42.719-.423c-.284.077-.6.459-.921.588-.198-.337-.11-.716-.078-1.088.412.125.801.11 1.2.208.262.064.3.08.418.313l-.184.14zm-45.043.536a2.7 2.7 0 0 1-.563-.09c-.178-.296-.121-.363-.07-.71l.515.175c.207.272.163.28.118.625m42.061.172c-.006.26.044.276-.141.477-.265-.128-.389-.25-.484-.54-.121-.37-.013-.588.126-.924.442.045.851.076 1.269.233l-.066.168c-.283.073-.489.13-.728.302zm-128.822.056-.486-.08c-.23-.28-.172-.387-.168-.74l.567.134c.197.299.145.326.087.686m-48.512.45a2.8 2.8 0 0 1-.726-.443c-.044-.37.016-.366.245-.67.256.101.398.227.596.414.064.338.025.38-.115.699m182.162-.448-.371-.05c-.105-.276.028-.402.142-.662.238.077.301.061.468.26zm-185.342.53c-.144-.12-.273-.253-.407-.384.03-.378.21-.454.474-.715.191.15.233.237.343.447-.072.38-.117.388-.41.651m11.092-.17a1.28 1.28 0 0 1-.953-.067c-.468-.215-.493-.421-.641-.869.383.175.583.215.991.209l.221-.005c.298.21.283.389.381.732m-4.082.009-.621.015c-.36-.186-.403-.291-.615-.624.26-.051.492-.037.756-.022.29.207.324.304.48.63m110.124.461c-.296-.103-.428-.148-.608-.41.093-.366.284-.477.552-.735.264.08.351.155.527.366-.076.392-.21.486-.471.779m-42.91.079c-.655.002-1.561.085-2.137-.284-.246-.158-.366-.433-.414-.708a2 2 0 0 1 .658-.007c.603.103 1.574.507 1.893 1m-23.675.011c-.236-.056-.396-.14-.61-.25-.142-.338-.102-.349.015-.703.26.067.454.17.686.305.102.328.058.331-.09.648m3.04-.346-.272.026-.044-.142.275-.383c.226.179.133.064.26.358zm85.963.452c-.28-.042-.304-.011-.53-.207l.011-.524.449.135c.189.268.116.287.07.596m44.159.494-.249-.05-.069-.145c.155-.397.567-.697.879-.982.032.02.07.034.097.062.221.227.248.343.262.639-.336.365-.453.358-.92.476M37.297 120.93c-.102-.116-.175-.247-.257-.378l.096-.246c.607-.341 1.145-.796 1.75-1.13a6 6 0 0 0 .861-.595l.209.087c.033.137.086.306.083.451-.008.319-.111.452-.345.643q-.37-.107-.733-.231a1.2 1.2 0 0 0-.376.405c-.096.167-.181.358-.295.512-.251.342-.605.393-.993.482m50.255-1.423c-.317-.047-.589-.089-.884-.222-.009-.335.17-.47.36-.736.306.046.478.044.704.274.037.336-.017.382-.18.684m128.657-.04c-.171-.022-.073.002-.308-.12-.255-.134-.179-.038-.257-.288.204-.37.318-.339.706-.47.196-.005.349.014.541.046l.099.179c-.205.35-.439.467-.781.653m-172.642.298c-.297-.064-.817-.124-1.071-.284-.337-.212-.34-.38-.442-.74l.71.002c.42.188.593.636.803 1.022m-7.29-.224-.41.09c-.257-.074-.271-.078-.436-.288.108-.289.141-.288.405-.456.38-.001.701-.043 1.03.154-.149.295-.315.336-.59.5m117.155-.261c-.266.07-.32.116-.595.045l.105-.308c.13-.123.043-.066.285-.118zm67.088.429-.07.094-.059-.198c.202-.395.47-.54.84-.77.178.116.233.2.352.37l-.052.183c-.303.236-.644.26-1.011.32m-176.034 1.071-.1-.013c-.38-.077-.541-.205-.734-.517.058-.398.16-.477.409-.783.09.118.056.057.112.224l.04.131c.235.18.338.25.479.517zm41.771-1.037-.09.018.033-.09.097-.021zm89.048.745c-.176-.048-.272-.144-.413-.255-.052-.363.05-.484.2-.812.221.06.323.11.512.227.047.38-.109.516-.299.84m41.658.467c-.167-.236-.243-.342-.238-.635.277-.313.749-.325 1.14-.398.015.013.035.021.043.039.133.253.094.312-.007.556-.317.28-.525.355-.938.438m-182.499.232c-.3-.063-.463-.195-.641-.432.059-.452.165-.5.468-.824.308.13.535.22.76.48-.078.416-.277.499-.587.776m6.392.15c-.236-.285-.402-.403-.444-.775.3-.314.937-.317 1.352-.379l.14.049.078.204c-.266.397-.733.64-1.126.901m47.1-.451-.386-.203c-.08-.328.013-.353.164-.641.25.11.212.056.366.324zm130.839 1.044c-.185-.187-.248-.24-.326-.498.26-.388 1.004-.528 1.412-.853l.099-.08.087.093c-.007.035-.01.073-.022.107-.14.4-.879 1.006-1.25 1.23m-111.114.087c-.143-.274-.566-.062-.884-.269l-.015-.366c.389-.302.827-.181 1.244-.428l.202-.125c.093.537.286.955.208 1.52-.035.258.012.216-.215.386-.268-.198-.384-.433-.54-.718m-71.887.171c-.297.015-.36.054-.634-.089.047-.384.342-.625.583-.922.324.125.404.142.616.411-.124.375-.243.39-.565.6m7.305.109c-.401.067-.724.139-1.07-.103.002-.366.096-.454.287-.758.171.027.397.045.554.115.298.131.35.188.438.475zm-3.176.142c-.378.005-.598-.005-.957-.153-.173-.31-.152-.33-.098-.685.364-.018.55-.016.895.134.201.306.183.333.16.704m-5.442 1.028c-.277-.213-.447-.318-.574-.656.148-.353.34-.434.645-.656.317.195.358.19.485.534-.088.373-.288.53-.556.778m184.401-.515c.963.187 1.373-.466 1.729-.324l.013.17c-.341.302-.608.653-1.067.716a4 4 0 0 1-.675-.562m-180.763.3c-.32 0-.634.046-.952.048-.29.003-.381.006-.591-.213l.07-.467q.322-.021.645-.036c.378-.015.588-.035.874.224zm2.907.44c-.362-.038-.542-.023-.846-.233-.023-.36.042-.445.206-.772.327.056.586.109.883.27.064.351-.07.44-.243.735m177.856-.74-.318.005-.056-.13.322.027zm-180.109.917-.215.081-.053-.198.092-.027zm-3.489.936a1.25 1.25 0 0 1-.224-.558c.269-.213.803-.132 1.153-.133.046.25.044.376-.036.618-.366.177-.498.12-.893.073m4.347.107c-.192-.006-.373-.036-.562-.064-.217-.286-.149-.445-.136-.797.096.045.21.094.294.158.31.234.326.343.404.703m181.36.289c-.233-.045-.373-.124-.572-.251-.073-.366-.01-.424.145-.77.186.067.36.161.537.249.126.339.01.447-.11.771m-183.652.748c-.246-.071-.355-.172-.538-.348.003-.4.125-.493.348-.817.245.1.384.197.575.38-.018.388-.154.482-.385.784m-3.083.334c-.308-.063-.436-.12-.666-.335-.069-.413-.007-.526.13-.91.39.088.51.163.758.462.002.374-.041.451-.222.783m6.309.003c-.32-.084-.562-.156-.85-.326-.035-.339.066-.381.24-.661.264.066.451.186.68.33.106.342.084.33-.07.657m-1.653.898c-.386-.03-.675-.039-1.014-.25-.138-.354-.09-.38.032-.746.385.046.578.1.909.3.188.346.18.317.073.696m-2.737.25c-.373-.019-.681-.002-.994-.234-.095-.388.004-.52.137-.89.245.121.532.289.708.5.216.259.182.307.148.624m60.957.268c-.269.035-.436.005-.697-.068-.237-.261-.229-.588-.268-.923.325-.008.584-.006.904.066.192.313.094.568.061.925m2.606.205c-.255-.057-.404-.137-.631-.261-.244-.312-.248-.524-.264-.901.357.008.667-.016.98.181.119.397.018.586-.085.98m4.672 63.546c-1.827.141-3.7-.305-5.207-1.364-1.788-1.258-2.89-3.299-3.238-5.433-.426-2.609.148-5.502 1.736-7.638 1.294-1.743 3.004-2.662 5.138-2.976 1.718-.126 3.304.122 4.775 1.09 1.842 1.211 3.053 3.125 3.47 5.278.485 2.495.153 5.615-1.322 7.744-1.268 1.83-3.188 2.916-5.353 3.299m-1.29-14.555c-1.342.317-2.277.874-3.001 2.083-1.018 1.7-1.145 4.142-.639 6.037.33 1.237 1.015 2.38 2.165 3.01.805.44 1.611.529 2.513.462 1.356-.383 2.334-1.015 3.046-2.275.941-1.666 1.023-4.022.467-5.842-.388-1.267-1.088-2.401-2.294-3.024-.656-.34-1.52-.472-2.257-.451m10.459 10.207c1.177.813 2.525 1.417 3.988 1.212.609-.085 1.144-.329 1.499-.849.287-.421.431-1.065.323-1.567-.361-1.68-2.652-2.134-3.905-2.951-1.118-.729-1.99-1.788-2.224-3.129-.208-1.197.103-2.762.822-3.754.872-1.202 2.247-1.774 3.662-2.03 1.573-.143 2.911.188 4.32.849l-.91 2.87c-.816-.434-1.869-1.067-2.816-1-.628.044-1.372.367-1.774.862q-.048.058-.089.121-.042.063-.077.13-.035.066-.063.136t-.048.143-.035.146-.018.15-.004.15.011.15c.214 1.647 3.221 2.445 4.441 3.503 1.039.9 1.733 2.021 1.8 3.42.067 1.431-.434 2.986-1.409 4.048-1.083 1.182-2.484 1.511-4.016 1.612-1.535-.093-2.843-.434-4.267-1.003.2-1.083.512-2.153.788-3.218m18.885 4.235c-1.699.147-3.483-.276-4.872-1.281-1.82-1.319-2.925-3.423-3.255-5.62-.394-2.622.104-5.298 1.713-7.442 1.287-1.715 3.038-2.663 5.147-2.957 1.814-.11 3.625.31 5.094 1.41 1.776 1.329 2.68 3.294 2.982 5.448.36 2.573-.12 5.438-1.742 7.523-1.313 1.688-2.944 2.646-5.066 2.919m-1.272-14.438c-1.424.477-2.473 1.245-3.142 2.634-.847 1.757-.882 4.038-.185 5.852.479 1.25 1.321 2.334 2.584 2.85.588.241 1.216.311 1.847.263 1.361-.366 2.32-1.074 3.024-2.311.988-1.734 1.097-3.984.511-5.872-.393-1.267-1.154-2.413-2.364-3.019-.733-.367-1.468-.45-2.275-.397m30.851 14.452c-1.844.067-3.493-.273-4.99-1.387-1.795-1.336-2.801-3.397-3.094-5.586-.351-2.631.228-5.435 1.874-7.552 1.358-1.748 3.082-2.525 5.249-2.78 1.669-.149 3.53.303 4.872 1.306 1.755 1.31 2.744 3.387 3.065 5.516.388 2.566-.14 5.46-1.706 7.566-1.341 1.805-3.09 2.612-5.27 2.917m-1.225-14.456c-1.43.529-2.42 1.197-3.068 2.644-.815 1.823-.852 4.337-.072 6.179.486 1.149 1.344 2.084 2.514 2.55.654.259 1.29.285 1.982.218 1.332-.408 2.25-1.046 2.915-2.308.96-1.821 1.033-4.305.362-6.235-.396-1.14-1.103-2.155-2.213-2.69-.779-.377-1.573-.416-2.42-.358m-13.943 7.243c1.158-3.02 2.485-6.842 3.226-9.964l3.551-.061c-2.343 5.831-4.503 11.746-6.882 17.558-1.385-3.138-2.618-6.308-3.834-9.513-1.064-2.585-1.924-5.29-2.937-7.903l3.365-.058c1.075 3.32 2.189 6.712 3.51 9.94m-63.627 6.958q-.04-8.424.037-16.846l3.171.01c.074 2.273-.064 4.593-.093 6.872 1.554-2.431 3.303-4.686 5.182-6.873a71 71 0 0 1 3.965.052c-2.06 2.23-4.149 4.501-6.007 6.902 1.269 2.329 2.773 4.54 4.255 6.735l1.95 2.92c-1.275.106-2.54.129-3.82.14-1.109-1.467-3.931-7.235-4.984-7.883l-.185.135c-.541 1.689-.265 5.773-.28 7.748z"/></svg>