<svg xmlns="http://www.w3.org/2000/svg" viewBox="0 0 256 256"><path d="m130.313 244.52-79.872.213q-10.471.004-20.941.147c-3.774.041-7.924.421-11.647-.073-3.613-.48-7.258-2.076-10.035-4.441-4.297-3.66-6.796-9.194-7.188-14.782-.272-3.882.763-7.743 2.454-11.216 2.21-4.54 4.957-8.892 7.406-13.312l16.801-30.138L76.66 82.022l23.763-43.042 6.743-12.215c1.677-3.017 3.226-6.319 5.512-8.92 3.701-4.214 8.707-6.539 14.273-6.918q.135-.01.269-.014.26-.006.52-.005.261 0 .521.007t.52.02.52.034.519.047.517.059.516.072.514.085.511.098.51.11.505.123.503.136.5.148.495.16.491.173q.245.09.487.185t.482.197.477.209.471.22q.235.114.466.233t.46.244.455.255.447.267.44.278.434.288.426.3.419.31q.207.157.41.32.204.162.404.33.199.167.394.34.195.172.386.35.19.177.376.359c3.475 3.349 6.393 9.75 8.773 14.033l8.983 16.199 37.428 67.537 39.056 69.908q6.15 10.955 12.17 21.982c1.445 2.64 3.065 5.225 4.412 7.912 1.48 2.958 2.648 6.414 2.693 9.752.072 5.33-2.038 11.169-5.812 14.975q-.296.297-.604.581-.307.285-.625.556-.319.272-.648.531-.33.26-.668.505-.34.246-.688.478-.349.232-.706.45-.358.218-.724.422t-.74.392q-.373.189-.754.363-.381.173-.769.332t-.781.302-.793.27-.803.238q-.403.112-.811.207t-.82.173-.825.141c-4.202.64-8.496.292-12.725.147-6.322-.218-12.673-.55-18.998-.61q-38.111-.387-76.223-.121M112.759 60.894l.057.057c.638 1.141.943 1.896.93 3.24-.015 1.575 1.67 2.863 1.781 4.602.022.352 1.041 3.095 1.248 3.506l.155.082.2-.785.1-.007c.223.535.43 1.056.739 1.549l.212-.294.142.056-.072-.057q.047.052.088.109c.197.289.285.652.393.982l.113-.054.11-.551.169-.01c.817.762 1.25 5.182 1.425 6.494l-.096-.154c-.242-.39-.948-2.144-1.168-2.206l-.127.622-.165.052a3.2 3.2 0 0 1-.41-.673h-.137c-.152 1.95-.227 3.931-.462 5.87-.162 1.332-.484 2.65-.621 3.98-.034.324.033.647.104.96.177.777-.22 1.668-.314 2.45-.083.699.02 1.397-.118 2.092-.184.927-.713 1.958-.616 2.907.063.615.491 1.271.709 1.853a3.2 3.2 0 0 1-.725-.092c-.414.257-.555.718-.66 1.17-.348 1.506.101 2.77.929 4.027q.17.26.348.512c-.422.003-.693-.234-1.097-.104-.413 1.746 2.046 4.533 1.876 5.25-.04.166-.197.274-.318.378-.099 1.004.492 2.759 1.057 3.592.27.398.846.99.995 1.421.077.224.068.18-.042.297-.227.242-.397.424-.386.78.015.51.257 1.142.418 1.625.91 2.733 1.753 3.264 3.398 5.46.92 1.23 1.685 2.574 2.912 3.54.402.316.853.569 1.297.821l.004-2.477c.656 1.195 1.376 2.398 2.213 3.477.405-.84.825-1.602 1.36-2.364-.27 1.048-.666 2.044-1.005 3.07.149.534.245 1.168.757 1.475.054.033.114.056.17.086l.211.12-.013.072-.633-.016a1 1 0 0 0-.237.593c-.143 1.666.029 3.497.03 5.18.001 2.597-.236 5.425.095 7.997.073.572.187.924.543 1.383-.228.651-.582 1.43-.634 2.118-.1 1.336.065 2.759.102 4.105.1 3.622.312 7.238.425 10.859.097 3.133-.293 6.266-.258 9.398.772-1.132 2.326-3.011 2.688-4.255.373-1.284-.019-8.905-.008-10.683.018-3.09.162-6.175.165-9.268 0-1.21.074-2.479-.058-3.681-.098-.132-.106-.224-.284-.235-.462-.029-.743.267-1.17.046-.098-.334-.074-.503-.01-.835.245-.282.267-.297.65-.346.15-.019.316-.012.465-.013.388-.973-.031-2.18.423-3.129l.24-.089c.466.24.636.589.908 1.018-.19-.93-.677-2.38-.555-3.291.186.071.332.143.503.24.2-.749-.85-1.578-.297-2.185l.26-.08c-.046-.356-.107-1.122-.352-1.385-.155-.166-.491-.3-.696-.405.218-.472.74-.924 1.204-1.148l-.029-.181c-.403-.285-.816-.5-1.258-.72.726-.23 1.298-.425 1.91-.894l.107-.22c-.355-.189-.86-.127-1.244-.011-.08.024-.158.054-.24.075-.089.023-.207.04-.302.054 1.873-1.184 3.042-2.474 4.365-4.23l-.173.077c-.854.384-3.754 2.696-4.42 2.503-.07-.186-.008-.263.076-.434.587-1.192 2.052-1.91 3.005-2.777.919-.836 1.517-1.883 2.064-2.982 1.48-2.976 1.691-5.404.716-8.585-.74-2.414-3.602-9.229-5.543-10.417l-.19.078c-.16 1.133.524 1.788 1.018 2.724-.384-.32-.782-.645-1.085-1.047-.93-1.234-1.77-3.567-3.127-4.303l-.104.15.107.457.197-.014-.18.096c-.314 1.015.042 2.513.529 3.443q.038.072.078.143c-1.34-1.347-1.82-2.542-2.407-4.321-.29.272-.537.57-.94.657.04-.25-.014-.144.109-.287.564-.654 1.188-1.872 1.229-2.733l-.152-.166a4 4 0 0 0-.872.187l-.215-.137c-.12-.075-.277-.194-.402-.252-.252-.118-.633-.04-.903-.013.366-.27.8-.486 1.192-.718.385-.73.501-1.385.576-2.193-.825.195-1.889.504-2.73.412.158-.201.082-.149.299-.26.335-.172.68-.324 1.004-.517.94-.56 1.167-1.411 1.419-2.405l-.108-.052c-.53.104-1.066.246-1.599.097-1-.278-1.852-.595-2.69-1.227l-.145-.111c1.003.296 1.89.358 2.923.333.534-.342.94-.696 1.38-1.145-1.969-.918-3.912-2.055-5.118-3.92.772.223 1.501.504 2.244.81-.576-.893-2.754-4.072-2.553-5.079.276-.068.24-.058.483.013-.363-.647-.624-1.288-.876-1.984 1.203 1.224 1.888 2.608 2.81 4.026.886 1.362 2.604 3.093 3.989 3.937 2.032 1.239 4.492 1.067 6.69 1.749 2.432.755 5.64 3.594 8.376 2.867a1.42 1.42 0 0 0 .92-.72c.153-.288.206-.584.073-.894-.515-1.206-2.833-1.52-3.881-2.169-2.198-1.359-4.255-5.617-6.553-6.877-1.157-.633-3.162-.15-4.654-.788-2.594-1.112-2.43-2.84-3.326-5.01 2.032.886 4.507.624 6.37 1.864.81.54 1.332 1.451 2.132 2.042l.112.08c-.246-.806-.562-1.59-1.014-2.303-.532-.84-1.217-1.67-2.02-2.264-1.637-1.212-3.814-1.66-5.554-2.74-1.17-.726-1.69-1.747-3.156-2.046-.256-.052-.327-.106-.557.04-.017.447.142.853.272 1.274-.723-.34-1.466-.636-2.118-1.106-3.448-2.48-4.213-7.23-7.856-9.58zm16.586 29.001c-.012 1.613.2 5.775.797 7.254 1.059 2.623 4.837 4.89 7.481 5.468.679.149 1.423-.094 2.108.043 1.814.363 3.45 1.109 5.33 1.314 10.573 1.157 17.725-3.982 27.823-4.005 4.924-.01 7.909 1.248 12.298 3.185l.05.067-.05-.067c-2.224-2.643-6.906-4.221-10.25-4.518-4.385-.39-8.89.378-13.12 1.515-4.533 1.218-8.771 2.657-13.546 2.633-3.435-.018-5.21-.838-8.31-1.358-.78-.131-1.583.022-2.363-.072-1.773-.211-4.391-2.095-5.52-3.454-.289-.349-.601-.775-.753-1.206-.22-.622-.751-4.45-.71-5.076.003-.048.013-.094.02-.141.35-.15 5.29.53 5.848.762.551.23.948.74 1.424 1.09 1.458 1.07 3.35 1.613 5.09.94 1.553-.603 3.704-2.347 4.38-3.87.529-1.187.31-2.572-.163-3.739-1.175-2.894-3.876-4.97-5.747-7.4-1.065-1.384-1.568-3.168-2.438-4.677-1.023-1.772-3.011-3.299-3.358-5.379-.165-.988-.038-2.12-.016-3.124.06-2.847.37-6.591.136-9.319-.137-1.597-.48-3.179-.685-4.769q-.084-.614-.129-1.233-.045-.618-.049-1.239-.004-.62.032-1.239t.113-1.234.193-1.225.273-1.21.35-1.188q.195-.589.428-1.164c1.374-3.322 6.198-12.59 6.161-15.53l-.146-.29c-.68-.169-1.136-.007-1.732.352-2.354 1.418-4.083 4.14-5.605 6.375-3.006 4.419-6.102 9.239-7.269 14.53-.75 3.403-.497 6.846-.594 10.301-1.37-1.974-2.313-4.217-3.432-6.338-.844-1.6-1.968-3.048-2.806-4.648-1.988-3.793-2.68-8.748-2.873-13.01q-.065-1.468.024-2.934c.095-1.578.902-6.903-.098-7.854-.331-.025-.543.041-.8.25-1.594 1.295-3.45 7.461-3.895 9.484q-.457 2.12-.588 4.285c-.13 2.015-.195 4.143.04 6.146.468 3.994 1.975 7.601 3.362 11.326a90 90 0 0 1 2.22 6.803c-2.84-1.801-6.324-4.74-9.186-6.065-1.33-.616-2.71-.986-4.126-1.344-.84-.212-1.822-.549-2.69-.388-.34.064-.632.214-.822.515-.713 1.135.574 4.262.987 5.492 1.66 4.94 4.68 9.897 9.5 12.277 1.841.909 2.597 1.303 3.703 3.096-.583 2.637.016 5.331-.48 7.97-1.502 7.991-3.847 16.668-1.754 24.768.955 3.694 2.626 7.34 4.118 10.844.588 1.38 1.244 2.77 1.99 4.072.49.856 1.14 1.72 1.493 2.637.47 1.215.423 2.667.684 3.946.493 2.414 1.368 4.645 2.339 6.896l-.128.011c-1.993.191-11.53 2.805-12.298 2.52-.103-.234-.106-.13-.01-.381.441-1.167 1.668-2.367 2.412-3.381 2.506-3.412 3.996-7.711 2.372-11.833-.594-1.508-1.389-2.788-1.87-4.362-.418.415-.866.977-1.374 1.268-.407-.534-.29-1.762-.431-2.46-.218-1.081-1.295-4.93-2.496-5.165-.957-.188-1.419.868-2.2 1.08-.685-.877-1.578-2.814-2.367-3.386l-.53-.037c-.666-.806-1.15-1.636-1.892-2.419q-1.272.955-2.421 2.055c-1.137-1.233-3.58-4.31-5.395-4.253-.352.01-.692.189-.89.48-.172.252-.253.594-.34.883-1.275-1.09-3.757-3.132-5.486-2.957-1.67.17-3.96 1.97-5.717 2.566-.957-.523-1.916-1.087-2.906-1.542-1.963 1.401-4.038 2.835-5.146 5.054-.864-.28-1.432-.491-2.092-1.144-.606.002-1.21 0-1.816.031-2.709 1.822-3.37 7.844-4.508 7.828-.572-.552-1.07-1.32-1.908-1.453-.322.097-.396.108-.573.42-.405.714-.21 2.468-.109 3.279.15-.48.139-.654.051-1.146-.06-.342.013-.648.222-.93.156-.21.331-.291.56-.4l.31.016c.19.242.214.348.184.657-.186 1.941-.2 3.681.215 5.611.238-1.046 1.104-4.455 1.789-5.131.678.355 1.127 1.64 1.452 2.301.506-3.8-.2-7.414 2.82-10.344.456.284.922.555 1.343.89.285.71.542 1.414.765 2.145 1.127-1.209 2.084-2.585 3.243-3.755 1.016-1.027 2.479-1.745 3.323-2.892.619.509 2.147 1.641 2.283 2.435.008.043.008.087.012.13l.189.077c.966-.519 2.16-2.416 3.186-2.3.525.435.596 1.097.757 1.727.778-1.186 1.561-2.248 2.564-3.252.69.612 1.424 1.159 2.057 1.83.336.359.97 1.225 1.396 1.439.05.025.311.04.334.04.18.002.381-.046.56-.074.27.16.33.445.433.724l.198.082c.575-.77.92-1.72 1.598-2.4 2.885 1.501 5.076 4.383 6.433 7.271.046-.536.271-3.105.01-3.478-.109-.156-.074-.088-.129-.252.382-.347.71-.646.978-1.089q.677.785 1.396 1.533l-.125.401c.175.26.166.268.465.353.397-.102.565-.207.96-.014 1.156.561 1.713 2.712 2.228 3.794.415-.458.999-1.213 1.68-1.193.392.012.67.222.886.532.381.546.554 1.253.724 1.89.664 2.483.751 4.644.21 7.164-.725 3.372-1.728 7.358-2.957 10.582 3.064-2.862 4.222-6.694 4.528-10.814.034-.461 0-1.713.503-1.95a2 2 0 0 1 .39-.062c.397.025.58.479.752.784 1.42 2.533 1.727 5.242.919 8.022-.788 2.712-2.492 4.47-3.89 6.817-.647 1.088-1.077 2.434-1.63 3.591 3.35-.668 6.63-1.718 9.952-2.515 1.21-.29 2.775-.309 3.881-.78l.202-.335c.615.496.902 2.008.987 2.774.083.744.073 1.496.155 2.24.107.96.344 1.914.389 2.879.157 3.418-.075 6.889-.01 10.315.091 4.78.389 9.56.326 14.345-.43-.52-2.473-3.206-2.814-3.405a11 11 0 0 0-.344-.05q-.131-.013-.262-.02c.014-.341.078-.528-.1-.831-.34.041-.288.099-.556.245-.055.03-.116.044-.174.066.19-.334.37-.579.27-.971-.919-.313-1.115-.909-1.766-1.575-.109-.032-.034-.02-.222.052.07.621 1.282 1.912 1.718 2.494 1.16 1.26 3.989 5.486 5.167 6.091l-.085-.312.232-.053c.31-5.138.037-10.322-.028-15.464-.073-5.655.261-11.51-.781-17.094-.283-1.514-1.068-2.93-1.632-4.358a30 30 0 0 1-1.774-6.532c1.589 1.76 3.206 3.137 5.082 4.583.207-1.247.226-2.45.202-3.711-.767-.33-1.588-.595-2.329-.974-2.226-1.14-3.941-3.241-5.233-5.332-1.562-2.53-2.49-5.422-3.537-8.19-.708-1.871-1.499-3.759-2.055-5.68-.467-1.614-1.01-3.947-1.054-5.614-.02-.777.265-1.63.446-2.38-.167-.36-.396-.784-.424-1.187-.126-1.85.52-4.187.825-6.028.29-1.75.496-3.52.795-5.275.317-1.858.752-3.761.939-5.632.255-2.556.013-5.162.246-7.733-1.9-3.085-3.156-2.918-5.984-4.374-3.655-1.882-6.36-6.889-7.419-10.687-.405-1.452-.444-2.971-.903-4.421l-.065-.203c4.741.25 8.352 2.555 12.023 5.312 1.116.838 2.28 1.662 3.328 2.584 1.077.947 1.916 2.126 3.073 2.985l.15.11c-.947-5.17-3.357-10.204-5.11-15.153-.55-1.552-1.13-3.097-1.471-4.712-1.205-5.69-.44-14.451 2.76-19.411.11 2.168-.071 4.336-.11 6.504-.05 2.793.115 5.808.61 8.558.77 4.272 3.166 7.723 5.208 11.454 1.949 3.562 3.848 7.129 5.229 10.953.576-2.611.891-5.241.815-7.92-.052-1.84-.313-3.66-.19-5.504.207-3.117 1.228-6.219 2.572-9.019 2.029-4.228 4.984-8.603 8.257-11.968.515-.53 1.124-1.27 1.837-1.518.214.124.165.041.22.186l-.107.205.123.071c-.338 1.799-1.405 3.59-2.263 5.193-1.962 3.667-4.679 8.152-5.403 12.214-.67 3.761.288 7.263.448 11.001.09 2.102.004 4.21.026 6.313.012 1.138.11 2.273.141 3.41.026.972-.08 2.061.08 3.014.288 1.72 2.84 4.291 3.844 5.788.402.6.82 1.219 1.135 1.87.564 1.171.906 2.416 1.694 3.471 1.43 1.916 3.3 3.496 4.653 5.478.679.994 1.243 2.193.975 3.422-.302 1.381-1.742 2.838-2.905 3.596-.897.584-1.897.773-2.95.588-1.851-.325-3.147-1.815-4.866-2.452-2.039-.755-4.672-.947-6.837-1.384m13.548 17.886.053.055c.652 1.13 1.468 2.215 2.053 3.369-2.555-2.725-3.413-3.743-6.676-5.637 2.46 2.62 4.32 5.316 6.133 8.4q-2.393-2.403-4.695-4.894c1.563 4.591 2.487 8.147.502 12.828 1.453-.593 2.81-1.103 4.396-1.18 1.827-.088 3.617.337 5.418.573 2.402.315 6.261.303 8.534-.524 2.63-.958 4.666-2.975 7.443-3.726 1.46-.395 4.464.12 5.54-.64.384-.272.662-.804.844-1.225.395-.909.703-1.85 1.14-2.742.871-1.783 3.025-5.433 4.862-6.153 2.14-.839 4.885-.494 7.054.028-3.256-3.332-8.054-4.438-12.562-4.497-7.398-.097-12.238 2.386-19.182 3.747-3.691.723-7.51.606-11.258.674 1.255 1.103 3.089 2.008 4.183 3.17-1.285-.31-2.473-1.13-3.729-1.57zm-47.1.73c.159.291.271.553.523.775l.38-.357.38.034.026.143-.025-.143c-.162-.268-.31-.552-.544-.764-.143-.13-.213-.081-.391-.073zm-20.726 3.817-.087.069c-.076.112-.172.231-.23.353-.101.126-.183.226-.252.373l-.17.174-.078.174.079-.174.169-.174.252-.373c.088-.101.158-.239.23-.353zc.618-.464 2.633-2.865 2.986-3.531-.132.035-.186.043-.302.095-.798.356-2.339 2.624-2.684 3.436m107.006 1.146c1.686.389 5.171 1.106 6.796.171a.8.8 0 0 0 .351-.365l-.018-.377c-2.535-.96-5.116-1.043-7.558-2.409 1.594.254 6.14.728 7.567.395l-.016-.143c-1.163-.434-3.756-.322-4.576-1.223.333-.35 1.026-.364 1.495-.384.546-.023 1.108.03 1.654.066-2.386-1.622-5.131-2.346-8.015-1.805-.675.126-1.725.436-2.123 1.052-.716 1.108-.393 3.287-.762 4.6-.594 2.107-1.673 3.98-2.532 5.975-1.466 3.406-1.036 8.364-.078 11.85.591 2.149 1.52 4.283 3.354 5.644-2.033-.564-3.446-1.315-4.527-3.221-1.086-1.916-1.258-3.945-1.386-6.103-.037-.618 0-1.302-.231-1.882-.254.103-.252.159-.354.404-.812 1.972.204 6.765 1.062 8.66 1.374 3.036 4.888 4.301 6.967 6.902 2.07 2.59 2.986 5.976 4.528 8.892q.643 1.246 1.439 2.4c.693.99 1.447 1.778 1.913 2.918.945 2.312 1.366 6.523 1.568 9.078q.175 2.105.165 4.216c-.007.718-.134 1.469-.08 2.181.026.33.03.447.215.717.38-.052.592-.127.82-.454 1.024-1.477 1.429-6.862 1.486-8.805.04-1.35-.09-2.705-.043-4.056.037-1.06.186-2.112.244-3.17-2.382-4.716-5.34-3.04-4.718-9.811-.275.53-.477 1.006-.976 1.366l-.228-.005c-.277-1.052.665-2.672.987-3.712-.61.655-.911 1.465-1.444 2.165-.007-1.046.022-4.495.706-5.195.043-.045.093-.083.14-.125-.253-.097-.113-.06-.424-.093-.168-.649.503-2.275.805-2.936-.493.53-.986 1.14-1.55 1.59.525-1.14 1.126-2.242 1.685-3.366a22 22 0 0 1-3.552.216c1.944-.819 2.891-1.217 3.88-3.164-1.573.156-3.013.133-4.552-.251 1.076-.115 2.323-.16 3.31-.646.626-.31 1.863-1.011 2.103-1.673l-.13-.142c-2.241.581-4.407-.102-6.463-1.017 1.922.199 3.92.416 5.83.005.395-.086.66-.148.88-.495-.854-.42-2.118-.37-3.061-.66-1.243-.383-2.47-.982-3.68-1.464 1.986.15 4.024.902 6.014.833.447-.015 1.008-.111 1.29-.497.195-.265.167-.52.131-.827-.63-.837-5.5-1.568-6.984-2.493l-.12-.077c1.894.495 3.975.85 5.939.711.705-.05 1.778-.177 2.21-.825.22-.33.194-.675.104-1.036-.046-.181-.033-.324-.26-.371-.379-.08-1.171.102-1.591.12-1.595.067-4.046-.088-5.436-.967q-.093-.06-.184-.123.218.028.435.053c.935.115 1.877.113 2.819.085.95-.028 3.463-.072 4.114-.758l-.03-.15c-1.997-1.311-5.533-1.111-7.962-2.571l-.16-.098c2.137.408 5.675 1.356 7.672.244.352-.196.569-.406.682-.803-.107-.352-.181-.508-.545-.67-.619-.275-1.396-.262-2.066-.337-1.718-.194-3.34-.708-4.791-1.652zm28.814 37.287c.077.247.26.295.468.439l.02.144-.02-.144-.258-.421zm-165.886 1.492c-.076.071-.218.173-.258.268.253-.156.185-.052.258-.268l.108-.127zm70.013 2.357.008.46c.225.252.422.224.743.286l-.348.189c-.534-.174-.71-.546-.99-1.009-1.886-.313-3.728.128-5.618-.053-2.287-.22-4.476-1.089-6.792-1.132-.611-.011-1.308-.018-1.883.198l.043.155c.756.379 7.672 1.856 8.562 1.921.705.052 1.23-.23 1.894-.39.79-.188 2.144.183 2.897.486 1.156.464 2.066 1.517 3.058 2.241.804.587 1.655 1.08 2.436 1.704.457.365.965.96 1.461 1.238.29.16.356.136.65.053.203-.23.405-.458.616-.68.263.199.263.3.388.595l-.194.101c.32.393.644.76 1.01 1.11l.326.008.194.26-.136-.056.315.1-.14.19c.316.42.652.826.981 1.237l.085-.083c-.086-.66-.385-1.282-.63-1.899l.197-.274c.022-.271-.02-.448-.1-.707l-.233.38-.168-.061c-.124-.611-.42-.837-.666-1.356-.134-.28-.127-.338 0-.605.324.06.498.394.708.641.11-.342-.189-.587-.091-1.038l-.144-.056-.139.21-.185-.032c-.326-.484-.414-.785-.301-1.377l.148-.052c.842.703 1.459 1.966 2.023 2.901q.124-2.306-.014-4.611l-1.456.788c-.373-.385-.783-.734-1.182-1.09.024.557.21 1.736-.14 2.14-1.596.207-.712.683-1.592 1.213-.683-.25-1.412-.637-2.062-.97-.643-.329-1.222-.398-1.93-.479-.062-.471-.093-1.198-.321-1.609-.165-.296-.239-.339-.537-.44-.041-.095-.092-.217-.144-.304-.193-.325-.26-.331-.607-.442m-16.263.667.069.054q.064.082.13.162c.476.566 1.202.715 1.906.773l-.193-.344c-.564-.332-1.213-.44-1.843-.59zm1.023.992.037.071c1.792 1.94 3.82 3.768 5.7 5.632.92.915 2.006 1.814 2.692 2.923l.095.04c.035-.244.069-.484.123-.724-.42-1.03-5.846-4.715-6.191-6.19.158-.198.175-.238.448-.252.528-.027 2.663.254 3.127.466.636.293.937.803 1.694.913 1.226.178 3.092-.371 4.025.569 1.335 1.345 2.039 4.22 2.636 6-.946-.048-1.804-.028-2.74.139-.26-.32-.599-.877-.997-1.007-.128.223-.156.266-.073.532.362 1.154 2.097 2.516 1.567 3.75.16.207.26.343.503.452.44-.24.7-.694 1.192-.7q-.218.241-.425.492l.017.1c1.279-.587.668-.279 1.645-.163.233.028.352-.124.531-.247l-.028-.198c-.252-.16-.475-.302-.69-.511q.277-.118.551-.24l.025-.244-.171-.143c-.4.011-.687.078-1.062.214l-.068.167c.172.09.303.156.449.286l-.245.2-.128-.133c-.488-.102-.823-.221-1.189-.57l.053-.164c.763-.187 1.527-.304 2.303-.419-.714-2.512-1.94-6.786-3.603-8.722-.323-.08-.757-.1-.971-.357.31-.185.464-.156.82-.162.026-.332-.247-.6-.397-.898-.106-.212-.015-.11-.241-.257-1.625.72-2.503-.071-4.12.058a3.3 3.3 0 0 1-.627.383l-.115-.246c.174-.03.32-.06.489-.108-.579-.568-3.047-.619-3.899-.674-.055.18-.111.329-.188.498-.276.017-.324.028-.563-.101.14-.171.218-.266.296-.476-.82-.328-1.351.32-2.25.093zm11.263-.112-.053.273c1.607-.067 2.76 1.41 4.144 2.036l.236.17.127.113-.127-.113-.236-.17c-.786-1.04-2.651-2.054-3.886-2.433zm33.126 2.825c-.258.358-.301 1.13-.482 1.586.117.992.872 1.794 1.076 2.755.172.813-.192 1.737.48 2.365l.158-.011c.427-.736.667-1.58 1.13-2.281.265-.026.451-.087.639-.293.382-.42.684-1.06 1.052-1.525 1.158-1.459 4.685-5.63 6.106-6.363l.146.085c.18.538.15 1.115.163 1.677-1.199 1.257-2.506 2.413-3.703 3.675-1.309 1.38-2.5 2.874-3.726 4.326-.856 1.014-1.781 2.013-2.487 3.138.825-.616 1.528-1.431 2.22-2.19 2.726-2.985 5.346-5.966 8.453-8.572 2.19-1.836 5.162-3.652 7.074-5.653-.851 2.221-1.782 4.445-1.49 6.88.2-.345.363-.646.681-.901l.188.027c.82 1.16.292 4.19.3 5.602.29-1.013.98-1.987 1.142-3.002l-.288.05-.071-.211-.025.107h-.019c.008-.516.086-.606-.271-1.002l.028-.179c.2-.094.373-.19.553-.319a4 4 0 0 1-.002-.615l.384.357.273-.033c.213-.192.413-.375.665-.517.149-.084.301-.162.45-.246-.18-.696-1.582.158-2.168-.246-.07-.312-.096-.491-.317-.737-.462-.151-.903-.015-1.366.077.609-1.343 2.242-3.132 1.774-4.757-.101-.35-.19-.374-.486-.543-1.8-.042-5.671 3.645-6.984 4.874.082-.758.185-1.399-.205-2.094-.291-.199-.355-.254-.727-.2-.551.082-3.532 2.683-3.86 3.225.045.149.087.257.171.391q.038.059.077.115l-.556.068c-.31-.227-.33-.433-.462-.787-.531-.285-.915.779-1.488.923-.055-.183-.03-.259-.2-.362-.123.176-.23.301-.399.435-1.005-.367-1.58-2.754-2.297-3.632-.239-.293-.543-.551-.944-.548-.847.007-2.21 1.728-2.809 2.323.13-1.632.257-3.271.277-4.908.035-2.935-.171-6.068.532-8.936.512-2.087 1.437-3.996 2.396-5.905 4.952 1.222 9.147 2.076 14.302 1.51.673 5.942 3.761 11.714 8.127 15.778-.502.834-.865 1.755-1.308 2.622-1.393 2.729-3.103 5.569-3.578 8.643 1.518-2.155 2.485-4.471 3.633-6.819.825-1.685 1.725-3.34 2.601-4.999-.497-.408-1.04-.761-1.54-1.17-2.54-2.079-5.333-7.612-6.152-10.735-.406-1.546-.532-3.116-.674-4.702q-1.298.208-2.61.3-1.311.091-2.626.065-1.314-.027-2.621-.171t-2.596-.406c-1.79-.363-3.598-.863-5.41-1.079l-.181-.02c-.79 1.042-1.364 2.338-1.849 3.547-2.716 6.783-.822 12.217-2.25 18.926.69-.526 1.322-1.131 1.986-1.69.486-.41 1.415-1.327 2.074-1.271.279.164.406.258.503.58.335 1.119-.108 2.593-.587 3.598m-26.01 2.019.057.167.165.058-.165-.058zm-26.889 2.756-.289-.096.12.195.098.27zc.271.397.254.462.74.588l.038.21c.3.11.463-.043.747-.165l-.03-.287-.172-.091-.583.333q.044-.044.086-.089c.733-.803.767-1.273.744-2.314q-.762.165-1.53.294c-.186-.236.05-.533.062-.857l-.36-.135-.186.106c-.161.755.11 1.73.444 2.407m83.144 1.27-.029.086zc1.254-.965 1.835-2.681 3.254-3.381.251-.124.475-.232.692-.413q.09-.076.177-.153c-.278-.009-.598-.034-.865.049-.986.306-2.832 2.964-3.258 3.898m-76.862 1.524c-.422-.29-.689-.502-1.214-.5l-.228.172c-.03.33.024.574.234.835.224.279.474.481.826.561.186-.101.332-.261.548-.19.781.258 1.224 1.124 1.844 1.617l.047.071-.047-.071c-.199-.877-1.606-3.971-2.257-4.515-.017.036-.037.071-.05.109-.215.657.056 1.308.297 1.911m-17.67 2.1.14.06c.4.227.839.486 1.309.443l-.018-.181c-.394-.223-.85-.222-1.291-.262zm123.688 1.494c1.59 1.63 3.018 3.578 4.378 5.4q1.908.029 3.816.01c-2.043-6.223-5.639-13.047-11.701-16.139a16 16 0 0 0-2.5-1.005 15.1 15.1 0 0 0-4.433-.803q-.003.298 0 .597.005.298.016.596.011.299.03.596.018.298.044.595.026.298.06.594.033.296.074.592t.089.59q.048.295.103.588.056.293.119.585.062.292.132.582t.147.578.161.575.175.57q.092.284.19.566.099.281.204.56.105.28.217.556.112.277.231.55.12.274.245.545.126.27.258.538.132.267.272.531.139.264.284.525.145.26.297.517t.31.51.323.502.335.494.348.485.359.476.37.468q.19.232.383.458.194.227.394.449.2.221.404.438.206.217.416.429.386.39.78.772l5.635-.11c-.832-1.612-2.4-3.858-2.965-5.36M39.677 214.779c2.073 2.273 3.983 6.121 5.577 8.82a17.5 17.5 0 0 0 .896-2.285c-.045 1.069-.233 2.07-.531 3.097.452 1.406 2.194 5.583 3.218 6.5l.025-.147c.042-.227.023-.14.102-.383.293.012.576.165.761.4.089.112.09.136.132.254-.162.406-.635.417-.721.75.281.056.592-.027.851-.164.107-.056.133-.092.207-.169-.114-1.99-.89-4.793-1.767-6.588-.78-1.6-1.616-2.93-2.093-4.67 1.017 1.237 1.943 2.522 2.871 3.827-.548-1.952-.78-3.989-1.335-5.934-.701-2.457-3.064-5.819-4.861-7.597-.954-.945-2.053-1.73-3.028-2.657 3.413-.097 6.85-.061 10.263-.012-.15 4.414-1.305 7.528-.026 12.14l.2-.174.14.023c.57 1.468 1.159 2.985 1.483 4.53.22 1.047.244 2.235.62 3.231l.11-.083c.265-1.26.172-2.693.238-3.987.154-3.004.297-6.027.606-9.02.416 3.359.61 6.651.642 10.035.574-1.697 1.356-3.738 2.404-5.187-.351 1.232-.724 2.448-1.03 3.693-.343 1.399-.582 2.853-1.11 4.196.123.428.256.854.36 1.287.446-1.295.889-2.588 1.41-3.855.428-1.037.94-2.068 1.296-3.132.39-1.17.517-2.412.606-3.636.286-3.929-.628-6.436-2.018-10.013q5.254-.032 10.508.004l-.073.126c-.713 1.205-1.596 2.305-2.338 3.495-2.533 4.056-4.745 8.706-5.624 13.43-.147.79-.432 1.583-.464 2.385l.091.165.401-.396c-.375.981-.614 1.994-.986 2.968-.356.934.604 2.117.009 2.477l-.176-.036-.216-.349-.126.004c-.014.516-.12 1.242.021 1.733l.24-.716c.245.197.269.3.383.583.304-.194.46-.584.532-.937.117-.57-.031-1.229-.17-1.784l.379.4.27-.053c.393-.402.56-1.169.783-1.69 1.328-3.115 2.999-6.815 3.064-10.248l.095.054c.441 1.301-.302 4.1-.585 5.493 1.913-2.708 3.158-6.06 5.359-8.523-.955 2.915-2.34 5.813-3.829 8.491 1.334-.982 2.647-2.182 4.078-3.003-1.315 1.617-5.365 4.932-5.82 6.728-.059.233-.06.139.072.354.268-.012.45-.017.716.042-.03.201-.054.282-.18.45-.145.193-.4-.104-.745-.054-.552.436-.897 1.112-1.27 1.7.375-.265.715-.585 1.06-.887l.19.02.065.384.165.071c4.686-3.608 10.815-11.464 13.057-16.877.82-1.98 1.22-3.901 1.544-6.005 9.458-.09 18.945-.21 28.402-.035 1.54 5.787 3.188 8.04 6.836 12.638 1.03 1.3 2.037 2.738 3.245 3.872 1.27 1.191 2.873 1.907 4.014 3.267.722.86 1.312 1.915 1.76 2.94.262.602.437 1.325.823 1.856l.12-.152c-.254-2.043-4.444-9.694-5.701-11.62-.888-1.36-2.153-2.634-2.888-4.07l-.045-.092c2.02 1.432 5.427 6.353 6.824 8.581.493.786 2.36 4.761 2.977 5.042l.36-.112q.153.184.313.363c.208-.189.206-.202.203-.477-.017-1.363-.724-3.107-1.274-4.35.248.16.492.3.756.43l.116-.128a4 4 0 0 0-.675-.5l-.197.198c-.8-.576-1.49-2.192-1.793-3.119.669.933 1.31 1.95 2.113 2.773-.473-4.14-1.681-9.056-4.076-12.492-.875-1.255-2.051-2.36-3.023-3.544-.188-.228-.781-.925-.692-1.215l.202.046.068-.109c3.064-.148 6.186-.107 9.254-.054-1.03 3.643-1.539 6.526-1.207 10.352.05.572.025 1.447.332 1.935.156.248.36.453.566.658-.239.349-.23.476-.16.891.114.666.463 1.919.977 2.362l.151-.166c.01.178-.001.308-.021.483-.072.624.276 2.03.622 2.563-.073-.895-.197-1.828-.18-2.724.023-1.239.173-2.505.243-3.746.144-2.554.182-5.945.792-8.372.155 2.583.342 5.172.41 7.76.058 2.237-.016 4.496.118 6.728.147-.559.251-1.232.53-1.738.012.946-.416 3.177.08 3.91.31-.18.382-.354.477-.697.254-.92.254-2.033.274-2.986l-.154-.04-.236.141-.14-.07c.17-.284.35-.248.53-.45.17-.191.335-8.596.504-9.814l.029.151c.39 2.133.56 4.57.453 6.734-.015.284-.113.758.046.981.493-.874.806-1.97 1.177-2.91 1.252-3.175 1.428-5.45.763-8.819-.203-1.031-.477-2.077-.602-3.12l9.648-.008-.088.133c-1.16 1.71-2.617 3.152-3.75 4.914q-1.231 1.903-2.231 3.938c-.911 1.88-4.316 9.935-4.085 11.726.028.214.035.209.1.38l.189.023c.209-.183.378-.345.631-.466l.266.246c-.24.31-.588.234-.841.578-.66.897-.637 2.679-.972 3.758-.211.68-.2 1.608-.163 2.316l.09.022c.328-.973.633-1.96 1.085-2.883l-.022-.175-.463.011-.085-.1a9 9 0 0 1 1.025-.705c-.009-.442-.073-.932.127-1.337l.248-.07c.151.236.078.346.048.617.378-.418.891-1.282.876-1.863-.016-.58-.828-.966-.463-1.478.271.178.493.372.731.589.512-.266 3.157-5.49 4.023-6.498l.072.373c.988-.514 4.214-4.893 5.404-6.003-1.916 2.978-3.874 5.983-5.593 9.079-.585 1.054-1.056 2.192-1.584 3.278.279-.357.595-.888.94-1.175.136.333.167.443.015.778-.815 1.796-2.39 4.366-3.452 6.068l.1.12c.247-.17 1.286-1.828 1.712-2.309 2.262-2.55 4.133-4.899 6.23-7.567 3.21-4.085 6.095-8.099 8.24-12.862.508-1.13 1.063-2.266 1.343-3.477l10.862-.01c1.99-.005 4.127-.17 6.09.111 1.411.203 2.864.721 4.168 1.288.422-.436.853-.854 1.195-1.357q3.628-.05 7.256 0c.391 3.532 2.553 8.504 4.448 11.516.985 1.564 2.141 2.985 3.354 4.374.569.651 1.168 1.448 1.847 1.975q.055.04.112.077l.291-.123c.379.55 1.007 1.666 1.688 1.824.235.055.427-.07.645-.15l.085.183-.499.385c.006.298.052.415.306.622.215.175.533.18.795.194l.136.165-.284.29c.138.25.147.24.364.39.3.207.406.414.543.74l.155.046.077-.508.14.025-.141.013c.075.036.151.068.225.107.07.037.169.12.227.165l.135.101c.4.309.655.605.93 1.028l.102.186.136.276.127.223.053.069-.053-.07-.127-.222-.136-.276-.103-.186c-.353-1.217-1.133-2.516-1.73-3.64-.37-.699-1.298-2.814-2.014-3.033-.545-1.727-2.47-3.328-3.59-4.743 1.768 1.166 2.848 3.089 4.346 4.526l.06.112-.06-.112c-.634-1.729-1.64-3.756-2.606-5.321-.658-1.065-1.437-2.089-1.998-3.208l.09.085c3.946 3.861 6.619 9.399 8.97 14.323.582 1.22 1.194 3.152 1.87 4.22l.086-.035.27.06-.287.059.162.066.04-.055-.233.002.083.047.121-.293c-1.088-2.61-1.847-5.307-3.031-7.885q-1.14-2.42-2.413-4.774c-.505-.943-1.165-1.918-1.468-2.946l.086.09c.936.989 3.471 6.083 3.915 6.272l.331-.217c.052.33-.127.323-.153.59-.048.495 1.283 3.182 1.638 3.478.101-.238.173-.578.398-.708.137.197.174.162.128.416-.038.207-.172.56-.178.758-.004.111.311.639.369.764.24.52.358 1.22.685 1.672q.06.082.124.162l.161-.028c.205-1.279-.932-4.116-1.322-5.448-.233-.798-.288-1.761-.555-2.516-.131-.37-.389-.644-.47-1.044-.186-.907-.166-1.86-.406-2.758-1.177-4.412-3.69-8.615-6.168-12.393 3.032 0 6.086-.07 9.116.038-1.466 6.849-1.785 10.313.026 17.18.335 1.27.817 2.5 1.142 3.77.032-1.324-.14-2.616-.128-3.922.006-.63.352-1.641.144-2.233-.182-.52-.91-1.059-.688-1.689.268.391.334.632.379 1.102l.116.06c.548-.983.582-5.683.7-7.085.757 3.95.98 8.025 1.349 12.028.275-1.625.37-3.271.653-4.897.332-1.916.95-3.687 1.649-5.493-.201 1.046-.409 2.093-.533 3.151-.126 1.075-.132 2.138-.384 3.194-.127.531-.175 1.398.107 1.888.113.197.214.188.413.266.31-.106.479-.353.62-.638.117-.233.218-.484.198-.745a1.9 1.9 0 0 0-.574.167c.23-.29.476-.471.773-.681l.14-.317c-.115-.293-.192-.276-.451-.434.106-.026.216-.032.325-.047.096-.013.191-.035.287-.053 1.569-3.457 1.435-8.379.11-11.879-.345-.91-.787-1.78-1.143-2.684 3.364-.024 6.754-.083 10.116.032-1.017 1.575-2.153 3.148-3.023 4.808-1.214 2.316-6.34 14.725-5.9 16.535.052.215.131.421.215.626l-.42-.243c-.33.181-.437.456-.544.808-.278.909-.415 1.892-.589 2.827l.161.017c.593-1.052.987-2.271 1.392-3.409.627-1.7 1.303-3.385 1.946-5.08.43-1.136.802-2.447 1.413-3.487-.337 2.368-2.335 6.172-2.495 8.2-.02.252.02.291.167.477.244.044.38.07.624-.007.498-.159 1.606-3.124 1.881-3.728-.533.447-1.114.819-1.694 1.202.78-1.02 1.96-1.613 2.65-2.636 1.722-2.552 2.82-5.559 4.596-8.089-.559 2.544-2.44 6.267-3.57 8.737-.594 1.296-1.389 2.841-1.604 4.255l-.066.068.066-.068c.616-.619 3.906-6.494 3.916-7.279l-.49-.08-.035-.342-.097.24.075.173.017-.268c.132.018.253.041.389.02 1.06-.165 2.198-3.084 2.918-3.944-.373 1.518-1.385 3.071-2.109 4.457q-1.633 3.103-3.226 6.227c.811-.672 1.52-1.454 2.3-2.16 3.436-3.115 6.972-6.337 9.074-10.564 1.303-2.622 2.139-5.549 3.025-8.334 5.251-.029 10.522.064 15.77-.059l-1.943-3.469c-3.285.174-6.583.132-9.871.141l-14.598.016-40.061.051-92.152.08q-24.131-.13-48.262-.015c-6.446.018-12.907-.073-19.35.042-.52 1.031-1.127 2.074-1.546 3.147 5.529.061 11.064-.035 16.59.078 1.382 5.992 4.125 12.024 8.482 16.451.705.716 1.447 1.486 2.298 2.028.143.091.067.067.264.033l-.134-.855.08.19c.725 1.657 2.164 2.103 3.734 2.7-1.637-4.81-2.896-5.332-6.557-8.498 1.544.69 2.804 1.653 4.06 2.774-1.098-2.633-2.32-5.226-3.355-7.883m-12.494 11.575c3.496.57 8.529 4.026 11.48 6.031 1.066.724 2.103 1.547 3.224 2.177l.028-.157-.191-.14a10.6 10.6 0 0 1-2.16-2.113c2.653 1.746 4.376 4.027 6.584 6.227q.868.108 1.738.2c-1.754-4.385-5.268-9.504-9.006-12.466-1.99-1.577-4.527-2.917-6.864-3.917-5.253-2.248-10.088-4.485-15.895-4.896-2.003-.2-4.02-.221-6.03-.259 1.475 4.225 6.377 9.242 10.382 11.173 4.014 1.936 8.118 3.744 12.406 4.975l.026.347c.772.488 1.88.411 2.706.825.312.156.554.433.863.606 1.202.672 2.443 1.271 3.64 1.955l.16-.044c.108-.202.123-.375.35-.445.03.323-.04.535.221.755.816.688 2.252 1.13 3.284 1.374-.456-.445-.912-.923-1.43-1.293-.256-.183-.998-.553-1.163-.785-.194-.27.148-.4-.279-.783a1 1 0 0 0-.553.153q-.038-.071-.079-.142c-.581-1-1.366-1.293-2.449-1.6l.288-.13-.015-.17c-1.176-.956-2.512-1.766-3.77-2.612-1.214-.817-2.404-1.691-3.644-2.466-1.082-.677-3.026-1.518-3.852-2.38m187.003 8.569c1.296-.81 2.474-1.883 3.7-2.803 3.314-2.487 6.952-4.605 10.938-5.805-.902.89-3.476 2.062-4.678 2.843-4.151 2.696-8.368 5.806-11.774 9.401 2.743-.772 6.06-2.947 8.782-4.17 2.424-1.09 4.954-1.96 7.422-2.946 3.099-1.237 6.76-2.946 9.614-4.603 3.133-1.819 7.602-6.267 8.558-9.826-6.879.075-13.16.409-19.394 3.747-2.312 1.335-4.827 2.272-7.124 3.61-5.929 3.455-9.1 8.865-12.728 14.39l1.757-.051c4.88-4.75 9.16-9.57 15.224-12.933-1.994 1.778-4.216 3.352-6.246 5.103-1.45 1.25-2.748 2.644-4.052 4.043m-37.6-7.7c2.436.43 4.858 2.279 7.036 2.794 1.684 1.02 3.425 2.3 5.192 3.137l.06.066-.06-.066c-2.056-2.593-4.988-3.843-7.401-5.964 2.968.77 8.17 5.284 10.497 7.382.798.72 1.827 1.918 2.764 2.42.304.304.507.712.817 1.015.26.254.696.53 1.066.54l.041-.259c-.637-2.092-3.442-6.053-4.823-7.833-.76-.977-1.556-1.916-2.5-2.722-2.404-2.051-8.178-5.46-11.072-6.65q-.834-.35-1.69-.645-.855-.294-1.728-.53t-1.76-.415-1.783-.297c-2.61 2.477-3.953 3.464-7.138 5.104q.134.107.271.212c1.98 1.513 6.022 3.837 8.312 5.005 3.822 1.95 7.788 3.25 11.712 4.92 2.243.953 4.362 2.195 6.594 3.136.418.177.934.396 1.388.335l.035-.123c-.623-.709-1.452-1.163-2.073-1.863l.109-.29c-1.955-1.165-3.704-2.689-5.656-3.887-2.66-1.633-5.538-2.913-8.21-4.523m-166.52 3.29c4.187-1.42 5.614-1.443 9.878-.877l.055.083-.055-.083c-.69-.6-1.624-1.077-2.402-1.56q-.67-.002-1.338.039c-1.102.065-5.99.445-6.557 1.081.106.447.273.882.419 1.317m60.879.64-.07.073zc3.282-1.354 6.265-3.185 9.708-4.16-2.912 1.582-6.029 2.77-8.942 4.36-3.029 1.651-6 4.188-8.342 6.715 1.45-.256 5.862-1.629 6.897-2.629l-.056-.443c.208-.016.414-.04.622-.063 1.402-.15 3.427-1.512 4.777-2.15 5.24-2.473 11.123-4.511 15.63-8.268-1.678-.877-3.31-1.734-4.848-2.851-1.015-.69-1.815-1.481-2.637-2.388q-1.37.352-2.706.82c-9.06 3.093-17.471 9.88-21.722 18.563l1.838-.088c.486-1.468.712-.825 1.47-1.736.589-.71.788-1.697 1.43-2.372l.11.046-.07.456.067.085c1.304-.874 2.976-2.448 3.82-3.76l.103-.165.013.163.06-.23.03.043c-.021.448-.239.84-.421 1.243 2.582-2.191 5.478-4.352 8.383-6.083-1.664 1.706-3.581 3.156-5.214 4.892m84.775-.14c-.211.043-.27.026-.435.176 1.268-.14 2.5-.472 3.781-.515 1.248-.042 2.544.176 3.787.291 1.772.164 3.55.283 5.326.426l.07.078-.07-.078-2.86-1.802c-2.65.022-7.113.57-9.599 1.424m-110.073-.758c-.058.12-.062.219-.078.35.216.22.506.456.617.747.072.19.129.18.304.287.248.409.477.811.807 1.16l.054.065-.054-.065c-.06-.332-.092-.683-.293-.964-.13-.183-.307-.156-.514-.196-.016-.062-.046-.122-.048-.187-.012-.375.063-.491-.042-.885-.3-.239-.372-.254-.753-.312M195.152 232l.098.124.16.244c.176.386.409.719.651 1.064.151.216.049.147.32.194-.178-.502-.585-.909-.971-1.258-.022-.071-.116-.18-.16-.244zm-79.824-4.398c-2.086-2.977-5.993-4.768-9.217-6.257-5.762-2.66-11.449-3.935-17.749-4.434-.78-.062-2.655-.331-3.346.052-.291.162-.297.303-.356.597.963 3.23 16.451 9.581 20.17 11.4q4.424 2.12 8.593 4.706l.052.053-.052-.053c-.389-.816-.95-1.61-1.44-2.368-2.125-3.278-3.832-4.144-7.101-5.991.444.074.977.373 1.397.55 3.088 1.3 5.529 3.619 7.474 6.308.665.918 1.147 2.078 1.923 2.894.79.832 3.03 2.225 4.103 2.64.308.119.465.152.769.03.029-.138.04-.147.018-.31-.244-1.768-6.195-7.031-7.724-8.241-.865-.685-1.806-1.275-2.733-1.873 1.286.474 3.59 2.224 4.459 2.396l.223-.275.206.07c-.04.299-.028.155-.04.433 1.032.974 2.33 1.737 3.501 2.536-.805-1.835-1.91-3.292-3.13-4.863m-9.248 7.14c-5.032-2.222-12.728-1.264-18.074-.457-2.987.452-5.986.917-8.818 2.012-1.36.525-2.682 1.183-3.766 2.172l14.032.044c2.939.008 5.763-.08 8.689-.308.533-.042 1.11 0 1.633-.106.32-.066.632-.225.914-.384q.09.076.181.147c.19.148.392.264.644.252.145-.007.312-.06.452-.099l.04-.12c-1.016-.705-4.61-1.378-5.979-1.551-1.065-.135-2.16-.124-3.212-.338l-.004-.131c1.104-.32 2.946-.164 4.133-.115.448.018.963.174 1.394.067-.923-.588-2.425-.837-3.501-1.027 4.03-.675 4.854-.178 8.73.653a7 7 0 0 1-.135-.426c.233.032.235-.012.398.175l.144.162c.032.038.059.081.095.115.174.159 8.568 2.758 9.346 2.938 1.008.232 2 .33 3.032.36-2.685-1.374-5.222-2.46-8.098-3.36-.597-.187-1.197-.462-1.82-.544l-.193-.198zm-90.121.396c3.819 1.602 8.283 2.462 12.416 2.654l-.085-.043 1.136.095-.096-.044c.369-.015.77-.017 1.098.17.275.156.13.091.412.21l.148.06.117.103-.117-.103c.045-.21.001-.106.156-.306.567-.059 1.066-.105 1.636-.021.012.26-.003.175.044.399l.033.141-.087-.175.263.124-.198.047c1.774.328 3.629.434 5.426.6-4.883-2.488-9.588-3.646-15.043-4.015-2.403-.176-4.854.002-7.26.104m119.61-198.02.08.069zm-.164.319h.102zm-.353.75h.095zm-.14.25h.096zm-19.39.374h.117zm.032 1.126h.132zm-.013 1.431.123.069zm17.274.819h.121zm-16.823.25h.15zm-.748.308.077.038zm1.031.809.023.114zm16.147.114-.017.31.125-.035.038-.294zm-15.78 1.076.095.038zm15.44.414.075.108zm-.23 1.456.082.041zm-13.912 1.284.137.102zm13.889.02.061.083zm-1.196.077.09.037zm-13.948.933.129.328.21-.056-.153-.294zm1.915.49.022.26.184.036-.031-.312zm13.051.017.01.444.178.078.05-.473c-.172-.093-.09-.093-.238-.049m-1.223.116-.042.384.177.03.078-.406zm-11.233.993.109.092-.08-.099zm-1.446.142-.102.242.231.155.117-.277c-.164-.146-.076-.123-.246-.12m12.679.487-.031.303.165-.032.022-.299zm1.295-.115c-.002.32-.072.878.162 1.13.04.042.089.073.133.109-.016-.5-.027-.809-.295-1.24m-12.234.378.285.622c.197.053.123.072.227.03-.033-.301-.023-.366-.299-.541-.067-.043-.142-.074-.213-.111m-1.022 1.15c.071.413.087.79.4 1.1l.26.083c-.104-.489-.239-.885-.66-1.184m12.009.233c-.088.396-.174.677-.03 1.074l.222.177c.07-.349.17-.705-.014-1.039-.055-.099-.103-.137-.178-.212m-9.862.35-.038.325.134.039.139-.143.045-.218-.169-.068zm11.316-.249c.004.456-.044.962.152 1.38l.186.139c-.024-.571-.005-1.03-.338-1.519m-10.799 1.635c.028.324.027.639.29.874.053.048.114.087.172.131-.013-.347.028-.556-.227-.834-.061-.067-.157-.122-.234-.17m-1.81.255c.1.468.164.84.46 1.224l.37.164c-.128-.469-.227-1.097-.705-1.34-.04-.021-.083-.032-.125-.048m11.181-.008c-.024.479-.093.93.135 1.37.17.142.262.216.475.294-.065-.525-.074-1.074-.362-1.53zm1.731.649c-.014.59-.163 1.558.13 2.063l.222.099c.036-.596.074-1.53-.223-2.063zm-10.435 1.232.057.318.12.06.041-.377zm-17.336.079c.632.869 1.348 1.484 2.207 2.117a15 15 0 0 1-2.625-.922c.77 2.271 1.492 3.912 3.385 5.481l-1.281-.546c.168 1.394 2.856 4.322 3.977 5.2.714.56 1.432.905 2.266 1.239l1.283.202c-.134-1.058-.176-2.132-.324-3.184-.972-1.247-2.241-2.197-3.386-3.276.466.02 1.05.153 1.452-.082-.105-.635-1.132-1.033-1.124-1.58.351-.087.944.108 1.152-.12-2.006-2.98-3.54-3.789-6.982-4.53m17.872.22c-.008.048-.012.097-.022.145-.04.191-.089.255-.215.396.01.362.181.504.381.794.205-.269.234-.302.199-.658-.024-.244-.13-.437-.237-.654zm-1.801.316-.144.261c.084.016.168.046.252.038l.086-.276zm10.197.307c.02.417-.03.684.207 1.034.142.025.273.056.418.05-.03-.42-.018-.54-.26-.898zm-10.437.226c.104.444.188.658.538.962-.066-.358-.045-.614-.357-.854-.056-.043-.12-.072-.18-.108m3 .215c.019.516-.005 1.031.197 1.513l.276.236c.062-.517.077-1.145-.265-1.583-.066-.085-.124-.113-.208-.166m9.26.87-.02.11.09.007.006-.137zm-11.405.648c-.102.303-.18.43-.028.74.071.145.249.301.362.42.123-.295.225-.46.146-.784a1.3 1.3 0 0 0-.48-.376m.98.126c-.097.349-.327.864-.205 1.195l.06.007c.173-.3.468-.6.32-.959-.031-.078-.12-.177-.175-.243m.96.014c.055.44.031.774.297 1.134.206.012.277.004.483-.058-.07-.544-.403-.71-.78-1.076m7.763-.054c-.047.383-.14.58.059.92l.413.147c.016-.424.077-.584-.159-.946zm1.75 1.161h.14zm-8.127.241c-.07.94.133 1.616.506 2.469l.234.114c.225-.535.045-1.01-.166-1.526-.154-.376-.308-.746-.575-1.057m6.355.509c-.05.366-.11.512.043.854.168.079.337.166.511.231-.012-.332.06-.697-.23-.931-.074-.061-.233-.118-.324-.154m-8.921.26c.097.273.157.73.47.828.084.026.267.028.358.032-.254-.373-.431-.636-.828-.86m10.611.613-.078.17.138-.025.094-.17zm-8.86-.075c.044.385.052.467.277.776l.413.18c.033-.376.063-.406-.142-.716zm-1.21.447c-.132.326-.21.53-.081.878.08.217.22.43.339.628.148-.408.3-.788.066-1.203-.111-.197-.123-.17-.323-.303m8.374.363c-.154 1.023-.7 3.03-.515 3.952l.228.076c.171-.827.876-3.146.554-3.85zm1.464.889-.102.313c.217.108.256.103.488.09l-.09-.519c-.23.005-.132-.036-.296.116m-6.772-.125c-.112.296-.245.546-.122.862.285.738.784 1.33.823 2.155l-.101.251c-.281.047-.485-.039-.75-.12l-.145.178.219.45-.256.197.087.205c.296.244.523.451.907.545.187-.064.258-.032.34-.235.34-.846-.244-3.307-.626-4.114-.101-.216-.18-.26-.376-.374m-2.737.882c.027.354.014.772.3 1.03.101.091.187.133.301.198-.024-.358-.025-.728-.294-1.002-.096-.099-.194-.154-.307-.227m1.625.504c-.006.562.446 1.306.815 1.72.135-.455.194-.707.07-1.17-.215-.298-.399-.475-.775-.539q-.054-.007-.11-.01m7.542.09-.058.605.152.117.299-.063.164-.455c-.172-.219-.292-.166-.557-.205m-8.79 1.042.033.26.155-.012.014-.299zm8.752.031.09.528.147.072.173-.144.036-.242a3.4 3.4 0 0 0-.446-.214m-8.542 1.05.025.167.09.059.033-.202zm8.546.28h.148zm-3.064.118c.13 1.68.687 3.656 2.002 4.787.82.706 1.878 1.118 2.66 1.873 1.508 1.458 3.389 6.807 4.204 8.958-.38-.262-.778-.61-1.245-.66-.031.208-.062.133.037.268 1.063 1.451 5.156 4.269 7.011 4.485.318.037.518-.049.794-.18.07-.085.176-.182.209-.287-3.644-5.075-5.352-4.685-7.197-11.365q.084 1.092.193 2.182c-1.564-3.46-3.194-4.45-5.364-7.312.049.367.09.735.159 1.1-1.276-1.124-2.108-2.942-2.957-3.66-.153-.129-.317-.157-.506-.189m-3.446.921c-.118.566.26 1.317.579 1.806l.17.032c.108-.161.167-.33.35-.406.157.31.29.597.385.934l.188.111c.108-.328.073-.61-.081-.925l-.068-.13c-.164-.317-.199-.619-.239-.97-.239-.273-.522-.407-.883-.448-.193-.022-.227-.014-.4-.004m4.34 9.365c-.001.353-.036.739.212 1.026.079.092.142.128.237.193-.04-.36-.04-.85-.317-1.12-.04-.038-.088-.066-.133-.1m1.007.189c-.138.341-.262.591-.2.97.19.285.346.525.7.63.323.094.626.022.94-.056l.161-.157-.393-.44c-.238.001-.347.018-.551.143-.226-.046-.272-.007-.417-.198.067-.338.146-.46-.01-.776zm-42.1 28.426c-.343.29-.715.668-.745 1.145-.002.033.004.066.006.1l.103-.054c.314-.268.813-.59.901-1.002zm1.51 1.106h.153zm-.447.031c-.456 1.04-.35 2.68-.457 3.835l.769-.62c.409-.269.833-.527 1.226-.818-.386-.957-.767-1.678-1.538-2.397m-10.216.104c-.298.259-.491.332-.528.756-.055.62.14 1.468.35 2.05.312.167.695.027 1.041-.032l.295-.172c.07-.739-.648-1.858-.992-2.507zm6.28.873c-.202.436-.447.854-.449 1.344.15.192.274.276.473.402.641.405 1.242 1.257 1.684 1.872.23-.585.267-.867.012-1.463-.342-.798-1.06-1.593-1.72-2.155m11.382.992c-.345 1.547-.329 3.096-.209 4.672.558.763.976 1.57 1.447 2.384l.089.013c.302-1.926.81-4.37-.411-6.078-.254-.355-.565-.732-.916-.99m-14.98.38c-.089 1.06.242 2.268.321 3.348l1.031-.943.544-.343c.056-.315.018-.516-.16-.793-.319-.5-.86-.805-1.372-1.052-.087-.041-.275-.161-.364-.217m10.871-.008c-.016.2-.017.346.01.543.102.735-.584 1.227-.06 2.01.268.1.219.132.514.029l.19-.284c.306.018.174-.04.372.138.249.224.507.433.786.618l.396.184.144-.148c-.04-.864-1.137-2.39-1.85-2.904-.173-.125-.298-.146-.502-.186m-21.776.379c-.496.785-.9 1.67-1.131 2.57l.083.132.04.005c.416-.77.921-1.566 1.186-2.4-.1-.266-.025-.175-.178-.307m6.34.88c-1.109 1.127-2.165 2.413-2.969 3.778q.06 1.997.049 3.995l.085.034.082-.106.095-.148c.309-.493.452-.883.57-1.454.21-1.02.415-1.964 1.337-2.589.441-.298.924-.552 1.39-.811-.03-.755.092-2.04-.442-2.628zm26.265.175c.02 3.624-.289 7.224-.163 10.858.355-.517.719-1.028 1.037-1.569.71-1.396 1.533-2.844 2.044-4.323-.228-1.247-.707-4.138-1.94-4.787-.288-.151-.659-.16-.978-.178m-23.53.356c-.45.319-.914.703-1.007 1.282-.038.241.002.248.102.453l.159.052c.376-.32.818-.62 1.025-1.08-.027-.366-.06-.408-.28-.707m-8.044.948c-1.233 1.877-2.412 5.95-1.97 8.21.23 1.186.793 2.169 1.428 3.179l.211.312c.64-.595 1.15-6.837 1.192-7.991.034-.944.14-2.653-.511-3.406a1.6 1.6 0 0 0-.35-.304m13.83.044c.089.364.078.535.362.788l.549.061c-.204-.476-.445-.646-.91-.849m4.792-.052c-.026.116-.078.541-.138.614-.116.14-.573.289-.549.46l.267.182c-.139.54-.443.996-.12 1.543.045.076.1.145.151.216.3-.574 1.156-1.778 1.005-2.422-.054-.23-.42-.47-.616-.593m-6.34.432c-.334.34-.652.627-.574 1.154.048.32.376.916.63 1.115.268-.43.56-.858.775-1.317zm15.804.236c-.212 2.713-.56 3.888-1.404 6.459.814 1.633 1.86 3.138 2.676 4.767l.282.431c.377-.562.235-6.566.05-7.527-.234-1.222-.783-3.217-1.604-4.13m-13.274.087c-.051.61-.034 1.462.227 2.024l.175-.074c.176-.487.423-.979.352-1.504-.248-.369-.339-.334-.754-.447m6.024.747c-.275.483-.822 1.222-.684 1.796.043.18.213.31.37.397.09.049.221.074.322.097.387-.575.854-1.087.748-1.822-.271-.32-.372-.335-.756-.468m-11.55.218c-.34.067-.687.083-.927.358l.134.209c.415.01.506-.299.909-.219l-.122.139c-.18.213-.116.126-.255.391l.441.638c.163.247.354.65.602.803.128-.32.201-.427.072-.773-.094-.253-.28-.515-.42-.748.012-.264.023-.516.066-.777a2 2 0 0 0-.5-.02m27.905.201c-.524.874-1.02 1.75-1.36 2.715.726 1.764 1.432 3.278 1.797 5.168l.153.347c.485-.508.45-2.237.433-2.926-.027-1.118-.176-4.42-.974-5.264q-.023-.02-.05-.04m-29.668.254c-.52.544-.909.967-1.062 1.72.065.13.115.245.209.358.597-.484.85-1.056.995-1.799-.08-.242-.016-.16-.142-.279m15.624.49c-.074.466-.077 1.322.201 1.717.405.576.88.489 1.362.904.087-.62-.42-1.272-.782-1.758-.234-.314-.468-.625-.781-.862m-11.96.333c-.195.323-.318.507-.283.902.174.205.163.238.433.328.213-.275.427-.484.428-.85-.185-.238-.293-.291-.579-.38m-6.697.251c-.208.305-.362.507-.381.89.094.238.147.37.35.532.201-.323.377-.573.413-.964-.116-.294-.11-.303-.382-.458m9.023.135c-.25.322-.432.436-.37.877.099.712.856 2.12 1.435 2.514.126-.435.223-.774.178-1.229-.295-.476-1.237-.588-1.089-1.288.032-.15.127-.34.184-.478-.097-.266-.088-.26-.337-.396m2.09.395c.014.204-.03.376.124.526.192.188.385.225.635.302-.117-.335-.15-.54-.473-.736-.083-.05-.194-.07-.287-.091m2.122.637c-.144.146-.306.297-.389.49-.158.368-1.028 3.232-1.03 3.538l.135.093.063-.023c.287-.685 1.46-3.398 1.48-3.936zm-8.542.26c-.758.327-1.216.708-1.519 1.503-.112.297-.169.534-.113.852l.173.114c.78-.5 1.219-1.543 1.712-2.314-.166-.15-.077-.108-.253-.155m111.044-.009c-.178 1.87-.121 3.67-.553 5.509-.55 2.344-1.468 4.576-2.301 6.83-2.03 5.493-2.116 10.063-.683 15.72.627 2.476 1.55 5.189 3.117 7.24.817-2.521 1.976-4.729 3.108-7.109-.74 3.421-1.622 6.618-1.652 10.157 2.62-.077 4.883.994 7.117 2.275l.681.396.16-.063c.063-.288-.017-.433-.178-.67-1.309-1.916-4.633-2.79-6.77-3.182.193-1.515.345-3.048.587-4.555.16-1.002.48-1.998.558-3.011.031-.4.009-.716-.111-1.096l-.21-.19c-.52.038-.929.548-1.249.918-1.184 1.37-1.972 2.993-2.461 4.727l-.046-.239c-.674-3.46-1.965-6.65-2.35-10.203-.812-7.453 2-10.84 3.734-17.34.364-1.365.544-2.71.703-4.109-.484-.589-.683-1.521-1.2-2.005m-98.73.107c-.398.401-.558.687-.548 1.26.005.312.088.565.19.857l.123-.042.027-.054.017-.117c.08-.45.232-.677.49-1.046a.96.96 0 0 0 .186-.489c-.158-.207-.238-.283-.485-.369m-10.313.244c-.291.313-.472.425-.546.853.197.337.438.55.726.805q.024-.116.05-.23a1.8 1.8 0 0 1 .218-.539c.13-.233.153-.288.127-.546-.196-.19-.312-.267-.575-.343m-22.176.714c-.973 2.367-1.047 5.851-.032 8.216.64 1.495 1.796 2.588 2.966 3.675l.197.041c.095-.271.038-.46-.017-.73-.347-1.722-.888-3.413-1.279-5.129-.328-1.446-.574-4.335-1.147-5.465-.183-.36-.328-.443-.688-.608m17.178.317c.058.559.106 1.062.56 1.452-.093-.468-.156-1.15-.56-1.452m28.806.395c-1.638 2.958-3.567 5.95-4.78 9.105.684 2.248 1.164 4.822.543 7.144-.187.698-.637 1.722-.558 2.423.103-.009.216-.007.314-.04 3.494-2.464 4.87-5.436 5.599-9.613.465-2.662.711-6.292-.826-8.676a2 2 0 0 0-.292-.343m-30.403.716c-.595 1.029-.91 2.29-1.367 3.394-1.752 4.227-3.666 8.114-2.407 12.846.51 1.915 1.722 3.22 3.399 4.179.415.237.844.439 1.28.632l1.263.515c-.46-3.12.008-6.062 1.09-9.013.4-1.087.92-2.181 1.21-3.3-.337-1.406-3.68-8.606-4.468-9.253m7.284.012c-.295.455-.664.851-.714 1.395.156.319.317.584.525.872.268-.329.17-1.436.322-1.972zm-16.585.485c-1.235 3.628-2.36 8.76-.522 12.382.912 1.797 2.837 3.132 4.36 4.398l.16-.043c-.08-.864-.364-1.696-.483-2.555-.298-2.135.217-4.254.77-6.298-.715-1.476-3.233-7.112-4.285-7.884m29.338-.008c-1.499 3.034-3.144 6.083-4.151 9.323.332 1.351.814 2.655 1.183 3.995.758 2.753.773 5.362.475 8.18a27 27 0 0 0 2.317-.943c2.18-1.059 3.573-2.409 4.358-4.719 1.35-3.976.022-8.723-1.8-12.33-.602-1.192-1.379-2.602-2.382-3.506m-22.599.144c-.207.926-.5 1.905-.56 2.85l.112.086.1-.123c.356-.617.706-1.224.994-1.877-.198-.321-.376-.672-.646-.937m16.987.118c-.266.437-.298.53-.774.766.124.38.306.722.451 1.092l.25.237c.276-.333.209-1.451.222-1.905zm-9.806.477c-.197.316-.34.445-.325.822.201.168.335.25.587.324.17-.352.294-.475.218-.866-.161-.109-.299-.21-.48-.28m12.407.242c-.2.468-.464.918-.383 1.437.169.232.278.277.547.366.2-.52.364-.95.208-1.506-.125-.118-.219-.217-.372-.297m-6.592.81c-1.096.524-4.784 3.016-5.125 4.112-.108.346-.075.418.065.729.289.038.305-.004.527-.179 1.417-1.112 2.568-2.995 4.374-3.552.21.043.343.081.54.173 1.04.859 1.957 1.807 3.089 2.548l.14-.138-.079-.544c.21-.261.246-.27.567-.371.554.09 1.165.516 1.68.436.135-.28.128-.412.082-.716-.345-.296-.78-.263-1.21-.231-.637.047-1.238.172-1.855.334-.796-.832-1.76-2.095-2.795-2.6m-7.166.06c-.037.465-.045.47.252.816.273.318.817.751 1.247.788.14.012.266.004.407.001-.138-.25-.222-.32-.47-.437-.476-.223-.806-.608-1.07-1.053zm4.171.451.105.072zm85.722.246-.166.055c-2.213.751-4.22 2.165-6.37 3.093-5.034 2.174-10.49 3.095-15.941 2.353-1.335-.182-2.754-.425-3.98-1.006-1.146-.543-2.177-1.274-3.393-1.663q-.203-.068-.409-.13c-.506 2.705-.988 5.418-1.76 8.064 2.03-.044 3.348-.352 5.175-1.284 2.945 2.208 12.894 2.749 16.596 2.219q.622-.09 1.237-.214.616-.125 1.224-.284.607-.16 1.204-.353.598-.193 1.184-.42.585-.227 1.157-.487.571-.26 1.127-.551.557-.292 1.095-.615.539-.323 1.059-.675-.109-.58-.156-1.169-.047-.588-.033-1.177t.09-1.175.21-1.16c.166-.684 1.095-2.84 1.037-3.326zm-56.113.092c-.247 1.439-.454 2.91-.814 4.326-.299 1.178-.84 2.407-.972 3.612-.1.916-.004 1.898.033 2.816l.083.026.103-.156c1.488-2.92 3.046-6.466 2.014-9.79-.097-.314-.198-.608-.447-.834m-26.947 2.02c-3.677 3.02-5.898 7.908-6.364 12.599-.16 1.612-.281 3.767.799 5.096 1.016 1.249 3.782 1.583 5.292 1.728 1.719.037 3.457-.012 4.8-1.256 1.177-1.09 1.47-2.684 1.493-4.22.074-5.071-2.24-10.084-5.73-13.7-.132-.137-.102-.101-.29-.246m-28.545.33c.413 4.813.476 6.799 2.764 11.178.516.987 1.007 2.038 1.717 2.901.786.956 1.89 1.597 2.692 2.525l.078.004c-.01.021-.026.041-.03.064-.004.041.004.082.005.123-.453-.093-.812-.596-1.22-.566-.326.024-.652.062-.973-.011-.67-.153-1.35-.543-2.03-.735a140 140 0 0 0-7.41-1.865q.225.63.503 1.238t.608 1.189.709 1.132.804 1.067c.892 1.088 1.995 1.976 3.008 2.947 1.48 1.42 2.883 2.913 4.455 4.236.593.498 2.745 1.651 2.919 2.217.084.274.056.332-.013.617-.486.462-1.197.49-1.648.95l-.001.404c-.298-.162-.517-.448-.833-.576-.829-.337-2.607-.29-3.465-.065a1.14 1.14 0 0 0-.16.543l-.144.004-.146-.3c-.3-.061-.706.053-.965.218-.174.11-.313.234-.342.448-.011.083 0 .168 0 .253-.163-.105-.293-.268-.493-.213-1.5.406-3.52 2.908-3.604 2.933-.068.02-.133-.05-.2-.075l-.224-.08c-1.02.77-1.7 1.974-2.777 2.677-.31.201-.913.403-.942.794-.01.144.05.378.074.513l-.154.034c-.23-.202-.224-.254-.233-.575-.042-1.339.465-2.475.63-3.751.066-.51-.052-1.11.065-1.59.047-.194.18-.383.276-.554.13-.233.145-.424.17-.68.439-4.436 1.332-9.342-1.236-13.282 1.224 5.192.584 9.32-.27 14.473-.507 3.026-.456 6.123-.962 9.102 1.265-1.529 2.522-3.057 3.929-4.459.836-.833 3.511-2.794 3.965-3.52l-.046-.409c.197.212.109.098.264.341.301-.052.426-.18.66-.365 1.685-1.33 4.073-1.654 6.151-1.642.208.45.206.981.562 1.32.28-.112.36-.283.521-.524.441.09.261.461.703.422.184-.45-.461-.959-.068-1.263q.106.23.202.465l.109-.119c.977-1.022 2.548-1.638 3.788-2.293-4.524-.863-5.938-3.753-8.994-6.612-1.424-1.331-3.2-2.541-4.302-4.154-.288-.42-1.166-1.626-1.096-2.068 1.501.027 2.491.886 3.871 1.27 2.715.758 5.95 1.186 8.528 2.165-1.18-1.479-2.534-2.805-3.733-4.267-2.392-2.917-4.189-6.607-4.846-10.317.92 1.074 2.275 3.742 3.519 4.219l.296-.038c.104-.235.108-.129.015-.363-.556-1.395-2.05-2.603-2.855-3.886-.595-.946-1.368-3.15-2.145-3.769m79.746.266c-.6 2.435-1.366 4.838-1.953 7.266-.361 1.493-.516 3.041-.832 4.546-.259 1.234-.594 2.464-.786 3.71-.327 2.113-.177 4.39-.25 6.532-.116 3.397-.669 10.068-.06 13.163.318-2.28.31-4.617.362-6.914l.183-6.998c.027-1.487-.074-3.032.115-4.508a88 88 0 0 1 1.045-6.443c.382-1.86 2.761-8.962 2.293-10.252zm-73.947 8.49c1.356 4.32 4.528 8.965 8.609 11.11 2.728 1.434 6.188 2.417 9.225 1.434q.708-.233 1.39-.532l.925-.438c-4.567-2.152-9.351-3.727-13.664-6.403-1.119-.694-2.206-1.544-3.215-2.39-.805-.673-2.361-2.48-3.27-2.781m45.98.303c-3.679 3.661-9.321 6.635-14.109 8.629-2.273.946-4.605 1.667-6.822 2.756q.57.275 1.147.534c3.986 1.116 7.33.543 10.945-1.5 3.15-1.781 5.625-4.225 7.557-7.278.489-.773 1.055-1.673 1.307-2.558.079-.274.111-.324-.025-.583m30.97.55c-1.235.213-2.442.356-3.696.359-1.09 3.986-1.052 7.816-1.258 11.9-.142 2.823-.388 5.635-.563 8.455-.151 2.433-.187 4.867-.44 7.295l.111.148c.167-.128.28-.23.421-.39 1.124-1.33 2.228-2.752 3.47-3.974-.813-3.645-.435-14.642.497-18.265q.359-1.381.871-2.714c.307-.8 1.02-1.997 1.091-2.834-.247-.069-.268-.039-.505.02m28.949.052c-1.349.76-2.68 1.488-4.235 1.707-.7.098-2.083-.212-2.638.12-.234.14-.38.473-.457.724-.717 2.336.688 5.754 1.838 7.774q.727 1.279 1.586 2.473.86 1.195 1.841 2.29c.806.896 1.817 1.75 2.456 2.77-.907 1.715-5.337 9.092-5.356 10.338l.085.092c1.132-.738 2.237-1.522 3.376-2.248.828-.53 1.75-.986 2.521-1.593 1.516-1.192 4.579-4.922 5.109-6.778l-.102-.119c-1.442-1.667-2.525-1.703-2.348-4.292.172-2.504 1.711-5.192 1.777-7.116a1.37 1.37 0 0 0-.342-.985c-.62-.739-1.549-1.178-2.195-1.888-.79-.87-1.788-2.834-2.916-3.27m30.759 1.118c.513 3.768 1.714 6.155 3.971 9.137.699.923 1.363 1.84 2.288 2.554.517.4 1.127.694 1.71.983-.637-1.268-1.44-2.179-2.281-3.3-.575-.766-1.066-1.593-1.629-2.367-1.873-2.578-2.769-3.473-3.84-6.556.498.537.998 1.067 1.447 1.647 1.617 2.176 3.01 4.537 4.39 6.87.697 1.179 1.35 2.427 2.153 3.536.29.401.612.884 1.072 1.087l.06-.073-.237-.343.163-.175-.18-.08c-1.331-2.786-5.909-11.845-8.587-12.796a3.3 3.3 0 0 0-.5-.124m-76.537 1.761c-3.023 1.682-5.753 3.678-8.923 5.13-.794.363-3.983 1.613-4.383 2.087l.383.028c1.405-.387 2.788-.79 4.14-1.343 1.338-.546 8.829-4.173 9.303-5.146.073-.148.026-.243.001-.394-.182-.17-.275-.296-.521-.362m-6.175 1.424c-2.004.464-8.047 1.577-9.587 2.69-1.34.966-2.385 2.205-3.834 3.095.198.025.341.038.541.017 2.822-.73 11.391-3.729 13.246-5.687l-.04-.118zm67.596 1.549c-.158.424-.584 1.173-.413 1.606.246-.42.44-.751.521-1.236zm-61.045.188c-2.847 1.66-5.994 2.818-9.03 4.083-1.383.576-2.751 1.277-4.175 1.738-.636.206-2 .386-2.475.786.169.154.088.115.216.163 1.089.099 2.062.056 3.126-.208 1.632-.406 10.915-4.355 11.823-5.15.355-.31.56-.82.633-1.278zm-66.88.695c3.057 3.239 6.453 4.836 10.867 4.96.983.028 1.997.031 2.976-.056-3.29-1.867-7.285-2.252-10.815-3.523-1.047-.377-1.925-1.193-3.029-1.38m119.905.526-.01.166c-.131 2.44 3.104 8.257 4.549 10.387.41.605 2.456 2.765 2.526 3.276.068.494-.33.828-.66 1.126-2.063 1.855-4.693 2.851-6.663 4.883-1.139 1.175-2.29 2.511-3.236 3.846-.709 1.001-1.33 2.085-2.083 3.053-.219.28-.363.445-.686.596l-.139-.14c.206-.593.885-1.194 1.263-1.707.596-.81 1.147-1.662 1.543-2.589-.714.717-1.32 1.492-1.935 2.295a8.7 8.7 0 0 0-1.541 2.606c.345-.059.67-.189.986.04.09.064.204.224.274.315.32-.126 5.377-6.6 6.129-7.448q.681-.782 1.441-1.49.76-.707 1.589-1.33c2.195-1.651 3.458-2.045 4.924-4.51-.914-1.625-2.487-2.75-3.414-4.42-1.069-1.925-3.592-7.837-4.857-8.955m25.266 3.744c-.278 4.654.934 4.585 2.157 8.469.552 1.753.62 3.558.705 5.38-1.004-1.973-2.124-3.638-3.543-5.344q.124 2.279.293 4.555l.952.99c-.213-1.154-.31-2.304-.483-3.46l.106-.051c.464.807.954 1.632 1.323 2.488.353.817.607 1.735 1.052 2.504.49.847 1.231 1.553 1.808 2.344.88-3.383-.175-7.719-1.584-10.845-.6-1.331-1.412-2.607-1.93-3.968-.29-.764-.359-2.315-.725-2.907-.035-.058-.087-.103-.131-.155m1.315.867c.426 1.864 2.215 3.9 3.1 5.65 2.016 3.988 3.807 7.93 5.046 12.238.59-1.971.677-2.741-.124-4.667a26 26 0 0 1-.738-2.237q1.062 1.554 2.06 3.15l.918-1.65c-2.348-4.725-3.754-6.809-7.692-10.358-.764-.689-1.672-1.636-2.57-2.126m-119.882.316c-2.529 1.058-4.682.363-7.267.516-1.374.08-2.634.803-4 .954-2.593.287-5.006-.138-7.573-.157.513.267 1.026.564 1.56.785 3.974 1.632 9.005 2.843 13.15 1.1 1.118-.47 3.657-1.954 4.113-3.079.015-.037.012-.08.017-.12m-34.894.191c-2.115 4.557-4.917 8.911-5.324 14.033-.051.645-.158 1.39-.06 2.03.518-1.6.991-3.232 1.589-4.804 1.007-2.65 3.941-8.558 3.795-11.259m45.884.204c-2.089.26-4.109.327-6.212.29 2.593 2.415 6.013 3.202 9.495 3.089a28 28 0 0 0 4.133-.464c1.945-.338 4.585-.53 6.285-1.557l.036-.142c-.8-.56-3.82-.32-4.992-.375-2.624-.125-6.167-1.234-8.636-.862q-.055.009-.109.021m80.135 1.412.04.12c.601 1.693 2.738 3.339 1.743 5.298-.344.679-1.523 1.514-1.621 2.194l.338-.051 2-1.356c.336-1.58.477-2.883-.418-4.337-.424-.688-1.312-1.567-2.083-1.868m-87.366.327c-.066.444-.129 1.172.132 1.562.069.101.145.169.231.252.007-.559.009-1.07-.115-1.62zm99.937.26.144.311.123-.01-.057-.289zm-102.758-.044c-.106 1.93.034 3.862.078 5.792.043 1.839.01 3.69-.035 5.53 1.169.56 2.407 1.077 3.436 1.876-.018-1.112-.05-2.224.023-3.335l-.138-.173-.319-.004-.07-.255a2 2 0 0 1 .474-.259c.155-.783.097-1.695.022-2.486-.205-.236-.405-.338-.676-.484.019-.264-.036-.16.112-.307.233-.231.482-.451.492-.806.004-.144-.026-.261-.053-.399l-.18-.063-.459.235-.125-.105c-.012-.515.38-.943.672-1.34-.099-.323-.102-.456-.364-.68-.305.056-.394.17-.607.37-.118.112-.068.073-.243.128l-.03-.13c-.192-.795-1.054-1.887-.624-2.61l.112-.184c-.285-.332-.437-.266-.871-.302a5 5 0 0 0-.627-.01m2.36 1.421c-.22.28-.256.288-.257.638l.085.117.236-.338.112.082.575.05.059-.128c-.264-.169-.504-.337-.81-.42M84 152.347c-.36.19-1.008.443-1.16.841-.05.13-.056.219-.074.351l-.175.092-.13-.095c-.195-.14-.115-.09-.348-.196-1.455 1.093-3.026 2.24-4.745 2.87-.628.231-3.862.873-4.079 1.133l.129.242-.223.037c-.334-.309-.41-.352-.864-.328-.785.042-3.05.056-3.529.531-.046.381.08.621.23.96.714.026 1.922.176 2.56-.15l.303-.371.057.004c.058.145.07.328.231.381.35.114.952-.031 1.32-.074l.313-.338.135.137c.203.2.119.126.364.294.146-.22.172-.385.208-.645.922-.539 2.164-.412 3.166-.763 1.115-.391 6.284-3.246 6.63-4.221-.017-.244-.022-.458-.22-.633-.03-.025-.066-.04-.099-.059m12.092.805c.38.095.777.254 1.164.133-.263-.218-.503-.208-.832-.177-.112.011-.222.029-.332.044m2.248.2c.07.02.14.063.211.052zm-5.102.1c1.137 2.344 2.768 4.443 4.012 6.734 2.208 4.068 4.017 8.298 6.063 12.44-.919-.013-1.844-.006-2.759-.091-6.274-4.558-12.96-8.925-20.076-12.045-1.586-.695-3.117-1.393-4.824-1.738 1.556 1.759 3.543 3.277 5.267 4.892 2.878 2.697 6.775 7.055 9.95 9.026-1.85-.035-5.13-.363-6.826-.152-3.715-2.292-9.785-5.76-13.957-6.763 1.365 2.516 3.116 4.669 4.928 6.866-5.089-.002-10.24-.173-15.32.089l-3 2.901 92.192.014h31.385c5.577-.005 11.786.251 17.311-.156-.532-.772-1.059-1.548-1.625-2.294q-3.51-.14-7.021-.17c-3.706-.031-7.47-.554-11.165-.265 1.688-1.107 5.636-4.249 6.32-6.145l-.049-.195c-.83.267-1.566.818-2.359 1.185-.862.399-1.778.677-2.641 1.073-2.07.95-4.115 2.418-5.768 3.976-2.777.004-5.639-.123-8.404.108 4.402-3.305 8.955-9.638 11.494-14.495-6.751 4.329-13.223 8.783-19.017 14.37l-4.584.033c2.903-4.177 4.329-8.542 5.925-13.298.439-1.309 1.005-2.574 1.42-3.892-2.897 1.72-6.529 5.966-8.898 8.5-2.68 2.864-5.355 5.694-7.901 8.682q-2.808-.022-5.615.006 2.65-6.772 4.429-13.823c-4.183 3.787-7.743 9.098-10.858 13.795l-5.83-.003c-3.043-4.399-7.377-10.184-11.917-13.008 1.453 2.815 2.727 5.69 3.672 8.718.445 1.423.752 2.884 1.182 4.308l-6.343-.012c-1.389-1.575-2.605-3.3-3.97-4.901-3.4-3.983-6.9-7.611-10.755-11.145-1.13-1.036-2.59-2.626-4.068-3.125m18.093 3.176.088.198.193-.084-.182-.139zm-49.58.773c-4.493.972-9.191 5.522-11.59 9.272-1.718 2.687-2.865 5.76-4.022 8.718 1.245.007 2.49.027 3.735.019a31 31 0 0 1 1.9-2.956c.48-.637.945-1.27 1.513-1.833-.565 1.643-1.41 3.155-2.019 4.774 1.175.041 2.343.069 3.52.05 1.35-1.249 2.894-2.263 4.152-3.611 2.637-2.824 4.791-8.585 4.926-12.423.022-.63-.007-1.3-.425-1.805-.51-.265-1.126-.234-1.69-.205m3.374-.02c.032.504.076.99.17 1.486.677-.001 2.853.174 3.292-.238l.003-.065c-.087-.395-.115-.805-.44-1.078l-.323-.071c-.127.162-.2.277-.293.466-.882-.287-1.477-.474-2.409-.5m120.863.717c-3.33 2.946-6.251 6.041-8.63 9.806q1.784-.837 3.58-1.651c2.167-1.262 3.138-3.525 4.902-5.162.061 1.288.179 2.246-.667 3.308.505.128 1.142-.146 1.613-.348.183-.811-.321-5.191-.703-5.836-.038-.065-.054-.078-.095-.117m-93.267.056c.18.371.362.612.338 1.028l-.263.15c-.255-.141-.323-.315-.454-.566l-.13-.058c-.168.324-.08.628-.378.835l-.313-.025.2-.083-.147-.376c-.096.379-.195.755-.313 1.129-.16.081-.308.148-.478.212l.088.12.409.488.054-.023.127.276c.121-.15.238-.289.339-.453.418-.683 1.678-1.175 1.86-1.832-.203-.399-.321-.652-.783-.786q-.077-.02-.156-.036m85.642.284h.138zm-138.287 2.009c-2.57 5.023-5.36 9.929-7.96 14.936 1.548.006 3.099.033 4.646.007q-.254-2.453-.447-4.912c.502 1.177.854 2.436 1.168 3.675l.382 1.26 2.753-.004c.158-1.533.297-3.072.491-4.601.26 1.529.493 3.067.533 4.62l3.386-.018c-.2-4.548-.86-7.888-2.957-12-.478-.938-1.092-2.164-1.88-2.876-.035-.032-.077-.058-.115-.087m175.813.516c-2.383 4.18-3.083 9.912-2.626 14.64l3.1-.003c-.094-1.525.104-2.87.434-4.353.324 1.302.446 2.678.627 4.007l.07.24c1.408.335 4.973.087 6.633.113-1.703-3.18-3.472-6.326-5.215-9.485-.86-1.558-1.852-3.876-3.023-5.16m-146.296.15 1.137.562c.4.98.744 2.051 1.292 2.956 1.364.53 2.687.917 4.147 1.089.827.096 1.718.107 2.53.281 1.155.248 2.294.892 3.416 1.29l-.854-.886a55 55 0 0 0-2.75-2.275c-.413.117-.882.302-1.311.26a8.6 8.6 0 0 1 1.296-.423c-.848-.77-1.74-1.52-2.525-2.354l-.22-.017c-1.419-.102-2.838.116-4.244.014-.676-.05-1.247-.41-1.915-.496m51.864.184.025.337.188.113.163-.063-.152-.37zm-56.626.016c-.09.442-.198.666-.036 1.093.468.311 1.032.272 1.554.446.098-.359.18-.606.072-.978-.383-.443-1.042-.464-1.59-.561m1.691.325c.18.297.386.692.644.922.487.433 2.028 1.202 2.666 1.592-.267-.87-.545-1.675-1.38-2.147-.615-.348-1.24-.363-1.93-.368m52.269.056c.22.3.462.75.792.905l.08-.022c-.001-.26.05-.25-.146-.452-.211-.217-.452-.317-.726-.431m-54.306.955c-.086.54-.265 1.119-.029 1.635l.274.255.23-.303c-.085-.333-.266-.376-.535-.568l.195-.293c.335-.025.797.091 1.085-.055-.38-.365-.724-.506-1.22-.671m78.673.041c-.667 1.33-2.616 7.972-2.175 9.251q.029.08.062.16c.224.086.175.123.367.026.403-.201.78-.65 1.02-1.026a2.9 2.9 0 0 0-.13-1.086c.16-.483.499-.878.76-1.31-.04-.17-.014-.246-.167-.348-.224-.15-.476-.221-.729-.306l.104.067c.056-.013.111-.032.168-.038.331-.039.401.105.707-.127.205-.78-.209-2.541.012-3.769l.011.124c.077.707.409 2.678.952 3.115.075-.374-.68-4.427-.874-4.657-.025-.03-.059-.05-.088-.076m-75.874.544.027.18.388.037-.007-.227c-.155-.014-.254-.024-.408.01m26.412-.013c-.29.305-.47.416-.55.835l.15.22c.23-.319.46-.53.5-.924zm98.45.858c-.112 1.93-.288 3.84-.454 5.765l.084-.176c.413-.867.508-1.892.982-2.694l.158.02c.154.355.217.665.27 1.048-.032.862-.084 1.73-.07 2.592.236-.72.457-1.443.771-2.133-.734-1.472-1.141-2.924-1.74-4.422m-5.073.771c-.343.214-.561.275-.724.653.17 1.371.266 2.722.248 4.104-.472.579-.812.9-.796 1.694.36.18.477.312.88.23.457-.98.703-5.614.392-6.68m-120.226.105c-.274.503-.458.815-1.047.963-.598.15-1.347-.018-1.941-.135-.446.847-.931 1.693-1.312 2.57.378.002.902.054 1.238-.121.044-.023.316-.237.34-.244.168-.05 1.355.459 1.652.512.649.116 2.585-.102 3.269-.263a1.5 1.5 0 0 1-.309.508c.716.596 1.128 1.192 1.564 2.013l1.162.603c-.871-2.002-2.86-3.89-3.209-6.005l-.195-.175-.383.272c-.322-.105-.561-.3-.83-.499m43.129.895c.048.668.461 1.373.966 1.815.055.048.116.09.174.134-.181-.587-.605-1.627-1.14-1.949m76.086 1.195-.125.237.255-.062.086-.166zm-.18.885c-.177.47-.27.77-.052 1.255.09-.298.296-.769.157-1.071-.029-.065-.07-.123-.106-.184m-104.257.973c.34.408.743.46 1.248.505.413.036.9.102 1.287-.07-.73-.365-1.727-.432-2.535-.435m33.797.431c-.418.318-.684.544-.934 1.01.29-.128.546-.316.808-.493l.064.06c-.355.465-.767.778-1.226 1.132l-.1.163c.123.298.133.318.404.49.51.074 1.067-.226 1.538-.407-.08-.701-.11-1.373-.554-1.954m-1.001.228h.125zm71.332.216.045.138.067-.046-.031-.133zm-72.963.148-.094.185.225-.04.13-.23zm71.389.044-.195.227c.195.21.074.142.368.197l.12-.532c-.224.036-.129-.006-.293.108m-70.752.606.134.188.254-.095-.123-.18zm69.632.364-.148.225.307-.077.065-.209zm-97.74-.047c-.282.141-.403.13-.54.424.198.32.672.493 1.004.663l.335-.312.004-.265c-.244-.249-.495-.365-.804-.51m100.23.284-.025.1.1-.026.03-.098zM63.81 181.285c-1.351.404-2.401 1.025-3.093 2.31-.841 1.565-1.046 4.183-.47 5.87.919 2.692 5.745 3.44 5.036 5.208-.168.418-.675.692-1.088.79-.771.184-1.615-.197-2.25-.608-.55-.355-1.012-.833-1.455-1.31-.28 1.454-.532 2.933-.958 4.354 1.514 1.43 3.121 1.76 5.126 1.758 1.335-.149 2.452-.614 3.296-1.699 1.076-1.383 1.562-3.56 1.315-5.285-.207-1.45-1.069-2.64-2.242-3.481-.874-.626-2.978-1.362-3.305-2.42a.98.98 0 0 1 .14-.846c.309-.42.978-.558 1.465-.554.97.009 1.982.729 2.68 1.352q.475-2.14.892-4.291c-1.68-.977-3.143-1.285-5.09-1.148m12.797-.012c-2.039.569-3.546 1.684-4.598 3.54-1.561 2.753-1.714 6.592-.864 9.593.548 1.93 1.71 3.736 3.511 4.71 1.16.627 2.22.716 3.5.62 1.861-.408 3.319-1.3 4.35-2.94 1.72-2.735 1.98-6.682 1.248-9.766-.462-1.944-1.526-4.007-3.273-5.074-1.224-.748-2.491-.82-3.874-.683m102.46.15c-1.9.23-3.433.907-4.653 2.438-1.862 2.335-2.238 5.598-1.898 8.478.268 2.265 1.15 4.54 2.983 5.993 1.172.929 2.594 1.407 4.09 1.23 1.263-.151 2.407-.706 3.345-1.557l-.061-2.099c-.017-.944-.007-1.896-.059-2.839-.97.94-2.026 2.085-3.49 2.088a2.4 2.4 0 0 1-1.77-.79c-1.097-1.186-1.174-3.254-1.055-4.788.09-1.17.428-2.5 1.377-3.274a2.28 2.28 0 0 1 1.77-.5c1.331.175 2.29 1.26 3.148 2.193.084-1.709.148-3.465.043-5.174-1.171-.877-2.32-1.267-3.77-1.398m-45.946.254c-.916 3.19-1.613 6.43-2.415 9.65-.668 2.681-1.51 5.412-1.908 8.147 1.102.002 2.205.02 3.306-.001q.338-1.479.612-2.97c1.185-.008 3.108-.227 4.215.046l.641 2.949 3.932-.005q-.983-4.511-2.084-8.995c-.697-2.944-1.35-5.906-2.247-8.797zm-47.17.059c-.048 3.967-.54 10.674.684 14.302a5.8 5.8 0 0 0 1.336 2.21c1.063 1.08 2.528 1.547 4.022 1.527 1.448-.02 2.813-.524 3.807-1.6 2.531-2.739 1.812-8.1 1.755-11.572l-.007-4.863-3.706-.002c-.004 2.189.46 11.698-.906 13.054a1.28 1.28 0 0 1-.896.403c-.484.021-.984-.27-1.308-.607-.463-.48-.705-1.13-.814-1.778-.216-1.27-.052-2.728-.047-4.024l-.014-7.042c-1.301-.004-2.605-.023-3.907-.008m13.45-.01.006 4.282 3.488.003-.008 13.453c1.239-.002 2.479.01 3.717-.007l.01-3.27-.025-10.058 3.309-.022.028-4.371c-3.5-.006-7.026-.105-10.525-.01m12.391 0c-.137 5.917-.06 11.854-.036 17.772l3.829-.003.036-6.876c1.245-.01 2.496-.046 3.742-.023q.12 3.45.122 6.903l3.505-.022.216-.123c.313-1.333.075-3.463.075-4.88l-.043-12.759-3.812.02c.019 2.05.074 4.106.01 6.154l-3.866.005-.01-6.17zm31.307-.006c-.002 5.926-.06 11.859.011 17.783l3.792-.011.008-6.84 1.872-.01 2.088-.02.006-3.975c-1.317.009-2.637.001-3.954.035-.002-.94-.016-1.88-.004-2.818l4.455-.023.003-4.1zm10.15.029-.029 17.75 3.909-.011c-.033-2.34-.23-4.805.017-7.13 1.166 2.278 1.762 4.802 2.784 7.143l4.334-.01c-1.104-2.498-2.312-4.99-3.303-7.534 1.271-.834 1.949-1.874 2.237-3.385.312-1.628.211-3.712-.753-5.104-.724-1.046-1.84-1.449-3.053-1.642-1.944-.308-4.173-.096-6.143-.077m12.758-.008-.014 17.75c1.336-.004 2.728.064 4.058-.031q.058-8.862-.015-17.724c-1.341 0-2.688-.021-4.029.005m21.318.014q-1.442 5.938-2.732 11.911c-.432 1.91-1.088 3.867-1.27 5.813 1.196-.013 2.395-.003 3.589-.045q.425-1.727.76-3.475c1.224.01 2.451.04 3.675.013.427 1.052.63 2.201.996 3.278l3-.02c-.56-2.944-1.38-5.857-2.148-8.754-.771-2.913-1.506-5.833-2.333-8.731zm-16.344 34.606q-.048.022-.098.04c-1.204.452-8.855.107-11.122.394-3.304.418-6.226 2.079-9.048 3.745-5.69 3.358-9.474 5.978-13.535 11.35-1.174 1.552-2.359 3.224-3.214 4.98-.166.34-.435.845-.351 1.236.008.039.027.075.041.112.383.097.616-.02.95-.22.918-.549 1.734-1.356 2.535-2.063 2.142-1.892 4.133-3.975 6.3-5.828 2.285-1.916 5.219-4.012 8.105-4.891l.183.155.097-.108-.13-.113.032.222.14-.194-.099.06c-1.093.656-2.261 1.165-3.353 1.832-2.759 1.682-4.901 3.835-7.084 6.179 4.248-1.815 8.282-4.03 12.448-6.006 1.318-.625 2.695-1.114 4.015-1.73 1.462-.684 2.87-1.481 4.317-2.193 1.624-.8 3.256-1.543 4.74-2.594 1.662-1.177 3.04-2.724 4.196-4.393zm-120.792 3.702c.19 1.142 1.127 6.249 1.805 6.846-.218-1.73-.856-5.42-1.806-6.846m42.913 5.266c-.871.987-1.918 1.626-3.031 2.312q1.556-.091 3.113-.016 1.557.074 3.097.314l2.92.409c-2.04-.986-4.162-1.835-6.099-3.019m111.6.063c-.711.578-.922 1.698-1.014 2.602-.057.553.02 1.15.061 1.703l.129-.007.058-.089c.132-1.281 1.29-2.905 1.083-4.085zm-147.88.328c-.562.836-1.006 1.651-1.102 2.675-.053.55-.01.724-.287 1.256l.477-.07c.222-.332.977-3.42.912-3.861m104.556.142c-2.132.99-4.458 1.7-6.48 2.89.901-.147 1.775-.37 2.659-.598 2.03-.445 4.09-.419 6.156-.554-.554-.463-1.662-1.623-2.335-1.738m-44.276.753c.818 1.726 2.72 3.74 3.811 5.564.109.181.073.12.285.262l.16.001c-.525-1.673-2.521-5.013-4.165-5.792q-.045-.02-.091-.035m-74.934.472.159.338.16.02-.058-.393zm9.73.133c-.025.38-.1.75.096 1.095.136.065.208.11.361.11-.012-.415-.039-.847-.375-1.148-.025-.022-.055-.037-.082-.056m-8.295.655c.23.44.956 1.45 1.439 1.54.174.032.48-.049.661-.074-.045-.344-.029-.38-.332-.587-.472-.322-1.218-.722-1.768-.88m8.975.31c-.109.77-.203 1.523.12 2.252.05-.625.198-1.713-.12-2.252m186.382.084c-1.304.298-2.486.985-3.584 1.733 2.692-.597 5.329-1.144 8.055-.345l3.041.792.402-1.424c-2.561-.599-5.28-.887-7.914-.756m-151.382 1.127c-1.471.522-2.912 1.242-4.295 1.965.943-.022 4.508-.315 5.16.247.17.147.316.35.453.526.52.02 1.368-.029 1.81-.317a13 13 0 0 0-1.18-.153c.713-.609 3.502-.367 4.502-.372 1.147.003 5.153.264 5.97-.129-.122-.29-.355-.366-.63-.49-2.656-1.192-8.889-1.538-11.79-1.277m-41.861.061-.647.279-.047.168.326.288c.264-.098.526-.132.694-.363-.109-.183-.147-.246-.327-.372m9.048.229c.089.168.026.14.115.168zm155.55.251h.101zm-154.87-.018-.139.457c.28-.007.168.016.343-.034l.232-.165c-.187-.198-.196-.18-.437-.257m155.364.143h.104zm-3.17.252c-.453.243-.717.588-.875 1.082a1.56 1.56 0 0 0-.055.789l.233.309c.428-.212.492-.351.665-.8.146-.379.21-.76.212-1.163zm2.302.249h.121zm-195.877.113c-1.045.075-2.524.01-3.439.517l-.111.225c.142.226.154.307.432.367.994.213 2.433.005 3.468 0q2.935-.03 5.868.1c1.07.059 2.142.133 3.213.166-2.06-.984-7.18-1.494-9.43-1.375m226.628.124c-2.798.224-5.877.587-8.54 1.482l5.88-.365c1-.025 7.494.103 7.947-.173l.141-.43c-.15-.282-.27-.326-.569-.41-1.285-.361-3.51-.285-4.859-.104m-188.083.394-.022.387.171-.134.044-.244zm2.68-.117.132.164.141-.115-.114-.132zm68.004-.139c.135.508.227.97.574 1.385l.271.128c.023-.432.106-.868-.117-1.258-.244-.199-.421-.215-.728-.255m-73.745 1.122c-.139.365-.199.378-.05.731l.187.13.273-.51c-.129-.284-.143-.23-.41-.351m156.948.227-.034.147c-.349 1.48-1.283 3.068-.99 4.629.191-.257.21-.443.26-.75.04-.217.085-.265.228-.443.352-.44.392-.93.45-1.471.075-.705 1.206-1.013.632-1.686-.137-.16-.375-.302-.547-.426m-82.52.506-.034.338.205-.052.005-.302zm-68.784.365-.065.41.21-.005.033-.371zm144.692-.038.087.038zm-77.998-.064c.001.188-.042.31.074.463.472.62.64 1.366 1.029 2.032-.084-.816-.19-1.553-.576-2.287a.95.95 0 0 0-.527-.208m39.505.125c-6.232.17-11.34 1.668-17.137 3.783-1.475.537-3.09 1.004-4.484 1.723 1.794-.146 3.81-.139 5.554-.578 2.58-.65 13.041-5.162 14.972-4.019l-.056.129c-.43.057-.817.09-1.205.292l.054.134c.392.055.768.088 1.164.102.64.022 1.096.23 1.66.514-.752-.029-2.018-.224-2.64.266.826.578 3.407.25 4.685.808l-.081.108c-.619.055-1.19.02-1.804-.039-1.849-.02-3.715-.064-5.543.255-1.644.286-3.255.82-4.905 1.037.937-.016 1.82.002 2.749.14q.074-.056.149-.11a2 2 0 0 1 .417-.232c.181.187.036.42.222.513.656.326 4.299.357 5.216.371 1.444.023 2.88-.279 4.314-.412 1.12-.105 2.266-.07 3.389-.066 1.65.007 3.293.035 4.938.188 1.394.13 2.806.38 4.207.4 1.382.019 2.752-.143 4.12-.316-3.933-2.072-7.874-2.843-12.16-3.778-2.595-.565-5.118-1.183-7.795-1.213m-141.671.502c1.851.133 3.815.292 5.664.138-1.545-.437-4.063-.43-5.664-.138m212.816.085-.164.16c.33.144.747.017 1.093-.036l.272-.066c-.415-.082-.78-.077-1.2-.058m-175.628 1.056-.107.16.165-.045.128-.17zm142.263-.012h.097zm.127.25h.09zm35.799-.005c-3.906.12-6.586.771-10.312 1.725-2.43.623-4.516 1.129-6.78 2.294 1.817-.066 5.118.396 6.576-.905.346-.09.692-.213 1.05-.216l-.427.447.036.111c.292.017.497.012.779-.072.101-.326-.16-.38.161-.554.159.189.206.303.292.528.425-.006.768-.256 1.186-.319.801-.12 1.63-.06 2.44-.176 3.281-.472 7.68-1.458 10.68-2.827-1.893-.04-3.787-.097-5.681-.036m-35.667.256h.102zm.127.25h.1zm.121.25h.084zm13.106.75h.138zm4.5 1.125h.153zm-.227.125h.13zm-.622.163-.424.312c.036.05.064.113.119.143l.318-.14c0-.1.01-.217-.013-.315"/><path d="m126.093 68.114-.14-.169.132-.033zm.29 1.902c-.183-.087-.083-.02-.259-.252l.136-.208.143-.023.1.147zm4.931 5.487-.107-.109zm-5.304 22.091.05-.079zm20.665 11.813.074.062zm35.398 4.067-.072-.067zm-.013 6.759-.06-.076zM62.739 138.129l-.05-.082zm121.864.395.093-.082zm-.26.326.008-.117.252-.209c-.094.282-.007.174-.26.327M62.99 154.908l-.09-.038zm25.033.53-.09-.066zm15.68 1.676c-.45-.102-.9-.41-1.304-.63.193.009.41.009.598.054.382.09.498.274.706.576m40.46 1.868c.386-.146.508-.163.77-.495.097-.498.096-.979.1-1.484l.14.043c.054.385.006 1.019.208 1.325l.14-.066c.088-.369.095-.603.357-.883.288-.076.29-.041.556.044-.275.5-.645.916-.671 1.491.225.28.25.34.633.37.342.026.927.01 1.227-.138.161-.33.217-.64.558-.799.297.27.6.563.95.765.02.228.046.12-.136.345-.305.376-.705.435-1.153.535l-.064.15.438.134.077.188-.154.211-.397-.231c-.077.224-.074.322-.082.553-.01.29-.021.552-.23.78-.351.386-1.097.702-1.556.965-.596-1.052-1.06-3.004-1.711-3.803m-39.547-1.642-.057.047-.046-.115.077-.038zm5.299.908c-.403.105-.833.184-1.248.096-.647-.138-.997-.633-1.344-1.15.064.02.13.035.19.062.527.235 2.092.675 2.402.992m-37.756-.564.058-.183zm-.145.19.145-.19zm-15.729.268-.052-.086zm126.89 4.39c.604-.9 1.646-2.542 2.638-2.986-.057.932-.804 1.497-1.476 2.09-.367.324-.728.664-1.162.896m-62.055-2.402-.098-.103zm0 0 .06.214zm1.02.742.329.031zm.329.031.09.108zm.812 1.189.06-.216zm-49.021.193c-.162.044-.07.043-.27-.058l.115-.05zm-1.282.043.147-.047zm-.838.467-.034-.136c.213-.268.544-.258.872-.33-.242.215-.546.33-.837.466m110.998-.195.036-.068zM74.78 163.868c-.34.114-.499.159-.862.089l-.044-.167.347-.386-.036.128c.409-.273.37-.385.493-.845l.154.137c.073.229.149.447.244.666.316.054.517.072.775.277.022.217-.013.243-.097.436l-.162.06a1.3 1.3 0 0 0-.568-.323zm17.377-1.051-.604.146-.149-.158c.254-.052.496-.01.753.012m-19.386.989c-.114.055-.243.01-.368-.004-.17-.195-.179-.325-.207-.577l.315-.349c.235.078.499.118.742.172a2 2 0 0 0-.378.539zm-.177-.377.026.088zm73.93-.033-.159.09a6 6 0 0 0-.425.272c-.24-.16-.225-.219-.335-.473.264-.249.332-.377.698-.43.168.21.177.272.221.54m-69.899.882-.374-.103c-.172-.31-.086-.425-.027-.759l.405.162c.153.317.073.37-.004.7m20.921 2.274.053.048zm-30.781 1.252c-.704-.118-1.157-.31-1.812-.567-.448-.177-.42-.196-.874.006-.245-.088-.281-.114-.45-.313.36-.238.896-.196 1.327-.23l.13-.046c.901.253 1.871-.05 2.816.124l.013.241c-.243.379-.762.577-1.15.785m45.769-.62-.38.026-.086-.11c.489-.25.995-.332 1.529-.44l.545-.035.04.068c-.524.252-1.085.359-1.648.49m-.12.773-.252-.012.192-.126.27.005zm1.198.928.529-.288c-.204.21-.244.219-.53.288m89.953 1.262-.061-.111zm-88.351.732-.038-.084zm72.95 21.793c.672-2.711.936-5.944.913-8.74.484.726 1.338 7.357 1.443 8.56-.215.221-.315.159-.613.181zm-29.244-3.381c-.249.17-.538.34-.827.429-.313.097-.472.04-.75-.103-.64-1.04-.269-3.285-.223-4.523.458.074.978.124 1.383.364.477.283.829.777.951 1.316.195.853-.108 1.786-.535 2.517m-80.94 5.886c-.433.026-.867.05-1.272-.133-.742-.333-1.246-1.11-1.523-1.846-.656-1.743-.623-4.216.191-5.904.387-.8.801-1.233 1.637-1.532.36.012.723.02 1.07.127.714.222 1.242.82 1.561 1.477.754 1.55.782 4.163.204 5.78-.374 1.046-.866 1.579-1.868 2.031m55.515-2.018c.448-2.07.874-4.159 1.401-6.211.398.424 1.235 5.146 1.275 6.09-.433.208-.979.14-1.45.136zm-93.816 21.622-.043-.121zm148.283 1.046-.062-.074zm-74.867.602-.063-.176zm-45.541.027.055-.07zm45.541-.027.128.045zm102.551.263.075-.064zm-71.347 1.364.06-.045zm55.73.116-.076-.038zm-63.814 8.852c.03-.11.055-.222.088-.333.44-1.498 6.65-7.863 7.996-8.635-1.233 1.512-2.766 2.806-3.904 4.393l-.128.032.128-.032.168.141c-.156.236-.314.368-.529.544-1.233 1.01-1.851 2.415-2.867 3.575-.187.214-.452.412-.751.372-.069-.01-.134-.038-.2-.057m80.949-8.821.058-.075zm-24.944.499-.065-.065zm-135.558.63.064-.077zm-10.714.363-.047-.193zm91.459.265-.153.123.024-.41.206.014zm-91.459-.265.252.258zm142.183.055-.118-.102zm-51.245.256-.078.022-.118-.132c.11-.01.036-.014.196.11m51.245-.256.088.08zm-141.931.204.06.165zm153.56.27-.172.046-.083-.226.206-.099zm-74.304.371c-.243.014-.46.022-.703.002.02-.08.028-.167.074-.235l.499-.322c.1.217.112.323.13.555m-79.195-.476.074.077zm79.195.476.02.156zm-.039 3.11c-.32-.66.029-2.096.14-2.853.359.936.065 1.91-.14 2.853m79.976-2.504-.076-.056zm4.524.071.058-.144zm-141.966.446.174-.063zm-.076.161.075-.161zm-.073.065.073-.065zm65.856 2.755-.108.032.073-.13.23-.076zm57.901-.048.249-.078zm-.098.296.098-.296zm-.084.038.084-.038zm-149.796.215-.048-.055zm0 0 .134.298zm-11.801.232-.13-.047zm0 0c.899.222 7.917 4.662 8.71 5.383-.456-.11-.87-.38-1.311-.546-.282.147-.258.31-.351.6-.326-.147-.043-.753-.572-1.136-2.084-1.51-4.476-2.68-6.476-4.302m168.109.268-.107-.072zm-.576.186h-.014l-.098-.108zm-153.126.055-.105-.07zm184.742.265.196-.048zm-201.745.151-.058-.073zm201.641-.039.103-.113zm-170.06.651.106-.19zm-.088.112.088-.113zm117.911.145-.086-.067zm4.826-.033-.151-.037zm-111.124 1.452-.06-.095.026-.007zm53.117.498c-.211-.042-.107.008-.287-.195l.117-.494c.109.086.185.193.273.3zm-74.007.029-.096-.048zm86.598.384-.237.013.142-.238.25-.02zm47.625.464-.139-.314.16-.004.196.134zm-145.132.797.176.097zm.176.097.067.061zm19.522.11-.072-.047zm-22.59 2.662c-.075.022-.157.008-.234.007l.138-.244.24-.011zm58.165 1.226-.067-.038zm12.317-.166.45.131-.105.311-.162-.046zm43.713 1.199-.167-.066zm44.881 1.051c-.217-.331-.453-.637-.58-1.014l.025-.046c.314.112.559.127.75.41-.055.228-.104.433-.195.65m-44.881-1.051.053.181zM46.117 237.12l.126-.096zm-.174.163.174-.163zm-.11.113.11-.113zm53.698.56-.048-.133z"/></svg>