<svg xmlns="http://www.w3.org/2000/svg" viewBox="0 0 256 256"><path d="M121.03 0h15.307l.117.02c2.367.377 4.876.372 7.272.568 3.262.266 6.534.73 9.768 1.219 22.457 3.397 44.515 10.364 64.127 21.983 2.656 1.573 9.62 5.283 11.259 7.48 2.267 3.042 4.138 7.223 5.801 10.648q1.772 3.74 3.403 7.543 1.63 3.804 3.117 7.666 1.486 3.862 2.826 7.777t2.531 7.879 2.233 7.968 1.931 8.047 1.628 8.114 1.32 8.168c.76 5.317 1.333 10.73 1.75 16.083.193 2.438.168 5.847.58 8.142v9.785l-.02.116c-.405 2.606-.352 5.307-.617 7.933-.473 4.69-1.326 9.485-2.35 14.083-6.246 27.993-23.56 52.844-46.494 69.816q-1.518 1.104-3.066 2.163-1.549 1.06-3.128 2.074-1.579 1.015-3.186 1.983-1.608.968-3.243 1.889t-3.295 1.794-3.347 1.699-3.394 1.6-3.44 1.502-3.48 1.402-3.52 1.3q-1.77.625-3.557 1.198t-3.59 1.093q-1.803.522-3.62.99-1.817.47-3.647.885t-3.671.777-3.692.673q-5.094.898-10.243 1.395c-2.12.192-4.477.127-6.548.545h-12.31c-2.323-.42-4.869-.368-7.231-.57-3.594-.308-7.17-.84-10.733-1.398-18.48-2.885-37.886-10.568-53.038-21.58-23.27-16.912-41.15-41.005-47.957-69.196q-.985-3.991-1.714-8.037-.728-4.046-1.197-8.13c-.279-2.317-.274-4.71-.652-7.006l-.02-.117v-12.668c.521-2.68.47-5.605.7-8.331.335-3.98.885-7.99 1.491-11.935 3.507-22.813 9.3-45.131 19.532-65.917 1.463-2.972 3.415-7.47 5.374-10.035 1.49-1.952 10.236-6.71 12.794-8.108q1.797-1.001 3.617-1.962 1.82-.96 3.66-1.88t3.702-1.797 3.742-1.713 3.78-1.628q1.898-.793 3.814-1.542 1.917-.75 3.85-1.456t3.88-1.369 3.911-1.28 3.94-1.192q1.975-.573 3.964-1.102t3.989-1.013q2-.483 4.01-.922 2.01-.438 4.03-.831t4.048-.74 4.064-.65q5.487-.802 11.012-1.293c2.647-.21 5.375-.223 8-.584zm2.553 5.93c-24.17 1.018-46.037 5.695-68.041 15.818q-6.66 3.02-13.047 6.582c-2.392 1.354-9.208 4.865-10.697 6.572-1.793 2.055-5.125 9.502-6.462 12.377-12.6 27.099-21.706 68.316-18.762 98.191q.138 1.39.31 2.776t.379 2.767.447 2.757.515 2.744.583 2.732.65 2.716.718 2.699.784 2.68.85 2.661.916 2.638.98 2.615 1.046 2.59 1.109 2.564 1.172 2.534 1.234 2.505 1.297 2.474q.663 1.23 1.357 2.441.693 1.213 1.417 2.407.723 1.194 1.476 2.37t1.535 2.334 1.591 2.295 1.648 2.255 1.704 2.213 1.757 2.17 1.811 2.126q.919 1.053 1.863 2.081.944 1.03 1.914 2.034.97 1.005 1.964 1.986t2.012 1.937 2.06 1.886 2.105 1.835 2.15 1.782q.911.744 1.836 1.47.925.727 1.863 1.437.938.709 1.89 1.4.951.692 1.916 1.365.964.673 1.941 1.328t1.966 1.291q.99.637 1.99 1.254 1.001.618 2.014 1.216 1.012.599 2.036 1.178 1.023.58 2.058 1.14t2.078 1.1q1.045.54 2.1 1.06 1.055.521 2.119 1.022 1.064.5 2.138.98 1.073.481 2.156.941t2.174.9q1.09.439 2.19.857 1.099.42 2.206.817 1.106.398 2.22.775t2.236.733 2.248.69 2.261.649 2.273.605 2.284.562 2.294.519 2.304.476 2.312.431 2.32.389 2.327.344 2.333.3 2.338.257 2.343.212c4.906.425 11.144.818 16.003.388q1.193-.04 2.386-.1 1.193-.062 2.384-.147t2.38-.19 2.377-.237q1.188-.129 2.372-.28 1.185-.151 2.367-.325t2.359-.37 2.352-.415 2.344-.459 2.335-.502q1.165-.263 2.325-.547t2.314-.59 2.303-.635 2.29-.678 2.277-.72 2.263-.764 2.249-.806 2.232-.848 2.216-.89 2.2-.933 2.18-.973 2.163-1.014 2.143-1.055 2.122-1.096 2.101-1.135q1.045-.577 2.08-1.174 1.034-.598 2.057-1.214 1.023-.617 2.034-1.252 1.01-.636 2.01-1.291.998-.655 1.984-1.328.987-.674 1.96-1.365.973-.692 1.934-1.403c5.04-3.74 9.963-7.887 14.265-12.468 20.947-22.305 32.945-50.753 31.977-81.56q-.078-2.754-.226-5.506-.147-2.752-.364-5.5-.217-2.746-.503-5.487t-.64-5.474q-.356-2.733-.78-5.456-.423-2.723-.916-5.434-.492-2.712-1.053-5.41t-1.189-5.381-1.324-5.35-1.459-5.314-1.593-5.276q-.829-2.628-1.725-5.235-.895-2.606-1.856-5.188-.96-2.583-1.986-5.141t-2.116-5.089-2.243-5.034c-1.083-2.294-4.702-10.066-6.322-11.537-1.197-1.087-2.849-1.893-4.234-2.72q-3.904-2.374-7.901-4.584-1.896-1.045-3.818-2.04-1.922-.997-3.868-1.944-1.946-.948-3.916-1.846-1.97-.897-3.96-1.745-1.993-.848-4.005-1.645t-4.044-1.544-4.082-1.44-4.117-1.337-4.15-1.233-4.18-1.127q-2.096-.538-4.206-1.022t-4.23-.915q-2.122-.43-4.254-.807t-4.272-.7-4.287-.592-4.302-.483c-7.33-.8-14.95-1.295-22.326-.93"/><path d="M33.929 37.271c3.78-2.24 7.41-4.68 11.288-6.768q1.107-.607 2.222-1.198 1.115-.59 2.24-1.165 1.123-.574 2.255-1.132t2.272-1.099 2.288-1.066 2.303-1.032 2.319-.999 2.332-.964 2.346-.93 2.36-.897 2.372-.861 2.385-.827 2.397-.792q1.2-.387 2.407-.757t2.42-.722 2.428-.686q1.217-.334 2.439-.65 1.222-.317 2.448-.616 1.226-.298 2.456-.579 1.231-.28 2.465-.543 1.235-.263 2.473-.507 1.238-.245 2.48-.471 1.241-.227 2.486-.435 1.245-.209 2.492-.399 1.248-.19 2.498-.362t2.503-.325 2.508-.29 2.511-.252 2.515-.215 2.517-.18 2.52-.141q1.261-.062 2.522-.106 5.956-.213 11.911.018t11.877.902q1.999.205 3.993.457 1.993.253 3.98.553t3.966.65q1.98.348 3.95.744 1.97.397 3.93.84 1.96.444 3.909.935t3.885 1.029 3.858 1.123 3.831 1.215q1.908.63 3.8 1.307 1.893.677 3.768 1.4t3.733 1.49q1.857.767 3.695 1.579 1.839.812 3.656 1.668 1.819.856 3.615 1.756 1.798.9 3.572 1.843c3.521 1.832 6.894 3.864 10.282 5.927 1.308.796 2.85 1.56 3.998 2.575 1.385 1.226 4.404 7.568 5.431 9.65 12.003 24.34 18.518 54.322 20.041 81.336q.065 1.167.103 2.335.04 1.169.054 2.338.014 1.168.003 2.337t-.047 2.337-.097 2.336q-.06 1.167-.147 2.332-.085 1.166-.196 2.33-.11 1.163-.246 2.325-.136 1.16-.296 2.318t-.346 2.312-.394 2.304-.444 2.295-.494 2.285-.541 2.274-.59 2.262q-.308 1.127-.639 2.249-.331 1.12-.686 2.234t-.734 2.22-.781 2.203-.828 2.185q-.426 1.089-.875 2.168-.45 1.08-.921 2.148-.472 1.07-.967 2.129-.494 1.059-1.011 2.107-.518 1.048-1.057 2.085-.54 1.037-1.101 2.062-.562 1.025-1.145 2.038t-1.188 2.013-1.231 1.988-1.274 1.96-1.314 1.933-1.356 1.904c-1.974 2.711-3.916 5.37-6.154 7.872-4.01 4.485-8.192 8.852-12.787 12.747-20.629 17.487-46.68 26.727-73.507 28.22q-1.658.076-3.317.108t-3.32.02-3.318-.066-3.315-.151q-1.656-.098-3.31-.239t-3.303-.325q-1.65-.183-3.293-.41-1.645-.227-3.282-.496-1.638-.27-3.267-.581-1.63-.312-3.252-.666t-3.233-.75-3.212-.835-3.19-.918-3.164-1-3.137-1.083-3.108-1.164q-6.949-2.835-13.57-6.367c-7.474-3.908-14.564-9.034-20.886-14.6-15.875-13.976-27.395-30.831-33.733-51.084q-.881-2.776-1.598-5.598-.716-2.823-1.266-5.682t-.93-5.746-.592-5.791c-.662-8.635-.283-17.288.549-25.897q.373-3.903.882-7.791t1.153-7.757 1.423-7.71q.78-3.844 1.692-7.657.913-3.814 1.958-7.593t2.222-7.52 2.483-7.438 2.741-7.347c2.758-6.922 6.124-13.493 9.578-20.082m97.977 4.992.056.061c.521 1.967 1.742 5.005 2.024 6.81l-.101.082c-.717-.45-1.489-1.965-2.081-2.66q-1.183-1.409-2.618-2.56c.164 1.421.296 2.856.506 4.27.302 2.035 1.159 3.072 2.754 4.265-.06-1.056-.196-2.067-.134-3.13l.026.104c.37 1.537 1.46 3.317 1.51 4.851-.204.165-.103.143-.353.124-1.444-.113-6.855-6.594-8.06-8.028.212 1.921.166 3.945.54 5.837.172.87.896 1.617.785 2.52l-.118.031c-1.31-.973-3.18-6.142-3.952-7.88a34 34 0 0 0-.537 3.3q-.694-1.759-1.417-3.507c-.255 1.744-.885 3.429-1.11 5.18-.097.76.126 2.136-.193 2.787l-.176-.066c-.41-.95-.423-2.156-.634-3.176-.26-1.261-.62-2.492-1.023-3.714-.469 1.055-.922 2.103-1.522 3.092-.424-1.608-.258-2.84-.939-4.48-.29.992-.77 1.949-1.185 2.893-1.24 2.817-2.583 6.089-5.161 7.936-.608-.134-1.19-.327-1.782-.518.653-1.02 1.497-1.923 2.158-2.948 2.082-3.226 2.607-6.553 3.431-10.224-1.447-.734-2.713-1.768-4.009-2.734-.477.164-.952.375-1.463.373-.189-.181-.186-.115-.222-.342-.111-.696.18-1.412.621-1.94 1.096-1.313 3.008-.819 4.492-1.013.326-.042.481-.122.684-.37l-.121-.256a2.3 2.3 0 0 0-.681-.33c-2.493-.78-5.371-1.267-7.77.005-.74 1.388-1.022 3.104-1.424 4.618l-.207-.051c-.709-1.051-.954-2.537-1.032-3.787-.137-2.181.674-4.6 2.165-6.208 1.508-1.626 3.22-2.039 5.34-2.1.676-1.023 2.629-2.448 3.746-2.997 2.06-1.01 7.186-1.405 9.345-.656 1.965.682 5.06.035 6.734 1.497.404.353.214.875.231 1.39 1.099.01 2.273 1.241 3.082 1.95.47.41 1.759 1.347 1.798 1.938-.334.23-.828.237-1.226.288 1.103 1.215 2.17 2.701 3.004 4.113.381.646.572 1.453 1.075 2.005.212.232.313.352.41.651-.1.613-.353 1.054-.805 1.476-.52.095-1.605-.572-2.136-.806 1.176 2.124 3.572 7.358 4.221 9.602.185.64-.01 1.29.185 1.912.442 1.415 1.31 2.718 1.833 4.11.387 1.035.757 4.049.965 5.31.253.192.256.195.573.19 1.463-.704 2.17-3.436 2.852-4.84.903-1.862 2.36-3.796 4.413-4.441 1.458-.459 2.986-.047 4.286.672 2.803 1.552 4.062 4.365 4.911 7.326.893 3.115 1.343 6.388 1.719 9.6.985 8.427.986 16.83 1.01 25.299.003 1.476.463 2.935.386 4.407-.097 1.852-.923 3.42-1.276 5.198-.359 1.807-.496 3.669-.777 5.49q-.698 4.35-1.619 8.66c-.233 1.1-.376 2.487-.9 3.486-.392.747-1.315.725-1.644 1.173-.249.34-1.054 8.453-2.097 10.233-.383.653-.808.912-1.528 1.096-.952 3.643-1.933 7.11-3.394 10.593.676 1.167 1.063 2.5.923 3.864-.034.332-.058.462-.322.667-.434-.196-.559-.47-.837-.85-1.17-.061-2.007-.227-2.903.68-.16.162-.337.382-.565.447-.595.171-3.895-.35-4.545-.632l-.123-.056c-.188.316-.326.514-.297.9.236.298.412.39.794.433 1.353.151 2.91-.093 4.276-.16 2.547-.124 11.192-.39 13.235.104.451.109.794.24 1.046.639-.062 1.823-3.04 5.684-4.277 7.079 1.07 2.148 2.33 4.023 3.65 6.009.33.496.645 1.056.441 1.671-.1.299-.223.424-.518.51-1.26.364-5.465.08-7.004.067q-5.592-.05-11.183-.041-15.725-.113-31.452-.02l-10.2.175c-1.442.014-3.077.178-4.486-.072-.195-.034-.416-.08-.59-.18-.282-.163-.448-.336-.529-.656-.321-1.284 2.787-5.308 3.559-6.641-.745-1.561-1.694-3.138-2.602-4.613-.428-.697-1.001-1.404-1.305-2.16-.157-.391-.116-.597.058-.968 1.171-.95 5.901-.462 7.546-.423-.243-1.187-.215-2.105-.005-3.292-1.36.25-2.654.745-4.004 1.025-.905.188-1.846.184-2.764.272-.937.09-1.982.266-2.59 1.065-.724.95-.51 2.285-.385 3.386-10.361.124-20.734.037-31.096.026l-46.742.005c.02.4-.039 1.031.232 1.344 1.095.396 20.115.207 22.97.207l55.697-.009c.868 1.333 1.62 2.742 2.484 4.08-.51.787-1.061 1.553-1.59 2.328q-7.3-.019-14.597.084l-20.56.009q-21.477-.082-42.953.081c.482 1.991 1.18 4.003 1.826 5.948q.748 2.288 1.598 4.54.849 2.252 1.798 4.465.948 2.212 1.994 4.38t2.188 4.287 2.376 4.186 2.56 4.076 2.738 3.958 2.912 3.832c2.355 2.985 4.824 5.932 7.62 8.516l112.821-.123 39.75-.005 12.379-.001c2.397 0 4.822.07 7.215-.063 1.869-1.178 4.167-4.253 5.623-5.997 7.757-9.293 13.797-19.365 18.189-30.648 1.432-3.68 2.748-7.443 3.66-11.29q-13.023-.18-26.047-.124l-38.075-.02c-5.496.002-11.012.152-16.505.07-.488-.007-1.305.03-1.74-.208-.797-.435-1.294-2.108-1.61-2.911.81-1.116 1.561-2.21 2.231-3.419 3.427-.205 6.925-.066 10.36-.057l17.883.034 55.112-.072.173-1.481-56.764-.056c-8.563-.009-17.135.132-25.697.001.195-.408.41-.828.498-1.275.157-.806.042-1.714-.47-2.376-1.668-2.161-8.636-.906-11.303-1.273l-.04-.117c.915-.239 2.21-.117 3.165-.133 3.412-.055 5.039-.023 8.35-.998 1.066.833 2.078 1.776 3.104 2.662 1.596-.642 3.172-1.368 4.823-1.857 1.981.44 3.976 1.12 5.936 1.67 1.962-.522 3.852-1.42 5.835-1.815 1.755.614 3.337 1.612 5.062 2.294 2.356-.943 4.366-2.61 6.757-3.562 2.561 1.237 5.074 2.635 7.607 3.936a26 26 0 0 0 3.85-.577c.96-.215 2.376-.52 2.908-1.43.397-.678.594-1.6.857-2.345 1.57-4.44.617-6.63-.33-11.023-.231-1.072-.263-2.19-.555-3.247-.39-1.41-1.278-2.654-2.566-3.374q-.417-.229-.866-.387-.448-.157-.917-.24c-1.802-.328-2.216.51-3.763.96l-.14.04c-.55-.125-1.326-.222-1.782-.56-.26-.192-.347-.377-.396-.684.234-.262.413-.26.734-.365.314-.102.454-.089.61-.409-.143-.413-.317-.508-.642-.79-.081-.61-.122-1.226-.177-1.838-.704-.406-1.145-.735-1.609-1.418-.413.291-.844.597-1.344.716-.346.084-.51.082-.814-.093-.1-.484.238-.432.248-.832-.727-.047-1.348.424-2.062.389-.194-.233-.286-.39-.578-.502-.199.314-.347.514-.689.682-.22.108-.262.117-.435.308.711.138 1.303.49 1.983.639.44.096.88-.008 1.327.048.372.377.495 1.076.519 1.593-.224.342-.659.377-1.044.493-.268.405-.63 1.076-1.12 1.211-1.797-.58-1.43.049-2.53.108-.342.018-.893-.265-1.214-.388l.073-.153.114-.229c.207-.424.397-.774.781-1.067.532-.406.845-.086 1.449-.014.253-.167.24-.088.308-.416-1.272-.515-3.132.38-4.215-.241-.614-.352-.702-1.06-.889-1.693-.367.485-.716.977-1.258 1.28-1.602.895-3.397.252-5.02.833-1.188.426-2.255 1.445-3.6.99-.374-.126-.502-.3-.672-.643.078-.44.21-.547.49-.885-.51-.152-1.12-.275-1.58-.543-.241-.14-.188-.17-.252-.423.177-.431.43-.232.73-.558-.293-.106-.509-.106-.664-.388.257-.357 2.78-1.846 3.334-2.2.5-.321 1.114-.714 1.73-.585.102.118.234.297.36.396.511.401 1.421-.192 1.995-.09.517.093.816.677 1.447.677a2 2 0 0 1 .508-.475c.522.105.946.112 1.476.052l.171-.02c-.372-.244-.785-.504-1.107-.809-.247-.234-.308-.392-.325-.722.312-.342.717-.317 1.1-.565-.224-.136-.406-.254-.671-.293-.508-.077-.784.256-1.129.569-.125.113-.103.129-.26.161-.523.11-1.184-.332-1.63-.59-.49-.284-2.202-.512-2.238-.576-.547-.978.047-.667-1.129-1.573.176-.297.446-.4.739-.57-.002-.228.011-.114-.064-.394-.083-.31-.102-.152.06-.445 1.79-.825 4.79-.181 6.642.245.092-.123.189-.27.297-.38.22-.228.227-.287.544-.281 1.417 1.152 1.284-.03 1.965.304.243.12.207.316.544.335.928.055 3.03-.616 3.78-1.165l-.1-.113c-.522-.036-.988-.012-1.404-.372-.079-.154-.173-.246-.135-.427.131-.62 1.111-1.178 1.598-1.537.61.068 1.234.15 1.848.131s1.3-.146 1.906-.08c.409.045.839.231 1.255.308.368-.204.67-.346 1.095-.372 2.97-.182 4.133-.144 6.413 1.91.275-.355.586-.682.886-1.015.776.309 1.648.76 2.482.832.419-.164.835-.37 1.284-.195.219.084.437.185.655.272l.567-.448c1.481-1.183 1.78-.47 3.236-.94.476-.154.883-.665 1.355-.886.835-.392 1.913-.478 2.807-.734.582-.167 1.138-.498 1.67-.784.702.132 1.334.352 2.001.598.221-.315.394-.58.727-.791.207.182.355.386.52.605l.266.022c.21-.204.327-.332.617-.397.207.08.331.133.495.291.193.188.112.366.109.622.66.312 1.595-.203 2.174.302.067.263.14.517.228.775 1.175.395 2.46-.042 3.624.561 1.065.552.253 1.3.58 2.173l.042.103c-.029.239-.051.348-.203.542-1.758 2.228-1.881 1.767-4.44 2.847l-.053.19.315.138c.561-.048 1.136-.344 1.658-.551 3.223.587 4.191 1.367 6.414 3.646 1.018-.156 2.018-.306 3.05-.215.48.042 1.093.24 1.384.647.126.176.064.247.033.444-.325.285-.528.268-.947.338l-.064.108.639 1.026-1.194.474c-.015.29.156.592.304.838.033.055.27.38.313.39.461.111 1.807-.712 2.704-.356.316.126.328.198.44.491-.057.356-.034.431-.287.68-1.22.22-1.802 1.118-2.894 1.596-.702.308-1.35.03-2.116.387l-.151.072c-.596-.107-1.177-.24-1.786-.206l-.12.29c.373.762 1.405.745 1.734 1.403-.035.068-.063.14-.106.203-.64.926-3.096 1.243-4.113 1.214-1.491-.043-1.668-.675-2.59-1.651.346-.355.689-.787 1.182-.918.203-.055.24-.058.427-.184a1.94 1.94 0 0 0-.655-.764c-1.007-.624-2.296.679-3.225.991-.384-.089-.45-.24-.707-.53-.4-.147-.808.06-1.217.086-.435.027-.732-.238-1.01-.534-.238-.253-.546-.603-.537-.966.701-.504.903.149 2.051-.857.584-.112.696.408 1.196.51.304.06.794-.172 1.015-.357-.164-.061-.326-.13-.491-.19-.448-.16-.61-.258-.91-.649-.172-.224-.306-.426-.546-.584-.576-.38-.437.076-.805.27-.127.066-1.734-.034-2.1.05-1.972.452-1.692 2.787-3.273 3.562-1.872.917-5.406.599-6.585 2.544-.414.684-.499 1.51-.445 2.292.142 2.06.975 4.17 1.323 6.224.438 2.588.38 5.259 1.03 7.807.761-.613 1.582-1.428 2.462-1.847.327-.156.691-.285 1.059-.267.873.041 6.486 3.272 8.093 3.8l.139.043c1.367-.441 2.543-1.455 3.961-1.73 1.873-.362 4.073.52 5.888.914 1.805.392 3.61.618 5.364 1.225 1.055.365 1.952.781 2.87 1.416.663-2.34.768-5.351.92-7.8.892-14.414-.707-29.288-3.324-43.462-.426-2.306-.7-4.8-1.456-7.016-6.775.784-13.533 2.33-20.24 3.553q-18.747 3.547-37.592 6.528c-1.182.185-6.1 1.18-6.78.817.808-.606 2.215-.689 3.2-.836q20.175-3.31 40.277-7.043c6.11-1.098 12.221-2.276 18.356-3.23-1.817-.483-3.689-.757-5.534-1.116q-5.81-1.147-11.645-2.161l-29.491-5.343c-3.727-.658-7.63-.96-11.297-1.854 7.434-1.048 14.846-2.6 22.22-4.015 4.616-.885 9.218-1.777 13.816-2.748 1.787-.377 3.591-.679 5.364-1.123-3.863-.476-7.726-1.227-11.563-1.888q-10.126-1.692-20.216-3.585c-3.043-.552-6.088-1.134-9.146-1.601-2.472-.379-4.999-.63-7.441-1.16 1.752-.39 3.56-.62 5.331-.909l9.097-1.505q12.061-2.118 24.099-4.368c-.416-.038-.838-.042-1.255-.066-1.327-.076-2.889-.296-3.82-1.343l.03-.202c.666-.224 4.73 1.132 5.58 1.495 2.366-.295 4.735-.77 7.08-1.201-1.846-.308-3.677-.722-5.509-1.109-.724.416-1.308.752-2.178.688-1.031-.076-2.053-.615-3.045-.897-.718-.203-1.517-.26-2.256-.359-13.141-1.767-26.183-4.408-39.282-6.477 3.628-.839 7.39-1.334 11.052-2.03l21.499-4.288c4.518-.856 9.094-1.442 13.589-2.416-2.574-.108-5.225-.644-7.801-.455-1.836.135-3.355 1.22-5.266 1.055-1.72-.148-2.873-1.584-4.522-1.938-3.044-.654-6.194-1.06-9.267-1.585l-13.55-2.413c-3.163-.55-6.504-.916-9.583-1.83 1.327-.322 2.708-.46 4.057-.663l6.61-1c8.749-1.294 17.66-2.437 26.226-4.677-2.684-1.464-6.753-3.095-9.655-4.184q-6.178-2.383-12.515-4.305t-12.799-3.37q-1.422-.31-2.85-.597-1.427-.287-2.859-.55-1.432-.262-2.868-.5-1.436-.237-2.877-.45t-2.883-.402-2.891-.352q-1.446-.163-2.896-.302t-2.9-.253-2.905-.202-2.908-.153-2.91-.103-2.91-.054q-1.457-.014-2.912-.003-1.456.011-2.912.047t-2.91.096-2.908.147-2.905.196-2.901.246-2.897.296-2.89.346q-1.445.185-2.885.395-1.441.21-2.878.444t-2.87.494q-1.432.259-2.86.542t-2.851.592q-1.423.308-2.84.64-1.418.333-2.83.69-1.41.357-2.816.738-1.405.38-2.804.785t-2.79.834q-1.39.429-2.775.882-1.383.452-2.759.928c-5.553 1.931-10.943 4.297-16.293 6.723 2.376.59 4.866.852 7.278 1.276l15.852 2.784c4.254.734 8.508 1.35 12.677 2.493-8.541 1.33-17.073 3.052-25.556 4.71-3.965.775-8.902 1.417-12.702 2.583 4.294 1.204 8.755 1.889 13.075 3.028q4.487 1.228 8.957 2.519c1.242.362 2.486.847 3.75 1.117 1.622.348 9.723 1.275 10.48 1.754-1.171.408-2.782.36-4.043.545-1.85.272-3.688.636-5.53.958q-14.923 2.658-29.9 4.988c-3.932.591-7.922.587-11.82 1.407 1.166.447 2.38.978 3.648 1.015 1.786.052 3.232-1.033 5.049-.631.048.097.134.282.197.366.018.025.194.2.242.222.85.391 4.936 1.063 6.136 1.315q10.975 2.408 22.038 4.383c2.3.403 4.6.697 6.913 1.016-1.83.63-3.809.865-5.709 1.21l-7.983 1.479c-11.105 2.06-22.273 4.129-33.439 5.83 6.154.898 12.231 2.134 18.33 3.335l23.533 4.72c-2.499.65-5.207.874-7.76 1.273l-15.027 2.406c-11.694 1.933-23.308 4.396-35.038 6.105q21.788 3.614 43.445 7.948 4.893.936 9.776 1.931c1.56.319 3.343.507 4.8 1.147l-.073.056c-13.063-1.715-26.041-4.325-38.995-6.697-7.528-1.379-15.16-2.378-22.635-4.02-2.543 12.042-4.17 23.105-4.82 35.418-.376 7.124-.42 14.44.6 21.517 3.935-1.245 5.893-4.774 8.906-5.713 2.539.635 6.055 3.554 8.818 4.578 3.857 1.43 9.665-1.868 13.212-3.498 2.042.726 3.99 1.693 6.033 2.42-.015-1.212-.1-2.431-.083-3.642.046-3.212.678-8.012-.867-10.845-4.026-7.382-7.67-2.917-10.024-3.833-.34-.132-.456-.36-.61-.66-.004-.623.404-.84.514-1.402.128-.655-.327-1.719-.683-2.25-.318-.475-.67-.764-1.233-.869-.436.064-.653.369-.94.672l-2.608-.906c-.985 1.113-1.823.962-2.213 1.402l.05.449.176.132c.573-.038 1.239-.591 1.763-.86.398.055.488.195.785.454.371-.035.69-.106 1.027.09.149.218.274.278.23.548-.316.218-.5.353-.664.715-.07.151-.133.359-.241.486-.361.43-1.301.541-1.826.59-1.038.098-2.64-.062-3.483-.749l.01-.206c.283-.147.48-.24.686-.491-.19-.175-.103-.127-.341-.22l-.696-.266c-.684-.26-1.176-.79-1.706-1.28q-.035.038-.074.076l-.124.113c-.496.461-1.117.45-1.694.757-.357.19-.611.488-.935.721-.47-.182-.917-.41-1.369-.632-.172.383-.32.63-.656.892a6.5 6.5 0 0 0-.803.746l-.101.111c-.48-.318-.944-.663-1.412-.999-.464.206-1.223.646-1.74.566-.3-.046-.357-.113-.495-.365.133-.242.225-.4.234-.68-.344-.294-1.247-.01-1.749-.131-.335-.082-.446-.233-.628-.507.192-1.057 3.099-1.273 3.917-1.936l-.032-.19a6 6 0 0 1-.8-.547c-.018-.238-.068-.209.069-.363.488-.553 1.413-.835 2.129-.868l.181-.005c.643-.024 1.162.308 1.716.595l1.319-.311 1.006.448c.749-.152 1.735-.883 2.282-1.414.218-.212.356-.327.354-.642-.713-.249-1.71.478-2.53.288-.51-.118-.697-.412-.989-.814l-.094-.132c-.514.105-1.114.337-1.614.181-.172-.37-.024-.719.07-1.093-.492.006-.994.021-1.483-.022-.607-.053-1.322-.131-1.735-.622-.019-.91 1.457-.743 1.735-1.445a3.3 3.3 0 0 1-.749-.056l-.08-.217c.143-.446.364-.725.657-1.086.721-.203 1.473.121 2.148.369 1.054-.19 2.2-.711 3.037-.845.562-.09 1.962 1.32 2.55 1.693.48-.285.915-.567 1.336-.936.81-.038 2.153-.031 2.846-.475-.139-.19-.754-.215-1.009-.254-.25-.213-.245-.19-.277-.516.166-.333.42-.546.726-.751.545-.366 1.34-.761 1.988-.9.834-.179 1.971.13 2.849.088 1.266-.06 2.721-.713 3.97-.452.173.153.433.418.66.479.847.228 2.315-.302 2.992.465.142.16.272.343.407.51l.934-.115c1.75-.227 2.564 1.397 4.94.208 1.214-.608 2.62-.795 3.922-1.183 3.264-.972 4.886-1.782 8.418-2.194.933.69 1.856.602 2.686 1.459.812.15 1.618.167 2.44.194.109.244.247.676.41.876.255.311.496-.18.885-.201.566.559 1.158 1.087 1.75 1.619-.293.276-.453.378-.578.766.393-.17.766-.394 1.185-.248.069.109.09.125.121.27.087.396-.075.89-.345 1.176-.4.423-1.005.33-1.539.328l-.187.196c-.036.868 1.659 1.176 2.102 2.005 0 .227.006.442.035.666l.294.146c.548.021 1.01-.2 1.514-.391.622.55 1.12 1.242 1.636 1.891.393-.161.788-.324 1.189-.464.457-.161.868-.252 1.312-.043l.041.297c-.218.597-.677 1.017-1.102 1.477.504-.08.889-.163 1.369.044.041.019.082.041.125.055.484.164.57.044 1.009-.158.279.034.318-.015.519.199l-.156.513.149.093c.303-.213.462-.254.818-.298.332.121.325.095.477.412-.304 1.682-2.715 1.035-3.938 3.043l.098.073.77-.27c.685.172 1.212.955 1.859 1.3.302.162.617.334.84.602.218.262.226.417.198.742-.09.103-.161.197-.283.271-1.002.61-4.036-.565-5.248-.73l-.195.184c-.073.845.919 1.463 1.202 2.194.11.285-.005.488-.122.75-.423.395-1.019.343-1.54.522-.462.157-.563.562-.777.964-.75-.249-1.812-.145-2.401-.661-.586-.514-1.362-.963-1.81-1.601.135-.233.231-.416.287-.68-.194-.21-.334-.35-.415-.628.355-.132.641-.244.942-.486l-.005-.198c-.34-.171-.605-.1-.98-.08-.194-.239-.304-.511-.43-.789l-.178-.012c-.343.526-.2 1.212-.505 1.76-.537.361-1.082.545-1.737.542-.444-.001-.74-.089-1.065-.4-.122-.295-.163-.505-.115-.817.058-.384.187-.745.503-.983.269-.028.467.14.703.264.206-.217.395-.425.651-.585.225.28.406.548.74.703l.16-.115c-.126-.494-.653-.959-.987-1.34-.186.177-.603.671-.835.68l.004-.751c-.467-.676-1.966-1.38-2.76-1.523-.317-.056-.575-.064-.851.121a4 4 0 0 1-.114.58c-.226.154-.35.239-.632.265-.436.042-.705-.013-1.003.361a.97.97 0 0 0-.224.743c.018.264.008.468-.027.73-.204.29-.222.347-.549.472-.255-.06-.633-.177-.891-.135-.526.087-2.797 2.195-3.632 2.662-.798.445-1.596.645-2.476.846-1.42 4.627.654 4.4.7 7.768.033 2.345-.502 4.715-.462 7.167 1.244-.679 2.464-1.398 3.716-2.064 1.169-.621 2.41-1.191 3.524-1.903 2.197-1.403 3.653-3.518 6.324-4.355 1.008.974 1.903 2.052 2.926 3.017 2.266 2.138 6.186 5.012 9.439 5.092 1.952.048 4.156-1.688 5.525-2.958 1.746.334 3.465.826 5.04 1.669 1.97 1.054 3.526 2.252 5.687 2.945 1.677-.469 3.366-.828 5.034-1.346-.439-2.408-1.36-4.706-2.048-7.049-1.686-5.736-3.49-11.406-5.312-17.1-1.336-4.175-2.39-8.42-3.427-12.674-.435-1.784-1.025-3.507-1.323-5.325-1.87-11.417-1.134-30.87 1.857-42.031.893-3.334 2.302-7.08 5.48-8.873 1.291-.728 2.935-1.392 4.421-.944 3.142.946 5.281 6.133 6.656 8.832 1.552-.607 2.63-1.611 3.897-2.648-.229 2.75.15 4.64 1.856 6.86 1.078-1.99 1.772-4.147 2.516-6.276.047.568.106 1.141.202 1.704.388 2.263 1.833 4.072 3.664 5.368.54-1.841.511-3.966.64-5.874 1.13 3.1 2.224 5.508 4.802 7.674.643-2.66.558-5.36.49-8.072 1.34 2.771 2.732 5.216 4.909 7.436.65-2.565.647-5.102.57-7.722.774 1.694 1.649 3.296 2.744 4.806.203-1.318.411-2.619.726-3.915 1.686 2.089 3.088 3.171 5.383 4.541-.386-1.876-.977-3.634-1.024-5.567.834.316 1.6.766 2.446 1.065l.144-.1c.35-4.304-4.318-5.14-5.208-8.695l.102-.162c.47.059 2.757 1.952 3.275 2.328-1.346-4.225-2.757-8.468-6.315-11.389zm8.02 65.06c-.453.488-.831 1.029-1.22 1.57-.707-1.452-1.216-3.007-1.718-4.54-.5 1.88-1.032 3.318-2.283 4.82-.727-.854-2.332-3.618-2.775-3.996l.012.42c.239 1.194 1.149 5.113 2.232 5.72.282.158.508.106.784-.028 1.161-.561 1.67-3.017 2.029-4.165.332.897.595 1.855 1.248 2.575.293.104.288.125.573.01.518-.555.947-1.648 1.119-2.386l.055-.072zm-5.268 27.879c.334-.454.874-1.251 1.478-1.322.723-.086 1.33.544 1.816.998.259.241.492.507.72.776-.382-2.406-.208-4.026-.112-6.421.649 1.682 1.101 3.477 1.783 5.127.075-.73 0-1.61.155-2.301.299-1.342 1.003-1.525.907-3.287l.119.034c.32 1.131.42 2.308.749 3.432.35-2.598.65-5.459.449-8.075-.406 1.248-.58 2.668-1.11 3.847-.064.004-.13.001-.194.011-.077.012-.15.037-.226.055-.43.715-.678 1.57-.961 2.355a12 12 0 0 0-.603-1.134c-.874-1.438-.966-3.042-1.308-4.645-.205 2.484-.345 4.886-.792 7.348a11 11 0 0 0-.783-1.984c-.353.683-.599 1.258-.782 2.007l-.196.775-.1-.108a8 8 0 0 0-.307-.306c-.656.497-1.195 1.186-1.789 1.758.472-1.159.735-2.124.323-3.353-.14-.417-.3-.76-.268-1.21.101-1.403.46-2.772.611-4.168-.902 2.06-1.689 4.041-2.87 5.965-.682-2.368-.861-4.693-1.055-7.135-.595 2.043-1.356 4.087-1.776 6.17q.707-1.285 1.362-2.597c.442 1.971.944 3.923 1.024 5.95.566-1.137 1.28-1.846 2.198-2.708.638 3.128-.049 4.442-.008 7.334 1.345-1.093 2.272-1.942 4.073-2.159-.339.331-.773.566-1.17.822a43 43 0 0 0 2.778 1.521c-.014-.866-.126-1.735-.213-2.597-.312-.47-.699-1.038-1.229-1.278-.874-.395-1.887.177-2.693.503m-18.782 5.988-.24-.071c-1.442-.434-3.072-1.755-4.54-.976-.584.31-1.118.796-1.28 1.457-.096.395-.03.629.169.971l.187.084c.739-.351 1.487-.755 2.254-1.036 1.309.299 2.4 1.116 3.702 1.432.007-.57.142-1.417-.252-1.861l.17-.145c.112-.698-.024-1.485-.076-2.19-1.242-.476-2.321-.968-3.418-1.728q-1.033.468-2.06.948c-.59.708-.416 1.33-.348 2.191.448-.28 1.022-.702 1.542-.802 1.273-.242 3.19.98 4.19 1.726m16.033 3.732c1.379-.668 2.587-1.379 3.77-2.359-.444-.13-.9-.296-1.353-.381l.211-.13.177.161c1.287.125 2.934.48 4.184.294.212-.275.163-.449.127-.788-.11-1.02-.218-1.944-.204-2.979l-.15-.048c-1.408-.469-2.722-1.721-4.254-.958-.458.228-.868.523-1.274.832-.197 1.577.21 3.876-1.216 4.95-2.244 1.688-6.645-1.007-7.516 3.626-.108.572-.02 1.083.206 1.61l.109.07c.145-.347.081-1.48.26-1.631l.16.538.171.05c.475-.537.721-1.193 1.228-1.715l-.056.176-.124.41c-.253.834-.285 2.56.025 3.38.328-.59.319-1.399.481-2.052.117-.471.322-.935.5-1.386.247.805.578 1.732 1.087 2.407.42-.262.344-.723.758-.945l.094.353c.385-.106.5-.452.894-.478.133.259.148.407.046.69-.149.412-.629 1.17-1.03 1.365-.262.129-.668.117-.957.13l-.115.184c.79.62 4.174.22 5.25.133 1.542.046 2.123.533 3.47.893l.077-.133c-.337-.785-.884-1.422-.683-2.306l.225-.163.213.057c.205.505.119 1.082.1 1.617.603.986 1.232 1.546 2.177 2.2.088-.764.255-1.662.166-2.426-.14-1.195-.936-1.633-.465-2.919-.296-.16-.613-.271-.926-.391.179-.11.066-.068.334-.07.31-.002.606-.052.91-.105.314.309.272 1.205.514 1.668.119-.717-.457-1.927.062-2.47l.22.057c.223.722-.047 2.248.598 2.635.431-.222.183-.78.62-.963l.111.079c.627.433 1.31.708 1.96 1.093.428.254.814.574 1.233.841.05-1.037.326-2.6-.17-3.534-.374-.22-.885-.333-1.08-.71.756.012 1.262.197 1.781.781.34.382.412.923.716 1.303l.065-.021c.938-.254 1.789.481 2.625.853-.244-1.44-.666-2.743-1.944-3.603-1.624-1.093-4.115-.684-5.95-.396-.508-.5-.892-1.03-1.294-1.614-1.083.123-2.13.212-3.22.181-1.308.74-2.418 1.776-3.934 2.057m-16.2 3.48c-.1-.727-.412-2.015-.073-2.683l.166-.018c.268.5.231 1.105.32 1.656.094.586.202 1.259.695 1.625l.138-.11c-.142-.5-.257-.962-.175-1.485.09-.577.25-1.005.733-1.347-.249.616-.439 1.045-.142 1.687.14.305.432.651.78.712a.89.89 0 0 0 .759-.254c.331-.334.519-1.406.789-1.545.972.938 1.872 1.633 3.16 2.109-.326-1.467-.584-3.449-1.987-4.293-.843-.506-1.97-.378-2.872-.115-1.047.305-2.424.955-3.473.412-.316-.164-.605-.382-.89-.593.838.27 2.174.72 3.01.28q.1-.052.197-.109c-.143-.458-.451-.677-.866-.902-1.13-.611-2.525-.94-3.763-1.277-1.615.605-3.127 1.329-4.53 2.343-1.862.021-4.273-.085-5.704 1.318-.603.592-1.248 1.9-1.207 2.757.007.135.028.163.076.273.655-.31 1.236-1.277 1.882-1.753a35 35 0 0 1-1.43 2.212l-.085.093c-.194.116-.299.111-.361.342-.064.24-.067.44-.072.687.293-.338.35-.595.433-1.03l.085-.093c.737-.277 1.567-1.011 2.365-.974.23.01.397-.195.581-.337l.038.177c.246-.012.358-.157.552-.299.027.21.067.409.115.614l.214.038c.676-.354 1.268-1.127 1.844-1.65-.157.758-.454 1.476-.726 2.199.565-.844 1.251-1.618 1.895-2.403.186.236.078.134.327.306l.317-.254.163.069c.215.569.37.997.848 1.409.153.13.094.028.134.269l-.226.118-.411-.173-.238.127c-.374.767-.348 1.999-.446 2.851-.426-1.121-.944-1.398-1.953-1.967-.87.429-1.542.328-2.464.406-.134.19-.266.358-.429.525-.266.011-.447.01-.687-.106a5 5 0 0 0-.507-.218c-.364.222-.52.609-.72.97 1.905.035 4.12-.27 5.956-.02l.163.113q.103.067.205.138c.166.118.137.135.347.207.624.215 1.543.114 2.115-.21.967-.55 1.237-1.399 1.53-2.402.024.648.13 1.268.243 1.905.718-.837 1.648-1.572 1.385-2.756-.076-.34-.123-.43 0-.77l.275-.085c.23.095.355.171.608.151.127-.526-.023-1.205-.076-1.745.322.972.619 1.957 1.07 2.878m1.797-122.078c-3.45.317-5.23 1.129-7.504 3.802a6 6 0 0 0-.397.538c.108 1.276.2 2.346-.105 3.608-.547-1.278-.839-2.42-.935-3.808-1.783.239-3.426.766-4.562 2.272-.767 1.015-1.565 3.152-1.378 4.458.025.18.032.18.083.326.148-.163.184-.29.255-.492.315-.904 1.088-1.733 1.956-2.133.508-.235 1.118-.383 1.68-.364 1.459.05 3.056.747 4.482 1.086 1.978.471 3.936.68 5.85 1.43.898.354 2.081.95 2.654 1.74.013.167.078.276-.061.401-.796.718-7.053.47-8.338.288-.706-.1-2.065-.528-2.625-.083-.198.157-.146.08-.218.247.307.095.323.03.486.33 1.085.606 2.1 1.428 3.186 1.983 1.498-.282 2.805-.992 4.271-1.317 2.007-.444 3.989-.284 5.988-.925-2.395 1.558-3.201 1.046-5.566 1.714-1.148.324-2.29.966-3.282 1.615.202 1.447.409 2.875.424 4.34.347-.596.612-1.08.771-1.759.107-.453.22-.753.492-1.132l.183-.054c.632.64.678 2.918.794 3.818.726-1.513.995-3.09 1.618-4.616.215 1.664.396 4.948 1.372 6.292l.148-.037.105-.182c.198-.614.402-1.23.523-1.865.169-.893-.022-2.513.427-3.242l.211.008c.648.712.966 1.678 1.33 2.557.061-1.373.328-2.496.787-3.79.526 2.094.657 4.568 2.118 6.29l.136-.025c.267-1.467-.18-3.403-.617-4.804-.15-.48-.416-1.036-.468-1.533-.026-.255-.046-.252.167-.404.093.029.195.035.278.085.196.12 4.525 6.346 4.896 6.959-.496-2.767-.746-5.696-1.003-8.497 1.341 1.357 2.692 2.68 4.202 3.851-.759-2.02-1.627-3.99-2.38-6.017 1.576.888 2.775 2.017 3.9 3.423l.131-.104c.057-.983-1.582-3.232-2.181-4.038-1.242-.374-1.861-.886-2.63-1.937 1.556.53 3.093 1.036 4.708 1.361-.288-.423-1.011-1.172-1.063-1.63l.365-.05c-1.118-.637-2.132-.933-3.063-1.886 1.022.352 1.995.753 2.975 1.21-.202-.467-.397-.958-.666-1.39-.436-.698-1.113-1.373-1.408-2.137.096-.19.195-.361.317-.535-.665-1.048-2.814-1.07-3.195-2.098a2.5 2.5 0 0 1 .319-.523 35 35 0 0 0-1.634-.28c-.381-.712-.779-.936-1.545-1.17-2.533-.773-5.104-1.42-7.764-1.175m84.111 2.445c-4.36 1.26-8.891 2.067-13.351 2.9q-5.954 1.171-11.942 2.15c1.087.058 2.25.209 3.332.112 4.232-.339 8.48-1.16 12.671-1.83 4.077-.651 8.337-1.175 12.333-2.207-.85-.286-2.255-1.076-3.043-1.124m-148.402.217c-.802.4-1.61.857-2.439 1.194 2.314.654 4.77.977 7.14 1.384 6.149 1.056 12.302 1.794 18.472 2.678.764-.01 1.512-.03 2.271-.122-5.472-1.414-11.1-2.344-16.652-3.385-2.922-.548-5.856-1.315-8.792-1.749m-4.637 2.26c-2.734 1.489-11.011 5.814-12.892 7.72-.598.607-1.001 1.617-1.39 2.38 4.879.273 9.894 1.618 14.667 2.63q8.887 1.865 17.803 3.585c2.444.476 5.755 1.366 8.166 1.53.692.048 1.296-.057 1.967-.201-5.423-1.35-10.773-2.9-16.246-4.044-2.37-.45-4.765-.803-7.128-1.274-2.632-.524-5.21-1.202-7.877-1.565-1.27-.173-2.567-.047-3.846-.11-1.536-.078-3.11-.415-4.611-.742 2.023-.594 4.116-.859 6.194-1.19q3.23-.519 6.454-1.079c7.354-1.26 14.683-2.675 22.064-3.774-3.353-.33-6.66-1.042-9.989-1.547q-4.352-.638-8.684-1.396c-1.54-.267-3.154-.479-4.652-.923m159.02.426q-7.569 1.251-15.168 2.301c-2.565.368-5.202.614-7.74 1.098 4.155.829 8.357 1.367 12.526 2.119q7.355 1.334 14.74 2.488c2.404.39 4.822.891 7.238 1.172q-11.883 2.557-23.852 4.68l-10.59 2.097c-2.212.447-4.444 1.003-6.679 1.306 5.28.32 10.878-1.148 16.05-2.127 5.655-1.07 11.3-2.118 16.94-3.268 3.314-.675 7.331-1.198 10.5-2.174-.423-.849-.861-1.868-1.541-2.54-.995-.982-10.74-6.718-12.077-7.106-.165-.049-.198-.042-.347-.046m-73.66 5.914c.544.663 1.216 1.066 2.008 1.378l.248-.071c-.196-.398-1.388-1.136-1.823-1.26-.159-.044-.275-.041-.433-.047m1.458 2.402c.34.182.481.339.867.266-.292-.211-.522-.23-.868-.266m-82.779.438c-1.811.193-3.574.584-5.346.994l-.077.15.204.039c.17.035.338.078.506.118 1.742.411 3.098.654 4.895.328.051-.502.156-1.034.026-1.528zm-19.095 2.28c-2.515 4.874-5.1 9.835-6.999 14.989 3.858-.393 7.791-1.308 11.618-1.979l20.6-3.494c4.09-.628 8.204-1.229 12.275-1.964-3.97-.498-7.949-1.428-11.871-2.228l-16.292-3.35c-3.1-.666-6.19-1.53-9.331-1.974m188.998.334c-5.225 1.078-10.42 2.32-15.647 3.391-3.451.707-6.93 1.269-10.39 1.924-3.421.648-6.883 1.537-10.339 1.918 4.327.29 8.678 1.383 12.955 2.095 10.078 1.784 20.209 3.358 30.25 5.33-.972-2.444-5.571-13.567-6.829-14.658m-109.736 5.044c-.697 1.748-1.365 3.508-2.363 5.114l-.126.006.132.147-.144.142.104.144c1.222-1.202 2.593-3.06 2.605-4.838a1.4 1.4 0 0 0-.109-.622zM222.148 58a7 7 0 0 0-.746.35c-1.304.72-6.435 1.422-8.117 1.74l-17.823 3.407c-3.197.593-7.098 1.111-10.143 1.913a31 31 0 0 0 4.359-.33c6.276-.82 12.514-2.128 18.736-3.283l18.642-3.317c-1.6-.212-3.292-.525-4.908-.48m-189.066.172-2.927.335c2.601.315 5.178.81 7.758 1.266 9.673 1.708 19.453 4.093 29.182 5.335a21 21 0 0 0 2.57-.08c-3.312-.416-6.6-1.278-9.857-1.994-7.271-1.6-14.604-3.394-21.978-4.4-1.513-.206-3.23-.65-4.748-.462m119.11 1.178c-1.152 6.452-.373 18.131 1.377 24.545.88-1.772-.795-21.448-1.256-24.391zm77.406.047c-7.164 1.918-14.613 3.12-21.901 4.499-5.447 1.031-10.92 2.334-16.43 2.954 3.935.867 7.947 1.47 11.927 2.098q12.429 2.146 24.833 4.429c2.466.463 4.984.776 7.432 1.311-.58-1.953-4.616-14.438-5.469-15.305-.134-.003-.261-.017-.392.014m-203.78.165c-1.954 5.034-3.912 10.105-5.309 15.327 4.165-.936 8.377-1.614 12.57-2.405l20.77-3.877q3.934-.662 7.848-1.43c1.17-.22 2.4-.347 3.547-.658q-13.266-2.055-26.469-4.487c-2.743-.507-5.497-.961-8.233-1.506-1.548-.309-3.163-.789-4.725-.964m67.466.398c-.791 2.18-1.166 4.547-1.613 6.821-1.534 7.812-2.38 15.78-3.128 23.701-.097 1.032-.537 3.363-.349 4.305q.556-1.322.972-2.695t.688-2.78c.9-4.512 1.338-9.182 1.938-13.743.414-3.153 2.135-13.026 1.492-15.61m62.067.108c-.291 1.493-.268 3.012-.209 4.526.11 2.834.481 5.666.77 8.486q.676 7.188 1.763 14.324c.317 1.996.516 4.213 1.128 6.131.4-2.506-.063-6.086-.225-8.65-.318-5.012-1.218-20.782-3.227-24.817m-6.3.147c-1.302 3.936-.82 8.818.006 12.825l.157-.038c.698-3.245.314-9.457-.164-12.787m-52.758.121c-.594 1.759-.899 3.598-1.136 5.435-.207 1.605-1.588 19.616-1.48 19.98l.068.007c1.968-5.058 2.197-11.832 2.55-17.208.17-2.571.599-5.69-.002-8.214m2.816 1.106c-.405 2.942-.298 6.06-.353 9.03-.039 2.126-.198 4.259-.193 6.382.177-.209.153-.248.196-.505.723-3.989 2.273-11.276.35-14.906M145 68.584q-.688 4.845-.769 9.737c-.026 2.039.07 4.085-.009 6.122-.109 2.827-.463 5.643-.575 8.47-.244 6.163-.04 12.498.447 18.639.232 2.944.613 5.903 1.061 8.821.297 1.933.744 3.89.821 5.844.172 4.365-1.185 9.45-1.22 13.802 1.904-4.167 1.788-8.591 2.073-13.061.598 3.417 1.248 6.725 3.19 9.674.22-.86.428-1.726.665-2.581-1.993-4.074-2.753-8.629-3.507-13.068-.25-1.465-.582-3.022-.67-4.501-.883-6.25-1.033-12.762-1.008-19.07.01-2.202.155-4.411.121-6.613-.022-1.408-.365-2.785-.537-4.177-.143-1.156-.113-2.336-.102-3.498 2.86 6.636 6.136 15.01 13.412 17.897.501.199 1.02.327 1.542.45.228-1.552.215-3.081.17-4.646l-1.074 1.572c-1.345-.727-2.523-1.522-3.51-2.706a76 76 0 0 0-.101-7.311c-.642 1.661-1.3 3.344-2.47 4.716-3.023-5.555-5.615-10.877-6.896-17.144-.322-1.578-.538-3.188-.73-4.786-.095-.805-.09-1.819-.324-2.582m-41.7.112c-1.203 8.526-3.48 17.498-8.412 24.697-.437-1.752-.71-3.518-1.001-5.297-.288 3.903.04 7.137-3.22 9.938-.821.705-1.738 1.371-2.702 1.865l.333 2.209c6.64-3.309 9.734-7.23 12.96-13.842.718-1.472 1.283-3.057 2.064-4.49-.73 5.96-.172 12.105-.172 18.111-.001 6.139-.559 12.214-1.31 18.302-.503 3.12-.95 6.272-1.565 9.372-.358 1.804-1.006 3.663-1.203 5.485-.066.617-.041 1.12.193 1.696l.172.083c1.041-1.044 2.488-8.018 2.707-9.722l.042.123c.487 1.475.8 3.117 1.02 4.65.303 2.125.454 8.22 2.01 9.567l.12-.16c-.55-3.63-1.11-7.274-1.604-10.912-.248-1.832-.608-3.736-.625-5.582-.02-2.247.637-4.674.914-6.912.463-3.738.708-7.563.822-11.33.166-5.494.042-11.483-.254-16.97-.136-2.51-.61-5.083-.598-7.583.008-1.56.389-3.112.5-4.669.119-1.651.034-7.541-1.19-8.63m30.658 3.77c-.745 1.105-1.465 2.241-2.307 3.277-.98-.923-1.645-2.25-2.456-3.331.178.888.404 1.711.715 2.561.482 1.363.764 2.446 1.981 3.327.827-1.172 2.363-4.302 2.1-5.726-.008-.037-.022-.072-.033-.108m-19.276.488c.278 1.175 1.05 4.316 2.053 4.965.18.116.306.075.509.071.825-.48 1.325-1.723 1.626-2.597.205-.69.397-1.365.53-2.072-.842.777-1.48 1.654-2.24 2.498-.819-.823-1.566-2.232-2.478-2.865m-82.188 1.359c-1.888.246-3.784.49-5.66.817 4.766.528 9.569 1.687 14.277 2.597q11.385 2.152 22.731 4.495c1.512.355 3.419-.055 4.942-.323Q56.48 79.502 44.21 76.92c-3.37-.675-6.856-1.107-10.184-1.934-.613-.152-.98-.295-1.488-.662-.012-.008-.028-.009-.043-.013m191.041.32C219.239 76 214.6 76.74 210.192 77.7c-7.115 1.55-14.252 3.217-21.43 4.447 1.658.213 3.121.346 4.766-.018 7.06-1.368 14.074-2.938 21.144-4.266l8.64-1.584c1.596-.294 3.31-.514 4.85-1.015-1.49-.237-3.118-.638-4.625-.632m11.956.801c-3.7.359-7.45 1.26-11.111 1.945-9.897 1.85-19.732 4.128-29.668 5.748q5.545.937 11.064 2.013 10.01 1.823 19.994 3.776 4.428.9 8.866 1.752c1.716.33 3.463.73 5.205.888-.427-2.125-3.427-15.251-4.35-16.122m-215.21.018q-2.446 8.061-4.242 16.291c3.137-.868 6.45-1.321 9.64-1.996q12.282-2.673 24.663-4.834 3.512-.634 7.037-1.186c1.223-.193 2.494-.316 3.701-.58L34.704 77.98l-8.16-1.564c-2.072-.392-4.152-.862-6.262-.965M110.14 80.6c.372 1.774.832 3.632 1.97 5.09.726-1.073 1.215-2.203 1.668-3.415.159-.556.335-1.114.459-1.679-.984.95-1.564 1.996-2.216 3.19-.518-.985-1.084-2.421-1.882-3.186m24.54.603c.429 1.498 1.17 3.205 2.12 4.446.331-.892.643-1.78.903-2.695.107-.535.218-1.054.243-1.6q-.657 1.308-1.236 2.653c-.551-.872-1.212-2.192-2.03-2.805m-8.211.53c-.48.941-1.519 3.488-2.499 3.9-.282.118-.489.059-.74-.09-.943-.553-1.933-3.09-2.453-4.098q.361 1.73.797 3.443c.535 1.651 1.032 3.225 2.349 4.438 1.498-1.969 2.744-4.956 2.643-7.47zm4.39 5.361c.347 1.35 1.621 5.258 2.64 6.024.109.082.181.097.301.137.587-.262 1.227-1.987 1.484-2.61.178-.556.642-1.633.444-2.19-.012-.032-.033-.061-.05-.093-.666.132-1.584 1.767-1.999 2.352-.8-1.104-1.74-2.788-2.82-3.62m-13.904.253c-.867 1.08-1.63 2.24-2.413 3.38-.763-1.182-1.567-2.353-2.268-3.574.173.901.335 1.806.53 2.703.383 1.29.78 2.385 1.522 3.512 1.479-1.278 2.59-3.894 2.636-5.862.001-.053-.005-.106-.007-.159m-8.06 3.372c.003 1.684.916 6.77 2.245 7.929.203.177.34.228.594.287.437-.148.652-.359.862-.77.328-.645.504-1.481.706-2.18.127-.531.307-1.093.328-1.64l-.242-.277c-.782.701-1.372 2.038-1.842 2.97-1.202-1.973-1.913-4.145-2.652-6.32m12.496 1.257c.165 1.59.987 5.746 2.211 6.771.19.159.46.27.706.226.443-.079.697-.4.926-.763.702-1.11 1.052-2.628 1.365-3.898.166-.81.32-1.615.437-2.434-.914 1.618-1.773 3.353-2.97 4.78-.709-.995-2.367-4.376-2.675-4.682m14.458.988c.124 1.108.92 4.722 1.809 5.419.111.087.207.113.333.16.394-.114.568-.257.775-.617.456-.795.653-1.889.899-2.775.209-.826.393-1.644.537-2.484-.725 1.268-1.374 2.57-2.028 3.876-.654-1.062-1.445-2.735-2.325-3.579m-36.176 3.005c-.642 2.43-.219 5.68-.308 8.227-.126 3.583-.44 7.183-.832 10.746-.277 2.532-.648 5.069-1.238 7.548-.302 1.266-.908 2.639-1.046 3.907l.113.143.172-.087c3.331-6.383 3.79-17.74 3.7-24.85-.022-1.689.112-3.783-.393-5.398-.049-.156-.016-.081-.168-.236m48.624 1.366c-1.195 4.577.888 18.388 2.109 23.302.484 1.949 1.12 4.103 2.132 5.847q.087.147.18.291c-.152-1.544-.673-3.136-.993-4.662-.51-2.427-.903-4.912-1.267-7.365q-.765-5.398-1.298-10.824c-.214-2.05-.26-4.656-.863-6.59m-16.608.49c.335 1.736 1.732 5.506 3.073 6.64.319.032.351.005.606-.196.656-.519 1.1-1.983 1.394-2.746.198-.59.43-1.15.407-1.78l-.148-.273c-.57.114-.871.707-1.176 1.165-.319.477-.632.998-1.025 1.415-1.024-1.153-2.091-3.33-3.13-4.225m-14.134.518c-1.043 1.124-1.767 2.496-2.794 3.628-.555-.676-1.33-2.182-2.146-2.398-.213.209-.248.252-.231.576.026.517.401 1.194.612 1.672.39.827.795 2.067 1.569 2.586.299.01.43-.035.655-.243 1-.92 2.26-4.309 2.462-5.615zm-20.528 1.353c-.847 1.481-.348 5.25-.492 7.088-.265 3.399-.869 6.804-1.44 10.163-.174 1.023-.786 3.094-.73 3.988.09.109.138.185.268.245 2.703-3.4 2.72-11.677 2.755-16.021.012-1.499.095-3.054-.07-4.543-.043-.391-.04-.607-.291-.92m54.073 1.248c.235 7.695 1.693 15.258 2.702 22.865l.168.088q.27-2.464.156-4.939c-.137-3.368-1.439-15.788-3.026-18.014m-42.194 1.898q.14 1.026.373 2.036.234 1.01.556 1.995t.733 1.936q.41.952.904 1.863c.778-.955 1.105-1.831 1.477-2.993.598 1.828.972 3.557 2.455 4.891 1.1-1.629 1.716-3.008 2.263-4.893.19-.836.373-1.665.507-2.512l-2.856 4.905c-.873-1.405-1.766-2.8-2.556-4.256-.297.994-.599 1.931-1.09 2.85-.41-.912-2.289-5.382-2.766-5.822m45.695.349c.02 1.77.552 11.478 1.365 12.343-.104-3.65.16-8.016-.375-11.551-.316-.27-.633-.582-.99-.793m-60.814.116c-.242.344-.436.665-.535 1.078-.45 1.886-.502 3.95-.755 5.875-.112.848-.42 1.918-.398 2.745.004.129.035.18.08.285h.148c.945-1.78 2.369-7.784 1.797-9.669-.037-.121-.06-.141-.125-.232zm47.27 7.659c-.666 1.965-1.278 3.995-2.084 5.907-.636-1.686-.989-3.378-1.331-5.139-.465 1.64-.85 3.32-1.721 4.802-.907-1.408-1.606-3.05-2.078-4.655-.269 1.58-.49 3.17-1.043 4.682-.843-1.412-1.464-2.94-2.312-4.346l-.252-.35c-.28.862 1.309 4.423 1.779 5.341.242.472.537.91.85 1.337.696-1.122 1.034-2.337 1.387-3.6.591 1.124 1.14 2.309 1.926 3.313.545-.871.998-1.767 1.445-2.691.286.805.643 2.304 1.525 2.659.2.08.306 0 .5-.059.964-.95 1.505-5.603 1.432-7.039-.003-.055-.016-.108-.024-.162m-32.03.386c.143 1.76.75 6.61 2.134 7.73.159.129.177.126.341.2.378-.072.556-.18.764-.513.46-.738.663-1.813.926-2.648.31.987.583 1.917 1.202 2.764a48 48 0 0 0 1.37-3.621c.624.75 1.244 1.6 1.962 2.259.729-1.6 1.21-3.216 1.44-4.96-.258.536-.47 1.031-.625 1.608-.235.588-.457 1.174-.766 1.728-.736-1.138-1.329-2.364-1.948-3.568-.168 1.634-.54 3.263-1.478 4.64-.484-1.715-.741-3.42-.96-5.184-.675 1.902-1.318 3.827-1.78 5.793-.432-1.172-1.855-5.488-2.581-6.228m109.564 3.918-.111.145c-.238.304-.4.578-.786.697a6 6 0 0 1-.644-.204c.12.364.32.495.66.666.41.207 1.023.386 1.264.796.148.252.18.386.402.588l.53.487c.015-.14-.026-.217-.062-.352-.155-.588-.008-.95.224-1.484l.124-.3c-.404-.229-.918.05-1.209-.342-.156-.21-.215-.506-.392-.697m-159.758 1.382c-.508.363-1.008.724-1.544 1.044l-.206-.052-.04-.22c-.057-.297-.027-.179-.114-.445-.256.199-.312.367-.363.69-.053.338-.005.826-.163 1.122-.19-.229-.27-.495-.37-.77-.328 1.015-.063 2.231-.385 3.289-.31 1.02-1.051 1.961-1.426 3.002.512-.078 1.028-.144 1.534-.252.624-.25 1.57-.789 1.956-1.347l-.112-.088-.118.06c-.292.143-.48.255-.817.204-.276-.15-.396-.243-.562-.51.107-.226.236-.374.405-.556-.216-.412-.486-.605-.51-1.102.098-.264.172-.555.443-.693.372-.19.72-.132 1-.495.107-.369.111-.701.431-.93.344-.034.729.002 1.001-.214a15 15 0 0 0-.23-.7c.161-.285.6-.285.586-.557zm159.749 1.59.103.04zm-6.375.177c-.039.173-.082.647-.232.727-.218.116-.51.097-.752.108-.078.284-.046.452.085.713.4.802 1.81 1.284 1.959 1.582.203.406.15.878.507 1.218 1.302-.068 1.277-1.455 2.916-.572.01-.496.01-.864.385-1.241.29-.292.647-.53.981-.767-.812-.206-1.523-.47-2.245-.905l-1.622.583-.12-.09c-.633-.485-1.044-1.276-1.862-1.356m-161.942.137c-.187.388-.442.799-.444 1.236l.107.112c.28-.282.545-.49.615-.901-.078-.231-.087-.28-.278-.447m1.658.089-.136.21c-.176.28-.318.615-.245.953.008.041.026.08.04.12.226-.007.358-.036.572-.1.218.194.24.376.306.651-.081.327-.099.426-.39.636-.734.53-2.537.503-3.394.244-.893-.268-.832-1.908-1.667-1.804-.417.405-.865 1.257-.89 1.848-.008.206.005.231.038.411l.21.149c.472-.317.783-1.003 1.312-1.177l.156.094c-.007.695-.454 1.27-.558 1.962.64 1.297 2.201 2.303 3.504 2.876 1.298-1.168 2.478-2.492 3.744-3.703.212-.907.398-1.908.018-2.799l-.21-.08-.633.525c-.252-.037-.39-.132-.555-.325-.124-.145-.224-.325-.324-.489-.292-.167-.57-.174-.898-.202m3.366.293c-.031.372-.072.456.111.774l.459.231c.038-.398.049-.427-.152-.77zm163.255.5-.155.45.104.075.263-.092.173-.122a4 4 0 0 0-.385-.311m3.138.31-.537.33.018.206c.325.23.666.446.947.728.215-.274.261-.41.291-.757-.135-.337-.151-.337-.467-.523zm-177.765.44c-.412.457-.846 1.1-1.463 1.257-.483-.042-.734-.322-1.092-.624-1.041 1.042-2.139 2.129-2.092 3.722.013.435.125.791.467 1.084.554.476 1.243.39 1.905.285.391-.092.82-.214 1.223-.222 1.096-.02 2.724.794 3.471-.354.17-.262.233-.525.144-.83-.284-.977-1.483-1.493-1.916-2.378-.32-.653-.11-1.408-.647-1.94m163.395.04c-.5.424-.866.816-1.577.734-.326-.038-.653-.144-.969-.233.661.712 2.476 3.02 3.403 3.103.606.053.86-.707 1.47-.234.123.397.123.652-.071 1.03-.555 1.083-2.68 1.59-2.379 2.887.146.63.605 1.34.904 1.92.322.107.543.183.889.128 1.661-1.101 3.139-5.504 3.622-7.391-.866-.524-1.743-1.136-2.67-1.538-.437.293-.843.623-1.369.72-.561-.194-.716-.91-1.253-1.126m-5.125.509-.142.075c-.58.299-1.086.414-1.721.522-.195.228-.22.174-.213.493.011.483-.109.681-.452 1.02-.466.46-1.006.875-1.51 1.293.465.62.87 1.324 1.703 1.442.53.076 1.14-.155 1.646-.298.565.218 1.133.428 1.68.69.544.267 1.081.535 1.65.75.626-.568 1.817-1.452 1.823-2.391a.96.96 0 0 0-.359-.772c-.83-.715-3.559-1.35-3.968-2.184.024-.341.073-.378-.137-.64m-142.779 1.579-.143.519.098.158c.15-.057.276-.106.413-.192l.296-.04c-.032-.206.017-.14-.167-.265-.184-.124-.284-.15-.497-.18m50.52.42c-.235 1.786-.24 5.617-.74 7.038l-.159.052c-.801-.967-.915-2.538-1.09-3.752-.026.682-.305 6.356-.223 6.466l.145-.327c.194-.37.254-.604.617-.822 1.049.368 1.239 2.534 1.894 2.832l.063-.211.112.141c.267-.039.248.006.449-.207l-.077-.194c-1.386-3.582-.378-7.32-.99-11.017m-88.817 1.274-.565.358-.027.19.189.171.51-.317c.03-.293.065-.158-.107-.402m96.6.174c.094 2.428-.197 4.442-.764 6.786-1.052-1.833-2.034-3.61-2.548-5.672-.004 1.429.197 4.996-.702 6.102-.216.265-.333.248-.638.235-.886-.54-1.31-1.588-1.792-2.472.114 1.84-.075 3.667-.174 5.503.564-.185 1.124-.273 1.709-.362.278.222.594.409.701.764-.373-.038-.707-.317-1.017-.514l-.084.107.43.4c-.231.064-.238.058-.457.003-.628-.157-1.029-.334-1.624.042a8 8 0 0 0-.647.463c-.021.738-.034 1.46.02 2.199.727-.364 1.487-.815 2.27-1.03.798.415 1.6.822 2.376 1.274l1.121.654c-.03-.726-.046-1.455-.157-2.174-.641-.163-1.758-.304-2.209-.794.659-.047 1.27.44 1.971.433.208-.28.204-.464.165-.817-.022-.192-.078-.387-.127-.574-.44-.207-1.053-.28-1.221-.791-.463-1.41.382-3.458.596-4.885.135 1.692.067 3.509.4 5.166q.045.237.093.474c.162-1.285.353-2.54.635-3.805.666.865 1.24 1.77 1.814 2.696.015-1.994.278-3.847.475-5.822.703 1.148 1.335 2.214 2.35 3.122-.384-1.042-2.497-6.207-2.966-6.71m96.562.203c-.827.482-2.085 1.428-2.324 2.415-.034.138-.017.223-.004.354.268.27.472.36.859.361.976.005 2.214-.47 3.165-.728.897-.397 1.88-1.17 2.538-1.893l-.026-.118q-.123.03-.247.055c-.56.098-2.54-.575-3.961-.446m-159.531.329c-.823.396-1.599.852-2.294 1.45a8.2 8.2 0 0 0-.565 2.397c.994-.132 1.974-.308 2.921-.65 1.524-.677 2.57-1.538 3.659-2.795-1.127.04-2.228.192-3.279-.275a1.7 1.7 0 0 0-.442-.127m-6.616.552c-.535.64-1.248 1.376-1.139 2.281.096.796.79 1.316 1.394 1.748q.575.409 1.18.774l.38.196c.248-.16.235-.274.298-.559.224-1.015.227-2.329 0-3.34-.47-.609-1.408-.843-2.113-1.1m62.176 9.54-.04.076.046.02.078-.08zm-2.383 14.004-.376.484c.097.29.291.34.54.502.13-.181.19-.176.148-.413a.9.9 0 0 0-.312-.573m12.26.47c.332.43.49.428 1.01.549l.09.133c-.284.024-.622-.006-.859.152l-.085.239c.78.62 3.393.374 4.403.37l.194-.166c-.094-.39-.41-.689-.773-.886-.355-.193-1.583.084-2.09.046-.643-.047-1.257-.312-1.89-.437m-2.166.32-.095.087c-.462.403-.938.579-1.5.788l-.073.101.018-.082c.032.019.062.042.096.057.312.136.861.08 1.21.083l1.744-.006c-.32-.346-.78-.987-1.272-1.029-.043-.003-.085.001-.128.001m9.564.199-.078.389.138.075.12-.075.05-.368c-.076-.01-.156-.041-.23-.021m-11.757.262h.116zm-1.252.432.069.038zm.718-.058h.15zm-.785 2.446c-.742 3.62-1.47 7.237-2.372 10.821l2.058.004.367-2.107 2.364-.061.387 2.199h1.902c-.702-3.642-1.664-7.23-2.436-10.857zm15.373-.008c-.073 3.607-.2 7.237-.09 10.845 1.536.04 3.498.327 4.73-.796q.32-.293.592-.63c.406-.911.67-1.825.305-2.799-.26-.692-.752-1.192-1.293-1.677.653-.617 1.1-1.215 1.135-2.144.026-.712-.165-1.519-.691-2.028-1.066-1.03-3.301-.768-4.688-.771m-21.076.173c-.916.109-1.832.233-2.751.3l-.01 1.545c1.135.001 2.278-.024 3.411.057-.93 1.822-2.827 5.187-3.193 7.087-.102.53-.054 1.121-.04 1.659l3.718.017 1.978-.017c-.03-.643-.044-1.293-.096-1.935l-3.674-.004q.894-2.078 1.952-4.078c.528-.993 1.23-2.008 1.604-3.068.162-.457.317-.992.201-1.474-.495-.345-2.414-.108-3.1-.089m11.433-.08.001 10.78 1.689-.002q.007-3.593-.028-7.186c.614 2.34.943 4.804 1.358 7.188l1.95-.002c.412-2.525.953-5.027 1.185-7.578.064.564.154 1.136.157 1.704q-.072 2.938-.046 5.877l1.683-.012c.003-3.584.084-7.185-.036-10.766l-2.426.006c-.76 2.238-.902 4.684-1.551 6.964-.504-2.304-1.026-4.62-1.333-6.96zm21.601.056c-.684 3.558-1.636 7.054-2.276 10.622l1.913.032.369-2.057c.677-.06 1.38-.172 2.055-.073l.117.107q.295 1.018.622 2.025l1.837.02q-1.284-5.338-2.42-10.71zm-5.173.27c.036 3.453.074 6.89-.01 10.344.627.003 1.366.086 1.977-.038-.033-1.764-.082-3.531-.073-5.296.007-1.493.204-3.165-.076-4.63-.628-.458-1.207-.048-1.818-.38m41.255 61.543-1.989 5.399c-2.031.075-4.142.03-6.16.25 1.528 1.346 3.206 2.539 4.655 3.968-.54 2.01-1.043 4.04-1.637 6.034 1.713-1.152 3.383-2.396 5.12-3.506 1.85 1.009 3.553 2.26 5.376 3.315-.508-1.94-1.11-3.857-1.579-5.806 1.426-1.5 3.122-2.689 4.617-4.114-2.067-.009-4.122-.05-6.186-.139-.531-1.42-1.36-4.32-2.217-5.4m-99.863.13c-.681 1.776-1.288 3.627-2.085 5.352-1.982.033-3.98.017-5.959.145 1.54 1.32 3.186 2.512 4.712 3.845-.515 1.785-1.087 3.568-1.521 5.375 1.138-.791 3.472-2.743 4.739-3.02l.175.058c1.638 1.037 3.26 2.11 4.914 3.121-.504-1.843-1.099-3.661-1.593-5.505 1.522-1.37 3.243-2.534 4.71-3.955-1.981-.003-3.963-.104-5.942-.102-.567-1.227-1.536-4.579-2.15-5.315m49.994 5.122c-.901 2.321-1.848 4.635-2.657 6.99l-7.889.174c2.074 1.698 4.395 3.277 6.335 5.115-.65 2.526-1.512 4.996-2.112 7.534 2.133-1.506 4.263-3.053 6.448-4.482.785.223 5.224 3.597 6.486 4.331-.664-2.466-1.468-4.91-2.053-7.394 1.96-1.686 4.015-3.27 5.919-5.017q-3.836-.192-7.677-.229c-.43-1.115-2.348-6.58-2.8-7.022m27.619 2.246c-.69 1.781-1.258 3.778-2.119 5.47-1.97.11-3.945.055-5.913.17 1.523 1.345 3.162 2.543 4.717 3.849-.416 1.866-.82 3.742-1.342 5.583 1.25-.762 3.447-2.502 4.812-2.791l.377.121c1.577.983 3.146 1.989 4.764 2.903-.633-1.931-1.31-3.973-1.722-5.962 1.57-1.17 3.2-2.337 4.61-3.702a60 60 0 0 0-5.962-.23c-.487-1.274-1.502-4.487-2.222-5.411m-55.074.138q-1 2.553-1.88 5.15-3.023.151-6.048.227c1.441 1.45 3.124 2.566 4.639 3.921-.562 1.907-1.194 3.793-1.745 5.703 1.554-1.054 3.338-2.545 5.064-3.231 1.634 1.073 3.284 2.128 4.9 3.227l-1.696-5.648c1.554-1.398 3.364-2.504 4.881-3.933-2.022-.11-4.044-.235-6.07-.242-.47-1.38-1.142-4.062-2.045-5.174"/><path d="M112.424 30.548c.875-.679 1.705-1.073 2.804-1.265 2.808-.064 5.392 1.047 8.09 1.557.96.182 2.029.08 2.957.36-.203.362-.749.348-1.11.593.684.69 1.976.238 2.541.997l-.197.162c-1.556.35-3.45-.523-4.945-.93-.241-.031-.781-.189-.966.003-.046.048-.145.486-.169.564-.458 1.473-1.436 1.622-2.689 2.344.206.59.477 1.166.722 1.741-1.367-1.179-2.643-1.986-4.309-2.7-.82-1.214-1.98-2.177-2.729-3.426m4.057 1.267c-.108.596-.272 1.262.109 1.797.284.4.787.58 1.217.779-.271-.358-.547-.7-.849-1.031-.101-.546-.096-1.135-.477-1.546m2.967.09c-.028.468-.005.903.04 1.37l.13.136.151-.095c.232-.34.347-.459.389-.876-.173-.306-.382-.42-.71-.534m4.219 5.452c-.053.016-.106.035-.16.047-.679.152-1.98-.789-2.598-1.137.745-.086 1.913.494 2.633.755zm8.588 14.521-.075-.079zm-8.181 6.98c-.126-.01-.217-.065-.33-.116-.537-.753-1.489-2.116-1.432-3.048.596.258 1.326 1.48 1.659 2.052.267.46.238.599.102 1.112m10.382 76.431.203-.087zm-.053.051.053-.052zm-.646.32c.175-.255.358-.24.646-.32-.271.234-.295.29-.646.32m3.429.571.064-.074zm-4.309 5.394c.814-.982 1.849-1.666 2.954-2.277 1.11.298 2.156 1.496 2.953 2.287-.931-.62-1.862-1.248-2.924-1.623-1.068.242-2.068 1.027-2.983 1.613m-23.712 3.773-.394.179-.153-.115c.017-.036.03-.073.051-.106.457-.715 1.734-1.047 2.519-1.209.303.073.466.06.684.298-1.114.183-1.761.314-2.707.953m31.075-.281c-.721-.012-1.37-.295-2-.621.828-.011 1.3.189 2 .621m-4.816-.404.076-.056zm-4.884 4.163c.175-.105.34-.218.489-.358.368-.35.375-.647.394-1.13l.009-.252c.018-.405.064-.596.36-.873.28.48.025 1.154.247 1.708l.185.032.124-.255c-.082-.34-.152-.682-.052-1.029.09-.312.192-.441.461-.608l.212.1.066.307a5.5 5.5 0 0 0-.242 1.086l.124.103c.727-.337.763-.963 1.038-1.63.302-.732.748-1.072 1.469-1.364-.33.33-.672.661-.913 1.065-.527.881-.272 1.734-.068 2.667.183-.277.314-.514.623-.667.249.288.161 1.112.176 1.512-1.291.213-2.6.203-3.899.335-.444.045-.884.209-1.327.194l-.008-.191c.154-.297.28-.523.532-.752m.128-3.754-.085.023-.084-.124.082-.037zm1.083-.156.159-.044zm-19.54 1.668c-1.614-.87-3.168-.246-3.676-.624.868-.271 2.326-.403 3.132.072.255.15.396.3.544.552"/><path d="m130.6 148.591-.187-.159c.012-.861.23-1.743.388-2.59l.167.226c.128.93-.096 1.648-.369 2.523m-13.086-2.551.094-.027zm-5.303.594.019.103zm-7.962 1.356-.01-.24zm8.126.698-.066-.067zm22.746 1.252-.068.105c-.5.196-1.194-.06-1.67-.248.457-.054 1.373-.105 1.738.143m-1.895 6.9c-.297.174-.737.38-1.087.379-.174 0-.337-.031-.451-.168-.396-.476-.202-1.557-.173-2.141.526-.031 1.17-.11 1.664.103.206.09.414.258.468.483.123.504-.17.933-.42 1.343m-17.095 2.878-1.23.03c-.092-1.084.394-2.477.654-3.54.028.028.059.052.083.083.421.54.825 2.617.757 3.32zm27.099.034c-.34.009-.55.037-.871-.103-.484-.868.194-2.526.432-3.448.066.057.093.076.149.159.415.62.796 2.49.623 3.225zm-9.813 1.593a2.7 2.7 0 0 1-.631.351c-.369.151-.58.13-.945-.013-.556-.696-.347-1.974-.329-2.83.394-.006.807-.022 1.192.07.383.09.757.311.939.673.279.555-.006 1.23-.226 1.749m-17.897 30.062c-.43-.137-.868-.271-1.282-.452-2.357-1.03-4.002-3.028-4.91-5.395-.557-1.453-.92-3-1.15-4.536-.28-1.863-.81-11.718-.274-12.909 7.13-.168 14.307.01 21.44.016l8.289.007c1.565.002 3.2-.083 4.758.072.226.2.275.422.333.708.32 1.583.136 3.468.133 5.09-.008 4.793.334 7.015-1.845 11.506-.54 1.113-1.089 2.267-1.791 3.287-.748 1.084-1.775 1.994-3.1 2.232a23 23 0 0 1-1.263 2.011c-1.525 1.819-3.309 2.732-5.587 3.273-.697 1.28-1.542 2.894-2.716 3.803-.47.363-1 .563-1.597.459-1.686-.292-3.014-2.671-3.88-3.998-3.565-1.41-3.276-2.528-5.455-5.059zm-4.268-21.581c-1.043 4.008-.186 10.405.274 14.588l.105.142.101-.008c.773-4.028.66-8.635.041-12.686-.086-.566-.148-1.463-.458-1.954-.018-.03-.042-.055-.063-.082m29.424.016c-.819 2.792-1.683 8.184-.611 10.9 1.166-2.711 1.113-7.951.61-10.9m-5.375 1.747c-.906 4.38-.768 11.238.32 15.584.703-2.29.636-13.42-.32-15.584m-18.76 1.001c-.61 3.276-.832 6.79-.557 10.105.155 1.873.485 3.728.683 5.596.912-1.175.288-12.874.03-14.892a7 7 0 0 0-.156-.809m13.761 1.242c-.778 4.979-.644 10.016-.706 15.032-.012.957-.316 3.1.08 3.91l.224-.173c.756-5.23 1.043-10.12.786-15.403-.047-.965.04-2.5-.384-3.366m-9.131.883c-.458 5.82-.55 11.958.344 17.744l.139.124.07-.1c.582-5.14.668-10.277-.054-15.409-.093-.665-.146-1.79-.5-2.359m4.467-.017c-.915 3.698-.496 11.67-.23 15.66.05.775-.022 2.182.312 2.851l.136-.015c.743-3.097.994-15.815-.218-18.496M86.334 194.05l-.054.07zc1.236-1.15 2.285-2.132 3.78-2.958-1.969 2.686-3.978 5.221-5.1 8.417 1.823-2.305 4.943-7.079 7.308-8.594.54-.346 1.196-.562 1.793-.792-1.28 1.367-2.88 2.19-4.017 3.718.858-.505 1.638-.953 2.59-1.257-.54.767-1.12 1.528-1.594 2.337 2.353-2.239 4.708-3.718 7.933-4.37-3.777 3.395-9.291 5.31-11.755 10.034 1.645-1.627 4.641-4.496 6.75-5.363 1.076-.443 2.319-.677 3.44-1.01.804-.24 1.983-.769 2.824-.73.187.007.198.02.351.069-.006.228-.1.274-.263.42-.956.857-2.356 1.504-3.459 2.165-1.889 1.132-3.794 2.405-5.449 3.864 3.312-1.66 6.738-3.155 10.522-2.755-1.546.774-3.261 1.209-4.917 1.691.813.132 2.9.355 3.417 1.021l-.156.12-.147-.022c-.934-.127-1.829.091-2.745.257.785.05 2.016.014 2.673.476l-.046.081c-.7.036-1.366-.12-2.062-.122-.887-.003-1.814.163-2.693.28 1.603.121 5.206.283 6.369 1.46.102.103.127.177.184.299l-.048.268c-.912.138-2.8-1.061-3.856-1.266-2.957-.573-8.104 2.45-10.032 4.614 4.284-.353 7.74.723 11.38 2.933-2.525-.364-5.05-.974-7.582-1.237-4.127-.43-8.339-.235-12.484-.235-2.677 0-5.382-.178-8.054-.083q-1.696.062-3.372.337c-1.665.267-5.273 1.424-6.8.818.067-.265-.004-.169.25-.33 2.409-1.531 8.676-2.448 11.449-2.385-2.173-1.84-5.805-4.368-8.834-4.053-1.624.168-3.185 1.038-4.628 1.752 1.136-1.483 2.28-2.342 4.18-2.584 1.507-.19 2.953.12 4.415.452l.148.073-.148-.073c-2-1.02-3.76-1.042-5.947-.97.428-.365.868-.674 1.34-.98.797.017 1.6.114 2.395.185-2.337-.903-4.763-.827-7.093-1.617 4.332-1.167 6.944.112 10.983 1.501-2.349-1.696-4.746-2.652-7.441-3.65 1.924-.316 2.619-.144 4.502.279-2.248-1.173-4.25-1.98-6.05-3.846 4.598.957 8.748 4.204 12.624 6.756l.106.09.087.09-.087-.09-.106-.09c-3.41-4.14-6.886-5.51-10.98-8.497 5.632.898 6.314 2.73 10.566 5.85-.758-1.085-5.45-5.022-5.556-5.586l.245-.09c2.289.291 6.892 6.634 8.694 8.555-1.036-3.921-4.118-5.884-6.993-8.446 1.907.634 3.106 1.853 4.527 3.202-1.711-2.849-4.516-4.78-6.958-6.954l.198.076c3.144 1.244 7.428 4.695 9.415 7.47.462.645.777 1.362 1.098 2.083-.187-1.434-.359-2.864-.831-4.24-1.208-3.514-4.614-8.018-6.988-10.912 3.462 1.484 6.484 5.168 8.106 8.478.692 1.414 1.174 2.949 1.77 4.407.109-2.232-.006-4.48.069-6.716.07-2.118.36-4.22.659-6.316 1.539 3.683 1.99 7.974 1.448 11.917 1.987-4.78 5.346-8.606 9.225-11.941-3.072 5.609-7.053 9.273-7.082 16.22.195-.627.396-1.25.636-1.862 1.273-3.252 3.514-6.667 6.837-8.128-1.199 2.525-4.28 4.01-4.933 6.035m9.852.996-.186.055zl.184-.17zm-5.642 4.922-.043.12zc.686-.483 4.926-4.43 5.272-5.022-.079.022-.159.037-.235.065-1 .369-4.499 3.947-5.037 4.957m-16.418.533.048.186.2.163-.2-.162zm-.21-.262.145.073zm111.301-.421-.07.056zl.114-.087c3.897-2.981 6.564-6.38 11.823-6.944-2.28 1.333-6.84 4.76-8.406 6.827 2.873-1.507 5.308-3.075 8.732-2.082.161.047.196.07.329.134l-.012.139c-2.102.357-4.19.979-6.042 2.066 1.792.12 3.52.355 4.798 1.777.335.372.588.808.843 1.237-1.302-.753-3.506-1.525-5.03-.98-.06.021-.108.066-.161.1.156.271.44.408.697.571-.55.287-1.605.251-2.265.434-2.324.642-4.686 2.227-6.548 3.741 3.966.221 8.121.26 11.65 2.36-3.148-.214-6.242-.913-9.387-1.172-3.208-.265-6.442-.196-9.659-.201-2.89-.005-5.805-.083-8.692.021-2.424.087-4.888.511-7.276.916-1.436.243-2.96.618-4.42.588 3.695-2.427 9.391-2.542 13.658-2.522-2.3-2.621-5.892-3.945-9.227-4.563-.136-.137-.411-.5-.568-.575-.537-.256-3.971 1.17-4.983 1.159l-.072-.13q.062-.073.128-.145c.789-.838 2.745-1.625 3.871-1.723.43-.037.861.06 1.297.048l-.078-.232c-.892-.587-3.932-.667-5.054-.66 2.499-.957 4.433-.591 6.999-.202-2.496-1.036-5.114-1.57-7.747-2.128 2.359-.622 6.497-.438 8.62.844.786.474 1.543 1.335 2.418 1.585.027-.179-.548-.679-.696-.827-1.416-1.422-2.897-2.793-4.583-3.894-.844-.552-1.778-.984-2.598-1.57-.246-.177-.434-.294-.536-.581.305-.185.508-.13.848-.082 4.226.6 10.733 5.828 13.305 9.147l.067.153-.067-.153c-1.516-4.032-9.1-8.884-12.473-11.768 5.62 1.767 10.093 4.58 13.334 9.594q-.11-.462-.257-.913c-1.084-3.27-2.225-4.582-5.203-6.295a68 68 0 0 0-3.734-2.021c1.372.185 2.633.572 3.959.95-1.442-.863-2.967-1.59-4.432-2.415 3.552.896 7.294 2.316 9.783 5.134.71.804 1.28 1.748 1.863 2.646-1.326-5.252-2.778-7.11-6.128-11.21-.846-1.034-1.841-2.084-2.52-3.233 1.23.608 2.331 1.538 3.378 2.416 3.55 2.975 5.129 5.13 6.911 9.414-.029-2.742-.512-10.109.102-12.328l.156-.057c.874 1.207 2.237 9.226 2.517 11.02 1.82-3.808 4.102-7.712 7.418-10.422-1.21 3.595-3.759 6.612-4.774 10.335-.372 1.364-.196 2.801-.449 4.189l-.03.151c2.374-3.777 5.362-6.304 9.518-7.97-.605 1.057-1.477 1.868-2.33 2.721-2.668 2.668-4.996 4.926-6.012 8.673 2.514-4.717 8.263-10.066 13.27-11.94-3.119 2.576-7.803 7.507-9.957 10.934m-3.222.62.129.125z"/><path d="M182.669 192.018c-.014-.241-.028-.152.038-.397.534-1.992 2.634-3.903 4.409-4.879l-.005.182c-.503.972-3.55 4.252-4.442 5.094m-12.721-1.727c-.983-.3-3.093-2.408-4.031-3.19.048.004.097.003.145.011 1.57.255 3 1.946 3.885 3.18m-13.697 19.052.056-.08z"/></svg>